<?xml version="1.0" standalone="no"?>
<!DOCTYPE svg PUBLIC "-//W3C//DTD SVG 1.1//EN" "http://www.w3.org/Graphics/SVG/1.1/DTD/svg11.dtd" >
<svg xmlns="http://www.w3.org/2000/svg" xmlns:xlink="http://www.w3.org/1999/xlink" version="1.1">
<metadata>
Created by FontForge 20141024 at Thu Apr 30 19:19:21 2015
 By System Administrator
Copyright (c) 2007 Monotype Imaging Inc. Soho is designed by Sebastian Lester. All rights reserved.
</metadata>
<defs>
<font id="SohoGothicPro-ExtraBold" horiz-adv-x="349" >
  <font-face 
    font-family="Soho Gothic Pro"
    font-weight="800"
    font-stretch="normal"
    units-per-em="1000"
    panose-1="2 11 9 3 3 5 4 2 2 4"
    ascent="792"
    descent="-208"
    x-height="578"
    cap-height="743"
    bbox="-87 -296 1605 1175"
    underline-thickness="50"
    underline-position="-50"
    stemh="143"
    stemv="217"
    unicode-range="U+0020-FE6A"
  />
<missing-glyph horiz-adv-x="500" 
d="M12 0v665h475v-665h-475zM88 618l162 -243l161 243h-323zM60 575v-484c0 -1 161 242 161 242zM440 575l-162 -242l162 -243v485zM411 48l-161 242l-162 -242h323z" />
    <glyph glyph-name="f_i" unicode="fi" horiz-adv-x="801" 
d="M332 0h-216v435l-90 10v133h90v39c0 129 63 181 189 181c56 0 114 -9 150 -17v-114c-33 2 -56 3 -75 3c-43 0 -48 -14 -48 -55v-37h403v-578h-217v435h-186v-435zM739 647h-226v135h226v-135z" />
    <glyph glyph-name="f_l" unicode="fl" horiz-adv-x="803" 
d="M332 0h-216v435l-90 10v133h90v37c0 147 76 183 209 183c61 0 156 -11 195 -16h217v-782h-217v666c-35 2 -85 4 -127 4c-45 0 -61 -6 -61 -55v-37h122v-143h-122v-435z" />
    <glyph glyph-name="f_f" unicode="ff" horiz-adv-x="888" 
d="M736 0h-216v435h-187v-435h-217v435l-90 10v133h90v39c0 127 63 181 190 181c55 0 114 -9 149 -17v-114c-32 2 -55 3 -75 3c-42 0 -47 -14 -47 -55v-37h187v39c0 127 63 181 189 181c55 0 113 -9 149 -17v-114c-32 2 -55 3 -75 3c-42 0 -47 -14 -47 -55v-37h121v-143
h-121v-435z" />
    <glyph glyph-name="f_f_i" unicode="ffi" horiz-adv-x="1202" 
d="M1136 0h-217v435h-184v-435h-217v435h-185v-435h-217v435l-90 10v133h90v39c0 128 63 181 190 181c55 0 114 -9 149 -17v-114c-32 2 -55 3 -75 3c-42 0 -47 -14 -47 -55v-37h185v39c0 128 63 181 189 181c56 0 114 -9 150 -17v-114c-32 2 -56 3 -75 3
c-42 0 -47 -14 -47 -55v-37h401v-578zM1141 647h-226v135h226v-135z" />
    <glyph glyph-name="f_f_l" unicode="ffl" horiz-adv-x="1205" 
d="M1138 0h-216v666c-35 2 -85 4 -127 4c-46 0 -60 -6 -60 -55v-37h121v-143h-121v-435h-217v435h-185v-435h-217v435l-90 10v133h90v39c0 128 64 181 190 181c55 0 114 -9 149 -17v-114c-32 2 -55 3 -75 3c-42 0 -47 -14 -47 -55v-37h185v37c0 147 76 183 209 183
c61 0 156 -11 195 -16h216v-782z" />
    <glyph glyph-name="f_b" unicode="fb" horiz-adv-x="1145" 
d="M332 0h-216v435l-91 10v133h91v35c0 148 77 185 214 185c60 0 131 -6 187 -16h216v-204c32 11 69 16 102 16c182 0 267 -84 267 -270v-60c0 -206 -107 -279 -309 -279c-79 0 -139 3 -276 16v664c-36 3 -81 5 -124 5s-61 -6 -61 -57v-35h121v-143h-121v-435zM732 142
c14 -2 38 -3 64 -3c67 0 90 23 90 125v60c0 90 -17 116 -81 116c-18 0 -52 -3 -73 -12v-286z" />
    <glyph glyph-name="f_f_b" unicode="ffb" horiz-adv-x="1548" 
d="M736 0h-217v435h-186v-435h-217v435l-91 10v133h91v39c0 127 62 181 189 181c56 0 110 -8 149 -17v-114c-36 2 -55 3 -73 3c-43 0 -48 -14 -48 -55v-37h186v37c0 146 77 183 211 183c58 0 148 -10 191 -16h216v-203c25 10 62 15 101 15c183 0 267 -84 267 -270v-60
c0 -206 -106 -279 -309 -279c-78 0 -170 6 -275 16v665c-34 2 -81 4 -125 4c-43 0 -60 -6 -60 -55v-37h121v-143h-121v-435zM1289 264v60c0 90 -16 116 -81 116c-18 0 -51 -3 -72 -12v-286c13 -2 37 -3 63 -3c68 0 90 23 90 125z" />
    <glyph glyph-name="f_f_h" unicode="ffh" horiz-adv-x="1568" 
d="M1505 0h-216v364c0 60 -15 77 -60 77c-35 0 -71 -12 -92 -22v-419h-217v666c-36 2 -81 4 -123 4c-45 0 -62 -6 -62 -55v-37h120v-143h-120v-435h-217v435h-185v-435h-217v435l-91 10v133h91v39c0 127 62 181 189 181c56 0 114 -9 150 -17v-114c-33 2 -56 3 -75 3
c-42 0 -47 -14 -47 -55v-37h185v37c0 147 78 183 213 183c57 0 147 -10 189 -16h217v-227c48 24 110 37 166 37c178 0 202 -100 202 -227v-365z" />
    <glyph glyph-name="f_f_k" unicode="ffk" horiz-adv-x="1531" 
d="M1525 0h-236l-153 260v-260h-216v666c-36 2 -81 4 -123 4c-45 0 -62 -6 -62 -55v-37h121v-143h-121v-435h-217v435h-185v-435h-217v435l-90 10v133h90v39c0 127 63 181 190 181c55 0 114 -9 149 -17v-114c-32 2 -55 3 -75 3c-42 0 -47 -14 -47 -55v-37h185v37
c0 147 78 183 213 183c64 0 147 -10 189 -16h216v-457l158 253h222l-178 -279z" />
    <glyph glyph-name="f_h" unicode="fh" horiz-adv-x="1166" 
d="M1103 0h-217v364c0 60 -14 77 -59 77c-36 0 -71 -12 -92 -22v-419h-217v666c-36 2 -81 4 -122 4c-46 0 -63 -6 -63 -55v-37h120v-143h-120v-435h-217v435l-91 10v133h91v37c0 147 78 183 213 183c64 0 147 -10 189 -16h217v-226c47 23 111 37 166 37
c177 0 202 -101 202 -228v-365z" />
    <glyph glyph-name="f_j" unicode="fj" horiz-adv-x="806" 
d="M333 0h-217v435l-91 10v133h91v39c0 127 63 181 189 181c56 0 114 -9 150 -17v-114c-33 2 -56 3 -75 3c-42 0 -47 -14 -47 -55v-37h407v-600c0 -146 -61 -194 -206 -194c-56 0 -98 6 -114 10v128c21 -1 36 -2 54 -2c42 0 49 13 49 58v457h-190v-435zM745 647h-227v135
h227v-135z" />
    <glyph glyph-name="f_f_j" unicode="ffj" horiz-adv-x="1207" 
d="M734 0h-217v435h-185v-435h-216v435l-91 10v133h91v39c0 127 63 181 189 181c55 0 114 -9 149 -17v-114c-32 2 -55 3 -74 3c-42 0 -48 -15 -48 -55v-37h185v39c0 127 63 181 190 181c55 0 113 -9 149 -17v-114c-32 2 -55 3 -74 3c-43 0 -48 -14 -48 -55v-37h407v-600
c0 -146 -60 -194 -205 -194c-56 0 -98 6 -114 10v128c21 -1 36 -2 54 -2c41 0 49 13 49 58v457h-191v-435zM1146 647h-226v135h226v-135z" />
    <glyph glyph-name="f_k" unicode="fk" horiz-adv-x="1130" 
d="M1124 0h-237l-153 260v-260h-216v666c-35 2 -80 4 -122 4c-45 0 -63 -6 -63 -55v-37h121v-143h-121v-435h-217v435l-90 10v133h90v37c0 147 79 183 214 183c64 0 146 -10 188 -16h216v-457l158 253h222l-178 -279z" />
    <glyph glyph-name=".notdef" horiz-adv-x="500" 
d="M12 0v665h475v-665h-475zM88 618l162 -243l161 243h-323zM60 575v-484c0 -1 161 242 161 242zM440 575l-162 -242l162 -243v485zM411 48l-161 242l-162 -242h323z" />
    <glyph glyph-name="space" unicode=" " horiz-adv-x="207" 
 />
    <glyph glyph-name="exclam" unicode="!" horiz-adv-x="375" 
d="M299 0h-224v176h224v-176zM308 782l-20 -548h-202l-19 548h241z" />
    <glyph glyph-name="quotedbl" unicode="&#x22;" horiz-adv-x="553" 
d="M20 511l52 271h184l-85 -271h-151zM533 782l-85 -271h-151l52 271h184z" />
    <glyph glyph-name="numbersign" unicode="#" horiz-adv-x="782" 
d="M729 170h-125l-19 -170h-176l18 170h-120l-19 -170h-176l19 170h-78v122h92l16 146h-108v121h122l21 184h176l-21 -184h121l21 184h175l-20 -184h81v-121h-96l-15 -146h111v-122zM458 438h-121l-16 -146h121z" />
    <glyph glyph-name="dollar" unicode="$" horiz-adv-x="699" 
d="M262 -129v113c-79 4 -151 13 -192 22v144c67 -5 135 -12 246 -12c68 0 95 21 95 65c0 34 -14 49 -80 77l-98 42c-110 46 -183 93 -183 224c0 126 75 189 212 208v110h178v-106c75 -5 144 -16 182 -24v-140c-81 7 -157 13 -245 13c-65 0 -98 -12 -98 -53
c0 -30 14 -47 76 -72l94 -38c133 -55 194 -106 194 -228c0 -134 -76 -206 -203 -226v-119h-178z" />
    <glyph glyph-name="percent" unicode="%" horiz-adv-x="1196" 
d="M1152 209c0 -142 -63 -220 -206 -220c-144 0 -207 78 -207 220v29c0 141 63 219 207 219c143 0 206 -78 206 -219v-29zM997 208v30c0 94 -18 112 -51 112c-34 0 -52 -18 -52 -112v-30c0 -94 18 -112 52 -112c33 0 51 18 51 112zM936 746l-508 -746h-175l508 746h175z
M455 512c0 -136 -56 -220 -206 -220c-151 0 -207 85 -207 220v29c0 134 56 219 207 219c150 0 206 -83 206 -219v-29zM301 512v29c0 92 -14 113 -52 113s-52 -23 -52 -113v-29c0 -93 14 -113 52 -113s52 20 52 113z" />
    <glyph glyph-name="ampersand" unicode="&#x26;" horiz-adv-x="856" 
d="M806 0h-199l-37 34c-45 -27 -119 -50 -224 -50c-170 0 -303 45 -303 206v7c0 97 55 149 147 197l-10 9c-65 59 -96 112 -97 177v5c0 124 96 176 284 176c96 0 206 -14 269 -27v-134c-75 5 -170 9 -254 9c-48 0 -79 -9 -79 -52c0 -33 14 -51 51 -86l241 -227
c12 32 16 73 16 113l-43 10v89h248v-89l-43 -10c0 -89 -23 -163 -64 -221l97 -90v-46zM466 133l-150 141c-34 -19 -50 -41 -50 -78v-6c0 -55 48 -79 105 -79c40 0 72 8 95 22z" />
    <glyph glyph-name="quoteright" unicode="&#x2019;" horiz-adv-x="293" 
d="M273 782l-105 -267h-148l67 267h186z" />
    <glyph glyph-name="parenleft" unicode="(" horiz-adv-x="420" 
d="M385 -199h-193c-67 94 -145 259 -145 467v7c0 209 78 374 145 468h193c-79 -134 -125 -281 -125 -468v-7c0 -187 46 -333 125 -467z" />
    <glyph glyph-name="parenright" unicode=")" horiz-adv-x="420" 
d="M372 268c0 -208 -77 -373 -143 -467h-195c80 134 126 280 126 467v7c0 187 -46 334 -126 468h195c66 -94 143 -259 143 -468v-7z" />
    <glyph glyph-name="asterisk" unicode="*" horiz-adv-x="559" 
d="M513 567l-58 -17c-21 -6 -47 -13 -73 -14c21 -16 38 -35 51 -52l35 -45l-118 -82l-34 45c-14 18 -26 39 -37 62c-10 -24 -23 -44 -37 -62l-34 -45l-118 82l35 46c13 17 30 35 51 51c-26 2 -51 7 -73 14l-57 18l46 132l56 -17c22 -7 45 -18 67 -30c-5 25 -8 48 -8 70v57
h145v-57c0 -22 -3 -46 -10 -71c23 13 47 23 68 30l57 18z" />
    <glyph glyph-name="plus" unicode="+" horiz-adv-x="664" 
d="M605 307h-192v-186h-161v186h-193v154h193v185h161v-185h192v-154z" />
    <glyph glyph-name="comma" unicode="," horiz-adv-x="386" 
d="M344 175l-144 -272h-171l96 272h219z" />
    <glyph glyph-name="hyphen" unicode="-" horiz-adv-x="366" 
d="M317 225h-268v140h268v-140z" />
    <glyph glyph-name="period" unicode="." horiz-adv-x="327" 
d="M272 0h-217v175h217v-175z" />
    <glyph glyph-name="slash" unicode="/" horiz-adv-x="536" 
d="M513 743l-266 -743h-224l267 743h223z" />
    <glyph glyph-name="zero" unicode="0" horiz-adv-x="740" 
d="M696 336c0 -226 -97 -354 -326 -354c-230 0 -326 128 -326 354v70c0 226 96 355 326 355c229 0 326 -129 326 -355v-70zM460 336v70c0 156 -31 190 -90 190s-90 -34 -90 -190v-70c0 -156 31 -190 90 -190s90 34 90 190z" />
    <glyph glyph-name="one" unicode="1" horiz-adv-x="630" 
d="M584 0h-538v146l153 8v404l-154 -38v153l219 72h168v-591l152 -8v-146z" />
    <glyph glyph-name="two" unicode="2" horiz-adv-x="681" 
d="M622 0h-575v91c0 191 55 256 222 343c114 59 130 78 130 118c0 42 -26 56 -115 56c-77 0 -185 -6 -225 -11v130c83 23 191 34 268 34c220 0 310 -62 310 -195c0 -104 -55 -166 -213 -244c-133 -65 -148 -84 -148 -154v-8h346v-160z" />
    <glyph glyph-name="three" unicode="3" horiz-adv-x="679" 
d="M635 207c0 -162 -98 -225 -316 -225c-104 0 -219 19 -268 36v132c58 -6 154 -12 241 -12c76 0 110 11 110 80v14c0 49 -16 74 -103 74h-196v141h197c85 0 102 27 102 76v9c0 61 -25 74 -110 74c-92 0 -172 -5 -240 -10v129c47 16 163 36 267 36c196 0 316 -51 316 -210
v-10c0 -65 -24 -128 -87 -162c64 -32 87 -96 87 -157v-15z" />
    <glyph glyph-name="four" unicode="4" horiz-adv-x="739" 
d="M699 158h-91v-158h-234v158h-336v142l384 443h186v-438h91v-147zM387 305v212l-172 -212h172z" />
    <glyph glyph-name="five" unicode="5" horiz-adv-x="668" 
d="M624 225c0 -179 -124 -243 -313 -243c-120 0 -221 19 -267 31v134c69 -7 127 -13 211 -13c100 0 132 19 132 89v16c0 62 -26 81 -128 81h-212l37 423h519v-155h-333l-10 -123h54c245 0 310 -69 310 -224v-16z" />
    <glyph glyph-name="six" unicode="6" horiz-adv-x="717" 
d="M672 233c0 -183 -128 -251 -312 -251c-240 0 -316 112 -316 313v155c0 191 52 311 320 311c111 0 224 -19 270 -31v-135c-87 7 -148 12 -238 12c-110 0 -121 -35 -121 -120v-21c29 7 80 11 111 11c171 0 286 -39 286 -217v-27zM442 232v26c0 73 -23 90 -83 90
c-22 0 -57 -3 -84 -9v-84c0 -98 27 -128 86 -128c51 0 81 33 81 105z" />
    <glyph glyph-name="seven" unicode="7" horiz-adv-x="665" 
d="M628 576l-328 -576h-246l341 588h-360v155h593v-167z" />
    <glyph glyph-name="eight" unicode="8" horiz-adv-x="745" 
d="M698 212c0 -202 -140 -230 -323 -230h-6c-183 0 -323 28 -323 230v7c0 76 26 126 82 163c-50 33 -80 79 -80 159v8c0 177 131 212 321 212h6c189 0 321 -35 321 -212v-8c0 -80 -30 -126 -80 -159c56 -37 82 -87 82 -163v-7zM469 216v7c-1 68 -15 95 -68 95h-59
c-52 0 -67 -27 -67 -95v-7c0 -76 33 -94 94 -94h6c60 0 94 18 94 94zM467 533v8c0 60 -32 79 -92 79h-6c-60 0 -92 -19 -92 -79v-8c0 -53 12 -84 65 -84h59c53 0 66 31 66 84z" />
    <glyph glyph-name="nine" unicode="9" horiz-adv-x="717" 
d="M672 297c0 -190 -50 -315 -319 -315c-112 0 -225 19 -270 30v135c67 -5 148 -11 244 -11c103 0 115 36 115 119v22c-30 -7 -80 -12 -111 -12c-172 0 -287 41 -287 217v27c0 182 128 252 312 252c241 0 316 -108 316 -306v-158zM442 404v84c0 98 -27 127 -88 127
c-51 0 -80 -33 -80 -105v-25c0 -73 24 -90 83 -90c22 0 57 2 85 9z" />
    <glyph glyph-name="colon" unicode=":" horiz-adv-x="341" 
d="M279 0h-218v175h218v-175zM279 403h-218v175h218v-175z" />
    <glyph glyph-name="semicolon" unicode=";" horiz-adv-x="358" 
d="M309 175l-130 -271h-170l73 271h227zM300 403h-217v175h217v-175z" />
    <glyph glyph-name="less" unicode="&#x3c;" horiz-adv-x="664" 
d="M582 113h-225l-275 271l275 271h225l-272 -271z" />
    <glyph glyph-name="equal" unicode="=" horiz-adv-x="664" 
d="M586 313v-155h-509v155h509zM586 449h-509v156h509v-156z" />
    <glyph glyph-name="greater" unicode="&#x3e;" horiz-adv-x="664" 
d="M582 384l-275 -271h-225l271 271l-271 271h225z" />
    <glyph glyph-name="question" unicode="?" horiz-adv-x="576" 
d="M333 0h-217v175h217v-175zM33 625v134c60 22 150 34 244 34c167 0 251 -52 251 -168v-7c0 -69 -27 -117 -104 -189c-96 -91 -109 -123 -109 -173v-20h-182v20c0 84 4 129 64 200c56 66 71 92 71 123v5c0 37 -23 48 -83 48c-45 0 -106 -3 -152 -7z" />
    <glyph glyph-name="at" unicode="@" horiz-adv-x="886" 
d="M856 365c0 -193 -102 -328 -394 -328c-167 0 -246 43 -246 163c0 205 72 292 244 292c74 0 140 -12 192 -24l-33 -311c87 25 128 99 128 208c0 149 -100 220 -266 220c-220 0 -343 -153 -343 -411c0 -163 91 -222 276 -222c73 0 161 5 194 9v-64
c-32 -6 -120 -17 -194 -17c-254 0 -384 91 -384 294c0 310 169 490 461 490c214 0 365 -100 365 -299zM487 383c-10 1 -26 1 -37 1c-53 0 -83 -28 -83 -185c0 -58 24 -62 95 -62z" />
    <glyph glyph-name="A" unicode="A" horiz-adv-x="790" 
d="M771 0h-245l-40 165h-183l-42 -165h-242l188 743h373zM461 318l-44 189c-9 35 -15 76 -20 112h-5c-6 -36 -12 -77 -20 -112l-45 -189h134z" />
    <glyph glyph-name="B" unicode="B" horiz-adv-x="747" 
d="M704 222c0 -194 -149 -235 -375 -235c-83 0 -152 4 -262 13v743c119 10 187 13 264 13c237 0 369 -44 369 -216v-9c0 -64 -23 -120 -81 -151c64 -30 85 -93 85 -148v-10zM480 224v11c-1 54 -24 79 -107 79h-82v-170c22 -1 38 -1 62 -1c89 0 127 14 127 81zM478 522v7
c0 62 -40 72 -125 72c-22 0 -39 0 -62 -1v-157h80c88 0 107 26 107 79z" />
    <glyph glyph-name="C" unicode="C" horiz-adv-x="646" 
d="M613 4c-40 -12 -158 -22 -217 -22c-233 0 -350 83 -350 355v70c0 271 117 354 350 354c59 0 177 -11 217 -22v-157c-53 4 -124 8 -188 8c-95 0 -142 -29 -142 -183v-70c0 -156 47 -185 142 -185c64 0 135 4 188 8v-156z" />
    <glyph glyph-name="D" unicode="D" horiz-adv-x="770" 
d="M725 344c0 -257 -115 -357 -378 -357c-104 0 -179 4 -280 13v743c101 9 173 13 280 13c260 0 378 -100 378 -353v-59zM494 344v59c0 154 -32 188 -139 188h-60v-439h60c107 0 139 38 139 192z" />
    <glyph glyph-name="E" unicode="E" horiz-adv-x="653" 
d="M607 0h-540v743h540v-158h-305v-133h283v-148h-283v-147h305v-157z" />
    <glyph glyph-name="F" unicode="F" horiz-adv-x="643" 
d="M607 583h-305v-132h283v-148h-283v-303h-235v743h540v-160z" />
    <glyph glyph-name="G" unicode="G" horiz-adv-x="740" 
d="M681 7c-63 -12 -174 -25 -291 -25c-182 0 -344 57 -344 354v71c0 313 181 354 350 354c112 0 233 -19 282 -31v-148c-56 3 -168 8 -235 8c-113 0 -167 -20 -167 -183v-71c0 -146 34 -185 120 -185c24 0 50 0 70 2v254h215v-400z" />
    <glyph glyph-name="H" unicode="H" horiz-adv-x="838" 
d="M771 0h-236v298h-233v-298h-235v743h235v-279h233v279h236v-743z" />
    <glyph glyph-name="I" unicode="I" horiz-adv-x="369" 
d="M302 0h-235v743h235v-743z" />
    <glyph glyph-name="J" unicode="J" horiz-adv-x="368" 
d="M301 -8c0 -148 -72 -205 -220 -205c-36 0 -85 3 -112 10v131c17 -1 32 -2 47 -2c45 0 51 14 51 56v761h234v-751z" />
    <glyph glyph-name="K" unicode="K" horiz-adv-x="791" 
d="M788 0h-276l-208 340v-340h-235v743h235v-341l222 341h266l-249 -368z" />
    <glyph glyph-name="L" unicode="L" horiz-adv-x="597" 
d="M569 0h-502v743h235v-579h267v-164z" />
    <glyph glyph-name="M" unicode="M" horiz-adv-x="938" 
d="M871 0h-226v323c0 40 2 75 5 115h-2c-14 -32 -30 -62 -47 -87l-80 -138h-105l-80 138c-16 25 -31 57 -46 87h-2c2 -40 4 -75 4 -115v-323h-225v743h215l139 -236c15 -26 31 -57 46 -87h2c15 31 32 62 47 88l141 235h214v-743z" />
    <glyph glyph-name="N" unicode="N" horiz-adv-x="812" 
d="M745 0h-227l-190 327c-18 30 -35 63 -49 92h-3c2 -34 2 -71 2 -106v-313h-211v743h221l195 -323c19 -29 37 -65 51 -96h2c-3 26 -4 69 -4 113v306h213v-743z" />
    <glyph glyph-name="O" unicode="O" horiz-adv-x="776" 
d="M730 339c0 -275 -145 -357 -342 -357s-342 82 -342 357v64c0 277 148 358 342 358s342 -81 342 -358v-64zM500 340v63c0 144 -36 188 -112 188c-77 0 -112 -44 -112 -188v-63c0 -147 38 -188 112 -188s112 41 112 188z" />
    <glyph glyph-name="P" unicode="P" horiz-adv-x="735" 
d="M706 496c0 -217 -167 -256 -345 -256c-24 0 -40 0 -69 1v-241h-225v743c92 9 170 12 267 12c205 0 371 -37 372 -251v-8zM480 496v8c0 74 -41 88 -127 88c-21 0 -44 0 -61 -1v-186h62c85 0 126 19 126 91z" />
    <glyph glyph-name="Q" unicode="Q" horiz-adv-x="776" 
d="M730 337c0 -220 -97 -320 -239 -345v-26c0 -28 8 -32 53 -32h81v-117c-38 -11 -108 -21 -168 -21c-109 0 -180 34 -180 164v33c-139 28 -231 129 -231 344v68c0 276 152 356 342 356s342 -80 342 -356v-68zM500 337v69c0 144 -37 185 -112 185s-112 -41 -112 -185v-69
c0 -144 38 -185 112 -185s112 41 112 185z" />
    <glyph glyph-name="R" unicode="R" horiz-adv-x="758" 
d="M750 0h-228l-140 255h-43h-48v-255h-224v743c81 6 164 12 273 12c193 0 362 -36 362 -248v-6c0 -107 -40 -166 -107 -205zM476 497v6c0 71 -34 89 -128 89h-58v-187h61c92 0 125 24 125 92z" />
    <glyph glyph-name="S" unicode="S" horiz-adv-x="677" 
d="M635 216c0 -165 -116 -234 -294 -234c-112 0 -221 12 -279 24v144c67 -5 134 -12 245 -12c69 0 96 21 96 65c0 34 -17 47 -82 74l-98 42c-110 46 -181 96 -181 227c0 156 112 215 313 215c103 0 191 -16 242 -27v-140c-81 7 -141 13 -229 13c-65 0 -98 -12 -98 -53
c0 -30 17 -43 79 -68l95 -38c134 -53 191 -112 191 -232z" />
    <glyph glyph-name="T" unicode="T" horiz-adv-x="701" 
d="M677 585h-209v-585h-235v585h-209v158h653v-158z" />
    <glyph glyph-name="U" unicode="U" horiz-adv-x="796" 
d="M734 298c0 -214 -127 -316 -336 -316c-210 0 -336 102 -336 316v445h231v-442c0 -113 21 -154 105 -154s105 41 105 154v442h231v-445z" />
    <glyph glyph-name="V" unicode="V" horiz-adv-x="786" 
d="M759 743l-183 -743h-366l-183 743h237l105 -479c10 -42 17 -97 24 -138h2c6 42 14 96 24 138l105 479h235z" />
    <glyph glyph-name="W" unicode="W" horiz-adv-x="1043" 
d="M1010 743l-120 -743h-267l-80 310c-9 33 -16 74 -21 104h-2c-5 -30 -12 -71 -21 -104l-79 -310h-268l-119 743h230l49 -360c5 -48 11 -98 14 -138h3c9 41 18 86 29 125l55 221h218l55 -223c9 -38 20 -83 28 -123h3c4 41 9 89 15 138l49 360h229z" />
    <glyph glyph-name="X" unicode="X" horiz-adv-x="766" 
d="M745 0h-244l-139 211l-132 -211h-209l238 379l-232 364h243l133 -202l124 202h209l-229 -370z" />
    <glyph glyph-name="Y" unicode="Y" horiz-adv-x="745" 
d="M734 743l-248 -486v-257h-227v257l-248 486h235l83 -177c14 -34 30 -76 42 -113h4c12 36 30 79 44 113l83 177h232z" />
    <glyph glyph-name="Z" unicode="Z" horiz-adv-x="674" 
d="M625 0h-576v159l295 422h-288v162h563v-162l-295 -419h301v-162z" />
    <glyph glyph-name="bracketleft" unicode="[" horiz-adv-x="454" 
d="M411 -199h-346v942h346v-151h-130v-640h130v-151z" />
    <glyph glyph-name="backslash" unicode="\" horiz-adv-x="545" 
d="M516 0h-222l-265 743h221z" />
    <glyph glyph-name="bracketright" unicode="]" horiz-adv-x="454" 
d="M389 -199h-347v151h130v640h-130v151h347v-942z" />
    <glyph glyph-name="asciicircum" unicode="^" horiz-adv-x="664" 
d="M633 433h-196l-106 234l-103 -234h-198l153 311h296z" />
    <glyph glyph-name="underscore" unicode="_" horiz-adv-x="631" 
d="M613 -151h-596v102h596v-102z" />
    <glyph glyph-name="quoteleft" unicode="&#x2018;" horiz-adv-x="293" 
d="M273 782l-66 -267h-187l106 267h147z" />
    <glyph glyph-name="a" unicode="a" horiz-adv-x="642" 
d="M584 0h-196v37c-39 -26 -108 -52 -182 -52c-109 0 -168 58 -168 165v24c0 156 125 170 291 170h38v29c0 59 -13 71 -92 71c-46 0 -126 -3 -192 -10v121c40 13 139 38 242 38c175 0 259 -54 259 -220v-373zM377 133v113h-46c-61 0 -89 -7 -89 -63v-21c0 -39 21 -50 52 -50
c34 0 67 13 83 21z" />
    <glyph glyph-name="b" unicode="b" horiz-adv-x="691" 
d="M648 264c0 -206 -106 -279 -309 -279c-86 0 -156 4 -275 16v781h216v-203c25 10 62 15 101 15c183 0 267 -84 267 -270v-60zM432 264v60c0 90 -17 116 -81 116c-18 0 -52 -3 -73 -12v-286c15 -2 38 -3 64 -3c68 0 90 23 90 125z" />
    <glyph glyph-name="c" unicode="c" horiz-adv-x="560" 
d="M521 8c-40 -10 -110 -23 -206 -23c-188 0 -272 91 -272 276v57c0 188 84 275 272 275c96 0 166 -14 206 -23v-139c-79 4 -128 7 -165 7c-68 0 -98 -19 -98 -120v-57c0 -102 30 -122 98 -122c37 0 86 3 165 7v-138z" />
    <glyph glyph-name="d" unicode="d" horiz-adv-x="691" 
d="M628 0h-198v30c-42 -26 -96 -45 -166 -45c-140 0 -221 87 -221 273v60c0 200 98 275 275 275c39 0 67 -2 93 -6v195h217v-782zM413 153v281c-22 4 -49 6 -67 6c-62 0 -88 -19 -88 -122v-60c0 -91 19 -119 81 -119c25 0 53 6 74 14z" />
    <glyph glyph-name="e" unicode="e" horiz-adv-x="665" 
d="M628 237h-371v-8c0 -66 8 -94 116 -94c57 0 107 2 225 7v-131c-48 -11 -134 -26 -235 -26c-217 0 -320 67 -320 289v26c0 210 104 293 295 293c241 0 290 -152 290 -307v-49zM420 339v8c0 61 -13 104 -82 104c-68 0 -81 -44 -81 -104v-8h163z" />
    <glyph glyph-name="f" unicode="f" horiz-adv-x="485" 
d="M454 435h-121v-435h-217v435l-90 9v134h90v39c0 127 63 181 189 181c56 0 110 -8 150 -17v-114c-36 2 -55 3 -74 3c-43 0 -48 -14 -48 -55v-37h121v-143z" />
    <glyph glyph-name="g" unicode="g" horiz-adv-x="693" 
d="M629 -9c0 -132 -72 -205 -296 -205c-123 0 -233 20 -254 26v119c67 -3 165 -9 232 -9c92 0 103 20 103 69v15c-23 -3 -50 -6 -81 -6c-185 0 -287 84 -287 269v54c0 189 101 270 331 270c92 0 181 -7 252 -15v-587zM415 157v279c-11 2 -34 4 -62 4c-74 0 -92 -34 -92 -118
v-53c0 -83 22 -116 91 -116c24 0 52 2 63 4z" />
    <glyph glyph-name="h" unicode="h" horiz-adv-x="712" 
d="M649 0h-217v364c0 60 -15 77 -59 77c-36 0 -71 -12 -93 -22v-419h-216v782h216v-226c48 23 111 37 167 37c176 0 202 -101 202 -228v-365z" />
    <glyph glyph-name="i" unicode="i" 
d="M283 0h-217v578h217v-578zM287 647h-225v135h225v-135z" />
    <glyph glyph-name="j" unicode="j" 
d="M283 -22c0 -148 -61 -194 -207 -194c-48 0 -93 5 -113 9v128c22 0 37 -1 55 -1c41 0 48 13 48 58v600h217v-600zM287 647h-225v135h225v-135z" />
    <glyph glyph-name="k" unicode="k" horiz-adv-x="675" 
d="M669 0h-237l-153 260v-260h-215v782h215v-457l158 253h223l-178 -279z" />
    <glyph glyph-name="l" unicode="l" 
d="M282 0h-216v782h216v-782z" />
    <glyph glyph-name="m" unicode="m" horiz-adv-x="1016" 
d="M956 0h-217v374c0 44 -2 69 -49 69c-21 0 -51 -9 -74 -21c2 -16 2 -32 2 -48v-374h-217v374c0 45 -1 69 -45 69c-26 0 -55 -12 -76 -22v-421h-216v578h201v-46c49 40 113 61 176 61c74 0 116 -23 143 -63c63 45 129 63 183 63c157 0 189 -93 189 -214v-379z" />
    <glyph glyph-name="n" unicode="n" horiz-adv-x="709" 
d="M649 0h-217v365c0 57 -10 76 -55 76c-28 0 -64 -11 -97 -26v-415h-216v578h201v-47c55 37 122 62 188 62c185 0 196 -109 196 -228v-365z" />
    <glyph glyph-name="o" unicode="o" horiz-adv-x="673" 
d="M630 261c0 -199 -110 -276 -294 -276c-182 0 -293 77 -293 276v56c0 198 111 276 293 276c184 0 294 -77 294 -276v-56zM415 261v56c0 94 -23 122 -79 122c-55 0 -79 -28 -79 -122v-56c0 -94 23 -123 79 -123s79 29 79 123z" />
    <glyph glyph-name="p" unicode="p" horiz-adv-x="692" 
d="M649 267c0 -205 -102 -282 -280 -282c-31 0 -70 4 -89 8v-193h-216v778h198v-35c55 36 116 50 174 50c128 0 213 -70 213 -276v-50zM433 267v50c0 98 -20 122 -77 122c-22 0 -47 -4 -78 -18v-276c22 -4 45 -7 66 -7c62 0 89 21 89 129z" />
    <glyph glyph-name="q" unicode="q" horiz-adv-x="690" 
d="M626 -200h-215v200c-30 -10 -65 -15 -103 -15c-183 0 -265 80 -265 278v45c0 224 108 285 314 285c84 0 149 -4 269 -16v-777zM412 152v284c-16 1 -43 3 -61 3c-67 0 -93 -13 -93 -132v-44c0 -97 16 -124 76 -124c19 0 46 2 78 13z" />
    <glyph glyph-name="r" unicode="r" horiz-adv-x="465" 
d="M447 421c-58 0 -121 -7 -167 -17v-404h-216v578h199v-48c57 55 130 63 184 63v-172z" />
    <glyph glyph-name="s" unicode="s" horiz-adv-x="573" 
d="M539 169c0 -130 -99 -184 -274 -184c-82 0 -177 13 -216 22v121c19 -1 118 -10 203 -10c57 0 73 13 73 43c0 26 -13 30 -74 52l-47 17c-108 40 -166 91 -166 191c0 139 103 172 252 172c89 0 172 -12 216 -24v-118c-73 6 -122 10 -193 10c-45 0 -64 -6 -64 -33
c0 -22 13 -27 64 -46l55 -20c130 -48 171 -97 171 -193z" />
    <glyph glyph-name="t" unicode="t" horiz-adv-x="476" 
d="M444 2c-14 -5 -73 -17 -139 -17c-132 0 -192 52 -192 187v263l-94 9v134h94v144h216v-144h117v-143h-117v-262c0 -41 2 -51 42 -51c25 0 61 3 73 3v-123z" />
    <glyph glyph-name="u" unicode="u" horiz-adv-x="712" 
d="M648 0h-202v47c-53 -34 -120 -62 -203 -62c-167 0 -180 115 -180 229v364h216v-364c0 -58 11 -77 57 -77c26 0 63 12 95 25v416h217v-578z" />
    <glyph glyph-name="v" unicode="v" horiz-adv-x="664" 
d="M647 578l-159 -578h-311l-160 578h219l67 -299c12 -52 22 -111 31 -156c8 46 17 104 28 156l66 299h219z" />
    <glyph glyph-name="w" unicode="w" horiz-adv-x="988" 
d="M961 578l-117 -578h-257l-65 209c-12 39 -21 76 -29 115c-6 -39 -15 -75 -27 -115l-66 -209h-255l-118 578h219l41 -258c8 -53 13 -98 18 -135c8 38 20 87 35 134l51 160h207l50 -159c15 -48 27 -97 38 -135c2 37 8 82 16 135l41 258h218z" />
    <glyph glyph-name="x" unicode="x" horiz-adv-x="653" 
d="M643 0h-234l-107 155l-100 -155h-194l198 301l-188 277h233l104 -150l97 150h192l-194 -294z" />
    <glyph glyph-name="y" unicode="y" horiz-adv-x="681" 
d="M662 578l-168 -564c-50 -169 -117 -228 -264 -228c-69 0 -138 6 -187 16v127c52 -2 75 -2 110 -2c36 0 47 10 61 51l10 30l-203 570h230l69 -286c11 -59 21 -105 31 -153c8 48 18 103 29 153l64 286h218z" />
    <glyph glyph-name="z" unicode="z" horiz-adv-x="579" 
d="M537 0h-497v139l250 294h-243v145h489v-144l-245 -291h246v-143z" />
    <glyph glyph-name="braceleft" unicode="{" horiz-adv-x="488" 
d="M444 -200h-63c-219 0 -284 39 -284 207v111c0 61 -18 78 -56 100v108c38 22 56 38 56 99v111c0 168 65 207 284 207h63v-151h-59c-61 0 -70 -5 -70 -56v-111c0 -86 -24 -119 -85 -153c61 -35 85 -67 85 -154v-111c0 -51 9 -56 70 -56h59v-151z" />
    <glyph glyph-name="bar" unicode="|" horiz-adv-x="345" 
d="M281 -200h-217v943h217v-943z" />
    <glyph glyph-name="braceright" unicode="}" horiz-adv-x="488" 
d="M447 218c-39 -22 -57 -39 -57 -100v-111c0 -168 -65 -207 -283 -207h-64v151h60c60 0 70 5 70 56v111c0 87 24 119 85 154c-62 34 -85 67 -85 153v111c0 51 -10 56 -70 56h-59v151h63c218 0 283 -39 283 -207v-111c0 -61 18 -77 57 -99v-108z" />
    <glyph glyph-name="asciitilde" unicode="~" horiz-adv-x="664" 
d="M612 492c0 -128 -49 -179 -144 -179c-51 0 -82 6 -129 29l-61 31c-20 11 -33 18 -50 18c-26 0 -33 -13 -33 -46v-27h-143v27c0 135 68 179 151 179c42 0 76 -10 118 -32l60 -31c23 -11 36 -17 56 -17c28 0 32 17 32 48v26h143v-26z" />
    <glyph glyph-name="exclamdown" unicode="&#xa1;" horiz-adv-x="375" 
d="M308 -204h-241l19 548h203zM299 578v-176h-224v176h224z" />
    <glyph glyph-name="cent" unicode="&#xa2;" horiz-adv-x="565" 
d="M522 570v-137c-52 3 -114 5 -165 5c-71 0 -99 -19 -99 -120v-57c0 -102 28 -122 99 -122c45 0 105 3 165 6v-137c-22 -7 -68 -15 -125 -19v-111h-175v117c-122 27 -179 118 -179 266v57c0 147 57 237 179 265v115h175v-109c60 -6 107 -15 125 -19z" />
    <glyph glyph-name="sterling" unicode="&#xa3;" horiz-adv-x="676" 
d="M631 740v-146c-41 3 -131 7 -190 7c-83 0 -96 -20 -96 -104v-47h189v-139h-189v-80c0 -32 -7 -55 -20 -76h306v-155h-559v124c35 32 48 65 48 107v80h-75v139h75v46c0 190 83 267 279 267c81 0 164 -9 232 -23z" />
    <glyph glyph-name="fraction" unicode="&#x2044;" horiz-adv-x="627" 
d="M656 746l-508 -746h-177l509 746h176z" />
    <glyph glyph-name="yen" unicode="&#xa5;" horiz-adv-x="798" 
d="M752 191h-242v-191h-227v191h-242v111h223l-47 83h-176v112h117l-128 246h241l82 -177c15 -34 31 -76 43 -113h4c11 37 29 79 43 113l82 177h238l-128 -246h117v-112h-176l-47 -83h223v-111z" />
    <glyph glyph-name="florin" unicode="&#x192;" horiz-adv-x="673" 
d="M630 744l-14 -114c-38 1 -54 2 -71 2c-41 0 -56 -7 -62 -54l-16 -116h135l-19 -139h-135l-41 -315c-18 -141 -103 -178 -213 -178c-67 0 -115 9 -151 16l15 115c36 -2 53 -2 72 -2c37 0 54 5 61 53l41 311h-121l18 139h121l16 120c18 141 104 179 216 179
c64 0 113 -10 148 -17z" />
    <glyph glyph-name="section" unicode="&#xa7;" horiz-adv-x="707" 
d="M73 -194v142c88 -5 182 -10 249 -10c76 0 97 24 97 68c0 40 -16 58 -99 87l-107 36c-102 32 -158 90 -158 197c0 42 11 86 34 118c-23 32 -33 65 -33 117c0 134 105 197 306 197c110 0 228 -19 261 -27v-138c-60 5 -163 11 -246 11c-66 0 -97 -14 -97 -56
c0 -34 13 -53 74 -75l107 -36c147 -46 191 -109 191 -209c0 -36 -7 -75 -36 -114c23 -30 34 -67 34 -107c0 -159 -115 -225 -305 -225c-82 0 -188 10 -272 24zM481 182v26c0 53 -6 74 -83 100l-109 35c-42 14 -62 27 -76 48v-35c0 -61 4 -78 80 -102l110 -36
c38 -11 55 -21 78 -36z" />
    <glyph glyph-name="currency" unicode="&#xa4;" horiz-adv-x="671" 
d="M621 179l-84 -79l-81 77c-36 -19 -77 -30 -118 -30c-42 0 -82 10 -120 31l-85 -80l-83 79l85 81c-21 34 -32 74 -32 113c0 40 10 78 32 113l-85 81l83 79l85 -81c37 22 78 32 120 32c41 0 82 -10 119 -31l81 78l84 -80l-83 -77c22 -36 35 -75 35 -114
c0 -40 -12 -79 -35 -115zM454 371c0 64 -53 114 -117 114s-117 -51 -117 -114c0 -64 55 -113 117 -113c61 0 117 50 117 113z" />
    <glyph glyph-name="quotesingle" unicode="'" horiz-adv-x="276" 
d="M256 782l-85 -271h-151l52 271h184z" />
    <glyph glyph-name="quotedblleft" unicode="&#x201c;" horiz-adv-x="543" 
d="M523 782l-66 -267h-186l105 267h147zM126 782h147l-67 -267h-186z" />
    <glyph glyph-name="guillemotleft" unicode="&#xab;" horiz-adv-x="822" 
d="M780 65h-216l-150 228l150 227h216l-144 -227zM264 293l144 -228h-215l-151 228l151 227h215z" />
    <glyph glyph-name="guilsinglleft" unicode="&#x2039;" horiz-adv-x="447" 
d="M405 65h-215l-148 228l148 227h215l-141 -227z" />
    <glyph glyph-name="guilsinglright" unicode="&#x203a;" horiz-adv-x="447" 
d="M405 293l-148 -228h-216l142 228l-142 227h216z" />
    <glyph glyph-name="endash" unicode="&#x2013;" horiz-adv-x="458" 
d="M409 225h-360v141h360v-141z" />
    <glyph glyph-name="dagger" unicode="&#x2020;" horiz-adv-x="553" 
d="M503 440h-121v-570h-216v570h-116v154h116v186h216v-186h121v-154z" />
    <glyph glyph-name="daggerdbl" unicode="&#x2021;" horiz-adv-x="553" 
d="M503 193h-121v-323h-216v323h-116v154h116v109h-116v154h116v170h216v-170h121v-154h-121v-109h121v-154z" />
    <glyph glyph-name="periodcentered" unicode="&#xb7;" horiz-adv-x="327" 
d="M264 280h-202v176h202v-176z" />
    <glyph glyph-name="paragraph" unicode="&#xb6;" horiz-adv-x="761" 
d="M526 -195h-117v433h-52c-170 0 -311 50 -311 248v11c0 197 142 246 315 246h348v-938h-117v822h-66v-822z" />
    <glyph glyph-name="bullet" unicode="&#x2022;" horiz-adv-x="502" 
d="M447 366c0 -103 -87 -186 -197 -186c-108 0 -196 83 -196 186c0 105 88 188 196 188c110 0 197 -83 197 -188z" />
    <glyph glyph-name="quotesinglbase" unicode="&#x201a;" horiz-adv-x="293" 
d="M273 166l-105 -266h-148l67 266h186z" />
    <glyph glyph-name="quotedblbase" unicode="&#x201e;" horiz-adv-x="543" 
d="M20 -100l66 267h186l-105 -267h-147zM417 -100h-147l67 267h186z" />
    <glyph glyph-name="quotedblright" unicode="&#x201d;" horiz-adv-x="543" 
d="M20 515l66 267h186l-105 -267h-147zM417 515h-147l67 267h186z" />
    <glyph glyph-name="guillemotright" unicode="&#xbb;" horiz-adv-x="822" 
d="M780 293l-151 -228h-216l145 228l-145 227h216zM257 520l151 -227l-151 -228h-216l145 228l-145 227h216z" />
    <glyph glyph-name="ellipsis" unicode="&#x2026;" horiz-adv-x="1003" 
d="M270 0h-218v175h218v-175zM610 0h-218v175h218v-175zM950 0h-218v175h218v-175z" />
    <glyph glyph-name="perthousand" unicode="&#x2030;" horiz-adv-x="1649" 
d="M1605 203c0 -140 -65 -216 -206 -216c-142 0 -207 76 -207 216v28c0 141 65 215 207 215c141 0 206 -74 206 -215v-28zM1450 202v30c0 91 -18 109 -51 109s-52 -18 -52 -109v-30c0 -91 19 -109 52 -109s51 18 51 109zM1143 203c0 -140 -64 -216 -206 -216
s-207 76 -207 216v28c0 141 65 215 207 215s206 -74 206 -215v-28zM988 202v30c0 91 -18 109 -51 109s-52 -18 -52 -109v-30c0 -91 19 -109 52 -109s51 18 51 109zM932 746l-509 -746h-174l508 746h175zM455 517c0 -136 -58 -215 -206 -215c-149 0 -207 81 -207 215v28
c0 134 58 215 207 215c148 0 206 -80 206 -215v-28zM300 517v28c0 90 -14 110 -51 110s-52 -22 -52 -110v-28c0 -90 15 -110 52 -110s51 20 51 110z" />
    <glyph glyph-name="questiondown" unicode="&#xbf;" horiz-adv-x="576" 
d="M543 -173c-61 -22 -150 -34 -244 -34c-167 0 -251 52 -251 168v7c0 68 26 118 104 189c95 92 108 123 108 173v20h183v-20c0 -84 -4 -129 -65 -200c-56 -66 -71 -92 -71 -123v-5c0 -37 24 -48 84 -48c45 0 106 3 152 7v-134zM460 411h-217v175h217v-175z" />
    <glyph glyph-name="grave" unicode="`" horiz-adv-x="500" 
d="M415 637h-199l-175 143h242z" />
    <glyph glyph-name="acute" unicode="&#xb4;" horiz-adv-x="500" 
d="M453 780l-174 -143h-199l132 143h241z" />
    <glyph glyph-name="circumflex" unicode="&#x2c6;" horiz-adv-x="588" 
d="M555 637h-184l-77 73l-78 -73h-183l135 143h253z" />
    <glyph glyph-name="tilde" unicode="&#x2dc;" horiz-adv-x="545" 
d="M515 778c0 -111 -63 -145 -129 -145c-28 0 -61 6 -106 26l-50 23c-22 11 -38 17 -53 17c-23 0 -29 -13 -29 -42v-20h-116v20c0 111 65 145 135 145c31 0 55 -6 99 -25l50 -23c23 -10 38 -18 56 -18c23 0 29 13 29 42v20h114v-20z" />
    <glyph glyph-name="macron" unicode="&#xaf;" horiz-adv-x="525" 
d="M483 652h-441v111h441v-111z" />
    <glyph glyph-name="breve" unicode="&#x2d8;" horiz-adv-x="542" 
d="M498 795c-16 -125 -136 -160 -227 -160s-211 35 -228 160h119c9 -55 57 -69 109 -69s100 14 109 69h118z" />
    <glyph glyph-name="dotaccent" unicode="&#x2d9;" horiz-adv-x="411" 
d="M318 650h-225v130h225v-130z" />
    <glyph glyph-name="dieresis" unicode="&#xa8;" horiz-adv-x="534" 
d="M485 646h-170v131h170v-131zM218 777v-131h-170v131h170z" />
    <glyph glyph-name="ring" unicode="&#x2da;" horiz-adv-x="440" 
d="M375 748c0 -80 -65 -127 -155 -127s-156 47 -156 127c0 81 66 127 156 127s155 -46 155 -127zM275 748c0 31 -22 46 -55 46c-32 0 -55 -15 -55 -46c0 -30 22 -45 55 -45s55 15 55 45z" />
    <glyph glyph-name="cedilla" unicode="&#xb8;" horiz-adv-x="452" 
d="M371 -60l-129 -140h-194l100 140h223z" />
    <glyph glyph-name="hungarumlaut" unicode="&#x2dd;" horiz-adv-x="703" 
d="M711 779l-174 -143h-180l132 143h222zM211 779h222l-175 -143h-180z" />
    <glyph glyph-name="ogonek" unicode="&#x2db;" horiz-adv-x="459" 
d="M395 -197c-29 -8 -91 -21 -160 -21c-102 0 -161 32 -161 100c0 55 51 103 175 127l146 -9c-112 -36 -137 -59 -137 -79c0 -21 14 -30 51 -30c30 0 61 3 86 5v-93z" />
    <glyph glyph-name="caron" unicode="&#x2c7;" horiz-adv-x="588" 
d="M33 780h183l78 -72l77 72h184l-134 -143h-253z" />
    <glyph glyph-name="emdash" unicode="&#x2014;" horiz-adv-x="653" 
d="M604 225h-555v141h555v-141z" />
    <glyph glyph-name="AE" unicode="&#xc6;" horiz-adv-x="1064" 
d="M1021 0h-538v165h-161l-41 -165h-238l180 743h798v-158h-305v-133h283v-148h-283v-147h305v-157zM483 317v300h-71c-6 -34 -13 -74 -21 -107l-45 -193h137z" />
    <glyph glyph-name="ordfeminine" unicode="&#xaa;" horiz-adv-x="470" 
d="M405 404h-133v24c-26 -16 -72 -34 -120 -34c-69 0 -110 38 -110 107v14c0 102 87 108 193 108h23v16c0 37 -8 44 -60 44c-39 0 -85 -4 -126 -6v80c34 12 94 26 162 26c114 0 171 -35 171 -144v-235zM265 494v64h-29c-39 0 -55 -3 -55 -37v-12c0 -23 13 -28 32 -28
c21 0 42 8 52 13z" />
    <glyph glyph-name="Lslash" unicode="&#x141;" horiz-adv-x="605" 
d="M18 228v108l57 40v366h235v-252l92 64v-108l-92 -64v-217h267v-165h-502v269z" />
    <glyph glyph-name="Oslash" unicode="&#xd8;" horiz-adv-x="776" 
d="M730 339c0 -275 -145 -357 -342 -357c-66 0 -126 10 -176 31l-33 -46h-150l85 121c-43 56 -68 137 -68 251v64c0 277 148 358 342 358c66 0 126 -10 177 -33l34 48h149l-86 -123c43 -55 68 -136 68 -250v-64zM276 340v-22l179 253c-17 14 -40 20 -67 20
c-77 0 -112 -44 -112 -188v-63zM500 340v63v20l-178 -253c17 -13 39 -18 66 -18c74 0 112 41 112 188z" />
    <glyph glyph-name="OE" unicode="&#x152;" horiz-adv-x="1042" 
d="M1001 157v-157h-452c-57 -10 -119 -18 -176 -18c-181 0 -332 76 -332 354v69c0 276 150 355 331 355c56 0 120 -7 177 -17h452v-158h-305v-133h283v-148h-283v-147h305zM468 157v427c-33 5 -53 7 -81 7c-79 0 -115 -41 -115 -187v-68c0 -144 38 -185 115 -185
c27 0 41 0 81 6z" />
    <glyph glyph-name="ordmasculine" unicode="&#xba;" horiz-adv-x="475" 
d="M433 573c0 -130 -74 -179 -196 -179c-121 0 -195 49 -195 179v30c0 131 74 180 195 180c122 0 196 -49 196 -180v-30zM286 573v30c0 59 -14 75 -49 75s-49 -16 -49 -75v-30c0 -58 14 -75 49 -75s49 17 49 75z" />
    <glyph glyph-name="ae" unicode="&#xe6;" horiz-adv-x="990" 
d="M923 10c-49 -11 -149 -25 -250 -25c-99 0 -179 20 -228 67c-77 -52 -147 -67 -239 -67c-109 0 -168 58 -168 165v24c0 156 125 170 291 170h37v29c0 54 -8 71 -91 71c-51 0 -118 -3 -192 -9v120c40 13 139 38 242 38c84 0 133 -13 171 -38c41 24 95 38 167 38
c239 0 290 -153 290 -289v-67h-372v-8c0 -65 7 -101 116 -101c62 0 166 3 226 8v-126zM745 339v8c0 61 -14 104 -83 104c-68 0 -81 -44 -81 -104v-8h164zM375 133v113h-44c-61 0 -89 -7 -89 -63v-21c0 -39 21 -50 51 -50c35 0 67 13 82 21z" />
    <glyph glyph-name="dotlessi" unicode="&#x131;" 
d="M283 0h-217v578h217v-578z" />
    <glyph glyph-name="lslash" unicode="&#x142;" horiz-adv-x="379" 
d="M298 0h-217v262l-73 -63v133l73 63v387h217v-209l74 64v-133l-74 -64v-440z" />
    <glyph glyph-name="oslash" unicode="&#xf8;" horiz-adv-x="673" 
d="M630 261c0 -199 -110 -276 -294 -276c-78 0 -143 14 -192 46l-27 -31h-94l70 79c-33 43 -50 103 -50 182v56c0 198 111 276 293 276c71 0 131 -12 178 -37l31 35h95l-70 -80c39 -44 60 -107 60 -194v-56zM415 261v56v19l-145 -163c12 -26 34 -35 66 -35
c56 0 79 29 79 123zM257 317v-52l135 153c-12 15 -31 21 -56 21c-55 0 -79 -28 -79 -122z" />
    <glyph glyph-name="oe" unicode="&#x153;" horiz-adv-x="1041" 
d="M1000 237h-372v-8c0 -65 7 -101 117 -101c61 0 166 3 225 8v-126c-48 -11 -149 -25 -250 -25c-90 0 -156 21 -198 54c-48 -36 -108 -54 -187 -54c-183 0 -294 77 -294 276v56c0 198 111 276 294 276c79 0 142 -17 187 -54c44 37 109 54 188 54c240 0 290 -153 290 -289
v-67zM791 339v8c0 61 -12 105 -82 105c-66 0 -80 -44 -80 -99v-14h162zM414 261v56c0 94 -23 123 -79 123s-80 -29 -80 -123v-56c0 -94 23 -123 80 -123c56 0 79 29 79 123z" />
    <glyph glyph-name="germandbls" unicode="&#xdf;" horiz-adv-x="743" 
d="M698 218c0 -138 -77 -231 -247 -231c-45 0 -79 5 -106 9v146h34c77 0 104 28 104 88v14c0 58 -28 89 -106 89h-32v127h32c72 0 100 27 100 86v8c0 46 -20 77 -95 77c-76 0 -101 -30 -101 -116v-515h-216v515c0 169 79 272 321 272c234 0 294 -112 294 -220v-9
c0 -62 -25 -122 -88 -154c78 -38 106 -111 106 -171v-15z" />
    <glyph glyph-name="one.superior" unicode="&#xb9;" horiz-adv-x="391" 
d="M342 341h-292v95l69 4v220l-69 -22v107l113 44h109v-349l70 -4v-95z" />
    <glyph glyph-name="logicalnot" unicode="&#xac;" horiz-adv-x="664" 
d="M586 158h-166v291h-343v156h509v-447z" />
    <glyph glyph-name="mu" unicode="&#xb5;" horiz-adv-x="744" 
d="M658 0h-202v47c-41 -24 -81 -41 -124 -48c-16 -2 -30 -2 -42 0v-198h-217v777h216v-364c0 -58 11 -77 57 -77c26 0 63 12 95 25v416h217v-578z" />
    <glyph glyph-name="trademark" unicode="&#x2122;" horiz-adv-x="1018" 
d="M947 330h-137v173c0 22 0 45 2 67h-1c-9 -18 -18 -35 -29 -50l-45 -62h-60l-44 62c-10 14 -21 33 -29 50h-1c1 -22 2 -45 2 -67v-173h-138v422h131l81 -120c10 -14 19 -29 28 -47h1c8 18 17 33 27 47l81 120h131v-422zM410 656h-114v-326h-144v326h-116v96h374v-96z" />
    <glyph glyph-name="Eth" unicode="&#xd0;" horiz-adv-x="770" 
d="M725 344c0 -257 -115 -357 -378 -357c-97 0 -185 4 -280 13v307h-49v145h49v291c94 9 183 13 280 13c260 0 378 -100 378 -353v-59zM494 344v59c0 154 -32 188 -139 188h-60v-139h90v-145h-90v-155h60c107 0 139 38 139 192z" />
    <glyph glyph-name="onehalf" unicode="&#xbd;" horiz-adv-x="1123" 
d="M871 746l-508 -746h-176l508 746h176zM720 355v82c47 14 122 20 174 20c135 0 191 -37 191 -123c0 -63 -36 -100 -133 -142c-81 -36 -90 -46 -90 -90h213v-102h-361v55c0 115 39 157 137 207c74 37 80 43 80 68c0 22 -14 31 -66 31c-49 0 -124 -5 -145 -6zM342 304h-292
v95l69 4v220l-69 -22v107l113 44h109v-349l70 -4v-95z" />
    <glyph glyph-name="plusminus" unicode="&#xb1;" horiz-adv-x="664" 
d="M598 0h-533v120h533v-120zM600 364h-187v-174h-161v174h-187v155h187v173h161v-173h187v-155z" />
    <glyph glyph-name="Thorn" unicode="&#xde;" horiz-adv-x="739" 
d="M292 0h-225v758h225v-104c25 1 50 1 68 1c187 0 349 -40 350 -251v-12c0 -211 -167 -253 -345 -253c-25 0 -43 0 -73 2v-141zM484 393v12c0 71 -38 87 -127 87c-24 0 -51 0 -65 -1v-186c15 0 40 -1 66 -1c87 0 126 19 126 89z" />
    <glyph glyph-name="onequarter" unicode="&#xbc;" horiz-adv-x="1031" 
d="M871 746l-508 -746h-176l508 746h176zM342 304h-292v95l69 4v220l-69 -22v107l113 44h109v-349l70 -4v-95zM933 0h-151v92h-207v89l241 266h117v-261h57v-94h-57v-92zM791 186v117l-102 -117h102z" />
    <glyph glyph-name="divide" unicode="&#xf7;" horiz-adv-x="664" 
d="M437 58h-210v161h210v-161zM592 461v-154h-521v154h521zM437 547h-210v161h210v-161z" />
    <glyph glyph-name="brokenbar" unicode="&#xa6;" horiz-adv-x="345" 
d="M281 -200h-217v387h217v-387zM281 743v-388h-217v388h217z" />
    <glyph glyph-name="degree" unicode="&#xb0;" horiz-adv-x="421" 
d="M381 601c0 -89 -77 -161 -170 -161c-94 0 -170 72 -170 161s76 161 170 161c93 0 170 -72 170 -161zM284 601c0 42 -33 72 -74 72c-40 0 -74 -30 -74 -72c0 -41 34 -71 74 -71c41 0 74 30 74 71z" />
    <glyph glyph-name="thorn" unicode="&#xfe;" horiz-adv-x="692" 
d="M280 -200h-216v982h199v-239c56 37 113 50 171 50c130 0 215 -72 215 -271v-62c0 -198 -102 -276 -280 -276c-31 0 -66 4 -89 7v-191zM433 260v62c0 91 -20 117 -77 117c-22 0 -47 -4 -78 -18v-278c22 -3 48 -6 66 -6c62 0 89 22 89 123z" />
    <glyph glyph-name="threequarters" unicode="&#xbe;" horiz-adv-x="1097" 
d="M918 746l-508 -746h-177l509 746h176zM995 0h-151v92h-207v89l241 266h117v-261h57v-94h-57v-92zM853 186v117l-102 -117h102zM44 658v81c31 11 104 22 170 22c121 0 196 -30 196 -132c0 -38 -15 -77 -53 -98c40 -19 53 -58 53 -102c0 -97 -60 -136 -196 -136
c-66 0 -141 11 -170 21v82c21 -1 104 -5 150 -5c47 0 66 6 66 46v7c0 28 -10 41 -63 41h-120v89h121c51 0 62 16 62 43c0 38 -15 46 -66 46c-53 0 -103 -3 -150 -5z" />
    <glyph glyph-name="two.superior" unicode="&#xb2;" horiz-adv-x="458" 
d="M50 696v82c47 14 122 20 174 20c135 0 191 -37 191 -123c0 -63 -36 -100 -133 -142c-81 -36 -90 -46 -90 -90h213v-102h-361v55c0 115 39 157 137 207c74 37 80 43 80 68c0 22 -14 31 -66 31c-49 0 -124 -5 -145 -6z" />
    <glyph glyph-name="registered" unicode="&#xae;" horiz-adv-x="661" 
d="M611 473c0 -181 -113 -296 -282 -296c-168 0 -281 115 -281 296c0 182 113 297 281 297c169 0 282 -115 282 -297zM529 473c0 139 -77 224 -200 224c-122 0 -199 -85 -199 -224c0 -138 77 -224 199 -224c123 0 200 86 200 224zM470 331h-93l-57 102h-12h-14v-102h-84v295
c44 4 71 5 103 5c78 0 140 -17 140 -99v-4c0 -44 -22 -68 -50 -80zM368 529v3c0 28 -17 34 -51 34h-23v-75h24c34 0 50 8 50 38z" />
    <glyph glyph-name="minus" unicode="&#x2212;" horiz-adv-x="664" 
d="M592 307h-521v154h521v-154z" />
    <glyph glyph-name="eth" unicode="&#xf0;" horiz-adv-x="673" 
d="M630 282c0 -208 -103 -297 -294 -297c-190 0 -293 82 -293 271v41c0 197 111 271 290 271c22 0 44 -4 62 -11c-26 45 -69 76 -127 95l-105 -80l-47 48l68 52c-23 4 -48 7 -73 7c-11 0 -20 0 -34 -1v112c24 2 50 3 69 3c58 0 110 -7 154 -19l74 58l48 -48l-43 -35
c171 -68 251 -230 251 -418v-49zM415 256v53c0 78 -24 106 -79 106s-79 -29 -79 -115v-44c0 -90 23 -118 79 -118s79 28 79 118z" />
    <glyph glyph-name="multiply" unicode="&#xd7;" horiz-adv-x="664" 
d="M587 244l-109 -104l-146 138l-146 -139l-109 104l147 139l-146 139l109 104l145 -139l146 139l109 -105l-146 -138z" />
    <glyph glyph-name="three.superior" unicode="&#xb3;" horiz-adv-x="454" 
d="M44 695v81c31 11 104 22 170 22c121 0 196 -30 196 -126v-6c0 -38 -15 -77 -53 -98c40 -19 53 -58 53 -94v-8c0 -97 -60 -136 -196 -136c-66 0 -141 11 -170 21v82c21 -1 104 -5 150 -5c47 0 66 6 66 46v7c0 28 -10 41 -63 41h-120v89h121c51 0 62 16 62 43v5
c0 33 -15 41 -66 41c-53 0 -103 -3 -150 -5z" />
    <glyph glyph-name="copyright" unicode="&#xa9;" horiz-adv-x="865" 
d="M815 373c0 -254 -161 -388 -384 -388c-222 0 -383 134 -383 388c0 253 161 388 383 388c223 0 384 -134 384 -388zM718 373c0 193 -117 302 -287 302c-169 0 -284 -109 -284 -302s115 -302 284 -302c170 0 287 109 287 302zM445 155c-141 0 -201 74 -201 194v48
c0 121 60 193 201 193c41 0 94 -7 116 -14v-92c-43 4 -75 5 -102 5c-56 0 -76 -22 -76 -92v-48c0 -70 20 -92 76 -92c27 0 59 1 102 4v-91c-22 -7 -75 -15 -116 -15z" />
    <glyph glyph-name="Aacute" unicode="&#xc1;" horiz-adv-x="790" 
d="M771 0h-245l-40 165h-183l-42 -165h-242l188 743h373zM461 318l-44 189c-9 35 -15 76 -20 112h-5c-6 -36 -12 -77 -20 -112l-45 -189h134zM649 932l-175 -142h-199l132 142h242z" />
    <glyph glyph-name="Acircumflex" unicode="&#xc2;" horiz-adv-x="790" 
d="M771 0h-245l-40 165h-183l-42 -165h-242l188 743h373zM461 318l-44 189c-9 35 -15 76 -20 112h-5c-6 -36 -12 -77 -20 -112l-45 -189h134zM655 789h-183l-78 73l-77 -73h-184l135 143h253z" />
    <glyph glyph-name="Adieresis" unicode="&#xc4;" horiz-adv-x="790" 
d="M771 0h-245l-40 165h-183l-42 -165h-242l188 743h373zM461 318l-44 189c-9 35 -15 76 -20 112h-5c-6 -36 -12 -77 -20 -112l-45 -189h134zM612 796h-169v131h169v-131zM345 927v-131h-169v131h169z" />
    <glyph glyph-name="Agrave" unicode="&#xc0;" horiz-adv-x="790" 
d="M771 0h-245l-40 165h-183l-42 -165h-242l188 743h373zM461 318l-44 189c-9 35 -15 76 -20 112h-5c-6 -36 -12 -77 -20 -112l-45 -189h134zM523 789h-199l-175 143h242z" />
    <glyph glyph-name="Aring" unicode="&#xc5;" horiz-adv-x="790" 
d="M771 0h-245l-40 165h-183l-42 -165h-242l188 743h373zM461 318l-44 189c-9 35 -15 76 -20 112h-5c-6 -36 -12 -77 -20 -112l-45 -189h134zM551 902c0 -80 -65 -126 -155 -126s-156 46 -156 126c0 81 66 128 156 128s155 -47 155 -128zM451 903c0 31 -23 46 -55 46
c-33 0 -55 -15 -55 -46c0 -30 22 -46 55 -46c32 0 55 16 55 46z" />
    <glyph glyph-name="Atilde" unicode="&#xc3;" horiz-adv-x="790" 
d="M771 0h-245l-40 165h-183l-42 -165h-242l188 743h373zM461 318l-44 189c-9 35 -15 76 -20 112h-5c-6 -36 -12 -77 -20 -112l-45 -189h134zM636 930c0 -111 -63 -144 -130 -144c-28 0 -60 6 -106 26l-50 23c-22 11 -38 17 -53 17c-22 0 -29 -14 -29 -42v-21h-115v21
c0 111 65 145 134 145c32 0 55 -6 100 -25l50 -23c22 -10 37 -18 56 -18c22 0 28 12 28 41v20h115v-20z" />
    <glyph glyph-name="Ccedilla" unicode="&#xc7;" horiz-adv-x="646" 
d="M613 4c-40 -12 -158 -22 -217 -22c-233 0 -350 83 -350 355v70c0 271 117 354 350 354c59 0 177 -11 217 -22v-157c-53 4 -124 8 -188 8c-95 0 -142 -29 -142 -183v-70c0 -156 47 -185 142 -185c64 0 135 4 188 8v-156zM490 -60l-128 -140h-194l100 140h222z" />
    <glyph glyph-name="Eacute" unicode="&#xc9;" horiz-adv-x="653" 
d="M607 0h-540v743h540v-158h-305v-133h283v-148h-283v-147h305v-157zM596 932l-175 -143h-199l132 143h242z" />
    <glyph glyph-name="Ecircumflex" unicode="&#xca;" horiz-adv-x="653" 
d="M607 0h-540v743h540v-158h-305v-133h283v-148h-283v-147h305v-157zM600 789h-184l-77 73l-78 -73h-184l135 143h253z" />
    <glyph glyph-name="Edieresis" unicode="&#xcb;" horiz-adv-x="653" 
d="M607 0h-540v743h540v-158h-305v-133h283v-148h-283v-147h305v-157zM556 796h-169v131h169v-131zM289 927v-131h-169v131h169z" />
    <glyph glyph-name="Egrave" unicode="&#xc8;" horiz-adv-x="653" 
d="M607 0h-540v743h540v-158h-305v-133h283v-148h-283v-147h305v-157zM463 789h-199l-175 143h242z" />
    <glyph glyph-name="Iacute" unicode="&#xcd;" horiz-adv-x="369" 
d="M302 0h-235v743h235v-743zM436 931l-174 -142h-200l133 142h241z" />
    <glyph glyph-name="Icircumflex" unicode="&#xce;" horiz-adv-x="369" 
d="M302 0h-235v743h235v-743zM447 789h-183l-78 73l-77 -73h-184l135 143h253z" />
    <glyph glyph-name="Idieresis" unicode="&#xcf;" horiz-adv-x="369" 
d="M302 0h-235v743h235v-743zM403 796h-170v131h170v-131zM136 927v-131h-170v131h170z" />
    <glyph glyph-name="Igrave" unicode="&#xcc;" horiz-adv-x="369" 
d="M302 0h-235v743h235v-743zM324 789h-198l-176 143h243z" />
    <glyph glyph-name="Ntilde" unicode="&#xd1;" horiz-adv-x="812" 
d="M745 0h-227l-190 327c-18 30 -35 63 -49 92h-3c2 -34 2 -71 2 -106v-313h-211v743h221l195 -323c19 -29 37 -65 51 -96h2c-3 26 -4 69 -4 113v306h213v-743zM648 930c0 -111 -63 -145 -129 -145c-28 0 -61 6 -106 26l-50 23c-22 11 -38 17 -53 17c-23 0 -29 -13 -29 -42
v-20h-115v20c0 111 64 145 134 145c31 0 55 -6 99 -25l51 -23c22 -10 37 -18 56 -18c22 0 28 13 28 42v20h114v-20z" />
    <glyph glyph-name="Oacute" unicode="&#xd3;" horiz-adv-x="776" 
d="M730 339c0 -275 -145 -357 -342 -357s-342 82 -342 357v64c0 277 148 358 342 358s342 -81 342 -358v-64zM500 340v63c0 144 -36 188 -112 188c-77 0 -112 -44 -112 -188v-63c0 -147 38 -188 112 -188s112 41 112 188zM627 932l-175 -143h-199l132 143h242z" />
    <glyph glyph-name="Ocircumflex" unicode="&#xd4;" horiz-adv-x="776" 
d="M730 339c0 -275 -145 -357 -342 -357s-342 82 -342 357v64c0 277 148 358 342 358s342 -81 342 -358v-64zM500 340v63c0 144 -36 188 -112 188c-77 0 -112 -44 -112 -188v-63c0 -147 38 -188 112 -188s112 41 112 188zM649 789h-184l-77 72l-78 -72h-183l135 142h252z
" />
    <glyph glyph-name="Odieresis" unicode="&#xd6;" horiz-adv-x="776" 
d="M730 339c0 -275 -145 -357 -342 -357s-342 82 -342 357v64c0 277 148 358 342 358s342 -81 342 -358v-64zM500 340v63c0 144 -36 188 -112 188c-77 0 -112 -44 -112 -188v-63c0 -147 38 -188 112 -188s112 41 112 188zM606 797h-169v130h169v-130zM339 927v-130h-169v130
h169z" />
    <glyph glyph-name="Ograve" unicode="&#xd2;" horiz-adv-x="776" 
d="M730 339c0 -275 -145 -357 -342 -357s-342 82 -342 357v64c0 277 148 358 342 358s342 -81 342 -358v-64zM500 340v63c0 144 -36 188 -112 188c-77 0 -112 -44 -112 -188v-63c0 -147 38 -188 112 -188s112 41 112 188zM524 789h-198l-176 143h243z" />
    <glyph glyph-name="Otilde" unicode="&#xd5;" horiz-adv-x="776" 
d="M730 339c0 -275 -145 -357 -342 -357s-342 82 -342 357v64c0 277 148 358 342 358s342 -81 342 -358v-64zM500 340v63c0 144 -36 188 -112 188c-77 0 -112 -44 -112 -188v-63c0 -147 38 -188 112 -188s112 41 112 188zM629 930c0 -111 -63 -145 -130 -145
c-28 0 -60 6 -106 26l-50 23c-22 11 -38 17 -53 17c-22 0 -29 -13 -29 -42v-20h-115v20c0 111 65 145 134 145c32 0 55 -6 100 -25l50 -23c22 -10 37 -18 56 -18c22 0 28 13 28 42v20h115v-20z" />
    <glyph glyph-name="Scaron" unicode="&#x160;" horiz-adv-x="677" 
d="M78 931h183l78 -72l77 72h184l-135 -142h-252zM635 216c0 -165 -116 -234 -294 -234c-112 0 -221 12 -279 24v144c67 -5 134 -12 245 -12c69 0 96 21 96 65c0 34 -17 47 -82 74l-98 42c-110 46 -181 96 -181 227c0 156 112 215 313 215c103 0 191 -16 242 -27v-140
c-81 7 -141 13 -229 13c-65 0 -98 -12 -98 -53c0 -30 17 -43 79 -68l95 -38c134 -53 191 -112 191 -232z" />
    <glyph glyph-name="Uacute" unicode="&#xda;" horiz-adv-x="796" 
d="M734 298c0 -214 -127 -316 -336 -316c-210 0 -336 102 -336 316v445h231v-442c0 -113 21 -154 105 -154s105 41 105 154v442h231v-445zM656 932l-175 -143h-199l132 143h242z" />
    <glyph glyph-name="Ucircumflex" unicode="&#xdb;" horiz-adv-x="796" 
d="M734 298c0 -214 -127 -316 -336 -316c-210 0 -336 102 -336 316v445h231v-442c0 -113 21 -154 105 -154s105 41 105 154v442h231v-445zM660 789h-184l-77 73l-78 -73h-184l135 143h253z" />
    <glyph glyph-name="Udieresis" unicode="&#xdc;" horiz-adv-x="796" 
d="M734 298c0 -214 -127 -316 -336 -316c-210 0 -336 102 -336 316v445h231v-442c0 -113 21 -154 105 -154s105 41 105 154v442h231v-445zM616 796h-169v131h169v-131zM349 927v-131h-170v131h170z" />
    <glyph glyph-name="Ugrave" unicode="&#xd9;" horiz-adv-x="796" 
d="M734 298c0 -214 -127 -316 -336 -316c-210 0 -336 102 -336 316v445h231v-442c0 -113 21 -154 105 -154s105 41 105 154v442h231v-445zM520 789h-199l-175 143h242z" />
    <glyph glyph-name="Yacute" unicode="&#xdd;" horiz-adv-x="745" 
d="M734 743l-248 -486v-257h-227v257l-248 486h235l83 -177c14 -34 30 -76 42 -113h4c12 36 30 79 44 113l83 177h232zM631 932l-174 -143h-199l132 143h241z" />
    <glyph glyph-name="Ydieresis" unicode="&#x178;" horiz-adv-x="745" 
d="M734 743l-248 -486v-257h-227v257l-248 486h235l83 -177c14 -34 30 -76 42 -113h4c12 36 30 79 44 113l83 177h232zM592 796h-170v131h170v-131zM325 927v-131h-170v131h170z" />
    <glyph glyph-name="Zcaron" unicode="&#x17d;" horiz-adv-x="674" 
d="M625 0h-576v159l295 422h-288v162h563v-162l-295 -419h301v-162zM87 932h184l78 -73l77 73h184l-135 -143h-253z" />
    <glyph glyph-name="aacute" unicode="&#xe1;" horiz-adv-x="642" 
d="M584 0h-196v37c-39 -26 -108 -52 -182 -52c-109 0 -168 58 -168 165v24c0 156 125 170 291 170h38v29c0 59 -13 71 -92 71c-46 0 -126 -3 -192 -10v121c40 13 139 38 242 38c175 0 259 -54 259 -220v-373zM377 133v113h-46c-61 0 -89 -7 -89 -63v-21c0 -39 21 -50 52 -50
c34 0 67 13 83 21zM586 780l-174 -143h-200l133 143h241z" />
    <glyph glyph-name="acircumflex" unicode="&#xe2;" horiz-adv-x="642" 
d="M584 0h-196v37c-39 -26 -108 -52 -182 -52c-109 0 -168 58 -168 165v24c0 156 125 170 291 170h38v29c0 59 -13 71 -92 71c-46 0 -126 -3 -192 -10v121c40 13 139 38 242 38c175 0 259 -54 259 -220v-373zM377 133v113h-46c-61 0 -89 -7 -89 -63v-21c0 -39 21 -50 52 -50
c34 0 67 13 83 21zM584 637h-183l-78 73l-77 -73h-184l135 143h253z" />
    <glyph glyph-name="adieresis" unicode="&#xe4;" horiz-adv-x="642" 
d="M584 0h-196v37c-39 -26 -108 -52 -182 -52c-109 0 -168 58 -168 165v24c0 156 125 170 291 170h38v29c0 59 -13 71 -92 71c-46 0 -126 -3 -192 -10v121c40 13 139 38 242 38c175 0 259 -54 259 -220v-373zM377 133v113h-46c-61 0 -89 -7 -89 -63v-21c0 -39 21 -50 52 -50
c34 0 67 13 83 21zM542 646h-170v131h170v-131zM275 777v-131h-170v131h170z" />
    <glyph glyph-name="agrave" unicode="&#xe0;" horiz-adv-x="642" 
d="M584 0h-196v37c-39 -26 -108 -52 -182 -52c-109 0 -168 58 -168 165v24c0 156 125 170 291 170h38v29c0 59 -13 71 -92 71c-46 0 -126 -3 -192 -10v121c40 13 139 38 242 38c175 0 259 -54 259 -220v-373zM377 133v113h-46c-61 0 -89 -7 -89 -63v-21c0 -39 21 -50 52 -50
c34 0 67 13 83 21zM469 637h-199l-175 143h242z" />
    <glyph glyph-name="aring" unicode="&#xe5;" horiz-adv-x="642" 
d="M584 0h-196v37c-39 -26 -108 -52 -182 -52c-109 0 -168 58 -168 165v24c0 156 125 170 291 170h38v29c0 59 -13 71 -92 71c-46 0 -126 -3 -192 -10v121c40 13 139 38 242 38c175 0 259 -54 259 -220v-373zM377 133v113h-46c-61 0 -89 -7 -89 -63v-21c0 -39 21 -50 52 -50
c34 0 67 13 83 21zM483 746c0 -80 -65 -127 -155 -127s-156 47 -156 127c0 81 66 127 156 127s155 -46 155 -127zM383 747c0 30 -23 45 -55 45c-33 0 -55 -15 -55 -45c0 -31 22 -46 55 -46c32 0 55 15 55 46z" />
    <glyph glyph-name="atilde" unicode="&#xe3;" horiz-adv-x="642" 
d="M584 0h-196v37c-39 -26 -108 -52 -182 -52c-109 0 -168 58 -168 165v24c0 156 125 170 291 170h38v29c0 59 -13 71 -92 71c-46 0 -126 -3 -192 -10v121c40 13 139 38 242 38c175 0 259 -54 259 -220v-373zM377 133v113h-46c-61 0 -89 -7 -89 -63v-21c0 -39 21 -50 52 -50
c34 0 67 13 83 21zM564 778c0 -111 -63 -145 -129 -145c-28 0 -61 6 -106 26l-50 23c-22 11 -38 17 -53 17c-23 0 -29 -13 -29 -42v-20h-116v20c0 111 65 145 135 145c31 0 55 -6 99 -25l50 -23c23 -10 38 -18 56 -18c23 0 29 13 29 42v20h114v-20z" />
    <glyph glyph-name="ccedilla" unicode="&#xe7;" horiz-adv-x="560" 
d="M521 8c-40 -10 -110 -23 -206 -23c-188 0 -272 91 -272 276v57c0 188 84 275 272 275c96 0 166 -14 206 -23v-139c-79 4 -128 7 -165 7c-68 0 -98 -19 -98 -120v-57c0 -102 30 -122 98 -122c37 0 86 3 165 7v-138zM432 -60l-129 -140h-194l100 140h223z" />
    <glyph glyph-name="eacute" unicode="&#xe9;" horiz-adv-x="665" 
d="M628 237h-371v-8c0 -66 8 -94 116 -94c57 0 107 2 225 7v-131c-48 -11 -134 -26 -235 -26c-217 0 -320 67 -320 289v26c0 210 104 293 295 293c241 0 290 -152 290 -307v-49zM420 339v8c0 61 -13 104 -82 104c-68 0 -81 -44 -81 -104v-8h163zM594 780l-175 -143h-199
l132 143h242z" />
    <glyph glyph-name="ecircumflex" unicode="&#xea;" horiz-adv-x="665" 
d="M628 237h-371v-8c0 -66 8 -94 116 -94c57 0 107 2 225 7v-131c-48 -11 -134 -26 -235 -26c-217 0 -320 67 -320 289v26c0 210 104 293 295 293c241 0 290 -152 290 -307v-49zM420 339v8c0 61 -13 104 -82 104c-68 0 -81 -44 -81 -104v-8h163zM595 637h-183l-78 73
l-77 -73h-184l135 143h253z" />
    <glyph glyph-name="edieresis" unicode="&#xeb;" horiz-adv-x="665" 
d="M628 237h-371v-8c0 -66 8 -94 116 -94c57 0 107 2 225 7v-131c-48 -11 -134 -26 -235 -26c-217 0 -320 67 -320 289v26c0 210 104 293 295 293c241 0 290 -152 290 -307v-49zM420 339v8c0 61 -13 104 -82 104c-68 0 -81 -44 -81 -104v-8h163zM551 646h-169v131h169v-131z
M284 777v-131h-169v131h169z" />
    <glyph glyph-name="egrave" unicode="&#xe8;" horiz-adv-x="665" 
d="M628 237h-371v-8c0 -66 8 -94 116 -94c57 0 107 2 225 7v-131c-48 -11 -134 -26 -235 -26c-217 0 -320 67 -320 289v26c0 210 104 293 295 293c241 0 290 -152 290 -307v-49zM420 339v8c0 61 -13 104 -82 104c-68 0 -81 -44 -81 -104v-8h163zM484 637h-199l-175 143h242z
" />
    <glyph glyph-name="iacute" unicode="&#xed;" 
d="M283 0h-217v578h217v-578zM422 780l-174 -143h-199l132 143h241z" />
    <glyph glyph-name="icircumflex" unicode="&#xee;" 
d="M283 0h-217v578h217v-578zM436 637h-184l-77 73l-78 -73h-183l135 143h252z" />
    <glyph glyph-name="idieresis" unicode="&#xef;" 
d="M283 0h-217v578h217v-578zM393 646h-170v131h170v-131zM126 777v-131h-170v131h170z" />
    <glyph glyph-name="igrave" unicode="&#xec;" 
d="M283 0h-217v578h217v-578zM301 637h-199l-175 143h242z" />
    <glyph glyph-name="ntilde" unicode="&#xf1;" horiz-adv-x="709" 
d="M649 0h-217v365c0 57 -10 76 -55 76c-28 0 -64 -11 -97 -26v-415h-216v578h201v-47c55 37 122 62 188 62c185 0 196 -109 196 -228v-365zM596 778c0 -111 -63 -145 -129 -145c-28 0 -61 6 -106 26l-50 23c-22 11 -38 17 -53 17c-23 0 -29 -13 -29 -42v-20h-115v20
c0 111 64 145 134 145c31 0 55 -6 99 -25l51 -23c22 -10 37 -18 56 -18c22 0 28 13 28 42v20h114v-20z" />
    <glyph glyph-name="oacute" unicode="&#xf3;" horiz-adv-x="673" 
d="M630 261c0 -199 -110 -276 -294 -276c-182 0 -293 77 -293 276v56c0 198 111 276 293 276c184 0 294 -77 294 -276v-56zM415 261v56c0 94 -23 122 -79 122c-55 0 -79 -28 -79 -122v-56c0 -94 23 -123 79 -123s79 29 79 123zM583 780l-175 -143h-199l132 143h242z" />
    <glyph glyph-name="ocircumflex" unicode="&#xf4;" horiz-adv-x="673" 
d="M630 261c0 -199 -110 -276 -294 -276c-182 0 -293 77 -293 276v56c0 198 111 276 293 276c184 0 294 -77 294 -276v-56zM415 261v56c0 94 -23 122 -79 122c-55 0 -79 -28 -79 -122v-56c0 -94 23 -123 79 -123s79 29 79 123zM597 637h-183l-78 73l-77 -73h-184l135 143
h253z" />
    <glyph glyph-name="odieresis" unicode="&#xf6;" horiz-adv-x="673" 
d="M630 261c0 -199 -110 -276 -294 -276c-182 0 -293 77 -293 276v56c0 198 111 276 293 276c184 0 294 -77 294 -276v-56zM415 261v56c0 94 -23 122 -79 122c-55 0 -79 -28 -79 -122v-56c0 -94 23 -123 79 -123s79 29 79 123zM555 646h-170v131h170v-131zM288 777v-131
h-170v131h170z" />
    <glyph glyph-name="ograve" unicode="&#xf2;" horiz-adv-x="673" 
d="M630 261c0 -199 -110 -276 -294 -276c-182 0 -293 77 -293 276v56c0 198 111 276 293 276c184 0 294 -77 294 -276v-56zM415 261v56c0 94 -23 122 -79 122c-55 0 -79 -28 -79 -122v-56c0 -94 23 -123 79 -123s79 29 79 123zM466 637h-199l-175 143h242z" />
    <glyph glyph-name="otilde" unicode="&#xf5;" horiz-adv-x="673" 
d="M630 261c0 -199 -110 -276 -294 -276c-182 0 -293 77 -293 276v56c0 198 111 276 293 276c184 0 294 -77 294 -276v-56zM415 261v56c0 94 -23 122 -79 122c-55 0 -79 -28 -79 -122v-56c0 -94 23 -123 79 -123s79 29 79 123zM578 778c0 -111 -63 -145 -129 -145
c-28 0 -61 6 -107 26l-50 23c-22 11 -37 17 -52 17c-23 0 -29 -13 -29 -42v-20h-116v20c0 111 65 145 134 145c32 0 56 -6 100 -25l50 -23c22 -10 38 -18 56 -18c23 0 29 13 29 42v20h114v-20z" />
    <glyph glyph-name="scaron" unicode="&#x161;" horiz-adv-x="573" 
d="M28 780h183l78 -72l77 72h184l-135 -143h-252zM539 169c0 -130 -99 -184 -274 -184c-82 0 -177 13 -216 22v121c19 -1 118 -10 203 -10c57 0 73 13 73 43c0 26 -13 30 -74 52l-47 17c-108 40 -166 91 -166 191c0 139 103 172 252 172c89 0 172 -12 216 -24v-118
c-73 6 -122 10 -193 10c-45 0 -64 -6 -64 -33c0 -22 13 -27 64 -46l55 -20c130 -48 171 -97 171 -193z" />
    <glyph glyph-name="uacute" unicode="&#xfa;" horiz-adv-x="712" 
d="M648 0h-202v47c-53 -34 -120 -62 -203 -62c-167 0 -180 115 -180 229v364h216v-364c0 -58 11 -77 57 -77c26 0 63 12 95 25v416h217v-578zM603 780l-174 -143h-199l132 143h241z" />
    <glyph glyph-name="ucircumflex" unicode="&#xfb;" horiz-adv-x="712" 
d="M648 0h-202v47c-53 -34 -120 -62 -203 -62c-167 0 -180 115 -180 229v364h216v-364c0 -58 11 -77 57 -77c26 0 63 12 95 25v416h217v-578zM618 637h-184l-77 73l-78 -73h-184l135 143h253z" />
    <glyph glyph-name="udieresis" unicode="&#xfc;" horiz-adv-x="712" 
d="M648 0h-202v47c-53 -34 -120 -62 -203 -62c-167 0 -180 115 -180 229v364h216v-364c0 -58 11 -77 57 -77c26 0 63 12 95 25v416h217v-578zM575 646h-170v131h170v-131zM308 777v-131h-170v131h170z" />
    <glyph glyph-name="ugrave" unicode="&#xf9;" horiz-adv-x="712" 
d="M648 0h-202v47c-53 -34 -120 -62 -203 -62c-167 0 -180 115 -180 229v364h216v-364c0 -58 11 -77 57 -77c26 0 63 12 95 25v416h217v-578zM489 637h-198l-176 143h243z" />
    <glyph glyph-name="yacute" unicode="&#xfd;" horiz-adv-x="681" 
d="M662 578l-168 -564c-46 -170 -117 -228 -264 -228c-69 0 -138 6 -187 16v127c52 -2 75 -2 110 -2c36 0 49 13 63 54l8 27l-203 570h230l69 -286c11 -50 21 -105 29 -153h2c8 48 18 103 29 153l64 286h218zM609 780l-175 -143h-199l132 143h242z" />
    <glyph glyph-name="ydieresis" unicode="&#xff;" horiz-adv-x="681" 
d="M662 578l-168 -564c-46 -170 -117 -228 -264 -228c-69 0 -138 6 -187 16v127c52 -2 75 -2 110 -2c36 0 49 13 63 54l8 27l-203 570h230l69 -286c11 -50 21 -105 29 -153h2c8 48 18 103 29 153l64 286h218zM569 646h-169v131h169v-131zM302 777v-131h-169v131h169z" />
    <glyph glyph-name="zcaron" unicode="&#x17e;" horiz-adv-x="579" 
d="M537 0h-497v139l250 294h-243v145h489v-144l-245 -291h246v-143zM45 780h183l78 -72l77 72h184l-135 -143h-252z" />
    <glyph glyph-name="dollar.oldstyle" horiz-adv-x="650" 
d="M63 6v141c54 -3 120 -9 228 -9c59 0 79 17 79 48c0 28 -13 39 -75 65l-80 33c-104 44 -171 87 -171 210c0 115 69 175 196 194v105h175v-101c69 -5 132 -16 169 -24v-137c-74 6 -148 11 -231 11c-53 0 -82 -8 -82 -39c0 -23 10 -37 67 -59l76 -31
c129 -52 187 -97 187 -213c0 -121 -70 -188 -186 -209v-114h-175v109c-71 3 -136 11 -177 20z" />
    <glyph glyph-name="dollar.superior" horiz-adv-x="448" 
d="M50 342v93c35 -2 92 -6 152 -6c46 0 59 13 59 34c0 19 -12 27 -50 41l-56 21c-69 25 -116 64 -116 139c0 72 41 112 122 126v83h130v-79c45 -3 86 -10 107 -15v-92c-68 5 -126 7 -154 7c-36 0 -60 -6 -60 -29c0 -16 10 -25 49 -38l53 -18c83 -27 124 -63 124 -137
c0 -76 -45 -125 -119 -139v-84h-130v80c-44 3 -83 8 -111 13z" />
    <glyph glyph-name="parenleft.superior" unicode="&#x207d;" horiz-adv-x="290" 
d="M251 259h-127c-40 57 -78 151 -78 268c0 112 38 207 78 265h127c-37 -63 -70 -157 -70 -265c0 -112 33 -205 70 -268z" />
    <glyph glyph-name="parenright.superior" unicode="&#x207e;" horiz-adv-x="290" 
d="M243 523c0 -113 -37 -207 -77 -264h-128c38 63 70 156 70 264c0 112 -32 206 -70 269h128c40 -58 77 -153 77 -269z" />
    <glyph glyph-name="twodotenleader" unicode="&#x2025;" horiz-adv-x="659" 
d="M609 0h-217v175h217v-175zM267 175v-175h-217v175h217z" />
    <glyph glyph-name="onedotenleader" unicode="&#x2024;" horiz-adv-x="319" 
d="M268 0h-218v175h218v-175z" />
    <glyph glyph-name="zero.oldstyle" horiz-adv-x="740" 
d="M696 290c0 -202 -104 -308 -325 -308c-222 0 -326 106 -326 308v32c0 203 104 308 326 308c221 0 325 -105 325 -308v-32zM460 290v33c0 109 -31 144 -89 144c-59 0 -90 -35 -90 -144v-33c0 -109 31 -144 90 -144c58 0 89 35 89 144z" />
    <glyph glyph-name="one.oldstyle" horiz-adv-x="629" 
d="M588 0h-548v150l159 9v265l-159 -46v169l224 72h168v-460l156 -9v-150z" />
    <glyph glyph-name="two.oldstyle" horiz-adv-x="681" 
d="M53 466v130c62 19 176 34 274 34c232 0 310 -62 310 -185c0 -113 -60 -165 -209 -243l-82 -42h279v-160h-580v160l176 97c147 81 177 115 177 163c0 43 -27 58 -115 58c-67 0 -167 -6 -230 -12z" />
    <glyph glyph-name="three.oldstyle" horiz-adv-x="679" 
d="M626 76c0 -162 -98 -225 -316 -225c-104 0 -219 20 -268 37v131c58 -5 154 -12 241 -12c76 0 110 12 110 81v13c0 50 -16 75 -103 75h-196v141h197c85 0 102 27 102 76v9c0 61 -25 74 -110 74c-92 0 -172 -5 -240 -11v130c47 16 163 35 267 35c196 0 316 -50 316 -209
v-11c0 -64 -24 -128 -87 -162c64 -31 87 -96 87 -157v-15z" />
    <glyph glyph-name="four.oldstyle" horiz-adv-x="740" 
d="M698 32h-91v-159h-234v159h-336v141l384 443h186v-438h91v-146zM386 178v212l-173 -212h173z" />
    <glyph glyph-name="five.oldstyle" horiz-adv-x="668" 
d="M624 93c0 -179 -124 -243 -313 -243c-120 0 -221 19 -267 32v133c50 -4 127 -12 211 -12c100 0 132 19 132 88v17c0 62 -26 80 -128 80h-212l37 424h519v-156h-333l-10 -122h54c245 0 310 -70 310 -224v-17z" />
    <glyph glyph-name="six.oldstyle" horiz-adv-x="717" 
d="M672 233c0 -183 -128 -251 -312 -251c-240 0 -316 112 -316 313v155c1 191 51 311 320 311c111 0 224 -19 270 -31v-135c-87 7 -148 12 -238 12c-110 0 -121 -35 -121 -120v-21c29 7 80 11 111 11c171 0 286 -39 286 -217v-27zM442 232v26c0 73 -23 90 -83 90
c-22 0 -57 -3 -84 -9v-84c0 -98 27 -128 86 -128c51 0 81 33 81 105z" />
    <glyph glyph-name="seven.oldstyle" horiz-adv-x="664" 
d="M631 450l-328 -576h-246l341 588h-360v155h593v-167z" />
    <glyph glyph-name="eight.oldstyle" horiz-adv-x="745" 
d="M699 212c0 -202 -141 -230 -324 -230h-6c-183 0 -323 28 -323 230v7c0 76 27 126 83 163c-50 33 -81 79 -81 159v8c0 177 132 212 321 212h6c190 0 322 -35 322 -212v-8c0 -80 -30 -126 -80 -159c56 -37 82 -87 82 -163v-7zM470 216v7c0 68 -16 95 -68 95h-59
c-52 0 -67 -27 -67 -95v-7c0 -76 33 -94 93 -94h6c61 0 95 18 95 94zM468 533v8c0 60 -33 79 -93 79h-6c-59 0 -92 -19 -92 -79v-8c0 -53 13 -84 66 -84h59c53 0 66 31 66 84z" />
    <glyph glyph-name="nine.oldstyle" horiz-adv-x="717" 
d="M668 166c0 -189 -50 -315 -319 -315c-112 0 -225 19 -270 30v135c67 -5 148 -11 244 -11c103 0 115 36 115 120v21c-30 -7 -80 -11 -111 -11c-172 0 -287 40 -287 217v27c0 181 128 251 312 251c241 0 316 -108 316 -305v-159zM438 273v84c0 98 -27 127 -88 127
c-51 0 -80 -32 -80 -105v-25c0 -73 24 -90 83 -90c22 0 57 3 85 9z" />
    <glyph glyph-name="comma.superior" horiz-adv-x="259" 
d="M216 444l-73 -171h-107l50 171h130z" />
    <glyph glyph-name="period.superior" horiz-adv-x="227" 
d="M183 340h-138v104h138v-104z" />
    <glyph glyph-name="a.superior" horiz-adv-x="433" 
d="M386 311h-128v24c-24 -15 -63 -33 -113 -33c-69 0 -106 35 -106 101v14c0 97 81 100 184 100h21v20c0 34 -7 40 -55 40c-26 0 -85 -2 -121 -4v74c26 8 90 23 155 23c109 0 163 -32 163 -136v-223zM251 392v68h-27c-37 0 -52 -4 -52 -39v-10c0 -25 14 -30 32 -30
c19 0 38 7 47 11z" />
    <glyph glyph-name="b.superior" horiz-adv-x="452" 
d="M47 782h141v-120c15 5 36 8 60 8c117 0 171 -52 171 -168v-28c0 -129 -68 -173 -196 -173c-55 0 -100 3 -176 10v471zM278 474v28c0 55 -10 68 -50 68c-10 0 -29 -1 -41 -6v-162c8 0 23 -2 38 -2c40 0 53 14 53 74z" />
    <glyph glyph-name="cent.superior" horiz-adv-x="415" 
d="M376 341c-18 -5 -49 -10 -82 -12v-81h-129v89c-80 22 -127 86 -127 208v34c0 116 43 185 127 207v85h129v-77c34 -2 66 -8 82 -12v-109c-37 3 -74 5 -99 5c-59 0 -77 -20 -77 -99v-34c0 -78 16 -99 77 -99c26 0 72 2 99 4v-109z" />
    <glyph glyph-name="d.superior" horiz-adv-x="453" 
d="M406 311h-129v21c-25 -17 -60 -31 -104 -31c-88 0 -140 55 -140 171v29c0 122 61 169 175 169c24 0 40 -1 56 -3v115h142v-471zM266 409v159c-13 2 -29 3 -39 3c-37 0 -53 -10 -53 -70v-29c0 -55 11 -71 49 -71c16 0 32 4 43 8z" />
    <glyph glyph-name="e.superior" horiz-adv-x="439" 
d="M406 453h-233v-4c0 -34 4 -57 71 -57c35 0 94 2 142 6v-82c-30 -7 -95 -15 -159 -15c-133 0 -194 58 -194 167v34c0 120 73 168 188 168c152 0 185 -95 185 -175v-42zM269 516v5c0 38 -8 63 -48 63s-47 -26 -47 -63v-5h95z" />
    <glyph glyph-name="i.superior" unicode="&#x2071;" horiz-adv-x="243" 
d="M51 661h142v-350h-142v350zM196 700h-149v82h149v-82z" />
    <glyph glyph-name="l.superior" horiz-adv-x="235" 
d="M188 311h-141v471h141v-471z" />
    <glyph glyph-name="m.superior" horiz-adv-x="662" 
d="M178 632c31 25 71 38 111 38c47 0 73 -14 91 -39c40 29 82 39 115 39c97 0 120 -55 120 -132v-227h-143v223c0 25 -1 40 -28 40c-13 0 -30 -5 -43 -12c1 -10 1 -19 1 -27v-224h-142v224c0 24 -1 39 -28 39c-14 0 -31 -7 -43 -13v-250h-142v350h131v-29z" />
    <glyph glyph-name="n.superior" unicode="&#x207f;" horiz-adv-x="467" 
d="M420 311h-142v218c0 32 -7 43 -33 43c-17 0 -39 -7 -56 -14v-247h-142v350h132v-28c34 23 76 37 117 37c118 0 124 -70 124 -140v-219z" />
    <glyph glyph-name="o.superior" horiz-adv-x="440" 
d="M407 471c0 -124 -71 -170 -188 -170c-115 0 -186 46 -186 170v30c0 124 71 169 186 169c117 0 188 -45 188 -169v-30zM265 471v30c0 54 -13 71 -46 71s-46 -17 -46 -71v-30c0 -54 13 -71 46 -71s46 17 46 71z" />
    <glyph glyph-name="r.superior" horiz-adv-x="315" 
d="M189 311h-142v350h130v-29c35 34 81 38 114 38v-111c-36 0 -73 -4 -102 -9v-239z" />
    <glyph glyph-name="s.superior" horiz-adv-x="398" 
d="M359 414c0 -82 -59 -113 -175 -113c-52 0 -113 8 -138 14v74c33 -2 81 -6 129 -6c34 0 44 9 44 26c0 16 -8 21 -44 32l-28 9c-67 21 -108 51 -108 114c0 88 67 106 161 106c55 0 116 -7 145 -14v-71c-44 3 -91 4 -127 4c-29 0 -41 -4 -41 -21c0 -14 8 -20 38 -29l35 -12
c77 -25 109 -53 109 -113z" />
    <glyph glyph-name="t.superior" horiz-adv-x="332" 
d="M300 312c-8 -3 -46 -11 -88 -11c-86 0 -124 35 -124 119v154l-58 6v81h58v83h142v-83h72v-87h-72v-154c0 -25 2 -32 25 -32c16 0 38 1 45 2v-78z" />
    <glyph glyph-name="parenleft.inferior" unicode="&#x208d;" horiz-adv-x="290" 
d="M251 -228h-127c-40 57 -78 151 -78 268c0 112 38 207 78 265h127c-37 -63 -70 -157 -70 -265c0 -112 33 -205 70 -268z" />
    <glyph glyph-name="parenright.inferior" unicode="&#x208e;" horiz-adv-x="290" 
d="M243 36c0 -113 -37 -207 -77 -264h-128c38 63 70 156 70 264c0 112 -32 206 -70 269h128c40 -58 77 -153 77 -269z" />
    <glyph glyph-name="hyphen.superior" horiz-adv-x="240" 
d="M197 491h-155v100h155v-100z" />
    <glyph glyph-name="colonmonetary" unicode="&#x20a1;" horiz-adv-x="559" 
d="M523 570v-140c-51 3 -112 8 -165 8c-70 0 -98 -18 -98 -120v-57c0 -101 28 -122 98 -122c46 0 106 3 165 7v-138c-14 -4 -41 -9 -74 -14v-117h-104v108h-30c-16 0 -30 1 -42 2v-110h-104v136c-83 40 -124 123 -124 248v57c0 123 41 206 124 247v134h104v-108
c13 1 27 2 43 2c9 0 18 0 29 -1v107h104v-116c36 -4 61 -9 74 -13z" />
    <glyph glyph-name="cent.oldstyle" horiz-adv-x="609" 
d="M555 613v-144c-67 3 -103 5 -158 5c-81 0 -116 -25 -116 -136v-60c0 -112 35 -136 116 -136c56 0 110 2 158 4v-142c-27 -9 -85 -15 -132 -18v-98h-169v106c-141 32 -201 121 -201 284v60c0 160 61 253 201 283v101h169v-93c45 -2 106 -9 132 -16z" />
    <glyph glyph-name="figuredash" unicode="&#x2012;" horiz-adv-x="727" 
d="M677 213h-628v127h628v-127z" />
    <glyph glyph-name="hyphen.inferior" horiz-adv-x="240" 
d="M197 4h-155v100h155v-100z" />
    <glyph glyph-name="oneeighth" unicode="&#x215b;" horiz-adv-x="1138" 
d="M865 746l-508 -746h-176l508 746h176zM342 304h-292v95l69 4v220l-69 -22v107l113 44h109v-349l70 -4v-95zM1092 126c0 -120 -87 -137 -203 -137c-119 0 -206 17 -206 137c0 50 16 81 50 103c-31 21 -49 49 -49 96c0 109 82 132 205 132c119 0 201 -23 201 -132
c0 -47 -18 -75 -49 -96c34 -22 51 -53 51 -103zM944 130c0 44 -9 59 -40 59h-35c-30 0 -39 -15 -39 -59c0 -43 20 -53 59 -53c36 0 55 10 55 53zM943 324c0 34 -17 44 -56 44c-35 0 -56 -10 -56 -44c0 -35 7 -52 38 -52h35c31 0 39 17 39 52z" />
    <glyph glyph-name="threeeighths" unicode="&#x215c;" horiz-adv-x="1192" 
d="M915 746l-508 -746h-176l508 746h176zM1145 126c0 -120 -87 -137 -203 -137c-119 0 -206 17 -206 137c0 50 16 81 50 103c-31 21 -49 49 -49 96c0 109 82 132 205 132c119 0 201 -23 201 -132c0 -47 -18 -75 -49 -96c34 -22 51 -53 51 -103zM997 130c0 44 -9 59 -40 59
h-35c-30 0 -39 -15 -39 -59c0 -43 20 -53 59 -53c36 0 55 10 55 53zM996 324c0 34 -17 44 -56 44c-35 0 -56 -10 -56 -44c0 -35 7 -52 38 -52h35c31 0 39 17 39 52zM44 658v81c31 11 104 22 170 22c121 0 196 -30 196 -132c0 -38 -15 -77 -53 -98c40 -19 53 -58 53 -102
c0 -97 -60 -136 -196 -136c-66 0 -141 11 -170 21v82c21 -1 104 -5 150 -5c47 0 66 6 66 46v7c0 28 -10 41 -63 41h-120v89h121c51 0 62 16 62 43c0 38 -15 46 -66 46c-53 0 -103 -3 -150 -5z" />
    <glyph glyph-name="fiveeighths" unicode="&#x215d;" horiz-adv-x="1190" 
d="M913 746l-509 -746h-177l509 746h177zM1145 126c0 -120 -87 -137 -203 -137c-119 0 -206 17 -206 137c0 50 16 81 50 103c-31 21 -49 49 -49 96c0 109 82 132 205 132c119 0 201 -23 201 -132c0 -47 -18 -75 -49 -96c34 -22 51 -53 51 -103zM997 130c0 44 -9 59 -40 59
h-35c-30 0 -39 -15 -39 -59c0 -43 20 -53 59 -53c36 0 55 10 55 53zM996 324c0 34 -17 44 -56 44c-35 0 -56 -10 -56 -44c0 -35 7 -52 38 -52h35c31 0 39 17 39 52zM396 652h-207l-6 -68h34c151 0 192 -40 192 -143c0 -110 -78 -148 -195 -148c-76 0 -139 11 -169 19v85
c45 -4 96 -8 132 -8c59 0 78 11 78 50c0 44 -15 53 -75 53h-134l24 259h326v-99z" />
    <glyph glyph-name="seveneighths" unicode="&#x215e;" horiz-adv-x="1099" 
d="M822 746l-508 -746h-177l509 746h176zM1055 126c0 -120 -87 -137 -203 -137c-119 0 -206 17 -206 137c0 50 16 81 50 103c-31 21 -49 49 -49 96c0 109 82 132 205 132c119 0 201 -23 201 -132c0 -47 -18 -75 -49 -96c34 -22 51 -53 51 -103zM907 130c0 44 -9 59 -40 59
h-35c-30 0 -39 -15 -39 -59c0 -43 20 -53 59 -53c36 0 55 10 55 53zM906 324c0 34 -17 44 -56 44c-35 0 -56 -10 -56 -44c0 -35 7 -52 38 -52h35c31 0 39 17 39 52zM49 652v99h364v-106l-204 -341h-159l212 348h-213z" />
    <glyph glyph-name="onethird" unicode="&#x2153;" horiz-adv-x="1125" 
d="M865 746l-508 -746h-176l508 746h176zM342 304h-292v95l69 4v220l-69 -22v107l113 44h109v-349l70 -4v-95zM722 354v81c31 11 104 22 170 22c121 0 196 -30 196 -132c0 -38 -15 -77 -53 -98c40 -19 53 -58 53 -102c0 -97 -60 -136 -196 -136c-66 0 -141 11 -170 21v82
c21 -1 104 -5 150 -5c47 0 66 6 66 46c0 35 -10 48 -63 48h-120v89h121c51 0 62 16 62 48c0 33 -15 41 -66 41c-53 0 -103 -3 -150 -5z" />
    <glyph glyph-name="twothirds" unicode="&#x2154;" horiz-adv-x="1211" 
d="M945 746l-508 -746h-177l509 746h176zM797 354v81c31 11 103 22 169 22c121 0 196 -30 196 -126v-6c0 -38 -14 -77 -52 -98c40 -19 52 -58 52 -94v-8c0 -97 -59 -136 -196 -136c-66 0 -140 11 -169 21v82c21 -1 104 -5 150 -5s66 6 66 46v7c0 28 -10 41 -63 41h-120v89
h121c51 0 62 16 62 43v5c0 33 -15 41 -66 41c-53 0 -103 -3 -150 -5zM50 659v82c47 14 122 20 174 20c135 0 191 -37 191 -123c0 -63 -36 -100 -133 -142c-81 -36 -90 -46 -90 -90h213v-102h-361v55c0 115 39 157 137 207c74 37 80 43 80 68c0 22 -14 31 -66 31
c-49 0 -124 -5 -145 -6z" />
    <glyph glyph-name="zero.superior" unicode="&#x2070;" horiz-adv-x="495" 
d="M453 551c0 -140 -61 -221 -206 -221s-205 81 -205 221v26c0 141 60 221 205 221s206 -80 206 -221v-26zM299 550v27c0 96 -19 114 -52 114s-51 -18 -51 -114v-27c0 -95 18 -113 51 -113s52 18 52 113z" />
    <glyph glyph-name="four.superior" unicode="&#x2074;" horiz-adv-x="479" 
d="M386 341h-151v92h-207v89l241 266h117v-261h57v-94h-57v-92zM244 527v117l-102 -117h102z" />
    <glyph glyph-name="five.superior" unicode="&#x2075;" horiz-adv-x="452" 
d="M396 689h-207l-6 -68h34c151 0 192 -40 192 -135v-8c0 -110 -78 -148 -195 -148c-76 0 -139 11 -169 19v85c45 -4 96 -8 132 -8c59 0 78 11 78 50v9c0 35 -15 44 -75 44h-134l24 259h326v-99z" />
    <glyph glyph-name="six.superior" unicode="&#x2076;" horiz-adv-x="477" 
d="M412 779v-85c-42 3 -102 6 -150 6c-64 0 -72 -18 -72 -67v-11c17 4 48 7 66 7c108 0 180 -24 180 -133v-15c0 -109 -78 -151 -196 -151c-155 0 -198 71 -198 192v82c0 117 31 194 198 194c71 0 142 -12 172 -19zM287 481v14c0 42 -14 52 -48 52c-13 0 -33 -1 -49 -5v-47
c0 -58 16 -73 50 -73c30 0 47 17 47 59z" />
    <glyph glyph-name="seven.superior" unicode="&#x2077;" horiz-adv-x="450" 
d="M49 689v99h364v-106l-204 -341h-159l212 348h-213z" />
    <glyph glyph-name="eight.superior" unicode="&#x2078;" horiz-adv-x="492" 
d="M451 467c0 -120 -87 -137 -203 -137c-119 0 -206 17 -206 137c0 50 16 81 50 103c-31 21 -49 49 -49 96c0 109 82 132 205 132c119 0 201 -23 201 -132c0 -47 -18 -75 -49 -96c34 -22 51 -53 51 -103zM303 471c0 44 -9 59 -40 59h-35c-30 0 -39 -15 -39 -59
c0 -43 20 -53 59 -53c36 0 55 10 55 53zM302 665c0 34 -17 44 -56 44c-35 0 -56 -10 -56 -44c0 -35 7 -52 38 -52h35c31 0 39 17 39 52z" />
    <glyph glyph-name="nine.superior" unicode="&#x2079;" horiz-adv-x="477" 
d="M65 348v86c44 -3 103 -7 155 -7c60 0 67 20 67 67v12c-18 -4 -47 -6 -66 -6c-107 0 -179 24 -179 132v14c0 108 78 152 196 152c154 0 198 -72 198 -192v-83c0 -116 -32 -193 -199 -193c-71 0 -142 10 -172 18zM287 586v47c0 57 -16 73 -50 73c-30 0 -47 -18 -47 -60v-13
c0 -42 14 -51 48 -51c13 0 33 1 49 4z" />
    <glyph glyph-name="zero.inferior" unicode="&#x2080;" horiz-adv-x="495" 
d="M453 7c0 -140 -61 -221 -206 -221s-205 81 -205 221v26c0 141 60 221 205 221s206 -80 206 -221v-26zM299 6v27c0 96 -19 114 -52 114s-51 -18 -51 -114v-27c0 -95 18 -113 51 -113s52 18 52 113z" />
    <glyph glyph-name="one.inferior" unicode="&#x2081;" horiz-adv-x="391" 
d="M342 -203h-292v95l69 4v220l-69 -22v107l113 44h109v-349l70 -4v-95z" />
    <glyph glyph-name="two.inferior" unicode="&#x2082;" horiz-adv-x="458" 
d="M50 152v82c47 14 122 20 174 20c135 0 191 -37 191 -123c0 -63 -36 -100 -133 -142c-81 -36 -90 -46 -90 -90h213v-102h-361v55c0 115 39 157 137 207c74 37 80 43 80 68c0 22 -14 31 -66 31c-49 0 -124 -5 -145 -6z" />
    <glyph glyph-name="three.inferior" unicode="&#x2083;" horiz-adv-x="454" 
d="M44 151v81c31 11 104 22 170 22c121 0 196 -30 196 -126v-6c0 -38 -15 -77 -53 -98c40 -19 53 -58 53 -94v-8c0 -97 -60 -136 -196 -136c-66 0 -141 11 -170 21v82c21 -1 104 -5 150 -5c47 0 66 6 66 46v7c0 28 -10 41 -63 41h-120v89h121c51 0 62 16 62 43v5
c0 33 -15 41 -66 41c-53 0 -103 -3 -150 -5z" />
    <glyph glyph-name="four.inferior" unicode="&#x2084;" horiz-adv-x="479" 
d="M386 -203h-151v92h-207v89l241 266h117v-261h57v-94h-57v-92zM244 -17v117l-102 -117h102z" />
    <glyph glyph-name="five.inferior" unicode="&#x2085;" horiz-adv-x="452" 
d="M396 145h-207l-6 -68h34c151 0 192 -40 192 -135v-8c0 -110 -78 -148 -195 -148c-76 0 -139 11 -169 19v85c45 -4 96 -8 132 -8c59 0 78 11 78 50v9c0 35 -15 44 -75 44h-134l24 259h326v-99z" />
    <glyph glyph-name="six.inferior" unicode="&#x2086;" horiz-adv-x="477" 
d="M412 235v-85c-42 3 -102 6 -150 6c-64 0 -72 -18 -72 -67v-11c17 4 48 7 66 7c108 0 180 -24 180 -133v-15c0 -109 -78 -151 -196 -151c-155 0 -198 71 -198 192v82c0 117 31 194 198 194c71 0 142 -12 172 -19zM287 -63v14c0 42 -14 52 -48 52c-13 0 -33 -1 -49 -5v-47
c0 -58 16 -73 50 -73c30 0 47 17 47 59z" />
    <glyph glyph-name="seven.inferior" unicode="&#x2087;" horiz-adv-x="450" 
d="M49 145v99h364v-106l-204 -341h-159l212 348h-213z" />
    <glyph glyph-name="eight.inferior" unicode="&#x2088;" horiz-adv-x="492" 
d="M451 -77c0 -120 -87 -137 -203 -137c-119 0 -206 17 -206 137c0 50 16 81 50 103c-31 21 -49 49 -49 96c0 109 82 132 205 132c119 0 201 -23 201 -132c0 -47 -18 -75 -49 -96c34 -22 51 -53 51 -103zM303 -73c0 44 -9 59 -40 59h-35c-30 0 -39 -15 -39 -59
c0 -43 20 -53 59 -53c36 0 55 10 55 53zM302 121c0 34 -17 44 -56 44c-35 0 -56 -10 -56 -44c0 -35 7 -52 38 -52h35c31 0 39 17 39 52z" />
    <glyph glyph-name="nine.inferior" unicode="&#x2089;" horiz-adv-x="477" 
d="M65 -196v86c44 -3 103 -7 155 -7c60 0 67 20 67 67v12c-18 -4 -47 -6 -66 -6c-107 0 -179 24 -179 132v14c0 108 78 152 196 152c154 0 198 -72 198 -192v-83c0 -116 -32 -193 -199 -193c-71 0 -142 10 -172 18zM287 42v47c0 57 -16 73 -50 73c-30 0 -47 -18 -47 -60v-13
c0 -42 14 -51 48 -51c13 0 33 1 49 4z" />
    <glyph glyph-name="cent.inferior" horiz-adv-x="415" 
d="M276 134c-59 0 -76 -20 -76 -99v-34c0 -78 16 -99 77 -99c26 0 72 2 99 4v-109c-19 -5 -49 -10 -82 -12v-81h-129v89c-81 22 -127 86 -127 208v34c0 116 42 185 127 207v85h129v-77c33 -2 65 -8 82 -12v-109c-37 3 -74 5 -100 5z" />
    <glyph glyph-name="dollar.inferior" horiz-adv-x="448" 
d="M49 -202v93c35 -2 92 -7 152 -7c45 0 59 13 59 34c0 19 -13 29 -50 42l-56 20c-70 25 -116 66 -116 140c0 71 40 111 122 125v84h130v-80c45 -3 85 -10 107 -15v-91c-69 5 -126 7 -155 7c-36 0 -60 -7 -60 -30c0 -17 11 -25 49 -37l54 -18c83 -28 124 -63 124 -138
c0 -76 -45 -124 -119 -139v-84h-130v81c-44 2 -84 8 -111 13z" />
    <glyph glyph-name="period.inferior" horiz-adv-x="227" 
d="M183 -147h-138v104h138v-104z" />
    <glyph glyph-name="comma.inferior" horiz-adv-x="259" 
d="M216 -43l-73 -171h-107l50 171h130z" />
    <glyph glyph-name="commaaccent" horiz-adv-x="470" 
d="M368 -60l-99 -140h-187l68 140h218z" />
    <glyph glyph-name="Abreve" unicode="&#x102;" horiz-adv-x="790" 
d="M771 0h-245l-40 165h-183l-42 -165h-242l188 743h373zM461 318l-44 189c-9 35 -15 76 -20 112h-5c-6 -36 -12 -77 -20 -112l-45 -189h134zM622 943c-16 -125 -136 -160 -227 -160c-90 0 -210 35 -227 160h118c9 -55 57 -69 109 -69c53 0 101 14 110 69h117z" />
    <glyph glyph-name="Amacron" unicode="&#x100;" horiz-adv-x="790" 
d="M771 0h-245l-40 165h-183l-42 -165h-242l188 743h373zM461 318l-44 189c-9 35 -15 76 -20 112h-5c-6 -36 -12 -77 -20 -112l-45 -189h134zM616 802h-442v112h442v-112z" />
    <glyph glyph-name="Aogonek" unicode="&#x104;" horiz-adv-x="790" 
d="M771 -197c-29 -8 -91 -21 -160 -21c-102 0 -162 32 -162 109c0 39 25 80 76 113l-39 161h-183l-42 -165h-242l188 743h373l191 -743c-112 -36 -137 -59 -137 -79c0 -21 14 -30 51 -30c30 0 61 3 86 5v-93zM461 318l-44 189c-9 35 -15 76 -20 112h-5
c-6 -36 -12 -77 -20 -112l-45 -189h134z" />
    <glyph glyph-name="Aringacute" unicode="&#x1fa;" horiz-adv-x="790" 
d="M771 0h-245l-40 165h-183l-42 -165h-242l188 743h373zM461 318l-44 189c-9 35 -15 76 -20 112h-5c-6 -36 -12 -77 -20 -112l-45 -189h134zM551 889c0 -80 -65 -127 -155 -127s-156 47 -156 127c0 81 66 127 156 127s155 -46 155 -127zM451 889c0 31 -23 46 -55 46
c-33 0 -55 -15 -55 -46c0 -30 22 -45 55 -45c32 0 55 15 55 45zM655 1175l-174 -142h-200l133 142h241z" />
    <glyph glyph-name="AEacute" unicode="&#x1fc;" horiz-adv-x="1064" 
d="M281 0h-238l180 743h798v-158h-305v-133h283v-148h-283v-147h305v-157h-538v165h-161zM483 317v300h-71c-6 -34 -13 -74 -21 -107l-45 -193h137zM861 932l-175 -143h-199l132 143h242z" />
    <glyph glyph-name="Cacute" unicode="&#x106;" horiz-adv-x="646" 
d="M613 4c-40 -12 -158 -22 -217 -22c-233 0 -350 83 -350 355v70c0 271 117 354 350 354c59 0 177 -11 217 -22v-157c-53 4 -124 8 -188 8c-95 0 -142 -29 -142 -183v-70c0 -156 47 -185 142 -185c64 0 135 4 188 8v-156zM635 932l-175 -143h-199l132 143h242z" />
    <glyph glyph-name="Ccaron" unicode="&#x10c;" horiz-adv-x="646" 
d="M613 4c-40 -12 -158 -22 -217 -22c-233 0 -350 83 -350 355v70c0 271 117 354 350 354c59 0 177 -11 217 -22v-157c-53 4 -124 8 -188 8c-95 0 -142 -29 -142 -183v-70c0 -156 47 -185 142 -185c64 0 135 4 188 8v-156zM112 932h184l78 -73l77 73h184l-135 -143h-253z
" />
    <glyph glyph-name="Ccircumflex" unicode="&#x108;" horiz-adv-x="646" 
d="M613 4c-40 -12 -158 -22 -217 -22c-233 0 -350 83 -350 355v70c0 271 117 354 350 354c59 0 177 -11 217 -22v-157c-53 4 -124 8 -188 8c-95 0 -142 -29 -142 -183v-70c0 -156 47 -185 142 -185c64 0 135 4 188 8v-156zM622 789h-184l-77 73l-78 -73h-183l135 143h252z
" />
    <glyph glyph-name="Cdotaccent" unicode="&#x10a;" horiz-adv-x="646" 
d="M613 4c-40 -12 -158 -22 -217 -22c-233 0 -350 83 -350 355v70c0 271 117 354 350 354c59 0 177 -11 217 -22v-157c-53 4 -124 8 -188 8c-95 0 -142 -29 -142 -183v-70c0 -156 47 -185 142 -185c64 0 135 4 188 8v-156zM489 796h-225v130h225v-130z" />
    <glyph glyph-name="Dcaron" unicode="&#x10e;" horiz-adv-x="770" 
d="M725 344c0 -257 -115 -357 -378 -357c-104 0 -179 4 -280 13v743c101 9 173 13 280 13c260 0 378 -100 378 -353v-59zM494 344v59c0 154 -32 188 -139 188h-60v-439h60c107 0 139 38 139 192zM116 931h184l77 -72l78 72h183l-134 -142h-253z" />
    <glyph glyph-name="Dcroat" unicode="&#x110;" horiz-adv-x="770" 
d="M725 344c0 -257 -115 -357 -378 -357c-97 0 -185 4 -280 13v307h-49v145h49v291c94 9 183 13 280 13c260 0 378 -100 378 -353v-59zM494 344v59c0 154 -32 188 -139 188h-60v-139h90v-145h-90v-155h60c107 0 139 38 139 192z" />
    <glyph glyph-name="Ebreve" unicode="&#x114;" horiz-adv-x="653" 
d="M607 0h-540v743h540v-158h-305v-133h283v-148h-283v-147h305v-157zM569 943c-16 -125 -136 -160 -227 -160c-90 0 -210 35 -227 160h118c9 -55 57 -69 109 -69c53 0 101 14 110 69h117z" />
    <glyph glyph-name="Ecaron" unicode="&#x11a;" horiz-adv-x="653" 
d="M607 0h-540v743h540v-158h-305v-133h283v-148h-283v-147h305v-157zM78 932h184l77 -73l78 73h183l-134 -143h-253z" />
    <glyph glyph-name="Edotaccent" unicode="&#x116;" horiz-adv-x="653" 
d="M607 0h-540v743h540v-158h-305v-133h283v-148h-283v-147h305v-157zM446 796h-225v130h225v-130z" />
    <glyph glyph-name="Emacron" unicode="&#x112;" horiz-adv-x="653" 
d="M607 0h-540v743h540v-158h-305v-133h283v-148h-283v-147h305v-157zM562 802h-442v112h442v-112z" />
    <glyph glyph-name="Eng" unicode="&#x14a;" horiz-adv-x="812" 
d="M745 -8c0 -148 -73 -205 -221 -205c-36 0 -84 3 -112 10v129h47c45 0 51 14 51 56v55l-182 290c-22 35 -35 63 -49 92h-2c1 -34 2 -70 2 -106v-313h-212v743h221l195 -300c23 -34 37 -65 51 -96h2c-2 26 -3 69 -3 113v283h212v-751z" />
    <glyph glyph-name="Eogonek" unicode="&#x118;" horiz-adv-x="653" 
d="M607 -197c-29 -8 -91 -21 -160 -21c-103 0 -162 32 -162 100c0 49 40 93 135 118h-353v743h540v-158h-305v-133h283v-148h-283v-147h305v-157c-113 -36 -138 -59 -138 -79c0 -21 15 -30 51 -30c30 0 61 3 87 5v-93z" />
    <glyph glyph-name="Gbreve" unicode="&#x11e;" horiz-adv-x="740" 
d="M681 7c-63 -12 -174 -25 -291 -25c-182 0 -344 57 -344 354v71c0 313 181 354 350 354c112 0 233 -19 282 -31v-148c-56 3 -168 8 -235 8c-113 0 -167 -20 -167 -183v-71c0 -146 34 -185 120 -185c24 0 50 0 70 2v254h215v-400zM618 949c-16 -125 -136 -160 -227 -160
c-90 0 -211 35 -227 160h118c9 -55 57 -69 109 -69c53 0 101 14 110 69h117z" />
    <glyph glyph-name="Gcircumflex" unicode="&#x11c;" horiz-adv-x="740" 
d="M681 7c-63 -12 -174 -25 -291 -25c-182 0 -344 57 -344 354v71c0 313 181 354 350 354c112 0 233 -19 282 -31v-148c-56 3 -168 8 -235 8c-113 0 -167 -20 -167 -183v-71c0 -146 34 -185 120 -185c24 0 50 0 70 2v254h215v-400zM635 789h-183l-78 73l-77 -73h-184
l135 143h253z" />
    <glyph glyph-name="Gcommaaccent" unicode="&#x122;" horiz-adv-x="740" 
d="M681 7c-63 -12 -174 -25 -291 -25c-182 0 -344 57 -344 354v71c0 313 181 354 350 354c112 0 233 -19 282 -31v-148c-56 3 -168 8 -235 8c-113 0 -167 -20 -167 -183v-71c0 -146 34 -185 120 -185c24 0 50 0 70 2v254h215v-400zM509 -60l-98 -140h-187l67 140h218z" />
    <glyph glyph-name="Gdotaccent" unicode="&#x120;" horiz-adv-x="740" 
d="M681 7c-63 -12 -174 -25 -291 -25c-182 0 -344 57 -344 354v71c0 313 181 354 350 354c112 0 233 -19 282 -31v-148c-56 3 -168 8 -235 8c-113 0 -167 -20 -167 -183v-71c0 -146 34 -185 120 -185c24 0 50 0 70 2v254h215v-400zM491 796h-225v130h225v-130z" />
    <glyph glyph-name="Hbar" unicode="&#x126;" horiz-adv-x="838" 
d="M7 558v83h60v102h235v-102h233v102h236v-102h57v-83h-57v-558h-236v298h-233v-298h-235v558h-60zM302 464h233v94h-233v-94z" />
    <glyph glyph-name="Hcircumflex" unicode="&#x124;" horiz-adv-x="838" 
d="M771 0h-236v298h-233v-298h-235v743h235v-279h233v279h236v-743zM681 789h-184l-77 72l-78 -72h-184l135 142h253z" />
    <glyph glyph-name="Ibreve" unicode="&#x12c;" horiz-adv-x="369" 
d="M302 0h-235v743h235v-743zM412 950c-16 -125 -136 -161 -227 -161c-90 0 -211 36 -227 161h118c9 -56 57 -69 109 -69c53 0 101 13 110 69h117z" />
    <glyph glyph-name="IJ" unicode="&#x132;" horiz-adv-x="772" 
d="M310 0h-235v743h235v-743zM696 -8c0 -148 -72 -205 -220 -205c-36 0 -85 3 -112 10v131c17 -1 32 -2 47 -2c45 0 51 14 51 56v761h234v-751z" />
    <glyph glyph-name="Imacron" unicode="&#x12a;" horiz-adv-x="369" 
d="M302 0h-235v743h235v-743zM406 802h-442v112h442v-112z" />
    <glyph glyph-name="Iogonek" unicode="&#x12e;" horiz-adv-x="369" 
d="M302 0c-89 -29 -98 -54 -98 -78c0 -22 14 -31 51 -31c30 0 61 3 86 5v-93c-29 -8 -91 -21 -160 -21c-102 0 -161 32 -161 113c0 33 10 73 47 108v740h235v-743z" />
    <glyph glyph-name="Itilde" unicode="&#x128;" horiz-adv-x="369" 
d="M302 0h-235v743h235v-743zM425 930c0 -111 -63 -145 -129 -145c-28 0 -61 7 -106 27l-50 23c-22 10 -38 17 -53 17c-23 0 -29 -14 -29 -42v-21h-116v21c0 111 65 145 135 145c31 0 55 -6 99 -26l50 -22c23 -11 38 -19 56 -19c23 0 29 13 29 42v20h114v-20z" />
    <glyph glyph-name="Jcircumflex" unicode="&#x134;" horiz-adv-x="368" 
d="M301 -8c0 -148 -72 -205 -220 -205c-36 0 -85 3 -112 10l11 140c12 -4 23 -8 36 -11c45 0 51 14 51 56v761h234v-751zM446 789h-184l-77 73l-78 -73h-184l135 143h253z" />
    <glyph glyph-name="Kcommaaccent" unicode="&#x136;" horiz-adv-x="791" 
d="M788 0h-276l-208 340v-340h-235v743h235v-341l222 341h266l-249 -368zM535 -60l-99 -140h-187l68 140h218z" />
    <glyph glyph-name="Lacute" unicode="&#x139;" horiz-adv-x="597" 
d="M569 0h-502v743h235v-579h267v-164zM561 932l-175 -143h-199l132 143h242z" />
    <glyph glyph-name="Lcaron" unicode="&#x13d;" horiz-adv-x="636" 
d="M569 0h-502v743h235v-579h267v-164zM630 754l-106 -267h-147l66 267h187z" />
    <glyph glyph-name="Lcommaaccent" unicode="&#x13b;" horiz-adv-x="597" 
d="M569 0h-502v743h235v-579h267v-164zM442 -60l-99 -140h-187l68 140h218z" />
    <glyph glyph-name="Ldot" unicode="&#x13f;" horiz-adv-x="597" 
d="M569 0h-502v743h235v-579h267v-164zM578 348h-202v175h202v-175z" />
    <glyph glyph-name="Nacute" unicode="&#x143;" horiz-adv-x="812" 
d="M745 0h-227l-190 327c-18 30 -35 63 -49 92h-3c2 -34 2 -71 2 -106v-313h-211v743h221l195 -323c19 -29 37 -65 51 -96h2c-3 26 -4 69 -4 113v306h213v-743zM666 932l-175 -143h-199l132 143h242z" />
    <glyph glyph-name="Ncaron" unicode="&#x147;" horiz-adv-x="812" 
d="M745 0h-227l-190 327c-18 30 -35 63 -49 92h-3c2 -34 2 -71 2 -106v-313h-211v743h221l195 -323c19 -29 37 -65 51 -96h2c-3 26 -4 69 -4 113v306h213v-743zM146 932h184l77 -73l78 73h183l-134 -143h-253z" />
    <glyph glyph-name="Ncommaaccent" unicode="&#x145;" horiz-adv-x="812" 
d="M745 0h-227l-190 327c-18 30 -35 63 -49 92h-3c2 -34 2 -71 2 -106v-313h-211v743h221l195 -323c19 -29 37 -65 51 -96h2c-3 26 -4 69 -4 113v306h213v-743zM531 -60l-99 -140h-187l68 140h218z" />
    <glyph glyph-name="Obreve" unicode="&#x14e;" horiz-adv-x="776" 
d="M730 339c0 -275 -145 -357 -342 -357s-342 82 -342 357v64c0 277 148 358 342 358s342 -81 342 -358v-64zM500 340v63c0 144 -36 188 -112 188c-77 0 -112 -44 -112 -188v-63c0 -147 38 -188 112 -188s112 41 112 188zM615 943c-16 -125 -136 -161 -227 -161
s-211 36 -228 161h119c9 -55 57 -69 109 -69c53 0 100 14 110 69h117z" />
    <glyph glyph-name="Ohungarumlaut" unicode="&#x150;" horiz-adv-x="776" 
d="M730 339c0 -275 -145 -357 -342 -357s-342 82 -342 357v64c0 277 148 358 342 358s342 -81 342 -358v-64zM500 340v63c0 144 -36 188 -112 188c-77 0 -112 -44 -112 -188v-63c0 -147 38 -188 112 -188s112 41 112 188zM796 931l-175 -142h-180l133 142h222zM266 931h222
l-175 -142h-180z" />
    <glyph glyph-name="Omacron" unicode="&#x14c;" horiz-adv-x="776" 
d="M730 339c0 -275 -145 -357 -342 -357s-342 82 -342 357v64c0 277 148 358 342 358s342 -81 342 -358v-64zM500 340v63c0 144 -36 188 -112 188c-77 0 -112 -44 -112 -188v-63c0 -147 38 -188 112 -188s112 41 112 188zM608 802h-441v112h441v-112z" />
    <glyph glyph-name="Oslashacute" unicode="&#x1fe;" horiz-adv-x="776" 
d="M730 339c0 -275 -145 -357 -342 -357c-66 0 -126 10 -176 31l-33 -46h-150l85 121c-43 56 -68 137 -68 251v64c0 277 148 358 342 358c66 0 126 -10 177 -33l34 48h149l-86 -123c43 -55 68 -136 68 -250v-64zM276 340v-22l179 253c-17 14 -40 20 -67 20
c-77 0 -112 -44 -112 -188v-63zM500 340v63v20l-178 -253c17 -13 39 -18 66 -18c74 0 112 41 112 188zM657 933l-174 -143h-199l132 143h241z" />
    <glyph glyph-name="Racute" unicode="&#x154;" horiz-adv-x="758" 
d="M750 0h-228l-140 255h-43h-48v-255h-224v743c81 6 164 12 273 12c193 0 362 -36 362 -248v-6c0 -107 -40 -166 -107 -205zM476 497v6c0 71 -34 89 -128 89h-58v-187h61c92 0 125 24 125 92zM620 932l-174 -143h-200l133 143h241z" />
    <glyph glyph-name="Rcaron" unicode="&#x158;" horiz-adv-x="758" 
d="M750 0h-228l-140 255h-43h-48v-255h-224v743c81 6 164 12 273 12c193 0 362 -36 362 -248v-6c0 -107 -40 -166 -107 -205zM476 497v6c0 71 -34 89 -128 89h-58v-187h61c92 0 125 24 125 92zM112 931h184l77 -72l78 72h183l-134 -142h-253z" />
    <glyph glyph-name="Rcommaaccent" unicode="&#x156;" horiz-adv-x="758" 
d="M750 0h-228l-140 255h-43h-48v-255h-224v743c81 6 164 12 273 12c193 0 362 -36 362 -248v-6c0 -107 -40 -166 -107 -205zM476 497v6c0 71 -34 89 -128 89h-58v-187h61c92 0 125 24 125 92zM511 -60l-98 -140h-187l67 140h218z" />
    <glyph glyph-name="Sacute" unicode="&#x15a;" horiz-adv-x="677" 
d="M583 932l-174 -143h-199l132 143h241zM635 216c0 -165 -116 -234 -294 -234c-112 0 -221 12 -279 24v144c67 -5 134 -12 245 -12c69 0 96 21 96 65c0 34 -17 47 -82 74l-98 42c-110 46 -181 96 -181 227c0 156 112 215 313 215c103 0 191 -16 242 -27v-140
c-81 7 -141 13 -229 13c-65 0 -98 -12 -98 -53c0 -30 17 -43 79 -68l95 -38c134 -53 191 -112 191 -232z" />
    <glyph glyph-name="Scedilla" unicode="&#x15e;" horiz-adv-x="677" 
d="M479 -60l-129 -140h-194l100 140h223zM635 216c0 -165 -116 -234 -294 -234c-112 0 -221 12 -279 24v144c67 -5 134 -12 245 -12c69 0 96 21 96 65c0 34 -17 47 -82 74l-98 42c-110 46 -181 96 -181 227c0 156 112 215 313 215c103 0 191 -16 242 -27v-140
c-81 7 -141 13 -229 13c-65 0 -98 -12 -98 -53c0 -30 17 -43 79 -68l95 -38c134 -53 191 -112 191 -232z" />
    <glyph glyph-name="Scircumflex" unicode="&#x15c;" horiz-adv-x="677" 
d="M597 789h-184l-77 73l-78 -73h-183l135 143h253zM635 216c0 -165 -116 -234 -294 -234c-112 0 -221 12 -279 24v144c67 -5 134 -12 245 -12c69 0 96 21 96 65c0 34 -17 47 -82 74l-98 42c-110 46 -181 96 -181 227c0 156 112 215 313 215c103 0 191 -16 242 -27v-140
c-81 7 -141 13 -229 13c-65 0 -98 -12 -98 -53c0 -30 17 -43 79 -68l95 -38c134 -53 191 -112 191 -232z" />
    <glyph glyph-name="Scommaaccent" unicode="&#x218;" horiz-adv-x="677" 
d="M471 -60l-99 -140h-187l68 140h218zM635 216c0 -165 -116 -234 -294 -234c-112 0 -221 12 -279 24v144c67 -5 134 -12 245 -12c69 0 96 21 96 65c0 34 -17 47 -82 74l-98 42c-110 46 -181 96 -181 227c0 156 112 215 313 215c103 0 191 -16 242 -27v-140
c-81 7 -141 13 -229 13c-65 0 -98 -12 -98 -53c0 -30 17 -43 79 -68l95 -38c134 -53 191 -112 191 -232z" />
    <glyph glyph-name="Tbar" unicode="&#x166;" horiz-adv-x="701" 
d="M677 585h-209v-125h177v-123h-177v-337h-235v337h-178v123h178v125h-209v158h653v-158z" />
    <glyph glyph-name="Tcaron" unicode="&#x164;" horiz-adv-x="701" 
d="M677 585h-209v-585h-235v585h-209v158h653v-158zM89 931h184l77 -72l78 72h183l-134 -142h-253z" />
    <glyph glyph-name="Tcedilla" unicode="&#x162;" horiz-adv-x="701" 
d="M677 585h-209v-585h-235v585h-209v158h653v-158zM470 -60l-99 -140h-187l68 140h218z" />
    <glyph glyph-name="Tcommaaccent" unicode="&#x21a;" horiz-adv-x="701" 
d="M677 585h-209v-585h-235v585h-209v158h653v-158zM470 -60l-99 -140h-187l68 140h218z" />
    <glyph glyph-name="Ubreve" unicode="&#x16c;" horiz-adv-x="796" 
d="M734 298c0 -214 -127 -316 -336 -316c-210 0 -336 102 -336 316v445h231v-442c0 -113 21 -154 105 -154s105 41 105 154v442h231v-445zM625 940c-16 -125 -136 -161 -227 -161c-90 0 -210 36 -227 161h118c9 -56 57 -69 109 -69c53 0 101 13 110 69h117z" />
    <glyph glyph-name="Uhungarumlaut" unicode="&#x170;" horiz-adv-x="796" 
d="M734 298c0 -214 -127 -316 -336 -316c-210 0 -336 102 -336 316v445h231v-442c0 -113 21 -154 105 -154s105 41 105 154v442h231v-445zM807 932l-175 -143h-179l132 143h222zM277 932h222l-175 -143h-179z" />
    <glyph glyph-name="Umacron" unicode="&#x16a;" horiz-adv-x="796" 
d="M734 298c0 -214 -127 -316 -336 -316c-210 0 -336 102 -336 316v445h231v-442c0 -113 21 -154 105 -154s105 41 105 154v442h231v-445zM619 802h-442v112h442v-112z" />
    <glyph glyph-name="Uogonek" unicode="&#x172;" horiz-adv-x="796" 
d="M734 298c0 -170 -80 -269 -218 -302c-76 -30 -95 -58 -95 -75c0 -21 14 -30 51 -30c30 0 61 3 86 5v-93c-29 -8 -91 -21 -160 -21c-102 0 -161 32 -161 100c0 38 24 78 80 106c-161 24 -255 125 -255 310v445h231v-442c0 -113 21 -154 105 -154s105 41 105 154v442h231
v-445z" />
    <glyph glyph-name="Uring" unicode="&#x16e;" horiz-adv-x="796" 
d="M734 298c0 -214 -127 -316 -336 -316c-210 0 -336 102 -336 316v445h231v-442c0 -113 21 -154 105 -154s105 41 105 154v442h231v-445zM554 902c0 -80 -65 -126 -155 -126s-156 46 -156 126c0 81 66 128 156 128s155 -47 155 -128zM454 903c0 31 -23 46 -55 46
c-33 0 -55 -15 -55 -46c0 -30 22 -46 55 -46c32 0 55 16 55 46z" />
    <glyph glyph-name="Utilde" unicode="&#x168;" horiz-adv-x="796" 
d="M734 298c0 -214 -127 -316 -336 -316c-210 0 -336 102 -336 316v445h231v-442c0 -113 21 -154 105 -154s105 41 105 154v442h231v-445zM640 930c0 -111 -63 -145 -129 -145c-28 0 -61 7 -106 27l-50 23c-22 10 -38 17 -53 17c-23 0 -29 -14 -29 -42v-21h-115v21
c0 111 64 145 134 145c31 0 55 -6 99 -26l51 -22c22 -11 37 -19 56 -19c22 0 28 13 28 42v20h114v-20z" />
    <glyph glyph-name="Wacute" unicode="&#x1e82;" horiz-adv-x="1043" 
d="M1010 743l-120 -743h-267l-80 310c-9 33 -16 74 -21 104h-2c-5 -30 -12 -71 -21 -104l-79 -310h-268l-119 743h230l49 -360c5 -48 11 -98 14 -138h3c9 41 18 86 29 125l55 221h218l55 -223c9 -38 20 -83 28 -123h3c4 41 9 89 15 138l49 360h229zM779 932l-174 -143h-199
l132 143h241z" />
    <glyph glyph-name="Wcircumflex" unicode="&#x174;" horiz-adv-x="1043" 
d="M1010 743l-120 -743h-267l-80 310c-9 33 -16 74 -21 104h-2c-5 -30 -12 -71 -21 -104l-79 -310h-268l-119 743h230l49 -360c5 -48 11 -98 14 -138h3c9 41 18 86 29 125l55 221h218l55 -223c9 -38 20 -83 28 -123h3c4 41 9 89 15 138l49 360h229zM783 789h-184l-77 73
l-78 -73h-183l135 143h252z" />
    <glyph glyph-name="Wdieresis" unicode="&#x1e84;" horiz-adv-x="1043" 
d="M1010 743l-120 -743h-267l-80 310c-9 33 -16 74 -21 104h-2c-5 -30 -12 -71 -21 -104l-79 -310h-268l-119 743h230l49 -360c5 -48 11 -98 14 -138h3c9 41 18 86 29 125l55 221h218l55 -223c9 -38 20 -83 28 -123h3c4 41 9 89 15 138l49 360h229zM740 796h-169v131h169
v-131zM473 927v-131h-170v131h170z" />
    <glyph glyph-name="Wgrave" unicode="&#x1e80;" horiz-adv-x="1043" 
d="M1010 743l-120 -743h-267l-80 310c-9 33 -16 74 -21 104h-2c-5 -30 -12 -71 -21 -104l-79 -310h-268l-119 743h230l49 -360c5 -48 11 -98 14 -138h3c9 41 18 86 29 125l55 221h218l55 -223c9 -38 20 -83 28 -123h3c4 41 9 89 15 138l49 360h229zM646 789h-199l-175 143
h242z" />
    <glyph glyph-name="Ycircumflex" unicode="&#x176;" horiz-adv-x="745" 
d="M734 743l-248 -486v-257h-227v257l-248 486h235l83 -177c14 -34 30 -76 42 -113h4c12 36 30 79 44 113l83 177h232zM635 789h-184l-77 73l-78 -73h-184l135 143h253z" />
    <glyph glyph-name="Ygrave" unicode="&#x1ef2;" horiz-adv-x="745" 
d="M734 743l-248 -486v-257h-227v257l-248 486h235l83 -177c14 -34 30 -76 42 -113h4c12 36 30 79 44 113l83 177h232zM510 789h-199l-175 142h242z" />
    <glyph glyph-name="Zacute" unicode="&#x179;" horiz-adv-x="674" 
d="M625 0h-576v159l295 422h-288v162h563v-162l-295 -419h301v-162zM606 932l-175 -143h-199l132 143h242z" />
    <glyph glyph-name="Zdotaccent" unicode="&#x17b;" horiz-adv-x="674" 
d="M625 0h-576v159l295 422h-288v162h563v-162l-295 -419h301v-162zM450 796h-226v130h226v-130z" />
    <glyph glyph-name="Idotaccent" unicode="&#x130;" horiz-adv-x="369" 
d="M302 0h-235v743h235v-743zM297 796h-225v130h225v-130z" />
    <glyph glyph-name="abreve" unicode="&#x103;" horiz-adv-x="642" 
d="M584 0h-196v37c-39 -26 -108 -52 -182 -52c-109 0 -168 58 -168 165v24c0 156 125 170 291 170h38v29c0 59 -13 71 -92 71c-46 0 -126 -3 -192 -10v121c40 13 139 38 242 38c175 0 259 -54 259 -220v-373zM377 133v113h-46c-61 0 -89 -7 -89 -63v-21c0 -39 21 -50 52 -50
c34 0 67 13 83 21zM553 796c-16 -126 -136 -161 -227 -161c-90 0 -211 35 -227 161h118c9 -56 57 -70 109 -70c53 0 101 14 110 70h117z" />
    <glyph glyph-name="amacron" unicode="&#x101;" horiz-adv-x="642" 
d="M584 0h-196v37c-39 -26 -108 -52 -182 -52c-109 0 -168 58 -168 165v24c0 156 125 170 291 170h38v29c0 59 -13 71 -92 71c-46 0 -126 -3 -192 -10v121c40 13 139 38 242 38c175 0 259 -54 259 -220v-373zM377 133v113h-46c-61 0 -89 -7 -89 -63v-21c0 -39 21 -50 52 -50
c34 0 67 13 83 21zM544 652h-442v111h442v-111z" />
    <glyph glyph-name="aogonek" unicode="&#x105;" horiz-adv-x="642" 
d="M584 -197c-29 -8 -91 -21 -160 -21c-103 0 -162 32 -162 95c0 52 41 90 126 118v52c-39 -26 -98 -62 -182 -62c-109 0 -168 58 -168 165v24c0 156 125 170 291 170h38v29c0 59 -13 71 -92 71c-46 0 -126 -3 -192 -10v121c40 13 139 38 242 38c175 0 259 -54 259 -220
v-373c-113 -36 -138 -59 -138 -79c0 -21 15 -30 51 -30c30 0 61 3 87 5v-93zM377 133v113h-46c-61 0 -89 -7 -89 -63v-21c0 -39 21 -50 52 -50c34 0 67 13 83 21z" />
    <glyph glyph-name="aringacute" unicode="&#x1fb;" horiz-adv-x="642" 
d="M584 0h-196v37c-39 -26 -108 -52 -182 -52c-109 0 -168 58 -168 165v24c0 156 125 170 291 170h38v29c0 59 -13 71 -92 71c-46 0 -126 -3 -192 -10v121c40 13 139 38 242 38c175 0 259 -54 259 -220v-373zM377 133v113h-46c-61 0 -89 -7 -89 -63v-21c0 -39 21 -50 52 -50
c34 0 67 13 83 21zM483 741c0 -80 -65 -126 -155 -126s-156 46 -156 126c0 81 66 127 156 127s155 -46 155 -127zM383 742c0 30 -22 45 -55 45c-32 0 -55 -15 -55 -45s22 -46 55 -46s55 16 55 46zM600 1026l-175 -143h-199l132 143h242z" />
    <glyph glyph-name="aeacute" unicode="&#x1fd;" horiz-adv-x="990" 
d="M923 10c-49 -11 -149 -25 -250 -25c-99 0 -179 20 -228 67c-77 -52 -147 -67 -239 -67c-109 0 -168 58 -168 165v24c0 156 125 170 291 170h37v29c0 54 -8 71 -91 71c-51 0 -118 -3 -192 -9v120c40 13 139 38 242 38c84 0 133 -13 171 -38c41 24 95 38 167 38
c239 0 290 -153 290 -289v-67h-372v-8c0 -65 7 -101 116 -101c62 0 166 3 226 8v-126zM745 339v8c0 61 -14 104 -83 104c-68 0 -81 -44 -81 -104v-8h164zM375 133v113h-44c-61 0 -89 -7 -89 -63v-21c0 -39 21 -50 51 -50c35 0 67 13 82 21zM767 780l-174 -143h-200l133 143
h241z" />
    <glyph glyph-name="cacute" unicode="&#x107;" horiz-adv-x="560" 
d="M521 8c-40 -10 -110 -23 -206 -23c-188 0 -272 91 -272 276v57c0 188 84 275 272 275c96 0 166 -14 206 -23v-139c-79 4 -128 7 -165 7c-68 0 -98 -19 -98 -120v-57c0 -102 30 -122 98 -122c37 0 86 3 165 7v-138zM567 780l-174 -143h-200l133 143h241z" />
    <glyph glyph-name="ccaron" unicode="&#x10d;" horiz-adv-x="560" 
d="M521 8c-40 -10 -110 -23 -206 -23c-188 0 -272 91 -272 276v57c0 188 84 275 272 275c96 0 166 -14 206 -23v-139c-79 4 -128 7 -165 7c-68 0 -98 -19 -98 -120v-57c0 -102 30 -122 98 -122c37 0 86 3 165 7v-138zM45 780h184l77 -72l78 72h183l-134 -143h-253z" />
    <glyph glyph-name="ccircumflex" unicode="&#x109;" horiz-adv-x="560" 
d="M521 8c-40 -10 -110 -23 -206 -23c-188 0 -272 91 -272 276v57c0 188 84 275 272 275c96 0 166 -14 206 -23v-139c-79 4 -128 7 -165 7c-68 0 -98 -19 -98 -120v-57c0 -102 30 -122 98 -122c37 0 86 3 165 7v-138zM574 637h-184l-77 73l-78 -73h-183l135 143h252z" />
    <glyph glyph-name="cdotaccent" unicode="&#x10b;" horiz-adv-x="560" 
d="M521 8c-40 -10 -110 -23 -206 -23c-188 0 -272 91 -272 276v57c0 188 84 275 272 275c96 0 166 -14 206 -23v-139c-79 4 -128 7 -165 7c-68 0 -98 -19 -98 -120v-57c0 -102 30 -122 98 -122c37 0 86 3 165 7v-138zM423 650h-225v130h225v-130z" />
    <glyph glyph-name="dcaron" unicode="&#x10f;" horiz-adv-x="896" 
d="M628 0h-198v30c-42 -26 -96 -45 -166 -45c-140 0 -221 87 -221 273v60c0 200 98 275 275 275c39 0 67 -2 93 -6v195h217v-782zM413 153v281c-22 4 -49 6 -67 6c-62 0 -88 -19 -88 -122v-60c0 -91 19 -119 81 -119c25 0 53 6 74 14zM916 782l-97 -267h-152l63 267h186z
" />
    <glyph glyph-name="dcroat" unicode="&#x111;" horiz-adv-x="712" 
d="M411 782h217v-52h54v-87h-54v-643h-198v30c-42 -26 -96 -45 -166 -45c-140 0 -221 87 -221 273v60c0 200 98 275 275 275c39 0 67 -2 93 -6v56h-164v87h164v52zM413 153v281c-22 4 -49 6 -67 6c-62 0 -88 -19 -88 -122v-60c0 -91 19 -119 81 -119c27 0 54 6 74 14z" />
    <glyph glyph-name="ebreve" unicode="&#x115;" horiz-adv-x="665" 
d="M628 237h-371v-8c0 -66 8 -94 116 -94c57 0 107 2 225 7v-131c-48 -11 -134 -26 -235 -26c-217 0 -320 67 -320 289v26c0 210 104 293 295 293c241 0 290 -152 290 -307v-49zM420 339v8c0 61 -13 104 -82 104c-68 0 -81 -44 -81 -104v-8h163zM560 795
c-16 -125 -136 -160 -227 -160c-90 0 -210 35 -227 160h118c9 -55 57 -69 109 -69c53 0 101 14 110 69h117z" />
    <glyph glyph-name="ecaron" unicode="&#x11b;" horiz-adv-x="665" 
d="M628 237h-371v-8c0 -66 8 -94 116 -94c57 0 107 2 225 7v-131c-48 -11 -134 -26 -235 -26c-217 0 -320 67 -320 289v26c0 210 104 293 295 293c241 0 290 -152 290 -307v-49zM420 339v8c0 61 -13 104 -82 104c-68 0 -81 -44 -81 -104v-8h163zM76 780h184l77 -72l78 72
h183l-134 -143h-253z" />
    <glyph glyph-name="edotaccent" unicode="&#x117;" horiz-adv-x="665" 
d="M628 237h-371v-8c0 -66 8 -94 116 -94c57 0 107 2 225 7v-131c-48 -11 -134 -26 -235 -26c-217 0 -320 67 -320 289v26c0 210 104 293 295 293c241 0 290 -152 290 -307v-49zM420 339v8c0 61 -13 104 -82 104c-68 0 -81 -44 -81 -104v-8h163zM444 650h-225v130h225v-130z
" />
    <glyph glyph-name="emacron" unicode="&#x113;" horiz-adv-x="665" 
d="M628 237h-371v-8c0 -66 8 -94 116 -94c57 0 107 2 225 7v-131c-48 -11 -134 -26 -235 -26c-217 0 -320 67 -320 289v26c0 210 104 293 295 293c241 0 290 -152 290 -307v-49zM420 339v8c0 61 -13 104 -82 104c-68 0 -81 -44 -81 -104v-8h163zM552 652h-441v111h441v-111z
" />
    <glyph glyph-name="eng" unicode="&#x14b;" horiz-adv-x="709" 
d="M64 578h201v-47c55 37 122 62 193 62c180 0 191 -109 191 -228v-386c0 -147 -62 -194 -206 -194c-45 0 -92 5 -115 10v127c22 -1 37 -1 58 -1c38 0 46 12 46 58v386c0 57 -11 76 -55 76c-26 0 -60 -10 -96 -26v-415h-217v578z" />
    <glyph glyph-name="eogonek" unicode="&#x119;" horiz-adv-x="665" 
d="M628 237h-371v-8c0 -66 8 -94 116 -94c57 0 107 2 225 7v-131c-112 -36 -137 -70 -137 -90c0 -21 14 -30 51 -30c30 0 61 3 86 5v-93c-29 -8 -91 -21 -160 -21c-102 0 -161 32 -161 100c0 37 22 75 73 103c-208 3 -307 71 -307 289v26c0 210 104 293 295 293
c241 0 290 -152 290 -307v-49zM420 339v8c0 61 -13 104 -82 104c-68 0 -81 -44 -81 -104v-8h163z" />
    <glyph glyph-name="gbreve" unicode="&#x11f;" horiz-adv-x="693" 
d="M629 -9c0 -132 -72 -205 -296 -205c-123 0 -233 20 -254 26v119c67 -3 165 -9 232 -9c92 0 103 20 103 69v15c-19 -2 -54 -6 -81 -6c-185 0 -287 84 -287 269v54c0 189 101 270 331 270c92 0 181 -7 252 -15v-587zM415 157v279c-11 2 -34 4 -62 4c-74 0 -92 -34 -92 -118
v-53c0 -83 22 -116 91 -116c24 0 52 2 63 4zM575 795c-16 -125 -136 -160 -227 -160s-211 35 -228 160h119c9 -55 57 -69 109 -69c53 0 100 14 110 69h117z" />
    <glyph glyph-name="gcircumflex" unicode="&#x11d;" horiz-adv-x="693" 
d="M629 -9c0 -132 -72 -205 -296 -205c-123 0 -233 20 -254 26v119c67 -3 165 -9 232 -9c92 0 103 20 103 69v15c-19 -2 -54 -6 -81 -6c-185 0 -287 84 -287 269v54c0 189 101 270 331 270c92 0 181 -7 252 -15v-587zM415 157v279c-11 2 -34 4 -62 4c-74 0 -92 -34 -92 -118
v-53c0 -83 22 -116 91 -116c24 0 52 2 63 4zM609 637h-184l-77 73l-78 -73h-183l135 143h252z" />
    <glyph glyph-name="gcommaaccent" unicode="&#x123;" horiz-adv-x="693" 
d="M629 -9c0 -132 -72 -205 -296 -205c-123 0 -233 20 -254 26v119c67 -3 165 -9 232 -9c92 0 103 20 103 69v15c-19 -2 -54 -6 -81 -6c-185 0 -287 84 -287 269v54c0 189 101 270 331 270c92 0 181 -7 252 -15v-587zM415 157v279c-11 2 -34 4 -62 4c-74 0 -92 -34 -92 -118
v-53c0 -83 22 -116 91 -116c24 0 52 2 63 4zM253 637l99 139h187l-68 -139h-218z" />
    <glyph glyph-name="gdotaccent" unicode="&#x121;" horiz-adv-x="693" 
d="M629 -9c0 -132 -72 -205 -296 -205c-123 0 -233 20 -254 26v119c67 -3 165 -9 232 -9c92 0 103 20 103 69v15c-19 -2 -54 -6 -81 -6c-185 0 -287 84 -287 269v54c0 189 101 270 331 270c92 0 181 -7 252 -15v-587zM415 157v279c-11 2 -34 4 -62 4c-74 0 -92 -34 -92 -118
v-53c0 -83 22 -116 91 -116c24 0 52 2 63 4zM461 650h-226v130h226v-130z" />
    <glyph glyph-name="hbar" unicode="&#x127;" horiz-adv-x="712" 
d="M10 644v86h54v52h216v-52h165v-86h-165v-88c48 23 111 37 167 37c177 0 202 -101 202 -228v-365h-217v364c0 60 -15 77 -59 77c-35 0 -71 -12 -93 -22v-419h-216v644h-54z" />
    <glyph glyph-name="hcircumflex" unicode="&#x125;" horiz-adv-x="712" 
d="M649 0h-217v364c0 60 -15 77 -59 77c-36 0 -71 -12 -93 -22v-419h-216v782h216v-226c48 23 111 37 167 37c176 0 202 -101 202 -228v-365zM616 800h-183l-78 73l-77 -73h-184l135 142h253z" />
    <glyph glyph-name="ibreve" unicode="&#x12d;" 
d="M283 0h-217v578h217v-578zM402 795c-16 -125 -136 -160 -227 -160s-211 35 -228 160h119c9 -55 57 -69 109 -69c53 0 100 14 110 69h117z" />
    <glyph glyph-name="ij" unicode="&#x133;" horiz-adv-x="702" 
d="M284 0h-217v578h217v-578zM288 647h-225v135h225v-135zM635 -22c0 -148 -61 -194 -207 -194c-48 0 -94 5 -113 9v128c22 0 37 -1 54 -1c42 0 49 13 49 58v600h217v-600zM639 647h-225v135h225v-135z" />
    <glyph glyph-name="imacron" unicode="&#x12b;" 
d="M283 0h-217v578h217v-578zM395 652h-441v111h441v-111z" />
    <glyph glyph-name="iogonek" unicode="&#x12f;" 
d="M335 -197c-29 -8 -93 -21 -160 -21c-103 0 -162 31 -162 111c0 42 19 80 53 109v576h217v-578c-68 -31 -86 -58 -86 -76c0 -21 15 -33 51 -33c32 0 61 3 87 5v-93zM287 647h-225v135h225v-135z" />
    <glyph glyph-name="itilde" unicode="&#x129;" 
d="M283 0h-217v578h217v-578zM416 778c0 -111 -63 -145 -129 -145c-28 0 -61 6 -106 26l-50 23c-22 11 -38 17 -53 17c-23 0 -29 -13 -29 -42v-20h-115v20c0 111 64 145 134 145c31 0 55 -6 99 -25l51 -23c22 -10 37 -18 56 -18c22 0 28 13 28 42v20h114v-20z" />
    <glyph glyph-name="jcircumflex" unicode="&#x135;" 
d="M283 -22c0 -148 -61 -194 -207 -194c-48 0 -93 5 -113 10v128c22 -1 37 -1 55 -1c41 0 48 12 48 57v600h217v-600zM435 637h-183l-78 73l-77 -73h-184l135 143h253z" />
    <glyph glyph-name="kcommaaccent" unicode="&#x137;" horiz-adv-x="675" 
d="M669 0h-237l-153 260v-260h-215v782h215v-457l158 253h223l-178 -279zM471 -60l-99 -140h-187l68 140h218z" />
    <glyph glyph-name="lacute" unicode="&#x13a;" 
d="M282 0h-216v782h216v-782zM433 944l-175 -142h-199l132 142h242z" />
    <glyph glyph-name="lcaron" unicode="&#x13e;" horiz-adv-x="567" 
d="M282 0h-216v782h216v-782zM587 782l-106 -267h-147l66 267h187z" />
    <glyph glyph-name="lcommaaccent" unicode="&#x13c;" 
d="M282 0h-216v782h216v-782zM284 -60l-99 -140h-187l68 140h218z" />
    <glyph glyph-name="ldot" unicode="&#x140;" horiz-adv-x="547" 
d="M282 0h-216v782h216v-782zM542 280h-202v176h202v-176z" />
    <glyph glyph-name="nacute" unicode="&#x144;" horiz-adv-x="709" 
d="M649 0h-217v365c0 57 -10 76 -55 76c-28 0 -64 -11 -97 -26v-415h-216v578h201v-47c55 37 122 62 188 62c185 0 196 -109 196 -228v-365zM612 780l-175 -143h-199l132 143h242z" />
    <glyph glyph-name="ncaron" unicode="&#x148;" horiz-adv-x="709" 
d="M649 0h-217v365c0 57 -10 76 -55 76c-28 0 -64 -11 -97 -26v-415h-216v578h201v-47c55 37 122 62 188 62c185 0 196 -109 196 -228v-365zM98 780h183l78 -72l77 72h184l-134 -143h-253z" />
    <glyph glyph-name="ncommaaccent" unicode="&#x146;" horiz-adv-x="709" 
d="M649 0h-217v365c0 57 -10 76 -55 76c-28 0 -64 -11 -97 -26v-415h-216v578h201v-47c55 37 122 62 188 62c185 0 196 -109 196 -228v-365zM475 -60l-99 -140h-187l68 140h218z" />
    <glyph glyph-name="obreve" unicode="&#x14f;" horiz-adv-x="673" 
d="M630 261c0 -199 -110 -276 -294 -276c-182 0 -293 77 -293 276v56c0 198 111 276 293 276c184 0 294 -77 294 -276v-56zM415 261v56c0 94 -23 122 -79 122c-55 0 -79 -28 -79 -122v-56c0 -94 23 -123 79 -123s79 29 79 123zM564 795c-16 -125 -137 -160 -228 -160
c-90 0 -210 35 -227 160h119c8 -55 57 -69 108 -69c53 0 101 14 110 69h118z" />
    <glyph glyph-name="ohungarumlaut" unicode="&#x151;" horiz-adv-x="673" 
d="M630 261c0 -199 -110 -276 -294 -276c-182 0 -293 77 -293 276v56c0 198 111 276 293 276c184 0 294 -77 294 -276v-56zM415 261v56c0 94 -23 122 -79 122c-55 0 -79 -28 -79 -122v-56c0 -94 23 -123 79 -123s79 29 79 123zM763 780l-175 -143h-179l132 143h222zM233 780
h222l-175 -143h-179z" />
    <glyph glyph-name="omacron" unicode="&#x14d;" horiz-adv-x="673" 
d="M630 261c0 -199 -110 -276 -294 -276c-182 0 -293 77 -293 276v56c0 198 111 276 293 276c184 0 294 -77 294 -276v-56zM415 261v56c0 94 -23 122 -79 122c-55 0 -79 -28 -79 -122v-56c0 -94 23 -123 79 -123s79 29 79 123zM557 652h-441v111h441v-111z" />
    <glyph glyph-name="oslashacute" unicode="&#x1ff;" horiz-adv-x="673" 
d="M630 261c0 -199 -110 -276 -294 -276c-78 0 -143 14 -192 46l-27 -31h-94l70 79c-33 43 -50 103 -50 182v56c0 198 111 276 293 276c71 0 131 -12 178 -37l31 35h95l-70 -80c39 -44 60 -107 60 -194v-56zM415 261v56v19l-145 -163c12 -26 34 -35 66 -35
c56 0 79 29 79 123zM257 317v-52l135 153c-12 15 -31 21 -56 21c-55 0 -79 -28 -79 -122zM606 780l-174 -143h-199l132 143h241z" />
    <glyph glyph-name="racute" unicode="&#x155;" horiz-adv-x="465" 
d="M447 421c-58 0 -121 -7 -167 -17v-404h-216v578h199v-48c57 55 130 63 184 63v-172zM521 780l-175 -143h-199l132 143h242z" />
    <glyph glyph-name="rcaron" unicode="&#x159;" horiz-adv-x="465" 
d="M447 421c-58 0 -121 -7 -167 -17v-404h-216v578h199v-48c57 55 130 63 184 63v-172zM-16 780h184l77 -72l78 72h183l-134 -143h-253z" />
    <glyph glyph-name="rcommaaccent" unicode="&#x157;" horiz-adv-x="465" 
d="M447 421c-58 0 -121 -7 -167 -17v-404h-216v578h199v-48c57 55 130 63 184 63v-172zM339 -60l-99 -140h-187l68 140h218z" />
    <glyph glyph-name="sacute" unicode="&#x15b;" horiz-adv-x="573" 
d="M551 780l-175 -143h-199l132 143h242zM539 169c0 -130 -99 -184 -274 -184c-82 0 -177 13 -216 22v121c19 -1 118 -10 203 -10c57 0 73 13 73 43c0 26 -13 30 -74 52l-47 17c-108 40 -166 91 -166 191c0 139 103 172 252 172c89 0 172 -12 216 -24v-118
c-73 6 -122 10 -193 10c-45 0 -64 -6 -64 -33c0 -22 13 -27 64 -46l55 -20c130 -48 171 -97 171 -193z" />
    <glyph glyph-name="scedilla" unicode="&#x15f;" horiz-adv-x="573" 
d="M414 -60l-128 -140h-194l100 140h222zM539 169c0 -130 -99 -184 -274 -184c-82 0 -177 13 -216 22v121c19 -1 118 -10 203 -10c57 0 73 13 73 43c0 26 -13 30 -74 52l-47 17c-108 40 -166 91 -166 191c0 139 103 172 252 172c89 0 172 -12 216 -24v-118
c-73 6 -122 10 -193 10c-45 0 -64 -6 -64 -33c0 -22 13 -27 64 -46l55 -20c130 -48 171 -97 171 -193z" />
    <glyph glyph-name="scircumflex" unicode="&#x15d;" horiz-adv-x="573" 
d="M547 637h-184l-77 73l-78 -73h-183l135 143h253zM539 169c0 -130 -99 -184 -274 -184c-82 0 -177 13 -216 22v121c19 -1 118 -10 203 -10c57 0 73 13 73 43c0 26 -13 30 -74 52l-47 17c-108 40 -166 91 -166 191c0 139 103 172 252 172c89 0 172 -12 216 -24v-118
c-73 6 -122 10 -193 10c-45 0 -64 -6 -64 -33c0 -22 13 -27 64 -46l55 -20c130 -48 171 -97 171 -193z" />
    <glyph glyph-name="scommaaccent" unicode="&#x219;" horiz-adv-x="573" 
d="M399 -60l-98 -140h-187l67 140h218zM539 169c0 -130 -99 -184 -274 -184c-82 0 -177 13 -216 22v121c19 -1 118 -10 203 -10c57 0 73 13 73 43c0 26 -13 30 -74 52l-47 17c-108 40 -166 91 -166 191c0 139 103 172 252 172c89 0 172 -12 216 -24v-118
c-73 6 -122 10 -193 10c-45 0 -64 -6 -64 -33c0 -22 13 -27 64 -46l55 -20c130 -48 171 -97 171 -193z" />
    <glyph glyph-name="tbar" unicode="&#x167;" horiz-adv-x="476" 
d="M447 277h-118v-104c0 -44 3 -53 43 -53c24 0 57 2 72 2v-120c-14 -5 -72 -17 -139 -17c-131 0 -192 52 -192 187v105l-94 4v114h94v65l-94 3v115h94v138h216v-138h118v-118h-118v-65h118v-118z" />
    <glyph glyph-name="tcaron" unicode="&#x165;" horiz-adv-x="476" 
d="M444 2c-14 -5 -73 -17 -139 -17c-132 0 -192 52 -192 187v263l-94 9v134h94v144h216v-144h117v-143h-117v-262c0 -41 2 -51 42 -51c25 0 61 3 73 3v-123zM535 782l-70 -160h-115l31 160h154z" />
    <glyph glyph-name="tcedilla" unicode="&#x163;" horiz-adv-x="476" 
d="M444 2c-14 -5 -73 -17 -139 -17c-132 0 -192 52 -192 187v263l-94 9v134h94v144h216v-144h117v-143h-117v-262c0 -41 2 -51 42 -51c25 0 61 3 73 3v-123zM384 -60l-99 -140h-187l68 140h218z" />
    <glyph glyph-name="tcommaaccent" unicode="&#x21b;" horiz-adv-x="476" 
d="M444 2c-14 -5 -73 -17 -139 -17c-132 0 -192 52 -192 187v263l-94 9v134h94v144h216v-144h117v-143h-117v-262c0 -41 2 -51 42 -51c25 0 61 3 73 3v-123zM384 -60l-99 -140h-187l68 140h218z" />
    <glyph glyph-name="ubreve" unicode="&#x16d;" horiz-adv-x="712" 
d="M648 0h-202v47c-53 -34 -120 -62 -203 -62c-167 0 -180 115 -180 229v364h216v-364c0 -58 11 -77 57 -77c26 0 63 12 95 25v416h217v-578zM584 795c-16 -125 -136 -160 -227 -160s-211 35 -228 160h119c9 -55 57 -69 109 -69s100 14 109 69h118z" />
    <glyph glyph-name="uhungarumlaut" unicode="&#x171;" horiz-adv-x="712" 
d="M648 0h-202v47c-53 -34 -120 -62 -203 -62c-167 0 -180 115 -180 229v364h216v-364c0 -58 11 -77 57 -77c26 0 63 12 95 25v416h217v-578zM759 780l-174 -143h-180l132 143h222zM229 780h222l-174 -143h-180z" />
    <glyph glyph-name="umacron" unicode="&#x16b;" horiz-adv-x="712" 
d="M648 0h-202v47c-53 -34 -120 -62 -203 -62c-167 0 -180 115 -180 229v364h216v-364c0 -58 11 -77 57 -77c26 0 63 12 95 25v416h217v-578zM577 652h-441v111h441v-111z" />
    <glyph glyph-name="uogonek" unicode="&#x173;" horiz-adv-x="712" 
d="M648 -197c-29 -8 -91 -21 -160 -21c-103 0 -162 32 -162 100c0 45 41 83 120 113v55c-53 -34 -120 -65 -203 -65c-167 0 -180 115 -180 229v364h216v-364c0 -58 11 -77 57 -77c26 0 63 12 95 25v416h217v-578c-112 -36 -137 -59 -137 -79c0 -21 14 -30 50 -30
c31 0 62 3 87 5v-93z" />
    <glyph glyph-name="uring" unicode="&#x16f;" horiz-adv-x="712" 
d="M648 0h-202v47c-53 -34 -120 -62 -203 -62c-167 0 -180 115 -180 229v364h216v-364c0 -58 11 -77 57 -77c26 0 63 12 95 25v416h217v-578zM513 748c0 -80 -65 -127 -155 -127s-156 47 -156 127c0 81 66 127 156 127s155 -46 155 -127zM413 748c0 31 -22 46 -55 46
c-32 0 -55 -15 -55 -46c0 -30 22 -45 55 -45s55 15 55 45z" />
    <glyph glyph-name="utilde" unicode="&#x169;" horiz-adv-x="712" 
d="M648 0h-202v47c-53 -34 -120 -62 -203 -62c-167 0 -180 115 -180 229v364h216v-364c0 -58 11 -77 57 -77c26 0 63 12 95 25v416h217v-578zM598 778c0 -111 -64 -145 -130 -145c-28 0 -61 6 -106 26l-50 23c-22 11 -38 17 -53 17c-22 0 -29 -13 -29 -42v-20h-115v20
c0 111 64 145 134 145c31 0 55 -6 99 -25l51 -23c22 -10 37 -18 56 -18c22 0 28 13 28 42v20h115v-20z" />
    <glyph glyph-name="wacute" unicode="&#x1e83;" horiz-adv-x="988" 
d="M961 578l-117 -578h-257l-65 209c-13 39 -21 76 -26 115h-3c-6 -39 -15 -75 -27 -115l-66 -209h-255l-118 578h219l41 -258c7 -53 13 -98 15 -135h3c8 38 19 87 35 134l51 160h207l50 -159c16 -48 27 -97 35 -135h3c2 37 8 82 16 135l41 258h218zM757 780l-174 -143h-200
l133 143h241z" />
    <glyph glyph-name="wcircumflex" unicode="&#x175;" horiz-adv-x="988" 
d="M961 578l-117 -578h-257l-65 209c-13 39 -21 76 -26 115h-3c-6 -39 -15 -75 -27 -115l-66 -209h-255l-118 578h219l41 -258c7 -53 13 -98 15 -135h3c8 38 19 87 35 134l51 160h207l50 -159c16 -48 27 -97 35 -135h3c2 37 8 82 16 135l41 258h218zM755 637h-183l-78 73
l-77 -73h-184l135 143h253z" />
    <glyph glyph-name="wdieresis" unicode="&#x1e85;" horiz-adv-x="988" 
d="M961 578l-117 -578h-257l-65 209c-13 39 -21 76 -26 115h-3c-6 -39 -15 -75 -27 -115l-66 -209h-255l-118 578h219l41 -258c7 -53 13 -98 15 -135h3c8 38 19 87 35 134l51 160h207l50 -159c16 -48 27 -97 35 -135h3c2 37 8 82 16 135l41 258h218zM712 646h-169v131h169
v-131zM445 777v-131h-169v131h169z" />
    <glyph glyph-name="wgrave" unicode="&#x1e81;" horiz-adv-x="988" 
d="M961 578l-117 -578h-257l-65 209c-13 39 -21 76 -26 115h-3c-6 -39 -15 -75 -27 -115l-66 -209h-255l-118 578h219l41 -258c7 -53 13 -98 15 -135h3c8 38 19 87 35 134l51 160h207l50 -159c16 -48 27 -97 35 -135h3c2 37 8 82 16 135l41 258h218zM620 637h-199l-175 143
h242z" />
    <glyph glyph-name="ycircumflex" unicode="&#x177;" horiz-adv-x="681" 
d="M662 578l-168 -564c-46 -170 -117 -228 -264 -228c-69 0 -138 6 -187 16v127c52 -2 75 -2 110 -2c36 0 49 13 63 54l8 27l-203 570h230l69 -286c11 -50 21 -105 29 -153h2c8 48 18 103 29 153l64 286h218zM611 637h-184l-77 73l-78 -73h-183l135 143h252z" />
    <glyph glyph-name="ygrave" unicode="&#x1ef3;" horiz-adv-x="681" 
d="M662 578l-168 -564c-46 -170 -117 -228 -264 -228c-69 0 -138 6 -187 16v127c52 -2 75 -2 110 -2c36 0 49 13 63 54l8 27l-203 570h230l69 -286c11 -50 21 -105 29 -153h2c8 48 18 103 29 153l64 286h218zM489 637h-198l-175 143h242z" />
    <glyph glyph-name="zacute" unicode="&#x17a;" horiz-adv-x="579" 
d="M537 0h-497v139l250 294h-243v145h489v-144l-245 -291h246v-143zM563 780l-175 -143h-199l132 143h242z" />
    <glyph glyph-name="zdotaccent" unicode="&#x17c;" horiz-adv-x="579" 
d="M537 0h-497v139l250 294h-243v145h489v-144l-245 -291h246v-143zM414 650h-226v130h226v-130z" />
    <glyph glyph-name="kgreenlandic" unicode="&#x138;" horiz-adv-x="675" 
d="M669 0h-237l-153 260v-260h-215v578h215v-253l158 253h223l-178 -279z" />
    <glyph glyph-name="napostrophe" unicode="&#x149;" horiz-adv-x="840" 
d="M780 0h-217v365c0 57 -10 76 -55 76c-28 0 -64 -11 -97 -26v-415h-216v578h201v-47c55 37 122 62 188 62c185 0 196 -109 196 -228v-365zM224 782l-105 -267h-148l67 267h186z" />
    <glyph glyph-name="Delta" unicode="&#x2206;" horiz-adv-x="823" 
d="M788 0h-753l190 743h371zM518 152l-84 355c-9 37 -16 80 -22 115h-2c-6 -34 -13 -78 -21 -115l-85 -355h214z" />
    <glyph glyph-name="uni03A9" unicode="&#x3a9;" horiz-adv-x="779" 
d="M738 418c0 -129 -47 -217 -159 -257v-33h144v-128h-300v234c67 15 90 72 90 165v52c0 106 -46 140 -123 140c-78 0 -123 -34 -123 -140v-52c0 -93 22 -150 89 -165v-234h-300v128h144v33c-112 40 -159 128 -159 257v50c0 204 125 293 349 293c223 0 348 -89 348 -293v-50
z" />
    <glyph glyph-name="uni03BC" unicode="&#x3bc;" horiz-adv-x="744" 
d="M658 0h-202v47c-41 -24 -81 -41 -124 -48c-16 -2 -30 -2 -42 0v-198h-217v777h216v-364c0 -58 11 -77 57 -77c26 0 63 12 95 25v416h217v-578z" />
    <glyph glyph-name="pi" unicode="&#x3c0;" horiz-adv-x="783" 
d="M744 -8c-26 -5 -69 -8 -99 -8c-139 0 -196 49 -196 185v235h-118v-404h-217v405h-78v173h708v-173h-78v-239c0 -35 6 -44 36 -44h42v-130z" />
    <glyph glyph-name="uni037E" unicode="&#x37e;" horiz-adv-x="301" 
d="M252 262h-202v175h202v-175z" />
    <glyph glyph-name="exclamdbl" unicode="&#x203c;" horiz-adv-x="703" 
d="M626 0h-224v176h224v-176zM636 782l-20 -548h-202l-20 548h242zM299 0h-224v176h224v-176zM308 782l-20 -548h-202l-19 548h241z" />
    <glyph glyph-name="franc" unicode="&#x20a3;" horiz-adv-x="662" 
d="M315 0h-236v121h-43v105h43v517h541v-160h-305v-132h296v-151h-296v-74h134v-105h-134v-121z" />
    <glyph glyph-name="lira" unicode="&#x20a4;" horiz-adv-x="687" 
d="M635 740v-148c-70 5 -138 9 -190 9c-87 0 -96 -21 -96 -104v-26h188v-79h-188v-63h188v-78h-188v-24c0 -30 -6 -51 -20 -72h306v-155h-560v124c34 31 48 62 48 103v24h-75v78h75v63h-75v79h75v26c0 190 83 266 280 266c79 0 163 -9 232 -23z" />
    <glyph glyph-name="peseta" unicode="&#x20a7;" horiz-adv-x="816" 
d="M89 563v180c89 8 186 12 272 12c184 0 337 -31 366 -192h57v-126h-58c-28 -166 -177 -197 -339 -197c-24 0 -42 0 -73 1v-241h-225v437h-53v126h53zM506 496v8c0 74 -40 88 -126 88h-66v-187h67c85 0 125 19 125 91z" />
    <glyph glyph-name="Euro" unicode="&#x20ac;" horiz-adv-x="647" 
d="M16 410v79h58c22 206 138 272 346 272c59 0 154 -11 194 -22v-157c-53 4 -101 8 -165 8c-75 0 -125 -17 -136 -101h283l-22 -79h-267v-79h244l-20 -79h-218c11 -83 62 -100 136 -100c64 0 112 4 165 8v-156c-40 -12 -135 -22 -194 -22c-207 0 -322 65 -346 270h-58v79h54
v79h-54z" />
    <glyph glyph-name="litre" unicode="&#x2113;" horiz-adv-x="570" 
d="M532 43c-51 -34 -117 -62 -209 -62c-129 0 -203 50 -203 194v29l-71 -52l-39 44c39 39 67 62 110 103v304c0 135 66 191 216 191c138 0 189 -49 189 -138c0 -105 -72 -203 -189 -300v-176c0 -64 20 -80 62 -80c26 0 56 11 82 28zM445 655c0 32 -9 59 -52 59
c-53 0 -57 -42 -57 -111v-154c72 69 109 136 109 206z" />
    <glyph glyph-name="Omega" unicode="&#x2126;" horiz-adv-x="779" 
d="M738 418c0 -129 -47 -217 -159 -257v-33h144v-128h-300v234c67 15 90 72 90 165v52c0 106 -46 140 -123 140c-78 0 -123 -34 -123 -140v-52c0 -93 22 -150 89 -165v-234h-300v128h144v33c-112 40 -159 128 -159 257v50c0 204 125 293 349 293c223 0 348 -89 348 -293v-50
z" />
    <glyph glyph-name="estimated" unicode="&#x212e;" horiz-adv-x="657" 
d="M625 282h-464v-193c46 -40 99 -63 164 -63c121 0 179 59 227 127l33 -19c-56 -81 -125 -141 -260 -141c-176 0 -293 133 -293 290c0 159 113 290 297 290s296 -134 296 -291zM495 315v163c-39 33 -103 62 -166 62c-65 0 -125 -21 -168 -62v-163h334z" />
    <glyph glyph-name="partialdiff" unicode="&#x2202;" horiz-adv-x="697" 
d="M652 440c0 -65 -8 -135 -22 -195c-40 -182 -143 -260 -323 -260c-172 0 -261 80 -261 223c0 31 1 62 7 91c29 176 149 234 313 234c32 0 64 -10 85 -20c-2 12 -4 28 -8 41c-16 66 -62 123 -189 123c-35 0 -77 -3 -121 -12l11 117c50 11 100 16 149 16
c238 0 359 -141 359 -358zM427 315c0 45 -20 65 -67 65c-56 0 -86 -36 -96 -112c-4 -23 -5 -46 -5 -65c0 -47 20 -65 67 -65c55 0 83 35 95 117c4 24 6 45 6 60z" />
    <glyph glyph-name="product" unicode="&#x220f;" horiz-adv-x="823" 
d="M786 568h-75v-640h-220v640h-160v-640h-220v640h-75v175h750v-175z" />
    <glyph glyph-name="summation" unicode="&#x2211;" horiz-adv-x="643" 
d="M592 -72h-540v160l201 248l-201 247v160h540v-160h-296l165 -208v-81l-165 -206h296v-160z" />
    <glyph glyph-name="uni2219" unicode="&#x2219;" horiz-adv-x="327" 
d="M264 280h-202v176h202v-176z" />
    <glyph glyph-name="radical" unicode="&#x221a;" horiz-adv-x="850" 
d="M808 871l-289 -939h-225l-129 424h-123v156h248l116 -398l223 757h179z" />
    <glyph glyph-name="infinity" unicode="&#x221e;" horiz-adv-x="711" 
d="M639 367c0 -77 -8 -249 -169 -249h-7c-45 0 -82 17 -112 49c-24 -31 -62 -51 -105 -51h-7c-161 0 -169 166 -169 250v24c0 75 8 249 170 249h7c45 0 82 -19 110 -50c26 36 61 51 108 51h5c161 0 169 -165 169 -250v-23zM514 367v23c0 79 -1 134 -45 134h-5
c-31 -1 -38 -43 -49 -146c-5 -41 -8 -61 -15 -109c18 -26 38 -37 60 -37h5c47 0 49 62 49 135zM311 484c-15 25 -38 40 -62 40h-4c-48 0 -50 -68 -50 -134v-24c0 -71 1 -133 47 -133h4c30 0 36 36 50 145c4 34 8 59 15 106z" />
    <glyph glyph-name="integral" unicode="&#x222b;" horiz-adv-x="549" 
d="M504 659c-29 1 -55 3 -73 3c-43 0 -48 -10 -48 -52v-639c0 -120 -55 -176 -182 -176c-65 0 -122 9 -157 16v114c30 -2 56 -3 75 -3c43 0 47 10 47 52v639c0 120 55 176 182 176c66 0 122 -9 156 -17v-113z" />
    <glyph glyph-name="approxequal" unicode="&#x2248;" horiz-adv-x="664" 
d="M592 587c0 -120 -67 -157 -141 -157c-32 0 -72 6 -114 27l-55 27c-24 12 -40 18 -55 19c-22 0 -27 -14 -27 -42v-26h-128v26c0 119 68 156 145 156c33 0 62 -9 104 -28l61 -28c22 -12 37 -16 56 -16c22 0 26 14 26 42v25h128v-25zM592 326c0 -120 -67 -157 -141 -157
c-32 0 -72 5 -114 26l-55 27c-24 12 -39 19 -55 19c-22 0 -27 -14 -27 -42v-25h-128v25c0 119 68 157 145 157c32 0 63 -9 104 -28l61 -29c22 -11 37 -15 56 -15c22 0 26 14 26 42v25h128v-25z" />
    <glyph glyph-name="notequal" unicode="&#x2260;" horiz-adv-x="664" 
d="M592 158h-230l-56 -166h-202l55 166h-85v155h134l43 136h-177v156h225l49 146h201l-49 -146h92v-156h-139l-43 -136h182v-155z" />
    <glyph glyph-name="lessequal" unicode="&#x2264;" horiz-adv-x="664" 
d="M600 0h-532v120h532v-120zM569 181h-225l-274 237l274 237h225l-271 -237z" />
    <glyph glyph-name="greaterequal" unicode="&#x2265;" horiz-adv-x="664" 
d="M595 0h-532v120h532v-120zM593 418l-275 -237h-225l272 237l-272 237h225z" />
    <glyph glyph-name="lozenge" unicode="&#x25ca;" horiz-adv-x="694" 
d="M633 367l-288 -333l-285 332l286 336zM469 367l-123 144l-122 -145l121 -143z" />
    <glyph glyph-name="uni00A0" unicode="&#xa0;" horiz-adv-x="207" 
 />
    <glyph glyph-name="uni00AD" unicode="&#xad;" horiz-adv-x="366" 
d="M317 225h-268v140h268v-140z" />
    <glyph glyph-name="uni02C9" unicode="&#x2c9;" horiz-adv-x="525" 
d="M483 652h-441v111h441v-111z" />
    <glyph glyph-name="Dotaccent" horiz-adv-x="411" 
d="M318 802h-225v130h225v-130z" />
    <glyph glyph-name="Breve" horiz-adv-x="542" 
d="M498 946c-16 -125 -136 -160 -227 -160s-211 35 -228 160h119c9 -55 57 -69 109 -69s100 14 109 69h118z" />
    <glyph glyph-name="Ogonek" horiz-adv-x="459" 
d="M395 -197c-29 -8 -91 -21 -160 -21c-102 0 -161 32 -161 100c0 55 50 96 171 134h152c-128 -54 -139 -75 -139 -94c0 -22 14 -31 51 -31c30 0 61 3 86 5v-93z" />
    <glyph glyph-name="Cedilla" horiz-adv-x="452" 
d="M371 -60l-129 -140h-194l100 140h223z" />
    <glyph glyph-name="Ring" horiz-adv-x="440" 
d="M375 895c0 -80 -65 -126 -155 -126s-156 46 -156 126c0 81 66 128 156 128s155 -47 155 -128zM275 896c0 31 -22 45 -55 45c-32 0 -55 -14 -55 -45c0 -30 22 -46 55 -46s55 16 55 46z" />
    <glyph glyph-name="Tilde" horiz-adv-x="545" 
d="M515 929c0 -111 -63 -145 -129 -145c-28 0 -61 6 -106 26l-50 23c-22 11 -38 18 -53 18c-23 0 -29 -14 -29 -42v-21h-116v21c0 111 65 144 135 144c31 0 55 -6 99 -25l50 -23c23 -10 38 -18 56 -18c23 0 29 13 29 42v20h114v-20z" />
    <glyph glyph-name="Circumflex" horiz-adv-x="588" 
d="M555 789h-184l-77 72l-78 -72h-183l135 142h253z" />
    <glyph glyph-name="Acute" horiz-adv-x="500" 
d="M453 931l-174 -142h-199l132 142h241z" />
    <glyph glyph-name="Caron" horiz-adv-x="588" 
d="M33 931h183l78 -73l77 73h184l-134 -142h-253z" />
    <glyph glyph-name="Dieresis" horiz-adv-x="557" 
d="M497 797h-170v131h170v-131zM230 928v-131h-170v131h170z" />
    <glyph glyph-name="Grave" horiz-adv-x="500" 
d="M415 789h-199l-175 142h242z" />
    <glyph glyph-name="Hungarumlaut" horiz-adv-x="703" 
d="M776 930l-175 -142h-180l133 142h222zM235 930h222l-175 -142h-179z" />
    <glyph glyph-name="Macron" horiz-adv-x="525" 
d="M483 803h-441v112h441v-112z" />
    <glyph glyph-name="commaaccent.cap" horiz-adv-x="470" 
d="M368 -60l-99 -140h-187l68 140h218z" />
    <glyph glyph-name="h.superior" horiz-adv-x="468" 
d="M47 782h142v-134c30 14 71 22 104 22c112 0 128 -62 128 -141v-218h-143v218c0 34 -9 43 -35 43c-21 0 -42 -6 -54 -12v-249h-142v471z" />
    <glyph glyph-name="zero.slash" horiz-adv-x="740" 
d="M696 336c0 -226 -97 -354 -326 -354c-86 0 -153 18 -204 52l-26 -34h-121l80 103c-38 59 -55 137 -55 233v70c0 226 96 355 326 355c83 0 149 -17 199 -50l24 32h120l-76 -99c40 -59 59 -139 59 -238v-70zM460 336v70v8l-165 -214c14 -42 40 -54 75 -54
c59 0 90 34 90 190zM280 406v-68l162 210c-15 37 -39 48 -72 48c-59 0 -90 -34 -90 -190z" />
    <glyph glyph-name="percent.oldstyle" unicode="&#xfe6a;" horiz-adv-x="1020" 
d="M979 175c0 -116 -51 -186 -176 -186s-175 70 -175 186v7c0 116 50 187 175 187s176 -71 176 -187v-7zM841 175v8c0 73 -12 89 -38 89c-27 0 -38 -16 -38 -89v-8c0 -74 11 -89 38 -89c26 0 38 15 38 89zM804 618l-430 -618h-154l430 618h154zM392 436
c0 -116 -50 -186 -174 -186c-126 0 -176 70 -176 186v7c0 116 50 186 176 186c124 0 174 -70 174 -186v-7zM256 436v7c0 74 -12 90 -38 90s-38 -16 -38 -90v-7c0 -74 12 -90 38 -90s38 16 38 90z" />
    <glyph glyph-name="perthousand.oldstyle" horiz-adv-x="1418" 
d="M1376 175c0 -116 -50 -186 -175 -186c-126 0 -175 70 -175 186v7c0 116 49 187 175 187c125 0 175 -71 175 -187v-7zM1238 175v8c0 73 -11 89 -37 89c-27 0 -38 -16 -38 -89v-8c0 -74 11 -89 38 -89c26 0 37 15 37 89zM979 175c0 -116 -51 -186 -176 -186
s-175 70 -175 186v7c0 116 50 187 175 187s176 -71 176 -187v-7zM841 175v8c0 73 -12 89 -38 89c-27 0 -38 -16 -38 -89v-8c0 -74 11 -89 38 -89c26 0 38 15 38 89zM804 618l-430 -618h-154l430 618h154zM392 436c0 -116 -50 -186 -174 -186c-126 0 -176 70 -176 186v7
c0 116 50 186 176 186c124 0 174 -70 174 -186v-7zM256 436v7c0 74 -12 90 -38 90s-38 -16 -38 -90v-7c0 -74 12 -90 38 -90s38 16 38 90z" />
    <glyph glyph-name="zero.taboldstyle" horiz-adv-x="750" 
d="M700 290c0 -202 -104 -308 -326 -308c-221 0 -325 106 -325 308v32c0 203 104 308 325 308c222 0 326 -105 326 -308v-32zM464 290v33c0 109 -31 144 -90 144c-58 0 -89 -35 -89 -144v-33c0 -109 31 -144 89 -144c59 0 90 35 90 144z" />
    <glyph glyph-name="one.taboldstyle" horiz-adv-x="750" 
d="M660 0h-570v153l169 8v266l-169 -45v165l235 72h168v-458l167 -8v-153z" />
    <glyph glyph-name="two.taboldstyle" horiz-adv-x="750" 
d="M86 466v130c63 19 177 34 274 34c233 0 310 -62 310 -185c0 -113 -59 -165 -209 -243l-81 -42h278v-160h-579v160l175 97c148 81 178 115 178 163c0 43 -28 58 -115 58c-67 0 -167 -6 -231 -12z" />
    <glyph glyph-name="three.taboldstyle" horiz-adv-x="750" 
d="M667 76c0 -162 -98 -225 -315 -225c-104 0 -220 20 -269 37v131c59 -5 155 -12 241 -12c76 0 110 12 110 81v13c0 50 -15 75 -103 75h-196v141h197c85 0 102 27 102 76v9c0 61 -25 74 -110 74c-91 0 -172 -5 -239 -11v130c46 16 162 35 267 35c195 0 315 -50 315 -209
v-11c0 -64 -24 -128 -87 -162c65 -31 87 -96 87 -157v-15z" />
    <glyph glyph-name="four.taboldstyle" horiz-adv-x="750" 
d="M705 32h-91v-159h-234v159h-336v141l384 443h186v-438h91v-146zM393 178v212l-173 -212h173z" />
    <glyph glyph-name="five.taboldstyle" horiz-adv-x="750" 
d="M666 98c0 -179 -123 -243 -313 -243c-120 0 -221 19 -267 32v133c50 -4 127 -12 211 -12c100 0 132 19 132 88v17c0 62 -26 80 -127 80h-212l36 423h519v-155h-333l-10 -122h55c245 0 309 -70 309 -225v-16z" />
    <glyph glyph-name="six.taboldstyle" horiz-adv-x="750" 
d="M688 233c0 -183 -128 -251 -312 -251c-240 0 -316 112 -316 313v155c1 191 51 311 320 311c111 0 224 -19 270 -31v-135c-86 7 -148 12 -238 12c-110 0 -121 -35 -121 -120v-21c29 7 80 11 111 11c171 0 286 -39 286 -217v-27zM458 232v26c0 73 -23 90 -83 90
c-22 0 -56 -3 -84 -9v-84c0 -98 27 -128 87 -128c51 0 80 33 80 105z" />
    <glyph glyph-name="seven.taboldstyle" horiz-adv-x="750" 
d="M678 450l-328 -576h-246l341 588h-360v155h593v-167z" />
    <glyph glyph-name="eight.taboldstyle" horiz-adv-x="750" 
d="M701 212c0 -202 -141 -230 -324 -230h-6c-183 0 -323 28 -323 230v7c0 76 26 126 82 163c-49 33 -80 79 -80 159v8c0 177 132 212 321 212h6c190 0 321 -35 321 -212v-8c0 -80 -30 -126 -79 -159c56 -37 82 -87 82 -163v-7zM471 216v7c0 68 -15 95 -67 95h-59
c-53 0 -67 -27 -67 -95v-7c0 -76 33 -94 93 -94h6c61 0 94 18 94 94zM469 533v8c0 60 -32 79 -92 79h-6c-60 0 -92 -19 -92 -79v-8c0 -53 13 -84 66 -84h59c53 0 65 31 65 84z" />
    <glyph glyph-name="nine.taboldstyle" horiz-adv-x="750" 
d="M688 166c0 -189 -50 -315 -319 -315c-111 0 -225 19 -270 30v135c67 -5 148 -11 244 -11c104 0 115 36 115 120v21c-29 -7 -80 -11 -111 -11c-171 0 -287 40 -287 217v27c0 181 128 251 312 251c241 0 316 -108 316 -305v-159zM458 273v84c0 98 -27 127 -87 127
c-52 0 -81 -32 -81 -105v-25c0 -73 24 -90 83 -90c22 0 57 3 85 9z" />
    <glyph glyph-name="colonmonetary.taboldstyle" horiz-adv-x="631" 
d="M566 613v-146c-69 4 -109 6 -157 6c-81 0 -116 -24 -116 -136v-59c0 -112 35 -135 116 -135c54 0 112 1 157 4v-143c-16 -6 -49 -10 -81 -14v-97h-92v90h-16c-21 0 -43 2 -60 3v-93h-93v115c-111 38 -159 127 -159 270v59c0 144 48 232 159 270v109h93v-87
c18 3 41 4 60 4h16v83h92v-90c32 -3 60 -8 81 -13z" />
    <glyph glyph-name="Euro.taboldstyle" horiz-adv-x="666" 
d="M460 481c-78 0 -110 -14 -120 -81h231l-14 -67h-222v-55h210l-13 -66h-192c7 -61 38 -79 110 -79c49 0 99 3 156 5v-136c-40 -11 -139 -20 -187 -20c-193 0 -293 61 -309 230h-51v66h48v55h-48v67h51c15 173 113 233 310 233c55 0 133 -7 186 -18v-140
c-49 3 -100 6 -146 6z" />
    <glyph glyph-name="florin.taboldstyle" horiz-adv-x="631" 
d="M569 618l-12 -107c-22 1 -41 2 -63 2c-30 0 -42 -6 -47 -40l-12 -85h109l-18 -128h-108l-30 -239c-16 -122 -90 -156 -188 -156c-61 0 -102 7 -139 14l15 107c23 -1 39 -1 62 -1c33 0 41 11 46 41l29 234h-95l16 128h97l12 90c17 123 92 154 189 154c60 0 99 -7 137 -14z
" />
    <glyph glyph-name="numbersign.taboldstyle" horiz-adv-x="717" 
d="M656 136h-106l-15 -136h-166l16 136h-97l-16 -136h-164l16 136h-63v110h76l13 113h-89v110h102l18 148h165l-18 -148h96l19 148h164l-17 -148h66v-110h-80l-12 -113h92v-110zM411 359h-96l-14 -113h98z" />
    <glyph glyph-name="sterling.taboldstyle" horiz-adv-x="636" 
d="M573 614v-134c-57 4 -103 7 -148 7c-76 0 -89 -14 -89 -75v-35h152v-126h-152v-53c0 -25 -5 -39 -14 -55h251v-143h-488v114c29 25 40 49 40 84v53h-63v126h63v35c0 161 80 221 246 221c70 0 137 -6 202 -19z" />
    <glyph glyph-name="yen.taboldstyle" horiz-adv-x="757" 
d="M484 0h-213v138h-214v100h200l-42 78h-158v100h105l-109 201h229l62 -144c12 -26 23 -53 33 -82h2c10 29 21 56 33 82l62 144h233l-112 -201h108v-100h-162l-42 -78h204v-100h-219v-138z" />
    <glyph glyph-name="dollar.taboldstyle" horiz-adv-x="661" 
d="M81 4v134c67 -4 128 -8 217 -8c56 0 78 11 78 42c0 24 -12 33 -77 57l-66 25c-103 38 -170 76 -170 190c0 112 67 166 186 183v89h169v-86c64 -5 122 -14 157 -22v-127c-81 4 -132 8 -216 8c-51 0 -78 -5 -78 -34c0 -22 11 -33 71 -55l69 -25c124 -44 177 -86 177 -198
c0 -108 -67 -169 -180 -187v-97h-169v93c-66 3 -127 10 -168 18z" />
    <glyph glyph-name="cent.taboldstyle" horiz-adv-x="632" 
d="M567 613v-143c-67 3 -110 4 -159 4c-81 0 -116 -25 -116 -136v-60c0 -112 35 -136 116 -136c56 0 111 2 159 4v-142c-27 -9 -85 -15 -132 -18v-98h-170v106c-141 32 -201 121 -201 284v60c0 160 62 253 201 283v101h170v-93c45 -2 105 -9 132 -16z" />
    <glyph glyph-name="zero.denominator" horiz-adv-x="495" 
d="M453 210c0 -140 -61 -221 -206 -221s-205 81 -205 221v26c0 141 60 221 205 221s206 -80 206 -221v-26zM299 209v27c0 96 -19 114 -52 114s-51 -18 -51 -114v-27c0 -95 18 -113 51 -113s52 18 52 113z" />
    <glyph glyph-name="one.denominator" horiz-adv-x="391" 
d="M342 0h-292v95l69 4v220l-69 -22v107l113 44h109v-349l70 -4v-95z" />
    <glyph glyph-name="two.denominator" horiz-adv-x="458" 
d="M50 355v82c47 14 122 20 174 20c135 0 191 -37 191 -123c0 -63 -36 -100 -133 -142c-81 -36 -90 -46 -90 -90h213v-102h-361v55c0 115 39 157 137 207c74 37 80 43 80 68c0 22 -14 31 -66 31c-49 0 -124 -5 -145 -6z" />
    <glyph glyph-name="three.denominator" horiz-adv-x="454" 
d="M44 354v81c31 11 104 22 170 22c121 0 196 -30 196 -132c0 -38 -15 -77 -53 -98c40 -19 53 -58 53 -102c0 -97 -60 -136 -196 -136c-66 0 -141 11 -170 21v82c21 -1 104 -5 150 -5c47 0 66 6 66 46c0 35 -10 48 -63 48h-120v89h121c51 0 62 16 62 48c0 33 -15 41 -66 41
c-53 0 -103 -3 -150 -5z" />
    <glyph glyph-name="four.denominator" horiz-adv-x="479" 
d="M386 0h-151v92h-207v89l241 266h117v-261h57v-94h-57v-92zM244 186v117l-102 -117h102z" />
    <glyph glyph-name="five.denominator" horiz-adv-x="452" 
d="M396 348h-207l-6 -68h34c151 0 192 -40 192 -135v-8c0 -110 -78 -148 -195 -148c-76 0 -139 11 -169 19v85c45 -4 96 -8 132 -8c59 0 78 11 78 50v9c0 35 -15 44 -75 44h-134l24 259h326v-99z" />
    <glyph glyph-name="six.denominator" horiz-adv-x="477" 
d="M412 438v-85c-42 3 -102 6 -150 6c-64 0 -72 -18 -72 -67v-11c17 4 48 7 66 7c108 0 180 -24 180 -133v-15c0 -109 -78 -151 -196 -151c-155 0 -198 71 -198 192v82c0 117 31 194 198 194c71 0 142 -12 172 -19zM287 140v14c0 42 -14 52 -48 52c-13 0 -33 -1 -49 -5v-47
c0 -58 16 -73 50 -73c30 0 47 17 47 59z" />
    <glyph glyph-name="seven.denominator" horiz-adv-x="450" 
d="M49 348v99h364v-106l-204 -341h-159l212 348h-213z" />
    <glyph glyph-name="eight.denominator" horiz-adv-x="492" 
d="M451 126c0 -120 -87 -137 -203 -137c-119 0 -206 17 -206 137c0 50 16 81 50 103c-31 21 -49 49 -49 96c0 109 82 132 205 132c119 0 201 -23 201 -132c0 -47 -18 -75 -49 -96c34 -22 51 -53 51 -103zM303 130c0 44 -9 59 -40 59h-35c-30 0 -39 -15 -39 -59
c0 -43 20 -53 59 -53c36 0 55 10 55 53zM302 324c0 34 -17 44 -56 44c-35 0 -56 -10 -56 -44c0 -35 7 -52 38 -52h35c31 0 39 17 39 52z" />
    <glyph glyph-name="nine.denominator" horiz-adv-x="477" 
d="M65 7v86c44 -3 103 -7 155 -7c60 0 67 20 67 67v12c-18 -4 -47 -6 -66 -6c-107 0 -179 24 -179 132v14c0 108 78 152 196 152c154 0 198 -72 198 -192v-83c0 -116 -32 -193 -199 -193c-71 0 -142 10 -172 18zM287 245v47c0 57 -16 73 -50 73c-30 0 -47 -18 -47 -60v-13
c0 -42 14 -51 48 -51c13 0 33 1 49 4z" />
    <glyph glyph-name="comma.denominator" horiz-adv-x="259" 
d="M216 103l-73 -171h-107l50 171h130z" />
    <glyph glyph-name="period.denominator" horiz-adv-x="227" 
d="M183 -1h-138v104h138v-104z" />
    <glyph glyph-name="cent.denominator" horiz-adv-x="415" 
d="M276 337c-59 0 -76 -20 -76 -99v-34c0 -78 16 -99 77 -99c26 0 72 2 99 4v-109c-19 -5 -49 -10 -82 -12v-81h-129v89c-81 22 -127 86 -127 208v34c0 116 42 185 127 207v85h129v-77c33 -2 65 -8 82 -12v-109c-37 3 -74 5 -100 5z" />
    <glyph glyph-name="dollar.denominator" horiz-adv-x="448" 
d="M49 1v93c35 -2 92 -7 152 -7c45 0 59 13 59 34c0 19 -13 29 -50 42l-56 20c-70 25 -116 66 -116 140c0 71 40 111 122 125v84h130v-80c45 -3 85 -10 107 -15v-91c-69 5 -126 7 -155 7c-36 0 -60 -7 -60 -30c0 -17 11 -25 49 -37l54 -18c83 -28 124 -63 124 -138
c0 -76 -45 -124 -119 -139v-84h-130v81c-44 2 -84 8 -111 13z" />
    <glyph glyph-name="hyphen.denominator" horiz-adv-x="240" 
d="M197 150h-155v100h155v-100z" />
    <glyph glyph-name="parenleft.denominator" horiz-adv-x="290" 
d="M251 -82h-127c-40 57 -78 151 -78 268c0 112 38 207 78 265h127c-37 -63 -70 -157 -70 -265c0 -112 33 -205 70 -268z" />
    <glyph glyph-name="parenright.denominator" horiz-adv-x="290" 
d="M243 182c0 -113 -37 -207 -77 -264h-128c38 63 70 156 70 264c0 112 -32 206 -70 269h128c40 -58 77 -153 77 -269z" />
    <glyph glyph-name="zero.numerator" horiz-adv-x="495" 
d="M453 514c0 -140 -61 -221 -206 -221s-205 81 -205 221v26c0 141 60 221 205 221s206 -80 206 -221v-26zM299 513v27c0 96 -19 114 -52 114s-51 -18 -51 -114v-27c0 -95 18 -113 51 -113s52 18 52 113z" />
    <glyph glyph-name="one.numerator" horiz-adv-x="391" 
d="M342 304h-292v95l69 4v220l-69 -22v107l113 44h109v-349l70 -4v-95z" />
    <glyph glyph-name="two.numerator" horiz-adv-x="458" 
d="M50 659v82c47 14 122 20 174 20c135 0 191 -37 191 -123c0 -63 -36 -100 -133 -142c-81 -36 -90 -46 -90 -90h213v-102h-361v55c0 115 39 157 137 207c74 37 80 43 80 68c0 22 -14 31 -66 31c-49 0 -124 -5 -145 -6z" />
    <glyph glyph-name="three.numerator" horiz-adv-x="454" 
d="M44 658v81c31 11 104 22 170 22c121 0 196 -30 196 -132c0 -38 -15 -77 -53 -98c40 -19 53 -58 53 -102c0 -97 -60 -136 -196 -136c-66 0 -141 11 -170 21v82c21 -1 104 -5 150 -5c47 0 66 6 66 46v7c0 28 -10 41 -63 41h-120v89h121c51 0 62 16 62 43
c0 38 -15 46 -66 46c-53 0 -103 -3 -150 -5z" />
    <glyph glyph-name="four.numerator" horiz-adv-x="479" 
d="M386 304h-151v92h-207v89l241 266h117v-261h57v-94h-57v-92zM244 490v117l-102 -117h102z" />
    <glyph glyph-name="five.numerator" horiz-adv-x="452" 
d="M396 652h-207l-6 -68h34c151 0 192 -40 192 -143c0 -110 -78 -148 -195 -148c-76 0 -139 11 -169 19v85c45 -4 96 -8 132 -8c59 0 78 11 78 50c0 44 -15 53 -75 53h-134l24 259h326v-99z" />
    <glyph glyph-name="six.numerator" horiz-adv-x="477" 
d="M412 742v-85c-42 3 -102 6 -150 6c-64 0 -72 -18 -72 -67v-11c17 4 48 7 66 7c108 0 180 -24 180 -133v-15c0 -109 -78 -151 -196 -151c-155 0 -198 71 -198 192v82c0 117 31 194 198 194c71 0 142 -12 172 -19zM287 444v14c0 42 -14 52 -48 52c-13 0 -33 -1 -49 -5v-47
c0 -58 16 -73 50 -73c30 0 47 17 47 59z" />
    <glyph glyph-name="seven.numerator" horiz-adv-x="450" 
d="M49 652v99h364v-106l-204 -341h-159l212 348h-213z" />
    <glyph glyph-name="eight.numerator" horiz-adv-x="492" 
d="M451 430c0 -120 -87 -137 -203 -137c-119 0 -206 17 -206 137c0 50 16 81 50 103c-31 21 -49 49 -49 96c0 109 82 132 205 132c119 0 201 -23 201 -132c0 -47 -18 -75 -49 -96c34 -22 51 -53 51 -103zM303 434c0 44 -9 59 -40 59h-35c-30 0 -39 -15 -39 -59
c0 -43 20 -53 59 -53c36 0 55 10 55 53zM302 628c0 34 -17 44 -56 44c-35 0 -56 -10 -56 -44c0 -35 7 -52 38 -52h35c31 0 39 17 39 52z" />
    <glyph glyph-name="nine.numerator" horiz-adv-x="477" 
d="M65 311v86c44 -3 103 -7 155 -7c60 0 67 20 67 67v12c-18 -4 -47 -6 -66 -6c-107 0 -179 24 -179 132v14c0 108 78 152 196 152c154 0 198 -72 198 -192v-83c0 -116 -32 -193 -199 -193c-71 0 -142 10 -172 18zM287 549v47c0 57 -16 73 -50 73c-30 0 -47 -18 -47 -60v-13
c0 -42 14 -51 48 -51c13 0 33 1 49 4z" />
    <glyph glyph-name="comma.numerator" horiz-adv-x="259" 
d="M216 407l-73 -171h-107l50 171h130z" />
    <glyph glyph-name="period.numerator" horiz-adv-x="227" 
d="M183 303h-138v104h138v-104z" />
    <glyph glyph-name="cent.numerator" horiz-adv-x="415" 
d="M276 641c-59 0 -76 -20 -76 -99v-34c0 -78 16 -99 77 -99c26 0 72 2 99 4v-109c-19 -5 -49 -10 -82 -12v-81h-129v89c-81 22 -127 86 -127 208v34c0 116 42 185 127 207v85h129v-77c33 -2 65 -8 82 -12v-109c-37 3 -74 5 -100 5z" />
    <glyph glyph-name="dollar.numerator" horiz-adv-x="448" 
d="M49 305v93c35 -2 92 -7 152 -7c45 0 59 13 59 34c0 19 -13 29 -50 42l-56 20c-70 25 -116 66 -116 140c0 71 40 111 122 125v84h130v-80c45 -3 85 -10 107 -15v-91c-69 5 -126 7 -155 7c-36 0 -60 -7 -60 -30c0 -17 11 -25 49 -37l54 -18c83 -28 124 -63 124 -138
c0 -76 -45 -124 -119 -139v-84h-130v81c-44 2 -84 8 -111 13z" />
    <glyph glyph-name="hyphen.numerator" horiz-adv-x="240" 
d="M197 454h-155v100h155v-100z" />
    <glyph glyph-name="parenleft.numerator" horiz-adv-x="290" 
d="M251 222h-127c-40 57 -78 151 -78 268c0 112 38 207 78 265h127c-37 -63 -70 -157 -70 -265c0 -112 33 -205 70 -268z" />
    <glyph glyph-name="parenright.numerator" horiz-adv-x="290" 
d="M243 486c0 -113 -37 -207 -77 -264h-128c38 63 70 156 70 264c0 112 -32 206 -70 269h128c40 -58 77 -153 77 -269z" />
    <glyph glyph-name="parenleft.cap" horiz-adv-x="359" 
d="M324 0h-166c-51 72 -111 206 -111 369v5c0 163 60 296 111 369h166c-55 -96 -95 -225 -95 -369v-5c0 -144 36 -268 95 -369z" />
    <glyph glyph-name="parenright.cap" horiz-adv-x="359" 
d="M321 369c0 -163 -60 -297 -112 -369h-165c58 101 95 225 95 369v5c0 144 -40 273 -95 369h165c52 -73 112 -206 112 -369v-5z" />
    <glyph glyph-name="bracketleft.cap" horiz-adv-x="384" 
d="M343 0h-288v743h288v-130h-102v-484h102v-129z" />
    <glyph glyph-name="bracketright.cap" horiz-adv-x="384" 
d="M328 0h-288v129h102v484h-102v130h288v-743z" />
    <glyph glyph-name="braceleft.cap" horiz-adv-x="415" 
d="M375 0h-52c-188 0 -241 35 -241 177v70c0 51 -15 65 -46 82v85c31 18 46 31 46 82v69c0 143 53 178 241 178h52v-130h-50c-48 0 -57 -4 -57 -48v-69c0 -69 -17 -98 -61 -125c44 -27 62 -55 62 -124v-70c0 -44 8 -48 56 -48h50v-129z" />
    <glyph glyph-name="braceright.cap" horiz-adv-x="415" 
d="M375 329c-30 -17 -45 -31 -45 -82v-70c0 -142 -54 -177 -241 -177h-53v129h51c48 0 56 4 56 48v70c0 69 18 97 61 124c-43 27 -61 56 -61 125v69c0 44 -8 48 -56 48h-51v130h53c187 0 241 -35 241 -178v-69c0 -51 15 -64 45 -82v-85z" />
    <glyph glyph-name="exclamdown.cap" horiz-adv-x="375" 
d="M75 743h224v-176h-224v176zM288 509l20 -548h-241l19 548h202z" />
    <glyph glyph-name="questiondown.cap" horiz-adv-x="576" 
d="M300 -50c-167 0 -251 52 -251 168v7c0 69 26 118 103 189c96 92 109 123 109 173v20h183v-20c0 -84 -4 -129 -65 -200c-56 -66 -71 -92 -71 -123v-5c0 -37 24 -48 83 -48c45 0 106 3 152 7v-134c-60 -22 -149 -34 -243 -34zM461 568h-218v175h218v-175z" />
    <glyph glyph-name="guillemotleft.cap" horiz-adv-x="822" 
d="M780 149h-216l-150 228l150 227h216l-144 -227zM264 377l144 -228h-215l-151 228l151 227h215z" />
    <glyph glyph-name="guillemotright.cap" horiz-adv-x="822" 
d="M780 377l-151 -228h-216l145 228l-145 227h216zM257 604l151 -227l-151 -228h-216l145 228l-145 227h216z" />
    <glyph glyph-name="guilsinglleft.cap" horiz-adv-x="447" 
d="M405 149h-215l-148 228l148 227h215l-143 -227z" />
    <glyph glyph-name="guilsinglright.cap" horiz-adv-x="447" 
d="M404 377l-147 -228h-215l142 228l-142 227h215z" />
    <glyph glyph-name="hyphen.cap" horiz-adv-x="338" 
d="M289 322h-240v123h240v-123z" />
    <glyph glyph-name="endash.cap" horiz-adv-x="424" 
d="M375 322h-326v122h326v-122z" />
    <glyph glyph-name="emdash.cap" horiz-adv-x="586" 
d="M537 322h-488v122h488v-122z" />
    <glyph glyph-name="periodcentered.cap" horiz-adv-x="327" 
d="M258 290h-190v175h190v-175z" />
    <glyph glyph-name="at.cap" horiz-adv-x="908" 
d="M867 459c0 -193 -102 -328 -394 -328c-167 0 -246 43 -246 163c0 26 2 59 5 84c18 145 94 208 239 208c74 0 140 -12 192 -24l-33 -311c87 25 128 99 128 208c0 149 -100 220 -266 220c-184 0 -292 -102 -330 -282c-8 -40 -13 -84 -13 -129c0 -163 91 -222 276 -222
c73 0 161 5 194 9v-64c-32 -6 -120 -17 -194 -17c-254 0 -384 91 -384 294c0 52 5 103 16 148c48 219 200 342 445 342c214 0 365 -100 365 -299zM498 477c-10 1 -26 1 -37 1c-45 0 -70 -17 -79 -111c-3 -35 -4 -56 -4 -74c0 -46 17 -62 66 -62h29z" />
    <glyph glyph-name="T_h" horiz-adv-x="1274" 
d="M1211 0h-217v364c0 59 -14 76 -60 76c-35 0 -70 -11 -92 -21v-419h-216v584h-158v-584h-235v584h-209v159h818v-187c48 24 111 37 167 37c177 0 202 -101 202 -228v-365z" />
    <glyph glyph-name="A.alt" horiz-adv-x="790" 
d="M19 0l153 590l-48 6v147h456l191 -743h-245l-40 165h-183l-42 -165h-242zM461 318l-44 189c-9 35 -15 76 -20 112h-5c-6 -36 -12 -77 -20 -112l-45 -189h134z" />
    <glyph glyph-name="B.alt" horiz-adv-x="747" 
d="M67 0v590l-44 5v148c119 10 231 13 308 13c237 0 369 -44 369 -216v-9c0 -64 -23 -120 -81 -151c64 -30 85 -93 85 -148v-10c0 -194 -149 -235 -375 -235c-83 0 -158 4 -262 13zM480 224v11c0 54 -24 79 -107 79h-82v-170c22 -1 38 -1 62 -1c89 0 127 14 127 81zM478 522
v7c0 62 -40 72 -125 72c-22 0 -39 0 -62 -1v-157h80c88 0 107 26 107 79z" />
    <glyph glyph-name="C.alt" horiz-adv-x="646" 
d="M613 158v-154c-40 -12 -158 -22 -217 -22c-233 0 -350 83 -350 355v70c0 271 117 354 350 354c59 0 177 -11 217 -22v-202h-137l-8 52c-14 1 -29 1 -43 1c-95 0 -142 -29 -142 -183v-70c0 -156 47 -185 142 -185c67 0 139 3 188 6z" />
    <glyph glyph-name="D.alt" horiz-adv-x="771" 
d="M67 0v592l-47 6v145c100 9 220 13 327 13c260 0 378 -100 378 -353v-59c0 -257 -115 -357 -378 -357c-104 0 -179 4 -280 13zM494 344v59c0 154 -32 188 -139 188h-60v-439h60c107 0 139 38 139 192z" />
    <glyph glyph-name="E.alt" horiz-adv-x="653" 
d="M607 585h-305v-133h283v-148h-283v-147h305v-157h-540v591l-42 5v147h582v-158z" />
    <glyph glyph-name="F.alt" horiz-adv-x="643" 
d="M67 0v591l-44 5v147h584v-160h-305v-132h283v-148h-283v-303h-235z" />
    <glyph glyph-name="G.alt" horiz-adv-x="740" 
d="M681 7c-63 -12 -174 -25 -291 -25c-182 0 -344 57 -344 354v71c0 313 181 354 350 354c112 0 233 -19 282 -31v-192h-134l-10 50c-25 1 -63 2 -91 2c-113 0 -167 -20 -167 -183v-71c0 -146 34 -185 120 -185c24 0 50 0 70 2v126l-65 8v120h280v-400z" />
    <glyph glyph-name="H.alt" horiz-adv-x="838" 
d="M771 0h-236v298h-233v-298h-235v591l-44 5v147h279v-279h233v279h236v-743z" />
    <glyph glyph-name="I.alt" horiz-adv-x="387" 
d="M355 0h-323v147l44 4v440l-44 5v147h323v-147l-44 -5v-440l44 -4v-147z" />
    <glyph glyph-name="J.alt" horiz-adv-x="386" 
d="M354 596l-44 -5v-599c0 -148 -72 -205 -220 -205c-36 0 -85 3 -112 10v129h47c45 0 51 14 51 56v609l-44 5v147h322v-147z" />
    <glyph glyph-name="K.alt" horiz-adv-x="791" 
d="M788 0h-276l-208 340v-340h-235v591l-42 5v147h277v-341l222 341h266l-249 -368z" />
    <glyph glyph-name="M.alt" horiz-adv-x="938" 
d="M871 0h-226v323c0 40 2 75 5 115h-2c-14 -32 -30 -62 -47 -87l-80 -138h-105l-80 138c-16 25 -31 57 -46 87h-2c2 -40 4 -75 4 -115v-323h-225v591l-44 5v147h259l139 -236c15 -26 31 -57 46 -87h2c15 31 32 62 47 88l141 235h214v-743z" />
    <glyph glyph-name="N.alt" horiz-adv-x="812" 
d="M745 0h-227l-190 327c-18 30 -35 63 -49 92h-3c2 -34 2 -71 2 -106v-313h-211v591l-44 5v147h265l195 -323c19 -29 37 -65 51 -96h2c-3 26 -4 69 -4 113v306h213v-743z" />
    <glyph glyph-name="P.alt" horiz-adv-x="735" 
d="M292 0h-225v591l-44 5v147c97 9 207 12 311 12c205 0 372 -37 372 -251v-8c0 -217 -167 -256 -345 -256c-24 0 -33 0 -69 1v-241zM292 405h62c85 0 126 19 126 91v8c0 74 -41 88 -127 88c-23 0 -50 0 -61 -1v-186z" />
    <glyph glyph-name="Q.alt" horiz-adv-x="776" 
d="M730 337c0 -215 -96 -317 -239 -345v-182h-214v184c-139 30 -231 132 -231 343v68c0 270 152 356 342 356s342 -86 342 -356v-68zM500 337v69c0 144 -37 185 -112 185s-112 -41 -112 -185v-69c0 -144 38 -185 112 -185s112 41 112 185z" />
    <glyph glyph-name="R.alt" horiz-adv-x="758" 
d="M747 0h-228l-131 255h-46h-51v-255h-224v591l-44 5v147c80 6 195 12 317 12c193 0 362 -36 362 -248v-6c0 -107 -40 -166 -107 -205zM476 497v6c0 71 -34 89 -128 89h-58v-187h61c92 0 125 24 125 92z" />
    <glyph glyph-name="S.alt" horiz-adv-x="677" 
d="M62 6v142c83 -5 153 -10 245 -10c69 0 96 21 96 65c0 34 -15 46 -80 73l-98 42c-110 46 -183 97 -183 228c0 156 112 215 313 215c103 0 207 -16 258 -27v-179h-134l-11 50c-33 1 -68 2 -100 2c-65 0 -98 -12 -98 -53c0 -30 17 -43 79 -68l95 -38
c134 -53 191 -110 191 -232c0 -165 -116 -234 -294 -234c-112 0 -221 12 -279 24z" />
    <glyph glyph-name="U.alt" horiz-adv-x="796" 
d="M734 298c0 -214 -127 -316 -336 -316c-210 0 -336 102 -336 316v294l-44 4v147h275v-442c0 -113 21 -154 105 -154s105 41 105 154v442h231v-445z" />
    <glyph glyph-name="Z.alt" horiz-adv-x="674" 
d="M625 162v-162h-576v159l295 422h-152l-9 -46h-127v208h563v-162l-295 -419h301z" />
    <glyph glyph-name="a.alt" horiz-adv-x="642" 
d="M584 0h-196v37c-39 -26 -108 -52 -182 -52c-109 0 -168 58 -168 165v24c0 156 125 170 291 170h38v29c0 59 -13 71 -92 71c-17 0 -32 -1 -49 -1l-10 -40h-133v152c40 13 139 38 242 38c175 0 259 -54 259 -220v-373zM377 133v113h-46c-61 0 -89 -7 -89 -63v-21
c0 -39 21 -50 52 -50c34 0 67 13 83 21z" />
    <glyph glyph-name="b.alt" horiz-adv-x="691" 
d="M648 264c0 -206 -106 -279 -309 -279c-86 0 -156 4 -275 16v633l-42 5v143h258v-203c25 10 62 15 101 15c183 0 267 -84 267 -270v-60zM432 264v60c0 90 -17 116 -81 116c-18 0 -52 -3 -73 -12v-286c15 -2 38 -3 64 -3c68 0 90 23 90 125z" />
    <glyph glyph-name="c.alt" horiz-adv-x="560" 
d="M521 8c-40 -10 -110 -23 -206 -23c-188 0 -272 91 -272 276v57c0 188 84 275 272 275c99 0 179 -15 206 -23v-173h-127l-8 40c-11 0 -25 1 -34 1c-64 0 -94 -19 -94 -120v-57c0 -102 30 -122 98 -122c37 0 86 3 165 7v-138z" />
    <glyph glyph-name="d.alt" horiz-adv-x="694" 
d="M631 0h-198v30c-42 -26 -96 -45 -166 -45c-140 0 -221 87 -221 273v60c0 200 98 275 275 275c39 0 67 -2 93 -6v73l-44 5v117h261v-782zM416 153v281c-22 4 -49 6 -67 6c-62 0 -88 -19 -88 -122v-60c0 -91 19 -119 81 -119c25 0 53 6 74 14z" />
    <glyph glyph-name="g.alt" horiz-adv-x="661" 
d="M631 -27c0 -143 -121 -187 -306 -187c-184 0 -295 44 -295 179c0 40 17 82 52 112c-31 21 -45 50 -45 80c0 41 24 77 64 100c-31 27 -51 73 -51 136c0 117 48 200 282 200h303v-98l-46 -14c9 -13 24 -44 24 -88c0 -158 -124 -200 -282 -200c-37 0 -77 3 -107 11
c-12 -8 -19 -18 -19 -32c0 -19 14 -24 43 -24h79c210 0 304 -28 304 -175zM426 -34c0 48 -15 61 -100 61h-79c-12 -12 -19 -36 -19 -60c0 -48 22 -65 99 -65c74 0 99 19 99 64zM408 393c0 49 -13 75 -77 75c-65 0 -75 -27 -75 -75c0 -50 13 -76 75 -76c64 0 77 26 77 76z
" />
    <glyph glyph-name="h.alt" horiz-adv-x="712" 
d="M649 0h-217v364c0 60 -15 77 -59 77c-36 0 -71 -12 -93 -22v-419h-216v633l-42 5v144h258v-226c48 23 111 37 167 37c176 0 202 -101 202 -228v-365z" />
    <glyph glyph-name="i.alt" 
d="M283 0h-217v429l-41 6v143h258v-578zM287 647h-225v135h225v-135z" />
    <glyph glyph-name="j.alt" 
d="M283 -22c0 -148 -61 -194 -207 -194c-48 0 -93 5 -113 9v128c22 0 37 -1 55 -1c41 0 48 13 48 58v453l-41 4v143h258v-600zM287 647h-225v135h225v-135z" />
    <glyph glyph-name="k.alt" horiz-adv-x="675" 
d="M669 0h-237l-153 260v-260h-215v633l-42 5v144h257v-457l158 253h223l-178 -279z" />
    <glyph glyph-name="l.alt" 
d="M282 0h-216v633l-41 5v144h257v-782z" />
    <glyph glyph-name="m.alt" horiz-adv-x="1016" 
d="M956 0h-217v374c0 44 -2 69 -49 69c-21 0 -51 -9 -74 -21c2 -16 2 -32 2 -48v-374h-217v374c0 45 -1 69 -45 69c-26 0 -55 -12 -76 -22v-421h-216v431l-42 4v143h243v-46c49 40 113 61 176 61c74 0 116 -23 143 -63c63 45 129 63 183 63c157 0 189 -93 189 -214v-379z
" />
    <glyph glyph-name="n.alt" horiz-adv-x="709" 
d="M649 0h-217v365c0 57 -10 76 -55 76c-28 0 -64 -11 -97 -26v-415h-216v429l-42 6v143h243v-47c55 37 122 62 188 62c185 0 196 -109 196 -228v-365z" />
    <glyph glyph-name="p.alt" horiz-adv-x="692" 
d="M280 -200h-216v630l-42 5v143h240v-35c55 36 116 50 174 50c128 0 213 -70 213 -276v-50c0 -205 -102 -282 -280 -282c-31 0 -70 4 -89 8v-193zM433 267v50c0 98 -20 122 -77 122c-22 0 -47 -4 -78 -18v-276c22 -4 45 -7 66 -7c62 0 89 21 89 129z" />
    <glyph glyph-name="r.alt" horiz-adv-x="465" 
d="M280 0h-216v430l-42 5v143h241v-48c57 55 130 63 184 63v-172c-58 0 -121 -7 -167 -17v-404z" />
    <glyph glyph-name="s.alt" horiz-adv-x="573" 
d="M49 7v121c49 -3 132 -10 203 -10c57 0 75 13 75 43c0 26 -14 32 -75 54l-47 17c-108 40 -167 89 -167 189c0 139 103 172 252 172c89 0 187 -12 231 -24v-145h-135l-9 36c-20 0 -45 1 -64 1c-45 0 -64 -6 -64 -33c0 -26 21 -34 64 -49l55 -20c124 -46 171 -91 171 -190
c0 -130 -99 -184 -274 -184c-82 0 -177 13 -216 22z" />
    <glyph glyph-name="u.alt" horiz-adv-x="712" 
d="M431 578h217v-578h-202v47c-53 -34 -120 -62 -203 -62c-167 0 -180 115 -180 229v216l-41 6v142h257v-364c0 -58 11 -77 57 -77c26 0 63 12 95 25v416z" />
    <glyph glyph-name="y.alt" horiz-adv-x="711" 
d="M647 -9c0 -132 -72 -205 -297 -205c-122 0 -232 20 -253 26v119c67 -3 164 -9 232 -9c92 0 102 20 102 69v15c-19 -2 -54 -6 -81 -6c-185 0 -287 84 -287 269v309h215v-309c0 -83 22 -116 91 -116c24 0 52 2 64 4v421h214v-587z" />
    <glyph glyph-name="z.alt" horiz-adv-x="579" 
d="M537 143v-143h-497v139l250 294h-121l-9 -36h-113v181h489v-144l-245 -291h246z" />
    <glyph glyph-name="a.alt2" horiz-adv-x="692" 
d="M628 0h-198v30c-44 -28 -95 -45 -165 -45c-141 0 -222 87 -222 273v60c0 206 86 275 322 275c74 0 170 -5 263 -15v-578zM414 153v284c-22 2 -52 3 -66 3c-64 0 -89 -19 -89 -122v-60c0 -91 18 -119 80 -119c27 0 54 6 75 14z" />
    <glyph glyph-name="u.alt2" horiz-adv-x="711" 
d="M648 270c0 -204 -105 -285 -293 -285c-186 0 -292 81 -292 285v308h216v-308c0 -99 20 -132 76 -132s76 33 76 132v308h217v-308z" />
    <glyph glyph-name="Aacute.alt" horiz-adv-x="790" 
d="M627 932l-174 -143h-199l132 143h241zM19 0l153 590l-48 6v147h456l191 -743h-245l-40 165h-183l-42 -165h-242zM461 318l-44 189c-9 35 -15 76 -20 112h-5c-6 -36 -12 -77 -20 -112l-45 -189h134z" />
    <glyph glyph-name="Acircumflex.alt" horiz-adv-x="790" 
d="M656 789h-184l-77 73l-78 -73h-183l135 143h252zM19 0l153 590l-48 6v147h456l191 -743h-245l-40 165h-183l-42 -165h-242zM461 318l-44 189c-9 35 -15 76 -20 112h-5c-6 -36 -12 -77 -20 -112l-45 -189h134z" />
    <glyph glyph-name="Adieresis.alt" horiz-adv-x="790" 
d="M613 796h-169v131h169v-131zM346 927v-131h-170v131h170zM19 0l153 590l-48 6v147h456l191 -743h-245l-40 165h-183l-42 -165h-242zM461 318l-44 189c-9 35 -15 76 -20 112h-5c-6 -36 -12 -77 -20 -112l-45 -189h134z" />
    <glyph glyph-name="Agrave.alt" horiz-adv-x="790" 
d="M514 789h-199l-175 143h242zM19 0l153 590l-48 6v147h456l191 -743h-245l-40 165h-183l-42 -165h-242zM461 318l-44 189c-9 35 -15 76 -20 112h-5c-6 -36 -12 -77 -20 -112l-45 -189h134z" />
    <glyph glyph-name="Aring.alt" horiz-adv-x="790" 
d="M550 906c0 -80 -65 -127 -154 -127c-90 0 -157 47 -157 127s67 127 157 127c89 0 154 -47 154 -127zM451 906c0 31 -23 46 -55 46c-33 0 -56 -15 -56 -46c0 -30 22 -45 56 -45c32 0 55 15 55 45zM19 0l153 590l-48 6v147h456l191 -743h-245l-40 165h-183l-42 -165h-242z
M461 318l-44 189c-9 35 -15 76 -20 112h-5c-6 -36 -12 -77 -20 -112l-45 -189h134z" />
    <glyph glyph-name="Atilde.alt" horiz-adv-x="790" 
d="M636 930c0 -111 -63 -145 -130 -145c-28 0 -60 7 -106 27l-50 23c-22 10 -38 17 -53 17c-22 0 -29 -14 -29 -42v-21h-115v21c0 111 65 145 134 145c32 0 55 -6 100 -26l50 -22c22 -11 37 -19 56 -19c22 0 28 13 28 42v20h115v-20zM19 0l153 590l-48 6v147h456l191 -743
h-245l-40 165h-183l-42 -165h-242zM461 318l-44 189c-9 35 -15 76 -20 112h-5c-6 -36 -12 -77 -20 -112l-45 -189h134z" />
    <glyph glyph-name="Ccedilla.alt" horiz-adv-x="646" 
d="M487 -60l-129 -140h-193l99 140h223zM613 158v-154c-40 -12 -158 -22 -217 -22c-233 0 -350 83 -350 355v70c0 271 117 354 350 354c59 0 177 -11 217 -22v-202h-137l-8 52c-14 1 -29 1 -43 1c-95 0 -142 -29 -142 -183v-70c0 -156 47 -185 142 -185c67 0 139 3 188 6z
" />
    <glyph glyph-name="Eacute.alt" horiz-adv-x="653" 
d="M590 932l-175 -143h-199l132 143h242zM607 585h-305v-133h283v-148h-283v-147h305v-157h-540v591l-42 5v147h582v-158z" />
    <glyph glyph-name="Ecircumflex.alt" horiz-adv-x="653" 
d="M595 789h-183l-78 73l-77 -73h-184l135 143h253zM607 585h-305v-133h283v-148h-283v-147h305v-157h-540v591l-42 5v147h582v-158z" />
    <glyph glyph-name="Edieresis.alt" horiz-adv-x="653" 
d="M547 796h-169v131h169v-131zM280 927v-131h-170v131h170zM607 585h-305v-133h283v-148h-283v-147h305v-157h-540v591l-42 5v147h582v-158z" />
    <glyph glyph-name="Egrave.alt" horiz-adv-x="653" 
d="M456 789h-199l-175 143h242zM607 585h-305v-133h283v-148h-283v-147h305v-157h-540v591l-42 5v147h582v-158z" />
    <glyph glyph-name="Eth.alt" horiz-adv-x="771" 
d="M725 344c0 -257 -115 -357 -378 -357c-97 0 -185 4 -280 13v307h-49v145h49v140l-47 6v145c101 9 223 13 327 13c260 0 378 -100 378 -353v-59zM295 307v-155h60c107 0 139 38 139 192v59c0 154 -32 188 -139 188h-60v-139h90v-145h-90z" />
    <glyph glyph-name="Iacute.alt" horiz-adv-x="387" 
d="M443 932l-175 -143h-199l132 143h242zM355 0h-323v147l44 4v440l-44 5v147h323v-147l-44 -5v-440l44 -4v-147z" />
    <glyph glyph-name="Icircumflex.alt" horiz-adv-x="387" 
d="M458 789h-183l-78 73l-77 -73h-184l135 143h253zM355 0h-323v147l44 4v440l-44 5v147h323v-147l-44 -5v-440l44 -4v-147z" />
    <glyph glyph-name="Idieresis.alt" horiz-adv-x="387" 
d="M410 796h-169v131h169v-131zM143 927v-131h-169v131h169zM355 0h-323v147l44 4v440l-44 5v147h323v-147l-44 -5v-440l44 -4v-147z" />
    <glyph glyph-name="Igrave.alt" horiz-adv-x="387" 
d="M326 789h-199l-175 143h242zM355 0h-323v147l44 4v440l-44 5v147h323v-147l-44 -5v-440l44 -4v-147z" />
    <glyph glyph-name="Ntilde.alt" horiz-adv-x="812" 
d="M643 930c0 -111 -63 -145 -129 -145c-28 0 -61 7 -106 27l-50 23c-22 10 -38 17 -53 17c-23 0 -29 -14 -29 -42v-21h-115v21c0 111 64 145 134 145c31 0 55 -6 99 -26l51 -22c22 -11 37 -19 56 -19c22 0 28 13 28 42v20h114v-20zM745 0h-227l-190 327
c-18 30 -35 63 -49 92h-3c2 -34 2 -71 2 -106v-313h-211v591l-44 5v147h265l195 -323c19 -29 37 -65 51 -96h2c-3 26 -4 69 -4 113v306h213v-743z" />
    <glyph glyph-name="Scaron.alt" horiz-adv-x="677" 
d="M84 932h183l78 -73l77 73h184l-135 -143h-252zM62 6v142c83 -5 153 -10 245 -10c69 0 96 21 96 65c0 34 -15 46 -80 73l-98 42c-110 46 -183 97 -183 228c0 156 112 215 313 215c103 0 207 -16 258 -27v-179h-134l-11 50c-33 1 -68 2 -100 2c-65 0 -98 -12 -98 -53
c0 -30 17 -43 79 -68l95 -38c134 -53 191 -110 191 -232c0 -165 -116 -234 -294 -234c-112 0 -221 12 -279 24z" />
    <glyph glyph-name="Uacute.alt" horiz-adv-x="796" 
d="M654 932l-174 -143h-199l132 143h241zM734 298c0 -214 -127 -316 -336 -316c-210 0 -336 102 -336 316v294l-44 4v147h275v-442c0 -113 21 -154 105 -154s105 41 105 154v442h231v-445z" />
    <glyph glyph-name="Ucircumflex.alt" horiz-adv-x="796" 
d="M659 789h-184l-77 73l-78 -73h-183l135 143h252zM734 298c0 -214 -127 -316 -336 -316c-210 0 -336 102 -336 316v294l-44 4v147h275v-442c0 -113 21 -154 105 -154s105 41 105 154v442h231v-445z" />
    <glyph glyph-name="Udieresis.alt" horiz-adv-x="796" 
d="M616 796h-169v131h169v-131zM349 927v-131h-169v131h169zM734 298c0 -214 -127 -316 -336 -316c-210 0 -336 102 -336 316v294l-44 4v147h275v-442c0 -113 21 -154 105 -154s105 41 105 154v442h231v-445z" />
    <glyph glyph-name="Ugrave.alt" horiz-adv-x="796" 
d="M513 789h-198l-176 143h243zM734 298c0 -214 -127 -316 -336 -316c-210 0 -336 102 -336 316v294l-44 4v147h275v-442c0 -113 21 -154 105 -154s105 41 105 154v442h231v-445z" />
    <glyph glyph-name="Zcaron.alt" horiz-adv-x="674" 
d="M84 932h184l77 -73l78 73h183l-134 -143h-253zM625 162v-162h-576v159l295 422h-152l-9 -46h-127v208h563v-162l-295 -419h301z" />
    <glyph glyph-name="aacute.alt" horiz-adv-x="642" 
d="M583 780l-174 -143h-200l133 143h241zM584 0h-196v37c-39 -26 -108 -52 -182 -52c-109 0 -168 58 -168 165v24c0 156 125 170 291 170h38v29c0 59 -13 71 -92 71c-17 0 -32 -1 -49 -1l-10 -40h-133v152c40 13 139 38 242 38c175 0 259 -54 259 -220v-373zM377 133v113
h-46c-61 0 -89 -7 -89 -63v-21c0 -39 21 -50 52 -50c34 0 67 13 83 21z" />
    <glyph glyph-name="acircumflex.alt" horiz-adv-x="642" 
d="M600 637h-184l-77 73l-78 -73h-183l135 143h253zM584 0h-196v37c-39 -26 -108 -52 -182 -52c-109 0 -168 58 -168 165v24c0 156 125 170 291 170h38v29c0 59 -13 71 -92 71c-17 0 -32 -1 -49 -1l-10 -40h-133v152c40 13 139 38 242 38c175 0 259 -54 259 -220v-373z
M377 133v113h-46c-61 0 -89 -7 -89 -63v-21c0 -39 21 -50 52 -50c34 0 67 13 83 21z" />
    <glyph glyph-name="adieresis.alt" horiz-adv-x="642" 
d="M554 647h-169v131h169v-131zM287 778v-131h-170v131h170zM584 0h-196v37c-39 -26 -108 -52 -182 -52c-109 0 -168 58 -168 165v24c0 156 125 170 291 170h38v29c0 59 -13 71 -92 71c-17 0 -32 -1 -49 -1l-10 -40h-133v152c40 13 139 38 242 38c175 0 259 -54 259 -220
v-373zM377 133v113h-46c-61 0 -89 -7 -89 -63v-21c0 -39 21 -50 52 -50c34 0 67 13 83 21z" />
    <glyph glyph-name="agrave.alt" horiz-adv-x="642" 
d="M476 637h-199l-175 143h242zM584 0h-196v37c-39 -26 -108 -52 -182 -52c-109 0 -168 58 -168 165v24c0 156 125 170 291 170h38v29c0 59 -13 71 -92 71c-17 0 -32 -1 -49 -1l-10 -40h-133v152c40 13 139 38 242 38c175 0 259 -54 259 -220v-373zM377 133v113h-46
c-61 0 -89 -7 -89 -63v-21c0 -39 21 -50 52 -50c34 0 67 13 83 21z" />
    <glyph glyph-name="ampersand.alt" horiz-adv-x="865" 
d="M814 0h-203l-35 32c-43 -27 -119 -49 -226 -49c-170 0 -302 44 -302 205v6c0 88 45 149 144 198l-10 10c-64 61 -94 107 -94 169v7c0 127 95 183 291 183s288 -56 288 -183v-7c0 -80 -40 -147 -190 -213l121 -115c14 35 19 75 19 117v13h161v-13c0 -80 -14 -158 -61 -223
l97 -93v-44zM468 132l-146 143c-38 -22 -51 -49 -51 -83v-5c0 -54 45 -76 104 -76c40 0 71 8 93 21zM447 556v6c0 37 -23 48 -68 48s-72 -12 -72 -48v-6c0 -32 10 -47 52 -87l13 -13c65 43 75 68 75 100z" />
    <glyph glyph-name="aring.alt" horiz-adv-x="642" 
d="M492 748c0 -80 -65 -127 -155 -127s-156 47 -156 127c0 81 66 127 156 127s155 -46 155 -127zM392 748c0 31 -22 46 -55 46c-32 0 -55 -15 -55 -46c0 -30 22 -45 55 -45s55 15 55 45zM584 0h-196v37c-39 -26 -108 -52 -182 -52c-109 0 -168 58 -168 165v24
c0 156 125 170 291 170h38v29c0 59 -13 71 -92 71c-17 0 -32 -1 -49 -1l-10 -40h-133v152c40 13 139 38 242 38c175 0 259 -54 259 -220v-373zM377 133v113h-46c-61 0 -89 -7 -89 -63v-21c0 -39 21 -50 52 -50c34 0 67 13 83 21z" />
    <glyph glyph-name="atilde.alt" horiz-adv-x="642" 
d="M577 780c0 -111 -63 -145 -129 -145c-28 0 -61 6 -107 26l-50 23c-22 11 -37 17 -52 17c-23 0 -29 -13 -29 -42v-20h-116v20c0 111 65 145 134 145c32 0 56 -6 100 -25l50 -23c22 -10 38 -18 56 -18c23 0 29 13 29 42v20h114v-20zM584 0h-196v37
c-39 -26 -108 -52 -182 -52c-109 0 -168 58 -168 165v24c0 156 125 170 291 170h38v29c0 59 -13 71 -92 71c-17 0 -32 -1 -49 -1l-10 -40h-133v152c40 13 139 38 242 38c175 0 259 -54 259 -220v-373zM377 133v113h-46c-61 0 -89 -7 -89 -63v-21c0 -39 21 -50 52 -50
c34 0 67 13 83 21z" />
    <glyph glyph-name="ccedilla.alt" horiz-adv-x="560" 
d="M424 -60l-129 -140h-194l100 140h223zM521 8c-40 -10 -110 -23 -206 -23c-188 0 -272 91 -272 276v57c0 188 84 275 272 275c99 0 179 -15 206 -23v-173h-127l-8 40c-11 0 -25 1 -34 1c-64 0 -94 -19 -94 -120v-57c0 -102 30 -122 98 -122c37 0 86 3 165 7v-138z" />
    <glyph glyph-name="dotlessi.alt" 
d="M283 0h-217v429l-41 6v143h258v-578z" />
    <glyph glyph-name="iacute.alt" 
d="M283 0h-217v429l-41 6v143h258v-578zM426 780l-175 -143h-199l132 143h242z" />
    <glyph glyph-name="icircumflex.alt" 
d="M283 0h-217v429l-41 6v143h258v-578zM436 637h-184l-77 73l-78 -73h-183l135 143h252z" />
    <glyph glyph-name="idieresis.alt" 
d="M283 0h-217v429l-41 6v143h258v-578zM393 646h-170v131h170v-131zM126 777v-131h-170v131h170z" />
    <glyph glyph-name="igrave.alt" 
d="M283 0h-217v429l-41 6v143h258v-578zM305 637h-199l-175 143h242z" />
    <glyph glyph-name="lslash.alt" horiz-adv-x="367" 
d="M362 504l-74 -64v-440h-217v263l-73 -63v132l73 64v237l-40 5v144h257v-209l74 64v-133z" />
    <glyph glyph-name="ntilde.alt" horiz-adv-x="709" 
d="M601 780c0 -111 -63 -145 -130 -145c-28 0 -60 6 -106 26l-50 23c-22 11 -38 17 -53 17c-22 0 -29 -13 -29 -42v-20h-115v20c0 111 65 145 134 145c32 0 55 -6 100 -25l50 -23c22 -10 37 -18 56 -18c22 0 28 13 28 42v20h115v-20zM649 0h-217v365c0 57 -10 76 -55 76
c-28 0 -64 -11 -97 -26v-415h-216v429l-42 6v143h243v-47c55 37 122 62 188 62c185 0 196 -109 196 -228v-365z" />
    <glyph glyph-name="scaron.alt" horiz-adv-x="573" 
d="M36 780h184l77 -72l78 72h183l-134 -143h-253zM49 7v121c49 -3 132 -10 203 -10c57 0 75 13 75 43c0 26 -14 32 -75 54l-47 17c-108 40 -167 89 -167 189c0 139 103 172 252 172c89 0 187 -12 231 -24v-145h-135l-9 36c-20 0 -45 1 -64 1c-45 0 -64 -6 -64 -33
c0 -26 21 -34 64 -49l55 -20c124 -46 171 -91 171 -190c0 -130 -99 -184 -274 -184c-82 0 -177 13 -216 22z" />
    <glyph glyph-name="uacute.alt" horiz-adv-x="712" 
d="M612 780l-174 -143h-200l133 143h241zM431 578h217v-578h-202v47c-53 -34 -120 -62 -203 -62c-167 0 -180 115 -180 229v216l-41 6v142h257v-364c0 -58 11 -77 57 -77c26 0 63 12 95 25v416z" />
    <glyph glyph-name="ucircumflex.alt" horiz-adv-x="712" 
d="M617 637h-183l-78 73l-77 -73h-184l135 143h253zM431 578h217v-578h-202v47c-53 -34 -120 -62 -203 -62c-167 0 -180 115 -180 229v216l-41 6v142h257v-364c0 -58 11 -77 57 -77c26 0 63 12 95 25v416z" />
    <glyph glyph-name="udieresis.alt" horiz-adv-x="712" 
d="M573 646h-170v131h170v-131zM306 777v-131h-170v131h170zM431 578h217v-578h-202v47c-53 -34 -120 -62 -203 -62c-167 0 -180 115 -180 229v216l-41 6v142h257v-364c0 -58 11 -77 57 -77c26 0 63 12 95 25v416z" />
    <glyph glyph-name="ugrave.alt" horiz-adv-x="712" 
d="M484 637h-199l-175 143h242zM431 578h217v-578h-202v47c-53 -34 -120 -62 -203 -62c-167 0 -180 115 -180 229v216l-41 6v142h257v-364c0 -58 11 -77 57 -77c26 0 63 12 95 25v416z" />
    <glyph glyph-name="yacute.alt" horiz-adv-x="711" 
d="M647 -9c0 -132 -72 -205 -296 -205c-123 0 -233 20 -254 26v119c67 -3 164 -9 232 -9c92 0 102 20 102 69v15c-19 -2 -54 -6 -81 -6c-185 0 -287 84 -287 269l1 309h214v-309c0 -83 23 -116 91 -116c25 0 53 2 64 4v421h214v-587zM613 780l-174 -143h-199l132 143h241z
" />
    <glyph glyph-name="ydieresis.alt" horiz-adv-x="711" 
d="M647 -9c0 -132 -72 -205 -297 -205c-122 0 -232 20 -253 26v119c67 -3 164 -9 232 -9c92 0 102 20 102 69v15c-19 -2 -54 -6 -81 -6c-185 0 -287 84 -287 269v309h215v-309c0 -83 22 -116 91 -116c24 0 52 2 64 4v421h214v-587zM576 646h-169v131h169v-131zM309 777v-131
h-170v131h170z" />
    <glyph glyph-name="zcaron.alt" horiz-adv-x="579" 
d="M35 780h184l77 -72l78 72h183l-134 -143h-253zM537 143v-143h-497v139l250 294h-121l-9 -36h-113v181h489v-144l-245 -291h246z" />
    <glyph glyph-name="two.alt" horiz-adv-x="681" 
d="M622 160v-160h-575v91c0 191 55 256 222 343c114 59 130 78 130 118c0 42 -26 56 -115 56c-19 0 -53 -1 -87 -3l-7 -55h-134v177c71 21 190 34 271 34c220 0 310 -62 310 -195c0 -104 -55 -166 -213 -244c-133 -65 -148 -84 -148 -154v-8h346z" />
    <glyph glyph-name="three.alt" horiz-adv-x="679" 
d="M635 207c0 -162 -98 -225 -316 -225c-106 0 -219 19 -268 36v133c61 -4 164 -13 241 -13c76 0 110 11 110 80v14c0 49 -16 74 -103 74h-196v141h197c85 0 102 27 102 76v9c0 61 -25 74 -110 74c-32 0 -67 -1 -98 -2l-8 -54h-134v175c47 16 163 36 267 36
c196 0 316 -51 316 -210v-10c0 -65 -24 -128 -87 -162c64 -32 87 -96 87 -157v-15z" />
    <glyph glyph-name="five.alt" horiz-adv-x="668" 
d="M624 225c0 -179 -124 -243 -313 -243c-118 0 -219 19 -267 32v136c62 -6 151 -16 211 -16c100 0 135 19 135 89v16c0 62 -29 81 -131 81h-212l37 423h519v-197h-132l-7 42h-194l-10 -123h54c245 0 310 -69 310 -224v-16z" />
    <glyph glyph-name="six.alt" horiz-adv-x="717" 
d="M672 233c0 -183 -128 -251 -312 -251c-240 0 -316 112 -316 313v155c1 191 51 311 320 311c111 0 224 -19 270 -31v-178h-132l-9 52c-31 1 -65 3 -97 3c-110 0 -121 -35 -121 -120v-21c29 7 80 11 111 11c171 0 286 -39 286 -217v-27zM442 232v26c0 73 -23 90 -83 90
c-22 0 -57 -3 -84 -9v-84c0 -98 27 -128 86 -128c51 0 81 33 81 105z" />
    <glyph glyph-name="seven.alt" horiz-adv-x="686" 
d="M649 576l-328 -576h-246l341 588h-220l-8 -48h-132v203h593v-167z" />
    <glyph glyph-name="dotlessj" 
d="M283 -22c0 -148 -61 -194 -207 -194c-48 0 -93 5 -113 9v128c22 0 37 -1 55 -1c41 0 48 13 48 58v600h217v-600z" />
    <glyph glyph-name="zero.tab" horiz-adv-x="750" 
d="M702 336c0 -226 -97 -354 -326 -354c-230 0 -326 128 -326 354v70c0 226 96 355 326 355c229 0 326 -129 326 -355v-70zM466 336v70c0 156 -31 190 -90 190s-90 -34 -90 -190v-70c0 -156 31 -190 90 -190s90 34 90 190z" />
    <glyph glyph-name="one.tab" horiz-adv-x="750" 
d="M671 0h-578v147l173 8v403l-173 -38v153l238 72h168v-590l172 -8v-147z" />
    <glyph glyph-name="two.tab" horiz-adv-x="750" 
d="M653 0h-575v91c0 191 55 256 222 343c115 59 131 78 131 118c0 42 -26 56 -115 56c-78 0 -186 -6 -226 -11v130c83 23 192 34 269 34c219 0 310 -62 310 -195c0 -104 -56 -166 -213 -244c-133 -65 -149 -84 -149 -154v-8h346v-160z" />
    <glyph glyph-name="three.tab" horiz-adv-x="750" 
d="M669 207c0 -162 -98 -225 -315 -225c-104 0 -220 19 -269 36v132c59 -6 155 -12 241 -12c76 0 110 11 110 80v14c0 49 -15 74 -103 74h-196v141h197c85 0 102 27 102 76v9c0 61 -25 74 -110 74c-91 0 -172 -5 -239 -10v129c46 16 162 36 267 36c195 0 315 -51 315 -210
v-10c0 -65 -24 -128 -87 -162c65 -32 87 -96 87 -157v-15z" />
    <glyph glyph-name="four.tab" horiz-adv-x="750" 
d="M704 158h-91v-158h-234v158h-336v142l384 443h186v-438h91v-147zM392 305v212l-173 -212h173z" />
    <glyph glyph-name="five.tab" horiz-adv-x="750" 
d="M666 225c0 -179 -123 -243 -313 -243c-120 0 -221 19 -267 31v134c50 -5 127 -13 211 -13c100 0 132 19 132 89v16c0 62 -26 81 -127 81h-212l36 423h519v-155h-333l-10 -123h55c245 0 309 -69 309 -224v-16z" />
    <glyph glyph-name="seven.tab" horiz-adv-x="750" 
d="M680 576l-328 -576h-246l341 588h-360v155h593v-167z" />
    <glyph glyph-name="six.tab" horiz-adv-x="750" 
d="M688 233c0 -183 -128 -251 -312 -251c-240 0 -316 112 -316 313v155c1 191 51 311 319 311c112 0 225 -19 271 -31v-135c-87 7 -148 12 -239 12c-109 0 -120 -35 -120 -120v-21c29 7 79 11 111 11c171 0 286 -39 286 -217v-27zM458 232v26c0 73 -24 90 -83 90
c-22 0 -57 -3 -84 -9v-84c0 -98 27 -128 86 -128c51 0 81 33 81 105z" />
    <glyph glyph-name="eight.tab" horiz-adv-x="750" 
d="M700 212c0 -202 -140 -230 -323 -230h-6c-183 0 -323 28 -323 230v7c0 76 26 126 82 163c-50 33 -81 79 -81 159v8c0 177 132 212 322 212h6c189 0 321 -35 321 -212v-8c0 -80 -30 -126 -80 -159c56 -37 82 -87 82 -163v-7zM471 216v7c0 68 -16 95 -68 95h-59
c-52 0 -67 -27 -67 -95v-7c0 -76 33 -94 94 -94h6c60 0 94 18 94 94zM469 533v8c0 60 -33 79 -92 79h-6c-60 0 -93 -19 -93 -79v-8c0 -53 13 -84 66 -84h59c53 0 66 31 66 84z" />
    <glyph glyph-name="nine.tab" horiz-adv-x="750" 
d="M683 297c0 -190 -51 -315 -319 -315c-112 0 -225 19 -271 30v135c68 -5 149 -11 245 -11c103 0 114 36 114 119v22c-29 -7 -79 -12 -111 -12c-171 0 -286 41 -286 217v27c0 182 128 252 312 252c240 0 316 -108 316 -306v-158zM452 404v84c0 98 -26 127 -87 127
c-51 0 -81 -33 -81 -105v-25c0 -73 25 -90 84 -90c22 0 57 2 84 9z" />
    <glyph glyph-name="uni2215" unicode="&#x2215;" horiz-adv-x="628" 
d="M657 746l-508 -746h-177l509 746h176z" />
    <glyph glyph-name="dieresisacute" horiz-adv-x="710" 
d="M170 647h-154v131h154v-131zM196 636l94 151h227l-137 -151h-184zM694 647h-154v131h154v-131z" />
    <glyph glyph-name="middot" horiz-adv-x="316" 
d="M259 280h-202v176h202v-176z" />
    <glyph glyph-name="dieresisgrave" horiz-adv-x="710" 
d="M694 647h-155v130h155v-130zM420 786l93 -150h-184l-136 150h227zM170 647h-154v130h154v-130z" />
    <glyph glyph-name="threequartersemdash" horiz-adv-x="667" 
d="M617 213h-568v127h568v-127z" />
    <glyph glyph-name="overscore" horiz-adv-x="684" 
d="M666 816h-649v102h649v-102z" />
    <glyph glyph-name="franc.taboldstyle" horiz-adv-x="675" 
d="M349 0h-233v94h-55v93h55v441h498v-152h-265v-88h259v-141h-259v-60h128v-93h-128v-94z" />
    <glyph glyph-name="lira.taboldstyle" horiz-adv-x="637" 
d="M573 613v-135c-53 3 -93 5 -139 5c-84 0 -97 -13 -97 -73v-17h151v-68h-151v-53h151v-68h-151v-9c0 -19 -5 -37 -14 -52h250v-143h-488v114c29 25 40 47 40 82v8h-63v68h63v53h-63v68h63v16c0 161 80 221 247 221c73 0 141 -5 201 -17z" />
    <glyph glyph-name="currency.taboldstyle" horiz-adv-x="665" 
d="M621 117l-84 -80l-83 79c-36 -21 -78 -31 -119 -31c-43 0 -83 10 -122 31l-86 -82l-84 81l86 81c-21 35 -32 75 -32 116c0 39 10 78 32 114l-86 82l84 79l86 -81c37 21 80 32 122 32s83 -10 120 -31l83 78l84 -80l-83 -79c22 -36 35 -75 35 -115s-12 -80 -35 -116z
M453 312c0 73 -54 115 -119 115c-66 0 -119 -42 -119 -115c0 -74 56 -115 119 -115s119 41 119 115z" />
    <glyph glyph-name="peseta.taboldstyle" horiz-adv-x="741" 
d="M294 0h-212v351h-49v118h49v148c79 9 179 14 253 14c162 0 294 -29 320 -162h53v-118h-53c-30 -131 -157 -161 -296 -161c-21 0 -39 1 -65 2v-192zM447 408v10c0 51 -31 62 -95 62c-18 0 -47 -1 -58 -2v-133c13 -1 39 -2 57 -2c63 0 96 16 96 65z" />
    <glyph glyph-name="commaaccent.alt" horiz-adv-x="470" 
d="M385 788l-68 -140h-218l99 140h187z" />
    <glyph glyph-name="undercommaaccent" horiz-adv-x="474" 
d="M373 -60l-102 -140h-189l72 140h219z" />
    <glyph glyph-name="DieresisAcute" horiz-adv-x="710" 
d="M170 798h-154v131h154v-131zM196 787l94 151h227l-137 -151h-184zM694 798h-154v131h154v-131z" />
    <glyph glyph-name="DieresisGrave" horiz-adv-x="710" 
d="M694 798h-154v131h154v-131zM420 938l94 -151h-184l-137 151h227zM170 798h-154v131h154v-131z" />
    <glyph glyph-name="cyrBreve" horiz-adv-x="542" 
d="M498 795c-16 -125 -136 -160 -227 -160s-211 35 -228 160h119c9 -55 57 -69 109 -69s100 14 109 69h118z" />
    <glyph glyph-name="cyrFlex" horiz-adv-x="542" 
d="M498 636h-118c-9 55 -57 69 -109 69s-100 -14 -109 -69h-119c17 125 137 161 228 161s210 -36 227 -161z" />
    <glyph glyph-name="dblGrave" horiz-adv-x="703" 
d="M596 637h-179l-175 143h222zM176 780l132 -143h-179l-175 143h222z" />
    <glyph glyph-name="cyrbreve" horiz-adv-x="542" 
d="M498 795c-17 -125 -136 -160 -227 -160s-211 35 -228 160h119c9 -55 57 -69 109 -69s100 14 109 69h118z" />
    <glyph glyph-name="cyrflex" horiz-adv-x="542" 
d="M498 636h-118c-9 55 -57 69 -109 69s-100 -14 -109 -69h-119c17 125 137 161 228 161s210 -36 227 -161z" />
    <glyph glyph-name="dblgrave" horiz-adv-x="703" 
d="M596 637h-179l-175 143h222zM176 780l132 -143h-179l-175 143h222z" />
    <glyph glyph-name="T_h.caron" horiz-adv-x="1274" 
d="M1211 0h-217v364c0 59 -14 76 -60 76c-35 0 -70 -11 -92 -21v-419h-216v584h-158v-584h-235v584h-209v159h818v-187c48 24 111 37 167 37c177 0 202 -101 202 -228v-365zM618 931l-134 -142h-253l-135 142h184l77 -72l78 72h183z" />
    <glyph glyph-name="T_h.commaaccent" horiz-adv-x="1274" 
d="M1211 0h-217v364c0 59 -14 76 -60 76c-35 0 -70 -11 -92 -21v-419h-216v584h-158v-584h-235v584h-209v159h818v-187c48 24 111 37 167 37c177 0 202 -101 202 -228v-365zM464 -60l-98 -140h-187l67 140h218z" />
    <glyph glyph-name="i.dot" horiz-adv-x="351" 
d="M284 0h-217v578h217v-578zM288 647h-225v135h225v-135z" />
    <glyph glyph-name="Amacron.alt" horiz-adv-x="790" 
d="M615 802h-441v112h441v-112zM19 0l153 590l-48 6v147h456l191 -743h-245l-40 165h-183l-42 -165h-242zM461 318l-44 189c-9 35 -15 76 -20 112h-5c-6 -36 -12 -77 -20 -112l-45 -189h134z" />
    <glyph glyph-name="Abreve.alt" horiz-adv-x="790" 
d="M622 943c-16 -125 -136 -160 -227 -160s-211 35 -228 160h119c9 -55 57 -69 109 -69c53 0 100 14 110 69h117zM19 0l153 590l-48 6v147h456l191 -743h-245l-40 165h-183l-42 -165h-242zM461 318l-44 189c-9 35 -15 76 -20 112h-5c-6 -36 -12 -77 -20 -112l-45 -189h134z
" />
    <glyph glyph-name="Aringacute.alt" horiz-adv-x="790" 
d="M771 0h-245l-40 165h-183l-42 -165h-242l153 590l-48 6v147h456zM461 318l-44 189c-9 35 -15 76 -20 112h-5c-6 -36 -12 -77 -20 -112l-45 -189h134zM553 889c0 -80 -65 -127 -155 -127s-156 47 -156 127c0 81 66 127 156 127s155 -46 155 -127zM453 889
c0 31 -23 46 -55 46c-33 0 -55 -15 -55 -46c0 -30 22 -45 55 -45c32 0 55 15 55 45zM657 1175l-174 -142h-200l133 142h241z" />
    <glyph glyph-name="Aogonek.alt" horiz-adv-x="790" 
d="M771 -197c-29 -8 -91 -21 -168 -21c-109 0 -154 40 -154 104c0 43 24 86 75 118l-38 161h-183l-42 -165h-242l153 590l-48 6v147h456l191 -743c-112 -36 -137 -59 -137 -79c0 -21 14 -30 51 -30c30 0 61 3 86 5v-93zM461 318l-44 189c-8 35 -15 76 -20 112h-5
c-6 -36 -12 -77 -20 -112l-45 -189h134z" />
    <glyph glyph-name="AE.alt" horiz-adv-x="1067" 
d="M1021 0h-538v165h-161l-41 -165h-238l148 586l-48 5v152h878v-158h-305v-133h283v-148h-283v-147h305v-157zM483 317v300h-71c-6 -34 -13 -74 -21 -107l-45 -193h137z" />
    <glyph glyph-name="AEacute.alt" horiz-adv-x="1067" 
d="M1021 0h-538v165h-161l-41 -165h-238l148 586l-48 5v152h878v-158h-305v-133h283v-148h-283v-147h305v-157zM483 317v300h-71c-6 -34 -13 -74 -21 -107l-45 -193h137zM846 932l-174 -143h-200l133 143h241z" />
    <glyph glyph-name="Cacute.alt" horiz-adv-x="646" 
d="M624 932l-175 -143h-199l132 143h242zM613 158v-154c-40 -12 -158 -22 -217 -22c-233 0 -350 83 -350 355v70c0 271 117 354 350 354c59 0 177 -11 217 -22v-202h-137l-8 52c-14 1 -29 1 -43 1c-95 0 -142 -29 -142 -183v-70c0 -156 47 -185 142 -185c67 0 139 3 188 6z
" />
    <glyph glyph-name="Ccircumflex.alt" horiz-adv-x="646" 
d="M618 789h-184l-77 73l-78 -73h-183l135 143h252zM613 158v-154c-40 -12 -158 -22 -217 -22c-233 0 -350 83 -350 355v70c0 271 117 354 350 354c59 0 177 -11 217 -22v-202h-137l-8 52c-14 1 -29 1 -43 1c-95 0 -142 -29 -142 -183v-70c0 -156 47 -185 142 -185
c67 0 139 3 188 6z" />
    <glyph glyph-name="Ccaron.alt" horiz-adv-x="646" 
d="M104 932h183l78 -73l77 73h184l-135 -143h-252zM613 158v-154c-40 -12 -158 -22 -217 -22c-233 0 -350 83 -350 355v70c0 271 117 354 350 354c59 0 177 -11 217 -22v-202h-137l-8 52c-14 1 -29 1 -43 1c-95 0 -142 -29 -142 -183v-70c0 -156 47 -185 142 -185
c67 0 139 3 188 6z" />
    <glyph glyph-name="Cdotaccent.alt" horiz-adv-x="646" 
d="M474 796h-225v130h225v-130zM613 158v-154c-40 -12 -158 -22 -217 -22c-233 0 -350 83 -350 355v70c0 271 117 354 350 354c59 0 177 -11 217 -22v-202h-137l-8 52c-14 1 -29 1 -43 1c-95 0 -142 -29 -142 -183v-70c0 -156 47 -185 142 -185c67 0 139 3 188 6z" />
    <glyph glyph-name="Dcaron.alt" horiz-adv-x="771" 
d="M114 932h184l77 -73l78 73h183l-134 -143h-253zM67 0v592l-47 6v145c100 9 220 13 327 13c260 0 378 -100 378 -353v-59c0 -257 -115 -357 -378 -357c-104 0 -179 4 -280 13zM494 344v59c0 154 -32 188 -139 188h-60v-439h60c107 0 139 38 139 192z" />
    <glyph glyph-name="Dcroat.alt" horiz-adv-x="771" 
d="M725 344c0 -257 -115 -357 -378 -357c-97 0 -185 4 -280 13v307h-49v145h49v140l-47 6v145c101 9 223 13 327 13c260 0 378 -100 378 -353v-59zM494 344v59c0 154 -32 188 -139 188h-60v-139h90v-145h-90v-155h60c107 0 139 38 139 192z" />
    <glyph glyph-name="Ecaron.alt" horiz-adv-x="653" 
d="M79 932h183l78 -73l77 73h184l-135 -143h-252zM607 585h-305v-133h283v-148h-283v-147h305v-157h-540v591l-42 5v147h582v-158z" />
    <glyph glyph-name="Emacron.alt" horiz-adv-x="653" 
d="M547 802h-442v112h442v-112zM607 585h-305v-133h283v-148h-283v-147h305v-157h-540v591l-42 5v147h582v-158z" />
    <glyph glyph-name="Ebreve.alt" horiz-adv-x="653" 
d="M559 943c-16 -125 -136 -160 -227 -160c-90 0 -211 35 -227 160h118c9 -55 57 -69 109 -69c53 0 101 14 110 69h117zM607 585h-305v-133h283v-148h-283v-147h305v-157h-540v591l-42 5v147h582v-158z" />
    <glyph glyph-name="Edotaccent.alt" horiz-adv-x="653" 
d="M448 796h-225v130h225v-130zM607 585h-305v-133h283v-148h-283v-147h305v-157h-540v591l-42 5v147h582v-158z" />
    <glyph glyph-name="Eogonek.alt" horiz-adv-x="653" 
d="M607 -197c-29 -8 -91 -21 -160 -21c-103 0 -162 32 -162 100c0 49 40 93 135 118h-353v591l-42 5v147h582v-158h-305v-133h283v-148h-283v-147h305v-157c-113 -36 -138 -59 -138 -79c0 -21 15 -30 51 -30c30 0 61 3 87 5v-93z" />
    <glyph glyph-name="Gcircumflex.alt" horiz-adv-x="740" 
d="M641 789h-184l-77 73l-78 -73h-183l135 143h253zM681 7c-63 -12 -174 -25 -291 -25c-182 0 -344 57 -344 354v71c0 313 181 354 350 354c112 0 233 -19 282 -31v-192h-134l-10 50c-25 1 -63 2 -91 2c-113 0 -167 -20 -167 -183v-71c0 -146 34 -185 120 -185
c24 0 50 0 70 2v126l-65 8v120h280v-400z" />
    <glyph glyph-name="Gbreve.alt" horiz-adv-x="740" 
d="M614 950c-16 -125 -136 -161 -227 -161s-211 36 -228 161h119c9 -56 57 -69 109 -69s100 13 109 69h118zM681 7c-63 -12 -174 -25 -291 -25c-182 0 -344 57 -344 354v71c0 313 181 354 350 354c112 0 233 -19 282 -31v-192h-134l-10 50c-25 1 -63 2 -91 2
c-113 0 -167 -20 -167 -183v-71c0 -146 34 -185 120 -185c24 0 50 0 70 2v126l-65 8v120h280v-400z" />
    <glyph glyph-name="Gdotaccent.alt" horiz-adv-x="740" 
d="M499 796h-226v130h226v-130zM681 7c-63 -12 -174 -25 -291 -25c-182 0 -344 57 -344 354v71c0 313 181 354 350 354c112 0 233 -19 282 -31v-192h-134l-10 50c-25 1 -63 2 -91 2c-113 0 -167 -20 -167 -183v-71c0 -146 34 -185 120 -185c24 0 50 0 70 2v126l-65 8v120
h280v-400z" />
    <glyph glyph-name="Gcommaaccent.alt" horiz-adv-x="740" 
d="M514 -60l-98 -140h-187l67 140h218zM681 7c-63 -12 -174 -25 -291 -25c-182 0 -344 57 -344 354v71c0 313 181 354 350 354c112 0 233 -19 282 -31v-192h-134l-10 50c-25 1 -63 2 -91 2c-113 0 -167 -20 -167 -183v-71c0 -146 34 -185 120 -185c24 0 50 0 70 2v126l-65 8
v120h280v-400z" />
    <glyph glyph-name="Hbar.alt" horiz-adv-x="838" 
d="M771 0h-236v298h-233v-298h-235v487h-60v83h60v21l-44 5v147h279v-173h233v173h236v-173h57v-83h-57v-487zM302 464h233v23h-233v-23z" />
    <glyph glyph-name="Hcircumflex.alt" horiz-adv-x="838" 
d="M679 789h-184l-77 73l-78 -73h-184l135 143h253zM771 0h-236v298h-233v-298h-235v591l-44 5v147h279v-279h233v279h236v-743z" />
    <glyph glyph-name="Itilde.alt" horiz-adv-x="387" 
d="M435 930c0 -111 -64 -145 -130 -145c-28 0 -61 7 -106 27l-50 23c-22 10 -38 17 -53 17c-22 0 -29 -14 -29 -42v-21h-115v21c0 111 64 145 134 145c31 0 55 -6 99 -26l51 -22c22 -11 37 -19 56 -19c22 0 28 13 28 42v20h115v-20zM355 0h-323v147l44 4v440l-44 5v147h323
v-147l-44 -5v-440l44 -4v-147z" />
    <glyph glyph-name="Imacron.alt" horiz-adv-x="387" 
d="M413 802h-441v112h441v-112zM355 0h-323v147l44 4v440l-44 5v147h323v-147l-44 -5v-440l44 -4v-147z" />
    <glyph glyph-name="Ibreve.alt" horiz-adv-x="387" 
d="M420 943c-16 -125 -136 -160 -227 -160c-90 0 -211 35 -227 160h118c9 -55 57 -69 109 -69c53 0 101 14 110 69h117zM355 0h-323v147l44 4v440l-44 5v147h323v-147l-44 -5v-440l44 -4v-147z" />
    <glyph glyph-name="Idotaccent.alt" horiz-adv-x="387" 
d="M307 796h-225v130h225v-130zM355 0h-323v147l44 4v440l-44 5v147h323v-147l-44 -5v-440l44 -4v-147z" />
    <glyph glyph-name="Iogonek.alt" horiz-adv-x="387" 
d="M355 0c-118 -36 -143 -59 -143 -79c0 -21 14 -30 51 -30c30 0 61 3 86 5v-93c-29 -8 -91 -21 -160 -21c-102 0 -162 32 -162 100c0 49 41 93 136 118h-131v147l44 4v440l-44 5v147h323v-147l-44 -5v-440l44 -4v-147z" />
    <glyph glyph-name="IJ.alt" horiz-adv-x="759" 
d="M355 0h-323v147l44 4v440l-44 5v147h323v-147l-44 -5v-440l44 -4v-147zM727 596l-44 -5v-599c0 -148 -73 -205 -220 -205c-37 0 -85 3 -112 10v129h46c45 0 51 14 51 56v609l-43 5v147h322v-147z" />
    <glyph glyph-name="Jcircumflex.alt" horiz-adv-x="386" 
d="M454 789h-184l-77 73l-78 -73h-183l135 143h253zM354 596l-44 -5v-599c0 -148 -72 -205 -220 -205c-36 0 -85 3 -112 10v129h47c45 0 51 14 51 56v609l-44 5v147h322v-147z" />
    <glyph glyph-name="Kcommaaccent.alt" horiz-adv-x="791" 
d="M521 -60l-99 -140h-187l68 140h218zM788 0h-276l-208 340v-340h-235v591l-42 5v147h277v-341l222 341h266l-249 -368z" />
    <glyph glyph-name="Nacute.alt" horiz-adv-x="812" 
d="M679 932l-174 -143h-200l133 143h241zM767 0h-227l-190 327c-18 30 -35 63 -49 92h-3c2 -34 2 -71 2 -106v-313h-211v591l-44 5v147h265l195 -323c19 -29 37 -65 51 -96h2c-3 26 -4 69 -4 113v306h213v-743z" />
    <glyph glyph-name="Ncaron.alt" horiz-adv-x="812" 
d="M165 932h184l77 -73l78 73h183l-134 -143h-253zM767 0h-227l-190 327c-18 30 -35 63 -49 92h-3c2 -34 2 -71 2 -106v-313h-211v591l-44 5v147h265l195 -323c19 -29 37 -65 51 -96h2c-3 26 -4 69 -4 113v306h213v-743z" />
    <glyph glyph-name="Ncommaaccent.alt" horiz-adv-x="812" 
d="M532 -60l-99 -140h-187l68 140h218zM745 0h-227l-190 327c-18 30 -35 63 -49 92h-3c2 -34 2 -71 2 -106v-313h-211v591l-44 5v147h265l195 -323c19 -29 37 -65 51 -96h2c-3 26 -4 69 -4 113v306h213v-743z" />
    <glyph glyph-name="Racute.alt" horiz-adv-x="758" 
d="M602 932l-174 -143h-200l133 143h241zM747 0h-228l-131 255h-46h-51v-255h-224v591l-44 5v147c80 6 195 12 317 12c193 0 362 -36 362 -248v-6c0 -107 -40 -166 -107 -205zM290 405h61c92 0 125 24 125 92v6c0 71 -34 89 -128 89h-58v-187z" />
    <glyph glyph-name="Rcaron.alt" horiz-adv-x="758" 
d="M110 932h184l77 -73l78 73h183l-134 -143h-253zM747 0h-228l-131 255h-46h-51v-255h-224v591l-44 5v147c80 6 195 12 317 12c193 0 362 -36 362 -248v-6c0 -107 -40 -166 -107 -205zM290 405h61c92 0 125 24 125 92v6c0 71 -34 89 -128 89h-58v-187z" />
    <glyph glyph-name="Rcommaaccent.alt" horiz-adv-x="758" 
d="M512 -60l-99 -140h-187l68 140h218zM747 0h-228l-131 255h-46h-51v-255h-224v591l-44 5v147c80 6 195 12 317 12c193 0 362 -36 362 -248v-6c0 -107 -40 -166 -107 -205zM290 405h61c92 0 125 24 125 92v6c0 71 -34 89 -128 89h-58v-187z" />
    <glyph glyph-name="Sacute.alt" horiz-adv-x="677" 
d="M589 932l-174 -143h-199l132 143h241zM62 6v142c83 -5 153 -10 245 -10c69 0 96 21 96 65c0 34 -15 46 -80 73l-98 42c-110 46 -183 97 -183 228c0 156 112 215 313 215c103 0 207 -16 258 -27v-179h-134l-11 50c-33 1 -68 2 -100 2c-65 0 -98 -12 -98 -53
c0 -30 17 -43 79 -68l95 -38c134 -53 191 -110 191 -232c0 -165 -116 -234 -294 -234c-112 0 -221 12 -279 24z" />
    <glyph glyph-name="Scircumflex.alt" horiz-adv-x="677" 
d="M603 789h-184l-77 73l-78 -73h-183l135 143h252zM62 6v142c83 -5 153 -10 245 -10c69 0 96 21 96 65c0 34 -15 46 -80 73l-98 42c-110 46 -183 97 -183 228c0 156 112 215 313 215c103 0 207 -16 258 -27v-179h-134l-11 50c-33 1 -68 2 -100 2c-65 0 -98 -12 -98 -53
c0 -30 17 -43 79 -68l95 -38c134 -53 191 -110 191 -232c0 -165 -116 -234 -294 -234c-112 0 -221 12 -279 24z" />
    <glyph glyph-name="Scedilla.alt" horiz-adv-x="677" 
d="M464 -60l-129 -140h-193l100 140h222zM62 6v142c83 -5 153 -10 245 -10c69 0 96 21 96 65c0 34 -15 46 -80 73l-98 42c-110 46 -183 97 -183 228c0 156 112 215 313 215c103 0 207 -16 258 -27v-179h-134l-11 50c-33 1 -68 2 -100 2c-65 0 -98 -12 -98 -53
c0 -30 17 -43 79 -68l95 -38c134 -53 191 -110 191 -232c0 -165 -116 -234 -294 -234c-112 0 -221 12 -279 24z" />
    <glyph glyph-name="Scommaaccent.alt" horiz-adv-x="677" 
d="M486 -60l-99 -140h-187l68 140h218zM62 6v142c83 -5 153 -10 245 -10c69 0 96 21 96 65c0 34 -15 46 -80 73l-98 42c-110 46 -183 97 -183 228c0 156 112 215 313 215c103 0 207 -16 258 -27v-179h-134l-11 50c-33 1 -68 2 -100 2c-65 0 -98 -12 -98 -53
c0 -30 17 -43 79 -68l95 -38c134 -53 191 -110 191 -232c0 -165 -116 -234 -294 -234c-112 0 -221 12 -279 24z" />
    <glyph glyph-name="Utilde.alt" horiz-adv-x="796" 
d="M639 930c0 -111 -63 -145 -129 -145c-28 0 -61 7 -106 27l-50 23c-22 10 -38 17 -53 17c-23 0 -29 -14 -29 -42v-21h-116v21c0 111 65 145 135 145c31 0 55 -6 99 -26l50 -22c23 -11 38 -19 56 -19c23 0 29 13 29 42v20h114v-20zM734 298c0 -214 -127 -316 -336 -316
c-210 0 -336 102 -336 316v294l-44 4v147h275v-442c0 -113 21 -154 105 -154s105 41 105 154v442h231v-445z" />
    <glyph glyph-name="Umacron.alt" horiz-adv-x="796" 
d="M618 802h-442v112h442v-112zM734 298c0 -214 -127 -316 -336 -316c-210 0 -336 102 -336 316v294l-44 4v147h275v-442c0 -113 21 -154 105 -154s105 41 105 154v442h231v-445z" />
    <glyph glyph-name="Ubreve.alt" horiz-adv-x="796" 
d="M625 943c-16 -125 -136 -160 -227 -160s-211 35 -228 160h119c9 -55 57 -69 109 -69s100 14 109 69h118zM734 298c0 -214 -127 -316 -336 -316c-210 0 -336 102 -336 316v294l-44 4v147h275v-442c0 -113 21 -154 105 -154s105 41 105 154v442h231v-445z" />
    <glyph glyph-name="Uring.alt" horiz-adv-x="796" 
d="M554 902c0 -80 -65 -126 -155 -126s-156 46 -156 126c0 81 66 128 156 128s155 -47 155 -128zM454 903c0 31 -23 46 -55 46c-33 0 -55 -15 -55 -46c0 -30 22 -46 55 -46c32 0 55 16 55 46zM734 298c0 -214 -127 -316 -336 -316c-210 0 -336 102 -336 316v294l-44 4v147
h275v-442c0 -113 21 -154 105 -154s105 41 105 154v442h231v-445z" />
    <glyph glyph-name="Uhungarumlaut.alt" horiz-adv-x="796" 
d="M812 932l-174 -143h-180l133 143h221zM282 932h222l-174 -143h-180zM734 298c0 -214 -127 -316 -336 -316c-210 0 -336 102 -336 316v294l-44 4v147h275v-442c0 -113 21 -154 105 -154s105 41 105 154v442h231v-445z" />
    <glyph glyph-name="Uogonek.alt" horiz-adv-x="796" 
d="M559 -197c-29 -8 -91 -21 -160 -21c-102 0 -161 30 -161 104c0 40 23 76 73 103c-158 24 -249 125 -249 309v294l-44 4v147h275v-442c0 -113 21 -154 105 -154s105 41 105 154v442h231v-445c0 -176 -86 -277 -232 -307c-66 -29 -80 -52 -80 -70c0 -17 11 -30 51 -30
c30 0 61 3 86 5v-93z" />
    <glyph glyph-name="Zacute.alt" horiz-adv-x="674" 
d="M598 932l-175 -143h-199l132 143h242zM625 162v-162h-576v159l295 422h-152l-9 -46h-127v208h563v-162l-295 -419h301z" />
    <glyph glyph-name="Zdotaccent.alt" horiz-adv-x="674" 
d="M450 796h-225v130h225v-130zM625 162v-162h-576v159l295 422h-152l-9 -46h-127v208h563v-162l-295 -419h301z" />
    <glyph glyph-name="Eng.alt" horiz-adv-x="812" 
d="M767 -8c0 -148 -73 -205 -221 -205c-36 0 -84 3 -112 10v129h47c45 0 51 14 51 56v55l-182 290c-22 35 -35 63 -49 92h-3c2 -33 2 -69 2 -103v-316h-211v591l-44 5v147h265l195 -300c22 -34 37 -65 51 -96h2c-3 26 -4 69 -4 113v283h213v-751z" />
    <glyph glyph-name="amacron.alt" horiz-adv-x="642" 
d="M553 652h-441v111h441v-111zM584 0h-196v37c-39 -26 -108 -52 -182 -52c-109 0 -168 58 -168 165v24c0 156 125 170 291 170h38v29c0 59 -13 71 -92 71c-17 0 -32 -1 -49 -1l-10 -40h-133v152c40 13 139 38 242 38c175 0 259 -54 259 -220v-373zM377 133v113h-46
c-61 0 -89 -7 -89 -63v-21c0 -39 21 -50 52 -50c34 0 67 13 83 21z" />
    <glyph glyph-name="abreve.alt" horiz-adv-x="642" 
d="M567 795c-16 -125 -136 -160 -227 -160s-211 35 -228 160h119c9 -55 57 -69 109 -69s100 14 109 69h118zM584 0h-196v37c-39 -26 -108 -52 -182 -52c-109 0 -168 58 -168 165v24c0 156 125 170 291 170h38v29c0 59 -13 71 -92 71c-17 0 -32 -1 -49 -1l-10 -40h-133v152
c40 13 139 38 242 38c175 0 259 -54 259 -220v-373zM377 133v113h-46c-61 0 -89 -7 -89 -63v-21c0 -39 21 -50 52 -50c34 0 67 13 83 21z" />
    <glyph glyph-name="aringacute.alt" horiz-adv-x="642" 
d="M584 0h-196v37c-39 -26 -108 -52 -182 -52c-109 0 -168 58 -168 165v24c0 156 125 170 291 170h38v29c0 59 -13 71 -92 71c-17 0 -32 -1 -49 -1l-10 -40h-133v152c40 13 139 38 242 38c175 0 259 -54 259 -220v-373zM377 133v113h-46c-61 0 -89 -7 -89 -63v-21
c0 -39 21 -50 52 -50c34 0 67 13 83 21zM485 740c0 -80 -65 -126 -154 -126c-90 0 -157 46 -157 126c0 81 67 128 157 128c89 0 154 -47 154 -128zM386 741c0 31 -23 46 -55 46c-33 0 -56 -15 -56 -46c0 -30 23 -45 56 -45c32 0 55 15 55 45zM592 1027l-174 -143h-200
l133 143h241z" />
    <glyph glyph-name="aogonek.alt" horiz-adv-x="642" 
d="M584 -197c-29 -8 -91 -21 -165 -21c-108 0 -157 32 -157 100c0 51 44 81 126 109v59c-39 -27 -105 -65 -182 -65c-109 0 -168 58 -168 165v24c0 156 125 170 291 170h38v29c0 59 -13 71 -92 71c-17 0 -32 -1 -49 -1l-10 -40h-133v152c40 13 139 38 242 38
c175 0 259 -54 259 -220v-373c-113 -36 -138 -59 -138 -79c0 -21 15 -30 51 -30c30 0 61 3 87 5v-93zM377 135v111h-46c-61 0 -89 -7 -89 -63v-21c0 -39 21 -50 52 -50c34 0 67 15 83 23z" />
    <glyph glyph-name="ae.alt" horiz-adv-x="990" 
d="M953 237h-372v-8c0 -65 7 -101 116 -101c62 0 166 3 226 8v-126c-49 -11 -149 -25 -250 -25c-99 0 -179 20 -228 67c-77 -52 -147 -67 -239 -67c-109 0 -168 58 -168 165v24c0 156 125 170 291 170h37v29c0 50 -8 71 -81 71c-20 0 -38 -1 -59 -1l-10 -40h-133v152
c40 13 139 38 242 38c84 0 133 -13 171 -38c41 24 95 38 167 38c239 0 290 -153 290 -289v-67zM745 339v8c0 61 -14 104 -83 104c-68 0 -81 -44 -81 -104v-8h164zM375 133v113h-44c-61 0 -89 -7 -89 -63v-21c0 -39 21 -50 51 -50c35 0 67 13 82 21z" />
    <glyph glyph-name="aeacute.alt" horiz-adv-x="990" 
d="M953 237h-372v-8c0 -65 7 -101 116 -101c62 0 166 3 226 8v-126c-49 -11 -149 -25 -250 -25c-99 0 -179 20 -228 67c-77 -52 -147 -67 -239 -67c-109 0 -168 58 -168 165v24c0 156 125 170 291 170h37v29c0 50 -8 71 -81 71c-20 0 -38 -1 -59 -1l-10 -40h-133v152
c40 13 139 38 242 38c84 0 133 -13 171 -38c41 24 95 38 167 38c239 0 290 -153 290 -289v-67zM745 339v8c0 61 -14 104 -83 104c-68 0 -81 -44 -81 -104v-8h164zM375 133v113h-44c-61 0 -89 -7 -89 -63v-21c0 -39 21 -50 51 -50c35 0 67 13 82 21zM772 780l-175 -143h-199
l132 143h242z" />
    <glyph glyph-name="cacute.alt" horiz-adv-x="560" 
d="M570 780l-175 -143h-199l132 143h242zM521 8c-40 -10 -110 -23 -206 -23c-188 0 -272 91 -272 276v57c0 188 84 275 272 275c99 0 179 -15 206 -23v-173h-127l-8 40c-11 0 -25 1 -34 1c-64 0 -94 -19 -94 -120v-57c0 -102 30 -122 98 -122c37 0 86 3 165 7v-138z" />
    <glyph glyph-name="ccircumflex.alt" horiz-adv-x="560" 
d="M573 637h-184l-77 73l-78 -73h-183l135 143h253zM521 8c-40 -10 -110 -23 -206 -23c-188 0 -272 91 -272 276v57c0 188 84 275 272 275c99 0 179 -15 206 -23v-173h-127l-8 40c-11 0 -25 1 -34 1c-64 0 -94 -19 -94 -120v-57c0 -102 30 -122 98 -122c37 0 86 3 165 7
v-138z" />
    <glyph glyph-name="ccaron.alt" horiz-adv-x="560" 
d="M56 780h184l78 -72l77 72h184l-135 -143h-253zM521 8c-40 -10 -110 -23 -206 -23c-188 0 -272 91 -272 276v57c0 188 84 275 272 275c99 0 179 -15 206 -23v-173h-127l-8 40c-11 0 -25 1 -34 1c-64 0 -94 -19 -94 -120v-57c0 -102 30 -122 98 -122c37 0 86 3 165 7v-138z
" />
    <glyph glyph-name="cdotaccent.alt" horiz-adv-x="560" 
d="M420 650h-225v130h225v-130zM521 8c-40 -10 -110 -23 -206 -23c-188 0 -272 91 -272 276v57c0 188 84 275 272 275c99 0 179 -15 206 -23v-173h-127l-8 40c-11 0 -25 1 -34 1c-64 0 -94 -19 -94 -120v-57c0 -102 30 -122 98 -122c37 0 86 3 165 7v-138z" />
    <glyph glyph-name="dcaron.alt" horiz-adv-x="904" 
d="M924 782l-105 -267h-148l67 267h186zM631 0h-198v30c-42 -26 -96 -45 -166 -45c-140 0 -221 87 -221 273v60c0 200 98 275 275 275c39 0 67 -2 93 -6v73l-44 5v117h261v-782zM416 153v281c-22 4 -49 6 -67 6c-62 0 -88 -19 -88 -122v-60c0 -91 19 -119 81 -119
c25 0 53 6 74 14z" />
    <glyph glyph-name="dcroat.alt" horiz-adv-x="694" 
d="M236 608v40h178v12l-44 5v117h261v-134h62v-40h-62v-608h-198v30c-42 -26 -96 -45 -166 -45c-140 0 -221 87 -221 273v60c0 200 98 275 275 275c39 0 67 -2 93 -6v21h-178zM416 153v281c-22 4 -49 6 -67 6c-62 0 -88 -19 -88 -122v-60c0 -91 19 -119 81 -119
c25 0 53 6 74 14z" />
    <glyph glyph-name="gcircumflex.alt" horiz-adv-x="661" 
d="M631 -27c0 -143 -121 -187 -306 -187c-184 0 -295 44 -295 179c0 40 17 82 52 112c-31 21 -45 50 -45 80c0 41 24 77 64 100c-31 27 -51 73 -51 136c0 117 48 200 282 200h303v-98l-46 -14c9 -13 24 -44 24 -88c0 -158 -124 -200 -282 -200c-37 0 -77 3 -107 11
c-12 -8 -19 -18 -19 -32c0 -19 14 -24 43 -24h79c210 0 304 -28 304 -175zM426 -34c0 48 -15 61 -100 61h-79c-12 -12 -19 -36 -19 -60c0 -48 22 -65 99 -65c74 0 99 19 99 64zM408 393c0 49 -13 75 -77 75c-65 0 -75 -27 -75 -75c0 -50 13 -76 75 -76c64 0 77 26 77 76z
M600 637h-183l-78 73l-77 -73h-184l135 143h253z" />
    <glyph glyph-name="gbreve.alt" horiz-adv-x="661" 
d="M563 795c-16 -125 -136 -160 -227 -160s-211 35 -228 160h119c9 -55 57 -69 109 -69s100 14 109 69h118zM631 -27c0 -143 -121 -187 -306 -187c-184 0 -295 44 -295 179c0 40 17 82 52 112c-31 21 -45 50 -45 80c0 41 24 77 64 100c-31 27 -51 73 -51 136
c0 117 48 200 282 200h303v-98l-46 -14c9 -13 24 -44 24 -88c0 -158 -124 -200 -282 -200c-37 0 -77 3 -107 11c-12 -8 -19 -18 -19 -32c0 -19 14 -24 43 -24h79c210 0 304 -28 304 -175zM426 -34c0 48 -15 61 -100 61h-79c-12 -12 -19 -36 -19 -60c0 -48 22 -65 99 -65
c74 0 99 19 99 64zM408 393c0 49 -13 75 -77 75c-65 0 -75 -27 -75 -75c0 -50 13 -76 75 -76c64 0 77 26 77 76z" />
    <glyph glyph-name="gdotaccent.alt" horiz-adv-x="661" 
d="M447 648h-226v130h226v-130zM631 -27c0 -143 -121 -187 -306 -187c-184 0 -295 44 -295 179c0 40 17 82 52 112c-31 21 -45 50 -45 80c0 41 24 77 64 100c-31 27 -51 73 -51 136c0 117 48 200 282 200h303v-98l-46 -14c9 -13 24 -44 24 -88c0 -158 -124 -200 -282 -200
c-37 0 -77 3 -107 11c-12 -8 -19 -18 -19 -32c0 -19 14 -24 43 -24h79c210 0 304 -28 304 -175zM426 -34c0 48 -15 61 -100 61h-79c-12 -12 -19 -36 -19 -60c0 -48 22 -65 99 -65c74 0 99 19 99 64zM408 393c0 49 -13 75 -77 75c-65 0 -75 -27 -75 -75c0 -50 13 -76 75 -76
c64 0 77 26 77 76z" />
    <glyph glyph-name="gcommaaccent.alt" horiz-adv-x="661" 
d="M631 -27c0 -143 -121 -187 -306 -187c-184 0 -295 44 -295 179c0 40 17 82 52 112c-31 21 -45 50 -45 80c0 41 24 77 64 100c-31 27 -51 73 -51 136c0 117 48 200 282 200h303v-98l-46 -14c9 -13 24 -44 24 -88c0 -158 -124 -200 -282 -200c-37 0 -77 3 -107 11
c-12 -8 -19 -18 -19 -32c0 -19 14 -24 43 -24h79c210 0 304 -28 304 -175zM426 -34c0 48 -15 61 -100 61h-79c-12 -12 -19 -36 -19 -60c0 -48 22 -65 99 -65c74 0 99 19 99 64zM408 393c0 49 -13 75 -77 75c-65 0 -75 -27 -75 -75c0 -50 13 -76 75 -76c64 0 77 26 77 76z
M223 637l98 141h187l-67 -141h-218z" />
    <glyph glyph-name="hbar.alt" horiz-adv-x="712" 
d="M2 601v30h62v8l-42 5v138h258v-151h179v-30h-179v-45c48 23 111 37 167 37c176 0 202 -101 202 -228v-365h-217v364c0 60 -15 77 -59 77c-36 0 -71 -12 -93 -22v-419h-216v601h-62z" />
    <glyph glyph-name="hcircumflex.alt" horiz-adv-x="712" 
d="M621 802h-184l-77 72l-78 -72h-184l135 142h253zM649 0h-217v364c0 60 -15 77 -59 77c-36 0 -71 -12 -93 -22v-419h-216v633l-42 5v144h258v-226c48 23 111 37 167 37c176 0 202 -101 202 -228v-365z" />
    <glyph glyph-name="itilde.alt" 
d="M283 0h-217v429l-41 6v143h258v-578zM413 778c0 -111 -63 -145 -129 -145c-28 0 -61 6 -107 26l-50 23c-22 11 -37 17 -52 17c-23 0 -29 -13 -29 -42v-20h-116v20c0 111 65 145 134 145c32 0 56 -6 100 -25l50 -23c22 -10 38 -18 56 -18c23 0 29 13 29 42v20h114v-20z
" />
    <glyph glyph-name="imacron.alt" 
d="M283 0h-217v429l-41 6v143h258v-578zM396 652h-441v111h441v-111z" />
    <glyph glyph-name="ibreve.alt" 
d="M283 0h-217v429l-41 6v143h258v-578zM400 795c-16 -125 -137 -160 -228 -160c-90 0 -210 35 -227 160h119c8 -55 57 -69 108 -69c53 0 101 14 110 69h118z" />
    <glyph glyph-name="iogonek.alt" 
d="M336 -197c-29 -8 -93 -21 -160 -21c-108 0 -162 32 -162 108c0 44 18 79 52 111v428l-41 6v143h258v-578c-78 -31 -84 -59 -84 -79c0 -21 14 -30 50 -30c32 0 62 3 87 5v-93zM287 647h-225v135h225v-135z" />
    <glyph glyph-name="ij.alt" horiz-adv-x="708" 
d="M283 0h-217v429l-41 6v143h258v-578zM287 647h-225v135h225v-135zM640 -22c0 -148 -61 -194 -207 -194c-47 0 -93 5 -113 9v128c22 0 38 -1 55 -1c42 0 49 13 49 58v453l-42 4v143h258v-600zM645 647h-226v135h226v-135z" />
    <glyph glyph-name="ij.alt2" horiz-adv-x="708" 
d="M283 0h-217v429l-41 6v143h258v-578zM287 647h-225v135h225v-135zM640 -22c0 -148 -61 -194 -207 -194c-48 0 -93 5 -113 9v128c22 0 37 -1 55 -1c41 0 48 13 48 58v600h217v-600zM644 647h-225v135h225v-135z" />
    <glyph glyph-name="jcircumflex.alt" 
d="M283 -22c0 -148 -61 -194 -207 -194c-48 0 -93 5 -113 10v128c22 -1 37 -1 55 -1c41 0 48 12 48 57v453l-41 4v143h258v-600zM435 637h-183l-78 73l-77 -73h-184l135 143h253z" />
    <glyph glyph-name="kcommaaccent.alt" horiz-adv-x="675" 
d="M467 -60l-99 -140h-187l68 140h218zM669 0h-237l-153 260v-260h-215v633l-42 5v144h257v-457l158 253h223l-178 -279z" />
    <glyph glyph-name="kgreenlandic.alt" horiz-adv-x="675" 
d="M669 0h-237l-153 260v-260h-215v430l-42 5v143h257v-253l158 253h223l-178 -279z" />
    <glyph glyph-name="lacute.alt" 
d="M432 952l-175 -143h-199l132 143h242zM282 0h-216v633l-41 5v144h257v-782z" />
    <glyph glyph-name="lcaron.alt" horiz-adv-x="561" 
d="M581 782l-105 -267h-148l67 267h186zM282 0h-216v633l-41 5v144h257v-782z" />
    <glyph glyph-name="lcommaaccent.alt" 
d="M288 -60l-99 -140h-187l68 140h218zM282 0h-216v633l-41 5v144h257v-782z" />
    <glyph glyph-name="ldot.alt" horiz-adv-x="547" 
d="M542 280h-202v176h202v-176zM282 0h-216v633l-41 5v144h257v-782z" />
    <glyph glyph-name="nacute.alt" horiz-adv-x="709" 
d="M590 780l-174 -143h-199l132 143h241zM649 0h-217v365c0 57 -10 76 -55 76c-28 0 -64 -11 -97 -26v-415h-216v429l-42 6v143h243v-47c55 37 122 62 188 62c185 0 196 -109 196 -228v-365z" />
    <glyph glyph-name="ncaron.alt" horiz-adv-x="709" 
d="M93 780h184l77 -72l78 72h183l-134 -143h-253zM649 0h-217v365c0 57 -10 76 -55 76c-28 0 -64 -11 -97 -26v-415h-216v429l-42 6v143h243v-47c55 37 122 62 188 62c185 0 196 -109 196 -228v-365z" />
    <glyph glyph-name="ncommaaccent.alt" horiz-adv-x="709" 
d="M486 -60l-98 -140h-187l67 140h218zM649 0h-217v365c0 57 -10 76 -55 76c-28 0 -64 -11 -97 -26v-415h-216v429l-42 6v143h243v-47c55 37 122 62 188 62c185 0 196 -109 196 -228v-365z" />
    <glyph glyph-name="napostrophe.alt" horiz-adv-x="892" 
d="M832 0h-217v365c0 57 -11 76 -55 76c-28 0 -64 -11 -97 -26v-415h-216v429l-42 6v143h243v-47c55 37 122 62 188 62c185 0 196 -109 196 -228v-365zM241 782l-105 -267h-148l67 267h186z" />
    <glyph glyph-name="racute.alt" horiz-adv-x="465" 
d="M498 780l-175 -143h-199l132 143h242zM280 0h-216v430l-42 5v143h241v-48c57 55 130 63 184 63v-172c-58 0 -121 -7 -167 -17v-404z" />
    <glyph glyph-name="rcommaaccent.alt" horiz-adv-x="465" 
d="M321 -60l-98 -140h-187l67 140h218zM280 0h-216v430l-42 5v143h241v-48c57 55 130 63 184 63v-172c-58 0 -121 -7 -167 -17v-404z" />
    <glyph glyph-name="rcaron.alt" horiz-adv-x="465" 
d="M-13 780h183l78 -72l77 72h184l-134 -143h-253zM280 0h-216v430l-42 5v143h241v-48c57 55 130 63 184 63v-172c-58 0 -121 -7 -167 -17v-404z" />
    </font>
</defs>
</svg>
