<?xml version="1.0" standalone="no"?>
<!DOCTYPE svg PUBLIC "-//W3C//DTD SVG 1.1//EN" "http://www.w3.org/Graphics/SVG/1.1/DTD/svg11.dtd" >
<svg xmlns="http://www.w3.org/2000/svg" xmlns:xlink="http://www.w3.org/1999/xlink" version="1.1">
<metadata>
Created by FontForge 20141024 at Thu Apr 30 19:19:08 2015
 By System Administrator
Copyright (c) 2007 Monotype Imaging Inc. Soho is designed by Sebastian Lester. All rights reserved.
</metadata>
<defs>
<font id="SohoGothicPro-Thin" horiz-adv-x="197" >
  <font-face 
    font-family="Soho Gothic Pro"
    font-weight="250"
    font-stretch="normal"
    units-per-em="1000"
    panose-1="2 11 2 3 3 5 4 2 2 4"
    ascent="782"
    descent="-218"
    x-height="529"
    cap-height="743"
    bbox="-77 -283 1226 1158"
    underline-thickness="50"
    underline-position="-50"
    stemh="16"
    stemv="16"
    unicode-range="U+0020-FE6A"
  />
<missing-glyph horiz-adv-x="500" 
d="M12 0v665h475v-665h-475zM88 618l162 -243l161 243h-323zM60 575v-484c0 -1 161 242 161 242zM440 575l-162 -242l162 -243v485zM411 48l-161 242l-162 -242h323z" />
    <glyph glyph-name="f_i" unicode="fi" horiz-adv-x="516" 
d="M151 0h-17v513h-114v16h114v91c0 113 23 156 127 156c20 0 61 -3 81 -6v-15c-20 2 -61 5 -81 5c-89 0 -110 -30 -110 -140v-91h275v-529h-17v513h-258v-513zM426 643h-17v127h17v-127z" />
    <glyph glyph-name="f_l" unicode="fl" horiz-adv-x="545" 
d="M150 0h-16v513h-114v16h114v91c0 136 32 158 168 158c43 0 110 -4 136 -7h17v-771h-17v755c-29 3 -93 7 -136 7c-123 0 -152 -15 -152 -142v-91h188v-16h-188v-513z" />
    <glyph glyph-name="f_f" unicode="ff" horiz-adv-x="670" 
d="M449 0h-17v513h-281v-513h-17v513h-114v16h114v91c0 113 23 156 127 156c20 0 61 -3 81 -6v-15c-20 2 -61 5 -81 5c-89 0 -110 -30 -110 -140v-91h281v91c0 113 23 156 127 156c20 0 61 -3 81 -6v-15c-20 2 -61 5 -81 5c-89 0 -110 -30 -110 -140v-91h187v-16h-187v-513z
" />
    <glyph glyph-name="f_f_i" unicode="ffi" horiz-adv-x="844" 
d="M754 0h-16v513h-289v-513h-16v513h-282v-513h-17v513h-114v16h114v91c0 113 23 156 127 156c20 0 61 -3 81 -6v-15c-20 2 -61 5 -81 5c-89 0 -110 -30 -110 -140v-91h282v91c0 113 23 156 126 156c21 0 61 -3 81 -6v-15c-20 2 -60 5 -81 5c-89 0 -110 -30 -110 -140v-91
h305v-529zM754 643h-16v127h16v-127z" />
    <glyph glyph-name="f_f_l" unicode="ffl" horiz-adv-x="844" 
d="M754 0h-16v754c-19 2 -98 8 -136 8c-130 0 -153 -23 -153 -142v-91h189v-16h-189v-513h-16v513h-282v-513h-17v513h-114v16h114v91c0 120 26 156 130 156c24 0 64 -4 78 -6v-15c-21 2 -56 5 -78 5c-89 0 -113 -23 -113 -140v-91h282v91c0 128 25 158 169 158
c38 0 117 -6 136 -8h16v-770z" />
    <glyph glyph-name="f_b" unicode="fb" horiz-adv-x="840" 
d="M150 0h-16v513h-114v16h114v91c0 128 29 158 137 158c31 0 75 -2 134 -8h16v-254c53 19 116 27 151 27c149 0 214 -75 214 -266v-22c0 -194 -64 -267 -223 -267c-27 0 -77 0 -158 8v758c-56 6 -106 8 -134 8c-97 0 -121 -23 -121 -142v-91h183v-16h-183v-513zM421 10
c68 -6 115 -7 142 -7c146 0 206 62 206 252v22c0 186 -61 250 -197 250c-35 0 -97 -8 -151 -27v-490z" />
    <glyph glyph-name="f_f_b" unicode="ffb" horiz-adv-x="1136" 
d="M444 0h-16v513h-278v-513h-16v513h-122v16h122v91c0 113 23 156 126 156c21 0 59 -3 78 -6v-15c-18 2 -55 5 -78 5c-89 0 -110 -30 -110 -140v-91h278v91c0 128 29 158 137 158c26 0 75 -3 136 -8h16v-254c50 18 116 27 151 27c149 0 214 -75 214 -266v-22
c0 -194 -64 -267 -223 -267c-27 0 -77 0 -158 8v759c-64 5 -109 7 -136 7c-97 0 -121 -23 -121 -142v-91h185v-16h-185v-513zM1065 255v22c0 186 -61 250 -197 250c-35 0 -97 -8 -151 -27v-490c68 -6 115 -7 142 -7c146 0 206 62 206 252z" />
    <glyph glyph-name="f_f_h" unicode="ffh" horiz-adv-x="1166" 
d="M1086 0h-16v331c0 148 -44 196 -153 196c-68 0 -141 -30 -198 -60v-467h-16v755c-45 4 -109 7 -137 7c-97 0 -120 -23 -120 -142v-91h184v-16h-184v-513h-17v513h-279v-513h-16v513h-122v16h122v91c0 113 23 156 126 156c21 0 58 -3 78 -6v-15c-18 2 -56 5 -78 5
c-89 0 -110 -30 -110 -140v-91h279v91c0 128 30 158 137 158c27 0 89 -4 137 -8h16v-286c53 27 122 59 198 59c127 0 169 -64 169 -212v-331z" />
    <glyph glyph-name="f_f_k" unicode="ffk" horiz-adv-x="1064" 
d="M1054 0h-24l-280 278v-278h-16v754c-59 5 -112 8 -158 8c-97 0 -120 -23 -120 -142v-91h184v-16h-184v-513h-17v513h-289v-513h-16v513h-122v16h122v91c0 113 23 156 126 156c21 0 58 -3 78 -6v-15c-18 2 -56 5 -78 5c-89 0 -110 -30 -110 -140v-91h289v91
c0 128 30 158 137 158c46 0 99 -3 158 -8h16v-488l278 247h26l-281 -249z" />
    <glyph glyph-name="f_h" unicode="fh" horiz-adv-x="872" 
d="M792 0h-16v331c0 148 -44 196 -153 196c-68 0 -141 -30 -198 -60v-467h-16v754c-54 5 -94 8 -138 8c-97 0 -121 -23 -121 -142v-91h185v-16h-185v-513h-16v513h-122v16h122v91c0 128 29 158 137 158c44 0 91 -4 138 -8h16v-286c53 27 122 59 198 59
c127 0 169 -64 169 -212v-331z" />
    <glyph glyph-name="f_j" unicode="fj" horiz-adv-x="552" 
d="M150 0h-16v513h-122v16h122v91c0 113 23 156 126 156c21 0 58 -3 78 -6v-15c-18 2 -55 5 -78 5c-89 0 -110 -30 -110 -140v-91h312v-617c0 -79 -15 -124 -93 -124c-9 0 -25 0 -58 4v14c33 -3 49 -3 58 -3c62 0 76 32 76 109v601h-295v-513zM462 641h-17v129h17v-129z" />
    <glyph glyph-name="f_f_j" unicode="ffj" horiz-adv-x="857" 
d="M456 0h-16v513h-290v-513h-16v513h-122v16h122v91c0 113 23 156 126 156c21 0 61 -3 81 -6v-15c-20 2 -60 5 -81 5c-89 0 -110 -30 -110 -140v-91h290v91c0 113 23 156 126 156c21 0 58 -3 78 -6v-15c-18 2 -55 5 -78 5c-89 0 -110 -30 -110 -140v-91h311v-617
c0 -79 -15 -124 -93 -124c-9 0 -25 0 -58 4v14c33 -3 49 -3 58 -3c62 0 76 32 76 109v601h-294v-513zM767 641h-17v129h17v-129z" />
    <glyph glyph-name="f_k" unicode="fk" horiz-adv-x="765" 
d="M755 0h-24l-280 278v-278h-16v754c-62 5 -111 8 -164 8c-97 0 -121 -23 -121 -142v-91h185v-16h-185v-513h-16v513h-122v16h122v91c0 128 29 158 137 158c53 0 102 -3 164 -8h16v-488l278 247h26l-281 -249z" />
    <glyph glyph-name=".notdef" horiz-adv-x="500" 
d="M12 0v665h475v-665h-475zM88 618l162 -243l161 243h-323zM60 575v-484c0 -1 161 242 161 242zM440 575l-162 -242l162 -243v485zM411 48l-161 242l-162 -242h323z" />
    <glyph glyph-name="space" unicode=" " horiz-adv-x="220" 
 />
    <glyph glyph-name="exclam" unicode="!" horiz-adv-x="191" 
d="M104 0h-17v111h17v-111zM104 770v-582h-17v582h17z" />
    <glyph glyph-name="quotedbl" unicode="&#x22;" horiz-adv-x="267" 
d="M20 519l32 240h18l-33 -240h-17zM247 759l-33 -240h-17l32 240h18z" />
    <glyph glyph-name="numbersign" unicode="#" horiz-adv-x="705" 
d="M642 221h-173l-24 -221h-17l24 221h-231l-24 -221h-18l24 221h-121v17h124l29 263h-153v17h154l25 225h18l-25 -225h231l25 225h17l-25 -225h140v-17h-141l-29 -263h170v-17zM484 501h-232l-29 -263h231z" />
    <glyph glyph-name="dollar" unicode="$" horiz-adv-x="537" 
d="M264 -117v105c-84 0 -151 6 -194 13v15c30 -4 112 -12 193 -12c126 0 211 41 211 168c0 104 -57 134 -192 205l-49 26c-102 54 -178 98 -178 197c0 108 81 151 209 154v101h17v-101c70 0 138 -6 188 -13v-15c-37 5 -121 13 -192 13c-122 0 -206 -35 -206 -139
c0 -90 70 -129 171 -183l47 -25c136 -72 202 -108 202 -219c0 -124 -75 -181 -210 -185v-105h-17z" />
    <glyph glyph-name="percent" unicode="%" horiz-adv-x="909" 
d="M858 180c0 -141 -61 -193 -146 -193c-86 0 -147 53 -147 193v58c0 140 61 193 147 193c85 0 146 -53 146 -193v-58zM841 179v59c0 136 -55 177 -129 177c-75 0 -130 -41 -130 -177v-59c0 -135 55 -176 130 -176c74 0 129 41 129 176zM708 743l-474 -743h-20l474 743h20z
M354 502c0 -140 -61 -193 -147 -193s-146 54 -146 193v59c0 139 60 193 146 193s147 -53 147 -193v-59zM337 502v59c0 135 -55 177 -130 177c-74 0 -130 -42 -130 -177v-59c0 -135 56 -177 130 -177c75 0 130 42 130 177z" />
    <glyph glyph-name="ampersand" unicode="&#x26;" horiz-adv-x="706" 
d="M606 0h-17l-79 79c-43 -54 -113 -91 -222 -91c-130 0 -228 52 -228 193c0 83 33 147 148 201l-5 5c-73 73 -121 123 -121 217c0 118 85 150 204 150c82 0 155 -6 196 -12v-15c-43 5 -115 12 -196 12c-98 0 -188 -19 -188 -138c0 -87 45 -133 118 -206l293 -294
c61 87 61 216 61 306h-78v15h169v-15h-76c0 -94 -2 -226 -66 -316l87 -87v-4zM500 89l-281 282c-109 -51 -143 -108 -143 -193c0 -125 84 -175 212 -175c104 0 171 34 212 86z" />
    <glyph glyph-name="quoteright" unicode="&#x2019;" horiz-adv-x="121" 
d="M101 770l-64 -229h-17l61 229h20z" />
    <glyph glyph-name="parenleft" unicode="(" horiz-adv-x="280" 
d="M243 -207h-17c-79 89 -168 250 -168 471v7c0 221 89 382 168 472h17c-85 -100 -168 -253 -168 -472v-7c0 -218 83 -371 168 -471z" />
    <glyph glyph-name="parenright" unicode=")" horiz-adv-x="280" 
d="M221 264c0 -221 -88 -382 -167 -471h-18c86 100 169 253 169 471v7c0 219 -83 372 -169 472h18c79 -90 167 -251 167 -472v-7z" />
    <glyph glyph-name="asterisk" unicode="*" horiz-adv-x="480" 
d="M424 631l-119 -38c-15 -6 -35 -11 -50 -16c9 -12 23 -29 32 -41l74 -101l-15 -11l-73 101c-9 13 -22 29 -31 44c-9 -13 -19 -31 -29 -44l-74 -101l-14 10l73 101c9 13 21 30 30 42c-14 3 -34 10 -49 15l-118 39l5 16l118 -37c15 -6 36 -13 50 -18c0 14 -1 35 -1 50v128
h18v-128c0 -15 0 -35 -1 -50c15 5 34 12 49 18l119 38z" />
    <glyph glyph-name="plus" unicode="+" horiz-adv-x="683" 
d="M591 385h-240v-241h-17v241h-242v17h242v241h17v-241h240v-17z" />
    <glyph glyph-name="comma" unicode="," horiz-adv-x="174" 
d="M120 132l-61 -214h-17l60 214h18z" />
    <glyph glyph-name="hyphen" unicode="-" horiz-adv-x="392" 
d="M317 277h-240v17h240v-17z" />
    <glyph glyph-name="period" unicode="." horiz-adv-x="136" 
d="M76 0h-16v132h16v-132z" />
    <glyph glyph-name="slash" unicode="/" horiz-adv-x="392" 
d="M345 743l-289 -743h-17l289 743h17z" />
    <glyph glyph-name="zero" unicode="0" horiz-adv-x="606" 
d="M540 340c0 -263 -95 -352 -237 -352c-143 0 -237 89 -237 352v62c0 263 94 352 237 352c142 0 237 -89 237 -352v-62zM523 340v62c0 258 -94 336 -220 336c-127 0 -220 -78 -220 -336v-62c0 -258 93 -337 220 -337c126 0 220 79 220 337z" />
    <glyph glyph-name="one" unicode="1" horiz-adv-x="375" 
d="M331 0h-279v15h131v713l-132 -51v18l132 51h17v-731h131v-15z" />
    <glyph glyph-name="two" unicode="2" horiz-adv-x="572" 
d="M499 0h-429v29c0 201 53 247 232 347c151 84 187 123 187 218c0 103 -74 144 -227 144c-62 0 -148 -10 -184 -17v16c21 4 108 17 184 17c168 0 244 -52 244 -160c0 -98 -37 -144 -195 -231c-176 -98 -224 -141 -224 -334v-13h412v-16z" />
    <glyph glyph-name="three" unicode="3" horiz-adv-x="557" 
d="M490 187c0 -120 -59 -199 -242 -199c-66 0 -154 6 -182 10v15c36 -4 116 -10 182 -10c175 0 226 72 226 184v35c0 67 -15 160 -160 160h-228v16h228c143 0 160 83 160 159v16c0 110 -51 165 -226 165c-66 0 -148 -6 -182 -10v15c28 5 116 11 182 11
c183 0 243 -63 243 -181v-16c0 -78 -21 -149 -121 -168c105 -20 120 -99 120 -167v-35z" />
    <glyph glyph-name="four" unicode="4" horiz-adv-x="609" 
d="M565 228h-131v-228h-16v228h-377v16l372 502h21v-502h131v-16zM418 244v483l-357 -483h357z" />
    <glyph glyph-name="five" unicode="5" horiz-adv-x="572" 
d="M506 204c0 -136 -54 -214 -244 -214c-86 0 -167 10 -196 16v15c40 -6 110 -15 196 -15c184 0 227 72 227 198v22c0 151 -94 184 -249 184h-156l31 333h358v-16h-342l-28 -301h137c165 0 266 -41 266 -200v-22z" />
    <glyph glyph-name="six" unicode="6" horiz-adv-x="615" 
d="M549 220c0 -159 -96 -232 -241 -232c-147 0 -242 86 -242 301v190c0 175 56 275 258 275c73 0 172 -11 199 -17v-14c-39 6 -126 16 -199 16c-188 0 -241 -93 -241 -255v-72c80 21 165 31 227 31c116 0 239 -38 239 -197v-26zM532 220v26c0 151 -114 181 -222 181
c-63 0 -147 -8 -227 -30v-111c0 -205 93 -282 225 -282c137 0 224 66 224 216z" />
    <glyph glyph-name="seven" unicode="7" horiz-adv-x="535" 
d="M494 727l-337 -727h-18l337 727h-418v16h436v-16z" />
    <glyph glyph-name="eight" unicode="8" horiz-adv-x="624" 
d="M558 205c0 -151 -63 -217 -242 -217h-8c-180 0 -242 68 -242 219v7c0 93 30 159 118 175c-89 17 -116 89 -116 169v8c0 127 61 187 240 187h7c179 0 241 -60 241 -187v-8c0 -82 -28 -152 -117 -169c88 -16 119 -80 119 -173v-11zM541 205v11c0 88 -28 165 -149 165h-160
c-122 0 -150 -79 -150 -167v-7c0 -148 64 -204 226 -204h8c161 0 225 54 225 202zM539 558v8c0 122 -62 172 -224 172h-7c-162 0 -224 -50 -224 -172v-8c0 -77 26 -161 148 -161h160c121 0 147 82 147 161z" />
    <glyph glyph-name="nine" unicode="9" horiz-adv-x="615" 
d="M549 262c0 -175 -56 -275 -259 -275c-73 0 -171 12 -198 17v15c39 -5 127 -16 198 -16c189 0 242 93 242 254v73c-80 -22 -165 -31 -228 -31c-116 0 -238 37 -238 197v26c0 158 96 232 241 232c146 0 242 -86 242 -301v-191zM532 345v111c0 204 -93 282 -226 282
c-136 0 -224 -66 -224 -216v-27c0 -151 114 -180 222 -180c63 0 147 8 228 30z" />
    <glyph glyph-name="colon" unicode=":" horiz-adv-x="135" 
d="M81 0h-17v132h17v-132zM81 407h-17v132h17v-132z" />
    <glyph glyph-name="semicolon" unicode=";" horiz-adv-x="172" 
d="M111 132l-61 -214h-18l60 214h19zM111 406h-16v133h16v-133z" />
    <glyph glyph-name="less" unicode="&#x3c;" horiz-adv-x="683" 
d="M493 138h-26l-278 253l278 251h26l-277 -251z" />
    <glyph glyph-name="equal" unicode="=" horiz-adv-x="683" 
d="M565 269v16h-447v-16h447zM565 502h-447v16h447v-16z" />
    <glyph glyph-name="greater" unicode="&#x3e;" horiz-adv-x="683" 
d="M492 391l-278 -253h-24l277 253l-277 251h24z" />
    <glyph glyph-name="question" unicode="?" horiz-adv-x="414" 
d="M149 0h-17v111h17v-111zM363 616c0 -75 -18 -116 -101 -195c-100 -95 -114 -124 -114 -199v-31h-16v31c0 75 13 111 119 210c81 75 96 112 96 187c0 115 -71 141 -172 141c-34 0 -91 -4 -140 -13v16c48 9 103 13 140 13c102 0 188 -29 188 -160z" />
    <glyph glyph-name="at" unicode="@" horiz-adv-x="800" 
d="M756 395c0 -164 -66 -329 -338 -329c-128 0 -182 44 -182 160c0 190 82 247 200 247c25 0 66 -3 112 -13l-40 -371c180 32 232 162 232 306c0 136 -85 237 -290 237c-261 0 -370 -159 -370 -425c0 -219 132 -300 314 -300c50 0 103 5 145 12v-15c-44 -8 -97 -13 -148 -13
c-192 0 -327 91 -327 316c0 255 99 441 386 441c217 0 306 -110 306 -253zM530 448c-23 4 -65 10 -94 10c-106 0 -184 -48 -184 -233c0 -104 48 -143 167 -143c22 0 45 1 71 4z" />
    <glyph glyph-name="A" unicode="A" horiz-adv-x="602" 
d="M582 0h-19l-106 302h-313l-106 -302h-18l269 744h24zM451 318l-113 312c-12 34 -24 67 -36 101h-2c-11 -34 -24 -67 -36 -101l-114 -312h301z" />
    <glyph glyph-name="B" unicode="B" horiz-adv-x="595" 
d="M540 189c0 -135 -79 -201 -271 -201c-99 0 -139 7 -184 12v743c19 2 89 9 180 9c194 0 270 -51 270 -182v-9c0 -69 -25 -150 -153 -170c127 -20 158 -102 158 -183v-19zM523 189v19c0 83 -26 175 -215 175h-207v-369c41 -5 90 -11 168 -11c179 0 254 56 254 186zM519 561
v9c0 124 -73 167 -254 167c-65 0 -118 -4 -164 -8v-330h207c189 0 211 92 211 162z" />
    <glyph glyph-name="C" unicode="C" horiz-adv-x="535" 
d="M505 1c-15 -2 -79 -13 -173 -13c-192 0 -277 116 -277 379v9c0 262 85 378 277 378c86 0 148 -9 173 -13v-15c-30 4 -92 12 -173 12c-181 0 -261 -108 -261 -362v-9c0 -255 80 -363 261 -363c88 0 139 7 173 13v-16z" />
    <glyph glyph-name="D" unicode="D" horiz-adv-x="629" 
d="M574 360c0 -268 -99 -372 -304 -372c-82 0 -136 7 -185 12v744c69 5 93 9 185 9c205 0 304 -103 304 -371v-22zM558 360v22c0 265 -102 355 -288 355c-78 0 -124 -4 -169 -8v-715c42 -5 100 -10 169 -10c186 0 288 91 288 356z" />
    <glyph glyph-name="E" unicode="E" horiz-adv-x="544" 
d="M489 0h-404v743h404v-16h-388v-327h359v-16h-359v-369h388v-15z" />
    <glyph glyph-name="F" unicode="F" horiz-adv-x="534" 
d="M489 727h-388v-327h359v-16h-359v-384h-16v743h404v-16z" />
    <glyph glyph-name="G" unicode="G" horiz-adv-x="589" 
d="M524 0c-54 -8 -105 -12 -172 -12c-190 0 -297 108 -297 377v12c0 277 105 377 288 377c74 0 139 -6 181 -12v-16c-41 5 -110 12 -181 12c-174 0 -272 -94 -272 -360v-13c0 -262 105 -361 281 -361c65 0 118 4 156 9v365h16v-378z" />
    <glyph glyph-name="H" unicode="H" horiz-adv-x="671" 
d="M586 0h-16v393h-469v-393h-16v743h16v-334h469v334h16v-743z" />
    <glyph glyph-name="I" unicode="I" 
d="M107 0h-17v743h17v-743z" />
    <glyph glyph-name="J" unicode="J" 
d="M107 -49c0 -85 -9 -151 -112 -151c-18 0 -41 2 -59 4v14c23 -1 40 -2 59 -2c89 0 95 54 95 135v792h17v-792z" />
    <glyph glyph-name="K" unicode="K" horiz-adv-x="535" 
d="M520 0h-25l-389 376v-376h-16v743h16v-361l386 361h25l-389 -364z" />
    <glyph glyph-name="L" unicode="L" horiz-adv-x="508" 
d="M483 0h-398v743h16v-728h382v-15z" />
    <glyph glyph-name="M" unicode="M" horiz-adv-x="748" 
d="M663 0h-16v652v70h-1c-14 -23 -29 -45 -43 -68l-217 -342h-24l-217 342c-14 23 -29 45 -43 68h-1v-70v-652h-16v743h23l223 -353l42 -66h2l42 66l223 353h23v-743z" />
    <glyph glyph-name="N" unicode="N" horiz-adv-x="664" 
d="M579 -3h-22l-417 666c-13 20 -24 39 -37 59h-1v-73v-649h-17v743h22l423 -675c11 -17 21 -34 32 -51h1v62v664h16v-746z" />
    <glyph glyph-name="O" unicode="O" horiz-adv-x="646" 
d="M591 361c0 -281 -105 -373 -268 -373s-268 92 -268 373v21c0 282 106 372 268 372s268 -90 268 -372v-21zM575 361v21c0 281 -106 356 -252 356c-145 0 -252 -75 -252 -356v-21c0 -281 108 -357 252 -357c145 0 252 76 252 357z" />
    <glyph glyph-name="P" unicode="P" horiz-adv-x="560" 
d="M510 538c0 -136 -74 -211 -260 -211c-41 0 -94 1 -153 4v-331h-17v745c58 5 106 9 175 9c186 0 255 -64 255 -202v-14zM494 538v14c0 132 -67 186 -239 186c-69 0 -125 -5 -158 -8v-384c60 -3 112 -4 153 -4c170 0 244 66 244 196z" />
    <glyph glyph-name="Q" unicode="Q" horiz-adv-x="646" 
d="M591 361c0 -276 -102 -369 -259 -373v-64c0 -70 9 -108 90 -108h84v-13c-21 -1 -63 -3 -84 -3c-96 0 -107 50 -107 124v64c-157 4 -260 97 -260 373v21c0 282 106 372 268 372s268 -90 268 -372v-21zM575 361v21c0 281 -106 356 -252 356c-145 0 -252 -75 -252 -356v-21
c0 -281 108 -357 252 -357c145 0 252 76 252 357z" />
    <glyph glyph-name="R" unicode="R" horiz-adv-x="591" 
d="M551 0h-19l-206 330c-26 -3 -53 -3 -69 -3c-53 0 -123 1 -155 3v-330h-17v744c60 6 102 10 172 10c180 0 258 -66 258 -203v-12c0 -122 -51 -186 -171 -207zM499 539v12c0 131 -78 187 -242 187c-44 0 -108 -4 -155 -9v-383c42 -2 103 -3 155 -3c170 0 242 64 242 196z
" />
    <glyph glyph-name="S" unicode="S" horiz-adv-x="546" 
d="M491 173c0 -128 -79 -185 -228 -185c-81 0 -149 6 -193 13v15c30 -4 112 -12 193 -12c126 0 211 41 211 168c0 104 -57 134 -192 205l-49 26c-102 54 -178 98 -178 197c0 112 87 154 222 154c72 0 141 -6 192 -13v-15c-37 5 -121 13 -192 13c-122 0 -206 -35 -206 -139
c0 -90 70 -129 171 -183l47 -25c136 -72 202 -108 202 -219z" />
    <glyph glyph-name="T" unicode="T" horiz-adv-x="604" 
d="M574 727h-264v-727h-17v727h-263v16h544v-16z" />
    <glyph glyph-name="U" unicode="U" horiz-adv-x="650" 
d="M570 339c0 -229 -59 -348 -245 -348c-187 0 -245 119 -245 348v404h16v-404c0 -226 55 -332 229 -332c173 0 229 106 229 332v404h16v-404z" />
    <glyph glyph-name="V" unicode="V" horiz-adv-x="624" 
d="M594 743l-270 -743h-24l-270 743h18l244 -674c7 -18 13 -37 20 -55h1c7 19 13 37 20 56l243 673h18z" />
    <glyph glyph-name="W" unicode="W" horiz-adv-x="852" 
d="M807 743l-171 -743h-26l-166 556c-6 19 -11 37 -17 56h-2c-6 -19 -11 -37 -17 -56l-166 -556h-26l-171 743h17l154 -671c4 -18 9 -40 13 -58h1c5 18 12 40 17 58l164 555h30l164 -556c6 -19 11 -38 17 -57h1c4 19 9 38 13 57l153 672h18z" />
    <glyph glyph-name="X" unicode="X" horiz-adv-x="617" 
d="M582 0h-22l-252 360l-252 -360h-21l263 374l-259 369h23l247 -353l247 353h21l-258 -368z" />
    <glyph glyph-name="Y" unicode="Y" horiz-adv-x="548" 
d="M508 743l-225 -432v-311h-17v311l-226 432h19l178 -341c12 -24 25 -47 37 -71h1c12 23 24 47 36 70l177 342h20z" />
    <glyph glyph-name="Z" unicode="Z" horiz-adv-x="563" 
d="M533 0h-503v15l467 712h-447v16h466v-16l-466 -712h483v-15z" />
    <glyph glyph-name="bracketleft" unicode="[" horiz-adv-x="336" 
d="M293 -208h-190v951h190v-16h-173v-919h173v-16z" />
    <glyph glyph-name="backslash" unicode="\" horiz-adv-x="404" 
d="M359 0h-19l-304 743h18z" />
    <glyph glyph-name="bracketright" unicode="]" horiz-adv-x="336" 
d="M233 -208h-190v16h173v919h-173v16h190v-951z" />
    <glyph glyph-name="asciicircum" unicode="^" horiz-adv-x="683" 
d="M580 388h-22l-216 257l-216 -257h-22l226 268h24z" />
    <glyph glyph-name="underscore" unicode="_" horiz-adv-x="577" 
d="M570 -84h-585v16h585v-16z" />
    <glyph glyph-name="quoteleft" unicode="&#x2018;" horiz-adv-x="121" 
d="M101 770l-62 -229h-19l63 229h18z" />
    <glyph glyph-name="a" unicode="a" horiz-adv-x="503" 
d="M423 0h-16v44c-47 -25 -115 -56 -192 -56c-112 0 -160 53 -160 158v4c0 125 69 157 238 157h114v58c0 128 -32 162 -175 162c-37 0 -75 -2 -137 -8v16c62 6 99 8 137 8c154 0 191 -42 191 -178v-365zM407 61v231h-114c-161 0 -222 -26 -222 -142v-4
c0 -101 50 -143 146 -143c74 0 145 32 190 58z" />
    <glyph glyph-name="b" unicode="b" horiz-adv-x="521" 
d="M466 255c0 -202 -64 -267 -223 -267c-27 0 -77 0 -158 8v774h16v-254c56 19 116 27 151 27c149 0 214 -63 214 -266v-22zM449 255v22c0 199 -61 250 -197 250c-35 0 -97 -8 -151 -27v-490c68 -6 115 -7 142 -7c146 0 206 55 206 252z" />
    <glyph glyph-name="c" unicode="c" horiz-adv-x="443" 
d="M398 1c-69 -11 -103 -13 -132 -13c-146 0 -211 52 -211 271v13c0 210 69 271 211 271c36 0 73 -3 132 -12v-16c-62 9 -99 12 -132 12c-131 0 -194 -51 -194 -255v-13c0 -213 60 -256 194 -256c28 0 64 3 132 12v-14z" />
    <glyph glyph-name="d" unicode="d" horiz-adv-x="521" 
d="M436 0h-17v38c-38 -20 -100 -50 -174 -50c-136 0 -190 75 -190 272v12c0 196 65 271 224 271c25 0 66 0 140 -8v235h17v-770zM419 55v465c-66 6 -115 7 -140 7c-146 0 -207 -64 -207 -255v-12c0 -193 51 -256 173 -256c71 0 134 30 174 51z" />
    <glyph glyph-name="e" unicode="e" horiz-adv-x="519" 
d="M469 263h-398v-15c0 -182 72 -244 214 -244c56 0 128 8 173 14v-14c-41 -7 -111 -16 -173 -16c-163 0 -230 76 -230 262v32c0 163 53 261 208 261c149 0 206 -93 206 -262v-18zM453 279v7c0 159 -55 241 -190 241c-146 0 -192 -93 -192 -241v-7h382z" />
    <glyph glyph-name="f" unicode="f" horiz-adv-x="371" 
d="M338 513h-188v-513h-16v513h-114v16h114v91c0 113 23 156 126 156c21 0 61 -3 81 -6v-15c-20 2 -60 5 -81 5c-89 0 -110 -30 -110 -140v-91h188v-16z" />
    <glyph glyph-name="g" unicode="g" horiz-adv-x="523" 
d="M438 1c0 -161 -53 -213 -203 -213c-63 0 -109 5 -164 11v15c57 -6 108 -11 164 -11c138 0 187 42 187 198v25c-35 -14 -96 -38 -167 -38c-142 0 -198 74 -198 242v71c0 175 70 241 228 241c27 0 81 -3 153 -13v-528zM422 42v473c-56 8 -112 11 -137 11
c-144 0 -211 -55 -211 -225v-71c0 -164 53 -227 182 -227c68 0 125 23 166 39z" />
    <glyph glyph-name="h" unicode="h" horiz-adv-x="549" 
d="M469 0h-17v331c0 148 -44 196 -152 196c-69 0 -142 -30 -198 -60v-467h-17v770h17v-286c53 27 122 59 198 59c127 0 169 -64 169 -212v-331z" />
    <glyph glyph-name="i" unicode="i" 
d="M107 0h-17v529h17v-529zM107 643h-17v127h17v-127z" />
    <glyph glyph-name="j" unicode="j" 
d="M107 -88c0 -79 -15 -124 -92 -124c-10 0 -30 0 -59 4v14c32 -3 49 -3 59 -3c62 0 75 32 75 109v617h17v-617zM107 641h-17v129h17v-129z" />
    <glyph glyph-name="k" unicode="k" horiz-adv-x="416" 
d="M406 0h-24l-280 278v-278h-17v770h17v-488l278 247h26l-281 -249z" />
    <glyph glyph-name="l" unicode="l" horiz-adv-x="187" 
d="M102 0h-17v770h17v-770z" />
    <glyph glyph-name="m" unicode="m" horiz-adv-x="794" 
d="M714 0h-17v359c0 103 -20 168 -121 168c-51 0 -113 -19 -180 -63c7 -21 12 -49 12 -105v-359h-17v359c0 110 -16 168 -121 168c-46 0 -103 -19 -168 -58v-469h-17v529h17v-44c64 40 122 58 168 58c66 0 103 -23 122 -64c64 44 133 64 184 64c118 0 138 -81 138 -184v-359
z" />
    <glyph glyph-name="n" unicode="n" horiz-adv-x="549" 
d="M469 0h-17v331c0 148 -44 196 -153 196c-68 0 -138 -28 -197 -60v-467h-17v529h17v-45c54 29 122 59 197 59c127 0 170 -64 170 -212v-331z" />
    <glyph glyph-name="o" unicode="o" horiz-adv-x="534" 
d="M477 260c-1 -184 -58 -272 -210 -272s-209 88 -210 272v12c0 183 58 271 210 271s209 -88 210 -271v-12zM460 260v12c0 180 -56 255 -193 255s-193 -75 -193 -255v-12c0 -181 56 -257 193 -257s193 76 193 257z" />
    <glyph glyph-name="p" unicode="p" horiz-adv-x="525" 
d="M468 260c0 -189 -67 -272 -226 -272c-25 0 -67 1 -141 8v-204h-16v737h16v-42c40 21 113 56 187 56c138 0 180 -78 180 -271v-12zM451 260v12c0 187 -36 255 -164 255c-70 0 -147 -35 -186 -56v-459c67 -7 116 -8 141 -8c145 0 209 72 209 256z" />
    <glyph glyph-name="q" unicode="q" horiz-adv-x="521" 
d="M436 -208h-17v221c-43 -16 -109 -25 -150 -25c-149 0 -214 69 -214 272v11c0 206 63 271 226 271c25 0 78 0 155 -7v-743zM419 30v491c-62 5 -113 5 -138 5c-149 0 -210 -54 -210 -255v-11c0 -198 62 -256 198 -256c40 0 101 8 150 26z" />
    <glyph glyph-name="r" unicode="r" horiz-adv-x="332" 
d="M322 527c-36 0 -127 -2 -221 -57v-470h-16v529h16v-43c89 55 185 57 221 57v-16z" />
    <glyph glyph-name="s" unicode="s" horiz-adv-x="451" 
d="M401 124c0 -73 -50 -136 -181 -136c-65 0 -122 7 -164 18v15c36 -8 99 -18 164 -18c117 0 165 52 165 121c0 66 -37 98 -145 137l-36 13c-99 36 -154 74 -154 147c0 85 66 121 184 121c52 0 108 -7 145 -15v-16c-36 8 -94 16 -145 16c-109 0 -167 -28 -167 -106
c0 -66 48 -97 145 -132l36 -13c107 -39 153 -75 153 -152z" />
    <glyph glyph-name="t" unicode="t" horiz-adv-x="364" 
d="M339 -5c-35 -6 -73 -7 -90 -7c-78 0 -99 35 -99 126v399h-130v16h130v151h16v-151h173v-16h-173v-399c0 -83 18 -111 83 -111c19 0 52 1 90 6v-14z" />
    <glyph glyph-name="u" unicode="u" horiz-adv-x="548" 
d="M463 0h-16v46c-51 -28 -115 -58 -198 -58c-127 0 -169 63 -169 212v329h16v-329c0 -149 45 -197 153 -197c76 0 144 30 198 61v465h16v-529z" />
    <glyph glyph-name="v" unicode="v" horiz-adv-x="455" 
d="M435 529l-195 -529h-25l-195 529h18l156 -426l33 -90h2l33 90l154 426h19z" />
    <glyph glyph-name="w" unicode="w" horiz-adv-x="767" 
d="M737 529l-138 -529h-22l-166 415c-9 22 -17 43 -26 65h-2c-9 -22 -17 -43 -26 -65l-166 -415h-22l-139 529h18l110 -426c7 -28 15 -57 22 -85h3c11 28 23 57 34 85l155 393h24l156 -393c11 -28 23 -57 34 -85h3l21 84l108 427h19z" />
    <glyph glyph-name="x" unicode="x" horiz-adv-x="466" 
d="M446 0h-22l-191 260l-192 -260h-21l203 273l-188 256h21l179 -243l178 243h21l-189 -256z" />
    <glyph glyph-name="y" unicode="y" horiz-adv-x="461" 
d="M435 529l-203 -560c-53 -146 -77 -181 -178 -181c-19 0 -45 1 -72 3v16c32 -2 54 -3 72 -3c88 0 110 28 160 168l11 30l-205 527h18l165 -425c10 -25 19 -50 29 -75h4c9 25 18 49 27 74l154 426h18z" />
    <glyph glyph-name="z" unicode="z" horiz-adv-x="462" 
d="M412 0h-367v15l345 498h-333v16h354v-15l-346 -499h347v-15z" />
    <glyph glyph-name="braceleft" unicode="{" horiz-adv-x="379" 
d="M336 -208h-36c-122 0 -139 53 -139 131v177c0 77 -14 111 -80 158v20c66 47 80 81 80 158v176c0 78 17 131 139 131h36v-16h-36c-112 0 -123 -44 -123 -115v-176c0 -77 -18 -122 -84 -168c66 -46 84 -91 84 -168v-177c0 -71 11 -115 123 -115h36v-16z" />
    <glyph glyph-name="bar" unicode="|" horiz-adv-x="214" 
d="M115 -208h-17v951h17v-951z" />
    <glyph glyph-name="braceright" unicode="}" horiz-adv-x="379" 
d="M298 258c-65 -47 -80 -81 -80 -158v-177c0 -78 -16 -131 -139 -131h-36v16h36c112 0 123 44 123 115v177c0 77 18 122 84 168c-66 46 -84 91 -84 168v176c0 71 -11 115 -123 115h-36v16h36c123 0 139 -53 139 -131v-176c0 -77 15 -111 80 -158v-20z" />
    <glyph glyph-name="asciitilde" unicode="~" horiz-adv-x="683" 
d="M547 485c0 -89 -11 -142 -80 -142c-43 0 -80 34 -110 66l-47 51c-35 37 -57 56 -91 56c-60 0 -66 -48 -66 -127v-36h-17v36c0 89 13 143 83 143c39 0 66 -22 104 -62l46 -49c33 -36 64 -62 98 -62c58 0 63 48 63 126v36h17v-36z" />
    <glyph glyph-name="exclamdown" unicode="&#xa1;" horiz-adv-x="191" 
d="M104 -208h-17v550h17v-550zM104 529v-112h-17v112h17z" />
    <glyph glyph-name="cent" unicode="&#xa2;" horiz-adv-x="441" 
d="M398 531v-16c-60 8 -99 12 -132 12c-131 0 -194 -66 -194 -225v-73c0 -167 60 -226 194 -226c28 0 64 3 132 12v-14c-65 -10 -98 -12 -126 -13v-113h-16v113c-141 4 -201 71 -201 241v73c0 161 64 237 201 241v119h16v-119c28 -1 61 -2 126 -12z" />
    <glyph glyph-name="sterling" unicode="&#xa3;" horiz-adv-x="609" 
d="M541 736v-15c-46 4 -106 9 -163 9c-161 0 -201 -52 -201 -218v-114h283v-16h-283v-193c0 -79 -15 -123 -59 -173h423v-16h-444v16c52 55 64 95 64 173v193h-91v16h91v114c0 169 40 234 217 234c57 0 111 -4 163 -10z" />
    <glyph glyph-name="fraction" unicode="&#x2044;" horiz-adv-x="363" 
d="M434 743l-473 -743h-20l473 743h20z" />
    <glyph glyph-name="yen" unicode="&#xa5;" horiz-adv-x="652" 
d="M556 298h-226v-298h-17v298h-227v17h225l-78 148h-147v17h138l-137 263h19l178 -341c12 -24 25 -47 37 -71h1c12 23 24 47 36 70l177 342h20l-137 -263h138v-17h-147l-77 -148h224v-17z" />
    <glyph glyph-name="florin" unicode="&#x192;" horiz-adv-x="609" 
d="M559 749l-3 -14c-19 2 -56 5 -77 5c-89 0 -118 -30 -131 -140l-24 -198h188l-2 -16h-188l-48 -393c-14 -117 -46 -155 -149 -155c-20 0 -58 3 -77 6l2 14c21 -2 57 -5 77 -5c89 0 118 30 131 140l47 393h-155l2 16h155l25 198c15 115 45 155 149 155c20 0 58 -3 78 -6z
" />
    <glyph glyph-name="section" unicode="&#xa7;" horiz-adv-x="591" 
d="M94 -219v15c60 -7 121 -12 187 -12c119 0 214 52 214 175c0 107 -52 133 -199 208l-49 25c-86 44 -170 87 -170 186c0 44 14 86 40 113c-25 33 -41 64 -41 107c0 129 110 156 223 156c84 0 154 -7 192 -13v-16c-42 5 -108 13 -192 13c-110 0 -206 -25 -206 -140
c0 -91 62 -133 173 -189l50 -25c133 -66 196 -99 196 -205c0 -44 -9 -83 -29 -114c20 -33 29 -62 29 -106c0 -132 -101 -191 -231 -191c-70 0 -137 7 -187 13zM472 79c17 27 23 62 23 100c0 96 -57 124 -187 191l-51 26c-64 33 -108 61 -129 83c-22 -23 -35 -61 -35 -101
c0 -92 77 -130 163 -173l46 -23c83 -42 138 -70 170 -103z" />
    <glyph glyph-name="currency" unicode="&#xa4;" horiz-adv-x="618" 
d="M534 165l-11 -11l-76 76c-39 -36 -88 -54 -138 -54c-49 0 -99 18 -138 54l-77 -76l-11 11l76 77c-35 38 -53 87 -53 137c0 53 18 99 54 137l-77 77l12 12l76 -77c39 36 88 53 137 53s99 -17 138 -53l76 77l12 -12l-77 -76c31 -34 54 -82 54 -138c0 -50 -17 -100 -53 -138
zM495 379c0 95 -74 186 -186 186c-101 0 -186 -78 -186 -186c0 -99 81 -187 186 -187c101 0 183 81 186 187z" />
    <glyph glyph-name="quotesingle" unicode="'" horiz-adv-x="90" 
d="M70 759l-33 -240h-17l32 240h18z" />
    <glyph glyph-name="quotedblleft" unicode="&#x201c;" horiz-adv-x="305" 
d="M285 770l-61 -229h-20l64 229h17zM84 770h17l-61 -229h-20z" />
    <glyph glyph-name="guillemotleft" unicode="&#xab;" horiz-adv-x="487" 
d="M434 71h-22l-153 207l153 206h22l-154 -206zM80 278l154 -207h-22l-153 207l153 206h22z" />
    <glyph glyph-name="guilsinglleft" unicode="&#x2039;" horiz-adv-x="287" 
d="M233 71h-21l-154 207l154 206h21l-153 -206z" />
    <glyph glyph-name="guilsinglright" unicode="&#x203a;" horiz-adv-x="287" 
d="M233 278l-153 -207h-22l154 207l-154 206h22z" />
    <glyph glyph-name="endash" unicode="&#x2013;" horiz-adv-x="487" 
d="M421 277h-356v17h356v-17z" />
    <glyph glyph-name="dagger" unicode="&#x2020;" horiz-adv-x="463" 
d="M392 523h-154v-623h-17v623h-141v17h141v230h17v-230h154v-17z" />
    <glyph glyph-name="daggerdbl" unicode="&#x2021;" horiz-adv-x="463" 
d="M398 295h-160v-395h-17v395h-147v17h147v207h-147v17h147v234h17v-234h160v-17h-160v-207h160v-17z" />
    <glyph glyph-name="periodcentered" unicode="&#xb7;" horiz-adv-x="136" 
d="M77 301h-17v136h17v-136z" />
    <glyph glyph-name="paragraph" unicode="&#xb6;" horiz-adv-x="664" 
d="M471 -208h-16v483h-79c-181 0 -313 44 -313 230v10c0 192 130 231 313 231h221v-954h-16v938h-110v-938zM455 291v439h-79c-172 0 -297 -36 -297 -215v-9c0 -175 126 -215 297 -215h79z" />
    <glyph glyph-name="bullet" unicode="&#x2022;" horiz-adv-x="506" 
d="M437 369c0 -99 -80 -179 -179 -179s-179 80 -179 179c0 100 80 180 179 180s179 -80 179 -180zM421 369c0 90 -74 165 -163 165s-163 -75 -163 -165c0 -89 74 -163 163 -163s163 74 163 163z" />
    <glyph glyph-name="quotesinglbase" unicode="&#x201a;" horiz-adv-x="121" 
d="M101 134l-63 -228h-18l61 228h20z" />
    <glyph glyph-name="quotedblbase" unicode="&#x201e;" horiz-adv-x="305" 
d="M285 134l-63 -228h-18l61 228h20zM101 134h-20l-61 -228h18z" />
    <glyph glyph-name="quotedblright" unicode="&#x201d;" horiz-adv-x="305" 
d="M285 770l-64 -229h-17l61 229h20zM81 770h20l-64 -229h-17z" />
    <glyph glyph-name="guillemotright" unicode="&#xbb;" horiz-adv-x="487" 
d="M433 278l-153 -207h-22l154 207l-154 206h22zM80 484l153 -206l-153 -207h-22l154 207l-154 206h22z" />
    <glyph glyph-name="ellipsis" unicode="&#x2026;" horiz-adv-x="660" 
d="M78 0h-16v132h16v-132zM338 0h-16v132h16v-132zM598 0h-16v132h16v-132z" />
    <glyph glyph-name="perthousand" unicode="&#x2030;" horiz-adv-x="1277" 
d="M1226 180c0 -141 -61 -193 -146 -193c-86 0 -146 53 -146 193v58c0 140 60 193 146 193c85 0 146 -53 146 -193v-58zM1210 179v59c0 136 -55 177 -130 177s-130 -41 -130 -177v-59c0 -135 55 -176 130 -176s130 41 130 176zM858 180c0 -141 -61 -193 -146 -193
c-86 0 -147 53 -147 193v58c0 140 61 193 147 193c85 0 146 -53 146 -193v-58zM841 179v59c0 136 -55 177 -129 177c-75 0 -130 -41 -130 -177v-59c0 -135 55 -176 130 -176c74 0 129 41 129 176zM708 743l-474 -743h-20l474 743h20zM354 503c0 -140 -61 -193 -147 -193
s-146 54 -146 193v59c0 139 60 193 146 193s147 -53 147 -193v-59zM337 503v59c0 135 -55 177 -130 177c-74 0 -130 -42 -130 -177v-59c0 -135 56 -177 130 -177c75 0 130 42 130 177z" />
    <glyph glyph-name="questiondown" unicode="&#xbf;" horiz-adv-x="414" 
d="M387 -211c-49 -9 -104 -13 -140 -13c-103 0 -189 22 -189 138c0 74 20 113 102 191c100 95 112 124 112 199v31h17v-31c0 -75 -13 -111 -118 -210c-81 -75 -96 -109 -96 -183c0 -99 71 -120 172 -120c36 0 92 5 140 13v-15zM289 415h-17v114h17v-114z" />
    <glyph glyph-name="grave" unicode="`" horiz-adv-x="380" 
d="M239 616h-21l-142 154h21z" />
    <glyph glyph-name="acute" unicode="&#xb4;" horiz-adv-x="415" 
d="M330 770l-142 -154h-20l141 154h21z" />
    <glyph glyph-name="circumflex" unicode="&#x2c6;" horiz-adv-x="446" 
d="M374 616h-21l-130 139l-130 -139h-21l144 154h14z" />
    <glyph glyph-name="tilde" unicode="&#x2dc;" horiz-adv-x="429" 
d="M383 740c0 -77 -15 -123 -74 -123c-35 0 -54 15 -84 50l-42 49c-29 33 -43 45 -72 45c-54 0 -58 -50 -58 -108v-34h-16v34c0 77 15 123 74 123c35 0 52 -15 82 -49l43 -49c30 -34 43 -46 73 -46c53 0 58 50 58 108v33h16v-33z" />
    <glyph glyph-name="macron" unicode="&#xaf;" horiz-adv-x="439" 
d="M391 682h-343v16h343v-16z" />
    <glyph glyph-name="breve" unicode="&#x2d8;" horiz-adv-x="421" 
d="M360 773c-8 -89 -38 -159 -148 -159c-111 0 -140 70 -148 159h15c6 -76 28 -144 133 -144c104 0 126 68 132 144h16z" />
    <glyph glyph-name="dotaccent" unicode="&#x2d9;" horiz-adv-x="378" 
d="M212 645h-16v122h16v-122z" />
    <glyph glyph-name="dieresis" unicode="&#xa8;" horiz-adv-x="410" 
d="M328 639h-17v121h17v-121zM97 760v-121h-17v121h17z" />
    <glyph glyph-name="ring" unicode="&#x2da;" horiz-adv-x="421" 
d="M323 703c0 -71 -47 -106 -111 -106s-112 35 -112 106c0 70 48 105 112 105s111 -35 111 -105zM307 703c0 69 -47 90 -95 90c-49 0 -96 -21 -96 -90c0 -70 47 -91 96 -91c48 0 95 21 95 91z" />
    <glyph glyph-name="cedilla" unicode="&#xb8;" horiz-adv-x="390" 
d="M235 -68l-131 -140h-21l131 140h21z" />
    <glyph glyph-name="hungarumlaut" unicode="&#x2dd;" horiz-adv-x="432" 
d="M403 770l-142 -154h-20l141 154h21zM202 770h21l-142 -154h-20z" />
    <glyph glyph-name="ogonek" unicode="&#x2db;" horiz-adv-x="422" 
d="M317 -208c-14 -4 -50 -9 -83 -9c-84 0 -111 35 -111 84c0 66 86 104 160 133h34c-99 -39 -177 -71 -177 -133c0 -45 26 -69 94 -69c33 0 68 5 83 8v-14z" />
    <glyph glyph-name="caron" unicode="&#x2c7;" horiz-adv-x="446" 
d="M72 770h21l130 -139l130 139h21l-144 -154h-14z" />
    <glyph glyph-name="emdash" unicode="&#x2014;" horiz-adv-x="625" 
d="M560 277h-495v17h495v-17z" />
    <glyph glyph-name="AE" unicode="&#xc6;" horiz-adv-x="898" 
d="M843 0h-404v302h-295l-107 -302h-17l268 743h555v-16h-388v-327h359v-16h-359v-369h388v-15zM439 318v409h-141c-11 -34 -23 -65 -35 -98l-113 -311h289z" />
    <glyph glyph-name="ordfeminine" unicode="&#xaa;" horiz-adv-x="319" 
d="M256 442h-15v24c-23 -12 -60 -32 -110 -32c-65 0 -96 32 -96 88v12c0 73 44 90 143 90h63v28c0 75 -17 91 -100 91c-12 0 -56 -2 -81 -5v14c26 3 65 5 81 5c93 0 115 -23 115 -105v-210zM241 482v127h-63c-91 0 -128 -11 -128 -75v-12c0 -53 29 -74 82 -74
c45 0 84 19 109 34z" />
    <glyph glyph-name="Lslash" unicode="&#x141;" horiz-adv-x="508" 
d="M-11 288v24l96 94v337h16v-322l147 145v-24l-147 -145v-382h382v-15h-398v382z" />
    <glyph glyph-name="Oslash" unicode="&#xd8;" horiz-adv-x="646" 
d="M591 361c0 -281 -105 -373 -268 -373c-81 0 -148 23 -195 80l-47 -68h-19l56 81c-41 59 -63 149 -63 280v21c0 282 106 372 268 372c84 0 153 -24 200 -88l54 78h19l-63 -91c37 -59 58 -146 58 -271v-21zM513 652c-45 64 -112 86 -190 86c-145 0 -252 -75 -252 -356v-21
c0 -125 21 -210 58 -265zM575 361v21c0 119 -20 201 -53 256l-384 -555c46 -59 110 -79 185 -79c145 0 252 76 252 357z" />
    <glyph glyph-name="OE" unicode="&#x152;" horiz-adv-x="959" 
d="M895 15v-15h-376c-64 -11 -136 -14 -186 -14c-162 0 -277 95 -277 350v69c0 254 115 349 277 349c46 0 112 -3 171 -11h391v-16h-388v-327h359v-16h-359v-369h388zM491 11v718c-57 8 -119 10 -158 10c-146 0 -261 -81 -261 -334v-69c0 -254 115 -335 261 -335
c39 0 101 2 158 10z" />
    <glyph glyph-name="ordmasculine" unicode="&#xba;" horiz-adv-x="318" 
d="M283 582c0 -86 -34 -150 -124 -150s-123 64 -124 150v26c1 86 34 149 124 149s124 -63 124 -149v-26zM268 582v26c0 82 -33 135 -109 135s-108 -53 -108 -135v-26c0 -82 32 -136 108 -136s109 54 109 136z" />
    <glyph glyph-name="ae" unicode="&#xe6;" horiz-adv-x="869" 
d="M813 4c-41 -7 -112 -16 -175 -16c-125 0 -192 14 -222 80c-54 -47 -130 -80 -212 -80c-93 0 -151 52 -151 147v24c0 116 70 148 239 148h114v58c0 126 -32 162 -175 162c-29 0 -88 -3 -143 -8v15c59 7 116 9 143 9c144 0 180 -43 190 -127c22 75 87 127 197 127
c156 0 209 -104 209 -238v-42h-404v-144c0 -101 90 -116 215 -116c63 0 133 9 175 16v-15zM811 279v27c0 133 -56 221 -193 221c-144 0 -195 -94 -195 -197v-51h388zM406 80v212h-114c-162 0 -222 -25 -222 -133v-24c0 -89 51 -132 136 -132c78 0 151 36 200 77z" />
    <glyph glyph-name="dotlessi" unicode="&#x131;" 
d="M107 0h-17v529h17v-529z" />
    <glyph glyph-name="lslash" unicode="&#x142;" horiz-adv-x="187" 
d="M102 0h-17v392l-90 -87v23l90 87v355h17v-338l88 86v-23l-88 -86v-409z" />
    <glyph glyph-name="oslash" unicode="&#xf8;" horiz-adv-x="534" 
d="M477 260c-1 -184 -58 -272 -210 -272c-69 0 -118 18 -152 55l-51 -69h-20l61 82c-33 45 -48 112 -48 204v12c0 183 58 271 210 271c72 0 122 -20 156 -60l54 72h20l-64 -86c30 -45 43 -110 44 -197v-12zM460 260v12c0 82 -12 142 -38 183l-297 -399
c31 -36 78 -53 142 -53c137 0 193 76 193 257zM413 469c-31 40 -79 58 -146 58c-137 0 -193 -75 -193 -255v-12c0 -87 13 -149 41 -191z" />
    <glyph glyph-name="oe" unicode="&#x153;" horiz-adv-x="918" 
d="M872 263h-403v-29c0 -173 95 -231 216 -231c62 0 132 9 175 16v-15c-41 -7 -113 -16 -175 -16c-99 0 -190 34 -225 159c-19 -87 -71 -161 -201 -161c-153 0 -210 104 -210 249v59c0 146 57 249 210 249c117 0 181 -66 201 -155c20 91 85 155 203 155
c151 0 209 -104 209 -242v-38zM856 279v22c0 138 -58 226 -193 226c-149 0 -194 -101 -194 -226v-22h387zM452 235v59c0 152 -60 233 -193 233c-137 0 -193 -87 -194 -233v-59c1 -145 57 -234 194 -234s193 89 193 234z" />
    <glyph glyph-name="germandbls" unicode="&#xdf;" horiz-adv-x="582" 
d="M536 204c0 -138 -69 -216 -213 -216c-15 0 -29 0 -50 2v15c25 -2 34 -2 50 -2c126 0 196 67 196 201v13c0 112 -61 176 -215 176h-31v16h31c146 0 200 74 200 183v5c0 108 -45 175 -191 175c-145 0 -192 -77 -192 -230v-542h-17v542c0 158 51 246 209 246
c156 0 207 -77 207 -191v-5c0 -110 -59 -178 -156 -191c98 -6 172 -69 172 -184v-13z" />
    <glyph glyph-name="one.superior" unicode="&#xb9;" horiz-adv-x="300" 
d="M269 339h-238v14h109v401l-109 -38v15l109 38h16v-416h113v-14z" />
    <glyph glyph-name="logicalnot" unicode="&#xac;" horiz-adv-x="683" 
d="M565 269h-17v233h-430v16h447v-249z" />
    <glyph glyph-name="mu" unicode="&#xb5;" horiz-adv-x="591" 
d="M487 0h-16v46c-51 -28 -115 -58 -198 -58c-85 0 -131 27 -153 90v-286h-16v737h16v-329c0 -149 45 -197 153 -197c76 0 144 30 198 61v465h16v-529z" />
    <glyph glyph-name="trademark" unicode="&#x2122;" horiz-adv-x="828" 
d="M762 349h-15v294v87h-1c-17 -24 -34 -49 -50 -73l-92 -136h-17l-91 135c-17 25 -33 49 -50 74h-1v-86v-295h-15v394h25l101 -150c13 -19 26 -39 39 -58h1c13 19 26 39 39 58l101 150h26v-394zM350 727h-147v-378h-16v378h-146v16h309v-16z" />
    <glyph glyph-name="Eth" unicode="&#xd0;" horiz-adv-x="629" 
d="M574 360c0 -268 -99 -372 -304 -372c-82 0 -136 7 -185 12v380h-65v17h65v347c69 5 93 9 185 9c205 0 304 -103 304 -371v-22zM558 360v22c0 265 -102 355 -288 355c-78 0 -124 -4 -169 -8v-332h198v-17h-198v-366c42 -4 100 -10 169 -10c186 0 288 91 288 356z" />
    <glyph glyph-name="onehalf" unicode="&#xbd;" horiz-adv-x="841" 
d="M660 743l-474 -743h-20l474 743h20zM287 317h-239v14h109v402l-109 -38v15l109 38h16v-417h114v-14zM532 412v15c32 6 73 10 113 10c96 0 148 -23 148 -96c0 -57 -20 -88 -119 -138c-115 -58 -133 -85 -133 -183v-5h245v-15h-261v20c0 105 21 135 140 195
c97 49 112 74 112 126c0 64 -46 81 -132 81c-35 0 -79 -4 -113 -10z" />
    <glyph glyph-name="plusminus" unicode="&#xb1;" horiz-adv-x="683" 
d="M586 0h-489v16h489v-16zM591 385h-240v-241h-17v241h-242v17h242v241h17v-241h240v-17z" />
    <glyph glyph-name="Thorn" unicode="&#xde;" horiz-adv-x="560" 
d="M96 0h-16v743h16v-116c64 3 112 4 153 4c186 0 260 -76 260 -212v-22c0 -136 -74 -212 -260 -212c-41 0 -89 1 -153 4v-189zM493 397v22c0 131 -73 196 -244 196c-44 0 -92 -1 -153 -4v-406c61 -3 109 -4 153 -4c171 0 244 65 244 196z" />
    <glyph glyph-name="onequarter" unicode="&#xbc;" horiz-adv-x="779" 
d="M660 743l-474 -743h-20l474 743h20zM287 317h-239v14h109v402l-109 -38v15l109 38h16v-417h114v-14zM655 0h-16v130h-225v15l222 285h19v-285h76v-15h-76v-130zM639 145v266l-205 -266h205z" />
    <glyph glyph-name="divide" unicode="&#xf7;" horiz-adv-x="683" 
d="M349 93h-16v129h16v-129zM593 397v-17h-503v17h503zM349 533h-16v129h16v-129z" />
    <glyph glyph-name="brokenbar" unicode="&#xa6;" horiz-adv-x="214" 
d="M120 -208h-17v384h17v-384zM120 743v-384h-17v384h17z" />
    <glyph glyph-name="degree" unicode="&#xb0;" horiz-adv-x="432" 
d="M393 581c0 -98 -77 -171 -174 -171s-174 73 -174 171c0 99 77 173 174 173s174 -74 174 -173zM376 581c0 92 -71 157 -157 157c-87 0 -157 -65 -157 -157c0 -91 70 -155 157 -155c86 0 157 64 157 155z" />
    <glyph glyph-name="thorn" unicode="&#xfe;" horiz-adv-x="525" 
d="M102 -208h-17v978h17v-283c40 21 113 56 186 56c138 0 180 -78 180 -271v-12c0 -189 -67 -272 -226 -272c-25 0 -66 1 -140 8v-204zM452 260v12c0 187 -37 255 -164 255c-70 0 -148 -35 -186 -56v-459c66 -7 115 -8 140 -8c146 0 210 72 210 256z" />
    <glyph glyph-name="threequarters" unicode="&#xbe;" horiz-adv-x="773" 
d="M653 743l-473 -743h-20l473 743h20zM48 732v15c23 3 69 8 109 8c106 0 153 -24 153 -101v-4c0 -49 -16 -95 -76 -108c65 -12 76 -59 76 -106c0 -82 -38 -125 -153 -125c-44 0 -93 5 -109 8v15c21 -3 66 -8 106 -8c103 0 140 30 140 112c0 51 -13 97 -100 97h-133v15h133
c88 0 100 52 100 100v4c0 65 -38 86 -138 86c-33 0 -84 -5 -108 -8zM649 0h-16v130h-225v15l222 285h19v-285h76v-15h-76v-130zM633 145v266l-205 -266h205z" />
    <glyph glyph-name="two.superior" unicode="&#xb2;" horiz-adv-x="374" 
d="M60 751v15c32 6 73 10 113 10c96 0 148 -23 148 -96c0 -57 -20 -88 -119 -138c-115 -58 -133 -85 -133 -183v-5h245v-15h-261v20c0 105 21 135 140 195c97 49 112 74 112 126c0 64 -46 81 -132 81c-35 0 -79 -4 -113 -10z" />
    <glyph glyph-name="registered" unicode="&#xae;" horiz-adv-x="657" 
d="M595 481c0 -162 -112 -280 -267 -280s-266 118 -266 280c0 163 111 281 266 281s267 -118 267 -281zM578 481c0 154 -98 265 -250 265s-250 -111 -250 -265c0 -152 98 -264 250 -264s250 112 250 264zM433 336h-16l-82 134h-83v-134h-14v310c33 2 55 3 74 3
c75 0 110 -31 110 -86v-4c0 -56 -34 -79 -72 -86zM407 559v4c0 52 -33 73 -95 73c-18 0 -41 -1 -60 -2v-150h71c49 0 84 19 84 75z" />
    <glyph glyph-name="minus" unicode="&#x2212;" horiz-adv-x="683" 
d="M578 385h-474v17h474v-17z" />
    <glyph glyph-name="eth" unicode="&#xf0;" horiz-adv-x="534" 
d="M477 235c-1 -145 -58 -249 -210 -249c-153 0 -210 104 -210 249v59c0 146 57 249 210 249c96 0 156 -43 185 -107c-25 134 -67 221 -162 275l-143 -98l-8 11l137 95c-46 24 -98 34 -155 37c-11 1 -23 1 -34 1v14c11 0 23 0 34 -1c55 -3 109 -13 169 -42l89 58l9 -11
l-85 -55c113 -68 173 -197 174 -426v-59zM460 235v59c0 146 -56 233 -193 233s-193 -87 -194 -233v-59c1 -145 57 -234 194 -234s193 89 193 234z" />
    <glyph glyph-name="multiply" unicode="&#xd7;" horiz-adv-x="683" 
d="M544 202l-12 -12l-191 191l-191 -192l-12 12l192 191l-193 192l12 12l192 -192l192 192l12 -12l-192 -192z" />
    <glyph glyph-name="three.superior" unicode="&#xb3;" horiz-adv-x="368" 
d="M162 332c-44 0 -93 5 -109 8v15c21 -3 66 -8 106 -8c103 0 140 30 140 112c0 51 -13 97 -100 97h-133v15h133c88 0 100 52 100 100v4c0 65 -38 86 -138 86c-33 0 -84 -5 -108 -8v15c23 3 69 8 109 8c106 0 153 -24 153 -101v-4c0 -49 -16 -95 -76 -108
c65 -12 76 -59 76 -106c0 -82 -38 -125 -153 -125z" />
    <glyph glyph-name="copyright" unicode="&#xa9;" horiz-adv-x="820" 
d="M766 378c0 -233 -154 -362 -355 -362s-354 129 -354 362s153 362 354 362s355 -129 355 -362zM749 378c0 220 -141 346 -338 346c-196 0 -337 -126 -337 -346c0 -221 141 -346 337 -346c197 0 338 125 338 346zM416 159c48 0 95 6 103 8v16c-27 -4 -59 -8 -103 -8
c-104 0 -159 53 -159 180v41c0 127 55 181 159 181c44 0 76 -4 103 -8v16c-8 2 -55 8 -103 8c-116 0 -176 -66 -176 -197v-41c0 -131 60 -196 176 -196z" />
    <glyph glyph-name="Aacute" unicode="&#xc1;" horiz-adv-x="602" 
d="M582 0h-19l-106 302h-313l-106 -302h-18l269 744h24zM451 318l-113 312c-12 34 -24 67 -36 101h-2c-11 -34 -24 -67 -36 -101l-114 -312h301zM421 943l-142 -154h-20l141 154h21z" />
    <glyph glyph-name="Acircumflex" unicode="&#xc2;" horiz-adv-x="602" 
d="M582 0h-19l-106 302h-313l-106 -302h-18l269 744h24zM451 318l-113 312c-12 34 -24 67 -36 101h-2c-11 -34 -24 -67 -36 -101l-114 -312h301zM452 789h-21l-130 139l-130 -139h-21l144 154h14z" />
    <glyph glyph-name="Adieresis" unicode="&#xc4;" horiz-adv-x="602" 
d="M582 0h-19l-106 302h-313l-106 -302h-18l269 744h24zM451 318l-113 312c-12 34 -24 67 -36 101h-2c-11 -34 -24 -67 -36 -101l-114 -312h301zM425 809h-17v121h17v-121zM194 930v-121h-17v121h17z" />
    <glyph glyph-name="Agrave" unicode="&#xc0;" horiz-adv-x="602" 
d="M582 0h-19l-106 302h-313l-106 -302h-18l269 744h24zM451 318l-113 312c-12 34 -24 67 -36 101h-2c-11 -34 -24 -67 -36 -101l-114 -312h301zM354 788h-21l-142 154h21z" />
    <glyph glyph-name="Aring" unicode="&#xc5;" horiz-adv-x="602" 
d="M582 0h-19l-106 302h-313l-106 -302h-18l269 744h24zM451 318l-113 312c-12 34 -24 67 -36 101h-2c-11 -34 -24 -67 -36 -101l-114 -312h301zM412 880c0 -71 -47 -106 -111 -106s-112 35 -112 106c0 70 48 105 112 105s111 -35 111 -105zM396 880c0 69 -47 90 -95 90
c-49 0 -96 -21 -96 -90c0 -70 47 -91 96 -91c48 0 95 21 95 91z" />
    <glyph glyph-name="Atilde" unicode="&#xc3;" horiz-adv-x="602" 
d="M582 0h-19l-106 302h-313l-106 -302h-18l269 744h24zM451 318l-113 312c-12 34 -24 67 -36 101h-2c-11 -34 -24 -67 -36 -101l-114 -312h301zM474 910c0 -77 -15 -123 -74 -123c-35 0 -54 15 -84 50l-42 49c-29 33 -43 45 -72 45c-54 0 -58 -50 -58 -108v-34h-16v34
c0 77 15 123 74 123c35 0 52 -15 82 -49l43 -49c30 -34 43 -46 73 -46c53 0 58 50 58 108v33h16v-33z" />
    <glyph glyph-name="Ccedilla" unicode="&#xc7;" horiz-adv-x="535" 
d="M505 1c-15 -2 -79 -13 -173 -13c-192 0 -277 116 -277 379v9c0 262 85 378 277 378c86 0 148 -9 173 -13v-15c-30 4 -92 12 -173 12c-181 0 -261 -108 -261 -362v-9c0 -255 80 -363 261 -363c88 0 144 9 173 13v-16zM343 -68l-131 -140h-21l131 140h21z" />
    <glyph glyph-name="Eacute" unicode="&#xc9;" horiz-adv-x="544" 
d="M489 0h-404v743h404v-16h-388v-327h359v-16h-359v-369h388v-15zM417 943l-142 -154h-20l141 154h21z" />
    <glyph glyph-name="Ecircumflex" unicode="&#xca;" horiz-adv-x="544" 
d="M489 0h-404v743h404v-16h-388v-327h359v-16h-359v-369h388v-15zM443 789h-21l-130 139l-130 -139h-21l144 154h14z" />
    <glyph glyph-name="Edieresis" unicode="&#xcb;" horiz-adv-x="544" 
d="M489 0h-404v743h404v-16h-388v-327h359v-16h-359v-369h388v-15zM396 809h-17v121h17v-121zM165 930v-121h-17v121h17z" />
    <glyph glyph-name="Egrave" unicode="&#xc8;" horiz-adv-x="544" 
d="M489 0h-404v743h404v-16h-388v-327h359v-16h-359v-369h388v-15zM314 789h-21l-142 154h21z" />
    <glyph glyph-name="Iacute" unicode="&#xcd;" 
d="M107 0h-17v743h17v-743zM201 943l-142 -154h-20l141 154h21z" />
    <glyph glyph-name="Icircumflex" unicode="&#xce;" 
d="M107 0h-17v743h17v-743zM249 789h-21l-130 139l-130 -139h-21l144 154h14z" />
    <glyph glyph-name="Idieresis" unicode="&#xcf;" 
d="M107 0h-17v743h17v-743zM224 808h-17v121h17v-121zM-7 929v-121h-17v121h17z" />
    <glyph glyph-name="Igrave" unicode="&#xcc;" 
d="M107 0h-17v743h17v-743zM148 789h-21l-142 154h21z" />
    <glyph glyph-name="Ntilde" unicode="&#xd1;" horiz-adv-x="664" 
d="M579 -3h-22l-417 666c-13 20 -24 39 -37 59h-1v-73v-649h-17v743h22l423 -675c11 -17 21 -34 32 -51h1v62v664h16v-746zM509 910c0 -77 -15 -123 -74 -123c-35 0 -54 15 -84 50l-42 49c-29 33 -43 45 -72 45c-54 0 -58 -50 -58 -108v-34h-16v34c0 77 15 123 74 123
c35 0 52 -15 82 -49l43 -49c30 -34 43 -46 73 -46c53 0 58 50 58 108v33h16v-33z" />
    <glyph glyph-name="Oacute" unicode="&#xd3;" horiz-adv-x="646" 
d="M591 361c0 -281 -105 -373 -268 -373s-268 92 -268 373v21c0 282 106 372 268 372s268 -90 268 -372v-21zM575 361v21c0 281 -106 356 -252 356c-145 0 -252 -75 -252 -356v-21c0 -281 108 -357 252 -357c145 0 252 76 252 357zM446 943l-142 -154h-20l141 154h21z" />
    <glyph glyph-name="Ocircumflex" unicode="&#xd4;" horiz-adv-x="646" 
d="M591 361c0 -281 -105 -373 -268 -373s-268 92 -268 373v21c0 282 106 372 268 372s268 -90 268 -372v-21zM575 361v21c0 281 -106 356 -252 356c-145 0 -252 -75 -252 -356v-21c0 -281 108 -357 252 -357c145 0 252 76 252 357zM474 789h-21l-130 139l-130 -139h-21
l144 154h14z" />
    <glyph glyph-name="Odieresis" unicode="&#xd6;" horiz-adv-x="646" 
d="M591 361c0 -281 -105 -373 -268 -373s-268 92 -268 373v21c0 282 106 372 268 372s268 -90 268 -372v-21zM575 361v21c0 281 -106 356 -252 356c-145 0 -252 -75 -252 -356v-21c0 -281 108 -357 252 -357c145 0 252 76 252 357zM447 809h-17v121h17v-121zM216 930v-121
h-17v121h17z" />
    <glyph glyph-name="Ograve" unicode="&#xd2;" horiz-adv-x="646" 
d="M591 361c0 -281 -105 -373 -268 -373s-268 92 -268 373v21c0 282 106 372 268 372s268 -90 268 -372v-21zM575 361v21c0 281 -106 356 -252 356c-145 0 -252 -75 -252 -356v-21c0 -281 108 -357 252 -357c145 0 252 76 252 357zM367 789h-21l-142 154h21z" />
    <glyph glyph-name="Otilde" unicode="&#xd5;" horiz-adv-x="646" 
d="M591 361c0 -281 -105 -373 -268 -373s-268 92 -268 373v21c0 282 106 372 268 372s268 -90 268 -372v-21zM575 361v21c0 281 -106 356 -252 356c-145 0 -252 -75 -252 -356v-21c0 -281 108 -357 252 -357c145 0 252 76 252 357zM496 913c0 -77 -15 -123 -74 -123
c-35 0 -54 15 -84 50l-42 49c-29 33 -43 45 -72 45c-54 0 -58 -50 -58 -108v-34h-16v34c0 77 15 123 74 123c35 0 52 -15 82 -49l43 -49c30 -34 43 -46 73 -46c53 0 58 50 58 108v33h16v-33z" />
    <glyph glyph-name="Scaron" unicode="&#x160;" horiz-adv-x="546" 
d="M491 173c0 -128 -79 -185 -228 -185c-81 0 -149 6 -193 13v15c30 -4 112 -12 193 -12c126 0 211 41 211 168c0 104 -57 134 -192 205l-49 26c-102 53 -178 99 -178 197c0 112 87 154 222 154c72 0 141 -6 192 -13v-15c-37 5 -121 13 -192 13c-122 0 -206 -35 -206 -139
c0 -91 70 -128 171 -183l47 -25c136 -72 202 -108 202 -219zM118 944h21l130 -139l130 139h21l-144 -154h-14z" />
    <glyph glyph-name="Uacute" unicode="&#xda;" horiz-adv-x="650" 
d="M570 339c0 -229 -59 -348 -245 -348c-187 0 -245 119 -245 348v404h16v-404c0 -226 55 -332 229 -332c173 0 229 106 229 332v404h16v-404zM451 943l-142 -154h-20l141 154h21z" />
    <glyph glyph-name="Ucircumflex" unicode="&#xdb;" horiz-adv-x="650" 
d="M570 339c0 -229 -59 -348 -245 -348c-187 0 -245 119 -245 348v404h16v-404c0 -226 55 -332 229 -332c173 0 229 106 229 332v404h16v-404zM476 789h-21l-130 139l-130 -139h-21l144 154h14z" />
    <glyph glyph-name="Udieresis" unicode="&#xdc;" horiz-adv-x="650" 
d="M570 339c0 -229 -59 -348 -245 -348c-187 0 -245 119 -245 348v404h16v-404c0 -226 55 -332 229 -332c173 0 229 106 229 332v404h16v-404zM449 809h-17v121h17v-121zM218 930v-121h-17v121h17z" />
    <glyph glyph-name="Ugrave" unicode="&#xd9;" horiz-adv-x="650" 
d="M570 339c0 -229 -59 -348 -245 -348c-187 0 -245 119 -245 348v404h16v-404c0 -226 55 -332 229 -332c173 0 229 106 229 332v404h16v-404zM368 789h-21l-142 154h21z" />
    <glyph glyph-name="Yacute" unicode="&#xdd;" horiz-adv-x="548" 
d="M508 743l-225 -432v-311h-17v311l-226 432h19l178 -341c12 -24 25 -47 37 -71h1c12 23 24 47 36 70l177 342h20zM425 943l-142 -154h-20l141 154h21z" />
    <glyph glyph-name="Ydieresis" unicode="&#x178;" horiz-adv-x="548" 
d="M508 743l-225 -432v-311h-17v311l-226 432h19l178 -341c12 -24 25 -47 37 -71h1c12 23 24 47 36 70l177 342h20zM399 809h-17v121h17v-121zM168 930v-121h-17v121h17z" />
    <glyph glyph-name="Zcaron" unicode="&#x17d;" horiz-adv-x="563" 
d="M533 0h-503v15l467 712h-447v16h466v-16l-466 -712h483v-15zM135 943h21l130 -139l130 139h21l-144 -154h-14z" />
    <glyph glyph-name="aacute" unicode="&#xe1;" horiz-adv-x="503" 
d="M423 0h-16v44c-47 -25 -115 -56 -192 -56c-112 0 -160 53 -160 158v4c0 125 69 157 238 157h114v58c0 128 -32 162 -175 162c-37 0 -75 -2 -137 -8v16c62 6 99 8 137 8c154 0 191 -42 191 -178v-365zM407 61v231h-114c-161 0 -222 -26 -222 -142v-4
c0 -101 50 -143 146 -143c74 0 145 32 190 58zM395 770l-142 -154h-20l141 154h21z" />
    <glyph glyph-name="acircumflex" unicode="&#xe2;" horiz-adv-x="503" 
d="M423 0h-16v44c-47 -25 -115 -56 -192 -56c-112 0 -160 53 -160 158v4c0 125 69 157 238 157h114v58c0 128 -32 162 -175 162c-37 0 -75 -2 -137 -8v16c62 6 99 8 137 8c154 0 191 -42 191 -178v-365zM407 61v231h-114c-161 0 -222 -26 -222 -142v-4
c0 -101 50 -143 146 -143c74 0 145 32 190 58zM402 616h-21l-130 139l-130 -139h-21l144 154h14z" />
    <glyph glyph-name="adieresis" unicode="&#xe4;" horiz-adv-x="503" 
d="M423 0h-16v44c-47 -25 -115 -56 -192 -56c-112 0 -160 53 -160 158v4c0 125 69 157 238 157h114v58c0 128 -32 162 -175 162c-37 0 -75 -2 -137 -8v16c62 6 99 8 137 8c154 0 191 -42 191 -178v-365zM407 61v231h-114c-161 0 -222 -26 -222 -142v-4
c0 -101 50 -143 146 -143c74 0 145 32 190 58zM375 639h-17v121h17v-121zM144 760v-121h-17v121h17z" />
    <glyph glyph-name="agrave" unicode="&#xe0;" horiz-adv-x="503" 
d="M423 0h-16v44c-47 -25 -115 -56 -192 -56c-112 0 -160 53 -160 158v4c0 125 69 157 238 157h114v58c0 128 -32 162 -175 162c-37 0 -75 -2 -137 -8v16c62 6 99 8 137 8c154 0 191 -42 191 -178v-365zM407 61v231h-114c-161 0 -222 -26 -222 -142v-4
c0 -101 50 -143 146 -143c74 0 145 32 190 58zM291 616h-21l-142 154h21z" />
    <glyph glyph-name="aring" unicode="&#xe5;" horiz-adv-x="503" 
d="M423 0h-16v44c-47 -25 -115 -56 -192 -56c-112 0 -160 53 -160 158v4c0 125 69 157 238 157h114v58c0 128 -32 162 -175 162c-37 0 -75 -2 -137 -8v16c62 6 99 8 137 8c154 0 191 -42 191 -178v-365zM407 61v231h-114c-161 0 -222 -26 -222 -142v-4
c0 -101 50 -143 146 -143c74 0 145 32 190 58zM363 703c0 -71 -47 -106 -111 -106s-112 35 -112 106c0 70 48 105 112 105s111 -35 111 -105zM347 703c0 69 -47 90 -95 90c-49 0 -96 -21 -96 -90c0 -70 47 -91 96 -91c48 0 95 21 95 91z" />
    <glyph glyph-name="atilde" unicode="&#xe3;" horiz-adv-x="503" 
d="M423 0h-16v44c-47 -25 -115 -56 -192 -56c-112 0 -160 53 -160 158v4c0 125 69 157 238 157h114v58c0 128 -32 162 -175 162c-37 0 -75 -2 -137 -8v16c62 6 99 8 137 8c154 0 191 -42 191 -178v-365zM407 61v231h-114c-161 0 -222 -26 -222 -142v-4
c0 -101 50 -143 146 -143c74 0 145 32 190 58zM424 740c0 -77 -15 -123 -74 -123c-35 0 -54 15 -84 50l-42 49c-29 33 -43 45 -72 45c-54 0 -58 -50 -58 -108v-34h-16v34c0 77 15 123 74 123c35 0 52 -15 82 -49l43 -49c30 -34 43 -46 73 -46c53 0 58 50 58 108v33h16v-33z
" />
    <glyph glyph-name="ccedilla" unicode="&#xe7;" horiz-adv-x="443" 
d="M398 1c-69 -11 -103 -13 -132 -13c-146 0 -211 52 -211 271v13c0 210 69 271 211 271c36 0 73 -3 132 -12v-16c-62 9 -99 12 -132 12c-131 0 -194 -51 -194 -255v-13c0 -213 60 -256 194 -256c28 0 64 3 132 12v-14zM292 -68l-131 -140h-21l131 140h21z" />
    <glyph glyph-name="eacute" unicode="&#xe9;" horiz-adv-x="519" 
d="M469 263h-398v-15c0 -182 72 -244 214 -244c56 0 128 8 173 14v-14c-41 -7 -111 -16 -173 -16c-163 0 -230 76 -230 262v32c0 163 53 261 208 261c149 0 206 -93 206 -262v-18zM453 279v7c0 159 -55 241 -190 241c-146 0 -192 -93 -192 -241v-7h382zM401 770l-142 -154
h-20l141 154h21z" />
    <glyph glyph-name="ecircumflex" unicode="&#xea;" horiz-adv-x="519" 
d="M469 263h-398v-15c0 -182 72 -244 214 -244c56 0 128 8 173 14v-14c-41 -7 -111 -16 -173 -16c-163 0 -230 76 -230 262v32c0 163 53 261 208 261c149 0 206 -93 206 -262v-18zM453 279v7c0 159 -55 241 -190 241c-146 0 -192 -93 -192 -241v-7h382zM410 616h-21
l-130 139l-130 -139h-21l144 154h14z" />
    <glyph glyph-name="edieresis" unicode="&#xeb;" horiz-adv-x="519" 
d="M469 263h-398v-15c0 -182 72 -244 214 -244c56 0 128 8 173 14v-14c-41 -7 -111 -16 -173 -16c-163 0 -230 76 -230 262v32c0 163 53 261 208 261c149 0 206 -93 206 -262v-18zM453 279v7c0 159 -55 241 -190 241c-146 0 -192 -93 -192 -241v-7h382zM383 639h-17v121h17
v-121zM152 760v-121h-17v121h17z" />
    <glyph glyph-name="egrave" unicode="&#xe8;" horiz-adv-x="519" 
d="M469 263h-398v-15c0 -182 72 -244 214 -244c56 0 128 8 173 14v-14c-41 -7 -111 -16 -173 -16c-163 0 -230 76 -230 262v32c0 163 53 261 208 261c149 0 206 -93 206 -262v-18zM453 279v7c0 159 -55 241 -190 241c-146 0 -192 -93 -192 -241v-7h382zM303 616h-21
l-142 154h21z" />
    <glyph glyph-name="iacute" unicode="&#xed;" 
d="M107 0h-17v529h17v-529zM220 770l-142 -154h-20l141 154h21z" />
    <glyph glyph-name="icircumflex" unicode="&#xee;" 
d="M107 0h-17v529h17v-529zM250 616h-21l-130 139l-130 -139h-21l144 154h14z" />
    <glyph glyph-name="idieresis" unicode="&#xef;" 
d="M107 0h-17v529h17v-529zM223 639h-17v121h17v-121zM-8 760v-121h-17v121h17z" />
    <glyph glyph-name="igrave" unicode="&#xec;" 
d="M107 0h-17v529h17v-529zM147 616h-21l-142 154h21z" />
    <glyph glyph-name="ntilde" unicode="&#xf1;" horiz-adv-x="549" 
d="M469 0h-17v331c0 148 -44 196 -153 196c-68 0 -138 -28 -197 -60v-467h-17v529h17v-45c54 29 122 59 197 59c127 0 170 -64 170 -212v-331zM450 740c0 -77 -15 -123 -74 -123c-35 0 -54 15 -84 50l-42 49c-29 33 -43 45 -72 45c-54 0 -58 -50 -58 -108v-34h-16v34
c0 77 15 123 74 123c35 0 52 -15 82 -49l43 -49c30 -34 43 -46 73 -46c53 0 58 50 58 108v33h16v-33z" />
    <glyph glyph-name="oacute" unicode="&#xf3;" horiz-adv-x="534" 
d="M477 260c-1 -184 -58 -272 -210 -272s-209 88 -210 272v12c0 183 58 271 210 271s209 -88 210 -271v-12zM460 260v12c0 180 -56 255 -193 255s-193 -75 -193 -255v-12c0 -181 56 -257 193 -257s193 76 193 257zM396 770l-142 -154h-20l141 154h21z" />
    <glyph glyph-name="ocircumflex" unicode="&#xf4;" horiz-adv-x="534" 
d="M477 260c-1 -184 -58 -272 -210 -272s-209 88 -210 272v12c0 183 58 271 210 271s209 -88 210 -271v-12zM460 260v12c0 180 -56 255 -193 255s-193 -75 -193 -255v-12c0 -181 56 -257 193 -257s193 76 193 257zM418 616h-21l-130 139l-130 -139h-21l144 154h14z" />
    <glyph glyph-name="odieresis" unicode="&#xf6;" horiz-adv-x="534" 
d="M477 260c-1 -184 -58 -272 -210 -272s-209 88 -210 272v12c0 183 58 271 210 271s209 -88 210 -271v-12zM460 260v12c0 180 -56 255 -193 255s-193 -75 -193 -255v-12c0 -181 56 -257 193 -257s193 76 193 257zM391 639h-17v121h17v-121zM160 760v-121h-17v121h17z" />
    <glyph glyph-name="ograve" unicode="&#xf2;" horiz-adv-x="534" 
d="M477 260c-1 -184 -58 -272 -210 -272s-209 88 -210 272v12c0 183 58 271 210 271s209 -88 210 -271v-12zM460 260v12c0 180 -56 255 -193 255s-193 -75 -193 -255v-12c0 -181 56 -257 193 -257s193 76 193 257zM298 616h-21l-142 154h21z" />
    <glyph glyph-name="otilde" unicode="&#xf5;" horiz-adv-x="534" 
d="M477 260c-1 -184 -58 -272 -210 -272s-209 88 -210 272v12c0 183 58 271 210 271s209 -88 210 -271v-12zM460 260v12c0 180 -56 255 -193 255s-193 -75 -193 -255v-12c0 -181 56 -257 193 -257s193 76 193 257zM440 740c0 -77 -15 -123 -74 -123c-35 0 -54 15 -84 50
l-42 49c-29 33 -43 45 -72 45c-54 0 -58 -50 -58 -108v-34h-16v34c0 77 15 123 74 123c35 0 52 -15 82 -49l43 -49c30 -34 43 -46 73 -46c53 0 58 50 58 108v33h16v-33z" />
    <glyph glyph-name="scaron" unicode="&#x161;" horiz-adv-x="451" 
d="M401 124c0 -73 -50 -136 -181 -136c-65 0 -122 7 -164 18v15c36 -8 99 -18 164 -18c117 0 165 52 165 121c0 66 -37 98 -145 137l-36 13c-99 36 -154 74 -154 147c0 85 66 121 184 121c52 0 108 -7 145 -15v-16c-36 8 -94 16 -145 16c-109 0 -167 -28 -167 -106
c0 -66 48 -97 145 -132l36 -13c107 -39 153 -75 153 -152zM74 770h21l130 -139l130 139h21l-144 -154h-14z" />
    <glyph glyph-name="uacute" unicode="&#xfa;" horiz-adv-x="548" 
d="M463 0h-16v46c-51 -28 -115 -58 -198 -58c-127 0 -169 63 -169 212v329h16v-329c0 -149 45 -197 153 -197c76 0 144 30 198 61v465h16v-529zM411 770l-142 -154h-20l141 154h21z" />
    <glyph glyph-name="ucircumflex" unicode="&#xfb;" horiz-adv-x="548" 
d="M463 0h-16v46c-51 -28 -115 -58 -198 -58c-127 0 -169 63 -169 212v329h16v-329c0 -149 45 -197 153 -197c76 0 144 30 198 61v465h16v-529zM425 616h-21l-130 139l-130 -139h-21l144 154h14z" />
    <glyph glyph-name="udieresis" unicode="&#xfc;" horiz-adv-x="548" 
d="M463 0h-16v46c-51 -28 -115 -58 -198 -58c-127 0 -169 63 -169 212v329h16v-329c0 -149 45 -197 153 -197c76 0 144 30 198 61v465h16v-529zM398 639h-17v121h17v-121zM167 760v-121h-17v121h17z" />
    <glyph glyph-name="ugrave" unicode="&#xf9;" horiz-adv-x="548" 
d="M463 0h-16v46c-51 -28 -115 -58 -198 -58c-127 0 -169 63 -169 212v329h16v-329c0 -149 45 -197 153 -197c76 0 144 30 198 61v465h16v-529zM307 616h-21l-142 154h21z" />
    <glyph glyph-name="yacute" unicode="&#xfd;" horiz-adv-x="461" 
d="M435 529l-203 -560c-53 -146 -77 -181 -178 -181c-19 0 -45 1 -72 3v16c32 -2 54 -3 72 -3c88 0 110 28 160 168l11 30l-205 527h18l165 -425c10 -25 19 -50 29 -75h4c9 25 18 49 27 74l154 426h18zM377 770l-142 -154h-20l141 154h21z" />
    <glyph glyph-name="ydieresis" unicode="&#xff;" horiz-adv-x="461" 
d="M435 529l-203 -560c-53 -146 -77 -181 -178 -181c-19 0 -45 1 -72 3v16c32 -2 54 -3 72 -3c88 0 110 28 160 168l11 30l-205 527h18l165 -425c10 -25 19 -50 29 -75h4c9 25 18 49 27 74l154 426h18zM357 639h-17v121h17v-121zM126 760v-121h-17v121h17z" />
    <glyph glyph-name="zcaron" unicode="&#x17e;" horiz-adv-x="462" 
d="M412 0h-367v15l345 498h-333v16h354v-15l-346 -499h347v-15zM77 770h21l130 -139l130 139h21l-144 -154h-14z" />
    <glyph glyph-name="dollar.oldstyle" horiz-adv-x="456" 
d="M70 5v15c36 -7 97 -17 164 -17c111 0 159 51 159 126c0 72 -38 90 -146 139l-31 14c-99 45 -152 73 -152 145c0 73 62 111 170 114v122h16v-121c51 -1 103 -8 134 -14v-15c-33 6 -87 14 -139 14c-109 0 -165 -33 -165 -100c0 -65 47 -87 144 -132l32 -15
c107 -50 153 -72 153 -151c0 -83 -52 -137 -166 -140v-113h-16v112c-60 1 -111 7 -157 17z" />
    <glyph glyph-name="dollar.superior" horiz-adv-x="345" 
d="M52 343v15c31 -4 77 -9 117 -9c66 0 121 23 121 94c0 55 -29 76 -102 108l-43 19c-58 26 -104 54 -104 113c0 73 70 92 123 94v75h17v-75c42 0 89 -4 110 -8v-15c-25 3 -71 7 -114 7c-58 0 -119 -12 -119 -78c0 -50 39 -75 94 -99l41 -18c76 -33 114 -60 114 -123
c0 -80 -65 -107 -126 -109v-73h-17v72c-37 1 -83 5 -112 10z" />
    <glyph glyph-name="parenleft.superior" unicode="&#x207d;" horiz-adv-x="187" 
d="M144 270h-18c-38 52 -82 140 -82 259v5c0 122 46 211 85 262h19c-43 -56 -88 -142 -88 -262v-5c0 -118 42 -203 84 -259z" />
    <glyph glyph-name="parenright.superior" unicode="&#x207e;" horiz-adv-x="187" 
d="M140 529c0 -119 -44 -207 -82 -259h-18c42 56 84 141 84 259v5c0 120 -45 206 -88 262h19c39 -51 85 -140 85 -262v-5z" />
    <glyph glyph-name="twodotenleader" unicode="&#x2025;" horiz-adv-x="298" 
d="M244 0h-17v132h17v-132zM76 132v-132h-17v132h17z" />
    <glyph glyph-name="onedotenleader" unicode="&#x2024;" horiz-adv-x="130" 
d="M76 0h-17v132h17v-132z" />
    <glyph glyph-name="zero.oldstyle" horiz-adv-x="613" 
d="M540 252c0 -171 -94 -264 -236 -264s-237 93 -237 264v34c0 171 95 264 237 264s236 -93 236 -264v-34zM524 252v34c0 171 -94 248 -220 248c-127 0 -220 -77 -220 -248v-34c0 -171 93 -249 220 -249c126 0 220 78 220 249z" />
    <glyph glyph-name="one.oldstyle" horiz-adv-x="447" 
d="M404 0h-350v15h167v517l-167 -51v18l167 51h16v-535h167v-15z" />
    <glyph glyph-name="two.oldstyle" horiz-adv-x="563" 
d="M78 516v15c51 11 117 19 190 19c161 0 236 -44 236 -150c0 -112 -86 -183 -285 -308l-121 -76h400v-16h-429v16l138 87c190 120 281 185 281 297c0 101 -78 134 -220 134c-63 0 -139 -8 -190 -18z" />
    <glyph glyph-name="three.oldstyle" horiz-adv-x="544" 
d="M485 -17c0 -120 -59 -199 -242 -199c-66 0 -154 6 -182 10v15c36 -4 116 -10 182 -10c175 0 226 72 226 184v35c0 67 -15 160 -160 160h-228v16h228c143 0 160 83 160 159v16c0 110 -51 165 -226 165c-66 0 -148 -6 -182 -10v15c28 5 116 11 182 11
c183 0 243 -63 243 -181v-16c0 -78 -21 -149 -121 -168c105 -20 120 -99 120 -167v-35z" />
    <glyph glyph-name="four.oldstyle" horiz-adv-x="598" 
d="M560 25h-131v-228h-16v228h-377v16l372 502h21v-502h131v-16zM413 41v483l-357 -483h357z" />
    <glyph glyph-name="five.oldstyle" horiz-adv-x="559" 
d="M499 5c0 -136 -54 -214 -244 -214c-86 0 -167 10 -196 16v15c40 -6 110 -15 196 -15c184 0 227 72 227 198v22c0 151 -94 184 -249 184h-156l31 333h358v-16h-342l-28 -301h137c165 0 266 -41 266 -200v-22z" />
    <glyph glyph-name="six.oldstyle" horiz-adv-x="610" 
d="M552 220c0 -159 -96 -232 -241 -232c-147 0 -242 86 -242 301v190c0 175 56 275 258 275c73 0 172 -11 199 -17v-14c-39 6 -126 16 -199 16c-188 0 -241 -93 -241 -255v-72c80 21 165 31 227 31c116 0 239 -38 239 -197v-26zM535 220v26c0 151 -114 181 -222 181
c-63 0 -147 -8 -227 -30v-111c0 -205 93 -282 225 -282c137 0 224 66 224 216z" />
    <glyph glyph-name="seven.oldstyle" horiz-adv-x="522" 
d="M483 528l-337 -727h-18l337 727h-418v16h436v-16z" />
    <glyph glyph-name="eight.oldstyle" horiz-adv-x="620" 
d="M562 205c0 -151 -63 -217 -242 -217h-8c-180 0 -242 68 -242 219v7c0 93 30 159 118 175c-89 17 -116 89 -116 169v8c0 127 61 187 240 187h7c179 0 241 -60 241 -187v-8c0 -82 -28 -152 -117 -169c88 -16 119 -80 119 -173v-11zM545 205v11c0 88 -28 165 -149 165h-160
c-122 0 -150 -79 -150 -167v-7c0 -148 64 -204 226 -204h8c161 0 225 54 225 202zM543 558v8c0 122 -62 172 -224 172h-7c-162 0 -224 -50 -224 -172v-8c0 -77 26 -161 148 -161h160c121 0 147 82 147 161z" />
    <glyph glyph-name="nine.oldstyle" horiz-adv-x="610" 
d="M543 58c0 -175 -56 -275 -259 -275c-73 0 -171 12 -198 17v15c39 -5 127 -16 198 -16c189 0 242 93 242 254v73c-80 -22 -165 -31 -228 -31c-116 0 -238 37 -238 197v26c0 158 96 232 241 232c146 0 242 -86 242 -301v-191zM526 141v111c0 204 -93 282 -226 282
c-136 0 -224 -66 -224 -216v-27c0 -151 114 -180 222 -180c63 0 147 8 228 30z" />
    <glyph glyph-name="comma.superior" horiz-adv-x="121" 
d="M86 427l-44 -144h-16l42 144h18z" />
    <glyph glyph-name="period.superior" horiz-adv-x="93" 
d="M57 341h-17v86h17v-86z" />
    <glyph glyph-name="a.superior" horiz-adv-x="319" 
d="M254 297h-15v23c-22 -13 -64 -29 -102 -29c-68 0 -92 34 -92 96v5c0 77 36 98 136 98h58v37c0 73 -15 90 -94 90c-14 0 -42 -1 -77 -4v14c37 4 61 5 77 5c89 0 109 -24 109 -105v-230zM239 335v140h-58c-92 0 -121 -15 -121 -83v-5c0 -56 21 -83 78 -83
c36 0 76 16 101 31z" />
    <glyph glyph-name="b.superior" horiz-adv-x="325" 
d="M65 770h15v-143c40 5 61 5 75 5c93 0 125 -49 125 -163v-14c0 -115 -32 -164 -125 -164c-15 0 -44 0 -90 4v475zM265 455v14c0 109 -30 148 -110 148c-14 0 -39 0 -75 -4v-305c37 -3 60 -3 75 -3c81 0 110 40 110 150z" />
    <glyph glyph-name="cent.superior" horiz-adv-x="333" 
d="M295 348c-42 -6 -74 -7 -98 -7v-80h-17v80c-91 5 -137 48 -137 188v62c0 132 47 179 137 184v78h17v-78c24 0 56 -1 98 -7v-16c-41 5 -76 6 -102 6c-88 0 -133 -36 -133 -167v-62c0 -137 44 -171 133 -171c26 0 61 1 102 6v-16z" />
    <glyph glyph-name="d.superior" horiz-adv-x="326" 
d="M261 297h-16v21c-20 -11 -55 -27 -94 -27c-78 0 -106 51 -106 149v44c0 98 33 147 126 147c13 0 35 0 74 -4v143h16v-473zM245 333v280c-36 4 -61 4 -74 4c-81 0 -110 -39 -110 -133v-44c0 -93 24 -135 91 -135c38 0 71 16 93 28z" />
    <glyph glyph-name="e.superior" horiz-adv-x="326" 
d="M281 457h-220v-20c0 -96 47 -132 114 -132c40 0 74 4 98 8v-13c-21 -4 -62 -9 -98 -9c-76 0 -130 40 -130 150v44c0 84 31 147 118 147s118 -61 118 -145v-30zM266 471v17c0 82 -31 129 -103 129c-77 0 -102 -53 -102 -129v-17h205z" />
    <glyph glyph-name="i.superior" unicode="&#x2071;" horiz-adv-x="145" 
d="M65 622h15v-325h-15v325zM80 692h-15v78h15v-78z" />
    <glyph glyph-name="l.superior" horiz-adv-x="145" 
d="M80 297h-15v473h15v-473z" />
    <glyph glyph-name="m.superior" horiz-adv-x="482" 
d="M80 599c35 23 65 33 90 33c36 0 57 -13 67 -34c36 23 73 34 101 34c67 0 79 -43 79 -105v-230h-16v230c0 58 -8 90 -63 90c-28 0 -62 -10 -96 -32c4 -16 6 -37 6 -58v-230h-15v230c0 59 -9 90 -63 90c-25 0 -54 -10 -90 -32v-283h-15v320h15v-23z" />
    <glyph glyph-name="n.superior" unicode="&#x207f;" horiz-adv-x="306" 
d="M261 297h-15v210c0 86 -21 110 -80 110c-38 0 -74 -15 -106 -33v-287h-15v325h15v-23c29 15 66 33 106 33c72 0 95 -36 95 -125v-210z" />
    <glyph glyph-name="o.superior" horiz-adv-x="326" 
d="M281 455c0 -104 -29 -164 -118 -164s-118 60 -118 164v13c0 105 29 164 118 164s118 -59 118 -164v-13zM266 455v13c0 101 -27 149 -103 149c-75 0 -102 -48 -102 -149v-13c0 -101 27 -151 102 -151c76 0 103 50 103 151z" />
    <glyph glyph-name="r.superior" horiz-adv-x="226" 
d="M80 297h-15v325h15v-24c37 21 72 34 106 34v-15c-34 0 -71 -12 -106 -33v-287z" />
    <glyph glyph-name="s.superior" horiz-adv-x="290" 
d="M245 374c0 -39 -25 -83 -105 -83c-35 0 -67 3 -91 9v13c24 -4 56 -8 91 -8c68 0 90 34 90 69c0 42 -17 59 -75 84l-28 12c-55 24 -82 43 -82 87c0 47 34 75 106 75c32 0 70 -5 88 -9v-13c-20 3 -56 8 -88 8c-62 0 -91 -20 -91 -61c0 -39 26 -55 76 -76l26 -11
c62 -26 83 -52 83 -96z" />
    <glyph glyph-name="t.superior" horiz-adv-x="259" 
d="M218 295c-23 -3 -40 -4 -49 -4c-48 0 -58 21 -58 72v245h-71v14h71v92h15v-92h93v-14h-93v-245c0 -48 9 -58 43 -58c11 0 28 1 49 3v-13z" />
    <glyph glyph-name="parenleft.inferior" unicode="&#x208d;" horiz-adv-x="187" 
d="M144 -225h-18c-38 52 -82 140 -82 259v5c0 122 46 211 85 262h19c-43 -56 -88 -142 -88 -262v-5c0 -118 42 -203 84 -259z" />
    <glyph glyph-name="parenright.inferior" unicode="&#x208e;" horiz-adv-x="187" 
d="M140 34c0 -119 -44 -207 -82 -259h-18c42 56 84 141 84 259v5c0 120 -45 206 -88 262h19c39 -51 85 -140 85 -262v-5z" />
    <glyph glyph-name="hyphen.superior" horiz-adv-x="264" 
d="M214 510h-162v16h162v-16z" />
    <glyph glyph-name="colonmonetary" unicode="&#x20a1;" horiz-adv-x="438" 
d="M394 531v-15c-43 7 -94 11 -128 11c-135 0 -199 -66 -199 -225v-73c0 -167 60 -226 194 -226c28 0 64 3 133 12v-14c-41 -6 -70 -10 -92 -12v-115h-17v114c-34 0 -56 1 -80 4v-118h-16v123c-95 22 -139 91 -139 232v73c0 133 47 207 139 232v128h16v-124c29 5 52 5 80 5
v119h17v-120c24 -1 53 -4 92 -11z" />
    <glyph glyph-name="cent.oldstyle" horiz-adv-x="451" 
d="M411 531v-16c-60 8 -99 12 -132 12c-131 0 -194 -66 -194 -225v-73c0 -167 60 -226 194 -226c28 0 64 3 132 12v-14c-65 -10 -98 -12 -126 -13v-113h-16v113c-141 4 -201 71 -201 241v73c0 161 64 237 201 241v119h16v-119c28 -1 61 -2 126 -12z" />
    <glyph glyph-name="figuredash" unicode="&#x2012;" horiz-adv-x="527" 
d="M481 282h-404v16h404v-16z" />
    <glyph glyph-name="hyphen.inferior" horiz-adv-x="264" 
d="M214 15h-162v16h162v-16z" />
    <glyph glyph-name="oneeighth" unicode="&#x215b;" horiz-adv-x="866" 
d="M817 114c0 -89 -56 -121 -154 -121h-6c-99 0 -155 32 -155 121v12c0 51 25 89 73 101c-48 13 -72 52 -72 101v7c0 71 52 103 154 103h5c102 0 155 -32 155 -103v-7c0 -48 -25 -89 -72 -101c46 -12 72 -50 72 -101v-12zM801 114v12c0 49 -23 93 -95 93h-92
c-72 0 -96 -44 -96 -93v-12c0 -79 50 -106 139 -106h6c88 0 138 27 138 106zM614 235h92c72 0 94 48 95 93v7c0 64 -50 88 -139 88h-5c-89 0 -138 -24 -138 -88v-7c0 -45 22 -93 95 -93zM638 743l-474 -743h-20l474 743h20zM287 317h-239v14h109v402l-109 -38v15l109 38h16
v-417h114v-14z" />
    <glyph glyph-name="threeeighths" unicode="&#x215c;" horiz-adv-x="909" 
d="M861 114c0 -89 -56 -121 -155 -121h-6c-98 0 -154 32 -154 121v12c0 51 25 89 72 101c-47 13 -72 52 -72 101v7c0 71 52 103 155 103h5c102 0 154 -32 154 -103v-7c0 -48 -24 -89 -72 -101c46 -12 73 -50 73 -101v-12zM845 114v12c0 49 -24 93 -96 93h-92
c-72 0 -95 -44 -95 -93v-12c0 -79 50 -106 138 -106h6c89 0 139 27 139 106zM749 235c73 0 95 48 95 93v7c0 64 -49 88 -138 88h-5c-90 0 -139 -24 -139 -88v-7c0 -45 22 -93 95 -93h92zM673 743l-474 -743h-20l474 743h20zM49 732v15c23 3 69 8 109 8
c106 0 153 -24 153 -101v-4c0 -49 -16 -95 -76 -108c65 -12 76 -59 76 -106c0 -82 -38 -125 -153 -125c-44 0 -93 5 -109 8v15c21 -3 66 -8 106 -8c103 0 140 30 140 112c0 51 -13 97 -100 97h-133v15h133c88 0 100 52 100 100v4c0 65 -38 86 -138 86c-33 0 -84 -5 -108 -8z
" />
    <glyph glyph-name="fiveeighths" unicode="&#x215d;" horiz-adv-x="913" 
d="M865 114c0 -89 -56 -121 -155 -121h-6c-98 0 -154 32 -154 121v12c0 51 25 89 72 101c-47 13 -72 52 -72 101v7c0 71 52 103 155 103h5c102 0 154 -32 154 -103v-7c0 -48 -24 -89 -72 -101c46 -12 73 -50 73 -101v-12zM849 114v12c0 49 -24 93 -96 93h-92
c-72 0 -95 -44 -95 -93v-12c0 -79 50 -106 138 -106h6c89 0 139 27 139 106zM661 235h92c73 0 95 48 95 93v7c0 64 -49 88 -138 88h-5c-90 0 -139 -24 -139 -88v-7c0 -45 22 -93 95 -93zM678 743l-474 -743h-20l474 743h20zM296 733h-205l-15 -163h83c98 0 157 -25 157 -121
v-5c0 -93 -43 -133 -158 -133c-48 0 -87 4 -110 9v15c27 -4 63 -9 110 -9c108 0 142 35 142 118v5c0 90 -52 106 -141 106h-101l18 193h220v-15z" />
    <glyph glyph-name="seveneighths" unicode="&#x215e;" horiz-adv-x="846" 
d="M798 114c0 -89 -56 -121 -155 -121h-6c-98 0 -154 32 -154 121v12c0 51 25 89 72 101c-47 13 -72 52 -72 101v7c0 71 52 103 155 103h5c102 0 154 -32 154 -103v-7c0 -48 -24 -89 -72 -101c46 -12 73 -50 73 -101v-12zM782 114v12c0 49 -24 93 -96 93h-92
c-72 0 -95 -44 -95 -93v-12c0 -79 50 -106 138 -106h6c89 0 139 27 139 106zM594 235h92c73 0 95 48 95 93v7c0 64 -49 88 -138 88h-5c-90 0 -139 -24 -139 -88v-7c0 -45 22 -93 95 -93zM610 743l-474 -743h-20l474 743h20zM48 733v15h263v-15l-210 -415h-18l211 415h-246z
" />
    <glyph glyph-name="onethird" unicode="&#x2153;" horiz-adv-x="837" 
d="M638 743l-474 -743h-20l474 743h20zM287 317h-239v14h109v402l-109 -38v15l109 38h16v-417h114v-14zM527 414v15c23 3 69 8 109 8c106 0 153 -24 153 -101v-4c0 -49 -16 -95 -76 -108c65 -12 76 -59 76 -106c0 -82 -38 -125 -153 -125c-44 0 -93 5 -109 8v15
c21 -3 66 -8 106 -8c103 0 140 30 140 112c0 51 -13 97 -100 97h-133v15h133c88 0 100 52 100 100v4c0 65 -38 86 -138 86c-33 0 -84 -5 -108 -8z" />
    <glyph glyph-name="twothirds" unicode="&#x2154;" horiz-adv-x="869" 
d="M671 743l-474 -743h-20l474 743h20zM55 731v15c32 6 73 10 113 10c96 0 148 -23 148 -96c0 -57 -20 -88 -119 -138c-115 -58 -133 -85 -133 -183v-5h245v-15h-261v20c0 105 21 135 140 195c97 49 112 74 112 126c0 64 -46 81 -132 81c-35 0 -79 -4 -113 -10zM559 414v15
c23 3 69 8 109 8c106 0 153 -24 153 -101v-4c0 -49 -16 -95 -76 -108c65 -12 76 -59 76 -106c0 -82 -38 -125 -153 -125c-44 0 -93 5 -109 8v15c21 -3 66 -8 106 -8c103 0 140 30 140 112c0 51 -13 97 -100 97h-133v15h133c88 0 100 52 100 100v4c0 65 -38 86 -138 86
c-33 0 -84 -5 -108 -8z" />
    <glyph glyph-name="zero.superior" unicode="&#x2070;" horiz-adv-x="400" 
d="M346 525c0 -141 -61 -193 -146 -193c-86 0 -147 53 -147 193v58c0 140 61 193 147 193c85 0 146 -53 146 -193v-58zM329 524v59c0 136 -55 177 -129 177c-75 0 -130 -41 -130 -177v-59c0 -135 55 -176 130 -176c74 0 129 41 129 176z" />
    <glyph glyph-name="four.superior" unicode="&#x2074;" horiz-adv-x="421" 
d="M292 339h-16v130h-225v15l222 285h19v-285h76v-15h-76v-130zM276 484v266l-205 -266h205z" />
    <glyph glyph-name="five.superior" unicode="&#x2075;" horiz-adv-x="375" 
d="M301 754h-205l-15 -163h83c98 0 157 -25 157 -121v-5c0 -93 -43 -133 -158 -133c-48 0 -87 4 -110 9v15c27 -4 63 -9 110 -9c108 0 142 35 142 118v5c0 90 -52 106 -141 106h-101l18 193h220v-15z" />
    <glyph glyph-name="six.superior" unicode="&#x2076;" horiz-adv-x="402" 
d="M330 767v-16c-31 4 -75 9 -118 9c-109 0 -142 -53 -143 -144v-37c52 12 98 16 133 16c75 0 146 -23 146 -110v-25c0 -84 -53 -128 -146 -128c-89 0 -149 51 -149 164v115c0 105 41 165 159 165c45 0 86 -4 118 -9zM332 460v25c0 79 -62 95 -130 95c-35 0 -80 -4 -133 -16
v-68c0 -113 57 -149 133 -149c80 0 130 34 130 113z" />
    <glyph glyph-name="seven.superior" unicode="&#x2077;" horiz-adv-x="360" 
d="M48 754v15h263v-15l-210 -415h-18l211 415h-246z" />
    <glyph glyph-name="eight.superior" unicode="&#x2078;" horiz-adv-x="422" 
d="M368 453c0 -90 -56 -121 -154 -121h-6c-99 0 -155 31 -155 121v11c0 52 25 90 73 101c-48 13 -72 52 -72 102v6c0 72 52 103 154 103h5c102 0 155 -31 155 -103v-6c0 -48 -25 -90 -72 -102c46 -11 72 -49 72 -101v-11zM352 453v11c0 49 -23 94 -95 94h-92
c-72 0 -96 -45 -96 -94v-11c0 -79 50 -106 139 -106h6c88 0 138 27 138 106zM352 667v6c0 64 -50 88 -139 88h-5c-89 0 -138 -24 -138 -88v-6c0 -46 22 -93 95 -93h92c72 0 94 48 95 93z" />
    <glyph glyph-name="nine.superior" unicode="&#x2079;" horiz-adv-x="402" 
d="M71 341v16c30 -4 77 -9 119 -9c108 0 141 53 142 144v37c-51 -12 -97 -16 -132 -16c-76 0 -147 23 -147 110v25c0 84 54 128 147 128c88 0 148 -51 148 -164v-115c0 -105 -41 -165 -158 -165c-44 0 -87 4 -119 9zM332 544v68c0 113 -56 149 -132 149
c-81 0 -131 -34 -131 -113v-25c0 -79 62 -95 131 -95c35 0 80 4 132 16z" />
    <glyph glyph-name="zero.inferior" unicode="&#x2080;" horiz-adv-x="400" 
d="M346 -19c0 -141 -61 -193 -146 -193c-86 0 -147 53 -147 193v58c0 140 61 193 147 193c85 0 146 -53 146 -193v-58zM329 -20v59c0 136 -55 177 -129 177c-75 0 -130 -41 -130 -177v-59c0 -135 55 -176 130 -176c74 0 129 41 129 176z" />
    <glyph glyph-name="one.inferior" unicode="&#x2081;" horiz-adv-x="300" 
d="M269 -205h-238v14h109v401l-109 -38v15l109 38h16v-416h113v-14z" />
    <glyph glyph-name="two.inferior" unicode="&#x2082;" horiz-adv-x="374" 
d="M60 207v15c32 6 73 10 113 10c96 0 148 -23 148 -96c0 -57 -20 -88 -119 -138c-115 -58 -133 -85 -133 -183v-5h245v-15h-261v20c0 105 21 135 140 195c97 49 112 74 112 126c0 64 -46 81 -132 81c-35 0 -79 -4 -113 -10z" />
    <glyph glyph-name="three.inferior" unicode="&#x2083;" horiz-adv-x="368" 
d="M162 -212c-44 0 -93 5 -109 8v15c21 -3 66 -8 106 -8c103 0 140 30 140 112c0 51 -13 97 -100 97h-133v15h133c88 0 100 52 100 100v4c0 65 -38 86 -138 86c-33 0 -84 -5 -108 -8v15c23 3 69 8 109 8c106 0 153 -24 153 -101v-4c0 -49 -16 -95 -76 -108
c65 -12 76 -59 76 -106c0 -82 -38 -125 -153 -125z" />
    <glyph glyph-name="four.inferior" unicode="&#x2084;" horiz-adv-x="421" 
d="M292 -205h-16v130h-225v15l222 285h19v-285h76v-15h-76v-130zM276 -60v266l-205 -266h205z" />
    <glyph glyph-name="five.inferior" unicode="&#x2085;" horiz-adv-x="375" 
d="M301 210h-205l-15 -163h83c98 0 157 -25 157 -121v-5c0 -93 -43 -133 -158 -133c-48 0 -87 4 -110 9v15c27 -4 63 -9 110 -9c108 0 142 35 142 118v5c0 90 -52 106 -141 106h-101l18 193h220v-15z" />
    <glyph glyph-name="six.inferior" unicode="&#x2086;" horiz-adv-x="402" 
d="M330 223v-16c-31 4 -75 9 -118 9c-109 0 -142 -53 -143 -144v-37c52 12 98 16 133 16c75 0 146 -23 146 -110v-25c0 -84 -53 -128 -146 -128c-89 0 -149 51 -149 164v115c0 105 41 165 159 165c45 0 86 -4 118 -9zM332 -84v25c0 79 -62 95 -130 95c-35 0 -80 -4 -133 -16
v-68c0 -113 57 -149 133 -149c80 0 130 34 130 113z" />
    <glyph glyph-name="seven.inferior" unicode="&#x2087;" horiz-adv-x="360" 
d="M48 210v15h263v-15l-210 -415h-18l211 415h-246z" />
    <glyph glyph-name="eight.inferior" unicode="&#x2088;" horiz-adv-x="422" 
d="M368 -91c0 -90 -56 -121 -154 -121h-6c-99 0 -155 31 -155 121v11c0 52 25 90 73 101c-48 13 -72 52 -72 102v6c0 72 52 103 154 103h5c102 0 155 -31 155 -103v-6c0 -48 -25 -90 -72 -102c46 -11 72 -49 72 -101v-11zM352 -91v11c0 49 -23 94 -95 94h-92
c-72 0 -96 -45 -96 -94v-11c0 -79 50 -106 139 -106h6c88 0 138 27 138 106zM352 123v6c0 64 -50 88 -139 88h-5c-89 0 -138 -24 -138 -88v-6c0 -46 22 -93 95 -93h92c72 0 94 48 95 93z" />
    <glyph glyph-name="nine.inferior" unicode="&#x2089;" horiz-adv-x="402" 
d="M71 -203v16c30 -4 77 -9 119 -9c108 0 141 53 142 144v37c-51 -12 -97 -16 -132 -16c-76 0 -147 23 -147 110v25c0 84 54 128 147 128c88 0 148 -51 148 -164v-115c0 -105 -41 -165 -158 -165c-44 0 -87 4 -119 9zM332 0v68c0 113 -56 149 -132 149
c-81 0 -131 -34 -131 -113v-25c0 -79 62 -95 131 -95c35 0 80 4 132 16z" />
    <glyph glyph-name="cent.inferior" horiz-adv-x="333" 
d="M295 -196c-42 -6 -74 -7 -98 -7v-80h-17v80c-91 5 -137 48 -137 188v62c0 132 47 179 137 184v78h17v-78c24 0 56 -1 98 -7v-16c-41 5 -76 6 -102 6c-88 0 -133 -36 -133 -167v-62c0 -137 44 -171 133 -171c26 0 61 1 102 6v-16z" />
    <glyph glyph-name="dollar.inferior" horiz-adv-x="345" 
d="M52 -201v15c31 -4 77 -9 117 -9c66 0 121 23 121 94c0 55 -29 76 -102 108l-43 19c-58 26 -104 54 -104 113c0 73 70 92 123 94v75h17v-75c42 0 89 -4 110 -8v-15c-25 3 -71 7 -114 7c-58 0 -119 -12 -119 -78c0 -50 39 -75 94 -99l41 -18c76 -33 114 -60 114 -123
c0 -80 -65 -107 -126 -109v-73h-17v72c-37 1 -83 5 -112 10z" />
    <glyph glyph-name="period.inferior" horiz-adv-x="93" 
d="M57 -154h-17v86h17v-86z" />
    <glyph glyph-name="comma.inferior" horiz-adv-x="121" 
d="M86 -68l-44 -144h-16l42 144h18z" />
    <glyph glyph-name="commaaccent" horiz-adv-x="422" 
d="M223 -68l-107 -140h-21l107 140h21z" />
    <glyph glyph-name="Abreve" unicode="&#x102;" horiz-adv-x="602" 
d="M582 0h-19l-106 302h-313l-106 -302h-18l269 744h24zM451 318l-113 312c-12 34 -24 67 -36 101h-2c-11 -34 -24 -67 -36 -101l-114 -312h301zM449 933c-8 -89 -38 -159 -148 -159c-111 0 -140 70 -148 159h15c6 -76 28 -144 133 -144c104 0 126 68 132 144h16z" />
    <glyph glyph-name="Amacron" unicode="&#x100;" horiz-adv-x="602" 
d="M582 0h-19l-106 302h-313l-106 -302h-18l269 744h24zM451 318l-113 312c-12 34 -24 67 -36 101h-2c-11 -34 -24 -67 -36 -101l-114 -312h301zM472 838h-343v16h343v-16z" />
    <glyph glyph-name="Aogonek" unicode="&#x104;" horiz-adv-x="602" 
d="M582 -208c-14 -4 -50 -9 -83 -9c-84 0 -111 35 -111 84c0 65 85 106 173 138l-104 297h-313l-106 -302h-18l269 744h24l269 -744c-99 -39 -177 -71 -177 -133c0 -45 26 -69 94 -69c33 0 68 5 83 8v-14zM451 318l-113 312c-12 34 -24 67 -36 101h-2
c-11 -34 -24 -67 -36 -101l-114 -312h301z" />
    <glyph glyph-name="Aringacute" unicode="&#x1fa;" horiz-adv-x="602" 
d="M582 0h-19l-106 302h-313l-106 -302h-18l269 744h24zM451 318l-113 312c-12 34 -24 67 -36 101h-2c-11 -34 -24 -67 -36 -101l-114 -312h301zM412 859c0 -71 -47 -106 -111 -106s-112 35 -112 106c0 70 48 105 112 105s111 -35 111 -105zM396 859c0 69 -47 90 -95 90
c-49 0 -96 -21 -96 -90c0 -70 47 -91 96 -91c48 0 95 21 95 91zM299 975h-20l141 154h21z" />
    <glyph glyph-name="AEacute" unicode="&#x1fc;" horiz-adv-x="898" 
d="M37 0h-17l268 743h555v-16h-388v-327h359v-16h-359v-369h388v-15h-404v302h-295zM439 318v409h-141c-11 -34 -23 -65 -35 -98l-113 -311h289zM681 942l-142 -154h-20l141 154h21z" />
    <glyph glyph-name="Cacute" unicode="&#x106;" horiz-adv-x="535" 
d="M505 1c-15 -2 -79 -13 -173 -13c-192 0 -277 116 -277 379v9c0 262 85 378 277 378c86 0 148 -9 173 -13v-15c-30 4 -92 12 -173 12c-181 0 -261 -108 -261 -362v-9c0 -255 80 -363 261 -363c88 0 144 9 173 13v-16zM446 943l-142 -154h-20l141 154h21z" />
    <glyph glyph-name="Ccaron" unicode="&#x10c;" horiz-adv-x="535" 
d="M505 1c-15 -2 -79 -13 -173 -13c-192 0 -277 116 -277 379v9c0 262 85 378 277 378c86 0 148 -9 173 -13v-15c-30 4 -92 12 -173 12c-181 0 -261 -108 -261 -362v-9c0 -255 80 -363 261 -363c88 0 144 9 173 13v-16zM168 943h21l130 -139l130 139h21l-144 -154h-14z" />
    <glyph glyph-name="Ccircumflex" unicode="&#x108;" horiz-adv-x="535" 
d="M505 1c-15 -2 -79 -13 -173 -13c-192 0 -277 116 -277 379v9c0 262 85 378 277 378c86 0 148 -9 173 -13v-15c-30 4 -92 12 -173 12c-181 0 -261 -108 -261 -362v-9c0 -255 80 -363 261 -363c88 0 144 9 173 13v-16zM458 789h-21l-130 139l-130 -139h-21l144 154h14z" />
    <glyph glyph-name="Cdotaccent" unicode="&#x10a;" horiz-adv-x="535" 
d="M505 1c-15 -2 -79 -13 -173 -13c-192 0 -277 116 -277 379v9c0 262 85 378 277 378c86 0 148 -9 173 -13v-15c-30 4 -92 12 -173 12c-181 0 -261 -108 -261 -362v-9c0 -255 80 -363 261 -363c88 0 144 9 173 13v-16zM318 838h-16v122h16v-122z" />
    <glyph glyph-name="Dcaron" unicode="&#x10e;" horiz-adv-x="629" 
d="M574 360c0 -268 -99 -372 -304 -372c-82 0 -136 7 -185 12v744c69 5 93 9 185 9c205 0 304 -103 304 -371v-22zM558 360v22c0 265 -102 355 -288 355c-78 0 -124 -4 -169 -8v-715c42 -4 100 -10 169 -10c186 0 288 91 288 356zM149 943h21l130 -139l130 139h21l-144 -154
h-14z" />
    <glyph glyph-name="Dcroat" unicode="&#x110;" horiz-adv-x="629" 
d="M574 360c0 -268 -99 -372 -304 -372c-82 0 -136 7 -185 12v380h-65v17h65v347c69 5 93 9 185 9c205 0 304 -103 304 -371v-22zM558 360v22c0 263 -96 355 -288 355c-78 0 -124 -4 -169 -8v-332h198v-17h-198v-366c42 -4 100 -10 169 -10c191 0 288 91 288 356z" />
    <glyph glyph-name="Ebreve" unicode="&#x114;" horiz-adv-x="544" 
d="M489 0h-404v743h404v-16h-388v-327h359v-16h-359v-369h388v-15zM438 948c-8 -89 -38 -159 -148 -159c-111 0 -140 70 -148 159h15c6 -76 28 -144 133 -144c104 0 126 68 132 144h16z" />
    <glyph glyph-name="Ecaron" unicode="&#x11a;" horiz-adv-x="544" 
d="M489 0h-404v743h404v-16h-388v-327h359v-16h-359v-369h388v-15zM141 943h21l130 -139l130 139h21l-144 -154h-14z" />
    <glyph glyph-name="Edotaccent" unicode="&#x116;" horiz-adv-x="544" 
d="M489 0h-404v743h404v-16h-388v-327h359v-16h-359v-369h388v-15zM294 809h-16v122h16v-122z" />
    <glyph glyph-name="Emacron" unicode="&#x112;" horiz-adv-x="544" 
d="M489 0h-404v743h404v-16h-388v-327h359v-16h-359v-369h388v-15zM453 851h-343v16h343v-16z" />
    <glyph glyph-name="Eng" unicode="&#x14a;" horiz-adv-x="664" 
d="M579 -49c0 -85 -9 -151 -112 -151c-18 0 -41 2 -59 4v14c23 -1 40 -2 59 -2c89 0 96 54 96 135v46l-422 665c-13 20 -25 40 -38 60h-1v-78v-644h-17v743h22l424 -669c10 -16 21 -32 31 -48h1v54v663h16v-792z" />
    <glyph glyph-name="Eogonek" unicode="&#x118;" horiz-adv-x="544" 
d="M489 -208c-14 -4 -50 -9 -83 -9c-84 0 -111 35 -111 84c0 65 84 104 158 133h-368v743h404v-16h-388v-327h359v-16h-359v-369h388v-15c-99 -39 -177 -71 -177 -133c0 -45 26 -69 94 -69c33 0 68 5 83 8v-14z" />
    <glyph glyph-name="Gbreve" unicode="&#x11e;" horiz-adv-x="589" 
d="M524 0c-71 -9 -133 -12 -181 -12c-178 0 -288 108 -288 377v12c0 277 105 377 288 377c73 0 139 -7 181 -13v-16c-41 5 -117 13 -181 13c-174 0 -272 -94 -272 -360v-13c0 -262 105 -361 272 -361c44 0 108 2 165 8v366h16v-378zM459 948c-8 -89 -38 -159 -148 -159
c-111 0 -140 70 -148 159h15c6 -76 28 -144 133 -144c104 0 126 68 132 144h16z" />
    <glyph glyph-name="Gcircumflex" unicode="&#x11c;" horiz-adv-x="589" 
d="M524 0c-71 -9 -133 -12 -181 -12c-178 0 -288 108 -288 377v12c0 277 105 377 288 377c73 0 139 -7 181 -13v-16c-41 5 -117 13 -181 13c-174 0 -272 -94 -272 -360v-13c0 -262 105 -361 272 -361c44 0 108 2 165 8v366h16v-378zM456 789h-21l-130 139l-130 -139h-21
l144 154h14z" />
    <glyph glyph-name="Gcommaaccent" unicode="&#x122;" horiz-adv-x="589" 
d="M524 0c-71 -9 -133 -12 -181 -12c-178 0 -288 108 -288 377v12c0 277 105 377 288 377c73 0 139 -7 181 -13v-16c-41 5 -117 13 -181 13c-174 0 -272 -94 -272 -360v-13c0 -262 105 -361 272 -361c44 0 108 2 165 8v366h16v-378zM358 -68l-107 -140h-21l107 140h21z" />
    <glyph glyph-name="Gdotaccent" unicode="&#x120;" horiz-adv-x="589" 
d="M524 0c-71 -9 -133 -12 -181 -12c-178 0 -288 108 -288 377v12c0 277 105 377 288 377c73 0 139 -7 181 -13v-16c-41 5 -117 13 -181 13c-174 0 -272 -94 -272 -360v-13c0 -262 105 -361 272 -361c44 0 108 2 165 8v366h16v-378zM332 809h-16v122h16v-122z" />
    <glyph glyph-name="Hbar" unicode="&#x126;" horiz-adv-x="671" 
d="M22 561v17h63v165h16v-165h469v165h16v-165h63v-17h-63v-561h-16v393h-469v-393h-16v561h-63zM101 409h469v152h-469v-152z" />
    <glyph glyph-name="Hcircumflex" unicode="&#x124;" horiz-adv-x="671" 
d="M586 0h-16v393h-469v-393h-16v743h16v-334h469v334h16v-743zM486 789h-21l-130 139l-130 -139h-21l144 154h14z" />
    <glyph glyph-name="Ibreve" unicode="&#x12c;" 
d="M107 0h-17v743h17v-743zM247 947c-8 -89 -38 -159 -148 -159c-111 0 -140 70 -148 159h15c6 -76 28 -144 133 -144c104 0 126 68 132 144h16z" />
    <glyph glyph-name="IJ" unicode="&#x132;" horiz-adv-x="412" 
d="M107 0h-17v743h17v-743zM322 -49c0 -85 -9 -151 -112 -151c-18 0 -41 2 -59 4v14c23 -1 40 -2 59 -2c89 0 95 54 95 135v792h17v-792z" />
    <glyph glyph-name="Imacron" unicode="&#x12a;" 
d="M107 0h-17v743h17v-743zM270 851h-343v16h343v-16z" />
    <glyph glyph-name="Iogonek" unicode="&#x12e;" 
d="M189 -208c-14 -4 -45 -9 -78 -9c-84 0 -110 39 -110 94c0 53 41 98 89 131v735h17v-743c-53 -34 -89 -77 -89 -123c0 -54 25 -79 93 -79c33 0 63 5 78 8v-14z" />
    <glyph glyph-name="Itilde" unicode="&#x128;" 
d="M107 0h-17v743h17v-743zM272 910c0 -77 -15 -123 -74 -123c-35 0 -54 15 -84 50l-42 49c-29 33 -43 45 -72 45c-54 0 -58 -50 -58 -108v-34h-16v34c0 77 15 123 74 123c35 0 52 -15 82 -49l43 -49c30 -34 43 -46 73 -46c53 0 58 50 58 108v33h16v-33z" />
    <glyph glyph-name="Jcircumflex" unicode="&#x134;" 
d="M107 -49c0 -85 -9 -151 -112 -151c-18 0 -41 2 -59 4v14c23 -1 40 -2 59 -2c89 0 95 54 95 135v792h17v-792zM250 789h-21l-130 139l-130 -139h-21l144 154h14z" />
    <glyph glyph-name="Kcommaaccent" unicode="&#x136;" horiz-adv-x="535" 
d="M520 0h-25l-389 376v-376h-16v743h16v-361l386 361h25l-389 -364zM291 -68l-107 -140h-21l107 140h21z" />
    <glyph glyph-name="Lacute" unicode="&#x139;" horiz-adv-x="508" 
d="M483 0h-398v743h16v-728h382v-15zM420 943l-142 -154h-20l141 154h21z" />
    <glyph glyph-name="Lcaron" unicode="&#x13d;" horiz-adv-x="508" 
d="M483 0h-398v743h16v-728h382v-15zM370 750l-64 -229h-17l61 229h20z" />
    <glyph glyph-name="Lcommaaccent" unicode="&#x13b;" horiz-adv-x="508" 
d="M483 0h-398v743h16v-728h382v-15zM296 -68l-107 -140h-21l107 140h21z" />
    <glyph glyph-name="Ldot" unicode="&#x13f;" horiz-adv-x="508" 
d="M483 0h-398v743h16v-728h382v-15zM296 344h-17v136h17v-136z" />
    <glyph glyph-name="Nacute" unicode="&#x143;" horiz-adv-x="664" 
d="M579 -3h-22l-417 666c-13 20 -24 39 -37 59h-1v-73v-649h-17v743h22l423 -675c11 -17 21 -34 32 -51h1v62v664h16v-746zM473 943l-142 -154h-20l141 154h21z" />
    <glyph glyph-name="Ncaron" unicode="&#x147;" horiz-adv-x="664" 
d="M579 -3h-22l-417 666c-13 20 -24 39 -37 59h-1v-73v-649h-17v743h22l423 -675c11 -17 21 -34 32 -51h1v62v664h16v-746zM181 943h21l130 -139l130 139h21l-144 -154h-14z" />
    <glyph glyph-name="Ncommaaccent" unicode="&#x145;" horiz-adv-x="664" 
d="M579 -3h-22l-417 666c-13 20 -24 39 -37 59h-1v-73v-649h-17v743h22l423 -675c11 -17 21 -34 32 -51h1v62v664h16v-746zM359 -68l-107 -140h-21l107 140h21z" />
    <glyph glyph-name="Obreve" unicode="&#x14e;" horiz-adv-x="646" 
d="M591 361c0 -281 -105 -373 -268 -373s-268 92 -268 373v21c0 282 106 372 268 372s268 -90 268 -372v-21zM575 361v21c0 281 -106 356 -252 356c-145 0 -252 -75 -252 -356v-21c0 -281 108 -357 252 -357c145 0 252 76 252 357zM471 948c-8 -89 -38 -159 -148 -159
c-111 0 -140 70 -148 159h15c6 -76 28 -144 133 -144c104 0 126 68 132 144h16z" />
    <glyph glyph-name="Ohungarumlaut" unicode="&#x150;" horiz-adv-x="646" 
d="M591 361c0 -281 -105 -373 -268 -373s-268 92 -268 373v21c0 282 106 372 268 372s268 -90 268 -372v-21zM575 361v21c0 281 -106 356 -252 356c-145 0 -252 -75 -252 -356v-21c0 -281 108 -357 252 -357c145 0 252 76 252 357zM550 943l-142 -154h-20l141 154h21z
M349 943h21l-142 -154h-20z" />
    <glyph glyph-name="Omacron" unicode="&#x14c;" horiz-adv-x="646" 
d="M591 361c0 -281 -105 -373 -268 -373s-268 92 -268 373v21c0 282 106 372 268 372s268 -90 268 -372v-21zM575 361v21c0 281 -106 356 -252 356c-145 0 -252 -75 -252 -356v-21c0 -281 108 -357 252 -357c145 0 252 76 252 357zM494 852h-343v16h343v-16z" />
    <glyph glyph-name="Oslashacute" unicode="&#x1fe;" horiz-adv-x="646" 
d="M459 943l-142 -154h-20l141 154h21zM591 361c0 -281 -105 -373 -268 -373c-81 0 -148 23 -195 80l-47 -68h-19l56 81c-41 59 -63 149 -63 280v21c0 282 106 372 268 372c84 0 153 -24 200 -88l54 78h19l-63 -91c37 -59 58 -146 58 -271v-21zM71 361
c0 -125 21 -210 58 -265l384 556c-45 64 -112 86 -190 86c-145 0 -252 -75 -252 -356v-21zM575 361v21c0 119 -20 201 -53 256l-384 -555c46 -59 110 -79 185 -79c145 0 252 76 252 357z" />
    <glyph glyph-name="Racute" unicode="&#x154;" horiz-adv-x="591" 
d="M551 0h-19l-206 330c-26 -3 -53 -3 -69 -3c-53 0 -123 1 -155 3v-330h-17v744c60 6 102 10 172 10c180 0 258 -66 258 -203v-12c0 -122 -51 -186 -171 -207zM499 539v12c0 131 -78 187 -242 187c-44 0 -108 -4 -155 -9v-383c42 -2 103 -3 155 -3c170 0 242 64 242 196z
M415 943l-142 -154h-20l141 154h21z" />
    <glyph glyph-name="Rcaron" unicode="&#x158;" horiz-adv-x="591" 
d="M551 0h-19l-206 330c-26 -3 -53 -3 -69 -3c-53 0 -123 1 -155 3v-330h-17v744c60 6 102 10 172 10c180 0 258 -66 258 -203v-12c0 -122 -51 -186 -171 -207zM499 539v12c0 131 -78 187 -242 187c-44 0 -108 -4 -155 -9v-383c42 -2 103 -3 155 -3c170 0 242 64 242 196z
M135 943h21l130 -139l130 139h21l-144 -154h-14z" />
    <glyph glyph-name="Rcommaaccent" unicode="&#x156;" horiz-adv-x="591" 
d="M551 0h-19l-206 330c-26 -3 -53 -3 -69 -3c-53 0 -123 1 -155 3v-330h-17v744c60 6 102 10 172 10c180 0 258 -66 258 -203v-12c0 -122 -51 -186 -171 -207zM499 539v12c0 131 -78 187 -242 187c-44 0 -108 -4 -155 -9v-383c42 -2 103 -3 155 -3c170 0 242 64 242 196z
M314 -68l-107 -140h-21l107 140h21z" />
    <glyph glyph-name="Sacute" unicode="&#x15a;" horiz-adv-x="546" 
d="M491 173c0 -128 -79 -185 -228 -185c-81 0 -149 6 -193 13v15c30 -4 112 -12 193 -12c126 0 211 41 211 168c0 104 -57 134 -192 205l-49 26c-102 53 -178 99 -178 197c0 112 87 154 222 154c72 0 141 -6 192 -13v-15c-37 5 -121 13 -192 13c-122 0 -206 -35 -206 -139
c0 -91 70 -128 171 -183l47 -25c136 -72 202 -108 202 -219zM397 943l-142 -154h-20l141 154h21z" />
    <glyph glyph-name="Scedilla" unicode="&#x15e;" horiz-adv-x="546" 
d="M491 173c0 -128 -79 -185 -228 -185c-81 0 -149 6 -193 13v15c30 -4 112 -12 193 -12c126 0 211 41 211 168c0 104 -57 134 -192 205l-49 26c-102 53 -178 99 -178 197c0 112 87 154 222 154c72 0 141 -6 192 -13v-15c-37 5 -121 13 -192 13c-122 0 -206 -35 -206 -139
c0 -91 70 -128 171 -183l47 -25c136 -72 202 -108 202 -219zM312 -68l-131 -140h-21l131 140h21z" />
    <glyph glyph-name="Scircumflex" unicode="&#x15c;" horiz-adv-x="546" 
d="M491 173c0 -128 -79 -185 -228 -185c-81 0 -149 6 -193 13v15c30 -4 112 -12 193 -12c126 0 211 41 211 168c0 104 -57 134 -192 205l-49 26c-102 53 -178 99 -178 197c0 112 87 154 222 154c72 0 141 -6 192 -13v-15c-37 5 -121 13 -192 13c-122 0 -206 -35 -206 -139
c0 -91 70 -128 171 -183l47 -25c136 -72 202 -108 202 -219zM414 789h-21l-130 139l-130 -139h-21l144 154h14z" />
    <glyph glyph-name="Scommaaccent" unicode="&#x218;" horiz-adv-x="546" 
d="M491 173c0 -128 -79 -185 -228 -185c-81 0 -149 6 -193 13v15c30 -4 112 -12 193 -12c126 0 211 41 211 168c0 104 -57 134 -192 205l-49 26c-102 53 -178 99 -178 197c0 112 87 154 222 154c72 0 141 -6 192 -13v-15c-37 5 -121 13 -192 13c-122 0 -206 -35 -206 -139
c0 -91 70 -128 171 -183l47 -25c136 -72 202 -108 202 -219zM292 -68l-107 -140h-21l107 140h21z" />
    <glyph glyph-name="Tbar" unicode="&#x166;" horiz-adv-x="604" 
d="M574 727h-264v-202h264v-16h-264v-509h-17v509h-263v16h263v202h-263v16h544v-16z" />
    <glyph glyph-name="Tcaron" unicode="&#x164;" horiz-adv-x="604" 
d="M574 727h-264v-727h-17v727h-263v16h544v-16zM150 943h21l130 -139l130 139h21l-144 -154h-14z" />
    <glyph glyph-name="Tcedilla" unicode="&#x162;" horiz-adv-x="604" 
d="M574 727h-264v-727h-17v727h-263v16h544v-16zM329 -68l-107 -140h-21l107 140h21z" />
    <glyph glyph-name="Tcommaaccent" unicode="&#x21a;" horiz-adv-x="604" 
d="M574 727h-264v-727h-17v727h-263v16h544v-16zM329 -68l-107 -140h-21l107 140h21z" />
    <glyph glyph-name="Ubreve" unicode="&#x16c;" horiz-adv-x="650" 
d="M570 339c0 -229 -59 -348 -245 -348c-187 0 -245 119 -245 348v404h16v-404c0 -226 55 -332 229 -332c173 0 229 106 229 332v404h16v-404zM473 932c-8 -89 -38 -159 -148 -159c-111 0 -140 70 -148 159h15c6 -76 28 -144 133 -144c104 0 126 68 132 144h16z" />
    <glyph glyph-name="Uhungarumlaut" unicode="&#x170;" horiz-adv-x="650" 
d="M570 339c0 -229 -59 -348 -245 -348c-187 0 -245 119 -245 348v404h16v-404c0 -226 55 -332 229 -332c173 0 229 106 229 332v404h16v-404zM546 942l-142 -154h-20l141 154h21zM345 942h21l-142 -154h-20z" />
    <glyph glyph-name="Umacron" unicode="&#x16a;" horiz-adv-x="650" 
d="M570 339c0 -229 -59 -348 -245 -348c-187 0 -245 119 -245 348v404h16v-404c0 -226 55 -332 229 -332c173 0 229 106 229 332v404h16v-404zM496 851h-343v16h343v-16z" />
    <glyph glyph-name="Uogonek" unicode="&#x172;" horiz-adv-x="650" 
d="M408 -208c-14 -4 -50 -9 -83 -9c-84 0 -111 35 -111 81c0 61 66 100 132 128c-7 -1 -14 -1 -21 -1c-187 0 -245 119 -245 348v404h16v-404c0 -226 55 -332 229 -332c173 0 229 106 229 332v404h16v-404c0 -198 -44 -314 -176 -341c-92 -37 -163 -72 -163 -134
c0 -42 26 -66 94 -66c33 0 68 5 83 8v-14z" />
    <glyph glyph-name="Uring" unicode="&#x16e;" horiz-adv-x="650" 
d="M570 339c0 -229 -59 -348 -245 -348c-187 0 -245 119 -245 348v404h16v-404c0 -226 55 -332 229 -332c173 0 229 106 229 332v404h16v-404zM436 880c0 -71 -47 -106 -111 -106s-112 35 -112 106c0 70 48 105 112 105s111 -35 111 -105zM420 880c0 69 -47 90 -95 90
c-49 0 -96 -21 -96 -90c0 -70 47 -91 96 -91c48 0 95 21 95 91z" />
    <glyph glyph-name="Utilde" unicode="&#x168;" horiz-adv-x="650" 
d="M570 339c0 -229 -59 -348 -245 -348c-187 0 -245 119 -245 348v404h16v-404c0 -226 55 -332 229 -332c173 0 229 106 229 332v404h16v-404zM503 909c0 -77 -15 -123 -74 -123c-35 0 -54 15 -84 50l-42 49c-29 33 -43 45 -72 45c-54 0 -58 -50 -58 -108v-34h-16v34
c0 77 15 123 74 123c35 0 52 -15 82 -49l43 -49c30 -34 43 -46 73 -46c53 0 58 50 58 108v33h16v-33z" />
    <glyph glyph-name="Wacute" unicode="&#x1e82;" horiz-adv-x="852" 
d="M807 743l-171 -743h-26l-166 556c-6 19 -11 37 -17 56h-2c-6 -19 -11 -37 -17 -56l-166 -556h-26l-171 743h17l154 -671c4 -18 9 -40 13 -58h1c5 18 12 40 17 58l164 555h30l164 -556c6 -19 11 -38 17 -57h1c4 19 9 38 13 57l153 672h18zM556 943l-142 -154h-20l141 154
h21z" />
    <glyph glyph-name="Wcircumflex" unicode="&#x174;" horiz-adv-x="852" 
d="M807 743l-171 -743h-26l-166 556c-6 19 -11 37 -17 56h-2c-6 -19 -11 -37 -17 -56l-166 -556h-26l-171 743h17l154 -671c4 -18 9 -40 13 -58h1c5 18 12 40 17 58l164 555h30l164 -556c6 -19 11 -38 17 -57h1c4 19 9 38 13 57l153 672h18zM577 788h-21l-130 139l-130 -139
h-21l144 154h14z" />
    <glyph glyph-name="Wdieresis" unicode="&#x1e84;" horiz-adv-x="852" 
d="M807 743l-171 -743h-26l-166 556c-6 19 -11 37 -17 56h-2c-6 -19 -11 -37 -17 -56l-166 -556h-26l-171 743h17l154 -671c4 -18 9 -40 13 -58h1c5 18 12 40 17 58l164 555h30l164 -556c6 -19 11 -38 17 -57h1c4 19 9 38 13 57l153 672h18zM550 809h-17v121h17v-121z
M319 930v-121h-17v121h17z" />
    <glyph glyph-name="Wgrave" unicode="&#x1e80;" horiz-adv-x="852" 
d="M807 743l-171 -743h-26l-166 556c-6 19 -11 37 -17 56h-2c-6 -19 -11 -37 -17 -56l-166 -556h-26l-171 743h17l154 -671c4 -18 9 -40 13 -58h1c5 18 12 40 17 58l164 555h30l164 -556c6 -19 11 -38 17 -57h1c4 19 9 38 13 57l153 672h18zM477 789h-21l-142 154h21z" />
    <glyph glyph-name="Ycircumflex" unicode="&#x176;" horiz-adv-x="548" 
d="M508 743l-225 -432v-311h-17v311l-226 432h19l178 -341c12 -24 25 -47 37 -71h1c12 23 24 47 36 70l177 342h20zM426 789h-21l-130 139l-130 -139h-21l144 154h14z" />
    <glyph glyph-name="Ygrave" unicode="&#x1ef2;" horiz-adv-x="548" 
d="M508 743l-225 -432v-311h-17v311l-226 432h19l178 -341c12 -24 25 -47 37 -71h1c12 23 24 47 36 70l177 342h20zM323 789h-21l-142 154h21z" />
    <glyph glyph-name="Zacute" unicode="&#x179;" horiz-adv-x="563" 
d="M533 0h-503v15l467 712h-447v16h466v-16l-466 -712h483v-15zM427 943l-142 -154h-20l141 154h21z" />
    <glyph glyph-name="Zdotaccent" unicode="&#x17b;" horiz-adv-x="563" 
d="M533 0h-503v15l467 712h-447v16h466v-16l-466 -712h483v-15zM289 809h-16v122h16v-122z" />
    <glyph glyph-name="Idotaccent" unicode="&#x130;" 
d="M107 0h-17v743h17v-743zM107 809h-16v122h16v-122z" />
    <glyph glyph-name="abreve" unicode="&#x103;" horiz-adv-x="503" 
d="M423 0h-16v44c-47 -25 -115 -56 -192 -56c-112 0 -160 53 -160 158v4c0 125 69 157 238 157h114v58c0 128 -32 162 -175 162c-37 0 -75 -2 -137 -8v16c62 6 99 8 137 8c154 0 191 -42 191 -178v-365zM407 61v231h-114c-161 0 -222 -26 -222 -142v-4
c0 -101 50 -143 146 -143c74 0 145 32 190 58zM399 773c-8 -89 -38 -159 -148 -159c-111 0 -140 70 -148 159h15c6 -76 28 -144 133 -144c104 0 126 68 132 144h16z" />
    <glyph glyph-name="amacron" unicode="&#x101;" horiz-adv-x="503" 
d="M423 0h-16v44c-47 -25 -115 -56 -192 -56c-112 0 -160 53 -160 158v4c0 125 69 157 238 157h114v58c0 128 -32 162 -175 162c-37 0 -75 -2 -137 -8v16c62 6 99 8 137 8c154 0 191 -42 191 -178v-365zM407 61v231h-114c-161 0 -222 -26 -222 -142v-4
c0 -101 50 -143 146 -143c74 0 145 32 190 58zM423 682h-343v16h343v-16z" />
    <glyph glyph-name="aogonek" unicode="&#x105;" horiz-adv-x="503" 
d="M423 -208c-14 -4 -30 -9 -63 -9c-84 0 -111 35 -111 84c0 66 70 96 158 136v51c-47 -25 -115 -66 -192 -66c-112 0 -160 53 -160 158v4c0 125 69 157 238 157h114v58c0 128 -32 162 -175 162c-37 0 -75 -2 -137 -8v16c62 6 99 8 137 8c154 0 191 -42 191 -178v-369
c-96 -45 -157 -70 -157 -129c0 -45 26 -69 94 -69c33 0 48 5 63 8v-14zM407 71v221h-114c-161 0 -222 -26 -222 -142v-4c0 -101 50 -143 146 -143c74 0 145 42 190 68z" />
    <glyph glyph-name="aringacute" unicode="&#x1fb;" horiz-adv-x="503" 
d="M423 0h-16v44c-47 -25 -115 -56 -192 -56c-112 0 -160 53 -160 158v4c0 125 69 157 238 157h114v58c0 128 -32 162 -175 162c-37 0 -75 -2 -137 -8v16c62 6 99 8 137 8c154 0 191 -42 191 -178v-365zM407 61v231h-114c-161 0 -222 -26 -222 -142v-4
c0 -101 50 -143 146 -143c74 0 145 32 190 58zM363 674c0 -71 -47 -106 -111 -106s-112 35 -112 106c0 70 48 105 112 105s111 -35 111 -105zM347 674c0 69 -47 90 -95 90c-49 0 -96 -21 -96 -90c0 -70 47 -91 96 -91c48 0 95 21 95 91zM371 950l-142 -154h-20l141 154h21z
" />
    <glyph glyph-name="aeacute" unicode="&#x1fd;" horiz-adv-x="869" 
d="M813 4c-41 -7 -112 -16 -175 -16c-125 0 -192 14 -222 80c-54 -47 -130 -80 -212 -80c-93 0 -151 52 -151 147v24c0 116 70 148 239 148h114v58c0 126 -32 162 -175 162c-29 0 -88 -3 -143 -8v15c59 7 116 9 143 9c144 0 180 -43 190 -127c22 75 87 127 197 127
c156 0 209 -104 209 -238v-42h-404v-144c0 -101 90 -116 215 -116c63 0 133 9 175 16v-15zM811 279v27c0 133 -56 221 -193 221c-144 0 -195 -94 -195 -197v-51h388zM406 80v212h-114c-162 0 -222 -25 -222 -133v-24c0 -89 51 -132 136 -132c78 0 151 36 200 77zM582 770
l-142 -154h-20l141 154h21z" />
    <glyph glyph-name="cacute" unicode="&#x107;" horiz-adv-x="443" 
d="M398 1c-69 -11 -103 -13 -132 -13c-146 0 -211 52 -211 271v13c0 210 69 271 211 271c36 0 73 -3 132 -12v-16c-62 9 -99 12 -132 12c-131 0 -194 -51 -194 -255v-13c0 -213 60 -256 194 -256c28 0 64 3 132 12v-14zM389 770l-142 -154h-20l141 154h21z" />
    <glyph glyph-name="ccaron" unicode="&#x10d;" horiz-adv-x="443" 
d="M398 1c-69 -11 -103 -13 -132 -13c-146 0 -211 52 -211 271v13c0 210 69 271 211 271c36 0 73 -3 132 -12v-16c-62 9 -99 12 -132 12c-131 0 -194 -51 -194 -255v-13c0 -213 60 -256 194 -256c28 0 64 3 132 12v-14zM102 770h21l130 -139l130 139h21l-144 -154h-14z" />
    <glyph glyph-name="ccircumflex" unicode="&#x109;" horiz-adv-x="443" 
d="M398 1c-69 -11 -103 -13 -132 -13c-146 0 -211 52 -211 271v13c0 210 69 271 211 271c36 0 73 -3 132 -12v-16c-62 9 -99 12 -132 12c-131 0 -194 -51 -194 -255v-13c0 -213 60 -256 194 -256c28 0 64 3 132 12v-14zM396 616h-21l-130 139l-130 -139h-21l144 154h14z" />
    <glyph glyph-name="cdotaccent" unicode="&#x10b;" horiz-adv-x="443" 
d="M398 1c-69 -11 -103 -13 -132 -13c-146 0 -211 52 -211 271v13c0 210 69 271 211 271c36 0 73 -3 132 -12v-16c-62 9 -99 12 -132 12c-131 0 -194 -51 -194 -255v-13c0 -213 60 -256 194 -256c28 0 64 3 132 12v-14zM259 645h-16v122h16v-122z" />
    <glyph glyph-name="dcaron" unicode="&#x10f;" horiz-adv-x="642" 
d="M436 0h-17v38c-38 -20 -100 -50 -174 -50c-136 0 -190 75 -190 272v12c0 196 65 271 224 271c25 0 66 0 140 -8v235h17v-770zM419 55v465c-66 6 -115 7 -140 7c-146 0 -207 -64 -207 -255v-12c0 -193 51 -256 173 -256c71 0 134 30 174 51zM622 770l-64 -229h-17l61 229
h20z" />
    <glyph glyph-name="dcroat" unicode="&#x111;" horiz-adv-x="537" 
d="M420 770h17v-132h57v-15h-57v-623h-17v38c-38 -20 -100 -50 -174 -50c-136 0 -190 75 -190 272v12c0 196 65 271 224 271c25 0 66 0 140 -8v88h-141v15h141v132zM420 55v465c-66 6 -115 7 -140 7c-146 0 -207 -64 -207 -255v-12c0 -193 51 -256 173 -256
c71 0 134 30 174 51z" />
    <glyph glyph-name="ebreve" unicode="&#x115;" horiz-adv-x="519" 
d="M469 263h-398v-15c0 -182 72 -244 214 -244c56 0 128 8 173 14v-14c-41 -7 -111 -16 -173 -16c-163 0 -230 76 -230 262v32c0 163 53 261 208 261c149 0 206 -93 206 -262v-18zM453 279v7c0 159 -55 241 -190 241c-146 0 -192 -93 -192 -241v-7h382zM410 773
c-8 -89 -38 -159 -148 -159c-111 0 -140 70 -148 159h15c6 -76 28 -144 133 -144c104 0 126 68 132 144h16z" />
    <glyph glyph-name="ecaron" unicode="&#x11b;" horiz-adv-x="519" 
d="M469 263h-398v-15c0 -182 72 -244 214 -244c56 0 128 8 173 14v-14c-41 -7 -111 -16 -173 -16c-163 0 -230 76 -230 262v32c0 163 53 261 208 261c149 0 206 -93 206 -262v-18zM453 279v7c0 159 -55 241 -190 241c-146 0 -192 -93 -192 -241v-7h382zM108 770h21l130 -139
l130 139h21l-144 -154h-14z" />
    <glyph glyph-name="edotaccent" unicode="&#x117;" horiz-adv-x="519" 
d="M469 263h-398v-15c0 -182 72 -244 214 -244c56 0 128 8 173 14v-14c-41 -7 -111 -16 -173 -16c-163 0 -230 76 -230 262v32c0 163 53 261 208 261c149 0 206 -93 206 -262v-18zM453 279v7c0 159 -55 241 -190 241c-146 0 -192 -93 -192 -241v-7h382zM267 645h-16v122h16
v-122z" />
    <glyph glyph-name="emacron" unicode="&#x113;" horiz-adv-x="519" 
d="M469 263h-398v-15c0 -182 72 -244 214 -244c56 0 128 8 173 14v-14c-41 -7 -111 -16 -173 -16c-163 0 -230 76 -230 262v32c0 163 53 261 208 261c149 0 206 -93 206 -262v-18zM453 279v7c0 159 -55 241 -190 241c-146 0 -192 -93 -192 -241v-7h382zM431 682h-343v16h343
v-16z" />
    <glyph glyph-name="eng" unicode="&#x14b;" horiz-adv-x="549" 
d="M85 529h17v-45c54 29 122 59 197 59c127 0 170 -64 170 -212v-419c0 -79 -15 -124 -92 -124c-10 0 -30 0 -59 4v14c32 -3 49 -3 59 -3c62 0 75 32 75 109v419c0 148 -44 196 -153 196c-68 0 -138 -28 -197 -60v-467h-17v529z" />
    <glyph glyph-name="eogonek" unicode="&#x119;" horiz-adv-x="519" 
d="M469 -208c-14 -4 -50 -9 -83 -9c-84 0 -111 35 -111 84c0 57 64 99 132 130c-37 -5 -82 -9 -122 -9c-157 0 -230 72 -230 262v32c0 163 53 261 208 261c149 0 206 -93 206 -262v-18h-398v-15c0 -182 72 -244 214 -244c56 0 128 8 173 14v-14c-92 -37 -166 -78 -166 -137
c0 -45 26 -69 94 -69c33 0 68 5 83 8v-14zM453 279v7c0 159 -55 241 -190 241c-146 0 -192 -93 -192 -241v-7h382z" />
    <glyph glyph-name="gbreve" unicode="&#x11f;" horiz-adv-x="523" 
d="M438 1c0 -161 -53 -213 -203 -213c-63 0 -109 5 -164 11v15c57 -6 108 -11 164 -11c138 0 187 42 187 198v25c-35 -14 -96 -38 -167 -38c-142 0 -198 74 -198 242v71c0 175 70 241 228 241c27 0 81 -3 153 -13v-528zM422 42v473c-56 8 -112 11 -137 11
c-144 0 -211 -55 -211 -225v-71c0 -164 53 -227 182 -227c68 0 125 23 166 39zM409 773c-8 -89 -38 -159 -148 -159c-111 0 -140 70 -148 159h15c6 -76 28 -144 133 -144c104 0 126 68 132 144h16z" />
    <glyph glyph-name="gcircumflex" unicode="&#x11d;" horiz-adv-x="523" 
d="M438 1c0 -161 -53 -213 -203 -213c-63 0 -109 5 -164 11v15c57 -6 108 -11 164 -11c138 0 187 42 187 198v25c-35 -14 -96 -38 -167 -38c-142 0 -198 74 -198 242v71c0 175 70 241 228 241c27 0 81 -3 153 -13v-528zM422 42v473c-56 8 -112 11 -137 11
c-144 0 -211 -55 -211 -225v-71c0 -164 53 -227 182 -227c68 0 125 23 166 39zM412 616h-21l-130 139l-130 -139h-21l144 154h14z" />
    <glyph glyph-name="gcommaaccent" unicode="&#x123;" horiz-adv-x="523" 
d="M438 1c0 -161 -53 -213 -203 -213c-63 0 -109 5 -164 11v15c57 -6 108 -11 164 -11c138 0 187 42 187 198v25c-35 -14 -96 -38 -167 -38c-142 0 -198 74 -198 242v71c0 175 70 241 228 241c27 0 81 -3 153 -13v-528zM422 42v473c-56 8 -112 11 -137 11
c-144 0 -211 -55 -211 -225v-71c0 -164 53 -227 182 -227c68 0 125 23 166 39zM248 616l107 140h21l-107 -140h-21z" />
    <glyph glyph-name="gdotaccent" unicode="&#x121;" horiz-adv-x="523" 
d="M438 1c0 -161 -53 -213 -203 -213c-63 0 -109 5 -164 11v15c57 -6 108 -11 164 -11c138 0 187 42 187 198v25c-35 -14 -96 -38 -167 -38c-142 0 -198 74 -198 242v71c0 175 70 241 228 241c27 0 81 -3 153 -13v-528zM422 42v473c-56 8 -112 11 -137 11
c-144 0 -211 -55 -211 -225v-71c0 -164 53 -227 182 -227c68 0 125 23 166 39zM269 645h-16v122h16v-122z" />
    <glyph glyph-name="hbar" unicode="&#x127;" horiz-adv-x="549" 
d="M26 623v16h59v131h17v-131h176v-16h-176v-139c53 27 122 59 198 59c127 0 169 -64 169 -212v-331h-17v331c0 148 -44 196 -152 196c-69 0 -142 -30 -198 -60v-467h-17v623h-59z" />
    <glyph glyph-name="hcircumflex" unicode="&#x125;" horiz-adv-x="549" 
d="M469 0h-17v331c0 148 -44 196 -152 196c-69 0 -142 -30 -198 -60v-467h-17v770h17v-286c53 27 122 59 198 59c127 0 169 -64 169 -212v-331zM425 789h-21l-130 139l-130 -139h-21l144 154h14z" />
    <glyph glyph-name="ibreve" unicode="&#x12d;" 
d="M107 0h-17v529h17v-529zM247 773c-8 -89 -38 -159 -148 -159c-111 0 -140 70 -148 159h15c6 -76 28 -144 133 -144c104 0 126 68 132 144h16z" />
    <glyph glyph-name="ij" unicode="&#x133;" horiz-adv-x="417" 
d="M107 0h-17v529h17v-529zM107 643h-17v127h17v-127zM327 -88c0 -79 -15 -124 -92 -124c-10 0 -30 0 -59 4v14c32 -3 49 -3 59 -3c62 0 75 32 75 109v617h17v-617zM327 641h-17v129h17v-129z" />
    <glyph glyph-name="imacron" unicode="&#x12b;" 
d="M107 0h-17v529h17v-529zM271 682h-343v16h343v-16z" />
    <glyph glyph-name="iogonek" unicode="&#x12f;" 
d="M196 -208c-14 -4 -50 -9 -83 -9c-80 0 -111 39 -111 96s40 98 88 127v523h17v-529c-52 -31 -88 -69 -88 -122c0 -50 26 -80 94 -80c33 0 68 5 83 8v-14zM107 643h-17v127h17v-127z" />
    <glyph glyph-name="itilde" unicode="&#x129;" 
d="M107 0h-17v529h17v-529zM272 740c0 -77 -15 -123 -74 -123c-35 0 -54 15 -84 50l-42 49c-29 33 -43 45 -72 45c-54 0 -58 -50 -58 -108v-34h-16v34c0 77 15 123 74 123c35 0 52 -15 82 -49l43 -49c30 -34 43 -46 73 -46c53 0 58 50 58 108v33h16v-33z" />
    <glyph glyph-name="jcircumflex" unicode="&#x135;" 
d="M107 -88c0 -79 -15 -124 -92 -124c-10 0 -30 0 -59 4v14c32 -3 49 -3 59 -3c62 0 75 32 75 109v617h17v-617zM250 616h-21l-130 139l-130 -139h-21l144 154h14z" />
    <glyph glyph-name="kcommaaccent" unicode="&#x137;" horiz-adv-x="416" 
d="M406 0h-24l-280 278v-278h-17v770h17v-488l278 247h26l-281 -249zM258 -68l-107 -140h-21l107 140h21z" />
    <glyph glyph-name="lacute" unicode="&#x13a;" horiz-adv-x="187" 
d="M102 0h-17v770h17v-770zM225 963l-142 -154h-20l141 154h21z" />
    <glyph glyph-name="lcaron" unicode="&#x13e;" horiz-adv-x="287" 
d="M102 0h-17v770h17v-770zM267 770l-64 -229h-17l61 229h20z" />
    <glyph glyph-name="lcommaaccent" unicode="&#x13c;" horiz-adv-x="187" 
d="M102 0h-17v770h17v-770zM136 -68l-107 -140h-21l107 140h21z" />
    <glyph glyph-name="ldot" unicode="&#x140;" horiz-adv-x="263" 
d="M102 0h-17v770h17v-770zM233 301h-17v136h17v-136z" />
    <glyph glyph-name="nacute" unicode="&#x144;" horiz-adv-x="549" 
d="M469 0h-17v331c0 148 -44 196 -153 196c-68 0 -138 -28 -197 -60v-467h-17v529h17v-45c54 29 122 59 197 59c127 0 170 -64 170 -212v-331zM399 770l-142 -154h-20l141 154h21z" />
    <glyph glyph-name="ncaron" unicode="&#x148;" horiz-adv-x="549" 
d="M469 0h-17v331c0 148 -44 196 -153 196c-68 0 -138 -28 -197 -60v-467h-17v529h17v-45c54 29 122 59 197 59c127 0 170 -64 170 -212v-331zM123 770h21l130 -139l130 139h21l-144 -154h-14z" />
    <glyph glyph-name="ncommaaccent" unicode="&#x146;" horiz-adv-x="549" 
d="M469 0h-17v331c0 148 -44 196 -153 196c-68 0 -138 -28 -197 -60v-467h-17v529h17v-45c54 29 122 59 197 59c127 0 170 -64 170 -212v-331zM300 -68l-107 -140h-21l107 140h21z" />
    <glyph glyph-name="obreve" unicode="&#x14f;" horiz-adv-x="534" 
d="M477 260c-1 -184 -58 -272 -210 -272s-209 88 -210 272v12c0 183 58 271 210 271s209 -88 210 -271v-12zM460 260v12c0 180 -56 255 -193 255s-193 -75 -193 -255v-12c0 -181 56 -257 193 -257s193 76 193 257zM415 773c-8 -89 -38 -159 -148 -159
c-111 0 -140 70 -148 159h15c6 -76 28 -144 133 -144c104 0 126 68 132 144h16z" />
    <glyph glyph-name="ohungarumlaut" unicode="&#x151;" horiz-adv-x="534" 
d="M477 260c-1 -184 -58 -272 -210 -272s-209 88 -210 272v12c0 183 58 271 210 271s209 -88 210 -271v-12zM460 260v12c0 180 -56 255 -193 255s-193 -75 -193 -255v-12c0 -181 56 -257 193 -257s193 76 193 257zM493 770l-142 -154h-20l141 154h21zM292 770h21l-142 -154
h-20z" />
    <glyph glyph-name="omacron" unicode="&#x14d;" horiz-adv-x="534" 
d="M477 260c-1 -184 -58 -272 -210 -272s-209 88 -210 272v12c0 183 58 271 210 271s209 -88 210 -271v-12zM460 260v12c0 180 -56 255 -193 255s-193 -75 -193 -255v-12c0 -181 56 -257 193 -257s193 76 193 257zM438 682h-343v16h343v-16z" />
    <glyph glyph-name="oslashacute" unicode="&#x1ff;" horiz-adv-x="534" 
d="M403 770l-142 -154h-20l141 154h21zM477 260c-1 -184 -58 -272 -210 -272c-69 0 -118 18 -152 55l-51 -69h-20l61 82c-33 45 -48 112 -48 204v12c0 183 58 271 210 271c72 0 122 -20 156 -60l54 72h20l-64 -86c30 -45 43 -110 44 -197v-12zM460 260v12
c0 82 -12 142 -38 183l-297 -399c31 -36 78 -53 142 -53c137 0 193 76 193 257zM413 469c-31 40 -79 58 -146 58c-137 0 -193 -75 -193 -255v-12c0 -87 13 -149 41 -191z" />
    <glyph glyph-name="racute" unicode="&#x155;" horiz-adv-x="332" 
d="M322 527c-36 0 -127 -2 -221 -57v-470h-16v529h16v-43c89 55 185 57 221 57v-16zM328 770l-142 -154h-20l141 154h21z" />
    <glyph glyph-name="rcaron" unicode="&#x159;" horiz-adv-x="332" 
d="M322 527c-36 0 -127 -2 -221 -57v-470h-16v529h16v-43c89 55 185 57 221 57v-16zM38 770h21l130 -139l130 139h21l-144 -154h-14z" />
    <glyph glyph-name="rcommaaccent" unicode="&#x157;" horiz-adv-x="332" 
d="M322 527c-36 0 -127 -2 -221 -57v-470h-16v529h16v-43c89 55 185 57 221 57v-16zM218 -68l-107 -140h-21l107 140h21z" />
    <glyph glyph-name="sacute" unicode="&#x15b;" horiz-adv-x="451" 
d="M401 124c0 -73 -50 -136 -181 -136c-65 0 -122 7 -164 18v15c36 -8 99 -18 164 -18c117 0 165 52 165 121c0 66 -37 98 -145 137l-36 13c-99 36 -154 74 -154 147c0 85 66 121 184 121c52 0 108 -7 145 -15v-16c-36 8 -94 16 -145 16c-109 0 -167 -28 -167 -106
c0 -66 48 -97 145 -132l36 -13c107 -39 153 -75 153 -152zM342 770l-142 -154h-20l141 154h21z" />
    <glyph glyph-name="scedilla" unicode="&#x15f;" horiz-adv-x="451" 
d="M401 124c0 -73 -50 -136 -181 -136c-65 0 -122 7 -164 18v15c36 -8 99 -18 164 -18c117 0 165 52 165 121c0 66 -37 98 -145 137l-36 13c-99 36 -154 74 -154 147c0 85 66 121 184 121c52 0 108 -7 145 -15v-16c-36 8 -94 16 -145 16c-109 0 -167 -28 -167 -106
c0 -66 48 -97 145 -132l36 -13c107 -39 153 -75 153 -152zM260 -68l-131 -140h-21l131 140h21z" />
    <glyph glyph-name="scircumflex" unicode="&#x15d;" horiz-adv-x="451" 
d="M401 124c0 -73 -50 -136 -181 -136c-65 0 -122 7 -164 18v15c36 -8 99 -18 164 -18c117 0 165 52 165 121c0 66 -37 98 -145 137l-36 13c-99 36 -154 74 -154 147c0 85 66 121 184 121c52 0 108 -7 145 -15v-16c-36 8 -94 16 -145 16c-109 0 -167 -28 -167 -106
c0 -66 48 -97 145 -132l36 -13c107 -39 153 -75 153 -152zM376 616h-21l-130 139l-130 -139h-21l144 154h14z" />
    <glyph glyph-name="scommaaccent" unicode="&#x219;" horiz-adv-x="451" 
d="M401 124c0 -73 -50 -136 -181 -136c-65 0 -122 7 -164 18v15c36 -8 99 -18 164 -18c117 0 165 52 165 121c0 66 -37 98 -145 137l-36 13c-99 36 -154 74 -154 147c0 85 66 121 184 121c52 0 108 -7 145 -15v-16c-36 8 -94 16 -145 16c-109 0 -167 -28 -167 -106
c0 -66 48 -97 145 -132l36 -13c107 -39 153 -75 153 -152zM268 -68l-107 -140h-21l107 140h21z" />
    <glyph glyph-name="tbar" unicode="&#x167;" horiz-adv-x="364" 
d="M339 374h-173v-260c0 -83 18 -111 83 -111c17 0 52 1 90 6v-14c-35 -6 -73 -7 -90 -7c-78 0 -99 35 -99 126v260h-130v16h130v123h-130v16h130v151h16v-151h173v-16h-173v-123h173v-16z" />
    <glyph glyph-name="tcaron" unicode="&#x165;" horiz-adv-x="364" 
d="M339 -5c-34 -6 -72 -7 -89 -7c-79 0 -100 35 -100 126v399h-130v16h130v151h17v-151h173v-16h-173v-399c0 -83 17 -111 83 -111c19 0 52 1 89 6v-14zM338 770l-58 -189h-17l56 189h19z" />
    <glyph glyph-name="tcedilla" unicode="&#x163;" horiz-adv-x="364" 
d="M339 -5c-35 -6 -73 -7 -90 -7c-78 0 -99 35 -99 126v399h-130v16h130v151h16v-151h173v-16h-173v-399c0 -83 18 -111 83 -111c19 0 52 1 90 6v-14zM246 -68l-107 -140h-21l107 140h21z" />
    <glyph glyph-name="tcommaaccent" unicode="&#x21b;" horiz-adv-x="364" 
d="M339 -5c-35 -6 -73 -7 -90 -7c-78 0 -99 35 -99 126v399h-130v16h130v151h16v-151h173v-16h-173v-399c0 -83 18 -111 83 -111c19 0 52 1 90 6v-14zM246 -68l-107 -140h-21l107 140h21z" />
    <glyph glyph-name="ubreve" unicode="&#x16d;" horiz-adv-x="548" 
d="M463 0h-16v46c-51 -28 -115 -58 -198 -58c-127 0 -169 63 -169 212v329h16v-329c0 -149 45 -197 153 -197c76 0 144 30 198 61v465h16v-529zM422 773c-8 -89 -38 -159 -148 -159c-111 0 -140 70 -148 159h15c6 -76 28 -144 133 -144c104 0 126 68 132 144h16z" />
    <glyph glyph-name="uhungarumlaut" unicode="&#x171;" horiz-adv-x="548" 
d="M463 0h-16v46c-51 -28 -115 -58 -198 -58c-127 0 -169 63 -169 212v329h16v-329c0 -149 45 -197 153 -197c76 0 144 30 198 61v465h16v-529zM500 770l-142 -154h-20l141 154h21zM299 770h21l-142 -154h-20z" />
    <glyph glyph-name="umacron" unicode="&#x16b;" horiz-adv-x="548" 
d="M463 0h-16v46c-51 -28 -115 -58 -198 -58c-127 0 -169 63 -169 212v329h16v-329c0 -149 45 -197 153 -197c76 0 144 30 198 61v465h16v-529zM445 682h-343v16h343v-16z" />
    <glyph glyph-name="uogonek" unicode="&#x173;" horiz-adv-x="548" 
d="M463 -208c-14 -4 -40 -9 -73 -9c-84 0 -111 35 -111 84c0 65 73 94 168 137v58c-49 -32 -118 -74 -198 -74c-127 0 -169 63 -169 212v329h16v-329c0 -149 45 -197 153 -197c76 0 145 41 198 75v451h16v-532c-100 -45 -167 -68 -167 -130c0 -45 26 -69 94 -69
c33 0 58 5 73 8v-14z" />
    <glyph glyph-name="uring" unicode="&#x16f;" horiz-adv-x="548" 
d="M463 0h-16v46c-51 -28 -115 -58 -198 -58c-127 0 -169 63 -169 212v329h16v-329c0 -149 45 -197 153 -197c76 0 144 30 198 61v465h16v-529zM385 703c0 -71 -47 -106 -111 -106s-112 35 -112 106c0 70 48 105 112 105s111 -35 111 -105zM369 703c0 69 -47 90 -95 90
c-49 0 -96 -21 -96 -90c0 -70 47 -91 96 -91c48 0 95 21 95 91z" />
    <glyph glyph-name="utilde" unicode="&#x169;" horiz-adv-x="548" 
d="M463 0h-16v46c-51 -28 -115 -58 -198 -58c-127 0 -169 63 -169 212v329h16v-329c0 -149 45 -197 153 -197c76 0 144 30 198 61v465h16v-529zM447 740c0 -77 -15 -123 -74 -123c-35 0 -54 15 -84 50l-42 49c-29 33 -43 45 -72 45c-54 0 -58 -50 -58 -108v-34h-16v34
c0 77 15 123 74 123c35 0 52 -15 82 -49l43 -49c30 -34 43 -46 73 -46c53 0 58 50 58 108v33h16v-33z" />
    <glyph glyph-name="wacute" unicode="&#x1e83;" horiz-adv-x="767" 
d="M737 529l-138 -529h-22l-166 415c-9 22 -17 43 -26 65h-2c-9 -22 -17 -43 -26 -65l-166 -415h-22l-139 529h18l110 -426c7 -28 15 -57 22 -85h3c11 28 23 57 34 85l155 393h24l156 -393c11 -28 23 -57 34 -85h3l21 84l108 427h19zM515 770l-142 -154h-20l141 154h21z" />
    <glyph glyph-name="wcircumflex" unicode="&#x175;" horiz-adv-x="767" 
d="M737 529l-138 -529h-22l-166 415c-9 22 -17 43 -26 65h-2c-9 -22 -17 -43 -26 -65l-166 -415h-22l-139 529h18l110 -426c7 -28 15 -57 22 -85h3c11 28 23 57 34 85l155 393h24l156 -393c11 -28 23 -57 34 -85h3l21 84l108 427h19zM534 616h-21l-130 139l-130 -139h-21
l144 154h14z" />
    <glyph glyph-name="wdieresis" unicode="&#x1e85;" horiz-adv-x="767" 
d="M737 529l-138 -529h-22l-166 415c-9 22 -17 43 -26 65h-2c-9 -22 -17 -43 -26 -65l-166 -415h-22l-139 529h18l110 -426c7 -28 15 -57 22 -85h3c11 28 23 57 34 85l155 393h24l156 -393c11 -28 23 -57 34 -85h3l21 84l108 427h19zM507 639h-17v121h17v-121zM276 760v-121
h-17v121h17z" />
    <glyph glyph-name="wgrave" unicode="&#x1e81;" horiz-adv-x="767" 
d="M737 529l-138 -529h-22l-166 415c-9 22 -17 43 -26 65h-2c-9 -22 -17 -43 -26 -65l-166 -415h-22l-139 529h18l110 -426c7 -28 15 -57 22 -85h3c11 28 23 57 34 85l155 393h24l156 -393c11 -28 23 -57 34 -85h3l21 84l108 427h19zM408 616h-21l-142 154h21z" />
    <glyph glyph-name="ycircumflex" unicode="&#x177;" horiz-adv-x="461" 
d="M435 529l-203 -560c-53 -146 -77 -181 -178 -181c-19 0 -45 1 -72 3v16c32 -2 54 -3 72 -3c88 0 110 28 160 168l11 30l-205 527h18l165 -425c10 -25 19 -50 29 -75h4c9 25 18 49 27 74l154 426h18zM384 616h-21l-130 139l-130 -139h-21l144 154h14z" />
    <glyph glyph-name="ygrave" unicode="&#x1ef3;" horiz-adv-x="461" 
d="M435 529l-203 -560c-53 -146 -77 -181 -178 -181c-19 0 -45 1 -72 3v16c32 -2 54 -3 72 -3c88 0 110 28 160 168l11 30l-205 527h18l165 -425c10 -25 19 -50 29 -75h4c9 25 18 49 27 74l154 426h18zM270 616h-21l-142 154h21z" />
    <glyph glyph-name="zacute" unicode="&#x17a;" horiz-adv-x="462" 
d="M412 0h-367v15l345 498h-333v16h354v-15l-346 -499h347v-15zM366 770l-142 -154h-20l141 154h21z" />
    <glyph glyph-name="zdotaccent" unicode="&#x17c;" horiz-adv-x="462" 
d="M412 0h-367v15l345 498h-333v16h354v-15l-346 -499h347v-15zM236 645h-16v122h16v-122z" />
    <glyph glyph-name="kgreenlandic" unicode="&#x138;" horiz-adv-x="416" 
d="M406 0h-24l-280 278v-278h-17v529h17v-247l278 247h26l-281 -249z" />
    <glyph glyph-name="napostrophe" unicode="&#x149;" horiz-adv-x="574" 
d="M494 0h-17v331c0 148 -44 196 -153 196c-68 0 -138 -28 -197 -60v-467h-17v529h17v-45c54 29 122 59 197 59c127 0 170 -64 170 -212v-331zM84 770l-64 -229h-17l61 229h20z" />
    <glyph glyph-name="Delta" unicode="&#x2206;" horiz-adv-x="631" 
d="M596 0h-563l269 744h24zM572 16l-202 564c-18 51 -37 103 -55 154h-1c-18 -51 -37 -103 -55 -154l-202 -564h515z" />
    <glyph glyph-name="uni03A9" unicode="&#x3a9;" horiz-adv-x="626" 
d="M582 400c0 -147 -62 -248 -193 -300v-84h176v-16h-192v109c141 54 192 152 192 291v31c0 212 -94 310 -249 310s-249 -98 -249 -310v-31c0 -139 51 -237 192 -291v-109h-192v16h176v84c-131 52 -193 153 -193 300v31c0 219 99 325 266 325s266 -106 266 -325v-31z" />
    <glyph glyph-name="uni03BC" unicode="&#x3bc;" horiz-adv-x="591" 
d="M487 0h-16v46c-51 -28 -115 -58 -198 -58c-85 0 -131 27 -153 90v-286h-16v737h16v-329c0 -149 45 -197 153 -197c76 0 144 30 198 61v465h16v-529z" />
    <glyph glyph-name="pi" unicode="&#x3c0;" horiz-adv-x="578" 
d="M563 -14c-97 0 -114 27 -114 142v384h-279v-512h-17v512h-99v17h510v-17h-99v-384c0 -110 15 -126 98 -126v-16z" />
    <glyph glyph-name="uni037E" unicode="&#x37e;" horiz-adv-x="227" 
d="M124 301h-17v136h17v-136z" />
    <glyph glyph-name="exclamdbl" unicode="&#x203c;" horiz-adv-x="370" 
d="M283 0h-16v111h16v-111zM283 770v-582h-16v582h16zM104 0h-17v111h17v-111zM104 770v-582h-17v582h17z" />
    <glyph glyph-name="franc" unicode="&#x20a3;" horiz-adv-x="545" 
d="M122 0h-16v212h-67v16h67v515h404v-16h-388v-327h359v-16h-359v-156h160v-16h-160v-212z" />
    <glyph glyph-name="lira" unicode="&#x20a4;" horiz-adv-x="547" 
d="M502 739v-15c-50 5 -109 9 -163 9c-161 0 -201 -52 -201 -218v-87h283v-16h-283v-114h283v-16h-283v-93c0 -79 -15 -123 -59 -173h423v-16h-444v16c52 55 64 95 64 173v93h-91v16h91v114h-91v16h91v87c0 169 40 234 217 234c57 0 111 -4 163 -10z" />
    <glyph glyph-name="peseta" unicode="&#x20a7;" horiz-adv-x="584" 
d="M106 552v192c36 3 97 10 175 10c185 0 254 -64 255 -201h67v-16h-67c-1 -136 -75 -210 -260 -210c-41 0 -94 1 -153 4v-331h-17v536h-74v16h74zM520 538v14c0 132 -67 186 -239 186c-69 0 -125 -6 -158 -9v-383c60 -3 112 -4 153 -4c170 0 244 66 244 196z" />
    <glyph glyph-name="Euro" unicode="&#x20ac;" horiz-adv-x="577" 
d="M357 738c-158 0 -234 -87 -255 -265h368l-4 -17h-366c-3 -24 -4 -50 -4 -78s1 -57 4 -87h322l-4 -16h-317c19 -182 96 -271 256 -271c78 0 142 10 173 14v-15c-32 -5 -94 -15 -173 -15c-172 0 -253 97 -273 287h-60v16h59c-3 48 -4 66 -4 83c0 29 2 57 5 82h-60v17h61
c21 186 102 281 272 281c79 0 141 -10 173 -15v-15c-31 4 -95 14 -173 14z" />
    <glyph glyph-name="litre" unicode="&#x2113;" horiz-adv-x="421" 
d="M374 30c-40 -31 -81 -48 -122 -48c-76 0 -111 42 -111 153v175c-32 -32 -68 -65 -104 -98l-10 13c40 36 79 72 114 108v257c0 121 17 198 117 198c82 0 108 -56 108 -120c0 -116 -67 -200 -209 -341v-192c0 -101 28 -137 95 -137c38 0 77 16 113 45zM349 668
c0 59 -19 105 -91 105c-90 0 -101 -77 -101 -183v-240c134 134 192 210 192 318z" />
    <glyph glyph-name="Omega" unicode="&#x2126;" horiz-adv-x="626" 
d="M582 400c0 -147 -62 -248 -193 -300v-84h176v-16h-192v109c141 54 192 152 192 291v31c0 212 -94 310 -249 310s-249 -98 -249 -310v-31c0 -139 51 -237 192 -291v-109h-192v16h176v84c-131 52 -193 153 -193 300v31c0 219 99 325 266 325s266 -106 266 -325v-31z" />
    <glyph glyph-name="estimated" unicode="&#x212e;" horiz-adv-x="623" 
d="M590 282h-429v-193c42 -40 92 -63 152 -63c112 0 165 59 210 127l31 -19c-52 -81 -116 -141 -241 -141c-163 0 -271 133 -271 290c0 159 104 290 275 290c170 0 273 -134 273 -291zM470 315v163c-36 33 -95 62 -153 62c-60 0 -116 -21 -156 -62v-163h309z" />
    <glyph glyph-name="partialdiff" unicode="&#x2202;" horiz-adv-x="573" 
d="M518 445c0 -53 -4 -124 -19 -213c-24 -146 -114 -247 -252 -247c-135 0 -193 69 -193 203c0 127 52 289 245 289c82 0 192 -34 197 -168c6 60 6 103 6 136c0 212 -64 317 -255 317c-42 0 -87 -5 -128 -13v15c38 8 83 14 128 14c196 0 271 -112 271 -333zM484 288
c0 101 -58 171 -184 171c-172 0 -230 -137 -230 -271c0 -127 54 -186 177 -186c173 0 237 159 237 286z" />
    <glyph glyph-name="product" unicode="&#x220f;" horiz-adv-x="694" 
d="M671 727h-130v-793h-17v793h-345v-793h-17v793h-130v16h639v-16z" />
    <glyph glyph-name="summation" unicode="&#x2211;" horiz-adv-x="560" 
d="M494 -66h-421v15l271 390l-271 389v15h421v-16h-401l268 -383v-11l-268 -383h401v-16z" />
    <glyph glyph-name="uni2219" unicode="&#x2219;" horiz-adv-x="136" 
d="M77 301h-17v136h17v-136z" />
    <glyph glyph-name="radical" unicode="&#x221a;" horiz-adv-x="764" 
d="M716 873l-323 -947h-24l-192 536h-122v17h134l192 -539l317 933h18z" />
    <glyph glyph-name="infinity" unicode="&#x221e;" horiz-adv-x="721" 
d="M612 370c0 -69 -7 -232 -133 -232h-4c-43 0 -95 28 -133 81c-19 -52 -48 -81 -99 -81h-5c-125 0 -129 165 -129 234v7c0 69 6 232 132 232h4c44 0 96 -28 133 -81c17 51 49 81 100 81h4c126 0 130 -165 130 -235v-6zM594 370v6c0 78 -8 218 -112 218h-4
c-81 0 -94 -79 -107 -214c-6 -57 -13 -106 -24 -143c38 -54 83 -83 128 -83h4c103 0 115 138 115 216zM373 511c-38 54 -83 83 -128 83h-4c-103 0 -115 -137 -115 -215v-7c0 -77 9 -218 112 -218h5c79 0 98 82 111 225c4 49 10 95 19 132z" />
    <glyph glyph-name="integral" unicode="&#x222b;" horiz-adv-x="480" 
d="M440 734c-19 2 -58 5 -78 5c-89 0 -110 -30 -110 -140v-656c0 -112 -23 -155 -126 -155c-21 0 -59 3 -79 6v14c20 -2 58 -5 79 -5c89 0 110 31 110 140v656c0 113 22 156 126 156c20 0 59 -3 78 -6v-15z" />
    <glyph glyph-name="approxequal" unicode="&#x2248;" horiz-adv-x="683" 
d="M547 559c0 -89 -11 -142 -80 -142c-43 0 -81 34 -110 66l-47 51c-35 37 -58 56 -91 56c-60 0 -66 -48 -66 -127v-36h-17v36c0 89 13 143 83 143c39 0 66 -22 104 -62l46 -49c33 -36 64 -62 98 -62c58 0 63 48 63 126v36h17v-36zM547 319c0 -89 -11 -142 -80 -142
c-43 0 -81 34 -110 66l-47 51c-35 37 -58 56 -91 56c-60 0 -66 -48 -66 -127v-36h-17v36c0 89 13 143 83 143c39 0 66 -22 104 -62l46 -49c33 -36 64 -62 98 -62c58 0 63 48 63 126v36h17v-36z" />
    <glyph glyph-name="notequal" unicode="&#x2260;" horiz-adv-x="683" 
d="M548 269h-236l-87 -269h-17l87 269h-160v17h165l71 215h-236v16h241l75 232h17l-75 -232h155v-16h-160l-71 -215h231v-17z" />
    <glyph glyph-name="lessequal" unicode="&#x2264;" horiz-adv-x="683" 
d="M570 0h-458v16h458v-16zM448 169h-24l-256 235l256 235h24l-255 -235z" />
    <glyph glyph-name="greaterequal" unicode="&#x2265;" horiz-adv-x="683" 
d="M571 0h-459v16h459v-16zM514 404l-255 -235h-24l255 235l-255 235h24z" />
    <glyph glyph-name="lozenge" unicode="&#x25ca;" horiz-adv-x="652" 
d="M554 361l-234 -299l-230 296l233 299zM530 361l-207 266l-210 -269l207 -265z" />
    <glyph glyph-name="uni00A0" unicode="&#xa0;" horiz-adv-x="220" 
 />
    <glyph glyph-name="uni00AD" unicode="&#xad;" horiz-adv-x="392" 
d="M317 277h-240v17h240v-17z" />
    <glyph glyph-name="uni02C9" unicode="&#x2c9;" horiz-adv-x="439" 
d="M391 682h-343v16h343v-16z" />
    <glyph glyph-name="Dotaccent" horiz-adv-x="378" 
d="M212 806h-16v123h16v-123z" />
    <glyph glyph-name="Breve" horiz-adv-x="421" 
d="M360 945c-9 -88 -38 -159 -148 -159c-111 0 -140 71 -149 159h16c6 -75 28 -145 133 -145c104 0 126 70 132 145h16z" />
    <glyph glyph-name="Ogonek" horiz-adv-x="422" 
d="M337 -208c-14 -4 -50 -9 -83 -9c-84 0 -111 35 -111 84c0 77 112 118 186 146l8 -13c-99 -39 -177 -71 -177 -133c0 -45 26 -69 94 -69c33 0 68 5 83 8v-14z" />
    <glyph glyph-name="Cedilla" horiz-adv-x="390" 
d="M233 -68l-131 -140h-21l131 140h21z" />
    <glyph glyph-name="Ring" horiz-adv-x="424" 
d="M326 773c0 -71 -50 -104 -113 -104s-113 32 -113 104s50 106 113 106s113 -34 113 -106zM310 773c0 72 -52 90 -97 90s-97 -18 -97 -90c0 -71 52 -89 97 -89s97 18 97 89z" />
    <glyph glyph-name="Tilde" horiz-adv-x="429" 
d="M383 931c0 -77 -15 -123 -74 -123c-35 0 -54 15 -84 50l-42 49c-29 33 -43 45 -72 45c-54 0 -58 -50 -58 -108v-34h-16v34c0 77 15 123 74 123c35 0 52 -15 82 -49l43 -49c30 -34 43 -46 73 -46c53 0 58 50 58 108v33h16v-33z" />
    <glyph glyph-name="Circumflex" horiz-adv-x="446" 
d="M374 786h-22l-130 140l-129 -140h-22l145 154h13z" />
    <glyph glyph-name="Acute" horiz-adv-x="415" 
d="M329 940l-142 -154h-20l141 154h21z" />
    <glyph glyph-name="Caron" horiz-adv-x="446" 
d="M72 940h21l130 -139l130 139h21l-144 -154h-14z" />
    <glyph glyph-name="Dieresis" horiz-adv-x="410" 
d="M331 796h-17v121h17v-121zM100 917v-121h-17v121h17z" />
    <glyph glyph-name="Grave" horiz-adv-x="380" 
d="M226 790h-20l-142 154h21z" />
    <glyph glyph-name="Hungarumlaut" horiz-adv-x="432" 
d="M403 944l-142 -154h-20l141 154h21zM202 944h21l-142 -154h-20z" />
    <glyph glyph-name="Macron" horiz-adv-x="439" 
d="M391 871h-343v16h343v-16z" />
    <glyph glyph-name="commaaccent.cap" horiz-adv-x="422" 
d="M228 -68l-107 -140h-21l107 140h21z" />
    <glyph glyph-name="h.superior" horiz-adv-x="346" 
d="M65 770h15v-171c29 16 66 33 106 33c72 0 95 -36 95 -125v-210h-15v210c0 86 -21 110 -80 110c-37 0 -76 -16 -106 -33v-287h-15v473z" />
    <glyph glyph-name="zero.slash" horiz-adv-x="614" 
d="M52 0l63 96c-29 56 -45 135 -45 244v62c0 263 95 352 237 352c77 0 140 -26 182 -92l53 81h20l-64 -97c29 -55 46 -134 46 -244v-62c0 -263 -94 -352 -237 -352c-77 0 -141 26 -182 92l-53 -80h-20zM527 340v62c0 102 -15 175 -40 227l-352 -533c40 -68 101 -93 172 -93
c127 0 220 79 220 337zM87 340c0 -101 14 -175 39 -227l352 533c-40 67 -100 92 -171 92c-126 0 -220 -78 -220 -336v-62z" />
    <glyph glyph-name="percent.oldstyle" unicode="&#xfe6a;" horiz-adv-x="893" 
d="M845 177c0 -135 -54 -188 -138 -188s-137 54 -137 188v10c0 134 53 188 137 188s138 -53 138 -188v-10zM828 177v10c0 130 -48 172 -121 172c-72 0 -121 -42 -121 -172v-10c0 -130 49 -172 121 -172c73 0 121 42 121 172zM613 529l-309 -529h-20l310 529h19zM333 344
c0 -135 -54 -189 -137 -189c-84 0 -138 54 -138 189v9c0 135 54 189 138 189c83 0 137 -54 137 -189v-9zM317 343v10c0 130 -49 173 -121 173c-73 0 -121 -43 -121 -173v-10c0 -129 48 -172 121 -172c72 0 121 43 121 172z" />
    <glyph glyph-name="perthousand.oldstyle" horiz-adv-x="1237" 
d="M1188 177c0 -135 -54 -188 -137 -188c-84 0 -138 54 -138 188v10c0 134 54 188 138 188c83 0 137 -53 137 -188v-10zM1172 177v10c0 130 -49 172 -121 172c-73 0 -121 -42 -121 -172v-10c0 -130 48 -172 121 -172c72 0 121 42 121 172zM845 177
c0 -135 -54 -188 -138 -188s-137 54 -137 188v10c0 134 53 188 137 188s138 -53 138 -188v-10zM828 177v10c0 130 -48 172 -121 172c-72 0 -121 -42 -121 -172v-10c0 -130 49 -172 121 -172c73 0 121 42 121 172zM613 529l-309 -529h-20l310 529h19zM333 344
c0 -135 -54 -189 -137 -189c-84 0 -138 54 -138 189v9c0 135 54 189 138 189c83 0 137 -54 137 -189v-9zM317 343v10c0 130 -49 173 -121 173c-73 0 -121 -43 -121 -173v-10c0 -129 48 -172 121 -172c72 0 121 43 121 172z" />
    <glyph glyph-name="zero.taboldstyle" horiz-adv-x="613" 
d="M543 252c0 -171 -94 -264 -236 -264s-237 93 -237 264v34c0 171 95 264 237 264s236 -93 236 -264v-34zM527 252v34c0 171 -94 248 -220 248c-127 0 -220 -77 -220 -248v-34c0 -171 93 -249 220 -249c126 0 220 78 220 249z" />
    <glyph glyph-name="one.taboldstyle" horiz-adv-x="613" 
d="M481 0h-350v15h167v517l-167 -51v18l167 51h16v-535h167v-15z" />
    <glyph glyph-name="two.taboldstyle" horiz-adv-x="613" 
d="M98 516v15c51 11 117 19 190 19c161 0 236 -44 236 -150c0 -112 -86 -183 -285 -308l-121 -76h400v-16h-429v16l138 87c190 120 281 185 281 297c0 101 -78 134 -220 134c-63 0 -139 -8 -190 -18z" />
    <glyph glyph-name="three.taboldstyle" horiz-adv-x="613" 
d="M517 -17c0 -120 -59 -199 -242 -199c-66 0 -154 6 -182 10v15c36 -4 116 -10 182 -10c175 0 226 72 226 184v35c0 67 -15 160 -160 160h-228v16h228c143 0 160 83 160 159v16c0 110 -51 165 -226 165c-66 0 -148 -6 -182 -10v15c28 5 116 11 182 11
c183 0 243 -63 243 -181v-16c0 -78 -21 -149 -121 -168c105 -20 120 -99 120 -167v-35z" />
    <glyph glyph-name="four.taboldstyle" horiz-adv-x="613" 
d="M569 25h-131v-228h-16v228h-377v16l372 502h21v-502h131v-16zM422 41v483l-357 -483h357z" />
    <glyph glyph-name="five.taboldstyle" horiz-adv-x="613" 
d="M526 5c0 -136 -54 -214 -244 -214c-86 0 -167 10 -196 16v15c40 -6 110 -15 196 -15c184 0 227 72 227 198v22c0 151 -94 184 -249 184h-156l31 333h358v-16h-342l-28 -301h137c165 0 266 -41 266 -200v-22z" />
    <glyph glyph-name="six.taboldstyle" horiz-adv-x="613" 
d="M549 220c0 -159 -96 -232 -241 -232c-147 0 -242 86 -242 301v190c0 175 56 275 258 275c73 0 172 -11 199 -17v-14c-39 6 -126 16 -199 16c-188 0 -241 -93 -241 -255v-72c80 21 165 31 227 31c116 0 239 -38 239 -197v-26zM532 220v26c0 151 -114 181 -222 181
c-63 0 -147 -8 -227 -30v-111c0 -205 93 -282 225 -282c137 0 224 66 224 216z" />
    <glyph glyph-name="seven.taboldstyle" horiz-adv-x="613" 
d="M525 528l-337 -727h-18l337 727h-418v16h436v-16z" />
    <glyph glyph-name="eight.taboldstyle" horiz-adv-x="613" 
d="M552 205c0 -151 -63 -217 -242 -217h-8c-180 0 -242 68 -242 219v7c0 93 30 159 118 175c-89 17 -116 89 -116 169v8c0 127 61 187 240 187h7c179 0 241 -60 241 -187v-8c0 -82 -28 -152 -117 -169c88 -16 119 -80 119 -173v-11zM535 205v11c0 88 -28 165 -149 165h-160
c-122 0 -150 -79 -150 -167v-7c0 -148 64 -204 226 -204h8c161 0 225 54 225 202zM533 558v8c0 122 -62 172 -224 172h-7c-162 0 -224 -50 -224 -172v-8c0 -77 26 -161 148 -161h160c121 0 147 82 147 161z" />
    <glyph glyph-name="nine.taboldstyle" horiz-adv-x="613" 
d="M549 58c0 -175 -56 -275 -259 -275c-73 0 -171 12 -198 17v15c39 -5 127 -16 198 -16c189 0 242 93 242 254v73c-80 -22 -165 -31 -228 -31c-116 0 -238 37 -238 197v26c0 158 96 232 241 232c146 0 242 -86 242 -301v-191zM532 141v111c0 204 -93 282 -226 282
c-136 0 -224 -66 -224 -216v-27c0 -151 114 -180 222 -180c63 0 147 8 228 30z" />
    <glyph glyph-name="colonmonetary.taboldstyle" horiz-adv-x="443" 
d="M404 531v-16c-39 6 -78 12 -133 12c-130 0 -194 -66 -194 -225v-73c0 -167 60 -226 194 -226c28 0 64 3 133 12v-14c-39 -6 -68 -10 -90 -11v-115h-16v114c-19 -1 -22 -1 -32 -1c-22 0 -41 2 -58 5v-118h-17v123c-90 23 -131 94 -131 231v73c0 130 43 204 131 230v130h17
v-125c17 4 44 6 63 6h27v119h16v-120c30 -2 51 -4 90 -11z" />
    <glyph glyph-name="Euro.taboldstyle" horiz-adv-x="455" 
d="M273 527c-110 0 -170 -49 -188 -182h252l-3 -16h-251c-5 -44 -4 -82 0 -119h226l-3 -16h-221c17 -145 73 -191 188 -191c28 0 69 3 133 12v-14c-59 -10 -103 -13 -133 -13c-128 0 -189 53 -206 206h-51v16h50c-4 37 -5 75 0 119h-50v16h52c18 141 82 198 205 198
c30 0 74 -3 133 -13v-15c-64 9 -105 12 -133 12z" />
    <glyph glyph-name="florin.taboldstyle" horiz-adv-x="579" 
d="M540 595l-2 -14c-19 1 -56 4 -78 4c-88 0 -120 -29 -132 -139l-16 -143h190l-2 -16h-190l-34 -269c-15 -116 -46 -155 -149 -155c-20 0 -58 3 -77 6l2 14c25 -2 57 -4 77 -4c88 0 116 30 130 139l35 269h-154l2 16h154l16 143c13 115 47 155 150 155c21 0 61 -3 78 -6z
" />
    <glyph glyph-name="numbersign.taboldstyle" horiz-adv-x="491" 
d="M443 182h-102l-18 -182h-18l18 182h-172l-18 -182h-18l18 182h-67v16h70l21 216h-91v16h93l19 187h17l-19 -187h173l19 187h17l-19 -187h77v-16h-79l-22 -216h101v-16zM347 414h-173l-22 -216h174z" />
    <glyph glyph-name="sterling.taboldstyle" horiz-adv-x="458" 
d="M413 533v-15c-38 5 -94 8 -126 8c-119 0 -157 -45 -157 -188v-62h229v-15h-229v-102c0 -68 -8 -101 -43 -143h326v-16h-346v16c43 48 46 77 46 143v102h-71v15h71v62c1 147 41 204 174 204c37 0 91 -3 126 -9z" />
    <glyph glyph-name="yen.taboldstyle" horiz-adv-x="465" 
d="M240 0h-16v211h-194v16h191l-55 102h-136v16h127l-98 184h20l123 -231c12 -23 23 -42 29 -58h1l31 59l122 230h19l-98 -184h132v-16h-140l-56 -102h196v-16h-198v-211z" />
    <glyph glyph-name="dollar.taboldstyle" horiz-adv-x="455" 
d="M58 6v15c41 -9 103 -18 170 -18c111 0 159 53 159 121c0 66 -38 98 -145 140l-36 14c-98 38 -154 70 -154 143c0 81 63 118 176 121v121h17v-121c49 -1 101 -8 136 -15v-15c-30 5 -89 15 -145 15c-109 0 -167 -30 -167 -106c0 -66 49 -91 145 -129l36 -14
c106 -41 153 -77 153 -154c0 -71 -48 -132 -166 -136v-108h-16v108c-61 1 -122 8 -163 18z" />
    <glyph glyph-name="cent.taboldstyle" horiz-adv-x="444" 
d="M398 531v-16c-60 8 -99 12 -132 12c-131 0 -194 -66 -194 -225v-73c0 -167 60 -226 194 -226c28 0 64 3 132 12v-14c-65 -10 -98 -12 -126 -13v-113h-16v113c-141 4 -201 71 -201 241v73c0 161 64 237 201 241v119h16v-119c28 -1 61 -2 126 -12z" />
    <glyph glyph-name="zero.denominator" horiz-adv-x="400" 
d="M346 186c0 -141 -61 -193 -146 -193c-86 0 -147 53 -147 193v58c0 140 61 193 147 193c85 0 146 -53 146 -193v-58zM329 185v59c0 136 -55 177 -129 177c-75 0 -130 -41 -130 -177v-59c0 -135 55 -176 130 -176c74 0 129 41 129 176z" />
    <glyph glyph-name="one.denominator" horiz-adv-x="300" 
d="M269 0h-238v14h109v401l-109 -38v15l109 38h16v-416h113v-14z" />
    <glyph glyph-name="two.denominator" horiz-adv-x="374" 
d="M60 412v15c32 6 73 10 113 10c96 0 148 -23 148 -96c0 -57 -20 -88 -119 -138c-115 -58 -133 -85 -133 -183v-5h245v-15h-261v20c0 105 21 135 140 195c97 49 112 74 112 126c0 64 -46 81 -132 81c-35 0 -79 -4 -113 -10z" />
    <glyph glyph-name="three.denominator" horiz-adv-x="368" 
d="M162 -7c-44 0 -93 5 -109 8v15c21 -3 66 -8 106 -8c103 0 140 30 140 112c0 51 -13 97 -100 97h-133v15h133c88 0 100 52 100 100v4c0 65 -38 86 -138 86c-33 0 -84 -5 -108 -8v15c23 3 69 8 109 8c106 0 153 -24 153 -101v-4c0 -49 -16 -95 -76 -108
c65 -12 76 -59 76 -106c0 -82 -38 -125 -153 -125z" />
    <glyph glyph-name="four.denominator" horiz-adv-x="421" 
d="M292 0h-16v130h-225v15l222 285h19v-285h76v-15h-76v-130zM276 145v266l-205 -266h205z" />
    <glyph glyph-name="five.denominator" horiz-adv-x="375" 
d="M301 415h-205l-15 -163h83c98 0 157 -25 157 -121v-5c0 -93 -43 -133 -158 -133c-48 0 -87 4 -110 9v15c27 -4 63 -9 110 -9c108 0 142 35 142 118v5c0 90 -52 106 -141 106h-101l18 193h220v-15z" />
    <glyph glyph-name="six.denominator" horiz-adv-x="402" 
d="M330 428v-16c-31 4 -75 9 -118 9c-109 0 -142 -53 -143 -144v-37c52 12 98 16 133 16c75 0 146 -23 146 -110v-25c0 -84 -53 -128 -146 -128c-89 0 -149 51 -149 164v115c0 105 41 165 159 165c45 0 86 -4 118 -9zM332 121v25c0 79 -62 95 -130 95c-35 0 -80 -4 -133 -16
v-68c0 -113 57 -149 133 -149c80 0 130 34 130 113z" />
    <glyph glyph-name="seven.denominator" horiz-adv-x="360" 
d="M48 415v15h263v-15l-210 -415h-18l211 415h-246z" />
    <glyph glyph-name="eight.denominator" horiz-adv-x="422" 
d="M368 114c0 -90 -56 -121 -154 -121h-6c-99 0 -155 31 -155 121v11c0 52 25 90 73 101c-48 13 -72 52 -72 102v6c0 72 52 103 154 103h5c102 0 155 -31 155 -103v-6c0 -48 -25 -90 -72 -102c46 -11 72 -49 72 -101v-11zM352 114v11c0 49 -23 94 -95 94h-92
c-72 0 -96 -45 -96 -94v-11c0 -79 50 -106 139 -106h6c88 0 138 27 138 106zM352 328v6c0 64 -50 88 -139 88h-5c-89 0 -138 -24 -138 -88v-6c0 -46 22 -93 95 -93h92c72 0 94 48 95 93z" />
    <glyph glyph-name="nine.denominator" horiz-adv-x="402" 
d="M71 2v16c30 -4 77 -9 119 -9c108 0 141 53 142 144v37c-51 -12 -97 -16 -132 -16c-76 0 -147 23 -147 110v25c0 84 54 128 147 128c88 0 148 -51 148 -164v-115c0 -105 -41 -165 -158 -165c-44 0 -87 4 -119 9zM332 205v68c0 113 -56 149 -132 149
c-81 0 -131 -34 -131 -113v-25c0 -79 62 -95 131 -95c35 0 80 4 132 16z" />
    <glyph glyph-name="comma.denominator" horiz-adv-x="121" 
d="M86 88l-44 -144h-16l42 144h18z" />
    <glyph glyph-name="period.denominator" horiz-adv-x="93" 
d="M57 2h-17v86h17v-86z" />
    <glyph glyph-name="cent.denominator" horiz-adv-x="333" 
d="M295 9c-42 -6 -74 -7 -98 -7v-80h-17v80c-91 5 -137 48 -137 188v62c0 132 47 179 137 184v78h17v-78c24 0 56 -1 98 -7v-16c-41 5 -76 6 -102 6c-88 0 -133 -36 -133 -167v-62c0 -137 44 -171 133 -171c26 0 61 1 102 6v-16z" />
    <glyph glyph-name="dollar.denominator" horiz-adv-x="345" 
d="M52 4v15c31 -4 77 -9 117 -9c66 0 121 23 121 94c0 55 -29 76 -102 108l-43 19c-58 26 -104 54 -104 113c0 73 70 92 123 94v75h17v-75c42 0 89 -4 110 -8v-15c-25 3 -71 7 -114 7c-58 0 -119 -12 -119 -78c0 -50 39 -75 94 -99l41 -18c76 -33 114 -60 114 -123
c0 -80 -65 -107 -126 -109v-73h-17v72c-37 1 -83 5 -112 10z" />
    <glyph glyph-name="hyphen.denominator" horiz-adv-x="264" 
d="M214 171h-162v16h162v-16z" />
    <glyph glyph-name="parenleft.denominator" horiz-adv-x="187" 
d="M144 -69h-18c-38 52 -82 140 -82 259v5c0 122 46 211 85 262h19c-43 -56 -88 -142 -88 -262v-5c0 -118 42 -203 84 -259z" />
    <glyph glyph-name="parenright.denominator" horiz-adv-x="187" 
d="M140 190c0 -119 -44 -207 -82 -259h-18c42 56 84 141 84 259v5c0 120 -45 206 -88 262h19c39 -51 85 -140 85 -262v-5z" />
    <glyph glyph-name="zero.numerator" horiz-adv-x="400" 
d="M346 503c0 -141 -61 -193 -146 -193c-86 0 -147 53 -147 193v58c0 140 61 193 147 193c85 0 146 -53 146 -193v-58zM329 502v59c0 136 -55 177 -129 177c-75 0 -130 -41 -130 -177v-59c0 -135 55 -176 130 -176c74 0 129 41 129 176z" />
    <glyph glyph-name="one.numerator" horiz-adv-x="300" 
d="M269 317h-238v14h109v401l-109 -38v15l109 38h16v-416h113v-14z" />
    <glyph glyph-name="two.numerator" horiz-adv-x="374" 
d="M60 729v15c32 6 73 10 113 10c96 0 148 -23 148 -96c0 -57 -20 -88 -119 -138c-115 -58 -133 -85 -133 -183v-5h245v-15h-261v20c0 105 21 135 140 195c97 49 112 74 112 126c0 64 -46 81 -132 81c-35 0 -79 -4 -113 -10z" />
    <glyph glyph-name="three.numerator" horiz-adv-x="368" 
d="M162 310c-44 0 -93 5 -109 8v15c21 -3 66 -8 106 -8c103 0 140 30 140 112c0 51 -13 97 -100 97h-133v15h133c88 0 100 52 100 100v4c0 65 -38 86 -138 86c-33 0 -84 -5 -108 -8v15c23 3 69 8 109 8c106 0 153 -24 153 -101v-4c0 -49 -16 -95 -76 -108
c65 -12 76 -59 76 -106c0 -82 -38 -125 -153 -125z" />
    <glyph glyph-name="four.numerator" horiz-adv-x="421" 
d="M292 317h-16v130h-225v15l222 285h19v-285h76v-15h-76v-130zM276 462v266l-205 -266h205z" />
    <glyph glyph-name="five.numerator" horiz-adv-x="375" 
d="M301 732h-205l-15 -163h83c98 0 157 -25 157 -121v-5c0 -93 -43 -133 -158 -133c-48 0 -87 4 -110 9v15c27 -4 63 -9 110 -9c108 0 142 35 142 118v5c0 90 -52 106 -141 106h-101l18 193h220v-15z" />
    <glyph glyph-name="six.numerator" horiz-adv-x="402" 
d="M330 745v-16c-31 4 -75 9 -118 9c-109 0 -142 -53 -143 -144v-37c52 12 98 16 133 16c75 0 146 -23 146 -110v-25c0 -84 -53 -128 -146 -128c-89 0 -149 51 -149 164v115c0 105 41 165 159 165c45 0 86 -4 118 -9zM332 438v25c0 79 -62 95 -130 95c-35 0 -80 -4 -133 -16
v-68c0 -113 57 -149 133 -149c80 0 130 34 130 113z" />
    <glyph glyph-name="seven.numerator" horiz-adv-x="360" 
d="M48 732v15h263v-15l-210 -415h-18l211 415h-246z" />
    <glyph glyph-name="eight.numerator" horiz-adv-x="422" 
d="M368 431c0 -90 -56 -121 -154 -121h-6c-99 0 -155 31 -155 121v11c0 52 25 90 73 101c-48 13 -72 52 -72 102v6c0 72 52 103 154 103h5c102 0 155 -31 155 -103v-6c0 -48 -25 -90 -72 -102c46 -11 72 -49 72 -101v-11zM352 431v11c0 49 -23 94 -95 94h-92
c-72 0 -96 -45 -96 -94v-11c0 -79 50 -106 139 -106h6c88 0 138 27 138 106zM352 645v6c0 64 -50 88 -139 88h-5c-89 0 -138 -24 -138 -88v-6c0 -46 22 -93 95 -93h92c72 0 94 48 95 93z" />
    <glyph glyph-name="nine.numerator" horiz-adv-x="402" 
d="M71 319v16c30 -4 77 -9 119 -9c108 0 141 53 142 144v37c-51 -12 -97 -16 -132 -16c-76 0 -147 23 -147 110v25c0 84 54 128 147 128c88 0 148 -51 148 -164v-115c0 -105 -41 -165 -158 -165c-44 0 -87 4 -119 9zM332 522v68c0 113 -56 149 -132 149
c-81 0 -131 -34 -131 -113v-25c0 -79 62 -95 131 -95c35 0 80 4 132 16z" />
    <glyph glyph-name="comma.numerator" horiz-adv-x="121" 
d="M86 405l-44 -144h-16l42 144h18z" />
    <glyph glyph-name="period.numerator" horiz-adv-x="93" 
d="M57 319h-17v86h17v-86z" />
    <glyph glyph-name="cent.numerator" horiz-adv-x="333" 
d="M295 326c-42 -6 -74 -7 -98 -7v-80h-17v80c-91 5 -137 48 -137 188v62c0 132 47 179 137 184v78h17v-78c24 0 56 -1 98 -7v-16c-41 5 -76 6 -102 6c-88 0 -133 -36 -133 -167v-62c0 -137 44 -171 133 -171c26 0 61 1 102 6v-16z" />
    <glyph glyph-name="dollar.numerator" horiz-adv-x="345" 
d="M52 321v15c31 -4 77 -9 117 -9c66 0 121 23 121 94c0 55 -29 76 -102 108l-43 19c-58 26 -104 54 -104 113c0 73 70 92 123 94v75h17v-75c42 0 89 -4 110 -8v-15c-25 3 -71 7 -114 7c-58 0 -119 -12 -119 -78c0 -50 39 -75 94 -99l41 -18c76 -33 114 -60 114 -123
c0 -80 -65 -107 -126 -109v-73h-17v72c-37 1 -83 5 -112 10z" />
    <glyph glyph-name="hyphen.numerator" horiz-adv-x="264" 
d="M214 488h-162v16h162v-16z" />
    <glyph glyph-name="parenleft.numerator" horiz-adv-x="187" 
d="M144 248h-18c-38 52 -82 140 -82 259v5c0 122 46 211 85 262h19c-43 -56 -88 -142 -88 -262v-5c0 -118 42 -203 84 -259z" />
    <glyph glyph-name="parenright.numerator" horiz-adv-x="187" 
d="M140 507c0 -119 -44 -207 -82 -259h-18c42 56 84 141 84 259v5c0 120 -45 206 -88 262h19c39 -51 85 -140 85 -262v-5z" />
    <glyph glyph-name="parenleft.cap" horiz-adv-x="237" 
d="M183 0h-17c-64 93 -108 226 -108 381v5c0 155 44 286 108 380h17c-65 -98 -108 -225 -108 -380v-5c0 -155 43 -284 108 -381z" />
    <glyph glyph-name="parenright.cap" horiz-adv-x="237" 
d="M178 381c0 -155 -43 -288 -107 -381h-18c65 97 108 226 108 381v5c0 155 -43 282 -108 380h18c64 -94 107 -225 107 -380v-5z" />
    <glyph glyph-name="bracketleft.cap" horiz-adv-x="336" 
d="M268 0h-165v743h165v-16h-148v-711h148v-16z" />
    <glyph glyph-name="bracketright.cap" horiz-adv-x="336" 
d="M258 0h-165v16h148v711h-148v16h165v-743z" />
    <glyph glyph-name="braceleft.cap" horiz-adv-x="379" 
d="M319 0h-26c-122 0 -139 53 -139 131v73c0 77 -14 111 -80 158v20c66 47 80 81 80 158v72c0 78 17 131 139 131h26v-16h-26c-112 0 -123 -44 -123 -115v-72c0 -77 -18 -122 -84 -168c66 -46 84 -91 84 -168v-73c0 -72 11 -115 123 -115h26v-16z" />
    <glyph glyph-name="braceright.cap" horiz-adv-x="379" 
d="M305 362c-66 -47 -80 -81 -80 -158v-73c0 -78 -17 -131 -139 -131h-26v16h26c111 0 122 43 122 115v73c0 77 19 122 85 168c-66 46 -85 91 -85 168v72c0 71 -11 115 -122 115h-26v16h26c122 0 139 -53 139 -131v-72c0 -77 14 -111 80 -158v-20z" />
    <glyph glyph-name="exclamdown.cap" horiz-adv-x="191" 
d="M87 743h17v-111h-17v111zM104 555v-559h-17v559h17z" />
    <glyph glyph-name="questiondown.cap" horiz-adv-x="414" 
d="M247 -10c-103 0 -189 22 -189 135v3c0 74 20 113 102 191c100 95 112 124 112 199v31h17v-31c0 -75 -13 -111 -118 -210c-81 -75 -96 -109 -96 -180v-3c0 -99 71 -120 172 -120c36 0 91 5 140 13v-15c-49 -9 -104 -13 -140 -13zM289 629h-17v114h17v-114z" />
    <glyph glyph-name="guillemotleft.cap" horiz-adv-x="487" 
d="M434 194h-22l-153 207l153 207h22l-154 -207zM234 194l-154 207l154 207h-22l-153 -207l153 -207h22z" />
    <glyph glyph-name="guillemotright.cap" horiz-adv-x="487" 
d="M433 401l-154 -207h-21l153 207l-153 207h21zM79 608l154 -207l-154 -207h-21l153 207l-153 207h21z" />
    <glyph glyph-name="guilsinglleft.cap" horiz-adv-x="287" 
d="M233 194h-21l-154 207l154 207h21l-153 -207z" />
    <glyph glyph-name="guilsinglright.cap" horiz-adv-x="287" 
d="M233 401l-153 -207h-22l154 207l-154 207h22z" />
    <glyph glyph-name="hyphen.cap" horiz-adv-x="302" 
d="M244 392h-184v17h184v-17z" />
    <glyph glyph-name="endash.cap" horiz-adv-x="385" 
d="M333 290h-281v16h281v-16z" />
    <glyph glyph-name="emdash.cap" horiz-adv-x="489" 
d="M437 290h-385v16h385v-16z" />
    <glyph glyph-name="periodcentered.cap" horiz-adv-x="169" 
d="M94 338h-16v112h16v-112z" />
    <glyph glyph-name="at.cap" horiz-adv-x="800" 
d="M756 501c0 -164 -66 -329 -338 -329c-128 0 -182 44 -182 160c0 24 3 49 6 71c21 134 89 176 194 176c25 0 66 -3 112 -13l-40 -371c180 32 232 162 232 306c0 136 -85 237 -290 237c-189 0 -297 -82 -343 -228c-18 -57 -26 -127 -26 -197c0 -219 131 -300 313 -300
c50 0 103 5 145 12v-15c-44 -8 -97 -13 -148 -13c-192 0 -327 91 -327 318c0 72 8 139 27 199c46 143 155 240 359 240c217 0 306 -110 306 -253zM530 554c-23 4 -65 10 -94 10c-94 0 -158 -35 -178 -162c-3 -22 -6 -47 -6 -71c0 -104 48 -143 167 -143c36 0 52 2 71 4z" />
    <glyph glyph-name="T_h" horiz-adv-x="1021" 
d="M941 0h-16v331c0 148 -44 196 -153 196c-68 0 -141 -30 -198 -60v-467h-16v727h-248v-727h-17v727h-263v16h544v-259c53 27 122 59 198 59c127 0 169 -64 169 -212v-331z" />
    <glyph glyph-name="A.alt" horiz-adv-x="602" 
d="M20 0l263 728h-68v16h98l269 -744h-19l-106 302h-313l-106 -302h-18zM451 318l-113 312l-36 101h-2c-11 -34 -24 -67 -36 -101l-114 -312h301z" />
    <glyph glyph-name="B.alt" horiz-adv-x="595" 
d="M85 0v727h-63v16c84 0 129 9 243 9c194 0 270 -51 270 -182v-9c0 -69 -25 -150 -153 -170c127 -20 158 -102 158 -183v-19c0 -135 -79 -201 -271 -201c-88 0 -161 8 -184 12zM523 189v19c0 83 -26 175 -215 175h-207v-370c41 -5 94 -10 168 -10c179 0 254 56 254 186z
M519 561v9c0 124 -73 167 -254 167c-65 0 -118 -4 -164 -8v-330h207c189 0 211 92 211 162z" />
    <glyph glyph-name="C.alt" horiz-adv-x="535" 
d="M505 17v-16c-15 -2 -79 -13 -173 -13c-192 0 -277 116 -277 379v9c0 262 85 378 277 378c90 0 161 -10 173 -13v-96h-15v84c-32 4 -94 9 -158 9c-181 0 -261 -108 -261 -362v-9c0 -255 80 -363 261 -363c88 0 144 9 173 13z" />
    <glyph glyph-name="D.alt" horiz-adv-x="629" 
d="M85 -2v729h-63v16c102 0 126 10 248 10c205 0 304 -103 304 -371v-22c0 -268 -99 -372 -304 -372c-89 0 -132 6 -185 10zM558 360v22c0 265 -102 355 -288 355c-62 0 -120 -3 -169 -8v-715c40 -4 112 -10 169 -10c186 0 288 91 288 356z" />
    <glyph glyph-name="E.alt" horiz-adv-x="544" 
d="M489 727h-388v-327h359v-16h-359v-369h388v-15h-404v727h-63v16h467v-16z" />
    <glyph glyph-name="F.alt" horiz-adv-x="534" 
d="M85 0v727h-63v16h467v-16h-388v-327h359v-16h-359v-384h-16z" />
    <glyph glyph-name="G.alt" horiz-adv-x="589" 
d="M524 0c-71 -9 -133 -12 -181 -12c-178 0 -288 108 -288 377v12c0 277 105 377 288 377c73 0 139 -7 181 -13v-102h-15v89c-41 5 -102 10 -166 10c-174 0 -272 -94 -272 -360v-13c0 -262 105 -361 272 -361c44 0 108 2 165 8v351h-135v15h151v-378z" />
    <glyph glyph-name="H.alt" horiz-adv-x="671" 
d="M586 0h-16v393h-469v-393h-16v727h-63v16h79v-334h469v334h16v-743z" />
    <glyph glyph-name="I.alt" 
d="M169 0h-141v15h62v712h-62v16h141v-16h-62v-712h62v-15z" />
    <glyph glyph-name="J.alt" 
d="M169 727h-62v-776c0 -85 -9 -151 -112 -151c-18 0 -41 2 -59 4v14c23 -1 40 -2 59 -2c89 0 95 54 95 135v776h-62v16h141v-16z" />
    <glyph glyph-name="K.alt" horiz-adv-x="535" 
d="M520 0h-25l-389 376v-376h-16v727h-62v16h78v-361l386 361h25l-389 -364z" />
    <glyph glyph-name="M.alt" horiz-adv-x="748" 
d="M663 0h-16v652v70h-1c-14 -23 -29 -45 -43 -68l-217 -342h-24l-217 342c-14 23 -29 45 -43 68h-1v-70v-652h-16v727h-63v16h86l223 -353l42 -66h2l42 66l223 353h23v-743z" />
    <glyph glyph-name="N.alt" horiz-adv-x="664" 
d="M579 -3h-22l-417 666c-13 20 -24 39 -37 59h-1v-73v-649h-17v727h-62v16h84l423 -675c11 -17 21 -34 32 -51h1v62v664h16v-746z" />
    <glyph glyph-name="P.alt" horiz-adv-x="560" 
d="M97 0h-17v727h-62v16c96 0 136 11 237 11c186 0 255 -64 255 -202v-14c0 -136 -74 -211 -260 -211c-41 0 -94 1 -153 4v-331zM97 346c60 -3 112 -4 153 -4c170 0 244 66 244 196v14c0 132 -67 186 -239 186c-69 0 -125 -6 -158 -9v-383z" />
    <glyph glyph-name="Q.alt" horiz-adv-x="646" 
d="M591 361c0 -276 -102 -369 -259 -373v-181h-17v181c-157 4 -260 97 -260 373v21c0 282 106 372 268 372s268 -90 268 -372v-21zM575 361v21c0 281 -106 356 -252 356c-145 0 -252 -75 -252 -356v-21c0 -281 108 -357 252 -357c145 0 252 76 252 357z" />
    <glyph glyph-name="R.alt" horiz-adv-x="591" 
d="M551 0h-19l-206 330c-26 -3 -53 -3 -69 -3c-53 0 -123 1 -155 3v-330h-17v727h-62v16c105 0 144 11 234 11c180 0 258 -66 258 -203v-12c0 -122 -51 -186 -171 -207zM499 539v12c0 131 -78 187 -242 187c-44 0 -110 -6 -155 -9v-383c42 -2 103 -3 155 -3
c170 0 242 64 242 196z" />
    <glyph glyph-name="S.alt" horiz-adv-x="546" 
d="M70 1v17c30 -4 112 -14 193 -14c126 0 211 41 211 168c0 104 -57 134 -192 205l-49 26c-102 53 -178 99 -178 197c0 112 87 154 222 154c72 0 141 -6 192 -13v-97h-16v84c-37 5 -105 11 -176 11c-122 0 -206 -35 -206 -139c0 -91 70 -128 171 -183l47 -25
c136 -72 202 -108 202 -219c0 -128 -79 -185 -228 -185c-81 0 -149 6 -193 13z" />
    <glyph glyph-name="U.alt" horiz-adv-x="650" 
d="M570 339c0 -229 -59 -348 -245 -348c-187 0 -245 119 -245 348v388h-69v16h85v-404c0 -226 55 -332 229 -332c173 0 229 106 229 332v404h16v-404z" />
    <glyph glyph-name="Z.alt" horiz-adv-x="563" 
d="M533 15v-15h-503v15l467 712h-431v-84h-16v100h466v-16l-466 -712h483z" />
    <glyph glyph-name="a.alt" horiz-adv-x="503" 
d="M423 0h-16v44c-47 -25 -115 -56 -192 -56c-112 0 -160 53 -160 158v4c0 125 69 157 238 157h114v58c0 128 -32 162 -175 162c-23 0 -60 -1 -122 -6v-68h-15v81c80 8 111 9 137 9c154 0 191 -42 191 -178v-365zM407 61v231h-114c-161 0 -222 -26 -222 -142v-4
c0 -101 50 -143 146 -143c74 0 145 32 190 58z" />
    <glyph glyph-name="b.alt" horiz-adv-x="521" 
d="M466 255c0 -202 -64 -267 -223 -267c-27 0 -77 0 -158 8v758h-58v16h74v-254c56 19 116 27 151 27c149 0 214 -63 214 -266v-22zM449 255v22c0 199 -61 250 -197 250c-35 0 -97 -8 -151 -27v-490c68 -6 115 -7 142 -7c146 0 206 55 206 252z" />
    <glyph glyph-name="c.alt" horiz-adv-x="443" 
d="M398 1c-69 -11 -103 -13 -132 -13c-146 0 -211 52 -211 271v13c0 210 69 271 211 271c32 0 66 -2 132 -12v-83h-15v70c-58 8 -90 9 -117 9c-131 0 -194 -51 -194 -255v-13c0 -213 60 -256 194 -256c28 0 64 3 132 12v-14z" />
    <glyph glyph-name="d.alt" horiz-adv-x="521" 
d="M436 0h-17v38c-38 -20 -100 -50 -174 -50c-136 0 -190 75 -190 272v12c0 196 65 271 224 271c25 0 66 0 140 -8v219h-66v16h83v-770zM419 55v465c-66 6 -115 7 -140 7c-146 0 -207 -64 -207 -255v-12c0 -193 51 -256 173 -256c71 0 134 30 174 51z" />
    <glyph glyph-name="g.alt" horiz-adv-x="518" 
d="M471 -43c0 -99 -53 -169 -213 -169c-163 0 -213 70 -213 170c0 64 25 105 57 134c-34 9 -52 32 -52 69c0 29 18 60 50 79c-34 32 -45 77 -45 124c0 88 23 179 197 179h201v-16h-103c68 -23 98 -78 98 -163c0 -86 -33 -167 -196 -167c-69 0 -112 14 -141 34
c-31 -18 -45 -41 -45 -70c0 -33 18 -57 63 -57h124c169 0 218 -40 218 -147zM455 -43c0 98 -39 132 -202 132h-134c-35 -31 -58 -68 -58 -131c0 -91 43 -154 197 -154c152 0 197 63 197 153zM432 364c0 82 -21 163 -180 163c-166 0 -181 -84 -181 -163
c0 -82 26 -152 181 -152c154 0 180 70 180 152z" />
    <glyph glyph-name="h.alt" horiz-adv-x="549" 
d="M469 0h-17v331c0 148 -44 196 -152 196c-69 0 -142 -30 -198 -60v-467h-17v754h-58v16h75v-286c53 27 122 59 198 59c127 0 169 -64 169 -212v-331z" />
    <glyph glyph-name="i.alt" 
d="M107 0h-17v513h-58v16h75v-529zM107 643h-17v127h17v-127z" />
    <glyph glyph-name="j.alt" 
d="M107 -88c0 -79 -15 -124 -92 -124c-10 0 -30 0 -59 4v14c32 -3 49 -3 59 -3c62 0 75 32 75 109v601h-57v16h74v-617zM107 641h-17v129h17v-129z" />
    <glyph glyph-name="k.alt" horiz-adv-x="416" 
d="M406 0h-24l-280 278v-278h-17v754h-57v16h74v-488l278 247h26l-281 -249z" />
    <glyph glyph-name="l.alt" horiz-adv-x="187" 
d="M102 0h-17v754h-58v16h75v-770z" />
    <glyph glyph-name="m.alt" horiz-adv-x="794" 
d="M714 0h-17v359c0 103 -20 168 -121 168c-51 0 -113 -19 -180 -63c7 -21 12 -49 12 -105v-359h-17v359c0 110 -16 168 -121 168c-46 0 -103 -19 -168 -58v-469h-17v513h-58v16h75v-44c64 40 122 58 168 58c66 0 103 -23 122 -64c64 44 133 64 184 64
c118 0 138 -81 138 -184v-359z" />
    <glyph glyph-name="n.alt" horiz-adv-x="549" 
d="M469 0h-17v331c0 148 -44 196 -153 196c-68 0 -138 -28 -197 -60v-467h-17v513h-56v16h73v-45c54 29 122 59 197 59c127 0 170 -64 170 -212v-331z" />
    <glyph glyph-name="p.alt" horiz-adv-x="525" 
d="M101 -208h-16v721h-58v16h74v-42c40 21 113 56 187 56c138 0 180 -78 180 -271v-12c0 -189 -67 -272 -226 -272c-25 0 -67 1 -141 8v-204zM451 260v12c0 187 -36 255 -164 255c-70 0 -147 -35 -186 -56v-459c67 -7 116 -8 141 -8c145 0 209 72 209 256z" />
    <glyph glyph-name="r.alt" horiz-adv-x="332" 
d="M101 0h-16v513h-57v16h73v-43c89 55 185 57 221 57v-16c-36 0 -127 -2 -221 -57v-470z" />
    <glyph glyph-name="s.alt" horiz-adv-x="447" 
d="M51 6v15c39 -9 99 -18 164 -18c117 0 165 54 165 118c0 71 -39 94 -145 138l-34 14c-97 40 -156 75 -156 148c0 83 66 121 184 121c52 0 108 -7 145 -15v-75h-16v63c-30 5 -82 12 -129 12c-109 0 -167 -30 -167 -106c0 -66 51 -95 147 -134l34 -14
c106 -43 153 -75 153 -152c0 -68 -50 -133 -181 -133c-65 0 -119 7 -164 18z" />
    <glyph glyph-name="u.alt" horiz-adv-x="548" 
d="M446 529h17v-529h-17v46c-51 -28 -114 -58 -197 -58c-127 0 -169 63 -169 212v313h-58v16h74v-329c0 -149 45 -197 153 -197c76 0 143 30 197 61v465z" />
    <glyph glyph-name="y.alt" horiz-adv-x="548" 
d="M463 1c0 -161 -54 -213 -203 -213c-56 0 -95 3 -164 10v15c53 -5 114 -10 164 -10c138 0 187 42 187 198v25c-35 -14 -96 -38 -165 -38c-144 0 -202 74 -202 242v299h16v-299c0 -164 56 -227 185 -227c68 0 125 23 166 39v487h16v-528z" />
    <glyph glyph-name="z.alt" horiz-adv-x="462" 
d="M412 15v-15h-367v15l345 498h-317v-61h-16v77h354v-15l-346 -499h347z" />
    <glyph glyph-name="a.alt2" horiz-adv-x="520" 
d="M435 0h-16v38c-39 -20 -101 -50 -175 -50c-136 0 -190 108 -190 270v16c0 195 65 269 217 269c38 0 88 -1 164 -10v-533zM419 54v466c-67 6 -116 7 -148 7c-138 0 -200 -65 -200 -253v-16c0 -158 51 -255 174 -255c70 0 133 30 174 51z" />
    <glyph glyph-name="u.alt2" horiz-adv-x="542" 
d="M463 275c0 -194 -44 -287 -192 -287c-149 0 -192 93 -192 287v254h17v-254c0 -191 41 -272 175 -272s175 81 175 272v254h17v-254z" />
    <glyph glyph-name="Aacute.alt" horiz-adv-x="602" 
d="M431 943l-142 -154h-20l141 154h21zM20 0l263 728h-68v16h98l269 -744h-19l-106 302h-313l-106 -302h-18zM451 318l-113 312l-36 101h-2c-11 -34 -24 -67 -36 -101l-114 -312h301z" />
    <glyph glyph-name="Acircumflex.alt" horiz-adv-x="602" 
d="M451 789h-21l-130 139l-130 -139h-21l144 154h14zM20 0l263 728h-68v16h98l269 -744h-19l-106 302h-313l-106 -302h-18zM451 318l-113 312l-36 101h-2c-11 -34 -24 -67 -36 -101l-114 -312h301z" />
    <glyph glyph-name="Adieresis.alt" horiz-adv-x="602" 
d="M424 808h-17v121h17v-121zM193 929v-121h-17v121h17zM20 0l263 728h-68v16h98l269 -744h-19l-106 302h-313l-106 -302h-18zM451 318l-113 312l-36 101h-2c-11 -34 -24 -67 -36 -101l-114 -312h301z" />
    <glyph glyph-name="Agrave.alt" horiz-adv-x="602" 
d="M350 789h-21l-142 154h21zM20 0l263 728h-68v16h98l269 -744h-19l-106 302h-313l-106 -302h-18zM451 318l-113 312l-36 101h-2c-11 -34 -24 -67 -36 -101l-114 -312h301z" />
    <glyph glyph-name="Aring.alt" horiz-adv-x="602" 
d="M412 895c0 -71 -47 -106 -111 -106s-112 35 -112 106c0 70 48 105 112 105s111 -35 111 -105zM396 895c0 69 -47 90 -95 90c-49 0 -96 -21 -96 -90c0 -70 47 -91 96 -91c48 0 95 21 95 91zM20 0l263 728h-68v16h98l269 -744h-19l-106 302h-313l-106 -302h-18zM451 318
l-113 312l-36 101h-2c-11 -34 -24 -67 -36 -101l-114 -312h301z" />
    <glyph glyph-name="Atilde.alt" horiz-adv-x="602" 
d="M473 912c0 -77 -15 -123 -74 -123c-35 0 -54 15 -84 50l-42 49c-29 33 -43 45 -72 45c-54 0 -58 -50 -58 -108v-34h-16v34c0 77 15 123 74 123c35 0 52 -15 82 -49l43 -49c30 -34 43 -46 73 -46c53 0 58 50 58 108v33h16v-33zM20 0l263 728h-68v16h98l269 -744h-19
l-106 302h-313l-106 -302h-18zM451 318l-113 312l-36 101h-2c-11 -34 -24 -67 -36 -101l-114 -312h301z" />
    <glyph glyph-name="Ccedilla.alt" horiz-adv-x="535" 
d="M353 -68l-131 -140h-21l131 140h21zM505 17v-16c-15 -2 -79 -13 -173 -13c-192 0 -277 116 -277 379v9c0 262 85 378 277 378c90 0 161 -10 173 -13v-96h-15v84c-32 4 -94 9 -158 9c-181 0 -261 -108 -261 -362v-9c0 -255 80 -363 261 -363c88 0 144 9 173 13z" />
    <glyph glyph-name="Eacute.alt" horiz-adv-x="544" 
d="M407 943l-142 -154h-20l141 154h21zM489 727h-388v-327h359v-16h-359v-369h388v-15h-404v727h-63v16h467v-16z" />
    <glyph glyph-name="Ecircumflex.alt" horiz-adv-x="544" 
d="M426 789h-21l-130 139l-130 -139h-21l144 154h14zM489 727h-388v-327h359v-16h-359v-369h388v-15h-404v727h-63v16h467v-16z" />
    <glyph glyph-name="Edieresis.alt" horiz-adv-x="544" 
d="M389 809h-17v121h17v-121zM158 930v-121h-17v121h17zM489 727h-388v-327h359v-16h-359v-369h388v-15h-404v727h-63v16h467v-16z" />
    <glyph glyph-name="Egrave.alt" horiz-adv-x="544" 
d="M307 789h-21l-142 154h21zM489 727h-388v-327h359v-16h-359v-369h388v-15h-404v727h-63v16h467v-16z" />
    <glyph glyph-name="Eth.alt" horiz-adv-x="629" 
d="M574 360c0 -268 -99 -372 -304 -372c-89 0 -132 6 -185 10v383h-66v16h66v330h-63v16c102 0 126 10 248 10c205 0 304 -103 304 -371v-22zM101 381v-367c40 -4 112 -10 169 -10c186 0 288 91 288 356v22c0 265 -102 355 -288 355c-62 0 -120 -3 -169 -8v-332h197v-16
h-197z" />
    <glyph glyph-name="Iacute.alt" 
d="M208 943l-142 -154h-20l141 154h21zM169 0h-141v15h62v712h-62v16h141v-16h-62v-712h62v-15z" />
    <glyph glyph-name="Icircumflex.alt" 
d="M250 789h-21l-130 139l-130 -139h-21l144 154h14zM169 0h-141v15h62v712h-62v16h141v-16h-62v-712h62v-15z" />
    <glyph glyph-name="Idieresis.alt" 
d="M221 809h-17v121h17v-121zM-10 930v-121h-17v121h17zM169 0h-141v15h62v712h-62v16h141v-16h-62v-712h62v-15z" />
    <glyph glyph-name="Igrave.alt" 
d="M157 789h-21l-142 154h21zM169 0h-141v15h62v712h-62v16h141v-16h-62v-712h62v-15z" />
    <glyph glyph-name="Ntilde.alt" horiz-adv-x="664" 
d="M504 910c0 -77 -15 -123 -74 -123c-35 0 -54 15 -84 50l-42 49c-29 33 -43 45 -72 45c-54 0 -58 -50 -58 -108v-34h-16v34c0 77 15 123 74 123c35 0 52 -15 82 -49l43 -49c30 -34 43 -46 73 -46c53 0 58 50 58 108v33h16v-33zM579 -3h-22l-417 666c-13 20 -24 39 -37 59
h-1v-73v-649h-17v727h-62v16h84l423 -675c11 -17 21 -34 32 -51h1v62v664h16v-746z" />
    <glyph glyph-name="Scaron.alt" horiz-adv-x="546" 
d="M126 943h21l130 -139l130 139h21l-144 -154h-14zM263 -12c-81 0 -149 6 -193 13v17c30 -4 112 -14 193 -14c126 0 211 41 211 168c0 104 -57 134 -192 205l-49 26c-102 53 -178 99 -178 197c0 112 87 154 222 154c72 0 141 -6 192 -13v-97h-16v84c-37 5 -105 11 -176 11
c-122 0 -206 -35 -206 -139c0 -91 70 -128 171 -183l47 -25c136 -72 202 -108 202 -219c0 -128 -79 -185 -228 -185z" />
    <glyph glyph-name="Uacute.alt" horiz-adv-x="650" 
d="M449 943l-142 -154h-20l141 154h21zM570 339c0 -229 -59 -348 -245 -348c-187 0 -245 119 -245 348v388h-69v16h85v-404c0 -226 55 -332 229 -332c173 0 229 106 229 332v404h16v-404z" />
    <glyph glyph-name="Ucircumflex.alt" horiz-adv-x="650" 
d="M471 789h-21l-130 139l-130 -139h-21l144 154h14zM570 339c0 -229 -59 -348 -245 -348c-187 0 -245 119 -245 348v388h-69v16h85v-404c0 -226 55 -332 229 -332c173 0 229 106 229 332v404h16v-404z" />
    <glyph glyph-name="Udieresis.alt" horiz-adv-x="650" 
d="M447 809h-17v121h17v-121zM216 930v-121h-17v121h17zM570 339c0 -229 -59 -348 -245 -348c-187 0 -245 119 -245 348v388h-69v16h85v-404c0 -226 55 -332 229 -332c173 0 229 106 229 332v404h16v-404z" />
    <glyph glyph-name="Ugrave.alt" horiz-adv-x="650" 
d="M361 789h-21l-142 154h21zM570 339c0 -229 -59 -348 -245 -348c-187 0 -245 119 -245 348v388h-69v16h85v-404c0 -226 55 -332 229 -332c173 0 229 106 229 332v404h16v-404z" />
    <glyph glyph-name="Zcaron.alt" horiz-adv-x="563" 
d="M140 943h21l130 -139l130 139h21l-144 -154h-14zM533 15v-15h-503v15l467 712h-431v-84h-16v100h466v-16l-466 -712h483z" />
    <glyph glyph-name="aacute.alt" horiz-adv-x="503" 
d="M377 770l-142 -154h-20l141 154h21zM423 0h-16v44c-47 -25 -115 -56 -192 -56c-112 0 -160 53 -160 158v4c0 125 69 157 238 157h114v58c0 128 -32 162 -175 162c-23 0 -60 -1 -122 -6v-68h-15v81c80 8 111 9 137 9c154 0 191 -42 191 -178v-365zM407 61v231h-114
c-161 0 -222 -26 -222 -142v-4c0 -101 50 -143 146 -143c74 0 145 32 190 58z" />
    <glyph glyph-name="acircumflex.alt" horiz-adv-x="503" 
d="M414 616h-21l-130 139l-130 -139h-21l144 154h14zM423 0h-16v44c-47 -25 -115 -56 -192 -56c-112 0 -160 53 -160 158v4c0 125 69 157 238 157h114v58c0 128 -32 162 -175 162c-23 0 -60 -1 -122 -6v-68h-15v81c80 8 111 9 137 9c154 0 191 -42 191 -178v-365zM407 61
v231h-114c-161 0 -222 -26 -222 -142v-4c0 -101 50 -143 146 -143c74 0 145 32 190 58z" />
    <glyph glyph-name="adieresis.alt" horiz-adv-x="503" 
d="M379 639h-17v121h17v-121zM148 760v-121h-17v121h17zM423 0h-16v44c-47 -25 -115 -56 -192 -56c-112 0 -160 53 -160 158v4c0 125 69 157 238 157h114v58c0 128 -32 162 -175 162c-23 0 -60 -1 -122 -6v-68h-15v81c80 8 111 9 137 9c154 0 191 -42 191 -178v-365zM407 61
v231h-114c-161 0 -222 -26 -222 -142v-4c0 -101 50 -143 146 -143c74 0 145 32 190 58z" />
    <glyph glyph-name="agrave.alt" horiz-adv-x="503" 
d="M297 616h-21l-142 154h21zM423 0h-16v44c-47 -25 -115 -56 -192 -56c-112 0 -160 53 -160 158v4c0 125 69 157 238 157h114v58c0 128 -32 162 -175 162c-23 0 -60 -1 -122 -6v-68h-15v81c80 8 111 9 137 9c154 0 191 -42 191 -178v-365zM407 61v231h-114
c-161 0 -222 -26 -222 -142v-4c0 -101 50 -143 146 -143c74 0 145 32 190 58z" />
    <glyph glyph-name="ampersand.alt" horiz-adv-x="663" 
d="M590 0h-15l-81 80c-46 -58 -117 -92 -222 -92c-110 0 -224 39 -224 182v4c1 109 73 159 155 199l-10 10c-75 75 -116 126 -116 214v4c0 113 78 153 197 153c120 0 198 -40 198 -153v-4c0 -121 -116 -170 -244 -228l265 -265c49 72 65 177 65 299v7h15v-7
c0 -124 -17 -234 -70 -310l87 -86v-7zM483 91l-269 271c-81 -39 -149 -86 -150 -188v-4c0 -124 97 -167 208 -167c100 0 167 33 211 88zM456 597v4c0 111 -83 138 -182 138s-181 -27 -181 -138v-4c0 -88 38 -131 115 -208l9 -9c130 58 239 104 239 217z" />
    <glyph glyph-name="aring.alt" horiz-adv-x="503" 
d="M374 703c0 -71 -47 -106 -111 -106s-112 35 -112 106c0 70 48 105 112 105s111 -35 111 -105zM358 703c0 69 -47 90 -95 90c-49 0 -96 -21 -96 -90c0 -70 47 -91 96 -91c48 0 95 21 95 91zM423 0h-16v44c-47 -25 -115 -56 -192 -56c-112 0 -160 53 -160 158v4
c0 125 69 157 238 157h114v58c0 128 -32 162 -175 162c-23 0 -60 -1 -122 -6v-68h-15v81c80 8 111 9 137 9c154 0 191 -42 191 -178v-365zM407 61v231h-114c-161 0 -222 -26 -222 -142v-4c0 -101 50 -143 146 -143c74 0 145 32 190 58z" />
    <glyph glyph-name="atilde.alt" horiz-adv-x="503" 
d="M431 740c0 -77 -15 -123 -74 -123c-35 0 -54 15 -84 50l-42 49c-29 33 -43 45 -72 45c-54 0 -58 -50 -58 -108v-34h-16v34c0 77 15 123 74 123c35 0 52 -15 82 -49l43 -49c30 -34 43 -46 73 -46c53 0 58 50 58 108v33h16v-33zM423 0h-16v44c-47 -25 -115 -56 -192 -56
c-112 0 -160 53 -160 158v4c0 125 69 157 238 157h114v58c0 128 -32 162 -175 162c-23 0 -60 -1 -122 -6v-68h-15v81c80 8 111 9 137 9c154 0 191 -42 191 -178v-365zM407 61v231h-114c-161 0 -222 -26 -222 -142v-4c0 -101 50 -143 146 -143c74 0 145 32 190 58z" />
    <glyph glyph-name="ccedilla.alt" horiz-adv-x="443" 
d="M280 -68l-131 -140h-21l131 140h21zM398 1c-69 -11 -103 -13 -132 -13c-146 0 -211 52 -211 271v13c0 210 69 271 211 271c32 0 66 -2 132 -12v-83h-15v70c-58 8 -90 9 -117 9c-131 0 -194 -51 -194 -255v-13c0 -213 60 -256 194 -256c28 0 64 3 132 12v-14z" />
    <glyph glyph-name="dotlessi.alt" 
d="M107 0h-17v513h-58v16h75v-529z" />
    <glyph glyph-name="iacute.alt" 
d="M107 0h-17v513h-58v16h75v-529zM213 770l-142 -154h-20l141 154h21z" />
    <glyph glyph-name="icircumflex.alt" 
d="M107 0h-17v513h-58v16h75v-529zM249 616h-21l-130 139l-130 -139h-21l144 154h14z" />
    <glyph glyph-name="idieresis.alt" 
d="M107 0h-17v513h-58v16h75v-529zM222 639h-17v121h17v-121zM-9 760v-121h-17v121h17z" />
    <glyph glyph-name="igrave.alt" 
d="M107 0h-17v513h-58v16h75v-529zM134 616h-21l-142 154h21z" />
    <glyph glyph-name="lslash.alt" horiz-adv-x="187" 
d="M191 495l-88 -86v-409h-17v392l-90 -87v23l90 87v339h-58v16h75v-338l88 86v-23z" />
    <glyph glyph-name="ntilde.alt" horiz-adv-x="549" 
d="M446 740c0 -77 -15 -123 -74 -123c-35 0 -54 15 -84 50l-42 49c-29 33 -43 45 -72 45c-54 0 -58 -50 -58 -108v-34h-16v34c0 77 15 123 74 123c35 0 52 -15 82 -49l43 -49c30 -34 43 -46 73 -46c53 0 58 50 58 108v33h16v-33zM469 0h-17v331c0 148 -44 196 -153 196
c-68 0 -138 -28 -197 -60v-467h-17v513h-56v16h73v-45c54 29 122 59 197 59c127 0 170 -64 170 -212v-331z" />
    <glyph glyph-name="scaron.alt" horiz-adv-x="447" 
d="M61 770h21l130 -139l130 139h21l-144 -154h-14zM51 6v15c39 -9 99 -18 164 -18c117 0 165 54 165 118c0 71 -39 94 -145 138l-34 14c-97 40 -156 75 -156 148c0 83 66 121 184 121c52 0 108 -7 145 -15v-75h-16v63c-30 5 -82 12 -129 12c-109 0 -167 -30 -167 -106
c0 -66 51 -95 147 -134l34 -14c106 -43 153 -75 153 -152c0 -68 -50 -133 -181 -133c-65 0 -119 7 -164 18z" />
    <glyph glyph-name="uacute.alt" horiz-adv-x="548" 
d="M400 770l-142 -154h-20l141 154h21zM446 529h17v-529h-17v46c-51 -28 -114 -58 -197 -58c-127 0 -169 63 -169 212v313h-58v16h74v-329c0 -149 45 -197 153 -197c76 0 143 30 197 61v465z" />
    <glyph glyph-name="ucircumflex.alt" horiz-adv-x="548" 
d="M423 616h-21l-130 139l-130 -139h-21l144 154h14zM446 529h17v-529h-17v46c-51 -28 -114 -58 -197 -58c-127 0 -169 63 -169 212v313h-58v16h74v-329c0 -149 45 -197 153 -197c76 0 143 30 197 61v465z" />
    <glyph glyph-name="udieresis.alt" horiz-adv-x="548" 
d="M393 639h-17v121h17v-121zM162 760v-121h-17v121h17zM446 529h17v-529h-17v46c-51 -28 -114 -58 -197 -58c-127 0 -169 63 -169 212v313h-58v16h74v-329c0 -149 45 -197 153 -197c76 0 143 30 197 61v465z" />
    <glyph glyph-name="ugrave.alt" horiz-adv-x="548" 
d="M306 616h-21l-142 154h21zM446 529h17v-529h-17v46c-51 -28 -114 -58 -197 -58c-127 0 -169 63 -169 212v313h-58v16h74v-329c0 -149 45 -197 153 -197c76 0 143 30 197 61v465z" />
    <glyph glyph-name="yacute.alt" horiz-adv-x="548" 
d="M463 1c0 -161 -54 -213 -203 -213c-56 0 -95 3 -164 10v15c53 -5 114 -10 164 -10c138 0 187 42 187 198v25c-35 -14 -96 -38 -165 -38c-144 0 -202 74 -202 242v299h16v-299c0 -164 56 -227 185 -227c68 0 125 23 166 39v487h16v-528zM406 770l-142 -154h-20l141 154h21
z" />
    <glyph glyph-name="ydieresis.alt" horiz-adv-x="548" 
d="M463 1c0 -161 -54 -213 -203 -213c-56 0 -95 3 -164 10v15c53 -5 114 -10 164 -10c138 0 187 42 187 198v25c-35 -14 -96 -38 -165 -38c-144 0 -202 74 -202 242v299h16v-299c0 -164 56 -227 185 -227c68 0 125 23 166 39v487h16v-528zM398 639h-17v121h17v-121zM167 760
v-121h-17v121h17z" />
    <glyph glyph-name="zcaron.alt" horiz-adv-x="462" 
d="M81 770h21l130 -139l130 139h21l-144 -154h-14zM412 15v-15h-367v15l345 498h-317v-61h-16v77h354v-15l-346 -499h347z" />
    <glyph glyph-name="two.alt" horiz-adv-x="572" 
d="M499 16v-16h-429v29c0 201 53 247 232 347c151 84 187 123 187 218c0 103 -74 144 -227 144c-54 0 -132 -9 -169 -15v-95h-15v109c21 4 114 17 184 17c168 0 244 -52 244 -160c0 -98 -37 -144 -195 -231c-176 -98 -224 -141 -224 -334v-13h412z" />
    <glyph glyph-name="three.alt" horiz-adv-x="557" 
d="M490 187c0 -120 -59 -199 -242 -199c-96 0 -142 6 -182 10v15c40 -3 96 -10 182 -10c175 0 226 72 226 184v35c0 67 -15 160 -160 160h-228v16h228c143 0 160 83 160 159v16c0 110 -51 165 -226 165c-55 0 -131 -4 -167 -8v-95h-15v108c28 5 116 11 182 11
c183 0 243 -63 243 -181v-16c0 -78 -21 -149 -121 -168c105 -20 120 -99 120 -167v-35z" />
    <glyph glyph-name="five.alt" horiz-adv-x="572" 
d="M506 204c0 -136 -54 -214 -244 -214c-86 0 -167 10 -196 16v15c40 -6 122 -15 196 -15c184 0 227 72 227 198v22c0 151 -94 184 -249 184h-156l31 333h358v-109h-16v93h-326l-28 -301h137c165 0 266 -41 266 -200v-22z" />
    <glyph glyph-name="six.alt" horiz-adv-x="615" 
d="M549 220c0 -159 -96 -232 -241 -232c-147 0 -242 86 -242 301v190c0 175 56 275 258 275c73 0 172 -11 199 -17v-103h-16v91c-40 5 -123 14 -183 14c-188 0 -241 -93 -241 -255v-72c80 21 165 31 227 31c116 0 239 -38 239 -197v-26zM532 220v26c0 151 -114 181 -222 181
c-63 0 -147 -8 -227 -30v-111c0 -205 93 -282 225 -282c137 0 224 66 224 216z" />
    <glyph glyph-name="seven.alt" horiz-adv-x="535" 
d="M494 727l-337 -727h-18l337 727h-402v-93h-16v109h436v-16z" />
    <glyph glyph-name="dotlessj" 
d="M107 -88c0 -79 -15 -124 -92 -124c-10 0 -30 0 -59 4v14c32 -3 49 -3 59 -3c62 0 75 32 75 109v617h17v-617z" />
    <glyph glyph-name="zero.tab" horiz-adv-x="613" 
d="M543 340c0 -263 -95 -352 -237 -352c-143 0 -237 89 -237 352v62c0 263 94 352 237 352c142 0 237 -89 237 -352v-62zM526 340v62c0 258 -94 336 -220 336c-127 0 -220 -78 -220 -336v-62c0 -258 93 -337 220 -337c126 0 220 79 220 337z" />
    <glyph glyph-name="one.tab" horiz-adv-x="613" 
d="M523 0h-434v16h209v712l-208 -53v17l208 54h17v-730h208v-16z" />
    <glyph glyph-name="two.tab" horiz-adv-x="613" 
d="M517 0h-429v29c0 201 53 247 232 347c151 84 187 123 187 218c0 103 -74 144 -227 144c-62 0 -148 -10 -184 -17v16c21 4 108 17 184 17c168 0 244 -52 244 -160c0 -98 -37 -144 -195 -231c-176 -98 -224 -141 -224 -334v-13h412v-16z" />
    <glyph glyph-name="three.tab" horiz-adv-x="613" 
d="M517 187c0 -120 -59 -199 -242 -199c-66 0 -154 6 -182 10v15c36 -4 116 -10 182 -10c175 0 226 72 226 184v35c0 67 -15 160 -160 160h-228v16h228c143 0 160 83 160 159v16c0 110 -51 165 -226 165c-66 0 -148 -6 -182 -10v15c28 5 116 11 182 11
c183 0 243 -63 243 -181v-16c0 -78 -21 -149 -121 -168c105 -20 120 -99 120 -167v-35z" />
    <glyph glyph-name="four.tab" horiz-adv-x="613" 
d="M568 228h-131v-228h-16v228h-377v16l372 502h21v-502h131v-16zM421 244v483l-357 -483h357z" />
    <glyph glyph-name="five.tab" horiz-adv-x="613" 
d="M526 204c0 -136 -54 -214 -244 -214c-86 0 -167 10 -196 16v15c40 -6 110 -15 196 -15c184 0 227 72 227 198v22c0 151 -94 184 -249 184h-156l31 333h358v-16h-342l-28 -301h137c165 0 266 -41 266 -200v-22z" />
    <glyph glyph-name="seven.tab" horiz-adv-x="613" 
d="M524 727l-337 -727h-18l337 727h-418v16h436v-16z" />
    <glyph glyph-name="six.tab" horiz-adv-x="613" 
d="M549 220c0 -159 -96 -232 -241 -232c-147 0 -242 86 -242 301v190c0 175 56 275 258 275c73 0 172 -11 199 -17v-14c-39 6 -126 16 -199 16c-188 0 -241 -93 -241 -255v-72c80 21 165 31 227 31c116 0 239 -38 239 -197v-26zM532 220v26c0 151 -114 181 -222 181
c-63 0 -147 -8 -227 -30v-111c0 -205 93 -282 225 -282c137 0 224 66 224 216z" />
    <glyph glyph-name="eight.tab" horiz-adv-x="613" 
d="M552 205c0 -151 -63 -217 -242 -217h-8c-180 0 -242 68 -242 219v7c0 93 30 159 118 175c-89 17 -116 89 -116 169v8c0 127 61 187 240 187h7c179 0 241 -60 241 -187v-8c0 -82 -28 -152 -117 -169c88 -16 119 -80 119 -173v-11zM535 205v11c0 88 -28 165 -149 165h-160
c-122 0 -150 -79 -150 -167v-7c0 -148 64 -204 226 -204h8c161 0 225 54 225 202zM533 558v8c0 122 -62 172 -224 172h-7c-162 0 -224 -50 -224 -172v-8c0 -77 26 -161 148 -161h160c121 0 147 82 147 161z" />
    <glyph glyph-name="nine.tab" horiz-adv-x="613" 
d="M549 262c0 -175 -56 -275 -259 -275c-73 0 -171 12 -198 17v15c39 -5 127 -16 198 -16c189 0 242 93 242 254v73c-80 -22 -165 -31 -228 -31c-116 0 -238 37 -238 197v26c0 158 96 232 241 232c146 0 242 -86 242 -301v-191zM532 345v111c0 204 -93 282 -226 282
c-136 0 -224 -66 -224 -216v-27c0 -151 114 -180 222 -180c63 0 147 8 228 30z" />
    <glyph glyph-name="uni2215" unicode="&#x2215;" horiz-adv-x="346" 
d="M417 743l-474 -743h-20l474 743h20z" />
    <glyph glyph-name="dieresisacute" horiz-adv-x="441" 
d="M64 639h-17v121h17v-121zM152 616l141 154h21l-142 -154h-20zM410 639h-17v121h17v-121z" />
    <glyph glyph-name="middot" horiz-adv-x="227" 
d="M124 301h-17v136h17v-136z" />
    <glyph glyph-name="dieresisgrave" horiz-adv-x="441" 
d="M410 639h-17v121h17v-121zM164 770l141 -154h-20l-142 154h21zM64 639h-17v121h17v-121z" />
    <glyph glyph-name="threequartersemdash" horiz-adv-x="730" 
d="M687 282h-610v16h610v-16z" />
    <glyph glyph-name="overscore" horiz-adv-x="577" 
d="M581 833h-585v16h585v-16z" />
    <glyph glyph-name="franc.taboldstyle" horiz-adv-x="461" 
d="M134 0h-16v152h-45v15h45v362h289v-16h-273v-225h253v-16h-253v-105h134v-15h-134v-152z" />
    <glyph glyph-name="lira.taboldstyle" horiz-adv-x="458" 
d="M413 533v-15c-36 5 -85 8 -126 8c-119 0 -157 -45 -157 -188v-27h229v-15h-229v-90h229v-15h-229v-32c0 -68 -8 -101 -43 -143h326v-16h-346v16c43 48 46 77 46 143v32h-71v15h71v90h-71v15h71v27c1 147 41 204 174 204c44 0 91 -3 126 -9z" />
    <glyph glyph-name="currency.taboldstyle" horiz-adv-x="572" 
d="M501 176l-11 -12l-73 73c-37 -34 -84 -51 -130 -51c-47 0 -95 17 -132 52l-73 -74l-12 12l74 73c-34 37 -50 83 -50 130s17 94 50 130l-73 74l11 12l74 -74c36 34 83 50 130 50c46 0 93 -16 130 -50l73 74l12 -12l-74 -73c34 -37 51 -84 51 -131s-16 -94 -50 -130z
M462 379c0 94 -78 176 -176 176c-93 0 -176 -77 -176 -176c0 -93 78 -176 176 -176c96 0 172 79 176 176z" />
    <glyph glyph-name="peseta.taboldstyle" horiz-adv-x="472" 
d="M99 0h-18v380h-48v15h48v134c40 3 76 5 126 5c133 0 184 -42 186 -139h48v-15h-48c-2 -96 -54 -149 -186 -149c-22 0 -63 1 -108 3v-234zM377 383v9c0 93 -48 127 -170 127c-39 0 -73 -1 -108 -4v-266c49 -2 86 -3 108 -3c125 0 170 45 170 137z" />
    <glyph glyph-name="undercommaaccent" horiz-adv-x="422" 
d="M228 -68l-107 -140h-21l107 140h21z" />
    <glyph glyph-name="DieresisAcute" horiz-adv-x="441" 
d="M64 809h-17v121h17v-121zM152 786l141 154h21l-142 -154h-20zM410 809h-17v121h17v-121z" />
    <glyph glyph-name="DieresisGrave" horiz-adv-x="452" 
d="M410 809h-17v121h17v-121zM305 786h-20l-142 154h21zM64 809h-17v121h17v-121z" />
    <glyph glyph-name="cyrBreve" horiz-adv-x="421" 
d="M361 775c-9 -89 -39 -159 -149 -159c-111 0 -141 70 -150 159h17c6 -75 28 -144 133 -144c104 0 126 69 132 144h17z" />
    <glyph glyph-name="cyrFlex" horiz-adv-x="408" 
d="M361 616h-17c-6 87 -39 138 -132 138s-127 -51 -133 -138h-17c9 102 53 153 150 153c96 0 140 -51 149 -153z" />
    <glyph glyph-name="dblGrave" horiz-adv-x="402" 
d="M336 616h-20l-142 154h21zM-15 770l141 -154h-20l-142 154h21z" />
    <glyph glyph-name="cyrbreve" horiz-adv-x="421" 
d="M361 775c-9 -89 -39 -159 -149 -159c-111 0 -141 70 -150 159h17c6 -75 28 -144 133 -144c104 0 126 69 132 144h17z" />
    <glyph glyph-name="cyrflex" horiz-adv-x="408" 
d="M360 616h-16c-6 87 -40 138 -133 138s-126 -51 -132 -138h-17c8 102 53 153 149 153c97 0 141 -51 149 -153z" />
    <glyph glyph-name="dblgrave" horiz-adv-x="402" 
d="M336 616h-20l-142 154h21zM-15 770l141 -154h-20l-142 154h21z" />
    <glyph glyph-name="T_h.caron" horiz-adv-x="1021" 
d="M311 789h-14l-144 154h21l130 -139l130 139h21zM941 0h-16v331c0 148 -44 196 -153 196c-68 0 -141 -30 -198 -60v-467h-16v727h-248v-727h-17v727h-263v16h544v-259c53 27 122 59 198 59c127 0 169 -64 169 -212v-331z" />
    <glyph glyph-name="T_h.commaaccent" horiz-adv-x="1021" 
d="M314 -68l-107 -140h-21l107 140h21zM941 0h-16v331c0 148 -44 196 -153 196c-68 0 -141 -30 -198 -60v-467h-16v727h-248v-727h-17v727h-263v16h544v-259c53 27 122 59 198 59c127 0 169 -64 169 -212v-331z" />
    <glyph glyph-name="i.dot" 
d="M107 0h-17v529h17v-529zM107 643h-17v127h17v-127z" />
    <glyph glyph-name="Amacron.alt" horiz-adv-x="602" 
d="M472 851h-343v16h343v-16zM20 0l263 728h-68v16h98l269 -744h-19l-106 302h-313l-106 -302h-18zM451 318l-113 312l-36 101h-2c-11 -34 -24 -67 -36 -101l-114 -312h301z" />
    <glyph glyph-name="Abreve.alt" horiz-adv-x="602" 
d="M448 948c-8 -89 -38 -159 -148 -159c-111 0 -140 70 -148 159h15c6 -76 28 -144 133 -144c104 0 126 68 132 144h16zM20 0l263 728h-68v16h98l269 -744h-19l-106 302h-313l-106 -302h-18zM451 318l-113 312l-36 101h-2c-11 -34 -24 -67 -36 -101l-114 -312h301z" />
    <glyph glyph-name="Aringacute.alt" horiz-adv-x="602" 
d="M582 0h-19l-106 302h-313l-106 -302h-18l263 728h-68v16h98zM451 318l-113 312c-12 34 -24 67 -36 101h-2c-11 -34 -24 -67 -36 -101l-114 -312h301zM413 880c0 -71 -47 -106 -111 -106s-112 35 -112 106c0 70 48 105 112 105s111 -35 111 -105zM397 880
c0 69 -47 90 -95 90c-49 0 -96 -21 -96 -90c0 -70 47 -91 96 -91c48 0 95 21 95 91zM439 1158l-142 -154h-20l141 154h21z" />
    <glyph glyph-name="Aogonek.alt" horiz-adv-x="602" 
d="M20 0l263 728h-68v16h98l269 -744c-99 -39 -177 -71 -177 -133c0 -45 26 -69 94 -69c33 0 68 5 83 8v-14c-14 -4 -50 -9 -83 -9c-84 0 -111 35 -111 84c0 65 87 106 174 138l-105 297h-313l-107 -302h-17zM451 318l-113 312c-12 34 -24 67 -36 101h-2
c-11 -34 -24 -67 -36 -101l-114 -312h301z" />
    <glyph glyph-name="AE.alt" horiz-adv-x="898" 
d="M843 0h-404v302h-295l-107 -302h-17l262 727h-85v16h646v-16h-388v-327h359v-16h-359v-369h388v-15zM439 318v409h-141c-11 -34 -23 -65 -35 -98l-113 -311h289z" />
    <glyph glyph-name="AEacute.alt" horiz-adv-x="898" 
d="M843 0h-404v302h-295l-107 -302h-17l262 727h-85v16h646v-16h-388v-327h359v-16h-359v-369h388v-15zM439 318v409h-141c-11 -34 -23 -65 -35 -98l-113 -311h289zM670 963l-142 -154h-20l141 154h21z" />
    <glyph glyph-name="Cacute.alt" horiz-adv-x="535" 
d="M458 943l-142 -154h-20l141 154h21zM505 17v-16c-15 -2 -79 -13 -173 -13c-192 0 -277 116 -277 379v9c0 262 85 378 277 378c90 0 161 -10 173 -13v-96h-15v84c-32 4 -94 9 -158 9c-181 0 -261 -108 -261 -362v-9c0 -255 80 -363 261 -363c88 0 144 9 173 13z" />
    <glyph glyph-name="Ccircumflex.alt" horiz-adv-x="535" 
d="M453 789h-21l-130 139l-130 -139h-21l144 154h14zM505 17v-16c-15 -2 -79 -13 -173 -13c-192 0 -277 116 -277 379v9c0 262 85 378 277 378c90 0 161 -10 173 -13v-96h-15v84c-32 4 -94 9 -158 9c-181 0 -261 -108 -261 -362v-9c0 -255 80 -363 261 -363
c88 0 144 9 173 13z" />
    <glyph glyph-name="Ccaron.alt" horiz-adv-x="535" 
d="M159 943h21l130 -139l130 139h21l-144 -154h-14zM505 17v-16c-15 -2 -79 -13 -173 -13c-192 0 -277 116 -277 379v9c0 262 85 378 277 378c90 0 161 -10 173 -13v-96h-15v84c-32 4 -94 9 -158 9c-181 0 -261 -108 -261 -362v-9c0 -255 80 -363 261 -363
c88 0 144 9 173 13z" />
    <glyph glyph-name="Cdotaccent.alt" horiz-adv-x="535" 
d="M318 809h-16v122h16v-122zM505 17v-16c-15 -2 -79 -13 -173 -13c-192 0 -277 116 -277 379v9c0 262 85 378 277 378c90 0 161 -10 173 -13v-96h-15v84c-32 4 -94 9 -158 9c-181 0 -261 -108 -261 -362v-9c0 -255 80 -363 261 -363c88 0 144 9 173 13z" />
    <glyph glyph-name="Dcaron.alt" horiz-adv-x="629" 
d="M134 943h21l130 -139l130 139h21l-144 -154h-14zM85 -2v729h-63v16c102 0 126 10 248 10c205 0 304 -103 304 -371v-22c0 -268 -99 -372 -304 -372c-89 0 -132 6 -185 10zM558 360v22c0 265 -102 355 -288 355c-62 0 -120 -3 -169 -8v-715c40 -4 112 -10 169 -10
c186 0 288 91 288 356z" />
    <glyph glyph-name="Dcroat.alt" horiz-adv-x="629" 
d="M574 360c0 -268 -99 -372 -304 -372c-89 0 -132 6 -185 10v383h-66v16h66v330h-63v16c102 0 126 10 248 10c205 0 304 -103 304 -371v-22zM558 360v22c0 265 -102 355 -288 355c-62 0 -120 -3 -169 -8v-332h197v-16h-197v-367c40 -4 112 -10 169 -10
c186 0 288 91 288 356z" />
    <glyph glyph-name="Ecaron.alt" horiz-adv-x="544" 
d="M133 943h21l130 -139l130 139h21l-144 -154h-14zM489 727h-388v-327h359v-16h-359v-369h388v-15h-404v727h-63v16h467v-16z" />
    <glyph glyph-name="Emacron.alt" horiz-adv-x="544" 
d="M452 851h-343v16h343v-16zM489 727h-388v-327h359v-16h-359v-369h388v-15h-404v727h-63v16h467v-16z" />
    <glyph glyph-name="Ebreve.alt" horiz-adv-x="544" 
d="M421 949c-8 -89 -38 -159 -148 -159c-111 0 -140 70 -148 159h15c6 -76 28 -144 133 -144c104 0 126 68 132 144h16zM489 727h-388v-327h359v-16h-359v-369h388v-15h-404v727h-63v16h467v-16z" />
    <glyph glyph-name="Edotaccent.alt" horiz-adv-x="544" 
d="M286 809h-16v122h16v-122zM489 727h-388v-327h359v-16h-359v-369h388v-15h-404v727h-63v16h467v-16z" />
    <glyph glyph-name="Eogonek.alt" horiz-adv-x="544" 
d="M489 -208c-14 -4 -50 -9 -83 -9c-84 0 -111 35 -111 84c0 66 86 104 160 133h-370v727h-63v16h467v-16h-388v-327h359v-16h-359v-369h388v-15c-99 -39 -177 -71 -177 -133c0 -45 26 -69 94 -69c33 0 68 5 83 8v-14z" />
    <glyph glyph-name="Gcircumflex.alt" horiz-adv-x="589" 
d="M462 789h-21l-130 139l-130 -139h-21l144 154h14zM524 0c-71 -9 -133 -12 -181 -12c-178 0 -288 108 -288 377v12c0 277 105 377 288 377c73 0 139 -7 181 -13v-102h-15v89c-41 5 -102 10 -166 10c-174 0 -272 -94 -272 -360v-13c0 -262 105 -361 272 -361
c44 0 108 2 165 8v351h-135v15h151v-378z" />
    <glyph glyph-name="Gbreve.alt" horiz-adv-x="589" 
d="M478 948c-8 -89 -38 -159 -148 -159c-111 0 -140 70 -148 159h15c6 -76 28 -144 133 -144c104 0 126 68 132 144h16zM524 0c-71 -9 -133 -12 -181 -12c-178 0 -288 108 -288 377v12c0 277 105 377 288 377c73 0 139 -7 181 -13v-102h-15v89c-41 5 -102 10 -166 10
c-174 0 -272 -94 -272 -360v-13c0 -262 105 -361 272 -361c44 0 108 2 165 8v351h-135v15h151v-378z" />
    <glyph glyph-name="Gdotaccent.alt" horiz-adv-x="589" 
d="M340 809h-16v122h16v-122zM524 0c-71 -9 -133 -12 -181 -12c-178 0 -288 108 -288 377v12c0 277 105 377 288 377c73 0 139 -7 181 -13v-102h-15v89c-41 5 -102 10 -166 10c-174 0 -272 -94 -272 -360v-13c0 -262 105 -361 272 -361c44 0 108 2 165 8v351h-135v15h151
v-378z" />
    <glyph glyph-name="Gcommaaccent.alt" horiz-adv-x="589" 
d="M365 -68l-107 -140h-21l107 140h21zM524 0c-71 -9 -133 -12 -181 -12c-178 0 -288 108 -288 377v12c0 277 105 377 288 377c73 0 139 -7 181 -13v-102h-15v89c-41 5 -102 10 -166 10c-174 0 -272 -94 -272 -360v-13c0 -262 105 -361 272 -361c44 0 108 2 165 8v351h-135
v15h151v-378z" />
    <glyph glyph-name="Hbar.alt" horiz-adv-x="671" 
d="M22 578h63v149h-63v16h79v-165h469v165h16v-165h63v-17h-63v-561h-16v393h-469v-393h-16v561h-63v17zM101 409h469v152h-469v-152z" />
    <glyph glyph-name="Hcircumflex.alt" horiz-adv-x="671" 
d="M486 789h-21l-130 139l-130 -139h-21l144 154h14zM586 0h-16v393h-469v-393h-16v727h-63v16h79v-334h469v334h16v-743z" />
    <glyph glyph-name="Itilde.alt" 
d="M271 910c0 -77 -15 -123 -74 -123c-35 0 -54 15 -84 50l-42 49c-29 33 -43 45 -72 45c-54 0 -58 -50 -58 -108v-34h-16v34c0 77 15 123 74 123c35 0 52 -15 82 -49l43 -49c30 -34 43 -46 73 -46c53 0 58 50 58 108v33h16v-33zM169 0h-141v15h62v712h-62v16h141v-16h-62
v-712h62v-15z" />
    <glyph glyph-name="Imacron.alt" 
d="M271 851h-343v16h343v-16zM169 0h-141v15h62v712h-62v16h141v-16h-62v-712h62v-15z" />
    <glyph glyph-name="Ibreve.alt" 
d="M246 933c-8 -89 -38 -159 -148 -159c-111 0 -140 70 -148 159h15c6 -76 28 -144 133 -144c104 0 126 68 132 144h16zM169 0h-141v15h62v712h-62v16h141v-16h-62v-712h62v-15z" />
    <glyph glyph-name="Idotaccent.alt" 
d="M107 809h-16v122h16v-122zM169 0h-141v15h62v712h-62v16h141v-16h-62v-712h62v-15z" />
    <glyph glyph-name="Iogonek.alt" 
d="M169 0c-99 -39 -150 -71 -150 -133c0 -45 26 -69 94 -69c33 0 68 5 83 8v-14c-14 -4 -50 -9 -83 -9c-84 0 -111 35 -111 84c0 65 58 104 131 133h-105v15h62v712h-62v16h141v-16h-62v-712h62v-15z" />
    <glyph glyph-name="IJ.alt" horiz-adv-x="438" 
d="M169 0h-141v15h62v712h-62v16h141v-16h-62v-712h62v-15zM410 727h-62v-776c0 -85 -9 -151 -112 -151c-18 0 -41 2 -59 4v14c23 -1 40 -2 59 -2c89 0 95 54 95 135v776h-62v16h141v-16z" />
    <glyph glyph-name="Jcircumflex.alt" 
d="M248 789h-21l-130 139l-130 -139h-21l144 154h14zM169 727h-62v-776c0 -85 -9 -151 -112 -151c-18 0 -41 2 -59 4v14c23 -1 40 -2 59 -2c89 0 95 54 95 135v776h-62v16h141v-16z" />
    <glyph glyph-name="Kcommaaccent.alt" horiz-adv-x="535" 
d="M296 -68l-107 -140h-21l107 140h21zM520 0h-25l-389 376v-376h-16v727h-62v16h78v-361l386 361h25l-389 -364z" />
    <glyph glyph-name="Nacute.alt" horiz-adv-x="664" 
d="M463 943l-142 -154h-20l141 154h21zM579 -3h-22l-417 666c-13 20 -24 39 -37 59h-1v-73v-649h-17v727h-62v16h84l423 -675c11 -17 21 -34 32 -51h1v62v664h16v-746z" />
    <glyph glyph-name="Ncaron.alt" horiz-adv-x="664" 
d="M174 943h21l130 -139l130 139h21l-144 -154h-14zM579 -3h-22l-417 666c-13 20 -24 39 -37 59h-1v-73v-649h-17v727h-62v16h84l423 -675c11 -17 21 -34 32 -51h1v62v664h16v-746z" />
    <glyph glyph-name="Ncommaaccent.alt" horiz-adv-x="664" 
d="M370 -68l-107 -140h-21l107 140h21zM579 -3h-22l-417 666c-13 20 -24 39 -37 59h-1v-73v-649h-17v727h-62v16h84l423 -675c11 -17 21 -34 32 -51h1v62v664h16v-746z" />
    <glyph glyph-name="Racute.alt" horiz-adv-x="591" 
d="M400 943l-142 -154h-20l141 154h21zM551 0h-19l-206 330c-26 -3 -53 -3 -69 -3c-53 0 -123 1 -155 3v-330h-17v727h-62v16c105 0 144 11 234 11c180 0 258 -66 258 -203v-12c0 -122 -51 -186 -171 -207zM102 346c42 -2 103 -3 155 -3c170 0 242 64 242 196v12
c0 131 -78 187 -242 187c-44 0 -110 -6 -155 -9v-383z" />
    <glyph glyph-name="Rcaron.alt" horiz-adv-x="591" 
d="M143 943h21l130 -139l130 139h21l-144 -154h-14zM551 0h-19l-206 330c-26 -3 -53 -3 -69 -3c-53 0 -123 1 -155 3v-330h-17v727h-62v16c105 0 144 11 234 11c180 0 258 -66 258 -203v-12c0 -122 -51 -186 -171 -207zM102 346c42 -2 103 -3 155 -3c170 0 242 64 242 196
v12c0 131 -78 187 -242 187c-44 0 -110 -6 -155 -9v-383z" />
    <glyph glyph-name="Rcommaaccent.alt" horiz-adv-x="591" 
d="M308 -68l-107 -140h-21l107 140h21zM551 0h-19l-206 330c-26 -3 -53 -3 -69 -3c-53 0 -123 1 -155 3v-330h-17v727h-62v16c105 0 144 11 234 11c180 0 258 -66 258 -203v-12c0 -122 -51 -186 -171 -207zM102 346c42 -2 103 -3 155 -3c170 0 242 64 242 196v12
c0 131 -78 187 -242 187c-44 0 -110 -6 -155 -9v-383z" />
    <glyph glyph-name="Sacute.alt" horiz-adv-x="546" 
d="M408 943l-142 -154h-20l141 154h21zM263 -12c-81 0 -149 6 -193 13v17c30 -4 112 -14 193 -14c126 0 211 41 211 168c0 104 -57 134 -192 205l-49 26c-102 53 -178 99 -178 197c0 112 87 154 222 154c72 0 141 -6 192 -13v-97h-16v84c-37 5 -105 11 -176 11
c-122 0 -206 -35 -206 -139c0 -91 70 -128 171 -183l47 -25c136 -72 202 -108 202 -219c0 -128 -79 -185 -228 -185z" />
    <glyph glyph-name="Scircumflex.alt" horiz-adv-x="546" 
d="M424 789h-21l-130 139l-130 -139h-21l144 154h14zM263 -12c-81 0 -149 6 -193 13v17c30 -4 112 -14 193 -14c126 0 211 41 211 168c0 104 -57 134 -192 205l-49 26c-102 53 -178 99 -178 197c0 112 87 154 222 154c72 0 141 -6 192 -13v-97h-16v84c-37 5 -105 11 -176 11
c-122 0 -206 -35 -206 -139c0 -91 70 -128 171 -183l47 -25c136 -72 202 -108 202 -219c0 -128 -79 -185 -228 -185z" />
    <glyph glyph-name="Scedilla.alt" horiz-adv-x="546" 
d="M328 -68l-131 -140h-21l131 140h21zM263 -12c-81 0 -149 6 -193 13v17c30 -4 112 -14 193 -14c126 0 211 41 211 168c0 104 -57 134 -192 205l-49 26c-102 53 -178 99 -178 197c0 112 87 154 222 154c72 0 141 -6 192 -13v-97h-16v84c-37 5 -105 11 -176 11
c-122 0 -206 -35 -206 -139c0 -91 70 -128 171 -183l47 -25c136 -72 202 -108 202 -219c0 -128 -79 -185 -228 -185z" />
    <glyph glyph-name="Scommaaccent.alt" horiz-adv-x="546" 
d="M70 1v17c30 -4 112 -14 193 -14c126 0 211 41 211 168c0 104 -57 134 -192 205l-49 26c-102 53 -178 99 -178 197c0 112 87 154 222 154c72 0 141 -6 192 -13v-97h-16v84c-37 5 -105 11 -176 11c-122 0 -206 -35 -206 -139c0 -91 70 -128 171 -183l47 -25
c136 -72 202 -108 202 -219c0 -128 -79 -185 -228 -185c-81 0 -149 6 -193 13zM309 -68l-107 -140h-21l107 140h21z" />
    <glyph glyph-name="Utilde.alt" horiz-adv-x="650" 
d="M500 910c0 -77 -15 -123 -74 -123c-35 0 -54 15 -84 50l-42 49c-29 33 -43 45 -72 45c-54 0 -58 -50 -58 -108v-34h-16v34c0 77 15 123 74 123c35 0 52 -15 82 -49l43 -49c30 -34 43 -46 73 -46c53 0 58 50 58 108v33h16v-33zM570 339c0 -229 -59 -348 -245 -348
c-187 0 -245 119 -245 348v388h-69v16h85v-404c0 -226 55 -332 229 -332c173 0 229 106 229 332v404h16v-404z" />
    <glyph glyph-name="Umacron.alt" horiz-adv-x="650" 
d="M496 851h-343v16h343v-16zM570 339c0 -229 -59 -348 -245 -348c-187 0 -245 119 -245 348v388h-69v16h85v-404c0 -226 55 -332 229 -332c173 0 229 106 229 332v404h16v-404z" />
    <glyph glyph-name="Ubreve.alt" horiz-adv-x="650" 
d="M482 933c-8 -89 -38 -159 -148 -159c-111 0 -140 70 -148 159h15c6 -76 28 -144 133 -144c104 0 126 68 132 144h16zM570 339c0 -229 -59 -348 -245 -348c-187 0 -245 119 -245 348v388h-69v16h85v-404c0 -226 55 -332 229 -332c173 0 229 106 229 332v404h16v-404z" />
    <glyph glyph-name="Uring.alt" horiz-adv-x="650" 
d="M444 880c0 -71 -47 -106 -111 -106s-112 35 -112 106c0 70 48 105 112 105s111 -35 111 -105zM428 880c0 69 -47 90 -95 90c-49 0 -96 -21 -96 -90c0 -70 47 -91 96 -91c48 0 95 21 95 91zM570 339c0 -229 -59 -348 -245 -348c-187 0 -245 119 -245 348v388h-69v16h85
v-404c0 -226 55 -332 229 -332c173 0 229 106 229 332v404h16v-404z" />
    <glyph glyph-name="Uhungarumlaut.alt" horiz-adv-x="650" 
d="M546 943l-142 -154h-20l141 154h21zM345 943h21l-142 -154h-20zM570 339c0 -229 -59 -348 -245 -348c-187 0 -245 119 -245 348v388h-69v16h85v-404c0 -226 55 -332 229 -332c173 0 229 106 229 332v404h16v-404z" />
    <glyph glyph-name="Uogonek.alt" horiz-adv-x="650" 
d="M570 339c0 -187 -40 -301 -155 -336c-97 -38 -171 -75 -171 -136c0 -45 26 -69 94 -69c33 0 68 5 83 8v-14c-14 -4 -50 -9 -83 -9c-84 0 -111 35 -111 84c0 57 63 97 128 125c-10 0 -20 -1 -30 -1c-187 0 -245 119 -245 348v388h-69v16h85v-404c0 -226 55 -332 229 -332
c173 0 229 106 229 332v404h16v-404z" />
    <glyph glyph-name="Zacute.alt" horiz-adv-x="563" 
d="M428 943l-142 -154h-20l141 154h21zM533 15v-15h-503v15l467 712h-431v-84h-16v100h466v-16l-466 -712h483z" />
    <glyph glyph-name="Zdotaccent.alt" horiz-adv-x="563" 
d="M290 809h-16v122h16v-122zM533 15v-15h-503v15l467 712h-431v-84h-16v100h466v-16l-466 -712h483z" />
    <glyph glyph-name="Eng.alt" horiz-adv-x="664" 
d="M579 -49c0 -85 -9 -151 -112 -151c-18 0 -41 2 -59 4v14c23 -1 40 -2 59 -2c89 0 95 54 95 135v46l-422 666c-12 20 -25 39 -37 59h-1v-68v-654h-17v727h-62v16h84l428 -675c11 -17 16 -27 27 -44h1v57v662h16v-792z" />
    <glyph glyph-name="amacron.alt" horiz-adv-x="503" 
d="M428 682h-343v16h343v-16zM423 0h-16v44c-47 -25 -115 -56 -192 -56c-112 0 -160 53 -160 158v4c0 125 69 157 238 157h114v58c0 128 -32 162 -175 162c-23 0 -60 -1 -122 -6v-68h-15v81c80 8 111 9 137 9c154 0 191 -42 191 -178v-365zM407 61v231h-114
c-161 0 -222 -26 -222 -142v-4c0 -101 50 -143 146 -143c74 0 145 32 190 58z" />
    <glyph glyph-name="abreve.alt" horiz-adv-x="503" 
d="M411 773c-8 -89 -38 -159 -148 -159c-111 0 -140 70 -148 159h15c6 -76 28 -144 133 -144c104 0 126 68 132 144h16zM423 0h-16v44c-47 -25 -115 -56 -192 -56c-112 0 -160 53 -160 158v4c0 125 69 157 238 157h114v58c0 128 -32 162 -175 162c-23 0 -60 -1 -122 -6v-68
h-15v81c80 8 111 9 137 9c154 0 191 -42 191 -178v-365zM407 61v231h-114c-161 0 -222 -26 -222 -142v-4c0 -101 50 -143 146 -143c74 0 145 32 190 58z" />
    <glyph glyph-name="aringacute.alt" horiz-adv-x="503" 
d="M423 0h-16v44c-47 -25 -115 -56 -192 -56c-112 0 -160 53 -160 158v4c0 125 69 157 238 157h114v58c0 128 -32 162 -175 162c-23 0 -60 -1 -122 -6v-68h-15v81c80 8 111 9 137 9c154 0 191 -42 191 -178v-365zM407 61v231h-114c-161 0 -222 -26 -222 -142v-4
c0 -101 50 -143 146 -143c74 0 145 32 190 58zM374 675c0 -71 -47 -106 -111 -106s-112 35 -112 106c0 70 48 105 112 105s111 -35 111 -105zM358 675c0 69 -47 90 -95 90c-49 0 -96 -21 -96 -90c0 -70 47 -91 96 -91c48 0 95 21 95 91zM415 963l-142 -154h-20l141 154h21z
" />
    <glyph glyph-name="aogonek.alt" horiz-adv-x="503" 
d="M423 -208c-14 -4 -30 -9 -63 -9c-84 0 -111 35 -111 84c0 65 60 93 158 136v55c-46 -27 -115 -70 -192 -70c-112 0 -160 53 -160 158v4c0 125 69 157 238 157h114v58c0 128 -32 162 -175 162c-23 0 -60 -1 -122 -6v-68h-15v81c80 8 111 9 137 9c154 0 191 -42 191 -178
v-370c-103 -47 -157 -66 -157 -128c0 -45 26 -69 94 -69c33 0 48 5 63 8v-14zM407 75v217h-114c-161 0 -222 -26 -222 -142v-4c0 -101 50 -143 146 -143c74 0 145 44 190 72z" />
    <glyph glyph-name="ae.alt" horiz-adv-x="869" 
d="M827 263h-404v-147c0 -98 90 -113 215 -113c63 0 133 9 175 16v-15c-41 -7 -112 -16 -175 -16c-125 0 -195 15 -222 80c-54 -47 -130 -80 -212 -80c-93 0 -151 52 -151 147v24c0 116 70 148 239 148h114v58c0 126 -32 162 -175 162c-27 0 -78 -3 -128 -7v-67h-15v81
c59 7 116 9 143 9c145 0 180 -40 190 -126c22 75 87 126 197 126c156 0 209 -104 209 -238v-42zM811 279v27c0 133 -56 221 -193 221c-144 0 -195 -94 -195 -197v-51h388zM406 80v212h-114c-162 0 -222 -25 -222 -133v-24c0 -89 51 -132 136 -132c78 0 151 36 200 77z" />
    <glyph glyph-name="aeacute.alt" horiz-adv-x="869" 
d="M827 263h-404v-147c0 -98 90 -113 215 -113c63 0 133 9 175 16v-15c-41 -7 -112 -16 -175 -16c-125 0 -195 15 -222 80c-54 -47 -130 -80 -212 -80c-93 0 -151 52 -151 147v24c0 116 70 148 239 148h114v58c0 126 -32 162 -175 162c-27 0 -78 -3 -128 -7v-67h-15v81
c59 7 116 9 143 9c145 0 180 -40 190 -126c22 75 87 126 197 126c156 0 209 -104 209 -238v-42zM811 279v27c0 133 -56 221 -193 221c-144 0 -195 -94 -195 -197v-51h388zM406 80v212h-114c-162 0 -222 -25 -222 -133v-24c0 -89 51 -132 136 -132c78 0 151 36 200 77z
M580 770l-142 -154h-20l141 154h21z" />
    <glyph glyph-name="cacute.alt" horiz-adv-x="443" 
d="M390 770l-142 -154h-20l141 154h21zM398 1c-69 -11 -103 -13 -132 -13c-146 0 -211 52 -211 271v13c0 210 69 271 211 271c32 0 66 -2 132 -12v-83h-15v70c-58 8 -90 9 -117 9c-131 0 -194 -51 -194 -255v-13c0 -213 60 -256 194 -256c28 0 64 3 132 12v-14z" />
    <glyph glyph-name="ccircumflex.alt" horiz-adv-x="443" 
d="M398 616h-21l-130 139l-130 -139h-21l144 154h14zM398 1c-69 -11 -103 -13 -132 -13c-146 0 -211 52 -211 271v13c0 210 69 271 211 271c32 0 66 -2 132 -12v-83h-15v70c-58 8 -90 9 -117 9c-131 0 -194 -51 -194 -255v-13c0 -213 60 -256 194 -256c28 0 64 3 132 12v-14
z" />
    <glyph glyph-name="ccaron.alt" horiz-adv-x="443" 
d="M105 770h21l130 -139l130 139h21l-144 -154h-14zM398 1c-69 -11 -103 -13 -132 -13c-146 0 -211 52 -211 271v13c0 210 69 271 211 271c32 0 66 -2 132 -12v-83h-15v70c-58 8 -90 9 -117 9c-131 0 -194 -51 -194 -255v-13c0 -213 60 -256 194 -256c28 0 64 3 132 12v-14z
" />
    <glyph glyph-name="cdotaccent.alt" horiz-adv-x="443" 
d="M263 645h-16v122h16v-122zM398 1c-69 -11 -103 -13 -132 -13c-146 0 -211 52 -211 271v13c0 210 69 271 211 271c32 0 66 -2 132 -12v-83h-15v70c-58 8 -90 9 -117 9c-131 0 -194 -51 -194 -255v-13c0 -213 60 -256 194 -256c28 0 64 3 132 12v-14z" />
    <glyph glyph-name="dcaron.alt" horiz-adv-x="676" 
d="M614 770l-64 -229h-17l61 229h20zM436 0h-17v38c-38 -20 -100 -50 -174 -50c-136 0 -190 75 -190 272v12c0 196 65 271 224 271c25 0 66 0 140 -8v219h-66v16h83v-770zM419 55v465c-66 6 -115 7 -140 7c-146 0 -207 -64 -207 -255v-12c0 -193 51 -256 173 -256
c71 0 134 30 174 51z" />
    <glyph glyph-name="dcroat.alt" horiz-adv-x="521" 
d="M436 0h-17v38c-38 -20 -100 -50 -174 -50c-136 0 -190 75 -190 272v12c0 196 65 271 224 271c25 0 66 0 140 -8v88h-140v15h140v116h-66v16h83v-132h58v-15h-58v-623zM419 55v465c-66 6 -115 7 -140 7c-146 0 -207 -64 -207 -255v-12c0 -193 51 -256 173 -256
c71 0 134 30 174 51z" />
    <glyph glyph-name="gcircumflex.alt" horiz-adv-x="518" 
d="M471 -43c0 -99 -53 -169 -213 -169c-163 0 -213 70 -213 170c0 64 25 105 57 134c-34 9 -52 32 -52 69c0 29 18 60 50 79c-34 32 -45 77 -45 124c0 88 23 179 197 179h201v-16h-103c68 -23 98 -78 98 -163c0 -86 -33 -167 -196 -167c-69 0 -112 14 -141 34
c-31 -18 -45 -41 -45 -70c0 -33 18 -57 63 -57h124c169 0 218 -40 218 -147zM455 -43c0 98 -39 132 -202 132h-134c-35 -31 -58 -68 -58 -131c0 -91 43 -154 197 -154c152 0 197 63 197 153zM432 364c0 82 -21 163 -180 163c-166 0 -181 -84 -181 -163
c0 -82 26 -152 181 -152c154 0 180 70 180 152zM402 616h-21l-130 139l-130 -139h-21l144 154h14z" />
    <glyph glyph-name="gbreve.alt" horiz-adv-x="518" 
d="M396 773c-8 -89 -38 -159 -148 -159c-111 0 -140 70 -148 159h15c6 -76 28 -144 133 -144c104 0 126 68 132 144h16zM471 -43c0 -99 -53 -169 -213 -169c-163 0 -213 70 -213 170c0 64 25 105 57 134c-34 9 -52 32 -52 69c0 29 18 60 50 79c-34 32 -45 77 -45 124
c0 88 23 179 197 179h201v-16h-103c68 -23 98 -78 98 -163c0 -86 -33 -167 -196 -167c-69 0 -112 14 -141 34c-31 -18 -45 -41 -45 -70c0 -33 18 -57 63 -57h124c169 0 218 -40 218 -147zM455 -43c0 98 -39 132 -202 132h-134c-35 -31 -58 -68 -58 -131
c0 -91 43 -154 197 -154c152 0 197 63 197 153zM432 364c0 82 -21 163 -180 163c-166 0 -181 -84 -181 -163c0 -82 26 -152 181 -152c154 0 180 70 180 152z" />
    <glyph glyph-name="gdotaccent.alt" horiz-adv-x="518" 
d="M259 645h-16v122h16v-122zM471 -43c0 -99 -53 -169 -213 -169c-163 0 -213 70 -213 170c0 64 25 105 57 134c-34 9 -52 32 -52 69c0 29 18 60 50 79c-34 32 -45 77 -45 124c0 88 23 179 197 179h201v-16h-103c68 -23 98 -78 98 -163c0 -86 -33 -167 -196 -167
c-69 0 -112 14 -141 34c-31 -18 -45 -41 -45 -70c0 -33 18 -57 63 -57h124c169 0 218 -40 218 -147zM455 -43c0 98 -39 132 -202 132h-134c-35 -31 -58 -68 -58 -131c0 -91 43 -154 197 -154c152 0 197 63 197 153zM432 364c0 82 -21 163 -180 163
c-166 0 -181 -84 -181 -163c0 -82 26 -152 181 -152c154 0 180 70 180 152z" />
    <glyph glyph-name="gcommaaccent.alt" horiz-adv-x="518" 
d="M471 -43c0 -99 -53 -169 -213 -169c-163 0 -213 70 -213 170c0 64 25 105 57 134c-34 9 -52 32 -52 69c0 29 18 60 50 79c-34 32 -45 77 -45 124c0 88 23 179 197 179h201v-16h-103c68 -23 98 -78 98 -163c0 -86 -33 -167 -196 -167c-69 0 -112 14 -141 34
c-31 -18 -45 -41 -45 -70c0 -33 18 -57 63 -57h124c169 0 218 -40 218 -147zM455 -43c0 98 -39 132 -202 132h-134c-35 -31 -58 -68 -58 -131c0 -91 43 -154 197 -154c152 0 197 63 197 153zM432 364c0 82 -21 163 -180 163c-166 0 -181 -84 -181 -163
c0 -82 26 -152 181 -152c154 0 180 70 180 152zM229 616l107 140h21l-107 -140h-21z" />
    <glyph glyph-name="hbar.alt" horiz-adv-x="549" 
d="M26 639h59v115h-58v16h75v-131h176v-16h-176v-139c53 27 122 59 198 59c127 0 169 -64 169 -212v-331h-17v331c0 148 -44 196 -152 196c-69 0 -142 -30 -198 -60v-467h-17v623h-59v16z" />
    <glyph glyph-name="hcircumflex.alt" horiz-adv-x="549" 
d="M432 789h-21l-130 139l-130 -139h-21l144 154h14zM469 0h-17v331c0 148 -44 196 -152 196c-69 0 -142 -30 -198 -60v-467h-17v754h-58v16h75v-286c53 27 122 59 198 59c127 0 169 -64 169 -212v-331z" />
    <glyph glyph-name="itilde.alt" 
d="M107 0h-17v513h-58v16h75v-529zM271 740c0 -77 -15 -123 -74 -123c-35 0 -54 15 -84 50l-42 49c-29 33 -43 45 -72 45c-54 0 -58 -50 -58 -108v-34h-16v34c0 77 15 123 74 123c35 0 52 -15 82 -49l43 -49c30 -34 43 -46 73 -46c53 0 58 50 58 108v33h16v-33z" />
    <glyph glyph-name="imacron.alt" 
d="M107 0h-17v513h-58v16h75v-529zM270 682h-343v16h343v-16z" />
    <glyph glyph-name="ibreve.alt" 
d="M107 0h-17v513h-58v16h75v-529zM246 773c-8 -89 -38 -159 -148 -159c-111 0 -140 70 -148 159h15c6 -76 28 -144 133 -144c104 0 126 68 132 144h16z" />
    <glyph glyph-name="iogonek.alt" 
d="M195 -208c-14 -4 -50 -9 -83 -9c-84 0 -111 35 -111 84c0 52 41 102 89 137v509h-58v16h75v-529c-52 -38 -89 -84 -89 -133c0 -45 26 -69 94 -69c33 0 68 5 83 8v-14zM107 643h-17v127h17v-127z" />
    <glyph glyph-name="ij.alt" horiz-adv-x="459" 
d="M107 0h-17v513h-58v16h75v-529zM107 643h-17v127h17v-127zM369 -88c0 -79 -15 -124 -92 -124c-10 0 -30 0 -59 4v14c32 -3 49 -3 59 -3c62 0 75 32 75 109v601h-57v16h74v-617zM369 641h-17v129h17v-129z" />
    <glyph glyph-name="ij.alt2" horiz-adv-x="459" 
d="M107 0h-17v513h-58v16h75v-529zM107 643h-17v127h17v-127zM369 -88c0 -79 -15 -124 -92 -124c-10 0 -30 0 -59 4v14c32 -3 49 -3 59 -3c62 0 75 32 75 109v617h17v-617zM369 641h-17v129h17v-129z" />
    <glyph glyph-name="jcircumflex.alt" 
d="M107 -88c0 -79 -15 -124 -92 -124c-10 0 -30 0 -59 4v14c32 -3 49 -3 59 -3c62 0 75 32 75 109v601h-57v16h74v-617zM249 616h-21l-130 139l-130 -139h-21l144 154h14z" />
    <glyph glyph-name="kcommaaccent.alt" horiz-adv-x="416" 
d="M249 -68l-107 -140h-21l107 140h21zM406 0h-24l-280 278v-278h-17v754h-57v16h74v-488l278 247h26l-281 -249z" />
    <glyph glyph-name="kgreenlandic.alt" horiz-adv-x="416" 
d="M406 0h-24l-280 278v-278h-17v513h-57v16h74v-247l278 247h26l-281 -249z" />
    <glyph glyph-name="lacute.alt" horiz-adv-x="187" 
d="M201 943l-142 -154h-20l141 154h21zM102 0h-17v754h-58v16h75v-770z" />
    <glyph glyph-name="lcaron.alt" horiz-adv-x="247" 
d="M261 770l-64 -229h-17l61 229h20zM102 0h-17v754h-58v16h75v-770z" />
    <glyph glyph-name="lcommaaccent.alt" horiz-adv-x="187" 
d="M133 -68l-107 -140h-21l107 140h21zM102 0h-17v754h-58v16h75v-770z" />
    <glyph glyph-name="ldot.alt" horiz-adv-x="261" 
d="M231 301h-17v136h17v-136zM102 0h-17v754h-58v16h75v-770z" />
    <glyph glyph-name="nacute.alt" horiz-adv-x="549" 
d="M401 770l-142 -154h-20l141 154h21zM469 0h-17v331c0 148 -44 196 -153 196c-68 0 -138 -28 -197 -60v-467h-17v513h-56v16h73v-45c54 29 122 59 197 59c127 0 170 -64 170 -212v-331z" />
    <glyph glyph-name="ncaron.alt" horiz-adv-x="549" 
d="M115 770h21l130 -139l130 139h21l-144 -154h-14zM469 0h-17v331c0 148 -44 196 -153 196c-68 0 -138 -28 -197 -60v-467h-17v513h-56v16h73v-45c54 29 122 59 197 59c127 0 170 -64 170 -212v-331z" />
    <glyph glyph-name="ncommaaccent.alt" horiz-adv-x="549" 
d="M284 -68l-107 -140h-21l107 140h21zM469 0h-17v331c0 148 -44 196 -153 196c-68 0 -138 -28 -197 -60v-467h-17v513h-56v16h73v-45c54 29 122 59 197 59c127 0 170 -64 170 -212v-331z" />
    <glyph glyph-name="napostrophe.alt" horiz-adv-x="574" 
d="M494 0h-17v331c0 148 -44 196 -153 196c-68 0 -138 -28 -197 -60v-467h-17v513h-56v16h73v-45c54 29 122 59 197 59c127 0 170 -64 170 -212v-331zM76 770l-64 -229h-17l61 229h20z" />
    <glyph glyph-name="racute.alt" horiz-adv-x="332" 
d="M323 770l-142 -154h-20l141 154h21zM101 0h-16v513h-57v16h73v-43c89 55 185 57 221 57v-16c-36 0 -127 -2 -221 -57v-470z" />
    </font>
</defs>
</svg>
