<?xml version="1.0" standalone="no"?>
<!DOCTYPE svg PUBLIC "-//W3C//DTD SVG 1.1//EN" "http://www.w3.org/Graphics/SVG/1.1/DTD/svg11.dtd" >
<svg xmlns="http://www.w3.org/2000/svg" xmlns:xlink="http://www.w3.org/1999/xlink" version="1.1">
<metadata>
Created by FontForge 20141024 at Thu Apr 30 19:19:38 2015
 By System Administrator
Copyright (c) 2007 Monotype Imaging Inc. Soho is designed by Sebastian Lester. All rights reserved.
</metadata>
<defs>
<font id="SohoGothicPro-BoldItalic" horiz-adv-x="673" >
  <font-face 
    font-family="Soho Gothic Pro"
    font-weight="700"
    font-style="italic"
    font-stretch="normal"
    units-per-em="1000"
    panose-1="2 11 8 3 3 5 4 9 2 4"
    ascent="789"
    descent="-211"
    x-height="570"
    cap-height="743"
    bbox="-74 -297 1621 1163"
    underline-thickness="50"
    underline-position="-50"
    slope="-12"
    stemh="146"
    stemv="126"
    unicode-range="U+0020-FE6A"
  />
<missing-glyph horiz-adv-x="500" 
d="M12 0v665h475v-665h-475zM88 618l162 -243l161 243h-323zM60 575v-484c0 -1 161 242 161 242zM440 575l-162 -242l162 -243v485zM411 48l-161 242l-162 -242h323z" />
    <glyph glyph-name="f_i" unicode="fi" horiz-adv-x="745" 
d="M769 570l-100 -570h-175l80 446h-202l-85 -481c-24 -139 -84 -183 -216 -183c-40 0 -80 5 -96 9l19 110c19 -1 36 -1 55 -1c44 0 55 14 64 65l84 481l-92 10l18 114h95l9 47c23 118 77 178 204 178c52 0 105 -9 133 -17l-17 -98c-26 1 -56 3 -81 3c-48 0 -56 -18 -65 -68
l-9 -45h377zM810 779h-182l-23 -131h182z" />
    <glyph glyph-name="f_l" unicode="fl" horiz-adv-x="749" 
d="M811 779l-138 -779h-174l121 678c-31 2 -88 5 -134 5c-53 0 -73 -8 -84 -68l-9 -45h133l-21 -124h-133l-86 -481c-25 -139 -84 -183 -216 -183c-40 0 -80 5 -95 9l18 110c19 -1 36 -1 56 -1c43 0 54 14 63 65l86 481l-93 11l19 113h95l8 45c25 143 101 180 229 180
c61 0 146 -11 181 -16h174z" />
    <glyph glyph-name="f_f" unicode="ff" horiz-adv-x="835" 
d="M942 778l-17 -98c-27 1 -56 3 -81 3c-48 0 -56 -18 -65 -68l-9 -45h133l-21 -124h-133l-85 -481c-24 -139 -84 -183 -216 -183c-40 0 -80 5 -96 9l19 110c19 -1 36 -1 55 -1c44 0 55 14 64 65l85 481h-203l-85 -481c-25 -139 -85 -183 -217 -183c-40 0 -80 5 -95 9
l19 110c18 -1 35 -1 55 -1c44 0 54 14 63 65l86 481l-93 11l19 113h95l8 47c20 115 78 178 205 178c52 0 105 -9 133 -17l-17 -98c-27 1 -57 3 -82 3c-47 0 -55 -19 -64 -68l-9 -45h203l8 47c20 115 78 178 205 178c52 0 104 -9 133 -17z" />
    <glyph glyph-name="f_f_i" unicode="ffi" horiz-adv-x="1121" 
d="M1145 570l-100 -570h-175l80 446h-201l-86 -481c-25 -139 -84 -183 -216 -183c-40 0 -80 5 -95 9l18 110c19 -1 36 -1 56 -1c43 0 54 14 63 65l85 481h-202l-85 -481c-24 -139 -84 -183 -216 -183c-40 0 -80 5 -96 9l19 110c19 -1 36 -1 55 -1c44 0 55 14 64 65l85 481
l-93 11l19 113h95l8 47c21 116 78 178 205 178c52 0 105 -9 133 -17l-17 -98c-27 1 -57 3 -82 3c-47 0 -55 -18 -64 -68l-9 -45h202l9 47c22 116 76 178 204 178c52 0 104 -9 133 -17l-17 -98c-26 1 -56 3 -81 3c-48 0 -56 -18 -65 -68l-9 -45h376zM1186 779h-181l-24 -131
h182z" />
    <glyph glyph-name="f_f_l" unicode="ffl" horiz-adv-x="1124" 
d="M1186 779l-138 -779h-174l121 678c-31 2 -86 5 -133 5c-53 0 -73 -8 -84 -68l-9 -45h133l-21 -124h-132l-87 -481c-25 -139 -84 -183 -216 -183c-40 0 -80 5 -95 9l18 110c19 -1 36 -1 56 -1c43 0 54 14 63 65l86 481h-202l-85 -481c-24 -139 -84 -183 -216 -183
c-40 0 -80 5 -96 9l19 110c19 -1 36 -1 55 -1c44 0 55 14 64 65l85 481l-93 11l19 113h95l8 47c21 116 78 178 205 178c52 0 105 -9 133 -17l-17 -98c-27 1 -57 3 -82 3c-47 0 -55 -18 -64 -68l-9 -45h202l9 45c28 142 100 180 227 180c62 0 146 -11 181 -16h174z" />
    <glyph glyph-name="f_b" unicode="fb" horiz-adv-x="1080" 
d="M744 -15c-75 0 -129 4 -248 15l119 677c-36 3 -83 6 -131 6c-49 0 -72 -8 -83 -69l-8 -44h132l-20 -124h-133l-85 -481c-25 -139 -84 -183 -216 -183c-40 0 -80 5 -96 9l19 110c19 -1 36 -1 55 -1c44 0 55 14 64 65l85 481l-93 11l18 113h96l9 50c26 142 101 175 229 175
c57 0 127 -7 175 -16h174l-38 -215c41 16 84 22 121 22c142 0 209 -62 209 -187c0 -24 -3 -51 -8 -80l-13 -70c-37 -197 -141 -264 -333 -264zM746 436l-57 -315c18 -1 46 -3 79 -3c87 0 116 29 137 139l13 70c4 23 6 43 6 58c0 50 -24 68 -81 68c-22 0 -67 -3 -97 -17z" />
    <glyph glyph-name="f_f_b" unicode="ffb" horiz-adv-x="1459" 
d="M1122 -15c-75 0 -149 5 -248 15l120 678c-39 3 -83 5 -132 5c-50 0 -70 -8 -82 -68l-9 -45h133l-21 -124h-132l-87 -481c-25 -139 -84 -183 -216 -183c-40 0 -80 5 -95 9l18 110c19 -1 36 -1 56 -1c43 0 54 14 63 65l86 481h-204l-86 -481c-25 -139 -84 -183 -216 -183
c-40 0 -80 5 -95 9l19 110c18 -1 35 -1 55 -1c43 0 55 14 64 65l85 481l-94 10l19 114h96l8 47c22 127 76 178 204 178c52 0 100 -8 133 -17l-16 -98c-33 1 -57 3 -80 3c-51 0 -57 -18 -67 -68l-9 -45h205l10 51c28 141 100 174 226 174c60 0 140 -9 178 -16h174l-38 -214
c36 14 79 21 120 21c142 0 209 -61 209 -186c0 -25 -3 -52 -8 -81l-13 -70c-37 -197 -140 -264 -333 -264zM1124 436l-56 -315c17 -1 45 -3 79 -3c85 0 118 29 137 139l12 70c4 23 6 43 6 59c0 50 -24 67 -81 67c-21 0 -66 -3 -97 -17z" />
    <glyph glyph-name="f_f_h" unicode="ffh" horiz-adv-x="1481" 
d="M1481 444c0 -23 -3 -52 -10 -92l-62 -352h-174l63 359c3 17 4 31 4 43c0 39 -19 52 -61 52c-44 0 -91 -15 -119 -27l-76 -427h-175l121 678c-32 2 -82 5 -129 5c-52 0 -73 -8 -85 -68l-9 -45h133l-21 -124h-132l-86 -481c-25 -139 -84 -183 -216 -183c-40 0 -80 5 -95 9
l18 110c19 -1 36 -1 56 -1c43 0 54 14 63 65l85 481h-202l-85 -481c-25 -139 -84 -183 -216 -183c-40 0 -80 5 -96 9l19 110c19 -1 36 -1 55 -1c44 0 55 14 64 65l85 481l-93 11l18 113h96l8 47c20 115 76 178 205 178c51 0 104 -9 132 -17l-16 -98c-27 1 -57 3 -82 3
c-49 0 -54 -18 -64 -68l-9 -45h202l9 45c28 142 102 180 231 180c58 0 138 -10 174 -16h174l-41 -234c46 22 113 39 177 39c125 0 162 -56 162 -140z" />
    <glyph glyph-name="f_f_k" unicode="ffk" horiz-adv-x="1423" 
d="M1513 570l-246 -274l150 -296h-190l-134 271l-47 -271h-175l120 678c-32 3 -81 5 -128 5c-52 0 -73 -8 -85 -68l-9 -45h133l-21 -124h-132l-86 -481c-25 -139 -84 -183 -216 -183c-40 0 -80 5 -96 9l19 110c19 -1 36 -1 55 -1c44 0 55 14 64 65l85 481h-202l-85 -481
c-25 -139 -84 -183 -216 -183c-40 0 -80 5 -96 9l19 110c19 -1 36 -1 55 -1c44 0 55 14 64 65l85 481l-93 10l19 114h95l8 47c20 115 78 178 205 178c52 0 105 -9 133 -17l-17 -98c-27 1 -57 3 -82 3c-49 0 -54 -18 -64 -68l-9 -45h202l9 45c28 142 102 180 231 180
c63 0 138 -10 174 -16h174l-81 -458l218 249h193z" />
    <glyph glyph-name="f_h" unicode="fh" horiz-adv-x="1104" 
d="M1105 444c0 -23 -4 -52 -11 -92l-62 -352h-173l62 359c3 18 5 31 5 43c0 39 -19 52 -62 52c-44 0 -91 -15 -119 -27l-76 -427h-175l121 678c-32 2 -82 5 -128 5c-54 0 -73 -8 -85 -68l-9 -45h132l-20 -124h-133l-85 -481c-25 -139 -84 -183 -216 -183c-40 0 -80 5 -96 9
l19 110c19 -1 36 -1 55 -1c44 0 55 14 64 65l85 481l-93 11l18 113h96l8 45c25 143 103 180 231 180c64 0 138 -10 174 -16h175l-42 -234c47 22 114 40 177 40c126 0 163 -57 163 -141z" />
    <glyph glyph-name="f_j" unicode="fj" horiz-adv-x="739" 
d="M773 570l-107 -604c-25 -136 -84 -183 -214 -183c-46 0 -86 5 -98 9l19 110c28 -2 35 -2 55 -2c44 0 55 15 64 66l86 480h-206l-86 -481c-25 -139 -84 -183 -216 -183c-40 0 -80 5 -95 9l18 110c19 -1 36 -1 56 -1c43 0 54 14 63 65l86 481l-93 11l18 113h96l8 47
c21 124 78 178 205 178c51 0 104 -9 132 -17l-16 -98c-27 1 -57 3 -82 3c-48 0 -54 -18 -64 -68l-9 -45h380zM813 779h-181l-24 -131h182z" />
    <glyph glyph-name="f_f_j" unicode="ffj" horiz-adv-x="1115" 
d="M1149 570l-107 -604c-25 -136 -83 -183 -213 -183c-47 0 -85 5 -98 9l18 110c18 -1 36 -2 56 -2c44 0 54 15 63 66l86 480h-205l-87 -481c-25 -139 -84 -183 -216 -183c-40 0 -80 5 -96 9l19 110c19 -1 36 -1 55 -1c44 0 55 14 64 65l86 481h-202l-85 -481
c-25 -139 -85 -183 -217 -183c-40 0 -80 5 -95 9l19 110c18 -1 35 -1 55 -1c44 0 54 14 63 65l86 481l-93 11l18 113h96l8 47c21 122 78 178 205 178c51 0 104 -9 132 -17l-16 -98c-27 1 -57 3 -81 3c-49 0 -56 -20 -65 -68l-9 -45h202l9 47c24 124 77 178 205 178
c50 0 104 -9 132 -17l-17 -98c-26 1 -56 3 -81 3c-49 0 -55 -18 -65 -68l-9 -45h380zM1190 779h-182l-23 -131h182z" />
    <glyph glyph-name="f_k" unicode="fk" horiz-adv-x="1046" 
d="M1137 570l-246 -274l151 -296h-191l-134 271l-47 -271h-175l120 678c-32 3 -81 5 -128 5c-53 0 -73 -8 -85 -68l-9 -45h133l-21 -124h-133l-85 -481c-25 -139 -85 -183 -217 -183c-40 0 -80 5 -95 9l19 110c18 -1 35 -1 55 -1c44 0 54 14 63 65l86 481l-93 11l19 113h95
l8 45c25 143 103 180 232 180c63 0 138 -10 173 -16h174l-80 -458l218 249h193z" />
    <glyph glyph-name=".notdef" horiz-adv-x="500" 
d="M12 0v665h475v-665h-475zM88 618l162 -243l161 243h-323zM60 575v-484c0 -1 161 242 161 242zM440 575l-162 -242l162 -243v485zM411 48l-161 242l-162 -242h323z" />
    <glyph glyph-name="space" unicode=" " horiz-adv-x="202" 
 />
    <glyph glyph-name="exclam" unicode="!" horiz-adv-x="330" 
d="M282 165l-28 -165h-179l28 165h179zM205 779h193l-114 -556h-161z" />
    <glyph glyph-name="quotedbl" unicode="&#x22;" horiz-adv-x="482" 
d="M109 508l85 262h153l-115 -262h-123zM597 770l-115 -262h-123l85 262h153z" />
    <glyph glyph-name="numbersign" unicode="#" horiz-adv-x="769" 
d="M736 178h-132l-51 -178h-144l51 178h-137l-50 -178h-145l52 178h-86l19 109h97l46 158h-115l19 108h126l56 190h144l-55 -190h136l56 190h144l-55 -190h89l-18 -108h-102l-46 -158h119zM537 445h-137l-46 -158h137z" />
    <glyph glyph-name="dollar" unicode="$" 
d="M240 -127l20 113c-78 3 -149 13 -183 21l20 123c82 -6 125 -12 229 -12c85 0 135 28 135 101c0 28 -18 47 -72 72l-99 45c-86 39 -139 94 -139 191c0 151 103 208 244 226l19 108h147l-19 -105c74 -4 136 -15 167 -22l-20 -120c-93 10 -126 12 -217 12
c-71 0 -135 -14 -135 -81c0 -29 14 -48 70 -72l98 -43c99 -44 147 -100 147 -189c0 -153 -98 -231 -244 -250l-21 -118h-147z" />
    <glyph glyph-name="percent" unicode="%" horiz-adv-x="1153" 
d="M1154 306c0 -31 -3 -56 -8 -84l-7 -40c-22 -126 -90 -193 -228 -193c-120 0 -165 65 -165 161c0 22 2 46 7 73l8 43c23 122 87 191 227 191c121 0 166 -61 166 -151zM1028 307c0 41 -19 54 -54 54c-45 0 -72 -26 -87 -115l-7 -41c-5 -28 -8 -48 -8 -63
c0 -44 15 -57 52 -57c47 0 71 23 88 114l8 42c6 30 8 47 8 66zM1028 745l-628 -745h-146l628 745h146zM541 607c-1 -30 -3 -55 -8 -83l-8 -41c-25 -126 -88 -192 -228 -192c-120 0 -165 65 -165 161c0 22 2 45 7 73l8 42c23 123 89 192 228 192c120 0 166 -61 166 -152z
M414 609c0 41 -18 54 -53 54c-49 0 -70 -27 -87 -115l-8 -41c-6 -32 -8 -53 -8 -68c0 -40 18 -53 52 -53c45 0 74 23 89 114l7 42c5 30 8 49 8 67z" />
    <glyph glyph-name="ampersand" unicode="&#x26;" horiz-adv-x="817" 
d="M854 452l-14 -84l-49 -8c-11 -91 -45 -171 -99 -232l81 -91l-6 -37h-167l-35 38c-54 -31 -133 -53 -237 -53c-142 0 -252 48 -252 180c0 117 76 177 184 224l-7 8c-43 51 -71 100 -71 161c0 167 146 201 297 201c100 0 201 -15 244 -25l-20 -116c-56 4 -154 10 -235 10
c-64 0 -110 -14 -110 -83c0 -33 19 -56 53 -94l198 -226c26 38 39 86 46 135l-46 8l14 84h231zM489 128l-142 159c-47 -24 -89 -57 -89 -113c0 -57 45 -76 105 -76c51 0 94 12 126 30z" />
    <glyph glyph-name="quoteright" unicode="&#x2019;" horiz-adv-x="256" 
d="M373 779l-139 -256h-122l105 256h156z" />
    <glyph glyph-name="parenleft" unicode="(" horiz-adv-x="398" 
d="M323 -201h-151c-40 78 -82 197 -82 350c0 219 96 422 245 594h161c-141 -178 -239 -399 -239 -635c0 -116 26 -222 66 -309z" />
    <glyph glyph-name="parenright" unicode=")" horiz-adv-x="398" 
d="M170 743h151c40 -78 82 -198 82 -355c0 -212 -94 -418 -245 -589h-161c152 188 239 407 239 631c0 120 -25 226 -66 313z" />
    <glyph glyph-name="asterisk" unicode="*" horiz-adv-x="550" 
d="M582 576l-61 -18c-22 -7 -47 -13 -74 -16c20 -16 37 -35 51 -53l37 -49l-99 -72l-38 49c-15 19 -26 40 -38 63c-11 -24 -24 -44 -37 -62l-38 -50l-99 72l38 50c12 16 29 36 49 53c-26 3 -51 8 -72 15l-61 19l38 116l60 -19c22 -7 46 -17 69 -29c-5 25 -8 49 -8 71v62h123
v-62c0 -22 -3 -46 -9 -72c24 13 48 23 70 30l61 19z" />
    <glyph glyph-name="plus" unicode="+" horiz-adv-x="677" 
d="M677 320h-199v-194h-131v194h-200v132h200v193h131v-193h199v-132z" />
    <glyph glyph-name="comma" unicode="," horiz-adv-x="349" 
d="M332 165l-180 -259h-141l139 259h182z" />
    <glyph glyph-name="hyphen" unicode="-" horiz-adv-x="376" 
d="M359 234h-261l21 121h261z" />
    <glyph glyph-name="period" unicode="." horiz-adv-x="302" 
d="M238 0h-175l28 164h175z" />
    <glyph glyph-name="slash" unicode="/" horiz-adv-x="495" 
d="M606 743l-409 -743h-178l410 743h177z" />
    <glyph glyph-name="zero" unicode="0" horiz-adv-x="706" 
d="M737 506c0 -33 -3 -68 -26 -196c-39 -221 -149 -327 -354 -327c-180 0 -258 96 -258 251c0 37 4 71 25 198c37 221 154 327 355 327c183 0 258 -95 258 -253zM553 522c0 73 -35 97 -90 97c-72 0 -125 -41 -155 -215c-22 -126 -26 -159 -26 -188c0 -68 33 -93 91 -93
c76 0 123 41 154 215c22 126 26 160 26 184z" />
    <glyph glyph-name="one" unicode="1" horiz-adv-x="606" 
d="M556 0h-505l21 126l161 7l82 452l-168 -43l22 133l225 71h134l-109 -613l157 -7z" />
    <glyph glyph-name="two" unicode="2" horiz-adv-x="651" 
d="M589 0h-537l16 92c31 183 101 250 282 338c83 40 163 78 163 143c0 41 -32 54 -122 54c-71 0 -169 -6 -216 -12l19 113c72 20 172 31 250 31c183 0 262 -57 262 -162c0 -146 -123 -220 -252 -279c-154 -71 -179 -87 -194 -171l-2 -9h354z" />
    <glyph glyph-name="three" unicode="3" horiz-adv-x="652" 
d="M644 260c0 -219 -149 -277 -342 -277c-97 0 -201 19 -241 34l20 113c49 -5 142 -13 225 -13c85 0 132 15 147 96c5 28 7 38 7 48c0 37 -24 56 -98 56h-202l21 123h203c110 0 130 57 130 128c0 45 -31 58 -117 58c-84 0 -165 -6 -227 -12l19 114c37 12 153 31 250 31
c172 0 264 -47 264 -169c0 -89 -34 -171 -122 -214c47 -25 63 -72 63 -116z" />
    <glyph glyph-name="four" unicode="4" horiz-adv-x="710" 
d="M697 169h-98l-30 -169h-187l30 169h-341l22 128l448 446h159l-80 -446h99zM442 297l46 248l-247 -248h201z" />
    <glyph glyph-name="five" unicode="5" horiz-adv-x="641" 
d="M699 743l-23 -135h-330l-40 -147h70c195 0 263 -58 263 -166c0 -23 -3 -45 -10 -89c-29 -173 -155 -223 -340 -223c-111 0 -205 19 -241 29l19 117c46 -5 125 -14 206 -14c111 0 153 24 168 103c6 31 6 42 6 51c0 48 -31 65 -130 65h-204l106 409h480z" />
    <glyph glyph-name="six" unicode="6" horiz-adv-x="688" 
d="M677 214c-35 -189 -176 -231 -333 -231c-165 0 -253 67 -253 218c0 33 4 68 11 106l29 165c33 189 108 287 357 287c103 0 205 -18 243 -28l-20 -117c-70 6 -139 12 -224 12c-131 0 -151 -47 -169 -142l-5 -26c37 9 98 15 135 15c141 0 241 -40 241 -172
c0 -17 -4 -45 -12 -87zM494 229c9 46 11 60 11 71c0 49 -35 59 -95 59c-28 0 -75 -3 -115 -12l-16 -86c-6 -29 -8 -52 -8 -71c0 -63 33 -80 95 -80c70 0 113 33 128 119z" />
    <glyph glyph-name="seven" unicode="7" horiz-adv-x="636" 
d="M702 595l-432 -595h-198l449 608h-372l23 135h556z" />
    <glyph glyph-name="eight" unicode="8" horiz-adv-x="714" 
d="M761 588c0 -85 -35 -159 -113 -205c38 -28 58 -81 58 -132c0 -235 -204 -268 -317 -268c-136 0 -306 7 -306 180c0 117 46 183 117 220c-34 26 -54 69 -54 125c0 206 140 251 342 251c146 0 273 -26 273 -171zM523 267c0 41 -19 59 -66 59h-85c-61 0 -86 -30 -99 -106
c-3 -19 -5 -33 -5 -44c0 -59 41 -70 104 -70h6c73 0 120 17 139 112c4 22 6 37 6 49zM574 574c0 50 -40 62 -103 62h-5c-82 0 -139 -28 -139 -137c0 -36 16 -57 64 -57h85c72 0 98 53 98 132z" />
    <glyph glyph-name="nine" unicode="9" horiz-adv-x="688" 
d="M141 528c35 189 176 231 333 231c165 0 253 -67 253 -218c0 -33 -4 -68 -11 -106l-29 -165c-33 -189 -108 -287 -357 -287c-103 0 -205 18 -243 28l20 117c70 -6 139 -12 224 -12c131 0 151 47 169 142l5 26c-37 -9 -98 -15 -135 -15c-141 0 -241 40 -241 172
c0 17 4 45 12 87zM324 513c-9 -46 -11 -60 -11 -71c0 -49 35 -59 95 -59c28 0 75 3 115 12l16 86c5 29 8 52 8 71c0 63 -33 80 -95 80c-70 0 -113 -33 -128 -119z" />
    <glyph glyph-name="colon" unicode=":" horiz-adv-x="314" 
d="M244 0h-175l28 165h175zM315 406h-175l28 164h175z" />
    <glyph glyph-name="semicolon" unicode=";" horiz-adv-x="328" 
d="M300 165l-171 -259h-139l123 259h187zM333 406h-176l28 164h176z" />
    <glyph glyph-name="less" unicode="&#x3c;" horiz-adv-x="677" 
d="M647 120h-191l-279 266l279 265h191l-277 -265z" />
    <glyph glyph-name="equal" unicode="=" horiz-adv-x="677" 
d="M656 182v132h-488v-132h488zM656 454h-488v133h488v-133z" />
    <glyph glyph-name="greater" unicode="&#x3e;" horiz-adv-x="677" 
d="M647 386l-280 -266h-190l277 266l-277 265h190z" />
    <glyph glyph-name="question" unicode="?" horiz-adv-x="541" 
d="M291 0h-175l28 164h175zM146 645l20 115c60 20 140 32 222 32c150 0 211 -51 211 -141c0 -101 -63 -160 -141 -224c-111 -91 -125 -121 -136 -177l-5 -26h-151l5 26c14 84 29 130 112 207l16 15c50 47 90 84 90 137c0 35 -29 45 -88 45c-46 0 -88 0 -155 -9z" />
    <glyph glyph-name="at" unicode="@" horiz-adv-x="884" 
d="M900 404c0 -240 -164 -361 -422 -361c-151 0 -210 46 -210 140c0 27 3 55 10 89c31 150 105 220 251 220c68 0 131 -10 180 -22l-72 -317c117 31 168 139 168 254c0 123 -85 183 -239 183c-181 0 -300 -88 -358 -269c-19 -58 -35 -117 -35 -181c0 -133 76 -187 246 -187
c75 0 164 6 189 9l-6 -60c-26 -5 -115 -17 -191 -17c-230 0 -331 87 -331 255c0 76 17 141 41 209c76 213 228 315 454 315c203 0 325 -94 325 -260zM559 392c-13 1 -32 2 -47 2c-49 0 -80 -16 -104 -118c-7 -31 -13 -60 -13 -89c0 -44 24 -52 106 -52z" />
    <glyph glyph-name="A" unicode="A" horiz-adv-x="748" 
d="M724 0h-193l-18 187h-211l-88 -187h-195l338 743h290zM510 321l-18 197c-3 36 -4 76 -3 114h-7c-13 -38 -28 -78 -44 -114l-88 -197h160z" />
    <glyph glyph-name="B" unicode="B" horiz-adv-x="711" 
d="M756 573c0 -93 -43 -158 -117 -193c45 -23 67 -70 67 -123c0 -28 -4 -52 -9 -71c-41 -161 -189 -195 -382 -195c-72 0 -153 2 -241 9l130 743c95 7 174 10 240 10c195 0 312 -33 312 -180zM524 250c0 72 -52 73 -201 73h-12l-37 -197c24 -1 47 -1 72 -1
c100 0 178 18 178 125zM575 550c0 61 -50 68 -139 68c-24 0 -48 0 -73 -1l-33 -179h45c123 0 200 6 200 112z" />
    <glyph glyph-name="C" unicode="C" horiz-adv-x="616" 
d="M714 738l-23 -133c-49 4 -120 9 -181 9c-111 0 -169 -37 -199 -200l-16 -85c-6 -33 -9 -61 -9 -83c0 -93 48 -117 137 -117c61 0 133 4 183 8l-22 -134c-38 -9 -143 -20 -205 -20c-178 0 -282 66 -282 247c0 35 3 73 11 116l16 85c50 267 180 328 392 328
c62 0 163 -11 198 -21z" />
    <glyph glyph-name="D" unicode="D" horiz-adv-x="738" 
d="M771 498c0 -32 -3 -67 -10 -105l-14 -77c-43 -238 -163 -326 -419 -326c-97 0 -160 3 -255 10l131 743c96 7 156 10 249 10c231 0 318 -86 318 -255zM589 506c0 105 -71 105 -225 105l-86 -479c181 0 249 1 286 203l14 77c7 40 11 71 11 94z" />
    <glyph glyph-name="E" unicode="E" horiz-adv-x="628" 
d="M710 743l-23 -136h-319l-30 -162h298l-22 -130h-298l-33 -179h319l-23 -136h-506l131 743h506z" />
    <glyph glyph-name="F" unicode="F" horiz-adv-x="619" 
d="M711 743l-24 -138h-320l-29 -161h297l-21 -130h-298l-56 -314h-187l131 743h507z" />
    <glyph glyph-name="G" unicode="G" horiz-adv-x="705" 
d="M770 732l-22 -130c-63 6 -141 12 -223 12c-117 0 -185 -24 -218 -198l-17 -88c-8 -40 -11 -72 -11 -96c0 -81 46 -104 127 -104c30 0 61 1 86 3l49 270h173l-69 -394c-54 -10 -160 -24 -271 -24c-152 0 -275 58 -275 255c0 32 4 67 11 108l16 88c54 298 224 325 389 325
c110 0 222 -18 255 -27z" />
    <glyph glyph-name="H" unicode="H" horiz-adv-x="800" 
d="M858 743l-131 -743h-187l55 313h-279l-55 -313h-188l131 743h188l-52 -288h279l52 288h187z" />
    <glyph glyph-name="I" unicode="I" horiz-adv-x="333" 
d="M391 743l-131 -743h-187l131 743h187z" />
    <glyph glyph-name="J" unicode="J" horiz-adv-x="333" 
d="M391 743l-137 -766c-25 -139 -90 -192 -230 -192c-33 0 -76 4 -98 9l28 113h44c51 0 61 16 69 63l137 773h187z" />
    <glyph glyph-name="K" unicode="K" horiz-adv-x="738" 
d="M863 743l-346 -370l209 -373h-217l-184 348l-62 -348h-188l132 743h188l-61 -339l309 339h220z" />
    <glyph glyph-name="L" unicode="L" horiz-adv-x="579" 
d="M575 141l-23 -141h-479l131 743h188l-108 -602h291z" />
    <glyph glyph-name="M" unicode="M" horiz-adv-x="896" 
d="M954 743l-131 -743h-181l68 368c8 44 15 78 26 121h-2c-22 -32 -44 -66 -66 -95l-128 -173h-108l-61 173c-10 29 -22 63 -31 95h-2c-6 -43 -10 -77 -18 -121l-67 -368h-181l132 743h180l95 -264c10 -28 21 -59 30 -90h2c21 31 42 63 63 91l194 263h186z" />
    <glyph glyph-name="N" unicode="N" horiz-adv-x="776" 
d="M836 743l-131 -743h-195l-144 388c-12 32 -24 68 -33 101h-2c-6 -38 -12 -80 -20 -120l-68 -369h-170l132 743h191l146 -381c13 -32 26 -72 35 -105h2c4 35 11 82 19 127l67 359h171z" />
    <glyph glyph-name="O" unicode="O" horiz-adv-x="745" 
d="M775 502c0 -36 -4 -73 -10 -110l-13 -76c-44 -257 -176 -333 -375 -333c-172 0 -276 78 -276 262c0 34 3 68 9 105l13 76c44 258 188 333 378 333c172 0 274 -72 274 -257zM594 509c0 78 -33 105 -113 105c-95 0 -149 -51 -176 -206l-13 -75c-6 -32 -10 -70 -10 -94
c0 -82 38 -111 111 -111c100 0 148 49 177 206l14 75c6 34 10 75 10 100z" />
    <glyph glyph-name="P" unicode="P" horiz-adv-x="691" 
d="M755 547c0 -22 -2 -43 -6 -66c-38 -221 -238 -227 -450 -227l-46 -254h-180l132 743c78 6 147 9 229 9c184 0 321 -37 321 -205zM571 537c0 63 -47 75 -138 75c-24 0 -50 -1 -71 -1l-39 -216h13c129 0 235 0 235 142z" />
    <glyph glyph-name="Q" unicode="Q" horiz-adv-x="745" 
d="M775 502c0 -36 -4 -73 -10 -110l-13 -76c-37 -217 -136 -310 -297 -327l-4 -17c-3 -13 -3 -22 -4 -29c0 -19 12 -23 52 -23h82l-17 -102c-31 -9 -96 -17 -151 -17c-86 0 -141 27 -141 113c0 14 2 28 6 54l4 27c-118 25 -181 108 -181 250c0 34 3 68 9 105l13 76
c44 258 188 333 378 333c172 0 274 -72 274 -257zM594 509c0 78 -33 105 -113 105c-95 0 -149 -51 -176 -206l-13 -75c-6 -32 -10 -70 -10 -94c0 -82 38 -111 111 -111c100 0 148 49 177 206l14 75c6 34 10 75 10 100z" />
    <glyph glyph-name="R" unicode="R" horiz-adv-x="718" 
d="M754 545c0 -133 -60 -201 -161 -245l113 -300h-187l-102 265c-17 -1 -34 -2 -51 -2c-22 0 -44 1 -66 1l-47 -264h-180l132 743c74 5 149 9 241 9c165 0 308 -34 308 -207zM570 531c0 67 -47 81 -142 81c-24 0 -42 0 -66 -1l-40 -216c167 0 248 9 248 136z" />
    <glyph glyph-name="S" unicode="S" horiz-adv-x="646" 
d="M694 734l-20 -121c-85 8 -136 13 -221 13c-67 0 -131 -11 -131 -78c0 -33 16 -48 69 -71l98 -43c97 -43 149 -97 149 -200c0 -176 -135 -251 -324 -251c-104 0 -206 12 -253 24l20 122c58 -6 124 -11 227 -11c77 0 139 23 139 94c0 34 -20 52 -74 77l-100 45
c-83 37 -138 94 -138 198c0 182 155 227 324 227c105 0 193 -15 235 -25z" />
    <glyph glyph-name="T" unicode="T" horiz-adv-x="670" 
d="M775 743l-23 -137h-215l-108 -606h-188l108 606h-215l23 137h618z" />
    <glyph glyph-name="U" unicode="U" horiz-adv-x="763" 
d="M827 743l-81 -459c-38 -213 -145 -301 -357 -301c-186 0 -275 87 -275 232c0 41 4 72 11 110l74 418h185l-77 -437c-6 -34 -10 -62 -10 -86c0 -68 32 -95 110 -95c107 0 136 50 159 181l77 437h184z" />
    <glyph glyph-name="V" unicode="V" horiz-adv-x="749" 
d="M852 743l-335 -743h-285l-72 743h186l40 -497c3 -43 3 -95 4 -136h2c14 41 31 93 50 136l218 497h192z" />
    <glyph glyph-name="W" unicode="W" horiz-adv-x="995" 
d="M1089 743l-255 -743h-227l-23 352c-2 33 -2 65 -3 103h-3c-10 -28 -23 -67 -39 -103l-150 -352h-228l7 743h184l-13 -405c-2 -52 -4 -99 -8 -142h4c18 44 35 90 53 132l118 275h194l15 -277c2 -41 5 -87 5 -130h4c13 44 25 87 43 142l136 405h186z" />
    <glyph glyph-name="X" unicode="X" horiz-adv-x="735" 
d="M835 743l-303 -372l176 -371h-195l-119 240l-196 -240h-180l314 381l-171 362h195l114 -228l182 228h183z" />
    <glyph glyph-name="Y" unicode="Y" horiz-adv-x="706" 
d="M823 743l-332 -475l-47 -268h-182l47 268l-164 475h186l64 -196c11 -34 20 -77 27 -114h5c18 36 45 80 69 114l136 196h191z" />
    <glyph glyph-name="Z" unicode="Z" horiz-adv-x="658" 
d="M729 743l-24 -145l-411 -459h336l-23 -139h-556l23 143l412 460h-317l23 140h537z" />
    <glyph glyph-name="bracketleft" unicode="[" horiz-adv-x="437" 
d="M353 -202h-308l167 945h308l-22 -131h-134l-123 -684h134z" />
    <glyph glyph-name="backslash" unicode="\" horiz-adv-x="511" 
d="M479 0h-173l-147 743h172z" />
    <glyph glyph-name="bracketright" unicode="]" horiz-adv-x="437" 
d="M319 -202h-308l22 130h134l123 685h-134l22 130h308z" />
    <glyph glyph-name="asciicircum" unicode="^" horiz-adv-x="677" 
d="M693 428h-164l-117 248l-117 -248h-164l157 317h248z" />
    <glyph glyph-name="underscore" unicode="_" horiz-adv-x="612" 
d="M578 -138h-592l15 90h592z" />
    <glyph glyph-name="quoteleft" unicode="&#x2018;" horiz-adv-x="256" 
d="M373 779l-104 -256h-157l141 256h120z" />
    <glyph glyph-name="a" unicode="a" horiz-adv-x="654" 
d="M586 0h-162l5 29c-45 -26 -100 -43 -169 -43c-113 0 -176 67 -176 193c0 25 2 54 8 84l13 70c38 204 132 252 337 252c66 0 159 -5 243 -15zM436 137l56 313c-28 2 -66 3 -82 3c-74 0 -113 -20 -134 -136l-13 -70c-3 -24 -6 -43 -6 -58c0 -50 25 -72 81 -72
c34 0 68 9 98 20z" />
    <glyph glyph-name="b" unicode="b" horiz-adv-x="653" 
d="M669 394c0 -25 -3 -52 -8 -81l-13 -70c-37 -197 -140 -258 -332 -258c-80 0 -140 4 -248 16l137 778h174l-38 -214c36 15 79 21 120 21c142 0 208 -66 208 -192zM496 386c0 49 -24 67 -81 67c-21 0 -67 -3 -97 -17l-57 -314c18 -2 46 -4 79 -4c88 0 116 29 137 139l13 70
c4 23 6 43 6 59z" />
    <glyph glyph-name="c" unicode="c" horiz-adv-x="533" 
d="M590 563l-20 -119c-74 5 -123 8 -157 8c-76 0 -116 -23 -137 -135l-12 -63c-4 -23 -6 -41 -6 -57c0 -64 31 -79 95 -79c34 0 83 2 159 8l-20 -119c-34 -8 -103 -22 -189 -22c-153 0 -217 78 -217 202c0 25 3 52 8 83l11 64c31 180 124 251 299 251c90 0 155 -14 186 -22z
" />
    <glyph glyph-name="d" unicode="d" horiz-adv-x="654" 
d="M491 445c-29 5 -62 8 -84 8c-72 0 -110 -20 -131 -136l-13 -70c-4 -23 -6 -43 -6 -58c0 -51 24 -72 80 -72c34 0 68 9 99 20zM722 779l-137 -779h-161l5 29c-44 -24 -102 -44 -166 -44c-116 0 -179 69 -179 194c0 26 2 54 8 85l13 70c37 199 141 251 303 251
c40 0 72 -3 103 -9l37 203h174z" />
    <glyph glyph-name="e" unicode="e" horiz-adv-x="637" 
d="M652 376c0 -40 -5 -79 -17 -138h-374c-4 -25 -7 -41 -7 -54c0 -46 25 -69 117 -69c59 0 109 3 216 10l-19 -115c-47 -11 -129 -25 -231 -25c-164 0 -251 61 -251 205c0 29 4 61 10 96l5 30c33 200 151 269 317 269c167 0 234 -85 234 -209zM488 385c0 43 -19 76 -86 76
c-85 0 -111 -58 -122 -120l-2 -8h204c4 21 6 39 6 52z" />
    <glyph glyph-name="f" unicode="f" horiz-adv-x="457" 
d="M565 778l-17 -98c-33 1 -56 3 -80 3c-51 0 -57 -18 -67 -68l-9 -45h133l-20 -124h-133l-86 -481c-25 -139 -83 -183 -216 -183c-40 0 -80 5 -95 9l19 110c18 -1 35 -1 55 -1c42 0 54 14 63 65l86 481l-93 9l18 115h96l10 52c22 117 73 173 202 173c52 0 100 -8 134 -17z
" />
    <glyph glyph-name="g" unicode="g" horiz-adv-x="653" 
d="M686 570l-103 -586c-23 -134 -95 -201 -297 -201c-116 0 -220 18 -239 23l18 105c64 -4 152 -9 220 -9c98 0 116 25 125 82l3 20c-20 -3 -61 -7 -92 -7c-150 0 -233 65 -233 203c0 22 3 47 8 74l10 59c31 183 137 252 349 252c83 0 167 -7 231 -15zM493 449
c-10 1 -41 4 -76 4c-93 0 -122 -41 -139 -134l-11 -58c-4 -22 -5 -39 -5 -55c0 -58 29 -79 94 -79c30 0 67 4 79 6z" />
    <glyph glyph-name="h" unicode="h" 
d="M677 440c0 -25 -5 -58 -11 -95l-59 -345h-175l63 359c3 17 4 31 4 42c0 40 -19 52 -61 52c-44 0 -91 -14 -120 -26l-75 -427h-175l138 779h174l-42 -234c47 22 114 40 178 40c124 0 161 -60 161 -145z" />
    <glyph glyph-name="i" unicode="i" horiz-adv-x="318" 
d="M345 570l-99 -570h-174l99 570h174zM386 779l-23 -131h-180l23 131h180z" />
    <glyph glyph-name="j" unicode="j" horiz-adv-x="318" 
d="M345 570l-107 -604c-24 -139 -84 -183 -216 -183c-40 0 -80 4 -95 8l19 110c18 0 36 -1 55 -1c43 0 54 15 63 66l107 604h174zM386 779l-23 -131h-182l23 131h182z" />
    <glyph glyph-name="k" unicode="k" horiz-adv-x="624" 
d="M710 570l-246 -274l150 -296h-190l-134 270l-47 -270h-175l138 779h174l-81 -457l218 248h193z" />
    <glyph glyph-name="l" unicode="l" horiz-adv-x="317" 
d="M382 779l-136 -779h-174l137 779h173z" />
    <glyph glyph-name="m" unicode="m" horiz-adv-x="962" 
d="M971 445c0 -27 -4 -56 -9 -83l-65 -362h-173l64 371c3 18 6 33 6 46c0 25 -10 38 -50 38c-27 0 -67 -11 -101 -28c0 -18 -4 -38 -7 -56l-65 -371h-175l65 371c3 19 6 34 6 47c0 25 -10 37 -46 37c-33 0 -73 -15 -103 -29l-75 -426h-175l101 570h163l-8 -45
c55 38 120 60 183 60c70 0 106 -23 125 -62c71 44 132 62 185 62c120 0 154 -60 154 -140z" />
    <glyph glyph-name="n" unicode="n" horiz-adv-x="671" 
d="M677 440c0 -30 -6 -63 -11 -95l-59 -345h-175l63 359c3 18 5 32 5 44c0 35 -16 50 -57 50c-35 0 -80 -11 -126 -34l-74 -419h-175l100 570h164l-7 -44c63 39 132 59 190 59c128 0 162 -63 162 -145z" />
    <glyph glyph-name="o" unicode="o" horiz-adv-x="642" 
d="M655 381c0 -25 -4 -58 -8 -79l-11 -63c-33 -188 -143 -254 -310 -254c-157 0 -239 68 -239 204c0 27 0 54 7 88l11 55c37 188 144 253 309 253c154 0 241 -62 241 -204zM482 379c0 48 -19 73 -83 73c-76 0 -105 -35 -124 -136l-12 -62c-5 -25 -6 -45 -6 -65
c0 -51 23 -71 82 -71c78 0 105 35 125 136l12 62c5 28 6 46 6 63z" />
    <glyph glyph-name="p" unicode="p" horiz-adv-x="654" 
d="M670 413c0 -34 -6 -91 -19 -164c-38 -207 -142 -263 -312 -263c-33 0 -76 4 -99 9l-35 -198h-174l136 773h161l-6 -36c59 36 122 51 172 51c120 0 176 -60 176 -172zM495 385c0 50 -25 67 -76 67c-29 0 -58 -6 -104 -24l-55 -302c29 -6 57 -9 84 -9c76 0 111 23 135 147
c14 75 16 101 16 121z" />
    <glyph glyph-name="q" unicode="q" horiz-adv-x="652" 
d="M683 569l-136 -772h-173l38 210c-43 -16 -87 -22 -118 -22c-144 0 -209 63 -209 193c0 28 2 60 9 96l9 47c42 219 153 264 332 264c73 0 153 -5 248 -16zM491 448c-19 2 -55 4 -77 4c-79 0 -119 -20 -141 -148l-8 -47c-5 -28 -9 -51 -9 -70c0 -52 21 -69 73 -69
c22 0 60 3 105 19z" />
    <glyph glyph-name="r" unicode="r" horiz-adv-x="435" 
d="M522 585l-25 -146c-63 0 -134 -11 -181 -26l-73 -413h-175l101 570h161l-8 -47c65 52 138 62 200 62z" />
    <glyph glyph-name="s" unicode="s" horiz-adv-x="543" 
d="M577 562l-18 -105c-71 7 -139 11 -182 11c-42 0 -92 -2 -92 -50c0 -24 18 -34 65 -53l48 -19c99 -39 139 -83 139 -163c0 -148 -123 -197 -285 -197c-80 0 -170 13 -200 22l18 105c74 -4 108 -11 192 -11c55 0 101 9 101 58c0 28 -14 37 -75 62l-42 17
c-87 35 -134 84 -134 167c0 151 129 179 261 179c86 0 160 -11 204 -23z" />
    <glyph glyph-name="t" unicode="t" horiz-adv-x="446" 
d="M515 570l-21 -124h-127l-51 -277c-4 -21 -5 -32 -5 -40c0 -20 11 -25 42 -25s65 3 79 4l-17 -107c-16 -4 -71 -16 -130 -16c-101 0 -146 44 -146 131c0 17 1 36 5 57l49 273l-97 9l18 115h100l26 144h174l-26 -144h127z" />
    <glyph glyph-name="u" unicode="u" 
d="M704 570l-100 -570h-164l7 46c-61 -35 -129 -61 -202 -61c-119 0 -149 67 -149 147c0 30 4 61 9 91l61 347h174l-63 -361c-4 -20 -5 -35 -5 -48c0 -33 15 -44 52 -44c36 0 82 12 131 31l75 422h174z" />
    <glyph glyph-name="v" unicode="v" horiz-adv-x="620" 
d="M701 570l-267 -570h-249l-68 570h174l25 -310c4 -52 5 -108 8 -154c18 47 38 101 61 154l134 310h182z" />
    <glyph glyph-name="w" unicode="w" horiz-adv-x="943" 
d="M1013 570l-218 -570h-215l-35 243c-6 43 -9 79 -11 114c-12 -35 -26 -71 -47 -114l-122 -243h-219l-19 570h175v-281c0 -51 -2 -97 -4 -136h5c19 45 35 89 58 135l100 198h188l25 -197c6 -47 9 -96 15 -137c13 40 28 85 46 137l100 281h178z" />
    <glyph glyph-name="x" unicode="x" horiz-adv-x="615" 
d="M5 0l258 292l-143 278h187l86 -167l141 167h164l-245 -284l148 -286h-187l-91 175l-153 -175h-165z" />
    <glyph glyph-name="y" unicode="y" horiz-adv-x="637" 
d="M716 570l-282 -573c-74 -150 -119 -214 -275 -214c-61 0 -120 6 -158 14l19 111c49 -2 72 -2 100 -2c53 0 68 18 96 70l15 30l-106 564h181l32 -292c5 -50 6 -100 9 -152c20 52 36 98 60 152l129 292h180z" />
    <glyph glyph-name="z" unicode="z" horiz-adv-x="548" 
d="M604 570l-22 -130l-324 -316h268l-21 -124h-465l21 129l326 316h-259l20 125h456z" />
    <glyph glyph-name="braceleft" unicode="{" horiz-adv-x="462" 
d="M377 -203h-64c-160 0 -216 39 -216 138c0 19 1 42 6 66l23 125c2 14 1 26 3 36c0 35 -14 51 -44 70l17 95c47 26 67 43 78 105l24 133c27 151 83 178 277 178h63l-22 -130h-61c-66 0 -73 -6 -83 -58l-25 -132c-16 -83 -43 -119 -107 -153c39 -27 58 -53 58 -102
c0 -15 -2 -32 -5 -51l-24 -132c-2 -11 -3 -20 -3 -28c0 -27 15 -30 66 -30h61z" />
    <glyph glyph-name="bar" unicode="|" horiz-adv-x="364" 
d="M342 -203h-174v946h174v-946z" />
    <glyph glyph-name="braceright" unicode="}" horiz-adv-x="462" 
d="M180 741h63c160 0 218 -37 218 -136c0 -19 -2 -42 -7 -66l-24 -127c-3 -14 -4 -26 -4 -36c0 -35 15 -52 44 -71l-16 -95c-47 -26 -67 -42 -78 -105l-25 -138c-26 -144 -82 -172 -276 -172h-63l22 130h61c65 0 74 6 84 58l24 131c15 84 43 119 107 153
c-40 27 -58 54 -58 103c0 14 1 31 5 51l24 132c2 11 3 20 3 27c0 27 -15 31 -66 31h-60z" />
    <glyph glyph-name="asciitilde" unicode="~" horiz-adv-x="677" 
d="M676 488c0 -114 -39 -167 -132 -167c-49 0 -83 7 -125 32l-61 36c-23 13 -35 23 -55 23c-29 0 -36 -17 -36 -53v-32h-120v32c0 120 55 168 141 168c41 0 72 -12 112 -36l60 -36c23 -14 39 -20 62 -20c31 0 35 20 35 53v32h119v-32z" />
    <glyph glyph-name="exclamdown" unicode="&#xa1;" horiz-adv-x="330" 
d="M307 351l-83 -556h-193l115 556h161zM175 574h179l-28 -165h-180z" />
    <glyph glyph-name="cent" unicode="&#xa2;" horiz-adv-x="555" 
d="M592 563l-19 -120c-49 4 -100 9 -157 9c-77 0 -117 -23 -138 -137l-11 -59c-4 -23 -7 -43 -7 -59c0 -64 27 -79 96 -79c40 0 95 3 158 7l-19 -117c-20 -7 -69 -15 -127 -19l-19 -110h-144l21 116c-96 23 -138 91 -138 195c0 26 2 54 8 84l11 58c29 152 99 226 221 246
l20 112h144l-19 -108c57 -5 104 -15 119 -19z" />
    <glyph glyph-name="sterling" unicode="&#xa3;" horiz-adv-x="658" 
d="M736 739l-21 -128c-41 5 -129 11 -187 11c-97 0 -113 -27 -132 -124l-11 -55h209l-20 -121h-209l-18 -101c-7 -38 -22 -63 -42 -88h323l-22 -133h-526l18 109c42 34 59 70 67 112l19 101h-76l21 121h75l11 54c37 183 114 263 308 263c83 0 161 -9 213 -21z" />
    <glyph glyph-name="fraction" unicode="&#x2044;" horiz-adv-x="556" 
d="M731 745l-628 -745h-147l627 745h148z" />
    <glyph glyph-name="yen" unicode="&#xa5;" horiz-adv-x="748" 
d="M736 206h-237l-36 -206h-182l37 206h-237l17 99h223l-34 88h-173l17 99h122l-84 251h194l57 -196c9 -35 18 -79 26 -111h2c19 33 42 76 63 111l130 196h195l-173 -251h123l-17 -99h-174l-65 -88h224z" />
    <glyph glyph-name="florin" unicode="&#x192;" horiz-adv-x="640" 
d="M699 743l-23 -99c-35 2 -52 3 -71 3c-46 0 -64 -8 -80 -65l-37 -129h148l-29 -121h-148l-83 -322c-35 -136 -114 -171 -215 -171c-59 0 -101 8 -132 15l23 100c33 -2 52 -3 74 -3c39 0 63 5 78 64l82 317h-133l28 121h133l36 134c33 136 116 172 220 172
c54 0 97 -8 129 -16z" />
    <glyph glyph-name="section" unicode="&#xa7;" horiz-adv-x="687" 
d="M47 -195l21 124c107 -9 185 -11 233 -11c72 0 132 23 132 102c0 32 -20 52 -88 81l-105 44c-81 34 -122 78 -122 163c0 49 18 100 57 146c-11 20 -16 48 -16 80c0 183 157 223 324 223c103 0 205 -17 238 -25l-21 -120c-86 8 -171 11 -229 11c-65 0 -129 -11 -129 -84
c0 -31 16 -50 69 -72l104 -43c105 -44 147 -93 147 -178c0 -45 -18 -94 -58 -139c11 -21 16 -52 16 -81c0 -184 -146 -244 -325 -244c-94 0 -185 11 -248 23zM505 173c7 19 11 37 11 56c0 33 -18 57 -76 80l-105 42c-39 16 -57 29 -68 48c-9 -23 -12 -47 -12 -65
c0 -35 13 -55 72 -79l107 -43c31 -13 58 -28 71 -39z" />
    <glyph glyph-name="currency" unicode="&#xa4;" horiz-adv-x="665" 
d="M680 183l-77 -75l-80 77c-35 -20 -76 -31 -115 -31c-41 0 -81 10 -117 31l-82 -78l-76 74l81 79c-21 34 -32 75 -32 114s10 78 32 112l-82 80l77 73l81 -78c36 21 78 31 118 31c41 0 81 -9 116 -31l80 76l76 -74l-79 -77c21 -35 33 -74 33 -113s-11 -79 -33 -114z
M530 374c0 66 -57 119 -122 119c-67 0 -123 -53 -123 -119c0 -68 58 -120 123 -120c64 0 122 53 122 120z" />
    <glyph glyph-name="quotesingle" unicode="'" horiz-adv-x="232" 
d="M347 770l-115 -262h-123l85 262h153z" />
    <glyph glyph-name="quotedblleft" unicode="&#x201c;" horiz-adv-x="482" 
d="M362 779l-104 -256h-156l139 256h121zM478 779h121l-105 -256h-156z" />
    <glyph glyph-name="guillemotleft" unicode="&#xab;" horiz-adv-x="773" 
d="M819 513l-194 -230l105 -213h-171l-114 222l191 221h183zM472 513h-182l-191 -221l113 -222h171l-104 213z" />
    <glyph glyph-name="guilsinglleft" unicode="&#x2039;" horiz-adv-x="425" 
d="M470 513l-193 -230l104 -213h-171l-113 222l191 221h182z" />
    <glyph glyph-name="guilsinglright" unicode="&#x203a;" horiz-adv-x="425" 
d="M430 291l-192 -221h-182l193 230l-104 213h171z" />
    <glyph glyph-name="endash" unicode="&#x2013;" horiz-adv-x="474" 
d="M457 234h-359l21 122h359z" />
    <glyph glyph-name="dagger" unicode="&#x2020;" horiz-adv-x="539" 
d="M559 451h-127l-102 -581h-174l102 581h-119l22 134h120l35 193h173l-34 -193h127z" />
    <glyph glyph-name="daggerdbl" unicode="&#x2021;" horiz-adv-x="539" 
d="M518 214h-127l-61 -344h-174l61 344h-119l22 132h120l20 116h-119l22 133h120l32 182h174l-32 -182h127l-23 -133h-127l-20 -116h127z" />
    <glyph glyph-name="periodcentered" unicode="&#xb7;" horiz-adv-x="302" 
d="M283 286h-165l29 165h165z" />
    <glyph glyph-name="paragraph" unicode="&#xb6;" horiz-adv-x="753" 
d="M822 743l-166 -939h-106l147 834h-63l-147 -834h-107l78 439h-49c-155 0 -276 53 -276 203c0 19 2 39 8 70c35 199 180 227 361 227h320z" />
    <glyph glyph-name="bullet" unicode="&#x2022;" horiz-adv-x="513" 
d="M520 367c0 -102 -86 -184 -191 -184s-190 82 -190 184c0 103 85 186 190 186s191 -83 191 -186z" />
    <glyph glyph-name="quotesinglbase" unicode="&#x201a;" horiz-adv-x="256" 
d="M263 157l-139 -256h-122l105 256h156z" />
    <glyph glyph-name="quotedblbase" unicode="&#x201e;" horiz-adv-x="482" 
d="M499 157l-140 -256h-121l105 256h156zM263 157h-156l-105 -256h122z" />
    <glyph glyph-name="quotedblright" unicode="&#x201d;" horiz-adv-x="482" 
d="M339 523l104 256h156l-139 -256h-121zM223 523h-121l105 256h156z" />
    <glyph glyph-name="guillemotright" unicode="&#xbb;" horiz-adv-x="773" 
d="M776 291l-192 -221h-182l193 230l-104 213h171zM430 291l-114 222h-171l104 -213l-193 -230h182z" />
    <glyph glyph-name="ellipsis" unicode="&#x2026;" horiz-adv-x="942" 
d="M238 0h-175l28 164h175zM558 0h-174l28 164h174zM879 0h-175l28 164h175z" />
    <glyph glyph-name="perthousand" unicode="&#x2030;" horiz-adv-x="1621" 
d="M1154 306c0 -31 -3 -56 -8 -84l-7 -40c-22 -126 -90 -193 -228 -193c-120 0 -165 65 -165 161c0 22 2 46 7 73l8 43c23 122 87 191 227 191c121 0 166 -61 166 -151zM1028 307c0 41 -19 54 -54 54c-45 0 -72 -26 -87 -115l-7 -41c-5 -28 -8 -48 -8 -63
c0 -44 15 -57 52 -57c47 0 71 23 88 114l8 42c4 21 7 42 8 66zM1028 745l-628 -745h-146l628 745h146zM541 607c0 -30 -3 -55 -8 -83l-8 -41c-25 -126 -88 -192 -228 -192c-120 0 -165 65 -165 161c0 22 2 45 7 73l8 42c23 123 89 192 228 192c120 0 166 -61 166 -152z
M414 609c0 41 -18 54 -53 54c-47 0 -70 -26 -87 -115l-8 -41c-6 -32 -8 -53 -8 -68c0 -40 18 -53 52 -53c45 0 74 23 89 114l7 42c5 30 7 49 8 67zM1621 305c0 -31 -3 -56 -8 -84l-7 -40c-22 -126 -90 -193 -228 -193c-120 0 -165 65 -165 161c0 22 2 46 7 73l8 43
c23 122 87 191 227 191c121 0 166 -61 166 -151zM1495 301c0 46 -19 59 -54 59c-45 0 -72 -26 -87 -115l-7 -41c-5 -28 -8 -48 -8 -63c0 -44 15 -57 52 -57c47 0 71 23 88 114l8 42c6 27 7 45 8 61z" />
    <glyph glyph-name="questiondown" unicode="&#xbf;" horiz-adv-x="541" 
d="M350 576h175l-28 -164h-175zM495 -69l-20 -115c-60 -20 -140 -32 -222 -32c-150 0 -211 51 -211 141c0 101 63 160 141 224c111 91 125 121 136 177l5 26h151l-5 -26c-14 -84 -29 -130 -112 -207l-16 -15c-50 -47 -90 -84 -90 -137c0 -35 29 -45 88 -45c46 0 88 0 155 9z
" />
    <glyph glyph-name="grave" unicode="`" horiz-adv-x="485" 
d="M483 631h-161l-141 146h196z" />
    <glyph glyph-name="acute" unicode="&#xb4;" horiz-adv-x="485" 
d="M569 777l-192 -146h-163l157 146h198z" />
    <glyph glyph-name="circumflex" unicode="&#x2c6;" horiz-adv-x="545" 
d="M621 631h-148l-71 82l-102 -82h-156l160 146h209z" />
    <glyph glyph-name="tilde" unicode="&#x2dc;" horiz-adv-x="516" 
d="M625 790c-11 -128 -75 -163 -138 -163c-36 0 -70 9 -108 31l-43 25c-20 13 -33 21 -49 21c-26 0 -37 -18 -45 -72h-98c13 131 77 163 145 163c36 0 62 -8 99 -29l43 -26c20 -12 34 -21 53 -21c25 0 40 20 43 71h98z" />
    <glyph glyph-name="macron" unicode="&#xaf;" horiz-adv-x="503" 
d="M570 653h-408l16 100h409z" />
    <glyph glyph-name="breve" unicode="&#x2d8;" horiz-adv-x="513" 
d="M602 788c-32 -111 -112 -159 -226 -159c-89 0 -191 32 -189 159h101c1 -53 32 -76 93 -76c56 0 101 17 120 76h101z" />
    <glyph glyph-name="dotaccent" unicode="&#x2d9;" horiz-adv-x="426" 
d="M417 651h-180l22 127h180z" />
    <glyph glyph-name="dieresis" unicode="&#xa8;" horiz-adv-x="508" 
d="M587 772l-22 -127h-140l22 127h140zM333 772h-140l-22 -127h140z" />
    <glyph glyph-name="ring" unicode="&#x2da;" horiz-adv-x="445" 
d="M459 739c0 -80 -60 -122 -141 -122c-82 0 -144 42 -144 122c0 79 62 122 144 122c81 0 141 -43 141 -122zM373 739c0 34 -24 48 -55 48c-33 0 -56 -14 -56 -48c0 -33 23 -48 56 -48c31 0 55 15 55 48z" />
    <glyph glyph-name="cedilla" unicode="&#xb8;" horiz-adv-x="454" 
d="M336 -63l-157 -140h-159l131 140h185z" />
    <glyph glyph-name="hungarumlaut" unicode="&#x2dd;" horiz-adv-x="621" 
d="M764 776l-192 -146h-150l157 146h185zM305 776h184l-192 -146h-150z" />
    <glyph glyph-name="ogonek" unicode="&#x2db;" horiz-adv-x="458" 
d="M344 -200c-25 -7 -78 -17 -138 -17c-92 0 -133 34 -133 90c0 87 103 120 181 137l126 -10c-72 -22 -155 -52 -155 -97c0 -17 13 -26 48 -26c29 0 58 3 84 5z" />
    <glyph glyph-name="caron" unicode="&#x2c7;" horiz-adv-x="545" 
d="M169 777h148l72 -82l101 82h157l-160 -146h-208z" />
    <glyph glyph-name="emdash" unicode="&#x2014;" horiz-adv-x="650" 
d="M633 234h-535l21 122h535z" />
    <glyph glyph-name="AE" unicode="&#xc6;" horiz-adv-x="1031" 
d="M984 0h-506l34 187h-193l-86 -187h-193l332 743h743l-24 -136h-319l-30 -162h298l-22 -130h-298l-33 -179h319zM535 320l55 310h-89c-14 -35 -29 -74 -44 -109l-90 -201h168z" />
    <glyph glyph-name="ordfeminine" unicode="&#xaa;" horiz-adv-x="457" 
d="M504 679c-1 -13 -2 -26 -5 -46l-39 -221h-112l4 25c-27 -16 -74 -34 -121 -34c-66 0 -96 32 -96 90c0 124 92 134 207 134h32l3 17c2 8 2 15 2 21c0 23 -13 28 -59 28c-41 0 -89 -4 -124 -7l13 72c27 10 88 23 153 23c97 0 142 -32 142 -102zM369 567h-36
c-42 0 -81 -6 -81 -60c0 -23 12 -25 34 -25c28 0 58 9 71 15z" />
    <glyph glyph-name="Lslash" unicode="&#x141;" horiz-adv-x="590" 
d="M57 220l19 108l75 51l64 364h188l-46 -255l110 75l-19 -108l-110 -75l-43 -239h291l-23 -141h-479l48 272z" />
    <glyph glyph-name="Oslash" unicode="&#xd8;" horiz-adv-x="745" 
d="M775 502c0 -36 -4 -73 -10 -110l-13 -76c-43 -257 -177 -333 -375 -333c-65 0 -120 11 -164 34l-30 -34h-160l106 121c-19 37 -28 84 -28 141c0 34 3 68 9 105l13 76c44 258 188 333 378 333c69 0 128 -12 172 -38l34 38h160l-114 -130c14 -34 22 -77 22 -127zM292 333
c-3 -17 -6 -36 -8 -54l278 316c-18 13 -45 19 -81 19c-95 0 -149 -51 -176 -206zM584 409c2 11 4 23 5 35l-265 -302c17 -10 40 -14 69 -14c100 0 148 49 177 206z" />
    <glyph glyph-name="OE" unicode="&#x152;" horiz-adv-x="1016" 
d="M992 136l-22 -136h-442c-56 -9 -109 -17 -167 -17c-157 0 -264 74 -264 260c0 31 3 66 10 104l14 79c44 263 191 333 371 333c61 0 115 -7 166 -16h443l-24 -136h-319l-30 -162h298l-22 -130h-298l-33 -179h319zM489 135c0 0 25 138 86 471c-38 5 -60 8 -92 8
c-93 0 -153 -48 -181 -205l-14 -78c-6 -36 -9 -65 -9 -88c0 -84 43 -116 115 -116c32 0 50 2 95 8z" />
    <glyph glyph-name="ordmasculine" unicode="&#xba;" horiz-adv-x="462" 
d="M524 645c-2 -15 -2 -32 -4 -48l-5 -31c-20 -123 -97 -163 -214 -163c-102 0 -154 45 -154 137c0 14 0 30 3 47l5 31c20 124 97 163 213 163c101 0 156 -45 156 -136zM403 644c0 33 -16 45 -51 45c-44 0 -68 -20 -77 -81l-5 -32c-2 -12 -4 -23 -4 -31c0 -36 15 -50 51 -50
c44 0 67 20 77 81l5 32c2 15 4 27 4 36z" />
    <glyph glyph-name="ae" unicode="&#xe6;" horiz-adv-x="963" 
d="M980 378c0 -25 -3 -52 -18 -140h-374l-2 -8c-3 -18 -5 -35 -5 -50c0 -45 22 -71 115 -71c66 0 157 5 217 11l-19 -111c-47 -11 -140 -23 -235 -23c-101 0 -167 20 -203 67c-83 -51 -160 -67 -244 -67c-101 0 -147 49 -147 132c0 14 1 28 7 67c27 149 145 156 307 156h53
l6 31c2 15 4 28 4 37c0 36 -21 47 -92 47c-55 0 -116 -3 -187 -10l18 104c33 12 128 35 225 35c95 0 139 -16 167 -45c46 28 102 44 177 44c173 0 230 -91 230 -206zM814 385c0 43 -18 76 -85 76c-87 0 -112 -58 -123 -120l-2 -8h204c4 23 6 39 6 52zM423 251h-58
c-79 0 -114 -9 -127 -74c-5 -30 -5 -35 -5 -40c0 -31 22 -41 55 -41c45 0 92 18 111 28z" />
    <glyph glyph-name="dotlessi" unicode="&#x131;" horiz-adv-x="318" 
d="M246 0h-174l99 570h174z" />
    <glyph glyph-name="lslash" unicode="&#x142;" horiz-adv-x="352" 
d="M263 0h-174l46 266l-89 -68l24 132l89 68l67 381h174l-40 -228l89 68l-24 -132l-89 -68z" />
    <glyph glyph-name="oslash" unicode="&#xf8;" horiz-adv-x="642" 
d="M655 381c0 -25 -4 -58 -8 -79l-11 -63c-33 -188 -143 -254 -310 -254c-66 0 -118 12 -157 36l-34 -36h-103l83 88c-19 30 -28 69 -28 116c0 27 1 54 7 88l11 55c36 188 145 253 309 253c63 0 116 -11 155 -33l32 33h103l-80 -84c20 -31 31 -71 31 -120zM476 316l5 34
l-205 -216c13 -12 33 -16 63 -16c77 0 107 35 125 136zM263 254c-2 -11 -4 -21 -5 -31l202 214c-13 10 -32 15 -61 15c-75 0 -106 -35 -124 -136z" />
    <glyph glyph-name="oe" unicode="&#x153;" horiz-adv-x="1014" 
d="M1028 380c0 -26 -3 -53 -19 -142h-374l-1 -8c-4 -19 -7 -37 -7 -52c0 -43 23 -69 117 -69c65 0 157 5 216 11l-19 -111c-46 -11 -140 -23 -235 -23c-98 0 -156 26 -188 63c-52 -40 -111 -64 -202 -64c-148 0 -231 69 -231 208c0 23 3 47 19 137c32 187 144 255 318 255
c82 0 142 -21 177 -62c49 42 118 62 195 62c178 0 234 -91 234 -205zM862 386c0 42 -18 76 -85 76c-86 0 -111 -57 -122 -112l-3 -17h203c5 23 7 40 7 53zM482 376c0 55 -27 77 -83 77c-70 0 -107 -36 -125 -137c-16 -87 -18 -106 -18 -122c0 -55 26 -77 82 -77
c71 0 108 36 126 137l12 62c4 25 6 44 6 60z" />
    <glyph glyph-name="germandbls" unicode="&#xdf;" horiz-adv-x="701" 
d="M70 0l91 518c32 183 121 269 342 269c169 0 238 -79 238 -179c0 -85 -37 -160 -123 -203c56 -28 80 -81 80 -141c0 -174 -112 -275 -294 -275c-32 0 -61 4 -89 7l20 125c20 -1 35 -1 42 -1c100 0 150 55 150 146c0 52 -32 78 -111 78h-39l18 111h39c88 0 140 46 140 129
c0 44 -24 69 -96 69c-86 0 -126 -36 -145 -143l-89 -510h-174z" />
    <glyph glyph-name="one.superior" unicode="&#xb9;" horiz-adv-x="407" 
d="M409 338h-292l15 85l81 4l45 245l-86 -25l17 96l125 43h93l-65 -359l81 -4z" />
    <glyph glyph-name="logicalnot" unicode="&#xac;" horiz-adv-x="677" 
d="M656 182h-136v272h-352v133h488v-405z" />
    <glyph glyph-name="mu" unicode="&#xb5;" horiz-adv-x="711" 
d="M719 570l-99 -570h-164l7 46c-61 -30 -120 -52 -170 -52c-14 0 -27 2 -38 4l-35 -200h-175l136 772h174l-63 -361c-3 -18 -5 -34 -5 -46c0 -34 15 -46 56 -46c33 0 78 12 127 31l75 422h174z" />
    <glyph glyph-name="trademark" unicode="&#x2122;" horiz-adv-x="974" 
d="M990 335h-117v188c0 23 1 48 3 71h-1c-10 -20 -19 -38 -30 -54l-50 -71h-60l-49 71c-10 14 -21 36 -30 54h-1c2 -23 3 -48 3 -71v-188h-116v414h115l82 -125c10 -14 18 -29 26 -46h1c9 17 16 31 26 46l82 125h116v-414zM483 664h-117v-329h-120v329h-117v85h354v-85z" />
    <glyph glyph-name="Eth" unicode="&#xd0;" horiz-adv-x="738" 
d="M771 498c0 -32 -3 -67 -10 -105l-14 -77c-42 -238 -164 -326 -419 -326c-88 0 -169 3 -255 10l57 317h-51l22 128h50l53 298c84 7 164 10 249 10c231 0 318 -86 318 -255zM589 506c0 81 -47 105 -148 105h-77l-31 -166h111l-22 -128h-110l-34 -185h77
c124 0 180 38 209 203l14 77c7 40 11 71 11 94z" />
    <glyph glyph-name="onehalf" unicode="&#xbd;" horiz-adv-x="1093" 
d="M974 745l-627 -745h-148l628 745h147zM401 302h-292l15 85l81 4l45 245l-86 -25l17 96l125 43h93l-65 -359l81 -4zM768 363l13 75c39 10 114 19 165 19c116 0 167 -38 167 -107c0 -87 -71 -120 -157 -156c-94 -39 -107 -50 -116 -98l-1 -5h220l-15 -91h-346l9 55
c18 113 66 154 177 205c57 26 98 40 98 77c0 25 -18 33 -73 33c-40 0 -108 -4 -141 -7z" />
    <glyph glyph-name="plusminus" unicode="&#xb1;" horiz-adv-x="677" 
d="M672 0h-520v107h520v-107zM674 369h-195v-185h-132v185h-197v132h197v186h132v-186h195v-132z" />
    <glyph glyph-name="Thorn" unicode="&#xde;" horiz-adv-x="697" 
d="M740 434c0 -17 -2 -37 -7 -67c-36 -209 -198 -230 -374 -230c-27 0 -50 0 -81 1l-25 -138h-180l131 743h180l-19 -108h63c180 0 312 -42 312 -201zM556 422c0 60 -48 73 -139 73c-26 0 -53 0 -77 -1l-39 -215h77c104 0 160 19 174 104c3 21 4 31 4 39z" />
    <glyph glyph-name="onequarter" unicode="&#xbc;" horiz-adv-x="1002" 
d="M974 745l-627 -745h-148l628 745h147zM401 302h-292l15 85l81 4l45 245l-86 -25l17 96l125 43h93l-65 -359l81 -4zM893 0h-128l18 97h-213l13 83l284 266h105l-47 -265h61l-15 -84h-60zM804 181l24 136l-143 -136h119z" />
    <glyph glyph-name="divide" unicode="&#xf7;" horiz-adv-x="677" 
d="M497 74h-170v154h170v-154zM665 320v132h-506v-132h506zM497 542h-170v153h170v-153z" />
    <glyph glyph-name="brokenbar" unicode="&#xa6;" horiz-adv-x="364" 
d="M341 -201h-174v390h174v-390zM341 743v-390h-174v390h174z" />
    <glyph glyph-name="degree" unicode="&#xb0;" horiz-adv-x="432" 
d="M480 596c0 -92 -77 -165 -171 -165c-95 0 -171 73 -171 165c0 91 76 164 171 164c94 0 171 -73 171 -164zM390 596c0 46 -37 79 -82 79s-82 -33 -82 -79s37 -80 82 -80s82 34 82 80z" />
    <glyph glyph-name="thorn" unicode="&#xfe;" horiz-adv-x="654" 
d="M670 413c0 -34 -7 -85 -21 -164c-37 -207 -140 -263 -310 -263c-33 0 -76 4 -99 9l-35 -198h-174l174 983h163l-44 -246c59 36 120 51 170 51c120 0 176 -54 176 -172zM495 382c0 53 -25 70 -76 70c-29 0 -58 -6 -104 -24l-55 -302c29 -6 57 -9 84 -9
c76 0 110 23 134 147c14 75 17 101 17 118z" />
    <glyph glyph-name="threequarters" unicode="&#xbe;" horiz-adv-x="1061" 
d="M1009 745l-629 -745h-147l628 745h148zM949 0h-128l18 97h-213l13 83l284 266h105l-47 -265h61l-15 -84h-60zM860 181l24 136l-143 -136h119zM512 652c0 -47 -26 -97 -74 -122c29 -15 39 -47 39 -77c0 -19 -3 -36 -8 -50c-21 -86 -91 -112 -208 -112
c-62 0 -130 11 -157 21l13 74c31 -3 94 -7 145 -7c58 0 89 14 89 77c0 22 -13 32 -60 32h-126l14 81h126c51 0 78 18 78 70c0 25 -18 32 -69 32s-108 -4 -146 -6l12 74c27 9 101 20 164 20c111 0 168 -33 168 -107z" />
    <glyph glyph-name="two.superior" unicode="&#xb2;" horiz-adv-x="458" 
d="M193 701l13 75c39 10 114 19 165 19c116 0 167 -38 167 -107c0 -87 -71 -120 -157 -156c-94 -39 -107 -50 -116 -98l-1 -5h220l-15 -91h-346l9 55c18 113 66 154 177 205c57 26 98 40 98 77c0 25 -18 33 -73 33c-40 0 -108 -4 -141 -7z" />
    <glyph glyph-name="registered" unicode="&#xae;" horiz-adv-x="668" 
d="M692 474c0 -179 -111 -292 -277 -292c-168 0 -278 113 -278 292s110 293 278 293c166 0 277 -114 277 -293zM616 474c0 139 -77 224 -201 224c-126 0 -203 -85 -203 -224c0 -140 77 -225 203 -225c124 0 201 85 201 225zM557 330h-88l-64 106h-29v-106h-78v302
c42 3 64 3 98 3c79 0 140 -16 140 -98v-4c0 -44 -21 -71 -54 -83zM458 534c0 41 -27 41 -82 41v-83c57 0 82 0 82 42z" />
    <glyph glyph-name="minus" unicode="&#x2212;" horiz-adv-x="677" 
d="M665 320h-506v132h506v-132z" />
    <glyph glyph-name="eth" unicode="&#xf0;" horiz-adv-x="642" 
d="M555 775l-53 -35c111 -55 161 -145 161 -280c0 -63 -6 -107 -23 -205c-34 -194 -141 -270 -317 -270c-157 0 -236 71 -236 202c0 27 2 53 16 134c33 187 145 244 287 244c42 0 80 -6 110 -18c-20 55 -56 88 -107 109l-132 -83l-34 48l91 58c-31 7 -62 9 -89 9
c-13 0 -22 0 -30 -1l17 100c19 2 40 3 55 3c63 0 118 -9 163 -23l85 56zM482 360c0 46 -19 72 -83 72c-76 0 -108 -36 -125 -130c-14 -75 -16 -93 -16 -113c0 -51 23 -71 83 -71c77 0 107 34 128 152c11 59 13 75 13 90z" />
    <glyph glyph-name="multiply" unicode="&#xd7;" horiz-adv-x="677" 
d="M649 243l-90 -90l-146 142l-148 -143l-90 89l148 144l-148 142l89 89l149 -142l147 142l90 -90l-148 -142z" />
    <glyph glyph-name="three.superior" unicode="&#xb3;" horiz-adv-x="455" 
d="M533 688c0 -47 -26 -97 -74 -122c29 -15 39 -47 39 -77c0 -19 -3 -36 -8 -50c-21 -86 -91 -112 -208 -112c-62 0 -130 11 -157 21l13 74c31 -3 94 -7 145 -7c58 0 89 14 89 77c0 22 -13 32 -60 32h-126l14 81h126c51 0 78 18 78 70c0 25 -18 32 -69 32s-108 -4 -146 -6
l12 74c27 9 101 20 164 20c111 0 168 -33 168 -107z" />
    <glyph glyph-name="copyright" unicode="&#xa9;" horiz-adv-x="859" 
d="M873 374c0 -247 -155 -381 -371 -381s-373 134 -373 381c0 246 157 381 373 381s371 -134 371 -381zM784 374c0 191 -116 300 -282 300c-167 0 -282 -109 -282 -300s115 -301 282 -301c166 0 282 110 282 301zM512 158c40 0 94 6 115 13v83c-42 -3 -76 -5 -103 -5
c-65 0 -86 26 -86 99v52c0 74 21 98 86 98c27 0 61 -1 103 -5v84c-21 7 -75 13 -115 13c-132 0 -194 -69 -194 -190v-52c0 -120 62 -190 194 -190z" />
    <glyph glyph-name="Aacute" unicode="&#xc1;" horiz-adv-x="748" 
d="M724 0h-193l-18 187h-211l-88 -187h-195l338 743h290zM510 321l-18 197c-3 36 -4 76 -3 114h-7c-13 -38 -28 -78 -44 -114l-88 -197h160zM776 935l-192 -146h-163l157 146h198z" />
    <glyph glyph-name="Acircumflex" unicode="&#xc2;" horiz-adv-x="748" 
d="M724 0h-193l-18 187h-211l-88 -187h-195l338 743h290zM510 321l-18 197c-3 36 -4 76 -3 114h-7c-13 -38 -28 -78 -44 -114l-88 -197h160zM749 789h-148l-71 82l-102 -82h-156l160 146h209z" />
    <glyph glyph-name="Adieresis" unicode="&#xc4;" horiz-adv-x="748" 
d="M724 0h-193l-18 187h-211l-88 -187h-195l338 743h290zM510 321l-18 197c-3 36 -4 76 -3 114h-7c-13 -38 -28 -78 -44 -114l-88 -197h160zM732 927l-22 -127h-140l22 127h140zM478 927h-140l-22 -127h140z" />
    <glyph glyph-name="Agrave" unicode="&#xc0;" horiz-adv-x="748" 
d="M724 0h-193l-18 187h-211l-88 -187h-195l338 743h290zM510 321l-18 197c-3 36 -4 76 -3 114h-7c-13 -38 -28 -78 -44 -114l-88 -197h160zM636 789h-161l-141 146h196z" />
    <glyph glyph-name="Aring" unicode="&#xc5;" horiz-adv-x="748" 
d="M724 0h-193l-18 187h-211l-88 -187h-195l338 743h290zM510 321l-18 197c-3 36 -4 76 -3 114h-7c-13 -38 -28 -78 -44 -114l-88 -197h160zM658 896c0 -80 -60 -122 -141 -122c-82 0 -144 42 -144 122c0 79 62 122 144 122c81 0 141 -43 141 -122zM572 896
c0 34 -24 48 -55 48c-33 0 -56 -14 -56 -48c0 -33 23 -48 56 -48c31 0 55 15 55 48z" />
    <glyph glyph-name="Atilde" unicode="&#xc3;" horiz-adv-x="748" 
d="M724 0h-193l-18 187h-211l-88 -187h-195l338 743h290zM510 321l-18 197c-3 36 -4 76 -3 114h-7c-13 -38 -28 -78 -44 -114l-88 -197h160zM765 948c-11 -128 -75 -163 -138 -163c-36 0 -70 9 -108 31l-43 25c-20 13 -33 21 -49 21c-26 0 -37 -18 -45 -72h-98
c13 131 77 163 145 163c36 0 62 -8 99 -29l43 -26c20 -12 34 -21 53 -21c25 0 40 20 43 71h98z" />
    <glyph glyph-name="Ccedilla" unicode="&#xc7;" horiz-adv-x="616" 
d="M714 738l-23 -133c-49 4 -120 9 -181 9c-111 0 -169 -37 -199 -200l-16 -85c-6 -33 -9 -61 -9 -83c0 -93 48 -117 137 -117c61 0 133 4 183 8l-22 -134c-38 -9 -143 -20 -205 -20c-178 0 -282 66 -282 247c0 35 3 73 11 116l16 85c50 267 180 328 392 328
c62 0 163 -11 198 -21zM447 -63l-157 -140h-159l131 140h185z" />
    <glyph glyph-name="Eacute" unicode="&#xc9;" horiz-adv-x="628" 
d="M710 743l-23 -136h-319l-30 -162h298l-22 -130h-298l-33 -179h319l-23 -136h-506l131 743h506zM733 935l-192 -146h-163l157 146h198z" />
    <glyph glyph-name="Ecircumflex" unicode="&#xca;" horiz-adv-x="628" 
d="M710 743l-23 -136h-319l-30 -162h298l-22 -130h-298l-33 -179h319l-23 -136h-506l131 743h506zM704 789h-148l-71 82l-102 -82h-156l160 146h209z" />
    <glyph glyph-name="Edieresis" unicode="&#xcb;" horiz-adv-x="628" 
d="M710 743l-23 -136h-319l-30 -162h298l-22 -130h-298l-33 -179h319l-23 -136h-506l131 743h506zM686 927l-22 -127h-140l22 127h140zM432 927h-140l-22 -127h140z" />
    <glyph glyph-name="Egrave" unicode="&#xc8;" horiz-adv-x="628" 
d="M710 743l-23 -136h-319l-30 -162h298l-22 -130h-298l-33 -179h319l-23 -136h-506l131 743h506zM562 789h-161l-141 146h196z" />
    <glyph glyph-name="Iacute" unicode="&#xcd;" horiz-adv-x="333" 
d="M391 743l-131 -743h-187l131 743h187zM563 934l-192 -146h-163l157 146h198z" />
    <glyph glyph-name="Icircumflex" unicode="&#xce;" horiz-adv-x="333" 
d="M391 743l-131 -743h-187l131 743h187zM542 789h-148l-71 82l-102 -82h-156l160 146h209z" />
    <glyph glyph-name="Idieresis" unicode="&#xcf;" horiz-adv-x="333" 
d="M391 743l-131 -743h-187l131 743h187zM527 927l-22 -127h-140l22 127h140zM273 927h-140l-22 -127h140z" />
    <glyph glyph-name="Igrave" unicode="&#xcc;" horiz-adv-x="333" 
d="M391 743l-131 -743h-187l131 743h187zM424 789h-161l-141 146h196z" />
    <glyph glyph-name="Ntilde" unicode="&#xd1;" horiz-adv-x="776" 
d="M836 743l-131 -743h-195l-144 388c-12 32 -24 68 -33 101h-2c-6 -38 -12 -80 -20 -120l-68 -369h-170l132 743h191l146 -381c13 -32 26 -72 35 -105h2c4 35 11 82 19 127l67 359h171zM774 947c-11 -128 -75 -163 -138 -163c-36 0 -70 9 -108 31l-43 25
c-20 13 -33 21 -49 21c-26 0 -37 -18 -45 -72h-98c13 131 77 163 145 163c36 0 62 -8 99 -29l43 -26c20 -12 34 -21 53 -21c25 0 40 20 43 71h98z" />
    <glyph glyph-name="Oacute" unicode="&#xd3;" horiz-adv-x="745" 
d="M775 502c0 -36 -4 -73 -10 -110l-13 -76c-44 -257 -176 -333 -375 -333c-172 0 -276 78 -276 262c0 34 3 68 9 105l13 76c44 258 188 333 378 333c172 0 274 -72 274 -257zM594 509c0 78 -33 105 -113 105c-95 0 -149 -51 -176 -206l-13 -75c-6 -32 -10 -70 -10 -94
c0 -82 38 -111 111 -111c100 0 148 49 177 206l14 75c6 34 10 75 10 100zM762 935l-192 -146h-163l157 146h198z" />
    <glyph glyph-name="Ocircumflex" unicode="&#xd4;" horiz-adv-x="745" 
d="M775 502c0 -36 -4 -73 -10 -110l-13 -76c-44 -257 -176 -333 -375 -333c-172 0 -276 78 -276 262c0 34 3 68 9 105l13 76c44 258 188 333 378 333c172 0 274 -72 274 -257zM594 509c0 78 -33 105 -113 105c-95 0 -149 -51 -176 -206l-13 -75c-6 -32 -10 -70 -10 -94
c0 -82 38 -111 111 -111c100 0 148 49 177 206l14 75c6 34 10 75 10 100zM749 788h-148l-71 82l-102 -82h-156l160 146h209z" />
    <glyph glyph-name="Odieresis" unicode="&#xd6;" horiz-adv-x="745" 
d="M775 502c0 -36 -4 -73 -10 -110l-13 -76c-44 -257 -176 -333 -375 -333c-172 0 -276 78 -276 262c0 34 3 68 9 105l13 76c44 258 188 333 378 333c172 0 274 -72 274 -257zM594 509c0 78 -33 105 -113 105c-95 0 -149 -51 -176 -206l-13 -75c-6 -32 -10 -70 -10 -94
c0 -82 38 -111 111 -111c100 0 148 49 177 206l14 75c6 34 10 75 10 100zM729 927l-22 -127h-140l22 127h140zM475 927h-140l-22 -127h140z" />
    <glyph glyph-name="Ograve" unicode="&#xd2;" horiz-adv-x="745" 
d="M775 502c0 -36 -4 -73 -10 -110l-13 -76c-44 -257 -176 -333 -375 -333c-172 0 -276 78 -276 262c0 34 3 68 9 105l13 76c44 258 188 333 378 333c172 0 274 -72 274 -257zM594 509c0 78 -33 105 -113 105c-95 0 -149 -51 -176 -206l-13 -75c-6 -32 -10 -70 -10 -94
c0 -82 38 -111 111 -111c100 0 148 49 177 206l14 75c6 34 10 75 10 100zM633 789h-161l-141 146h196z" />
    <glyph glyph-name="Otilde" unicode="&#xd5;" horiz-adv-x="745" 
d="M775 502c0 -36 -4 -73 -10 -110l-13 -76c-44 -257 -176 -333 -375 -333c-172 0 -276 78 -276 262c0 34 3 68 9 105l13 76c44 258 188 333 378 333c172 0 274 -72 274 -257zM594 509c0 78 -33 105 -113 105c-95 0 -149 -51 -176 -206l-13 -75c-6 -32 -10 -70 -10 -94
c0 -82 38 -111 111 -111c100 0 148 49 177 206l14 75c6 34 10 75 10 100zM759 947c-11 -128 -75 -163 -138 -163c-36 0 -70 9 -108 31l-43 25c-20 13 -33 21 -49 21c-26 0 -37 -18 -45 -72h-98c13 131 77 163 145 163c36 0 62 -8 99 -29l43 -26c20 -12 34 -21 53 -21
c25 0 40 20 43 71h98z" />
    <glyph glyph-name="Scaron" unicode="&#x160;" horiz-adv-x="646" 
d="M694 734l-20 -121c-85 8 -136 13 -221 13c-67 0 -131 -11 -131 -78c0 -33 16 -48 69 -71l98 -43c97 -43 149 -97 149 -200c0 -176 -135 -251 -324 -251c-104 0 -206 12 -253 24l20 122c58 -6 124 -11 227 -11c77 0 139 23 139 94c0 34 -20 52 -74 77l-100 45
c-83 37 -138 94 -138 198c0 182 155 227 324 227c105 0 193 -15 235 -25zM251 934h148l72 -82l101 82h157l-160 -146h-208z" />
    <glyph glyph-name="Uacute" unicode="&#xda;" horiz-adv-x="763" 
d="M827 743l-81 -459c-38 -213 -145 -301 -357 -301c-186 0 -275 87 -275 232c0 41 4 72 11 110l74 418h185l-77 -437c-6 -34 -10 -62 -10 -86c0 -68 32 -95 110 -95c107 0 136 50 159 181l77 437h184zM775 935l-192 -146h-163l157 146h198z" />
    <glyph glyph-name="Ucircumflex" unicode="&#xdb;" horiz-adv-x="763" 
d="M827 743l-81 -459c-38 -213 -145 -301 -357 -301c-186 0 -275 87 -275 232c0 41 4 72 11 110l74 418h185l-77 -437c-6 -34 -10 -62 -10 -86c0 -68 32 -95 110 -95c107 0 136 50 159 181l77 437h184zM757 789h-148l-71 82l-102 -82h-156l160 146h209z" />
    <glyph glyph-name="Udieresis" unicode="&#xdc;" horiz-adv-x="763" 
d="M827 743l-81 -459c-38 -213 -145 -301 -357 -301c-186 0 -275 87 -275 232c0 41 4 72 11 110l74 418h185l-77 -437c-6 -34 -10 -62 -10 -86c0 -68 32 -95 110 -95c107 0 136 50 159 181l77 437h184zM742 927l-22 -127h-140l22 127h140zM488 927h-140l-22 -127h140z" />
    <glyph glyph-name="Ugrave" unicode="&#xd9;" horiz-adv-x="763" 
d="M827 743l-81 -459c-38 -213 -145 -301 -357 -301c-186 0 -275 87 -275 232c0 41 4 72 11 110l74 418h185l-77 -437c-6 -34 -10 -62 -10 -86c0 -68 32 -95 110 -95c107 0 136 50 159 181l77 437h184zM627 789h-161l-141 146h196z" />
    <glyph glyph-name="Yacute" unicode="&#xdd;" horiz-adv-x="706" 
d="M823 743l-332 -475l-47 -268h-182l47 268l-164 475h186l64 -196c11 -34 20 -77 27 -114h5c18 36 45 80 69 114l136 196h191zM752 935l-192 -146h-163l157 146h198z" />
    <glyph glyph-name="Ydieresis" unicode="&#x178;" horiz-adv-x="706" 
d="M823 743l-332 -475l-47 -268h-182l47 268l-164 475h186l64 -196c11 -34 20 -77 27 -114h5c18 36 45 80 69 114l136 196h191zM710 927l-22 -127h-140l22 127h140zM456 927h-140l-22 -127h140z" />
    <glyph glyph-name="Zcaron" unicode="&#x17d;" horiz-adv-x="658" 
d="M729 743l-24 -145l-411 -459h336l-23 -139h-556l23 143l412 460h-317l23 140h537zM267 935h148l72 -82l101 82h157l-160 -146h-208z" />
    <glyph glyph-name="aacute" unicode="&#xe1;" horiz-adv-x="654" 
d="M586 0h-162l5 29c-45 -26 -100 -43 -169 -43c-113 0 -176 67 -176 193c0 25 2 54 8 84l13 70c38 204 132 252 337 252c66 0 159 -5 243 -15zM436 137l56 313c-28 2 -66 3 -82 3c-74 0 -113 -20 -134 -136l-13 -70c-3 -24 -6 -43 -6 -58c0 -50 25 -72 81 -72
c34 0 68 9 98 20zM685 777l-192 -146h-163l157 146h198z" />
    <glyph glyph-name="acircumflex" unicode="&#xe2;" horiz-adv-x="654" 
d="M586 0h-162l5 29c-45 -26 -100 -43 -169 -43c-113 0 -176 67 -176 193c0 25 2 54 8 84l13 70c38 204 132 252 337 252c66 0 159 -5 243 -15zM436 137l56 313c-28 2 -66 3 -82 3c-74 0 -113 -20 -134 -136l-13 -70c-3 -24 -6 -43 -6 -58c0 -50 25 -72 81 -72
c34 0 68 9 98 20zM660 631h-148l-71 82l-102 -82h-156l160 146h209z" />
    <glyph glyph-name="adieresis" unicode="&#xe4;" horiz-adv-x="654" 
d="M586 0h-162l5 29c-45 -26 -100 -43 -169 -43c-113 0 -176 67 -176 193c0 25 2 54 8 84l13 70c38 204 132 252 337 252c66 0 159 -5 243 -15zM436 137l56 313c-28 2 -66 3 -82 3c-74 0 -113 -20 -134 -136l-13 -70c-3 -24 -6 -43 -6 -58c0 -50 25 -72 81 -72
c34 0 68 9 98 20zM643 772l-22 -127h-140l22 127h140zM389 772h-140l-22 -127h140z" />
    <glyph glyph-name="agrave" unicode="&#xe0;" horiz-adv-x="654" 
d="M586 0h-162l5 29c-45 -26 -100 -43 -169 -43c-113 0 -176 67 -176 193c0 25 2 54 8 84l13 70c38 204 132 252 337 252c66 0 159 -5 243 -15zM436 137l56 313c-28 2 -66 3 -82 3c-74 0 -113 -20 -134 -136l-13 -70c-3 -24 -6 -43 -6 -58c0 -50 25 -72 81 -72
c34 0 68 9 98 20zM536 631h-161l-141 146h196z" />
    <glyph glyph-name="aring" unicode="&#xe5;" horiz-adv-x="654" 
d="M586 0h-162l5 29c-45 -26 -100 -43 -169 -43c-113 0 -176 67 -176 193c0 25 2 54 8 84l13 70c38 204 132 252 337 252c66 0 159 -5 243 -15zM436 137l56 313c-28 2 -66 3 -82 3c-74 0 -113 -20 -134 -136l-13 -70c-3 -24 -6 -43 -6 -58c0 -50 25 -72 81 -72
c34 0 68 9 98 20zM576 739c0 -80 -60 -122 -141 -122c-82 0 -144 42 -144 122c0 79 62 122 144 122c81 0 141 -43 141 -122zM490 739c0 34 -24 48 -55 48c-33 0 -56 -14 -56 -48c0 -33 23 -48 56 -48c31 0 55 15 55 48z" />
    <glyph glyph-name="atilde" unicode="&#xe3;" horiz-adv-x="654" 
d="M586 0h-162l5 29c-45 -26 -100 -43 -169 -43c-113 0 -176 67 -176 193c0 25 2 54 8 84l13 70c38 204 132 252 337 252c66 0 159 -5 243 -15zM436 137l56 313c-28 2 -66 3 -82 3c-74 0 -113 -20 -134 -136l-13 -70c-3 -24 -6 -43 -6 -58c0 -50 25 -72 81 -72
c34 0 68 9 98 20zM674 790c-11 -128 -75 -163 -138 -163c-36 0 -70 9 -108 31l-43 25c-20 13 -33 21 -49 21c-26 0 -37 -18 -45 -72h-98c13 131 77 163 145 163c36 0 62 -8 99 -29l43 -26c20 -12 34 -21 53 -21c25 0 40 20 43 71h98z" />
    <glyph glyph-name="ccedilla" unicode="&#xe7;" horiz-adv-x="533" 
d="M590 563l-20 -119c-74 5 -123 8 -157 8c-76 0 -116 -23 -137 -135l-12 -63c-4 -23 -6 -41 -6 -57c0 -64 31 -79 95 -79c34 0 83 2 159 8l-20 -119c-34 -8 -103 -22 -189 -22c-153 0 -217 78 -217 202c0 25 3 52 8 83l11 64c31 180 124 251 299 251c90 0 155 -14 186 -22z
M392 -63l-157 -140h-159l131 140h185z" />
    <glyph glyph-name="eacute" unicode="&#xe9;" horiz-adv-x="637" 
d="M652 376c0 -40 -5 -79 -17 -138h-374c-4 -25 -7 -41 -7 -54c0 -46 25 -69 117 -69c59 0 109 3 216 10l-19 -115c-47 -11 -129 -25 -231 -25c-164 0 -251 61 -251 205c0 29 4 61 10 96l5 30c33 200 151 269 317 269c167 0 234 -85 234 -209zM488 385c0 43 -19 76 -86 76
c-85 0 -111 -58 -122 -120l-2 -8h204c4 21 6 39 6 52zM699 777l-192 -146h-163l157 146h198z" />
    <glyph glyph-name="ecircumflex" unicode="&#xea;" horiz-adv-x="637" 
d="M652 376c0 -40 -5 -79 -17 -138h-374c-4 -25 -7 -41 -7 -54c0 -46 25 -69 117 -69c59 0 109 3 216 10l-19 -115c-47 -11 -129 -25 -231 -25c-164 0 -251 61 -251 205c0 29 4 61 10 96l5 30c33 200 151 269 317 269c167 0 234 -85 234 -209zM488 385c0 43 -19 76 -86 76
c-85 0 -111 -58 -122 -120l-2 -8h204c4 21 6 39 6 52zM668 631h-148l-71 82l-102 -82h-156l160 146h209z" />
    <glyph glyph-name="edieresis" unicode="&#xeb;" horiz-adv-x="637" 
d="M652 376c0 -40 -5 -79 -17 -138h-374c-4 -25 -7 -41 -7 -54c0 -46 25 -69 117 -69c59 0 109 3 216 10l-19 -115c-47 -11 -129 -25 -231 -25c-164 0 -251 61 -251 205c0 29 4 61 10 96l5 30c33 200 151 269 317 269c167 0 234 -85 234 -209zM488 385c0 43 -19 76 -86 76
c-85 0 -111 -58 -122 -120l-2 -8h204c4 21 6 39 6 52zM648 773l-22 -127h-140l22 127h140zM394 773h-140l-22 -127h140z" />
    <glyph glyph-name="egrave" unicode="&#xe8;" horiz-adv-x="637" 
d="M652 376c0 -40 -5 -79 -17 -138h-374c-4 -25 -7 -41 -7 -54c0 -46 25 -69 117 -69c59 0 109 3 216 10l-19 -115c-47 -11 -129 -25 -231 -25c-164 0 -251 61 -251 205c0 29 4 61 10 96l5 30c33 200 151 269 317 269c167 0 234 -85 234 -209zM488 385c0 43 -19 76 -86 76
c-85 0 -111 -58 -122 -120l-2 -8h204c4 21 6 39 6 52zM553 631h-161l-141 146h196z" />
    <glyph glyph-name="iacute" unicode="&#xed;" horiz-adv-x="318" 
d="M523 777l-192 -146h-163l157 146h198zM246 0h-174l99 570h174z" />
    <glyph glyph-name="icircumflex" unicode="&#xee;" horiz-adv-x="318" 
d="M246 0h-174l99 570h174zM503 631h-148l-71 82l-102 -82h-156l160 146h209z" />
    <glyph glyph-name="idieresis" unicode="&#xef;" horiz-adv-x="318" 
d="M491 772l-22 -127h-140l22 127h140zM237 772h-140l-22 -127h140zM246 0h-174l99 570h174z" />
    <glyph glyph-name="igrave" unicode="&#xec;" horiz-adv-x="318" 
d="M383 631h-161l-141 146h196zM246 0h-174l99 570h174z" />
    <glyph glyph-name="ntilde" unicode="&#xf1;" horiz-adv-x="671" 
d="M677 440c0 -30 -5 -63 -11 -95l-59 -345h-175l63 359c3 18 5 32 5 44c0 35 -16 50 -57 50c-35 0 -80 -11 -126 -34l-74 -419h-175l100 570h164l-7 -44c63 39 132 59 190 59c128 0 162 -63 162 -145zM690 790c-11 -128 -75 -163 -138 -163c-36 0 -70 9 -108 31l-43 25
c-20 13 -33 21 -49 21c-26 0 -37 -18 -45 -72h-98c13 131 77 163 145 163c36 0 62 -8 99 -29l43 -26c20 -12 34 -21 53 -21c25 0 40 20 43 71h98z" />
    <glyph glyph-name="oacute" unicode="&#xf3;" horiz-adv-x="642" 
d="M655 381c0 -25 -4 -58 -8 -79l-11 -63c-33 -188 -143 -254 -310 -254c-157 0 -239 68 -239 204c0 27 0 54 7 88l11 55c37 188 144 253 309 253c154 0 241 -62 241 -204zM482 379c0 48 -19 73 -83 73c-76 0 -105 -35 -124 -136l-12 -62c-5 -25 -6 -45 -6 -65
c0 -51 23 -71 82 -71c78 0 105 35 125 136l12 62c5 28 6 46 6 63zM682 777l-192 -146h-163l157 146h198z" />
    <glyph glyph-name="ocircumflex" unicode="&#xf4;" horiz-adv-x="642" 
d="M655 381c0 -25 -4 -58 -8 -79l-11 -63c-33 -188 -143 -254 -310 -254c-157 0 -239 68 -239 204c0 27 0 54 7 88l11 55c37 188 144 253 309 253c154 0 241 -62 241 -204zM482 379c0 48 -19 73 -83 73c-76 0 -105 -35 -124 -136l-12 -62c-5 -25 -6 -45 -6 -65
c0 -51 23 -71 82 -71c78 0 105 35 125 136l12 62c5 28 6 46 6 63zM670 631h-148l-71 82l-102 -82h-156l160 146h209z" />
    <glyph glyph-name="odieresis" unicode="&#xf6;" horiz-adv-x="642" 
d="M655 381c0 -25 -4 -58 -8 -79l-11 -63c-33 -188 -143 -254 -310 -254c-157 0 -239 68 -239 204c0 27 0 54 7 88l11 55c37 188 144 253 309 253c154 0 241 -62 241 -204zM482 379c0 48 -19 73 -83 73c-76 0 -105 -35 -124 -136l-12 -62c-5 -25 -6 -45 -6 -65
c0 -51 23 -71 82 -71c78 0 105 35 125 136l12 62c5 28 6 46 6 63zM652 772l-22 -127h-140l22 127h140zM398 772h-140l-22 -127h140z" />
    <glyph glyph-name="ograve" unicode="&#xf2;" horiz-adv-x="642" 
d="M655 381c0 -25 -4 -58 -8 -79l-11 -63c-33 -188 -143 -254 -310 -254c-157 0 -239 68 -239 204c0 27 0 54 7 88l11 55c37 188 144 253 309 253c154 0 241 -62 241 -204zM482 379c0 48 -19 73 -83 73c-76 0 -105 -35 -124 -136l-12 -62c-5 -25 -6 -45 -6 -65
c0 -51 23 -71 82 -71c78 0 105 35 125 136l12 62c5 28 6 46 6 63zM547 631h-161l-141 146h196z" />
    <glyph glyph-name="otilde" unicode="&#xf5;" horiz-adv-x="642" 
d="M655 381c0 -25 -4 -58 -8 -79l-11 -63c-33 -188 -143 -254 -310 -254c-157 0 -239 68 -239 204c0 27 0 54 7 88l11 55c37 188 144 253 309 253c154 0 241 -62 241 -204zM482 379c0 48 -19 73 -83 73c-76 0 -105 -35 -124 -136l-12 -62c-5 -25 -6 -45 -6 -65
c0 -51 23 -71 82 -71c78 0 105 35 125 136l12 62c5 28 6 46 6 63zM683 790c-11 -128 -75 -163 -138 -163c-36 0 -70 9 -108 31l-43 25c-20 13 -33 21 -49 21c-26 0 -37 -18 -45 -72h-98c13 131 77 163 145 163c36 0 62 -8 99 -29l43 -26c20 -12 34 -21 53 -21
c25 0 40 20 43 71h98z" />
    <glyph glyph-name="scaron" unicode="&#x161;" horiz-adv-x="543" 
d="M577 562l-18 -105c-71 7 -139 11 -182 11c-42 0 -92 -2 -92 -50c0 -24 18 -34 65 -53l48 -19c99 -39 139 -83 139 -163c0 -148 -123 -197 -285 -197c-80 0 -170 13 -200 22l18 105c74 -4 108 -11 192 -11c55 0 101 9 101 58c0 28 -14 37 -75 62l-42 17
c-87 35 -134 84 -134 167c0 151 129 179 261 179c86 0 160 -11 204 -23zM170 777h148l72 -82l101 82h157l-160 -146h-208z" />
    <glyph glyph-name="uacute" unicode="&#xfa;" 
d="M704 570l-100 -570h-164l7 46c-61 -35 -129 -61 -202 -61c-119 0 -149 67 -149 147c0 30 4 61 9 91l61 347h174l-63 -361c-4 -20 -5 -35 -5 -48c0 -33 15 -44 52 -44c36 0 82 12 131 31l75 422h174zM713 777l-192 -146h-163l157 146h198z" />
    <glyph glyph-name="ucircumflex" unicode="&#xfb;" 
d="M704 570l-100 -570h-164l7 46c-61 -35 -129 -61 -202 -61c-119 0 -149 67 -149 147c0 30 4 61 9 91l61 347h174l-63 -361c-4 -20 -5 -35 -5 -48c0 -33 15 -44 52 -44c36 0 82 12 131 31l75 422h174zM688 631h-148l-71 82l-102 -82h-156l160 146h209z" />
    <glyph glyph-name="udieresis" unicode="&#xfc;" 
d="M704 570l-100 -570h-164l7 46c-61 -35 -129 -61 -202 -61c-119 0 -149 67 -149 147c0 30 4 61 9 91l61 347h174l-63 -361c-4 -20 -5 -35 -5 -48c0 -33 15 -44 52 -44c36 0 82 12 131 31l75 422h174zM670 772l-22 -127h-140l22 127h140zM416 772h-140l-22 -127h140z" />
    <glyph glyph-name="ugrave" unicode="&#xf9;" 
d="M704 570l-100 -570h-164l7 46c-61 -35 -129 -61 -202 -61c-119 0 -149 67 -149 147c0 30 4 61 9 91l61 347h174l-63 -361c-4 -20 -5 -35 -5 -48c0 -33 15 -44 52 -44c36 0 82 12 131 31l75 422h174zM554 631h-161l-141 146h196z" />
    <glyph glyph-name="yacute" unicode="&#xfd;" horiz-adv-x="637" 
d="M716 570l-282 -573c-74 -150 -119 -214 -275 -214c-61 0 -120 6 -158 14l19 111c49 -2 72 -2 100 -2c53 0 68 18 96 70l15 30l-106 564h181l32 -292c5 -50 6 -100 7 -152h2c20 52 36 98 60 152l129 292h180zM694 777l-192 -146h-163l157 146h198z" />
    <glyph glyph-name="ydieresis" unicode="&#xff;" horiz-adv-x="637" 
d="M716 570l-282 -573c-74 -150 -119 -214 -275 -214c-61 0 -120 6 -158 14l19 111c49 -2 72 -2 100 -2c53 0 68 18 96 70l15 30l-106 564h181l32 -292c5 -50 6 -100 7 -152h2c20 52 36 98 60 152l129 292h180zM658 772l-22 -127h-140l22 127h140zM404 772h-140l-22 -127
h140z" />
    <glyph glyph-name="zcaron" unicode="&#x17e;" horiz-adv-x="548" 
d="M604 570l-22 -130l-324 -316h268l-21 -124h-465l21 129l326 316h-259l20 125h456zM182 777h148l72 -82l101 82h157l-160 -146h-208z" />
    <glyph glyph-name="dollar.oldstyle" horiz-adv-x="599" 
d="M64 5l19 114c52 -3 115 -7 199 -7c49 0 101 12 101 62c0 23 -15 35 -70 58l-66 27c-78 32 -126 79 -126 164c0 125 89 174 208 189l15 90h140l-16 -87c62 -4 117 -14 147 -21l-19 -109c-63 3 -126 7 -198 7c-45 0 -99 -6 -99 -52c0 -21 14 -35 63 -55l68 -28
c95 -38 135 -84 135 -162c0 -128 -90 -192 -206 -204l-17 -97h-140l17 93c-63 3 -121 10 -155 18z" />
    <glyph glyph-name="dollar.superior" horiz-adv-x="438" 
d="M117 341l15 82c27 -1 86 -5 145 -5c42 0 77 8 77 45c0 23 -14 31 -53 47l-43 17c-62 24 -98 62 -98 125c0 87 69 128 147 136l14 81h112l-14 -77c45 -3 86 -10 105 -15l-15 -84c-52 5 -105 8 -146 8c-32 0 -77 -5 -77 -39c0 -18 11 -28 51 -43l43 -16
c71 -26 104 -58 104 -122c0 -81 -55 -136 -146 -150l-14 -82h-112l14 79c-44 2 -84 8 -109 13z" />
    <glyph glyph-name="parenleft.superior" unicode="&#x207d;" horiz-adv-x="287" 
d="M382 789c-82 -103 -132 -228 -132 -354c0 -75 14 -132 34 -178h-106c-22 40 -43 109 -43 200c0 118 46 235 135 332h112z" />
    <glyph glyph-name="parenright.superior" unicode="&#x207e;" horiz-adv-x="287" 
d="M92 257c82 103 132 234 132 363c0 71 -14 124 -34 169h106c22 -39 43 -109 43 -192c0 -125 -48 -243 -135 -340h-112z" />
    <glyph glyph-name="twodotenleader" unicode="&#x2025;" horiz-adv-x="579" 
d="M547 0h-176l28 164h176zM301 164l-28 -164h-175l28 164h175z" />
    <glyph glyph-name="onedotenleader" unicode="&#x2024;" horiz-adv-x="295" 
d="M235 0h-175l28 164h175z" />
    <glyph glyph-name="zero.oldstyle" horiz-adv-x="706" 
d="M717 385c0 -25 -2 -52 -14 -117c-34 -195 -151 -285 -354 -285c-173 0 -257 85 -257 231c0 26 2 52 14 117c34 195 150 284 353 284c173 0 258 -84 258 -230zM531 387c0 66 -38 88 -95 88c-71 0 -122 -38 -144 -157c-12 -65 -14 -87 -14 -105c0 -66 38 -89 94 -89
c72 0 123 39 145 158c12 64 14 87 14 105z" />
    <glyph glyph-name="one.oldstyle" horiz-adv-x="588" 
d="M544 0h-500l21 130l161 7l55 300l-170 -49l26 146l223 71h135l-84 -468l154 -7z" />
    <glyph glyph-name="two.oldstyle" horiz-adv-x="650" 
d="M142 471l19 113c62 18 172 31 256 31c193 0 265 -51 265 -152c0 -135 -112 -200 -268 -279l-92 -46h293l-23 -138h-541l23 138l194 102c135 69 220 111 220 189c0 40 -35 54 -126 54c-60 0 -159 -7 -220 -12z" />
    <glyph glyph-name="three.oldstyle" horiz-adv-x="651" 
d="M605 116c0 -26 -3 -56 -10 -86c-38 -149 -164 -191 -332 -191c-97 0 -201 19 -241 34l20 113c49 -5 142 -13 225 -13c85 0 132 15 147 96c5 28 7 38 7 48c0 37 -24 56 -98 56h-202l21 123h203c94 0 116 37 126 90c3 14 4 26 4 38c0 45 -31 58 -117 58
c-84 0 -165 -6 -227 -12l19 114c37 12 153 31 250 31c172 0 264 -47 264 -169c0 -22 -3 -49 -10 -76c-14 -60 -49 -107 -112 -138c47 -25 63 -72 63 -116z" />
    <glyph glyph-name="four.oldstyle" horiz-adv-x="712" 
d="M670 27h-99l-30 -168h-187l30 168h-341l22 129l448 446h159l-79 -446h99zM415 156l46 248l-248 -248h202z" />
    <glyph glyph-name="five.oldstyle" horiz-adv-x="641" 
d="M672 595l-23 -135h-330l-40 -147h70c195 0 263 -58 263 -166c0 -23 -3 -45 -10 -89c-29 -173 -155 -223 -340 -223c-111 0 -205 19 -241 29l19 117c66 -9 125 -14 206 -14c111 0 153 24 168 103c6 31 6 42 6 51c0 48 -31 65 -130 65h-204l106 409h480z" />
    <glyph glyph-name="six.oldstyle" horiz-adv-x="688" 
d="M677 214c-35 -189 -176 -231 -333 -231c-165 0 -253 67 -253 218c0 33 4 68 11 106l29 165c33 189 108 287 357 287c103 0 205 -18 243 -28l-20 -117c-70 6 -139 12 -224 12c-130 0 -152 -47 -169 -142l-5 -26c37 9 98 15 135 15c141 0 241 -40 241 -172
c0 -17 -4 -45 -12 -87zM494 229c9 46 11 60 11 71c0 49 -35 59 -95 59c-28 0 -75 -3 -115 -12l-16 -86c-5 -29 -8 -52 -8 -71c0 -63 33 -80 95 -80c70 0 113 33 128 119z" />
    <glyph glyph-name="seven.oldstyle" horiz-adv-x="636" 
d="M679 454l-433 -595h-198l449 608h-372l23 135h556z" />
    <glyph glyph-name="eight.oldstyle" horiz-adv-x="715" 
d="M761 588c0 -85 -35 -159 -113 -205c38 -28 57 -73 57 -124c0 -20 -1 -37 -6 -60c-39 -198 -179 -216 -344 -216h-5c-144 0 -267 30 -267 180c0 20 2 40 8 70c14 78 51 120 109 150c-34 26 -54 69 -54 125c0 15 1 30 5 56c31 174 172 195 337 195h6
c140 0 267 -26 267 -171zM523 267c0 41 -19 59 -66 59h-85c-61 0 -85 -30 -99 -106c-3 -19 -5 -33 -5 -44c0 -59 41 -70 104 -70h6c73 0 120 17 139 112c4 22 6 37 6 49zM574 574c0 50 -40 62 -103 62h-5c-71 0 -119 -19 -134 -92c-4 -22 -5 -34 -5 -45c0 -36 16 -57 64 -57
h85c62 0 85 35 95 93c3 20 3 30 3 39z" />
    <glyph glyph-name="nine.oldstyle" horiz-adv-x="688" 
d="M108 384c35 189 176 231 333 231c165 0 253 -67 253 -218c0 -33 -4 -68 -11 -106l-29 -165c-33 -189 -108 -287 -357 -287c-103 0 -205 18 -243 28l20 117c70 -6 139 -12 224 -12c131 0 151 47 169 142l5 26c-37 -9 -98 -15 -135 -15c-141 0 -241 40 -241 172
c0 17 4 45 12 87zM291 369c-9 -46 -11 -60 -11 -71c0 -49 35 -59 95 -59c28 0 75 3 115 12l16 86c5 29 8 52 8 71c0 63 -33 80 -95 80c-70 0 -113 -33 -128 -119z" />
    <glyph glyph-name="comma.superior" horiz-adv-x="257" 
d="M289 437l-101 -162h-94l80 162h115z" />
    <glyph glyph-name="period.superior" horiz-adv-x="218" 
d="M224 338h-118l17 99h118z" />
    <glyph glyph-name="a.superior" horiz-adv-x="434" 
d="M469 564c0 -13 -1 -27 -4 -42l-38 -215h-110l4 25c-26 -16 -68 -33 -120 -33c-58 0 -89 30 -89 81c0 131 86 133 200 133h30l4 20c1 7 2 14 2 20c0 22 -14 27 -56 27c-19 0 -78 -2 -121 -5l12 66c23 8 86 22 150 22c93 0 136 -30 136 -99zM338 458h-35
c-52 0 -76 -6 -76 -66c0 -17 11 -21 33 -21c26 0 53 9 65 14z" />
    <glyph glyph-name="b.superior" horiz-adv-x="441" 
d="M495 541c0 -16 -3 -32 -11 -81c-22 -126 -94 -162 -215 -162c-53 0 -93 2 -164 10l82 471h121l-23 -127c21 8 47 11 72 11c93 0 138 -42 138 -122zM375 535c0 30 -15 39 -50 39c-11 0 -37 -2 -55 -9l-31 -176c10 -1 27 -3 46 -3c47 0 69 18 80 82c8 45 10 58 10 67z" />
    <glyph glyph-name="cent.superior" horiz-adv-x="405" 
d="M489 780l-17 -97c-33 3 -71 5 -98 5c-68 0 -94 -26 -108 -109l-7 -40c-3 -19 -5 -36 -5 -49c0 -44 19 -60 73 -60c31 0 74 3 100 5l-16 -96c-19 -6 -52 -11 -85 -12l-14 -79h-109l15 87c-62 16 -98 64 -98 147c0 21 2 45 7 70l7 39c21 116 74 175 164 195l14 80h109
l-14 -75c34 -2 66 -7 82 -11z" />
    <glyph glyph-name="d.superior" horiz-adv-x="454" 
d="M446 307h-111l4 21c-28 -16 -64 -30 -107 -30c-75 0 -114 45 -114 124c0 16 0 36 4 55c30 155 96 186 202 186c25 0 44 -2 63 -4l22 120h121zM342 398l32 172c-17 4 -37 5 -50 5c-42 0 -65 -12 -77 -78l-6 -33c-3 -14 -4 -25 -4 -35c0 -31 14 -42 49 -42c20 0 40 5 56 11
z" />
    <glyph glyph-name="e.superior" horiz-adv-x="433" 
d="M485 528c0 -20 -3 -40 -10 -78h-238l-1 -4c-1 -9 -2 -18 -2 -26c0 -25 13 -40 71 -40c39 0 95 3 140 8l-13 -75c-30 -6 -93 -15 -154 -15c-114 0 -160 51 -160 129c0 15 2 32 10 79c21 117 96 157 206 157c113 0 151 -58 151 -135zM372 542c0 25 -11 43 -51 43
c-50 0 -64 -30 -72 -70l-1 -5h120c3 15 4 24 4 32z" />
    <glyph glyph-name="i.superior" unicode="&#x2071;" horiz-adv-x="248" 
d="M179 654h121l-61 -347h-121zM311 698h-127l15 81h126z" />
    <glyph glyph-name="l.superior" horiz-adv-x="244" 
d="M236 307h-120l83 472h121z" />
    <glyph glyph-name="m.superior" horiz-adv-x="666" 
d="M702 572c0 -17 -2 -33 -5 -50l-38 -215h-122l40 222c2 9 3 18 3 25c0 15 -6 23 -30 23c-16 0 -40 -6 -59 -15c0 -12 -2 -23 -4 -38l-39 -217h-121l38 217c3 15 4 24 4 31c0 14 -6 22 -27 22c-20 0 -43 -9 -60 -16l-44 -254h-122l61 347h113l-5 -28c35 24 76 37 113 37
c50 0 71 -14 83 -38c46 28 87 38 121 38c78 0 100 -39 100 -91z" />
    <glyph glyph-name="n.superior" unicode="&#x207f;" horiz-adv-x="460" 
d="M503 571c0 -21 -3 -42 -7 -63l-35 -201h-122l38 216c2 10 3 18 3 25c0 20 -9 28 -33 28c-20 0 -48 -9 -74 -18l-44 -251h-122l61 347h114l-4 -27c39 23 84 36 122 36c83 0 103 -41 103 -92z" />
    <glyph glyph-name="o.superior" horiz-adv-x="434" 
d="M487 533c0 -14 -2 -30 -11 -79c-21 -119 -94 -156 -202 -156c-102 0 -156 46 -156 135c0 14 1 29 10 76c23 117 99 154 202 154c105 0 157 -43 157 -130zM367 531c0 31 -15 44 -48 44c-43 0 -62 -20 -73 -78c-8 -46 -10 -58 -10 -67c0 -31 15 -44 49 -44
c46 0 66 33 73 86c4 29 9 50 9 59z" />
    <glyph glyph-name="r.superior" horiz-adv-x="320" 
d="M177 654h112l-5 -29c40 33 86 38 125 38l-18 -98c-39 0 -81 -6 -110 -14l-44 -244h-121z" />
    <glyph glyph-name="s.superior" horiz-adv-x="389" 
d="M420 420c0 -102 -83 -124 -185 -124c-51 0 -110 10 -131 14l12 69c46 -2 78 -7 125 -7c27 0 58 6 58 33c0 17 -11 23 -45 35l-26 9c-57 19 -89 55 -89 105c0 96 91 109 173 109c55 0 112 -7 135 -14l-11 -65c-43 3 -84 5 -122 5c-26 0 -55 -2 -55 -28
c0 -16 10 -22 38 -32l32 -11c63 -22 91 -54 91 -98z" />
    <glyph glyph-name="t.superior" horiz-adv-x="328" 
d="M348 308c-9 -2 -46 -10 -85 -10c-67 0 -97 31 -97 85c0 14 2 27 5 45l26 147l-61 6l13 73h62l15 85h120l-15 -85h79l-14 -79h-78l-30 -164c-1 -8 -2 -14 -2 -19c0 -12 6 -16 25 -16c17 0 41 1 49 2z" />
    <glyph glyph-name="parenleft.inferior" unicode="&#x208d;" horiz-adv-x="287" 
d="M309 296c-82 -103 -132 -228 -132 -354c0 -75 14 -132 34 -178h-106c-22 40 -43 109 -43 200c0 118 46 235 135 332h112z" />
    <glyph glyph-name="parenright.inferior" unicode="&#x208e;" horiz-adv-x="287" 
d="M27 -236c82 103 132 234 132 363c0 71 -14 124 -34 169h106c22 -39 43 -109 43 -192c0 -125 -48 -243 -135 -340h-112z" />
    <glyph glyph-name="hyphen.superior" horiz-adv-x="247" 
d="M282 493h-152l15 89h152z" />
    <glyph glyph-name="colonmonetary" unicode="&#x20a1;" horiz-adv-x="533" 
d="M600 563l-20 -121c-58 4 -108 10 -161 10c-84 0 -124 -23 -143 -135l-11 -63c-4 -24 -7 -43 -7 -58c0 -67 38 -78 100 -78c41 0 101 3 164 7l-20 -118c-14 -4 -42 -9 -75 -14l-19 -111h-95l18 104c-10 -1 -20 -1 -30 -1c-14 0 -27 1 -39 2l-18 -105h-95l23 132
c-58 31 -85 94 -85 176c0 25 1 53 7 82l12 64c22 120 71 194 163 227l22 126h94l-18 -106c14 2 19 2 39 2c10 0 20 0 30 -1l19 105h94l-20 -112c34 -5 58 -10 71 -14z" />
    <glyph glyph-name="cent.oldstyle" horiz-adv-x="573" 
d="M621 598l-21 -122c-54 3 -102 5 -149 5c-89 0 -133 -31 -154 -146l-13 -68c-4 -23 -6 -42 -6 -59c0 -67 36 -87 108 -87c53 0 107 2 151 5l-20 -122c-28 -8 -82 -14 -128 -17l-18 -100h-140l18 109c-104 22 -152 92 -152 201c0 26 3 55 8 85l13 69
c27 155 101 232 240 259l17 99h141l-17 -95c44 -2 96 -9 122 -16z" />
    <glyph glyph-name="figuredash" unicode="&#x2012;" horiz-adv-x="723" 
d="M705 225h-608l19 112h608z" />
    <glyph glyph-name="hyphen.inferior" horiz-adv-x="247" 
d="M226 0h-152l15 89h152z" />
    <glyph glyph-name="oneeighth" unicode="&#x215b;" horiz-adv-x="1105" 
d="M965 745l-627 -745h-148l628 745h147zM1076 116c-21 -117 -116 -127 -222 -127c-95 0 -173 22 -173 114c0 69 29 110 71 129c-21 16 -34 44 -34 77c0 132 104 147 221 147c101 0 173 -25 173 -105c0 -56 -26 -101 -68 -126c23 -17 36 -43 36 -72c0 -13 -1 -22 -4 -37z
M952 132c2 9 3 20 3 28c0 23 -10 32 -39 32h-50c-35 0 -59 -24 -59 -83c0 -34 24 -40 64 -40c43 0 71 10 81 63zM983 320c2 12 3 16 3 21c0 28 -24 35 -63 35c-49 0 -81 -15 -81 -75c0 -21 9 -33 38 -33h50c36 0 47 20 53 52zM401 302h-292l15 85l81 4l45 245l-86 -25l17 96
l125 43h93l-65 -359l81 -4z" />
    <glyph glyph-name="threeeighths" unicode="&#x215c;" horiz-adv-x="1149" 
d="M1003 745l-627 -745h-148l628 745h147zM1116 116c-21 -117 -116 -127 -222 -127c-95 0 -173 22 -173 114c0 69 29 110 71 129c-21 16 -34 44 -34 77c0 132 104 147 221 147c101 0 173 -25 173 -105c0 -56 -26 -101 -68 -126c23 -17 36 -43 36 -72c0 -13 -1 -22 -4 -37z
M992 132c2 9 3 20 3 28c0 23 -10 32 -39 32h-50c-35 0 -59 -24 -59 -83c0 -34 24 -40 64 -40c43 0 71 10 81 63zM1023 320c2 12 3 16 3 21c0 28 -24 35 -63 35c-49 0 -81 -15 -81 -75c0 -21 9 -33 38 -33h50c36 0 47 20 53 52zM512 652c0 -47 -26 -97 -74 -122
c29 -15 39 -47 39 -77c0 -19 -3 -36 -8 -50c-21 -86 -91 -112 -208 -112c-62 0 -130 11 -157 21l13 74c31 -3 94 -7 145 -7c58 0 89 14 89 77c0 22 -13 32 -60 32h-126l14 81h126c51 0 78 18 78 70c0 25 -18 32 -69 32s-108 -4 -146 -6l12 74c27 9 101 20 164 20
c111 0 168 -33 168 -107z" />
    <glyph glyph-name="fiveeighths" unicode="&#x215d;" horiz-adv-x="1149" 
d="M1003 745l-628 -745h-147l628 745h147zM1116 116c-21 -117 -116 -127 -222 -127c-95 0 -173 22 -173 114c0 69 29 110 71 129c-21 16 -34 44 -34 77c0 132 104 147 221 147c101 0 173 -25 173 -105c0 -56 -26 -101 -68 -126c23 -17 36 -43 36 -72c0 -13 -1 -22 -4 -37z
M992 132c2 9 3 20 3 28c0 23 -10 32 -39 32h-50c-35 0 -59 -24 -59 -83c0 -34 24 -40 64 -40c43 0 71 10 81 63zM1023 320c2 12 3 16 3 21c0 28 -24 35 -63 35c-49 0 -81 -15 -81 -75c0 -21 9 -33 38 -33h50c36 0 47 20 53 52zM521 748l-15 -88h-208l-22 -80h42
c125 0 168 -36 168 -111c0 -26 -5 -49 -15 -72c-28 -82 -105 -106 -206 -106c-73 0 -132 12 -157 18l13 77c40 -4 85 -8 131 -8c64 0 102 18 102 80c0 30 -20 38 -78 38h-132l67 252h310z" />
    <glyph glyph-name="seveneighths" unicode="&#x215e;" horiz-adv-x="1059" 
d="M913 745l-628 -745h-147l628 745h147zM1028 116c-21 -117 -116 -127 -222 -127c-95 0 -173 22 -173 114c0 69 29 110 71 129c-21 16 -34 44 -34 77c0 132 104 147 221 147c101 0 173 -25 173 -105c0 -56 -26 -101 -68 -126c23 -17 36 -43 36 -72c0 -13 -1 -22 -4 -37z
M904 132c2 9 3 20 3 28c0 23 -10 32 -39 32h-50c-35 0 -59 -24 -59 -83c0 -34 24 -40 64 -40c43 0 71 10 81 63zM935 320c2 12 3 16 3 21c0 28 -24 35 -63 35c-49 0 -81 -15 -81 -75c0 -21 9 -33 38 -33h50c36 0 47 20 53 52zM172 660l15 88h350l-16 -96l-267 -350h-136
l277 358h-223z" />
    <glyph glyph-name="onethird" unicode="&#x2153;" horiz-adv-x="1092" 
d="M965 745l-627 -745h-148l628 745h147zM401 302h-292l15 85l81 4l45 245l-86 -25l17 96l125 43h93l-65 -359l81 -4zM1111 350c0 -47 -26 -97 -74 -122c29 -15 39 -47 39 -77c0 -19 -3 -36 -8 -50c-21 -86 -91 -112 -208 -112c-62 0 -130 11 -157 21l13 74
c31 -3 94 -7 145 -7c58 0 89 14 89 77c0 22 -13 32 -60 32h-126l14 81h126c51 0 78 18 78 70c0 25 -18 32 -69 32s-108 -4 -146 -6l12 74c27 9 101 20 164 20c111 0 168 -33 168 -107z" />
    <glyph glyph-name="twothirds" unicode="&#x2154;" horiz-adv-x="1169" 
d="M1032 745l-628 -745h-147l628 745h147zM1151 350c0 -47 -26 -97 -74 -122c29 -15 39 -47 39 -77c0 -19 -3 -36 -8 -50c-21 -86 -91 -112 -208 -112c-62 0 -130 11 -157 21l13 74c31 -3 94 -7 145 -7c58 0 89 14 89 77c0 22 -13 32 -60 32h-126l14 81h126
c51 0 78 18 78 70c0 25 -18 32 -69 32s-108 -4 -146 -6l12 74c27 9 101 20 164 20c111 0 168 -33 168 -107zM173 665l13 75c39 10 114 19 165 19c116 0 167 -38 167 -107c0 -87 -71 -120 -157 -156c-94 -39 -107 -50 -116 -98l-1 -5h220l-15 -91h-346l9 55
c18 113 66 154 177 205c57 26 98 40 98 77c0 25 -18 33 -73 33c-40 0 -108 -4 -141 -7z" />
    <glyph glyph-name="zero.superior" unicode="&#x2070;" horiz-adv-x="478" 
d="M546 644c0 -28 -3 -52 -17 -124c-24 -126 -86 -193 -227 -193c-120 0 -165 65 -165 161c0 22 2 46 7 73l8 43c23 122 89 191 228 191c120 0 166 -61 166 -151zM419 645c0 41 -18 54 -53 54c-49 0 -70 -27 -87 -115l-8 -41c-6 -31 -8 -53 -8 -68c0 -40 18 -52 52 -52
c45 0 74 23 89 114l7 42c4 27 8 45 8 66z" />
    <glyph glyph-name="four.superior" unicode="&#x2074;" horiz-adv-x="471" 
d="M430 338h-128l18 97h-213l13 83l284 266h105l-47 -265h61l-15 -84h-60zM341 519l24 136l-143 -136h119z" />
    <glyph glyph-name="five.superior" unicode="&#x2075;" horiz-adv-x="452" 
d="M529 784l-15 -88h-208l-22 -80h42c125 0 168 -36 168 -111c0 -26 -5 -49 -15 -72c-28 -82 -105 -106 -206 -106c-73 0 -132 12 -157 18l13 77c40 -4 85 -8 131 -8c64 0 102 18 102 80c0 30 -20 38 -78 38h-132l67 252h310z" />
    <glyph glyph-name="six.superior" unicode="&#x2076;" horiz-adv-x="466" 
d="M524 777l-13 -76c-63 6 -92 7 -144 7c-76 0 -89 -26 -99 -81l-3 -12c23 5 59 8 80 8c97 0 153 -25 153 -106c0 -155 -101 -190 -217 -190c-112 0 -163 48 -163 140c0 20 3 43 7 66l15 87c20 116 67 175 225 175c67 0 134 -11 159 -18zM368 477c4 24 5 33 5 39
c0 28 -20 33 -54 33c-16 0 -42 -1 -66 -7l-8 -46c-3 -17 -5 -30 -5 -40c0 -36 19 -46 55 -46c40 0 64 19 73 67z" />
    <glyph glyph-name="seven.superior" unicode="&#x2077;" horiz-adv-x="454" 
d="M183 696l15 88h350l-16 -96l-267 -350h-136l277 358h-223z" />
    <glyph glyph-name="eight.superior" unicode="&#x2078;" horiz-adv-x="476" 
d="M503 454c-21 -117 -116 -127 -222 -127c-95 0 -173 22 -173 114c0 69 29 110 71 129c-21 16 -34 44 -34 77c0 132 104 147 221 147c101 0 173 -25 173 -105c0 -56 -26 -101 -68 -126c23 -17 36 -43 36 -72c0 -13 -1 -22 -4 -37zM379 470c2 9 3 20 3 28
c0 23 -10 32 -39 32h-50c-35 0 -59 -24 -59 -83c0 -34 24 -40 64 -40c43 0 71 10 81 63zM410 658c2 12 3 16 3 21c0 28 -24 35 -63 35c-49 0 -81 -15 -81 -75c0 -21 9 -33 38 -33h50c36 0 47 20 53 52z" />
    <glyph glyph-name="nine.superior" unicode="&#x2079;" horiz-adv-x="466" 
d="M129 345l13 77c41 -4 89 -8 144 -8c76 0 89 27 102 93c-23 -5 -59 -8 -81 -8c-96 0 -153 26 -153 107c0 156 103 189 218 189c112 0 163 -48 163 -140c0 -20 -3 -42 -7 -65l-15 -88c-20 -116 -67 -175 -225 -175c-67 0 -134 11 -159 18zM285 645c-4 -24 -5 -32 -5 -38
c0 -28 20 -34 54 -34c16 0 42 2 66 7l8 46c3 17 5 30 5 41c0 36 -19 45 -55 45c-40 0 -64 -19 -73 -67z" />
    <glyph glyph-name="zero.inferior" unicode="&#x2080;" horiz-adv-x="478" 
d="M481 99c0 -28 -3 -52 -17 -124c-24 -126 -86 -193 -227 -193c-120 0 -165 65 -165 161c0 22 2 46 7 73l8 43c23 122 89 191 228 191c120 0 166 -61 166 -151zM354 100c0 41 -18 54 -53 54c-49 0 -70 -27 -87 -115l-8 -41c-6 -31 -8 -53 -8 -68c0 -40 18 -52 52 -52
c45 0 74 23 89 114l7 42c4 27 8 45 8 66z" />
    <glyph glyph-name="one.inferior" unicode="&#x2081;" horiz-adv-x="407" 
d="M352 -207h-292l15 85l81 4l45 245l-86 -25l17 96l125 43h93l-65 -359l81 -4z" />
    <glyph glyph-name="two.inferior" unicode="&#x2082;" horiz-adv-x="458" 
d="M120 156l13 75c39 10 114 19 165 19c116 0 167 -38 167 -107c0 -87 -71 -120 -157 -156c-94 -39 -107 -50 -116 -98l-1 -5h220l-15 -91h-346l9 55c18 113 66 154 177 205c57 26 98 40 98 77c0 25 -18 33 -73 33c-40 0 -108 -4 -141 -7z" />
    <glyph glyph-name="three.inferior" unicode="&#x2083;" horiz-adv-x="455" 
d="M460 143c0 -47 -26 -97 -74 -122c29 -15 39 -47 39 -77c0 -19 -3 -36 -8 -50c-21 -86 -91 -112 -208 -112c-62 0 -130 11 -157 21l13 74c31 -3 94 -7 145 -7c58 0 89 14 89 77c0 22 -13 32 -60 32h-126l14 81h126c51 0 78 18 78 70c0 25 -18 32 -69 32s-108 -4 -146 -6
l12 74c27 9 101 20 164 20c111 0 168 -33 168 -107z" />
    <glyph glyph-name="four.inferior" unicode="&#x2084;" horiz-adv-x="471" 
d="M373 -207h-128l18 97h-213l13 83l284 266h105l-47 -265h61l-15 -84h-60zM284 -26l24 136l-143 -136h119z" />
    <glyph glyph-name="five.inferior" unicode="&#x2085;" horiz-adv-x="452" 
d="M464 239l-15 -88h-208l-22 -80h42c125 0 168 -36 168 -111c0 -26 -5 -49 -15 -72c-28 -82 -105 -106 -206 -106c-73 0 -132 12 -157 18l13 77c40 -4 85 -8 131 -8c64 0 102 18 102 80c0 30 -20 38 -78 38h-132l67 252h310z" />
    <glyph glyph-name="six.inferior" unicode="&#x2086;" horiz-adv-x="466" 
d="M475 232l-13 -76c-63 6 -92 7 -144 7c-76 0 -89 -26 -99 -81l-3 -12c23 5 59 8 80 8c97 0 153 -25 153 -106c0 -155 -101 -190 -217 -190c-112 0 -163 48 -163 140c0 20 3 43 7 66l15 87c20 116 67 175 225 175c67 0 134 -11 159 -18zM319 -68c4 24 5 33 5 39
c0 28 -20 33 -54 33c-16 0 -42 -1 -66 -7l-8 -46c-3 -17 -5 -30 -5 -40c0 -36 19 -46 55 -46c40 0 64 19 73 67z" />
    <glyph glyph-name="seven.inferior" unicode="&#x2087;" horiz-adv-x="454" 
d="M118 151l15 88h350l-16 -96l-267 -350h-136l277 358h-223z" />
    <glyph glyph-name="eight.inferior" unicode="&#x2088;" horiz-adv-x="476" 
d="M454 -91c-21 -117 -116 -127 -222 -127c-95 0 -173 22 -173 114c0 69 29 110 71 129c-21 16 -34 44 -34 77c0 132 104 147 221 147c101 0 173 -25 173 -105c0 -56 -26 -101 -68 -126c23 -17 36 -43 36 -72c0 -13 -1 -22 -4 -37zM330 -75c2 9 3 20 3 28
c0 23 -10 32 -39 32h-50c-35 0 -59 -24 -59 -83c0 -34 24 -40 64 -40c43 0 71 10 81 63zM361 113c2 12 3 16 3 21c0 28 -24 35 -63 35c-49 0 -81 -15 -81 -75c0 -21 9 -33 38 -33h50c36 0 47 20 53 52z" />
    <glyph glyph-name="nine.inferior" unicode="&#x2089;" horiz-adv-x="466" 
d="M56 -200l13 77c41 -4 89 -8 144 -8c76 0 89 27 102 93c-23 -5 -59 -8 -81 -8c-96 0 -153 26 -153 107c0 156 103 189 218 189c112 0 163 -48 163 -140c0 -20 -3 -42 -7 -65l-15 -88c-20 -116 -67 -175 -225 -175c-67 0 -134 11 -159 18zM212 100c-4 -24 -5 -32 -5 -38
c0 -28 20 -34 54 -34c16 0 42 2 66 7l8 46c3 17 5 30 5 41c0 36 -19 45 -55 45c-40 0 -64 -19 -73 -67z" />
    <glyph glyph-name="cent.inferior" horiz-adv-x="405" 
d="M416 235l-17 -97c-33 3 -71 5 -98 5c-68 0 -94 -26 -108 -109l-7 -40c-3 -19 -5 -36 -5 -49c0 -44 19 -60 73 -60c31 0 74 3 100 5l-16 -96c-19 -6 -52 -11 -85 -12l-14 -79h-109l15 87c-62 16 -98 64 -98 147c0 21 2 45 7 70l7 39c21 116 74 175 164 195l14 80h109
l-14 -75c34 -2 66 -7 82 -11z" />
    <glyph glyph-name="dollar.inferior" horiz-adv-x="438" 
d="M28 -204l15 82c27 -1 86 -5 145 -5c42 0 77 8 77 45c0 23 -14 31 -53 47l-43 17c-62 24 -98 62 -98 125c0 87 69 128 147 136l14 81h112l-14 -77c45 -3 86 -10 105 -15l-15 -84c-52 5 -105 8 -146 8c-32 0 -77 -5 -77 -39c0 -18 11 -28 51 -43l43 -16
c71 -26 104 -58 104 -122c0 -81 -55 -136 -146 -150l-14 -82h-112l14 79c-44 2 -84 8 -109 13z" />
    <glyph glyph-name="period.inferior" horiz-adv-x="218" 
d="M168 -155h-118l17 99h118z" />
    <glyph glyph-name="comma.inferior" horiz-adv-x="257" 
d="M225 -56l-101 -162h-94l80 162h115z" />
    <glyph glyph-name="commaaccent" horiz-adv-x="491" 
d="M344 -63l-121 -140h-152l93 140h180z" />
    <glyph glyph-name="Abreve" unicode="&#x102;" horiz-adv-x="748" 
d="M724 0h-193l-18 187h-211l-88 -187h-195l338 743h290zM510 321l-18 197c-3 36 -4 76 -3 114h-7c-13 -38 -28 -78 -44 -114l-88 -197h160zM746 948c-32 -111 -112 -159 -226 -159c-89 0 -191 32 -189 159h101c1 -53 32 -76 93 -76c56 0 101 17 120 76h101z" />
    <glyph glyph-name="Amacron" unicode="&#x100;" horiz-adv-x="748" 
d="M724 0h-193l-18 187h-211l-88 -187h-195l338 743h290zM510 321l-18 197c-3 36 -4 76 -3 114h-7c-13 -38 -28 -78 -44 -114l-88 -197h160zM719 809h-408l16 100h409z" />
    <glyph glyph-name="Aogonek" unicode="&#x104;" horiz-adv-x="748" 
d="M689 -200c-25 -7 -79 -17 -139 -17c-89 0 -133 33 -133 91c0 66 57 108 113 132l-17 181h-211l-88 -187h-195l338 743h290l77 -743c-71 -20 -154 -52 -154 -97c0 -17 13 -26 48 -26c29 0 58 3 84 5zM510 321l-18 197c-4 36 -4 76 -3 114h-7c-13 -38 -28 -78 -44 -114
l-88 -197h160z" />
    <glyph glyph-name="Aringacute" unicode="&#x1fa;" horiz-adv-x="748" 
d="M724 0h-193l-18 187h-211l-88 -187h-195l338 743h290zM510 321l-18 197c-3 36 -4 76 -3 114h-7c-13 -38 -28 -78 -44 -114l-88 -197h160zM653 882c0 -80 -60 -122 -141 -122c-82 0 -144 42 -144 122c0 79 62 122 144 122c81 0 141 -43 141 -122zM567 882
c0 34 -24 48 -55 48c-33 0 -56 -14 -56 -48c0 -33 23 -48 56 -48c31 0 55 15 55 48zM803 1161l-192 -146h-163l157 146h198z" />
    <glyph glyph-name="AEacute" unicode="&#x1fc;" horiz-adv-x="1031" 
d="M984 0h-506l34 187h-193l-86 -187h-193l332 743h743l-24 -136h-319l-30 -162h298l-22 -130h-298l-33 -179h319zM535 320l55 310h-89c-14 -35 -29 -74 -44 -109l-90 -201h168zM996 935l-192 -146h-163l157 146h198z" />
    <glyph glyph-name="Cacute" unicode="&#x106;" horiz-adv-x="616" 
d="M714 738l-23 -133c-49 4 -120 9 -181 9c-111 0 -169 -37 -199 -200l-16 -85c-6 -33 -9 -61 -9 -83c0 -93 48 -117 137 -117c61 0 133 4 183 8l-22 -134c-38 -9 -143 -20 -205 -20c-178 0 -282 66 -282 247c0 35 3 73 11 116l16 85c50 267 180 328 392 328
c62 0 163 -11 198 -21zM759 935l-192 -146h-163l157 146h198z" />
    <glyph glyph-name="Ccaron" unicode="&#x10c;" horiz-adv-x="616" 
d="M714 738l-23 -133c-49 4 -120 9 -181 9c-111 0 -169 -37 -199 -200l-16 -85c-6 -33 -9 -61 -9 -83c0 -93 48 -117 137 -117c61 0 133 4 183 8l-22 -134c-38 -9 -143 -20 -205 -20c-178 0 -282 66 -282 247c0 35 3 73 11 116l16 85c50 267 180 328 392 328
c62 0 163 -11 198 -21zM288 935h148l72 -82l101 82h157l-160 -146h-208z" />
    <glyph glyph-name="Ccircumflex" unicode="&#x108;" horiz-adv-x="616" 
d="M714 738l-23 -133c-49 4 -120 9 -181 9c-111 0 -169 -37 -199 -200l-16 -85c-6 -33 -9 -61 -9 -83c0 -93 48 -117 137 -117c61 0 133 4 183 8l-22 -134c-38 -9 -143 -20 -205 -20c-178 0 -282 66 -282 247c0 35 3 73 11 116l16 85c50 267 180 328 392 328
c62 0 163 -11 198 -21zM723 789h-148l-71 82l-102 -82h-156l160 146h209z" />
    <glyph glyph-name="Cdotaccent" unicode="&#x10a;" horiz-adv-x="616" 
d="M714 738l-23 -133c-49 4 -120 9 -181 9c-111 0 -169 -37 -199 -200l-16 -85c-6 -33 -9 -61 -9 -83c0 -93 48 -117 137 -117c61 0 133 4 183 8l-22 -134c-38 -9 -143 -20 -205 -20c-178 0 -282 66 -282 247c0 35 3 73 11 116l16 85c50 267 180 328 392 328
c62 0 163 -11 198 -21zM592 800h-180l22 127h180z" />
    <glyph glyph-name="Dcaron" unicode="&#x10e;" horiz-adv-x="738" 
d="M771 498c0 -32 -3 -67 -10 -105l-14 -77c-43 -238 -163 -326 -419 -326c-97 0 -160 3 -255 10l131 743c96 7 156 10 249 10c231 0 318 -86 318 -255zM589 506c0 105 -71 105 -225 105l-86 -479c181 0 249 1 286 203l14 77c7 40 11 71 11 94zM293 934h148l72 -82l101 82
h157l-160 -146h-208z" />
    <glyph glyph-name="Dcroat" unicode="&#x110;" horiz-adv-x="738" 
d="M771 498c0 -32 -3 -67 -10 -105l-14 -77c-42 -238 -164 -326 -419 -326c-88 0 -169 3 -255 10l57 317h-51l22 128h50l53 298c84 7 164 10 249 10c231 0 318 -86 318 -255zM589 506c0 81 -47 105 -148 105h-77l-31 -166h111l-22 -128h-110l-34 -185h77
c124 0 180 38 209 203l14 77c7 40 11 71 11 94z" />
    <glyph glyph-name="Ebreve" unicode="&#x114;" horiz-adv-x="628" 
d="M710 743l-23 -136h-319l-30 -162h298l-22 -130h-298l-33 -179h319l-23 -136h-506l131 743h506zM702 946c-32 -111 -112 -159 -226 -159c-89 0 -191 32 -189 159h101c1 -53 32 -76 93 -76c56 0 101 17 120 76h101z" />
    <glyph glyph-name="Ecaron" unicode="&#x11a;" horiz-adv-x="628" 
d="M710 743l-23 -136h-319l-30 -162h298l-22 -130h-298l-33 -179h319l-23 -136h-506l131 743h506zM259 935h148l72 -82l101 82h157l-160 -146h-208z" />
    <glyph glyph-name="Edotaccent" unicode="&#x116;" horiz-adv-x="628" 
d="M710 743l-23 -136h-319l-30 -162h298l-22 -130h-298l-33 -179h319l-23 -136h-506l131 743h506zM558 800h-180l22 127h180z" />
    <glyph glyph-name="Emacron" unicode="&#x112;" horiz-adv-x="628" 
d="M710 743l-23 -136h-319l-30 -162h298l-22 -130h-298l-33 -179h319l-23 -136h-506l131 743h506zM674 808h-408l16 100h409z" />
    <glyph glyph-name="Eng" unicode="&#x14a;" horiz-adv-x="776" 
d="M834 743l-136 -766c-23 -137 -94 -192 -231 -192c-32 0 -75 4 -98 9l19 113h54c50 0 60 16 68 63l11 61l-153 354c-15 35 -29 72 -37 102h-3c-5 -39 -11 -76 -19 -121l-66 -366h-170l130 743h189l153 -343c17 -38 28 -76 38 -109h2c5 48 12 92 19 131l60 321h170z" />
    <glyph glyph-name="Eogonek" unicode="&#x118;" horiz-adv-x="628" 
d="M544 -200c-25 -7 -79 -17 -139 -17c-92 0 -133 33 -133 88c0 74 76 109 140 129h-339l131 743h506l-23 -136h-319l-30 -162h298l-22 -130h-298l-33 -179h319l-23 -136c-71 -19 -154 -52 -154 -97c0 -17 12 -26 48 -26c29 0 58 3 84 5z" />
    <glyph glyph-name="Gbreve" unicode="&#x11e;" horiz-adv-x="705" 
d="M770 732l-22 -130c-63 6 -141 12 -223 12c-117 0 -185 -24 -218 -198l-17 -88c-8 -40 -11 -72 -11 -96c0 -81 46 -104 127 -104c30 0 61 1 86 3l49 270h173l-69 -394c-54 -10 -160 -24 -271 -24c-152 0 -275 58 -275 255c0 32 4 67 11 108l16 88c54 298 224 325 389 325
c110 0 222 -18 255 -27zM750 947c-32 -111 -112 -159 -226 -159c-89 0 -191 32 -189 159h101c1 -53 32 -76 93 -76c56 0 101 17 120 76h101z" />
    <glyph glyph-name="Gcircumflex" unicode="&#x11c;" horiz-adv-x="705" 
d="M770 732l-22 -130c-63 6 -141 12 -223 12c-117 0 -185 -24 -218 -198l-17 -88c-8 -40 -11 -72 -11 -96c0 -81 46 -104 127 -104c30 0 61 1 86 3l49 270h173l-69 -394c-54 -10 -160 -24 -271 -24c-152 0 -275 58 -275 255c0 32 4 67 11 108l16 88c54 298 224 325 389 325
c110 0 222 -18 255 -27zM745 788h-148l-71 82l-102 -82h-156l160 146h209z" />
    <glyph glyph-name="Gcommaaccent" unicode="&#x122;" horiz-adv-x="705" 
d="M770 732l-22 -130c-63 6 -141 12 -223 12c-117 0 -185 -24 -218 -198l-17 -88c-8 -40 -11 -72 -11 -96c0 -81 46 -104 127 -104c30 0 61 1 86 3l49 270h173l-69 -394c-54 -10 -160 -24 -271 -24c-152 0 -275 58 -275 255c0 32 4 67 11 108l16 88c54 298 224 325 389 325
c110 0 222 -18 255 -27zM473 -63l-121 -140h-152l93 140h180z" />
    <glyph glyph-name="Gdotaccent" unicode="&#x120;" horiz-adv-x="705" 
d="M770 732l-22 -130c-63 6 -141 12 -223 12c-117 0 -185 -24 -218 -198l-17 -88c-8 -40 -11 -72 -11 -96c0 -81 46 -104 127 -104c30 0 61 1 86 3l49 270h173l-69 -394c-54 -10 -160 -24 -271 -24c-152 0 -275 58 -275 255c0 32 4 67 11 108l16 88c54 298 224 325 389 325
c110 0 222 -18 255 -27zM605 800h-180l22 127h180z" />
    <glyph glyph-name="Hbar" unicode="&#x126;" horiz-adv-x="800" 
d="M108 553l14 80h62l20 110h188l-21 -110h280l20 110h187l-20 -110h60l-14 -80h-60l-97 -553h-187l55 313h-279l-55 -313h-188l97 553h-62zM340 455h279l18 98h-279z" />
    <glyph glyph-name="Hcircumflex" unicode="&#x124;" horiz-adv-x="800" 
d="M858 743l-131 -743h-187l55 313h-279l-55 -313h-188l131 743h188l-52 -288h279l52 288h187zM776 788h-148l-71 82l-102 -82h-156l160 146h209z" />
    <glyph glyph-name="Ibreve" unicode="&#x12c;" horiz-adv-x="333" 
d="M391 743l-131 -743h-187l131 743h187zM541 946c-32 -111 -112 -159 -226 -159c-89 0 -191 32 -189 159h101c1 -53 32 -76 93 -76c56 0 101 17 120 76h101z" />
    <glyph glyph-name="IJ" unicode="&#x132;" horiz-adv-x="663" 
d="M391 743l-131 -743h-187l131 743h187zM722 743l-137 -766c-25 -139 -90 -192 -230 -192c-33 0 -76 4 -98 9l28 113h44c51 0 61 16 69 63l137 773h187z" />
    <glyph glyph-name="Imacron" unicode="&#x12a;" horiz-adv-x="333" 
d="M391 743l-131 -743h-187l131 743h187zM514 808h-408l16 100h409z" />
    <glyph glyph-name="Iogonek" unicode="&#x12e;" horiz-adv-x="333" 
d="M391 743l-131 -743c-49 -15 -110 -52 -110 -93c0 -21 13 -30 48 -30c29 0 58 3 84 5l-13 -82c-25 -7 -78 -17 -128 -17c-106 0 -143 34 -143 101c0 52 31 91 75 117l131 742h187z" />
    <glyph glyph-name="Itilde" unicode="&#x128;" horiz-adv-x="333" 
d="M391 743l-131 -743h-187l131 743h187zM553 947c-11 -128 -75 -163 -138 -163c-36 0 -70 9 -108 31l-43 25c-20 13 -33 21 -49 21c-26 0 -37 -18 -45 -72h-98c13 131 77 163 145 163c36 0 62 -8 99 -29l43 -26c20 -12 34 -21 53 -21c25 0 40 20 43 71h98z" />
    <glyph glyph-name="Jcircumflex" unicode="&#x134;" horiz-adv-x="333" 
d="M391 743l-137 -766c-25 -139 -90 -192 -230 -192c-33 0 -76 4 -98 9l28 113h44c51 0 61 16 69 63l137 773h187zM545 789h-148l-71 82l-102 -82h-156l160 146h209z" />
    <glyph glyph-name="Kcommaaccent" unicode="&#x136;" horiz-adv-x="738" 
d="M863 743l-346 -370l209 -373h-217l-184 348l-62 -348h-188l132 743h188l-61 -339l309 339h220zM488 -63l-121 -140h-152l93 140h180z" />
    <glyph glyph-name="Lacute" unicode="&#x139;" horiz-adv-x="579" 
d="M575 141l-23 -141h-479l131 743h188l-108 -602h291zM706 935l-192 -146h-163l157 146h198z" />
    <glyph glyph-name="Lcaron" unicode="&#x13d;" horiz-adv-x="579" 
d="M575 141l-23 -141h-479l131 743h188l-108 -602h291zM658 778l-139 -256h-122l105 256h156z" />
    <glyph glyph-name="Lcommaaccent" unicode="&#x13b;" horiz-adv-x="579" 
d="M575 141l-23 -141h-479l131 743h188l-108 -602h291zM402 -63l-121 -140h-152l93 140h180z" />
    <glyph glyph-name="Ldot" unicode="&#x13f;" horiz-adv-x="579" 
d="M552 0h-479l131 743h188l-108 -602h291zM576 348h-165l29 165h165z" />
    <glyph glyph-name="Nacute" unicode="&#x143;" horiz-adv-x="776" 
d="M836 743l-131 -743h-195l-144 388c-12 32 -24 68 -33 101h-2c-6 -38 -12 -80 -20 -120l-68 -369h-170l132 743h191l146 -381c13 -32 26 -72 35 -105h2c4 35 11 82 19 127l67 359h171zM785 935l-192 -146h-163l157 146h198z" />
    <glyph glyph-name="Ncaron" unicode="&#x147;" horiz-adv-x="776" 
d="M836 743l-131 -743h-195l-144 388c-12 32 -24 68 -33 101h-2c-6 -38 -12 -80 -20 -120l-68 -369h-170l132 743h191l146 -381c13 -32 26 -72 35 -105h2c4 35 11 82 19 127l67 359h171zM318 934h148l72 -82l101 82h157l-160 -146h-208z" />
    <glyph glyph-name="Ncommaaccent" unicode="&#x145;" horiz-adv-x="776" 
d="M836 743l-131 -743h-195l-144 388c-12 32 -24 68 -33 101h-2c-6 -38 -12 -80 -20 -120l-68 -369h-170l132 743h191l146 -381c13 -32 26 -72 35 -105h2c4 35 11 82 19 127l67 359h171zM491 -63l-121 -140h-152l93 140h180z" />
    <glyph glyph-name="Obreve" unicode="&#x14e;" horiz-adv-x="745" 
d="M775 502c0 -36 -4 -73 -10 -110l-13 -76c-44 -257 -176 -333 -375 -333c-172 0 -276 78 -276 262c0 34 3 68 9 105l13 76c44 258 188 333 378 333c172 0 274 -72 274 -257zM594 509c0 78 -33 105 -113 105c-95 0 -149 -51 -176 -206l-13 -75c-6 -32 -10 -70 -10 -94
c0 -82 38 -111 111 -111c100 0 148 49 177 206l14 75c6 34 10 75 10 100zM745 947c-32 -111 -112 -159 -226 -159c-89 0 -191 32 -189 159h101c1 -53 32 -76 93 -76c56 0 101 17 120 76h101z" />
    <glyph glyph-name="Ohungarumlaut" unicode="&#x150;" horiz-adv-x="745" 
d="M775 502c0 -36 -4 -73 -10 -110l-13 -76c-44 -257 -176 -333 -375 -333c-172 0 -276 78 -276 262c0 34 3 68 9 105l13 76c44 258 188 333 378 333c172 0 274 -72 274 -257zM594 509c0 78 -33 105 -113 105c-95 0 -149 -51 -176 -206l-13 -75c-6 -32 -10 -70 -10 -94
c0 -82 38 -111 111 -111c100 0 148 49 177 206l14 75c6 34 10 75 10 100zM905 935l-192 -146h-150l157 146h185zM446 935h184l-192 -146h-150z" />
    <glyph glyph-name="Omacron" unicode="&#x14c;" horiz-adv-x="745" 
d="M775 502c0 -36 -4 -73 -10 -110l-13 -76c-44 -257 -176 -333 -375 -333c-172 0 -276 78 -276 262c0 34 3 68 9 105l13 76c44 258 188 333 378 333c172 0 274 -72 274 -257zM594 509c0 78 -33 105 -113 105c-95 0 -149 -51 -176 -206l-13 -75c-6 -32 -10 -70 -10 -94
c0 -82 38 -111 111 -111c100 0 148 49 177 206l14 75c6 34 10 75 10 100zM711 808h-408l16 100h409z" />
    <glyph glyph-name="Oslashacute" unicode="&#x1fe;" horiz-adv-x="745" 
d="M767 935l-192 -146h-163l157 146h198zM775 502c0 -36 -4 -73 -10 -110l-13 -76c-43 -257 -177 -333 -375 -333c-65 0 -120 11 -164 34l-30 -34h-160l106 121c-19 37 -28 84 -28 141c0 34 3 68 9 105l13 76c44 258 188 333 378 333c69 0 128 -12 172 -38l34 38h160
l-114 -130c14 -34 22 -77 22 -127zM292 333c-3 -17 -6 -36 -8 -54l278 316c-18 13 -45 19 -81 19c-95 0 -149 -51 -176 -206zM584 409c2 11 4 23 5 35l-265 -302c17 -10 40 -14 69 -14c100 0 148 49 177 206z" />
    <glyph glyph-name="Racute" unicode="&#x154;" horiz-adv-x="718" 
d="M754 545c0 -133 -60 -201 -161 -245l113 -300h-187l-102 265c-17 -1 -34 -2 -51 -2c-22 0 -44 1 -66 1l-47 -264h-180l132 743c74 5 149 9 241 9c165 0 308 -34 308 -207zM570 531c0 67 -47 81 -142 81c-24 0 -42 0 -66 -1l-40 -216c167 0 248 9 248 136zM733 935
l-192 -146h-163l157 146h198z" />
    <glyph glyph-name="Rcaron" unicode="&#x158;" horiz-adv-x="718" 
d="M754 545c0 -133 -60 -201 -161 -245l113 -300h-187l-102 265c-17 -1 -34 -2 -51 -2c-22 0 -44 1 -66 1l-47 -264h-180l132 743c74 5 149 9 241 9c165 0 308 -34 308 -207zM570 531c0 67 -47 81 -142 81c-24 0 -42 0 -66 -1l-40 -216c167 0 248 9 248 136zM277 934h148
l72 -82l101 82h157l-160 -146h-208z" />
    <glyph glyph-name="Rcommaaccent" unicode="&#x156;" horiz-adv-x="718" 
d="M754 545c0 -133 -60 -201 -161 -245l113 -300h-187l-102 265c-17 -1 -34 -2 -51 -2c-22 0 -44 1 -66 1l-47 -264h-180l132 743c74 5 149 9 241 9c165 0 308 -34 308 -207zM570 531c0 67 -47 81 -142 81c-24 0 -42 0 -66 -1l-40 -216c167 0 248 9 248 136zM469 -63
l-121 -140h-152l93 140h180z" />
    <glyph glyph-name="Sacute" unicode="&#x15a;" horiz-adv-x="646" 
d="M694 734l-20 -121c-85 8 -136 13 -221 13c-67 0 -131 -11 -131 -78c0 -33 16 -48 69 -71l98 -43c97 -43 149 -97 149 -200c0 -176 -135 -251 -324 -251c-104 0 -206 12 -253 24l20 122c58 -6 124 -11 227 -11c77 0 139 23 139 94c0 34 -20 52 -74 77l-100 45
c-83 37 -138 94 -138 198c0 182 155 227 324 227c105 0 193 -15 235 -25zM720 935l-192 -146h-163l157 146h198z" />
    <glyph glyph-name="Scedilla" unicode="&#x15e;" horiz-adv-x="646" 
d="M694 734l-20 -121c-85 8 -136 13 -221 13c-67 0 -131 -11 -131 -78c0 -33 16 -48 69 -71l98 -43c97 -43 149 -97 149 -200c0 -176 -135 -251 -324 -251c-104 0 -206 12 -253 24l20 122c58 -6 124 -11 227 -11c77 0 139 23 139 94c0 34 -20 52 -74 77l-100 45
c-83 37 -138 94 -138 198c0 182 155 227 324 227c105 0 193 -15 235 -25zM435 -63l-157 -140h-159l131 140h185z" />
    <glyph glyph-name="Scircumflex" unicode="&#x15c;" horiz-adv-x="646" 
d="M694 734l-20 -121c-85 8 -136 13 -221 13c-67 0 -131 -11 -131 -78c0 -33 16 -48 69 -71l98 -43c97 -43 149 -97 149 -200c0 -176 -135 -251 -324 -251c-104 0 -206 12 -253 24l20 122c58 -6 124 -11 227 -11c77 0 139 23 139 94c0 34 -20 52 -74 77l-100 45
c-83 37 -138 94 -138 198c0 182 155 227 324 227c105 0 193 -15 235 -25zM699 788h-148l-71 82l-102 -82h-156l160 146h209z" />
    <glyph glyph-name="Scommaaccent" unicode="&#x218;" horiz-adv-x="646" 
d="M694 734l-20 -121c-85 8 -136 13 -221 13c-67 0 -131 -11 -131 -78c0 -33 16 -48 69 -71l98 -43c97 -43 149 -97 149 -200c0 -176 -135 -251 -324 -251c-104 0 -206 12 -253 24l20 122c58 -6 124 -11 227 -11c77 0 139 23 139 94c0 34 -20 52 -74 77l-100 45
c-83 37 -138 94 -138 198c0 182 155 227 324 227c105 0 193 -15 235 -25zM422 -63l-121 -140h-152l93 140h180z" />
    <glyph glyph-name="Tbar" unicode="&#x166;" horiz-adv-x="670" 
d="M752 606h-215l-27 -145h186l-19 -111h-186l-62 -350h-188l62 350h-186l19 111h186l27 145h-215l23 137h618z" />
    <glyph glyph-name="Tcaron" unicode="&#x164;" horiz-adv-x="670" 
d="M775 743l-23 -137h-215l-108 -606h-188l108 606h-215l23 137h618zM255 934h148l72 -82l101 82h157l-160 -146h-208z" />
    <glyph glyph-name="Tcedilla" unicode="&#x162;" horiz-adv-x="670" 
d="M775 743l-23 -137h-215l-108 -606h-188l108 606h-215l23 137h618zM420 -63l-121 -140h-152l93 140h180z" />
    <glyph glyph-name="Tcommaaccent" unicode="&#x21a;" horiz-adv-x="670" 
d="M775 743l-23 -137h-215l-108 -606h-188l108 606h-215l23 137h618zM420 -63l-121 -140h-152l93 140h180z" />
    <glyph glyph-name="Ubreve" unicode="&#x16c;" horiz-adv-x="763" 
d="M827 743l-81 -459c-38 -213 -145 -301 -357 -301c-186 0 -275 87 -275 232c0 41 4 72 11 110l74 418h185l-77 -437c-6 -34 -10 -62 -10 -86c0 -68 32 -95 110 -95c107 0 136 50 159 181l77 437h184zM750 940c-32 -111 -112 -159 -226 -159c-89 0 -191 32 -189 159h101
c1 -53 32 -76 93 -76c56 0 101 17 120 76h101z" />
    <glyph glyph-name="Uhungarumlaut" unicode="&#x170;" horiz-adv-x="763" 
d="M827 743l-81 -459c-38 -213 -145 -301 -357 -301c-186 0 -275 87 -275 232c0 41 4 72 11 110l74 418h185l-77 -437c-6 -34 -10 -62 -10 -86c0 -68 32 -95 110 -95c107 0 136 50 159 181l77 437h184zM927 935l-192 -146h-150l157 146h185zM468 935h184l-192 -146h-150z
" />
    <glyph glyph-name="Umacron" unicode="&#x16a;" horiz-adv-x="763" 
d="M827 743l-81 -459c-38 -213 -145 -301 -357 -301c-186 0 -275 87 -275 232c0 41 4 72 11 110l74 418h185l-77 -437c-6 -34 -10 -62 -10 -86c0 -68 32 -95 110 -95c107 0 136 50 159 181l77 437h184zM728 808h-408l16 100h409z" />
    <glyph glyph-name="Uogonek" unicode="&#x172;" horiz-adv-x="763" 
d="M482 -200c-25 -7 -78 -17 -138 -17c-92 0 -133 34 -133 90c0 60 49 95 105 116c-136 20 -202 101 -202 226c0 41 4 72 11 110l74 418h185l-77 -437c-6 -34 -10 -62 -10 -86c0 -68 32 -95 110 -95c107 0 136 50 159 181l77 437h184l-81 -459c-31 -176 -110 -267 -256 -292
c-64 -21 -127 -49 -127 -89c0 -17 13 -26 48 -26c29 0 58 3 84 5z" />
    <glyph glyph-name="Uring" unicode="&#x16e;" horiz-adv-x="763" 
d="M827 743l-81 -459c-38 -213 -145 -301 -357 -301c-186 0 -275 87 -275 232c0 41 4 72 11 110l74 418h185l-77 -437c-6 -34 -10 -62 -10 -86c0 -68 32 -95 110 -95c107 0 136 50 159 181l77 437h184zM667 895c0 -80 -60 -122 -141 -122c-82 0 -144 42 -144 122
c0 79 62 122 144 122c81 0 141 -43 141 -122zM581 895c0 34 -24 48 -55 48c-33 0 -56 -14 -56 -48c0 -33 23 -48 56 -48c31 0 55 15 55 48z" />
    <glyph glyph-name="Utilde" unicode="&#x168;" horiz-adv-x="763" 
d="M827 743l-81 -459c-38 -213 -145 -301 -357 -301c-186 0 -275 87 -275 232c0 41 4 72 11 110l74 418h185l-77 -437c-6 -34 -10 -62 -10 -86c0 -68 32 -95 110 -95c107 0 136 50 159 181l77 437h184zM775 947c-11 -128 -75 -163 -138 -163c-36 0 -70 9 -108 31l-43 25
c-20 13 -33 21 -49 21c-26 0 -37 -18 -45 -72h-98c13 131 77 163 145 163c36 0 62 -8 99 -29l43 -26c20 -12 34 -21 53 -21c25 0 40 20 43 71h98z" />
    <glyph glyph-name="Wacute" unicode="&#x1e82;" horiz-adv-x="995" 
d="M1089 743l-255 -743h-227l-23 352c-2 33 -2 65 -3 103h-3c-10 -28 -23 -67 -39 -103l-150 -352h-228l7 743h184l-13 -405c-2 -52 -4 -99 -8 -142h4c18 44 35 90 53 132l118 275h194l15 -277c2 -41 5 -87 5 -130h4c13 44 25 87 43 142l136 405h186zM900 935l-192 -146
h-163l157 146h198z" />
    <glyph glyph-name="Wcircumflex" unicode="&#x174;" horiz-adv-x="995" 
d="M1089 743l-255 -743h-227l-23 352c-2 33 -2 65 -3 103h-3c-10 -28 -23 -67 -39 -103l-150 -352h-228l7 743h184l-13 -405c-2 -52 -4 -99 -8 -142h4c18 44 35 90 53 132l118 275h194l15 -277c2 -41 5 -87 5 -130h4c13 44 25 87 43 142l136 405h186zM871 789h-148l-71 82
l-102 -82h-156l160 146h209z" />
    <glyph glyph-name="Wdieresis" unicode="&#x1e84;" horiz-adv-x="995" 
d="M1089 743l-255 -743h-227l-23 352c-2 33 -2 65 -3 103h-3c-10 -28 -23 -67 -39 -103l-150 -352h-228l7 743h184l-13 -405c-2 -52 -4 -99 -8 -142h4c18 44 35 90 53 132l118 275h194l15 -277c2 -41 5 -87 5 -130h4c13 44 25 87 43 142l136 405h186zM858 927l-22 -127h-140
l22 127h140zM604 927h-140l-22 -127h140z" />
    <glyph glyph-name="Wgrave" unicode="&#x1e80;" horiz-adv-x="995" 
d="M1089 743l-255 -743h-227l-23 352c-2 33 -2 65 -3 103h-3c-10 -28 -23 -67 -39 -103l-150 -352h-228l7 743h184l-13 -405c-2 -52 -4 -99 -8 -142h4c18 44 35 90 53 132l118 275h194l15 -277c2 -41 5 -87 5 -130h4c13 44 25 87 43 142l136 405h186zM753 789h-161l-141 146
h196z" />
    <glyph glyph-name="Ycircumflex" unicode="&#x176;" horiz-adv-x="706" 
d="M823 743l-332 -475l-47 -268h-182l47 268l-164 475h186l64 -196c11 -34 20 -77 27 -114h5c18 36 45 80 69 114l136 196h191zM728 789h-148l-71 82l-102 -82h-156l160 146h209z" />
    <glyph glyph-name="Ygrave" unicode="&#x1ef2;" horiz-adv-x="706" 
d="M823 743l-332 -475l-47 -268h-182l47 268l-164 475h186l64 -196c11 -34 20 -77 27 -114h5c18 36 45 80 69 114l136 196h191zM594 788h-161l-141 146h196z" />
    <glyph glyph-name="Zacute" unicode="&#x179;" horiz-adv-x="658" 
d="M729 743l-24 -145l-411 -459h336l-23 -139h-556l23 143l412 460h-317l23 140h537zM741 935l-192 -146h-163l157 146h198z" />
    <glyph glyph-name="Zdotaccent" unicode="&#x17b;" horiz-adv-x="658" 
d="M729 743l-24 -145l-411 -459h336l-23 -139h-556l23 143l412 460h-317l23 140h537zM560 800h-180l22 127h180z" />
    <glyph glyph-name="Idotaccent" unicode="&#x130;" horiz-adv-x="333" 
d="M391 743l-131 -743h-187l131 743h187zM398 800h-180l22 127h180z" />
    <glyph glyph-name="abreve" unicode="&#x103;" horiz-adv-x="654" 
d="M586 0h-162l5 29c-45 -26 -100 -43 -169 -43c-113 0 -176 67 -176 193c0 25 2 54 8 84l13 70c38 204 132 252 337 252c66 0 159 -5 243 -15zM436 137l56 313c-28 2 -66 3 -82 3c-74 0 -113 -20 -134 -136l-13 -70c-3 -24 -6 -43 -6 -58c0 -50 25 -72 81 -72
c34 0 68 9 98 20zM663 789c-32 -111 -112 -159 -226 -159c-89 0 -191 32 -189 159h101c1 -53 32 -76 93 -76c56 0 101 17 120 76h101z" />
    <glyph glyph-name="amacron" unicode="&#x101;" horiz-adv-x="654" 
d="M586 0h-162l5 29c-45 -26 -100 -43 -169 -43c-113 0 -176 67 -176 193c0 25 2 54 8 84l13 70c38 204 132 252 337 252c66 0 159 -5 243 -15zM436 137l56 313c-28 2 -66 3 -82 3c-74 0 -113 -20 -134 -136l-13 -70c-3 -24 -6 -43 -6 -58c0 -50 25 -72 81 -72
c34 0 68 9 98 20zM628 653h-408l16 100h409z" />
    <glyph glyph-name="aogonek" unicode="&#x105;" horiz-adv-x="654" 
d="M424 0l8 43c-33 -19 -113 -57 -187 -57c-98 0 -161 67 -161 193c0 25 3 54 8 84l13 70c36 204 134 252 337 252c66 0 159 -5 243 -15l-99 -570c-72 -22 -155 -52 -155 -97c0 -17 14 -26 48 -26c29 0 59 3 84 5l-13 -82c-24 -7 -78 -17 -138 -17c-92 0 -133 32 -133 88
c0 67 76 106 145 129zM436 137l56 313c-28 2 -66 3 -82 3c-74 0 -112 -20 -134 -136l-13 -70c-3 -24 -6 -43 -6 -58c0 -50 25 -72 81 -72c34 0 68 9 98 20z" />
    <glyph glyph-name="aringacute" unicode="&#x1fb;" horiz-adv-x="654" 
d="M586 0h-162l5 29c-45 -26 -100 -43 -169 -43c-113 0 -176 67 -176 193c0 25 2 54 8 84l13 70c38 204 132 252 337 252c66 0 159 -5 243 -15zM436 137l56 313c-28 2 -66 3 -82 3c-74 0 -113 -20 -134 -136l-13 -70c-3 -24 -6 -43 -6 -58c0 -50 25 -72 81 -72
c34 0 68 9 98 20zM586 728c0 -80 -60 -122 -141 -122c-82 0 -144 42 -144 122c0 79 62 122 144 122c81 0 141 -43 141 -122zM500 728c0 34 -24 48 -55 48c-33 0 -56 -14 -56 -48c0 -33 23 -48 56 -48c31 0 55 15 55 48zM746 1012l-192 -146h-163l157 146h198z" />
    <glyph glyph-name="aeacute" unicode="&#x1fd;" horiz-adv-x="963" 
d="M980 378c0 -25 -3 -52 -18 -140h-374l-2 -8c-3 -18 -5 -35 -5 -50c0 -45 22 -71 115 -71c66 0 157 5 217 11l-19 -111c-47 -11 -140 -23 -235 -23c-101 0 -167 20 -203 67c-83 -51 -160 -67 -244 -67c-101 0 -147 49 -147 132c0 14 1 28 7 67c27 149 145 156 307 156h53
l6 31c2 15 4 28 4 37c0 36 -21 47 -92 47c-55 0 -116 -3 -187 -10l18 104c33 12 128 35 225 35c95 0 139 -16 167 -45c46 28 102 44 177 44c173 0 230 -91 230 -206zM814 385c0 43 -18 76 -85 76c-87 0 -112 -58 -123 -120l-2 -8h204c4 23 6 39 6 52zM423 251h-58
c-79 0 -114 -9 -127 -74c-5 -30 -5 -35 -5 -40c0 -31 22 -41 55 -41c45 0 92 18 111 28zM859 777l-192 -146h-163l157 146h198z" />
    <glyph glyph-name="cacute" unicode="&#x107;" horiz-adv-x="533" 
d="M590 563l-20 -119c-74 5 -123 8 -157 8c-76 0 -116 -23 -137 -135l-12 -63c-4 -23 -6 -41 -6 -57c0 -64 31 -79 95 -79c34 0 83 2 159 8l-20 -119c-34 -8 -103 -22 -189 -22c-153 0 -217 78 -217 202c0 25 3 52 8 83l11 64c31 180 124 251 299 251c90 0 155 -14 186 -22z
M671 777l-192 -146h-163l157 146h198z" />
    <glyph glyph-name="ccaron" unicode="&#x10d;" horiz-adv-x="533" 
d="M590 563l-20 -119c-74 5 -123 8 -157 8c-76 0 -116 -23 -137 -135l-12 -63c-4 -23 -6 -41 -6 -57c0 -64 31 -79 95 -79c34 0 83 2 159 8l-20 -119c-34 -8 -103 -22 -189 -22c-153 0 -217 78 -217 202c0 25 3 52 8 83l11 64c31 180 124 251 299 251c90 0 155 -14 186 -22z
M193 777h148l72 -82l101 82h157l-160 -146h-208z" />
    <glyph glyph-name="ccircumflex" unicode="&#x109;" horiz-adv-x="533" 
d="M590 563l-20 -119c-74 5 -123 8 -157 8c-76 0 -116 -23 -137 -135l-12 -63c-4 -23 -6 -41 -6 -57c0 -64 31 -79 95 -79c34 0 83 2 159 8l-20 -119c-34 -8 -103 -22 -189 -22c-153 0 -217 78 -217 202c0 25 3 52 8 83l11 64c31 180 124 251 299 251c90 0 155 -14 186 -22z
M644 631h-148l-71 82l-102 -82h-156l160 146h209z" />
    <glyph glyph-name="cdotaccent" unicode="&#x10b;" horiz-adv-x="533" 
d="M590 563l-20 -119c-74 5 -123 8 -157 8c-76 0 -116 -23 -137 -135l-12 -63c-4 -23 -6 -41 -6 -57c0 -64 31 -79 95 -79c34 0 83 2 159 8l-20 -119c-34 -8 -103 -22 -189 -22c-153 0 -217 78 -217 202c0 25 3 52 8 83l11 64c31 180 124 251 299 251c90 0 155 -14 186 -22z
M503 651h-180l22 127h180z" />
    <glyph glyph-name="dcaron" unicode="&#x10f;" horiz-adv-x="823" 
d="M491 445c-29 5 -62 8 -84 8c-71 0 -110 -20 -131 -136l-13 -70c-4 -23 -6 -43 -6 -58c0 -51 24 -72 80 -72c34 0 68 9 99 20zM722 779l-137 -779h-161l5 29c-44 -24 -102 -44 -166 -44c-116 0 -179 69 -179 194c0 26 3 54 8 85l13 70c35 199 143 251 303 251
c40 0 72 -3 103 -9l37 203h174zM983 779l-139 -256h-122l105 256h156z" />
    <glyph glyph-name="dcroat" unicode="&#x111;" horiz-adv-x="654" 
d="M356 638l16 85h165l11 56h174l-10 -56h57l-15 -85h-57l-112 -638h-161l5 29c-44 -24 -102 -44 -166 -44c-116 0 -179 69 -179 194c0 26 3 54 8 85l13 70c35 199 143 251 303 251c40 0 72 -3 103 -9l12 62h-167zM436 137l55 308c-29 5 -62 8 -84 8
c-71 0 -110 -20 -131 -136l-13 -70c-4 -23 -6 -43 -6 -58c0 -51 24 -72 80 -72c34 0 68 9 99 20z" />
    <glyph glyph-name="ebreve" unicode="&#x115;" horiz-adv-x="637" 
d="M652 376c0 -40 -5 -79 -17 -138h-374c-4 -25 -7 -41 -7 -54c0 -46 25 -69 117 -69c59 0 109 3 216 10l-19 -115c-47 -11 -129 -25 -231 -25c-164 0 -251 61 -251 205c0 29 4 61 10 96l5 30c33 200 151 269 317 269c167 0 234 -85 234 -209zM488 385c0 43 -19 76 -86 76
c-85 0 -111 -58 -122 -120l-2 -8h204c4 21 6 39 6 52zM664 788c-32 -111 -112 -159 -226 -159c-89 0 -191 32 -189 159h101c1 -53 32 -76 93 -76c56 0 101 17 120 76h101z" />
    <glyph glyph-name="ecaron" unicode="&#x11b;" horiz-adv-x="637" 
d="M652 376c0 -40 -5 -79 -17 -138h-374c-4 -25 -7 -41 -7 -54c0 -46 25 -69 117 -69c59 0 109 3 216 10l-19 -115c-47 -11 -129 -25 -231 -25c-164 0 -251 61 -251 205c0 29 4 61 10 96l5 30c33 200 151 269 317 269c167 0 234 -85 234 -209zM488 385c0 43 -19 76 -86 76
c-85 0 -111 -58 -122 -120l-2 -8h204c4 21 6 39 6 52zM226 777h148l72 -82l101 82h157l-160 -146h-208z" />
    <glyph glyph-name="edotaccent" unicode="&#x117;" horiz-adv-x="637" 
d="M652 376c0 -40 -5 -79 -17 -138h-374c-4 -25 -7 -41 -7 -54c0 -46 25 -69 117 -69c59 0 109 3 216 10l-19 -115c-47 -11 -129 -25 -231 -25c-164 0 -251 61 -251 205c0 29 4 61 10 96l5 30c33 200 151 269 317 269c167 0 234 -85 234 -209zM488 385c0 43 -19 76 -86 76
c-85 0 -111 -58 -122 -120l-2 -8h204c4 21 6 39 6 52zM517 651h-180l22 127h180z" />
    <glyph glyph-name="emacron" unicode="&#x113;" horiz-adv-x="637" 
d="M652 376c0 -40 -5 -79 -17 -138h-374c-4 -25 -7 -41 -7 -54c0 -46 25 -69 117 -69c59 0 109 3 216 10l-19 -115c-47 -11 -129 -25 -231 -25c-164 0 -251 61 -251 205c0 29 4 61 10 96l5 30c33 200 151 269 317 269c167 0 234 -85 234 -209zM488 385c0 43 -19 76 -86 76
c-85 0 -111 -58 -122 -120l-2 -8h204c4 21 6 39 6 52zM631 653h-408l16 100h409z" />
    <glyph glyph-name="eng" unicode="&#x14b;" horiz-adv-x="671" 
d="M666 345l-66 -379c-25 -139 -80 -183 -217 -183c-40 0 -80 4 -95 8l19 110c18 0 36 -1 55 -1c44 0 53 15 63 66l70 393c3 18 5 32 5 44c0 35 -16 50 -57 50c-35 0 -80 -11 -126 -34l-74 -419h-175l100 570h164l-7 -44c63 39 132 59 190 59c128 0 162 -63 162 -145
c0 -30 -5 -63 -11 -95z" />
    <glyph glyph-name="eogonek" unicode="&#x119;" horiz-adv-x="637" 
d="M652 376c0 -40 -5 -79 -17 -138h-374c-4 -25 -7 -41 -7 -54c0 -46 25 -69 117 -69c59 0 119 4 216 10l-19 -115c-38 -11 -158 -47 -158 -107c0 -17 13 -26 48 -26c29 0 58 3 84 5l-13 -82c-25 -7 -78 -17 -138 -17c-92 0 -133 34 -133 90c0 52 37 88 83 112h-4
c-164 0 -251 61 -251 205c0 29 4 61 10 96l5 30c35 200 150 269 317 269s234 -85 234 -209zM488 385c0 43 -19 76 -86 76c-85 0 -111 -58 -122 -120l-2 -8h204c4 21 6 39 6 52z" />
    <glyph glyph-name="gbreve" unicode="&#x11f;" horiz-adv-x="653" 
d="M686 570l-103 -586c-23 -134 -95 -201 -297 -201c-116 0 -220 18 -239 23l18 105c64 -4 152 -9 220 -9c98 0 116 25 125 82l3 20c-20 -3 -61 -7 -92 -7c-150 0 -233 65 -233 203c0 22 3 47 8 74l10 59c31 183 137 252 349 252c83 0 167 -7 231 -15zM493 449
c-10 1 -41 4 -76 4c-93 0 -122 -41 -139 -134l-11 -58c-4 -22 -5 -39 -5 -55c0 -58 29 -79 94 -79c30 0 67 4 79 6zM682 788c-32 -111 -112 -159 -226 -159c-89 0 -191 32 -189 159h101c1 -53 32 -76 93 -76c56 0 101 17 120 76h101z" />
    <glyph glyph-name="gcircumflex" unicode="&#x11d;" horiz-adv-x="653" 
d="M686 570l-103 -586c-23 -134 -95 -201 -297 -201c-116 0 -220 18 -239 23l18 105c64 -4 152 -9 220 -9c98 0 116 25 125 82l3 20c-20 -3 -61 -7 -92 -7c-150 0 -233 65 -233 203c0 22 3 47 8 74l10 59c31 183 137 252 349 252c83 0 167 -7 231 -15zM493 449
c-10 1 -41 4 -76 4c-93 0 -122 -41 -139 -134l-11 -58c-4 -22 -5 -39 -5 -55c0 -58 29 -79 94 -79c30 0 67 4 79 6zM685 631h-148l-71 82l-102 -82h-156l160 146h209z" />
    <glyph glyph-name="gcommaaccent" unicode="&#x123;" horiz-adv-x="653" 
d="M686 570l-103 -586c-23 -134 -95 -201 -297 -201c-116 0 -220 18 -239 23l18 105c64 -4 152 -9 220 -9c98 0 116 25 125 82l3 20c-20 -3 -61 -7 -92 -7c-150 0 -233 65 -233 203c0 22 3 47 8 74l10 59c31 183 137 252 349 252c83 0 167 -7 231 -15zM493 449
c-10 1 -41 4 -76 4c-93 0 -122 -41 -139 -134l-11 -58c-4 -22 -5 -39 -5 -55c0 -58 29 -79 94 -79c30 0 67 4 79 6zM360 632l121 140h152l-93 -140h-180z" />
    <glyph glyph-name="gdotaccent" unicode="&#x121;" horiz-adv-x="653" 
d="M686 570l-103 -586c-23 -134 -95 -201 -297 -201c-116 0 -220 18 -239 23l18 105c64 -4 152 -9 220 -9c98 0 116 25 125 82l3 20c-20 -3 -61 -7 -92 -7c-150 0 -233 65 -233 203c0 22 3 47 8 74l10 59c31 183 137 252 349 252c83 0 167 -7 231 -15zM493 449
c-10 1 -41 4 -76 4c-93 0 -122 -41 -139 -134l-11 -58c-4 -22 -5 -39 -5 -55c0 -58 29 -79 94 -79c30 0 67 4 79 6zM540 651h-180l22 127h180z" />
    <glyph glyph-name="hbar" unicode="&#x127;" 
d="M125 641l15 82h55l11 56h174l-10 -56h167l-15 -82h-167l-17 -96c47 22 114 40 178 40c124 0 161 -60 161 -145c0 -25 -4 -58 -11 -95l-59 -345h-175l63 359c3 17 4 31 4 42c0 40 -19 52 -61 52c-44 0 -91 -14 -120 -26l-75 -427h-175l113 641h-56z" />
    <glyph glyph-name="hcircumflex" unicode="&#x125;" 
d="M677 440c0 -25 -5 -58 -11 -95l-59 -345h-175l63 359c3 17 4 31 4 42c0 40 -19 52 -61 52c-44 0 -91 -14 -120 -26l-75 -427h-175l138 779h174l-42 -234c47 22 114 40 178 40c124 0 161 -60 161 -145zM714 799h-148l-71 82l-102 -82h-156l160 146h209z" />
    <glyph glyph-name="ibreve" unicode="&#x12d;" horiz-adv-x="318" 
d="M502 788c-32 -111 -112 -159 -226 -159c-89 0 -191 32 -189 159h101c1 -53 32 -76 93 -76c56 0 101 17 120 76h101zM246 0h-174l99 570h174z" />
    <glyph glyph-name="ij" unicode="&#x133;" horiz-adv-x="636" 
d="M346 570l-99 -570h-174l99 570h174zM387 779l-23 -131h-180l23 131h180zM662 570l-107 -604c-24 -139 -84 -183 -216 -183c-40 0 -80 4 -95 8l19 110c18 0 36 -1 55 -1c43 0 54 15 63 66l107 604h174zM703 779l-23 -131h-182l23 131h182z" />
    <glyph glyph-name="imacron" unicode="&#x12b;" horiz-adv-x="318" 
d="M475 653h-408l16 100h409zM246 0h-174l99 570h174z" />
    <glyph glyph-name="iogonek" unicode="&#x12f;" horiz-adv-x="318" 
d="M265 -200c-25 -7 -82 -17 -139 -17c-82 0 -131 20 -131 96c0 52 34 88 77 123l99 568h174l-99 -570c-26 -14 -99 -53 -99 -94c0 -19 12 -29 47 -29c31 0 58 3 84 5zM363 648h-180l23 131h180z" />
    <glyph glyph-name="itilde" unicode="&#x129;" horiz-adv-x="318" 
d="M527 790c-11 -128 -75 -163 -138 -163c-36 0 -70 9 -108 31l-43 25c-20 13 -33 21 -49 21c-26 0 -37 -18 -45 -72h-98c13 131 77 163 145 163c36 0 62 -8 99 -29l43 -26c20 -12 34 -21 53 -21c25 0 40 20 43 71h98zM246 0h-174l99 570h174z" />
    <glyph glyph-name="jcircumflex" unicode="&#x135;" horiz-adv-x="318" 
d="M239 -34c-24 -139 -84 -183 -216 -183c-40 0 -80 4 -96 8l19 110c19 0 37 -1 56 -1c44 0 53 15 63 66l106 604h174zM507 631h-148l-71 82l-102 -82h-156l160 146h209z" />
    <glyph glyph-name="kcommaaccent" unicode="&#x137;" horiz-adv-x="624" 
d="M710 570l-246 -274l150 -296h-190l-134 270l-47 -270h-175l138 779h174l-81 -457l218 248h193zM408 -63l-121 -140h-152l93 140h180z" />
    <glyph glyph-name="lacute" unicode="&#x13a;" horiz-adv-x="317" 
d="M382 779l-136 -779h-174l137 779h173zM553 950l-192 -146h-163l157 146h198z" />
    <glyph glyph-name="lcaron" unicode="&#x13e;" horiz-adv-x="488" 
d="M382 779l-136 -779h-174l137 779h173zM653 779l-139 -256h-122l105 256h156z" />
    <glyph glyph-name="lcommaaccent" unicode="&#x13c;" horiz-adv-x="317" 
d="M382 779l-136 -779h-174l137 779h173zM239 -63l-121 -140h-152l93 140h180z" />
    <glyph glyph-name="ldot" unicode="&#x140;" horiz-adv-x="476" 
d="M382 779l-136 -779h-174l137 779h173zM517 286h-165l29 165h165z" />
    <glyph glyph-name="nacute" unicode="&#x144;" horiz-adv-x="671" 
d="M677 440c0 -30 -5 -63 -11 -95l-59 -345h-175l63 359c3 18 5 32 5 44c0 35 -16 50 -57 50c-35 0 -80 -11 -126 -34l-74 -419h-175l100 570h164l-7 -44c63 39 132 59 190 59c128 0 162 -63 162 -145zM664 777l-192 -146h-163l157 146h198z" />
    <glyph glyph-name="ncaron" unicode="&#x148;" horiz-adv-x="671" 
d="M677 440c0 -30 -5 -63 -11 -95l-59 -345h-175l63 359c3 18 5 32 5 44c0 35 -16 50 -57 50c-35 0 -80 -11 -126 -34l-74 -419h-175l100 570h164l-7 -44c63 39 132 59 190 59c128 0 162 -63 162 -145zM246 777h148l72 -82l101 82h157l-160 -146h-208z" />
    <glyph glyph-name="ncommaaccent" unicode="&#x146;" horiz-adv-x="671" 
d="M677 440c0 -30 -5 -63 -11 -95l-59 -345h-175l63 359c3 18 5 32 5 44c0 35 -16 50 -57 50c-35 0 -80 -11 -126 -34l-74 -419h-175l100 570h164l-7 -44c63 39 132 59 190 59c128 0 162 -63 162 -145zM368 -63l-121 -140h-152l93 140h180z" />
    <glyph glyph-name="obreve" unicode="&#x14f;" horiz-adv-x="642" 
d="M655 381c0 -25 -4 -58 -8 -79l-11 -63c-33 -188 -143 -254 -310 -254c-157 0 -239 68 -239 204c0 27 0 54 7 88l11 55c37 188 144 253 309 253c154 0 241 -62 241 -204zM482 379c0 48 -19 73 -83 73c-76 0 -105 -35 -124 -136l-12 -62c-5 -25 -6 -45 -6 -65
c0 -51 23 -71 82 -71c78 0 105 35 125 136l12 62c5 28 6 46 6 63zM667 788c-32 -111 -112 -159 -226 -159c-89 0 -191 32 -189 159h101c1 -53 32 -76 93 -76c56 0 101 17 120 76h101z" />
    <glyph glyph-name="ohungarumlaut" unicode="&#x151;" horiz-adv-x="642" 
d="M655 381c0 -25 -4 -58 -8 -79l-11 -63c-33 -188 -143 -254 -310 -254c-157 0 -239 68 -239 204c0 27 0 54 7 88l11 55c37 188 144 253 309 253c154 0 241 -62 241 -204zM482 379c0 48 -19 73 -83 73c-76 0 -105 -35 -124 -136l-12 -62c-5 -25 -6 -45 -6 -65
c0 -51 23 -71 82 -71c78 0 105 35 125 136l12 62c5 28 6 46 6 63zM837 779l-192 -146h-150l157 146h185zM378 779h184l-192 -146h-150z" />
    <glyph glyph-name="omacron" unicode="&#x14d;" horiz-adv-x="642" 
d="M655 381c0 -25 -4 -58 -8 -79l-11 -63c-33 -188 -143 -254 -310 -254c-157 0 -239 68 -239 204c0 27 0 54 7 88l11 55c37 188 144 253 309 253c154 0 241 -62 241 -204zM482 379c0 48 -19 73 -83 73c-76 0 -105 -35 -124 -136l-12 -62c-5 -25 -6 -45 -6 -65
c0 -51 23 -71 82 -71c78 0 105 35 125 136l12 62c5 28 6 46 6 63zM637 653h-408l16 100h409z" />
    <glyph glyph-name="oslashacute" unicode="&#x1ff;" horiz-adv-x="642" 
d="M690 777l-192 -146h-163l157 146h198zM655 381c0 -25 -4 -58 -8 -79l-11 -63c-33 -188 -143 -254 -310 -254c-66 0 -118 12 -157 36l-34 -36h-103l83 88c-19 30 -28 69 -28 116c0 27 1 54 7 88l11 55c36 188 145 253 309 253c63 0 116 -11 155 -33l32 33h103l-80 -84
c20 -31 31 -71 31 -120zM476 316l5 34l-205 -216c13 -12 33 -16 63 -16c77 0 107 35 125 136zM263 254c-2 -11 -4 -21 -5 -31l202 214c-13 10 -32 15 -61 15c-75 0 -106 -35 -124 -136z" />
    <glyph glyph-name="racute" unicode="&#x155;" horiz-adv-x="435" 
d="M522 585l-25 -146c-63 0 -134 -11 -181 -26l-73 -413h-175l101 570h161l-8 -47c65 52 138 62 200 62zM623 777l-192 -146h-163l157 146h198z" />
    <glyph glyph-name="rcaron" unicode="&#x159;" horiz-adv-x="435" 
d="M522 585l-25 -146c-63 0 -134 -11 -181 -26l-73 -413h-175l101 570h161l-8 -47c65 52 138 62 200 62zM139 777h148l72 -82l101 82h157l-160 -146h-208z" />
    <glyph glyph-name="rcommaaccent" unicode="&#x157;" horiz-adv-x="435" 
d="M522 585l-25 -146c-63 0 -134 -11 -181 -26l-73 -413h-175l101 570h161l-8 -47c65 52 138 62 200 62zM298 -63l-121 -140h-152l93 140h180z" />
    <glyph glyph-name="sacute" unicode="&#x15b;" horiz-adv-x="543" 
d="M577 562l-18 -105c-71 7 -139 11 -182 11c-42 0 -92 -2 -92 -50c0 -24 18 -34 65 -53l48 -19c99 -39 139 -83 139 -163c0 -148 -123 -197 -285 -197c-80 0 -170 13 -200 22l18 105c74 -4 108 -11 192 -11c55 0 101 9 101 58c0 28 -14 37 -75 62l-42 17
c-87 35 -134 84 -134 167c0 151 129 179 261 179c86 0 160 -11 204 -23zM639 777l-192 -146h-163l157 146h198z" />
    <glyph glyph-name="scedilla" unicode="&#x15f;" horiz-adv-x="543" 
d="M577 562l-18 -105c-71 7 -139 11 -182 11c-42 0 -92 -2 -92 -50c0 -24 18 -34 65 -53l48 -19c99 -39 139 -83 139 -163c0 -148 -123 -197 -285 -197c-80 0 -170 13 -200 22l18 105c74 -4 108 -11 192 -11c55 0 101 9 101 58c0 28 -14 37 -75 62l-42 17
c-87 35 -134 84 -134 167c0 151 129 179 261 179c86 0 160 -11 204 -23zM380 -63l-157 -140h-159l131 140h185z" />
    <glyph glyph-name="scircumflex" unicode="&#x15d;" horiz-adv-x="543" 
d="M577 562l-18 -105c-71 7 -139 11 -182 11c-42 0 -92 -2 -92 -50c0 -24 18 -34 65 -53l48 -19c99 -39 139 -83 139 -163c0 -148 -123 -197 -285 -197c-80 0 -170 13 -200 22l18 105c74 -4 108 -11 192 -11c55 0 101 9 101 58c0 28 -14 37 -75 62l-42 17
c-87 35 -134 84 -134 167c0 151 129 179 261 179c86 0 160 -11 204 -23zM617 631h-148l-71 82l-102 -82h-156l160 146h209z" />
    <glyph glyph-name="scommaaccent" unicode="&#x219;" horiz-adv-x="543" 
d="M577 562l-18 -105c-71 7 -139 11 -182 11c-42 0 -92 -2 -92 -50c0 -24 18 -34 65 -53l48 -19c99 -39 139 -83 139 -163c0 -148 -123 -197 -285 -197c-80 0 -170 13 -200 22l18 105c74 -4 108 -11 192 -11c55 0 101 9 101 58c0 28 -14 37 -75 62l-42 17
c-87 35 -134 84 -134 167c0 151 129 179 261 179c86 0 160 -11 204 -23zM364 -63l-121 -140h-152l93 140h180z" />
    <glyph glyph-name="tbar" unicode="&#x167;" horiz-adv-x="452" 
d="M521 570l-18 -106h-127l-13 -68h128l-18 -107h-128l-24 -128c-3 -14 -4 -25 -4 -33c0 -21 10 -25 41 -25c26 0 60 2 79 3l-17 -105c-15 -4 -71 -15 -130 -15c-100 0 -147 41 -147 125c0 17 2 35 6 55l23 123l-99 6l17 101h99l13 68l-98 4l16 102h100l25 139h174l-26 -139
h128z" />
    <glyph glyph-name="tcaron" unicode="&#x165;" horiz-adv-x="485" 
d="M644 779l-95 -159h-100l61 159h134zM521 570l-21 -124h-127l-51 -277c-3 -21 -5 -32 -5 -40c0 -20 11 -25 42 -25c26 0 65 3 79 4l-17 -107c-16 -4 -71 -16 -130 -16c-101 0 -146 44 -146 131c0 17 2 36 5 57l49 273l-97 9l18 115h100l26 144h174l-26 -144h127z" />
    <glyph glyph-name="tcedilla" unicode="&#x163;" horiz-adv-x="446" 
d="M515 570l-21 -124h-127l-51 -277c-3 -21 -5 -32 -5 -40c0 -20 11 -25 42 -25c26 0 65 3 79 4l-17 -107c-16 -4 -71 -16 -130 -16c-101 0 -146 44 -146 131c0 17 2 36 5 57l49 273l-97 9l18 115h100l26 144h174l-26 -144h127zM308 -63l-121 -140h-152l93 140h180z" />
    <glyph glyph-name="tcommaaccent" unicode="&#x21b;" horiz-adv-x="446" 
d="M515 570l-21 -124h-127l-51 -277c-3 -21 -5 -32 -5 -40c0 -20 11 -25 42 -25c26 0 65 3 79 4l-17 -107c-16 -4 -71 -16 -130 -16c-101 0 -146 44 -146 131c0 17 2 36 5 57l49 273l-97 9l18 115h100l26 144h174l-26 -144h127zM308 -63l-121 -140h-152l93 140h180z" />
    <glyph glyph-name="ubreve" unicode="&#x16d;" 
d="M704 570l-100 -570h-164l7 46c-61 -35 -129 -61 -202 -61c-119 0 -149 67 -149 147c0 30 4 61 9 91l61 347h174l-63 -361c-4 -20 -5 -35 -5 -48c0 -33 15 -44 52 -44c36 0 82 12 131 31l75 422h174zM682 788c-32 -111 -112 -159 -226 -159c-89 0 -191 32 -189 159h101
c1 -53 32 -76 93 -76c56 0 101 17 120 76h101z" />
    <glyph glyph-name="uhungarumlaut" unicode="&#x171;" 
d="M704 570l-100 -570h-164l7 46c-61 -35 -129 -61 -202 -61c-119 0 -149 67 -149 147c0 30 4 61 9 91l61 347h174l-63 -361c-4 -20 -5 -35 -5 -48c0 -33 15 -44 52 -44c36 0 82 12 131 31l75 422h174zM851 779l-192 -146h-150l157 146h185zM392 779h184l-192 -146h-150z
" />
    <glyph glyph-name="umacron" unicode="&#x16b;" 
d="M704 570l-100 -570h-164l7 46c-61 -35 -129 -61 -202 -61c-119 0 -149 67 -149 147c0 30 4 61 9 91l61 347h174l-63 -361c-4 -20 -5 -35 -5 -48c0 -33 15 -44 52 -44c36 0 82 12 131 31l75 422h174zM657 653h-408l16 100h409z" />
    <glyph glyph-name="uogonek" unicode="&#x173;" 
d="M604 0c-72 -22 -155 -52 -155 -97c0 -17 14 -26 48 -26c29 0 59 3 84 5l-13 -82c-24 -7 -78 -17 -138 -17c-92 0 -130 34 -130 90c0 72 71 106 140 127l7 46c-61 -35 -129 -61 -202 -61c-119 0 -149 67 -149 147c0 30 4 61 9 91l61 347h174l-63 -361
c-3 -20 -5 -35 -5 -48c0 -33 15 -44 52 -44c36 0 82 12 131 31l75 422h174z" />
    <glyph glyph-name="uring" unicode="&#x16f;" 
d="M704 570l-100 -570h-164l7 46c-61 -35 -129 -61 -202 -61c-119 0 -149 67 -149 147c0 30 4 61 9 91l61 347h174l-63 -361c-4 -20 -5 -35 -5 -48c0 -33 15 -44 52 -44c36 0 82 12 131 31l75 422h174zM593 739c0 -80 -60 -122 -141 -122c-82 0 -144 42 -144 122
c0 79 62 122 144 122c81 0 141 -43 141 -122zM507 739c0 34 -24 48 -55 48c-33 0 -56 -14 -56 -48c0 -33 23 -48 56 -48c31 0 55 15 55 48z" />
    <glyph glyph-name="utilde" unicode="&#x169;" 
d="M704 570l-100 -570h-164l7 46c-61 -35 -129 -61 -202 -61c-119 0 -149 67 -149 147c0 30 4 61 9 91l61 347h174l-63 -361c-4 -20 -5 -35 -5 -48c0 -33 15 -44 52 -44c36 0 82 12 131 31l75 422h174zM709 790c-11 -128 -75 -163 -138 -163c-36 0 -70 9 -108 31l-43 25
c-20 13 -33 21 -49 21c-26 0 -37 -18 -45 -72h-98c13 131 77 163 145 163c36 0 62 -8 99 -29l43 -26c20 -12 34 -21 53 -21c25 0 40 20 43 71h98z" />
    <glyph glyph-name="wacute" unicode="&#x1e83;" horiz-adv-x="943" 
d="M1013 570l-218 -570h-215l-35 243c-6 43 -9 79 -8 114h-3c-12 -35 -26 -71 -47 -114l-122 -243h-219l-19 570h175v-281c0 -51 -2 -97 -4 -136h5c19 45 35 89 58 135l100 198h188l25 -197c6 -47 9 -96 12 -137h3c13 40 28 85 46 137l100 281h178zM831 777l-192 -146h-163
l157 146h198z" />
    <glyph glyph-name="wcircumflex" unicode="&#x175;" horiz-adv-x="943" 
d="M1013 570l-218 -570h-215l-35 243c-6 43 -9 79 -8 114h-3c-12 -35 -26 -71 -47 -114l-122 -243h-219l-19 570h175v-281c0 -51 -2 -97 -4 -136h5c19 45 35 89 58 135l100 198h188l25 -197c6 -47 9 -96 12 -137h3c13 40 28 85 46 137l100 281h178zM808 631h-148l-71 82
l-102 -82h-156l160 146h209z" />
    <glyph glyph-name="wdieresis" unicode="&#x1e85;" horiz-adv-x="943" 
d="M1013 570l-218 -570h-215l-35 243c-6 43 -9 79 -8 114h-3c-12 -35 -26 -71 -47 -114l-122 -243h-219l-19 570h175v-281c0 -51 -2 -97 -4 -136h5c19 45 35 89 58 135l100 198h188l25 -197c6 -47 9 -96 12 -137h3c13 40 28 85 46 137l100 281h178zM794 773l-22 -127h-140
l22 127h140zM540 773h-140l-22 -127h140z" />
    <glyph glyph-name="wgrave" unicode="&#x1e81;" horiz-adv-x="943" 
d="M1013 570l-218 -570h-215l-35 243c-6 43 -9 79 -8 114h-3c-12 -35 -26 -71 -47 -114l-122 -243h-219l-19 570h175v-281c0 -51 -2 -97 -4 -136h5c19 45 35 89 58 135l100 198h188l25 -197c6 -47 9 -96 12 -137h3c13 40 28 85 46 137l100 281h178zM671 631h-161l-141 146
h196z" />
    <glyph glyph-name="ycircumflex" unicode="&#x177;" horiz-adv-x="637" 
d="M716 570l-282 -573c-74 -150 -119 -214 -275 -214c-61 0 -120 6 -158 14l19 111c49 -2 72 -2 100 -2c53 0 68 18 96 70l15 30l-106 564h181l32 -292c5 -50 6 -100 7 -152h2c20 52 36 98 60 152l129 292h180zM670 631h-148l-71 82l-102 -82h-156l160 146h209z" />
    <glyph glyph-name="ygrave" unicode="&#x1ef3;" horiz-adv-x="637" 
d="M716 570l-282 -573c-74 -150 -119 -214 -275 -214c-61 0 -120 6 -158 14l19 111c49 -2 72 -2 100 -2c53 0 68 18 96 70l15 30l-106 564h181l32 -292c5 -50 6 -100 7 -152h2c20 52 36 98 60 152l129 292h180zM541 631h-161l-141 146h196z" />
    <glyph glyph-name="zacute" unicode="&#x17a;" horiz-adv-x="548" 
d="M604 570l-22 -130l-324 -316h268l-21 -124h-465l21 129l326 316h-259l20 125h456zM655 777l-192 -146h-163l157 146h198z" />
    <glyph glyph-name="zdotaccent" unicode="&#x17c;" horiz-adv-x="548" 
d="M604 570l-22 -130l-324 -316h268l-21 -124h-465l21 129l326 316h-259l20 125h456zM487 651h-180l22 127h180z" />
    <glyph glyph-name="kgreenlandic" unicode="&#x138;" horiz-adv-x="624" 
d="M614 0h-190l-134 270l-47 -270h-175l100 570h174l-43 -248l218 248h193l-246 -274z" />
    <glyph glyph-name="napostrophe" unicode="&#x149;" horiz-adv-x="692" 
d="M772 440c0 -30 -5 -63 -11 -95l-59 -345h-175l63 359c3 18 5 32 5 44c0 35 -16 50 -57 50c-35 0 -80 -11 -126 -34l-74 -419h-175l100 570h164l-7 -44c63 39 132 59 190 59c128 0 162 -63 162 -145zM327 779l-139 -256h-122l105 256h156z" />
    <glyph glyph-name="Delta" unicode="&#x2206;" horiz-adv-x="781" 
d="M745 0h-709l339 743h290zM549 132l-37 386c-4 39 -5 85 -4 119h-2c-15 -36 -30 -80 -48 -119l-175 -386h266z" />
    <glyph glyph-name="uni03A9" unicode="&#x3a9;" horiz-adv-x="747" 
d="M787 526c0 -24 -2 -49 -17 -133c-22 -125 -83 -202 -205 -244l-6 -35h149l-19 -114h-281l36 213c82 19 126 82 144 182c14 78 16 97 16 113c0 81 -51 106 -122 106c-86 0 -153 -37 -176 -161c-15 -84 -17 -107 -17 -126c0 -60 27 -99 85 -114l-36 -213h-280l19 114h148
l6 35c-85 33 -119 108 -119 200c0 24 2 49 17 132c36 201 171 278 378 278c182 0 280 -81 280 -233z" />
    <glyph glyph-name="uni03BC" unicode="&#x3bc;" horiz-adv-x="711" 
d="M719 570l-99 -570h-164l7 46c-57 -28 -107 -51 -170 -51c-14 0 -27 1 -38 3l-35 -200h-175l136 772h174l-63 -361c-3 -18 -5 -34 -5 -46c0 -34 15 -46 56 -46c33 0 78 12 127 31l75 422h174z" />
    <glyph glyph-name="pi" unicode="&#x3c0;" horiz-adv-x="732" 
d="M764 -7c-23 -5 -61 -8 -89 -8c-122 0 -168 48 -168 170v267h-138v-422h-176v422h-82v148h653v-148h-82v-269c0 -38 6 -49 38 -49c16 0 28 0 44 1v-112z" />
    <glyph glyph-name="uni037E" unicode="&#x37e;" horiz-adv-x="280" 
d="M268 258h-164l29 165h164z" />
    <glyph glyph-name="exclamdbl" unicode="&#x203c;" horiz-adv-x="624" 
d="M544 0h-179l27 165h180zM688 779l-114 -556h-161l82 556h193zM258 0h-179l28 165h179zM403 779l-115 -556h-161l82 556h194z" />
    <glyph glyph-name="franc" unicode="&#x20a3;" horiz-adv-x="638" 
d="M272 0h-187l23 131h-47l17 99h47l91 513h506l-23 -138h-320l-29 -161h306l-22 -132h-307l-14 -82h158l-17 -99h-159z" />
    <glyph glyph-name="lira" unicode="&#x20a4;" 
d="M742 739l-22 -126c-58 4 -116 9 -186 9c-99 0 -113 -28 -133 -124l-6 -29h209l-14 -78h-208l-12 -67h208l-13 -78h-209l-5 -28c-6 -33 -18 -59 -41 -85h324l-22 -133h-527l18 109c39 33 60 69 67 109l5 28h-75l13 78h76l12 67h-76l13 78h76l5 29c34 195 115 262 309 262
c82 0 160 -9 214 -21z" />
    <glyph glyph-name="peseta" unicode="&#x20a7;" horiz-adv-x="773" 
d="M840 562l-19 -113h-57c-62 -194 -247 -195 -443 -195l-45 -254h-180l79 449h-58l19 113h58l31 181c82 5 168 9 247 9c170 0 308 -30 308 -190h60zM600 539c0 61 -48 73 -139 73c-26 0 -54 -1 -77 -1l-39 -216c168 0 255 2 255 144z" />
    <glyph glyph-name="Euro" unicode="&#x20ac;" horiz-adv-x="686" 
d="M761 738l-22 -132c-41 4 -113 8 -166 8c-89 0 -145 -14 -183 -130h297l-30 -71h-284c-6 -24 -13 -58 -15 -84h258l-32 -71h-233c0 -117 44 -130 134 -130c44 0 114 4 168 8l-23 -133c-39 -10 -131 -20 -191 -20c-156 0 -277 55 -277 248c0 9 0 18 1 27h-68l12 71h61
c3 27 8 60 15 84h-60l12 71h64c62 229 190 275 362 275c75 0 162 -10 200 -21z" />
    <glyph glyph-name="litre" unicode="&#x2113;" horiz-adv-x="539" 
d="M560 43c-49 -35 -109 -61 -185 -61c-118 0 -182 51 -182 182v62c-16 -13 -32 -27 -52 -41l-41 54c35 29 64 52 93 77v286c0 131 57 189 190 189c125 0 169 -52 169 -136c0 -109 -71 -207 -184 -306v-178c0 -66 19 -83 63 -83c25 0 55 12 82 31zM475 654
c0 34 -10 61 -51 61c-52 0 -56 -41 -56 -113v-161c71 72 107 139 107 213z" />
    <glyph glyph-name="Omega" unicode="&#x2126;" horiz-adv-x="747" 
d="M787 526c0 -24 -2 -49 -18 -133c-21 -125 -82 -202 -204 -244l-6 -35h149l-19 -114h-281l36 213c82 19 126 82 144 182c14 78 16 97 16 113c0 81 -51 106 -122 106c-86 0 -153 -37 -176 -161c-15 -84 -17 -107 -17 -126c0 -60 27 -99 85 -114l-36 -213h-280l19 114h148
l6 35c-85 33 -119 108 -119 200c0 24 2 49 17 132c36 201 171 278 378 278c182 0 280 -81 280 -233z" />
    <glyph glyph-name="estimated" unicode="&#x212e;" horiz-adv-x="657" 
d="M699 282h-464v-193c46 -40 99 -63 164 -63c121 0 179 59 227 127l33 -19c-56 -81 -125 -141 -260 -141c-176 0 -293 133 -293 290c0 159 113 290 297 290s296 -134 296 -291zM569 315v163c-39 33 -103 62 -166 62c-65 0 -125 -21 -168 -62v-163h334z" />
    <glyph glyph-name="partialdiff" unicode="&#x2202;" horiz-adv-x="671" 
d="M693 448c0 -67 -8 -142 -21 -204c-39 -182 -135 -258 -303 -258c-160 0 -243 78 -243 213c0 31 2 62 7 91c26 167 135 232 293 232c47 0 82 -15 103 -28c0 14 -2 34 -5 49c-13 76 -56 141 -189 141c-38 0 -83 -3 -127 -12l7 104c48 11 99 17 147 17
c224 0 331 -137 331 -345zM509 313c0 52 -26 77 -86 77c-72 0 -109 -41 -120 -126c-3 -24 -5 -48 -5 -68c0 -56 26 -78 86 -78c72 0 106 41 120 136c4 24 5 45 5 59z" />
    <glyph glyph-name="product" unicode="&#x220f;" horiz-adv-x="789" 
d="M825 594h-81v-665h-177v664h-198v-664h-177v665h-81v149h714v-149z" />
    <glyph glyph-name="summation" unicode="&#x2211;" horiz-adv-x="630" 
d="M643 -71h-507v139l208 266l-208 271v138h507v-138h-307l178 -236v-72l-178 -229h307v-139z" />
    <glyph glyph-name="uni2219" unicode="&#x2219;" horiz-adv-x="302" 
d="M283 286h-165l29 165h165z" />
    <glyph glyph-name="radical" unicode="&#x221a;" horiz-adv-x="833" 
d="M861 872l-295 -941h-186l-137 438h-123v134h225l127 -423l243 792h146z" />
    <glyph glyph-name="infinity" unicode="&#x221e;" horiz-adv-x="733" 
d="M714 365c0 -75 -8 -242 -161 -242h-6c-47 0 -82 17 -112 50c-23 -32 -59 -52 -104 -52h-7c-153 0 -162 163 -162 244v24c0 73 8 242 163 242h7c46 0 82 -19 109 -51c25 36 59 52 106 52h7c152 0 160 -162 160 -243v-24zM606 365v24c0 76 -2 139 -54 139h-5
c-38 -1 -45 -48 -56 -153c-4 -41 -8 -66 -15 -109c20 -28 43 -41 69 -41h5c53 0 56 68 56 140zM402 484c-18 28 -43 45 -68 45h-6c-54 0 -57 -74 -57 -140v-24c0 -71 2 -139 56 -139h5c35 0 43 42 56 151c3 36 8 66 14 107z" />
    <glyph glyph-name="integral" unicode="&#x222b;" horiz-adv-x="544" 
d="M567 667c-25 1 -57 3 -82 3c-48 0 -52 -13 -52 -62v-640c0 -110 -41 -172 -169 -172c-58 0 -110 9 -139 16v99c25 -2 57 -3 82 -3c47 0 52 12 52 62v640c0 110 40 172 168 172c58 0 111 -9 140 -16v-99z" />
    <glyph glyph-name="approxequal" unicode="&#x2248;" horiz-adv-x="677" 
d="M664 583c0 -111 -54 -154 -133 -154c-39 0 -74 6 -115 30l-56 32c-25 14 -41 21 -57 22c-26 0 -32 -17 -32 -50v-28h-111v28c0 111 57 154 136 154c34 0 64 -11 105 -33l60 -33c22 -12 36 -19 57 -19c29 0 35 15 35 51v28h111v-28zM664 321c0 -111 -54 -154 -133 -154
c-38 0 -73 8 -115 31l-56 31c-25 14 -39 22 -57 22c-26 0 -32 -17 -32 -49v-29h-111v29c0 110 57 153 136 153c34 0 64 -11 105 -33l60 -33c21 -12 36 -18 56 -18c30 0 36 13 36 50v28h111v-28z" />
    <glyph glyph-name="notequal" unicode="&#x2260;" horiz-adv-x="677" 
d="M661 182h-233l-67 -187h-161l67 187h-102v132h143l47 140h-190v133h231l58 161h161l-58 -161h104v-133h-146l-46 -140h192v-132z" />
    <glyph glyph-name="lessequal" unicode="&#x2264;" horiz-adv-x="677" 
d="M673 0h-519v107h519v-107zM631 169h-190l-280 242l280 240h190l-277 -240z" />
    <glyph glyph-name="greaterequal" unicode="&#x2265;" horiz-adv-x="677" 
d="M669 0h-519v107h519v-107zM662 411l-279 -242h-191l277 242l-277 240h191z" />
    <glyph glyph-name="lozenge" unicode="&#x25ca;" horiz-adv-x="696" 
d="M695 364l-275 -322l-271 321l273 327zM556 364l-134 156l-134 -157l132 -154z" />
    <glyph glyph-name="uni00A0" unicode="&#xa0;" horiz-adv-x="202" 
 />
    <glyph glyph-name="uni00AD" unicode="&#xad;" horiz-adv-x="376" 
d="M359 234h-261l21 121h261z" />
    <glyph glyph-name="uni02C9" unicode="&#x2c9;" horiz-adv-x="503" 
d="M570 653h-408l16 100h409z" />
    <glyph glyph-name="Dotaccent" horiz-adv-x="426" 
d="M446 811h-180l22 127h180z" />
    <glyph glyph-name="Breve" horiz-adv-x="513" 
d="M631 949c-31 -111 -113 -160 -227 -160c-84 0 -191 33 -188 160h101c1 -54 32 -77 93 -77c56 0 101 17 121 77h100z" />
    <glyph glyph-name="Ogonek" horiz-adv-x="458" 
d="M344 -200c-25 -7 -78 -17 -138 -17c-92 0 -133 34 -133 90c0 87 103 120 181 137l126 -10c-72 -22 -155 -52 -155 -97c0 -17 13 -26 48 -26c29 0 58 3 84 5z" />
    <glyph glyph-name="Cedilla" horiz-adv-x="454" 
d="M336 -63l-157 -140h-159l131 140h185z" />
    <glyph glyph-name="Ring" horiz-adv-x="445" 
d="M486 894c0 -80 -60 -122 -141 -122c-82 0 -144 42 -144 122c0 79 62 122 144 122c81 0 141 -43 141 -122zM400 894c0 34 -24 48 -55 48c-33 0 -56 -14 -56 -48c0 -33 23 -48 56 -48c31 0 55 15 55 48z" />
    <glyph glyph-name="Tilde" horiz-adv-x="516" 
d="M654 950c-18 -125 -72 -163 -143 -163c-31 0 -66 9 -103 31l-43 26c-19 13 -33 20 -50 20c-24 0 -36 -16 -44 -72h-99c15 126 74 164 148 164c33 0 60 -8 97 -29l43 -26c19 -13 33 -21 53 -21c24 0 35 15 43 70h98z" />
    <glyph glyph-name="Circumflex" horiz-adv-x="545" 
d="M650 792h-148l-71 82l-102 -82h-156l160 146h209z" />
    <glyph glyph-name="Acute" horiz-adv-x="485" 
d="M598 938l-192 -146h-163l157 146h198z" />
    <glyph glyph-name="Caron" horiz-adv-x="545" 
d="M198 938h148l72 -83l101 83h157l-160 -146h-208z" />
    <glyph glyph-name="Dieresis" horiz-adv-x="524" 
d="M623 933l-22 -127h-140l22 127h140zM369 933h-140l-22 -127h140z" />
    <glyph glyph-name="Grave" horiz-adv-x="485" 
d="M512 792h-161l-141 146h196z" />
    <glyph glyph-name="Hungarumlaut" horiz-adv-x="621" 
d="M832 935l-192 -146h-150l157 146h185zM373 935h184l-192 -146h-150z" />
    <glyph glyph-name="Macron" horiz-adv-x="503" 
d="M599 813h-409l17 100h409z" />
    <glyph glyph-name="commaaccent.cap" horiz-adv-x="491" 
d="M344 -63l-121 -140h-152l93 140h180z" />
    <glyph glyph-name="h.superior" horiz-adv-x="478" 
d="M199 779h122l-25 -139c30 13 71 23 109 23c82 0 107 -39 107 -95c0 -17 -3 -36 -6 -56l-36 -205h-122l38 216c2 9 3 17 3 23c0 23 -12 30 -37 30c-26 0 -54 -9 -70 -15l-45 -254h-121z" />
    <glyph glyph-name="zero.slash" horiz-adv-x="706" 
d="M737 506c0 -33 -3 -68 -26 -196c-39 -221 -149 -327 -354 -327c-74 0 -131 16 -172 46l-26 -29h-160l116 127c-11 31 -16 67 -16 107c0 37 4 71 25 198c37 221 154 327 355 327c74 0 130 -16 171 -45l27 29h160l-116 -127c11 -32 16 -69 16 -110zM527 338
c5 32 10 58 14 80l-243 -266c15 -21 41 -29 75 -29c76 0 123 41 154 215zM308 404c-6 -33 -11 -59 -14 -81l242 266c-16 21 -41 30 -73 30c-72 0 -125 -41 -155 -215z" />
    <glyph glyph-name="percent.oldstyle" unicode="&#xfe6a;" horiz-adv-x="970" 
d="M862 604l-514 -604h-129l513 604h130zM449 413c-20 -114 -81 -168 -192 -168c-95 0 -136 56 -136 140c0 17 2 36 7 63c20 115 82 166 194 166c95 0 134 -52 134 -135c0 -18 -1 -38 -7 -66zM335 425c6 32 7 50 7 62c0 30 -13 41 -35 41c-31 0 -50 -18 -64 -94
c-5 -32 -7 -49 -7 -61c0 -31 13 -41 36 -41c30 0 49 21 63 93zM951 157c-20 -114 -81 -168 -193 -168c-95 0 -135 56 -135 140c0 17 1 36 6 63c20 116 82 167 195 167c95 0 134 -53 134 -135c0 -18 -2 -38 -7 -67zM836 170c6 32 8 49 8 61c0 31 -14 41 -36 41
c-30 0 -50 -17 -63 -94c-6 -32 -8 -48 -8 -60c0 -32 14 -42 37 -42c30 0 50 21 62 94z" />
    <glyph glyph-name="perthousand.oldstyle" horiz-adv-x="1346" 
d="M862 604l-514 -604h-129l513 604h130zM449 413c-20 -114 -81 -168 -192 -168c-95 0 -136 56 -136 140c0 17 2 36 7 63c20 115 82 166 194 166c95 0 134 -52 134 -135c0 -18 -1 -38 -7 -66zM335 425c6 32 7 50 7 62c0 30 -13 41 -35 41c-31 0 -50 -18 -64 -94
c-5 -32 -7 -49 -7 -61c0 -31 13 -41 36 -41c30 0 50 21 63 93zM951 157c-20 -114 -81 -168 -193 -168c-95 0 -135 56 -135 140c0 17 1 36 6 63c20 116 82 167 195 167c95 0 134 -53 134 -135c0 -18 -2 -38 -7 -67zM836 170c6 32 8 49 8 61c0 31 -14 41 -36 41
c-30 0 -50 -17 -63 -94c-6 -32 -8 -48 -8 -60c0 -32 14 -42 37 -42c30 0 50 21 62 94zM1328 157c-20 -114 -81 -168 -193 -168c-95 0 -135 56 -135 140c0 17 1 36 6 63c20 116 82 167 195 167c95 0 134 -53 134 -135c0 -18 -2 -38 -7 -67zM1213 170c6 32 8 49 8 61
c0 31 -14 41 -36 41c-30 0 -50 -17 -63 -94c-6 -32 -8 -48 -8 -60c0 -32 14 -42 37 -42c30 0 50 21 62 94z" />
    <glyph glyph-name="zero.taboldstyle" horiz-adv-x="718" 
d="M723 385c0 -25 -2 -52 -14 -117c-34 -195 -151 -285 -354 -285c-173 0 -257 85 -257 231c0 26 2 52 14 117c34 195 150 284 353 284c173 0 258 -84 258 -230zM537 387c0 66 -38 88 -95 88c-71 0 -122 -38 -144 -157c-12 -65 -14 -87 -14 -105c0 -66 38 -89 94 -89
c72 0 123 39 145 158c12 64 14 87 14 105z" />
    <glyph glyph-name="one.taboldstyle" horiz-adv-x="718" 
d="M617 0h-515l21 131l168 7l55 302l-176 -49l25 143l230 71h135l-83 -467l161 -7z" />
    <glyph glyph-name="two.taboldstyle" horiz-adv-x="718" 
d="M174 471l20 113c61 18 171 31 256 31c193 0 264 -51 264 -152c0 -135 -111 -200 -267 -279l-92 -46h293l-23 -138h-542l23 138l195 102c134 69 220 111 220 189c0 40 -35 54 -127 54c-60 0 -159 -7 -220 -12z" />
    <glyph glyph-name="three.taboldstyle" horiz-adv-x="718" 
d="M646 116c0 -219 -149 -277 -342 -277c-97 0 -201 19 -241 34l20 113c49 -5 142 -13 225 -13c85 0 132 15 147 96c5 28 7 38 7 48c0 37 -24 56 -98 56h-202l21 123h203c110 0 130 57 130 128c0 45 -31 58 -117 58c-84 0 -165 -6 -227 -12l19 114c37 12 153 31 250 31
c172 0 264 -47 264 -169c0 -89 -34 -171 -122 -214c47 -25 63 -72 63 -116z" />
    <glyph glyph-name="four.taboldstyle" horiz-adv-x="718" 
d="M676 27h-99l-30 -168h-187l30 168h-341l22 129l448 446h159l-79 -446h99zM421 156l46 248l-248 -248h202z" />
    <glyph glyph-name="five.taboldstyle" horiz-adv-x="718" 
d="M714 602l-23 -135h-330l-40 -147h70c195 0 263 -58 263 -166c0 -23 -3 -45 -10 -89c-29 -173 -155 -223 -340 -223c-111 0 -205 19 -241 29l19 117c46 -5 125 -14 206 -14c111 0 153 24 168 103c6 31 6 42 6 51c0 48 -31 65 -130 65h-204l106 409h480z" />
    <glyph glyph-name="six.taboldstyle" horiz-adv-x="718" 
d="M692 214c-35 -189 -176 -231 -333 -231c-165 0 -253 67 -253 218c0 33 4 68 11 106l29 165c33 189 108 287 357 287c103 0 205 -18 243 -28l-20 -117c-70 6 -139 12 -224 12c-131 0 -151 -47 -169 -142l-5 -26c37 9 98 15 135 15c141 0 241 -40 241 -172
c0 -17 -4 -45 -12 -87zM509 229c9 46 11 60 11 71c0 49 -35 59 -95 59c-28 0 -75 -3 -115 -12l-16 -86c-6 -29 -8 -52 -8 -71c0 -63 33 -80 95 -80c70 0 113 33 128 119z" />
    <glyph glyph-name="seven.taboldstyle" horiz-adv-x="718" 
d="M722 454l-433 -595h-198l449 608h-372l23 135h556z" />
    <glyph glyph-name="eight.taboldstyle" horiz-adv-x="718" 
d="M763 588c0 -85 -35 -159 -113 -205c38 -28 58 -81 58 -132c0 -235 -204 -268 -317 -268c-136 0 -306 7 -306 180c0 117 46 183 117 220c-34 26 -54 69 -54 125c0 206 140 251 342 251c146 0 273 -26 273 -171zM525 267c0 41 -19 59 -66 59h-85c-61 0 -86 -30 -99 -106
c-3 -19 -5 -33 -5 -44c0 -59 41 -70 104 -70h6c73 0 120 17 139 112c4 22 6 37 6 49zM576 574c0 50 -40 62 -103 62h-5c-82 0 -139 -28 -139 -137c0 -36 16 -57 64 -57h85c72 0 98 53 98 132z" />
    <glyph glyph-name="nine.taboldstyle" horiz-adv-x="718" 
d="M129 384c35 189 176 231 333 231c165 0 253 -67 253 -218c0 -33 -4 -68 -11 -106l-29 -165c-33 -189 -108 -287 -357 -287c-103 0 -205 18 -243 28l20 117c70 -6 139 -12 224 -12c131 0 151 47 169 142l5 26c-37 -9 -98 -15 -135 -15c-141 0 -241 40 -241 172
c0 17 4 45 12 87zM312 369c-9 -46 -11 -60 -11 -71c0 -49 35 -59 95 -59c28 0 75 3 115 12l16 86c6 29 8 52 8 71c0 63 -33 80 -95 80c-70 0 -113 -33 -128 -119z" />
    <glyph glyph-name="colonmonetary.taboldstyle" horiz-adv-x="620" 
d="M656 598l-20 -123c-47 2 -102 8 -161 8c-84 0 -132 -24 -153 -146l-13 -72c-4 -23 -6 -42 -6 -59c0 -76 42 -88 106 -88c42 0 102 2 163 7l-20 -121c-15 -4 -47 -10 -81 -14l-17 -97h-87l16 91c-7 -1 -15 -1 -23 -1c-17 0 -35 1 -49 2l-16 -92h-87l20 115
c-73 31 -106 98 -106 187c0 29 3 58 8 88l13 72c24 135 82 211 190 245l19 110h87l-17 -94c16 1 33 2 50 2h23l16 92h86l-17 -99c33 -4 60 -9 76 -13z" />
    <glyph glyph-name="Euro.taboldstyle" horiz-adv-x="648" 
d="M682 600l-21 -121c-47 5 -97 8 -141 8c-86 0 -122 -15 -146 -94h240l-27 -66h-228c-5 -21 -8 -39 -12 -59h215l-27 -65h-195v-15c0 -57 35 -74 107 -74c48 0 102 3 150 5l-20 -118c-37 -9 -125 -18 -175 -18c-154 0 -244 55 -244 196c0 8 0 15 1 24h-53l12 65h49
c4 20 7 40 11 59h-49l11 66h51c47 179 146 224 309 224c68 0 140 -7 182 -17z" />
    <glyph glyph-name="florin.taboldstyle" horiz-adv-x="624" 
d="M609 603l-19 -94c-22 1 -40 2 -62 2c-31 0 -45 -5 -56 -46l-24 -92h116l-25 -111h-115l-51 -229c-26 -116 -93 -149 -184 -149c-53 0 -90 6 -120 13l21 95c25 -1 38 -2 64 -2c34 0 47 13 55 49l49 223h-102l24 111h103l25 97c27 117 96 146 184 146c52 0 86 -6 117 -13z
" />
    <glyph glyph-name="numbersign.taboldstyle" horiz-adv-x="699" 
d="M647 138h-106l-40 -138h-135l40 138h-106l-40 -138h-135l41 138h-67l17 99h77l35 119h-91l17 98h103l44 149h135l-44 -149h105l44 149h135l-44 -149h70l-17 -98h-81l-35 -119h95zM469 356h-106l-35 -119h106z" />
    <glyph glyph-name="sterling.taboldstyle" horiz-adv-x="628" 
d="M654 599l-20 -119c-48 6 -96 9 -143 9c-81 0 -100 -16 -112 -84l-7 -41h162l-20 -112h-161l-12 -65c-5 -28 -14 -45 -29 -62h258l-20 -125h-450l17 101c32 26 48 51 54 86l12 65h-62l20 112h61l7 40c27 160 106 213 264 213c65 0 126 -6 181 -18z" />
    <glyph glyph-name="yen.taboldstyle" horiz-adv-x="711" 
d="M440 0h-170l25 146h-208l15 90h196l-28 77h-155l16 90h109l-71 200h181l43 -151c7 -26 14 -57 21 -84h1c15 26 33 58 49 84l98 151h191l-142 -200h111l-15 -90h-159l-56 -77h201l-15 -90h-212z" />
    <glyph glyph-name="dollar.taboldstyle" horiz-adv-x="688" 
d="M116 5l19 115c54 -3 114 -8 199 -8c58 0 101 13 101 62c0 23 -16 35 -70 58l-66 27c-81 34 -128 78 -128 161c0 126 89 177 209 192l16 90h139l-16 -87c62 -4 117 -14 147 -21l-18 -110c-63 3 -117 8 -198 8c-53 0 -99 -6 -99 -52c0 -21 13 -35 62 -55l69 -28
c95 -38 134 -82 134 -160c0 -127 -89 -194 -206 -206l-17 -97h-139l17 93c-63 3 -122 10 -155 18z" />
    <glyph glyph-name="cent.taboldstyle" horiz-adv-x="621" 
d="M644 598l-20 -122c-60 3 -99 5 -149 5c-90 0 -133 -31 -154 -146l-13 -68c-4 -23 -6 -42 -6 -59c0 -67 35 -87 108 -87c53 0 106 2 151 5l-21 -122c-27 -8 -81 -14 -127 -17l-18 -100h-140l18 109c-105 22 -152 92 -152 201c0 26 2 55 8 86l13 69c27 154 101 231 240 258
l17 99h141l-17 -95c43 -2 96 -9 121 -16z" />
    <glyph glyph-name="zero.denominator" horiz-adv-x="478" 
d="M481 306c0 -28 -3 -52 -17 -124c-24 -126 -86 -193 -227 -193c-120 0 -165 65 -165 161c0 22 2 46 7 73l8 43c23 122 89 191 228 191c120 0 166 -61 166 -151zM354 307c0 41 -18 54 -53 54c-49 0 -70 -27 -87 -115l-8 -41c-6 -31 -8 -53 -8 -68c0 -40 18 -52 52 -52
c45 0 74 23 89 114l7 42c4 27 8 45 8 66z" />
    <glyph glyph-name="one.denominator" horiz-adv-x="407" 
d="M352 0h-292l15 85l81 4l45 245l-86 -25l17 96l125 43h93l-65 -359l81 -4z" />
    <glyph glyph-name="two.denominator" horiz-adv-x="458" 
d="M120 363l13 75c39 10 114 19 165 19c116 0 167 -38 167 -107c0 -87 -71 -120 -157 -156c-94 -39 -107 -50 -116 -98l-1 -5h220l-15 -91h-346l9 55c18 113 66 154 177 205c57 26 98 40 98 77c0 25 -18 33 -73 33c-40 0 -108 -4 -141 -7z" />
    <glyph glyph-name="three.denominator" horiz-adv-x="455" 
d="M460 350c0 -47 -26 -97 -74 -122c29 -15 39 -47 39 -77c0 -19 -3 -36 -8 -50c-21 -86 -91 -112 -208 -112c-62 0 -130 11 -157 21l13 74c31 -3 94 -7 145 -7c58 0 89 14 89 77c0 22 -13 32 -60 32h-126l14 81h126c51 0 78 18 78 70c0 25 -18 32 -69 32s-108 -4 -146 -6
l12 74c27 9 101 20 164 20c111 0 168 -33 168 -107z" />
    <glyph glyph-name="four.denominator" horiz-adv-x="471" 
d="M373 0h-128l18 97h-213l13 83l284 266h105l-47 -265h61l-15 -84h-60zM284 181l24 136l-143 -136h119z" />
    <glyph glyph-name="five.denominator" horiz-adv-x="452" 
d="M464 446l-15 -88h-208l-22 -80h42c125 0 168 -36 168 -111c0 -26 -5 -49 -15 -72c-28 -82 -105 -106 -206 -106c-73 0 -132 12 -157 18l13 77c40 -4 85 -8 131 -8c64 0 102 18 102 80c0 30 -20 38 -78 38h-132l67 252h310z" />
    <glyph glyph-name="six.denominator" horiz-adv-x="466" 
d="M475 439l-13 -76c-63 6 -92 7 -144 7c-76 0 -89 -26 -99 -81l-3 -12c23 5 59 8 80 8c97 0 153 -25 153 -106c0 -155 -101 -190 -217 -190c-112 0 -163 48 -163 140c0 20 3 43 7 66l15 87c20 116 67 175 225 175c67 0 134 -11 159 -18zM319 139c4 24 5 33 5 39
c0 28 -20 33 -54 33c-16 0 -42 -1 -66 -7l-8 -46c-3 -17 -5 -30 -5 -40c0 -36 19 -46 55 -46c40 0 64 19 73 67z" />
    <glyph glyph-name="seven.denominator" horiz-adv-x="454" 
d="M118 358l15 88h350l-16 -96l-267 -350h-136l277 358h-223z" />
    <glyph glyph-name="eight.denominator" horiz-adv-x="476" 
d="M454 116c-21 -117 -116 -127 -222 -127c-95 0 -173 22 -173 114c0 69 29 110 71 129c-21 16 -34 44 -34 77c0 132 104 147 221 147c101 0 173 -25 173 -105c0 -56 -26 -101 -68 -126c23 -17 36 -43 36 -72c0 -13 -1 -22 -4 -37zM330 132c2 9 3 20 3 28
c0 23 -10 32 -39 32h-50c-35 0 -59 -24 -59 -83c0 -34 24 -40 64 -40c43 0 71 10 81 63zM361 320c2 12 3 16 3 21c0 28 -24 35 -63 35c-49 0 -81 -15 -81 -75c0 -21 9 -33 38 -33h50c36 0 47 20 53 52z" />
    <glyph glyph-name="nine.denominator" horiz-adv-x="466" 
d="M56 7l13 77c41 -4 89 -8 144 -8c76 0 89 27 102 93c-23 -5 -59 -8 -81 -8c-96 0 -153 26 -153 107c0 156 103 189 218 189c112 0 163 -48 163 -140c0 -20 -3 -42 -7 -65l-15 -88c-20 -116 -67 -175 -225 -175c-67 0 -134 11 -159 18zM212 307c-4 -24 -5 -32 -5 -38
c0 -28 20 -34 54 -34c16 0 42 2 66 7l8 46c3 17 5 30 5 41c0 36 -19 45 -55 45c-40 0 -64 -19 -73 -67z" />
    <glyph glyph-name="comma.denominator" horiz-adv-x="257" 
d="M225 99l-101 -162h-94l80 162h115z" />
    <glyph glyph-name="period.denominator" horiz-adv-x="218" 
d="M168 0h-118l17 99h118z" />
    <glyph glyph-name="cent.denominator" horiz-adv-x="405" 
d="M440 442l-17 -97c-33 3 -71 5 -98 5c-68 0 -94 -26 -108 -109l-7 -40c-3 -19 -5 -36 -5 -49c0 -44 19 -60 73 -60c31 0 74 3 100 5l-16 -96c-19 -6 -52 -11 -85 -12l-14 -79h-109l15 87c-62 16 -98 64 -98 147c0 21 2 45 7 70l7 39c21 116 74 175 164 195l14 80h109
l-14 -75c34 -2 66 -7 82 -11z" />
    <glyph glyph-name="dollar.denominator" horiz-adv-x="438" 
d="M52 3l15 82c27 -1 86 -5 145 -5c42 0 77 8 77 45c0 23 -14 31 -53 47l-43 17c-62 24 -98 62 -98 125c0 87 69 128 147 136l14 81h112l-14 -77c45 -3 86 -10 105 -15l-15 -84c-52 5 -105 8 -146 8c-32 0 -77 -5 -77 -39c0 -18 11 -28 51 -43l43 -16
c71 -26 104 -58 104 -122c0 -81 -55 -136 -146 -150l-14 -82h-112l14 79c-44 2 -84 8 -109 13z" />
    <glyph glyph-name="hyphen.denominator" horiz-adv-x="247" 
d="M226 155h-152l15 89h152z" />
    <glyph glyph-name="parenleft.denominator" horiz-adv-x="287" 
d="M325 451c-82 -103 -132 -228 -132 -354c0 -75 14 -132 34 -178h-106c-22 40 -43 109 -43 200c0 118 46 235 135 332h112z" />
    <glyph glyph-name="parenright.denominator" horiz-adv-x="287" 
d="M27 -81c82 103 132 234 132 363c0 71 -14 124 -34 169h106c22 -39 43 -109 43 -192c0 -125 -48 -243 -135 -340h-112z" />
    <glyph glyph-name="zero.numerator" horiz-adv-x="478" 
d="M545 608c0 -28 -3 -52 -17 -124c-24 -126 -86 -193 -227 -193c-120 0 -165 65 -165 161c0 22 2 46 7 73l8 43c23 122 89 191 228 191c120 0 166 -61 166 -151zM418 609c0 41 -18 54 -53 54c-49 0 -70 -27 -87 -115l-8 -41c-6 -31 -8 -53 -8 -68c0 -40 18 -52 52 -52
c45 0 74 23 89 114l7 42c4 27 8 45 8 66z" />
    <glyph glyph-name="one.numerator" horiz-adv-x="407" 
d="M401 302h-292l15 85l81 4l45 245l-86 -25l17 96l125 43h93l-65 -359l81 -4z" />
    <glyph glyph-name="two.numerator" horiz-adv-x="458" 
d="M201 665l13 75c39 10 114 19 165 19c116 0 167 -38 167 -107c0 -87 -71 -120 -157 -156c-94 -39 -107 -50 -116 -98l-1 -5h220l-15 -91h-346l9 55c18 113 66 154 177 205c57 26 98 40 98 77c0 25 -18 33 -73 33c-40 0 -108 -4 -141 -7z" />
    <glyph glyph-name="three.numerator" horiz-adv-x="455" 
d="M532 652c0 -47 -26 -97 -74 -122c29 -15 39 -47 39 -77c0 -19 -3 -36 -8 -50c-21 -86 -91 -112 -208 -112c-62 0 -130 11 -157 21l13 74c31 -3 94 -7 145 -7c58 0 89 14 89 77c0 22 -13 32 -60 32h-126l14 81h126c51 0 78 18 78 70c0 25 -18 32 -69 32s-108 -4 -146 -6
l12 74c27 9 101 20 164 20c111 0 168 -33 168 -107z" />
    <glyph glyph-name="four.numerator" horiz-adv-x="471" 
d="M429 302h-128l18 97h-213l13 83l284 266h105l-47 -265h61l-15 -84h-60zM340 483l24 136l-143 -136h119z" />
    <glyph glyph-name="five.numerator" horiz-adv-x="452" 
d="M521 748l-15 -88h-208l-22 -80h42c125 0 168 -36 168 -111c0 -26 -5 -49 -15 -72c-28 -82 -105 -106 -206 -106c-73 0 -132 12 -157 18l13 77c40 -4 85 -8 131 -8c64 0 102 18 102 80c0 30 -20 38 -78 38h-132l67 252h310z" />
    <glyph glyph-name="six.numerator" horiz-adv-x="466" 
d="M523 741l-13 -76c-63 6 -92 7 -144 7c-76 0 -89 -26 -99 -81l-3 -12c23 5 59 8 80 8c97 0 153 -25 153 -106c0 -155 -101 -190 -217 -190c-112 0 -163 48 -163 140c0 20 3 43 7 66l15 87c20 116 67 175 225 175c67 0 134 -11 159 -18zM367 441c4 24 5 33 5 39
c0 28 -20 33 -54 33c-16 0 -42 -1 -66 -7l-8 -46c-3 -17 -5 -30 -5 -40c0 -36 19 -46 55 -46c40 0 64 19 73 67z" />
    <glyph glyph-name="seven.numerator" horiz-adv-x="454" 
d="M199 660l15 88h350l-16 -96l-267 -350h-136l277 358h-223z" />
    <glyph glyph-name="eight.numerator" horiz-adv-x="476" 
d="M511 418c-21 -117 -116 -127 -222 -127c-95 0 -173 22 -173 114c0 69 29 110 71 129c-21 16 -34 44 -34 77c0 132 104 147 221 147c101 0 173 -25 173 -105c0 -56 -26 -101 -68 -126c23 -17 36 -43 36 -72c0 -13 -1 -22 -4 -37zM387 434c2 9 3 20 3 28
c0 23 -10 32 -39 32h-50c-35 0 -59 -24 -59 -83c0 -34 24 -40 64 -40c43 0 71 10 81 63zM418 622c2 12 3 16 3 21c0 28 -24 35 -63 35c-49 0 -81 -15 -81 -75c0 -21 9 -33 38 -33h50c36 0 47 20 53 52z" />
    <glyph glyph-name="nine.numerator" horiz-adv-x="466" 
d="M105 309l13 77c41 -4 89 -8 144 -8c76 0 89 27 102 93c-23 -5 -59 -8 -81 -8c-96 0 -153 26 -153 107c0 156 103 189 218 189c112 0 163 -48 163 -140c0 -20 -3 -42 -7 -65l-15 -88c-20 -116 -67 -175 -225 -175c-67 0 -134 11 -159 18zM261 609c-4 -24 -5 -32 -5 -38
c0 -28 20 -34 54 -34c16 0 42 2 66 7l8 46c3 17 5 30 5 41c0 36 -19 45 -55 45c-40 0 -64 -19 -73 -67z" />
    <glyph glyph-name="comma.numerator" horiz-adv-x="257" 
d="M289 401l-101 -162h-94l80 162h115z" />
    <glyph glyph-name="period.numerator" horiz-adv-x="218" 
d="M216 302h-118l17 99h118z" />
    <glyph glyph-name="cent.numerator" horiz-adv-x="405" 
d="M488 744l-17 -97c-33 3 -71 5 -98 5c-68 0 -94 -26 -108 -109l-7 -40c-3 -19 -5 -36 -5 -49c0 -44 19 -60 73 -60c31 0 74 3 100 5l-16 -96c-19 -6 -52 -11 -85 -12l-14 -79h-109l15 87c-62 16 -98 64 -98 147c0 21 2 45 7 70l7 39c21 116 74 175 164 195l14 80h109
l-14 -75c34 -2 66 -7 82 -11z" />
    <glyph glyph-name="dollar.numerator" horiz-adv-x="438" 
d="M92 305l15 82c27 -1 86 -5 145 -5c42 0 77 8 77 45c0 23 -14 31 -53 47l-43 17c-62 24 -98 62 -98 125c0 87 69 128 147 136l14 81h112l-14 -77c45 -3 86 -10 105 -15l-15 -84c-52 5 -105 8 -146 8c-32 0 -77 -5 -77 -39c0 -18 11 -28 51 -43l43 -16
c71 -26 104 -58 104 -122c0 -81 -55 -136 -146 -150l-14 -82h-112l14 79c-44 2 -84 8 -109 13z" />
    <glyph glyph-name="hyphen.numerator" horiz-adv-x="247" 
d="M274 457h-152l15 89h152z" />
    <glyph glyph-name="parenleft.numerator" horiz-adv-x="287" 
d="M325 753c-82 -103 -132 -228 -132 -354c0 -75 14 -132 34 -178h-106c-22 40 -43 109 -43 200c0 118 46 235 135 332h112z" />
    <glyph glyph-name="parenright.numerator" horiz-adv-x="287" 
d="M59 221c82 103 132 234 132 363c0 71 -14 124 -34 169h106c22 -39 43 -109 43 -192c0 -125 -48 -243 -135 -340h-112z" />
    <glyph glyph-name="parenleft.cap" horiz-adv-x="338" 
d="M433 743c-110 -142 -179 -320 -179 -500c0 -97 18 -177 48 -243h-136c-31 52 -59 151 -59 266c0 174 68 343 190 477h136z" />
    <glyph glyph-name="parenright.cap" horiz-adv-x="338" 
d="M373 480c0 -175 -69 -348 -190 -480h-137c110 142 180 320 180 502c0 94 -18 175 -49 241h137c30 -53 59 -151 59 -263z" />
    <glyph glyph-name="bracketleft.cap" horiz-adv-x="365" 
d="M321 0h-254l131 743h254l-20 -113h-102l-93 -518h102z" />
    <glyph glyph-name="bracketright.cap" horiz-adv-x="365" 
d="M298 0h-254l18 112h103l93 518h-102l19 113h254z" />
    <glyph glyph-name="braceleft.cap" horiz-adv-x="390" 
d="M479 743l-20 -114h-50c-51 0 -60 -5 -68 -50l-15 -80c-12 -70 -35 -100 -82 -128c28 -21 42 -43 42 -83c0 -12 -2 -27 -5 -44l-14 -81c-2 -11 -3 -19 -3 -25c0 -22 13 -25 52 -25h50l-18 -113h-52c-137 0 -185 35 -185 120c0 18 3 39 7 61l12 72c3 13 4 23 4 32
c0 29 -13 41 -35 57l13 77c37 21 54 35 64 89l15 80c21 126 69 155 236 155h52z" />
    <glyph glyph-name="braceright.cap" horiz-adv-x="390" 
d="M407 625c0 -17 -3 -36 -7 -58l-14 -78c-2 -12 -3 -23 -3 -31c0 -29 13 -42 35 -57l-13 -78c-38 -20 -54 -35 -64 -88l-15 -81c-21 -124 -68 -154 -236 -154h-51l18 114h51c51 0 59 5 67 49l15 81c12 69 36 99 83 127c-28 20 -40 45 -40 85c0 14 1 31 4 49l14 74
c2 11 3 19 3 25c0 22 -14 25 -53 25h-50l19 114h51c138 0 186 -34 186 -118z" />
    <glyph glyph-name="exclamdown.cap" horiz-adv-x="330" 
d="M337 520l-82 -556h-194l115 556h161zM206 743h179l-29 -165h-179z" />
    <glyph glyph-name="questiondown.cap" horiz-adv-x="541" 
d="M381 743h175l-28 -164h-175zM526 98l-20 -115c-60 -20 -140 -32 -222 -32c-150 0 -211 51 -211 141c0 101 63 160 141 224c111 91 125 121 136 177l5 26h151l-5 -26c-14 -84 -29 -130 -112 -207l-16 -15c-50 -47 -90 -84 -90 -137c0 -35 29 -45 88 -45c46 0 88 0 155 9z
" />
    <glyph glyph-name="guillemotleft.cap" horiz-adv-x="773" 
d="M820 602l-193 -231l104 -213h-171l-114 222l192 222h182zM474 602h-182l-192 -222l114 -222h171l-104 213z" />
    <glyph glyph-name="guillemotright.cap" horiz-adv-x="773" 
d="M779 380l-192 -222h-182l193 231l-104 213h171zM433 380l-114 222h-171l104 -213l-193 -231h182z" />
    <glyph glyph-name="guilsinglleft.cap" horiz-adv-x="425" 
d="M487 602l-193 -231l104 -213h-171l-114 222l192 222h182z" />
    <glyph glyph-name="guilsinglright.cap" horiz-adv-x="425" 
d="M444 380l-192 -222h-182l193 231l-104 213h171z" />
    <glyph glyph-name="hyphen.cap" horiz-adv-x="357" 
d="M358 331h-242l18 109h242z" />
    <glyph glyph-name="endash.cap" horiz-adv-x="454" 
d="M455 331h-339l18 109h339z" />
    <glyph glyph-name="emdash.cap" horiz-adv-x="624" 
d="M624 331h-508l18 109h509z" />
    <glyph glyph-name="periodcentered.cap" horiz-adv-x="302" 
d="M282 300h-157l28 164h157z" />
    <glyph glyph-name="at.cap" horiz-adv-x="884" 
d="M923 497c0 -239 -163 -360 -421 -360c-152 0 -210 45 -210 140c0 26 3 54 10 88c31 150 105 220 251 220c68 0 131 -10 179 -22l-71 -316c116 30 167 138 167 253c0 124 -85 184 -238 184c-182 0 -300 -89 -358 -269c-19 -59 -35 -118 -35 -182c0 -133 76 -187 246 -187
c75 0 164 6 189 9l-7 -60c-26 -5 -115 -16 -190 -16c-230 0 -331 87 -331 254c0 76 16 141 41 209c76 213 228 315 453 315c204 0 325 -93 325 -260zM583 485c-13 2 -33 2 -47 2c-49 0 -80 -16 -104 -118c-7 -31 -14 -60 -14 -88c0 -35 17 -53 74 -53c13 0 21 0 33 1z" />
    <glyph glyph-name="T_h" horiz-adv-x="1213" 
d="M1146 0h-174l63 359c2 17 4 31 4 43c0 39 -18 51 -62 51s-91 -14 -119 -26l-75 -427h-175l108 606h-179l-108 -606h-187l107 606h-215l23 137h757l-36 -198c47 22 114 40 177 40c122 0 161 -60 161 -149c0 -28 -4 -58 -9 -88z" />
    <glyph glyph-name="A.alt" horiz-adv-x="748" 
d="M19 0l283 611l-49 5l22 127h372l78 -743h-193l-19 187h-211l-88 -187h-195zM510 321l-18 197c-4 36 -4 76 -3 114h-7c-13 -38 -28 -78 -44 -114l-88 -197h160z" />
    <glyph glyph-name="B.alt" horiz-adv-x="711" 
d="M756 573c0 -25 -4 -48 -13 -75c-17 -54 -52 -93 -104 -118c45 -23 67 -70 67 -123c0 -28 -3 -52 -9 -72c-42 -160 -189 -194 -382 -194c-72 0 -153 2 -241 9l108 610l-47 6l22 127c105 7 211 10 287 10c195 0 312 -33 312 -180zM524 250c0 49 -28 73 -111 73h-102
l-37 -197c24 -1 47 -1 72 -1c84 0 151 12 172 80c4 18 6 31 6 45zM575 550c0 61 -50 68 -139 68c-24 0 -48 0 -73 -1l-33 -179h101c75 0 119 18 137 68c5 15 7 28 7 44z" />
    <glyph glyph-name="C.alt" horiz-adv-x="616" 
d="M606 135l-22 -132c-38 -9 -143 -20 -205 -20c-178 0 -282 65 -282 246c0 35 4 73 11 116l16 85c47 268 180 329 392 329c62 0 163 -10 198 -21l-32 -185h-115l2 59c-19 0 -39 2 -59 2c-110 0 -170 -37 -199 -200l-16 -85c-6 -33 -9 -61 -9 -83c0 -93 48 -117 137 -117
c63 0 135 4 183 6z" />
    <glyph glyph-name="D.alt" horiz-adv-x="738" 
d="M73 0l109 611l-47 5l23 127c96 7 202 10 295 10c231 0 318 -86 318 -255c0 -32 -3 -67 -10 -105l-14 -77c-42 -238 -164 -326 -419 -326c-97 0 -160 3 -255 10zM564 335l14 77c7 40 11 71 11 94c0 81 -47 105 -148 105h-77l-86 -479h77c124 0 179 38 209 203z" />
    <glyph glyph-name="E.alt" horiz-adv-x="628" 
d="M687 607h-319l-30 -162h298l-22 -130h-298l-33 -179h319l-23 -136h-506l109 611l-47 5l22 127h553z" />
    <glyph glyph-name="F.alt" horiz-adv-x="619" 
d="M73 0l109 611l-47 5l22 127h554l-24 -138h-320l-29 -161h297l-21 -130h-298l-56 -314h-187z" />
    <glyph glyph-name="G.alt" horiz-adv-x="705" 
d="M645 7c-54 -10 -150 -24 -272 -24c-151 0 -275 57 -275 253c0 32 3 68 10 107l17 88c53 299 228 328 389 328c111 0 222 -18 256 -27l-31 -179h-113v57c-27 1 -68 4 -101 4c-117 0 -186 -24 -218 -198l-17 -88c-7 -40 -11 -72 -11 -96c0 -81 46 -104 127 -104
c30 0 61 1 85 3l29 156l-77 7l18 107h253z" />
    <glyph glyph-name="H.alt" horiz-adv-x="800" 
d="M727 0h-187l55 313h-279l-55 -313h-188l109 612l-47 4l22 127h235l-52 -288h279l52 288h187z" />
    <glyph glyph-name="I.alt" horiz-adv-x="345" 
d="M313 0h-281l20 126l48 5l88 481l-47 4l22 127h281l-22 -127l-47 -4l-87 -481l46 -5z" />
    <glyph glyph-name="J.alt" horiz-adv-x="345" 
d="M422 616l-48 -4l-114 -635c-23 -137 -88 -192 -230 -192c-33 0 -76 4 -98 9l19 113h53c51 0 60 16 69 63l115 642l-47 4l22 127h281z" />
    <glyph glyph-name="K.alt" horiz-adv-x="738" 
d="M726 0h-217l-184 348l-62 -348h-188l110 612l-46 4l22 127h234l-61 -339l309 339h220l-346 -370z" />
    <glyph glyph-name="M.alt" horiz-adv-x="896" 
d="M823 0h-180l67 368c7 44 15 78 26 121h-2c-21 -34 -44 -66 -66 -95l-128 -173h-108l-61 173c-11 29 -21 63 -31 95h-2c-6 -43 -9 -77 -18 -121l-67 -368h-180l109 612l-47 4l22 127h227l95 -264c11 -27 21 -60 30 -90h2c21 31 43 63 63 91l194 263h186z" />
    <glyph glyph-name="N.alt" horiz-adv-x="776" 
d="M157 743h238l146 -381c13 -32 26 -72 35 -105h2c4 35 11 82 19 127l67 359h170l-131 -743h-194l-144 388c-12 32 -24 68 -33 101h-3c-5 -38 -12 -80 -19 -120l-69 -369h-169l110 612l-47 4z" />
    <glyph glyph-name="P.alt" horiz-adv-x="691" 
d="M741 456c-43 -171 -198 -202 -367 -202h-76l-45 -254h-181l110 612l-47 4l22 127c89 6 184 9 276 9c184 0 321 -37 321 -207c0 -31 -4 -60 -13 -89zM562 479c6 18 9 36 9 56c0 65 -48 77 -139 77c-24 0 -49 -1 -71 -1l-39 -216h71c81 0 146 17 169 84z" />
    <glyph glyph-name="Q.alt" horiz-adv-x="745" 
d="M775 496c0 -33 -4 -67 -10 -104l-13 -76c-34 -216 -142 -309 -298 -328l-30 -175h-174l32 182c-117 24 -181 107 -181 253c0 31 3 65 9 102l13 76c41 259 188 333 378 333c172 0 274 -80 274 -263zM594 504c0 80 -33 110 -113 110c-95 0 -149 -51 -176 -206l-13 -75
c-6 -32 -10 -70 -10 -94c0 -82 38 -111 111 -111c94 0 150 49 177 206l14 75c5 34 10 71 10 95z" />
    <glyph glyph-name="R.alt" horiz-adv-x="718" 
d="M753 545c0 -27 -4 -60 -14 -89c-22 -80 -71 -121 -146 -156l112 -300h-188l-99 265c-15 -1 -41 -1 -58 -1h-61l-47 -264h-180l110 612l-47 4l21 127c86 5 186 9 289 9c165 0 308 -34 308 -207zM569 531c0 67 -46 81 -142 81c-23 0 -41 0 -66 -1l-39 -216h68
c96 0 149 20 170 79c6 19 9 37 9 57z" />
    <glyph glyph-name="S.alt" horiz-adv-x="646" 
d="M453 626c-70 0 -131 -11 -131 -77c0 -34 17 -52 70 -76l98 -43c96 -44 148 -93 148 -196c0 -176 -135 -251 -324 -251c-104 0 -206 12 -253 24l20 122c64 -6 124 -11 227 -11c80 0 139 23 139 94c0 35 -19 54 -73 79l-100 45c-83 38 -139 92 -139 196
c0 182 155 227 324 227c105 0 200 -15 242 -25l-29 -168h-113l-1 57c-34 2 -67 3 -105 3z" />
    <glyph glyph-name="U.alt" horiz-adv-x="763" 
d="M827 743l-81 -459c-38 -214 -154 -301 -360 -301c-183 0 -272 87 -272 232c0 41 5 72 10 105l53 292l-47 5l22 126h232l-77 -437c-6 -34 -10 -62 -10 -86c0 -68 32 -95 110 -95c107 0 135 50 159 181l77 437h184z" />
    <glyph glyph-name="Z.alt" horiz-adv-x="658" 
d="M629 139l-22 -139h-556l23 143l415 460h-204l-18 -52h-109l33 192h538l-25 -145l-413 -459h338z" />
    <glyph glyph-name="a.alt" horiz-adv-x="609" 
d="M619 431c0 -22 -3 -46 -8 -71l-64 -360h-158l6 37c-42 -25 -109 -52 -184 -52c-100 0 -145 48 -145 127c0 18 1 33 7 71c24 148 149 158 306 158h54l6 31c2 15 4 28 4 37c0 38 -22 47 -94 47c-21 0 -43 0 -64 -1l-17 -45h-112l25 140c33 12 129 35 225 35
c149 0 213 -49 213 -154zM424 251h-59c-79 0 -114 -9 -126 -74c-5 -30 -5 -35 -5 -42c0 -29 19 -39 55 -39c45 0 92 18 112 28z" />
    <glyph glyph-name="b.alt" horiz-adv-x="653" 
d="M648 242c-35 -197 -143 -257 -332 -257c-80 0 -140 4 -248 16l115 650l-44 5l20 123h220l-38 -214c36 15 79 21 120 21c142 0 207 -66 207 -193c0 -25 -2 -52 -7 -81zM477 257l13 70c4 23 6 43 6 59c0 49 -24 67 -81 67c-21 0 -67 -3 -97 -17l-57 -314c18 -2 46 -4 79 -4
c80 0 118 29 137 139z" />
    <glyph glyph-name="c.alt" horiz-adv-x="533" 
d="M492 7c-34 -8 -103 -22 -189 -22c-154 0 -217 77 -217 202c0 25 2 52 7 81l12 64c31 181 123 253 299 253c94 0 164 -15 186 -22l-27 -157h-108v44c-19 1 -33 2 -45 2c-71 0 -114 -23 -134 -135l-12 -63c-4 -23 -6 -41 -6 -57c0 -64 31 -79 95 -79c34 0 83 2 159 8z" />
    <glyph glyph-name="d.alt" horiz-adv-x="656" 
d="M722 779l-137 -779h-161l5 29c-44 -24 -102 -44 -166 -44c-116 0 -179 69 -179 195c0 25 2 54 8 84l13 70c35 199 143 251 303 251c40 0 72 -3 103 -9l18 94l-49 5l18 104h224zM491 445c-29 5 -62 8 -84 8c-71 0 -110 -20 -131 -136l-13 -70c-4 -23 -6 -43 -6 -58
c0 -51 24 -72 80 -72c34 0 68 9 99 20z" />
    <glyph glyph-name="f.alt" horiz-adv-x="457" 
d="M267 -148h-174l105 594l-93 9l18 115h96l10 52c22 117 73 173 202 173c52 0 100 -8 134 -17l-17 -98c-33 1 -56 3 -80 3c-50 0 -58 -18 -67 -68l-9 -45h133l-20 -124h-133z" />
    <glyph glyph-name="g.alt" horiz-adv-x="629" 
d="M700 585l-15 -87l-54 -13c8 -11 16 -33 16 -63c0 -26 -3 -47 -8 -68c-32 -116 -147 -160 -289 -160c-36 0 -77 5 -108 16c-18 -9 -34 -28 -34 -46c0 -17 10 -22 41 -22h87c167 0 258 -26 258 -138c0 -178 -158 -221 -323 -221c-160 0 -246 44 -246 152
c0 54 25 101 74 141c-22 17 -32 44 -32 67c0 53 39 92 85 114c-19 22 -31 52 -31 92c0 16 1 29 4 47c20 113 78 189 294 189h281zM425 -18c0 40 -26 52 -108 52h-90c-26 -21 -40 -59 -40 -84c0 -47 26 -62 103 -62c92 0 135 21 135 94zM483 421c0 35 -19 54 -84 54
c-82 0 -100 -32 -109 -85c-2 -12 -4 -22 -4 -32c0 -35 19 -55 82 -55c66 0 99 23 111 79c3 13 4 25 4 39z" />
    <glyph glyph-name="h.alt" 
d="M607 0h-175l63 359c3 17 4 31 4 42c0 40 -19 52 -61 52c-44 0 -91 -14 -120 -26l-75 -427h-175l117 651l-45 5l21 123h219l-42 -234c47 22 114 40 178 40c124 0 161 -60 161 -145c0 -25 -4 -58 -11 -95z" />
    <glyph glyph-name="i.alt" horiz-adv-x="318" 
d="M246 0h-174l78 441l-45 5l20 124h220zM363 648h-180l23 131h180z" />
    <glyph glyph-name="j.alt" horiz-adv-x="318" 
d="M239 -35c-24 -139 -79 -183 -216 -183c-40 0 -80 4 -96 8l19 111c19 -1 37 -1 56 -1c44 0 53 14 63 65l85 477l-45 4l20 124h220zM363 648h-180l23 131h180z" />
    <glyph glyph-name="k.alt" horiz-adv-x="624" 
d="M614 0h-190l-134 270l-47 -270h-175l116 651l-45 5l21 123h220l-81 -457l218 248h193l-246 -274z" />
    <glyph glyph-name="l.alt" horiz-adv-x="317" 
d="M246 0h-174l115 651l-45 5l21 123h219z" />
    <glyph glyph-name="m.alt" horiz-adv-x="962" 
d="M971 445c0 -27 -4 -56 -9 -83l-65 -362h-173l64 371c3 18 6 33 6 46c0 25 -10 38 -50 38c-27 0 -67 -11 -101 -28c0 -18 -4 -38 -7 -56l-65 -371h-175l65 371c3 19 6 34 6 47c0 25 -10 37 -46 37c-33 0 -73 -15 -103 -29l-75 -426h-175l79 442l-45 4l20 124h210l-8 -45
c55 38 120 60 183 60c70 0 106 -23 125 -62c71 44 137 62 184 62c121 0 155 -60 155 -140z" />
    <glyph glyph-name="n.alt" horiz-adv-x="671" 
d="M607 0h-175l63 359c3 18 5 32 5 44c0 35 -16 50 -57 50c-35 0 -80 -11 -126 -34l-74 -419h-175l78 441l-45 5l21 124h210l-7 -44c63 39 132 59 193 59c125 0 159 -63 159 -145c0 -30 -5 -63 -11 -95z" />
    <glyph glyph-name="p.alt" horiz-adv-x="654" 
d="M670 410c0 -31 -4 -69 -12 -111l-9 -50c-37 -208 -140 -263 -310 -263c-33 0 -76 4 -99 9l-35 -198h-174l115 644l-45 5l20 124h207l-6 -36c59 36 122 51 175 51c111 0 173 -50 173 -175zM495 382c0 53 -25 70 -76 70c-29 0 -58 -6 -104 -24l-55 -302c29 -6 57 -9 84 -9
c76 0 110 23 134 147l9 50c5 25 8 51 8 68z" />
    <glyph glyph-name="r.alt" horiz-adv-x="435" 
d="M242 0h-174l78 441l-45 5l21 124h207l-7 -47c64 52 137 62 198 62l-24 -146c-63 0 -134 -11 -181 -26z" />
    <glyph glyph-name="s.alt" horiz-adv-x="543" 
d="M373 585c86 0 169 -11 213 -23l-23 -137h-113l-2 41c-26 2 -48 2 -71 2c-41 0 -92 -2 -92 -52c0 -23 17 -34 64 -53l48 -20c99 -40 140 -79 140 -160c0 -148 -123 -197 -285 -197c-80 0 -170 13 -200 22l18 105c43 -4 108 -11 192 -11c52 0 101 9 101 59
c0 30 -16 39 -75 64l-42 18c-87 36 -134 80 -134 163c0 151 129 179 261 179z" />
    <glyph glyph-name="u.alt" 
d="M530 570h174l-100 -570h-164l7 46c-61 -35 -129 -61 -206 -61c-116 0 -145 68 -145 146c0 29 4 58 8 85l41 225l-46 6l21 123h220l-63 -361c-3 -20 -5 -35 -5 -48c0 -33 15 -44 52 -44c36 0 82 12 131 31z" />
    <glyph glyph-name="y.alt" 
d="M602 -15c-22 -127 -96 -201 -300 -201c-114 0 -217 19 -236 23l17 105c64 -4 153 -9 221 -9c98 0 113 25 123 82l4 19c-20 -3 -61 -7 -92 -7c-153 0 -232 66 -232 200c0 23 3 49 8 77l52 296h172l-54 -309c-4 -22 -5 -39 -5 -55c0 -58 29 -79 94 -79c30 0 67 4 80 6
l78 437h172z" />
    <glyph glyph-name="z.alt" horiz-adv-x="548" 
d="M526 124l-21 -124h-465l21 129l326 316h-152l-15 -39h-99l27 164h456l-22 -130l-324 -316h268z" />
    <glyph glyph-name="a.alt2" horiz-adv-x="609" 
d="M619 431c0 -22 -3 -46 -8 -71l-64 -360h-158l6 37c-42 -25 -109 -52 -184 -52c-100 0 -145 48 -145 127c0 18 1 33 7 71c24 148 155 158 306 158h54l6 31c2 15 4 28 4 37c0 38 -22 47 -94 47c-51 0 -130 -3 -186 -9l18 103c33 12 129 35 225 35c149 0 213 -49 213 -154z
M401 124l23 127h-59c-76 0 -115 -9 -127 -74c-5 -30 -5 -35 -5 -42c0 -29 20 -39 56 -39c45 0 92 18 112 28z" />
    <glyph glyph-name="f.alt2" horiz-adv-x="457" 
d="M565 778l-17 -98c-33 1 -56 3 -80 3c-50 0 -58 -18 -67 -68l-9 -45h133l-20 -124h-133l-79 -446h-174l79 446l-93 9l18 115h96l10 52c22 117 73 173 202 173c52 0 100 -8 134 -17z" />
    <glyph glyph-name="u.alt2" horiz-adv-x="672" 
d="M649 251c-33 -193 -136 -266 -312 -266c-153 0 -230 71 -230 209c0 26 3 56 9 87l50 289h174l-53 -305c-5 -29 -8 -53 -8 -71c0 -54 22 -76 75 -76c76 0 103 41 123 147l53 305h174z" />
    <glyph glyph-name="Aacute.alt" horiz-adv-x="748" 
d="M19 0l283 611l-49 5l22 127h372l78 -743h-193l-19 187h-211l-88 -187h-195zM510 321l-18 197c-4 36 -4 76 -3 114h-7c-13 -38 -28 -78 -44 -114l-88 -197h160zM766 935l-192 -146h-163l157 146h198z" />
    <glyph glyph-name="Acircumflex.alt" horiz-adv-x="748" 
d="M19 0l283 611l-49 5l22 127h372l78 -743h-193l-19 187h-211l-88 -187h-195zM510 321l-18 197c-4 36 -4 76 -3 114h-7c-13 -38 -28 -78 -44 -114l-88 -197h160zM741 789h-148l-71 82l-102 -82h-156l160 146h209z" />
    <glyph glyph-name="Adieresis.alt" horiz-adv-x="748" 
d="M19 0l283 611l-49 5l22 127h372l78 -743h-193l-19 187h-211l-88 -187h-195zM510 321l-18 197c-4 36 -4 76 -3 114h-7c-13 -38 -28 -78 -44 -114l-88 -197h160zM723 927l-22 -127h-140l22 127h140zM469 927h-140l-22 -127h140z" />
    <glyph glyph-name="Agrave.alt" horiz-adv-x="748" 
d="M19 0l283 611l-49 5l22 127h372l78 -743h-193l-19 187h-211l-88 -187h-195zM510 321l-18 197c-4 36 -4 76 -3 114h-7c-13 -38 -28 -78 -44 -114l-88 -197h160zM621 789h-161l-141 146h196z" />
    <glyph glyph-name="Aring.alt" horiz-adv-x="748" 
d="M655 901c0 -80 -60 -122 -141 -122c-82 0 -144 42 -144 122c0 79 62 122 144 122c81 0 141 -43 141 -122zM569 901c0 34 -24 48 -55 48c-33 0 -56 -14 -56 -48c0 -33 23 -48 56 -48c31 0 55 15 55 48zM19 0l283 611l-49 5l22 127h372l78 -743h-193l-19 187h-211l-88 -187
h-195zM510 321l-18 197c-4 36 -4 76 -3 114h-7c-13 -38 -28 -78 -44 -114l-88 -197h160z" />
    <glyph glyph-name="Atilde.alt" horiz-adv-x="748" 
d="M19 0l283 611l-49 5l22 127h372l78 -743h-193l-19 187h-211l-88 -187h-195zM510 321l-18 197c-4 36 -4 76 -3 114h-7c-13 -38 -28 -78 -44 -114l-88 -197h160zM754 947c-11 -128 -75 -163 -138 -163c-36 0 -70 9 -108 31l-43 25c-20 13 -33 21 -49 21
c-26 0 -37 -18 -45 -72h-98c13 131 77 163 145 163c36 0 62 -8 99 -29l43 -26c20 -12 34 -21 53 -21c25 0 40 20 43 71h98z" />
    <glyph glyph-name="Ccedilla.alt" horiz-adv-x="616" 
d="M606 135l-22 -132c-38 -9 -143 -20 -205 -20c-178 0 -282 65 -282 246c0 35 4 73 11 116l16 85c47 268 180 329 392 329c62 0 163 -10 198 -21l-32 -185h-115l2 59c-19 0 -39 2 -59 2c-110 0 -170 -37 -199 -200l-16 -85c-6 -33 -9 -61 -9 -83c0 -93 48 -117 137 -117
c63 0 135 4 183 6zM457 -63l-157 -140h-159l131 140h185z" />
    <glyph glyph-name="Eacute.alt" horiz-adv-x="628" 
d="M687 607h-319l-30 -162h298l-22 -130h-298l-33 -179h319l-23 -136h-506l109 611l-47 5l22 127h553zM719 934l-192 -146h-163l157 146h198z" />
    <glyph glyph-name="Ecircumflex.alt" horiz-adv-x="628" 
d="M687 607h-319l-30 -162h298l-22 -130h-298l-33 -179h319l-23 -136h-506l109 611l-47 5l22 127h553zM699 789h-148l-71 82l-102 -82h-156l160 146h209z" />
    <glyph glyph-name="Edieresis.alt" horiz-adv-x="628" 
d="M687 607h-319l-30 -162h298l-22 -130h-298l-33 -179h319l-23 -136h-506l109 611l-47 5l22 127h553zM673 926l-22 -127h-140l22 127h140zM419 926h-140l-22 -127h140z" />
    <glyph glyph-name="Egrave.alt" horiz-adv-x="628" 
d="M687 607h-319l-30 -162h298l-22 -130h-298l-33 -179h319l-23 -136h-506l109 611l-47 5l22 127h553zM562 788h-161l-141 146h196z" />
    <glyph glyph-name="Eth.alt" horiz-adv-x="738" 
d="M771 498c0 -32 -3 -67 -10 -105l-14 -77c-42 -238 -164 -326 -419 -326c-88 0 -169 3 -255 10l57 317h-51l22 128h50l31 166l-47 6l23 126c95 7 199 10 295 10c231 0 318 -86 318 -255zM589 506c0 81 -47 105 -148 105h-77l-31 -166h110l-22 -128h-109l-34 -185h77
c124 0 180 38 209 203l14 77c7 40 11 71 11 94z" />
    <glyph glyph-name="Iacute.alt" horiz-adv-x="345" 
d="M313 0h-281l20 126l48 5l88 481l-47 4l22 127h281l-22 -127l-47 -4l-87 -481l46 -5zM558 935l-192 -146h-163l157 146h198z" />
    <glyph glyph-name="Icircumflex.alt" horiz-adv-x="345" 
d="M313 0h-281l20 126l48 5l88 481l-47 4l22 127h281l-22 -127l-47 -4l-87 -481l46 -5zM549 789h-148l-71 82l-102 -82h-156l160 146h209z" />
    <glyph glyph-name="Idieresis.alt" horiz-adv-x="345" 
d="M313 0h-281l20 126l48 5l88 481l-47 4l22 127h281l-22 -127l-47 -4l-87 -481l46 -5zM535 927l-22 -127h-140l22 127h140zM281 927h-140l-22 -127h140z" />
    <glyph glyph-name="Igrave.alt" horiz-adv-x="345" 
d="M313 0h-281l20 126l48 5l88 481l-47 4l22 127h281l-22 -127l-47 -4l-87 -481l46 -5zM431 789h-161l-141 146h196z" />
    <glyph glyph-name="Ntilde.alt" horiz-adv-x="776" 
d="M157 743h238l146 -381c13 -32 26 -72 35 -105h2c4 35 11 82 19 127l67 359h170l-131 -743h-194l-144 388c-12 32 -24 68 -33 101h-3c-5 -38 -12 -80 -19 -120l-69 -369h-169l110 612l-47 4zM776 947c-11 -128 -75 -163 -138 -163c-36 0 -70 9 -108 31l-43 25
c-20 13 -33 21 -49 21c-26 0 -37 -18 -45 -72h-98c13 131 77 163 145 163c36 0 62 -8 99 -29l43 -26c20 -12 34 -21 53 -21c25 0 40 20 43 71h98z" />
    <glyph glyph-name="Scaron.alt" horiz-adv-x="646" 
d="M453 626c-70 0 -131 -11 -131 -77c0 -34 17 -52 70 -76l98 -43c96 -44 148 -93 148 -196c0 -176 -135 -251 -324 -251c-104 0 -206 12 -253 24l20 122c64 -6 124 -11 227 -11c80 0 139 23 139 94c0 35 -19 54 -73 79l-100 45c-83 38 -139 92 -139 196
c0 182 155 227 324 227c105 0 200 -15 242 -25l-29 -168h-113l-1 57c-34 2 -67 3 -105 3zM252 935h148l72 -82l101 82h157l-160 -146h-208z" />
    <glyph glyph-name="Uacute.alt" horiz-adv-x="763" 
d="M827 743l-81 -459c-38 -214 -154 -301 -360 -301c-183 0 -272 87 -272 232c0 41 5 72 10 105l53 292l-47 5l22 126h232l-77 -437c-6 -34 -10 -62 -10 -86c0 -68 32 -95 110 -95c107 0 135 50 159 181l77 437h184zM774 935l-192 -146h-163l157 146h198z" />
    <glyph glyph-name="Ucircumflex.alt" horiz-adv-x="763" 
d="M827 743l-81 -459c-38 -214 -154 -301 -360 -301c-183 0 -272 87 -272 232c0 41 5 72 10 105l53 292l-47 5l22 126h232l-77 -437c-6 -34 -10 -62 -10 -86c0 -68 32 -95 110 -95c107 0 135 50 159 181l77 437h184zM756 789h-148l-71 82l-102 -82h-156l160 146h209z" />
    <glyph glyph-name="Udieresis.alt" horiz-adv-x="763" 
d="M827 743l-81 -459c-38 -214 -154 -301 -360 -301c-183 0 -272 87 -272 232c0 41 5 72 10 105l53 292l-47 5l22 126h232l-77 -437c-6 -34 -10 -62 -10 -86c0 -68 32 -95 110 -95c107 0 135 50 159 181l77 437h184zM742 927l-22 -127h-140l22 127h140zM488 927h-140
l-22 -127h140z" />
    <glyph glyph-name="Ugrave.alt" horiz-adv-x="763" 
d="M827 743l-81 -459c-38 -214 -154 -301 -360 -301c-183 0 -272 87 -272 232c0 41 5 72 10 105l53 292l-47 5l22 126h232l-77 -437c-6 -34 -10 -62 -10 -86c0 -68 32 -95 110 -95c107 0 135 50 159 181l77 437h184zM610 789h-161l-141 146h196z" />
    <glyph glyph-name="Zcaron.alt" horiz-adv-x="658" 
d="M629 139l-22 -139h-556l23 143l415 460h-204l-18 -52h-109l33 192h538l-25 -145l-413 -459h338zM264 935h148l72 -82l101 82h157l-160 -146h-208z" />
    <glyph glyph-name="aacute.alt" horiz-adv-x="609" 
d="M619 431c0 -22 -3 -46 -8 -71l-64 -360h-158l6 37c-42 -25 -109 -52 -184 -52c-100 0 -145 48 -145 127c0 18 1 33 7 71c24 148 149 158 306 158h54l6 31c2 15 4 28 4 37c0 38 -22 47 -94 47c-21 0 -43 0 -64 -1l-17 -45h-112l25 140c33 12 129 35 225 35
c149 0 213 -49 213 -154zM424 251h-59c-79 0 -114 -9 -126 -74c-5 -30 -5 -35 -5 -42c0 -29 19 -39 55 -39c45 0 92 18 112 28zM680 777l-192 -146h-163l157 146h198z" />
    <glyph glyph-name="acircumflex.alt" horiz-adv-x="609" 
d="M619 431c0 -22 -3 -46 -8 -71l-64 -360h-158l6 37c-42 -25 -109 -52 -184 -52c-100 0 -145 48 -145 127c0 18 1 33 7 71c24 148 149 158 306 158h54l6 31c2 15 4 28 4 37c0 38 -22 47 -94 47c-21 0 -43 0 -64 -1l-17 -45h-112l25 140c33 12 129 35 225 35
c149 0 213 -49 213 -154zM424 251h-59c-79 0 -114 -9 -126 -74c-5 -30 -5 -35 -5 -42c0 -29 19 -39 55 -39c45 0 92 18 112 28zM666 631h-148l-71 82l-102 -82h-156l160 146h209z" />
    <glyph glyph-name="adieresis.alt" horiz-adv-x="609" 
d="M619 431c0 -22 -3 -46 -8 -71l-64 -360h-158l6 37c-42 -25 -109 -52 -184 -52c-100 0 -145 48 -145 127c0 18 1 33 7 71c24 148 149 158 306 158h54l6 31c2 15 4 28 4 37c0 38 -22 47 -94 47c-21 0 -43 0 -64 -1l-17 -45h-112l25 140c33 12 129 35 225 35
c149 0 213 -49 213 -154zM424 251h-59c-79 0 -114 -9 -126 -74c-5 -30 -5 -35 -5 -42c0 -29 19 -39 55 -39c45 0 92 18 112 28zM648 773l-22 -127h-140l22 127h140zM394 773h-140l-22 -127h140z" />
    <glyph glyph-name="agrave.alt" horiz-adv-x="609" 
d="M619 431c0 -22 -3 -46 -8 -71l-64 -360h-158l6 37c-42 -25 -109 -52 -184 -52c-100 0 -145 48 -145 127c0 18 1 33 7 71c24 148 149 158 306 158h54l6 31c2 15 4 28 4 37c0 38 -22 47 -94 47c-21 0 -43 0 -64 -1l-17 -45h-112l25 140c33 12 129 35 225 35
c149 0 213 -49 213 -154zM424 251h-59c-79 0 -114 -9 -126 -74c-5 -30 -5 -35 -5 -42c0 -29 19 -39 55 -39c45 0 92 18 112 28zM538 631h-161l-141 146h196z" />
    <glyph glyph-name="ampersand.alt" horiz-adv-x="831" 
d="M802 380c-16 -90 -42 -176 -104 -247l86 -98l-6 -35h-172l-34 38c-51 -30 -133 -54 -235 -54c-145 0 -254 52 -254 180c0 110 74 175 185 227l-8 8c-43 51 -71 101 -71 166c0 159 148 194 301 194c163 0 234 -53 234 -158c0 -130 -105 -185 -227 -240l117 -134
c26 41 41 88 53 153h135zM495 127l-138 163c-49 -24 -92 -66 -92 -125c0 -49 43 -67 105 -67c50 0 94 10 125 29zM543 581c0 40 -27 48 -74 48c-62 0 -104 -18 -104 -78c0 -35 13 -53 47 -92l10 -11c77 43 121 71 121 133z" />
    <glyph glyph-name="aring.alt" horiz-adv-x="609" 
d="M582 744c0 -80 -60 -122 -141 -122c-82 0 -144 42 -144 122c0 79 62 122 144 122c81 0 141 -43 141 -122zM496 744c0 34 -24 48 -55 48c-33 0 -56 -14 -56 -48c0 -33 23 -48 56 -48c31 0 55 15 55 48zM619 431c0 -22 -3 -46 -8 -71l-64 -360h-158l6 37
c-42 -25 -109 -52 -184 -52c-100 0 -145 48 -145 127c0 18 1 33 7 71c24 148 149 158 306 158h54l6 31c2 15 4 28 4 37c0 38 -22 47 -94 47c-21 0 -43 0 -64 -1l-17 -45h-112l25 140c33 12 129 35 225 35c149 0 213 -49 213 -154zM424 251h-59c-79 0 -114 -9 -126 -74
c-5 -30 -5 -35 -5 -42c0 -29 19 -39 55 -39c45 0 92 18 112 28z" />
    <glyph glyph-name="atilde.alt" horiz-adv-x="609" 
d="M619 431c0 -22 -3 -46 -8 -71l-64 -360h-158l6 37c-42 -25 -109 -52 -184 -52c-100 0 -145 48 -145 127c0 18 1 33 7 71c24 148 149 158 306 158h54l6 31c2 15 4 28 4 37c0 38 -22 47 -94 47c-21 0 -43 0 -64 -1l-17 -45h-112l25 140c33 12 129 35 225 35
c149 0 213 -49 213 -154zM424 251h-59c-79 0 -114 -9 -126 -74c-5 -30 -5 -35 -5 -42c0 -29 19 -39 55 -39c45 0 92 18 112 28zM682 790c-11 -128 -75 -163 -138 -163c-36 0 -70 9 -108 31l-43 25c-20 13 -33 21 -49 21c-26 0 -37 -18 -45 -72h-98c13 131 77 163 145 163
c36 0 62 -8 99 -29l43 -26c20 -12 34 -21 53 -21c25 0 40 20 43 71h98z" />
    <glyph glyph-name="ccedilla.alt" horiz-adv-x="533" 
d="M492 7c-34 -8 -103 -22 -189 -22c-154 0 -217 77 -217 202c0 25 2 52 7 81l12 64c31 181 123 253 299 253c94 0 164 -15 186 -22l-27 -157h-108v44c-19 1 -33 2 -45 2c-71 0 -114 -23 -134 -135l-12 -63c-4 -23 -6 -41 -6 -57c0 -64 31 -79 95 -79c34 0 83 2 159 8z
M403 -63l-157 -140h-159l131 140h185z" />
    <glyph glyph-name="dotlessi.alt" horiz-adv-x="318" 
d="M246 0h-174l78 441l-45 5l20 124h220z" />
    <glyph glyph-name="iacute.alt" horiz-adv-x="318" 
d="M521 777l-192 -146h-163l157 146h198zM246 0h-174l78 441l-45 5l20 124h220z" />
    <glyph glyph-name="icircumflex.alt" horiz-adv-x="318" 
d="M504 631h-148l-71 82l-102 -82h-156l160 146h209zM246 0h-174l78 441l-45 5l20 124h220z" />
    <glyph glyph-name="idieresis.alt" horiz-adv-x="318" 
d="M495 772l-22 -127h-140l22 127h140zM241 772h-140l-22 -127h140zM246 0h-174l78 441l-45 5l20 124h220z" />
    <glyph glyph-name="igrave.alt" horiz-adv-x="318" 
d="M366 631h-161l-141 146h196zM246 0h-174l78 441l-45 5l20 124h220z" />
    <glyph glyph-name="lslash.alt" horiz-adv-x="317" 
d="M245 0h-174l46 266l-89 -68l24 132l89 68l44 253l-45 5l22 123h220l-40 -228l89 68l-24 -132l-89 -68z" />
    <glyph glyph-name="ntilde.alt" horiz-adv-x="671" 
d="M607 0h-175l63 359c3 18 5 32 5 44c0 35 -16 50 -57 50c-35 0 -80 -11 -126 -34l-74 -419h-175l78 441l-45 5l21 124h210l-7 -44c63 39 132 59 193 59c125 0 159 -63 159 -145c0 -30 -5 -63 -11 -95zM698 791c-11 -128 -75 -163 -138 -163c-36 0 -70 9 -108 31l-43 25
c-20 13 -33 21 -49 21c-26 0 -37 -18 -45 -72h-98c13 131 77 163 145 163c36 0 62 -8 99 -29l43 -26c20 -12 34 -21 53 -21c25 0 40 20 43 71h98z" />
    <glyph glyph-name="scaron.alt" horiz-adv-x="543" 
d="M172 777h148l72 -82l101 82h157l-160 -146h-208zM373 585c86 0 169 -11 213 -23l-23 -137h-113l-2 41c-26 2 -48 2 -71 2c-41 0 -92 -2 -92 -52c0 -23 17 -34 64 -53l48 -20c99 -40 140 -79 140 -160c0 -148 -123 -197 -285 -197c-80 0 -170 13 -200 22l18 105
c43 -4 108 -11 192 -11c52 0 101 9 101 59c0 30 -16 39 -75 64l-42 18c-87 36 -134 80 -134 163c0 151 129 179 261 179z" />
    <glyph glyph-name="uacute.alt" 
d="M699 777l-192 -146h-163l157 146h198zM530 570h174l-100 -570h-164l7 46c-61 -35 -129 -61 -206 -61c-116 0 -145 68 -145 146c0 29 4 58 8 85l41 225l-46 6l21 123h220l-63 -361c-3 -20 -5 -35 -5 -48c0 -33 15 -44 52 -44c36 0 82 12 131 31z" />
    <glyph glyph-name="ucircumflex.alt" 
d="M530 570h174l-100 -570h-164l7 46c-61 -35 -129 -61 -206 -61c-116 0 -145 68 -145 146c0 29 4 58 8 85l41 225l-46 6l21 123h220l-63 -361c-3 -20 -5 -35 -5 -48c0 -33 15 -44 52 -44c36 0 82 12 131 31zM683 631h-148l-71 82l-102 -82h-156l160 146h209z" />
    <glyph glyph-name="udieresis.alt" 
d="M530 570h174l-100 -570h-164l7 46c-61 -35 -129 -61 -206 -61c-116 0 -145 68 -145 146c0 29 4 58 8 85l41 225l-46 6l21 123h220l-63 -361c-3 -20 -5 -35 -5 -48c0 -33 15 -44 52 -44c36 0 82 12 131 31zM668 772l-22 -127h-140l22 127h140zM414 772h-140l-22 -127h140z
" />
    <glyph glyph-name="ugrave.alt" 
d="M555 631h-161l-141 146h196zM530 570h174l-100 -570h-164l7 46c-61 -35 -129 -61 -206 -61c-116 0 -145 68 -145 146c0 29 4 58 8 85l41 225l-46 6l21 123h220l-63 -361c-3 -20 -5 -35 -5 -48c0 -33 15 -44 52 -44c36 0 82 12 131 31z" />
    <glyph glyph-name="f_f.alt" horiz-adv-x="835" 
d="M942 778l-17 -98c-27 1 -56 3 -81 3c-48 0 -56 -18 -65 -68l-9 -45h133l-21 -124h-133l-105 -594h-175l106 594h-203l-105 -594h-174l105 594l-93 11l19 113h95l8 47c20 115 78 178 205 178c52 0 105 -9 133 -17l-17 -98c-27 1 -57 3 -82 3c-47 0 -55 -19 -64 -68l-9 -45
h203l8 47c20 115 78 178 205 178c52 0 104 -9 133 -17z" />
    <glyph glyph-name="f_f.alt2" horiz-adv-x="835" 
d="M671 0h-174l79 446h-203l-79 -446h-174l78 446l-92 10l18 114h95l9 47c20 115 77 178 205 178c51 0 105 -9 133 -17l-17 -98c-27 1 -57 3 -82 3c-48 0 -56 -19 -65 -68l-9 -45h204l8 47c20 115 78 178 205 178c51 0 104 -9 133 -17l-17 -98c-27 1 -57 3 -82 3
c-48 0 -56 -18 -65 -68l-9 -45h133l-20 -124h-133z" />
    <glyph glyph-name="f_i.alt2" horiz-adv-x="742" 
d="M294 0h-174l78 446l-93 10l19 114h95l9 47c20 119 77 178 204 178c51 0 105 -9 133 -17l-17 -98c-26 1 -56 3 -81 3c-48 0 -57 -18 -65 -68l-9 -45h377l-100 -570h-174l79 446h-203zM787 648h-181l23 131h182z" />
    <glyph glyph-name="f_l.alt2" horiz-adv-x="746" 
d="M294 0h-174l78 446l-93 10l19 114h95l9 45c25 143 100 180 227 180c63 0 148 -11 181 -16h175l-137 -779h-174l120 678c-32 2 -88 5 -134 5c-52 0 -73 -8 -84 -68l-9 -45h133l-21 -124h-133z" />
    <glyph glyph-name="f_f_i.alt2" horiz-adv-x="1118" 
d="M1046 0h-174l78 446h-201l-79 -446h-173l78 446h-202l-79 -446h-174l78 446l-92 10l18 114h95l9 47c20 117 77 178 205 178c51 0 105 -9 133 -17l-17 -98c-27 1 -57 3 -82 3c-47 0 -56 -18 -65 -68l-9 -45h203l9 47c20 117 76 178 203 178c52 0 105 -9 134 -17l-17 -98
c-26 1 -57 3 -81 3c-48 0 -57 -18 -66 -68l-8 -45h375zM1164 648h-182l23 131h182z" />
    <glyph glyph-name="f_f_l.alt2" horiz-adv-x="1121" 
d="M1050 0h-175l120 678c-31 2 -86 5 -132 5c-54 0 -73 -8 -85 -68l-8 -45h132l-20 -124h-133l-79 -446h-174l79 446h-202l-79 -446h-174l78 446l-92 10l18 114h95l9 47c20 117 78 178 205 178c51 0 105 -9 133 -17l-17 -98c-27 1 -57 3 -82 3c-48 0 -56 -18 -65 -68l-9 -45
h202l9 45c26 148 101 180 228 180c61 0 146 -11 180 -16h174z" />
    <glyph glyph-name="yacute.alt" 
d="M710 777l-192 -146h-163l157 146h198zM602 -15c-22 -127 -96 -201 -300 -201c-114 0 -217 19 -236 23l17 105c64 -4 153 -9 221 -9c98 0 113 25 123 82l4 19c-20 -3 -61 -7 -92 -7c-153 0 -232 66 -232 200c0 23 3 49 8 77l52 296h172l-54 -309c-4 -22 -5 -39 -5 -55
c0 -58 29 -79 94 -79c30 0 67 4 80 6l78 437h172z" />
    <glyph glyph-name="ydieresis.alt" 
d="M602 -15c-22 -127 -96 -201 -300 -201c-114 0 -217 19 -236 23l17 105c64 -4 153 -9 221 -9c98 0 113 25 123 82l4 19c-20 -3 -61 -7 -92 -7c-153 0 -232 66 -232 200c0 23 3 49 8 77l52 296h172l-54 -309c-4 -22 -5 -39 -5 -55c0 -58 29 -79 94 -79c30 0 67 4 80 6
l78 437h172zM675 773l-22 -127h-140l22 127h140zM421 773h-140l-22 -127h140z" />
    <glyph glyph-name="zcaron.alt" horiz-adv-x="548" 
d="M180 777h148l72 -82l101 82h157l-160 -146h-208zM526 124l-21 -124h-465l21 129l326 316h-152l-15 -39h-99l27 164h456l-22 -130l-324 -316h268z" />
    <glyph glyph-name="two.alt" horiz-adv-x="651" 
d="M612 138l-23 -138h-537l16 92c31 183 101 245 282 334c80 39 163 72 163 149c0 39 -32 52 -122 52c-25 0 -61 -2 -98 -4l-20 -61h-112l29 166c71 20 176 31 254 31c180 0 262 -57 262 -162c0 -146 -123 -210 -252 -270c-154 -71 -179 -96 -194 -180l-2 -9h354z" />
    <glyph glyph-name="three.alt" horiz-adv-x="652" 
d="M704 592c0 -22 -3 -45 -9 -74c-13 -61 -50 -111 -114 -142c47 -25 64 -69 64 -112c0 -25 -1 -46 -8 -77c-31 -159 -163 -204 -335 -204c-97 0 -201 19 -241 34l20 113c49 -5 142 -13 225 -13c88 0 132 15 147 96c5 28 7 38 7 48c0 37 -22 56 -98 56h-202l21 123h203
c94 0 118 36 126 90c2 14 4 26 4 42c0 41 -31 54 -117 54c-36 0 -71 -2 -105 -4l-19 -60h-113l29 166c37 12 153 31 250 31c168 0 265 -47 265 -167z" />
    <glyph glyph-name="five.alt" horiz-adv-x="641" 
d="M699 743l-32 -184h-111l1 49h-211l-40 -147h70c193 0 263 -58 263 -166c0 -23 -2 -45 -10 -89c-30 -173 -155 -223 -340 -223c-111 0 -205 19 -241 29l19 117c46 -5 125 -14 206 -14c111 0 153 24 168 103c6 31 6 42 6 51c0 48 -31 65 -130 65h-204l106 409h480z" />
    <glyph glyph-name="six.alt" horiz-adv-x="688" 
d="M677 214c-35 -189 -176 -231 -333 -231c-165 0 -253 67 -253 218c0 33 4 68 11 106l29 165c33 189 108 287 357 287c103 0 205 -18 243 -28l-29 -168h-112l2 59c-33 3 -68 4 -105 4c-130 0 -152 -47 -169 -142l-5 -26c37 9 98 15 135 15c145 0 241 -40 241 -172
c0 -17 -4 -45 -12 -87zM494 229c9 46 11 60 11 71c0 49 -35 59 -95 59c-28 0 -75 -3 -115 -12l-16 -86c-5 -29 -8 -52 -8 -71c0 -63 33 -80 95 -80c70 0 113 33 128 119z" />
    <glyph glyph-name="seven.alt" horiz-adv-x="650" 
d="M716 595l-432 -595h-198l449 608h-253l-17 -53h-112l33 188h556z" />
    <glyph glyph-name="f_i.alt" horiz-adv-x="745" 
d="M769 570l-100 -570h-174l79 446h-202l-104 -594h-175l105 594l-93 10l19 114h95l8 47c21 118 77 178 205 178c52 0 104 -9 133 -17l-17 -98c-27 1 -56 3 -81 3c-48 0 -56 -18 -65 -68l-9 -45h376zM811 779h-182l-23 -131h182z" />
    <glyph glyph-name="f_l.alt" horiz-adv-x="750" 
d="M811 779l-137 -779h-175l121 678c-31 2 -87 5 -133 5c-53 0 -74 -8 -85 -68l-9 -45h133l-20 -124h-133l-107 -594h-174l106 594l-92 11l18 113h95l9 45c28 142 100 180 228 180c62 0 147 -11 181 -16h174z" />
    <glyph glyph-name="dotlessj" horiz-adv-x="318" 
d="M346 570l-107 -605c-24 -139 -84 -183 -215 -183c-40 0 -80 4 -96 8l19 111c19 -1 36 -1 55 -1c44 0 53 14 63 65l106 605h175z" />
    <glyph glyph-name="zero.tab" horiz-adv-x="718" 
d="M746 506c0 -33 -3 -68 -26 -196c-39 -221 -149 -327 -354 -327c-180 0 -258 96 -258 251c0 37 4 71 25 198c37 221 154 327 355 327c183 0 258 -95 258 -253zM562 522c0 73 -35 97 -90 97c-72 0 -125 -41 -155 -215c-22 -126 -26 -159 -26 -188c0 -68 33 -93 91 -93
c76 0 123 41 154 215c22 126 26 160 26 184z" />
    <glyph glyph-name="one.tab" horiz-adv-x="718" 
d="M635 0h-531l21 127l174 7l82 451l-181 -43l22 133l238 71h134l-109 -612l171 -7z" />
    <glyph glyph-name="two.tab" horiz-adv-x="718" 
d="M620 0h-537l16 92c31 183 101 250 282 338c83 40 163 78 163 143c0 41 -32 54 -122 54c-71 0 -169 -6 -216 -12l19 113c72 20 172 31 250 31c183 0 262 -57 262 -162c0 -146 -123 -220 -252 -279c-154 -71 -179 -87 -194 -171l-2 -9h354z" />
    <glyph glyph-name="three.tab" horiz-adv-x="718" 
d="M676 260c0 -219 -149 -277 -342 -277c-97 0 -201 19 -241 34l20 113c49 -5 142 -13 225 -13c85 0 132 15 147 96c5 28 7 38 7 48c0 37 -24 56 -98 56h-202l21 123h203c110 0 130 57 130 128c0 45 -31 58 -117 58c-84 0 -165 -6 -227 -12l19 114c37 12 153 31 250 31
c172 0 264 -47 264 -169c0 -89 -34 -171 -122 -214c47 -25 63 -72 63 -116z" />
    <glyph glyph-name="four.tab" horiz-adv-x="718" 
d="M700 169h-98l-30 -169h-187l30 169h-341l22 128l448 446h159l-80 -446h99zM445 297l47 248l-248 -248h201z" />
    <glyph glyph-name="five.tab" horiz-adv-x="718" 
d="M740 743l-23 -135h-330l-40 -147h70c195 0 263 -58 263 -166c0 -23 -3 -45 -10 -89c-29 -173 -155 -223 -340 -223c-111 0 -205 19 -241 29l19 117c46 -5 125 -14 206 -14c111 0 153 24 168 103c6 31 6 42 6 51c0 48 -31 65 -130 65h-204l106 409h480z" />
    <glyph glyph-name="seven.tab" horiz-adv-x="718" 
d="M750 595l-432 -595h-198l449 608h-372l23 135h556z" />
    <glyph glyph-name="six.tab" horiz-adv-x="718" 
d="M690 214c-35 -189 -176 -231 -333 -231c-165 0 -253 67 -253 218c0 33 4 68 11 106l29 165c33 189 108 287 357 287c103 0 205 -18 243 -28l-20 -117c-70 6 -139 12 -224 12c-131 0 -151 -47 -169 -142l-5 -26c37 9 98 15 135 15c141 0 241 -40 241 -172
c0 -17 -4 -45 -12 -87zM507 229c9 46 11 60 11 71c0 49 -35 59 -95 59c-28 0 -75 -3 -115 -12l-16 -86c-6 -29 -8 -52 -8 -71c0 -63 33 -80 95 -80c70 0 113 33 128 119z" />
    <glyph glyph-name="eight.tab" horiz-adv-x="718" 
d="M762 588c0 -85 -35 -159 -113 -205c38 -28 58 -81 58 -132c0 -235 -204 -268 -317 -268c-136 0 -306 7 -306 180c0 117 46 183 117 220c-34 26 -54 69 -54 125c0 206 140 251 342 251c146 0 273 -26 273 -171zM524 267c0 41 -19 59 -66 59h-85c-61 0 -86 -30 -99 -106
c-3 -19 -5 -33 -5 -44c0 -59 41 -70 104 -70h6c73 0 120 17 139 112c4 22 6 37 6 49zM575 574c0 50 -40 62 -103 62h-5c-82 0 -139 -28 -139 -137c0 -36 16 -57 64 -57h85c72 0 98 53 98 132z" />
    <glyph glyph-name="nine.tab" horiz-adv-x="718" 
d="M148 528c35 189 176 231 333 231c165 0 253 -67 253 -218c0 -33 -4 -68 -11 -106l-29 -165c-33 -189 -108 -287 -357 -287c-103 0 -205 18 -243 28l20 117c70 -6 139 -12 224 -12c131 0 151 47 169 142l5 26c-37 -9 -98 -15 -135 -15c-141 0 -241 40 -241 172
c0 17 4 45 12 87zM331 513c-9 -46 -11 -60 -11 -71c0 -49 35 -59 95 -59c28 0 75 3 115 12l16 86c6 29 8 52 8 71c0 63 -33 80 -95 80c-70 0 -113 -33 -128 -119z" />
    <glyph glyph-name="uni2215" unicode="&#x2215;" horiz-adv-x="556" 
d="M731 745l-627 -745h-147l627 745h147z" />
    <glyph glyph-name="dieresisacute" horiz-adv-x="625" 
d="M754 773l-23 -127h-129l22 127h130zM408 787h187l-160 -156h-153zM273 773l-22 -127h-130l22 127h130z" />
    <glyph glyph-name="middot" horiz-adv-x="303" 
d="M284 286h-165l29 165h165z" />
    <glyph glyph-name="dieresisgrave" horiz-adv-x="625" 
d="M754 773l-23 -127h-130l22 127h131zM492 787l71 -157h-151l-105 157h185zM273 773l-22 -127h-130l22 127h130z" />
    <glyph glyph-name="threequartersemdash" horiz-adv-x="750" 
d="M732 225h-635l19 112h636z" />
    <glyph glyph-name="overscore" horiz-adv-x="647" 
d="M781 817h-628l15 90h627z" />
    <glyph glyph-name="franc.taboldstyle" horiz-adv-x="652" 
d="M314 0h-186l17 99h-52l14 85h53l75 427h448l-23 -133h-262l-20 -106h255l-21 -124h-254l-12 -64h128l-15 -85h-128z" />
    <glyph glyph-name="lira.taboldstyle" horiz-adv-x="629" 
d="M654 600l-19 -119c-51 5 -91 8 -139 8c-89 0 -104 -20 -117 -88l-3 -17h161l-12 -68h-161l-9 -54h161l-12 -67h-160l-2 -11c-5 -23 -15 -43 -29 -59h257l-21 -125h-449l17 101c32 26 47 50 53 84l1 10h-60l12 67h61l9 54h-61l12 68h61l3 16c27 158 100 216 264 216
c65 0 128 -5 182 -16z" />
    <glyph glyph-name="currency.taboldstyle" horiz-adv-x="656" 
d="M681 112l-79 -76l-80 79c-37 -21 -78 -32 -119 -32s-82 10 -119 32l-84 -80l-77 75l83 81c-22 35 -33 76 -33 116s10 79 33 114l-84 82l78 74l83 -80c37 22 79 33 120 33c42 0 83 -10 120 -32l80 78l78 -76l-82 -79c22 -35 35 -75 35 -115s-12 -80 -34 -116zM529 307
c0 75 -57 122 -126 122s-126 -47 -126 -122s58 -123 126 -123c67 0 126 48 126 123z" />
    <glyph glyph-name="peseta.taboldstyle" horiz-adv-x="679" 
d="M733 459l-18 -106h-57c-43 -122 -156 -157 -302 -157c-22 0 -45 1 -69 3l-35 -199h-170l61 353h-55l18 106h55l26 144c74 8 155 12 219 12c154 0 263 -34 267 -156h60zM502 432c0 43 -36 53 -100 53c-19 0 -53 -2 -65 -3l-28 -152c13 -1 44 -2 63 -2c79 0 129 24 130 104
z" />
    <glyph glyph-name="commaaccent.alt" horiz-adv-x="491" 
d="M517 780l-93 -141h-180l121 141h152z" />
    <glyph glyph-name="undercommaaccent" horiz-adv-x="495" 
d="M347 -63l-123 -140h-153l95 140h181z" />
    <glyph glyph-name="DieresisAcute" horiz-adv-x="625" 
d="M280 807h-130l21 127h130zM311 791l126 156h187l-160 -156h-153zM760 807h-129l21 127h130z" />
    <glyph glyph-name="DieresisGrave" horiz-adv-x="625" 
d="M782 934l-22 -127h-130l22 127h130zM522 947l70 -156h-151l-105 156h186zM301 934l-21 -127h-130l21 127h130z" />
    <glyph glyph-name="dblGrave" horiz-adv-x="621" 
d="M683 631h-147l-141 146h183zM300 777l106 -146h-147l-141 146h182z" />
    <glyph glyph-name="dblgrave" horiz-adv-x="621" 
d="M683 631h-147l-141 146h183zM300 777l106 -146h-147l-141 146h182z" />
    <glyph glyph-name="T_h.caron" horiz-adv-x="1213" 
d="M584 788h-209l-108 146h150l71 -82l102 82h155zM1146 0h-174l63 359c2 17 4 31 4 43c0 39 -18 51 -62 51s-91 -14 -119 -26l-75 -427h-175l108 606h-179l-108 -606h-187l107 606h-215l23 137h757l-36 -198c47 22 114 40 177 40c122 0 161 -60 161 -149
c0 -28 -4 -58 -9 -88z" />
    <glyph glyph-name="T_h.commaaccent" horiz-adv-x="1213" 
d="M419 -63l-121 -140h-152l93 140h180zM1146 0h-174l63 359c2 17 4 31 4 43c0 39 -18 51 -62 51s-91 -14 -119 -26l-75 -427h-175l108 606h-179l-108 -606h-187l107 606h-215l23 137h757l-36 -198c47 22 114 40 177 40c122 0 161 -60 161 -149c0 -28 -4 -58 -9 -88z" />
    <glyph glyph-name="i.dot" horiz-adv-x="318" 
d="M345 570l-99 -570h-174l99 570h174zM386 779l-23 -131h-180l23 131h180z" />
    <glyph glyph-name="Amacron.alt" horiz-adv-x="748" 
d="M19 0l283 611l-49 5l22 127h372l78 -743h-193l-19 187h-211l-88 -187h-195zM510 321l-18 197c-4 36 -4 76 -3 114h-7c-13 -38 -28 -78 -44 -114l-88 -197h160zM709 808h-408l16 100h409z" />
    <glyph glyph-name="Abreve.alt" horiz-adv-x="748" 
d="M19 0l283 611l-49 5l22 127h372l78 -743h-193l-19 187h-211l-88 -187h-195zM510 321l-18 197c-4 36 -4 76 -3 114h-7c-13 -38 -28 -78 -44 -114l-88 -197h160zM735 943c-32 -111 -112 -159 -226 -159c-89 0 -191 32 -189 159h101c1 -53 32 -76 93 -76c56 0 101 17 120 76
h101z" />
    <glyph glyph-name="Aringacute.alt" horiz-adv-x="748" 
d="M659 882c0 -80 -60 -122 -141 -122c-82 0 -144 42 -144 122c0 79 62 122 144 122c81 0 141 -43 141 -122zM573 882c0 34 -24 48 -55 48c-33 0 -56 -14 -56 -48c0 -33 23 -48 56 -48c31 0 55 15 55 48zM19 0l283 611l-49 5l22 127h372l78 -743h-193l-19 187h-211l-88 -187
h-195zM510 321l-18 197c-4 36 -4 76 -3 114h-7c-13 -38 -28 -78 -44 -114l-88 -197h160zM814 1163l-192 -146h-163l157 146h198z" />
    </font>
</defs>
</svg>
