<?xml version="1.0" standalone="no"?>
<!DOCTYPE svg PUBLIC "-//W3C//DTD SVG 1.1//EN" "http://www.w3.org/Graphics/SVG/1.1/DTD/svg11.dtd" >
<svg xmlns="http://www.w3.org/2000/svg" xmlns:xlink="http://www.w3.org/1999/xlink" version="1.1">
<metadata>
Created by FontForge 20141024 at Thu Apr 30 19:13:23 2015
 By System Administrator
Copyright (c) 2007 Monotype Imaging Inc. Soho is designed by Sebastian Lester. All rights reserved.
</metadata>
<defs>
<font id="SohoGothicPro-MediumItalic" horiz-adv-x="616" >
  <font-face 
    font-family="Soho Gothic Pro"
    font-weight="500"
    font-style="italic"
    font-stretch="normal"
    units-per-em="1000"
    panose-1="2 11 6 3 3 5 4 9 2 4"
    ascent="787"
    descent="-213"
    x-height="562"
    cap-height="743"
    bbox="-81 -296 1407 1155"
    underline-thickness="50"
    underline-position="-50"
    slope="-12"
    stemh="111"
    stemv="132"
    unicode-range="U+0020-FE6A"
  />
<missing-glyph horiz-adv-x="500" 
d="M12 0v665h475v-665h-475zM88 618l162 -243l161 243h-323zM60 575v-484c0 -1 161 242 161 242zM440 575l-162 -242l162 -243v485zM411 48l-161 242l-162 -242h323z" />
    <glyph glyph-name="f_i" unicode="fi" horiz-adv-x="683" 
d="M702 562l-99 -562h-132l82 458h-219l-89 -505c-23 -130 -74 -172 -192 -172c-32 0 -68 3 -80 7l16 92c15 -1 34 -1 56 -1c46 0 58 17 68 74l89 505l-97 10l15 94h99l10 55c19 107 60 175 189 175c47 0 96 -9 118 -16l-14 -83c-21 1 -57 4 -88 4c-53 0 -60 -24 -72 -82
l-11 -53h351zM606 777h138l-23 -127h-137z" />
    <glyph glyph-name="f_l" unicode="fl" horiz-adv-x="690" 
d="M747 777l-137 -777h-133l124 691c-27 2 -90 6 -140 6c-61 0 -86 -10 -99 -82l-10 -53h144l-16 -104h-145l-90 -505c-23 -130 -74 -172 -192 -172c-33 0 -69 3 -80 7l15 92c15 -1 35 -1 57 -1c46 0 57 17 67 74l91 505l-97 10l14 94h100l10 53c26 138 92 177 216 177
c73 0 139 -11 169 -15h132z" />
    <glyph glyph-name="f_f" unicode="ff" horiz-adv-x="781" 
d="M888 776l-14 -83c-21 1 -58 4 -88 4c-54 0 -62 -24 -73 -82l-10 -53h144l-16 -104h-145l-90 -505c-23 -130 -74 -172 -192 -172c-32 0 -68 3 -80 7l16 92c15 -1 34 -1 56 -1c46 0 58 17 68 74l90 505h-219l-90 -505c-23 -130 -74 -172 -192 -172c-32 0 -68 3 -80 7l15 92
c16 -1 35 -1 57 -1c46 0 58 17 68 74l90 505l-97 10l14 94h100l10 55c18 102 59 175 189 175c47 0 96 -9 118 -16l-14 -83c-21 1 -58 4 -89 4c-53 0 -61 -25 -72 -82l-10 -53h219l10 55c18 102 59 175 189 175c47 0 96 -9 118 -16z" />
    <glyph glyph-name="f_f_i" unicode="ffi" horiz-adv-x="1034" 
d="M1052 562l-98 -562h-133l82 458h-217l-90 -505c-23 -130 -74 -172 -192 -172c-33 0 -69 3 -80 7l15 92c15 -1 35 -1 57 -1c46 0 57 17 67 74l91 505h-219l-90 -505c-23 -130 -74 -172 -192 -172c-32 0 -68 3 -80 7l16 92c15 -1 34 -1 56 -1c46 0 58 17 68 74l90 505
l-97 10l14 94h100l10 55c18 104 60 175 189 175c47 0 96 -9 118 -16l-14 -83c-21 1 -58 4 -89 4c-53 0 -61 -24 -72 -82l-10 -53h218l11 55c21 103 59 175 188 175c47 0 96 -9 118 -16l-13 -83c-21 1 -58 4 -88 4c-54 0 -63 -24 -73 -82l-10 -53h349zM957 777h136l-22 -127
h-137z" />
    <glyph glyph-name="f_f_l" unicode="ffl" horiz-adv-x="1039" 
d="M1096 777l-137 -777h-133l124 691c-27 2 -88 6 -140 6c-60 0 -84 -10 -97 -82l-10 -53h144l-17 -104h-144l-91 -505c-24 -130 -74 -172 -192 -172c-33 0 -69 3 -80 7l15 92c15 -1 35 -1 57 -1c46 0 57 17 67 74l92 505h-219l-90 -505c-23 -130 -74 -172 -192 -172
c-32 0 -68 3 -80 7l16 92c15 -1 34 -1 56 -1c46 0 58 17 68 74l90 505l-97 10l14 94h100l10 55c19 104 59 175 189 175c47 0 96 -9 118 -16l-14 -83c-21 1 -58 4 -89 4c-53 0 -61 -24 -72 -82l-10 -53h218l11 53c28 137 94 177 215 177c52 0 138 -11 168 -15h132z" />
    <glyph glyph-name="f_b" unicode="fb" horiz-adv-x="1016" 
d="M697 -15c-72 0 -119 4 -224 15l122 690c-37 3 -85 6 -138 6c-58 0 -82 -9 -95 -81l-10 -53h144l-17 -104h-144l-90 -505c-23 -130 -74 -172 -192 -172c-32 0 -68 3 -80 7l16 92c15 -1 34 -1 56 -1c46 0 58 17 68 74l90 505l-98 10l15 94h100l12 61c26 135 91 169 212 169
c60 0 127 -8 165 -15h132l-40 -227c47 20 97 28 138 28c129 0 191 -61 191 -180c0 -24 -3 -50 -8 -79l-15 -80c-35 -188 -130 -254 -310 -254zM683 445l-62 -344c21 -2 55 -4 96 -4c100 0 139 34 160 153l14 79c4 23 7 43 7 59c0 57 -29 79 -95 79c-25 0 -81 -4 -120 -22z
" />
    <glyph glyph-name="f_f_b" unicode="ffb" horiz-adv-x="1370" 
d="M1051 -15c-72 0 -129 5 -224 15l122 691c-38 3 -86 5 -139 5c-57 0 -81 -9 -94 -81l-10 -53h144l-17 -104h-144l-91 -505c-24 -130 -74 -172 -192 -172c-33 0 -69 3 -80 7l15 92c15 -1 35 -1 57 -1c46 0 57 17 67 74l92 505h-223l-90 -505c-23 -130 -73 -172 -191 -172
c-33 0 -69 3 -81 7l16 92c15 -1 35 -1 56 -1c46 0 59 17 69 74l90 505l-98 9l14 95h101l10 55c21 118 57 175 188 175c47 0 89 -8 119 -16l-14 -83c-29 1 -58 4 -87 4c-55 0 -62 -24 -74 -82l-11 -53h222l12 62c26 134 93 168 212 168c61 0 133 -9 166 -15h132l-41 -227
c45 20 95 28 138 28c129 0 191 -61 191 -179c0 -25 -3 -51 -8 -80l-15 -80c-35 -188 -129 -254 -309 -254zM1037 445l-62 -344c21 -2 55 -4 96 -4c99 0 139 34 160 153l14 79c4 23 6 43 6 59c0 58 -28 79 -94 79c-25 0 -82 -4 -120 -22z" />
    <glyph glyph-name="f_f_h" unicode="ffh" horiz-adv-x="1387" 
d="M1384 435c-1 -21 -3 -48 -10 -91l-60 -344h-132l62 355c3 19 5 35 5 49c0 48 -23 63 -74 63c-53 0 -110 -18 -143 -32l-77 -435h-133l124 691c-30 3 -84 6 -135 6c-60 0 -85 -10 -98 -82l-10 -53h144l-17 -104h-144l-90 -505c-23 -130 -74 -172 -192 -172
c-33 0 -69 3 -80 7l15 92c15 -1 35 -1 57 -1c46 0 57 17 67 74l91 505h-219l-90 -505c-23 -130 -74 -172 -192 -172c-32 0 -68 3 -80 7l16 92c15 -1 34 -1 56 -1c46 0 58 17 68 74l90 505l-98 10l15 94h100l10 55c18 102 57 175 188 175c48 0 97 -9 119 -16l-14 -83
c-21 1 -59 4 -89 4c-53 0 -61 -24 -72 -82l-10 -53h218l11 53c28 137 96 177 217 177c61 0 131 -10 162 -15h132l-43 -243c42 21 110 42 181 42c117 0 154 -56 154 -141z" />
    <glyph glyph-name="f_f_k" unicode="ffk" horiz-adv-x="1321" 
d="M1407 562l-265 -269l168 -293h-149l-157 276l-49 -276h-133l123 691c-28 3 -83 6 -134 6c-60 0 -85 -10 -98 -82l-10 -53h144l-17 -104h-144l-90 -505c-23 -130 -74 -172 -192 -172c-32 0 -68 3 -80 7l16 92c15 -1 34 -1 56 -1c46 0 58 17 68 74l90 505h-219l-90 -505
c-23 -130 -74 -172 -192 -172c-32 0 -68 3 -80 7l16 92c15 -1 34 -1 56 -1c46 0 58 17 68 74l90 505l-97 10l14 94h100l10 55c18 102 59 175 189 175c47 0 96 -9 118 -16l-14 -83c-21 1 -58 4 -89 4c-53 0 -61 -24 -72 -82l-10 -53h218l10 53c26 137 97 177 218 177
c63 0 131 -10 162 -15h132l-82 -461l237 246h160z" />
    <glyph glyph-name="f_h" unicode="fh" horiz-adv-x="1036" 
d="M1033 435c0 -21 -3 -48 -10 -91l-60 -344h-132l62 355c3 20 5 35 5 49c0 48 -23 63 -73 63c-53 0 -110 -18 -143 -32l-78 -435h-132l123 691c-28 2 -84 6 -134 6c-61 0 -86 -10 -99 -82l-10 -53h144l-17 -104h-144l-90 -505c-23 -130 -74 -172 -192 -172
c-32 0 -68 3 -80 7l16 92c15 -1 34 -1 56 -1c46 0 58 17 68 74l90 505l-98 10l15 94h100l10 53c26 138 94 177 218 177c62 0 130 -10 161 -15h132l-43 -243c42 21 111 42 182 42c116 0 153 -55 153 -141z" />
    <glyph glyph-name="f_j" unicode="fj" horiz-adv-x="681" 
d="M704 562l-107 -609c-22 -126 -73 -172 -188 -172c-38 0 -74 6 -84 9l15 91c15 -1 35 -2 57 -2c46 0 58 17 68 74l90 505h-220l-90 -505c-23 -130 -74 -172 -192 -172c-33 0 -69 3 -80 7l15 92c15 -1 35 -1 57 -1c46 0 57 17 67 74l91 505l-98 10l15 94h100l10 55
c21 115 59 175 188 175c48 0 97 -9 119 -16l-14 -83c-21 1 -59 4 -89 4c-53 0 -61 -24 -72 -82l-10 -53h352zM608 777h137l-23 -127h-137z" />
    <glyph glyph-name="f_f_j" unicode="ffj" horiz-adv-x="1032" 
d="M1055 562l-107 -609c-22 -126 -73 -172 -188 -172c-38 0 -74 6 -83 9l14 91c15 -1 35 -2 58 -2c45 0 57 17 67 74l91 505h-221l-91 -505c-24 -130 -74 -172 -192 -172c-32 0 -68 3 -80 7l16 92c15 -1 34 -1 56 -1c46 0 58 17 68 74l91 505h-219l-90 -505
c-23 -130 -74 -172 -192 -172c-32 0 -68 3 -80 7l15 92c16 -1 35 -1 57 -1c46 0 58 17 68 74l90 505l-98 10l15 94h100l10 55c20 112 59 175 188 175c48 0 97 -9 119 -16l-14 -83c-21 1 -58 4 -88 4c-54 0 -63 -26 -73 -82l-10 -53h219l10 55c21 115 59 175 189 175
c46 0 96 -9 118 -16l-14 -83c-21 1 -58 4 -89 4c-52 0 -59 -24 -71 -82l-11 -53h352zM959 777h137l-23 -127h-136z" />
    <glyph glyph-name="f_k" unicode="fk" horiz-adv-x="970" 
d="M1056 562l-265 -269l169 -293h-150l-156 276l-49 -276h-133l123 691c-29 3 -84 6 -134 6c-61 0 -86 -10 -99 -82l-10 -53h144l-16 -104h-145l-90 -505c-23 -130 -74 -172 -192 -172c-32 0 -68 3 -80 7l15 92c16 -1 35 -1 57 -1c46 0 58 17 68 74l90 505l-97 10l14 94h100
l10 53c26 138 94 177 218 177c63 0 130 -10 161 -15h132l-81 -461l237 246h159z" />
    <glyph glyph-name=".notdef" horiz-adv-x="500" 
d="M12 0v665h475v-665h-475zM88 618l162 -243l161 243h-323zM60 575v-484c0 -1 161 242 161 242zM440 575l-162 -242l162 -243v485zM411 48l-161 242l-162 -242h323z" />
    <glyph glyph-name="space" unicode=" " horiz-adv-x="196" 
 />
    <glyph glyph-name="exclam" unicode="!" horiz-adv-x="290" 
d="M238 153l-25 -153h-136l26 153h135zM209 777h145l-113 -566h-119z" />
    <glyph glyph-name="quotedbl" unicode="&#x22;" horiz-adv-x="410" 
d="M110 512l69 254h122l-96 -254h-95zM524 766l-97 -254h-94l69 254h122z" />
    <glyph glyph-name="numbersign" unicode="#" horiz-adv-x="755" 
d="M713 186h-138l-53 -186h-112l52 186h-152l-53 -186h-112l53 186h-92l17 96h102l49 169h-121l16 96h131l58 196h112l-57 -196h151l59 196h112l-57 -196h97l-15 -96h-109l-49 -169h127zM539 451h-152l-50 -169h153z" />
    <glyph glyph-name="dollar" unicode="$" horiz-adv-x="646" 
d="M241 -124l19 111c-77 3 -149 13 -176 20l16 102c85 -6 120 -11 216 -11c79 0 159 24 159 120c0 35 -20 57 -77 83l-108 50c-83 38 -129 92 -129 183c0 145 97 201 234 218l19 107h116l-18 -104c76 -3 140 -14 167 -21l-17 -100c-67 7 -115 12 -204 12
c-82 0 -157 -17 -158 -100c0 -34 18 -56 76 -82l107 -48c93 -43 136 -96 136 -181c0 -149 -96 -226 -241 -244l-21 -115h-116z" />
    <glyph glyph-name="percent" unicode="%" horiz-adv-x="1111" 
d="M1108 306c-1 -27 -2 -52 -7 -79l-9 -47c-24 -124 -84 -191 -218 -191c-115 0 -158 65 -158 158c0 21 1 45 6 70l9 49c22 120 85 190 219 190c117 0 158 -61 158 -150zM1005 307c0 49 -23 65 -66 65c-59 0 -86 -31 -104 -124l-9 -47c-5 -28 -7 -49 -7 -64
c0 -48 22 -64 65 -64c56 0 87 28 105 124l9 48c5 27 7 46 7 62zM987 744l-617 -744h-118l616 744h119zM527 607c-1 -28 -2 -52 -7 -79l-9 -47c-24 -125 -84 -191 -218 -191c-115 0 -158 64 -158 158c0 21 2 44 7 70l9 48c23 121 83 191 218 191c117 0 158 -61 158 -150z
M424 608c0 49 -23 65 -66 65c-57 0 -87 -31 -104 -124l-9 -48c-5 -28 -7 -48 -7 -64c0 -47 22 -63 65 -63c57 0 87 27 105 123l9 48c5 27 7 47 7 63z" />
    <glyph glyph-name="ampersand" unicode="&#x26;" horiz-adv-x="778" 
d="M812 448l-13 -78l-52 -8c-10 -91 -42 -175 -98 -239l82 -94l-3 -29h-137l-40 44c-57 -35 -136 -59 -238 -59c-130 0 -233 49 -233 179c0 113 77 173 182 221l-6 8c-43 51 -73 101 -73 164c0 160 126 200 274 200c96 0 189 -14 224 -23l-16 -98c-48 4 -142 11 -218 11
s-129 -17 -129 -99c0 -37 22 -62 61 -108l201 -233c32 43 49 98 56 155l-50 8l13 78h213zM488 122l-159 179c-57 -28 -109 -65 -109 -131s52 -86 117 -86c62 0 112 15 151 38z" />
    <glyph glyph-name="quoteright" unicode="&#x2019;" horiz-adv-x="220" 
d="M336 777l-127 -245h-95l97 245h125z" />
    <glyph glyph-name="parenleft" unicode="(" horiz-adv-x="377" 
d="M300 -203h-116c-43 78 -86 197 -86 353c0 219 99 422 249 593h125c-143 -170 -247 -387 -247 -620c0 -129 30 -237 75 -326z" />
    <glyph glyph-name="parenright" unicode=")" horiz-adv-x="377" 
d="M172 743h116c42 -79 85 -198 85 -360c0 -210 -96 -417 -249 -586h-124c158 184 247 397 247 613c0 136 -30 243 -75 333z" />
    <glyph glyph-name="asterisk" unicode="*" horiz-adv-x="541" 
d="M563 586l-66 -20c-21 -7 -47 -15 -73 -17c20 -16 35 -37 49 -55l41 -53l-82 -61l-40 53c-14 19 -27 40 -39 63c-17 -27 -26 -47 -39 -63l-40 -53l-82 61l41 54c13 18 30 37 49 55c-26 4 -51 9 -73 16l-65 21l31 99l65 -20c22 -7 47 -17 69 -29c-3 25 -6 50 -6 73v66h101
v-66c0 -23 -3 -48 -8 -74c24 13 49 22 70 29l66 21z" />
    <glyph glyph-name="plus" unicode="+" horiz-adv-x="689" 
d="M679 334h-206v-203h-102v203h-208v108h208v202h102v-202h206v-108z" />
    <glyph glyph-name="comma" unicode="," horiz-adv-x="313" 
d="M289 154l-167 -246h-112l136 246h143z" />
    <glyph glyph-name="hyphen" unicode="-" horiz-adv-x="386" 
d="M362 242h-254l18 103h254z" />
    <glyph glyph-name="period" unicode="." horiz-adv-x="277" 
d="M205 0h-133l26 154h133z" />
    <glyph glyph-name="slash" unicode="/" horiz-adv-x="453" 
d="M569 743l-422 -743h-133l424 743h131z" />
    <glyph glyph-name="zero" unicode="0" horiz-adv-x="672" 
d="M701 516c0 -32 -4 -66 -30 -215c-38 -216 -146 -317 -331 -317c-162 0 -239 91 -239 239c0 38 4 71 30 218c38 216 151 316 331 316c166 0 239 -89 239 -241zM563 524c0 88 -45 118 -113 118c-85 0 -152 -48 -182 -223c-25 -146 -30 -176 -30 -207
c0 -81 41 -112 114 -112c89 0 150 48 182 222c26 146 29 178 29 202z" />
    <glyph glyph-name="one" unicode="1" horiz-adv-x="583" 
d="M527 0h-470l16 105l168 7l92 501l-177 -48l19 112l217 70h101l-114 -635l165 -7z" />
    <glyph glyph-name="two" unicode="2" horiz-adv-x="620" 
d="M557 0h-499l16 93c30 175 104 232 282 325c86 45 172 79 172 166c0 47 -38 63 -137 63c-66 0 -153 -6 -205 -13l16 96c56 15 147 27 225 27c168 0 245 -55 245 -158c0 -142 -120 -211 -244 -271c-162 -78 -195 -104 -213 -202l-2 -11h362z" />
    <glyph glyph-name="three" unicode="3" horiz-adv-x="624" 
d="M612 264c0 -217 -136 -280 -323 -280c-90 0 -187 19 -220 31l16 96c42 -6 132 -15 212 -15c96 0 153 19 170 112c6 33 8 45 8 57c0 40 -25 64 -103 64h-208l16 104h209c121 0 142 70 142 146c0 51 -36 67 -135 67c-78 0 -157 -7 -214 -13l16 97c25 8 137 27 227 27
c163 0 246 -45 246 -163c0 -92 -32 -172 -123 -214c47 -26 64 -73 64 -116z" />
    <glyph glyph-name="four" unicode="4" horiz-adv-x="682" 
d="M668 180h-106l-32 -180h-139l31 180h-346l19 114l434 449h132l-81 -454h105zM445 289l53 286l-284 -286h231z" />
    <glyph glyph-name="five" unicode="5" horiz-adv-x="613" 
d="M665 743l-19 -114h-327l-48 -173h86c178 0 248 -56 248 -165c0 -21 -2 -43 -10 -89c-29 -168 -143 -218 -324 -218c-102 0 -192 19 -221 27l16 99c43 -4 125 -15 203 -15c122 0 170 29 187 119c7 36 8 49 8 59c0 55 -35 75 -146 75h-196l102 395h441z" />
    <glyph glyph-name="six" unicode="6" horiz-adv-x="660" 
d="M643 212c-37 -195 -185 -228 -311 -228c-139 0 -237 53 -237 213c0 32 4 72 10 105l32 176c33 186 112 279 341 279c96 0 189 -17 221 -25l-16 -99c-61 8 -133 13 -211 13c-151 0 -178 -61 -197 -166l-5 -30c44 11 114 19 156 19c127 0 229 -36 229 -167
c0 -17 -5 -48 -12 -90zM506 226c9 49 11 62 11 74c0 59 -45 71 -118 71c-34 0 -91 -4 -144 -15l-17 -89c-6 -31 -8 -56 -8 -77c0 -78 42 -98 120 -98c84 0 138 36 156 134z" />
    <glyph glyph-name="seven" unicode="7" horiz-adv-x="606" 
d="M674 615l-435 -615h-150l453 629h-384l19 114h519z" />
    <glyph glyph-name="eight" unicode="8" horiz-adv-x="684" 
d="M725 589c0 -114 -50 -170 -112 -205c38 -27 57 -71 57 -121c0 -21 -3 -40 -7 -63c-35 -201 -178 -216 -323 -216h-5c-127 0 -246 26 -246 177c0 121 47 189 117 223c-35 25 -54 68 -54 124c0 15 1 30 6 56c30 173 169 193 316 193h4c118 0 247 -20 247 -168zM533 268
c0 46 -22 66 -77 66h-110c-71 0 -98 -34 -113 -113c-4 -22 -6 -37 -6 -49c0 -71 52 -83 128 -83h4c86 0 146 17 167 127c5 24 7 39 7 52zM586 580c0 61 -52 72 -127 72h-4c-95 0 -168 -26 -168 -152c0 -41 19 -65 75 -65h110c71 0 97 39 109 103c4 21 5 33 5 42z" />
    <glyph glyph-name="nine" unicode="9" horiz-adv-x="660" 
d="M146 530c37 195 185 228 311 228c139 0 237 -53 237 -213c0 -32 -4 -72 -10 -105l-32 -176c-33 -186 -112 -279 -341 -279c-96 0 -189 17 -221 25l16 99c61 -8 133 -13 211 -13c151 0 178 61 197 166l5 30c-44 -11 -114 -19 -156 -19c-127 0 -229 36 -229 167
c0 17 5 48 12 90zM283 516c-9 -49 -11 -62 -11 -74c0 -59 45 -71 118 -71c34 0 91 4 144 15l17 89c6 31 8 56 8 77c0 78 -42 98 -120 98c-84 0 -138 -36 -156 -134z" />
    <glyph glyph-name="colon" unicode=":" horiz-adv-x="286" 
d="M209 0h-133l26 154h133zM281 408h-134l26 154h134z" />
    <glyph glyph-name="semicolon" unicode=";" horiz-adv-x="298" 
d="M260 154l-165 -246h-108l128 246h145zM294 408h-133l26 154h133z" />
    <glyph glyph-name="less" unicode="&#x3c;" horiz-adv-x="689" 
d="M642 128h-157l-285 260l285 259h157l-284 -259z" />
    <glyph glyph-name="equal" unicode="=" horiz-adv-x="689" 
d="M655 316v-109h-468v109h468zM655 458h-468v110h468v-110z" />
    <glyph glyph-name="greater" unicode="&#x3e;" horiz-adv-x="689" 
d="M642 388l-285 -260h-157l284 260l-284 259h157z" />
    <glyph glyph-name="question" unicode="?" horiz-adv-x="507" 
d="M249 0h-132l26 154h132zM149 666l16 96c56 17 126 28 196 28c136 0 197 -48 197 -139c0 -100 -64 -161 -142 -226c-108 -91 -121 -119 -132 -181l-6 -33h-119l5 33c13 84 33 130 133 218c56 49 109 96 109 162c0 41 -35 51 -100 51c-47 0 -105 -5 -157 -9z" />
    <glyph glyph-name="at" unicode="@" horiz-adv-x="859" 
d="M871 409c0 -235 -153 -362 -412 -362c-144 0 -192 49 -192 137c0 28 3 59 11 94c33 156 109 212 235 212c63 0 122 -9 170 -21l-75 -322c126 31 181 143 181 265s-79 180 -234 180c-180 0 -298 -83 -358 -279c-18 -59 -35 -117 -35 -182c0 -119 65 -180 236 -180
c77 0 167 7 184 9l-7 -56c-21 -4 -108 -16 -185 -16c-218 0 -308 90 -308 243c0 75 17 137 39 206c74 227 219 324 443 324c200 0 307 -93 307 -252zM558 399c-16 2 -40 3 -58 3c-53 0 -92 -16 -116 -125c-8 -38 -14 -63 -14 -88c0 -38 20 -59 88 -59c14 0 24 0 37 1z" />
    <glyph glyph-name="A" unicode="A" horiz-adv-x="705" 
d="M679 0h-144l-26 209h-239l-104 -209h-145l355 743h209zM501 323l-25 205c-5 38 -6 77 -5 118h-9c-15 -41 -30 -80 -48 -118l-98 -205h185z" />
    <glyph glyph-name="B" unicode="B" horiz-adv-x="675" 
d="M716 573c0 -93 -47 -159 -123 -193c46 -22 72 -70 72 -130c0 -30 -5 -53 -11 -75c-41 -148 -183 -180 -354 -180c-69 0 -143 1 -220 5l130 743c79 4 151 6 216 6c177 0 290 -27 290 -176zM527 246c0 56 -32 86 -129 86h-123l-42 -224c22 0 45 -1 68 -1
c115 0 226 11 226 139zM579 556c0 72 -62 79 -167 79h-84l-37 -202h75c125 0 213 9 213 123z" />
    <glyph glyph-name="C" unicode="C" horiz-adv-x="587" 
d="M686 738l-19 -110c-47 4 -117 9 -175 9c-127 0 -193 -45 -225 -215l-19 -101c-6 -33 -9 -61 -9 -84c0 -102 54 -132 156 -132c58 0 130 4 178 8l-17 -110c-35 -7 -126 -19 -190 -19c-162 0 -267 62 -267 242c0 33 2 70 10 111l19 100c50 265 183 320 374 320
c65 0 151 -11 184 -19z" />
    <glyph glyph-name="D" unicode="D" horiz-adv-x="706" 
d="M738 502c-1 -31 -3 -64 -10 -100l-18 -95c-41 -217 -152 -313 -399 -313c-91 0 -142 2 -232 6l131 743c91 4 137 6 222 6c229 0 306 -89 306 -247zM599 507c0 123 -87 124 -270 124l-94 -520h93c142 0 212 44 245 215l18 94c7 36 7 64 8 87z" />
    <glyph glyph-name="E" unicode="E" horiz-adv-x="604" 
d="M683 743l-19 -115h-334l-35 -190h312l-18 -111h-313l-39 -213h333l-18 -114h-473l131 743h473z" />
    <glyph glyph-name="F" unicode="F" horiz-adv-x="594" 
d="M683 743l-19 -115h-334l-35 -191h312l-18 -111h-313l-57 -326h-140l131 743h473z" />
    <glyph glyph-name="G" unicode="G" horiz-adv-x="669" 
d="M734 734l-18 -109c-63 6 -132 12 -212 12c-121 0 -203 -27 -238 -213l-20 -105c-7 -37 -10 -67 -10 -91c0 -97 56 -123 154 -123c36 0 73 1 101 3l52 287h133l-69 -388c-42 -8 -140 -23 -246 -23c-146 0 -260 61 -260 248c0 31 2 66 10 105l20 105
c54 282 210 315 369 315c109 0 213 -17 234 -23z" />
    <glyph glyph-name="H" unicode="H" horiz-adv-x="763" 
d="M815 743l-131 -743h-140l59 328h-326l-58 -328h-140l131 743h140l-54 -296h326l53 296h140z" />
    <glyph glyph-name="I" unicode="I" horiz-adv-x="298" 
d="M350 743l-131 -743h-140l131 743h140z" />
    <glyph glyph-name="J" unicode="J" horiz-adv-x="297" 
d="M349 743l-139 -781c-23 -128 -75 -179 -206 -179c-28 0 -68 4 -85 9l19 97c15 0 29 -2 57 -2c56 0 66 19 75 71l140 785h139z" />
    <glyph glyph-name="K" unicode="K" horiz-adv-x="686" 
d="M806 743l-372 -368l238 -375h-168l-218 354l-64 -354h-140l132 743h140l-61 -340l339 340h174z" />
    <glyph glyph-name="L" unicode="L" horiz-adv-x="560" 
d="M553 117l-19 -117h-455l131 743h140l-113 -626h316z" />
    <glyph glyph-name="M" unicode="M" horiz-adv-x="855" 
d="M907 743l-132 -743h-136l77 414c7 37 15 78 25 128c-22 -36 -46 -70 -69 -102l-150 -211h-110l-68 211c-11 32 -23 67 -34 102c-7 -46 -10 -79 -19 -128l-77 -414h-136l132 743h150l94 -292c10 -30 19 -63 31 -95c20 32 42 66 63 96l205 291h154z" />
    <glyph glyph-name="N" unicode="N" horiz-adv-x="741" 
d="M795 743l-131 -743h-163l-156 448c-12 34 -25 74 -37 111c-6 -42 -13 -89 -21 -134l-80 -425h-128l133 743h161l156 -439c12 -33 26 -78 39 -114c4 45 13 97 21 142l76 411h130z" />
    <glyph glyph-name="O" unicode="O" horiz-adv-x="715" 
d="M743 510c0 -37 -4 -75 -10 -111l-15 -88c-41 -239 -158 -327 -354 -327c-171 0 -262 84 -262 255c0 34 2 68 9 104l16 88c44 240 172 326 358 326c168 0 258 -74 258 -247zM607 513c0 92 -41 125 -136 125c-109 0 -179 -58 -208 -224l-15 -87c-5 -28 -9 -67 -9 -92
c0 -95 47 -131 134 -131c117 0 177 56 208 224l16 87c5 30 9 73 10 98z" />
    <glyph glyph-name="P" unicode="P" horiz-adv-x="648" 
d="M711 551c0 -229 -166 -283 -366 -283h-82l-48 -268h-136l132 743c66 4 128 5 196 5c172 0 304 -33 304 -197zM572 545c0 85 -73 86 -208 86h-36l-45 -246h27c139 0 262 1 262 160z" />
    <glyph glyph-name="Q" unicode="Q" horiz-adv-x="715" 
d="M743 510c0 -37 -4 -75 -10 -111l-15 -88c-36 -210 -133 -307 -298 -322l-4 -21c-3 -15 -4 -27 -5 -35c0 -22 13 -27 55 -27h83l-14 -86c-22 -7 -81 -15 -131 -15c-77 0 -127 22 -127 104c0 13 1 29 7 57l4 27c-124 23 -186 108 -186 246c0 34 2 68 9 104l16 88
c43 239 172 326 358 326c168 0 258 -74 258 -247zM607 513c0 92 -41 125 -136 125c-109 0 -179 -58 -208 -224l-15 -87c-5 -28 -9 -67 -9 -92c0 -95 47 -131 134 -131c117 0 177 56 208 224l16 87c5 30 9 73 10 98z" />
    <glyph glyph-name="R" unicode="R" horiz-adv-x="677" 
d="M711 547c0 -128 -60 -202 -171 -243l121 -304h-146l-111 275c-20 -1 -40 -2 -60 -2c-27 0 -53 1 -80 1l-49 -274h-136l132 743c66 3 133 5 208 5c151 0 292 -29 292 -201zM571 536c0 92 -74 95 -216 95h-27l-45 -246c190 0 288 6 288 151z" />
    <glyph glyph-name="S" unicode="S" 
d="M660 734l-17 -101c-79 8 -130 13 -210 13c-82 0 -153 -16 -153 -96c0 -37 20 -61 76 -86l108 -48c89 -40 136 -88 136 -190c0 -166 -124 -242 -307 -242c-96 0 -193 13 -230 23l16 102c54 -7 119 -12 213 -12c95 0 164 30 164 115c0 40 -20 62 -78 89l-109 50
c-79 36 -130 93 -130 189c0 170 141 217 298 217c101 0 188 -14 223 -23z" />
    <glyph glyph-name="T" unicode="T" horiz-adv-x="640" 
d="M743 743l-19 -115h-222l-112 -628h-140l112 628h-222l19 115h584z" />
    <glyph glyph-name="U" unicode="U" horiz-adv-x="731" 
d="M789 743l-81 -455c-38 -213 -133 -304 -333 -304c-174 0 -255 86 -255 229c0 41 5 74 12 113l73 417h139l-76 -432c-7 -37 -11 -68 -11 -95c0 -81 38 -114 132 -114c125 0 161 59 187 209l76 432h137z" />
    <glyph glyph-name="V" unicode="V" horiz-adv-x="711" 
d="M814 743l-356 -743h-204l-93 743h140l60 -516c5 -43 6 -93 9 -133c16 40 32 90 53 133l246 516h145z" />
    <glyph glyph-name="W" unicode="W" horiz-adv-x="948" 
d="M1038 743l-261 -743h-187l-21 396c-2 32 -2 59 -6 100c-11 -28 -24 -65 -39 -100l-165 -396h-189l2 743h139l-9 -452c-1 -49 -3 -99 -5 -144h5c21 49 37 93 55 137l140 331h169l16 -333c2 -44 4 -90 5 -135h5c17 57 25 87 45 144l159 452h142z" />
    <glyph glyph-name="X" unicode="X" horiz-adv-x="703" 
d="M802 743l-310 -372l181 -371h-149l-134 262l-225 -262h-140l315 379l-176 364h149l131 -257l218 257h140z" />
    <glyph glyph-name="Y" unicode="Y" horiz-adv-x="666" 
d="M780 743l-330 -465l-49 -278h-136l49 278l-166 465h141l78 -216c12 -32 24 -78 32 -115h5c20 37 51 81 75 115l157 216h144z" />
    <glyph glyph-name="Z" unicode="Z" horiz-adv-x="641" 
d="M708 743l-21 -127l-453 -500h373l-18 -116h-536l20 126l453 500h-348l19 117h511z" />
    <glyph glyph-name="bracketleft" unicode="[" horiz-adv-x="421" 
d="M331 -204h-270l168 947h270l-19 -109h-138l-132 -731h138z" />
    <glyph glyph-name="backslash" unicode="\" horiz-adv-x="476" 
d="M448 0h-131l-160 743h130z" />
    <glyph glyph-name="bracketright" unicode="]" horiz-adv-x="421" 
d="M286 -204h-270l17 107h138l132 732h-138l18 108h270z" />
    <glyph glyph-name="asciicircum" unicode="^" horiz-adv-x="689" 
d="M682 423h-131l-130 263l-129 -263h-132l161 322h200z" />
    <glyph glyph-name="underscore" unicode="_" horiz-adv-x="593" 
d="M569 -125h-588l12 77h588z" />
    <glyph glyph-name="quoteleft" unicode="&#x2018;" horiz-adv-x="220" 
d="M336 777l-96 -245h-126l128 245h94z" />
    <glyph glyph-name="a" unicode="a" 
d="M543 0h-124l4 29c-42 -25 -98 -43 -164 -43c-111 0 -172 65 -172 187c0 24 2 52 7 80l15 80c38 201 136 244 307 244c58 0 149 -5 225 -15zM432 121l62 342c-36 3 -82 4 -100 4c-83 0 -132 -22 -156 -150l-15 -80c-3 -23 -5 -41 -5 -57c0 -58 30 -84 95 -84
c42 0 82 10 119 25z" />
    <glyph glyph-name="b" unicode="b" 
d="M628 395c-2 -24 -3 -51 -8 -80l-15 -79c-36 -188 -129 -251 -309 -251c-74 0 -125 4 -223 16l136 776h131l-40 -227c45 20 95 28 138 28c129 0 190 -63 190 -183zM497 388c0 57 -29 79 -95 79c-25 0 -81 -4 -120 -22l-62 -344c22 -1 55 -4 96 -4c100 0 139 34 160 153
l14 79c4 23 7 43 7 59z" />
    <glyph glyph-name="c" unicode="c" horiz-adv-x="505" 
d="M559 556l-16 -99c-70 6 -118 9 -150 9c-82 0 -133 -27 -155 -149l-13 -71c-4 -23 -6 -42 -6 -59c0 -73 35 -91 107 -91c31 0 80 3 152 9l-16 -99c-27 -7 -91 -21 -170 -21c-146 0 -203 78 -203 196c0 25 2 52 7 81l13 71c31 172 117 244 280 244c85 0 145 -14 170 -21z
" />
    <glyph glyph-name="d" unicode="d" 
d="M493 457c-36 6 -76 10 -102 10c-80 0 -129 -22 -153 -150l-15 -80c-4 -22 -6 -42 -6 -57c0 -59 30 -84 95 -84c42 0 82 10 120 25zM680 777l-137 -777h-124l4 29c-41 -24 -99 -44 -161 -44c-113 0 -176 67 -176 189c0 24 2 51 8 80l15 80c37 197 139 243 285 243
c42 0 78 -4 115 -11l39 211h132z" />
    <glyph glyph-name="e" unicode="e" horiz-adv-x="608" 
d="M617 376c0 -41 -6 -81 -17 -136h-376c-5 -29 -8 -47 -8 -62c0 -53 27 -84 130 -84c60 0 130 6 206 13l-16 -98c-44 -10 -120 -24 -215 -24c-159 0 -233 64 -233 198c0 29 3 62 10 97l7 35c38 188 141 262 293 262c147 0 219 -74 219 -201zM490 382c0 48 -20 89 -102 89
c-104 0 -135 -72 -147 -136l-1 -9h244c4 22 6 41 6 56z" />
    <glyph glyph-name="f" unicode="f" horiz-adv-x="430" 
d="M537 776l-14 -83c-29 1 -58 4 -87 4c-55 0 -62 -24 -74 -82l-11 -53h145l-17 -104h-145l-90 -505c-23 -130 -73 -172 -191 -172c-33 0 -69 3 -81 7l16 92c15 -1 35 -1 56 -1c45 0 58 17 68 74l91 505l-98 8l15 96h100l12 61c21 105 55 169 186 169c47 0 89 -8 119 -16z
" />
    <glyph glyph-name="g" unicode="g" horiz-adv-x="615" 
d="M641 562l-101 -584c-23 -130 -83 -197 -266 -197c-106 0 -207 17 -225 22l15 88c61 -3 141 -8 210 -8c102 0 123 30 134 95l4 23c-20 -3 -67 -8 -103 -8c-141 0 -220 60 -220 196c0 23 3 48 8 77l11 63c31 177 126 248 320 248c74 0 155 -7 213 -15zM494 462
c-16 2 -51 5 -91 5c-107 0 -147 -48 -165 -152l-11 -62c-4 -24 -6 -43 -6 -61c0 -67 35 -90 113 -90c35 0 82 4 95 6z" />
    <glyph glyph-name="h" unicode="h" horiz-adv-x="635" 
d="M634 432c0 -21 -5 -54 -11 -91l-59 -341h-132l62 355c3 19 5 35 5 49c0 47 -23 62 -74 62c-53 0 -110 -17 -143 -31l-77 -435h-132l138 777h131l-43 -242c42 20 110 42 181 42c116 0 154 -58 154 -145z" />
    <glyph glyph-name="i" unicode="i" horiz-adv-x="287" 
d="M307 562l-97 -562h-133l98 562h132zM348 777l-22 -127h-136l22 127h136z" />
    <glyph glyph-name="j" unicode="j" horiz-adv-x="287" 
d="M306 562l-107 -609c-23 -130 -73 -172 -191 -172c-33 0 -69 4 -81 7l16 92c15 0 35 -1 56 -1c46 0 58 17 68 74l108 609h131zM347 777l-22 -127h-138l23 127h137z" />
    <glyph glyph-name="k" unicode="k" horiz-adv-x="573" 
d="M657 562l-265 -269l168 -293h-149l-157 276l-49 -276h-132l137 777h132l-82 -461l237 246h160z" />
    <glyph glyph-name="l" unicode="l" horiz-adv-x="286" 
d="M345 777l-136 -777h-132l137 777h131z" />
    <glyph glyph-name="m" unicode="m" horiz-adv-x="909" 
d="M913 444c0 -28 -5 -58 -10 -85l-64 -359h-131l64 369c4 21 7 39 7 54c0 29 -12 45 -59 45c-33 0 -81 -14 -124 -35c0 -22 -5 -44 -8 -64l-64 -369h-133l64 369c4 22 7 40 7 55c0 29 -12 44 -54 44c-41 0 -90 -19 -126 -37l-77 -431h-132l99 562h125l-7 -44
c54 36 116 59 178 59c68 0 102 -23 119 -61c71 43 131 61 180 61c116 0 146 -60 146 -133z" />
    <glyph glyph-name="n" unicode="n" horiz-adv-x="634" 
d="M633 432c0 -28 -5 -60 -10 -91l-59 -341h-132l62 355c3 20 5 37 6 52c0 41 -18 59 -67 59c-42 0 -93 -12 -153 -41l-75 -425h-132l98 562h126l-6 -42c66 39 131 57 188 57c119 0 154 -62 154 -145z" />
    <glyph glyph-name="o" unicode="o" horiz-adv-x="610" 
d="M620 381c0 -26 -6 -61 -8 -79l-13 -70c-33 -177 -131 -247 -290 -247c-147 0 -220 70 -220 196c0 28 3 56 7 81l12 70c31 178 134 245 290 245c143 0 222 -62 222 -196zM488 379c0 55 -22 86 -102 86c-92 0 -129 -41 -149 -149l-13 -70c-4 -23 -6 -43 -6 -65
c0 -59 28 -84 101 -84c96 0 130 41 150 149l13 70c5 28 6 45 6 63z" />
    <glyph glyph-name="p" unicode="p" horiz-adv-x="615" 
d="M627 405c0 -32 -5 -84 -19 -160c-39 -209 -138 -259 -296 -259c-35 0 -82 5 -109 12l-37 -204h-132l136 768h123l-6 -36c57 35 119 51 170 51c113 0 170 -57 170 -172zM495 387c0 58 -30 78 -89 78c-36 0 -69 -7 -127 -31l-60 -328c36 -7 70 -11 102 -11
c85 0 130 26 157 165c14 76 17 104 17 127z" />
    <glyph glyph-name="q" unicode="q" horiz-adv-x="615" 
d="M640 561l-135 -767h-131l40 220c-55 -21 -106 -29 -137 -29c-131 0 -190 60 -190 184c0 29 3 62 10 99l9 50c39 217 146 259 307 259c67 0 146 -6 227 -16zM493 461c-23 2 -67 4 -92 4c-92 0 -140 -20 -166 -164l-9 -50c-5 -25 -9 -46 -9 -64c0 -68 19 -90 83 -90
c26 0 73 4 131 24z" />
    <glyph glyph-name="r" unicode="r" horiz-adv-x="406" 
d="M492 577l-19 -120c-68 0 -146 -15 -192 -34l-76 -423h-132l99 562h124l-7 -46c62 48 133 61 203 61z" />
    <glyph glyph-name="s" unicode="s" horiz-adv-x="512" 
d="M544 555l-15 -91c-68 8 -128 12 -172 12c-49 0 -108 -4 -108 -62c0 -29 18 -38 72 -62l43 -19c98 -44 139 -79 139 -160c0 -133 -105 -187 -261 -187c-78 0 -164 14 -187 22l15 90c50 -6 103 -11 183 -11c65 0 117 11 117 69c0 33 -17 44 -85 74l-39 17
c-86 38 -129 81 -129 159c0 142 118 171 238 171c83 0 150 -11 189 -22z" />
    <glyph glyph-name="t" unicode="t" horiz-adv-x="419" 
d="M487 562l-17 -104h-137l-56 -305c-4 -19 -5 -31 -5 -40c0 -22 12 -27 46 -27c28 0 69 2 85 4l-14 -89c-16 -4 -66 -16 -117 -16c-91 0 -130 40 -130 119c0 16 1 35 5 55l54 299l-103 8l15 96h105l26 144h132l-26 -144h137z" />
    <glyph glyph-name="u" unicode="u" horiz-adv-x="635" 
d="M659 562l-99 -562h-126l7 45c-67 -36 -132 -60 -199 -60c-112 0 -143 65 -143 145c0 29 4 59 9 88l61 344h131l-62 -357c-4 -24 -7 -42 -7 -58c0 -39 18 -52 62 -52c42 0 95 15 158 39l76 428h132z" />
    <glyph glyph-name="v" unicode="v" horiz-adv-x="575" 
d="M653 562l-273 -562h-186l-77 562h132l37 -321c6 -53 8 -105 13 -153c20 48 39 99 64 153l150 321h140z" />
    <glyph glyph-name="w" unicode="w" horiz-adv-x="893" 
d="M960 562l-219 -562h-172l-41 278c-7 46 -9 82 -9 113h-4c-10 -31 -24 -66 -47 -113l-141 -278h-178l-22 562h133l5 -305c0 -24 1 -48 1 -72c0 -23 -1 -45 -1 -66h6c22 50 37 93 59 138l119 237h166l29 -237c6 -45 9 -94 13 -138h4c15 42 30 89 49 139l115 304h135z" />
    <glyph glyph-name="x" unicode="x" horiz-adv-x="576" 
d="M653 562l-243 -278l148 -284h-143l-104 190l-168 -190h-137l256 293l-140 269h143l96 -177l157 177h135z" />
    <glyph glyph-name="y" unicode="y" horiz-adv-x="594" 
d="M669 562l-298 -583c-67 -131 -121 -198 -245 -198c-54 0 -104 6 -131 12l15 94c46 -2 70 -3 95 -3c64 0 80 22 114 86l18 34l-110 558h137l45 -299c7 -49 9 -95 15 -149c22 54 39 97 64 150l143 298h138z" />
    <glyph glyph-name="z" unicode="z" horiz-adv-x="518" 
d="M571 562l-19 -115l-351 -343h290l-17 -104h-434l19 118l349 339h-276l17 105h422z" />
    <glyph glyph-name="braceleft" unicode="{" horiz-adv-x="437" 
d="M345 -206h-63c-138 0 -182 40 -182 124c0 18 2 38 6 59l26 144c3 15 4 27 4 38c0 36 -14 52 -46 74l14 82c53 30 70 48 82 112l29 153c25 131 67 163 235 163h63l-18 -108h-62c-70 0 -78 -9 -87 -60l-29 -154c-15 -80 -41 -119 -102 -153c36 -26 53 -54 53 -102
c0 -15 -2 -32 -5 -51l-28 -153c-2 -11 -3 -20 -3 -28c0 -28 15 -32 69 -32h63z" />
    <glyph glyph-name="bar" unicode="|" horiz-adv-x="340" 
d="M312 -206h-132v949h132v-949z" />
    <glyph glyph-name="braceright" unicode="}" horiz-adv-x="437" 
d="M186 740h63c138 0 183 -37 183 -121c0 -17 -2 -38 -6 -59l-28 -147c-3 -15 -5 -27 -5 -38c0 -35 15 -53 47 -75l-14 -82c-52 -30 -71 -47 -82 -111l-29 -162c-22 -121 -66 -154 -234 -154h-64l18 108h63c68 0 77 8 87 61l28 152c15 81 42 119 102 153
c-37 26 -53 55 -53 103c0 14 1 31 5 51l29 153c2 11 3 20 3 28c0 27 -16 32 -69 32h-62z" />
    <glyph glyph-name="asciitilde" unicode="~" horiz-adv-x="689" 
d="M670 484c0 -100 -31 -155 -122 -155c-46 0 -79 8 -119 35l-63 42c-23 15 -35 27 -56 27c-35 0 -42 -18 -42 -60v-37h-96v37c0 106 42 157 129 157c39 0 69 -14 108 -40l60 -41c23 -16 42 -24 66 -24c36 0 40 23 40 59v38h95v-38z" />
    <glyph glyph-name="exclamdown" unicode="&#xa1;" horiz-adv-x="290" 
d="M267 353l-88 -566h-145l114 566h119zM175 564h136l-27 -153h-135z" />
    <glyph glyph-name="cent" unicode="&#xa2;" horiz-adv-x="537" 
d="M562 556l-16 -100c-59 8 -95 10 -149 10c-83 0 -133 -27 -156 -152l-12 -65c-4 -24 -7 -44 -7 -61c0 -73 31 -92 107 -92c35 0 87 3 152 8l-15 -97c-18 -6 -67 -15 -126 -18l-19 -110h-112l20 114c-96 22 -138 88 -138 191c0 26 3 53 9 82l12 64c26 149 97 222 218 241
l19 110h113l-18 -107c57 -4 103 -14 118 -18z" />
    <glyph glyph-name="sterling" unicode="&#xa3;" horiz-adv-x="641" 
d="M712 737l-18 -107c-38 6 -123 13 -184 13c-110 0 -127 -34 -150 -144l-13 -63h229l-17 -103h-228l-23 -122c-8 -42 -25 -71 -50 -100h342l-18 -111h-493l15 93c41 36 59 77 67 118l23 122h-77l17 103h77l12 63c33 175 99 259 289 259c86 0 160 -11 200 -21z" />
    <glyph glyph-name="fraction" unicode="&#x2044;" horiz-adv-x="484" 
d="M675 744l-616 -744h-119l616 744h119z" />
    <glyph glyph-name="yen" unicode="&#xa5;" horiz-adv-x="698" 
d="M687 220h-232l-39 -220h-136l39 220h-232l15 88h222l-35 92h-170l14 88h125l-87 255h150l68 -216c10 -34 21 -80 31 -111c20 32 45 78 68 111l149 216h148l-178 -255h126l-14 -88h-171l-68 -92h222z" />
    <glyph glyph-name="florin" unicode="&#x192;" horiz-adv-x="639" 
d="M691 743l-21 -85c-31 3 -51 4 -72 4c-50 0 -72 -9 -91 -76l-42 -143h161l-26 -102h-161l-89 -328c-36 -131 -109 -165 -200 -165c-49 0 -86 7 -115 14l20 85c30 -2 52 -4 76 -4c42 0 70 7 89 75l88 323h-145l25 102h146l41 149c36 130 107 165 204 165
c45 0 83 -6 112 -14z" />
    <glyph glyph-name="section" unicode="&#xa7;" horiz-adv-x="668" 
d="M57 -196l17 105c102 -10 175 -12 219 -12c86 0 154 29 154 121c0 32 -20 57 -91 91l-110 52c-76 36 -115 80 -115 160c0 47 16 96 53 143c-9 19 -14 46 -14 76c0 173 141 216 302 216c96 0 185 -15 219 -23l-18 -102c-89 9 -165 12 -213 12c-76 0 -149 -13 -149 -100
c0 -33 17 -55 75 -82l107 -50c93 -43 136 -91 136 -175c0 -44 -17 -92 -54 -137c9 -20 13 -49 13 -76c0 -175 -126 -241 -303 -241c-99 0 -183 12 -228 22zM498 163c8 20 12 39 12 57c0 37 -19 62 -81 90l-108 49c-38 17 -54 31 -66 48c-10 -23 -13 -47 -13 -69
c0 -32 13 -54 76 -82l110 -50c27 -12 51 -26 70 -43z" />
    <glyph glyph-name="currency" unicode="&#xa4;" horiz-adv-x="658" 
d="M668 187l-70 -71l-78 77c-34 -21 -75 -32 -113 -32c-40 0 -79 10 -115 32l-79 -77l-69 69l79 78c-21 33 -33 75 -33 113c0 39 10 78 33 112l-79 78l69 69l79 -77c35 22 76 32 115 32c40 0 79 -10 114 -32l77 75l70 -69l-77 -76c21 -35 33 -74 33 -113s-11 -78 -33 -113z
M534 376c0 70 -59 126 -127 126c-70 0 -128 -56 -128 -126c0 -71 60 -126 128 -126c67 0 127 56 127 126z" />
    <glyph glyph-name="quotesingle" unicode="'" horiz-adv-x="187" 
d="M301 766l-96 -254h-95l69 254h122z" />
    <glyph glyph-name="quotedblleft" unicode="&#x201c;" horiz-adv-x="429" 
d="M296 777l-96 -245h-126l127 245h95zM420 777h95l-96 -245h-125z" />
    <glyph glyph-name="guillemotleft" unicode="&#xab;" horiz-adv-x="725" 
d="M766 506l-199 -224l111 -208h-135l-121 217l196 215h148zM298 506h147l-198 -224l110 -208h-135l-120 208z" />
    <glyph glyph-name="guilsinglleft" unicode="&#x2039;" horiz-adv-x="404" 
d="M444 506l-198 -224l110 -208h-135l-120 217l196 215h147z" />
    <glyph glyph-name="guilsinglright" unicode="&#x203a;" horiz-adv-x="404" 
d="M403 289l-196 -215h-148l199 224l-111 208h135z" />
    <glyph glyph-name="endash" unicode="&#x2013;" horiz-adv-x="489" 
d="M465 242h-357l18 104h357z" />
    <glyph glyph-name="dagger" unicode="&#x2020;" horiz-adv-x="524" 
d="M538 463h-133l-105 -593h-132l105 593h-123l18 112h123l37 201h131l-36 -201h133z" />
    <glyph glyph-name="daggerdbl" unicode="&#x2021;" horiz-adv-x="524" 
d="M499 236h-133l-66 -366h-132l66 366h-123l18 110h123l22 122h-123l18 111h123l35 195h131l-34 -195h133l-18 -111h-133l-22 -122h133z" />
    <glyph glyph-name="periodcentered" unicode="&#xb7;" horiz-adv-x="277" 
d="M253 292h-128l27 154h128z" />
    <glyph glyph-name="paragraph" unicode="&#xb6;" horiz-adv-x="744" 
d="M803 743l-166 -940h-95l150 846h-60l-150 -846h-95l79 446h-48c-158 0 -277 51 -277 199c0 19 2 39 8 70c35 200 177 225 364 225h290z" />
    <glyph glyph-name="bullet" unicode="&#x2022;" horiz-adv-x="523" 
d="M522 368c0 -101 -83 -182 -185 -182s-184 81 -184 182s82 183 184 183s185 -82 185 -183z" />
    <glyph glyph-name="quotesinglbase" unicode="&#x201a;" horiz-adv-x="220" 
d="M224 148l-126 -245h-95l96 245h125z" />
    <glyph glyph-name="quotedblbase" unicode="&#x201e;" horiz-adv-x="429" 
d="M434 148l-127 -245h-95l97 245h125zM99 148h125l-126 -245h-95z" />
    <glyph glyph-name="quotedblright" unicode="&#x201d;" horiz-adv-x="429" 
d="M293 532l96 245h126l-127 -245h-95zM169 532h-95l96 245h125z" />
    <glyph glyph-name="guillemotright" unicode="&#xbb;" horiz-adv-x="725" 
d="M723 289l-195 -215h-148l199 224l-111 208h135zM282 506l121 -217l-196 -215h-148l199 224l-111 208h135z" />
    <glyph glyph-name="ellipsis" unicode="&#x2026;" horiz-adv-x="882" 
d="M206 0h-133l26 154h133zM507 0h-132l26 154h132zM809 0h-133l26 154h133z" />
    <glyph glyph-name="perthousand" unicode="&#x2030;" horiz-adv-x="1483" 
d="M1108 306c0 -27 -2 -52 -7 -79l-9 -47c-24 -124 -84 -191 -218 -191c-115 0 -158 65 -158 158c0 21 1 45 6 70l9 49c22 120 85 190 219 190c117 0 158 -61 158 -150zM1005 307c0 49 -23 65 -66 65c-57 0 -86 -31 -104 -124l-9 -47c-5 -28 -7 -49 -7 -64
c0 -48 22 -64 65 -64c56 0 87 28 105 124l9 48c5 27 7 46 7 62zM987 744l-617 -744h-118l616 744h119zM527 607c0 -28 -2 -52 -7 -79l-9 -47c-22 -115 -84 -191 -218 -191c-115 0 -158 64 -158 158c0 21 2 44 7 70l9 48c23 121 83 191 218 191c117 0 158 -61 158 -150z
M424 608c0 49 -23 65 -66 65c-57 0 -87 -31 -104 -124l-9 -48c-5 -28 -7 -48 -7 -64c0 -47 22 -63 65 -63c57 0 87 27 105 123l9 48c5 27 7 47 7 63z" />
    <glyph glyph-name="questiondown" unicode="&#xbf;" horiz-adv-x="507" 
d="M356 566h132l-26 -154h-132zM456 -100l-16 -96c-56 -17 -126 -28 -196 -28c-136 0 -197 48 -197 139c0 100 64 161 142 226c108 91 121 119 132 181l6 33h119l-5 -33c-13 -84 -33 -130 -133 -218c-56 -49 -109 -96 -109 -162c0 -41 35 -51 100 -51c47 0 105 5 157 9z" />
    <glyph glyph-name="grave" unicode="`" horiz-adv-x="471" 
d="M442 625h-125l-132 149h153z" />
    <glyph glyph-name="acute" unicode="&#xb4;" horiz-adv-x="471" 
d="M560 774l-184 -149h-127l158 149h153z" />
    <glyph glyph-name="circumflex" unicode="&#x2c6;" horiz-adv-x="501" 
d="M576 625h-117l-78 91l-113 -91h-125l161 149h164z" />
    <glyph glyph-name="tilde" unicode="&#x2dc;" horiz-adv-x="486" 
d="M595 782c-9 -122 -63 -161 -127 -161c-41 0 -72 11 -106 35l-39 28c-19 15 -32 24 -50 24c-27 0 -40 -21 -48 -81h-82c12 125 66 161 134 161c39 0 64 -9 97 -33l40 -29c18 -14 33 -24 53 -24c27 0 43 23 47 80h81z" />
    <glyph glyph-name="macron" unicode="&#xaf;" horiz-adv-x="480" 
d="M543 654h-376l14 88h376z" />
    <glyph glyph-name="breve" unicode="&#x2d8;" horiz-adv-x="485" 
d="M567 781c-26 -99 -85 -158 -207 -158c-92 0 -171 38 -169 158h84c0 -56 22 -84 89 -84c60 0 100 20 119 84h84z" />
    <glyph glyph-name="dotaccent" unicode="&#x2d9;" horiz-adv-x="442" 
d="M402 651h-134l21 124h135z" />
    <glyph glyph-name="dieresis" unicode="&#xa8;" horiz-adv-x="483" 
d="M553 768l-22 -124h-110l21 124h111zM200 768h112l-22 -124h-111z" />
    <glyph glyph-name="ring" unicode="&#x2da;" horiz-adv-x="451" 
d="M459 729c0 -78 -55 -116 -128 -116c-74 0 -131 38 -131 116c0 79 57 117 131 117c73 0 128 -38 128 -117zM386 729c0 38 -24 51 -55 51c-32 0 -56 -13 -56 -51c0 -36 23 -51 56 -51c31 0 55 15 55 51z" />
    <glyph glyph-name="cedilla" unicode="&#xb8;" horiz-adv-x="455" 
d="M313 -65l-160 -141h-125l136 141h149z" />
    <glyph glyph-name="hungarumlaut" unicode="&#x2dd;" horiz-adv-x="471" 
d="M670 774l-184 -149h-127l158 149h153zM385 774l-184 -149h-127l158 149h153z" />
    <glyph glyph-name="ogonek" unicode="&#x2db;" horiz-adv-x="458" 
d="M327 -203c-18 -6 -61 -14 -112 -14c-85 0 -122 36 -122 89c0 83 93 121 164 139l107 -11c-57 -20 -156 -56 -156 -108c0 -19 12 -30 50 -30c26 0 54 3 81 5z" />
    <glyph glyph-name="caron" unicode="&#x2c7;" horiz-adv-x="501" 
d="M169 774h117l79 -91l112 91h126l-162 -149h-163z" />
    <glyph glyph-name="emdash" unicode="&#x2014;" horiz-adv-x="646" 
d="M623 242h-515l18 104h515z" />
    <glyph glyph-name="AE" unicode="&#xc6;" horiz-adv-x="997" 
d="M946 0h-472l38 209h-227l-102 -209h-145l351 743h688l-19 -115h-333l-36 -190h313l-18 -111h-313l-40 -213h334zM531 322l57 321h-108c-16 -36 -32 -74 -49 -110l-100 -211h200z" />
    <glyph glyph-name="ordfeminine" unicode="&#xaa;" horiz-adv-x="445" 
d="M487 685c0 -13 -2 -26 -5 -43l-39 -221h-90l4 24c-25 -15 -71 -33 -119 -33c-66 0 -96 31 -96 91c0 116 89 128 199 128h41l3 17c1 10 2 17 2 24c0 26 -14 32 -65 32c-41 0 -93 -5 -120 -8l10 63c21 8 79 20 141 20c97 0 134 -32 134 -94zM376 575h-44
c-51 0 -96 -4 -96 -64c0 -27 14 -29 41 -29c33 0 70 12 85 19z" />
    <glyph glyph-name="Lslash" unicode="&#x141;" horiz-adv-x="560" 
d="M40 212l19 108l88 63l63 360h140l-46 -258l116 87l-19 -108l-116 -87l-47 -260h315l-18 -117h-456l49 276z" />
    <glyph glyph-name="Oslash" unicode="&#xd8;" horiz-adv-x="715" 
d="M743 510c0 -37 -4 -75 -10 -111l-15 -88c-40 -239 -158 -327 -354 -327c-76 0 -136 16 -180 50l-42 -48h-138l118 133c-13 33 -20 73 -20 120c0 34 3 68 9 104l16 88c43 239 172 326 358 326c69 0 126 -13 168 -40l35 39h138l-106 -119c15 -35 23 -77 23 -127zM597 415
c5 28 9 69 10 94l-334 -375c23 -21 56 -30 100 -30c117 0 177 56 208 224zM248 327c-4 -23 -8 -52 -9 -76l326 366c-22 15 -53 21 -94 21c-110 0 -178 -58 -208 -224z" />
    <glyph glyph-name="OE" unicode="&#x152;" horiz-adv-x="989" 
d="M957 114l-19 -114h-432c-53 -8 -94 -16 -154 -16c-159 0 -252 81 -252 255c0 31 4 65 10 101l16 90c44 245 174 327 356 327c62 0 107 -6 155 -14h432l-19 -115h-333l-36 -190h312l-18 -111h-312l-40 -213h334zM485 112c0 0 27 151 94 517c-44 6 -69 9 -105 9
c-107 0 -182 -56 -212 -223l-16 -89c-6 -34 -9 -62 -9 -85c0 -99 54 -137 139 -137c36 0 58 1 109 8z" />
    <glyph glyph-name="ordmasculine" unicode="&#xba;" horiz-adv-x="450" 
d="M508 648c0 -14 -3 -31 -5 -46l-5 -32c-18 -116 -89 -158 -201 -158c-96 0 -144 46 -144 132c0 14 0 29 3 46l5 32c18 116 90 157 200 157c96 0 147 -45 147 -131zM411 647c0 38 -20 53 -63 53c-51 0 -82 -23 -92 -88l-5 -32c-2 -14 -3 -26 -3 -35c0 -38 20 -53 62 -53
c53 0 82 23 92 88l5 32c2 14 4 26 4 35z" />
    <glyph glyph-name="ae" unicode="&#xe6;" horiz-adv-x="936" 
d="M946 376c0 -25 -3 -52 -17 -136h-376l-2 -10c-4 -20 -6 -39 -6 -56c0 -51 24 -84 128 -84c71 0 148 6 208 14l-16 -95c-45 -11 -129 -23 -218 -23c-102 0 -160 22 -193 67c-79 -49 -156 -67 -243 -67c-94 0 -142 47 -142 129c0 14 1 28 7 66c27 147 136 156 294 156h67
l7 35c3 17 5 32 5 43c0 42 -25 54 -103 54c-58 0 -114 -4 -180 -11l15 88c25 10 112 31 203 31c106 0 147 -19 170 -52c45 32 101 51 180 51c153 0 212 -82 212 -200zM819 382c0 48 -21 89 -103 89c-106 0 -134 -72 -146 -136l-2 -9h245c4 24 6 41 6 56zM427 256h-70
c-97 0 -140 -11 -154 -85c-5 -32 -6 -38 -6 -43c0 -37 28 -48 68 -48c54 0 113 22 136 34z" />
    <glyph glyph-name="dotlessi" unicode="&#x131;" horiz-adv-x="287" 
d="M210 0h-133l98 562h132z" />
    <glyph glyph-name="lslash" unicode="&#x142;" horiz-adv-x="324" 
d="M229 0h-132l51 290l-76 -60l19 111l76 60l66 376h133l-46 -248l75 59l-20 -111l-74 -58z" />
    <glyph glyph-name="oslash" unicode="&#xf8;" horiz-adv-x="610" 
d="M620 381c0 -26 -6 -61 -8 -79l-13 -70c-33 -177 -131 -247 -290 -247c-62 0 -111 12 -147 36l-42 -45h-112l100 107c-13 27 -19 60 -19 98c0 28 2 56 7 81l12 70c31 178 134 245 290 245c59 0 108 -11 144 -33l28 30h112l-84 -90c14 -28 22 -62 22 -103zM482 316
c4 22 5 37 6 51l-240 -255c16 -10 39 -15 71 -15c95 0 131 41 150 149zM224 246c-3 -16 -5 -31 -6 -46l237 251c-16 9 -38 14 -69 14c-91 0 -130 -41 -149 -149z" />
    <glyph glyph-name="oe" unicode="&#x153;" horiz-adv-x="986" 
d="M995 378c0 -26 -3 -68 -18 -138h-376l-2 -10c-5 -21 -7 -41 -7 -59c0 -49 24 -81 130 -81c69 0 147 6 206 14l-16 -95c-43 -11 -128 -23 -217 -23c-105 0 -160 30 -189 71c-50 -44 -109 -72 -205 -72c-139 0 -213 70 -213 201c0 23 3 46 20 142c30 177 133 249 297 249
c86 0 145 -25 177 -70c48 46 116 70 194 70c161 0 219 -82 219 -199zM867 383c0 47 -20 89 -102 89c-105 0 -134 -70 -145 -125l-4 -21h244c5 24 7 42 7 57zM489 375c0 64 -33 92 -102 92c-85 0 -130 -43 -150 -151c-17 -93 -19 -112 -19 -129c0 -64 32 -91 101 -91
c86 0 131 42 151 150l12 70c4 23 7 42 7 59z" />
    <glyph glyph-name="germandbls" unicode="&#xdf;" horiz-adv-x="664" 
d="M75 0l91 516c33 183 116 271 315 271c154 0 218 -77 218 -175c0 -87 -39 -163 -126 -205c55 -26 81 -79 81 -142c0 -176 -110 -274 -294 -274c-19 0 -44 2 -74 5l16 103c25 -1 42 -1 50 -1c115 0 173 67 173 169c0 57 -38 87 -130 87h-45l15 95h46c99 0 160 53 160 149
c0 48 -27 78 -109 78c-97 0 -142 -42 -167 -172l-88 -504h-132z" />
    <glyph glyph-name="one.superior" unicode="&#xb9;" horiz-adv-x="418" 
d="M422 336h-291l13 75l93 3l49 271l-97 -28l14 84l130 43h76l-67 -370l93 -3z" />
    <glyph glyph-name="logicalnot" unicode="&#xac;" horiz-adv-x="689" 
d="M655 207h-105v251h-363v110h468v-361z" />
    <glyph glyph-name="mu" unicode="&#xb5;" horiz-adv-x="678" 
d="M680 562l-98 -562h-127l7 45c-68 -32 -126 -50 -178 -54c-25 0 -45 2 -62 7l-36 -203h-132l135 767h131l-62 -357c-4 -22 -7 -40 -7 -55c0 -40 19 -55 67 -55c38 0 90 15 154 39l75 428h133z" />
    <glyph glyph-name="trademark" unicode="&#x2122;" horiz-adv-x="931" 
d="M937 341h-95v203c0 24 1 50 2 73c-10 -19 -20 -39 -31 -56l-55 -82h-59l-54 82c-10 15 -22 38 -32 56c1 -23 2 -49 2 -73v-203h-94v406h101l81 -131c9 -15 17 -29 25 -46c10 17 16 30 26 46l82 131h101v-406zM460 672h-118v-331h-98v331h-118v75h334v-75z" />
    <glyph glyph-name="Eth" unicode="&#xd0;" horiz-adv-x="706" 
d="M738 502c0 -31 -4 -64 -10 -100l-18 -95c-37 -218 -152 -313 -399 -313c-79 0 -154 2 -232 6l59 328h-53l19 109h51l55 306c75 4 147 6 222 6c229 0 306 -89 306 -247zM599 507c0 94 -57 124 -177 124h-93l-37 -194h131l-18 -109h-130l-40 -217h93c141 0 215 44 245 215
l18 94c6 36 8 64 8 87z" />
    <glyph glyph-name="onehalf" unicode="&#xbd;" horiz-adv-x="1064" 
d="M946 744l-616 -744h-118l615 744h119zM405 301h-291l13 74l92 4l50 271l-98 -29l14 85l131 43h76l-67 -370l92 -4zM753 372l11 66c29 8 103 18 156 18c110 0 160 -37 160 -104c0 -86 -68 -118 -155 -156c-100 -43 -116 -56 -126 -111l-1 -5h227l-13 -80h-331l9 55
c18 110 64 152 179 202c61 26 105 43 105 84c0 29 -23 38 -83 38c-37 0 -100 -4 -138 -7z" />
    <glyph glyph-name="plusminus" unicode="&#xb1;" horiz-adv-x="689" 
d="M674 0h-507v94h507v-94zM678 375h-205v-197h-102v197h-206v109h206v197h102v-197h205v-109z" />
    <glyph glyph-name="Thorn" unicode="&#xde;" horiz-adv-x="656" 
d="M697 434c0 -16 -2 -36 -7 -67c-34 -200 -186 -221 -359 -221h-90l-26 -146h-136l131 743h136l-21 -117h81c165 0 291 -40 291 -192zM558 426c0 70 -58 84 -165 84c-30 0 -59 0 -88 -1l-45 -245h87c123 0 190 20 206 118c4 24 5 34 5 44z" />
    <glyph glyph-name="onequarter" unicode="&#xbc;" horiz-adv-x="972" 
d="M946 744l-616 -744h-118l615 744h119zM404 300h-290l12 75l93 3l50 271l-99 -28l15 84l130 44h76l-66 -371l92 -3zM855 0h-105l18 102h-219l13 76l279 268h92l-47 -269h65l-13 -75h-65zM785 177l28 154l-163 -154h135z" />
    <glyph glyph-name="divide" unicode="&#xf7;" horiz-adv-x="689" 
d="M487 91h-131v146h131v-146zM667 442v-108h-492v108h492zM487 536h-131v145h131v-145z" />
    <glyph glyph-name="brokenbar" unicode="&#xa6;" horiz-adv-x="340" 
d="M311 -203h-131v392h131v-392zM311 743v-392h-131v392h131z" />
    <glyph glyph-name="degree" unicode="&#xb0;" horiz-adv-x="443" 
d="M480 590c0 -94 -77 -168 -172 -168c-96 0 -172 74 -172 168c0 93 76 168 172 168c95 0 172 -75 172 -168zM398 590c0 51 -41 87 -91 87s-90 -36 -90 -87s40 -88 90 -88s91 37 91 88z" />
    <glyph glyph-name="thorn" unicode="&#xfe;" horiz-adv-x="615" 
d="M627 405c0 -32 -6 -76 -21 -160c-37 -209 -136 -259 -294 -259c-35 0 -82 5 -109 12l-37 -204h-132l175 984h126l-45 -252c57 35 116 51 167 51c113 0 170 -54 170 -172zM495 383c0 62 -30 82 -89 82c-36 0 -69 -7 -127 -31l-60 -328c36 -7 70 -11 102 -11
c86 0 129 26 156 165c15 76 18 104 18 123z" />
    <glyph glyph-name="threequarters" unicode="&#xbe;" horiz-adv-x="1025" 
d="M968 744l-617 -744h-119l617 744h119zM902 0h-105l18 102h-219l13 76l279 268h92l-47 -269h65l-13 -75h-65zM832 177l28 154l-163 -154h135zM503 656c0 -22 -6 -45 -18 -63c-11 -25 -31 -45 -58 -59c30 -16 40 -47 40 -77c0 -22 -3 -41 -9 -57
c-24 -79 -94 -106 -199 -106c-59 0 -124 12 -149 21l12 66c35 -4 87 -9 140 -9c51 0 83 11 96 49c5 12 6 25 6 40c0 23 -13 36 -64 36h-131l12 72h132c40 0 65 12 78 41c4 11 6 23 6 36c0 28 -21 37 -79 37c-50 0 -111 -5 -142 -7l11 66c21 7 94 19 154 19
c107 0 162 -32 162 -105z" />
    <glyph glyph-name="two.superior" unicode="&#xb2;" horiz-adv-x="454" 
d="M199 708l12 66c28 8 102 18 155 18c111 0 161 -37 161 -104c0 -86 -68 -118 -155 -156c-100 -43 -116 -56 -126 -111l-1 -5h227l-13 -80h-331l9 55c18 110 65 150 179 202c68 31 105 43 105 84c0 29 -23 38 -83 38c-38 0 -100 -4 -139 -7z" />
    <glyph glyph-name="registered" unicode="&#xae;" horiz-adv-x="675" 
d="M689 475c0 -176 -107 -289 -272 -289c-166 0 -273 113 -273 289s107 289 273 289c165 0 272 -113 272 -289zM621 475c0 140 -77 225 -204 225c-128 0 -205 -85 -205 -225c0 -142 77 -226 205 -226c127 0 204 84 204 226zM560 328h-82l-72 111h-32v-111h-70v310
c39 2 57 2 93 2c79 0 140 -16 140 -101c0 -46 -22 -75 -59 -87zM466 539c0 44 -28 44 -84 44h-8v-91c62 0 92 2 92 47z" />
    <glyph glyph-name="minus" unicode="&#x2212;" horiz-adv-x="689" 
d="M667 334h-492v108h492v-108z" />
    <glyph glyph-name="eth" unicode="&#xf0;" horiz-adv-x="610" 
d="M627 441c0 -42 -6 -91 -26 -200c-31 -180 -130 -256 -293 -256c-148 0 -219 71 -219 195c0 28 2 55 19 145c30 177 133 236 290 236c38 0 75 -7 103 -24c-18 62 -52 98 -102 123l-142 -85l-31 48l104 63c-37 8 -74 11 -105 11c-12 0 -21 0 -27 -1l15 89c15 1 30 2 41 2
c69 0 127 -10 175 -27l87 54l32 -48l-56 -36c93 -55 135 -160 135 -289zM487 364c0 54 -22 85 -102 85c-91 0 -130 -42 -149 -146c-16 -82 -17 -100 -17 -122c0 -60 28 -84 101 -84c95 0 130 41 151 159c15 75 16 91 16 108z" />
    <glyph glyph-name="multiply" unicode="&#xd7;" horiz-adv-x="689" 
d="M641 241l-71 -74l-148 145l-150 -146l-71 73l151 148l-151 146l70 74l151 -146l149 146l71 -75l-150 -146z" />
    <glyph glyph-name="three.superior" unicode="&#xb3;" horiz-adv-x="453" 
d="M515 688c0 -49 -30 -98 -76 -123c29 -15 40 -47 40 -78c0 -123 -86 -162 -208 -162c-60 0 -124 11 -149 20l11 66c36 -4 88 -8 141 -8c65 0 102 18 102 88c0 23 -13 37 -64 37h-131l12 73h132c52 0 84 23 84 77c0 28 -21 37 -80 37c-49 0 -111 -6 -141 -8l11 67
c21 7 94 18 154 18c107 0 162 -32 162 -104z" />
    <glyph glyph-name="copyright" unicode="&#xa9;" horiz-adv-x="852" 
d="M861 375c0 -240 -151 -374 -360 -374s-361 134 -361 374c0 239 152 374 361 374s360 -134 360 -374zM780 375c0 188 -115 299 -279 299c-165 0 -278 -111 -278 -299c0 -189 113 -300 278 -300c164 0 279 111 279 300zM509 160c-125 0 -187 68 -187 187v56
c0 121 62 187 187 187c39 0 92 -5 114 -12v-76c-43 5 -78 6 -106 6c-74 0 -95 -27 -95 -105v-56c0 -77 21 -106 95 -106c28 0 63 2 106 6v-75c-22 -7 -75 -12 -114 -12z" />
    <glyph glyph-name="Aacute" unicode="&#xc1;" horiz-adv-x="705" 
d="M679 0h-144l-26 209h-239l-104 -209h-145l355 743h209zM501 323l-25 205c-5 38 -6 77 -5 118h-9c-15 -41 -30 -80 -48 -118l-98 -205h185zM737 938l-184 -149h-127l158 149h153z" />
    <glyph glyph-name="Acircumflex" unicode="&#xc2;" horiz-adv-x="705" 
d="M679 0h-144l-26 209h-239l-104 -209h-145l355 743h209zM501 323l-25 205c-5 38 -6 77 -5 118h-9c-15 -41 -30 -80 -48 -118l-98 -205h185zM706 789h-117l-78 91l-113 -91h-125l161 149h164z" />
    <glyph glyph-name="Adieresis" unicode="&#xc4;" horiz-adv-x="705" 
d="M679 0h-144l-26 209h-239l-104 -209h-145l355 743h209zM501 323l-25 205c-5 38 -6 77 -5 118h-9c-15 -41 -30 -80 -48 -118l-98 -205h185zM691 927l-22 -124h-110l21 124h111zM338 927h112l-22 -124h-111z" />
    <glyph glyph-name="Agrave" unicode="&#xc0;" horiz-adv-x="705" 
d="M679 0h-144l-26 209h-239l-104 -209h-145l355 743h209zM501 323l-25 205c-5 38 -6 77 -5 118h-9c-15 -41 -30 -80 -48 -118l-98 -205h185zM598 789h-125l-132 149h153z" />
    <glyph glyph-name="Aring" unicode="&#xc5;" horiz-adv-x="705" 
d="M679 0h-144l-26 209h-239l-104 -209h-145l355 743h209zM501 323l-25 205c-5 38 -6 77 -5 118h-9c-15 -41 -30 -80 -48 -118l-98 -205h185zM624 889c0 -78 -55 -116 -128 -116c-74 0 -131 38 -131 116c0 79 57 117 131 117c73 0 128 -38 128 -117zM551 889
c0 38 -24 51 -55 51c-32 0 -56 -13 -56 -51c0 -36 23 -51 56 -51c31 0 55 15 55 51z" />
    <glyph glyph-name="Atilde" unicode="&#xc3;" horiz-adv-x="705" 
d="M679 0h-144l-26 209h-239l-104 -209h-145l355 743h209zM501 323l-25 205c-5 38 -6 77 -5 118h-9c-15 -41 -30 -80 -48 -118l-98 -205h185zM730 945c-9 -122 -63 -161 -127 -161c-41 0 -72 11 -106 35l-39 28c-19 15 -32 24 -50 24c-27 0 -40 -21 -48 -81h-82
c12 125 66 161 134 161c39 0 64 -9 97 -33l40 -29c18 -14 33 -24 53 -24c27 0 43 23 47 80h81z" />
    <glyph glyph-name="Ccedilla" unicode="&#xc7;" horiz-adv-x="587" 
d="M686 738l-19 -110c-47 4 -117 9 -175 9c-127 0 -193 -45 -225 -215l-19 -101c-6 -33 -9 -61 -9 -84c0 -102 54 -132 156 -132c58 0 130 4 178 8l-17 -110c-35 -7 -126 -19 -190 -19c-162 0 -267 62 -267 242c0 33 2 70 10 111l19 100c50 265 183 320 374 320
c65 0 151 -11 184 -19zM414 -65l-160 -141h-125l136 141h149z" />
    <glyph glyph-name="Eacute" unicode="&#xc9;" horiz-adv-x="604" 
d="M683 743l-19 -115h-334l-35 -190h312l-18 -111h-313l-39 -213h333l-18 -114h-473l131 743h473zM706 938l-184 -149h-127l158 149h153z" />
    <glyph glyph-name="Ecircumflex" unicode="&#xca;" horiz-adv-x="604" 
d="M683 743l-19 -115h-334l-35 -190h312l-18 -111h-313l-39 -213h333l-18 -114h-473l131 743h473zM671 789h-117l-78 91l-113 -91h-125l161 149h164z" />
    <glyph glyph-name="Edieresis" unicode="&#xcb;" horiz-adv-x="604" 
d="M683 743l-19 -115h-334l-35 -190h312l-18 -111h-313l-39 -213h333l-18 -114h-473l131 743h473zM655 927l-22 -124h-110l21 124h111zM302 927h112l-22 -124h-111z" />
    <glyph glyph-name="Egrave" unicode="&#xc8;" horiz-adv-x="604" 
d="M683 743l-19 -115h-334l-35 -190h312l-18 -111h-313l-39 -213h333l-18 -114h-473l131 743h473zM535 789h-125l-132 149h153z" />
    <glyph glyph-name="Iacute" unicode="&#xcd;" horiz-adv-x="298" 
d="M350 743l-131 -743h-140l131 743h140zM530 937l-184 -149h-127l158 149h153z" />
    <glyph glyph-name="Icircumflex" unicode="&#xce;" horiz-adv-x="298" 
d="M350 743l-131 -743h-140l131 743h140zM504 789h-117l-78 91l-113 -91h-125l161 149h164z" />
    <glyph glyph-name="Idieresis" unicode="&#xcf;" horiz-adv-x="298" 
d="M350 743l-131 -743h-140l131 743h140zM489 927l-22 -124h-110l21 124h111zM136 927h112l-22 -124h-111z" />
    <glyph glyph-name="Igrave" unicode="&#xcc;" horiz-adv-x="298" 
d="M350 743l-131 -743h-140l131 743h140zM394 789h-125l-132 149h153z" />
    <glyph glyph-name="Ntilde" unicode="&#xd1;" horiz-adv-x="741" 
d="M795 743l-131 -743h-163l-156 448c-12 34 -25 74 -37 111c-6 -42 -13 -89 -21 -134l-80 -425h-128l133 743h161l156 -439c12 -33 26 -78 39 -114c4 45 13 97 21 142l76 411h130zM744 944c-9 -122 -63 -161 -127 -161c-41 0 -72 11 -106 35l-39 28c-19 15 -32 24 -50 24
c-27 0 -40 -21 -48 -81h-82c12 125 66 161 134 161c39 0 64 -9 97 -33l40 -29c18 -14 33 -24 53 -24c27 0 43 23 47 80h81z" />
    <glyph glyph-name="Oacute" unicode="&#xd3;" horiz-adv-x="715" 
d="M743 510c0 -37 -4 -75 -10 -111l-15 -88c-41 -239 -158 -327 -354 -327c-171 0 -262 84 -262 255c0 34 2 68 9 104l16 88c44 240 172 326 358 326c168 0 258 -74 258 -247zM607 513c0 92 -41 125 -136 125c-109 0 -179 -58 -208 -224l-15 -87c-5 -28 -9 -67 -9 -92
c0 -95 47 -131 134 -131c117 0 177 56 208 224l16 87c5 30 9 73 10 98zM728 938l-184 -149h-127l158 149h153z" />
    <glyph glyph-name="Ocircumflex" unicode="&#xd4;" horiz-adv-x="715" 
d="M743 510c0 -37 -4 -75 -10 -111l-15 -88c-41 -239 -158 -327 -354 -327c-171 0 -262 84 -262 255c0 34 2 68 9 104l16 88c44 240 172 326 358 326c168 0 258 -74 258 -247zM607 513c0 92 -41 125 -136 125c-109 0 -179 -58 -208 -224l-15 -87c-5 -28 -9 -67 -9 -92
c0 -95 47 -131 134 -131c117 0 177 56 208 224l16 87c5 30 9 73 10 98zM711 788h-117l-78 91l-113 -91h-125l161 149h164z" />
    <glyph glyph-name="Odieresis" unicode="&#xd6;" horiz-adv-x="715" 
d="M743 510c0 -37 -4 -75 -10 -111l-15 -88c-41 -239 -158 -327 -354 -327c-171 0 -262 84 -262 255c0 34 2 68 9 104l16 88c44 240 172 326 358 326c168 0 258 -74 258 -247zM607 513c0 92 -41 125 -136 125c-109 0 -179 -58 -208 -224l-15 -87c-5 -28 -9 -67 -9 -92
c0 -95 47 -131 134 -131c117 0 177 56 208 224l16 87c5 30 9 73 10 98zM695 928l-22 -124h-110l21 124h111zM342 928h112l-22 -124h-111z" />
    <glyph glyph-name="Ograve" unicode="&#xd2;" horiz-adv-x="715" 
d="M743 510c0 -37 -4 -75 -10 -111l-15 -88c-41 -239 -158 -327 -354 -327c-171 0 -262 84 -262 255c0 34 2 68 9 104l16 88c44 240 172 326 358 326c168 0 258 -74 258 -247zM607 513c0 92 -41 125 -136 125c-109 0 -179 -58 -208 -224l-15 -87c-5 -28 -9 -67 -9 -92
c0 -95 47 -131 134 -131c117 0 177 56 208 224l16 87c5 30 9 73 10 98zM595 789h-125l-132 149h153z" />
    <glyph glyph-name="Otilde" unicode="&#xd5;" horiz-adv-x="715" 
d="M743 510c0 -37 -4 -75 -10 -111l-15 -88c-41 -239 -158 -327 -354 -327c-171 0 -262 84 -262 255c0 34 2 68 9 104l16 88c44 240 172 326 358 326c168 0 258 -74 258 -247zM607 513c0 92 -41 125 -136 125c-109 0 -179 -58 -208 -224l-15 -87c-5 -28 -9 -67 -9 -92
c0 -95 47 -131 134 -131c117 0 177 56 208 224l16 87c5 30 9 73 10 98zM732 944c-9 -122 -63 -161 -127 -161c-41 0 -72 11 -106 35l-39 28c-19 15 -32 24 -50 24c-27 0 -40 -21 -48 -81h-82c12 125 66 161 134 161c39 0 64 -9 97 -33l40 -29c18 -14 33 -24 53 -24
c27 0 43 23 47 80h81z" />
    <glyph glyph-name="Scaron" unicode="&#x160;" 
d="M660 734l-17 -101c-79 8 -130 13 -210 13c-82 0 -153 -16 -153 -96c0 -37 20 -61 76 -86l108 -48c89 -40 136 -88 136 -190c0 -166 -124 -242 -307 -242c-96 0 -193 13 -230 23l16 102c54 -7 119 -12 213 -12c95 0 164 30 164 115c0 40 -20 62 -78 89l-109 50
c-79 36 -130 93 -130 189c0 170 141 217 298 217c101 0 188 -14 223 -23zM257 937h117l79 -91l112 91h126l-162 -149h-163z" />
    <glyph glyph-name="Uacute" unicode="&#xda;" horiz-adv-x="731" 
d="M789 743l-81 -455c-38 -213 -133 -304 -333 -304c-174 0 -255 86 -255 229c0 41 5 74 12 113l73 417h139l-76 -432c-7 -37 -11 -68 -11 -95c0 -81 38 -114 132 -114c125 0 161 59 187 209l76 432h137zM747 938l-184 -149h-127l158 149h153z" />
    <glyph glyph-name="Ucircumflex" unicode="&#xdb;" horiz-adv-x="731" 
d="M789 743l-81 -455c-38 -213 -133 -304 -333 -304c-174 0 -255 86 -255 229c0 41 5 74 12 113l73 417h139l-76 -432c-7 -37 -11 -68 -11 -95c0 -81 38 -114 132 -114c125 0 161 59 187 209l76 432h137zM720 789h-117l-78 91l-113 -91h-125l161 149h164z" />
    <glyph glyph-name="Udieresis" unicode="&#xdc;" horiz-adv-x="731" 
d="M789 743l-81 -455c-38 -213 -133 -304 -333 -304c-174 0 -255 86 -255 229c0 41 5 74 12 113l73 417h139l-76 -432c-7 -37 -11 -68 -11 -95c0 -81 38 -114 132 -114c125 0 161 59 187 209l76 432h137zM704 927l-22 -124h-110l21 124h111zM351 927h112l-22 -124h-111z" />
    <glyph glyph-name="Ugrave" unicode="&#xd9;" horiz-adv-x="731" 
d="M789 743l-81 -455c-38 -213 -133 -304 -333 -304c-174 0 -255 86 -255 229c0 41 5 74 12 113l73 417h139l-76 -432c-7 -37 -11 -68 -11 -95c0 -81 38 -114 132 -114c125 0 161 59 187 209l76 432h137zM589 789h-125l-132 149h153z" />
    <glyph glyph-name="Yacute" unicode="&#xdd;" horiz-adv-x="666" 
d="M780 743l-330 -465l-49 -278h-136l49 278l-166 465h141l78 -216c12 -32 24 -78 32 -115h5c20 37 51 81 75 115l157 216h144zM720 938l-184 -149h-127l158 149h153z" />
    <glyph glyph-name="Ydieresis" unicode="&#x178;" horiz-adv-x="666" 
d="M780 743l-330 -465l-49 -278h-136l49 278l-166 465h141l78 -216c12 -32 24 -78 32 -115h5c20 37 51 81 75 115l157 216h144zM673 927l-22 -124h-110l21 124h111zM320 927h112l-22 -124h-111z" />
    <glyph glyph-name="Zcaron" unicode="&#x17d;" horiz-adv-x="641" 
d="M708 743l-21 -127l-453 -500h373l-18 -116h-536l20 126l453 500h-348l19 117h511zM281 938h117l79 -91l112 91h126l-162 -149h-163z" />
    <glyph glyph-name="aacute" unicode="&#xe1;" 
d="M543 0h-124l4 29c-42 -25 -98 -43 -164 -43c-111 0 -172 65 -172 187c0 24 2 52 7 80l15 80c38 201 136 244 307 244c58 0 149 -5 225 -15zM432 121l62 342c-36 3 -82 4 -100 4c-83 0 -132 -22 -156 -150l-15 -80c-3 -23 -5 -41 -5 -57c0 -58 30 -84 95 -84
c42 0 82 10 119 25zM647 774l-184 -149h-127l158 149h153z" />
    <glyph glyph-name="acircumflex" unicode="&#xe2;" 
d="M543 0h-124l4 29c-42 -25 -98 -43 -164 -43c-111 0 -172 65 -172 187c0 24 2 52 7 80l15 80c38 201 136 244 307 244c58 0 149 -5 225 -15zM432 121l62 342c-36 3 -82 4 -100 4c-83 0 -132 -22 -156 -150l-15 -80c-3 -23 -5 -41 -5 -57c0 -58 30 -84 95 -84
c42 0 82 10 119 25zM618 625h-117l-78 91l-113 -91h-125l161 149h164z" />
    <glyph glyph-name="adieresis" unicode="&#xe4;" 
d="M543 0h-124l4 29c-42 -25 -98 -43 -164 -43c-111 0 -172 65 -172 187c0 24 2 52 7 80l15 80c38 201 136 244 307 244c58 0 149 -5 225 -15zM432 121l62 342c-36 3 -82 4 -100 4c-83 0 -132 -22 -156 -150l-15 -80c-3 -23 -5 -41 -5 -57c0 -58 30 -84 95 -84
c42 0 82 10 119 25zM604 768l-22 -124h-110l21 124h111zM251 768h112l-22 -124h-111z" />
    <glyph glyph-name="agrave" unicode="&#xe0;" 
d="M543 0h-124l4 29c-42 -25 -98 -43 -164 -43c-111 0 -172 65 -172 187c0 24 2 52 7 80l15 80c38 201 136 244 307 244c58 0 149 -5 225 -15zM432 121l62 342c-36 3 -82 4 -100 4c-83 0 -132 -22 -156 -150l-15 -80c-3 -23 -5 -41 -5 -57c0 -58 30 -84 95 -84
c42 0 82 10 119 25zM495 625h-125l-132 149h153z" />
    <glyph glyph-name="aring" unicode="&#xe5;" 
d="M543 0h-124l4 29c-42 -25 -98 -43 -164 -43c-111 0 -172 65 -172 187c0 24 2 52 7 80l15 80c38 201 136 244 307 244c58 0 149 -5 225 -15zM432 121l62 342c-36 3 -82 4 -100 4c-83 0 -132 -22 -156 -150l-15 -80c-3 -23 -5 -41 -5 -57c0 -58 30 -84 95 -84
c42 0 82 10 119 25zM545 727c0 -78 -55 -116 -128 -116c-74 0 -131 38 -131 116c0 79 57 117 131 117c73 0 128 -38 128 -117zM472 727c0 38 -24 51 -55 51c-32 0 -56 -13 -56 -51c0 -36 23 -51 56 -51c31 0 55 15 55 51z" />
    <glyph glyph-name="atilde" unicode="&#xe3;" 
d="M543 0h-124l4 29c-42 -25 -98 -43 -164 -43c-111 0 -172 65 -172 187c0 24 2 52 7 80l15 80c38 201 136 244 307 244c58 0 149 -5 225 -15zM432 121l62 342c-36 3 -82 4 -100 4c-83 0 -132 -22 -156 -150l-15 -80c-3 -23 -5 -41 -5 -57c0 -58 30 -84 95 -84
c42 0 82 10 119 25zM641 782c-9 -122 -63 -161 -127 -161c-41 0 -72 11 -106 35l-39 28c-19 15 -32 24 -50 24c-27 0 -40 -21 -48 -81h-82c12 125 66 161 134 161c39 0 64 -9 97 -33l40 -29c18 -14 33 -24 53 -24c27 0 43 23 47 80h81z" />
    <glyph glyph-name="ccedilla" unicode="&#xe7;" horiz-adv-x="505" 
d="M559 556l-16 -99c-70 6 -118 9 -150 9c-82 0 -133 -27 -155 -149l-13 -71c-4 -23 -6 -42 -6 -59c0 -73 35 -91 107 -91c31 0 80 3 152 9l-16 -99c-27 -7 -91 -21 -170 -21c-146 0 -203 78 -203 196c0 25 2 52 7 81l13 71c31 172 117 244 280 244c85 0 145 -14 170 -21z
M358 -65l-160 -141h-125l136 141h149z" />
    <glyph glyph-name="eacute" unicode="&#xe9;" horiz-adv-x="608" 
d="M617 376c0 -41 -6 -81 -17 -136h-376c-5 -29 -8 -47 -8 -62c0 -53 27 -84 130 -84c60 0 130 6 206 13l-16 -98c-44 -10 -120 -24 -215 -24c-159 0 -233 64 -233 198c0 29 3 62 10 97l7 35c38 188 141 262 293 262c147 0 219 -74 219 -201zM490 382c0 48 -20 89 -102 89
c-104 0 -135 -72 -147 -136l-1 -9h244c4 22 6 41 6 56zM669 774l-184 -149h-127l158 149h153z" />
    <glyph glyph-name="ecircumflex" unicode="&#xea;" horiz-adv-x="608" 
d="M617 376c0 -41 -6 -81 -17 -136h-376c-5 -29 -8 -47 -8 -62c0 -53 27 -84 130 -84c60 0 130 6 206 13l-16 -98c-44 -10 -120 -24 -215 -24c-159 0 -233 64 -233 198c0 29 3 62 10 97l7 35c38 188 141 262 293 262c147 0 219 -74 219 -201zM490 382c0 48 -20 89 -102 89
c-104 0 -135 -72 -147 -136l-1 -9h244c4 22 6 41 6 56zM632 625h-117l-78 91l-113 -91h-125l161 149h164z" />
    <glyph glyph-name="edieresis" unicode="&#xeb;" horiz-adv-x="608" 
d="M617 376c0 -41 -6 -81 -17 -136h-376c-5 -29 -8 -47 -8 -62c0 -53 27 -84 130 -84c60 0 130 6 206 13l-16 -98c-44 -10 -120 -24 -215 -24c-159 0 -233 64 -233 198c0 29 3 62 10 97l7 35c38 188 141 262 293 262c147 0 219 -74 219 -201zM490 382c0 48 -20 89 -102 89
c-104 0 -135 -72 -147 -136l-1 -9h244c4 22 6 41 6 56zM614 769l-22 -124h-110l21 124h111zM261 769h112l-22 -124h-111z" />
    <glyph glyph-name="egrave" unicode="&#xe8;" horiz-adv-x="608" 
d="M617 376c0 -41 -6 -81 -17 -136h-376c-5 -29 -8 -47 -8 -62c0 -53 27 -84 130 -84c60 0 130 6 206 13l-16 -98c-44 -10 -120 -24 -215 -24c-159 0 -233 64 -233 198c0 29 3 62 10 97l7 35c38 188 141 262 293 262c147 0 219 -74 219 -201zM490 382c0 48 -20 89 -102 89
c-104 0 -135 -72 -147 -136l-1 -9h244c4 22 6 41 6 56zM518 625h-125l-132 149h153z" />
    <glyph glyph-name="iacute" unicode="&#xed;" horiz-adv-x="287" 
d="M485 774l-184 -149h-127l158 149h153zM210 0h-133l98 562h132z" />
    <glyph glyph-name="icircumflex" unicode="&#xee;" horiz-adv-x="287" 
d="M210 0h-133l98 562h132zM467 625h-117l-78 91l-113 -91h-125l161 149h164z" />
    <glyph glyph-name="idieresis" unicode="&#xef;" horiz-adv-x="287" 
d="M455 768l-22 -124h-110l21 124h111zM102 768h112l-22 -124h-111zM210 0h-133l98 562h132z" />
    <glyph glyph-name="igrave" unicode="&#xec;" horiz-adv-x="287" 
d="M348 625h-125l-132 149h153zM210 0h-133l98 562h132z" />
    <glyph glyph-name="ntilde" unicode="&#xf1;" horiz-adv-x="634" 
d="M633 432c0 -28 -5 -60 -10 -91l-59 -341h-132l62 355c3 20 6 37 6 52c0 41 -18 59 -67 59c-42 0 -93 -12 -153 -41l-75 -425h-132l98 562h126l-6 -42c66 39 131 57 188 57c119 0 154 -62 154 -145zM660 782c-9 -122 -63 -161 -127 -161c-41 0 -72 11 -106 35l-39 28
c-19 15 -32 24 -50 24c-27 0 -40 -21 -48 -81h-82c12 125 66 161 134 161c39 0 64 -9 97 -33l40 -29c18 -14 33 -24 53 -24c27 0 43 23 47 80h81z" />
    <glyph glyph-name="oacute" unicode="&#xf3;" horiz-adv-x="610" 
d="M620 381c0 -26 -6 -61 -8 -79l-13 -70c-33 -177 -131 -247 -290 -247c-147 0 -220 70 -220 196c0 28 3 56 7 81l12 70c31 178 134 245 290 245c143 0 222 -62 222 -196zM488 379c0 55 -22 86 -102 86c-92 0 -129 -41 -149 -149l-13 -70c-4 -23 -6 -43 -6 -65
c0 -59 28 -84 101 -84c96 0 130 41 150 149l13 70c5 28 6 45 6 63zM651 774l-184 -149h-127l158 149h153z" />
    <glyph glyph-name="ocircumflex" unicode="&#xf4;" horiz-adv-x="610" 
d="M620 381c0 -26 -6 -61 -8 -79l-13 -70c-33 -177 -131 -247 -290 -247c-147 0 -220 70 -220 196c0 28 3 56 7 81l12 70c31 178 134 245 290 245c143 0 222 -62 222 -196zM488 379c0 55 -22 86 -102 86c-92 0 -129 -41 -149 -149l-13 -70c-4 -23 -6 -43 -6 -65
c0 -59 28 -84 101 -84c96 0 130 41 150 149l13 70c5 28 6 45 6 63zM631 625h-117l-78 91l-113 -91h-125l161 149h164z" />
    <glyph glyph-name="odieresis" unicode="&#xf6;" horiz-adv-x="610" 
d="M620 381c0 -26 -6 -61 -8 -79l-13 -70c-33 -177 -131 -247 -290 -247c-147 0 -220 70 -220 196c0 28 3 56 7 81l12 70c31 178 134 245 290 245c143 0 222 -62 222 -196zM488 379c0 55 -22 86 -102 86c-92 0 -129 -41 -149 -149l-13 -70c-4 -23 -6 -43 -6 -65
c0 -59 28 -84 101 -84c96 0 130 41 150 149l13 70c5 28 6 45 6 63zM615 768l-22 -124h-110l21 124h111zM262 768h112l-22 -124h-111z" />
    <glyph glyph-name="ograve" unicode="&#xf2;" horiz-adv-x="610" 
d="M620 381c0 -26 -6 -61 -8 -79l-13 -70c-33 -177 -131 -247 -290 -247c-147 0 -220 70 -220 196c0 28 3 56 7 81l12 70c31 178 134 245 290 245c143 0 222 -62 222 -196zM488 379c0 55 -22 86 -102 86c-92 0 -129 -41 -149 -149l-13 -70c-4 -23 -6 -43 -6 -65
c0 -59 28 -84 101 -84c96 0 130 41 150 149l13 70c5 28 6 45 6 63zM511 625h-125l-132 149h153z" />
    <glyph glyph-name="otilde" unicode="&#xf5;" horiz-adv-x="610" 
d="M620 381c0 -26 -6 -61 -8 -79l-13 -70c-33 -177 -131 -247 -290 -247c-147 0 -220 70 -220 196c0 28 3 56 7 81l12 70c31 178 134 245 290 245c143 0 222 -62 222 -196zM488 379c0 55 -22 86 -102 86c-92 0 -129 -41 -149 -149l-13 -70c-4 -23 -6 -43 -6 -65
c0 -59 28 -84 101 -84c96 0 130 41 150 149l13 70c5 28 6 45 6 63zM653 782c-9 -122 -63 -161 -127 -161c-41 0 -72 11 -106 35l-39 28c-19 15 -32 24 -50 24c-27 0 -40 -21 -48 -81h-82c12 125 66 161 134 161c39 0 64 -9 97 -33l40 -29c18 -14 33 -24 53 -24
c27 0 43 23 47 80h81z" />
    <glyph glyph-name="scaron" unicode="&#x161;" horiz-adv-x="512" 
d="M544 555l-15 -91c-68 8 -128 12 -172 12c-49 0 -108 -4 -108 -62c0 -29 18 -38 72 -62l43 -19c98 -44 139 -79 139 -160c0 -133 -105 -187 -261 -187c-78 0 -164 14 -187 22l15 90c50 -6 103 -11 183 -11c65 0 117 11 117 69c0 33 -17 44 -85 74l-39 17
c-86 38 -129 81 -129 159c0 142 118 171 238 171c83 0 150 -11 189 -22zM178 774h117l79 -91l112 91h126l-162 -149h-163z" />
    <glyph glyph-name="uacute" unicode="&#xfa;" horiz-adv-x="635" 
d="M659 562l-99 -562h-126l7 45c-67 -36 -132 -60 -199 -60c-112 0 -143 65 -143 145c0 29 4 59 9 88l61 344h131l-62 -357c-4 -24 -7 -42 -7 -58c0 -39 18 -52 62 -52c42 0 95 15 158 39l76 428h132zM678 774l-184 -149h-127l158 149h153z" />
    <glyph glyph-name="ucircumflex" unicode="&#xfb;" horiz-adv-x="635" 
d="M659 562l-99 -562h-126l7 45c-67 -36 -132 -60 -199 -60c-112 0 -143 65 -143 145c0 29 4 59 9 88l61 344h131l-62 -357c-4 -24 -7 -42 -7 -58c0 -39 18 -52 62 -52c42 0 95 15 158 39l76 428h132zM645 625h-117l-78 91l-113 -91h-125l161 149h164z" />
    <glyph glyph-name="udieresis" unicode="&#xfc;" horiz-adv-x="635" 
d="M659 562l-99 -562h-126l7 45c-67 -36 -132 -60 -199 -60c-112 0 -143 65 -143 145c0 29 4 59 9 88l61 344h131l-62 -357c-4 -24 -7 -42 -7 -58c0 -39 18 -52 62 -52c42 0 95 15 158 39l76 428h132zM630 768l-22 -124h-110l21 124h111zM277 768h112l-22 -124h-111z" />
    <glyph glyph-name="ugrave" unicode="&#xf9;" horiz-adv-x="635" 
d="M659 562l-99 -562h-126l7 45c-67 -36 -132 -60 -199 -60c-112 0 -143 65 -143 145c0 29 4 59 9 88l61 344h131l-62 -357c-4 -24 -7 -42 -7 -58c0 -39 18 -52 62 -52c42 0 95 15 158 39l76 428h132zM513 625h-125l-132 149h153z" />
    <glyph glyph-name="yacute" unicode="&#xfd;" horiz-adv-x="594" 
d="M669 562l-298 -583c-67 -131 -121 -198 -245 -198c-54 0 -104 6 -131 12l15 94c46 -2 70 -3 95 -3c64 0 80 22 114 86l18 34l-110 558h137l45 -299c7 -49 9 -95 15 -149c22 54 39 97 64 150l143 298h138zM659 774l-184 -149h-127l158 149h153z" />
    <glyph glyph-name="ydieresis" unicode="&#xff;" horiz-adv-x="594" 
d="M669 562l-298 -583c-67 -131 -121 -198 -245 -198c-54 0 -104 6 -131 12l15 94c46 -2 70 -3 95 -3c64 0 80 22 114 86l18 34l-110 558h137l45 -299c7 -49 9 -95 15 -149c22 54 39 97 64 150l143 298h138zM617 768l-22 -124h-110l21 124h111zM264 768h112l-22 -124h-111z
" />
    <glyph glyph-name="zcaron" unicode="&#x17e;" horiz-adv-x="518" 
d="M571 562l-19 -115l-351 -343h290l-17 -104h-434l19 118l349 339h-276l17 105h422zM191 774h117l79 -91l112 91h126l-162 -149h-163z" />
    <glyph glyph-name="dollar.oldstyle" horiz-adv-x="548" 
d="M68 6l15 94c39 -2 103 -6 183 -6c55 0 115 16 115 75c0 26 -17 41 -72 65l-71 31c-72 31 -113 78 -113 154c0 119 83 162 194 177l16 91h110l-16 -88c60 -3 115 -13 140 -19l-15 -93c-45 3 -116 8 -181 8c-50 0 -113 -8 -113 -64c0 -23 14 -40 63 -61l73 -32
c84 -36 122 -80 122 -154c0 -121 -84 -181 -195 -192l-17 -97h-110l17 93c-60 3 -117 11 -145 18z" />
    <glyph glyph-name="dollar.superior" horiz-adv-x="427" 
d="M112 340l12 73c24 -1 81 -5 141 -5c47 0 88 10 88 53c0 27 -15 35 -59 53l-43 18c-62 25 -96 61 -96 122c0 87 71 125 147 133l14 78h92l-13 -75c46 -3 89 -10 105 -14l-13 -76c-41 4 -93 9 -140 9c-34 0 -87 -6 -87 -47c0 -20 11 -32 54 -48l46 -18
c68 -27 101 -57 101 -121c0 -79 -55 -132 -147 -145l-14 -81h-92l13 78c-45 1 -87 8 -109 13z" />
    <glyph glyph-name="parenleft.superior" unicode="&#x207d;" horiz-adv-x="284" 
d="M319 787c-83 -99 -136 -220 -136 -340c0 -83 17 -143 41 -191h-93c-22 38 -46 108 -46 204c0 115 48 232 139 327h95z" />
    <glyph glyph-name="parenright.superior" unicode="&#x207e;" horiz-adv-x="284" 
d="M86 259c83 100 136 228 136 352c0 78 -17 132 -40 180h92c22 -38 45 -108 45 -194c0 -125 -49 -242 -138 -338h-95z" />
    <glyph glyph-name="twodotenleader" unicode="&#x2025;" horiz-adv-x="518" 
d="M462 0h-135l25 153h135zM218 0h-135l25 153h136z" />
    <glyph glyph-name="onedotenleader" unicode="&#x2024;" horiz-adv-x="271" 
d="M202 0h-133l26 154h133z" />
    <glyph glyph-name="zero.oldstyle" horiz-adv-x="672" 
d="M676 377c0 -24 -2 -50 -14 -117c-33 -188 -146 -275 -331 -275c-156 0 -237 82 -237 223c0 24 3 50 15 117c34 187 145 274 330 274c157 0 237 -82 237 -222zM538 378c0 79 -48 106 -118 106c-84 0 -149 -42 -173 -172c-12 -65 -14 -86 -14 -104c0 -80 48 -107 117 -107
c85 0 150 43 174 172c12 65 14 87 14 105z" />
    <glyph glyph-name="one.oldstyle" horiz-adv-x="548" 
d="M500 0h-452l17 108l161 6l62 337l-171 -53l21 122l210 71h101l-85 -477l153 -6z" />
    <glyph glyph-name="two.oldstyle" horiz-adv-x="620" 
d="M149 475l17 97c57 16 160 27 232 27c181 0 247 -47 247 -146c0 -132 -97 -200 -258 -286l-96 -51h288l-19 -116h-504l19 116l197 106c140 75 230 123 230 207c0 44 -40 60 -142 60c-56 0 -153 -8 -211 -14z" />
    <glyph glyph-name="three.oldstyle" horiz-adv-x="624" 
d="M566 106c0 -217 -136 -280 -323 -280c-90 0 -187 19 -220 31l16 96c42 -6 132 -15 212 -15c96 0 153 19 170 112c6 33 8 45 8 57c0 40 -25 64 -103 64h-208l16 104h209c121 0 142 70 142 146c0 51 -36 67 -135 67c-78 0 -157 -7 -214 -13l16 97c25 8 137 27 227 27
c163 0 246 -45 246 -163c0 -92 -32 -172 -123 -214c47 -26 64 -73 64 -116z" />
    <glyph glyph-name="four.oldstyle" horiz-adv-x="684" 
d="M636 23h-105l-32 -179h-140l32 179h-346l19 115l434 449h132l-81 -455h106zM414 132l53 287l-284 -287h231z" />
    <glyph glyph-name="five.oldstyle" horiz-adv-x="613" 
d="M634 577l-19 -114h-327l-48 -173h86c178 0 248 -56 248 -165c0 -21 -2 -43 -10 -89c-29 -168 -143 -218 -324 -218c-102 0 -192 19 -221 27l16 99c43 -4 125 -15 203 -15c122 0 170 29 187 119c7 36 8 49 8 59c0 55 -35 75 -146 75h-196l102 395h441z" />
    <glyph glyph-name="six.oldstyle" horiz-adv-x="660" 
d="M643 212c-37 -195 -185 -228 -311 -228c-139 0 -237 53 -237 213c0 32 4 72 10 105l32 176c33 186 112 279 341 279c96 0 189 -17 221 -25l-16 -99c-61 8 -133 13 -211 13c-151 0 -178 -61 -197 -166l-5 -30c44 11 114 19 156 19c127 0 229 -36 229 -167
c0 -17 -5 -48 -12 -90zM506 226c9 49 11 62 11 74c0 59 -45 71 -118 71c-34 0 -91 -4 -144 -15l-17 -89c-6 -31 -8 -56 -8 -77c0 -78 42 -98 120 -98c84 0 138 36 156 134z" />
    <glyph glyph-name="seven.oldstyle" horiz-adv-x="607" 
d="M647 459l-436 -615h-150l453 629h-384l19 114h519z" />
    <glyph glyph-name="eight.oldstyle" horiz-adv-x="685" 
d="M725 589c0 -114 -50 -170 -112 -205c38 -27 57 -71 57 -121c0 -21 -3 -40 -7 -63c-35 -201 -178 -216 -323 -216h-5c-127 0 -246 26 -246 177c0 121 47 189 117 223c-35 25 -54 68 -54 124c0 15 1 30 6 56c30 173 169 193 316 193h4c118 0 247 -20 247 -168zM533 268
c0 46 -22 66 -77 66h-110c-71 0 -98 -34 -113 -113c-4 -22 -6 -37 -6 -49c0 -71 52 -83 128 -83h4c86 0 146 17 167 127c5 24 7 39 7 52zM586 580c0 61 -52 72 -127 72h-4c-95 0 -168 -26 -168 -152c0 -41 19 -65 75 -65h110c71 0 97 39 109 103c4 21 5 33 5 42z" />
    <glyph glyph-name="nine.oldstyle" horiz-adv-x="660" 
d="M109 371c37 195 185 228 311 228c139 0 237 -53 237 -213c0 -32 -4 -72 -10 -105l-32 -176c-33 -186 -112 -279 -341 -279c-96 0 -189 17 -221 25l16 99c61 -8 133 -13 211 -13c151 0 178 61 197 166l5 30c-44 -11 -114 -19 -156 -19c-127 0 -229 36 -229 167
c0 17 5 48 12 90zM246 357c-9 -49 -11 -62 -11 -74c0 -59 45 -71 118 -71c34 0 91 4 144 15l17 89c6 31 8 56 8 77c0 78 -42 98 -120 98c-84 0 -138 -36 -156 -134z" />
    <glyph glyph-name="comma.superior" horiz-adv-x="254" 
d="M280 431l-98 -154h-81l80 154h99z" />
    <glyph glyph-name="period.superior" horiz-adv-x="210" 
d="M218 336h-98l16 95h98z" />
    <glyph glyph-name="a.superior" horiz-adv-x="429" 
d="M455 563c0 -13 -1 -27 -4 -42l-39 -215h-92l5 24c-25 -15 -69 -32 -122 -32c-57 0 -89 28 -89 79c0 131 85 134 196 134h38l4 19c2 9 2 17 2 24c0 25 -15 31 -62 31c-19 0 -75 -2 -119 -6l11 59c19 7 78 20 139 20c95 0 132 -30 132 -95zM343 459h-42
c-63 0 -92 -8 -92 -73c0 -19 13 -24 40 -24c33 0 67 12 80 18z" />
    <glyph glyph-name="b.superior" horiz-adv-x="432" 
d="M480 541c0 -15 -2 -32 -11 -85c-22 -122 -90 -158 -206 -158c-51 0 -86 2 -154 10l83 471h99l-23 -133c25 11 55 14 81 14c89 0 131 -41 131 -119zM381 536c0 35 -18 46 -58 46c-13 0 -46 -2 -68 -12l-34 -192c12 0 32 -3 57 -3c53 0 81 21 93 90c9 49 10 62 10 71z" />
    <glyph glyph-name="cent.superior" horiz-adv-x="395" 
d="M483 778l-14 -83c-31 3 -70 5 -99 5c-76 0 -104 -32 -120 -120l-8 -45c-4 -20 -6 -38 -6 -53c0 -48 21 -67 82 -67c36 0 76 3 101 5l-14 -83c-18 -6 -53 -11 -86 -12l-13 -77h-89l13 84c-63 14 -100 61 -100 145c0 21 2 46 6 70l8 44c21 116 75 176 167 194l14 77h89
l-14 -73c33 -2 66 -7 83 -11z" />
    <glyph glyph-name="d.superior" horiz-adv-x="448" 
d="M431 306h-94l4 19c-27 -15 -64 -28 -107 -28c-73 0 -113 44 -113 122c0 16 0 33 4 52l7 36c24 123 91 151 189 151c27 0 48 -2 70 -6l23 125h100zM346 389l34 186c-21 4 -45 6 -60 6c-49 0 -76 -13 -90 -86l-7 -37c-3 -13 -4 -24 -4 -34c0 -36 18 -50 58 -50
c24 0 48 6 69 15z" />
    <glyph glyph-name="e.superior" horiz-adv-x="427" 
d="M473 525c0 -21 -3 -42 -10 -76h-242l-1 -4c-2 -10 -3 -20 -3 -30c0 -28 14 -46 79 -46c44 0 96 4 138 9l-12 -67c-29 -6 -88 -14 -146 -14c-116 0 -155 53 -155 126c0 16 2 33 10 78c20 115 93 157 198 157c104 0 144 -53 144 -133zM379 538c0 27 -13 50 -61 50
c-62 0 -78 -37 -86 -77l-1 -5h144c3 14 4 23 4 32z" />
    <glyph glyph-name="i.superior" unicode="&#x2071;" horiz-adv-x="243" 
d="M185 649h101l-60 -343h-101zM297 698h-104l14 79h104z" />
    <glyph glyph-name="l.superior" horiz-adv-x="241" 
d="M224 306h-100l84 471h99z" />
    <glyph glyph-name="m.superior" horiz-adv-x="659" 
d="M686 569c0 -17 -3 -34 -6 -51l-38 -212h-100l39 220c2 11 4 21 4 29c0 18 -8 27 -36 27c-20 0 -48 -7 -73 -19c0 -11 -1 -22 -4 -40l-38 -217h-101l39 217c3 15 4 26 4 34c0 16 -7 25 -32 25c-24 0 -52 -11 -74 -20l-45 -256h-100l59 343h95l-5 -28c35 23 75 37 111 37
c51 0 71 -14 82 -38c47 28 86 38 120 38c78 0 99 -39 99 -89z" />
    <glyph glyph-name="n.superior" unicode="&#x207f;" horiz-adv-x="452" 
d="M489 566c0 -19 -3 -40 -7 -61l-35 -199h-101l38 212c2 12 3 22 3 31c0 23 -10 32 -39 32c-24 0 -56 -9 -89 -21l-46 -254h-100l60 343h96l-4 -26c41 22 85 35 122 35c81 0 102 -40 102 -92z" />
    <glyph glyph-name="o.superior" horiz-adv-x="427" 
d="M474 530c0 -16 -2 -31 -11 -81c-20 -113 -87 -152 -193 -152c-98 0 -149 48 -149 134c0 13 2 28 11 77c21 111 95 150 192 150c103 0 150 -45 150 -128zM375 529c0 36 -18 52 -59 52c-50 0 -76 -24 -87 -86c-9 -48 -10 -59 -10 -69c0 -36 19 -52 60 -52c51 0 75 25 86 87
c9 47 10 58 10 68z" />
    <glyph glyph-name="r.superior" horiz-adv-x="321" 
d="M184 649h94l-5 -29c40 31 86 38 129 38l-15 -85c-43 0 -88 -8 -118 -18l-44 -249h-101z" />
    <glyph glyph-name="s.superior" horiz-adv-x="378" 
d="M405 415c0 -95 -73 -119 -173 -119c-51 0 -109 10 -127 14l12 63c32 -4 76 -9 121 -9c30 0 67 6 67 39c0 19 -11 25 -51 40l-24 9c-57 22 -89 54 -89 104c0 90 90 102 165 102c53 0 109 -7 128 -14l-10 -59c-38 3 -81 6 -119 6c-30 0 -63 -1 -64 -31c0 -19 11 -26 44 -38
l30 -11c64 -24 90 -52 90 -96z" />
    <glyph glyph-name="t.superior" horiz-adv-x="326" 
d="M342 307c-10 -3 -44 -10 -79 -10c-63 0 -90 29 -90 81c0 13 2 26 4 42l29 159l-65 6l11 64h66l15 86h100l-15 -86h85l-12 -70h-85l-32 -175c-2 -9 -3 -16 -3 -21c0 -14 8 -17 29 -17c17 0 43 1 52 2z" />
    <glyph glyph-name="parenleft.inferior" unicode="&#x208d;" horiz-adv-x="284" 
d="M319 291c-83 -99 -136 -220 -136 -340c0 -83 17 -143 41 -191h-93c-22 38 -46 108 -46 204c0 115 48 232 139 327h95z" />
    <glyph glyph-name="parenright.inferior" unicode="&#x208e;" horiz-adv-x="284" 
d="M31 -240c83 100 137 228 137 352c0 78 -17 132 -41 179h92c22 -37 45 -107 45 -193c0 -125 -48 -242 -138 -338h-95z" />
    <glyph glyph-name="hyphen.superior" horiz-adv-x="254" 
d="M293 497h-149l13 77h149z" />
    <glyph glyph-name="colonmonetary" unicode="&#x20a1;" horiz-adv-x="507" 
d="M574 556l-17 -101c-53 5 -101 11 -156 11c-90 0 -140 -27 -161 -149l-13 -71c-4 -24 -6 -43 -6 -60c0 -77 45 -90 113 -90c35 0 93 3 159 8l-16 -98c-13 -3 -39 -8 -71 -13l-18 -106h-84l17 99c-10 -1 -20 -1 -29 -1c-14 0 -27 1 -39 2l-17 -100h-84l21 125
c-56 31 -82 92 -82 172c0 25 2 52 7 80l13 71c21 117 72 189 158 221l21 123h85l-19 -104c13 1 26 2 40 2c9 0 19 0 28 -1l18 103h85l-20 -110c32 -5 55 -10 67 -13z" />
    <glyph glyph-name="cent.oldstyle" horiz-adv-x="538" 
d="M579 583l-16 -101c-46 3 -95 6 -141 6c-98 0 -145 -37 -167 -155l-15 -78c-4 -23 -6 -43 -6 -60c0 -71 38 -95 118 -95c50 0 102 2 143 6l-17 -102c-27 -7 -77 -13 -120 -15l-19 -104h-111l19 110c-101 19 -149 88 -149 194c0 24 3 52 7 80l15 78c26 150 100 224 233 248
l18 102h111l-17 -99c42 -2 89 -8 114 -15z" />
    <glyph glyph-name="figuredash" unicode="&#x2012;" horiz-adv-x="720" 
d="M696 237h-589l17 98h588z" />
    <glyph glyph-name="hyphen.inferior" horiz-adv-x="254" 
d="M229 1h-149l13 77h149z" />
    <glyph glyph-name="oneeighth" unicode="&#x215b;" horiz-adv-x="1071" 
d="M934 744l-616 -744h-118l615 744h119zM405 300h-291l13 75l92 3l50 271l-98 -28l14 84l131 44h76l-67 -371l92 -3zM1037 118c-21 -118 -114 -129 -211 -129h-2c-88 0 -166 20 -166 113c0 12 1 24 5 43c8 46 31 71 66 88c-21 16 -34 43 -34 76c0 9 1 19 4 35
c18 99 109 111 206 111h3c91 0 166 -22 166 -104c0 -9 -1 -19 -5 -37c-8 -42 -31 -70 -64 -90c23 -16 36 -41 36 -71c0 -11 -1 -20 -4 -35zM935 131c2 9 3 21 3 28c0 26 -11 37 -44 37h-65c-41 0 -56 -19 -64 -64c-3 -11 -3 -19 -3 -25c0 -40 30 -46 74 -46h2
c51 0 86 9 97 70zM967 321c2 12 3 17 3 22c0 34 -31 41 -74 41h-2c-49 0 -86 -10 -94 -57c-2 -13 -3 -20 -3 -26c0 -23 11 -37 44 -37h65c41 0 54 22 61 57z" />
    <glyph glyph-name="threeeighths" unicode="&#x215c;" horiz-adv-x="1105" 
d="M1104 351c0 -9 0 -19 -4 -37c-8 -42 -31 -70 -65 -90c23 -16 36 -41 36 -71c0 -11 0 -20 -3 -35c-21 -118 -115 -129 -211 -129h-3c-87 0 -165 20 -165 113c0 12 1 24 4 43c8 46 32 71 67 88c-22 16 -34 43 -34 76c0 9 1 19 4 35c18 99 109 111 206 111h2
c91 0 166 -22 166 -104zM969 159c0 26 -12 37 -44 37h-65c-41 0 -56 -19 -65 -64c-2 -11 -3 -19 -3 -25c0 -40 30 -46 74 -46h3c50 0 85 9 97 70c2 9 3 21 3 28zM1000 343c0 34 -30 41 -73 41h-3c-49 0 -86 -10 -94 -57c-2 -13 -3 -20 -3 -26c0 -23 12 -37 44 -37h65
c41 0 55 22 62 57c2 12 2 17 2 22zM961 744l-616 -744h-119l616 744h119zM503 653c0 -23 -6 -45 -18 -64c-11 -24 -31 -44 -58 -59c30 -16 40 -46 40 -77c0 -22 -3 -40 -9 -57c-24 -79 -94 -106 -199 -106c-59 0 -124 12 -149 21l12 66c35 -4 87 -9 140 -9c51 0 83 11 96 49
c5 12 6 25 6 40c0 23 -13 36 -64 36h-131l12 73h132c40 0 65 12 78 40c4 11 6 23 6 36c0 28 -21 38 -79 38c-50 0 -111 -6 -142 -8l11 66c21 7 94 19 154 19c107 0 162 -32 162 -104z" />
    <glyph glyph-name="fiveeighths" unicode="&#x215d;" horiz-adv-x="1108" 
d="M1108 351c0 -9 0 -19 -4 -37c-8 -42 -31 -70 -65 -90c23 -16 36 -41 36 -71c0 -11 0 -20 -3 -35c-21 -118 -115 -129 -211 -129h-3c-87 0 -165 20 -165 113c0 12 1 24 4 43c8 46 32 71 67 88c-22 16 -34 43 -34 76c0 9 1 19 4 35c18 99 109 111 206 111h2
c91 0 166 -22 166 -104zM973 159c0 26 -12 37 -44 37h-65c-41 0 -56 -19 -65 -64c-2 -11 -3 -19 -3 -25c0 -40 30 -46 74 -46h3c50 0 85 9 97 70c2 9 3 21 3 28zM1004 343c0 34 -30 41 -73 41h-3c-49 0 -86 -10 -94 -57c-2 -13 -3 -20 -3 -26c0 -23 12 -37 44 -37h65
c41 0 55 22 62 57c2 12 2 17 2 22zM963 744l-616 -744h-119l616 744h119zM505 748l-13 -78h-209l-26 -92h51c119 0 163 -34 163 -112c0 -30 -6 -56 -19 -79c-29 -71 -101 -95 -196 -95c-69 0 -128 11 -149 17l11 68c35 -4 80 -8 132 -8c53 0 88 10 104 45c6 14 9 27 9 45
c0 34 -22 44 -87 44h-130l65 245h294z" />
    <glyph glyph-name="seveneighths" unicode="&#x215e;" horiz-adv-x="1018" 
d="M873 744l-616 -744h-119l616 744h119zM176 667l13 79h336l-15 -87l-270 -360h-113l281 368h-232zM981 118c-21 -118 -115 -129 -211 -129h-3c-87 0 -165 20 -165 113c0 12 1 24 4 43c8 46 32 71 67 88c-22 16 -34 43 -34 76c0 9 1 19 4 35c18 99 109 111 206 111h2
c91 0 166 -22 166 -104c0 -9 0 -19 -4 -37c-8 -42 -31 -70 -65 -90c23 -16 36 -41 36 -71c0 -11 0 -20 -3 -35zM879 131c2 9 3 21 3 28c0 26 -12 37 -44 37h-65c-41 0 -56 -19 -65 -64c-2 -11 -3 -19 -3 -25c0 -40 30 -46 74 -46h3c50 0 85 9 97 70zM911 321c2 12 2 17 2 22
c0 34 -30 41 -73 41h-3c-49 0 -86 -10 -94 -57c-2 -13 -3 -20 -3 -26c0 -23 12 -37 44 -37h65c41 0 55 22 62 57z" />
    <glyph glyph-name="onethird" unicode="&#x2153;" horiz-adv-x="1059" 
d="M934 744l-616 -744h-118l615 744h119zM404 300h-290l13 75l92 3l50 271l-98 -28l14 84l131 44h75l-66 -371l92 -3zM1077 351c0 -23 -6 -45 -18 -63c-11 -25 -31 -45 -58 -60c30 -15 40 -46 40 -77c0 -21 -3 -40 -9 -56c-24 -80 -94 -106 -199 -106c-59 0 -124 11 -149 20
l12 66c35 -4 87 -8 140 -8c51 0 83 10 96 48c5 13 6 26 6 40c0 23 -13 36 -64 36h-131l12 73h132c40 0 65 12 78 41c4 11 6 22 6 36c0 28 -21 37 -79 37c-50 0 -111 -6 -142 -8l11 67c21 7 94 18 154 18c107 0 162 -32 162 -104z" />
    <glyph glyph-name="twothirds" unicode="&#x2154;" horiz-adv-x="1126" 
d="M989 744l-617 -744h-119l617 744h119zM1122 351c0 -23 -6 -45 -18 -63c-11 -25 -31 -45 -58 -60c30 -15 40 -46 40 -77c0 -21 -3 -40 -9 -56c-24 -80 -94 -106 -199 -106c-59 0 -124 11 -149 20l12 66c35 -4 87 -8 140 -8c51 0 83 10 96 48c5 13 6 26 6 40
c0 23 -13 36 -64 36h-131l12 73h132c40 0 65 12 78 41c4 11 6 22 6 36c0 28 -21 37 -79 37c-50 0 -111 -6 -142 -8l11 67c21 7 94 18 154 18c107 0 162 -32 162 -104zM180 673l12 66c28 8 102 18 155 18c111 0 161 -37 161 -104c0 -86 -68 -118 -155 -156
c-100 -43 -116 -56 -126 -111l-1 -5h227l-13 -80h-331l9 55c18 110 64 152 179 202c61 26 105 43 105 84c0 29 -23 38 -83 38c-38 0 -100 -4 -139 -7z" />
    <glyph glyph-name="zero.superior" unicode="&#x2070;" horiz-adv-x="467" 
d="M514 642c-1 -27 -2 -52 -7 -79l-9 -47c-24 -124 -84 -191 -218 -191c-115 0 -158 65 -158 158c0 21 2 45 7 70l9 49c22 120 83 190 218 190c117 0 158 -61 158 -150zM411 643c0 49 -23 65 -66 65c-58 0 -86 -31 -104 -124l-9 -47c-5 -28 -7 -49 -7 -64
c0 -48 22 -64 65 -64c57 0 87 28 105 124l9 48c5 27 7 46 7 62z" />
    <glyph glyph-name="four.superior" unicode="&#x2074;" horiz-adv-x="464" 
d="M416 336h-105l19 102h-219l12 76l281 268h91l-47 -269h65l-13 -75h-65zM348 513l27 154l-163 -154h136z" />
    <glyph glyph-name="five.superior" unicode="&#x2075;" horiz-adv-x="451" 
d="M518 782l-13 -78h-209l-26 -92h51c119 0 163 -34 163 -112c0 -30 -5 -56 -18 -79c-30 -71 -102 -96 -197 -96c-69 0 -128 12 -149 18l12 68c52 -9 80 -9 131 -9c53 0 88 11 104 46c6 13 9 27 9 45c0 34 -21 44 -87 44h-129l64 245h294z" />
    <glyph glyph-name="six.superior" unicode="&#x2076;" horiz-adv-x="459" 
d="M513 775l-12 -67c-38 3 -86 8 -140 8c-87 0 -103 -33 -114 -93l-3 -13c27 6 68 10 93 10c91 0 149 -23 149 -104c0 -11 -1 -23 -6 -53c-21 -116 -115 -138 -203 -138c-101 0 -156 42 -156 140c0 19 2 43 6 66l16 92c21 116 69 169 219 169c65 0 128 -10 151 -17zM378 475
c4 24 5 33 5 39c0 34 -25 40 -67 40c-20 0 -52 -2 -82 -9l-9 -46c-3 -17 -4 -33 -4 -44c0 -45 23 -56 69 -56c47 0 78 22 88 76z" />
    <glyph glyph-name="seven.superior" unicode="&#x2077;" horiz-adv-x="453" 
d="M196 704l13 78h337l-15 -87l-269 -359h-113l280 368h-233z" />
    <glyph glyph-name="eight.superior" unicode="&#x2078;" horiz-adv-x="466" 
d="M497 454c-21 -118 -115 -129 -214 -129c-88 0 -166 20 -166 113c0 70 28 109 72 131c-22 16 -34 44 -34 77c0 131 103 146 212 146c91 0 166 -22 166 -104c0 -60 -28 -103 -69 -128c23 -16 36 -41 36 -71c0 -11 0 -20 -3 -35zM394 467c2 9 3 21 3 28c0 26 -11 37 -44 37
h-65c-43 0 -67 -27 -67 -89c0 -40 30 -46 76 -46c51 0 86 9 97 70zM426 658c2 12 3 17 3 22c0 34 -30 41 -76 41c-58 0 -97 -15 -97 -84c0 -23 11 -37 44 -37h65c41 0 55 23 61 58z" />
    <glyph glyph-name="nine.superior" unicode="&#x2079;" horiz-adv-x="459" 
d="M136 342l12 67c38 -3 86 -8 140 -8c87 0 103 33 114 93l3 13c-27 -6 -68 -10 -93 -10c-91 0 -149 23 -149 104c0 11 1 23 6 53c21 116 115 138 203 138c101 0 156 -42 156 -140c0 -19 -2 -43 -6 -66l-16 -92c-21 -116 -69 -169 -219 -169c-65 0 -128 10 -151 17zM271 642
c-4 -24 -5 -33 -5 -39c0 -34 25 -40 67 -40c20 0 52 2 82 9l9 46c3 17 4 33 4 44c0 45 -23 56 -69 56c-47 0 -78 -22 -88 -76z" />
    <glyph glyph-name="zero.inferior" unicode="&#x2080;" horiz-adv-x="467" 
d="M466 98c-1 -27 -2 -52 -7 -79l-9 -47c-24 -124 -84 -191 -218 -191c-115 0 -158 65 -158 158c0 21 2 45 7 70l9 49c22 120 83 190 218 190c117 0 158 -61 158 -150zM363 99c0 49 -23 65 -66 65c-58 0 -86 -31 -104 -124l-9 -47c-5 -28 -7 -49 -7 -64c0 -48 22 -64 65 -64
c57 0 87 28 105 124l9 48c5 27 7 46 7 62z" />
    <glyph glyph-name="one.inferior" unicode="&#x2081;" horiz-adv-x="418" 
d="M358 -208h-291l13 75l93 3l49 271l-97 -28l14 84l130 43h76l-67 -370l93 -3z" />
    <glyph glyph-name="two.inferior" unicode="&#x2082;" horiz-adv-x="454" 
d="M127 164l12 66c28 8 102 18 155 18c111 0 161 -37 161 -104c0 -86 -68 -118 -155 -156c-100 -43 -116 -56 -126 -111l-1 -5h227l-13 -80h-331l9 55c18 110 65 150 179 202c68 31 105 43 105 84c0 29 -23 38 -83 38c-38 0 -100 -4 -139 -7z" />
    <glyph glyph-name="three.inferior" unicode="&#x2083;" horiz-adv-x="453" 
d="M451 144c0 -49 -30 -98 -76 -123c29 -15 40 -47 40 -78c0 -123 -86 -162 -208 -162c-60 0 -124 11 -149 20l11 66c36 -4 88 -8 141 -8c65 0 102 18 102 88c0 23 -13 37 -64 37h-131l12 73h132c52 0 84 23 84 77c0 28 -21 37 -80 37c-49 0 -111 -6 -141 -8l11 67
c21 7 94 18 154 18c107 0 162 -32 162 -104z" />
    <glyph glyph-name="four.inferior" unicode="&#x2084;" horiz-adv-x="464" 
d="M360 -208h-105l19 102h-219l12 76l281 268h91l-47 -269h65l-13 -75h-65zM292 -31l27 154l-163 -154h136z" />
    <glyph glyph-name="five.inferior" unicode="&#x2085;" horiz-adv-x="451" 
d="M454 238l-13 -78h-209l-26 -92h51c119 0 163 -34 163 -112c0 -30 -5 -56 -18 -79c-30 -71 -102 -96 -197 -96c-69 0 -128 12 -149 18l12 68c52 -9 80 -9 131 -9c53 0 88 11 104 46c6 13 9 27 9 45c0 34 -21 44 -87 44h-129l64 245h294z" />
    <glyph glyph-name="six.inferior" unicode="&#x2086;" horiz-adv-x="459" 
d="M465 231l-12 -67c-38 3 -86 8 -140 8c-87 0 -103 -33 -114 -93l-3 -13c27 6 68 10 93 10c91 0 149 -23 149 -104c0 -11 -1 -23 -6 -53c-21 -116 -115 -138 -203 -138c-101 0 -156 42 -156 140c0 19 2 43 6 66l16 92c21 116 69 169 219 169c65 0 128 -10 151 -17zM330 -69
c4 24 5 33 5 39c0 34 -25 40 -67 40c-20 0 -52 -2 -82 -9l-9 -46c-3 -17 -4 -33 -4 -44c0 -45 23 -56 69 -56c47 0 78 22 88 76z" />
    <glyph glyph-name="seven.inferior" unicode="&#x2087;" horiz-adv-x="453" 
d="M124 160l13 78h337l-15 -87l-269 -359h-113l280 368h-233z" />
    <glyph glyph-name="eight.inferior" unicode="&#x2088;" horiz-adv-x="466" 
d="M441 -90c-21 -118 -115 -129 -214 -129c-88 0 -166 20 -166 113c0 70 28 109 72 131c-22 16 -34 44 -34 77c0 131 103 146 212 146c91 0 166 -22 166 -104c0 -60 -28 -103 -69 -128c23 -16 36 -41 36 -71c0 -11 0 -20 -3 -35zM338 -77c2 9 3 21 3 28c0 26 -11 37 -44 37
h-65c-43 0 -67 -27 -67 -89c0 -40 30 -46 76 -46c51 0 86 9 97 70zM370 114c2 12 3 17 3 22c0 34 -30 41 -76 41c-58 0 -97 -15 -97 -84c0 -23 11 -37 44 -37h65c41 0 55 23 61 58z" />
    <glyph glyph-name="nine.inferior" unicode="&#x2089;" horiz-adv-x="459" 
d="M73 -202l12 67c38 -3 86 -8 140 -8c87 0 103 33 114 93l3 13c-27 -6 -68 -10 -93 -10c-91 0 -149 23 -149 104c0 11 1 23 6 53c21 116 115 138 203 138c101 0 156 -42 156 -140c0 -19 -2 -43 -6 -66l-16 -92c-21 -116 -69 -169 -219 -169c-65 0 -128 10 -151 17zM208 98
c-4 -24 -5 -33 -5 -39c0 -34 25 -40 67 -40c20 0 52 2 82 9l9 46c3 17 4 33 4 44c0 45 -23 56 -69 56c-47 0 -78 -22 -88 -76z" />
    <glyph glyph-name="cent.inferior" horiz-adv-x="395" 
d="M427 234l-14 -83c-31 3 -70 5 -99 5c-76 0 -104 -32 -120 -120l-8 -45c-4 -20 -6 -38 -6 -53c0 -48 21 -67 82 -67c36 0 76 3 101 5l-14 -83c-18 -6 -53 -11 -86 -12l-13 -77h-89l13 84c-63 14 -100 61 -100 145c0 21 2 46 6 70l8 44c21 116 75 176 167 194l14 77h89
l-14 -73c33 -2 66 -7 83 -11z" />
    <glyph glyph-name="dollar.inferior" horiz-adv-x="427" 
d="M56 -204l12 73c24 -1 81 -5 141 -5c47 0 88 10 88 53c0 27 -15 35 -59 53l-43 18c-62 25 -96 61 -96 122c0 87 71 125 147 133l14 78h92l-13 -75c46 -3 89 -10 105 -14l-13 -76c-41 4 -93 9 -140 9c-34 0 -87 -6 -87 -47c0 -20 11 -32 54 -48l46 -18
c68 -27 101 -57 101 -121c0 -79 -55 -132 -147 -145l-14 -81h-92l13 78c-45 1 -87 8 -109 13z" />
    <glyph glyph-name="period.inferior" horiz-adv-x="210" 
d="M154 -160h-98l16 95h98z" />
    <glyph glyph-name="comma.inferior" horiz-adv-x="254" 
d="M216 -65l-98 -154h-81l80 154h99z" />
    <glyph glyph-name="commaaccent" horiz-adv-x="513" 
d="M330 -65l-118 -141h-116l92 141h142z" />
    <glyph glyph-name="Abreve" unicode="&#x102;" horiz-adv-x="705" 
d="M679 0h-144l-26 209h-239l-104 -209h-145l355 743h209zM501 323l-25 205c-5 38 -6 77 -5 118h-9c-15 -41 -30 -80 -48 -118l-98 -205h185zM706 947c-26 -99 -85 -158 -207 -158c-92 0 -169 38 -169 158h84c0 -56 22 -84 89 -84c60 0 100 20 119 84h84z" />
    <glyph glyph-name="Amacron" unicode="&#x100;" horiz-adv-x="705" 
d="M679 0h-144l-26 209h-239l-104 -209h-145l355 743h209zM501 323l-25 205c-5 38 -6 77 -5 118h-9c-15 -41 -30 -80 -48 -118l-98 -205h185zM683 815h-376l14 88h376z" />
    <glyph glyph-name="Aogonek" unicode="&#x104;" horiz-adv-x="705" 
d="M643 -203c-18 -6 -62 -14 -113 -14c-84 0 -122 35 -122 90c0 69 66 112 126 135l-25 201h-239l-104 -209h-145l355 743h209l94 -743c-57 -19 -156 -56 -156 -108c0 -19 12 -30 50 -30c27 0 55 3 81 5zM501 323l-25 205c-5 38 -6 77 -5 118h-9c-15 -41 -30 -80 -48 -118
l-98 -205h185z" />
    <glyph glyph-name="Aringacute" unicode="&#x1fa;" horiz-adv-x="705" 
d="M679 0h-144l-26 209h-239l-104 -209h-145l355 743h209zM501 323l-25 205c-5 38 -6 77 -5 118h-9c-15 -41 -30 -80 -48 -118l-98 -205h185zM620 874c0 -78 -55 -116 -128 -116c-74 0 -131 38 -131 116c0 79 57 117 131 117c73 0 128 -38 128 -117zM547 874
c0 38 -24 51 -55 51c-32 0 -56 -13 -56 -51c0 -36 23 -51 56 -51c31 0 55 15 55 51zM774 1152l-184 -149h-127l158 149h153z" />
    <glyph glyph-name="AEacute" unicode="&#x1fc;" horiz-adv-x="997" 
d="M946 0h-472l38 209h-227l-102 -209h-145l351 743h688l-19 -115h-333l-36 -190h313l-18 -111h-313l-40 -213h334zM531 322l57 321h-108c-16 -36 -32 -74 -49 -110l-100 -211h200zM971 938l-184 -149h-127l158 149h153z" />
    <glyph glyph-name="Cacute" unicode="&#x106;" horiz-adv-x="587" 
d="M686 738l-19 -110c-47 4 -117 9 -175 9c-127 0 -193 -45 -225 -215l-19 -101c-6 -33 -9 -61 -9 -84c0 -102 54 -132 156 -132c58 0 130 4 178 8l-17 -110c-35 -7 -126 -19 -190 -19c-162 0 -267 62 -267 242c0 33 2 70 10 111l19 100c50 265 183 320 374 320
c65 0 151 -11 184 -19zM732 938l-184 -149h-127l158 149h153z" />
    <glyph glyph-name="Ccaron" unicode="&#x10c;" horiz-adv-x="587" 
d="M686 738l-19 -110c-47 4 -117 9 -175 9c-127 0 -193 -45 -225 -215l-19 -101c-6 -33 -9 -61 -9 -84c0 -102 54 -132 156 -132c58 0 130 4 178 8l-17 -110c-35 -7 -126 -19 -190 -19c-162 0 -267 62 -267 242c0 33 2 70 10 111l19 100c50 265 183 320 374 320
c65 0 151 -11 184 -19zM297 938h117l79 -91l112 91h126l-162 -149h-163z" />
    <glyph glyph-name="Ccircumflex" unicode="&#x108;" horiz-adv-x="587" 
d="M686 738l-19 -110c-47 4 -117 9 -175 9c-127 0 -193 -45 -225 -215l-19 -101c-6 -33 -9 -61 -9 -84c0 -102 54 -132 156 -132c58 0 130 4 178 8l-17 -110c-35 -7 -126 -19 -190 -19c-162 0 -267 62 -267 242c0 33 2 70 10 111l19 100c50 265 183 320 374 320
c65 0 151 -11 184 -19zM687 789h-117l-78 91l-113 -91h-125l161 149h164z" />
    <glyph glyph-name="Cdotaccent" unicode="&#x10a;" horiz-adv-x="587" 
d="M686 738l-19 -110c-47 4 -117 9 -175 9c-127 0 -193 -45 -225 -215l-19 -101c-6 -33 -9 -61 -9 -84c0 -102 54 -132 156 -132c58 0 130 4 178 8l-17 -110c-35 -7 -126 -19 -190 -19c-162 0 -267 62 -267 242c0 33 2 70 10 111l19 100c50 265 183 320 374 320
c65 0 151 -11 184 -19zM556 804h-134l21 124h135z" />
    <glyph glyph-name="Dcaron" unicode="&#x10e;" horiz-adv-x="706" 
d="M738 502c-1 -31 -3 -64 -10 -100l-18 -95c-41 -217 -152 -313 -399 -313c-91 0 -142 2 -232 6l131 743c91 4 137 6 222 6c229 0 306 -89 306 -247zM599 507c0 123 -87 124 -270 124l-94 -520h93c142 0 212 44 245 215l18 94c7 36 7 64 8 87zM270 937h117l79 -91l112 91
h126l-162 -149h-163z" />
    <glyph glyph-name="Dcroat" unicode="&#x110;" horiz-adv-x="706" 
d="M738 502c-1 -31 -3 -64 -10 -100l-18 -95c-41 -217 -152 -313 -399 -313c-79 0 -154 2 -232 6l59 328h-53l19 109h51l55 306c75 4 147 6 222 6c229 0 306 -89 306 -247zM599 507c0 123 -87 124 -270 124l-37 -194h131l-18 -109h-130l-40 -217h93c141 0 212 44 245 215
l18 94c7 36 7 64 8 87z" />
    <glyph glyph-name="Ebreve" unicode="&#x114;" horiz-adv-x="604" 
d="M683 743l-19 -115h-334l-35 -190h312l-18 -111h-313l-39 -213h333l-18 -114h-473l131 743h473zM674 945c-26 -99 -85 -158 -207 -158c-92 0 -169 38 -169 158h84c0 -56 22 -84 89 -84c60 0 100 20 119 84h84z" />
    <glyph glyph-name="Ecaron" unicode="&#x11a;" horiz-adv-x="604" 
d="M683 743l-19 -115h-334l-35 -190h312l-18 -111h-313l-39 -213h333l-18 -114h-473l131 743h473zM270 938h117l79 -91l112 91h126l-162 -149h-163z" />
    <glyph glyph-name="Edotaccent" unicode="&#x116;" horiz-adv-x="604" 
d="M683 743l-19 -115h-334l-35 -190h312l-18 -111h-313l-39 -213h333l-18 -114h-473l131 743h473zM525 804h-134l21 124h135z" />
    <glyph glyph-name="Emacron" unicode="&#x112;" horiz-adv-x="604" 
d="M683 743l-19 -115h-334l-35 -190h312l-18 -111h-313l-39 -213h333l-18 -114h-473l131 743h473zM650 815h-376l14 88h376z" />
    <glyph glyph-name="Eng" unicode="&#x14a;" horiz-adv-x="741" 
d="M793 743l-139 -781c-22 -126 -79 -179 -207 -179c-28 0 -67 4 -85 9l16 95h9c103 0 113 1 127 71l12 64l-178 422c-17 39 -31 78 -43 112c-6 -43 -12 -84 -21 -134l-77 -422h-128l130 743h159l165 -389c18 -42 30 -82 42 -119c6 53 14 105 22 147l67 361h129z" />
    <glyph glyph-name="Eogonek" unicode="&#x118;" horiz-adv-x="604" 
d="M516 -203c-18 -6 -62 -14 -113 -14c-85 0 -122 35 -122 88c0 70 66 107 126 129h-328l131 743h473l-19 -115h-334l-35 -190h312l-18 -111h-313l-39 -213h333l-18 -114c-57 -18 -156 -56 -156 -108c0 -19 12 -30 50 -30c27 0 55 3 81 5z" />
    <glyph glyph-name="Gbreve" unicode="&#x11e;" horiz-adv-x="669" 
d="M734 734l-18 -109c-63 6 -132 12 -212 12c-121 0 -203 -27 -238 -213l-20 -105c-7 -37 -10 -67 -10 -91c0 -97 56 -123 154 -123c36 0 73 1 101 3l52 287h133l-69 -388c-42 -8 -140 -23 -246 -23c-146 0 -260 61 -260 248c0 31 2 66 10 105l20 105
c54 282 210 315 369 315c109 0 213 -17 234 -23zM715 946c-26 -99 -85 -158 -207 -158c-92 0 -169 38 -169 158h84c0 -56 22 -84 89 -84c60 0 100 20 119 84h84z" />
    <glyph glyph-name="Gcircumflex" unicode="&#x11c;" horiz-adv-x="669" 
d="M734 734l-18 -109c-63 6 -132 12 -212 12c-121 0 -203 -27 -238 -213l-20 -105c-7 -37 -10 -67 -10 -91c0 -97 56 -123 154 -123c36 0 73 1 101 3l52 287h133l-69 -388c-42 -8 -140 -23 -246 -23c-146 0 -260 61 -260 248c0 31 2 66 10 105l20 105
c54 282 210 315 369 315c109 0 213 -17 234 -23zM706 788h-117l-78 91l-113 -91h-125l161 149h164z" />
    <glyph glyph-name="Gcommaaccent" unicode="&#x122;" horiz-adv-x="669" 
d="M734 734l-18 -109c-63 6 -132 12 -212 12c-121 0 -203 -27 -238 -213l-20 -105c-7 -37 -10 -67 -10 -91c0 -97 56 -123 154 -123c36 0 73 1 101 3l52 287h133l-69 -388c-42 -8 -140 -23 -246 -23c-146 0 -260 61 -260 248c0 31 2 66 10 105l20 105
c54 282 210 315 369 315c109 0 213 -17 234 -23zM431 -65l-118 -141h-116l92 141h142z" />
    <glyph glyph-name="Gdotaccent" unicode="&#x120;" horiz-adv-x="669" 
d="M734 734l-18 -109c-63 6 -132 12 -212 12c-121 0 -203 -27 -238 -213l-20 -105c-7 -37 -10 -67 -10 -91c0 -97 56 -123 154 -123c36 0 73 1 101 3l52 287h133l-69 -388c-42 -8 -140 -23 -246 -23c-146 0 -260 61 -260 248c0 31 2 66 10 105l20 105
c54 282 210 315 369 315c109 0 213 -17 234 -23zM568 804h-134l21 124h135z" />
    <glyph glyph-name="Hbar" unicode="&#x126;" horiz-adv-x="763" 
d="M112 548l14 77h62l22 118h140l-22 -118h326l21 118h140l-21 -118h62l-13 -77h-63l-96 -548h-140l59 328h-326l-58 -328h-140l96 548h-63zM296 447h326l18 101h-325z" />
    <glyph glyph-name="Hcircumflex" unicode="&#x124;" horiz-adv-x="763" 
d="M815 743l-131 -743h-140l59 328h-326l-58 -328h-140l131 743h140l-54 -296h326l53 296h140zM737 788h-117l-78 91l-113 -91h-125l161 149h164z" />
    <glyph glyph-name="Ibreve" unicode="&#x12c;" horiz-adv-x="298" 
d="M350 743l-131 -743h-140l131 743h140zM503 945c-26 -99 -85 -158 -207 -158c-92 0 -169 38 -169 158h84c0 -56 22 -84 89 -84c60 0 100 20 119 84h84z" />
    <glyph glyph-name="IJ" unicode="&#x132;" horiz-adv-x="593" 
d="M350 743l-131 -743h-140l131 743h140zM645 743l-139 -781c-23 -128 -75 -179 -206 -179c-28 0 -68 4 -85 9l19 97c15 0 29 -2 57 -2c56 0 66 19 75 71l140 785h139z" />
    <glyph glyph-name="Imacron" unicode="&#x12a;" horiz-adv-x="298" 
d="M350 743l-131 -743h-140l131 743h140zM481 815h-376l14 88h376z" />
    <glyph glyph-name="Iogonek" unicode="&#x12e;" horiz-adv-x="298" 
d="M350 743l-131 -743c-51 -24 -104 -60 -104 -98c0 -27 12 -40 50 -40c26 0 54 3 81 5l-12 -70c-18 -6 -61 -14 -112 -14c-81 0 -122 35 -122 99c0 51 35 92 79 119l131 742h140z" />
    <glyph glyph-name="Itilde" unicode="&#x128;" horiz-adv-x="298" 
d="M350 743l-131 -743h-140l131 743h140zM523 944c-9 -122 -63 -161 -127 -161c-41 0 -73 11 -106 35l-48 34c-15 10 -24 18 -39 18c-29 0 -42 -19 -50 -81h-82c12 125 66 161 134 161c39 0 64 -9 97 -33l43 -32c15 -12 28 -21 45 -21c30 0 48 18 52 80h81z" />
    <glyph glyph-name="Jcircumflex" unicode="&#x134;" horiz-adv-x="297" 
d="M349 743l-139 -781c-23 -128 -75 -179 -206 -179c-28 0 -68 4 -85 9l19 97c15 0 29 -2 57 -2c56 0 66 19 75 71l140 785h139zM505 789h-117l-78 91l-113 -91h-125l161 149h164z" />
    <glyph glyph-name="Kcommaaccent" unicode="&#x136;" horiz-adv-x="686" 
d="M806 743l-372 -368l238 -375h-168l-218 354l-64 -354h-140l132 743h140l-61 -340l339 340h174zM439 -65l-118 -141h-116l92 141h142z" />
    <glyph glyph-name="Lacute" unicode="&#x139;" horiz-adv-x="560" 
d="M553 117l-19 -117h-455l131 743h140l-113 -626h316zM616 938l-184 -149h-127l158 149h153z" />
    <glyph glyph-name="Lcaron" unicode="&#x13d;" horiz-adv-x="560" 
d="M553 117l-19 -117h-455l131 743h140l-113 -626h316zM621 776l-127 -245h-95l97 245h125z" />
    <glyph glyph-name="Lcommaaccent" unicode="&#x13b;" horiz-adv-x="560" 
d="M553 117l-19 -117h-455l131 743h140l-113 -626h316zM377 -65l-118 -141h-116l92 141h142z" />
    <glyph glyph-name="Ldot" unicode="&#x13f;" horiz-adv-x="560" 
d="M534 0h-455l131 743h140l-113 -626h316zM513 348h-128l27 154h128z" />
    <glyph glyph-name="Nacute" unicode="&#x143;" horiz-adv-x="741" 
d="M795 743l-131 -743h-163l-156 448c-12 34 -25 74 -37 111c-6 -42 -13 -89 -21 -134l-80 -425h-128l133 743h161l156 -439c12 -33 26 -78 39 -114c4 45 13 97 21 142l76 411h130zM755 938l-184 -149h-127l158 149h153z" />
    <glyph glyph-name="Ncaron" unicode="&#x147;" horiz-adv-x="741" 
d="M795 743l-131 -743h-163l-156 448c-12 34 -25 74 -37 111c-6 -42 -13 -89 -21 -134l-80 -425h-128l133 743h161l156 -439c12 -33 26 -78 39 -114c4 45 13 97 21 142l76 411h130zM321 937h117l79 -91l112 91h126l-162 -149h-163z" />
    <glyph glyph-name="Ncommaaccent" unicode="&#x145;" horiz-adv-x="741" 
d="M795 743l-131 -743h-163l-156 448c-12 34 -25 74 -37 111c-6 -42 -13 -89 -21 -134l-80 -425h-128l133 743h161l156 -439c12 -33 26 -78 39 -114c4 45 13 97 21 142l76 411h130zM449 -65l-118 -141h-116l92 141h142z" />
    <glyph glyph-name="Obreve" unicode="&#x14e;" horiz-adv-x="715" 
d="M743 510c0 -37 -4 -75 -10 -111l-15 -88c-41 -239 -158 -327 -354 -327c-171 0 -262 84 -262 255c0 34 2 68 9 104l16 88c44 240 172 326 358 326c168 0 258 -74 258 -247zM607 513c0 92 -41 125 -136 125c-109 0 -179 -58 -208 -224l-15 -87c-5 -28 -9 -67 -9 -92
c0 -95 47 -131 134 -131c117 0 177 56 208 224l16 87c5 30 9 73 10 98zM710 946c-26 -99 -85 -158 -207 -158c-92 0 -169 38 -169 158h84c0 -56 22 -84 89 -84c60 0 100 20 119 84h84z" />
    <glyph glyph-name="Ohungarumlaut" unicode="&#x150;" horiz-adv-x="715" 
d="M743 510c0 -37 -4 -75 -10 -111l-15 -88c-41 -239 -158 -327 -354 -327c-171 0 -262 84 -262 255c0 34 2 68 9 104l16 88c44 240 172 326 358 326c168 0 258 -74 258 -247zM607 513c0 92 -41 125 -136 125c-109 0 -179 -58 -208 -224l-15 -87c-5 -28 -9 -67 -9 -92
c0 -95 47 -131 134 -131c117 0 177 56 208 224l16 87c5 30 9 73 10 98zM864 938l-184 -149h-127l158 149h153zM620 938l-184 -149h-127l158 149h153z" />
    <glyph glyph-name="Omacron" unicode="&#x14c;" horiz-adv-x="715" 
d="M743 510c0 -37 -4 -75 -10 -111l-15 -88c-41 -239 -158 -327 -354 -327c-171 0 -262 84 -262 255c0 34 2 68 9 104l16 88c44 240 172 326 358 326c168 0 258 -74 258 -247zM607 513c0 92 -41 125 -136 125c-109 0 -179 -58 -208 -224l-15 -87c-5 -28 -9 -67 -9 -92
c0 -95 47 -131 134 -131c117 0 177 56 208 224l16 87c5 30 9 73 10 98zM685 815h-376l14 88h376z" />
    <glyph glyph-name="Oslashacute" unicode="&#x1fe;" horiz-adv-x="715" 
d="M740 938l-184 -149h-127l158 149h153zM743 510c0 -37 -4 -75 -10 -111l-15 -88c-41 -239 -158 -327 -354 -327c-76 0 -136 16 -180 50l-42 -48h-138l118 133c-13 33 -20 73 -20 120c0 34 2 68 9 104l16 88c43 239 172 326 358 326c69 0 126 -13 168 -40l35 39h138
l-106 -119c15 -35 23 -77 23 -127zM597 415c5 28 9 69 10 94l-334 -375c23 -21 56 -30 100 -30c117 0 177 56 208 224zM248 327c-4 -23 -8 -52 -9 -76l326 366c-22 15 -53 21 -94 21c-109 0 -179 -58 -208 -224z" />
    <glyph glyph-name="Racute" unicode="&#x154;" horiz-adv-x="677" 
d="M711 547c0 -128 -60 -202 -171 -243l121 -304h-146l-111 275c-20 -1 -40 -2 -60 -2c-27 0 -53 1 -80 1l-49 -274h-136l132 743c66 3 133 5 208 5c151 0 292 -29 292 -201zM571 536c0 92 -74 95 -216 95h-27l-45 -246c190 0 288 6 288 151zM701 938l-184 -149h-127
l158 149h153z" />
    <glyph glyph-name="Rcaron" unicode="&#x158;" horiz-adv-x="677" 
d="M711 547c0 -128 -60 -202 -171 -243l121 -304h-146l-111 275c-20 -1 -40 -2 -60 -2c-27 0 -53 1 -80 1l-49 -274h-136l132 743c66 3 133 5 208 5c151 0 292 -29 292 -201zM571 536c0 92 -74 95 -216 95h-27l-45 -246c190 0 288 6 288 151zM263 937h117l79 -91l112 91h126
l-162 -149h-163z" />
    <glyph glyph-name="Rcommaaccent" unicode="&#x156;" horiz-adv-x="677" 
d="M711 547c0 -128 -60 -202 -171 -243l121 -304h-146l-111 275c-20 -1 -40 -2 -60 -2c-27 0 -53 1 -80 1l-49 -274h-136l132 743c66 3 133 5 208 5c151 0 292 -29 292 -201zM571 536c0 92 -74 95 -216 95h-27l-45 -246c190 0 288 6 288 151zM424 -65l-118 -141h-116l92 141
h142z" />
    <glyph glyph-name="Sacute" unicode="&#x15a;" 
d="M660 734l-17 -101c-79 8 -130 13 -210 13c-82 0 -153 -16 -153 -96c0 -37 20 -61 76 -86l108 -48c89 -40 136 -88 136 -190c0 -166 -124 -242 -307 -242c-96 0 -193 13 -230 23l16 102c54 -7 119 -12 213 -12c95 0 164 30 164 115c0 40 -20 62 -78 89l-109 50
c-79 36 -130 93 -130 189c0 170 141 217 298 217c101 0 188 -14 223 -23zM691 938l-184 -149h-127l158 149h153z" />
    <glyph glyph-name="Scedilla" unicode="&#x15e;" 
d="M660 734l-17 -101c-79 8 -130 13 -210 13c-82 0 -153 -16 -153 -96c0 -37 20 -61 76 -86l108 -48c89 -40 136 -88 136 -190c0 -166 -124 -242 -307 -242c-96 0 -193 13 -230 23l16 102c54 -7 119 -12 213 -12c95 0 164 30 164 115c0 40 -20 62 -78 89l-109 50
c-79 36 -130 93 -130 189c0 170 141 217 298 217c101 0 188 -14 223 -23zM397 -65l-160 -141h-125l136 141h149z" />
    <glyph glyph-name="Scircumflex" unicode="&#x15c;" 
d="M660 734l-17 -101c-79 8 -130 13 -210 13c-82 0 -153 -16 -153 -96c0 -37 20 -61 76 -86l108 -48c89 -40 136 -88 136 -190c0 -166 -124 -242 -307 -242c-96 0 -193 13 -230 23l16 102c54 -7 119 -12 213 -12c95 0 164 30 164 115c0 40 -20 62 -78 89l-109 50
c-79 36 -130 93 -130 189c0 170 141 217 298 217c101 0 188 -14 223 -23zM657 788h-117l-78 91l-113 -91h-125l161 149h164z" />
    <glyph glyph-name="Scommaaccent" unicode="&#x218;" 
d="M660 734l-17 -101c-79 8 -130 13 -210 13c-82 0 -153 -16 -153 -96c0 -37 20 -61 76 -86l108 -48c89 -40 136 -88 136 -190c0 -166 -124 -242 -307 -242c-96 0 -193 13 -230 23l16 102c54 -7 119 -12 213 -12c95 0 164 30 164 115c0 40 -20 62 -78 89l-109 50
c-79 36 -130 93 -130 189c0 170 141 217 298 217c101 0 188 -14 223 -23zM382 -65l-118 -141h-116l92 141h142z" />
    <glyph glyph-name="Tbar" unicode="&#x166;" horiz-adv-x="640" 
d="M724 628h-222l-31 -165h196l-17 -99h-196l-64 -364h-140l65 364h-196l17 99h195l31 165h-222l19 115h584z" />
    <glyph glyph-name="Tcaron" unicode="&#x164;" horiz-adv-x="640" 
d="M743 743l-19 -115h-222l-112 -628h-140l112 628h-222l19 115h584zM265 937h117l79 -91l112 91h126l-162 -149h-163z" />
    <glyph glyph-name="Tcedilla" unicode="&#x162;" horiz-adv-x="640" 
d="M743 743l-19 -115h-222l-112 -628h-140l112 628h-222l19 115h584zM384 -65l-118 -141h-116l92 141h142z" />
    <glyph glyph-name="Tcommaaccent" unicode="&#x21a;" horiz-adv-x="640" 
d="M743 743l-19 -115h-222l-112 -628h-140l112 628h-222l19 115h584zM384 -65l-118 -141h-116l92 141h142z" />
    <glyph glyph-name="Ubreve" unicode="&#x16c;" horiz-adv-x="731" 
d="M789 743l-81 -455c-38 -213 -133 -304 -333 -304c-174 0 -255 86 -255 229c0 41 5 74 12 113l73 417h139l-76 -432c-7 -37 -11 -68 -11 -95c0 -81 38 -114 132 -114c125 0 161 59 187 209l76 432h137zM715 938c-26 -99 -85 -158 -207 -158c-92 0 -169 38 -169 158h84
c0 -56 22 -84 89 -84c60 0 100 20 119 84h84z" />
    <glyph glyph-name="Uhungarumlaut" unicode="&#x170;" horiz-adv-x="731" 
d="M789 743l-81 -455c-38 -213 -133 -304 -333 -304c-174 0 -255 86 -255 229c0 41 5 74 12 113l73 417h139l-76 -432c-7 -37 -11 -68 -11 -95c0 -81 38 -114 132 -114c125 0 161 59 187 209l76 432h137zM864 938l-184 -149h-127l158 149h153zM620 938l-184 -149h-127
l158 149h153z" />
    <glyph glyph-name="Umacron" unicode="&#x16a;" horiz-adv-x="731" 
d="M789 743l-81 -455c-38 -213 -133 -304 -333 -304c-174 0 -255 86 -255 229c0 41 5 74 12 113l73 417h139l-76 -432c-7 -37 -11 -68 -11 -95c0 -81 38 -114 132 -114c125 0 161 59 187 209l76 432h137zM697 815h-376l14 88h376z" />
    <glyph glyph-name="Uogonek" unicode="&#x172;" horiz-adv-x="731" 
d="M436 -203c-18 -6 -61 -14 -112 -14c-85 0 -122 36 -122 89c0 59 47 95 99 118c-123 21 -181 102 -181 223c0 41 5 74 12 113l73 417h139l-76 -432c-7 -37 -11 -68 -11 -95c0 -81 38 -114 132 -114c125 0 161 59 187 209l76 432h137l-81 -455
c-34 -189 -112 -281 -269 -300c-55 -21 -122 -53 -122 -96c0 -19 12 -30 50 -30c26 0 54 3 81 5z" />
    <glyph glyph-name="Uring" unicode="&#x16e;" horiz-adv-x="731" 
d="M789 743l-81 -455c-38 -213 -133 -304 -333 -304c-174 0 -255 86 -255 229c0 41 5 74 12 113l73 417h139l-76 -432c-7 -37 -11 -68 -11 -95c0 -81 38 -114 132 -114c125 0 161 59 187 209l76 432h137zM637 888c0 -78 -55 -116 -128 -116c-74 0 -131 38 -131 116
c0 79 57 117 131 117c73 0 128 -38 128 -117zM564 888c0 38 -24 51 -55 51c-32 0 -56 -13 -56 -51c0 -36 23 -51 56 -51c31 0 55 15 55 51z" />
    <glyph glyph-name="Utilde" unicode="&#x168;" horiz-adv-x="731" 
d="M789 743l-81 -455c-38 -213 -133 -304 -333 -304c-174 0 -255 86 -255 229c0 41 5 74 12 113l73 417h139l-76 -432c-7 -37 -11 -68 -11 -95c0 -81 38 -114 132 -114c125 0 161 59 187 209l76 432h137zM745 944c-9 -122 -63 -161 -127 -161c-41 0 -72 11 -106 35l-39 28
c-19 15 -32 24 -50 24c-27 0 -40 -21 -48 -81h-82c12 125 66 161 134 161c39 0 64 -9 97 -33l40 -29c18 -14 33 -24 53 -24c27 0 43 23 47 80h81z" />
    <glyph glyph-name="Wacute" unicode="&#x1e82;" horiz-adv-x="948" 
d="M1038 743l-261 -743h-187l-21 396c-2 32 -2 59 -6 100c-11 -28 -24 -65 -39 -100l-165 -396h-189l2 743h139l-9 -452c-1 -49 -3 -99 -5 -144h5c21 49 37 93 55 137l140 331h169l16 -333c2 -44 4 -90 5 -135h5c17 57 25 87 45 144l159 452h142zM861 938l-184 -149h-127
l158 149h153z" />
    <glyph glyph-name="Wcircumflex" unicode="&#x174;" horiz-adv-x="948" 
d="M1038 743l-261 -743h-187l-21 396c-2 32 -2 59 -6 100c-11 -28 -24 -65 -39 -100l-165 -396h-189l2 743h139l-9 -452c-1 -49 -3 -99 -5 -144h5c21 49 37 93 55 137l140 331h169l16 -333c2 -44 4 -90 5 -135h5c17 57 25 87 45 144l159 452h142zM828 789h-117l-78 91
l-113 -91h-125l161 149h164z" />
    <glyph glyph-name="Wdieresis" unicode="&#x1e84;" horiz-adv-x="948" 
d="M1038 743l-261 -743h-187l-21 396c-2 32 -2 59 -6 100c-11 -28 -24 -65 -39 -100l-165 -396h-189l2 743h139l-9 -452c-1 -49 -3 -99 -5 -144h5c21 49 37 93 55 137l140 331h169l16 -333c2 -44 4 -90 5 -135h5c17 57 25 87 45 144l159 452h142zM814 927l-22 -124h-110
l21 124h111zM461 927h112l-22 -124h-111z" />
    <glyph glyph-name="Wgrave" unicode="&#x1e80;" horiz-adv-x="948" 
d="M1038 743l-261 -743h-187l-21 396c-2 32 -2 59 -6 100c-11 -28 -24 -65 -39 -100l-165 -396h-189l2 743h139l-9 -452c-1 -49 -3 -99 -5 -144h5c21 49 37 93 55 137l140 331h169l16 -333c2 -44 4 -90 5 -135h5c17 57 25 87 45 144l159 452h142zM713 789h-125l-132 149h153
z" />
    <glyph glyph-name="Ycircumflex" unicode="&#x176;" horiz-adv-x="666" 
d="M780 743l-330 -465l-49 -278h-136l49 278l-166 465h141l78 -216c12 -32 24 -78 32 -115h5c20 37 51 81 75 115l157 216h144zM688 789h-117l-78 91l-113 -91h-125l161 149h164z" />
    <glyph glyph-name="Ygrave" unicode="&#x1ef2;" horiz-adv-x="666" 
d="M780 743l-330 -465l-49 -278h-136l49 278l-166 465h141l78 -216c12 -32 24 -78 32 -115h5c20 37 51 81 75 115l157 216h144zM559 788h-125l-132 149h153z" />
    <glyph glyph-name="Zacute" unicode="&#x179;" horiz-adv-x="641" 
d="M708 743l-21 -127l-453 -500h373l-18 -116h-536l20 126l453 500h-348l19 117h511zM719 938l-184 -149h-127l158 149h153z" />
    <glyph glyph-name="Zdotaccent" unicode="&#x17b;" horiz-adv-x="641" 
d="M708 743l-21 -127l-453 -500h373l-18 -116h-536l20 126l453 500h-348l19 117h511zM528 804h-134l21 124h135z" />
    <glyph glyph-name="Idotaccent" unicode="&#x130;" horiz-adv-x="298" 
d="M350 743l-131 -743h-140l131 743h140zM358 804h-134l21 124h135z" />
    <glyph glyph-name="abreve" unicode="&#x103;" 
d="M543 0h-124l4 29c-42 -25 -98 -43 -164 -43c-111 0 -172 65 -172 187c0 24 2 52 7 80l15 80c38 201 136 244 307 244c58 0 149 -5 225 -15zM432 121l62 342c-36 3 -82 4 -100 4c-83 0 -132 -22 -156 -150l-15 -80c-3 -23 -5 -41 -5 -57c0 -58 30 -84 95 -84
c42 0 82 10 119 25zM624 782c-26 -99 -85 -158 -207 -158c-92 0 -169 38 -169 158h84c0 -56 22 -84 89 -84c60 0 100 20 119 84h84z" />
    <glyph glyph-name="amacron" unicode="&#x101;" 
d="M543 0h-124l4 29c-42 -25 -98 -43 -164 -43c-111 0 -172 65 -172 187c0 24 2 52 7 80l15 80c38 201 136 244 307 244c58 0 149 -5 225 -15zM432 121l62 342c-36 3 -82 4 -100 4c-83 0 -132 -22 -156 -150l-15 -80c-3 -23 -5 -41 -5 -57c0 -58 30 -84 95 -84
c42 0 82 10 119 25zM595 654h-376l14 88h376z" />
    <glyph glyph-name="aogonek" unicode="&#x105;" 
d="M543 0c-57 -20 -156 -56 -156 -108c0 -19 12 -30 50 -30c26 0 54 3 81 5l-12 -70c-18 -6 -61 -14 -112 -14c-85 0 -122 36 -122 89c0 83 80 102 147 128l7 46c-42 -31 -101 -60 -167 -60c-111 0 -172 65 -172 187c0 24 2 52 7 80l15 80c36 201 137 244 307 244
c58 0 149 -5 225 -15zM435 138l59 325c-36 3 -82 4 -100 4c-83 0 -132 -22 -156 -150l-15 -80c-3 -23 -5 -41 -5 -57c0 -58 30 -84 95 -84c42 0 86 18 122 42z" />
    <glyph glyph-name="aringacute" unicode="&#x1fb;" 
d="M543 0h-124l4 29c-42 -25 -98 -43 -164 -43c-111 0 -172 65 -172 187c0 24 2 52 7 80l15 80c38 201 136 244 307 244c58 0 149 -5 225 -15zM432 121l62 342c-36 3 -82 4 -100 4c-83 0 -132 -22 -156 -150l-15 -80c-3 -23 -5 -41 -5 -57c0 -58 30 -84 95 -84
c42 0 82 10 119 25zM568 715c0 -78 -55 -116 -128 -116c-74 0 -131 38 -131 116c0 79 57 117 131 117c73 0 128 -38 128 -117zM495 715c0 38 -24 51 -55 51c-32 0 -56 -13 -56 -51c0 -36 23 -51 56 -51c31 0 55 15 55 51zM710 998l-184 -149h-127l158 149h153z" />
    <glyph glyph-name="aeacute" unicode="&#x1fd;" horiz-adv-x="936" 
d="M946 376c0 -25 -3 -52 -17 -136h-376l-2 -10c-4 -20 -6 -39 -6 -56c0 -51 24 -84 128 -84c71 0 148 6 208 14l-16 -95c-45 -11 -129 -23 -218 -23c-102 0 -160 22 -193 67c-79 -49 -156 -67 -243 -67c-94 0 -142 47 -142 129c0 14 0 28 7 66c26 147 136 156 294 156h67
l7 35c3 17 5 32 5 43c0 42 -25 54 -103 54c-58 0 -114 -4 -180 -11l15 88c25 10 112 31 203 31c106 0 147 -19 170 -52c45 32 101 51 180 51c153 0 212 -82 212 -200zM819 382c0 48 -21 89 -103 89c-106 0 -134 -72 -146 -136l-2 -9h245c4 24 6 41 6 56zM427 256h-70
c-97 0 -141 -11 -154 -85c-6 -32 -6 -38 -6 -43c0 -37 28 -48 68 -48c54 0 113 22 136 34zM834 774l-184 -149h-127l158 149h153z" />
    <glyph glyph-name="cacute" unicode="&#x107;" horiz-adv-x="505" 
d="M559 556l-16 -99c-70 6 -118 9 -150 9c-82 0 -133 -27 -155 -149l-13 -71c-4 -23 -6 -42 -6 -59c0 -73 35 -91 107 -91c31 0 80 3 152 9l-16 -99c-27 -7 -91 -21 -170 -21c-146 0 -203 78 -203 196c0 25 2 52 7 81l13 71c31 172 117 244 280 244c85 0 145 -14 170 -21z
M646 774l-184 -149h-127l158 149h153z" />
    <glyph glyph-name="ccaron" unicode="&#x10d;" horiz-adv-x="505" 
d="M559 556l-16 -99c-70 6 -118 9 -150 9c-82 0 -133 -27 -155 -149l-13 -71c-4 -23 -6 -42 -6 -59c0 -73 35 -91 107 -91c31 0 80 3 152 9l-16 -99c-27 -7 -91 -21 -170 -21c-146 0 -203 78 -203 196c0 25 2 52 7 81l13 71c31 172 117 244 280 244c85 0 145 -14 170 -21z
M203 774h117l79 -91l112 91h126l-162 -149h-163z" />
    <glyph glyph-name="ccircumflex" unicode="&#x109;" horiz-adv-x="505" 
d="M559 556l-16 -99c-70 6 -118 9 -150 9c-82 0 -133 -27 -155 -149l-13 -71c-4 -23 -6 -42 -6 -59c0 -73 35 -91 107 -91c31 0 80 3 152 9l-16 -99c-27 -7 -91 -21 -170 -21c-146 0 -203 78 -203 196c0 25 2 52 7 81l13 71c31 172 117 244 280 244c85 0 145 -14 170 -21z
M608 625h-117l-78 91l-113 -91h-125l161 149h164z" />
    <glyph glyph-name="cdotaccent" unicode="&#x10b;" horiz-adv-x="505" 
d="M559 556l-16 -99c-70 6 -118 9 -150 9c-82 0 -133 -27 -155 -149l-13 -71c-4 -23 -6 -42 -6 -59c0 -73 35 -91 107 -91c31 0 80 3 152 9l-16 -99c-27 -7 -91 -21 -170 -21c-146 0 -203 78 -203 196c0 25 2 52 7 81l13 71c31 172 117 244 280 244c85 0 145 -14 170 -21z
M473 651h-134l21 124h135z" />
    <glyph glyph-name="dcaron" unicode="&#x10f;" horiz-adv-x="691" 
d="M493 457c-36 6 -76 10 -102 10c-80 0 -129 -22 -153 -150l-15 -80c-4 -22 -6 -42 -6 -57c0 -59 30 -84 95 -84c42 0 82 10 120 25zM680 777l-137 -777h-124l4 29c-41 -24 -99 -44 -161 -44c-113 0 -176 67 -176 189c0 24 2 51 8 80l15 80c37 197 139 243 285 243
c42 0 78 -4 115 -11l39 211h132zM884 777l-127 -245h-95l97 245h125z" />
    <glyph glyph-name="dcroat" unicode="&#x111;" 
d="M353 634l15 82h168l12 61h132l-12 -61h59l-14 -82h-59l-111 -634h-124l4 29c-41 -24 -99 -44 -161 -44c-113 0 -176 67 -176 189c0 24 2 51 8 80l15 80c37 197 139 243 285 243c42 0 78 -4 115 -11l13 68h-169zM432 121l61 336c-36 6 -76 10 -102 10
c-80 0 -129 -22 -153 -150l-15 -80c-4 -22 -6 -42 -6 -57c0 -59 30 -84 95 -84c42 0 82 10 120 25z" />
    <glyph glyph-name="ebreve" unicode="&#x115;" horiz-adv-x="608" 
d="M617 376c0 -41 -6 -81 -17 -136h-376c-5 -29 -8 -47 -8 -62c0 -53 27 -84 130 -84c60 0 130 6 206 13l-16 -98c-44 -10 -120 -24 -215 -24c-159 0 -233 64 -233 198c0 29 3 62 10 97l7 35c38 188 141 262 293 262c147 0 219 -74 219 -201zM490 382c0 48 -20 89 -102 89
c-104 0 -135 -72 -147 -136l-1 -9h244c4 22 6 41 6 56zM629 781c-26 -99 -85 -158 -207 -158c-94 0 -169 38 -169 158h84c0 -56 22 -84 89 -84c60 0 100 20 119 84h84z" />
    <glyph glyph-name="ecaron" unicode="&#x11b;" horiz-adv-x="608" 
d="M617 376c0 -41 -6 -81 -17 -136h-376c-5 -29 -8 -47 -8 -62c0 -53 27 -84 130 -84c60 0 130 6 206 13l-16 -98c-44 -10 -120 -24 -215 -24c-159 0 -233 64 -233 198c0 29 3 62 10 97l7 35c38 188 141 262 293 262c147 0 219 -74 219 -201zM490 382c0 48 -20 89 -102 89
c-104 0 -135 -72 -147 -136l-1 -9h244c4 22 6 41 6 56zM234 774h117l79 -91l112 91h126l-162 -149h-163z" />
    <glyph glyph-name="edotaccent" unicode="&#x117;" horiz-adv-x="608" 
d="M617 376c0 -41 -6 -81 -17 -136h-376c-5 -29 -8 -47 -8 -62c0 -53 27 -84 130 -84c60 0 130 6 206 13l-16 -98c-44 -10 -120 -24 -215 -24c-159 0 -233 64 -233 198c0 29 3 62 10 97l7 35c38 188 141 262 293 262c147 0 219 -74 219 -201zM490 382c0 48 -20 89 -102 89
c-104 0 -135 -72 -147 -136l-1 -9h244c4 22 6 41 6 56zM481 651h-134l21 124h135z" />
    <glyph glyph-name="emacron" unicode="&#x113;" horiz-adv-x="608" 
d="M617 376c0 -41 -6 -81 -17 -136h-376c-5 -29 -8 -47 -8 -62c0 -53 27 -84 130 -84c60 0 130 6 206 13l-16 -98c-44 -10 -120 -24 -215 -24c-159 0 -233 64 -233 198c0 29 3 62 10 97l7 35c38 188 141 262 293 262c147 0 219 -74 219 -201zM490 382c0 48 -20 89 -102 89
c-104 0 -135 -72 -147 -136l-1 -9h244c4 22 6 41 6 56zM603 654h-376l14 88h376z" />
    <glyph glyph-name="eng" unicode="&#x14b;" horiz-adv-x="634" 
d="M623 341l-68 -388c-23 -130 -68 -172 -192 -172c-32 0 -68 4 -80 7l15 92c16 0 35 -1 57 -1c45 0 57 17 67 74l72 402c3 20 5 37 6 52c0 41 -18 59 -67 59c-42 0 -93 -12 -153 -41l-75 -425h-132l98 562h126l-6 -42c66 39 131 57 188 57c119 0 154 -62 154 -145
c0 -28 -5 -60 -10 -91z" />
    <glyph glyph-name="eogonek" unicode="&#x119;" horiz-adv-x="608" 
d="M617 376c0 -41 -6 -81 -17 -136h-376l-2 -10c-4 -19 -6 -37 -6 -52c0 -53 27 -84 130 -84c60 0 130 6 206 13l-16 -98c-36 -15 -159 -50 -159 -112c0 -19 12 -35 50 -35c26 0 54 3 81 5l-12 -70c-18 -6 -61 -14 -112 -14c-85 0 -122 41 -122 94c0 49 33 84 75 108h-16
c-159 0 -233 64 -233 198c0 29 3 62 10 97l7 35c39 193 141 262 293 262c147 0 219 -74 219 -201zM490 382c0 48 -20 89 -102 89c-104 0 -135 -72 -147 -136l-1 -9h244c4 22 6 41 6 56z" />
    <glyph glyph-name="gbreve" unicode="&#x11f;" horiz-adv-x="615" 
d="M641 562l-101 -584c-23 -130 -83 -197 -266 -197c-106 0 -207 17 -225 22l15 88c61 -3 141 -8 210 -8c102 0 123 30 134 95l4 23c-20 -3 -67 -8 -103 -8c-141 0 -220 60 -220 196c0 23 3 48 8 77l11 63c31 177 126 248 320 248c74 0 155 -7 213 -15zM494 462
c-16 2 -51 5 -91 5c-107 0 -147 -48 -165 -152l-11 -62c-4 -24 -6 -43 -6 -61c0 -67 35 -90 113 -90c35 0 82 4 95 6zM639 781c-26 -99 -85 -158 -207 -158c-94 0 -169 38 -169 158h84c0 -56 22 -84 89 -84c60 0 100 20 119 84h84z" />
    <glyph glyph-name="gcircumflex" unicode="&#x11d;" horiz-adv-x="615" 
d="M641 562l-101 -584c-23 -130 -83 -197 -266 -197c-106 0 -207 17 -225 22l15 88c61 -3 141 -8 210 -8c102 0 123 30 134 95l4 23c-20 -3 -67 -8 -103 -8c-141 0 -220 60 -220 196c0 23 3 48 8 77l11 63c31 177 126 248 320 248c74 0 155 -7 213 -15zM494 462
c-16 2 -51 5 -91 5c-107 0 -147 -48 -165 -152l-11 -62c-4 -24 -6 -43 -6 -61c0 -67 35 -90 113 -90c35 0 82 4 95 6zM640 625h-117l-78 91l-113 -91h-125l161 149h164z" />
    <glyph glyph-name="gcommaaccent" unicode="&#x123;" horiz-adv-x="615" 
d="M641 562l-101 -584c-23 -130 -83 -197 -266 -197c-106 0 -207 17 -225 22l15 88c61 -3 141 -8 210 -8c102 0 123 30 134 95l4 23c-20 -3 -67 -8 -103 -8c-141 0 -220 60 -220 196c0 23 3 48 8 77l11 63c31 177 126 248 320 248c74 0 155 -7 213 -15zM494 462
c-16 2 -51 5 -91 5c-107 0 -147 -48 -165 -152l-11 -62c-4 -24 -6 -43 -6 -61c0 -67 35 -90 113 -90c35 0 82 4 95 6zM360 626l118 141h116l-92 -141h-142z" />
    <glyph glyph-name="gdotaccent" unicode="&#x121;" horiz-adv-x="615" 
d="M641 562l-101 -584c-23 -130 -83 -197 -266 -197c-106 0 -207 17 -225 22l15 88c61 -3 141 -8 210 -8c102 0 123 30 134 95l4 23c-20 -3 -67 -8 -103 -8c-141 0 -220 60 -220 196c0 23 3 48 8 77l11 63c31 177 126 248 320 248c74 0 155 -7 213 -15zM494 462
c-16 2 -51 5 -91 5c-107 0 -147 -48 -165 -152l-11 -62c-4 -24 -6 -43 -6 -61c0 -67 35 -90 113 -90c35 0 82 4 95 6zM495 651h-134l21 124h135z" />
    <glyph glyph-name="hbar" unicode="&#x127;" horiz-adv-x="635" 
d="M127 637l14 79h58l12 61h131l-11 -61h169l-14 -79h-169l-18 -102c42 20 110 42 181 42c116 0 154 -58 154 -145c0 -21 -5 -54 -11 -91l-59 -341h-132l62 355c3 19 5 35 5 49c0 47 -23 62 -74 62c-53 0 -110 -17 -143 -31l-77 -435h-132l112 637h-58z" />
    <glyph glyph-name="hcircumflex" unicode="&#x125;" horiz-adv-x="635" 
d="M634 432c0 -21 -5 -54 -11 -91l-59 -341h-132l62 355c3 19 5 35 5 49c0 47 -23 62 -74 62c-53 0 -110 -17 -143 -31l-77 -435h-132l138 777h131l-43 -242c42 20 110 42 181 42c116 0 154 -58 154 -145zM671 795h-117l-78 91l-113 -91h-125l161 149h164z" />
    <glyph glyph-name="ibreve" unicode="&#x12d;" horiz-adv-x="287" 
d="M467 781c-26 -99 -85 -158 -207 -158c-94 0 -169 38 -169 158h84c0 -56 22 -84 89 -84c60 0 100 20 119 84h84zM210 0h-133l98 562h132z" />
    <glyph glyph-name="ij" unicode="&#x133;" horiz-adv-x="578" 
d="M309 562l-97 -562h-133l98 562h132zM350 777l-22 -127h-136l20 127h138zM596 562l-107 -609c-23 -130 -73 -172 -191 -172c-33 0 -69 4 -81 7l16 92c15 0 35 -1 56 -1c46 0 58 17 68 74l108 609h131zM637 777l-22 -127h-138l23 127h137z" />
    <glyph glyph-name="imacron" unicode="&#x12b;" horiz-adv-x="287" 
d="M446 654h-376l14 88h376zM210 0h-133l98 562h132z" />
    <glyph glyph-name="iogonek" unicode="&#x12f;" horiz-adv-x="287" 
d="M230 -203c-18 -6 -66 -14 -113 -14c-82 0 -120 27 -120 86c0 52 36 97 80 133l98 560h132l-97 -562c-28 -16 -99 -60 -99 -106c0 -20 11 -32 49 -32c30 0 55 3 81 5zM326 650h-136l22 127h136z" />
    <glyph glyph-name="itilde" unicode="&#x129;" horiz-adv-x="287" 
d="M495 782c-9 -122 -63 -161 -127 -161c-41 0 -73 11 -106 35l-48 34c-15 10 -24 18 -39 18c-29 0 -42 -19 -50 -81h-82c12 125 66 161 134 161c39 0 64 -9 97 -33l43 -32c15 -12 28 -21 45 -21c30 0 48 18 52 80h81zM210 0h-133l98 562h132z" />
    <glyph glyph-name="jcircumflex" unicode="&#x135;" horiz-adv-x="287" 
d="M200 -47c-23 -130 -74 -172 -191 -172c-32 0 -68 4 -81 7l16 92c16 0 35 -1 57 -1c46 0 57 17 67 74l107 609h132zM469 625h-117l-78 91l-113 -91h-125l161 149h164z" />
    <glyph glyph-name="kcommaaccent" unicode="&#x137;" horiz-adv-x="573" 
d="M657 562l-265 -269l168 -293h-149l-157 276l-49 -276h-132l137 777h132l-82 -461l237 246h160zM359 -65l-118 -141h-116l92 141h142z" />
    <glyph glyph-name="lacute" unicode="&#x13a;" horiz-adv-x="286" 
d="M345 777l-136 -777h-132l137 777h131zM523 947l-184 -149h-127l158 149h153z" />
    <glyph glyph-name="lcaron" unicode="&#x13e;" horiz-adv-x="428" 
d="M345 777l-136 -777h-132l137 777h131zM588 777l-127 -245h-95l97 245h125z" />
    <glyph glyph-name="lcommaaccent" unicode="&#x13c;" horiz-adv-x="286" 
d="M345 777l-136 -777h-132l137 777h131zM203 -65l-118 -141h-116l92 141h142z" />
    <glyph glyph-name="ldot" unicode="&#x140;" horiz-adv-x="441" 
d="M345 777l-136 -777h-132l137 777h131zM469 292h-128l27 154h128z" />
    <glyph glyph-name="nacute" unicode="&#x144;" horiz-adv-x="634" 
d="M633 432c-1 -28 -4 -60 -10 -91l-59 -341h-132l62 355c3 20 5 37 6 52c0 41 -18 59 -67 59c-42 0 -93 -12 -153 -41l-75 -425h-132l98 562h126l-6 -42c66 39 131 57 188 57c119 0 154 -62 154 -145zM642 774l-184 -149h-127l158 149h153z" />
    <glyph glyph-name="ncaron" unicode="&#x148;" horiz-adv-x="634" 
d="M633 432c0 -28 -5 -60 -10 -91l-59 -341h-132l62 355c3 20 5 37 6 52c0 41 -18 59 -67 59c-42 0 -93 -12 -153 -41l-75 -425h-132l98 562h126l-6 -42c66 39 131 57 188 57c119 0 154 -62 154 -145zM246 774h117l79 -91l112 91h126l-162 -149h-163z" />
    <glyph glyph-name="ncommaaccent" unicode="&#x146;" horiz-adv-x="634" 
d="M633 432c0 -28 -5 -60 -10 -91l-59 -341h-132l62 355c3 20 5 37 6 52c0 41 -18 59 -67 59c-42 0 -93 -12 -153 -41l-75 -425h-132l98 562h126l-6 -42c66 39 131 57 188 57c119 0 154 -62 154 -145zM354 -65l-118 -141h-116l92 141h142z" />
    <glyph glyph-name="obreve" unicode="&#x14f;" horiz-adv-x="610" 
d="M620 381c0 -26 -6 -61 -8 -79l-13 -70c-33 -177 -131 -247 -290 -247c-147 0 -220 70 -220 196c0 28 3 56 7 81l12 70c31 178 134 245 290 245c143 0 222 -62 222 -196zM488 379c0 55 -22 86 -102 86c-92 0 -129 -41 -149 -149l-13 -70c-4 -23 -6 -43 -6 -65
c0 -59 28 -84 101 -84c96 0 130 41 150 149l13 70c5 28 6 45 6 63zM630 781c-26 -99 -85 -158 -207 -158c-94 0 -169 38 -169 158h84c0 -56 22 -84 89 -84c60 0 100 20 119 84h84z" />
    <glyph glyph-name="ohungarumlaut" unicode="&#x151;" horiz-adv-x="610" 
d="M620 381c0 -26 -6 -61 -8 -79l-13 -70c-33 -177 -131 -247 -290 -247c-147 0 -220 70 -220 196c0 28 3 56 7 81l12 70c31 178 134 245 290 245c143 0 222 -62 222 -196zM488 379c0 55 -22 86 -102 86c-92 0 -129 -41 -149 -149l-13 -70c-4 -23 -6 -43 -6 -65
c0 -59 28 -84 101 -84c96 0 130 41 150 149l13 70c5 28 6 45 6 63zM760 774l-184 -149h-127l158 149h153zM475 774l-184 -149h-127l158 149h153z" />
    <glyph glyph-name="omacron" unicode="&#x14d;" horiz-adv-x="610" 
d="M620 381c0 -26 -6 -61 -8 -79l-13 -70c-33 -177 -131 -247 -290 -247c-147 0 -220 70 -220 196c0 28 3 56 7 81l12 70c31 178 134 245 290 245c143 0 222 -62 222 -196zM488 379c0 55 -22 86 -102 86c-92 0 -129 -41 -149 -149l-13 -70c-4 -23 -6 -43 -6 -65
c0 -59 28 -84 101 -84c96 0 130 41 150 149l13 70c5 28 6 45 6 63zM607 654h-376l14 88h376z" />
    <glyph glyph-name="oslashacute" unicode="&#x1ff;" horiz-adv-x="610" 
d="M660 774l-184 -149h-127l158 149h153zM620 381c0 -26 -6 -61 -8 -79l-13 -70c-33 -177 -131 -247 -290 -247c-62 0 -111 12 -147 36l-42 -45h-112l100 107c-13 27 -19 60 -19 98c0 28 3 56 7 81l12 70c31 178 134 245 290 245c59 0 108 -11 144 -33l28 30h112l-84 -90
c14 -28 22 -62 22 -103zM482 316c4 22 5 37 6 51l-240 -255c16 -10 39 -15 71 -15c96 0 130 41 150 149zM224 246c-3 -16 -5 -31 -6 -46l237 251c-16 9 -38 14 -69 14c-92 0 -129 -41 -149 -149z" />
    <glyph glyph-name="racute" unicode="&#x155;" horiz-adv-x="406" 
d="M492 577l-19 -120c-68 0 -146 -15 -192 -34l-76 -423h-132l99 562h124l-7 -46c62 48 133 61 203 61zM596 774l-184 -149h-127l158 149h153z" />
    <glyph glyph-name="rcaron" unicode="&#x159;" horiz-adv-x="406" 
d="M492 577l-19 -120c-68 0 -146 -15 -192 -34l-76 -423h-132l99 562h124l-7 -46c62 48 133 61 203 61zM149 774h117l79 -91l112 91h126l-162 -149h-163z" />
    <glyph glyph-name="rcommaaccent" unicode="&#x157;" horiz-adv-x="406" 
d="M492 577l-19 -120c-68 0 -146 -15 -192 -34l-76 -423h-132l99 562h124l-7 -46c62 48 133 61 203 61zM270 -65l-118 -141h-116l92 141h142z" />
    <glyph glyph-name="sacute" unicode="&#x15b;" horiz-adv-x="512" 
d="M544 555l-15 -91c-68 8 -128 12 -172 12c-49 0 -108 -4 -108 -62c0 -29 18 -38 72 -62l43 -19c98 -44 139 -80 139 -160c0 -133 -105 -187 -261 -187c-78 0 -164 14 -187 22l15 90c50 -6 103 -11 183 -11c65 0 117 11 117 69c0 33 -17 44 -85 74l-39 17
c-86 38 -129 81 -129 159c0 142 118 171 238 171c83 0 150 -11 189 -22zM617 774l-184 -149h-127l158 149h153z" />
    <glyph glyph-name="scedilla" unicode="&#x15f;" horiz-adv-x="512" 
d="M544 555l-15 -91c-68 8 -128 12 -172 12c-49 0 -108 -4 -108 -62c0 -29 18 -38 72 -62l43 -19c98 -44 139 -80 139 -160c0 -133 -105 -187 -261 -187c-78 0 -164 14 -187 22l15 90c50 -6 103 -11 183 -11c65 0 117 11 117 69c0 33 -17 44 -85 74l-39 17
c-86 38 -129 81 -129 159c0 142 118 171 238 171c83 0 150 -11 189 -22zM347 -65l-160 -141h-125l136 141h149z" />
    <glyph glyph-name="scircumflex" unicode="&#x15d;" horiz-adv-x="512" 
d="M544 555l-15 -91c-68 8 -128 12 -172 12c-49 0 -108 -4 -108 -62c0 -29 18 -38 72 -62l43 -19c98 -44 139 -80 139 -160c0 -133 -105 -187 -261 -187c-78 0 -164 14 -187 22l15 90c50 -6 103 -11 183 -11c65 0 117 11 117 69c0 33 -17 44 -85 74l-39 17
c-86 38 -129 81 -129 159c0 142 118 171 238 171c83 0 150 -11 189 -22zM579 625h-117l-78 91l-113 -91h-125l161 149h164z" />
    <glyph glyph-name="scommaaccent" unicode="&#x219;" horiz-adv-x="512" 
d="M544 555l-15 -91c-68 8 -128 12 -172 12c-49 0 -108 -4 -108 -62c0 -29 18 -38 72 -62l43 -19c98 -44 139 -80 139 -160c0 -133 -105 -187 -261 -187c-78 0 -164 14 -187 22l15 90c50 -6 103 -11 183 -11c65 0 117 11 117 69c0 33 -17 44 -85 74l-39 17
c-86 38 -129 81 -129 159c0 142 118 171 238 171c83 0 150 -11 189 -22zM325 -65l-118 -141h-116l92 141h142z" />
    <glyph glyph-name="tbar" unicode="&#x167;" horiz-adv-x="419" 
d="M487 562l-15 -94h-137l-13 -72h137l-16 -94h-137l-29 -154c-3 -15 -5 -27 -5 -35c0 -23 12 -28 46 -28c28 0 62 2 85 4l-14 -88c-15 -4 -66 -15 -117 -15c-90 0 -130 37 -130 115c0 16 1 34 5 54l28 147l-104 7l14 87h105l13 72l-103 6l14 88h105l25 141h132l-26 -141
h137z" />
    <glyph glyph-name="tcaron" unicode="&#x165;" horiz-adv-x="444" 
d="M596 777l-92 -160h-84l61 160h115zM495 562l-17 -104h-137l-56 -305c-4 -19 -5 -31 -5 -40c0 -22 12 -27 46 -27c28 0 69 2 85 4l-14 -89c-16 -4 -66 -16 -117 -16c-91 0 -130 40 -130 119c0 16 1 35 5 55l54 299l-103 8l15 96h105l26 144h132l-26 -144h137z" />
    <glyph glyph-name="tcedilla" unicode="&#x163;" horiz-adv-x="419" 
d="M487 562l-17 -104h-137l-56 -305c-4 -19 -5 -31 -5 -40c0 -22 12 -27 46 -27c28 0 69 2 85 4l-14 -89c-16 -4 -66 -16 -117 -16c-91 0 -130 40 -130 119c0 16 1 35 5 55l54 299l-103 8l15 96h105l26 144h132l-26 -144h137zM294 -65l-118 -141h-116l92 141h142z" />
    <glyph glyph-name="tcommaaccent" unicode="&#x21b;" horiz-adv-x="419" 
d="M487 562l-17 -104h-137l-56 -305c-4 -19 -5 -31 -5 -40c0 -22 12 -27 46 -27c28 0 69 2 85 4l-14 -89c-16 -4 -66 -16 -117 -16c-91 0 -130 40 -130 119c0 16 1 35 5 55l54 299l-103 8l15 96h105l26 144h132l-26 -144h137zM294 -65l-118 -141h-116l92 141h142z" />
    <glyph glyph-name="ubreve" unicode="&#x16d;" horiz-adv-x="635" 
d="M659 562l-99 -562h-126l7 45c-67 -36 -132 -60 -199 -60c-112 0 -143 65 -143 145c0 29 4 59 9 88l61 344h131l-62 -357c-4 -24 -7 -42 -7 -58c0 -39 18 -52 62 -52c42 0 95 15 158 39l76 428h132zM642 781c-26 -99 -85 -158 -207 -158c-94 0 -169 38 -169 158h84
c0 -56 22 -84 89 -84c60 0 100 20 121 84h82z" />
    <glyph glyph-name="uhungarumlaut" unicode="&#x171;" horiz-adv-x="635" 
d="M659 562l-99 -562h-126l7 45c-67 -36 -132 -60 -199 -60c-112 0 -143 65 -143 145c0 29 4 59 9 88l61 344h131l-62 -357c-4 -24 -7 -42 -7 -58c0 -39 18 -52 62 -52c42 0 95 15 158 39l76 428h132zM790 774l-184 -149h-127l158 149h153zM505 774l-184 -149h-127l158 149
h153z" />
    <glyph glyph-name="umacron" unicode="&#x16b;" horiz-adv-x="635" 
d="M659 562l-99 -562h-126l7 45c-67 -36 -132 -60 -199 -60c-112 0 -143 65 -143 145c0 29 4 59 9 88l61 344h131l-62 -357c-4 -24 -7 -42 -7 -58c0 -39 18 -52 62 -52c42 0 95 15 158 39l76 428h132zM622 654h-376l14 88h376z" />
    <glyph glyph-name="uogonek" unicode="&#x173;" horiz-adv-x="635" 
d="M560 0c-57 -20 -156 -56 -156 -108c0 -19 13 -30 50 -30c27 0 55 3 81 5l-11 -70c-18 -6 -62 -14 -113 -14c-85 0 -120 36 -120 89c0 74 77 107 143 128l7 45c-67 -36 -132 -60 -199 -60c-112 0 -143 65 -143 145c0 29 4 59 9 88l61 344h131l-62 -357
c-4 -24 -7 -42 -7 -58c0 -39 18 -52 62 -52c42 0 95 15 158 39l76 428h132z" />
    <glyph glyph-name="uring" unicode="&#x16f;" horiz-adv-x="635" 
d="M659 562l-99 -562h-126l7 45c-67 -36 -132 -60 -199 -60c-112 0 -143 65 -143 145c0 29 4 59 9 88l61 344h131l-62 -357c-4 -24 -7 -42 -7 -58c0 -39 18 -52 62 -52c42 0 95 15 158 39l76 428h132zM556 729c0 -78 -55 -116 -128 -116c-74 0 -131 38 -131 116
c0 79 57 117 131 117c73 0 128 -38 128 -117zM483 729c0 38 -24 51 -55 51c-32 0 -56 -13 -56 -51c0 -36 23 -51 56 -51c31 0 55 15 55 51z" />
    <glyph glyph-name="utilde" unicode="&#x169;" horiz-adv-x="635" 
d="M659 562l-99 -562h-126l7 45c-67 -36 -132 -60 -199 -60c-112 0 -143 65 -143 145c0 29 4 59 9 88l61 344h131l-62 -357c-4 -24 -7 -42 -7 -58c0 -39 18 -52 62 -52c42 0 95 15 158 39l76 428h132zM671 782c-9 -122 -63 -161 -127 -161c-41 0 -73 9 -106 34l-39 29
c-19 15 -32 24 -50 24c-27 0 -40 -21 -48 -81h-82c12 125 66 161 134 161c39 0 64 -9 97 -33l40 -29c18 -14 33 -24 53 -24c27 0 43 23 47 80h81z" />
    <glyph glyph-name="wacute" unicode="&#x1e83;" horiz-adv-x="893" 
d="M960 562l-219 -562h-172l-41 278c-7 46 -9 82 -9 113h-4c-10 -31 -24 -66 -47 -113l-141 -278h-178l-22 562h133l5 -305c0 -24 1 -48 1 -72c0 -23 -1 -45 -1 -66h6c22 50 37 93 59 138l119 237h166l29 -237c6 -45 9 -94 13 -138h4c15 42 30 89 49 139l115 304h135z
M790 774l-184 -149h-127l158 149h153z" />
    <glyph glyph-name="wcircumflex" unicode="&#x175;" horiz-adv-x="893" 
d="M960 562l-219 -562h-172l-41 278c-7 46 -9 82 -9 113h-4c-10 -31 -24 -66 -47 -113l-141 -278h-178l-22 562h133l5 -305c0 -24 1 -48 1 -72c0 -23 -1 -45 -1 -66h6c22 50 37 93 59 138l119 237h166l29 -237c6 -45 9 -94 13 -138h4c15 42 30 89 49 139l115 304h135z
M763 625h-117l-78 91l-113 -91h-125l161 149h164z" />
    <glyph glyph-name="wdieresis" unicode="&#x1e85;" horiz-adv-x="893" 
d="M960 562l-219 -562h-172l-41 278c-7 46 -9 82 -9 113h-4c-10 -31 -24 -66 -47 -113l-141 -278h-178l-22 562h133l5 -305c0 -24 1 -48 1 -72c0 -23 -1 -45 -1 -66h6c22 50 37 93 59 138l119 237h166l29 -237c6 -45 9 -94 13 -138h4c15 42 30 89 49 139l115 304h135z
M749 769l-22 -124h-110l21 124h111zM396 769h112l-22 -124h-111z" />
    <glyph glyph-name="wgrave" unicode="&#x1e81;" horiz-adv-x="893" 
d="M960 562l-219 -562h-172l-41 278c-7 46 -9 82 -9 113h-4c-10 -31 -24 -66 -47 -113l-141 -278h-178l-22 562h133l5 -305c0 -24 1 -48 1 -72c0 -23 -1 -45 -1 -66h6c22 50 37 93 59 138l119 237h166l29 -237c6 -45 9 -94 13 -138h4c15 42 30 89 49 139l115 304h135z
M630 625h-125l-132 149h153z" />
    <glyph glyph-name="ycircumflex" unicode="&#x177;" horiz-adv-x="594" 
d="M669 562l-298 -583c-67 -131 -121 -198 -245 -198c-54 0 -104 6 -131 12l15 94c46 -2 70 -3 95 -3c64 0 80 22 114 86l18 34l-110 558h137l45 -299c7 -49 9 -95 15 -149c22 54 39 97 64 150l143 298h138zM628 625h-117l-78 91l-113 -91h-125l161 149h164z" />
    <glyph glyph-name="ygrave" unicode="&#x1ef3;" horiz-adv-x="594" 
d="M669 562l-298 -583c-67 -131 -121 -198 -245 -198c-54 0 -104 6 -131 12l15 94c46 -2 70 -3 95 -3c64 0 80 22 114 86l18 34l-110 558h137l45 -299c7 -49 9 -95 15 -149c22 54 39 97 64 150l143 298h138zM500 625h-125l-132 149h153z" />
    <glyph glyph-name="zacute" unicode="&#x17a;" horiz-adv-x="518" 
d="M571 562l-19 -115l-351 -343h290l-17 -104h-434l19 118l349 339h-276l17 105h422zM629 774l-184 -149h-127l158 149h153z" />
    <glyph glyph-name="zdotaccent" unicode="&#x17c;" horiz-adv-x="518" 
d="M571 562l-19 -115l-351 -343h290l-17 -104h-434l19 118l349 339h-276l17 105h422zM450 651h-134l21 124h135z" />
    <glyph glyph-name="kgreenlandic" unicode="&#x138;" horiz-adv-x="573" 
d="M560 0h-149l-157 276l-49 -276h-132l98 562h132l-43 -246l237 246h160l-265 -269z" />
    <glyph glyph-name="napostrophe" unicode="&#x149;" horiz-adv-x="708" 
d="M707 432c0 -28 -5 -60 -10 -91l-59 -341h-132l62 355c3 20 6 37 6 52c0 41 -18 59 -67 59c-42 0 -93 -12 -153 -41l-75 -425h-132l98 562h126l-6 -42c66 39 131 57 188 57c119 0 154 -62 154 -145zM301 777l-127 -245h-95l97 245h125z" />
    <glyph glyph-name="Delta" unicode="&#x2206;" horiz-adv-x="738" 
d="M701 0h-663l357 743h209zM549 111l-53 417c-5 42 -7 90 -7 124h-2c-16 -37 -32 -82 -52 -124l-203 -417h317z" />
    <glyph glyph-name="uni03A9" unicode="&#x3a9;" horiz-adv-x="714" 
d="M749 525c0 -24 -3 -50 -19 -140c-22 -122 -81 -205 -207 -249l-6 -37h154l-16 -99h-263l32 192c92 22 150 92 170 199c15 85 17 106 17 123c0 95 -61 124 -141 124c-95 0 -177 -40 -203 -183c-16 -88 -18 -109 -18 -128c0 -70 33 -117 104 -135l-32 -192h-262l16 99h153
l6 37c-86 35 -120 112 -120 203c0 24 3 49 19 137c35 199 168 281 357 281c165 0 259 -82 259 -232z" />
    <glyph glyph-name="uni03BC" unicode="&#x3bc;" horiz-adv-x="678" 
d="M680 562l-98 -562h-127l7 45c-68 -32 -126 -50 -178 -54c-25 0 -45 2 -62 7l-36 -203h-132l135 767h131l-62 -357c-4 -22 -7 -40 -7 -55c0 -40 19 -55 67 -55c38 0 90 15 154 39l75 428h133z" />
    <glyph glyph-name="pi" unicode="&#x3c0;" horiz-adv-x="682" 
d="M713 -7c-20 -5 -53 -8 -79 -8c-105 0 -139 48 -139 155v300h-159v-440h-134v440h-87v122h598v-122h-86v-301c0 -52 12 -52 70 -52h16v-94z" />
    <glyph glyph-name="uni037E" unicode="&#x37e;" horiz-adv-x="260" 
d="M239 254h-127l27 154h127z" />
    <glyph glyph-name="exclamdbl" unicode="&#x203c;" horiz-adv-x="546" 
d="M462 0h-135l25 153h135zM604 777l-113 -566h-120l87 566h146zM218 0h-135l25 153h136zM360 777l-113 -566h-119l87 566h145z" />
    <glyph glyph-name="franc" unicode="&#x20a3;" horiz-adv-x="614" 
d="M230 0h-140l25 142h-50l16 92h50l90 509h473l-19 -115h-334l-35 -191h317l-19 -112h-317l-16 -91h183l-16 -92h-183z" />
    <glyph glyph-name="lira" unicode="&#x20a4;" horiz-adv-x="659" 
d="M718 737l-17 -105c-51 5 -108 11 -184 11c-112 0 -131 -33 -151 -143l-6 -33h228l-13 -77h-229l-13 -72h229l-13 -77h-229l-6 -32c-7 -37 -20 -68 -49 -98h341l-17 -111h-494l15 93c41 35 60 76 67 116l7 32h-77l13 77h77l13 72h-77l13 77h77l6 33
c33 191 100 258 289 258c86 0 160 -11 200 -21z" />
    <glyph glyph-name="peseta" unicode="&#x20a7;" horiz-adv-x="731" 
d="M818 562l-16 -100h-78c-48 -163 -188 -194 -349 -194h-90l-47 -268h-136l81 462h-82l16 100h83l31 181c73 3 148 5 220 5c159 0 282 -28 287 -171c1 -5 1 -10 1 -15h79zM602 548c0 70 -57 83 -165 83h-87l-45 -246h87c123 0 189 21 206 119c3 24 4 34 4 44z" />
    <glyph glyph-name="Euro" unicode="&#x20ac;" horiz-adv-x="676" 
d="M744 738l-18 -109c-37 4 -114 9 -166 9c-93 0 -162 -15 -208 -150h313l-31 -71h-301c-6 -26 -14 -64 -16 -92h272l-32 -71h-245c0 -135 56 -151 150 -151c41 0 115 5 169 10l-18 -110c-36 -9 -120 -19 -184 -19c-141 0 -260 54 -260 249c0 7 1 14 1 21h-70l13 71h62
c3 30 9 66 16 92h-62l12 71h67c62 230 197 269 345 269c76 0 156 -10 191 -19z" />
    <glyph glyph-name="litre" unicode="&#x2113;" horiz-adv-x="509" 
d="M600 43c-48 -37 -103 -61 -163 -61c-107 0 -159 53 -159 171v80c-18 -15 -36 -31 -58 -47l-40 51c37 32 67 57 98 84v280c0 128 48 188 164 188c110 0 149 -56 149 -135c0 -113 -72 -211 -181 -313v-179c0 -69 18 -87 64 -87c26 0 56 14 82 34zM517 654
c0 35 -11 62 -51 62c-51 0 -56 -40 -56 -115v-168c70 75 107 141 107 221z" />
    <glyph glyph-name="Omega" unicode="&#x2126;" horiz-adv-x="714" 
d="M749 525c0 -24 -2 -50 -19 -140c-21 -122 -82 -205 -207 -249l-6 -37h154l-16 -99h-263l32 192c95 22 151 92 170 199c16 85 17 106 17 123c0 95 -61 124 -141 124c-95 0 -177 -40 -203 -183c-16 -88 -18 -109 -18 -128c0 -70 33 -117 104 -135l-32 -192h-262l16 99h153
l6 37c-86 35 -120 112 -120 203c0 24 3 49 19 137c35 199 168 281 357 281c165 0 259 -82 259 -232z" />
    <glyph glyph-name="estimated" unicode="&#x212e;" horiz-adv-x="657" 
d="M702 282h-464v-193c46 -40 99 -63 164 -63c121 0 179 59 227 127l33 -19c-56 -81 -125 -141 -260 -141c-176 0 -293 133 -293 290c0 159 113 290 297 290s296 -134 296 -291zM572 315v163c-39 33 -103 62 -166 62c-65 0 -125 -21 -168 -62v-163h334z" />
    <glyph glyph-name="partialdiff" unicode="&#x2202;" horiz-adv-x="645" 
d="M664 456c0 -69 -8 -148 -22 -212c-36 -183 -125 -258 -283 -258c-148 0 -223 76 -223 205c0 30 1 61 6 90c22 157 120 230 274 230c60 0 100 -21 121 -36c0 16 0 40 -2 56c-10 87 -52 161 -189 161c-41 0 -89 -4 -134 -14l4 92c46 11 96 17 145 17
c209 0 303 -131 303 -331zM520 310c0 60 -31 91 -106 91c-86 0 -132 -48 -143 -141c-3 -24 -5 -50 -5 -71c0 -65 31 -92 106 -92c87 0 129 48 143 156c4 24 5 45 5 57z" />
    <glyph glyph-name="product" unicode="&#x220f;" horiz-adv-x="756" 
d="M792 620h-85v-689h-135v689h-235v-689h-135v689h-86v123h676v-123z" />
    <glyph glyph-name="summation" unicode="&#x2211;" 
d="M622 -69h-473v116l214 285l-214 295v116h473v-116h-316l191 -264v-63l-191 -253h316v-116z" />
    <glyph glyph-name="uni2219" unicode="&#x2219;" horiz-adv-x="277" 
d="M253 292h-128l27 154h128z" />
    <glyph glyph-name="radical" unicode="&#x221a;" horiz-adv-x="817" 
d="M843 872l-302 -943h-147l-145 454h-121v110h200l139 -447l262 826h114z" />
    <glyph glyph-name="infinity" unicode="&#x221e;" horiz-adv-x="754" 
d="M719 363c0 -73 -8 -236 -153 -236h-7c-47 0 -82 19 -112 52c-22 -32 -56 -54 -101 -54h-7c-147 0 -155 161 -155 238v24c0 73 8 236 155 236h7c46 0 81 -20 109 -53c24 38 56 54 104 54h7c145 0 153 -159 153 -237v-24zM626 363v24c0 73 -2 145 -61 145h-6
c-44 -1 -51 -53 -62 -161c-5 -40 -9 -71 -15 -107c22 -32 48 -46 76 -46h6c60 0 62 75 62 145zM423 484c-21 31 -48 49 -76 49h-6c-61 0 -64 -79 -64 -146v-24c0 -70 2 -145 63 -145h6c40 0 50 49 62 158c4 38 9 70 15 108z" />
    <glyph glyph-name="integral" unicode="&#x222b;" horiz-adv-x="538" 
d="M558 675c-20 1 -59 3 -89 3c-53 0 -57 -15 -57 -73v-640c0 -100 -26 -168 -155 -168c-51 0 -100 9 -123 15v84c20 -1 59 -3 89 -3c53 0 57 15 57 73v640c0 100 26 168 155 168c51 0 100 -9 123 -15v-84z" />
    <glyph glyph-name="approxequal" unicode="&#x2248;" horiz-adv-x="689" 
d="M665 578c0 -102 -41 -151 -125 -151c-43 0 -79 8 -117 34l-55 37c-25 17 -42 25 -61 26c-30 0 -35 -20 -35 -58v-31h-94v31c0 102 44 151 127 151c38 0 66 -14 105 -39l58 -37c26 -17 43 -22 68 -22c30 0 35 21 35 59v31h94v-31zM665 316c0 -102 -41 -151 -125 -151
c-43 0 -78 9 -117 35l-55 36c-26 17 -41 26 -61 26c-30 0 -35 -20 -35 -58v-31h-94v31c0 102 44 151 127 151c38 0 66 -14 105 -39l58 -37c26 -17 43 -22 68 -22c30 0 35 21 35 59v31h94v-31z" />
    <glyph glyph-name="notequal" unicode="&#x2260;" horiz-adv-x="689" 
d="M660 207h-238l-78 -210h-120l79 210h-117v109h152l51 142h-203v110h237l67 178h119l-67 -178h118v-110h-153l-49 -142h202v-109z" />
    <glyph glyph-name="lessequal" unicode="&#x2264;" horiz-adv-x="689" 
d="M675 0h-507v94h507v-94zM623 157h-157l-285 246l285 244h157l-284 -244z" />
    <glyph glyph-name="greaterequal" unicode="&#x2265;" horiz-adv-x="689" 
d="M673 0h-506v94h506v-94zM661 403l-285 -246h-157l284 246l-284 244h157z" />
    <glyph glyph-name="lozenge" unicode="&#x25ca;" horiz-adv-x="699" 
d="M687 362l-262 -312l-259 311l261 316zM571 362l-144 168l-145 -169l143 -166z" />
    <glyph glyph-name="uni00A0" unicode="&#xa0;" horiz-adv-x="196" 
 />
    <glyph glyph-name="uni00AD" unicode="&#xad;" horiz-adv-x="386" 
d="M362 242h-254l18 103h254z" />
    <glyph glyph-name="uni02C9" unicode="&#x2c9;" horiz-adv-x="480" 
d="M543 654h-376l14 88h376z" />
    <glyph glyph-name="Dotaccent" horiz-adv-x="442" 
d="M433 821h-134l21 124h135z" />
    <glyph glyph-name="Breve" horiz-adv-x="485" 
d="M598 951c-26 -99 -85 -158 -208 -158c-89 0 -171 39 -168 158h84c0 -56 22 -84 89 -84c60 0 100 20 119 84h84z" />
    <glyph glyph-name="Ogonek" horiz-adv-x="458" 
d="M327 -203c-18 -6 -61 -14 -112 -14c-85 0 -122 36 -122 89c0 83 93 121 164 139l107 -11c-57 -20 -156 -56 -156 -108c0 -19 12 -30 50 -30c26 0 54 3 81 5z" />
    <glyph glyph-name="Cedilla" horiz-adv-x="455" 
d="M313 -65l-160 -141h-125l136 141h149z" />
    <glyph glyph-name="Ring" horiz-adv-x="451" 
d="M495 892c0 -79 -55 -117 -128 -117c-74 0 -131 38 -131 117c0 78 57 117 131 117c73 0 128 -39 128 -117zM422 892c0 37 -24 51 -55 51c-32 0 -56 -14 -56 -51c0 -36 23 -51 56 -51c31 0 55 15 55 51z" />
    <glyph glyph-name="Tilde" horiz-adv-x="486" 
d="M626 952c-16 -119 -59 -161 -134 -161c-34 0 -66 11 -99 35l-39 28c-19 16 -32 24 -51 24c-26 0 -39 -19 -48 -82h-82c14 120 63 162 138 162c36 0 60 -9 93 -33l40 -29c19 -14 33 -24 53 -24c27 0 39 17 48 80h81z" />
    <glyph glyph-name="Circumflex" horiz-adv-x="501" 
d="M607 795h-117l-79 91l-112 -91h-125l161 149h164z" />
    <glyph glyph-name="Acute" horiz-adv-x="471" 
d="M578 944l-184 -149h-127l158 149h153z" />
    <glyph glyph-name="Caron" horiz-adv-x="501" 
d="M200 944h117l78 -92l113 92h126l-162 -149h-163z" />
    <glyph glyph-name="Dieresis" horiz-adv-x="490" 
d="M367 814h-112l22 124h111zM609 938l-21 -124h-111l22 124h110z" />
    <glyph glyph-name="Grave" horiz-adv-x="471" 
d="M473 795h-125l-132 149h153z" />
    <glyph glyph-name="Hungarumlaut" horiz-adv-x="539" 
d="M488 944l-184 -149h-127l158 149h153zM773 944l-184 -149h-127l158 149h153z" />
    <glyph glyph-name="Macron" horiz-adv-x="480" 
d="M573 823h-376l15 88h376z" />
    <glyph glyph-name="commaaccent.cap" horiz-adv-x="513" 
d="M330 -65l-118 -141h-116l92 141h142z" />
    <glyph glyph-name="h.superior" horiz-adv-x="476" 
d="M208 777h100l-26 -144c29 13 72 25 115 25c77 0 103 -37 103 -95c0 -16 -2 -35 -6 -55l-36 -202h-100l38 213c1 10 3 20 3 27c0 27 -14 35 -44 35c-32 0 -66 -10 -84 -17l-46 -258h-100z" />
    <glyph glyph-name="zero.slash" horiz-adv-x="672" 
d="M701 516c0 -32 -4 -66 -30 -215c-38 -216 -146 -317 -331 -317c-65 0 -116 15 -154 41l-39 -46h-133l107 129c-13 33 -20 71 -20 115c0 38 4 71 30 218c38 216 151 316 331 316c70 0 124 -16 162 -46l44 53h131l-115 -138c12 -32 17 -69 17 -110zM268 419
c-16 -93 -24 -139 -28 -168l299 358c-20 23 -51 33 -89 33c-84 0 -152 -48 -182 -223zM534 322c15 80 22 124 25 153l-291 -350c20 -18 48 -25 84 -25c89 0 151 48 182 222z" />
    <glyph glyph-name="percent.oldstyle" unicode="&#xfe6a;" horiz-adv-x="915" 
d="M809 589l-490 -589h-105l489 589h106zM433 403c-21 -112 -80 -163 -181 -163c-86 0 -124 53 -124 135c0 17 1 36 6 64c20 113 81 161 182 161c87 0 124 -50 124 -130c0 -18 -2 -38 -7 -67zM338 415c6 30 7 47 7 59c0 37 -17 49 -43 49c-34 0 -59 -20 -73 -99
c-5 -30 -7 -45 -7 -57c0 -38 17 -50 44 -50c34 0 58 22 72 98zM885 152c-19 -112 -80 -163 -180 -163c-86 0 -125 54 -125 136c0 17 2 35 7 63c20 114 81 162 182 162c87 0 123 -50 123 -130c0 -18 -1 -38 -7 -68zM791 165c6 30 7 46 7 58c0 37 -17 49 -43 49
c-35 0 -59 -19 -73 -98c-5 -30 -7 -46 -7 -58c0 -38 17 -49 44 -49c34 0 59 21 72 98z" />
    <glyph glyph-name="perthousand.oldstyle" horiz-adv-x="1272" 
d="M809 589l-490 -589h-105l489 589h106zM433 403c-20 -112 -80 -163 -181 -163c-86 0 -124 53 -124 135c0 17 1 36 6 64c20 113 81 161 182 161c87 0 124 -50 124 -130c0 -18 -2 -38 -7 -67zM338 415c6 30 7 47 7 59c0 37 -17 49 -43 49c-34 0 -59 -20 -73 -99
c-5 -30 -7 -45 -7 -57c0 -38 17 -50 44 -50c34 0 59 22 72 98zM885 152c-19 -112 -80 -163 -180 -163c-86 0 -125 54 -125 136c0 17 2 35 7 63c20 114 81 162 182 162c87 0 123 -50 123 -130c0 -18 -1 -38 -7 -68zM791 165c6 30 7 46 7 58c0 37 -17 49 -43 49
c-35 0 -59 -19 -73 -98c-5 -30 -7 -46 -7 -58c0 -38 17 -49 44 -49c34 0 59 21 72 98zM1243 152c-19 -112 -80 -163 -180 -163c-86 0 -125 54 -125 136c0 17 2 35 7 63c20 114 81 162 182 162c87 0 123 -50 123 -130c0 -18 -1 -38 -7 -68zM1149 165c6 30 7 46 7 58
c0 37 -17 49 -43 49c-35 0 -59 -19 -73 -98c-5 -30 -7 -46 -7 -58c0 -38 17 -49 44 -49c34 0 59 21 72 98z" />
    <glyph glyph-name="zero.taboldstyle" horiz-adv-x="687" 
d="M684 377c0 -24 -2 -50 -14 -117c-33 -188 -146 -275 -331 -275c-156 0 -237 82 -237 223c0 24 3 50 15 117c34 187 145 274 330 274c157 0 237 -82 237 -222zM546 378c0 79 -48 106 -118 106c-84 0 -149 -42 -173 -172c-12 -65 -14 -86 -14 -104c0 -80 48 -107 117 -107
c85 0 150 43 174 172c12 65 14 87 14 105z" />
    <glyph glyph-name="one.taboldstyle" horiz-adv-x="687" 
d="M573 0h-459l17 109l164 6l62 338l-173 -53l20 120l213 71h102l-85 -476l157 -6z" />
    <glyph glyph-name="two.taboldstyle" horiz-adv-x="687" 
d="M181 475l16 97c57 16 161 27 232 27c181 0 248 -47 248 -146c0 -132 -118 -200 -279 -286l-96 -51h308l-19 -116h-503l18 116l197 106c141 75 230 123 230 207c0 44 -40 60 -142 60c-56 0 -153 -8 -210 -14z" />
    <glyph glyph-name="three.taboldstyle" horiz-adv-x="687" 
d="M608 106c0 -217 -136 -280 -323 -280c-90 0 -187 19 -220 31l16 96c42 -6 132 -15 212 -15c96 0 153 19 170 112c6 33 8 45 8 57c0 40 -25 64 -103 64h-208l16 104h209c121 0 142 70 142 146c0 51 -36 67 -135 67c-78 0 -157 -7 -214 -13l16 97c25 8 137 27 227 27
c163 0 246 -45 246 -163c0 -92 -32 -172 -123 -214c47 -26 64 -73 64 -116z" />
    <glyph glyph-name="four.taboldstyle" horiz-adv-x="687" 
d="M641 23h-105l-32 -179h-140l32 179h-346l19 115l434 449h132l-81 -455h106zM419 132l53 287l-284 -287h231z" />
    <glyph glyph-name="five.taboldstyle" horiz-adv-x="687" 
d="M675 587l-19 -114h-327l-48 -173h86c178 0 248 -56 248 -165c0 -21 -2 -43 -10 -89c-29 -168 -143 -218 -324 -218c-102 0 -192 19 -221 27l16 99c43 -4 125 -15 203 -15c122 0 170 29 187 119c7 36 8 49 8 59c0 55 -35 75 -146 75h-196l102 395h441z" />
    <glyph glyph-name="six.taboldstyle" horiz-adv-x="687" 
d="M656 212c-37 -195 -185 -228 -311 -228c-139 0 -237 53 -237 213c0 32 4 72 10 105l32 176c33 186 112 279 341 279c96 0 189 -17 221 -25l-16 -99c-61 8 -133 13 -211 13c-151 0 -178 -61 -197 -166l-5 -30c44 11 114 19 156 19c127 0 229 -36 229 -167
c0 -17 -5 -48 -12 -90zM519 226c9 49 11 62 11 74c0 59 -45 71 -118 71c-34 0 -91 -4 -144 -15l-17 -89c-6 -31 -8 -56 -8 -77c0 -78 42 -98 120 -98c84 0 138 36 156 134z" />
    <glyph glyph-name="seven.taboldstyle" horiz-adv-x="687" 
d="M686 459l-436 -615h-150l453 629h-384l19 114h519z" />
    <glyph glyph-name="eight.taboldstyle" horiz-adv-x="687" 
d="M726 589c0 -114 -50 -170 -112 -205c38 -27 57 -71 57 -121c0 -21 -3 -40 -7 -63c-35 -201 -178 -216 -323 -216h-5c-127 0 -246 26 -246 177c0 121 47 189 117 223c-35 25 -54 68 -54 124c0 15 1 30 6 56c30 173 169 193 316 193h4c118 0 247 -20 247 -168zM534 268
c0 46 -22 66 -77 66h-110c-71 0 -98 -34 -113 -113c-4 -22 -6 -37 -6 -49c0 -71 52 -83 128 -83h4c86 0 146 17 167 127c5 24 7 39 7 52zM587 580c0 61 -52 72 -127 72h-4c-95 0 -168 -26 -168 -152c0 -41 19 -65 75 -65h110c71 0 97 39 109 103c4 21 5 33 5 42z" />
    <glyph glyph-name="nine.taboldstyle" horiz-adv-x="687" 
d="M130 371c37 195 185 228 311 228c139 0 237 -53 237 -213c0 -32 -4 -72 -10 -105l-32 -176c-33 -186 -112 -279 -341 -279c-96 0 -189 17 -221 25l16 99c61 -8 133 -13 211 -13c151 0 178 61 197 166l5 30c-44 -11 -114 -19 -156 -19c-127 0 -229 36 -229 167
c0 17 5 48 12 90zM267 357c-9 -49 -11 -62 -11 -74c0 -59 45 -71 118 -71c34 0 91 4 144 15l17 89c6 31 8 56 8 77c0 78 -42 98 -120 98c-84 0 -138 -36 -156 -134z" />
    <glyph glyph-name="colonmonetary.taboldstyle" horiz-adv-x="610" 
d="M631 583l-16 -102c-33 2 -94 10 -156 10c-91 0 -145 -28 -167 -156l-15 -83c-4 -23 -6 -42 -6 -60c0 -82 47 -96 116 -96c36 0 94 3 158 8l-16 -100c-12 -3 -40 -9 -73 -13l-17 -98h-80l16 92c-9 -1 -17 -1 -25 -1c-16 0 -31 1 -45 2l-16 -93h-80l20 116
c-64 31 -92 94 -92 176c0 29 2 57 7 85l15 83c22 125 77 198 171 231l21 113h80l-18 -97c15 2 30 3 45 3c6 0 12 0 25 -1l17 95h80l-18 -102c32 -3 56 -9 69 -12z" />
    <glyph glyph-name="Euro.taboldstyle" horiz-adv-x="631" 
d="M650 585l-18 -102c-44 5 -93 9 -137 9c-91 0 -129 -16 -155 -105h247l-28 -66h-233c-5 -22 -9 -42 -12 -63h216l-28 -65h-196c-1 -6 -1 -11 -1 -17c0 -64 40 -82 117 -82c48 0 105 3 142 6l-16 -99c-32 -8 -108 -17 -158 -17c-141 0 -221 52 -221 185c0 8 0 15 1 24h-52
l11 65h50c4 21 7 42 12 63h-50l11 66h52c44 172 137 214 281 214c65 0 132 -8 165 -16z" />
    <glyph glyph-name="florin.taboldstyle" horiz-adv-x="617" 
d="M587 588l-16 -82c-23 2 -40 3 -63 3c-32 0 -48 -5 -61 -53l-26 -99h122l-20 -93h-123l-49 -218c-25 -110 -81 -143 -166 -143c-44 0 -77 5 -102 11l18 84c26 -1 38 -3 65 -3c37 0 51 16 61 57l47 212h-109l21 93h109l27 105c27 110 86 138 167 138c43 0 73 -6 98 -12z
" />
    <glyph glyph-name="numbersign.taboldstyle" horiz-adv-x="681" 
d="M615 140h-106l-41 -140h-106l41 140h-114l-41 -140h-105l41 140h-70l14 87h79l37 125h-93l15 86h102l44 150h105l-44 -150h114l44 150h105l-43 -150h74l-15 -86h-84l-36 -125h97zM463 352h-114l-37 -125h115z" />
    <glyph glyph-name="sterling.taboldstyle" horiz-adv-x="620" 
d="M628 584l-16 -102c-48 6 -95 10 -140 10c-85 0 -108 -19 -121 -95l-8 -47h172l-17 -97h-172l-14 -78c-6 -30 -16 -50 -33 -68h265l-17 -107h-411l13 87c32 27 48 55 53 88l15 78h-60l16 97h61l8 46c25 154 93 204 243 204c59 0 115 -6 163 -16z" />
    <glyph glyph-name="yen.taboldstyle" horiz-adv-x="665" 
d="M397 0h-129l27 154h-203l13 80h194l-28 76h-152l13 80h114l-69 198h138l49 -158c9 -27 16 -59 23 -85h2c14 25 33 59 51 85l108 158h144l-138 -198h116l-14 -80h-156l-55 -76h198l-13 -80h-206z" />
    <glyph glyph-name="dollar.taboldstyle" horiz-adv-x="646" 
d="M120 6l16 96c43 -3 103 -8 182 -8c67 0 115 17 115 75c0 26 -17 41 -72 65l-71 31c-76 34 -114 77 -114 150c0 120 82 166 196 181l15 91h110l-16 -88c61 -3 115 -13 141 -19l-16 -94c-45 3 -102 9 -181 9c-59 0 -113 -8 -113 -64c0 -23 14 -40 64 -61l72 -32
c84 -36 121 -78 121 -151c0 -120 -82 -184 -194 -195l-17 -97h-110l17 93c-60 3 -117 11 -145 18z" />
    <glyph glyph-name="cent.taboldstyle" horiz-adv-x="611" 
d="M615 583l-16 -100c-54 3 -89 5 -140 5c-99 0 -146 -37 -168 -155l-15 -78c-4 -23 -6 -43 -6 -60c0 -71 38 -95 118 -95c51 0 102 2 143 6l-17 -102c-27 -7 -76 -13 -120 -15l-19 -104h-110l19 110c-102 19 -149 88 -149 194c0 25 2 52 8 81l15 78c29 149 98 223 231 247
l18 102h111l-17 -99c42 -2 90 -8 114 -15z" />
    <glyph glyph-name="zero.denominator" horiz-adv-x="467" 
d="M466 306c-1 -27 -2 -52 -7 -79l-9 -47c-24 -124 -84 -191 -218 -191c-115 0 -158 65 -158 158c0 21 2 45 7 70l9 49c22 120 83 190 218 190c117 0 158 -61 158 -150zM363 307c0 49 -23 65 -66 65c-58 0 -86 -31 -104 -124l-9 -47c-5 -28 -7 -49 -7 -64
c0 -48 22 -64 65 -64c57 0 87 28 105 124l9 48c5 27 7 46 7 62z" />
    <glyph glyph-name="one.denominator" horiz-adv-x="418" 
d="M358 0h-291l13 75l93 3l49 271l-97 -28l14 84l130 43h76l-67 -370l93 -3z" />
    <glyph glyph-name="two.denominator" horiz-adv-x="454" 
d="M127 372l12 66c28 8 102 18 155 18c111 0 161 -37 161 -104c0 -86 -68 -118 -155 -156c-100 -43 -116 -56 -126 -111l-1 -5h227l-13 -80h-331l9 55c18 110 65 150 179 202c68 31 105 43 105 84c0 29 -23 38 -83 38c-38 0 -100 -4 -139 -7z" />
    <glyph glyph-name="three.denominator" horiz-adv-x="453" 
d="M451 352c0 -49 -30 -98 -76 -123c29 -15 40 -47 40 -78c0 -123 -86 -162 -208 -162c-60 0 -124 11 -149 20l11 66c36 -4 88 -8 141 -8c65 0 102 18 102 88c0 23 -13 37 -64 37h-131l12 73h132c52 0 84 23 84 77c0 28 -21 37 -80 37c-49 0 -111 -6 -141 -8l11 67
c21 7 94 18 154 18c107 0 162 -32 162 -104z" />
    <glyph glyph-name="four.denominator" horiz-adv-x="464" 
d="M360 0h-105l19 102h-219l12 76l281 268h91l-47 -269h65l-13 -75h-65zM292 177l27 154l-163 -154h136z" />
    <glyph glyph-name="five.denominator" horiz-adv-x="451" 
d="M454 446l-13 -78h-209l-26 -92h51c119 0 163 -34 163 -112c0 -30 -5 -56 -18 -79c-30 -71 -102 -96 -197 -96c-69 0 -128 12 -149 18l12 68c52 -9 80 -9 131 -9c53 0 88 11 104 46c6 13 9 27 9 45c0 34 -21 44 -87 44h-129l64 245h294z" />
    <glyph glyph-name="six.denominator" horiz-adv-x="459" 
d="M465 439l-12 -67c-38 3 -86 8 -140 8c-87 0 -103 -33 -114 -93l-3 -13c27 6 68 10 93 10c91 0 149 -23 149 -104c0 -11 -1 -23 -6 -53c-21 -116 -115 -138 -203 -138c-101 0 -156 42 -156 140c0 19 2 43 6 66l16 92c21 116 69 169 219 169c65 0 128 -10 151 -17zM330 139
c4 24 5 33 5 39c0 34 -25 40 -67 40c-20 0 -52 -2 -82 -9l-9 -46c-3 -17 -4 -33 -4 -44c0 -45 23 -56 69 -56c47 0 78 22 88 76z" />
    <glyph glyph-name="seven.denominator" horiz-adv-x="453" 
d="M124 368l13 78h337l-15 -87l-269 -359h-113l280 368h-233z" />
    <glyph glyph-name="eight.denominator" horiz-adv-x="466" 
d="M441 118c-21 -118 -115 -129 -214 -129c-88 0 -166 20 -166 113c0 70 28 109 72 131c-22 16 -34 44 -34 77c0 131 103 146 212 146c91 0 166 -22 166 -104c0 -60 -28 -103 -69 -128c23 -16 36 -41 36 -71c0 -11 0 -20 -3 -35zM338 131c2 9 3 21 3 28c0 26 -11 37 -44 37
h-65c-43 0 -67 -27 -67 -89c0 -40 30 -46 76 -46c51 0 86 9 97 70zM370 322c2 12 3 17 3 22c0 34 -30 41 -76 41c-58 0 -97 -15 -97 -84c0 -23 11 -37 44 -37h65c41 0 55 23 61 58z" />
    <glyph glyph-name="nine.denominator" horiz-adv-x="459" 
d="M73 6l12 67c38 -3 86 -8 140 -8c87 0 103 33 114 93l3 13c-27 -6 -68 -10 -93 -10c-91 0 -149 23 -149 104c0 11 1 23 6 53c21 116 115 138 203 138c101 0 156 -42 156 -140c0 -19 -2 -43 -6 -66l-16 -92c-21 -116 -69 -169 -219 -169c-65 0 -128 10 -151 17zM208 306
c-4 -24 -5 -33 -5 -39c0 -34 25 -40 67 -40c20 0 52 2 82 9l9 46c3 17 4 33 4 44c0 45 -23 56 -69 56c-47 0 -78 -22 -88 -76z" />
    <glyph glyph-name="comma.denominator" horiz-adv-x="254" 
d="M216 95l-98 -154h-81l80 154h99z" />
    <glyph glyph-name="period.denominator" horiz-adv-x="210" 
d="M154 0h-98l16 95h98z" />
    <glyph glyph-name="cent.denominator" horiz-adv-x="395" 
d="M427 442l-14 -83c-31 3 -70 5 -99 5c-76 0 -104 -32 -120 -120l-8 -45c-4 -20 -6 -38 -6 -53c0 -48 21 -67 82 -67c36 0 76 3 101 5l-14 -83c-18 -6 -53 -11 -86 -12l-13 -77h-89l13 84c-63 14 -100 61 -100 145c0 21 2 46 6 70l8 44c21 116 75 176 167 194l14 77h89
l-14 -73c33 -2 66 -7 83 -11z" />
    <glyph glyph-name="dollar.denominator" horiz-adv-x="427" 
d="M56 4l12 73c24 -1 81 -5 141 -5c47 0 88 10 88 53c0 27 -15 35 -59 53l-43 18c-62 25 -96 61 -96 122c0 87 71 125 147 133l14 78h92l-13 -75c46 -3 89 -10 105 -14l-13 -76c-41 4 -93 9 -140 9c-34 0 -87 -6 -87 -47c0 -20 11 -32 54 -48l46 -18
c68 -27 101 -57 101 -121c0 -79 -55 -132 -147 -145l-14 -81h-92l13 78c-45 1 -87 8 -109 13z" />
    <glyph glyph-name="hyphen.denominator" horiz-adv-x="254" 
d="M229 161h-149l13 77h149z" />
    <glyph glyph-name="parenleft.denominator" horiz-adv-x="284" 
d="M319 451c-83 -99 -136 -220 -136 -340c0 -83 17 -143 41 -191h-93c-22 38 -46 108 -46 204c0 115 48 232 139 327h95z" />
    <glyph glyph-name="parenright.denominator" horiz-adv-x="284" 
d="M31 -80c83 100 137 228 137 352c0 78 -17 132 -41 179h92c22 -37 45 -107 45 -193c0 -125 -48 -242 -138 -338h-95z" />
    <glyph glyph-name="zero.numerator" horiz-adv-x="467" 
d="M514 608c-1 -27 -2 -52 -7 -79l-9 -47c-24 -124 -84 -191 -218 -191c-115 0 -158 65 -158 158c0 21 2 45 7 70l9 49c22 120 83 190 218 190c117 0 158 -61 158 -150zM411 609c0 49 -23 65 -66 65c-58 0 -86 -31 -104 -124l-9 -47c-5 -28 -7 -49 -7 -64
c0 -48 22 -64 65 -64c57 0 87 28 105 124l9 48c5 27 7 46 7 62z" />
    <glyph glyph-name="one.numerator" horiz-adv-x="418" 
d="M422 302h-291l13 75l93 3l49 271l-97 -28l14 84l130 43h76l-67 -370l93 -3z" />
    <glyph glyph-name="two.numerator" horiz-adv-x="454" 
d="M199 674l12 66c28 8 102 18 155 18c111 0 161 -37 161 -104c0 -86 -68 -118 -155 -156c-100 -43 -116 -56 -126 -111l-1 -5h227l-13 -80h-331l9 55c18 110 65 150 179 202c68 31 105 43 105 84c0 29 -23 38 -83 38c-38 0 -100 -4 -139 -7z" />
    <glyph glyph-name="three.numerator" horiz-adv-x="453" 
d="M515 654c0 -49 -30 -98 -76 -123c29 -15 40 -47 40 -78c0 -123 -86 -162 -208 -162c-60 0 -124 11 -149 20l11 66c36 -4 88 -8 141 -8c65 0 102 18 102 88c0 23 -13 37 -64 37h-131l12 73h132c52 0 84 23 84 77c0 28 -21 37 -80 37c-49 0 -111 -6 -141 -8l11 67
c21 7 94 18 154 18c107 0 162 -32 162 -104z" />
    <glyph glyph-name="four.numerator" horiz-adv-x="464" 
d="M416 302h-105l19 102h-219l12 76l281 268h91l-47 -269h65l-13 -75h-65zM348 479l27 154l-163 -154h136z" />
    <glyph glyph-name="five.numerator" horiz-adv-x="451" 
d="M518 748l-13 -78h-209l-26 -92h51c119 0 163 -34 163 -112c0 -30 -5 -56 -18 -79c-30 -71 -102 -96 -197 -96c-69 0 -128 12 -149 18l12 68c52 -9 80 -9 131 -9c53 0 88 11 104 46c6 13 9 27 9 45c0 34 -21 44 -87 44h-129l64 245h294z" />
    <glyph glyph-name="six.numerator" horiz-adv-x="459" 
d="M513 741l-12 -67c-38 3 -86 8 -140 8c-87 0 -103 -33 -114 -93l-3 -13c27 6 68 10 93 10c91 0 149 -23 149 -104c0 -11 -1 -23 -6 -53c-21 -116 -115 -138 -203 -138c-101 0 -156 42 -156 140c0 19 2 43 6 66l16 92c21 116 69 169 219 169c65 0 128 -10 151 -17zM378 441
c4 24 5 33 5 39c0 34 -25 40 -67 40c-20 0 -52 -2 -82 -9l-9 -46c-3 -17 -4 -33 -4 -44c0 -45 23 -56 69 -56c47 0 78 22 88 76z" />
    <glyph glyph-name="seven.numerator" horiz-adv-x="453" 
d="M196 670l13 78h337l-15 -87l-269 -359h-113l280 368h-233z" />
    <glyph glyph-name="eight.numerator" horiz-adv-x="466" 
d="M497 420c-21 -118 -115 -129 -214 -129c-88 0 -166 20 -166 113c0 70 28 109 72 131c-22 16 -34 44 -34 77c0 131 103 146 212 146c91 0 166 -22 166 -104c0 -60 -28 -103 -69 -128c23 -16 36 -41 36 -71c0 -11 0 -20 -3 -35zM394 433c2 9 3 21 3 28c0 26 -11 37 -44 37
h-65c-43 0 -67 -27 -67 -89c0 -40 30 -46 76 -46c51 0 86 9 97 70zM426 624c2 12 3 17 3 22c0 34 -30 41 -76 41c-58 0 -97 -15 -97 -84c0 -23 11 -37 44 -37h65c41 0 55 23 61 58z" />
    <glyph glyph-name="nine.numerator" horiz-adv-x="459" 
d="M136 308l12 67c38 -3 86 -8 140 -8c87 0 103 33 114 93l3 13c-27 -6 -68 -10 -93 -10c-91 0 -149 23 -149 104c0 11 1 23 6 53c21 116 115 138 203 138c101 0 156 -42 156 -140c0 -19 -2 -43 -6 -66l-16 -92c-21 -116 -69 -169 -219 -169c-65 0 -128 10 -151 17zM271 608
c-4 -24 -5 -33 -5 -39c0 -34 25 -40 67 -40c20 0 52 2 82 9l9 46c3 17 4 33 4 44c0 45 -23 56 -69 56c-47 0 -78 -22 -88 -76z" />
    <glyph glyph-name="comma.numerator" horiz-adv-x="254" 
d="M280 397l-98 -154h-81l80 154h99z" />
    <glyph glyph-name="period.numerator" horiz-adv-x="210" 
d="M218 302h-98l16 95h98z" />
    <glyph glyph-name="cent.numerator" horiz-adv-x="395" 
d="M483 744l-14 -83c-31 3 -70 5 -99 5c-76 0 -104 -32 -120 -120l-8 -45c-4 -20 -6 -38 -6 -53c0 -48 21 -67 82 -67c36 0 76 3 101 5l-14 -83c-18 -6 -53 -11 -86 -12l-13 -77h-89l13 84c-63 14 -100 61 -100 145c0 21 2 46 6 70l8 44c21 116 75 176 167 194l14 77h89
l-14 -73c33 -2 66 -7 83 -11z" />
    <glyph glyph-name="dollar.numerator" horiz-adv-x="427" 
d="M112 306l12 73c24 -1 81 -5 141 -5c47 0 88 10 88 53c0 27 -15 35 -59 53l-43 18c-62 25 -96 61 -96 122c0 87 71 125 147 133l14 78h92l-13 -75c46 -3 89 -10 105 -14l-13 -76c-41 4 -93 9 -140 9c-34 0 -87 -6 -87 -47c0 -20 11 -32 54 -48l46 -18
c68 -27 101 -57 101 -121c0 -79 -55 -132 -147 -145l-14 -81h-92l13 78c-45 1 -87 8 -109 13z" />
    <glyph glyph-name="hyphen.numerator" horiz-adv-x="254" 
d="M293 463h-149l13 77h149z" />
    <glyph glyph-name="parenleft.numerator" horiz-adv-x="284" 
d="M319 753c-83 -99 -136 -220 -136 -340c0 -83 17 -143 41 -191h-93c-22 38 -46 108 -46 204c0 115 48 232 139 327h95z" />
    <glyph glyph-name="parenright.numerator" horiz-adv-x="284" 
d="M71 222c83 100 137 228 137 352c0 78 -17 132 -41 179h92c22 -37 45 -107 45 -193c0 -125 -48 -242 -138 -338h-95z" />
    <glyph glyph-name="parenleft.cap" horiz-adv-x="318" 
d="M412 743c-113 -138 -186 -314 -186 -490c0 -104 21 -186 55 -253h-108c-31 50 -61 151 -61 267c0 173 70 343 192 476h108z" />
    <glyph glyph-name="parenright.cap" horiz-adv-x="318" 
d="M349 480c0 -175 -70 -349 -191 -480h-108c112 138 185 314 185 493c0 100 -20 183 -54 250h108c30 -52 60 -151 60 -263z" />
    <glyph glyph-name="bracketleft.cap" horiz-adv-x="347" 
d="M298 0h-220l131 743h220l-16 -96h-103l-99 -552h102z" />
    <glyph glyph-name="bracketright.cap" horiz-adv-x="347" 
d="M267 0h-219l15 95h103l100 552h-103l16 96h219z" />
    <glyph glyph-name="braceleft.cap" horiz-adv-x="366" 
d="M451 743l-16 -98h-50c-55 0 -63 -6 -71 -52l-17 -92c-12 -69 -35 -101 -82 -130c27 -22 41 -45 41 -85c0 -12 -2 -28 -5 -45l-17 -92c-2 -11 -3 -20 -3 -26c0 -23 13 -26 54 -26h51l-16 -97h-51c-118 0 -156 35 -156 110c0 16 2 36 6 57l14 80c3 14 5 25 5 35
c0 29 -13 42 -37 60l11 69c42 25 58 39 68 96l17 91c17 109 56 145 203 145h51z" />
    <glyph glyph-name="braceright.cap" horiz-adv-x="366" 
d="M380 636c0 -16 -2 -33 -6 -53l-16 -88c-2 -13 -4 -25 -4 -34c0 -29 12 -43 37 -60l-12 -70c-42 -24 -57 -39 -68 -95l-16 -92c-18 -106 -56 -144 -203 -144h-51l15 97h51c54 0 62 7 70 52l16 92c12 69 36 101 84 130c-27 20 -39 47 -39 87c0 15 2 33 5 52l15 83
c2 11 3 19 3 26c0 22 -13 27 -55 27h-50l16 97h51c119 0 157 -34 157 -107z" />
    <glyph glyph-name="exclamdown.cap" horiz-adv-x="290" 
d="M299 532l-88 -566h-145l114 566h119zM208 743h136l-27 -153h-135z" />
    <glyph glyph-name="questiondown.cap" horiz-adv-x="507" 
d="M389 743h132l-26 -154h-132zM489 77l-16 -96c-56 -17 -126 -28 -196 -28c-136 0 -197 48 -197 139c0 100 64 161 142 226c108 91 121 119 132 181l6 33h119l-5 -33c-13 -84 -33 -130 -133 -218c-56 -49 -109 -96 -109 -162c0 -41 35 -51 100 -51c47 0 105 5 157 9z" />
    <glyph glyph-name="guillemotleft.cap" horiz-adv-x="725" 
d="M765 599l-199 -224l111 -208h-135l-121 217l196 215h148zM296 599h148l-199 -224l111 -208h-135l-120 217z" />
    <glyph glyph-name="guillemotright.cap" horiz-adv-x="725" 
d="M724 383l-196 -216h-147l198 225l-110 207h135zM283 599l120 -216l-195 -216h-148l199 225l-111 207h135z" />
    <glyph glyph-name="guilsinglleft.cap" horiz-adv-x="404" 
d="M461 599l-198 -224l110 -208h-135l-120 217l196 215h147z" />
    <glyph glyph-name="guilsinglright.cap" horiz-adv-x="404" 
d="M418 383l-196 -216h-147l198 225l-110 207h135z" />
    <glyph glyph-name="hyphen.cap" horiz-adv-x="377" 
d="M370 341h-244l15 95h245z" />
    <glyph glyph-name="endash.cap" horiz-adv-x="485" 
d="M478 341h-352l15 95h353z" />
    <glyph glyph-name="emdash.cap" horiz-adv-x="661" 
d="M655 341h-529l15 95h530z" />
    <glyph glyph-name="periodcentered.cap" horiz-adv-x="277" 
d="M255 310h-124l26 154h124z" />
    <glyph glyph-name="at.cap" horiz-adv-x="859" 
d="M896 504c0 -234 -152 -361 -411 -361c-145 0 -193 48 -193 137c0 27 4 58 12 93c33 156 109 212 234 212c64 0 123 -9 170 -21l-75 -321c126 30 181 142 181 264s-79 181 -233 181c-181 0 -299 -84 -359 -279c-18 -60 -35 -118 -35 -183c0 -119 65 -180 236 -180
c78 0 168 7 184 9l-7 -56c-21 -4 -108 -15 -184 -15c-218 0 -309 90 -309 242c0 75 17 138 39 206c75 227 220 324 443 324c201 0 307 -92 307 -252zM584 494c-16 2 -41 3 -58 3c-54 0 -91 -16 -116 -125c-8 -32 -15 -61 -15 -88c0 -38 20 -59 89 -59c14 0 23 0 37 1z" />
    <glyph glyph-name="T_h" horiz-adv-x="1153" 
d="M1082 0h-132l62 355c3 19 5 36 5 50c0 47 -22 61 -74 61c-53 0 -110 -17 -143 -31l-77 -435h-132l112 628h-201l-112 -628h-140l112 628h-222l19 115h695l-38 -208c43 20 111 42 182 42c111 0 152 -57 152 -149c0 -26 -3 -54 -8 -83z" />
    <glyph glyph-name="A.alt" horiz-adv-x="705" 
d="M21 0l308 632l-52 5l18 106h290l95 -743h-144l-27 209h-239l-104 -209h-145zM501 323l-25 205c-5 38 -6 77 -5 118h-9c-15 -41 -30 -80 -48 -118l-98 -205h185z" />
    <glyph glyph-name="B.alt" horiz-adv-x="675" 
d="M716 573c0 -28 -5 -53 -16 -80c-19 -51 -56 -90 -107 -113c46 -22 72 -70 72 -130c0 -29 -4 -55 -11 -76c-41 -147 -184 -179 -354 -179c-69 0 -143 1 -220 5l112 630l-51 7l18 106c94 4 188 6 267 6c177 0 290 -27 290 -176zM527 246c0 56 -32 86 -129 86h-123l-42 -224
h83c93 0 179 11 204 88c5 17 7 33 7 50zM579 556c0 73 -61 79 -165 79h-86l-37 -202h123c80 0 134 19 156 72c6 16 9 32 9 51z" />
    <glyph glyph-name="C.alt" horiz-adv-x="587" 
d="M573 112l-17 -109c-35 -7 -126 -19 -190 -19c-162 0 -267 61 -267 241c0 33 3 69 10 111l19 100c47 265 183 321 374 321c65 0 151 -10 184 -19l-29 -170h-94l3 67c-24 1 -50 2 -74 2c-125 0 -195 -45 -225 -215l-19 -101c-6 -33 -9 -61 -9 -84c0 -102 54 -132 156 -132
c59 0 131 4 178 7z" />
    <glyph glyph-name="D.alt" horiz-adv-x="706" 
d="M79 0l113 631l-50 6l18 106c90 4 187 6 272 6c229 0 306 -89 306 -247c0 -31 -4 -64 -10 -100l-18 -95c-37 -218 -152 -313 -399 -313c-91 0 -142 2 -232 6zM573 326l18 94c6 36 8 64 8 87c0 94 -57 124 -177 124h-93l-94 -520h93c141 0 214 44 245 215z" />
    <glyph glyph-name="E.alt" horiz-adv-x="604" 
d="M664 628h-334l-35 -190h312l-18 -111h-313l-39 -213h333l-18 -114h-473l113 632l-51 5l18 106h524z" />
    <glyph glyph-name="F.alt" horiz-adv-x="594" 
d="M79 0l113 632l-51 5l18 106h524l-19 -115h-334l-35 -191h312l-18 -111h-313l-57 -326h-140z" />
    <glyph glyph-name="G.alt" horiz-adv-x="669" 
d="M607 7c-42 -8 -127 -23 -247 -23c-146 0 -261 59 -261 246c0 30 3 65 10 103l20 105c51 284 216 319 370 319c109 0 213 -17 235 -23l-28 -165h-92l1 64c-29 2 -74 4 -111 4c-122 0 -203 -27 -238 -213l-20 -105c-7 -37 -10 -67 -10 -91c0 -97 56 -123 154 -123
c36 0 73 1 100 3l35 187l-91 7l16 93h226z" />
    <glyph glyph-name="H.alt" horiz-adv-x="763" 
d="M684 0h-140l59 328h-326l-58 -328h-140l113 633l-51 4l18 106h191l-54 -296h326l53 296h140z" />
    <glyph glyph-name="I.alt" horiz-adv-x="304" 
d="M272 0h-241l17 105l51 5l96 523l-51 4l18 106h241l-18 -106l-51 -4l-95 -523l49 -5z" />
    <glyph glyph-name="J.alt" horiz-adv-x="303" 
d="M384 637l-50 -4l-121 -671c-22 -126 -72 -179 -206 -179c-28 0 -68 4 -85 9l16 95h60c56 0 65 19 75 71l122 675l-51 4l18 106h240z" />
    <glyph glyph-name="K.alt" horiz-adv-x="686" 
d="M672 0h-168l-218 354l-64 -354h-140l114 633l-50 4l18 106h190l-61 -340l339 340h174l-372 -368z" />
    <glyph glyph-name="M.alt" horiz-adv-x="855" 
d="M776 0h-136l76 414c8 48 16 82 27 128h-2c-22 -37 -45 -70 -69 -102l-150 -211h-110l-68 211c-11 32 -22 67 -32 102h-2c-7 -46 -10 -79 -19 -128l-76 -414h-136l113 633l-51 4l18 106h201l94 -292c10 -30 19 -63 29 -95h2c20 32 42 66 63 96l205 291h154z" />
    <glyph glyph-name="N.alt" horiz-adv-x="741" 
d="M159 743h213l156 -439c12 -33 26 -78 36 -114h2c5 45 13 97 21 142l77 411h129l-131 -743h-163l-155 448c-13 34 -26 74 -36 111h-2c-6 -42 -13 -89 -21 -134l-80 -425h-128l115 633l-51 4z" />
    <glyph glyph-name="P.alt" horiz-adv-x="648" 
d="M695 452c-45 -149 -185 -184 -351 -184h-81l-49 -268h-136l114 633l-51 4l18 106c81 4 165 5 247 5c172 0 304 -33 304 -199c0 -35 -5 -67 -15 -97zM560 477c7 19 11 41 11 66c0 76 -57 88 -164 88h-80l-45 -246h79c92 0 171 17 199 92z" />
    <glyph glyph-name="Q.alt" horiz-adv-x="715" 
d="M743 502c0 -33 -4 -67 -10 -103l-15 -88c-34 -208 -138 -306 -298 -323l-30 -172h-133l32 177c-124 21 -187 107 -187 249c0 31 3 65 9 101l16 88c38 240 172 326 358 326c168 0 258 -85 258 -255zM607 507c0 95 -41 131 -136 131c-110 0 -178 -58 -208 -224l-15 -87
c-5 -28 -9 -67 -9 -92c0 -95 47 -131 134 -131c110 0 179 56 208 224l16 87c5 30 10 67 10 92z" />
    <glyph glyph-name="R.alt" horiz-adv-x="677" 
d="M710 547c0 -33 -5 -67 -16 -97c-25 -73 -75 -115 -155 -146l122 -304h-148l-109 275c-18 -1 -48 -1 -67 -1h-74l-49 -274h-136l114 633l-51 4l18 106c81 3 169 5 259 5c151 0 292 -29 292 -201zM571 536c0 80 -58 95 -169 95h-75l-45 -246h77c108 0 175 20 200 85
c8 20 12 41 12 66z" />
    <glyph glyph-name="S.alt" 
d="M433 646c-84 0 -153 -16 -153 -95c0 -39 20 -61 76 -87l108 -48c88 -42 136 -88 136 -190c0 -166 -124 -242 -307 -242c-96 0 -193 13 -230 23l16 102c61 -7 119 -12 213 -12c96 0 164 30 164 115c0 40 -20 63 -78 89l-109 50c-78 37 -130 92 -130 189
c0 170 141 217 298 217c101 0 191 -14 226 -23l-28 -158h-91v66c-36 2 -69 4 -111 4z" />
    <glyph glyph-name="U.alt" horiz-adv-x="731" 
d="M789 743l-81 -455c-38 -214 -138 -304 -335 -304c-172 0 -253 86 -253 229c0 41 5 74 11 110l56 310l-50 5l17 105h190l-76 -432c-7 -37 -11 -68 -11 -95c0 -81 38 -114 132 -114c125 0 158 59 187 209l76 432h137z" />
    <glyph glyph-name="Z.alt" horiz-adv-x="641" 
d="M606 116l-18 -116h-535l20 126l457 500h-254l-20 -58h-90l30 175h511l-21 -127l-456 -500h376z" />
    <glyph glyph-name="a.alt" horiz-adv-x="577" 
d="M583 433c0 -22 -3 -47 -8 -73l-64 -360h-122l6 37c-39 -24 -102 -52 -180 -52c-98 0 -145 46 -145 127c0 16 1 30 7 67c23 147 137 158 293 158h68l7 35c3 17 5 32 5 43c0 43 -25 54 -104 54c-26 0 -53 -1 -79 -2l-18 -50h-90l22 129c25 10 113 31 203 31
c148 0 199 -50 199 -144zM428 256h-71c-97 0 -139 -11 -153 -85c-6 -32 -6 -38 -6 -46c0 -34 23 -45 67 -45c55 0 114 22 137 34z" />
    <glyph glyph-name="b.alt" 
d="M604 235c-32 -189 -132 -250 -308 -250c-74 0 -125 4 -223 16l118 668l-49 5l17 103h182l-40 -227c45 20 94 28 137 28c129 0 189 -64 189 -184c0 -24 -3 -51 -8 -80zM476 250l14 79c4 23 7 43 7 59c0 57 -29 79 -95 79c-25 0 -81 -4 -120 -22l-62 -344
c22 -1 55 -4 96 -4c92 0 139 34 160 153z" />
    <glyph glyph-name="c.alt" horiz-adv-x="505" 
d="M462 6c-27 -7 -91 -21 -170 -21c-146 0 -203 77 -203 196c0 25 2 51 7 79l13 72c31 173 117 245 280 245c87 0 150 -15 170 -21l-24 -142h-89v50c-23 1 -41 2 -54 2c-80 0 -133 -27 -154 -149l-13 -71c-4 -23 -6 -42 -6 -59c0 -73 35 -91 107 -91c31 0 80 3 152 9z" />
    <glyph glyph-name="d.alt" horiz-adv-x="617" 
d="M680 777l-137 -777h-124l4 29c-41 -24 -99 -44 -161 -44c-113 0 -176 67 -176 189c0 24 3 52 8 80l15 80c37 198 141 243 285 243c42 0 78 -4 115 -11l22 114l-54 5l15 92h188zM493 457c-36 6 -76 10 -102 10c-80 0 -129 -22 -153 -150l-15 -80c-4 -22 -6 -42 -6 -57
c0 -59 30 -84 95 -84c42 0 82 10 120 25z" />
    <glyph glyph-name="f.alt" horiz-adv-x="430" 
d="M228 -148h-132l107 606l-98 8l15 96h100l12 61c21 105 55 169 186 169c47 0 89 -8 119 -16l-14 -83c-29 1 -58 4 -87 4c-55 0 -62 -24 -74 -82l-11 -53h145l-17 -104h-145z" />
    <glyph glyph-name="g.alt" horiz-adv-x="598" 
d="M662 577l-13 -77l-58 -11c9 -12 19 -37 19 -72c0 -25 -3 -46 -8 -67c-29 -110 -133 -155 -266 -155c-41 0 -81 6 -114 19c-21 -11 -40 -33 -40 -54c0 -18 9 -24 43 -24h94c147 0 238 -26 238 -140c0 -168 -141 -215 -301 -215c-157 0 -227 49 -227 153
c0 53 25 100 74 141c-22 17 -32 45 -32 67c0 54 39 93 84 115c-18 22 -28 51 -28 89c0 17 1 30 4 48c18 109 74 183 272 183h259zM427 -18c0 46 -31 60 -124 60h-101c-31 -25 -48 -69 -48 -96c0 -54 27 -73 118 -73c107 0 155 25 155 109zM487 419c0 41 -24 63 -102 63
c-99 0 -120 -37 -130 -96c-2 -12 -4 -24 -4 -34c0 -40 22 -63 99 -63c78 0 119 25 132 87c3 13 5 27 5 43z" />
    <glyph glyph-name="h.alt" horiz-adv-x="635" 
d="M564 0h-132l62 355c3 19 5 35 5 49c0 47 -23 62 -74 62c-53 0 -110 -17 -143 -31l-77 -435h-132l120 668l-49 5l17 104h181l-43 -242c42 20 110 42 181 42c116 0 154 -58 154 -145c0 -21 -4 -54 -11 -91z" />
    <glyph glyph-name="i.alt" horiz-adv-x="287" 
d="M210 0h-133l81 453l-50 5l17 104h182zM326 650h-136l22 127h136z" />
    <glyph glyph-name="j.alt" horiz-adv-x="287" 
d="M200 -48c-23 -130 -67 -172 -191 -172c-32 0 -68 4 -81 7l16 93c16 -1 35 -1 57 -1c46 0 57 16 67 73l90 502l-50 4l17 104h182zM326 650h-136l22 127h136z" />
    <glyph glyph-name="k.alt" horiz-adv-x="573" 
d="M560 0h-149l-157 276l-49 -276h-132l119 668l-49 5l17 104h182l-82 -461l237 246h160l-265 -269z" />
    <glyph glyph-name="l.alt" horiz-adv-x="286" 
d="M209 0h-132l119 668l-49 5l17 104h181z" />
    <glyph glyph-name="m.alt" horiz-adv-x="909" 
d="M913 444c0 -28 -5 -58 -10 -85l-64 -359h-131l64 369c4 21 7 39 7 54c0 29 -12 45 -59 45c-33 0 -81 -14 -124 -35c0 -22 -4 -44 -8 -64l-64 -369h-133l64 369c4 22 7 40 7 55c0 29 -12 44 -54 44c-41 0 -90 -19 -126 -37l-77 -431h-132l81 454l-50 4l17 104h176l-7 -44
c54 36 116 59 178 59c68 0 102 -23 119 -61c71 43 134 61 179 61c117 0 147 -60 147 -133z" />
    <glyph glyph-name="n.alt" horiz-adv-x="634" 
d="M564 0h-132l62 355c3 20 6 37 6 52c0 41 -18 59 -67 59c-42 0 -93 -12 -153 -41l-75 -425h-132l80 453l-49 5l16 104h177l-6 -42c66 39 131 57 189 57c118 0 153 -62 153 -145c0 -28 -5 -60 -10 -91z" />
    <glyph glyph-name="p.alt" horiz-adv-x="615" 
d="M626 403c0 -30 -4 -66 -11 -106l-10 -52c-40 -208 -135 -259 -293 -259c-35 0 -82 5 -109 12l-37 -204h-132l118 659l-49 5l17 104h173l-6 -36c57 35 119 51 172 51c108 0 167 -51 167 -174zM495 383c0 62 -30 82 -89 82c-36 0 -69 -7 -127 -31l-60 -328
c36 -7 70 -11 102 -11c86 0 129 26 156 165l10 52c5 24 8 52 8 71z" />
    <glyph glyph-name="r.alt" horiz-adv-x="406" 
d="M204 0h-131l80 453l-49 5l16 104h175l-7 -46c62 48 133 61 202 61l-19 -120c-67 0 -145 -15 -192 -34z" />
    <glyph glyph-name="s.alt" horiz-adv-x="512" 
d="M355 577c83 0 158 -11 197 -22l-22 -129h-91l-1 47c-30 2 -56 3 -81 3c-48 0 -108 -4 -108 -63c0 -26 19 -38 72 -62l43 -19c99 -42 139 -79 139 -159c0 -133 -105 -187 -261 -187c-78 0 -164 14 -187 22l15 90c52 -5 103 -11 183 -11c63 0 117 11 117 70
c0 34 -17 44 -85 74l-39 17c-86 38 -129 80 -129 158c0 142 118 171 238 171z" />
    <glyph glyph-name="u.alt" horiz-adv-x="635" 
d="M527 562h132l-99 -562h-126l7 45c-67 -36 -132 -60 -200 -60c-111 0 -142 66 -142 145c0 28 4 56 9 84l43 239l-50 6l17 103h182l-62 -357c-4 -24 -7 -42 -7 -58c0 -39 18 -52 62 -52c42 0 95 15 158 39z" />
    <glyph glyph-name="y.alt" horiz-adv-x="636" 
d="M559 -21c-21 -122 -83 -198 -269 -198c-103 0 -204 18 -221 22l14 89c62 -4 142 -9 211 -9c103 0 121 31 132 96l5 22c-20 -3 -67 -8 -103 -8c-142 0 -219 60 -219 193c0 24 3 50 8 79l52 297h131l-54 -309c-4 -24 -6 -43 -6 -61c0 -67 35 -90 113 -90c35 0 82 4 96 6
l81 454h131z" />
    <glyph glyph-name="z.alt" horiz-adv-x="518" 
d="M491 104l-17 -104h-434l19 118l349 339h-183l-16 -43h-85l25 148h422l-19 -115l-351 -343h290z" />
    <glyph glyph-name="a.alt2" horiz-adv-x="577" 
d="M583 433c0 -22 -3 -47 -8 -73l-64 -360h-122l6 37c-39 -24 -102 -52 -180 -52c-98 0 -145 46 -145 127c0 16 1 30 7 67c23 147 145 158 293 158h68l7 35c3 17 5 32 5 43c0 43 -25 54 -104 54c-56 0 -129 -4 -179 -9l14 86c25 10 113 31 203 31c148 0 199 -50 199 -144z
M402 114l26 142h-71c-94 0 -140 -11 -154 -85c-5 -32 -5 -38 -5 -46c0 -34 23 -45 67 -45c55 0 114 22 137 34z" />
    <glyph glyph-name="f.alt2" horiz-adv-x="430" 
d="M537 776l-14 -83c-29 1 -58 3 -87 3c-55 0 -64 -23 -74 -81l-11 -53h145l-17 -104h-145l-81 -458h-132l82 458l-98 8l15 96h100l12 61c18 106 55 169 186 169c47 0 89 -8 119 -16z" />
    <glyph glyph-name="u.alt2" horiz-adv-x="633" 
d="M605 246c-31 -182 -119 -261 -288 -261c-143 0 -207 73 -207 202c0 27 3 57 9 89l50 286h131l-53 -303c-5 -29 -7 -53 -7 -73c0 -61 25 -89 91 -89c92 0 125 49 144 162l52 303h133z" />
    <glyph glyph-name="Aacute.alt" horiz-adv-x="705" 
d="M21 0l308 632l-52 5l18 106h290l95 -743h-144l-27 209h-239l-104 -209h-145zM501 323l-25 205c-5 38 -6 77 -5 118h-9c-15 -41 -30 -80 -48 -118l-98 -205h185zM729 938l-184 -149h-127l158 149h153z" />
    <glyph glyph-name="Acircumflex.alt" horiz-adv-x="705" 
d="M21 0l308 632l-52 5l18 106h290l95 -743h-144l-27 209h-239l-104 -209h-145zM501 323l-25 205c-5 38 -6 77 -5 118h-9c-15 -41 -30 -80 -48 -118l-98 -205h185zM702 789h-117l-78 91l-113 -91h-125l161 149h164z" />
    <glyph glyph-name="Adieresis.alt" horiz-adv-x="705" 
d="M21 0l308 632l-52 5l18 106h290l95 -743h-144l-27 209h-239l-104 -209h-145zM501 323l-25 205c-5 38 -6 77 -5 118h-9c-15 -41 -30 -80 -48 -118l-98 -205h185zM686 927l-22 -124h-110l21 124h111zM333 927h112l-22 -124h-111z" />
    <glyph glyph-name="Agrave.alt" horiz-adv-x="705" 
d="M21 0l308 632l-52 5l18 106h290l95 -743h-144l-27 209h-239l-104 -209h-145zM501 323l-25 205c-5 38 -6 77 -5 118h-9c-15 -41 -30 -80 -48 -118l-98 -205h185zM580 789h-125l-132 149h153z" />
    <glyph glyph-name="Aring.alt" horiz-adv-x="705" 
d="M623 895c0 -78 -55 -116 -128 -116c-74 0 -131 38 -131 116c0 79 57 117 131 117c73 0 128 -38 128 -117zM550 895c0 38 -24 51 -55 51c-32 0 -56 -13 -56 -51c0 -36 23 -51 56 -51c31 0 55 15 55 51zM21 0l308 632l-52 5l18 106h290l95 -743h-144l-27 209h-239
l-104 -209h-145zM501 323l-25 205c-5 38 -6 77 -5 118h-9c-15 -41 -30 -80 -48 -118l-98 -205h185z" />
    <glyph glyph-name="Atilde.alt" horiz-adv-x="705" 
d="M21 0l308 632l-52 5l18 106h290l95 -743h-144l-27 209h-239l-104 -209h-145zM501 323l-25 205c-5 38 -6 77 -5 118h-9c-15 -41 -30 -80 -48 -118l-98 -205h185zM723 944c-9 -122 -63 -161 -127 -161c-41 0 -72 11 -106 35l-39 28c-19 15 -32 24 -50 24
c-27 0 -40 -21 -48 -81h-82c12 125 66 161 134 161c39 0 64 -9 97 -33l40 -29c18 -14 33 -24 53 -24c27 0 43 23 47 80h81z" />
    <glyph glyph-name="Ccedilla.alt" horiz-adv-x="587" 
d="M573 112l-17 -109c-35 -7 -126 -19 -190 -19c-162 0 -267 61 -267 241c0 33 3 69 10 111l19 100c47 265 183 321 374 321c65 0 151 -10 184 -19l-29 -170h-94l3 67c-24 1 -50 2 -74 2c-125 0 -195 -45 -225 -215l-19 -101c-6 -33 -9 -61 -9 -84c0 -102 54 -132 156 -132
c59 0 131 4 178 7zM419 -65l-160 -141h-125l136 141h149z" />
    <glyph glyph-name="Eacute.alt" horiz-adv-x="604" 
d="M664 628h-334l-35 -190h312l-18 -111h-313l-39 -213h333l-18 -114h-473l113 632l-51 5l18 106h524zM694 937l-184 -149h-127l158 149h153z" />
    <glyph glyph-name="Ecircumflex.alt" horiz-adv-x="604" 
d="M664 628h-334l-35 -190h312l-18 -111h-313l-39 -213h333l-18 -114h-473l113 632l-51 5l18 106h524zM666 789h-117l-78 91l-113 -91h-125l161 149h164z" />
    <glyph glyph-name="Edieresis.alt" horiz-adv-x="604" 
d="M664 628h-334l-35 -190h312l-18 -111h-313l-39 -213h333l-18 -114h-473l113 632l-51 5l18 106h524zM641 926l-22 -124h-110l21 124h111zM288 926h112l-22 -124h-111z" />
    <glyph glyph-name="Egrave.alt" horiz-adv-x="604" 
d="M664 628h-334l-35 -190h312l-18 -111h-313l-39 -213h333l-18 -114h-473l113 632l-51 5l18 106h524zM528 788h-125l-132 149h153z" />
    <glyph glyph-name="Eth.alt" horiz-adv-x="706" 
d="M738 502c0 -31 -3 -64 -10 -100l-18 -95c-41 -217 -152 -313 -399 -313c-79 0 -154 2 -232 6l59 328h-53l19 109h51l37 194l-50 7l18 105c89 4 183 6 272 6c229 0 306 -89 306 -247zM599 507c0 94 -57 124 -177 124h-93l-36 -194h130l-19 -109h-129l-40 -217h93
c141 0 212 44 245 215l18 94c7 36 8 64 8 87z" />
    <glyph glyph-name="Iacute.alt" horiz-adv-x="304" 
d="M272 0h-241l17 105l51 5l96 523l-51 4l18 106h241l-18 -106l-51 -4l-95 -523l49 -5zM520 938l-184 -149h-127l158 149h153z" />
    <glyph glyph-name="Icircumflex.alt" horiz-adv-x="304" 
d="M272 0h-241l17 105l51 5l96 523l-51 4l18 106h241l-18 -106l-51 -4l-95 -523l49 -5zM506 789h-117l-78 91l-113 -91h-125l161 149h164z" />
    <glyph glyph-name="Idieresis.alt" horiz-adv-x="304" 
d="M272 0h-241l17 105l51 5l96 523l-51 4l18 106h241l-18 -106l-51 -4l-95 -523l49 -5zM493 927l-22 -124h-110l21 124h111zM140 927h112l-22 -124h-111z" />
    <glyph glyph-name="Igrave.alt" horiz-adv-x="304" 
d="M272 0h-241l17 105l51 5l96 523l-51 4l18 106h241l-18 -106l-51 -4l-95 -523l49 -5zM392 789h-125l-132 149h153z" />
    <glyph glyph-name="Ntilde.alt" horiz-adv-x="741" 
d="M159 743h213l156 -439c12 -33 26 -78 36 -114h2c5 45 13 97 21 142l77 411h129l-131 -743h-163l-155 448c-13 34 -26 74 -36 111h-2c-6 -42 -13 -89 -21 -134l-80 -425h-128l115 633l-51 4zM746 944c-9 -122 -63 -161 -127 -161c-41 0 -72 11 -106 35l-39 28
c-19 15 -32 24 -50 24c-27 0 -40 -21 -48 -81h-82c12 125 66 161 134 161c39 0 64 -9 97 -33l40 -29c18 -14 33 -24 53 -24c27 0 43 23 47 80h81z" />
    <glyph glyph-name="Scaron.alt" 
d="M433 646c-84 0 -153 -16 -153 -95c0 -39 20 -61 76 -87l108 -48c88 -42 136 -88 136 -190c0 -166 -124 -242 -307 -242c-96 0 -193 13 -230 23l16 102c61 -7 119 -12 213 -12c96 0 164 30 164 115c0 40 -20 63 -78 89l-109 50c-78 37 -130 92 -130 189
c0 170 141 217 298 217c101 0 191 -14 226 -23l-28 -158h-91v66c-36 2 -69 4 -111 4zM258 938h117l79 -91l112 91h126l-162 -149h-163z" />
    <glyph glyph-name="Uacute.alt" horiz-adv-x="731" 
d="M789 743l-81 -455c-38 -214 -138 -304 -335 -304c-172 0 -253 86 -253 229c0 41 5 74 11 110l56 310l-50 5l17 105h190l-76 -432c-7 -37 -11 -68 -11 -95c0 -81 38 -114 132 -114c125 0 158 59 187 209l76 432h137zM745 938l-184 -149h-127l158 149h153z" />
    <glyph glyph-name="Ucircumflex.alt" horiz-adv-x="731" 
d="M789 743l-81 -455c-38 -214 -138 -304 -335 -304c-172 0 -253 86 -253 229c0 41 5 74 11 110l56 310l-50 5l17 105h190l-76 -432c-7 -37 -11 -68 -11 -95c0 -81 38 -114 132 -114c125 0 158 59 187 209l76 432h137zM718 789h-117l-78 91l-113 -91h-125l161 149h164z" />
    <glyph glyph-name="Udieresis.alt" horiz-adv-x="731" 
d="M789 743l-81 -455c-38 -214 -138 -304 -335 -304c-172 0 -253 86 -253 229c0 41 5 74 11 110l56 310l-50 5l17 105h190l-76 -432c-7 -37 -11 -68 -11 -95c0 -81 38 -114 132 -114c125 0 158 59 187 209l76 432h137zM705 927l-22 -124h-110l21 124h111zM352 927h112
l-22 -124h-111z" />
    <glyph glyph-name="Ugrave.alt" horiz-adv-x="731" 
d="M789 743l-81 -455c-38 -214 -138 -304 -335 -304c-172 0 -253 86 -253 229c0 41 5 74 11 110l56 310l-50 5l17 105h190l-76 -432c-7 -37 -11 -68 -11 -95c0 -81 38 -114 132 -114c125 0 158 59 187 209l76 432h137zM574 789h-125l-132 149h153z" />
    <glyph glyph-name="Zcaron.alt" horiz-adv-x="641" 
d="M606 116l-18 -116h-535l20 126l457 500h-254l-20 -58h-90l30 175h511l-21 -127l-456 -500h376zM276 938h117l79 -91l112 91h126l-162 -149h-163z" />
    <glyph glyph-name="aacute.alt" horiz-adv-x="577" 
d="M583 433c0 -22 -3 -47 -8 -73l-64 -360h-122l6 37c-39 -24 -102 -52 -180 -52c-98 0 -145 46 -145 127c0 16 1 30 7 67c23 147 137 158 293 158h68l7 35c3 17 5 32 5 43c0 43 -25 54 -104 54c-26 0 -53 -1 -79 -2l-18 -50h-90l22 129c25 10 113 31 203 31
c148 0 199 -50 199 -144zM428 256h-71c-97 0 -139 -11 -153 -85c-6 -32 -6 -38 -6 -46c0 -34 23 -45 67 -45c55 0 114 22 137 34zM645 774l-184 -149h-127l158 149h153z" />
    <glyph glyph-name="acircumflex.alt" horiz-adv-x="577" 
d="M583 433c0 -22 -3 -47 -8 -73l-64 -360h-122l6 37c-39 -24 -102 -52 -180 -52c-98 0 -145 46 -145 127c0 16 1 30 7 67c23 147 137 158 293 158h68l7 35c3 17 5 32 5 43c0 43 -25 54 -104 54c-26 0 -53 -1 -79 -2l-18 -50h-90l22 129c25 10 113 31 203 31
c148 0 199 -50 199 -144zM428 256h-71c-97 0 -139 -11 -153 -85c-6 -32 -6 -38 -6 -46c0 -34 23 -45 67 -45c55 0 114 22 137 34zM624 625h-117l-78 91l-113 -91h-125l161 149h164z" />
    <glyph glyph-name="adieresis.alt" horiz-adv-x="577" 
d="M583 433c0 -22 -3 -47 -8 -73l-64 -360h-122l6 37c-39 -24 -102 -52 -180 -52c-98 0 -145 46 -145 127c0 16 1 30 7 67c23 147 137 158 293 158h68l7 35c3 17 5 32 5 43c0 43 -25 54 -104 54c-26 0 -53 -1 -79 -2l-18 -50h-90l22 129c25 10 113 31 203 31
c148 0 199 -50 199 -144zM428 256h-71c-97 0 -139 -11 -153 -85c-6 -32 -6 -38 -6 -46c0 -34 23 -45 67 -45c55 0 114 22 137 34zM609 769l-22 -124h-110l21 124h111zM256 769h112l-22 -124h-111z" />
    <glyph glyph-name="agrave.alt" horiz-adv-x="577" 
d="M583 433c0 -22 -3 -47 -8 -73l-64 -360h-122l6 37c-39 -24 -102 -52 -180 -52c-98 0 -145 46 -145 127c0 16 1 30 7 67c23 147 137 158 293 158h68l7 35c3 17 5 32 5 43c0 43 -25 54 -104 54c-26 0 -53 -1 -79 -2l-18 -50h-90l22 129c25 10 113 31 203 31
c148 0 199 -50 199 -144zM428 256h-71c-97 0 -139 -11 -153 -85c-6 -32 -6 -38 -6 -46c0 -34 23 -45 67 -45c55 0 114 22 137 34zM497 625h-125l-132 149h153z" />
    <glyph glyph-name="ampersand.alt" horiz-adv-x="796" 
d="M760 387c-15 -87 -38 -181 -104 -258l90 -103l-4 -26h-143l-39 44c-54 -34 -136 -59 -234 -59c-134 0 -236 46 -236 186c0 99 74 164 183 218l-7 7c-43 52 -74 100 -74 173c0 147 126 188 258 188c158 0 226 -54 226 -160c0 -120 -99 -174 -222 -234l134 -152
c32 46 50 101 64 176h108zM497 121l-155 184c-60 -29 -114 -66 -114 -134s46 -87 118 -87c61 0 114 14 151 37zM393 439c100 53 146 76 146 146c0 42 -27 63 -98 63c-64 0 -114 -21 -114 -79c0 -47 15 -73 57 -120z" />
    <glyph glyph-name="aring.alt" horiz-adv-x="577" 
d="M546 732c0 -78 -55 -116 -128 -116c-74 0 -131 38 -131 116c0 79 57 117 131 117c73 0 128 -38 128 -117zM473 732c0 38 -24 51 -55 51c-32 0 -56 -13 -56 -51c0 -36 23 -51 56 -51c31 0 55 15 55 51zM583 433c0 -22 -3 -47 -8 -73l-64 -360h-122l6 37
c-39 -24 -102 -52 -180 -52c-98 0 -145 46 -145 127c0 16 1 30 7 67c23 147 137 158 293 158h68l7 35c3 17 5 32 5 43c0 43 -25 54 -104 54c-26 0 -53 -1 -79 -2l-18 -50h-90l22 129c25 10 113 31 203 31c148 0 199 -50 199 -144zM428 256h-71c-97 0 -139 -11 -153 -85
c-6 -32 -6 -38 -6 -46c0 -34 23 -45 67 -45c55 0 114 22 137 34z" />
    <glyph glyph-name="atilde.alt" horiz-adv-x="577" 
d="M583 433c0 -22 -3 -47 -8 -73l-64 -360h-122l6 37c-39 -24 -102 -52 -180 -52c-98 0 -145 46 -145 127c0 16 1 30 7 67c23 147 137 158 293 158h68l7 35c3 17 5 32 5 43c0 43 -25 54 -104 54c-26 0 -53 -1 -79 -2l-18 -50h-90l22 129c25 10 113 31 203 31
c148 0 199 -50 199 -144zM428 256h-71c-97 0 -139 -11 -153 -85c-6 -32 -6 -38 -6 -46c0 -34 23 -45 67 -45c55 0 114 22 137 34zM648 782c-9 -122 -63 -161 -127 -161c-41 0 -72 11 -106 35l-39 28c-19 15 -32 24 -50 24c-27 0 -40 -21 -48 -81h-82c12 125 66 161 134 161
c39 0 64 -9 97 -33l40 -29c18 -14 33 -24 53 -24c27 0 43 23 47 80h81z" />
    <glyph glyph-name="ccedilla.alt" horiz-adv-x="505" 
d="M462 6c-27 -7 -91 -21 -170 -21c-146 0 -203 77 -203 196c0 25 2 51 7 79l13 72c31 173 117 245 280 245c87 0 150 -15 170 -21l-24 -142h-89v50c-23 1 -41 2 -54 2c-80 0 -133 -27 -154 -149l-13 -71c-4 -23 -6 -42 -6 -59c0 -73 35 -91 107 -91c31 0 80 3 152 9z
M375 -65l-160 -141h-125l136 141h149z" />
    <glyph glyph-name="dotlessi.alt" horiz-adv-x="287" 
d="M210 0h-133l81 453l-50 5l17 104h182z" />
    <glyph glyph-name="iacute.alt" horiz-adv-x="287" 
d="M487 774l-184 -149h-127l158 149h153zM210 0h-133l81 453l-50 5l17 104h182z" />
    <glyph glyph-name="icircumflex.alt" horiz-adv-x="287" 
d="M467 625h-117l-78 91l-113 -91h-125l161 149h164zM210 0h-133l81 453l-50 5l17 104h182z" />
    <glyph glyph-name="idieresis.alt" horiz-adv-x="287" 
d="M458 768l-22 -124h-110l21 124h111zM105 768h112l-22 -124h-111zM210 0h-133l81 453l-50 5l17 104h182z" />
    <glyph glyph-name="igrave.alt" horiz-adv-x="287" 
d="M338 625h-125l-132 149h153zM210 0h-133l81 453l-50 5l17 104h182z" />
    <glyph glyph-name="lslash.alt" horiz-adv-x="310" 
d="M366 482l-86 -66l-71 -416h-132l52 289l-82 -65l19 110l82 66l48 268l-49 5l17 104h181l-46 -251l87 67z" />
    <glyph glyph-name="ntilde.alt" horiz-adv-x="634" 
d="M564 0h-132l62 355c3 20 6 37 6 52c0 41 -18 59 -67 59c-42 0 -93 -12 -153 -41l-75 -425h-132l80 453l-49 5l16 104h177l-6 -42c66 39 131 57 189 57c118 0 153 -62 153 -145c0 -28 -5 -60 -10 -91zM668 783c-9 -122 -63 -161 -127 -161c-41 0 -72 11 -106 35l-39 28
c-19 15 -32 24 -50 24c-27 0 -40 -21 -48 -81h-82c12 125 66 161 134 161c39 0 64 -9 97 -33l40 -29c18 -14 33 -24 53 -24c27 0 43 23 47 80h81z" />
    <glyph glyph-name="scaron.alt" horiz-adv-x="512" 
d="M179 774h117l79 -91l112 91h126l-162 -149h-163zM355 577c83 0 158 -11 197 -22l-22 -129h-91l-1 47c-30 2 -56 3 -81 3c-48 0 -108 -4 -108 -63c0 -26 19 -38 72 -62l43 -19c99 -42 139 -79 139 -159c0 -133 -105 -187 -261 -187c-78 0 -164 14 -187 22l15 90
c52 -5 103 -11 183 -11c63 0 117 11 117 70c0 34 -17 44 -85 74l-39 17c-86 38 -129 80 -129 158c0 142 118 171 238 171z" />
    <glyph glyph-name="uacute.alt" horiz-adv-x="635" 
d="M670 774l-184 -149h-127l158 149h153zM527 562h132l-99 -562h-126l7 45c-67 -36 -132 -60 -200 -60c-111 0 -142 66 -142 145c0 28 4 56 9 84l43 239l-50 6l17 103h182l-62 -357c-4 -24 -7 -42 -7 -58c0 -39 18 -52 62 -52c42 0 95 15 158 39z" />
    <glyph glyph-name="ucircumflex.alt" horiz-adv-x="635" 
d="M527 562h132l-99 -562h-126l7 45c-67 -36 -132 -60 -200 -60c-111 0 -142 66 -142 145c0 28 4 56 9 84l43 239l-50 6l17 103h182l-62 -357c-4 -24 -7 -42 -7 -58c0 -39 18 -52 62 -52c42 0 95 15 158 39zM642 625h-117l-78 91l-113 -91h-125l161 149h164z" />
    <glyph glyph-name="udieresis.alt" horiz-adv-x="635" 
d="M527 562h132l-99 -562h-126l7 45c-67 -36 -132 -60 -200 -60c-111 0 -142 66 -142 145c0 28 4 56 9 84l43 239l-50 6l17 103h182l-62 -357c-4 -24 -7 -42 -7 -58c0 -39 18 -52 62 -52c42 0 95 15 158 39zM626 768l-22 -124h-110l21 124h111zM273 768h112l-22 -124h-111z
" />
    <glyph glyph-name="ugrave.alt" horiz-adv-x="635" 
d="M514 625h-125l-132 149h153zM527 562h132l-99 -562h-126l7 45c-67 -36 -132 -60 -200 -60c-111 0 -142 66 -142 145c0 28 4 56 9 84l43 239l-50 6l17 103h182l-62 -357c-4 -24 -7 -42 -7 -58c0 -39 18 -52 62 -52c42 0 95 15 158 39z" />
    <glyph glyph-name="f_f.alt" horiz-adv-x="781" 
d="M888 776l-14 -83c-21 1 -58 4 -88 4c-54 0 -62 -24 -73 -82l-10 -53h144l-16 -104h-145l-108 -606h-132l108 606h-219l-107 -606h-132l107 606l-97 10l14 94h100l10 55c18 102 60 175 189 175c47 0 96 -9 118 -16l-14 -83c-21 1 -58 4 -89 4c-53 0 -61 -25 -72 -82
l-10 -53h219l10 55c18 102 60 175 189 175c47 0 96 -9 118 -16z" />
    <glyph glyph-name="f_f.alt2" horiz-adv-x="781" 
d="M605 0h-132l81 458h-220l-80 -458h-133l81 458l-97 10l15 94h99l10 55c18 102 60 175 189 175c47 0 97 -9 119 -16l-14 -83c-21 1 -58 3 -89 3c-53 0 -62 -24 -72 -81l-11 -53h220l10 55c18 102 60 175 188 175c47 0 97 -9 119 -16l-14 -83c-21 1 -58 3 -89 3
c-53 0 -62 -23 -72 -81l-11 -53h145l-17 -104h-145z" />
    <glyph glyph-name="f_i.alt2" horiz-adv-x="682" 
d="M253 0h-132l81 458l-98 10l15 94h100l10 55c19 108 60 175 188 175c47 0 97 -9 119 -16l-14 -83c-21 1 -58 3 -89 3c-53 0 -62 -23 -72 -81l-11 -53h352l-98 -562h-132l81 458h-219zM720 650h-136l22 127h137z" />
    <glyph glyph-name="f_l.alt2" horiz-adv-x="686" 
d="M253 0h-132l81 458l-98 10l15 94h100l10 53c24 138 94 177 215 177c63 0 140 -11 169 -15h132l-136 -777h-132l122 691c-27 2 -89 5 -140 5c-60 0 -85 -9 -98 -81l-11 -53h145l-17 -104h-144z" />
    <glyph glyph-name="f_f_i.alt2" horiz-adv-x="1031" 
d="M954 0h-132l81 458h-218l-81 -458h-131l81 458h-220l-80 -458h-133l81 458l-97 10l15 94h99l10 55c19 105 60 175 189 175c47 0 97 -9 119 -16l-14 -83c-21 1 -58 3 -89 3c-53 0 -62 -23 -72 -81l-11 -53h219l11 55c18 105 59 175 187 175c48 0 97 -9 119 -16l-13 -83
c-21 1 -59 3 -89 3c-53 0 -62 -23 -73 -81l-10 -53h350zM1071 650h-138l23 127h137z" />
    <glyph glyph-name="f_f_l.alt2" horiz-adv-x="1036" 
d="M959 0h-132l122 691c-27 2 -88 5 -139 5c-61 0 -84 -9 -98 -81l-10 -53h144l-17 -104h-144l-81 -458h-132l81 458h-219l-80 -458h-133l81 458l-97 10l15 94h99l10 55c19 105 61 175 189 175c47 0 97 -9 119 -16l-14 -83c-21 1 -58 3 -89 3c-53 0 -62 -23 -72 -81l-11 -53
h219l10 53c26 145 94 177 216 177c61 0 138 -11 167 -15h132z" />
    <glyph glyph-name="yacute.alt" horiz-adv-x="636" 
d="M677 774l-184 -149h-127l158 149h153zM559 -21c-21 -122 -83 -198 -269 -198c-103 0 -204 18 -221 22l14 89c62 -4 142 -9 211 -9c103 0 121 31 132 96l5 22c-20 -3 -67 -8 -103 -8c-142 0 -219 60 -219 193c0 24 3 50 8 79l52 297h131l-54 -309c-4 -24 -6 -43 -6 -61
c0 -67 35 -90 113 -90c35 0 82 4 96 6l81 454h131z" />
    <glyph glyph-name="ydieresis.alt" horiz-adv-x="636" 
d="M559 -21c-21 -122 -83 -198 -269 -198c-103 0 -204 18 -221 22l14 89c62 -4 142 -9 211 -9c103 0 121 31 132 96l5 22c-20 -3 -67 -8 -103 -8c-142 0 -219 60 -219 193c0 24 3 50 8 79l52 297h131l-54 -309c-4 -24 -6 -43 -6 -61c0 -67 35 -90 113 -90c35 0 82 4 96 6
l81 454h131zM636 769l-22 -124h-110l21 124h111zM283 769h112l-22 -124h-111z" />
    <glyph glyph-name="zcaron.alt" horiz-adv-x="518" 
d="M187 774h117l79 -91l112 91h126l-162 -149h-163zM491 104l-17 -104h-434l19 118l349 339h-183l-16 -43h-85l25 148h422l-19 -115l-351 -343h290z" />
    <glyph glyph-name="two.alt" horiz-adv-x="620" 
d="M575 115l-18 -115h-499l16 93c30 175 102 240 282 329c78 39 172 74 172 163c0 46 -38 62 -137 62c-30 0 -70 -3 -109 -5l-22 -68h-91l27 156c55 15 153 27 231 27c166 0 245 -55 245 -158c0 -142 -121 -213 -245 -272c-162 -77 -194 -103 -212 -201l-2 -11h362z" />
    <glyph glyph-name="three.alt" horiz-adv-x="624" 
d="M672 596c0 -20 -3 -42 -8 -72c-12 -63 -48 -113 -116 -144c47 -26 65 -69 65 -111c0 -26 -1 -47 -8 -82c-30 -155 -149 -203 -316 -203c-90 0 -187 19 -220 31l16 96c42 -6 132 -15 212 -15c100 0 153 19 170 112c6 33 8 45 8 57c0 40 -22 64 -103 64h-208l16 104h209
c103 0 128 45 137 104c2 14 5 28 5 47c0 46 -36 62 -135 62c-38 0 -76 -3 -112 -5l-21 -67h-92l27 156c25 8 137 27 227 27c161 0 247 -45 247 -161z" />
    <glyph glyph-name="five.alt" horiz-adv-x="613" 
d="M665 743l-29 -171h-91l2 57h-228l-48 -173h86c178 0 249 -56 249 -165c0 -21 -2 -43 -10 -89c-30 -168 -144 -218 -325 -218c-102 0 -192 19 -221 27l16 99c43 -4 125 -15 203 -15c122 0 170 29 187 119c7 36 8 49 8 59c0 55 -35 75 -146 75h-196l102 395h441z" />
    <glyph glyph-name="six.alt" horiz-adv-x="660" 
d="M643 212c-37 -195 -185 -228 -311 -228c-139 0 -237 53 -237 213c0 32 3 66 10 105l32 176c33 186 112 279 341 279c96 0 189 -17 221 -25l-27 -157h-91l3 66c-36 3 -74 5 -112 5c-151 0 -178 -61 -197 -166l-5 -30c44 11 114 19 156 19c129 0 229 -36 229 -167
c0 -17 -5 -48 -12 -90zM506 226c9 49 11 62 11 74c0 59 -45 71 -118 71c-34 0 -91 -4 -144 -15l-17 -89c-6 -31 -8 -56 -8 -77c0 -78 42 -98 120 -98c84 0 138 36 156 134z" />
    <glyph glyph-name="seven.alt" horiz-adv-x="613" 
d="M681 615l-435 -615h-150l453 629h-284l-19 -59h-92l30 173h519z" />
    <glyph glyph-name="f_i.alt" horiz-adv-x="684" 
d="M703 562l-99 -562h-132l82 458h-219l-107 -606h-132l107 606l-97 10l14 94h100l10 55c18 107 60 175 188 175c48 0 97 -9 119 -16l-14 -83c-21 1 -58 4 -88 4c-54 0 -62 -24 -73 -82l-10 -53h351zM607 777h137l-22 -127h-138z" />
    <glyph glyph-name="f_l.alt" horiz-adv-x="690" 
d="M747 777l-137 -777h-132l123 691c-27 2 -90 6 -140 6c-61 0 -85 -10 -98 -82l-11 -53h145l-17 -104h-145l-108 -606h-132l108 606l-97 10l15 94h99l10 53c24 138 94 177 216 177c62 0 139 -11 169 -15h132z" />
    <glyph glyph-name="dotlessj" horiz-adv-x="287" 
d="M307 562l-107 -610c-22 -130 -73 -172 -191 -172c-32 0 -68 4 -81 7l16 93c16 -1 36 -1 57 -1c46 0 56 16 67 73l107 610h132z" />
    <glyph glyph-name="zero.tab" horiz-adv-x="687" 
d="M709 516c0 -32 -4 -66 -30 -215c-38 -216 -146 -317 -331 -317c-162 0 -239 91 -239 239c0 38 4 71 30 218c38 216 151 316 331 316c166 0 239 -89 239 -241zM571 524c0 88 -45 118 -113 118c-85 0 -152 -48 -182 -223c-25 -146 -30 -176 -30 -207
c0 -81 41 -112 114 -112c89 0 150 48 182 222c26 146 29 178 29 202z" />
    <glyph glyph-name="one.tab" horiz-adv-x="687" 
d="M599 0h-483l17 106l173 7l92 500l-183 -48l19 112l224 70h101l-114 -634l171 -7z" />
    <glyph glyph-name="two.tab" horiz-adv-x="687" 
d="M586 0h-499l16 93c30 175 104 232 282 325c86 45 172 79 172 166c0 47 -38 63 -137 63c-66 0 -153 -6 -205 -13l16 96c56 15 147 27 225 27c168 0 245 -55 245 -158c0 -142 -120 -211 -244 -271c-162 -78 -195 -104 -213 -202l-2 -11h362z" />
    <glyph glyph-name="three.tab" horiz-adv-x="687" 
d="M641 264c0 -217 -136 -280 -323 -280c-90 0 -187 19 -220 31l16 96c42 -6 132 -15 212 -15c96 0 153 19 170 112c6 33 8 45 8 57c0 40 -25 64 -103 64h-208l16 104h209c121 0 142 70 142 146c0 51 -36 67 -135 67c-78 0 -157 -7 -214 -13l16 97c25 8 137 27 227 27
c163 0 246 -45 246 -163c0 -92 -32 -172 -123 -214c47 -26 64 -73 64 -116z" />
    <glyph glyph-name="four.tab" horiz-adv-x="687" 
d="M669 180h-106l-31 -180h-140l32 180h-347l20 114l434 449h132l-82 -454h106zM446 289l54 286l-285 -286h231z" />
    <glyph glyph-name="five.tab" horiz-adv-x="687" 
d="M705 743l-19 -114h-327l-48 -173h86c178 0 248 -56 248 -165c0 -21 -2 -43 -10 -89c-29 -168 -143 -218 -324 -218c-102 0 -192 19 -221 27l16 99c43 -4 125 -15 203 -15c122 0 170 29 187 119c7 36 8 49 8 59c0 55 -35 75 -146 75h-196l102 395h441z" />
    <glyph glyph-name="seven.tab" horiz-adv-x="687" 
d="M719 615l-435 -615h-151l453 629h-383l19 114h518z" />
    <glyph glyph-name="six.tab" horiz-adv-x="687" 
d="M654 212c-37 -195 -185 -228 -311 -228c-139 0 -237 53 -237 213c0 32 4 72 10 105l32 176c33 186 112 279 341 279c96 0 189 -17 221 -25l-16 -99c-61 8 -133 13 -211 13c-151 0 -178 -61 -197 -166l-5 -30c44 11 114 19 156 19c127 0 229 -36 229 -167
c0 -17 -5 -48 -12 -90zM517 226c9 49 11 62 11 74c0 59 -45 71 -118 71c-34 0 -91 -4 -144 -15l-17 -89c-6 -31 -8 -56 -8 -77c0 -78 42 -98 120 -98c84 0 138 36 156 134z" />
    <glyph glyph-name="eight.tab" horiz-adv-x="687" 
d="M725 589c0 -114 -50 -170 -112 -205c38 -27 57 -71 57 -121c0 -21 -3 -40 -7 -63c-35 -201 -178 -216 -323 -216h-5c-127 0 -246 26 -246 177c0 121 47 189 117 223c-35 25 -54 68 -54 124c0 15 1 30 6 56c30 173 169 193 316 193h4c118 0 247 -20 247 -168zM533 268
c0 46 -22 66 -77 66h-110c-71 0 -98 -34 -113 -113c-4 -22 -6 -37 -6 -49c0 -71 52 -83 128 -83h4c86 0 146 17 167 127c5 24 7 39 7 52zM586 580c0 61 -52 72 -127 72h-4c-95 0 -168 -26 -168 -152c0 -41 19 -65 75 -65h110c71 0 97 39 109 103c4 21 5 33 5 42z" />
    <glyph glyph-name="nine.tab" horiz-adv-x="687" 
d="M150 530c37 195 185 228 311 228c139 0 237 -53 237 -213c0 -32 -4 -72 -10 -105l-32 -176c-33 -186 -112 -279 -341 -279c-96 0 -189 17 -221 25l16 99c61 -8 133 -13 211 -13c151 0 178 61 197 166l5 30c-44 -11 -114 -19 -156 -19c-127 0 -229 36 -229 167
c0 17 5 48 12 90zM287 516c-9 -49 -11 -62 -11 -74c0 -59 45 -71 118 -71c34 0 91 4 144 15l17 89c6 31 8 56 8 77c0 78 -42 98 -120 98c-84 0 -138 -36 -156 -134z" />
    <glyph glyph-name="uni2215" unicode="&#x2215;" horiz-adv-x="485" 
d="M675 744l-615 -744h-119l616 744h118z" />
    <glyph glyph-name="dieresisacute" horiz-adv-x="541" 
d="M677 769l-22 -123h-105l21 123h106zM388 787h148l-158 -162h-122zM239 769l-21 -123h-106l22 123h105z" />
    <glyph glyph-name="middot" horiz-adv-x="291" 
d="M261 292h-128l27 154h128z" />
    <glyph glyph-name="dieresisgrave" horiz-adv-x="541" 
d="M677 769l-22 -124h-106l22 124h106zM429 787l73 -163h-121l-100 163h148zM239 769l-21 -124h-106l22 124h105z" />
    <glyph glyph-name="threequartersemdash" horiz-adv-x="834" 
d="M810 237h-703l17 98h703z" />
    <glyph glyph-name="overscore" horiz-adv-x="611" 
d="M752 818h-607l13 77h606z" />
    <glyph glyph-name="franc.taboldstyle" horiz-adv-x="630" 
d="M279 0h-139l18 103h-50l13 79h50l72 411h399l-18 -113h-260l-24 -124h250l-18 -106h-249l-13 -68h128l-13 -79h-128z" />
    <glyph glyph-name="lira.taboldstyle" horiz-adv-x="622" 
d="M628 584l-16 -102c-48 6 -92 10 -138 10c-92 0 -109 -24 -123 -100l-3 -18h171l-12 -67h-171l-10 -56h172l-13 -66h-170l-2 -13c-5 -26 -17 -48 -34 -65h264l-17 -107h-410l13 87c32 27 47 54 52 86l2 12h-59l12 66h59l10 56h-59l12 67h59l3 18c26 150 85 208 243 208
c59 0 117 -6 165 -16z" />
    <glyph glyph-name="currency.taboldstyle" horiz-adv-x="646" 
d="M669 107l-72 -71l-79 78c-36 -22 -78 -33 -117 -33c-41 0 -81 10 -118 33l-82 -79l-70 71l80 79c-21 35 -33 77 -33 117s10 79 33 115l-80 80l70 70l82 -79c35 22 78 34 118 34c41 0 81 -11 118 -33l79 77l71 -71l-80 -79c22 -35 35 -75 35 -115s-12 -80 -34 -116z
M533 302c0 76 -60 129 -133 129c-72 0 -131 -53 -131 -129s60 -130 131 -130c72 0 133 54 133 130z" />
    <glyph glyph-name="peseta.taboldstyle" horiz-adv-x="618" 
d="M672 448l-14 -92h-58c-36 -116 -134 -154 -280 -154c-23 0 -51 2 -73 4l-37 -206h-128l62 356h-57l15 92h57l25 140c70 7 130 10 189 10c148 0 237 -35 240 -150h59zM483 430c0 49 -43 60 -114 60c-20 0 -59 -2 -73 -3l-32 -172c15 -1 51 -3 70 -3c88 0 148 27 149 118z
" />
    <glyph glyph-name="commaaccent.alt" horiz-adv-x="513" 
d="M510 771l-92 -141h-142l117 141h117z" />
    <glyph glyph-name="undercommaaccent" horiz-adv-x="515" 
d="M332 -65l-119 -141h-117l94 141h142z" />
    <glyph glyph-name="DieresisAcute" horiz-adv-x="541" 
d="M249 816h-106l21 123h106zM287 795l132 162h148l-158 -162h-122zM686 816h-105l21 123h105z" />
    <glyph glyph-name="DieresisGrave" horiz-adv-x="541" 
d="M707 939l-21 -123h-106l21 123h106zM460 957l74 -162h-121l-101 162h148zM270 939l-21 -123h-106l21 123h106z" />
    <glyph glyph-name="dblGrave" horiz-adv-x="539" 
d="M597 625h-119l-132 149h146zM246 774l106 -149h-120l-132 149h146z" />
    <glyph glyph-name="dblgrave" horiz-adv-x="471" 
d="M442 625h-125l-132 149h153zM195 625h-125l-132 149h153z" />
    <glyph glyph-name="T_h.caron" horiz-adv-x="1153" 
d="M545 788h-164l-108 149h118l78 -91l113 91h125zM1082 0h-132l62 355c3 19 5 36 5 50c0 47 -22 61 -74 61c-53 0 -110 -17 -143 -31l-77 -435h-132l112 628h-201l-112 -628h-140l112 628h-222l19 115h695l-38 -208c43 20 111 42 182 42c111 0 152 -57 152 -149
c0 -26 -3 -54 -8 -83z" />
    <glyph glyph-name="T_h.commaaccent" horiz-adv-x="1153" 
d="M385 -65l-118 -141h-117l93 141h142zM1082 0h-132l62 355c3 19 5 36 5 50c0 47 -22 61 -74 61c-53 0 -110 -17 -143 -31l-77 -435h-132l112 628h-201l-112 -628h-140l112 628h-222l19 115h695l-38 -208c43 20 111 42 182 42c111 0 152 -57 152 -149c0 -26 -3 -54 -8 -83z
" />
    <glyph glyph-name="i.dot" horiz-adv-x="287" 
d="M307 562l-97 -562h-133l98 562h132zM348 777l-22 -127h-136l22 127h136z" />
    <glyph glyph-name="Amacron.alt" horiz-adv-x="705" 
d="M21 0l308 632l-52 5l18 106h290l95 -743h-144l-27 209h-239l-104 -209h-145zM501 323l-25 205c-5 38 -6 77 -5 118h-9c-15 -41 -30 -80 -48 -118l-98 -205h185zM678 815h-376l14 88h376z" />
    </font>
</defs>
</svg>
