<?xml version="1.0" standalone="no"?>
<!DOCTYPE svg PUBLIC "-//W3C//DTD SVG 1.1//EN" "http://www.w3.org/Graphics/SVG/1.1/DTD/svg11.dtd" >
<svg xmlns="http://www.w3.org/2000/svg" xmlns:xlink="http://www.w3.org/1999/xlink" version="1.1">
<metadata>
Created by FontForge 20141024 at Thu Apr 30 19:12:59 2015
 By System Administrator
Copyright (c) 2007 Monotype Imaging Inc. Soho is designed by Sebastian Lester. All rights reserved.
</metadata>
<defs>
<font id="SohoGothicPro-UltraItalic" horiz-adv-x="789" >
  <font-face 
    font-family="Soho Gothic Pro"
    font-weight="900"
    font-style="italic"
    font-stretch="normal"
    units-per-em="1000"
    panose-1="2 11 9 3 3 5 4 9 2 4"
    ascent="797"
    descent="-203"
    x-height="595"
    cap-height="743"
    bbox="-75 -297 1830 1189"
    underline-thickness="50"
    underline-position="-50"
    slope="-12"
    stemh="136"
    stemv="299"
    unicode-range="U+0020-FE6A"
  />
<missing-glyph horiz-adv-x="500" 
d="M12 0v665h475v-665h-475zM88 618l162 -243l161 243h-323zM60 575v-484c0 -1 161 242 161 242zM440 575l-162 -242l162 -243v485zM411 48l-161 242l-162 -242h323z" />
    <glyph glyph-name="f_i" unicode="fi" horiz-adv-x="929" 
d="M969 595l-104 -595h-301l72 411h-152l-71 -407c-29 -166 -116 -216 -290 -216c-63 0 -115 6 -141 12l29 164c28 -1 38 -1 51 -1c37 0 44 8 50 41l71 407l-79 10l30 174h81l4 23c27 151 129 186 253 186c65 0 129 -8 176 -19l-25 -144c-44 2 -52 2 -60 2
c-33 0 -38 -4 -43 -29l-4 -19h453zM695 786h315l-25 -142h-315z" />
    <glyph glyph-name="f_l" unicode="fl" horiz-adv-x="928" 
d="M1003 786l-139 -786h-301l114 641c-44 2 -81 2 -114 2c-30 0 -38 -3 -43 -29l-4 -19h98l-32 -184h-98l-73 -407c-30 -166 -116 -216 -290 -216c-63 0 -115 6 -141 12l29 164c28 -1 38 -1 51 -1c37 0 44 8 50 41l73 407l-79 11l30 173h81l4 19c28 158 121 190 266 190
c60 0 170 -11 217 -18h301z" />
    <glyph glyph-name="f_f" unicode="ff" horiz-adv-x="995" 
d="M1103 785l-25 -144c-44 2 -52 2 -60 2c-33 0 -38 -4 -43 -29l-4 -19h98l-32 -184h-98l-71 -407c-29 -166 -116 -216 -290 -216c-63 0 -115 6 -141 12l29 164c28 -1 38 -1 51 -1c37 0 44 8 50 41l71 407h-154l-72 -407c-29 -166 -116 -216 -290 -216c-63 0 -115 6 -141 12
l29 164c28 -1 38 -1 51 -1c37 0 44 8 50 41l72 407l-79 11l30 173h81l4 23c27 151 130 186 254 186c64 0 129 -8 175 -19l-25 -144c-44 2 -52 2 -60 2c-33 0 -38 -4 -43 -29l-4 -19h154l4 23c27 151 130 186 254 186c64 0 128 -8 175 -19z" />
    <glyph glyph-name="f_f_i" unicode="ffi" horiz-adv-x="1381" 
d="M1422 595l-105 -595h-302l74 411h-152l-71 -407c-29 -166 -116 -216 -290 -216c-63 0 -115 6 -141 12l29 164c28 -1 38 -1 51 -1c37 0 44 8 50 41l71 407h-152l-71 -407c-29 -166 -116 -216 -290 -216c-63 0 -115 6 -141 12l29 164c28 -1 38 -1 51 -1c37 0 44 8 50 41
l71 407l-79 11l30 173h81l4 23c27 151 130 186 254 186c64 0 129 -8 175 -19l-25 -144c-44 2 -52 2 -60 2c-33 0 -38 -4 -43 -29l-4 -19h152l4 23c27 151 129 186 253 186c65 0 129 -8 176 -19l-25 -144c-44 2 -52 2 -60 2c-33 0 -38 -4 -43 -29l-4 -19h453zM1148 786h315
l-25 -142h-315z" />
    <glyph glyph-name="f_f_l" unicode="ffl" horiz-adv-x="1381" 
d="M1456 786l-139 -786h-301l114 641c-43 2 -81 2 -114 2c-31 0 -38 -3 -43 -29l-4 -19h98l-32 -184h-98l-72 -407c-29 -166 -116 -216 -290 -216c-63 0 -115 6 -141 12l29 164c28 -1 38 -1 51 -1c37 0 44 8 50 41l72 407h-152l-71 -407c-29 -166 -116 -216 -290 -216
c-63 0 -115 6 -141 12l29 164c28 -1 38 -1 51 -1c37 0 44 8 50 41l71 407l-79 11l30 173h81l4 23c27 151 130 186 254 186c64 0 129 -8 175 -19l-25 -144c-44 2 -52 2 -60 2c-33 0 -38 -4 -43 -29l-4 -19h152l4 19c28 158 121 190 266 190c60 0 170 -11 217 -18h301z" />
    <glyph glyph-name="f_b" unicode="fb" horiz-adv-x="1272" 
d="M885 -16c-86 0 -158 3 -322 17l112 638c-35 3 -75 4 -108 4c-30 0 -43 -3 -48 -32l-3 -16h97l-32 -184h-97l-71 -407c-29 -166 -116 -216 -290 -216c-63 0 -115 6 -141 12l29 164c28 -1 38 -1 51 -1c37 0 44 8 50 41l71 407l-80 11l30 173h82l3 16
c29 161 124 193 278 193c48 0 129 -5 205 -18h301l-31 -179c21 2 45 3 70 3c178 0 263 -65 263 -208c0 -25 -3 -53 -8 -83l-7 -40c-39 -223 -177 -295 -404 -295zM933 410l-40 -227c7 -1 18 -2 29 -2c44 0 53 13 68 98l7 40c4 25 7 44 7 58c0 28 -11 35 -41 35
c-12 0 -23 -1 -30 -2z" />
    <glyph glyph-name="f_f_b" unicode="ffb" horiz-adv-x="1725" 
d="M1337 -16c-85 0 -209 7 -321 17l113 640c-43 2 -76 2 -110 2c-29 0 -42 -3 -47 -29l-4 -19h98l-32 -184h-98l-72 -407c-29 -166 -116 -216 -290 -216c-63 0 -115 6 -141 12l29 164c28 -1 38 -1 51 -1c37 0 44 8 50 41l72 407h-151l-71 -407c-29 -166 -116 -216 -290 -216
c-63 0 -115 6 -141 12l29 164c28 -1 38 -1 51 -1c37 0 44 8 50 41l71 407l-80 11l30 173h82l4 23c27 151 129 186 253 186c64 0 129 -8 175 -19l-25 -144c-44 2 -52 2 -59 2c-33 0 -38 -4 -43 -29l-4 -19h151l4 19c28 158 124 190 272 190c54 0 161 -10 211 -18h301
l-31 -178c9 0 34 2 69 2c178 0 263 -64 263 -207c0 -25 -3 -54 -8 -84l-7 -40c-39 -223 -176 -295 -404 -295zM1386 410l-40 -227c7 -1 18 -2 28 -2c45 0 53 13 68 98l7 40c4 26 6 45 7 59c0 28 -11 34 -41 34c-11 0 -22 -1 -29 -2z" />
    <glyph glyph-name="f_f_h" unicode="ffh" horiz-adv-x="1762" 
d="M1773 472c0 -31 -6 -65 -12 -99l-66 -373h-300l65 373c1 8 2 16 2 21c0 15 -7 20 -25 20c-17 0 -34 -5 -47 -11l-72 -403h-302l114 641c-43 2 -77 2 -110 2c-29 0 -42 -3 -47 -29l-4 -19h97l-32 -184h-97l-71 -407c-29 -166 -116 -216 -290 -216c-63 0 -115 6 -141 12
l29 164c28 -1 38 -1 51 -1c37 0 44 8 50 41l71 407h-152l-71 -407c-29 -166 -116 -216 -290 -216c-63 0 -115 6 -141 12l29 164c28 -1 38 -1 51 -1c37 0 44 8 50 41l71 407l-80 11l30 173h82l4 23c27 151 129 186 253 186c64 0 129 -8 175 -19l-25 -144c-44 2 -52 2 -59 2
c-33 0 -38 -4 -43 -29l-4 -19h152l4 19c28 158 123 190 272 190c53 0 161 -10 211 -18h302l-37 -210c61 27 124 33 164 33c153 0 189 -60 189 -137z" />
    <glyph glyph-name="f_f_k" unicode="ffk" horiz-adv-x="1728" 
d="M1830 595l-189 -290l98 -305h-315l-63 253l-44 -253h-301l114 641c-43 2 -77 2 -110 2c-29 0 -42 -3 -47 -29l-4 -19h98l-32 -184h-98l-73 -407c-30 -166 -116 -216 -290 -216c-63 0 -115 6 -141 12l29 164c28 -1 38 -1 51 -1c37 0 44 8 50 41l73 407h-152l-71 -407
c-29 -166 -116 -216 -290 -216c-63 0 -115 6 -141 12l29 164c28 -1 38 -1 51 -1c37 0 44 8 50 41l71 407l-79 10l30 174h81l4 23c27 151 130 186 254 186c64 0 129 -8 175 -19l-25 -144c-44 2 -52 2 -60 2c-33 0 -38 -4 -43 -29l-4 -19h152l4 19c28 158 123 190 272 190
c65 0 161 -10 211 -18h300l-79 -448l161 257h293z" />
    <glyph glyph-name="f_h" unicode="fh" horiz-adv-x="1308" 
d="M1319 472c0 -31 -6 -65 -12 -99l-66 -373h-300l65 373c2 10 2 16 2 21c0 15 -7 20 -25 20c-17 0 -34 -5 -47 -11l-72 -403h-302l114 641c-43 2 -76 2 -109 2c-31 0 -42 -3 -47 -29l-4 -19h97l-32 -184h-97l-71 -407c-29 -166 -116 -216 -290 -216c-63 0 -115 6 -141 12
l29 164c28 -1 38 -1 51 -1c37 0 44 8 50 41l71 407l-80 11l30 173h82l4 19c28 158 123 190 271 190c66 0 161 -10 211 -18h302l-37 -209c61 27 125 33 164 33c153 0 189 -60 189 -138z" />
    <glyph glyph-name="f_j" unicode="fj" horiz-adv-x="913" 
d="M978 595l-104 -591c-29 -166 -116 -216 -291 -216c-73 0 -122 6 -141 12l29 164c27 -1 38 -1 51 -1c37 0 45 8 51 41l72 407h-161l-73 -407c-30 -166 -116 -216 -290 -216c-63 0 -115 6 -141 12l29 164c28 -1 38 -1 51 -1c37 0 44 8 50 41l73 407l-80 11l30 173h82l4 23
c27 151 129 186 253 186c64 0 129 -8 175 -19l-25 -144c-44 2 -52 2 -59 2c-33 0 -38 -4 -43 -29l-4 -19h462zM703 786h316l-25 -142h-316z" />
    <glyph glyph-name="f_f_j" unicode="ffj" horiz-adv-x="1366" 
d="M1430 595l-104 -591c-29 -166 -115 -216 -290 -216c-74 0 -120 6 -141 12l29 164c27 -1 37 -1 51 -1c37 0 44 8 50 41l72 407h-161l-73 -407c-30 -166 -116 -216 -290 -216c-63 0 -115 6 -141 12l29 164c28 -1 38 -1 51 -1c37 0 44 8 50 41l73 407h-151l-72 -407
c-29 -166 -116 -216 -290 -216c-63 0 -115 6 -141 12l29 164c28 -1 38 -1 51 -1c37 0 44 8 50 41l72 407l-80 11l30 173h82l4 23c27 151 129 186 253 186c64 0 129 -8 175 -19l-25 -144c-44 2 -52 2 -59 2c-33 0 -38 -4 -43 -29l-4 -19h151l4 23c27 151 130 186 254 186
c64 0 128 -8 175 -19l-25 -144c-44 2 -52 2 -60 2c-33 0 -38 -4 -43 -29l-4 -19h462zM1156 786h316l-25 -142h-316z" />
    <glyph glyph-name="f_k" unicode="fk" horiz-adv-x="1275" 
d="M1378 595l-189 -290l98 -305h-315l-64 253l-44 -253h-301l114 641c-43 2 -76 2 -110 2c-30 0 -42 -3 -47 -29l-4 -19h98l-32 -184h-98l-72 -407c-29 -166 -116 -216 -290 -216c-63 0 -115 6 -141 12l29 164c28 -1 38 -1 51 -1c37 0 44 8 50 41l72 407l-79 11l30 173h81
l4 19c28 158 124 190 272 190c66 0 161 -10 211 -18h300l-79 -448l162 257h293z" />
    <glyph glyph-name=".notdef" horiz-adv-x="500" 
d="M12 0v665h475v-665h-475zM88 618l162 -243l161 243h-323zM60 575v-484c0 -1 161 242 161 242zM440 575l-162 -242l162 -243v485zM411 48l-161 242l-162 -242h323z" />
    <glyph glyph-name="space" unicode=" " horiz-adv-x="218" 
 />
    <glyph glyph-name="exclam" unicode="!" horiz-adv-x="448" 
d="M414 200l-35 -200h-312l35 200h312zM193 786h338l-120 -528h-285z" />
    <glyph glyph-name="quotedbl" unicode="&#x22;" horiz-adv-x="697" 
d="M107 494l130 289h246l-169 -289h-207zM815 783l-170 -289h-206l130 289h246z" />
    <glyph glyph-name="numbersign" unicode="#" horiz-adv-x="810" 
d="M804 155h-112l-44 -155h-240l44 155h-89l-44 -155h-240l45 155h-65l26 147h82l34 123h-95l26 147h113l50 171h240l-51 -171h90l50 171h239l-50 -171h64l-26 -147h-82l-34 -123h95zM530 425h-89l-35 -123h90z" />
    <glyph glyph-name="dollar" unicode="$" horiz-adv-x="752" 
d="M237 -135l21 118c-79 4 -149 12 -200 23l32 185c71 -4 137 -11 266 -11c51 0 64 16 64 37c0 15 -12 21 -58 42l-73 32c-95 42 -166 94 -166 216c0 169 120 230 270 249l21 113h238l-20 -110c67 -6 123 -17 168 -26l-32 -178c-103 7 -155 12 -254 12c-46 0 -66 -7 -66 -30
c0 -13 12 -20 54 -37l67 -28c121 -51 183 -108 183 -213c0 -166 -106 -245 -255 -270l-22 -124h-238z" />
    <glyph glyph-name="percent" unicode="%" horiz-adv-x="1281" 
d="M1293 304c0 -40 -4 -65 -10 -97l-4 -21c-25 -131 -101 -198 -258 -198c-135 0 -186 68 -186 172c0 23 2 47 9 80l5 25c26 129 100 194 255 194c130 0 189 -59 189 -155zM1096 307c0 17 -5 21 -15 21c-17 0 -22 -10 -36 -87l-4 -22c-8 -42 -11 -67 -11 -81
c0 -16 5 -19 14 -19c17 0 25 10 38 85l4 24c7 40 10 64 10 79zM1153 748l-662 -748h-231l662 748h231zM581 609c0 -40 -4 -65 -10 -97l-4 -21c-25 -131 -101 -198 -258 -198c-135 0 -186 68 -186 172c0 23 2 47 9 80l5 25c26 129 100 194 255 194c130 0 189 -59 189 -155z
M384 612c0 17 -5 21 -15 21c-17 0 -22 -10 -36 -87l-4 -22c-8 -42 -11 -67 -11 -81c0 -16 5 -19 14 -19c17 0 25 10 38 85l4 24c7 40 10 64 10 79z" />
    <glyph glyph-name="ampersand" unicode="&#x26;" horiz-adv-x="934" 
d="M979 465l-17 -101l-37 -12c-16 -90 -55 -156 -104 -208l76 -81l-11 -63h-259l-21 21c-44 -18 -123 -38 -234 -38c-178 0 -310 47 -310 185c0 129 76 188 192 233l-9 10c-45 49 -66 95 -66 150c0 186 206 203 364 203c113 0 239 -17 305 -31l-30 -170c-83 5 -191 8 -286 8
c-31 0 -54 -6 -54 -35c0 -19 14 -36 28 -51l188 -204c8 21 12 47 17 71l-33 12l17 101h284zM491 145l-92 100c-15 -11 -25 -34 -25 -57c0 -32 23 -49 67 -49c18 0 38 3 50 6z" />
    <glyph glyph-name="quoteright" unicode="&#x2019;" horiz-adv-x="366" 
d="M484 786l-177 -289h-200l130 289h247z" />
    <glyph glyph-name="parenleft" unicode="(" horiz-adv-x="463" 
d="M392 -194h-254c-35 75 -71 197 -71 339c0 219 88 422 230 598h271c-134 -200 -215 -436 -215 -683c0 -74 13 -175 39 -254z" />
    <glyph glyph-name="parenright" unicode=")" horiz-adv-x="463" 
d="M166 743h254c35 -75 71 -197 71 -339c0 -219 -88 -422 -230 -598h-271c134 200 215 436 215 683c0 74 -13 175 -39 254z" />
    <glyph glyph-name="asterisk" unicode="*" horiz-adv-x="577" 
d="M640 547l-49 -14c-21 -6 -46 -10 -73 -11c21 -15 40 -32 53 -48l29 -38l-154 -103l-29 37c-14 17 -24 38 -34 61c-9 -24 -20 -44 -34 -61l-30 -37l-153 104l30 37c12 15 29 33 52 48c-27 1 -52 4 -73 11l-48 15l60 166l46 -14c22 -7 44 -18 66 -32c-7 25 -11 47 -11 68
v47h190v-47c0 -21 -4 -43 -13 -68c23 13 46 26 67 32l48 14z" />
    <glyph glyph-name="plus" unicode="+" horiz-adv-x="639" 
d="M672 279h-178v-168h-219v168h-178v202h178v167h219v-167h178v-202z" />
    <glyph glyph-name="comma" unicode="," horiz-adv-x="458" 
d="M459 197l-215 -298h-230l149 298h296z" />
    <glyph glyph-name="hyphen" unicode="-" horiz-adv-x="346" 
d="M350 208h-282l32 178h282z" />
    <glyph glyph-name="period" unicode="." horiz-adv-x="377" 
d="M339 0h-302l34 196h302z" />
    <glyph glyph-name="slash" unicode="/" horiz-adv-x="620" 
d="M718 743l-371 -743h-315l372 743h314z" />
    <glyph glyph-name="zero" unicode="0" horiz-adv-x="808" 
d="M845 475c0 -34 -2 -71 -13 -137c-39 -238 -161 -359 -424 -359c-234 0 -316 113 -316 289c0 34 3 71 13 137c35 238 161 359 424 359c234 0 316 -113 316 -289zM524 518c0 26 -7 32 -24 32c-33 0 -45 -20 -70 -192c-10 -67 -16 -108 -16 -132c0 -26 7 -33 24 -33
c33 0 42 21 70 192c11 68 16 109 16 133z" />
    <glyph glyph-name="one" unicode="1" horiz-adv-x="677" 
d="M642 0h-607l32 187l142 9l54 305l-145 -27l35 196l245 73h236l-97 -547l137 -9z" />
    <glyph glyph-name="two" unicode="2" horiz-adv-x="742" 
d="M687 0h-652l15 90c34 206 100 273 283 360c90 43 133 57 133 91c0 21 -14 27 -74 27c-88 0 -219 -6 -250 -8l29 164c118 32 248 40 324 40c230 0 314 -64 314 -174c0 -158 -135 -227 -275 -287c-127 -54 -133 -51 -140 -93l-1 -4h330z" />
    <glyph glyph-name="three" unicode="3" horiz-adv-x="734" 
d="M741 249c0 -224 -195 -270 -398 -270c-119 0 -247 20 -305 43l30 168c72 -6 171 -10 265 -10c56 0 81 6 81 70c0 27 -20 33 -81 33h-183l32 178h185c78 0 97 14 97 74c0 27 -18 30 -63 30c-104 0 -188 -3 -268 -8l29 164c73 23 200 43 319 43c200 0 318 -51 318 -185
c0 -87 -39 -169 -119 -214c45 -24 61 -70 61 -116z" />
    <glyph glyph-name="four" unicode="4" horiz-adv-x="796" 
d="M786 136h-77l-23 -136h-329l23 136h-325l30 170l492 437h240l-75 -421h77zM435 322l24 135l-138 -135h114z" />
    <glyph glyph-name="five" unicode="5" horiz-adv-x="724" 
d="M802 743l-35 -198h-339l-17 -70h24c237 0 304 -62 304 -169c0 -260 -171 -327 -396 -327c-138 0 -244 19 -302 36l30 169c55 -4 124 -9 214 -9c78 0 100 9 109 57c3 14 3 19 3 23c0 29 -21 35 -83 35h-228l119 453h597z" />
    <glyph glyph-name="six" unicode="6" horiz-adv-x="774" 
d="M781 220c-31 -172 -152 -241 -400 -241c-243 0 -301 110 -301 235c0 36 5 72 11 108l23 133c34 197 94 309 402 309c127 0 254 -21 309 -35l-30 -172c-117 7 -159 9 -262 9c-70 0 -75 -7 -88 -71l-3 -14c17 3 50 5 70 5c187 0 278 -52 278 -187c0 -19 -2 -39 -9 -79z
M459 239c6 37 9 52 9 62c0 16 -6 23 -26 23c-10 0 -24 -2 -28 -3l-14 -79c-4 -23 -7 -40 -7 -53c0 -17 6 -25 22 -25c29 0 35 25 44 75z" />
    <glyph glyph-name="seven" unicode="7" horiz-adv-x="725" 
d="M786 535l-425 -535h-341l437 545h-337l35 198h668z" />
    <glyph glyph-name="eight" unicode="8" horiz-adv-x="805" 
d="M869 584c0 -112 -48 -163 -116 -205c40 -31 59 -79 59 -133c0 -14 -1 -29 -5 -50c-34 -193 -184 -217 -405 -217h-8c-194 0 -327 44 -327 192c0 110 37 160 117 208c-35 29 -57 73 -57 131c0 14 1 29 5 52c32 180 178 202 400 202h8c208 0 329 -42 329 -180zM493 265
c0 26 -10 36 -34 36h-8c-34 0 -46 -19 -57 -84c-2 -11 -3 -21 -3 -29c0 -22 9 -33 34 -33h8c34 0 46 20 55 68c3 17 5 31 5 42zM543 555c0 20 -8 32 -34 32h-8c-45 0 -55 -52 -55 -90c0 -22 8 -34 33 -34h8c35 0 44 23 52 64c3 15 4 22 4 28z" />
    <glyph glyph-name="nine" unicode="9" horiz-adv-x="774" 
d="M124 523c31 172 152 241 400 241c243 0 301 -110 301 -235c0 -36 -5 -72 -11 -108l-23 -133c-34 -197 -94 -309 -402 -309c-127 0 -254 21 -309 35l30 172c117 -7 159 -9 262 -9c70 0 75 7 88 71l3 14c-17 -3 -50 -5 -70 -5c-187 0 -278 52 -278 187c0 19 2 39 9 79z
M446 504c-6 -37 -9 -52 -9 -62c0 -16 6 -23 26 -23c10 0 24 2 28 3l14 79c4 23 7 40 7 53c0 17 -6 25 -22 25c-29 0 -35 -25 -44 -75z" />
    <glyph glyph-name="colon" unicode=":" horiz-adv-x="397" 
d="M349 0h-302l34 197h302zM419 398h-302l34 197h302z" />
    <glyph glyph-name="semicolon" unicode=";" horiz-adv-x="418" 
d="M419 197l-190 -297h-230l110 297h310zM448 398h-302l34 197h302z" />
    <glyph glyph-name="less" unicode="&#x3c;" horiz-adv-x="639" 
d="M663 98h-293l-264 282l264 282h293l-258 -282z" />
    <glyph glyph-name="equal" unicode="=" horiz-adv-x="639" 
d="M659 310v-202h-550v202h550zM659 441h-550v203h550v-203z" />
    <glyph glyph-name="greater" unicode="&#x3e;" horiz-adv-x="639" 
d="M663 380l-264 -282h-293l258 282l-258 282h293z" />
    <glyph glyph-name="question" unicode="?" horiz-adv-x="645" 
d="M417 0h-302l34 196h302zM137 584l31 172c73 28 185 41 303 41c188 0 252 -58 252 -147c0 -102 -63 -156 -140 -216c-116 -91 -140 -127 -147 -166l-1 -7h-246l1 7c14 83 21 126 75 188c56 63 74 83 74 110c0 17 -12 22 -52 22c-43 0 -108 -2 -150 -4z" />
    <glyph glyph-name="at" unicode="@" horiz-adv-x="958" 
d="M986 388c0 -253 -195 -358 -450 -358c-174 0 -263 37 -263 150c0 22 0 43 6 75c23 130 90 243 298 243c84 0 156 -13 209 -25l-60 -301c87 31 126 124 126 220c0 128 -103 191 -255 191c-183 0 -302 -103 -356 -239c-22 -55 -33 -116 -33 -177c0 -175 109 -210 274 -210
c70 0 156 4 206 9l-6 -72c-41 -7 -136 -18 -207 -18c-266 0 -401 79 -401 290c0 79 16 152 47 218c80 172 256 289 486 289c214 0 379 -96 379 -285zM563 371h-14c-38 0 -51 -19 -68 -98c-6 -27 -12 -56 -12 -90c0 -24 8 -34 30 -34h21z" />
    <glyph glyph-name="A" unicode="A" horiz-adv-x="875" 
d="M860 0h-340l4 119h-128l-37 -119h-344l283 743h536zM537 313l2 173c0 31 3 74 6 105h-2c-9 -31 -22 -74 -32 -105l-57 -173h83z" />
    <glyph glyph-name="B" unicode="B" horiz-adv-x="819" 
d="M877 572c0 -97 -31 -154 -98 -193c39 -24 50 -71 50 -101c0 -25 -2 -45 -5 -59c-42 -201 -204 -239 -463 -239c-81 0 -183 5 -306 20l131 743c141 16 244 21 312 21c248 0 379 -51 379 -192zM516 263c0 32 -24 32 -97 32l-21 -114c12 -2 23 -2 37 -2c58 0 70 12 77 53
c3 19 4 26 4 31zM563 531c0 26 -17 35 -63 35c-10 0 -21 0 -34 -2l-19 -110c94 0 116 4 116 77z" />
    <glyph glyph-name="C" unicode="C" horiz-adv-x="705" 
d="M800 739l-36 -204c-56 4 -128 7 -198 7c-65 0 -99 -13 -123 -150l-7 -40c-6 -33 -9 -59 -9 -79c0 -65 30 -72 80 -72c70 0 141 3 199 7l-36 -204c-49 -15 -198 -25 -250 -25c-227 0 -327 79 -327 263c0 39 4 82 13 130l7 40c48 277 170 352 445 352c52 0 197 -10 242 -25
z" />
    <glyph glyph-name="D" unicode="D" horiz-adv-x="834" 
d="M872 487c0 -36 -4 -76 -12 -121l-4 -23c-53 -297 -198 -364 -477 -364c-116 0 -215 6 -324 21l131 743c113 15 215 21 331 21c236 0 355 -77 355 -277zM557 504c0 45 -22 46 -88 46l-62 -357c99 0 101 5 130 170l4 23c10 56 16 93 16 118z" />
    <glyph glyph-name="E" unicode="E" horiz-adv-x="701" 
d="M792 743l-36 -202h-276l-13 -74h254l-33 -186h-254l-14 -79h276l-35 -202h-606l131 743h606z" />
    <glyph glyph-name="F" unicode="F" horiz-adv-x="692" 
d="M793 743l-37 -205h-277l-13 -73h254l-32 -186h-254l-49 -279h-330l131 743h607z" />
    <glyph glyph-name="G" unicode="G" horiz-adv-x="811" 
d="M878 727l-34 -192c-64 3 -169 7 -254 7c-102 0 -137 -13 -160 -152l-6 -36c-8 -46 -14 -80 -14 -103c0 -40 10 -53 43 -53c11 0 26 0 41 2l39 220h297l-73 -413c-88 -15 -218 -28 -344 -28c-168 0 -318 50 -318 276c0 35 4 75 11 119l6 36c61 343 264 354 448 354
c114 0 248 -20 318 -37z" />
    <glyph glyph-name="H" unicode="H" horiz-adv-x="912" 
d="M988 743l-131 -743h-331l47 267h-140l-47 -267h-331l131 743h331l-47 -262h140l47 262h331z" />
    <glyph glyph-name="I" unicode="I" horiz-adv-x="440" 
d="M516 743l-131 -743h-330l131 743h330z" />
    <glyph glyph-name="J" unicode="J" horiz-adv-x="440" 
d="M516 743l-128 -721c-30 -171 -138 -232 -306 -232c-44 0 -98 3 -134 11l29 164h31c34 0 42 10 48 42l130 736h330z" />
    <glyph glyph-name="K" unicode="K" horiz-adv-x="895" 
d="M1033 743l-265 -374l122 -369h-366l-80 329l-58 -329h-331l131 743h331l-60 -337l217 337h359z" />
    <glyph glyph-name="L" unicode="L" horiz-adv-x="634" 
d="M641 213l-37 -213h-549l131 743h331l-94 -530h218z" />
    <glyph glyph-name="M" unicode="M" horiz-adv-x="1021" 
d="M1097 743l-131 -743h-315l40 230c6 31 13 67 22 101h-2c-17 -26 -37 -54 -55 -72l-61 -61h-101l-40 61c-12 18 -21 46 -28 72h-2c-4 -34 -9 -70 -15 -101l-40 -230h-314l131 743h272l97 -178c12 -22 24 -50 34 -79h2c21 29 42 57 62 79l162 178h282z" />
    <glyph glyph-name="N" unicode="N" horiz-adv-x="882" 
d="M958 743l-131 -743h-290l-107 207c-13 26 -22 52 -28 72h-3c-5 -26 -9 -52 -14 -78l-35 -201h-295l131 743h280l116 -208c14 -26 23 -53 30 -79h2c0 7 5 41 13 84l36 203h295z" />
    <glyph glyph-name="O" unicode="O" horiz-adv-x="837" 
d="M871 477c0 -32 -3 -67 -9 -106l-6 -39c-48 -313 -234 -353 -439 -353c-178 0 -321 61 -321 286c0 32 3 68 9 107l6 39c48 315 238 353 438 353c182 0 322 -64 322 -287zM557 495c0 37 -12 48 -44 48c-49 0 -64 -31 -84 -153l-6 -37c-8 -47 -13 -80 -13 -103
c0 -39 13 -49 43 -49c48 0 64 25 85 152l6 37c8 48 13 82 13 105z" />
    <glyph glyph-name="P" unicode="P" horiz-adv-x="821" 
d="M887 534c0 -19 -1 -40 -6 -67c-41 -235 -237 -255 -419 -255c-20 0 -28 0 -57 1l-37 -213h-313l131 743c116 14 206 19 328 19c221 0 373 -48 373 -228zM570 512c0 31 -20 40 -61 40c-16 0 -35 -1 -45 -2l-21 -124c10 -1 27 -1 44 -1c55 0 83 24 83 87z" />
    <glyph glyph-name="Q" unicode="Q" horiz-adv-x="837" 
d="M871 477c0 -32 -3 -67 -9 -106l-6 -39c-37 -239 -156 -318 -298 -342l-1 -6c-1 -5 -1 -7 -1 -9c0 -12 10 -13 41 -13h78l-26 -148c-56 -16 -140 -27 -210 -27c-114 0 -184 44 -184 143c0 14 1 29 4 45l4 25c-100 33 -167 110 -167 265c0 32 3 68 9 107l6 39
c48 315 238 353 438 353c182 0 322 -64 322 -287zM557 495c0 37 -12 48 -44 48c-49 0 -64 -31 -84 -153l-6 -37c-8 -47 -13 -80 -13 -103c0 -39 13 -49 43 -49c48 0 64 25 85 152l6 37c8 48 13 82 13 105z" />
    <glyph glyph-name="R" unicode="R" horiz-adv-x="839" 
d="M883 539c0 -19 -2 -39 -7 -67c-17 -99 -59 -139 -122 -183l85 -289h-308l-76 235h-47l-41 -235h-312l131 743c98 10 198 19 341 19c207 0 356 -46 356 -223zM565 516c0 26 -14 36 -61 36c-17 0 -21 0 -41 -1l-22 -125c13 -1 27 -1 42 -1c58 0 70 22 78 61c3 15 4 23 4 30
z" />
    <glyph glyph-name="S" unicode="S" horiz-adv-x="738" 
d="M798 733l-32 -178c-103 7 -155 12 -254 12c-20 0 -66 0 -66 -27c0 -16 12 -23 54 -40l67 -28c121 -51 183 -108 183 -213c0 -208 -167 -280 -375 -280c-127 0 -243 11 -319 27l32 185c71 -4 137 -11 266 -11c24 0 65 4 65 33c0 19 -13 26 -59 46l-73 32
c-95 42 -166 94 -166 216c0 218 201 257 406 257c113 0 205 -17 271 -31z" />
    <glyph glyph-name="T" unicode="T" horiz-adv-x="761" 
d="M872 743l-36 -203h-195l-95 -540h-331l95 540h-195l36 203h721z" />
    <glyph glyph-name="U" unicode="U" horiz-adv-x="860" 
d="M941 743l-83 -472c-37 -210 -178 -292 -425 -292c-222 0 -336 93 -336 243c0 41 3 64 9 99l75 422h324l-80 -452c-4 -24 -7 -44 -7 -58c0 -30 12 -41 45 -41c50 0 62 24 75 99l80 452h323z" />
    <glyph glyph-name="V" unicode="V" horiz-adv-x="862" 
d="M968 743l-274 -743h-527l-11 743h327l-20 -440c-2 -43 -6 -101 -9 -144h2c12 43 29 101 43 144l136 440h333z" />
    <glyph glyph-name="W" unicode="W" horiz-adv-x="1138" 
d="M1244 743l-241 -743h-347l-27 223c-4 33 -3 80 -4 109c-9 -29 -24 -76 -40 -109l-104 -223h-347l22 743h318l-24 -265c-4 -47 -9 -98 -14 -133c15 37 30 79 46 112l52 109h267l13 -109c4 -33 6 -76 8 -112c8 35 20 86 33 133l70 265h319z" />
    <glyph glyph-name="X" unicode="X" horiz-adv-x="829" 
d="M933 743l-283 -370l165 -373h-333l-69 156l-118 -156h-280l299 380l-160 363h333l63 -143l103 143h280z" />
    <glyph glyph-name="Y" unicode="Y" horiz-adv-x="824" 
d="M950 743l-338 -507l-41 -236h-318l41 236l-158 507h319l23 -138c5 -33 9 -74 13 -109h3c16 35 35 76 52 109l74 138h330z" />
    <glyph glyph-name="Z" unicode="Z" horiz-adv-x="708" 
d="M793 743l-35 -197l-285 -337h226l-36 -209h-618l33 192l286 342h-224l37 209h616z" />
    <glyph glyph-name="bracketleft" unicode="[" horiz-adv-x="487" 
d="M419 -194h-421l165 937h422l-35 -195h-121l-96 -547h121z" />
    <glyph glyph-name="backslash" unicode="\" horiz-adv-x="614" 
d="M574 0h-303l-108 743h302z" />
    <glyph glyph-name="bracketright" unicode="]" horiz-adv-x="487" 
d="M420 -194h-422l34 195h121l96 547h-121l35 195h423z" />
    <glyph glyph-name="asciicircum" unicode="^" horiz-adv-x="639" 
d="M726 443h-262l-80 204l-78 -204h-263l145 300h392z" />
    <glyph glyph-name="underscore" unicode="_" horiz-adv-x="669" 
d="M604 -177h-604l23 127h604z" />
    <glyph glyph-name="quoteleft" unicode="&#x2018;" horiz-adv-x="366" 
d="M484 786l-130 -289h-247l178 289h199z" />
    <glyph glyph-name="a" unicode="a" horiz-adv-x="768" 
d="M713 0h-273l5 31c-53 -31 -105 -46 -180 -46c-121 0 -188 73 -188 210c0 30 4 63 10 99l7 40c37 212 126 276 427 276c90 0 190 -5 296 -15zM448 186l40 225c-8 1 -21 1 -31 1c-44 0 -52 -15 -66 -93l-7 -40c-5 -29 -8 -49 -8 -63c0 -26 10 -33 37 -33c12 0 28 2 35 3z
" />
    <glyph glyph-name="b" unicode="b" horiz-adv-x="766" 
d="M793 391c0 -26 -3 -55 -8 -86l-7 -40c-39 -223 -174 -281 -402 -281c-98 0 -187 4 -321 18l138 784h301l-31 -178c9 0 34 2 69 2c178 0 261 -74 261 -219zM495 378c0 28 -11 34 -41 34c-11 0 -23 -1 -30 -2l-40 -227c8 -1 19 -2 29 -2c45 0 53 13 68 98l7 40
c4 26 6 45 7 59z" />
    <glyph glyph-name="c" unicode="c" horiz-adv-x="616" 
d="M683 584l-31 -180c-88 3 -137 5 -178 5c-56 0 -69 -10 -85 -91l-8 -41c-4 -21 -6 -37 -6 -50c0 -37 18 -43 59 -43s91 2 180 5l-32 -179c-56 -12 -137 -26 -244 -26c-178 0 -262 78 -262 220c0 28 3 58 10 91l8 41c40 205 141 274 354 274c107 0 184 -14 235 -26z" />
    <glyph glyph-name="d" unicode="d" horiz-adv-x="767" 
d="M487 410c-8 1 -20 2 -30 2c-44 0 -53 -15 -67 -93l-7 -40c-5 -28 -8 -49 -8 -63c0 -26 10 -33 38 -33c9 0 25 1 34 3zM850 786l-138 -786h-272l5 31c-49 -28 -107 -47 -181 -47c-121 0 -188 74 -188 211c0 30 4 62 10 98l7 40c35 202 147 277 356 277c36 0 55 -1 69 -2
l31 178h301z" />
    <glyph glyph-name="e" unicode="e" horiz-adv-x="723" 
d="M757 374c0 -35 -4 -70 -17 -140h-367l-1 -6c-2 -11 -3 -20 -3 -27c0 -24 16 -25 77 -25c54 0 85 0 247 3l-29 -166c-56 -12 -158 -29 -281 -29c-177 0 -304 52 -304 227c0 27 3 58 9 91l3 17c41 231 174 291 389 291c226 0 277 -118 277 -236zM480 395
c0 28 -12 36 -34 36c-28 0 -41 -16 -51 -72l-1 -6h81c4 20 5 33 5 42z" />
    <glyph glyph-name="f" unicode="f" horiz-adv-x="540" 
d="M648 785l-25 -144c-44 2 -52 2 -60 2c-33 0 -38 -4 -43 -29l-4 -19h98l-32 -184h-98l-71 -407c-29 -166 -116 -216 -290 -216c-63 0 -115 6 -141 12l29 164c28 -1 38 -1 51 -1c37 0 44 8 50 41l71 407l-79 10l30 174h81l4 23c27 151 129 186 253 186c65 0 129 -8 176 -19
z" />
    <glyph glyph-name="g" unicode="g" horiz-adv-x="765" 
d="M819 595l-105 -594c-25 -144 -133 -212 -390 -212c-148 0 -260 22 -283 28l27 152c71 -3 184 -10 250 -10c81 0 92 8 98 42l2 11c-21 -2 -45 -4 -62 -4c-178 0 -270 80 -270 225c0 21 2 43 6 67l8 46c35 201 168 264 434 264c110 0 204 -7 285 -15zM490 410
c-11 1 -18 2 -32 2c-40 0 -51 -20 -62 -83l-8 -44c-3 -15 -4 -27 -4 -38c0 -27 10 -42 38 -42c13 0 23 0 32 1z" />
    <glyph glyph-name="h" unicode="h" 
d="M808 462c0 -34 -6 -69 -12 -104l-62 -358h-301l65 373c1 8 2 15 2 20c0 16 -7 21 -25 21c-17 0 -34 -5 -48 -11l-71 -403h-301l138 786h301l-37 -209c62 27 125 33 165 33c151 0 186 -67 186 -148z" />
    <glyph glyph-name="i" unicode="i" horiz-adv-x="411" 
d="M460 595l-104 -595h-301l104 595h301zM501 786l-25 -142h-315l25 142h315z" />
    <glyph glyph-name="j" unicode="j" horiz-adv-x="411" 
d="M460 595l-104 -591c-29 -166 -116 -216 -290 -216c-63 0 -115 6 -141 12l29 164c28 -1 39 -1 51 -1c37 0 44 8 50 41l104 591h301zM501 786l-25 -142h-315l25 142h315z" />
    <glyph glyph-name="k" unicode="k" horiz-adv-x="777" 
d="M868 595l-189 -290l98 -305h-315l-63 253l-44 -253h-300l138 786h300l-79 -448l161 257h293z" />
    <glyph glyph-name="l" unicode="l" horiz-adv-x="411" 
d="M494 786l-138 -786h-301l138 786h301z" />
    <glyph glyph-name="m" unicode="m" horiz-adv-x="1122" 
d="M1145 447c0 -23 -2 -48 -7 -75l-66 -372h-301l66 379c1 7 2 14 2 19c0 13 -5 19 -22 19c-10 0 -25 -3 -32 -6c-1 -10 -3 -21 -5 -32l-66 -379h-301l66 379c1 8 2 15 2 20c0 13 -5 18 -21 18c-11 0 -23 -4 -32 -7l-72 -410h-301l104 595h276l-8 -49c59 44 131 64 195 64
c80 0 122 -23 146 -65c71 47 133 65 201 65c128 0 176 -63 176 -163z" />
    <glyph glyph-name="n" unicode="n" horiz-adv-x="784" 
d="M808 465c0 -35 -6 -73 -12 -107l-62 -358h-301l65 373c1 8 2 14 2 19c0 17 -8 22 -26 22c-17 0 -41 -8 -48 -12l-70 -402h-301l104 595h276l-8 -50c56 40 133 65 196 65c153 0 185 -67 185 -145z" />
    <glyph glyph-name="o" unicode="o" horiz-adv-x="736" 
d="M762 383c-2 -24 -3 -51 -8 -80l-8 -42c-39 -221 -178 -277 -371 -277c-185 0 -296 65 -296 228c0 24 1 50 7 79l8 42c39 221 179 277 370 277c186 0 298 -64 298 -227zM465 378c0 27 -9 34 -26 34c-27 0 -36 -15 -51 -94l-8 -42c-5 -28 -7 -48 -7 -62c0 -26 8 -33 25 -33
c27 0 37 16 52 95l8 42c5 27 7 46 7 60z" />
    <glyph glyph-name="p" unicode="p" horiz-adv-x="769" 
d="M800 437c0 -39 -10 -112 -21 -177c-35 -202 -151 -275 -360 -275c-27 0 -57 2 -66 2l-32 -181h-301l139 789h273l-6 -35c66 38 131 50 177 50c144 0 197 -69 197 -173zM497 380c0 26 -11 32 -38 32c-8 0 -26 -1 -36 -4l-39 -224c8 -1 18 -1 29 -1c45 0 54 14 68 92
c13 73 16 92 16 105z" />
    <glyph glyph-name="q" unicode="q" horiz-adv-x="764" 
d="M813 593l-139 -787h-299l32 180c-9 0 -29 -2 -60 -2c-185 0 -270 73 -270 220c0 27 2 55 8 87l7 38c43 232 174 281 407 281c95 0 177 -4 314 -17zM484 410c-8 1 -18 2 -29 2c-41 0 -52 -17 -67 -99l-7 -37c-5 -24 -7 -41 -7 -55c0 -31 12 -39 41 -39c12 0 21 0 29 1z
" />
    <glyph glyph-name="r" unicode="r" horiz-adv-x="524" 
d="M611 610l-40 -226c-25 0 -49 1 -74 1s-50 -1 -74 -1l-67 -384h-301l104 595h273l-9 -51c73 64 149 66 188 66z" />
    <glyph glyph-name="s" unicode="s" horiz-adv-x="634" 
d="M676 583l-26 -147c-82 6 -175 10 -214 10c-20 0 -41 0 -41 -17c0 -15 11 -17 39 -27l61 -22c98 -35 145 -83 145 -166c0 -193 -177 -229 -360 -229c-85 0 -185 11 -236 22l26 151c20 -1 123 -8 220 -8c26 0 51 0 51 23c0 18 -10 19 -45 32l-49 18
c-88 32 -148 81 -148 178c0 182 159 209 326 209c99 0 194 -11 251 -27z" />
    <glyph glyph-name="t" unicode="t" horiz-adv-x="525" 
d="M599 595l-32 -184h-98l-35 -196c-5 -25 -5 -32 -5 -37c0 -13 6 -18 29 -18c21 0 53 2 62 2l-28 -160c-15 -4 -86 -18 -168 -18c-130 0 -195 55 -195 166c0 20 2 41 6 64l34 197l-80 10l30 174h82l26 144h300l-26 -144h98z" />
    <glyph glyph-name="u" unicode="u" 
d="M838 595l-104 -595h-276l8 50c-46 -33 -121 -66 -214 -66c-137 0 -167 74 -167 153c0 34 6 70 11 100l63 358h301l-65 -373c-1 -8 -2 -15 -2 -20c0 -16 7 -21 26 -21c16 0 41 8 47 11l71 403h301z" />
    <glyph glyph-name="v" unicode="v" horiz-adv-x="754" 
d="M843 595l-248 -595h-435l-41 595h289v-277c0 -62 -5 -116 -7 -158c12 43 32 108 48 158l88 277h306z" />
    <glyph glyph-name="w" unicode="w" horiz-adv-x="1093" 
d="M1172 595l-217 -595h-342l-18 139c-3 23 -4 45 -4 117c-15 -48 -31 -85 -47 -117l-67 -139h-339l-9 595h299l-17 -211c-5 -65 -7 -99 -10 -130c10 31 29 80 55 130l42 80h251l13 -79c9 -51 11 -100 12 -131c7 31 18 74 34 131l57 210h307z" />
    <glyph glyph-name="x" unicode="x" horiz-adv-x="731" 
d="M833 595l-249 -301l147 -294h-318l-62 124l-98 -124h-253l257 311l-141 284h317l57 -115l90 115h253z" />
    <glyph glyph-name="y" unicode="y" horiz-adv-x="768" 
d="M857 595l-236 -544c-90 -208 -193 -259 -362 -259c-84 0 -171 5 -238 18l29 162c57 -1 79 -1 113 -1c24 0 38 4 44 22l7 20l-95 582h313l-7 -273c-1 -50 -5 -115 -7 -158c12 43 29 99 48 158l87 273h304z" />
    <glyph glyph-name="z" unicode="z" horiz-adv-x="639" 
d="M702 595l-30 -175l-243 -236h202l-32 -184h-559l28 162l257 247h-210l32 186h555z" />
    <glyph glyph-name="braceleft" unicode="{" horiz-adv-x="538" 
d="M471 -194h-63c-228 0 -322 37 -322 179c0 25 3 54 9 87l12 69c2 11 3 21 3 29c0 35 -16 47 -39 58l24 134c32 14 56 29 66 86l12 69c37 213 133 226 401 226h63l-35 -195h-57c-52 0 -63 -1 -72 -51l-12 -69c-16 -92 -47 -119 -122 -153c50 -28 73 -50 73 -103
c0 -14 -2 -31 -5 -51l-12 -69c-2 -10 -3 -18 -3 -25c0 -26 16 -26 57 -26h57z" />
    <glyph glyph-name="bar" unicode="|" horiz-adv-x="436" 
d="M431 -194h-301v937h301v-937z" />
    <glyph glyph-name="braceright" unicode="}" horiz-adv-x="538" 
d="M162 743h63c228 0 322 -37 322 -179c0 -25 -3 -54 -9 -87l-12 -69c-2 -11 -3 -21 -3 -29c0 -35 16 -47 39 -58l-24 -134c-32 -14 -56 -29 -66 -86l-12 -69c-37 -213 -133 -226 -401 -226h-63l35 195h57c52 0 63 1 72 51l12 69c16 92 47 119 122 153
c-50 28 -73 50 -73 103c0 14 1 31 5 51l12 69c2 10 3 18 3 25c0 26 -16 26 -57 26h-57z" />
    <glyph glyph-name="asciitilde" unicode="~" horiz-adv-x="639" 
d="M695 499c0 -156 -66 -203 -165 -203c-58 0 -85 5 -139 23l-59 19c-17 5 -30 11 -43 11c-18 0 -25 -8 -25 -34v-16h-191v16c0 166 94 203 175 203c42 0 82 -7 127 -23l60 -21c24 -7 30 -10 46 -10c20 0 24 11 24 35v14h190v-14z" />
    <glyph glyph-name="exclamdown" unicode="&#xa1;" horiz-adv-x="448" 
d="M427 346l-67 -528h-338l120 528h285zM173 604h312l-35 -200h-312z" />
    <glyph glyph-name="cent" unicode="&#xa2;" horiz-adv-x="611" 
d="M683 584l-31 -179c-42 1 -112 4 -177 4c-60 0 -70 -10 -86 -91l-8 -41c-4 -22 -7 -40 -7 -53c0 -35 17 -40 61 -40c56 0 123 4 178 5l-31 -179c-27 -8 -76 -15 -130 -20l-20 -113h-237l21 123c-94 26 -139 102 -139 208c0 28 3 58 9 89l8 41c32 162 106 239 228 261
l21 117h237l-20 -112c57 -7 106 -16 123 -20z" />
    <glyph glyph-name="sterling" unicode="&#xa3;" horiz-adv-x="711" 
d="M810 743l-34 -189c-48 2 -143 4 -193 4c-56 0 -66 -7 -77 -63l-6 -30h148l-31 -176h-148l-6 -38c-4 -26 -13 -38 -19 -51h270l-35 -200h-624l27 156c38 28 59 50 66 95l6 38h-72l31 176h72l5 28c36 204 161 274 365 274c75 0 164 -6 255 -24z" />
    <glyph glyph-name="fraction" unicode="&#x2044;" horiz-adv-x="770" 
d="M899 748l-663 -748h-234l663 748h234z" />
    <glyph glyph-name="yen" unicode="&#xa5;" horiz-adv-x="897" 
d="M884 163h-253l-28 -163h-317l28 163h-252l24 133h226l-29 75h-184l24 134h113l-75 238h330l23 -138c6 -33 10 -74 14 -109h2c16 36 34 76 51 109l73 138h336l-159 -238h114l-24 -134h-185l-55 -75h227z" />
    <glyph glyph-name="florin" unicode="&#x192;" horiz-adv-x="645" 
d="M723 744l-31 -144c-43 1 -55 1 -68 1c-34 0 -40 -5 -46 -32l-20 -88h109l-38 -176h-109l-64 -303c-32 -150 -135 -191 -264 -191c-85 0 -142 11 -182 19l32 145c41 -1 54 -1 67 -1c33 0 41 4 47 32l63 299h-97l38 176h96l19 91c31 151 141 192 266 192
c84 0 143 -12 182 -20z" />
    <glyph glyph-name="section" unicode="&#xa7;" horiz-adv-x="746" 
d="M18 -191l32 180c122 -5 217 -8 274 -8c32 0 69 8 69 46c0 28 -21 39 -79 51l-90 19c-101 21 -144 67 -144 163c0 58 21 116 68 164c-15 24 -22 55 -22 91c0 213 203 245 392 245c124 0 262 -23 292 -31l-31 -174c-74 5 -189 10 -275 10c-31 0 -67 -6 -67 -39
c0 -22 12 -31 48 -40l94 -23c146 -36 181 -93 181 -185c0 -49 -21 -103 -67 -148c16 -22 24 -60 24 -94c0 -212 -208 -254 -393 -254c-76 0 -188 9 -306 27zM525 202c4 16 8 34 8 53c0 25 -13 40 -62 51l-96 21c-40 9 -63 23 -71 47c-6 -23 -11 -48 -11 -75
c0 -25 13 -38 62 -48l96 -20c45 -10 54 -15 74 -29z" />
    <glyph glyph-name="currency" unicode="&#xa4;" horiz-adv-x="684" 
d="M716 172l-98 -89l-85 79c-38 -19 -79 -29 -122 -29c-44 0 -85 10 -125 30l-91 -84l-97 89l91 84c-21 35 -31 74 -31 115c0 39 10 78 31 113l-92 85l98 88l90 -84c39 21 82 31 126 31c43 0 85 -9 123 -30l86 80l97 -90l-87 -79c22 -36 35 -75 35 -115s-12 -80 -35 -116z
M516 367c0 57 -48 100 -106 100c-59 0 -107 -44 -107 -100c0 -58 51 -100 107 -100c54 0 106 43 106 100z" />
    <glyph glyph-name="quotesingle" unicode="'" horiz-adv-x="365" 
d="M483 783l-169 -289h-207l130 289h246z" />
    <glyph glyph-name="quotedblleft" unicode="&#x201c;" horiz-adv-x="682" 
d="M800 786l-130 -289h-247l178 289h199zM285 786h199l-130 -289h-247z" />
    <glyph glyph-name="guillemotleft" unicode="&#xab;" horiz-adv-x="919" 
d="M977 535l-177 -249l85 -230h-279l-94 239l179 240h286zM268 535h286l-177 -249l85 -230h-279l-94 239z" />
    <glyph glyph-name="guilsinglleft" unicode="&#x2039;" horiz-adv-x="490" 
d="M549 535l-177 -249l85 -230h-279l-94 239l179 240h286z" />
    <glyph glyph-name="guilsinglright" unicode="&#x203a;" horiz-adv-x="490" 
d="M510 296l-179 -240h-286l177 249l-85 230h279z" />
    <glyph glyph-name="endash" unicode="&#x2013;" horiz-adv-x="428" 
d="M431 208h-363l32 178h363z" />
    <glyph glyph-name="dagger" unicode="&#x2020;" horiz-adv-x="582" 
d="M623 416h-108l-96 -546h-301l96 546h-109l35 198h109l30 169h301l-30 -169h108z" />
    <glyph glyph-name="daggerdbl" unicode="&#x2021;" horiz-adv-x="582" 
d="M576 149h-108l-49 -279h-301l49 279h-109l35 198h109l17 96h-109l35 198h109l25 145h301l-25 -145h108l-35 -198h-108l-17 -96h108z" />
    <glyph glyph-name="periodcentered" unicode="&#xb7;" horiz-adv-x="377" 
d="M373 269h-276l35 197h276z" />
    <glyph glyph-name="paragraph" unicode="&#xb6;" horiz-adv-x="778" 
d="M877 743l-166 -937h-139l141 798h-73l-140 -798h-140l75 421h-55c-145 0 -270 58 -270 214c0 19 2 39 8 71c35 195 185 231 353 231h406z" />
    <glyph glyph-name="bullet" unicode="&#x2022;" horiz-adv-x="482" 
d="M513 365c0 -107 -93 -192 -209 -192c-115 0 -208 85 -208 192s93 193 208 193c116 0 209 -86 209 -193z" />
    <glyph glyph-name="quotesinglbase" unicode="&#x201a;" horiz-adv-x="366" 
d="M378 185l-177 -289h-200l130 289h247z" />
    <glyph glyph-name="quotedblbase" unicode="&#x201e;" horiz-adv-x="682" 
d="M694 185l-178 -289h-199l130 289h247zM131 185h247l-177 -289h-200z" />
    <glyph glyph-name="quotedblright" unicode="&#x201d;" horiz-adv-x="682" 
d="M800 786l-178 -289h-199l130 289h247zM237 786h247l-177 -289h-200z" />
    <glyph glyph-name="guillemotright" unicode="&#xbb;" horiz-adv-x="919" 
d="M933 296l-179 -240h-286l177 249l-85 230h279zM416 535l94 -239l-179 -240h-286l177 249l-85 230h279z" />
    <glyph glyph-name="ellipsis" unicode="&#x2026;" horiz-adv-x="1123" 
d="M334 0h-302l34 196h302zM712 0h-302l34 196h302zM1091 0h-303l34 196h303z" />
    <glyph glyph-name="perthousand" unicode="&#x2030;" horiz-adv-x="1767" 
d="M1779 304c0 -40 -4 -65 -10 -97l-4 -21c-25 -131 -101 -198 -258 -198c-135 0 -186 68 -186 172c0 23 2 47 9 80l5 25c26 129 100 194 255 194c130 0 189 -59 189 -155zM1582 307c0 17 -5 21 -15 21c-17 0 -22 -10 -36 -87l-4 -22c-8 -42 -11 -67 -11 -81
c0 -16 5 -19 14 -19c17 0 25 10 38 85l4 24c7 40 10 64 10 79zM1299 304c0 -40 -4 -65 -10 -97l-4 -21c-25 -131 -101 -198 -258 -198c-135 0 -186 68 -186 172c0 23 2 47 9 80l5 25c26 129 100 194 255 194c130 0 189 -59 189 -155zM1102 307c0 17 -5 21 -15 21
c-17 0 -22 -10 -36 -87l-4 -22c-8 -42 -11 -67 -11 -81c0 -16 5 -19 14 -19c17 0 25 10 38 85l4 24c7 40 10 64 10 79zM1147 748l-662 -748h-231l662 748h231zM582 609c0 -40 -4 -65 -10 -97l-4 -21c-25 -131 -101 -198 -258 -198c-135 0 -186 68 -186 172c0 23 2 47 9 80
l5 25c26 129 100 194 255 194c130 0 189 -59 189 -155zM385 612c0 17 -5 21 -15 21c-17 0 -22 -10 -36 -87l-4 -22c-8 -42 -11 -67 -11 -81c0 -16 5 -19 14 -19c17 0 25 10 38 85l4 24c7 40 10 64 10 79z" />
    <glyph glyph-name="questiondown" unicode="&#xbf;" horiz-adv-x="645" 
d="M334 607h302l-34 -196h-302zM614 23l-31 -172c-73 -28 -185 -41 -303 -41c-188 0 -252 58 -252 147c0 102 63 156 140 216c116 91 140 127 147 166l1 7h246l-1 -7c-14 -83 -21 -126 -75 -188c-56 -63 -74 -83 -74 -110c0 -17 12 -22 52 -22c43 0 108 2 150 4z" />
    <glyph glyph-name="grave" unicode="`" horiz-adv-x="528" 
d="M604 650h-266l-168 136h326z" />
    <glyph glyph-name="acute" unicode="&#xb4;" horiz-adv-x="528" 
d="M633 786l-215 -136h-272l157 136h330z" />
    <glyph glyph-name="circumflex" unicode="&#x2c6;" horiz-adv-x="676" 
d="M757 650h-241l-49 54l-70 -54h-251l159 136h342z" />
    <glyph glyph-name="tilde" unicode="&#x2dc;" horiz-adv-x="604" 
d="M715 814c-17 -147 -110 -169 -171 -169c-22 0 -65 2 -116 18l-53 17c-21 7 -37 10 -48 11c-19 0 -26 -9 -32 -44h-149c17 149 109 170 177 170c27 0 59 -4 107 -18l54 -16c22 -7 34 -12 51 -12c18 0 29 8 32 43h148z" />
    <glyph glyph-name="macron" unicode="&#xaf;" horiz-adv-x="571" 
d="M653 650h-507l24 136h507z" />
    <glyph glyph-name="breve" unicode="&#x2d8;" horiz-adv-x="598" 
d="M707 810c-48 -148 -193 -164 -281 -164c-81 0 -251 14 -252 164h153c2 -46 60 -54 105 -54c46 0 106 8 124 54h151z" />
    <glyph glyph-name="dotaccent" unicode="&#x2d9;" horiz-adv-x="380" 
d="M462 650h-316l24 136h316z" />
    <glyph glyph-name="dieresis" unicode="&#xa8;" horiz-adv-x="585" 
d="M691 786l-24 -138h-228l24 138h228zM170 786h228l-24 -138h-228z" />
    <glyph glyph-name="ring" unicode="&#x2da;" horiz-adv-x="428" 
d="M459 767c0 -82 -75 -137 -181 -137s-182 55 -182 137c0 83 76 138 182 138s181 -55 181 -138zM333 768c0 24 -21 40 -55 40c-33 0 -55 -16 -55 -40s21 -40 55 -40s55 16 55 40z" />
    <glyph glyph-name="cedilla" unicode="&#xb8;" horiz-adv-x="449" 
d="M407 -56l-149 -138h-260l113 138h296z" />
    <glyph glyph-name="hungarumlaut" unicode="&#x2dd;" horiz-adv-x="867" 
d="M972 786l-215 -136h-239l157 136h297zM303 786h297l-215 -136h-239z" />
    <glyph glyph-name="ogonek" unicode="&#x2db;" horiz-adv-x="460" 
d="M393 -191c-43 -11 -128 -27 -215 -27c-113 0 -165 30 -165 94c0 98 131 118 230 131l184 -7c-114 -27 -149 -41 -149 -63c0 -13 15 -16 42 -16c34 0 69 3 93 5z" />
    <glyph glyph-name="caron" unicode="&#x2c7;" horiz-adv-x="676" 
d="M170 786h241l51 -53l68 53h251l-158 -136h-342z" />
    <glyph glyph-name="emdash" unicode="&#x2014;" horiz-adv-x="660" 
d="M663 208h-595l32 178h595z" />
    <glyph glyph-name="AE" unicode="&#xc6;" horiz-adv-x="1098" 
d="M1063 0h-605l20 119h-92l-37 -119h-334l272 743h907l-36 -202h-276l-13 -74h253l-33 -186h-253l-14 -79h276zM513 313l49 278h-29c-10 -32 -22 -74 -32 -105l-57 -173h69z" />
    <glyph glyph-name="ordfeminine" unicode="&#xaa;" horiz-adv-x="495" 
d="M554 662c0 -13 -1 -27 -6 -55l-39 -221h-176l4 25c-31 -18 -83 -35 -127 -35c-64 0 -95 35 -95 88c0 147 101 152 232 152h5l3 14c1 5 1 9 1 13c0 15 -9 17 -41 17c-40 0 -78 -2 -135 -5l18 100c49 16 117 31 191 31c98 0 165 -32 165 -124zM350 541h-14
c-17 0 -34 -6 -34 -47c0 -10 5 -13 13 -13c9 0 18 2 25 5z" />
    <glyph glyph-name="Lslash" unicode="&#x141;" horiz-adv-x="634" 
d="M61 245l19 108l40 16l65 373h331l-43 -246l91 40l-19 -108l-91 -40l-31 -174h218l-37 -214h-549l46 261z" />
    <glyph glyph-name="Oslash" unicode="&#xd8;" horiz-adv-x="837" 
d="M22 -33l118 123c-28 42 -44 99 -44 175c0 32 3 68 9 107l6 39c48 315 238 353 438 353c72 0 138 -10 191 -37l48 50h159l-120 -125c28 -43 44 -100 44 -175c0 -32 -3 -67 -9 -106l-6 -39c-55 -312 -234 -353 -439 -353c-71 0 -137 10 -190 36l-46 -48h-159zM538 353l6 37
c20 122 21 153 -31 153c-51 0 -62 -31 -84 -153l-6 -37c-23 -127 -17 -152 30 -152c48 0 64 25 85 152z" />
    <glyph glyph-name="OE" unicode="&#x152;" horiz-adv-x="1096" 
d="M1099 202l-35 -202h-472c-64 -11 -151 -21 -206 -21c-150 0 -300 53 -300 275c0 34 4 71 11 113l8 47c55 314 245 349 419 349c54 0 137 -8 198 -20h473l-36 -202h-276l-13 -74h253l-33 -186h-253l-14 -79h276zM503 203c0 0 18 98 60 336c-19 2 -34 4 -54 4
c-52 0 -64 -26 -86 -151l-8 -45c-8 -43 -12 -75 -12 -97c0 -40 14 -51 46 -51c17 0 25 0 54 4z" />
    <glyph glyph-name="ordmasculine" unicode="&#xba;" horiz-adv-x="500" 
d="M574 636c0 -16 -2 -34 -5 -53l-5 -29c-25 -145 -116 -178 -249 -178c-121 0 -187 44 -187 151c0 16 2 33 5 51l5 29c26 146 118 179 249 179c119 0 187 -43 187 -150zM381 635c0 17 -6 21 -17 21c-16 0 -25 -9 -34 -61l-5 -29c-3 -17 -4 -29 -4 -38c0 -18 6 -23 17 -23
c17 0 24 10 33 61l5 29c3 18 5 31 5 40z" />
    <glyph glyph-name="ae" unicode="&#xe6;" horiz-adv-x="1044" 
d="M1080 385c0 -27 -3 -53 -20 -151h-368l-1 -6c-2 -11 -3 -21 -3 -29c0 -26 15 -33 75 -33c55 0 187 0 248 3l-28 -158c-57 -12 -177 -26 -290 -26c-96 0 -184 17 -232 66c-92 -56 -169 -66 -248 -66c-120 0 -160 58 -160 141c0 14 1 29 8 70c28 154 172 155 346 155h8
l4 22c1 7 2 14 2 19c0 18 -11 26 -60 26c-44 0 -123 -2 -208 -7l27 152c59 18 178 47 293 47c63 0 116 -7 158 -24c48 16 104 24 168 24c232 0 281 -119 281 -225zM800 395c0 28 -12 36 -34 36c-29 0 -42 -16 -52 -72l-1 -6h82c3 20 5 33 5 42zM410 236h-20
c-24 0 -39 -3 -46 -41c-4 -23 -4 -27 -4 -31c0 -14 7 -19 19 -19c14 0 26 3 36 7z" />
    <glyph glyph-name="dotlessi" unicode="&#x131;" horiz-adv-x="411" 
d="M356 0h-301l104 595h301z" />
    <glyph glyph-name="lslash" unicode="&#x142;" horiz-adv-x="431" 
d="M366 0h-301l44 254l-75 -51l24 135l75 51l70 397h301l-30 -168l79 55l-24 -135l-78 -55z" />
    <glyph glyph-name="oslash" unicode="&#xf8;" horiz-adv-x="736" 
d="M15 -32l108 101c-29 35 -44 82 -44 143c0 24 2 50 7 79l8 42c39 221 179 277 370 277c54 0 102 -5 143 -17l38 35h185l-112 -104c29 -35 44 -81 44 -141c0 -24 -3 -51 -8 -80l-8 -42c-39 -221 -178 -277 -371 -277c-53 0 -100 6 -140 17l-35 -33h-185zM450 276l8 42
c5 27 7 46 7 60c0 27 -9 34 -26 34c-26 0 -37 -15 -51 -94l-8 -42c-5 -28 -7 -48 -7 -62c0 -26 8 -33 25 -33c26 0 38 16 52 95z" />
    <glyph glyph-name="oe" unicode="&#x153;" horiz-adv-x="1097" 
d="M1127 387c0 -27 -2 -52 -21 -153h-367l-1 -6c-2 -12 -4 -21 -4 -29c0 -25 16 -33 76 -33c54 0 187 0 247 3l-28 -158c-56 -12 -177 -26 -290 -26c-75 0 -142 14 -183 40c-59 -28 -120 -41 -194 -41c-176 0 -287 66 -287 229c0 24 3 50 16 121c39 221 179 276 381 276
c73 0 134 -9 178 -39c54 29 122 39 196 39c232 0 281 -118 281 -223zM846 396c0 27 -12 35 -34 35c-28 0 -41 -16 -51 -72l-1 -6h81c3 20 5 35 5 43zM463 378c0 27 -9 34 -26 34c-27 0 -38 -15 -52 -94c-13 -69 -15 -89 -15 -103c0 -27 8 -34 26 -34c26 0 38 16 52 95l8 42
c5 27 7 46 7 60z" />
    <glyph glyph-name="germandbls" unicode="&#xdf;" horiz-adv-x="814" 
d="M55 0l92 526c31 179 135 262 421 262c215 0 299 -87 299 -193c0 -79 -30 -150 -114 -195c59 -34 75 -86 75 -140c0 -166 -114 -276 -292 -276c-69 0 -110 7 -134 12l33 191h19c51 0 78 19 78 76c0 36 -15 49 -55 49h-19l28 159h19c53 0 77 27 77 71c0 30 -13 44 -57 44
c-53 0 -71 -19 -78 -60l-92 -526h-300z" />
    <glyph glyph-name="one.superior" unicode="&#xb9;" horiz-adv-x="373" 
d="M391 345h-293l20 116l47 5l29 167l-49 -16l24 131l110 44h143l-57 -326l46 -5z" />
    <glyph glyph-name="logicalnot" unicode="&#xac;" horiz-adv-x="639" 
d="M659 108h-227v333h-323v203h550v-536z" />
    <glyph glyph-name="mu" unicode="&#xb5;" horiz-adv-x="810" 
d="M838 595l-104 -595h-276l8 50c-27 -20 -65 -41 -111 -51l-34 -192h-301l139 788h301l-65 -373c-1 -8 -2 -15 -2 -20c0 -16 7 -21 26 -21c16 0 41 8 47 11l71 403h301z" />
    <glyph glyph-name="trademark" unicode="&#x2122;" horiz-adv-x="1105" 
d="M1147 319h-180v142c0 19 0 41 2 61h-1c-9 -18 -16 -31 -27 -44l-35 -41h-61l-35 41c-10 12 -19 29 -26 44h-1c1 -20 2 -42 2 -61v-142h-181v438h160l82 -108c10 -13 21 -31 30 -48h1c8 17 19 34 29 48l81 108h160v-438zM551 640h-112v-321h-189v321h-113v117h414v-117z
" />
    <glyph glyph-name="Eth" unicode="&#xd0;" horiz-adv-x="834" 
d="M872 487c0 -36 -4 -76 -12 -121l-4 -23c-53 -297 -198 -364 -477 -364c-116 0 -215 6 -324 21l50 284h-46l32 183h46l49 276c113 15 215 21 331 21c236 0 355 -77 355 -277zM557 504c0 39 -16 46 -60 46h-28l-15 -83h51l-32 -183h-50l-16 -91h28c72 0 77 25 102 170l4 23
c10 56 16 93 16 118z" />
    <glyph glyph-name="onehalf" unicode="&#xbd;" horiz-adv-x="1182" 
d="M1058 748l-662 -748h-234l663 748h233zM386 304h-293l20 116l47 5l29 167l-49 -16l24 131l110 44h143l-57 -326l46 -5zM810 337l17 99c71 19 149 23 194 23c134 0 189 -41 189 -113c0 -92 -82 -127 -165 -158c-75 -29 -78 -31 -84 -59l-1 -5h198l-21 -124h-392l9 54
c21 124 69 168 170 216c47 22 80 32 80 56c0 11 -6 16 -44 16c-49 0 -132 -4 -150 -5z" />
    <glyph glyph-name="plusminus" unicode="&#xb1;" horiz-adv-x="639" 
d="M664 0h-559v147h559v-147zM664 352h-169v-150h-220v150h-169v203h169v149h220v-149h169v-203z" />
    <glyph glyph-name="Thorn" unicode="&#xde;" horiz-adv-x="821" 
d="M869 433c0 -19 -1 -40 -6 -67c-41 -235 -237 -255 -419 -255c-20 0 -28 0 -57 1l-19 -112h-313l131 743h313l-15 -82h12c221 0 373 -48 373 -228zM552 412c0 30 -20 39 -61 39c-16 0 -35 -1 -45 -2l-21 -124c10 -1 27 -1 44 -1c48 0 73 18 80 62c2 13 3 21 3 26z" />
    <glyph glyph-name="onequarter" unicode="&#xbc;" horiz-adv-x="1090" 
d="M1058 748l-662 -748h-234l663 748h233zM386 304h-293l20 116l47 5l29 167l-49 -16l24 131l110 44h143l-57 -326l46 -5zM1011 0h-197l14 82h-195l18 102l294 263h144l-44 -253h47l-20 -112h-47zM861 194l14 81l-82 -81h68z" />
    <glyph glyph-name="divide" unicode="&#xf7;" horiz-adv-x="639" 
d="M528 23h-288v178h288v-178zM659 481v-202h-550v202h550zM528 558h-288v178h288v-178z" />
    <glyph glyph-name="brokenbar" unicode="&#xa6;" horiz-adv-x="436" 
d="M431 -194h-301v382h301v-382zM431 743v-383h-301v383h301z" />
    <glyph glyph-name="degree" unicode="&#xb0;" horiz-adv-x="399" 
d="M478 613c0 -86 -75 -155 -167 -155c-93 0 -168 69 -168 155c0 85 75 154 168 154c92 0 167 -69 167 -154zM368 613c0 31 -26 55 -58 55c-31 0 -57 -24 -57 -55s26 -54 57 -54c32 0 58 23 58 54z" />
    <glyph glyph-name="thorn" unicode="&#xfe;" horiz-adv-x="769" 
d="M800 437c0 -39 -10 -112 -21 -177c-36 -202 -151 -275 -360 -275c-27 0 -57 2 -66 2l-32 -181h-301l173 980h273l-40 -226c66 38 131 50 177 50c144 0 197 -57 197 -173zM497 380c0 26 -11 32 -38 32c-8 0 -26 -1 -36 -4l-39 -224c8 -1 18 -1 29 -1c45 0 54 14 68 92
c13 73 16 92 16 105z" />
    <glyph glyph-name="threequarters" unicode="&#xbe;" horiz-adv-x="1169" 
d="M1131 748l-663 -748h-234l663 748h234zM542 648c0 -51 -21 -90 -70 -117c27 -14 35 -47 35 -77c0 -128 -76 -161 -237 -161c-72 0 -148 11 -183 25l17 98c18 -1 116 -3 160 -3c35 0 50 4 50 43c0 17 -13 20 -49 20h-110l18 106h111c46 0 59 7 59 44c0 17 -11 19 -39 19
c-55 0 -99 -2 -160 -4l17 97c44 15 120 26 192 26c126 0 189 -35 189 -116zM1089 0h-197l14 82h-195l18 102l294 263h144l-44 -253h47l-20 -112h-47zM939 194l14 81l-82 -81h68z" />
    <glyph glyph-name="two.superior" unicode="&#xb2;" horiz-adv-x="468" 
d="M160 682l17 99c71 19 149 23 194 23c134 0 189 -41 189 -113c0 -92 -82 -127 -165 -158c-75 -29 -78 -31 -84 -59l-1 -5h198l-21 -124h-392l9 54c21 124 69 168 170 216c47 22 80 32 80 56c0 11 -6 16 -44 16c-49 0 -132 -4 -150 -5z" />
    <glyph glyph-name="registered" unicode="&#xae;" horiz-adv-x="647" 
d="M699 472c0 -188 -120 -304 -291 -304c-172 0 -291 116 -291 304c0 187 119 304 291 304c171 0 291 -117 291 -304zM602 472c0 136 -76 221 -194 221s-194 -85 -194 -221s76 -222 194 -222s194 86 194 222zM547 335h-105l-41 91h-21v-91h-99v280c50 5 86 6 114 6
c77 0 139 -17 139 -99v-5c0 -41 -21 -62 -40 -73zM435 518v4c0 25 -15 27 -55 27v-59c42 0 55 0 55 28z" />
    <glyph glyph-name="minus" unicode="&#x2212;" horiz-adv-x="639" 
d="M659 279h-550v202h550v-202z" />
    <glyph glyph-name="eth" unicode="&#xf0;" horiz-adv-x="736" 
d="M772 421c0 -29 -2 -58 -14 -126c-41 -235 -174 -311 -389 -311c-187 0 -290 71 -290 224c0 23 2 48 11 100c39 218 181 270 378 270c7 0 17 -1 27 -2c-23 35 -66 57 -122 69l-99 -77l-46 48l54 43c-14 1 -28 2 -41 2c-15 0 -24 0 -41 -1l24 135c33 3 69 4 96 4
c48 0 91 -4 128 -11l80 62l47 -48l-42 -34c165 -53 239 -194 239 -347zM465 348c0 24 -9 32 -26 32c-27 0 -39 -17 -51 -81c-10 -55 -11 -73 -11 -86c0 -26 8 -32 26 -32c26 0 37 15 58 132c2 11 4 26 4 35z" />
    <glyph glyph-name="multiply" unicode="&#xd7;" horiz-adv-x="639" 
d="M674 247l-147 -135l-142 131l-142 -132l-148 135l143 132l-141 131l147 135l141 -131l142 131l147 -136l-142 -130z" />
    <glyph glyph-name="three.superior" unicode="&#xb3;" horiz-adv-x="463" 
d="M540 688c0 -51 -21 -90 -70 -117c27 -14 35 -47 35 -77c0 -128 -76 -161 -237 -161c-72 0 -148 11 -183 25l17 98c18 -1 116 -3 160 -3c35 0 50 4 50 43c0 17 -13 20 -49 20h-110l18 106h111c46 0 59 7 59 44c0 17 -11 19 -39 19c-55 0 -99 -2 -160 -4l17 97
c44 15 120 26 192 26c126 0 189 -35 189 -116z" />
    <glyph glyph-name="copyright" unicode="&#xa9;" horiz-adv-x="879" 
d="M911 371c0 -269 -171 -403 -407 -403s-407 134 -407 403c0 268 171 403 407 403s407 -134 407 -403zM797 371c0 198 -119 305 -293 305s-291 -107 -291 -305s117 -305 291 -305s293 107 293 305zM522 151c-156 0 -214 78 -214 200v39c0 122 58 200 214 200
c43 0 97 -9 119 -17v-107c-43 2 -72 3 -97 3c-39 0 -58 -17 -58 -79v-39c0 -62 19 -79 58 -79c25 0 54 1 97 3v-107c-22 -8 -76 -17 -119 -17z" />
    <glyph glyph-name="Aacute" unicode="&#xc1;" horiz-adv-x="875" 
d="M860 0h-340l4 119h-128l-37 -119h-344l283 743h536zM537 313l2 173c0 31 3 74 6 105h-2c-9 -31 -22 -74 -32 -105l-57 -173h83zM913 925l-215 -136h-272l157 136h330z" />
    <glyph glyph-name="Acircumflex" unicode="&#xc2;" horiz-adv-x="875" 
d="M860 0h-340l4 119h-128l-37 -119h-344l283 743h536zM537 313l2 173c0 31 3 74 6 105h-2c-9 -31 -22 -74 -32 -105l-57 -173h83zM881 789h-241l-49 54l-70 -54h-251l159 136h342z" />
    <glyph glyph-name="Adieresis" unicode="&#xc4;" horiz-adv-x="875" 
d="M860 0h-340l4 119h-128l-37 -119h-344l283 743h536zM537 313l2 173c0 31 3 74 6 105h-2c-9 -31 -22 -74 -32 -105l-57 -173h83zM859 927l-24 -138h-228l24 138h228zM338 927h228l-24 -138h-228z" />
    <glyph glyph-name="Agrave" unicode="&#xc0;" horiz-adv-x="875" 
d="M860 0h-340l4 119h-128l-37 -119h-344l283 743h536zM537 313l2 173c0 31 3 74 6 105h-2c-9 -31 -22 -74 -32 -105l-57 -173h83zM750 789h-266l-168 136h326z" />
    <glyph glyph-name="Aring" unicode="&#xc5;" horiz-adv-x="875" 
d="M860 0h-340l4 119h-128l-37 -119h-344l283 743h536zM537 313l2 173c0 31 3 74 6 105h-2c-9 -31 -22 -74 -32 -105l-57 -173h83zM760 916c0 -82 -75 -137 -181 -137s-182 55 -182 137c0 83 76 138 182 138s181 -55 181 -138zM634 917c0 24 -21 40 -55 40
c-33 0 -55 -16 -55 -40s21 -40 55 -40s55 16 55 40z" />
    <glyph glyph-name="Atilde" unicode="&#xc3;" horiz-adv-x="875" 
d="M860 0h-340l4 119h-128l-37 -119h-344l283 743h536zM537 313l2 173c0 31 3 74 6 105h-2c-9 -31 -22 -74 -32 -105l-57 -173h83zM872 956c-17 -147 -110 -169 -171 -169c-22 0 -65 2 -116 18l-53 17c-21 7 -37 10 -48 11c-19 0 -26 -9 -32 -44h-149
c17 149 109 170 177 170c27 0 59 -4 107 -18l54 -16c22 -7 34 -12 51 -12c18 0 29 8 32 43h148z" />
    <glyph glyph-name="Ccedilla" unicode="&#xc7;" horiz-adv-x="705" 
d="M800 739l-36 -204c-56 4 -128 7 -198 7c-65 0 -99 -13 -123 -150l-7 -40c-6 -33 -9 -59 -9 -79c0 -65 30 -72 80 -72c70 0 141 3 199 7l-36 -204c-49 -15 -198 -25 -250 -25c-227 0 -327 79 -327 263c0 39 4 82 13 130l7 40c48 277 170 352 445 352c52 0 197 -10 242 -25
zM548 -56l-149 -138h-260l113 138h296z" />
    <glyph glyph-name="Eacute" unicode="&#xc9;" horiz-adv-x="701" 
d="M792 743l-36 -202h-276l-13 -74h254l-33 -186h-254l-14 -79h276l-35 -202h-606l131 743h606zM849 925l-215 -136h-272l157 136h330z" />
    <glyph glyph-name="Ecircumflex" unicode="&#xca;" horiz-adv-x="701" 
d="M792 743l-36 -202h-276l-13 -74h254l-33 -186h-254l-14 -79h276l-35 -202h-606l131 743h606zM804 789h-241l-49 54l-70 -54h-251l159 136h342z" />
    <glyph glyph-name="Edieresis" unicode="&#xcb;" horiz-adv-x="701" 
d="M792 743l-36 -202h-276l-13 -74h254l-33 -186h-254l-14 -79h276l-35 -202h-606l131 743h606zM779 927l-24 -138h-228l24 138h228zM258 927h228l-24 -138h-228z" />
    <glyph glyph-name="Egrave" unicode="&#xc8;" horiz-adv-x="701" 
d="M792 743l-36 -202h-276l-13 -74h254l-33 -186h-254l-14 -79h276l-35 -202h-606l131 743h606zM640 789h-266l-168 136h326z" />
    <glyph glyph-name="Iacute" unicode="&#xcd;" horiz-adv-x="440" 
d="M516 743l-131 -743h-330l131 743h330zM700 926l-215 -136h-272l157 136h330z" />
    <glyph glyph-name="Icircumflex" unicode="&#xce;" horiz-adv-x="440" 
d="M516 743l-131 -743h-330l131 743h330zM659 789h-241l-49 54l-70 -54h-251l159 136h342z" />
    <glyph glyph-name="Idieresis" unicode="&#xcf;" horiz-adv-x="440" 
d="M516 743l-131 -743h-330l131 743h330zM645 927l-24 -138h-228l24 138h228zM124 927h228l-24 -138h-228z" />
    <glyph glyph-name="Igrave" unicode="&#xcc;" horiz-adv-x="440" 
d="M516 743l-131 -743h-330l131 743h330zM510 790h-266l-168 136h326z" />
    <glyph glyph-name="Ntilde" unicode="&#xd1;" horiz-adv-x="882" 
d="M958 743l-131 -743h-290l-107 207c-13 26 -22 52 -28 72h-3c-5 -26 -9 -52 -14 -78l-35 -201h-295l131 743h280l116 -208c14 -26 23 -53 30 -79h2c0 7 5 41 13 84l36 203h295zM864 957c-17 -147 -110 -169 -171 -169c-22 0 -65 2 -116 18l-53 17c-21 7 -37 10 -48 11
c-19 0 -26 -9 -32 -44h-149c17 149 109 170 177 170c27 0 59 -4 107 -18l54 -16c22 -7 34 -12 51 -12c18 0 29 8 32 43h148z" />
    <glyph glyph-name="Oacute" unicode="&#xd3;" horiz-adv-x="837" 
d="M871 477c0 -32 -3 -67 -9 -106l-6 -39c-48 -313 -234 -353 -439 -353c-178 0 -321 61 -321 286c0 32 3 68 9 107l6 39c48 315 238 353 438 353c182 0 322 -64 322 -287zM557 495c0 37 -12 48 -44 48c-49 0 -64 -31 -84 -153l-6 -37c-8 -47 -13 -80 -13 -103
c0 -39 13 -49 43 -49c48 0 64 25 85 152l6 37c8 48 13 82 13 105zM899 925l-215 -136h-272l157 136h330z" />
    <glyph glyph-name="Ocircumflex" unicode="&#xd4;" horiz-adv-x="837" 
d="M871 477c0 -32 -3 -67 -9 -106l-6 -39c-48 -313 -234 -353 -439 -353c-178 0 -321 61 -321 286c0 32 3 68 9 107l6 39c48 315 238 353 438 353c182 0 322 -64 322 -287zM557 495c0 37 -12 48 -44 48c-49 0 -64 -31 -84 -153l-6 -37c-8 -47 -13 -80 -13 -103
c0 -39 13 -49 43 -49c48 0 64 25 85 152l6 37c8 48 13 82 13 105zM862 789h-241l-49 54l-70 -54h-251l159 136h342z" />
    <glyph glyph-name="Odieresis" unicode="&#xd6;" horiz-adv-x="837" 
d="M871 477c0 -32 -3 -67 -9 -106l-6 -39c-48 -313 -234 -353 -439 -353c-178 0 -321 61 -321 286c0 32 3 68 9 107l6 39c48 315 238 353 438 353c182 0 322 -64 322 -287zM557 495c0 37 -12 48 -44 48c-49 0 -64 -31 -84 -153l-6 -37c-8 -47 -13 -80 -13 -103
c0 -39 13 -49 43 -49c48 0 64 25 85 152l6 37c8 48 13 82 13 105zM834 927l-24 -138h-228l24 138h228zM313 927h228l-24 -138h-228z" />
    <glyph glyph-name="Ograve" unicode="&#xd2;" horiz-adv-x="837" 
d="M871 477c0 -32 -3 -67 -9 -106l-6 -39c-48 -313 -234 -353 -439 -353c-178 0 -321 61 -321 286c0 32 3 68 9 107l6 39c48 315 238 353 438 353c182 0 322 -64 322 -287zM557 495c0 37 -12 48 -44 48c-49 0 -64 -31 -84 -153l-6 -37c-8 -47 -13 -80 -13 -103
c0 -39 13 -49 43 -49c48 0 64 25 85 152l6 37c8 48 13 82 13 105zM743 790h-266l-168 136h326z" />
    <glyph glyph-name="Otilde" unicode="&#xd5;" horiz-adv-x="837" 
d="M871 477c0 -32 -3 -67 -9 -106l-6 -39c-48 -313 -234 -353 -439 -353c-178 0 -321 61 -321 286c0 32 3 68 9 107l6 39c48 315 238 353 438 353c182 0 322 -64 322 -287zM557 495c0 37 -12 48 -44 48c-49 0 -64 -31 -84 -153l-6 -37c-8 -47 -13 -80 -13 -103
c0 -39 13 -49 43 -49c48 0 64 25 85 152l6 37c8 48 13 82 13 105zM842 956c-17 -147 -110 -169 -171 -169c-22 0 -65 2 -116 18l-53 17c-21 7 -37 10 -48 11c-19 0 -26 -9 -32 -44h-149c17 149 109 170 177 170c27 0 59 -4 107 -18l54 -16c22 -7 34 -12 51 -12
c18 0 29 8 32 43h148z" />
    <glyph glyph-name="Scaron" unicode="&#x160;" horiz-adv-x="738" 
d="M798 733l-32 -178c-103 7 -155 12 -254 12c-20 0 -66 0 -66 -27c0 -16 12 -23 54 -40l67 -28c121 -51 183 -108 183 -213c0 -208 -167 -280 -375 -280c-127 0 -243 11 -319 27l32 185c71 -4 137 -11 266 -11c24 0 65 4 65 33c0 19 -13 26 -59 46l-73 32
c-95 42 -166 94 -166 216c0 218 201 257 406 257c113 0 205 -17 271 -31zM234 925h241l51 -53l68 53h251l-158 -136h-342z" />
    <glyph glyph-name="Uacute" unicode="&#xda;" horiz-adv-x="860" 
d="M941 743l-83 -472c-37 -210 -178 -292 -425 -292c-222 0 -336 93 -336 243c0 41 3 64 9 99l75 422h324l-80 -452c-4 -24 -7 -44 -7 -58c0 -30 12 -41 45 -41c50 0 62 24 75 99l80 452h323zM897 925l-215 -136h-272l157 136h330z" />
    <glyph glyph-name="Ucircumflex" unicode="&#xdb;" horiz-adv-x="860" 
d="M941 743l-83 -472c-37 -210 -178 -292 -425 -292c-222 0 -336 93 -336 243c0 41 3 64 9 99l75 422h324l-80 -452c-4 -24 -7 -44 -7 -58c0 -30 12 -41 45 -41c50 0 62 24 75 99l80 452h323zM869 789h-241l-49 54l-70 -54h-251l159 136h342z" />
    <glyph glyph-name="Udieresis" unicode="&#xdc;" horiz-adv-x="860" 
d="M941 743l-83 -472c-37 -210 -178 -292 -425 -292c-222 0 -336 93 -336 243c0 41 3 64 9 99l75 422h324l-80 -452c-4 -24 -7 -44 -7 -58c0 -30 12 -41 45 -41c50 0 62 24 75 99l80 452h323zM856 927l-24 -138h-228l24 138h228zM335 927h228l-24 -138h-228z" />
    <glyph glyph-name="Ugrave" unicode="&#xd9;" horiz-adv-x="860" 
d="M941 743l-83 -472c-37 -210 -178 -292 -425 -292c-222 0 -336 93 -336 243c0 41 3 64 9 99l75 422h324l-80 -452c-4 -24 -7 -44 -7 -58c0 -30 12 -41 45 -41c50 0 62 24 75 99l80 452h323zM741 789h-266l-168 136h326z" />
    <glyph glyph-name="Yacute" unicode="&#xdd;" horiz-adv-x="824" 
d="M950 743l-338 -507l-41 -236h-318l41 236l-158 507h319l23 -138c5 -33 9 -74 13 -109h3c16 35 35 76 52 109l74 138h330zM887 925l-215 -136h-272l157 136h330z" />
    <glyph glyph-name="Ydieresis" unicode="&#x178;" horiz-adv-x="824" 
d="M950 743l-338 -507l-41 -236h-318l41 236l-158 507h319l23 -138c5 -33 9 -74 13 -109h3c16 35 35 76 52 109l74 138h330zM825 927l-24 -138h-228l24 138h228zM304 927h228l-24 -138h-228z" />
    <glyph glyph-name="Zcaron" unicode="&#x17d;" horiz-adv-x="708" 
d="M793 743l-35 -197l-285 -337h226l-36 -209h-618l33 192l286 342h-224l37 209h616zM226 925h241l51 -53l68 53h251l-158 -136h-342z" />
    <glyph glyph-name="aacute" unicode="&#xe1;" horiz-adv-x="768" 
d="M713 0h-273l5 31c-53 -31 -105 -46 -180 -46c-121 0 -188 73 -188 210c0 30 4 63 10 99l7 40c37 212 126 276 427 276c90 0 190 -5 296 -15zM448 186l40 225c-8 1 -21 1 -31 1c-44 0 -52 -15 -66 -93l-7 -40c-5 -29 -8 -49 -8 -63c0 -26 10 -33 37 -33c12 0 28 2 35 3z
M834 786l-215 -136h-272l157 136h330z" />
    <glyph glyph-name="acircumflex" unicode="&#xe2;" horiz-adv-x="768" 
d="M713 0h-273l5 31c-53 -31 -105 -46 -180 -46c-121 0 -188 73 -188 210c0 30 4 63 10 99l7 40c37 212 126 276 427 276c90 0 190 -5 296 -15zM448 186l40 225c-8 1 -21 1 -31 1c-44 0 -52 -15 -66 -93l-7 -40c-5 -29 -8 -49 -8 -63c0 -26 10 -33 37 -33c12 0 28 2 35 3z
M785 650h-241l-49 54l-70 -54h-251l159 136h342z" />
    <glyph glyph-name="adieresis" unicode="&#xe4;" horiz-adv-x="768" 
d="M713 0h-273l5 31c-53 -31 -105 -46 -180 -46c-121 0 -188 73 -188 210c0 30 4 63 10 99l7 40c37 212 126 276 427 276c90 0 190 -5 296 -15zM448 186l40 225c-8 1 -21 1 -31 1c-44 0 -52 -15 -66 -93l-7 -40c-5 -29 -8 -49 -8 -63c0 -26 10 -33 37 -33c12 0 28 2 35 3z
M762 786l-24 -138h-228l24 138h228zM241 786h228l-24 -138h-228z" />
    <glyph glyph-name="agrave" unicode="&#xe0;" horiz-adv-x="768" 
d="M713 0h-273l5 31c-53 -31 -105 -46 -180 -46c-121 0 -188 73 -188 210c0 30 4 63 10 99l7 40c37 212 126 276 427 276c90 0 190 -5 296 -15zM448 186l40 225c-8 1 -21 1 -31 1c-44 0 -52 -15 -66 -93l-7 -40c-5 -29 -8 -49 -8 -63c0 -26 10 -33 37 -33c12 0 28 2 35 3z
M657 650h-266l-168 136h326z" />
    <glyph glyph-name="aring" unicode="&#xe5;" horiz-adv-x="768" 
d="M713 0h-273l5 31c-53 -31 -105 -46 -180 -46c-121 0 -188 73 -188 210c0 30 4 63 10 99l7 40c37 212 126 276 427 276c90 0 190 -5 296 -15zM448 186l40 225c-8 1 -21 1 -31 1c-44 0 -52 -15 -66 -93l-7 -40c-5 -29 -8 -49 -8 -63c0 -26 10 -33 37 -33c12 0 28 2 35 3z
M670 772c0 -82 -75 -137 -181 -137s-182 55 -182 137c0 83 76 138 182 138s181 -55 181 -138zM544 773c0 24 -21 40 -55 40c-33 0 -55 -16 -55 -40s21 -40 55 -40s55 16 55 40z" />
    <glyph glyph-name="atilde" unicode="&#xe3;" horiz-adv-x="768" 
d="M713 0h-273l5 31c-53 -31 -105 -46 -180 -46c-121 0 -188 73 -188 210c0 30 4 63 10 99l7 40c37 212 126 276 427 276c90 0 190 -5 296 -15zM448 186l40 225c-8 1 -21 1 -31 1c-44 0 -52 -15 -66 -93l-7 -40c-5 -29 -8 -49 -8 -63c0 -26 10 -33 37 -33c12 0 28 2 35 3z
M772 814c-17 -147 -110 -169 -171 -169c-22 0 -65 2 -116 18l-53 17c-21 7 -37 10 -48 11c-19 0 -26 -9 -32 -44h-149c17 149 109 170 177 170c27 0 59 -4 107 -18l54 -16c22 -7 34 -12 51 -12c18 0 29 8 32 43h148z" />
    <glyph glyph-name="ccedilla" unicode="&#xe7;" horiz-adv-x="616" 
d="M683 584l-31 -180c-88 3 -137 5 -178 5c-56 0 -69 -10 -85 -91l-8 -41c-4 -21 -6 -37 -6 -50c0 -37 18 -43 59 -43s91 2 180 5l-32 -179c-56 -12 -137 -26 -244 -26c-178 0 -262 78 -262 220c0 28 3 58 10 91l8 41c40 205 141 274 354 274c107 0 184 -14 235 -26z
M495 -56l-149 -138h-260l113 138h296z" />
    <glyph glyph-name="eacute" unicode="&#xe9;" horiz-adv-x="723" 
d="M757 374c0 -35 -4 -70 -17 -140h-367l-1 -6c-2 -11 -3 -20 -3 -27c0 -24 16 -25 77 -25c54 0 85 0 247 3l-29 -166c-56 -12 -158 -29 -281 -29c-177 0 -304 52 -304 227c0 27 3 58 9 91l3 17c41 231 174 291 389 291c226 0 277 -118 277 -236zM480 395
c0 28 -12 36 -34 36c-28 0 -41 -16 -51 -72l-1 -6h81c4 20 5 33 5 42zM824 786l-215 -136h-272l157 136h330z" />
    <glyph glyph-name="ecircumflex" unicode="&#xea;" horiz-adv-x="723" 
d="M757 374c0 -35 -4 -70 -17 -140h-367l-1 -6c-2 -11 -3 -20 -3 -27c0 -24 16 -25 77 -25c54 0 85 0 247 3l-29 -166c-56 -12 -158 -29 -281 -29c-177 0 -304 52 -304 227c0 27 3 58 9 91l3 17c41 231 174 291 389 291c226 0 277 -118 277 -236zM480 395
c0 28 -12 36 -34 36c-28 0 -41 -16 -51 -72l-1 -6h81c4 20 5 33 5 42zM776 650h-241l-49 54l-70 -54h-251l159 136h342z" />
    <glyph glyph-name="edieresis" unicode="&#xeb;" horiz-adv-x="723" 
d="M757 374c0 -35 -4 -70 -17 -140h-367l-1 -6c-2 -11 -3 -20 -3 -27c0 -24 16 -25 77 -25c54 0 85 0 247 3l-29 -166c-56 -12 -158 -29 -281 -29c-177 0 -304 52 -304 227c0 27 3 58 9 91l3 17c41 231 174 291 389 291c226 0 277 -118 277 -236zM480 395
c0 28 -12 36 -34 36c-28 0 -41 -16 -51 -72l-1 -6h81c4 20 5 33 5 42zM752 788l-24 -138h-228l24 138h228zM231 788h228l-24 -138h-228z" />
    <glyph glyph-name="egrave" unicode="&#xe8;" horiz-adv-x="723" 
d="M757 374c0 -35 -4 -70 -17 -140h-367l-1 -6c-2 -11 -3 -20 -3 -27c0 -24 16 -25 77 -25c54 0 85 0 247 3l-29 -166c-56 -12 -158 -29 -281 -29c-177 0 -304 52 -304 227c0 27 3 58 9 91l3 17c41 231 174 291 389 291c226 0 277 -118 277 -236zM480 395
c0 28 -12 36 -34 36c-28 0 -41 -16 -51 -72l-1 -6h81c4 20 5 33 5 42zM657 650h-266l-168 136h326z" />
    <glyph glyph-name="iacute" unicode="&#xed;" horiz-adv-x="411" 
d="M672 786l-215 -136h-272l157 136h330zM356 0h-301l104 595h301z" />
    <glyph glyph-name="icircumflex" unicode="&#xee;" horiz-adv-x="411" 
d="M356 0h-301l104 595h301zM613 650h-241l-49 54l-70 -54h-251l159 136h342z" />
    <glyph glyph-name="idieresis" unicode="&#xef;" horiz-adv-x="411" 
d="M602 786l-24 -138h-228l24 138h228zM81 786h228l-24 -138h-228zM356 0h-301l104 595h301z" />
    <glyph glyph-name="igrave" unicode="&#xec;" horiz-adv-x="411" 
d="M488 650h-266l-168 136h326zM356 0h-301l104 595h301z" />
    <glyph glyph-name="ntilde" unicode="&#xf1;" horiz-adv-x="784" 
d="M734 0h-301l65 373c6 32 0 41 -24 41c-17 0 -41 -8 -48 -12l-70 -402h-301l104 595h276l-8 -50c56 40 133 65 203 65c211 0 189 -126 169 -237zM805 802c-23 -132 -118 -157 -179 -157c-22 0 -55 2 -106 18l-53 17c-21 6 -37 11 -48 11c-19 0 -26 -9 -30 -31l-2 -13h-149
l2 13c23 132 117 157 185 157c27 0 49 -3 97 -18l54 -16c22 -6 34 -12 51 -12c18 0 26 8 30 31l2 12h148z" />
    <glyph glyph-name="oacute" unicode="&#xf3;" horiz-adv-x="736" 
d="M762 383c-2 -24 -3 -51 -8 -80l-8 -42c-39 -221 -178 -277 -371 -277c-185 0 -296 65 -296 228c0 24 1 50 7 79l8 42c39 221 179 277 370 277c186 0 298 -64 298 -227zM465 378c0 27 -9 34 -26 34c-27 0 -36 -15 -51 -94l-8 -42c-5 -28 -7 -48 -7 -62c0 -26 8 -33 25 -33
c27 0 37 16 52 95l8 42c5 27 7 46 7 60zM810 786l-215 -136h-272l157 136h330z" />
    <glyph glyph-name="ocircumflex" unicode="&#xf4;" horiz-adv-x="736" 
d="M762 383c-2 -24 -3 -51 -8 -80l-8 -42c-39 -221 -178 -277 -371 -277c-185 0 -296 65 -296 228c0 24 1 50 7 79l8 42c39 221 179 277 370 277c186 0 298 -64 298 -227zM465 378c0 27 -9 34 -26 34c-27 0 -36 -15 -51 -94l-8 -42c-5 -28 -7 -48 -7 -62c0 -26 8 -33 25 -33
c27 0 37 16 52 95l8 42c5 27 7 46 7 60zM789 650h-241l-49 54l-70 -54h-251l159 136h342z" />
    <glyph glyph-name="odieresis" unicode="&#xf6;" horiz-adv-x="736" 
d="M762 383c-2 -24 -3 -51 -8 -80l-8 -42c-39 -221 -178 -277 -371 -277c-185 0 -296 65 -296 228c0 24 1 50 7 79l8 42c39 221 179 277 370 277c186 0 298 -64 298 -227zM465 378c0 27 -9 34 -26 34c-27 0 -36 -15 -51 -94l-8 -42c-5 -28 -7 -48 -7 -62c0 -26 8 -33 25 -33
c27 0 37 16 52 95l8 42c5 27 7 46 7 60zM763 786l-24 -138h-228l24 138h228zM242 786h228l-24 -138h-228z" />
    <glyph glyph-name="ograve" unicode="&#xf2;" horiz-adv-x="736" 
d="M762 383c-2 -24 -3 -51 -8 -80l-8 -42c-39 -221 -178 -277 -371 -277c-185 0 -296 65 -296 228c0 24 1 50 7 79l8 42c39 221 179 277 370 277c186 0 298 -64 298 -227zM465 378c0 27 -9 34 -26 34c-27 0 -36 -15 -51 -94l-8 -42c-5 -28 -7 -48 -7 -62c0 -26 8 -33 25 -33
c27 0 37 16 52 95l8 42c5 27 7 46 7 60zM654 650h-266l-168 136h326z" />
    <glyph glyph-name="otilde" unicode="&#xf5;" horiz-adv-x="736" 
d="M762 383c-2 -24 -3 -51 -8 -80l-8 -42c-39 -221 -178 -277 -371 -277c-185 0 -296 65 -296 228c0 24 1 50 7 79l8 42c39 221 179 277 370 277c186 0 298 -64 298 -227zM465 378c0 27 -9 34 -26 34c-27 0 -36 -15 -51 -94l-8 -42c-5 -28 -7 -48 -7 -62c0 -26 8 -33 25 -33
c27 0 37 16 52 95l8 42c5 27 7 46 7 60zM773 814c-17 -147 -110 -169 -171 -169c-22 0 -65 2 -116 18l-53 17c-21 7 -37 10 -48 11c-19 0 -26 -9 -32 -44h-149c17 149 109 170 177 170c27 0 59 -4 107 -18l54 -16c22 -7 34 -12 51 -12c18 0 29 8 32 43h148z" />
    <glyph glyph-name="scaron" unicode="&#x161;" horiz-adv-x="634" 
d="M676 583l-26 -147c-82 6 -175 10 -214 10c-20 0 -41 0 -41 -17c0 -15 11 -17 39 -27l61 -22c98 -35 145 -83 145 -166c0 -193 -177 -229 -360 -229c-85 0 -185 11 -236 22l26 151c20 -1 123 -8 220 -8c26 0 51 0 51 23c0 18 -10 19 -45 32l-49 18
c-88 32 -148 81 -148 178c0 182 159 209 326 209c99 0 194 -11 251 -27zM147 786h241l51 -53l68 53h251l-158 -136h-342z" />
    <glyph glyph-name="uacute" unicode="&#xfa;" 
d="M838 595l-104 -595h-276l8 50c-46 -33 -121 -66 -214 -66c-137 0 -167 74 -167 153c0 34 6 70 11 100l63 358h301l-65 -373c-1 -8 -2 -15 -2 -20c0 -16 7 -21 26 -21c16 0 41 8 47 11l71 403h301zM853 786l-215 -136h-272l157 136h330z" />
    <glyph glyph-name="ucircumflex" unicode="&#xfb;" 
d="M838 595l-104 -595h-276l8 50c-46 -33 -121 -66 -214 -66c-137 0 -167 74 -167 153c0 34 6 70 11 100l63 358h301l-65 -373c-1 -8 -2 -15 -2 -20c0 -16 7 -21 26 -21c16 0 41 8 47 11l71 403h301zM818 650h-241l-49 54l-70 -54h-251l159 136h342z" />
    <glyph glyph-name="udieresis" unicode="&#xfc;" 
d="M838 595l-104 -595h-276l8 50c-46 -33 -121 -66 -214 -66c-137 0 -167 74 -167 153c0 34 6 70 11 100l63 358h301l-65 -373c-1 -8 -2 -15 -2 -20c0 -16 7 -21 26 -21c16 0 41 8 47 11l71 403h301zM794 786l-24 -138h-228l24 138h228zM273 786h228l-24 -138h-228z" />
    <glyph glyph-name="ugrave" unicode="&#xf9;" 
d="M838 595l-104 -595h-276l8 50c-46 -33 -121 -66 -214 -66c-137 0 -167 74 -167 153c0 34 6 70 11 100l63 358h301l-65 -373c-1 -8 -2 -15 -2 -20c0 -16 7 -21 26 -21c16 0 41 8 47 11l71 403h301zM675 650h-266l-168 136h326z" />
    <glyph glyph-name="yacute" unicode="&#xfd;" horiz-adv-x="768" 
d="M857 595l-236 -544c-90 -208 -193 -259 -362 -259c-84 0 -171 5 -238 18l29 162c57 -1 79 -1 113 -1c24 0 38 4 44 22l7 20l-95 582h313l-7 -273c-1 -50 -5 -115 -9 -158h2c12 43 29 99 48 158l87 273h304zM838 786l-215 -136h-272l157 136h330z" />
    <glyph glyph-name="ydieresis" unicode="&#xff;" horiz-adv-x="768" 
d="M857 595l-236 -544c-90 -208 -193 -259 -362 -259c-84 0 -171 5 -238 18l29 162c57 -1 79 -1 113 -1c24 0 38 4 44 22l7 20l-95 582h313l-7 -273c-1 -50 -5 -115 -9 -158h2c12 43 29 99 48 158l87 273h304zM784 786l-24 -138h-228l24 138h228zM263 786h228l-24 -138h-228
z" />
    <glyph glyph-name="zcaron" unicode="&#x17e;" horiz-adv-x="639" 
d="M702 595l-30 -175l-243 -236h202l-32 -184h-559l28 162l257 247h-210l32 186h555zM157 786h241l51 -53l68 53h251l-158 -136h-342z" />
    <glyph glyph-name="dollar.oldstyle" horiz-adv-x="752" 
d="M53 3l30 172c89 -5 149 -8 248 -8c32 0 60 0 60 21c0 14 -11 19 -64 37l-52 18c-96 33 -168 80 -168 192c0 144 110 208 250 223l15 89h228l-15 -86c66 -5 123 -15 166 -23l-28 -161c-117 5 -158 6 -248 6c-32 0 -58 0 -58 -17c0 -14 13 -19 60 -35l57 -19
c128 -43 172 -91 172 -185c0 -149 -107 -223 -240 -239l-17 -97h-228l17 92c-72 4 -135 10 -185 20z" />
    <glyph glyph-name="dollar.superior" horiz-adv-x="469" 
d="M90 343l20 111c40 -2 101 -5 161 -5c23 0 44 2 44 22c0 13 -11 17 -39 27l-42 15c-60 21 -102 63 -102 133c0 86 63 137 146 146l16 88h169l-15 -83c41 -4 78 -11 103 -16l-19 -108c-88 5 -143 5 -166 5c-24 0 -45 -2 -45 -18c0 -12 8 -15 39 -25l38 -12
c76 -24 113 -59 113 -125c0 -87 -57 -146 -144 -163l-16 -88h-169l15 84c-41 3 -77 7 -107 12z" />
    <glyph glyph-name="parenleft.superior" unicode="&#x207d;" horiz-adv-x="295" 
d="M401 795c-76 -113 -118 -252 -118 -394c0 -53 5 -100 15 -140h-146c-22 46 -37 112 -37 189c0 124 44 243 126 345h160z" />
    <glyph glyph-name="parenright.superior" unicode="&#x207e;" horiz-adv-x="295" 
d="M69 261c76 113 118 252 118 394c0 53 -5 100 -15 140h146c22 -46 37 -112 37 -189c0 -124 -44 -243 -126 -345h-160z" />
    <glyph glyph-name="twodotenleader" unicode="&#x2025;" horiz-adv-x="760" 
d="M728 0h-302l34 196h302zM368 196l-34 -196h-302l34 196h302z" />
    <glyph glyph-name="onedotenleader" unicode="&#x2024;" horiz-adv-x="367" 
d="M334 0h-302l34 196h302z" />
    <glyph glyph-name="zero.oldstyle" horiz-adv-x="808" 
d="M838 409c0 -28 -2 -59 -12 -116c-38 -217 -166 -314 -425 -314c-220 0 -317 93 -317 255c0 28 2 57 12 114c39 218 167 314 425 314c220 0 317 -91 317 -253zM511 415c0 25 -8 34 -27 34c-33 0 -42 -27 -58 -115c-11 -62 -14 -88 -14 -106c0 -26 8 -35 27 -35
c33 0 41 27 57 115c11 63 15 89 15 107z" />
    <glyph glyph-name="one.oldstyle" horiz-adv-x="709" 
d="M676 0h-644l34 194l159 10l34 192l-165 -39l39 217l264 73h235l-79 -443l157 -10z" />
    <glyph glyph-name="two.oldstyle" horiz-adv-x="742" 
d="M119 458l29 162c74 23 204 42 328 42c229 0 315 -63 315 -170c0 -143 -94 -200 -234 -254l-81 -32h249l-36 -206h-655l36 206l188 86c116 52 190 78 190 135c0 32 -20 40 -81 40c-71 0 -176 -5 -248 -9z" />
    <glyph glyph-name="three.oldstyle" horiz-adv-x="734" 
d="M722 147c0 -224 -195 -270 -398 -270c-119 0 -247 20 -305 43l30 168c72 -6 171 -10 265 -10c56 0 81 6 81 70c0 27 -20 33 -81 33h-183l32 178h185c78 0 97 14 97 74c0 27 -18 30 -63 30c-104 0 -188 -3 -268 -8l29 164c73 23 200 43 319 43c200 0 318 -51 318 -185
c0 -87 -39 -169 -119 -214c45 -24 61 -70 61 -116z" />
    <glyph glyph-name="four.oldstyle" horiz-adv-x="796" 
d="M770 40h-77l-24 -136h-329l24 136h-325l30 170l491 437h240l-75 -421h77zM418 226l24 135l-138 -135h114z" />
    <glyph glyph-name="five.oldstyle" horiz-adv-x="724" 
d="M785 648l-35 -198h-339l-17 -70h24c237 0 304 -62 304 -169c0 -260 -171 -327 -396 -327c-138 0 -244 19 -302 36l30 169c55 -4 124 -9 214 -9c78 0 100 9 109 57c3 14 3 19 3 23c0 29 -21 35 -83 35h-228l119 453h597z" />
    <glyph glyph-name="six.oldstyle" horiz-adv-x="774" 
d="M781 220c-31 -172 -152 -241 -400 -241c-243 0 -301 110 -301 235c0 36 5 72 11 108l23 133c34 197 94 309 402 309c127 0 254 -21 309 -35l-30 -172c-117 7 -159 9 -262 9c-70 0 -75 -7 -88 -71l-3 -14c17 3 50 5 70 5c187 0 278 -52 278 -187c0 -19 -2 -39 -9 -79z
M459 239c6 37 9 52 9 62c0 16 -6 23 -26 23c-10 0 -24 -2 -28 -3l-14 -79c-4 -23 -7 -40 -7 -53c0 -17 6 -25 22 -25c29 0 35 25 44 75z" />
    <glyph glyph-name="seven.oldstyle" horiz-adv-x="722" 
d="M774 440l-425 -535h-341l437 545h-337l35 198h668z" />
    <glyph glyph-name="eight.oldstyle" horiz-adv-x="805" 
d="M869 584c0 -112 -48 -163 -116 -205c40 -31 59 -79 59 -133c0 -14 -1 -29 -5 -50c-34 -193 -184 -217 -405 -217h-8c-194 0 -327 44 -327 192c0 110 37 160 117 208c-35 29 -57 73 -57 131c0 14 1 29 5 52c32 180 178 202 400 202h8c208 0 329 -42 329 -180zM493 265
c0 26 -10 36 -34 36h-8c-34 0 -46 -19 -57 -84c-2 -11 -3 -21 -3 -29c0 -22 9 -33 34 -33h8c34 0 46 20 55 68c3 17 5 31 5 42zM543 555c0 20 -8 32 -34 32h-8c-45 0 -55 -52 -55 -90c0 -22 8 -34 33 -34h8c35 0 44 23 52 64c3 15 4 22 4 28z" />
    <glyph glyph-name="nine.oldstyle" horiz-adv-x="774" 
d="M105 421c31 172 152 241 400 241c243 0 301 -110 301 -235c0 -36 -5 -72 -11 -108l-23 -133c-34 -197 -94 -309 -402 -309c-127 0 -254 21 -309 35l30 172c117 -7 159 -9 262 -9c70 0 75 7 88 71l3 14c-17 -3 -50 -5 -70 -5c-187 0 -278 52 -278 187c0 19 2 39 9 79z
M427 402c-6 -37 -9 -52 -9 -62c0 -16 6 -23 26 -23c10 0 24 2 28 3l14 79c4 23 7 40 7 53c0 17 -6 25 -22 25c-29 0 -35 -25 -44 -75z" />
    <glyph glyph-name="comma.superior" horiz-adv-x="264" 
d="M313 457l-106 -187h-133l80 187h159z" />
    <glyph glyph-name="period.superior" horiz-adv-x="243" 
d="M267 345h-179l20 112h179z" />
    <glyph glyph-name="a.superior" horiz-adv-x="450" 
d="M512 567c0 -12 -1 -25 -4 -40l-37 -213h-164l4 25c-29 -17 -69 -34 -118 -34c-60 0 -86 35 -86 85c0 9 0 18 5 43c16 89 103 89 208 89h4l3 20c1 4 1 8 1 11c0 13 -8 15 -36 15c-20 0 -87 -2 -126 -4l16 89c35 10 109 28 179 28c90 0 151 -29 151 -114zM322 459h-12
c-18 0 -24 -3 -28 -29c-2 -14 -2 -17 -2 -19c0 -10 6 -12 14 -12c6 0 12 1 18 3z" />
    <glyph glyph-name="b.superior" horiz-adv-x="470" 
d="M538 550c0 -16 -1 -34 -8 -74c-22 -135 -105 -172 -245 -172c-59 0 -112 3 -194 11l83 471h183l-19 -106c5 0 21 1 41 1c109 0 159 -44 159 -131zM356 541c0 16 -7 19 -25 19c-6 0 -12 -1 -16 -1l-23 -133c4 0 11 -1 16 -1c27 0 33 8 41 58c5 33 7 50 7 58z" />
    <glyph glyph-name="cent.superior" horiz-adv-x="435" 
d="M519 785l-24 -135c-41 3 -76 4 -98 4c-41 0 -57 -7 -69 -77l-4 -23c-3 -17 -4 -30 -4 -40c0 -32 14 -37 47 -37c17 0 69 2 98 4l-23 -136c-21 -6 -49 -11 -83 -13l-15 -85h-169l17 99c-59 21 -89 72 -89 151c0 22 2 45 7 71l4 23c21 117 73 174 157 200l16 89h169
l-15 -82c34 -3 63 -9 78 -13z" />
    <glyph glyph-name="d.superior" horiz-adv-x="472" 
d="M493 314h-166l4 23c-29 -18 -63 -33 -107 -33c-79 0 -116 47 -116 130c0 19 2 40 6 63l4 21c21 122 87 163 215 163c21 0 31 -1 40 -1l19 106h184zM332 428l23 130c-5 1 -12 1 -17 1c-27 0 -32 -8 -40 -54l-4 -21c-3 -17 -5 -29 -5 -38c0 -16 6 -20 23 -20c7 0 16 2 20 2
z" />
    <glyph glyph-name="e.superior" horiz-adv-x="453" 
d="M520 538c0 -17 -2 -32 -11 -84h-222l-1 -3c-1 -6 -2 -11 -2 -15c0 -15 9 -20 46 -20c28 0 94 0 150 3l-17 -98c-34 -7 -108 -16 -177 -16c-108 0 -179 41 -179 136c0 13 1 27 11 80c22 126 111 160 229 160c144 0 173 -74 173 -143zM351 556c0 18 -7 23 -19 23
c-17 0 -25 -10 -32 -49l-1 -6h48c3 17 4 25 4 32z" />
    <glyph glyph-name="i.superior" unicode="&#x2071;" horiz-adv-x="263" 
d="M159 672h184l-63 -358h-184zM352 700h-193l15 86h193z" />
    <glyph glyph-name="l.superior" horiz-adv-x="253" 
d="M274 314h-183l83 472h183z" />
    <glyph glyph-name="m.superior" horiz-adv-x="688" 
d="M752 581c0 -14 -1 -29 -4 -45l-39 -222h-185l40 227c1 4 1 8 1 11c0 7 -2 11 -12 11c-6 0 -15 -2 -19 -4c0 -6 -1 -12 -4 -29l-38 -216h-184l38 215c3 16 3 19 3 22c0 8 -3 12 -13 12c-6 0 -14 -3 -18 -4l-43 -245h-184l63 358h168l-5 -30c36 27 80 39 119 39
c48 0 73 -14 88 -40c43 29 89 40 123 40c76 0 105 -38 105 -100z" />
    <glyph glyph-name="n.superior" unicode="&#x207f;" horiz-adv-x="482" 
d="M547 586c0 -23 -4 -47 -8 -68l-36 -204h-184l39 224c1 4 1 7 1 10c0 9 -4 13 -15 13c-10 0 -23 -5 -27 -7l-42 -240h-184l63 358h168l-5 -31c34 25 81 40 123 40c87 0 107 -45 107 -95z" />
    <glyph glyph-name="o.superior" horiz-adv-x="455" 
d="M524 546c0 -15 -3 -32 -11 -76c-26 -135 -109 -166 -226 -166c-116 0 -180 39 -180 138c0 15 2 30 10 73c27 134 109 166 229 166c112 0 178 -39 178 -135zM341 540c0 16 -5 20 -15 20c-16 0 -22 -9 -30 -55c-8 -41 -9 -53 -9 -61c0 -15 5 -19 15 -19c15 0 22 9 30 55
c8 41 9 52 9 60z" />
    <glyph glyph-name="r.superior" horiz-adv-x="318" 
d="M154 672h166l-5 -31c43 39 90 40 114 40l-25 -138c-30 0 -59 0 -89 -1l-40 -228h-184z" />
    <glyph glyph-name="s.superior" horiz-adv-x="420" 
d="M463 441c0 -123 -112 -138 -219 -138c-52 0 -114 8 -145 14l16 88c41 -2 83 -5 133 -5c20 0 31 6 31 18c0 11 -7 15 -27 20l-28 8c-54 16 -91 51 -91 105c0 112 92 130 198 130c59 0 121 -7 156 -16l-15 -82c-59 3 -95 3 -130 3c-18 0 -26 -4 -28 -19c0 -8 6 -12 21 -16
l38 -12c59 -19 90 -50 90 -98z" />
    <glyph glyph-name="t.superior" horiz-adv-x="332" 
d="M366 315c-8 -2 -52 -11 -102 -11c-81 0 -119 36 -119 96c0 18 2 31 6 54l19 112l-49 6l18 100h50l14 80h183l-14 -80h59l-19 -106h-58l-23 -131c-1 -6 -2 -10 -2 -14c0 -8 4 -12 17 -12s32 1 37 2z" />
    <glyph glyph-name="parenleft.inferior" unicode="&#x208d;" horiz-adv-x="295" 
d="M341 315c-76 -113 -118 -252 -118 -394c0 -53 5 -100 15 -140h-146c-22 46 -37 112 -37 189c0 124 44 243 126 345h160z" />
    <glyph glyph-name="parenright.inferior" unicode="&#x208e;" horiz-adv-x="295" 
d="M12 -219c76 113 118 252 118 394c0 53 -5 100 -15 140h146c22 -46 37 -112 37 -189c0 -124 -44 -243 -126 -345h-160z" />
    <glyph glyph-name="hyphen.superior" horiz-adv-x="226" 
d="M266 485h-161l22 122h161z" />
    <glyph glyph-name="colonmonetary" unicode="&#x20a1;" horiz-adv-x="611" 
d="M680 584l-31 -181c-72 3 -130 6 -177 6c-60 0 -70 -10 -86 -91l-8 -41c-4 -22 -7 -40 -7 -53c0 -35 17 -40 61 -40c56 0 124 3 179 4l-32 -178c-20 -6 -53 -11 -90 -16l-22 -127h-125l21 118c-12 -1 -24 -1 -35 -1c-14 0 -28 1 -40 2l-21 -119h-125l26 151
c-63 32 -94 100 -94 189c0 28 3 58 9 90l8 41c25 131 76 211 178 247l23 135h125l-19 -112c13 1 26 2 40 2c12 0 23 0 35 -1l19 111h125l-21 -120c40 -6 67 -11 84 -16z" />
    <glyph glyph-name="cent.oldstyle" horiz-adv-x="679" 
d="M746 643l-33 -187c-78 3 -127 4 -174 4c-64 0 -96 -13 -114 -117l-7 -41c-4 -22 -6 -40 -6 -55c0 -55 27 -62 78 -62c61 0 119 1 175 2l-32 -184c-30 -9 -98 -16 -149 -20l-17 -92h-229l18 108c-115 32 -163 105 -163 221c0 31 4 65 10 102l7 41c29 170 107 254 263 291
l16 93h229l-15 -86c47 -3 116 -10 143 -18z" />
    <glyph glyph-name="figuredash" unicode="&#x2012;" horiz-adv-x="734" 
d="M734 188h-669l27 157h669z" />
    <glyph glyph-name="hyphen.inferior" horiz-adv-x="226" 
d="M226 4h-161l22 122h161z" />
    <glyph glyph-name="oneeighth" unicode="&#x215b;" horiz-adv-x="1206" 
d="M1058 748l-662 -748h-234l663 748h233zM386 304h-293l20 116l47 5l29 167l-49 -16l24 131l110 44h143l-57 -326l46 -5zM1193 110c-21 -114 -122 -122 -243 -122h-5c-118 0 -193 30 -193 117c0 65 31 110 69 123c-21 17 -34 46 -34 81c0 134 100 150 241 150h5
c130 0 194 -32 194 -109c0 -46 -20 -93 -66 -122c24 -18 36 -49 36 -74c0 -18 -1 -28 -4 -44zM1002 135c2 10 3 19 3 27c0 14 -6 19 -21 19h-5c-17 0 -36 -14 -36 -67c0 -14 6 -21 21 -21h5c21 0 27 12 33 42zM1033 317c2 9 2 14 2 18c0 12 -4 18 -20 18h-5
c-26 0 -33 -28 -33 -54c0 -13 5 -20 20 -20h5c21 0 26 13 31 38z" />
    <glyph glyph-name="threeeighths" unicode="&#x215c;" horiz-adv-x="1279" 
d="M1131 748l-662 -748h-234l663 748h233zM1267 110c-21 -114 -122 -122 -243 -122h-5c-118 0 -193 30 -193 117c0 65 31 110 69 123c-21 17 -34 46 -34 81c0 134 100 150 241 150h5c130 0 194 -32 194 -109c0 -46 -20 -93 -66 -122c24 -18 36 -49 36 -74
c0 -18 -1 -28 -4 -44zM1076 135c2 10 3 19 3 27c0 14 -6 19 -21 19h-5c-17 0 -36 -14 -36 -67c0 -14 6 -21 21 -21h5c21 0 27 12 33 42zM1107 317c2 9 2 14 2 18c0 12 -4 18 -20 18h-5c-26 0 -33 -28 -33 -54c0 -13 5 -20 20 -20h5c21 0 26 13 31 38zM542 648
c0 -51 -21 -90 -70 -117c27 -14 35 -47 35 -77c0 -128 -76 -161 -237 -161c-72 0 -148 11 -183 25l17 98c18 -1 116 -3 160 -3c35 0 50 4 50 43c0 17 -13 20 -49 20h-110l18 106h111c46 0 59 7 59 44c0 17 -11 19 -39 19c-55 0 -99 -2 -160 -4l17 97c44 15 120 26 192 26
c126 0 189 -35 189 -116z" />
    <glyph glyph-name="fiveeighths" unicode="&#x215d;" horiz-adv-x="1272" 
d="M1124 748l-663 -748h-234l663 748h234zM1267 110c-21 -114 -122 -122 -243 -122h-5c-118 0 -193 30 -193 117c0 65 31 110 69 123c-21 17 -34 46 -34 81c0 134 100 150 241 150h5c130 0 194 -32 194 -109c0 -46 -20 -93 -66 -122c24 -18 36 -49 36 -74
c0 -18 -1 -28 -4 -44zM1076 135c2 10 3 19 3 27c0 14 -6 19 -21 19h-5c-17 0 -36 -14 -36 -67c0 -14 6 -21 21 -21h5c21 0 27 12 33 42zM1107 317c2 9 2 14 2 18c0 12 -4 18 -20 18h-5c-26 0 -33 -28 -33 -54c0 -13 5 -20 20 -20h5c21 0 26 13 31 38zM545 748l-21 -119h-203
l-10 -43h15c141 0 181 -41 181 -109c0 -158 -104 -188 -237 -188c-84 0 -146 11 -181 21l18 102c46 -3 100 -6 129 -6c51 0 67 7 67 48c0 18 -13 21 -51 21h-137l72 273h358z" />
    <glyph glyph-name="seveneighths" unicode="&#x215e;" horiz-adv-x="1181" 
d="M1033 748l-662 -748h-234l663 748h233zM1174 110c-21 -114 -122 -122 -243 -122h-5c-118 0 -193 30 -193 117c0 65 31 110 69 123c-21 17 -34 46 -34 81c0 134 100 150 241 150h5c130 0 194 -32 194 -109c0 -46 -20 -93 -66 -122c24 -18 36 -49 36 -74
c0 -18 -1 -28 -4 -44zM983 135c2 10 3 19 3 27c0 14 -6 19 -21 19h-5c-17 0 -36 -14 -36 -67c0 -14 6 -21 21 -21h5c21 0 27 12 33 42zM1014 317c2 9 2 14 2 18c0 12 -4 18 -20 18h-5c-26 0 -33 -28 -33 -54c0 -13 5 -20 20 -20h5c21 0 26 13 31 38zM151 629l21 119h392
l-22 -125l-259 -322h-205l266 328h-193z" />
    <glyph glyph-name="onethird" unicode="&#x2153;" horiz-adv-x="1191" 
d="M1058 748l-662 -748h-234l663 748h233zM386 304h-293l20 116l47 5l29 167l-49 -16l24 131l110 44h143l-57 -326l46 -5zM1216 343c0 -51 -21 -90 -70 -117c27 -14 35 -47 35 -77c0 -128 -76 -161 -237 -161c-72 0 -148 11 -183 25l17 98c18 -1 116 -3 160 -3
c35 0 50 4 50 43c0 17 -13 20 -49 20h-110l18 106h111c46 0 59 7 59 44c0 17 -11 19 -39 19c-55 0 -99 -2 -160 -4l17 97c44 15 120 26 192 26c126 0 189 -35 189 -116z" />
    <glyph glyph-name="twothirds" unicode="&#x2154;" horiz-adv-x="1296" 
d="M1163 748l-662 -748h-234l663 748h233zM150 641l17 99c71 19 149 23 194 23c134 0 189 -41 189 -113c0 -92 -82 -127 -165 -158c-75 -29 -78 -31 -84 -59l-1 -5h198l-21 -124h-392l9 54c21 124 69 168 170 216c47 22 80 32 80 56c0 11 -6 16 -44 16
c-49 0 -132 -4 -150 -5zM1320 343c0 -51 -21 -90 -70 -117c27 -14 35 -47 35 -77c0 -128 -76 -161 -237 -161c-72 0 -148 11 -183 25l17 98c18 -1 116 -3 160 -3c35 0 50 4 50 43c0 17 -13 20 -49 20h-110l18 106h111c46 0 59 7 59 44c0 17 -11 19 -39 19
c-55 0 -99 -2 -160 -4l17 97c44 15 120 26 192 26c126 0 189 -35 189 -116z" />
    <glyph glyph-name="zero.superior" unicode="&#x2070;" horiz-adv-x="511" 
d="M574 649c0 -40 -4 -65 -10 -97l-4 -21c-25 -131 -101 -198 -258 -198c-135 0 -186 68 -186 172c0 23 2 47 9 80l5 25c26 129 100 194 255 194c130 0 189 -59 189 -155zM377 652c0 17 -5 21 -15 21c-17 0 -22 -10 -36 -87l-4 -22c-8 -42 -11 -67 -11 -81
c0 -16 5 -19 14 -19c17 0 25 10 38 85l4 24c7 40 10 64 10 79z" />
    <glyph glyph-name="four.superior" unicode="&#x2074;" horiz-adv-x="491" 
d="M472 345h-197l14 82h-195l18 102l294 263h144l-44 -253h47l-20 -112h-47zM322 539l14 81l-82 -81h68z" />
    <glyph glyph-name="five.superior" unicode="&#x2075;" horiz-adv-x="457" 
d="M552 792l-21 -119h-203l-10 -43h15c141 0 181 -41 181 -109c0 -158 -104 -188 -237 -188c-84 0 -146 11 -181 21l18 102c46 -3 100 -6 129 -6c51 0 67 7 67 48c0 18 -13 21 -51 21h-137l72 273h358z" />
    <glyph glyph-name="six.superior" unicode="&#x2076;" horiz-adv-x="487" 
d="M551 782l-18 -101c-48 2 -111 4 -158 4c-41 0 -46 -4 -53 -42l-2 -9c10 2 30 3 42 3c114 0 165 -33 165 -115c0 -140 -76 -189 -244 -189c-145 0 -180 66 -180 142c0 22 3 45 7 67l13 74c20 117 54 188 241 188c77 0 153 -13 187 -22zM330 488c4 23 5 32 5 38
c0 10 -3 14 -15 14c-6 0 -14 -1 -16 -2l-9 -48c-3 -14 -4 -24 -4 -31c0 -10 3 -15 13 -15c17 0 20 14 26 44z" />
    <glyph glyph-name="seven.superior" unicode="&#x2077;" horiz-adv-x="458" 
d="M158 673l21 119h392l-22 -125l-259 -322h-205l266 328h-193z" />
    <glyph glyph-name="eight.superior" unicode="&#x2078;" horiz-adv-x="506" 
d="M547 455c-21 -114 -122 -122 -243 -122h-5c-118 0 -193 30 -193 117c0 65 31 110 69 123c-21 17 -34 46 -34 81c0 134 100 150 241 150h5c130 0 194 -32 194 -109c0 -46 -20 -93 -66 -122c24 -18 36 -49 36 -74c0 -18 -1 -28 -4 -44zM356 480c2 10 3 19 3 27
c0 14 -6 19 -21 19h-5c-17 0 -36 -14 -36 -67c0 -14 6 -21 21 -21h5c21 0 27 12 33 42zM387 662c2 9 2 14 2 18c0 12 -4 18 -20 18h-5c-26 0 -33 -28 -33 -54c0 -13 5 -20 20 -20h5c21 0 26 13 31 38z" />
    <glyph glyph-name="nine.superior" unicode="&#x2079;" horiz-adv-x="487" 
d="M109 355l18 101c48 -2 111 -4 158 -4c41 0 46 4 53 42l2 9c-10 -2 -30 -3 -42 -3c-114 0 -165 33 -165 115c0 140 76 189 244 189c145 0 180 -66 180 -142c0 -22 -3 -45 -7 -67l-13 -74c-21 -117 -55 -188 -241 -188c-77 0 -153 13 -187 22zM330 649
c-4 -23 -5 -32 -5 -38c0 -10 3 -14 15 -14c6 0 14 1 16 2l9 48c3 14 4 24 4 31c0 10 -3 15 -13 15c-17 0 -20 -14 -26 -44z" />
    <glyph glyph-name="zero.inferior" unicode="&#x2080;" horiz-adv-x="511" 
d="M537 105c0 -40 -4 -65 -10 -97l-4 -21c-25 -131 -101 -198 -258 -198c-135 0 -186 68 -186 172c0 23 2 47 9 80l5 25c26 129 100 194 255 194c130 0 189 -59 189 -155zM340 108c0 17 -5 21 -15 21c-17 0 -22 -10 -36 -87l-4 -22c-8 -42 -11 -67 -11 -81
c0 -16 5 -19 14 -19c17 0 25 10 38 85l4 24c7 40 10 64 10 79z" />
    <glyph glyph-name="one.inferior" unicode="&#x2081;" horiz-adv-x="373" 
d="M339 -199h-293l20 116l47 5l29 167l-49 -16l24 131l110 44h143l-57 -326l46 -5z" />
    <glyph glyph-name="two.inferior" unicode="&#x2082;" horiz-adv-x="468" 
d="M101 138l17 99c71 19 149 23 194 23c134 0 189 -41 189 -113c0 -92 -82 -127 -165 -158c-75 -29 -78 -31 -84 -59l-1 -5h198l-21 -124h-392l9 54c21 124 69 168 170 216c47 22 80 32 80 56c0 11 -6 16 -44 16c-49 0 -132 -4 -150 -5z" />
    <glyph glyph-name="three.inferior" unicode="&#x2083;" horiz-adv-x="463" 
d="M500 144c0 -51 -21 -90 -70 -117c27 -14 35 -47 35 -77c0 -128 -76 -161 -237 -161c-72 0 -148 11 -183 25l17 98c18 -1 116 -3 160 -3c35 0 50 4 50 43c0 17 -13 20 -49 20h-110l18 106h111c46 0 59 7 59 44c0 17 -11 19 -39 19c-55 0 -99 -2 -160 -4l17 97
c44 15 120 26 192 26c126 0 189 -35 189 -116z" />
    <glyph glyph-name="four.inferior" unicode="&#x2084;" horiz-adv-x="491" 
d="M412 -199h-197l14 82h-195l18 102l294 263h144l-44 -253h47l-20 -112h-47zM262 -5l14 81l-82 -81h68z" />
    <glyph glyph-name="five.inferior" unicode="&#x2085;" horiz-adv-x="457" 
d="M493 248l-21 -119h-203l-10 -43h15c141 0 181 -41 181 -109c0 -158 -104 -188 -237 -188c-84 0 -146 11 -181 21l18 102c46 -3 100 -6 129 -6c51 0 67 7 67 48c0 18 -13 21 -51 21h-137l72 273h358z" />
    <glyph glyph-name="six.inferior" unicode="&#x2086;" horiz-adv-x="487" 
d="M507 238l-18 -101c-48 2 -111 4 -158 4c-41 0 -46 -4 -53 -42l-2 -9c10 2 30 3 42 3c114 0 165 -33 165 -115c0 -140 -76 -189 -244 -189c-145 0 -180 66 -180 142c0 22 3 45 7 67l13 74c20 117 54 188 241 188c77 0 153 -13 187 -22zM286 -56c4 23 5 32 5 38
c0 10 -3 14 -15 14c-6 0 -14 -1 -16 -2l-9 -48c-3 -14 -4 -24 -4 -31c0 -10 3 -15 13 -15c17 0 20 14 26 44z" />
    <glyph glyph-name="seven.inferior" unicode="&#x2087;" horiz-adv-x="458" 
d="M78 129l21 119h392l-22 -125l-259 -322h-205l266 328h-193z" />
    <glyph glyph-name="eight.inferior" unicode="&#x2088;" horiz-adv-x="506" 
d="M497 -89c-21 -114 -122 -122 -243 -122h-5c-118 0 -193 30 -193 117c0 65 31 110 69 123c-21 17 -34 46 -34 81c0 134 100 150 241 150h5c130 0 194 -32 194 -109c0 -46 -20 -93 -66 -122c24 -18 36 -49 36 -74c0 -18 -1 -28 -4 -44zM306 -64c2 10 3 19 3 27
c0 14 -6 19 -21 19h-5c-17 0 -36 -14 -36 -67c0 -14 6 -21 21 -21h5c21 0 27 12 33 42zM337 118c2 9 2 14 2 18c0 12 -4 18 -20 18h-5c-26 0 -33 -28 -33 -54c0 -13 5 -20 20 -20h5c21 0 26 13 31 38z" />
    <glyph glyph-name="nine.inferior" unicode="&#x2089;" horiz-adv-x="487" 
d="M49 -189l18 101c48 -2 111 -4 158 -4c41 0 46 4 53 42l2 9c-10 -2 -30 -3 -42 -3c-114 0 -165 33 -165 115c0 140 76 189 244 189c145 0 180 -66 180 -142c0 -22 -3 -45 -7 -67l-13 -74c-21 -117 -55 -188 -241 -188c-77 0 -153 13 -187 22zM270 105
c-4 -23 -5 -32 -5 -38c0 -10 3 -14 15 -14c6 0 14 1 16 2l9 48c3 14 4 24 4 31c0 10 -3 15 -13 15c-17 0 -20 -14 -26 -44z" />
    <glyph glyph-name="cent.inferior" horiz-adv-x="435" 
d="M459 241l-24 -135c-41 3 -76 4 -98 4c-41 0 -57 -7 -69 -77l-4 -23c-3 -17 -4 -30 -4 -40c0 -32 14 -37 47 -37c17 0 69 2 98 4l-23 -136c-21 -6 -49 -11 -83 -13l-15 -85h-169l17 99c-59 21 -89 72 -89 151c0 22 2 45 7 71l4 23c21 117 73 174 157 200l16 89h169
l-15 -82c34 -3 63 -9 78 -13z" />
    <glyph glyph-name="dollar.inferior" horiz-adv-x="469" 
d="M33 -201l20 111c40 -2 101 -5 161 -5c23 0 44 2 44 22c0 13 -11 17 -39 27l-42 15c-60 21 -102 63 -102 133c0 86 63 137 146 146l16 88h169l-15 -83c41 -4 78 -11 103 -16l-19 -108c-88 5 -143 5 -166 5c-24 0 -45 -2 -45 -18c0 -12 8 -15 39 -25l38 -12
c76 -24 113 -59 113 -125c0 -87 -57 -146 -144 -163l-16 -88h-169l15 84c-41 3 -77 7 -107 12z" />
    <glyph glyph-name="period.inferior" horiz-adv-x="243" 
d="M211 -136h-179l20 112h179z" />
    <glyph glyph-name="comma.inferior" horiz-adv-x="264" 
d="M263 -24l-106 -187h-133l80 187h159z" />
    <glyph glyph-name="commaaccent" horiz-adv-x="426" 
d="M384 -56l-130 -138h-256l92 138h294z" />
    <glyph glyph-name="Abreve" unicode="&#x102;" horiz-adv-x="875" 
d="M860 0h-340l4 119h-128l-37 -119h-344l283 743h536zM537 313l2 173c0 31 3 74 6 105h-2c-9 -31 -22 -74 -32 -105l-57 -173h83zM868 953c-48 -148 -193 -164 -281 -164c-81 0 -251 14 -252 164h153c2 -46 60 -54 105 -54c46 0 106 8 124 54h151z" />
    <glyph glyph-name="Amacron" unicode="&#x100;" horiz-adv-x="875" 
d="M860 0h-340l4 119h-128l-37 -119h-344l283 743h536zM537 313l2 173c0 31 3 74 6 105h-2c-9 -31 -22 -74 -32 -105l-57 -173h83zM827 790h-507l24 136h507z" />
    <glyph glyph-name="Aogonek" unicode="&#x104;" horiz-adv-x="875" 
d="M826 -191c-43 -11 -128 -27 -215 -27c-107 0 -166 27 -166 96c0 57 27 95 75 123l4 118h-128l-37 -119h-344l283 743h536l26 -743c-115 -24 -149 -41 -149 -63c0 -13 14 -16 42 -16c34 0 69 3 93 5zM537 313l2 173c0 31 3 74 6 105h-2c-9 -31 -22 -74 -32 -105l-57 -173
h83z" />
    <glyph glyph-name="Aringacute" unicode="&#x1fa;" horiz-adv-x="875" 
d="M860 0h-340l4 119h-128l-37 -119h-344l283 743h536zM537 313l2 173c0 31 3 74 6 105h-2c-9 -31 -22 -74 -32 -105l-57 -173h83zM762 903c0 -82 -75 -137 -181 -137s-182 55 -182 137c0 83 76 138 182 138s181 -55 181 -138zM636 904c0 24 -21 40 -55 40
c-33 0 -55 -16 -55 -40s21 -40 55 -40s55 16 55 40zM933 1189l-215 -136h-272l157 136h330z" />
    <glyph glyph-name="AEacute" unicode="&#x1fc;" horiz-adv-x="1098" 
d="M1063 0h-605l20 119h-92l-37 -119h-334l272 743h907l-36 -202h-276l-13 -74h253l-33 -186h-253l-14 -79h276zM513 313l49 278h-29c-10 -32 -22 -74 -32 -105l-57 -173h69zM1074 925l-215 -136h-272l157 136h330z" />
    <glyph glyph-name="Cacute" unicode="&#x106;" horiz-adv-x="705" 
d="M800 739l-36 -204c-56 4 -128 7 -198 7c-65 0 -99 -13 -123 -150l-7 -40c-6 -33 -9 -59 -9 -79c0 -65 30 -72 80 -72c70 0 141 3 199 7l-36 -204c-49 -15 -198 -25 -250 -25c-227 0 -327 79 -327 263c0 39 4 82 13 130l7 40c48 277 170 352 445 352c52 0 197 -10 242 -25
zM876 925l-215 -136h-272l157 136h330z" />
    <glyph glyph-name="Ccaron" unicode="&#x10c;" horiz-adv-x="705" 
d="M800 739l-36 -204c-56 4 -128 7 -198 7c-65 0 -99 -13 -123 -150l-7 -40c-6 -33 -9 -59 -9 -79c0 -65 30 -72 80 -72c70 0 141 3 199 7l-36 -204c-49 -15 -198 -25 -250 -25c-227 0 -327 79 -327 263c0 39 4 82 13 130l7 40c48 277 170 352 445 352c52 0 197 -10 242 -25
zM264 925h241l51 -53l68 53h251l-158 -136h-342z" />
    <glyph glyph-name="Ccircumflex" unicode="&#x108;" horiz-adv-x="705" 
d="M800 739l-36 -204c-56 4 -128 7 -198 7c-65 0 -99 -13 -123 -150l-7 -40c-6 -33 -9 -59 -9 -79c0 -65 30 -72 80 -72c70 0 141 3 199 7l-36 -204c-49 -15 -198 -25 -250 -25c-227 0 -327 79 -327 263c0 39 4 82 13 130l7 40c48 277 170 352 445 352c52 0 197 -10 242 -25
zM834 790h-241l-49 54l-70 -54h-251l159 136h342z" />
    <glyph glyph-name="Cdotaccent" unicode="&#x10a;" horiz-adv-x="705" 
d="M800 739l-36 -204c-56 4 -128 7 -198 7c-65 0 -99 -13 -123 -150l-7 -40c-6 -33 -9 -59 -9 -79c0 -65 30 -72 80 -72c70 0 141 3 199 7l-36 -204c-49 -15 -198 -25 -250 -25c-227 0 -327 79 -327 263c0 39 4 82 13 130l7 40c48 277 170 352 445 352c52 0 197 -10 242 -25
zM701 789h-316l24 136h316z" />
    <glyph glyph-name="Dcaron" unicode="&#x10e;" horiz-adv-x="834" 
d="M872 487c0 -36 -4 -76 -12 -121l-4 -23c-53 -297 -198 -364 -477 -364c-116 0 -215 6 -324 21l131 743c113 15 215 21 331 21c236 0 355 -77 355 -277zM557 504c0 45 -22 46 -88 46l-62 -357c99 0 101 5 130 170l4 23c10 56 16 93 16 118zM272 925h241l51 -53l68 53h251
l-158 -136h-342z" />
    <glyph glyph-name="Dcroat" unicode="&#x110;" horiz-adv-x="834" 
d="M872 487c0 -36 -4 -76 -12 -121l-4 -23c-53 -297 -198 -364 -477 -364c-116 0 -215 6 -324 21l50 284h-46l32 183h46l49 276c113 15 215 21 331 21c236 0 355 -77 355 -277zM557 504c0 39 -16 46 -60 46h-28l-15 -83h51l-32 -183h-50l-16 -91h28c72 0 77 25 102 170l4 23
c10 56 16 93 16 118z" />
    <glyph glyph-name="Ebreve" unicode="&#x114;" horiz-adv-x="701" 
d="M792 743l-36 -202h-276l-13 -74h254l-33 -186h-254l-14 -79h276l-35 -202h-606l131 743h606zM788 948c-48 -148 -193 -164 -281 -164c-81 0 -251 14 -252 164h153c2 -46 60 -54 105 -54c46 0 106 8 124 54h151z" />
    <glyph glyph-name="Ecaron" unicode="&#x11a;" horiz-adv-x="701" 
d="M792 743l-36 -202h-276l-13 -74h254l-33 -186h-254l-14 -79h276l-35 -202h-606l131 743h606zM227 925h241l51 -53l68 53h251l-158 -136h-342z" />
    <glyph glyph-name="Edotaccent" unicode="&#x116;" horiz-adv-x="701" 
d="M792 743l-36 -202h-276l-13 -74h254l-33 -186h-254l-14 -79h276l-35 -202h-606l131 743h606zM659 789h-316l24 136h316z" />
    <glyph glyph-name="Emacron" unicode="&#x112;" horiz-adv-x="701" 
d="M792 743l-36 -202h-276l-13 -74h254l-33 -186h-254l-14 -79h276l-35 -202h-606l131 743h606zM750 789h-507l24 136h507z" />
    <glyph glyph-name="Eng" unicode="&#x14a;" horiz-adv-x="882" 
d="M958 743l-127 -721c-30 -171 -138 -232 -306 -232c-44 0 -98 3 -134 11l29 164h31c34 0 43 10 48 42l8 50l-77 150c-13 26 -23 53 -29 73h-3c-5 -26 -8 -53 -13 -79l-35 -201h-295l131 743h280l116 -208c14 -26 23 -53 30 -79h2c5 36 8 54 13 84l36 203h295z" />
    <glyph glyph-name="Eogonek" unicode="&#x118;" horiz-adv-x="701" 
d="M627 -191c-43 -11 -128 -27 -215 -27c-115 0 -166 28 -166 88c0 88 104 115 182 130h-373l131 743h606l-36 -202h-276l-13 -74h254l-33 -186h-254l-14 -79h276l-35 -202c-113 -22 -149 -41 -149 -63c0 -13 13 -16 42 -16c34 0 69 3 93 5z" />
    <glyph glyph-name="Gbreve" unicode="&#x11e;" horiz-adv-x="811" 
d="M878 727l-34 -192c-64 3 -169 7 -254 7c-102 0 -137 -13 -160 -152l-6 -36c-8 -46 -14 -80 -14 -103c0 -40 10 -53 43 -53c11 0 26 0 41 2l39 220h297l-73 -413c-88 -15 -218 -28 -344 -28c-168 0 -318 50 -318 276c0 35 4 75 11 119l6 36c61 343 264 354 448 354
c114 0 248 -20 318 -37zM854 953c-48 -148 -193 -164 -281 -164c-81 0 -251 14 -252 164h153c2 -46 60 -54 105 -54c46 0 106 8 124 54h151z" />
    <glyph glyph-name="Gcircumflex" unicode="&#x11c;" horiz-adv-x="811" 
d="M878 727l-34 -192c-64 3 -169 7 -254 7c-102 0 -137 -13 -160 -152l-6 -36c-8 -46 -14 -80 -14 -103c0 -40 10 -53 43 -53c11 0 26 0 41 2l39 220h297l-73 -413c-88 -15 -218 -28 -344 -28c-168 0 -318 50 -318 276c0 35 4 75 11 119l6 36c61 343 264 354 448 354
c114 0 248 -20 318 -37zM862 788h-241l-49 54l-70 -54h-251l159 136h342z" />
    <glyph glyph-name="Gcommaaccent" unicode="&#x122;" horiz-adv-x="811" 
d="M878 727l-34 -192c-64 3 -169 7 -254 7c-102 0 -137 -13 -160 -152l-6 -36c-8 -46 -14 -80 -14 -103c0 -40 10 -53 43 -53c11 0 26 0 41 2l39 220h297l-73 -413c-88 -15 -218 -28 -344 -28c-168 0 -318 50 -318 276c0 35 4 75 11 119l6 36c61 343 264 354 448 354
c114 0 248 -20 318 -37zM596 -56l-130 -138h-256l92 138h294z" />
    <glyph glyph-name="Gdotaccent" unicode="&#x120;" horiz-adv-x="811" 
d="M878 727l-34 -192c-64 3 -169 7 -254 7c-102 0 -137 -13 -160 -152l-6 -36c-8 -46 -14 -80 -14 -103c0 -40 10 -53 43 -53c11 0 26 0 41 2l39 220h297l-73 -413c-88 -15 -218 -28 -344 -28c-168 0 -318 50 -318 276c0 35 4 75 11 119l6 36c61 343 264 354 448 354
c114 0 248 -20 318 -37zM716 789h-316l24 136h316z" />
    <glyph glyph-name="Hbar" unicode="&#x126;" horiz-adv-x="912" 
d="M97 568l15 89h58l16 86h331l-16 -86h140l16 86h331l-16 -86h52l-15 -89h-52l-100 -568h-331l47 267h-140l-47 -267h-331l100 568h-58zM470 481h140l16 87h-140z" />
    <glyph glyph-name="Hcircumflex" unicode="&#x124;" horiz-adv-x="912" 
d="M988 743l-131 -743h-331l47 267h-140l-47 -267h-331l131 743h331l-47 -262h140l47 262h331zM895 789h-241l-49 54l-70 -54h-251l159 136h342z" />
    <glyph glyph-name="Ibreve" unicode="&#x12c;" horiz-adv-x="440" 
d="M516 743l-131 -743h-330l131 743h330zM653 948c-48 -148 -193 -164 -281 -164c-81 0 -251 14 -252 164h153c2 -46 60 -54 105 -54c46 0 106 8 124 54h151z" />
    <glyph glyph-name="IJ" unicode="&#x132;" horiz-adv-x="873" 
d="M516 743l-131 -743h-330l131 743h330zM950 743l-128 -721c-30 -171 -138 -232 -306 -232c-44 0 -98 3 -134 11l29 164h31c34 0 42 10 48 42l130 736h330z" />
    <glyph glyph-name="Imacron" unicode="&#x12a;" horiz-adv-x="440" 
d="M516 743l-131 -743h-330l131 743h330zM613 789h-507l24 136h507z" />
    <glyph glyph-name="Iogonek" unicode="&#x12e;" horiz-adv-x="440" 
d="M385 0c-22 -5 -116 -26 -116 -63c0 -13 15 -16 42 -16c34 0 69 3 93 5l-20 -117c-43 -11 -128 -27 -215 -27c-105 0 -165 25 -165 93c0 79 80 109 152 125h-101l131 743h330z" />
    <glyph glyph-name="Itilde" unicode="&#x128;" horiz-adv-x="440" 
d="M516 743l-131 -743h-330l131 743h330zM644 956c-17 -147 -110 -169 -171 -169c-22 0 -65 2 -116 18l-53 17c-21 7 -37 10 -48 11c-19 0 -26 -9 -32 -44h-149c17 149 109 170 177 170c27 0 59 -4 107 -18l54 -16c22 -7 34 -12 51 -12c18 0 29 8 32 43h148z" />
    <glyph glyph-name="Jcircumflex" unicode="&#x134;" horiz-adv-x="440" 
d="M516 743l-128 -721c-30 -171 -138 -232 -306 -232c-44 0 -98 3 -134 11l29 164h31c34 0 42 10 48 42l130 736h330zM668 789h-241l-49 54l-70 -54h-251l159 136h342z" />
    <glyph glyph-name="Kcommaaccent" unicode="&#x136;" horiz-adv-x="895" 
d="M1033 743l-265 -374l122 -369h-366l-80 329l-58 -329h-331l131 743h331l-60 -337l217 337h359zM635 -56l-130 -138h-256l92 138h294z" />
    <glyph glyph-name="Lacute" unicode="&#x139;" horiz-adv-x="634" 
d="M641 213l-37 -213h-549l131 743h331l-94 -530h218zM804 925l-215 -136h-272l157 136h330z" />
    <glyph glyph-name="Lcaron" unicode="&#x13d;" horiz-adv-x="666" 
d="M808 744l-146 -289h-167l99 289h214zM641 213l-37 -213h-549l131 743h331l-94 -530h218z" />
    <glyph glyph-name="Lcommaaccent" unicode="&#x13b;" horiz-adv-x="634" 
d="M641 213l-37 -213h-549l131 743h331l-94 -530h218zM474 -56l-130 -138h-256l92 138h294z" />
    <glyph glyph-name="Ldot" unicode="&#x13f;" horiz-adv-x="692" 
d="M604 0h-549l131 743h331l-94 -530h218zM765 348h-276l35 197h276z" />
    <glyph glyph-name="Nacute" unicode="&#x143;" horiz-adv-x="882" 
d="M958 743l-131 -743h-290l-107 207c-13 26 -22 52 -28 72h-3c-5 -26 -9 -52 -14 -78l-35 -201h-295l131 743h280l116 -208c14 -26 23 -53 30 -79h2c0 7 5 41 13 84l36 203h295zM910 925l-215 -136h-272l157 136h330z" />
    <glyph glyph-name="Ncaron" unicode="&#x147;" horiz-adv-x="882" 
d="M958 743l-131 -743h-290l-107 207c-13 26 -22 52 -28 72h-3c-6 -30 -9 -47 -14 -78l-35 -201h-295l131 743h280l116 -208c14 -26 23 -53 30 -79h2c0 7 5 41 13 84l36 203h295zM312 924h241l51 -53l68 53h251l-158 -136h-342z" />
    <glyph glyph-name="Ncommaaccent" unicode="&#x145;" horiz-adv-x="882" 
d="M958 743l-131 -743h-290l-107 207c-13 26 -22 52 -31 72c-5 -26 -10 -52 -14 -78l-35 -201h-295l131 743h280l116 -208c14 -26 23 -53 32 -79c0 7 5 41 13 84l36 203h295zM616 -56l-130 -138h-256l92 138h294z" />
    <glyph glyph-name="Obreve" unicode="&#x14e;" horiz-adv-x="837" 
d="M871 477c0 -32 -3 -67 -9 -106l-6 -39c-48 -313 -234 -353 -439 -353c-178 0 -321 61 -321 286c0 32 3 68 9 107l6 39c48 315 238 353 438 353c182 0 322 -64 322 -287zM557 495c0 37 -12 48 -44 48c-49 0 -64 -31 -84 -153l-6 -37c-8 -47 -13 -80 -13 -103
c0 -39 13 -49 43 -49c48 0 64 25 85 152l6 37c8 48 13 82 13 105zM850 953c-48 -148 -193 -164 -281 -164c-81 0 -251 14 -252 164h153c2 -46 60 -54 105 -54c46 0 106 8 124 54h151z" />
    <glyph glyph-name="Ohungarumlaut" unicode="&#x150;" horiz-adv-x="837" 
d="M871 477c0 -32 -3 -67 -9 -106l-6 -39c-48 -313 -234 -353 -439 -353c-178 0 -321 61 -321 286c0 32 3 68 9 107l6 39c48 315 238 353 438 353c182 0 322 -64 322 -287zM557 495c0 37 -12 48 -44 48c-49 0 -64 -31 -84 -153l-6 -37c-8 -47 -13 -80 -13 -103
c0 -39 13 -49 43 -49c48 0 64 25 85 152l6 37c8 48 13 82 13 105zM1065 925l-215 -136h-239l157 136h297zM396 925h297l-215 -136h-239z" />
    <glyph glyph-name="Omacron" unicode="&#x14c;" horiz-adv-x="837" 
d="M871 477c0 -32 -3 -67 -9 -106l-6 -39c-48 -313 -234 -353 -439 -353c-178 0 -321 61 -321 286c0 32 3 68 9 107l6 39c48 315 238 353 438 353c182 0 322 -64 322 -287zM557 495c0 37 -12 48 -44 48c-49 0 -64 -31 -84 -153l-6 -37c-8 -47 -13 -80 -13 -103
c0 -39 13 -49 43 -49c48 0 64 25 85 152l6 37c8 48 13 82 13 105zM793 789h-507l24 136h507z" />
    <glyph glyph-name="Oslashacute" unicode="&#x1fe;" horiz-adv-x="837" 
d="M891 926l-215 -136h-272l157 136h330zM22 -33l118 123c-28 42 -44 99 -44 175c0 32 3 68 9 107l6 39c48 315 238 353 438 353c72 0 138 -10 191 -37l48 50h159l-120 -125c28 -43 44 -100 44 -175c0 -32 -3 -67 -9 -106l-6 -39c-48 -313 -234 -353 -439 -353
c-71 0 -137 10 -190 36l-46 -48h-159zM538 353l6 37c8 47 13 81 13 105c0 36 -12 48 -44 48c-49 0 -64 -31 -84 -153l-6 -37c-7 -44 -13 -75 -13 -98c0 -43 11 -54 43 -54c48 0 64 25 85 152z" />
    <glyph glyph-name="Racute" unicode="&#x154;" horiz-adv-x="839" 
d="M883 539c0 -19 -2 -39 -7 -67c-17 -99 -59 -139 -122 -183l85 -289h-308l-76 235h-47l-41 -235h-312l131 743c98 10 198 19 341 19c207 0 356 -46 356 -223zM565 516c0 26 -14 36 -61 36c-17 0 -21 0 -41 -1l-22 -125c13 -1 27 -1 42 -1c58 0 70 22 78 61c3 15 4 23 4 30
zM868 925l-215 -136h-272l157 136h330z" />
    <glyph glyph-name="Rcaron" unicode="&#x158;" horiz-adv-x="839" 
d="M883 539c0 -19 -2 -39 -7 -67c-17 -99 -59 -139 -122 -183l85 -289h-308l-76 235h-47l-41 -235h-312l131 743c98 10 198 19 341 19c207 0 356 -46 356 -223zM565 516c0 26 -14 36 -61 36c-17 0 -21 0 -41 -1l-22 -125c13 -1 27 -1 42 -1c58 0 70 22 78 61c3 15 4 23 4 30
zM259 925h241l51 -53l68 53h251l-158 -136h-342z" />
    <glyph glyph-name="Rcommaaccent" unicode="&#x156;" horiz-adv-x="839" 
d="M883 539c0 -19 -2 -39 -7 -67c-17 -99 -59 -139 -122 -183l85 -289h-308l-76 235h-47l-41 -235h-312l131 743c98 10 198 19 341 19c207 0 356 -46 356 -223zM565 516c0 26 -14 36 -61 36c-17 0 -21 0 -41 -1l-22 -125c13 -1 27 -1 42 -1c58 0 70 22 78 61c3 15 4 23 4 30
zM601 -56l-130 -138h-256l92 138h294z" />
    <glyph glyph-name="Sacute" unicode="&#x15a;" horiz-adv-x="738" 
d="M798 733l-32 -178c-103 7 -155 12 -254 12c-20 0 -66 0 -66 -27c0 -16 12 -23 54 -40l67 -28c121 -51 183 -108 183 -213c0 -208 -167 -280 -375 -280c-127 0 -243 11 -319 27l32 185c71 -4 137 -11 266 -11c24 0 65 4 65 33c0 19 -13 26 -59 46l-73 32
c-95 42 -166 94 -166 216c0 218 201 257 406 257c113 0 205 -17 271 -31zM842 925l-215 -136h-272l157 136h330z" />
    <glyph glyph-name="Scedilla" unicode="&#x15e;" horiz-adv-x="738" 
d="M798 733l-32 -178c-103 7 -155 12 -254 12c-20 0 -66 0 -66 -27c0 -16 12 -23 54 -40l67 -28c121 -51 183 -108 183 -213c0 -208 -167 -280 -375 -280c-127 0 -243 11 -319 27l32 185c71 -4 137 -11 266 -11c24 0 65 4 65 33c0 19 -13 26 -59 46l-73 32
c-95 42 -166 94 -166 216c0 218 201 257 406 257c113 0 205 -17 271 -31zM552 -56l-149 -138h-260l113 138h296z" />
    <glyph glyph-name="Scircumflex" unicode="&#x15c;" horiz-adv-x="738" 
d="M798 733l-32 -178c-103 7 -155 12 -254 12c-20 0 -66 0 -66 -27c0 -16 12 -23 54 -40l67 -28c121 -51 183 -108 183 -213c0 -208 -167 -280 -375 -280c-127 0 -243 11 -319 27l32 185c71 -4 137 -11 266 -11c24 0 65 4 65 33c0 19 -13 26 -59 46l-73 32
c-95 42 -166 94 -166 216c0 218 201 257 406 257c113 0 205 -17 271 -31zM827 788h-241l-49 54l-70 -54h-251l159 136h342z" />
    <glyph glyph-name="Scommaaccent" unicode="&#x218;" horiz-adv-x="738" 
d="M798 733l-32 -178c-103 7 -155 12 -254 12c-20 0 -66 0 -66 -27c0 -16 12 -23 54 -40l67 -28c121 -51 183 -108 183 -213c0 -208 -167 -280 -375 -280c-127 0 -243 11 -319 27l32 185c71 -4 137 -11 266 -11c24 0 65 4 65 33c0 19 -13 26 -59 46l-73 32
c-95 42 -166 94 -166 216c0 218 201 257 406 257c113 0 205 -17 271 -31zM542 -56l-130 -138h-256l92 138h294z" />
    <glyph glyph-name="Tbar" unicode="&#x166;" horiz-adv-x="761" 
d="M836 540h-195l-15 -83h159l-26 -148h-159l-54 -309h-331l54 309h-160l26 148h160l15 83h-195l36 203h721z" />
    <glyph glyph-name="Tcaron" unicode="&#x164;" horiz-adv-x="761" 
d="M872 743l-36 -203h-195l-95 -540h-331l95 540h-195l36 203h721zM226 925h241l51 -53l68 53h251l-158 -136h-342z" />
    <glyph glyph-name="Tcedilla" unicode="&#x162;" horiz-adv-x="761" 
d="M836 540h-195l-95 -540h-331l95 540h-195l36 203h721zM531 -56l-130 -138h-257l93 138h294z" />
    <glyph glyph-name="Tcommaaccent" unicode="&#x21a;" horiz-adv-x="761" 
d="M872 743l-36 -203h-195l-95 -540h-331l95 540h-195l36 203h721zM526 -56l-130 -138h-256l92 138h294z" />
    <glyph glyph-name="Ubreve" unicode="&#x16c;" horiz-adv-x="860" 
d="M941 743l-83 -472c-37 -210 -178 -292 -425 -292c-222 0 -336 93 -336 243c0 41 3 64 9 99l75 422h324l-80 -452c-4 -24 -7 -44 -7 -58c0 -30 12 -41 45 -41c50 0 62 24 75 99l80 452h323zM853 947c-48 -148 -193 -164 -281 -164c-81 0 -251 14 -252 164h153
c2 -46 60 -54 105 -54c46 0 106 8 124 54h151z" />
    <glyph glyph-name="Uhungarumlaut" unicode="&#x170;" horiz-adv-x="860" 
d="M941 743l-83 -472c-37 -210 -178 -292 -425 -292c-222 0 -336 93 -336 243c0 41 3 64 9 99l75 422h324l-80 -452c-4 -24 -7 -44 -7 -58c0 -30 12 -41 45 -41c50 0 62 24 75 99l80 452h323zM1104 925l-215 -136h-239l157 136h297zM435 925h297l-215 -136h-239z" />
    <glyph glyph-name="Umacron" unicode="&#x16a;" horiz-adv-x="860" 
d="M941 743l-83 -472c-37 -210 -178 -292 -425 -292c-222 0 -336 93 -336 243c0 41 3 64 9 99l75 422h324l-80 -452c-4 -24 -7 -44 -7 -58c0 -30 12 -41 45 -41c50 0 62 24 75 99l80 452h323zM824 789h-507l24 136h507z" />
    <glyph glyph-name="Uogonek" unicode="&#x172;" horiz-adv-x="860" 
d="M607 0c-114 -29 -142 -41 -142 -63c0 -13 15 -16 42 -16c34 0 69 3 93 5l-20 -117c-43 -11 -128 -27 -215 -27c-113 0 -165 30 -165 94s55 94 121 112c-147 26 -224 114 -224 253c0 22 3 45 7 70l77 432h324l-80 -452c-4 -24 -7 -44 -7 -58c0 -30 12 -41 45 -41
c50 0 62 24 75 99l80 452h323l-83 -472c-27 -152 -117 -237 -251 -271z" />
    <glyph glyph-name="Uring" unicode="&#x16e;" horiz-adv-x="860" 
d="M941 743l-83 -472c-37 -210 -178 -292 -425 -292c-222 0 -336 93 -336 243c0 41 3 64 9 99l75 422h324l-80 -452c-4 -24 -7 -44 -7 -58c0 -30 12 -41 45 -41c50 0 62 24 75 99l80 452h323zM755 913c0 -82 -75 -137 -181 -137s-182 55 -182 137c0 83 76 138 182 138
s181 -55 181 -138zM629 914c0 24 -21 40 -55 40c-33 0 -55 -16 -55 -40s21 -40 55 -40s55 16 55 40z" />
    <glyph glyph-name="Utilde" unicode="&#x168;" horiz-adv-x="860" 
d="M941 743l-83 -472c-37 -210 -178 -292 -425 -292c-222 0 -336 93 -336 243c0 41 3 64 9 99l75 422h324l-80 -452c-4 -24 -7 -44 -7 -58c0 -30 12 -41 45 -41c50 0 62 24 75 99l80 452h323zM864 956c-17 -147 -110 -169 -171 -169c-22 0 -65 2 -116 18l-53 17
c-21 7 -37 10 -48 11c-19 0 -26 -9 -32 -44h-149c17 149 109 170 177 170c27 0 59 -4 107 -18l54 -16c22 -7 34 -12 51 -12c18 0 29 8 32 43h148z" />
    <glyph glyph-name="Wacute" unicode="&#x1e82;" horiz-adv-x="1138" 
d="M1052 925l-215 -136h-272l157 136h330zM1244 743l-241 -743h-347l-27 223c-4 33 -3 80 -4 109c-9 -29 -24 -76 -40 -109l-104 -223h-347l22 743h318l-24 -265c-4 -47 -9 -98 -14 -133c15 37 30 79 46 112l52 109h267l13 -109c4 -33 6 -76 8 -112c8 35 20 86 33 133
l70 265h319z" />
    <glyph glyph-name="Wcircumflex" unicode="&#x174;" horiz-adv-x="1138" 
d="M1003 789h-241l-49 54l-70 -54h-251l159 136h342zM1244 743l-241 -743h-347l-27 223c-4 33 -3 80 -4 109c-9 -29 -24 -76 -40 -109l-104 -223h-347l22 743h318l-24 -265c-4 -47 -9 -98 -14 -133c15 37 30 79 46 112l52 109h267l13 -109c4 -33 6 -76 8 -112
c8 35 20 86 33 133l70 265h319z" />
    <glyph glyph-name="Wdieresis" unicode="&#x1e84;" horiz-adv-x="1138" 
d="M992 927l-24 -138h-228l24 138h228zM471 927h228l-24 -138h-228zM1244 743l-241 -743h-347l-27 223c-4 33 -3 80 -4 109c-9 -29 -24 -76 -40 -109l-104 -223h-347l22 743h318l-24 -265c-4 -47 -9 -98 -14 -133c15 37 30 79 46 112l52 109h267l13 -109c4 -33 6 -76 8 -112
c8 35 20 86 33 133l70 265h319z" />
    <glyph glyph-name="Wgrave" unicode="&#x1e80;" horiz-adv-x="1138" 
d="M869 789h-266l-168 136h326zM1244 743l-241 -743h-347l-27 223c-4 33 -3 80 -4 109c-9 -29 -24 -76 -40 -109l-104 -223h-347l22 743h318l-24 -265c-4 -47 -9 -98 -14 -133c15 37 30 79 46 112l52 109h267l13 -109c4 -33 6 -76 8 -112c8 35 20 86 33 133l70 265h319z" />
    <glyph glyph-name="Ycircumflex" unicode="&#x176;" horiz-adv-x="824" 
d="M950 743l-338 -507l-41 -236h-318l41 236l-158 507h319l23 -138c5 -33 9 -74 16 -109c16 35 35 76 52 109l74 138h330zM847 789h-241l-49 54l-70 -54h-251l159 136h342z" />
    <glyph glyph-name="Ygrave" unicode="&#x1ef2;" horiz-adv-x="824" 
d="M950 743l-338 -507l-41 -236h-318l41 236l-158 507h319l23 -138c5 -33 9 -67 16 -109c16 35 35 76 52 109l74 138h330zM699 789h-266l-168 136h326z" />
    <glyph glyph-name="Zacute" unicode="&#x179;" horiz-adv-x="708" 
d="M793 743l-35 -197l-285 -337h226l-36 -209h-618l33 192l286 342h-224l37 209h616zM846 925l-215 -136h-272l157 136h330z" />
    <glyph glyph-name="Zdotaccent" unicode="&#x17b;" horiz-adv-x="708" 
d="M793 743l-35 -197l-285 -337h226l-36 -209h-618l33 192l286 342h-224l37 209h616zM654 789h-316l24 136h316z" />
    <glyph glyph-name="Idotaccent" unicode="&#x130;" horiz-adv-x="440" 
d="M516 743l-131 -743h-330l131 743h330zM518 789h-316l24 136h316z" />
    <glyph glyph-name="abreve" unicode="&#x103;" horiz-adv-x="768" 
d="M713 0h-273l5 31c-53 -31 -105 -46 -180 -46c-121 0 -188 73 -188 210c0 30 4 63 10 99l7 40c37 212 126 276 427 276c90 0 190 -5 296 -15zM448 186l40 225c-8 1 -21 1 -31 1c-44 0 -52 -15 -66 -93l-7 -40c-5 -29 -8 -49 -8 -63c0 -26 10 -33 37 -33c12 0 28 2 35 3z
M780 811c-48 -148 -193 -164 -281 -164c-81 0 -251 14 -252 164h153c2 -46 60 -54 105 -54c46 0 106 8 124 54h151z" />
    <glyph glyph-name="amacron" unicode="&#x101;" horiz-adv-x="768" 
d="M713 0h-273l5 31c-53 -31 -105 -46 -180 -46c-121 0 -188 73 -188 210c0 30 4 63 10 99l7 40c37 212 126 276 427 276c90 0 190 -5 296 -15zM448 186l40 225c-8 1 -21 1 -31 1c-44 0 -52 -15 -66 -93l-7 -40c-5 -29 -8 -49 -8 -63c0 -26 10 -33 37 -33c12 0 28 2 35 3z
M729 650h-507l24 136h507z" />
    <glyph glyph-name="aogonek" unicode="&#x105;" horiz-adv-x="768" 
d="M440 0l5 31c-53 -31 -105 -46 -180 -46c-121 0 -188 73 -188 210c0 30 4 63 10 99l7 40c37 212 126 276 427 276c90 0 190 -5 296 -15l-104 -595c-114 -27 -149 -41 -149 -63c0 -13 15 -16 42 -16c34 0 69 3 93 5l-20 -117c-43 -11 -128 -27 -215 -27
c-113 0 -165 25 -165 88c0 71 66 106 141 130zM448 186l40 225c-8 1 -21 1 -31 1c-44 0 -52 -15 -66 -93l-7 -40c-5 -29 -8 -49 -8 -63c0 -26 10 -33 37 -33c12 0 28 2 35 3z" />
    <glyph glyph-name="aringacute" unicode="&#x1fb;" horiz-adv-x="768" 
d="M713 0h-273l5 31c-53 -31 -105 -46 -180 -46c-121 0 -188 73 -188 210c0 30 4 63 10 99l7 40c37 212 126 276 427 276c90 0 190 -5 296 -15zM448 186l40 225c-8 1 -21 1 -31 1c-44 0 -52 -15 -66 -93l-7 -40c-5 -29 -8 -49 -8 -63c0 -26 10 -33 37 -33c12 0 28 2 35 3z
M698 765c0 -82 -75 -137 -181 -137s-182 55 -182 137c0 83 76 138 182 138s181 -55 181 -138zM572 766c0 24 -21 40 -55 40c-33 0 -55 -16 -55 -40s21 -40 55 -40s55 16 55 40zM890 1053l-215 -136h-272l157 136h330z" />
    <glyph glyph-name="aeacute" unicode="&#x1fd;" horiz-adv-x="1044" 
d="M1080 385c0 -27 -3 -53 -20 -151h-368l-1 -6c-2 -11 -3 -21 -3 -29c0 -26 15 -33 75 -33c55 0 187 0 248 3l-28 -158c-57 -12 -177 -26 -290 -26c-96 0 -184 17 -232 66c-92 -56 -169 -66 -248 -66c-120 0 -160 58 -160 141c0 14 1 29 8 70c28 154 172 155 346 155h8
l4 22c1 7 2 14 2 19c0 18 -11 26 -60 26c-44 0 -123 -2 -208 -7l27 152c59 18 178 47 293 47c63 0 116 -7 158 -24c48 16 104 24 168 24c232 0 281 -119 281 -225zM800 395c0 28 -12 36 -34 36c-29 0 -42 -16 -52 -72l-1 -6h82c3 17 5 33 5 42zM410 236h-20
c-24 0 -39 -3 -46 -41c-4 -23 -4 -27 -4 -31c0 -14 7 -19 19 -19c14 0 26 3 36 7zM971 786l-215 -136h-272l157 136h330z" />
    <glyph glyph-name="cacute" unicode="&#x107;" horiz-adv-x="616" 
d="M683 584l-31 -180c-88 3 -137 5 -178 5c-56 0 -69 -10 -85 -91l-8 -41c-4 -21 -6 -37 -6 -50c0 -37 18 -43 59 -43s91 2 180 5l-32 -179c-56 -12 -137 -26 -244 -26c-178 0 -262 78 -262 220c0 28 3 58 10 91l8 41c40 205 141 274 354 274c107 0 184 -14 235 -26z
M784 786l-215 -136h-272l157 136h330z" />
    <glyph glyph-name="ccaron" unicode="&#x10d;" horiz-adv-x="616" 
d="M683 584l-31 -180c-88 3 -137 5 -178 5c-56 0 -69 -10 -85 -91l-8 -41c-4 -21 -6 -37 -6 -50c0 -37 18 -43 59 -43s91 2 180 5l-32 -179c-56 -12 -137 -26 -244 -26c-178 0 -262 78 -262 220c0 28 3 58 10 91l8 41c40 205 141 274 354 274c107 0 184 -14 235 -26z
M163 786h241l51 -53l68 53h251l-158 -136h-342z" />
    <glyph glyph-name="ccircumflex" unicode="&#x109;" horiz-adv-x="616" 
d="M683 584l-31 -180c-88 3 -137 5 -178 5c-56 0 -69 -10 -85 -91l-8 -41c-4 -21 -6 -37 -6 -50c0 -37 18 -43 59 -43s91 2 180 5l-32 -179c-56 -12 -137 -26 -244 -26c-178 0 -262 78 -262 220c0 28 3 58 10 91l8 41c40 205 141 274 354 274c107 0 184 -14 235 -26z
M752 650h-241l-49 54l-70 -54h-251l159 136h342z" />
    <glyph glyph-name="cdotaccent" unicode="&#x10b;" horiz-adv-x="616" 
d="M683 584l-31 -180c-88 3 -137 5 -178 5c-56 0 -69 -10 -85 -91l-8 -41c-4 -21 -6 -37 -6 -50c0 -37 18 -43 59 -43s91 2 180 5l-32 -179c-56 -12 -137 -26 -244 -26c-178 0 -262 78 -262 220c0 28 3 58 10 91l8 41c40 205 141 274 354 274c107 0 184 -14 235 -26z
M595 650h-316l24 136h316z" />
    <glyph glyph-name="dcaron" unicode="&#x10f;" horiz-adv-x="1025" 
d="M1190 786l-162 -288h-208l124 288h246zM487 410c-8 1 -20 2 -30 2c-44 0 -53 -15 -67 -93l-7 -40c-5 -28 -8 -49 -8 -63c0 -26 10 -33 38 -33c9 0 25 1 34 3zM850 786l-138 -786h-272l5 31c-49 -28 -107 -47 -181 -47c-121 0 -188 74 -188 211c0 30 4 62 10 98l7 40
c35 202 147 277 356 277c36 0 55 -1 69 -2l31 178h301z" />
    <glyph glyph-name="dcroat" unicode="&#x111;" horiz-adv-x="767" 
d="M366 652l17 92h158l8 42h301l-8 -42h54l-17 -92h-53l-114 -652h-272l5 31c-49 -28 -107 -47 -181 -47c-121 0 -188 74 -188 211c0 30 4 62 10 98l7 40c35 202 147 277 356 277c36 0 55 -1 69 -2l7 44h-159zM447 186l40 224c-8 1 -20 2 -30 2c-44 0 -53 -15 -67 -93
l-7 -40c-5 -28 -8 -49 -8 -63c0 -26 10 -33 38 -33c9 0 25 1 34 3z" />
    <glyph glyph-name="ebreve" unicode="&#x115;" horiz-adv-x="723" 
d="M757 374c0 -35 -4 -70 -17 -140h-367l-1 -6c-2 -11 -3 -20 -3 -27c0 -24 16 -25 77 -25c54 0 85 0 247 3l-29 -166c-56 -12 -158 -29 -281 -29c-177 0 -304 52 -304 227c0 27 3 58 9 91l3 17c41 231 174 291 389 291c226 0 277 -118 277 -236zM480 395
c0 28 -12 36 -34 36c-28 0 -41 -16 -51 -72l-1 -6h81c4 20 5 33 5 42zM769 810c-48 -148 -193 -164 -281 -164c-81 0 -251 14 -252 164h153c2 -46 60 -54 105 -54c46 0 106 8 124 54h151z" />
    <glyph glyph-name="ecaron" unicode="&#x11b;" horiz-adv-x="723" 
d="M757 374c0 -35 -4 -70 -17 -140h-367l-1 -6c-2 -11 -3 -20 -3 -27c0 -24 16 -25 77 -25c54 0 85 0 247 3l-29 -166c-56 -12 -158 -29 -281 -29c-177 0 -304 52 -304 227c0 27 3 58 9 91l3 17c41 231 174 291 389 291c226 0 277 -118 277 -236zM480 395
c0 28 -12 36 -34 36c-28 0 -41 -16 -51 -72l-1 -6h81c4 20 5 33 5 42zM205 786h241l51 -53l68 53h251l-158 -136h-342z" />
    <glyph glyph-name="edotaccent" unicode="&#x117;" horiz-adv-x="723" 
d="M757 374c0 -35 -4 -70 -17 -140h-367l-1 -6c-2 -11 -3 -20 -3 -27c0 -24 16 -25 77 -25c54 0 85 0 247 3l-29 -166c-56 -12 -158 -29 -281 -29c-177 0 -304 52 -304 227c0 27 3 58 9 91l3 17c41 231 174 291 389 291c226 0 277 -118 277 -236zM480 395
c0 28 -12 36 -34 36c-28 0 -41 -16 -51 -72l-1 -6h81c4 20 5 33 5 42zM625 650h-316l24 136h316z" />
    <glyph glyph-name="emacron" unicode="&#x113;" horiz-adv-x="723" 
d="M757 374c0 -35 -4 -70 -17 -140h-367l-1 -6c-2 -11 -3 -20 -3 -27c0 -24 16 -25 77 -25c54 0 85 0 247 3l-29 -166c-56 -12 -158 -29 -281 -29c-177 0 -304 52 -304 227c0 27 3 58 9 91l3 17c41 231 174 291 389 291c226 0 277 -118 277 -236zM480 395
c0 28 -12 36 -34 36c-28 0 -41 -16 -51 -72l-1 -6h81c4 20 5 33 5 42zM719 650h-507l24 136h507z" />
    <glyph glyph-name="eng" unicode="&#x14b;" horiz-adv-x="784" 
d="M796 358l-62 -354c-29 -166 -116 -216 -290 -216c-63 0 -115 6 -141 12l29 164c28 -1 39 -1 51 -1c37 0 44 8 50 41l65 369c1 8 2 14 2 19c0 17 -8 22 -26 22c-17 0 -41 -8 -48 -12l-70 -402h-301l104 595h276l-8 -50c56 40 133 65 196 65c153 0 185 -67 185 -145
c0 -35 -6 -73 -12 -107z" />
    <glyph glyph-name="eogonek" unicode="&#x119;" horiz-adv-x="723" 
d="M739 234h-367l-1 -6c-2 -11 -3 -20 -3 -27c0 -24 16 -25 77 -25c54 0 85 0 247 3l-29 -166c-114 -27 -151 -50 -151 -72c0 -13 15 -20 42 -20c34 0 69 3 93 5l-20 -117c-43 -11 -128 -27 -215 -27c-121 0 -165 34 -165 91c0 56 46 90 104 112c-172 8 -273 65 -273 226
c0 27 3 58 9 91l3 17c41 231 174 291 389 291c226 0 277 -118 277 -236c0 -35 -4 -70 -10 -101zM474 353l2 14c2 14 3 19 3 28c0 28 -12 36 -34 36c-28 0 -41 -16 -51 -72l-1 -6h81z" />
    <glyph glyph-name="gbreve" unicode="&#x11f;" horiz-adv-x="765" 
d="M819 595l-105 -594c-25 -144 -133 -212 -390 -212c-148 0 -260 22 -283 28l27 152c71 -3 184 -10 250 -10c81 0 92 8 98 42l2 11c-21 -2 -45 -4 -62 -4c-178 0 -270 80 -270 225c0 21 2 43 6 67l8 46c35 201 168 264 434 264c110 0 204 -7 285 -15zM490 410
c-11 1 -18 2 -32 2c-40 0 -51 -20 -62 -83l-8 -44c-3 -15 -4 -27 -4 -38c0 -27 10 -42 38 -42c13 0 23 0 32 1zM812 810c-48 -148 -193 -164 -281 -164c-81 0 -251 14 -252 164h153c2 -46 60 -54 105 -54c46 0 106 8 124 54h151z" />
    <glyph glyph-name="gcircumflex" unicode="&#x11d;" horiz-adv-x="765" 
d="M819 595l-105 -594c-25 -144 -133 -212 -390 -212c-148 0 -260 22 -283 28l27 152c71 -3 184 -10 250 -10c81 0 92 8 98 42l2 11c-21 -2 -45 -4 -62 -4c-178 0 -270 80 -270 225c0 21 2 43 6 67l8 46c35 201 168 264 434 264c110 0 204 -7 285 -15zM490 410
c-11 1 -18 2 -32 2c-40 0 -51 -20 -62 -83l-8 -44c-3 -15 -4 -27 -4 -38c0 -27 10 -42 38 -42c13 0 23 0 32 1zM821 650h-241l-49 54l-70 -54h-251l159 136h342z" />
    <glyph glyph-name="gcommaaccent" unicode="&#x123;" horiz-adv-x="765" 
d="M819 595l-105 -594c-25 -144 -133 -212 -390 -212c-148 0 -260 22 -283 28l27 152c71 -3 184 -10 250 -10c81 0 92 8 98 42l2 11c-21 -2 -45 -4 -62 -4c-178 0 -270 80 -270 225c0 21 2 43 6 67l8 46c35 201 168 264 434 264c110 0 204 -7 285 -15zM490 410
c-11 1 -18 2 -32 2c-40 0 -51 -20 -62 -83l-8 -44c-3 -15 -4 -27 -4 -38c0 -27 10 -42 38 -42c13 0 23 0 32 1zM361 650l130 138h256l-92 -138h-294z" />
    <glyph glyph-name="gdotaccent" unicode="&#x121;" horiz-adv-x="765" 
d="M819 595l-105 -594c-25 -144 -133 -212 -390 -212c-148 0 -260 22 -283 28l27 152c71 -3 184 -10 250 -10c81 0 92 8 98 42l2 11c-21 -2 -45 -4 -62 -4c-178 0 -270 80 -270 225c0 21 2 43 6 67l8 46c35 201 168 264 434 264c110 0 204 -7 285 -15zM490 410
c-11 1 -18 2 -32 2c-40 0 -51 -20 -62 -83l-8 -44c-3 -15 -4 -27 -4 -38c0 -27 10 -42 38 -42c13 0 23 0 32 1zM673 650h-316l24 136h316z" />
    <glyph glyph-name="hbar" unicode="&#x127;" 
d="M117 652l18 92h50l8 42h301l-8 -42h161l-18 -92h-159l-13 -75c62 27 125 33 165 33c151 0 186 -67 186 -148c0 -34 -6 -69 -12 -104l-62 -358h-301l65 373c1 8 2 15 2 20c0 16 -7 21 -25 21c-17 0 -34 -5 -48 -11l-71 -403h-301l114 652h-52z" />
    <glyph glyph-name="hcircumflex" unicode="&#x125;" 
d="M808 462c0 -34 -6 -69 -12 -104l-62 -358h-301l65 373c1 8 2 15 2 20c0 16 -7 21 -25 21c-17 0 -34 -5 -48 -11l-71 -403h-301l138 786h301l-37 -209c62 27 125 33 165 33c151 0 186 -67 186 -148zM842 813h-241l-49 54l-70 -54h-251l159 136h342z" />
    <glyph glyph-name="ibreve" unicode="&#x12d;" horiz-adv-x="411" 
d="M607 810c-48 -148 -193 -164 -281 -164c-81 0 -251 14 -252 164h153c2 -46 60 -54 105 -54c46 0 106 8 124 54h151zM356 0h-301l104 595h301z" />
    <glyph glyph-name="ij" unicode="&#x133;" horiz-adv-x="808" 
d="M460 595l-104 -595h-301l104 595h301zM501 786l-25 -142h-315l25 142h315zM857 595l-104 -591c-29 -166 -116 -216 -290 -216c-63 0 -115 6 -141 12l29 164c28 -1 39 -1 51 -1c37 0 44 8 50 41l104 591h301zM898 786l-25 -142h-315l25 142h315z" />
    <glyph glyph-name="imacron" unicode="&#x12b;" horiz-adv-x="411" 
d="M566 650h-507l24 136h507zM356 0h-301l104 595h301z" />
    <glyph glyph-name="iogonek" unicode="&#x12f;" horiz-adv-x="411" 
d="M369 -191c-43 -11 -128 -27 -215 -27c-96 0 -165 22 -165 103c0 46 23 83 66 116l104 594h301l-104 -595c-29 -7 -101 -26 -101 -58c0 -17 14 -21 41 -21c34 0 69 3 93 5zM476 644h-315l25 142h315z" />
    <glyph glyph-name="itilde" unicode="&#x129;" horiz-adv-x="411" 
d="M625 814c-17 -147 -110 -169 -171 -169c-22 0 -65 2 -116 18l-53 17c-21 7 -37 10 -48 11c-19 0 -26 -9 -32 -44h-149c17 149 109 170 177 170c27 0 59 -4 107 -18l54 -16c22 -7 34 -12 51 -12c18 0 29 8 32 43h148zM356 0h-301l104 595h301z" />
    <glyph glyph-name="jcircumflex" unicode="&#x135;" horiz-adv-x="411" 
d="M356 4c-29 -166 -116 -216 -290 -216c-63 0 -115 6 -141 12l29 164c28 -1 39 -1 51 -1c37 0 44 8 50 41l104 591h301zM622 650h-241l-49 54l-70 -54h-251l159 136h342z" />
    <glyph glyph-name="kcommaaccent" unicode="&#x137;" horiz-adv-x="777" 
d="M868 595l-189 -290l98 -305h-315l-63 253l-44 -253h-300l138 786h300l-79 -448l161 257h293zM552 -56l-130 -138h-256l92 138h294z" />
    <glyph glyph-name="lacute" unicode="&#x13a;" horiz-adv-x="411" 
d="M494 786l-138 -786h-301l138 786h301zM678 959l-215 -136h-272l157 136h330z" />
    <glyph glyph-name="lcaron" unicode="&#x13e;" horiz-adv-x="669" 
d="M494 786l-138 -786h-301l138 786h301zM846 786l-177 -289h-200l130 289h247z" />
    <glyph glyph-name="lcommaaccent" unicode="&#x13c;" horiz-adv-x="411" 
d="M494 786l-138 -786h-301l138 786h301zM347 -56l-130 -138h-256l92 138h294z" />
    <glyph glyph-name="ldot" unicode="&#x140;" horiz-adv-x="691" 
d="M494 786l-138 -786h-301l138 786h301zM736 269h-276l35 197h276z" />
    <glyph glyph-name="nacute" unicode="&#x144;" horiz-adv-x="784" 
d="M734 0h-301l65 373c2 10 3 17 3 23c0 13 -6 18 -27 18c-17 0 -41 -8 -48 -12l-70 -402h-301l104 595h276l-8 -50c56 40 133 65 203 65c148 0 181 -62 181 -137c0 -32 -6 -67 -12 -100zM834 786l-215 -136h-272l157 136h330z" />
    <glyph glyph-name="ncaron" unicode="&#x148;" horiz-adv-x="784" 
d="M734 0h-301l65 373c1 8 2 14 2 19c0 17 -8 22 -26 22c-17 0 -41 -8 -48 -12l-70 -402h-301l104 595h276l-8 -50c56 40 133 65 203 65c148 0 181 -62 181 -137c0 -27 -5 -60 -12 -100zM227 786h246l51 -53l68 53h246l-158 -136h-342z" />
    <glyph glyph-name="ncommaaccent" unicode="&#x146;" horiz-adv-x="784" 
d="M734 0h-301l65 373c6 32 0 41 -24 41c-17 0 -41 -8 -48 -12l-70 -402h-301l104 595h276l-8 -50c56 40 133 65 203 65c211 0 189 -126 169 -237zM546 -56l-130 -138h-257l93 138h294z" />
    <glyph glyph-name="obreve" unicode="&#x14f;" horiz-adv-x="736" 
d="M762 383c-2 -24 -3 -51 -8 -80l-8 -42c-39 -221 -178 -277 -371 -277c-185 0 -296 65 -296 228c0 24 1 50 7 79l8 42c39 221 179 277 370 277c186 0 298 -64 298 -227zM465 378c0 27 -9 34 -26 34c-27 0 -36 -15 -51 -94l-8 -42c-5 -28 -7 -48 -7 -62c0 -26 8 -33 25 -33
c27 0 37 16 52 95l8 42c5 27 7 46 7 60zM777 810c-48 -148 -193 -164 -281 -164c-81 0 -251 14 -252 164h153c2 -46 60 -54 105 -54c46 0 106 8 124 54h151z" />
    <glyph glyph-name="ohungarumlaut" unicode="&#x151;" horiz-adv-x="736" 
d="M762 383c-2 -24 -3 -51 -8 -80l-8 -42c-39 -221 -178 -277 -371 -277c-185 0 -296 65 -296 228c0 24 1 50 7 79l8 42c39 221 179 277 370 277c186 0 298 -64 298 -227zM465 378c0 27 -9 34 -26 34c-27 0 -36 -15 -51 -94l-8 -42c-5 -28 -7 -48 -7 -62c0 -26 8 -33 25 -33
c27 0 37 16 52 95l8 42c5 27 7 46 7 60zM1009 788l-215 -136h-239l157 136h297zM340 788h297l-215 -136h-239z" />
    <glyph glyph-name="omacron" unicode="&#x14d;" horiz-adv-x="736" 
d="M762 383c-2 -24 -3 -51 -8 -80l-8 -42c-39 -221 -178 -277 -371 -277c-185 0 -296 65 -296 228c0 24 1 50 7 79l8 42c39 221 179 277 370 277c186 0 298 -64 298 -227zM465 378c0 27 -9 34 -26 34c-27 0 -36 -15 -51 -94l-8 -42c-5 -28 -7 -48 -7 -62c0 -26 8 -33 25 -33
c27 0 37 16 52 95l8 42c5 27 7 46 7 60zM730 650h-507l24 136h507z" />
    <glyph glyph-name="oslashacute" unicode="&#x1ff;" horiz-adv-x="736" 
d="M819 786l-215 -136h-272l157 136h330zM15 -32l108 101c-29 35 -44 82 -44 143c0 24 2 50 7 79l8 42c39 221 179 277 370 277c54 0 102 -5 143 -17l38 35h185l-112 -104c29 -35 44 -81 44 -141c0 -24 -3 -51 -8 -80l-8 -42c-39 -221 -178 -277 -371 -277
c-53 0 -100 6 -140 17l-35 -33h-185zM450 276l8 42c5 27 7 46 7 60c0 27 -9 34 -26 34c-26 0 -37 -15 -51 -94l-8 -42c-5 -28 -7 -48 -7 -62c0 -26 8 -33 25 -33c26 0 38 16 52 95z" />
    <glyph glyph-name="racute" unicode="&#x155;" horiz-adv-x="524" 
d="M611 610l-40 -226c-25 0 -49 1 -74 1s-50 -1 -74 -1l-67 -384h-301l104 595h273l-9 -51c73 64 149 66 188 66zM743 786l-215 -136h-272l157 136h330z" />
    <glyph glyph-name="rcaron" unicode="&#x159;" horiz-adv-x="524" 
d="M611 610l-40 -226c-25 0 -49 1 -74 1s-50 -1 -74 -1l-67 -384h-301l104 595h273l-9 -51c73 64 149 66 188 66zM108 786h241l51 -53l68 53h251l-158 -136h-342z" />
    <glyph glyph-name="rcommaaccent" unicode="&#x157;" horiz-adv-x="524" 
d="M611 610l-40 -226c-25 0 -49 1 -74 1s-50 -1 -74 -1l-67 -384h-301l104 595h273l-9 -51c73 64 149 66 188 66zM381 -56l-130 -138h-256l92 138h294z" />
    <glyph glyph-name="sacute" unicode="&#x15b;" horiz-adv-x="634" 
d="M676 583l-26 -147c-82 6 -175 10 -214 10c-20 0 -41 0 -41 -17c0 -15 11 -17 39 -27l61 -22c98 -35 145 -83 145 -166c0 -193 -177 -229 -360 -229c-85 0 -185 11 -236 22l26 151c20 -1 123 -8 220 -8c26 0 51 0 51 23c0 18 -10 19 -45 32l-49 18
c-88 32 -148 81 -148 178c0 182 159 209 326 209c99 0 194 -11 251 -27zM742 786l-215 -136h-272l157 136h330z" />
    <glyph glyph-name="scedilla" unicode="&#x15f;" horiz-adv-x="634" 
d="M676 583l-26 -147c-82 6 -175 10 -214 10c-20 0 -41 0 -41 -17c0 -15 11 -17 39 -27l61 -22c98 -35 145 -83 145 -166c0 -193 -177 -229 -360 -229c-85 0 -185 11 -236 22l26 151c20 -1 123 -8 220 -8c26 0 51 0 51 23c0 18 -10 19 -45 32l-49 18
c-88 32 -148 81 -148 178c0 182 159 209 326 209c99 0 194 -11 251 -27zM482 -56l-149 -138h-260l113 138h296z" />
    <glyph glyph-name="scircumflex" unicode="&#x15d;" horiz-adv-x="634" 
d="M676 583l-26 -147c-82 6 -175 10 -214 10c-20 0 -41 0 -41 -17c0 -15 11 -17 39 -27l61 -22c98 -35 145 -83 145 -166c0 -193 -177 -229 -360 -229c-85 0 -185 11 -236 22l26 151c20 -1 123 -8 220 -8c26 0 51 0 51 23c0 18 -10 19 -45 32l-49 18
c-88 32 -148 81 -148 178c0 182 159 209 326 209c99 0 194 -11 251 -27zM732 650h-241l-49 54l-70 -54h-251l159 136h342z" />
    <glyph glyph-name="scommaaccent" unicode="&#x219;" horiz-adv-x="634" 
d="M676 583l-26 -147c-82 6 -175 10 -214 10c-20 0 -41 0 -41 -17c0 -15 11 -17 39 -27l61 -22c98 -35 145 -83 145 -166c0 -193 -177 -229 -360 -229c-85 0 -185 11 -236 22l26 151c20 -1 123 -8 220 -8c26 0 51 0 51 23c0 18 -10 19 -45 32l-49 18
c-88 32 -148 81 -148 178c0 182 159 209 326 209c99 0 194 -11 251 -27zM481 -56l-130 -138h-256l92 138h294z" />
    <glyph glyph-name="tbar" unicode="&#x167;" horiz-adv-x="525" 
d="M600 595l-25 -144h-98l-10 -56h98l-25 -144h-98l-10 -53c-2 -10 -3 -19 -3 -25c0 -14 6 -18 29 -18c20 0 52 2 61 2l-27 -155c-15 -4 -85 -18 -168 -18c-132 0 -197 53 -197 159c0 17 1 36 5 56l9 52h-82l25 144h82l10 56h-82l25 144h82l24 134h301l-24 -134h98z" />
    <glyph glyph-name="tcaron" unicode="&#x165;" horiz-adv-x="608" 
d="M788 786l-104 -158h-146l57 158h193zM599 595l-32 -184h-98l-35 -196c-5 -25 -5 -32 -5 -37c0 -13 6 -18 29 -18c21 0 53 2 62 2l-28 -160c-15 -4 -86 -18 -168 -18c-130 0 -195 55 -195 166c0 20 2 41 6 64l34 197l-80 10l30 174h82l26 144h300l-26 -144h98z" />
    <glyph glyph-name="tcedilla" unicode="&#x163;" horiz-adv-x="525" 
d="M449 -58l-129 -139h-256l92 139h293zM599 595l-32 -184h-98l-35 -196c-5 -25 -5 -32 -5 -37c0 -13 6 -18 29 -18c21 0 53 2 62 2l-28 -160c-15 -4 -86 -18 -168 -18c-130 0 -195 55 -195 166c0 20 2 41 6 64l34 197l-80 10l30 174h82l26 144h300l-26 -144h98z" />
    <glyph glyph-name="tcommaaccent" unicode="&#x21b;" horiz-adv-x="525" 
d="M428 -56l-130 -138h-257l93 138h294zM599 595l-32 -184h-98l-35 -196c-5 -25 -5 -32 -5 -37c0 -13 6 -18 29 -18c21 0 53 2 62 2l-28 -160c-15 -4 -86 -18 -168 -18c-130 0 -195 55 -195 166c0 20 2 41 6 64l34 197l-80 10l30 174h82l26 144h300l-26 -144h98z" />
    <glyph glyph-name="ubreve" unicode="&#x16d;" 
d="M838 595l-104 -595h-276l8 50c-46 -33 -121 -66 -214 -66c-137 0 -167 74 -167 153c0 34 6 70 11 100l63 358h301l-65 -373c-1 -8 -2 -15 -2 -20c0 -16 7 -21 26 -21c16 0 41 8 47 11l71 403h301zM800 810c-48 -148 -193 -164 -281 -164c-81 0 -251 14 -252 164h153
c2 -46 60 -54 105 -54c46 0 106 8 124 54h151z" />
    <glyph glyph-name="uhungarumlaut" unicode="&#x171;" 
d="M838 595l-104 -595h-276l8 50c-46 -33 -121 -66 -214 -66c-137 0 -167 74 -167 153c0 34 6 70 11 100l63 358h301l-65 -373c-1 -8 -2 -15 -2 -20c0 -16 7 -21 26 -21c16 0 41 8 47 11l71 403h301zM1029 788l-215 -136h-239l157 136h297zM360 788h297l-215 -136h-239z" />
    <glyph glyph-name="umacron" unicode="&#x16b;" 
d="M838 595l-104 -595h-276l8 50c-46 -33 -121 -66 -214 -66c-137 0 -167 74 -167 153c0 34 6 70 11 100l63 358h301l-65 -373c-1 -8 -2 -15 -2 -20c0 -16 7 -21 26 -21c16 0 41 8 47 11l71 403h301zM764 650h-507l24 136h507z" />
    <glyph glyph-name="uogonek" unicode="&#x173;" 
d="M734 0c-114 -27 -149 -41 -149 -63c0 -13 15 -16 42 -16c34 0 69 3 93 5l-20 -117c-43 -11 -128 -27 -215 -27c-113 0 -159 30 -159 94c0 66 56 102 132 125l8 49c-46 -33 -121 -66 -214 -66c-137 0 -167 74 -167 153c0 34 6 70 11 100l63 358h301l-65 -373
c-1 -8 -2 -15 -2 -20c0 -16 7 -21 26 -21c16 0 41 8 47 11l71 403h301z" />
    <glyph glyph-name="uring" unicode="&#x16f;" 
d="M838 595l-104 -595h-276l8 50c-46 -33 -121 -66 -214 -66c-137 0 -167 74 -167 153c0 34 6 70 11 100l63 358h301l-65 -373c-1 -8 -2 -15 -2 -20c0 -16 7 -21 26 -21c16 0 41 8 47 11l71 403h301zM705 767c0 -82 -75 -137 -181 -137s-182 55 -182 137
c0 83 76 138 182 138s181 -55 181 -138zM579 768c0 24 -21 40 -55 40c-33 0 -55 -16 -55 -40s21 -40 55 -40s55 16 55 40z" />
    <glyph glyph-name="utilde" unicode="&#x169;" 
d="M838 595l-104 -595h-276l8 50c-46 -33 -121 -66 -214 -66c-137 0 -167 74 -167 153c0 34 6 70 11 100l63 358h301l-65 -373c-1 -8 -2 -15 -2 -20c0 -16 7 -21 26 -21c16 0 41 8 47 11l71 403h301zM822 814c-17 -147 -110 -169 -171 -169c-22 0 -65 2 -116 18l-53 17
c-21 7 -37 10 -48 11c-19 0 -26 -9 -32 -44h-149c17 149 109 170 177 170c27 0 59 -4 107 -18l54 -16c22 -7 34 -12 51 -12c18 0 29 8 32 43h148z" />
    <glyph glyph-name="wacute" unicode="&#x1e83;" horiz-adv-x="1093" 
d="M993 786l-215 -136h-272l157 136h330zM1172 595l-217 -595h-342l-18 139c-3 23 -4 45 -4 117c-15 -48 -31 -85 -47 -117l-67 -139h-339l-9 595h299l-17 -211c-5 -65 -7 -99 -10 -130c10 31 29 80 55 130l42 80h251l13 -79c9 -51 11 -100 12 -131c7 31 18 74 34 131
l57 210h307z" />
    <glyph glyph-name="wcircumflex" unicode="&#x175;" horiz-adv-x="1093" 
d="M944 650h-241l-49 54l-70 -54h-251l159 136h342zM1172 595l-217 -595h-342l-18 139c-3 23 -4 45 -4 117c-15 -48 -31 -85 -47 -117l-67 -139h-339l-9 595h299l-17 -211c-5 -65 -7 -99 -10 -130c10 31 29 80 55 130l42 80h251l13 -79c9 -51 11 -100 12 -131
c7 31 18 74 34 131l57 210h307z" />
    <glyph glyph-name="wdieresis" unicode="&#x1e85;" horiz-adv-x="1093" 
d="M929 788l-24 -138h-228l24 138h228zM408 788h228l-24 -138h-228zM1172 595l-217 -595h-342l-18 139c-3 23 -4 45 -4 117c-15 -48 -31 -85 -47 -117l-67 -139h-339l-9 595h299l-17 -211c-5 -65 -7 -99 -10 -130c10 31 29 80 55 130l42 80h251l13 -79
c9 -51 11 -100 12 -131c7 31 18 74 34 131l57 210h307z" />
    <glyph glyph-name="wgrave" unicode="&#x1e81;" horiz-adv-x="1093" 
d="M792 650h-266l-168 136h326zM1172 595l-217 -595h-342l-18 139c-3 23 -4 45 -4 117c-15 -48 -31 -85 -47 -117l-67 -139h-339l-9 595h299l-17 -211c-5 -65 -7 -99 -10 -130c10 31 29 80 55 130l42 80h251l13 -79c9 -51 11 -100 12 -131c7 31 18 74 34 131l57 210h307z
" />
    <glyph glyph-name="ycircumflex" unicode="&#x177;" horiz-adv-x="768" 
d="M857 595l-236 -544c-90 -208 -193 -259 -362 -259c-84 0 -171 5 -238 18l29 162c57 -1 79 -1 113 -1c24 0 38 4 44 22l7 20l-95 582h313l-7 -273c-1 -50 -5 -115 -7 -158c12 43 29 99 48 158l87 273h304zM799 650h-241l-49 54l-70 -54h-251l159 136h342z" />
    <glyph glyph-name="ygrave" unicode="&#x1ef3;" horiz-adv-x="768" 
d="M857 595l-236 -544c-90 -208 -193 -259 -362 -259c-84 0 -171 5 -238 18l29 162c57 -1 79 -1 113 -1c24 0 38 4 44 22l7 20l-95 582h313l-7 -273c-1 -50 -5 -115 -7 -158c12 43 29 99 48 158l87 273h304zM662 650h-266l-168 136h326z" />
    <glyph glyph-name="zacute" unicode="&#x17a;" horiz-adv-x="639" 
d="M702 595l-30 -175l-243 -236h202l-32 -184h-559l28 162l257 247h-210l32 186h555zM771 786l-215 -136h-272l157 136h330z" />
    <glyph glyph-name="zdotaccent" unicode="&#x17c;" horiz-adv-x="639" 
d="M702 595l-30 -175l-243 -236h202l-32 -184h-559l28 162l257 247h-210l32 186h555zM599 650h-316l24 136h316z" />
    <glyph glyph-name="kgreenlandic" unicode="&#x138;" horiz-adv-x="777" 
d="M777 0h-315l-63 253l-44 -253h-300l104 595h300l-45 -257l161 257h293l-189 -290z" />
    <glyph glyph-name="napostrophe" unicode="&#x149;" horiz-adv-x="963" 
d="M913 0h-301l65 373c6 32 0 41 -24 41c-17 0 -41 -8 -48 -12l-70 -402h-301l104 595h276l-8 -50c56 40 133 65 203 65c211 0 189 -126 169 -237zM419 786l-177 -289h-200l130 289h247z" />
    <glyph glyph-name="Delta" unicode="&#x2206;" horiz-adv-x="908" 
d="M876 0h-844l285 743h533zM548 194l10 292c1 31 3 74 5 105h-2c-9 -31 -22 -74 -32 -105l-93 -292h112z" />
    <glyph glyph-name="uni03A9" unicode="&#x3a9;" horiz-adv-x="845" 
d="M900 529c0 -23 -2 -47 -13 -111c-24 -136 -83 -195 -198 -231l-4 -28h134l-28 -159h-337l48 276c45 10 54 53 68 132c10 56 11 70 11 81c0 38 -17 54 -63 54c-61 0 -81 -27 -93 -95c-13 -74 -17 -101 -17 -122c0 -28 8 -44 31 -50l-48 -276h-337l28 159h134l4 28
c-80 28 -116 96 -116 190c0 25 3 52 15 118c37 208 180 269 438 269c232 0 343 -77 343 -235z" />
    <glyph glyph-name="uni03BC" unicode="&#x3bc;" horiz-adv-x="810" 
d="M838 595l-104 -595h-276l8 50c-27 -20 -65 -41 -111 -51l-34 -192h-301l139 788h301l-65 -373c-1 -8 -2 -15 -2 -20c0 -16 7 -21 26 -21c16 0 41 8 47 11l71 403h301z" />
    <glyph glyph-name="pi" unicode="&#x3c0;" horiz-adv-x="883" 
d="M915 -8c-30 -6 -85 -9 -118 -9c-174 0 -253 50 -253 215v169h-76v-367h-301v368h-70v227h818v-227h-69v-175c0 -28 6 -36 32 -36c12 0 20 0 37 1v-166z" />
    <glyph glyph-name="uni037E" unicode="&#x37e;" horiz-adv-x="341" 
d="M355 269h-276l35 197h276z" />
    <glyph glyph-name="exclamdbl" unicode="&#x203c;" horiz-adv-x="859" 
d="M790 0h-312l35 200h312zM942 786l-120 -528h-285l67 528h338zM379 0h-312l35 200h312zM531 786l-120 -528h-285l67 528h338z" />
    <glyph glyph-name="franc" unicode="&#x20a3;" horiz-adv-x="709" 
d="M400 0h-331l17 99h-37l21 118h37l93 526h607l-37 -205h-276l-13 -73h276l-33 -191h-276l-10 -57h85l-21 -118h-85z" />
    <glyph glyph-name="lira" unicode="&#x20a4;" horiz-adv-x="714" 
d="M812 743l-34 -190c-82 3 -141 5 -193 5c-62 0 -70 -9 -80 -65l-3 -18h148l-14 -81h-148l-9 -53h148l-14 -80h-148l-3 -16c-4 -21 -10 -33 -17 -45h271l-35 -200h-626l27 156c37 26 57 48 65 89l3 16h-72l14 80h72l9 53h-72l14 81h72l3 18c36 204 161 274 366 274
c71 0 163 -6 256 -24z" />
    <glyph glyph-name="peseta" unicode="&#x20a7;" horiz-adv-x="900" 
d="M967 564l-27 -152h-58c-66 -169 -236 -200 -398 -200c-19 0 -28 0 -57 1l-37 -213h-313l72 412h-45l27 152h45l32 179c108 12 227 19 329 19c184 0 337 -27 363 -177l3 -21h64zM592 513c0 31 -19 39 -61 39c-16 0 -36 -1 -44 -1l-22 -125c10 -1 27 -1 45 -1
c48 0 72 18 79 62c2 13 3 20 3 26z" />
    <glyph glyph-name="Euro" unicode="&#x20ac;" horiz-adv-x="715" 
d="M812 739l-36 -202c-49 3 -109 5 -162 5c-78 0 -94 -9 -109 -68h248l-29 -71h-232l-12 -64h216l-30 -71h-197c-1 -8 -1 -14 -1 -20c0 -44 21 -47 86 -47c53 0 113 2 164 5l-36 -202c-50 -15 -163 -25 -214 -25c-200 0 -329 61 -329 247c0 13 1 28 2 42h-62l12 71h55l12 64
h-55l12 71h55c52 228 170 290 413 290c74 0 183 -10 229 -25z" />
    <glyph glyph-name="litre" unicode="&#x2113;" horiz-adv-x="630" 
d="M665 43c-53 -30 -130 -63 -253 -63c-151 0 -249 47 -249 218v8c-12 -8 -22 -16 -37 -24l-41 64c26 19 52 36 78 55v304c0 142 84 194 268 194c167 0 230 -41 230 -141c0 -97 -72 -195 -197 -286v-174c0 -58 22 -73 61 -73c25 0 55 9 82 23zM574 656c0 29 -7 56 -52 56
c-55 0 -58 -44 -58 -107v-139c74 62 110 130 110 190z" />
    <glyph glyph-name="Omega" unicode="&#x2126;" horiz-adv-x="845" 
d="M900 529c0 -23 -2 -47 -13 -111c-24 -136 -83 -195 -198 -231l-4 -28h134l-28 -159h-337l48 276c45 10 54 53 68 132c10 56 11 70 11 81c0 38 -17 54 -63 54c-61 0 -81 -27 -93 -95c-13 -74 -17 -101 -17 -122c0 -28 8 -44 31 -50l-48 -276h-337l28 159h134l4 28
c-80 28 -116 96 -116 190c0 25 3 52 15 118c37 208 180 269 438 269c232 0 343 -77 343 -235z" />
    <glyph glyph-name="estimated" unicode="&#x212e;" horiz-adv-x="657" 
d="M690 282h-464v-193c46 -40 99 -63 164 -63c121 0 179 59 227 127l33 -19c-56 -81 -125 -141 -260 -141c-176 0 -293 133 -293 290c0 159 113 290 297 290s296 -134 296 -291zM560 315v163c-39 33 -103 62 -166 62c-65 0 -125 -21 -168 -62v-163h334z" />
    <glyph glyph-name="partialdiff" unicode="&#x2202;" horiz-adv-x="749" 
d="M781 425c0 -63 -7 -123 -21 -180c-44 -179 -162 -261 -363 -261c-195 0 -300 85 -300 241c0 32 2 63 9 93c37 195 179 238 351 238c6 0 28 0 49 -5c-3 8 -7 17 -13 26c-22 44 -72 84 -189 84c-30 0 -66 -2 -108 -9l18 143c54 10 105 15 153 15c267 0 414 -153 414 -385z
M476 321c0 29 -9 37 -28 37c-26 0 -40 -22 -49 -83c-4 -22 -5 -41 -5 -57c0 -29 9 -37 28 -37c23 0 36 20 47 76c5 24 7 45 7 64z" />
    <glyph glyph-name="product" unicode="&#x220f;" horiz-adv-x="890" 
d="M922 515h-65v-591h-305v590h-85v-590h-305v591h-65v228h825v-228z" />
    <glyph glyph-name="summation" unicode="&#x2211;" horiz-adv-x="671" 
d="M704 -76h-607v205l188 210l-188 199v205h607v-205h-276l139 -150v-100l-139 -159h276v-205z" />
    <glyph glyph-name="uni2219" unicode="&#x2219;" horiz-adv-x="377" 
d="M373 269h-276l35 197h276z" />
    <glyph glyph-name="radical" unicode="&#x221a;" horiz-adv-x="882" 
d="M915 870l-275 -934h-304l-112 392h-127v203h297l93 -347l185 686h243z" />
    <glyph glyph-name="infinity" unicode="&#x221e;" horiz-adv-x="669" 
d="M701 370c0 -79 -9 -261 -185 -261h-6c-45 0 -82 15 -112 45c-26 -29 -68 -47 -110 -47h-7c-174 0 -184 171 -184 263v23c0 77 9 261 186 261h7c45 0 83 -16 110 -46c29 34 67 47 112 47h5c175 0 184 -170 184 -262v-23zM544 370v23c0 86 0 122 -30 122h-3
c-18 0 -26 -32 -36 -129c-5 -42 -7 -51 -15 -112c14 -20 27 -27 45 -27h3c34 0 36 47 36 123zM340 485c-9 17 -27 31 -46 31h-3c-35 0 -36 -57 -36 -123v-23c0 -73 0 -122 32 -122h2c20 0 24 24 37 133c3 29 6 53 14 104z" />
    <glyph glyph-name="integral" unicode="&#x222b;" horiz-adv-x="561" 
d="M593 643c-39 1 -52 2 -59 2c-32 0 -38 -4 -38 -29v-638c0 -141 -84 -186 -209 -186c-80 0 -143 10 -190 19v144c40 -2 52 -2 60 -2c32 0 38 4 38 29v638c0 140 83 185 208 185c81 0 144 -9 190 -19v-143z" />
    <glyph glyph-name="approxequal" unicode="&#x2248;" horiz-adv-x="639" 
d="M661 597c0 -138 -93 -163 -157 -163c-22 0 -62 3 -111 18l-55 17c-23 7 -39 10 -49 11c-14 0 -19 -7 -19 -25v-19h-162v19c0 138 93 163 163 163c27 0 56 -4 103 -18l65 -19c15 -4 30 -9 43 -9c14 0 17 7 17 25v18h162v-18zM661 336c0 -138 -93 -163 -157 -163
c-22 0 -62 3 -111 18l-55 17c-23 7 -37 9 -49 10c-14 0 -19 -7 -19 -24v-19h-162v19c0 137 93 163 163 163c27 0 56 -4 103 -18l65 -19c11 -3 27 -9 43 -9c14 0 17 7 17 25v18h162v-18z" />
    <glyph glyph-name="notequal" unicode="&#x2260;" horiz-adv-x="639" 
d="M666 108h-222l-33 -120h-285l32 120h-55v202h116l36 131h-152v203h213l31 111h284l-31 -111h66v-203h-126l-36 -131h162v-202z" />
    <glyph glyph-name="lessequal" unicode="&#x2264;" horiz-adv-x="639" 
d="M667 0h-557v147h557v-147zM657 206h-293l-263 228l263 228h293l-258 -228z" />
    <glyph glyph-name="greaterequal" unicode="&#x2265;" horiz-adv-x="639" 
d="M658 0h-557v147h557v-147zM667 434l-264 -228h-293l258 228l-258 228h293z" />
    <glyph glyph-name="lozenge" unicode="&#x25ca;" horiz-adv-x="688" 
d="M720 371l-313 -353l-310 353l310 358zM509 371l-102 121l-99 -121l99 -120z" />
    <glyph glyph-name="uni00A0" unicode="&#xa0;" horiz-adv-x="218" 
 />
    <glyph glyph-name="uni00AD" unicode="&#xad;" horiz-adv-x="346" 
d="M350 208h-282l32 178h282z" />
    <glyph glyph-name="uni02C9" unicode="&#x2c9;" horiz-adv-x="571" 
d="M653 650h-507l24 136h507z" />
    <glyph glyph-name="Dotaccent" horiz-adv-x="380" 
d="M485 782h-316l24 136h316z" />
    <glyph glyph-name="Breve" horiz-adv-x="598" 
d="M731 942c-48 -148 -196 -164 -285 -164c-70 0 -250 16 -248 164h153c1 -46 59 -54 104 -54c46 0 106 8 125 54h151z" />
    <glyph glyph-name="Ogonek" horiz-adv-x="460" 
d="M393 -191c-43 -11 -128 -27 -215 -27c-113 0 -165 30 -165 94c0 98 131 118 230 131l184 -7c-114 -27 -149 -41 -149 -63c0 -13 15 -16 42 -16c34 0 69 3 93 5z" />
    <glyph glyph-name="Cedilla" horiz-adv-x="449" 
d="M407 -56l-149 -138h-260l113 138h296z" />
    <glyph glyph-name="Ring" horiz-adv-x="428" 
d="M459 899c0 -82 -75 -137 -181 -137s-182 55 -182 137c0 83 76 138 182 138s181 -55 181 -138zM333 900c0 24 -21 40 -55 40c-33 0 -55 -16 -55 -40s21 -40 55 -40s55 16 55 40z" />
    <glyph glyph-name="Tilde" horiz-adv-x="604" 
d="M738 946c-25 -144 -109 -169 -170 -169c-22 0 -66 2 -116 18l-53 17c-21 6 -37 11 -48 11c-19 0 -27 -9 -33 -44h-149c18 146 109 170 177 170c27 0 59 -3 108 -18l53 -16c22 -7 35 -12 52 -12c18 0 25 8 31 43h148z" />
    <glyph glyph-name="Circumflex" horiz-adv-x="676" 
d="M780 782h-241l-49 54l-70 -54h-251l159 136h342z" />
    <glyph glyph-name="Acute" horiz-adv-x="528" 
d="M656 918l-215 -136h-272l157 136h330z" />
    <glyph glyph-name="Caron" horiz-adv-x="676" 
d="M193 918h241l51 -54l68 54h251l-158 -136h-342z" />
    <glyph glyph-name="Dieresis" horiz-adv-x="624" 
d="M729 780h-228l24 138h228zM421 918l-24 -138h-228l24 138h228z" />
    <glyph glyph-name="Grave" horiz-adv-x="528" 
d="M627 782h-266l-168 136h326z" />
    <glyph glyph-name="Hungarumlaut" horiz-adv-x="867" 
d="M1111 918l-215 -136h-239l157 136h297zM423 918h297l-215 -136h-239z" />
    <glyph glyph-name="Macron" horiz-adv-x="571" 
d="M676 782h-507l24 136h507z" />
    <glyph glyph-name="commaaccent.cap" horiz-adv-x="426" 
d="M384 -56l-130 -138h-256l92 138h294z" />
    <glyph glyph-name="h.superior" horiz-adv-x="483" 
d="M174 786h184l-22 -125c37 16 71 20 93 20c96 0 118 -45 118 -97c0 -19 -3 -38 -6 -57l-37 -213h-185l39 224c1 4 1 8 1 11c0 9 -4 12 -14 12s-20 -3 -28 -7l-42 -240h-184z" />
    <glyph glyph-name="zero.slash" horiz-adv-x="808" 
d="M832 338c-42 -237 -161 -359 -424 -359c-84 0 -149 15 -197 41l-40 -41h-162l119 123c-25 45 -36 101 -36 166c0 34 3 71 13 137c35 238 161 359 424 359c89 0 156 -17 205 -47l45 47h162l-128 -132c22 -44 32 -97 32 -157c0 -34 -3 -71 -13 -137zM504 358l4 27
c10 68 16 109 16 133c0 26 -7 32 -24 32c-33 0 -45 -20 -66 -165l-4 -27c-10 -67 -16 -108 -16 -132c0 -26 7 -33 24 -33c33 0 40 21 66 165z" />
    <glyph glyph-name="percent.oldstyle" unicode="&#xfe6a;" horiz-adv-x="1133" 
d="M1022 647l-587 -647h-202l586 647h203zM499 442c-21 -120 -84 -182 -229 -182c-122 0 -168 63 -168 153c0 18 1 38 6 63c21 120 84 181 232 181c120 0 166 -61 166 -151c0 -18 -2 -38 -7 -64zM324 456c7 38 10 58 10 70c0 11 -4 17 -14 17c-18 0 -23 -12 -35 -81
c-6 -37 -9 -57 -9 -69c0 -13 4 -18 14 -18c18 0 23 19 34 81zM1147 171c-21 -120 -84 -182 -229 -182c-122 0 -168 63 -168 153c0 18 1 38 6 63c21 120 84 181 232 181c120 0 166 -61 166 -151c0 -18 -2 -38 -7 -64zM972 185c7 38 10 58 10 70c0 11 -4 17 -14 17
c-18 0 -23 -12 -35 -81c-6 -37 -9 -57 -9 -69c0 -13 4 -18 14 -18c18 0 23 19 34 81z" />
    <glyph glyph-name="perthousand.oldstyle" horiz-adv-x="1567" 
d="M1022 647l-587 -647h-202l586 647h203zM499 442c-21 -120 -84 -182 -229 -182c-122 0 -168 63 -168 153c0 18 1 38 6 63c21 120 84 181 232 181c120 0 166 -61 166 -151c0 -18 -2 -38 -7 -64zM324 456c7 38 10 58 10 70c0 11 -4 17 -14 17c-18 0 -23 -12 -35 -81
c-6 -37 -9 -57 -9 -69c0 -13 4 -18 14 -18c18 0 23 19 34 81zM1147 171c-21 -120 -84 -182 -229 -182c-122 0 -168 63 -168 153c0 18 1 38 6 63c21 120 84 181 232 181c120 0 166 -61 166 -151c0 -18 -2 -38 -7 -64zM972 185c7 38 10 58 10 70c0 11 -4 17 -14 17
c-18 0 -23 -12 -35 -81c-6 -37 -9 -57 -9 -69c0 -13 4 -18 14 -18c18 0 23 19 34 81zM1581 171c-21 -120 -84 -182 -229 -182c-122 0 -168 63 -168 153c0 18 1 38 6 63c21 120 84 181 232 181c120 0 166 -61 166 -151c0 -18 -2 -38 -7 -64zM1406 185c7 38 10 58 10 70
c0 11 -4 17 -14 17c-18 0 -23 -12 -35 -81c-6 -37 -9 -57 -9 -69c0 -13 4 -18 14 -18c18 0 23 19 34 81z" />
    <glyph glyph-name="zero.taboldstyle" horiz-adv-x="813" 
d="M838 409c0 -28 -2 -59 -12 -116c-38 -217 -166 -314 -425 -314c-220 0 -317 93 -317 255c0 28 2 57 12 114c39 218 167 314 425 314c220 0 317 -91 317 -253zM511 415c0 25 -8 34 -27 34c-33 0 -42 -27 -58 -115c-11 -62 -14 -88 -14 -106c0 -26 8 -35 27 -35
c33 0 41 27 57 115c11 63 15 89 15 107z" />
    <glyph glyph-name="one.taboldstyle" horiz-adv-x="813" 
d="M747 0h-681l34 198l178 9l34 194l-182 -38l37 211l282 73h236l-78 -440l174 -9z" />
    <glyph glyph-name="two.taboldstyle" horiz-adv-x="813" 
d="M155 458l29 162c74 23 204 42 328 42c229 0 315 -63 315 -170c0 -143 -94 -200 -234 -254l-81 -32h249l-36 -206h-655l36 206l188 86c116 52 190 78 190 135c0 32 -20 40 -81 40c-71 0 -176 -5 -248 -9z" />
    <glyph glyph-name="three.taboldstyle" horiz-adv-x="813" 
d="M763 147c0 -224 -195 -270 -398 -270c-119 0 -247 20 -305 43l30 168c72 -6 171 -10 265 -10c56 0 81 6 81 70c0 27 -20 33 -81 33h-183l32 178h185c78 0 97 14 97 74c0 27 -18 30 -63 30c-104 0 -188 -3 -268 -8l29 164c73 23 200 43 319 43c200 0 318 -51 318 -185
c0 -87 -39 -169 -119 -214c45 -24 61 -70 61 -116z" />
    <glyph glyph-name="four.taboldstyle" horiz-adv-x="813" 
d="M779 40h-77l-24 -136h-329l24 136h-325l30 170l491 437h240l-75 -421h77zM427 226l24 135l-138 -135h114z" />
    <glyph glyph-name="five.taboldstyle" horiz-adv-x="813" 
d="M830 647l-35 -198h-339l-17 -70h24c237 0 304 -62 304 -169c0 -260 -171 -327 -396 -327c-138 0 -244 19 -302 36l30 169c55 -4 124 -9 214 -9c78 0 100 9 109 57c3 14 3 19 3 23c0 29 -21 35 -83 35h-228l119 453h597z" />
    <glyph glyph-name="six.taboldstyle" horiz-adv-x="813" 
d="M800 220c-31 -172 -152 -241 -400 -241c-243 0 -301 110 -301 235c0 36 5 72 11 108l23 133c34 197 94 309 402 309c127 0 254 -21 309 -35l-30 -172c-117 7 -159 9 -262 9c-70 0 -75 -7 -88 -71l-3 -14c17 3 50 5 70 5c187 0 278 -52 278 -187c0 -19 -2 -39 -9 -79z
M478 239c6 37 9 52 9 62c0 16 -6 23 -26 23c-10 0 -24 -2 -28 -3l-14 -79c-4 -23 -7 -40 -7 -53c0 -17 6 -25 22 -25c29 0 35 25 44 75z" />
    <glyph glyph-name="seven.taboldstyle" horiz-adv-x="813" 
d="M829 440l-425 -535h-341l437 545h-337l35 198h668z" />
    <glyph glyph-name="eight.taboldstyle" horiz-adv-x="813" 
d="M873 584c0 -112 -48 -163 -116 -205c40 -31 59 -79 59 -133c0 -14 -1 -29 -5 -50c-34 -193 -184 -217 -405 -217h-8c-194 0 -327 44 -327 192c0 110 37 160 117 208c-35 29 -57 73 -57 131c0 14 1 29 5 52c32 180 178 202 400 202h8c208 0 329 -42 329 -180zM497 265
c0 26 -10 36 -34 36h-8c-34 0 -46 -19 -57 -84c-2 -11 -3 -21 -3 -29c0 -22 9 -33 34 -33h8c34 0 46 20 55 68c3 17 5 31 5 42zM547 555c0 20 -8 32 -34 32h-8c-45 0 -55 -52 -55 -90c0 -22 8 -34 33 -34h8c35 0 44 23 52 64c3 15 4 22 4 28z" />
    <glyph glyph-name="nine.taboldstyle" horiz-adv-x="813" 
d="M124 421c31 172 152 241 400 241c243 0 301 -110 301 -235c0 -36 -5 -72 -11 -108l-23 -133c-34 -197 -94 -309 -402 -309c-127 0 -254 21 -309 35l30 172c117 -7 159 -9 262 -9c70 0 75 7 88 71l3 14c-17 -3 -50 -5 -70 -5c-187 0 -278 52 -278 187c0 19 2 39 9 79z
M446 402c-6 -37 -9 -52 -9 -62c0 -16 6 -23 26 -23c10 0 24 2 28 3l14 79c4 23 7 40 7 53c0 17 -6 25 -22 25c-29 0 -35 -25 -44 -75z" />
    <glyph glyph-name="colonmonetary.taboldstyle" horiz-adv-x="651" 
d="M732 643l-33 -187c-90 3 -124 4 -174 4c-64 0 -96 -13 -114 -117l-7 -41c-4 -22 -6 -40 -6 -55c0 -55 27 -62 78 -62c58 0 124 1 175 2l-32 -184c-20 -6 -64 -12 -104 -16l-17 -96h-105l16 89c-28 0 -59 1 -82 2l-16 -91h-105l20 115c-103 31 -147 108 -147 218
c0 30 4 63 10 98l7 41c28 162 99 246 244 286l17 98h105l-15 -84c28 3 60 3 83 3l14 81h105l-15 -89c38 -3 72 -9 98 -15z" />
    <glyph glyph-name="Euro.taboldstyle" horiz-adv-x="701" 
d="M777 645l-31 -179c-55 4 -105 6 -153 6c-71 0 -99 -12 -117 -59h218l-21 -67h-216l-9 -48h209l-22 -67h-191c0 -44 17 -57 78 -57c50 0 93 1 173 3l-31 -174c-53 -14 -178 -23 -225 -23c-193 0 -314 63 -314 229c0 7 1 14 1 22h-54l12 67h47l8 48h-46l11 67h50
c52 197 172 253 393 253c73 0 161 -7 230 -21z" />
    <glyph glyph-name="florin.taboldstyle" horiz-adv-x="643" 
d="M676 648l-27 -131c-35 1 -42 1 -63 1c-28 0 -36 -7 -40 -27l-16 -72h95l-36 -162h-95l-56 -261c-29 -135 -126 -170 -237 -170c-79 0 -128 8 -175 17l31 131c8 0 25 -2 43 -2c25 0 52 4 57 28l54 257h-82l35 162h83l17 76c30 135 126 170 238 170c78 0 126 -8 174 -17z
" />
    <glyph glyph-name="numbersign.taboldstyle" horiz-adv-x="753" 
d="M744 131h-105l-38 -131h-225l39 131h-80l-39 -131h-224l39 131h-56l23 134h73l30 102h-85l24 134h102l45 146h225l-45 -146h79l45 146h224l-44 -146h58l-24 -134h-75l-30 -102h87zM485 367h-79l-31 -102h80z" />
    <glyph glyph-name="sterling.taboldstyle" horiz-adv-x="651" 
d="M732 645l-30 -169c-52 3 -100 5 -155 5c-66 0 -75 -8 -83 -53l-4 -23h131l-28 -157h-131l-4 -26c-2 -15 -6 -27 -15 -41h237l-31 -181h-565l25 142c33 24 51 42 57 80l4 26h-65l28 157h65l4 22c32 178 144 239 327 239c80 0 159 -6 233 -21z" />
    <glyph glyph-name="yen.taboldstyle" horiz-adv-x="847" 
d="M571 0h-296l21 121h-226l21 121h205l-28 80h-163l21 120h96l-77 205h310l23 -127c5 -26 10 -51 16 -82h1c14 29 29 56 43 82l68 127h331l-156 -205h99l-21 -120h-168l-57 -80h211l-21 -121h-232z" />
    <glyph glyph-name="dollar.taboldstyle" horiz-adv-x="813" 
d="M102 3l30 172c89 -5 149 -8 248 -8c32 0 60 0 60 21c0 14 -11 19 -64 37l-52 18c-96 33 -168 80 -168 192c0 144 110 208 250 223l15 89h228l-15 -86c66 -5 123 -15 166 -23l-28 -161c-117 5 -158 6 -248 6c-32 0 -58 0 -58 -17c0 -14 13 -19 60 -35l57 -19
c128 -43 172 -91 172 -185c0 -149 -107 -223 -240 -239l-17 -97h-228l17 92c-72 4 -135 10 -185 20z" />
    <glyph glyph-name="cent.taboldstyle" horiz-adv-x="652" 
d="M732 643l-33 -187c-78 3 -127 4 -174 4c-64 0 -96 -13 -114 -117l-7 -41c-4 -22 -6 -40 -6 -55c0 -55 27 -62 78 -62c61 0 119 1 175 2l-32 -184c-30 -9 -98 -16 -149 -20l-17 -92h-229l18 108c-115 32 -163 105 -163 221c0 31 4 65 10 102l7 41c29 170 107 254 263 291
l16 93h229l-15 -86c47 -3 116 -10 143 -18z" />
    <glyph glyph-name="zero.denominator" horiz-adv-x="511" 
d="M537 304c0 -40 -4 -65 -10 -97l-4 -21c-25 -131 -101 -198 -258 -198c-135 0 -186 68 -186 172c0 23 2 47 9 80l5 25c26 129 100 194 255 194c130 0 189 -59 189 -155zM340 307c0 17 -5 21 -15 21c-17 0 -22 -10 -36 -87l-4 -22c-8 -42 -11 -67 -11 -81
c0 -16 5 -19 14 -19c17 0 25 10 38 85l4 24c7 40 10 64 10 79z" />
    <glyph glyph-name="one.denominator" horiz-adv-x="373" 
d="M371 0h-293l20 116l47 5l29 167l-49 -16l24 131l110 44h143l-57 -326l46 -5z" />
    <glyph glyph-name="two.denominator" horiz-adv-x="468" 
d="M120 337l17 99c71 19 149 23 194 23c134 0 189 -41 189 -113c0 -92 -82 -127 -165 -158c-75 -29 -78 -31 -84 -59l-1 -5h198l-21 -124h-392l9 54c21 124 69 168 170 216c47 22 80 32 80 56c0 11 -6 16 -44 16c-49 0 -132 -4 -150 -5z" />
    <glyph glyph-name="three.denominator" horiz-adv-x="463" 
d="M500 343c0 -51 -21 -90 -70 -117c27 -14 35 -47 35 -77c0 -128 -76 -161 -237 -161c-72 0 -148 11 -183 25l17 98c18 -1 116 -3 160 -3c35 0 50 4 50 43c0 17 -13 20 -49 20h-110l18 106h111c46 0 59 7 59 44c0 17 -11 19 -39 19c-55 0 -99 -2 -160 -4l17 97
c44 15 120 26 192 26c126 0 189 -35 189 -116z" />
    <glyph glyph-name="four.denominator" horiz-adv-x="491" 
d="M412 0h-197l14 82h-195l18 102l294 263h144l-44 -253h47l-20 -112h-47zM262 194l14 81l-82 -81h68z" />
    <glyph glyph-name="five.denominator" horiz-adv-x="457" 
d="M512 447l-21 -119h-203l-10 -43h15c141 0 181 -41 181 -109c0 -158 -104 -188 -237 -188c-84 0 -146 11 -181 21l18 102c46 -3 100 -6 129 -6c51 0 67 7 67 48c0 18 -13 21 -51 21h-137l72 273h358z" />
    <glyph glyph-name="six.denominator" horiz-adv-x="487" 
d="M527 437l-18 -101c-48 2 -111 4 -158 4c-41 0 -46 -4 -53 -42l-2 -9c10 2 30 3 42 3c114 0 165 -33 165 -115c0 -140 -76 -189 -244 -189c-145 0 -180 66 -180 142c0 22 3 45 7 67l13 74c20 117 54 188 241 188c77 0 153 -13 187 -22zM306 143c4 23 5 32 5 38
c0 10 -3 14 -15 14c-6 0 -14 -1 -16 -2l-9 -48c-3 -14 -4 -24 -4 -31c0 -10 3 -15 13 -15c17 0 20 14 26 44z" />
    <glyph glyph-name="seven.denominator" horiz-adv-x="458" 
d="M98 328l21 119h392l-22 -125l-259 -322h-205l266 328h-193z" />
    <glyph glyph-name="eight.denominator" horiz-adv-x="506" 
d="M517 110c-21 -114 -122 -122 -243 -122h-5c-118 0 -193 30 -193 117c0 65 31 110 69 123c-21 17 -34 46 -34 81c0 134 100 150 241 150h5c130 0 194 -32 194 -109c0 -46 -20 -93 -66 -122c24 -18 36 -49 36 -74c0 -18 -1 -28 -4 -44zM326 135c2 10 3 19 3 27
c0 14 -6 19 -21 19h-5c-17 0 -36 -14 -36 -67c0 -14 6 -21 21 -21h5c21 0 27 12 33 42zM357 317c2 9 2 14 2 18c0 12 -4 18 -20 18h-5c-26 0 -33 -28 -33 -54c0 -13 5 -20 20 -20h5c21 0 26 13 31 38z" />
    <glyph glyph-name="nine.denominator" horiz-adv-x="487" 
d="M69 10l18 101c48 -2 111 -4 158 -4c41 0 46 4 53 42l2 9c-10 -2 -30 -3 -42 -3c-114 0 -165 33 -165 115c0 140 76 189 244 189c145 0 180 -66 180 -142c0 -22 -3 -45 -7 -67l-13 -74c-21 -117 -55 -188 -241 -188c-77 0 -153 13 -187 22zM290 304c-4 -23 -5 -32 -5 -38
c0 -10 3 -14 15 -14c6 0 14 1 16 2l9 48c3 14 4 24 4 31c0 10 -3 15 -13 15c-17 0 -20 -14 -26 -44z" />
    <glyph glyph-name="comma.denominator" horiz-adv-x="264" 
d="M263 111l-106 -187h-133l80 187h159z" />
    <glyph glyph-name="period.denominator" horiz-adv-x="243" 
d="M211 -1h-179l20 112h179z" />
    <glyph glyph-name="cent.denominator" horiz-adv-x="435" 
d="M479 440l-24 -135c-41 3 -76 4 -98 4c-41 0 -57 -7 -69 -77l-4 -23c-3 -17 -4 -30 -4 -40c0 -32 14 -37 47 -37c17 0 69 2 98 4l-23 -136c-21 -6 -49 -11 -83 -13l-15 -85h-169l17 99c-59 21 -89 72 -89 151c0 22 2 45 7 71l4 23c21 117 73 174 157 200l16 89h169
l-15 -82c34 -3 63 -9 78 -13z" />
    <glyph glyph-name="dollar.denominator" horiz-adv-x="469" 
d="M53 -2l20 111c40 -2 101 -5 161 -5c23 0 44 2 44 22c0 13 -11 17 -39 27l-42 15c-60 21 -102 63 -102 133c0 86 63 137 146 146l16 88h169l-15 -83c41 -4 78 -11 103 -16l-19 -108c-88 5 -143 5 -166 5c-24 0 -45 -2 -45 -18c0 -12 8 -15 39 -25l38 -12
c76 -24 113 -59 113 -125c0 -87 -57 -146 -144 -163l-16 -88h-169l15 84c-41 3 -77 7 -107 12z" />
    <glyph glyph-name="hyphen.denominator" horiz-adv-x="226" 
d="M236 139h-161l22 122h161z" />
    <glyph glyph-name="parenleft.denominator" horiz-adv-x="295" 
d="M371 450c-76 -113 -118 -252 -118 -394c0 -53 5 -100 15 -140h-146c-22 46 -37 112 -37 189c0 124 44 243 126 345h160z" />
    <glyph glyph-name="parenright.denominator" horiz-adv-x="295" 
d="M32 -84c76 113 118 252 118 394c0 53 -5 100 -15 140h146c22 -46 37 -112 37 -189c0 -124 -44 -243 -126 -345h-160z" />
    <glyph glyph-name="zero.numerator" horiz-adv-x="511" 
d="M574 609c0 -40 -4 -65 -10 -97l-4 -21c-25 -131 -101 -198 -258 -198c-135 0 -186 68 -186 172c0 23 2 47 9 80l5 25c26 129 100 194 255 194c130 0 189 -59 189 -155zM377 612c0 17 -5 21 -15 21c-17 0 -22 -10 -36 -87l-4 -22c-8 -42 -11 -67 -11 -81
c0 -16 5 -19 14 -19c17 0 25 10 38 85l4 24c7 40 10 64 10 79z" />
    <glyph glyph-name="one.numerator" horiz-adv-x="373" 
d="M391 305h-293l20 116l47 5l29 167l-49 -16l24 131l110 44h143l-57 -326l46 -5z" />
    <glyph glyph-name="two.numerator" horiz-adv-x="468" 
d="M160 642l17 99c71 19 149 23 194 23c134 0 189 -41 189 -113c0 -92 -82 -127 -165 -158c-75 -29 -78 -31 -84 -59l-1 -5h198l-21 -124h-392l9 54c21 124 69 168 170 216c47 22 80 32 80 56c0 11 -6 16 -44 16c-49 0 -132 -4 -150 -5z" />
    <glyph glyph-name="three.numerator" horiz-adv-x="463" 
d="M540 648c0 -51 -21 -90 -70 -117c27 -14 35 -47 35 -77c0 -128 -76 -161 -237 -161c-72 0 -148 11 -183 25l17 98c18 -1 116 -3 160 -3c35 0 50 4 50 43c0 17 -13 20 -49 20h-110l18 106h111c46 0 59 7 59 44c0 17 -11 19 -39 19c-55 0 -99 -2 -160 -4l17 97
c44 15 120 26 192 26c126 0 189 -35 189 -116z" />
    <glyph glyph-name="four.numerator" horiz-adv-x="491" 
d="M472 305h-197l14 82h-195l18 102l294 263h144l-44 -253h47l-20 -112h-47zM322 499l14 81l-82 -81h68z" />
    <glyph glyph-name="five.numerator" horiz-adv-x="457" 
d="M552 752l-21 -119h-203l-10 -43h15c141 0 181 -41 181 -109c0 -158 -104 -188 -237 -188c-84 0 -146 11 -181 21l18 102c46 -3 100 -6 129 -6c51 0 67 7 67 48c0 18 -13 21 -51 21h-137l72 273h358z" />
    <glyph glyph-name="six.numerator" horiz-adv-x="487" 
d="M551 742l-18 -101c-48 2 -111 4 -158 4c-41 0 -46 -4 -53 -42l-2 -9c10 2 30 3 42 3c114 0 165 -33 165 -115c0 -140 -76 -189 -244 -189c-145 0 -180 66 -180 142c0 22 3 45 7 67l13 74c20 117 54 188 241 188c77 0 153 -13 187 -22zM330 448c4 23 5 32 5 38
c0 10 -3 14 -15 14c-6 0 -14 -1 -16 -2l-9 -48c-3 -14 -4 -24 -4 -31c0 -10 3 -15 13 -15c17 0 20 14 26 44z" />
    <glyph glyph-name="seven.numerator" horiz-adv-x="458" 
d="M158 633l21 119h392l-22 -125l-259 -322h-205l266 328h-193z" />
    <glyph glyph-name="eight.numerator" horiz-adv-x="506" 
d="M547 415c-21 -114 -122 -122 -243 -122h-5c-118 0 -193 30 -193 117c0 65 31 110 69 123c-21 17 -34 46 -34 81c0 134 100 150 241 150h5c130 0 194 -32 194 -109c0 -46 -20 -93 -66 -122c24 -18 36 -49 36 -74c0 -18 -1 -28 -4 -44zM356 440c2 10 3 19 3 27
c0 14 -6 19 -21 19h-5c-17 0 -36 -14 -36 -67c0 -14 6 -21 21 -21h5c21 0 27 12 33 42zM387 622c2 9 2 14 2 18c0 12 -4 18 -20 18h-5c-26 0 -33 -28 -33 -54c0 -13 5 -20 20 -20h5c21 0 26 13 31 38z" />
    <glyph glyph-name="nine.numerator" horiz-adv-x="487" 
d="M109 315l18 101c48 -2 111 -4 158 -4c41 0 46 4 53 42l2 9c-10 -2 -30 -3 -42 -3c-114 0 -165 33 -165 115c0 140 76 189 244 189c145 0 180 -66 180 -142c0 -22 -3 -45 -7 -67l-13 -74c-21 -117 -55 -188 -241 -188c-77 0 -153 13 -187 22zM330 609
c-4 -23 -5 -32 -5 -38c0 -10 3 -14 15 -14c6 0 14 1 16 2l9 48c3 14 4 24 4 31c0 10 -3 15 -13 15c-17 0 -20 -14 -26 -44z" />
    <glyph glyph-name="comma.numerator" horiz-adv-x="264" 
d="M313 416l-106 -187h-133l80 187h159z" />
    <glyph glyph-name="period.numerator" horiz-adv-x="243" 
d="M267 304h-179l20 112h179z" />
    <glyph glyph-name="cent.numerator" horiz-adv-x="435" 
d="M519 745l-24 -135c-41 3 -76 4 -98 4c-41 0 -57 -7 -69 -77l-4 -23c-3 -17 -4 -30 -4 -40c0 -32 14 -37 47 -37c17 0 69 2 98 4l-23 -136c-21 -6 -49 -11 -83 -13l-15 -85h-169l17 99c-59 21 -89 72 -89 151c0 22 2 45 7 71l4 23c21 117 73 174 157 200l16 89h169
l-15 -82c34 -3 63 -9 78 -13z" />
    <glyph glyph-name="dollar.numerator" horiz-adv-x="469" 
d="M90 303l20 111c40 -2 101 -5 161 -5c23 0 44 2 44 22c0 13 -11 17 -39 27l-42 15c-60 21 -102 63 -102 133c0 86 63 137 146 146l16 88h169l-15 -83c41 -4 78 -11 103 -16l-19 -108c-88 5 -143 5 -166 5c-24 0 -45 -2 -45 -18c0 -12 8 -15 39 -25l38 -12
c76 -24 113 -59 113 -125c0 -87 -57 -146 -144 -163l-16 -88h-169l15 84c-41 3 -77 7 -107 12z" />
    <glyph glyph-name="hyphen.numerator" horiz-adv-x="226" 
d="M266 444h-161l22 122h161z" />
    <glyph glyph-name="parenleft.numerator" horiz-adv-x="295" 
d="M401 755c-76 -113 -118 -252 -118 -394c0 -53 5 -100 15 -140h-146c-22 46 -37 112 -37 189c0 124 44 243 126 345h160z" />
    <glyph glyph-name="parenright.numerator" horiz-adv-x="295" 
d="M69 221c76 113 118 252 118 394c0 53 -5 100 -15 140h146c22 -46 37 -112 37 -189c0 -124 -44 -243 -126 -345h-160z" />
    <glyph glyph-name="parenleft.cap" horiz-adv-x="399" 
d="M498 743c-101 -153 -162 -337 -162 -529c0 -77 10 -151 31 -214h-223c-29 57 -54 152 -54 263c0 175 63 344 185 480h223z" />
    <glyph glyph-name="parenright.cap" horiz-adv-x="399" 
d="M443 480c0 -175 -63 -344 -185 -480h-223c101 153 162 337 162 529c0 77 -10 151 -31 214h223c29 -57 54 -152 54 -263z" />
    <glyph glyph-name="bracketleft.cap" horiz-adv-x="421" 
d="M389 0h-357l131 743h357l-29 -164h-103l-74 -416h103z" />
    <glyph glyph-name="bracketright.cap" horiz-adv-x="421" 
d="M389 0h-357l28 163h102l74 416h-102l29 164h357z" />
    <glyph glyph-name="braceleft.cap" horiz-adv-x="463" 
d="M561 743l-29 -164h-49c-43 0 -54 0 -61 -42l-8 -46c-12 -70 -36 -95 -84 -120c31 -18 46 -37 46 -76c0 -12 -1 -26 -4 -42l-8 -48c-2 -9 -3 -16 -3 -21c0 -21 14 -21 48 -21h49l-28 -163h-53c-193 0 -271 33 -271 151c0 22 3 46 8 74l8 48c1 8 2 15 2 21
c0 29 -15 39 -32 47l18 101c25 11 46 23 54 69l8 46c31 178 108 186 336 186h53z" />
    <glyph glyph-name="braceright.cap" horiz-adv-x="463" 
d="M487 592c0 -22 -3 -46 -8 -74l-8 -48c-1 -8 -2 -15 -2 -21c0 -29 15 -39 32 -47l-18 -101c-25 -11 -46 -23 -54 -69l-8 -46c-31 -178 -108 -186 -336 -186h-53l29 164h49c42 0 54 0 61 42l8 46c12 70 36 95 84 120c-31 18 -46 37 -46 76c0 12 1 26 4 42l8 48
c2 9 3 16 3 21c0 21 -14 21 -48 21h-49l28 163h53c193 0 271 -33 271 -151z" />
    <glyph glyph-name="exclamdown.cap" horiz-adv-x="448" 
d="M451 485l-66 -528h-338l119 528h285zM198 743h312l-36 -200h-312z" />
    <glyph glyph-name="questiondown.cap" horiz-adv-x="645" 
d="M359 743h302l-34 -196h-302zM639 159l-31 -172c-73 -28 -185 -41 -303 -41c-188 0 -252 58 -252 147c0 102 63 156 140 216c116 91 140 127 147 166l1 7h246l-1 -7c-14 -83 -21 -126 -75 -188c-56 -63 -74 -83 -74 -110c0 -17 12 -22 52 -22c43 0 108 2 150 4z" />
    <glyph glyph-name="guillemotleft.cap" horiz-adv-x="919" 
d="M987 610l-177 -249l85 -230h-279l-94 239l179 240h286zM278 610h286l-177 -249l85 -230h-279l-94 239z" />
    <glyph glyph-name="guillemotright.cap" horiz-adv-x="919" 
d="M944 371l-179 -240h-286l177 249l-85 230h279zM427 610l94 -239l-179 -240h-286l177 249l-85 230h279z" />
    <glyph glyph-name="guilsinglleft.cap" horiz-adv-x="490" 
d="M563 610l-177 -249l85 -230h-279l-94 239l179 240h286z" />
    <glyph glyph-name="guilsinglright.cap" horiz-adv-x="490" 
d="M522 371l-179 -240h-286l177 249l-85 230h279z" />
    <glyph glyph-name="hyphen.cap" horiz-adv-x="299" 
d="M320 303h-235l26 150h235z" />
    <glyph glyph-name="endash.cap" horiz-adv-x="363" 
d="M384 303h-299l26 149h299z" />
    <glyph glyph-name="emdash.cap" horiz-adv-x="512" 
d="M532 303h-447l26 149h447z" />
    <glyph glyph-name="periodcentered.cap" horiz-adv-x="377" 
d="M363 269h-256l35 197h256z" />
    <glyph glyph-name="at.cap" horiz-adv-x="958" 
d="M1005 476c0 -253 -195 -358 -450 -358c-174 0 -263 37 -263 150c0 22 0 43 6 75c23 130 90 243 298 243c84 0 156 -13 209 -25l-60 -301c87 31 126 124 126 220c0 128 -103 191 -255 191c-183 0 -302 -103 -356 -239c-22 -55 -33 -116 -33 -177c0 -175 109 -210 274 -210
c70 0 156 4 206 9l-6 -72c-41 -7 -136 -18 -207 -18c-266 0 -401 79 -401 290c0 79 16 152 47 218c80 172 256 289 486 289c214 0 379 -96 379 -285zM582 459h-14c-38 0 -51 -19 -68 -98c-6 -27 -12 -56 -12 -90c0 -24 8 -34 30 -34h21z" />
    <glyph glyph-name="T_h" horiz-adv-x="1394" 
d="M1339 0h-301l65 373c1 8 2 15 2 20c0 16 -7 21 -25 21c-17 0 -34 -5 -48 -11l-71 -403h-301l95 540h-114l-95 -540h-330l95 540h-196l36 203h941l-30 -166c62 27 125 33 165 33c152 0 186 -70 186 -151c0 -33 -5 -68 -11 -101z" />
    <glyph glyph-name="A.alt" horiz-adv-x="875" 
d="M15 0l207 547l-41 6l34 190h619l26 -743h-340l4 119h-128l-37 -119h-344zM537 313l2 173c0 31 3 74 6 105h-2c-9 -31 -22 -74 -32 -105l-57 -173h83z" />
    <glyph glyph-name="B.alt" horiz-adv-x="819" 
d="M877 572c0 -97 -31 -154 -98 -193c39 -24 50 -71 50 -101c0 -25 -2 -45 -5 -59c-42 -201 -204 -239 -463 -239c-81 0 -183 5 -306 20l96 548l-36 5l34 190c141 16 281 21 349 21c248 0 379 -51 379 -192zM516 263c0 27 -17 32 -60 32h-37l-21 -114c12 -2 23 -2 37 -2
c58 0 70 12 77 53c3 19 4 26 4 31zM563 531c0 26 -17 35 -63 35c-10 0 -21 0 -34 -2l-19 -110h34c66 0 82 16 82 77z" />
    <glyph glyph-name="C.alt" horiz-adv-x="705" 
d="M705 204l-35 -200c-49 -15 -198 -25 -250 -25c-227 0 -327 79 -327 263c0 39 4 82 13 130l7 40c48 277 170 352 445 352c52 0 197 -10 242 -25l-41 -234h-180l-1 37c-73 0 -110 -4 -135 -150l-7 -40c-6 -33 -9 -59 -9 -79c0 -65 30 -72 80 -72c75 0 148 2 198 3z" />
    <glyph glyph-name="D.alt" horiz-adv-x="835" 
d="M55 0l97 549l-36 4l35 190c113 15 250 21 366 21c236 0 355 -77 355 -277c0 -36 -4 -76 -12 -121l-4 -23c-53 -297 -198 -364 -477 -364c-116 0 -215 6 -324 21zM537 363l4 23c10 56 16 93 16 118c0 45 -21 46 -88 46l-62 -357c99 0 101 5 130 170z" />
    <glyph glyph-name="E.alt" horiz-adv-x="701" 
d="M756 541h-276l-13 -74h254l-33 -186h-254l-14 -79h276l-35 -202h-606l96 548l-36 5l34 190h643z" />
    <glyph glyph-name="F.alt" horiz-adv-x="692" 
d="M55 0l96 548l-36 5l34 190h644l-37 -205h-277l-13 -73h254l-32 -186h-254l-49 -279h-330z" />
    <glyph glyph-name="G.alt" horiz-adv-x="811" 
d="M757 7c-88 -15 -218 -28 -344 -28c-168 0 -319 51 -319 277c0 35 4 74 11 118l6 36c61 343 265 354 449 354c114 0 248 -20 318 -37l-39 -221h-175l-3 35c-21 0 -52 1 -71 1c-102 0 -137 -13 -160 -152l-6 -36c-8 -46 -14 -80 -14 -103c0 -40 10 -53 43 -53
c11 0 26 0 41 2l11 64l-37 7l27 149h335z" />
    <glyph glyph-name="H.alt" horiz-adv-x="912" 
d="M857 0h-331l47 267h-140l-47 -267h-331l96 549l-36 4l34 190h368l-47 -262h140l47 262h331z" />
    <glyph glyph-name="I.alt" horiz-adv-x="470" 
d="M437 0h-404l33 190l38 4l62 355l-36 4l34 190h404l-34 -190l-38 -4l-62 -355l36 -4z" />
    <glyph glyph-name="J.alt" horiz-adv-x="470" 
d="M534 553l-38 -4l-93 -527c-30 -171 -138 -232 -306 -232c-44 0 -98 3 -134 11l29 164c59 0 72 0 79 42l95 542l-36 4l34 190h404z" />
    <glyph glyph-name="K.alt" horiz-adv-x="895" 
d="M890 0h-366l-80 329l-58 -329h-331l96 549l-33 4l34 190h365l-60 -337l217 337h360l-266 -374z" />
    <glyph glyph-name="M.alt" horiz-adv-x="1021" 
d="M966 0h-315l40 230c6 31 13 67 22 101h-2c-17 -26 -37 -54 -55 -72l-61 -61h-101l-40 61c-12 18 -21 46 -28 72h-2c-4 -34 -9 -70 -15 -101l-40 -230h-314l96 549l-36 4l34 190h309l97 -178c12 -22 24 -50 34 -79h2c21 29 42 57 62 79l162 178h282z" />
    <glyph glyph-name="N.alt" horiz-adv-x="882" 
d="M149 743h317l116 -208c14 -26 23 -53 30 -79h2c0 7 5 41 13 84l36 203h295l-131 -743h-290l-107 207c-13 26 -22 52 -28 72h-3c-5 -26 -9 -52 -14 -78l-35 -201h-295l96 549l-36 4z" />
    <glyph glyph-name="P.alt" horiz-adv-x="821" 
d="M881 467c-41 -235 -237 -255 -419 -255c-20 0 -28 0 -57 1l-37 -213h-313l96 549l-36 4l34 190c116 14 243 19 365 19c221 0 373 -48 373 -228c0 -19 -1 -40 -6 -67zM487 425c53 0 83 32 83 87c0 31 -20 40 -61 40c-16 0 -35 -1 -45 -2l-21 -124c10 -1 27 -1 44 -1z" />
    <glyph glyph-name="Q.alt" horiz-adv-x="837" 
d="M871 477c0 -32 -3 -67 -9 -106l-6 -39c-37 -240 -154 -319 -299 -343l-31 -186h-296l33 197c-100 33 -167 110 -167 265c0 32 3 68 9 107l6 39c48 315 238 353 438 353c182 0 322 -64 322 -287zM557 495c0 37 -12 48 -44 48c-49 0 -64 -31 -84 -153l-6 -37
c-8 -47 -13 -80 -13 -103c0 -39 13 -49 43 -49c48 0 64 25 85 152l6 37c8 48 13 82 13 105z" />
    <glyph glyph-name="R.alt" horiz-adv-x="839" 
d="M883 539c0 -11 -2 -39 -7 -67c-17 -99 -59 -139 -122 -183l85 -289h-312l-66 235h-53l-41 -235h-312l97 549l-37 4l34 190c98 10 235 19 378 19c207 0 356 -46 356 -223zM565 516c0 26 -14 36 -61 36c-17 0 -21 0 -41 -1l-22 -125c13 -1 27 -1 42 -1c58 0 71 22 78 61
c3 15 4 23 4 30z" />
    <glyph glyph-name="S.alt" horiz-adv-x="738" 
d="M512 568c-29 0 -66 -1 -66 -26c0 -18 12 -25 54 -42l67 -28c121 -51 183 -108 183 -213c0 -208 -167 -280 -375 -280c-127 0 -243 11 -319 27l32 185c71 -4 137 -11 266 -11c32 0 65 4 65 33c0 19 -13 26 -59 46l-73 32c-95 42 -166 94 -166 216c0 218 201 257 406 257
c113 0 223 -17 289 -31l-35 -199h-177l-5 33c-40 1 -54 1 -87 1z" />
    <glyph glyph-name="U.alt" horiz-adv-x="860" 
d="M941 743l-83 -472c-38 -213 -203 -292 -432 -292c-215 0 -329 93 -329 243c0 41 2 64 7 89l42 238l-36 4l34 190h361l-80 -452c-4 -24 -7 -44 -7 -58c0 -30 12 -41 45 -41c50 0 62 24 75 99l80 452h323z" />
    <glyph glyph-name="Z.alt" horiz-adv-x="708" 
d="M699 209l-36 -209h-618l33 192l286 342h-50l-15 -32h-165l43 241h616l-35 -197l-285 -337h226z" />
    <glyph glyph-name="a.alt" horiz-adv-x="706" 
d="M725 423c0 -20 -2 -41 -6 -64l-63 -359h-269l6 37c-48 -28 -127 -53 -195 -53c-105 0 -146 56 -146 128c0 231 156 239 355 239h9l4 22c1 7 2 14 2 19c0 25 -18 26 -82 26l-15 -29h-176l31 174c59 18 179 47 293 47c149 0 252 -47 252 -187zM412 236h-22
c-26 0 -50 -8 -50 -71c0 -15 8 -20 20 -20c14 0 27 3 37 7z" />
    <glyph glyph-name="b.alt" horiz-adv-x="766" 
d="M778 264c-40 -223 -173 -280 -402 -280c-98 0 -187 4 -321 18l105 595l-32 5l32 184h334l-31 -178c9 0 34 2 69 2c178 0 261 -74 261 -220c0 -26 -3 -55 -8 -86zM481 279l7 40c4 26 6 45 7 59c0 28 -11 34 -41 34c-11 0 -23 -1 -30 -2l-40 -227c8 -1 19 -2 29 -2
c45 0 53 13 68 98z" />
    <glyph glyph-name="c.alt" horiz-adv-x="616" 
d="M582 10c-56 -12 -137 -26 -244 -26c-180 0 -261 76 -261 220c0 27 3 56 8 87l7 41c36 206 143 278 356 278c116 0 206 -18 235 -26l-35 -204h-165l-3 29c-59 0 -73 -2 -91 -91l-8 -41c-4 -21 -6 -37 -6 -50c0 -37 18 -43 59 -43s91 2 180 5z" />
    <glyph glyph-name="d.alt" horiz-adv-x="772" 
d="M850 786l-138 -786h-272l5 31c-49 -28 -107 -47 -181 -47c-121 0 -188 74 -188 212c0 30 3 63 9 98l7 40c35 202 148 276 357 276c36 0 55 -1 69 -2l5 31l-32 5l25 142h334zM487 410c-8 1 -20 2 -30 2c-44 0 -53 -15 -67 -93l-7 -40c-5 -28 -8 -49 -8 -63
c0 -26 10 -33 38 -33c9 0 25 1 34 3z" />
    <glyph glyph-name="f.alt" horiz-adv-x="540" 
d="M386 -148h-301l98 559l-79 10l30 174h81l4 23c27 151 129 186 253 186c65 0 129 -8 176 -19l-25 -144c-44 2 -52 2 -60 2c-32 0 -39 -4 -43 -29l-4 -19h98l-32 -184h-98z" />
    <glyph glyph-name="g.alt" horiz-adv-x="724" 
d="M816 610l-21 -119l-42 -17c4 -8 6 -21 6 -38c0 -190 -170 -246 -365 -246c-25 0 -65 2 -94 6c-6 -3 -14 -11 -14 -20c0 -14 11 -15 36 -15h64c227 0 318 -27 318 -133c0 -207 -210 -237 -387 -237c-172 0 -305 26 -305 147c0 57 26 106 75 142c-22 17 -32 42 -32 66
c0 51 40 90 87 112c-22 20 -37 53 -37 99c0 13 1 28 4 44c22 124 89 209 359 209h348zM417 -18c0 23 -11 30 -58 30h-57c-9 -11 -16 -30 -16 -48c0 -27 22 -31 59 -31c44 0 72 10 72 49zM473 426c0 19 -8 28 -32 28c-31 0 -49 -26 -49 -77c0 -22 9 -31 30 -31
c32 0 51 22 51 80z" />
    <glyph glyph-name="h.alt" 
d="M734 0h-301l65 373c1 8 2 15 2 20c0 16 -7 21 -25 21c-17 0 -34 -5 -48 -11l-71 -403h-301l105 597l-32 5l32 184h334l-37 -209c62 27 125 33 165 33c151 0 186 -67 186 -148c0 -34 -6 -69 -12 -104z" />
    <glyph glyph-name="i.alt" horiz-adv-x="411" 
d="M356 0h-301l71 405l-32 6l32 184h334zM476 644h-315l25 142h315z" />
    <glyph glyph-name="j.alt" horiz-adv-x="410" 
d="M356 4c-29 -166 -116 -216 -290 -216c-63 0 -115 6 -141 12l29 164c28 -1 39 -1 51 -1c37 0 44 8 50 41l71 403l-32 4l32 184h334zM476 644h-315l25 142h315z" />
    <glyph glyph-name="k.alt" horiz-adv-x="777" 
d="M777 0h-315l-63 253l-44 -253h-300l105 597l-32 5l32 184h333l-79 -448l161 257h293l-189 -290z" />
    <glyph glyph-name="l.alt" horiz-adv-x="411" 
d="M356 0h-301l105 597l-32 5l32 184h334z" />
    <glyph glyph-name="m.alt" horiz-adv-x="1122" 
d="M1145 447c0 -23 -2 -48 -7 -75l-66 -372h-301l66 379c1 7 2 14 2 19c0 13 -5 19 -22 19c-10 0 -25 -3 -32 -6c-1 -10 -3 -21 -5 -32l-66 -379h-301l66 379c1 8 2 15 2 20c0 13 -5 18 -21 18c-11 0 -23 -4 -32 -7l-72 -410h-301l71 407l-32 4l32 184h309l-8 -49
c59 44 131 64 195 64c80 0 122 -23 146 -65c71 47 147 65 197 65c132 0 180 -63 180 -163z" />
    <glyph glyph-name="n.alt" horiz-adv-x="784" 
d="M734 0h-301l65 373c1 8 2 14 2 19c0 17 -8 22 -26 22c-17 0 -41 -8 -48 -12l-70 -402h-301l71 405l-32 6l32 184h309l-8 -50c56 40 133 65 203 65c146 0 178 -67 178 -145c0 -35 -6 -73 -12 -107z" />
    <glyph glyph-name="p.alt" horiz-adv-x="769" 
d="M800 431c0 -36 -5 -77 -13 -125l-8 -47c-35 -202 -152 -274 -360 -274c-27 0 -57 2 -66 2l-32 -181h-301l106 600l-32 5l32 184h306l-6 -35c66 38 131 50 186 50c120 0 188 -47 188 -179zM497 380c0 26 -11 32 -38 32c-8 0 -26 -1 -36 -4l-39 -224c8 -1 18 -1 29 -1
c44 0 55 14 68 92l8 47c4 26 8 45 8 58z" />
    <glyph glyph-name="r.alt" horiz-adv-x="524" 
d="M356 0h-301l71 406l-32 5l32 184h306l-9 -51c73 64 149 66 188 66l-40 -226c-39 2 -56 2 -85 2c-28 0 -42 -1 -63 -2z" />
    <glyph glyph-name="s.alt" horiz-adv-x="634" 
d="M425 610c99 0 206 -11 263 -27l-28 -161h-178l-5 24c-7 0 -20 1 -34 1c-23 0 -48 -3 -48 -21c0 -14 11 -18 39 -28l61 -22c98 -35 145 -79 145 -162c0 -193 -177 -229 -360 -229c-85 0 -185 11 -236 22l26 151c20 -1 123 -8 220 -8c17 0 51 0 51 25c0 18 -12 22 -45 34
l-49 18c-88 32 -148 78 -148 174c0 182 159 209 326 209z" />
    <glyph glyph-name="u.alt" 
d="M537 595h301l-104 -595h-276l8 50c-46 -33 -121 -66 -223 -66c-131 0 -158 77 -158 151c0 32 5 63 9 87l32 184l-32 6l32 183h334l-65 -373c-1 -8 -2 -15 -2 -20c0 -16 7 -21 26 -21c16 0 41 8 47 11z" />
    <glyph glyph-name="y.alt" horiz-adv-x="785" 
d="M730 4c-25 -144 -133 -212 -390 -212c-148 0 -260 22 -283 28l27 152c71 -3 184 -10 250 -10c81 0 91 8 97 42l2 8c-21 -2 -45 -4 -62 -4c-184 0 -270 83 -270 221c0 22 3 46 7 71l51 295h298l-54 -310c-3 -15 -4 -27 -4 -38c0 -27 10 -42 38 -42c13 0 23 0 32 1l68 389
h297z" />
    <glyph glyph-name="z.alt" horiz-adv-x="639" 
d="M631 184l-32 -184h-559l28 162l257 247h-60l-13 -29h-142l37 215h555l-30 -175l-243 -236h202z" />
    <glyph glyph-name="a.alt2" horiz-adv-x="706" 
d="M725 423c0 -20 -2 -41 -6 -64l-63 -359h-269l6 37c-48 -28 -127 -53 -195 -53c-105 0 -146 56 -146 128c0 231 156 239 355 239h9l4 22c1 7 2 14 2 19c0 22 -14 26 -62 26c-36 0 -136 -2 -207 -8l27 153c59 18 179 47 293 47c149 0 252 -47 252 -187zM397 152l15 84h-22
c-26 0 -50 -8 -50 -71c0 -15 8 -20 20 -20c14 0 27 3 37 7z" />
    <glyph glyph-name="f.alt2" horiz-adv-x="540" 
d="M648 785l-25 -144c-44 2 -52 2 -60 2c-32 0 -39 -4 -43 -29l-4 -19h98l-32 -184h-98l-72 -411h-301l72 411l-79 10l30 174h81l4 23c27 151 129 186 253 186c65 0 129 -8 176 -19z" />
    <glyph glyph-name="u.alt2" 
d="M781 266c-40 -226 -187 -282 -385 -282c-181 0 -297 65 -297 232c0 24 3 51 8 80l52 299h301l-55 -314c-5 -28 -7 -49 -7 -64c0 -29 9 -36 27 -36c26 0 42 16 57 100l55 314h301z" />
    <glyph glyph-name="Aacute.alt" horiz-adv-x="875" 
d="M15 0l207 547l-41 6l34 190h619l26 -743h-340l4 119h-128l-37 -119h-344zM537 313l2 173c0 31 3 74 6 105h-2c-9 -31 -22 -74 -32 -105l-57 -173h83zM913 925l-215 -136h-272l157 136h330z" />
    <glyph glyph-name="Acircumflex.alt" horiz-adv-x="875" 
d="M15 0l207 547l-41 6l34 190h619l26 -743h-340l4 119h-128l-37 -119h-344zM537 313l2 173c0 31 3 74 6 105h-2c-9 -31 -22 -74 -32 -105l-57 -173h83zM860 790h-241l-49 54l-70 -54h-251l159 136h342z" />
    <glyph glyph-name="Adieresis.alt" horiz-adv-x="875" 
d="M15 0l207 547l-41 6l34 190h619l26 -743h-340l4 119h-128l-37 -119h-344zM537 313l2 173c0 31 3 74 6 105h-2c-9 -31 -22 -74 -32 -105l-57 -173h83zM836 927l-24 -138h-228l24 138h228zM315 927h228l-24 -138h-228z" />
    <glyph glyph-name="Agrave.alt" horiz-adv-x="875" 
d="M15 0l207 547l-41 6l34 190h619l26 -743h-340l4 119h-128l-37 -119h-344zM537 313l2 173c0 31 3 74 6 105h-2c-9 -31 -22 -74 -32 -105l-57 -173h83zM742 789h-266l-168 136h326z" />
    <glyph glyph-name="Aring.alt" horiz-adv-x="875" 
d="M751 916c0 -82 -75 -137 -181 -137s-182 55 -182 137c0 83 76 138 182 138s181 -55 181 -138zM625 917c0 24 -21 40 -55 40c-33 0 -55 -16 -55 -40s21 -40 55 -40s55 16 55 40zM15 0l207 547l-41 6l34 190h619l26 -743h-340l4 119h-128l-37 -119h-344zM537 313l2 173
c0 31 3 74 6 105h-2c-9 -31 -22 -74 -32 -105l-57 -173h83z" />
    <glyph glyph-name="Atilde.alt" horiz-adv-x="875" 
d="M15 0l207 547l-41 6l34 190h619l26 -743h-340l4 119h-128l-37 -119h-344zM537 313l2 173c0 31 3 74 6 105h-2c-9 -31 -22 -74 -32 -105l-57 -173h83zM845 956c-17 -147 -110 -169 -171 -169c-22 0 -65 2 -116 18l-53 17c-21 7 -37 10 -48 11c-19 0 -26 -9 -32 -44h-149
c17 149 109 170 177 170c27 0 59 -4 107 -18l54 -16c22 -7 34 -12 51 -12c18 0 29 8 32 43h148z" />
    <glyph glyph-name="Ccedilla.alt" horiz-adv-x="705" 
d="M705 204l-35 -200c-49 -15 -198 -25 -250 -25c-227 0 -327 79 -327 263c0 39 4 82 13 130l7 40c48 277 170 352 445 352c52 0 197 -10 242 -25l-41 -234h-180l-1 37c-73 0 -110 -4 -135 -150l-7 -40c-6 -33 -9 -59 -9 -79c0 -65 30 -72 80 -72c75 0 148 2 198 3zM573 -56
l-149 -138h-260l113 138h296z" />
    <glyph glyph-name="Eacute.alt" horiz-adv-x="701" 
d="M756 541h-276l-13 -74h254l-33 -186h-254l-14 -79h276l-35 -202h-606l96 548l-36 5l34 190h643zM831 924l-215 -136h-272l157 136h330z" />
    <glyph glyph-name="Ecircumflex.alt" horiz-adv-x="701" 
d="M756 541h-276l-13 -74h254l-33 -186h-254l-14 -79h276l-35 -202h-606l96 548l-36 5l34 190h643zM801 789h-241l-49 54l-70 -54h-251l159 136h342z" />
    <glyph glyph-name="Edieresis.alt" horiz-adv-x="701" 
d="M756 541h-276l-13 -74h254l-33 -186h-254l-14 -79h276l-35 -202h-606l96 548l-36 5l34 190h643zM771 926l-24 -138h-228l24 138h228zM250 926h228l-24 -138h-228z" />
    <glyph glyph-name="Egrave.alt" horiz-adv-x="701" 
d="M756 541h-276l-13 -74h254l-33 -186h-254l-14 -79h276l-35 -202h-606l96 548l-36 5l34 190h643zM661 788h-266l-168 136h326z" />
    <glyph glyph-name="Eth.alt" horiz-adv-x="835" 
d="M872 487c0 -36 -4 -76 -12 -121l-4 -23c-53 -297 -198 -364 -477 -364c-116 0 -215 6 -324 21l50 284h-46l32 183h46l15 82l-36 5l35 189c113 15 250 21 366 21c236 0 355 -77 355 -277zM557 504c0 39 -16 46 -60 46h-28l-14 -83h50l-32 -183h-50l-16 -91h28
c72 0 76 25 102 170l4 23c10 56 16 93 16 118z" />
    <glyph glyph-name="Iacute.alt" horiz-adv-x="470" 
d="M437 0h-404l33 190l38 4l62 355l-36 4l34 190h404l-34 -190l-38 -4l-62 -355l36 -4zM709 925l-215 -136h-272l157 136h330z" />
    <glyph glyph-name="Icircumflex.alt" horiz-adv-x="470" 
d="M437 0h-404l33 190l38 4l62 355l-36 4l34 190h404l-34 -190l-38 -4l-62 -355l36 -4zM677 789h-241l-49 54l-70 -54h-251l159 136h342z" />
    <glyph glyph-name="Idieresis.alt" horiz-adv-x="470" 
d="M437 0h-404l33 190l38 4l62 355l-36 4l34 190h404l-34 -190l-38 -4l-62 -355l36 -4zM665 927l-24 -138h-228l24 138h228zM144 927h228l-24 -138h-228z" />
    <glyph glyph-name="Igrave.alt" horiz-adv-x="470" 
d="M437 0h-404l33 190l38 4l62 355l-36 4l34 190h404l-34 -190l-38 -4l-62 -355l36 -4zM548 789h-266l-168 136h326z" />
    <glyph glyph-name="Ntilde.alt" horiz-adv-x="882" 
d="M149 743h317l116 -208c14 -26 23 -53 30 -79h2c0 7 5 41 13 84l36 203h295l-131 -743h-290l-107 207c-13 26 -22 52 -28 72h-3c-5 -26 -9 -52 -14 -78l-35 -201h-295l96 549l-36 4zM868 956c-17 -147 -110 -169 -171 -169c-22 0 -65 2 -116 18l-53 17
c-21 7 -37 10 -48 11c-19 0 -26 -9 -32 -44h-149c17 149 109 170 177 170c27 0 59 -4 107 -18l54 -16c22 -7 34 -12 51 -12c18 0 29 8 32 43h148z" />
    <glyph glyph-name="Scaron.alt" horiz-adv-x="738" 
d="M512 568c-29 0 -66 -1 -66 -26c0 -18 12 -25 54 -42l67 -28c121 -51 183 -108 183 -213c0 -208 -167 -280 -375 -280c-127 0 -243 11 -319 27l32 185c71 -4 137 -11 266 -11c32 0 65 4 65 33c0 19 -13 26 -59 46l-73 32c-95 42 -166 94 -166 216c0 218 201 257 406 257
c113 0 223 -17 289 -31l-35 -199h-177l-5 33c-40 1 -54 1 -87 1zM237 925h241l51 -53l68 53h251l-158 -136h-342z" />
    <glyph glyph-name="Uacute.alt" horiz-adv-x="860" 
d="M941 743l-83 -472c-38 -213 -203 -292 -432 -292c-215 0 -329 93 -329 243c0 41 2 64 7 89l42 238l-36 4l34 190h361l-80 -452c-4 -24 -7 -44 -7 -58c0 -30 12 -41 45 -41c50 0 62 24 75 99l80 452h323zM899 925l-215 -136h-272l157 136h330z" />
    <glyph glyph-name="Ucircumflex.alt" horiz-adv-x="860" 
d="M941 743l-83 -472c-38 -213 -203 -292 -432 -292c-215 0 -329 93 -329 243c0 41 2 64 7 89l42 238l-36 4l34 190h361l-80 -452c-4 -24 -7 -44 -7 -58c0 -30 12 -41 45 -41c50 0 62 24 75 99l80 452h323zM869 789h-241l-49 54l-70 -54h-251l159 136h342z" />
    <glyph glyph-name="Udieresis.alt" horiz-adv-x="860" 
d="M941 743l-83 -472c-38 -213 -203 -292 -432 -292c-215 0 -329 93 -329 243c0 41 2 64 7 89l42 238l-36 4l34 190h361l-80 -452c-4 -24 -7 -44 -7 -58c0 -30 12 -41 45 -41c50 0 62 24 75 99l80 452h323zM857 927l-24 -138h-228l24 138h228zM336 927h228l-24 -138h-228z
" />
    <glyph glyph-name="Ugrave.alt" horiz-adv-x="860" 
d="M941 743l-83 -472c-38 -213 -203 -292 -432 -292c-215 0 -329 93 -329 243c0 41 2 64 7 89l42 238l-36 4l34 190h361l-80 -452c-4 -24 -7 -44 -7 -58c0 -30 12 -41 45 -41c50 0 62 24 75 99l80 452h323zM717 789h-266l-168 136h326z" />
    <glyph glyph-name="Zcaron.alt" horiz-adv-x="708" 
d="M699 209l-36 -209h-618l33 192l286 342h-50l-15 -32h-165l43 241h616l-35 -197l-285 -337h226zM228 925h241l51 -53l68 53h251l-158 -136h-342z" />
    <glyph glyph-name="aacute.alt" horiz-adv-x="706" 
d="M725 423c0 -20 -2 -41 -6 -64l-63 -359h-269l6 37c-48 -28 -127 -53 -195 -53c-105 0 -146 56 -146 128c0 231 156 239 355 239h9l4 22c1 7 2 14 2 19c0 25 -18 26 -82 26l-15 -29h-176l31 174c59 18 179 47 293 47c149 0 252 -47 252 -187zM412 236h-22
c-26 0 -50 -8 -50 -71c0 -15 8 -20 20 -20c14 0 27 3 37 7zM823 786l-215 -136h-272l157 136h330z" />
    <glyph glyph-name="acircumflex.alt" horiz-adv-x="706" 
d="M725 423c0 -20 -2 -41 -6 -64l-63 -359h-269l6 37c-48 -28 -127 -53 -195 -53c-105 0 -146 56 -146 128c0 231 156 239 355 239h9l4 22c1 7 2 14 2 19c0 25 -18 26 -82 26l-15 -29h-176l31 174c59 18 179 47 293 47c149 0 252 -47 252 -187zM412 236h-22
c-26 0 -50 -8 -50 -71c0 -15 8 -20 20 -20c14 0 27 3 37 7zM792 650h-241l-49 54l-70 -54h-251l159 136h342z" />
    <glyph glyph-name="adieresis.alt" horiz-adv-x="706" 
d="M725 423c0 -20 -2 -41 -6 -64l-63 -359h-269l6 37c-48 -28 -127 -53 -195 -53c-105 0 -146 56 -146 128c0 231 156 239 355 239h9l4 22c1 7 2 14 2 19c0 25 -18 26 -82 26l-15 -29h-176l31 174c59 18 179 47 293 47c149 0 252 -47 252 -187zM412 236h-22
c-26 0 -50 -8 -50 -71c0 -15 8 -20 20 -20c14 0 27 3 37 7zM766 788l-24 -138h-228l24 138h228zM245 788h228l-24 -138h-228z" />
    <glyph glyph-name="agrave.alt" horiz-adv-x="706" 
d="M725 423c0 -20 -2 -41 -6 -64l-63 -359h-269l6 37c-48 -28 -127 -53 -195 -53c-105 0 -146 56 -146 128c0 231 156 239 355 239h9l4 22c1 7 2 14 2 19c0 25 -18 26 -82 26l-15 -29h-176l31 174c59 18 179 47 293 47c149 0 252 -47 252 -187zM412 236h-22
c-26 0 -50 -8 -50 -71c0 -15 8 -20 20 -20c14 0 27 3 37 7zM659 650h-266l-168 136h326z" />
    <glyph glyph-name="ampersand.alt" horiz-adv-x="934" 
d="M926 359c-18 -100 -50 -162 -102 -214l73 -82l-11 -63h-259l-20 20c-41 -19 -125 -39 -236 -39c-178 0 -309 53 -309 200c0 105 73 170 190 217l-10 10c-44 50 -64 105 -64 157c0 184 217 199 377 199c235 0 311 -67 311 -177c0 -132 -120 -192 -242 -234l67 -76
c9 23 15 47 21 82h214zM489 143l-88 104c-16 -13 -27 -38 -27 -62c0 -30 17 -46 67 -46c19 0 35 1 48 4zM555 549c0 16 -11 23 -33 23c-25 0 -43 -10 -43 -38c0 -17 5 -29 18 -44l14 -16c34 28 44 51 44 75z" />
    <glyph glyph-name="aring.alt" horiz-adv-x="706" 
d="M690 777c0 -82 -75 -137 -181 -137s-182 55 -182 137c0 83 76 138 182 138s181 -55 181 -138zM564 778c0 24 -21 40 -55 40c-33 0 -55 -16 -55 -40s21 -40 55 -40s55 16 55 40zM725 423c0 -20 -2 -41 -6 -64l-63 -359h-269l6 37c-48 -28 -127 -53 -195 -53
c-105 0 -146 56 -146 128c0 231 156 239 355 239h9l4 22c1 7 2 14 2 19c0 25 -18 26 -82 26l-15 -29h-176l31 174c59 18 179 47 293 47c149 0 252 -47 252 -187zM412 236h-22c-26 0 -50 -8 -50 -71c0 -15 8 -20 20 -20c14 0 27 3 37 7z" />
    <glyph glyph-name="atilde.alt" horiz-adv-x="706" 
d="M725 423c0 -20 -2 -41 -6 -64l-63 -359h-269l6 37c-48 -28 -127 -53 -195 -53c-105 0 -146 56 -146 128c0 231 156 239 355 239h9l4 22c1 7 2 14 2 19c0 25 -18 26 -82 26l-15 -29h-176l31 174c59 18 179 47 293 47c149 0 252 -47 252 -187zM412 236h-22
c-26 0 -50 -8 -50 -71c0 -15 8 -20 20 -20c14 0 27 3 37 7zM786 814c-17 -147 -110 -169 -171 -169c-22 0 -65 2 -116 18l-53 17c-21 7 -37 10 -48 11c-19 0 -26 -9 -32 -44h-149c17 149 109 170 177 170c27 0 59 -4 107 -18l54 -16c22 -7 34 -12 51 -12c18 0 29 8 32 43
h148z" />
    <glyph glyph-name="ccedilla.alt" horiz-adv-x="616" 
d="M582 10c-56 -12 -137 -26 -244 -26c-180 0 -261 76 -261 220c0 27 3 56 8 87l7 41c36 206 143 278 356 278c116 0 206 -18 235 -26l-35 -204h-165l-3 29c-59 0 -73 -2 -91 -91l-8 -41c-4 -21 -6 -37 -6 -50c0 -37 18 -43 59 -43s91 2 180 5zM491 -56l-149 -138h-260
l113 138h296z" />
    <glyph glyph-name="dotlessi.alt" horiz-adv-x="411" 
d="M356 0h-301l71 405l-32 6l32 184h334z" />
    <glyph glyph-name="iacute.alt" horiz-adv-x="411" 
d="M660 786l-215 -136h-272l157 136h330zM356 0h-301l71 405l-32 6l32 184h334z" />
    <glyph glyph-name="icircumflex.alt" horiz-adv-x="411" 
d="M614 650h-241l-49 54l-70 -54h-251l159 136h342zM356 0h-301l71 405l-32 6l32 184h334z" />
    <glyph glyph-name="idieresis.alt" horiz-adv-x="411" 
d="M607 786l-24 -138h-228l24 138h228zM86 786h228l-24 -138h-228zM356 0h-301l71 405l-32 6l32 184h334z" />
    <glyph glyph-name="igrave.alt" horiz-adv-x="411" 
d="M448 650h-266l-168 136h326zM356 0h-301l71 405l-32 6l32 184h334z" />
    <glyph glyph-name="lslash.alt" horiz-adv-x="411" 
d="M366 0h-301l44 254l-75 -51l24 135l75 51l37 208l-32 5l32 184h334l-30 -168l79 55l-24 -135l-78 -55z" />
    <glyph glyph-name="ntilde.alt" horiz-adv-x="784" 
d="M734 0h-301l65 373c1 8 2 14 2 19c0 17 -8 22 -26 22c-17 0 -41 -8 -48 -12l-70 -402h-301l71 405l-32 6l32 184h309l-8 -50c56 40 133 65 203 65c146 0 178 -67 178 -145c0 -35 -6 -73 -12 -107zM788 816c-17 -147 -110 -169 -171 -169c-22 0 -65 2 -116 18l-53 17
c-21 7 -37 10 -48 11c-19 0 -26 -9 -32 -44h-149c17 149 109 170 177 170c27 0 59 -4 107 -18l54 -16c22 -7 34 -12 51 -12c18 0 29 8 32 43h148z" />
    <glyph glyph-name="scaron.alt" horiz-adv-x="634" 
d="M151 786h241l51 -53l68 53h251l-158 -136h-342zM425 610c99 0 206 -11 263 -27l-28 -161h-178l-5 24c-7 0 -20 1 -34 1c-23 0 -48 -3 -48 -21c0 -14 11 -18 39 -28l61 -22c98 -35 145 -79 145 -162c0 -193 -177 -229 -360 -229c-85 0 -185 11 -236 22l26 151
c20 -1 123 -8 220 -8c17 0 51 0 51 25c0 18 -12 22 -45 34l-49 18c-88 32 -148 78 -148 174c0 182 159 209 326 209z" />
    <glyph glyph-name="uacute.alt" 
d="M821 786l-215 -136h-272l157 136h330zM537 595h301l-104 -595h-276l8 50c-46 -33 -121 -66 -223 -66c-131 0 -158 77 -158 151c0 32 5 63 9 87l32 184l-32 6l32 183h334l-65 -373c-1 -8 -2 -15 -2 -20c0 -16 7 -21 26 -21c16 0 41 8 47 11z" />
    <glyph glyph-name="ucircumflex.alt" 
d="M537 595h301l-104 -595h-276l8 50c-46 -33 -121 -66 -223 -66c-131 0 -158 77 -158 151c0 32 5 63 9 87l32 184l-32 6l32 183h334l-65 -373c-1 -8 -2 -15 -2 -20c0 -16 7 -21 26 -21c16 0 41 8 47 11zM807 650h-241l-49 54l-70 -54h-251l159 136h342z" />
    <glyph glyph-name="udieresis.alt" 
d="M537 595h301l-104 -595h-276l8 50c-46 -33 -121 -66 -223 -66c-131 0 -158 77 -158 151c0 32 5 63 9 87l32 184l-32 6l32 183h334l-65 -373c-1 -8 -2 -15 -2 -20c0 -16 7 -21 26 -21c16 0 41 8 47 11zM795 787l-24 -138h-228l24 138h228zM274 787h228l-24 -138h-228z" />
    <glyph glyph-name="ugrave.alt" 
d="M676 650h-266l-168 136h326zM537 595h301l-104 -595h-276l8 50c-46 -33 -121 -66 -223 -66c-131 0 -158 77 -158 151c0 32 5 63 9 87l32 184l-32 6l32 183h334l-65 -373c-1 -8 -2 -15 -2 -20c0 -16 7 -21 26 -21c16 0 41 8 47 11z" />
    <glyph glyph-name="f_f.alt" horiz-adv-x="995" 
d="M1103 785l-25 -144c-44 2 -52 2 -60 2c-32 0 -39 -4 -43 -29l-4 -19h98l-32 -184h-98l-99 -559h-301l99 559h-154l-100 -559h-301l100 559l-79 11l30 173h81l4 23c27 151 130 186 254 186c64 0 129 -8 175 -19l-25 -144c-44 2 -52 2 -60 2c-32 0 -39 -4 -43 -29l-4 -19
h154l4 23c27 151 130 186 254 186c64 0 128 -8 175 -19z" />
    <glyph glyph-name="f_f.alt2" horiz-adv-x="995" 
d="M867 0h-301l72 411h-154l-72 -411h-301l72 411l-79 11l30 173h81l4 23c27 151 130 186 254 186c64 0 129 -8 175 -19l-25 -144c-44 2 -52 2 -60 2c-32 0 -39 -4 -43 -29l-4 -19h154l4 23c27 151 130 186 254 186c64 0 128 -8 175 -19l-25 -144c-44 2 -52 2 -60 2
c-32 0 -39 -4 -43 -29l-4 -19h98l-32 -184h-98z" />
    <glyph glyph-name="f_i.alt2" horiz-adv-x="920" 
d="M412 0h-301l72 411l-79 10l30 174h81l4 23c27 151 129 186 253 186c65 0 129 -8 176 -19l-25 -144c-44 2 -52 2 -60 2c-32 0 -39 -4 -43 -29l-4 -19h453l-104 -595h-301l72 411h-152zM985 644h-315l25 142h315z" />
    <glyph glyph-name="f_l.alt2" horiz-adv-x="920" 
d="M412 0h-301l72 411l-79 11l30 173h81l4 19c28 158 121 190 266 190c60 0 170 -11 217 -18h301l-138 -786h-301l113 641c-44 2 -81 2 -114 2c-29 0 -39 -3 -43 -29l-4 -19h98l-32 -184h-98z" />
    <glyph glyph-name="f_f_i.alt2" horiz-adv-x="1373" 
d="M1318 0h-301l72 411h-152l-72 -411h-301l72 411h-152l-72 -411h-301l72 411l-79 11l30 173h81l4 23c27 151 130 186 254 186c64 0 129 -8 175 -19l-25 -144c-44 2 -52 2 -60 2c-32 0 -39 -4 -43 -29l-4 -19h152l4 23c27 151 129 186 253 186c65 0 129 -8 176 -19
l-25 -144c-44 2 -52 2 -60 2c-32 0 -39 -4 -43 -29l-4 -19h453zM1438 644h-315l25 142h315z" />
    <glyph glyph-name="f_f_l.alt2" horiz-adv-x="1373" 
d="M1318 0h-301l113 641c-43 2 -81 2 -114 2c-30 0 -39 -3 -43 -29l-4 -19h98l-32 -184h-98l-72 -411h-301l72 411h-152l-72 -411h-301l72 411l-79 11l30 173h81l4 23c27 151 130 186 254 186c64 0 129 -8 175 -19l-25 -144c-44 2 -52 2 -60 2c-32 0 -39 -4 -43 -29l-4 -19
h152l4 19c28 158 121 190 266 190c60 0 170 -11 217 -18h301z" />
    <glyph glyph-name="yacute.alt" horiz-adv-x="785" 
d="M846 786l-215 -136h-272l157 136h330zM730 4c-25 -144 -133 -212 -390 -212c-148 0 -260 22 -283 28l27 152c71 -3 184 -10 250 -10c81 0 91 8 97 42l2 8c-21 -2 -45 -4 -62 -4c-184 0 -270 83 -270 221c0 22 3 46 7 71l51 295h298l-54 -310c-3 -15 -4 -27 -4 -38
c0 -27 10 -42 38 -42c13 0 23 0 32 1l68 389h297z" />
    <glyph glyph-name="ydieresis.alt" horiz-adv-x="785" 
d="M730 4c-25 -144 -133 -212 -390 -212c-148 0 -260 22 -283 28l27 152c71 -3 184 -10 250 -10c81 0 91 8 97 42l2 8c-21 -2 -45 -4 -62 -4c-184 0 -270 83 -270 221c0 22 3 46 7 71l51 295h298l-54 -310c-3 -15 -4 -27 -4 -38c0 -27 10 -42 38 -42c13 0 23 0 32 1l68 389
h297zM793 788l-24 -138h-228l24 138h228zM272 788h228l-24 -138h-228z" />
    <glyph glyph-name="zcaron.alt" horiz-adv-x="639" 
d="M162 786h241l51 -53l68 53h251l-158 -136h-342zM631 184l-32 -184h-559l28 162l257 247h-60l-13 -29h-142l37 215h555l-30 -175l-243 -236h202z" />
    <glyph glyph-name="two.alt" horiz-adv-x="742" 
d="M723 206l-36 -206h-652l15 90c34 206 100 272 283 360c83 40 133 54 133 95c0 17 -14 23 -74 23c-11 0 -35 0 -66 -2l-13 -41h-177l35 199c118 32 248 40 324 40c223 0 314 -64 314 -174c0 -158 -135 -217 -275 -277c-127 -54 -133 -61 -140 -103l-1 -4h330z" />
    <glyph glyph-name="three.alt" horiz-adv-x="734" 
d="M799 579c0 -87 -40 -169 -119 -214c45 -24 61 -70 61 -116c0 -223 -194 -270 -398 -270c-119 0 -247 20 -305 43l30 168c72 -6 171 -10 265 -10c56 0 81 6 81 70c0 27 -20 33 -81 33h-183l32 178h185c78 0 97 14 97 74c0 27 -18 30 -63 30c-30 0 -57 -1 -84 -1l-14 -39
h-176l35 196c73 23 200 43 319 43c190 0 318 -51 318 -185z" />
    <glyph glyph-name="five.alt" horiz-adv-x="724" 
d="M802 743l-40 -224h-173v26h-161l-17 -70h24c237 0 304 -62 304 -169c0 -260 -171 -327 -396 -327c-138 0 -244 19 -302 36l30 169c55 -4 124 -9 214 -9c78 0 100 9 109 57c3 14 3 19 3 23c0 29 -21 35 -83 35h-228l119 453h597z" />
    <glyph glyph-name="six.alt" horiz-adv-x="774" 
d="M781 220c-31 -172 -152 -241 -400 -241c-243 0 -301 110 -301 235c0 36 5 72 11 108l23 133c34 197 94 309 402 309c127 0 254 -21 309 -35l-35 -201h-173l-1 37c-24 0 -51 1 -83 1c-70 0 -75 -7 -88 -71l-3 -14c17 3 50 5 70 5c197 0 278 -52 278 -187
c0 -19 -2 -39 -9 -79zM459 239c6 37 9 52 9 62c0 16 -6 23 -26 23c-10 0 -24 -2 -28 -3l-14 -79c-4 -23 -7 -40 -7 -53c0 -17 6 -25 22 -25c29 0 35 25 44 75z" />
    <glyph glyph-name="seven.alt" horiz-adv-x="760" 
d="M821 535l-425 -535h-341l437 545h-158l-13 -35h-173l42 233h668z" />
    <glyph glyph-name="f_i.alt" horiz-adv-x="929" 
d="M969 595l-105 -595h-301l73 411h-152l-98 -559h-301l98 559l-79 10l30 174h81l4 23c27 151 129 186 253 186c65 0 129 -8 176 -19l-25 -144c-44 2 -52 2 -60 2c-32 0 -39 -4 -43 -29l-4 -19h453zM695 786h315l-25 -142h-315z" />
    <glyph glyph-name="f_l.alt" horiz-adv-x="929" 
d="M1004 786l-139 -786h-301l114 641c-44 2 -81 2 -114 2c-29 0 -39 -3 -43 -29l-4 -19h98l-32 -184h-98l-101 -559h-301l101 559l-79 11l30 173h81l4 19c28 158 121 190 266 190c60 0 170 -11 217 -18h301z" />
    <glyph glyph-name="dotlessj" horiz-adv-x="411" 
d="M461 595l-104 -591c-29 -166 -116 -216 -290 -216c-63 0 -115 6 -141 12l29 164c28 -1 39 -1 51 -1c37 0 44 8 50 41l104 591h301z" />
    <glyph glyph-name="zero.tab" horiz-adv-x="813" 
d="M855 475c0 -34 -2 -71 -13 -137c-39 -238 -161 -359 -424 -359c-234 0 -316 113 -316 289c0 34 3 71 13 137c35 238 161 359 424 359c234 0 316 -113 316 -289zM534 518c0 26 -7 32 -24 32c-33 0 -45 -20 -70 -192c-10 -67 -16 -108 -16 -132c0 -26 7 -33 24 -33
c33 0 42 21 70 192c11 68 16 109 16 133z" />
    <glyph glyph-name="one.tab" horiz-adv-x="813" 
d="M742 0h-672l33 189l173 9l54 303l-177 -27l35 196l278 73h235l-97 -545l171 -9z" />
    <glyph glyph-name="two.tab" horiz-adv-x="813" 
d="M722 0h-652l15 90c34 206 100 273 283 360c90 43 133 57 133 91c0 21 -14 27 -74 27c-88 0 -219 -6 -250 -8l29 164c118 32 248 40 324 40c230 0 314 -64 314 -174c0 -158 -135 -227 -275 -287c-127 -54 -133 -51 -140 -93l-1 -4h330z" />
    <glyph glyph-name="three.tab" horiz-adv-x="813" 
d="M781 249c0 -224 -195 -270 -398 -270c-119 0 -247 20 -305 43l30 168c72 -6 171 -10 265 -10c56 0 81 6 81 70c0 27 -20 33 -81 33h-183l32 178h185c78 0 97 14 97 74c0 27 -18 30 -63 30c-104 0 -188 -3 -268 -8l29 164c73 23 200 43 319 43c200 0 318 -51 318 -185
c0 -87 -39 -169 -119 -214c45 -24 61 -70 61 -116z" />
    <glyph glyph-name="four.tab" horiz-adv-x="813" 
d="M794 136h-77l-23 -136h-329l23 136h-325l30 170l492 437h240l-75 -421h77zM443 322l24 135l-138 -135h114z" />
    <glyph glyph-name="five.tab" horiz-adv-x="813" 
d="M847 743l-35 -198h-339l-17 -70h24c237 0 304 -62 304 -169c0 -260 -171 -327 -396 -327c-138 0 -244 19 -302 36l30 169c55 -4 124 -9 214 -9c78 0 100 9 109 57c3 14 3 19 3 23c0 29 -21 35 -83 35h-228l119 453h597z" />
    <glyph glyph-name="seven.tab" horiz-adv-x="813" 
d="M845 535l-425 -535h-341l437 545h-337l35 198h668z" />
    <glyph glyph-name="six.tab" horiz-adv-x="813" 
d="M798 220c-31 -172 -152 -241 -400 -241c-243 0 -301 110 -301 235c0 36 5 72 11 108l23 133c34 197 94 309 402 309c127 0 254 -21 309 -35l-30 -172c-117 7 -159 9 -262 9c-70 0 -75 -7 -88 -71l-3 -14c17 3 50 5 70 5c187 0 278 -52 278 -187c0 -19 -2 -39 -9 -79z
M476 239c6 37 9 52 9 62c0 16 -6 23 -26 23c-10 0 -24 -2 -28 -3l-14 -79c-4 -23 -7 -40 -7 -53c0 -17 6 -25 22 -25c29 0 35 25 44 75z" />
    <glyph glyph-name="eight.tab" horiz-adv-x="813" 
d="M871 584c0 -112 -48 -163 -116 -205c40 -31 59 -79 59 -133c0 -14 -1 -29 -5 -50c-34 -193 -184 -217 -405 -217h-8c-194 0 -327 44 -327 192c0 110 37 160 117 208c-35 29 -57 73 -57 131c0 14 1 29 5 52c32 180 178 202 400 202h8c208 0 329 -42 329 -180zM495 265
c0 26 -10 36 -34 36h-8c-34 0 -46 -19 -57 -84c-2 -11 -3 -21 -3 -29c0 -22 9 -33 34 -33h8c34 0 46 20 55 68c3 17 5 31 5 42zM545 555c0 20 -8 32 -34 32h-8c-45 0 -55 -52 -55 -90c0 -22 8 -34 33 -34h8c35 0 44 23 52 64c3 15 4 22 4 28z" />
    <glyph glyph-name="nine.tab" horiz-adv-x="813" 
d="M142 523c31 172 152 241 400 241c243 0 301 -110 301 -235c0 -36 -5 -72 -11 -108l-23 -133c-34 -197 -94 -309 -402 -309c-127 0 -254 21 -309 35l30 172c117 -7 159 -9 262 -9c70 0 75 7 88 71l3 14c-17 -3 -50 -5 -70 -5c-187 0 -278 52 -278 187c0 19 2 39 9 79z
M464 504c-6 -37 -9 -52 -9 -62c0 -16 6 -23 26 -23c10 0 24 2 28 3l14 79c4 23 7 40 7 53c0 17 -6 25 -22 25c-29 0 -35 -25 -44 -75z" />
    <glyph glyph-name="uni2215" unicode="&#x2215;" horiz-adv-x="771" 
d="M900 748l-662 -748h-234l663 748h233z" />
    <glyph glyph-name="dieresisacute" horiz-adv-x="878" 
d="M984 786l-24 -138h-203l24 138h203zM468 786h305l-167 -138h-247zM373 786l-24 -138h-203l24 138h203z" />
    <glyph glyph-name="middot" horiz-adv-x="341" 
d="M355 269h-276l35 197h276z" />
    <glyph glyph-name="dieresisgrave" horiz-adv-x="878" 
d="M984 786l-24 -138h-203l24 138h203zM683 786l61 -138h-241l-119 138h299zM373 786l-24 -138h-203l24 138h203z" />
    <glyph glyph-name="threequartersemdash" horiz-adv-x="499" 
d="M499 188h-434l27 157h434z" />
    <glyph glyph-name="overscore" horiz-adv-x="757" 
d="M867 814h-692l22 127h692z" />
    <glyph glyph-name="franc.taboldstyle" horiz-adv-x="720" 
d="M419 0h-327l15 86h-60l18 105h60l84 474h595l-34 -193h-268l-9 -52h268l-31 -176h-268l-10 -53h128l-18 -105h-128z" />
    <glyph glyph-name="lira.taboldstyle" horiz-adv-x="652" 
d="M732 646l-29 -169c-57 2 -85 3 -141 3c-79 0 -88 -8 -97 -52l-3 -15h130l-12 -70h-130l-8 -48h130l-13 -71h-130l-1 -5c-2 -13 -6 -26 -14 -38h236l-31 -181h-565l25 142c35 24 50 40 56 78l1 4h-65l13 71h65l8 48h-65l12 70h65l3 13c31 178 145 239 328 239
c80 0 159 -5 232 -19z" />
    <glyph glyph-name="currency.taboldstyle" horiz-adv-x="684" 
d="M716 127l-98 -89l-85 79c-38 -19 -79 -29 -122 -29c-44 0 -85 10 -125 30l-91 -84l-97 89l91 84c-21 35 -31 74 -31 115c0 39 10 78 31 113l-92 85l98 88l90 -84c39 21 82 31 126 31c43 0 85 -9 123 -30l86 80l97 -90l-87 -79c22 -36 35 -75 35 -115s-12 -80 -35 -116z
M516 322c0 71 -48 100 -106 100c-59 0 -107 -29 -107 -100s51 -100 107 -100c54 0 106 29 106 100z" />
    <glyph glyph-name="peseta.taboldstyle" horiz-adv-x="860" 
d="M914 492l-26 -147h-57c-64 -141 -221 -168 -369 -168c-19 0 -27 0 -55 1l-31 -178h-295l60 345h-49l26 147h49l28 156c87 9 232 16 310 16c172 0 339 -27 347 -172h62zM559 440c0 23 -16 30 -57 30c-17 0 -35 -1 -44 -2l-16 -92c11 -1 26 -2 43 -2c54 0 71 16 74 66z" />
    <glyph glyph-name="commaaccent.alt" horiz-adv-x="426" 
d="M536 806l-93 -139h-294l130 139h257z" />
    <glyph glyph-name="undercommaaccent" horiz-adv-x="434" 
d="M392 -56l-135 -138h-259l98 138h296z" />
    <glyph glyph-name="DieresisAcute" horiz-adv-x="878" 
d="M372 780h-203l24 138h203zM382 780l109 138h305l-167 -138h-247zM983 780h-203l24 138h203z" />
    <glyph glyph-name="DieresisGrave" horiz-adv-x="878" 
d="M1007 918l-24 -138h-203l24 138h203zM707 918l61 -138h-241l-119 138h299zM396 918l-24 -138h-203l24 138h203z" />
    <glyph glyph-name="cyrBreve" horiz-adv-x="598" 
d="M707 810c-48 -148 -214 -164 -285 -164c-70 0 -250 16 -248 164h153c2 -46 60 -54 105 -54c46 0 106 8 124 54h151z" />
    <glyph glyph-name="cyrFlex" horiz-adv-x="598" 
d="M679 648h-151c-2 46 -60 54 -106 54c-45 0 -105 -8 -123 -54h-153c50 148 216 164 286 164c71 0 250 -16 247 -164z" />
    <glyph glyph-name="dblGrave" horiz-adv-x="867" 
d="M942 650h-232l-168 136h292zM461 786l109 -136h-232l-168 136h291z" />
    <glyph glyph-name="cyrbreve" horiz-adv-x="598" 
d="M707 810c-49 -148 -210 -164 -281 -164c-70 0 -254 16 -252 164h153c2 -46 60 -54 105 -54c46 0 106 8 124 54h151z" />
    <glyph glyph-name="cyrflex" horiz-adv-x="598" 
d="M679 648h-151c-2 46 -60 54 -106 54c-45 0 -105 -8 -123 -54h-153c50 148 199 164 286 164c71 0 250 -16 247 -164z" />
    <glyph glyph-name="dblgrave" horiz-adv-x="867" 
d="M942 650h-232l-168 136h292zM461 786l109 -136h-232l-168 136h291z" />
    <glyph glyph-name="T_h.caron" horiz-adv-x="1394" 
d="M700 789h-342l-111 136h246l50 -53l69 53h246zM1339 0h-301l65 373c1 8 2 15 2 20c0 16 -7 21 -25 21c-17 0 -34 -5 -48 -11l-71 -403h-301l95 540h-114l-95 -540h-330l95 540h-196l36 203h941l-30 -166c62 27 125 33 165 33c152 0 186 -70 186 -151
c0 -33 -5 -68 -11 -101z" />
    <glyph glyph-name="T_h.commaaccent" horiz-adv-x="1394" 
d="M522 -56l-130 -138h-257l93 138h294zM1339 0h-301l65 373c1 8 2 15 2 20c0 16 -7 21 -25 21c-17 0 -34 -5 -48 -11l-71 -403h-301l95 540h-114l-95 -540h-330l95 540h-196l36 203h941l-30 -166c62 27 125 33 165 33c152 0 186 -70 186 -151c0 -33 -5 -68 -11 -101z" />
    <glyph glyph-name="i.dot" horiz-adv-x="411" 
d="M356 0h-301l104 595h301zM476 644h-315l25 142h315z" />
    <glyph glyph-name="Amacron.alt" horiz-adv-x="875" 
d="M15 0l207 547l-41 6l34 190h619l26 -743h-340l4 119h-128l-37 -119h-344zM537 313l2 173c0 31 3 74 6 105h-2c-9 -31 -22 -74 -32 -105l-57 -173h83zM805 788h-507l24 136h507z" />
    <glyph glyph-name="Abreve.alt" horiz-adv-x="875" 
d="M15 0l207 547l-41 6l34 190h619l26 -743h-340l4 119h-128l-37 -119h-344zM537 313l2 173c0 31 3 74 6 105h-2c-9 -31 -22 -74 -32 -105l-57 -173h83zM841 943c-48 -148 -193 -164 -281 -164c-81 0 -251 14 -252 164h153c2 -46 60 -54 105 -54c46 0 106 8 124 54h151z" />
    <glyph glyph-name="Aringacute.alt" horiz-adv-x="875" 
d="M758 901c0 -82 -75 -137 -181 -137s-182 55 -182 137c0 83 76 138 182 138s181 -55 181 -138zM632 902c0 24 -21 40 -55 40c-33 0 -55 -16 -55 -40s21 -40 55 -40s55 16 55 40zM15 0l207 547l-41 6l34 190h619l26 -743h-340l4 119h-128l-37 -119h-344zM537 313l2 173
c0 31 3 74 6 105h-2c-9 -31 -22 -74 -32 -105l-57 -173h83zM945 1187l-215 -136h-272l157 136h330z" />
    <glyph glyph-name="Aogonek.alt" horiz-adv-x="875" 
d="M826 -191c-43 -11 -128 -27 -229 -27c-105 0 -154 39 -154 97c0 50 32 90 76 123l5 117h-128l-37 -119h-344l207 547l-41 6l34 190h619l26 -743c-116 -21 -149 -41 -149 -62c0 -14 11 -17 42 -17c34 0 69 3 93 5zM537 313l2 173c0 31 3 74 6 105h-2
c-9 -31 -22 -74 -32 -105l-57 -173h83z" />
    <glyph glyph-name="AE.alt" horiz-adv-x="1135" 
d="M1096 0h-605l20 119h-92l-37 -119h-334l198 541l-39 5l35 197h985l-36 -202h-276l-13 -74h253l-33 -186h-253l-14 -79h276zM546 313l49 278h-29c-10 -32 -22 -74 -32 -105l-57 -173h69z" />
    <glyph glyph-name="AEacute.alt" horiz-adv-x="1135" 
d="M1105 925l-215 -136h-272l157 136h330zM1096 0h-605l20 119h-92l-37 -119h-334l198 541l-39 5l35 197h985l-36 -202h-276l-13 -74h253l-33 -186h-253l-14 -79h276zM546 313l49 278h-29c-10 -32 -22 -74 -32 -105l-57 -173h69z" />
    <glyph glyph-name="Cacute.alt" horiz-adv-x="705" 
d="M705 204l-35 -200c-49 -15 -198 -25 -250 -25c-227 0 -327 79 -327 263c0 39 4 82 13 130l7 40c48 277 170 352 445 352c52 0 197 -10 242 -25l-41 -234h-180l-1 37c-73 0 -110 -4 -135 -150l-7 -40c-6 -33 -9 -59 -9 -79c0 -65 30 -72 80 -72c75 0 148 2 198 3zM865 924
l-215 -136h-272l157 136h330z" />
    <glyph glyph-name="Ccircumflex.alt" horiz-adv-x="705" 
d="M705 204l-35 -200c-49 -15 -198 -25 -250 -25c-227 0 -327 79 -327 263c0 39 4 82 13 130l7 40c48 277 170 352 445 352c52 0 197 -10 242 -25l-41 -234h-180l-1 37c-73 0 -110 -4 -135 -150l-7 -40c-6 -33 -9 -59 -9 -79c0 -65 30 -72 80 -72c75 0 148 2 198 3zM844 788
h-241l-49 54l-70 -54h-251l159 136h342z" />
    <glyph glyph-name="Ccaron.alt" horiz-adv-x="705" 
d="M705 204l-35 -200c-49 -15 -198 -25 -250 -25c-227 0 -327 79 -327 263c0 39 4 82 13 130l7 40c48 277 170 352 445 352c52 0 197 -10 242 -25l-41 -234h-180l-1 37c-73 0 -110 -4 -135 -150l-7 -40c-6 -33 -9 -59 -9 -79c0 -65 30 -72 80 -72c75 0 148 2 198 3zM269 924
h241l51 -53l68 53h251l-158 -136h-342z" />
    <glyph glyph-name="Cdotaccent.alt" horiz-adv-x="705" 
d="M705 204l-35 -200c-49 -15 -198 -25 -250 -25c-227 0 -327 79 -327 263c0 39 4 82 13 130l7 40c48 277 170 352 445 352c52 0 197 -10 242 -25l-41 -234h-180l-1 37c-73 0 -110 -4 -135 -150l-7 -40c-6 -33 -9 -59 -9 -79c0 -65 30 -72 80 -72c75 0 148 2 198 3zM704 789
h-316l24 136h316z" />
    <glyph glyph-name="Dcaron.alt" horiz-adv-x="835" 
d="M55 0l97 549l-36 4l35 190c113 15 250 21 366 21c236 0 355 -77 355 -277c0 -36 -4 -76 -12 -121l-4 -23c-53 -297 -198 -364 -477 -364c-116 0 -215 6 -324 21zM537 363l4 23c10 56 16 93 16 118c0 45 -21 46 -88 46l-62 -357c99 0 101 5 130 170zM265 925h241l51 -53
l68 53h251l-158 -136h-342z" />
    </font>
</defs>
</svg>
