<?xml version="1.0" standalone="no"?>
<!DOCTYPE svg PUBLIC "-//W3C//DTD SVG 1.1//EN" "http://www.w3.org/Graphics/SVG/1.1/DTD/svg11.dtd" >
<svg xmlns="http://www.w3.org/2000/svg" xmlns:xlink="http://www.w3.org/1999/xlink" version="1.1">
<metadata>
Created by FontForge 20141024 at Thu Apr 30 19:12:55 2015
 By System Administrator
Copyright (c) 2007 Monotype Imaging Inc. Soho is designed by Sebastian Lester. All rights reserved.
</metadata>
<defs>
<font id="SohoGothicPro-ThinItalic" horiz-adv-x="197" >
  <font-face 
    font-family="Soho Gothic Pro"
    font-weight="250"
    font-style="italic"
    font-stretch="normal"
    units-per-em="1000"
    panose-1="2 11 2 3 3 5 4 9 2 4"
    ascent="782"
    descent="-218"
    x-height="529"
    cap-height="743"
    bbox="-98 -292 1277 1162"
    underline-thickness="50"
    underline-position="-50"
    slope="-12"
    stemh="16"
    stemv="16"
    unicode-range="U+0020-FE6A"
  />
<missing-glyph horiz-adv-x="500" 
d="M12 0v665h475v-665h-475zM88 618l162 -243l161 243h-323zM60 575v-484c0 -1 161 242 161 242zM440 575l-162 -242l162 -243v485zM411 48l-161 242l-162 -242h323z" />
    <glyph glyph-name="f_i" unicode="fi" horiz-adv-x="572" 
d="M576 529l-94 -529h-17l91 513h-319l-106 -604c-14 -79 -34 -121 -110 -121c-15 0 -32 0 -60 4l2 14c32 -3 46 -3 59 -3c60 0 79 29 93 106l106 604h-114l3 16h114l16 91c20 113 50 156 153 156c21 0 61 -3 80 -6l-2 -15c-20 2 -59 5 -80 5c-89 0 -116 -30 -135 -140
l-16 -91h336zM601 770h17l-22 -127h-17z" />
    <glyph glyph-name="f_l" unicode="fl" horiz-adv-x="572" 
d="M618 770l-136 -770h-17l133 755c-80 5 -124 5 -155 5c-136 0 -168 -30 -187 -140l-16 -91h188l-3 -16h-188l-106 -604c-14 -79 -34 -121 -110 -121c-15 0 -32 0 -60 4l2 14c32 -3 46 -3 59 -3c61 0 79 29 93 106l106 604h-114l3 16h114l16 91c20 113 50 156 203 156
c30 0 96 -1 157 -6h18z" />
    <glyph glyph-name="f_f" unicode="ff" horiz-adv-x="695" 
d="M808 770l-2 -15c-20 2 -59 5 -80 5c-89 0 -116 -30 -135 -140l-16 -91h188l-3 -16h-188l-106 -604c-14 -79 -34 -121 -110 -121c-15 0 -32 0 -60 4l2 14c32 -3 46 -3 59 -3c61 0 79 29 93 106l106 604h-319l-106 -604c-14 -79 -34 -121 -110 -121c-15 0 -32 0 -60 4l2 14
c32 -3 46 -3 59 -3c61 0 79 29 93 106l106 604h-114l3 16h114l16 91c20 113 50 156 153 156c21 0 61 -3 80 -6l-2 -15c-20 2 -59 5 -80 5c-89 0 -116 -30 -135 -140l-16 -91h319l16 91c20 113 50 156 153 156c21 0 61 -3 80 -6z" />
    <glyph glyph-name="f_f_i" unicode="ffi" horiz-adv-x="907" 
d="M912 529l-95 -529h-16l91 513h-319l-106 -604c-14 -79 -34 -121 -110 -121c-15 0 -32 0 -60 4l2 14c32 -3 46 -3 59 -3c61 0 79 29 93 106l106 604h-320l-106 -604c-14 -79 -34 -121 -110 -121c-15 0 -32 0 -60 4l2 14c32 -3 46 -3 59 -3c61 0 79 29 93 106l106 604h-114
l3 16h114l16 91c20 113 50 156 153 156c21 0 61 -3 80 -6l-2 -15c-20 2 -59 5 -80 5c-89 0 -116 -30 -135 -140l-16 -91h320l16 91c20 113 50 156 153 156c21 0 61 -3 80 -6l-2 -15c-20 2 -59 5 -80 5c-89 0 -116 -30 -135 -140l-16 -91h336zM937 770h17l-22 -127h-17z" />
    <glyph glyph-name="f_f_l" unicode="ffl" horiz-adv-x="910" 
d="M956 770l-136 -770h-17l133 755c-52 5 -138 7 -159 7c-149 0 -166 -32 -185 -142l-16 -91h188l-3 -16h-188l-106 -604c-14 -79 -34 -121 -110 -121c-15 0 -32 0 -60 4l2 14c32 -3 46 -3 59 -3c61 0 79 29 93 106l106 604h-320l-106 -604c-14 -79 -34 -121 -110 -121
c-15 0 -32 0 -60 4l2 14c32 -3 46 -3 59 -3c61 0 79 29 93 106l106 604h-114l3 16h114l16 91c20 113 50 156 153 156c21 0 61 -3 80 -6l-2 -15c-20 2 -59 5 -80 5c-89 0 -116 -30 -135 -140l-16 -91h320l16 91c20 113 40 158 203 158c20 0 77 -1 157 -8h20z" />
    <glyph glyph-name="f_b" unicode="fb" horiz-adv-x="901" 
d="M620 -12c-27 0 -77 0 -156 8l134 758c-54 6 -168 8 -196 8c-97 0 -125 -23 -146 -142l-16 -91h183l-3 -16h-183l-105 -604c-14 -79 -34 -121 -110 -121c-15 0 -32 0 -60 4l2 14c32 -3 46 -3 59 -3c61 0 80 29 93 106l105 604h-114l3 16h114l16 91c22 128 57 158 165 158
c31 0 138 -2 196 -8h15l-45 -254c60 19 121 27 156 27c119 0 177 -44 177 -165c0 -30 -4 -65 -11 -106l-4 -22c-35 -202 -110 -262 -269 -262zM569 500l-87 -490c67 -6 114 -7 141 -7c149 0 216 55 250 252l4 22c7 40 11 74 11 103c0 114 -55 147 -164 147
c-35 0 -98 -8 -155 -27z" />
    <glyph glyph-name="f_f_b" unicode="ffb" horiz-adv-x="1236" 
d="M955 -12c-27 0 -77 0 -156 8l134 759c-63 5 -169 7 -196 7c-97 0 -125 -23 -146 -142l-16 -91h185l-3 -16h-185l-106 -604c-14 -79 -34 -121 -110 -121c-15 0 -32 0 -60 4l2 14c32 -3 46 -3 59 -3c61 0 79 29 93 106l106 604h-319l-106 -604c-14 -79 -34 -121 -110 -121
c-15 0 -32 0 -60 4l2 14c32 -3 46 -3 59 -3c61 0 79 29 93 106l106 604h-122l3 16h122l16 91c20 113 50 156 153 156c21 0 59 -3 77 -6l-2 -15c-18 2 -54 5 -77 5c-89 0 -116 -30 -135 -140l-16 -91h319l16 91c22 128 57 158 165 158c26 0 135 -3 195 -8h16l-45 -254
c60 19 121 27 156 27c119 0 177 -44 177 -165c0 -30 -4 -65 -11 -106l-4 -22c-35 -202 -110 -262 -269 -262zM904 500l-87 -490c67 -6 114 -7 141 -7c149 0 216 55 250 252l4 22c7 40 11 74 11 103c0 114 -55 147 -164 147c-35 0 -98 -8 -155 -27z" />
    <glyph glyph-name="f_f_h" unicode="ffh" horiz-adv-x="1265" 
d="M817 0h-17l133 755c-45 4 -138 7 -166 7c-127 0 -154 -23 -175 -142l-16 -91h184l-3 -16h-184l-105 -604c-14 -79 -34 -121 -110 -121c-15 0 -32 0 -60 4l2 14c32 -3 46 -3 59 -3c61 0 80 29 93 106l104 604h-319l-105 -604c-14 -79 -34 -121 -110 -121
c-15 0 -32 0 -60 4l2 14c32 -3 46 -3 59 -3c61 0 79 29 93 106l105 604h-122l3 16h122l16 91c20 113 50 156 153 156c21 0 58 -3 77 -6l-2 -15c-18 2 -55 5 -77 5c-89 0 -116 -30 -135 -140l-16 -91h319l16 91c22 128 58 158 195 158c27 0 118 -4 165 -8h18l-50 -286
c58 27 130 60 209 60c102 0 139 -48 139 -132c0 -25 -4 -53 -9 -84l-58 -328h-16l58 331c5 29 9 56 9 81c0 70 -27 116 -124 116c-72 0 -150 -31 -211 -61z" />
    <glyph glyph-name="f_f_k" unicode="ffk" horiz-adv-x="1132" 
d="M819 0h-18l133 754c-58 5 -120 8 -166 8c-127 0 -154 -23 -175 -142l-16 -91h184l-3 -16h-184l-108 -604c-14 -79 -34 -121 -110 -121c-15 0 -32 0 -60 4l2 14c32 -3 46 -3 59 -3c61 0 79 29 93 106l107 604h-319l-108 -604c-14 -79 -34 -121 -110 -121
c-15 0 -32 0 -60 4l2 14c32 -3 46 -3 59 -3c61 0 79 29 93 106l108 604h-122l3 16h122l16 91c20 113 50 156 153 156c21 0 58 -3 77 -6l-2 -15c-18 2 -55 5 -77 5c-89 0 -116 -30 -135 -140l-16 -91h319l16 91c22 128 58 158 195 158c46 0 108 -3 166 -8h17l-86 -488
l322 247h28l-327 -251l231 -278h-23l-231 278z" />
    <glyph glyph-name="f_h" unicode="fh" horiz-adv-x="930" 
d="M482 0h-17l133 755c-63 4 -122 5 -166 5c-127 0 -155 -21 -176 -140l-16 -91h185l-3 -16h-185l-105 -604c-14 -79 -34 -121 -110 -121c-15 0 -32 0 -60 4l2 14c32 -3 46 -3 59 -3c61 0 80 29 93 106l105 604h-122l3 16h122l16 91c22 128 57 156 195 156
c44 0 106 -2 165 -6h18l-50 -286c58 27 130 60 209 60c102 0 139 -48 139 -132c0 -25 -4 -53 -9 -84l-58 -328h-16l58 331c5 29 9 56 9 81c0 70 -27 116 -124 116c-72 0 -150 -31 -211 -61z" />
    <glyph glyph-name="f_j" unicode="fj" horiz-adv-x="574" 
d="M577 529l-109 -617c-14 -79 -37 -124 -115 -124c-9 0 -25 0 -57 4l2 14c33 -3 49 -3 58 -3c62 0 81 32 95 109l106 601h-319l-107 -604c-14 -79 -34 -121 -110 -121c-15 0 -32 0 -60 4l2 14c32 -3 46 -3 59 -3c61 0 79 29 93 106l107 604h-122l3 16h122l16 91
c20 113 50 156 153 156c21 0 58 -3 77 -6l-2 -15c-18 2 -54 5 -77 5c-89 0 -116 -30 -135 -140l-16 -91h336zM602 770h17l-22 -129h-17z" />
    <glyph glyph-name="f_f_j" unicode="ffj" horiz-adv-x="907" 
d="M910 529l-109 -617c-14 -79 -37 -124 -115 -124c-9 0 -25 0 -57 4l2 14c33 -3 49 -3 58 -3c62 0 81 32 95 109l106 601h-317l-108 -604c-14 -79 -34 -121 -110 -121c-15 0 -32 0 -60 4l2 14c32 -3 46 -3 59 -3c61 0 79 29 93 106l108 604h-320l-106 -604
c-14 -79 -34 -121 -110 -121c-15 0 -32 0 -60 4l2 14c32 -3 46 -3 59 -3c61 0 79 29 93 106l106 604h-114l3 16h114l16 91c20 113 50 156 153 156c21 0 61 -3 80 -6l-2 -15c-20 2 -59 5 -80 5c-89 0 -116 -30 -135 -140l-16 -91h320l16 91c20 113 50 156 153 156
c21 0 58 -3 77 -6l-2 -15c-18 2 -54 5 -77 5c-89 0 -116 -30 -135 -140l-16 -91h334zM935 770h17l-22 -129h-17z" />
    <glyph glyph-name="f_k" unicode="fk" horiz-adv-x="796" 
d="M483 0h-18l133 754c-61 5 -121 8 -166 8c-127 0 -155 -23 -176 -142l-16 -91h185l-3 -16h-185l-106 -604c-14 -79 -34 -121 -110 -121c-15 0 -32 0 -60 4l2 14c32 -3 46 -3 59 -3c61 0 79 29 93 106l106 604h-122l3 16h122l16 91c22 128 57 158 195 158
c42 0 103 -3 164 -8h19l-86 -488l322 247h28l-327 -251l231 -278h-23l-231 278z" />
    <glyph glyph-name=".notdef" horiz-adv-x="500" 
d="M12 0v665h475v-665h-475zM88 618l162 -243l161 243h-323zM60 575v-484c0 -1 161 242 161 242zM440 575l-162 -242l162 -243v485zM411 48l-161 242l-162 -242h323z" />
    <glyph glyph-name="space" unicode=" " horiz-adv-x="220" 
 />
    <glyph glyph-name="exclam" unicode="!" horiz-adv-x="191" 
d="M104 0h-17l19 111h17zM239 770l-102 -582h-17l102 582h17z" />
    <glyph glyph-name="quotedbl" unicode="&#x22;" horiz-adv-x="267" 
d="M111 519l74 240h18l-75 -240h-17zM380 759l-75 -240h-17l74 240h18z" />
    <glyph glyph-name="numbersign" unicode="#" horiz-adv-x="705" 
d="M680 221h-173l-62 -221h-17l62 221h-231l-62 -221h-18l62 221h-121l3 17h124l76 263h-153l3 17h154l65 225h18l-65 -225h231l65 225h17l-65 -225h140l-3 -17h-141l-76 -263h170zM572 501h-232l-76 -263h231z" />
    <glyph glyph-name="dollar" unicode="$" horiz-adv-x="537" 
d="M243 -117l18 105c-84 0 -150 6 -191 13l2 15c30 -4 110 -12 191 -12c128 0 244 56 244 195c0 86 -53 116 -159 178l-44 26c-90 51 -147 91 -147 178c0 124 117 168 239 173l18 101h17l-18 -101c70 0 137 -6 186 -13l-2 -15c-37 5 -119 13 -190 13
c-101 0 -233 -33 -233 -158c0 -80 59 -115 141 -164l43 -25c107 -63 167 -97 167 -192c0 -136 -104 -204 -247 -212l-18 -105h-17z" />
    <glyph glyph-name="percent" unicode="%" horiz-adv-x="909" 
d="M459 630c0 -21 -2 -45 -7 -72l-11 -58c-27 -141 -89 -190 -180 -190c-74 0 -120 38 -120 128c0 20 2 42 7 68l11 58c26 140 85 190 181 190c77 0 119 -36 119 -124zM442 628c0 83 -40 110 -105 110c-76 0 -136 -41 -161 -177l-11 -59c-3 -15 -6 -30 -6 -43
c0 -101 34 -133 105 -133c74 0 135 41 160 176l11 59c5 26 7 48 7 67zM907 307c0 -21 -2 -45 -7 -72l-11 -58c-27 -141 -89 -190 -180 -190c-74 0 -120 38 -120 128c0 20 2 42 7 68l11 58c26 140 86 190 181 190c77 0 119 -36 119 -124zM890 305c0 83 -40 110 -105 110
c-76 0 -136 -41 -161 -177l-11 -59c-3 -17 -7 -33 -6 -48c0 -97 36 -128 105 -128c74 0 135 41 160 176l11 59c5 26 7 48 7 67zM839 743l-605 -743h-20l605 743h20z" />
    <glyph glyph-name="ampersand" unicode="&#x26;" horiz-adv-x="706" 
d="M735 422l-3 -15h-76c-16 -94 -43 -227 -122 -317l70 -86v-4h-15l-66 79c-52 -54 -129 -91 -238 -91c-125 0 -198 43 -198 158c0 123 77 185 188 236l-4 5c-54 65 -87 107 -87 187c0 127 95 180 232 180c82 0 156 -6 196 -12l-2 -15c-42 5 -113 12 -194 12
c-117 0 -216 -39 -216 -165c0 -77 32 -117 83 -179l242 -295c77 87 101 217 117 307h-79l3 15h169zM515 89l-231 282c-98 -43 -181 -102 -181 -225c0 -104 62 -144 183 -144c106 0 179 35 229 87z" />
    <glyph glyph-name="quoteright" unicode="&#x2019;" horiz-adv-x="121" 
d="M236 770l-104 -229h-17l101 229h20z" />
    <glyph glyph-name="parenleft" unicode="(" horiz-adv-x="280" 
d="M206 -207h-17c-49 70 -97 184 -97 336c0 223 93 454 265 614h19c-165 -157 -267 -380 -267 -616c0 -147 45 -256 97 -334z" />
    <glyph glyph-name="parenright" unicode=")" horiz-adv-x="280" 
d="M168 743h17c49 -70 97 -184 97 -334c0 -225 -93 -456 -265 -616h-19c165 157 267 380 267 616c0 147 -45 256 -97 334z" />
    <glyph glyph-name="asterisk" unicode="*" horiz-adv-x="480" 
d="M529 631l-119 -38c-15 -6 -35 -11 -50 -16c9 -12 23 -29 32 -41l74 -101l-15 -11l-73 101c-9 13 -22 29 -31 44c-9 -13 -19 -31 -29 -44l-74 -101l-14 10l73 101c9 13 21 30 30 42c-14 3 -34 10 -49 15l-118 39l5 16l118 -37c15 -6 36 -13 50 -18c0 14 -1 35 -1 50v128
h18v-128c0 -15 0 -35 -1 -50c15 5 34 12 49 18l119 38z" />
    <glyph glyph-name="plus" unicode="+" horiz-adv-x="683" 
d="M671 385h-240v-241h-17v241h-242v17h242v241h17v-241h240v-17z" />
    <glyph glyph-name="comma" unicode="," horiz-adv-x="174" 
d="M143 132l-99 -214h-17l98 214h18z" />
    <glyph glyph-name="hyphen" unicode="-" horiz-adv-x="392" 
d="M365 277h-240l3 17h240z" />
    <glyph glyph-name="period" unicode="." horiz-adv-x="136" 
d="M76 0h-16l23 132h16z" />
    <glyph glyph-name="slash" unicode="/" horiz-adv-x="392" 
d="M476 743l-420 -743h-17l420 743h17z" />
    <glyph glyph-name="zero" unicode="0" horiz-adv-x="606" 
d="M623 533c0 -36 -4 -80 -24 -193c-46 -263 -157 -352 -299 -352c-115 0 -188 58 -188 218c0 39 4 83 24 196c47 263 156 352 299 352c114 0 188 -58 188 -221zM606 533c0 155 -72 205 -173 205c-127 0 -234 -78 -280 -336c-20 -112 -24 -155 -24 -197
c0 -151 71 -202 174 -202c126 0 234 79 279 337c20 112 24 156 24 193z" />
    <glyph glyph-name="one" unicode="1" horiz-adv-x="375" 
d="M331 0h-279l2 15h131l126 713l-141 -51l3 18l141 51h17l-129 -731h131z" />
    <glyph glyph-name="two" unicode="2" horiz-adv-x="572" 
d="M502 16l-3 -16h-429l5 29c35 201 96 247 293 347c110 56 228 113 228 245c0 84 -67 117 -204 117c-54 0 -148 -10 -188 -18l3 17c35 6 117 17 187 17c150 0 219 -43 219 -133c0 -132 -112 -195 -238 -258c-194 -97 -249 -141 -283 -334l-3 -13h413z" />
    <glyph glyph-name="three" unicode="3" horiz-adv-x="557" 
d="M596 617c0 -16 -2 -32 -8 -64c-14 -78 -47 -145 -150 -164c75 -15 96 -65 96 -112c0 -23 -3 -42 -13 -95c-23 -120 -89 -194 -276 -194c-66 0 -153 6 -180 10l3 15c37 -4 117 -10 177 -10c184 0 239 73 261 184c10 50 12 67 12 90c0 50 -25 105 -137 105h-228l3 16h228
c143 0 174 83 188 159c6 32 7 46 7 60c0 80 -51 121 -201 121c-55 0 -147 -6 -184 -10l3 15c28 5 117 11 183 11c158 0 216 -50 216 -137z" />
    <glyph glyph-name="four" unicode="4" horiz-adv-x="609" 
d="M605 228h-131l-40 -228h-16l40 228h-377l3 16l460 502h21l-88 -502h131zM461 244l85 483l-442 -483h357z" />
    <glyph glyph-name="five" unicode="5" horiz-adv-x="572" 
d="M604 743l-3 -16h-342l-81 -301h137c145 0 234 -31 234 -147c0 -20 0 -38 -8 -79c-26 -136 -91 -210 -281 -210c-86 0 -165 10 -193 16l2 15c39 -6 108 -15 194 -15c184 0 240 72 262 198c7 40 8 57 8 75c0 106 -85 131 -221 131h-156l90 333h358z" />
    <glyph glyph-name="six" unicode="6" horiz-adv-x="615" 
d="M652 737l-2 -15c-32 5 -121 17 -194 17c-189 0 -257 -84 -288 -255l-13 -72c84 21 171 31 230 31c115 0 210 -34 210 -154c0 -205 -117 -301 -285 -301c-127 0 -202 63 -202 209c0 29 3 61 11 106l32 181c31 175 103 270 305 270c77 0 168 -11 196 -17zM153 397l-18 -101
c-8 -44 -11 -74 -11 -99c0 -140 70 -193 188 -193c139 0 225 61 256 198c8 35 10 61 10 87c0 113 -85 138 -193 138c-63 0 -149 -8 -232 -30z" />
    <glyph glyph-name="seven" unicode="7" horiz-adv-x="535" 
d="M622 727l-465 -727h-18l465 727h-418l3 16h436z" />
    <glyph glyph-name="eight" unicode="8" horiz-adv-x="624" 
d="M659 613c0 -106 -42 -202 -152 -224c67 -14 93 -59 93 -123c0 -17 -2 -36 -7 -66c-27 -151 -101 -212 -280 -212h-8c-150 0 -209 52 -209 156c0 131 50 224 156 245c-67 16 -90 65 -90 124c0 16 1 34 6 59c22 127 92 181 272 181h7c153 0 212 -47 212 -140zM584 268
c0 64 -29 113 -125 113h-160c-152 0 -187 -130 -187 -237c0 -101 60 -141 196 -141h8c161 0 235 54 261 202c5 29 7 47 7 63zM643 614c0 87 -59 124 -198 124h-7c-162 0 -234 -50 -255 -172c-4 -24 -6 -40 -6 -55c0 -61 28 -114 125 -114h160c148 0 181 128 181 217z" />
    <glyph glyph-name="nine" unicode="9" horiz-adv-x="615" 
d="M92 4l3 15c36 -6 133 -17 193 -17c189 0 257 84 288 255l13 72c-84 -21 -171 -31 -230 -31c-115 0 -210 34 -210 154c0 205 117 301 285 301c127 0 202 -63 202 -209c0 -29 -3 -61 -11 -106l-32 -181c-31 -175 -103 -270 -305 -270c-77 0 -171 11 -196 17zM591 344
l18 101c8 44 11 74 11 99c0 140 -70 193 -188 193c-139 0 -225 -61 -256 -198c-8 -35 -10 -61 -10 -87c0 -113 85 -138 193 -138c63 0 149 8 232 30z" />
    <glyph glyph-name="colon" unicode=":" horiz-adv-x="135" 
d="M81 0h-17l23 132h17zM152 407h-17l24 132h17z" />
    <glyph glyph-name="semicolon" unicode=";" horiz-adv-x="172" 
d="M134 132l-99 -214h-18l98 214h19zM182 406h-16l24 133h16z" />
    <glyph glyph-name="less" unicode="&#x3c;" horiz-adv-x="683" 
d="M573 138h-26l-278 253l278 251h26l-277 -251z" />
    <glyph glyph-name="equal" unicode="=" horiz-adv-x="683" 
d="M645 285v-16h-447v16h447zM645 502h-447v16h447v-16z" />
    <glyph glyph-name="greater" unicode="&#x3e;" horiz-adv-x="683" 
d="M572 391l-278 -253h-24l277 253l-277 251h24z" />
    <glyph glyph-name="question" unicode="?" horiz-adv-x="414" 
d="M149 0h-17l19 111h17zM162 748l3 15c49 9 105 13 142 13c106 0 167 -36 167 -128c0 -97 -54 -161 -137 -227c-118 -94 -136 -124 -149 -199l-6 -31h-17l6 31c14 83 39 116 156 210c78 63 131 120 131 216c0 84 -55 112 -153 112c-38 0 -92 -3 -143 -12z" />
    <glyph glyph-name="at" unicode="@" horiz-adv-x="800" 
d="M818 423c0 -209 -121 -357 -368 -357c-117 0 -169 37 -169 133c0 37 6 65 14 100c32 133 104 174 209 174c25 0 65 -3 111 -13l-73 -372c170 30 260 157 260 334c0 122 -79 210 -270 210c-225 0 -347 -117 -391 -319c-10 -47 -18 -95 -18 -148c0 -187 119 -258 289 -258
c50 0 103 5 146 12l-1 -15c-45 -8 -99 -13 -150 -13c-179 0 -301 81 -301 274c0 49 7 100 19 153c46 198 163 330 409 330c203 0 284 -96 284 -225zM595 448c-24 5 -66 10 -93 10c-94 0 -161 -35 -191 -162c-7 -29 -14 -65 -14 -97c0 -85 46 -118 155 -118c36 0 52 2 72 4z
" />
    <glyph glyph-name="A" unicode="A" horiz-adv-x="602" 
d="M582 0h-18l-53 302h-313l-159 -302h-19l400 744h24zM508 318l-58 312c-6 34 -13 67 -19 101h-2c-17 -34 -35 -67 -53 -101l-169 -312h301z" />
    <glyph glyph-name="B" unicode="B" horiz-adv-x="595" 
d="M639 612c0 -72 -20 -196 -189 -221c97 -16 130 -69 130 -136c0 -21 -2 -38 -8 -72c-24 -135 -114 -195 -306 -195c-99 0 -137 7 -181 12l131 743c19 2 90 9 181 9c170 0 242 -41 242 -140zM564 255c0 67 -36 128 -189 128h-207l-65 -369c40 -5 88 -11 166 -11
c179 0 264 56 287 186c6 35 8 50 8 66zM623 612c0 92 -70 125 -229 125c-65 0 -118 -4 -165 -8l-58 -330h207c189 0 225 92 239 162c5 24 6 38 6 51z" />
    <glyph glyph-name="C" unicode="C" horiz-adv-x="561" 
d="M636 741l-3 -16c-12 2 -79 13 -170 13c-181 0 -279 -106 -325 -360l-2 -11c-10 -54 -15 -101 -15 -141c0 -155 70 -222 215 -222c83 0 143 9 173 13l-3 -16c-16 -3 -90 -13 -176 -13c-151 0 -225 76 -225 238c0 42 6 91 16 145l2 11c48 262 150 372 342 372
c90 0 160 -10 171 -13z" />
    <glyph glyph-name="D" unicode="D" horiz-adv-x="629" 
d="M654 511c0 -39 -4 -83 -13 -132l-4 -22c-47 -268 -165 -369 -370 -369c-82 0 -134 7 -182 12l131 744c70 5 94 9 186 9c167 0 252 -70 252 -242zM638 510c0 167 -85 227 -239 227c-78 0 -124 -4 -170 -8l-126 -715c41 -4 98 -10 167 -10c186 0 304 91 351 356l4 22
c9 48 13 91 13 128z" />
    <glyph glyph-name="E" unicode="E" horiz-adv-x="544" 
d="M620 743l-3 -16h-388l-58 -327h359l-3 -16h-359l-65 -369h388l-2 -15h-404l131 743h404z" />
    <glyph glyph-name="F" unicode="F" horiz-adv-x="534" 
d="M620 743l-3 -16h-388l-58 -327h359l-3 -16h-359l-67 -384h-16l131 743h404z" />
    <glyph glyph-name="G" unicode="G" horiz-adv-x="589" 
d="M654 742l-2 -16c-41 5 -108 12 -179 12c-174 0 -292 -94 -336 -360l-7 -42c-6 -38 -7 -68 -7 -96c0 -169 84 -236 229 -236c65 0 119 4 158 9l64 365h16l-66 -378c-56 -8 -108 -12 -175 -12c-155 0 -243 76 -243 251c0 29 2 61 9 101l7 43c45 277 170 371 353 371
c74 0 138 -6 179 -12z" />
    <glyph glyph-name="H" unicode="H" horiz-adv-x="671" 
d="M717 743l-131 -743h-16l69 393h-469l-69 -393h-16l131 743h16l-59 -334h469l59 334h16z" />
    <glyph glyph-name="I" unicode="I" 
d="M238 743l-131 -743h-17l131 743h17z" />
    <glyph glyph-name="J" unicode="J" 
d="M238 743l-140 -792c-15 -85 -36 -151 -138 -151c-18 0 -40 2 -58 4l2 14c23 -1 40 -2 59 -2c88 0 104 54 118 135l140 792h17z" />
    <glyph glyph-name="K" unicode="K" horiz-adv-x="535" 
d="M649 743l-457 -365l324 -378h-21l-323 376l-66 -376h-16l131 743h16l-64 -361l450 361h26z" />
    <glyph glyph-name="L" unicode="L" horiz-adv-x="508" 
d="M485 15l-2 -15h-398l131 743h16l-129 -728h382z" />
    <glyph glyph-name="M" unicode="M" horiz-adv-x="748" 
d="M794 743l-131 -743h-16l114 652c4 23 9 47 13 70h-1c-18 -23 -37 -45 -55 -68l-277 -342h-24l-157 342c-11 23 -21 45 -31 68h-1c-4 -23 -9 -47 -13 -70l-114 -652h-16l131 743h22l160 -353c10 -22 21 -44 31 -66h2c18 22 35 44 53 66l286 353h24z" />
    <glyph glyph-name="N" unicode="N" horiz-adv-x="664" 
d="M710 743l-132 -746h-22l-300 667c-9 20 -17 39 -26 59h-1c-4 -24 -9 -49 -13 -73l-114 -650h-17l131 743h22l303 -676c8 -17 15 -34 23 -51h1c4 21 7 41 11 62l118 665h16z" />
    <glyph glyph-name="O" unicode="O" horiz-adv-x="648" 
d="M672 516c-1 -40 -4 -86 -14 -139l-4 -21c-49 -281 -171 -368 -332 -368c-130 0 -216 63 -216 238c0 39 4 87 14 140l4 21c50 283 169 367 332 367c132 0 216 -64 216 -238zM656 515c0 173 -85 223 -202 223c-148 0 -266 -75 -315 -356l-4 -21c-10 -51 -13 -96 -13 -134
c0 -172 84 -223 202 -223c145 0 266 76 315 357l4 21c10 51 12 95 13 133z" />
    <glyph glyph-name="P" unicode="P" horiz-adv-x="560" 
d="M611 604c0 -18 -2 -36 -8 -70c-22 -127 -110 -207 -296 -207c-55 0 -94 1 -152 4l-58 -331h-17l131 745c59 5 107 9 176 9c168 0 224 -50 224 -150zM595 604c0 94 -57 134 -210 134c-69 0 -126 -5 -160 -8l-67 -384c59 -3 98 -4 152 -4c170 0 254 66 278 196
c6 32 7 50 7 66z" />
    <glyph glyph-name="Q" unicode="Q" horiz-adv-x="648" 
d="M672 516c-1 -40 -4 -86 -14 -139l-4 -21c-53 -276 -167 -365 -324 -368l-11 -64c-3 -19 -5 -35 -5 -52c0 -36 16 -56 76 -56h84l-2 -13c-21 -1 -64 -3 -85 -3c-72 0 -90 28 -90 72c0 16 2 33 5 52l11 64c-125 3 -207 67 -207 238c0 39 4 87 14 140l4 21
c50 283 169 367 332 367c132 0 216 -64 216 -238zM656 515c0 173 -85 223 -202 223c-148 0 -266 -75 -315 -356l-4 -21c-10 -51 -13 -96 -13 -134c0 -172 84 -223 202 -223c145 0 262 77 315 357l4 21c10 51 12 95 13 133z" />
    <glyph glyph-name="R" unicode="R" horiz-adv-x="591" 
d="M611 604c0 -138 -64 -244 -215 -270l150 -334h-17l-148 332c-23 -3 -48 -5 -74 -5c-55 0 -94 1 -152 4l-58 -331h-17l131 745c59 5 107 9 176 9c168 0 224 -50 224 -150zM595 604c0 94 -57 134 -210 134c-69 0 -126 -5 -160 -8l-67 -384c59 -3 98 -4 152 -4
c170 0 254 66 278 196c6 32 7 50 7 66z" />
    <glyph glyph-name="S" unicode="S" horiz-adv-x="546" 
d="M599 741l-2 -15c-37 5 -119 13 -190 13c-101 0 -233 -27 -233 -163c0 -74 59 -111 141 -159l43 -25c113 -66 167 -101 167 -194c0 -149 -102 -210 -265 -210c-81 0 -148 6 -190 13l2 15c30 -4 110 -12 191 -12c138 0 244 45 244 194c0 87 -53 118 -159 180l-44 26
c-82 48 -146 91 -146 170c0 145 129 180 251 180c72 0 140 -6 190 -13z" />
    <glyph glyph-name="T" unicode="T" horiz-adv-x="604" 
d="M705 743l-3 -16h-264l-128 -727h-17l128 727h-263l3 16h544z" />
    <glyph glyph-name="U" unicode="U" horiz-adv-x="650" 
d="M701 743l-73 -409c-41 -229 -115 -343 -305 -343c-145 0 -199 73 -199 209c0 42 6 90 16 144l71 399h16l-72 -404c-10 -54 -15 -101 -15 -141c0 -129 53 -191 186 -191c182 0 247 115 286 332l72 404h17z" />
    <glyph glyph-name="V" unicode="V" horiz-adv-x="624" 
d="M725 743l-401 -743h-24l-139 743h17l125 -674c3 -18 6 -37 10 -55h1c9 19 19 37 30 56l362 673h19z" />
    <glyph glyph-name="W" unicode="W" horiz-adv-x="852" 
d="M938 743l-302 -743h-26l-68 556c-3 19 -5 37 -8 56h-2c-9 -19 -17 -37 -26 -56l-264 -556h-26l-40 743h17l35 -671c1 -18 2 -40 3 -58h1c8 18 19 40 27 58l262 555h30l66 -556c3 -19 4 -38 7 -57h1c7 19 16 38 23 57l272 672h18z" />
    <glyph glyph-name="X" unicode="X" horiz-adv-x="617" 
d="M708 743l-323 -368l196 -375h-19l-190 362l-317 -362h-22l331 378l-192 365h20l185 -353l310 353h21z" />
    <glyph glyph-name="Y" unicode="Y" horiz-adv-x="548" 
d="M639 743l-302 -432l-54 -311h-17l54 311l-149 432h19l125 -365c5 -16 11 -31 16 -47h1c11 15 21 31 32 46l255 366h20z" />
    <glyph glyph-name="Z" unicode="Z" horiz-adv-x="563" 
d="M647 743l-3 -16l-590 -712h481l-2 -15h-503l2 15l591 712h-445l3 16h466z" />
    <glyph glyph-name="bracketleft" unicode="[" horiz-adv-x="336" 
d="M256 -208h-190l168 951h190l-3 -16h-173l-162 -919h173z" />
    <glyph glyph-name="backslash" unicode="\" horiz-adv-x="404" 
d="M359 0h-19l-173 743h18z" />
    <glyph glyph-name="bracketright" unicode="]" horiz-adv-x="336" 
d="M196 -208h-190l3 16h173l162 919h-173l3 16h190z" />
    <glyph glyph-name="asciicircum" unicode="^" horiz-adv-x="683" 
d="M660 388h-22l-216 257l-216 -257h-22l226 268h24z" />
    <glyph glyph-name="underscore" unicode="_" horiz-adv-x="577" 
d="M555 -84h-584l3 16h584z" />
    <glyph glyph-name="quoteleft" unicode="&#x2018;" horiz-adv-x="121" 
d="M236 770l-102 -229h-19l103 229h18z" />
    <glyph glyph-name="a" unicode="a" horiz-adv-x="520" 
d="M435 0h-16l6 38c-42 -20 -110 -50 -184 -50c-107 0 -151 68 -151 176c0 30 3 62 10 97l3 16c36 194 109 266 263 266c38 0 88 -1 162 -10zM428 54l82 466c-66 6 -115 7 -147 7c-140 0 -209 -66 -244 -253l-3 -16c-6 -34 -9 -65 -9 -93c0 -109 42 -162 138 -162
c70 0 138 30 183 51z" />
    <glyph glyph-name="b" unicode="b" horiz-adv-x="521" 
d="M524 378c0 -30 -4 -65 -11 -106l-4 -22c-37 -202 -109 -262 -269 -262c-27 0 -77 0 -156 8l136 774h16l-45 -254c60 19 121 27 156 27c119 0 177 -44 177 -165zM508 380c0 114 -55 147 -164 147c-35 0 -98 -8 -155 -27l-87 -490c67 -6 114 -7 141 -7
c150 0 214 55 250 252l4 22c7 40 11 74 11 103z" />
    <glyph glyph-name="c" unicode="c" horiz-adv-x="443" 
d="M491 531l-3 -16c-64 11 -108 12 -130 12c-131 0 -203 -51 -239 -255l-2 -13c-7 -42 -12 -76 -12 -105c0 -122 51 -151 161 -151c28 0 65 3 134 12l-2 -14c-71 -11 -106 -13 -135 -13c-115 0 -174 35 -174 159c0 32 5 70 12 116l2 13c37 212 116 267 258 267
c32 0 66 -2 130 -12z" />
    <glyph glyph-name="d" unicode="d" horiz-adv-x="521" 
d="M572 770l-136 -770h-16l6 38c-41 -20 -109 -50 -183 -50c-105 0 -153 48 -153 161c0 33 4 71 12 115l2 12c35 196 112 267 271 267c25 0 66 0 139 -8l41 235h17zM511 520c-65 6 -114 7 -139 7c-146 0 -218 -64 -252 -255l-2 -12c-8 -44 -12 -81 -12 -112
c0 -106 46 -144 140 -144c71 0 139 30 183 51z" />
    <glyph glyph-name="e" unicode="e" horiz-adv-x="519" 
d="M528 369c0 -23 -3 -56 -11 -106h-399l-3 -15c-6 -32 -8 -59 -8 -84c0 -120 62 -160 179 -160c56 0 130 8 176 14l-3 -14c-42 -7 -114 -16 -176 -16c-131 0 -191 54 -191 174c0 27 2 58 9 93l6 32c30 163 95 256 251 256c120 0 170 -64 170 -174zM512 369
c0 105 -47 158 -156 158c-147 0 -207 -89 -234 -241l-1 -7h382c6 38 9 67 9 90z" />
    <glyph glyph-name="f" unicode="f" horiz-adv-x="360" 
d="M473 770l-2 -15c-20 2 -59 5 -80 5c-89 0 -116 -30 -135 -140l-16 -91h188l-3 -16h-188l-106 -604c-14 -79 -34 -121 -110 -121c-15 0 -32 0 -60 4l2 14c32 -3 46 -3 59 -3c60 0 79 29 93 106l106 604h-114l3 16h114l16 91c20 113 50 156 153 156c21 0 61 -3 80 -6z" />
    <glyph glyph-name="g" unicode="g" horiz-adv-x="523" 
d="M531 529l-93 -528c-28 -161 -80 -213 -237 -213c-56 0 -98 3 -166 10l3 15c52 -5 112 -10 162 -10c145 0 194 42 222 198l4 25c-37 -14 -103 -38 -177 -38c-110 0 -161 50 -161 155c0 27 4 57 10 91l13 71c33 179 109 237 264 237c30 0 83 -3 156 -13zM512 515
c-60 8 -110 11 -135 11c-148 0 -218 -51 -250 -225l-13 -71c-6 -33 -9 -62 -9 -87c0 -99 48 -140 145 -140c74 0 135 23 179 39z" />
    <glyph glyph-name="h" unicode="h" horiz-adv-x="549" 
d="M535 412c0 -25 -4 -53 -9 -84l-58 -328h-16l58 331c5 29 9 56 9 81c0 70 -27 116 -124 116c-72 0 -150 -31 -211 -61l-83 -467h-17l136 770h17l-50 -286c58 27 130 60 209 60c102 0 139 -48 139 -132z" />
    <glyph glyph-name="i" unicode="i" 
d="M200 529l-93 -529h-17l93 529h17zM242 770l-22 -127h-17l22 127h17z" />
    <glyph glyph-name="j" unicode="j" 
d="M200 529l-109 -617c-14 -79 -36 -124 -110 -124c-13 0 -33 0 -61 4l2 14c32 -3 49 -3 59 -3c61 0 79 32 93 109l109 617h17zM242 770l-22 -129h-17l22 129h17z" />
    <glyph glyph-name="k" unicode="k" horiz-adv-x="416" 
d="M502 529l-327 -251l231 -278h-23l-231 278l-49 -278h-18l136 770h17l-86 -488l322 247h28z" />
    <glyph glyph-name="l" unicode="l" horiz-adv-x="187" 
d="M237 770l-135 -770h-17l135 770h17z" />
    <glyph glyph-name="m" unicode="m" horiz-adv-x="794" 
d="M784 431c0 -23 -3 -48 -8 -75l-63 -356h-16l63 359c4 26 7 50 7 71c0 61 -22 97 -99 97c-50 0 -119 -21 -191 -63c1 -10 2 -19 2 -28c-1 -27 -4 -54 -9 -81l-62 -355h-17l63 359c5 30 8 55 8 77c0 59 -23 91 -100 91c-46 0 -106 -19 -178 -58l-83 -469h-17l94 529h17
l-8 -44c71 40 129 58 178 58c67 0 98 -26 109 -65c72 44 146 65 197 65c87 0 113 -46 113 -112z" />
    <glyph glyph-name="n" unicode="n" horiz-adv-x="549" 
d="M535 412c0 -24 -4 -53 -9 -84l-58 -328h-16l58 331c5 30 8 57 8 79c0 87 -37 117 -127 117c-68 0 -143 -28 -207 -60l-82 -467h-17l93 529h17l-8 -45c59 29 132 59 207 59c100 0 141 -41 141 -131z" />
    <glyph glyph-name="o" unicode="o" horiz-adv-x="534" 
d="M532 370c0 -30 -3 -64 -10 -102l-2 -12c-33 -184 -105 -268 -257 -268c-121 0 -171 58 -171 174c0 30 4 64 10 102l2 12c33 183 105 267 257 267c120 0 171 -58 171 -173zM516 371c0 109 -49 156 -158 156c-137 0 -206 -75 -238 -255l-2 -12c-7 -38 -10 -71 -10 -100
c0 -110 49 -157 158 -157c137 0 206 76 238 257l2 12c7 37 10 70 10 99z" />
    <glyph glyph-name="p" unicode="p" horiz-adv-x="525" 
d="M528 394c0 -35 -5 -76 -16 -137c-34 -189 -114 -269 -273 -269c-44 0 -66 1 -139 8l-36 -204h-16l130 737h16l-8 -42c44 21 123 56 197 56c103 0 145 -46 145 -149zM511 395c0 95 -37 132 -132 132c-70 0 -153 -35 -195 -56l-81 -459c65 -7 92 -8 139 -8
c145 0 222 72 254 256c11 61 15 101 15 135z" />
    <glyph glyph-name="q" unicode="q" horiz-adv-x="521" 
d="M530 535l-131 -743h-17l39 221c-46 -16 -114 -25 -155 -25c-119 0 -176 47 -176 169c0 31 4 66 11 107l2 11c37 206 110 267 273 267c25 0 78 0 154 -7zM510 521c-61 5 -112 5 -137 5c-149 0 -219 -54 -255 -255l-2 -11c-7 -40 -11 -74 -11 -103c0 -116 53 -153 164 -153
c40 0 103 8 155 26z" />
    <glyph glyph-name="r" unicode="r" horiz-adv-x="332" 
d="M417 543l-3 -16c-36 0 -127 -2 -231 -57l-82 -470h-16l93 529h16l-8 -43c99 55 195 57 231 57z" />
    <glyph glyph-name="s" unicode="s" horiz-adv-x="451" 
d="M472 527l-3 -16c-35 8 -95 16 -142 16c-84 0 -187 -19 -187 -126c0 -55 42 -81 122 -112l34 -13c87 -33 130 -68 130 -132c0 -104 -89 -156 -206 -156c-67 0 -122 7 -162 18l3 15c38 -9 92 -18 160 -18c99 0 188 39 188 141c0 55 -35 85 -122 118l-34 13
c-82 31 -129 63 -129 126c0 112 103 141 206 141c52 0 107 -7 142 -15z" />
    <glyph glyph-name="t" unicode="t" horiz-adv-x="351" 
d="M422 529l-3 -16h-173l-68 -387c-6 -32 -7 -51 -7 -65c0 -44 19 -58 73 -58c14 0 47 1 86 6l-2 -14c-29 -5 -64 -7 -84 -7c-67 0 -89 22 -89 73c0 16 2 36 8 70l67 382h-130l3 16h130l26 151h16l-26 -151h173z" />
    <glyph glyph-name="u" unicode="u" horiz-adv-x="548" 
d="M556 529l-94 -529h-16l8 46c-56 -28 -125 -58 -208 -58c-99 0 -139 42 -139 131c0 25 3 54 9 87l57 323h16l-58 -329c-5 -27 -8 -51 -8 -72c0 -93 36 -125 126 -125c76 0 148 30 208 61l82 465h17z" />
    <glyph glyph-name="v" unicode="v" horiz-adv-x="455" 
d="M528 529l-288 -529h-25l-102 529h17l81 -426c7 -35 11 -61 17 -91h2c16 30 30 55 49 91l229 426h20z" />
    <glyph glyph-name="w" unicode="w" horiz-adv-x="767" 
d="M828 529l-230 -529h-21l-93 415c-5 22 -10 43 -15 65h-2c-13 -22 -24 -43 -37 -65l-239 -415h-22l-46 529h17l35 -426c2 -28 5 -57 7 -85h3c16 28 33 57 49 85l224 393h24l87 -393c6 -28 13 -57 19 -85h3c12 28 23 56 35 84l184 427h18z" />
    <glyph glyph-name="x" unicode="x" horiz-adv-x="466" 
d="M529 529l-236 -258l151 -271h-20l-144 258l-238 -258h-22l252 273l-142 256h19l136 -244l221 244h23z" />
    <glyph glyph-name="y" unicode="y" horiz-adv-x="461" 
d="M528 529l-302 -560c-79 -146 -109 -181 -210 -181c-18 0 -44 1 -70 3l2 16c32 -2 53 -3 71 -3c88 0 115 28 190 168l16 30l-112 527h18l90 -425c7 -35 10 -51 16 -76h4c13 25 21 40 40 75l229 426h18z" />
    <glyph glyph-name="z" unicode="z" horiz-adv-x="462" 
d="M504 529l-3 -15l-432 -499h345l-2 -15h-367l2 15l431 498h-331l3 16h354z" />
    <glyph glyph-name="braceleft" unicode="{" horiz-adv-x="379" 
d="M467 743l-3 -16h-36c-113 0 -132 -44 -144 -115l-31 -176c-14 -77 -39 -122 -113 -168c43 -34 60 -68 60 -112c0 -18 -3 -38 -6 -56l-31 -177c-3 -17 -5 -32 -5 -45c0 -44 22 -70 108 -70h36l-3 -16h-36c-95 0 -121 34 -121 86c0 15 2 30 5 47l31 177c4 21 6 38 6 54
c0 42 -16 70 -58 104l4 20c74 47 93 81 107 158l31 176c14 78 41 129 163 129h36z" />
    <glyph glyph-name="bar" unicode="|" horiz-adv-x="214" 
d="M195 -208h-17v951h17v-951z" />
    <glyph glyph-name="braceright" unicode="}" horiz-adv-x="379" 
d="M331 657c0 -15 -2 -30 -5 -47l-31 -177c-4 -21 -6 -38 -6 -54c0 -42 16 -70 58 -104l-4 -20c-74 -47 -94 -81 -107 -158l-31 -176c-14 -78 -41 -129 -163 -129h-36l3 16h36c112 0 131 44 144 115l31 176c13 77 39 122 113 168c-43 34 -60 68 -60 112c0 18 2 36 6 56
l31 177c3 17 5 32 5 45c0 44 -22 70 -108 70h-36l3 16h36c95 0 121 -34 121 -86z" />
    <glyph glyph-name="asciitilde" unicode="~" horiz-adv-x="683" 
d="M627 485c0 -89 -11 -142 -80 -142c-43 0 -81 34 -110 66l-47 51c-35 37 -58 56 -91 56c-60 0 -66 -48 -66 -127v-36h-17v36c0 89 13 143 83 143c39 0 66 -22 104 -62l46 -49c33 -36 64 -62 98 -62c58 0 63 48 63 126v36h17v-36z" />
    <glyph glyph-name="exclamdown" unicode="&#xa1;" horiz-adv-x="191" 
d="M67 -208h-17l97 550h17zM197 529l-20 -112h-17l20 112h17z" />
    <glyph glyph-name="cent" unicode="&#xa2;" horiz-adv-x="441" 
d="M491 531l-3 -16c-58 8 -97 12 -130 12c-131 0 -205 -66 -233 -225l-13 -73c-6 -31 -8 -59 -8 -83c0 -104 53 -143 162 -143c28 0 65 3 134 12l-2 -14c-67 -10 -100 -12 -129 -13l-20 -113h-16l20 113c-113 3 -166 50 -166 158c0 25 3 55 9 87l13 73
c29 161 104 233 242 237l21 119h16l-21 -119c28 -1 61 -2 124 -12z" />
    <glyph glyph-name="sterling" unicode="&#xa3;" horiz-adv-x="609" 
d="M670 736l-2 -15c-46 4 -105 9 -162 9c-161 0 -210 -52 -239 -218l-20 -114h283l-3 -16h-283l-34 -193c-14 -79 -37 -123 -90 -173h423l-2 -16h-444l2 16c62 55 81 95 95 173l34 193h-91l3 16h91l20 114c30 169 81 234 258 234c57 0 110 -4 161 -10z" />
    <glyph glyph-name="fraction" unicode="&#x2044;" horiz-adv-x="363" 
d="M565 743l-604 -743h-20l604 743h20z" />
    <glyph glyph-name="yen" unicode="&#xa5;" horiz-adv-x="652" 
d="M608 298h-226l-52 -298h-17l52 298h-227l3 17h225l-52 148h-147l3 17h138l-90 263h18l117 -341c8 -24 17 -47 25 -71h1c16 23 32 47 48 70l238 342h21l-184 -263h138l-3 -17h-147l-103 -148h224z" />
    <glyph glyph-name="florin" unicode="&#x192;" horiz-adv-x="609" 
d="M625 749l-5 -14c-19 2 -55 5 -76 5c-89 0 -121 -30 -144 -140l-42 -198h188l-2 -16h-188l-84 -393c-25 -117 -59 -155 -162 -155c-20 0 -59 3 -77 6l3 14c21 -2 57 -5 77 -5c89 0 120 30 143 140l83 393h-155l2 16h155l43 198c25 115 59 155 163 155c20 0 58 -3 78 -6z
" />
    <glyph glyph-name="section" unicode="&#xa7;" horiz-adv-x="591" 
d="M55 -219l3 15c58 -7 118 -12 177 -12c152 0 256 69 256 210c0 80 -51 109 -166 173l-45 25c-82 46 -139 80 -139 164c0 52 23 98 62 134c-18 26 -25 52 -25 86c0 135 121 178 239 178c104 0 167 -7 204 -13l-3 -16c-41 5 -99 13 -204 13c-103 0 -219 -33 -219 -163
c0 -78 47 -113 142 -166l45 -25c106 -59 165 -92 165 -181c0 -51 -19 -99 -54 -138c12 -23 15 -45 15 -71c0 -141 -98 -226 -277 -226c-61 0 -127 7 -176 13zM486 78c28 35 44 74 44 125c0 81 -60 113 -157 167l-47 26c-59 32 -97 61 -114 83c-32 -29 -55 -71 -55 -123
c0 -77 60 -110 135 -151l42 -23c75 -41 126 -72 152 -104z" />
    <glyph glyph-name="currency" unicode="&#xa4;" horiz-adv-x="618" 
d="M614 165l-11 -11l-76 76c-39 -36 -88 -54 -138 -54c-49 0 -99 18 -138 54l-77 -76l-11 11l76 77c-35 38 -53 87 -53 137c0 53 18 99 54 137l-77 77l12 12l76 -77c39 36 88 53 137 53s99 -17 138 -53l76 77l12 -12l-77 -76c31 -34 54 -82 54 -138c0 -50 -17 -100 -53 -138
zM575 379c0 95 -74 186 -186 186c-101 0 -186 -78 -186 -186c0 -99 81 -187 186 -187c101 0 183 81 186 187z" />
    <glyph glyph-name="quotesingle" unicode="'" horiz-adv-x="90" 
d="M203 759l-75 -240h-17l74 240h18z" />
    <glyph glyph-name="quotedblleft" unicode="&#x201c;" horiz-adv-x="305" 
d="M420 770l-101 -229h-20l104 229h17zM219 770h17l-101 -229h-20z" />
    <glyph glyph-name="guillemotleft" unicode="&#xab;" horiz-adv-x="487" 
d="M517 484l-189 -206l116 -207h-19l-117 209l188 204h21zM296 484h21l-189 -206l116 -207h-19l-117 209z" />
    <glyph glyph-name="guilsinglleft" unicode="&#x2039;" horiz-adv-x="287" 
d="M318 484l-189 -206l116 -207h-19l-117 209l188 204h21z" />
    <glyph glyph-name="guilsinglright" unicode="&#x203a;" horiz-adv-x="287" 
d="M281 275l-188 -204h-21l189 206l-116 207h19z" />
    <glyph glyph-name="endash" unicode="&#x2013;" horiz-adv-x="487" 
d="M469 277h-356l3 17h356z" />
    <glyph glyph-name="dagger" unicode="&#x2020;" horiz-adv-x="463" 
d="M484 523h-154l-110 -623h-17l110 623h-141l3 17h141l40 230h17l-40 -230h154z" />
    <glyph glyph-name="daggerdbl" unicode="&#x2021;" horiz-adv-x="463" 
d="M450 295h-160l-70 -395h-17l70 395h-147l3 17h147l36 207h-147l3 17h147l41 234h17l-41 -234h160l-3 -17h-160l-36 -207h160z" />
    <glyph glyph-name="periodcentered" unicode="&#xb7;" horiz-adv-x="136" 
d="M130 301h-17l24 136h17z" />
    <glyph glyph-name="paragraph" unicode="&#xb6;" horiz-adv-x="664" 
d="M418 -208h-16l85 483h-79c-161 0 -277 37 -277 177c0 17 1 36 6 66c32 192 171 228 354 228h221l-168 -954h-16l165 938h-110zM490 291l77 439h-79c-172 0 -306 -35 -335 -215c-4 -28 -5 -45 -5 -63c0 -129 110 -161 263 -161h79z" />
    <glyph glyph-name="bullet" unicode="&#x2022;" horiz-adv-x="506" 
d="M507 369c0 -99 -80 -179 -179 -179s-179 80 -179 179c0 100 80 180 179 180s179 -80 179 -180zM491 369c0 90 -74 165 -163 165s-163 -75 -163 -165c0 -89 74 -163 163 -163s163 74 163 163z" />
    <glyph glyph-name="quotesinglbase" unicode="&#x201a;" horiz-adv-x="121" 
d="M124 134l-103 -228h-18l101 228h20z" />
    <glyph glyph-name="quotedblbase" unicode="&#x201e;" horiz-adv-x="305" 
d="M308 134l-103 -228h-18l101 228h20zM104 134h20l-103 -228h-18z" />
    <glyph glyph-name="quotedblright" unicode="&#x201d;" horiz-adv-x="305" 
d="M420 770l-104 -229h-17l101 229h20zM216 770h20l-104 -229h-17z" />
    <glyph glyph-name="guillemotright" unicode="&#xbb;" horiz-adv-x="487" 
d="M481 275l-188 -204h-21l189 206l-116 207h19zM164 484l117 -209l-188 -204h-21l189 206l-116 207h19z" />
    <glyph glyph-name="ellipsis" unicode="&#x2026;" horiz-adv-x="660" 
d="M78 0h-16l23 132h16zM338 0h-16l23 132h16zM598 0h-16l23 132h16z" />
    <glyph glyph-name="perthousand" unicode="&#x2030;" horiz-adv-x="1277" 
d="M839 743l-605 -743h-20l605 743h20zM907 307c0 -21 -2 -45 -7 -72l-11 -58c-27 -141 -87 -190 -180 -190c-74 0 -120 38 -120 128c0 20 2 42 7 68l11 58c26 140 89 190 181 190c77 0 119 -36 119 -124zM890 305c0 83 -40 110 -105 110c-76 0 -136 -41 -161 -177l-11 -59
c-5 -24 -6 -45 -6 -63c0 -85 43 -113 105 -113c74 0 135 41 160 176l11 59c5 26 7 48 7 67zM459 630c0 -21 -2 -45 -7 -72l-11 -58c-27 -141 -87 -190 -180 -190c-74 0 -120 38 -120 128c0 20 2 42 7 68l11 58c26 140 89 190 181 190c77 0 119 -36 119 -124zM442 628
c0 83 -40 110 -105 110c-76 0 -136 -41 -161 -177l-11 -59c-5 -24 -6 -45 -6 -63c0 -85 43 -113 105 -113c74 0 135 41 160 176l11 59c5 26 7 48 7 67zM1277 307c0 -21 -2 -45 -7 -72l-11 -58c-27 -141 -87 -190 -180 -190c-74 0 -120 38 -120 128c0 20 2 42 7 68l11 58
c26 140 89 190 181 190c77 0 119 -36 119 -124zM1260 305c0 83 -40 110 -105 110c-76 0 -136 -41 -161 -177l-11 -59c-5 -24 -6 -45 -6 -63c0 -85 43 -113 105 -113c74 0 135 41 160 176l11 59c5 26 7 48 7 67z" />
    <glyph glyph-name="questiondown" unicode="&#xbf;" horiz-adv-x="414" 
d="M365 529h17l-19 -111h-17zM352 -219l-3 -15c-49 -9 -105 -13 -142 -13c-106 0 -167 36 -167 128c0 97 54 161 137 227c118 94 136 124 149 199l6 31h17l-6 -31c-14 -83 -39 -116 -156 -210c-78 -63 -131 -120 -131 -216c0 -84 55 -112 153 -112c38 0 92 3 143 12z" />
    <glyph glyph-name="grave" unicode="`" horiz-adv-x="380" 
d="M346 616h-20l-115 154h20z" />
    <glyph glyph-name="acute" unicode="&#xb4;" horiz-adv-x="415" 
d="M465 770l-169 -154h-20l168 154h21z" />
    <glyph glyph-name="circumflex" unicode="&#x2c6;" horiz-adv-x="446" 
d="M482 616h-20l-105 139l-155 -139h-22l171 154h14z" />
    <glyph glyph-name="tilde" unicode="&#x2dc;" horiz-adv-x="429" 
d="M513 740c-14 -77 -33 -123 -92 -123c-35 0 -55 15 -79 50l-33 49c-23 33 -38 45 -66 45c-54 0 -65 -50 -75 -108l-6 -34h-16l6 34c13 77 32 123 92 123c35 0 53 -15 77 -49l34 -49c24 -34 37 -46 67 -46c53 0 64 50 75 108l6 33h16z" />
    <glyph glyph-name="macron" unicode="&#xaf;" horiz-adv-x="439" 
d="M511 682h-343l3 16h343z" />
    <glyph glyph-name="breve" unicode="&#x2d8;" horiz-adv-x="421" 
d="M496 773c-24 -89 -62 -159 -176 -159c-95 0 -122 53 -122 122c0 15 1 26 2 37h15c-1 -12 -2 -25 -2 -37c0 -60 21 -107 109 -107c104 0 138 68 158 144h16z" />
    <glyph glyph-name="dotaccent" unicode="&#x2d9;" horiz-adv-x="378" 
d="M325 645h-16l22 122h16z" />
    <glyph glyph-name="dieresis" unicode="&#xa8;" horiz-adv-x="410" 
d="M462 760l-22 -121h-17l22 121h17zM214 760h17l-22 -121h-17z" />
    <glyph glyph-name="ring" unicode="&#x2da;" horiz-adv-x="421" 
d="M392 703c0 -71 -47 -106 -111 -106s-112 35 -112 106c0 70 48 105 112 105s111 -35 111 -105zM376 703c0 69 -47 90 -95 90c-49 0 -96 -21 -96 -90c0 -70 47 -91 96 -91c48 0 95 21 95 91z" />
    <glyph glyph-name="cedilla" unicode="&#xb8;" horiz-adv-x="390" 
d="M223 -68l-156 -140h-21l156 140h21z" />
    <glyph glyph-name="hungarumlaut" unicode="&#x2dd;" horiz-adv-x="432" 
d="M538 770l-169 -154h-20l168 154h21zM337 770h21l-169 -154h-20z" />
    <glyph glyph-name="ogonek" unicode="&#x2db;" horiz-adv-x="422" 
d="M280 -208c-15 -4 -49 -9 -82 -9c-72 0 -100 24 -100 71c0 83 115 127 187 148l35 -2c-87 -27 -206 -66 -206 -146c0 -42 28 -56 87 -56c33 0 66 5 81 8z" />
    <glyph glyph-name="caron" unicode="&#x2c7;" horiz-adv-x="446" 
d="M207 770h20l106 -139l154 139h22l-171 -154h-14z" />
    <glyph glyph-name="emdash" unicode="&#x2014;" horiz-adv-x="625" 
d="M608 277h-495l3 17h495z" />
    <glyph glyph-name="AE" unicode="&#xc6;" horiz-adv-x="902" 
d="M976 727h-389l-58 -327h359l-3 -16h-359l-65 -369h389l-3 -15h-405l54 302h-295l-161 -302h-20l399 743h559zM499 318l72 409h-141c-17 -34 -35 -65 -53 -98l-167 -311h289z" />
    <glyph glyph-name="ordfeminine" unicode="&#xaa;" horiz-adv-x="319" 
d="M375 695c0 -14 -2 -26 -7 -54l-35 -199h-15l5 24c-24 -11 -66 -32 -116 -32c-56 0 -81 25 -81 73c0 98 63 117 162 117h63l3 19c3 18 6 37 6 50c0 42 -21 50 -88 50c-12 0 -57 -2 -82 -5l2 14c27 3 66 5 82 5c74 0 101 -16 101 -62zM348 609h-63c-79 0 -144 -7 -144 -102
c0 -44 24 -59 69 -59s88 19 115 34z" />
    <glyph glyph-name="Lslash" unicode="&#x141;" horiz-adv-x="508" 
d="M483 0h-398l56 318l-96 -81l3 22l97 82l71 402h16l-69 -387l164 139l-3 -22l-165 -139l-56 -319h382z" />
    <glyph glyph-name="Oslash" unicode="&#xd8;" horiz-adv-x="648" 
d="M654 356c-49 -281 -171 -368 -332 -368c-75 0 -135 20 -172 71l-50 -59h-21l61 73c-22 37 -34 87 -34 153c0 39 4 87 14 140l4 21c50 283 169 367 332 367c84 0 148 -26 184 -90l67 79h21l-80 -94c15 -35 24 -78 24 -133c0 -40 -4 -87 -14 -139zM122 227
c0 -62 10 -108 29 -141l478 564c-34 66 -98 88 -175 88c-148 0 -266 -75 -315 -356l-4 -21c-10 -51 -13 -96 -13 -134zM639 361l4 21c9 51 13 95 13 133c0 49 -7 89 -20 120l-476 -564c36 -50 94 -67 164 -67c145 0 266 76 315 357z" />
    <glyph glyph-name="OE" unicode="&#x152;" horiz-adv-x="950" 
d="M897 15l-2 -15h-376c-66 -11 -136 -14 -189 -14c-135 0 -226 68 -226 239c0 34 4 72 11 114l12 69c44 254 177 346 338 346c46 0 112 -3 170 -11h391l-3 -16h-388l-58 -327h359l-3 -16h-359l-65 -369h388zM492 11l127 718c-56 8 -117 10 -156 10
c-145 0 -276 -81 -320 -334l-12 -69c-7 -41 -11 -78 -11 -111c0 -167 91 -224 213 -224c49 0 110 3 159 10z" />
    <glyph glyph-name="ordmasculine" unicode="&#xba;" horiz-adv-x="318" 
d="M394 649c0 -5 -1 -26 -4 -44l-5 -26c-16 -86 -60 -147 -150 -147c-73 0 -103 44 -103 106c0 14 2 30 5 46l5 26c17 86 60 147 150 147c65 0 102 -41 102 -108zM379 649c0 48 -22 94 -89 94c-77 0 -116 -53 -132 -135l-5 -26c-3 -15 -4 -30 -4 -43c0 -58 26 -93 88 -93
c76 0 117 54 133 136l5 25c3 17 4 37 4 42z" />
    <glyph glyph-name="ae" unicode="&#xe6;" horiz-adv-x="880" 
d="M889 368c0 -23 -2 -48 -12 -105h-405l-16 -89c-11 -63 -12 -72 -12 -84c0 -72 74 -86 194 -86c56 0 137 7 180 14l-3 -14c-42 -7 -114 -16 -177 -16c-114 0 -187 8 -209 77c-62 -47 -138 -77 -225 -77c-81 0 -128 41 -128 114c0 11 1 30 8 63c22 110 89 142 261 142h118
l10 58c4 25 7 47 7 65c0 74 -40 97 -154 97c-29 0 -88 -3 -144 -8l3 15c60 7 117 9 144 9c147 0 167 -45 167 -127c35 75 110 127 220 127c127 0 173 -75 173 -175zM872 368c0 98 -45 159 -159 159c-144 0 -211 -94 -229 -197l-9 -51h389c7 49 8 70 8 89zM460 292h-114
c-158 0 -224 -25 -245 -129c-7 -34 -8 -51 -8 -61c0 -67 42 -99 116 -99c78 0 157 36 214 77z" />
    <glyph glyph-name="dotlessi" unicode="&#x131;" 
d="M107 0h-17l93 529h17z" />
    <glyph glyph-name="lslash" unicode="&#x142;" horiz-adv-x="187" 
d="M219 770h18l-59 -338l103 86l-4 -23l-103 -86l-72 -409h-17l69 393l-106 -88l4 22l106 88z" />
    <glyph glyph-name="oslash" unicode="&#xf8;" horiz-adv-x="534" 
d="M520 256c-33 -184 -105 -268 -257 -268c-68 0 -114 18 -141 55l-63 -69h-21l76 82c-15 27 -22 62 -22 106c0 30 4 64 10 102l2 12c33 183 105 267 257 267c71 0 118 -21 144 -61l68 73h21l-81 -88c13 -26 19 -58 19 -97c0 -30 -3 -64 -10 -102zM108 160
c0 -38 5 -68 17 -91l369 400c-24 40 -69 58 -136 58c-137 0 -206 -75 -238 -255l-2 -12c-7 -38 -10 -71 -10 -100zM504 260l2 12c7 37 10 70 10 99c0 33 -5 61 -15 83l-368 -399c25 -36 69 -52 133 -52c137 0 206 76 238 257z" />
    <glyph glyph-name="oe" unicode="&#x153;" horiz-adv-x="922" 
d="M931 369c0 -23 -3 -56 -11 -106h-399l-3 -19c-5 -32 -8 -55 -8 -80c0 -120 62 -160 179 -160c56 0 130 8 176 14l-3 -14c-42 -7 -114 -16 -176 -16c-130 0 -190 53 -191 171c-40 -117 -110 -171 -232 -171c-121 0 -171 58 -171 174c0 30 4 64 12 114
c31 183 105 267 257 267c118 0 169 -57 171 -169c37 108 104 169 229 169c120 0 170 -64 170 -174zM915 369c0 105 -47 158 -156 158c-140 0 -202 -80 -233 -234l-2 -14h382c6 38 9 67 9 90zM516 371c0 109 -49 156 -158 156c-137 0 -206 -75 -238 -255
c-9 -50 -12 -83 -12 -112c0 -110 49 -157 158 -157c133 0 206 71 236 241l5 28c6 37 9 70 9 99z" />
    <glyph glyph-name="germandbls" unicode="&#xdf;" horiz-adv-x="563" 
d="M254 5c25 -2 32 -2 50 -2c148 0 239 105 239 251c0 92 -56 139 -189 139h-31l3 16h31c145 0 238 88 238 230c0 86 -43 133 -165 133c-145 0 -206 -77 -233 -230l-95 -542h-17l95 542c28 161 94 246 252 246c131 0 179 -55 179 -148c0 -117 -68 -218 -196 -239
c85 -5 144 -54 144 -147c0 -147 -91 -266 -258 -266c-15 0 -29 0 -49 2z" />
    <glyph glyph-name="one.superior" unicode="&#xb9;" horiz-adv-x="300" 
d="M324 339h-238l3 14h109l71 401l-116 -38l3 15l115 38h16l-73 -416h113z" />
    <glyph glyph-name="logicalnot" unicode="&#xac;" horiz-adv-x="683" 
d="M645 269h-17v233h-430v16h447v-249z" />
    <glyph glyph-name="mu" unicode="&#xb5;" horiz-adv-x="591" 
d="M580 529l-93 -529h-16l8 46c-56 -28 -126 -58 -209 -58c-85 0 -126 27 -137 90l-50 -286h-16l130 737h16l-58 -329c-6 -31 -9 -59 -9 -82c0 -86 42 -115 127 -115c76 0 149 30 209 61l82 465h16z" />
    <glyph glyph-name="trademark" unicode="&#x2122;" horiz-adv-x="828" 
d="M842 349h-15v294v87h-1c-17 -24 -34 -49 -50 -73l-92 -136h-17l-91 135c-17 25 -33 49 -50 74h-1v-86v-295h-15v394h25l101 -150c13 -19 26 -39 39 -58h1c13 19 26 39 39 58l101 150h26v-394zM430 727h-147v-378h-16v378h-146v16h309v-16z" />
    <glyph glyph-name="Eth" unicode="&#xd0;" horiz-adv-x="629" 
d="M654 511c0 -39 -4 -83 -13 -132l-4 -22c-49 -268 -165 -369 -370 -369c-82 0 -134 7 -182 12l67 382h-72l3 17h72l61 345c70 5 94 9 186 9c167 0 252 -70 252 -242zM638 510c0 167 -85 227 -239 227c-78 0 -124 -4 -170 -8l-58 -330h226l-3 -17h-226l-65 -368
c41 -4 98 -10 167 -10c186 0 303 91 351 356l4 22c9 48 13 91 13 128z" />
    <glyph glyph-name="onehalf" unicode="&#xbd;" horiz-adv-x="841" 
d="M791 743l-605 -743h-20l605 743h20zM324 317h-238l3 14h109l71 401l-116 -38l3 15l115 38h16l-73 -416h113zM603 412l3 15c33 6 75 10 115 10c86 0 133 -22 133 -83c0 -74 -66 -114 -146 -151c-125 -58 -148 -85 -165 -183l-1 -5h245l-2 -15h-261l3 20
c19 105 45 135 174 195c61 28 137 63 137 138c0 55 -43 69 -120 69c-35 0 -80 -4 -115 -10z" />
    <glyph glyph-name="plusminus" unicode="&#xb1;" horiz-adv-x="683" 
d="M666 0h-489v16h489v-16zM671 385h-240v-241h-17v241h-242v17h242v241h17v-241h240v-17z" />
    <glyph glyph-name="Thorn" unicode="&#xde;" horiz-adv-x="560" 
d="M584 450c0 -18 -2 -36 -8 -70c-22 -127 -110 -207 -296 -207c-55 0 -94 1 -152 4l-31 -177h-17l131 743h17l-27 -151c52 5 97 8 159 8c168 0 224 -50 224 -150zM568 450c0 94 -57 134 -210 134c-69 0 -126 -5 -160 -8l-67 -384c59 -3 98 -4 152 -4c170 0 254 66 278 196
c6 32 7 50 7 66z" />
    <glyph glyph-name="onequarter" unicode="&#xbc;" horiz-adv-x="779" 
d="M791 743l-605 -743h-20l605 743h20zM324 317h-238l3 14h109l71 401l-116 -38l3 15l115 38h16l-73 -416h113zM655 0h-16l22 130h-225l3 15l272 285h19l-50 -285h76l-3 -15h-76zM664 145l47 266l-252 -266h205z" />
    <glyph glyph-name="divide" unicode="&#xf7;" horiz-adv-x="683" 
d="M429 93h-16v129h16v-129zM673 397v-17h-503v17h503zM429 533h-16v129h16v-129z" />
    <glyph glyph-name="brokenbar" unicode="&#xa6;" horiz-adv-x="214" 
d="M200 -208h-17v384h17v-384zM200 743v-384h-17v384h17z" />
    <glyph glyph-name="degree" unicode="&#xb0;" horiz-adv-x="432" 
d="M473 581c0 -98 -77 -171 -174 -171s-174 73 -174 171c0 99 77 173 174 173s174 -74 174 -173zM456 581c0 92 -71 157 -157 157c-87 0 -157 -65 -157 -157c0 -91 70 -155 157 -155c86 0 157 64 157 155z" />
    <glyph glyph-name="thorn" unicode="&#xfe;" horiz-adv-x="525" 
d="M528 394c0 -35 -5 -76 -16 -137c-34 -189 -114 -269 -273 -269c-44 0 -66 1 -139 8l-36 -204h-16l172 978h16l-50 -283c44 21 123 56 197 56c103 0 145 -46 145 -149zM511 395c0 95 -37 132 -132 132c-70 0 -153 -35 -195 -56l-81 -459c65 -7 92 -8 139 -8
c145 0 222 72 254 256c11 61 15 101 15 135z" />
    <glyph glyph-name="threequarters" unicode="&#xbe;" horiz-adv-x="773" 
d="M791 743l-605 -743h-20l605 743h20zM655 0h-16l22 130h-225l3 15l272 285h19l-50 -285h76l-3 -15h-76zM664 145l47 266l-252 -266h205zM431 675c0 -8 -1 -21 -3 -31c-10 -49 -32 -90 -94 -103c48 -9 60 -38 60 -72c0 -10 -1 -24 -5 -41c-17 -78 -58 -118 -173 -118
c-44 0 -92 5 -107 8l2 15c21 -3 65 -8 105 -8c103 0 141 30 158 106c4 17 5 29 5 39c0 37 -17 64 -86 64h-133l2 15h133c88 0 110 52 118 100c2 12 2 18 2 25c0 48 -36 65 -124 65c-33 0 -85 -5 -109 -8l2 15c24 3 71 8 111 8c93 0 136 -21 136 -79z" />
    <glyph glyph-name="two.superior" unicode="&#xb2;" horiz-adv-x="374" 
d="M188 751l3 15c33 6 75 10 115 10c86 0 133 -22 133 -83c0 -74 -66 -114 -146 -151c-125 -58 -148 -85 -165 -183l-1 -5h245l-2 -15h-261l3 20c19 105 45 135 174 195c61 28 137 63 137 138c0 55 -43 69 -120 69c-35 0 -80 -4 -115 -10z" />
    <glyph glyph-name="registered" unicode="&#xae;" horiz-adv-x="657" 
d="M675 481c0 -162 -112 -280 -267 -280s-266 118 -266 280c0 163 111 281 266 281s267 -118 267 -281zM658 481c0 154 -98 265 -250 265s-250 -111 -250 -265c0 -152 98 -264 250 -264s250 112 250 264zM513 336h-16l-82 134h-39h-44v-134h-14v310c33 2 55 3 74 3
c75 0 110 -31 110 -86v-4c0 -56 -34 -79 -72 -86zM487 559v4c0 52 -33 73 -95 73c-18 0 -41 -1 -60 -2v-150h71c49 0 84 19 84 75z" />
    <glyph glyph-name="minus" unicode="&#x2212;" horiz-adv-x="683" 
d="M658 385h-474v17h474v-17z" />
    <glyph glyph-name="eth" unicode="&#xf0;" horiz-adv-x="534" 
d="M542 451c0 -48 -5 -102 -26 -222c-27 -145 -101 -243 -253 -243c-124 0 -173 73 -173 169c0 32 2 49 18 143c25 146 100 245 253 245c96 0 149 -41 166 -112c-1 134 -28 226 -113 280l-160 -98l-6 11l153 95c-41 24 -92 34 -148 37c-11 1 -23 1 -34 1l2 14
c11 0 23 0 34 -1c55 -3 107 -13 162 -42l99 58l7 -11l-95 -55c74 -50 114 -136 114 -269zM517 372c0 102 -48 155 -159 155c-137 0 -209 -83 -235 -233c-16 -93 -17 -110 -17 -139c0 -94 48 -154 160 -154c137 0 209 89 234 234c15 88 17 114 17 137z" />
    <glyph glyph-name="multiply" unicode="&#xd7;" horiz-adv-x="683" 
d="M624 202l-12 -12l-191 191l-191 -192l-12 12l192 191l-193 192l12 12l192 -192l192 192l12 -12l-192 -192z" />
    <glyph glyph-name="three.superior" unicode="&#xb3;" horiz-adv-x="368" 
d="M431 697c0 -8 -1 -21 -3 -31c-10 -49 -32 -90 -94 -103c48 -9 60 -38 60 -72c0 -10 -1 -24 -5 -41c-17 -78 -58 -118 -173 -118c-44 0 -92 5 -107 8l2 15c21 -3 65 -8 105 -8c103 0 141 30 158 106c4 17 5 29 5 39c0 37 -17 64 -86 64h-133l2 15h133c88 0 110 52 118 100
c2 12 2 18 2 25c0 48 -36 65 -124 65c-33 0 -85 -5 -109 -8l2 15c24 3 71 8 111 8c93 0 136 -21 136 -79z" />
    <glyph glyph-name="copyright" unicode="&#xa9;" horiz-adv-x="820" 
d="M846 378c0 -233 -154 -362 -355 -362s-354 129 -354 362s153 362 354 362s355 -129 355 -362zM829 378c0 220 -141 346 -338 346c-196 0 -337 -126 -337 -346c0 -221 141 -346 337 -346c197 0 338 125 338 346zM496 159c-116 0 -176 65 -176 196v41c0 131 60 197 176 197
c48 0 95 -6 103 -8v-16c-27 4 -59 8 -103 8c-104 0 -159 -54 -159 -181v-41c0 -127 55 -180 159 -180c44 0 76 4 103 8v-16c-8 -2 -55 -8 -103 -8z" />
    <glyph glyph-name="Aacute" unicode="&#xc1;" horiz-adv-x="602" 
d="M582 0h-18l-53 302h-313l-159 -302h-19l400 744h24zM508 318l-58 312c-6 34 -13 67 -19 101h-2c-17 -34 -35 -67 -53 -101l-169 -312h301zM606 943l-169 -154h-20l168 154h21z" />
    <glyph glyph-name="Acircumflex" unicode="&#xc2;" horiz-adv-x="602" 
d="M582 0h-18l-53 302h-313l-159 -302h-19l400 744h24zM508 318l-58 312c-6 34 -13 67 -19 101h-2c-17 -34 -35 -67 -53 -101l-169 -312h301zM613 789h-20l-105 139l-155 -139h-22l171 154h14z" />
    <glyph glyph-name="Adieresis" unicode="&#xc4;" horiz-adv-x="602" 
d="M582 0h-18l-53 302h-313l-159 -302h-19l400 744h24zM508 318l-58 312c-6 34 -13 67 -19 101h-2c-17 -34 -35 -67 -53 -101l-169 -312h301zM592 926l-22 -121h-17l22 121h17zM344 926h17l-22 -121h-17z" />
    <glyph glyph-name="Agrave" unicode="&#xc0;" horiz-adv-x="602" 
d="M582 0h-18l-53 302h-313l-159 -302h-19l400 744h24zM508 318l-58 312c-6 34 -13 67 -19 101h-2c-17 -34 -35 -67 -53 -101l-169 -312h301zM504 789h-20l-115 154h20z" />
    <glyph glyph-name="Aring" unicode="&#xc5;" horiz-adv-x="602" 
d="M582 0h-18l-53 302h-313l-159 -302h-19l400 744h24zM508 318l-58 312c-6 34 -13 67 -19 101h-2c-17 -34 -35 -67 -53 -101l-169 -312h301zM523 867c0 -71 -47 -106 -111 -106s-112 35 -112 106c0 70 48 105 112 105s111 -35 111 -105zM507 867c0 69 -47 90 -95 90
c-49 0 -96 -21 -96 -90c0 -70 47 -91 96 -91c48 0 95 21 95 91z" />
    <glyph glyph-name="Atilde" unicode="&#xc3;" horiz-adv-x="602" 
d="M582 0h-18l-53 302h-313l-159 -302h-19l400 744h24zM508 318l-58 312c-6 34 -13 67 -19 101h-2c-17 -34 -35 -67 -53 -101l-169 -312h301zM642 911c-14 -77 -33 -123 -92 -123c-35 0 -55 15 -79 50l-33 49c-23 33 -38 45 -66 45c-54 0 -65 -50 -75 -108l-6 -34h-16l6 34
c13 77 32 123 92 123c35 0 53 -15 77 -49l34 -49c24 -34 37 -46 67 -46c53 0 64 50 75 108l6 33h16z" />
    <glyph glyph-name="Ccedilla" unicode="&#xc7;" horiz-adv-x="561" 
d="M636 741l-3 -16c-12 2 -79 13 -170 13c-181 0 -279 -106 -325 -360l-2 -11c-10 -54 -15 -101 -15 -141c0 -155 70 -222 215 -222c83 0 143 9 173 13l-3 -16c-16 -3 -90 -13 -176 -13c-151 0 -225 76 -225 238c0 42 6 91 16 145l2 11c48 262 150 372 342 372
c90 0 160 -10 171 -13zM334 -68l-156 -140h-21l156 140h21z" />
    <glyph glyph-name="Eacute" unicode="&#xc9;" horiz-adv-x="544" 
d="M620 743l-3 -16h-388l-58 -327h359l-3 -16h-359l-65 -369h388l-2 -15h-404l131 743h404zM594 943l-169 -154h-20l168 154h21z" />
    <glyph glyph-name="Ecircumflex" unicode="&#xca;" horiz-adv-x="544" 
d="M620 743l-3 -16h-388l-58 -327h359l-3 -16h-359l-65 -369h388l-2 -15h-404l131 743h404zM581 789h-20l-105 139l-155 -139h-22l171 154h14z" />
    <glyph glyph-name="Edieresis" unicode="&#xcb;" horiz-adv-x="544" 
d="M620 743l-3 -16h-388l-58 -327h359l-3 -16h-359l-65 -369h388l-2 -15h-404l131 743h404zM568 926l-22 -121h-17l22 121h17zM320 926h17l-22 -121h-17z" />
    <glyph glyph-name="Egrave" unicode="&#xc8;" horiz-adv-x="544" 
d="M620 743l-3 -16h-388l-58 -327h359l-3 -16h-359l-65 -369h388l-2 -15h-404l131 743h404zM453 789h-20l-115 154h20z" />
    <glyph glyph-name="Iacute" unicode="&#xcd;" 
d="M238 743l-131 -743h-17l131 743h17zM388 943l-169 -154h-20l168 154h21z" />
    <glyph glyph-name="Icircumflex" unicode="&#xce;" 
d="M238 743l-131 -743h-17l131 743h17zM386 789h-20l-105 139l-155 -139h-22l171 154h14z" />
    <glyph glyph-name="Idieresis" unicode="&#xcf;" 
d="M238 743l-131 -743h-17l131 743h17zM393 926l-22 -121h-17l22 121h17zM145 926h17l-22 -121h-17z" />
    <glyph glyph-name="Igrave" unicode="&#xcc;" 
d="M238 743l-131 -743h-17l131 743h17zM289 789h-20l-115 154h20z" />
    <glyph glyph-name="Ntilde" unicode="&#xd1;" horiz-adv-x="664" 
d="M710 743l-132 -746h-22l-300 667c-9 20 -17 39 -26 59h-1c-4 -24 -9 -49 -13 -73l-114 -650h-17l131 743h22l303 -676c8 -17 15 -34 23 -51h1c4 21 7 41 11 62l118 665h16zM662 909c-14 -77 -33 -123 -92 -123c-35 0 -55 15 -79 50l-33 49c-23 33 -38 45 -66 45
c-54 0 -65 -50 -75 -108l-6 -34h-16l6 34c13 77 32 123 92 123c35 0 53 -15 77 -49l34 -49c24 -34 37 -46 67 -46c53 0 64 50 75 108l6 33h16z" />
    <glyph glyph-name="Oacute" unicode="&#xd3;" horiz-adv-x="648" 
d="M672 516c-1 -40 -4 -86 -14 -139l-4 -21c-49 -281 -171 -368 -332 -368c-130 0 -216 63 -216 238c0 39 4 87 14 140l4 21c50 283 169 367 332 367c132 0 216 -64 216 -238zM656 515c0 173 -85 223 -202 223c-148 0 -266 -75 -315 -356l-4 -21c-10 -51 -13 -96 -13 -134
c0 -172 84 -223 202 -223c145 0 266 76 315 357l4 21c10 51 12 95 13 133zM624 943l-169 -154h-20l168 154h21z" />
    <glyph glyph-name="Ocircumflex" unicode="&#xd4;" horiz-adv-x="648" 
d="M672 516c-1 -40 -4 -86 -14 -139l-4 -21c-49 -281 -171 -368 -332 -368c-130 0 -216 63 -216 238c0 39 4 87 14 140l4 21c50 283 169 367 332 367c132 0 216 -64 216 -238zM656 515c0 173 -85 223 -202 223c-148 0 -266 -75 -315 -356l-4 -21c-10 -51 -13 -96 -13 -134
c0 -172 84 -223 202 -223c145 0 266 76 315 357l4 21c10 51 12 95 13 133zM625 788h-20l-105 139l-155 -139h-22l171 154h14z" />
    <glyph glyph-name="Odieresis" unicode="&#xd6;" horiz-adv-x="648" 
d="M672 516c-1 -40 -4 -86 -14 -139l-4 -21c-49 -281 -171 -368 -332 -368c-130 0 -216 63 -216 238c0 39 4 87 14 140l4 21c50 283 169 367 332 367c132 0 216 -64 216 -238zM656 515c0 173 -85 223 -202 223c-148 0 -266 -75 -315 -356l-4 -21c-10 -51 -13 -96 -13 -134
c0 -172 84 -223 202 -223c145 0 266 76 315 357l4 21c10 51 12 95 13 133zM621 927l-22 -121h-17l22 121h17zM373 927h17l-22 -121h-17z" />
    <glyph glyph-name="Ograve" unicode="&#xd2;" horiz-adv-x="648" 
d="M672 516c-1 -40 -4 -86 -14 -139l-4 -21c-49 -281 -171 -368 -332 -368c-130 0 -216 63 -216 238c0 39 4 87 14 140l4 21c50 283 169 367 332 367c132 0 216 -64 216 -238zM656 515c0 173 -85 223 -202 223c-148 0 -266 -75 -315 -356l-4 -21c-10 -51 -13 -96 -13 -134
c0 -172 84 -223 202 -223c145 0 266 76 315 357l4 21c10 51 12 95 13 133zM503 789h-20l-115 154h20z" />
    <glyph glyph-name="Otilde" unicode="&#xd5;" horiz-adv-x="648" 
d="M672 516c-1 -40 -4 -86 -14 -139l-4 -21c-49 -281 -171 -368 -332 -368c-130 0 -216 63 -216 238c0 39 4 87 14 140l4 21c50 283 169 367 332 367c132 0 216 -64 216 -238zM656 515c0 173 -85 223 -202 223c-148 0 -266 -75 -315 -356l-4 -21c-10 -51 -13 -96 -13 -134
c0 -172 84 -223 202 -223c145 0 266 76 315 357l4 21c10 51 12 95 13 133zM679 910c-14 -77 -33 -123 -92 -123c-35 0 -55 15 -79 50l-33 49c-23 33 -38 45 -66 45c-54 0 -65 -50 -75 -108l-6 -34h-16l6 34c13 77 32 123 92 123c35 0 53 -15 77 -49l34 -49
c24 -34 37 -46 67 -46c53 0 64 50 75 108l6 33h16z" />
    <glyph glyph-name="Scaron" unicode="&#x160;" horiz-adv-x="546" 
d="M599 741l-2 -15c-37 5 -119 13 -190 13c-101 0 -233 -27 -233 -163c0 -74 59 -111 141 -159l43 -25c113 -66 167 -101 167 -194c0 -149 -102 -210 -265 -210c-81 0 -148 6 -190 13l2 15c30 -4 110 -12 191 -12c138 0 244 45 244 194c0 87 -53 118 -159 180l-44 26
c-82 48 -146 91 -146 170c0 145 129 180 251 180c72 0 140 -6 190 -13zM301 942h20l106 -139l154 139h22l-171 -154h-14z" />
    <glyph glyph-name="Uacute" unicode="&#xda;" horiz-adv-x="650" 
d="M701 743l-73 -409c-41 -229 -115 -343 -305 -343c-145 0 -199 73 -199 209c0 42 6 90 16 144l71 399h16l-72 -404c-10 -54 -15 -101 -15 -141c0 -129 53 -191 186 -191c182 0 247 115 286 332l72 404h17zM633 944l-169 -154h-20l168 154h21z" />
    <glyph glyph-name="Ucircumflex" unicode="&#xdb;" horiz-adv-x="650" 
d="M701 743l-73 -409c-41 -229 -115 -343 -305 -343c-145 0 -199 73 -199 209c0 42 6 90 16 144l71 399h16l-72 -404c-10 -54 -15 -101 -15 -141c0 -129 53 -191 186 -191c182 0 247 115 286 332l72 404h17zM618 789h-20l-105 139l-155 -139h-22l171 154h14z" />
    <glyph glyph-name="Udieresis" unicode="&#xdc;" horiz-adv-x="650" 
d="M701 743l-73 -409c-41 -229 -115 -343 -305 -343c-145 0 -199 73 -199 209c0 42 6 90 16 144l71 399h16l-72 -404c-10 -54 -15 -101 -15 -141c0 -129 53 -191 186 -191c182 0 247 115 286 332l72 404h17zM610 926l-22 -121h-17l22 121h17zM362 926h17l-22 -121h-17z" />
    <glyph glyph-name="Ugrave" unicode="&#xd9;" horiz-adv-x="650" 
d="M701 743l-73 -409c-41 -229 -115 -343 -305 -343c-145 0 -199 73 -199 209c0 42 6 90 16 144l71 399h16l-72 -404c-10 -54 -15 -101 -15 -141c0 -129 53 -191 186 -191c182 0 247 115 286 332l72 404h17zM495 789h-20l-115 154h20z" />
    <glyph glyph-name="Yacute" unicode="&#xdd;" horiz-adv-x="548" 
d="M639 743l-302 -432l-54 -311h-17l54 311l-149 432h19l125 -365c5 -16 11 -31 16 -47h1c11 15 21 31 32 46l255 366h20zM577 943l-169 -154h-20l168 154h21z" />
    <glyph glyph-name="Ydieresis" unicode="&#x178;" horiz-adv-x="548" 
d="M639 743l-302 -432l-54 -311h-17l54 311l-149 432h19l125 -365c5 -16 11 -31 16 -47h1c11 15 21 31 32 46l255 366h20zM563 926l-22 -121h-17l22 121h17zM315 926h17l-22 -121h-17z" />
    <glyph glyph-name="Zcaron" unicode="&#x17d;" horiz-adv-x="563" 
d="M647 743l-3 -16l-590 -712h481l-2 -15h-503l2 15l591 712h-445l3 16h466zM291 943h20l106 -139l154 139h22l-171 -154h-14z" />
    <glyph glyph-name="aacute" unicode="&#xe1;" horiz-adv-x="520" 
d="M435 0h-16l6 38c-42 -20 -110 -50 -184 -50c-107 0 -151 68 -151 176c0 30 3 62 10 97l3 16c36 194 109 266 263 266c38 0 88 -1 162 -10zM428 54l82 466c-66 6 -115 7 -147 7c-140 0 -209 -66 -244 -253l-3 -16c-6 -34 -9 -65 -9 -93c0 -109 42 -162 138 -162
c70 0 138 30 183 51zM524 770l-169 -154h-20l168 154h21z" />
    <glyph glyph-name="acircumflex" unicode="&#xe2;" horiz-adv-x="520" 
d="M435 0h-16l6 38c-42 -20 -110 -50 -184 -50c-107 0 -151 68 -151 176c0 30 3 62 10 97l3 16c36 194 109 266 263 266c38 0 88 -1 162 -10zM428 54l82 466c-66 6 -115 7 -147 7c-140 0 -209 -66 -244 -253l-3 -16c-6 -34 -9 -65 -9 -93c0 -109 42 -162 138 -162
c70 0 138 30 183 51zM514 616h-20l-105 139l-155 -139h-22l171 154h14z" />
    <glyph glyph-name="adieresis" unicode="&#xe4;" horiz-adv-x="520" 
d="M435 0h-16l6 38c-42 -20 -110 -50 -184 -50c-107 0 -151 68 -151 176c0 30 3 62 10 97l3 16c36 194 109 266 263 266c38 0 88 -1 162 -10zM428 54l82 466c-66 6 -115 7 -147 7c-140 0 -209 -66 -244 -253l-3 -16c-6 -34 -9 -65 -9 -93c0 -109 42 -162 138 -162
c70 0 138 30 183 51zM508 760l-22 -121h-17l22 121h17zM260 760h17l-22 -121h-17z" />
    <glyph glyph-name="agrave" unicode="&#xe0;" horiz-adv-x="520" 
d="M435 0h-16l6 38c-42 -20 -110 -50 -184 -50c-107 0 -151 68 -151 176c0 30 3 62 10 97l3 16c36 194 109 266 263 266c38 0 88 -1 162 -10zM428 54l82 466c-66 6 -115 7 -147 7c-140 0 -209 -66 -244 -253l-3 -16c-6 -34 -9 -65 -9 -93c0 -109 42 -162 138 -162
c70 0 138 30 183 51zM399 616h-20l-115 154h20z" />
    <glyph glyph-name="aring" unicode="&#xe5;" horiz-adv-x="520" 
d="M435 0h-16l6 38c-42 -20 -110 -50 -184 -50c-107 0 -151 68 -151 176c0 30 3 62 10 97l3 16c36 194 109 266 263 266c38 0 88 -1 162 -10zM428 54l82 466c-66 6 -115 7 -147 7c-140 0 -209 -66 -244 -253l-3 -16c-6 -34 -9 -65 -9 -93c0 -109 42 -162 138 -162
c70 0 138 30 183 51zM480 698c0 -71 -47 -106 -111 -106s-112 35 -112 106c0 70 48 105 112 105s111 -35 111 -105zM464 698c0 69 -47 90 -95 90c-49 0 -96 -21 -96 -90c0 -70 47 -91 96 -91c48 0 95 21 95 91z" />
    <glyph glyph-name="atilde" unicode="&#xe3;" horiz-adv-x="520" 
d="M435 0h-16l6 38c-42 -20 -110 -50 -184 -50c-107 0 -151 68 -151 176c0 30 3 62 10 97l3 16c36 194 109 266 263 266c38 0 88 -1 162 -10zM428 54l82 466c-66 6 -115 7 -147 7c-140 0 -209 -66 -244 -253l-3 -16c-6 -34 -9 -65 -9 -93c0 -109 42 -162 138 -162
c70 0 138 30 183 51zM556 740c-14 -77 -33 -123 -92 -123c-35 0 -55 15 -79 50l-33 49c-23 33 -38 45 -66 45c-54 0 -65 -50 -75 -108l-6 -34h-16l6 34c13 77 32 123 92 123c35 0 53 -15 77 -49l34 -49c24 -34 37 -46 67 -46c53 0 64 50 75 108l6 33h16z" />
    <glyph glyph-name="ccedilla" unicode="&#xe7;" horiz-adv-x="443" 
d="M491 531l-3 -16c-64 11 -108 12 -130 12c-131 0 -203 -51 -239 -255l-2 -13c-7 -42 -12 -76 -12 -105c0 -122 51 -151 161 -151c28 0 65 3 134 12l-2 -14c-71 -11 -106 -13 -135 -13c-115 0 -174 35 -174 159c0 32 5 70 12 116l2 13c37 212 116 267 258 267
c32 0 66 -2 130 -12zM257 -68l-156 -140h-21l156 140h21z" />
    <glyph glyph-name="eacute" unicode="&#xe9;" horiz-adv-x="519" 
d="M528 369c0 -23 -3 -56 -11 -106h-399l-3 -15c-6 -32 -8 -59 -8 -84c0 -120 62 -160 179 -160c56 0 130 8 176 14l-3 -14c-42 -7 -114 -16 -176 -16c-131 0 -191 54 -191 174c0 27 2 58 9 93l6 32c30 163 95 256 251 256c120 0 170 -64 170 -174zM512 369
c0 105 -47 158 -156 158c-147 0 -207 -89 -234 -241l-1 -7h382c6 38 9 67 9 90zM554 770l-169 -154h-20l168 154h21z" />
    <glyph glyph-name="ecircumflex" unicode="&#xea;" horiz-adv-x="519" 
d="M528 369c0 -23 -3 -56 -11 -106h-399l-3 -15c-6 -32 -8 -59 -8 -84c0 -120 62 -160 179 -160c56 0 130 8 176 14l-3 -14c-42 -7 -114 -16 -176 -16c-131 0 -191 54 -191 174c0 27 2 58 9 93l6 32c30 163 95 256 251 256c120 0 170 -64 170 -174zM512 369
c0 105 -47 158 -156 158c-147 0 -207 -89 -234 -241l-1 -7h382c6 38 9 67 9 90zM532 616h-20l-105 139l-155 -139h-22l171 154h14z" />
    <glyph glyph-name="edieresis" unicode="&#xeb;" horiz-adv-x="519" 
d="M528 369c0 -23 -3 -56 -11 -106h-399l-3 -15c-6 -32 -8 -59 -8 -84c0 -120 62 -160 179 -160c56 0 130 8 176 14l-3 -14c-42 -7 -114 -16 -176 -16c-131 0 -191 54 -191 174c0 27 2 58 9 93l6 32c30 163 95 256 251 256c120 0 170 -64 170 -174zM512 369
c0 105 -47 158 -156 158c-147 0 -207 -89 -234 -241l-1 -7h382c6 38 9 67 9 90zM523 760l-22 -121h-17l22 121h17zM275 760h17l-22 -121h-17z" />
    <glyph glyph-name="egrave" unicode="&#xe8;" horiz-adv-x="519" 
d="M528 369c0 -23 -3 -56 -11 -106h-399l-3 -15c-6 -32 -8 -59 -8 -84c0 -120 62 -160 179 -160c56 0 130 8 176 14l-3 -14c-42 -7 -114 -16 -176 -16c-131 0 -191 54 -191 174c0 27 2 58 9 93l6 32c30 163 95 256 251 256c120 0 170 -64 170 -174zM512 369
c0 105 -47 158 -156 158c-147 0 -207 -89 -234 -241l-1 -7h382c6 38 9 67 9 90zM422 616h-20l-115 154h20z" />
    <glyph glyph-name="iacute" unicode="&#xed;" 
d="M362 770l-169 -154h-20l168 154h21zM107 0h-17l93 529h17z" />
    <glyph glyph-name="icircumflex" unicode="&#xee;" 
d="M107 0h-17l93 529h17zM360 616h-20l-105 139l-155 -139h-22l171 154h14z" />
    <glyph glyph-name="idieresis" unicode="&#xef;" 
d="M362 760l-22 -121h-17l22 121h17zM114 760h17l-22 -121h-17zM107 0h-17l93 529h17z" />
    <glyph glyph-name="igrave" unicode="&#xec;" 
d="M257 616h-20l-115 154h20zM107 0h-17l93 529h17z" />
    <glyph glyph-name="ntilde" unicode="&#xf1;" horiz-adv-x="549" 
d="M535 412c0 -24 -4 -53 -9 -84l-58 -328h-16l58 331c5 30 8 57 8 79c0 87 -37 117 -127 117c-68 0 -143 -28 -207 -60l-82 -467h-17l93 529h17l-8 -45c59 29 132 59 207 59c100 0 141 -41 141 -131zM578 740c-14 -77 -33 -123 -92 -123c-35 0 -55 15 -79 50l-33 49
c-23 33 -38 45 -66 45c-54 0 -65 -50 -75 -108l-6 -34h-16l6 34c13 77 32 123 92 123c35 0 53 -15 77 -49l34 -49c24 -34 37 -46 67 -46c53 0 64 50 75 108l6 33h16z" />
    <glyph glyph-name="oacute" unicode="&#xf3;" horiz-adv-x="534" 
d="M532 370c0 -30 -3 -64 -10 -102l-2 -12c-33 -184 -105 -268 -257 -268c-121 0 -171 58 -171 174c0 30 4 64 10 102l2 12c33 183 105 267 257 267c120 0 171 -58 171 -173zM516 371c0 109 -49 156 -158 156c-137 0 -206 -75 -238 -255l-2 -12c-7 -38 -10 -71 -10 -100
c0 -110 49 -157 158 -157c137 0 206 76 238 257l2 12c7 37 10 70 10 99zM535 770l-169 -154h-20l168 154h21z" />
    <glyph glyph-name="ocircumflex" unicode="&#xf4;" horiz-adv-x="534" 
d="M532 370c0 -30 -3 -64 -10 -102l-2 -12c-33 -184 -105 -268 -257 -268c-121 0 -171 58 -171 174c0 30 4 64 10 102l2 12c33 183 105 267 257 267c120 0 171 -58 171 -173zM516 371c0 109 -49 156 -158 156c-137 0 -206 -75 -238 -255l-2 -12c-7 -38 -10 -71 -10 -100
c0 -110 49 -157 158 -157c137 0 206 76 238 257l2 12c7 37 10 70 10 99zM543 616h-20l-105 139l-155 -139h-22l171 154h14z" />
    <glyph glyph-name="odieresis" unicode="&#xf6;" horiz-adv-x="534" 
d="M532 370c0 -30 -3 -64 -10 -102l-2 -12c-33 -184 -105 -268 -257 -268c-121 0 -171 58 -171 174c0 30 4 64 10 102l2 12c33 183 105 267 257 267c120 0 171 -58 171 -173zM516 371c0 109 -49 156 -158 156c-137 0 -206 -75 -238 -255l-2 -12c-7 -38 -10 -71 -10 -100
c0 -110 49 -157 158 -157c137 0 206 76 238 257l2 12c7 37 10 70 10 99zM522 760l-22 -121h-17l22 121h17zM274 760h17l-22 -121h-17z" />
    <glyph glyph-name="ograve" unicode="&#xf2;" horiz-adv-x="534" 
d="M532 370c0 -30 -3 -64 -10 -102l-2 -12c-33 -184 -105 -268 -257 -268c-121 0 -171 58 -171 174c0 30 4 64 10 102l2 12c33 183 105 267 257 267c120 0 171 -58 171 -173zM516 371c0 109 -49 156 -158 156c-137 0 -206 -75 -238 -255l-2 -12c-7 -38 -10 -71 -10 -100
c0 -110 49 -157 158 -157c137 0 206 76 238 257l2 12c7 37 10 70 10 99zM420 616h-20l-115 154h20z" />
    <glyph glyph-name="otilde" unicode="&#xf5;" horiz-adv-x="534" 
d="M532 370c0 -30 -3 -64 -10 -102l-2 -12c-33 -184 -105 -268 -257 -268c-121 0 -171 58 -171 174c0 30 4 64 10 102l2 12c33 183 105 267 257 267c120 0 171 -58 171 -173zM516 371c0 109 -49 156 -158 156c-137 0 -206 -75 -238 -255l-2 -12c-7 -38 -10 -71 -10 -100
c0 -110 49 -157 158 -157c137 0 206 76 238 257l2 12c7 37 10 70 10 99zM581 740c-14 -77 -33 -123 -92 -123c-35 0 -55 15 -79 50l-33 49c-23 33 -38 45 -66 45c-54 0 -65 -50 -75 -108l-6 -34h-16l6 34c13 77 32 123 92 123c35 0 53 -15 77 -49l34 -49
c24 -34 37 -46 67 -46c53 0 64 50 75 108l6 33h16z" />
    <glyph glyph-name="scaron" unicode="&#x161;" horiz-adv-x="451" 
d="M472 527l-3 -16c-35 8 -95 16 -142 16c-84 0 -187 -19 -187 -126c0 -55 42 -81 122 -112l34 -13c87 -33 130 -68 130 -132c0 -104 -89 -156 -206 -156c-67 0 -122 7 -162 18l3 15c38 -9 92 -18 160 -18c99 0 188 39 188 141c0 55 -35 85 -122 118l-34 13
c-82 31 -129 63 -129 126c0 112 103 141 206 141c52 0 107 -7 142 -15zM195 770h20l106 -139l154 139h22l-171 -154h-14z" />
    <glyph glyph-name="uacute" unicode="&#xfa;" horiz-adv-x="548" 
d="M556 529l-94 -529h-16l8 46c-56 -28 -125 -58 -208 -58c-99 0 -139 42 -139 131c0 25 3 54 9 87l57 323h16l-58 -329c-5 -27 -8 -51 -8 -72c0 -93 36 -125 126 -125c76 0 148 30 208 61l82 465h17zM558 770l-169 -154h-20l168 154h21z" />
    <glyph glyph-name="ucircumflex" unicode="&#xfb;" horiz-adv-x="548" 
d="M556 529l-94 -529h-16l8 46c-56 -28 -125 -58 -208 -58c-99 0 -139 42 -139 131c0 25 3 54 9 87l57 323h16l-58 -329c-5 -27 -8 -51 -8 -72c0 -93 36 -125 126 -125c76 0 148 30 208 61l82 465h17zM534 616h-20l-105 139l-155 -139h-22l171 154h14z" />
    <glyph glyph-name="udieresis" unicode="&#xfc;" horiz-adv-x="548" 
d="M556 529l-94 -529h-16l8 46c-56 -28 -125 -58 -208 -58c-99 0 -139 42 -139 131c0 25 3 54 9 87l57 323h16l-58 -329c-5 -27 -8 -51 -8 -72c0 -93 36 -125 126 -125c76 0 148 30 208 61l82 465h17zM532 760l-22 -121h-17l22 121h17zM284 760h17l-22 -121h-17z" />
    <glyph glyph-name="ugrave" unicode="&#xf9;" horiz-adv-x="548" 
d="M556 529l-94 -529h-16l8 46c-56 -28 -125 -58 -208 -58c-99 0 -139 42 -139 131c0 25 3 54 9 87l57 323h16l-58 -329c-5 -27 -8 -51 -8 -72c0 -93 36 -125 126 -125c76 0 148 30 208 61l82 465h17zM417 616h-20l-115 154h20z" />
    <glyph glyph-name="yacute" unicode="&#xfd;" horiz-adv-x="461" 
d="M528 529l-302 -560c-79 -146 -109 -181 -210 -181c-18 0 -44 1 -70 3l2 16c32 -2 53 -3 71 -3c88 0 115 28 190 168l16 30l-112 527h18l90 -425c7 -35 10 -51 16 -76h4c13 25 21 40 40 75l229 426h18zM504 770l-169 -154h-20l168 154h21z" />
    <glyph glyph-name="ydieresis" unicode="&#xff;" horiz-adv-x="461" 
d="M528 529l-302 -560c-79 -146 -109 -181 -210 -181c-18 0 -44 1 -70 3l2 16c32 -2 53 -3 71 -3c88 0 115 28 190 168l16 30l-112 527h18l90 -425c7 -35 10 -51 16 -76h4c13 25 21 40 40 75l229 426h18zM473 760l-22 -121h-17l22 121h17zM225 760h17l-22 -121h-17z" />
    <glyph glyph-name="zcaron" unicode="&#x17e;" horiz-adv-x="462" 
d="M414 15l-2 -15h-367l2 15l431 498h-331l3 16h354l-3 -15l-432 -499h345zM238 770h20l106 -139l154 139h22l-171 -154h-14z" />
    <glyph glyph-name="dollar.oldstyle" horiz-adv-x="456" 
d="M70 5l3 15c35 -7 94 -17 161 -17c101 0 184 51 184 143c0 60 -38 79 -124 122l-29 14c-81 40 -128 65 -128 128c0 96 95 130 192 131l21 122h16l-21 -121c51 -1 102 -8 132 -14l-3 -15c-32 6 -85 14 -137 14c-84 0 -184 -22 -184 -116c0 -54 43 -76 123 -116l29 -15
c86 -44 129 -65 129 -134c0 -96 -83 -156 -193 -157l-20 -113h-16l19 112c-59 1 -109 7 -154 17z" />
    <glyph glyph-name="dollar.superior" horiz-adv-x="345" 
d="M108 343l3 15c30 -4 75 -9 115 -9c69 0 140 34 140 115c0 40 -27 59 -85 87l-40 19c-48 23 -86 50 -86 102c0 69 69 102 142 105l13 75h17l-13 -75c42 0 88 -4 108 -8l-2 -15c-25 3 -70 7 -113 7c-55 0 -134 -17 -134 -88c0 -45 32 -68 78 -89l38 -18
c61 -29 94 -51 94 -103c0 -81 -68 -124 -147 -129l-13 -73h-17l13 72c-37 1 -83 5 -111 10z" />
    <glyph glyph-name="parenleft.superior" unicode="&#x207d;" horiz-adv-x="187" 
d="M284 807c-85 -91 -142 -213 -142 -344c0 -81 21 -140 45 -182h-18c-21 40 -43 102 -43 182c0 124 50 250 139 344h19z" />
    <glyph glyph-name="parenright.superior" unicode="&#x207e;" horiz-adv-x="187" 
d="M237 626c0 -124 -50 -250 -139 -344h-19c85 91 142 213 142 344c0 81 -21 140 -45 182h18c21 -40 43 -102 43 -182z" />
    <glyph glyph-name="twodotenleader" unicode="&#x2025;" horiz-adv-x="298" 
d="M244 0h-17l23 132h17zM99 132l-23 -132h-17l23 132h17z" />
    <glyph glyph-name="onedotenleader" unicode="&#x2024;" horiz-adv-x="130" 
d="M76 0h-17l23 132h17z" />
    <glyph glyph-name="zero.oldstyle" horiz-adv-x="617" 
d="M589 248c-30 -171 -140 -260 -282 -260c-122 0 -195 71 -195 199c0 22 1 44 6 69l7 38c31 171 139 260 282 260c122 0 196 -71 196 -199c0 -22 -3 -44 -7 -69zM574 252l7 38c4 24 6 46 6 67c0 124 -74 181 -182 181c-128 0 -233 -77 -264 -248l-7 -38
c-5 -25 -6 -47 -6 -68c0 -124 73 -181 182 -181c127 0 232 75 264 249z" />
    <glyph glyph-name="one.oldstyle" horiz-adv-x="447" 
d="M404 0h-350l2 15h167l91 517l-176 -51l3 18l176 51h16l-94 -535h167z" />
    <glyph glyph-name="two.oldstyle" horiz-adv-x="565" 
d="M169 521l2 14c53 10 136 19 193 19c143 0 212 -41 212 -128c0 -144 -144 -224 -339 -334l-135 -76h398l-2 -16h-429l2 16l154 87c183 104 335 184 335 320c0 85 -70 115 -198 115c-55 0 -137 -8 -193 -17z" />
    <glyph glyph-name="three.oldstyle" horiz-adv-x="558" 
d="M24 -202l3 14c36 -4 125 -9 180 -9c181 0 236 73 258 184c10 50 12 67 12 84c0 56 -25 111 -137 111h-228l3 16h228c143 0 174 83 188 159c6 32 7 46 7 60c0 80 -51 121 -201 121c-67 0 -146 -5 -184 -10l3 15c28 5 117 11 183 11c158 0 216 -50 216 -137
c0 -16 -2 -32 -8 -64c-14 -78 -47 -145 -150 -164c75 -15 96 -65 96 -117c0 -18 -2 -37 -12 -90c-22 -120 -90 -194 -277 -194c-66 0 -153 6 -180 10z" />
    <glyph glyph-name="four.oldstyle" horiz-adv-x="598" 
d="M393 -203h-17l40 228h-377l3 16l462 509h21l-89 -509h131l-3 -16h-131zM419 41l86 490l-442 -490h356z" />
    <glyph glyph-name="five.oldstyle" horiz-adv-x="574" 
d="M28 -193l3 15c39 -6 107 -15 193 -15c184 0 240 72 262 198c7 40 8 57 8 75c0 106 -85 131 -221 131h-156l90 333h358l-3 -16h-342l-81 -301h137c145 0 234 -31 234 -147c0 -20 0 -38 -8 -79c-26 -136 -91 -210 -281 -210c-86 0 -165 10 -193 16z" />
    <glyph glyph-name="six.oldstyle" horiz-adv-x="617" 
d="M657 737l-2 -14c-36 6 -124 16 -194 16c-189 0 -257 -84 -288 -255l-13 -72c84 21 171 31 230 31c115 0 210 -34 210 -154c0 -205 -117 -301 -285 -301c-127 0 -202 63 -202 209c0 29 3 61 11 106l32 181c31 175 103 270 305 270c77 0 171 -11 196 -17zM158 397l-18 -101
c-8 -44 -11 -74 -11 -99c0 -140 70 -193 188 -193c139 0 225 61 256 198c8 35 10 61 10 87c0 113 -85 138 -193 138c-63 0 -149 -8 -232 -30z" />
    <glyph glyph-name="seven.oldstyle" horiz-adv-x="522" 
d="M140 528l2 16h437l-3 -16l-466 -731h-20l466 731h-416z" />
    <glyph glyph-name="eight.oldstyle" horiz-adv-x="630" 
d="M597 200c-27 -151 -101 -212 -280 -212h-8c-150 0 -209 52 -209 156c0 131 50 224 156 245c-67 16 -90 65 -90 124c0 16 1 34 6 59c22 127 93 181 272 181h7c153 0 212 -47 212 -140c0 -106 -43 -202 -152 -224c67 -14 93 -59 93 -123c0 -17 -2 -36 -7 -66zM581 205
c5 29 7 47 7 63c0 64 -29 113 -125 113h-160c-152 0 -187 -130 -187 -237c0 -101 60 -141 196 -141h8c161 0 235 54 261 202zM641 558c3 20 6 42 6 56c0 87 -59 124 -198 124h-7c-162 0 -234 -50 -255 -172c-4 -24 -6 -40 -6 -55c0 -61 28 -114 125 -114h160
c121 0 162 82 175 161z" />
    <glyph glyph-name="nine.oldstyle" horiz-adv-x="626" 
d="M62 -195l3 15c36 -6 120 -17 193 -17c189 0 257 84 288 255l13 72c-84 -21 -171 -31 -230 -31c-115 0 -210 34 -210 154c0 205 117 301 285 301c127 0 202 -63 202 -209c0 -29 -3 -61 -11 -106l-32 -181c-31 -175 -103 -270 -305 -270c-77 0 -171 11 -196 17zM561 145
l18 101c8 44 11 74 11 99c0 140 -70 193 -188 193c-139 0 -225 -61 -256 -198c-8 -35 -10 -61 -10 -87c0 -113 85 -138 193 -138c63 0 149 8 232 30z" />
    <glyph glyph-name="comma.superior" horiz-adv-x="121" 
d="M155 426l-70 -145h-16l68 145h18z" />
    <glyph glyph-name="period.superior" horiz-adv-x="93" 
d="M111 339h-17l15 87h17z" />
    <glyph glyph-name="a.superior" horiz-adv-x="319" 
d="M353 567c0 -12 -2 -27 -5 -43l-41 -227h-15l4 23c-24 -13 -69 -29 -107 -29c-56 0 -78 22 -78 69c0 9 1 20 4 36c14 77 53 94 153 94h58l7 37c3 16 5 29 5 40c0 39 -21 50 -83 50c-14 0 -42 -1 -78 -4l2 14c38 4 62 5 78 5c71 0 96 -17 96 -65zM324 475h-58
c-96 0 -123 -15 -136 -83c-3 -15 -4 -24 -4 -32c0 -40 20 -56 67 -56c36 0 78 16 106 31z" />
    <glyph glyph-name="b.superior" horiz-adv-x="325" 
d="M371 531c0 -19 -1 -41 -8 -79c-20 -115 -63 -161 -156 -161c-15 0 -44 0 -89 4l84 475h15l-26 -143c41 5 62 5 76 5c73 0 104 -32 104 -101zM355 531c0 63 -27 86 -90 86c-14 0 -39 0 -76 -4l-54 -305c37 -3 60 -3 75 -3c81 0 119 40 138 150c7 38 7 59 7 76z" />
    <glyph glyph-name="cent.superior" horiz-adv-x="333" 
d="M349 401c-43 -6 -76 -7 -100 -7l-14 -80h-17l14 80c-72 4 -111 34 -111 118c0 21 2 45 9 82l10 53c24 132 78 176 169 181l14 78h17l-14 -78c24 0 56 -1 97 -7l-3 -16c-40 5 -75 6 -101 6c-88 0 -139 -36 -163 -167l-10 -54c-6 -35 -8 -57 -8 -77c0 -80 39 -102 110 -102
c26 0 62 1 103 6z" />
    <glyph glyph-name="d.superior" horiz-adv-x="326" 
d="M314 297h-16l4 21c-22 -11 -60 -27 -99 -27c-61 0 -86 32 -86 93c0 17 2 36 6 58l8 44c18 101 59 145 152 145c13 0 35 0 73 -4l26 143h16zM305 333l49 280c-35 4 -60 4 -73 4c-81 0 -117 -39 -134 -133l-8 -44c-4 -21 -6 -40 -6 -56c0 -54 22 -79 74 -79
c38 0 74 16 98 28z" />
    <glyph glyph-name="e.superior" horiz-adv-x="326" 
d="M373 535c0 -15 -2 -31 -11 -78h-220l-2 -14c-3 -21 -4 -34 -4 -46c0 -67 33 -92 92 -92c42 0 76 4 101 8l-2 -13c-22 -4 -64 -9 -100 -9c-65 0 -106 30 -106 105c0 13 1 29 11 92c13 84 56 144 143 144c70 0 98 -38 98 -97zM358 536c0 54 -25 81 -85 81
c-77 0 -112 -51 -125 -129l-3 -17h205c6 34 8 51 8 65z" />
    <glyph glyph-name="i.superior" unicode="&#x2071;" horiz-adv-x="145" 
d="M176 622h15l-58 -325h-15zM203 692h-15l14 78h15z" />
    <glyph glyph-name="l.superior" horiz-adv-x="145" 
d="M133 297h-15l84 473h15z" />
    <glyph glyph-name="m.superior" horiz-adv-x="482" 
d="M516 570c0 -13 -2 -27 -5 -43l-41 -230h-16l41 230c3 16 5 31 5 43c0 31 -12 47 -52 47c-28 0 -64 -9 -102 -31c1 -6 1 -11 1 -16c0 -14 -2 -27 -5 -43l-41 -230h-15l41 230c3 16 4 30 4 40c0 33 -12 50 -49 50c-27 0 -58 -10 -98 -32l-50 -283h-15l57 320h15l-4 -23
c39 23 70 33 98 33c33 0 50 -13 58 -34c38 23 76 34 107 34c50 0 66 -24 66 -62z" />
    <glyph glyph-name="n.superior" unicode="&#x207f;" horiz-adv-x="306" 
d="M357 560c0 -16 -3 -38 -6 -53l-37 -210h-15l37 210c3 18 5 36 5 50c0 46 -20 60 -65 60c-38 0 -77 -15 -112 -33l-51 -287h-15l58 325h15l-4 -23c31 15 71 33 111 33c56 0 79 -21 79 -72z" />
    <glyph glyph-name="o.superior" horiz-adv-x="326" 
d="M371 530c0 -19 -3 -41 -9 -78c-17 -104 -58 -161 -147 -161c-69 0 -95 36 -95 102c0 19 2 43 8 79c19 105 58 160 147 160c69 0 96 -37 96 -102zM355 530c0 59 -24 87 -82 87c-75 0 -112 -48 -129 -149c-6 -36 -8 -57 -8 -75c0 -60 24 -89 82 -89c76 0 113 50 129 151
c6 37 8 57 8 75z" />
    <glyph glyph-name="r.superior" horiz-adv-x="226" 
d="M133 297h-15l58 325h15l-5 -24c41 21 78 34 112 34l-2 -15c-34 0 -73 -12 -112 -33z" />
    <glyph glyph-name="s.superior" horiz-adv-x="290" 
d="M314 391c0 -63 -52 -100 -122 -100c-35 0 -66 3 -89 9l2 13c23 -4 55 -8 90 -8c57 0 104 27 104 86c0 31 -17 46 -62 67l-26 12c-44 20 -68 40 -68 77c0 63 59 85 120 85c32 0 69 -5 87 -9l-3 -13c-19 3 -54 8 -86 8c-49 0 -103 -15 -103 -71c0 -33 23 -47 64 -66l24 -11
c48 -22 68 -46 68 -79z" />
    <glyph glyph-name="t.superior" horiz-adv-x="259" 
d="M271 295c-24 -3 -41 -4 -50 -4c-36 0 -48 15 -48 43c0 10 2 21 4 34l42 240h-71l3 14h71l16 92h15l-16 -92h93l-3 -14h-93l-43 -245c-2 -12 -3 -21 -3 -29c0 -23 10 -29 36 -29c11 0 28 1 49 3z" />
    <glyph glyph-name="parenleft.inferior" unicode="&#x208d;" horiz-adv-x="187" 
d="M195 314c-85 -91 -142 -213 -142 -344c0 -81 21 -140 45 -182h-18c-21 40 -43 102 -43 182c0 124 50 250 139 344h19z" />
    <glyph glyph-name="parenright.inferior" unicode="&#x208e;" horiz-adv-x="187" 
d="M205 133c0 -124 -50 -250 -139 -344h-19c85 91 142 213 142 344c0 81 -21 140 -45 182h18c21 -40 43 -102 43 -182z" />
    <glyph glyph-name="hyphen.superior" horiz-adv-x="264" 
d="M297 508h-162l3 17h162z" />
    <glyph glyph-name="colonmonetary" unicode="&#x20a1;" horiz-adv-x="438" 
d="M487 531l-3 -15c-41 7 -92 11 -126 11c-135 0 -210 -66 -238 -225l-11 -60c-8 -44 -10 -72 -10 -96c0 -104 53 -143 162 -143c28 0 65 3 135 12l-2 -14c-42 -6 -72 -10 -94 -12l-21 -115h-17l20 114h-29c-15 0 -32 1 -50 4l-21 -118h-16l22 121c-71 17 -105 63 -105 150
c0 25 2 56 10 98l11 62c23 133 77 204 179 230l22 127h16l-22 -124c22 4 43 5 62 5h19l21 119h17l-21 -120c24 -1 52 -4 90 -11z" />
    <glyph glyph-name="cent.oldstyle" horiz-adv-x="451" 
d="M504 531l-3 -16c-58 8 -97 12 -130 12c-131 0 -205 -66 -233 -225l-13 -73c-6 -31 -8 -59 -8 -83c0 -104 53 -143 162 -143c28 0 65 3 134 12l-2 -14c-67 -10 -100 -12 -129 -13l-20 -113h-16l20 113c-113 3 -166 50 -166 158c0 25 3 55 9 87l13 73
c28 161 102 232 242 238l21 118h16l-21 -119c28 -1 61 -2 124 -12z" />
    <glyph glyph-name="figuredash" unicode="&#x2012;" horiz-adv-x="527" 
d="M530 282h-404l3 16h404z" />
    <glyph glyph-name="hyphen.inferior" horiz-adv-x="264" 
d="M241 15h-162l3 17h162z" />
    <glyph glyph-name="oneeighth" unicode="&#x215b;" horiz-adv-x="866" 
d="M838 111c-16 -90 -82 -118 -176 -118h-6c-87 0 -135 27 -135 94c0 73 30 125 94 139c-38 11 -55 43 -55 80c0 96 59 131 175 131h5c94 0 138 -27 138 -84s-34 -113 -93 -127c37 -9 57 -39 57 -77c0 -11 -1 -19 -4 -38zM822 114c3 19 4 26 4 35c0 37 -20 70 -81 70h-92
c-92 0 -117 -74 -117 -131c0 -59 45 -80 123 -80h6c88 0 143 27 157 106zM859 327c2 13 2 20 2 26c0 50 -41 69 -124 69h-5c-103 0 -156 -29 -156 -116c0 -38 19 -71 80 -71h92c72 0 102 47 111 92zM769 743l-605 -743h-20l605 743h20zM324 317h-238l3 14h109l71 401
l-116 -38l3 15l115 38h16l-73 -416h113z" />
    <glyph glyph-name="threeeighths" unicode="&#x215c;" horiz-adv-x="909" 
d="M804 743l-605 -743h-20l605 743h20zM881 111c-16 -90 -82 -118 -176 -118h-6c-87 0 -135 27 -135 94c0 73 30 125 94 139c-38 11 -55 43 -55 80c0 96 59 131 175 131h5c94 0 138 -27 138 -84s-34 -113 -93 -127c37 -9 57 -39 57 -77c0 -11 -1 -19 -4 -38zM865 114
c3 19 4 26 4 35c0 37 -20 70 -81 70h-92c-92 0 -117 -74 -117 -131c0 -59 45 -80 123 -80h6c88 0 143 27 157 106zM902 327c2 13 2 20 2 26c0 50 -41 69 -124 69h-5c-103 0 -156 -29 -156 -116c0 -38 19 -71 80 -71h92c72 0 102 47 111 92zM421 675c0 -8 -1 -21 -3 -31
c-10 -49 -32 -90 -94 -103c48 -9 60 -38 60 -72c0 -10 -1 -24 -5 -41c-17 -78 -58 -118 -173 -118c-44 0 -92 5 -107 8l2 15c21 -3 65 -8 105 -8c103 0 141 30 158 106c4 17 5 29 5 39c0 37 -17 64 -86 64h-133l2 15h133c88 0 110 52 118 100c2 12 2 18 2 25
c0 48 -36 65 -124 65c-33 0 -85 -5 -109 -8l2 15c24 3 71 8 111 8c93 0 136 -21 136 -79z" />
    <glyph glyph-name="fiveeighths" unicode="&#x215d;" horiz-adv-x="913" 
d="M432 747l-2 -15h-205l-44 -163h83c86 0 139 -22 139 -88c0 -14 -1 -24 -4 -41c-17 -93 -67 -130 -182 -130c-48 0 -86 4 -108 9l3 15c26 -4 61 -9 108 -9c108 0 148 35 163 118c3 16 4 26 4 38c0 60 -48 73 -126 73h-101l52 193h220zM804 743l-605 -743h-20l605 743h20z
M881 111c-16 -90 -82 -118 -176 -118h-6c-87 0 -135 27 -135 94c0 73 30 125 94 139c-38 11 -55 43 -55 80c0 96 59 131 175 131h5c94 0 138 -27 138 -84s-34 -113 -93 -127c37 -9 57 -39 57 -77c0 -11 -1 -19 -4 -38zM865 114c3 19 4 26 4 35c0 37 -20 70 -81 70h-92
c-92 0 -117 -74 -117 -131c0 -59 45 -80 123 -80h6c88 0 143 27 157 106zM902 327c2 13 2 20 2 26c0 50 -41 69 -124 69h-5c-103 0 -156 -29 -156 -116c0 -38 19 -71 80 -71h92c72 0 102 47 111 92z" />
    <glyph glyph-name="seveneighths" unicode="&#x215e;" horiz-adv-x="846" 
d="M744 743l-605 -743h-20l605 743h20zM819 111c-16 -90 -82 -118 -176 -118h-6c-87 0 -135 27 -135 94c0 73 30 125 94 139c-38 11 -55 43 -55 80c0 96 59 131 175 131h5c94 0 138 -27 138 -84s-34 -113 -93 -127c37 -9 57 -39 57 -77c0 -11 -1 -19 -4 -38zM803 114
c3 19 4 26 4 35c0 37 -20 70 -81 70h-92c-92 0 -117 -74 -117 -131c0 -59 45 -80 123 -80h6c88 0 143 27 157 106zM840 327c2 13 2 20 2 26c0 50 -41 69 -124 69h-5c-103 0 -156 -29 -156 -116c0 -38 19 -71 80 -71h92c72 0 102 47 111 92zM177 732l2 15h263l-2 -15
l-283 -415h-18l284 415h-246z" />
    <glyph glyph-name="onethird" unicode="&#x2153;" horiz-adv-x="837" 
d="M769 743l-605 -743h-20l605 743h20zM848 358c0 -8 -1 -21 -3 -31c-10 -49 -32 -90 -94 -103c48 -9 60 -38 60 -72c0 -10 -1 -24 -5 -41c-17 -78 -58 -118 -173 -118c-44 0 -92 5 -107 8l2 15c21 -3 65 -8 105 -8c103 0 141 30 158 106c4 17 5 29 5 39c0 37 -17 64 -86 64
h-133l2 15h133c88 0 110 52 118 100c2 12 2 18 2 25c0 48 -36 65 -124 65c-33 0 -85 -5 -109 -8l2 15c24 3 71 8 111 8c93 0 136 -21 136 -79zM324 317h-238l3 14h109l71 401l-116 -38l3 15l115 38h16l-73 -416h113z" />
    <glyph glyph-name="twothirds" unicode="&#x2154;" horiz-adv-x="869" 
d="M802 743l-605 -743h-20l605 743h20zM881 358c0 -8 -1 -21 -3 -31c-10 -49 -32 -90 -94 -103c48 -9 60 -38 60 -72c0 -10 -1 -24 -5 -41c-17 -78 -58 -118 -173 -118c-44 0 -92 5 -107 8l2 15c21 -3 65 -8 105 -8c103 0 141 30 158 106c4 17 5 29 5 39c0 37 -17 64 -86 64
h-133l2 15h133c88 0 110 52 118 100c2 12 2 18 2 25c0 48 -36 65 -124 65c-33 0 -85 -5 -109 -8l2 15c24 3 71 8 111 8c93 0 136 -21 136 -79zM183 729l3 15c33 6 75 10 115 10c86 0 133 -22 133 -83c0 -74 -66 -114 -146 -151c-125 -58 -148 -85 -165 -183l-1 -5h245
l-2 -15h-261l3 20c19 105 45 135 174 195c61 28 137 63 137 138c0 55 -43 69 -120 69c-35 0 -80 -4 -115 -10z" />
    <glyph glyph-name="zero.superior" unicode="&#x2070;" horiz-adv-x="400" 
d="M452 652c0 -21 -2 -45 -7 -72l-11 -58c-27 -141 -87 -190 -180 -190c-74 0 -120 38 -120 128c0 20 2 42 7 68l11 58c26 140 89 190 181 190c77 0 119 -36 119 -124zM435 650c0 83 -40 110 -105 110c-76 0 -136 -41 -161 -177l-11 -59c-5 -24 -6 -45 -6 -63
c0 -85 43 -113 105 -113c74 0 135 41 160 176l11 59c5 26 7 48 7 67z" />
    <glyph glyph-name="four.superior" unicode="&#x2074;" horiz-adv-x="421" 
d="M348 339h-16l22 130h-225l3 15l272 285h19l-50 -285h76l-3 -15h-76zM357 484l47 266l-252 -266h205z" />
    <glyph glyph-name="five.superior" unicode="&#x2075;" horiz-adv-x="375" 
d="M432 769l-2 -15h-205l-44 -163h83c86 0 139 -22 139 -88c0 -14 -1 -24 -4 -41c-17 -93 -67 -130 -182 -130c-48 0 -86 4 -108 9l3 15c26 -4 61 -9 108 -9c108 0 148 35 163 118c3 16 4 26 4 38c0 60 -48 73 -126 73h-101l52 193h220z" />
    <glyph glyph-name="six.superior" unicode="&#x2076;" horiz-adv-x="402" 
d="M461 767l-3 -16c-30 4 -70 9 -116 9c-109 0 -154 -53 -169 -144l-6 -37c54 12 101 16 136 16c75 0 127 -18 127 -86c0 -116 -63 -177 -172 -177c-83 0 -125 41 -125 119c0 18 1 33 4 50l21 115c19 105 69 160 187 160c45 0 85 -4 116 -9zM410 460c4 23 4 40 4 48
c0 59 -44 72 -114 72c-35 0 -81 -4 -136 -16l-12 -68c-3 -17 -4 -32 -4 -45c0 -78 46 -104 111 -104c80 0 137 34 151 113z" />
    <glyph glyph-name="seven.superior" unicode="&#x2077;" horiz-adv-x="360" 
d="M177 754l2 15h263l-2 -15l-283 -415h-18l284 415h-246z" />
    <glyph glyph-name="eight.superior" unicode="&#x2078;" horiz-adv-x="422" 
d="M444 450c-16 -90 -82 -118 -176 -118h-6c-87 0 -135 27 -135 94c0 73 30 125 94 139c-38 11 -55 43 -55 80c0 96 59 131 175 131h5c94 0 138 -27 138 -84s-34 -113 -93 -127c37 -9 57 -39 57 -77c0 -11 -1 -19 -4 -38zM428 453c3 19 4 26 4 35c0 37 -20 70 -81 70h-92
c-92 0 -117 -74 -117 -131c0 -59 45 -80 123 -80h6c88 0 143 27 157 106zM465 666c2 13 2 20 2 26c0 50 -41 69 -124 69h-5c-103 0 -156 -29 -156 -116c0 -38 19 -71 80 -71h92c72 0 102 47 111 92z" />
    <glyph glyph-name="nine.superior" unicode="&#x2079;" horiz-adv-x="402" 
d="M133 341l3 16c30 -4 70 -9 116 -9c109 0 154 53 169 144l6 37c-54 -12 -101 -16 -136 -16c-75 0 -127 18 -127 86c0 116 63 177 172 177c83 0 125 -41 125 -119c0 -18 -1 -33 -4 -50l-21 -115c-19 -105 -69 -160 -187 -160c-45 0 -85 4 -116 9zM184 648
c-4 -23 -4 -40 -4 -48c0 -59 44 -72 114 -72c35 0 81 4 136 16l12 68c3 17 4 32 4 45c0 78 -46 104 -111 104c-80 0 -137 -34 -151 -113z" />
    <glyph glyph-name="zero.inferior" unicode="&#x2080;" horiz-adv-x="400" 
d="M388 108c0 -21 -2 -45 -7 -72l-11 -58c-27 -141 -87 -190 -180 -190c-74 0 -120 38 -120 128c0 20 2 42 7 68l11 58c26 140 89 190 181 190c77 0 119 -36 119 -124zM371 106c0 83 -40 110 -105 110c-76 0 -136 -41 -161 -177l-11 -59c-5 -24 -6 -45 -6 -63
c0 -85 43 -113 105 -113c74 0 135 41 160 176l11 59c5 26 7 48 7 67z" />
    <glyph glyph-name="one.inferior" unicode="&#x2081;" horiz-adv-x="300" 
d="M267 -205h-238l3 14h109l71 401l-116 -38l3 15l115 38h16l-73 -416h113z" />
    <glyph glyph-name="two.inferior" unicode="&#x2082;" horiz-adv-x="374" 
d="M140 207l3 15c33 6 75 10 115 10c86 0 133 -22 133 -83c0 -74 -66 -114 -146 -151c-125 -58 -148 -85 -165 -183l-1 -5h245l-2 -15h-261l3 20c19 105 45 135 174 195c61 28 137 63 137 138c0 55 -43 69 -120 69c-35 0 -80 -4 -115 -10z" />
    <glyph glyph-name="three.inferior" unicode="&#x2083;" horiz-adv-x="368" 
d="M375 153c0 -8 -1 -21 -3 -31c-10 -49 -32 -90 -94 -103c48 -9 60 -38 60 -72c0 -10 -1 -24 -5 -41c-17 -78 -58 -118 -173 -118c-44 0 -92 5 -107 8l2 15c21 -3 65 -8 105 -8c103 0 141 30 158 106c4 17 5 29 5 39c0 37 -17 64 -86 64h-133l2 15h133c88 0 110 52 118 100
c2 12 2 18 2 25c0 48 -36 65 -124 65c-33 0 -85 -5 -109 -8l2 15c24 3 71 8 111 8c93 0 136 -21 136 -79z" />
    <glyph glyph-name="four.inferior" unicode="&#x2084;" horiz-adv-x="421" 
d="M276 -205h-16l22 130h-225l3 15l272 285h19l-50 -285h76l-3 -15h-76zM285 -60l47 266l-252 -266h205z" />
    <glyph glyph-name="five.inferior" unicode="&#x2085;" horiz-adv-x="375" 
d="M376 225l-2 -15h-205l-44 -163h83c86 0 139 -22 139 -88c0 -14 -1 -24 -4 -41c-17 -93 -67 -130 -182 -130c-48 0 -86 4 -108 9l3 15c26 -4 61 -9 108 -9c108 0 148 35 163 118c3 16 4 26 4 38c0 60 -48 73 -126 73h-101l52 193h220z" />
    <glyph glyph-name="six.inferior" unicode="&#x2086;" horiz-adv-x="402" 
d="M397 223l-3 -16c-30 4 -70 9 -116 9c-109 0 -154 -53 -169 -144l-6 -37c54 12 101 16 136 16c75 0 127 -18 127 -86c0 -116 -63 -177 -172 -177c-83 0 -125 41 -125 119c0 18 1 33 4 50l21 115c19 105 69 160 187 160c45 0 85 -4 116 -9zM346 -84c4 23 4 40 4 48
c0 59 -44 72 -114 72c-35 0 -81 -4 -136 -16l-12 -68c-3 -17 -4 -32 -4 -45c0 -78 46 -104 111 -104c80 0 137 34 151 113z" />
    <glyph glyph-name="seven.inferior" unicode="&#x2087;" horiz-adv-x="360" 
d="M113 210l2 15h263l-2 -15l-283 -415h-18l284 415h-246z" />
    <glyph glyph-name="eight.inferior" unicode="&#x2088;" horiz-adv-x="422" 
d="M380 -94c-16 -90 -82 -118 -176 -118h-6c-87 0 -135 27 -135 94c0 73 30 125 94 139c-38 11 -55 43 -55 80c0 96 59 131 175 131h5c94 0 138 -27 138 -84s-34 -113 -93 -127c37 -9 57 -39 57 -77c0 -11 -1 -19 -4 -38zM364 -91c3 19 4 26 4 35c0 37 -20 70 -81 70h-92
c-92 0 -117 -74 -117 -131c0 -59 45 -80 123 -80h6c88 0 143 27 157 106zM401 122c2 13 2 20 2 26c0 50 -41 69 -124 69h-5c-103 0 -156 -29 -156 -116c0 -38 19 -71 80 -71h92c72 0 102 47 111 92z" />
    <glyph glyph-name="nine.inferior" unicode="&#x2089;" horiz-adv-x="402" 
d="M76 -203l3 16c30 -4 70 -9 116 -9c109 0 154 53 169 144l6 37c-54 -12 -101 -16 -136 -16c-75 0 -127 18 -127 86c0 116 63 177 172 177c83 0 125 -41 125 -119c0 -18 -1 -33 -4 -50l-21 -115c-19 -105 -69 -160 -187 -160c-45 0 -85 4 -116 9zM127 104
c-4 -23 -4 -40 -4 -48c0 -59 44 -72 114 -72c35 0 81 4 136 16l12 68c3 17 4 32 4 45c0 78 -46 104 -111 104c-80 0 -137 -34 -151 -113z" />
    <glyph glyph-name="cent.inferior" horiz-adv-x="333" 
d="M277 -205c-43 -6 -76 -7 -100 -7l-14 -80h-17l14 80c-72 4 -111 34 -111 118c0 21 2 45 9 82l10 53c24 132 78 176 169 181l14 78h17l-14 -78c24 0 56 -1 97 -7l-3 -16c-40 5 -75 6 -101 6c-88 0 -139 -36 -163 -167l-10 -54c-6 -35 -8 -57 -8 -77
c0 -80 39 -102 110 -102c26 0 62 1 103 6z" />
    <glyph glyph-name="dollar.inferior" horiz-adv-x="345" 
d="M36 -201l3 15c30 -4 75 -9 115 -9c69 0 140 34 140 115c0 40 -27 59 -85 87l-40 19c-48 23 -86 50 -86 102c0 69 69 102 142 105l13 75h17l-13 -75c42 0 88 -4 108 -8l-2 -15c-25 3 -70 7 -113 7c-55 0 -134 -17 -134 -88c0 -46 32 -67 78 -89l38 -18
c61 -29 94 -51 94 -103c0 -81 -68 -124 -147 -129l-13 -73h-17l13 72c-37 1 -83 5 -111 10z" />
    <glyph glyph-name="period.inferior" horiz-adv-x="93" 
d="M65 -154h-17l15 87h17z" />
    <glyph glyph-name="comma.inferior" horiz-adv-x="121" 
d="M135 -67l-70 -145h-16l68 145h18z" />
    <glyph glyph-name="commaaccent" horiz-adv-x="422" 
d="M211 -68l-132 -140h-21l132 140h21z" />
    <glyph glyph-name="Abreve" unicode="&#x102;" horiz-adv-x="602" 
d="M582 0h-18l-53 302h-313l-159 -302h-19l400 744h24zM508 318l-58 312c-6 34 -13 67 -19 101h-2c-17 -34 -35 -67 -53 -101l-169 -312h301zM629 947c-24 -89 -62 -159 -176 -159c-95 0 -122 53 -122 122c0 15 1 26 2 37h15c-1 -12 -2 -25 -2 -37c0 -60 21 -107 109 -107
c104 0 138 68 158 144h16z" />
    <glyph glyph-name="Amacron" unicode="&#x100;" horiz-adv-x="602" 
d="M582 0h-18l-53 302h-313l-159 -302h-19l400 744h24zM508 318l-58 312c-6 34 -13 67 -19 101h-2c-17 -34 -35 -67 -53 -101l-169 -312h301zM643 851h-343l3 16h343z" />
    <glyph glyph-name="Aogonek" unicode="&#x104;" horiz-adv-x="602" 
d="M582 0c-58 -21 -193 -62 -193 -149c0 -34 25 -54 83 -54c34 0 70 6 85 9l-2 -14c-15 -4 -52 -9 -85 -9c-72 0 -97 29 -97 68c0 85 114 133 189 157l-51 294h-313l-159 -302h-19l400 744h24zM508 318l-58 312l-19 101h-2c-17 -34 -35 -67 -53 -101l-169 -312h301z" />
    <glyph glyph-name="Aringacute" unicode="&#x1fa;" horiz-adv-x="602" 
d="M582 0h-18l-53 302h-313l-159 -302h-19l400 744h24zM508 318l-58 312c-6 34 -13 67 -19 101h-2c-17 -34 -35 -67 -53 -101l-169 -312h301zM521 851c0 -71 -47 -106 -111 -106s-112 35 -112 106c0 70 48 105 112 105s111 -35 111 -105zM505 851c0 69 -47 90 -95 90
c-49 0 -96 -21 -96 -90c0 -70 47 -91 96 -91c48 0 95 21 95 91zM659 1139l-169 -154h-20l168 154h21z" />
    <glyph glyph-name="AEacute" unicode="&#x1fc;" horiz-adv-x="902" 
d="M820 943l-169 -154h-20l168 154h21zM976 727h-389l-58 -327h359l-3 -16h-359l-65 -369h389l-3 -15h-405l54 302h-295l-161 -302h-20l399 743h559zM499 318l72 409h-141c-17 -34 -35 -65 -53 -98l-167 -311h289z" />
    <glyph glyph-name="Cacute" unicode="&#x106;" horiz-adv-x="561" 
d="M636 741l-3 -16c-12 2 -79 13 -170 13c-181 0 -279 -106 -325 -360l-2 -11c-10 -54 -15 -101 -15 -141c0 -155 70 -222 215 -222c83 0 143 9 173 13l-3 -16c-16 -3 -90 -13 -176 -13c-151 0 -225 76 -225 238c0 42 6 91 16 145l2 11c48 262 150 372 342 372
c90 0 160 -10 171 -13zM640 943l-169 -154h-20l168 154h21z" />
    <glyph glyph-name="Ccaron" unicode="&#x10c;" horiz-adv-x="561" 
d="M636 741l-3 -16c-12 2 -79 13 -170 13c-181 0 -279 -106 -325 -360l-2 -11c-10 -54 -15 -101 -15 -141c0 -155 70 -222 215 -222c83 0 143 9 173 13l-3 -16c-16 -3 -90 -13 -176 -13c-151 0 -225 76 -225 238c0 42 6 91 16 145l2 11c48 262 150 372 342 372
c90 0 160 -10 171 -13zM343 943h20l106 -139l154 139h22l-171 -154h-14z" />
    <glyph glyph-name="Ccircumflex" unicode="&#x108;" horiz-adv-x="561" 
d="M636 741l-3 -16c-12 2 -79 13 -170 13c-181 0 -279 -106 -325 -360l-2 -11c-10 -54 -15 -101 -15 -141c0 -155 70 -222 215 -222c83 0 143 9 173 13l-3 -16c-16 -3 -90 -13 -176 -13c-151 0 -225 76 -225 238c0 42 6 91 16 145l2 11c48 262 150 372 342 372
c90 0 160 -10 171 -13zM601 789h-20l-105 139l-155 -139h-22l171 154h14z" />
    <glyph glyph-name="Cdotaccent" unicode="&#x10a;" horiz-adv-x="561" 
d="M636 741l-3 -16c-12 2 -79 13 -170 13c-181 0 -279 -106 -325 -360l-2 -11c-10 -54 -15 -101 -15 -141c0 -155 70 -222 215 -222c83 0 143 9 173 13l-3 -16c-16 -3 -90 -13 -176 -13c-151 0 -225 76 -225 238c0 42 6 91 16 145l2 11c48 262 150 372 342 372
c90 0 160 -10 171 -13zM458 803h-16l22 122h16z" />
    <glyph glyph-name="Dcaron" unicode="&#x10e;" horiz-adv-x="629" 
d="M654 511c0 -39 -4 -83 -13 -132l-4 -22c-47 -268 -165 -369 -370 -369c-82 0 -134 7 -182 12l131 744c70 5 94 9 186 9c167 0 252 -70 252 -242zM638 510c0 167 -85 227 -239 227c-78 0 -124 -4 -170 -8l-126 -715c41 -4 98 -10 167 -10c186 0 304 91 351 356l4 22
c9 48 13 91 13 128zM330 943h20l106 -139l154 139h22l-171 -154h-14z" />
    <glyph glyph-name="Dcroat" unicode="&#x110;" horiz-adv-x="629" 
d="M654 511c0 -39 -4 -83 -13 -132l-4 -22c-49 -268 -165 -369 -370 -369c-82 0 -134 7 -182 12l67 382h-72l3 17h72l61 345c70 5 94 9 186 9c167 0 252 -70 252 -242zM638 510c0 167 -85 227 -239 227c-78 0 -124 -4 -170 -8l-58 -330h226l-3 -17h-226l-65 -368
c41 -4 98 -10 167 -10c186 0 303 91 351 356l4 22c9 48 13 91 13 128z" />
    <glyph glyph-name="Ebreve" unicode="&#x114;" horiz-adv-x="544" 
d="M620 743l-3 -16h-388l-58 -327h359l-3 -16h-359l-65 -369h388l-2 -15h-404l131 743h404zM609 947c-24 -89 -62 -159 -176 -159c-95 0 -122 53 -122 122c0 15 1 26 2 37h15c-1 -12 -2 -25 -2 -37c0 -60 21 -107 109 -107c104 0 138 68 158 144h16z" />
    <glyph glyph-name="Ecaron" unicode="&#x11a;" horiz-adv-x="544" 
d="M620 743l-3 -16h-388l-58 -327h359l-3 -16h-359l-65 -369h388l-2 -15h-404l131 743h404zM306 943h20l106 -139l154 139h22l-171 -154h-14z" />
    <glyph glyph-name="Edotaccent" unicode="&#x116;" horiz-adv-x="544" 
d="M620 743l-3 -16h-388l-58 -327h359l-3 -16h-359l-65 -369h388l-2 -15h-404l131 743h404zM429 803h-16l22 122h16z" />
    <glyph glyph-name="Emacron" unicode="&#x112;" horiz-adv-x="544" 
d="M620 743l-3 -16h-388l-58 -327h359l-3 -16h-359l-65 -369h388l-2 -15h-404l131 743h404zM613 851h-343l3 16h343z" />
    <glyph glyph-name="Eng" unicode="&#x14a;" horiz-adv-x="664" 
d="M710 743l-140 -792c-15 -85 -36 -151 -138 -151c-18 0 -40 2 -58 4l2 14c23 -1 40 -2 59 -2c88 0 105 54 119 135l8 46l-306 667c-9 20 -17 39 -26 59h-1c-4 -24 -9 -49 -13 -73l-114 -650h-17l131 743h22l305 -668c8 -17 15 -34 23 -51h1c4 21 5 33 9 54l118 665h16z
" />
    <glyph glyph-name="Eogonek" unicode="&#x118;" horiz-adv-x="544" 
d="M449 -208c-15 -4 -52 -9 -85 -9c-72 0 -97 29 -97 68c0 83 112 128 180 149h-362l131 743h404l-3 -16h-388l-58 -327h359l-3 -16h-359l-65 -369h388l-2 -15c-87 -27 -206 -66 -206 -149c0 -34 25 -53 84 -53c33 0 69 5 84 8z" />
    <glyph glyph-name="Gbreve" unicode="&#x11e;" horiz-adv-x="589" 
d="M654 742l-2 -16c-41 5 -108 12 -179 12c-174 0 -292 -94 -336 -360l-7 -42c-6 -38 -7 -68 -7 -96c0 -169 84 -236 229 -236c65 0 119 4 158 9l64 365h16l-66 -378c-56 -8 -108 -12 -175 -12c-155 0 -243 76 -243 251c0 29 2 61 9 101l7 43c45 277 170 371 353 371
c74 0 138 -6 179 -12zM644 946c-24 -89 -62 -159 -176 -159c-95 0 -122 53 -122 122c0 15 1 26 2 37h15c-1 -12 -2 -25 -2 -37c0 -60 21 -107 109 -107c104 0 138 68 158 144h16z" />
    <glyph glyph-name="Gcircumflex" unicode="&#x11c;" horiz-adv-x="589" 
d="M654 742l-2 -16c-41 5 -108 12 -179 12c-174 0 -292 -94 -336 -360l-7 -42c-6 -38 -7 -68 -7 -96c0 -169 84 -236 229 -236c65 0 119 4 158 9l64 365h16l-66 -378c-56 -8 -108 -12 -175 -12c-155 0 -243 76 -243 251c0 29 2 61 9 101l7 43c45 277 170 371 353 371
c74 0 138 -6 179 -12zM618 789h-20l-105 139l-155 -139h-22l171 154h14z" />
    <glyph glyph-name="Gcommaaccent" unicode="&#x122;" horiz-adv-x="589" 
d="M654 742l-2 -16c-41 5 -108 12 -179 12c-174 0 -292 -94 -336 -360l-7 -42c-6 -38 -7 -68 -7 -96c0 -169 84 -236 229 -236c65 0 119 4 158 9l64 365h16l-66 -378c-56 -8 -108 -12 -175 -12c-155 0 -243 76 -243 251c0 29 2 61 9 101l7 43c45 277 170 371 353 371
c74 0 138 -6 179 -12zM358 -68l-132 -140h-21l132 140h21z" />
    <glyph glyph-name="Gdotaccent" unicode="&#x120;" horiz-adv-x="589" 
d="M654 742l-2 -16c-41 5 -108 12 -179 12c-174 0 -292 -94 -336 -360l-7 -42c-6 -38 -7 -68 -7 -96c0 -169 84 -236 229 -236c65 0 119 4 158 9l64 365h16l-66 -378c-56 -8 -108 -12 -175 -12c-155 0 -243 76 -243 251c0 29 2 61 9 101l7 43c45 277 170 371 353 371
c74 0 138 -6 179 -12zM469 803h-16l22 122h16z" />
    <glyph glyph-name="Hbar" unicode="&#x126;" horiz-adv-x="671" 
d="M586 0h-16l69 393h-469l-69 -393h-16l100 571h-99l3 16h99l28 156h16l-28 -156h469l28 156h16l-28 -156h101l-3 -16h-101zM173 409h469l28 162h-469z" />
    <glyph glyph-name="Hcircumflex" unicode="&#x124;" horiz-adv-x="671" 
d="M717 743l-131 -743h-16l69 393h-469l-69 -393h-16l131 743h16l-59 -334h469l59 334h16zM621 789h-20l-105 139l-155 -139h-22l171 154h14z" />
    <glyph glyph-name="Ibreve" unicode="&#x12c;" 
d="M238 743l-131 -743h-17l131 743h17zM419 947c-24 -89 -62 -159 -176 -159c-95 0 -122 53 -122 122c0 15 1 26 2 37h15c-1 -12 -2 -25 -2 -37c0 -60 21 -107 109 -107c104 0 138 68 158 144h16z" />
    <glyph glyph-name="IJ" unicode="&#x132;" horiz-adv-x="459" 
d="M238 743l-131 -743h-17l131 743h17zM500 743l-140 -792c-15 -85 -36 -151 -138 -151c-18 0 -40 2 -58 4l2 14c23 -1 40 -2 59 -2c88 0 104 54 118 135l140 792h17z" />
    <glyph glyph-name="Imacron" unicode="&#x12a;" 
d="M238 743l-131 -743h-17l131 743h17zM429 851h-343l3 16h343z" />
    <glyph glyph-name="Iogonek" unicode="&#x12e;" 
d="M107 0c-60 -35 -114 -85 -114 -139c0 -44 25 -63 84 -63c33 0 69 5 84 8l-2 -14c-15 -4 -52 -9 -85 -9c-72 0 -97 29 -97 78c0 58 57 113 114 147l130 735h17z" />
    <glyph glyph-name="Itilde" unicode="&#x128;" 
d="M238 743l-131 -743h-17l131 743h17zM449 910c-14 -77 -33 -123 -92 -123c-35 0 -55 15 -79 50l-33 49c-23 33 -38 45 -66 45c-54 0 -65 -50 -75 -108l-6 -34h-16l6 34c13 77 32 123 92 123c35 0 53 -15 77 -49l34 -49c24 -34 37 -46 67 -46c53 0 64 50 75 108l6 33h16z
" />
    <glyph glyph-name="Jcircumflex" unicode="&#x134;" 
d="M238 743l-140 -792c-15 -85 -36 -151 -138 -151c-18 0 -40 2 -58 4l2 14c23 -1 40 -2 59 -2c88 0 104 54 118 135l140 792h17zM388 789h-20l-105 139l-155 -139h-22l171 154h14z" />
    <glyph glyph-name="Kcommaaccent" unicode="&#x136;" horiz-adv-x="535" 
d="M649 743l-457 -365l324 -378h-21l-323 376l-66 -376h-16l131 743h16l-64 -361l450 361h26zM284 -68l-132 -140h-21l132 140h21z" />
    <glyph glyph-name="Lacute" unicode="&#x139;" horiz-adv-x="508" 
d="M485 15l-2 -15h-398l131 743h16l-129 -728h382zM580 943l-169 -154h-20l168 154h21z" />
    <glyph glyph-name="Lcaron" unicode="&#x13d;" horiz-adv-x="508" 
d="M485 15l-2 -15h-398l131 743h16l-129 -728h382zM521 769l-104 -229h-17l101 229h20z" />
    <glyph glyph-name="Lcommaaccent" unicode="&#x13b;" horiz-adv-x="508" 
d="M485 15l-2 -15h-398l131 743h16l-129 -728h382zM291 -68l-132 -140h-21l132 140h21z" />
    <glyph glyph-name="Ldot" unicode="&#x13f;" horiz-adv-x="508" 
d="M485 15l-2 -15h-398l131 743h16l-129 -728h382zM357 349h-17l24 136h17z" />
    <glyph glyph-name="Nacute" unicode="&#x143;" horiz-adv-x="664" 
d="M710 743l-132 -746h-22l-300 667c-9 20 -17 39 -26 59h-1c-4 -24 -9 -49 -13 -73l-114 -650h-17l131 743h22l303 -676c8 -17 15 -34 23 -51h1c4 21 7 41 11 62l118 665h16zM640 943l-169 -154h-20l168 154h21z" />
    <glyph glyph-name="Ncaron" unicode="&#x147;" horiz-adv-x="664" 
d="M710 743l-132 -746h-22l-300 667c-9 20 -17 39 -26 59h-1c-4 -24 -9 -49 -13 -73l-114 -650h-17l131 743h22l303 -676c8 -17 15 -34 23 -51h1c4 21 7 41 11 62l118 665h16zM353 943h20l106 -139l154 139h22l-171 -154h-14z" />
    <glyph glyph-name="Ncommaaccent" unicode="&#x145;" horiz-adv-x="664" 
d="M710 743l-132 -746h-22l-300 667c-9 20 -17 39 -26 59h-1c-4 -24 -9 -49 -13 -73l-114 -650h-17l131 743h22l303 -676c8 -17 15 -34 23 -51h1c4 21 7 41 11 62l118 665h16zM332 -68l-132 -140h-21l132 140h21z" />
    <glyph glyph-name="Obreve" unicode="&#x14e;" horiz-adv-x="648" 
d="M672 516c-1 -40 -4 -86 -14 -139l-4 -21c-49 -281 -171 -368 -332 -368c-130 0 -216 63 -216 238c0 39 4 87 14 140l4 21c50 283 169 367 332 367c132 0 216 -64 216 -238zM656 515c0 173 -85 223 -202 223c-148 0 -266 -75 -315 -356l-4 -21c-10 -51 -13 -96 -13 -134
c0 -172 84 -223 202 -223c145 0 266 76 315 357l4 21c10 51 12 95 13 133zM653 946c-24 -89 -62 -159 -176 -159c-95 0 -122 53 -122 122c0 15 1 26 2 37h15c-1 -12 -2 -25 -2 -37c0 -60 21 -107 109 -107c104 0 138 68 158 144h16z" />
    <glyph glyph-name="Ohungarumlaut" unicode="&#x150;" horiz-adv-x="648" 
d="M672 516c-1 -40 -4 -86 -14 -139l-4 -21c-49 -281 -171 -368 -332 -368c-130 0 -216 63 -216 238c0 39 4 87 14 140l4 21c50 283 169 367 332 367c132 0 216 -64 216 -238zM656 515c0 173 -85 223 -202 223c-148 0 -266 -75 -315 -356l-4 -21c-10 -51 -13 -96 -13 -134
c0 -172 84 -223 202 -223c145 0 266 76 315 357l4 21c10 51 12 95 13 133zM711 945l-169 -154h-20l168 154h21zM510 945h21l-169 -154h-20z" />
    <glyph glyph-name="Omacron" unicode="&#x14c;" horiz-adv-x="648" 
d="M672 516c-1 -40 -4 -86 -14 -139l-4 -21c-49 -281 -171 -368 -332 -368c-130 0 -216 63 -216 238c0 39 4 87 14 140l4 21c50 283 169 367 332 367c132 0 216 -64 216 -238zM656 515c0 173 -85 223 -202 223c-148 0 -266 -75 -315 -356l-4 -21c-10 -51 -13 -96 -13 -134
c0 -172 84 -223 202 -223c145 0 266 76 315 357l4 21c10 51 12 95 13 133zM653 851h-343l3 16h343z" />
    <glyph glyph-name="Oslashacute" unicode="&#x1fe;" horiz-adv-x="648" 
d="M654 356c-49 -281 -171 -368 -332 -368c-75 0 -135 20 -172 71l-50 -59h-21l61 73c-22 37 -34 87 -34 153c0 39 4 87 14 140l4 21c50 283 169 367 332 367c84 0 148 -26 184 -90l67 79h21l-80 -94c15 -35 24 -78 24 -133c0 -40 -4 -87 -14 -139zM122 227
c0 -62 10 -108 29 -141l478 564c-34 66 -98 88 -175 88c-148 0 -266 -75 -315 -356l-4 -21c-10 -51 -13 -96 -13 -134zM639 361l4 21c9 51 13 95 13 133c0 49 -7 89 -20 120l-476 -564c36 -50 94 -67 164 -67c145 0 266 76 315 357zM646 943l-169 -154h-20l168 154h21z" />
    <glyph glyph-name="Racute" unicode="&#x154;" horiz-adv-x="591" 
d="M611 604c0 -138 -64 -244 -215 -270l150 -334h-17l-148 332c-23 -3 -48 -5 -74 -5c-55 0 -94 1 -152 4l-58 -331h-17l131 745c59 5 107 9 176 9c168 0 224 -50 224 -150zM595 604c0 94 -57 134 -210 134c-69 0 -126 -5 -160 -8l-67 -384c59 -3 98 -4 152 -4
c170 0 254 66 278 196c6 32 7 50 7 66zM582 943l-169 -154h-20l168 154h21z" />
    <glyph glyph-name="Rcaron" unicode="&#x158;" horiz-adv-x="591" 
d="M611 604c0 -138 -64 -244 -215 -270l150 -334h-17l-148 332c-23 -3 -48 -5 -74 -5c-55 0 -94 1 -152 4l-58 -331h-17l131 745c59 5 107 9 176 9c168 0 224 -50 224 -150zM595 604c0 94 -57 134 -210 134c-69 0 -126 -5 -160 -8l-67 -384c59 -3 98 -4 152 -4
c170 0 254 66 278 196c6 32 7 50 7 66zM327 942h20l106 -139l154 139h22l-171 -154h-14z" />
    <glyph glyph-name="Rcommaaccent" unicode="&#x156;" horiz-adv-x="591" 
d="M611 604c0 -138 -64 -244 -215 -270l150 -334h-17l-148 332c-23 -3 -48 -5 -74 -5c-55 0 -94 1 -152 4l-58 -331h-17l131 745c59 5 107 9 176 9c168 0 224 -50 224 -150zM595 604c0 94 -57 134 -210 134c-69 0 -126 -5 -160 -8l-67 -384c59 -3 98 -4 152 -4
c170 0 254 66 278 196c6 32 7 50 7 66zM274 -68l-132 -140h-21l132 140h21z" />
    <glyph glyph-name="Sacute" unicode="&#x15a;" horiz-adv-x="546" 
d="M599 741l-2 -15c-37 5 -119 13 -190 13c-101 0 -233 -27 -233 -163c0 -74 59 -111 141 -159l43 -25c113 -66 167 -101 167 -194c0 -149 -102 -210 -265 -210c-81 0 -148 6 -190 13l2 15c30 -4 110 -12 191 -12c138 0 244 45 244 194c0 87 -53 118 -159 180l-44 26
c-82 48 -146 91 -146 170c0 145 129 180 251 180c72 0 140 -6 190 -13zM577 943l-169 -154h-20l168 154h21z" />
    <glyph glyph-name="Scedilla" unicode="&#x15e;" horiz-adv-x="546" 
d="M599 741l-2 -15c-37 5 -119 13 -190 13c-101 0 -233 -27 -233 -163c0 -74 59 -111 141 -159l43 -25c113 -66 167 -101 167 -194c0 -149 -102 -210 -265 -210c-81 0 -148 6 -190 13l2 15c30 -4 110 -12 191 -12c138 0 244 45 244 194c0 87 -53 118 -159 180l-44 26
c-82 48 -146 91 -146 170c0 145 129 180 251 180c72 0 140 -6 190 -13zM292 -68l-156 -140h-21l156 140h21z" />
    <glyph glyph-name="Scircumflex" unicode="&#x15c;" horiz-adv-x="546" 
d="M599 741l-2 -15c-37 5 -119 13 -190 13c-101 0 -233 -27 -233 -163c0 -74 59 -111 141 -159l43 -25c113 -66 167 -101 167 -194c0 -149 -102 -210 -265 -210c-81 0 -148 6 -190 13l2 15c30 -4 110 -12 191 -12c138 0 244 45 244 194c0 87 -53 118 -159 180l-44 26
c-82 48 -146 91 -146 170c0 145 129 180 251 180c72 0 140 -6 190 -13zM566 789h-20l-105 139l-155 -139h-22l171 154h14z" />
    <glyph glyph-name="Scommaaccent" unicode="&#x218;" horiz-adv-x="546" 
d="M599 741l-2 -15c-37 5 -119 13 -190 13c-101 0 -233 -27 -233 -163c0 -74 59 -111 141 -159l43 -25c113 -66 167 -101 167 -194c0 -149 -102 -210 -265 -210c-81 0 -148 6 -190 13l2 15c30 -4 110 -12 191 -12c138 0 244 45 244 194c0 87 -53 118 -159 180l-44 26
c-82 48 -146 91 -146 170c0 145 129 180 251 180c72 0 140 -6 190 -13zM286 -68l-132 -140h-21l132 140h21z" />
    <glyph glyph-name="Tbar" unicode="&#x166;" horiz-adv-x="604" 
d="M608 420h-224l-74 -420h-17l74 420h-223l3 16h223l51 291h-263l3 16h544l-3 -16h-264l-51 -291h224z" />
    <glyph glyph-name="Tcaron" unicode="&#x164;" horiz-adv-x="604" 
d="M705 743l-3 -16h-264l-128 -727h-17l128 727h-263l3 16h544zM313 942h20l106 -139l154 139h22l-171 -154h-14z" />
    <glyph glyph-name="Tcedilla" unicode="&#x162;" horiz-adv-x="604" 
d="M702 727h-264l-128 -727h-17l128 727h-263l3 16h544zM327 -68l-132 -140h-21l132 140h21z" />
    <glyph glyph-name="Tcommaaccent" unicode="&#x21a;" horiz-adv-x="604" 
d="M705 743l-3 -16h-264l-128 -727h-17l128 727h-263l3 16h544zM326 -68l-132 -140h-21l132 140h21z" />
    <glyph glyph-name="Ubreve" unicode="&#x16c;" horiz-adv-x="650" 
d="M701 743l-73 -409c-41 -229 -115 -343 -305 -343c-145 0 -199 73 -199 209c0 42 6 90 16 144l71 399h16l-72 -404c-10 -54 -15 -101 -15 -141c0 -129 53 -191 186 -191c182 0 247 115 286 332l72 404h17zM637 937c-24 -89 -62 -159 -176 -159c-95 0 -122 53 -122 122
c0 15 1 26 2 37h15c-1 -12 -2 -25 -2 -37c0 -60 21 -107 109 -107c104 0 138 68 158 144h16z" />
    <glyph glyph-name="Uhungarumlaut" unicode="&#x170;" horiz-adv-x="650" 
d="M701 743l-73 -409c-41 -229 -115 -343 -305 -343c-145 0 -199 73 -199 209c0 42 6 90 16 144l71 399h16l-72 -404c-10 -54 -15 -101 -15 -141c0 -129 53 -191 186 -191c182 0 247 115 286 332l72 404h17zM722 943l-169 -154h-20l168 154h21zM521 943h21l-169 -154h-20z
" />
    <glyph glyph-name="Umacron" unicode="&#x16a;" horiz-adv-x="650" 
d="M701 743l-73 -409c-41 -229 -115 -343 -305 -343c-145 0 -199 73 -199 209c0 42 6 90 16 144l71 399h16l-72 -404c-10 -54 -15 -101 -15 -141c0 -129 53 -191 186 -191c182 0 247 115 286 332l72 404h17zM647 851h-343l3 16h343z" />
    <glyph glyph-name="Uogonek" unicode="&#x172;" horiz-adv-x="650" 
d="M406 0c-87 -27 -205 -66 -205 -146c0 -42 28 -56 87 -56c33 0 66 5 81 8l-2 -14c-15 -4 -49 -9 -82 -9c-72 0 -100 24 -100 71c0 71 83 113 152 137h-14c-145 0 -199 73 -199 209c0 42 7 90 16 144l71 399h16l-72 -404c-10 -54 -15 -101 -15 -141
c0 -129 53 -191 186 -191c182 0 248 115 286 332l72 404h17l-73 -409c-34 -192 -93 -303 -222 -334z" />
    <glyph glyph-name="Uring" unicode="&#x16e;" horiz-adv-x="650" 
d="M701 743l-73 -409c-41 -229 -115 -343 -305 -343c-145 0 -199 73 -199 209c0 42 6 90 16 144l71 399h16l-72 -404c-10 -54 -15 -101 -15 -141c0 -129 53 -191 186 -191c182 0 247 115 286 332l72 404h17zM578 867c0 -71 -47 -106 -111 -106s-112 35 -112 106
c0 70 48 105 112 105s111 -35 111 -105zM562 867c0 69 -47 90 -95 90c-49 0 -96 -21 -96 -90c0 -70 47 -91 96 -91c48 0 95 21 95 91z" />
    <glyph glyph-name="Utilde" unicode="&#x168;" horiz-adv-x="650" 
d="M701 743l-73 -409c-41 -229 -115 -343 -305 -343c-145 0 -199 73 -199 209c0 42 6 90 16 144l71 399h16l-72 -404c-10 -54 -15 -101 -15 -141c0 -129 53 -191 186 -191c182 0 247 115 286 332l72 404h17zM663 910c-14 -77 -33 -123 -92 -123c-35 0 -55 15 -79 50l-33 49
c-23 33 -38 45 -66 45c-54 0 -65 -50 -75 -108l-6 -34h-16l6 34c13 77 32 123 92 123c35 0 53 -15 77 -49l34 -49c24 -34 37 -46 67 -46c53 0 64 50 75 108l6 33h16z" />
    <glyph glyph-name="Wacute" unicode="&#x1e82;" horiz-adv-x="852" 
d="M938 743l-302 -743h-26l-68 556c-3 19 -5 37 -8 56h-2c-9 -19 -17 -37 -26 -56l-264 -556h-26l-40 743h17l35 -671c1 -18 2 -40 3 -58h1c8 18 19 40 27 58l262 555h30l66 -556c3 -19 4 -38 7 -57h1c7 19 16 38 23 57l272 672h18zM737 943l-169 -154h-20l168 154h21z" />
    <glyph glyph-name="Wcircumflex" unicode="&#x174;" horiz-adv-x="852" 
d="M938 743l-302 -743h-26l-68 556c-3 19 -5 37 -8 56h-2c-9 -19 -17 -37 -26 -56l-264 -556h-26l-40 743h17l35 -671c1 -18 2 -40 3 -58h1c8 18 19 40 27 58l262 555h30l66 -556c3 -19 4 -38 7 -57h1c7 19 16 38 23 57l272 672h18zM705 789h-20l-105 139l-155 -139h-22
l171 154h14z" />
    <glyph glyph-name="Wdieresis" unicode="&#x1e84;" horiz-adv-x="852" 
d="M938 743l-302 -743h-26l-68 556c-3 19 -5 37 -8 56h-2c-9 -19 -17 -37 -26 -56l-264 -556h-26l-40 743h17l35 -671c1 -18 2 -40 3 -58h1c8 18 19 40 27 58l262 555h30l66 -556c3 -19 4 -38 7 -57h1c7 19 16 38 23 57l272 672h18zM713 926l-22 -121h-17l22 121h17z
M465 926h17l-22 -121h-17z" />
    <glyph glyph-name="Wgrave" unicode="&#x1e80;" horiz-adv-x="852" 
d="M938 743l-302 -743h-26l-68 556c-3 19 -5 37 -8 56h-2c-9 -19 -17 -37 -26 -56l-264 -556h-26l-40 743h17l35 -671c1 -18 2 -40 3 -58h1c8 18 19 40 27 58l262 555h30l66 -556c3 -19 4 -38 7 -57h1c7 19 16 38 23 57l272 672h18zM619 789h-20l-115 154h20z" />
    <glyph glyph-name="Ycircumflex" unicode="&#x176;" horiz-adv-x="548" 
d="M639 743l-302 -432l-54 -311h-17l54 311l-149 432h19l125 -365c5 -16 11 -31 16 -47h1c11 15 21 31 32 46l255 366h20zM558 789h-20l-105 139l-155 -139h-22l171 154h14z" />
    <glyph glyph-name="Ygrave" unicode="&#x1ef2;" horiz-adv-x="548" 
d="M639 743l-302 -432l-54 -311h-17l54 311l-149 432h19l125 -365c5 -16 11 -31 16 -47h1c11 15 21 31 32 46l255 366h20zM442 789h-20l-115 154h20z" />
    <glyph glyph-name="Zacute" unicode="&#x179;" horiz-adv-x="563" 
d="M647 743l-3 -16l-590 -712h481l-2 -15h-503l2 15l591 712h-445l3 16h466zM593 943l-169 -154h-20l168 154h21z" />
    <glyph glyph-name="Zdotaccent" unicode="&#x17b;" horiz-adv-x="563" 
d="M647 743l-3 -16l-590 -712h481l-2 -15h-503l2 15l591 712h-445l3 16h466zM425 803h-16l22 122h16z" />
    <glyph glyph-name="Idotaccent" unicode="&#x130;" 
d="M238 743l-131 -743h-17l131 743h17zM248 803h-16l22 122h16z" />
    <glyph glyph-name="abreve" unicode="&#x103;" horiz-adv-x="520" 
d="M435 0h-16l6 38c-42 -20 -110 -50 -184 -50c-107 0 -151 68 -151 176c0 30 3 62 10 97l3 16c36 194 109 266 263 266c38 0 88 -1 162 -10zM428 54l82 466c-66 6 -115 7 -147 7c-140 0 -209 -66 -244 -253l-3 -16c-6 -34 -9 -65 -9 -93c0 -109 42 -162 138 -162
c70 0 138 30 183 51zM549 774c-24 -89 -62 -159 -176 -159c-95 0 -122 53 -122 122c0 15 1 26 2 37h15c-1 -12 -2 -25 -2 -37c0 -60 21 -107 109 -107c104 0 138 68 158 144h16z" />
    <glyph glyph-name="amacron" unicode="&#x101;" horiz-adv-x="520" 
d="M435 0h-16l6 38c-42 -20 -110 -50 -184 -50c-107 0 -151 68 -151 176c0 30 3 62 10 97l3 16c36 194 109 266 263 266c38 0 88 -1 162 -10zM428 54l82 466c-66 6 -115 7 -147 7c-140 0 -209 -66 -244 -253l-3 -16c-6 -34 -9 -65 -9 -93c0 -109 42 -162 138 -162
c70 0 138 30 183 51zM548 682h-343l3 16h343z" />
    <glyph glyph-name="aogonek" unicode="&#x105;" horiz-adv-x="520" 
d="M395 -208c-15 -4 -49 -9 -82 -9c-72 0 -100 24 -100 71c0 82 126 128 207 153l5 31c-42 -20 -110 -50 -184 -50c-107 0 -151 68 -151 176c0 30 4 62 10 97l3 16c34 195 111 266 263 266c38 0 88 -1 162 -10l-93 -533c-76 -24 -206 -66 -206 -146c0 -42 28 -56 87 -56
c33 0 66 5 81 8zM428 54l82 466c-66 6 -115 7 -147 7c-138 0 -211 -65 -244 -253l-3 -16c-6 -34 -9 -65 -9 -93c0 -109 42 -162 138 -162c70 0 138 30 183 51z" />
    <glyph glyph-name="aringacute" unicode="&#x1fb;" horiz-adv-x="520" 
d="M435 0h-16l6 38c-42 -20 -110 -50 -184 -50c-107 0 -151 68 -151 176c0 30 3 62 10 97l3 16c36 194 109 266 263 266c38 0 88 -1 162 -10zM428 54l82 466c-66 6 -115 7 -147 7c-140 0 -209 -66 -244 -253l-3 -16c-6 -34 -9 -65 -9 -93c0 -109 42 -162 138 -162
c70 0 138 30 183 51zM504 685c0 -71 -47 -106 -111 -106s-112 35 -112 106c0 70 48 105 112 105s111 -35 111 -105zM488 685c0 69 -47 90 -95 90c-49 0 -96 -21 -96 -90c0 -70 47 -91 96 -91c48 0 95 21 95 91zM588 978l-169 -154h-20l168 154h21z" />
    <glyph glyph-name="aeacute" unicode="&#x1fd;" horiz-adv-x="880" 
d="M889 368c0 -23 -2 -48 -12 -105h-405l-16 -89c-11 -63 -12 -72 -12 -84c0 -72 74 -86 194 -86c56 0 137 7 180 14l-3 -14c-42 -7 -114 -16 -177 -16c-114 0 -187 8 -209 77c-62 -47 -138 -77 -225 -77c-81 0 -128 41 -128 114c0 11 1 30 8 63c22 110 89 142 261 142h118
l10 58c4 25 7 47 7 65c0 74 -40 97 -154 97c-29 0 -88 -3 -144 -8l3 15c60 7 117 9 144 9c147 0 167 -45 167 -127c35 75 110 127 220 127c127 0 173 -75 173 -175zM872 368c0 98 -45 159 -159 159c-144 0 -211 -94 -229 -197l-9 -51h389c7 49 8 70 8 89zM460 292h-114
c-158 0 -224 -25 -245 -129c-7 -34 -8 -51 -8 -61c0 -67 42 -99 116 -99c78 0 157 36 214 77zM716 770l-169 -154h-20l168 154h21z" />
    <glyph glyph-name="cacute" unicode="&#x107;" horiz-adv-x="443" 
d="M491 531l-3 -16c-64 11 -108 12 -130 12c-131 0 -203 -51 -239 -255l-2 -13c-7 -42 -12 -76 -12 -105c0 -122 51 -151 161 -151c28 0 65 3 134 12l-2 -14c-71 -11 -106 -13 -135 -13c-115 0 -174 35 -174 159c0 32 5 70 12 116l2 13c37 212 116 267 258 267
c32 0 66 -2 130 -12zM535 770l-169 -154h-20l168 154h21z" />
    <glyph glyph-name="ccaron" unicode="&#x10d;" horiz-adv-x="443" 
d="M491 531l-3 -16c-64 11 -108 12 -130 12c-131 0 -203 -51 -239 -255l-2 -13c-7 -42 -12 -76 -12 -105c0 -122 51 -151 161 -151c28 0 65 3 134 12l-2 -14c-71 -11 -106 -13 -135 -13c-115 0 -174 35 -174 159c0 32 5 70 12 116l2 13c37 212 116 267 258 267
c32 0 66 -2 130 -12zM251 770h20l106 -139l154 139h22l-171 -154h-14z" />
    <glyph glyph-name="ccircumflex" unicode="&#x109;" horiz-adv-x="443" 
d="M491 531l-3 -16c-64 11 -108 12 -130 12c-131 0 -203 -51 -239 -255l-2 -13c-7 -42 -12 -76 -12 -105c0 -122 51 -151 161 -151c28 0 65 3 134 12l-2 -14c-71 -11 -106 -13 -135 -13c-115 0 -174 35 -174 159c0 32 5 70 12 116l2 13c37 212 116 267 258 267
c32 0 66 -2 130 -12zM523 616h-20l-105 139l-155 -139h-22l171 154h14z" />
    <glyph glyph-name="cdotaccent" unicode="&#x10b;" horiz-adv-x="443" 
d="M491 531l-3 -16c-64 11 -108 12 -130 12c-131 0 -203 -51 -239 -255l-2 -13c-7 -42 -12 -76 -12 -105c0 -122 51 -151 161 -151c28 0 65 3 134 12l-2 -14c-71 -11 -106 -13 -135 -13c-115 0 -174 35 -174 159c0 32 5 70 12 116l2 13c37 212 116 267 258 267
c32 0 66 -2 130 -12zM380 645h-16l22 122h16z" />
    <glyph glyph-name="dcaron" unicode="&#x10f;" horiz-adv-x="636" 
d="M572 770l-136 -770h-16l6 38c-41 -20 -109 -50 -183 -50c-105 0 -153 48 -153 161c0 33 4 71 12 115l2 12c35 196 112 267 271 267c25 0 66 0 139 -8l41 235h17zM511 520c-65 6 -114 7 -139 7c-146 0 -218 -64 -252 -255l-2 -12c-8 -44 -12 -81 -12 -112
c0 -106 46 -144 140 -144c71 0 139 30 183 51zM751 770l-104 -229h-17l101 229h20z" />
    <glyph glyph-name="dcroat" unicode="&#x111;" horiz-adv-x="521" 
d="M555 770h17l-17 -93h89l-3 -17h-89l-116 -660h-16l6 38c-41 -20 -109 -50 -183 -50c-105 0 -153 48 -153 161c0 33 4 71 12 115l2 12c35 196 112 267 271 267c25 0 66 0 139 -8l22 125h-187l3 17h187zM429 55l82 465c-65 6 -114 7 -139 7c-146 0 -218 -64 -252 -255
l-2 -12c-8 -44 -12 -81 -12 -112c0 -106 46 -144 140 -144c71 0 139 30 183 51z" />
    <glyph glyph-name="ebreve" unicode="&#x115;" horiz-adv-x="519" 
d="M528 369c0 -23 -3 -56 -11 -106h-399l-3 -15c-6 -32 -8 -59 -8 -84c0 -120 62 -160 179 -160c56 0 130 8 176 14l-3 -14c-42 -7 -114 -16 -176 -16c-131 0 -191 54 -191 174c0 27 2 58 9 93l6 32c30 163 95 256 251 256c120 0 170 -64 170 -174zM512 369
c0 105 -47 158 -156 158c-147 0 -207 -89 -234 -241l-1 -7h382c6 38 9 67 9 90zM558 773c-24 -89 -62 -159 -176 -159c-95 0 -122 53 -122 122c0 15 1 26 2 37h15c-1 -12 -2 -25 -2 -37c0 -60 21 -107 109 -107c104 0 138 68 158 144h16z" />
    <glyph glyph-name="ecaron" unicode="&#x11b;" horiz-adv-x="519" 
d="M528 369c0 -23 -3 -56 -11 -106h-399l-3 -15c-6 -32 -8 -59 -8 -84c0 -120 62 -160 179 -160c56 0 130 8 176 14l-3 -14c-42 -7 -114 -16 -176 -16c-131 0 -191 54 -191 174c0 27 2 58 9 93l6 32c30 163 95 256 251 256c120 0 170 -64 170 -174zM512 369
c0 105 -47 158 -156 158c-147 0 -207 -89 -234 -241l-1 -7h382c6 38 9 67 9 90zM265 770h20l106 -139l154 139h22l-171 -154h-14z" />
    <glyph glyph-name="edotaccent" unicode="&#x117;" horiz-adv-x="519" 
d="M528 369c0 -23 -3 -56 -11 -106h-399l-3 -15c-6 -32 -8 -59 -8 -84c0 -120 62 -160 179 -160c56 0 130 8 176 14l-3 -14c-42 -7 -114 -16 -176 -16c-131 0 -191 54 -191 174c0 27 2 58 9 93l6 32c30 163 95 256 251 256c120 0 170 -64 170 -174zM512 369
c0 105 -47 158 -156 158c-147 0 -207 -89 -234 -241l-1 -7h382c6 38 9 67 9 90zM383 645h-16l22 122h16z" />
    <glyph glyph-name="emacron" unicode="&#x113;" horiz-adv-x="519" 
d="M528 369c0 -23 -3 -56 -11 -106h-399l-3 -15c-6 -32 -8 -59 -8 -84c0 -120 62 -160 179 -160c56 0 130 8 176 14l-3 -14c-42 -7 -114 -16 -176 -16c-131 0 -191 54 -191 174c0 27 2 58 9 93l6 32c30 163 95 256 251 256c120 0 170 -64 170 -174zM512 369
c0 105 -47 158 -156 158c-147 0 -207 -89 -234 -241l-1 -7h382c6 38 9 67 9 90zM569 682h-343l3 16h343z" />
    <glyph glyph-name="eng" unicode="&#x14b;" horiz-adv-x="549" 
d="M526 328l-74 -416c-14 -79 -35 -124 -109 -124c-13 0 -33 0 -61 4l2 14c32 -3 49 -3 59 -3c61 0 79 32 93 109l74 419c5 30 8 57 8 79c0 87 -37 117 -127 117c-68 0 -143 -28 -207 -60l-82 -467h-17l93 529h17l-8 -45c59 29 132 59 207 59c100 0 141 -41 141 -131
c0 -24 -4 -53 -9 -84z" />
    <glyph glyph-name="eogonek" unicode="&#x119;" horiz-adv-x="519" 
d="M517 263h-399l-3 -15c-6 -32 -8 -59 -8 -84c0 -120 62 -160 179 -160c56 0 130 8 176 14l-3 -14c-87 -27 -207 -70 -207 -150c0 -42 28 -56 87 -56c33 0 66 5 81 8l-2 -14c-15 -4 -49 -9 -82 -9c-72 0 -100 24 -100 71c0 71 83 116 153 141c-34 -4 -72 -7 -106 -7
c-131 0 -191 54 -191 174c0 27 3 58 9 93l6 32c29 163 96 256 251 256c120 0 170 -64 170 -174c0 -23 -3 -56 -11 -106zM503 279c6 38 9 67 9 90c0 105 -47 158 -156 158c-147 0 -207 -89 -234 -241l-1 -7h382z" />
    <glyph glyph-name="gbreve" unicode="&#x11f;" horiz-adv-x="523" 
d="M531 529l-93 -528c-28 -161 -80 -213 -237 -213c-56 0 -98 3 -166 10l3 15c52 -5 112 -10 162 -10c145 0 194 42 222 198l4 25c-37 -14 -103 -38 -177 -38c-110 0 -161 50 -161 155c0 27 4 57 10 91l13 71c33 179 109 237 264 237c30 0 83 -3 156 -13zM512 515
c-60 8 -110 11 -135 11c-148 0 -218 -51 -250 -225l-13 -71c-6 -33 -9 -62 -9 -87c0 -99 48 -140 145 -140c74 0 135 23 179 39zM554 773c-24 -89 -62 -159 -176 -159c-95 0 -122 53 -122 122c0 15 1 26 2 37h15c-1 -12 -2 -25 -2 -37c0 -60 21 -107 109 -107
c104 0 138 68 158 144h16z" />
    <glyph glyph-name="gcircumflex" unicode="&#x11d;" horiz-adv-x="523" 
d="M531 529l-93 -528c-28 -161 -80 -213 -237 -213c-56 0 -98 3 -166 10l3 15c52 -5 112 -10 162 -10c145 0 194 42 222 198l4 25c-37 -14 -103 -38 -177 -38c-110 0 -161 50 -161 155c0 27 4 57 10 91l13 71c33 179 109 237 264 237c30 0 83 -3 156 -13zM512 515
c-60 8 -110 11 -135 11c-148 0 -218 -51 -250 -225l-13 -71c-6 -33 -9 -62 -9 -87c0 -99 48 -140 145 -140c74 0 135 23 179 39zM519 616h-20l-105 139l-155 -139h-22l171 154h14z" />
    <glyph glyph-name="gcommaaccent" unicode="&#x123;" horiz-adv-x="523" 
d="M531 529l-93 -528c-28 -161 -80 -213 -237 -213c-56 0 -98 3 -166 10l3 15c52 -5 112 -10 162 -10c145 0 194 42 222 198l4 25c-37 -14 -103 -38 -177 -38c-110 0 -161 50 -161 155c0 27 4 57 10 91l13 71c33 179 109 237 264 237c30 0 83 -3 156 -13zM512 515
c-60 8 -110 11 -135 11c-148 0 -218 -51 -250 -225l-13 -71c-6 -33 -9 -62 -9 -87c0 -99 48 -140 145 -140c74 0 135 23 179 39zM365 616l132 140h21l-132 -140h-21z" />
    <glyph glyph-name="gdotaccent" unicode="&#x121;" horiz-adv-x="523" 
d="M531 529l-93 -528c-28 -161 -80 -213 -237 -213c-56 0 -98 3 -166 10l3 15c52 -5 112 -10 162 -10c145 0 194 42 222 198l4 25c-37 -14 -103 -38 -177 -38c-110 0 -161 50 -161 155c0 27 4 57 10 91l13 71c33 179 109 237 264 237c30 0 83 -3 156 -13zM512 515
c-60 8 -110 11 -135 11c-148 0 -218 -51 -250 -225l-13 -71c-6 -33 -9 -62 -9 -87c0 -99 48 -140 145 -140c74 0 135 23 179 39zM389 645h-16l22 122h16z" />
    <glyph glyph-name="hbar" unicode="&#x127;" horiz-adv-x="549" 
d="M101 0h-17l117 661h-75l3 17h75l16 92h17l-16 -92h222l-3 -17h-222l-31 -177c58 27 130 60 209 60c102 0 139 -48 139 -132c0 -25 -4 -53 -9 -84l-58 -328h-16l58 331c5 29 9 56 9 81c0 70 -27 116 -124 116c-72 0 -150 -31 -211 -61z" />
    <glyph glyph-name="hcircumflex" unicode="&#x125;" horiz-adv-x="549" 
d="M535 412c0 -25 -4 -53 -9 -84l-58 -328h-16l58 331c5 29 9 56 9 81c0 70 -27 116 -124 116c-72 0 -150 -31 -211 -61l-83 -467h-17l136 770h17l-50 -286c58 27 130 60 209 60c102 0 139 -48 139 -132zM580 789h-20l-105 139l-155 -139h-22l171 154h14z" />
    <glyph glyph-name="ibreve" unicode="&#x12d;" 
d="M388 773c-24 -89 -62 -159 -176 -159c-95 0 -122 53 -122 122c0 15 1 26 2 37h15c-1 -12 -2 -25 -2 -37c0 -60 21 -107 109 -107c104 0 138 68 158 144h16zM107 0h-17l93 529h17z" />
    <glyph glyph-name="ij" unicode="&#x133;" horiz-adv-x="393" 
d="M200 529l-93 -529h-17l93 529h17zM242 770l-22 -127h-17l22 127h17zM396 529l-109 -617c-14 -79 -36 -124 -110 -124c-13 0 -33 0 -61 4l2 14c32 -3 49 -3 59 -3c61 0 79 32 93 109l109 617h17zM438 770l-22 -129h-17l22 129h17z" />
    <glyph glyph-name="imacron" unicode="&#x12b;" 
d="M388 682h-343l3 16h343zM107 0h-17l93 529h17z" />
    <glyph glyph-name="iogonek" unicode="&#x12f;" 
d="M107 0c-59 -35 -109 -84 -109 -136c0 -46 26 -66 86 -66c35 0 68 5 83 8l-2 -14c-15 -4 -49 -9 -82 -9c-72 0 -101 28 -101 81c0 57 53 110 109 145l92 520h17zM220 643h-17l22 127h17z" />
    <glyph glyph-name="itilde" unicode="&#x129;" 
d="M410 740c-14 -77 -33 -123 -92 -123c-35 0 -55 15 -79 50l-33 49c-23 33 -38 45 -66 45c-54 0 -65 -50 -75 -108l-6 -34h-16l6 34c13 77 32 123 92 123c35 0 53 -15 77 -49l34 -49c24 -34 37 -46 67 -46c53 0 64 50 75 108l6 33h16zM107 0h-17l93 529h17z" />
    <glyph glyph-name="jcircumflex" unicode="&#x135;" 
d="M91 -88c-14 -79 -36 -124 -110 -124c-13 0 -33 0 -61 4l2 14c32 -3 49 -3 59 -3c61 0 79 32 93 109l109 617h17zM360 616h-20l-105 139l-155 -139h-22l171 154h14z" />
    <glyph glyph-name="kcommaaccent" unicode="&#x137;" horiz-adv-x="416" 
d="M502 529l-327 -251l231 -278h-23l-231 278l-49 -278h-18l136 770h17l-86 -488l322 247h28zM237 -68l-132 -140h-21l132 140h21z" />
    <glyph glyph-name="lacute" unicode="&#x13a;" horiz-adv-x="187" 
d="M231 770l-135 -770h-17l135 770h17zM408 943l-169 -154h-20l168 154h21z" />
    <glyph glyph-name="lcaron" unicode="&#x13e;" horiz-adv-x="302" 
d="M231 770l-135 -770h-17l135 770h17zM416 770l-104 -229h-17l101 229h20z" />
    <glyph glyph-name="lcommaaccent" unicode="&#x13c;" horiz-adv-x="187" 
d="M231 770l-135 -770h-17l135 770h17zM113 -68l-132 -140h-21l132 140h21z" />
    <glyph glyph-name="ldot" unicode="&#x140;" horiz-adv-x="286" 
d="M231 770l-135 -770h-17l135 770h17zM309 301h-17l24 136h17z" />
    <glyph glyph-name="nacute" unicode="&#x144;" horiz-adv-x="549" 
d="M535 412c0 -24 -4 -53 -9 -84l-58 -328h-16l58 331c5 30 8 57 8 79c0 87 -37 117 -127 117c-68 0 -143 -28 -207 -60l-82 -467h-17l93 529h17l-8 -45c59 29 132 59 207 59c100 0 141 -41 141 -131zM560 770l-169 -154h-20l168 154h21z" />
    <glyph glyph-name="ncaron" unicode="&#x148;" horiz-adv-x="549" 
d="M535 412c0 -24 -4 -53 -9 -84l-58 -328h-16l58 331c5 30 8 57 8 79c0 87 -37 117 -127 117c-68 0 -143 -28 -207 -60l-82 -467h-17l93 529h17l-8 -45c59 29 132 59 207 59c100 0 141 -41 141 -131zM264 770h20l106 -139l154 139h22l-171 -154h-14z" />
    <glyph glyph-name="ncommaaccent" unicode="&#x146;" horiz-adv-x="549" 
d="M535 412c0 -24 -4 -53 -9 -84l-58 -328h-16l58 331c5 30 8 57 8 79c0 87 -37 117 -127 117c-68 0 -143 -28 -207 -60l-82 -467h-17l93 529h17l-8 -45c59 29 132 59 207 59c100 0 141 -41 141 -131zM285 -68l-132 -140h-21l132 140h21z" />
    <glyph glyph-name="obreve" unicode="&#x14f;" horiz-adv-x="534" 
d="M532 370c0 -30 -3 -64 -10 -102l-2 -12c-33 -184 -105 -268 -257 -268c-121 0 -171 58 -171 174c0 30 4 64 10 102l2 12c33 183 105 267 257 267c120 0 171 -58 171 -173zM516 371c0 109 -49 156 -158 156c-137 0 -206 -75 -238 -255l-2 -12c-7 -38 -10 -71 -10 -100
c0 -110 49 -157 158 -157c137 0 206 76 238 257l2 12c7 37 10 70 10 99zM557 773c-24 -89 -62 -159 -176 -159c-95 0 -122 53 -122 122c0 15 1 26 2 37h15c-1 -12 -2 -25 -2 -37c0 -60 21 -107 109 -107c104 0 138 68 158 144h16z" />
    <glyph glyph-name="ohungarumlaut" unicode="&#x151;" horiz-adv-x="534" 
d="M532 370c0 -30 -3 -64 -10 -102l-2 -12c-33 -184 -105 -268 -257 -268c-121 0 -171 58 -171 174c0 30 4 64 10 102l2 12c33 183 105 267 257 267c120 0 171 -58 171 -173zM516 371c0 109 -49 156 -158 156c-137 0 -206 -75 -238 -255l-2 -12c-7 -38 -10 -71 -10 -100
c0 -110 49 -157 158 -157c137 0 206 76 238 257l2 12c7 37 10 70 10 99zM645 770l-169 -154h-20l168 154h21zM444 770h21l-169 -154h-20z" />
    <glyph glyph-name="omacron" unicode="&#x14d;" horiz-adv-x="534" 
d="M532 370c0 -30 -3 -64 -10 -102l-2 -12c-33 -184 -105 -268 -257 -268c-121 0 -171 58 -171 174c0 30 4 64 10 102l2 12c33 183 105 267 257 267c120 0 171 -58 171 -173zM516 371c0 109 -49 156 -158 156c-137 0 -206 -75 -238 -255l-2 -12c-7 -38 -10 -71 -10 -100
c0 -110 49 -157 158 -157c137 0 206 76 238 257l2 12c7 37 10 70 10 99zM572 682h-343l3 16h343z" />
    <glyph glyph-name="oslashacute" unicode="&#x1ff;" horiz-adv-x="534" 
d="M551 770l-169 -154h-20l168 154h21zM520 256c-33 -184 -105 -268 -257 -268c-68 0 -114 18 -141 55l-63 -69h-21l76 82c-15 27 -22 62 -22 106c0 30 4 64 10 102l2 12c33 183 105 267 257 267c71 0 118 -21 144 -61l68 73h21l-81 -88c13 -26 19 -58 19 -97
c0 -30 -3 -64 -10 -102zM108 160c0 -38 5 -68 17 -91l369 400c-24 40 -69 58 -136 58c-137 0 -206 -75 -238 -255l-2 -12c-7 -38 -10 -71 -10 -100zM504 260l2 12c7 37 10 70 10 99c0 33 -5 61 -15 83l-368 -399c25 -36 69 -52 133 -52c137 0 206 76 238 257z" />
    <glyph glyph-name="racute" unicode="&#x155;" horiz-adv-x="332" 
d="M417 543l-3 -16c-36 0 -127 -2 -231 -57l-82 -470h-16l93 529h16l-8 -43c99 55 195 57 231 57zM482 770l-169 -154h-20l168 154h21z" />
    <glyph glyph-name="rcaron" unicode="&#x159;" horiz-adv-x="332" 
d="M417 543l-3 -16c-36 0 -127 -2 -231 -57l-82 -470h-16l93 529h16l-8 -43c99 55 195 57 231 57zM176 770h20l106 -139l154 139h22l-171 -154h-14z" />
    <glyph glyph-name="rcommaaccent" unicode="&#x157;" horiz-adv-x="332" 
d="M417 543l-3 -16c-36 0 -127 -2 -231 -57l-82 -470h-16l93 529h16l-8 -43c99 55 195 57 231 57zM175 -68l-132 -140h-21l132 140h21z" />
    <glyph glyph-name="sacute" unicode="&#x15b;" horiz-adv-x="451" 
d="M472 527l-3 -16c-35 8 -95 16 -142 16c-84 0 -187 -19 -187 -126c0 -55 42 -81 122 -112l34 -13c87 -33 130 -68 130 -132c0 -104 -89 -156 -206 -156c-67 0 -122 7 -162 18l3 15c38 -9 92 -18 160 -18c99 0 188 39 188 141c0 55 -35 85 -122 118l-34 13
c-82 31 -129 63 -129 126c0 112 103 141 206 141c52 0 107 -7 142 -15zM509 770l-169 -154h-20l168 154h21z" />
    <glyph glyph-name="scedilla" unicode="&#x15f;" horiz-adv-x="451" 
d="M472 527l-3 -16c-35 8 -95 16 -142 16c-84 0 -187 -19 -187 -126c0 -55 42 -81 122 -112l34 -13c87 -33 130 -68 130 -132c0 -104 -89 -156 -206 -156c-67 0 -122 7 -162 18l3 15c38 -9 92 -18 160 -18c99 0 188 39 188 141c0 55 -35 85 -122 118l-34 13
c-82 31 -129 63 -129 126c0 112 103 141 206 141c52 0 107 -7 142 -15zM247 -68l-156 -140h-21l156 140h21z" />
    <glyph glyph-name="scircumflex" unicode="&#x15d;" horiz-adv-x="451" 
d="M472 527l-3 -16c-35 8 -95 16 -142 16c-84 0 -187 -19 -187 -126c0 -55 42 -81 122 -112l34 -13c87 -33 130 -68 130 -132c0 -104 -89 -156 -206 -156c-67 0 -122 7 -162 18l3 15c38 -9 92 -18 160 -18c99 0 188 39 188 141c0 55 -35 85 -122 118l-34 13
c-82 31 -129 63 -129 126c0 112 103 141 206 141c52 0 107 -7 142 -15zM475 616h-20l-105 139l-155 -139h-22l171 154h14z" />
    <glyph glyph-name="scommaaccent" unicode="&#x219;" horiz-adv-x="451" 
d="M472 527l-3 -16c-35 8 -95 16 -142 16c-84 0 -187 -19 -187 -126c0 -55 42 -81 122 -112l34 -13c87 -33 130 -68 130 -132c0 -104 -89 -156 -206 -156c-67 0 -122 7 -162 18l3 15c38 -9 92 -18 160 -18c99 0 188 39 188 141c0 55 -35 85 -122 118l-34 13
c-82 31 -129 63 -129 126c0 112 103 141 206 141c52 0 107 -7 142 -15zM244 -68l-132 -140h-21l132 140h21z" />
    <glyph glyph-name="tbar" unicode="&#x167;" horiz-adv-x="351" 
d="M328 -5c-29 -5 -64 -7 -84 -7c-67 0 -89 22 -89 73c0 16 2 36 8 70l39 222h-130l3 16h130l25 144h-130l3 16h130l26 151h16l-26 -151h173l-3 -16h-173l-25 -144h173l-3 -16h-173l-40 -227c-6 -32 -7 -51 -7 -65c0 -44 19 -58 73 -58c14 0 47 1 86 6z" />
    <glyph glyph-name="tcaron" unicode="&#x165;" horiz-adv-x="351" 
d="M433 770l-82 -180h-16l79 180h19zM422 529l-3 -16h-173l-68 -387c-6 -32 -7 -51 -7 -65c0 -44 19 -58 73 -58c14 0 47 1 86 6l-2 -14c-29 -5 -64 -7 -84 -7c-67 0 -89 22 -89 73c0 16 2 36 8 70l67 382h-130l3 16h130l26 151h16l-26 -151h173z" />
    <glyph glyph-name="tcedilla" unicode="&#x163;" horiz-adv-x="351" 
d="M235 -68l-132 -140h-21l132 140h21zM422 529l-3 -16h-173l-68 -387c-6 -32 -7 -51 -7 -65c0 -44 19 -58 73 -58c14 0 47 1 86 6l-2 -14c-29 -5 -64 -7 -84 -7c-67 0 -89 22 -89 73c0 16 2 36 8 70l67 382h-130l3 16h130l26 151h16l-26 -151h173z" />
    <glyph glyph-name="tcommaaccent" unicode="&#x21b;" horiz-adv-x="351" 
d="M235 -68l-132 -140h-21l132 140h21zM422 529l-3 -16h-173l-68 -387c-6 -32 -7 -51 -7 -65c0 -44 19 -58 73 -58c14 0 47 1 86 6l-2 -14c-29 -5 -64 -7 -84 -7c-67 0 -89 22 -89 73c0 16 2 36 8 70l67 382h-130l3 16h130l26 151h16l-26 -151h173z" />
    <glyph glyph-name="ubreve" unicode="&#x16d;" horiz-adv-x="548" 
d="M556 529l-94 -529h-16l8 46c-56 -28 -125 -58 -208 -58c-99 0 -139 42 -139 131c0 25 3 54 9 87l57 323h16l-58 -329c-5 -27 -8 -51 -8 -72c0 -93 36 -125 126 -125c76 0 148 30 208 61l82 465h17zM567 773c-24 -89 -62 -159 -176 -159c-95 0 -122 53 -122 122
c0 15 1 26 2 37h15c-1 -12 -2 -25 -2 -37c0 -60 21 -107 109 -107c104 0 138 68 158 144h16z" />
    <glyph glyph-name="uhungarumlaut" unicode="&#x171;" horiz-adv-x="548" 
d="M556 529l-94 -529h-16l8 46c-56 -28 -125 -58 -208 -58c-99 0 -139 42 -139 131c0 25 3 54 9 87l57 323h16l-58 -329c-5 -27 -8 -51 -8 -72c0 -93 36 -125 126 -125c76 0 148 30 208 61l82 465h17zM638 770l-169 -154h-20l168 154h21zM437 770h21l-169 -154h-20z" />
    <glyph glyph-name="umacron" unicode="&#x16b;" horiz-adv-x="548" 
d="M556 529l-94 -529h-16l8 46c-56 -28 -125 -58 -208 -58c-99 0 -139 42 -139 131c0 25 3 54 9 87l57 323h16l-58 -329c-5 -27 -8 -51 -8 -72c0 -93 36 -125 126 -125c76 0 148 30 208 61l82 465h17zM570 682h-343l3 16h343z" />
    <glyph glyph-name="uogonek" unicode="&#x173;" horiz-adv-x="548" 
d="M173 529h16l-58 -329c-6 -31 -8 -58 -8 -81c0 -86 41 -116 126 -116c76 0 156 39 210 72l80 454h17l-94 -529c-87 -30 -197 -79 -197 -146c0 -42 28 -56 87 -56c33 0 66 5 81 8l-2 -14c-15 -4 -49 -9 -82 -9c-72 0 -100 24 -100 71c0 74 117 126 198 154l9 49
c-50 -28 -127 -69 -210 -69c-99 0 -139 42 -139 131c0 25 3 54 9 87z" />
    <glyph glyph-name="uring" unicode="&#x16f;" horiz-adv-x="548" 
d="M556 529l-94 -529h-16l8 46c-56 -28 -125 -58 -208 -58c-99 0 -139 42 -139 131c0 25 3 54 9 87l57 323h16l-58 -329c-5 -27 -8 -51 -8 -72c0 -93 36 -125 126 -125c76 0 148 30 208 61l82 465h17zM498 703c0 -71 -47 -106 -111 -106s-112 35 -112 106
c0 70 48 105 112 105s111 -35 111 -105zM482 703c0 69 -47 90 -95 90c-49 0 -96 -21 -96 -90c0 -70 47 -91 96 -91c48 0 95 21 95 91z" />
    <glyph glyph-name="utilde" unicode="&#x169;" horiz-adv-x="548" 
d="M556 529l-94 -529h-16l8 46c-56 -28 -125 -58 -208 -58c-99 0 -139 42 -139 131c0 25 3 54 9 87l57 323h16l-58 -329c-5 -27 -8 -51 -8 -72c0 -93 36 -125 126 -125c76 0 148 30 208 61l82 465h17zM581 740c-14 -77 -33 -123 -92 -123c-35 0 -55 15 -79 50l-33 49
c-23 33 -38 45 -66 45c-54 0 -65 -50 -75 -108l-6 -34h-16l6 34c13 77 32 123 92 123c35 0 53 -15 77 -49l34 -49c24 -34 37 -46 67 -46c53 0 64 50 75 108l6 33h16z" />
    <glyph glyph-name="wacute" unicode="&#x1e83;" horiz-adv-x="767" 
d="M828 529l-230 -529h-21l-93 415c-5 22 -10 43 -15 65h-2c-13 -22 -24 -43 -37 -65l-239 -415h-22l-46 529h17l35 -426c2 -28 5 -57 7 -85h3c16 28 33 57 49 85l224 393h24l87 -393c6 -28 13 -57 19 -85h3c12 28 23 56 35 84l184 427h18zM662 770l-169 -154h-20l168 154
h21z" />
    <glyph glyph-name="wcircumflex" unicode="&#x175;" horiz-adv-x="767" 
d="M828 529l-230 -529h-21l-93 415c-5 22 -10 43 -15 65h-2c-13 -22 -24 -43 -37 -65l-239 -415h-22l-46 529h17l35 -426c2 -28 5 -57 7 -85h3c16 28 33 57 49 85l224 393h24l87 -393c6 -28 13 -57 19 -85h3c12 28 23 56 35 84l184 427h18zM634 616h-20l-105 139l-155 -139
h-22l171 154h14z" />
    <glyph glyph-name="wdieresis" unicode="&#x1e85;" horiz-adv-x="767" 
d="M828 529l-230 -529h-21l-93 415c-5 22 -10 43 -15 65h-2c-13 -22 -24 -43 -37 -65l-239 -415h-22l-46 529h17l35 -426c2 -28 5 -57 7 -85h3c16 28 33 57 49 85l224 393h24l87 -393c6 -28 13 -57 19 -85h3c12 28 23 56 35 84l184 427h18zM631 760l-22 -121h-17l22 121h17z
M383 760h17l-22 -121h-17z" />
    <glyph glyph-name="wgrave" unicode="&#x1e81;" horiz-adv-x="767" 
d="M828 529l-230 -529h-21l-93 415c-5 22 -10 43 -15 65h-2c-13 -22 -24 -43 -37 -65l-239 -415h-22l-46 529h17l35 -426c2 -28 5 -57 7 -85h3c16 28 33 57 49 85l224 393h24l87 -393c6 -28 13 -57 19 -85h3c12 28 23 56 35 84l184 427h18zM534 616h-20l-115 154h20z" />
    <glyph glyph-name="ycircumflex" unicode="&#x177;" horiz-adv-x="461" 
d="M528 529l-302 -560c-79 -146 -109 -181 -210 -181c-18 0 -44 1 -70 3l2 16c32 -2 53 -3 71 -3c88 0 115 28 190 168l16 30l-112 527h18l90 -425c7 -35 10 -51 16 -76h4c13 25 21 40 40 75l229 426h18zM477 616h-20l-105 139l-155 -139h-22l171 154h14z" />
    <glyph glyph-name="ygrave" unicode="&#x1ef3;" horiz-adv-x="461" 
d="M528 529l-302 -560c-79 -146 -109 -181 -210 -181c-18 0 -44 1 -70 3l2 16c32 -2 53 -3 71 -3c88 0 115 28 190 168l16 30l-112 527h18l90 -425c7 -35 10 -51 16 -76h4c13 25 21 40 40 75l229 426h18zM372 616h-20l-115 154h20z" />
    <glyph glyph-name="zacute" unicode="&#x17a;" horiz-adv-x="462" 
d="M414 15l-2 -15h-367l2 15l431 498h-331l3 16h354l-3 -15l-432 -499h345zM517 770l-169 -154h-20l168 154h21z" />
    <glyph glyph-name="zdotaccent" unicode="&#x17c;" horiz-adv-x="462" 
d="M414 15l-2 -15h-367l2 15l431 498h-331l3 16h354l-3 -15l-432 -499h345zM351 645h-16l22 122h16z" />
    <glyph glyph-name="kgreenlandic" unicode="&#x138;" horiz-adv-x="416" 
d="M178 529h17l-43 -247l322 247h28l-327 -251l231 -278h-23l-231 278l-49 -278h-18z" />
    <glyph glyph-name="napostrophe" unicode="&#x149;" horiz-adv-x="549" 
d="M535 412c0 -24 -4 -53 -9 -84l-58 -328h-16l58 331c5 30 8 57 8 79c0 87 -37 117 -127 117c-68 0 -143 -28 -207 -60l-82 -467h-17l93 529h17l-8 -45c59 29 132 59 207 59c100 0 141 -41 141 -131zM177 770l-104 -229h-17l101 229h20z" />
    <glyph glyph-name="Delta" unicode="&#x2206;" horiz-adv-x="631" 
d="M596 0h-563l400 744h24zM575 16l-102 564c-9 51 -19 103 -28 154h-1c-27 -51 -55 -103 -82 -154l-302 -564h515z" />
    <glyph glyph-name="uni03A9" unicode="&#x3a9;" horiz-adv-x="626" 
d="M667 536c0 -39 -4 -72 -15 -139c-26 -147 -102 -245 -246 -297l-15 -84h176l-2 -16h-192l19 109c150 54 220 152 243 291c11 67 15 99 15 135c0 138 -75 206 -204 206c-155 0 -268 -98 -305 -310c-10 -58 -11 -87 -11 -111c0 -99 42 -167 148 -211l-19 -109h-192l2 16
h176l15 84c-100 42 -146 115 -146 221c0 25 1 55 11 113c40 223 157 322 324 322c142 0 218 -79 218 -220z" />
    <glyph glyph-name="uni03BC" unicode="&#x3bc;" horiz-adv-x="591" 
d="M580 529l-93 -529h-16l8 46c-56 -28 -126 -58 -209 -58c-85 0 -126 27 -137 90l-50 -286h-16l130 737h16l-58 -329c-6 -31 -9 -59 -9 -82c0 -86 42 -115 127 -115c76 0 149 30 209 61l82 465h16z" />
    <glyph glyph-name="pi" unicode="&#x3c0;" horiz-adv-x="578" 
d="M589 -14h-20c-79 0 -94 40 -94 142v384h-279v-512h-17v512h-99v17h510v-17h-99v-384c0 -97 13 -126 78 -126h20v-16z" />
    <glyph glyph-name="uni037E" unicode="&#x37e;" horiz-adv-x="227" 
d="M177 301h-17l24 136h17z" />
    <glyph glyph-name="exclamdbl" unicode="&#x203c;" horiz-adv-x="370" 
d="M283 0h-16l19 111h16zM418 770l-102 -582h-16l102 582h16zM104 0h-17l19 111h17zM239 770l-102 -582h-17l102 582h17z" />
    <glyph glyph-name="franc" unicode="&#x20a3;" horiz-adv-x="545" 
d="M122 0h-16l37 212h-67l3 16h67l91 515h404l-3 -16h-388l-58 -327h359l-3 -16h-359l-27 -156h160l-3 -16h-160z" />
    <glyph glyph-name="lira" unicode="&#x20a4;" horiz-adv-x="547" 
d="M632 739l-3 -15c-49 5 -107 9 -161 9c-161 0 -210 -52 -240 -218l-15 -87h283l-3 -16h-283l-20 -114h283l-3 -16h-283l-16 -93c-14 -79 -37 -123 -90 -173h423l-2 -16h-444l2 16c62 55 81 95 95 173l16 93h-91l3 16h91l20 114h-91l3 16h91l15 87c31 172 82 234 259 234
c57 0 110 -4 161 -10z" />
    <glyph glyph-name="peseta" unicode="&#x20a7;" horiz-adv-x="584" 
d="M700 553l-3 -16h-67c-25 -136 -111 -210 -297 -210c-41 0 -94 1 -152 4l-58 -331h-17l94 536h-74l3 16h74l34 192c36 3 98 10 176 10c160 0 224 -50 224 -150c0 -16 -2 -37 -4 -51h67zM621 603c0 95 -62 135 -210 135c-69 0 -126 -6 -160 -9l-67 -383
c59 -3 111 -4 147 -4c175 0 260 65 283 196c4 24 7 50 7 65z" />
    <glyph glyph-name="Euro" unicode="&#x20ac;" horiz-adv-x="577" 
d="M660 739l-3 -15c-30 4 -92 14 -170 14c-158 0 -250 -87 -302 -265h368l-7 -17h-366c-14 -48 -23 -104 -29 -165h322l-7 -16h-317c-1 -16 -2 -31 -2 -45c0 -152 64 -226 210 -226c78 0 144 10 176 14l-3 -15c-33 -5 -97 -15 -176 -15c-156 0 -224 85 -224 238
c0 16 1 32 2 49h-60l3 16h59c5 60 16 118 29 165h-59l3 17h61c54 186 151 281 321 281c79 0 140 -10 171 -15z" />
    <glyph glyph-name="litre" unicode="&#x2113;" horiz-adv-x="421" 
d="M454 30c-40 -31 -81 -48 -122 -48c-76 0 -111 42 -111 153v175c-32 -32 -68 -65 -104 -98l-10 13c40 36 79 72 114 108v257c0 121 17 198 117 198c82 0 108 -56 108 -120c0 -116 -67 -200 -209 -341v-192c0 -101 28 -137 95 -137c38 0 77 16 113 45zM429 668
c0 59 -19 105 -91 105c-90 0 -101 -77 -101 -183v-240c134 134 192 210 192 318z" />
    <glyph glyph-name="Omega" unicode="&#x2126;" horiz-adv-x="626" 
d="M667 536c0 -39 -4 -72 -15 -139c-26 -147 -102 -245 -246 -297l-15 -84h176l-2 -16h-192l19 109c150 54 220 152 243 291c11 67 15 99 15 135c0 138 -75 206 -204 206c-155 0 -268 -98 -305 -310c-10 -58 -11 -87 -11 -111c0 -99 42 -167 148 -211l-19 -109h-192l2 16
h176l15 84c-100 42 -146 115 -146 221c0 25 1 55 11 113c40 223 157 322 324 322c142 0 218 -79 218 -220z" />
    <glyph glyph-name="estimated" unicode="&#x212e;" horiz-adv-x="623" 
d="M670 282h-429v-193c42 -40 92 -63 152 -63c112 0 165 59 210 127l31 -19c-52 -81 -116 -141 -241 -141c-163 0 -271 133 -271 290c0 159 104 290 275 290c170 0 273 -134 273 -291zM550 315v163c-36 33 -95 62 -153 62c-60 0 -116 -21 -156 -62v-163h309z" />
    <glyph glyph-name="partialdiff" unicode="&#x2202;" horiz-adv-x="573" 
d="M598 445c0 -53 -4 -124 -19 -213c-24 -146 -114 -247 -252 -247c-135 0 -193 69 -193 203c0 52 8 110 32 160c34 72 99 129 213 129c82 0 192 -34 197 -168c6 60 6 103 6 136c0 212 -64 317 -255 317c-42 0 -87 -5 -128 -13v15c38 8 83 14 128 14
c196 0 271 -112 271 -333zM564 288c0 101 -58 171 -184 171c-104 0 -166 -50 -199 -119c-22 -45 -31 -99 -31 -152c0 -127 54 -186 177 -186c138 0 208 102 229 208c5 27 8 55 8 78z" />
    <glyph glyph-name="product" unicode="&#x220f;" horiz-adv-x="694" 
d="M751 727h-130v-793h-17v793h-345v-793h-17v793h-130v16h639v-16z" />
    <glyph glyph-name="summation" unicode="&#x2211;" horiz-adv-x="560" 
d="M574 -66h-421v15l271 390l-271 389v15h421v-16h-401l268 -383v-11l-268 -383h401v-16z" />
    <glyph glyph-name="uni2219" unicode="&#x2219;" horiz-adv-x="136" 
d="M130 301h-17l24 136h17z" />
    <glyph glyph-name="radical" unicode="&#x221a;" horiz-adv-x="764" 
d="M796 873l-323 -947h-24l-192 536h-122v17h134l192 -539l317 933h18z" />
    <glyph glyph-name="infinity" unicode="&#x221e;" horiz-adv-x="721" 
d="M692 370c0 -69 -7 -232 -133 -232h-4c-43 0 -95 28 -133 81c-19 -52 -48 -81 -99 -81h-5c-125 0 -129 165 -129 234v7c0 69 6 232 132 232h4c44 0 96 -28 133 -81c17 51 49 81 100 81h4c126 0 130 -165 130 -235v-6zM674 370v6c0 78 -8 218 -112 218h-4
c-81 0 -94 -79 -107 -214c-6 -57 -13 -106 -24 -143c38 -54 83 -83 128 -83h4c103 0 115 138 115 216zM453 511c-38 54 -83 83 -128 83h-4c-103 0 -115 -137 -115 -215v-7c0 -77 9 -218 112 -218h5c79 0 98 82 111 225c4 49 10 95 19 132z" />
    <glyph glyph-name="integral" unicode="&#x222b;" horiz-adv-x="480" 
d="M520 734c-19 2 -58 5 -78 5c-89 0 -110 -30 -110 -140v-656c0 -112 -23 -155 -126 -155c-21 0 -59 3 -79 6v14c20 -2 58 -5 79 -5c89 0 110 31 110 140v656c0 113 22 156 126 156c20 0 59 -3 78 -6v-15z" />
    <glyph glyph-name="approxequal" unicode="&#x2248;" horiz-adv-x="683" 
d="M627 559c0 -89 -11 -142 -80 -142c-43 0 -80 34 -110 66l-47 51c-35 37 -57 56 -91 56c-60 0 -66 -48 -66 -127v-36h-17v36c0 89 13 143 83 143c39 0 66 -22 104 -62l46 -49c33 -36 64 -62 98 -62c58 0 63 48 63 126v36h17v-36zM627 319c0 -89 -11 -142 -80 -142
c-43 0 -80 34 -110 66l-47 51c-35 37 -57 56 -91 56c-60 0 -66 -48 -66 -127v-36h-17v36c0 89 13 143 83 143c39 0 66 -22 104 -62l46 -49c33 -36 64 -62 98 -62c58 0 63 48 63 126v36h17v-36z" />
    <glyph glyph-name="notequal" unicode="&#x2260;" horiz-adv-x="683" 
d="M628 269h-236l-87 -269h-17l87 269h-160v17h165l71 215h-236v16h241l75 232h17l-75 -232h155v-16h-160l-71 -215h231v-17z" />
    <glyph glyph-name="lessequal" unicode="&#x2264;" horiz-adv-x="683" 
d="M650 0h-458v16h458v-16zM528 169h-24l-256 235l256 235h24l-255 -235z" />
    <glyph glyph-name="greaterequal" unicode="&#x2265;" horiz-adv-x="683" 
d="M651 0h-459v16h459v-16zM594 404l-255 -235h-24l255 235l-255 235h24z" />
    <glyph glyph-name="lozenge" unicode="&#x25ca;" horiz-adv-x="652" 
d="M634 361l-234 -299l-230 296l233 299zM610 361l-207 266l-210 -269l207 -265z" />
    <glyph glyph-name="uni00A0" unicode="&#xa0;" horiz-adv-x="220" 
 />
    <glyph glyph-name="uni00AD" unicode="&#xad;" horiz-adv-x="392" 
d="M365 277h-240l3 17h240z" />
    <glyph glyph-name="uni02C9" unicode="&#x2c9;" horiz-adv-x="439" 
d="M511 682h-343l3 16h343z" />
    <glyph glyph-name="Dotaccent" horiz-adv-x="378" 
d="M354 806h-16l21 123h16z" />
    <glyph glyph-name="Breve" horiz-adv-x="421" 
d="M526 945c-24 -89 -62 -159 -176 -159c-95 0 -122 53 -122 122c0 15 1 26 2 37h15c-1 -12 -2 -25 -2 -37c0 -60 21 -107 109 -107c104 0 138 68 158 144h16z" />
    <glyph glyph-name="Ogonek" horiz-adv-x="422" 
d="M298 -208c-15 -4 -49 -9 -82 -9c-72 0 -100 24 -100 71c0 83 115 127 187 148l35 -2c-87 -27 -206 -66 -206 -146c0 -42 28 -56 87 -56c33 0 66 5 81 8z" />
    <glyph glyph-name="Cedilla" horiz-adv-x="390" 
d="M221 -68l-156 -140h-21l156 140h21z" />
    <glyph glyph-name="Ring" horiz-adv-x="424" 
d="M395 773c0 -71 -50 -104 -113 -104s-113 32 -113 104s50 106 113 106s113 -34 113 -106zM379 773c0 72 -52 90 -97 90s-97 -18 -97 -90c0 -71 52 -89 97 -89s97 18 97 89z" />
    <glyph glyph-name="Tilde" horiz-adv-x="429" 
d="M546 931c-14 -77 -33 -123 -92 -123c-35 0 -55 15 -79 50l-33 49c-23 33 -38 45 -66 45c-54 0 -65 -50 -75 -108l-6 -34h-16l6 34c13 77 32 123 92 123c35 0 53 -15 77 -49l34 -49c24 -34 37 -46 67 -46c53 0 64 50 75 108l6 33h16z" />
    <glyph glyph-name="Circumflex" horiz-adv-x="446" 
d="M512 786h-21l-105 140l-154 -140h-23l172 154h13z" />
    <glyph glyph-name="Acute" horiz-adv-x="415" 
d="M494 940l-169 -154h-20l168 154h21z" />
    <glyph glyph-name="Caron" horiz-adv-x="446" 
d="M237 940h20l106 -139l154 139h22l-171 -154h-14z" />
    <glyph glyph-name="Dieresis" horiz-adv-x="410" 
d="M471 796h-17l21 121h17zM261 917l-21 -121h-17l21 121h17z" />
    <glyph glyph-name="Grave" horiz-adv-x="380" 
d="M365 790h-20l-115 154h21z" />
    <glyph glyph-name="Hungarumlaut" horiz-adv-x="432" 
d="M569 944l-169 -154h-20l168 154h21zM368 944h21l-169 -154h-20z" />
    <glyph glyph-name="Macron" horiz-adv-x="439" 
d="M544 871h-343l3 16h343z" />
    <glyph glyph-name="commaaccent.cap" horiz-adv-x="422" 
d="M216 -68l-132 -140h-21l132 140h21z" />
    <glyph glyph-name="h.superior" horiz-adv-x="346" 
d="M202 778h15l-30 -171c31 16 71 33 111 33c56 0 78 -23 78 -74c0 -15 -1 -28 -5 -52l-37 -209h-15l37 210c4 24 5 37 5 51c0 46 -20 59 -65 59c-37 0 -79 -16 -112 -33l-51 -287h-15z" />
    <glyph glyph-name="zero.slash" horiz-adv-x="614" 
d="M602 340c-46 -263 -157 -352 -299 -352c-77 0 -134 25 -165 89l-64 -77h-22l79 95c-20 55 -23 135 -3 245l11 62c47 263 156 352 299 352c77 0 135 -27 165 -92l68 81h22l-82 -99c19 -55 21 -134 2 -242zM145 340c-18 -102 -16 -176 0 -228l445 534
c-27 67 -84 92 -154 92c-127 0 -234 -78 -280 -336zM585 340l11 62c18 101 17 174 1 226l-445 -535c28 -66 83 -90 154 -90c126 0 234 79 279 337z" />
    <glyph glyph-name="percent.oldstyle" unicode="&#xfe6a;" horiz-adv-x="893" 
d="M706 529l-402 -529h-20l403 529h19zM393 342c-24 -137 -87 -187 -168 -187c-71 0 -113 37 -113 125c0 19 2 42 8 75c24 135 85 187 171 187c68 0 111 -36 111 -124c0 -19 -3 -43 -9 -76zM377 343c6 34 8 56 8 74c0 81 -38 109 -97 109c-73 0 -128 -43 -151 -173
c-6 -34 -8 -56 -8 -74c0 -80 38 -108 97 -108c72 0 128 43 151 172zM876 175c-24 -137 -87 -187 -168 -187c-71 0 -113 37 -113 125c0 19 2 42 8 75c24 135 85 187 171 187c68 0 111 -36 111 -124c0 -19 -3 -43 -9 -76zM860 176c6 34 8 56 8 74c0 81 -38 109 -97 109
c-73 0 -128 -43 -151 -173c-6 -34 -8 -56 -8 -74c0 -80 38 -108 97 -108c72 0 128 43 151 172z" />
    <glyph glyph-name="perthousand.oldstyle" horiz-adv-x="1237" 
d="M706 529l-402 -529h-20l403 529h19zM393 342c-24 -137 -87 -187 -168 -187c-71 0 -113 37 -113 125c0 19 2 42 8 75c24 135 85 187 171 187c68 0 111 -36 111 -124c0 -19 -3 -43 -9 -76zM377 343c6 34 8 56 8 74c0 81 -38 109 -97 109c-73 0 -128 -43 -151 -173
c-6 -34 -8 -56 -8 -74c0 -80 38 -108 97 -108c72 0 128 43 151 172zM876 175c-24 -137 -87 -187 -168 -187c-71 0 -113 37 -113 125c0 19 2 42 8 75c24 135 85 187 171 187c68 0 111 -36 111 -124c0 -19 -3 -43 -9 -76zM860 176c6 34 8 56 8 74c0 81 -38 109 -97 109
c-73 0 -128 -43 -151 -173c-6 -34 -8 -56 -8 -74c0 -80 38 -108 97 -108c72 0 128 43 151 172zM1218 174c-24 -137 -87 -187 -168 -187c-71 0 -113 37 -113 125c0 19 2 42 8 75c24 135 85 187 171 187c68 0 111 -36 111 -124c0 -19 -3 -43 -9 -76zM1202 175c6 34 8 56 8 74
c0 81 -38 109 -97 109c-73 0 -128 -43 -151 -173c-6 -34 -8 -56 -8 -74c0 -80 38 -108 97 -108c72 0 128 43 151 172z" />
    <glyph glyph-name="zero.taboldstyle" horiz-adv-x="613" 
d="M585 248c-30 -171 -140 -260 -282 -260c-122 0 -195 71 -195 199c0 22 1 44 6 69l7 38c31 171 139 260 282 260c122 0 196 -71 196 -199c0 -22 -3 -44 -7 -69zM570 252l7 38c4 24 6 46 6 67c0 124 -74 181 -182 181c-128 0 -233 -77 -264 -248l-7 -38
c-5 -25 -6 -47 -6 -68c0 -124 73 -181 182 -181c127 0 232 75 264 249z" />
    <glyph glyph-name="one.taboldstyle" horiz-adv-x="613" 
d="M505 0h-350l2 15h167l91 517l-176 -51l3 18l176 51h16l-94 -535h167z" />
    <glyph glyph-name="two.taboldstyle" horiz-adv-x="613" 
d="M189 521l2 14c53 10 136 19 193 19c143 0 212 -41 212 -128c0 -144 -144 -224 -339 -334l-135 -76h398l-2 -16h-429l2 16l154 87c183 104 335 184 335 320c0 85 -70 115 -198 115c-55 0 -137 -8 -193 -17z" />
    <glyph glyph-name="three.taboldstyle" horiz-adv-x="613" 
d="M57 -202l3 14c36 -4 125 -9 180 -9c181 0 236 73 258 184c10 50 12 67 12 84c0 56 -25 111 -137 111h-228l3 16h228c143 0 174 83 188 159c6 32 7 46 7 60c0 80 -51 121 -201 121c-67 0 -146 -5 -184 -10l3 15c28 5 117 11 183 11c158 0 216 -50 216 -137
c0 -16 -2 -32 -8 -64c-14 -78 -47 -145 -150 -164c75 -15 96 -65 96 -117c0 -18 -2 -37 -12 -90c-22 -120 -90 -194 -277 -194c-66 0 -153 6 -180 10z" />
    <glyph glyph-name="four.taboldstyle" horiz-adv-x="613" 
d="M403 -203h-17l40 228h-377l3 16l462 509h21l-89 -509h131l-3 -16h-131zM429 41l86 490l-442 -490h356z" />
    <glyph glyph-name="five.taboldstyle" horiz-adv-x="613" 
d="M75 -193l3 15c39 -6 107 -15 193 -15c184 0 240 72 262 198c7 40 8 57 8 75c0 106 -85 131 -221 131h-156l90 333h358l-3 -16h-342l-81 -301h137c145 0 234 -31 234 -147c0 -20 0 -38 -8 -79c-26 -136 -91 -210 -281 -210c-86 0 -165 10 -193 16z" />
    <glyph glyph-name="six.taboldstyle" horiz-adv-x="613" 
d="M659 737l-2 -14c-36 6 -124 16 -194 16c-189 0 -257 -84 -288 -255l-13 -72c84 21 171 31 230 31c115 0 210 -34 210 -154c0 -205 -117 -301 -285 -301c-127 0 -202 63 -202 209c0 29 3 61 11 106l32 181c31 175 103 270 305 270c77 0 171 -11 196 -17zM160 397l-18 -101
c-8 -44 -11 -74 -11 -99c0 -140 70 -193 188 -193c139 0 225 61 256 198c8 35 10 61 10 87c0 113 -85 138 -193 138c-63 0 -149 -8 -232 -30z" />
    <glyph glyph-name="seven.taboldstyle" horiz-adv-x="613" 
d="M182 528l2 16h437l-3 -16l-466 -731h-20l466 731h-416z" />
    <glyph glyph-name="eight.taboldstyle" horiz-adv-x="613" 
d="M598 200c-27 -151 -101 -212 -280 -212h-8c-150 0 -209 52 -209 156c0 131 50 224 156 245c-67 16 -90 65 -90 124c0 16 1 34 6 59c22 127 93 181 272 181h7c153 0 212 -47 212 -140c0 -106 -43 -202 -152 -224c67 -14 93 -59 93 -123c0 -17 -2 -36 -7 -66zM582 205
c5 29 7 47 7 63c0 64 -29 113 -125 113h-160c-152 0 -187 -130 -187 -237c0 -101 60 -141 196 -141h8c161 0 235 54 261 202zM642 558c3 20 6 42 6 56c0 87 -59 124 -198 124h-7c-162 0 -234 -50 -255 -172c-4 -24 -6 -40 -6 -55c0 -61 28 -114 125 -114h160
c121 0 162 82 175 161z" />
    <glyph glyph-name="nine.taboldstyle" horiz-adv-x="613" 
d="M63 -195l3 15c36 -6 120 -17 193 -17c189 0 257 84 288 255l13 72c-84 -21 -171 -31 -230 -31c-115 0 -210 34 -210 154c0 205 117 301 285 301c127 0 202 -63 202 -209c0 -29 -3 -61 -11 -106l-32 -181c-31 -175 -103 -270 -305 -270c-77 0 -171 11 -196 17zM562 145
l18 101c8 44 11 74 11 99c0 140 -70 193 -188 193c-139 0 -225 -61 -256 -198c-8 -35 -10 -61 -10 -87c0 -113 85 -138 193 -138c63 0 149 8 232 30z" />
    <glyph glyph-name="colonmonetary.taboldstyle" horiz-adv-x="443" 
d="M497 531l-3 -16c-38 6 -76 12 -131 12c-130 0 -205 -66 -233 -225l-13 -73c-6 -31 -8 -59 -8 -83c0 -104 53 -143 162 -143c28 0 65 3 135 12l-2 -14c-40 -6 -70 -10 -92 -11l-21 -115h-16l21 114c-20 -1 -23 -1 -33 -1c-22 0 -40 2 -57 5l-21 -118h-17l22 123
c-66 18 -97 66 -97 148c0 26 2 54 8 86l13 73c23 130 78 203 170 229l23 128h17l-22 -125c18 4 45 6 64 6h27l21 119h16l-21 -120c30 -2 50 -4 88 -11z" />
    <glyph glyph-name="Euro.taboldstyle" horiz-adv-x="455" 
d="M499 530l-3 -15c-62 9 -103 12 -131 12c-110 0 -178 -49 -220 -182h252l-5 -16h-251c-12 -41 -18 -78 -21 -119h226l-6 -16h-221c-1 -11 -1 -22 -1 -32c0 -120 49 -159 155 -159c28 0 70 3 135 12l-2 -14c-61 -10 -106 -13 -136 -13c-121 0 -170 52 -170 173
c0 10 0 22 1 33h-51l3 16h49c3 41 10 81 21 119h-49l2 16h52c43 141 117 198 240 198c30 0 74 -3 131 -13z" />
    <glyph glyph-name="florin.taboldstyle" horiz-adv-x="579" 
d="M591 595l-2 -14c-19 1 -56 4 -78 4c-88 0 -123 -27 -145 -139l-28 -143h190l-4 -16h-190l-57 -269c-25 -116 -61 -155 -164 -155c-20 0 -57 3 -76 6l4 14c25 -2 56 -4 76 -4c88 0 119 30 143 139l58 269h-154l4 16h154l28 143c23 117 61 155 164 155c21 0 61 -3 77 -6z
" />
    <glyph glyph-name="numbersign.taboldstyle" horiz-adv-x="491" 
d="M475 182h-102l-50 -182h-18l50 182h-172l-50 -182h-18l50 182h-67l2 16h70l59 216h-91l3 16h93l52 187h17l-52 -187h173l52 187h17l-52 -187h77l-3 -16h-79l-60 -216h101zM419 414h-173l-60 -216h174z" />
    <glyph glyph-name="sterling.taboldstyle" horiz-adv-x="458" 
d="M506 533l-2 -15c-37 5 -93 8 -125 8c-119 0 -165 -45 -190 -188l-11 -62h229l-2 -15h-229l-18 -102c-12 -68 -26 -101 -69 -143h326l-2 -16h-346l2 16c52 48 60 77 72 143l18 102h-71l2 15h71l11 62c28 153 77 204 210 204c37 0 91 -3 124 -9z" />
    <glyph glyph-name="yen.taboldstyle" horiz-adv-x="465" 
d="M240 0h-16l37 211h-194l3 16h191l-37 102h-136l2 16h127l-65 184h19l82 -231c9 -25 14 -40 19 -58h1c14 20 27 39 41 59l163 230h20l-131 -184h132l-2 -16h-140l-74 -102h196l-3 -16h-198z" />
    <glyph glyph-name="dollar.taboldstyle" horiz-adv-x="455" 
d="M64 5l3 15c35 -7 94 -17 161 -17c101 0 184 51 184 143c0 60 -38 79 -124 122l-29 14c-81 40 -128 65 -128 128c0 96 95 130 192 131l21 122h16l-21 -121c51 -1 102 -8 132 -14l-3 -15c-32 6 -85 14 -137 14c-84 0 -184 -22 -184 -116c0 -54 43 -76 123 -116l29 -15
c86 -44 129 -65 129 -134c0 -96 -83 -156 -193 -157l-20 -113h-16l19 112c-59 1 -109 7 -154 17z" />
    <glyph glyph-name="cent.taboldstyle" horiz-adv-x="444" 
d="M491 531l-3 -16c-58 8 -97 12 -130 12c-131 0 -205 -66 -233 -225l-13 -73c-6 -31 -8 -59 -8 -83c0 -104 53 -143 162 -143c28 0 65 3 134 12l-2 -14c-67 -10 -100 -12 -129 -13l-20 -113h-16l20 113c-113 3 -166 50 -166 158c0 25 3 55 9 87l13 73
c28 161 105 233 242 237l21 119h16l-21 -119c28 -1 61 -2 124 -12z" />
    <glyph glyph-name="zero.denominator" horiz-adv-x="400" 
d="M411 313c0 -21 -2 -45 -7 -72l-11 -58c-27 -141 -87 -190 -180 -190c-74 0 -120 38 -120 128c0 20 2 42 7 68l11 58c26 140 89 190 181 190c77 0 119 -36 119 -124zM394 311c0 83 -40 110 -105 110c-76 0 -136 -41 -161 -177l-11 -59c-5 -24 -6 -45 -6 -63
c0 -85 43 -113 105 -113c74 0 135 41 160 176l11 59c5 26 7 48 7 67z" />
    <glyph glyph-name="one.denominator" horiz-adv-x="300" 
d="M283 0h-238l3 14h109l71 401l-116 -38l3 15l115 38h16l-73 -416h113z" />
    <glyph glyph-name="two.denominator" horiz-adv-x="374" 
d="M147 412l3 15c33 6 75 10 115 10c86 0 133 -22 133 -83c0 -74 -66 -114 -146 -151c-125 -58 -148 -85 -165 -183l-1 -5h245l-2 -15h-261l3 20c19 105 45 135 174 195c61 28 137 63 137 138c0 55 -43 69 -120 69c-35 0 -80 -4 -115 -10z" />
    <glyph glyph-name="three.denominator" horiz-adv-x="368" 
d="M390 358c0 -8 -1 -21 -3 -31c-10 -49 -32 -90 -94 -103c48 -9 60 -38 60 -72c0 -10 -1 -24 -5 -41c-17 -78 -58 -118 -173 -118c-44 0 -92 5 -107 8l2 15c21 -3 65 -8 105 -8c103 0 141 30 158 106c4 17 5 29 5 39c0 37 -17 64 -86 64h-133l2 15h133c88 0 110 52 118 100
c2 12 2 18 2 25c0 48 -36 65 -124 65c-33 0 -85 -5 -109 -8l2 15c24 3 71 8 111 8c93 0 136 -21 136 -79z" />
    <glyph glyph-name="four.denominator" horiz-adv-x="421" 
d="M307 0h-16l22 130h-225l3 15l272 285h19l-50 -285h76l-3 -15h-76zM316 145l47 266l-252 -266h205z" />
    <glyph glyph-name="five.denominator" horiz-adv-x="375" 
d="M391 430l-2 -15h-205l-44 -163h83c86 0 139 -22 139 -88c0 -14 -1 -24 -4 -41c-17 -93 -67 -130 -182 -130c-48 0 -86 4 -108 9l3 15c26 -4 61 -9 108 -9c108 0 148 35 163 118c3 16 4 26 4 38c0 60 -48 73 -126 73h-101l52 193h220z" />
    <glyph glyph-name="six.denominator" horiz-adv-x="402" 
d="M420 428l-3 -16c-30 4 -70 9 -116 9c-109 0 -154 -53 -169 -144l-6 -37c54 12 101 16 136 16c75 0 127 -18 127 -86c0 -116 -63 -177 -172 -177c-83 0 -125 41 -125 119c0 18 1 33 4 50l21 115c19 105 69 160 187 160c45 0 85 -4 116 -9zM369 121c4 23 4 40 4 48
c0 59 -44 72 -114 72c-35 0 -81 -4 -136 -16l-12 -68c-3 -17 -4 -32 -4 -45c0 -78 46 -104 111 -104c80 0 137 34 151 113z" />
    <glyph glyph-name="seven.denominator" horiz-adv-x="360" 
d="M136 415l2 15h263l-2 -15l-283 -415h-18l284 415h-246z" />
    <glyph glyph-name="eight.denominator" horiz-adv-x="422" 
d="M403 111c-16 -90 -82 -118 -176 -118h-6c-87 0 -135 27 -135 94c0 73 30 125 94 139c-38 11 -55 43 -55 80c0 96 59 131 175 131h5c94 0 138 -27 138 -84s-34 -113 -93 -127c37 -9 57 -39 57 -77c0 -11 -1 -19 -4 -38zM387 114c3 19 4 26 4 35c0 37 -20 70 -81 70h-92
c-92 0 -117 -74 -117 -131c0 -59 45 -80 123 -80h6c88 0 143 27 157 106zM424 327c2 13 2 20 2 26c0 50 -41 69 -124 69h-5c-103 0 -156 -29 -156 -116c0 -38 19 -71 80 -71h92c72 0 102 47 111 92z" />
    <glyph glyph-name="nine.denominator" horiz-adv-x="402" 
d="M92 2l3 16c30 -4 70 -9 116 -9c109 0 154 53 169 144l6 37c-54 -12 -101 -16 -136 -16c-75 0 -127 18 -127 86c0 116 63 177 172 177c83 0 125 -41 125 -119c0 -18 -1 -33 -4 -50l-21 -115c-19 -105 -69 -160 -187 -160c-45 0 -85 4 -116 9zM143 309
c-4 -23 -4 -40 -4 -48c0 -59 44 -72 114 -72c35 0 81 4 136 16l12 68c3 17 4 32 4 45c0 78 -46 104 -111 104c-80 0 -137 -34 -151 -113z" />
    <glyph glyph-name="comma.denominator" horiz-adv-x="121" 
d="M114 76l-70 -145h-16l68 145h18z" />
    <glyph glyph-name="period.denominator" horiz-adv-x="93" 
d="M70 -11h-17l15 87h17z" />
    <glyph glyph-name="cent.denominator" horiz-adv-x="333" 
d="M308 0c-43 -6 -76 -7 -100 -7l-14 -80h-17l14 80c-72 4 -111 34 -111 118c0 21 2 45 9 82l10 53c24 132 78 176 169 181l14 78h17l-14 -78c24 0 56 -1 97 -7l-3 -16c-40 5 -75 6 -101 6c-88 0 -139 -36 -163 -167l-10 -54c-6 -35 -8 -57 -8 -77c0 -80 39 -102 110 -102
c26 0 62 1 103 6z" />
    <glyph glyph-name="dollar.denominator" horiz-adv-x="345" 
d="M67 4l3 15c30 -4 75 -9 115 -9c69 0 140 34 140 115c0 40 -27 59 -85 87l-40 19c-48 23 -86 50 -86 102c0 69 69 102 142 105l13 75h17l-13 -75c42 0 88 -4 108 -8l-2 -15c-25 3 -70 7 -113 7c-55 0 -134 -17 -134 -88c0 -45 32 -68 78 -89l38 -18c61 -29 94 -51 94 -103
c0 -81 -68 -124 -147 -129l-13 -73h-17l13 72c-37 1 -83 5 -111 10z" />
    <glyph glyph-name="hyphen.denominator" horiz-adv-x="264" 
d="M256 158h-162l3 17h162z" />
    <glyph glyph-name="parenleft.denominator" horiz-adv-x="187" 
d="M221 457c-85 -91 -142 -213 -142 -344c0 -81 21 -140 45 -182h-18c-21 40 -43 102 -43 182c0 124 50 250 139 344h19z" />
    <glyph glyph-name="parenright.denominator" horiz-adv-x="187" 
d="M152 276c0 -124 -50 -250 -139 -344h-19c85 91 142 213 142 344c0 81 -21 140 -45 182h18c21 -40 43 -102 43 -182z" />
    <glyph glyph-name="zero.numerator" horiz-adv-x="400" 
d="M452 630c0 -21 -2 -45 -7 -72l-11 -58c-27 -141 -87 -190 -180 -190c-74 0 -120 38 -120 128c0 20 2 42 7 68l11 58c26 140 89 190 181 190c77 0 119 -36 119 -124zM435 628c0 83 -40 110 -105 110c-76 0 -136 -41 -161 -177l-11 -59c-5 -24 -6 -45 -6 -63
c0 -85 43 -113 105 -113c74 0 135 41 160 176l11 59c5 26 7 48 7 67z" />
    <glyph glyph-name="one.numerator" horiz-adv-x="300" 
d="M324 317h-238l3 14h109l71 401l-116 -38l3 15l115 38h16l-73 -416h113z" />
    <glyph glyph-name="two.numerator" horiz-adv-x="374" 
d="M188 729l3 15c33 6 75 10 115 10c86 0 133 -22 133 -83c0 -74 -66 -114 -146 -151c-125 -58 -148 -85 -165 -183l-1 -5h245l-2 -15h-261l3 20c19 105 45 135 174 195c61 28 137 63 137 138c0 55 -43 69 -120 69c-35 0 -80 -4 -115 -10z" />
    <glyph glyph-name="three.numerator" horiz-adv-x="368" 
d="M431 675c0 -8 -1 -21 -3 -31c-10 -49 -32 -90 -94 -103c48 -9 60 -38 60 -72c0 -10 -1 -24 -5 -41c-17 -78 -58 -118 -173 -118c-44 0 -92 5 -107 8l2 15c21 -3 65 -8 105 -8c103 0 141 30 158 106c4 17 5 29 5 39c0 37 -17 64 -86 64h-133l2 15h133c88 0 110 52 118 100
c2 12 2 18 2 25c0 48 -36 65 -124 65c-33 0 -85 -5 -109 -8l2 15c24 3 71 8 111 8c93 0 136 -21 136 -79z" />
    <glyph glyph-name="four.numerator" horiz-adv-x="421" 
d="M348 317h-16l22 130h-225l3 15l272 285h19l-50 -285h76l-3 -15h-76zM357 462l47 266l-252 -266h205z" />
    <glyph glyph-name="five.numerator" horiz-adv-x="375" 
d="M432 747l-2 -15h-205l-44 -163h83c86 0 139 -22 139 -88c0 -14 -1 -24 -4 -41c-17 -93 -67 -130 -182 -130c-48 0 -86 4 -108 9l3 15c26 -4 61 -9 108 -9c108 0 148 35 163 118c3 16 4 26 4 38c0 60 -48 73 -126 73h-101l52 193h220z" />
    <glyph glyph-name="six.numerator" horiz-adv-x="402" 
d="M461 745l-3 -16c-30 4 -70 9 -116 9c-109 0 -154 -53 -169 -144l-6 -37c54 12 101 16 136 16c75 0 127 -18 127 -86c0 -116 -63 -177 -172 -177c-83 0 -125 41 -125 119c0 18 1 33 4 50l21 115c19 105 69 160 187 160c45 0 85 -4 116 -9zM410 438c4 23 4 40 4 48
c0 59 -44 72 -114 72c-35 0 -81 -4 -136 -16l-12 -68c-3 -17 -4 -32 -4 -45c0 -78 46 -104 111 -104c80 0 137 34 151 113z" />
    <glyph glyph-name="seven.numerator" horiz-adv-x="360" 
d="M177 732l2 15h263l-2 -15l-283 -415h-18l284 415h-246z" />
    <glyph glyph-name="eight.numerator" horiz-adv-x="422" 
d="M444 428c-16 -90 -82 -118 -176 -118h-6c-87 0 -135 27 -135 94c0 73 30 125 94 139c-38 11 -55 43 -55 80c0 96 59 131 175 131h5c94 0 138 -27 138 -84s-34 -113 -93 -127c37 -9 57 -39 57 -77c0 -11 -1 -19 -4 -38zM428 431c3 19 4 26 4 35c0 37 -20 70 -81 70h-92
c-92 0 -117 -74 -117 -131c0 -59 45 -80 123 -80h6c88 0 143 27 157 106zM465 644c2 13 2 20 2 26c0 50 -41 69 -124 69h-5c-103 0 -156 -29 -156 -116c0 -38 19 -71 80 -71h92c72 0 102 47 111 92z" />
    <glyph glyph-name="nine.numerator" horiz-adv-x="402" 
d="M133 319l3 16c30 -4 70 -9 116 -9c109 0 154 53 169 144l6 37c-54 -12 -101 -16 -136 -16c-75 0 -127 18 -127 86c0 116 63 177 172 177c83 0 125 -41 125 -119c0 -18 -1 -33 -4 -50l-21 -115c-19 -105 -69 -160 -187 -160c-45 0 -85 4 -116 9zM184 626
c-4 -23 -4 -40 -4 -48c0 -59 44 -72 114 -72c35 0 81 4 136 16l12 68c3 17 4 32 4 45c0 78 -46 104 -111 104c-80 0 -137 -34 -151 -113z" />
    <glyph glyph-name="comma.numerator" horiz-adv-x="121" 
d="M155 393l-70 -145h-16l68 145h18z" />
    <glyph glyph-name="period.numerator" horiz-adv-x="93" 
d="M111 306h-17l15 87h17z" />
    <glyph glyph-name="cent.numerator" horiz-adv-x="333" 
d="M349 317c-43 -6 -76 -7 -100 -7l-14 -80h-17l14 80c-72 4 -111 34 -111 118c0 21 2 45 9 82l10 53c24 132 78 176 169 181l14 78h17l-14 -78c24 0 56 -1 97 -7l-3 -16c-40 5 -75 6 -101 6c-88 0 -139 -36 -163 -167l-10 -54c-6 -35 -8 -57 -8 -77c0 -80 39 -102 110 -102
c26 0 62 1 103 6z" />
    <glyph glyph-name="dollar.numerator" horiz-adv-x="345" 
d="M108 321l3 15c30 -4 75 -9 115 -9c69 0 140 34 140 115c0 40 -27 59 -85 87l-40 19c-48 23 -86 50 -86 102c0 69 69 102 142 105l13 75h17l-13 -75c42 0 88 -4 108 -8l-2 -15c-25 3 -70 7 -113 7c-55 0 -134 -17 -134 -88c0 -45 32 -68 78 -89l38 -18
c61 -29 94 -51 94 -103c0 -81 -68 -124 -147 -129l-13 -73h-17l13 72c-37 1 -83 5 -111 10z" />
    <glyph glyph-name="hyphen.numerator" horiz-adv-x="264" 
d="M297 475h-162l3 17h162z" />
    <glyph glyph-name="parenleft.numerator" horiz-adv-x="187" 
d="M284 774c-85 -91 -142 -213 -142 -344c0 -81 21 -140 45 -182h-18c-21 40 -43 102 -43 182c0 124 50 250 139 344h19z" />
    <glyph glyph-name="parenright.numerator" horiz-adv-x="187" 
d="M237 593c0 -124 -50 -250 -139 -344h-19c85 91 142 213 142 344c0 81 -21 140 -45 182h18c21 -40 43 -102 43 -182z" />
    <glyph glyph-name="parenleft.cap" horiz-adv-x="237" 
d="M183 0h-17c-33 64 -54 149 -54 246c0 187 65 368 189 520h19c-119 -142 -191 -324 -191 -520c0 -96 21 -179 54 -246z" />
    <glyph glyph-name="parenright.cap" horiz-adv-x="237" 
d="M187 766h17c33 -64 54 -149 54 -246c0 -187 -65 -368 -189 -520h-19c119 142 191 324 191 520c0 96 -21 179 -54 246z" />
    <glyph glyph-name="bracketleft.cap" horiz-adv-x="336" 
d="M268 0h-165l131 743h165l-3 -16h-148l-126 -711h148z" />
    <glyph glyph-name="bracketright.cap" horiz-adv-x="336" 
d="M258 0h-165l2 16h148l126 711h-148l3 16h165z" />
    <glyph glyph-name="braceleft.cap" horiz-adv-x="379" 
d="M319 0h-26c-96 0 -121 32 -121 84c0 14 2 30 5 47l12 73c3 21 6 38 6 54c0 43 -16 72 -58 106l4 20c74 47 94 79 108 156l12 72c14 82 41 131 159 131h30l-3 -16h-26c-112 0 -132 -41 -144 -115l-12 -72c-14 -77 -40 -122 -114 -168c43 -34 60 -68 60 -115
c0 -16 -3 -33 -6 -53l-12 -73c-3 -17 -5 -32 -5 -46c0 -44 22 -69 107 -69h26z" />
    <glyph glyph-name="braceright.cap" horiz-adv-x="379" 
d="M190 743h26c96 0 121 -32 121 -84c0 -14 -2 -30 -5 -47l-12 -73c-3 -21 -6 -38 -6 -54c0 -43 16 -72 58 -106l-4 -20c-74 -47 -94 -79 -108 -156l-12 -72c-14 -82 -41 -131 -159 -131h-30l3 16h26c112 0 132 41 144 115l12 72c14 77 40 122 114 168
c-43 34 -60 68 -60 115c0 16 3 33 6 53l12 73c3 17 5 32 5 46c0 44 -22 69 -107 69h-26z" />
    <glyph glyph-name="exclamdown.cap" horiz-adv-x="191" 
d="M218 743h17l-20 -111h-17zM201 555l-98 -559h-17l98 559h17z" />
    <glyph glyph-name="questiondown.cap" horiz-adv-x="414" 
d="M402 743h17l-19 -111h-17zM389 -5l-3 -15c-49 -9 -105 -13 -142 -13c-106 0 -167 36 -167 128c0 97 54 161 137 227c118 94 136 124 149 199l6 31h17l-6 -31c-14 -83 -39 -116 -156 -210c-78 -63 -131 -120 -131 -216c0 -84 55 -112 153 -112c38 0 92 3 143 12z" />
    <glyph glyph-name="guillemotleft.cap" horiz-adv-x="487" 
d="M538 607l-189 -206l116 -207h-19l-117 209l188 204h21zM317 607h21l-189 -206l116 -207h-19l-117 209z" />
    <glyph glyph-name="guillemotright.cap" horiz-adv-x="487" 
d="M503 398l-188 -204h-21l189 206l-116 207h19zM186 607l117 -209l-188 -204h-21l189 206l-116 207h19z" />
    <glyph glyph-name="guilsinglleft.cap" horiz-adv-x="287" 
d="M339 607l-189 -206l116 -207h-19l-117 209l188 204h21z" />
    <glyph glyph-name="guilsinglright.cap" horiz-adv-x="287" 
d="M303 398l-188 -204h-21l189 206l-116 207h19z" />
    <glyph glyph-name="hyphen.cap" horiz-adv-x="302" 
d="M313 392h-184l3 17h184z" />
    <glyph glyph-name="endash.cap" horiz-adv-x="385" 
d="M384 290h-281l2 16h281z" />
    <glyph glyph-name="emdash.cap" horiz-adv-x="489" 
d="M488 290h-385l2 16h385z" />
    <glyph glyph-name="periodcentered.cap" horiz-adv-x="169" 
d="M153 338h-16l20 112h16z" />
    <glyph glyph-name="at.cap" horiz-adv-x="800" 
d="M828 529c0 -209 -121 -357 -368 -357c-117 0 -169 37 -169 133c0 37 6 65 14 100c32 133 104 174 209 174c25 0 65 -3 111 -13l-73 -372c170 30 260 157 260 334c0 122 -79 210 -270 210c-225 0 -347 -117 -391 -319c-10 -47 -18 -95 -18 -148c0 -187 119 -258 289 -258
c50 0 103 5 146 12l-1 -15c-45 -8 -99 -13 -150 -13c-179 0 -301 81 -301 274c0 49 7 100 19 153c46 198 163 330 409 330c203 0 284 -96 284 -225zM605 554c-24 5 -66 10 -93 10c-94 0 -161 -35 -191 -162c-7 -29 -14 -65 -14 -97c0 -85 46 -118 155 -118c36 0 52 2 72 4z
" />
    <glyph glyph-name="T_h" horiz-adv-x="1021" 
d="M942 0h-16l58 331c6 31 9 58 9 81c0 85 -40 116 -129 116c-68 0 -144 -31 -206 -61l-84 -467h-16l128 727h-248l-128 -727h-17l128 727h-263l3 16h545l-45 -259c58 27 130 60 206 60c100 0 142 -41 142 -131c0 -24 -4 -51 -9 -82z" />
    <glyph glyph-name="A.alt" horiz-adv-x="602" 
d="M20 0l391 728h-68l3 16h98l138 -744h-18l-53 302h-313l-159 -302h-19zM508 318l-58 312l-19 101h-2c-17 -34 -35 -67 -53 -101l-169 -312h301z" />
    <glyph glyph-name="B.alt" horiz-adv-x="595" 
d="M639 612c0 -16 -2 -32 -7 -57c-12 -69 -50 -144 -182 -164c97 -16 130 -69 130 -136c0 -21 -2 -38 -8 -72c-24 -135 -114 -195 -306 -195c-99 0 -137 7 -181 12l128 727h-63l3 16c65 0 153 9 244 9c170 0 242 -41 242 -140zM564 255c0 67 -36 128 -189 128h-207l-65 -369
c40 -5 88 -11 166 -11c179 0 264 56 287 186c6 35 8 50 8 66zM623 612c0 92 -70 125 -229 125c-65 0 -118 -4 -165 -8l-58 -330h207c189 0 226 92 239 162c5 24 6 38 6 51z" />
    <glyph glyph-name="C.alt" horiz-adv-x="561" 
d="M635 741l-17 -96h-15l15 82c-27 4 -84 11 -155 11c-181 0 -279 -106 -325 -360l-2 -11c-10 -54 -15 -101 -15 -141c0 -155 70 -222 215 -222c83 0 143 9 173 13l-3 -16c-16 -3 -90 -13 -176 -13c-151 0 -225 76 -225 238c0 42 6 91 16 145l2 11c48 262 150 372 342 372
c90 0 159 -10 170 -13z" />
    <glyph glyph-name="D.alt" horiz-adv-x="629" 
d="M84 -2l129 729h-63l3 16c102 0 127 10 249 10c167 0 252 -73 252 -245c0 -39 -5 -83 -14 -133l-4 -22c-47 -268 -164 -365 -369 -365c-89 0 -131 6 -183 10zM621 360l4 22c8 48 13 89 13 126c0 168 -86 229 -239 229c-62 0 -120 -3 -170 -8l-126 -715
c39 -4 110 -10 167 -10c186 0 304 88 351 356z" />
    <glyph glyph-name="E.alt" horiz-adv-x="544" 
d="M617 727h-388l-58 -327h359l-3 -16h-359l-65 -369h388l-2 -15h-404l128 727h-63l3 16h467z" />
    <glyph glyph-name="F.alt" horiz-adv-x="534" 
d="M85 0l128 727h-63l3 16h467l-3 -16h-388l-58 -327h359l-3 -16h-359l-67 -384h-16z" />
    <glyph glyph-name="G.alt" horiz-adv-x="589" 
d="M524 0c-73 -9 -136 -12 -176 -12c-158 0 -242 79 -242 254c0 38 4 79 13 127l2 12c49 277 171 373 354 373c73 0 138 -7 179 -13l-18 -102h-15l16 89c-40 5 -100 10 -164 10c-174 0 -289 -94 -336 -360l-2 -13c-8 -46 -12 -87 -12 -123c0 -171 83 -238 226 -238
c38 0 103 2 161 8l62 351h-135l2 15h151z" />
    <glyph glyph-name="H.alt" horiz-adv-x="671" 
d="M586 0h-16l69 393h-469l-69 -393h-16l128 727h-63l3 16h79l-59 -334h469l59 334h16z" />
    <glyph glyph-name="I.alt" 
d="M169 0h-141l2 15h62l126 712h-62l3 16h141l-3 -16h-62l-126 -712h62z" />
    <glyph glyph-name="J.alt" 
d="M297 727h-62l-137 -776c-16 -89 -36 -151 -138 -151c-18 0 -40 2 -58 4l2 14c23 -1 40 -2 59 -2c88 0 104 54 118 135l137 776h-62l3 16h141z" />
    <glyph glyph-name="K.alt" horiz-adv-x="535" 
d="M517 0h-22l-323 376l-66 -376h-16l128 727h-62l3 16h78l-64 -361l450 361h26l-457 -365z" />
    <glyph glyph-name="M.alt" horiz-adv-x="748" 
d="M663 0h-16l114 652c5 23 9 47 13 70h-1c-18 -23 -37 -45 -55 -68l-277 -342h-24l-157 342c-10 23 -21 45 -31 68h-1c-4 -23 -8 -47 -13 -70l-114 -652h-16l128 727h-63l3 16h86l160 -353c10 -22 21 -44 31 -66h2c18 22 35 44 53 66l286 353h23z" />
    <glyph glyph-name="N.alt" horiz-adv-x="664" 
d="M578 -3h-22l-300 666c-9 20 -17 39 -26 59h-1c-4 -24 -9 -49 -13 -73l-114 -649h-17l128 727h-62l3 16h84l303 -675c8 -17 15 -34 23 -51h1c4 21 8 41 11 62l118 664h16z" />
    <glyph glyph-name="P.alt" horiz-adv-x="560" 
d="M611 603c0 -17 -2 -35 -8 -69c-23 -130 -110 -207 -296 -207c-41 0 -94 1 -152 4l-58 -331h-17l128 727h-62l3 16c96 0 137 11 238 11c167 0 224 -50 224 -151zM595 603c0 95 -58 135 -210 135c-69 0 -126 -6 -160 -9l-67 -383c59 -3 111 -4 152 -4c170 0 254 66 278 196
c6 32 7 50 7 65z" />
    <glyph glyph-name="Q.alt" horiz-adv-x="646" 
d="M298 -193h-17l32 181c-125 3 -207 67 -207 238c0 40 5 87 14 140l4 21c50 283 169 367 332 367c132 0 216 -64 216 -238c0 -40 -5 -86 -14 -139l-4 -21c-48 -277 -167 -365 -324 -368zM639 361l4 21c9 51 13 95 13 133c0 173 -85 223 -202 223c-148 0 -266 -75 -315 -356
l-4 -21c-9 -51 -13 -96 -13 -134c0 -172 84 -223 202 -223c145 0 266 76 315 357z" />
    <glyph glyph-name="R.alt" horiz-adv-x="591" 
d="M611 604c0 -18 -2 -36 -8 -70c-18 -105 -81 -178 -207 -200l150 -334h-17l-148 332c-23 -3 -48 -5 -74 -5c-55 0 -94 1 -152 4l-58 -331h-17l128 727h-62l3 16c74 0 158 11 238 11c168 0 224 -50 224 -150zM595 604c0 94 -57 134 -210 134c-53 0 -126 -6 -160 -9
l-67 -383c59 -3 98 -4 152 -4c170 0 254 66 278 196c6 32 7 50 7 66z" />
    <glyph glyph-name="S.alt" horiz-adv-x="546" 
d="M407 739c-101 0 -233 -27 -233 -163c0 -75 59 -110 141 -159l43 -25c113 -66 167 -101 167 -194c0 -149 -102 -210 -265 -210c-81 0 -148 6 -190 13l2 15c30 -4 110 -12 191 -12c138 0 244 45 244 194c0 87 -53 118 -159 180l-44 26c-83 47 -146 93 -146 172
c0 143 130 178 251 178c72 0 140 -6 190 -13l-17 -97h-16l15 84c-41 5 -112 11 -174 11z" />
    <glyph glyph-name="U.alt" horiz-adv-x="650" 
d="M684 743h17l-73 -409c-40 -229 -116 -343 -305 -343c-145 0 -199 73 -199 209c0 42 7 90 16 144l68 383h-69l3 16h85l-72 -404c-10 -54 -15 -101 -15 -141c0 -129 53 -191 186 -191c182 0 248 115 286 332z" />
    <glyph glyph-name="Z.alt" horiz-adv-x="563" 
d="M535 15l-2 -15h-503l2 15l591 712h-429l-15 -84h-16l18 100h466l-3 -16l-590 -712h481z" />
    <glyph glyph-name="a.alt" horiz-adv-x="503" 
d="M494 432c0 -20 -3 -44 -8 -71l-63 -361h-16l7 44c-51 -25 -125 -56 -202 -56c-94 0 -135 41 -135 116c0 14 0 29 5 53c22 122 96 150 265 150h114l10 58c4 26 7 47 7 66c0 74 -40 96 -154 96c-21 0 -65 -1 -123 -7l-12 -67h-15l15 82c68 7 106 8 138 8
c123 0 167 -29 167 -111zM458 292h-114c-162 0 -222 -22 -246 -138c-4 -17 -5 -37 -5 -50c0 -70 42 -101 124 -101c74 0 151 32 200 58z" />
    <glyph glyph-name="b.alt" horiz-adv-x="521" 
d="M509 252c-35 -202 -110 -264 -269 -264c-27 0 -77 0 -156 8l133 758h-58l3 16h74l-45 -254c60 19 121 27 156 27c119 0 177 -42 177 -163c0 -30 -4 -65 -11 -106zM493 255l4 22c7 40 11 74 11 103c0 114 -55 147 -164 147c-35 0 -98 -8 -155 -27l-87 -490
c67 -6 114 -7 141 -7c146 0 216 55 250 252z" />
    <glyph glyph-name="c.alt" horiz-adv-x="443" 
d="M398 1c-71 -11 -106 -13 -135 -13c-116 0 -174 34 -174 158c0 32 4 71 12 116l2 13c37 210 116 268 258 268c32 0 66 -2 130 -12l-15 -83h-15l13 70c-57 8 -89 9 -116 9c-131 0 -203 -51 -239 -255l-2 -13c-8 -45 -12 -82 -12 -113c0 -116 55 -143 161 -143
c28 0 65 3 134 12z" />
    <glyph glyph-name="d.alt" horiz-adv-x="521" 
d="M572 770l-136 -770h-16l6 38c-41 -20 -109 -50 -183 -50c-105 0 -153 48 -153 161c0 33 4 71 12 115l2 12c35 196 112 267 271 267c25 0 66 0 139 -8l38 219h-67l3 16h84zM511 520c-65 6 -114 7 -139 7c-146 0 -218 -64 -252 -255l-2 -12c-8 -44 -12 -81 -12 -112
c0 -106 46 -144 140 -144c71 0 139 30 183 51z" />
    <glyph glyph-name="f.alt" horiz-adv-x="360" 
d="M473 770l-2 -15c-20 2 -59 5 -80 5c-89 0 -116 -30 -135 -140l-16 -91h188l-3 -16h-188l-116 -661h-16l116 661h-114l3 16h114l16 91c20 113 50 156 153 156c21 0 61 -3 80 -6z" />
    <glyph glyph-name="g.alt" horiz-adv-x="518" 
d="M548 543l-3 -16h-103c51 -18 74 -59 74 -114c0 -18 -2 -35 -5 -53c-15 -86 -59 -163 -222 -163c-69 0 -110 13 -136 33c-30 -16 -60 -42 -60 -80c0 -29 14 -46 50 -46h128c144 0 195 -34 195 -111c0 -140 -93 -205 -243 -205c-142 0 -189 54 -189 132c0 68 28 127 84 172
c-27 7 -41 28 -41 58c0 38 28 69 65 90c-18 20 -26 48 -26 79c0 15 1 33 4 49c15 88 53 175 227 175h201zM451 -6c0 67 -45 95 -183 95h-133c-59 -45 -86 -101 -86 -170c0 -70 43 -116 174 -116s228 50 228 191zM501 413c0 62 -30 114 -157 114c-166 0 -195 -84 -209 -163
c-3 -16 -3 -31 -3 -45c0 -61 31 -107 157 -107c154 0 192 70 207 152c3 17 5 33 5 49z" />
    <glyph glyph-name="h.alt" horiz-adv-x="549" 
d="M159 754l3 16h75l-50 -286c58 27 130 60 209 60c102 0 139 -48 139 -132c0 -25 -4 -53 -9 -84l-58 -328h-16l58 331c5 29 9 56 9 81c0 70 -27 116 -124 116c-72 0 -150 -31 -211 -61l-83 -467h-17l133 754h-58z" />
    <glyph glyph-name="i.alt" 
d="M107 0h-17l90 513h-58l3 16h75zM220 643h-17l22 127h17z" />
    <glyph glyph-name="j.alt" 
d="M91 -88c-14 -79 -34 -124 -113 -124c-10 0 -30 0 -58 4l2 14c32 -3 49 -3 59 -3c61 0 79 32 93 109l106 601h-57l3 16h74zM220 641h-17l22 129h17z" />
    <glyph glyph-name="k.alt" horiz-adv-x="416" 
d="M161 754l3 16h74l-86 -488l322 247h28l-327 -251l231 -278h-23l-231 278l-49 -278h-18l133 754h-57z" />
    <glyph glyph-name="l.alt" horiz-adv-x="187" 
d="M102 0h-17l132 754h-58l3 16h75z" />
    <glyph glyph-name="m.alt" horiz-adv-x="794" 
d="M784 431c0 -23 -3 -48 -8 -75l-63 -356h-16l63 359c5 26 7 50 7 71c0 61 -22 97 -99 97c-50 0 -119 -21 -191 -63c5 -36 -1 -72 -7 -109l-62 -355h-17l63 359c5 30 8 55 8 77c0 59 -23 91 -100 91c-46 0 -106 -19 -178 -58l-83 -469h-17l91 513h-58l3 16h75l-8 -44
c71 40 129 58 178 58c67 0 98 -26 109 -65c72 44 146 65 197 65c87 0 113 -46 113 -112z" />
    <glyph glyph-name="n.alt" horiz-adv-x="549" 
d="M119 513l3 16h73l-8 -45c59 29 132 59 207 59c100 0 141 -41 141 -131c0 -24 -4 -53 -9 -84l-58 -328h-16l58 331c5 30 8 57 8 79c0 87 -37 117 -127 117c-68 0 -143 -28 -207 -60l-82 -467h-17l90 513h-56z" />
    <glyph glyph-name="p.alt" horiz-adv-x="525" 
d="M528 394c0 -24 -6 -78 -12 -114l-4 -24c-30 -180 -107 -268 -273 -268c-44 0 -66 1 -139 8l-36 -204h-16l127 721h-58l3 16h74l-8 -42c44 21 123 56 197 56c103 0 145 -46 145 -149zM511 395c0 95 -37 132 -132 132c-70 0 -153 -35 -195 -56l-81 -459c65 -7 92 -8 139 -8
c151 0 223 79 254 257l4 23c7 41 11 82 11 111z" />
    <glyph glyph-name="r.alt" horiz-adv-x="332" 
d="M101 0h-16l90 513h-57l3 16h73l-8 -43c99 55 195 57 231 57l-3 -16c-36 0 -127 -2 -231 -57z" />
    <glyph glyph-name="s.alt" horiz-adv-x="447" 
d="M443 452l11 62c-35 7 -87 13 -127 13c-84 0 -187 -19 -187 -126c0 -55 42 -81 122 -112l34 -13c87 -33 130 -68 130 -132c0 -104 -89 -156 -206 -156c-67 0 -122 7 -162 18l3 15c38 -9 92 -18 160 -18c99 0 188 39 188 141c0 55 -35 85 -122 118l-34 13
c-82 32 -129 63 -129 126c0 112 103 141 206 141c52 0 107 -7 142 -15l-13 -75h-16z" />
    <glyph glyph-name="u.alt" horiz-adv-x="548" 
d="M112 513l3 16h74l-58 -329c-6 -31 -8 -58 -8 -81c0 -86 41 -116 126 -116c76 0 148 30 208 61l82 465h17l-94 -529h-16l8 46c-56 -28 -125 -58 -208 -58c-99 0 -139 42 -139 131c0 25 3 54 9 87l54 307h-58z" />
    <glyph glyph-name="y.alt" horiz-adv-x="548" 
d="M463 1c-29 -161 -89 -213 -238 -213c-59 0 -97 3 -165 10l3 15c52 -5 112 -10 162 -10c138 0 194 42 222 198l4 25c-37 -14 -103 -38 -172 -38c-116 0 -168 50 -168 157c0 26 4 55 10 88l52 296h16l-53 -299c-6 -32 -9 -60 -9 -85c0 -101 50 -142 154 -142
c68 0 129 23 173 39l86 487h16z" />
    <glyph glyph-name="z.alt" horiz-adv-x="462" 
d="M414 15l-2 -15h-367l2 15l433 498h-317l-11 -61h-16l14 77h354l-3 -15l-434 -499h347z" />
    <glyph glyph-name="a.alt2" horiz-adv-x="503" 
d="M494 431c0 -20 -3 -43 -8 -70l-63 -361h-16l7 44c-51 -25 -125 -56 -202 -56c-94 0 -135 41 -135 116c0 14 1 29 5 50c22 125 96 153 265 153h114l10 58c4 26 7 47 7 66c0 74 -40 96 -154 96c-23 0 -72 -1 -138 -8l3 16c68 7 106 8 138 8c123 0 167 -30 167 -112z
M458 292h-114c-162 0 -223 -22 -247 -141c-4 -19 -5 -34 -5 -46c0 -71 43 -102 125 -102c74 0 151 32 200 58z" />
    <glyph glyph-name="f.alt2" horiz-adv-x="361" 
d="M473 770l-2 -15c-20 2 -59 5 -80 5c-89 0 -115 -30 -134 -140l-16 -91h187l-3 -16h-187l-91 -513h-17l91 513h-114l3 16h114l16 91c20 113 50 156 153 156c21 0 61 -3 80 -6z" />
    <glyph glyph-name="u.alt2" horiz-adv-x="542" 
d="M510 272c-34 -194 -92 -284 -242 -284c-111 0 -154 54 -154 162c0 37 5 80 14 129l44 250h17l-45 -254c-9 -49 -13 -90 -13 -125c0 -102 40 -147 140 -147c137 0 189 81 223 272l45 254h17z" />
    <glyph glyph-name="Aacute.alt" horiz-adv-x="602" 
d="M20 0l391 728h-68l3 16h98l138 -744h-18l-53 302h-313l-159 -302h-19zM508 318l-58 312l-19 101h-2c-17 -34 -35 -67 -53 -101l-169 -312h301zM606 943l-169 -154h-20l168 154h21z" />
    <glyph glyph-name="Acircumflex.alt" horiz-adv-x="602" 
d="M20 0l391 728h-68l3 16h98l138 -744h-18l-53 302h-313l-159 -302h-19zM508 318l-58 312l-19 101h-2c-17 -34 -35 -67 -53 -101l-169 -312h301zM587 789h-20l-105 139l-155 -139h-22l171 154h14z" />
    <glyph glyph-name="Adieresis.alt" horiz-adv-x="602" 
d="M20 0l391 728h-68l3 16h98l138 -744h-18l-53 302h-313l-159 -302h-19zM508 318l-58 312l-19 101h-2c-17 -34 -35 -67 -53 -101l-169 -312h301zM592 926l-22 -121h-17l22 121h17zM344 926h17l-22 -121h-17z" />
    <glyph glyph-name="Agrave.alt" horiz-adv-x="602" 
d="M20 0l391 728h-68l3 16h98l138 -744h-18l-53 302h-313l-159 -302h-19zM508 318l-58 312l-19 101h-2c-17 -34 -35 -67 -53 -101l-169 -312h301zM484 789h-20l-115 154h20z" />
    <glyph glyph-name="Aring.alt" horiz-adv-x="602" 
d="M546 880c0 -71 -47 -106 -111 -106s-112 35 -112 106c0 70 48 105 112 105s111 -35 111 -105zM530 880c0 69 -47 90 -95 90c-49 0 -96 -21 -96 -90c0 -70 47 -91 96 -91c48 0 95 21 95 91zM20 0l391 728h-68l3 16h98l138 -744h-18l-53 302h-313l-159 -302h-19zM508 318
l-58 312l-19 101h-2c-17 -34 -35 -67 -53 -101l-169 -312h301z" />
    <glyph glyph-name="Atilde.alt" horiz-adv-x="602" 
d="M20 0l391 728h-68l3 16h98l138 -744h-18l-53 302h-313l-159 -302h-19zM508 318l-58 312l-19 101h-2c-17 -34 -35 -67 -53 -101l-169 -312h301zM627 910c-14 -77 -33 -123 -92 -123c-35 0 -55 15 -79 50l-33 49c-23 33 -38 45 -66 45c-54 0 -65 -50 -75 -108l-6 -34h-16
l6 34c13 77 32 123 92 123c35 0 53 -15 77 -49l34 -49c24 -34 37 -46 67 -46c53 0 64 50 75 108l6 33h16z" />
    <glyph glyph-name="Ccedilla.alt" horiz-adv-x="561" 
d="M635 741l-17 -96h-15l15 82c-27 4 -84 11 -155 11c-181 0 -279 -106 -325 -360l-2 -11c-10 -54 -15 -101 -15 -141c0 -155 70 -222 215 -222c83 0 143 9 173 13l-3 -16c-16 -3 -90 -13 -176 -13c-151 0 -225 76 -225 238c0 42 6 91 16 145l2 11c48 262 150 372 342 372
c90 0 159 -10 170 -13zM314 -68l-156 -140h-21l156 140h21z" />
    <glyph glyph-name="Eacute.alt" horiz-adv-x="544" 
d="M617 727h-388l-58 -327h359l-3 -16h-359l-65 -369h388l-2 -15h-404l128 727h-63l3 16h467zM583 943l-169 -154h-20l168 154h21z" />
    <glyph glyph-name="Ecircumflex.alt" horiz-adv-x="544" 
d="M617 727h-388l-58 -327h359l-3 -16h-359l-65 -369h388l-2 -15h-404l128 727h-63l3 16h467zM567 789h-20l-105 139l-155 -139h-22l171 154h14z" />
    <glyph glyph-name="Edieresis.alt" horiz-adv-x="544" 
d="M617 727h-388l-58 -327h359l-3 -16h-359l-65 -369h388l-2 -15h-404l128 727h-63l3 16h467zM552 925l-22 -121h-17l22 121h17zM304 925h17l-22 -121h-17z" />
    <glyph glyph-name="Egrave.alt" horiz-adv-x="544" 
d="M617 727h-388l-58 -327h359l-3 -16h-359l-65 -369h388l-2 -15h-404l128 727h-63l3 16h467zM439 789h-20l-115 154h20z" />
    <glyph glyph-name="Eth.alt" horiz-adv-x="629" 
d="M654 508c0 -39 -5 -83 -14 -133l-4 -22c-47 -268 -164 -365 -369 -365c-89 0 -131 6 -183 10l68 384h-71l3 17h71l58 328h-63l3 16c102 0 127 10 249 10c167 0 252 -73 252 -245zM638 508c0 168 -86 229 -239 229c-62 0 -120 -3 -170 -8l-58 -330h226l-3 -17h-226
l-65 -368c39 -4 110 -10 167 -10c186 0 302 88 351 356l4 22c8 48 13 89 13 126z" />
    <glyph glyph-name="Iacute.alt" 
d="M169 0h-141l2 15h62l126 712h-62l3 16h141l-3 -16h-62l-126 -712h62zM396 943l-169 -154h-20l168 154h21z" />
    <glyph glyph-name="Icircumflex.alt" 
d="M169 0h-141l2 15h62l126 712h-62l3 16h141l-3 -16h-62l-126 -712h62zM392 789h-20l-105 139l-155 -139h-22l171 154h14z" />
    <glyph glyph-name="Idieresis.alt" 
d="M169 0h-141l2 15h62l126 712h-62l3 16h141l-3 -16h-62l-126 -712h62zM388 926l-22 -121h-17l22 121h17zM140 926h17l-22 -121h-17z" />
    <glyph glyph-name="Igrave.alt" 
d="M169 0h-141l2 15h62l126 712h-62l3 16h141l-3 -16h-62l-126 -712h62zM297 789h-20l-115 154h20z" />
    <glyph glyph-name="Ntilde.alt" horiz-adv-x="664" 
d="M578 -3h-22l-300 666c-9 20 -17 39 -26 59h-1c-4 -24 -9 -49 -13 -73l-114 -649h-17l128 727h-62l3 16h84l303 -675c8 -17 15 -34 23 -51h1c4 21 8 41 11 62l118 664h16zM663 910c-14 -77 -33 -123 -92 -123c-35 0 -55 15 -79 50l-33 49c-23 33 -38 45 -66 45
c-54 0 -65 -50 -75 -108l-6 -34h-16l6 34c13 77 32 123 92 123c35 0 53 -15 77 -49l34 -49c24 -34 37 -46 67 -46c53 0 64 50 75 108l6 33h16z" />
    <glyph glyph-name="Scaron.alt" horiz-adv-x="546" 
d="M407 739c-101 0 -233 -27 -233 -163c0 -75 59 -110 141 -159l43 -25c113 -66 167 -101 167 -194c0 -149 -102 -210 -265 -210c-81 0 -148 6 -190 13l2 15c30 -4 110 -12 191 -12c138 0 244 45 244 194c0 87 -53 118 -159 180l-44 26c-83 47 -146 93 -146 172
c0 143 130 178 251 178c72 0 140 -6 190 -13l-17 -97h-16l15 84c-41 5 -112 11 -174 11zM280 943h20l106 -139l154 139h22l-171 -154h-14z" />
    <glyph glyph-name="Uacute.alt" horiz-adv-x="650" 
d="M684 743h17l-73 -409c-40 -229 -116 -343 -305 -343c-145 0 -199 73 -199 209c0 42 7 90 16 144l68 383h-69l3 16h85l-72 -404c-10 -54 -15 -101 -15 -141c0 -129 53 -191 186 -191c182 0 248 115 286 332zM630 943l-169 -154h-20l168 154h21z" />
    <glyph glyph-name="Ucircumflex.alt" horiz-adv-x="650" 
d="M684 743h17l-73 -409c-40 -229 -116 -343 -305 -343c-145 0 -199 73 -199 209c0 42 7 90 16 144l68 383h-69l3 16h85l-72 -404c-10 -54 -15 -101 -15 -141c0 -129 53 -191 186 -191c182 0 248 115 286 332zM612 789h-20l-105 139l-155 -139h-22l171 154h14z" />
    <glyph glyph-name="Udieresis.alt" horiz-adv-x="650" 
d="M684 743h17l-73 -409c-40 -229 -116 -343 -305 -343c-145 0 -199 73 -199 209c0 42 7 90 16 144l68 383h-69l3 16h85l-72 -404c-10 -54 -15 -101 -15 -141c0 -129 53 -191 186 -191c182 0 248 115 286 332zM610 926l-22 -121h-17l22 121h17zM362 926h17l-22 -121h-17z
" />
    <glyph glyph-name="Ugrave.alt" horiz-adv-x="650" 
d="M684 743h17l-73 -409c-40 -229 -116 -343 -305 -343c-145 0 -199 73 -199 209c0 42 7 90 16 144l68 383h-69l3 16h85l-72 -404c-10 -54 -15 -101 -15 -141c0 -129 53 -191 186 -191c182 0 248 115 286 332zM483 789h-20l-115 154h20z" />
    <glyph glyph-name="Zcaron.alt" horiz-adv-x="563" 
d="M535 15l-2 -15h-503l2 15l591 712h-429l-15 -84h-16l18 100h466l-3 -16l-590 -712h481zM289 943h20l106 -139l154 139h22l-171 -154h-14z" />
    <glyph glyph-name="aacute.alt" horiz-adv-x="503" 
d="M494 432c0 -20 -3 -44 -8 -71l-63 -361h-16l7 44c-51 -25 -125 -56 -202 -56c-94 0 -135 41 -135 116c0 14 0 29 5 53c22 122 96 150 265 150h114l10 58c4 26 7 47 7 66c0 74 -40 96 -154 96c-21 0 -65 -1 -123 -7l-12 -67h-15l15 82c68 7 106 8 138 8
c123 0 167 -29 167 -111zM458 292h-114c-162 0 -222 -22 -246 -138c-4 -17 -5 -37 -5 -50c0 -70 42 -101 124 -101c74 0 151 32 200 58zM524 770l-169 -154h-20l168 154h21z" />
    <glyph glyph-name="acircumflex.alt" horiz-adv-x="503" 
d="M494 432c0 -20 -3 -44 -8 -71l-63 -361h-16l7 44c-51 -25 -125 -56 -202 -56c-94 0 -135 41 -135 116c0 14 0 29 5 53c22 122 96 150 265 150h114l10 58c4 26 7 47 7 66c0 74 -40 96 -154 96c-21 0 -65 -1 -123 -7l-12 -67h-15l15 82c68 7 106 8 138 8
c123 0 167 -29 167 -111zM458 292h-114c-162 0 -222 -22 -246 -138c-4 -17 -5 -37 -5 -50c0 -70 42 -101 124 -101c74 0 151 32 200 58zM533 616h-20l-105 139l-155 -139h-22l171 154h14z" />
    <glyph glyph-name="adieresis.alt" horiz-adv-x="503" 
d="M494 432c0 -20 -3 -44 -8 -71l-63 -361h-16l7 44c-51 -25 -125 -56 -202 -56c-94 0 -135 41 -135 116c0 14 0 29 5 53c22 122 96 150 265 150h114l10 58c4 26 7 47 7 66c0 74 -40 96 -154 96c-21 0 -65 -1 -123 -7l-12 -67h-15l15 82c68 7 106 8 138 8
c123 0 167 -29 167 -111zM458 292h-114c-162 0 -222 -22 -246 -138c-4 -17 -5 -37 -5 -50c0 -70 42 -101 124 -101c74 0 151 32 200 58zM513 760l-22 -121h-17l22 121h17zM265 760h17l-22 -121h-17z" />
    <glyph glyph-name="agrave.alt" horiz-adv-x="503" 
d="M494 432c0 -20 -3 -44 -8 -71l-63 -361h-16l7 44c-51 -25 -125 -56 -202 -56c-94 0 -135 41 -135 116c0 14 0 29 5 53c22 122 96 150 265 150h114l10 58c4 26 7 47 7 66c0 74 -40 96 -154 96c-21 0 -65 -1 -123 -7l-12 -67h-15l15 82c68 7 106 8 138 8
c123 0 167 -29 167 -111zM458 292h-114c-162 0 -222 -22 -246 -138c-4 -17 -5 -37 -5 -50c0 -70 42 -101 124 -101c74 0 151 32 200 58zM401 616h-20l-115 154h20z" />
    <glyph glyph-name="ampersand.alt" horiz-adv-x="663" 
d="M645 410c-23 -131 -60 -243 -126 -319l70 -84l-1 -7h-11l-67 80c-57 -58 -136 -92 -241 -92c-99 0 -195 36 -195 147c0 119 90 190 196 238l-9 11c-51 62 -82 110 -82 175c0 136 90 195 227 195c106 0 173 -34 173 -120c0 -151 -136 -204 -287 -266l219 -266
c62 72 96 179 119 308h15zM501 91l-222 271c-95 -42 -189 -108 -189 -227c0 -98 82 -132 182 -132s175 33 229 88zM564 634c0 84 -72 105 -160 105c-117 0 -210 -46 -210 -180c0 -66 29 -107 81 -170l8 -10c116 48 281 100 281 255z" />
    <glyph glyph-name="aring.alt" horiz-adv-x="503" 
d="M490 703c0 -71 -47 -106 -111 -106s-112 35 -112 106c0 70 48 105 112 105s111 -35 111 -105zM474 703c0 69 -47 90 -95 90c-49 0 -96 -21 -96 -90c0 -70 47 -91 96 -91c48 0 95 21 95 91zM494 432c0 -20 -3 -44 -8 -71l-63 -361h-16l7 44c-51 -25 -125 -56 -202 -56
c-94 0 -135 41 -135 116c0 14 0 29 5 53c22 122 96 150 265 150h114l10 58c4 26 7 47 7 66c0 74 -40 96 -154 96c-21 0 -65 -1 -123 -7l-12 -67h-15l15 82c68 7 106 8 138 8c123 0 167 -29 167 -111zM458 292h-114c-162 0 -222 -22 -246 -138c-4 -17 -5 -37 -5 -50
c0 -70 42 -101 124 -101c74 0 151 32 200 58z" />
    <glyph glyph-name="atilde.alt" horiz-adv-x="503" 
d="M494 432c0 -20 -3 -44 -8 -71l-63 -361h-16l7 44c-51 -25 -125 -56 -202 -56c-94 0 -135 41 -135 116c0 14 0 29 5 53c22 122 96 150 265 150h114l10 58c4 26 7 47 7 66c0 74 -40 96 -154 96c-21 0 -65 -1 -123 -7l-12 -67h-15l15 82c68 7 106 8 138 8
c123 0 167 -29 167 -111zM458 292h-114c-162 0 -222 -22 -246 -138c-4 -17 -5 -37 -5 -50c0 -70 42 -101 124 -101c74 0 151 32 200 58zM561 740c-14 -77 -33 -123 -92 -123c-35 0 -55 15 -79 50l-33 49c-23 33 -38 45 -66 45c-54 0 -65 -50 -75 -108l-6 -34h-16l6 34
c13 77 32 123 92 123c35 0 53 -15 77 -49l34 -49c24 -34 37 -46 67 -46c53 0 64 50 75 108l6 33h16z" />
    <glyph glyph-name="ccedilla.alt" horiz-adv-x="443" 
d="M398 1c-71 -11 -106 -13 -135 -13c-116 0 -174 34 -174 158c0 32 4 71 12 116l2 13c37 210 116 268 258 268c32 0 66 -2 130 -12l-15 -83h-15l13 70c-57 8 -89 9 -116 9c-131 0 -203 -51 -239 -255l-2 -13c-8 -45 -12 -82 -12 -113c0 -116 55 -143 161 -143
c28 0 65 3 134 12zM272 -68l-156 -140h-21l156 140h21z" />
    <glyph glyph-name="dotlessi.alt" 
d="M107 0h-17l90 513h-58l3 16h75z" />
    <glyph glyph-name="iacute.alt" 
d="M367 770l-169 -154h-20l168 154h21zM107 0h-17l90 513h-58l3 16h75z" />
    <glyph glyph-name="icircumflex.alt" 
d="M355 616h-20l-105 139l-155 -139h-22l171 154h14zM107 0h-17l90 513h-58l3 16h75z" />
    <glyph glyph-name="idieresis.alt" 
d="M355 760l-22 -121h-17l22 121h17zM107 760h17l-22 -121h-17zM107 0h-17l90 513h-58l3 16h75z" />
    <glyph glyph-name="igrave.alt" 
d="M255 616h-20l-115 154h20zM107 0h-17l90 513h-58l3 16h75z" />
    <glyph glyph-name="lslash.alt" horiz-adv-x="187" 
d="M102 0h-17l69 393l-106 -88l4 22l106 88l59 339h-58l3 16h75l-59 -338l103 86l-4 -23l-103 -86z" />
    <glyph glyph-name="ntilde.alt" horiz-adv-x="549" 
d="M119 513l3 16h73l-8 -45c59 29 132 59 207 59c100 0 141 -41 141 -131c0 -24 -4 -53 -9 -84l-58 -328h-16l58 331c5 30 8 57 8 79c0 87 -37 117 -127 117c-68 0 -143 -28 -207 -60l-82 -467h-17l90 513h-56zM586 740c-14 -77 -33 -123 -92 -123c-35 0 -55 15 -79 50
l-33 49c-23 33 -38 45 -66 45c-54 0 -65 -50 -75 -108l-6 -34h-16l6 34c13 77 32 123 92 123c35 0 53 -15 77 -49l34 -49c24 -34 37 -46 67 -46c53 0 64 50 75 108l6 33h16z" />
    <glyph glyph-name="scaron.alt" horiz-adv-x="447" 
d="M189 770h20l106 -139l154 139h22l-171 -154h-14zM443 452l11 62c-35 7 -87 13 -127 13c-84 0 -187 -19 -187 -126c0 -55 42 -81 122 -112l34 -13c87 -33 130 -68 130 -132c0 -104 -89 -156 -206 -156c-67 0 -122 7 -162 18l3 15c38 -9 92 -18 160 -18
c99 0 188 39 188 141c0 55 -35 85 -122 118l-34 13c-82 32 -129 63 -129 126c0 112 103 141 206 141c52 0 107 -7 142 -15l-13 -75h-16z" />
    <glyph glyph-name="uacute.alt" horiz-adv-x="548" 
d="M535 770l-169 -154h-20l168 154h21zM112 513l3 16h74l-58 -329c-6 -31 -8 -58 -8 -81c0 -86 41 -116 126 -116c76 0 148 30 208 61l82 465h17l-94 -529h-16l8 46c-56 -28 -125 -58 -208 -58c-99 0 -139 42 -139 131c0 25 3 54 9 87l54 307h-58z" />
    <glyph glyph-name="ucircumflex.alt" horiz-adv-x="548" 
d="M112 513l3 16h74l-58 -329c-6 -31 -8 -58 -8 -81c0 -86 41 -116 126 -116c76 0 148 30 208 61l82 465h17l-94 -529h-16l8 46c-56 -28 -125 -58 -208 -58c-99 0 -139 42 -139 131c0 25 3 54 9 87l54 307h-58zM522 616h-20l-105 139l-155 -139h-22l171 154h14z" />
    <glyph glyph-name="udieresis.alt" horiz-adv-x="548" 
d="M112 513l3 16h74l-58 -329c-6 -31 -8 -58 -8 -81c0 -86 41 -116 126 -116c76 0 148 30 208 61l82 465h17l-94 -529h-16l8 46c-56 -28 -125 -58 -208 -58c-99 0 -139 42 -139 131c0 25 3 54 9 87l54 307h-58zM527 760l-22 -121h-17l22 121h17zM279 760h17l-22 -121h-17z
" />
    <glyph glyph-name="ugrave.alt" horiz-adv-x="548" 
d="M418 616h-20l-115 154h20zM112 513l3 16h74l-58 -329c-6 -31 -8 -58 -8 -81c0 -86 41 -116 126 -116c76 0 148 30 208 61l82 465h17l-94 -529h-16l8 46c-56 -28 -125 -58 -208 -58c-99 0 -139 42 -139 131c0 25 3 54 9 87l54 307h-58z" />
    <glyph glyph-name="f_f.alt" horiz-adv-x="695" 
d="M808 770l-2 -15c-20 2 -59 5 -80 5c-89 0 -116 -30 -135 -140l-16 -91h188l-3 -16h-188l-116 -661h-16l116 661h-319l-116 -661h-16l116 661h-114l3 16h114l16 91c20 113 50 156 153 156c21 0 61 -3 80 -6l-2 -15c-20 2 -59 5 -80 5c-89 0 -116 -30 -135 -140l-16 -91
h319l16 91c20 113 50 156 153 156c21 0 61 -3 80 -6z" />
    <glyph glyph-name="f_f.alt2" horiz-adv-x="695" 
d="M808 770l-2 -15c-20 2 -59 5 -80 5c-89 0 -116 -30 -135 -140l-16 -91h188l-3 -16h-188l-90 -513h-16l90 513h-319l-89 -513h-16l89 513h-114l3 16h114l16 91c20 113 50 156 153 156c21 0 61 -3 80 -6l-2 -15c-20 2 -59 5 -80 5c-89 0 -116 -30 -135 -140l-16 -91h319
l16 91c20 113 50 156 153 156c21 0 61 -3 80 -6z" />
    <glyph glyph-name="f_i.alt2" horiz-adv-x="513" 
d="M148 0h-17l90 513h-114l3 16h114l16 91c20 113 50 156 154 156c20 0 61 -3 80 -6l-2 -15c-20 2 -60 5 -80 5c-89 0 -116 -30 -135 -140l-16 -91h275l-93 -529h-17l90 513h-258zM536 643h-17l22 127h17z" />
    <glyph glyph-name="f_l.alt2" horiz-adv-x="542" 
d="M147 0h-16l90 513h-114l3 16h114l16 91c24 136 60 158 196 158c43 0 109 -4 134 -7h17l-135 -771h-17l133 755c-29 3 -92 7 -135 7c-123 0 -155 -15 -177 -142l-16 -91h188l-3 -16h-188z" />
    <glyph glyph-name="f_f_i.alt2" horiz-adv-x="841" 
d="M751 0h-16l90 513h-289l-90 -513h-16l90 513h-282l-90 -513h-17l90 513h-114l3 16h114l16 91c20 113 50 156 154 156c20 0 61 -3 80 -6l-2 -15c-20 2 -60 5 -80 5c-89 0 -116 -30 -135 -140l-16 -91h282l16 91c20 113 50 156 153 156c21 0 61 -3 80 -6l-2 -15
c-20 2 -59 5 -80 5c-89 0 -116 -30 -135 -140l-16 -91h305zM864 643h-16l22 127h16z" />
    <glyph glyph-name="f_f_l.alt2" horiz-adv-x="841" 
d="M751 0h-16l132 754c-18 2 -96 8 -134 8c-130 0 -157 -23 -178 -142l-16 -91h189l-3 -16h-189l-90 -513h-16l90 513h-282l-90 -513h-17l90 513h-114l3 16h114l16 91c21 120 53 156 157 156c24 0 64 -4 77 -6l-2 -15c-21 2 -55 5 -77 5c-89 0 -118 -23 -138 -140l-16 -91
h282l16 91c22 128 53 158 197 158c38 0 116 -6 134 -8h16z" />
    <glyph glyph-name="yacute.alt" horiz-adv-x="548" 
d="M550 770l-169 -154h-20l168 154h21zM463 1c-29 -161 -89 -213 -238 -213c-59 0 -97 3 -165 10l3 15c52 -5 112 -10 162 -10c138 0 194 42 222 198l4 25c-37 -14 -103 -38 -172 -38c-116 0 -168 50 -168 157c0 26 4 55 10 88l52 296h16l-53 -299c-6 -32 -9 -60 -9 -85
c0 -101 50 -142 154 -142c68 0 129 23 173 39l86 487h16z" />
    <glyph glyph-name="ydieresis.alt" horiz-adv-x="548" 
d="M528 760l-22 -121h-17l22 121h17zM280 760h17l-22 -121h-17zM463 1c-29 -161 -89 -213 -238 -213c-59 0 -97 3 -165 10l3 15c52 -5 112 -10 162 -10c138 0 194 42 222 198l4 25c-37 -14 -103 -38 -172 -38c-116 0 -168 50 -168 157c0 26 4 55 10 88l52 296h16l-53 -299
c-6 -32 -9 -60 -9 -85c0 -101 50 -142 154 -142c68 0 129 23 173 39l86 487h16z" />
    <glyph glyph-name="zcaron.alt" horiz-adv-x="462" 
d="M208 770h20l106 -139l154 139h22l-171 -154h-14zM414 15l-2 -15h-367l2 15l433 498h-317l-11 -61h-16l14 77h354l-3 -15l-434 -499h347z" />
    <glyph glyph-name="two.alt" horiz-adv-x="572" 
d="M188 628l19 109c35 6 117 17 187 17c150 0 219 -43 219 -133c0 -132 -112 -195 -238 -258c-194 -97 -249 -141 -283 -334l-3 -13h413l-3 -16h-429l5 29c35 201 96 247 293 347c110 56 228 113 228 245c0 84 -67 117 -204 117c-48 0 -127 -8 -172 -15l-17 -95h-15z" />
    <glyph glyph-name="three.alt" horiz-adv-x="557" 
d="M596 617c0 -16 -2 -32 -8 -64c-14 -78 -47 -145 -150 -164c71 -14 96 -65 96 -111c0 -24 -3 -43 -13 -96c-23 -120 -89 -194 -276 -194c-66 0 -153 6 -180 10l3 15c37 -4 117 -10 177 -10c184 0 239 73 261 184c10 50 12 70 12 90c0 47 -25 105 -137 105h-228l3 16h228
c143 0 174 83 188 159c6 32 7 46 7 60c0 80 -51 121 -201 121c-49 0 -126 -5 -169 -9l-17 -94h-15l20 108c28 5 117 11 183 11c158 0 216 -50 216 -137z" />
    <glyph glyph-name="five.alt" horiz-adv-x="572" 
d="M604 743l-20 -109h-16l17 93h-326l-81 -301h137c145 0 235 -34 235 -150c0 -15 -3 -37 -10 -75c-25 -136 -90 -211 -280 -211c-86 0 -165 10 -193 16l2 15c39 -6 120 -15 194 -15c184 0 239 72 261 198c7 40 9 57 9 72c0 109 -85 134 -221 134h-156l90 333h358z" />
    <glyph glyph-name="six.alt" horiz-adv-x="615" 
d="M652 737l-18 -103h-16l16 91c-40 5 -115 14 -178 14c-188 0 -258 -84 -288 -255l-13 -72c84 21 171 31 230 31c115 0 210 -34 210 -154c0 -26 -2 -53 -10 -89c-32 -145 -129 -212 -275 -212c-127 0 -202 63 -202 209c0 29 3 61 11 106l32 181c31 175 103 270 305 270
c77 0 168 -11 196 -17zM153 397l-18 -101c-8 -44 -11 -74 -11 -99c0 -140 70 -193 188 -193c139 0 225 61 256 198c8 35 10 61 10 87c0 113 -85 138 -193 138c-63 0 -149 -8 -232 -30z" />
    <glyph glyph-name="seven.alt" horiz-adv-x="535" 
d="M622 727l-465 -727h-19l465 727h-401l-17 -93h-16l20 109h436z" />
    <glyph glyph-name="f_i.alt" horiz-adv-x="572" 
d="M576 529l-94 -529h-17l91 513h-319l-116 -661h-16l116 661h-114l3 16h114l16 91c20 113 50 156 153 156c21 0 61 -3 80 -6l-2 -15c-20 2 -59 5 -80 5c-89 0 -116 -30 -135 -140l-16 -91h336zM601 770h17l-22 -127h-17z" />
    <glyph glyph-name="f_l.alt" horiz-adv-x="572" 
d="M618 770l-136 -770h-17l133 755c-80 5 -124 5 -155 5c-136 0 -168 -30 -187 -140l-16 -91h188l-3 -16h-188l-116 -661h-16l116 661h-114l3 16h114l16 91c20 113 50 156 203 156c30 0 76 0 157 -6h18z" />
    <glyph glyph-name="dotlessj" 
d="M200 529l-109 -617c-14 -79 -36 -124 -110 -124c-13 0 -33 0 -61 4l2 14c32 -3 49 -3 59 -3c61 0 79 32 93 109l109 617h17z" />
    <glyph glyph-name="zero.tab" horiz-adv-x="613" 
d="M658 533c0 -36 -4 -80 -24 -193c-46 -263 -157 -352 -299 -352c-115 0 -188 58 -188 218c0 39 4 83 24 196c47 263 156 352 299 352c114 0 188 -58 188 -221zM641 533c0 155 -72 205 -173 205c-127 0 -234 -78 -280 -336c-20 -112 -24 -155 -24 -197
c0 -151 71 -202 174 -202c126 0 234 79 279 337c20 112 24 156 24 193z" />
    <glyph glyph-name="one.tab" horiz-adv-x="613" 
d="M523 0h-434l2 16h209l126 712l-217 -53l3 17l217 54h17l-129 -730h208z" />
    <glyph glyph-name="two.tab" horiz-adv-x="613" 
d="M520 16l-3 -16h-429l5 29c35 201 96 247 293 347c110 56 228 113 228 245c0 84 -67 117 -204 117c-54 0 -148 -10 -188 -18l3 17c35 6 117 17 187 17c150 0 219 -43 219 -133c0 -132 -112 -195 -238 -258c-194 -97 -249 -141 -283 -334l-3 -13h413z" />
    <glyph glyph-name="three.tab" horiz-adv-x="613" 
d="M623 617c0 -16 -2 -32 -8 -64c-14 -78 -47 -145 -150 -164c75 -15 96 -65 96 -112c0 -23 -3 -42 -13 -95c-23 -120 -89 -194 -276 -194c-66 0 -153 6 -180 10l3 15c37 -4 117 -10 177 -10c184 0 239 73 261 184c10 50 12 67 12 90c0 50 -25 105 -137 105h-228l3 16h228
c143 0 174 83 188 159c6 32 7 46 7 60c0 80 -51 121 -201 121c-55 0 -147 -6 -184 -10l3 15c28 5 117 11 183 11c158 0 216 -50 216 -137z" />
    <glyph glyph-name="four.tab" horiz-adv-x="613" 
d="M608 228h-131l-40 -228h-16l40 228h-377l3 16l460 502h21l-88 -502h131zM464 244l85 483l-442 -483h357z" />
    <glyph glyph-name="five.tab" horiz-adv-x="613" 
d="M624 743l-3 -16h-342l-81 -301h137c145 0 234 -31 234 -147c0 -20 0 -38 -8 -79c-26 -136 -91 -210 -281 -210c-86 0 -165 10 -193 16l2 15c39 -6 108 -15 194 -15c184 0 240 72 262 198c7 40 8 57 8 75c0 106 -85 131 -221 131h-156l90 333h358z" />
    <glyph glyph-name="seven.tab" horiz-adv-x="613" 
d="M652 727l-465 -727h-18l465 727h-418l3 16h436z" />
    <glyph glyph-name="six.tab" horiz-adv-x="613" 
d="M652 737l-2 -15c-32 5 -121 17 -194 17c-189 0 -257 -84 -288 -255l-13 -72c84 21 171 31 230 31c115 0 210 -34 210 -154c0 -205 -117 -301 -285 -301c-127 0 -202 63 -202 209c0 29 3 61 11 106l32 181c31 175 103 270 305 270c77 0 168 -11 196 -17zM153 397l-18 -101
c-8 -44 -11 -74 -11 -99c0 -140 70 -193 188 -193c139 0 225 61 256 198c8 35 10 61 10 87c0 113 -85 138 -193 138c-63 0 -149 -8 -232 -30z" />
    <glyph glyph-name="eight.tab" horiz-adv-x="613" 
d="M653 613c0 -106 -42 -202 -152 -224c67 -14 93 -59 93 -123c0 -17 -2 -36 -7 -66c-27 -151 -101 -212 -280 -212h-8c-150 0 -209 52 -209 156c0 131 50 224 156 245c-67 16 -90 65 -90 124c0 16 1 34 6 59c22 127 92 181 272 181h7c153 0 212 -47 212 -140zM578 268
c0 64 -29 113 -125 113h-160c-152 0 -187 -130 -187 -237c0 -101 60 -141 196 -141h8c161 0 235 54 261 202c5 29 7 47 7 63zM637 614c0 87 -59 124 -198 124h-7c-162 0 -234 -50 -255 -172c-4 -24 -6 -40 -6 -55c0 -61 28 -114 125 -114h160c148 0 181 128 181 217z" />
    <glyph glyph-name="nine.tab" horiz-adv-x="613" 
d="M92 4l3 15c36 -6 133 -17 193 -17c189 0 257 84 288 255l13 72c-84 -21 -171 -31 -230 -31c-115 0 -210 34 -210 154c0 205 117 301 285 301c127 0 202 -63 202 -209c0 -29 -3 -61 -11 -106l-32 -181c-31 -175 -103 -270 -305 -270c-77 0 -171 11 -196 17zM591 344
l18 101c8 44 11 74 11 99c0 140 -70 193 -188 193c-139 0 -225 -61 -256 -198c-8 -35 -10 -61 -10 -87c0 -113 85 -138 193 -138c63 0 149 8 232 30z" />
    <glyph glyph-name="uni2215" unicode="&#x2215;" horiz-adv-x="346" 
d="M548 743l-605 -743h-20l605 743h20z" />
    <glyph glyph-name="dieresisacute" horiz-adv-x="441" 
d="M544 760l-22 -121h-17l22 121h17zM428 770h21l-169 -154h-20zM198 760l-22 -121h-17l22 121h17z" />
    <glyph glyph-name="middot" horiz-adv-x="227" 
d="M177 301h-17l24 136h17z" />
    <glyph glyph-name="dieresisgrave" horiz-adv-x="441" 
d="M522 639h-17l22 121h17zM298 770l114 -154h-19l-115 154h20zM176 639h-17l22 121h17z" />
    <glyph glyph-name="threequartersemdash" horiz-adv-x="730" 
d="M736 282h-610l3 16h610z" />
    <glyph glyph-name="overscore" horiz-adv-x="577" 
d="M727 833h-585l3 16h585z" />
    <glyph glyph-name="franc.taboldstyle" horiz-adv-x="461" 
d="M134 0h-16l26 152h-45l3 15h45l64 362h289l-3 -16h-273l-40 -225h253l-3 -16h-253l-18 -105h134l-3 -15h-134z" />
    <glyph glyph-name="lira.taboldstyle" horiz-adv-x="458" 
d="M506 533l-2 -15c-35 5 -84 8 -125 8c-119 0 -165 -45 -190 -188l-5 -27h229l-2 -15h-229l-16 -90h229l-3 -15h-229l-5 -32c-12 -68 -26 -101 -69 -143h326l-2 -16h-346l2 16c52 48 60 77 72 143l5 32h-71l3 15h71l16 90h-71l2 15h71l5 27c27 147 72 204 210 204
c44 0 91 -3 124 -9z" />
    <glyph glyph-name="currency.taboldstyle" horiz-adv-x="572" 
d="M581 176l-11 -12l-73 73c-37 -34 -84 -51 -130 -51c-47 0 -95 17 -132 52l-73 -74l-12 12l74 73c-34 37 -50 83 -50 130s17 94 50 130l-73 74l11 12l74 -74c36 34 83 50 130 50c46 0 93 -16 130 -50l73 74l12 -12l-74 -73c34 -37 51 -84 51 -131s-16 -94 -50 -130z
M542 379c0 94 -78 176 -176 176c-93 0 -176 -77 -176 -176c0 -93 78 -176 176 -176c96 0 172 79 176 176z" />
    <glyph glyph-name="peseta.taboldstyle" horiz-adv-x="472" 
d="M510 395l-2 -15h-48c-14 -91 -81 -149 -213 -149c-22 0 -63 1 -107 3l-41 -234h-18l67 380h-48l2 15h48l24 134c40 3 77 5 127 5c89 0 177 -17 161 -139h48zM449 428c0 65 -45 91 -151 91c-39 0 -73 -1 -109 -4l-47 -266c49 -2 86 -3 108 -3c124 0 199 52 199 182z" />
    <glyph glyph-name="undercommaaccent" horiz-adv-x="422" 
d="M216 -68l-132 -140h-21l132 140h21z" />
    <glyph glyph-name="DieresisAcute" horiz-adv-x="441" 
d="M206 809h-17l21 121h17zM290 786l168 154h21l-169 -154h-20zM552 809h-17l21 121h17z" />
    <glyph glyph-name="DieresisGrave" horiz-adv-x="452" 
d="M552 809h-17l21 121h17zM443 786h-20l-115 154h21zM206 809h-17l21 121h17z" />
    <glyph glyph-name="dblGrave" horiz-adv-x="402" 
d="M443 616h-19l-115 154h20zM119 770l114 -154h-19l-115 154h20z" />
    <glyph glyph-name="dblgrave" horiz-adv-x="402" 
d="M443 616h-19l-115 154h20zM119 770l114 -154h-19l-115 154h20z" />
    <glyph glyph-name="T_h.caron" horiz-adv-x="1021" 
d="M942 0h-16l58 331c6 31 9 58 9 81c0 85 -40 116 -129 116c-68 0 -144 -31 -206 -61l-84 -467h-16l128 727h-248l-128 -727h-17l128 727h-263l3 16h545l-45 -259c58 27 130 60 206 60c100 0 142 -41 142 -131c0 -24 -4 -51 -9 -82zM313 943h20l106 -139l154 139h22
l-171 -154h-14z" />
    </font>
</defs>
</svg>
