<?xml version="1.0" standalone="no"?>
<!DOCTYPE svg PUBLIC "-//W3C//DTD SVG 1.1//EN" "http://www.w3.org/Graphics/SVG/1.1/DTD/svg11.dtd" >
<svg xmlns="http://www.w3.org/2000/svg" xmlns:xlink="http://www.w3.org/1999/xlink" version="1.1">
<metadata>
Created by FontForge 20141024 at Thu Apr 30 19:02:35 2015
 By System Administrator
Copyright (c) Mark Simonson, 2005. All rights reserved.
</metadata>
<defs>
<font id="ProximaNovaExCn-Thin" horiz-adv-x="342" >
  <font-face 
    font-family="Proxima Nova ExCn Th"
    font-weight="250"
    font-stretch="normal"
    units-per-em="1000"
    panose-1="2 0 5 6 3 0 0 2 0 4"
    ascent="790"
    descent="-210"
    x-height="483"
    cap-height="667"
    bbox="-101 -258 811 886"
    underline-thickness="20"
    underline-position="-113"
    stemh="30"
    stemv="32"
    unicode-range="U+000D-FB04"
  />
<missing-glyph horiz-adv-x="495" 
d="M423 -90h-351v842h351v-842zM391 -60v782h-288v-782h288z" />
    <glyph glyph-name="f_b" unicode="fb" horiz-adv-x="553" 
d="M108 0h-30v456h-50v27h50v107c0 51 33 87 74 87c16 0 27 -5 37 -14l-15 -22c-5 6 -13 9 -22 9c-27 0 -44 -23 -44 -60v-107h70v-27h-70v-456zM297 115c12 -51 50 -100 88 -100c70 0 88 110 88 226s-18 227 -88 227c-38 0 -76 -51 -88 -102v-251zM297 0h-30v667h30v-256
c20 57 56 84 88 84c88 0 121 -113 121 -254c0 -142 -33 -253 -121 -253c-32 0 -68 32 -88 82v-70z" />
    <glyph glyph-name="f_f" unicode="ff" horiz-adv-x="404" 
d="M108 0h-30v456h-50v27h50v107c0 51 30 87 79 87c20 0 42 -8 56 -27l-20 -23c-12 17 -23 23 -36 23c-34 0 -49 -23 -49 -60v-107h70v-27h-70v-456zM310 0h-30v456h-50v27h50v107c0 51 30 87 79 87c20 0 42 -8 56 -27l-20 -23c-12 17 -23 23 -36 23c-34 0 -49 -23 -49 -60
v-107h70v-27h-70v-456z" />
    <glyph glyph-name="f_h" unicode="fh" horiz-adv-x="544" 
d="M108 0h-30v456h-50v27h50v107c0 51 33 87 74 87c16 0 27 -5 37 -14l-15 -22c-5 6 -13 9 -22 9c-27 0 -44 -23 -44 -60v-107h70v-27h-70v-456zM479 0h-30v394c0 51 -19 74 -53 74c-43 0 -81 -46 -99 -94v-374h-30v667h30v-256c22 46 60 84 103 84c55 0 79 -28 79 -101
v-394z" />
    <glyph glyph-name="fi" unicode="fi" horiz-adv-x="362" 
d="M108 0h-30v456h-50v27h50v107c0 51 33 87 74 87c16 0 27 -5 37 -14l-15 -22c-5 6 -13 9 -22 9c-27 0 -44 -23 -44 -60v-107h70v-27h-70v-456zM282 566c-15 0 -29 13 -29 29s14 29 29 29c16 0 29 -13 29 -29s-13 -29 -29 -29zM297 0h-30v483h30v-483z" />
    <glyph glyph-name="f_j" unicode="fj" horiz-adv-x="362" 
d="M108 0h-30v456h-50v27h50v107c0 51 33 87 74 87c16 0 27 -5 37 -14l-15 -22c-5 6 -13 9 -22 9c-27 0 -44 -23 -44 -60v-107h70v-27h-70v-456zM282 566c-15 0 -29 13 -29 29s14 29 29 29c16 0 29 -13 29 -29s-13 -29 -29 -29zM233 -196c-28 0 -46 12 -57 38l27 14
c6 -15 15 -25 30 -25c20 0 34 14 34 73v579h30v-579c0 -80 -28 -100 -64 -100z" />
    <glyph glyph-name="f_k" unicode="fk" horiz-adv-x="527" 
d="M108 0h-30v456h-50v27h50v107c0 51 33 87 74 87c16 0 27 -5 37 -14l-15 -22c-5 6 -13 9 -22 9c-27 0 -44 -23 -44 -60v-107h70v-27h-70v-456zM503 0h-32l-108 242l-66 -110v-132h-30v667h30v-489l179 305h31l-128 -218z" />
    <glyph glyph-name="fl" unicode="fl" horiz-adv-x="362" 
d="M108 0h-30v456h-50v27h50v107c0 51 33 87 74 87c16 0 27 -5 37 -14l-15 -22c-5 6 -13 9 -22 9c-27 0 -44 -23 -44 -60v-107h70v-27h-70v-456zM297 0h-30v667h30v-667z" />
    <glyph glyph-name="f_f_i" unicode="ffi" horiz-adv-x="564" 
d="M108 0h-30v456h-50v27h50v107c0 51 30 87 79 87c20 0 42 -8 56 -27l-20 -23c-12 17 -23 23 -36 23c-34 0 -49 -23 -49 -60v-107h70v-27h-70v-456zM310 0h-30v456h-50v27h50v107c0 51 33 87 74 87c16 0 27 -5 37 -14l-15 -22c-5 6 -13 9 -22 9c-27 0 -44 -23 -44 -60v-107
h70v-27h-70v-456zM484 566c-15 0 -29 13 -29 29s14 29 29 29c16 0 29 -13 29 -29s-13 -29 -29 -29zM499 0h-30v483h30v-483z" />
    <glyph glyph-name="f_f_j" unicode="ffj" horiz-adv-x="564" 
d="M108 0h-30v456h-50v27h50v107c0 51 30 87 79 87c20 0 42 -8 56 -27l-20 -23c-12 17 -23 23 -36 23c-34 0 -49 -23 -49 -60v-107h70v-27h-70v-456zM310 0h-30v456h-50v27h50v107c0 51 33 87 74 87c16 0 27 -5 37 -14l-15 -22c-5 6 -13 9 -22 9c-27 0 -44 -23 -44 -60v-107
h70v-27h-70v-456zM484 566c-15 0 -29 13 -29 29s14 29 29 29c16 0 29 -13 29 -29s-13 -29 -29 -29zM435 -196c-28 0 -46 12 -57 38l27 14c6 -15 15 -25 30 -25c20 0 34 14 34 73v579h30v-579c0 -80 -28 -100 -64 -100z" />
    <glyph glyph-name="f_f_l" unicode="ffl" horiz-adv-x="564" 
d="M108 0h-30v456h-50v27h50v107c0 51 30 87 79 87c20 0 42 -8 56 -27l-20 -23c-12 17 -23 23 -36 23c-34 0 -49 -23 -49 -60v-107h70v-27h-70v-456zM310 0h-30v456h-50v27h50v107c0 51 33 87 74 87c16 0 27 -5 37 -14l-15 -22c-5 6 -13 9 -22 9c-27 0 -44 -23 -44 -60v-107
h70v-27h-70v-456zM499 0h-30v667h30v-667z" />
    <glyph glyph-name=".notdef" horiz-adv-x="495" 
d="M423 -90h-351v842h351v-842zM391 -60v782h-288v-782h288z" />
    <glyph glyph-name=".null" horiz-adv-x="0" 
 />
    <glyph glyph-name=".null" horiz-adv-x="0" 
 />
    <glyph glyph-name="CR" unicode="&#xd;" horiz-adv-x="0" 
 />
    <glyph glyph-name="space" unicode=" " horiz-adv-x="180" 
 />
    <glyph glyph-name="nbspace" unicode="&#xa0;" horiz-adv-x="180" 
 />
    <glyph glyph-name="thinspace" unicode="&#x2009;" horiz-adv-x="36" 
 />
    <glyph glyph-name="zero" unicode="0" horiz-adv-x="377" 
d="M189 -12c-119 0 -136 199 -136 345c0 147 17 344 136 344s135 -197 135 -344c0 -146 -15 -345 -135 -345zM189 18c94 0 100 190 100 315c0 126 -6 314 -100 314s-101 -188 -101 -314c0 -125 5 -315 101 -315z" />
    <glyph glyph-name="zero.pzero" horiz-adv-x="377" 
d="M189 -12c-40 0 -68 21 -88 56l-15 -44h-33l30 84c-25 71 -30 168 -30 249c0 147 17 344 136 344c38 0 66 -21 86 -54l16 44h33l-30 -84c25 -71 30 -168 30 -250c0 -146 -15 -345 -135 -345zM189 18c94 0 100 190 100 315c0 61 -2 137 -14 198l-160 -448
c15 -39 38 -65 74 -65zM88 333c0 -61 1 -136 13 -198l160 448c-15 38 -38 64 -72 64c-94 0 -101 -188 -101 -314z" />
    <glyph glyph-name="one" unicode="1" horiz-adv-x="243" 
d="M171 0h-32v621l-105 -115l-22 23l129 138h30v-667z" />
    <glyph glyph-name="two" unicode="2" horiz-adv-x="348" 
d="M295 0h-235v28c179 347 200 409 200 501c0 69 -35 118 -83 118c-45 0 -73 -31 -95 -92l-31 14c30 69 61 108 126 108c74 0 118 -63 118 -148c0 -86 -24 -166 -201 -499h201v-30z" />
    <glyph glyph-name="three" unicode="3" horiz-adv-x="347" 
d="M164 -12c-63 0 -107 54 -128 115l31 13c20 -55 48 -98 97 -98c71 0 95 62 95 160c0 123 -57 152 -97 152c-11 0 -28 0 -34 -1v32c8 -1 25 -1 34 -1c52 0 90 47 90 139c0 103 -31 148 -87 148c-50 0 -73 -41 -91 -90l-31 13c22 67 70 107 122 107c71 0 123 -51 123 -174
c0 -69 -28 -137 -84 -158c47 -12 90 -79 90 -168c0 -106 -34 -189 -130 -189z" />
    <glyph glyph-name="four" unicode="4" horiz-adv-x="310" 
d="M243 0h-32v195h-199v33l189 439h42v-442h55v-30h-55v-195zM211 225v391l-168 -391h168z" />
    <glyph glyph-name="five" unicode="5" horiz-adv-x="348" 
d="M174 -12c-77 0 -103 49 -127 115l32 11c17 -62 42 -96 95 -96c60 0 91 90 91 180c0 126 -31 182 -83 182c-36 0 -59 -14 -92 -69l-27 16v340h214v-30h-182v-284c20 34 50 57 87 57c72 0 118 -73 118 -212c0 -107 -47 -210 -126 -210z" />
    <glyph glyph-name="six" unicode="6" horiz-adv-x="350" 
d="M184 -12c-115 0 -131 180 -131 345c0 161 18 344 142 344c51 0 92 -37 110 -96l-28 -15c-16 51 -38 81 -82 81c-97 0 -107 -191 -107 -324v-19c16 52 48 102 100 102c68 0 119 -68 119 -210c0 -96 -29 -208 -123 -208zM184 18c68 0 88 88 88 178c0 139 -37 180 -85 180
c-53 0 -83 -72 -98 -130c1 -73 8 -228 95 -228z" />
    <glyph glyph-name="seven" unicode="7" horiz-adv-x="278" 
d="M112 0h-33l141 637h-196v30h230v-22z" />
    <glyph glyph-name="eight" unicode="8" horiz-adv-x="348" 
d="M174 -12c-82 0 -126 65 -126 166c0 92 61 163 100 190c-35 24 -93 86 -93 172c0 105 50 161 119 161c70 0 119 -56 119 -161c0 -86 -58 -148 -92 -172c38 -27 99 -98 99 -189c0 -102 -45 -167 -126 -167zM174 359c12 5 84 56 84 157c0 79 -27 131 -84 131
s-84 -52 -84 -131c0 -101 72 -152 84 -157zM174 18c53 0 91 49 91 137c0 106 -75 172 -91 175c-16 -3 -91 -69 -91 -176c0 -87 37 -136 91 -136z" />
    <glyph glyph-name="nine" unicode="9" horiz-adv-x="350" 
d="M155 -11c-51 0 -92 37 -110 96l28 15c16 -51 38 -81 82 -81c97 0 107 191 107 324v19c-16 -52 -48 -102 -100 -102c-68 0 -119 68 -119 210c0 96 29 208 123 208c115 0 131 -180 131 -345c0 -161 -18 -344 -142 -344zM163 290c53 0 83 72 98 130c-1 73 -8 228 -95 228
c-68 0 -88 -88 -88 -178c0 -139 37 -180 85 -180z" />
    <glyph glyph-name="zero.tnum" unicode="&#xf639;" horiz-adv-x="348" 
d="M174 -12c-119 0 -136 199 -136 345c0 147 17 344 136 344s135 -197 135 -344c0 -146 -15 -345 -135 -345zM174 18c94 0 100 190 100 315c0 126 -6 314 -100 314s-101 -188 -101 -314c0 -125 5 -315 101 -315z" />
    <glyph glyph-name="zero.tzero" unicode="&#xf638;" horiz-adv-x="348" 
d="M174 -12c-40 0 -68 21 -88 56l-15 -44h-33l30 84c-25 71 -30 168 -30 249c0 147 17 344 136 344c38 0 66 -21 86 -54l16 44h33l-30 -84c25 -71 30 -168 30 -250c0 -146 -15 -345 -135 -345zM174 18c94 0 100 190 100 315c0 61 -2 137 -14 198l-160 -448
c15 -39 38 -65 74 -65zM73 333c0 -61 1 -136 13 -198l160 448c-15 38 -38 64 -72 64c-94 0 -101 -188 -101 -314z" />
    <glyph glyph-name="one.tnum" unicode="&#xf6dc;" horiz-adv-x="348" 
d="M241 0h-32v621l-105 -115l-22 23l129 138h30v-667z" />
    <glyph glyph-name="two.tnum" unicode="&#xf63a;" horiz-adv-x="348" 
d="M293 0h-235v28c179 347 200 409 200 501c0 69 -35 118 -83 118c-45 0 -73 -31 -95 -92l-31 14c30 69 61 108 126 108c74 0 118 -63 118 -148c0 -86 -24 -166 -201 -499h201v-30z" />
    <glyph glyph-name="three.tnum" unicode="&#xf63b;" horiz-adv-x="348" 
d="M165 -12c-63 0 -107 54 -128 115l31 13c20 -55 48 -98 97 -98c71 0 95 62 95 160c0 123 -57 152 -97 152c-11 0 -28 0 -34 -1v32c8 -1 25 -1 34 -1c52 0 90 47 90 139c0 103 -31 148 -87 148c-50 0 -73 -41 -91 -90l-31 13c22 67 70 107 122 107c71 0 123 -51 123 -174
c0 -69 -28 -137 -84 -158c47 -12 90 -79 90 -168c0 -106 -34 -189 -130 -189z" />
    <glyph glyph-name="four.tnum" unicode="&#xf63c;" horiz-adv-x="348" 
d="M262 0h-32v195h-199v33l189 439h42v-442h55v-30h-55v-195zM230 225v391l-168 -391h168z" />
    <glyph glyph-name="five.tnum" unicode="&#xf63d;" horiz-adv-x="348" 
d="M174 -12c-77 0 -103 49 -127 115l32 11c17 -62 42 -96 95 -96c60 0 91 90 91 180c0 126 -31 182 -83 182c-36 0 -59 -14 -92 -69l-27 16v340h214v-30h-182v-284c20 34 50 57 87 57c72 0 118 -73 118 -212c0 -107 -47 -210 -126 -210z" />
    <glyph glyph-name="six.tnum" unicode="&#xf63e;" horiz-adv-x="348" 
d="M182 -12c-115 0 -131 180 -131 345c0 161 18 344 142 344c51 0 92 -37 110 -96l-28 -15c-16 51 -38 81 -82 81c-97 0 -107 -191 -107 -324v-19c16 52 48 102 100 102c68 0 119 -68 119 -210c0 -96 -29 -208 -123 -208zM182 18c68 0 88 88 88 178c0 139 -37 180 -85 180
c-53 0 -83 -72 -98 -130c1 -73 8 -228 95 -228z" />
    <glyph glyph-name="seven.tnum" unicode="&#xf63f;" horiz-adv-x="348" 
d="M147 0h-33l141 637h-196v30h230v-22z" />
    <glyph glyph-name="eight.tnum" unicode="&#xf640;" horiz-adv-x="348" 
d="M174 -12c-82 0 -126 65 -126 166c0 92 61 163 100 190c-35 24 -93 86 -93 172c0 105 50 161 119 161c70 0 119 -56 119 -161c0 -86 -58 -148 -92 -172c38 -27 99 -98 99 -189c0 -102 -45 -167 -126 -167zM174 359c12 5 84 56 84 157c0 79 -27 131 -84 131
s-84 -52 -84 -131c0 -101 72 -152 84 -157zM174 18c53 0 91 49 91 137c0 106 -75 172 -91 175c-16 -3 -91 -69 -91 -176c0 -87 37 -136 91 -136z" />
    <glyph glyph-name="nine.tnum" unicode="&#xf641;" horiz-adv-x="348" 
d="M155 -11c-51 0 -92 37 -110 96l28 15c16 -51 38 -81 82 -81c97 0 107 191 107 324v19c-16 -52 -48 -102 -100 -102c-68 0 -119 68 -119 210c0 96 29 208 123 208c115 0 131 -180 131 -345c0 -161 -18 -344 -142 -344zM163 290c53 0 83 72 98 130c-1 73 -8 228 -95 228
c-68 0 -88 -88 -88 -178c0 -139 37 -180 85 -180z" />
    <glyph glyph-name="zero.tonum" unicode="&#xf643;" horiz-adv-x="348" 
d="M309 275c0 -111 -15 -287 -135 -287c-119 0 -136 176 -136 287c0 112 17 287 136 287s135 -175 135 -287zM274 275c0 93 -6 257 -100 257s-101 -164 -101 -257c0 -92 5 -257 101 -257c94 0 100 165 100 257z" />
    <glyph glyph-name="zero.tonumzero" horiz-adv-x="348" 
d="M309 275c0 -111 -15 -287 -135 -287c-37 0 -64 16 -83 42l-12 -30h-33l25 64c-28 61 -33 147 -33 211c0 112 17 287 136 287c35 0 60 -16 80 -40l11 28h33l-24 -60c29 -61 35 -149 35 -215zM274 275c0 49 -2 118 -17 172l-152 -382c15 -29 36 -47 69 -47
c94 0 100 165 100 257zM73 275c0 -48 1 -115 15 -168l152 381c-15 26 -36 44 -66 44c-94 0 -101 -164 -101 -257z" />
    <glyph glyph-name="one.tonum" unicode="&#xf644;" horiz-adv-x="348" 
d="M241 0h-32v504l-105 -115l-22 23l129 138h30v-550z" />
    <glyph glyph-name="two.tonum" unicode="&#xf645;" horiz-adv-x="348" 
d="M283 0h-225v29c179 207 200 301 200 376c0 74 -35 127 -83 127c-45 0 -73 -31 -95 -92l-31 14c27 71 61 108 126 108c74 0 118 -71 118 -157c0 -68 -17 -177 -194 -375h184v-30z" />
    <glyph glyph-name="three.tonum" unicode="&#xf646;" horiz-adv-x="348" 
d="M165 -127c-63 0 -107 54 -128 115l31 13c20 -55 48 -98 97 -98c71 0 95 62 95 160c0 123 -57 152 -97 152c-11 0 -28 0 -34 -1v32c8 -1 25 -1 34 -1c52 0 90 47 90 139c0 103 -31 148 -87 148c-50 0 -73 -41 -91 -90l-31 13c22 67 70 107 122 107c71 0 123 -51 123 -174
c0 -69 -28 -137 -84 -158c47 -12 90 -79 90 -168c0 -106 -34 -189 -130 -189z" />
    <glyph glyph-name="four.tonum" unicode="&#xf647;" horiz-adv-x="348" 
d="M317 78h-55v-195h-32v195h-199v33l189 439h42v-442h55v-30zM230 108v391l-168 -391h168z" />
    <glyph glyph-name="five.tonum" unicode="&#xf648;" horiz-adv-x="348" 
d="M174 -129c-77 0 -103 49 -127 115l32 11c17 -62 42 -96 95 -96c60 0 91 90 91 180c0 126 -31 182 -83 182c-36 0 -59 -14 -92 -69l-27 16v340h214v-30h-182v-284c20 34 50 57 87 57c72 0 118 -73 118 -212c0 -107 -47 -210 -126 -210z" />
    <glyph glyph-name="six.tonum" unicode="&#xf649;" horiz-adv-x="348" 
d="M182 -12c-115 0 -131 180 -131 345c0 161 18 344 142 344c51 0 92 -37 110 -96l-28 -15c-16 51 -38 81 -82 81c-97 0 -107 -191 -107 -324v-19c16 52 48 102 100 102c68 0 119 -68 119 -210c0 -96 -29 -208 -123 -208zM182 18c68 0 88 88 88 178c0 139 -37 180 -85 180
c-53 0 -83 -72 -98 -130c1 -73 8 -228 95 -228z" />
    <glyph glyph-name="seven.tonum" unicode="&#xf64a;" horiz-adv-x="348" 
d="M147 -117h-33l141 637h-196v30h230v-22z" />
    <glyph glyph-name="eight.tonum" unicode="&#xf64b;" horiz-adv-x="348" 
d="M174 -12c-82 0 -126 65 -126 166c0 92 61 163 100 190c-35 24 -93 86 -93 172c0 105 50 161 119 161c70 0 119 -56 119 -161c0 -86 -58 -148 -92 -172c38 -27 99 -98 99 -189c0 -102 -45 -167 -126 -167zM174 359c12 5 84 56 84 157c0 79 -27 131 -84 131
s-84 -52 -84 -131c0 -101 72 -152 84 -157zM174 18c53 0 91 49 91 137c0 106 -75 172 -91 175c-16 -3 -91 -69 -91 -176c0 -87 37 -136 91 -136z" />
    <glyph glyph-name="nine.tonum" unicode="&#xf64c;" horiz-adv-x="348" 
d="M155 -127c-51 0 -92 37 -110 96l28 15c16 -51 38 -81 82 -81c97 0 107 191 107 324v19c-16 -52 -48 -102 -100 -102c-68 0 -119 68 -119 210c0 96 29 208 123 208c115 0 131 -180 131 -345c0 -161 -18 -344 -142 -344zM163 174c53 0 83 72 98 130c-1 73 -8 228 -95 228
c-68 0 -88 -88 -88 -178c0 -139 37 -180 85 -180z" />
    <glyph glyph-name="zero.onum" unicode="&#xf730;" horiz-adv-x="377" 
d="M324 275c0 -111 -15 -287 -135 -287c-119 0 -136 176 -136 287c0 112 17 287 136 287s135 -175 135 -287zM289 275c0 93 -6 257 -100 257s-101 -164 -101 -257c0 -92 5 -257 101 -257c94 0 100 165 100 257z" />
    <glyph glyph-name="zero.onumzero" horiz-adv-x="377" 
d="M324 275c0 -111 -15 -287 -135 -287c-37 0 -64 16 -83 42l-12 -30h-33l25 64c-28 61 -33 147 -33 211c0 112 17 287 136 287c35 0 60 -16 80 -40l11 28h33l-24 -60c29 -61 35 -149 35 -215zM289 275c0 49 -2 118 -17 172l-152 -382c15 -29 36 -47 69 -47
c94 0 100 165 100 257zM88 275c0 -48 1 -115 15 -168l152 381c-15 26 -36 44 -66 44c-94 0 -101 -164 -101 -257z" />
    <glyph glyph-name="one.onum" unicode="&#xf731;" horiz-adv-x="243" 
d="M171 0h-32v504l-105 -115l-22 23l129 138h30v-550z" />
    <glyph glyph-name="two.onum" unicode="&#xf732;" horiz-adv-x="348" 
d="M285 0h-225v29c179 207 200 301 200 376c0 74 -35 127 -83 127c-45 0 -73 -31 -95 -92l-31 14c27 71 61 108 126 108c74 0 118 -71 118 -157c0 -68 -17 -177 -194 -375h184v-30z" />
    <glyph glyph-name="three.onum" unicode="&#xf733;" horiz-adv-x="347" 
d="M164 -129c-63 0 -107 54 -128 115l31 13c20 -55 48 -98 97 -98c71 0 95 62 95 160c0 123 -57 152 -97 152c-11 0 -28 0 -34 -1v32c8 -1 25 -1 34 -1c52 0 90 47 90 139c0 103 -31 148 -87 148c-50 0 -73 -41 -91 -90l-31 13c22 67 70 107 122 107c71 0 123 -51 123 -174
c0 -69 -28 -137 -84 -158c47 -12 90 -79 90 -168c0 -106 -34 -189 -130 -189z" />
    <glyph glyph-name="four.onum" unicode="&#xf734;" horiz-adv-x="310" 
d="M298 78h-55v-195h-32v195h-199v33l189 439h42v-442h55v-30zM211 108v391l-168 -391h168z" />
    <glyph glyph-name="five.onum" unicode="&#xf735;" horiz-adv-x="348" 
d="M174 -129c-77 0 -103 49 -127 115l32 11c17 -62 42 -96 95 -96c60 0 91 90 91 180c0 126 -31 182 -83 182c-36 0 -59 -14 -92 -69l-27 16v340h214v-30h-182v-284c20 34 50 57 87 57c72 0 118 -73 118 -212c0 -107 -47 -210 -126 -210z" />
    <glyph glyph-name="six.onum" unicode="&#xf736;" horiz-adv-x="350" 
d="M184 -12c-115 0 -131 180 -131 345c0 161 18 344 142 344c51 0 92 -37 110 -96l-28 -15c-16 51 -38 81 -82 81c-97 0 -107 -191 -107 -324v-19c16 52 48 102 100 102c68 0 119 -68 119 -210c0 -96 -29 -208 -123 -208zM184 18c68 0 88 88 88 178c0 139 -37 180 -85 180
c-53 0 -83 -72 -98 -130c1 -73 8 -228 95 -228z" />
    <glyph glyph-name="seven.onum" unicode="&#xf737;" horiz-adv-x="278" 
d="M112 -117h-33l141 637h-196v30h230v-22z" />
    <glyph glyph-name="eight.onum" unicode="&#xf738;" horiz-adv-x="348" 
d="M174 -12c-82 0 -126 65 -126 166c0 92 61 163 100 190c-35 24 -93 86 -93 172c0 105 50 161 119 161c70 0 119 -56 119 -161c0 -86 -58 -148 -92 -172c38 -27 99 -98 99 -189c0 -102 -45 -167 -126 -167zM174 359c12 5 84 56 84 157c0 79 -27 131 -84 131
s-84 -52 -84 -131c0 -101 72 -152 84 -157zM174 18c53 0 91 49 91 137c0 106 -75 172 -91 175c-16 -3 -91 -69 -91 -176c0 -87 37 -136 91 -136z" />
    <glyph glyph-name="nine.onum" unicode="&#xf739;" horiz-adv-x="350" 
d="M155 -128c-51 0 -92 37 -110 96l28 15c16 -51 38 -81 82 -81c97 0 107 191 107 324v19c-16 -52 -48 -102 -100 -102c-68 0 -119 68 -119 210c0 96 29 208 123 208c115 0 131 -180 131 -345c0 -161 -18 -344 -142 -344zM163 173c53 0 83 72 98 130c-1 73 -8 228 -95 228
c-68 0 -88 -88 -88 -178c0 -139 37 -180 85 -180z" />
    <glyph glyph-name="A" unicode="A" horiz-adv-x="312" 
d="M300 0h-33l-32 179h-158l-32 -179h-33l125 667h38zM230 209l-74 411l-74 -411h148z" />
    <glyph glyph-name="B" unicode="B" horiz-adv-x="360" 
d="M172 0h-100v667h96c78 0 130 -60 130 -170c0 -84 -28 -132 -78 -153c53 -9 87 -87 87 -164c0 -114 -44 -180 -135 -180zM168 358c73 0 95 62 95 139c0 76 -22 140 -95 140h-64v-279h64zM172 30c74 0 100 58 100 149c0 76 -26 149 -100 149h-68v-298h68z" />
    <glyph glyph-name="C" unicode="C" horiz-adv-x="357" 
d="M198 -12c-108 0 -145 155 -145 345s37 345 145 345c65 0 95 -49 113 -103l-30 -12c-18 52 -38 85 -83 85c-79 0 -110 -140 -110 -315s31 -315 110 -315c51 0 71 46 86 105l30 -12c-16 -68 -49 -123 -116 -123z" />
    <glyph glyph-name="D" unicode="D" horiz-adv-x="386" 
d="M165 0h-93v667h93c120 0 168 -140 168 -334c0 -196 -48 -333 -168 -333zM165 30c100 0 133 134 133 303c0 167 -33 304 -133 304h-61v-607h61z" />
    <glyph glyph-name="E" unicode="E" horiz-adv-x="330" 
d="M282 0h-210v667h210v-30h-178v-279h171v-30h-171v-298h178v-30z" />
    <glyph glyph-name="F" unicode="F" horiz-adv-x="330" 
d="M104 0h-32v667h210v-30h-178v-279h171v-30h-171v-328z" />
    <glyph glyph-name="G" unicode="G" horiz-adv-x="375" 
d="M198 -12c-102 0 -145 141 -145 345c0 205 43 345 145 345c65 0 95 -49 113 -103l-30 -12c-18 52 -38 85 -83 85c-82 0 -110 -143 -110 -315c0 -171 28 -315 110 -315c37 0 65 19 81 51v221h-101v30h133v-259c-26 -50 -69 -73 -113 -73z" />
    <glyph glyph-name="G.alt1" horiz-adv-x="375" 
d="M198 -12c-102 0 -145 141 -145 345c0 205 43 345 145 345c65 0 95 -49 113 -103l-30 -12c-18 52 -38 85 -83 85c-82 0 -110 -143 -110 -315c0 -171 28 -315 110 -315c76 0 99 129 99 272h-119v30h155c0 -215 -35 -332 -135 -332z" />
    <glyph glyph-name="H" unicode="H" horiz-adv-x="395" 
d="M323 0h-32v328h-187v-328h-32v667h32v-309h187v309h32v-667z" />
    <glyph glyph-name="I" unicode="I" horiz-adv-x="176" 
d="M104 0h-32v667h32v-667z" />
    <glyph glyph-name="J" unicode="J" horiz-adv-x="298" 
d="M109 -12c-41 0 -73 15 -103 54l24 23c23 -34 51 -47 79 -47c55 0 85 29 85 103v546h32v-546c0 -93 -46 -133 -117 -133z" />
    <glyph glyph-name="K" unicode="K" horiz-adv-x="372" 
d="M354 0h-39l-164 319l-47 -88v-231h-32v667h32v-380l198 380h39l-174 -319z" />
    <glyph glyph-name="L" unicode="L" horiz-adv-x="306" 
d="M282 0h-210v667h32v-637h178v-30z" />
    <glyph glyph-name="M" unicode="M" horiz-adv-x="508" 
d="M436 0h-32v609l-141 -609h-18l-141 609v-609h-32v667h52l130 -557l131 557h51v-667z" />
    <glyph glyph-name="N" unicode="N" horiz-adv-x="395" 
d="M323 0h-32l-187 575v-575h-32v667h32l187 -569v569h32v-667z" />
    <glyph glyph-name="O" unicode="O" horiz-adv-x="396" 
d="M198 -12c-110 0 -145 160 -145 345s35 345 145 345s145 -160 145 -345s-35 -345 -145 -345zM198 18c82 0 110 150 110 315c0 167 -28 315 -110 315s-110 -148 -110 -315c0 -165 28 -315 110 -315z" />
    <glyph glyph-name="P" unicode="P" horiz-adv-x="341" 
d="M104 0h-32v667h100c94 0 135 -87 135 -189s-41 -189 -135 -189h-68v-289zM171 319c70 0 101 67 101 159s-31 159 -101 159h-67v-318h67z" />
    <glyph glyph-name="Q" unicode="Q" horiz-adv-x="396" 
d="M198 -12c-110 0 -145 160 -145 345s35 345 145 345s145 -160 145 -345c0 -127 -16 -241 -62 -301l21 -55l-29 -12l-16 42c-17 -12 -37 -19 -59 -19zM198 18c18 0 34 7 47 20l-61 162l30 12l53 -142c29 58 41 157 41 263c0 167 -28 315 -110 315s-110 -148 -110 -315
c0 -165 28 -315 110 -315z" />
    <glyph glyph-name="R" unicode="R" horiz-adv-x="366" 
d="M313 0h-36l-99 289h-74v-289h-32v667h100c79 0 135 -67 135 -189s-54 -172 -98 -184zM171 319c70 0 101 67 101 159s-31 159 -101 159h-67v-318h67z" />
    <glyph glyph-name="S" unicode="S" horiz-adv-x="319" 
d="M145 -12c-46 0 -88 21 -118 57l24 26c21 -32 59 -53 94 -53c56 0 103 50 103 129c0 181 -203 202 -203 385c0 91 60 146 125 146c38 0 71 -13 97 -41l-19 -25c-21 24 -47 36 -78 36c-48 0 -93 -44 -93 -116c0 -154 203 -189 203 -385c0 -90 -54 -159 -135 -159z" />
    <glyph glyph-name="T" unicode="T" horiz-adv-x="287" 
d="M159 0h-32v637h-109v30h251v-30h-110v-637z" />
    <glyph glyph-name="U" unicode="U" horiz-adv-x="396" 
d="M198 -12c-79 0 -126 50 -126 166v513h32v-513c0 -101 38 -136 94 -136s94 35 94 136v513h32v-513c0 -116 -47 -166 -126 -166z" />
    <glyph glyph-name="V" unicode="V" horiz-adv-x="312" 
d="M175 0h-38l-125 667h33l111 -620l111 620h33z" />
    <glyph glyph-name="W" unicode="W" horiz-adv-x="490" 
d="M366 0h-38l-83 587l-83 -587h-38l-100 667h35l84 -604l85 604h34l85 -604l84 604h35z" />
    <glyph glyph-name="X" unicode="X" horiz-adv-x="308" 
d="M300 0h-36l-110 302l-110 -302h-36l128 338l-121 329h37l102 -291l102 291h37l-121 -328z" />
    <glyph glyph-name="Y" unicode="Y" horiz-adv-x="322" 
d="M177 0h-32v289l-143 378h36l123 -339l125 339h34l-143 -378v-289z" />
    <glyph glyph-name="Z" unicode="Z" horiz-adv-x="309" 
d="M273 0h-237v31l197 606h-197v30h230v-30l-198 -607h205v-30z" />
    <glyph glyph-name="a" unicode="a" 
d="M277 0h-30v53c-23 -49 -58 -65 -88 -65c-74 0 -118 68 -118 161s44 161 118 161c30 0 65 -15 88 -63v101c0 78 -17 120 -77 120c-33 0 -61 -13 -93 -54l-18 23c38 41 73 58 111 58c81 0 107 -48 107 -146v-349zM159 15c35 0 69 18 88 73v120c-19 56 -53 75 -88 75
c-59 0 -85 -65 -85 -134s26 -134 85 -134z" />
    <glyph glyph-name="a.alt1" horiz-adv-x="351" 
d="M286 0h-30v70c-20 -50 -56 -82 -88 -82c-88 0 -121 111 -121 253c0 141 33 254 121 254c32 0 68 -27 88 -84v72h30v-483zM168 15c38 0 76 49 88 100v251c-12 51 -50 102 -88 102c-70 0 -88 -111 -88 -227s18 -226 88 -226z" />
    <glyph glyph-name="b" unicode="b" horiz-adv-x="351" 
d="M95 115c12 -51 50 -100 88 -100c70 0 88 110 88 226s-18 227 -88 227c-38 0 -76 -51 -88 -102v-251zM95 0h-30v667h30v-256c20 57 56 84 88 84c88 0 121 -113 121 -254c0 -142 -33 -253 -121 -253c-32 0 -68 32 -88 82v-70z" />
    <glyph glyph-name="c" unicode="c" horiz-adv-x="294" 
d="M183 -12c-94 0 -136 115 -136 254s42 253 136 253c40 0 61 -18 84 -45l-21 -21c-21 28 -41 39 -64 39c-79 0 -102 -115 -102 -226s23 -227 102 -227c23 0 43 10 64 39l21 -21c-23 -31 -44 -45 -84 -45z" />
    <glyph glyph-name="d" unicode="d" horiz-adv-x="351" 
d="M286 0h-30v70c-20 -50 -56 -82 -88 -82c-88 0 -121 111 -121 253c0 141 33 254 121 254c32 0 68 -27 88 -84v256h30v-667zM168 15c38 0 76 49 88 100v251c-12 51 -50 102 -88 102c-70 0 -88 -111 -88 -227s18 -226 88 -226z" />
    <glyph glyph-name="e" unicode="e" horiz-adv-x="346" 
d="M193 -12c-105 0 -146 111 -146 254c0 140 36 253 129 253c98 0 129 -119 129 -253v-10h-225c0 -130 39 -217 113 -217c29 0 59 24 79 68l28 -14c-24 -48 -59 -81 -107 -81zM272 259c0 93 -20 209 -96 209c-77 0 -96 -126 -96 -209h192z" />
    <glyph glyph-name="f" unicode="f" horiz-adv-x="202" 
d="M108 0h-30v456h-50v27h50v107c0 51 30 87 79 87c20 0 42 -8 56 -27l-20 -23c-12 17 -23 23 -36 23c-34 0 -49 -23 -49 -60v-107h70v-27h-70v-456z" />
    <glyph glyph-name="f.alt1" horiz-adv-x="202" 
d="M108 0h-30v456h-50v27h50v107c0 51 33 87 74 87c16 0 27 -5 37 -14l-15 -22c-5 6 -13 9 -22 9c-27 0 -44 -23 -44 -60v-107h70v-27h-70v-456z" />
    <glyph glyph-name="g" unicode="g" horiz-adv-x="351" 
d="M164 -196c-38 0 -78 13 -110 47l20 26c21 -26 56 -46 90 -46c57 0 92 39 92 126v113c-20 -50 -56 -84 -88 -84c-88 0 -121 112 -121 254c0 141 33 255 121 255c32 0 68 -27 88 -84v72h30v-526c0 -108 -48 -153 -122 -153zM168 13c38 0 76 51 88 102v251
c-12 51 -50 102 -88 102c-70 0 -88 -112 -88 -228s18 -227 88 -227z" />
    <glyph glyph-name="h" unicode="h" 
d="M277 0h-30v394c0 51 -19 74 -53 74c-43 0 -81 -46 -99 -94v-374h-30v667h30v-256c22 46 60 84 103 84c55 0 79 -28 79 -101v-394z" />
    <glyph glyph-name="i" unicode="i" horiz-adv-x="160" 
d="M80 566c-15 0 -29 13 -29 29s14 29 29 29c16 0 29 -13 29 -29s-13 -29 -29 -29zM95 0h-30v483h30v-483z" />
    <glyph glyph-name="j" unicode="j" horiz-adv-x="160" 
d="M80 566c-15 0 -29 13 -29 29s14 29 29 29c16 0 29 -13 29 -29s-13 -29 -29 -29zM31 -196c-28 0 -46 12 -57 38l27 14c6 -15 15 -25 30 -25c20 0 34 14 34 73v579h30v-579c0 -80 -28 -100 -64 -100z" />
    <glyph glyph-name="k" unicode="k" horiz-adv-x="325" 
d="M301 0h-32l-108 242l-66 -110v-132h-30v667h30v-489l179 305h31l-128 -218z" />
    <glyph glyph-name="l" unicode="l" horiz-adv-x="160" 
d="M95 0h-30v667h30v-667z" />
    <glyph glyph-name="l.alt1" horiz-adv-x="186" 
d="M129 -12c-44 0 -64 28 -64 88v591h30v-591c0 -41 7 -61 34 -61c15 0 27 8 36 21l21 -18c-15 -18 -30 -30 -57 -30z" />
    <glyph glyph-name="m" unicode="m" horiz-adv-x="524" 
d="M459 0h-30v394c0 51 -19 74 -53 74c-42 0 -81 -46 -99 -94v-374h-30v394c0 51 -19 74 -53 74c-43 0 -81 -46 -99 -94v-374h-30v483h30v-72c22 46 60 84 103 84c50 0 78 -32 78 -84c22 46 61 84 104 84c50 0 79 -28 79 -101v-394z" />
    <glyph glyph-name="n" unicode="n" 
d="M277 0h-30v394c0 51 -19 74 -53 74c-43 0 -81 -46 -99 -94v-374h-30v483h30v-72c22 46 60 84 103 84c55 0 79 -32 79 -101v-394z" />
    <glyph glyph-name="o" unicode="o" horiz-adv-x="352" 
d="M176 -12c-97 0 -129 122 -129 254s32 253 129 253c98 0 129 -121 129 -253s-31 -254 -129 -254zM176 15c78 0 96 119 96 227c0 107 -18 226 -96 226c-77 0 -96 -119 -96 -226c0 -108 19 -227 96 -227z" />
    <glyph glyph-name="p" unicode="p" horiz-adv-x="351" 
d="M183 -12c-32 0 -68 27 -88 84v-256h-30v667h30v-70c20 50 56 82 88 82c88 0 121 -111 121 -253c0 -141 -33 -254 -121 -254zM183 15c70 0 88 111 88 227s-18 226 -88 226c-38 0 -76 -49 -88 -100v-251c12 -51 50 -102 88 -102z" />
    <glyph glyph-name="q" unicode="q" horiz-adv-x="351" 
d="M168 15c38 0 76 51 88 102v251c-12 51 -50 100 -88 100c-70 0 -88 -110 -88 -226s18 -227 88 -227zM168 -12c-88 0 -121 113 -121 254c0 142 33 253 121 253c32 0 68 -32 88 -82v70h30v-667h-30v256c-20 -57 -56 -84 -88 -84z" />
    <glyph glyph-name="r" unicode="r" horiz-adv-x="227" 
d="M95 0h-30v483h30v-85c25 57 56 94 115 94v-36c-5 1 -11 1 -15 1c-48 0 -82 -48 -100 -96v-361z" />
    <glyph glyph-name="s" unicode="s" horiz-adv-x="278" 
d="M137 -12c-45 0 -79 16 -109 59l22 21c23 -34 48 -53 87 -53c41 0 79 34 79 90c0 134 -174 137 -174 285c0 62 48 105 105 105c38 0 69 -17 93 -51l-20 -20c-21 33 -46 44 -73 44c-46 0 -75 -35 -75 -78c0 -126 174 -133 174 -285c0 -72 -52 -117 -109 -117z" />
    <glyph glyph-name="t" unicode="t" horiz-adv-x="212" 
d="M142 -12c-44 0 -64 28 -64 88v380h-52v27h52v132h30v-132h70v-27h-70v-380c0 -41 7 -61 34 -61c15 0 27 8 36 21l21 -18c-15 -18 -30 -30 -57 -30z" />
    <glyph glyph-name="u" unicode="u" 
d="M277 0h-30v70c-22 -46 -56 -82 -103 -82c-55 0 -79 28 -79 101v394h30v-394c0 -51 19 -74 53 -74c43 0 81 44 99 92v376h30v-483z" />
    <glyph glyph-name="v" unicode="v" horiz-adv-x="279" 
d="M156 0h-35l-105 483h33l90 -448l91 448h33z" />
    <glyph glyph-name="w" unicode="w" horiz-adv-x="484" 
d="M364 0h-30l-92 440l-92 -440h-30l-100 483h33l82 -436l89 436h36l89 -436l82 436h33z" />
    <glyph glyph-name="x" unicode="x" horiz-adv-x="286" 
d="M266 0h-33l-90 217l-90 -217h-33l106 245l-100 238h33l84 -209l84 209h33l-100 -238z" />
    <glyph glyph-name="y" unicode="y" horiz-adv-x="279" 
d="M27 -189l7 27c7 -5 19 -7 24 -7c25 0 34 14 44 54l23 97l-109 501h33l90 -443l91 443h33l-137 -606c-13 -55 -35 -73 -68 -73c-11 0 -24 3 -31 7z" />
    <glyph glyph-name="y.alt1" 
d="M163 -196c-39 0 -82 16 -109 47l20 26c26 -32 57 -46 90 -46c49 0 83 42 83 126v113c-22 -46 -56 -82 -103 -82c-55 0 -79 28 -79 101v394h30v-394c0 -51 19 -74 53 -74c43 0 81 44 99 92v376h30v-526c0 -94 -42 -153 -114 -153z" />
    <glyph glyph-name="z" unicode="z" horiz-adv-x="275" 
d="M234 0h-193v27l158 429h-158v27h189v-27l-156 -429h160v-27z" />
    <glyph glyph-name="A.smcp" unicode="&#xf761;" horiz-adv-x="266" 
d="M115 550h36l105 -550h-33l-26 146h-128l-26 -146h-33zM192 175l-59 324l-59 -324h118z" />
    <glyph glyph-name="B.smcp" unicode="&#xf762;" horiz-adv-x="299" 
d="M142 0h-77v550h74c68 0 114 -50 114 -141c0 -66 -23 -106 -62 -124c42 -14 69 -76 69 -136c0 -94 -38 -149 -118 -149zM142 29c62 0 84 46 84 119c0 62 -22 121 -84 121h-45v-240h45zM139 298c61 0 79 49 79 111c0 56 -15 112 -79 112h-42v-223h42z" />
    <glyph glyph-name="C.smcp" unicode="&#xf763;" horiz-adv-x="322" 
d="M179 -12c-99 0 -132 131 -132 287c0 157 33 287 132 287c53 0 84 -34 104 -88l-28 -11c-17 46 -40 70 -76 70c-75 0 -98 -116 -98 -258c0 -141 23 -258 98 -258c39 0 61 27 76 76l29 -11c-20 -58 -50 -94 -105 -94z" />
    <glyph glyph-name="D.smcp" unicode="&#xf764;" horiz-adv-x="352" 
d="M153 0h-88v550h88c104 0 152 -115 152 -276s-48 -274 -152 -274zM153 29c84 0 118 108 118 245c0 136 -34 247 -118 247h-56v-492h56z" />
    <glyph glyph-name="E.smcp" unicode="&#xf765;" horiz-adv-x="293" 
d="M250 0h-185v550h185v-29h-153v-223h147v-29h-147v-240h153v-29z" />
    <glyph glyph-name="F.smcp" unicode="&#xf766;" horiz-adv-x="293" 
d="M97 0h-32v550h185v-29h-153v-223h147v-29h-147v-269z" />
    <glyph glyph-name="G.smcp" unicode="&#xf767;" horiz-adv-x="340" 
d="M179 -12c-95 0 -132 119 -132 287c0 169 37 287 132 287c59 0 84 -41 103 -88l-27 -11c-17 42 -36 70 -76 70c-78 0 -98 -118 -98 -258c0 -138 20 -258 98 -258c34 0 59 16 74 41v181h-82v29h113v-219c-30 -46 -64 -61 -105 -61z" />
    <glyph glyph-name="G.smcp.alt1" horiz-adv-x="340" 
d="M179 -12c-95 0 -132 119 -132 287c0 169 37 287 132 287c59 0 84 -41 103 -88l-27 -11c-17 42 -36 70 -76 70c-78 0 -98 -118 -98 -258c0 -138 20 -258 98 -258s98 128 98 221h-106v29h137c0 -167 -36 -279 -129 -279z" />
    <glyph glyph-name="H.smcp" unicode="&#xf768;" horiz-adv-x="350" 
d="M285 0h-32v269h-156v-269h-32v550h32v-252h156v252h32v-550z" />
    <glyph glyph-name="I.smcp" unicode="&#xf769;" horiz-adv-x="162" 
d="M97 0h-32v550h32v-550z" />
    <glyph glyph-name="J.smcp" unicode="&#xf76a;" horiz-adv-x="261" 
d="M95 -12c-38 0 -67 15 -91 48l22 21c19 -28 44 -40 69 -40c44 0 69 23 69 82v451h32v-451c0 -77 -41 -111 -101 -111z" />
    <glyph glyph-name="K.smcp" unicode="&#xf76b;" horiz-adv-x="329" 
d="M314 0h-39l-140 259l-38 -69v-190h-32v550h32v-305l167 305h39l-151 -263z" />
    <glyph glyph-name="L.smcp" unicode="&#xf76c;" horiz-adv-x="272" 
d="M250 0h-185v550h32v-521h153v-29z" />
    <glyph glyph-name="M.smcp" unicode="&#xf76d;" horiz-adv-x="447" 
d="M382 0h-31v491l-117 -491h-20l-117 491v-491h-32v550h49l110 -458l110 458h48v-550z" />
    <glyph glyph-name="N.smcp" unicode="&#xf76e;" horiz-adv-x="350" 
d="M285 0h-38l-150 474v-474h-32v550h38l150 -468v468h32v-550z" />
    <glyph glyph-name="O.smcp" unicode="&#xf76f;" horiz-adv-x="359" 
d="M179 -12c-102 0 -132 134 -132 287s30 287 132 287s133 -134 133 -287s-31 -287 -133 -287zM179 17c78 0 98 124 98 258c0 135 -20 258 -98 258s-98 -123 -98 -258c0 -134 20 -258 98 -258z" />
    <glyph glyph-name="P.smcp" unicode="&#xf770;" horiz-adv-x="287" 
d="M97 0h-32v550h77c82 0 118 -73 118 -157c0 -85 -36 -158 -118 -158h-45v-235zM141 264c59 0 85 55 85 129c0 73 -27 128 -85 128h-44v-257h44z" />
    <glyph glyph-name="Q.smcp" unicode="&#xf771;" horiz-adv-x="359" 
d="M179 -12c-102 0 -132 134 -132 287s30 287 132 287s133 -134 133 -287c0 -105 -15 -201 -57 -251l17 -45l-28 -11l-13 34c-15 -9 -32 -14 -52 -14zM179 17c16 0 29 5 41 15l-46 124l28 11l40 -108c26 48 35 130 35 216c0 135 -20 258 -98 258s-98 -123 -98 -258
c0 -134 20 -258 98 -258z" />
    <glyph glyph-name="R.smcp" unicode="&#xf772;" horiz-adv-x="306" 
d="M267 0h-37l-83 235h-50v-235h-32v550h77c77 0 118 -67 118 -157s-41 -141 -83 -153zM141 264c59 0 85 55 85 129c0 73 -27 128 -85 128h-44v-257h44z" />
    <glyph glyph-name="S.smcp" unicode="&#xf773;" horiz-adv-x="270" 
d="M128 -12c-43 0 -73 14 -107 53l24 22c24 -31 52 -46 83 -46c40 0 78 38 78 104c0 149 -166 165 -166 319c0 76 49 122 104 122c37 0 60 -10 87 -38l-21 -24c-21 23 -41 33 -66 33c-38 0 -71 -35 -71 -93c0 -129 167 -159 167 -319c0 -76 -46 -133 -112 -133z" />
    <glyph glyph-name="T.smcp" unicode="&#xf774;" horiz-adv-x="239" 
d="M135 0h-32v521h-88v29h209v-29h-89v-521z" />
    <glyph glyph-name="U.smcp" unicode="&#xf775;" horiz-adv-x="351" 
d="M176 -12c-81 0 -111 56 -111 148v414h32v-414c0 -80 24 -119 79 -119c53 0 78 40 78 119v414h32v-414c0 -93 -31 -148 -110 -148z" />
    <glyph glyph-name="V.smcp" unicode="&#xf776;" horiz-adv-x="266" 
d="M151 0h-36l-105 550h33l90 -499l90 499h33z" />
    <glyph glyph-name="W.smcp" unicode="&#xf777;" horiz-adv-x="428" 
d="M326 0h-36l-76 475l-76 -475h-36l-92 550h34l76 -483l78 483h32l78 -483l76 483h34z" />
    <glyph glyph-name="X.smcp" unicode="&#xf778;" horiz-adv-x="270" 
d="M264 0h-36l-93 243l-93 -243h-36l111 279l-105 271h36l87 -234l86 234h37l-105 -270z" />
    <glyph glyph-name="Y.smcp" unicode="&#xf779;" horiz-adv-x="284" 
d="M158 0h-32v238l-124 312h35l105 -274l106 274h34l-124 -312v-238z" />
    <glyph glyph-name="Z.smcp" unicode="&#xf77a;" horiz-adv-x="266" 
d="M237 0h-208v28l169 493h-169v29h202v-28l-169 -493h175v-29z" />
    <glyph glyph-name="Aacute" unicode="&#xc1;" horiz-adv-x="312" 
d="M245 867l-95 -144h-24l78 144h41zM300 0h-33l-32 179h-158l-32 -179h-33l125 667h38zM230 209l-74 411l-74 -411h148z" />
    <glyph glyph-name="Abreve" unicode="&#x102;" horiz-adv-x="312" 
d="M300 0h-33l-32 179h-158l-32 -179h-33l125 667h38zM230 209l-74 411l-74 -411h148zM271 784c-26 -36 -68 -58 -115 -58s-89 22 -115 58l22 18c19 -30 58 -49 93 -49s74 19 93 49z" />
    <glyph glyph-name="Acircumflex" unicode="&#xc2;" horiz-adv-x="312" 
d="M244 723h-23l-66 116l-63 -116h-23l68 144h36zM300 0h-33l-32 179h-158l-32 -179h-33l125 667h38zM230 209l-74 411l-74 -411h148z" />
    <glyph glyph-name="Adieresis" unicode="&#xc4;" horiz-adv-x="312" 
d="M245 765c0 -15 -13 -28 -28 -28s-28 13 -28 28s13 28 28 28s28 -13 28 -28zM123 765c0 -15 -13 -28 -28 -28s-28 13 -28 28s13 28 28 28s28 -13 28 -28zM300 0h-33l-32 179h-158l-32 -179h-33l125 667h38zM230 209l-74 411l-74 -411h148z" />
    <glyph glyph-name="Agrave" unicode="&#xc0;" horiz-adv-x="312" 
d="M186 723h-24l-95 144h41zM300 0h-33l-32 179h-158l-32 -179h-33l125 667h38zM230 209l-74 411l-74 -411h148z" />
    <glyph glyph-name="Amacron" unicode="&#x100;" horiz-adv-x="312" 
d="M300 0h-33l-32 179h-158l-32 -179h-33l125 667h38zM230 209l-74 411l-74 -411h148zM276 748h-240v27h240v-27z" />
    <glyph glyph-name="Aogonek" unicode="&#x104;" horiz-adv-x="312" 
d="M298 -122l25 -11c-7 -27 -25 -53 -63 -53c-36 0 -61 23 -61 71c0 52 31 95 66 123l-30 171h-158l-32 -179h-33l125 667h38l125 -667c-40 -27 -72 -61 -72 -115c0 -32 14 -44 32 -44c21 0 33 14 38 37zM230 209l-74 411l-74 -411h148z" />
    <glyph glyph-name="Aring" unicode="&#xc5;" horiz-adv-x="312" 
d="M157 692c-43 0 -78 35 -78 78s35 78 78 78s77 -35 77 -78s-34 -78 -77 -78zM157 716c30 0 54 24 54 54s-24 54 -54 54s-54 -24 -54 -54s24 -54 54 -54zM300 0h-33l-32 179h-158l-32 -179h-33l125 667h38zM230 209l-74 411l-74 -411h148z" />
    <glyph glyph-name="Atilde" unicode="&#xc3;" horiz-adv-x="312" 
d="M194 721c-57 0 -41 113 -78 113c-23 0 -38 -32 -38 -107h-22c0 72 16 134 63 134c57 0 41 -113 78 -113c23 0 38 32 38 107h22c0 -71 -16 -134 -63 -134zM300 0h-33l-32 179h-158l-32 -179h-33l125 667h38zM230 209l-74 411l-74 -411h148z" />
    <glyph glyph-name="uni1EA0" unicode="&#x1ea0;" horiz-adv-x="312" 
d="M300 0h-33l-32 179h-158l-32 -179h-33l125 667h38zM230 209l-74 411l-74 -411h148zM156 -173c-15 0 -29 13 -29 29s14 29 29 29c16 0 29 -13 29 -29s-13 -29 -29 -29z" />
    <glyph glyph-name="uni1EA2" unicode="&#x1ea2;" horiz-adv-x="312" 
d="M300 0h-33l-32 179h-158l-32 -179h-33l125 667h38zM230 209l-74 411l-74 -411h148zM127 772l-21 6c5 21 20 42 50 42c29 0 49 -18 49 -57c0 -24 -8 -46 -23 -66h-25c18 22 25 43 25 66c0 26 -12 35 -26 35c-17 0 -25 -10 -29 -26z" />
    <glyph glyph-name="uni1EA4" unicode="&#x1ea4;" horiz-adv-x="312" 
d="M244 682h-23l-66 87l-63 -87h-23l68 108h36zM300 0h-33l-32 179h-158l-32 -179h-33l125 667h38zM230 209l-74 411l-74 -411h148zM339 843l-95 -108h-24l78 108h41z" />
    <glyph glyph-name="uni1EAC" unicode="&#x1eac;" horiz-adv-x="312" 
d="M300 0h-33l-32 179h-158l-32 -179h-33l125 667h38zM230 209l-74 411l-74 -411h148zM156 -173c-15 0 -29 13 -29 29s14 29 29 29c16 0 29 -13 29 -29s-13 -29 -29 -29zM244 723h-23l-66 116l-63 -116h-23l68 144h36z" />
    <glyph glyph-name="uni1EA6" unicode="&#x1ea6;" horiz-adv-x="312" 
d="M244 682h-23l-66 87l-63 -87h-23l68 108h36zM300 0h-33l-32 179h-158l-32 -179h-33l125 667h38zM230 209l-74 411l-74 -411h148zM92 735h-24l-95 108h41z" />
    <glyph glyph-name="uni1EA8" unicode="&#x1ea8;" horiz-adv-x="312" 
d="M244 682h-23l-66 87l-63 -87h-23l68 108h36zM300 0h-33l-32 179h-158l-32 -179h-33l125 667h38zM230 209l-74 411l-74 -411h148zM209 798l-21 5c5 16 20 31 50 31c29 0 49 -13 49 -42c0 -18 -8 -35 -23 -50h-25c18 17 25 32 25 50c0 19 -12 26 -26 26
c-17 0 -25 -8 -29 -20z" />
    <glyph glyph-name="uni1EAE" unicode="&#x1eae;" horiz-adv-x="312" 
d="M300 0h-33l-32 179h-158l-32 -179h-33l125 667h38zM230 209l-74 411l-74 -411h148zM271 747c-26 -36 -68 -58 -115 -58s-89 22 -115 58l22 18c19 -30 58 -49 93 -49s74 19 93 49zM244 843l-95 -108h-24l78 108h41z" />
    <glyph glyph-name="uni1EAA" unicode="&#x1eaa;" horiz-adv-x="312" 
d="M244 678h-23l-66 58l-63 -58h-23l68 72h36zM300 0h-33l-32 179h-158l-32 -179h-33l125 667h38zM230 209l-74 411l-74 -411h148zM193 757c-57 0 -41 56 -78 56c-23 0 -38 -16 -38 -53h-22c0 36 16 67 63 67c57 0 41 -57 78 -57c23 0 38 16 38 54h22c0 -36 -16 -67 -63 -67
z" />
    <glyph glyph-name="uni1EB0" unicode="&#x1eb0;" horiz-adv-x="312" 
d="M300 0h-33l-32 179h-158l-32 -179h-33l125 667h38zM230 209l-74 411l-74 -411h148zM271 747c-26 -36 -68 -58 -115 -58s-89 22 -115 58l22 18c19 -30 58 -49 93 -49s74 19 93 49zM190 735h-24l-95 108h41z" />
    <glyph glyph-name="uni1EB2" unicode="&#x1eb2;" horiz-adv-x="312" 
d="M300 0h-33l-32 179h-158l-32 -179h-33l125 667h38zM230 209l-74 411l-74 -411h148zM271 747c-26 -36 -68 -58 -115 -58s-89 22 -115 58l22 18c19 -30 58 -49 93 -49s74 19 93 49zM128 796l-21 5c5 16 20 31 50 31c29 0 49 -13 49 -42c0 -18 -8 -35 -23 -50h-25
c18 17 25 32 25 50c0 19 -12 26 -26 26c-17 0 -25 -8 -29 -20z" />
    <glyph glyph-name="uni1EB4" unicode="&#x1eb4;" horiz-adv-x="312" 
d="M270 733c-26 -27 -68 -44 -115 -44s-89 17 -115 44l22 13c19 -22 58 -37 93 -37s74 15 93 37zM300 0h-33l-32 179h-158l-32 -179h-33l125 667h38zM230 209l-74 411l-74 -411h148zM193 757c-57 0 -41 56 -78 56c-23 0 -38 -16 -38 -53h-22c0 36 16 67 63 67
c57 0 41 -57 78 -57c23 0 38 16 38 54h22c0 -36 -16 -67 -63 -67z" />
    <glyph glyph-name="uni1EB6" unicode="&#x1eb6;" horiz-adv-x="312" 
d="M300 0h-33l-32 179h-158l-32 -179h-33l125 667h38zM230 209l-74 411l-74 -411h148zM271 784c-26 -36 -68 -58 -115 -58s-89 22 -115 58l22 18c19 -30 58 -49 93 -49s74 19 93 49zM156 -173c-15 0 -29 13 -29 29s14 29 29 29c16 0 29 -13 29 -29s-13 -29 -29 -29z" />
    <glyph glyph-name="AE" unicode="&#xc6;" horiz-adv-x="509" 
d="M456 0h-210v179h-136l-55 -179h-33l211 667h223v-30h-178v-279h171v-30h-171v-298h178v-30zM246 209v411l-127 -411h127z" />
    <glyph glyph-name="AEacute" unicode="&#x1fc;" horiz-adv-x="509" 
d="M456 0h-210v179h-136l-55 -179h-33l211 667h223v-30h-178v-279h171v-30h-171v-298h178v-30zM246 209v411l-127 -411h127zM352 867l-95 -144h-24l78 144h41z" />
    <glyph glyph-name="uni1E02" unicode="&#x1e02;" horiz-adv-x="360" 
d="M172 0h-100v667h96c78 0 130 -60 130 -170c0 -84 -28 -132 -78 -153c53 -9 87 -87 87 -164c0 -114 -44 -180 -135 -180zM168 358c73 0 95 62 95 139c0 76 -22 140 -95 140h-64v-279h64zM172 30c74 0 100 58 100 149c0 76 -26 149 -100 149h-68v-298h68zM180 733
c-15 0 -29 13 -29 29s14 29 29 29c16 0 29 -13 29 -29s-13 -29 -29 -29z" />
    <glyph glyph-name="Cacute" unicode="&#x106;" horiz-adv-x="357" 
d="M198 -12c-108 0 -145 155 -145 345s37 345 145 345c65 0 95 -49 113 -103l-30 -12c-18 52 -38 85 -83 85c-79 0 -110 -140 -110 -315s31 -315 110 -315c51 0 71 46 86 105l30 -12c-16 -68 -49 -123 -116 -123zM287 867l-95 -144h-24l78 144h41z" />
    <glyph glyph-name="Ccedilla" unicode="&#xc7;" horiz-adv-x="357" 
d="M193 -183c-30 0 -51 12 -70 28l13 26c20 -19 34 -27 57 -27c27 0 52 19 52 49c0 25 -13 40 -33 40c-14 0 -22 -6 -31 -15l-21 12l21 59c-95 15 -128 164 -128 344c0 190 37 345 145 345c65 0 95 -49 113 -103l-30 -12c-18 52 -38 85 -83 85c-79 0 -110 -140 -110 -315
s31 -315 110 -315c51 0 71 46 86 105l30 -12c-15 -64 -45 -115 -103 -122l-17 -44c8 7 17 10 29 10c27 0 51 -24 51 -62c0 -43 -36 -76 -81 -76z" />
    <glyph glyph-name="Ccircumflex" unicode="&#x108;" horiz-adv-x="357" 
d="M198 -12c-108 0 -145 155 -145 345s37 345 145 345c65 0 95 -49 113 -103l-30 -12c-18 52 -38 85 -83 85c-79 0 -110 -140 -110 -315s31 -315 110 -315c51 0 71 46 86 105l30 -12c-16 -68 -49 -123 -116 -123zM287 723h-23l-66 116l-63 -116h-23l68 144h36z" />
    <glyph glyph-name="Cdotaccent" unicode="&#x10a;" horiz-adv-x="357" 
d="M198 -12c-108 0 -145 155 -145 345s37 345 145 345c65 0 95 -49 113 -103l-30 -12c-18 52 -38 85 -83 85c-79 0 -110 -140 -110 -315s31 -315 110 -315c51 0 71 46 86 105l30 -12c-16 -68 -49 -123 -116 -123zM198 733c-15 0 -29 13 -29 29s14 29 29 29
c16 0 29 -13 29 -29s-13 -29 -29 -29z" />
    <glyph glyph-name="Ccaron" unicode="&#x10c;" horiz-adv-x="357" 
d="M198 -12c-108 0 -145 155 -145 345s37 345 145 345c65 0 95 -49 113 -103l-30 -12c-18 52 -38 85 -83 85c-79 0 -110 -140 -110 -315s31 -315 110 -315c51 0 71 46 86 105l30 -12c-16 -68 -49 -123 -116 -123zM219 723h-36l-71 144h23l66 -116l63 116h23z" />
    <glyph glyph-name="Dcaron" unicode="&#x10e;" horiz-adv-x="386" 
d="M165 0h-93v667h93c120 0 168 -140 168 -334c0 -196 -48 -333 -168 -333zM165 30c100 0 133 134 133 303c0 167 -33 304 -133 304h-61v-607h61zM207 723h-36l-71 144h23l66 -116l63 116h23z" />
    <glyph glyph-name="Dcroat" unicode="&#x110;" horiz-adv-x="402" 
d="M181 0h-93v318h-62v30h62v319h93c120 0 168 -140 168 -334c0 -196 -48 -333 -168 -333zM218 318h-98v-288h61c100 0 133 134 133 303c0 167 -33 304 -133 304h-61v-289h98v-30z" />
    <glyph glyph-name="uni1E0A" unicode="&#x1e0a;" horiz-adv-x="386" 
d="M165 0h-93v667h93c120 0 168 -140 168 -334c0 -196 -48 -333 -168 -333zM165 30c100 0 133 134 133 303c0 167 -33 304 -133 304h-61v-607h61zM193 733c-15 0 -29 13 -29 29s14 29 29 29c16 0 29 -13 29 -29s-13 -29 -29 -29z" />
    <glyph glyph-name="Eacute" unicode="&#xc9;" horiz-adv-x="330" 
d="M266 867l-95 -144h-24l78 144h41zM282 0h-210v667h210v-30h-178v-279h171v-30h-171v-298h178v-30z" />
    <glyph glyph-name="Ebreve" unicode="&#x114;" horiz-adv-x="330" 
d="M282 0h-210v667h210v-30h-178v-279h171v-30h-171v-298h178v-30zM295 784c-26 -36 -68 -58 -115 -58s-89 22 -115 58l22 18c19 -30 58 -49 93 -49s74 19 93 49z" />
    <glyph glyph-name="Ecircumflex" unicode="&#xca;" horiz-adv-x="330" 
d="M268 723h-23l-66 116l-63 -116h-23l68 144h36zM282 0h-210v667h210v-30h-178v-279h171v-30h-171v-298h178v-30z" />
    <glyph glyph-name="Edieresis" unicode="&#xcb;" horiz-adv-x="330" 
d="M267 765c0 -15 -13 -28 -28 -28s-28 13 -28 28s13 28 28 28s28 -13 28 -28zM145 765c0 -15 -13 -28 -28 -28s-28 13 -28 28s13 28 28 28s28 -13 28 -28zM282 0h-210v667h210v-30h-178v-279h171v-30h-171v-298h178v-30z" />
    <glyph glyph-name="Edotaccent" unicode="&#x116;" horiz-adv-x="330" 
d="M282 0h-210v667h210v-30h-178v-279h171v-30h-171v-298h178v-30zM186 733c-15 0 -29 13 -29 29s14 29 29 29c16 0 29 -13 29 -29s-13 -29 -29 -29z" />
    <glyph glyph-name="Egrave" unicode="&#xc8;" horiz-adv-x="330" 
d="M207 723h-24l-95 144h41zM282 0h-210v667h210v-30h-178v-279h171v-30h-171v-298h178v-30z" />
    <glyph glyph-name="Emacron" unicode="&#x112;" horiz-adv-x="330" 
d="M282 0h-210v667h210v-30h-178v-279h171v-30h-171v-298h178v-30zM299 748h-240v27h240v-27z" />
    <glyph glyph-name="Eogonek" unicode="&#x118;" horiz-adv-x="330" 
d="M280 -122l25 -11c-7 -27 -25 -53 -63 -53c-36 0 -61 23 -61 71c0 47 25 87 56 115h-165v667h210v-30h-178v-279h171v-30h-171v-298h178v-30c-40 -27 -72 -61 -72 -115c0 -32 14 -44 32 -44c21 0 33 14 38 37z" />
    <glyph glyph-name="Ecaron" unicode="&#x11a;" horiz-adv-x="330" 
d="M282 0h-210v667h210v-30h-178v-279h171v-30h-171v-298h178v-30zM195 723h-36l-71 144h23l66 -116l63 116h23z" />
    <glyph glyph-name="uni1EB8" unicode="&#x1eb8;" horiz-adv-x="330" 
d="M282 0h-210v667h210v-30h-178v-279h171v-30h-171v-298h178v-30zM186 -173c-15 0 -29 13 -29 29s14 29 29 29c16 0 29 -13 29 -29s-13 -29 -29 -29z" />
    <glyph glyph-name="uni1EBA" unicode="&#x1eba;" horiz-adv-x="330" 
d="M282 0h-210v667h210v-30h-178v-279h171v-30h-171v-298h178v-30zM136 772l-21 6c5 21 20 42 50 42c29 0 49 -18 49 -57c0 -24 -8 -46 -23 -66h-25c18 22 25 43 25 66c0 26 -12 35 -26 35c-17 0 -25 -10 -29 -26z" />
    <glyph glyph-name="uni1EBC" unicode="&#x1ebc;" horiz-adv-x="330" 
d="M282 0h-210v667h210v-30h-178v-279h171v-30h-171v-298h178v-30zM212 721c-57 0 -41 113 -78 113c-23 0 -38 -32 -38 -107h-22c0 72 16 134 63 134c57 0 41 -113 78 -113c23 0 38 32 38 107h22c0 -71 -16 -134 -63 -134z" />
    <glyph glyph-name="uni1EBE" unicode="&#x1ebe;" horiz-adv-x="330" 
d="M282 0h-210v667h210v-30h-178v-279h171v-30h-171v-298h178v-30zM362 843l-95 -108h-24l78 108h41zM267 682h-23l-66 87l-63 -87h-23l68 108h36z" />
    <glyph glyph-name="uni1EC0" unicode="&#x1ec0;" horiz-adv-x="330" 
d="M282 0h-210v667h210v-30h-178v-279h171v-30h-171v-298h178v-30zM113 735h-24l-95 108h41zM265 682h-23l-66 87l-63 -87h-23l68 108h36z" />
    <glyph glyph-name="uni1EC2" unicode="&#x1ec2;" horiz-adv-x="330" 
d="M282 0h-210v667h210v-30h-178v-279h171v-30h-171v-298h178v-30zM264 682h-23l-66 87l-63 -87h-23l68 108h36zM229 798l-21 5c5 16 20 31 50 31c29 0 49 -13 49 -42c0 -18 -8 -35 -23 -50h-25c18 17 25 32 25 50c0 19 -12 26 -26 26c-17 0 -25 -8 -29 -20z" />
    <glyph glyph-name="uni1EC4" unicode="&#x1ec4;" horiz-adv-x="330" 
d="M282 0h-210v667h210v-30h-178v-279h171v-30h-171v-298h178v-30zM263 678h-23l-66 58l-63 -58h-23l68 72h36zM212 757c-57 0 -41 56 -78 56c-23 0 -38 -16 -38 -53h-22c0 36 16 67 63 67c57 0 41 -57 78 -57c23 0 38 16 38 54h22c0 -36 -16 -67 -63 -67z" />
    <glyph glyph-name="uni1EC6" unicode="&#x1ec6;" horiz-adv-x="330" 
d="M282 0h-210v667h210v-30h-178v-279h171v-30h-171v-298h178v-30zM186 -173c-15 0 -29 13 -29 29s14 29 29 29c16 0 29 -13 29 -29s-13 -29 -29 -29zM268 723h-23l-66 116l-63 -116h-23l68 144h36z" />
    <glyph glyph-name="uni1E1E" unicode="&#x1e1e;" horiz-adv-x="330" 
d="M104 0h-32v667h210v-30h-178v-279h171v-30h-171v-328zM181 733c-15 0 -29 13 -29 29s14 29 29 29c16 0 29 -13 29 -29s-13 -29 -29 -29z" />
    <glyph glyph-name="Gcircumflex" unicode="&#x11c;" horiz-adv-x="375" 
d="M198 -12c-102 0 -145 141 -145 345c0 205 43 345 145 345c65 0 95 -49 113 -103l-30 -12c-18 52 -38 85 -83 85c-82 0 -110 -143 -110 -315c0 -171 28 -315 110 -315c37 0 65 19 81 51v221h-101v30h133v-259c-26 -50 -69 -73 -113 -73zM287 723h-23l-66 116l-63 -116h-23
l68 144h36z" />
    <glyph glyph-name="Gbreve" unicode="&#x11e;" horiz-adv-x="375" 
d="M198 -12c-102 0 -145 141 -145 345c0 205 43 345 145 345c65 0 95 -49 113 -103l-30 -12c-18 52 -38 85 -83 85c-82 0 -110 -143 -110 -315c0 -171 28 -315 110 -315c37 0 65 19 81 51v221h-101v30h133v-259c-26 -50 -69 -73 -113 -73zM315 784c-26 -36 -68 -58 -115 -58
s-89 22 -115 58l22 18c19 -30 58 -49 93 -49s74 19 93 49z" />
    <glyph glyph-name="Gdotaccent" unicode="&#x120;" horiz-adv-x="375" 
d="M198 -12c-102 0 -145 141 -145 345c0 205 43 345 145 345c65 0 95 -49 113 -103l-30 -12c-18 52 -38 85 -83 85c-82 0 -110 -143 -110 -315c0 -171 28 -315 110 -315c37 0 65 19 81 51v221h-101v30h133v-259c-26 -50 -69 -73 -113 -73zM199 733c-15 0 -29 13 -29 29
s14 29 29 29c16 0 29 -13 29 -29s-13 -29 -29 -29z" />
    <glyph glyph-name="Gcommaaccent" unicode="&#x122;" horiz-adv-x="375" 
d="M198 -12c-102 0 -145 141 -145 345c0 205 43 345 145 345c65 0 95 -49 113 -103l-30 -12c-18 52 -38 85 -83 85c-82 0 -110 -143 -110 -315c0 -171 28 -315 110 -315c37 0 65 19 81 51v221h-101v30h133v-259c-26 -50 -69 -73 -113 -73zM237 -137c0 -50 -30 -98 -62 -121
l-22 18c32 24 53 62 53 92c0 0 -5 -1 -7 -1c-19 0 -32 15 -32 33c0 17 13 32 32 32c21 0 38 -19 38 -53z" />
    <glyph glyph-name="Gbreve.alt1" horiz-adv-x="375" 
d="M315 784c-26 -36 -68 -58 -115 -58s-89 22 -115 58l22 18c19 -30 58 -49 93 -49s74 19 93 49zM198 -12c-102 0 -145 141 -145 345c0 205 43 345 145 345c65 0 95 -49 113 -103l-30 -12c-18 52 -38 85 -83 85c-82 0 -110 -143 -110 -315c0 -171 28 -315 110 -315
c76 0 99 129 99 272h-119v30h155c0 -215 -35 -332 -135 -332z" />
    <glyph glyph-name="Gcommaaccent.alt1" horiz-adv-x="375" 
d="M237 -137c0 -50 -30 -98 -62 -121l-22 18c32 24 53 62 53 92c0 0 -5 -1 -7 -1c-19 0 -32 15 -32 33c0 17 13 32 32 32c21 0 38 -19 38 -53zM198 -12c-102 0 -145 141 -145 345c0 205 43 345 145 345c65 0 95 -49 113 -103l-30 -12c-18 52 -38 85 -83 85
c-82 0 -110 -143 -110 -315c0 -171 28 -315 110 -315c76 0 99 129 99 272h-119v30h155c0 -215 -35 -332 -135 -332z" />
    <glyph glyph-name="Gcircumflex.alt1" horiz-adv-x="375" 
d="M280 723h-23l-66 116l-63 -116h-23l68 144h36zM198 -12c-102 0 -145 141 -145 345c0 205 43 345 145 345c65 0 95 -49 113 -103l-30 -12c-18 52 -38 85 -83 85c-82 0 -110 -143 -110 -315c0 -171 28 -315 110 -315c76 0 99 129 99 272h-119v30h155
c0 -215 -35 -332 -135 -332z" />
    <glyph glyph-name="Gdotaccent.alt1" horiz-adv-x="375" 
d="M198 733c-15 0 -29 13 -29 29s14 29 29 29c16 0 29 -13 29 -29s-13 -29 -29 -29zM198 -12c-102 0 -145 141 -145 345c0 205 43 345 145 345c65 0 95 -49 113 -103l-30 -12c-18 52 -38 85 -83 85c-82 0 -110 -143 -110 -315c0 -171 28 -315 110 -315c76 0 99 129 99 272
h-119v30h155c0 -215 -35 -332 -135 -332z" />
    <glyph glyph-name="Hbar" unicode="&#x126;" horiz-adv-x="446" 
d="M349 0h-32v328h-187v-328h-32v501h-72v27h72v139h32v-139h187v139h32v-139h71v-27h-71v-501zM130 358h187v143h-187v-143z" />
    <glyph glyph-name="Hcircumflex" unicode="&#x124;" horiz-adv-x="395" 
d="M323 0h-32v328h-187v-328h-32v667h32v-309h187v309h32v-667zM285 723h-23l-66 116l-63 -116h-23l68 144h36z" />
    <glyph glyph-name="uni1E22" unicode="&#x1e22;" horiz-adv-x="395" 
d="M323 0h-32v328h-187v-328h-32v667h32v-309h187v309h32v-667zM197 733c-15 0 -29 13 -29 29s14 29 29 29c16 0 29 -13 29 -29s-13 -29 -29 -29z" />
    <glyph glyph-name="Iacute" unicode="&#xcd;" horiz-adv-x="176" 
d="M177 867l-95 -144h-24l78 144h41zM104 0h-32v667h32v-667z" />
    <glyph glyph-name="Ibreve" unicode="&#x12c;" horiz-adv-x="176" 
d="M104 0h-32v667h32v-667zM203 784c-26 -36 -68 -58 -115 -58s-89 22 -115 58l22 18c19 -30 58 -49 93 -49s74 19 93 49z" />
    <glyph glyph-name="Icircumflex" unicode="&#xce;" horiz-adv-x="176" 
d="M177 723h-23l-66 116l-63 -116h-23l68 144h36zM104 0h-32v667h32v-667z" />
    <glyph glyph-name="Idieresis" unicode="&#xcf;" horiz-adv-x="176" 
d="M180 765c0 -15 -13 -28 -28 -28s-28 13 -28 28s13 28 28 28s28 -13 28 -28zM58 765c0 -15 -13 -28 -28 -28s-28 13 -28 28s13 28 28 28s28 -13 28 -28zM104 0h-32v667h32v-667z" />
    <glyph glyph-name="Idotaccent" unicode="&#x130;" horiz-adv-x="176" 
d="M104 0h-32v667h32v-667zM88 733c-15 0 -29 13 -29 29s14 29 29 29c16 0 29 -13 29 -29s-13 -29 -29 -29z" />
    <glyph glyph-name="Igrave" unicode="&#xcc;" horiz-adv-x="176" 
d="M118 723h-24l-95 144h41zM104 0h-32v667h32v-667z" />
    <glyph glyph-name="Imacron" unicode="&#x12a;" horiz-adv-x="176" 
d="M104 0h-32v667h32v-667zM208 748h-240v27h240v-27z" />
    <glyph glyph-name="Iogonek" unicode="&#x12e;" horiz-adv-x="176" 
d="M102 -122l25 -11c-7 -27 -25 -53 -63 -53c-36 0 -61 23 -61 71c0 53 32 97 69 125v657h32v-667c-40 -27 -72 -61 -72 -115c0 -32 14 -44 32 -44c21 0 33 14 38 37z" />
    <glyph glyph-name="Itilde" unicode="&#x128;" horiz-adv-x="176" 
d="M104 0h-32v667h32v-667zM126 721c-57 0 -41 113 -78 113c-23 0 -38 -32 -38 -107h-22c0 72 16 134 63 134c57 0 41 -113 78 -113c23 0 38 32 38 107h22c0 -71 -16 -134 -63 -134z" />
    <glyph glyph-name="uni1EC8" unicode="&#x1ec8;" horiz-adv-x="176" 
d="M104 0h-32v667h32v-667zM59 772l-21 6c5 21 20 42 50 42c29 0 49 -18 49 -57c0 -24 -8 -46 -23 -66h-25c18 22 25 43 25 66c0 26 -12 35 -26 35c-17 0 -25 -10 -29 -26z" />
    <glyph glyph-name="uni1ECA" unicode="&#x1eca;" horiz-adv-x="176" 
d="M104 0h-32v667h32v-667zM87 -173c-15 0 -29 13 -29 29s14 29 29 29c16 0 29 -13 29 -29s-13 -29 -29 -29z" />
    <glyph glyph-name="IJ" unicode="&#x132;" horiz-adv-x="474" 
d="M104 0h-32v667h32v-667zM285 -12c-41 0 -73 15 -103 54l24 23c23 -34 51 -47 79 -47c55 0 85 29 85 103v546h32v-546c0 -93 -46 -133 -117 -133z" />
    <glyph glyph-name="Jcircumflex" unicode="&#x134;" horiz-adv-x="298" 
d="M109 -12c-41 0 -73 15 -103 54l24 23c23 -34 51 -47 79 -47c55 0 85 29 85 103v546h32v-546c0 -93 -46 -133 -117 -133zM297 723h-23l-66 116l-63 -116h-23l68 144h36z" />
    <glyph glyph-name="Kcommaaccent" unicode="&#x136;" horiz-adv-x="372" 
d="M354 0h-39l-164 319l-47 -88v-231h-32v667h32v-380l198 380h39l-174 -319zM230 -137c0 -50 -30 -98 -62 -121l-22 18c32 24 53 62 53 92c0 0 -5 -1 -7 -1c-19 0 -32 15 -32 33c0 17 13 32 32 32c21 0 38 -19 38 -53z" />
    <glyph glyph-name="Lacute" unicode="&#x139;" horiz-adv-x="306" 
d="M282 0h-210v667h32v-637h178v-30zM266 867l-95 -144h-24l78 144h41z" />
    <glyph glyph-name="Lcaron" unicode="&#x13d;" horiz-adv-x="306" 
d="M282 0h-210v667h32v-637h178v-30zM236 626c0 -50 -30 -98 -62 -121l-22 18c32 24 53 62 53 92c0 0 -5 -1 -7 -1c-19 0 -32 15 -32 33c0 17 13 32 32 32c21 0 38 -19 38 -53z" />
    <glyph glyph-name="Lcommaaccent" unicode="&#x13b;" horiz-adv-x="306" 
d="M282 0h-210v667h32v-637h178v-30zM217 -137c0 -50 -30 -98 -62 -121l-22 18c32 24 53 62 53 92c0 0 -5 -1 -7 -1c-19 0 -32 15 -32 33c0 17 13 32 32 32c21 0 38 -19 38 -53z" />
    <glyph glyph-name="Ldot" unicode="&#x13f;" horiz-adv-x="306" 
d="M282 0h-210v667h32v-637h178v-30zM273 342c0 -18 -15 -33 -33 -33s-33 15 -33 33c0 17 15 32 33 32s33 -15 33 -32z" />
    <glyph glyph-name="Lslash" unicode="&#x141;" horiz-adv-x="322" 
d="M26 272v34l62 36v325h32v-307l62 37v-34l-62 -37v-296h178v-30h-210v308z" />
    <glyph glyph-name="Nacute" unicode="&#x143;" horiz-adv-x="395" 
d="M323 0h-32l-187 575v-575h-32v667h32l187 -569v569h32v-667zM286 867l-95 -144h-24l78 144h41z" />
    <glyph glyph-name="Ncaron" unicode="&#x147;" horiz-adv-x="395" 
d="M323 0h-32l-187 575v-575h-32v667h32l187 -569v569h32v-667zM217 723h-36l-71 144h23l66 -116l63 116h23z" />
    <glyph glyph-name="Ncommaaccent" unicode="&#x145;" horiz-adv-x="395" 
d="M323 0h-32l-187 575v-575h-32v667h32l187 -569v569h32v-667zM241 -137c0 -50 -30 -98 -62 -121l-22 18c32 24 53 62 53 92c0 0 -5 -1 -7 -1c-19 0 -32 15 -32 33c0 17 13 32 32 32c21 0 38 -19 38 -53z" />
    <glyph glyph-name="Ntilde" unicode="&#xd1;" horiz-adv-x="395" 
d="M231 721c-57 0 -41 113 -78 113c-23 0 -38 -32 -38 -107h-22c0 72 16 134 63 134c57 0 41 -113 78 -113c23 0 38 32 38 107h22c0 -71 -16 -134 -63 -134zM323 0h-32l-187 575v-575h-32v667h32l187 -569v569h32v-667z" />
    <glyph glyph-name="Eng" unicode="&#x14a;" horiz-adv-x="395" 
d="M206 -196c-41 0 -73 15 -103 54l24 23c23 -34 51 -47 79 -47c55 0 85 29 85 103v63l-187 575v-575h-32v667h32l187 -569v569h32v-730c0 -93 -46 -133 -117 -133z" />
    <glyph glyph-name="Oacute" unicode="&#xd3;" horiz-adv-x="396" 
d="M287 867l-95 -144h-24l78 144h41zM198 -12c-110 0 -145 160 -145 345s35 345 145 345s145 -160 145 -345s-35 -345 -145 -345zM198 18c82 0 110 150 110 315c0 167 -28 315 -110 315s-110 -148 -110 -315c0 -165 28 -315 110 -315z" />
    <glyph glyph-name="Obreve" unicode="&#x14e;" horiz-adv-x="396" 
d="M198 -12c-110 0 -145 160 -145 345s35 345 145 345s145 -160 145 -345s-35 -345 -145 -345zM198 18c82 0 110 150 110 315c0 167 -28 315 -110 315s-110 -148 -110 -315c0 -165 28 -315 110 -315zM312 784c-26 -36 -68 -58 -115 -58s-89 22 -115 58l22 18
c19 -30 58 -49 93 -49s74 19 93 49z" />
    <glyph glyph-name="Ocircumflex" unicode="&#xd4;" horiz-adv-x="396" 
d="M286 723h-23l-66 116l-63 -116h-23l68 144h36zM198 -12c-110 0 -145 160 -145 345s35 345 145 345s145 -160 145 -345s-35 -345 -145 -345zM198 18c82 0 110 150 110 315c0 167 -28 315 -110 315s-110 -148 -110 -315c0 -165 28 -315 110 -315z" />
    <glyph glyph-name="Odieresis" unicode="&#xd6;" horiz-adv-x="396" 
d="M286 765c0 -15 -13 -28 -28 -28s-28 13 -28 28s13 28 28 28s28 -13 28 -28zM164 765c0 -15 -13 -28 -28 -28s-28 13 -28 28s13 28 28 28s28 -13 28 -28zM198 -12c-110 0 -145 160 -145 345s35 345 145 345s145 -160 145 -345s-35 -345 -145 -345zM198 18
c82 0 110 150 110 315c0 167 -28 315 -110 315s-110 -148 -110 -315c0 -165 28 -315 110 -315z" />
    <glyph glyph-name="Ograve" unicode="&#xd2;" horiz-adv-x="396" 
d="M228 723h-24l-95 144h41zM198 -12c-110 0 -145 160 -145 345s35 345 145 345s145 -160 145 -345s-35 -345 -145 -345zM198 18c82 0 110 150 110 315c0 167 -28 315 -110 315s-110 -148 -110 -315c0 -165 28 -315 110 -315z" />
    <glyph glyph-name="Ohungarumlaut" unicode="&#x150;" horiz-adv-x="396" 
d="M198 -12c-110 0 -145 160 -145 345s35 345 145 345s145 -160 145 -345s-35 -345 -145 -345zM198 18c82 0 110 150 110 315c0 167 -28 315 -110 315s-110 -148 -110 -315c0 -165 28 -315 110 -315zM222 867l-75 -144h-20l58 144h37zM328 867l-75 -144h-20l58 144h37z" />
    <glyph glyph-name="Omacron" unicode="&#x14c;" horiz-adv-x="396" 
d="M198 -12c-110 0 -145 160 -145 345s35 345 145 345s145 -160 145 -345s-35 -345 -145 -345zM198 18c82 0 110 150 110 315c0 167 -28 315 -110 315s-110 -148 -110 -315c0 -165 28 -315 110 -315zM318 748h-240v27h240v-27z" />
    <glyph glyph-name="Oslash" unicode="&#xd8;" horiz-adv-x="396" 
d="M198 -12c-38 0 -67 19 -89 52l-14 -40h-33l27 77c-26 64 -36 156 -36 256c0 185 35 345 145 345c38 0 67 -19 88 -52l15 41h33l-28 -78c26 -64 37 -157 37 -256c0 -185 -35 -345 -145 -345zM198 18c82 0 110 150 110 315c0 76 -6 149 -20 205l-164 -458
c17 -39 41 -62 74 -62zM88 333c0 -76 5 -148 20 -205l164 458c-17 38 -42 62 -74 62c-82 0 -110 -148 -110 -315z" />
    <glyph glyph-name="Oslashacute" unicode="&#x1fe;" horiz-adv-x="396" 
d="M287 867l-95 -144h-24l78 144h41zM198 -12c-38 0 -67 19 -89 52l-14 -40h-33l27 77c-26 64 -36 156 -36 256c0 185 35 345 145 345c38 0 67 -19 88 -52l15 41h33l-28 -78c26 -64 37 -157 37 -256c0 -185 -35 -345 -145 -345zM198 18c82 0 110 150 110 315
c0 76 -6 149 -20 205l-164 -458c17 -39 41 -62 74 -62zM88 333c0 -76 5 -148 20 -205l164 458c-17 38 -42 62 -74 62c-82 0 -110 -148 -110 -315z" />
    <glyph glyph-name="Otilde" unicode="&#xd5;" horiz-adv-x="396" 
d="M236 721c-57 0 -41 113 -78 113c-23 0 -38 -32 -38 -107h-22c0 72 16 134 63 134c57 0 41 -113 78 -113c23 0 38 32 38 107h22c0 -71 -16 -134 -63 -134zM198 -12c-110 0 -145 160 -145 345s35 345 145 345s145 -160 145 -345s-35 -345 -145 -345zM198 18
c82 0 110 150 110 315c0 167 -28 315 -110 315s-110 -148 -110 -315c0 -165 28 -315 110 -315z" />
    <glyph glyph-name="uni1ECC" unicode="&#x1ecc;" horiz-adv-x="396" 
d="M198 -12c-110 0 -145 160 -145 345s35 345 145 345s145 -160 145 -345s-35 -345 -145 -345zM198 18c82 0 110 150 110 315c0 167 -28 315 -110 315s-110 -148 -110 -315c0 -165 28 -315 110 -315zM200 -173c-15 0 -29 13 -29 29s14 29 29 29c16 0 29 -13 29 -29
s-13 -29 -29 -29z" />
    <glyph glyph-name="uni1ECE" unicode="&#x1ece;" horiz-adv-x="396" 
d="M198 -12c-110 0 -145 160 -145 345s35 345 145 345s145 -160 145 -345s-35 -345 -145 -345zM198 18c82 0 110 150 110 315c0 167 -28 315 -110 315s-110 -148 -110 -315c0 -165 28 -315 110 -315zM171 772l-21 6c5 21 20 42 50 42c29 0 49 -18 49 -57
c0 -24 -8 -46 -23 -66h-25c18 22 25 43 25 66c0 26 -12 35 -26 35c-17 0 -25 -10 -29 -26z" />
    <glyph glyph-name="uni1ED0" unicode="&#x1ed0;" horiz-adv-x="396" 
d="M198 -12c-110 0 -145 160 -145 345s35 345 145 345s145 -160 145 -345s-35 -345 -145 -345zM198 18c82 0 110 150 110 315c0 167 -28 315 -110 315s-110 -148 -110 -315c0 -165 28 -315 110 -315zM283 682h-23l-66 87l-63 -87h-23l68 108h36zM378 843l-95 -108h-24
l78 108h41z" />
    <glyph glyph-name="uni1ED2" unicode="&#x1ed2;" horiz-adv-x="396" 
d="M198 -12c-110 0 -145 160 -145 345s35 345 145 345s145 -160 145 -345s-35 -345 -145 -345zM198 18c82 0 110 150 110 315c0 167 -28 315 -110 315s-110 -148 -110 -315c0 -165 28 -315 110 -315zM129 735h-24l-95 108h41zM281 682h-23l-66 87l-63 -87h-23l68 108h36z
" />
    <glyph glyph-name="uni1ED4" unicode="&#x1ed4;" horiz-adv-x="396" 
d="M198 -12c-110 0 -145 160 -145 345s35 345 145 345s145 -160 145 -345s-35 -345 -145 -345zM198 18c82 0 110 150 110 315c0 167 -28 315 -110 315s-110 -148 -110 -315c0 -165 28 -315 110 -315zM282 682h-23l-66 87l-63 -87h-23l68 108h36zM247 798l-21 5
c5 16 20 31 50 31c29 0 49 -13 49 -42c0 -18 -8 -35 -23 -50h-25c18 17 25 32 25 50c0 19 -12 26 -26 26c-17 0 -25 -8 -29 -20z" />
    <glyph glyph-name="uni1ED6" unicode="&#x1ed6;" horiz-adv-x="396" 
d="M198 -12c-110 0 -145 160 -145 345s35 345 145 345s145 -160 145 -345s-35 -345 -145 -345zM198 18c82 0 110 150 110 315c0 167 -28 315 -110 315s-110 -148 -110 -315c0 -165 28 -315 110 -315zM287 678h-23l-66 58l-63 -58h-23l68 72h36zM236 757c-57 0 -41 56 -78 56
c-23 0 -38 -16 -38 -53h-22c0 36 16 67 63 67c57 0 41 -57 78 -57c23 0 38 16 38 54h22c0 -36 -16 -67 -63 -67z" />
    <glyph glyph-name="uni1ED8" unicode="&#x1ed8;" horiz-adv-x="396" 
d="M198 -12c-110 0 -145 160 -145 345s35 345 145 345s145 -160 145 -345s-35 -345 -145 -345zM198 18c82 0 110 150 110 315c0 167 -28 315 -110 315s-110 -148 -110 -315c0 -165 28 -315 110 -315zM200 -173c-15 0 -29 13 -29 29s14 29 29 29c16 0 29 -13 29 -29
s-13 -29 -29 -29zM286 723h-23l-66 116l-63 -116h-23l68 144h36z" />
    <glyph glyph-name="Ohorn" unicode="&#x1a0;" horiz-adv-x="396" 
d="M198 -12c-110 0 -145 160 -145 345s35 345 145 345c55 0 92 -41 114 -106c24 24 39 55 39 80c0 0 -5 -1 -7 -1c-19 0 -32 15 -32 33c0 17 13 32 32 32c21 0 38 -19 38 -53c0 -50 -29 -97 -61 -120c16 -59 22 -133 22 -210c0 -185 -35 -345 -145 -345zM198 18
c82 0 110 150 110 315c0 167 -28 315 -110 315s-110 -148 -110 -315c0 -165 28 -315 110 -315z" />
    <glyph glyph-name="uni1EDA" unicode="&#x1eda;" horiz-adv-x="396" 
d="M198 -12c-110 0 -145 160 -145 345s35 345 145 345c55 0 92 -41 114 -106c24 24 39 55 39 80c0 0 -5 -1 -7 -1c-19 0 -32 15 -32 33c0 17 13 32 32 32c21 0 38 -19 38 -53c0 -50 -29 -97 -61 -120c16 -59 22 -133 22 -210c0 -185 -35 -345 -145 -345zM198 18
c82 0 110 150 110 315c0 167 -28 315 -110 315s-110 -148 -110 -315c0 -165 28 -315 110 -315zM287 867l-95 -144h-24l78 144h41z" />
    <glyph glyph-name="uni1EDC" unicode="&#x1edc;" horiz-adv-x="396" 
d="M198 -12c-110 0 -145 160 -145 345s35 345 145 345c55 0 92 -41 114 -106c24 24 39 55 39 80c0 0 -5 -1 -7 -1c-19 0 -32 15 -32 33c0 17 13 32 32 32c21 0 38 -19 38 -53c0 -50 -29 -97 -61 -120c16 -59 22 -133 22 -210c0 -185 -35 -345 -145 -345zM198 18
c82 0 110 150 110 315c0 167 -28 315 -110 315s-110 -148 -110 -315c0 -165 28 -315 110 -315zM228 723h-24l-95 144h41z" />
    <glyph glyph-name="uni1EDE" unicode="&#x1ede;" horiz-adv-x="396" 
d="M198 -12c-110 0 -145 160 -145 345s35 345 145 345c55 0 92 -41 114 -106c24 24 39 55 39 80c0 0 -5 -1 -7 -1c-19 0 -32 15 -32 33c0 17 13 32 32 32c21 0 38 -19 38 -53c0 -50 -29 -97 -61 -120c16 -59 22 -133 22 -210c0 -185 -35 -345 -145 -345zM198 18
c82 0 110 150 110 315c0 167 -28 315 -110 315s-110 -148 -110 -315c0 -165 28 -315 110 -315zM169 772l-21 6c5 21 20 42 50 42c29 0 49 -18 49 -57c0 -24 -8 -46 -23 -66h-25c18 22 25 43 25 66c0 26 -12 35 -26 35c-17 0 -25 -10 -29 -26z" />
    <glyph glyph-name="uni1EE0" unicode="&#x1ee0;" horiz-adv-x="396" 
d="M198 -12c-110 0 -145 160 -145 345s35 345 145 345c55 0 92 -41 114 -106c24 24 39 55 39 80c0 0 -5 -1 -7 -1c-19 0 -32 15 -32 33c0 17 13 32 32 32c21 0 38 -19 38 -53c0 -50 -29 -97 -61 -120c16 -59 22 -133 22 -210c0 -185 -35 -345 -145 -345zM198 18
c82 0 110 150 110 315c0 167 -28 315 -110 315s-110 -148 -110 -315c0 -165 28 -315 110 -315zM236 721c-57 0 -41 113 -78 113c-23 0 -38 -32 -38 -107h-22c0 72 16 134 63 134c57 0 41 -113 78 -113c23 0 38 32 38 107h22c0 -71 -16 -134 -63 -134z" />
    <glyph glyph-name="uni1EE2" unicode="&#x1ee2;" horiz-adv-x="396" 
d="M198 -12c-110 0 -145 160 -145 345s35 345 145 345c55 0 92 -41 114 -106c24 24 39 55 39 80c0 0 -5 -1 -7 -1c-19 0 -32 15 -32 33c0 17 13 32 32 32c21 0 38 -19 38 -53c0 -50 -29 -97 -61 -120c16 -59 22 -133 22 -210c0 -185 -35 -345 -145 -345zM198 18
c82 0 110 150 110 315c0 167 -28 315 -110 315s-110 -148 -110 -315c0 -165 28 -315 110 -315zM200 -173c-15 0 -29 13 -29 29s14 29 29 29c16 0 29 -13 29 -29s-13 -29 -29 -29z" />
    <glyph glyph-name="OE" unicode="&#x152;" horiz-adv-x="561" 
d="M508 0h-210v80c-29 -79 -73 -92 -100 -92c-111 0 -145 161 -145 345c0 185 34 344 145 344c27 0 71 -12 100 -90v80h210v-30h-178v-279h171v-30h-171v-298h178v-30zM298 167v333c-16 90 -50 147 -100 147c-84 0 -110 -147 -110 -314c0 -166 26 -315 110 -315
c50 0 84 59 100 149z" />
    <glyph glyph-name="uni1E56" unicode="&#x1e56;" horiz-adv-x="341" 
d="M104 0h-32v667h100c94 0 135 -87 135 -189s-41 -189 -135 -189h-68v-289zM171 319c70 0 101 67 101 159s-31 159 -101 159h-67v-318h67zM170 733c-15 0 -29 13 -29 29s14 29 29 29c16 0 29 -13 29 -29s-13 -29 -29 -29z" />
    <glyph glyph-name="Racute" unicode="&#x154;" horiz-adv-x="366" 
d="M313 0h-36l-99 289h-74v-289h-32v667h100c79 0 135 -67 135 -189s-54 -172 -98 -184zM171 319c70 0 101 67 101 159s-31 159 -101 159h-67v-318h67zM278 867l-95 -144h-24l78 144h41z" />
    <glyph glyph-name="Rcaron" unicode="&#x158;" horiz-adv-x="366" 
d="M313 0h-36l-99 289h-74v-289h-32v667h100c79 0 135 -67 135 -189s-54 -172 -98 -184zM171 319c70 0 101 67 101 159s-31 159 -101 159h-67v-318h67zM200 723h-36l-71 144h23l66 -116l63 116h23z" />
    <glyph glyph-name="Rcommaaccent" unicode="&#x156;" horiz-adv-x="366" 
d="M313 0h-36l-99 289h-74v-289h-32v667h100c79 0 135 -67 135 -189s-54 -172 -98 -184zM171 319c70 0 101 67 101 159s-31 159 -101 159h-67v-318h67zM224 -137c0 -50 -30 -98 -62 -121l-22 18c32 24 53 62 53 92c0 0 -5 -1 -7 -1c-19 0 -32 15 -32 33c0 17 13 32 32 32
c21 0 38 -19 38 -53z" />
    <glyph glyph-name="Sacute" unicode="&#x15a;" horiz-adv-x="319" 
d="M145 -12c-46 0 -88 21 -118 57l24 26c21 -32 59 -53 94 -53c56 0 103 50 103 129c0 181 -203 202 -203 385c0 91 60 146 125 146c38 0 71 -13 97 -41l-19 -25c-21 24 -47 36 -78 36c-48 0 -93 -44 -93 -116c0 -154 203 -189 203 -385c0 -90 -54 -159 -135 -159zM258 867
l-95 -144h-24l78 144h41z" />
    <glyph glyph-name="Scaron" unicode="&#x160;" horiz-adv-x="319" 
d="M189 723h-36l-71 144h23l66 -116l63 116h23zM145 -12c-46 0 -88 21 -118 57l24 26c21 -32 59 -53 94 -53c56 0 103 50 103 129c0 181 -203 202 -203 385c0 91 60 146 125 146c38 0 71 -13 97 -41l-19 -25c-21 24 -47 36 -78 36c-48 0 -93 -44 -93 -116
c0 -154 203 -189 203 -385c0 -90 -54 -159 -135 -159z" />
    <glyph glyph-name="Scircumflex" unicode="&#x15c;" horiz-adv-x="319" 
d="M257 723h-23l-66 116l-63 -116h-23l68 144h36zM145 -12c-46 0 -88 21 -118 57l24 26c21 -32 59 -53 94 -53c56 0 103 50 103 129c0 181 -203 202 -203 385c0 91 60 146 125 146c38 0 71 -13 97 -41l-19 -25c-21 24 -47 36 -78 36c-48 0 -93 -44 -93 -116
c0 -154 203 -189 203 -385c0 -90 -54 -159 -135 -159z" />
    <glyph glyph-name="Scedilla" unicode="&#x15e;" horiz-adv-x="319" 
d="M140 -187c-30 0 -51 12 -70 28l13 26c20 -19 34 -27 57 -27c27 0 52 19 52 49c0 25 -13 40 -33 40c-14 0 -22 -6 -31 -15l-21 12l23 63c-40 4 -77 24 -103 56l24 26c21 -32 59 -53 94 -53c56 0 103 50 103 129c0 181 -203 202 -203 385c0 91 60 146 125 146
c38 0 71 -13 97 -41l-19 -25c-21 24 -47 36 -78 36c-48 0 -93 -44 -93 -116c0 -154 203 -189 203 -385c0 -85 -48 -151 -121 -158l-18 -48c8 7 17 10 29 10c27 0 51 -24 51 -62c0 -43 -36 -76 -81 -76z" />
    <glyph glyph-name="Scommaaccent" unicode="&#x218;" horiz-adv-x="319" 
d="M145 -12c-46 0 -88 21 -118 57l24 26c21 -32 59 -53 94 -53c56 0 103 50 103 129c0 181 -203 202 -203 385c0 91 60 146 125 146c38 0 71 -13 97 -41l-19 -25c-21 24 -47 36 -78 36c-48 0 -93 -44 -93 -116c0 -154 203 -189 203 -385c0 -90 -54 -159 -135 -159zM195 -137
c0 -50 -30 -98 -62 -121l-22 18c32 24 53 62 53 92c0 0 -5 -1 -7 -1c-19 0 -32 15 -32 33c0 17 13 32 32 32c21 0 38 -19 38 -53z" />
    <glyph glyph-name="uni1E60" unicode="&#x1e60;" horiz-adv-x="319" 
d="M145 -12c-46 0 -88 21 -118 57l24 26c21 -32 59 -53 94 -53c56 0 103 50 103 129c0 181 -203 202 -203 385c0 91 60 146 125 146c38 0 71 -13 97 -41l-19 -25c-21 24 -47 36 -78 36c-48 0 -93 -44 -93 -116c0 -154 203 -189 203 -385c0 -90 -54 -159 -135 -159zM159 733
c-15 0 -29 13 -29 29s14 29 29 29c16 0 29 -13 29 -29s-13 -29 -29 -29z" />
    <glyph glyph-name="Tbar" unicode="&#x166;" horiz-adv-x="287" 
d="M159 0h-32v321h-80v27h80v289h-109v30h251v-30h-110v-289h80v-27h-80v-321z" />
    <glyph glyph-name="Tcaron" unicode="&#x164;" horiz-adv-x="287" 
d="M159 0h-32v637h-109v30h251v-30h-110v-637zM163 723h-36l-71 144h23l66 -116l63 116h23z" />
    <glyph glyph-name="Tcommaaccent" unicode="&#x162;" horiz-adv-x="287" 
d="M159 0h-32v637h-109v30h251v-30h-110v-637zM187 -137c0 -50 -30 -98 -62 -121l-22 18c32 24 53 62 53 92c0 0 -5 -1 -7 -1c-19 0 -32 15 -32 33c0 17 13 32 32 32c21 0 38 -19 38 -53z" />
    <glyph glyph-name="uni021A" unicode="&#x21a;" horiz-adv-x="287" 
d="M159 0h-32v637h-109v30h251v-30h-110v-637zM187 -137c0 -50 -30 -98 -62 -121l-22 18c32 24 53 62 53 92c0 0 -5 -1 -7 -1c-19 0 -32 15 -32 33c0 17 13 32 32 32c21 0 38 -19 38 -53z" />
    <glyph glyph-name="uni1E6A" unicode="&#x1e6a;" horiz-adv-x="287" 
d="M159 0h-32v637h-109v30h251v-30h-110v-637zM143 733c-15 0 -29 13 -29 29s14 29 29 29c16 0 29 -13 29 -29s-13 -29 -29 -29z" />
    <glyph glyph-name="Uacute" unicode="&#xda;" horiz-adv-x="396" 
d="M287 867l-95 -144h-24l78 144h41zM198 -12c-79 0 -126 50 -126 166v513h32v-513c0 -101 38 -136 94 -136s94 35 94 136v513h32v-513c0 -116 -47 -166 -126 -166z" />
    <glyph glyph-name="Ubreve" unicode="&#x16c;" horiz-adv-x="396" 
d="M198 -12c-79 0 -126 50 -126 166v513h32v-513c0 -101 38 -136 94 -136s94 35 94 136v513h32v-513c0 -116 -47 -166 -126 -166zM314 784c-26 -36 -68 -58 -115 -58s-89 22 -115 58l22 18c19 -30 58 -49 93 -49s74 19 93 49z" />
    <glyph glyph-name="Ucircumflex" unicode="&#xdb;" horiz-adv-x="396" 
d="M285 723h-23l-66 116l-63 -116h-23l68 144h36zM198 -12c-79 0 -126 50 -126 166v513h32v-513c0 -101 38 -136 94 -136s94 35 94 136v513h32v-513c0 -116 -47 -166 -126 -166z" />
    <glyph glyph-name="Udieresis" unicode="&#xdc;" horiz-adv-x="396" 
d="M286 765c0 -15 -13 -28 -28 -28s-28 13 -28 28s13 28 28 28s28 -13 28 -28zM164 765c0 -15 -13 -28 -28 -28s-28 13 -28 28s13 28 28 28s28 -13 28 -28zM198 -12c-79 0 -126 50 -126 166v513h32v-513c0 -101 38 -136 94 -136s94 35 94 136v513h32v-513
c0 -116 -47 -166 -126 -166z" />
    <glyph glyph-name="Ugrave" unicode="&#xd9;" horiz-adv-x="396" 
d="M228 723h-24l-95 144h41zM198 -12c-79 0 -126 50 -126 166v513h32v-513c0 -101 38 -136 94 -136s94 35 94 136v513h32v-513c0 -116 -47 -166 -126 -166z" />
    <glyph glyph-name="Uhungarumlaut" unicode="&#x170;" horiz-adv-x="396" 
d="M198 -12c-79 0 -126 50 -126 166v513h32v-513c0 -101 38 -136 94 -136s94 35 94 136v513h32v-513c0 -116 -47 -166 -126 -166zM222 867l-75 -144h-20l58 144h37zM328 867l-75 -144h-20l58 144h37z" />
    <glyph glyph-name="Umacron" unicode="&#x16a;" horiz-adv-x="396" 
d="M198 -12c-79 0 -126 50 -126 166v513h32v-513c0 -101 38 -136 94 -136s94 35 94 136v513h32v-513c0 -116 -47 -166 -126 -166zM318 748h-240v27h240v-27z" />
    <glyph glyph-name="Uogonek" unicode="&#x172;" horiz-adv-x="396" 
d="M198 -12c-79 0 -126 50 -126 166v513h32v-513c0 -101 38 -136 94 -136s94 35 94 136v513h32v-513c0 -85 -25 -135 -70 -155c-39 -27 -70 -60 -70 -114c0 -32 14 -44 32 -44c21 0 33 14 38 37l25 -11c-7 -27 -25 -53 -63 -53c-36 0 -61 23 -61 71c0 41 18 76 44 103h-1z
" />
    <glyph glyph-name="Uring" unicode="&#x16e;" horiz-adv-x="396" 
d="M198 -12c-79 0 -126 50 -126 166v513h32v-513c0 -101 38 -136 94 -136s94 35 94 136v513h32v-513c0 -116 -47 -166 -126 -166zM198 720c-43 0 -78 35 -78 78s35 78 78 78s77 -35 77 -78s-34 -78 -77 -78zM198 744c30 0 54 24 54 54s-24 54 -54 54s-54 -24 -54 -54
s24 -54 54 -54z" />
    <glyph glyph-name="Utilde" unicode="&#x168;" horiz-adv-x="396" 
d="M198 -12c-79 0 -126 50 -126 166v513h32v-513c0 -101 38 -136 94 -136s94 35 94 136v513h32v-513c0 -116 -47 -166 -126 -166zM236 721c-57 0 -41 113 -78 113c-23 0 -38 -32 -38 -107h-22c0 72 16 134 63 134c57 0 41 -113 78 -113c23 0 38 32 38 107h22
c0 -71 -16 -134 -63 -134z" />
    <glyph glyph-name="uni1EE4" unicode="&#x1ee4;" horiz-adv-x="396" 
d="M198 -12c-79 0 -126 50 -126 166v513h32v-513c0 -101 38 -136 94 -136s94 35 94 136v513h32v-513c0 -116 -47 -166 -126 -166zM200 -173c-15 0 -29 13 -29 29s14 29 29 29c16 0 29 -13 29 -29s-13 -29 -29 -29z" />
    <glyph glyph-name="Uhorn" unicode="&#x1af;" horiz-adv-x="396" 
d="M415 730c0 -52 -33 -108 -91 -142v-434c0 -116 -47 -166 -126 -166s-126 50 -126 166v513h32v-513c0 -101 38 -136 94 -136s94 35 94 136v513h32v-46c36 24 60 69 60 98c0 0 -5 -1 -7 -1c-19 0 -32 15 -32 33c0 17 13 32 32 32c21 0 38 -19 38 -53z" />
    <glyph glyph-name="uni1EE6" unicode="&#x1ee6;" horiz-adv-x="396" 
d="M198 -12c-79 0 -126 50 -126 166v513h32v-513c0 -101 38 -136 94 -136s94 35 94 136v513h32v-513c0 -116 -47 -166 -126 -166zM169 772l-21 6c5 21 20 42 50 42c29 0 49 -18 49 -57c0 -24 -8 -46 -23 -66h-25c18 22 25 43 25 66c0 26 -12 35 -26 35
c-17 0 -25 -10 -29 -26z" />
    <glyph glyph-name="uni1EE8" unicode="&#x1ee8;" horiz-adv-x="396" 
d="M415 730c0 -52 -33 -108 -91 -142v-434c0 -116 -47 -166 -126 -166s-126 50 -126 166v513h32v-513c0 -101 38 -136 94 -136s94 35 94 136v513h32v-46c36 24 60 69 60 98c0 0 -5 -1 -7 -1c-19 0 -32 15 -32 33c0 17 13 32 32 32c21 0 38 -19 38 -53zM287 867l-95 -144h-24
l78 144h41z" />
    <glyph glyph-name="uni1EEA" unicode="&#x1eea;" horiz-adv-x="396" 
d="M415 730c0 -52 -33 -108 -91 -142v-434c0 -116 -47 -166 -126 -166s-126 50 -126 166v513h32v-513c0 -101 38 -136 94 -136s94 35 94 136v513h32v-46c36 24 60 69 60 98c0 0 -5 -1 -7 -1c-19 0 -32 15 -32 33c0 17 13 32 32 32c21 0 38 -19 38 -53zM228 723h-24l-95 144
h41z" />
    <glyph glyph-name="uni1EEC" unicode="&#x1eec;" horiz-adv-x="396" 
d="M415 730c0 -52 -33 -108 -91 -142v-434c0 -116 -47 -166 -126 -166s-126 50 -126 166v513h32v-513c0 -101 38 -136 94 -136s94 35 94 136v513h32v-46c36 24 60 69 60 98c0 0 -5 -1 -7 -1c-19 0 -32 15 -32 33c0 17 13 32 32 32c21 0 38 -19 38 -53zM169 772l-21 6
c5 21 20 42 50 42c29 0 49 -18 49 -57c0 -24 -8 -46 -23 -66h-25c18 22 25 43 25 66c0 26 -12 35 -26 35c-17 0 -25 -10 -29 -26z" />
    <glyph glyph-name="uni1EEE" unicode="&#x1eee;" horiz-adv-x="396" 
d="M415 730c0 -52 -33 -108 -91 -142v-434c0 -116 -47 -166 -126 -166s-126 50 -126 166v513h32v-513c0 -101 38 -136 94 -136s94 35 94 136v513h32v-46c36 24 60 69 60 98c0 0 -5 -1 -7 -1c-19 0 -32 15 -32 33c0 17 13 32 32 32c21 0 38 -19 38 -53zM235 721
c-57 0 -41 113 -78 113c-23 0 -38 -32 -38 -107h-22c0 72 16 134 63 134c57 0 41 -113 78 -113c23 0 38 32 38 107h22c0 -71 -16 -134 -63 -134z" />
    <glyph glyph-name="uni1EF0" unicode="&#x1ef0;" horiz-adv-x="396" 
d="M415 730c0 -52 -33 -108 -91 -142v-434c0 -116 -47 -166 -126 -166s-126 50 -126 166v513h32v-513c0 -101 38 -136 94 -136s94 35 94 136v513h32v-46c36 24 60 69 60 98c0 0 -5 -1 -7 -1c-19 0 -32 15 -32 33c0 17 13 32 32 32c21 0 38 -19 38 -53zM200 -173
c-15 0 -29 13 -29 29s14 29 29 29c16 0 29 -13 29 -29s-13 -29 -29 -29z" />
    <glyph glyph-name="Wacute" unicode="&#x1e82;" horiz-adv-x="490" 
d="M366 0h-38l-83 587l-83 -587h-38l-100 667h35l84 -604l85 604h34l85 -604l84 604h35zM346 867l-95 -144h-24l78 144h41z" />
    <glyph glyph-name="Wcircumflex" unicode="&#x174;" horiz-adv-x="490" 
d="M366 0h-38l-83 587l-83 -587h-38l-100 667h35l84 -604l85 604h34l85 -604l84 604h35zM333 723h-23l-66 116l-63 -116h-23l68 144h36z" />
    <glyph glyph-name="Wdieresis" unicode="&#x1e84;" horiz-adv-x="490" 
d="M366 0h-38l-83 587l-83 -587h-38l-100 667h35l84 -604l85 604h34l85 -604l84 604h35zM334 765c0 -15 -13 -28 -28 -28s-28 13 -28 28s13 28 28 28s28 -13 28 -28zM212 765c0 -15 -13 -28 -28 -28s-28 13 -28 28s13 28 28 28s28 -13 28 -28z" />
    <glyph glyph-name="Wgrave" unicode="&#x1e80;" horiz-adv-x="490" 
d="M366 0h-38l-83 587l-83 -587h-38l-100 667h35l84 -604l85 604h34l85 -604l84 604h35zM275 723h-24l-95 144h41z" />
    <glyph glyph-name="Yacute" unicode="&#xdd;" horiz-adv-x="322" 
d="M250 867l-95 -144h-24l78 144h41zM177 0h-32v289l-143 378h36l123 -339l125 339h34l-143 -378v-289z" />
    <glyph glyph-name="Ycircumflex" unicode="&#x176;" horiz-adv-x="322" 
d="M249 723h-23l-66 116l-63 -116h-23l68 144h36zM177 0h-32v289l-143 378h36l123 -339l125 339h34l-143 -378v-289z" />
    <glyph glyph-name="Ydieresis" unicode="&#x178;" horiz-adv-x="322" 
d="M254 765c0 -15 -13 -28 -28 -28s-28 13 -28 28s13 28 28 28s28 -13 28 -28zM132 765c0 -15 -13 -28 -28 -28s-28 13 -28 28s13 28 28 28s28 -13 28 -28zM177 0h-32v289l-143 378h36l123 -339l125 339h34l-143 -378v-289z" />
    <glyph glyph-name="Ygrave" unicode="&#x1ef2;" horiz-adv-x="322" 
d="M177 0h-32v289l-143 378h36l123 -339l125 339h34l-143 -378v-289zM191 723h-24l-95 144h41z" />
    <glyph glyph-name="Zacute" unicode="&#x179;" horiz-adv-x="309" 
d="M273 0h-237v31l197 606h-197v30h230v-30l-198 -607h205v-30zM243 867l-95 -144h-24l78 144h41z" />
    <glyph glyph-name="Zcaron" unicode="&#x17d;" horiz-adv-x="309" 
d="M175 723h-36l-71 144h23l66 -116l63 116h23zM273 0h-237v31l197 606h-197v30h230v-30l-198 -607h205v-30z" />
    <glyph glyph-name="Zdotaccent" unicode="&#x17b;" horiz-adv-x="309" 
d="M273 0h-237v31l197 606h-197v30h230v-30l-198 -607h205v-30zM154 733c-15 0 -29 13 -29 29s14 29 29 29c16 0 29 -13 29 -29s-13 -29 -29 -29z" />
    <glyph glyph-name="Eth" unicode="&#xd0;" horiz-adv-x="402" 
d="M181 0h-93v318h-62v30h62v319h93c120 0 168 -140 168 -334c0 -196 -48 -333 -168 -333zM218 318h-98v-288h61c100 0 133 134 133 303c0 167 -33 304 -133 304h-61v-289h98v-30z" />
    <glyph glyph-name="Thorn" unicode="&#xde;" horiz-adv-x="341" 
d="M104 0h-32v667h32v-129h68c94 0 135 -88 135 -190s-41 -188 -135 -188h-68v-160zM171 190c70 0 101 66 101 158s-31 160 -101 160h-67v-318h67z" />
    <glyph glyph-name="aacute" unicode="&#xe1;" 
d="M277 0h-30v53c-23 -49 -58 -65 -88 -65c-74 0 -118 68 -118 161s44 161 118 161c30 0 65 -15 88 -63v101c0 78 -17 120 -77 120c-33 0 -61 -13 -93 -54l-18 23c38 41 73 58 111 58c81 0 107 -48 107 -146v-349zM159 15c35 0 69 18 88 73v120c-19 56 -53 75 -88 75
c-59 0 -85 -65 -85 -134s26 -134 85 -134zM259 700l-95 -144h-24l78 144h41z" />
    <glyph glyph-name="abreve" unicode="&#x103;" 
d="M277 0h-30v53c-23 -49 -58 -65 -88 -65c-74 0 -118 68 -118 161s44 161 118 161c30 0 65 -15 88 -63v101c0 78 -17 120 -77 120c-33 0 -61 -13 -93 -54l-18 23c38 41 73 58 111 58c81 0 107 -48 107 -146v-349zM159 15c35 0 69 18 88 73v120c-19 56 -53 75 -88 75
c-59 0 -85 -65 -85 -134s26 -134 85 -134zM286 617c-26 -36 -68 -58 -115 -58s-89 22 -115 58l22 18c19 -30 58 -49 93 -49s74 19 93 49z" />
    <glyph glyph-name="acircumflex" unicode="&#xe2;" 
d="M277 0h-30v53c-23 -49 -58 -65 -88 -65c-74 0 -118 68 -118 161s44 161 118 161c30 0 65 -15 88 -63v101c0 78 -17 120 -77 120c-33 0 -61 -13 -93 -54l-18 23c38 41 73 58 111 58c81 0 107 -48 107 -146v-349zM159 15c35 0 69 18 88 73v120c-19 56 -53 75 -88 75
c-59 0 -85 -65 -85 -134s26 -134 85 -134zM260 556h-23l-66 116l-63 -116h-23l68 144h36z" />
    <glyph glyph-name="adieresis" unicode="&#xe4;" 
d="M277 0h-30v53c-23 -49 -58 -65 -88 -65c-74 0 -118 68 -118 161s44 161 118 161c30 0 65 -15 88 -63v101c0 78 -17 120 -77 120c-33 0 -61 -13 -93 -54l-18 23c38 41 73 58 111 58c81 0 107 -48 107 -146v-349zM159 15c35 0 69 18 88 73v120c-19 56 -53 75 -88 75
c-59 0 -85 -65 -85 -134s26 -134 85 -134zM259 598c0 -15 -13 -28 -28 -28s-28 13 -28 28s13 28 28 28s28 -13 28 -28zM137 598c0 -15 -13 -28 -28 -28s-28 13 -28 28s13 28 28 28s28 -13 28 -28z" />
    <glyph glyph-name="agrave" unicode="&#xe0;" 
d="M277 0h-30v53c-23 -49 -58 -65 -88 -65c-74 0 -118 68 -118 161s44 161 118 161c30 0 65 -15 88 -63v101c0 78 -17 120 -77 120c-33 0 -61 -13 -93 -54l-18 23c38 41 73 58 111 58c81 0 107 -48 107 -146v-349zM159 15c35 0 69 18 88 73v120c-19 56 -53 75 -88 75
c-59 0 -85 -65 -85 -134s26 -134 85 -134zM200 556h-24l-95 144h41z" />
    <glyph glyph-name="amacron" unicode="&#x101;" 
d="M277 0h-30v53c-23 -49 -58 -65 -88 -65c-74 0 -118 68 -118 161s44 161 118 161c30 0 65 -15 88 -63v101c0 78 -17 120 -77 120c-33 0 -61 -13 -93 -54l-18 23c38 41 73 58 111 58c81 0 107 -48 107 -146v-349zM159 15c35 0 69 18 88 73v120c-19 56 -53 75 -88 75
c-59 0 -85 -65 -85 -134s26 -134 85 -134zM291 581h-240v27h240v-27z" />
    <glyph glyph-name="aogonek" unicode="&#x105;" 
d="M275 -122l25 -11c-7 -27 -25 -53 -63 -53c-36 0 -61 23 -61 71c0 54 33 99 71 127v41c-23 -49 -58 -65 -88 -65c-74 0 -118 68 -118 161s44 161 118 161c30 0 65 -15 88 -63v101c0 78 -17 120 -77 120c-33 0 -61 -13 -93 -54l-18 23c38 41 73 58 111 58
c81 0 107 -48 107 -146v-349c-40 -27 -72 -61 -72 -115c0 -32 14 -44 32 -44c21 0 33 14 38 37zM159 15c35 0 69 18 88 73v120c-19 56 -53 75 -88 75c-59 0 -85 -65 -85 -134s26 -134 85 -134z" />
    <glyph glyph-name="aring" unicode="&#xe5;" 
d="M277 0h-30v53c-23 -49 -58 -65 -88 -65c-74 0 -118 68 -118 161s44 161 118 161c30 0 65 -15 88 -63v101c0 78 -17 120 -77 120c-33 0 -61 -13 -93 -54l-18 23c38 41 73 58 111 58c81 0 107 -48 107 -146v-349zM159 15c35 0 69 18 88 73v120c-19 56 -53 75 -88 75
c-59 0 -85 -65 -85 -134s26 -134 85 -134zM171 553c-43 0 -78 35 -78 78s35 78 78 78s77 -35 77 -78s-34 -78 -77 -78zM171 577c30 0 54 24 54 54s-24 54 -54 54s-54 -24 -54 -54s24 -54 54 -54z" />
    <glyph glyph-name="atilde" unicode="&#xe3;" 
d="M277 0h-30v53c-23 -49 -58 -65 -88 -65c-74 0 -118 68 -118 161s44 161 118 161c30 0 65 -15 88 -63v101c0 78 -17 120 -77 120c-33 0 -61 -13 -93 -54l-18 23c38 41 73 58 111 58c81 0 107 -48 107 -146v-349zM159 15c35 0 69 18 88 73v120c-19 56 -53 75 -88 75
c-59 0 -85 -65 -85 -134s26 -134 85 -134zM210 554c-57 0 -41 113 -78 113c-23 0 -38 -32 -38 -107h-22c0 72 16 134 63 134c57 0 41 -113 78 -113c23 0 38 32 38 107h22c0 -71 -16 -134 -63 -134z" />
    <glyph glyph-name="uni1EA1" unicode="&#x1ea1;" 
d="M277 0h-30v53c-23 -49 -58 -65 -88 -65c-74 0 -118 68 -118 161s44 161 118 161c30 0 65 -15 88 -63v101c0 78 -17 120 -77 120c-33 0 -61 -13 -93 -54l-18 23c38 41 73 58 111 58c81 0 107 -48 107 -146v-349zM159 15c35 0 69 18 88 73v120c-19 56 -53 75 -88 75
c-59 0 -85 -65 -85 -134s26 -134 85 -134zM170 -173c-15 0 -29 13 -29 29s14 29 29 29c16 0 29 -13 29 -29s-13 -29 -29 -29z" />
    <glyph glyph-name="uni1EA3" unicode="&#x1ea3;" 
d="M277 0h-30v53c-23 -49 -58 -65 -88 -65c-74 0 -118 68 -118 161s44 161 118 161c30 0 65 -15 88 -63v101c0 78 -17 120 -77 120c-33 0 -61 -13 -93 -54l-18 23c38 41 73 58 111 58c81 0 107 -48 107 -146v-349zM159 15c35 0 69 18 88 73v120c-19 56 -53 75 -88 75
c-59 0 -85 -65 -85 -134s26 -134 85 -134zM142 602l-21 6c5 21 20 42 50 42c29 0 49 -18 49 -57c0 -24 -8 -46 -23 -66h-25c18 22 25 43 25 66c0 26 -12 35 -26 35c-17 0 -25 -10 -29 -26z" />
    <glyph glyph-name="uni1EA5" unicode="&#x1ea5;" 
d="M277 0h-30v53c-23 -49 -58 -65 -88 -65c-74 0 -118 68 -118 161s44 161 118 161c30 0 65 -15 88 -63v101c0 78 -17 120 -77 120c-33 0 -61 -13 -93 -54l-18 23c38 41 73 58 111 58c81 0 107 -48 107 -146v-349zM159 15c35 0 69 18 88 73v120c-19 56 -53 75 -88 75
c-59 0 -85 -65 -85 -134s26 -134 85 -134zM260 556h-23l-66 116l-63 -116h-23l68 144h36zM353 771l-95 -144h-24l78 144h41z" />
    <glyph glyph-name="uni1EAD" unicode="&#x1ead;" 
d="M277 0h-30v53c-23 -49 -58 -65 -88 -65c-74 0 -118 68 -118 161s44 161 118 161c30 0 65 -15 88 -63v101c0 78 -17 120 -77 120c-33 0 -61 -13 -93 -54l-18 23c38 41 73 58 111 58c81 0 107 -48 107 -146v-349zM159 15c35 0 69 18 88 73v120c-19 56 -53 75 -88 75
c-59 0 -85 -65 -85 -134s26 -134 85 -134zM170 -173c-15 0 -29 13 -29 29s14 29 29 29c16 0 29 -13 29 -29s-13 -29 -29 -29zM258 556h-23l-66 116l-63 -116h-23l68 144h36z" />
    <glyph glyph-name="uni1EA7" unicode="&#x1ea7;" 
d="M277 0h-30v53c-23 -49 -58 -65 -88 -65c-74 0 -118 68 -118 161s44 161 118 161c30 0 65 -15 88 -63v101c0 78 -17 120 -77 120c-33 0 -61 -13 -93 -54l-18 23c38 41 73 58 111 58c81 0 107 -48 107 -146v-349zM159 15c35 0 69 18 88 73v120c-19 56 -53 75 -88 75
c-59 0 -85 -65 -85 -134s26 -134 85 -134zM260 556h-23l-66 116l-63 -116h-23l68 144h36zM109 627h-24l-95 144h41z" />
    <glyph glyph-name="uni1EA9" unicode="&#x1ea9;" 
d="M277 0h-30v53c-23 -49 -58 -65 -88 -65c-74 0 -118 68 -118 161s44 161 118 161c30 0 65 -15 88 -63v101c0 78 -17 120 -77 120c-33 0 -61 -13 -93 -54l-18 23c38 41 73 58 111 58c81 0 107 -48 107 -146v-349zM159 15c35 0 69 18 88 73v120c-19 56 -53 75 -88 75
c-59 0 -85 -65 -85 -134s26 -134 85 -134zM260 556h-23l-66 116l-63 -116h-23l68 144h36zM198 742l-21 6c5 21 20 42 50 42c29 0 49 -18 49 -57c0 -24 -8 -46 -23 -66h-25c18 22 25 43 25 66c0 26 -12 35 -26 35c-17 0 -25 -10 -29 -26z" />
    <glyph glyph-name="uni1EAF" unicode="&#x1eaf;" 
d="M277 0h-30v53c-23 -49 -58 -65 -88 -65c-74 0 -118 68 -118 161s44 161 118 161c30 0 65 -15 88 -63v101c0 78 -17 120 -77 120c-33 0 -61 -13 -93 -54l-18 23c38 41 73 58 111 58c81 0 107 -48 107 -146v-349zM159 15c35 0 69 18 88 73v120c-19 56 -53 75 -88 75
c-59 0 -85 -65 -85 -134s26 -134 85 -134zM286 589c-26 -36 -68 -58 -115 -58s-89 22 -115 58l22 18c19 -30 58 -49 93 -49s74 19 93 49zM259 756l-95 -144h-24l78 144h41z" />
    <glyph glyph-name="uni1EAB" unicode="&#x1eab;" 
d="M277 0h-30v53c-23 -49 -58 -65 -88 -65c-74 0 -118 68 -118 161s44 161 118 161c30 0 65 -15 88 -63v101c0 78 -17 120 -77 120c-33 0 -61 -13 -93 -54l-18 23c38 41 73 58 111 58c81 0 107 -48 107 -146v-349zM159 15c35 0 69 18 88 73v120c-19 56 -53 75 -88 75
c-59 0 -85 -65 -85 -134s26 -134 85 -134zM260 523h-23l-66 116l-63 -116h-23l68 144h36zM208 682c-57 0 -41 113 -78 113c-23 0 -38 -32 -38 -107h-22c0 72 16 134 63 134c57 0 41 -113 78 -113c23 0 38 32 38 107h22c0 -71 -16 -134 -63 -134z" />
    <glyph glyph-name="uni1EB1" unicode="&#x1eb1;" 
d="M277 0h-30v53c-23 -49 -58 -65 -88 -65c-74 0 -118 68 -118 161s44 161 118 161c30 0 65 -15 88 -63v101c0 78 -17 120 -77 120c-33 0 -61 -13 -93 -54l-18 23c38 41 73 58 111 58c81 0 107 -48 107 -146v-349zM159 15c35 0 69 18 88 73v120c-19 56 -53 75 -88 75
c-59 0 -85 -65 -85 -134s26 -134 85 -134zM286 589c-26 -36 -68 -58 -115 -58s-89 22 -115 58l22 18c19 -30 58 -49 93 -49s74 19 93 49zM199 612h-24l-95 144h41z" />
    <glyph glyph-name="uni1EB3" unicode="&#x1eb3;" 
d="M277 0h-30v53c-23 -49 -58 -65 -88 -65c-74 0 -118 68 -118 161s44 161 118 161c30 0 65 -15 88 -63v101c0 78 -17 120 -77 120c-33 0 -61 -13 -93 -54l-18 23c38 41 73 58 111 58c81 0 107 -48 107 -146v-349zM159 15c35 0 69 18 88 73v120c-19 56 -53 75 -88 75
c-59 0 -85 -65 -85 -134s26 -134 85 -134zM286 589c-26 -36 -68 -58 -115 -58s-89 22 -115 58l22 18c19 -30 58 -49 93 -49s74 19 93 49zM144 682l-21 6c5 21 20 42 50 42c29 0 49 -18 49 -57c0 -24 -8 -46 -23 -66h-25c18 22 25 43 25 66c0 26 -12 35 -26 35
c-17 0 -25 -10 -29 -26z" />
    <glyph glyph-name="uni1EB5" unicode="&#x1eb5;" 
d="M277 0h-30v53c-23 -49 -58 -65 -88 -65c-74 0 -118 68 -118 161s44 161 118 161c30 0 65 -15 88 -63v101c0 78 -17 120 -77 120c-33 0 -61 -13 -93 -54l-18 23c38 41 73 58 111 58c81 0 107 -48 107 -146v-349zM159 15c35 0 69 18 88 73v120c-19 56 -53 75 -88 75
c-59 0 -85 -65 -85 -134s26 -134 85 -134zM286 589c-26 -36 -68 -58 -115 -58s-89 22 -115 58l22 18c19 -30 58 -49 93 -49s74 19 93 49zM204 636c-57 0 -41 113 -78 113c-23 0 -38 -32 -38 -107h-22c0 72 16 134 63 134c57 0 41 -113 78 -113c23 0 38 32 38 107h22
c0 -71 -16 -134 -63 -134z" />
    <glyph glyph-name="uni1EB7" unicode="&#x1eb7;" 
d="M277 0h-30v53c-23 -49 -58 -65 -88 -65c-74 0 -118 68 -118 161s44 161 118 161c30 0 65 -15 88 -63v101c0 78 -17 120 -77 120c-33 0 -61 -13 -93 -54l-18 23c38 41 73 58 111 58c81 0 107 -48 107 -146v-349zM159 15c35 0 69 18 88 73v120c-19 56 -53 75 -88 75
c-59 0 -85 -65 -85 -134s26 -134 85 -134zM286 617c-26 -36 -68 -58 -115 -58s-89 22 -115 58l22 18c19 -30 58 -49 93 -49s74 19 93 49zM170 -173c-15 0 -29 13 -29 29s14 29 29 29c16 0 29 -13 29 -29s-13 -29 -29 -29z" />
    <glyph glyph-name="ae" unicode="&#xe6;" horiz-adv-x="543" 
d="M502 232h-218c0 -130 38 -217 109 -217c28 0 57 24 76 68l28 -14c-24 -48 -59 -81 -107 -81c-71 0 -100 53 -120 110c-15 -62 -47 -110 -107 -110c-77 0 -122 67 -122 160s44 162 122 162c31 0 67 -15 91 -63v101c0 78 -20 120 -80 120c-34 0 -64 -13 -97 -54l-18 23
c38 41 73 58 111 58c65 0 100 -30 106 -99c13 52 45 99 97 99c98 0 129 -119 129 -253v-10zM284 259h185c0 93 -19 209 -93 209s-92 -126 -92 -209zM254 184v24c-20 56 -55 75 -92 75c-54 0 -88 -49 -88 -134s34 -134 88 -134c56 0 92 60 92 169z" />
    <glyph glyph-name="aeacute" unicode="&#x1fd;" horiz-adv-x="543" 
d="M502 232h-218c0 -130 38 -217 109 -217c28 0 57 24 76 68l28 -14c-24 -48 -59 -81 -107 -81c-71 0 -100 53 -120 110c-15 -62 -47 -110 -107 -110c-77 0 -122 67 -122 160s44 162 122 162c31 0 67 -15 91 -63v101c0 78 -20 120 -80 120c-34 0 -64 -13 -97 -54l-18 23
c38 41 73 58 111 58c65 0 100 -30 106 -99c13 52 45 99 97 99c98 0 129 -119 129 -253v-10zM284 259h185c0 93 -19 209 -93 209s-92 -126 -92 -209zM254 184v24c-20 56 -55 75 -92 75c-54 0 -88 -49 -88 -134s34 -134 88 -134c56 0 92 60 92 169zM353 700l-95 -144h-24
l78 144h41z" />
    <glyph glyph-name="aacute.alt1" horiz-adv-x="351" 
d="M257 700l-95 -144h-24l78 144h41zM286 0h-30v70c-20 -50 -56 -82 -88 -82c-88 0 -121 111 -121 253c0 141 33 254 121 254c32 0 68 -27 88 -84v72h30v-483zM168 15c38 0 76 49 88 100v251c-12 51 -50 102 -88 102c-70 0 -88 -111 -88 -227s18 -226 88 -226z" />
    <glyph glyph-name="abreve.alt1" horiz-adv-x="351" 
d="M293 617c-26 -36 -68 -58 -115 -58s-89 22 -115 58l22 18c19 -30 58 -49 93 -49s74 19 93 49zM286 0h-30v70c-20 -50 -56 -82 -88 -82c-88 0 -121 111 -121 253c0 141 33 254 121 254c32 0 68 -27 88 -84v72h30v-483zM168 15c38 0 76 49 88 100v251
c-12 51 -50 102 -88 102c-70 0 -88 -111 -88 -227s18 -226 88 -226z" />
    <glyph glyph-name="acircumflex.alt1" horiz-adv-x="351" 
d="M266 556h-23l-66 116l-63 -116h-23l68 144h36zM286 0h-30v70c-20 -50 -56 -82 -88 -82c-88 0 -121 111 -121 253c0 141 33 254 121 254c32 0 68 -27 88 -84v72h30v-483zM168 15c38 0 76 49 88 100v251c-12 51 -50 102 -88 102c-70 0 -88 -111 -88 -227s18 -226 88 -226z
" />
    <glyph glyph-name="adieresis.alt1" horiz-adv-x="351" 
d="M264 598c0 -15 -13 -28 -28 -28s-28 13 -28 28s13 28 28 28s28 -13 28 -28zM142 598c0 -15 -13 -28 -28 -28s-28 13 -28 28s13 28 28 28s28 -13 28 -28zM286 0h-30v70c-20 -50 -56 -82 -88 -82c-88 0 -121 111 -121 253c0 141 33 254 121 254c32 0 68 -27 88 -84v72h30
v-483zM168 15c38 0 76 49 88 100v251c-12 51 -50 102 -88 102c-70 0 -88 -111 -88 -227s18 -226 88 -226z" />
    <glyph glyph-name="agrave.alt1" horiz-adv-x="351" 
d="M198 556h-24l-95 144h41zM286 0h-30v70c-20 -50 -56 -82 -88 -82c-88 0 -121 111 -121 253c0 141 33 254 121 254c32 0 68 -27 88 -84v72h30v-483zM168 15c38 0 76 49 88 100v251c-12 51 -50 102 -88 102c-70 0 -88 -111 -88 -227s18 -226 88 -226z" />
    <glyph glyph-name="amacron.alt1" horiz-adv-x="351" 
d="M300 581h-240v27h240v-27zM286 0h-30v70c-20 -50 -56 -82 -88 -82c-88 0 -121 111 -121 253c0 141 33 254 121 254c32 0 68 -27 88 -84v72h30v-483zM168 15c38 0 76 49 88 100v251c-12 51 -50 102 -88 102c-70 0 -88 -111 -88 -227s18 -226 88 -226z" />
    <glyph glyph-name="aogonek.alt1" horiz-adv-x="351" 
d="M286 0c-40 -27 -72 -61 -72 -115c0 -32 14 -44 32 -44c21 0 33 14 38 37l25 -11c-7 -27 -25 -53 -63 -53c-36 0 -61 23 -61 71c0 54 33 99 71 127v58c-20 -50 -56 -82 -88 -82c-88 0 -121 111 -121 253c0 141 33 254 121 254c32 0 68 -27 88 -84v72h30v-483zM168 15
c38 0 76 49 88 100v251c-12 51 -50 102 -88 102c-70 0 -88 -111 -88 -227s18 -226 88 -226z" />
    <glyph glyph-name="aring.alt1" horiz-adv-x="351" 
d="M179 553c-43 0 -78 35 -78 78s35 78 78 78s77 -35 77 -78s-34 -78 -77 -78zM179 577c30 0 54 24 54 54s-24 54 -54 54s-54 -24 -54 -54s24 -54 54 -54zM286 0h-30v70c-20 -50 -56 -82 -88 -82c-88 0 -121 111 -121 253c0 141 33 254 121 254c32 0 68 -27 88 -84v72h30
v-483zM168 15c38 0 76 49 88 100v251c-12 51 -50 102 -88 102c-70 0 -88 -111 -88 -227s18 -226 88 -226z" />
    <glyph glyph-name="atilde.alt1" horiz-adv-x="351" 
d="M214 554c-57 0 -41 113 -78 113c-23 0 -38 -32 -38 -107h-22c0 72 16 134 63 134c57 0 41 -113 78 -113c23 0 38 32 38 107h22c0 -71 -16 -134 -63 -134zM286 0h-30v70c-20 -50 -56 -82 -88 -82c-88 0 -121 111 -121 253c0 141 33 254 121 254c32 0 68 -27 88 -84v72h30
v-483zM168 15c38 0 76 49 88 100v251c-12 51 -50 102 -88 102c-70 0 -88 -111 -88 -227s18 -226 88 -226z" />
    <glyph glyph-name="uni1EA1.alt1" horiz-adv-x="351" 
d="M286 0h-30v70c-20 -50 -56 -82 -88 -82c-88 0 -121 111 -121 253c0 141 33 254 121 254c32 0 68 -27 88 -84v72h30v-483zM168 15c38 0 76 49 88 100v251c-12 51 -50 102 -88 102c-70 0 -88 -111 -88 -227s18 -226 88 -226zM178 -173c-15 0 -29 13 -29 29s14 29 29 29
c16 0 29 -13 29 -29s-13 -29 -29 -29z" />
    <glyph glyph-name="uni1EA3.alt1" horiz-adv-x="351" 
d="M286 0h-30v70c-20 -50 -56 -82 -88 -82c-88 0 -121 111 -121 253c0 141 33 254 121 254c32 0 68 -27 88 -84v72h30v-483zM168 15c38 0 76 49 88 100v251c-12 51 -50 102 -88 102c-70 0 -88 -111 -88 -227s18 -226 88 -226zM150 602l-21 6c5 21 20 42 50 42
c29 0 49 -18 49 -57c0 -24 -8 -46 -23 -66h-25c18 22 25 43 25 66c0 26 -12 35 -26 35c-17 0 -25 -10 -29 -26z" />
    <glyph glyph-name="uni1EA5.alt1" horiz-adv-x="351" 
d="M286 0h-30v70c-20 -50 -56 -82 -88 -82c-88 0 -121 111 -121 253c0 141 33 254 121 254c32 0 68 -27 88 -84v72h30v-483zM168 15c38 0 76 49 88 100v251c-12 51 -50 102 -88 102c-70 0 -88 -111 -88 -227s18 -226 88 -226zM268 556h-23l-66 116l-63 -116h-23l68 144h36z
M361 771l-95 -144h-24l78 144h41z" />
    <glyph glyph-name="uni1EAD.alt1" horiz-adv-x="351" 
d="M286 0h-30v70c-20 -50 -56 -82 -88 -82c-88 0 -121 111 -121 253c0 141 33 254 121 254c32 0 68 -27 88 -84v72h30v-483zM168 15c38 0 76 49 88 100v251c-12 51 -50 102 -88 102c-70 0 -88 -111 -88 -227s18 -226 88 -226zM179 -173c-15 0 -29 13 -29 29s14 29 29 29
c16 0 29 -13 29 -29s-13 -29 -29 -29zM268 556h-23l-66 116l-63 -116h-23l68 144h36z" />
    <glyph glyph-name="uni1EA7.alt1" horiz-adv-x="351" 
d="M286 0h-30v70c-20 -50 -56 -82 -88 -82c-88 0 -121 111 -121 253c0 141 33 254 121 254c32 0 68 -27 88 -84v72h30v-483zM168 15c38 0 76 49 88 100v251c-12 51 -50 102 -88 102c-70 0 -88 -111 -88 -227s18 -226 88 -226zM268 556h-23l-66 116l-63 -116h-23l68 144h36z
M117 627h-24l-95 144h41z" />
    <glyph glyph-name="uni1EA9.alt1" horiz-adv-x="351" 
d="M286 0h-30v70c-20 -50 -56 -82 -88 -82c-88 0 -121 111 -121 253c0 141 33 254 121 254c32 0 68 -27 88 -84v72h30v-483zM168 15c38 0 76 49 88 100v251c-12 51 -50 102 -88 102c-70 0 -88 -111 -88 -227s18 -226 88 -226zM268 556h-23l-66 116l-63 -116h-23l68 144h36z
M206 742l-21 6c5 21 20 42 50 42c29 0 49 -18 49 -57c0 -24 -8 -46 -23 -66h-25c18 22 25 43 25 66c0 26 -12 35 -26 35c-17 0 -25 -10 -29 -26z" />
    <glyph glyph-name="uni1EAF.alt1" horiz-adv-x="351" 
d="M286 0h-30v70c-20 -50 -56 -82 -88 -82c-88 0 -121 111 -121 253c0 141 33 254 121 254c32 0 68 -27 88 -84v72h30v-483zM168 15c38 0 76 49 88 100v251c-12 51 -50 102 -88 102c-70 0 -88 -111 -88 -227s18 -226 88 -226zM294 589c-26 -36 -68 -58 -115 -58
s-89 22 -115 58l22 18c19 -30 58 -49 93 -49s74 19 93 49zM267 756l-95 -144h-24l78 144h41z" />
    <glyph glyph-name="uni1EAB.alt1" horiz-adv-x="351" 
d="M286 0h-30v70c-20 -50 -56 -82 -88 -82c-88 0 -121 111 -121 253c0 141 33 254 121 254c32 0 68 -27 88 -84v72h30v-483zM168 15c38 0 76 49 88 100v251c-12 51 -50 102 -88 102c-70 0 -88 -111 -88 -227s18 -226 88 -226zM268 523h-23l-66 116l-63 -116h-23l68 144h36z
M216 682c-57 0 -41 113 -78 113c-23 0 -38 -32 -38 -107h-22c0 72 16 134 63 134c57 0 41 -113 78 -113c23 0 38 32 38 107h22c0 -71 -16 -134 -63 -134z" />
    <glyph glyph-name="uni1EB1.alt1" horiz-adv-x="351" 
d="M286 0h-30v70c-20 -50 -56 -82 -88 -82c-88 0 -121 111 -121 253c0 141 33 254 121 254c32 0 68 -27 88 -84v72h30v-483zM168 15c38 0 76 49 88 100v251c-12 51 -50 102 -88 102c-70 0 -88 -111 -88 -227s18 -226 88 -226zM294 589c-26 -36 -68 -58 -115 -58
s-89 22 -115 58l22 18c19 -30 58 -49 93 -49s74 19 93 49zM207 612h-24l-95 144h41z" />
    <glyph glyph-name="uni1EB3.alt1" horiz-adv-x="351" 
d="M286 0h-30v70c-20 -50 -56 -82 -88 -82c-88 0 -121 111 -121 253c0 141 33 254 121 254c32 0 68 -27 88 -84v72h30v-483zM168 15c38 0 76 49 88 100v251c-12 51 -50 102 -88 102c-70 0 -88 -111 -88 -227s18 -226 88 -226zM294 589c-26 -36 -68 -58 -115 -58
s-89 22 -115 58l22 18c19 -30 58 -49 93 -49s74 19 93 49zM152 682l-21 6c5 21 20 42 50 42c29 0 49 -18 49 -57c0 -24 -8 -46 -23 -66h-25c18 22 25 43 25 66c0 26 -12 35 -26 35c-17 0 -25 -10 -29 -26z" />
    <glyph glyph-name="uni1EB5.alt1" horiz-adv-x="351" 
d="M286 0h-30v70c-20 -50 -56 -82 -88 -82c-88 0 -121 111 -121 253c0 141 33 254 121 254c32 0 68 -27 88 -84v72h30v-483zM168 15c38 0 76 49 88 100v251c-12 51 -50 102 -88 102c-70 0 -88 -111 -88 -227s18 -226 88 -226zM294 589c-26 -36 -68 -58 -115 -58
s-89 22 -115 58l22 18c19 -30 58 -49 93 -49s74 19 93 49zM212 636c-57 0 -41 113 -78 113c-23 0 -38 -32 -38 -107h-22c0 72 16 134 63 134c57 0 41 -113 78 -113c23 0 38 32 38 107h22c0 -71 -16 -134 -63 -134z" />
    <glyph glyph-name="uni1EB7.alt1" horiz-adv-x="351" 
d="M286 0h-30v70c-20 -50 -56 -82 -88 -82c-88 0 -121 111 -121 253c0 141 33 254 121 254c32 0 68 -27 88 -84v72h30v-483zM168 15c38 0 76 49 88 100v251c-12 51 -50 102 -88 102c-70 0 -88 -111 -88 -227s18 -226 88 -226zM294 617c-26 -36 -68 -58 -115 -58
s-89 22 -115 58l22 18c19 -30 58 -49 93 -49s74 19 93 49zM178 -173c-15 0 -29 13 -29 29s14 29 29 29c16 0 29 -13 29 -29s-13 -29 -29 -29z" />
    <glyph glyph-name="ae.alt1" horiz-adv-x="552" 
d="M168 15c38 0 76 49 88 100v251c-12 51 -50 102 -88 102c-70 0 -88 -111 -88 -227s18 -226 88 -226zM286 87v-87h-30v70c-20 -50 -56 -82 -88 -82c-88 0 -121 111 -121 253c0 141 33 254 121 254c32 0 68 -27 88 -84v72h30v-77c15 51 40 89 96 89c98 0 129 -119 129 -253
v-10h-225c0 -130 39 -217 113 -217c29 0 59 24 79 68l28 -14c-24 -48 -59 -81 -107 -81c-75 0 -102 57 -113 99zM478 259c0 93 -20 209 -96 209c-77 0 -96 -126 -96 -209h192z" />
    <glyph glyph-name="aeacute.alt1" horiz-adv-x="552" 
d="M168 15c38 0 76 49 88 100v251c-12 51 -50 102 -88 102c-70 0 -88 -111 -88 -227s18 -226 88 -226zM286 87v-87h-30v70c-20 -50 -56 -82 -88 -82c-88 0 -121 111 -121 253c0 141 33 254 121 254c32 0 68 -27 88 -84v72h30v-77c15 51 40 89 96 89c98 0 129 -119 129 -253
v-10h-225c0 -130 39 -217 113 -217c29 0 59 24 79 68l28 -14c-24 -48 -59 -81 -107 -81c-75 0 -102 57 -113 99zM478 259c0 93 -20 209 -96 209c-77 0 -96 -126 -96 -209h192zM360 700l-95 -144h-24l78 144h41z" />
    <glyph glyph-name="uni1E03" unicode="&#x1e03;" horiz-adv-x="351" 
d="M95 115c12 -51 50 -100 88 -100c70 0 88 110 88 226s-18 227 -88 227c-38 0 -76 -51 -88 -102v-251zM95 0h-30v667h30v-256c20 57 56 84 88 84c88 0 121 -113 121 -254c0 -142 -33 -253 -121 -253c-32 0 -68 32 -88 82v-70zM185 733c-15 0 -29 13 -29 29s14 29 29 29
c16 0 29 -13 29 -29s-13 -29 -29 -29z" />
    <glyph glyph-name="cacute" unicode="&#x107;" horiz-adv-x="294" 
d="M183 -12c-94 0 -136 115 -136 254s42 253 136 253c40 0 61 -18 84 -45l-21 -21c-21 28 -41 39 -64 39c-79 0 -102 -115 -102 -226s23 -227 102 -227c23 0 43 10 64 39l21 -21c-23 -31 -44 -45 -84 -45zM272 700l-95 -144h-24l78 144h41z" />
    <glyph glyph-name="ccedilla" unicode="&#xe7;" horiz-adv-x="294" 
d="M180 -185c-30 0 -51 12 -70 28l13 26c20 -19 34 -27 57 -27c27 0 52 19 52 49c0 25 -13 40 -33 40c-14 0 -22 -6 -31 -15l-21 12l22 61c-84 11 -122 121 -122 253c0 139 42 253 136 253c40 0 61 -18 84 -45l-21 -21c-21 28 -41 39 -64 39c-79 0 -102 -115 -102 -226
s23 -227 102 -227c23 0 43 10 64 39l21 -21c-20 -27 -38 -40 -69 -44l-17 -46c8 7 17 10 29 10c27 0 51 -24 51 -62c0 -43 -36 -76 -81 -76z" />
    <glyph glyph-name="ccircumflex" unicode="&#x109;" horiz-adv-x="294" 
d="M183 -12c-94 0 -136 115 -136 254s42 253 136 253c40 0 61 -18 84 -45l-21 -21c-21 28 -41 39 -64 39c-79 0 -102 -115 -102 -226s23 -227 102 -227c23 0 43 10 64 39l21 -21c-23 -31 -44 -45 -84 -45zM271 556h-23l-66 116l-63 -116h-23l68 144h36z" />
    <glyph glyph-name="cdotaccent" unicode="&#x10b;" horiz-adv-x="294" 
d="M183 -12c-94 0 -136 115 -136 254s42 253 136 253c40 0 61 -18 84 -45l-21 -21c-21 28 -41 39 -64 39c-79 0 -102 -115 -102 -226s23 -227 102 -227c23 0 43 10 64 39l21 -21c-23 -31 -44 -45 -84 -45zM185 566c-15 0 -29 13 -29 29s14 29 29 29c16 0 29 -13 29 -29
s-13 -29 -29 -29z" />
    <glyph glyph-name="ccaron" unicode="&#x10d;" horiz-adv-x="294" 
d="M183 -12c-94 0 -136 115 -136 254s42 253 136 253c40 0 61 -18 84 -45l-21 -21c-21 28 -41 39 -64 39c-79 0 -102 -115 -102 -226s23 -227 102 -227c23 0 43 10 64 39l21 -21c-23 -31 -44 -45 -84 -45zM203 556h-36l-71 144h23l66 -116l63 116h23z" />
    <glyph glyph-name="dcaron" unicode="&#x10f;" horiz-adv-x="407" 
d="M286 0h-30v70c-20 -50 -56 -82 -88 -82c-88 0 -121 111 -121 253c0 141 33 254 121 254c32 0 68 -27 88 -84v256h30v-667zM168 15c38 0 76 49 88 100v251c-12 51 -50 102 -88 102c-70 0 -88 -111 -88 -227s18 -226 88 -226zM410 626c0 -50 -30 -98 -62 -121l-22 18
c32 24 53 62 53 92c0 0 -5 -1 -7 -1c-19 0 -32 15 -32 33c0 17 13 32 32 32c21 0 38 -19 38 -53z" />
    <glyph glyph-name="dcroat" unicode="&#x111;" horiz-adv-x="351" 
d="M286 0h-30v70c-20 -50 -56 -82 -88 -82c-88 0 -121 111 -121 253c0 141 33 254 121 254c32 0 68 -27 88 -84v130h-120v27h120v99h30v-99h54v-27h-54v-541zM168 15c38 0 76 49 88 100v251c-12 51 -50 102 -88 102c-70 0 -88 -111 -88 -227s18 -226 88 -226z" />
    <glyph glyph-name="uni1E0B" unicode="&#x1e0b;" horiz-adv-x="351" 
d="M286 0h-30v70c-20 -50 -56 -82 -88 -82c-88 0 -121 111 -121 253c0 141 33 254 121 254c32 0 68 -27 88 -84v256h30v-667zM168 15c38 0 76 49 88 100v251c-12 51 -50 102 -88 102c-70 0 -88 -111 -88 -227s18 -226 88 -226zM167 733c-15 0 -29 13 -29 29s14 29 29 29
c16 0 29 -13 29 -29s-13 -29 -29 -29z" />
    <glyph glyph-name="eacute" unicode="&#xe9;" horiz-adv-x="346" 
d="M193 -12c-105 0 -146 111 -146 254c0 140 36 253 129 253c98 0 129 -119 129 -253v-10h-225c0 -130 39 -217 113 -217c29 0 59 24 79 68l28 -14c-24 -48 -59 -81 -107 -81zM272 259c0 93 -20 209 -96 209c-77 0 -96 -126 -96 -209h192zM265 700l-95 -144h-24l78 144h41z
" />
    <glyph glyph-name="ebreve" unicode="&#x115;" horiz-adv-x="346" 
d="M193 -12c-105 0 -146 111 -146 254c0 140 36 253 129 253c98 0 129 -119 129 -253v-10h-225c0 -130 39 -217 113 -217c29 0 59 24 79 68l28 -14c-24 -48 -59 -81 -107 -81zM272 259c0 93 -20 209 -96 209c-77 0 -96 -126 -96 -209h192zM292 617c-26 -36 -68 -58 -115 -58
s-89 22 -115 58l22 18c19 -30 58 -49 93 -49s74 19 93 49z" />
    <glyph glyph-name="ecircumflex" unicode="&#xea;" horiz-adv-x="346" 
d="M193 -12c-105 0 -146 111 -146 254c0 140 36 253 129 253c98 0 129 -119 129 -253v-10h-225c0 -130 39 -217 113 -217c29 0 59 24 79 68l28 -14c-24 -48 -59 -81 -107 -81zM272 259c0 93 -20 209 -96 209c-77 0 -96 -126 -96 -209h192zM265 556h-23l-66 116l-63 -116h-23
l68 144h36z" />
    <glyph glyph-name="edieresis" unicode="&#xeb;" horiz-adv-x="346" 
d="M193 -12c-105 0 -146 111 -146 254c0 140 36 253 129 253c98 0 129 -119 129 -253v-10h-225c0 -130 39 -217 113 -217c29 0 59 24 79 68l28 -14c-24 -48 -59 -81 -107 -81zM272 259c0 93 -20 209 -96 209c-77 0 -96 -126 -96 -209h192zM264 598c0 -15 -13 -28 -28 -28
s-28 13 -28 28s13 28 28 28s28 -13 28 -28zM142 598c0 -15 -13 -28 -28 -28s-28 13 -28 28s13 28 28 28s28 -13 28 -28z" />
    <glyph glyph-name="edotaccent" unicode="&#x117;" horiz-adv-x="346" 
d="M193 -12c-105 0 -146 111 -146 254c0 140 36 253 129 253c98 0 129 -119 129 -253v-10h-225c0 -130 39 -217 113 -217c29 0 59 24 79 68l28 -14c-24 -48 -59 -81 -107 -81zM272 259c0 93 -20 209 -96 209c-77 0 -96 -126 -96 -209h192zM176 566c-15 0 -29 13 -29 29
s14 29 29 29c16 0 29 -13 29 -29s-13 -29 -29 -29z" />
    <glyph glyph-name="egrave" unicode="&#xe8;" horiz-adv-x="346" 
d="M193 -12c-105 0 -146 111 -146 254c0 140 36 253 129 253c98 0 129 -119 129 -253v-10h-225c0 -130 39 -217 113 -217c29 0 59 24 79 68l28 -14c-24 -48 -59 -81 -107 -81zM272 259c0 93 -20 209 -96 209c-77 0 -96 -126 -96 -209h192zM206 556h-24l-95 144h41z" />
    <glyph glyph-name="emacron" unicode="&#x113;" horiz-adv-x="346" 
d="M193 -12c-105 0 -146 111 -146 254c0 140 36 253 129 253c98 0 129 -119 129 -253v-10h-225c0 -130 39 -217 113 -217c29 0 59 24 79 68l28 -14c-24 -48 -59 -81 -107 -81zM272 259c0 93 -20 209 -96 209c-77 0 -96 -126 -96 -209h192zM293 581h-240v27h240v-27z" />
    <glyph glyph-name="eogonek" unicode="&#x119;" horiz-adv-x="346" 
d="M238 -122l25 -11c-7 -27 -25 -53 -63 -53c-36 0 -61 23 -61 71c0 41 19 76 44 103c-98 7 -136 115 -136 254c0 140 36 253 129 253c98 0 129 -119 129 -253v-10h-225c0 -130 39 -217 113 -217c29 0 59 24 79 68l28 -14c-16 -31 -35 -56 -60 -69c-40 -27 -72 -61 -72 -115
c0 -32 14 -44 32 -44c21 0 33 14 38 37zM272 259c0 93 -20 209 -96 209c-77 0 -96 -126 -96 -209h192z" />
    <glyph glyph-name="ecaron" unicode="&#x11b;" horiz-adv-x="346" 
d="M193 -12c-105 0 -146 111 -146 254c0 140 36 253 129 253c98 0 129 -119 129 -253v-10h-225c0 -130 39 -217 113 -217c29 0 59 24 79 68l28 -14c-24 -48 -59 -81 -107 -81zM272 259c0 93 -20 209 -96 209c-77 0 -96 -126 -96 -209h192zM195 556h-36l-71 144h23l66 -116
l63 116h23z" />
    <glyph glyph-name="uni1EB9" unicode="&#x1eb9;" horiz-adv-x="346" 
d="M193 -12c-105 0 -146 111 -146 254c0 140 36 253 129 253c98 0 129 -119 129 -253v-10h-225c0 -130 39 -217 113 -217c29 0 59 24 79 68l28 -14c-24 -48 -59 -81 -107 -81zM272 259c0 93 -20 209 -96 209c-77 0 -96 -126 -96 -209h192zM176 -173c-15 0 -29 13 -29 29
s14 29 29 29c16 0 29 -13 29 -29s-13 -29 -29 -29z" />
    <glyph glyph-name="uni1EBB" unicode="&#x1ebb;" horiz-adv-x="346" 
d="M193 -12c-105 0 -146 111 -146 254c0 140 36 253 129 253c98 0 129 -119 129 -253v-10h-225c0 -130 39 -217 113 -217c29 0 59 24 79 68l28 -14c-24 -48 -59 -81 -107 -81zM272 259c0 93 -20 209 -96 209c-77 0 -96 -126 -96 -209h192zM144 602l-21 6c5 21 20 42 50 42
c29 0 49 -18 49 -57c0 -24 -8 -46 -23 -66h-25c18 22 25 43 25 66c0 26 -12 35 -26 35c-17 0 -25 -10 -29 -26z" />
    <glyph glyph-name="uni1EBD" unicode="&#x1ebd;" horiz-adv-x="346" 
d="M193 -12c-105 0 -146 111 -146 254c0 140 36 253 129 253c98 0 129 -119 129 -253v-10h-225c0 -130 39 -217 113 -217c29 0 59 24 79 68l28 -14c-24 -48 -59 -81 -107 -81zM272 259c0 93 -20 209 -96 209c-77 0 -96 -126 -96 -209h192zM215 554c-57 0 -41 113 -78 113
c-23 0 -38 -32 -38 -107h-22c0 72 16 134 63 134c57 0 41 -113 78 -113c23 0 38 32 38 107h22c0 -71 -16 -134 -63 -134z" />
    <glyph glyph-name="uni1EBF" unicode="&#x1ebf;" horiz-adv-x="346" 
d="M193 -12c-105 0 -146 111 -146 254c0 140 36 253 129 253c98 0 129 -119 129 -253v-10h-225c0 -130 39 -217 113 -217c29 0 59 24 79 68l28 -14c-24 -48 -59 -81 -107 -81zM272 259c0 93 -20 209 -96 209c-77 0 -96 -126 -96 -209h192zM260 556h-23l-66 116l-63 -116h-23
l68 144h36zM353 771l-95 -144h-24l78 144h41z" />
    <glyph glyph-name="uni1EC1" unicode="&#x1ec1;" horiz-adv-x="346" 
d="M193 -12c-105 0 -146 111 -146 254c0 140 36 253 129 253c98 0 129 -119 129 -253v-10h-225c0 -130 39 -217 113 -217c29 0 59 24 79 68l28 -14c-24 -48 -59 -81 -107 -81zM272 259c0 93 -20 209 -96 209c-77 0 -96 -126 -96 -209h192zM109 627h-24l-95 144h41zM260 556
h-23l-66 116l-63 -116h-23l68 144h36z" />
    <glyph glyph-name="uni1EC3" unicode="&#x1ec3;" horiz-adv-x="346" 
d="M193 -12c-105 0 -146 111 -146 254c0 140 36 253 129 253c98 0 129 -119 129 -253v-10h-225c0 -130 39 -217 113 -217c29 0 59 24 79 68l28 -14c-24 -48 -59 -81 -107 -81zM272 259c0 93 -20 209 -96 209c-77 0 -96 -126 -96 -209h192zM260 556h-23l-66 116l-63 -116h-23
l68 144h36zM198 742l-21 6c5 21 20 42 50 42c29 0 49 -18 49 -57c0 -24 -8 -46 -23 -66h-25c18 22 25 43 25 66c0 26 -12 35 -26 35c-17 0 -25 -10 -29 -26z" />
    <glyph glyph-name="uni1EC5" unicode="&#x1ec5;" horiz-adv-x="346" 
d="M193 -12c-105 0 -146 111 -146 254c0 140 36 253 129 253c98 0 129 -119 129 -253v-10h-225c0 -130 39 -217 113 -217c29 0 59 24 79 68l28 -14c-24 -48 -59 -81 -107 -81zM272 259c0 93 -20 209 -96 209c-77 0 -96 -126 -96 -209h192zM260 523h-23l-66 116l-63 -116h-23
l68 144h36zM208 682c-57 0 -41 113 -78 113c-23 0 -38 -32 -38 -107h-22c0 72 16 134 63 134c57 0 41 -113 78 -113c23 0 38 32 38 107h22c0 -71 -16 -134 -63 -134z" />
    <glyph glyph-name="uni1EC7" unicode="&#x1ec7;" horiz-adv-x="346" 
d="M193 -12c-105 0 -146 111 -146 254c0 140 36 253 129 253c98 0 129 -119 129 -253v-10h-225c0 -130 39 -217 113 -217c29 0 59 24 79 68l28 -14c-24 -48 -59 -81 -107 -81zM272 259c0 93 -20 209 -96 209c-77 0 -96 -126 -96 -209h192zM176 -173c-15 0 -29 13 -29 29
s14 29 29 29c16 0 29 -13 29 -29s-13 -29 -29 -29zM264 556h-23l-66 116l-63 -116h-23l68 144h36z" />
    <glyph glyph-name="fl.alt1" horiz-adv-x="388" 
d="M108 0h-30v456h-50v27h50v107c0 51 33 87 74 87c16 0 27 -5 37 -14l-15 -22c-5 6 -13 9 -22 9c-27 0 -44 -23 -44 -60v-107h70v-27h-70v-456zM331 -12c-44 0 -64 28 -64 88v591h30v-591c0 -41 7 -61 34 -61c15 0 27 8 36 21l21 -18c-15 -18 -30 -30 -57 -30z" />
    <glyph glyph-name="f_f_l.alt1" horiz-adv-x="590" 
d="M108 0h-30v456h-50v27h50v107c0 51 30 87 79 87c20 0 42 -8 56 -27l-20 -23c-12 17 -23 23 -36 23c-34 0 -49 -23 -49 -60v-107h70v-27h-70v-456zM310 0h-30v456h-50v27h50v107c0 51 33 87 74 87c16 0 27 -5 37 -14l-15 -22c-5 6 -13 9 -22 9c-27 0 -44 -23 -44 -60v-107
h70v-27h-70v-456zM533 -12c-44 0 -64 28 -64 88v591h30v-591c0 -41 7 -61 34 -61c15 0 27 8 36 21l21 -18c-15 -18 -30 -30 -57 -30z" />
    <glyph glyph-name="uni1E1F" unicode="&#x1e1f;" horiz-adv-x="202" 
d="M108 0h-30v456h-50v27h50v107c0 51 30 87 79 87c20 0 42 -8 56 -27l-20 -23c-12 17 -23 23 -36 23c-34 0 -49 -23 -49 -60v-107h70v-27h-70v-456zM155 733c-15 0 -29 13 -29 29s14 29 29 29c16 0 29 -13 29 -29s-13 -29 -29 -29z" />
    <glyph glyph-name="gcircumflex" unicode="&#x11d;" horiz-adv-x="351" 
d="M164 -196c-38 0 -78 13 -110 47l20 26c21 -26 56 -46 90 -46c57 0 92 39 92 126v113c-20 -50 -56 -84 -88 -84c-88 0 -121 112 -121 254c0 141 33 255 121 255c32 0 68 -27 88 -84v72h30v-526c0 -108 -48 -153 -122 -153zM168 13c38 0 76 51 88 102v251
c-12 51 -50 102 -88 102c-70 0 -88 -112 -88 -228s18 -227 88 -227zM262 556h-23l-66 116l-63 -116h-23l68 144h36z" />
    <glyph glyph-name="gbreve" unicode="&#x11f;" horiz-adv-x="351" 
d="M164 -196c-38 0 -78 13 -110 47l20 26c21 -26 56 -46 90 -46c57 0 92 39 92 126v113c-20 -50 -56 -84 -88 -84c-88 0 -121 112 -121 254c0 141 33 255 121 255c32 0 68 -27 88 -84v72h30v-526c0 -108 -48 -153 -122 -153zM168 13c38 0 76 51 88 102v251
c-12 51 -50 102 -88 102c-70 0 -88 -112 -88 -228s18 -227 88 -227zM290 617c-26 -36 -68 -58 -115 -58s-89 22 -115 58l22 18c19 -30 58 -49 93 -49s74 19 93 49z" />
    <glyph glyph-name="gdotaccent" unicode="&#x121;" horiz-adv-x="351" 
d="M164 -196c-38 0 -78 13 -110 47l20 26c21 -26 56 -46 90 -46c57 0 92 39 92 126v113c-20 -50 -56 -84 -88 -84c-88 0 -121 112 -121 254c0 141 33 255 121 255c32 0 68 -27 88 -84v72h30v-526c0 -108 -48 -153 -122 -153zM168 13c38 0 76 51 88 102v251
c-12 51 -50 102 -88 102c-70 0 -88 -112 -88 -228s18 -227 88 -227zM171 566c-15 0 -29 13 -29 29s14 29 29 29c16 0 29 -13 29 -29s-13 -29 -29 -29z" />
    <glyph glyph-name="gcommaaccent" unicode="&#x123;" horiz-adv-x="351" 
d="M133 610c0 57 33 110 60 129l24 -19c-32 -24 -53 -62 -53 -92c0 0 2 1 4 1c16 0 33 -15 33 -33c0 -17 -14 -32 -33 -32c-21 0 -35 19 -35 46zM164 -196c-38 0 -78 13 -110 47l20 26c21 -26 56 -46 90 -46c57 0 92 39 92 126v113c-20 -50 -56 -84 -88 -84
c-88 0 -121 112 -121 254c0 141 33 255 121 255c32 0 68 -27 88 -84v72h30v-526c0 -108 -48 -153 -122 -153zM168 13c38 0 76 51 88 102v251c-12 51 -50 102 -88 102c-70 0 -88 -112 -88 -228s18 -227 88 -227z" />
    <glyph glyph-name="hbar" unicode="&#x127;" horiz-adv-x="358" 
d="M230 541h-119v-130c22 46 60 84 103 84c55 0 79 -28 79 -101v-394h-30v394c0 51 -19 74 -53 74c-43 0 -81 -46 -99 -94v-374h-30v541h-55v27h55v99h30v-99h119v-27z" />
    <glyph glyph-name="hcircumflex" unicode="&#x125;" 
d="M277 0h-30v394c0 51 -19 74 -53 74c-43 0 -81 -46 -99 -94v-374h-30v667h30v-256c22 46 60 84 103 84c55 0 79 -28 79 -101v-394zM259 723h-23l-66 116l-63 -116h-23l68 144h36z" />
    <glyph glyph-name="uni1E23" unicode="&#x1e23;" 
d="M277 0h-30v394c0 51 -19 74 -53 74c-43 0 -81 -46 -99 -94v-374h-30v667h30v-256c22 46 60 84 103 84c55 0 79 -28 79 -101v-394zM171 733c-15 0 -29 13 -29 29s14 29 29 29c16 0 29 -13 29 -29s-13 -29 -29 -29z" />
    <glyph glyph-name="dotlessi" unicode="&#x131;" horiz-adv-x="160" 
d="M95 0h-30v483h30v-483z" />
    <glyph glyph-name="iacute" unicode="&#xed;" horiz-adv-x="160" 
d="M169 700l-95 -144h-24l78 144h41zM95 0h-30v483h30v-483z" />
    <glyph glyph-name="ibreve" unicode="&#x12d;" horiz-adv-x="160" 
d="M95 0h-30v483h30v-483zM195 617c-26 -36 -68 -58 -115 -58s-89 22 -115 58l22 18c19 -30 58 -49 93 -49s74 19 93 49z" />
    <glyph glyph-name="icircumflex" unicode="&#xee;" horiz-adv-x="160" 
d="M168 556h-23l-66 116l-63 -116h-23l68 144h36zM95 0h-30v483h30v-483z" />
    <glyph glyph-name="idieresis" unicode="&#xef;" horiz-adv-x="160" 
d="M169 598c0 -15 -13 -28 -28 -28s-28 13 -28 28s13 28 28 28s28 -13 28 -28zM47 598c0 -15 -13 -28 -28 -28s-28 13 -28 28s13 28 28 28s28 -13 28 -28zM95 0h-30v483h30v-483z" />
    <glyph glyph-name="igrave" unicode="&#xec;" horiz-adv-x="160" 
d="M110 556h-24l-95 144h41zM95 0h-30v483h30v-483z" />
    <glyph glyph-name="imacron" unicode="&#x12b;" horiz-adv-x="160" 
d="M95 0h-30v483h30v-483zM200 581h-240v27h240v-27z" />
    <glyph glyph-name="iogonek" unicode="&#x12f;" horiz-adv-x="160" 
d="M93 -122l25 -11c-7 -27 -25 -53 -63 -53c-36 0 -61 23 -61 71c0 54 33 99 71 127v471h30v-483c-40 -27 -72 -61 -72 -115c0 -32 14 -44 32 -44c21 0 33 14 38 37zM80 566c-15 0 -29 13 -29 29s14 29 29 29c16 0 29 -13 29 -29s-13 -29 -29 -29z" />
    <glyph glyph-name="itilde" unicode="&#x129;" horiz-adv-x="160" 
d="M95 0h-30v483h30v-483zM118 554c-57 0 -41 113 -78 113c-23 0 -38 -32 -38 -107h-22c0 72 16 134 63 134c57 0 41 -113 78 -113c23 0 38 32 38 107h22c0 -71 -16 -134 -63 -134z" />
    <glyph glyph-name="uni1EC9" unicode="&#x1ec9;" horiz-adv-x="160" 
d="M95 0h-30v483h30v-483zM51 602l-21 6c5 21 20 42 50 42c29 0 49 -18 49 -57c0 -24 -8 -46 -23 -66h-25c18 22 25 43 25 66c0 26 -12 35 -26 35c-17 0 -25 -10 -29 -26z" />
    <glyph glyph-name="uni1ECB" unicode="&#x1ecb;" horiz-adv-x="160" 
d="M80 566c-15 0 -29 13 -29 29s14 29 29 29c16 0 29 -13 29 -29s-13 -29 -29 -29zM95 0h-30v483h30v-483zM80 -173c-15 0 -29 13 -29 29s14 29 29 29c16 0 29 -13 29 -29s-13 -29 -29 -29z" />
    <glyph glyph-name="ij" unicode="&#x133;" horiz-adv-x="320" 
d="M80 566c-15 0 -29 13 -29 29s14 29 29 29c16 0 29 -13 29 -29s-13 -29 -29 -29zM95 0h-30v483h30v-483zM240 566c-15 0 -29 13 -29 29s14 29 29 29c16 0 29 -13 29 -29s-13 -29 -29 -29zM191 -196c-28 0 -46 12 -57 38l27 14c6 -15 15 -25 30 -25c20 0 34 14 34 73v579
h30v-579c0 -80 -28 -100 -64 -100z" />
    <glyph glyph-name="uni0237" unicode="&#x237;" horiz-adv-x="160" 
d="M31 -196c-28 0 -46 12 -57 38l27 14c6 -15 15 -25 30 -25c20 0 34 14 34 73v579h30v-579c0 -80 -28 -100 -64 -100z" />
    <glyph glyph-name="jcircumflex" unicode="&#x135;" horiz-adv-x="160" 
d="M169 556h-23l-66 116l-63 -116h-23l68 144h36zM31 -196c-28 0 -46 12 -57 38l27 14c6 -15 15 -25 30 -25c20 0 34 14 34 73v579h30v-579c0 -80 -28 -100 -64 -100z" />
    <glyph glyph-name="kcommaaccent" unicode="&#x137;" horiz-adv-x="325" 
d="M301 0h-32l-108 242l-66 -110v-132h-30v667h30v-489l179 305h31l-128 -218zM206 -137c0 -50 -30 -98 -62 -121l-22 18c32 24 53 62 53 92c0 0 -5 -1 -7 -1c-19 0 -32 15 -32 33c0 17 13 32 32 32c21 0 38 -19 38 -53z" />
    <glyph glyph-name="kgreenlandic" unicode="&#x138;" horiz-adv-x="325" 
d="M301 0h-32l-108 242l-66 -110v-132h-30v483h30v-305l179 305h31l-128 -218z" />
    <glyph glyph-name="lacute" unicode="&#x13a;" horiz-adv-x="160" 
d="M95 0h-30v667h30v-667zM169 867l-95 -144h-24l78 144h41z" />
    <glyph glyph-name="lcommaaccent" unicode="&#x13c;" horiz-adv-x="160" 
d="M95 0h-30v667h30v-667zM124 -137c0 -50 -30 -98 -62 -121l-22 18c32 24 53 62 53 92c0 0 -5 -1 -7 -1c-19 0 -32 15 -32 33c0 17 13 32 32 32c21 0 38 -19 38 -53z" />
    <glyph glyph-name="lcaron" unicode="&#x13e;" horiz-adv-x="214" 
d="M95 0h-30v667h30v-667zM236 626c0 -50 -30 -98 -62 -121l-22 18c32 24 53 62 53 92c0 0 -5 -1 -7 -1c-19 0 -32 15 -32 33c0 17 13 32 32 32c21 0 38 -19 38 -53z" />
    <glyph glyph-name="ldot" unicode="&#x140;" horiz-adv-x="228" 
d="M95 0h-30v667h30v-667zM227 245c0 -18 -15 -33 -33 -33s-33 15 -33 33c0 17 15 32 33 32s33 -15 33 -32z" />
    <glyph glyph-name="lslash" unicode="&#x142;" horiz-adv-x="206" 
d="M26 285v32l62 35v315h30v-298l62 36v-32l-62 -36v-337h-30v320z" />
    <glyph glyph-name="lacute.alt1" horiz-adv-x="186" 
d="M169 867l-95 -144h-24l78 144h41zM129 -12c-44 0 -64 28 -64 88v591h30v-591c0 -41 7 -61 34 -61c15 0 27 8 36 21l21 -18c-15 -18 -30 -30 -57 -30z" />
    <glyph glyph-name="lcommaaccent.alt1" horiz-adv-x="186" 
d="M139 -137c0 -50 -30 -98 -62 -121l-22 18c32 24 53 62 53 92c0 0 -5 -1 -7 -1c-19 0 -32 15 -32 33c0 17 13 32 32 32c21 0 38 -19 38 -53zM129 -12c-44 0 -64 28 -64 88v591h30v-591c0 -41 7 -61 34 -61c15 0 27 8 36 21l21 -18c-15 -18 -30 -30 -57 -30z" />
    <glyph glyph-name="lcaron.alt1" horiz-adv-x="214" 
d="M236 626c0 -50 -30 -98 -62 -121l-22 18c32 24 53 62 53 92c0 0 -5 -1 -7 -1c-19 0 -32 15 -32 33c0 17 13 32 32 32c21 0 38 -19 38 -53zM129 -12c-44 0 -64 28 -64 88v591h30v-591c0 -41 7 -61 34 -61c15 0 27 8 36 21l21 -18c-15 -18 -30 -30 -57 -30z" />
    <glyph glyph-name="ldot.alt1" horiz-adv-x="228" 
d="M129 -12c-44 0 -64 28 -64 88v591h30v-591c0 -41 7 -61 34 -61c15 0 27 8 36 21l21 -18c-15 -18 -30 -30 -57 -30zM227 245c0 -18 -15 -33 -33 -33s-33 15 -33 33c0 17 15 32 33 32s33 -15 33 -32z" />
    <glyph glyph-name="lslash.alt1" horiz-adv-x="209" 
d="M26 285v32l62 35v315h30v-298l62 36v-32l-62 -36v-261c0 -41 7 -61 34 -61c15 0 27 8 36 21l21 -18c-15 -18 -30 -30 -57 -30c-44 0 -64 28 -64 88v244z" />
    <glyph glyph-name="nacute" unicode="&#x144;" 
d="M277 0h-30v394c0 51 -19 74 -53 74c-43 0 -81 -46 -99 -94v-374h-30v483h30v-72c22 46 60 84 103 84c55 0 79 -32 79 -101v-394zM260 700l-95 -144h-24l78 144h41z" />
    <glyph glyph-name="napostrophe" unicode="&#x149;" 
d="M277 0h-30v394c0 51 -19 74 -53 74c-43 0 -81 -46 -99 -94v-374h-30v483h30v-72c22 46 60 84 103 84c55 0 79 -32 79 -101v-394zM127 672c0 -50 -30 -98 -62 -121l-22 18c32 24 53 62 53 92c0 0 -5 -1 -7 -1c-19 0 -32 15 -32 33c0 17 13 32 32 32c21 0 38 -19 38 -53z
" />
    <glyph glyph-name="ncaron" unicode="&#x148;" 
d="M277 0h-30v394c0 51 -19 74 -53 74c-43 0 -81 -46 -99 -94v-374h-30v483h30v-72c22 46 60 84 103 84c55 0 79 -32 79 -101v-394zM190 556h-36l-71 144h23l66 -116l63 116h23z" />
    <glyph glyph-name="ncommaaccent" unicode="&#x146;" 
d="M277 0h-30v394c0 51 -19 74 -53 74c-43 0 -81 -46 -99 -94v-374h-30v483h30v-72c22 46 60 84 103 84c55 0 79 -32 79 -101v-394zM215 -137c0 -50 -30 -98 -62 -121l-22 18c32 24 53 62 53 92c0 0 -5 -1 -7 -1c-19 0 -32 15 -32 33c0 17 13 32 32 32c21 0 38 -19 38 -53z
" />
    <glyph glyph-name="ntilde" unicode="&#xf1;" 
d="M277 0h-30v394c0 51 -19 74 -53 74c-43 0 -81 -46 -99 -94v-374h-30v483h30v-72c22 46 60 84 103 84c55 0 79 -32 79 -101v-394zM211 554c-57 0 -41 113 -78 113c-23 0 -38 -32 -38 -107h-22c0 72 16 134 63 134c57 0 41 -113 78 -113c23 0 38 32 38 107h22
c0 -71 -16 -134 -63 -134z" />
    <glyph glyph-name="eng" unicode="&#x14b;" 
d="M277 394v-490c0 -80 -28 -100 -64 -100c-28 0 -46 12 -57 38l27 14c6 -15 15 -25 30 -25c20 0 34 14 34 73v490c0 51 -19 74 -53 74c-43 0 -81 -46 -99 -94v-374h-30v483h30v-72c22 46 60 84 103 84c55 0 79 -32 79 -101z" />
    <glyph glyph-name="oacute" unicode="&#xf3;" horiz-adv-x="352" 
d="M176 -12c-97 0 -129 122 -129 254s32 253 129 253c98 0 129 -121 129 -253s-31 -254 -129 -254zM176 15c78 0 96 119 96 227c0 107 -18 226 -96 226c-77 0 -96 -119 -96 -226c0 -108 19 -227 96 -227zM265 700l-95 -144h-24l78 144h41z" />
    <glyph glyph-name="obreve" unicode="&#x14f;" horiz-adv-x="352" 
d="M176 -12c-97 0 -129 122 -129 254s32 253 129 253c98 0 129 -121 129 -253s-31 -254 -129 -254zM176 15c78 0 96 119 96 227c0 107 -18 226 -96 226c-77 0 -96 -119 -96 -226c0 -108 19 -227 96 -227zM291 617c-26 -36 -68 -58 -115 -58s-89 22 -115 58l22 18
c19 -30 58 -49 93 -49s74 19 93 49z" />
    <glyph glyph-name="ocircumflex" unicode="&#xf4;" horiz-adv-x="352" 
d="M176 -12c-97 0 -129 122 -129 254s32 253 129 253c98 0 129 -121 129 -253s-31 -254 -129 -254zM176 15c78 0 96 119 96 227c0 107 -18 226 -96 226c-77 0 -96 -119 -96 -226c0 -108 19 -227 96 -227zM264 556h-23l-66 116l-63 -116h-23l68 144h36z" />
    <glyph glyph-name="odieresis" unicode="&#xf6;" horiz-adv-x="352" 
d="M176 -12c-97 0 -129 122 -129 254s32 253 129 253c98 0 129 -121 129 -253s-31 -254 -129 -254zM176 15c78 0 96 119 96 227c0 107 -18 226 -96 226c-77 0 -96 -119 -96 -226c0 -108 19 -227 96 -227zM266 598c0 -15 -13 -28 -28 -28s-28 13 -28 28s13 28 28 28
s28 -13 28 -28zM144 598c0 -15 -13 -28 -28 -28s-28 13 -28 28s13 28 28 28s28 -13 28 -28z" />
    <glyph glyph-name="ograve" unicode="&#xf2;" horiz-adv-x="352" 
d="M176 -12c-97 0 -129 122 -129 254s32 253 129 253c98 0 129 -121 129 -253s-31 -254 -129 -254zM176 15c78 0 96 119 96 227c0 107 -18 226 -96 226c-77 0 -96 -119 -96 -226c0 -108 19 -227 96 -227zM207 556h-24l-95 144h41z" />
    <glyph glyph-name="ohungarumlaut" unicode="&#x151;" horiz-adv-x="352" 
d="M176 -12c-97 0 -129 122 -129 254s32 253 129 253c98 0 129 -121 129 -253s-31 -254 -129 -254zM176 15c78 0 96 119 96 227c0 107 -18 226 -96 226c-77 0 -96 -119 -96 -226c0 -108 19 -227 96 -227zM200 700l-75 -144h-20l58 144h37zM306 700l-75 -144h-20l58 144h37z
" />
    <glyph glyph-name="omacron" unicode="&#x14d;" horiz-adv-x="352" 
d="M176 -12c-97 0 -129 122 -129 254s32 253 129 253c98 0 129 -121 129 -253s-31 -254 -129 -254zM176 15c78 0 96 119 96 227c0 107 -18 226 -96 226c-77 0 -96 -119 -96 -226c0 -108 19 -227 96 -227zM296 581h-240v27h240v-27z" />
    <glyph glyph-name="oslash" unicode="&#xf8;" horiz-adv-x="352" 
d="M86 0h-29l23 54c-24 48 -33 116 -33 188c0 132 32 253 129 253c33 0 59 -14 78 -38l12 26h29l-23 -54c24 -47 33 -116 33 -187c0 -132 -31 -254 -129 -254c-34 0 -59 14 -79 39zM176 15c78 0 96 119 96 227c0 51 -4 106 -17 148l-144 -331c15 -27 36 -44 65 -44zM80 242
c0 -52 4 -107 17 -149l143 331c-14 27 -35 44 -64 44c-77 0 -96 -119 -96 -226z" />
    <glyph glyph-name="oslashacute" unicode="&#x1ff;" horiz-adv-x="352" 
d="M265 700l-95 -144h-24l78 144h41zM86 0h-29l23 54c-24 48 -33 116 -33 188c0 132 32 253 129 253c33 0 59 -14 78 -38l12 26h29l-23 -54c24 -47 33 -116 33 -187c0 -132 -31 -254 -129 -254c-34 0 -59 14 -79 39zM176 15c78 0 96 119 96 227c0 51 -4 106 -17 148
l-144 -331c15 -27 36 -44 65 -44zM80 242c0 -52 4 -107 17 -149l143 331c-14 27 -35 44 -64 44c-77 0 -96 -119 -96 -226z" />
    <glyph glyph-name="otilde" unicode="&#xf5;" horiz-adv-x="352" 
d="M176 -12c-97 0 -129 122 -129 254s32 253 129 253c98 0 129 -121 129 -253s-31 -254 -129 -254zM176 15c78 0 96 119 96 227c0 107 -18 226 -96 226c-77 0 -96 -119 -96 -226c0 -108 19 -227 96 -227zM214 554c-57 0 -41 113 -78 113c-23 0 -38 -32 -38 -107h-22
c0 72 16 134 63 134c57 0 41 -113 78 -113c23 0 38 32 38 107h22c0 -71 -16 -134 -63 -134z" />
    <glyph glyph-name="uni1ECD" unicode="&#x1ecd;" horiz-adv-x="352" 
d="M176 -12c-97 0 -129 122 -129 254s32 253 129 253c98 0 129 -121 129 -253s-31 -254 -129 -254zM176 15c78 0 96 119 96 227c0 107 -18 226 -96 226c-77 0 -96 -119 -96 -226c0 -108 19 -227 96 -227zM178 -173c-15 0 -29 13 -29 29s14 29 29 29c16 0 29 -13 29 -29
s-13 -29 -29 -29z" />
    <glyph glyph-name="uni1ECF" unicode="&#x1ecf;" horiz-adv-x="352" 
d="M176 -12c-97 0 -129 122 -129 254s32 253 129 253c98 0 129 -121 129 -253s-31 -254 -129 -254zM176 15c78 0 96 119 96 227c0 107 -18 226 -96 226c-77 0 -96 -119 -96 -226c0 -108 19 -227 96 -227zM148 602l-21 6c5 21 20 42 50 42c29 0 49 -18 49 -57
c0 -24 -8 -46 -23 -66h-25c18 22 25 43 25 66c0 26 -12 35 -26 35c-17 0 -25 -10 -29 -26z" />
    <glyph glyph-name="uni1ED1" unicode="&#x1ed1;" horiz-adv-x="352" 
d="M176 -12c-97 0 -129 122 -129 254s32 253 129 253c98 0 129 -121 129 -253s-31 -254 -129 -254zM176 15c78 0 96 119 96 227c0 107 -18 226 -96 226c-77 0 -96 -119 -96 -226c0 -108 19 -227 96 -227zM260 556h-23l-66 116l-63 -116h-23l68 144h36zM353 771l-95 -144h-24
l78 144h41z" />
    <glyph glyph-name="uni1ED3" unicode="&#x1ed3;" horiz-adv-x="352" 
d="M176 -12c-97 0 -129 122 -129 254s32 253 129 253c98 0 129 -121 129 -253s-31 -254 -129 -254zM176 15c78 0 96 119 96 227c0 107 -18 226 -96 226c-77 0 -96 -119 -96 -226c0 -108 19 -227 96 -227zM109 627h-24l-95 144h41zM260 556h-23l-66 116l-63 -116h-23l68 144
h36z" />
    <glyph glyph-name="uni1ED5" unicode="&#x1ed5;" horiz-adv-x="352" 
d="M176 -12c-97 0 -129 122 -129 254s32 253 129 253c98 0 129 -121 129 -253s-31 -254 -129 -254zM176 15c78 0 96 119 96 227c0 107 -18 226 -96 226c-77 0 -96 -119 -96 -226c0 -108 19 -227 96 -227zM260 556h-23l-66 116l-63 -116h-23l68 144h36zM198 742l-21 6
c5 21 20 42 50 42c29 0 49 -18 49 -57c0 -24 -8 -46 -23 -66h-25c18 22 25 43 25 66c0 26 -12 35 -26 35c-17 0 -25 -10 -29 -26z" />
    <glyph glyph-name="uni1ED7" unicode="&#x1ed7;" horiz-adv-x="352" 
d="M176 -12c-97 0 -129 122 -129 254s32 253 129 253c98 0 129 -121 129 -253s-31 -254 -129 -254zM176 15c78 0 96 119 96 227c0 107 -18 226 -96 226c-77 0 -96 -119 -96 -226c0 -108 19 -227 96 -227zM266 523h-23l-66 116l-63 -116h-23l68 144h36zM214 682
c-57 0 -41 113 -78 113c-23 0 -38 -32 -38 -107h-22c0 72 16 134 63 134c57 0 41 -113 78 -113c23 0 38 32 38 107h22c0 -71 -16 -134 -63 -134z" />
    <glyph glyph-name="uni1ED9" unicode="&#x1ed9;" horiz-adv-x="352" 
d="M176 -12c-97 0 -129 122 -129 254s32 253 129 253c98 0 129 -121 129 -253s-31 -254 -129 -254zM176 15c78 0 96 119 96 227c0 107 -18 226 -96 226c-77 0 -96 -119 -96 -226c0 -108 19 -227 96 -227zM178 -173c-15 0 -29 13 -29 29s14 29 29 29c16 0 29 -13 29 -29
s-13 -29 -29 -29zM263 556h-23l-66 116l-63 -116h-23l68 144h36z" />
    <glyph glyph-name="ohorn" unicode="&#x1a1;" horiz-adv-x="352" 
d="M333 529c0 -46 -25 -91 -54 -115c19 -47 26 -108 26 -172c0 -132 -31 -254 -129 -254c-97 0 -129 122 -129 254s32 253 129 253c40 0 70 -21 90 -54c22 23 36 52 36 77c0 0 -5 -1 -7 -1c-19 0 -32 15 -32 33c0 17 13 32 32 32c21 0 38 -19 38 -53zM176 15
c78 0 96 119 96 227c0 107 -18 226 -96 226c-77 0 -96 -119 -96 -226c0 -108 19 -227 96 -227z" />
    <glyph glyph-name="uni1EDB" unicode="&#x1edb;" horiz-adv-x="352" 
d="M333 529c0 -46 -25 -91 -54 -115c19 -47 26 -108 26 -172c0 -132 -31 -254 -129 -254c-97 0 -129 122 -129 254s32 253 129 253c40 0 70 -21 90 -54c22 23 36 52 36 77c0 0 -5 -1 -7 -1c-19 0 -32 15 -32 33c0 17 13 32 32 32c21 0 38 -19 38 -53zM176 15
c78 0 96 119 96 227c0 107 -18 226 -96 226c-77 0 -96 -119 -96 -226c0 -108 19 -227 96 -227zM265 700l-95 -144h-24l78 144h41z" />
    <glyph glyph-name="uni1EDD" unicode="&#x1edd;" horiz-adv-x="352" 
d="M333 529c0 -46 -25 -91 -54 -115c19 -47 26 -108 26 -172c0 -132 -31 -254 -129 -254c-97 0 -129 122 -129 254s32 253 129 253c40 0 70 -21 90 -54c22 23 36 52 36 77c0 0 -5 -1 -7 -1c-19 0 -32 15 -32 33c0 17 13 32 32 32c21 0 38 -19 38 -53zM176 15
c78 0 96 119 96 227c0 107 -18 226 -96 226c-77 0 -96 -119 -96 -226c0 -108 19 -227 96 -227zM207 556h-24l-95 144h41z" />
    <glyph glyph-name="uni1EDF" unicode="&#x1edf;" horiz-adv-x="352" 
d="M333 529c0 -46 -25 -91 -54 -115c19 -47 26 -108 26 -172c0 -132 -31 -254 -129 -254c-97 0 -129 122 -129 254s32 253 129 253c40 0 70 -21 90 -54c22 23 36 52 36 77c0 0 -5 -1 -7 -1c-19 0 -32 15 -32 33c0 17 13 32 32 32c21 0 38 -19 38 -53zM176 15
c78 0 96 119 96 227c0 107 -18 226 -96 226c-77 0 -96 -119 -96 -226c0 -108 19 -227 96 -227zM147 602l-21 6c5 21 20 42 50 42c29 0 49 -18 49 -57c0 -24 -8 -46 -23 -66h-25c18 22 25 43 25 66c0 26 -12 35 -26 35c-17 0 -25 -10 -29 -26z" />
    <glyph glyph-name="uni1EE1" unicode="&#x1ee1;" horiz-adv-x="352" 
d="M333 529c0 -46 -25 -91 -54 -115c19 -47 26 -108 26 -172c0 -132 -31 -254 -129 -254c-97 0 -129 122 -129 254s32 253 129 253c40 0 70 -21 90 -54c22 23 36 52 36 77c0 0 -5 -1 -7 -1c-19 0 -32 15 -32 33c0 17 13 32 32 32c21 0 38 -19 38 -53zM176 15
c78 0 96 119 96 227c0 107 -18 226 -96 226c-77 0 -96 -119 -96 -226c0 -108 19 -227 96 -227zM213 554c-57 0 -41 113 -78 113c-23 0 -38 -32 -38 -107h-22c0 72 16 134 63 134c57 0 41 -113 78 -113c23 0 38 32 38 107h22c0 -71 -16 -134 -63 -134z" />
    <glyph glyph-name="uni1EE3" unicode="&#x1ee3;" horiz-adv-x="352" 
d="M333 529c0 -46 -25 -91 -54 -115c19 -47 26 -108 26 -172c0 -132 -31 -254 -129 -254c-97 0 -129 122 -129 254s32 253 129 253c40 0 70 -21 90 -54c22 23 36 52 36 77c0 0 -5 -1 -7 -1c-19 0 -32 15 -32 33c0 17 13 32 32 32c21 0 38 -19 38 -53zM176 15
c78 0 96 119 96 227c0 107 -18 226 -96 226c-77 0 -96 -119 -96 -226c0 -108 19 -227 96 -227zM178 -173c-15 0 -29 13 -29 29s14 29 29 29c16 0 29 -13 29 -29s-13 -29 -29 -29z" />
    <glyph glyph-name="oe" unicode="&#x153;" horiz-adv-x="571" 
d="M530 232h-225c0 -130 39 -217 113 -217c29 0 59 24 79 68l28 -14c-24 -48 -59 -81 -107 -81c-73 0 -109 50 -128 129c-17 -79 -53 -129 -114 -129c-97 0 -129 122 -129 254s32 253 129 253c61 0 95 -47 113 -124c17 80 56 124 112 124c98 0 129 -119 129 -253v-10z
M305 259h192c0 93 -20 209 -96 209c-77 0 -96 -126 -96 -209zM272 242c0 107 -18 226 -96 226c-77 0 -96 -119 -96 -226s19 -228 96 -228c78 0 96 121 96 228z" />
    <glyph glyph-name="uni1E57" unicode="&#x1e57;" horiz-adv-x="351" 
d="M183 -12c-32 0 -68 27 -88 84v-256h-30v667h30v-70c20 50 56 82 88 82c88 0 121 -111 121 -253c0 -141 -33 -254 -121 -254zM183 15c70 0 88 111 88 227s-18 226 -88 226c-38 0 -76 -49 -88 -100v-251c12 -51 50 -102 88 -102zM185 566c-15 0 -29 13 -29 29s14 29 29 29
c16 0 29 -13 29 -29s-13 -29 -29 -29z" />
    <glyph glyph-name="racute" unicode="&#x155;" horiz-adv-x="227" 
d="M95 0h-30v483h30v-85c25 57 56 94 115 94v-36c-5 1 -11 1 -15 1c-48 0 -82 -48 -100 -96v-361zM226 700l-95 -144h-24l78 144h41z" />
    <glyph glyph-name="rcaron" unicode="&#x159;" horiz-adv-x="227" 
d="M95 0h-30v483h30v-85c25 57 56 94 115 94v-36c-5 1 -11 1 -15 1c-48 0 -82 -48 -100 -96v-361zM153 556h-36l-71 144h23l66 -116l63 116h23z" />
    <glyph glyph-name="rcommaaccent" unicode="&#x157;" horiz-adv-x="227" 
d="M95 0h-30v483h30v-85c25 57 56 94 115 94v-36c-5 1 -11 1 -15 1c-48 0 -82 -48 -100 -96v-361zM157 -137c0 -50 -30 -98 -62 -121l-22 18c32 24 53 62 53 92c0 0 -5 -1 -7 -1c-19 0 -32 15 -32 33c0 17 13 32 32 32c21 0 38 -19 38 -53z" />
    <glyph glyph-name="sacute" unicode="&#x15b;" horiz-adv-x="278" 
d="M137 -12c-45 0 -79 16 -109 59l22 21c23 -34 48 -53 87 -53c41 0 79 34 79 90c0 134 -174 137 -174 285c0 62 48 105 105 105c38 0 69 -17 93 -51l-20 -20c-21 33 -46 44 -73 44c-46 0 -75 -35 -75 -78c0 -126 174 -133 174 -285c0 -72 -52 -117 -109 -117zM231 700
l-95 -144h-24l78 144h41z" />
    <glyph glyph-name="scaron" unicode="&#x161;" horiz-adv-x="278" 
d="M137 -12c-45 0 -79 16 -109 59l22 21c23 -34 48 -53 87 -53c41 0 79 34 79 90c0 134 -174 137 -174 285c0 62 48 105 105 105c38 0 69 -17 93 -51l-20 -20c-21 33 -46 44 -73 44c-46 0 -75 -35 -75 -78c0 -126 174 -133 174 -285c0 -72 -52 -117 -109 -117zM164 556h-36
l-71 144h23l66 -116l63 116h23z" />
    <glyph glyph-name="scircumflex" unicode="&#x15d;" horiz-adv-x="278" 
d="M137 -12c-45 0 -79 16 -109 59l22 21c23 -34 48 -53 87 -53c41 0 79 34 79 90c0 134 -174 137 -174 285c0 62 48 105 105 105c38 0 69 -17 93 -51l-20 -20c-21 33 -46 44 -73 44c-46 0 -75 -35 -75 -78c0 -126 174 -133 174 -285c0 -72 -52 -117 -109 -117zM232 556h-23
l-66 116l-63 -116h-23l68 144h36z" />
    <glyph glyph-name="scedilla" unicode="&#x15f;" horiz-adv-x="278" 
d="M130 -187c-30 0 -51 12 -70 28l13 26c20 -19 34 -27 57 -27c27 0 52 19 52 49c0 25 -13 40 -33 40c-14 0 -22 -6 -31 -15l-21 12l23 63c-37 4 -66 20 -92 58l22 21c23 -34 48 -53 87 -53c41 0 79 34 79 90c0 134 -174 137 -174 285c0 62 48 105 105 105
c38 0 69 -17 93 -51l-20 -20c-21 33 -46 44 -73 44c-46 0 -75 -35 -75 -78c0 -126 174 -133 174 -285c0 -67 -45 -110 -97 -116l-18 -48c8 7 17 10 29 10c27 0 51 -24 51 -62c0 -43 -36 -76 -81 -76z" />
    <glyph glyph-name="scommaaccent" unicode="&#x219;" horiz-adv-x="278" 
d="M137 -12c-45 0 -79 16 -109 59l22 21c23 -34 48 -53 87 -53c41 0 79 34 79 90c0 134 -174 137 -174 285c0 62 48 105 105 105c38 0 69 -17 93 -51l-20 -20c-21 33 -46 44 -73 44c-46 0 -75 -35 -75 -78c0 -126 174 -133 174 -285c0 -72 -52 -117 -109 -117zM181 -137
c0 -50 -30 -98 -62 -121l-22 18c32 24 53 62 53 92c0 0 -5 -1 -7 -1c-19 0 -32 15 -32 33c0 17 13 32 32 32c21 0 38 -19 38 -53z" />
    <glyph glyph-name="uni1E61" unicode="&#x1e61;" horiz-adv-x="278" 
d="M137 -12c-45 0 -79 16 -109 59l22 21c23 -34 48 -53 87 -53c41 0 79 34 79 90c0 134 -174 137 -174 285c0 62 48 105 105 105c38 0 69 -17 93 -51l-20 -20c-21 33 -46 44 -73 44c-46 0 -75 -35 -75 -78c0 -126 174 -133 174 -285c0 -72 -52 -117 -109 -117zM139 566
c-15 0 -29 13 -29 29s14 29 29 29c16 0 29 -13 29 -29s-13 -29 -29 -29z" />
    <glyph glyph-name="germandbls" unicode="&#xdf;" horiz-adv-x="396" 
d="M379 105c0 -67 -48 -117 -109 -117c-49 0 -80 21 -109 59l22 24c15 -21 41 -56 87 -56c37 0 79 35 79 90c0 134 -174 131 -174 279c0 86 103 106 103 186c0 43 -34 80 -84 80c-48 0 -86 -33 -86 -106v-544h-30v544c0 80 48 133 116 133c69 0 112 -47 112 -107
c0 -99 -101 -111 -101 -186c0 -126 174 -127 174 -279z" />
    <glyph glyph-name="longs" unicode="&#x17f;" horiz-adv-x="202" 
d="M108 0h-30v456h-50v27h50v107c0 51 30 87 79 87c20 0 42 -8 56 -27l-20 -23c-12 17 -23 23 -36 23c-34 0 -49 -23 -49 -60v-590z" />
    <glyph glyph-name="tbar" unicode="&#x167;" horiz-adv-x="212" 
d="M146 242h-38v-166c0 -41 7 -61 34 -61c15 0 27 8 36 21l21 -18c-15 -18 -30 -30 -57 -30c-44 0 -64 28 -64 88v166h-52v27h52v187h-52v27h52v132h30v-132h70v-27h-70v-187h38v-27z" />
    <glyph glyph-name="tcaron" unicode="&#x165;" horiz-adv-x="212" 
d="M142 -12c-44 0 -64 28 -64 88v380h-52v27h52v132h30v-132h70v-27h-70v-380c0 -41 7 -61 34 -61c15 0 27 8 36 21l21 -18c-15 -18 -30 -30 -57 -30zM244 672c0 -50 -30 -98 -62 -121l-22 18c32 24 53 62 53 92c0 0 -5 -1 -7 -1c-19 0 -32 15 -32 33c0 17 13 32 32 32
c21 0 38 -19 38 -53z" />
    <glyph glyph-name="tcommaaccent" unicode="&#x163;" horiz-adv-x="212" 
d="M142 -12c-44 0 -64 28 -64 88v380h-52v27h52v132h30v-132h70v-27h-70v-380c0 -41 7 -61 34 -61c15 0 27 8 36 21l21 -18c-15 -18 -30 -30 -57 -30zM150 -137c0 -50 -30 -98 -62 -121l-22 18c32 24 53 62 53 92c0 0 -5 -1 -7 -1c-19 0 -32 15 -32 33c0 17 13 32 32 32
c21 0 38 -19 38 -53z" />
    <glyph glyph-name="uni021B" unicode="&#x21b;" horiz-adv-x="212" 
d="M142 -12c-44 0 -64 28 -64 88v380h-52v27h52v132h30v-132h70v-27h-70v-380c0 -41 7 -61 34 -61c15 0 27 8 36 21l21 -18c-15 -18 -30 -30 -57 -30zM150 -137c0 -50 -30 -98 -62 -121l-22 18c32 24 53 62 53 92c0 0 -5 -1 -7 -1c-19 0 -32 15 -32 33c0 17 13 32 32 32
c21 0 38 -19 38 -53z" />
    <glyph glyph-name="uni1E6B" unicode="&#x1e6b;" horiz-adv-x="212" 
d="M142 -12c-44 0 -64 28 -64 88v380h-52v27h52v132h30v-132h70v-27h-70v-380c0 -41 7 -61 34 -61c15 0 27 8 36 21l21 -18c-15 -18 -30 -30 -57 -30zM93 733c-15 0 -29 13 -29 29s14 29 29 29c16 0 29 -13 29 -29s-13 -29 -29 -29z" />
    <glyph glyph-name="uacute" unicode="&#xfa;" 
d="M277 0h-30v70c-22 -46 -56 -82 -103 -82c-55 0 -79 28 -79 101v394h30v-394c0 -51 19 -74 53 -74c43 0 81 44 99 92v376h30v-483zM260 700l-95 -144h-24l78 144h41z" />
    <glyph glyph-name="ubreve" unicode="&#x16d;" 
d="M277 0h-30v70c-22 -46 -56 -82 -103 -82c-55 0 -79 28 -79 101v394h30v-394c0 -51 19 -74 53 -74c43 0 81 44 99 92v376h30v-483zM286 617c-26 -36 -68 -58 -115 -58s-89 22 -115 58l22 18c19 -30 58 -49 93 -49s74 19 93 49z" />
    <glyph glyph-name="ucircumflex" unicode="&#xfb;" 
d="M277 0h-30v70c-22 -46 -56 -82 -103 -82c-55 0 -79 28 -79 101v394h30v-394c0 -51 19 -74 53 -74c43 0 81 44 99 92v376h30v-483zM260 556h-23l-66 116l-63 -116h-23l68 144h36z" />
    <glyph glyph-name="udieresis" unicode="&#xfc;" 
d="M277 0h-30v70c-22 -46 -56 -82 -103 -82c-55 0 -79 28 -79 101v394h30v-394c0 -51 19 -74 53 -74c43 0 81 44 99 92v376h30v-483zM262 598c0 -15 -13 -28 -28 -28s-28 13 -28 28s13 28 28 28s28 -13 28 -28zM140 598c0 -15 -13 -28 -28 -28s-28 13 -28 28s13 28 28 28
s28 -13 28 -28z" />
    <glyph glyph-name="ugrave" unicode="&#xf9;" 
d="M277 0h-30v70c-22 -46 -56 -82 -103 -82c-55 0 -79 28 -79 101v394h30v-394c0 -51 19 -74 53 -74c43 0 81 44 99 92v376h30v-483zM201 556h-24l-95 144h41z" />
    <glyph glyph-name="uhungarumlaut" unicode="&#x171;" 
d="M277 0h-30v70c-22 -46 -56 -82 -103 -82c-55 0 -79 28 -79 101v394h30v-394c0 -51 19 -74 53 -74c43 0 81 44 99 92v376h30v-483zM195 700l-75 -144h-20l58 144h37zM301 700l-75 -144h-20l58 144h37z" />
    <glyph glyph-name="umacron" unicode="&#x16b;" 
d="M277 0h-30v70c-22 -46 -56 -82 -103 -82c-55 0 -79 28 -79 101v394h30v-394c0 -51 19 -74 53 -74c43 0 81 44 99 92v376h30v-483zM291 581h-240v27h240v-27z" />
    <glyph glyph-name="uogonek" unicode="&#x173;" 
d="M275 -122l25 -11c-7 -27 -25 -53 -63 -53c-36 0 -61 23 -61 71c0 54 33 99 71 127v58c-22 -46 -56 -82 -103 -82c-55 0 -79 28 -79 101v394h30v-394c0 -51 19 -74 53 -74c43 0 81 44 99 92v376h30v-483c-40 -27 -72 -61 -72 -115c0 -32 14 -44 32 -44c21 0 33 14 38 37z
" />
    <glyph glyph-name="uring" unicode="&#x16f;" 
d="M277 0h-30v70c-22 -46 -56 -82 -103 -82c-55 0 -79 28 -79 101v394h30v-394c0 -51 19 -74 53 -74c43 0 81 44 99 92v376h30v-483zM171 553c-43 0 -78 35 -78 78s35 78 78 78s77 -35 77 -78s-34 -78 -77 -78zM171 577c30 0 54 24 54 54s-24 54 -54 54s-54 -24 -54 -54
s24 -54 54 -54z" />
    <glyph glyph-name="utilde" unicode="&#x169;" 
d="M277 0h-30v70c-22 -46 -56 -82 -103 -82c-55 0 -79 28 -79 101v394h30v-394c0 -51 19 -74 53 -74c43 0 81 44 99 92v376h30v-483zM208 554c-57 0 -41 113 -78 113c-23 0 -38 -32 -38 -107h-22c0 72 16 134 63 134c57 0 41 -113 78 -113c23 0 38 32 38 107h22
c0 -71 -16 -134 -63 -134z" />
    <glyph glyph-name="uni1EE5" unicode="&#x1ee5;" 
d="M277 0h-30v70c-22 -46 -56 -82 -103 -82c-55 0 -79 28 -79 101v394h30v-394c0 -51 19 -74 53 -74c43 0 81 44 99 92v376h30v-483zM172 -173c-15 0 -29 13 -29 29s14 29 29 29c16 0 29 -13 29 -29s-13 -29 -29 -29z" />
    <glyph glyph-name="uhorn" unicode="&#x1b0;" 
d="M277 0h-30v70c-22 -46 -56 -82 -103 -82c-55 0 -79 28 -79 101v394h30v-394c0 -51 19 -74 53 -74c43 0 81 44 99 92v376h30v-56c31 25 51 65 51 91c0 0 -5 -1 -7 -1c-19 0 -32 15 -32 33c0 17 13 32 32 32c21 0 38 -19 38 -53c0 -49 -29 -102 -82 -137v-392z" />
    <glyph glyph-name="uni1EE7" unicode="&#x1ee7;" 
d="M277 0h-30v70c-22 -46 -56 -82 -103 -82c-55 0 -79 28 -79 101v394h30v-394c0 -51 19 -74 53 -74c43 0 81 44 99 92v376h30v-483zM142 602l-21 6c5 21 20 42 50 42c29 0 49 -18 49 -57c0 -24 -8 -46 -23 -66h-25c18 22 25 43 25 66c0 26 -12 35 -26 35
c-17 0 -25 -10 -29 -26z" />
    <glyph glyph-name="uni1EE9" unicode="&#x1ee9;" 
d="M277 0h-30v70c-22 -46 -56 -82 -103 -82c-55 0 -79 28 -79 101v394h30v-394c0 -51 19 -74 53 -74c43 0 81 44 99 92v376h30v-56c31 25 51 65 51 91c0 0 -5 -1 -7 -1c-19 0 -32 15 -32 33c0 17 13 32 32 32c21 0 38 -19 38 -53c0 -49 -29 -102 -82 -137v-392zM260 700
l-95 -144h-24l78 144h41z" />
    <glyph glyph-name="uni1EEB" unicode="&#x1eeb;" 
d="M277 0h-30v70c-22 -46 -56 -82 -103 -82c-55 0 -79 28 -79 101v394h30v-394c0 -51 19 -74 53 -74c43 0 81 44 99 92v376h30v-56c31 25 51 65 51 91c0 0 -5 -1 -7 -1c-19 0 -32 15 -32 33c0 17 13 32 32 32c21 0 38 -19 38 -53c0 -49 -29 -102 -82 -137v-392zM201 556h-24
l-95 144h41z" />
    <glyph glyph-name="uni1EED" unicode="&#x1eed;" 
d="M277 0h-30v70c-22 -46 -56 -82 -103 -82c-55 0 -79 28 -79 101v394h30v-394c0 -51 19 -74 53 -74c43 0 81 44 99 92v376h30v-56c31 25 51 65 51 91c0 0 -5 -1 -7 -1c-19 0 -32 15 -32 33c0 17 13 32 32 32c21 0 38 -19 38 -53c0 -49 -29 -102 -82 -137v-392zM142 602
l-21 6c5 21 20 42 50 42c29 0 49 -18 49 -57c0 -24 -8 -46 -23 -66h-25c18 22 25 43 25 66c0 26 -12 35 -26 35c-17 0 -25 -10 -29 -26z" />
    <glyph glyph-name="uni1EEF" unicode="&#x1eef;" 
d="M277 0h-30v70c-22 -46 -56 -82 -103 -82c-55 0 -79 28 -79 101v394h30v-394c0 -51 19 -74 53 -74c43 0 81 44 99 92v376h30v-56c31 25 51 65 51 91c0 0 -5 -1 -7 -1c-19 0 -32 15 -32 33c0 17 13 32 32 32c21 0 38 -19 38 -53c0 -49 -29 -102 -82 -137v-392zM208 554
c-57 0 -41 113 -78 113c-23 0 -38 -32 -38 -107h-22c0 72 16 134 63 134c57 0 41 -113 78 -113c23 0 38 32 38 107h22c0 -71 -16 -134 -63 -134z" />
    <glyph glyph-name="uni1EF1" unicode="&#x1ef1;" 
d="M277 0h-30v70c-22 -46 -56 -82 -103 -82c-55 0 -79 28 -79 101v394h30v-394c0 -51 19 -74 53 -74c43 0 81 44 99 92v376h30v-56c31 25 51 65 51 91c0 0 -5 -1 -7 -1c-19 0 -32 15 -32 33c0 17 13 32 32 32c21 0 38 -19 38 -53c0 -49 -29 -102 -82 -137v-392zM172 -173
c-15 0 -29 13 -29 29s14 29 29 29c16 0 29 -13 29 -29s-13 -29 -29 -29z" />
    <glyph glyph-name="wacute" unicode="&#x1e83;" horiz-adv-x="484" 
d="M364 0h-30l-92 440l-92 -440h-30l-100 483h33l82 -436l89 436h36l89 -436l82 436h33zM331 700l-95 -144h-24l78 144h41z" />
    <glyph glyph-name="wcircumflex" unicode="&#x175;" horiz-adv-x="484" 
d="M364 0h-30l-92 440l-92 -440h-30l-100 483h33l82 -436l89 436h36l89 -436l82 436h33zM329 556h-23l-66 116l-63 -116h-23l68 144h36z" />
    <glyph glyph-name="wdieresis" unicode="&#x1e85;" horiz-adv-x="484" 
d="M364 0h-30l-92 440l-92 -440h-30l-100 483h33l82 -436l89 436h36l89 -436l82 436h33zM331 598c0 -15 -13 -28 -28 -28s-28 13 -28 28s13 28 28 28s28 -13 28 -28zM209 598c0 -15 -13 -28 -28 -28s-28 13 -28 28s13 28 28 28s28 -13 28 -28z" />
    <glyph glyph-name="wgrave" unicode="&#x1e81;" horiz-adv-x="484" 
d="M364 0h-30l-92 440l-92 -440h-30l-100 483h33l82 -436l89 436h36l89 -436l82 436h33zM272 556h-24l-95 144h41z" />
    <glyph glyph-name="yacute" unicode="&#xfd;" horiz-adv-x="279" 
d="M27 -189l7 27c7 -5 19 -7 24 -7c25 0 34 14 44 54l23 97l-109 501h33l90 -443l91 443h33l-137 -606c-13 -55 -35 -73 -68 -73c-11 0 -24 3 -31 7zM228 700l-95 -144h-24l78 144h41z" />
    <glyph glyph-name="ycircumflex" unicode="&#x177;" horiz-adv-x="279" 
d="M27 -189l7 27c7 -5 19 -7 24 -7c25 0 34 14 44 54l23 97l-109 501h33l90 -443l91 443h33l-137 -606c-13 -55 -35 -73 -68 -73c-11 0 -24 3 -31 7zM227 556h-23l-66 116l-63 -116h-23l68 144h36z" />
    <glyph glyph-name="ydieresis" unicode="&#xff;" horiz-adv-x="279" 
d="M27 -189l7 27c7 -5 19 -7 24 -7c25 0 34 14 44 54l23 97l-109 501h33l90 -443l91 443h33l-137 -606c-13 -55 -35 -73 -68 -73c-11 0 -24 3 -31 7zM228 598c0 -15 -13 -28 -28 -28s-28 13 -28 28s13 28 28 28s28 -13 28 -28zM106 598c0 -15 -13 -28 -28 -28s-28 13 -28 28
s13 28 28 28s28 -13 28 -28z" />
    <glyph glyph-name="ygrave" unicode="&#x1ef3;" horiz-adv-x="279" 
d="M27 -189l7 27c7 -5 19 -7 24 -7c25 0 34 14 44 54l23 97l-109 501h33l90 -443l91 443h33l-137 -606c-13 -55 -35 -73 -68 -73c-11 0 -24 3 -31 7zM169 556h-24l-95 144h41z" />
    <glyph glyph-name="yacute.alt1" 
d="M260 700l-95 -144h-24l78 144h41zM163 -196c-39 0 -82 16 -109 47l20 26c26 -32 57 -46 90 -46c49 0 83 42 83 126v113c-22 -46 -56 -82 -103 -82c-55 0 -79 28 -79 101v394h30v-394c0 -51 19 -74 53 -74c43 0 81 44 99 92v376h30v-526c0 -94 -42 -153 -114 -153z" />
    <glyph glyph-name="ycircumflex.alt1" 
d="M256 556h-23l-66 116l-63 -116h-23l68 144h36zM163 -196c-39 0 -82 16 -109 47l20 26c26 -32 57 -46 90 -46c49 0 83 42 83 126v113c-22 -46 -56 -82 -103 -82c-55 0 -79 28 -79 101v394h30v-394c0 -51 19 -74 53 -74c43 0 81 44 99 92v376h30v-526
c0 -94 -42 -153 -114 -153z" />
    <glyph glyph-name="ydieresis.alt1" 
d="M260 598c0 -15 -13 -28 -28 -28s-28 13 -28 28s13 28 28 28s28 -13 28 -28zM138 598c0 -15 -13 -28 -28 -28s-28 13 -28 28s13 28 28 28s28 -13 28 -28zM163 -196c-39 0 -82 16 -109 47l20 26c26 -32 57 -46 90 -46c49 0 83 42 83 126v113c-22 -46 -56 -82 -103 -82
c-55 0 -79 28 -79 101v394h30v-394c0 -51 19 -74 53 -74c43 0 81 44 99 92v376h30v-526c0 -94 -42 -153 -114 -153z" />
    <glyph glyph-name="ygrave.alt1" 
d="M163 -196c-39 0 -82 16 -109 47l20 26c26 -32 57 -46 90 -46c49 0 83 42 83 126v113c-22 -46 -56 -82 -103 -82c-55 0 -79 28 -79 101v394h30v-394c0 -51 19 -74 53 -74c43 0 81 44 99 92v376h30v-526c0 -94 -42 -153 -114 -153zM201 556h-24l-95 144h41z" />
    <glyph glyph-name="zacute" unicode="&#x17a;" horiz-adv-x="275" 
d="M234 0h-193v27l158 429h-158v27h189v-27l-156 -429h160v-27zM226 700l-95 -144h-24l78 144h41z" />
    <glyph glyph-name="zcaron" unicode="&#x17e;" horiz-adv-x="275" 
d="M234 0h-193v27l158 429h-158v27h189v-27l-156 -429h160v-27zM155 556h-36l-71 144h23l66 -116l63 116h23z" />
    <glyph glyph-name="zdotaccent" unicode="&#x17c;" horiz-adv-x="275" 
d="M234 0h-193v27l158 429h-158v27h189v-27l-156 -429h160v-27zM137 566c-15 0 -29 13 -29 29s14 29 29 29c16 0 29 -13 29 -29s-13 -29 -29 -29z" />
    <glyph glyph-name="eth" unicode="&#xf0;" horiz-adv-x="352" 
d="M103 526l-12 25l101 45c-12 24 -24 47 -36 66l29 16c13 -22 25 -45 36 -69l73 33l11 -24l-73 -33c47 -109 73 -229 73 -343c0 -132 -31 -254 -129 -254c-97 0 -129 122 -129 254s32 253 129 253c33 0 58 -17 75 -55c-11 38 -28 86 -48 131zM176 15c78 0 96 119 96 227
c0 107 -18 226 -96 226c-77 0 -96 -119 -96 -226c0 -108 19 -227 96 -227z" />
    <glyph glyph-name="thorn" unicode="&#xfe;" horiz-adv-x="351" 
d="M183 -12c-33 0 -68 22 -88 79v-251h-30v851h30v-249c20 50 51 77 88 77c88 0 121 -111 121 -253c0 -141 -33 -254 -121 -254zM183 15c70 0 88 111 88 227s-18 226 -88 226c-38 0 -76 -49 -88 -100v-251c12 -51 50 -102 88 -102z" />
    <glyph glyph-name="Aacute.smcp" unicode="&#xf7e1;" horiz-adv-x="266" 
d="M115 550h36l105 -550h-33l-26 146h-128l-26 -146h-33zM192 175l-59 324l-59 -324h118zM222 750l-95 -144h-24l78 144h41z" />
    <glyph glyph-name="Abreve.smcp" unicode="&#xf66d;" horiz-adv-x="266" 
d="M115 550h36l105 -550h-33l-26 146h-128l-26 -146h-33zM192 175l-59 324l-59 -324h118zM247 667c-26 -36 -68 -58 -115 -58s-89 22 -115 58l22 18c19 -30 58 -49 93 -49s74 19 93 49z" />
    <glyph glyph-name="Acircumflex.smcp" unicode="&#xf7e2;" horiz-adv-x="266" 
d="M115 550h36l105 -550h-33l-26 146h-128l-26 -146h-33zM192 175l-59 324l-59 -324h118zM221 606h-23l-66 116l-63 -116h-23l68 144h36z" />
    <glyph glyph-name="Adieresis.smcp" unicode="&#xf7e4;" horiz-adv-x="266" 
d="M115 550h36l105 -550h-33l-26 146h-128l-26 -146h-33zM192 175l-59 324l-59 -324h118zM221 648c0 -15 -13 -28 -28 -28s-28 13 -28 28s13 28 28 28s28 -13 28 -28zM99 648c0 -15 -13 -28 -28 -28s-28 13 -28 28s13 28 28 28s28 -13 28 -28z" />
    <glyph glyph-name="Agrave.smcp" unicode="&#xf7e0;" horiz-adv-x="266" 
d="M115 550h36l105 -550h-33l-26 146h-128l-26 -146h-33zM192 175l-59 324l-59 -324h118zM163 606h-24l-95 144h41z" />
    <glyph glyph-name="Amacron.smcp" unicode="&#xf66e;" horiz-adv-x="266" 
d="M115 550h36l105 -550h-33l-26 146h-128l-26 -146h-33zM192 175l-59 324l-59 -324h118zM253 631h-240v27h240v-27z" />
    <glyph glyph-name="Aogonek.smcp" unicode="&#xf66f;" horiz-adv-x="266" 
d="M115 550h36l105 -550c-40 -27 -72 -61 -72 -115c0 -32 14 -44 32 -44c21 0 33 14 38 37l25 -11c-7 -27 -25 -53 -63 -53c-36 0 -61 23 -61 71c0 52 31 95 66 123l-24 138h-128l-26 -146h-33zM192 175l-59 324l-59 -324h118z" />
    <glyph glyph-name="Aring.smcp" unicode="&#xf7e5;" horiz-adv-x="266" 
d="M115 550h36l105 -550h-33l-26 146h-128l-26 -146h-33zM192 175l-59 324l-59 -324h118zM133 575c-43 0 -78 35 -78 78s35 78 78 78s77 -35 77 -78s-34 -78 -77 -78zM133 599c30 0 54 24 54 54s-24 54 -54 54s-54 -24 -54 -54s24 -54 54 -54z" />
    <glyph glyph-name="Atilde.smcp" unicode="&#xf7e3;" horiz-adv-x="266" 
d="M115 550h36l105 -550h-33l-26 146h-128l-26 -146h-33zM192 175l-59 324l-59 -324h118zM170 604c-57 0 -41 113 -78 113c-23 0 -38 -32 -38 -107h-22c0 72 16 134 63 134c57 0 41 -113 78 -113c23 0 38 32 38 107h22c0 -71 -16 -134 -63 -134z" />
    <glyph glyph-name="uni1EA0.smcp" horiz-adv-x="266" 
d="M115 550h36l105 -550h-33l-26 146h-128l-26 -146h-33zM192 175l-59 324l-59 -324h118zM132 -173c-15 0 -29 13 -29 29s14 29 29 29c16 0 29 -13 29 -29s-13 -29 -29 -29z" />
    <glyph glyph-name="uni1EA2.smcp" horiz-adv-x="266" 
d="M115 550h36l105 -550h-33l-26 146h-128l-26 -146h-33zM192 175l-59 324l-59 -324h118zM104 655l-21 6c5 21 20 42 50 42c29 0 49 -18 49 -57c0 -24 -8 -46 -23 -66h-25c18 22 25 43 25 66c0 26 -12 35 -26 35c-17 0 -25 -10 -29 -26z" />
    <glyph glyph-name="uni1EA4.smcp" horiz-adv-x="266" 
d="M115 550h36l105 -550h-33l-26 146h-128l-26 -146h-33zM192 175l-59 324l-59 -324h118zM222 606h-23l-66 116l-63 -116h-23l68 144h36zM315 821l-95 -144h-24l78 144h41z" />
    <glyph glyph-name="uni1EAC.smcp" horiz-adv-x="266" 
d="M115 550h36l105 -550h-33l-26 146h-128l-26 -146h-33zM192 175l-59 324l-59 -324h118zM133 -173c-15 0 -29 13 -29 29s14 29 29 29c16 0 29 -13 29 -29s-13 -29 -29 -29zM221 606h-23l-66 116l-63 -116h-23l68 144h36z" />
    <glyph glyph-name="uni1EA6.smcp" horiz-adv-x="266" 
d="M115 550h36l105 -550h-33l-26 146h-128l-26 -146h-33zM192 175l-59 324l-59 -324h118zM71 677h-24l-95 144h41zM222 606h-23l-66 116l-63 -116h-23l68 144h36z" />
    <glyph glyph-name="uni1EA8.smcp" horiz-adv-x="266" 
d="M115 550h36l105 -550h-33l-26 146h-128l-26 -146h-33zM192 175l-59 324l-59 -324h118zM221 606h-23l-66 116l-63 -116h-23l68 144h36zM159 792l-21 6c5 21 20 42 50 42c29 0 49 -18 49 -57c0 -24 -8 -46 -23 -66h-25c18 22 25 43 25 66c0 26 -12 35 -26 35
c-17 0 -25 -10 -29 -26z" />
    <glyph glyph-name="uni1EAE.smcp" horiz-adv-x="266" 
d="M115 550h36l105 -550h-33l-26 146h-128l-26 -146h-33zM192 175l-59 324l-59 -324h118zM248 639c-26 -36 -68 -58 -115 -58s-89 22 -115 58l22 18c19 -30 58 -49 93 -49s74 19 93 49zM221 806l-95 -144h-24l78 144h41z" />
    <glyph glyph-name="uni1EAA.smcp" horiz-adv-x="266" 
d="M115 550h36l105 -550h-33l-26 146h-128l-26 -146h-33zM192 175l-59 324l-59 -324h118zM220 573h-23l-66 116l-63 -116h-23l68 144h36zM170 732c-57 0 -41 113 -78 113c-23 0 -38 -32 -38 -107h-22c0 72 16 134 63 134c57 0 41 -113 78 -113c23 0 38 32 38 107h22
c0 -71 -16 -134 -63 -134z" />
    <glyph glyph-name="uni1EB0.smcp" horiz-adv-x="266" 
d="M115 550h36l105 -550h-33l-26 146h-128l-26 -146h-33zM192 175l-59 324l-59 -324h118zM248 639c-26 -36 -68 -58 -115 -58s-89 22 -115 58l22 18c19 -30 58 -49 93 -49s74 19 93 49zM161 662h-24l-95 144h41z" />
    <glyph glyph-name="uni1EB2.smcp" horiz-adv-x="266" 
d="M115 550h36l105 -550h-33l-26 146h-128l-26 -146h-33zM192 175l-59 324l-59 -324h118zM248 639c-26 -36 -68 -58 -115 -58s-89 22 -115 58l22 18c19 -30 58 -49 93 -49s74 19 93 49zM104 727l-21 6c5 21 20 42 50 42c29 0 49 -18 49 -57c0 -24 -8 -46 -23 -66h-25
c18 22 25 43 25 66c0 26 -12 35 -26 35c-17 0 -25 -10 -29 -26z" />
    <glyph glyph-name="uni1EB4.smcp" horiz-adv-x="266" 
d="M115 550h36l105 -550h-33l-26 146h-128l-26 -146h-33zM192 175l-59 324l-59 -324h118zM248 639c-26 -36 -68 -58 -115 -58s-89 22 -115 58l22 18c19 -30 58 -49 93 -49s74 19 93 49zM171 696c-57 0 -41 113 -78 113c-23 0 -38 -32 -38 -107h-22c0 72 16 134 63 134
c57 0 41 -113 78 -113c23 0 38 32 38 107h22c0 -71 -16 -134 -63 -134z" />
    <glyph glyph-name="uni1EB6.smcp" horiz-adv-x="266" 
d="M115 550h36l105 -550h-33l-26 146h-128l-26 -146h-33zM192 175l-59 324l-59 -324h118zM247 667c-26 -36 -68 -58 -115 -58s-89 22 -115 58l22 18c19 -30 58 -49 93 -49s74 19 93 49zM133 -173c-15 0 -29 13 -29 29s14 29 29 29c16 0 29 -13 29 -29s-13 -29 -29 -29z" />
    <glyph glyph-name="AE.smcp" unicode="&#xf7e6;" horiz-adv-x="424" 
d="M381 0h-184v146h-115l-47 -146h-33l182 550h197v-29h-152v-223h146v-29h-146v-240h152v-29zM197 175v326l-106 -326h106z" />
    <glyph glyph-name="AEacute.smcp" unicode="&#xf670;" horiz-adv-x="424" 
d="M302 750l-95 -144h-24l78 144h41zM381 0h-184v146h-115l-47 -146h-33l182 550h197v-29h-152v-223h146v-29h-146v-240h152v-29zM197 175v326l-106 -326h106z" />
    <glyph glyph-name="uni1E02.smcp" horiz-adv-x="299" 
d="M142 0h-77v550h74c68 0 114 -50 114 -141c0 -66 -23 -106 -62 -124c42 -14 69 -76 69 -136c0 -94 -38 -149 -118 -149zM142 29c62 0 84 46 84 119c0 62 -22 121 -84 121h-45v-240h45zM139 298c61 0 79 49 79 111c0 56 -15 112 -79 112h-42v-223h42zM160 616
c-15 0 -29 13 -29 29s14 29 29 29c16 0 29 -13 29 -29s-13 -29 -29 -29z" />
    <glyph glyph-name="Cacute.smcp" unicode="&#xf671;" horiz-adv-x="322" 
d="M179 -12c-99 0 -132 131 -132 287c0 157 33 287 132 287c53 0 84 -34 104 -88l-28 -11c-17 46 -40 70 -76 70c-75 0 -98 -116 -98 -258c0 -141 23 -258 98 -258c39 0 61 27 76 76l29 -11c-20 -58 -50 -94 -105 -94zM268 750l-95 -144h-24l78 144h41z" />
    <glyph glyph-name="Ccaron.smcp" unicode="&#xf672;" horiz-adv-x="322" 
d="M179 -12c-99 0 -132 131 -132 287c0 157 33 287 132 287c53 0 84 -34 104 -88l-28 -11c-17 46 -40 70 -76 70c-75 0 -98 -116 -98 -258c0 -141 23 -258 98 -258c39 0 61 27 76 76l29 -11c-20 -58 -50 -94 -105 -94zM198 606h-36l-71 144h23l66 -116l63 116h23z" />
    <glyph glyph-name="Ccedilla.smcp" unicode="&#xf7e7;" horiz-adv-x="322" 
d="M169 -187c-30 0 -51 12 -70 28l13 26c20 -19 34 -27 57 -27c27 0 52 19 52 49c0 25 -13 40 -33 40c-14 0 -22 -6 -31 -15l-21 12l23 64c-84 16 -112 140 -112 285c0 157 33 287 132 287c53 0 84 -34 104 -88l-28 -11c-17 46 -40 70 -76 70c-75 0 -98 -116 -98 -258
c0 -141 23 -258 98 -258c39 0 61 27 76 76l29 -11c-19 -55 -47 -89 -96 -93l-18 -48c8 7 17 10 29 10c27 0 51 -24 51 -62c0 -43 -36 -76 -81 -76z" />
    <glyph glyph-name="Ccircumflex.smcp" unicode="&#xf673;" horiz-adv-x="322" 
d="M179 -12c-99 0 -132 131 -132 287c0 157 33 287 132 287c53 0 84 -34 104 -88l-28 -11c-17 46 -40 70 -76 70c-75 0 -98 -116 -98 -258c0 -141 23 -258 98 -258c39 0 61 27 76 76l29 -11c-20 -58 -50 -94 -105 -94zM266 606h-23l-66 116l-63 -116h-23l68 144h36z" />
    <glyph glyph-name="Cdotaccent.smcp" unicode="&#xf674;" horiz-adv-x="322" 
d="M179 -12c-99 0 -132 131 -132 287c0 157 33 287 132 287c53 0 84 -34 104 -88l-28 -11c-17 46 -40 70 -76 70c-75 0 -98 -116 -98 -258c0 -141 23 -258 98 -258c39 0 61 27 76 76l29 -11c-20 -58 -50 -94 -105 -94zM180 616c-15 0 -29 13 -29 29s14 29 29 29
c16 0 29 -13 29 -29s-13 -29 -29 -29z" />
    <glyph glyph-name="Dcaron.smcp" unicode="&#xf675;" horiz-adv-x="352" 
d="M146 0h-88v550h88c104 0 152 -115 152 -276s-48 -274 -152 -274zM146 29c84 0 118 108 118 245c0 136 -34 247 -118 247h-56v-492h56zM187 606h-36l-71 144h23l66 -116l63 116h23z" />
    <glyph glyph-name="Dcroat.smcp" unicode="&#xf676;" horiz-adv-x="388" 
d="M182 0h-88v268h-68v27h68v255h88c104 0 152 -115 152 -276s-48 -274 -152 -274zM206 268h-80v-239h56c84 0 118 108 118 245c0 136 -34 247 -118 247h-56v-226h80v-27z" />
    <glyph glyph-name="uni1E0A.smcp" horiz-adv-x="352" 
d="M153 0h-88v550h88c104 0 152 -115 152 -276s-48 -274 -152 -274zM153 29c84 0 118 108 118 245c0 136 -34 247 -118 247h-56v-492h56zM176 616c-15 0 -29 13 -29 29s14 29 29 29c16 0 29 -13 29 -29s-13 -29 -29 -29z" />
    <glyph glyph-name="Eacute.smcp" unicode="&#xf7e9;" horiz-adv-x="293" 
d="M250 0h-185v550h185v-29h-153v-223h147v-29h-147v-240h153v-29zM246 750l-95 -144h-24l78 144h41z" />
    <glyph glyph-name="Ebreve.smcp" unicode="&#xf677;" horiz-adv-x="293" 
d="M250 0h-185v550h185v-29h-153v-223h147v-29h-147v-240h153v-29zM275 667c-26 -36 -68 -58 -115 -58s-89 22 -115 58l22 18c19 -30 58 -49 93 -49s74 19 93 49z" />
    <glyph glyph-name="Ecaron.smcp" unicode="&#xf678;" horiz-adv-x="293" 
d="M250 0h-185v550h185v-29h-153v-223h147v-29h-147v-240h153v-29zM176 606h-36l-71 144h23l66 -116l63 116h23z" />
    <glyph glyph-name="Ecircumflex.smcp" unicode="&#xf7ea;" horiz-adv-x="293" 
d="M250 0h-185v550h185v-29h-153v-223h147v-29h-147v-240h153v-29zM245 606h-23l-66 116l-63 -116h-23l68 144h36z" />
    <glyph glyph-name="Edieresis.smcp" unicode="&#xf7eb;" horiz-adv-x="293" 
d="M250 0h-185v550h185v-29h-153v-223h147v-29h-147v-240h153v-29zM249 648c0 -15 -13 -28 -28 -28s-28 13 -28 28s13 28 28 28s28 -13 28 -28zM127 648c0 -15 -13 -28 -28 -28s-28 13 -28 28s13 28 28 28s28 -13 28 -28z" />
    <glyph glyph-name="Edotaccent.smcp" unicode="&#xf679;" horiz-adv-x="293" 
d="M250 0h-185v550h185v-29h-153v-223h147v-29h-147v-240h153v-29zM160 616c-15 0 -29 13 -29 29s14 29 29 29c16 0 29 -13 29 -29s-13 -29 -29 -29z" />
    <glyph glyph-name="Egrave.smcp" unicode="&#xf7e8;" horiz-adv-x="293" 
d="M250 0h-185v550h185v-29h-153v-223h147v-29h-147v-240h153v-29zM187 606h-24l-95 144h41z" />
    <glyph glyph-name="Emacron.smcp" unicode="&#xf67a;" horiz-adv-x="293" 
d="M250 0h-185v550h185v-29h-153v-223h147v-29h-147v-240h153v-29zM281 631h-240v27h240v-27z" />
    <glyph glyph-name="Eogonek.smcp" unicode="&#xf67c;" horiz-adv-x="293" 
d="M248 -122l25 -11c-7 -27 -25 -53 -63 -53c-36 0 -61 23 -61 71c0 47 25 87 56 115h-140v550h185v-29h-153v-223h147v-29h-147v-240h153v-29c-40 -27 -72 -61 -72 -115c0 -32 14 -44 32 -44c21 0 33 14 38 37z" />
    <glyph glyph-name="uni1EB8.smcp" horiz-adv-x="293" 
d="M250 0h-185v550h185v-29h-153v-223h147v-29h-147v-240h153v-29zM158 -173c-15 0 -29 13 -29 29s14 29 29 29c16 0 29 -13 29 -29s-13 -29 -29 -29z" />
    <glyph glyph-name="uni1EBA.smcp" horiz-adv-x="293" 
d="M250 0h-185v550h185v-29h-153v-223h147v-29h-147v-240h153v-29zM130 655l-21 6c5 21 20 42 50 42c29 0 49 -18 49 -57c0 -24 -8 -46 -23 -66h-25c18 22 25 43 25 66c0 26 -12 35 -26 35c-17 0 -25 -10 -29 -26z" />
    <glyph glyph-name="uni1EBC.smcp" horiz-adv-x="293" 
d="M250 0h-185v550h185v-29h-153v-223h147v-29h-147v-240h153v-29zM196 604c-57 0 -41 113 -78 113c-23 0 -38 -32 -38 -107h-22c0 72 16 134 63 134c57 0 41 -113 78 -113c23 0 38 32 38 107h22c0 -71 -16 -134 -63 -134z" />
    <glyph glyph-name="uni1EBE.smcp" horiz-adv-x="293" 
d="M250 0h-185v550h185v-29h-153v-223h147v-29h-147v-240h153v-29zM247 606h-23l-66 116l-63 -116h-23l68 144h36zM340 821l-95 -144h-24l78 144h41z" />
    <glyph glyph-name="uni1EC0.smcp" horiz-adv-x="293" 
d="M250 0h-185v550h185v-29h-153v-223h147v-29h-147v-240h153v-29zM242 606h-23l-66 116l-63 -116h-23l68 144h36zM91 677h-24l-95 144h41z" />
    <glyph glyph-name="uni1EC2.smcp" horiz-adv-x="293" 
d="M250 0h-185v550h185v-29h-153v-223h147v-29h-147v-240h153v-29zM246 606h-23l-66 116l-63 -116h-23l68 144h36zM184 792l-21 6c5 21 20 42 50 42c29 0 49 -18 49 -57c0 -24 -8 -46 -23 -66h-25c18 22 25 43 25 66c0 26 -12 35 -26 35c-17 0 -25 -10 -29 -26z" />
    <glyph glyph-name="uni1EC4.smcp" horiz-adv-x="293" 
d="M250 0h-185v550h185v-29h-153v-223h147v-29h-147v-240h153v-29zM245 573h-23l-66 116l-63 -116h-23l68 144h36zM195 732c-57 0 -41 113 -78 113c-23 0 -38 -32 -38 -107h-22c0 72 16 134 63 134c57 0 41 -113 78 -113c23 0 38 32 38 107h22c0 -71 -16 -134 -63 -134z" />
    <glyph glyph-name="uni1EC6.smcp" horiz-adv-x="293" 
d="M250 0h-185v550h185v-29h-153v-223h147v-29h-147v-240h153v-29zM157 -173c-15 0 -29 13 -29 29s14 29 29 29c16 0 29 -13 29 -29s-13 -29 -29 -29zM246 606h-23l-66 116l-63 -116h-23l68 144h36z" />
    <glyph glyph-name="uni1E1E.smcp" horiz-adv-x="293" 
d="M97 0h-32v550h185v-29h-153v-223h147v-29h-147v-269zM161 616c-15 0 -29 13 -29 29s14 29 29 29c16 0 29 -13 29 -29s-13 -29 -29 -29z" />
    <glyph glyph-name="Gbreve.smcp" unicode="&#xf67d;" horiz-adv-x="340" 
d="M179 -12c-95 0 -132 119 -132 287c0 169 37 287 132 287c59 0 84 -41 103 -88l-27 -11c-17 42 -36 70 -76 70c-78 0 -98 -118 -98 -258c0 -138 20 -258 98 -258c34 0 59 16 74 41v181h-82v29h113v-219c-30 -46 -64 -61 -105 -61zM293 667c-26 -36 -68 -58 -115 -58
s-89 22 -115 58l22 18c19 -30 58 -49 93 -49s74 19 93 49z" />
    <glyph glyph-name="Gcircumflex.smcp" unicode="&#xf67e;" horiz-adv-x="340" 
d="M179 -12c-95 0 -132 119 -132 287c0 169 37 287 132 287c59 0 84 -41 103 -88l-27 -11c-17 42 -36 70 -76 70c-78 0 -98 -118 -98 -258c0 -138 20 -258 98 -258c34 0 59 16 74 41v181h-82v29h113v-219c-30 -46 -64 -61 -105 -61zM269 606h-23l-66 116l-63 -116h-23
l68 144h36z" />
    <glyph glyph-name="Gcommaaccent.smcp" unicode="&#xf67f;" horiz-adv-x="340" 
d="M179 -12c-95 0 -132 119 -132 287c0 169 37 287 132 287c59 0 84 -41 103 -88l-27 -11c-17 42 -36 70 -76 70c-78 0 -98 -118 -98 -258c0 -138 20 -258 98 -258c34 0 59 16 74 41v181h-82v29h113v-219c-30 -46 -64 -61 -105 -61zM224 -137c0 -50 -30 -98 -62 -121l-22 18
c32 24 53 62 53 92c0 0 -5 -1 -7 -1c-19 0 -32 15 -32 33c0 17 13 32 32 32c21 0 38 -19 38 -53z" />
    <glyph glyph-name="Gdotaccent.smcp" unicode="&#xf680;" horiz-adv-x="340" 
d="M179 -12c-95 0 -132 119 -132 287c0 169 37 287 132 287c59 0 84 -41 103 -88l-27 -11c-17 42 -36 70 -76 70c-78 0 -98 -118 -98 -258c0 -138 20 -258 98 -258c34 0 59 16 74 41v181h-82v29h113v-219c-30 -46 -64 -61 -105 -61zM181 616c-15 0 -29 13 -29 29
s14 29 29 29c16 0 29 -13 29 -29s-13 -29 -29 -29z" />
    <glyph glyph-name="Gbreve.smcp.alt1" horiz-adv-x="340" 
d="M293 667c-26 -36 -68 -58 -115 -58s-89 22 -115 58l22 18c19 -30 58 -49 93 -49s74 19 93 49zM179 -12c-95 0 -132 119 -132 287c0 169 37 287 132 287c59 0 84 -41 103 -88l-27 -11c-17 42 -36 70 -76 70c-78 0 -98 -118 -98 -258c0 -138 20 -258 98 -258s98 128 98 221
h-106v29h137c0 -167 -36 -279 -129 -279z" />
    <glyph glyph-name="Gcommaaccent.smcp.alt1" horiz-adv-x="340" 
d="M224 -137c0 -50 -30 -98 -62 -121l-22 18c32 24 53 62 53 92c0 0 -5 -1 -7 -1c-19 0 -32 15 -32 33c0 17 13 32 32 32c21 0 38 -19 38 -53zM179 -12c-95 0 -132 119 -132 287c0 169 37 287 132 287c59 0 84 -41 103 -88l-27 -11c-17 42 -36 70 -76 70
c-78 0 -98 -118 -98 -258c0 -138 20 -258 98 -258s98 128 98 221h-106v29h137c0 -167 -36 -279 -129 -279z" />
    <glyph glyph-name="Gcircumflex.smcp.alt1" horiz-adv-x="340" 
d="M179 -12c-95 0 -132 119 -132 287c0 169 37 287 132 287c59 0 84 -41 103 -88l-27 -11c-17 42 -36 70 -76 70c-78 0 -98 -118 -98 -258c0 -138 20 -258 98 -258s98 128 98 221h-106v29h137c0 -167 -36 -279 -129 -279zM268 606h-23l-66 116l-63 -116h-23l68 144h36z" />
    <glyph glyph-name="Gdotaccent.smcp.alt1" horiz-adv-x="340" 
d="M179 -12c-95 0 -132 119 -132 287c0 169 37 287 132 287c59 0 84 -41 103 -88l-27 -11c-17 42 -36 70 -76 70c-78 0 -98 -118 -98 -258c0 -138 20 -258 98 -258s98 128 98 221h-106v29h137c0 -167 -36 -279 -129 -279zM180 616c-15 0 -29 13 -29 29s14 29 29 29
c16 0 29 -13 29 -29s-13 -29 -29 -29z" />
    <glyph glyph-name="Hbar.smcp" unicode="&#xf682;" horiz-adv-x="402" 
d="M311 0h-32v269h-156v-269h-32v411h-65v27h65v112h32v-112h156v112h32v-112h65v-27h-65v-411zM123 298h156v113h-156v-113z" />
    <glyph glyph-name="Hcircumflex.smcp" unicode="&#xf681;" horiz-adv-x="350" 
d="M285 0h-32v269h-156v-269h-32v550h32v-252h156v252h32v-550zM262 606h-23l-66 116l-63 -116h-23l68 144h36z" />
    <glyph glyph-name="uni1E22.smcp" horiz-adv-x="350" 
d="M285 0h-32v269h-156v-269h-32v550h32v-252h156v252h32v-550zM176 616c-15 0 -29 13 -29 29s14 29 29 29c16 0 29 -13 29 -29s-13 -29 -29 -29z" />
    <glyph glyph-name="Iacute.smcp" unicode="&#xf7ed;" horiz-adv-x="162" 
d="M97 0h-32v550h32v-550zM170 750l-95 -144h-24l78 144h41z" />
    <glyph glyph-name="Ibreve.smcp" unicode="&#xf683;" horiz-adv-x="162" 
d="M97 0h-32v550h32v-550zM196 667c-26 -36 -68 -58 -115 -58s-89 22 -115 58l22 18c19 -30 58 -49 93 -49s74 19 93 49z" />
    <glyph glyph-name="Igrave.smcp" unicode="&#xf7ec;" horiz-adv-x="162" 
d="M97 0h-32v550h32v-550zM111 606h-24l-95 144h41z" />
    <glyph glyph-name="Icircumflex.smcp" unicode="&#xf7ee;" horiz-adv-x="162" 
d="M97 0h-32v550h32v-550zM169 606h-23l-66 116l-63 -116h-23l68 144h36z" />
    <glyph glyph-name="Idieresis.smcp" unicode="&#xf7ef;" horiz-adv-x="162" 
d="M97 0h-32v550h32v-550zM171 648c0 -15 -13 -28 -28 -28s-28 13 -28 28s13 28 28 28s28 -13 28 -28zM49 648c0 -15 -13 -28 -28 -28s-28 13 -28 28s13 28 28 28s28 -13 28 -28z" />
    <glyph glyph-name="Idotaccent.smcp" unicode="&#xf6ad;" horiz-adv-x="163" 
d="M98 0h-32v550h32v-550zM82 616c-15 0 -29 13 -29 29s14 29 29 29c16 0 29 -13 29 -29s-13 -29 -29 -29z" />
    <glyph glyph-name="Imacron.smcp" unicode="&#xf685;" horiz-adv-x="162" 
d="M97 0h-32v550h32v-550zM202 631h-240v27h240v-27z" />
    <glyph glyph-name="Iogonek.smcp" unicode="&#xf686;" horiz-adv-x="162" 
d="M95 -122l25 -11c-7 -27 -25 -53 -63 -53c-36 0 -61 23 -61 71c0 53 32 97 69 125v540h32v-550c-40 -27 -72 -61 -72 -115c0 -32 14 -44 32 -44c21 0 33 14 38 37z" />
    <glyph glyph-name="Itilde.smcp" unicode="&#xf687;" horiz-adv-x="162" 
d="M97 0h-32v550h32v-550zM120 604c-57 0 -41 113 -78 113c-23 0 -38 -32 -38 -107h-22c0 72 16 134 63 134c57 0 41 -113 78 -113c23 0 38 32 38 107h22c0 -71 -16 -134 -63 -134z" />
    <glyph glyph-name="uni1EC8.smcp" horiz-adv-x="162" 
d="M97 0h-32v550h32v-550zM54 655l-21 6c5 21 20 42 50 42c29 0 49 -18 49 -57c0 -24 -8 -46 -23 -66h-25c18 22 25 43 25 66c0 26 -12 35 -26 35c-17 0 -25 -10 -29 -26z" />
    <glyph glyph-name="uni1ECA.smcp" horiz-adv-x="162" 
d="M97 0h-32v550h32v-550zM82 -173c-15 0 -29 13 -29 29s14 29 29 29c16 0 29 -13 29 -29s-13 -29 -29 -29z" />
    <glyph glyph-name="IJ.smcp" unicode="&#xf684;" horiz-adv-x="423" 
d="M97 0h-32v550h32v-550zM257 -12c-38 0 -67 15 -91 48l22 21c19 -28 44 -40 69 -40c44 0 69 23 69 82v451h32v-451c0 -77 -41 -111 -101 -111z" />
    <glyph glyph-name="Jcircumflex.smcp" unicode="&#xf688;" horiz-adv-x="261" 
d="M95 -12c-38 0 -67 15 -91 48l22 21c19 -28 44 -40 69 -40c44 0 69 23 69 82v451h32v-451c0 -77 -41 -111 -101 -111zM269 606h-23l-66 116l-63 -116h-23l68 144h36z" />
    <glyph glyph-name="Kcommaaccent.smcp" unicode="&#xf689;" horiz-adv-x="329" 
d="M314 0h-39l-140 259l-38 -69v-190h-32v550h32v-305l167 305h39l-151 -263zM218 -137c0 -50 -30 -98 -62 -121l-22 18c32 24 53 62 53 92c0 0 -5 -1 -7 -1c-19 0 -32 15 -32 33c0 17 13 32 32 32c21 0 38 -19 38 -53z" />
    <glyph glyph-name="Lacute.smcp" unicode="&#xf68a;" horiz-adv-x="272" 
d="M250 0h-185v550h32v-521h153v-29zM246 750l-95 -144h-24l78 144h41z" />
    <glyph glyph-name="Lcaron.smcp" unicode="&#xf68b;" horiz-adv-x="272" 
d="M250 0h-185v550h32v-521h153v-29zM218 507c0 -50 -30 -98 -62 -121l-22 18c32 24 53 62 53 92c0 0 -5 -1 -7 -1c-19 0 -32 15 -32 33c0 17 13 32 32 32c21 0 38 -19 38 -53z" />
    <glyph glyph-name="Lcommaaccent.smcp" unicode="&#xf68c;" horiz-adv-x="272" 
d="M250 0h-185v550h32v-521h153v-29zM198 -137c0 -50 -30 -98 -62 -121l-22 18c32 24 53 62 53 92c0 0 -5 -1 -7 -1c-19 0 -32 15 -32 33c0 17 13 32 32 32c21 0 38 -19 38 -53z" />
    <glyph glyph-name="Ldot.smcp" unicode="&#xf68d;" horiz-adv-x="298" 
d="M250 0h-185v550h32v-521h153v-29zM263 285c0 -18 -15 -33 -33 -33s-33 15 -33 33c0 17 15 32 33 32s33 -15 33 -32z" />
    <glyph glyph-name="Lslash.smcp" unicode="&#xf6f9;" horiz-adv-x="296" 
d="M26 217v34l63 36v263h32v-244l61 36v-34l-61 -36v-243h153v-29h-185v253z" />
    <glyph glyph-name="Nacute.smcp" unicode="&#xf68e;" horiz-adv-x="350" 
d="M285 0h-38l-150 474v-474h-32v550h38l150 -468v468h32v-550zM264 750l-95 -144h-24l78 144h41z" />
    <glyph glyph-name="Ncaron.smcp" unicode="&#xf68f;" horiz-adv-x="350" 
d="M285 0h-38l-150 474v-474h-32v550h38l150 -468v468h32v-550zM193 606h-36l-71 144h23l66 -116l63 116h23z" />
    <glyph glyph-name="Ncommaaccent.smcp" unicode="&#xf690;" horiz-adv-x="350" 
d="M285 0h-38l-150 474v-474h-32v550h38l150 -468v468h32v-550zM221 -137c0 -50 -30 -98 -62 -121l-22 18c32 24 53 62 53 92c0 0 -5 -1 -7 -1c-19 0 -32 15 -32 33c0 17 13 32 32 32c21 0 38 -19 38 -53z" />
    <glyph glyph-name="Ntilde.smcp" unicode="&#xf7f1;" horiz-adv-x="350" 
d="M285 0h-38l-150 474v-474h-32v550h38l150 -468v468h32v-550zM210 604c-57 0 -41 113 -78 113c-23 0 -38 -32 -38 -107h-22c0 72 16 134 63 134c57 0 41 -113 78 -113c23 0 38 32 38 107h22c0 -71 -16 -134 -63 -134z" />
    <glyph glyph-name="Eng.smcp" unicode="&#xf67b;" horiz-adv-x="350" 
d="M184 -196c-38 0 -67 15 -91 48l22 21c19 -28 44 -40 69 -40c44 0 69 23 69 82v67l-156 492v-474h-32v550h38l150 -468v468h32v-635c0 -77 -41 -111 -101 -111z" />
    <glyph glyph-name="Oacute.smcp" unicode="&#xf7f3;" horiz-adv-x="359" 
d="M179 -12c-102 0 -132 134 -132 287s30 287 132 287s133 -134 133 -287s-31 -287 -133 -287zM179 17c78 0 98 124 98 258c0 135 -20 258 -98 258s-98 -123 -98 -258c0 -134 20 -258 98 -258zM268 750l-95 -144h-24l78 144h41z" />
    <glyph glyph-name="Obreve.smcp" unicode="&#xf691;" horiz-adv-x="359" 
d="M179 -12c-102 0 -132 134 -132 287s30 287 132 287s133 -134 133 -287s-31 -287 -133 -287zM179 17c78 0 98 124 98 258c0 135 -20 258 -98 258s-98 -123 -98 -258c0 -134 20 -258 98 -258zM293 667c-26 -36 -68 -58 -115 -58s-89 22 -115 58l22 18c19 -30 58 -49 93 -49
s74 19 93 49z" />
    <glyph glyph-name="Ocircumflex.smcp" unicode="&#xf7f4;" horiz-adv-x="359" 
d="M179 -12c-102 0 -132 134 -132 287s30 287 132 287s133 -134 133 -287s-31 -287 -133 -287zM179 17c78 0 98 124 98 258c0 135 -20 258 -98 258s-98 -123 -98 -258c0 -134 20 -258 98 -258zM267 606h-23l-66 116l-63 -116h-23l68 144h36z" />
    <glyph glyph-name="Odieresis.smcp" unicode="&#xf7f6;" horiz-adv-x="359" 
d="M179 -12c-102 0 -132 134 -132 287s30 287 132 287s133 -134 133 -287s-31 -287 -133 -287zM179 17c78 0 98 124 98 258c0 135 -20 258 -98 258s-98 -123 -98 -258c0 -134 20 -258 98 -258zM267 648c0 -15 -13 -28 -28 -28s-28 13 -28 28s13 28 28 28s28 -13 28 -28z
M145 648c0 -15 -13 -28 -28 -28s-28 13 -28 28s13 28 28 28s28 -13 28 -28z" />
    <glyph glyph-name="Ograve.smcp" unicode="&#xf7f2;" horiz-adv-x="359" 
d="M179 -12c-102 0 -132 134 -132 287s30 287 132 287s133 -134 133 -287s-31 -287 -133 -287zM179 17c78 0 98 124 98 258c0 135 -20 258 -98 258s-98 -123 -98 -258c0 -134 20 -258 98 -258zM209 606h-24l-95 144h41z" />
    <glyph glyph-name="Ohungarumlaut.smcp" unicode="&#xf692;" horiz-adv-x="359" 
d="M179 -12c-102 0 -132 134 -132 287s30 287 132 287s133 -134 133 -287s-31 -287 -133 -287zM179 17c78 0 98 124 98 258c0 135 -20 258 -98 258s-98 -123 -98 -258c0 -134 20 -258 98 -258zM205 750l-75 -144h-20l58 144h37zM311 750l-75 -144h-20l58 144h37z" />
    <glyph glyph-name="Omacron.smcp" unicode="&#xf693;" horiz-adv-x="359" 
d="M179 -12c-102 0 -132 134 -132 287s30 287 132 287s133 -134 133 -287s-31 -287 -133 -287zM179 17c78 0 98 124 98 258c0 135 -20 258 -98 258s-98 -123 -98 -258c0 -134 20 -258 98 -258zM298 631h-240v27h240v-27z" />
    <glyph glyph-name="Otilde.smcp" unicode="&#xf7f5;" horiz-adv-x="359" 
d="M179 -12c-102 0 -132 134 -132 287s30 287 132 287s133 -134 133 -287s-31 -287 -133 -287zM179 17c78 0 98 124 98 258c0 135 -20 258 -98 258s-98 -123 -98 -258c0 -134 20 -258 98 -258zM215 604c-57 0 -41 113 -78 113c-23 0 -38 -32 -38 -107h-22
c0 72 16 134 63 134c57 0 41 -113 78 -113c23 0 38 32 38 107h22c0 -71 -16 -134 -63 -134z" />
    <glyph glyph-name="Oslash.smcp" unicode="&#xf7f8;" horiz-adv-x="359" 
d="M179 -12c-35 0 -61 15 -81 41l-11 -29h-33l25 63c-24 54 -32 130 -32 212c0 153 30 287 132 287c35 0 61 -16 81 -43l13 31h33l-26 -65c23 -54 32 -129 32 -210c0 -153 -31 -287 -133 -287zM81 275c0 -61 4 -121 16 -167l149 375c-15 31 -37 50 -67 50
c-78 0 -98 -123 -98 -258zM179 17c78 0 98 124 98 258c0 60 -4 118 -16 164l-149 -374c15 -30 37 -48 67 -48z" />
    <glyph glyph-name="Oslashacute.smcp" unicode="&#xf694;" horiz-adv-x="359" 
d="M179 -12c-35 0 -61 15 -81 41l-11 -29h-33l25 63c-24 54 -32 130 -32 212c0 153 30 287 132 287c35 0 61 -16 81 -43l13 31h33l-26 -65c23 -54 32 -129 32 -210c0 -153 -31 -287 -133 -287zM81 275c0 -61 4 -121 16 -167l149 375c-15 31 -37 50 -67 50
c-78 0 -98 -123 -98 -258zM179 17c78 0 98 124 98 258c0 60 -4 118 -16 164l-149 -374c15 -30 37 -48 67 -48zM268 750l-95 -144h-24l78 144h41z" />
    <glyph glyph-name="uni1ECC.smcp" horiz-adv-x="359" 
d="M179 -12c-102 0 -132 134 -132 287s30 287 132 287s133 -134 133 -287s-31 -287 -133 -287zM179 17c78 0 98 124 98 258c0 135 -20 258 -98 258s-98 -123 -98 -258c0 -134 20 -258 98 -258zM179 -173c-15 0 -29 13 -29 29s14 29 29 29c16 0 29 -13 29 -29
s-13 -29 -29 -29z" />
    <glyph glyph-name="uni1ECE.smcp" horiz-adv-x="359" 
d="M179 -12c-102 0 -132 134 -132 287s30 287 132 287s133 -134 133 -287s-31 -287 -133 -287zM179 17c78 0 98 124 98 258c0 135 -20 258 -98 258s-98 -123 -98 -258c0 -134 20 -258 98 -258zM151 660l-21 6c5 21 20 42 50 42c29 0 49 -18 49 -57c0 -24 -8 -46 -23 -66h-25
c18 22 25 43 25 66c0 26 -12 35 -26 35c-17 0 -25 -10 -29 -26z" />
    <glyph glyph-name="uni1ED0.smcp" horiz-adv-x="359" 
d="M179 -12c-102 0 -132 134 -132 287s30 287 132 287s133 -134 133 -287s-31 -287 -133 -287zM179 17c78 0 98 124 98 258c0 135 -20 258 -98 258s-98 -123 -98 -258c0 -134 20 -258 98 -258zM269 606h-23l-66 116l-63 -116h-23l68 144h36zM362 821l-95 -144h-24l78 144h41
z" />
    <glyph glyph-name="uni1ED2.smcp" horiz-adv-x="359" 
d="M179 -12c-102 0 -132 134 -132 287s30 287 132 287s133 -134 133 -287s-31 -287 -133 -287zM179 17c78 0 98 124 98 258c0 135 -20 258 -98 258s-98 -123 -98 -258c0 -134 20 -258 98 -258zM118 677h-24l-95 144h41zM269 606h-23l-66 116l-63 -116h-23l68 144h36z" />
    <glyph glyph-name="uni1ED4.smcp" horiz-adv-x="359" 
d="M179 -12c-102 0 -132 134 -132 287s30 287 132 287s133 -134 133 -287s-31 -287 -133 -287zM179 17c78 0 98 124 98 258c0 135 -20 258 -98 258s-98 -123 -98 -258c0 -134 20 -258 98 -258zM270 606h-23l-66 116l-63 -116h-23l68 144h36zM208 792l-21 6c5 21 20 42 50 42
c29 0 49 -18 49 -57c0 -24 -8 -46 -23 -66h-25c18 22 25 43 25 66c0 26 -12 35 -26 35c-17 0 -25 -10 -29 -26z" />
    <glyph glyph-name="uni1ED6.smcp" horiz-adv-x="359" 
d="M179 -12c-102 0 -132 134 -132 287s30 287 132 287s133 -134 133 -287s-31 -287 -133 -287zM179 17c78 0 98 124 98 258c0 135 -20 258 -98 258s-98 -123 -98 -258c0 -134 20 -258 98 -258zM269 573h-23l-66 116l-63 -116h-23l68 144h36zM219 732c-57 0 -41 113 -78 113
c-23 0 -38 -32 -38 -107h-22c0 72 16 134 63 134c57 0 41 -113 78 -113c23 0 38 32 38 107h22c0 -71 -16 -134 -63 -134z" />
    <glyph glyph-name="uni1ED8.smcp" horiz-adv-x="359" 
d="M179 -12c-102 0 -132 134 -132 287s30 287 132 287s133 -134 133 -287s-31 -287 -133 -287zM179 17c78 0 98 124 98 258c0 135 -20 258 -98 258s-98 -123 -98 -258c0 -134 20 -258 98 -258zM181 -173c-15 0 -29 13 -29 29s14 29 29 29c16 0 29 -13 29 -29
s-13 -29 -29 -29zM267 606h-23l-66 116l-63 -116h-23l68 144h36z" />
    <glyph glyph-name="Ohorn.smcp" horiz-adv-x="359" 
d="M179 -12c-102 0 -132 134 -132 287s30 287 132 287c56 0 90 -41 110 -103c22 23 35 52 35 76c0 0 -5 -1 -7 -1c-19 0 -32 15 -32 33c0 17 13 32 32 32c21 0 38 -19 38 -53c0 -48 -27 -94 -57 -118c10 -45 14 -98 14 -153c0 -153 -31 -287 -133 -287zM179 17
c78 0 98 124 98 258c0 135 -20 258 -98 258s-98 -123 -98 -258c0 -134 20 -258 98 -258z" />
    <glyph glyph-name="uni1EDA.smcp" horiz-adv-x="359" 
d="M179 -12c-102 0 -132 134 -132 287s30 287 132 287c56 0 90 -41 110 -103c22 23 35 52 35 76c0 0 -5 -1 -7 -1c-19 0 -32 15 -32 33c0 17 13 32 32 32c21 0 38 -19 38 -53c0 -48 -27 -94 -57 -118c10 -45 14 -98 14 -153c0 -153 -31 -287 -133 -287zM179 17
c78 0 98 124 98 258c0 135 -20 258 -98 258s-98 -123 -98 -258c0 -134 20 -258 98 -258zM268 750l-95 -144h-24l78 144h41z" />
    <glyph glyph-name="uni1EDC.smcp" horiz-adv-x="359" 
d="M179 -12c-102 0 -132 134 -132 287s30 287 132 287c56 0 90 -41 110 -103c22 23 35 52 35 76c0 0 -5 -1 -7 -1c-19 0 -32 15 -32 33c0 17 13 32 32 32c21 0 38 -19 38 -53c0 -48 -27 -94 -57 -118c10 -45 14 -98 14 -153c0 -153 -31 -287 -133 -287zM179 17
c78 0 98 124 98 258c0 135 -20 258 -98 258s-98 -123 -98 -258c0 -134 20 -258 98 -258zM209 606h-24l-95 144h41z" />
    <glyph glyph-name="uni1EDE.smcp" horiz-adv-x="359" 
d="M179 -12c-102 0 -132 134 -132 287s30 287 132 287c56 0 90 -41 110 -103c22 23 35 52 35 76c0 0 -5 -1 -7 -1c-19 0 -32 15 -32 33c0 17 13 32 32 32c21 0 38 -19 38 -53c0 -48 -27 -94 -57 -118c10 -45 14 -98 14 -153c0 -153 -31 -287 -133 -287zM179 17
c78 0 98 124 98 258c0 135 -20 258 -98 258s-98 -123 -98 -258c0 -134 20 -258 98 -258zM151 660l-21 6c5 21 20 42 50 42c29 0 49 -18 49 -57c0 -24 -8 -46 -23 -66h-25c18 22 25 43 25 66c0 26 -12 35 -26 35c-17 0 -25 -10 -29 -26z" />
    <glyph glyph-name="uni1EE0.smcp" horiz-adv-x="359" 
d="M179 -12c-102 0 -132 134 -132 287s30 287 132 287c56 0 90 -41 110 -103c22 23 35 52 35 76c0 0 -5 -1 -7 -1c-19 0 -32 15 -32 33c0 17 13 32 32 32c21 0 38 -19 38 -53c0 -48 -27 -94 -57 -118c10 -45 14 -98 14 -153c0 -153 -31 -287 -133 -287zM179 17
c78 0 98 124 98 258c0 135 -20 258 -98 258s-98 -123 -98 -258c0 -134 20 -258 98 -258zM216 604c-57 0 -41 113 -78 113c-23 0 -38 -32 -38 -107h-22c0 72 16 134 63 134c57 0 41 -113 78 -113c23 0 38 32 38 107h22c0 -71 -16 -134 -63 -134z" />
    <glyph glyph-name="uni1EE2.smcp" horiz-adv-x="359" 
d="M179 -12c-102 0 -132 134 -132 287s30 287 132 287c56 0 90 -41 110 -103c22 23 35 52 35 76c0 0 -5 -1 -7 -1c-19 0 -32 15 -32 33c0 17 13 32 32 32c21 0 38 -19 38 -53c0 -48 -27 -94 -57 -118c10 -45 14 -98 14 -153c0 -153 -31 -287 -133 -287zM179 17
c78 0 98 124 98 258c0 135 -20 258 -98 258s-98 -123 -98 -258c0 -134 20 -258 98 -258zM179 -173c-15 0 -29 13 -29 29s14 29 29 29c16 0 29 -13 29 -29s-13 -29 -29 -29z" />
    <glyph glyph-name="OE.smcp" unicode="&#xf6fa;" horiz-adv-x="495" 
d="M452 0h-185v64c-24 -65 -62 -76 -88 -76c-102 0 -132 134 -132 287s30 287 132 287c27 0 64 -12 88 -76v64h185v-29h-153v-223h147v-29h-147v-240h153v-29zM267 143v265c-13 74 -38 125 -88 125c-79 0 -98 -123 -98 -258s19 -258 98 -258c50 0 75 52 88 126z" />
    <glyph glyph-name="uni1E56.smcp" horiz-adv-x="287" 
d="M97 0h-32v550h77c82 0 118 -73 118 -157c0 -85 -36 -158 -118 -158h-45v-235zM141 264c59 0 85 55 85 129c0 73 -27 128 -85 128h-44v-257h44zM160 616c-15 0 -29 13 -29 29s14 29 29 29c16 0 29 -13 29 -29s-13 -29 -29 -29z" />
    <glyph glyph-name="Racute.smcp" unicode="&#xf695;" horiz-adv-x="306" 
d="M267 0h-37l-83 235h-50v-235h-32v550h77c77 0 118 -67 118 -157s-41 -141 -83 -153zM141 264c59 0 85 55 85 129c0 73 -27 128 -85 128h-44v-257h44zM251 750l-95 -144h-24l78 144h41z" />
    <glyph glyph-name="Rcaron.smcp" unicode="&#xf696;" horiz-adv-x="306" 
d="M267 0h-37l-83 235h-50v-235h-32v550h77c77 0 118 -67 118 -157s-41 -141 -83 -153zM141 264c59 0 85 55 85 129c0 73 -27 128 -85 128h-44v-257h44zM173 606h-36l-71 144h23l66 -116l63 116h23z" />
    <glyph glyph-name="Rcommaaccent.smcp" unicode="&#xf697;" horiz-adv-x="306" 
d="M267 0h-37l-83 235h-50v-235h-32v550h77c77 0 118 -67 118 -157s-41 -141 -83 -153zM141 264c59 0 85 55 85 129c0 73 -27 128 -85 128h-44v-257h44zM197 -137c0 -50 -30 -98 -62 -121l-22 18c32 24 53 62 53 92c0 0 -5 -1 -7 -1c-19 0 -32 15 -32 33c0 17 13 32 32 32
c21 0 38 -19 38 -53z" />
    <glyph glyph-name="Sacute.smcp" unicode="&#xf698;" horiz-adv-x="270" 
d="M128 -12c-43 0 -73 14 -107 53l24 22c24 -31 52 -46 83 -46c40 0 78 38 78 104c0 149 -166 165 -166 319c0 76 49 122 104 122c37 0 60 -10 87 -38l-21 -24c-21 23 -41 33 -66 33c-38 0 -71 -35 -71 -93c0 -129 167 -159 167 -319c0 -76 -46 -133 -112 -133zM226 750
l-95 -144h-24l78 144h41z" />
    <glyph glyph-name="Scaron.smcp" unicode="&#xf6fd;" horiz-adv-x="270" 
d="M128 -12c-43 0 -73 14 -107 53l24 22c24 -31 52 -46 83 -46c40 0 78 38 78 104c0 149 -166 165 -166 319c0 76 49 122 104 122c37 0 60 -10 87 -38l-21 -24c-21 23 -41 33 -66 33c-38 0 -71 -35 -71 -93c0 -129 167 -159 167 -319c0 -76 -46 -133 -112 -133zM157 606h-36
l-71 144h23l66 -116l63 116h23z" />
    <glyph glyph-name="Scircumflex.smcp" unicode="&#xf69a;" horiz-adv-x="270" 
d="M128 -12c-43 0 -73 14 -107 53l24 22c24 -31 52 -46 83 -46c40 0 78 38 78 104c0 149 -166 165 -166 319c0 76 49 122 104 122c37 0 60 -10 87 -38l-21 -24c-21 23 -41 33 -66 33c-38 0 -71 -35 -71 -93c0 -129 167 -159 167 -319c0 -76 -46 -133 -112 -133zM225 606h-23
l-66 116l-63 -116h-23l68 144h36z" />
    <glyph glyph-name="Scedilla.smcp" unicode="&#xf699;" horiz-adv-x="270" 
d="M125 -187c-30 0 -51 12 -70 28l13 26c20 -19 34 -27 57 -27c27 0 52 19 52 49c0 25 -13 40 -33 40c-14 0 -22 -6 -31 -15l-21 12l22 63c-36 3 -63 17 -93 52l24 22c24 -31 52 -46 83 -46c40 0 78 38 78 104c0 149 -166 165 -166 319c0 76 49 122 104 122
c37 0 60 -10 87 -38l-21 -24c-21 23 -41 33 -66 33c-38 0 -71 -35 -71 -93c0 -129 167 -159 167 -319c0 -70 -39 -123 -96 -132l-18 -48c8 7 17 10 29 10c27 0 51 -24 51 -62c0 -43 -36 -76 -81 -76z" />
    <glyph glyph-name="Scommaaccent.smcp" unicode="&#xf69b;" horiz-adv-x="270" 
d="M128 -12c-43 0 -73 14 -107 53l24 22c24 -31 52 -46 83 -46c40 0 78 38 78 104c0 149 -166 165 -166 319c0 76 49 122 104 122c37 0 60 -10 87 -38l-21 -24c-21 23 -41 33 -66 33c-38 0 -71 -35 -71 -93c0 -129 167 -159 167 -319c0 -76 -46 -133 -112 -133zM172 -137
c0 -50 -30 -98 -62 -121l-22 18c32 24 53 62 53 92c0 0 -5 -1 -7 -1c-19 0 -32 15 -32 33c0 17 13 32 32 32c21 0 38 -19 38 -53z" />
    <glyph glyph-name="uni1E60.smcp" horiz-adv-x="270" 
d="M128 -12c-43 0 -73 14 -107 53l24 22c24 -31 52 -46 83 -46c40 0 78 38 78 104c0 149 -166 165 -166 319c0 76 49 122 104 122c37 0 60 -10 87 -38l-21 -24c-21 23 -41 33 -66 33c-38 0 -71 -35 -71 -93c0 -129 167 -159 167 -319c0 -76 -46 -133 -112 -133zM139 616
c-15 0 -29 13 -29 29s14 29 29 29c16 0 29 -13 29 -29s-13 -29 -29 -29z" />
    <glyph glyph-name="Tbar.smcp" unicode="&#xf69c;" horiz-adv-x="239" 
d="M135 0h-32v271h-56v27h56v223h-88v29h209v-29h-89v-223h56v-27h-56v-271z" />
    <glyph glyph-name="Tcaron.smcp" unicode="&#xf69d;" horiz-adv-x="239" 
d="M135 0h-32v521h-88v29h209v-29h-89v-521zM140 606h-36l-71 144h23l66 -116l63 116h23z" />
    <glyph glyph-name="Tcommaaccent.smcp" unicode="&#xf69e;" horiz-adv-x="239" 
d="M135 0h-32v521h-88v29h209v-29h-89v-521zM158 -137c0 -50 -30 -98 -62 -121l-22 18c32 24 53 62 53 92c0 0 -5 -1 -7 -1c-19 0 -32 15 -32 33c0 17 13 32 32 32c21 0 38 -19 38 -53z" />
    <glyph glyph-name="uni021A.smcp" horiz-adv-x="239" 
d="M135 0h-32v521h-88v29h209v-29h-89v-521zM158 -137c0 -50 -30 -98 -62 -121l-22 18c32 24 53 62 53 92c0 0 -5 -1 -7 -1c-19 0 -32 15 -32 33c0 17 13 32 32 32c21 0 38 -19 38 -53z" />
    <glyph glyph-name="uni1E6A.smcp" horiz-adv-x="239" 
d="M135 0h-32v521h-88v29h209v-29h-89v-521zM119 616c-15 0 -29 13 -29 29s14 29 29 29c16 0 29 -13 29 -29s-13 -29 -29 -29z" />
    <glyph glyph-name="Uacute.smcp" unicode="&#xf7fa;" horiz-adv-x="351" 
d="M176 -12c-81 0 -111 56 -111 148v414h32v-414c0 -80 24 -119 79 -119c53 0 78 40 78 119v414h32v-414c0 -93 -31 -148 -110 -148zM266 750l-95 -144h-24l78 144h41z" />
    <glyph glyph-name="Ubreve.smcp" unicode="&#xf69f;" horiz-adv-x="351" 
d="M176 -12c-81 0 -111 56 -111 148v414h32v-414c0 -80 24 -119 79 -119c53 0 78 40 78 119v414h32v-414c0 -93 -31 -148 -110 -148zM292 667c-26 -36 -68 -58 -115 -58s-89 22 -115 58l22 18c19 -30 58 -49 93 -49s74 19 93 49z" />
    <glyph glyph-name="Ucircumflex.smcp" unicode="&#xf7fb;" horiz-adv-x="351" 
d="M176 -12c-81 0 -111 56 -111 148v414h32v-414c0 -80 24 -119 79 -119c53 0 78 40 78 119v414h32v-414c0 -93 -31 -148 -110 -148zM263 606h-23l-66 116l-63 -116h-23l68 144h36z" />
    <glyph glyph-name="Udieresis.smcp" unicode="&#xf7fc;" horiz-adv-x="351" 
d="M176 -12c-81 0 -111 56 -111 148v414h32v-414c0 -80 24 -119 79 -119c53 0 78 40 78 119v414h32v-414c0 -93 -31 -148 -110 -148zM264 648c0 -15 -13 -28 -28 -28s-28 13 -28 28s13 28 28 28s28 -13 28 -28zM142 648c0 -15 -13 -28 -28 -28s-28 13 -28 28s13 28 28 28
s28 -13 28 -28z" />
    <glyph glyph-name="Ugrave.smcp" unicode="&#xf7f9;" horiz-adv-x="351" 
d="M176 -12c-81 0 -111 56 -111 148v414h32v-414c0 -80 24 -119 79 -119c53 0 78 40 78 119v414h32v-414c0 -93 -31 -148 -110 -148zM206 606h-24l-95 144h41z" />
    <glyph glyph-name="Uhungarumlaut.smcp" unicode="&#xf6a0;" horiz-adv-x="351" 
d="M176 -12c-81 0 -111 56 -111 148v414h32v-414c0 -80 24 -119 79 -119c53 0 78 40 78 119v414h32v-414c0 -93 -31 -148 -110 -148zM199 750l-75 -144h-20l58 144h37zM305 750l-75 -144h-20l58 144h37z" />
    <glyph glyph-name="Umacron.smcp" unicode="&#xf6a1;" horiz-adv-x="351" 
d="M176 -12c-81 0 -111 56 -111 148v414h32v-414c0 -80 24 -119 79 -119c53 0 78 40 78 119v414h32v-414c0 -93 -31 -148 -110 -148zM295 631h-240v27h240v-27z" />
    <glyph glyph-name="Uogonek.smcp" unicode="&#xf6a2;" horiz-adv-x="351" 
d="M228 -122l25 -11c-7 -27 -25 -53 -63 -53c-36 0 -61 23 -61 71c0 41 18 76 44 103c-79 2 -108 57 -108 148v414h32v-414c0 -80 24 -119 79 -119c53 0 78 40 78 119v414h32v-414c0 -68 -17 -115 -56 -136c-40 -27 -72 -61 -72 -115c0 -32 14 -44 32 -44c21 0 33 14 38 37z
" />
    <glyph glyph-name="Uring.smcp" unicode="&#xf6a3;" horiz-adv-x="351" 
d="M176 -12c-81 0 -111 56 -111 148v414h32v-414c0 -80 24 -119 79 -119c53 0 78 40 78 119v414h32v-414c0 -93 -31 -148 -110 -148zM178 575c-43 0 -78 35 -78 78s35 78 78 78s77 -35 77 -78s-34 -78 -77 -78zM178 599c30 0 54 24 54 54s-24 54 -54 54s-54 -24 -54 -54
s24 -54 54 -54z" />
    <glyph glyph-name="Utilde.smcp" unicode="&#xf6a4;" horiz-adv-x="351" 
d="M176 -12c-81 0 -111 56 -111 148v414h32v-414c0 -80 24 -119 79 -119c53 0 78 40 78 119v414h32v-414c0 -93 -31 -148 -110 -148zM212 604c-57 0 -41 113 -78 113c-23 0 -38 -32 -38 -107h-22c0 72 16 134 63 134c57 0 41 -113 78 -113c23 0 38 32 38 107h22
c0 -71 -16 -134 -63 -134z" />
    <glyph glyph-name="uni1EE4.smcp" horiz-adv-x="351" 
d="M176 -12c-81 0 -111 56 -111 148v414h32v-414c0 -80 24 -119 79 -119c53 0 78 40 78 119v414h32v-414c0 -93 -31 -148 -110 -148zM175 -173c-15 0 -29 13 -29 29s14 29 29 29c16 0 29 -13 29 -29s-13 -29 -29 -29z" />
    <glyph glyph-name="Uhorn.smcp" horiz-adv-x="351" 
d="M176 -12c-98 0 -111 68 -111 224v338h32v-406c0 -88 24 -127 79 -127c53 0 78 40 78 127v406h32v-45c35 24 59 69 59 97c0 0 -5 -1 -7 -1c-19 0 -32 15 -32 33c0 17 13 32 32 32c21 0 38 -19 38 -53c0 -52 -32 -107 -90 -142v-259c0 -157 -14 -224 -110 -224z" />
    <glyph glyph-name="uni1EE6.smcp" horiz-adv-x="351" 
d="M176 -12c-81 0 -111 56 -111 148v414h32v-414c0 -80 24 -119 79 -119c53 0 78 40 78 119v414h32v-414c0 -93 -31 -148 -110 -148zM151 655l-21 6c5 21 20 42 50 42c29 0 49 -18 49 -57c0 -24 -8 -46 -23 -66h-25c18 22 25 43 25 66c0 26 -12 35 -26 35
c-17 0 -25 -10 -29 -26z" />
    <glyph glyph-name="uni1EE8.smcp" horiz-adv-x="351" 
d="M176 -12c-98 0 -111 68 -111 224v338h32v-406c0 -88 24 -127 79 -127c53 0 78 40 78 127v406h32v-45c35 24 59 69 59 97c0 0 -5 -1 -7 -1c-19 0 -32 15 -32 33c0 17 13 32 32 32c21 0 38 -19 38 -53c0 -52 -32 -107 -90 -142v-259c0 -157 -14 -224 -110 -224zM266 750
l-95 -144h-24l78 144h41z" />
    <glyph glyph-name="uni1EEA.smcp" horiz-adv-x="351" 
d="M176 -12c-98 0 -111 68 -111 224v338h32v-406c0 -88 24 -127 79 -127c53 0 78 40 78 127v406h32v-45c35 24 59 69 59 97c0 0 -5 -1 -7 -1c-19 0 -32 15 -32 33c0 17 13 32 32 32c21 0 38 -19 38 -53c0 -52 -32 -107 -90 -142v-259c0 -157 -14 -224 -110 -224zM206 606
h-24l-95 144h41z" />
    <glyph glyph-name="uni1EEC.smcp" horiz-adv-x="351" 
d="M176 -12c-98 0 -111 68 -111 224v338h32v-406c0 -88 24 -127 79 -127c53 0 78 40 78 127v406h32v-45c35 24 59 69 59 97c0 0 -5 -1 -7 -1c-19 0 -32 15 -32 33c0 17 13 32 32 32c21 0 38 -19 38 -53c0 -52 -32 -107 -90 -142v-259c0 -157 -14 -224 -110 -224zM148 660
l-21 6c5 21 20 42 50 42c29 0 49 -18 49 -57c0 -24 -8 -46 -23 -66h-25c18 22 25 43 25 66c0 26 -12 35 -26 35c-17 0 -25 -10 -29 -26z" />
    <glyph glyph-name="uni1EEE.smcp" horiz-adv-x="351" 
d="M176 -12c-98 0 -111 68 -111 224v338h32v-406c0 -88 24 -127 79 -127c53 0 78 40 78 127v406h32v-45c35 24 59 69 59 97c0 0 -5 -1 -7 -1c-19 0 -32 15 -32 33c0 17 13 32 32 32c21 0 38 -19 38 -53c0 -52 -32 -107 -90 -142v-259c0 -157 -14 -224 -110 -224zM214 604
c-57 0 -41 113 -78 113c-23 0 -38 -32 -38 -107h-22c0 72 16 134 63 134c57 0 41 -113 78 -113c23 0 38 32 38 107h22c0 -71 -16 -134 -63 -134z" />
    <glyph glyph-name="uni1EF0.smcp" horiz-adv-x="351" 
d="M176 -12c-98 0 -111 68 -111 224v338h32v-406c0 -88 24 -127 79 -127c53 0 78 40 78 127v406h32v-45c35 24 59 69 59 97c0 0 -5 -1 -7 -1c-19 0 -32 15 -32 33c0 17 13 32 32 32c21 0 38 -19 38 -53c0 -52 -32 -107 -90 -142v-259c0 -157 -14 -224 -110 -224zM175 -173
c-15 0 -29 13 -29 29s14 29 29 29c16 0 29 -13 29 -29s-13 -29 -29 -29z" />
    <glyph glyph-name="Wacute.smcp" horiz-adv-x="428" 
d="M326 0h-36l-76 475l-76 -475h-36l-92 550h34l76 -483l78 483h32l78 -483l76 483h34zM303 750l-95 -144h-24l78 144h41z" />
    <glyph glyph-name="Wcircumflex.smcp" unicode="&#xf6a6;" horiz-adv-x="428" 
d="M301 606h-23l-66 116l-63 -116h-23l68 144h36zM326 0h-36l-76 475l-76 -475h-36l-92 550h34l76 -483l78 483h32l78 -483l76 483h34z" />
    <glyph glyph-name="Wdieresis.smcp" horiz-adv-x="428" 
d="M326 0h-36l-76 475l-76 -475h-36l-92 550h34l76 -483l78 483h32l78 -483l76 483h34zM303 648c0 -15 -13 -28 -28 -28s-28 13 -28 28s13 28 28 28s28 -13 28 -28zM181 648c0 -15 -13 -28 -28 -28s-28 13 -28 28s13 28 28 28s28 -13 28 -28z" />
    <glyph glyph-name="Wgrave.smcp" horiz-adv-x="428" 
d="M326 0h-36l-76 475l-76 -475h-36l-92 550h34l76 -483l78 483h32l78 -483l76 483h34zM244 606h-24l-95 144h41z" />
    <glyph glyph-name="Yacute.smcp" unicode="&#xf7fd;" horiz-adv-x="284" 
d="M158 0h-32v238l-124 312h35l105 -274l106 274h34l-124 -312v-238zM231 750l-95 -144h-24l78 144h41z" />
    <glyph glyph-name="Ycircumflex.smcp" unicode="&#xf6a9;" horiz-adv-x="284" 
d="M158 0h-32v238l-124 312h35l105 -274l106 274h34l-124 -312v-238zM230 606h-23l-66 116l-63 -116h-23l68 144h36z" />
    <glyph glyph-name="Ydieresis.smcp" unicode="&#xf7ff;" horiz-adv-x="284" 
d="M158 0h-32v238l-124 312h35l105 -274l106 274h34l-124 -312v-238zM231 648c0 -15 -13 -28 -28 -28s-28 13 -28 28s13 28 28 28s28 -13 28 -28zM109 648c0 -15 -13 -28 -28 -28s-28 13 -28 28s13 28 28 28s28 -13 28 -28z" />
    <glyph glyph-name="Ygrave.smcp" horiz-adv-x="284" 
d="M158 0h-32v238l-124 312h35l105 -274l106 274h34l-124 -312v-238zM172 606h-24l-95 144h41z" />
    <glyph glyph-name="Zacute.smcp" unicode="&#xf6ab;" horiz-adv-x="266" 
d="M237 0h-208v28l169 493h-169v29h202v-28l-169 -493h175v-29zM222 750l-95 -144h-24l78 144h41z" />
    <glyph glyph-name="Zcaron.smcp" unicode="&#xf6ff;" horiz-adv-x="266" 
d="M237 0h-208v28l169 493h-169v29h202v-28l-169 -493h175v-29zM150 606h-36l-71 144h23l66 -116l63 116h23z" />
    <glyph glyph-name="Zdotaccent.smcp" unicode="&#xf6ac;" horiz-adv-x="266" 
d="M237 0h-208v28l169 493h-169v29h202v-28l-169 -493h175v-29zM130 616c-15 0 -29 13 -29 29s14 29 29 29c16 0 29 -13 29 -29s-13 -29 -29 -29z" />
    <glyph glyph-name="Eth.smcp" unicode="&#xf7f0;" horiz-adv-x="388" 
d="M182 0h-88v268h-68v27h68v255h88c104 0 152 -115 152 -276s-48 -274 -152 -274zM206 268h-80v-239h56c84 0 118 108 118 245c0 136 -34 247 -118 247h-56v-226h80v-27z" />
    <glyph glyph-name="Thorn.smcp" unicode="&#xf7fe;" horiz-adv-x="287" 
d="M97 0h-32v550h32v-102h45c82 0 118 -73 118 -157c0 -85 -36 -158 -118 -158h-45v-133zM141 162c59 0 85 55 85 129c0 73 -26 128 -85 128h-44v-257h44z" />
    <glyph glyph-name="acute" unicode="&#xb4;" horiz-adv-x="119" 
d="M119 700l-95 -144h-24l78 144h41z" />
    <glyph glyph-name="dieresis" unicode="&#xa8;" horiz-adv-x="252" 
d="M215 598c0 -15 -13 -28 -28 -28s-28 13 -28 28s13 28 28 28s28 -13 28 -28zM93 598c0 -15 -13 -28 -28 -28s-28 13 -28 28s13 28 28 28s28 -13 28 -28z" />
    <glyph glyph-name="grave" unicode="`" horiz-adv-x="119" 
d="M119 556h-24l-95 144h41z" />
    <glyph glyph-name="uni02CB" unicode="&#x2cb;" horiz-adv-x="119" 
d="M119 556h-24l-95 144h41z" />
    <glyph glyph-name="circumflex" unicode="&#x2c6;" horiz-adv-x="175" 
d="M175 556h-23l-66 116l-63 -116h-23l68 144h36z" />
    <glyph glyph-name="tilde" unicode="&#x2dc;" horiz-adv-x="201" 
d="M138 554c-57 0 -41 113 -78 113c-23 0 -38 -32 -38 -107h-22c0 72 16 134 63 134c57 0 41 -113 78 -113c23 0 38 32 38 107h22c0 -71 -16 -134 -63 -134z" />
    <glyph glyph-name="macron" unicode="&#xaf;" horiz-adv-x="240" 
d="M240 581h-240v27h240v-27z" />
    <glyph glyph-name="uni203E" unicode="&#x203e;" horiz-adv-x="240" 
d="M240 581h-240v27h240v-27z" />
    <glyph glyph-name="breve" unicode="&#x2d8;" horiz-adv-x="230" 
d="M230 617c-26 -36 -68 -58 -115 -58s-89 22 -115 58l22 18c19 -30 58 -49 93 -49s74 19 93 49z" />
    <glyph glyph-name="dotaccent" unicode="&#x2d9;" horiz-adv-x="58" 
d="M29 566c-15 0 -29 13 -29 29s14 29 29 29c16 0 29 -13 29 -29s-13 -29 -29 -29z" />
    <glyph glyph-name="ring" unicode="&#x2da;" horiz-adv-x="155" 
d="M78 553c-43 0 -78 35 -78 78s35 78 78 78s77 -35 77 -78s-34 -78 -77 -78zM78 577c30 0 54 24 54 54s-24 54 -54 54s-54 -24 -54 -54s24 -54 54 -54z" />
    <glyph glyph-name="cedilla" unicode="&#xb8;" horiz-adv-x="151" 
d="M70 -187c-30 0 -51 12 -70 28l13 26c20 -19 34 -27 57 -27c27 0 52 19 52 49c0 25 -13 40 -33 40c-14 0 -22 -6 -31 -15l-21 12l31 85h30l-27 -70c8 7 17 10 29 10c27 0 51 -24 51 -62c0 -43 -36 -76 -81 -76z" />
    <glyph glyph-name="hungarumlaut" unicode="&#x2dd;" horiz-adv-x="201" 
d="M95 700l-75 -144h-20l58 144h37zM201 700l-75 -144h-20l58 144h37z" />
    <glyph glyph-name="ogonek" unicode="&#x2db;" horiz-adv-x="124" 
d="M99 -122l25 -11c-7 -27 -25 -53 -63 -53c-36 0 -61 23 -61 71c0 57 38 104 78 132l23 -17c-40 -27 -72 -61 -72 -115c0 -32 14 -44 32 -44c21 0 33 14 38 37z" />
    <glyph glyph-name="caron" unicode="&#x2c7;" horiz-adv-x="175" 
d="M107 556h-36l-71 144h23l66 -116l63 116h23z" />
    <glyph glyph-name="commaaccent" unicode="&#xf6c3;" horiz-adv-x="208" 
d="M141 -137c0 -50 -30 -98 -62 -121l-22 18c32 24 53 62 53 92c0 0 -5 -1 -7 -1c-19 0 -32 15 -32 33c0 17 13 32 32 32c21 0 38 -19 38 -53z" />
    <glyph glyph-name="uni02C9" unicode="&#x2c9;" horiz-adv-x="240" 
d="M240 591h-240v27h240v-27z" />
    <glyph glyph-name="hookabovecomb" unicode="&#x309;" horiz-adv-x="124" 
d="M34 742l-21 6c5 21 20 42 50 42c29 0 49 -18 49 -57c0 -24 -8 -46 -23 -66h-25c18 22 25 43 25 66c0 26 -12 35 -26 35c-17 0 -25 -10 -29 -26z" />
    <glyph glyph-name="Alpha" unicode="&#x391;" horiz-adv-x="312" 
d="M300 0h-33l-32 179h-158l-32 -179h-33l125 667h38zM230 209l-74 411l-74 -411h148z" />
    <glyph glyph-name="Beta" unicode="&#x392;" horiz-adv-x="360" 
d="M172 0h-100v667h96c78 0 130 -60 130 -170c0 -84 -28 -132 -78 -153c53 -9 87 -87 87 -164c0 -114 -44 -180 -135 -180zM168 358c73 0 95 62 95 139c0 76 -22 140 -95 140h-64v-279h64zM172 30c74 0 100 58 100 149c0 76 -26 149 -100 149h-68v-298h68z" />
    <glyph glyph-name="Gamma" unicode="&#x393;" horiz-adv-x="330" 
d="M104 0h-32v667h210v-30h-178v-637z" />
    <glyph glyph-name="uni0394" unicode="&#x394;" horiz-adv-x="352" 
d="M340 0h-328l145 667h38zM301 30l-125 590l-125 -590h250z" />
    <glyph glyph-name="Delta" unicode="&#x2206;" horiz-adv-x="352" 
d="M340 0h-328l145 667h38zM301 30l-125 590l-125 -590h250z" />
    <glyph glyph-name="Epsilon" unicode="&#x395;" horiz-adv-x="330" 
d="M282 0h-210v667h210v-30h-178v-279h171v-30h-171v-298h178v-30z" />
    <glyph glyph-name="Zeta" unicode="&#x396;" horiz-adv-x="309" 
d="M273 0h-237v31l197 606h-197v30h230v-30l-198 -607h205v-30z" />
    <glyph glyph-name="Eta" unicode="&#x397;" horiz-adv-x="395" 
d="M323 0h-32v328h-187v-328h-32v667h32v-309h187v309h32v-667z" />
    <glyph glyph-name="Theta" unicode="&#x398;" horiz-adv-x="396" 
d="M278 328h-160v30h160v-30zM198 -12c-110 0 -145 160 -145 345s35 345 145 345s145 -160 145 -345s-35 -345 -145 -345zM198 18c82 0 110 150 110 315c0 167 -28 315 -110 315s-110 -148 -110 -315c0 -165 28 -315 110 -315z" />
    <glyph glyph-name="Iota" unicode="&#x399;" horiz-adv-x="176" 
d="M104 0h-32v667h32v-667z" />
    <glyph glyph-name="Kappa" unicode="&#x39a;" horiz-adv-x="372" 
d="M354 0h-39l-164 319l-47 -88v-231h-32v667h32v-380l198 380h39l-174 -319z" />
    <glyph glyph-name="Lambda" unicode="&#x39b;" horiz-adv-x="312" 
d="M300 0h-33l-111 620l-111 -620h-33l125 667h38z" />
    <glyph glyph-name="Mu" unicode="&#x39c;" horiz-adv-x="508" 
d="M436 0h-32v609l-141 -609h-18l-141 609v-609h-32v667h52l130 -557l131 557h51v-667z" />
    <glyph glyph-name="Nu" unicode="&#x39d;" horiz-adv-x="395" 
d="M323 0h-32l-187 575v-575h-32v667h32l187 -569v569h32v-667z" />
    <glyph glyph-name="Xi" unicode="&#x39e;" horiz-adv-x="348" 
d="M300 637h-251v30h251v-30zM299 0h-251v30h251v-30zM293 328h-237v30h237v-30z" />
    <glyph glyph-name="Omicron" unicode="&#x39f;" horiz-adv-x="396" 
d="M198 -12c-110 0 -145 160 -145 345s35 345 145 345s145 -160 145 -345s-35 -345 -145 -345zM198 18c82 0 110 150 110 315c0 167 -28 315 -110 315s-110 -148 -110 -315c0 -165 28 -315 110 -315z" />
    <glyph glyph-name="Pi" unicode="&#x3a0;" horiz-adv-x="395" 
d="M323 0h-32v637h-187v-637h-32v667h251v-667z" />
    <glyph glyph-name="Rho" unicode="&#x3a1;" horiz-adv-x="341" 
d="M104 0h-32v667h100c94 0 135 -87 135 -189s-41 -189 -135 -189h-68v-289zM171 319c70 0 101 67 101 159s-31 159 -101 159h-67v-318h67z" />
    <glyph glyph-name="Sigma" unicode="&#x3a3;" horiz-adv-x="294" 
d="M81 637l118 -292l-119 -315h178v-30h-210v31l118 313l-118 293v30h210v-30h-177z" />
    <glyph glyph-name="Tau" unicode="&#x3a4;" horiz-adv-x="287" 
d="M159 0h-32v637h-109v30h251v-30h-110v-637z" />
    <glyph glyph-name="Upsilon" unicode="&#x3a5;" horiz-adv-x="322" 
d="M177 0h-32v289l-143 378h36l123 -339l125 339h34l-143 -378v-289z" />
    <glyph glyph-name="Phi" unicode="&#x3a6;" horiz-adv-x="524" 
d="M278 0h-32v64c-146 9 -193 137 -193 269s47 260 193 268v66h32v-66c145 -8 193 -136 193 -268s-48 -260 -193 -269v-64zM88 333c0 -120 40 -230 158 -239v477c-118 -9 -158 -117 -158 -238zM436 333c0 121 -42 229 -158 238v-477c116 9 158 119 158 239z" />
    <glyph glyph-name="Chi" unicode="&#x3a7;" horiz-adv-x="308" 
d="M300 0h-36l-110 302l-110 -302h-36l128 338l-121 329h37l102 -291l102 291h37l-121 -328z" />
    <glyph glyph-name="Psi" unicode="&#x3a8;" horiz-adv-x="518" 
d="M275 0h-32v124c-107 6 -171 70 -171 209v334h32v-334c0 -125 56 -173 139 -179v513h32v-513c83 6 139 54 139 179v334h32v-334c0 -139 -64 -203 -171 -209v-124z" />
    <glyph glyph-name="uni03A9" unicode="&#x3a9;" horiz-adv-x="376" 
d="M52 30h70c-30 37 -79 131 -79 303c0 212 45 345 145 345s145 -133 145 -345c0 -172 -49 -266 -79 -303h70v-30h-100v30c27 25 74 104 74 303s-36 314 -110 314s-110 -115 -110 -314s47 -278 74 -303v-30h-100v30z" />
    <glyph glyph-name="Omega" unicode="&#x2126;" horiz-adv-x="376" 
d="M52 30h70c-30 37 -79 131 -79 303c0 212 45 345 145 345s145 -133 145 -345c0 -172 -49 -266 -79 -303h70v-30h-100v30c27 25 74 104 74 303s-36 314 -110 314s-110 -115 -110 -314s47 -278 74 -303v-30h-100v30z" />
    <glyph glyph-name="alpha" unicode="&#x3b1;" horiz-adv-x="358" 
d="M334 16l3 -26c-4 -1 -11 -2 -17 -2c-44 0 -63 28 -64 82c-20 -50 -56 -82 -88 -82c-88 0 -121 111 -121 253c0 141 33 254 121 254c32 0 68 -27 88 -84v72h30v-407c0 -41 7 -61 33 -61c4 0 9 0 15 1zM168 15c38 0 76 49 88 100v251c-12 51 -50 102 -88 102
c-70 0 -88 -111 -88 -227s18 -226 88 -226z" />
    <glyph glyph-name="beta" unicode="&#x3b2;" horiz-adv-x="351" 
d="M95 461v-346c12 -51 50 -100 93 -100c57 0 83 76 83 153c0 113 -48 163 -99 163h-19v27h19c52 0 88 49 88 145c0 99 -29 147 -73 147c-50 0 -92 -40 -92 -189zM95 70v-254h-30v645c0 170 57 216 122 216c63 0 106 -51 106 -174c0 -69 -23 -137 -79 -158
c47 -12 90 -79 90 -177c0 -111 -45 -180 -116 -180c-37 0 -73 32 -93 82z" />
    <glyph glyph-name="gamma" unicode="&#x3b3;" horiz-adv-x="279" 
d="M154 -184h-30v170c0 193 -44 361 -118 497h35c62 -127 104 -264 108 -427c46 112 74 281 74 427h30c0 -160 -36 -334 -99 -481v-186z" />
    <glyph glyph-name="delta" unicode="&#x3b4;" horiz-adv-x="352" 
d="M176 -12c-97 0 -129 107 -129 209c0 112 51 186 103 236c-40 38 -74 77 -74 141c0 62 48 105 105 105c38 0 69 -17 93 -51l-20 -20c-21 33 -46 44 -73 44c-46 0 -75 -35 -75 -78c0 -135 199 -145 199 -376c0 -103 -31 -210 -129 -210zM275 197c0 111 -53 167 -104 215
c-49 -43 -91 -110 -91 -214c0 -79 19 -183 96 -183c78 0 99 104 99 182z" />
    <glyph glyph-name="epsilon" unicode="&#x3b5;" horiz-adv-x="327" 
d="M176 -12c-91 0 -129 66 -129 139c0 66 41 109 88 118c-55 15 -83 71 -83 122c0 76 56 128 129 128c58 0 94 -30 115 -81l-29 -14c-17 47 -44 68 -86 68c-56 0 -96 -37 -96 -101c0 -68 40 -108 91 -108h64v-27h-64c-39 0 -96 -14 -96 -104c0 -66 37 -113 96 -113
c47 0 77 28 96 68l28 -14c-21 -45 -63 -81 -124 -81z" />
    <glyph glyph-name="zeta" unicode="&#x3b6;" horiz-adv-x="294" 
d="M226 -49c0 28 -11 37 -39 37c-98 0 -140 101 -140 191c0 170 49 316 181 461h-173v27h204v-27c-134 -156 -179 -300 -179 -461c0 -62 23 -164 106 -164c48 0 73 -19 73 -64c0 -27 -15 -67 -42 -108h-38c25 35 47 78 47 108z" />
    <glyph glyph-name="eta" unicode="&#x3b7;" 
d="M277 -184h-30v578c0 51 -19 74 -53 74c-43 0 -81 -46 -99 -94v-374h-30v483h30v-72c22 46 60 84 103 84c55 0 79 -32 79 -101v-578z" />
    <glyph glyph-name="theta" unicode="&#x3b8;" horiz-adv-x="352" 
d="M176 -12c-100 0 -129 133 -129 346c0 214 29 345 129 345c101 0 129 -131 129 -345c0 -213 -28 -346 -129 -346zM176 15c76 0 95 124 96 307h-192c1 -183 21 -307 96 -307zM176 652c-75 0 -95 -124 -96 -303h192c-1 179 -20 303 -96 303z" />
    <glyph glyph-name="iota" unicode="&#x3b9;" horiz-adv-x="167" 
d="M129 -12c-44 0 -64 28 -64 88v407h30v-407c0 -41 7 -61 34 -61c3 0 8 0 14 1l3 -26c-4 -1 -11 -2 -17 -2z" />
    <glyph glyph-name="kappa" unicode="&#x3ba;" horiz-adv-x="325" 
d="M301 0h-32l-108 242l-66 -110v-132h-30v483h30v-305l179 305h31l-128 -218z" />
    <glyph glyph-name="lambda" unicode="&#x3bb;" horiz-adv-x="279" 
d="M34 645l-7 27c7 4 20 7 31 7c33 0 55 -18 68 -73l137 -606h-33l-91 443l-90 -443h-33l109 501l-23 97c-10 40 -19 54 -44 54c-5 0 -17 -2 -24 -7z" />
    <glyph glyph-name="uni03BC" unicode="&#x3bc;" horiz-adv-x="349" 
d="M95 14v-198h-30v667h30v-394c0 -51 23 -76 57 -76c43 0 77 46 95 94v376h30v-407c0 -41 7 -61 34 -61c3 0 8 0 14 1l3 -26c-4 -1 -11 -2 -17 -2c-44 0 -62 27 -64 82c-20 -46 -52 -82 -95 -82c-33 0 -47 12 -57 26z" />
    <glyph glyph-name="mu" unicode="&#xb5;" horiz-adv-x="349" 
d="M95 14v-198h-30v667h30v-394c0 -51 23 -76 57 -76c43 0 77 46 95 94v376h30v-407c0 -41 7 -61 34 -61c3 0 8 0 14 1l3 -26c-4 -1 -11 -2 -17 -2c-44 0 -62 27 -64 82c-20 -46 -52 -82 -95 -82c-33 0 -47 12 -57 26z" />
    <glyph glyph-name="nu" unicode="&#x3bd;" horiz-adv-x="279" 
d="M153 0h-32l-105 483h33l92 -448c54 133 82 302 82 448h30c0 -161 -36 -336 -100 -483z" />
    <glyph glyph-name="xi" unicode="&#x3be;" horiz-adv-x="294" 
d="M187 -12c-98 0 -140 101 -140 189c0 89 43 156 90 168c-56 21 -84 88 -84 157c0 58 25 104 68 138h-66v27h192v-27h-100c-39 -30 -61 -81 -61 -138c0 -92 41 -143 93 -143h61v-27h-61c-56 0 -99 -46 -99 -155c0 -61 23 -162 106 -162c48 0 73 -19 73 -64
c0 -27 -15 -67 -42 -108h-38c25 35 47 78 47 108c0 28 -11 37 -39 37z" />
    <glyph glyph-name="omicron" unicode="&#x3bf;" horiz-adv-x="352" 
d="M176 -12c-97 0 -129 122 -129 254s32 253 129 253c98 0 129 -121 129 -253s-31 -254 -129 -254zM176 15c78 0 96 119 96 227c0 107 -18 226 -96 226c-77 0 -96 -119 -96 -226c0 -108 19 -227 96 -227z" />
    <glyph glyph-name="pi" unicode="&#x3c0;" horiz-adv-x="368" 
d="M290 0h-30v456h-152v-456h-30v456h-52v27h316v-27h-52v-456z" />
    <glyph glyph-name="rho" unicode="&#x3c1;" horiz-adv-x="351" 
d="M183 -12c-32 0 -68 27 -88 84v-256h-30v426c0 132 29 253 118 253c88 0 121 -111 121 -253c0 -141 -33 -254 -121 -254zM183 15c70 0 88 111 88 227s-18 226 -88 226s-88 -119 -88 -226v-125c12 -51 50 -102 88 -102z" />
    <glyph glyph-name="sigma1" unicode="&#x3c2;" horiz-adv-x="284" 
d="M183 -12c-94 0 -136 115 -136 254s42 253 136 253c40 0 61 -18 84 -45l-21 -21c-21 28 -41 39 -64 39c-79 0 -102 -115 -102 -226s23 -227 102 -227c53 0 73 -19 73 -64c0 -27 -15 -67 -42 -108h-33c25 35 47 78 47 108c0 28 -11 37 -44 37z" />
    <glyph glyph-name="sigma" unicode="&#x3c3;" horiz-adv-x="352" 
d="M305 232c0 -123 -31 -244 -129 -244c-97 0 -129 122 -129 254c0 122 32 241 145 241h145v-27h-98c50 -64 66 -135 66 -224zM272 232c0 98 -20 176 -70 224h-10c-93 0 -112 -117 -112 -214c0 -108 19 -227 96 -227c78 0 96 119 96 217z" />
    <glyph glyph-name="tau" unicode="&#x3c4;" horiz-adv-x="237" 
d="M167 -12c-44 0 -64 28 -64 88v380h-88v27h207v-27h-89v-380c0 -41 7 -61 34 -61c15 0 27 8 36 21l21 -18c-15 -18 -30 -30 -57 -30z" />
    </font>
</defs>
</svg>
