<?xml version="1.0" standalone="no"?>
<!DOCTYPE svg PUBLIC "-//W3C//DTD SVG 1.1//EN" "http://www.w3.org/Graphics/SVG/1.1/DTD/svg11.dtd" >
<svg xmlns="http://www.w3.org/2000/svg" xmlns:xlink="http://www.w3.org/1999/xlink" version="1.1">
<metadata>
Created by FontForge 20141024 at Thu Apr 30 19:02:36 2015
 By System Administrator
Copyright (c) Mark Simonson, 2005. All rights reserved.
</metadata>
<defs>
<font id="ProximaNovaExCn-Regular" horiz-adv-x="378" >
  <font-face 
    font-family="Proxima Nova ExCn Rg"
    font-weight="400"
    font-stretch="normal"
    units-per-em="1000"
    panose-1="2 0 5 6 3 0 0 2 0 4"
    ascent="790"
    descent="-210"
    x-height="483"
    cap-height="667"
    bbox="-100 -270 811 886"
    underline-thickness="20"
    underline-position="-113"
    stemh="67"
    stemv="68"
    unicode-range="U+000D-FB04"
  />
<missing-glyph horiz-adv-x="476" 
d="M414 -90h-351v842h351v-842zM382 -60v782h-288v-782h288z" />
    <glyph glyph-name="f_b" unicode="fb" horiz-adv-x="608" 
d="M139 0h-69v423h-47v60h47v81c0 70 39 113 95 113c22 0 37 -4 52 -14l-17 -54c-5 5 -12 7 -21 7c-25 0 -40 -20 -40 -52v-81h65v-60h-65v-423zM348 129c12 -42 43 -80 74 -80c61 0 77 90 77 192s-16 193 -77 193c-31 0 -62 -39 -74 -82v-223zM348 0h-68v667h68v-251
c20 54 58 79 91 79c91 0 132 -108 132 -254c0 -148 -41 -253 -132 -253c-33 0 -70 28 -91 77v-65z" />
    <glyph glyph-name="f_f" unicode="ff" horiz-adv-x="448" 
d="M139 0h-69v423h-47v60h47v81c0 70 37 113 103 113c25 0 52 -9 69 -27l-24 -54c-12 15 -22 20 -35 20c-31 0 -44 -20 -44 -52v-81h65v-60h-65v-423zM363 0h-69v423h-47v60h47v81c0 70 37 113 103 113c25 0 52 -9 69 -27l-24 -54c-12 15 -22 20 -35 20
c-31 0 -44 -20 -44 -52v-81h65v-60h-65v-423z" />
    <glyph glyph-name="f_h" unicode="fh" horiz-adv-x="602" 
d="M139 0h-69v423h-47v60h47v81c0 70 39 113 95 113c22 0 37 -4 52 -14l-17 -54c-5 5 -12 7 -21 7c-25 0 -40 -20 -40 -52v-81h65v-60h-65v-423zM546 0h-68v372c0 42 -16 62 -46 62c-37 0 -69 -39 -84 -79v-355h-68v667h68v-252c21 43 65 80 108 80c64 0 90 -33 90 -105
v-390z" />
    <glyph glyph-name="fi" unicode="fi" horiz-adv-x="405" 
d="M139 0h-69v423h-47v60h47v81c0 70 39 113 95 113c22 0 37 -4 52 -14l-17 -54c-5 5 -12 7 -21 7c-25 0 -40 -20 -40 -52v-81h65v-60h-65v-423zM314 554c-25 0 -47 21 -47 47s22 48 47 48c26 0 48 -22 48 -48s-22 -47 -48 -47zM348 0h-68v483h68v-483z" />
    <glyph glyph-name="f_j" unicode="fj" horiz-adv-x="405" 
d="M139 0h-69v423h-47v60h47v81c0 70 39 113 95 113c22 0 37 -4 52 -14l-17 -54c-5 5 -12 7 -21 7c-25 0 -40 -20 -40 -52v-81h65v-60h-65v-423zM314 554c-25 0 -47 21 -47 47s22 48 47 48c26 0 48 -22 48 -48s-22 -47 -48 -47zM251 -196c-26 0 -46 10 -58 31l26 49
c5 -12 14 -19 28 -19c20 0 33 14 33 64v554h68v-554c0 -91 -33 -125 -97 -125z" />
    <glyph glyph-name="f_k" unicode="fk" horiz-adv-x="585" 
d="M139 0h-69v423h-47v60h47v81c0 70 39 113 95 113c22 0 37 -4 52 -14l-17 -54c-5 5 -12 7 -21 7c-25 0 -40 -20 -40 -52v-81h65v-60h-65v-423zM569 0h-74l-91 219l-56 -96v-123h-68v667h68v-451l148 267h74l-122 -216z" />
    <glyph glyph-name="fl" unicode="fl" horiz-adv-x="405" 
d="M139 0h-69v423h-47v60h47v81c0 70 39 113 95 113c22 0 37 -4 52 -14l-17 -54c-5 5 -12 7 -21 7c-25 0 -40 -20 -40 -52v-81h65v-60h-65v-423zM348 0h-68v667h68v-667z" />
    <glyph glyph-name="f_f_i" unicode="ffi" horiz-adv-x="628" 
d="M363 0h-69v423h-47v60h47v81c0 70 39 113 95 113c22 0 37 -4 52 -14l-17 -54c-5 5 -12 7 -21 7c-25 0 -40 -20 -40 -52v-81h65v-60h-65v-423zM538 554c-25 0 -47 21 -47 47s22 48 47 48c26 0 48 -22 48 -48s-22 -47 -48 -47zM572 0h-68v483h68v-483zM139 0h-69v423h-47
v60h47v81c0 70 37 113 103 113c25 0 52 -9 69 -27l-24 -54c-12 15 -22 20 -35 20c-31 0 -44 -20 -44 -52v-81h65v-60h-65v-423z" />
    <glyph glyph-name="f_f_j" unicode="ffj" horiz-adv-x="628" 
d="M363 0h-69v423h-47v60h47v81c0 70 39 113 95 113c22 0 37 -4 52 -14l-17 -54c-5 5 -12 7 -21 7c-25 0 -40 -20 -40 -52v-81h65v-60h-65v-423zM538 554c-25 0 -47 21 -47 47s22 48 47 48c26 0 48 -22 48 -48s-22 -47 -48 -47zM475 -196c-26 0 -46 10 -58 31l26 49
c5 -12 14 -19 28 -19c20 0 33 14 33 64v554h68v-554c0 -91 -33 -125 -97 -125zM139 0h-69v423h-47v60h47v81c0 70 37 113 103 113c25 0 52 -9 69 -27l-24 -54c-12 15 -22 20 -35 20c-31 0 -44 -20 -44 -52v-81h65v-60h-65v-423z" />
    <glyph glyph-name="f_f_l" unicode="ffl" horiz-adv-x="628" 
d="M363 0h-69v423h-47v60h47v81c0 70 39 113 95 113c22 0 37 -4 52 -14l-17 -54c-5 5 -12 7 -21 7c-25 0 -40 -20 -40 -52v-81h65v-60h-65v-423zM572 0h-68v667h68v-667zM139 0h-69v423h-47v60h47v81c0 70 37 113 103 113c25 0 52 -9 69 -27l-24 -54c-12 15 -22 20 -35 20
c-31 0 -44 -20 -44 -52v-81h65v-60h-65v-423z" />
    <glyph glyph-name=".notdef" horiz-adv-x="476" 
d="M414 -90h-351v842h351v-842zM382 -60v782h-288v-782h288z" />
    <glyph glyph-name=".null" horiz-adv-x="0" 
 />
    <glyph glyph-name=".null" horiz-adv-x="0" 
 />
    <glyph glyph-name="CR" unicode="&#xd;" horiz-adv-x="0" 
 />
    <glyph glyph-name="space" unicode=" " horiz-adv-x="172" 
 />
    <glyph glyph-name="nbspace" unicode="&#xa0;" horiz-adv-x="172" 
 />
    <glyph glyph-name="thinspace" unicode="&#x2009;" horiz-adv-x="34" 
 />
    <glyph glyph-name="zero" unicode="0" horiz-adv-x="412" 
d="M206 -12c-129 0 -163 188 -163 345c0 158 34 344 163 344c130 0 164 -186 164 -344c0 -157 -33 -345 -164 -345zM206 56c79 0 85 148 85 277c0 130 -6 276 -85 276c-77 0 -85 -146 -85 -276c0 -129 6 -277 85 -277z" />
    <glyph glyph-name="zero.pzero" horiz-adv-x="412" 
d="M206 -12c-41 0 -73 19 -97 50l-15 -38h-51l37 91c-28 68 -37 159 -37 242c0 158 34 344 163 344c41 0 72 -19 96 -49l16 39h52l-38 -92c28 -67 38 -159 38 -242c0 -157 -33 -345 -164 -345zM206 56c79 0 85 148 85 277c0 44 -1 90 -5 132l-144 -349c12 -36 32 -60 64 -60
zM121 333c0 -44 0 -91 4 -133l145 350c-13 36 -33 59 -64 59c-77 0 -85 -146 -85 -276z" />
    <glyph glyph-name="one" unicode="1" horiz-adv-x="292" 
d="M229 0h-76v567l-99 -107l-45 48l153 159h67v-667z" />
    <glyph glyph-name="two" unicode="2" horiz-adv-x="391" 
d="M347 0h-295v63c195 313 216 364 216 445c0 58 -30 101 -76 101c-44 0 -75 -28 -100 -83l-54 42c37 69 80 109 156 109c94 0 152 -69 152 -168c0 -87 -32 -163 -199 -442h200v-67z" />
    <glyph glyph-name="three" unicode="3" horiz-adv-x="390" 
d="M187 -12c-75 0 -131 51 -158 112l56 41c21 -48 52 -85 99 -85c65 0 87 52 87 129c0 99 -52 124 -90 124c-13 0 -29 0 -37 -2v70c8 -1 26 -1 35 -1c50 0 85 38 85 113c0 84 -28 120 -79 120c-46 0 -75 -33 -94 -78l-55 38c31 70 89 108 152 108c88 0 152 -53 152 -177
c0 -69 -34 -137 -94 -155c56 -13 101 -80 101 -165c0 -111 -52 -192 -160 -192z" />
    <glyph glyph-name="four" unicode="4" horiz-adv-x="366" 
d="M299 0h-75v173h-210v69l195 425h90v-427h53v-67h-53v-173zM224 240v332l-146 -332h146z" />
    <glyph glyph-name="five" unicode="5" horiz-adv-x="393" 
d="M194 -12c-83 0 -124 44 -156 112l55 40c20 -54 49 -84 98 -84c55 0 85 72 85 148c0 101 -28 149 -77 149c-35 0 -58 -15 -87 -62l-57 19v357h272v-67h-197v-236c19 33 52 56 91 56c80 0 133 -75 133 -215c0 -116 -60 -217 -160 -217z" />
    <glyph glyph-name="six" unicode="6" horiz-adv-x="393" 
d="M207 -12c-131 0 -164 172 -164 345c0 177 44 344 179 344c55 0 102 -33 126 -86l-45 -50c-17 44 -39 68 -79 68c-83 0 -104 -150 -104 -271v-14c18 49 54 93 106 93c73 0 131 -71 131 -213c0 -111 -48 -216 -150 -216zM204 56c57 0 75 73 75 146c0 114 -34 149 -74 149
c-45 0 -70 -56 -84 -104c1 -67 10 -191 83 -191z" />
    <glyph glyph-name="seven" unicode="7" horiz-adv-x="330" 
d="M156 0h-80l151 600h-206v67h288v-52z" />
    <glyph glyph-name="eight" unicode="8" horiz-adv-x="391" 
d="M196 -12c-103 0 -157 66 -157 172c0 87 58 158 105 184c-43 23 -97 83 -97 167c0 112 68 166 149 166c80 0 149 -54 149 -166c0 -84 -55 -144 -98 -167c47 -26 105 -97 105 -183c0 -107 -56 -173 -156 -173zM196 371c10 5 72 46 72 129c0 67 -24 109 -72 109
c-50 0 -74 -42 -74 -109c0 -83 62 -124 74 -129zM196 56c45 0 79 39 79 113c0 90 -65 144 -79 147c-16 -3 -80 -57 -80 -147c0 -74 33 -113 80 -113z" />
    <glyph glyph-name="nine" unicode="9" horiz-adv-x="393" 
d="M170 -11c-55 0 -102 33 -126 86l46 50c16 -44 39 -68 79 -68c80 0 103 147 103 270v15c-18 -49 -53 -93 -105 -93c-74 0 -132 71 -132 213c0 111 49 216 150 216c131 0 165 -172 165 -345c0 -177 -45 -344 -180 -344zM187 315c45 0 70 56 84 104c-1 67 -9 191 -82 191
c-57 0 -76 -73 -76 -146c0 -114 34 -149 74 -149z" />
    <glyph glyph-name="zero.tnum" unicode="&#xf639;" horiz-adv-x="391" 
d="M195 -12c-129 0 -163 188 -163 345c0 158 34 344 163 344c130 0 164 -186 164 -344c0 -157 -33 -345 -164 -345zM195 56c79 0 85 148 85 277c0 130 -6 276 -85 276c-77 0 -85 -146 -85 -276c0 -129 6 -277 85 -277z" />
    <glyph glyph-name="zero.tzero" unicode="&#xf638;" horiz-adv-x="391" 
d="M195 -12c-41 0 -73 19 -97 50l-15 -38h-51l37 91c-28 68 -37 159 -37 242c0 158 34 344 163 344c41 0 72 -19 96 -49l16 39h52l-38 -92c28 -67 38 -159 38 -242c0 -157 -33 -345 -164 -345zM195 56c79 0 85 148 85 277c0 44 -1 90 -5 132l-144 -349c12 -36 32 -60 64 -60
zM110 333c0 -44 0 -91 4 -133l145 350c-13 36 -33 59 -64 59c-77 0 -85 -146 -85 -276z" />
    <glyph glyph-name="one.tnum" unicode="&#xf6dc;" horiz-adv-x="391" 
d="M291 0h-76v567l-99 -107l-45 48l153 159h67v-667z" />
    <glyph glyph-name="two.tnum" unicode="&#xf63a;" horiz-adv-x="391" 
d="M348 0h-295v63c195 313 216 364 216 445c0 58 -30 101 -76 101c-44 0 -75 -28 -100 -83l-54 42c37 69 80 109 156 109c94 0 152 -69 152 -168c0 -87 -32 -163 -199 -442h200v-67z" />
    <glyph glyph-name="three.tnum" unicode="&#xf63b;" horiz-adv-x="391" 
d="M188 -12c-75 0 -131 51 -158 112l56 41c21 -48 52 -85 99 -85c65 0 87 52 87 129c0 99 -52 124 -90 124c-13 0 -29 0 -37 -2v70c8 -1 26 -1 35 -1c50 0 85 38 85 113c0 84 -28 120 -79 120c-46 0 -75 -33 -94 -78l-55 38c31 70 89 108 152 108c88 0 152 -53 152 -177
c0 -69 -34 -137 -94 -155c56 -13 101 -80 101 -165c0 -111 -52 -192 -160 -192z" />
    <glyph glyph-name="four.tnum" unicode="&#xf63c;" horiz-adv-x="391" 
d="M311 0h-75v173h-210v69l195 425h90v-427h53v-67h-53v-173zM236 240v332l-146 -332h146z" />
    <glyph glyph-name="five.tnum" unicode="&#xf63d;" horiz-adv-x="391" 
d="M192 -12c-83 0 -124 44 -156 112l55 40c20 -54 49 -84 98 -84c55 0 85 72 85 148c0 101 -28 149 -77 149c-35 0 -58 -15 -87 -62l-57 19v357h272v-67h-197v-236c19 33 52 56 91 56c80 0 133 -75 133 -215c0 -116 -60 -217 -160 -217z" />
    <glyph glyph-name="six.tnum" unicode="&#xf63e;" horiz-adv-x="391" 
d="M206 -12c-131 0 -164 172 -164 345c0 177 44 344 179 344c55 0 102 -33 126 -86l-45 -50c-17 44 -39 68 -79 68c-83 0 -104 -150 -104 -271v-14c18 49 54 93 106 93c73 0 131 -71 131 -213c0 -111 -48 -216 -150 -216zM203 56c57 0 75 73 75 146c0 114 -34 149 -74 149
c-45 0 -70 -56 -84 -104c1 -67 10 -191 83 -191z" />
    <glyph glyph-name="seven.tnum" unicode="&#xf63f;" horiz-adv-x="391" 
d="M186 0h-80l151 600h-206v67h288v-52z" />
    <glyph glyph-name="eight.tnum" unicode="&#xf640;" horiz-adv-x="391" 
d="M196 -12c-103 0 -157 66 -157 172c0 87 58 158 105 184c-43 23 -97 83 -97 167c0 112 68 166 149 166c80 0 149 -54 149 -166c0 -84 -55 -144 -98 -167c47 -26 105 -97 105 -183c0 -107 -56 -173 -156 -173zM196 371c10 5 72 46 72 129c0 67 -24 109 -72 109
c-50 0 -74 -42 -74 -109c0 -83 62 -124 74 -129zM196 56c45 0 79 39 79 113c0 90 -65 144 -79 147c-16 -3 -80 -57 -80 -147c0 -74 33 -113 80 -113z" />
    <glyph glyph-name="nine.tnum" unicode="&#xf641;" horiz-adv-x="391" 
d="M170 -11c-55 0 -102 33 -126 86l46 50c16 -44 39 -68 79 -68c80 0 103 147 103 270v15c-18 -49 -53 -93 -105 -93c-74 0 -132 71 -132 213c0 111 49 216 150 216c131 0 165 -172 165 -345c0 -177 -45 -344 -180 -344zM187 315c45 0 70 56 84 104c-1 67 -9 191 -82 191
c-57 0 -76 -73 -76 -146c0 -114 34 -149 74 -149z" />
    <glyph glyph-name="zero.tonum" unicode="&#xf643;" horiz-adv-x="391" 
d="M359 275c0 -125 -33 -287 -164 -287c-129 0 -163 162 -163 287c0 126 34 287 163 287c130 0 164 -161 164 -287zM280 275c0 89 -7 219 -85 219c-76 0 -85 -130 -85 -219c0 -88 7 -219 85 -219s85 131 85 219z" />
    <glyph glyph-name="zero.tonumzero" horiz-adv-x="391" 
d="M359 275c0 -125 -33 -287 -164 -287c-40 0 -71 15 -94 40l-13 -28h-46l31 67c-31 58 -41 139 -41 208c0 126 34 287 163 287c38 0 68 -14 92 -37l12 25h46l-30 -64c33 -58 44 -140 44 -211zM280 275c0 36 -1 80 -8 119l-138 -294c13 -27 32 -44 61 -44
c78 0 85 131 85 219zM110 275c0 -35 1 -76 7 -114l136 292c-12 24 -31 41 -58 41c-76 0 -85 -130 -85 -219z" />
    <glyph glyph-name="one.tonum" unicode="&#xf644;" horiz-adv-x="391" 
d="M291 0h-76v450l-99 -107l-45 48l153 159h67v-550z" />
    <glyph glyph-name="two.tonum" unicode="&#xf645;" horiz-adv-x="391" 
d="M333 0h-280v64c173 170 211 259 211 326c0 60 -30 104 -75 104c-41 0 -71 -25 -96 -80l-54 39c35 70 80 109 155 109c90 0 148 -68 148 -162c0 -70 -31 -173 -189 -333h180v-67z" />
    <glyph glyph-name="three.tonum" unicode="&#xf646;" horiz-adv-x="391" 
d="M188 -127c-75 0 -131 51 -158 112l56 41c21 -48 52 -85 99 -85c65 0 87 52 87 129c0 99 -52 124 -90 124c-13 0 -29 0 -37 -2v70c8 -1 26 -1 35 -1c50 0 85 38 85 113c0 84 -28 120 -79 120c-46 0 -75 -33 -94 -78l-55 38c31 70 89 108 152 108c88 0 152 -53 152 -177
c0 -69 -34 -137 -94 -155c56 -13 101 -80 101 -165c0 -111 -52 -192 -160 -192z" />
    <glyph glyph-name="four.tonum" unicode="&#xf647;" horiz-adv-x="391" 
d="M364 58h-53v-175h-75v175h-210v70l195 422h90v-425h53v-67zM236 125v330l-146 -330h146z" />
    <glyph glyph-name="five.tonum" unicode="&#xf648;" horiz-adv-x="391" 
d="M192 -129c-83 0 -124 44 -156 112l55 40c20 -54 49 -84 98 -84c55 0 85 72 85 148c0 101 -28 149 -77 149c-35 0 -58 -15 -87 -62l-57 19v357h272v-67h-197v-236c19 33 52 56 91 56c80 0 133 -75 133 -215c0 -116 -60 -217 -160 -217z" />
    <glyph glyph-name="six.tonum" unicode="&#xf649;" horiz-adv-x="391" 
d="M206 -12c-131 0 -164 172 -164 345c0 177 44 344 179 344c55 0 102 -33 126 -86l-45 -50c-17 44 -39 68 -79 68c-83 0 -104 -150 -104 -271v-14c18 49 54 93 106 93c73 0 131 -71 131 -213c0 -111 -48 -216 -150 -216zM203 56c57 0 75 73 75 146c0 114 -34 149 -74 149
c-45 0 -70 -56 -84 -104c1 -67 10 -191 83 -191z" />
    <glyph glyph-name="seven.tonum" unicode="&#xf64a;" horiz-adv-x="391" 
d="M186 -117h-80l151 600h-206v67h288v-52z" />
    <glyph glyph-name="eight.tonum" unicode="&#xf64b;" horiz-adv-x="391" 
d="M196 -12c-103 0 -157 66 -157 172c0 87 58 158 105 184c-43 23 -97 83 -97 167c0 112 68 166 149 166c80 0 149 -54 149 -166c0 -84 -55 -144 -98 -167c47 -26 105 -97 105 -183c0 -107 -56 -173 -156 -173zM196 371c10 5 72 46 72 129c0 67 -24 109 -72 109
c-50 0 -74 -42 -74 -109c0 -83 62 -124 74 -129zM196 56c45 0 79 39 79 113c0 90 -65 144 -79 147c-16 -3 -80 -57 -80 -147c0 -74 33 -113 80 -113z" />
    <glyph glyph-name="nine.tonum" unicode="&#xf64c;" horiz-adv-x="391" 
d="M170 -127c-55 0 -102 33 -126 86l46 50c16 -44 39 -68 79 -68c80 0 103 147 103 270v15c-18 -49 -53 -93 -105 -93c-74 0 -132 71 -132 213c0 111 49 216 150 216c131 0 165 -172 165 -345c0 -177 -45 -344 -180 -344zM187 199c45 0 70 56 84 104c-1 67 -9 191 -82 191
c-57 0 -76 -73 -76 -146c0 -114 34 -149 74 -149z" />
    <glyph glyph-name="zero.onum" unicode="&#xf730;" horiz-adv-x="412" 
d="M370 275c0 -125 -33 -287 -164 -287c-129 0 -163 162 -163 287c0 126 34 287 163 287c130 0 164 -161 164 -287zM291 275c0 89 -7 219 -85 219c-76 0 -85 -130 -85 -219c0 -88 7 -219 85 -219s85 131 85 219z" />
    <glyph glyph-name="zero.onumzero" horiz-adv-x="412" 
d="M370 275c0 -125 -33 -287 -164 -287c-40 0 -71 15 -94 40l-13 -28h-46l31 67c-31 58 -41 139 -41 208c0 126 34 287 163 287c38 0 68 -14 92 -37l12 25h46l-30 -64c33 -58 44 -140 44 -211zM291 275c0 36 -1 80 -8 119l-138 -294c13 -27 32 -44 61 -44
c78 0 85 131 85 219zM121 275c0 -35 1 -76 7 -114l136 292c-12 24 -31 41 -58 41c-76 0 -85 -130 -85 -219z" />
    <glyph glyph-name="one.onum" unicode="&#xf731;" horiz-adv-x="292" 
d="M229 0h-76v450l-99 -107l-45 48l153 159h67v-550z" />
    <glyph glyph-name="two.onum" unicode="&#xf732;" horiz-adv-x="385" 
d="M332 0h-280v64c173 170 211 259 211 326c0 60 -30 104 -75 104c-41 0 -71 -25 -96 -80l-54 39c35 70 80 109 155 109c90 0 148 -68 148 -162c0 -70 -31 -173 -189 -333h180v-67z" />
    <glyph glyph-name="three.onum" unicode="&#xf733;" horiz-adv-x="390" 
d="M187 -128c-75 0 -131 51 -158 112l56 41c21 -48 52 -85 99 -85c65 0 87 52 87 129c0 99 -52 124 -90 124c-13 0 -29 0 -37 -2v70c8 -1 26 -1 35 -1c50 0 85 38 85 113c0 84 -28 120 -79 120c-46 0 -75 -33 -94 -78l-55 38c31 70 89 108 152 108c88 0 152 -53 152 -177
c0 -69 -34 -137 -94 -155c56 -13 101 -80 101 -165c0 -111 -52 -192 -160 -192z" />
    <glyph glyph-name="four.onum" unicode="&#xf734;" horiz-adv-x="366" 
d="M352 58h-53v-175h-75v175h-210v70l195 422h90v-425h53v-67zM224 125v330l-146 -330h146z" />
    <glyph glyph-name="five.onum" unicode="&#xf735;" horiz-adv-x="393" 
d="M194 -129c-83 0 -124 44 -156 112l55 40c20 -54 49 -84 98 -84c55 0 85 72 85 148c0 101 -28 149 -77 149c-35 0 -58 -15 -87 -62l-57 19v357h272v-67h-197v-236c19 33 52 56 91 56c80 0 133 -75 133 -215c0 -116 -60 -217 -160 -217z" />
    <glyph glyph-name="six.onum" unicode="&#xf736;" horiz-adv-x="393" 
d="M207 -12c-131 0 -164 172 -164 345c0 177 44 344 179 344c55 0 102 -33 126 -86l-45 -50c-17 44 -39 68 -79 68c-83 0 -104 -150 -104 -271v-14c18 49 54 93 106 93c73 0 131 -71 131 -213c0 -111 -48 -216 -150 -216zM204 56c57 0 75 73 75 146c0 114 -34 149 -74 149
c-45 0 -70 -56 -84 -104c1 -67 10 -191 83 -191z" />
    <glyph glyph-name="seven.onum" unicode="&#xf737;" horiz-adv-x="330" 
d="M156 -117h-80l151 600h-206v67h288v-52z" />
    <glyph glyph-name="eight.onum" unicode="&#xf738;" horiz-adv-x="391" 
d="M196 -12c-103 0 -157 66 -157 172c0 87 58 158 105 184c-43 23 -97 83 -97 167c0 112 68 166 149 166c80 0 149 -54 149 -166c0 -84 -55 -144 -98 -167c47 -26 105 -97 105 -183c0 -107 -56 -173 -156 -173zM196 371c10 5 72 46 72 129c0 67 -24 109 -72 109
c-50 0 -74 -42 -74 -109c0 -83 62 -124 74 -129zM196 56c45 0 79 39 79 113c0 90 -65 144 -79 147c-16 -3 -80 -57 -80 -147c0 -74 33 -113 80 -113z" />
    <glyph glyph-name="nine.onum" unicode="&#xf739;" horiz-adv-x="393" 
d="M170 -127c-55 0 -102 33 -126 86l46 50c16 -44 39 -68 79 -68c80 0 103 147 103 270v15c-18 -49 -53 -93 -105 -93c-74 0 -132 71 -132 213c0 111 49 216 150 216c131 0 165 -172 165 -345c0 -177 -45 -344 -180 -344zM187 199c45 0 70 56 84 104c-1 67 -9 191 -82 191
c-57 0 -76 -73 -76 -146c0 -114 34 -149 74 -149z" />
    <glyph glyph-name="A" unicode="A" horiz-adv-x="364" 
d="M357 0h-77l-27 153h-142l-27 -153h-77l131 667h87zM244 220l-62 357l-62 -357h124z" />
    <glyph glyph-name="B" unicode="B" horiz-adv-x="403" 
d="M213 0h-150v667h144c94 0 144 -68 144 -170c0 -84 -34 -134 -87 -153c58 -10 96 -85 96 -164c0 -109 -45 -180 -147 -180zM192 375c61 0 81 48 81 112c0 63 -20 113 -81 113h-54v-225h54zM196 67c61 0 86 46 86 120c0 64 -25 121 -86 121h-58v-241h58z" />
    <glyph glyph-name="C" unicode="C" horiz-adv-x="390" 
d="M217 -12c-125 0 -174 151 -174 345s49 345 174 345c85 0 119 -66 138 -128l-62 -24c-16 52 -34 84 -76 84c-70 0 -96 -120 -96 -277s26 -277 96 -277c47 0 66 44 78 101l63 -23c-17 -72 -53 -146 -141 -146z" />
    <glyph glyph-name="D" unicode="D" horiz-adv-x="427" 
d="M190 0h-127v667h127c138 0 195 -142 195 -334c0 -194 -56 -333 -195 -333zM190 67c84 0 116 110 116 266c0 157 -33 267 -116 267h-52v-533h52z" />
    <glyph glyph-name="E" unicode="E" horiz-adv-x="352" 
d="M311 0h-248v667h248v-67h-173v-225h166v-67h-166v-241h173v-67z" />
    <glyph glyph-name="F" unicode="F" horiz-adv-x="351" 
d="M138 0h-75v667h248v-67h-173v-225h166v-67h-166v-308z" />
    <glyph glyph-name="G" unicode="G" horiz-adv-x="411" 
d="M217 -12c-121 0 -174 141 -174 345c0 205 53 345 174 345c78 0 119 -59 138 -128l-62 -24c-15 50 -33 84 -76 84c-67 0 -96 -110 -96 -277c0 -166 29 -277 96 -277c33 0 57 15 72 41v175h-89v67h157v-271c-34 -53 -81 -80 -140 -80z" />
    <glyph glyph-name="G.alt1" horiz-adv-x="411" 
d="M215 -12c-119 0 -172 141 -172 345c0 205 53 345 174 345c78 0 119 -59 138 -128l-62 -24c-15 50 -33 84 -76 84c-67 0 -96 -110 -96 -277c0 -166 29 -277 96 -277c65 0 85 105 86 217h-103v67h177c0 -226 -41 -352 -162 -352z" />
    <glyph glyph-name="H" unicode="H" horiz-adv-x="436" 
d="M373 0h-75v309h-160v-309h-75v667h75v-290h160v290h75v-667z" />
    <glyph glyph-name="I" unicode="I" horiz-adv-x="201" 
d="M138 0h-75v667h75v-667z" />
    <glyph glyph-name="J" unicode="J" horiz-adv-x="321" 
d="M113 -12c-40 0 -75 13 -106 46l28 60c21 -28 46 -38 71 -38c49 0 78 26 78 89v522h75v-525c0 -107 -59 -154 -146 -154z" />
    <glyph glyph-name="K" unicode="K" horiz-adv-x="418" 
d="M407 0h-87l-137 289l-45 -86v-203h-75v667h75v-347l171 347h85l-169 -317z" />
    <glyph glyph-name="L" unicode="L" horiz-adv-x="333" 
d="M311 0h-248v667h75v-600h173v-67z" />
    <glyph glyph-name="M" unicode="M" horiz-adv-x="558" 
d="M495 0h-74v499l-127 -499h-30l-126 499v-499h-75v667h102l114 -447l116 447h100v-667z" />
    <glyph glyph-name="N" unicode="N" horiz-adv-x="436" 
d="M373 0h-72l-163 462v-462h-75v667h75l160 -453v453h75v-667z" />
    <glyph glyph-name="O" unicode="O" horiz-adv-x="434" 
d="M217 -12c-127 0 -174 155 -174 345s47 345 174 345c126 0 174 -155 174 -345s-48 -345 -174 -345zM217 56c71 0 96 128 96 277c0 151 -25 277 -96 277c-72 0 -96 -126 -96 -277c0 -149 24 -277 96 -277z" />
    <glyph glyph-name="P" unicode="P" horiz-adv-x="387" 
d="M138 0h-75v667h137c110 0 159 -92 159 -199s-49 -199 -159 -199h-62v-269zM193 336c59 0 88 55 88 132s-29 132 -88 132h-55v-264h55z" />
    <glyph glyph-name="Q" unicode="Q" horiz-adv-x="434" 
d="M217 -12c-127 0 -174 155 -174 345s47 345 174 345c126 0 174 -155 174 -345c0 -129 -22 -241 -76 -301l18 -45l-56 -22l-12 32c-15 -6 -31 -9 -48 -9zM217 56c8 0 16 2 23 5l-56 148l56 22l44 -115c21 51 29 130 29 217c0 151 -25 277 -96 277c-72 0 -96 -126 -96 -277
c0 -149 24 -277 96 -277z" />
    <glyph glyph-name="R" unicode="R" horiz-adv-x="409" 
d="M365 0h-81l-87 269h-59v-269h-75v667h140c91 0 156 -75 156 -197c0 -118 -51 -169 -92 -184zM193 336c59 0 88 55 88 132s-29 132 -88 132h-55v-264h55z" />
    <glyph glyph-name="S" unicode="S" horiz-adv-x="354" 
d="M163 -12c-59 0 -107 22 -143 61l38 60c24 -33 65 -53 101 -53c49 0 87 41 87 103c0 152 -208 163 -208 354c0 96 64 165 154 165c46 0 88 -16 119 -47l-33 -58c-23 25 -52 37 -85 37c-42 0 -78 -36 -78 -94c0 -130 207 -156 207 -353c0 -101 -63 -175 -159 -175z" />
    <glyph glyph-name="T" unicode="T" horiz-adv-x="322" 
d="M199 0h-76v600h-105v67h286v-67h-105v-600z" />
    <glyph glyph-name="U" unicode="U" horiz-adv-x="437" 
d="M218 -12c-88 0 -155 55 -155 184v495h75v-498c0 -84 32 -114 80 -114s81 30 81 114v498h75v-495c0 -129 -68 -184 -156 -184z" />
    <glyph glyph-name="V" unicode="V" horiz-adv-x="364" 
d="M225 0h-87l-131 667h77l98 -567l98 567h77z" />
    <glyph glyph-name="W" unicode="W" horiz-adv-x="548" 
d="M424 0h-80l-70 514l-70 -514h-79l-107 667h78l71 -531l75 531h64l76 -531l70 531h78z" />
    <glyph glyph-name="X" unicode="X" horiz-adv-x="368" 
d="M365 0h-84l-97 268l-97 -268h-83l137 339l-130 328h84l89 -257l89 257h84l-130 -327z" />
    <glyph glyph-name="Y" unicode="Y" horiz-adv-x="372" 
d="M224 0h-75v283l-150 384h82l105 -307l107 307h80l-149 -384v-283z" />
    <glyph glyph-name="Z" unicode="Z" horiz-adv-x="340" 
d="M307 0h-274v66l184 534h-184v67h267v-63l-186 -537h193v-67z" />
    <glyph glyph-name="a" unicode="a" horiz-adv-x="376" 
d="M320 0h-69v48c-22 -42 -61 -60 -94 -60c-75 0 -124 65 -124 161c0 95 49 159 124 159c33 0 72 -17 94 -57v80c0 67 -19 105 -75 105c-32 0 -63 -14 -95 -51l-29 49c40 44 91 61 135 61c89 0 133 -49 133 -151v-344zM176 38c30 0 59 21 75 63v92c-16 43 -45 65 -75 65
c-50 0 -73 -51 -73 -110c0 -58 23 -110 73 -110z" />
    <glyph glyph-name="a.alt1" horiz-adv-x="384" 
d="M328 0h-68v65c-21 -49 -58 -77 -91 -77c-91 0 -132 105 -132 253c0 146 41 254 132 254c33 0 71 -25 91 -79v67h68v-483zM186 49c31 0 63 38 74 80v223c-11 43 -43 82 -74 82c-61 0 -77 -91 -77 -193s16 -192 77 -192z" />
    <glyph glyph-name="b" unicode="b" horiz-adv-x="384" 
d="M124 129c12 -42 43 -80 74 -80c61 0 77 90 77 192s-16 193 -77 193c-31 0 -62 -39 -74 -82v-223zM124 0h-68v667h68v-251c20 54 58 79 91 79c91 0 132 -108 132 -254c0 -148 -41 -253 -132 -253c-33 0 -70 28 -91 77v-65z" />
    <glyph glyph-name="c" unicode="c" horiz-adv-x="317" 
d="M196 -12c-104 0 -159 111 -159 254s55 253 159 253c46 0 76 -19 99 -44l-28 -52c-20 25 -39 35 -62 35c-70 0 -96 -94 -96 -192s26 -193 96 -193c23 0 42 10 62 35l28 -52c-23 -28 -53 -44 -99 -44z" />
    <glyph glyph-name="d" unicode="d" horiz-adv-x="384" 
d="M328 0h-68v65c-21 -49 -58 -77 -91 -77c-91 0 -132 105 -132 253c0 146 41 254 132 254c33 0 71 -25 91 -79v251h68v-667zM186 49c31 0 63 38 74 80v224c-11 42 -43 81 -74 81c-61 0 -77 -91 -77 -193s16 -192 77 -192z" />
    <glyph glyph-name="e" unicode="e" horiz-adv-x="373" 
d="M205 -12c-115 0 -168 109 -168 254c0 140 48 253 154 253c109 0 149 -114 149 -252v-24h-234c0 -103 35 -174 104 -174c29 0 59 21 80 58l41 -36c-31 -48 -75 -79 -126 -79zM272 270c0 75 -16 168 -83 168s-83 -100 -83 -168h166z" />
    <glyph glyph-name="f" unicode="f" horiz-adv-x="224" 
d="M139 0h-69v423h-47v60h47v81c0 70 37 113 103 113c25 0 52 -9 69 -27l-24 -54c-12 15 -22 20 -35 20c-31 0 -44 -20 -44 -52v-81h65v-60h-65v-423z" />
    <glyph glyph-name="f.alt1" horiz-adv-x="224" 
d="M139 0h-69v423h-47v60h47v81c0 70 39 113 95 113c22 0 37 -4 52 -14l-17 -54c-5 5 -12 7 -21 7c-25 0 -40 -20 -40 -52v-81h65v-60h-65v-423z" />
    <glyph glyph-name="g" unicode="g" horiz-adv-x="384" 
d="M178 -196c-48 0 -93 14 -128 49l28 58c24 -28 59 -46 94 -46c53 0 88 35 88 116v93c-21 -50 -58 -80 -91 -80c-91 0 -132 102 -132 250c0 146 41 251 132 251c33 0 71 -25 91 -79v67h68v-495c0 -138 -67 -184 -150 -184zM186 55c31 0 63 40 74 82v216
c-11 42 -43 81 -74 81c-61 0 -77 -88 -77 -190c0 -101 16 -189 77 -189z" />
    <glyph glyph-name="h" unicode="h" 
d="M322 0h-68v372c0 42 -16 62 -46 62c-37 0 -69 -39 -84 -79v-355h-68v667h68v-252c21 43 65 80 108 80c64 0 90 -33 90 -105v-390z" />
    <glyph glyph-name="i" unicode="i" horiz-adv-x="180" 
d="M90 554c-25 0 -47 21 -47 47s22 48 47 48c26 0 48 -22 48 -48s-22 -47 -48 -47zM124 0h-68v483h68v-483z" />
    <glyph glyph-name="j" unicode="j" horiz-adv-x="180" 
d="M90 554c-25 0 -47 21 -47 47s22 48 47 48c26 0 48 -22 48 -48s-22 -47 -48 -47zM27 -196c-26 0 -46 10 -58 31l26 49c5 -12 14 -19 28 -19c20 0 33 14 33 64v554h68v-554c0 -91 -33 -125 -97 -125z" />
    <glyph glyph-name="k" unicode="k" horiz-adv-x="361" 
d="M345 0h-74l-91 219l-56 -96v-123h-68v667h68v-451l148 267h74l-122 -216z" />
    <glyph glyph-name="l" unicode="l" horiz-adv-x="180" 
d="M124 0h-68v667h68v-667z" />
    <glyph glyph-name="l.alt1" horiz-adv-x="208" 
d="M141 -12c-60 0 -85 33 -85 104v575h68v-565c0 -36 7 -53 31 -53c13 0 24 6 32 17l22 -50c-16 -17 -37 -28 -68 -28z" />
    <glyph glyph-name="m" unicode="m" horiz-adv-x="576" 
d="M520 0h-69v371c0 44 -16 63 -46 63c-36 0 -69 -40 -83 -79v-355h-68v371c0 43 -16 63 -46 63c-37 0 -69 -40 -84 -79v-355h-68v483h68v-68c20 41 63 80 108 80c51 0 84 -29 88 -82c20 43 64 82 110 82c55 0 90 -29 90 -105v-390z" />
    <glyph glyph-name="n" unicode="n" 
d="M322 0h-68v371c0 43 -16 63 -46 63c-37 0 -69 -39 -84 -79v-355h-68v483h68v-68c21 43 65 80 108 80c64 0 90 -37 90 -105v-390z" />
    <glyph glyph-name="o" unicode="o" horiz-adv-x="382" 
d="M191 -12c-111 0 -154 121 -154 254s43 253 154 253s153 -120 153 -253s-42 -254 -153 -254zM191 49c65 0 82 96 82 193c0 96 -17 192 -82 192s-82 -96 -82 -192c0 -97 17 -193 82 -193z" />
    <glyph glyph-name="p" unicode="p" horiz-adv-x="384" 
d="M215 -12c-33 0 -71 25 -91 79v-251h-68v667h68v-65c21 49 58 77 91 77c91 0 132 -105 132 -253c0 -146 -41 -254 -132 -254zM198 49c61 0 77 91 77 193s-16 192 -77 192c-31 0 -62 -37 -74 -80v-224c12 -42 43 -81 74 -81z" />
    <glyph glyph-name="q" unicode="q" horiz-adv-x="384" 
d="M186 49c31 0 63 39 74 81v224c-11 43 -43 80 -74 80c-61 0 -77 -90 -77 -192s16 -193 77 -193zM169 -12c-91 0 -132 108 -132 254c0 148 41 253 132 253c33 0 70 -28 91 -77v65h68v-667h-68v251c-20 -54 -58 -79 -91 -79z" />
    <glyph glyph-name="r" unicode="r" horiz-adv-x="252" 
d="M124 0h-68v483h68v-77c23 51 61 87 112 87v-71c-6 2 -12 3 -18 3c-41 0 -75 -39 -94 -81v-344z" />
    <glyph glyph-name="s" unicode="s" horiz-adv-x="309" 
d="M152 -12c-58 0 -101 20 -131 61l33 47c24 -31 55 -52 93 -52c39 0 71 27 71 72c0 109 -182 102 -182 259c0 68 51 120 128 120c46 0 86 -19 115 -54l-32 -46c-20 28 -50 44 -82 44c-39 0 -64 -28 -64 -62c0 -102 182 -100 182 -259c0 -78 -58 -130 -131 -130z" />
    <glyph glyph-name="t" unicode="t" horiz-adv-x="233" 
d="M156 -12c-60 0 -86 33 -86 104v331h-49v60h49v132h69v-132h65v-60h-65v-321c0 -36 7 -53 30 -53c13 0 25 6 32 17l22 -50c-16 -17 -37 -28 -67 -28z" />
    <glyph glyph-name="u" unicode="u" 
d="M322 0h-68v66c-21 -43 -61 -78 -108 -78c-64 0 -90 33 -90 105v390h68v-372c0 -42 16 -62 46 -62c37 0 69 37 84 77v357h68v-483z" />
    <glyph glyph-name="v" unicode="v" horiz-adv-x="326" 
d="M200 0h-75l-116 483h74l79 -399l82 399h72z" />
    <glyph glyph-name="w" unicode="w" horiz-adv-x="541" 
d="M423 0h-71l-81 389l-82 -389h-71l-105 483h72l72 -387l77 387h70l79 -387l73 387h72z" />
    <glyph glyph-name="x" unicode="x" horiz-adv-x="326" 
d="M313 0h-73l-77 191l-78 -191h-73l109 244l-103 239h73l72 -184l72 184h72l-103 -239z" />
    <glyph glyph-name="y" unicode="y" horiz-adv-x="326" 
d="M33 -189l11 60c7 -4 18 -6 24 -6c23 0 33 12 42 45l19 75l-120 498h74l79 -396l82 396h72l-143 -589c-19 -70 -48 -90 -98 -90c-14 0 -33 3 -42 7z" />
    <glyph glyph-name="y.alt1" 
d="M178 -196c-50 0 -97 17 -127 49l28 58c28 -32 62 -46 95 -46c49 0 80 39 80 116v93c-21 -43 -61 -78 -108 -78c-64 0 -90 33 -90 104v383h68v-364c0 -43 16 -63 46 -63c37 0 69 38 84 78v349h68v-495c0 -117 -50 -184 -144 -184z" />
    <glyph glyph-name="z" unicode="z" horiz-adv-x="303" 
d="M268 0h-234v54l151 369h-151v60h230v-52l-150 -371h154v-60z" />
    <glyph glyph-name="A.smcp" unicode="&#xf761;" horiz-adv-x="315" 
d="M117 550h81l111 -550h-73l-22 124h-114l-22 -124h-73zM205 187l-48 275l-48 -275h96z" />
    <glyph glyph-name="B.smcp" unicode="&#xf762;" horiz-adv-x="341" 
d="M180 0h-124v550h120c82 0 126 -57 126 -141c0 -66 -27 -107 -70 -124c47 -14 77 -74 77 -136c0 -89 -39 -149 -129 -149zM168 63c49 0 68 35 68 93c0 49 -19 94 -68 94h-40v-187h40zM164 314c49 0 64 37 64 86c0 45 -13 87 -64 87h-36v-173h36z" />
    <glyph glyph-name="C.smcp" unicode="&#xf763;" horiz-adv-x="351" 
d="M196 -12c-114 0 -157 127 -157 287c0 161 43 287 157 287c73 0 105 -51 126 -111l-59 -20c-15 44 -34 68 -67 68c-64 0 -84 -99 -84 -224c0 -124 20 -224 84 -224c35 0 55 27 67 73l59 -19c-20 -63 -51 -117 -126 -117z" />
    <glyph glyph-name="D.smcp" unicode="&#xf764;" horiz-adv-x="386" 
d="M173 0h-117v550h117c121 0 175 -117 175 -276s-54 -274 -175 -274zM173 63c70 0 102 87 102 211c0 126 -33 213 -102 213h-45v-424h45z" />
    <glyph glyph-name="E.smcp" unicode="&#xf765;" horiz-adv-x="313" 
d="M275 0h-219v550h219v-63h-147v-174h141v-63h-141v-187h147v-63z" />
    <glyph glyph-name="F.smcp" unicode="&#xf766;" horiz-adv-x="312" 
d="M128 0h-72v550h219v-63h-147v-174h141v-63h-141v-250z" />
    <glyph glyph-name="G.smcp" unicode="&#xf767;" horiz-adv-x="371" 
d="M196 -12c-111 0 -157 119 -157 287c0 169 46 287 157 287c70 0 105 -50 125 -111l-58 -20c-14 39 -30 68 -67 68c-63 0 -84 -92 -84 -224c0 -131 21 -224 86 -224c28 0 48 13 61 33v139h-71v60h136v-228c-36 -47 -75 -67 -128 -67z" />
    <glyph glyph-name="G.smcp.alt1" horiz-adv-x="371" 
d="M194 -12c-109 0 -155 119 -155 287c0 169 46 287 157 287c70 0 105 -50 125 -111l-58 -20c-14 39 -30 68 -67 68c-63 0 -84 -92 -84 -224c0 -131 21 -224 84 -224s80 99 81 171h-89v60h157c0 -169 -38 -294 -151 -294z" />
    <glyph glyph-name="H.smcp" unicode="&#xf768;" horiz-adv-x="389" 
d="M332 0h-71v252h-133v-252h-72v550h72v-236h133v236h71v-550z" />
    <glyph glyph-name="I.smcp" unicode="&#xf769;" horiz-adv-x="184" 
d="M128 0h-72v550h72v-550z" />
    <glyph glyph-name="J.smcp" unicode="&#xf76a;" horiz-adv-x="283" 
d="M99 -12c-37 0 -69 13 -94 41l25 55c17 -23 40 -33 62 -33c40 0 64 21 64 72v427h71v-434c0 -89 -52 -128 -128 -128z" />
    <glyph glyph-name="K.smcp" unicode="&#xf76b;" horiz-adv-x="370" 
d="M360 0h-82l-117 232l-33 -65v-167h-72v550h72v-272l141 272h80l-146 -261z" />
    <glyph glyph-name="L.smcp" unicode="&#xf76c;" horiz-adv-x="296" 
d="M275 0h-219v550h72v-487h147v-63z" />
    <glyph glyph-name="M.smcp" unicode="&#xf76d;" horiz-adv-x="490" 
d="M434 0h-70v397l-103 -397h-31l-102 397v-397h-72v550h93l97 -369l96 369h92v-550z" />
    <glyph glyph-name="N.smcp" unicode="&#xf76e;" horiz-adv-x="385" 
d="M329 0h-72l-129 376v-376h-72v550h76l126 -366v366h71v-550z" />
    <glyph glyph-name="O.smcp" unicode="&#xf76f;" horiz-adv-x="393" 
d="M196 -12c-115 0 -157 130 -157 287s42 287 157 287c116 0 158 -130 158 -287s-42 -287 -158 -287zM196 51c66 0 84 105 84 224c0 120 -18 224 -84 224s-84 -104 -84 -224c0 -119 18 -224 84 -224z" />
    <glyph glyph-name="P.smcp" unicode="&#xf770;" horiz-adv-x="333" 
d="M128 0h-72v550h116c95 0 138 -77 138 -166c0 -90 -43 -167 -138 -167h-44v-217zM165 280c49 0 72 44 72 103c0 60 -23 104 -72 104h-37v-207h37z" />
    <glyph glyph-name="Q.smcp" unicode="&#xf771;" horiz-adv-x="393" 
d="M196 -12c-115 0 -157 130 -157 287s42 287 157 287c116 0 158 -130 158 -287c0 -109 -20 -204 -71 -253l14 -35l-53 -20l-10 27c-12 -4 -25 -6 -38 -6zM196 51c5 0 10 0 15 2l-42 113l53 20l33 -88c18 42 25 107 25 177c0 120 -18 224 -84 224s-84 -104 -84 -224
c0 -119 18 -224 84 -224z" />
    <glyph glyph-name="R.smcp" unicode="&#xf772;" horiz-adv-x="350" 
d="M317 0h-78l-71 217h-40v-217h-72v550h117c89 0 137 -72 137 -165c0 -89 -39 -138 -78 -153zM165 280c49 0 72 44 72 104c0 59 -23 103 -72 103h-37v-207h37z" />
    <glyph glyph-name="S.smcp" unicode="&#xf773;" horiz-adv-x="309" 
d="M147 -12c-52 0 -90 16 -129 55l35 54c24 -31 57 -47 89 -47c36 0 68 30 68 82c0 121 -172 135 -172 294c0 80 53 136 130 136c45 0 76 -12 108 -42l-31 -54c-23 24 -46 34 -73 34c-34 0 -61 -28 -61 -74c0 -106 173 -128 173 -293c0 -84 -55 -145 -137 -145z" />
    <glyph glyph-name="T.smcp" unicode="&#xf774;" horiz-adv-x="272" 
d="M172 0h-72v487h-85v63h242v-63h-85v-487z" />
    <glyph glyph-name="U.smcp" unicode="&#xf775;" horiz-adv-x="389" 
d="M195 -12c-92 0 -139 61 -139 186v376h72v-398c0 -68 21 -101 67 -101c44 0 66 34 66 101v398h72v-376c0 -126 -47 -186 -138 -186z" />
    <glyph glyph-name="V.smcp" unicode="&#xf776;" horiz-adv-x="315" 
d="M198 0h-81l-112 550h73l79 -447l79 447h73z" />
    <glyph glyph-name="W.smcp" unicode="&#xf777;" horiz-adv-x="480" 
d="M376 0h-74l-62 404l-62 -404h-74l-96 550h73l62 -415l67 415h60l67 -415l62 415h74z" />
    <glyph glyph-name="X.smcp" unicode="&#xf778;" horiz-adv-x="324" 
d="M322 0h-79l-81 216l-81 -216h-79l117 280l-111 270h79l75 -206l74 206h79l-110 -269z" />
    <glyph glyph-name="Y.smcp" unicode="&#xf779;" horiz-adv-x="328" 
d="M200 0h-72v233l-128 317h75l89 -243l89 243h76l-129 -317v-233z" />
    <glyph glyph-name="Z.smcp" unicode="&#xf77a;" horiz-adv-x="292" 
d="M265 0h-238v56l153 431h-153v63h232v-55l-153 -432h159v-63z" />
    <glyph glyph-name="Aacute" unicode="&#xc1;" horiz-adv-x="364" 
d="M357 0h-77l-27 153h-142l-27 -153h-77l131 667h87zM244 220l-62 357l-62 -357h124zM291 867l-100 -144h-46l79 144h67z" />
    <glyph glyph-name="Abreve" unicode="&#x102;" horiz-adv-x="364" 
d="M357 0h-77l-27 153h-142l-27 -153h-77l131 667h87zM244 220l-62 357l-62 -357h124zM301 780c-27 -37 -70 -61 -119 -61c-48 0 -92 24 -119 61l36 28c18 -27 52 -44 83 -44c32 0 66 17 83 44z" />
    <glyph glyph-name="Acircumflex" unicode="&#xc2;" horiz-adv-x="364" 
d="M282 723h-41l-60 105l-57 -105h-42l66 144h66zM357 0h-77l-27 153h-142l-27 -153h-77l131 667h87zM244 220l-62 357l-62 -357h124z" />
    <glyph glyph-name="Adieresis" unicode="&#xc4;" horiz-adv-x="364" 
d="M296 770c0 -24 -20 -43 -44 -43c-23 0 -43 19 -43 43s20 43 43 43c24 0 44 -19 44 -43zM155 770c0 -24 -20 -43 -44 -43c-23 0 -43 19 -43 43s20 43 43 43c24 0 44 -19 44 -43zM357 0h-77l-27 153h-142l-27 -153h-77l131 667h87zM244 220l-62 357l-62 -357h124z" />
    <glyph glyph-name="Agrave" unicode="&#xc0;" horiz-adv-x="364" 
d="M357 0h-77l-27 153h-142l-27 -153h-77l131 667h87zM244 220l-62 357l-62 -357h124zM218 723h-46l-100 144h67z" />
    <glyph glyph-name="Amacron" unicode="&#x100;" horiz-adv-x="364" 
d="M357 0h-77l-27 153h-142l-27 -153h-77l131 667h87zM244 220l-62 357l-62 -357h124zM306 740h-248v45h248v-45z" />
    <glyph glyph-name="Aogonek" unicode="&#x104;" horiz-adv-x="364" 
d="M352 -115l35 -18c-9 -29 -29 -53 -68 -53c-41 0 -70 25 -70 76c0 42 20 79 50 110h-19l-27 153h-142l-27 -153h-77l131 667h87l132 -667c-39 -26 -66 -61 -66 -108c0 -29 12 -41 29 -41s28 13 32 34zM244 220l-62 357l-62 -357h124z" />
    <glyph glyph-name="Aring" unicode="&#xc5;" horiz-adv-x="364" 
d="M357 0h-77l-27 153h-142l-27 -153h-77l131 667h87zM244 220l-62 357l-62 -357h124zM182 692c-46 0 -83 38 -83 84c0 45 37 82 83 82s82 -37 82 -82c0 -46 -36 -84 -82 -84zM182 728c26 0 47 21 47 48c0 25 -21 46 -47 46s-47 -21 -47 -46c0 -27 21 -48 47 -48z" />
    <glyph glyph-name="Atilde" unicode="&#xc3;" horiz-adv-x="364" 
d="M357 0h-77l-27 153h-142l-27 -153h-77l131 667h87zM244 220l-62 357l-62 -357h124zM222 721c-55 0 -52 95 -83 95c-17 0 -31 -27 -31 -89h-39c0 74 23 134 73 134c55 0 53 -95 84 -95c17 0 30 27 30 89h39c0 -74 -22 -134 -73 -134z" />
    <glyph glyph-name="uni1EA0" unicode="&#x1ea0;" horiz-adv-x="364" 
d="M357 0h-77l-27 153h-142l-27 -153h-77l131 667h87zM244 220l-62 357l-62 -357h124zM183 -182c-24 0 -44 20 -44 44s20 44 44 44s44 -20 44 -44s-20 -44 -44 -44z" />
    <glyph glyph-name="uni1EA2" unicode="&#x1ea2;" horiz-adv-x="364" 
d="M357 0h-77l-27 153h-142l-27 -153h-77l131 667h87zM244 220l-62 357l-62 -357h124zM156 766l-31 7c6 26 25 47 57 47s55 -19 55 -61c0 -24 -8 -44 -20 -62h-34c15 20 22 40 22 61c0 23 -11 32 -23 32c-15 0 -22 -9 -26 -24z" />
    <glyph glyph-name="uni1EA4" unicode="&#x1ea4;" horiz-adv-x="364" 
d="M282 682h-41l-60 79l-57 -79h-42l66 108h66zM357 0h-77l-27 153h-142l-27 -153h-77l131 667h87zM244 220l-62 357l-62 -357h124zM405 843l-100 -108h-46l79 108h67z" />
    <glyph glyph-name="uni1EAC" unicode="&#x1eac;" horiz-adv-x="364" 
d="M357 0h-77l-27 153h-142l-27 -153h-77l131 667h87zM244 220l-62 357l-62 -357h124zM282 723h-41l-60 105l-57 -105h-42l66 144h66zM183 -182c-24 0 -44 20 -44 44s20 44 44 44s44 -20 44 -44s-20 -44 -44 -44z" />
    <glyph glyph-name="uni1EA6" unicode="&#x1ea6;" horiz-adv-x="364" 
d="M282 682h-41l-60 79l-57 -79h-42l66 108h66zM357 0h-77l-27 153h-142l-27 -153h-77l131 667h87zM244 220l-62 357l-62 -357h124zM105 735h-46l-100 108h67z" />
    <glyph glyph-name="uni1EA8" unicode="&#x1ea8;" horiz-adv-x="364" 
d="M282 682h-41l-60 79l-57 -79h-42l66 108h66zM357 0h-77l-27 153h-142l-27 -153h-77l131 667h87zM244 220l-62 357l-62 -357h124zM260 795l-31 5c6 20 25 35 57 35s55 -14 55 -45c0 -18 -8 -33 -20 -47h-34c15 15 22 30 22 46c0 17 -11 24 -23 24c-15 0 -22 -7 -26 -18z
" />
    <glyph glyph-name="uni1EAE" unicode="&#x1eae;" horiz-adv-x="364" 
d="M357 0h-77l-27 153h-142l-27 -153h-77l131 667h87zM244 220l-62 357l-62 -357h124zM290 838l-100 -98h-46l79 98h67zM301 738c-27 -32 -70 -53 -119 -53c-48 0 -92 21 -119 53l36 24c18 -23 52 -38 83 -38c32 0 66 15 83 38z" />
    <glyph glyph-name="uni1EAA" unicode="&#x1eaa;" horiz-adv-x="364" 
d="M282 678h-41l-60 52l-57 -52h-42l66 72h66zM357 0h-77l-27 153h-142l-27 -153h-77l131 667h87zM244 220l-62 357l-62 -357h124zM221 757c-55 0 -52 47 -83 47c-17 0 -31 -13 -31 -44h-39c0 37 23 67 73 67c55 0 53 -48 84 -48c17 0 30 14 30 45h39c0 -37 -22 -67 -73 -67
z" />
    <glyph glyph-name="uni1EB0" unicode="&#x1eb0;" horiz-adv-x="364" 
d="M357 0h-77l-27 153h-142l-27 -153h-77l131 667h87zM244 220l-62 357l-62 -357h124zM222 740h-46l-100 98h67zM301 738c-27 -32 -70 -53 -119 -53c-48 0 -92 21 -119 53l36 24c18 -23 52 -38 83 -38c32 0 66 15 83 38z" />
    <glyph glyph-name="uni1EB2" unicode="&#x1eb2;" horiz-adv-x="364" 
d="M357 0h-77l-27 153h-142l-27 -153h-77l131 667h87zM244 220l-62 357l-62 -357h124zM157 791l-31 5c6 18 25 32 57 32s55 -13 55 -42c0 -16 -8 -30 -20 -42h-34c15 13 22 27 22 42s-11 22 -23 22c-15 0 -22 -7 -26 -17zM301 738c-27 -32 -70 -53 -119 -53
c-48 0 -92 21 -119 53l36 24c18 -23 52 -38 83 -38c32 0 66 15 83 38z" />
    <glyph glyph-name="uni1EB4" unicode="&#x1eb4;" horiz-adv-x="364" 
d="M357 0h-77l-27 153h-142l-27 -153h-77l131 667h87zM244 220l-62 357l-62 -357h124zM300 728c-27 -26 -70 -42 -119 -42c-48 0 -92 16 -119 42l36 19c18 -19 52 -30 83 -30c32 0 66 11 83 30zM221 757c-55 0 -52 47 -83 47c-17 0 -31 -13 -31 -44h-39c0 37 23 67 73 67
c55 0 53 -48 84 -48c17 0 30 14 30 45h39c0 -37 -22 -67 -73 -67z" />
    <glyph glyph-name="uni1EB6" unicode="&#x1eb6;" horiz-adv-x="364" 
d="M357 0h-77l-27 153h-142l-27 -153h-77l131 667h87zM244 220l-62 357l-62 -357h124zM183 -182c-24 0 -44 20 -44 44s20 44 44 44s44 -20 44 -44s-20 -44 -44 -44zM301 780c-27 -37 -70 -61 -119 -61c-48 0 -92 24 -119 61l36 28c18 -27 52 -44 83 -44c32 0 66 17 83 44z
" />
    <glyph glyph-name="AE" unicode="&#xc6;" horiz-adv-x="554" 
d="M511 0h-248v153h-125l-47 -153h-77l217 667h280v-67h-172v-225h165v-67h-165v-241h172v-67zM263 220v357l-107 -357h107z" />
    <glyph glyph-name="AEacute" unicode="&#x1fc;" horiz-adv-x="554" 
d="M411 867l-100 -144h-46l79 144h67zM511 0h-248v153h-125l-47 -153h-77l217 667h280v-67h-172v-225h165v-67h-165v-241h172v-67zM263 220v357l-107 -357h107z" />
    <glyph glyph-name="uni1E02" unicode="&#x1e02;" horiz-adv-x="403" 
d="M213 0h-150v667h144c94 0 144 -68 144 -170c0 -84 -34 -134 -87 -153c58 -10 96 -85 96 -164c0 -109 -45 -180 -147 -180zM192 375c61 0 81 48 81 112c0 63 -20 113 -81 113h-54v-225h54zM196 67c61 0 86 46 86 120c0 64 -25 121 -86 121h-58v-241h58zM201 724
c-24 0 -44 20 -44 44s20 44 44 44s44 -20 44 -44s-20 -44 -44 -44z" />
    <glyph glyph-name="Cacute" unicode="&#x106;" horiz-adv-x="390" 
d="M327 867l-100 -144h-46l79 144h67zM217 -12c-125 0 -174 151 -174 345s49 345 174 345c85 0 119 -66 138 -128l-62 -24c-16 52 -34 84 -76 84c-70 0 -96 -120 -96 -277s26 -277 96 -277c47 0 66 44 78 101l63 -23c-17 -72 -53 -146 -141 -146z" />
    <glyph glyph-name="Ccedilla" unicode="&#xc7;" horiz-adv-x="390" 
d="M212 -187c-32 0 -57 14 -77 30l17 35c20 -18 37 -27 59 -27c25 0 47 17 47 43c0 20 -11 34 -29 34c-12 0 -20 -6 -28 -14l-31 17l22 59c-107 19 -149 162 -149 343c0 194 49 345 174 345c85 0 119 -66 138 -128l-62 -24c-16 52 -34 84 -76 84c-70 0 -96 -120 -96 -277
s26 -277 96 -277c47 0 66 44 78 101l63 -23c-16 -68 -49 -136 -125 -145l-16 -41c9 7 17 10 29 10c30 0 54 -26 54 -65c0 -47 -38 -80 -88 -80z" />
    <glyph glyph-name="Ccircumflex" unicode="&#x108;" horiz-adv-x="390" 
d="M318 723h-41l-60 105l-57 -105h-42l66 144h66zM217 -12c-125 0 -174 151 -174 345s49 345 174 345c85 0 119 -66 138 -128l-62 -24c-16 52 -34 84 -76 84c-70 0 -96 -120 -96 -277s26 -277 96 -277c47 0 66 44 78 101l63 -23c-17 -72 -53 -146 -141 -146z" />
    <glyph glyph-name="Cdotaccent" unicode="&#x10a;" horiz-adv-x="390" 
d="M217 -12c-125 0 -174 151 -174 345s49 345 174 345c85 0 119 -66 138 -128l-62 -24c-16 52 -34 84 -76 84c-70 0 -96 -120 -96 -277s26 -277 96 -277c47 0 66 44 78 101l63 -23c-17 -72 -53 -146 -141 -146zM217 724c-24 0 -44 20 -44 44s20 44 44 44s44 -20 44 -44
s-20 -44 -44 -44z" />
    <glyph glyph-name="Ccaron" unicode="&#x10c;" horiz-adv-x="390" 
d="M253 723h-66l-69 144h42l60 -105l57 105h41zM217 -12c-125 0 -174 151 -174 345s49 345 174 345c85 0 119 -66 138 -128l-62 -24c-16 52 -34 84 -76 84c-70 0 -96 -120 -96 -277s26 -277 96 -277c47 0 66 44 78 101l63 -23c-17 -72 -53 -146 -141 -146z" />
    <glyph glyph-name="Dcaron" unicode="&#x10e;" horiz-adv-x="427" 
d="M244 723h-66l-69 144h42l60 -105l57 105h41zM190 0h-127v667h127c138 0 195 -142 195 -334c0 -194 -56 -333 -195 -333zM190 67c84 0 116 110 116 266c0 157 -33 267 -116 267h-52v-533h52z" />
    <glyph glyph-name="Dcroat" unicode="&#x110;" horiz-adv-x="446" 
d="M209 0h-127v301h-61v56h61v310h127c138 0 195 -142 195 -334c0 -194 -56 -333 -195 -333zM209 67c84 0 116 110 116 266c0 157 -33 267 -116 267h-52v-243h83v-56h-83v-234h52z" />
    <glyph glyph-name="uni1E0A" unicode="&#x1e0a;" horiz-adv-x="427" 
d="M190 0h-127v667h127c138 0 195 -142 195 -334c0 -194 -56 -333 -195 -333zM190 67c84 0 116 110 116 266c0 157 -33 267 -116 267h-52v-533h52zM214 724c-24 0 -44 20 -44 44s20 44 44 44s44 -20 44 -44s-20 -44 -44 -44z" />
    <glyph glyph-name="Eacute" unicode="&#xc9;" horiz-adv-x="352" 
d="M296 867l-100 -144h-46l79 144h67zM311 0h-248v667h248v-67h-173v-225h166v-67h-166v-241h173v-67z" />
    <glyph glyph-name="Ebreve" unicode="&#x114;" horiz-adv-x="352" 
d="M311 0h-248v667h248v-67h-173v-225h166v-67h-166v-241h173v-67zM307 780c-27 -37 -70 -61 -119 -61c-48 0 -92 24 -119 61l36 28c18 -27 52 -44 83 -44c32 0 66 17 83 44z" />
    <glyph glyph-name="Ecircumflex" unicode="&#xca;" horiz-adv-x="352" 
d="M289 723h-41l-60 105l-57 -105h-42l66 144h66zM311 0h-248v667h248v-67h-173v-225h166v-67h-166v-241h173v-67z" />
    <glyph glyph-name="Edieresis" unicode="&#xcb;" horiz-adv-x="352" 
d="M302 770c0 -24 -20 -43 -44 -43c-23 0 -43 19 -43 43s20 43 43 43c24 0 44 -19 44 -43zM161 770c0 -24 -20 -43 -44 -43c-23 0 -43 19 -43 43s20 43 43 43c24 0 44 -19 44 -43zM311 0h-248v667h248v-67h-173v-225h166v-67h-166v-241h173v-67z" />
    <glyph glyph-name="Edotaccent" unicode="&#x116;" horiz-adv-x="352" 
d="M311 0h-248v667h248v-67h-173v-225h166v-67h-166v-241h173v-67zM194 724c-24 0 -44 20 -44 44s20 44 44 44s44 -20 44 -44s-20 -44 -44 -44z" />
    <glyph glyph-name="Egrave" unicode="&#xc8;" horiz-adv-x="352" 
d="M311 0h-248v667h248v-67h-173v-225h166v-67h-166v-241h173v-67zM223 723h-46l-100 144h67z" />
    <glyph glyph-name="Emacron" unicode="&#x112;" horiz-adv-x="352" 
d="M311 0h-248v667h248v-67h-173v-225h166v-67h-166v-241h173v-67zM312 740h-248v45h248v-45z" />
    <glyph glyph-name="Eogonek" unicode="&#x118;" horiz-adv-x="352" 
d="M311 0c-39 -26 -66 -61 -66 -108c0 -29 12 -41 29 -41s28 13 32 34l35 -18c-9 -29 -29 -53 -68 -53c-41 0 -70 25 -70 76c0 42 20 79 50 110h-190v667h248v-67h-173v-225h166v-67h-166v-241h173v-67z" />
    <glyph glyph-name="Ecaron" unicode="&#x11a;" horiz-adv-x="352" 
d="M219 723h-66l-69 144h42l60 -105l57 105h41zM311 0h-248v667h248v-67h-173v-225h166v-67h-166v-241h173v-67z" />
    <glyph glyph-name="uni1EB8" unicode="&#x1eb8;" horiz-adv-x="352" 
d="M311 0h-248v667h248v-67h-173v-225h166v-67h-166v-241h173v-67zM194 -182c-24 0 -44 20 -44 44s20 44 44 44s44 -20 44 -44s-20 -44 -44 -44z" />
    <glyph glyph-name="uni1EBA" unicode="&#x1eba;" horiz-adv-x="352" 
d="M311 0h-248v667h248v-67h-173v-225h166v-67h-166v-241h173v-67zM151 766l-31 7c6 26 25 47 57 47s55 -19 55 -61c0 -24 -8 -44 -20 -62h-34c15 20 22 40 22 61c0 23 -11 32 -23 32c-15 0 -22 -9 -26 -24z" />
    <glyph glyph-name="uni1EBC" unicode="&#x1ebc;" horiz-adv-x="352" 
d="M311 0h-248v667h248v-67h-173v-225h166v-67h-166v-241h173v-67zM225 721c-55 0 -52 95 -83 95c-17 0 -31 -27 -31 -89h-39c0 74 23 134 73 134c55 0 53 -95 84 -95c17 0 30 27 30 89h39c0 -74 -22 -134 -73 -134z" />
    <glyph glyph-name="uni1EBE" unicode="&#x1ebe;" horiz-adv-x="352" 
d="M288 682h-41l-60 79l-57 -79h-42l66 108h66zM411 843l-100 -108h-46l79 108h67zM311 0h-248v667h248v-67h-173v-225h166v-67h-166v-241h173v-67z" />
    <glyph glyph-name="uni1EC0" unicode="&#x1ec0;" horiz-adv-x="352" 
d="M287 682h-41l-60 79l-57 -79h-42l66 108h66zM311 0h-248v667h248v-67h-173v-225h166v-67h-166v-241h173v-67zM110 735h-46l-100 108h67z" />
    <glyph glyph-name="uni1EC2" unicode="&#x1ec2;" horiz-adv-x="352" 
d="M287 682h-41l-60 79l-57 -79h-42l66 108h66zM311 0h-248v667h248v-67h-173v-225h166v-67h-166v-241h173v-67zM264 795l-31 5c6 20 25 35 57 35s55 -14 55 -45c0 -18 -8 -33 -20 -47h-34c15 15 22 30 22 46c0 17 -11 24 -23 24c-15 0 -22 -7 -26 -18z" />
    <glyph glyph-name="uni1EC4" unicode="&#x1ec4;" horiz-adv-x="352" 
d="M286 678h-41l-60 52l-57 -52h-42l66 72h66zM311 0h-248v667h248v-67h-173v-225h166v-67h-166v-241h173v-67zM225 757c-55 0 -52 47 -83 47c-17 0 -31 -13 -31 -44h-39c0 37 23 67 73 67c55 0 53 -48 84 -48c17 0 30 14 30 45h39c0 -37 -22 -67 -73 -67z" />
    <glyph glyph-name="uni1EC6" unicode="&#x1ec6;" horiz-adv-x="352" 
d="M289 723h-41l-60 105l-57 -105h-42l66 144h66zM311 0h-248v667h248v-67h-173v-225h166v-67h-166v-241h173v-67zM194 -182c-24 0 -44 20 -44 44s20 44 44 44s44 -20 44 -44s-20 -44 -44 -44z" />
    <glyph glyph-name="uni1E1E" unicode="&#x1e1e;" horiz-adv-x="351" 
d="M190 724c-24 0 -44 20 -44 44s20 44 44 44s44 -20 44 -44s-20 -44 -44 -44zM138 0h-75v667h248v-67h-173v-225h166v-67h-166v-308z" />
    <glyph glyph-name="Gcircumflex" unicode="&#x11c;" horiz-adv-x="411" 
d="M318 723h-41l-60 105l-57 -105h-42l66 144h66zM217 -12c-121 0 -174 141 -174 345c0 205 53 345 174 345c78 0 119 -59 138 -128l-62 -24c-15 50 -33 84 -76 84c-67 0 -96 -110 -96 -277c0 -166 29 -277 96 -277c33 0 57 15 72 41v175h-89v67h157v-271
c-34 -53 -81 -80 -140 -80z" />
    <glyph glyph-name="Gbreve" unicode="&#x11e;" horiz-adv-x="411" 
d="M217 -12c-121 0 -174 141 -174 345c0 205 53 345 174 345c78 0 119 -59 138 -128l-62 -24c-15 50 -33 84 -76 84c-67 0 -96 -110 -96 -277c0 -166 29 -277 96 -277c33 0 57 15 72 41v175h-89v67h157v-271c-34 -53 -81 -80 -140 -80zM338 780c-27 -37 -70 -61 -119 -61
c-48 0 -92 24 -119 61l36 28c18 -27 52 -44 83 -44c32 0 66 17 83 44z" />
    <glyph glyph-name="Gdotaccent" unicode="&#x120;" horiz-adv-x="411" 
d="M217 -12c-121 0 -174 141 -174 345c0 205 53 345 174 345c78 0 119 -59 138 -128l-62 -24c-15 50 -33 84 -76 84c-67 0 -96 -110 -96 -277c0 -166 29 -277 96 -277c33 0 57 15 72 41v175h-89v67h157v-271c-34 -53 -81 -80 -140 -80zM218 724c-24 0 -44 20 -44 44
s20 44 44 44s44 -20 44 -44s-20 -44 -44 -44z" />
    <glyph glyph-name="Gcommaaccent" unicode="&#x122;" horiz-adv-x="411" 
d="M264 -138c0 -54 -32 -104 -70 -132l-31 25c30 21 55 57 57 87c-1 0 -7 -1 -10 -1c-23 0 -40 18 -40 42c0 23 19 44 43 44c27 0 51 -23 51 -65zM217 -12c-121 0 -174 141 -174 345c0 205 53 345 174 345c78 0 119 -59 138 -128l-62 -24c-15 50 -33 84 -76 84
c-67 0 -96 -110 -96 -277c0 -166 29 -277 96 -277c33 0 57 15 72 41v175h-89v67h157v-271c-34 -53 -81 -80 -140 -80z" />
    <glyph glyph-name="Gbreve.alt1" horiz-adv-x="411" 
d="M337 780c-27 -37 -70 -61 -119 -61c-48 0 -92 24 -119 61l36 28c18 -27 52 -44 83 -44c32 0 66 17 83 44zM215 -12c-119 0 -172 141 -172 345c0 205 53 345 174 345c78 0 119 -59 138 -128l-62 -24c-15 50 -33 84 -76 84c-67 0 -96 -110 -96 -277c0 -166 29 -277 96 -277
c65 0 85 105 86 217h-103v67h177c0 -226 -41 -352 -162 -352z" />
    <glyph glyph-name="Gcommaaccent.alt1" horiz-adv-x="411" 
d="M269 -138c0 -54 -32 -104 -70 -132l-31 25c30 21 55 57 57 87c-1 0 -7 -1 -10 -1c-23 0 -40 18 -40 42c0 23 19 44 43 44c27 0 51 -23 51 -65zM215 -12c-119 0 -172 141 -172 345c0 205 53 345 174 345c78 0 119 -59 138 -128l-62 -24c-15 50 -33 84 -76 84
c-67 0 -96 -110 -96 -277c0 -166 29 -277 96 -277c65 0 85 105 86 217h-103v67h177c0 -226 -41 -352 -162 -352z" />
    <glyph glyph-name="Gcircumflex.alt1" horiz-adv-x="411" 
d="M314 723h-41l-60 105l-57 -105h-42l66 144h66zM215 -12c-119 0 -172 141 -172 345c0 205 53 345 174 345c78 0 119 -59 138 -128l-62 -24c-15 50 -33 84 -76 84c-67 0 -96 -110 -96 -277c0 -166 29 -277 96 -277c65 0 85 105 86 217h-103v67h177
c0 -226 -41 -352 -162 -352z" />
    <glyph glyph-name="Gdotaccent.alt1" horiz-adv-x="411" 
d="M217 724c-24 0 -44 20 -44 44s20 44 44 44s44 -20 44 -44s-20 -44 -44 -44zM215 -12c-119 0 -172 141 -172 345c0 205 53 345 174 345c78 0 119 -59 138 -128l-62 -24c-15 50 -33 84 -76 84c-67 0 -96 -110 -96 -277c0 -166 29 -277 96 -277c65 0 85 105 86 217h-103v67
h177c0 -226 -41 -352 -162 -352z" />
    <glyph glyph-name="Hbar" unicode="&#x126;" horiz-adv-x="478" 
d="M394 0h-75v309h-160v-309h-75v501h-63v45h63v121h75v-121h160v121h75v-121h58v-45h-58v-501zM159 377h160v124h-160v-124z" />
    <glyph glyph-name="Hcircumflex" unicode="&#x124;" horiz-adv-x="436" 
d="M318 723h-41l-60 105l-57 -105h-42l66 144h66zM373 0h-75v309h-160v-309h-75v667h75v-290h160v290h75v-667z" />
    <glyph glyph-name="uni1E22" unicode="&#x1e22;" horiz-adv-x="436" 
d="M373 0h-75v309h-160v-309h-75v667h75v-290h160v290h75v-667zM218 724c-24 0 -44 20 -44 44s20 44 44 44s44 -20 44 -44s-20 -44 -44 -44z" />
    <glyph glyph-name="Iacute" unicode="&#xcd;" horiz-adv-x="201" 
d="M138 0h-75v667h75v-667zM210 867l-100 -144h-46l79 144h67z" />
    <glyph glyph-name="Ibreve" unicode="&#x12c;" horiz-adv-x="201" 
d="M138 0h-75v667h75v-667zM219 780c-27 -37 -70 -61 -119 -61c-48 0 -92 24 -119 61l36 28c18 -27 52 -44 83 -44c32 0 66 17 83 44z" />
    <glyph glyph-name="Icircumflex" unicode="&#xce;" horiz-adv-x="201" 
d="M201 723h-41l-60 105l-57 -105h-42l66 144h66zM138 0h-75v667h75v-667z" />
    <glyph glyph-name="Idieresis" unicode="&#xcf;" horiz-adv-x="201" 
d="M217 770c0 -24 -20 -43 -44 -43c-23 0 -43 19 -43 43s20 43 43 43c24 0 44 -19 44 -43zM76 770c0 -24 -20 -43 -44 -43c-23 0 -43 19 -43 43s20 43 43 43c24 0 44 -19 44 -43zM138 0h-75v667h75v-667z" />
    <glyph glyph-name="Idotaccent" unicode="&#x130;" horiz-adv-x="201" 
d="M138 0h-75v667h75v-667zM101 724c-24 0 -44 20 -44 44s20 44 44 44s44 -20 44 -44s-20 -44 -44 -44z" />
    <glyph glyph-name="Igrave" unicode="&#xcc;" horiz-adv-x="201" 
d="M138 0h-75v667h75v-667zM137 723h-46l-100 144h67z" />
    <glyph glyph-name="Imacron" unicode="&#x12a;" horiz-adv-x="201" 
d="M138 0h-75v667h75v-667zM224 740h-248v45h248v-45z" />
    <glyph glyph-name="Iogonek" unicode="&#x12e;" horiz-adv-x="201" 
d="M134 -115l35 -18c-9 -29 -29 -53 -68 -53c-41 0 -70 25 -70 76c0 42 20 79 50 110h-18v667h75v-667h1c-39 -26 -66 -61 -66 -108c0 -29 12 -41 29 -41s28 13 32 34z" />
    <glyph glyph-name="Itilde" unicode="&#x128;" horiz-adv-x="201" 
d="M138 0h-75v667h75v-667zM142 721c-55 0 -52 95 -83 95c-17 0 -31 -27 -31 -89h-39c0 74 23 134 73 134c55 0 53 -95 84 -95c17 0 30 27 30 89h39c0 -74 -22 -134 -73 -134z" />
    <glyph glyph-name="uni1EC8" unicode="&#x1ec8;" horiz-adv-x="201" 
d="M138 0h-75v667h75v-667zM75 766l-31 7c6 26 25 47 57 47s55 -19 55 -61c0 -24 -8 -44 -20 -62h-34c15 20 22 40 22 61c0 23 -11 32 -23 32c-15 0 -22 -9 -26 -24z" />
    <glyph glyph-name="uni1ECA" unicode="&#x1eca;" horiz-adv-x="201" 
d="M138 0h-75v667h75v-667zM100 -182c-24 0 -44 20 -44 44s20 44 44 44s44 -20 44 -44s-20 -44 -44 -44z" />
    <glyph glyph-name="IJ" unicode="&#x132;" horiz-adv-x="522" 
d="M138 0h-75v667h75v-667zM314 -12c-40 0 -75 13 -106 46l28 60c21 -28 46 -38 71 -38c49 0 78 26 78 89v522h75v-525c0 -107 -59 -154 -146 -154z" />
    <glyph glyph-name="Jcircumflex" unicode="&#x134;" horiz-adv-x="321" 
d="M321 723h-41l-60 105l-57 -105h-42l66 144h66zM113 -12c-40 0 -75 13 -106 46l28 60c21 -28 46 -38 71 -38c49 0 78 26 78 89v522h75v-525c0 -107 -59 -154 -146 -154z" />
    <glyph glyph-name="Kcommaaccent" unicode="&#x136;" horiz-adv-x="418" 
d="M264 -138c0 -54 -32 -104 -70 -132l-31 25c30 21 55 57 57 87c-1 0 -7 -1 -10 -1c-23 0 -40 18 -40 42c0 23 19 44 43 44c27 0 51 -23 51 -65zM407 0h-87l-137 289l-45 -86v-203h-75v667h75v-347l171 347h85l-169 -317z" />
    <glyph glyph-name="Lacute" unicode="&#x139;" horiz-adv-x="333" 
d="M296 867l-100 -144h-46l79 144h67zM311 0h-248v667h75v-600h173v-67z" />
    <glyph glyph-name="Lcaron" unicode="&#x13d;" horiz-adv-x="333" 
d="M288 615c0 -54 -32 -104 -70 -132l-31 25c30 21 55 57 57 87c-1 0 -7 -1 -10 -1c-23 0 -40 18 -40 42c0 23 19 44 43 44c27 0 51 -23 51 -65zM311 0h-248v667h75v-600h173v-67z" />
    <glyph glyph-name="Lcommaaccent" unicode="&#x13b;" horiz-adv-x="333" 
d="M229 -138c0 -54 -32 -104 -70 -132l-31 25c30 21 55 57 57 87c-1 0 -7 -1 -10 -1c-23 0 -40 18 -40 42c0 23 19 44 43 44c27 0 51 -23 51 -65zM311 0h-248v667h75v-600h173v-67z" />
    <glyph glyph-name="Ldot" unicode="&#x13f;" horiz-adv-x="362" 
d="M311 0h-248v667h75v-600h173v-67zM333 342c0 -28 -23 -52 -52 -52c-28 0 -52 24 -52 52c0 27 24 51 52 51c29 0 52 -24 52 -51z" />
    <glyph glyph-name="Lslash" unicode="&#x141;" horiz-adv-x="346" 
d="M21 247v67l55 32v321h75v-278l60 35v-66l-60 -35v-256h173v-67h-248v279z" />
    <glyph glyph-name="Nacute" unicode="&#x143;" horiz-adv-x="436" 
d="M327 867l-100 -144h-46l79 144h67zM373 0h-72l-163 462v-462h-75v667h75l160 -453v453h75v-667z" />
    <glyph glyph-name="Ncaron" unicode="&#x147;" horiz-adv-x="436" 
d="M253 723h-66l-69 144h42l60 -105l57 105h41zM373 0h-72l-163 462v-462h-75v667h75l160 -453v453h75v-667z" />
    <glyph glyph-name="Ncommaaccent" unicode="&#x145;" horiz-adv-x="436" 
d="M273 -138c0 -54 -32 -104 -70 -132l-31 25c30 21 55 57 57 87c-1 0 -7 -1 -10 -1c-23 0 -40 18 -40 42c0 23 19 44 43 44c27 0 51 -23 51 -65zM373 0h-72l-163 462v-462h-75v667h75l160 -453v453h75v-667z" />
    <glyph glyph-name="Ntilde" unicode="&#xd1;" horiz-adv-x="436" 
d="M255 721c-55 0 -52 95 -83 95c-17 0 -31 -27 -31 -89h-39c0 74 23 134 73 134c55 0 53 -95 84 -95c17 0 30 27 30 89h39c0 -74 -22 -134 -73 -134zM373 0h-72l-163 462v-462h-75v667h75l160 -453v453h75v-667z" />
    <glyph glyph-name="Eng" unicode="&#x14a;" horiz-adv-x="436" 
d="M227 -196c-40 0 -75 13 -106 46l29 59c20 -28 45 -38 70 -38c49 0 78 26 78 89v49l-160 477v-486h-75v667h75l160 -477v477h75v-709c0 -107 -58 -154 -146 -154z" />
    <glyph glyph-name="Oacute" unicode="&#xd3;" horiz-adv-x="434" 
d="M326 867l-100 -144h-46l79 144h67zM217 -12c-127 0 -174 155 -174 345s47 345 174 345c126 0 174 -155 174 -345s-48 -345 -174 -345zM217 56c71 0 96 128 96 277c0 151 -25 277 -96 277c-72 0 -96 -126 -96 -277c0 -149 24 -277 96 -277z" />
    <glyph glyph-name="Obreve" unicode="&#x14e;" horiz-adv-x="434" 
d="M217 -12c-127 0 -174 155 -174 345s47 345 174 345c126 0 174 -155 174 -345s-48 -345 -174 -345zM217 56c71 0 96 128 96 277c0 151 -25 277 -96 277c-72 0 -96 -126 -96 -277c0 -149 24 -277 96 -277zM336 780c-27 -37 -70 -61 -119 -61c-48 0 -92 24 -119 61l36 28
c18 -27 52 -44 83 -44c32 0 66 17 83 44z" />
    <glyph glyph-name="Ocircumflex" unicode="&#xd4;" horiz-adv-x="434" 
d="M318 723h-41l-60 105l-57 -105h-42l66 144h66zM217 -12c-127 0 -174 155 -174 345s47 345 174 345c126 0 174 -155 174 -345s-48 -345 -174 -345zM217 56c71 0 96 128 96 277c0 151 -25 277 -96 277c-72 0 -96 -126 -96 -277c0 -149 24 -277 96 -277z" />
    <glyph glyph-name="Odieresis" unicode="&#xd6;" horiz-adv-x="434" 
d="M331 770c0 -24 -20 -43 -44 -43c-23 0 -43 19 -43 43s20 43 43 43c24 0 44 -19 44 -43zM190 770c0 -24 -20 -43 -44 -43c-23 0 -43 19 -43 43s20 43 43 43c24 0 44 -19 44 -43zM217 -12c-127 0 -174 155 -174 345s47 345 174 345c126 0 174 -155 174 -345
s-48 -345 -174 -345zM217 56c71 0 96 128 96 277c0 151 -25 277 -96 277c-72 0 -96 -126 -96 -277c0 -149 24 -277 96 -277z" />
    <glyph glyph-name="Ograve" unicode="&#xd2;" horiz-adv-x="434" 
d="M253 723h-46l-100 144h67zM217 -12c-127 0 -174 155 -174 345s47 345 174 345c126 0 174 -155 174 -345s-48 -345 -174 -345zM217 56c71 0 96 128 96 277c0 151 -25 277 -96 277c-72 0 -96 -126 -96 -277c0 -149 24 -277 96 -277z" />
    <glyph glyph-name="Ohungarumlaut" unicode="&#x150;" horiz-adv-x="434" 
d="M246 867l-77 -144h-38l56 144h59zM363 867l-78 -144h-38l56 144h60zM217 -12c-127 0 -174 155 -174 345s47 345 174 345c126 0 174 -155 174 -345s-48 -345 -174 -345zM217 56c71 0 96 128 96 277c0 151 -25 277 -96 277c-72 0 -96 -126 -96 -277c0 -149 24 -277 96 -277
z" />
    <glyph glyph-name="Omacron" unicode="&#x14c;" horiz-adv-x="434" 
d="M340 740h-248v45h248v-45zM217 -12c-127 0 -174 155 -174 345s47 345 174 345c126 0 174 -155 174 -345s-48 -345 -174 -345zM217 56c71 0 96 128 96 277c0 151 -25 277 -96 277c-72 0 -96 -126 -96 -277c0 -149 24 -277 96 -277z" />
    <glyph glyph-name="Oslash" unicode="&#xd8;" horiz-adv-x="434" 
d="M217 -12c-41 0 -73 16 -99 44l-13 -32h-52l33 80c-30 63 -43 153 -43 253c0 190 47 345 174 345c41 0 73 -17 99 -45l14 34h51l-34 -82c31 -63 44 -153 44 -252c0 -190 -48 -345 -174 -345zM121 333c0 -53 3 -103 10 -145l151 365c-15 35 -36 57 -65 57
c-72 0 -96 -126 -96 -277zM217 56c71 0 96 128 96 277c0 53 -3 103 -10 145l-152 -366c15 -35 37 -56 66 -56z" />
    <glyph glyph-name="Oslashacute" unicode="&#x1fe;" horiz-adv-x="434" 
d="M326 867l-100 -144h-46l79 144h67zM217 -12c-41 0 -73 16 -99 44l-13 -32h-52l33 80c-30 63 -43 153 -43 253c0 190 47 345 174 345c41 0 73 -17 99 -45l14 34h51l-34 -82c31 -63 44 -153 44 -252c0 -190 -48 -345 -174 -345zM121 333c0 -53 3 -103 10 -145l151 365
c-15 35 -36 57 -65 57c-72 0 -96 -126 -96 -277zM217 56c71 0 96 128 96 277c0 53 -3 103 -10 145l-152 -366c15 -35 37 -56 66 -56z" />
    <glyph glyph-name="Otilde" unicode="&#xd5;" horiz-adv-x="434" 
d="M217 -12c-127 0 -174 155 -174 345s47 345 174 345c126 0 174 -155 174 -345s-48 -345 -174 -345zM217 56c71 0 96 128 96 277c0 151 -25 277 -96 277c-72 0 -96 -126 -96 -277c0 -149 24 -277 96 -277zM258 721c-55 0 -52 95 -83 95c-17 0 -31 -27 -31 -89h-39
c0 74 23 134 73 134c55 0 53 -95 84 -95c17 0 30 27 30 89h39c0 -74 -22 -134 -73 -134z" />
    <glyph glyph-name="uni1ECC" unicode="&#x1ecc;" horiz-adv-x="434" 
d="M217 -12c-127 0 -174 155 -174 345s47 345 174 345c126 0 174 -155 174 -345s-48 -345 -174 -345zM217 56c71 0 96 128 96 277c0 151 -25 277 -96 277c-72 0 -96 -126 -96 -277c0 -149 24 -277 96 -277zM219 -182c-24 0 -44 20 -44 44s20 44 44 44s44 -20 44 -44
s-20 -44 -44 -44z" />
    <glyph glyph-name="uni1ECE" unicode="&#x1ece;" horiz-adv-x="434" 
d="M217 -12c-127 0 -174 155 -174 345s47 345 174 345c126 0 174 -155 174 -345s-48 -345 -174 -345zM217 56c71 0 96 128 96 277c0 151 -25 277 -96 277c-72 0 -96 -126 -96 -277c0 -149 24 -277 96 -277zM193 766l-31 7c6 26 25 47 57 47s55 -19 55 -61
c0 -24 -8 -44 -20 -62h-34c15 20 22 40 22 61c0 23 -11 32 -23 32c-15 0 -22 -9 -26 -24z" />
    <glyph glyph-name="uni1ED0" unicode="&#x1ed0;" horiz-adv-x="434" 
d="M315 682h-41l-60 79l-57 -79h-42l66 108h66zM437 843l-100 -108h-46l79 108h67zM217 -12c-127 0 -174 155 -174 345s47 345 174 345c126 0 174 -155 174 -345s-48 -345 -174 -345zM217 56c71 0 96 128 96 277c0 151 -25 277 -96 277c-72 0 -96 -126 -96 -277
c0 -149 24 -277 96 -277z" />
    <glyph glyph-name="uni1ED2" unicode="&#x1ed2;" horiz-adv-x="434" 
d="M313 682h-41l-60 79l-57 -79h-42l66 108h66zM217 -12c-127 0 -174 155 -174 345s47 345 174 345c126 0 174 -155 174 -345s-48 -345 -174 -345zM217 56c71 0 96 128 96 277c0 151 -25 277 -96 277c-72 0 -96 -126 -96 -277c0 -149 24 -277 96 -277zM136 735h-46l-100 108
h67z" />
    <glyph glyph-name="uni1ED4" unicode="&#x1ed4;" horiz-adv-x="434" 
d="M313 682h-41l-60 79l-57 -79h-42l66 108h66zM217 -12c-127 0 -174 155 -174 345s47 345 174 345c126 0 174 -155 174 -345s-48 -345 -174 -345zM217 56c71 0 96 128 96 277c0 151 -25 277 -96 277c-72 0 -96 -126 -96 -277c0 -149 24 -277 96 -277zM291 795l-31 5
c6 20 25 35 57 35s55 -14 55 -45c0 -18 -8 -33 -20 -47h-34c15 15 22 30 22 46c0 17 -11 24 -23 24c-15 0 -22 -7 -26 -18z" />
    <glyph glyph-name="uni1ED6" unicode="&#x1ed6;" horiz-adv-x="434" 
d="M317 678h-41l-60 52l-57 -52h-42l66 72h66zM217 -12c-127 0 -174 155 -174 345s47 345 174 345c126 0 174 -155 174 -345s-48 -345 -174 -345zM217 56c71 0 96 128 96 277c0 151 -25 277 -96 277c-72 0 -96 -126 -96 -277c0 -149 24 -277 96 -277zM256 757
c-55 0 -52 47 -83 47c-17 0 -31 -13 -31 -44h-39c0 37 23 67 73 67c55 0 53 -48 84 -48c17 0 30 14 30 45h39c0 -37 -22 -67 -73 -67z" />
    <glyph glyph-name="uni1ED8" unicode="&#x1ed8;" horiz-adv-x="434" 
d="M318 723h-41l-60 105l-57 -105h-42l66 144h66zM217 -12c-127 0 -174 155 -174 345s47 345 174 345c126 0 174 -155 174 -345s-48 -345 -174 -345zM217 56c71 0 96 128 96 277c0 151 -25 277 -96 277c-72 0 -96 -126 -96 -277c0 -149 24 -277 96 -277zM219 -182
c-24 0 -44 20 -44 44s20 44 44 44s44 -20 44 -44s-20 -44 -44 -44z" />
    <glyph glyph-name="Ohorn" unicode="&#x1a0;" horiz-adv-x="434" 
d="M217 -12c-127 0 -174 155 -174 345s47 345 174 345c63 0 107 -39 134 -102c20 20 34 47 37 69c-1 0 -7 -1 -10 -1c-22 0 -38 17 -38 40c0 22 17 42 41 42c26 0 48 -23 48 -62c0 -51 -29 -97 -64 -125c18 -57 26 -129 26 -206c0 -190 -48 -345 -174 -345zM217 56
c71 0 96 128 96 277c0 151 -25 277 -96 277c-72 0 -96 -126 -96 -277c0 -149 24 -277 96 -277z" />
    <glyph glyph-name="uni1EDA" unicode="&#x1eda;" horiz-adv-x="434" 
d="M326 867l-100 -144h-46l79 144h67zM217 -12c-127 0 -174 155 -174 345s47 345 174 345c63 0 107 -39 134 -102c20 20 34 47 37 69c-1 0 -7 -1 -10 -1c-22 0 -38 17 -38 40c0 22 17 42 41 42c26 0 48 -23 48 -62c0 -51 -29 -97 -64 -125c18 -57 26 -129 26 -206
c0 -190 -48 -345 -174 -345zM217 56c71 0 96 128 96 277c0 151 -25 277 -96 277c-72 0 -96 -126 -96 -277c0 -149 24 -277 96 -277z" />
    <glyph glyph-name="uni1EDC" unicode="&#x1edc;" horiz-adv-x="434" 
d="M217 -12c-127 0 -174 155 -174 345s47 345 174 345c63 0 107 -39 134 -102c20 20 34 47 37 69c-1 0 -7 -1 -10 -1c-22 0 -38 17 -38 40c0 22 17 42 41 42c26 0 48 -23 48 -62c0 -51 -29 -97 -64 -125c18 -57 26 -129 26 -206c0 -190 -48 -345 -174 -345zM217 56
c71 0 96 128 96 277c0 151 -25 277 -96 277c-72 0 -96 -126 -96 -277c0 -149 24 -277 96 -277zM253 723h-46l-100 144h67z" />
    <glyph glyph-name="uni1EDE" unicode="&#x1ede;" horiz-adv-x="434" 
d="M217 -12c-127 0 -174 155 -174 345s47 345 174 345c63 0 107 -39 134 -102c20 20 34 47 37 69c-1 0 -7 -1 -10 -1c-22 0 -38 17 -38 40c0 22 17 42 41 42c26 0 48 -23 48 -62c0 -51 -29 -97 -64 -125c18 -57 26 -129 26 -206c0 -190 -48 -345 -174 -345zM217 56
c71 0 96 128 96 277c0 151 -25 277 -96 277c-72 0 -96 -126 -96 -277c0 -149 24 -277 96 -277zM192 766l-31 7c6 26 25 47 57 47s55 -19 55 -61c0 -24 -8 -44 -20 -62h-34c15 20 22 40 22 61c0 23 -11 32 -23 32c-15 0 -22 -9 -26 -24z" />
    <glyph glyph-name="uni1EE0" unicode="&#x1ee0;" horiz-adv-x="434" 
d="M217 -12c-127 0 -174 155 -174 345s47 345 174 345c63 0 107 -39 134 -102c20 20 34 47 37 69c-1 0 -7 -1 -10 -1c-22 0 -38 17 -38 40c0 22 17 42 41 42c26 0 48 -23 48 -62c0 -51 -29 -97 -64 -125c18 -57 26 -129 26 -206c0 -190 -48 -345 -174 -345zM217 56
c71 0 96 128 96 277c0 151 -25 277 -96 277c-72 0 -96 -126 -96 -277c0 -149 24 -277 96 -277zM258 721c-55 0 -52 95 -83 95c-17 0 -31 -27 -31 -89h-39c0 74 23 134 73 134c55 0 53 -95 84 -95c17 0 30 27 30 89h39c0 -74 -22 -134 -73 -134z" />
    <glyph glyph-name="uni1EE2" unicode="&#x1ee2;" horiz-adv-x="434" 
d="M217 -12c-127 0 -174 155 -174 345s47 345 174 345c63 0 107 -39 134 -102c20 20 34 47 37 69c-1 0 -7 -1 -10 -1c-22 0 -38 17 -38 40c0 22 17 42 41 42c26 0 48 -23 48 -62c0 -51 -29 -97 -64 -125c18 -57 26 -129 26 -206c0 -190 -48 -345 -174 -345zM217 56
c71 0 96 128 96 277c0 151 -25 277 -96 277c-72 0 -96 -126 -96 -277c0 -149 24 -277 96 -277zM219 -182c-24 0 -44 20 -44 44s20 44 44 44s44 -20 44 -44s-20 -44 -44 -44z" />
    <glyph glyph-name="OE" unicode="&#x152;" horiz-adv-x="594" 
d="M551 0h-248v66c-26 -63 -68 -78 -98 -78c-120 0 -162 156 -162 345c0 190 42 344 162 344c30 0 72 -14 98 -76v66h248v-67h-172v-225h165v-67h-165v-241h172v-67zM303 178v311c-14 75 -45 120 -86 120c-74 0 -96 -125 -96 -276c0 -150 22 -277 96 -277c41 0 72 46 86 122
z" />
    <glyph glyph-name="uni1E56" unicode="&#x1e56;" horiz-adv-x="387" 
d="M138 0h-75v667h137c110 0 159 -92 159 -199s-49 -199 -159 -199h-62v-269zM193 336c59 0 88 55 88 132s-29 132 -88 132h-55v-264h55zM194 724c-24 0 -44 20 -44 44s20 44 44 44s44 -20 44 -44s-20 -44 -44 -44z" />
    <glyph glyph-name="Racute" unicode="&#x154;" horiz-adv-x="409" 
d="M321 867l-100 -144h-46l79 144h67zM365 0h-81l-87 269h-59v-269h-75v667h140c91 0 156 -75 156 -197c0 -118 -51 -169 -92 -184zM193 336c59 0 88 55 88 132s-29 132 -88 132h-55v-264h55z" />
    <glyph glyph-name="Rcaron" unicode="&#x158;" horiz-adv-x="409" 
d="M238 723h-66l-69 144h42l60 -105l57 105h41zM365 0h-81l-87 269h-59v-269h-75v667h140c91 0 156 -75 156 -197c0 -118 -51 -169 -92 -184zM193 336c59 0 88 55 88 132s-29 132 -88 132h-55v-264h55z" />
    <glyph glyph-name="Rcommaaccent" unicode="&#x156;" horiz-adv-x="409" 
d="M257 -138c0 -54 -32 -104 -70 -132l-31 25c30 21 55 57 57 87c-1 0 -7 -1 -10 -1c-23 0 -40 18 -40 42c0 23 19 44 43 44c27 0 51 -23 51 -65zM365 0h-81l-87 269h-59v-269h-75v667h140c91 0 156 -75 156 -197c0 -118 -51 -169 -92 -184zM193 336c59 0 88 55 88 132
s-29 132 -88 132h-55v-264h55z" />
    <glyph glyph-name="Sacute" unicode="&#x15a;" horiz-adv-x="354" 
d="M292 867l-100 -144h-46l79 144h67zM163 -12c-59 0 -107 22 -143 61l38 60c24 -33 65 -53 101 -53c49 0 87 41 87 103c0 152 -208 163 -208 354c0 96 64 165 154 165c46 0 88 -16 119 -47l-33 -58c-23 25 -52 37 -85 37c-42 0 -78 -36 -78 -94c0 -130 207 -156 207 -353
c0 -101 -63 -175 -159 -175z" />
    <glyph glyph-name="Scaron" unicode="&#x160;" horiz-adv-x="354" 
d="M226 723h-66l-69 144h42l60 -105l57 105h41zM163 -12c-59 0 -107 22 -143 61l38 60c24 -33 65 -53 101 -53c49 0 87 41 87 103c0 152 -208 163 -208 354c0 96 64 165 154 165c46 0 88 -16 119 -47l-33 -58c-23 25 -52 37 -85 37c-42 0 -78 -36 -78 -94
c0 -130 207 -156 207 -353c0 -101 -63 -175 -159 -175z" />
    <glyph glyph-name="Scircumflex" unicode="&#x15c;" horiz-adv-x="354" 
d="M291 723h-41l-60 105l-57 -105h-42l66 144h66zM163 -12c-59 0 -107 22 -143 61l38 60c24 -33 65 -53 101 -53c49 0 87 41 87 103c0 152 -208 163 -208 354c0 96 64 165 154 165c46 0 88 -16 119 -47l-33 -58c-23 25 -52 37 -85 37c-42 0 -78 -36 -78 -94
c0 -130 207 -156 207 -353c0 -101 -63 -175 -159 -175z" />
    <glyph glyph-name="Scedilla" unicode="&#x15e;" horiz-adv-x="354" 
d="M158 -191c-32 0 -57 14 -77 30l17 35c20 -18 37 -27 59 -27c25 0 47 17 47 43c0 20 -11 34 -29 34c-12 0 -20 -6 -28 -14l-31 17l23 63c-48 5 -88 25 -119 59l38 60c24 -33 65 -53 101 -53c49 0 87 41 87 103c0 152 -208 163 -208 354c0 96 64 165 154 165
c46 0 88 -16 119 -47l-33 -58c-23 25 -52 37 -85 37c-42 0 -78 -36 -78 -94c0 -130 207 -156 207 -353c0 -95 -56 -165 -141 -174l-18 -45c9 7 17 10 29 10c30 0 54 -26 54 -65c0 -47 -38 -80 -88 -80z" />
    <glyph glyph-name="Scommaaccent" unicode="&#x218;" horiz-adv-x="354" 
d="M225 -138c0 -54 -32 -104 -70 -132l-31 25c30 21 55 57 57 87c-1 0 -7 -1 -10 -1c-23 0 -40 18 -40 42c0 23 19 44 43 44c27 0 51 -23 51 -65zM163 -12c-59 0 -107 22 -143 61l38 60c24 -33 65 -53 101 -53c49 0 87 41 87 103c0 152 -208 163 -208 354
c0 96 64 165 154 165c46 0 88 -16 119 -47l-33 -58c-23 25 -52 37 -85 37c-42 0 -78 -36 -78 -94c0 -130 207 -156 207 -353c0 -101 -63 -175 -159 -175z" />
    <glyph glyph-name="uni1E60" unicode="&#x1e60;" horiz-adv-x="354" 
d="M163 -12c-59 0 -107 22 -143 61l38 60c24 -33 65 -53 101 -53c49 0 87 41 87 103c0 152 -208 163 -208 354c0 96 64 165 154 165c46 0 88 -16 119 -47l-33 -58c-23 25 -52 37 -85 37c-42 0 -78 -36 -78 -94c0 -130 207 -156 207 -353c0 -101 -63 -175 -159 -175zM177 724
c-24 0 -44 20 -44 44s20 44 44 44s44 -20 44 -44s-20 -44 -44 -44z" />
    <glyph glyph-name="Tbar" unicode="&#x166;" horiz-adv-x="322" 
d="M199 0h-76v298h-75v45h75v257h-105v67h286v-67h-105v-257h73v-45h-73v-298z" />
    <glyph glyph-name="Tcaron" unicode="&#x164;" horiz-adv-x="322" 
d="M196 723h-66l-69 144h42l60 -105l57 105h41zM199 0h-76v600h-105v67h286v-67h-105v-600z" />
    <glyph glyph-name="Tcommaaccent" unicode="&#x162;" horiz-adv-x="322" 
d="M216 -138c0 -54 -32 -104 -70 -132l-31 25c30 21 55 57 57 87c-1 0 -7 -1 -10 -1c-23 0 -40 18 -40 42c0 23 19 44 43 44c27 0 51 -23 51 -65zM199 0h-76v600h-105v67h286v-67h-105v-600z" />
    <glyph glyph-name="uni021A" unicode="&#x21a;" horiz-adv-x="322" 
d="M216 -138c0 -54 -32 -104 -70 -132l-31 25c30 21 55 57 57 87c-1 0 -7 -1 -10 -1c-23 0 -40 18 -40 42c0 23 19 44 43 44c27 0 51 -23 51 -65zM199 0h-76v600h-105v67h286v-67h-105v-600z" />
    <glyph glyph-name="uni1E6A" unicode="&#x1e6a;" horiz-adv-x="322" 
d="M199 0h-76v600h-105v67h286v-67h-105v-600zM161 724c-24 0 -44 20 -44 44s20 44 44 44s44 -20 44 -44s-20 -44 -44 -44z" />
    <glyph glyph-name="Uacute" unicode="&#xda;" horiz-adv-x="437" 
d="M328 867l-100 -144h-46l79 144h67zM218 -12c-88 0 -155 55 -155 184v495h75v-498c0 -84 32 -114 80 -114s81 30 81 114v498h75v-495c0 -129 -68 -184 -156 -184z" />
    <glyph glyph-name="Ubreve" unicode="&#x16c;" horiz-adv-x="437" 
d="M218 -12c-88 0 -155 55 -155 184v495h75v-498c0 -84 32 -114 80 -114s81 30 81 114v498h75v-495c0 -129 -68 -184 -156 -184zM338 780c-27 -37 -70 -61 -119 -61c-48 0 -92 24 -119 61l36 28c18 -27 52 -44 83 -44c32 0 66 17 83 44z" />
    <glyph glyph-name="Ucircumflex" unicode="&#xdb;" horiz-adv-x="437" 
d="M318 723h-41l-60 105l-57 -105h-42l66 144h66zM218 -12c-88 0 -155 55 -155 184v495h75v-498c0 -84 32 -114 80 -114s81 30 81 114v498h75v-495c0 -129 -68 -184 -156 -184z" />
    <glyph glyph-name="Udieresis" unicode="&#xdc;" horiz-adv-x="437" 
d="M332 770c0 -24 -20 -43 -44 -43c-23 0 -43 19 -43 43s20 43 43 43c24 0 44 -19 44 -43zM191 770c0 -24 -20 -43 -44 -43c-23 0 -43 19 -43 43s20 43 43 43c24 0 44 -19 44 -43zM218 -12c-88 0 -155 55 -155 184v495h75v-498c0 -84 32 -114 80 -114s81 30 81 114v498h75
v-495c0 -129 -68 -184 -156 -184z" />
    <glyph glyph-name="Ugrave" unicode="&#xd9;" horiz-adv-x="437" 
d="M218 -12c-88 0 -155 55 -155 184v495h75v-498c0 -84 32 -114 80 -114s81 30 81 114v498h75v-495c0 -129 -68 -184 -156 -184zM255 723h-46l-100 144h67z" />
    <glyph glyph-name="Uhungarumlaut" unicode="&#x170;" horiz-adv-x="437" 
d="M218 -12c-88 0 -155 55 -155 184v495h75v-498c0 -84 32 -114 80 -114s81 30 81 114v498h75v-495c0 -129 -68 -184 -156 -184zM247 867l-77 -144h-38l56 144h59zM364 867l-78 -144h-38l56 144h60z" />
    <glyph glyph-name="Umacron" unicode="&#x16a;" horiz-adv-x="437" 
d="M218 -12c-88 0 -155 55 -155 184v495h75v-498c0 -84 32 -114 80 -114s81 30 81 114v498h75v-495c0 -129 -68 -184 -156 -184zM342 740h-248v45h248v-45z" />
    <glyph glyph-name="Uogonek" unicode="&#x172;" horiz-adv-x="437" 
d="M278 -115l35 -18c-9 -29 -29 -53 -68 -53c-41 0 -70 25 -70 76c0 36 14 70 39 98c-86 2 -151 57 -151 184v495h75v-498c0 -84 32 -114 80 -114s81 30 81 114v498h75v-495c0 -95 -37 -150 -91 -172c-39 -26 -66 -61 -66 -108c0 -29 12 -41 29 -41s28 13 32 34z" />
    <glyph glyph-name="Uring" unicode="&#x16e;" horiz-adv-x="437" 
d="M219 704c-46 0 -83 38 -83 84c0 45 37 82 83 82s82 -37 82 -82c0 -46 -36 -84 -82 -84zM219 740c26 0 47 21 47 48c0 25 -21 46 -47 46s-47 -21 -47 -46c0 -27 21 -48 47 -48zM218 -12c-88 0 -155 55 -155 184v495h75v-498c0 -84 32 -114 80 -114s81 30 81 114v498h75
v-495c0 -129 -68 -184 -156 -184z" />
    <glyph glyph-name="Utilde" unicode="&#x168;" horiz-adv-x="437" 
d="M218 -12c-88 0 -155 55 -155 184v495h75v-498c0 -84 32 -114 80 -114s81 30 81 114v498h75v-495c0 -129 -68 -184 -156 -184zM259 721c-55 0 -52 95 -83 95c-17 0 -31 -27 -31 -89h-39c0 74 23 134 73 134c55 0 53 -95 84 -95c17 0 30 27 30 89h39
c0 -74 -22 -134 -73 -134z" />
    <glyph glyph-name="uni1EE4" unicode="&#x1ee4;" horiz-adv-x="437" 
d="M218 -12c-88 0 -155 55 -155 184v495h75v-498c0 -84 32 -114 80 -114s81 30 81 114v498h75v-495c0 -129 -68 -184 -156 -184zM221 -182c-24 0 -44 20 -44 44s20 44 44 44s44 -20 44 -44s-20 -44 -44 -44z" />
    <glyph glyph-name="Uhorn" unicode="&#x1af;" horiz-adv-x="437" 
d="M467 729c0 -53 -32 -110 -93 -146v-411c0 -129 -68 -184 -156 -184s-155 55 -155 184v495h75v-498c0 -84 32 -114 80 -114s81 30 81 114v498h75v-41c29 21 50 58 52 84c-1 -1 -6 -2 -10 -2c-22 0 -38 18 -38 41c0 22 17 41 41 41c26 0 48 -22 48 -61z" />
    <glyph glyph-name="uni1EE6" unicode="&#x1ee6;" horiz-adv-x="437" 
d="M218 -12c-88 0 -155 55 -155 184v495h75v-498c0 -84 32 -114 80 -114s81 30 81 114v498h75v-495c0 -129 -68 -184 -156 -184zM193 766l-31 7c6 26 25 47 57 47s55 -19 55 -61c0 -24 -8 -44 -20 -62h-34c15 20 22 40 22 61c0 23 -11 32 -23 32c-15 0 -22 -9 -26 -24z" />
    <glyph glyph-name="uni1EE8" unicode="&#x1ee8;" horiz-adv-x="437" 
d="M328 867l-100 -144h-46l79 144h67zM467 729c0 -53 -32 -110 -93 -146v-411c0 -129 -68 -184 -156 -184s-155 55 -155 184v495h75v-498c0 -84 32 -114 80 -114s81 30 81 114v498h75v-41c29 21 50 58 52 84c-1 -1 -6 -2 -10 -2c-22 0 -38 18 -38 41c0 22 17 41 41 41
c26 0 48 -22 48 -61z" />
    <glyph glyph-name="uni1EEA" unicode="&#x1eea;" horiz-adv-x="437" 
d="M255 723h-46l-100 144h67zM467 729c0 -53 -32 -110 -93 -146v-411c0 -129 -68 -184 -156 -184s-155 55 -155 184v495h75v-498c0 -84 32 -114 80 -114s81 30 81 114v498h75v-41c29 21 50 58 52 84c-1 -1 -6 -2 -10 -2c-22 0 -38 18 -38 41c0 22 17 41 41 41
c26 0 48 -22 48 -61z" />
    <glyph glyph-name="uni1EEC" unicode="&#x1eec;" horiz-adv-x="437" 
d="M193 766l-31 7c6 26 25 47 57 47s55 -19 55 -61c0 -24 -8 -44 -20 -62h-34c15 20 22 40 22 61c0 23 -11 32 -23 32c-15 0 -22 -9 -26 -24zM467 729c0 -53 -32 -110 -93 -146v-411c0 -129 -68 -184 -156 -184s-155 55 -155 184v495h75v-498c0 -84 32 -114 80 -114
s81 30 81 114v498h75v-41c29 21 50 58 52 84c-1 -1 -6 -2 -10 -2c-22 0 -38 18 -38 41c0 22 17 41 41 41c26 0 48 -22 48 -61z" />
    <glyph glyph-name="uni1EEE" unicode="&#x1eee;" horiz-adv-x="437" 
d="M467 729c0 -53 -32 -110 -93 -146v-411c0 -129 -68 -184 -156 -184s-155 55 -155 184v495h75v-498c0 -84 32 -114 80 -114s81 30 81 114v498h75v-41c29 21 50 58 52 84c-1 -1 -6 -2 -10 -2c-22 0 -38 18 -38 41c0 22 17 41 41 41c26 0 48 -22 48 -61zM258 721
c-55 0 -52 95 -83 95c-17 0 -31 -27 -31 -89h-39c0 74 23 134 73 134c55 0 53 -95 84 -95c17 0 30 27 30 89h39c0 -74 -22 -134 -73 -134z" />
    <glyph glyph-name="uni1EF0" unicode="&#x1ef0;" horiz-adv-x="437" 
d="M221 -182c-24 0 -44 20 -44 44s20 44 44 44s44 -20 44 -44s-20 -44 -44 -44zM467 729c0 -53 -32 -110 -93 -146v-411c0 -129 -68 -184 -156 -184s-155 55 -155 184v495h75v-498c0 -84 32 -114 80 -114s81 30 81 114v498h75v-41c29 21 50 58 52 84c-1 -1 -6 -2 -10 -2
c-22 0 -38 18 -38 41c0 22 17 41 41 41c26 0 48 -22 48 -61z" />
    <glyph glyph-name="Wacute" unicode="&#x1e82;" horiz-adv-x="548" 
d="M388 867l-100 -144h-46l79 144h67zM424 0h-80l-70 514l-70 -514h-79l-107 667h78l71 -531l75 531h64l76 -531l70 531h78z" />
    <glyph glyph-name="Wcircumflex" unicode="&#x174;" horiz-adv-x="548" 
d="M374 723h-41l-60 105l-57 -105h-42l66 144h66zM424 0h-80l-70 514l-70 -514h-79l-107 667h78l71 -531l75 531h64l76 -531l70 531h78z" />
    <glyph glyph-name="Wdieresis" unicode="&#x1e84;" horiz-adv-x="548" 
d="M388 770c0 -24 -20 -43 -44 -43c-23 0 -43 19 -43 43s20 43 43 43c24 0 44 -19 44 -43zM247 770c0 -24 -20 -43 -44 -43c-23 0 -43 19 -43 43s20 43 43 43c24 0 44 -19 44 -43zM424 0h-80l-70 514l-70 -514h-79l-107 667h78l71 -531l75 531h64l76 -531l70 531h78z" />
    <glyph glyph-name="Wgrave" unicode="&#x1e80;" horiz-adv-x="548" 
d="M424 0h-80l-70 514l-70 -514h-79l-107 667h78l71 -531l75 531h64l76 -531l70 531h78zM310 723h-46l-100 144h67z" />
    <glyph glyph-name="Yacute" unicode="&#xdd;" horiz-adv-x="372" 
d="M224 0h-75v283l-150 384h82l105 -307l107 307h80l-149 -384v-283zM296 867l-100 -144h-46l79 144h67z" />
    <glyph glyph-name="Ycircumflex" unicode="&#x176;" horiz-adv-x="372" 
d="M286 723h-41l-60 105l-57 -105h-42l66 144h66zM224 0h-75v283l-150 384h82l105 -307l107 307h80l-149 -384v-283z" />
    <glyph glyph-name="Ydieresis" unicode="&#x178;" horiz-adv-x="372" 
d="M303 770c0 -24 -20 -43 -44 -43c-23 0 -43 19 -43 43s20 43 43 43c24 0 44 -19 44 -43zM162 770c0 -24 -20 -43 -44 -43c-23 0 -43 19 -43 43s20 43 43 43c24 0 44 -19 44 -43zM224 0h-75v283l-150 384h82l105 -307l107 307h80l-149 -384v-283z" />
    <glyph glyph-name="Ygrave" unicode="&#x1ef2;" horiz-adv-x="372" 
d="M224 0h-75v283l-150 384h82l105 -307l107 307h80l-149 -384v-283zM223 723h-46l-100 144h67z" />
    <glyph glyph-name="Zacute" unicode="&#x179;" horiz-adv-x="340" 
d="M279 867l-100 -144h-46l79 144h67zM307 0h-274v66l184 534h-184v67h267v-63l-186 -537h193v-67z" />
    <glyph glyph-name="Zcaron" unicode="&#x17d;" horiz-adv-x="340" 
d="M205 723h-66l-69 144h42l60 -105l57 105h41zM307 0h-274v66l184 534h-184v67h267v-63l-186 -537h193v-67z" />
    <glyph glyph-name="Zdotaccent" unicode="&#x17b;" horiz-adv-x="340" 
d="M307 0h-274v66l184 534h-184v67h267v-63l-186 -537h193v-67zM169 724c-24 0 -44 20 -44 44s20 44 44 44s44 -20 44 -44s-20 -44 -44 -44z" />
    <glyph glyph-name="Eth" unicode="&#xd0;" horiz-adv-x="446" 
d="M209 0h-127v301h-61v56h61v310h127c138 0 195 -142 195 -334c0 -194 -56 -333 -195 -333zM209 67c84 0 116 110 116 266c0 157 -33 267 -116 267h-52v-243h83v-56h-83v-234h52z" />
    <glyph glyph-name="Thorn" unicode="&#xde;" horiz-adv-x="387" 
d="M138 0h-75v667h75v-121h62c110 0 159 -93 159 -200c0 -106 -49 -198 -159 -198h-62v-148zM193 215c59 0 88 54 88 131c0 78 -29 133 -88 133h-55v-264h55z" />
    <glyph glyph-name="aacute" unicode="&#xe1;" horiz-adv-x="376" 
d="M320 0h-69v48c-22 -42 -61 -60 -94 -60c-75 0 -124 65 -124 161c0 95 49 159 124 159c33 0 72 -17 94 -57v80c0 67 -19 105 -75 105c-32 0 -63 -14 -95 -51l-29 49c40 44 91 61 135 61c89 0 133 -49 133 -151v-344zM176 38c30 0 59 21 75 63v92c-16 43 -45 65 -75 65
c-50 0 -73 -51 -73 -110c0 -58 23 -110 73 -110zM296 700l-100 -144h-46l79 144h67z" />
    <glyph glyph-name="abreve" unicode="&#x103;" horiz-adv-x="376" 
d="M320 0h-69v48c-22 -42 -61 -60 -94 -60c-75 0 -124 65 -124 161c0 95 49 159 124 159c33 0 72 -17 94 -57v80c0 67 -19 105 -75 105c-32 0 -63 -14 -95 -51l-29 49c40 44 91 61 135 61c89 0 133 -49 133 -151v-344zM176 38c30 0 59 21 75 63v92c-16 43 -45 65 -75 65
c-50 0 -73 -51 -73 -110c0 -58 23 -110 73 -110zM307 613c-27 -37 -70 -61 -119 -61c-48 0 -92 24 -119 61l36 28c18 -27 52 -44 83 -44c32 0 66 17 83 44z" />
    <glyph glyph-name="acircumflex" unicode="&#xe2;" horiz-adv-x="376" 
d="M320 0h-69v48c-22 -42 -61 -60 -94 -60c-75 0 -124 65 -124 161c0 95 49 159 124 159c33 0 72 -17 94 -57v80c0 67 -19 105 -75 105c-32 0 -63 -14 -95 -51l-29 49c40 44 91 61 135 61c89 0 133 -49 133 -151v-344zM176 38c30 0 59 21 75 63v92c-16 43 -45 65 -75 65
c-50 0 -73 -51 -73 -110c0 -58 23 -110 73 -110zM290 556h-41l-60 105l-57 -105h-42l66 144h66z" />
    <glyph glyph-name="adieresis" unicode="&#xe4;" horiz-adv-x="376" 
d="M320 0h-69v48c-22 -42 -61 -60 -94 -60c-75 0 -124 65 -124 161c0 95 49 159 124 159c33 0 72 -17 94 -57v80c0 67 -19 105 -75 105c-32 0 -63 -14 -95 -51l-29 49c40 44 91 61 135 61c89 0 133 -49 133 -151v-344zM176 38c30 0 59 21 75 63v92c-16 43 -45 65 -75 65
c-50 0 -73 -51 -73 -110c0 -58 23 -110 73 -110zM302 603c0 -24 -20 -43 -44 -43c-23 0 -43 19 -43 43s20 43 43 43c24 0 44 -19 44 -43zM161 603c0 -24 -20 -43 -44 -43c-23 0 -43 19 -43 43s20 43 43 43c24 0 44 -19 44 -43z" />
    <glyph glyph-name="agrave" unicode="&#xe0;" horiz-adv-x="376" 
d="M320 0h-69v48c-22 -42 -61 -60 -94 -60c-75 0 -124 65 -124 161c0 95 49 159 124 159c33 0 72 -17 94 -57v80c0 67 -19 105 -75 105c-32 0 -63 -14 -95 -51l-29 49c40 44 91 61 135 61c89 0 133 -49 133 -151v-344zM176 38c30 0 59 21 75 63v92c-16 43 -45 65 -75 65
c-50 0 -73 -51 -73 -110c0 -58 23 -110 73 -110zM223 556h-46l-100 144h67z" />
    <glyph glyph-name="amacron" unicode="&#x101;" horiz-adv-x="376" 
d="M320 0h-69v48c-22 -42 -61 -60 -94 -60c-75 0 -124 65 -124 161c0 95 49 159 124 159c33 0 72 -17 94 -57v80c0 67 -19 105 -75 105c-32 0 -63 -14 -95 -51l-29 49c40 44 91 61 135 61c89 0 133 -49 133 -151v-344zM176 38c30 0 59 21 75 63v92c-16 43 -45 65 -75 65
c-50 0 -73 -51 -73 -110c0 -58 23 -110 73 -110zM312 573h-248v45h248v-45z" />
    <glyph glyph-name="aogonek" unicode="&#x105;" horiz-adv-x="376" 
d="M315 -115l35 -18c-9 -29 -29 -53 -68 -53c-41 0 -70 25 -70 76c0 42 20 79 50 110h-11v48c-22 -42 -61 -60 -94 -60c-75 0 -124 65 -124 161c0 95 49 159 124 159c33 0 72 -17 94 -57v80c0 67 -19 105 -75 105c-32 0 -63 -14 -95 -51l-29 49c40 44 91 61 135 61
c89 0 133 -49 133 -151v-344c-39 -26 -66 -61 -66 -108c0 -29 12 -41 29 -41s28 13 32 34zM176 38c30 0 59 21 75 63v92c-16 43 -45 65 -75 65c-50 0 -73 -51 -73 -110c0 -58 23 -110 73 -110z" />
    <glyph glyph-name="aring" unicode="&#xe5;" horiz-adv-x="376" 
d="M320 0h-69v48c-22 -42 -61 -60 -94 -60c-75 0 -124 65 -124 161c0 95 49 159 124 159c33 0 72 -17 94 -57v80c0 67 -19 105 -75 105c-32 0 -63 -14 -95 -51l-29 49c40 44 91 61 135 61c89 0 133 -49 133 -151v-344zM176 38c30 0 59 21 75 63v92c-16 43 -45 65 -75 65
c-50 0 -73 -51 -73 -110c0 -58 23 -110 73 -110zM188 545c-46 0 -83 38 -83 84c0 45 37 82 83 82s82 -37 82 -82c0 -46 -36 -84 -82 -84zM188 581c26 0 47 21 47 48c0 25 -21 46 -47 46s-47 -21 -47 -46c0 -27 21 -48 47 -48z" />
    <glyph glyph-name="atilde" unicode="&#xe3;" horiz-adv-x="376" 
d="M320 0h-69v48c-22 -42 -61 -60 -94 -60c-75 0 -124 65 -124 161c0 95 49 159 124 159c33 0 72 -17 94 -57v80c0 67 -19 105 -75 105c-32 0 -63 -14 -95 -51l-29 49c40 44 91 61 135 61c89 0 133 -49 133 -151v-344zM176 38c30 0 59 21 75 63v92c-16 43 -45 65 -75 65
c-50 0 -73 -51 -73 -110c0 -58 23 -110 73 -110zM229 554c-55 0 -52 95 -83 95c-17 0 -31 -27 -31 -89h-39c0 74 23 134 73 134c55 0 53 -95 84 -95c17 0 30 27 30 89h39c0 -74 -22 -134 -73 -134z" />
    <glyph glyph-name="uni1EA1" unicode="&#x1ea1;" horiz-adv-x="376" 
d="M320 0h-69v48c-22 -42 -61 -60 -94 -60c-75 0 -124 65 -124 161c0 95 49 159 124 159c33 0 72 -17 94 -57v80c0 67 -19 105 -75 105c-32 0 -63 -14 -95 -51l-29 49c40 44 91 61 135 61c89 0 133 -49 133 -151v-344zM176 38c30 0 59 21 75 63v92c-16 43 -45 65 -75 65
c-50 0 -73 -51 -73 -110c0 -58 23 -110 73 -110zM188 -182c-24 0 -44 20 -44 44s20 44 44 44s44 -20 44 -44s-20 -44 -44 -44z" />
    <glyph glyph-name="uni1EA3" unicode="&#x1ea3;" horiz-adv-x="376" 
d="M320 0h-69v48c-22 -42 -61 -60 -94 -60c-75 0 -124 65 -124 161c0 95 49 159 124 159c33 0 72 -17 94 -57v80c0 67 -19 105 -75 105c-32 0 -63 -14 -95 -51l-29 49c40 44 91 61 135 61c89 0 133 -49 133 -151v-344zM176 38c30 0 59 21 75 63v92c-16 43 -45 65 -75 65
c-50 0 -73 -51 -73 -110c0 -58 23 -110 73 -110zM162 596l-31 7c6 26 25 47 57 47s55 -19 55 -61c0 -24 -8 -44 -20 -62h-34c15 20 22 40 22 61c0 23 -11 32 -23 32c-15 0 -22 -9 -26 -24z" />
    <glyph glyph-name="uni1EA5" unicode="&#x1ea5;" horiz-adv-x="376" 
d="M320 0h-69v48c-22 -42 -61 -60 -94 -60c-75 0 -124 65 -124 161c0 95 49 159 124 159c33 0 72 -17 94 -57v80c0 67 -19 105 -75 105c-32 0 -63 -14 -95 -51l-29 49c40 44 91 61 135 61c89 0 133 -49 133 -151v-344zM176 38c30 0 59 21 75 63v92c-16 43 -45 65 -75 65
c-50 0 -73 -51 -73 -110c0 -58 23 -110 73 -110zM290 556h-41l-60 105l-57 -105h-42l66 144h66zM410 771l-100 -144h-46l79 144h67z" />
    <glyph glyph-name="uni1EAD" unicode="&#x1ead;" horiz-adv-x="376" 
d="M320 0h-69v48c-22 -42 -61 -60 -94 -60c-75 0 -124 65 -124 161c0 95 49 159 124 159c33 0 72 -17 94 -57v80c0 67 -19 105 -75 105c-32 0 -63 -14 -95 -51l-29 49c40 44 91 61 135 61c89 0 133 -49 133 -151v-344zM176 38c30 0 59 21 75 63v92c-16 43 -45 65 -75 65
c-50 0 -73 -51 -73 -110c0 -58 23 -110 73 -110zM287 556h-41l-60 105l-57 -105h-42l66 144h66zM188 -182c-24 0 -44 20 -44 44s20 44 44 44s44 -20 44 -44s-20 -44 -44 -44z" />
    <glyph glyph-name="uni1EA7" unicode="&#x1ea7;" horiz-adv-x="376" 
d="M320 0h-69v48c-22 -42 -61 -60 -94 -60c-75 0 -124 65 -124 161c0 95 49 159 124 159c33 0 72 -17 94 -57v80c0 67 -19 105 -75 105c-32 0 -63 -14 -95 -51l-29 49c40 44 91 61 135 61c89 0 133 -49 133 -151v-344zM176 38c30 0 59 21 75 63v92c-16 43 -45 65 -75 65
c-50 0 -73 -51 -73 -110c0 -58 23 -110 73 -110zM290 556h-41l-60 105l-57 -105h-42l66 144h66zM113 627h-46l-100 144h67z" />
    <glyph glyph-name="uni1EA9" unicode="&#x1ea9;" horiz-adv-x="376" 
d="M320 0h-69v48c-22 -42 -61 -60 -94 -60c-75 0 -124 65 -124 161c0 95 49 159 124 159c33 0 72 -17 94 -57v80c0 67 -19 105 -75 105c-32 0 -63 -14 -95 -51l-29 49c40 44 91 61 135 61c89 0 133 -49 133 -151v-344zM176 38c30 0 59 21 75 63v92c-16 43 -45 65 -75 65
c-50 0 -73 -51 -73 -110c0 -58 23 -110 73 -110zM290 556h-41l-60 105l-57 -105h-42l66 144h66zM233 736l-31 7c6 26 25 47 57 47s55 -19 55 -61c0 -24 -8 -44 -20 -62h-34c15 20 22 40 22 61c0 23 -11 32 -23 32c-15 0 -22 -9 -26 -24z" />
    <glyph glyph-name="uni1EAF" unicode="&#x1eaf;" horiz-adv-x="376" 
d="M320 0h-69v48c-22 -42 -61 -60 -94 -60c-75 0 -124 65 -124 161c0 95 49 159 124 159c33 0 72 -17 94 -57v80c0 67 -19 105 -75 105c-32 0 -63 -14 -95 -51l-29 49c40 44 91 61 135 61c89 0 133 -49 133 -151v-344zM176 38c30 0 59 21 75 63v92c-16 43 -45 65 -75 65
c-50 0 -73 -51 -73 -110c0 -58 23 -110 73 -110zM296 765l-100 -144h-46l79 144h67zM307 586c-27 -37 -70 -61 -119 -61c-48 0 -92 24 -119 61l36 28c18 -27 52 -44 83 -44c32 0 66 17 83 44z" />
    <glyph glyph-name="uni1EAB" unicode="&#x1eab;" horiz-adv-x="376" 
d="M320 0h-69v48c-22 -42 -61 -60 -94 -60c-75 0 -124 65 -124 161c0 95 49 159 124 159c33 0 72 -17 94 -57v80c0 67 -19 105 -75 105c-32 0 -63 -14 -95 -51l-29 49c40 44 91 61 135 61c89 0 133 -49 133 -151v-344zM176 38c30 0 59 21 75 63v92c-16 43 -45 65 -75 65
c-50 0 -73 -51 -73 -110c0 -58 23 -110 73 -110zM290 523h-41l-60 105l-57 -105h-42l66 144h66zM227 682c-55 0 -52 95 -83 95c-17 0 -31 -27 -31 -89h-39c0 74 23 134 73 134c55 0 53 -95 84 -95c17 0 30 27 30 89h39c0 -74 -22 -134 -73 -134z" />
    <glyph glyph-name="uni1EB1" unicode="&#x1eb1;" horiz-adv-x="376" 
d="M320 0h-69v48c-22 -42 -61 -60 -94 -60c-75 0 -124 65 -124 161c0 95 49 159 124 159c33 0 72 -17 94 -57v80c0 67 -19 105 -75 105c-32 0 -63 -14 -95 -51l-29 49c40 44 91 61 135 61c89 0 133 -49 133 -151v-344zM176 38c30 0 59 21 75 63v92c-16 43 -45 65 -75 65
c-50 0 -73 -51 -73 -110c0 -58 23 -110 73 -110zM224 621h-46l-100 144h67zM307 586c-27 -37 -70 -61 -119 -61c-48 0 -92 24 -119 61l36 28c18 -27 52 -44 83 -44c32 0 66 17 83 44z" />
    <glyph glyph-name="uni1EB3" unicode="&#x1eb3;" horiz-adv-x="376" 
d="M320 0h-69v48c-22 -42 -61 -60 -94 -60c-75 0 -124 65 -124 161c0 95 49 159 124 159c33 0 72 -17 94 -57v80c0 67 -19 105 -75 105c-32 0 -63 -14 -95 -51l-29 49c40 44 91 61 135 61c89 0 133 -49 133 -151v-344zM176 38c30 0 59 21 75 63v92c-16 43 -45 65 -75 65
c-50 0 -73 -51 -73 -110c0 -58 23 -110 73 -110zM165 686l-31 7c6 26 25 47 57 47s55 -19 55 -61c0 -24 -8 -44 -20 -62h-34c15 20 22 40 22 61c0 23 -11 32 -23 32c-15 0 -22 -9 -26 -24zM307 586c-27 -37 -70 -61 -119 -61c-48 0 -92 24 -119 61l36 28
c18 -27 52 -44 83 -44c32 0 66 17 83 44z" />
    <glyph glyph-name="uni1EB5" unicode="&#x1eb5;" horiz-adv-x="376" 
d="M320 0h-69v48c-22 -42 -61 -60 -94 -60c-75 0 -124 65 -124 161c0 95 49 159 124 159c33 0 72 -17 94 -57v80c0 67 -19 105 -75 105c-32 0 -63 -14 -95 -51l-29 49c40 44 91 61 135 61c89 0 133 -49 133 -151v-344zM176 38c30 0 59 21 75 63v92c-16 43 -45 65 -75 65
c-50 0 -73 -51 -73 -110c0 -58 23 -110 73 -110zM307 586c-27 -37 -70 -61 -119 -61c-48 0 -92 24 -119 61l36 28c18 -27 52 -44 83 -44c32 0 66 17 83 44zM225 643c-55 0 -52 95 -83 95c-17 0 -31 -27 -31 -89h-39c0 74 23 134 73 134c55 0 53 -95 84 -95c17 0 30 27 30 89
h39c0 -74 -22 -134 -73 -134z" />
    <glyph glyph-name="uni1EB7" unicode="&#x1eb7;" horiz-adv-x="376" 
d="M320 0h-69v48c-22 -42 -61 -60 -94 -60c-75 0 -124 65 -124 161c0 95 49 159 124 159c33 0 72 -17 94 -57v80c0 67 -19 105 -75 105c-32 0 -63 -14 -95 -51l-29 49c40 44 91 61 135 61c89 0 133 -49 133 -151v-344zM176 38c30 0 59 21 75 63v92c-16 43 -45 65 -75 65
c-50 0 -73 -51 -73 -110c0 -58 23 -110 73 -110zM188 -182c-24 0 -44 20 -44 44s20 44 44 44s44 -20 44 -44s-20 -44 -44 -44zM307 613c-27 -37 -70 -61 -119 -61c-48 0 -92 24 -119 61l36 28c18 -27 52 -44 83 -44c32 0 66 17 83 44z" />
    <glyph glyph-name="ae" unicode="&#xe6;" horiz-adv-x="584" 
d="M551 219h-228c1 -103 34 -174 101 -174c28 0 57 21 77 58l40 -36c-30 -48 -74 -79 -125 -79c-70 0 -100 40 -124 90c-21 -48 -60 -90 -125 -90c-86 0 -134 63 -134 159s49 161 127 161c33 0 74 -17 97 -57v80c0 67 -21 105 -78 105c-33 0 -65 -14 -98 -51l-29 49
c40 44 91 61 131 61c63 0 101 -35 111 -86c17 43 47 86 110 86c106 0 147 -115 147 -253v-23zM323 270h160c0 75 -15 168 -79 168c-65 0 -81 -100 -81 -168zM257 168v25c-17 43 -47 65 -79 65c-46 0 -75 -42 -75 -108c0 -69 29 -107 75 -107c47 0 79 51 79 125z" />
    <glyph glyph-name="aeacute" unicode="&#x1fd;" horiz-adv-x="584" 
d="M394 700l-100 -144h-46l79 144h67zM551 219h-228c1 -103 34 -174 101 -174c28 0 57 21 77 58l40 -36c-30 -48 -74 -79 -125 -79c-70 0 -100 40 -124 90c-21 -48 -60 -90 -125 -90c-86 0 -134 63 -134 159s49 161 127 161c33 0 74 -17 97 -57v80c0 67 -21 105 -78 105
c-33 0 -65 -14 -98 -51l-29 49c40 44 91 61 131 61c63 0 101 -35 111 -86c17 43 47 86 110 86c106 0 147 -115 147 -253v-23zM323 270h160c0 75 -15 168 -79 168c-65 0 -81 -100 -81 -168zM257 168v25c-17 43 -47 65 -79 65c-46 0 -75 -42 -75 -108c0 -69 29 -107 75 -107
c47 0 79 51 79 125z" />
    <glyph glyph-name="aacute.alt1" horiz-adv-x="384" 
d="M295 700l-100 -144h-46l79 144h67zM328 0h-68v65c-21 -49 -58 -77 -91 -77c-91 0 -132 105 -132 253c0 146 41 254 132 254c33 0 71 -25 91 -79v67h68v-483zM186 49c31 0 63 38 74 80v223c-11 43 -43 82 -74 82c-61 0 -77 -91 -77 -193s16 -192 77 -192z" />
    <glyph glyph-name="abreve.alt1" horiz-adv-x="384" 
d="M328 0h-68v65c-21 -49 -58 -77 -91 -77c-91 0 -132 105 -132 253c0 146 41 254 132 254c33 0 71 -25 91 -79v67h68v-483zM186 49c31 0 63 38 74 80v223c-11 43 -43 82 -74 82c-61 0 -77 -91 -77 -193s16 -192 77 -192zM313 613c-27 -37 -70 -61 -119 -61
c-48 0 -92 24 -119 61l36 28c18 -27 52 -44 83 -44c32 0 66 17 83 44z" />
    <glyph glyph-name="acircumflex.alt1" horiz-adv-x="384" 
d="M294 556h-41l-60 105l-57 -105h-42l66 144h66zM328 0h-68v65c-21 -49 -58 -77 -91 -77c-91 0 -132 105 -132 253c0 146 41 254 132 254c33 0 71 -25 91 -79v67h68v-483zM186 49c31 0 63 38 74 80v223c-11 43 -43 82 -74 82c-61 0 -77 -91 -77 -193s16 -192 77 -192z" />
    <glyph glyph-name="adieresis.alt1" horiz-adv-x="384" 
d="M306 603c0 -24 -20 -43 -44 -43c-23 0 -43 19 -43 43s20 43 43 43c24 0 44 -19 44 -43zM165 603c0 -24 -20 -43 -44 -43c-23 0 -43 19 -43 43s20 43 43 43c24 0 44 -19 44 -43zM328 0h-68v65c-21 -49 -58 -77 -91 -77c-91 0 -132 105 -132 253c0 146 41 254 132 254
c33 0 71 -25 91 -79v67h68v-483zM186 49c31 0 63 38 74 80v223c-11 43 -43 82 -74 82c-61 0 -77 -91 -77 -193s16 -192 77 -192z" />
    <glyph glyph-name="agrave.alt1" horiz-adv-x="384" 
d="M328 0h-68v65c-21 -49 -58 -77 -91 -77c-91 0 -132 105 -132 253c0 146 41 254 132 254c33 0 71 -25 91 -79v67h68v-483zM186 49c31 0 63 38 74 80v223c-11 43 -43 82 -74 82c-61 0 -77 -91 -77 -193s16 -192 77 -192zM223 556h-46l-100 144h67z" />
    <glyph glyph-name="amacron.alt1" horiz-adv-x="384" 
d="M319 573h-248v45h248v-45zM328 0h-68v65c-21 -49 -58 -77 -91 -77c-91 0 -132 105 -132 253c0 146 41 254 132 254c33 0 71 -25 91 -79v67h68v-483zM186 49c31 0 63 38 74 80v223c-11 43 -43 82 -74 82c-61 0 -77 -91 -77 -193s16 -192 77 -192z" />
    <glyph glyph-name="aogonek.alt1" horiz-adv-x="384" 
d="M328 0c-39 -26 -66 -61 -66 -108c0 -29 12 -41 29 -41s28 13 32 34l35 -18c-9 -29 -29 -53 -68 -53c-41 0 -70 25 -70 76c0 42 20 79 50 110h-10v65c-21 -49 -58 -77 -91 -77c-91 0 -132 105 -132 253c0 146 41 254 132 254c33 0 71 -25 91 -79v67h68v-483zM186 49
c31 0 63 38 74 80v223c-11 43 -43 82 -74 82c-61 0 -77 -91 -77 -193s16 -192 77 -192z" />
    <glyph glyph-name="aring.alt1" horiz-adv-x="384" 
d="M194 545c-46 0 -83 38 -83 84c0 45 37 82 83 82s82 -37 82 -82c0 -46 -36 -84 -82 -84zM194 581c26 0 47 21 47 48c0 25 -21 46 -47 46s-47 -21 -47 -46c0 -27 21 -48 47 -48zM328 0h-68v65c-21 -49 -58 -77 -91 -77c-91 0 -132 105 -132 253c0 146 41 254 132 254
c33 0 71 -25 91 -79v67h68v-483zM186 49c31 0 63 38 74 80v223c-11 43 -43 82 -74 82c-61 0 -77 -91 -77 -193s16 -192 77 -192z" />
    <glyph glyph-name="atilde.alt1" horiz-adv-x="384" 
d="M328 0h-68v65c-21 -49 -58 -77 -91 -77c-91 0 -132 105 -132 253c0 146 41 254 132 254c33 0 71 -25 91 -79v67h68v-483zM186 49c31 0 63 38 74 80v223c-11 43 -43 82 -74 82c-61 0 -77 -91 -77 -193s16 -192 77 -192zM233 554c-55 0 -52 95 -83 95
c-17 0 -31 -27 -31 -89h-39c0 74 23 134 73 134c55 0 53 -95 84 -95c17 0 30 27 30 89h39c0 -74 -22 -134 -73 -134z" />
    <glyph glyph-name="uni1EA1.alt1" horiz-adv-x="384" 
d="M328 0h-68v65c-21 -49 -58 -77 -91 -77c-91 0 -132 105 -132 253c0 146 41 254 132 254c33 0 71 -25 91 -79v67h68v-483zM186 49c31 0 63 38 74 80v223c-11 43 -43 82 -74 82c-61 0 -77 -91 -77 -193s16 -192 77 -192zM194 -182c-24 0 -44 20 -44 44s20 44 44 44
s44 -20 44 -44s-20 -44 -44 -44z" />
    <glyph glyph-name="uni1EA3.alt1" horiz-adv-x="384" 
d="M328 0h-68v65c-21 -49 -58 -77 -91 -77c-91 0 -132 105 -132 253c0 146 41 254 132 254c33 0 71 -25 91 -79v67h68v-483zM186 49c31 0 63 38 74 80v223c-11 43 -43 82 -74 82c-61 0 -77 -91 -77 -193s16 -192 77 -192zM170 596l-31 7c6 26 25 47 57 47s55 -19 55 -61
c0 -24 -8 -44 -20 -62h-34c15 20 22 40 22 61c0 23 -11 32 -23 32c-15 0 -22 -9 -26 -24z" />
    <glyph glyph-name="uni1EA5.alt1" horiz-adv-x="384" 
d="M295 556h-41l-60 105l-57 -105h-42l66 144h66zM416 771l-100 -144h-46l79 144h67zM328 0h-68v65c-21 -49 -58 -77 -91 -77c-91 0 -132 105 -132 253c0 146 41 254 132 254c33 0 71 -25 91 -79v67h68v-483zM186 49c31 0 63 38 74 80v223c-11 43 -43 82 -74 82
c-61 0 -77 -91 -77 -193s16 -192 77 -192z" />
    <glyph glyph-name="uni1EAD.alt1" horiz-adv-x="384" 
d="M295 556h-41l-60 105l-57 -105h-42l66 144h66zM328 0h-68v65c-21 -49 -58 -77 -91 -77c-91 0 -132 105 -132 253c0 146 41 254 132 254c33 0 71 -25 91 -79v67h68v-483zM186 49c31 0 63 38 74 80v223c-11 43 -43 82 -74 82c-61 0 -77 -91 -77 -193s16 -192 77 -192z
M195 -182c-24 0 -44 20 -44 44s20 44 44 44s44 -20 44 -44s-20 -44 -44 -44z" />
    <glyph glyph-name="uni1EA7.alt1" horiz-adv-x="384" 
d="M296 556h-41l-60 105l-57 -105h-42l66 144h66zM328 0h-68v65c-21 -49 -58 -77 -91 -77c-91 0 -132 105 -132 253c0 146 41 254 132 254c33 0 71 -25 91 -79v67h68v-483zM186 49c31 0 63 38 74 80v223c-11 43 -43 82 -74 82c-61 0 -77 -91 -77 -193s16 -192 77 -192z
M119 627h-46l-100 144h67z" />
    <glyph glyph-name="uni1EA9.alt1" horiz-adv-x="384" 
d="M295 556h-41l-60 105l-57 -105h-42l66 144h66zM328 0h-68v65c-21 -49 -58 -77 -91 -77c-91 0 -132 105 -132 253c0 146 41 254 132 254c33 0 71 -25 91 -79v67h68v-483zM186 49c31 0 63 38 74 80v223c-11 43 -43 82 -74 82c-61 0 -77 -91 -77 -193s16 -192 77 -192z
M239 736l-31 7c6 26 25 47 57 47s55 -19 55 -61c0 -24 -8 -44 -20 -62h-34c15 20 22 40 22 61c0 23 -11 32 -23 32c-15 0 -22 -9 -26 -24z" />
    <glyph glyph-name="uni1EAF.alt1" horiz-adv-x="384" 
d="M302 765l-100 -144h-46l79 144h67zM328 0h-68v65c-21 -49 -58 -77 -91 -77c-91 0 -132 105 -132 253c0 146 41 254 132 254c33 0 71 -25 91 -79v67h68v-483zM186 49c31 0 63 38 74 80v223c-11 43 -43 82 -74 82c-61 0 -77 -91 -77 -193s16 -192 77 -192zM313 586
c-27 -37 -70 -61 -119 -61c-48 0 -92 24 -119 61l36 28c18 -27 52 -44 83 -44c32 0 66 17 83 44z" />
    <glyph glyph-name="uni1EAB.alt1" horiz-adv-x="384" 
d="M298 523h-41l-60 105l-57 -105h-42l66 144h66zM328 0h-68v65c-21 -49 -58 -77 -91 -77c-91 0 -132 105 -132 253c0 146 41 254 132 254c33 0 71 -25 91 -79v67h68v-483zM186 49c31 0 63 38 74 80v223c-11 43 -43 82 -74 82c-61 0 -77 -91 -77 -193s16 -192 77 -192z
M235 682c-55 0 -52 95 -83 95c-17 0 -31 -27 -31 -89h-39c0 74 23 134 73 134c55 0 53 -95 84 -95c17 0 30 27 30 89h39c0 -74 -22 -134 -73 -134z" />
    <glyph glyph-name="uni1EB1.alt1" horiz-adv-x="384" 
d="M328 0h-68v65c-21 -49 -58 -77 -91 -77c-91 0 -132 105 -132 253c0 146 41 254 132 254c33 0 71 -25 91 -79v67h68v-483zM186 49c31 0 63 38 74 80v223c-11 43 -43 82 -74 82c-61 0 -77 -91 -77 -193s16 -192 77 -192zM232 621h-46l-100 144h67zM313 586
c-27 -37 -70 -61 -119 -61c-48 0 -92 24 -119 61l36 28c18 -27 52 -44 83 -44c32 0 66 17 83 44z" />
    <glyph glyph-name="uni1EB3.alt1" horiz-adv-x="384" 
d="M328 0h-68v65c-21 -49 -58 -77 -91 -77c-91 0 -132 105 -132 253c0 146 41 254 132 254c33 0 71 -25 91 -79v67h68v-483zM186 49c31 0 63 38 74 80v223c-11 43 -43 82 -74 82c-61 0 -77 -91 -77 -193s16 -192 77 -192zM170 686l-31 7c6 26 25 47 57 47s55 -19 55 -61
c0 -24 -8 -44 -20 -62h-34c15 20 22 40 22 61c0 23 -11 32 -23 32c-15 0 -22 -9 -26 -24zM313 586c-27 -37 -70 -61 -119 -61c-48 0 -92 24 -119 61l36 28c18 -27 52 -44 83 -44c32 0 66 17 83 44z" />
    <glyph glyph-name="uni1EB5.alt1" horiz-adv-x="384" 
d="M313 586c-27 -37 -70 -61 -119 -61c-48 0 -92 24 -119 61l36 28c18 -27 52 -44 83 -44c32 0 66 17 83 44zM328 0h-68v65c-21 -49 -58 -77 -91 -77c-91 0 -132 105 -132 253c0 146 41 254 132 254c33 0 71 -25 91 -79v67h68v-483zM186 49c31 0 63 38 74 80v223
c-11 43 -43 82 -74 82c-61 0 -77 -91 -77 -193s16 -192 77 -192zM233 643c-55 0 -52 95 -83 95c-17 0 -31 -27 -31 -89h-39c0 74 23 134 73 134c55 0 53 -95 84 -95c17 0 30 27 30 89h39c0 -74 -22 -134 -73 -134z" />
    <glyph glyph-name="uni1EB7.alt1" horiz-adv-x="384" 
d="M328 0h-68v65c-21 -49 -58 -77 -91 -77c-91 0 -132 105 -132 253c0 146 41 254 132 254c33 0 71 -25 91 -79v67h68v-483zM186 49c31 0 63 38 74 80v223c-11 43 -43 82 -74 82c-61 0 -77 -91 -77 -193s16 -192 77 -192zM198 -182c-24 0 -44 20 -44 44s20 44 44 44
s44 -20 44 -44s-20 -44 -44 -44zM316 613c-27 -37 -70 -61 -119 -61c-48 0 -92 24 -119 61l36 28c18 -27 52 -44 83 -44c32 0 66 17 83 44z" />
    <glyph glyph-name="ae.alt1" horiz-adv-x="595" 
d="M186 49c31 0 63 38 74 80v223c-11 43 -43 82 -74 82c-61 0 -77 -91 -77 -193s16 -192 77 -192zM328 79v-79h-68v65c-21 -49 -58 -77 -91 -77c-91 0 -132 105 -132 253c0 146 41 254 132 254c33 0 71 -25 91 -79v67h68v-69c15 46 40 81 96 81c102 0 138 -114 138 -252v-24
h-234c1 -103 35 -173 105 -173c28 0 58 21 79 59l40 -41c-26 -47 -64 -76 -111 -76c-76 0 -102 53 -113 91zM494 270c0 75 -16 168 -83 168c-66 0 -83 -100 -83 -168h166z" />
    <glyph glyph-name="aeacute.alt1" horiz-adv-x="595" 
d="M186 49c31 0 63 38 74 80v223c-11 43 -43 82 -74 82c-61 0 -77 -91 -77 -193s16 -192 77 -192zM328 79v-79h-68v65c-21 -49 -58 -77 -91 -77c-91 0 -132 105 -132 253c0 146 41 254 132 254c33 0 71 -25 91 -79v67h68v-69c15 46 40 81 96 81c102 0 138 -114 138 -252v-24
h-234c1 -103 35 -173 105 -173c28 0 58 21 79 59l40 -41c-26 -47 -64 -76 -111 -76c-76 0 -102 53 -113 91zM494 270c0 75 -16 168 -83 168c-66 0 -83 -100 -83 -168h166zM403 700l-100 -144h-46l79 144h67z" />
    <glyph glyph-name="uni1E03" unicode="&#x1e03;" horiz-adv-x="384" 
d="M124 129c12 -42 43 -80 74 -80c61 0 77 90 77 192s-16 193 -77 193c-31 0 -62 -39 -74 -82v-223zM124 0h-68v667h68v-251c20 54 58 79 91 79c91 0 132 -108 132 -254c0 -148 -41 -253 -132 -253c-33 0 -70 28 -91 77v-65zM200 724c-24 0 -44 20 -44 44s20 44 44 44
s44 -20 44 -44s-20 -44 -44 -44z" />
    <glyph glyph-name="cacute" unicode="&#x107;" horiz-adv-x="317" 
d="M306 700l-100 -144h-46l79 144h67zM196 -12c-104 0 -159 111 -159 254s55 253 159 253c46 0 76 -19 99 -44l-28 -52c-20 25 -39 35 -62 35c-70 0 -96 -94 -96 -192s26 -193 96 -193c23 0 42 10 62 35l28 -52c-23 -28 -53 -44 -99 -44z" />
    <glyph glyph-name="ccedilla" unicode="&#xe7;" horiz-adv-x="317" 
d="M194 -189c-32 0 -57 14 -77 30l17 35c20 -18 37 -27 59 -27c25 0 47 17 47 43c0 20 -11 34 -29 34c-12 0 -20 -6 -28 -14l-31 17l22 61c-90 14 -137 119 -137 252c0 143 55 253 159 253c46 0 76 -19 99 -44l-28 -52c-20 25 -39 35 -62 35c-70 0 -96 -94 -96 -192
s26 -193 96 -193c23 0 42 10 62 35l28 -52c-20 -24 -44 -39 -79 -43l-17 -43c9 7 17 10 29 10c30 0 54 -26 54 -65c0 -47 -38 -80 -88 -80z" />
    <glyph glyph-name="ccircumflex" unicode="&#x109;" horiz-adv-x="317" 
d="M297 556h-41l-60 105l-57 -105h-42l66 144h66zM196 -12c-104 0 -159 111 -159 254s55 253 159 253c46 0 76 -19 99 -44l-28 -52c-20 25 -39 35 -62 35c-70 0 -96 -94 -96 -192s26 -193 96 -193c23 0 42 10 62 35l28 -52c-23 -28 -53 -44 -99 -44z" />
    <glyph glyph-name="cdotaccent" unicode="&#x10b;" horiz-adv-x="317" 
d="M196 -12c-104 0 -159 111 -159 254s55 253 159 253c46 0 76 -19 99 -44l-28 -52c-20 25 -39 35 -62 35c-70 0 -96 -94 -96 -192s26 -193 96 -193c23 0 42 10 62 35l28 -52c-23 -28 -53 -44 -99 -44zM198 557c-24 0 -44 20 -44 44s20 44 44 44s44 -20 44 -44
s-20 -44 -44 -44z" />
    <glyph glyph-name="ccaron" unicode="&#x10d;" horiz-adv-x="317" 
d="M232 556h-66l-69 144h42l60 -105l57 105h41zM196 -12c-104 0 -159 111 -159 254s55 253 159 253c46 0 76 -19 99 -44l-28 -52c-20 25 -39 35 -62 35c-70 0 -96 -94 -96 -192s26 -193 96 -193c23 0 42 10 62 35l28 -52c-23 -28 -53 -44 -99 -44z" />
    <glyph glyph-name="dcaron" unicode="&#x10f;" horiz-adv-x="466" 
d="M471 614c0 -54 -32 -104 -70 -132l-31 25c30 21 55 57 57 87c-1 0 -7 -1 -10 -1c-23 0 -40 18 -40 42c0 23 19 44 43 44c27 0 51 -23 51 -65zM328 0h-68v65c-21 -49 -58 -77 -91 -77c-91 0 -132 105 -132 253c0 146 41 254 132 254c33 0 71 -25 91 -79v251h68v-667z
M186 49c31 0 63 38 74 80v224c-11 42 -43 81 -74 81c-61 0 -77 -91 -77 -193s16 -192 77 -192z" />
    <glyph glyph-name="dcroat" unicode="&#x111;" horiz-adv-x="391" 
d="M328 0h-68v65c-21 -49 -58 -77 -91 -77c-91 0 -132 105 -132 253c0 146 41 254 132 254c33 0 71 -25 91 -79v120h-120v45h120v86h68v-86h45v-45h-45v-536zM186 49c31 0 63 38 74 80v224c-11 42 -43 81 -74 81c-61 0 -77 -91 -77 -193s16 -192 77 -192z" />
    <glyph glyph-name="uni1E0B" unicode="&#x1e0b;" horiz-adv-x="384" 
d="M328 0h-68v65c-21 -49 -58 -77 -91 -77c-91 0 -132 105 -132 253c0 146 41 254 132 254c33 0 71 -25 91 -79v251h68v-667zM186 49c31 0 63 38 74 80v224c-11 42 -43 81 -74 81c-61 0 -77 -91 -77 -193s16 -192 77 -192zM186 724c-24 0 -44 20 -44 44s20 44 44 44
s44 -20 44 -44s-20 -44 -44 -44z" />
    <glyph glyph-name="eacute" unicode="&#xe9;" horiz-adv-x="373" 
d="M300 700l-100 -144h-46l79 144h67zM205 -12c-115 0 -168 109 -168 254c0 140 48 253 154 253c109 0 149 -114 149 -252v-24h-234c0 -103 35 -174 104 -174c29 0 59 21 80 58l41 -36c-31 -48 -75 -79 -126 -79zM272 270c0 75 -16 168 -83 168s-83 -100 -83 -168h166z" />
    <glyph glyph-name="ebreve" unicode="&#x115;" horiz-adv-x="373" 
d="M205 -12c-115 0 -168 109 -168 254c0 140 48 253 154 253c109 0 149 -114 149 -252v-24h-234c0 -103 35 -174 104 -174c29 0 59 21 80 58l41 -36c-31 -48 -75 -79 -126 -79zM272 270c0 75 -16 168 -83 168s-83 -100 -83 -168h166zM310 613c-27 -37 -70 -61 -119 -61
c-48 0 -92 24 -119 61l36 28c18 -27 52 -44 83 -44c32 0 66 17 83 44z" />
    <glyph glyph-name="ecircumflex" unicode="&#xea;" horiz-adv-x="373" 
d="M292 556h-41l-60 105l-57 -105h-42l66 144h66zM205 -12c-115 0 -168 109 -168 254c0 140 48 253 154 253c109 0 149 -114 149 -252v-24h-234c0 -103 35 -174 104 -174c29 0 59 21 80 58l41 -36c-31 -48 -75 -79 -126 -79zM272 270c0 75 -16 168 -83 168
s-83 -100 -83 -168h166z" />
    <glyph glyph-name="edieresis" unicode="&#xeb;" horiz-adv-x="373" 
d="M305 603c0 -24 -20 -43 -44 -43c-23 0 -43 19 -43 43s20 43 43 43c24 0 44 -19 44 -43zM164 603c0 -24 -20 -43 -44 -43c-23 0 -43 19 -43 43s20 43 43 43c24 0 44 -19 44 -43zM205 -12c-115 0 -168 109 -168 254c0 140 48 253 154 253c109 0 149 -114 149 -252v-24h-234
c0 -103 35 -174 104 -174c29 0 59 21 80 58l41 -36c-31 -48 -75 -79 -126 -79zM272 270c0 75 -16 168 -83 168s-83 -100 -83 -168h166z" />
    <glyph glyph-name="edotaccent" unicode="&#x117;" horiz-adv-x="373" 
d="M205 -12c-115 0 -168 109 -168 254c0 140 48 253 154 253c109 0 149 -114 149 -252v-24h-234c0 -103 35 -174 104 -174c29 0 59 21 80 58l41 -36c-31 -48 -75 -79 -126 -79zM272 270c0 75 -16 168 -83 168s-83 -100 -83 -168h166zM191 557c-24 0 -44 20 -44 44
s20 44 44 44s44 -20 44 -44s-20 -44 -44 -44z" />
    <glyph glyph-name="egrave" unicode="&#xe8;" horiz-adv-x="373" 
d="M205 -12c-115 0 -168 109 -168 254c0 140 48 253 154 253c109 0 149 -114 149 -252v-24h-234c0 -103 35 -174 104 -174c29 0 59 21 80 58l41 -36c-31 -48 -75 -79 -126 -79zM272 270c0 75 -16 168 -83 168s-83 -100 -83 -168h166zM228 556h-46l-100 144h67z" />
    <glyph glyph-name="emacron" unicode="&#x113;" horiz-adv-x="373" 
d="M205 -12c-115 0 -168 109 -168 254c0 140 48 253 154 253c109 0 149 -114 149 -252v-24h-234c0 -103 35 -174 104 -174c29 0 59 21 80 58l41 -36c-31 -48 -75 -79 -126 -79zM272 270c0 75 -16 168 -83 168s-83 -100 -83 -168h166zM314 573h-248v45h248v-45z" />
    <glyph glyph-name="eogonek" unicode="&#x119;" horiz-adv-x="373" 
d="M253 -115l35 -18c-9 -29 -29 -53 -68 -53c-41 0 -70 25 -70 76c0 37 15 71 40 99c-105 9 -153 114 -153 253c0 140 48 253 154 253c109 0 149 -114 149 -252v-24h-234c0 -103 35 -174 104 -174c29 0 59 21 80 58l41 -36c-20 -31 -45 -54 -73 -67
c-39 -26 -66 -61 -66 -108c0 -29 12 -41 29 -41s28 13 32 34zM272 270c0 75 -16 168 -83 168s-83 -100 -83 -168h166z" />
    <glyph glyph-name="ecaron" unicode="&#x11b;" horiz-adv-x="373" 
d="M226 556h-66l-69 144h42l60 -105l57 105h41zM205 -12c-115 0 -168 109 -168 254c0 140 48 253 154 253c109 0 149 -114 149 -252v-24h-234c0 -103 35 -174 104 -174c29 0 59 21 80 58l41 -36c-31 -48 -75 -79 -126 -79zM272 270c0 75 -16 168 -83 168s-83 -100 -83 -168
h166z" />
    <glyph glyph-name="uni1EB9" unicode="&#x1eb9;" horiz-adv-x="373" 
d="M205 -12c-115 0 -168 109 -168 254c0 140 48 253 154 253c109 0 149 -114 149 -252v-24h-234c0 -103 35 -174 104 -174c29 0 59 21 80 58l41 -36c-31 -48 -75 -79 -126 -79zM272 270c0 75 -16 168 -83 168s-83 -100 -83 -168h166zM191 -182c-24 0 -44 20 -44 44
s20 44 44 44s44 -20 44 -44s-20 -44 -44 -44z" />
    <glyph glyph-name="uni1EBB" unicode="&#x1ebb;" horiz-adv-x="373" 
d="M205 -12c-115 0 -168 109 -168 254c0 140 48 253 154 253c109 0 149 -114 149 -252v-24h-234c0 -103 35 -174 104 -174c29 0 59 21 80 58l41 -36c-31 -48 -75 -79 -126 -79zM272 270c0 75 -16 168 -83 168s-83 -100 -83 -168h166zM165 596l-31 7c6 26 25 47 57 47
s55 -19 55 -61c0 -24 -8 -44 -20 -62h-34c15 20 22 40 22 61c0 23 -11 32 -23 32c-15 0 -22 -9 -26 -24z" />
    <glyph glyph-name="uni1EBD" unicode="&#x1ebd;" horiz-adv-x="373" 
d="M205 -12c-115 0 -168 109 -168 254c0 140 48 253 154 253c109 0 149 -114 149 -252v-24h-234c0 -103 35 -174 104 -174c29 0 59 21 80 58l41 -36c-31 -48 -75 -79 -126 -79zM272 270c0 75 -16 168 -83 168s-83 -100 -83 -168h166zM232 554c-55 0 -52 95 -83 95
c-17 0 -31 -27 -31 -89h-39c0 74 23 134 73 134c55 0 53 -95 84 -95c17 0 30 27 30 89h39c0 -74 -22 -134 -73 -134z" />
    <glyph glyph-name="uni1EBF" unicode="&#x1ebf;" horiz-adv-x="373" 
d="M290 556h-41l-60 105l-57 -105h-42l66 144h66zM411 771l-100 -144h-46l79 144h67zM205 -12c-115 0 -168 109 -168 254c0 140 48 253 154 253c109 0 149 -114 149 -252v-24h-234c0 -103 35 -174 104 -174c29 0 59 21 80 58l41 -36c-31 -48 -75 -79 -126 -79zM272 270
c0 75 -16 168 -83 168s-83 -100 -83 -168h166z" />
    <glyph glyph-name="uni1EC1" unicode="&#x1ec1;" horiz-adv-x="373" 
d="M290 556h-41l-60 105l-57 -105h-42l66 144h66zM205 -12c-115 0 -168 109 -168 254c0 140 48 253 154 253c109 0 149 -114 149 -252v-24h-234c0 -103 35 -174 104 -174c29 0 59 21 80 58l41 -36c-31 -48 -75 -79 -126 -79zM272 270c0 75 -16 168 -83 168
s-83 -100 -83 -168h166zM113 627h-46l-100 144h67z" />
    <glyph glyph-name="uni1EC3" unicode="&#x1ec3;" horiz-adv-x="373" 
d="M290 556h-41l-60 105l-57 -105h-42l66 144h66zM205 -12c-115 0 -168 109 -168 254c0 140 48 253 154 253c109 0 149 -114 149 -252v-24h-234c0 -103 35 -174 104 -174c29 0 59 21 80 58l41 -36c-31 -48 -75 -79 -126 -79zM272 270c0 75 -16 168 -83 168
s-83 -100 -83 -168h166zM233 736l-31 7c6 26 25 47 57 47s55 -19 55 -61c0 -24 -8 -44 -20 -62h-34c15 20 22 40 22 61c0 23 -11 32 -23 32c-15 0 -22 -9 -26 -24z" />
    <glyph glyph-name="uni1EC5" unicode="&#x1ec5;" horiz-adv-x="373" 
d="M290 523h-41l-60 105l-57 -105h-42l66 144h66zM205 -12c-115 0 -168 109 -168 254c0 140 48 253 154 253c109 0 149 -114 149 -252v-24h-234c0 -103 35 -174 104 -174c29 0 59 21 80 58l41 -36c-31 -48 -75 -79 -126 -79zM272 270c0 75 -16 168 -83 168
s-83 -100 -83 -168h166zM229 682c-55 0 -52 95 -83 95c-17 0 -31 -27 -31 -89h-39c0 74 23 134 73 134c55 0 53 -95 84 -95c17 0 30 27 30 89h39c0 -74 -22 -134 -73 -134z" />
    <glyph glyph-name="uni1EC7" unicode="&#x1ec7;" horiz-adv-x="373" 
d="M292 556h-41l-60 105l-57 -105h-42l66 144h66zM205 -12c-115 0 -168 109 -168 254c0 140 48 253 154 253c109 0 149 -114 149 -252v-24h-234c0 -103 35 -174 104 -174c29 0 59 21 80 58l41 -36c-31 -48 -75 -79 -126 -79zM272 270c0 75 -16 168 -83 168
s-83 -100 -83 -168h166zM191 -182c-24 0 -44 20 -44 44s20 44 44 44s44 -20 44 -44s-20 -44 -44 -44z" />
    <glyph glyph-name="fl.alt1" horiz-adv-x="432" 
d="M139 0h-69v423h-47v60h47v81c0 70 39 113 95 113c22 0 37 -4 52 -14l-17 -54c-5 5 -12 7 -21 7c-25 0 -40 -20 -40 -52v-81h65v-60h-65v-423zM365 -12c-60 0 -85 33 -85 104v575h68v-565c0 -36 7 -53 31 -53c13 0 24 6 32 17l22 -50c-16 -17 -37 -28 -68 -28z" />
    <glyph glyph-name="f_f_l.alt1" horiz-adv-x="655" 
d="M363 0h-69v423h-47v60h47v81c0 70 39 113 95 113c22 0 37 -4 52 -14l-17 -54c-5 5 -12 7 -21 7c-25 0 -40 -20 -40 -52v-81h65v-60h-65v-423zM589 -12c-60 0 -85 33 -85 104v575h68v-565c0 -36 7 -53 31 -53c13 0 24 6 32 17l22 -50c-16 -17 -37 -28 -68 -28zM139 0h-69
v423h-47v60h47v81c0 70 37 113 103 113c25 0 52 -9 69 -27l-24 -54c-12 15 -22 20 -35 20c-31 0 -44 -20 -44 -52v-81h65v-60h-65v-423z" />
    <glyph glyph-name="uni1E1F" unicode="&#x1e1f;" horiz-adv-x="224" 
d="M171 724c-24 0 -44 20 -44 44s20 44 44 44s44 -20 44 -44s-20 -44 -44 -44zM139 0h-69v423h-47v60h47v81c0 70 37 113 103 113c25 0 52 -9 69 -27l-24 -54c-12 15 -22 20 -35 20c-31 0 -44 -20 -44 -52v-81h65v-60h-65v-423z" />
    <glyph glyph-name="gcircumflex" unicode="&#x11d;" horiz-adv-x="384" 
d="M292 556h-41l-60 105l-57 -105h-42l66 144h66zM178 -196c-48 0 -93 14 -128 49l28 58c24 -28 59 -46 94 -46c53 0 88 35 88 116v93c-21 -50 -58 -80 -91 -80c-91 0 -132 102 -132 250c0 146 41 251 132 251c33 0 71 -25 91 -79v67h68v-495c0 -138 -67 -184 -150 -184z
M186 55c31 0 63 40 74 82v216c-11 42 -43 81 -74 81c-61 0 -77 -88 -77 -190c0 -101 16 -189 77 -189z" />
    <glyph glyph-name="gbreve" unicode="&#x11f;" horiz-adv-x="384" 
d="M178 -196c-48 0 -93 14 -128 49l28 58c24 -28 59 -46 94 -46c53 0 88 35 88 116v93c-21 -50 -58 -80 -91 -80c-91 0 -132 102 -132 250c0 146 41 251 132 251c33 0 71 -25 91 -79v67h68v-495c0 -138 -67 -184 -150 -184zM186 55c31 0 63 40 74 82v216
c-11 42 -43 81 -74 81c-61 0 -77 -88 -77 -190c0 -101 16 -189 77 -189zM311 613c-27 -37 -70 -61 -119 -61c-48 0 -92 24 -119 61l36 28c18 -27 52 -44 83 -44c32 0 66 17 83 44z" />
    <glyph glyph-name="gdotaccent" unicode="&#x121;" horiz-adv-x="384" 
d="M178 -196c-48 0 -93 14 -128 49l28 58c24 -28 59 -46 94 -46c53 0 88 35 88 116v93c-21 -50 -58 -80 -91 -80c-91 0 -132 102 -132 250c0 146 41 251 132 251c33 0 71 -25 91 -79v67h68v-495c0 -138 -67 -184 -150 -184zM186 55c31 0 63 40 74 82v216
c-11 42 -43 81 -74 81c-61 0 -77 -88 -77 -190c0 -101 16 -189 77 -189zM190 557c-24 0 -44 20 -44 44s20 44 44 44s44 -20 44 -44s-20 -44 -44 -44z" />
    <glyph glyph-name="gcommaaccent" unicode="&#x123;" horiz-adv-x="384" 
d="M143 611c0 59 31 114 67 139l32 -25c-29 -20 -55 -56 -56 -86c0 0 2 1 4 1c22 0 44 -19 44 -43c0 -23 -19 -44 -45 -44c-23 0 -46 18 -46 58zM178 -196c-48 0 -93 14 -128 49l28 58c24 -28 59 -46 94 -46c53 0 88 35 88 116v93c-21 -50 -58 -80 -91 -80
c-91 0 -132 102 -132 250c0 146 41 251 132 251c33 0 71 -25 91 -79v67h68v-495c0 -138 -67 -184 -150 -184zM186 55c31 0 63 40 74 82v216c-11 42 -43 81 -74 81c-61 0 -77 -88 -77 -190c0 -101 16 -189 77 -189z" />
    <glyph glyph-name="hbar" unicode="&#x127;" horiz-adv-x="392" 
d="M254 536h-116v-121c21 43 65 80 108 80c64 0 90 -33 90 -105v-390h-68v372c0 42 -16 62 -46 62c-37 0 -69 -39 -84 -79v-355h-68v536h-49v45h49v86h68v-86h116v-45z" />
    <glyph glyph-name="hcircumflex" unicode="&#x125;" 
d="M289 723h-41l-60 105l-57 -105h-42l66 144h66zM322 0h-68v372c0 42 -16 62 -46 62c-37 0 -69 -39 -84 -79v-355h-68v667h68v-252c21 43 65 80 108 80c64 0 90 -33 90 -105v-390z" />
    <glyph glyph-name="uni1E23" unicode="&#x1e23;" 
d="M322 0h-68v372c0 42 -16 62 -46 62c-37 0 -69 -39 -84 -79v-355h-68v667h68v-252c21 43 65 80 108 80c64 0 90 -33 90 -105v-390zM189 724c-24 0 -44 20 -44 44s20 44 44 44s44 -20 44 -44s-20 -44 -44 -44z" />
    <glyph glyph-name="dotlessi" unicode="&#x131;" horiz-adv-x="180" 
d="M124 0h-68v483h68v-483z" />
    <glyph glyph-name="iacute" unicode="&#xed;" horiz-adv-x="180" 
d="M200 700l-100 -144h-46l79 144h67zM124 0h-68v483h68v-483z" />
    <glyph glyph-name="ibreve" unicode="&#x12d;" horiz-adv-x="180" 
d="M124 0h-68v483h68v-483zM209 613c-27 -37 -70 -61 -119 -61c-48 0 -92 24 -119 61l36 28c18 -27 52 -44 83 -44c32 0 66 17 83 44z" />
    <glyph glyph-name="icircumflex" unicode="&#xee;" horiz-adv-x="180" 
d="M191 556h-41l-60 105l-57 -105h-42l66 144h66zM124 0h-68v483h68v-483z" />
    <glyph glyph-name="idieresis" unicode="&#xef;" horiz-adv-x="180" 
d="M204 603c0 -24 -20 -43 -44 -43c-23 0 -43 19 -43 43s20 43 43 43c24 0 44 -19 44 -43zM63 603c0 -24 -20 -43 -44 -43c-23 0 -43 19 -43 43s20 43 43 43c24 0 44 -19 44 -43zM124 0h-68v483h68v-483z" />
    <glyph glyph-name="igrave" unicode="&#xec;" horiz-adv-x="180" 
d="M124 0h-68v483h68v-483zM127 556h-46l-100 144h67z" />
    <glyph glyph-name="imacron" unicode="&#x12b;" horiz-adv-x="180" 
d="M124 0h-68v483h68v-483zM214 573h-248v45h248v-45z" />
    <glyph glyph-name="iogonek" unicode="&#x12f;" horiz-adv-x="180" 
d="M119 -115l35 -18c-9 -29 -29 -53 -68 -53c-41 0 -70 25 -70 76c0 42 20 79 50 110h-10v483h68v-483c-39 -26 -66 -61 -66 -108c0 -29 12 -41 29 -41s28 13 32 34zM90 554c-25 0 -47 21 -47 47s22 48 47 48c26 0 48 -22 48 -48s-22 -47 -48 -47z" />
    <glyph glyph-name="itilde" unicode="&#x129;" horiz-adv-x="180" 
d="M124 0h-68v483h68v-483zM131 554c-55 0 -52 95 -83 95c-17 0 -31 -27 -31 -89h-39c0 74 23 134 73 134c55 0 53 -95 84 -95c17 0 30 27 30 89h39c0 -74 -22 -134 -73 -134z" />
    <glyph glyph-name="uni1EC9" unicode="&#x1ec9;" horiz-adv-x="180" 
d="M124 0h-68v483h68v-483zM65 596l-31 7c6 26 25 47 57 47s55 -19 55 -61c0 -24 -8 -44 -20 -62h-34c15 20 22 40 22 61c0 23 -11 32 -23 32c-15 0 -22 -9 -26 -24z" />
    <glyph glyph-name="uni1ECB" unicode="&#x1ecb;" horiz-adv-x="180" 
d="M90 554c-25 0 -47 21 -47 47s22 48 47 48c26 0 48 -22 48 -48s-22 -47 -48 -47zM124 0h-68v483h68v-483zM91 -182c-24 0 -44 20 -44 44s20 44 44 44s44 -20 44 -44s-20 -44 -44 -44z" />
    <glyph glyph-name="ij" unicode="&#x133;" horiz-adv-x="361" 
d="M90 554c-25 0 -47 21 -47 47s22 48 47 48c26 0 48 -22 48 -48s-22 -47 -48 -47zM124 0h-68v483h68v-483zM270 554c-25 0 -47 21 -47 47s22 48 47 48c26 0 48 -22 48 -48s-22 -47 -48 -47zM207 -196c-26 0 -46 10 -58 31l26 49c5 -12 14 -19 28 -19c20 0 33 14 33 64v554
h68v-554c0 -91 -33 -125 -97 -125z" />
    <glyph glyph-name="uni0237" unicode="&#x237;" horiz-adv-x="180" 
d="M27 -196c-26 0 -46 10 -58 31l26 49c5 -12 14 -19 28 -19c20 0 33 14 33 64v554h68v-554c0 -91 -33 -125 -97 -125z" />
    <glyph glyph-name="jcircumflex" unicode="&#x135;" horiz-adv-x="180" 
d="M192 556h-41l-60 105l-57 -105h-42l66 144h66zM27 -196c-26 0 -46 10 -58 31l26 49c5 -12 14 -19 28 -19c20 0 33 14 33 64v554h68v-554c0 -91 -33 -125 -97 -125z" />
    <glyph glyph-name="kcommaaccent" unicode="&#x137;" horiz-adv-x="361" 
d="M235 -138c0 -54 -32 -104 -70 -132l-31 25c30 21 55 57 57 87c-1 0 -7 -1 -10 -1c-23 0 -40 18 -40 42c0 23 19 44 43 44c27 0 51 -23 51 -65zM345 0h-74l-91 219l-56 -96v-123h-68v667h68v-451l148 267h74l-122 -216z" />
    <glyph glyph-name="kgreenlandic" unicode="&#x138;" horiz-adv-x="361" 
d="M345 0h-74l-91 219l-56 -96v-123h-68v483h68v-267l148 267h74l-122 -216z" />
    <glyph glyph-name="lacute" unicode="&#x13a;" horiz-adv-x="180" 
d="M200 867l-100 -144h-46l79 144h67zM124 0h-68v667h68v-667z" />
    <glyph glyph-name="lcommaaccent" unicode="&#x13c;" horiz-adv-x="180" 
d="M145 -138c0 -54 -32 -104 -70 -132l-31 25c30 21 55 57 57 87c-1 0 -7 -1 -10 -1c-23 0 -40 18 -40 42c0 23 19 44 43 44c27 0 51 -23 51 -65zM124 0h-68v667h68v-667z" />
    <glyph glyph-name="lcaron" unicode="&#x13e;" horiz-adv-x="261" 
d="M282 615c0 -54 -32 -104 -70 -132l-31 25c30 21 55 57 57 87c-1 0 -7 -1 -10 -1c-23 0 -40 18 -40 42c0 23 19 44 43 44c27 0 51 -23 51 -65zM124 0h-68v667h68v-667z" />
    <glyph glyph-name="ldot" unicode="&#x140;" horiz-adv-x="287" 
d="M124 0h-68v667h68v-667zM286 245c0 -28 -23 -52 -52 -52c-28 0 -52 24 -52 52c0 27 24 51 52 51c29 0 52 -24 52 -51z" />
    <glyph glyph-name="lslash" unicode="&#x142;" horiz-adv-x="222" 
d="M21 262v56l56 31v318h68v-279l56 32v-55l-56 -32v-333h-68v294z" />
    <glyph glyph-name="lacute.alt1" horiz-adv-x="208" 
d="M200 867l-100 -144h-46l79 144h67zM141 -12c-60 0 -85 33 -85 104v575h68v-565c0 -36 7 -53 31 -53c13 0 24 6 32 17l22 -50c-16 -17 -37 -28 -68 -28z" />
    <glyph glyph-name="lcommaaccent.alt1" horiz-adv-x="208" 
d="M156 -138c0 -54 -32 -104 -70 -132l-31 25c30 21 55 57 57 87c-1 0 -7 -1 -10 -1c-23 0 -40 18 -40 42c0 23 19 44 43 44c27 0 51 -23 51 -65zM141 -12c-60 0 -85 33 -85 104v575h68v-565c0 -36 7 -53 31 -53c13 0 24 6 32 17l22 -50c-16 -17 -37 -28 -68 -28z" />
    <glyph glyph-name="lcaron.alt1" horiz-adv-x="261" 
d="M282 615c0 -54 -32 -104 -70 -132l-31 25c30 21 55 57 57 87c-1 0 -7 -1 -10 -1c-23 0 -40 18 -40 42c0 23 19 44 43 44c27 0 51 -23 51 -65zM141 -12c-60 0 -85 33 -85 104v575h68v-565c0 -36 7 -53 31 -53c13 0 24 6 32 17l22 -50c-16 -17 -37 -28 -68 -28z" />
    <glyph glyph-name="ldot.alt1" horiz-adv-x="287" 
d="M141 -12c-60 0 -85 33 -85 104v575h68v-565c0 -36 7 -53 31 -53c13 0 24 6 32 17l22 -50c-16 -17 -37 -28 -68 -28zM286 245c0 -28 -23 -52 -52 -52c-28 0 -52 24 -52 52c0 27 24 51 52 51c29 0 52 -24 52 -51z" />
    <glyph glyph-name="lslash.alt1" horiz-adv-x="230" 
d="M21 262v56l56 31v318h68v-279l56 32v-55l-56 -32v-231c0 -36 7 -53 31 -53c13 0 24 6 32 17l22 -50c-16 -17 -37 -28 -68 -28c-60 0 -85 33 -85 104v202z" />
    <glyph glyph-name="nacute" unicode="&#x144;" 
d="M298 700l-100 -144h-46l79 144h67zM322 0h-68v371c0 43 -16 63 -46 63c-37 0 -69 -39 -84 -79v-355h-68v483h68v-68c21 43 65 80 108 80c64 0 90 -37 90 -105v-390z" />
    <glyph glyph-name="napostrophe" unicode="&#x149;" 
d="M141 676c0 -54 -32 -104 -70 -132l-31 25c30 21 55 57 57 87c-1 0 -7 -1 -10 -1c-23 0 -40 18 -40 42c0 23 19 44 43 44c27 0 51 -23 51 -65zM322 0h-68v371c0 43 -16 63 -46 63c-37 0 -69 -39 -84 -79v-355h-68v483h68v-68c21 43 65 80 108 80c64 0 90 -37 90 -105v-390
z" />
    <glyph glyph-name="ncaron" unicode="&#x148;" 
d="M223 556h-66l-69 144h42l60 -105l57 105h41zM322 0h-68v371c0 43 -16 63 -46 63c-37 0 -69 -39 -84 -79v-355h-68v483h68v-68c21 43 65 80 108 80c64 0 90 -37 90 -105v-390z" />
    <glyph glyph-name="ncommaaccent" unicode="&#x146;" 
d="M244 -138c0 -54 -32 -104 -70 -132l-31 25c30 21 55 57 57 87c-1 0 -7 -1 -10 -1c-23 0 -40 18 -40 42c0 23 19 44 43 44c27 0 51 -23 51 -65zM322 0h-68v371c0 43 -16 63 -46 63c-37 0 -69 -39 -84 -79v-355h-68v483h68v-68c21 43 65 80 108 80c64 0 90 -37 90 -105
v-390z" />
    <glyph glyph-name="ntilde" unicode="&#xf1;" 
d="M322 0h-68v371c0 43 -16 63 -46 63c-37 0 -69 -39 -84 -79v-355h-68v483h68v-68c21 43 65 80 108 80c64 0 90 -37 90 -105v-390zM231 554c-55 0 -52 95 -83 95c-17 0 -31 -27 -31 -89h-39c0 74 23 134 73 134c55 0 53 -95 84 -95c17 0 30 27 30 89h39
c0 -74 -22 -134 -73 -134z" />
    <glyph glyph-name="eng" unicode="&#x14b;" 
d="M322 390v-461c0 -91 -33 -125 -98 -125c-26 0 -46 10 -58 31l27 49c5 -12 14 -19 27 -19c20 0 34 14 34 64v442c0 43 -16 63 -46 63c-37 0 -69 -39 -84 -79v-355h-68v483h68v-68c21 43 65 80 108 80c64 0 90 -37 90 -105z" />
    <glyph glyph-name="oacute" unicode="&#xf3;" horiz-adv-x="382" 
d="M300 700l-100 -144h-46l79 144h67zM191 -12c-111 0 -154 121 -154 254s43 253 154 253s153 -120 153 -253s-42 -254 -153 -254zM191 49c65 0 82 96 82 193c0 96 -17 192 -82 192s-82 -96 -82 -192c0 -97 17 -193 82 -193z" />
    <glyph glyph-name="obreve" unicode="&#x14f;" horiz-adv-x="382" 
d="M191 -12c-111 0 -154 121 -154 254s43 253 154 253s153 -120 153 -253s-42 -254 -153 -254zM191 49c65 0 82 96 82 193c0 96 -17 192 -82 192s-82 -96 -82 -192c0 -97 17 -193 82 -193zM310 613c-27 -37 -70 -61 -119 -61c-48 0 -92 24 -119 61l36 28
c18 -27 52 -44 83 -44c32 0 66 17 83 44z" />
    <glyph glyph-name="ocircumflex" unicode="&#xf4;" horiz-adv-x="382" 
d="M291 556h-41l-60 105l-57 -105h-42l66 144h66zM191 -12c-111 0 -154 121 -154 254s43 253 154 253s153 -120 153 -253s-42 -254 -153 -254zM191 49c65 0 82 96 82 193c0 96 -17 192 -82 192s-82 -96 -82 -192c0 -97 17 -193 82 -193z" />
    <glyph glyph-name="odieresis" unicode="&#xf6;" horiz-adv-x="382" 
d="M305 603c0 -24 -20 -43 -44 -43c-23 0 -43 19 -43 43s20 43 43 43c24 0 44 -19 44 -43zM164 603c0 -24 -20 -43 -44 -43c-23 0 -43 19 -43 43s20 43 43 43c24 0 44 -19 44 -43zM191 -12c-111 0 -154 121 -154 254s43 253 154 253s153 -120 153 -253s-42 -254 -153 -254z
M191 49c65 0 82 96 82 193c0 96 -17 192 -82 192s-82 -96 -82 -192c0 -97 17 -193 82 -193z" />
    <glyph glyph-name="ograve" unicode="&#xf2;" horiz-adv-x="382" 
d="M191 -12c-111 0 -154 121 -154 254s43 253 154 253s153 -120 153 -253s-42 -254 -153 -254zM191 49c65 0 82 96 82 193c0 96 -17 192 -82 192s-82 -96 -82 -192c0 -97 17 -193 82 -193zM228 556h-46l-100 144h67z" />
    <glyph glyph-name="ohungarumlaut" unicode="&#x151;" horiz-adv-x="382" 
d="M220 700l-77 -144h-38l56 144h59zM337 700l-78 -144h-38l56 144h60zM191 -12c-111 0 -154 121 -154 254s43 253 154 253s153 -120 153 -253s-42 -254 -153 -254zM191 49c65 0 82 96 82 193c0 96 -17 192 -82 192s-82 -96 -82 -192c0 -97 17 -193 82 -193z" />
    <glyph glyph-name="omacron" unicode="&#x14d;" horiz-adv-x="382" 
d="M315 573h-248v45h248v-45zM191 -12c-111 0 -154 121 -154 254s43 253 154 253s153 -120 153 -253s-42 -254 -153 -254zM191 49c65 0 82 96 82 193c0 96 -17 192 -82 192s-82 -96 -82 -192c0 -97 17 -193 82 -193z" />
    <glyph glyph-name="oslash" unicode="&#xf8;" horiz-adv-x="382" 
d="M91 0h-45l29 58c-27 48 -38 114 -38 184c0 133 43 253 154 253c36 0 65 -13 88 -35l12 23h45l-30 -59c26 -47 38 -113 38 -182c0 -133 -42 -254 -153 -254c-37 0 -66 13 -88 35zM109 242c0 -36 2 -71 8 -102l130 256c-13 23 -31 38 -56 38c-65 0 -82 -96 -82 -192z
M191 49c65 0 82 96 82 193c0 35 -3 70 -9 100l-129 -255c12 -24 30 -38 56 -38z" />
    <glyph glyph-name="oslashacute" unicode="&#x1ff;" horiz-adv-x="382" 
d="M300 700l-100 -144h-46l79 144h67zM91 0h-45l29 58c-27 48 -38 114 -38 184c0 133 43 253 154 253c36 0 65 -13 88 -35l12 23h45l-30 -59c26 -47 38 -113 38 -182c0 -133 -42 -254 -153 -254c-37 0 -66 13 -88 35zM109 242c0 -36 2 -71 8 -102l130 256
c-13 23 -31 38 -56 38c-65 0 -82 -96 -82 -192zM191 49c65 0 82 96 82 193c0 35 -3 70 -9 100l-129 -255c12 -24 30 -38 56 -38z" />
    <glyph glyph-name="otilde" unicode="&#xf5;" horiz-adv-x="382" 
d="M191 -12c-111 0 -154 121 -154 254s43 253 154 253s153 -120 153 -253s-42 -254 -153 -254zM191 49c65 0 82 96 82 193c0 96 -17 192 -82 192s-82 -96 -82 -192c0 -97 17 -193 82 -193zM231 554c-55 0 -52 95 -83 95c-17 0 -31 -27 -31 -89h-39c0 74 23 134 73 134
c55 0 53 -95 84 -95c17 0 30 27 30 89h39c0 -74 -22 -134 -73 -134z" />
    <glyph glyph-name="uni1ECD" unicode="&#x1ecd;" horiz-adv-x="382" 
d="M191 -12c-111 0 -154 121 -154 254s43 253 154 253s153 -120 153 -253s-42 -254 -153 -254zM191 49c65 0 82 96 82 193c0 96 -17 192 -82 192s-82 -96 -82 -192c0 -97 17 -193 82 -193zM192 -182c-24 0 -44 20 -44 44s20 44 44 44s44 -20 44 -44s-20 -44 -44 -44z" />
    <glyph glyph-name="uni1ECF" unicode="&#x1ecf;" horiz-adv-x="382" 
d="M191 -12c-111 0 -154 121 -154 254s43 253 154 253s153 -120 153 -253s-42 -254 -153 -254zM191 49c65 0 82 96 82 193c0 96 -17 192 -82 192s-82 -96 -82 -192c0 -97 17 -193 82 -193zM166 596l-31 7c6 26 25 47 57 47s55 -19 55 -61c0 -24 -8 -44 -20 -62h-34
c15 20 22 40 22 61c0 23 -11 32 -23 32c-15 0 -22 -9 -26 -24z" />
    <glyph glyph-name="uni1ED1" unicode="&#x1ed1;" horiz-adv-x="382" 
d="M290 556h-41l-60 105l-57 -105h-42l66 144h66zM410 771l-100 -144h-46l79 144h67zM191 -12c-111 0 -154 121 -154 254s43 253 154 253s153 -120 153 -253s-42 -254 -153 -254zM191 49c65 0 82 96 82 193c0 96 -17 192 -82 192s-82 -96 -82 -192c0 -97 17 -193 82 -193z
" />
    <glyph glyph-name="uni1ED3" unicode="&#x1ed3;" horiz-adv-x="382" 
d="M290 556h-41l-60 105l-57 -105h-42l66 144h66zM191 -12c-111 0 -154 121 -154 254s43 253 154 253s153 -120 153 -253s-42 -254 -153 -254zM191 49c65 0 82 96 82 193c0 96 -17 192 -82 192s-82 -96 -82 -192c0 -97 17 -193 82 -193zM113 627h-46l-100 144h67z" />
    <glyph glyph-name="uni1ED5" unicode="&#x1ed5;" horiz-adv-x="382" 
d="M290 556h-41l-60 105l-57 -105h-42l66 144h66zM191 -12c-111 0 -154 121 -154 254s43 253 154 253s153 -120 153 -253s-42 -254 -153 -254zM191 49c65 0 82 96 82 193c0 96 -17 192 -82 192s-82 -96 -82 -192c0 -97 17 -193 82 -193zM233 736l-31 7c6 26 25 47 57 47
s55 -19 55 -61c0 -24 -8 -44 -20 -62h-34c15 20 22 40 22 61c0 23 -11 32 -23 32c-15 0 -22 -9 -26 -24z" />
    <glyph glyph-name="uni1ED7" unicode="&#x1ed7;" horiz-adv-x="382" 
d="M292 523h-41l-60 105l-57 -105h-42l66 144h66zM191 -12c-111 0 -154 121 -154 254s43 253 154 253s153 -120 153 -253s-42 -254 -153 -254zM191 49c65 0 82 96 82 193c0 96 -17 192 -82 192s-82 -96 -82 -192c0 -97 17 -193 82 -193zM231 682c-55 0 -52 95 -83 95
c-17 0 -31 -27 -31 -89h-39c0 74 23 134 73 134c55 0 53 -95 84 -95c17 0 30 27 30 89h39c0 -74 -22 -134 -73 -134z" />
    <glyph glyph-name="uni1ED9" unicode="&#x1ed9;" horiz-adv-x="382" 
d="M291 556h-41l-60 105l-57 -105h-42l66 144h66zM191 -12c-111 0 -154 121 -154 254s43 253 154 253s153 -120 153 -253s-42 -254 -153 -254zM191 49c65 0 82 96 82 193c0 96 -17 192 -82 192s-82 -96 -82 -192c0 -97 17 -193 82 -193zM191 -182c-24 0 -44 20 -44 44
s20 44 44 44s44 -20 44 -44s-20 -44 -44 -44z" />
    <glyph glyph-name="ohorn" unicode="&#x1a1;" horiz-adv-x="382" 
d="M368 530c0 -47 -25 -90 -56 -118c22 -46 32 -107 32 -170c0 -133 -42 -254 -153 -254s-154 121 -154 254s43 253 154 253c44 0 77 -20 101 -51c19 20 32 46 35 67c-1 0 -7 -1 -10 -1c-22 0 -38 17 -38 40c0 22 17 42 41 42c26 0 48 -23 48 -62zM191 49c65 0 82 96 82 193
c0 96 -17 192 -82 192s-82 -96 -82 -192c0 -97 17 -193 82 -193z" />
    <glyph glyph-name="uni1EDB" unicode="&#x1edb;" horiz-adv-x="382" 
d="M300 700l-100 -144h-46l79 144h67zM368 530c0 -47 -25 -90 -56 -118c22 -46 32 -107 32 -170c0 -133 -42 -254 -153 -254s-154 121 -154 254s43 253 154 253c44 0 77 -20 101 -51c19 20 32 46 35 67c-1 0 -7 -1 -10 -1c-22 0 -38 17 -38 40c0 22 17 42 41 42
c26 0 48 -23 48 -62zM191 49c65 0 82 96 82 193c0 96 -17 192 -82 192s-82 -96 -82 -192c0 -97 17 -193 82 -193z" />
    <glyph glyph-name="uni1EDD" unicode="&#x1edd;" horiz-adv-x="382" 
d="M368 530c0 -47 -25 -90 -56 -118c22 -46 32 -107 32 -170c0 -133 -42 -254 -153 -254s-154 121 -154 254s43 253 154 253c44 0 77 -20 101 -51c19 20 32 46 35 67c-1 0 -7 -1 -10 -1c-22 0 -38 17 -38 40c0 22 17 42 41 42c26 0 48 -23 48 -62zM191 49c65 0 82 96 82 193
c0 96 -17 192 -82 192s-82 -96 -82 -192c0 -97 17 -193 82 -193zM228 556h-46l-100 144h67z" />
    <glyph glyph-name="uni1EDF" unicode="&#x1edf;" horiz-adv-x="382" 
d="M368 530c0 -47 -25 -90 -56 -118c22 -46 32 -107 32 -170c0 -133 -42 -254 -153 -254s-154 121 -154 254s43 253 154 253c44 0 77 -20 101 -51c19 20 32 46 35 67c-1 0 -7 -1 -10 -1c-22 0 -38 17 -38 40c0 22 17 42 41 42c26 0 48 -23 48 -62zM191 49c65 0 82 96 82 193
c0 96 -17 192 -82 192s-82 -96 -82 -192c0 -97 17 -193 82 -193zM166 596l-31 7c6 26 25 47 57 47s55 -19 55 -61c0 -24 -8 -44 -20 -62h-34c15 20 22 40 22 61c0 23 -11 32 -23 32c-15 0 -22 -9 -26 -24z" />
    <glyph glyph-name="uni1EE1" unicode="&#x1ee1;" horiz-adv-x="382" 
d="M368 530c0 -47 -25 -90 -56 -118c22 -46 32 -107 32 -170c0 -133 -42 -254 -153 -254s-154 121 -154 254s43 253 154 253c44 0 77 -20 101 -51c19 20 32 46 35 67c-1 0 -7 -1 -10 -1c-22 0 -38 17 -38 40c0 22 17 42 41 42c26 0 48 -23 48 -62zM191 49c65 0 82 96 82 193
c0 96 -17 192 -82 192s-82 -96 -82 -192c0 -97 17 -193 82 -193zM221 554c-55 0 -52 95 -83 95c-17 0 -31 -27 -31 -89h-39c0 74 23 134 73 134c55 0 53 -95 84 -95c17 0 30 27 30 89h39c0 -74 -22 -134 -73 -134z" />
    <glyph glyph-name="uni1EE3" unicode="&#x1ee3;" horiz-adv-x="382" 
d="M368 530c0 -47 -25 -90 -56 -118c22 -46 32 -107 32 -170c0 -133 -42 -254 -153 -254s-154 121 -154 254s43 253 154 253c44 0 77 -20 101 -51c19 20 32 46 35 67c-1 0 -7 -1 -10 -1c-22 0 -38 17 -38 40c0 22 17 42 41 42c26 0 48 -23 48 -62zM191 49c65 0 82 96 82 193
c0 96 -17 192 -82 192s-82 -96 -82 -192c0 -97 17 -193 82 -193zM193 -182c-24 0 -44 20 -44 44s20 44 44 44s44 -20 44 -44s-20 -44 -44 -44z" />
    <glyph glyph-name="oe" unicode="&#x153;" horiz-adv-x="608" 
d="M575 219h-234c1 -103 35 -174 104 -174c29 0 59 21 80 58l40 -36c-30 -48 -74 -79 -125 -79c-70 0 -107 42 -130 110c-22 -68 -60 -110 -119 -110c-111 0 -154 121 -154 254s43 253 154 253c59 0 96 -39 118 -107c22 70 61 107 117 107c109 0 149 -115 149 -253v-23z
M341 270h166c0 75 -16 168 -83 168c-66 0 -83 -100 -83 -168zM273 242c0 96 -16 192 -82 192c-65 0 -82 -96 -82 -192s17 -194 82 -194c66 0 82 98 82 194z" />
    <glyph glyph-name="uni1E57" unicode="&#x1e57;" horiz-adv-x="384" 
d="M215 -12c-33 0 -71 25 -91 79v-251h-68v667h68v-65c21 49 58 77 91 77c91 0 132 -105 132 -253c0 -146 -41 -254 -132 -254zM198 49c61 0 77 91 77 193s-16 192 -77 192c-31 0 -62 -37 -74 -80v-224c12 -42 43 -81 74 -81zM201 557c-24 0 -44 20 -44 44s20 44 44 44
s44 -20 44 -44s-20 -44 -44 -44z" />
    <glyph glyph-name="racute" unicode="&#x155;" horiz-adv-x="252" 
d="M255 700l-100 -144h-46l79 144h67zM124 0h-68v483h68v-77c23 51 61 87 112 87v-71c-6 2 -12 3 -18 3c-41 0 -75 -39 -94 -81v-344z" />
    <glyph glyph-name="rcaron" unicode="&#x159;" horiz-adv-x="252" 
d="M178 556h-66l-69 144h42l60 -105l57 105h41zM124 0h-68v483h68v-77c23 51 61 87 112 87v-71c-6 2 -12 3 -18 3c-41 0 -75 -39 -94 -81v-344z" />
    <glyph glyph-name="rcommaaccent" unicode="&#x157;" horiz-adv-x="252" 
d="M180 -138c0 -54 -32 -104 -70 -132l-31 25c30 21 55 57 57 87c-1 0 -7 -1 -10 -1c-23 0 -40 18 -40 42c0 23 19 44 43 44c27 0 51 -23 51 -65zM124 0h-68v483h68v-77c23 51 61 87 112 87v-71c-6 2 -12 3 -18 3c-41 0 -75 -39 -94 -81v-344z" />
    <glyph glyph-name="sacute" unicode="&#x15b;" horiz-adv-x="309" 
d="M268 700l-100 -144h-46l79 144h67zM152 -12c-58 0 -101 20 -131 61l33 47c24 -31 55 -52 93 -52c39 0 71 27 71 72c0 109 -182 102 -182 259c0 68 51 120 128 120c46 0 86 -19 115 -54l-32 -46c-20 28 -50 44 -82 44c-39 0 -64 -28 -64 -62c0 -102 182 -100 182 -259
c0 -78 -58 -130 -131 -130z" />
    <glyph glyph-name="scaron" unicode="&#x161;" horiz-adv-x="309" 
d="M194 556h-66l-69 144h42l60 -105l57 105h41zM152 -12c-58 0 -101 20 -131 61l33 47c24 -31 55 -52 93 -52c39 0 71 27 71 72c0 109 -182 102 -182 259c0 68 51 120 128 120c46 0 86 -19 115 -54l-32 -46c-20 28 -50 44 -82 44c-39 0 -64 -28 -64 -62
c0 -102 182 -100 182 -259c0 -78 -58 -130 -131 -130z" />
    <glyph glyph-name="scircumflex" unicode="&#x15d;" horiz-adv-x="309" 
d="M259 556h-41l-60 105l-57 -105h-42l66 144h66zM152 -12c-58 0 -101 20 -131 61l33 47c24 -31 55 -52 93 -52c39 0 71 27 71 72c0 109 -182 102 -182 259c0 68 51 120 128 120c46 0 86 -19 115 -54l-32 -46c-20 28 -50 44 -82 44c-39 0 -64 -28 -64 -62
c0 -102 182 -100 182 -259c0 -78 -58 -130 -131 -130z" />
    <glyph glyph-name="scedilla" unicode="&#x15f;" horiz-adv-x="309" 
d="M145 -191c-32 0 -57 14 -77 30l17 35c20 -18 37 -27 59 -27c25 0 47 17 47 43c0 20 -11 34 -29 34c-12 0 -20 -6 -28 -14l-31 17l23 63c-45 5 -80 24 -105 59l33 47c24 -31 55 -52 93 -52c39 0 71 27 71 72c0 109 -182 102 -182 259c0 68 51 120 128 120
c46 0 86 -19 115 -54l-32 -46c-20 28 -50 44 -82 44c-39 0 -64 -28 -64 -62c0 -102 182 -100 182 -259c0 -72 -50 -122 -115 -129l-18 -45c9 7 17 10 29 10c30 0 54 -26 54 -65c0 -47 -38 -80 -88 -80z" />
    <glyph glyph-name="scommaaccent" unicode="&#x219;" horiz-adv-x="310" 
d="M209 -138c0 -54 -32 -104 -70 -132l-31 25c30 21 55 57 57 87c-1 0 -7 -1 -10 -1c-23 0 -40 18 -40 42c0 23 19 44 43 44c27 0 51 -23 51 -65zM152 -12c-58 0 -101 20 -131 61l33 47c24 -31 55 -52 93 -52c39 0 71 27 71 72c0 109 -182 102 -182 259c0 68 51 120 128 120
c46 0 86 -19 115 -54l-32 -46c-20 28 -50 44 -82 44c-39 0 -64 -28 -64 -62c0 -102 182 -100 182 -259c0 -78 -58 -130 -131 -130z" />
    <glyph glyph-name="uni1E61" unicode="&#x1e61;" horiz-adv-x="309" 
d="M152 -12c-58 0 -101 20 -131 61l33 47c24 -31 55 -52 93 -52c39 0 71 27 71 72c0 109 -182 102 -182 259c0 68 51 120 128 120c46 0 86 -19 115 -54l-32 -46c-20 28 -50 44 -82 44c-39 0 -64 -28 -64 -62c0 -102 182 -100 182 -259c0 -78 -58 -130 -131 -130zM155 557
c-24 0 -44 20 -44 44s20 44 44 44s44 -20 44 -44s-20 -44 -44 -44z" />
    <glyph glyph-name="germandbls" unicode="&#xdf;" horiz-adv-x="452" 
d="M437 118c0 -70 -54 -130 -129 -130c-58 0 -94 22 -127 61l31 49c15 -21 43 -54 86 -54c34 0 67 28 67 72c0 109 -171 106 -171 252c0 90 98 106 98 179c0 38 -31 69 -76 69c-46 0 -82 -29 -82 -97v-519h-68v519c0 91 59 158 150 158c82 0 144 -54 144 -124
c0 -102 -99 -116 -99 -180c0 -102 176 -96 176 -255z" />
    <glyph glyph-name="longs" unicode="&#x17f;" horiz-adv-x="224" 
d="M139 0h-69v423h-47v60h47v81c0 70 37 113 103 113c25 0 52 -9 69 -27l-24 -54c-12 15 -22 20 -35 20c-31 0 -44 -20 -44 -52v-564z" />
    <glyph glyph-name="tbar" unicode="&#x167;" horiz-adv-x="233" 
d="M156 -12c-60 0 -86 33 -86 104v137h-49v45h49v149h-49v60h49v132h69v-132h65v-60h-65v-149h33v-45h-33v-127c0 -36 7 -53 30 -53c13 0 25 6 32 17l22 -50c-16 -17 -37 -28 -67 -28z" />
    <glyph glyph-name="tcaron" unicode="&#x165;" horiz-adv-x="233" 
d="M285 676c0 -54 -32 -104 -70 -132l-31 25c30 21 55 57 57 87c-1 0 -7 -1 -10 -1c-23 0 -40 18 -40 42c0 23 19 44 43 44c27 0 51 -23 51 -65zM156 -12c-60 0 -86 33 -86 104v331h-49v60h49v132h69v-132h65v-60h-65v-321c0 -36 7 -53 30 -53c13 0 25 6 32 17l22 -50
c-16 -17 -37 -28 -67 -28z" />
    <glyph glyph-name="tcommaaccent" unicode="&#x163;" horiz-adv-x="233" 
d="M171 -138c0 -54 -32 -104 -70 -132l-31 25c30 21 55 57 57 87c-1 0 -7 -1 -10 -1c-23 0 -40 18 -40 42c0 23 19 44 43 44c27 0 51 -23 51 -65zM156 -12c-60 0 -86 33 -86 104v331h-49v60h49v132h69v-132h65v-60h-65v-321c0 -36 7 -53 30 -53c13 0 25 6 32 17l22 -50
c-16 -17 -37 -28 -67 -28z" />
    <glyph glyph-name="uni021B" unicode="&#x21b;" horiz-adv-x="233" 
d="M171 -138c0 -54 -32 -104 -70 -132l-31 25c30 21 55 57 57 87c-1 0 -7 -1 -10 -1c-23 0 -40 18 -40 42c0 23 19 44 43 44c27 0 51 -23 51 -65zM156 -12c-60 0 -86 33 -86 104v331h-49v60h49v132h69v-132h65v-60h-65v-321c0 -36 7 -53 30 -53c13 0 25 6 32 17l22 -50
c-16 -17 -37 -28 -67 -28z" />
    <glyph glyph-name="uni1E6B" unicode="&#x1e6b;" horiz-adv-x="233" 
d="M156 -12c-60 0 -86 33 -86 104v331h-49v60h49v132h69v-132h65v-60h-65v-321c0 -36 7 -53 30 -53c13 0 25 6 32 17l22 -50c-16 -17 -37 -28 -67 -28zM106 724c-24 0 -44 20 -44 44s20 44 44 44s44 -20 44 -44s-20 -44 -44 -44z" />
    <glyph glyph-name="uacute" unicode="&#xfa;" 
d="M298 700l-100 -144h-46l79 144h67zM322 0h-68v66c-21 -43 -61 -78 -108 -78c-64 0 -90 33 -90 105v390h68v-372c0 -42 16 -62 46 -62c37 0 69 37 84 77v357h68v-483z" />
    <glyph glyph-name="ubreve" unicode="&#x16d;" 
d="M322 0h-68v66c-21 -43 -61 -78 -108 -78c-64 0 -90 33 -90 105v390h68v-372c0 -42 16 -62 46 -62c37 0 69 37 84 77v357h68v-483zM308 613c-27 -37 -70 -61 -119 -61c-48 0 -92 24 -119 61l36 28c18 -27 52 -44 83 -44c32 0 66 17 83 44z" />
    <glyph glyph-name="ucircumflex" unicode="&#xfb;" 
d="M290 556h-41l-60 105l-57 -105h-42l66 144h66zM322 0h-68v66c-21 -43 -61 -78 -108 -78c-64 0 -90 33 -90 105v390h68v-372c0 -42 16 -62 46 -62c37 0 69 37 84 77v357h68v-483z" />
    <glyph glyph-name="udieresis" unicode="&#xfc;" 
d="M304 603c0 -24 -20 -43 -44 -43c-23 0 -43 19 -43 43s20 43 43 43c24 0 44 -19 44 -43zM163 603c0 -24 -20 -43 -44 -43c-23 0 -43 19 -43 43s20 43 43 43c24 0 44 -19 44 -43zM322 0h-68v66c-21 -43 -61 -78 -108 -78c-64 0 -90 33 -90 105v390h68v-372
c0 -42 16 -62 46 -62c37 0 69 37 84 77v357h68v-483z" />
    <glyph glyph-name="ugrave" unicode="&#xf9;" 
d="M322 0h-68v66c-21 -43 -61 -78 -108 -78c-64 0 -90 33 -90 105v390h68v-372c0 -42 16 -62 46 -62c37 0 69 37 84 77v357h68v-483zM226 556h-46l-100 144h67z" />
    <glyph glyph-name="uhungarumlaut" unicode="&#x171;" 
d="M322 0h-68v66c-21 -43 -61 -78 -108 -78c-64 0 -90 33 -90 105v390h68v-372c0 -42 16 -62 46 -62c37 0 69 37 84 77v357h68v-483zM218 700l-77 -144h-38l56 144h59zM335 700l-78 -144h-38l56 144h60z" />
    <glyph glyph-name="umacron" unicode="&#x16b;" 
d="M322 0h-68v66c-21 -43 -61 -78 -108 -78c-64 0 -90 33 -90 105v390h68v-372c0 -42 16 -62 46 -62c37 0 69 37 84 77v357h68v-483zM313 573h-248v45h248v-45z" />
    <glyph glyph-name="uogonek" unicode="&#x173;" 
d="M322 0c-39 -26 -66 -61 -66 -108c0 -29 12 -41 29 -41s28 13 32 34l35 -18c-9 -29 -29 -53 -68 -53c-41 0 -70 25 -70 76c0 42 20 79 50 110h-10v66c-21 -43 -61 -78 -108 -78c-64 0 -90 33 -90 105v390h68v-372c0 -42 16 -62 46 -62c37 0 69 37 84 77v357h68v-483z" />
    <glyph glyph-name="uring" unicode="&#x16f;" 
d="M189 545c-46 0 -83 38 -83 84c0 45 37 82 83 82s82 -37 82 -82c0 -46 -36 -84 -82 -84zM189 581c26 0 47 21 47 48c0 25 -21 46 -47 46s-47 -21 -47 -46c0 -27 21 -48 47 -48zM322 0h-68v66c-21 -43 -61 -78 -108 -78c-64 0 -90 33 -90 105v390h68v-372
c0 -42 16 -62 46 -62c37 0 69 37 84 77v357h68v-483z" />
    <glyph glyph-name="utilde" unicode="&#x169;" 
d="M322 0h-68v66c-21 -43 -61 -78 -108 -78c-64 0 -90 33 -90 105v390h68v-372c0 -42 16 -62 46 -62c37 0 69 37 84 77v357h68v-483zM228 554c-55 0 -52 95 -83 95c-17 0 -31 -27 -31 -89h-39c0 74 23 134 73 134c55 0 53 -95 84 -95c17 0 30 27 30 89h39
c0 -74 -22 -134 -73 -134z" />
    <glyph glyph-name="uni1EE5" unicode="&#x1ee5;" 
d="M322 0h-68v66c-21 -43 -61 -78 -108 -78c-64 0 -90 33 -90 105v390h68v-372c0 -42 16 -62 46 -62c37 0 69 37 84 77v357h68v-483zM190 -182c-24 0 -44 20 -44 44s20 44 44 44s44 -20 44 -44s-20 -44 -44 -44z" />
    <glyph glyph-name="uhorn" unicode="&#x1b0;" 
d="M322 0h-68v66c-21 -43 -61 -78 -108 -78c-64 0 -90 33 -90 105v390h68v-372c0 -42 16 -62 46 -62c37 0 69 37 84 77v357h68v-33c19 21 32 47 34 66c-1 0 -7 -1 -10 -1c-22 0 -38 17 -38 40c0 22 17 41 41 41c26 0 48 -22 48 -60c0 -48 -26 -99 -75 -134v-402z" />
    <glyph glyph-name="uni1EE7" unicode="&#x1ee7;" 
d="M322 0h-68v66c-21 -43 -61 -78 -108 -78c-64 0 -90 33 -90 105v390h68v-372c0 -42 16 -62 46 -62c37 0 69 37 84 77v357h68v-483zM164 596l-31 7c6 26 25 47 57 47s55 -19 55 -61c0 -24 -8 -44 -20 -62h-34c15 20 22 40 22 61c0 23 -11 32 -23 32c-15 0 -22 -9 -26 -24z
" />
    <glyph glyph-name="uni1EE9" unicode="&#x1ee9;" 
d="M298 700l-100 -144h-46l79 144h67zM322 0h-68v66c-21 -43 -61 -78 -108 -78c-64 0 -90 33 -90 105v390h68v-372c0 -42 16 -62 46 -62c37 0 69 37 84 77v357h68v-33c19 21 32 47 34 66c-1 0 -7 -1 -10 -1c-22 0 -38 17 -38 40c0 22 17 41 41 41c26 0 48 -22 48 -60
c0 -48 -26 -99 -75 -134v-402z" />
    <glyph glyph-name="uni1EEB" unicode="&#x1eeb;" 
d="M226 556h-46l-100 144h67zM322 0h-68v66c-21 -43 -61 -78 -108 -78c-64 0 -90 33 -90 105v390h68v-372c0 -42 16 -62 46 -62c37 0 69 37 84 77v357h68v-33c19 21 32 47 34 66c-1 0 -7 -1 -10 -1c-22 0 -38 17 -38 40c0 22 17 41 41 41c26 0 48 -22 48 -60
c0 -48 -26 -99 -75 -134v-402z" />
    <glyph glyph-name="uni1EED" unicode="&#x1eed;" 
d="M164 596l-31 7c6 26 25 47 57 47s55 -19 55 -61c0 -24 -8 -44 -20 -62h-34c15 20 22 40 22 61c0 23 -11 32 -23 32c-15 0 -22 -9 -26 -24zM322 0h-68v66c-21 -43 -61 -78 -108 -78c-64 0 -90 33 -90 105v390h68v-372c0 -42 16 -62 46 -62c37 0 69 37 84 77v357h68v-33
c19 21 32 47 34 66c-1 0 -7 -1 -10 -1c-22 0 -38 17 -38 40c0 22 17 41 41 41c26 0 48 -22 48 -60c0 -48 -26 -99 -75 -134v-402z" />
    <glyph glyph-name="uni1EEF" unicode="&#x1eef;" 
d="M322 0h-68v66c-21 -43 -61 -78 -108 -78c-64 0 -90 33 -90 105v390h68v-372c0 -42 16 -62 46 -62c37 0 69 37 84 77v357h68v-33c19 21 32 47 34 66c-1 0 -7 -1 -10 -1c-22 0 -38 17 -38 40c0 22 17 41 41 41c26 0 48 -22 48 -60c0 -48 -26 -99 -75 -134v-402zM229 554
c-55 0 -52 95 -83 95c-17 0 -31 -27 -31 -89h-39c0 74 23 134 73 134c55 0 53 -95 84 -95c17 0 30 27 30 89h39c0 -74 -22 -134 -73 -134z" />
    <glyph glyph-name="uni1EF1" unicode="&#x1ef1;" 
d="M190 -182c-24 0 -44 20 -44 44s20 44 44 44s44 -20 44 -44s-20 -44 -44 -44zM322 0h-68v66c-21 -43 -61 -78 -108 -78c-64 0 -90 33 -90 105v390h68v-372c0 -42 16 -62 46 -62c37 0 69 37 84 77v357h68v-33c19 21 32 47 34 66c-1 0 -7 -1 -10 -1c-22 0 -38 17 -38 40
c0 22 17 41 41 41c26 0 48 -22 48 -60c0 -48 -26 -99 -75 -134v-402z" />
    <glyph glyph-name="wacute" unicode="&#x1e83;" horiz-adv-x="541" 
d="M380 700l-100 -144h-46l79 144h67zM423 0h-71l-81 389l-82 -389h-71l-105 483h72l72 -387l77 387h70l79 -387l73 387h72z" />
    <glyph glyph-name="wcircumflex" unicode="&#x175;" horiz-adv-x="541" 
d="M371 556h-41l-60 105l-57 -105h-42l66 144h66zM423 0h-71l-81 389l-82 -389h-71l-105 483h72l72 -387l77 387h70l79 -387l73 387h72z" />
    <glyph glyph-name="wdieresis" unicode="&#x1e85;" horiz-adv-x="541" 
d="M385 603c0 -24 -20 -43 -44 -43c-23 0 -43 19 -43 43s20 43 43 43c24 0 44 -19 44 -43zM244 603c0 -24 -20 -43 -44 -43c-23 0 -43 19 -43 43s20 43 43 43c24 0 44 -19 44 -43zM423 0h-71l-81 389l-82 -389h-71l-105 483h72l72 -387l77 387h70l79 -387l73 387h72z" />
    <glyph glyph-name="wgrave" unicode="&#x1e81;" horiz-adv-x="541" 
d="M423 0h-71l-81 389l-82 -389h-71l-105 483h72l72 -387l77 387h70l79 -387l73 387h72zM307 556h-46l-100 144h67z" />
    <glyph glyph-name="yacute" unicode="&#xfd;" horiz-adv-x="326" 
d="M33 -189l11 60c7 -4 18 -6 24 -6c23 0 33 12 42 45l19 75l-120 498h74l79 -396l82 396h72l-143 -589c-19 -70 -48 -90 -98 -90c-14 0 -33 3 -42 7zM272 700l-100 -144h-46l79 144h67z" />
    <glyph glyph-name="ycircumflex" unicode="&#x177;" horiz-adv-x="326" 
d="M33 -189l11 60c7 -4 18 -6 24 -6c23 0 33 12 42 45l19 75l-120 498h74l79 -396l82 396h72l-143 -589c-19 -70 -48 -90 -98 -90c-14 0 -33 3 -42 7zM266 556h-41l-60 105l-57 -105h-42l66 144h66z" />
    <glyph glyph-name="ydieresis" unicode="&#xff;" horiz-adv-x="326" 
d="M33 -189l11 60c7 -4 18 -6 24 -6c23 0 33 12 42 45l19 75l-120 498h74l79 -396l82 396h72l-143 -589c-19 -70 -48 -90 -98 -90c-14 0 -33 3 -42 7zM279 603c0 -24 -20 -43 -44 -43c-23 0 -43 19 -43 43s20 43 43 43c24 0 44 -19 44 -43zM138 603c0 -24 -20 -43 -44 -43
c-23 0 -43 19 -43 43s20 43 43 43c24 0 44 -19 44 -43z" />
    <glyph glyph-name="ygrave" unicode="&#x1ef3;" horiz-adv-x="326" 
d="M33 -189l11 60c7 -4 18 -6 24 -6c23 0 33 12 42 45l19 75l-120 498h74l79 -396l82 396h72l-143 -589c-19 -70 -48 -90 -98 -90c-14 0 -33 3 -42 7zM199 556h-46l-100 144h67z" />
    <glyph glyph-name="yacute.alt1" 
d="M298 700l-100 -144h-46l79 144h67zM178 -196c-50 0 -97 17 -127 49l28 58c28 -32 62 -46 95 -46c49 0 80 39 80 116v93c-21 -43 -61 -78 -108 -78c-64 0 -90 33 -90 104v383h68v-364c0 -43 16 -63 46 -63c37 0 69 38 84 78v349h68v-495c0 -117 -50 -184 -144 -184z" />
    <glyph glyph-name="ycircumflex.alt1" 
d="M288 556h-41l-60 105l-57 -105h-42l66 144h66zM178 -196c-50 0 -97 17 -127 49l28 58c28 -32 62 -46 95 -46c49 0 80 39 80 116v93c-21 -43 -61 -78 -108 -78c-64 0 -90 33 -90 104v383h68v-364c0 -43 16 -63 46 -63c37 0 69 38 84 78v349h68v-495
c0 -117 -50 -184 -144 -184z" />
    <glyph glyph-name="ydieresis.alt1" 
d="M303 603c0 -24 -20 -43 -44 -43c-23 0 -43 19 -43 43s20 43 43 43c24 0 44 -19 44 -43zM162 603c0 -24 -20 -43 -44 -43c-23 0 -43 19 -43 43s20 43 43 43c24 0 44 -19 44 -43zM178 -196c-50 0 -97 17 -127 49l28 58c28 -32 62 -46 95 -46c49 0 80 39 80 116v93
c-21 -43 -61 -78 -108 -78c-64 0 -90 33 -90 104v383h68v-364c0 -43 16 -63 46 -63c37 0 69 38 84 78v349h68v-495c0 -117 -50 -184 -144 -184z" />
    <glyph glyph-name="ygrave.alt1" 
d="M178 -196c-50 0 -97 17 -127 49l28 58c28 -32 62 -46 95 -46c49 0 80 39 80 116v93c-21 -43 -61 -78 -108 -78c-64 0 -90 33 -90 104v383h68v-364c0 -43 16 -63 46 -63c37 0 69 38 84 78v349h68v-495c0 -117 -50 -184 -144 -184zM226 556h-46l-100 144h67z" />
    <glyph glyph-name="zacute" unicode="&#x17a;" horiz-adv-x="303" 
d="M260 700l-100 -144h-46l79 144h67zM268 0h-234v54l151 369h-151v60h230v-52l-150 -371h154v-60z" />
    <glyph glyph-name="zcaron" unicode="&#x17e;" horiz-adv-x="303" 
d="M184 556h-66l-69 144h42l60 -105l57 105h41zM268 0h-234v54l151 369h-151v60h230v-52l-150 -371h154v-60z" />
    <glyph glyph-name="zdotaccent" unicode="&#x17c;" horiz-adv-x="303" 
d="M268 0h-234v54l151 369h-151v60h230v-52l-150 -371h154v-60zM150 557c-24 0 -44 20 -44 44s20 44 44 44s44 -20 44 -44s-20 -44 -44 -44z" />
    <glyph glyph-name="eth" unicode="&#xf0;" horiz-adv-x="382" 
d="M118 513l-17 38l97 43c-12 24 -23 46 -35 65l62 30c13 -22 24 -44 35 -67l69 31l17 -37l-69 -31c43 -104 67 -218 67 -330c0 -149 -42 -267 -153 -267s-154 118 -154 247s41 246 139 246c41 0 67 -24 83 -61c-9 41 -25 90 -44 137zM191 49c65 0 82 94 82 186
c0 91 -17 186 -82 186c-64 0 -82 -95 -82 -186c0 -92 18 -186 82 -186z" />
    <glyph glyph-name="thorn" unicode="&#xfe;" horiz-adv-x="384" 
d="M215 -12c-34 0 -71 21 -91 75v-247h-68v851h68v-245c21 48 54 73 91 73c91 0 132 -105 132 -253c0 -146 -41 -254 -132 -254zM198 49c61 0 77 91 77 193s-16 192 -77 192c-31 0 -62 -37 -74 -80v-224c12 -42 43 -81 74 -81z" />
    <glyph glyph-name="Aacute.smcp" unicode="&#xf7e1;" horiz-adv-x="315" 
d="M266 750l-100 -144h-46l79 144h67zM117 550h81l111 -550h-73l-22 124h-114l-22 -124h-73zM205 187l-48 275l-48 -275h96z" />
    <glyph glyph-name="Abreve.smcp" unicode="&#xf66d;" horiz-adv-x="315" 
d="M117 550h81l111 -550h-73l-22 124h-114l-22 -124h-73zM205 187l-48 275l-48 -275h96zM275 663c-27 -37 -70 -61 -119 -61c-48 0 -92 24 -119 61l36 28c18 -27 52 -44 83 -44c32 0 66 17 83 44z" />
    <glyph glyph-name="Acircumflex.smcp" unicode="&#xf7e2;" horiz-adv-x="315" 
d="M257 606h-41l-60 105l-57 -105h-42l66 144h66zM117 550h81l111 -550h-73l-22 124h-114l-22 -124h-73zM205 187l-48 275l-48 -275h96z" />
    <glyph glyph-name="Adieresis.smcp" unicode="&#xf7e4;" horiz-adv-x="315" 
d="M271 658c0 -24 -20 -43 -44 -43c-23 0 -43 19 -43 43s20 43 43 43c24 0 44 -19 44 -43zM130 658c0 -24 -20 -43 -44 -43c-23 0 -43 19 -43 43s20 43 43 43c24 0 44 -19 44 -43zM117 550h81l111 -550h-73l-22 124h-114l-22 -124h-73zM205 187l-48 275l-48 -275h96z" />
    <glyph glyph-name="Agrave.smcp" unicode="&#xf7e0;" horiz-adv-x="315" 
d="M117 550h81l111 -550h-73l-22 124h-114l-22 -124h-73zM205 187l-48 275l-48 -275h96zM194 606h-46l-100 144h67z" />
    <glyph glyph-name="Amacron.smcp" unicode="&#xf66e;" horiz-adv-x="315" 
d="M281 623h-248v45h248v-45zM117 550h81l111 -550h-73l-22 124h-114l-22 -124h-73zM205 187l-48 275l-48 -275h96z" />
    <glyph glyph-name="Aogonek.smcp" unicode="&#xf66f;" horiz-adv-x="315" 
d="M117 550h81l111 -550c-39 -26 -66 -61 -66 -108c0 -29 12 -41 29 -41s28 13 32 34l35 -18c-9 -29 -29 -53 -68 -53c-41 0 -70 25 -70 76c0 42 20 79 50 110h-15l-22 124h-114l-22 -124h-73zM205 187l-48 275l-48 -275h96z" />
    <glyph glyph-name="Aring.smcp" unicode="&#xf7e5;" horiz-adv-x="315" 
d="M157 575c-46 0 -83 38 -83 84c0 45 37 82 83 82s82 -37 82 -82c0 -46 -36 -84 -82 -84zM157 611c26 0 47 21 47 48c0 25 -21 46 -47 46s-47 -21 -47 -46c0 -27 21 -48 47 -48zM117 550h81l111 -550h-73l-22 124h-114l-22 -124h-73zM205 187l-48 275l-48 -275h96z" />
    <glyph glyph-name="Atilde.smcp" unicode="&#xf7e3;" horiz-adv-x="315" 
d="M117 550h81l111 -550h-73l-22 124h-114l-22 -124h-73zM205 187l-48 275l-48 -275h96zM197 604c-55 0 -52 95 -83 95c-17 0 -31 -27 -31 -89h-39c0 74 23 134 73 134c55 0 53 -95 84 -95c17 0 30 27 30 89h39c0 -74 -22 -134 -73 -134z" />
    <glyph glyph-name="uni1EA0.smcp" horiz-adv-x="315" 
d="M117 550h81l111 -550h-73l-22 124h-114l-22 -124h-73zM205 187l-48 275l-48 -275h96zM157 -182c-24 0 -44 20 -44 44s20 44 44 44s44 -20 44 -44s-20 -44 -44 -44z" />
    <glyph glyph-name="uni1EA2.smcp" horiz-adv-x="315" 
d="M117 550h81l111 -550h-73l-22 124h-114l-22 -124h-73zM205 187l-48 275l-48 -275h96zM132 649l-31 7c6 26 25 47 57 47s55 -19 55 -61c0 -24 -8 -44 -20 -62h-34c15 20 22 40 22 61c0 23 -11 32 -23 32c-15 0 -22 -9 -26 -24z" />
    <glyph glyph-name="uni1EA4.smcp" horiz-adv-x="315" 
d="M258 606h-41l-60 105l-57 -105h-42l66 144h66zM379 821l-100 -144h-46l79 144h67zM117 550h81l111 -550h-73l-22 124h-114l-22 -124h-73zM205 187l-48 275l-48 -275h96z" />
    <glyph glyph-name="uni1EAC.smcp" horiz-adv-x="315" 
d="M257 606h-41l-60 105l-57 -105h-42l66 144h66zM117 550h81l111 -550h-73l-22 124h-114l-22 -124h-73zM205 187l-48 275l-48 -275h96zM158 -182c-24 0 -44 20 -44 44s20 44 44 44s44 -20 44 -44s-20 -44 -44 -44z" />
    <glyph glyph-name="uni1EA6.smcp" horiz-adv-x="315" 
d="M258 606h-41l-60 105l-57 -105h-42l66 144h66zM117 550h81l111 -550h-73l-22 124h-114l-22 -124h-73zM205 187l-48 275l-48 -275h96zM81 677h-46l-100 144h67z" />
    <glyph glyph-name="uni1EA8.smcp" horiz-adv-x="315" 
d="M257 606h-41l-60 105l-57 -105h-42l66 144h66zM117 550h81l111 -550h-73l-22 124h-114l-22 -124h-73zM205 187l-48 275l-48 -275h96zM201 786l-31 7c6 26 25 47 57 47s55 -19 55 -61c0 -24 -8 -44 -20 -62h-34c15 20 22 40 22 61c0 23 -11 32 -23 32
c-15 0 -22 -9 -26 -24z" />
    <glyph glyph-name="uni1EAE.smcp" horiz-adv-x="315" 
d="M265 821l-100 -144h-46l79 144h67zM117 550h81l111 -550h-73l-22 124h-114l-22 -124h-73zM205 187l-48 275l-48 -275h96zM276 642c-27 -37 -70 -61 -119 -61c-48 0 -92 24 -119 61l36 28c18 -27 52 -44 83 -44c32 0 66 17 83 44z" />
    <glyph glyph-name="uni1EAA.smcp" horiz-adv-x="315" 
d="M256 573h-41l-60 105l-57 -105h-42l66 144h66zM117 550h81l111 -550h-73l-22 124h-114l-22 -124h-73zM205 187l-48 275l-48 -275h96zM196 732c-55 0 -52 95 -83 95c-17 0 -31 -27 -31 -89h-39c0 74 23 134 73 134c55 0 53 -95 84 -95c17 0 30 27 30 89h39
c0 -74 -22 -134 -73 -134z" />
    <glyph glyph-name="uni1EB0.smcp" horiz-adv-x="315" 
d="M117 550h81l111 -550h-73l-22 124h-114l-22 -124h-73zM205 187l-48 275l-48 -275h96zM194 677h-46l-100 144h67zM276 642c-27 -37 -70 -61 -119 -61c-48 0 -92 24 -119 61l36 28c18 -27 52 -44 83 -44c32 0 66 17 83 44z" />
    <glyph glyph-name="uni1EB2.smcp" horiz-adv-x="315" 
d="M117 550h81l111 -550h-73l-22 124h-114l-22 -124h-73zM205 187l-48 275l-48 -275h96zM132 740l-31 7c6 26 25 47 57 47s55 -19 55 -61c0 -24 -8 -44 -20 -62h-34c15 20 22 40 22 61c0 23 -11 32 -23 32c-15 0 -22 -9 -26 -24zM276 642c-27 -37 -70 -61 -119 -61
c-48 0 -92 24 -119 61l36 28c18 -27 52 -44 83 -44c32 0 66 17 83 44z" />
    <glyph glyph-name="uni1EB4.smcp" horiz-adv-x="315" 
d="M276 642c-27 -37 -70 -61 -119 -61c-48 0 -92 24 -119 61l36 28c18 -27 52 -44 83 -44c32 0 66 17 83 44zM117 550h81l111 -550h-73l-22 124h-114l-22 -124h-73zM205 187l-48 275l-48 -275h96zM197 699c-55 0 -52 95 -83 95c-17 0 -31 -27 -31 -89h-39
c0 74 23 134 73 134c55 0 53 -95 84 -95c17 0 30 27 30 89h39c0 -74 -22 -134 -73 -134z" />
    <glyph glyph-name="uni1EB6.smcp" horiz-adv-x="315" 
d="M117 550h81l111 -550h-73l-22 124h-114l-22 -124h-73zM205 187l-48 275l-48 -275h96zM158 -182c-24 0 -44 20 -44 44s20 44 44 44s44 -20 44 -44s-20 -44 -44 -44zM275 663c-27 -37 -70 -61 -119 -61c-48 0 -92 24 -119 61l36 28c18 -27 52 -44 83 -44c32 0 66 17 83 44z
" />
    <glyph glyph-name="AE.smcp" unicode="&#xf7e6;" horiz-adv-x="471" 
d="M434 0h-219v124h-104l-38 -124h-74l185 550h250v-63h-147v-174h141v-63h-141v-187h147v-63zM215 187v276l-87 -276h87z" />
    <glyph glyph-name="AEacute.smcp" unicode="&#xf670;" horiz-adv-x="471" 
d="M360 750l-100 -144h-46l79 144h67zM434 0h-219v124h-104l-38 -124h-74l185 550h250v-63h-147v-174h141v-63h-141v-187h147v-63zM215 187v276l-87 -276h87z" />
    <glyph glyph-name="uni1E02.smcp" horiz-adv-x="341" 
d="M180 0h-124v550h120c82 0 126 -57 126 -141c0 -66 -27 -107 -70 -124c47 -14 77 -74 77 -136c0 -89 -39 -149 -129 -149zM168 63c49 0 68 35 68 93c0 49 -19 94 -68 94h-40v-187h40zM164 314c49 0 64 37 64 86c0 45 -13 87 -64 87h-36v-173h36zM180 607
c-24 0 -44 20 -44 44s20 44 44 44s44 -20 44 -44s-20 -44 -44 -44z" />
    <glyph glyph-name="Cacute.smcp" unicode="&#xf671;" horiz-adv-x="351" 
d="M306 750l-100 -144h-46l79 144h67zM196 -12c-114 0 -157 127 -157 287c0 161 43 287 157 287c73 0 105 -51 126 -111l-59 -20c-15 44 -34 68 -67 68c-64 0 -84 -99 -84 -224c0 -124 20 -224 84 -224c35 0 55 27 67 73l59 -19c-20 -63 -51 -117 -126 -117z" />
    <glyph glyph-name="Ccaron.smcp" unicode="&#xf672;" horiz-adv-x="351" 
d="M231 606h-66l-69 144h42l60 -105l57 105h41zM196 -12c-114 0 -157 127 -157 287c0 161 43 287 157 287c73 0 105 -51 126 -111l-59 -20c-15 44 -34 68 -67 68c-64 0 -84 -99 -84 -224c0 -124 20 -224 84 -224c35 0 55 27 67 73l59 -19c-20 -63 -51 -117 -126 -117z" />
    <glyph glyph-name="Ccedilla.smcp" unicode="&#xf7e7;" horiz-adv-x="351" 
d="M186 -191c-32 0 -57 14 -77 30l17 35c20 -18 37 -27 59 -27c25 0 47 17 47 43c0 20 -11 34 -29 34c-12 0 -20 -6 -28 -14l-31 17l23 64c-92 20 -128 138 -128 284c0 161 43 287 157 287c73 0 105 -51 126 -111l-59 -20c-15 44 -34 68 -67 68c-64 0 -84 -99 -84 -224
c0 -124 20 -224 84 -224c35 0 55 27 67 73l59 -19c-19 -59 -48 -110 -113 -116l-18 -45c9 7 17 10 29 10c30 0 54 -26 54 -65c0 -47 -38 -80 -88 -80z" />
    <glyph glyph-name="Ccircumflex.smcp" unicode="&#xf673;" horiz-adv-x="351" 
d="M296 606h-41l-60 105l-57 -105h-42l66 144h66zM196 -12c-114 0 -157 127 -157 287c0 161 43 287 157 287c73 0 105 -51 126 -111l-59 -20c-15 44 -34 68 -67 68c-64 0 -84 -99 -84 -224c0 -124 20 -224 84 -224c35 0 55 27 67 73l59 -19c-20 -63 -51 -117 -126 -117z" />
    <glyph glyph-name="Cdotaccent.smcp" unicode="&#xf674;" horiz-adv-x="351" 
d="M196 -12c-114 0 -157 127 -157 287c0 161 43 287 157 287c73 0 105 -51 126 -111l-59 -20c-15 44 -34 68 -67 68c-64 0 -84 -99 -84 -224c0 -124 20 -224 84 -224c35 0 55 27 67 73l59 -19c-20 -63 -51 -117 -126 -117zM196 607c-24 0 -44 20 -44 44s20 44 44 44
s44 -20 44 -44s-20 -44 -44 -44z" />
    <glyph glyph-name="Dcaron.smcp" unicode="&#xf675;" horiz-adv-x="386" 
d="M222 606h-66l-69 144h42l60 -105l57 105h41zM168 0h-117v550h117c121 0 175 -117 175 -276s-54 -274 -175 -274zM168 63c70 0 102 87 102 211c0 126 -33 213 -102 213h-45v-424h45z" />
    <glyph glyph-name="Dcroat.smcp" unicode="&#xf676;" horiz-adv-x="415" 
d="M197 0h-117v254h-59v48h59v248h117c121 0 175 -117 175 -276s-54 -274 -175 -274zM217 254h-65v-191h45c70 0 102 87 102 211c0 126 -33 213 -102 213h-45v-185h65v-48z" />
    <glyph glyph-name="uni1E0A.smcp" horiz-adv-x="386" 
d="M173 0h-117v550h117c121 0 175 -117 175 -276s-54 -274 -175 -274zM173 63c70 0 102 87 102 211c0 126 -33 213 -102 213h-45v-424h45zM194 607c-24 0 -44 20 -44 44s20 44 44 44s44 -20 44 -44s-20 -44 -44 -44z" />
    <glyph glyph-name="Eacute.smcp" unicode="&#xf7e9;" horiz-adv-x="313" 
d="M275 750l-100 -144h-46l79 144h67zM275 0h-219v550h219v-63h-147v-174h141v-63h-141v-187h147v-63z" />
    <glyph glyph-name="Ebreve.smcp" unicode="&#xf677;" horiz-adv-x="313" 
d="M275 0h-219v550h219v-63h-147v-174h141v-63h-141v-187h147v-63zM285 663c-27 -37 -70 -61 -119 -61c-48 0 -92 24 -119 61l36 28c18 -27 52 -44 83 -44c32 0 66 17 83 44z" />
    <glyph glyph-name="Ecaron.smcp" unicode="&#xf678;" horiz-adv-x="313" 
d="M200 606h-66l-69 144h42l60 -105l57 105h41zM275 0h-219v550h219v-63h-147v-174h141v-63h-141v-187h147v-63z" />
    <glyph glyph-name="Ecircumflex.smcp" unicode="&#xf7ea;" horiz-adv-x="313" 
d="M266 606h-41l-60 105l-57 -105h-42l66 144h66zM275 0h-219v550h219v-63h-147v-174h141v-63h-141v-187h147v-63z" />
    <glyph glyph-name="Edieresis.smcp" unicode="&#xf7eb;" horiz-adv-x="313" 
d="M281 653c0 -24 -20 -43 -44 -43c-23 0 -43 19 -43 43s20 43 43 43c24 0 44 -19 44 -43zM140 653c0 -24 -20 -43 -44 -43c-23 0 -43 19 -43 43s20 43 43 43c24 0 44 -19 44 -43zM275 0h-219v550h219v-63h-147v-174h141v-63h-141v-187h147v-63z" />
    <glyph glyph-name="Edotaccent.smcp" unicode="&#xf679;" horiz-adv-x="313" 
d="M275 0h-219v550h219v-63h-147v-174h141v-63h-141v-187h147v-63zM167 607c-24 0 -44 20 -44 44s20 44 44 44s44 -20 44 -44s-20 -44 -44 -44z" />
    <glyph glyph-name="Egrave.smcp" unicode="&#xf7e8;" horiz-adv-x="313" 
d="M275 0h-219v550h219v-63h-147v-174h141v-63h-141v-187h147v-63zM202 606h-46l-100 144h67z" />
    <glyph glyph-name="Emacron.smcp" unicode="&#xf67a;" horiz-adv-x="313" 
d="M275 0h-219v550h219v-63h-147v-174h141v-63h-141v-187h147v-63zM291 623h-248v45h248v-45z" />
    <glyph glyph-name="Eogonek.smcp" unicode="&#xf67c;" horiz-adv-x="313" 
d="M270 -115l35 -18c-9 -29 -29 -53 -68 -53c-41 0 -70 25 -70 76c0 42 20 79 50 110h-161v550h219v-63h-147v-174h141v-63h-141v-187h147v-63c-39 -26 -66 -61 -66 -108c0 -29 12 -41 29 -41s28 13 32 34z" />
    <glyph glyph-name="uni1EB8.smcp" horiz-adv-x="313" 
d="M275 0h-219v550h219v-63h-147v-174h141v-63h-141v-187h147v-63zM167 -182c-24 0 -44 20 -44 44s20 44 44 44s44 -20 44 -44s-20 -44 -44 -44z" />
    <glyph glyph-name="uni1EBA.smcp" horiz-adv-x="313" 
d="M275 0h-219v550h219v-63h-147v-174h141v-63h-141v-187h147v-63zM141 649l-31 7c6 26 25 47 57 47s55 -19 55 -61c0 -24 -8 -44 -20 -62h-34c15 20 22 40 22 61c0 23 -11 32 -23 32c-15 0 -22 -9 -26 -24z" />
    <glyph glyph-name="uni1EBC.smcp" horiz-adv-x="313" 
d="M275 0h-219v550h219v-63h-147v-174h141v-63h-141v-187h147v-63zM206 604c-55 0 -52 95 -83 95c-17 0 -31 -27 -31 -89h-39c0 74 23 134 73 134c55 0 53 -95 84 -95c17 0 30 27 30 89h39c0 -74 -22 -134 -73 -134z" />
    <glyph glyph-name="uni1EBE.smcp" horiz-adv-x="313" 
d="M267 606h-41l-60 105l-57 -105h-42l66 144h66zM387 821l-100 -144h-46l79 144h67zM275 0h-219v550h219v-63h-147v-174h141v-63h-141v-187h147v-63z" />
    <glyph glyph-name="uni1EC0.smcp" horiz-adv-x="313" 
d="M264 606h-41l-60 105l-57 -105h-42l66 144h66zM275 0h-219v550h219v-63h-147v-174h141v-63h-141v-187h147v-63zM87 677h-46l-100 144h67z" />
    <glyph glyph-name="uni1EC2.smcp" horiz-adv-x="313" 
d="M266 606h-41l-60 105l-57 -105h-42l66 144h66zM275 0h-219v550h219v-63h-147v-174h141v-63h-141v-187h147v-63zM209 786l-31 7c6 26 25 47 57 47s55 -19 55 -61c0 -24 -8 -44 -20 -62h-34c15 20 22 40 22 61c0 23 -11 32 -23 32c-15 0 -22 -9 -26 -24z" />
    <glyph glyph-name="uni1EC4.smcp" horiz-adv-x="313" 
d="M265 573h-41l-60 105l-57 -105h-42l66 144h66zM275 0h-219v550h219v-63h-147v-174h141v-63h-141v-187h147v-63zM205 732c-55 0 -52 95 -83 95c-17 0 -31 -27 -31 -89h-39c0 74 23 134 73 134c55 0 53 -95 84 -95c17 0 30 27 30 89h39c0 -74 -22 -134 -73 -134z" />
    <glyph glyph-name="uni1EC6.smcp" horiz-adv-x="313" 
d="M266 606h-41l-60 105l-57 -105h-42l66 144h66zM275 0h-219v550h219v-63h-147v-174h141v-63h-141v-187h147v-63zM166 -182c-24 0 -44 20 -44 44s20 44 44 44s44 -20 44 -44s-20 -44 -44 -44z" />
    <glyph glyph-name="uni1E1E.smcp" horiz-adv-x="312" 
d="M167 607c-24 0 -44 20 -44 44s20 44 44 44s44 -20 44 -44s-20 -44 -44 -44zM128 0h-72v550h219v-63h-147v-174h141v-63h-141v-250z" />
    <glyph glyph-name="Gbreve.smcp" unicode="&#xf67d;" horiz-adv-x="371" 
d="M196 -12c-111 0 -157 119 -157 287c0 169 46 287 157 287c70 0 105 -50 125 -111l-58 -20c-14 39 -30 68 -67 68c-63 0 -84 -92 -84 -224c0 -131 21 -224 86 -224c28 0 48 13 61 33v139h-71v60h136v-228c-36 -47 -75 -67 -128 -67zM315 663c-27 -37 -70 -61 -119 -61
c-48 0 -92 24 -119 61l36 28c18 -27 52 -44 83 -44c32 0 66 17 83 44z" />
    <glyph glyph-name="Gcircumflex.smcp" unicode="&#xf67e;" horiz-adv-x="371" 
d="M196 -12c-111 0 -157 119 -157 287c0 169 46 287 157 287c70 0 105 -50 125 -111l-58 -20c-14 39 -30 68 -67 68c-63 0 -84 -92 -84 -224c0 -131 21 -224 86 -224c28 0 48 13 61 33v139h-71v60h136v-228c-36 -47 -75 -67 -128 -67zM298 606h-41l-60 105l-57 -105h-42
l66 144h66z" />
    <glyph glyph-name="Gcommaaccent.smcp" unicode="&#xf67f;" horiz-adv-x="371" 
d="M196 -12c-111 0 -157 119 -157 287c0 169 46 287 157 287c70 0 105 -50 125 -111l-58 -20c-14 39 -30 68 -67 68c-63 0 -84 -92 -84 -224c0 -131 21 -224 86 -224c28 0 48 13 61 33v139h-71v60h136v-228c-36 -47 -75 -67 -128 -67zM248 -138c0 -54 -32 -104 -70 -132
l-31 25c30 21 55 57 57 87c-1 0 -7 -1 -10 -1c-23 0 -40 18 -40 42c0 23 19 44 43 44c27 0 51 -23 51 -65z" />
    <glyph glyph-name="Gdotaccent.smcp" unicode="&#xf680;" horiz-adv-x="371" 
d="M196 -12c-111 0 -157 119 -157 287c0 169 46 287 157 287c70 0 105 -50 125 -111l-58 -20c-14 39 -30 68 -67 68c-63 0 -84 -92 -84 -224c0 -131 21 -224 86 -224c28 0 48 13 61 33v139h-71v60h136v-228c-36 -47 -75 -67 -128 -67zM197 607c-24 0 -44 20 -44 44
s20 44 44 44s44 -20 44 -44s-20 -44 -44 -44z" />
    <glyph glyph-name="Gbreve.smcp.alt1" horiz-adv-x="371" 
d="M194 -12c-109 0 -155 119 -155 287c0 169 46 287 157 287c70 0 105 -50 125 -111l-58 -20c-14 39 -30 68 -67 68c-63 0 -84 -92 -84 -224c0 -131 21 -224 84 -224s80 99 81 171h-89v60h157c0 -169 -38 -294 -151 -294zM315 663c-27 -37 -70 -61 -119 -61
c-48 0 -92 24 -119 61l36 28c18 -27 52 -44 83 -44c32 0 66 17 83 44z" />
    <glyph glyph-name="Gcommaaccent.smcp.alt1" horiz-adv-x="371" 
d="M248 -138c0 -54 -32 -104 -70 -132l-31 25c30 21 55 57 57 87c-1 0 -7 -1 -10 -1c-23 0 -40 18 -40 42c0 23 19 44 43 44c27 0 51 -23 51 -65zM194 -12c-109 0 -155 119 -155 287c0 169 46 287 157 287c70 0 105 -50 125 -111l-58 -20c-14 39 -30 68 -67 68
c-63 0 -84 -92 -84 -224c0 -131 21 -224 84 -224s80 99 81 171h-89v60h157c0 -169 -38 -294 -151 -294z" />
    <glyph glyph-name="Gcircumflex.smcp.alt1" horiz-adv-x="371" 
d="M297 606h-41l-60 105l-57 -105h-42l66 144h66zM194 -12c-109 0 -155 119 -155 287c0 169 46 287 157 287c70 0 105 -50 125 -111l-58 -20c-14 39 -30 68 -67 68c-63 0 -84 -92 -84 -224c0 -131 21 -224 84 -224s80 99 81 171h-89v60h157c0 -169 -38 -294 -151 -294z" />
    <glyph glyph-name="Gdotaccent.smcp.alt1" horiz-adv-x="371" 
d="M194 -12c-109 0 -155 119 -155 287c0 169 46 287 157 287c70 0 105 -50 125 -111l-58 -20c-14 39 -30 68 -67 68c-63 0 -84 -92 -84 -224c0 -131 21 -224 84 -224s80 99 81 171h-89v60h157c0 -169 -38 -294 -151 -294zM196 607c-24 0 -44 20 -44 44s20 44 44 44
s44 -20 44 -44s-20 -44 -44 -44z" />
    <glyph glyph-name="Hbar.smcp" unicode="&#xf682;" horiz-adv-x="431" 
d="M353 0h-71v252h-133v-252h-72v406h-56v45h56v99h72v-99h133v99h71v-99h54v-45h-54v-406zM149 314h133v92h-133v-92z" />
    <glyph glyph-name="Hcircumflex.smcp" unicode="&#xf681;" horiz-adv-x="389" 
d="M294 606h-41l-60 105l-57 -105h-42l66 144h66zM332 0h-71v252h-133v-252h-72v550h72v-236h133v236h71v-550z" />
    <glyph glyph-name="uni1E22.smcp" horiz-adv-x="389" 
d="M332 0h-71v252h-133v-252h-72v550h72v-236h133v236h71v-550zM195 607c-24 0 -44 20 -44 44s20 44 44 44s44 -20 44 -44s-20 -44 -44 -44z" />
    <glyph glyph-name="Iacute.smcp" unicode="&#xf7ed;" horiz-adv-x="184" 
d="M201 750l-100 -144h-46l79 144h67zM128 0h-72v550h72v-550z" />
    <glyph glyph-name="Ibreve.smcp" unicode="&#xf683;" horiz-adv-x="184" 
d="M128 0h-72v550h72v-550zM211 663c-27 -37 -70 -61 -119 -61c-48 0 -92 24 -119 61l36 28c18 -27 52 -44 83 -44c32 0 66 17 83 44z" />
    <glyph glyph-name="Igrave.smcp" unicode="&#xf7ec;" horiz-adv-x="184" 
d="M128 0h-72v550h72v-550zM128 606h-46l-100 144h67z" />
    <glyph glyph-name="Icircumflex.smcp" unicode="&#xf7ee;" horiz-adv-x="184" 
d="M192 606h-41l-60 105l-57 -105h-42l66 144h66zM128 0h-72v550h72v-550z" />
    <glyph glyph-name="Idieresis.smcp" unicode="&#xf7ef;" horiz-adv-x="184" 
d="M206 653c0 -24 -20 -43 -44 -43c-23 0 -43 19 -43 43s20 43 43 43c24 0 44 -19 44 -43zM65 653c0 -24 -20 -43 -44 -43c-23 0 -43 19 -43 43s20 43 43 43c24 0 44 -19 44 -43zM128 0h-72v550h72v-550z" />
    <glyph glyph-name="Idotaccent.smcp" unicode="&#xf6ad;" horiz-adv-x="184" 
d="M128 0h-72v550h72v-550zM92 607c-24 0 -44 20 -44 44s20 44 44 44s44 -20 44 -44s-20 -44 -44 -44z" />
    <glyph glyph-name="Imacron.smcp" unicode="&#xf685;" horiz-adv-x="184" 
d="M216 623h-248v45h248v-45zM128 0h-72v550h72v-550z" />
    <glyph glyph-name="Iogonek.smcp" unicode="&#xf686;" horiz-adv-x="184" 
d="M128 0c-39 -26 -66 -61 -66 -108c0 -29 12 -41 29 -41s28 13 32 34l35 -18c-9 -29 -29 -53 -68 -53c-41 0 -70 25 -70 76c0 42 20 79 50 110h-14v550h72v-550z" />
    <glyph glyph-name="Itilde.smcp" unicode="&#xf687;" horiz-adv-x="184" 
d="M128 0h-72v550h72v-550zM133 604c-55 0 -52 95 -83 95c-17 0 -31 -27 -31 -89h-39c0 74 23 134 73 134c55 0 53 -95 84 -95c17 0 30 27 30 89h39c0 -74 -22 -134 -73 -134z" />
    <glyph glyph-name="uni1EC8.smcp" horiz-adv-x="184" 
d="M128 0h-72v550h72v-550zM68 649l-31 7c6 26 25 47 57 47s55 -19 55 -61c0 -24 -8 -44 -20 -62h-34c15 20 22 40 22 61c0 23 -11 32 -23 32c-15 0 -22 -9 -26 -24z" />
    <glyph glyph-name="uni1ECA.smcp" horiz-adv-x="184" 
d="M128 0h-72v550h72v-550zM93 -182c-24 0 -44 20 -44 44s20 44 44 44s44 -20 44 -44s-20 -44 -44 -44z" />
    <glyph glyph-name="IJ.smcp" unicode="&#xf684;" horiz-adv-x="466" 
d="M283 -12c-37 0 -69 13 -94 41l25 55c17 -23 40 -33 62 -33c40 0 64 21 64 72v427h71v-434c0 -89 -52 -128 -128 -128zM128 0h-72v550h72v-550z" />
    <glyph glyph-name="Jcircumflex.smcp" unicode="&#xf688;" horiz-adv-x="283" 
d="M292 606h-41l-60 105l-57 -105h-42l66 144h66zM99 -12c-37 0 -69 13 -94 41l25 55c17 -23 40 -33 62 -33c40 0 64 21 64 72v427h71v-434c0 -89 -52 -128 -128 -128z" />
    <glyph glyph-name="Kcommaaccent.smcp" unicode="&#xf689;" horiz-adv-x="370" 
d="M247 -138c0 -54 -32 -104 -70 -132l-31 25c30 21 55 57 57 87c-1 0 -7 -1 -10 -1c-23 0 -40 18 -40 42c0 23 19 44 43 44c27 0 51 -23 51 -65zM360 0h-82l-117 232l-33 -65v-167h-72v550h72v-272l141 272h80l-146 -261z" />
    <glyph glyph-name="Lacute.smcp" unicode="&#xf68a;" horiz-adv-x="296" 
d="M275 0h-219v550h72v-487h147v-63zM275 750l-100 -144h-46l79 144h67z" />
    <glyph glyph-name="Lcaron.smcp" unicode="&#xf68b;" horiz-adv-x="296" 
d="M266 495c0 -54 -32 -104 -70 -132l-31 25c30 21 55 57 57 87c-1 0 -7 -1 -10 -1c-23 0 -40 18 -40 42c0 23 19 44 43 44c27 0 51 -23 51 -65zM275 0h-219v550h72v-487h147v-63z" />
    <glyph glyph-name="Lcommaaccent.smcp" unicode="&#xf68c;" horiz-adv-x="296" 
d="M218 -138c0 -54 -32 -104 -70 -132l-31 25c30 21 55 57 57 87c-1 0 -7 -1 -10 -1c-23 0 -40 18 -40 42c0 23 19 44 43 44c27 0 51 -23 51 -65zM275 0h-219v550h72v-487h147v-63z" />
    <glyph glyph-name="Ldot.smcp" unicode="&#xf68d;" horiz-adv-x="348" 
d="M275 0h-219v550h72v-487h147v-63zM319 293c0 -28 -23 -52 -52 -52c-28 0 -52 24 -52 52c0 27 24 51 52 51c29 0 52 -24 52 -51z" />
    <glyph glyph-name="Lslash.smcp" unicode="&#xf6f9;" horiz-adv-x="313" 
d="M21 192v67l53 31v260h72v-219l61 36v-67l-61 -36v-201h147v-63h-219v223z" />
    <glyph glyph-name="Nacute.smcp" unicode="&#xf68e;" horiz-adv-x="385" 
d="M302 750l-100 -144h-46l79 144h67zM329 0h-72l-129 376v-376h-72v550h76l126 -366v366h71v-550z" />
    <glyph glyph-name="Ncaron.smcp" unicode="&#xf68f;" horiz-adv-x="385" 
d="M226 606h-66l-69 144h42l60 -105l57 105h41zM329 0h-72l-129 376v-376h-72v550h76l126 -366v366h71v-550z" />
    <glyph glyph-name="Ncommaaccent.smcp" unicode="&#xf690;" horiz-adv-x="385" 
d="M249 -138c0 -54 -32 -104 -70 -132l-31 25c30 21 55 57 57 87c-1 0 -7 -1 -10 -1c-23 0 -40 18 -40 42c0 23 19 44 43 44c27 0 51 -23 51 -65zM329 0h-72l-129 376v-376h-72v550h76l126 -366v366h71v-550z" />
    <glyph glyph-name="Ntilde.smcp" unicode="&#xf7f1;" horiz-adv-x="385" 
d="M329 0h-72l-129 376v-376h-72v550h76l126 -366v366h71v-550zM230 604c-55 0 -52 95 -83 95c-17 0 -31 -27 -31 -89h-39c0 74 23 134 73 134c55 0 53 -95 84 -95c17 0 30 27 30 89h39c0 -74 -22 -134 -73 -134z" />
    <glyph glyph-name="Eng.smcp" unicode="&#xf67b;" horiz-adv-x="385" 
d="M201 -196c-36 0 -68 13 -94 41l26 55c17 -23 40 -33 62 -33c40 0 63 21 63 72v59l-130 378v-376h-72v550h76l126 -366v366h71v-618c0 -89 -51 -128 -128 -128z" />
    <glyph glyph-name="Oacute.smcp" unicode="&#xf7f3;" horiz-adv-x="393" 
d="M196 -12c-115 0 -157 130 -157 287s42 287 157 287c116 0 158 -130 158 -287s-42 -287 -158 -287zM196 51c66 0 84 105 84 224c0 120 -18 224 -84 224s-84 -104 -84 -224c0 -119 18 -224 84 -224zM305 750l-100 -144h-46l79 144h67z" />
    <glyph glyph-name="Obreve.smcp" unicode="&#xf691;" horiz-adv-x="393" 
d="M196 -12c-115 0 -157 130 -157 287s42 287 157 287c116 0 158 -130 158 -287s-42 -287 -158 -287zM196 51c66 0 84 105 84 224c0 120 -18 224 -84 224s-84 -104 -84 -224c0 -119 18 -224 84 -224zM314 663c-27 -37 -70 -61 -119 -61c-48 0 -92 24 -119 61l36 28
c18 -27 52 -44 83 -44c32 0 66 17 83 44z" />
    <glyph glyph-name="Ocircumflex.smcp" unicode="&#xf7f4;" horiz-adv-x="393" 
d="M196 -12c-115 0 -157 130 -157 287s42 287 157 287c116 0 158 -130 158 -287s-42 -287 -158 -287zM196 51c66 0 84 105 84 224c0 120 -18 224 -84 224s-84 -104 -84 -224c0 -119 18 -224 84 -224zM296 606h-41l-60 105l-57 -105h-42l66 144h66z" />
    <glyph glyph-name="Odieresis.smcp" unicode="&#xf7f6;" horiz-adv-x="393" 
d="M196 -12c-115 0 -157 130 -157 287s42 287 157 287c116 0 158 -130 158 -287s-42 -287 -158 -287zM196 51c66 0 84 105 84 224c0 120 -18 224 -84 224s-84 -104 -84 -224c0 -119 18 -224 84 -224zM309 653c0 -24 -20 -43 -44 -43c-23 0 -43 19 -43 43s20 43 43 43
c24 0 44 -19 44 -43zM168 653c0 -24 -20 -43 -44 -43c-23 0 -43 19 -43 43s20 43 43 43c24 0 44 -19 44 -43z" />
    <glyph glyph-name="Ograve.smcp" unicode="&#xf7f2;" horiz-adv-x="393" 
d="M196 -12c-115 0 -157 130 -157 287s42 287 157 287c116 0 158 -130 158 -287s-42 -287 -158 -287zM196 51c66 0 84 105 84 224c0 120 -18 224 -84 224s-84 -104 -84 -224c0 -119 18 -224 84 -224zM232 606h-46l-100 144h67z" />
    <glyph glyph-name="Ohungarumlaut.smcp" unicode="&#xf692;" horiz-adv-x="393" 
d="M196 -12c-115 0 -157 130 -157 287s42 287 157 287c116 0 158 -130 158 -287s-42 -287 -158 -287zM196 51c66 0 84 105 84 224c0 120 -18 224 -84 224s-84 -104 -84 -224c0 -119 18 -224 84 -224zM227 750l-77 -144h-38l56 144h59zM344 750l-78 -144h-38l56 144h60z" />
    <glyph glyph-name="Omacron.smcp" unicode="&#xf693;" horiz-adv-x="393" 
d="M196 -12c-115 0 -157 130 -157 287s42 287 157 287c116 0 158 -130 158 -287s-42 -287 -158 -287zM196 51c66 0 84 105 84 224c0 120 -18 224 -84 224s-84 -104 -84 -224c0 -119 18 -224 84 -224zM319 623h-248v45h248v-45z" />
    <glyph glyph-name="Otilde.smcp" unicode="&#xf7f5;" horiz-adv-x="393" 
d="M196 -12c-115 0 -157 130 -157 287s42 287 157 287c116 0 158 -130 158 -287s-42 -287 -158 -287zM196 51c66 0 84 105 84 224c0 120 -18 224 -84 224s-84 -104 -84 -224c0 -119 18 -224 84 -224zM235 604c-55 0 -52 95 -83 95c-17 0 -31 -27 -31 -89h-39
c0 74 23 134 73 134c55 0 53 -95 84 -95c17 0 30 27 30 89h39c0 -74 -22 -134 -73 -134z" />
    <glyph glyph-name="Oslash.smcp" unicode="&#xf7f8;" horiz-adv-x="393" 
d="M196 -12c-38 0 -69 14 -92 39l-12 -27h-46l31 66c-27 53 -38 127 -38 209c0 157 42 287 157 287c39 0 70 -15 93 -41l14 29h46l-33 -69c27 -53 38 -126 38 -206c0 -157 -42 -287 -158 -287zM112 275c0 -42 2 -82 8 -117l136 292c-13 30 -32 49 -60 49
c-66 0 -84 -104 -84 -224zM196 51c66 0 84 105 84 224c0 40 -2 78 -7 112l-136 -290c13 -29 32 -46 59 -46z" />
    <glyph glyph-name="Oslashacute.smcp" unicode="&#xf694;" horiz-adv-x="393" 
d="M196 -12c-38 0 -69 14 -92 39l-12 -27h-46l31 66c-27 53 -38 127 -38 209c0 157 42 287 157 287c39 0 70 -15 93 -41l14 29h46l-33 -69c27 -53 38 -126 38 -206c0 -157 -42 -287 -158 -287zM112 275c0 -42 2 -82 8 -117l136 292c-13 30 -32 49 -60 49
c-66 0 -84 -104 -84 -224zM196 51c66 0 84 105 84 224c0 40 -2 78 -7 112l-136 -290c13 -29 32 -46 59 -46zM305 750l-100 -144h-46l79 144h67z" />
    <glyph glyph-name="uni1ECC.smcp" horiz-adv-x="393" 
d="M196 -12c-115 0 -157 130 -157 287s42 287 157 287c116 0 158 -130 158 -287s-42 -287 -158 -287zM196 51c66 0 84 105 84 224c0 120 -18 224 -84 224s-84 -104 -84 -224c0 -119 18 -224 84 -224zM197 -182c-24 0 -44 20 -44 44s20 44 44 44s44 -20 44 -44
s-20 -44 -44 -44z" />
    <glyph glyph-name="uni1ECE.smcp" horiz-adv-x="393" 
d="M196 -12c-115 0 -157 130 -157 287s42 287 157 287c116 0 158 -130 158 -287s-42 -287 -158 -287zM196 51c66 0 84 105 84 224c0 120 -18 224 -84 224s-84 -104 -84 -224c0 -119 18 -224 84 -224zM172 654l-31 7c6 26 25 47 57 47s55 -19 55 -61c0 -24 -8 -44 -20 -62
h-34c15 20 22 40 22 61c0 23 -11 32 -23 32c-15 0 -22 -9 -26 -24z" />
    <glyph glyph-name="uni1ED0.smcp" horiz-adv-x="393" 
d="M196 -12c-115 0 -157 130 -157 287s42 287 157 287c116 0 158 -130 158 -287s-42 -287 -158 -287zM196 51c66 0 84 105 84 224c0 120 -18 224 -84 224s-84 -104 -84 -224c0 -119 18 -224 84 -224zM298 606h-41l-60 105l-57 -105h-42l66 144h66zM418 821l-100 -144h-46
l79 144h67z" />
    <glyph glyph-name="uni1ED2.smcp" horiz-adv-x="393" 
d="M196 -12c-115 0 -157 130 -157 287s42 287 157 287c116 0 158 -130 158 -287s-42 -287 -158 -287zM196 51c66 0 84 105 84 224c0 120 -18 224 -84 224s-84 -104 -84 -224c0 -119 18 -224 84 -224zM298 606h-41l-60 105l-57 -105h-42l66 144h66zM121 677h-46l-100 144h67z
" />
    <glyph glyph-name="uni1ED4.smcp" horiz-adv-x="393" 
d="M196 -12c-115 0 -157 130 -157 287s42 287 157 287c116 0 158 -130 158 -287s-42 -287 -158 -287zM196 51c66 0 84 105 84 224c0 120 -18 224 -84 224s-84 -104 -84 -224c0 -119 18 -224 84 -224zM298 606h-41l-60 105l-57 -105h-42l66 144h66zM242 786l-31 7
c6 26 25 47 57 47s55 -19 55 -61c0 -24 -8 -44 -20 -62h-34c15 20 22 40 22 61c0 23 -11 32 -23 32c-15 0 -22 -9 -26 -24z" />
    <glyph glyph-name="uni1ED6.smcp" horiz-adv-x="393" 
d="M196 -12c-115 0 -157 130 -157 287s42 287 157 287c116 0 158 -130 158 -287s-42 -287 -158 -287zM196 51c66 0 84 105 84 224c0 120 -18 224 -84 224s-84 -104 -84 -224c0 -119 18 -224 84 -224zM298 573h-41l-60 105l-57 -105h-42l66 144h66zM238 732
c-55 0 -52 95 -83 95c-17 0 -31 -27 -31 -89h-39c0 74 23 134 73 134c55 0 53 -95 84 -95c17 0 30 27 30 89h39c0 -74 -22 -134 -73 -134z" />
    <glyph glyph-name="uni1ED8.smcp" horiz-adv-x="393" 
d="M196 -12c-115 0 -157 130 -157 287s42 287 157 287c116 0 158 -130 158 -287s-42 -287 -158 -287zM196 51c66 0 84 105 84 224c0 120 -18 224 -84 224s-84 -104 -84 -224c0 -119 18 -224 84 -224zM297 606h-41l-60 105l-57 -105h-42l66 144h66zM197 -182
c-24 0 -44 20 -44 44s20 44 44 44s44 -20 44 -44s-20 -44 -44 -44z" />
    <glyph glyph-name="Ohorn.smcp" horiz-adv-x="393" 
d="M196 -12c-115 0 -157 130 -157 287s42 287 157 287c60 0 100 -36 125 -92c18 19 30 43 32 64c-1 -1 -7 -1 -9 -1c-22 0 -39 18 -39 41c0 22 18 41 42 41c26 0 48 -22 48 -61c0 -49 -27 -94 -60 -121c13 -46 19 -100 19 -158c0 -157 -42 -287 -158 -287zM196 51
c66 0 84 105 84 224c0 120 -18 224 -84 224s-84 -104 -84 -224c0 -119 18 -224 84 -224z" />
    <glyph glyph-name="uni1EDA.smcp" horiz-adv-x="393" 
d="M196 -12c-115 0 -157 130 -157 287s42 287 157 287c60 0 100 -36 125 -92c18 19 30 43 32 64c-1 -1 -7 -1 -9 -1c-22 0 -39 18 -39 41c0 22 18 41 42 41c26 0 48 -22 48 -61c0 -49 -27 -94 -60 -121c13 -46 19 -100 19 -158c0 -157 -42 -287 -158 -287zM196 51
c66 0 84 105 84 224c0 120 -18 224 -84 224s-84 -104 -84 -224c0 -119 18 -224 84 -224zM305 750l-100 -144h-46l79 144h67z" />
    <glyph glyph-name="uni1EDC.smcp" horiz-adv-x="393" 
d="M196 -12c-115 0 -157 130 -157 287s42 287 157 287c60 0 100 -36 125 -92c18 19 30 43 32 64c-1 -1 -7 -1 -9 -1c-22 0 -39 18 -39 41c0 22 18 41 42 41c26 0 48 -22 48 -61c0 -49 -27 -94 -60 -121c13 -46 19 -100 19 -158c0 -157 -42 -287 -158 -287zM196 51
c66 0 84 105 84 224c0 120 -18 224 -84 224s-84 -104 -84 -224c0 -119 18 -224 84 -224zM232 606h-46l-100 144h67z" />
    <glyph glyph-name="uni1EDE.smcp" horiz-adv-x="393" 
d="M196 -12c-115 0 -157 130 -157 287s42 287 157 287c60 0 100 -36 125 -92c18 19 30 43 32 64c-1 -1 -7 -1 -9 -1c-22 0 -39 18 -39 41c0 22 18 41 42 41c26 0 48 -22 48 -61c0 -49 -27 -94 -60 -121c13 -46 19 -100 19 -158c0 -157 -42 -287 -158 -287zM196 51
c66 0 84 105 84 224c0 120 -18 224 -84 224s-84 -104 -84 -224c0 -119 18 -224 84 -224zM171 654l-31 7c6 26 25 47 57 47s55 -19 55 -61c0 -24 -8 -44 -20 -62h-34c15 20 22 40 22 61c0 23 -11 32 -23 32c-15 0 -22 -9 -26 -24z" />
    <glyph glyph-name="uni1EE0.smcp" horiz-adv-x="393" 
d="M196 -12c-115 0 -157 130 -157 287s42 287 157 287c60 0 100 -36 125 -92c18 19 30 43 32 64c-1 -1 -7 -1 -9 -1c-22 0 -39 18 -39 41c0 22 18 41 42 41c26 0 48 -22 48 -61c0 -49 -27 -94 -60 -121c13 -46 19 -100 19 -158c0 -157 -42 -287 -158 -287zM196 51
c66 0 84 105 84 224c0 120 -18 224 -84 224s-84 -104 -84 -224c0 -119 18 -224 84 -224zM236 604c-55 0 -52 95 -83 95c-17 0 -31 -27 -31 -89h-39c0 74 23 134 73 134c55 0 53 -95 84 -95c17 0 30 27 30 89h39c0 -74 -22 -134 -73 -134z" />
    <glyph glyph-name="uni1EE2.smcp" horiz-adv-x="393" 
d="M196 -12c-115 0 -157 130 -157 287s42 287 157 287c60 0 100 -36 125 -92c18 19 30 43 32 64c-1 -1 -7 -1 -9 -1c-22 0 -39 18 -39 41c0 22 18 41 42 41c26 0 48 -22 48 -61c0 -49 -27 -94 -60 -121c13 -46 19 -100 19 -158c0 -157 -42 -287 -158 -287zM196 51
c66 0 84 105 84 224c0 120 -18 224 -84 224s-84 -104 -84 -224c0 -119 18 -224 84 -224zM197 -182c-24 0 -44 20 -44 44s20 44 44 44s44 -20 44 -44s-20 -44 -44 -44z" />
    <glyph glyph-name="OE.smcp" unicode="&#xf6fa;" horiz-adv-x="527" 
d="M490 0h-219v54c-23 -54 -60 -66 -88 -66c-107 0 -144 130 -144 287s37 287 144 287c29 0 65 -13 88 -66v54h219v-63h-148v-173h142v-64h-142v-187h148v-63zM271 155v241c-12 63 -34 103 -75 103c-67 0 -84 -104 -84 -224s17 -224 84 -224c41 0 63 41 75 104z" />
    <glyph glyph-name="uni1E56.smcp" horiz-adv-x="333" 
d="M128 0h-72v550h116c95 0 138 -77 138 -166c0 -90 -43 -167 -138 -167h-44v-217zM165 280c49 0 72 44 72 103c0 60 -23 104 -72 104h-37v-207h37zM181 607c-24 0 -44 20 -44 44s20 44 44 44s44 -20 44 -44s-20 -44 -44 -44z" />
    <glyph glyph-name="Racute.smcp" unicode="&#xf695;" horiz-adv-x="350" 
d="M292 750l-100 -144h-46l79 144h67zM317 0h-78l-71 217h-40v-217h-72v550h117c89 0 137 -72 137 -165c0 -89 -39 -138 -78 -153zM165 280c49 0 72 44 72 104c0 59 -23 103 -72 103h-37v-207h37z" />
    <glyph glyph-name="Rcaron.smcp" unicode="&#xf696;" horiz-adv-x="350" 
d="M209 606h-66l-69 144h42l60 -105l57 105h41zM317 0h-78l-71 217h-40v-217h-72v550h117c89 0 137 -72 137 -165c0 -89 -39 -138 -78 -153zM165 280c49 0 72 44 72 104c0 59 -23 103 -72 103h-37v-207h37z" />
    <glyph glyph-name="Rcommaaccent.smcp" unicode="&#xf697;" horiz-adv-x="350" 
d="M229 -138c0 -54 -32 -104 -70 -132l-31 25c30 21 55 57 57 87c-1 0 -7 -1 -10 -1c-23 0 -40 18 -40 42c0 23 19 44 43 44c27 0 51 -23 51 -65zM317 0h-78l-71 217h-40v-217h-72v550h117c89 0 137 -72 137 -165c0 -89 -39 -138 -78 -153zM165 280c49 0 72 44 72 104
c0 59 -23 103 -72 103h-37v-207h37z" />
    <glyph glyph-name="Sacute.smcp" unicode="&#xf698;" horiz-adv-x="309" 
d="M267 750l-100 -144h-46l79 144h67zM147 -12c-52 0 -90 16 -129 55l35 54c24 -31 57 -47 89 -47c36 0 68 30 68 82c0 121 -172 135 -172 294c0 80 53 136 130 136c45 0 76 -12 108 -42l-31 -54c-23 24 -46 34 -73 34c-34 0 -61 -28 -61 -74c0 -106 173 -128 173 -293
c0 -84 -55 -145 -137 -145z" />
    <glyph glyph-name="Scaron.smcp" unicode="&#xf6fd;" horiz-adv-x="309" 
d="M194 606h-66l-69 144h42l60 -105l57 105h41zM147 -12c-52 0 -90 16 -129 55l35 54c24 -31 57 -47 89 -47c36 0 68 30 68 82c0 121 -172 135 -172 294c0 80 53 136 130 136c45 0 76 -12 108 -42l-31 -54c-23 24 -46 34 -73 34c-34 0 -61 -28 -61 -74
c0 -106 173 -128 173 -293c0 -84 -55 -145 -137 -145z" />
    <glyph glyph-name="Scircumflex.smcp" unicode="&#xf69a;" horiz-adv-x="309" 
d="M259 606h-41l-60 105l-57 -105h-42l66 144h66zM147 -12c-52 0 -90 16 -129 55l35 54c24 -31 57 -47 89 -47c36 0 68 30 68 82c0 121 -172 135 -172 294c0 80 53 136 130 136c45 0 76 -12 108 -42l-31 -54c-23 24 -46 34 -73 34c-34 0 -61 -28 -61 -74
c0 -106 173 -128 173 -293c0 -84 -55 -145 -137 -145z" />
    <glyph glyph-name="Scedilla.smcp" unicode="&#xf699;" horiz-adv-x="309" 
d="M148 -191c-32 0 -57 14 -77 30l17 35c20 -18 37 -27 59 -27c25 0 47 17 47 43c0 20 -11 34 -29 34c-12 0 -20 -6 -28 -14l-31 17l23 62c-43 3 -77 19 -111 54l35 54c24 -31 57 -47 89 -47c36 0 68 30 68 82c0 121 -172 135 -172 294c0 80 53 136 130 136
c45 0 76 -12 108 -42l-31 -54c-23 24 -46 34 -73 34c-34 0 -61 -28 -61 -74c0 -106 173 -128 173 -293c0 -76 -44 -132 -113 -143l-18 -46c9 7 17 10 29 10c30 0 54 -26 54 -65c0 -47 -38 -80 -88 -80z" />
    <glyph glyph-name="Scommaaccent.smcp" unicode="&#xf69b;" horiz-adv-x="309" 
d="M206 -138c0 -54 -32 -104 -70 -132l-31 25c30 21 55 57 57 87c-1 0 -7 -1 -10 -1c-23 0 -40 18 -40 42c0 23 19 44 43 44c27 0 51 -23 51 -65zM147 -12c-52 0 -90 16 -129 55l35 54c24 -31 57 -47 89 -47c36 0 68 30 68 82c0 121 -172 135 -172 294c0 80 53 136 130 136
c45 0 76 -12 108 -42l-31 -54c-23 24 -46 34 -73 34c-34 0 -61 -28 -61 -74c0 -106 173 -128 173 -293c0 -84 -55 -145 -137 -145z" />
    <glyph glyph-name="uni1E60.smcp" horiz-adv-x="309" 
d="M147 -12c-52 0 -90 16 -129 55l35 54c24 -31 57 -47 89 -47c36 0 68 30 68 82c0 121 -172 135 -172 294c0 80 53 136 130 136c45 0 76 -12 108 -42l-31 -54c-23 24 -46 34 -73 34c-34 0 -61 -28 -61 -74c0 -106 173 -128 173 -293c0 -84 -55 -145 -137 -145zM160 607
c-24 0 -44 20 -44 44s20 44 44 44s44 -20 44 -44s-20 -44 -44 -44z" />
    <glyph glyph-name="Tbar.smcp" unicode="&#xf69c;" horiz-adv-x="272" 
d="M172 0h-72v245h-51v45h51v197h-85v63h242v-63h-85v-197h51v-45h-51v-245z" />
    <glyph glyph-name="Tcaron.smcp" unicode="&#xf69d;" horiz-adv-x="272" 
d="M172 606h-66l-69 144h42l60 -105l57 105h41zM172 0h-72v487h-85v63h242v-63h-85v-487z" />
    <glyph glyph-name="Tcommaaccent.smcp" unicode="&#xf69e;" horiz-adv-x="272" 
d="M187 -138c0 -54 -32 -104 -70 -132l-31 25c30 21 55 57 57 87c-1 0 -7 -1 -10 -1c-23 0 -40 18 -40 42c0 23 19 44 43 44c27 0 51 -23 51 -65zM172 0h-72v487h-85v63h242v-63h-85v-487z" />
    <glyph glyph-name="uni021A.smcp" horiz-adv-x="272" 
d="M187 -138c0 -54 -32 -104 -70 -132l-31 25c30 21 55 57 57 87c-1 0 -7 -1 -10 -1c-23 0 -40 18 -40 42c0 23 19 44 43 44c27 0 51 -23 51 -65zM172 0h-72v487h-85v63h242v-63h-85v-487z" />
    <glyph glyph-name="uni1E6A.smcp" horiz-adv-x="272" 
d="M172 0h-72v487h-85v63h242v-63h-85v-487zM137 607c-24 0 -44 20 -44 44s20 44 44 44s44 -20 44 -44s-20 -44 -44 -44z" />
    <glyph glyph-name="Uacute.smcp" unicode="&#xf7fa;" horiz-adv-x="389" 
d="M304 750l-100 -144h-46l79 144h67zM195 -12c-92 0 -139 61 -139 186v376h72v-398c0 -68 21 -101 67 -101c44 0 66 34 66 101v398h72v-376c0 -126 -47 -186 -138 -186z" />
    <glyph glyph-name="Ubreve.smcp" unicode="&#xf69f;" horiz-adv-x="389" 
d="M195 -12c-92 0 -139 61 -139 186v376h72v-398c0 -68 21 -101 67 -101c44 0 66 34 66 101v398h72v-376c0 -126 -47 -186 -138 -186zM314 663c-27 -37 -70 -61 -119 -61c-48 0 -92 24 -119 61l36 28c18 -27 52 -44 83 -44c32 0 66 17 83 44z" />
    <glyph glyph-name="Ucircumflex.smcp" unicode="&#xf7fb;" horiz-adv-x="389" 
d="M295 606h-41l-60 105l-57 -105h-42l66 144h66zM195 -12c-92 0 -139 61 -139 186v376h72v-398c0 -68 21 -101 67 -101c44 0 66 34 66 101v398h72v-376c0 -126 -47 -186 -138 -186z" />
    <glyph glyph-name="Udieresis.smcp" unicode="&#xf7fc;" horiz-adv-x="389" 
d="M308 653c0 -24 -20 -43 -44 -43c-23 0 -43 19 -43 43s20 43 43 43c24 0 44 -19 44 -43zM167 653c0 -24 -20 -43 -44 -43c-23 0 -43 19 -43 43s20 43 43 43c24 0 44 -19 44 -43zM195 -12c-92 0 -139 61 -139 186v376h72v-398c0 -68 21 -101 67 -101c44 0 66 34 66 101v398
h72v-376c0 -126 -47 -186 -138 -186z" />
    <glyph glyph-name="Ugrave.smcp" unicode="&#xf7f9;" horiz-adv-x="389" 
d="M195 -12c-92 0 -139 61 -139 186v376h72v-398c0 -68 21 -101 67 -101c44 0 66 34 66 101v398h72v-376c0 -126 -47 -186 -138 -186zM231 606h-46l-100 144h67z" />
    <glyph glyph-name="Uhungarumlaut.smcp" unicode="&#xf6a0;" horiz-adv-x="389" 
d="M195 -12c-92 0 -139 61 -139 186v376h72v-398c0 -68 21 -101 67 -101c44 0 66 34 66 101v398h72v-376c0 -126 -47 -186 -138 -186zM223 750l-77 -144h-38l56 144h59zM340 750l-78 -144h-38l56 144h60z" />
    <glyph glyph-name="Umacron.smcp" unicode="&#xf6a1;" horiz-adv-x="389" 
d="M195 -12c-92 0 -139 61 -139 186v376h72v-398c0 -68 21 -101 67 -101c44 0 66 34 66 101v398h72v-376c0 -126 -47 -186 -138 -186zM318 623h-248v45h248v-45z" />
    <glyph glyph-name="Uogonek.smcp" unicode="&#xf6a2;" horiz-adv-x="389" 
d="M252 -115l35 -18c-9 -29 -29 -53 -68 -53c-41 0 -70 25 -70 76c0 36 14 70 39 98c-88 3 -132 64 -132 186v376h72v-398c0 -68 21 -101 67 -101c44 0 66 34 66 101v398h72v-376c0 -93 -26 -151 -76 -174c-39 -26 -66 -61 -66 -108c0 -29 12 -41 29 -41s28 13 32 34z" />
    <glyph glyph-name="Uring.smcp" unicode="&#xf6a3;" horiz-adv-x="389" 
d="M195 -12c-92 0 -139 61 -139 186v376h72v-398c0 -68 21 -101 67 -101c44 0 66 34 66 101v398h72v-376c0 -126 -47 -186 -138 -186zM196 575c-46 0 -83 38 -83 84c0 45 37 82 83 82s82 -37 82 -82c0 -46 -36 -84 -82 -84zM196 611c26 0 47 21 47 48c0 25 -21 46 -47 46
s-47 -21 -47 -46c0 -27 21 -48 47 -48z" />
    <glyph glyph-name="Utilde.smcp" unicode="&#xf6a4;" horiz-adv-x="389" 
d="M195 -12c-92 0 -139 61 -139 186v376h72v-398c0 -68 21 -101 67 -101c44 0 66 34 66 101v398h72v-376c0 -126 -47 -186 -138 -186zM234 604c-55 0 -52 95 -83 95c-17 0 -31 -27 -31 -89h-39c0 74 23 134 73 134c55 0 53 -95 84 -95c17 0 30 27 30 89h39
c0 -74 -22 -134 -73 -134z" />
    <glyph glyph-name="uni1EE4.smcp" horiz-adv-x="389" 
d="M195 -12c-92 0 -139 61 -139 186v376h72v-398c0 -68 21 -101 67 -101c44 0 66 34 66 101v398h72v-376c0 -126 -47 -186 -138 -186zM194 -182c-24 0 -44 20 -44 44s20 44 44 44s44 -20 44 -44s-20 -44 -44 -44z" />
    <glyph glyph-name="Uhorn.smcp" horiz-adv-x="389" 
d="M195 -12c-99 0 -139 66 -139 217v345h72v-395c0 -71 21 -104 67 -104c44 0 66 34 66 104v395h72v-39c27 22 47 57 50 82c-1 -1 -6 -2 -10 -2c-22 0 -38 18 -38 41c0 22 18 41 41 41c26 0 47 -22 47 -61c0 -52 -30 -109 -90 -144v-263c0 -152 -41 -217 -138 -217z" />
    <glyph glyph-name="uni1EE6.smcp" horiz-adv-x="389" 
d="M195 -12c-92 0 -139 61 -139 186v376h72v-398c0 -68 21 -101 67 -101c44 0 66 34 66 101v398h72v-376c0 -126 -47 -186 -138 -186zM171 649l-31 7c6 26 25 47 57 47s55 -19 55 -61c0 -24 -8 -44 -20 -62h-34c15 20 22 40 22 61c0 23 -11 32 -23 32c-15 0 -22 -9 -26 -24z
" />
    <glyph glyph-name="uni1EE8.smcp" horiz-adv-x="389" 
d="M304 750l-100 -144h-46l79 144h67zM195 -12c-99 0 -139 66 -139 217v345h72v-395c0 -71 21 -104 67 -104c44 0 66 34 66 104v395h72v-39c27 22 47 57 50 82c-1 -1 -6 -2 -10 -2c-22 0 -38 18 -38 41c0 22 18 41 41 41c26 0 47 -22 47 -61c0 -52 -30 -109 -90 -144v-263
c0 -152 -41 -217 -138 -217z" />
    <glyph glyph-name="uni1EEA.smcp" horiz-adv-x="389" 
d="M231 606h-46l-100 144h67zM195 -12c-99 0 -139 66 -139 217v345h72v-395c0 -71 21 -104 67 -104c44 0 66 34 66 104v395h72v-39c27 22 47 57 50 82c-1 -1 -6 -2 -10 -2c-22 0 -38 18 -38 41c0 22 18 41 41 41c26 0 47 -22 47 -61c0 -52 -30 -109 -90 -144v-263
c0 -152 -41 -217 -138 -217z" />
    <glyph glyph-name="uni1EEC.smcp" horiz-adv-x="389" 
d="M170 651l-31 7c6 26 25 47 57 47s55 -19 55 -61c0 -24 -8 -44 -20 -62h-34c15 20 22 40 22 61c0 23 -11 32 -23 32c-15 0 -22 -9 -26 -24zM195 -12c-99 0 -139 66 -139 217v345h72v-395c0 -71 21 -104 67 -104c44 0 66 34 66 104v395h72v-39c27 22 47 57 50 82
c-1 -1 -6 -2 -10 -2c-22 0 -38 18 -38 41c0 22 18 41 41 41c26 0 47 -22 47 -61c0 -52 -30 -109 -90 -144v-263c0 -152 -41 -217 -138 -217z" />
    <glyph glyph-name="uni1EEE.smcp" horiz-adv-x="389" 
d="M195 -12c-99 0 -139 66 -139 217v345h72v-395c0 -71 21 -104 67 -104c44 0 66 34 66 104v395h72v-39c27 22 47 57 50 82c-1 -1 -6 -2 -10 -2c-22 0 -38 18 -38 41c0 22 18 41 41 41c26 0 47 -22 47 -61c0 -52 -30 -109 -90 -144v-263c0 -152 -41 -217 -138 -217zM235 604
c-55 0 -52 95 -83 95c-17 0 -31 -27 -31 -89h-39c0 74 23 134 73 134c55 0 53 -95 84 -95c17 0 30 27 30 89h39c0 -74 -22 -134 -73 -134z" />
    <glyph glyph-name="uni1EF0.smcp" horiz-adv-x="389" 
d="M194 -182c-24 0 -44 20 -44 44s20 44 44 44s44 -20 44 -44s-20 -44 -44 -44zM195 -12c-99 0 -139 66 -139 217v345h72v-395c0 -71 21 -104 67 -104c44 0 66 34 66 104v395h72v-39c27 22 47 57 50 82c-1 -1 -6 -2 -10 -2c-22 0 -38 18 -38 41c0 22 18 41 41 41
c26 0 47 -22 47 -61c0 -52 -30 -109 -90 -144v-263c0 -152 -41 -217 -138 -217z" />
    <glyph glyph-name="Wacute.smcp" horiz-adv-x="480" 
d="M376 0h-74l-62 404l-62 -404h-74l-96 550h73l62 -415l67 415h60l67 -415l62 415h74zM349 750l-100 -144h-46l79 144h67z" />
    <glyph glyph-name="Wcircumflex.smcp" unicode="&#xf6a6;" horiz-adv-x="480" 
d="M339 606h-41l-60 105l-57 -105h-42l66 144h66zM376 0h-74l-62 404l-62 -404h-74l-96 550h73l62 -415l67 415h60l67 -415l62 415h74z" />
    <glyph glyph-name="Wdieresis.smcp" horiz-adv-x="480" 
d="M376 0h-74l-62 404l-62 -404h-74l-96 550h73l62 -415l67 415h60l67 -415l62 415h74zM354 653c0 -24 -20 -43 -44 -43c-23 0 -43 19 -43 43s20 43 43 43c24 0 44 -19 44 -43zM213 653c0 -24 -20 -43 -44 -43c-23 0 -43 19 -43 43s20 43 43 43c24 0 44 -19 44 -43z" />
    <glyph glyph-name="Wgrave.smcp" horiz-adv-x="480" 
d="M376 0h-74l-62 404l-62 -404h-74l-96 550h73l62 -415l67 415h60l67 -415l62 415h74zM276 606h-46l-100 144h67z" />
    <glyph glyph-name="Yacute.smcp" unicode="&#xf7fd;" horiz-adv-x="328" 
d="M274 750l-100 -144h-46l79 144h67zM200 0h-72v233l-128 317h75l89 -243l89 243h76l-129 -317v-233z" />
    <glyph glyph-name="Ycircumflex.smcp" unicode="&#xf6a9;" horiz-adv-x="328" 
d="M265 606h-41l-60 105l-57 -105h-42l66 144h66zM200 0h-72v233l-128 317h75l89 -243l89 243h76l-129 -317v-233z" />
    <glyph glyph-name="Ydieresis.smcp" unicode="&#xf7ff;" horiz-adv-x="328" 
d="M278 653c0 -24 -20 -43 -44 -43c-23 0 -43 19 -43 43s20 43 43 43c24 0 44 -19 44 -43zM137 653c0 -24 -20 -43 -44 -43c-23 0 -43 19 -43 43s20 43 43 43c24 0 44 -19 44 -43zM200 0h-72v233l-128 317h75l89 -243l89 243h76l-129 -317v-233z" />
    <glyph glyph-name="Ygrave.smcp" horiz-adv-x="328" 
d="M200 0h-72v233l-128 317h75l89 -243l89 243h76l-129 -317v-233zM201 606h-46l-100 144h67z" />
    <glyph glyph-name="Zacute.smcp" unicode="&#xf6ab;" horiz-adv-x="292" 
d="M255 750l-100 -144h-46l79 144h67zM265 0h-238v56l153 431h-153v63h232v-55l-153 -432h159v-63z" />
    <glyph glyph-name="Zcaron.smcp" unicode="&#xf6ff;" horiz-adv-x="292" 
d="M178 606h-66l-69 144h42l60 -105l57 105h41zM265 0h-238v56l153 431h-153v63h232v-55l-153 -432h159v-63z" />
    <glyph glyph-name="Zdotaccent.smcp" unicode="&#xf6ac;" horiz-adv-x="292" 
d="M265 0h-238v56l153 431h-153v63h232v-55l-153 -432h159v-63zM143 607c-24 0 -44 20 -44 44s20 44 44 44s44 -20 44 -44s-20 -44 -44 -44z" />
    <glyph glyph-name="Eth.smcp" unicode="&#xf7f0;" horiz-adv-x="415" 
d="M197 0h-117v254h-59v48h59v248h117c121 0 175 -117 175 -276s-54 -274 -175 -274zM217 254h-65v-191h45c70 0 102 87 102 211c0 126 -33 213 -102 213h-45v-185h65v-48z" />
    <glyph glyph-name="Thorn.smcp" unicode="&#xf7fe;" horiz-adv-x="333" 
d="M128 0h-72v550h72v-94h44c95 0 138 -77 138 -166c0 -91 -43 -167 -138 -167h-44v-123zM165 185c49 0 72 45 72 104s-23 104 -72 104h-37v-208h37z" />
    <glyph glyph-name="acute" unicode="&#xb4;" horiz-adv-x="146" 
d="M146 700l-100 -144h-46l79 144h67z" />
    <glyph glyph-name="dieresis" unicode="&#xa8;" horiz-adv-x="264" 
d="M246 603c0 -24 -20 -43 -44 -43c-23 0 -43 19 -43 43s20 43 43 43c24 0 44 -19 44 -43zM105 603c0 -24 -20 -43 -44 -43c-23 0 -43 19 -43 43s20 43 43 43c24 0 44 -19 44 -43z" />
    <glyph glyph-name="grave" unicode="`" horiz-adv-x="146" 
d="M146 556h-46l-100 144h67z" />
    <glyph glyph-name="uni02CB" unicode="&#x2cb;" horiz-adv-x="146" 
d="M146 556h-46l-100 144h67z" />
    <glyph glyph-name="circumflex" unicode="&#x2c6;" horiz-adv-x="200" 
d="M200 556h-41l-60 105l-57 -105h-42l66 144h66z" />
    <glyph glyph-name="tilde" unicode="&#x2dc;" horiz-adv-x="226" 
d="M153 554c-55 0 -52 95 -83 95c-17 0 -31 -27 -31 -89h-39c0 74 23 134 73 134c55 0 53 -95 84 -95c17 0 30 27 30 89h39c0 -74 -22 -134 -73 -134z" />
    <glyph glyph-name="macron" unicode="&#xaf;" horiz-adv-x="248" 
d="M248 573h-248v45h248v-45z" />
    <glyph glyph-name="uni203E" unicode="&#x203e;" horiz-adv-x="248" 
d="M248 573h-248v45h248v-45z" />
    <glyph glyph-name="breve" unicode="&#x2d8;" horiz-adv-x="238" 
d="M238 613c-27 -37 -70 -61 -119 -61c-48 0 -92 24 -119 61l36 28c18 -27 52 -44 83 -44c32 0 66 17 83 44z" />
    <glyph glyph-name="dotaccent" unicode="&#x2d9;" horiz-adv-x="104" 
d="M52 557c-24 0 -44 20 -44 44s20 44 44 44s44 -20 44 -44s-20 -44 -44 -44z" />
    <glyph glyph-name="ring" unicode="&#x2da;" horiz-adv-x="165" 
d="M83 545c-46 0 -83 38 -83 84c0 45 37 82 83 82s82 -37 82 -82c0 -46 -36 -84 -82 -84zM83 581c26 0 47 21 47 48c0 25 -21 46 -47 46s-47 -21 -47 -46c0 -27 21 -48 47 -48z" />
    <glyph glyph-name="cedilla" unicode="&#xb8;" horiz-adv-x="165" 
d="M77 -191c-32 0 -57 14 -77 30l17 35c20 -18 37 -27 59 -27c25 0 47 17 47 43c0 20 -11 34 -29 34c-12 0 -20 -6 -28 -14l-31 17l31 84h43l-27 -67c9 7 17 10 29 10c30 0 54 -26 54 -65c0 -47 -38 -80 -88 -80z" />
    <glyph glyph-name="hungarumlaut" unicode="&#x2dd;" horiz-adv-x="232" 
d="M115 700l-77 -144h-38l56 144h59zM232 700l-78 -144h-38l56 144h60z" />
    <glyph glyph-name="ogonek" unicode="&#x2db;" horiz-adv-x="138" 
d="M103 -115l35 -18c-9 -29 -29 -53 -68 -53c-41 0 -70 25 -70 76c0 52 31 98 76 132l32 -22c-39 -26 -66 -61 -66 -108c0 -29 12 -41 29 -41s28 13 32 34z" />
    <glyph glyph-name="caron" unicode="&#x2c7;" horiz-adv-x="200" 
d="M135 556h-66l-69 144h42l60 -105l57 105h41z" />
    <glyph glyph-name="commaaccent" unicode="&#xf6c3;" horiz-adv-x="228" 
d="M163 -138c0 -54 -32 -104 -70 -132l-31 25c30 21 55 57 57 87c-1 0 -7 -1 -10 -1c-23 0 -40 18 -40 42c0 23 19 44 43 44c27 0 51 -23 51 -65z" />
    <glyph glyph-name="uni02C9" unicode="&#x2c9;" horiz-adv-x="248" 
d="M248 591h-248v45h248v-45z" />
    <glyph glyph-name="hookabovecomb" unicode="&#x309;" horiz-adv-x="138" 
d="M44 736l-31 7c6 26 25 47 57 47s55 -19 55 -61c0 -24 -8 -44 -20 -62h-34c15 20 22 40 22 61c0 23 -11 32 -23 32c-15 0 -22 -9 -26 -24z" />
    <glyph glyph-name="Alpha" unicode="&#x391;" horiz-adv-x="364" 
d="M357 0h-77l-27 153h-142l-27 -153h-77l131 667h87zM244 220l-62 357l-62 -357h124z" />
    <glyph glyph-name="Beta" unicode="&#x392;" horiz-adv-x="403" 
d="M213 0h-150v667h144c94 0 144 -68 144 -170c0 -84 -34 -134 -87 -153c58 -10 96 -85 96 -164c0 -109 -45 -180 -147 -180zM192 375c61 0 81 48 81 112c0 63 -20 113 -81 113h-54v-225h54zM196 67c61 0 86 46 86 120c0 64 -25 121 -86 121h-58v-241h58z" />
    <glyph glyph-name="Gamma" unicode="&#x393;" horiz-adv-x="351" 
d="M138 0h-75v667h248v-67h-173v-600z" />
    <glyph glyph-name="uni0394" unicode="&#x394;" horiz-adv-x="393" 
d="M387 0h-380l146 667h88zM299 67l-103 510l-101 -510h204z" />
    <glyph glyph-name="Delta" unicode="&#x2206;" horiz-adv-x="393" 
d="M387 0h-380l146 667h88zM299 67l-103 510l-101 -510h204z" />
    <glyph glyph-name="Epsilon" unicode="&#x395;" horiz-adv-x="352" 
d="M311 0h-248v667h248v-67h-173v-225h166v-67h-166v-241h173v-67z" />
    <glyph glyph-name="Zeta" unicode="&#x396;" horiz-adv-x="340" 
d="M307 0h-274v66l184 534h-184v67h267v-63l-186 -537h193v-67z" />
    <glyph glyph-name="Eta" unicode="&#x397;" horiz-adv-x="436" 
d="M373 0h-75v309h-160v-309h-75v667h75v-290h160v290h75v-667z" />
    <glyph glyph-name="Theta" unicode="&#x398;" horiz-adv-x="434" 
d="M286 308h-139v67h139v-67zM217 -12c-127 0 -174 155 -174 345s47 345 174 345c126 0 174 -155 174 -345s-48 -345 -174 -345zM217 56c71 0 96 128 96 277c0 151 -25 277 -96 277c-72 0 -96 -126 -96 -277c0 -149 24 -277 96 -277z" />
    <glyph glyph-name="Iota" unicode="&#x399;" horiz-adv-x="201" 
d="M138 0h-75v667h75v-667z" />
    <glyph glyph-name="Kappa" unicode="&#x39a;" horiz-adv-x="418" 
d="M407 0h-87l-137 289l-45 -86v-203h-75v667h75v-347l171 347h85l-169 -317z" />
    <glyph glyph-name="Lambda" unicode="&#x39b;" horiz-adv-x="364" 
d="M357 0h-77l-98 577l-98 -577h-77l131 667h87z" />
    <glyph glyph-name="Mu" unicode="&#x39c;" horiz-adv-x="558" 
d="M495 0h-74v499l-127 -499h-30l-126 499v-499h-75v667h102l114 -447l116 447h100v-667z" />
    <glyph glyph-name="Nu" unicode="&#x39d;" horiz-adv-x="436" 
d="M373 0h-72l-163 462v-462h-75v667h75l160 -453v453h75v-667z" />
    <glyph glyph-name="Xi" unicode="&#x39e;" horiz-adv-x="371" 
d="M329 600h-287v67h287v-67zM329 0h-287v67h287v-67zM322 308h-273v67h273v-67z" />
    <glyph glyph-name="Omicron" unicode="&#x39f;" horiz-adv-x="434" 
d="M217 -12c-127 0 -174 155 -174 345s47 345 174 345c126 0 174 -155 174 -345s-48 -345 -174 -345zM217 56c71 0 96 128 96 277c0 151 -25 277 -96 277c-72 0 -96 -126 -96 -277c0 -149 24 -277 96 -277z" />
    <glyph glyph-name="Pi" unicode="&#x3a0;" horiz-adv-x="436" 
d="M373 0h-75v600h-160v-600h-75v667h310v-667z" />
    <glyph glyph-name="Rho" unicode="&#x3a1;" horiz-adv-x="387" 
d="M138 0h-75v667h137c110 0 159 -92 159 -199s-49 -199 -159 -199h-62v-269zM193 336c59 0 88 55 88 132s-29 132 -88 132h-55v-264h55z" />
    <glyph glyph-name="Sigma" unicode="&#x3a3;" horiz-adv-x="326" 
d="M120 600l115 -256l-117 -277h175v-67h-251v70l116 274l-116 256v67h251v-67h-173z" />
    <glyph glyph-name="Tau" unicode="&#x3a4;" horiz-adv-x="322" 
d="M199 0h-76v600h-105v67h286v-67h-105v-600z" />
    <glyph glyph-name="Upsilon" unicode="&#x3a5;" horiz-adv-x="372" 
d="M224 0h-75v283l-150 384h82l105 -307l107 307h80l-149 -384v-283z" />
    <glyph glyph-name="Phi" unicode="&#x3a6;" horiz-adv-x="585" 
d="M330 0h-76v66c-153 17 -211 134 -211 267c0 132 58 250 211 267v67h76v-67c153 -16 212 -134 212 -267s-59 -251 -212 -267v-66zM464 333c0 97 -36 181 -134 198v-396c98 16 134 101 134 198zM121 333c0 -96 34 -181 133 -198v396c-99 -17 -133 -101 -133 -198z" />
    <glyph glyph-name="Chi" unicode="&#x3a7;" horiz-adv-x="368" 
d="M365 0h-84l-97 268l-97 -268h-83l137 339l-130 328h84l89 -257l89 257h84l-130 -327z" />
    <glyph glyph-name="Psi" unicode="&#x3a8;" horiz-adv-x="592" 
d="M334 0h-75v126c-114 11 -196 78 -196 217v324h76v-323c0 -98 46 -141 120 -151v474h75v-474c73 10 120 54 120 151v323h75v-323c0 -139 -82 -206 -195 -218v-126z" />
    <glyph glyph-name="uni03A9" unicode="&#x3a9;" horiz-adv-x="419" 
d="M45 67h73c-38 41 -83 128 -83 279c0 201 55 332 175 332c119 0 174 -131 174 -332c0 -151 -46 -238 -84 -279h74v-67h-132v67c26 26 63 110 63 266c0 175 -30 276 -95 276c-66 0 -97 -101 -97 -276c0 -156 37 -240 64 -266v-67h-132v67z" />
    <glyph glyph-name="Omega" unicode="&#x2126;" horiz-adv-x="419" 
d="M45 67h73c-38 41 -83 128 -83 279c0 201 55 332 175 332c119 0 174 -131 174 -332c0 -151 -46 -238 -84 -279h74v-67h-132v67c26 26 63 110 63 266c0 175 -30 276 -95 276c-66 0 -97 -101 -97 -276c0 -156 37 -240 64 -266v-67h-132v67z" />
    <glyph glyph-name="alpha" unicode="&#x3b1;" horiz-adv-x="393" 
d="M372 50l6 -58c-7 -2 -20 -4 -33 -4c-57 0 -78 30 -83 81c-19 -48 -57 -81 -93 -81c-91 0 -132 105 -132 253c0 146 41 254 132 254c33 0 71 -25 91 -79v67h68v-384c0 -33 7 -50 30 -50c4 0 9 0 14 1zM186 49c31 0 63 38 74 80v223c-11 43 -43 82 -74 82
c-61 0 -77 -91 -77 -193s16 -192 77 -192z" />
    <glyph glyph-name="beta" unicode="&#x3b2;" horiz-adv-x="384" 
d="M124 460v-331c12 -42 43 -80 78 -80c50 0 72 64 72 127c0 95 -40 136 -82 136h-17v60h15c44 0 73 43 73 121c0 82 -24 123 -62 123c-42 0 -77 -34 -77 -156zM124 65v-249h-68v644c0 167 69 217 146 217c79 0 132 -55 132 -177c0 -69 -23 -135 -83 -155
c54 -14 96 -80 96 -178c0 -102 -47 -179 -128 -179c-37 0 -74 28 -95 77z" />
    <glyph glyph-name="gamma" unicode="&#x3b3;" horiz-adv-x="326" 
d="M197 -184h-69v147c0 202 -50 382 -129 520h76c55 -114 93 -233 99 -380c38 100 62 249 62 380h68c0 -161 -44 -339 -107 -477v-190z" />
    <glyph glyph-name="delta" unicode="&#x3b4;" horiz-adv-x="382" 
d="M193 -12c-113 0 -156 106 -156 213c0 104 47 178 98 227c-37 33 -66 70 -66 131c0 68 51 120 128 120c46 0 85 -19 115 -54l-32 -46c-19 28 -49 44 -82 44c-39 0 -64 -28 -64 -62c0 -108 210 -126 210 -363c0 -104 -39 -210 -151 -210zM280 197c0 97 -48 147 -98 190
c-40 -39 -73 -101 -73 -185c0 -72 19 -153 84 -153c68 0 87 81 87 148z" />
    <glyph glyph-name="epsilon" unicode="&#x3b5;" horiz-adv-x="350" 
d="M186 -12c-97 0 -149 64 -149 141c0 63 42 108 94 117c-55 13 -88 68 -88 119c0 80 63 130 152 130c60 0 102 -28 131 -77l-41 -39c-21 42 -51 60 -90 60c-50 0 -84 -29 -84 -81c0 -54 33 -85 80 -85h70v-57h-72c-36 0 -84 -9 -84 -81c0 -54 32 -91 83 -91
c49 0 82 25 102 61l41 -38c-29 -47 -77 -79 -145 -79z" />
    <glyph glyph-name="zeta" unicode="&#x3b6;" horiz-adv-x="317" 
d="M225 -45c0 24 -8 33 -33 33c-99 0 -155 97 -155 195c0 159 53 295 181 424h-173v60h241v-52c-124 -136 -177 -278 -177 -422c0 -63 25 -144 99 -144c55 0 80 -28 80 -79c0 -34 -15 -81 -42 -127h-65c21 34 44 82 44 112z" />
    <glyph glyph-name="eta" unicode="&#x3b7;" 
d="M322 -184h-68v555c0 43 -16 63 -46 63c-37 0 -69 -39 -84 -79v-355h-68v483h68v-68c21 43 65 80 108 80c64 0 90 -37 90 -105v-574z" />
    <glyph glyph-name="theta" unicode="&#x3b8;" horiz-adv-x="382" 
d="M191 -12c-113 0 -154 140 -154 346c0 207 41 345 154 345c114 0 153 -138 153 -345c0 -206 -39 -346 -153 -346zM191 49c61 0 80 93 82 256h-164c2 -163 20 -256 82 -256zM191 618c-61 0 -80 -94 -82 -253h164c-2 159 -21 253 -82 253z" />
    <glyph glyph-name="iota" unicode="&#x3b9;" horiz-adv-x="190" 
d="M141 -12c-60 0 -85 33 -85 104v391h68v-384c0 -33 7 -50 31 -50c3 0 8 0 14 1l5 -58c-7 -2 -19 -4 -33 -4z" />
    <glyph glyph-name="kappa" unicode="&#x3ba;" horiz-adv-x="361" 
d="M345 0h-74l-91 219l-56 -96v-123h-68v483h68v-267l148 267h74l-122 -216z" />
    <glyph glyph-name="lambda" unicode="&#x3bb;" horiz-adv-x="326" 
d="M44 612l-11 60c9 4 28 7 42 7c50 0 79 -20 98 -90l143 -589h-72l-82 396l-79 -396h-74l120 498l-19 75c-9 33 -19 45 -42 45c-6 0 -17 -2 -24 -6z" />
    <glyph glyph-name="uni03BC" unicode="&#x3bc;" horiz-adv-x="387" 
d="M124 8v-192h-68v667h68v-372c0 -42 19 -64 49 -64c37 0 66 39 81 79v357h68v-384c0 -33 6 -50 30 -50c4 0 9 0 14 1l6 -58c-7 -2 -20 -4 -33 -4c-53 0 -78 27 -84 84c-17 -48 -47 -84 -86 -84c-25 0 -36 9 -45 20z" />
    <glyph glyph-name="mu" unicode="&#xb5;" horiz-adv-x="387" 
d="M124 8v-192h-68v667h68v-372c0 -42 19 -64 49 -64c37 0 66 39 81 79v357h68v-384c0 -33 6 -50 30 -50c4 0 9 0 14 1l6 -58c-7 -2 -20 -4 -33 -4c-53 0 -78 27 -84 84c-17 -48 -47 -84 -86 -84c-25 0 -36 9 -45 20z" />
    <glyph glyph-name="nu" unicode="&#x3bd;" horiz-adv-x="326" 
d="M194 0h-69l-116 483h74l82 -405c47 121 71 274 71 405h68c0 -163 -45 -344 -110 -483z" />
    <glyph glyph-name="xi" unicode="&#x3be;" horiz-adv-x="317" 
d="M192 -12c-99 0 -155 90 -155 185c0 82 42 144 95 161c-60 18 -87 80 -87 142c0 53 25 100 71 131h-67v60h227v-60h-110c-33 -24 -52 -68 -52 -114c0 -78 37 -120 85 -120h70v-60h-70c-48 0 -90 -38 -90 -131c0 -53 23 -133 99 -133c55 0 80 -28 80 -79
c0 -34 -15 -81 -42 -127h-65c21 34 44 82 44 112c0 24 -8 33 -33 33z" />
    <glyph glyph-name="omicron" unicode="&#x3bf;" horiz-adv-x="382" 
d="M191 -12c-111 0 -154 121 -154 254s43 253 154 253s153 -120 153 -253s-42 -254 -153 -254zM191 49c65 0 82 96 82 193c0 96 -17 192 -82 192s-82 -96 -82 -192c0 -97 17 -193 82 -193z" />
    <glyph glyph-name="pi" unicode="&#x3c0;" horiz-adv-x="406" 
d="M336 0h-68v423h-129v-423h-69v423h-49v60h364v-60h-49v-423z" />
    </font>
</defs>
</svg>
