<?xml version="1.0" standalone="no"?>
<!DOCTYPE svg PUBLIC "-//W3C//DTD SVG 1.1//EN" "http://www.w3.org/Graphics/SVG/1.1/DTD/svg11.dtd" >
<svg xmlns="http://www.w3.org/2000/svg" xmlns:xlink="http://www.w3.org/1999/xlink" version="1.1">
<metadata>
Created by FontForge 20141024 at Thu Apr 30 19:08:28 2015
 By System Administrator
Copyright (c) Mark Simonson, 2005. All rights reserved.
</metadata>
<defs>
<font id="ProximaNovaExCn-LightIt" horiz-adv-x="360" >
  <font-face 
    font-family="Proxima Nova ExCn Lt"
    font-weight="300"
    font-style="italic"
    font-stretch="normal"
    units-per-em="1000"
    panose-1="2 0 5 6 3 0 0 2 0 4"
    ascent="790"
    descent="-210"
    x-height="483"
    cap-height="667"
    bbox="-154 -258 830 886"
    underline-thickness="20"
    underline-position="-113"
    stemh="49"
    stemv="51"
    unicode-range="U+000D-FB04"
  />
<missing-glyph horiz-adv-x="486" 
d="M439 -90h-351v842h351v-842zM407 -60v782h-288v-782h288z" />
    <glyph glyph-name="f_b" unicode="fb" horiz-adv-x="581" 
d="M69 0h-49l98 440h-49l9 43h49l20 94c16 73 57 100 104 100c16 0 31 -4 44 -10l-21 -40c-7 4 -16 6 -22 6c-30 0 -48 -21 -56 -56l-20 -94h68l-10 -43h-67zM368 -12c-35 0 -70 26 -84 85l-15 -73h-49l147 667h49l-55 -248c30 51 65 76 101 76c59 0 91 -51 91 -138
c0 -116 -59 -369 -185 -369zM364 32c90 0 138 230 138 323c0 68 -20 96 -59 96c-35 0 -74 -44 -95 -90l-53 -237c4 -51 34 -92 69 -92z" />
    <glyph glyph-name="f_f" unicode="ff" horiz-adv-x="426" 
d="M69 0h-49l98 440h-49l9 43h49l20 94c13 59 47 100 104 100c25 0 53 -11 64 -28l-28 -37c-9 16 -22 21 -35 21c-31 0 -48 -21 -56 -56l-20 -94h68l-10 -43h-67zM282 0h-49l98 440h-49l9 43h49l20 94c13 59 47 100 104 100c25 0 53 -11 64 -28l-28 -37c-9 16 -22 21 -35 21
c-31 0 -48 -21 -56 -56l-20 -94h68l-10 -43h-67z" />
    <glyph glyph-name="f_h" unicode="fh" horiz-adv-x="573" 
d="M69 0h-49l98 440h-49l9 43h49l20 94c16 73 57 100 104 100c16 0 31 -4 44 -10l-21 -40c-7 4 -16 6 -22 6c-30 0 -48 -21 -56 -56l-20 -94h68l-10 -43h-67zM459 0h-50l85 382c2 6 4 22 4 27c0 31 -14 42 -41 42c-40 0 -83 -45 -109 -89l-79 -362h-49l147 667h49l-55 -250
c31 44 69 78 115 78c50 0 74 -29 74 -70c0 -8 -3 -23 -5 -33z" />
    <glyph glyph-name="fi" unicode="fi" horiz-adv-x="383" 
d="M69 0h-49l98 440h-49l9 43h49l20 94c16 73 57 100 104 100c16 0 31 -4 44 -10l-21 -40c-7 4 -16 6 -22 6c-30 0 -48 -21 -56 -56l-20 -94h68l-10 -43h-67zM372 560c-20 0 -36 15 -36 34c0 26 24 42 44 42s35 -15 35 -33c0 -27 -24 -43 -43 -43zM269 0h-49l107 483h49z
" />
    <glyph glyph-name="f_j" unicode="fj" horiz-adv-x="383" 
d="M69 0h-49l98 440h-49l9 43h49l20 94c16 73 57 100 104 100c16 0 31 -4 44 -10l-21 -40c-7 4 -16 6 -22 6c-30 0 -48 -21 -56 -56l-20 -94h68l-10 -43h-67zM155 -196c-29 0 -50 10 -60 36l33 29c3 -13 12 -21 26 -21c19 0 34 14 46 69l127 566h49l-127 -566
c-19 -86 -47 -113 -94 -113zM372 560c-20 0 -36 15 -36 34c0 26 24 42 44 42s35 -15 35 -33c0 -27 -24 -43 -43 -43z" />
    <glyph glyph-name="f_k" unicode="fk" horiz-adv-x="556" 
d="M69 0h-49l98 440h-49l9 43h49l20 94c16 73 57 100 104 100c16 0 31 -4 44 -10l-21 -40c-7 4 -16 6 -22 6c-30 0 -48 -21 -56 -56l-20 -94h68l-10 -43h-67zM482 0h-51l-50 233l-84 -105l-28 -128h-49l147 667h49l-103 -465l224 281h54l-173 -217z" />
    <glyph glyph-name="fl" unicode="fl" horiz-adv-x="383" 
d="M69 0h-49l98 440h-49l9 43h49l20 94c16 73 57 100 104 100c16 0 31 -4 44 -10l-21 -40c-7 4 -16 6 -22 6c-30 0 -48 -21 -56 -56l-20 -94h68l-10 -43h-67zM269 0h-49l147 667h49z" />
    <glyph glyph-name="f_f_i" unicode="ffi" horiz-adv-x="596" 
d="M282 0h-49l98 440h-49l9 43h49l20 94c16 73 57 100 104 100c16 0 31 -4 44 -10l-21 -40c-7 4 -16 6 -22 6c-30 0 -48 -21 -56 -56l-20 -94h68l-10 -43h-67zM585 560c-20 0 -36 15 -36 34c0 26 24 42 44 42s35 -15 35 -33c0 -27 -24 -43 -43 -43zM482 0h-49l107 483h49z
M69 0h-49l98 440h-49l9 43h49l20 94c13 59 47 100 104 100c25 0 53 -11 64 -28l-28 -37c-9 16 -22 21 -35 21c-31 0 -48 -21 -56 -56l-20 -94h68l-10 -43h-67z" />
    <glyph glyph-name="f_f_j" unicode="ffj" horiz-adv-x="596" 
d="M282 0h-49l98 440h-49l9 43h49l20 94c16 73 57 100 104 100c16 0 31 -4 44 -10l-21 -40c-7 4 -16 6 -22 6c-30 0 -48 -21 -56 -56l-20 -94h68l-10 -43h-67zM368 -196c-29 0 -50 10 -60 36l33 29c3 -13 12 -21 26 -21c19 0 34 14 46 69l127 566h49l-127 -566
c-19 -86 -47 -113 -94 -113zM585 560c-20 0 -36 15 -36 34c0 26 24 42 44 42s35 -15 35 -33c0 -27 -24 -43 -43 -43zM69 0h-49l98 440h-49l9 43h49l20 94c13 59 47 100 104 100c25 0 53 -11 64 -28l-28 -37c-9 16 -22 21 -35 21c-31 0 -48 -21 -56 -56l-20 -94h68l-10 -43
h-67z" />
    <glyph glyph-name="f_f_l" unicode="ffl" horiz-adv-x="596" 
d="M282 0h-49l98 440h-49l9 43h49l20 94c16 73 57 100 104 100c16 0 31 -4 44 -10l-21 -40c-7 4 -16 6 -22 6c-30 0 -48 -21 -56 -56l-20 -94h68l-10 -43h-67zM482 0h-49l147 667h49zM69 0h-49l98 440h-49l9 43h49l20 94c13 59 47 100 104 100c25 0 53 -11 64 -28l-28 -37
c-9 16 -22 21 -35 21c-31 0 -48 -21 -56 -56l-20 -94h68l-10 -43h-67z" />
    <glyph glyph-name=".notdef" horiz-adv-x="486" 
d="M439 -90h-351v842h351v-842zM407 -60v782h-288v-782h288z" />
    <glyph glyph-name=".null" horiz-adv-x="0" 
 />
    <glyph glyph-name=".null" horiz-adv-x="0" 
 />
    <glyph glyph-name="CR" unicode="&#xd;" horiz-adv-x="0" 
 />
    <glyph glyph-name="space" unicode=" " horiz-adv-x="176" 
 />
    <glyph glyph-name="nbspace" unicode="&#xa0;" horiz-adv-x="176" 
 />
    <glyph glyph-name="thinspace" unicode="&#x2009;" horiz-adv-x="35" 
 />
    <glyph glyph-name="zero" unicode="0" horiz-adv-x="395" 
d="M155 -12c-65 0 -112 50 -112 171c0 201 91 518 235 518c65 0 112 -49 112 -171c0 -200 -91 -518 -235 -518zM160 37c106 0 177 332 177 479c0 72 -17 112 -64 112c-106 0 -177 -332 -177 -479c0 -72 17 -112 64 -112z" />
    <glyph glyph-name="zero.pzero" horiz-adv-x="395" 
d="M155 -12c-39 0 -71 17 -91 57l-27 -45h-43l55 91c-4 20 -6 42 -6 68c0 201 91 518 235 518c39 0 71 -18 91 -58l29 48h43l-57 -94c4 -20 6 -42 6 -67c0 -200 -91 -518 -235 -518zM273 628c-102 0 -171 -304 -177 -459l238 392c-7 43 -25 67 -61 67zM160 37
c101 0 170 302 176 457l-237 -392c7 -42 25 -65 61 -65z" />
    <glyph glyph-name="one" unicode="1" horiz-adv-x="267" 
d="M146 0h-54l131 594l-126 -111l-26 36l174 148h48z" />
    <glyph glyph-name="two" unicode="2" horiz-adv-x="369" 
d="M267 0h-265l12 57c248 318 314 400 314 490c0 49 -28 81 -69 81c-39 0 -72 -23 -106 -77l-37 32c41 58 89 94 146 94c73 0 124 -44 124 -123c0 -106 -70 -202 -309 -505h200z" />
    <glyph glyph-name="three" unicode="3" horiz-adv-x="368" 
d="M140 -12c-69 0 -124 43 -140 133l50 23c10 -72 42 -107 90 -107c74 0 117 105 117 194c0 63 -37 89 -77 89c-11 0 -20 0 -28 -2l12 51c7 -1 34 -1 43 -1c76 0 114 92 114 177c0 58 -27 83 -71 83c-42 0 -79 -33 -102 -77l-37 29c30 52 82 97 147 97
c72 0 122 -44 122 -126c0 -88 -50 -191 -134 -211c49 -19 66 -71 66 -121c0 -112 -70 -231 -172 -231z" />
    <glyph glyph-name="four" unicode="4" horiz-adv-x="338" 
d="M217 0h-53l40 184h-205l12 53l285 430h68l-96 -434h54l-10 -49h-54zM214 233l80 356l-234 -356h154z" />
    <glyph glyph-name="five" unicode="5" horiz-adv-x="371" 
d="M142 -12c-83 0 -118 55 -132 132l50 20c6 -67 32 -103 83 -103c68 0 129 129 129 244c0 54 -19 86 -63 86c-35 0 -65 -22 -95 -57l-37 21l75 336h243l-10 -49h-190l-56 -253c27 33 54 49 92 49c59 0 97 -50 97 -130c0 -145 -81 -296 -186 -296z" />
    <glyph glyph-name="six" unicode="6" horiz-adv-x="371" 
d="M151 -12c-86 0 -111 76 -111 161c0 114 63 528 248 528c55 0 103 -41 112 -109l-44 -27c-3 52 -28 87 -71 87c-90 0 -139 -167 -167 -294c-3 -11 -2 -9 -4 -20c28 51 69 97 120 97c56 0 100 -42 100 -130c0 -116 -62 -293 -183 -293zM157 37c82 0 121 163 121 242
c0 46 -17 85 -62 85c-49 0 -88 -59 -114 -117c-6 -28 -11 -70 -11 -103c0 -66 19 -107 66 -107z" />
    <glyph glyph-name="seven" unicode="7" horiz-adv-x="304" 
d="M82 0h-59l281 618h-199l11 49h258l-8 -37z" />
    <glyph glyph-name="eight" unicode="8" horiz-adv-x="369" 
d="M147 -12c-79 0 -131 36 -131 128c0 91 50 183 152 233c-33 27 -63 82 -63 137c0 90 64 191 159 191c61 0 121 -34 121 -127c0 -115 -76 -181 -140 -209c40 -35 66 -93 66 -148c0 -119 -74 -205 -164 -205zM211 365c47 19 117 75 117 182c0 51 -23 80 -69 80
c-54 0 -99 -68 -99 -151c0 -48 25 -93 51 -111zM146 37c55 0 110 72 110 163c0 69 -35 113 -54 124c-60 -22 -128 -98 -128 -199c0 -63 33 -88 72 -88z" />
    <glyph glyph-name="nine" unicode="9" horiz-adv-x="371" 
d="M259 678c86 0 112 -76 112 -161c0 -114 -64 -528 -249 -528c-55 0 -102 41 -111 109l43 27c3 -52 29 -87 71 -87c90 0 139 167 167 294c3 11 2 9 4 20c-27 -51 -68 -97 -120 -97c-55 0 -99 43 -99 130c0 116 62 293 182 293zM254 629c-83 0 -122 -163 -122 -242
c0 -46 17 -85 62 -85c49 0 88 59 115 117c5 29 11 70 11 103c0 66 -20 107 -66 107z" />
    <glyph glyph-name="zero.tnum" unicode="&#xf639;" horiz-adv-x="369" 
d="M142 -12c-65 0 -112 50 -112 171c0 201 91 518 235 518c65 0 112 -49 112 -171c0 -200 -91 -518 -235 -518zM147 37c106 0 177 332 177 479c0 72 -17 112 -64 112c-106 0 -177 -332 -177 -479c0 -72 17 -112 64 -112z" />
    <glyph glyph-name="zero.tzero" unicode="&#xf638;" horiz-adv-x="369" 
d="M142 -12c-39 0 -71 17 -91 57l-27 -45h-43l55 91c-4 20 -6 42 -6 68c0 201 91 518 235 518c39 0 71 -18 91 -58l29 48h43l-57 -94c4 -20 6 -42 6 -67c0 -200 -91 -518 -235 -518zM260 628c-102 0 -171 -304 -177 -459l238 392c-7 43 -25 67 -61 67zM147 37
c101 0 170 302 176 457l-237 -392c7 -42 25 -65 61 -65z" />
    <glyph glyph-name="one.tnum" unicode="&#xf6dc;" horiz-adv-x="369" 
d="M212 0h-54l131 594l-126 -111l-26 36l174 148h48z" />
    <glyph glyph-name="two.tnum" unicode="&#xf63a;" horiz-adv-x="369" 
d="M266 0h-265l12 57c248 318 314 400 314 490c0 49 -28 81 -69 81c-39 0 -72 -23 -106 -77l-37 32c41 58 89 94 146 94c73 0 124 -44 124 -123c0 -106 -70 -202 -309 -505h200z" />
    <glyph glyph-name="three.tnum" unicode="&#xf63b;" horiz-adv-x="369" 
d="M141 -12c-69 0 -124 43 -140 133l50 23c10 -72 42 -107 90 -107c74 0 117 105 117 194c0 63 -37 89 -77 89c-11 0 -20 0 -28 -2l12 51c7 -1 34 -1 43 -1c76 0 114 92 114 177c0 58 -27 83 -71 83c-42 0 -79 -33 -102 -77l-37 29c30 52 82 97 147 97
c72 0 122 -44 122 -126c0 -88 -50 -191 -134 -211c49 -19 66 -71 66 -121c0 -112 -70 -231 -172 -231z" />
    <glyph glyph-name="four.tnum" unicode="&#xf63c;" horiz-adv-x="369" 
d="M233 0h-53l40 184h-205l12 53l285 430h68l-96 -434h54l-10 -49h-54zM230 233l80 356l-234 -356h154z" />
    <glyph glyph-name="five.tnum" unicode="&#xf63d;" horiz-adv-x="369" 
d="M141 -12c-83 0 -118 55 -132 132l50 20c6 -67 32 -103 83 -103c68 0 129 129 129 244c0 54 -19 86 -63 86c-35 0 -65 -22 -95 -57l-37 21l75 336h243l-10 -49h-190l-56 -253c27 33 54 49 92 49c59 0 97 -50 97 -130c0 -145 -81 -296 -186 -296z" />
    <glyph glyph-name="six.tnum" unicode="&#xf63e;" horiz-adv-x="369" 
d="M149 -12c-86 0 -111 76 -111 161c0 114 63 528 248 528c55 0 103 -41 112 -109l-44 -27c-3 52 -28 87 -71 87c-90 0 -139 -167 -167 -294c-3 -11 -2 -9 -4 -20c28 51 69 97 120 97c56 0 100 -42 100 -130c0 -116 -62 -293 -183 -293zM155 37c82 0 121 163 121 242
c0 46 -17 85 -62 85c-49 0 -88 -59 -114 -117c-6 -28 -11 -70 -11 -103c0 -66 19 -107 66 -107z" />
    <glyph glyph-name="seven.tnum" unicode="&#xf63f;" horiz-adv-x="369" 
d="M115 0h-59l281 618h-199l11 49h258l-8 -37z" />
    <glyph glyph-name="eight.tnum" unicode="&#xf640;" horiz-adv-x="369" 
d="M147 -12c-79 0 -131 36 -131 128c0 91 50 183 152 233c-33 27 -63 82 -63 137c0 90 64 191 159 191c61 0 121 -34 121 -127c0 -115 -76 -181 -140 -209c40 -35 66 -93 66 -148c0 -119 -74 -205 -164 -205zM211 365c47 19 117 75 117 182c0 51 -23 80 -69 80
c-54 0 -99 -68 -99 -151c0 -48 25 -93 51 -111zM146 37c55 0 110 72 110 163c0 69 -35 113 -54 124c-60 -22 -128 -98 -128 -199c0 -63 33 -88 72 -88z" />
    <glyph glyph-name="nine.tnum" unicode="&#xf641;" horiz-adv-x="369" 
d="M259 678c86 0 112 -76 112 -161c0 -114 -64 -528 -249 -528c-55 0 -102 41 -111 109l43 27c3 -52 29 -87 71 -87c90 0 139 167 167 294c3 11 2 9 4 20c-27 -51 -68 -97 -120 -97c-55 0 -99 43 -99 130c0 116 62 293 182 293zM254 629c-83 0 -122 -163 -122 -242
c0 -46 17 -85 62 -85c49 0 88 59 115 117c5 29 11 70 11 103c0 66 -20 107 -66 107z" />
    <glyph glyph-name="zero.tonum" unicode="&#xf643;" horiz-adv-x="369" 
d="M357 397c0 -92 -58 -409 -216 -409c-66 0 -117 48 -117 165c0 92 57 409 216 409c65 0 117 -48 117 -165zM303 403c0 75 -23 110 -68 110c-118 0 -157 -311 -157 -366c0 -75 23 -110 68 -110c118 0 157 311 157 366z" />
    <glyph glyph-name="zero.tonumzero" horiz-adv-x="369" 
d="M357 397c0 -92 -58 -409 -216 -409c-35 0 -67 13 -88 43l-20 -31h-42l45 69c-8 22 -12 50 -12 84c0 92 57 409 216 409c35 0 66 -14 88 -46l22 34h42l-46 -71c7 -23 11 -50 11 -82zM78 147v-14l217 333c-10 32 -31 47 -60 47c-118 0 -157 -311 -157 -366zM303 403v10
l-217 -331c11 -31 31 -45 60 -45c118 0 157 311 157 366z" />
    <glyph glyph-name="one.tonum" unicode="&#xf644;" horiz-adv-x="369" 
d="M212 0h-54l105 477l-126 -111l-26 36l174 148h48z" />
    <glyph glyph-name="two.tonum" unicode="&#xf645;" horiz-adv-x="369" 
d="M253 0h-252l10 47c218 188 286 298 286 386c0 53 -26 80 -67 80c-42 0 -74 -26 -106 -84l-38 30c43 68 88 103 147 103c78 0 123 -46 123 -122c0 -92 -66 -213 -273 -391h181z" />
    <glyph glyph-name="three.tonum" unicode="&#xf646;" horiz-adv-x="369" 
d="M115 -128c-69 0 -124 43 -140 133l50 23c10 -72 42 -107 90 -107c74 0 117 105 117 194c0 63 -37 89 -77 89c-11 0 -20 0 -28 -2l12 51c7 -1 34 -1 43 -1c76 0 114 92 114 177c0 58 -27 83 -71 83c-42 0 -79 -33 -102 -77l-37 29c30 52 82 97 147 97
c72 0 122 -44 122 -126c0 -88 -50 -191 -134 -211c49 -19 66 -71 66 -121c0 -112 -70 -231 -172 -231z" />
    <glyph glyph-name="four.tonum" unicode="&#xf647;" horiz-adv-x="369" 
d="M302 68h-54l-41 -185h-53l40 185h-205l12 51l287 431h66l-96 -433h54zM204 117l81 360l-237 -360h156z" />
    <glyph glyph-name="five.tonum" unicode="&#xf648;" horiz-adv-x="369" 
d="M115 -129c-83 0 -118 55 -132 132l50 20c6 -67 32 -103 83 -103c68 0 129 129 129 244c0 54 -19 86 -63 86c-35 0 -65 -22 -95 -57l-37 21l75 336h243l-10 -49h-190l-56 -253c27 33 54 49 92 49c59 0 97 -50 97 -130c0 -145 -81 -296 -186 -296z" />
    <glyph glyph-name="six.tonum" unicode="&#xf649;" horiz-adv-x="369" 
d="M149 -12c-86 0 -111 76 -111 161c0 114 63 528 248 528c55 0 103 -41 112 -109l-44 -27c-3 52 -28 87 -71 87c-90 0 -139 -167 -167 -294c-3 -11 -2 -9 -4 -20c28 51 69 97 120 97c56 0 100 -42 100 -130c0 -116 -62 -293 -183 -293zM155 37c82 0 121 163 121 242
c0 46 -17 85 -62 85c-49 0 -88 -59 -114 -117c-6 -28 -11 -70 -11 -103c0 -66 19 -107 66 -107z" />
    <glyph glyph-name="seven.tonum" unicode="&#xf64a;" horiz-adv-x="369" 
d="M89 -117h-59l281 618h-199l11 49h258l-8 -37z" />
    <glyph glyph-name="eight.tonum" unicode="&#xf64b;" horiz-adv-x="369" 
d="M147 -12c-79 0 -131 36 -131 128c0 91 50 183 152 233c-33 27 -63 82 -63 137c0 90 64 191 159 191c61 0 121 -34 121 -127c0 -115 -76 -181 -140 -209c40 -35 66 -93 66 -148c0 -119 -74 -205 -164 -205zM211 365c47 19 117 75 117 182c0 51 -23 80 -69 80
c-54 0 -99 -68 -99 -151c0 -48 25 -93 51 -111zM146 37c55 0 110 72 110 163c0 69 -35 113 -54 124c-60 -22 -128 -98 -128 -199c0 -63 33 -88 72 -88z" />
    <glyph glyph-name="nine.tonum" unicode="&#xf64c;" horiz-adv-x="369" 
d="M233 562c86 0 112 -76 112 -161c0 -114 -64 -528 -249 -528c-55 0 -102 41 -111 109l43 27c3 -52 29 -87 71 -87c90 0 139 167 167 294c3 11 2 9 4 20c-27 -51 -68 -97 -120 -97c-55 0 -99 43 -99 130c0 116 62 293 182 293zM228 513c-83 0 -122 -163 -122 -242
c0 -46 17 -85 62 -85c49 0 88 59 115 117c5 29 11 70 11 103c0 66 -20 107 -66 107z" />
    <glyph glyph-name="zero.onum" unicode="&#xf730;" horiz-adv-x="395" 
d="M370 397c0 -92 -58 -409 -216 -409c-66 0 -117 48 -117 165c0 92 57 409 216 409c65 0 117 -48 117 -165zM316 403c0 75 -23 110 -68 110c-118 0 -157 -311 -157 -366c0 -75 23 -110 68 -110c118 0 157 311 157 366z" />
    <glyph glyph-name="zero.onumzero" horiz-adv-x="395" 
d="M370 397c0 -92 -58 -409 -216 -409c-35 0 -67 13 -88 43l-20 -31h-42l45 69c-8 22 -12 50 -12 84c0 92 57 409 216 409c35 0 66 -14 88 -46l22 34h42l-46 -71c7 -23 11 -50 11 -82zM91 147v-14l217 333c-10 32 -31 47 -60 47c-118 0 -157 -311 -157 -366zM316 403v10
l-217 -331c11 -31 31 -45 60 -45c118 0 157 311 157 366z" />
    <glyph glyph-name="one.onum" unicode="&#xf731;" horiz-adv-x="267" 
d="M146 0h-54l105 477l-126 -111l-26 36l174 148h48z" />
    <glyph glyph-name="two.onum" unicode="&#xf732;" horiz-adv-x="366" 
d="M254 0h-252l10 47c218 188 286 298 286 386c0 53 -26 80 -67 80c-42 0 -74 -26 -106 -84l-38 30c43 68 88 103 147 103c78 0 123 -46 123 -122c0 -92 -66 -213 -273 -391h181z" />
    <glyph glyph-name="three.onum" unicode="&#xf733;" horiz-adv-x="368" 
d="M114 -127c-69 0 -124 43 -140 133l50 23c10 -72 42 -107 90 -107c74 0 117 105 117 194c0 63 -37 89 -77 89c-11 0 -20 0 -28 -2l12 51c7 -1 34 -1 43 -1c76 0 114 92 114 177c0 58 -27 83 -71 83c-42 0 -79 -33 -102 -77l-37 29c30 52 82 97 147 97
c72 0 122 -44 122 -126c0 -88 -50 -191 -134 -211c49 -19 66 -71 66 -121c0 -112 -70 -231 -172 -231z" />
    <glyph glyph-name="four.onum" unicode="&#xf734;" horiz-adv-x="338" 
d="M286 68h-54l-41 -185h-53l40 185h-205l12 51l287 431h66l-96 -433h54zM188 117l81 360l-237 -360h156z" />
    <glyph glyph-name="five.onum" unicode="&#xf735;" horiz-adv-x="371" 
d="M116 -129c-83 0 -118 55 -132 132l50 20c6 -67 32 -103 83 -103c68 0 129 129 129 244c0 54 -19 86 -63 86c-35 0 -65 -22 -95 -57l-37 21l75 336h243l-10 -49h-190l-56 -253c27 33 54 49 92 49c59 0 97 -50 97 -130c0 -145 -81 -296 -186 -296z" />
    <glyph glyph-name="six.onum" unicode="&#xf736;" horiz-adv-x="371" 
d="M151 -12c-86 0 -111 76 -111 161c0 114 63 528 248 528c55 0 103 -41 112 -109l-44 -27c-3 52 -28 87 -71 87c-90 0 -139 -167 -167 -294c-3 -11 -2 -9 -4 -20c28 51 69 97 120 97c56 0 100 -42 100 -130c0 -116 -62 -293 -183 -293zM157 37c82 0 121 163 121 242
c0 46 -17 85 -62 85c-49 0 -88 -59 -114 -117c-6 -28 -11 -70 -11 -103c0 -66 19 -107 66 -107z" />
    <glyph glyph-name="seven.onum" unicode="&#xf737;" horiz-adv-x="304" 
d="M56 -117h-59l281 618h-199l11 49h258l-8 -37z" />
    <glyph glyph-name="eight.onum" unicode="&#xf738;" horiz-adv-x="369" 
d="M147 -12c-79 0 -131 36 -131 128c0 91 50 183 152 233c-33 27 -63 82 -63 137c0 90 64 191 159 191c61 0 121 -34 121 -127c0 -115 -76 -181 -140 -209c40 -35 66 -93 66 -148c0 -119 -74 -205 -164 -205zM211 365c47 19 117 75 117 182c0 51 -23 80 -69 80
c-54 0 -99 -68 -99 -151c0 -48 25 -93 51 -111zM146 37c55 0 110 72 110 163c0 69 -35 113 -54 124c-60 -22 -128 -98 -128 -199c0 -63 33 -88 72 -88z" />
    <glyph glyph-name="nine.onum" unicode="&#xf739;" horiz-adv-x="371" 
d="M233 562c86 0 112 -76 112 -161c0 -114 -64 -528 -249 -528c-55 0 -102 41 -111 109l43 27c3 -52 29 -87 71 -87c90 0 139 167 167 294c3 11 2 9 4 20c-27 -51 -68 -97 -120 -97c-55 0 -99 43 -99 130c0 116 62 293 182 293zM228 513c-83 0 -122 -163 -122 -242
c0 -46 17 -85 62 -85c49 0 88 59 115 117c5 29 11 70 11 103c0 66 -20 107 -66 107z" />
    <glyph glyph-name="A" unicode="A" horiz-adv-x="338" 
d="M275 0h-54l7 166h-151l-65 -166h-57l276 667h62zM231 215l17 383l-152 -383h135z" />
    <glyph glyph-name="B" unicode="B" horiz-adv-x="381" 
d="M150 0h-136l147 667h96c79 0 125 -53 125 -130c0 -88 -43 -181 -121 -199c45 -14 61 -70 61 -114c0 -108 -60 -224 -172 -224zM148 366h68c76 0 109 103 109 165c0 59 -32 87 -81 87h-40zM149 49c70 0 117 89 117 177c0 65 -30 92 -84 92h-45l-60 -269h72z" />
    <glyph glyph-name="C" unicode="C" horiz-adv-x="374" 
d="M163 -12c-73 0 -120 56 -120 180c0 143 71 510 246 510c74 0 108 -60 116 -139l-51 -9c-6 65 -27 99 -70 99c-122 0 -184 -346 -184 -465c0 -91 22 -127 68 -127c37 0 66 32 97 86l44 -22c-41 -73 -87 -113 -146 -113z" />
    <glyph glyph-name="D" unicode="D" horiz-adv-x="407" 
d="M124 0h-110l147 667h107c62 0 128 -52 128 -192c0 -96 -54 -475 -272 -475zM77 49h56c155 0 207 344 207 425c0 104 -39 144 -82 144h-54z" />
    <glyph glyph-name="E" unicode="E" horiz-adv-x="341" 
d="M242 0h-228l147 667h228l-10 -49h-175l-56 -252h168l-11 -48h-168l-60 -269h176z" />
    <glyph glyph-name="F" unicode="F" horiz-adv-x="341" 
d="M67 0h-53l147 667h228l-10 -49h-175l-56 -252h168l-11 -48h-168z" />
    <glyph glyph-name="G" unicode="G" horiz-adv-x="393" 
d="M163 -12c-72 0 -120 52 -120 180c0 153 75 510 246 510c82 0 109 -71 115 -135l-49 -10c-5 52 -20 96 -71 96c-118 0 -184 -332 -184 -465c0 -95 22 -127 68 -127c35 0 59 27 84 62l40 183h-95l10 49h146l-56 -251c-36 -56 -78 -92 -134 -92z" />
    <glyph glyph-name="G.alt1" horiz-adv-x="393" 
d="M153 -12c-66 0 -110 55 -110 180c0 129 67 510 258 510c65 0 98 -67 103 -135l-49 -10c-4 53 -23 96 -63 96c-129 0 -192 -346 -192 -465c0 -81 17 -127 62 -127c69 0 117 118 146 245h-111l10 49h167c-47 -221 -111 -343 -221 -343z" />
    <glyph glyph-name="H" unicode="H" horiz-adv-x="415" 
d="M294 0h-54l71 319h-174l-70 -319h-53l147 667h53l-66 -300h173l66 300h54z" />
    <glyph glyph-name="I" unicode="I" horiz-adv-x="189" 
d="M67 0h-53l147 667h53z" />
    <glyph glyph-name="J" unicode="J" horiz-adv-x="310" 
d="M72 -12c-45 0 -85 17 -108 54l31 38c17 -30 48 -43 74 -43c52 0 80 27 94 96l119 534h54l-119 -535c-22 -101 -66 -144 -145 -144z" />
    <glyph glyph-name="K" unicode="K" horiz-adv-x="395" 
d="M326 0h-58l-87 306l-66 -89l-48 -217h-53l147 667h53l-78 -353l259 353h65l-241 -318z" />
    <glyph glyph-name="L" unicode="L" horiz-adv-x="320" 
d="M242 0h-228l147 667h53l-137 -618h176z" />
    <glyph glyph-name="M" unicode="M" horiz-adv-x="533" 
d="M412 0h-54l124 560l-258 -560h-23l-10 560l-124 -560h-53l147 667h75l10 -508l236 508h77z" />
    <glyph glyph-name="N" unicode="N" horiz-adv-x="415" 
d="M294 0h-52l-58 528l-117 -528h-53l147 667h53l58 -519l115 519h54z" />
    <glyph glyph-name="O" unicode="O" horiz-adv-x="415" 
d="M163 -12c-88 0 -120 82 -120 180c0 137 72 510 246 510c88 0 121 -84 121 -181c0 -137 -73 -509 -247 -509zM168 37c116 0 185 328 185 463c0 78 -19 129 -69 129c-118 0 -184 -330 -184 -465c0 -78 17 -127 68 -127z" />
    <glyph glyph-name="P" unicode="P" horiz-adv-x="364" 
d="M67 0h-53l147 667h107c70 0 119 -56 119 -144c0 -115 -65 -244 -196 -244h-62zM139 327h58c89 0 133 104 133 194c0 67 -32 97 -74 97h-52z" />
    <glyph glyph-name="Q" unicode="Q" horiz-adv-x="415" 
d="M163 -12c-88 0 -120 82 -120 180c0 137 72 510 246 510c88 0 121 -84 121 -181c0 -112 -49 -379 -161 -475l8 -49l-45 -8l-5 32c-14 -6 -29 -9 -44 -9zM168 37c11 0 21 3 31 8l-25 160l46 7l20 -130c72 95 113 314 113 418c0 78 -19 129 -69 129
c-118 0 -184 -330 -184 -465c0 -78 17 -127 68 -127z" />
    <glyph glyph-name="R" unicode="R" horiz-adv-x="388" 
d="M285 0h-56l-30 279h-70l-62 -279h-53l147 667h105c74 0 123 -60 123 -141c0 -119 -63 -217 -141 -239zM139 327h59c90 0 132 104 132 196c0 65 -28 95 -71 95h-55z" />
    <glyph glyph-name="S" unicode="S" horiz-adv-x="337" 
d="M113 -12c-52 0 -103 27 -127 65l38 40c17 -33 54 -56 89 -56c59 0 118 55 118 150c0 115 -135 174 -135 307c0 105 79 184 162 184c42 0 86 -17 111 -51l-34 -40c-18 27 -46 42 -77 42c-63 0 -106 -60 -106 -129c0 -100 134 -172 134 -308c0 -116 -75 -204 -173 -204z
" />
    <glyph glyph-name="T" unicode="T" horiz-adv-x="305" 
d="M125 0h-54l137 618h-107l10 49h269l-10 -49h-108z" />
    <glyph glyph-name="U" unicode="U" horiz-adv-x="416" 
d="M170 -12c-73 0 -125 45 -125 129c0 16 2 34 5 47l111 503h53l-111 -505c-2 -8 -5 -27 -5 -39c0 -58 33 -86 76 -86c52 0 83 33 103 125l111 505h54l-111 -504c-27 -122 -78 -175 -161 -175z" />
    <glyph glyph-name="V" unicode="V" horiz-adv-x="338" 
d="M146 0h-62l18 667h54l-27 -594l236 594h57z" />
    <glyph glyph-name="W" unicode="W" horiz-adv-x="519" 
d="M341 0h-59l46 551l-199 -551h-59l44 667h56l-48 -568l206 568h49l-46 -568l203 568h57z" />
    <glyph glyph-name="X" unicode="X" horiz-adv-x="338" 
d="M278 0h-56l-43 282l-164 -282h-63l208 342l-54 325h58l36 -271l155 271h63l-199 -331z" />
    <glyph glyph-name="Y" unicode="Y" horiz-adv-x="347" 
d="M146 0h-53l63 286l-62 381h55l43 -323l188 323h59l-229 -381z" />
    <glyph glyph-name="Z" unicode="Z" horiz-adv-x="324" 
d="M236 0h-256l10 48l314 570h-187l11 49h248l-10 -46l-315 -572h195z" />
    <glyph glyph-name="a" unicode="a" horiz-adv-x="368" 
d="M211 495c35 0 70 -26 84 -85l16 73h49l-107 -483h-49l15 64c-30 -51 -65 -76 -101 -76c-59 0 -92 51 -92 138c0 117 60 369 185 369zM216 451c-91 0 -138 -230 -138 -323c0 -68 20 -96 59 -96c34 0 73 44 94 90l53 237c-4 51 -33 92 -68 92z" />
    <glyph glyph-name="a.alt1" horiz-adv-x="359" 
d="M252 0h-49l10 48c-22 -39 -57 -60 -95 -60c-54 0 -101 38 -101 117c0 102 58 204 149 204c32 0 76 -22 89 -69l23 99c4 21 6 31 6 46c0 45 -27 68 -70 68c-32 0 -66 -15 -98 -45l-16 38c35 30 80 49 122 49c67 0 113 -32 113 -97c0 -18 -2 -30 -7 -54zM135 26
c30 0 62 20 87 65l25 108c-8 45 -37 71 -76 71c-67 0 -101 -94 -101 -162c0 -56 27 -82 65 -82z" />
    <glyph glyph-name="b" unicode="b" horiz-adv-x="368" 
d="M155 -12c-35 0 -70 26 -84 85l-15 -73h-49l147 667h49l-55 -248c30 51 65 76 101 76c59 0 91 -51 91 -138c0 -116 -59 -369 -185 -369zM151 32c90 0 138 230 138 323c0 68 -20 96 -59 96c-35 0 -74 -44 -95 -90l-53 -237c4 -51 34 -92 69 -92z" />
    <glyph glyph-name="c" unicode="c" horiz-adv-x="306" 
d="M148 -12c-72 0 -119 49 -119 159c0 128 66 348 203 348c40 0 71 -19 90 -49l-31 -35c-14 28 -37 40 -60 40c-103 0 -150 -206 -150 -306c0 -81 29 -113 73 -113c26 0 47 13 65 34l18 -38c-30 -29 -54 -40 -89 -40z" />
    <glyph glyph-name="d" unicode="d" horiz-adv-x="368" 
d="M211 495c35 0 70 -26 84 -85l57 257h49l-148 -667h-49l15 64c-30 -51 -65 -76 -101 -76c-59 0 -92 51 -92 138c0 117 60 369 185 369zM216 451c-91 0 -138 -230 -138 -323c0 -68 20 -96 59 -96c34 0 73 44 94 90l53 237c-4 51 -33 92 -68 92z" />
    <glyph glyph-name="e" unicode="e" 
d="M157 -12c-79 0 -129 51 -129 159c0 87 48 348 196 348c65 0 112 -39 112 -143c0 -42 -8 -89 -18 -126h-232c-6 -29 -9 -56 -9 -80c0 -69 27 -116 84 -116c30 0 64 25 87 59l27 -31c-36 -46 -76 -70 -118 -70zM93 265h184c7 29 11 56 11 85c0 55 -20 103 -67 103
c-72 0 -113 -113 -128 -188z" />
    <glyph glyph-name="f" unicode="f" horiz-adv-x="213" 
d="M69 0h-49l98 440h-49l9 43h49l20 94c13 59 47 100 104 100c25 0 53 -11 64 -28l-28 -37c-9 16 -22 21 -35 21c-31 0 -48 -21 -56 -56l-20 -94h68l-10 -43h-67z" />
    <glyph glyph-name="f.alt1" horiz-adv-x="213" 
d="M69 0h-49l98 440h-49l9 43h49l20 94c16 73 57 100 104 100c16 0 31 -4 44 -10l-21 -40c-7 4 -16 6 -22 6c-30 0 -48 -21 -56 -56l-20 -94h68l-10 -43h-67z" />
    <glyph glyph-name="g" unicode="g" horiz-adv-x="368" 
d="M90 -196c-44 0 -93 18 -121 54l32 39c17 -27 51 -49 90 -49c52 0 87 37 106 121l24 99c-29 -50 -65 -76 -102 -76c-53 0 -92 41 -92 136c0 114 56 367 185 367c34 0 74 -31 85 -85l15 73h48l-113 -510c-28 -124 -81 -169 -157 -169zM137 36c36 0 74 44 95 90l52 233
c-3 45 -32 92 -69 92c-87 0 -137 -219 -137 -319c0 -73 23 -96 59 -96z" />
    <glyph glyph-name="h" unicode="h" 
d="M246 0h-50l85 382c2 6 4 22 4 27c0 31 -14 42 -41 42c-40 0 -83 -45 -109 -89l-79 -362h-49l147 667h49l-55 -250c31 44 69 78 115 78c50 0 74 -29 74 -70c0 -8 -3 -23 -5 -33z" />
    <glyph glyph-name="i" unicode="i" horiz-adv-x="170" 
d="M159 560c-20 0 -36 15 -36 34c0 26 24 42 44 42s35 -15 35 -33c0 -27 -24 -43 -43 -43zM56 0h-49l107 483h49z" />
    <glyph glyph-name="j" unicode="j" horiz-adv-x="170" 
d="M-58 -196c-29 0 -50 10 -60 36l33 29c3 -13 12 -21 26 -21c19 0 34 14 46 69l127 566h49l-127 -566c-19 -86 -47 -113 -94 -113zM159 560c-20 0 -36 15 -36 34c0 26 24 42 44 42s35 -15 35 -33c0 -27 -24 -43 -43 -43z" />
    <glyph glyph-name="k" unicode="k" horiz-adv-x="343" 
d="M269 0h-51l-50 233l-84 -105l-28 -128h-49l147 667h49l-103 -465l224 281h54l-173 -217z" />
    <glyph glyph-name="l" unicode="l" horiz-adv-x="170" 
d="M56 0h-49l147 667h49z" />
    <glyph glyph-name="l.alt1" horiz-adv-x="197" 
d="M90 -12c-44 0 -70 20 -70 63c0 10 1 21 5 34l129 582h49l-128 -577c-2 -9 -4 -19 -4 -27c0 -22 11 -31 30 -31c14 0 23 5 33 17l14 -37c-15 -14 -33 -24 -58 -24z" />
    <glyph glyph-name="m" unicode="m" horiz-adv-x="550" 
d="M435 0h-49l84 382c1 5 4 19 4 27c0 29 -12 42 -41 42c-39 0 -82 -45 -109 -89l-78 -362h-50l85 382c2 10 4 21 4 29c0 29 -14 40 -41 40c-40 0 -83 -45 -109 -89l-79 -362h-49l107 483h49l-15 -66c30 44 71 78 115 78c47 0 74 -28 74 -66c0 -5 0 -8 -1 -14
c33 47 72 80 117 80c47 0 73 -26 73 -69c0 -12 -2 -24 -4 -34z" />
    <glyph glyph-name="n" unicode="n" 
d="M246 0h-50l85 382c2 8 4 21 4 27c0 30 -14 42 -41 42c-40 0 -83 -45 -109 -89l-79 -362h-49l107 483h49l-15 -66c31 44 69 78 115 78s74 -25 74 -70c0 -6 -3 -26 -5 -33z" />
    <glyph glyph-name="o" unicode="o" horiz-adv-x="367" 
d="M140 -12c-67 0 -112 44 -112 148c0 137 66 359 198 359c67 0 112 -44 112 -148c0 -137 -66 -359 -198 -359zM143 32c91 0 144 214 144 314c0 80 -26 105 -64 105c-91 0 -144 -215 -144 -315c0 -80 26 -104 64 -104z" />
    <glyph glyph-name="p" unicode="p" horiz-adv-x="368" 
d="M155 -12c-35 0 -70 26 -84 85l-56 -257h-49l148 667h49l-15 -64c30 51 65 76 101 76c59 0 91 -51 91 -138c0 -116 -59 -369 -185 -369zM151 32c90 0 138 230 138 323c0 68 -20 96 -59 96c-35 0 -74 -44 -95 -90l-53 -237c4 -51 34 -92 69 -92z" />
    <glyph glyph-name="q" unicode="q" horiz-adv-x="368" 
d="M211 495c35 0 70 -26 84 -85l16 73h49l-148 -667h-49l56 248c-30 -51 -65 -76 -101 -76c-59 0 -92 51 -92 138c0 117 60 369 185 369zM216 451c-91 0 -138 -230 -138 -323c0 -68 20 -96 59 -96c34 0 73 44 94 90l53 237c-4 51 -33 92 -68 92z" />
    <glyph glyph-name="r" unicode="r" horiz-adv-x="239" 
d="M56 0h-49l107 483h49l-16 -71c31 52 68 81 132 81l-13 -53c-5 2 -15 3 -20 3c-46 0 -85 -38 -112 -90z" />
    <glyph glyph-name="s" unicode="s" horiz-adv-x="294" 
d="M101 -12c-51 0 -94 21 -115 65l33 31c16 -33 45 -55 85 -55c47 0 87 46 87 97c0 94 -126 123 -126 234c0 71 50 135 131 135c41 0 81 -21 102 -57l-32 -31c-13 31 -44 47 -73 47c-47 0 -79 -36 -79 -85c0 -85 126 -121 126 -233c0 -81 -58 -148 -139 -148z" />
    <glyph glyph-name="t" unicode="t" horiz-adv-x="223" 
d="M104 -12c-45 0 -70 20 -70 64c0 10 1 20 4 33l80 355h-51l10 43h50l29 132h49l-29 -132h68l-10 -43h-67l-78 -350c-3 -10 -4 -21 -4 -29c0 -20 10 -29 30 -29c13 0 24 6 33 16l14 -37c-14 -12 -32 -23 -58 -23z" />
    <glyph glyph-name="u" unicode="u" 
d="M114 483h49l-85 -382c-2 -9 -4 -21 -4 -27c0 -30 14 -42 41 -42c40 0 80 40 107 84l81 367h50l-107 -483h-50l15 66c-31 -44 -69 -78 -115 -78s-74 25 -74 70c0 6 3 26 5 33z" />
    <glyph glyph-name="v" unicode="v" horiz-adv-x="302" 
d="M124 0h-55l-3 483h51l-9 -423l180 423h55z" />
    <glyph glyph-name="w" unicode="w" horiz-adv-x="513" 
d="M339 0h-50l4 415l-177 -415h-51l5 483h50l-14 -411l175 411h52l-7 -411l169 411h54z" />
    <glyph glyph-name="x" unicode="x" horiz-adv-x="306" 
d="M236 0h-52l-38 204l-129 -204h-55l161 245l-48 238h51l34 -197l122 197h55l-155 -238z" />
    <glyph glyph-name="y" unicode="y" horiz-adv-x="302" 
d="M-64 -187l18 41c4 -4 17 -6 23 -6c21 0 33 13 50 49l41 87l-2 499h51l-8 -419l179 419h55l-273 -597c-30 -63 -57 -82 -93 -82c-18 0 -33 5 -41 9z" />
    <glyph glyph-name="y.alt1" 
d="M82 -196c-49 0 -98 22 -120 54l32 39c19 -32 55 -49 89 -49c54 0 87 38 106 121l23 103c-31 -45 -68 -80 -115 -80c-49 0 -74 27 -74 71c0 10 1 21 4 32l87 388h49l-85 -378c-2 -10 -3 -19 -3 -27c0 -26 12 -42 41 -42c40 0 81 41 107 85l80 362h50l-114 -510
c-25 -110 -70 -169 -157 -169z" />
    <glyph glyph-name="z" unicode="z" horiz-adv-x="289" 
d="M197 0h-213l8 41l242 399h-153l10 43h209l-9 -40l-241 -399h156z" />
    <glyph glyph-name="A.smcp" unicode="&#xf761;" horiz-adv-x="290" 
d="M183 550h58l-13 -550h-52l6 135h-121l-53 -135h-54zM185 181l13 299l-120 -299h107z" />
    <glyph glyph-name="B.smcp" unicode="&#xf762;" horiz-adv-x="320" 
d="M119 0h-112l121 550h74c69 0 117 -36 117 -106c0 -67 -32 -143 -99 -163c31 -16 48 -51 48 -92c0 -88 -49 -189 -149 -189zM68 46h53c60 0 93 77 93 144c0 44 -22 70 -60 70h-39zM173 306h2c55 0 87 74 87 131c0 48 -24 67 -72 67h-21l-45 -198h49z" />
    <glyph glyph-name="C.smcp" unicode="&#xf763;" horiz-adv-x="337" 
d="M145 -12c-68 0 -114 44 -114 159c0 112 59 415 212 415c60 0 97 -42 105 -104l-47 -12c-6 45 -27 70 -59 70c-105 0 -158 -274 -158 -368c0 -85 25 -114 64 -114c37 0 58 26 83 74l40 -20c-33 -60 -67 -100 -126 -100z" />
    <glyph glyph-name="D.smcp" unicode="&#xf764;" horiz-adv-x="369" 
d="M121 0h-114l121 550h72c86 0 148 -40 148 -168c0 -138 -66 -382 -227 -382zM122 46h7c107 0 165 222 165 336c0 91 -36 122 -101 122h-24l-101 -458h54z" />
    <glyph glyph-name="E.smcp" unicode="&#xf765;" horiz-adv-x="303" 
d="M209 0h-202l121 550h202l-10 -46h-151l-44 -198h144l-9 -46h-145l-47 -214h151z" />
    <glyph glyph-name="F.smcp" unicode="&#xf766;" horiz-adv-x="302" 
d="M58 0h-51l121 550h202l-10 -46h-151l-44 -198h144l-9 -46h-145z" />
    <glyph glyph-name="G.smcp" unicode="&#xf767;" horiz-adv-x="355" 
d="M149 -12c-81 0 -118 55 -118 157c0 134 68 417 210 417c66 0 98 -48 106 -104l-46 -12c-7 41 -23 70 -61 70c-100 0 -156 -267 -156 -371c0 -83 23 -111 67 -111c27 0 51 13 65 32l37 165h-77l11 45h124l-53 -235c-32 -35 -67 -53 -109 -53z" />
    <glyph glyph-name="G.smcp.alt1" horiz-adv-x="355" 
d="M144 -12c-75 0 -113 60 -113 150c0 133 68 424 211 424c63 0 96 -40 108 -101l-46 -14c-9 44 -29 69 -64 69c-106 0 -157 -300 -157 -378c0 -64 24 -104 65 -104c67 0 106 104 125 197h-97l11 44h146c-27 -143 -84 -287 -189 -287z" />
    <glyph glyph-name="H.smcp" unicode="&#xf768;" horiz-adv-x="370" 
d="M255 0h-52l57 260h-145l-57 -260h-51l121 550h51l-54 -244h145l54 244h52z" />
    <glyph glyph-name="I.smcp" unicode="&#xf769;" horiz-adv-x="173" 
d="M58 0h-51l121 550h51z" />
    <glyph glyph-name="J.smcp" unicode="&#xf76a;" horiz-adv-x="272" 
d="M58 -12c-44 0 -80 16 -99 49l32 35c11 -23 34 -38 63 -38c41 0 63 22 75 77l98 439h51l-98 -442c-19 -90 -62 -120 -122 -120z" />
    <glyph glyph-name="K.smcp" unicode="&#xf76b;" horiz-adv-x="349" 
d="M283 0h-59l-75 247l-51 -68l-40 -179h-51l121 550h51l-62 -284l215 284h61l-206 -262z" />
    <glyph glyph-name="L.smcp" unicode="&#xf76c;" horiz-adv-x="284" 
d="M209 0h-202l121 550h51l-111 -504h151z" />
    <glyph glyph-name="M.smcp" unicode="&#xf76d;" horiz-adv-x="469" 
d="M354 0h-50l98 447l-208 -447h-26l-12 447l-98 -447h-51l121 550h70l11 -416l195 416h71z" />
    <glyph glyph-name="N.smcp" unicode="&#xf76e;" horiz-adv-x="368" 
d="M253 0h-55l-45 426l-95 -426h-51l121 550h56l47 -418l91 418h52z" />
    <glyph glyph-name="O.smcp" unicode="&#xf76f;" horiz-adv-x="376" 
d="M145 -12c-71 0 -114 52 -114 156c0 89 50 418 212 418c71 0 114 -53 114 -156c0 -89 -50 -418 -212 -418zM146 34c114 0 157 308 157 372c0 76 -19 110 -61 110c-114 0 -158 -308 -158 -372c0 -76 20 -110 62 -110z" />
    <glyph glyph-name="P.smcp" unicode="&#xf770;" horiz-adv-x="310" 
d="M58 0h-51l121 550h79c68 0 115 -42 115 -121c0 -90 -53 -203 -159 -203h-55zM118 272h49c65 0 101 87 101 154c0 53 -27 78 -71 78h-28z" />
    <glyph glyph-name="Q.smcp" unicode="&#xf771;" horiz-adv-x="376" 
d="M145 -12c-71 0 -114 52 -114 156c0 89 50 418 212 418c71 0 114 -53 114 -156c0 -74 -34 -311 -137 -391l6 -40l-42 -8l-4 27c-11 -4 -23 -6 -35 -6zM146 34c9 0 18 2 26 6l-18 121l42 8l15 -97c66 85 92 284 92 334c0 76 -19 110 -61 110c-114 0 -158 -308 -158 -372
c0 -76 20 -110 62 -110z" />
    <glyph glyph-name="R.smcp" unicode="&#xf772;" horiz-adv-x="328" 
d="M238 0h-56l-28 226h-46l-50 -226h-51l121 550h85c67 0 110 -48 110 -122c0 -91 -52 -179 -120 -196zM154 272h14c67 0 101 93 101 153c0 54 -28 79 -64 79h-36l-51 -232h36z" />
    <glyph glyph-name="S.smcp" unicode="&#xf773;" horiz-adv-x="290" 
d="M97 -12c-49 0 -90 19 -117 60l36 35c17 -30 47 -49 79 -49c49 0 89 52 89 118c0 102 -109 139 -109 249c0 90 62 161 136 161c41 0 76 -15 99 -47l-33 -36c-17 25 -39 37 -65 37c-43 0 -82 -48 -82 -104c0 -92 109 -131 109 -259c0 -83 -61 -165 -142 -165z" />
    <glyph glyph-name="T.smcp" unicode="&#xf774;" horiz-adv-x="256" 
d="M99 0h-51l111 504h-87l10 46h226l-10 -46h-88z" />
    <glyph glyph-name="U.smcp" unicode="&#xf775;" horiz-adv-x="370" 
d="M147 -12c-80 0 -114 38 -114 102c0 27 4 50 8 69l87 391h51l-90 -408c-3 -17 -5 -31 -5 -39c0 -54 27 -69 64 -69c46 0 71 37 88 116l89 400h51l-86 -388c-24 -106 -57 -174 -143 -174z" />
    <glyph glyph-name="V.smcp" unicode="&#xf776;" horiz-adv-x="290" 
d="M120 0h-58l13 550h52l-20 -473l188 473h54z" />
    <glyph glyph-name="W.smcp" unicode="&#xf777;" horiz-adv-x="454" 
d="M297 0h-55l28 439l-166 -439h-55l27 550h54l-30 -449l171 449h46l-27 -449l169 449h53z" />
    <glyph glyph-name="X.smcp" unicode="&#xf778;" horiz-adv-x="297" 
d="M239 0h-56l-37 230l-137 -230h-59l175 279l-48 271h57l33 -220l128 220h59l-167 -270z" />
    <glyph glyph-name="Y.smcp" unicode="&#xf779;" horiz-adv-x="306" 
d="M125 0h-52l52 236l-57 314h54l40 -258l155 258h55l-196 -314z" />
    <glyph glyph-name="Z.smcp" unicode="&#xf77a;" horiz-adv-x="279" 
d="M197 0h-223l9 42l262 462h-160l10 46h217l-9 -41l-262 -463h166z" />
    <glyph glyph-name="Aacute" unicode="&#xc1;" horiz-adv-x="338" 
d="M275 0h-54l7 166h-151l-65 -166h-57l276 667h62zM231 215l17 383l-152 -383h135zM406 867l-130 -144h-37l110 144h57z" />
    <glyph glyph-name="Abreve" unicode="&#x102;" horiz-adv-x="338" 
d="M275 0h-54l7 166h-151l-65 -166h-57l276 667h62zM231 215l17 383l-152 -383h135zM401 782c-35 -37 -83 -59 -130 -59c-48 0 -86 22 -105 59l32 23c12 -28 45 -46 78 -46c34 0 74 18 97 46z" />
    <glyph glyph-name="Acircumflex" unicode="&#xc2;" horiz-adv-x="338" 
d="M368 723h-30l-40 111l-84 -111h-34l99 144h51zM275 0h-54l7 166h-151l-65 -166h-57l276 667h62zM231 215l17 383l-152 -383h135z" />
    <glyph glyph-name="Adieresis" unicode="&#xc4;" horiz-adv-x="338" 
d="M385 771c0 -21 -18 -39 -40 -39c-18 0 -32 14 -32 32c0 21 19 39 40 39c18 0 32 -13 32 -32zM254 771c0 -21 -19 -39 -40 -39c-18 0 -32 14 -32 32c0 21 19 39 40 39c18 0 32 -13 32 -32zM275 0h-54l7 166h-151l-65 -166h-57l276 667h62zM231 215l17 383l-152 -383h135z
" />
    <glyph glyph-name="Agrave" unicode="&#xc0;" horiz-adv-x="338" 
d="M275 0h-54l7 166h-151l-65 -166h-57l276 667h62zM231 215l17 383l-152 -383h135zM309 723h-36l-65 144h54z" />
    <glyph glyph-name="Amacron" unicode="&#x100;" horiz-adv-x="338" 
d="M275 0h-54l7 166h-151l-65 -166h-57l276 667h62zM231 215l17 383l-152 -383h135zM402 744h-244l8 36h243z" />
    <glyph glyph-name="Aogonek" unicode="&#x104;" horiz-adv-x="338" 
d="M246 -119l26 -18c-14 -29 -37 -49 -70 -49c-36 0 -57 19 -57 56c0 36 17 84 78 130h-2l7 166h-151l-65 -166h-57l276 667h62l-18 -667c-48 -29 -96 -69 -96 -127c0 -17 11 -27 27 -27c20 0 33 15 40 35zM231 215l17 383l-152 -383h135z" />
    <glyph glyph-name="Aring" unicode="&#xc5;" horiz-adv-x="338" 
d="M275 0h-54l7 166h-151l-65 -166h-57l276 667h62zM231 215l17 383l-152 -383h135zM277 692c-43 0 -72 32 -72 74c0 47 43 89 89 89c43 0 72 -31 72 -74c0 -47 -42 -89 -89 -89zM279 722c31 0 57 26 57 57c0 26 -18 46 -43 46c-31 0 -58 -26 -58 -57c0 -25 18 -46 44 -46z
" />
    <glyph glyph-name="Atilde" unicode="&#xc3;" horiz-adv-x="338" 
d="M275 0h-54l7 166h-151l-65 -166h-57l276 667h62zM231 215l17 383l-152 -383h135zM318 721c-62 0 -24 104 -65 104c-20 0 -38 -29 -53 -98h-31c16 73 41 134 91 134c63 0 26 -104 66 -104c20 0 38 29 53 98h32c-16 -72 -43 -134 -93 -134z" />
    <glyph glyph-name="uni1EA0" unicode="&#x1ea0;" horiz-adv-x="338" 
d="M275 0h-54l7 166h-151l-65 -166h-57l276 667h62zM231 215l17 383l-152 -383h135zM120 -137c0 -22 -19 -40 -41 -40c-19 0 -33 14 -33 32c0 22 19 41 41 41c19 0 33 -14 33 -33z" />
    <glyph glyph-name="uni1EA2" unicode="&#x1ea2;" horiz-adv-x="338" 
d="M275 0h-54l7 166h-151l-65 -166h-57l276 667h62zM231 215l17 383l-152 -383h135zM255 769l-24 10c11 22 28 41 57 41c30 0 46 -18 46 -45c0 -32 -17 -59 -38 -78h-31c24 21 40 46 40 73c1 13 -6 24 -20 24s-23 -9 -30 -25z" />
    <glyph glyph-name="uni1EA4" unicode="&#x1ea4;" horiz-adv-x="338" 
d="M353 682h-30l-40 83l-84 -83h-34l99 108h51zM275 0h-54l7 166h-151l-65 -166h-57l276 667h62zM231 215l17 383l-152 -383h135zM506 843l-130 -108h-37l110 108h57z" />
    <glyph glyph-name="uni1EAC" unicode="&#x1eac;" horiz-adv-x="338" 
d="M275 0h-54l7 166h-151l-65 -166h-57l276 667h62zM231 215l17 383l-152 -383h135zM368 723h-30l-40 111l-84 -111h-34l99 144h51zM122 -137c0 -22 -19 -40 -41 -40c-19 0 -33 14 -33 32c0 22 19 41 41 41c19 0 33 -14 33 -33z" />
    <glyph glyph-name="uni1EA6" unicode="&#x1ea6;" horiz-adv-x="338" 
d="M353 682h-30l-40 83l-84 -83h-34l99 108h51zM275 0h-54l7 166h-151l-65 -166h-57l276 667h62zM231 215l17 383l-152 -383h135zM203 735h-36l-65 108h54z" />
    <glyph glyph-name="uni1EA8" unicode="&#x1ea8;" horiz-adv-x="338" 
d="M353 682h-30l-40 83l-84 -83h-34l99 108h51zM275 0h-54l7 166h-151l-65 -166h-57l276 667h62zM231 215l17 383l-152 -383h135zM332 810l-24 8c11 16 28 30 57 30c30 0 46 -13 46 -33c0 -24 -17 -45 -38 -59h-31c24 16 40 35 40 55c1 10 -6 18 -20 18s-23 -7 -30 -19z" />
    <glyph glyph-name="uni1EAE" unicode="&#x1eae;" horiz-adv-x="338" 
d="M275 0h-54l7 166h-151l-65 -166h-57l276 667h62zM231 215l17 383l-152 -383h135zM398 841l-130 -104h-37l110 104h57zM390 737c-35 -35 -83 -55 -130 -55c-48 0 -86 20 -105 55l32 21c12 -26 45 -43 78 -43c34 0 74 17 97 43z" />
    <glyph glyph-name="uni1EAA" unicode="&#x1eaa;" horiz-adv-x="338" 
d="M347 677h-30l-40 55l-84 -55h-34l99 72h51zM275 0h-54l7 166h-151l-65 -166h-57l276 667h62zM231 215l17 383l-152 -383h135zM319 757c-62 0 -24 52 -65 52c-20 0 -38 -15 -53 -49h-31c16 36 41 67 91 67c63 0 26 -52 66 -52c20 0 38 14 53 49h32
c-16 -36 -43 -67 -93 -67z" />
    <glyph glyph-name="uni1EB0" unicode="&#x1eb0;" horiz-adv-x="338" 
d="M275 0h-54l7 166h-151l-65 -166h-57l276 667h62zM231 215l17 383l-152 -383h135zM314 737h-36l-65 104h54zM390 737c-35 -35 -83 -55 -130 -55c-48 0 -86 20 -105 55l32 21c12 -26 45 -43 78 -43c34 0 74 17 97 43z" />
    <glyph glyph-name="uni1EB2" unicode="&#x1eb2;" horiz-adv-x="338" 
d="M275 0h-54l7 166h-151l-65 -166h-57l276 667h62zM231 215l17 383l-152 -383h135zM263 794l-24 7c11 16 28 29 57 29c30 0 46 -13 46 -32c0 -23 -17 -42 -38 -56h-31c24 15 40 33 40 52c1 10 -6 18 -20 18s-23 -7 -30 -18zM390 737c-35 -35 -83 -55 -130 -55
c-48 0 -86 20 -105 55l32 21c12 -26 45 -43 78 -43c34 0 74 17 97 43z" />
    <glyph glyph-name="uni1EB4" unicode="&#x1eb4;" horiz-adv-x="338" 
d="M275 0h-54l7 166h-151l-65 -166h-57l276 667h62zM231 215l17 383l-152 -383h135zM390 726c-35 -27 -83 -43 -130 -43c-48 0 -86 16 -105 43l32 16c12 -20 45 -33 78 -33c34 0 74 13 97 33zM319 757c-62 0 -24 52 -65 52c-20 0 -38 -15 -53 -49h-31c16 36 41 67 91 67
c63 0 26 -52 66 -52c20 0 38 14 53 49h32c-16 -36 -43 -67 -93 -67z" />
    <glyph glyph-name="uni1EB6" unicode="&#x1eb6;" horiz-adv-x="338" 
d="M275 0h-54l7 166h-151l-65 -166h-57l276 667h62zM231 215l17 383l-152 -383h135zM122 -137c0 -22 -19 -40 -41 -40c-19 0 -33 14 -33 32c0 22 19 41 41 41c19 0 33 -14 33 -33zM400 782c-35 -37 -83 -59 -130 -59c-48 0 -86 22 -105 59l32 23c12 -28 45 -46 78 -46
c34 0 74 18 97 46z" />
    <glyph glyph-name="AE" unicode="&#xc6;" horiz-adv-x="532" 
d="M430 0h-229l36 166h-129l-86 -166h-58l361 667h252l-11 -49h-175l-56 -252h169l-11 -48h-169l-59 -269h175zM248 215l84 377l-199 -377h115z" />
    <glyph glyph-name="AEacute" unicode="&#x1fc;" horiz-adv-x="532" 
d="M520 867l-130 -144h-37l110 144h57zM430 0h-229l36 166h-129l-86 -166h-58l361 667h252l-11 -49h-175l-56 -252h169l-11 -48h-169l-59 -269h175zM248 215l84 377l-199 -377h115z" />
    <glyph glyph-name="uni1E02" unicode="&#x1e02;" horiz-adv-x="381" 
d="M150 0h-136l147 667h96c79 0 125 -53 125 -130c0 -88 -43 -181 -121 -199c45 -14 61 -70 61 -114c0 -108 -60 -224 -172 -224zM148 366h68c76 0 109 103 109 165c0 59 -32 87 -81 87h-40zM149 49c70 0 117 89 117 177c0 65 -30 92 -84 92h-45l-60 -269h72zM344 769
c0 -22 -19 -40 -41 -40c-19 0 -33 14 -33 32c0 22 19 41 41 41c19 0 33 -14 33 -33z" />
    <glyph glyph-name="Cacute" unicode="&#x106;" horiz-adv-x="374" 
d="M445 872l-130 -144h-37l110 144h57zM163 -12c-73 0 -120 56 -120 180c0 143 71 510 246 510c74 0 108 -60 116 -139l-51 -9c-6 65 -27 99 -70 99c-122 0 -184 -346 -184 -465c0 -91 22 -127 68 -127c37 0 66 32 97 86l44 -22c-41 -73 -87 -113 -146 -113z" />
    <glyph glyph-name="Ccedilla" unicode="&#xc7;" horiz-adv-x="374" 
d="M117 -189c-32 0 -57 11 -77 36l22 29c14 -22 34 -32 57 -32c31 0 54 25 54 54c0 17 -10 28 -27 28c-12 0 -20 -5 -29 -14l-23 15l38 65c-55 14 -89 70 -89 176c0 143 71 510 246 510c74 0 108 -60 116 -139l-51 -9c-6 65 -27 99 -70 99c-122 0 -184 -346 -184 -465
c0 -91 22 -127 68 -127c37 0 66 32 97 86l44 -22c-41 -72 -86 -111 -143 -113l-28 -46c7 7 17 10 24 10c28 0 47 -23 47 -53c0 -49 -42 -88 -92 -88z" />
    <glyph glyph-name="Ccircumflex" unicode="&#x108;" horiz-adv-x="374" 
d="M407 723h-30l-40 111l-84 -111h-34l99 144h51zM163 -12c-73 0 -120 56 -120 180c0 143 71 510 246 510c74 0 108 -60 116 -139l-51 -9c-6 65 -27 99 -70 99c-122 0 -184 -346 -184 -465c0 -91 22 -127 68 -127c37 0 66 32 97 86l44 -22c-41 -73 -87 -113 -146 -113z" />
    <glyph glyph-name="Cdotaccent" unicode="&#x10a;" horiz-adv-x="374" 
d="M163 -12c-73 0 -120 56 -120 180c0 143 71 510 246 510c74 0 108 -60 116 -139l-51 -9c-6 65 -27 99 -70 99c-122 0 -184 -346 -184 -465c0 -91 22 -127 68 -127c37 0 66 32 97 86l44 -22c-41 -73 -87 -113 -146 -113zM358 769c0 -22 -19 -40 -41 -40
c-19 0 -33 14 -33 32c0 22 19 41 41 41c19 0 33 -14 33 -33z" />
    <glyph glyph-name="Ccaron" unicode="&#x10c;" horiz-adv-x="374" 
d="M341 723h-51l-38 144h30l39 -111l85 111h34zM163 -12c-73 0 -120 56 -120 180c0 143 71 510 246 510c74 0 108 -60 116 -139l-51 -9c-6 65 -27 99 -70 99c-122 0 -184 -346 -184 -465c0 -91 22 -127 68 -127c37 0 66 32 97 86l44 -22c-41 -73 -87 -113 -146 -113z" />
    <glyph glyph-name="Dcaron" unicode="&#x10e;" horiz-adv-x="407" 
d="M345 723h-51l-38 144h30l39 -111l85 111h34zM124 0h-110l147 667h107c62 0 128 -52 128 -192c0 -96 -54 -475 -272 -475zM77 49h56c155 0 207 344 207 425c0 104 -39 144 -82 144h-54z" />
    <glyph glyph-name="Dcroat" unicode="&#x110;" horiz-adv-x="424" 
d="M142 0h-110l68 311h-62l10 46h62l69 310h107c62 0 128 -52 128 -192c0 -96 -54 -475 -272 -475zM244 311h-91l-58 -262h56c155 0 207 344 207 425c0 104 -39 144 -82 144h-54l-59 -261h91z" />
    <glyph glyph-name="uni1E0A" unicode="&#x1e0a;" horiz-adv-x="407" 
d="M124 0h-110l147 667h107c62 0 128 -52 128 -192c0 -96 -54 -475 -272 -475zM77 49h56c155 0 207 344 207 425c0 104 -39 144 -82 144h-54zM363 769c0 -22 -19 -40 -41 -40c-19 0 -33 14 -33 32c0 22 19 41 41 41c19 0 33 -14 33 -33z" />
    <glyph glyph-name="Eacute" unicode="&#xc9;" horiz-adv-x="341" 
d="M418 867l-130 -144h-37l110 144h57zM242 0h-228l147 667h228l-10 -49h-175l-56 -252h168l-11 -48h-168l-60 -269h176z" />
    <glyph glyph-name="Ebreve" unicode="&#x114;" horiz-adv-x="341" 
d="M242 0h-228l147 667h228l-10 -49h-175l-56 -252h168l-11 -48h-168l-60 -269h176zM413 782c-35 -37 -83 -59 -130 -59c-48 0 -86 22 -105 59l32 23c12 -28 45 -46 78 -46c34 0 74 18 97 46z" />
    <glyph glyph-name="Ecircumflex" unicode="&#xca;" horiz-adv-x="341" 
d="M382 723h-30l-40 111l-84 -111h-34l99 144h51zM242 0h-228l147 667h228l-10 -49h-175l-56 -252h168l-11 -48h-168l-60 -269h176z" />
    <glyph glyph-name="Edieresis" unicode="&#xcb;" horiz-adv-x="341" 
d="M398 771c0 -21 -18 -39 -40 -39c-18 0 -32 14 -32 32c0 21 19 39 40 39c18 0 32 -13 32 -32zM267 771c0 -21 -19 -39 -40 -39c-18 0 -32 14 -32 32c0 21 19 39 40 39c18 0 32 -13 32 -32zM242 0h-228l147 667h228l-10 -49h-175l-56 -252h168l-11 -48h-168l-60 -269h176z
" />
    <glyph glyph-name="Edotaccent" unicode="&#x116;" horiz-adv-x="341" 
d="M242 0h-228l147 667h228l-10 -49h-175l-56 -252h168l-11 -48h-168l-60 -269h176zM334 770c0 -22 -19 -40 -41 -40c-19 0 -33 14 -33 32c0 22 19 41 41 41c19 0 33 -14 33 -33z" />
    <glyph glyph-name="Egrave" unicode="&#xc8;" horiz-adv-x="341" 
d="M242 0h-228l147 667h228l-10 -49h-175l-56 -252h168l-11 -48h-168l-60 -269h176zM320 723h-36l-65 144h54z" />
    <glyph glyph-name="Emacron" unicode="&#x112;" horiz-adv-x="341" 
d="M242 0h-228l147 667h228l-10 -49h-175l-56 -252h168l-11 -48h-168l-60 -269h176zM414 744h-244l8 36h243z" />
    <glyph glyph-name="Eogonek" unicode="&#x118;" horiz-adv-x="341" 
d="M242 0c-48 -29 -96 -69 -96 -127c0 -17 11 -27 27 -27c20 0 33 15 40 35l26 -18c-14 -29 -37 -49 -70 -49c-36 0 -57 19 -57 56c0 36 17 84 78 130h-176l147 667h228l-10 -49h-175l-56 -252h168l-11 -48h-168l-60 -269h176z" />
    <glyph glyph-name="Ecaron" unicode="&#x11a;" horiz-adv-x="341" 
d="M315 723h-51l-38 144h30l39 -111l85 111h34zM242 0h-228l147 667h228l-10 -49h-175l-56 -252h168l-11 -48h-168l-60 -269h176z" />
    <glyph glyph-name="uni1EB8" unicode="&#x1eb8;" horiz-adv-x="341" 
d="M242 0h-228l147 667h228l-10 -49h-175l-56 -252h168l-11 -48h-168l-60 -269h176zM133 -137c0 -22 -19 -40 -41 -40c-19 0 -33 14 -33 32c0 22 19 41 41 41c19 0 33 -14 33 -33z" />
    <glyph glyph-name="uni1EBA" unicode="&#x1eba;" horiz-adv-x="341" 
d="M242 0h-228l147 667h228l-10 -49h-175l-56 -252h168l-11 -48h-168l-60 -269h176zM268 769l-24 10c11 22 28 41 57 41c30 0 46 -18 46 -45c0 -32 -17 -59 -38 -78h-31c24 21 40 46 40 73c1 13 -6 24 -20 24s-23 -9 -30 -25z" />
    <glyph glyph-name="uni1EBC" unicode="&#x1ebc;" horiz-adv-x="341" 
d="M242 0h-228l147 667h228l-10 -49h-175l-56 -252h168l-11 -48h-168l-60 -269h176zM331 721c-62 0 -24 104 -65 104c-20 0 -38 -29 -53 -98h-31c16 73 41 134 91 134c63 0 26 -104 66 -104c20 0 38 29 53 98h32c-16 -72 -43 -134 -93 -134z" />
    <glyph glyph-name="uni1EBE" unicode="&#x1ebe;" horiz-adv-x="341" 
d="M367 682h-30l-40 83l-84 -83h-34l99 108h51zM520 843l-130 -108h-37l110 108h57zM242 0h-228l147 667h228l-10 -49h-175l-56 -252h168l-11 -48h-168l-60 -269h176z" />
    <glyph glyph-name="uni1EC0" unicode="&#x1ec0;" horiz-adv-x="341" 
d="M367 682h-30l-40 83l-84 -83h-34l99 108h51zM242 0h-228l147 667h228l-10 -49h-175l-56 -252h168l-11 -48h-168l-60 -269h176zM217 735h-36l-65 108h54z" />
    <glyph glyph-name="uni1EC2" unicode="&#x1ec2;" horiz-adv-x="341" 
d="M366 682h-30l-40 83l-84 -83h-34l99 108h51zM242 0h-228l147 667h228l-10 -49h-175l-56 -252h168l-11 -48h-168l-60 -269h176zM345 810l-24 8c11 16 28 30 57 30c30 0 46 -13 46 -33c0 -24 -17 -45 -38 -59h-31c24 16 40 35 40 55c1 10 -6 18 -20 18s-23 -7 -30 -19z" />
    <glyph glyph-name="uni1EC4" unicode="&#x1ec4;" horiz-adv-x="341" 
d="M359 678h-30l-40 55l-84 -55h-34l99 72h51zM242 0h-228l147 667h228l-10 -49h-175l-56 -252h168l-11 -48h-168l-60 -269h176zM331 757c-62 0 -24 52 -65 52c-20 0 -38 -15 -53 -49h-31c16 36 41 67 91 67c63 0 26 -52 66 -52c20 0 38 14 53 49h32
c-16 -36 -43 -67 -93 -67z" />
    <glyph glyph-name="uni1EC6" unicode="&#x1ec6;" horiz-adv-x="341" 
d="M382 723h-30l-40 111l-84 -111h-34l99 144h51zM242 0h-228l147 667h228l-10 -49h-175l-56 -252h168l-11 -48h-168l-60 -269h176zM133 -137c0 -22 -19 -40 -41 -40c-19 0 -33 14 -33 32c0 22 19 41 41 41c19 0 33 -14 33 -33z" />
    <glyph glyph-name="uni1E1E" unicode="&#x1e1e;" horiz-adv-x="341" 
d="M333 769c0 -22 -19 -40 -41 -40c-19 0 -33 14 -33 32c0 22 19 41 41 41c19 0 33 -14 33 -33zM67 0h-53l147 667h228l-10 -49h-175l-56 -252h168l-11 -48h-168z" />
    <glyph glyph-name="Gcircumflex" unicode="&#x11c;" horiz-adv-x="393" 
d="M407 723h-30l-40 111l-84 -111h-34l99 144h51zM163 -12c-72 0 -120 52 -120 180c0 153 75 510 246 510c82 0 109 -71 115 -135l-49 -10c-5 52 -20 96 -71 96c-118 0 -184 -332 -184 -465c0 -95 22 -127 68 -127c35 0 59 27 84 62l40 183h-95l10 49h146l-56 -251
c-36 -56 -78 -92 -134 -92z" />
    <glyph glyph-name="Gbreve" unicode="&#x11e;" horiz-adv-x="393" 
d="M163 -12c-72 0 -120 52 -120 180c0 153 75 510 246 510c82 0 109 -71 115 -135l-49 -10c-5 52 -20 96 -71 96c-118 0 -184 -332 -184 -465c0 -95 22 -127 68 -127c35 0 59 27 84 62l40 183h-95l10 49h146l-56 -251c-36 -56 -78 -92 -134 -92zM440 782
c-35 -37 -83 -59 -130 -59c-48 0 -86 22 -105 59l32 23c12 -28 45 -46 78 -46c34 0 74 18 97 46z" />
    <glyph glyph-name="Gdotaccent" unicode="&#x120;" horiz-adv-x="393" 
d="M163 -12c-72 0 -120 52 -120 180c0 153 75 510 246 510c82 0 109 -71 115 -135l-49 -10c-5 52 -20 96 -71 96c-118 0 -184 -332 -184 -465c0 -95 22 -127 68 -127c35 0 59 27 84 62l40 183h-95l10 49h146l-56 -251c-36 -56 -78 -92 -134 -92zM358 769
c0 -22 -19 -40 -41 -40c-19 0 -33 14 -33 32c0 22 19 41 41 41c19 0 33 -14 33 -33z" />
    <glyph glyph-name="Gcommaaccent" unicode="&#x122;" horiz-adv-x="393" 
d="M166 -122c0 -53 -46 -110 -95 -136l-21 24c36 18 65 51 74 81h-7c-16 0 -30 14 -30 32c0 23 19 42 41 42s38 -14 38 -43zM163 -12c-72 0 -120 52 -120 180c0 153 75 510 246 510c82 0 109 -71 115 -135l-49 -10c-5 52 -20 96 -71 96c-118 0 -184 -332 -184 -465
c0 -95 22 -127 68 -127c35 0 59 27 84 62l40 183h-95l10 49h146l-56 -251c-36 -56 -78 -92 -134 -92z" />
    <glyph glyph-name="Gbreve.alt1" horiz-adv-x="393" 
d="M440 782c-35 -37 -83 -59 -130 -59c-48 0 -86 22 -105 59l32 23c12 -28 45 -46 78 -46c34 0 74 18 97 46zM153 -12c-66 0 -110 55 -110 180c0 129 67 510 258 510c65 0 98 -67 103 -135l-49 -10c-4 53 -23 96 -63 96c-129 0 -192 -346 -192 -465c0 -81 17 -127 62 -127
c69 0 117 118 146 245h-111l10 49h167c-47 -221 -111 -343 -221 -343z" />
    <glyph glyph-name="Gcommaaccent.alt1" horiz-adv-x="393" 
d="M167 -122c0 -53 -46 -110 -95 -136l-21 24c36 18 65 51 74 81h-7c-16 0 -30 14 -30 32c0 23 19 42 41 42s38 -14 38 -43zM153 -12c-66 0 -110 55 -110 180c0 129 67 510 258 510c65 0 98 -67 103 -135l-49 -10c-4 53 -23 96 -63 96c-129 0 -192 -346 -192 -465
c0 -81 17 -127 62 -127c69 0 117 118 146 245h-111l10 49h167c-47 -221 -111 -343 -221 -343z" />
    <glyph glyph-name="Gcircumflex.alt1" horiz-adv-x="393" 
d="M407 723h-30l-40 111l-84 -111h-34l99 144h51zM153 -12c-66 0 -110 55 -110 180c0 129 67 510 258 510c65 0 98 -67 103 -135l-49 -10c-4 53 -23 96 -63 96c-129 0 -192 -346 -192 -465c0 -81 17 -127 62 -127c69 0 117 118 146 245h-111l10 49h167
c-47 -221 -111 -343 -221 -343z" />
    <glyph glyph-name="Gdotaccent.alt1" horiz-adv-x="393" 
d="M359 769c0 -22 -19 -40 -41 -40c-19 0 -33 14 -33 32c0 22 19 41 41 41c19 0 33 -14 33 -33zM153 -12c-66 0 -110 55 -110 180c0 129 67 510 258 510c65 0 98 -67 103 -135l-49 -10c-4 53 -23 96 -63 96c-129 0 -192 -346 -192 -465c0 -81 17 -127 62 -127
c69 0 117 118 146 245h-111l10 49h167c-47 -221 -111 -343 -221 -343z" />
    <glyph glyph-name="Hbar" unicode="&#x126;" horiz-adv-x="462" 
d="M318 0h-54l71 319h-174l-70 -319h-53l110 501h-67l8 36h67l29 130h53l-29 -130h173l29 130h54l-29 -130h65l-8 -36h-65zM172 367h173l29 134h-173z" />
    <glyph glyph-name="Hcircumflex" unicode="&#x124;" horiz-adv-x="415" 
d="M408 723h-30l-40 111l-84 -111h-34l99 144h51zM294 0h-54l71 319h-174l-70 -319h-53l147 667h53l-66 -300h173l66 300h54z" />
    <glyph glyph-name="uni1E22" unicode="&#x1e22;" horiz-adv-x="415" 
d="M294 0h-54l71 319h-174l-70 -319h-53l147 667h53l-66 -300h173l66 300h54zM359 769c0 -22 -19 -40 -41 -40c-19 0 -33 14 -33 32c0 22 19 41 41 41c19 0 33 -14 33 -33z" />
    <glyph glyph-name="Iacute" unicode="&#xcd;" horiz-adv-x="189" 
d="M67 0h-53l147 667h53zM331 867l-130 -144h-37l110 144h57z" />
    <glyph glyph-name="Ibreve" unicode="&#x12c;" horiz-adv-x="189" 
d="M67 0h-53l147 667h53zM327 782c-35 -37 -83 -59 -130 -59c-48 0 -86 22 -105 59l32 23c12 -28 45 -46 78 -46c34 0 74 18 97 46z" />
    <glyph glyph-name="Icircumflex" unicode="&#xce;" horiz-adv-x="189" 
d="M295 723h-30l-40 111l-84 -111h-34l99 144h51zM67 0h-53l147 667h53z" />
    <glyph glyph-name="Idieresis" unicode="&#xcf;" horiz-adv-x="189" 
d="M312 771c0 -21 -18 -39 -40 -39c-18 0 -32 14 -32 32c0 21 19 39 40 39c18 0 32 -13 32 -32zM181 771c0 -21 -19 -39 -40 -39c-18 0 -32 14 -32 32c0 21 19 39 40 39c18 0 32 -13 32 -32zM67 0h-53l147 667h53z" />
    <glyph glyph-name="Idotaccent" unicode="&#x130;" horiz-adv-x="189" 
d="M67 0h-53l147 667h53zM247 769c0 -22 -19 -40 -41 -40c-19 0 -33 14 -33 32c0 22 19 41 41 41c19 0 33 -14 33 -33z" />
    <glyph glyph-name="Igrave" unicode="&#xcc;" horiz-adv-x="189" 
d="M67 0h-53l147 667h53zM234 723h-36l-65 144h54z" />
    <glyph glyph-name="Imacron" unicode="&#x12a;" horiz-adv-x="189" 
d="M67 0h-53l147 667h53zM327 744h-244l8 36h243z" />
    <glyph glyph-name="Iogonek" unicode="&#x12e;" horiz-adv-x="189" 
d="M38 -119l26 -18c-14 -29 -37 -49 -70 -49c-36 0 -57 19 -57 56c0 36 18 84 78 130h-1l147 667h53l-147 -667c-48 -29 -96 -69 -96 -127c0 -17 11 -27 27 -27c20 0 33 15 40 35z" />
    <glyph glyph-name="Itilde" unicode="&#x128;" horiz-adv-x="189" 
d="M67 0h-53l147 667h53zM244 721c-62 0 -24 104 -65 104c-20 0 -38 -29 -53 -98h-31c16 73 41 134 91 134c63 0 26 -104 66 -104c20 0 38 29 53 98h32c-16 -72 -43 -134 -93 -134z" />
    <glyph glyph-name="uni1EC8" unicode="&#x1ec8;" horiz-adv-x="189" 
d="M67 0h-53l147 667h53zM181 769l-24 10c11 22 28 41 57 41c30 0 46 -18 46 -45c0 -32 -17 -59 -38 -78h-31c24 21 40 46 40 73c1 13 -6 24 -20 24s-23 -9 -30 -25z" />
    <glyph glyph-name="uni1ECA" unicode="&#x1eca;" horiz-adv-x="189" 
d="M67 0h-53l147 667h53zM47 -137c0 -22 -19 -40 -41 -40c-19 0 -33 14 -33 32c0 22 19 41 41 41c19 0 33 -14 33 -33z" />
    <glyph glyph-name="IJ" unicode="&#x132;" horiz-adv-x="498" 
d="M67 0h-53l147 667h53zM261 -12c-45 0 -85 17 -108 54l31 38c17 -30 48 -43 74 -43c52 0 80 27 94 96l119 534h54l-119 -535c-22 -101 -66 -144 -145 -144z" />
    <glyph glyph-name="Jcircumflex" unicode="&#x134;" horiz-adv-x="310" 
d="M416 723h-30l-40 111l-84 -111h-34l99 144h51zM72 -12c-45 0 -85 17 -108 54l31 38c17 -30 48 -43 74 -43c52 0 80 27 94 96l119 534h54l-119 -535c-22 -101 -66 -144 -145 -144z" />
    <glyph glyph-name="Kcommaaccent" unicode="&#x136;" horiz-adv-x="395" 
d="M176 -122c0 -53 -46 -110 -95 -136l-21 24c36 18 65 51 74 81h-7c-16 0 -30 14 -30 32c0 23 19 42 41 42s38 -14 38 -43zM326 0h-58l-87 306l-66 -89l-48 -217h-53l147 667h53l-78 -353l259 353h65l-241 -318z" />
    <glyph glyph-name="Lacute" unicode="&#x139;" horiz-adv-x="320" 
d="M422 867l-130 -144h-37l110 144h57zM242 0h-228l147 667h53l-137 -618h176z" />
    <glyph glyph-name="Lcaron" unicode="&#x13d;" horiz-adv-x="320" 
d="M344 636c0 -53 -46 -110 -95 -136l-21 24c36 18 65 51 74 81h-7c-16 0 -30 14 -30 32c0 23 19 42 41 42s38 -14 38 -43zM242 0h-228l147 667h53l-137 -618h176z" />
    <glyph glyph-name="Lcommaaccent" unicode="&#x13b;" horiz-adv-x="320" 
d="M149 -122c0 -53 -46 -110 -95 -136l-21 24c36 18 65 51 74 81h-7c-16 0 -30 14 -30 32c0 23 19 42 41 42s38 -14 38 -43zM242 0h-228l147 667h53l-137 -618h176z" />
    <glyph glyph-name="Ldot" unicode="&#x13f;" horiz-adv-x="334" 
d="M242 0h-228l147 667h53l-137 -618h176zM278 299c-22 0 -39 17 -39 39c0 26 21 46 46 46c22 0 39 -18 39 -39c0 -26 -21 -46 -46 -46z" />
    <glyph glyph-name="Lslash" unicode="&#x141;" horiz-adv-x="334" 
d="M27 260l11 50l67 34l71 323h53l-65 -292l70 36l-12 -51l-69 -35l-61 -276h176l-11 -49h-228l65 294z" />
    <glyph glyph-name="Nacute" unicode="&#x143;" horiz-adv-x="415" 
d="M446 867l-130 -144h-37l110 144h57zM294 0h-52l-58 528l-117 -528h-53l147 667h53l58 -519l115 519h54z" />
    <glyph glyph-name="Ncaron" unicode="&#x147;" horiz-adv-x="415" 
d="M342 723h-51l-38 144h30l39 -111l85 111h34zM294 0h-52l-58 528l-117 -528h-53l147 667h53l58 -519l115 519h54z" />
    <glyph glyph-name="Ncommaaccent" unicode="&#x145;" horiz-adv-x="415" 
d="M170 -122c0 -53 -46 -110 -95 -136l-21 24c36 18 65 51 74 81h-7c-16 0 -30 14 -30 32c0 23 19 42 41 42s38 -14 38 -43zM294 0h-52l-58 528l-117 -528h-53l147 667h53l58 -519l115 519h54z" />
    <glyph glyph-name="Ntilde" unicode="&#xd1;" horiz-adv-x="415" 
d="M358 721c-62 0 -24 104 -65 104c-20 0 -38 -29 -53 -98h-31c16 73 41 134 91 134c63 0 26 -104 66 -104c20 0 38 29 53 98h32c-16 -72 -43 -134 -93 -134zM294 0h-52l-58 528l-117 -528h-53l147 667h53l58 -519l115 519h54z" />
    <glyph glyph-name="Eng" unicode="&#x14a;" horiz-adv-x="415" 
d="M137 -196c-45 0 -84 17 -107 54l31 37c16 -29 45 -43 74 -43c52 0 79 28 94 96l12 56l-57 524l-117 -528h-53l147 667h53l58 -519l115 519h54l-159 -720c-22 -100 -65 -143 -145 -143z" />
    <glyph glyph-name="Oacute" unicode="&#xd3;" horiz-adv-x="415" 
d="M445 867l-130 -144h-37l110 144h57zM163 -12c-88 0 -120 82 -120 180c0 137 72 510 246 510c88 0 121 -84 121 -181c0 -137 -73 -509 -247 -509zM168 37c116 0 185 328 185 463c0 78 -19 129 -69 129c-118 0 -184 -330 -184 -465c0 -78 17 -127 68 -127z" />
    <glyph glyph-name="Obreve" unicode="&#x14e;" horiz-adv-x="415" 
d="M163 -12c-88 0 -120 82 -120 180c0 137 72 510 246 510c88 0 121 -84 121 -181c0 -137 -73 -509 -247 -509zM168 37c116 0 185 328 185 463c0 78 -19 129 -69 129c-118 0 -184 -330 -184 -465c0 -78 17 -127 68 -127zM440 782c-35 -37 -83 -59 -130 -59
c-48 0 -86 22 -105 59l32 23c12 -28 45 -46 78 -46c34 0 74 18 97 46z" />
    <glyph glyph-name="Ocircumflex" unicode="&#xd4;" horiz-adv-x="415" 
d="M408 723h-30l-40 111l-84 -111h-34l99 144h51zM163 -12c-88 0 -120 82 -120 180c0 137 72 510 246 510c88 0 121 -84 121 -181c0 -137 -73 -509 -247 -509zM168 37c116 0 185 328 185 463c0 78 -19 129 -69 129c-118 0 -184 -330 -184 -465c0 -78 17 -127 68 -127z" />
    <glyph glyph-name="Odieresis" unicode="&#xd6;" horiz-adv-x="415" 
d="M424 771c0 -21 -18 -39 -40 -39c-18 0 -32 14 -32 32c0 21 19 39 40 39c18 0 32 -13 32 -32zM293 771c0 -21 -19 -39 -40 -39c-18 0 -32 14 -32 32c0 21 19 39 40 39c18 0 32 -13 32 -32zM163 -12c-88 0 -120 82 -120 180c0 137 72 510 246 510c88 0 121 -84 121 -181
c0 -137 -73 -509 -247 -509zM168 37c116 0 185 328 185 463c0 78 -19 129 -69 129c-118 0 -184 -330 -184 -465c0 -78 17 -127 68 -127z" />
    <glyph glyph-name="Ograve" unicode="&#xd2;" horiz-adv-x="415" 
d="M346 723h-36l-65 144h54zM163 -12c-88 0 -120 82 -120 180c0 137 72 510 246 510c88 0 121 -84 121 -181c0 -137 -73 -509 -247 -509zM168 37c116 0 185 328 185 463c0 78 -19 129 -69 129c-118 0 -184 -330 -184 -465c0 -78 17 -127 68 -127z" />
    <glyph glyph-name="Ohungarumlaut" unicode="&#x150;" horiz-adv-x="415" 
d="M370 867l-108 -144h-31l89 144h50zM481 867l-108 -144h-31l89 144h50zM163 -12c-88 0 -120 82 -120 180c0 137 72 510 246 510c88 0 121 -84 121 -181c0 -137 -73 -509 -247 -509zM168 37c116 0 185 328 185 463c0 78 -19 129 -69 129c-118 0 -184 -330 -184 -465
c0 -78 17 -127 68 -127z" />
    <glyph glyph-name="Omacron" unicode="&#x14c;" horiz-adv-x="415" 
d="M440 744h-244l8 36h243zM163 -12c-88 0 -120 82 -120 180c0 137 72 510 246 510c88 0 121 -84 121 -181c0 -137 -73 -509 -247 -509zM168 37c116 0 185 328 185 463c0 78 -19 129 -69 129c-118 0 -184 -330 -184 -465c0 -78 17 -127 68 -127z" />
    <glyph glyph-name="Oslash" unicode="&#xd8;" horiz-adv-x="415" 
d="M163 -12c-44 0 -74 20 -93 52l-24 -40h-42l49 82c-7 25 -10 55 -10 86c0 137 72 510 246 510c43 0 73 -21 93 -54l26 43h43l-52 -85c7 -25 11 -55 11 -85c0 -137 -73 -509 -247 -509zM100 164v-6l246 408c-9 39 -28 63 -62 63c-118 0 -184 -330 -184 -465zM168 37
c116 0 185 328 185 463v5l-247 -407c8 -39 27 -61 62 -61z" />
    <glyph glyph-name="Oslashacute" unicode="&#x1fe;" horiz-adv-x="415" 
d="M445 867l-130 -144h-37l110 144h57zM163 -12c-44 0 -74 20 -93 52l-24 -40h-42l49 82c-7 25 -10 55 -10 86c0 137 72 510 246 510c43 0 73 -21 93 -54l26 43h43l-52 -85c7 -25 11 -55 11 -85c0 -137 -73 -509 -247 -509zM100 164v-6l246 408c-9 39 -28 63 -62 63
c-118 0 -184 -330 -184 -465zM168 37c116 0 185 328 185 463v5l-247 -407c8 -39 27 -61 62 -61z" />
    <glyph glyph-name="Otilde" unicode="&#xd5;" horiz-adv-x="415" 
d="M163 -12c-88 0 -120 82 -120 180c0 137 72 510 246 510c88 0 121 -84 121 -181c0 -137 -73 -509 -247 -509zM168 37c116 0 185 328 185 463c0 78 -19 129 -69 129c-118 0 -184 -330 -184 -465c0 -78 17 -127 68 -127zM357 721c-62 0 -24 104 -65 104
c-20 0 -38 -29 -53 -98h-31c16 73 41 134 91 134c63 0 26 -104 66 -104c20 0 38 29 53 98h32c-16 -72 -43 -134 -93 -134z" />
    <glyph glyph-name="uni1ECC" unicode="&#x1ecc;" horiz-adv-x="415" 
d="M163 -12c-88 0 -120 82 -120 180c0 137 72 510 246 510c88 0 121 -84 121 -181c0 -137 -73 -509 -247 -509zM168 37c116 0 185 328 185 463c0 78 -19 129 -69 129c-118 0 -184 -330 -184 -465c0 -78 17 -127 68 -127zM159 -137c0 -22 -19 -40 -41 -40
c-19 0 -33 14 -33 32c0 22 19 41 41 41c19 0 33 -14 33 -33z" />
    <glyph glyph-name="uni1ECE" unicode="&#x1ece;" horiz-adv-x="415" 
d="M163 -12c-88 0 -120 82 -120 180c0 137 72 510 246 510c88 0 121 -84 121 -181c0 -137 -73 -509 -247 -509zM168 37c116 0 185 328 185 463c0 78 -19 129 -69 129c-118 0 -184 -330 -184 -465c0 -78 17 -127 68 -127zM294 769l-24 10c11 22 28 41 57 41
c30 0 46 -18 46 -45c0 -32 -17 -59 -38 -78h-31c24 21 40 46 40 73c1 13 -6 24 -20 24s-23 -9 -30 -25z" />
    <glyph glyph-name="uni1ED0" unicode="&#x1ed0;" horiz-adv-x="415" 
d="M393 682h-30l-40 83l-84 -83h-34l99 108h51zM547 843l-130 -108h-37l110 108h57zM163 -12c-88 0 -120 82 -120 180c0 137 72 510 246 510c88 0 121 -84 121 -181c0 -137 -73 -509 -247 -509zM168 37c116 0 185 328 185 463c0 78 -19 129 -69 129
c-118 0 -184 -330 -184 -465c0 -78 17 -127 68 -127z" />
    <glyph glyph-name="uni1ED2" unicode="&#x1ed2;" horiz-adv-x="415" 
d="M392 682h-30l-40 83l-84 -83h-34l99 108h51zM163 -12c-88 0 -120 82 -120 180c0 137 72 510 246 510c88 0 121 -84 121 -181c0 -137 -73 -509 -247 -509zM168 37c116 0 185 328 185 463c0 78 -19 129 -69 129c-118 0 -184 -330 -184 -465c0 -78 17 -127 68 -127zM243 735
h-36l-65 108h54z" />
    <glyph glyph-name="uni1ED4" unicode="&#x1ed4;" horiz-adv-x="415" 
d="M392 682h-30l-40 83l-84 -83h-34l99 108h51zM163 -12c-88 0 -120 82 -120 180c0 137 72 510 246 510c88 0 121 -84 121 -181c0 -137 -73 -509 -247 -509zM168 37c116 0 185 328 185 463c0 78 -19 129 -69 129c-118 0 -184 -330 -184 -465c0 -78 17 -127 68 -127zM371 810
l-24 8c11 16 28 30 57 30c30 0 46 -13 46 -33c0 -24 -17 -45 -38 -59h-31c24 16 40 35 40 55c1 10 -6 18 -20 18s-23 -7 -30 -19z" />
    <glyph glyph-name="uni1ED6" unicode="&#x1ed6;" horiz-adv-x="415" 
d="M387 678h-30l-40 55l-84 -55h-34l99 72h51zM163 -12c-88 0 -120 82 -120 180c0 137 72 510 246 510c88 0 121 -84 121 -181c0 -137 -73 -509 -247 -509zM168 37c116 0 185 328 185 463c0 78 -19 129 -69 129c-118 0 -184 -330 -184 -465c0 -78 17 -127 68 -127zM356 757
c-62 0 -24 52 -65 52c-20 0 -38 -15 -53 -49h-31c16 36 41 67 91 67c63 0 26 -52 66 -52c20 0 38 14 53 49h32c-16 -36 -43 -67 -93 -67z" />
    <glyph glyph-name="uni1ED8" unicode="&#x1ed8;" horiz-adv-x="415" 
d="M408 723h-30l-40 111l-84 -111h-34l99 144h51zM163 -12c-88 0 -120 82 -120 180c0 137 72 510 246 510c88 0 121 -84 121 -181c0 -137 -73 -509 -247 -509zM168 37c116 0 185 328 185 463c0 78 -19 129 -69 129c-118 0 -184 -330 -184 -465c0 -78 17 -127 68 -127z
M159 -137c0 -22 -19 -40 -41 -40c-19 0 -33 14 -33 32c0 22 19 41 41 41c19 0 33 -14 33 -33z" />
    <glyph glyph-name="Ohorn" unicode="&#x1a0;" horiz-adv-x="415" 
d="M163 -12c-88 0 -120 82 -120 180c0 137 72 510 246 510c61 0 96 -41 111 -99c27 19 47 45 54 69h-6c-16 0 -30 15 -30 32c0 22 19 41 41 41c20 0 36 -15 36 -42c0 -51 -43 -105 -88 -132c2 -16 3 -33 3 -50c0 -137 -73 -509 -247 -509zM168 37c116 0 185 328 185 463
c0 78 -19 129 -69 129c-118 0 -184 -330 -184 -465c0 -78 17 -127 68 -127z" />
    <glyph glyph-name="uni1EDA" unicode="&#x1eda;" horiz-adv-x="415" 
d="M445 867l-130 -144h-37l110 144h57zM163 -12c-88 0 -120 82 -120 180c0 137 72 510 246 510c61 0 96 -41 111 -99c27 19 47 45 54 69h-6c-16 0 -30 15 -30 32c0 22 19 41 41 41c20 0 36 -15 36 -42c0 -51 -43 -105 -88 -132c2 -16 3 -33 3 -50c0 -137 -73 -509 -247 -509
zM168 37c116 0 185 328 185 463c0 78 -19 129 -69 129c-118 0 -184 -330 -184 -465c0 -78 17 -127 68 -127z" />
    <glyph glyph-name="uni1EDC" unicode="&#x1edc;" horiz-adv-x="415" 
d="M163 -12c-88 0 -120 82 -120 180c0 137 72 510 246 510c61 0 96 -41 111 -99c27 19 47 45 54 69h-6c-16 0 -30 15 -30 32c0 22 19 41 41 41c20 0 36 -15 36 -42c0 -51 -43 -105 -88 -132c2 -16 3 -33 3 -50c0 -137 -73 -509 -247 -509zM168 37c116 0 185 328 185 463
c0 78 -19 129 -69 129c-118 0 -184 -330 -184 -465c0 -78 17 -127 68 -127zM346 723h-36l-65 144h54z" />
    <glyph glyph-name="uni1EDE" unicode="&#x1ede;" horiz-adv-x="415" 
d="M163 -12c-88 0 -120 82 -120 180c0 137 72 510 246 510c61 0 96 -41 111 -99c27 19 47 45 54 69h-6c-16 0 -30 15 -30 32c0 22 19 41 41 41c20 0 36 -15 36 -42c0 -51 -43 -105 -88 -132c2 -16 3 -33 3 -50c0 -137 -73 -509 -247 -509zM168 37c116 0 185 328 185 463
c0 78 -19 129 -69 129c-118 0 -184 -330 -184 -465c0 -78 17 -127 68 -127zM294 769l-24 10c11 22 28 41 57 41c30 0 46 -18 46 -45c0 -32 -17 -59 -38 -78h-31c24 21 40 46 40 73c1 13 -6 24 -20 24s-23 -9 -30 -25z" />
    <glyph glyph-name="uni1EE0" unicode="&#x1ee0;" horiz-adv-x="415" 
d="M163 -12c-88 0 -120 82 -120 180c0 137 72 510 246 510c61 0 96 -41 111 -99c27 19 47 45 54 69h-6c-16 0 -30 15 -30 32c0 22 19 41 41 41c20 0 36 -15 36 -42c0 -51 -43 -105 -88 -132c2 -16 3 -33 3 -50c0 -137 -73 -509 -247 -509zM168 37c116 0 185 328 185 463
c0 78 -19 129 -69 129c-118 0 -184 -330 -184 -465c0 -78 17 -127 68 -127zM357 721c-62 0 -24 104 -65 104c-20 0 -38 -29 -53 -98h-31c16 73 41 134 91 134c63 0 26 -104 66 -104c20 0 38 29 53 98h32c-16 -72 -43 -134 -93 -134z" />
    <glyph glyph-name="uni1EE2" unicode="&#x1ee2;" horiz-adv-x="415" 
d="M163 -12c-88 0 -120 82 -120 180c0 137 72 510 246 510c61 0 96 -41 111 -99c27 19 47 45 54 69h-6c-16 0 -30 15 -30 32c0 22 19 41 41 41c20 0 36 -15 36 -42c0 -51 -43 -105 -88 -132c2 -16 3 -33 3 -50c0 -137 -73 -509 -247 -509zM168 37c116 0 185 328 185 463
c0 78 -19 129 -69 129c-118 0 -184 -330 -184 -465c0 -78 17 -127 68 -127zM159 -137c0 -22 -19 -40 -41 -40c-19 0 -33 14 -33 32c0 22 19 41 41 41c19 0 33 -14 33 -33z" />
    <glyph glyph-name="OE" unicode="&#x152;" horiz-adv-x="578" 
d="M476 0h-229l15 73c-43 -72 -89 -85 -116 -85c-68 0 -103 73 -103 180c0 142 74 509 253 509c28 0 70 -13 82 -83l16 73h229l-11 -49h-175l-56 -252h169l-11 -48h-169l-59 -269h175zM285 172l71 323c-1 89 -20 133 -65 133c-126 0 -192 -327 -192 -464
c0 -69 13 -127 62 -127c45 0 90 53 124 135z" />
    <glyph glyph-name="uni1E56" unicode="&#x1e56;" horiz-adv-x="364" 
d="M67 0h-53l147 667h107c70 0 119 -56 119 -144c0 -115 -65 -244 -196 -244h-62zM139 327h58c89 0 133 104 133 194c0 67 -32 97 -74 97h-52zM347 769c0 -22 -19 -40 -41 -40c-19 0 -33 14 -33 32c0 22 19 41 41 41c19 0 33 -14 33 -33z" />
    <glyph glyph-name="Racute" unicode="&#x154;" horiz-adv-x="388" 
d="M435 867l-130 -144h-37l110 144h57zM285 0h-56l-30 279h-70l-62 -279h-53l147 667h105c74 0 123 -60 123 -141c0 -119 -63 -217 -141 -239zM139 327h59c90 0 132 104 132 196c0 65 -28 95 -71 95h-55z" />
    <glyph glyph-name="Rcaron" unicode="&#x158;" horiz-adv-x="388" 
d="M329 723h-51l-38 144h30l39 -111l85 111h34zM285 0h-56l-30 279h-70l-62 -279h-53l147 667h105c74 0 123 -60 123 -141c0 -119 -63 -217 -141 -239zM139 327h59c90 0 132 104 132 196c0 65 -28 95 -71 95h-55z" />
    <glyph glyph-name="Rcommaaccent" unicode="&#x156;" horiz-adv-x="388" 
d="M159 -122c0 -53 -46 -110 -95 -136l-21 24c36 18 65 51 74 81h-7c-16 0 -30 14 -30 32c0 23 19 42 41 42s38 -14 38 -43zM285 0h-56l-30 279h-70l-62 -279h-53l147 667h105c74 0 123 -60 123 -141c0 -119 -63 -217 -141 -239zM139 327h59c90 0 132 104 132 196
c0 65 -28 95 -71 95h-55z" />
    <glyph glyph-name="Sacute" unicode="&#x15a;" horiz-adv-x="337" 
d="M403 867l-130 -144h-37l110 144h57zM113 -12c-52 0 -103 27 -127 65l38 40c17 -33 54 -56 89 -56c59 0 118 55 118 150c0 115 -135 174 -135 307c0 105 79 184 162 184c42 0 86 -17 111 -51l-34 -40c-18 27 -46 42 -77 42c-63 0 -106 -60 -106 -129
c0 -100 134 -172 134 -308c0 -116 -75 -204 -173 -204z" />
    <glyph glyph-name="Scaron" unicode="&#x160;" horiz-adv-x="337" 
d="M301 723h-51l-38 144h30l39 -111l85 111h34zM113 -12c-52 0 -103 27 -127 65l38 40c17 -33 54 -56 89 -56c59 0 118 55 118 150c0 115 -135 174 -135 307c0 105 79 184 162 184c42 0 86 -17 111 -51l-34 -40c-18 27 -46 42 -77 42c-63 0 -106 -60 -106 -129
c0 -100 134 -172 134 -308c0 -116 -75 -204 -173 -204z" />
    <glyph glyph-name="Scircumflex" unicode="&#x15c;" horiz-adv-x="337" 
d="M367 723h-30l-40 111l-84 -111h-34l99 144h51zM113 -12c-52 0 -103 27 -127 65l38 40c17 -33 54 -56 89 -56c59 0 118 55 118 150c0 115 -135 174 -135 307c0 105 79 184 162 184c42 0 86 -17 111 -51l-34 -40c-18 27 -46 42 -77 42c-63 0 -106 -60 -106 -129
c0 -100 134 -172 134 -308c0 -116 -75 -204 -173 -204z" />
    <glyph glyph-name="Scedilla" unicode="&#x15e;" horiz-adv-x="337" 
d="M64 -189c-32 0 -57 11 -77 36l22 29c14 -22 34 -32 57 -32c31 0 54 25 54 54c0 17 -10 28 -27 28c-12 0 -20 -5 -29 -14l-23 15l38 65c-39 8 -74 31 -93 61l38 40c17 -33 54 -56 89 -56c59 0 118 55 118 150c0 115 -135 174 -135 307c0 105 79 184 162 184
c42 0 86 -17 111 -51l-34 -40c-18 27 -46 42 -77 42c-63 0 -106 -60 -106 -129c0 -100 134 -172 134 -308c0 -116 -75 -204 -173 -204l-28 -46c7 7 17 10 24 10c28 0 47 -23 47 -53c0 -49 -42 -88 -92 -88z" />
    <glyph glyph-name="Scommaaccent" unicode="&#x218;" horiz-adv-x="337" 
d="M129 -122c0 -53 -46 -110 -95 -136l-21 24c36 18 65 51 74 81h-7c-16 0 -30 14 -30 32c0 23 19 42 41 42s38 -14 38 -43zM113 -12c-52 0 -103 27 -127 65l38 40c17 -33 54 -56 89 -56c59 0 118 55 118 150c0 115 -135 174 -135 307c0 105 79 184 162 184
c42 0 86 -17 111 -51l-34 -40c-18 27 -46 42 -77 42c-63 0 -106 -60 -106 -129c0 -100 134 -172 134 -308c0 -116 -75 -204 -173 -204z" />
    <glyph glyph-name="uni1E60" unicode="&#x1e60;" horiz-adv-x="337" 
d="M113 -12c-52 0 -103 27 -127 65l38 40c17 -33 54 -56 89 -56c59 0 118 55 118 150c0 115 -135 174 -135 307c0 105 79 184 162 184c42 0 86 -17 111 -51l-34 -40c-18 27 -46 42 -77 42c-63 0 -106 -60 -106 -129c0 -100 134 -172 134 -308c0 -116 -75 -204 -173 -204z
M318 769c0 -22 -19 -40 -41 -40c-19 0 -33 14 -33 32c0 22 19 41 41 41c19 0 33 -14 33 -33z" />
    <glyph glyph-name="Tbar" unicode="&#x166;" horiz-adv-x="305" 
d="M125 0h-54l68 310h-77l8 35h77l61 273h-107l10 49h269l-10 -49h-108l-61 -273h77l-8 -35h-77z" />
    <glyph glyph-name="Tcaron" unicode="&#x164;" horiz-adv-x="305" 
d="M281 723h-51l-38 144h30l39 -111l85 111h34zM125 0h-54l137 618h-107l10 49h269l-10 -49h-108z" />
    <glyph glyph-name="Tcommaaccent" unicode="&#x162;" horiz-adv-x="305" 
d="M116 -122c0 -53 -46 -110 -95 -136l-21 24c36 18 65 51 74 81h-7c-16 0 -30 14 -30 32c0 23 19 42 41 42s38 -14 38 -43zM125 0h-54l137 618h-107l10 49h269l-10 -49h-108z" />
    <glyph glyph-name="uni021A" unicode="&#x21a;" horiz-adv-x="305" 
d="M116 -122c0 -53 -46 -110 -95 -136l-21 24c36 18 65 51 74 81h-7c-16 0 -30 14 -30 32c0 23 19 42 41 42s38 -14 38 -43zM125 0h-54l137 618h-107l10 49h269l-10 -49h-108z" />
    <glyph glyph-name="uni1E6A" unicode="&#x1e6a;" horiz-adv-x="305" 
d="M125 0h-54l137 618h-107l10 49h269l-10 -49h-108zM305 769c0 -22 -19 -40 -41 -40c-19 0 -33 14 -33 32c0 22 19 41 41 41c19 0 33 -14 33 -33z" />
    <glyph glyph-name="Uacute" unicode="&#xda;" horiz-adv-x="416" 
d="M446 867l-130 -144h-37l110 144h57zM170 -12c-73 0 -125 45 -125 129c0 16 2 34 5 47l111 503h53l-111 -505c-2 -8 -5 -27 -5 -39c0 -58 33 -86 76 -86c52 0 83 33 103 125l111 505h54l-111 -504c-27 -122 -78 -175 -161 -175z" />
    <glyph glyph-name="Ubreve" unicode="&#x16c;" horiz-adv-x="416" 
d="M170 -12c-73 0 -125 45 -125 129c0 16 2 34 5 47l111 503h53l-111 -505c-2 -8 -5 -27 -5 -39c0 -58 33 -86 76 -86c52 0 83 33 103 125l111 505h54l-111 -504c-27 -122 -78 -175 -161 -175zM439 782c-35 -37 -83 -59 -130 -59c-48 0 -86 22 -105 59l32 23
c12 -28 45 -46 78 -46c34 0 74 18 97 46z" />
    <glyph glyph-name="Ucircumflex" unicode="&#xdb;" horiz-adv-x="416" 
d="M408 723h-30l-40 111l-84 -111h-34l99 144h51zM170 -12c-73 0 -125 45 -125 129c0 16 2 34 5 47l111 503h53l-111 -505c-2 -8 -5 -27 -5 -39c0 -58 33 -86 76 -86c52 0 83 33 103 125l111 505h54l-111 -504c-27 -122 -78 -175 -161 -175z" />
    <glyph glyph-name="Udieresis" unicode="&#xdc;" horiz-adv-x="416" 
d="M424 771c0 -21 -18 -39 -40 -39c-18 0 -32 14 -32 32c0 21 19 39 40 39c18 0 32 -13 32 -32zM293 771c0 -21 -19 -39 -40 -39c-18 0 -32 14 -32 32c0 21 19 39 40 39c18 0 32 -13 32 -32zM170 -12c-73 0 -125 45 -125 129c0 16 2 34 5 47l111 503h53l-111 -505
c-2 -8 -5 -27 -5 -39c0 -58 33 -86 76 -86c52 0 83 33 103 125l111 505h54l-111 -504c-27 -122 -78 -175 -161 -175z" />
    <glyph glyph-name="Ugrave" unicode="&#xd9;" horiz-adv-x="416" 
d="M170 -12c-73 0 -125 45 -125 129c0 16 2 34 5 47l111 503h53l-111 -505c-2 -8 -5 -27 -5 -39c0 -58 33 -86 76 -86c52 0 83 33 103 125l111 505h54l-111 -504c-27 -122 -78 -175 -161 -175zM346 723h-36l-65 144h54z" />
    <glyph glyph-name="Uhungarumlaut" unicode="&#x170;" horiz-adv-x="416" 
d="M170 -12c-73 0 -125 45 -125 129c0 16 2 34 5 47l111 503h53l-111 -505c-2 -8 -5 -27 -5 -39c0 -58 33 -86 76 -86c52 0 83 33 103 125l111 505h54l-111 -504c-27 -122 -78 -175 -161 -175zM371 867l-108 -144h-31l89 144h50zM482 867l-108 -144h-31l89 144h50z" />
    <glyph glyph-name="Umacron" unicode="&#x16a;" horiz-adv-x="416" 
d="M170 -12c-73 0 -125 45 -125 129c0 16 2 34 5 47l111 503h53l-111 -505c-2 -8 -5 -27 -5 -39c0 -58 33 -86 76 -86c52 0 83 33 103 125l111 505h54l-111 -504c-27 -122 -78 -175 -161 -175zM440 744h-244l8 36h243z" />
    <glyph glyph-name="Uogonek" unicode="&#x172;" horiz-adv-x="416" 
d="M201 -119l26 -18c-14 -29 -37 -49 -70 -49c-36 0 -57 19 -57 56c0 33 14 76 63 118c-70 3 -118 47 -118 129c0 16 2 34 5 47l111 503h53l-111 -505c-2 -8 -5 -27 -5 -39c0 -58 33 -86 76 -86c52 0 83 33 103 125l111 505h54l-111 -504c-21 -92 -54 -145 -105 -165
c-47 -29 -92 -68 -92 -125c0 -17 11 -27 27 -27c20 0 33 15 40 35z" />
    <glyph glyph-name="Uring" unicode="&#x16e;" horiz-adv-x="416" 
d="M316 692c-43 0 -72 32 -72 74c0 47 43 89 89 89c43 0 72 -31 72 -74c0 -47 -42 -89 -89 -89zM318 722c31 0 57 26 57 57c0 26 -18 46 -43 46c-31 0 -58 -26 -58 -57c0 -25 18 -46 44 -46zM170 -12c-73 0 -125 45 -125 129c0 16 2 34 5 47l111 503h53l-111 -505
c-2 -8 -5 -27 -5 -39c0 -58 33 -86 76 -86c52 0 83 33 103 125l111 505h54l-111 -504c-27 -122 -78 -175 -161 -175z" />
    <glyph glyph-name="Utilde" unicode="&#x168;" horiz-adv-x="416" 
d="M170 -12c-73 0 -125 45 -125 129c0 16 2 34 5 47l111 503h53l-111 -505c-2 -8 -5 -27 -5 -39c0 -58 33 -86 76 -86c52 0 83 33 103 125l111 505h54l-111 -504c-27 -122 -78 -175 -161 -175zM358 721c-62 0 -24 104 -65 104c-20 0 -38 -29 -53 -98h-31
c16 73 41 134 91 134c63 0 26 -104 66 -104c20 0 38 29 53 98h32c-16 -72 -43 -134 -93 -134z" />
    <glyph glyph-name="uni1EE4" unicode="&#x1ee4;" horiz-adv-x="416" 
d="M170 -12c-73 0 -125 45 -125 129c0 16 2 34 5 47l111 503h53l-111 -505c-2 -8 -5 -27 -5 -39c0 -58 33 -86 76 -86c52 0 83 33 103 125l111 505h54l-111 -504c-27 -122 -78 -175 -161 -175zM159 -137c0 -22 -19 -40 -41 -40c-19 0 -33 14 -33 32c0 22 19 41 41 41
c19 0 33 -14 33 -33z" />
    <glyph glyph-name="Uhorn" unicode="&#x1af;" horiz-adv-x="416" 
d="M533 744c0 -53 -50 -114 -105 -139l-97 -442c-27 -122 -78 -175 -161 -175c-73 0 -125 45 -125 129c0 16 2 34 5 47l111 503h53l-111 -505c-2 -8 -5 -27 -5 -39c0 -58 33 -86 76 -86c52 0 83 33 103 125l111 505h54l-5 -23c27 18 48 46 55 70h-6c-16 0 -30 15 -30 32
c0 22 19 40 40 40s37 -14 37 -42z" />
    <glyph glyph-name="uni1EE6" unicode="&#x1ee6;" horiz-adv-x="416" 
d="M170 -12c-73 0 -125 45 -125 129c0 16 2 34 5 47l111 503h53l-111 -505c-2 -8 -5 -27 -5 -39c0 -58 33 -86 76 -86c52 0 83 33 103 125l111 505h54l-111 -504c-27 -122 -78 -175 -161 -175zM294 769l-24 10c11 22 28 41 57 41c30 0 46 -18 46 -45c0 -32 -17 -59 -38 -78
h-31c24 21 40 46 40 73c1 13 -6 24 -20 24s-23 -9 -30 -25z" />
    <glyph glyph-name="uni1EE8" unicode="&#x1ee8;" horiz-adv-x="416" 
d="M446 867l-130 -144h-37l110 144h57zM533 744c0 -53 -50 -114 -105 -139l-97 -442c-27 -122 -78 -175 -161 -175c-73 0 -125 45 -125 129c0 16 2 34 5 47l111 503h53l-111 -505c-2 -8 -5 -27 -5 -39c0 -58 33 -86 76 -86c52 0 83 33 103 125l111 505h54l-5 -23
c27 18 48 46 55 70h-6c-16 0 -30 15 -30 32c0 22 19 40 40 40s37 -14 37 -42z" />
    <glyph glyph-name="uni1EEA" unicode="&#x1eea;" horiz-adv-x="416" 
d="M346 723h-36l-65 144h54zM533 744c0 -53 -50 -114 -105 -139l-97 -442c-27 -122 -78 -175 -161 -175c-73 0 -125 45 -125 129c0 16 2 34 5 47l111 503h53l-111 -505c-2 -8 -5 -27 -5 -39c0 -58 33 -86 76 -86c52 0 83 33 103 125l111 505h54l-5 -23c27 18 48 46 55 70h-6
c-16 0 -30 15 -30 32c0 22 19 40 40 40s37 -14 37 -42z" />
    <glyph glyph-name="uni1EEC" unicode="&#x1eec;" horiz-adv-x="416" 
d="M294 769l-24 10c11 22 28 41 57 41c30 0 46 -18 46 -45c0 -32 -17 -59 -38 -78h-31c24 21 40 46 40 73c1 13 -6 24 -20 24s-23 -9 -30 -25zM533 744c0 -53 -50 -114 -105 -139l-97 -442c-27 -122 -78 -175 -161 -175c-73 0 -125 45 -125 129c0 16 2 34 5 47l111 503h53
l-111 -505c-2 -8 -5 -27 -5 -39c0 -58 33 -86 76 -86c52 0 83 33 103 125l111 505h54l-5 -23c27 18 48 46 55 70h-6c-16 0 -30 15 -30 32c0 22 19 40 40 40s37 -14 37 -42z" />
    <glyph glyph-name="uni1EEE" unicode="&#x1eee;" horiz-adv-x="416" 
d="M533 744c0 -53 -50 -114 -105 -139l-97 -442c-27 -122 -78 -175 -161 -175c-73 0 -125 45 -125 129c0 16 2 34 5 47l111 503h53l-111 -505c-2 -8 -5 -27 -5 -39c0 -58 33 -86 76 -86c52 0 83 33 103 125l111 505h54l-5 -23c27 18 48 46 55 70h-6c-16 0 -30 15 -30 32
c0 22 19 40 40 40s37 -14 37 -42zM358 721c-62 0 -24 104 -65 104c-20 0 -38 -29 -53 -98h-31c16 73 41 134 91 134c63 0 26 -104 66 -104c20 0 38 29 53 98h32c-16 -72 -43 -134 -93 -134z" />
    <glyph glyph-name="uni1EF0" unicode="&#x1ef0;" horiz-adv-x="416" 
d="M159 -137c0 -22 -19 -40 -41 -40c-19 0 -33 14 -33 32c0 22 19 41 41 41c19 0 33 -14 33 -33zM533 744c0 -53 -50 -114 -105 -139l-97 -442c-27 -122 -78 -175 -161 -175c-73 0 -125 45 -125 129c0 16 2 34 5 47l111 503h53l-111 -505c-2 -8 -5 -27 -5 -39
c0 -58 33 -86 76 -86c52 0 83 33 103 125l111 505h54l-5 -23c27 18 48 46 55 70h-6c-16 0 -30 15 -30 32c0 22 19 40 40 40s37 -14 37 -42z" />
    <glyph glyph-name="Wacute" unicode="&#x1e82;" horiz-adv-x="519" 
d="M495 867l-130 -144h-37l110 144h57zM341 0h-59l46 551l-199 -551h-59l44 667h56l-48 -568l206 568h49l-46 -568l203 568h57z" />
    <glyph glyph-name="Wcircumflex" unicode="&#x174;" horiz-adv-x="519" 
d="M460 723h-30l-40 111l-84 -111h-34l99 144h51zM341 0h-59l46 551l-199 -551h-59l44 667h56l-48 -568l206 568h49l-46 -568l203 568h57z" />
    <glyph glyph-name="Wdieresis" unicode="&#x1e84;" horiz-adv-x="519" 
d="M475 771c0 -21 -18 -39 -40 -39c-18 0 -32 14 -32 32c0 21 19 39 40 39c18 0 32 -13 32 -32zM344 771c0 -21 -19 -39 -40 -39c-18 0 -32 14 -32 32c0 21 19 39 40 39c18 0 32 -13 32 -32zM341 0h-59l46 551l-199 -551h-59l44 667h56l-48 -568l206 568h49l-46 -568
l203 568h57z" />
    <glyph glyph-name="Wgrave" unicode="&#x1e80;" horiz-adv-x="519" 
d="M341 0h-59l46 551l-199 -551h-59l44 667h56l-48 -568l206 568h49l-46 -568l203 568h57zM397 723h-36l-65 144h54z" />
    <glyph glyph-name="Yacute" unicode="&#xdd;" horiz-adv-x="347" 
d="M146 0h-53l63 286l-62 381h55l43 -323l188 323h59l-229 -381zM412 867l-130 -144h-37l110 144h57z" />
    <glyph glyph-name="Ycircumflex" unicode="&#x176;" horiz-adv-x="347" 
d="M374 723h-30l-40 111l-84 -111h-34l99 144h51zM146 0h-53l63 286l-62 381h55l43 -323l188 323h59l-229 -381z" />
    <glyph glyph-name="Ydieresis" unicode="&#x178;" horiz-adv-x="347" 
d="M392 771c0 -21 -18 -39 -40 -39c-18 0 -32 14 -32 32c0 21 19 39 40 39c18 0 32 -13 32 -32zM261 771c0 -21 -19 -39 -40 -39c-18 0 -32 14 -32 32c0 21 19 39 40 39c18 0 32 -13 32 -32zM146 0h-53l63 286l-62 381h55l43 -323l188 323h59l-229 -381z" />
    <glyph glyph-name="Ygrave" unicode="&#x1ef2;" horiz-adv-x="347" 
d="M146 0h-53l63 286l-62 381h55l43 -323l188 323h59l-229 -381zM314 723h-36l-65 144h54z" />
    <glyph glyph-name="Zacute" unicode="&#x179;" horiz-adv-x="324" 
d="M397 867l-130 -144h-37l110 144h57zM236 0h-256l10 48l314 570h-187l11 49h248l-10 -46l-315 -572h195z" />
    <glyph glyph-name="Zcaron" unicode="&#x17d;" horiz-adv-x="324" 
d="M293 723h-51l-38 144h30l39 -111l85 111h34zM236 0h-256l10 48l314 570h-187l11 49h248l-10 -46l-315 -572h195z" />
    <glyph glyph-name="Zdotaccent" unicode="&#x17b;" horiz-adv-x="324" 
d="M236 0h-256l10 48l314 570h-187l11 49h248l-10 -46l-315 -572h195zM311 769c0 -22 -19 -40 -41 -40c-19 0 -33 14 -33 32c0 22 19 41 41 41c19 0 33 -14 33 -33z" />
    <glyph glyph-name="Eth" unicode="&#xd0;" horiz-adv-x="424" 
d="M142 0h-110l68 311h-62l10 46h62l69 310h107c62 0 128 -52 128 -192c0 -96 -54 -475 -272 -475zM244 311h-91l-58 -262h56c155 0 207 344 207 425c0 104 -39 144 -82 144h-54l-59 -261h91z" />
    <glyph glyph-name="Thorn" unicode="&#xde;" horiz-adv-x="364" 
d="M67 0h-53l147 667h53l-27 -125h53c71 0 119 -58 119 -143c0 -103 -56 -245 -196 -245h-62zM169 203c89 0 133 102 133 193c0 59 -26 98 -74 98h-52l-64 -291h57z" />
    <glyph glyph-name="aacute" unicode="&#xe1;" horiz-adv-x="368" 
d="M211 495c35 0 70 -26 84 -85l16 73h49l-107 -483h-49l15 64c-30 -51 -65 -76 -101 -76c-59 0 -92 51 -92 138c0 117 60 369 185 369zM216 451c-91 0 -138 -230 -138 -323c0 -68 20 -96 59 -96c34 0 73 44 94 90l53 237c-4 51 -33 92 -68 92zM379 700l-130 -144h-37
l110 144h57z" />
    <glyph glyph-name="abreve" unicode="&#x103;" horiz-adv-x="368" 
d="M211 495c35 0 70 -26 84 -85l16 73h49l-107 -483h-49l15 64c-30 -51 -65 -76 -101 -76c-59 0 -92 51 -92 138c0 117 60 369 185 369zM216 451c-91 0 -138 -230 -138 -323c0 -68 20 -96 59 -96c34 0 73 44 94 90l53 237c-4 51 -33 92 -68 92zM374 615
c-35 -37 -83 -59 -130 -59c-48 0 -86 22 -105 59l32 23c12 -28 45 -46 78 -46c34 0 74 18 97 46z" />
    <glyph glyph-name="acircumflex" unicode="&#xe2;" horiz-adv-x="368" 
d="M211 495c35 0 70 -26 84 -85l16 73h49l-107 -483h-49l15 64c-30 -51 -65 -76 -101 -76c-59 0 -92 51 -92 138c0 117 60 369 185 369zM216 451c-91 0 -138 -230 -138 -323c0 -68 20 -96 59 -96c34 0 73 44 94 90l53 237c-4 51 -33 92 -68 92zM341 556h-30l-40 111
l-84 -111h-34l99 144h51z" />
    <glyph glyph-name="adieresis" unicode="&#xe4;" horiz-adv-x="368" 
d="M211 495c35 0 70 -26 84 -85l16 73h49l-107 -483h-49l15 64c-30 -51 -65 -76 -101 -76c-59 0 -92 51 -92 138c0 117 60 369 185 369zM216 451c-91 0 -138 -230 -138 -323c0 -68 20 -96 59 -96c34 0 73 44 94 90l53 237c-4 51 -33 92 -68 92zM358 604
c0 -21 -18 -39 -40 -39c-18 0 -32 14 -32 32c0 21 19 39 40 39c18 0 32 -13 32 -32zM227 604c0 -21 -19 -39 -40 -39c-18 0 -32 14 -32 32c0 21 19 39 40 39c18 0 32 -13 32 -32z" />
    <glyph glyph-name="agrave" unicode="&#xe0;" horiz-adv-x="368" 
d="M211 495c35 0 70 -26 84 -85l16 73h49l-107 -483h-49l15 64c-30 -51 -65 -76 -101 -76c-59 0 -92 51 -92 138c0 117 60 369 185 369zM216 451c-91 0 -138 -230 -138 -323c0 -68 20 -96 59 -96c34 0 73 44 94 90l53 237c-4 51 -33 92 -68 92zM281 556h-36l-65 144h54z" />
    <glyph glyph-name="amacron" unicode="&#x101;" horiz-adv-x="368" 
d="M211 495c35 0 70 -26 84 -85l16 73h49l-107 -483h-49l15 64c-30 -51 -65 -76 -101 -76c-59 0 -92 51 -92 138c0 117 60 369 185 369zM216 451c-91 0 -138 -230 -138 -323c0 -68 20 -96 59 -96c34 0 73 44 94 90l53 237c-4 51 -33 92 -68 92zM374 577h-244l8 36h243z" />
    <glyph glyph-name="aogonek" unicode="&#x105;" horiz-adv-x="368" 
d="M224 -119l26 -18c-14 -29 -37 -49 -70 -49c-36 0 -57 19 -57 56s18 86 81 132l15 62c-30 -51 -65 -76 -101 -76c-59 0 -92 51 -92 138c0 117 60 369 185 369c35 0 70 -26 84 -85l16 73h49l-107 -483c-48 -29 -96 -69 -96 -127c0 -17 11 -27 27 -27c20 0 33 15 40 35z
M216 451c-91 0 -138 -230 -138 -323c0 -68 20 -96 59 -96c34 0 73 44 94 90l53 237c-4 51 -33 92 -68 92z" />
    <glyph glyph-name="aring" unicode="&#xe5;" horiz-adv-x="368" 
d="M211 495c35 0 70 -26 84 -85l16 73h49l-107 -483h-49l15 64c-30 -51 -65 -76 -101 -76c-59 0 -92 51 -92 138c0 117 60 369 185 369zM216 451c-91 0 -138 -230 -138 -323c0 -68 20 -96 59 -96c34 0 73 44 94 90l53 237c-4 51 -33 92 -68 92zM254 542c-43 0 -72 32 -72 74
c0 47 43 89 89 89c43 0 72 -31 72 -74c0 -47 -42 -89 -89 -89zM256 572c31 0 57 26 57 57c0 26 -18 46 -43 46c-31 0 -58 -26 -58 -57c0 -25 18 -46 44 -46z" />
    <glyph glyph-name="atilde" unicode="&#xe3;" horiz-adv-x="368" 
d="M211 495c35 0 70 -26 84 -85l16 73h49l-107 -483h-49l15 64c-30 -51 -65 -76 -101 -76c-59 0 -92 51 -92 138c0 117 60 369 185 369zM216 451c-91 0 -138 -230 -138 -323c0 -68 20 -96 59 -96c34 0 73 44 94 90l53 237c-4 51 -33 92 -68 92zM290 554
c-62 0 -24 104 -65 104c-20 0 -38 -29 -53 -98h-31c16 73 41 134 91 134c63 0 26 -104 66 -104c20 0 38 29 53 98h32c-16 -72 -43 -134 -93 -134z" />
    <glyph glyph-name="uni1EA1" unicode="&#x1ea1;" horiz-adv-x="368" 
d="M211 495c35 0 70 -26 84 -85l16 73h49l-107 -483h-49l15 64c-30 -51 -65 -76 -101 -76c-59 0 -92 51 -92 138c0 117 60 369 185 369zM216 451c-91 0 -138 -230 -138 -323c0 -68 20 -96 59 -96c34 0 73 44 94 90l53 237c-4 51 -33 92 -68 92zM129 -137
c0 -22 -19 -40 -41 -40c-19 0 -33 14 -33 32c0 22 19 41 41 41c19 0 33 -14 33 -33z" />
    <glyph glyph-name="uni1EA3" unicode="&#x1ea3;" horiz-adv-x="368" 
d="M211 495c35 0 70 -26 84 -85l16 73h49l-107 -483h-49l15 64c-30 -51 -65 -76 -101 -76c-59 0 -92 51 -92 138c0 117 60 369 185 369zM216 451c-91 0 -138 -230 -138 -323c0 -68 20 -96 59 -96c34 0 73 44 94 90l53 237c-4 51 -33 92 -68 92zM227 599l-24 10
c11 22 28 41 57 41c30 0 46 -18 46 -45c0 -32 -17 -59 -38 -78h-31c24 21 40 46 40 73c1 13 -6 24 -20 24s-23 -9 -30 -25z" />
    <glyph glyph-name="uni1EA5" unicode="&#x1ea5;" horiz-adv-x="368" 
d="M211 495c35 0 70 -26 84 -85l16 73h49l-107 -483h-49l15 64c-30 -51 -65 -76 -101 -76c-59 0 -92 51 -92 138c0 117 60 369 185 369zM216 451c-91 0 -138 -230 -138 -323c0 -68 20 -96 59 -96c34 0 73 44 94 90l53 237c-4 51 -33 92 -68 92zM341 556h-30l-40 111
l-84 -111h-34l99 144h51zM496 771l-130 -144h-37l110 144h57z" />
    <glyph glyph-name="uni1EAD" unicode="&#x1ead;" horiz-adv-x="368" 
d="M211 495c35 0 70 -26 84 -85l16 73h49l-107 -483h-49l15 64c-30 -51 -65 -76 -101 -76c-59 0 -92 51 -92 138c0 117 60 369 185 369zM216 451c-91 0 -138 -230 -138 -323c0 -68 20 -96 59 -96c34 0 73 44 94 90l53 237c-4 51 -33 92 -68 92zM341 556h-30l-40 111
l-84 -111h-34l99 144h51zM129 -137c0 -22 -19 -40 -41 -40c-19 0 -33 14 -33 32c0 22 19 41 41 41c19 0 33 -14 33 -33z" />
    <glyph glyph-name="uni1EA7" unicode="&#x1ea7;" horiz-adv-x="368" 
d="M211 495c35 0 70 -26 84 -85l16 73h49l-107 -483h-49l15 64c-30 -51 -65 -76 -101 -76c-59 0 -92 51 -92 138c0 117 60 369 185 369zM216 451c-91 0 -138 -230 -138 -323c0 -68 20 -96 59 -96c34 0 73 44 94 90l53 237c-4 51 -33 92 -68 92zM341 556h-30l-40 111
l-84 -111h-34l99 144h51zM194 627h-36l-65 144h54z" />
    <glyph glyph-name="uni1EA9" unicode="&#x1ea9;" horiz-adv-x="368" 
d="M211 495c35 0 70 -26 84 -85l16 73h49l-107 -483h-49l15 64c-30 -51 -65 -76 -101 -76c-59 0 -92 51 -92 138c0 117 60 369 185 369zM216 451c-91 0 -138 -230 -138 -323c0 -68 20 -96 59 -96c34 0 73 44 94 90l53 237c-4 51 -33 92 -68 92zM341 556h-30l-40 111
l-84 -111h-34l99 144h51zM317 739l-24 10c11 22 28 41 57 41c30 0 46 -18 46 -45c0 -32 -17 -59 -38 -78h-31c24 21 40 46 40 73c1 13 -6 24 -20 24s-23 -9 -30 -25z" />
    <glyph glyph-name="uni1EAF" unicode="&#x1eaf;" horiz-adv-x="368" 
d="M211 495c35 0 70 -26 84 -85l16 73h49l-107 -483h-49l15 64c-30 -51 -65 -76 -101 -76c-59 0 -92 51 -92 138c0 117 60 369 185 369zM216 451c-91 0 -138 -230 -138 -323c0 -68 20 -96 59 -96c34 0 73 44 94 90l53 237c-4 51 -33 92 -68 92zM377 759l-130 -144h-37
l110 144h57zM368 587c-35 -37 -83 -59 -130 -59c-48 0 -86 22 -105 59l32 23c12 -28 45 -46 78 -46c34 0 74 18 97 46z" />
    <glyph glyph-name="uni1EAB" unicode="&#x1eab;" horiz-adv-x="368" 
d="M211 495c35 0 70 -26 84 -85l16 73h49l-107 -483h-49l15 64c-30 -51 -65 -76 -101 -76c-59 0 -92 51 -92 138c0 117 60 369 185 369zM216 451c-91 0 -138 -230 -138 -323c0 -68 20 -96 59 -96c34 0 73 44 94 90l53 237c-4 51 -33 92 -68 92zM334 523h-30l-40 111
l-84 -111h-34l99 144h51zM319 682c-62 0 -24 104 -65 104c-20 0 -38 -29 -53 -98h-31c16 73 41 134 91 134c63 0 26 -104 66 -104c20 0 38 29 53 98h32c-16 -72 -43 -134 -93 -134z" />
    <glyph glyph-name="uni1EB1" unicode="&#x1eb1;" horiz-adv-x="368" 
d="M211 495c35 0 70 -26 84 -85l16 73h49l-107 -483h-49l15 64c-30 -51 -65 -76 -101 -76c-59 0 -92 51 -92 138c0 117 60 369 185 369zM216 451c-91 0 -138 -230 -138 -323c0 -68 20 -96 59 -96c34 0 73 44 94 90l53 237c-4 51 -33 92 -68 92zM299 617h-36l-65 144h54z
M368 587c-35 -37 -83 -59 -130 -59c-48 0 -86 22 -105 59l32 23c12 -28 45 -46 78 -46c34 0 74 18 97 46z" />
    <glyph glyph-name="uni1EB3" unicode="&#x1eb3;" horiz-adv-x="368" 
d="M211 495c35 0 70 -26 84 -85l16 73h49l-107 -483h-49l15 64c-30 -51 -65 -76 -101 -76c-59 0 -92 51 -92 138c0 117 60 369 185 369zM216 451c-91 0 -138 -230 -138 -323c0 -68 20 -96 59 -96c34 0 73 44 94 90l53 237c-4 51 -33 92 -68 92zM248 684l-24 10
c11 22 28 41 57 41c30 0 46 -18 46 -45c0 -32 -17 -59 -38 -78h-31c24 21 40 46 40 73c1 13 -6 24 -20 24s-23 -9 -30 -25zM368 587c-35 -37 -83 -59 -130 -59c-48 0 -86 22 -105 59l32 23c12 -28 45 -46 78 -46c34 0 74 18 97 46z" />
    <glyph glyph-name="uni1EB5" unicode="&#x1eb5;" horiz-adv-x="368" 
d="M211 495c35 0 70 -26 84 -85l16 73h49l-107 -483h-49l15 64c-30 -51 -65 -76 -101 -76c-59 0 -92 51 -92 138c0 117 60 369 185 369zM216 451c-91 0 -138 -230 -138 -323c0 -68 20 -96 59 -96c34 0 73 44 94 90l53 237c-4 51 -33 92 -68 92zM368 587
c-35 -37 -83 -59 -130 -59c-48 0 -86 22 -105 59l32 23c12 -28 45 -46 78 -46c34 0 74 18 97 46zM307 632c-62 0 -24 104 -65 104c-20 0 -38 -29 -53 -98h-31c16 73 41 134 91 134c63 0 26 -104 66 -104c20 0 38 29 53 98h32c-16 -72 -43 -134 -93 -134z" />
    <glyph glyph-name="uni1EB7" unicode="&#x1eb7;" horiz-adv-x="368" 
d="M211 495c35 0 70 -26 84 -85l16 73h49l-107 -483h-49l15 64c-30 -51 -65 -76 -101 -76c-59 0 -92 51 -92 138c0 117 60 369 185 369zM216 451c-91 0 -138 -230 -138 -323c0 -68 20 -96 59 -96c34 0 73 44 94 90l53 237c-4 51 -33 92 -68 92zM129 -137
c0 -22 -19 -40 -41 -40c-19 0 -33 14 -33 32c0 22 19 41 41 41c19 0 33 -14 33 -33zM374 615c-35 -37 -83 -59 -130 -59c-48 0 -86 22 -105 59l32 23c12 -28 45 -46 78 -46c34 0 74 18 97 46z" />
    <glyph glyph-name="ae" unicode="&#xe6;" horiz-adv-x="575" 
d="M216 451c-91 0 -138 -230 -138 -323c0 -68 20 -96 59 -96c34 0 73 44 94 90l53 237c-4 51 -33 92 -68 92zM277 104l-24 -104h-49l15 64c-30 -51 -65 -76 -101 -76c-59 0 -92 51 -92 138c0 117 60 369 185 369c35 0 70 -26 84 -85l16 73h49l-16 -72c25 45 62 84 108 84
c59 0 100 -36 100 -140c0 -43 -8 -90 -19 -129h-229c-6 -29 -9 -56 -9 -80c0 -69 29 -116 85 -116c30 0 63 26 87 60l26 -33c-35 -46 -71 -69 -111 -69c-61 0 -98 33 -105 116zM312 265h181c6 29 10 56 10 85c0 55 -15 103 -63 103c-71 0 -114 -113 -128 -188z" />
    <glyph glyph-name="aeacute" unicode="&#x1fd;" horiz-adv-x="575" 
d="M484 700l-130 -144h-37l110 144h57zM216 451c-91 0 -138 -230 -138 -323c0 -68 20 -96 59 -96c34 0 73 44 94 90l53 237c-4 51 -33 92 -68 92zM277 104l-24 -104h-49l15 64c-30 -51 -65 -76 -101 -76c-59 0 -92 51 -92 138c0 117 60 369 185 369c35 0 70 -26 84 -85
l16 73h49l-16 -72c25 45 62 84 108 84c59 0 100 -36 100 -140c0 -43 -8 -90 -19 -129h-229c-6 -29 -9 -56 -9 -80c0 -69 29 -116 85 -116c30 0 63 26 87 60l26 -33c-35 -46 -71 -69 -111 -69c-61 0 -98 33 -105 116zM312 265h181c6 29 10 56 10 85c0 55 -15 103 -63 103
c-71 0 -114 -113 -128 -188z" />
    <glyph glyph-name="aacute.alt1" horiz-adv-x="359" 
d="M381 700l-130 -144h-37l110 144h57zM252 0h-49l10 48c-22 -39 -57 -60 -95 -60c-54 0 -101 38 -101 117c0 102 58 204 149 204c32 0 76 -22 89 -69l23 99c4 21 6 31 6 46c0 45 -27 68 -70 68c-32 0 -66 -15 -98 -45l-16 38c35 30 80 49 122 49c67 0 113 -32 113 -97
c0 -18 -2 -30 -7 -54zM135 26c30 0 62 20 87 65l25 108c-8 45 -37 71 -76 71c-67 0 -101 -94 -101 -162c0 -56 27 -82 65 -82z" />
    <glyph glyph-name="abreve.alt1" horiz-adv-x="359" 
d="M252 0h-49l10 48c-22 -39 -57 -60 -95 -60c-54 0 -101 38 -101 117c0 102 58 204 149 204c32 0 76 -22 89 -69l23 99c4 21 6 31 6 46c0 45 -27 68 -70 68c-32 0 -66 -15 -98 -45l-16 38c35 30 80 49 122 49c67 0 113 -32 113 -97c0 -18 -2 -30 -7 -54zM135 26
c30 0 62 20 87 65l25 108c-8 45 -37 71 -76 71c-67 0 -101 -94 -101 -162c0 -56 27 -82 65 -82zM376 615c-35 -37 -83 -59 -130 -59c-48 0 -86 22 -105 59l32 23c12 -28 45 -46 78 -46c34 0 74 18 97 46z" />
    <glyph glyph-name="acircumflex.alt1" horiz-adv-x="359" 
d="M343 556h-30l-40 111l-84 -111h-34l99 144h51zM252 0h-49l10 48c-22 -39 -57 -60 -95 -60c-54 0 -101 38 -101 117c0 102 58 204 149 204c32 0 76 -22 89 -69l23 99c4 21 6 31 6 46c0 45 -27 68 -70 68c-32 0 -66 -15 -98 -45l-16 38c35 30 80 49 122 49
c67 0 113 -32 113 -97c0 -18 -2 -30 -7 -54zM135 26c30 0 62 20 87 65l25 108c-8 45 -37 71 -76 71c-67 0 -101 -94 -101 -162c0 -56 27 -82 65 -82z" />
    <glyph glyph-name="adieresis.alt1" horiz-adv-x="359" 
d="M360 604c0 -21 -18 -39 -40 -39c-18 0 -32 14 -32 32c0 21 19 39 40 39c18 0 32 -13 32 -32zM229 604c0 -21 -19 -39 -40 -39c-18 0 -32 14 -32 32c0 21 19 39 40 39c18 0 32 -13 32 -32zM252 0h-49l10 48c-22 -39 -57 -60 -95 -60c-54 0 -101 38 -101 117
c0 102 58 204 149 204c32 0 76 -22 89 -69l23 99c4 21 6 31 6 46c0 45 -27 68 -70 68c-32 0 -66 -15 -98 -45l-16 38c35 30 80 49 122 49c67 0 113 -32 113 -97c0 -18 -2 -30 -7 -54zM135 26c30 0 62 20 87 65l25 108c-8 45 -37 71 -76 71c-67 0 -101 -94 -101 -162
c0 -56 27 -82 65 -82z" />
    <glyph glyph-name="agrave.alt1" horiz-adv-x="359" 
d="M252 0h-49l10 48c-22 -39 -57 -60 -95 -60c-54 0 -101 38 -101 117c0 102 58 204 149 204c32 0 76 -22 89 -69l23 99c4 21 6 31 6 46c0 45 -27 68 -70 68c-32 0 -66 -15 -98 -45l-16 38c35 30 80 49 122 49c67 0 113 -32 113 -97c0 -18 -2 -30 -7 -54zM135 26
c30 0 62 20 87 65l25 108c-8 45 -37 71 -76 71c-67 0 -101 -94 -101 -162c0 -56 27 -82 65 -82zM284 556h-36l-65 144h54z" />
    <glyph glyph-name="amacron.alt1" horiz-adv-x="359" 
d="M377 577h-244l8 36h243zM252 0h-49l10 48c-22 -39 -57 -60 -95 -60c-54 0 -101 38 -101 117c0 102 58 204 149 204c32 0 76 -22 89 -69l23 99c4 21 6 31 6 46c0 45 -27 68 -70 68c-32 0 -66 -15 -98 -45l-16 38c35 30 80 49 122 49c67 0 113 -32 113 -97
c0 -18 -2 -30 -7 -54zM135 26c30 0 62 20 87 65l25 108c-8 45 -37 71 -76 71c-67 0 -101 -94 -101 -162c0 -56 27 -82 65 -82z" />
    <glyph glyph-name="aogonek.alt1" horiz-adv-x="359" 
d="M252 0c-48 -29 -96 -69 -96 -127c0 -17 11 -27 27 -27c20 0 33 15 40 35l26 -18c-14 -29 -37 -49 -70 -49c-36 0 -57 19 -57 56s18 86 81 132l10 46c-22 -39 -57 -60 -95 -60c-54 0 -101 38 -101 117c0 102 58 204 149 204c32 0 76 -22 89 -69l23 99c4 21 6 31 6 46
c0 45 -27 68 -70 68c-32 0 -66 -15 -98 -45l-16 38c35 30 80 49 122 49c67 0 113 -32 113 -97c0 -18 -2 -30 -7 -54zM135 26c30 0 62 20 87 65l25 108c-8 45 -37 71 -76 71c-67 0 -101 -94 -101 -162c0 -56 27 -82 65 -82z" />
    <glyph glyph-name="aring.alt1" horiz-adv-x="359" 
d="M258 549c-43 0 -72 32 -72 74c0 47 43 89 89 89c43 0 72 -31 72 -74c0 -47 -42 -89 -89 -89zM260 579c31 0 57 26 57 57c0 26 -18 46 -43 46c-31 0 -58 -26 -58 -57c0 -25 18 -46 44 -46zM252 0h-49l10 48c-22 -39 -57 -60 -95 -60c-54 0 -101 38 -101 117
c0 102 58 204 149 204c32 0 76 -22 89 -69l23 99c4 21 6 31 6 46c0 45 -27 68 -70 68c-32 0 -66 -15 -98 -45l-16 38c35 30 80 49 122 49c67 0 113 -32 113 -97c0 -18 -2 -30 -7 -54zM135 26c30 0 62 20 87 65l25 108c-8 45 -37 71 -76 71c-67 0 -101 -94 -101 -162
c0 -56 27 -82 65 -82z" />
    <glyph glyph-name="atilde.alt1" horiz-adv-x="359" 
d="M252 0h-49l10 48c-22 -39 -57 -60 -95 -60c-54 0 -101 38 -101 117c0 102 58 204 149 204c32 0 76 -22 89 -69l23 99c4 21 6 31 6 46c0 45 -27 68 -70 68c-32 0 -66 -15 -98 -45l-16 38c35 30 80 49 122 49c67 0 113 -32 113 -97c0 -18 -2 -30 -7 -54zM135 26
c30 0 62 20 87 65l25 108c-8 45 -37 71 -76 71c-67 0 -101 -94 -101 -162c0 -56 27 -82 65 -82zM294 554c-62 0 -24 104 -65 104c-20 0 -38 -29 -53 -98h-31c16 73 41 134 91 134c63 0 26 -104 66 -104c20 0 38 29 53 98h32c-16 -72 -43 -134 -93 -134z" />
    <glyph glyph-name="uni1EA1.alt1" horiz-adv-x="359" 
d="M252 0h-49l10 48c-22 -39 -57 -60 -95 -60c-54 0 -101 38 -101 117c0 102 58 204 149 204c32 0 76 -22 89 -69l23 99c4 21 6 31 6 46c0 45 -27 68 -70 68c-32 0 -66 -15 -98 -45l-16 38c35 30 80 49 122 49c67 0 113 -32 113 -97c0 -18 -2 -30 -7 -54zM135 26
c30 0 62 20 87 65l25 108c-8 45 -37 71 -76 71c-67 0 -101 -94 -101 -162c0 -56 27 -82 65 -82zM132 -137c0 -22 -19 -40 -41 -40c-19 0 -33 14 -33 32c0 22 19 41 41 41c19 0 33 -14 33 -33z" />
    <glyph glyph-name="uni1EA3.alt1" horiz-adv-x="359" 
d="M252 0h-49l10 48c-22 -39 -57 -60 -95 -60c-54 0 -101 38 -101 117c0 102 58 204 149 204c32 0 76 -22 89 -69l23 99c4 21 6 31 6 46c0 45 -27 68 -70 68c-32 0 -66 -15 -98 -45l-16 38c35 30 80 49 122 49c67 0 113 -32 113 -97c0 -18 -2 -30 -7 -54zM135 26
c30 0 62 20 87 65l25 108c-8 45 -37 71 -76 71c-67 0 -101 -94 -101 -162c0 -56 27 -82 65 -82zM230 599l-24 10c11 22 28 41 57 41c30 0 46 -18 46 -45c0 -32 -17 -59 -38 -78h-31c24 21 40 46 40 73c1 13 -6 24 -20 24s-23 -9 -30 -25z" />
    <glyph glyph-name="uni1EA5.alt1" horiz-adv-x="359" 
d="M345 556h-30l-40 111l-84 -111h-34l99 144h51zM499 771l-130 -144h-37l110 144h57zM252 0h-49l10 48c-22 -39 -57 -60 -95 -60c-54 0 -101 38 -101 117c0 102 58 204 149 204c32 0 76 -22 89 -69l23 99c4 21 6 31 6 46c0 45 -27 68 -70 68c-32 0 -66 -15 -98 -45l-16 38
c35 30 80 49 122 49c67 0 113 -32 113 -97c0 -18 -2 -30 -7 -54zM135 26c30 0 62 20 87 65l25 108c-8 45 -37 71 -76 71c-67 0 -101 -94 -101 -162c0 -56 27 -82 65 -82z" />
    <glyph glyph-name="uni1EAD.alt1" horiz-adv-x="359" 
d="M344 556h-30l-40 111l-84 -111h-34l99 144h51zM252 0h-49l10 48c-22 -39 -57 -60 -95 -60c-54 0 -101 38 -101 117c0 102 58 204 149 204c32 0 76 -22 89 -69l23 99c4 21 6 31 6 46c0 45 -27 68 -70 68c-32 0 -66 -15 -98 -45l-16 38c35 30 80 49 122 49
c67 0 113 -32 113 -97c0 -18 -2 -30 -7 -54zM135 26c30 0 62 20 87 65l25 108c-8 45 -37 71 -76 71c-67 0 -101 -94 -101 -162c0 -56 27 -82 65 -82zM132 -137c0 -22 -19 -40 -41 -40c-19 0 -33 14 -33 32c0 22 19 41 41 41c19 0 33 -14 33 -33z" />
    <glyph glyph-name="uni1EA7.alt1" horiz-adv-x="359" 
d="M344 556h-30l-40 111l-84 -111h-34l99 144h51zM252 0h-49l10 48c-22 -39 -57 -60 -95 -60c-54 0 -101 38 -101 117c0 102 58 204 149 204c32 0 76 -22 89 -69l23 99c4 21 6 31 6 46c0 45 -27 68 -70 68c-32 0 -66 -15 -98 -45l-16 38c35 30 80 49 122 49
c67 0 113 -32 113 -97c0 -18 -2 -30 -7 -54zM135 26c30 0 62 20 87 65l25 108c-8 45 -37 71 -76 71c-67 0 -101 -94 -101 -162c0 -56 27 -82 65 -82zM198 627h-36l-65 144h54z" />
    <glyph glyph-name="uni1EA9.alt1" horiz-adv-x="359" 
d="M344 556h-30l-40 111l-84 -111h-34l99 144h51zM252 0h-49l10 48c-22 -39 -57 -60 -95 -60c-54 0 -101 38 -101 117c0 102 58 204 149 204c32 0 76 -22 89 -69l23 99c4 21 6 31 6 46c0 45 -27 68 -70 68c-32 0 -66 -15 -98 -45l-16 38c35 30 80 49 122 49
c67 0 113 -32 113 -97c0 -18 -2 -30 -7 -54zM135 26c30 0 62 20 87 65l25 108c-8 45 -37 71 -76 71c-67 0 -101 -94 -101 -162c0 -56 27 -82 65 -82zM320 739l-24 10c11 22 28 41 57 41c30 0 46 -18 46 -45c0 -32 -17 -59 -38 -78h-31c24 21 40 46 40 73c1 13 -6 24 -20 24
s-23 -9 -30 -25z" />
    <glyph glyph-name="uni1EAF.alt1" horiz-adv-x="359" 
d="M384 759l-130 -144h-37l110 144h57zM252 0h-49l10 48c-22 -39 -57 -60 -95 -60c-54 0 -101 38 -101 117c0 102 58 204 149 204c32 0 76 -22 89 -69l23 99c4 21 6 31 6 46c0 45 -27 68 -70 68c-32 0 -66 -15 -98 -45l-16 38c35 30 80 49 122 49c67 0 113 -32 113 -97
c0 -18 -2 -30 -7 -54zM135 26c30 0 62 20 87 65l25 108c-8 45 -37 71 -76 71c-67 0 -101 -94 -101 -162c0 -56 27 -82 65 -82zM370 587c-35 -37 -83 -59 -130 -59c-48 0 -86 22 -105 59l32 23c12 -28 45 -46 78 -46c34 0 74 18 97 46z" />
    <glyph glyph-name="uni1EAB.alt1" horiz-adv-x="359" 
d="M336 523h-30l-40 111l-84 -111h-34l99 144h51zM252 0h-49l10 48c-22 -39 -57 -60 -95 -60c-54 0 -101 38 -101 117c0 102 58 204 149 204c32 0 76 -22 89 -69l23 99c4 21 6 31 6 46c0 45 -27 68 -70 68c-32 0 -66 -15 -98 -45l-16 38c35 30 80 49 122 49
c67 0 113 -32 113 -97c0 -18 -2 -30 -7 -54zM135 26c30 0 62 20 87 65l25 108c-8 45 -37 71 -76 71c-67 0 -101 -94 -101 -162c0 -56 27 -82 65 -82zM322 682c-62 0 -24 104 -65 104c-20 0 -38 -29 -53 -98h-31c16 73 41 134 91 134c63 0 26 -104 66 -104c20 0 38 29 53 98
h32c-16 -72 -43 -134 -93 -134z" />
    <glyph glyph-name="uni1EB1.alt1" horiz-adv-x="359" 
d="M252 0h-49l10 48c-22 -39 -57 -60 -95 -60c-54 0 -101 38 -101 117c0 102 58 204 149 204c32 0 76 -22 89 -69l23 99c4 21 6 31 6 46c0 45 -27 68 -70 68c-32 0 -66 -15 -98 -45l-16 38c35 30 80 49 122 49c67 0 113 -32 113 -97c0 -18 -2 -30 -7 -54zM135 26
c30 0 62 20 87 65l25 108c-8 45 -37 71 -76 71c-67 0 -101 -94 -101 -162c0 -56 27 -82 65 -82zM307 617h-36l-65 144h54zM370 587c-35 -37 -83 -59 -130 -59c-48 0 -86 22 -105 59l32 23c12 -28 45 -46 78 -46c34 0 74 18 97 46z" />
    <glyph glyph-name="uni1EB3.alt1" horiz-adv-x="359" 
d="M252 0h-49l10 48c-22 -39 -57 -60 -95 -60c-54 0 -101 38 -101 117c0 102 58 204 149 204c32 0 76 -22 89 -69l23 99c4 21 6 31 6 46c0 45 -27 68 -70 68c-32 0 -66 -15 -98 -45l-16 38c35 30 80 49 122 49c67 0 113 -32 113 -97c0 -18 -2 -30 -7 -54zM135 26
c30 0 62 20 87 65l25 108c-8 45 -37 71 -76 71c-67 0 -101 -94 -101 -162c0 -56 27 -82 65 -82zM248 684l-24 10c11 22 28 41 57 41c30 0 46 -18 46 -45c0 -32 -17 -59 -38 -78h-31c24 21 40 46 40 73c1 13 -6 24 -20 24s-23 -9 -30 -25zM370 587c-35 -37 -83 -59 -130 -59
c-48 0 -86 22 -105 59l32 23c12 -28 45 -46 78 -46c34 0 74 18 97 46z" />
    <glyph glyph-name="uni1EB5.alt1" horiz-adv-x="359" 
d="M370 587c-35 -37 -83 -59 -130 -59c-48 0 -86 22 -105 59l32 23c12 -28 45 -46 78 -46c34 0 74 18 97 46zM252 0h-49l10 48c-22 -39 -57 -60 -95 -60c-54 0 -101 38 -101 117c0 102 58 204 149 204c32 0 76 -22 89 -69l23 99c4 21 6 31 6 46c0 45 -27 68 -70 68
c-32 0 -66 -15 -98 -45l-16 38c35 30 80 49 122 49c67 0 113 -32 113 -97c0 -18 -2 -30 -7 -54zM135 26c30 0 62 20 87 65l25 108c-8 45 -37 71 -76 71c-67 0 -101 -94 -101 -162c0 -56 27 -82 65 -82zM310 632c-62 0 -24 104 -65 104c-20 0 -38 -29 -53 -98h-31
c16 73 41 134 91 134c63 0 26 -104 66 -104c20 0 38 29 53 98h32c-16 -72 -43 -134 -93 -134z" />
    <glyph glyph-name="uni1EB7.alt1" horiz-adv-x="359" 
d="M252 0h-49l10 48c-22 -39 -57 -60 -95 -60c-54 0 -101 38 -101 117c0 102 58 204 149 204c32 0 76 -22 89 -69l23 99c4 21 6 31 6 46c0 45 -27 68 -70 68c-32 0 -66 -15 -98 -45l-16 38c35 30 80 49 122 49c67 0 113 -32 113 -97c0 -18 -2 -30 -7 -54zM135 26
c30 0 62 20 87 65l25 108c-8 45 -37 71 -76 71c-67 0 -101 -94 -101 -162c0 -56 27 -82 65 -82zM132 -137c0 -22 -19 -40 -41 -40c-19 0 -33 14 -33 32c0 22 19 41 41 41c19 0 33 -14 33 -33zM376 615c-35 -37 -83 -59 -130 -59c-48 0 -86 22 -105 59l32 23
c12 -28 45 -46 78 -46c34 0 74 18 97 46z" />
    <glyph glyph-name="ae.alt1" horiz-adv-x="572" 
d="M530 226h-227c-6 -29 -10 -56 -10 -80c0 -70 26 -116 80 -116c28 0 60 21 88 59l26 -31c-36 -44 -72 -70 -118 -70c-70 0 -103 47 -110 105c-24 -58 -73 -105 -134 -105c-64 0 -108 42 -108 118c0 109 61 203 149 203c32 0 79 -19 93 -65l21 95c4 17 6 32 6 45
c0 45 -27 69 -72 69c-32 0 -64 -13 -98 -45l-16 38c39 33 81 49 122 49c69 0 97 -33 100 -86c27 49 64 86 118 86c63 0 108 -41 108 -143c0 -41 -8 -90 -18 -126zM311 265h178c7 26 11 56 11 82c0 58 -20 106 -66 106c-73 0 -106 -113 -123 -188zM237 147l12 52
c-7 51 -44 71 -77 71c-63 0 -102 -87 -102 -160c0 -53 24 -80 65 -80c49 0 87 51 102 117z" />
    <glyph glyph-name="aeacute.alt1" horiz-adv-x="572" 
d="M530 226h-227c-6 -29 -10 -56 -10 -80c0 -70 26 -116 80 -116c28 0 60 21 88 59l26 -31c-36 -44 -72 -70 -118 -70c-70 0 -103 47 -110 105c-24 -58 -73 -105 -134 -105c-64 0 -108 42 -108 118c0 109 61 203 149 203c32 0 79 -19 93 -65l21 95c4 17 6 32 6 45
c0 45 -27 69 -72 69c-32 0 -64 -13 -98 -45l-16 38c39 33 81 49 122 49c69 0 97 -33 100 -86c27 49 64 86 118 86c63 0 108 -41 108 -143c0 -41 -8 -90 -18 -126zM311 265h178c7 26 11 56 11 82c0 58 -20 106 -66 106c-73 0 -106 -113 -123 -188zM237 147l12 52
c-7 51 -44 71 -77 71c-63 0 -102 -87 -102 -160c0 -53 24 -80 65 -80c49 0 87 51 102 117zM482 700l-130 -144h-37l110 144h57z" />
    <glyph glyph-name="uni1E03" unicode="&#x1e03;" horiz-adv-x="368" 
d="M155 -12c-35 0 -70 26 -84 85l-15 -73h-49l147 667h49l-55 -248c30 51 65 76 101 76c59 0 91 -51 91 -138c0 -116 -59 -369 -185 -369zM151 32c90 0 138 230 138 323c0 68 -20 96 -59 96c-35 0 -74 -44 -95 -90l-53 -237c4 -51 34 -92 69 -92zM343 769
c0 -22 -19 -40 -41 -40c-19 0 -33 14 -33 32c0 22 19 41 41 41c19 0 33 -14 33 -33z" />
    <glyph glyph-name="cacute" unicode="&#x107;" horiz-adv-x="306" 
d="M390 700l-130 -144h-37l110 144h57zM148 -12c-72 0 -119 49 -119 159c0 128 66 348 203 348c40 0 71 -19 90 -49l-31 -35c-14 28 -37 40 -60 40c-103 0 -150 -206 -150 -306c0 -81 29 -113 73 -113c26 0 47 13 65 34l18 -38c-30 -29 -54 -40 -89 -40z" />
    <glyph glyph-name="ccedilla" unicode="&#xe7;" horiz-adv-x="306" 
d="M101 -189c-32 0 -57 11 -77 36l22 29c14 -22 34 -32 57 -32c31 0 54 25 54 54c0 17 -10 28 -27 28c-12 0 -20 -5 -29 -14l-23 15l38 65c-54 12 -87 62 -87 155c0 128 66 348 203 348c40 0 71 -19 90 -49l-31 -35c-14 28 -37 40 -60 40c-103 0 -150 -206 -150 -306
c0 -81 29 -113 73 -113c26 0 47 13 65 34l18 -38c-30 -28 -53 -39 -87 -40l-28 -46c7 7 17 10 24 10c28 0 47 -23 47 -53c0 -49 -42 -88 -92 -88z" />
    <glyph glyph-name="ccircumflex" unicode="&#x109;" horiz-adv-x="306" 
d="M353 556h-30l-40 111l-84 -111h-34l99 144h51zM148 -12c-72 0 -119 49 -119 159c0 128 66 348 203 348c40 0 71 -19 90 -49l-31 -35c-14 28 -37 40 -60 40c-103 0 -150 -206 -150 -306c0 -81 29 -113 73 -113c26 0 47 13 65 34l18 -38c-30 -29 -54 -40 -89 -40z" />
    <glyph glyph-name="cdotaccent" unicode="&#x10b;" horiz-adv-x="306" 
d="M148 -12c-72 0 -119 49 -119 159c0 128 66 348 203 348c40 0 71 -19 90 -49l-31 -35c-14 28 -37 40 -60 40c-103 0 -150 -206 -150 -306c0 -81 29 -113 73 -113c26 0 47 13 65 34l18 -38c-30 -29 -54 -40 -89 -40zM306 602c0 -22 -19 -40 -41 -40c-19 0 -33 14 -33 32
c0 22 19 41 41 41c19 0 33 -14 33 -33z" />
    <glyph glyph-name="ccaron" unicode="&#x10d;" horiz-adv-x="306" 
d="M286 556h-51l-38 144h30l39 -111l85 111h34zM148 -12c-72 0 -119 49 -119 159c0 128 66 348 203 348c40 0 71 -19 90 -49l-31 -35c-14 28 -37 40 -60 40c-103 0 -150 -206 -150 -306c0 -81 29 -113 73 -113c26 0 47 13 65 34l18 -38c-30 -29 -54 -40 -89 -40z" />
    <glyph glyph-name="dcaron" unicode="&#x10f;" horiz-adv-x="437" 
d="M522 636c0 -53 -46 -110 -95 -136l-21 24c36 18 65 51 74 81h-7c-16 0 -30 14 -30 32c0 23 19 42 41 42s38 -14 38 -43zM211 495c35 0 70 -26 84 -85l57 257h49l-148 -667h-49l15 64c-30 -51 -65 -76 -101 -76c-59 0 -92 51 -92 138c0 117 60 369 185 369zM216 451
c-91 0 -138 -230 -138 -323c0 -68 20 -96 59 -96c34 0 73 44 94 90l53 237c-4 51 -33 92 -68 92z" />
    <glyph glyph-name="dcroat" unicode="&#x111;" horiz-adv-x="378" 
d="M211 495c35 0 70 -26 84 -85l28 128h-128l7 36h129l21 93h49l-21 -93h40l-7 -36h-41l-119 -538h-49l15 64c-30 -51 -65 -76 -101 -76c-59 0 -92 51 -92 138c0 117 60 369 185 369zM216 451c-91 0 -138 -230 -138 -323c0 -68 20 -96 59 -96c34 0 73 44 94 90l53 237
c-4 51 -33 92 -68 92z" />
    <glyph glyph-name="uni1E0B" unicode="&#x1e0b;" horiz-adv-x="368" 
d="M211 495c35 0 70 -26 84 -85l57 257h49l-148 -667h-49l15 64c-30 -51 -65 -76 -101 -76c-59 0 -92 51 -92 138c0 117 60 369 185 369zM216 451c-91 0 -138 -230 -138 -323c0 -68 20 -96 59 -96c34 0 73 44 94 90l53 237c-4 51 -33 92 -68 92zM331 769
c0 -22 -19 -40 -41 -40c-19 0 -33 14 -33 32c0 22 19 41 41 41c19 0 33 -14 33 -33z" />
    <glyph glyph-name="eacute" unicode="&#xe9;" 
d="M389 700l-130 -144h-37l110 144h57zM157 -12c-79 0 -129 51 -129 159c0 87 48 348 196 348c65 0 112 -39 112 -143c0 -42 -8 -89 -18 -126h-232c-6 -29 -9 -56 -9 -80c0 -69 27 -116 84 -116c30 0 64 25 87 59l27 -31c-36 -46 -76 -70 -118 -70zM93 265h184
c7 29 11 56 11 85c0 55 -20 103 -67 103c-72 0 -113 -113 -128 -188z" />
    <glyph glyph-name="ebreve" unicode="&#x115;" 
d="M157 -12c-79 0 -129 51 -129 159c0 87 48 348 196 348c65 0 112 -39 112 -143c0 -42 -8 -89 -18 -126h-232c-6 -29 -9 -56 -9 -80c0 -69 27 -116 84 -116c30 0 64 25 87 59l27 -31c-36 -46 -76 -70 -118 -70zM93 265h184c7 29 11 56 11 85c0 55 -20 103 -67 103
c-72 0 -113 -113 -128 -188zM385 615c-35 -37 -83 -59 -130 -59c-48 0 -86 22 -105 59l32 23c12 -28 45 -46 78 -46c34 0 74 18 97 46z" />
    <glyph glyph-name="ecircumflex" unicode="&#xea;" 
d="M351 556h-30l-40 111l-84 -111h-34l99 144h51zM157 -12c-79 0 -129 51 -129 159c0 87 48 348 196 348c65 0 112 -39 112 -143c0 -42 -8 -89 -18 -126h-232c-6 -29 -9 -56 -9 -80c0 -69 27 -116 84 -116c30 0 64 25 87 59l27 -31c-36 -46 -76 -70 -118 -70zM93 265h184
c7 29 11 56 11 85c0 55 -20 103 -67 103c-72 0 -113 -113 -128 -188z" />
    <glyph glyph-name="edieresis" unicode="&#xeb;" 
d="M368 604c0 -21 -18 -39 -40 -39c-18 0 -32 14 -32 32c0 21 19 39 40 39c18 0 32 -13 32 -32zM237 604c0 -21 -19 -39 -40 -39c-18 0 -32 14 -32 32c0 21 19 39 40 39c18 0 32 -13 32 -32zM157 -12c-79 0 -129 51 -129 159c0 87 48 348 196 348c65 0 112 -39 112 -143
c0 -42 -8 -89 -18 -126h-232c-6 -29 -9 -56 -9 -80c0 -69 27 -116 84 -116c30 0 64 25 87 59l27 -31c-36 -46 -76 -70 -118 -70zM93 265h184c7 29 11 56 11 85c0 55 -20 103 -67 103c-72 0 -113 -113 -128 -188z" />
    <glyph glyph-name="edotaccent" unicode="&#x117;" 
d="M157 -12c-79 0 -129 51 -129 159c0 87 48 348 196 348c65 0 112 -39 112 -143c0 -42 -8 -89 -18 -126h-232c-6 -29 -9 -56 -9 -80c0 -69 27 -116 84 -116c30 0 64 25 87 59l27 -31c-36 -46 -76 -70 -118 -70zM93 265h184c7 29 11 56 11 85c0 55 -20 103 -67 103
c-72 0 -113 -113 -128 -188zM305 602c0 -22 -19 -40 -41 -40c-19 0 -33 14 -33 32c0 22 19 41 41 41c19 0 33 -14 33 -33z" />
    <glyph glyph-name="egrave" unicode="&#xe8;" 
d="M157 -12c-79 0 -129 51 -129 159c0 87 48 348 196 348c65 0 112 -39 112 -143c0 -42 -8 -89 -18 -126h-232c-6 -29 -9 -56 -9 -80c0 -69 27 -116 84 -116c30 0 64 25 87 59l27 -31c-36 -46 -76 -70 -118 -70zM93 265h184c7 29 11 56 11 85c0 55 -20 103 -67 103
c-72 0 -113 -113 -128 -188zM292 556h-36l-65 144h54z" />
    <glyph glyph-name="emacron" unicode="&#x113;" 
d="M157 -12c-79 0 -129 51 -129 159c0 87 48 348 196 348c65 0 112 -39 112 -143c0 -42 -8 -89 -18 -126h-232c-6 -29 -9 -56 -9 -80c0 -69 27 -116 84 -116c30 0 64 25 87 59l27 -31c-36 -46 -76 -70 -118 -70zM93 265h184c7 29 11 56 11 85c0 55 -20 103 -67 103
c-72 0 -113 -113 -128 -188zM385 577h-244l8 36h243z" />
    <glyph glyph-name="eogonek" unicode="&#x119;" 
d="M179 -119l26 -18c-14 -29 -37 -49 -70 -49c-36 0 -57 19 -57 56c0 33 15 77 64 119c-71 6 -114 57 -114 158c0 87 48 348 196 348c65 0 112 -39 112 -143c0 -42 -8 -89 -18 -126h-232c-6 -29 -9 -56 -9 -80c0 -69 27 -116 84 -116c30 0 64 25 87 59l27 -31
c-21 -27 -44 -47 -67 -58c-48 -29 -96 -69 -96 -127c0 -17 11 -27 27 -27c20 0 33 15 40 35zM93 265h184c7 29 11 56 11 85c0 55 -20 103 -67 103c-72 0 -113 -113 -128 -188z" />
    <glyph glyph-name="ecaron" unicode="&#x11b;" 
d="M285 556h-51l-38 144h30l39 -111l85 111h34zM157 -12c-79 0 -129 51 -129 159c0 87 48 348 196 348c65 0 112 -39 112 -143c0 -42 -8 -89 -18 -126h-232c-6 -29 -9 -56 -9 -80c0 -69 27 -116 84 -116c30 0 64 25 87 59l27 -31c-36 -46 -76 -70 -118 -70zM93 265h184
c7 29 11 56 11 85c0 55 -20 103 -67 103c-72 0 -113 -113 -128 -188z" />
    <glyph glyph-name="uni1EB9" unicode="&#x1eb9;" 
d="M157 -12c-79 0 -129 51 -129 159c0 87 48 348 196 348c65 0 112 -39 112 -143c0 -42 -8 -89 -18 -126h-232c-6 -29 -9 -56 -9 -80c0 -69 27 -116 84 -116c30 0 64 25 87 59l27 -31c-36 -46 -76 -70 -118 -70zM93 265h184c7 29 11 56 11 85c0 55 -20 103 -67 103
c-72 0 -113 -113 -128 -188zM141 -137c0 -22 -19 -40 -41 -40c-19 0 -33 14 -33 32c0 22 19 41 41 41c19 0 33 -14 33 -33z" />
    <glyph glyph-name="uni1EBB" unicode="&#x1ebb;" 
d="M157 -12c-79 0 -129 51 -129 159c0 87 48 348 196 348c65 0 112 -39 112 -143c0 -42 -8 -89 -18 -126h-232c-6 -29 -9 -56 -9 -80c0 -69 27 -116 84 -116c30 0 64 25 87 59l27 -31c-36 -46 -76 -70 -118 -70zM93 265h184c7 29 11 56 11 85c0 55 -20 103 -67 103
c-72 0 -113 -113 -128 -188zM238 599l-24 10c11 22 28 41 57 41c30 0 46 -18 46 -45c0 -32 -17 -59 -38 -78h-31c24 21 40 46 40 73c1 13 -6 24 -20 24s-23 -9 -30 -25z" />
    <glyph glyph-name="uni1EBD" unicode="&#x1ebd;" 
d="M157 -12c-79 0 -129 51 -129 159c0 87 48 348 196 348c65 0 112 -39 112 -143c0 -42 -8 -89 -18 -126h-232c-6 -29 -9 -56 -9 -80c0 -69 27 -116 84 -116c30 0 64 25 87 59l27 -31c-36 -46 -76 -70 -118 -70zM93 265h184c7 29 11 56 11 85c0 55 -20 103 -67 103
c-72 0 -113 -113 -128 -188zM302 554c-62 0 -24 104 -65 104c-20 0 -38 -29 -53 -98h-31c16 73 41 134 91 134c63 0 26 -104 66 -104c20 0 38 29 53 98h32c-16 -72 -43 -134 -93 -134z" />
    <glyph glyph-name="uni1EBF" unicode="&#x1ebf;" 
d="M352 556h-30l-40 111l-84 -111h-34l99 144h51zM506 771l-130 -144h-37l110 144h57zM157 -12c-79 0 -129 51 -129 159c0 87 48 348 196 348c65 0 112 -39 112 -143c0 -42 -8 -89 -18 -126h-232c-6 -29 -9 -56 -9 -80c0 -69 27 -116 84 -116c30 0 64 25 87 59l27 -31
c-36 -46 -76 -70 -118 -70zM93 265h184c7 29 11 56 11 85c0 55 -20 103 -67 103c-72 0 -113 -113 -128 -188z" />
    <glyph glyph-name="uni1EC1" unicode="&#x1ec1;" 
d="M352 556h-30l-40 111l-84 -111h-34l99 144h51zM157 -12c-79 0 -129 51 -129 159c0 87 48 348 196 348c65 0 112 -39 112 -143c0 -42 -8 -89 -18 -126h-232c-6 -29 -9 -56 -9 -80c0 -69 27 -116 84 -116c30 0 64 25 87 59l27 -31c-36 -46 -76 -70 -118 -70zM93 265h184
c7 29 11 56 11 85c0 55 -20 103 -67 103c-72 0 -113 -113 -128 -188zM205 627h-36l-65 144h54z" />
    <glyph glyph-name="uni1EC3" unicode="&#x1ec3;" 
d="M352 556h-30l-40 111l-84 -111h-34l99 144h51zM157 -12c-79 0 -129 51 -129 159c0 87 48 348 196 348c65 0 112 -39 112 -143c0 -42 -8 -89 -18 -126h-232c-6 -29 -9 -56 -9 -80c0 -69 27 -116 84 -116c30 0 64 25 87 59l27 -31c-36 -46 -76 -70 -118 -70zM93 265h184
c7 29 11 56 11 85c0 55 -20 103 -67 103c-72 0 -113 -113 -128 -188zM327 739l-24 10c11 22 28 41 57 41c30 0 46 -18 46 -45c0 -32 -17 -59 -38 -78h-31c24 21 40 46 40 73c1 13 -6 24 -20 24s-23 -9 -30 -25z" />
    <glyph glyph-name="uni1EC5" unicode="&#x1ec5;" 
d="M345 523h-30l-40 111l-84 -111h-34l99 144h51zM157 -12c-79 0 -129 51 -129 159c0 87 48 348 196 348c65 0 112 -39 112 -143c0 -42 -8 -89 -18 -126h-232c-6 -29 -9 -56 -9 -80c0 -69 27 -116 84 -116c30 0 64 25 87 59l27 -31c-36 -46 -76 -70 -118 -70zM93 265h184
c7 29 11 56 11 85c0 55 -20 103 -67 103c-72 0 -113 -113 -128 -188zM330 682c-62 0 -24 104 -65 104c-20 0 -38 -29 -53 -98h-31c16 73 41 134 91 134c63 0 26 -104 66 -104c20 0 38 29 53 98h32c-16 -72 -43 -134 -93 -134z" />
    <glyph glyph-name="uni1EC7" unicode="&#x1ec7;" 
d="M351 556h-30l-40 111l-84 -111h-34l99 144h51zM157 -12c-79 0 -129 51 -129 159c0 87 48 348 196 348c65 0 112 -39 112 -143c0 -42 -8 -89 -18 -126h-232c-6 -29 -9 -56 -9 -80c0 -69 27 -116 84 -116c30 0 64 25 87 59l27 -31c-36 -46 -76 -70 -118 -70zM93 265h184
c7 29 11 56 11 85c0 55 -20 103 -67 103c-72 0 -113 -113 -128 -188zM141 -137c0 -22 -19 -40 -41 -40c-19 0 -33 14 -33 32c0 22 19 41 41 41c19 0 33 -14 33 -33z" />
    <glyph glyph-name="fl.alt1" horiz-adv-x="410" 
d="M69 0h-49l98 440h-49l9 43h49l20 94c16 73 57 100 104 100c16 0 31 -4 44 -10l-21 -40c-7 4 -16 6 -22 6c-30 0 -48 -21 -56 -56l-20 -94h68l-10 -43h-67zM303 -12c-44 0 -70 20 -70 63c0 10 1 21 5 34l129 582h49l-128 -577c-2 -9 -4 -19 -4 -27c0 -22 11 -31 30 -31
c14 0 23 5 33 17l14 -37c-15 -14 -33 -24 -58 -24z" />
    <glyph glyph-name="f_f_l.alt1" horiz-adv-x="623" 
d="M282 0h-49l98 440h-49l9 43h49l20 94c16 73 57 100 104 100c16 0 31 -4 44 -10l-21 -40c-7 4 -16 6 -22 6c-30 0 -48 -21 -56 -56l-20 -94h68l-10 -43h-67zM516 -12c-44 0 -70 20 -70 63c0 10 1 21 5 34l129 582h49l-128 -577c-2 -9 -4 -19 -4 -27c0 -22 11 -31 30 -31
c14 0 23 5 33 17l14 -37c-15 -14 -33 -24 -58 -24zM69 0h-49l98 440h-49l9 43h49l20 94c13 59 47 100 104 100c25 0 53 -11 64 -28l-28 -37c-9 16 -22 21 -35 21c-31 0 -48 -21 -56 -56l-20 -94h68l-10 -43h-67z" />
    <glyph glyph-name="uni1E1F" unicode="&#x1e1f;" horiz-adv-x="213" 
d="M300 769c0 -22 -19 -40 -41 -40c-19 0 -33 14 -33 32c0 22 19 41 41 41c19 0 33 -14 33 -33zM69 0h-49l98 440h-49l9 43h49l20 94c13 59 47 100 104 100c25 0 53 -11 64 -28l-28 -37c-9 16 -22 21 -35 21c-31 0 -48 -21 -56 -56l-20 -94h68l-10 -43h-67z" />
    <glyph glyph-name="gcircumflex" unicode="&#x11d;" horiz-adv-x="368" 
d="M338 550h-30l-40 111l-84 -111h-34l99 144h51zM90 -196c-44 0 -93 18 -121 54l32 39c17 -27 51 -49 90 -49c52 0 87 37 106 121l24 99c-29 -50 -65 -76 -102 -76c-53 0 -92 41 -92 136c0 114 56 367 185 367c34 0 74 -31 85 -85l15 73h48l-113 -510
c-28 -124 -81 -169 -157 -169zM137 36c36 0 74 44 95 90l52 233c-3 45 -32 92 -69 92c-87 0 -137 -219 -137 -319c0 -73 23 -96 59 -96z" />
    <glyph glyph-name="gbreve" unicode="&#x11f;" horiz-adv-x="368" 
d="M90 -196c-44 0 -93 18 -121 54l32 39c17 -27 51 -49 90 -49c52 0 87 37 106 121l24 99c-29 -50 -65 -76 -102 -76c-53 0 -92 41 -92 136c0 114 56 367 185 367c34 0 74 -31 85 -85l15 73h48l-113 -510c-28 -124 -81 -169 -157 -169zM137 36c36 0 74 44 95 90l52 233
c-3 45 -32 92 -69 92c-87 0 -137 -219 -137 -319c0 -73 23 -96 59 -96zM373 615c-35 -37 -83 -59 -130 -59c-48 0 -86 22 -105 59l32 23c12 -28 45 -46 78 -46c34 0 74 18 97 46z" />
    <glyph glyph-name="gdotaccent" unicode="&#x121;" horiz-adv-x="368" 
d="M90 -196c-44 0 -93 18 -121 54l32 39c17 -27 51 -49 90 -49c52 0 87 37 106 121l24 99c-29 -50 -65 -76 -102 -76c-53 0 -92 41 -92 136c0 114 56 367 185 367c34 0 74 -31 85 -85l15 73h48l-113 -510c-28 -124 -81 -169 -157 -169zM137 36c36 0 74 44 95 90l52 233
c-3 45 -32 92 -69 92c-87 0 -137 -219 -137 -319c0 -73 23 -96 59 -96zM293 602c0 -22 -19 -40 -41 -40c-19 0 -33 14 -33 32c0 22 19 41 41 41c19 0 33 -14 33 -33z" />
    <glyph glyph-name="gcommaaccent" unicode="&#x123;" horiz-adv-x="368" 
d="M216 606c0 53 47 110 95 136l22 -23c-36 -19 -66 -52 -74 -82h6c17 0 31 -15 31 -32c0 -24 -20 -43 -42 -43s-38 15 -38 44zM90 -196c-44 0 -93 18 -121 54l32 39c17 -27 51 -49 90 -49c52 0 87 37 106 121l24 99c-29 -50 -65 -76 -102 -76c-53 0 -92 41 -92 136
c0 114 56 367 185 367c34 0 74 -31 85 -85l15 73h48l-113 -510c-28 -124 -81 -169 -157 -169zM137 36c36 0 74 44 95 90l52 233c-3 45 -32 92 -69 92c-87 0 -137 -219 -137 -319c0 -73 23 -96 59 -96z" />
    <glyph glyph-name="hbar" unicode="&#x127;" horiz-adv-x="371" 
d="M257 0h-50l85 382c2 6 4 22 4 27c0 31 -14 42 -41 42c-40 0 -83 -45 -109 -89l-79 -362h-49l118 538h-52l9 36h51l21 93h49l-21 -93h118l-8 -36h-118l-26 -121c31 44 69 78 115 78c50 0 74 -29 74 -70c0 -8 -3 -23 -5 -33z" />
    <glyph glyph-name="hcircumflex" unicode="&#x125;" 
d="M382 723h-30l-40 111l-84 -111h-34l99 144h51zM246 0h-50l85 382c2 6 4 22 4 27c0 31 -14 42 -41 42c-40 0 -83 -45 -109 -89l-79 -362h-49l147 667h49l-55 -250c31 44 69 78 115 78c50 0 74 -29 74 -70c0 -8 -3 -23 -5 -33z" />
    <glyph glyph-name="uni1E23" unicode="&#x1e23;" 
d="M246 0h-50l85 382c2 6 4 22 4 27c0 31 -14 42 -41 42c-40 0 -83 -45 -109 -89l-79 -362h-49l147 667h49l-55 -250c31 44 69 78 115 78c50 0 74 -29 74 -70c0 -8 -3 -23 -5 -33zM333 769c0 -22 -19 -40 -41 -40c-19 0 -33 14 -33 32c0 22 19 41 41 41c19 0 33 -14 33 -33z
" />
    <glyph glyph-name="dotlessi" unicode="&#x131;" horiz-adv-x="170" 
d="M56 0h-49l107 483h49z" />
    <glyph glyph-name="iacute" unicode="&#xed;" horiz-adv-x="170" 
d="M286 700l-130 -144h-37l110 144h57zM56 0h-49l107 483h49z" />
    <glyph glyph-name="ibreve" unicode="&#x12d;" horiz-adv-x="170" 
d="M56 0h-49l107 483h49zM281 615c-35 -37 -83 -59 -130 -59c-48 0 -86 22 -105 59l32 23c12 -28 45 -46 78 -46c34 0 74 18 97 46z" />
    <glyph glyph-name="icircumflex" unicode="&#xee;" horiz-adv-x="170" 
d="M249 556h-30l-40 111l-84 -111h-34l99 144h51zM56 0h-49l107 483h49z" />
    <glyph glyph-name="idieresis" unicode="&#xef;" horiz-adv-x="170" 
d="M265 604c0 -21 -18 -39 -40 -39c-18 0 -32 14 -32 32c0 21 19 39 40 39c18 0 32 -13 32 -32zM134 604c0 -21 -19 -39 -40 -39c-18 0 -32 14 -32 32c0 21 19 39 40 39c18 0 32 -13 32 -32zM56 0h-49l107 483h49z" />
    <glyph glyph-name="igrave" unicode="&#xec;" horiz-adv-x="170" 
d="M56 0h-49l107 483h49zM188 556h-36l-65 144h54z" />
    <glyph glyph-name="imacron" unicode="&#x12b;" horiz-adv-x="170" 
d="M56 0h-49l107 483h49zM282 577h-244l8 36h243z" />
    <glyph glyph-name="iogonek" unicode="&#x12f;" horiz-adv-x="170" 
d="M27 -119l26 -18c-14 -29 -37 -49 -70 -49c-36 0 -57 19 -57 56s19 86 81 132l107 481h49l-107 -483c-48 -29 -96 -69 -96 -127c0 -17 11 -27 27 -27c20 0 33 15 40 35zM159 560c-20 0 -36 15 -36 34c0 26 24 42 44 42s35 -15 35 -33c0 -27 -24 -43 -43 -43z" />
    <glyph glyph-name="itilde" unicode="&#x129;" horiz-adv-x="170" 
d="M56 0h-49l107 483h49zM198 554c-62 0 -24 104 -65 104c-20 0 -38 -29 -53 -98h-31c16 73 41 134 91 134c63 0 26 -104 66 -104c20 0 38 29 53 98h32c-16 -72 -43 -134 -93 -134z" />
    <glyph glyph-name="uni1EC9" unicode="&#x1ec9;" horiz-adv-x="170" 
d="M56 0h-49l107 483h49zM134 599l-24 10c11 22 28 41 57 41c30 0 46 -18 46 -45c0 -32 -17 -59 -38 -78h-31c24 21 40 46 40 73c1 13 -6 24 -20 24s-23 -9 -30 -25z" />
    <glyph glyph-name="uni1ECB" unicode="&#x1ecb;" horiz-adv-x="170" 
d="M159 560c-20 0 -36 15 -36 34c0 26 24 42 44 42s35 -15 35 -33c0 -27 -24 -43 -43 -43zM56 0h-49l107 483h49zM37 -137c0 -22 -19 -40 -41 -40c-19 0 -33 14 -33 32c0 22 19 41 41 41c19 0 33 -14 33 -33z" />
    <glyph glyph-name="ij" unicode="&#x133;" horiz-adv-x="340" 
d="M159 560c-20 0 -36 15 -36 34c0 26 24 42 44 42s35 -15 35 -33c0 -27 -24 -43 -43 -43zM56 0h-49l107 483h49zM112 -196c-29 0 -50 10 -60 36l33 29c3 -13 12 -21 26 -21c19 0 34 14 46 69l127 566h49l-127 -566c-19 -86 -47 -113 -94 -113zM329 560c-20 0 -36 15 -36 34
c0 26 24 42 44 42s35 -15 35 -33c0 -27 -24 -43 -43 -43z" />
    <glyph glyph-name="uni0237" unicode="&#x237;" horiz-adv-x="170" 
d="M-58 -196c-29 0 -50 10 -60 36l33 29c3 -13 12 -21 26 -21c19 0 34 14 46 69l127 566h49l-127 -566c-19 -86 -47 -113 -94 -113z" />
    <glyph glyph-name="jcircumflex" unicode="&#x135;" horiz-adv-x="170" 
d="M250 556h-30l-40 111l-84 -111h-34l99 144h51zM-58 -196c-29 0 -50 10 -60 36l33 29c3 -13 12 -21 26 -21c19 0 34 14 46 69l127 566h49l-127 -566c-19 -86 -47 -113 -94 -113z" />
    <glyph glyph-name="kcommaaccent" unicode="&#x137;" horiz-adv-x="343" 
d="M145 -122c0 -53 -46 -110 -95 -136l-21 24c36 18 65 51 74 81h-7c-16 0 -30 14 -30 32c0 23 19 42 41 42s38 -14 38 -43zM269 0h-51l-50 233l-84 -105l-28 -128h-49l147 667h49l-103 -465l224 281h54l-173 -217z" />
    <glyph glyph-name="kgreenlandic" unicode="&#x138;" horiz-adv-x="343" 
d="M269 0h-51l-50 233l-84 -105l-28 -128h-49l107 483h49l-63 -281l224 281h54l-173 -217z" />
    <glyph glyph-name="lacute" unicode="&#x13a;" horiz-adv-x="170" 
d="M322 867l-130 -144h-37l110 144h57zM56 0h-49l147 667h49z" />
    <glyph glyph-name="lcommaaccent" unicode="&#x13c;" horiz-adv-x="170" 
d="M45 -122c0 -53 -46 -110 -95 -136l-21 24c36 18 65 51 74 81h-7c-16 0 -30 14 -30 32c0 23 19 42 41 42s38 -14 38 -43zM56 0h-49l147 667h49z" />
    <glyph glyph-name="lcaron" unicode="&#x13e;" horiz-adv-x="238" 
d="M341 636c0 -53 -46 -110 -95 -136l-21 24c36 18 65 51 74 81h-7c-16 0 -30 14 -30 32c0 23 19 42 41 42s38 -14 38 -43zM56 0h-49l147 667h49z" />
    <glyph glyph-name="ldot" unicode="&#x140;" horiz-adv-x="258" 
d="M56 0h-49l147 667h49zM210 202c-22 0 -39 17 -39 39c0 26 21 46 46 46c22 0 39 -18 39 -39c0 -26 -21 -46 -46 -46z" />
    <glyph glyph-name="lslash" unicode="&#x142;" horiz-adv-x="214" 
d="M30 273l10 44l66 34l70 316h49l-64 -288l66 34l-9 -44l-66 -34l-74 -335h-49l67 307z" />
    <glyph glyph-name="lacute.alt1" horiz-adv-x="197" 
d="M323 871l-130 -144h-37l110 144h57zM90 -12c-44 0 -70 20 -70 63c0 10 1 21 5 34l129 582h49l-128 -577c-2 -9 -4 -19 -4 -27c0 -22 11 -31 30 -31c14 0 23 5 33 17l14 -37c-15 -14 -33 -24 -58 -24z" />
    <glyph glyph-name="lcommaaccent.alt1" horiz-adv-x="197" 
d="M46 -122c0 -53 -46 -110 -95 -136l-21 24c36 18 65 51 74 81h-7c-16 0 -30 14 -30 32c0 23 19 42 41 42s38 -14 38 -43zM90 -12c-44 0 -70 20 -70 63c0 10 1 21 5 34l129 582h49l-128 -577c-2 -9 -4 -19 -4 -27c0 -22 11 -31 30 -31c14 0 23 5 33 17l14 -37
c-15 -14 -33 -24 -58 -24z" />
    <glyph glyph-name="lcaron.alt1" horiz-adv-x="238" 
d="M341 636c0 -53 -46 -110 -95 -136l-21 24c36 18 65 51 74 81h-7c-16 0 -30 14 -30 32c0 23 19 42 41 42s38 -14 38 -43zM90 -12c-44 0 -70 20 -70 63c0 10 1 21 5 34l129 582h49l-128 -577c-2 -9 -4 -19 -4 -27c0 -22 11 -31 30 -31c14 0 23 5 33 17l14 -37
c-15 -14 -33 -24 -58 -24z" />
    <glyph glyph-name="ldot.alt1" horiz-adv-x="258" 
d="M90 -12c-44 0 -70 20 -70 63c0 10 1 21 5 34l129 582h49l-128 -577c-2 -9 -4 -19 -4 -27c0 -22 11 -31 30 -31c14 0 23 5 33 17l14 -37c-15 -14 -33 -24 -58 -24zM210 202c-22 0 -39 17 -39 39c0 26 21 46 46 46c22 0 39 -18 39 -39c0 -26 -21 -46 -46 -46z" />
    <glyph glyph-name="lslash.alt1" horiz-adv-x="219" 
d="M30 273l10 44l65 33l71 317h49l-64 -288l66 34l-9 -44l-67 -34l-54 -245c-2 -9 -4 -19 -4 -27c0 -22 11 -31 30 -31c14 0 23 5 33 17l14 -37c-15 -14 -33 -24 -58 -24c-44 0 -70 20 -70 63c0 10 1 21 5 34l49 222z" />
    <glyph glyph-name="nacute" unicode="&#x144;" 
d="M381 700l-130 -144h-37l110 144h57zM246 0h-50l85 382c2 8 4 21 4 27c0 30 -14 42 -41 42c-40 0 -83 -45 -109 -89l-79 -362h-49l107 483h49l-15 -66c31 44 69 78 115 78s74 -25 74 -70c0 -6 -3 -26 -5 -33z" />
    <glyph glyph-name="napostrophe" unicode="&#x149;" 
d="M226 689c0 -53 -46 -110 -95 -136l-21 24c36 18 65 51 74 81h-7c-16 0 -30 14 -30 32c0 23 19 42 41 42s38 -14 38 -43zM246 0h-50l85 382c2 8 4 21 4 27c0 30 -14 42 -41 42c-40 0 -83 -45 -109 -89l-79 -362h-49l107 483h49l-15 -66c31 44 69 78 115 78s74 -25 74 -70
c0 -6 -3 -26 -5 -33z" />
    <glyph glyph-name="ncaron" unicode="&#x148;" 
d="M276 556h-51l-38 144h30l39 -111l85 111h34zM246 0h-50l85 382c2 8 4 21 4 27c0 30 -14 42 -41 42c-40 0 -83 -45 -109 -89l-79 -362h-49l107 483h49l-15 -66c31 44 69 78 115 78s74 -25 74 -70c0 -6 -3 -26 -5 -33z" />
    <glyph glyph-name="ncommaaccent" unicode="&#x146;" 
d="M142 -122c0 -53 -46 -110 -95 -136l-21 24c36 18 65 51 74 81h-7c-16 0 -30 14 -30 32c0 23 19 42 41 42s38 -14 38 -43zM246 0h-50l85 382c2 8 4 21 4 27c0 30 -14 42 -41 42c-40 0 -83 -45 -109 -89l-79 -362h-49l107 483h49l-15 -66c31 44 69 78 115 78s74 -25 74 -70
c0 -6 -3 -26 -5 -33z" />
    <glyph glyph-name="ntilde" unicode="&#xf1;" 
d="M246 0h-50l85 382c2 8 4 21 4 27c0 30 -14 42 -41 42c-40 0 -83 -45 -109 -89l-79 -362h-49l107 483h49l-15 -66c31 44 69 78 115 78s74 -25 74 -70c0 -6 -3 -26 -5 -33zM294 554c-62 0 -24 104 -65 104c-20 0 -38 -29 -53 -98h-31c16 73 41 134 91 134
c63 0 26 -104 66 -104c20 0 38 29 53 98h32c-16 -72 -43 -134 -93 -134z" />
    <glyph glyph-name="eng" unicode="&#x14b;" 
d="M332 392l-105 -475c-20 -88 -49 -113 -95 -113c-31 0 -49 10 -60 36l33 29c2 -13 12 -21 26 -21c20 0 34 15 46 69l104 465c2 8 4 22 4 28c0 27 -13 41 -41 41c-39 0 -83 -45 -109 -89l-79 -362h-49l107 483h49l-16 -70c31 45 72 82 116 82c45 0 74 -24 74 -70
c0 -8 -3 -24 -5 -33z" />
    <glyph glyph-name="oacute" unicode="&#xf3;" horiz-adv-x="367" 
d="M384 700l-130 -144h-37l110 144h57zM140 -12c-67 0 -112 44 -112 148c0 137 66 359 198 359c67 0 112 -44 112 -148c0 -137 -66 -359 -198 -359zM143 32c91 0 144 214 144 314c0 80 -26 105 -64 105c-91 0 -144 -215 -144 -315c0 -80 26 -104 64 -104z" />
    <glyph glyph-name="obreve" unicode="&#x14f;" horiz-adv-x="367" 
d="M140 -12c-67 0 -112 44 -112 148c0 137 66 359 198 359c67 0 112 -44 112 -148c0 -137 -66 -359 -198 -359zM143 32c91 0 144 214 144 314c0 80 -26 105 -64 105c-91 0 -144 -215 -144 -315c0 -80 26 -104 64 -104zM379 615c-35 -37 -83 -59 -130 -59
c-48 0 -86 22 -105 59l32 23c12 -28 45 -46 78 -46c34 0 74 18 97 46z" />
    <glyph glyph-name="ocircumflex" unicode="&#xf4;" horiz-adv-x="367" 
d="M348 556h-30l-40 111l-84 -111h-34l99 144h51zM140 -12c-67 0 -112 44 -112 148c0 137 66 359 198 359c67 0 112 -44 112 -148c0 -137 -66 -359 -198 -359zM143 32c91 0 144 214 144 314c0 80 -26 105 -64 105c-91 0 -144 -215 -144 -315c0 -80 26 -104 64 -104z" />
    <glyph glyph-name="odieresis" unicode="&#xf6;" horiz-adv-x="367" 
d="M364 604c0 -21 -18 -39 -40 -39c-18 0 -32 14 -32 32c0 21 19 39 40 39c18 0 32 -13 32 -32zM233 604c0 -21 -19 -39 -40 -39c-18 0 -32 14 -32 32c0 21 19 39 40 39c18 0 32 -13 32 -32zM140 -12c-67 0 -112 44 -112 148c0 137 66 359 198 359c67 0 112 -44 112 -148
c0 -137 -66 -359 -198 -359zM143 32c91 0 144 214 144 314c0 80 -26 105 -64 105c-91 0 -144 -215 -144 -315c0 -80 26 -104 64 -104z" />
    <glyph glyph-name="ograve" unicode="&#xf2;" horiz-adv-x="367" 
d="M140 -12c-67 0 -112 44 -112 148c0 137 66 359 198 359c67 0 112 -44 112 -148c0 -137 -66 -359 -198 -359zM143 32c91 0 144 214 144 314c0 80 -26 105 -64 105c-91 0 -144 -215 -144 -315c0 -80 26 -104 64 -104zM287 556h-36l-65 144h54z" />
    <glyph glyph-name="ohungarumlaut" unicode="&#x151;" horiz-adv-x="367" 
d="M311 700l-108 -144h-31l89 144h50zM422 700l-108 -144h-31l89 144h50zM140 -12c-67 0 -112 44 -112 148c0 137 66 359 198 359c67 0 112 -44 112 -148c0 -137 -66 -359 -198 -359zM143 32c91 0 144 214 144 314c0 80 -26 105 -64 105c-91 0 -144 -215 -144 -315
c0 -80 26 -104 64 -104z" />
    <glyph glyph-name="omacron" unicode="&#x14d;" horiz-adv-x="367" 
d="M379 577h-244l8 36h243zM140 -12c-67 0 -112 44 -112 148c0 137 66 359 198 359c67 0 112 -44 112 -148c0 -137 -66 -359 -198 -359zM143 32c91 0 144 214 144 314c0 80 -26 105 -64 105c-91 0 -144 -215 -144 -315c0 -80 26 -104 64 -104z" />
    <glyph glyph-name="oslash" unicode="&#xf8;" horiz-adv-x="367" 
d="M36 0h-39l41 60c-7 21 -10 46 -10 76c0 137 66 359 198 359c35 0 65 -12 85 -40l19 28h39l-42 -61c7 -20 11 -45 11 -75c0 -137 -66 -359 -198 -359c-36 0 -66 12 -85 39zM143 32c91 0 144 214 144 314c0 6 0 12 -1 17l-199 -289c10 -31 30 -42 56 -42zM79 136v-17
l200 290c-11 31 -31 42 -56 42c-91 0 -144 -215 -144 -315z" />
    <glyph glyph-name="oslashacute" unicode="&#x1ff;" horiz-adv-x="367" 
d="M384 700l-130 -144h-37l110 144h57zM36 0h-39l41 60c-7 21 -10 46 -10 76c0 137 66 359 198 359c35 0 65 -12 85 -40l19 28h39l-42 -61c7 -20 11 -45 11 -75c0 -137 -66 -359 -198 -359c-36 0 -66 12 -85 39zM143 32c91 0 144 214 144 314c0 6 0 12 -1 17l-199 -289
c10 -31 30 -42 56 -42zM79 136v-17l200 290c-11 31 -31 42 -56 42c-91 0 -144 -215 -144 -315z" />
    <glyph glyph-name="otilde" unicode="&#xf5;" horiz-adv-x="367" 
d="M140 -12c-67 0 -112 44 -112 148c0 137 66 359 198 359c67 0 112 -44 112 -148c0 -137 -66 -359 -198 -359zM143 32c91 0 144 214 144 314c0 80 -26 105 -64 105c-91 0 -144 -215 -144 -315c0 -80 26 -104 64 -104zM297 554c-62 0 -24 104 -65 104c-20 0 -38 -29 -53 -98
h-31c16 73 41 134 91 134c63 0 26 -104 66 -104c20 0 38 29 53 98h32c-16 -72 -43 -134 -93 -134z" />
    <glyph glyph-name="uni1ECD" unicode="&#x1ecd;" horiz-adv-x="367" 
d="M140 -12c-67 0 -112 44 -112 148c0 137 66 359 198 359c67 0 112 -44 112 -148c0 -137 -66 -359 -198 -359zM143 32c91 0 144 214 144 314c0 80 -26 105 -64 105c-91 0 -144 -215 -144 -315c0 -80 26 -104 64 -104zM135 -137c0 -22 -19 -40 -41 -40c-19 0 -33 14 -33 32
c0 22 19 41 41 41c19 0 33 -14 33 -33z" />
    <glyph glyph-name="uni1ECF" unicode="&#x1ecf;" horiz-adv-x="367" 
d="M140 -12c-67 0 -112 44 -112 148c0 137 66 359 198 359c67 0 112 -44 112 -148c0 -137 -66 -359 -198 -359zM143 32c91 0 144 214 144 314c0 80 -26 105 -64 105c-91 0 -144 -215 -144 -315c0 -80 26 -104 64 -104zM233 599l-24 10c11 22 28 41 57 41c30 0 46 -18 46 -45
c0 -32 -17 -59 -38 -78h-31c24 21 40 46 40 73c1 13 -6 24 -20 24s-23 -9 -30 -25z" />
    <glyph glyph-name="uni1ED1" unicode="&#x1ed1;" horiz-adv-x="367" 
d="M346 556h-30l-40 111l-84 -111h-34l99 144h51zM500 771l-130 -144h-37l110 144h57zM140 -12c-67 0 -112 44 -112 148c0 137 66 359 198 359c67 0 112 -44 112 -148c0 -137 -66 -359 -198 -359zM143 32c91 0 144 214 144 314c0 80 -26 105 -64 105
c-91 0 -144 -215 -144 -315c0 -80 26 -104 64 -104z" />
    <glyph glyph-name="uni1ED3" unicode="&#x1ed3;" horiz-adv-x="367" 
d="M346 556h-30l-40 111l-84 -111h-34l99 144h51zM140 -12c-67 0 -112 44 -112 148c0 137 66 359 198 359c67 0 112 -44 112 -148c0 -137 -66 -359 -198 -359zM143 32c91 0 144 214 144 314c0 80 -26 105 -64 105c-91 0 -144 -215 -144 -315c0 -80 26 -104 64 -104zM199 627
h-36l-65 144h54z" />
    <glyph glyph-name="uni1ED5" unicode="&#x1ed5;" horiz-adv-x="367" 
d="M346 556h-30l-40 111l-84 -111h-34l99 144h51zM140 -12c-67 0 -112 44 -112 148c0 137 66 359 198 359c67 0 112 -44 112 -148c0 -137 -66 -359 -198 -359zM143 32c91 0 144 214 144 314c0 80 -26 105 -64 105c-91 0 -144 -215 -144 -315c0 -80 26 -104 64 -104zM321 739
l-24 10c11 22 28 41 57 41c30 0 46 -18 46 -45c0 -32 -17 -59 -38 -78h-31c24 21 40 46 40 73c1 13 -6 24 -20 24s-23 -9 -30 -25z" />
    <glyph glyph-name="uni1ED7" unicode="&#x1ed7;" horiz-adv-x="367" 
d="M339 523h-30l-40 111l-84 -111h-34l99 144h51zM140 -12c-67 0 -112 44 -112 148c0 137 66 359 198 359c67 0 112 -44 112 -148c0 -137 -66 -359 -198 -359zM143 32c91 0 144 214 144 314c0 80 -26 105 -64 105c-91 0 -144 -215 -144 -315c0 -80 26 -104 64 -104zM325 682
c-62 0 -24 104 -65 104c-20 0 -38 -29 -53 -98h-31c16 73 41 134 91 134c63 0 26 -104 66 -104c20 0 38 29 53 98h32c-16 -72 -43 -134 -93 -134z" />
    <glyph glyph-name="uni1ED9" unicode="&#x1ed9;" horiz-adv-x="367" 
d="M348 556h-30l-40 111l-84 -111h-34l99 144h51zM140 -12c-67 0 -112 44 -112 148c0 137 66 359 198 359c67 0 112 -44 112 -148c0 -137 -66 -359 -198 -359zM143 32c91 0 144 214 144 314c0 80 -26 105 -64 105c-91 0 -144 -215 -144 -315c0 -80 26 -104 64 -104z
M136 -137c0 -22 -19 -40 -41 -40c-19 0 -33 14 -33 32c0 22 19 41 41 41c19 0 33 -14 33 -33z" />
    <glyph glyph-name="ohorn" unicode="&#x1a1;" horiz-adv-x="367" 
d="M409 545c0 -48 -38 -99 -80 -127c6 -20 9 -43 9 -71c0 -137 -66 -359 -198 -359c-67 0 -112 44 -112 148c0 137 66 359 198 359c39 0 71 -15 90 -48c26 19 46 44 52 67h-6c-16 0 -29 15 -29 32c0 22 19 41 40 41s36 -15 36 -42zM143 32c91 0 144 214 144 314
c0 80 -26 105 -64 105c-91 0 -144 -215 -144 -315c0 -80 26 -104 64 -104z" />
    <glyph glyph-name="uni1EDB" unicode="&#x1edb;" horiz-adv-x="367" 
d="M384 700l-130 -144h-37l110 144h57zM409 545c0 -48 -38 -99 -80 -127c6 -20 9 -43 9 -71c0 -137 -66 -359 -198 -359c-67 0 -112 44 -112 148c0 137 66 359 198 359c39 0 71 -15 90 -48c26 19 46 44 52 67h-6c-16 0 -29 15 -29 32c0 22 19 41 40 41s36 -15 36 -42z
M143 32c91 0 144 214 144 314c0 80 -26 105 -64 105c-91 0 -144 -215 -144 -315c0 -80 26 -104 64 -104z" />
    <glyph glyph-name="uni1EDD" unicode="&#x1edd;" horiz-adv-x="367" 
d="M409 545c0 -48 -38 -99 -80 -127c6 -20 9 -43 9 -71c0 -137 -66 -359 -198 -359c-67 0 -112 44 -112 148c0 137 66 359 198 359c39 0 71 -15 90 -48c26 19 46 44 52 67h-6c-16 0 -29 15 -29 32c0 22 19 41 40 41s36 -15 36 -42zM143 32c91 0 144 214 144 314
c0 80 -26 105 -64 105c-91 0 -144 -215 -144 -315c0 -80 26 -104 64 -104zM287 556h-36l-65 144h54z" />
    <glyph glyph-name="uni1EDF" unicode="&#x1edf;" horiz-adv-x="367" 
d="M409 545c0 -48 -38 -99 -80 -127c6 -20 9 -43 9 -71c0 -137 -66 -359 -198 -359c-67 0 -112 44 -112 148c0 137 66 359 198 359c39 0 71 -15 90 -48c26 19 46 44 52 67h-6c-16 0 -29 15 -29 32c0 22 19 41 40 41s36 -15 36 -42zM143 32c91 0 144 214 144 314
c0 80 -26 105 -64 105c-91 0 -144 -215 -144 -315c0 -80 26 -104 64 -104zM233 599l-24 10c11 22 28 41 57 41c30 0 46 -18 46 -45c0 -32 -17 -59 -38 -78h-31c24 21 40 46 40 73c1 13 -6 24 -20 24s-23 -9 -30 -25z" />
    <glyph glyph-name="uni1EE1" unicode="&#x1ee1;" horiz-adv-x="367" 
d="M409 545c0 -48 -38 -99 -80 -127c6 -20 9 -43 9 -71c0 -137 -66 -359 -198 -359c-67 0 -112 44 -112 148c0 137 66 359 198 359c39 0 71 -15 90 -48c26 19 46 44 52 67h-6c-16 0 -29 15 -29 32c0 22 19 41 40 41s36 -15 36 -42zM143 32c91 0 144 214 144 314
c0 80 -26 105 -64 105c-91 0 -144 -215 -144 -315c0 -80 26 -104 64 -104zM280 554c-62 0 -24 104 -65 104c-20 0 -38 -29 -53 -98h-31c16 73 41 134 91 134c63 0 26 -104 66 -104c20 0 38 29 53 98h32c-16 -72 -43 -134 -93 -134z" />
    <glyph glyph-name="uni1EE3" unicode="&#x1ee3;" horiz-adv-x="367" 
d="M409 545c0 -48 -38 -99 -80 -127c6 -20 9 -43 9 -71c0 -137 -66 -359 -198 -359c-67 0 -112 44 -112 148c0 137 66 359 198 359c39 0 71 -15 90 -48c26 19 46 44 52 67h-6c-16 0 -29 15 -29 32c0 22 19 41 40 41s36 -15 36 -42zM143 32c91 0 144 214 144 314
c0 80 -26 105 -64 105c-91 0 -144 -215 -144 -315c0 -80 26 -104 64 -104zM135 -137c0 -22 -19 -40 -41 -40c-19 0 -33 14 -33 32c0 22 19 41 41 41c19 0 33 -14 33 -33z" />
    <glyph glyph-name="oe" unicode="&#x153;" horiz-adv-x="589" 
d="M548 226h-229c-3 -12 -8 -69 -8 -80c0 -79 31 -116 82 -116c28 0 56 19 86 59l26 -31c-36 -47 -73 -70 -116 -70c-72 0 -109 46 -114 120c-35 -74 -77 -120 -137 -120c-72 0 -110 48 -110 148c0 152 69 359 196 359c60 0 93 -43 99 -115c33 74 78 115 133 115
c72 0 110 -48 110 -143c0 -46 -9 -97 -18 -126zM328 265h179c6 19 11 64 11 85c0 67 -23 103 -65 103c-72 0 -110 -110 -125 -188zM283 346c0 74 -20 105 -62 105c-91 0 -142 -213 -142 -315c0 -70 19 -105 62 -105c92 0 142 220 142 315z" />
    <glyph glyph-name="uni1E57" unicode="&#x1e57;" horiz-adv-x="368" 
d="M155 -12c-35 0 -70 26 -84 85l-56 -257h-49l148 667h49l-15 -64c30 51 65 76 101 76c59 0 91 -51 91 -138c0 -116 -59 -369 -185 -369zM151 32c90 0 138 230 138 323c0 68 -20 96 -59 96c-35 0 -74 -44 -95 -90l-53 -237c4 -51 34 -92 69 -92zM307 602
c0 -22 -19 -40 -41 -40c-19 0 -33 14 -33 32c0 22 19 41 41 41c19 0 33 -14 33 -33z" />
    <glyph glyph-name="racute" unicode="&#x155;" horiz-adv-x="239" 
d="M337 700l-130 -144h-37l110 144h57zM56 0h-49l107 483h49l-16 -71c31 52 68 81 132 81l-13 -53c-5 2 -15 3 -20 3c-46 0 -85 -38 -112 -90z" />
    <glyph glyph-name="rcaron" unicode="&#x159;" horiz-adv-x="239" 
d="M235 556h-51l-38 144h30l39 -111l85 111h34zM56 0h-49l107 483h49l-16 -71c31 52 68 81 132 81l-13 -53c-5 2 -15 3 -20 3c-46 0 -85 -38 -112 -90z" />
    <glyph glyph-name="rcommaaccent" unicode="&#x157;" horiz-adv-x="239" 
d="M98 -122c0 -53 -46 -110 -95 -136l-21 24c36 18 65 51 74 81h-7c-16 0 -30 14 -30 32c0 23 19 42 41 42s38 -14 38 -43zM56 0h-49l107 483h49l-16 -71c31 52 68 81 132 81l-13 -53c-5 2 -15 3 -20 3c-46 0 -85 -38 -112 -90z" />
    <glyph glyph-name="sacute" unicode="&#x15b;" horiz-adv-x="294" 
d="M349 700l-130 -144h-37l110 144h57zM101 -12c-51 0 -94 21 -115 65l33 31c16 -33 45 -55 85 -55c47 0 87 46 87 97c0 94 -126 123 -126 234c0 71 50 135 131 135c41 0 81 -21 102 -57l-32 -31c-13 31 -44 47 -73 47c-47 0 -79 -36 -79 -85c0 -85 126 -121 126 -233
c0 -81 -58 -148 -139 -148z" />
    <glyph glyph-name="scaron" unicode="&#x161;" horiz-adv-x="294" 
d="M246 556h-51l-38 144h30l39 -111l85 111h34zM101 -12c-51 0 -94 21 -115 65l33 31c16 -33 45 -55 85 -55c47 0 87 46 87 97c0 94 -126 123 -126 234c0 71 50 135 131 135c41 0 81 -21 102 -57l-32 -31c-13 31 -44 47 -73 47c-47 0 -79 -36 -79 -85
c0 -85 126 -121 126 -233c0 -81 -58 -148 -139 -148z" />
    <glyph glyph-name="scircumflex" unicode="&#x15d;" horiz-adv-x="294" 
d="M312 556h-30l-40 111l-84 -111h-34l99 144h51zM101 -12c-51 0 -94 21 -115 65l33 31c16 -33 45 -55 85 -55c47 0 87 46 87 97c0 94 -126 123 -126 234c0 71 50 135 131 135c41 0 81 -21 102 -57l-32 -31c-13 31 -44 47 -73 47c-47 0 -79 -36 -79 -85
c0 -85 126 -121 126 -233c0 -81 -58 -148 -139 -148z" />
    <glyph glyph-name="scedilla" unicode="&#x15f;" horiz-adv-x="294" 
d="M52 -189c-32 0 -57 11 -77 36l22 29c14 -22 34 -32 57 -32c31 0 54 25 54 54c0 17 -10 28 -27 28c-12 0 -20 -5 -29 -14l-23 15l38 64c-36 8 -65 28 -81 62l33 31c16 -33 45 -55 85 -55c47 0 87 46 87 97c0 94 -126 123 -126 234c0 71 50 135 131 135
c41 0 81 -21 102 -57l-32 -31c-13 31 -44 47 -73 47c-47 0 -79 -36 -79 -85c0 -85 126 -121 126 -233c0 -81 -58 -148 -139 -148l-28 -46c7 7 17 10 24 10c28 0 47 -23 47 -53c0 -49 -42 -88 -92 -88z" />
    <glyph glyph-name="scommaaccent" unicode="&#x219;" horiz-adv-x="294" 
d="M107 -122c0 -53 -46 -110 -95 -136l-21 24c36 18 65 51 74 81h-7c-16 0 -30 14 -30 32c0 23 19 42 41 42s38 -14 38 -43zM101 -12c-51 0 -94 21 -115 65l33 31c16 -33 45 -55 85 -55c47 0 87 46 87 97c0 94 -126 123 -126 234c0 71 50 135 131 135c41 0 81 -21 102 -57
l-32 -31c-13 31 -44 47 -73 47c-47 0 -79 -36 -79 -85c0 -85 126 -121 126 -233c0 -81 -58 -148 -139 -148z" />
    <glyph glyph-name="uni1E61" unicode="&#x1e61;" horiz-adv-x="294" 
d="M101 -12c-51 0 -94 21 -115 65l33 31c16 -33 45 -55 85 -55c47 0 87 46 87 97c0 94 -126 123 -126 234c0 71 50 135 131 135c41 0 81 -21 102 -57l-32 -31c-13 31 -44 47 -73 47c-47 0 -79 -36 -79 -85c0 -85 126 -121 126 -233c0 -81 -58 -148 -139 -148zM265 602
c0 -22 -19 -40 -41 -40c-19 0 -33 14 -33 32c0 22 19 41 41 41c19 0 33 -14 33 -33z" />
    <glyph glyph-name="germandbls" unicode="&#xdf;" horiz-adv-x="424" 
d="M382 133c0 -71 -53 -145 -135 -145c-53 0 -91 19 -119 64l33 33c16 -27 38 -55 83 -55c44 0 86 40 86 99c0 84 -119 108 -119 217c0 125 146 125 146 219c0 41 -27 68 -75 68c-42 0 -81 -28 -98 -102l-117 -531h-49l117 531c21 94 79 146 151 146c71 0 120 -42 120 -107
c0 -122 -146 -119 -146 -216c0 -86 122 -108 122 -221z" />
    <glyph glyph-name="longs" unicode="&#x17f;" horiz-adv-x="213" 
d="M69 0h-49l98 440h-49l9 43h49l20 94c13 59 47 100 104 100c25 0 53 -11 64 -28l-28 -37c-9 16 -22 21 -35 21c-31 0 -48 -21 -56 -56z" />
    <glyph glyph-name="tbar" unicode="&#x167;" horiz-adv-x="223" 
d="M104 -12c-45 0 -70 20 -70 64c0 10 1 20 4 33l34 150h-51l8 36h51l38 169h-51l10 43h50l29 132h49l-29 -132h68l-10 -43h-67l-38 -169h37l-8 -36h-37l-32 -145c-3 -10 -4 -21 -4 -29c0 -20 10 -29 30 -29c13 0 24 6 33 16l14 -37c-14 -12 -32 -23 -58 -23z" />
    <glyph glyph-name="tcaron" unicode="&#x165;" horiz-adv-x="234" 
d="M358 689c0 -53 -46 -110 -95 -136l-21 24c36 18 65 51 74 81h-7c-16 0 -30 14 -30 32c0 23 19 42 41 42s38 -14 38 -43zM104 -12c-45 0 -70 20 -70 64c0 10 1 20 4 33l80 355h-51l10 43h50l29 132h49l-29 -132h68l-10 -43h-67l-78 -350c-3 -10 -4 -21 -4 -29
c0 -20 10 -29 30 -29c13 0 24 6 33 16l14 -37c-14 -12 -32 -23 -58 -23z" />
    <glyph glyph-name="tcommaaccent" unicode="&#x163;" horiz-adv-x="223" 
d="M66 -122c0 -53 -46 -110 -95 -136l-21 24c36 18 65 51 74 81h-7c-16 0 -30 14 -30 32c0 23 19 42 41 42s38 -14 38 -43zM104 -12c-45 0 -70 20 -70 64c0 10 1 20 4 33l80 355h-51l10 43h50l29 132h49l-29 -132h68l-10 -43h-67l-78 -350c-3 -10 -4 -21 -4 -29
c0 -20 10 -29 30 -29c13 0 24 6 33 16l14 -37c-14 -12 -32 -23 -58 -23z" />
    <glyph glyph-name="uni021B" unicode="&#x21b;" horiz-adv-x="223" 
d="M66 -122c0 -53 -46 -110 -95 -136l-21 24c36 18 65 51 74 81h-7c-16 0 -30 14 -30 32c0 23 19 42 41 42s38 -14 38 -43zM104 -12c-45 0 -70 20 -70 64c0 10 1 20 4 33l80 355h-51l10 43h50l29 132h49l-29 -132h68l-10 -43h-67l-78 -350c-3 -10 -4 -21 -4 -29
c0 -20 10 -29 30 -29c13 0 24 6 33 16l14 -37c-14 -12 -32 -23 -58 -23z" />
    <glyph glyph-name="uni1E6B" unicode="&#x1e6b;" horiz-adv-x="223" 
d="M104 -12c-45 0 -70 20 -70 64c0 10 1 20 4 33l80 355h-51l10 43h50l29 132h49l-29 -132h68l-10 -43h-67l-78 -350c-3 -10 -4 -21 -4 -29c0 -20 10 -29 30 -29c13 0 24 6 33 16l14 -37c-14 -12 -32 -23 -58 -23zM251 769c0 -22 -19 -40 -41 -40c-19 0 -33 14 -33 32
c0 22 19 41 41 41c19 0 33 -14 33 -33z" />
    <glyph glyph-name="uacute" unicode="&#xfa;" 
d="M381 700l-130 -144h-37l110 144h57zM114 483h49l-85 -382c-2 -9 -4 -21 -4 -27c0 -30 14 -42 41 -42c40 0 80 40 107 84l81 367h50l-107 -483h-50l15 66c-31 -44 -69 -78 -115 -78s-74 25 -74 70c0 6 3 26 5 33z" />
    <glyph glyph-name="ubreve" unicode="&#x16d;" 
d="M114 483h49l-85 -382c-2 -9 -4 -21 -4 -27c0 -30 14 -42 41 -42c40 0 80 40 107 84l81 367h50l-107 -483h-50l15 66c-31 -44 -69 -78 -115 -78s-74 25 -74 70c0 6 3 26 5 33zM377 615c-35 -37 -83 -59 -130 -59c-48 0 -86 22 -105 59l32 23c12 -28 45 -46 78 -46
c34 0 74 18 97 46z" />
    <glyph glyph-name="ucircumflex" unicode="&#xfb;" 
d="M345 556h-30l-40 111l-84 -111h-34l99 144h51zM114 483h49l-85 -382c-2 -9 -4 -21 -4 -27c0 -30 14 -42 41 -42c40 0 80 40 107 84l81 367h50l-107 -483h-50l15 66c-31 -44 -69 -78 -115 -78s-74 25 -74 70c0 6 3 26 5 33z" />
    <glyph glyph-name="udieresis" unicode="&#xfc;" 
d="M361 604c0 -21 -18 -39 -40 -39c-18 0 -32 14 -32 32c0 21 19 39 40 39c18 0 32 -13 32 -32zM230 604c0 -21 -19 -39 -40 -39c-18 0 -32 14 -32 32c0 21 19 39 40 39c18 0 32 -13 32 -32zM114 483h49l-85 -382c-2 -9 -4 -21 -4 -27c0 -30 14 -42 41 -42
c40 0 80 40 107 84l81 367h50l-107 -483h-50l15 66c-31 -44 -69 -78 -115 -78s-74 25 -74 70c0 6 3 26 5 33z" />
    <glyph glyph-name="ugrave" unicode="&#xf9;" 
d="M114 483h49l-85 -382c-2 -9 -4 -21 -4 -27c0 -30 14 -42 41 -42c40 0 80 40 107 84l81 367h50l-107 -483h-50l15 66c-31 -44 -69 -78 -115 -78s-74 25 -74 70c0 6 3 26 5 33zM285 556h-36l-65 144h54z" />
    <glyph glyph-name="uhungarumlaut" unicode="&#x171;" 
d="M114 483h49l-85 -382c-2 -9 -4 -21 -4 -27c0 -30 14 -42 41 -42c40 0 80 40 107 84l81 367h50l-107 -483h-50l15 66c-31 -44 -69 -78 -115 -78s-74 25 -74 70c0 6 3 26 5 33zM308 700l-108 -144h-31l89 144h50zM419 700l-108 -144h-31l89 144h50z" />
    <glyph glyph-name="umacron" unicode="&#x16b;" 
d="M114 483h49l-85 -382c-2 -9 -4 -21 -4 -27c0 -30 14 -42 41 -42c40 0 80 40 107 84l81 367h50l-107 -483h-50l15 66c-31 -44 -69 -78 -115 -78s-74 25 -74 70c0 6 3 26 5 33zM377 577h-244l8 36h243z" />
    <glyph glyph-name="uogonek" unicode="&#x173;" 
d="M114 483h49l-85 -382c-2 -9 -4 -21 -4 -27c0 -30 14 -42 41 -42c40 0 80 40 107 84l81 367h50l-107 -483c-48 -29 -96 -69 -96 -127c0 -17 11 -27 27 -27c20 0 33 15 40 35l26 -18c-14 -29 -37 -49 -70 -49c-36 0 -57 19 -57 56s18 86 80 131l15 65
c-31 -44 -69 -78 -115 -78s-74 25 -74 70c0 6 3 26 5 33z" />
    <glyph glyph-name="uring" unicode="&#x16f;" 
d="M258 549c-43 0 -72 32 -72 74c0 47 43 89 89 89c43 0 72 -31 72 -74c0 -47 -42 -89 -89 -89zM260 579c31 0 57 26 57 57c0 26 -18 46 -43 46c-31 0 -58 -26 -58 -57c0 -25 18 -46 44 -46zM114 483h49l-85 -382c-2 -9 -4 -21 -4 -27c0 -30 14 -42 41 -42
c40 0 80 40 107 84l81 367h50l-107 -483h-50l15 66c-31 -44 -69 -78 -115 -78s-74 25 -74 70c0 6 3 26 5 33z" />
    <glyph glyph-name="utilde" unicode="&#x169;" 
d="M114 483h49l-85 -382c-2 -9 -4 -21 -4 -27c0 -30 14 -42 41 -42c40 0 80 40 107 84l81 367h50l-107 -483h-50l15 66c-31 -44 -69 -78 -115 -78s-74 25 -74 70c0 6 3 26 5 33zM293 554c-62 0 -24 104 -65 104c-20 0 -38 -29 -53 -98h-31c16 73 41 134 91 134
c63 0 26 -104 66 -104c20 0 38 29 53 98h32c-16 -72 -43 -134 -93 -134z" />
    <glyph glyph-name="uni1EE5" unicode="&#x1ee5;" 
d="M114 483h49l-85 -382c-2 -9 -4 -21 -4 -27c0 -30 14 -42 41 -42c40 0 80 40 107 84l81 367h50l-107 -483h-50l15 66c-31 -44 -69 -78 -115 -78s-74 25 -74 70c0 6 3 26 5 33zM132 -137c0 -22 -19 -40 -41 -40c-19 0 -33 14 -33 32c0 22 19 41 41 41c19 0 33 -14 33 -33z
" />
    <glyph glyph-name="uhorn" unicode="&#x1b0;" 
d="M434 547c0 -51 -46 -109 -97 -136l-91 -411h-50l15 66c-31 -44 -69 -78 -115 -78s-74 25 -74 70c0 6 3 26 5 33l87 392h49l-85 -382c-2 -9 -4 -21 -4 -27c0 -30 14 -42 41 -42c40 0 80 40 107 84l81 367h50l-7 -30c23 18 41 42 47 64h-7c-16 0 -29 14 -29 31
c0 23 19 41 40 41s37 -14 37 -42z" />
    <glyph glyph-name="uni1EE7" unicode="&#x1ee7;" 
d="M114 483h49l-85 -382c-2 -9 -4 -21 -4 -27c0 -30 14 -42 41 -42c40 0 80 40 107 84l81 367h50l-107 -483h-50l15 66c-31 -44 -69 -78 -115 -78s-74 25 -74 70c0 6 3 26 5 33zM230 599l-24 10c11 22 28 41 57 41c30 0 46 -18 46 -45c0 -32 -17 -59 -38 -78h-31
c24 21 40 46 40 73c1 13 -6 24 -20 24s-23 -9 -30 -25z" />
    <glyph glyph-name="uni1EE9" unicode="&#x1ee9;" 
d="M381 700l-130 -144h-37l110 144h57zM434 547c0 -51 -46 -109 -97 -136l-91 -411h-50l15 66c-31 -44 -69 -78 -115 -78s-74 25 -74 70c0 6 3 26 5 33l87 392h49l-85 -382c-2 -9 -4 -21 -4 -27c0 -30 14 -42 41 -42c40 0 80 40 107 84l81 367h50l-7 -30c23 18 41 42 47 64
h-7c-16 0 -29 14 -29 31c0 23 19 41 40 41s37 -14 37 -42z" />
    <glyph glyph-name="uni1EEB" unicode="&#x1eeb;" 
d="M285 556h-36l-65 144h54zM434 547c0 -51 -46 -109 -97 -136l-91 -411h-50l15 66c-31 -44 -69 -78 -115 -78s-74 25 -74 70c0 6 3 26 5 33l87 392h49l-85 -382c-2 -9 -4 -21 -4 -27c0 -30 14 -42 41 -42c40 0 80 40 107 84l81 367h50l-7 -30c23 18 41 42 47 64h-7
c-16 0 -29 14 -29 31c0 23 19 41 40 41s37 -14 37 -42z" />
    <glyph glyph-name="uni1EED" unicode="&#x1eed;" 
d="M230 599l-24 10c11 22 28 41 57 41c30 0 46 -18 46 -45c0 -32 -17 -59 -38 -78h-31c24 21 40 46 40 73c1 13 -6 24 -20 24s-23 -9 -30 -25zM434 547c0 -51 -46 -109 -97 -136l-91 -411h-50l15 66c-31 -44 -69 -78 -115 -78s-74 25 -74 70c0 6 3 26 5 33l87 392h49
l-85 -382c-2 -9 -4 -21 -4 -27c0 -30 14 -42 41 -42c40 0 80 40 107 84l81 367h50l-7 -30c23 18 41 42 47 64h-7c-16 0 -29 14 -29 31c0 23 19 41 40 41s37 -14 37 -42z" />
    <glyph glyph-name="uni1EEF" unicode="&#x1eef;" 
d="M434 547c0 -51 -46 -109 -97 -136l-91 -411h-50l15 66c-31 -44 -69 -78 -115 -78s-74 25 -74 70c0 6 3 26 5 33l87 392h49l-85 -382c-2 -9 -4 -21 -4 -27c0 -30 14 -42 41 -42c40 0 80 40 107 84l81 367h50l-7 -30c23 18 41 42 47 64h-7c-16 0 -29 14 -29 31
c0 23 19 41 40 41s37 -14 37 -42zM287 554c-62 0 -24 104 -65 104c-20 0 -38 -29 -53 -98h-31c16 73 41 134 91 134c63 0 26 -104 66 -104c20 0 38 29 53 98h32c-16 -72 -43 -134 -93 -134z" />
    <glyph glyph-name="uni1EF1" unicode="&#x1ef1;" 
d="M132 -137c0 -22 -19 -40 -41 -40c-19 0 -33 14 -33 32c0 22 19 41 41 41c19 0 33 -14 33 -33zM434 547c0 -51 -46 -109 -97 -136l-91 -411h-50l15 66c-31 -44 -69 -78 -115 -78s-74 25 -74 70c0 6 3 26 5 33l87 392h49l-85 -382c-2 -9 -4 -21 -4 -27c0 -30 14 -42 41 -42
c40 0 80 40 107 84l81 367h50l-7 -30c23 18 41 42 47 64h-7c-16 0 -29 14 -29 31c0 23 19 41 40 41s37 -14 37 -42z" />
    <glyph glyph-name="wacute" unicode="&#x1e83;" horiz-adv-x="513" 
d="M455 700l-130 -144h-37l110 144h57zM339 0h-50l4 415l-177 -415h-51l5 483h50l-14 -411l175 411h52l-7 -411l169 411h54z" />
    <glyph glyph-name="wcircumflex" unicode="&#x175;" horiz-adv-x="513" 
d="M418 556h-30l-40 111l-84 -111h-34l99 144h51zM339 0h-50l4 415l-177 -415h-51l5 483h50l-14 -411l175 411h52l-7 -411l169 411h54z" />
    <glyph glyph-name="wdieresis" unicode="&#x1e85;" horiz-adv-x="513" 
d="M435 604c0 -21 -18 -39 -40 -39c-18 0 -32 14 -32 32c0 21 19 39 40 39c18 0 32 -13 32 -32zM304 604c0 -21 -19 -39 -40 -39c-18 0 -32 14 -32 32c0 21 19 39 40 39c18 0 32 -13 32 -32zM339 0h-50l4 415l-177 -415h-51l5 483h50l-14 -411l175 411h52l-7 -411l169 411
h54z" />
    <glyph glyph-name="wgrave" unicode="&#x1e81;" horiz-adv-x="513" 
d="M339 0h-50l4 415l-177 -415h-51l5 483h50l-14 -411l175 411h52l-7 -411l169 411h54zM357 556h-36l-65 144h54z" />
    <glyph glyph-name="yacute" unicode="&#xfd;" horiz-adv-x="302" 
d="M-64 -187l18 41c4 -4 17 -6 23 -6c21 0 33 13 50 49l41 87l-2 499h51l-8 -419l179 419h55l-273 -597c-30 -63 -57 -82 -93 -82c-18 0 -33 5 -41 9zM348 700l-130 -144h-37l110 144h57z" />
    <glyph glyph-name="ycircumflex" unicode="&#x177;" horiz-adv-x="302" 
d="M-64 -187l18 41c4 -4 17 -6 23 -6c21 0 33 13 50 49l41 87l-2 499h51l-8 -419l179 419h55l-273 -597c-30 -63 -57 -82 -93 -82c-18 0 -33 5 -41 9zM312 556h-30l-40 111l-84 -111h-34l99 144h51z" />
    <glyph glyph-name="ydieresis" unicode="&#xff;" horiz-adv-x="302" 
d="M-64 -187l18 41c4 -4 17 -6 23 -6c21 0 33 13 50 49l41 87l-2 499h51l-8 -419l179 419h55l-273 -597c-30 -63 -57 -82 -93 -82c-18 0 -33 5 -41 9zM329 604c0 -21 -18 -39 -40 -39c-18 0 -32 14 -32 32c0 21 19 39 40 39c18 0 32 -13 32 -32zM198 604
c0 -21 -19 -39 -40 -39c-18 0 -32 14 -32 32c0 21 19 39 40 39c18 0 32 -13 32 -32z" />
    <glyph glyph-name="ygrave" unicode="&#x1ef3;" horiz-adv-x="302" 
d="M-64 -187l18 41c4 -4 17 -6 23 -6c21 0 33 13 50 49l41 87l-2 499h51l-8 -419l179 419h55l-273 -597c-30 -63 -57 -82 -93 -82c-18 0 -33 5 -41 9zM251 556h-36l-65 144h54z" />
    <glyph glyph-name="yacute.alt1" 
d="M381 700l-130 -144h-37l110 144h57zM82 -196c-49 0 -98 22 -120 54l32 39c19 -32 55 -49 89 -49c54 0 87 38 106 121l23 103c-31 -45 -68 -80 -115 -80c-49 0 -74 27 -74 71c0 10 1 21 4 32l87 388h49l-85 -378c-2 -10 -3 -19 -3 -27c0 -26 12 -42 41 -42
c40 0 81 41 107 85l80 362h50l-114 -510c-25 -110 -70 -169 -157 -169z" />
    <glyph glyph-name="ycircumflex.alt1" 
d="M343 556h-30l-40 111l-84 -111h-34l99 144h51zM82 -196c-49 0 -98 22 -120 54l32 39c19 -32 55 -49 89 -49c54 0 87 38 106 121l23 103c-31 -45 -68 -80 -115 -80c-49 0 -74 27 -74 71c0 10 1 21 4 32l87 388h49l-85 -378c-2 -10 -3 -19 -3 -27c0 -26 12 -42 41 -42
c40 0 81 41 107 85l80 362h50l-114 -510c-25 -110 -70 -169 -157 -169z" />
    <glyph glyph-name="ydieresis.alt1" 
d="M360 604c0 -21 -18 -39 -40 -39c-18 0 -32 14 -32 32c0 21 19 39 40 39c18 0 32 -13 32 -32zM229 604c0 -21 -19 -39 -40 -39c-18 0 -32 14 -32 32c0 21 19 39 40 39c18 0 32 -13 32 -32zM82 -196c-49 0 -98 22 -120 54l32 39c19 -32 55 -49 89 -49c54 0 87 38 106 121
l23 103c-31 -45 -68 -80 -115 -80c-49 0 -74 27 -74 71c0 10 1 21 4 32l87 388h49l-85 -378c-2 -10 -3 -19 -3 -27c0 -26 12 -42 41 -42c40 0 81 41 107 85l80 362h50l-114 -510c-25 -110 -70 -169 -157 -169z" />
    <glyph glyph-name="ygrave.alt1" 
d="M82 -196c-49 0 -98 22 -120 54l32 39c19 -32 55 -49 89 -49c54 0 87 38 106 121l23 103c-31 -45 -68 -80 -115 -80c-49 0 -74 27 -74 71c0 10 1 21 4 32l87 388h49l-85 -378c-2 -10 -3 -19 -3 -27c0 -26 12 -42 41 -42c40 0 81 41 107 85l80 362h50l-114 -510
c-25 -110 -70 -169 -157 -169zM290 556h-36l-65 144h54z" />
    <glyph glyph-name="zacute" unicode="&#x17a;" horiz-adv-x="289" 
d="M343 700l-130 -144h-37l110 144h57zM197 0h-213l8 41l242 399h-153l10 43h209l-9 -40l-241 -399h156z" />
    <glyph glyph-name="zcaron" unicode="&#x17e;" horiz-adv-x="289" 
d="M238 556h-51l-38 144h30l39 -111l85 111h34zM197 0h-213l8 41l242 399h-153l10 43h209l-9 -40l-241 -399h156z" />
    <glyph glyph-name="zdotaccent" unicode="&#x17c;" horiz-adv-x="289" 
d="M197 0h-213l8 41l242 399h-153l10 43h209l-9 -40l-241 -399h156zM259 602c0 -22 -19 -40 -41 -40c-19 0 -33 14 -33 32c0 22 19 41 41 41c19 0 33 -14 33 -33z" />
    <glyph glyph-name="eth" unicode="&#xf0;" horiz-adv-x="367" 
d="M171 523l-7 32l110 33c-7 30 -15 58 -23 79l51 16c9 -29 16 -56 22 -80l77 23l7 -31l-77 -24c11 -58 14 -107 14 -160c0 -154 -56 -423 -201 -423c-80 0 -116 53 -116 154c0 132 69 346 189 346c37 0 69 -23 79 -70c-1 37 -6 89 -15 138zM145 32c92 0 141 223 141 313
c0 43 -16 99 -66 99c-93 0 -141 -222 -141 -306c0 -85 30 -106 66 -106z" />
    <glyph glyph-name="thorn" unicode="&#xfe;" horiz-adv-x="368" 
d="M155 -12c-35 0 -70 26 -84 85l-56 -257h-49l188 851h49l-55 -248c30 51 65 76 101 76c59 0 91 -51 91 -138c0 -116 -59 -369 -185 -369zM151 32c90 0 138 230 138 323c0 68 -20 96 -59 96c-35 0 -74 -44 -95 -90l-53 -237c4 -51 34 -92 69 -92z" />
    <glyph glyph-name="Aacute.smcp" unicode="&#xf7e1;" horiz-adv-x="290" 
d="M355 750l-130 -144h-37l110 144h57zM183 550h58l-13 -550h-52l6 135h-121l-53 -135h-54zM185 181l13 299l-120 -299h107z" />
    <glyph glyph-name="Abreve.smcp" unicode="&#xf66d;" horiz-adv-x="290" 
d="M183 550h58l-13 -550h-52l6 135h-121l-53 -135h-54zM185 181l13 299l-120 -299h107zM349 665c-35 -37 -83 -59 -130 -59c-48 0 -86 22 -105 59l32 23c12 -28 45 -46 78 -46c34 0 74 18 97 46z" />
    <glyph glyph-name="Acircumflex.smcp" unicode="&#xf7e2;" horiz-adv-x="290" 
d="M318 606h-30l-40 111l-84 -111h-34l99 144h51zM183 550h58l-13 -550h-52l6 135h-121l-53 -135h-54zM185 181l13 299l-120 -299h107z" />
    <glyph glyph-name="Adieresis.smcp" unicode="&#xf7e4;" horiz-adv-x="290" 
d="M335 654c0 -21 -18 -39 -40 -39c-18 0 -32 14 -32 32c0 21 19 39 40 39c18 0 32 -13 32 -32zM204 654c0 -21 -19 -39 -40 -39c-18 0 -32 14 -32 32c0 21 19 39 40 39c18 0 32 -13 32 -32zM183 550h58l-13 -550h-52l6 135h-121l-53 -135h-54zM185 181l13 299l-120 -299
h107z" />
    <glyph glyph-name="Agrave.smcp" unicode="&#xf7e0;" horiz-adv-x="290" 
d="M183 550h58l-13 -550h-52l6 135h-121l-53 -135h-54zM185 181l13 299l-120 -299h107zM258 606h-36l-65 144h54z" />
    <glyph glyph-name="Amacron.smcp" unicode="&#xf66e;" horiz-adv-x="290" 
d="M351 627h-244l8 36h243zM183 550h58l-13 -550h-52l6 135h-121l-53 -135h-54zM185 181l13 299l-120 -299h107z" />
    <glyph glyph-name="Aogonek.smcp" unicode="&#xf66f;" horiz-adv-x="290" 
d="M183 550h58l-13 -550c-48 -29 -96 -69 -96 -127c0 -17 11 -27 27 -27c20 0 33 15 40 35l26 -18c-14 -29 -37 -49 -70 -49c-36 0 -57 19 -57 56c0 36 17 84 78 130l6 135h-121l-53 -135h-54zM185 181l13 299l-120 -299h107z" />
    <glyph glyph-name="Aring.smcp" unicode="&#xf7e5;" horiz-adv-x="290" 
d="M228 575c-43 0 -72 32 -72 74c0 47 43 89 89 89c43 0 72 -31 72 -74c0 -47 -42 -89 -89 -89zM230 605c31 0 57 26 57 57c0 26 -18 46 -43 46c-31 0 -58 -26 -58 -57c0 -25 18 -46 44 -46zM183 550h58l-13 -550h-52l6 135h-121l-53 -135h-54zM185 181l13 299l-120 -299
h107z" />
    <glyph glyph-name="Atilde.smcp" unicode="&#xf7e3;" horiz-adv-x="290" 
d="M183 550h58l-13 -550h-52l6 135h-121l-53 -135h-54zM185 181l13 299l-120 -299h107zM268 604c-62 0 -24 104 -65 104c-20 0 -38 -29 -53 -98h-31c16 73 41 134 91 134c63 0 26 -104 66 -104c20 0 38 29 53 98h32c-16 -72 -43 -134 -93 -134z" />
    <glyph glyph-name="uni1EA0.smcp" horiz-adv-x="290" 
d="M183 550h58l-13 -550h-52l6 135h-121l-53 -135h-54zM185 181l13 299l-120 -299h107zM96 -137c0 -22 -19 -40 -41 -40c-19 0 -33 14 -33 32c0 22 19 41 41 41c19 0 33 -14 33 -33z" />
    <glyph glyph-name="uni1EA2.smcp" horiz-adv-x="290" 
d="M183 550h58l-13 -550h-52l6 135h-121l-53 -135h-54zM185 181l13 299l-120 -299h107zM205 652l-24 10c11 22 28 41 57 41c30 0 46 -18 46 -45c0 -32 -17 -59 -38 -78h-31c24 21 40 46 40 73c1 13 -6 24 -20 24s-23 -9 -30 -25z" />
    <glyph glyph-name="uni1EA4.smcp" horiz-adv-x="290" 
d="M318 606h-30l-40 111l-84 -111h-34l99 144h51zM472 821l-130 -144h-37l110 144h57zM183 550h58l-13 -550h-52l6 135h-121l-53 -135h-54zM185 181l13 299l-120 -299h107z" />
    <glyph glyph-name="uni1EAC.smcp" horiz-adv-x="290" 
d="M318 606h-30l-40 111l-84 -111h-34l99 144h51zM183 550h58l-13 -550h-52l6 135h-121l-53 -135h-54zM185 181l13 299l-120 -299h107zM96 -137c0 -22 -19 -40 -41 -40c-19 0 -33 14 -33 32c0 22 19 41 41 41c19 0 33 -14 33 -33z" />
    <glyph glyph-name="uni1EA6.smcp" horiz-adv-x="290" 
d="M318 606h-30l-40 111l-84 -111h-34l99 144h51zM183 550h58l-13 -550h-52l6 135h-121l-53 -135h-54zM185 181l13 299l-120 -299h107zM171 677h-36l-65 144h54z" />
    <glyph glyph-name="uni1EA8.smcp" horiz-adv-x="290" 
d="M318 606h-30l-40 111l-84 -111h-34l99 144h51zM183 550h58l-13 -550h-52l6 135h-121l-53 -135h-54zM185 181l13 299l-120 -299h107zM293 789l-24 10c11 22 28 41 57 41c30 0 46 -18 46 -45c0 -32 -17 -59 -38 -78h-31c24 21 40 46 40 73c1 13 -6 24 -20 24
s-23 -9 -30 -25z" />
    <glyph glyph-name="uni1EAE.smcp" horiz-adv-x="290" 
d="M359 811l-130 -144h-37l110 144h57zM183 550h58l-13 -550h-52l6 135h-121l-53 -135h-54zM185 181l13 299l-120 -299h107zM345 641c-35 -37 -83 -59 -130 -59c-48 0 -86 22 -105 59l32 23c12 -28 45 -46 78 -46c34 0 74 18 97 46z" />
    <glyph glyph-name="uni1EAA.smcp" horiz-adv-x="290" 
d="M311 573h-30l-40 111l-84 -111h-34l99 144h51zM183 550h58l-13 -550h-52l6 135h-121l-53 -135h-54zM185 181l13 299l-120 -299h107zM295 732c-62 0 -24 104 -65 104c-20 0 -38 -29 -53 -98h-31c16 73 41 134 91 134c63 0 26 -104 66 -104c20 0 38 29 53 98h32
c-16 -72 -43 -134 -93 -134z" />
    <glyph glyph-name="uni1EB0.smcp" horiz-adv-x="290" 
d="M183 550h58l-13 -550h-52l6 135h-121l-53 -135h-54zM185 181l13 299l-120 -299h107zM286 667h-36l-65 144h54zM345 642c-35 -37 -83 -59 -130 -59c-48 0 -86 22 -105 59l32 23c12 -28 45 -46 78 -46c34 0 74 18 97 46z" />
    <glyph glyph-name="uni1EB2.smcp" horiz-adv-x="290" 
d="M183 550h58l-13 -550h-52l6 135h-121l-53 -135h-54zM185 181l13 299l-120 -299h107zM223 736l-24 10c11 22 28 41 57 41c30 0 46 -18 46 -45c0 -32 -17 -59 -38 -78h-31c24 21 40 46 40 73c1 13 -6 24 -20 24s-23 -9 -30 -25zM345 642c-35 -37 -83 -59 -130 -59
c-48 0 -86 22 -105 59l32 23c12 -28 45 -46 78 -46c34 0 74 18 97 46z" />
    <glyph glyph-name="uni1EB4.smcp" horiz-adv-x="290" 
d="M345 642c-35 -37 -83 -59 -130 -59c-48 0 -86 22 -105 59l32 23c12 -28 45 -46 78 -46c34 0 74 18 97 46zM183 550h58l-13 -550h-52l6 135h-121l-53 -135h-54zM185 181l13 299l-120 -299h107zM288 690c-62 0 -24 104 -65 104c-20 0 -38 -29 -53 -98h-31
c16 73 41 134 91 134c63 0 26 -104 66 -104c20 0 38 29 53 98h32c-16 -72 -43 -134 -93 -134z" />
    <glyph glyph-name="uni1EB6.smcp" horiz-adv-x="290" 
d="M183 550h58l-13 -550h-52l6 135h-121l-53 -135h-54zM185 181l13 299l-120 -299h107zM96 -137c0 -22 -19 -40 -41 -40c-19 0 -33 14 -33 32c0 22 19 41 41 41c19 0 33 -14 33 -33zM350 665c-35 -37 -83 -59 -130 -59c-48 0 -86 22 -105 59l32 23c12 -28 45 -46 78 -46
c34 0 74 18 97 46z" />
    <glyph glyph-name="AE.smcp" unicode="&#xf7e6;" horiz-adv-x="447" 
d="M353 0h-201l30 135h-109l-72 -135h-55l305 550h223l-9 -46h-150l-44 -198h143l-10 -46h-143l-48 -214h150zM191 181l68 301l-163 -301h95z" />
    <glyph glyph-name="AEacute.smcp" unicode="&#xf670;" horiz-adv-x="447" 
d="M443 750l-130 -144h-37l110 144h57zM353 0h-201l30 135h-109l-72 -135h-55l305 550h223l-9 -46h-150l-44 -198h143l-10 -46h-143l-48 -214h150zM191 181l68 301l-163 -301h95z" />
    <glyph glyph-name="uni1E02.smcp" horiz-adv-x="320" 
d="M119 0h-112l121 550h74c69 0 117 -36 117 -106c0 -67 -32 -143 -99 -163c31 -16 48 -51 48 -92c0 -88 -49 -189 -149 -189zM68 46h53c60 0 93 77 93 144c0 44 -22 70 -60 70h-39zM173 306h2c55 0 87 74 87 131c0 48 -24 67 -72 67h-21l-45 -198h49zM294 652
c0 -22 -19 -40 -41 -40c-19 0 -33 14 -33 32c0 22 19 41 41 41c19 0 33 -14 33 -33z" />
    <glyph glyph-name="Cacute.smcp" unicode="&#xf671;" horiz-adv-x="337" 
d="M400 750l-130 -144h-37l110 144h57zM145 -12c-68 0 -114 44 -114 159c0 112 59 415 212 415c60 0 97 -42 105 -104l-47 -12c-6 45 -27 70 -59 70c-105 0 -158 -274 -158 -368c0 -85 25 -114 64 -114c37 0 58 26 83 74l40 -20c-33 -60 -67 -100 -126 -100z" />
    <glyph glyph-name="Ccaron.smcp" unicode="&#xf672;" horiz-adv-x="337" 
d="M296 606h-51l-38 144h30l39 -111l85 111h34zM145 -12c-68 0 -114 44 -114 159c0 112 59 415 212 415c60 0 97 -42 105 -104l-47 -12c-6 45 -27 70 -59 70c-105 0 -158 -274 -158 -368c0 -85 25 -114 64 -114c37 0 58 26 83 74l40 -20c-33 -60 -67 -100 -126 -100z" />
    <glyph glyph-name="Ccedilla.smcp" unicode="&#xf7e7;" horiz-adv-x="337" 
d="M97 -189c-32 0 -57 11 -77 36l22 29c14 -22 34 -32 57 -32c31 0 54 25 54 54c0 17 -10 28 -27 28c-12 0 -20 -5 -29 -14l-23 15l38 65c-49 13 -81 59 -81 155c0 112 59 415 212 415c60 0 97 -42 105 -104l-47 -12c-6 45 -27 70 -59 70c-105 0 -158 -274 -158 -368
c0 -85 25 -114 64 -114c37 0 58 26 83 74l40 -20c-33 -60 -67 -99 -125 -100l-28 -46c7 7 17 10 24 10c28 0 47 -23 47 -53c0 -49 -42 -88 -92 -88z" />
    <glyph glyph-name="Ccircumflex.smcp" unicode="&#xf673;" horiz-adv-x="337" 
d="M363 606h-30l-40 111l-84 -111h-34l99 144h51zM145 -12c-68 0 -114 44 -114 159c0 112 59 415 212 415c60 0 97 -42 105 -104l-47 -12c-6 45 -27 70 -59 70c-105 0 -158 -274 -158 -368c0 -85 25 -114 64 -114c37 0 58 26 83 74l40 -20c-33 -60 -67 -100 -126 -100z" />
    <glyph glyph-name="Cdotaccent.smcp" unicode="&#xf674;" horiz-adv-x="337" 
d="M145 -12c-68 0 -114 44 -114 159c0 112 59 415 212 415c60 0 97 -42 105 -104l-47 -12c-6 45 -27 70 -59 70c-105 0 -158 -274 -158 -368c0 -85 25 -114 64 -114c37 0 58 26 83 74l40 -20c-33 -60 -67 -100 -126 -100zM314 652c0 -22 -19 -40 -41 -40
c-19 0 -33 14 -33 32c0 22 19 41 41 41c19 0 33 -14 33 -33z" />
    <glyph glyph-name="Dcaron.smcp" unicode="&#xf675;" horiz-adv-x="369" 
d="M301 606h-51l-38 144h30l39 -111l85 111h34zM120 0h-114l121 550h72c86 0 148 -40 148 -168c0 -138 -66 -382 -227 -382zM121 46h7c107 0 165 222 165 336c0 91 -36 122 -101 122h-24l-101 -458h54z" />
    <glyph glyph-name="Dcroat.smcp" unicode="&#xf676;" horiz-adv-x="402" 
d="M147 0h-114l57 261h-63l9 39h63l55 250h72c86 0 148 -40 148 -168c0 -138 -66 -382 -227 -382zM155 46c107 0 165 222 165 336c0 91 -36 122 -101 122h-24l-45 -204h74l-9 -39h-74l-47 -215h61z" />
    <glyph glyph-name="uni1E0A.smcp" horiz-adv-x="369" 
d="M121 0h-114l121 550h72c86 0 148 -40 148 -168c0 -138 -66 -382 -227 -382zM122 46h7c107 0 165 222 165 336c0 91 -36 122 -101 122h-24l-101 -458h54zM319 652c0 -22 -19 -40 -41 -40c-19 0 -33 14 -33 32c0 22 19 41 41 41c19 0 33 -14 33 -33z" />
    <glyph glyph-name="Eacute.smcp" unicode="&#xf7e9;" horiz-adv-x="303" 
d="M374 750l-130 -144h-37l110 144h57zM209 0h-202l121 550h202l-10 -46h-151l-44 -198h144l-9 -46h-145l-47 -214h151z" />
    <glyph glyph-name="Ebreve.smcp" unicode="&#xf677;" horiz-adv-x="303" 
d="M209 0h-202l121 550h202l-10 -46h-151l-44 -198h144l-9 -46h-145l-47 -214h151zM368 665c-35 -37 -83 -59 -130 -59c-48 0 -86 22 -105 59l32 23c12 -28 45 -46 78 -46c34 0 74 18 97 46z" />
    <glyph glyph-name="Ecaron.smcp" unicode="&#xf678;" horiz-adv-x="303" 
d="M269 606h-51l-38 144h30l39 -111l85 111h34zM209 0h-202l121 550h202l-10 -46h-151l-44 -198h144l-9 -46h-145l-47 -214h151z" />
    <glyph glyph-name="Ecircumflex.smcp" unicode="&#xf7ea;" horiz-adv-x="303" 
d="M336 606h-30l-40 111l-84 -111h-34l99 144h51zM209 0h-202l121 550h202l-10 -46h-151l-44 -198h144l-9 -46h-145l-47 -214h151z" />
    <glyph glyph-name="Edieresis.smcp" unicode="&#xf7eb;" horiz-adv-x="303" 
d="M353 654c0 -21 -18 -39 -40 -39c-18 0 -32 14 -32 32c0 21 19 39 40 39c18 0 32 -13 32 -32zM222 654c0 -21 -19 -39 -40 -39c-18 0 -32 14 -32 32c0 21 19 39 40 39c18 0 32 -13 32 -32zM209 0h-202l121 550h202l-10 -46h-151l-44 -198h144l-9 -46h-145l-47 -214h151z
" />
    <glyph glyph-name="Edotaccent.smcp" unicode="&#xf679;" horiz-adv-x="303" 
d="M209 0h-202l121 550h202l-10 -46h-151l-44 -198h144l-9 -46h-145l-47 -214h151zM288 652c0 -22 -19 -40 -41 -40c-19 0 -33 14 -33 32c0 22 19 41 41 41c19 0 33 -14 33 -33z" />
    <glyph glyph-name="Egrave.smcp" unicode="&#xf7e8;" horiz-adv-x="303" 
d="M209 0h-202l121 550h202l-10 -46h-151l-44 -198h144l-9 -46h-145l-47 -214h151zM275 606h-36l-65 144h54z" />
    <glyph glyph-name="Emacron.smcp" unicode="&#xf67a;" horiz-adv-x="303" 
d="M209 0h-202l121 550h202l-10 -46h-151l-44 -198h144l-9 -46h-145l-47 -214h151zM369 627h-244l8 36h243z" />
    <glyph glyph-name="Eogonek.smcp" unicode="&#xf67c;" horiz-adv-x="303" 
d="M180 -119l26 -18c-14 -29 -37 -49 -70 -49c-36 0 -57 19 -57 56c0 36 17 84 78 130h-150l121 550h202l-10 -46h-151l-44 -198h144l-9 -46h-145l-47 -214h151l-10 -46c-48 -29 -96 -69 -96 -127c0 -17 11 -27 27 -27c20 0 33 15 40 35z" />
    <glyph glyph-name="uni1EB8.smcp" horiz-adv-x="303" 
d="M209 0h-202l121 550h202l-10 -46h-151l-44 -198h144l-9 -46h-145l-47 -214h151zM114 -137c0 -22 -19 -40 -41 -40c-19 0 -33 14 -33 32c0 22 19 41 41 41c19 0 33 -14 33 -33z" />
    <glyph glyph-name="uni1EBA.smcp" horiz-adv-x="303" 
d="M209 0h-202l121 550h202l-10 -46h-151l-44 -198h144l-9 -46h-145l-47 -214h151zM222 652l-24 10c11 22 28 41 57 41c30 0 46 -18 46 -45c0 -32 -17 -59 -38 -78h-31c24 21 40 46 40 73c1 13 -6 24 -20 24s-23 -9 -30 -25z" />
    <glyph glyph-name="uni1EBC.smcp" horiz-adv-x="303" 
d="M209 0h-202l121 550h202l-10 -46h-151l-44 -198h144l-9 -46h-145l-47 -214h151zM285 604c-62 0 -24 104 -65 104c-20 0 -38 -29 -53 -98h-31c16 73 41 134 91 134c63 0 26 -104 66 -104c20 0 38 29 53 98h32c-16 -72 -43 -134 -93 -134z" />
    <glyph glyph-name="uni1EBE.smcp" horiz-adv-x="303" 
d="M336 606h-30l-40 111l-84 -111h-34l99 144h51zM490 821l-130 -144h-37l110 144h57zM209 0h-202l121 550h202l-10 -46h-151l-44 -198h144l-9 -46h-145l-47 -214h151z" />
    <glyph glyph-name="uni1EC0.smcp" horiz-adv-x="303" 
d="M336 606h-30l-40 111l-84 -111h-34l99 144h51zM209 0h-202l121 550h202l-10 -46h-151l-44 -198h144l-9 -46h-145l-47 -214h151zM189 677h-36l-65 144h54z" />
    <glyph glyph-name="uni1EC2.smcp" horiz-adv-x="303" 
d="M336 606h-30l-40 111l-84 -111h-34l99 144h51zM209 0h-202l121 550h202l-10 -46h-151l-44 -198h144l-9 -46h-145l-47 -214h151zM311 789l-24 10c11 22 28 41 57 41c30 0 46 -18 46 -45c0 -32 -17 -59 -38 -78h-31c24 21 40 46 40 73c1 13 -6 24 -20 24s-23 -9 -30 -25z
" />
    <glyph glyph-name="uni1EC4.smcp" horiz-adv-x="303" 
d="M328 573h-30l-40 111l-84 -111h-34l99 144h51zM209 0h-202l121 550h202l-10 -46h-151l-44 -198h144l-9 -46h-145l-47 -214h151zM313 732c-62 0 -24 104 -65 104c-20 0 -38 -29 -53 -98h-31c16 73 41 134 91 134c63 0 26 -104 66 -104c20 0 38 29 53 98h32
c-16 -72 -43 -134 -93 -134z" />
    <glyph glyph-name="uni1EC6.smcp" horiz-adv-x="303" 
d="M336 606h-30l-40 111l-84 -111h-34l99 144h51zM209 0h-202l121 550h202l-10 -46h-151l-44 -198h144l-9 -46h-145l-47 -214h151zM115 -137c0 -22 -19 -40 -41 -40c-19 0 -33 14 -33 32c0 22 19 41 41 41c19 0 33 -14 33 -33z" />
    <glyph glyph-name="uni1E1E.smcp" horiz-adv-x="302" 
d="M288 652c0 -22 -19 -40 -41 -40c-19 0 -33 14 -33 32c0 22 19 41 41 41c19 0 33 -14 33 -33zM58 0h-51l121 550h202l-10 -46h-151l-44 -198h144l-9 -46h-145z" />
    <glyph glyph-name="Gbreve.smcp" unicode="&#xf67d;" horiz-adv-x="355" 
d="M149 -12c-81 0 -118 55 -118 157c0 134 68 417 210 417c66 0 98 -48 106 -104l-46 -12c-7 41 -23 70 -61 70c-100 0 -156 -267 -156 -371c0 -83 23 -111 67 -111c27 0 51 13 65 32l37 165h-77l11 45h124l-53 -235c-32 -35 -67 -53 -109 -53zM396 665
c-35 -37 -83 -59 -130 -59c-48 0 -86 22 -105 59l32 23c12 -28 45 -46 78 -46c34 0 74 18 97 46z" />
    <glyph glyph-name="Gcircumflex.smcp" unicode="&#xf67e;" horiz-adv-x="355" 
d="M149 -12c-81 0 -118 55 -118 157c0 134 68 417 210 417c66 0 98 -48 106 -104l-46 -12c-7 41 -23 70 -61 70c-100 0 -156 -267 -156 -371c0 -83 23 -111 67 -111c27 0 51 13 65 32l37 165h-77l11 45h124l-53 -235c-32 -35 -67 -53 -109 -53zM363 606h-30l-40 111
l-84 -111h-34l99 144h51z" />
    <glyph glyph-name="Gcommaaccent.smcp" unicode="&#xf67f;" horiz-adv-x="355" 
d="M149 -12c-81 0 -118 55 -118 157c0 134 68 417 210 417c66 0 98 -48 106 -104l-46 -12c-7 41 -23 70 -61 70c-100 0 -156 -267 -156 -371c0 -83 23 -111 67 -111c27 0 51 13 65 32l37 165h-77l11 45h124l-53 -235c-32 -35 -67 -53 -109 -53zM146 -122
c0 -53 -46 -110 -95 -136l-21 24c36 18 65 51 74 81h-7c-16 0 -30 14 -30 32c0 23 19 42 41 42s38 -14 38 -43z" />
    <glyph glyph-name="Gdotaccent.smcp" unicode="&#xf680;" horiz-adv-x="355" 
d="M149 -12c-81 0 -118 55 -118 157c0 134 68 417 210 417c66 0 98 -48 106 -104l-46 -12c-7 41 -23 70 -61 70c-100 0 -156 -267 -156 -371c0 -83 23 -111 67 -111c27 0 51 13 65 32l37 165h-77l11 45h124l-53 -235c-32 -35 -67 -53 -109 -53zM315 652
c0 -22 -19 -40 -41 -40c-19 0 -33 14 -33 32c0 22 19 41 41 41c19 0 33 -14 33 -33z" />
    <glyph glyph-name="Gbreve.smcp.alt1" horiz-adv-x="355" 
d="M144 -12c-75 0 -113 60 -113 150c0 133 68 424 211 424c63 0 96 -40 108 -101l-46 -14c-9 44 -29 69 -64 69c-106 0 -157 -300 -157 -378c0 -64 24 -104 65 -104c67 0 106 104 125 197h-97l11 44h146c-27 -143 -84 -287 -189 -287zM394 665c-35 -37 -83 -59 -130 -59
c-48 0 -86 22 -105 59l32 23c12 -28 45 -46 78 -46c34 0 74 18 97 46z" />
    <glyph glyph-name="Gcommaaccent.smcp.alt1" horiz-adv-x="355" 
d="M146 -122c0 -53 -46 -110 -95 -136l-21 24c36 18 65 51 74 81h-7c-16 0 -30 14 -30 32c0 23 19 42 41 42s38 -14 38 -43zM144 -12c-75 0 -113 60 -113 150c0 133 68 424 211 424c63 0 96 -40 108 -101l-46 -14c-9 44 -29 69 -64 69c-106 0 -157 -300 -157 -378
c0 -64 24 -104 65 -104c67 0 106 104 125 197h-97l11 44h146c-27 -143 -84 -287 -189 -287z" />
    <glyph glyph-name="Gcircumflex.smcp.alt1" horiz-adv-x="355" 
d="M362 606h-30l-40 111l-84 -111h-34l99 144h51zM144 -12c-75 0 -113 60 -113 150c0 133 68 424 211 424c63 0 96 -40 108 -101l-46 -14c-9 44 -29 69 -64 69c-106 0 -157 -300 -157 -378c0 -64 24 -104 65 -104c67 0 106 104 125 197h-97l11 44h146
c-27 -143 -84 -287 -189 -287z" />
    <glyph glyph-name="Gdotaccent.smcp.alt1" horiz-adv-x="355" 
d="M144 -12c-75 0 -113 60 -113 150c0 133 68 424 211 424c63 0 96 -40 108 -101l-46 -14c-9 44 -29 69 -64 69c-106 0 -157 -300 -157 -378c0 -64 24 -104 65 -104c67 0 106 104 125 197h-97l11 44h146c-27 -143 -84 -287 -189 -287zM314 652c0 -22 -19 -40 -41 -40
c-19 0 -33 14 -33 32c0 22 19 41 41 41c19 0 33 -14 33 -33z" />
    <glyph glyph-name="Hbar.smcp" unicode="&#xf682;" horiz-adv-x="406" 
d="M273 0h-52l57 260h-145l-57 -260h-51l90 411h-60l8 36h60l23 103h51l-23 -103h145l23 103h52l-23 -103h61l-8 -36h-61zM143 306h145l23 105h-145z" />
    <glyph glyph-name="Hcircumflex.smcp" unicode="&#xf681;" horiz-adv-x="370" 
d="M358 606h-30l-40 111l-84 -111h-34l99 144h51zM255 0h-52l57 260h-145l-57 -260h-51l121 550h51l-54 -244h145l54 244h52z" />
    <glyph glyph-name="uni1E22.smcp" horiz-adv-x="370" 
d="M255 0h-52l57 260h-145l-57 -260h-51l121 550h51l-54 -244h145l54 244h52zM310 652c0 -22 -19 -40 -41 -40c-19 0 -33 14 -33 32c0 22 19 41 41 41c19 0 33 -14 33 -33z" />
    <glyph glyph-name="Iacute.smcp" unicode="&#xf7ed;" horiz-adv-x="173" 
d="M297 750l-130 -144h-37l110 144h57zM58 0h-51l121 550h51z" />
    <glyph glyph-name="Ibreve.smcp" unicode="&#xf683;" horiz-adv-x="173" 
d="M58 0h-51l121 550h51zM292 665c-35 -37 -83 -59 -130 -59c-48 0 -86 22 -105 59l32 23c12 -28 45 -46 78 -46c34 0 74 18 97 46z" />
    <glyph glyph-name="Igrave.smcp" unicode="&#xf7ec;" horiz-adv-x="173" 
d="M58 0h-51l121 550h51zM199 606h-36l-65 144h54z" />
    <glyph glyph-name="Icircumflex.smcp" unicode="&#xf7ee;" horiz-adv-x="173" 
d="M260 606h-30l-40 111l-84 -111h-34l99 144h51zM58 0h-51l121 550h51z" />
    <glyph glyph-name="Idieresis.smcp" unicode="&#xf7ef;" horiz-adv-x="173" 
d="M277 654c0 -21 -18 -39 -40 -39c-18 0 -32 14 -32 32c0 21 19 39 40 39c18 0 32 -13 32 -32zM146 654c0 -21 -19 -39 -40 -39c-18 0 -32 14 -32 32c0 21 19 39 40 39c18 0 32 -13 32 -32zM58 0h-51l121 550h51z" />
    <glyph glyph-name="Idotaccent.smcp" unicode="&#xf6ad;" horiz-adv-x="173" 
d="M58 0h-51l121 550h51zM212 652c0 -22 -19 -40 -41 -40c-19 0 -33 14 -33 32c0 22 19 41 41 41c19 0 33 -14 33 -33z" />
    <glyph glyph-name="Imacron.smcp" unicode="&#xf685;" horiz-adv-x="173" 
d="M293 627h-244l8 36h243zM58 0h-51l121 550h51z" />
    <glyph glyph-name="Iogonek.smcp" unicode="&#xf686;" horiz-adv-x="173" 
d="M58 0c-48 -29 -96 -69 -96 -127c0 -17 11 -27 27 -27c20 0 33 15 40 35l26 -18c-14 -29 -37 -49 -70 -49c-36 0 -57 19 -57 56c0 36 18 85 79 130l121 550h51z" />
    <glyph glyph-name="Itilde.smcp" unicode="&#xf687;" horiz-adv-x="173" 
d="M58 0h-51l121 550h51zM209 604c-62 0 -24 104 -65 104c-20 0 -38 -29 -53 -98h-31c16 73 41 134 91 134c63 0 26 -104 66 -104c20 0 38 29 53 98h32c-16 -72 -43 -134 -93 -134z" />
    <glyph glyph-name="uni1EC8.smcp" horiz-adv-x="173" 
d="M58 0h-51l121 550h51zM147 652l-24 10c11 22 28 41 57 41c30 0 46 -18 46 -45c0 -32 -17 -59 -38 -78h-31c24 21 40 46 40 73c1 13 -6 24 -20 24s-23 -9 -30 -25z" />
    <glyph glyph-name="uni1ECA.smcp" horiz-adv-x="173" 
d="M58 0h-51l121 550h51zM38 -137c0 -22 -19 -40 -41 -40c-19 0 -33 14 -33 32c0 22 19 41 41 41c19 0 33 -14 33 -33z" />
    <glyph glyph-name="IJ.smcp" unicode="&#xf684;" horiz-adv-x="445" 
d="M231 -12c-44 0 -80 16 -99 49l32 35c11 -23 34 -38 63 -38c41 0 63 22 75 77l98 439h51l-98 -442c-19 -90 -62 -120 -122 -120zM58 0h-51l121 550h51z" />
    <glyph glyph-name="Jcircumflex.smcp" unicode="&#xf688;" horiz-adv-x="272" 
d="M360 606h-30l-40 111l-84 -111h-34l99 144h51zM58 -12c-44 0 -80 16 -99 49l32 35c11 -23 34 -38 63 -38c41 0 63 22 75 77l98 439h51l-98 -442c-19 -90 -62 -120 -122 -120z" />
    <glyph glyph-name="Kcommaaccent.smcp" unicode="&#xf689;" horiz-adv-x="349" 
d="M147 -122c0 -53 -46 -110 -95 -136l-21 24c36 18 65 51 74 81h-7c-16 0 -30 14 -30 32c0 23 19 42 41 42s38 -14 38 -43zM283 0h-59l-75 247l-51 -68l-40 -179h-51l121 550h51l-62 -284l215 284h61l-206 -262z" />
    <glyph glyph-name="Lacute.smcp" unicode="&#xf68a;" horiz-adv-x="284" 
d="M209 0h-202l121 550h51l-111 -504h151zM374 750l-130 -144h-37l110 144h57z" />
    <glyph glyph-name="Lcaron.smcp" unicode="&#xf68b;" horiz-adv-x="288" 
d="M298 517c0 -53 -46 -110 -95 -136l-21 24c36 18 65 51 74 81h-7c-16 0 -30 14 -30 32c0 23 19 42 41 42s38 -14 38 -43zM209 0h-202l121 550h51l-111 -504h151z" />
    <glyph glyph-name="Lcommaaccent.smcp" unicode="&#xf68c;" horiz-adv-x="284" 
d="M122 -122c0 -53 -46 -110 -95 -136l-21 24c36 18 65 51 74 81h-7c-16 0 -30 14 -30 32c0 23 19 42 41 42s38 -14 38 -43zM209 0h-202l121 550h51l-111 -504h151z" />
    <glyph glyph-name="Ldot.smcp" unicode="&#xf68d;" horiz-adv-x="323" 
d="M209 0h-202l121 550h51l-111 -504h151zM255 246c-22 0 -39 17 -39 39c0 26 21 46 46 46c22 0 39 -18 39 -39c0 -26 -21 -46 -46 -46z" />
    <glyph glyph-name="Lslash.smcp" unicode="&#xf6f9;" horiz-adv-x="305" 
d="M15 205l11 50l65 33l58 262h51l-51 -232l70 36l-11 -50l-70 -36l-49 -222h151l-10 -46h-202l52 238z" />
    <glyph glyph-name="Nacute.smcp" unicode="&#xf68e;" horiz-adv-x="368" 
d="M395 750l-130 -144h-37l110 144h57zM253 0h-55l-45 426l-95 -426h-51l121 550h56l47 -418l91 418h52z" />
    <glyph glyph-name="Ncaron.smcp" unicode="&#xf68f;" horiz-adv-x="368" 
d="M290 606h-51l-38 144h30l39 -111l85 111h34zM253 0h-55l-45 426l-95 -426h-51l121 550h56l47 -418l91 418h52z" />
    <glyph glyph-name="Ncommaaccent.smcp" unicode="&#xf690;" horiz-adv-x="368" 
d="M143 -122c0 -53 -46 -110 -95 -136l-21 24c36 18 65 51 74 81h-7c-16 0 -30 14 -30 32c0 23 19 42 41 42s38 -14 38 -43zM253 0h-55l-45 426l-95 -426h-51l121 550h56l47 -418l91 418h52z" />
    <glyph glyph-name="Ntilde.smcp" unicode="&#xf7f1;" horiz-adv-x="368" 
d="M253 0h-55l-45 426l-95 -426h-51l121 550h56l47 -418l91 418h52zM307 604c-62 0 -24 104 -65 104c-20 0 -38 -29 -53 -98h-31c16 73 41 134 91 134c63 0 26 -104 66 -104c20 0 38 29 53 98h32c-16 -72 -43 -134 -93 -134z" />
    <glyph glyph-name="Eng.smcp" unicode="&#xf67b;" horiz-adv-x="368" 
d="M114 -196c-42 0 -81 15 -99 49l31 32c13 -26 38 -38 63 -38c41 0 64 22 76 77l14 67l-46 435l-95 -426h-51l121 550h56l47 -418l91 418h52l-138 -627c-19 -85 -58 -119 -122 -119z" />
    <glyph glyph-name="Oacute.smcp" unicode="&#xf7f3;" horiz-adv-x="376" 
d="M145 -12c-71 0 -114 52 -114 156c0 89 50 418 212 418c71 0 114 -53 114 -156c0 -89 -50 -418 -212 -418zM146 34c114 0 157 308 157 372c0 76 -19 110 -61 110c-114 0 -158 -308 -158 -372c0 -76 20 -110 62 -110zM399 750l-130 -144h-37l110 144h57z" />
    <glyph glyph-name="Obreve.smcp" unicode="&#xf691;" horiz-adv-x="376" 
d="M145 -12c-71 0 -114 52 -114 156c0 89 50 418 212 418c71 0 114 -53 114 -156c0 -89 -50 -418 -212 -418zM146 34c114 0 157 308 157 372c0 76 -19 110 -61 110c-114 0 -158 -308 -158 -372c0 -76 20 -110 62 -110zM394 665c-35 -37 -83 -59 -130 -59
c-48 0 -86 22 -105 59l32 23c12 -28 45 -46 78 -46c34 0 74 18 97 46z" />
    <glyph glyph-name="Ocircumflex.smcp" unicode="&#xf7f4;" horiz-adv-x="376" 
d="M145 -12c-71 0 -114 52 -114 156c0 89 50 418 212 418c71 0 114 -53 114 -156c0 -89 -50 -418 -212 -418zM146 34c114 0 157 308 157 372c0 76 -19 110 -61 110c-114 0 -158 -308 -158 -372c0 -76 20 -110 62 -110zM362 606h-30l-40 111l-84 -111h-34l99 144h51z" />
    <glyph glyph-name="Odieresis.smcp" unicode="&#xf7f6;" horiz-adv-x="376" 
d="M145 -12c-71 0 -114 52 -114 156c0 89 50 418 212 418c71 0 114 -53 114 -156c0 -89 -50 -418 -212 -418zM146 34c114 0 157 308 157 372c0 76 -19 110 -61 110c-114 0 -158 -308 -158 -372c0 -76 20 -110 62 -110zM379 654c0 -21 -18 -39 -40 -39c-18 0 -32 14 -32 32
c0 21 19 39 40 39c18 0 32 -13 32 -32zM248 654c0 -21 -19 -39 -40 -39c-18 0 -32 14 -32 32c0 21 19 39 40 39c18 0 32 -13 32 -32z" />
    <glyph glyph-name="Ograve.smcp" unicode="&#xf7f2;" horiz-adv-x="376" 
d="M145 -12c-71 0 -114 52 -114 156c0 89 50 418 212 418c71 0 114 -53 114 -156c0 -89 -50 -418 -212 -418zM146 34c114 0 157 308 157 372c0 76 -19 110 -61 110c-114 0 -158 -308 -158 -372c0 -76 20 -110 62 -110zM301 606h-36l-65 144h54z" />
    <glyph glyph-name="Ohungarumlaut.smcp" unicode="&#xf692;" horiz-adv-x="376" 
d="M145 -12c-71 0 -114 52 -114 156c0 89 50 418 212 418c71 0 114 -53 114 -156c0 -89 -50 -418 -212 -418zM146 34c114 0 157 308 157 372c0 76 -19 110 -61 110c-114 0 -158 -308 -158 -372c0 -76 20 -110 62 -110zM328 750l-108 -144h-31l89 144h50zM439 750l-108 -144
h-31l89 144h50z" />
    <glyph glyph-name="Omacron.smcp" unicode="&#xf693;" horiz-adv-x="376" 
d="M145 -12c-71 0 -114 52 -114 156c0 89 50 418 212 418c71 0 114 -53 114 -156c0 -89 -50 -418 -212 -418zM146 34c114 0 157 308 157 372c0 76 -19 110 -61 110c-114 0 -158 -308 -158 -372c0 -76 20 -110 62 -110zM395 627h-244l8 36h243z" />
    <glyph glyph-name="Otilde.smcp" unicode="&#xf7f5;" horiz-adv-x="376" 
d="M145 -12c-71 0 -114 52 -114 156c0 89 50 418 212 418c71 0 114 -53 114 -156c0 -89 -50 -418 -212 -418zM146 34c114 0 157 308 157 372c0 76 -19 110 -61 110c-114 0 -158 -308 -158 -372c0 -76 20 -110 62 -110zM312 604c-62 0 -24 104 -65 104c-20 0 -38 -29 -53 -98
h-31c16 73 41 134 91 134c63 0 26 -104 66 -104c20 0 38 29 53 98h32c-16 -72 -43 -134 -93 -134z" />
    <glyph glyph-name="Oslash.smcp" unicode="&#xf7f8;" horiz-adv-x="376" 
d="M145 -12c-38 0 -68 14 -87 44l-21 -32h-42l45 70c-6 20 -9 45 -9 74c0 89 50 418 212 418c38 0 69 -16 88 -47l23 35h42l-48 -73c5 -20 9 -44 9 -71c0 -89 -50 -418 -212 -418zM84 144v-8l214 328c-9 35 -27 52 -56 52c-114 0 -158 -308 -158 -372zM146 34
c114 0 157 308 157 372v1l-213 -325c9 -33 28 -48 56 -48z" />
    <glyph glyph-name="Oslashacute.smcp" unicode="&#xf694;" horiz-adv-x="376" 
d="M145 -12c-38 0 -68 14 -87 44l-21 -32h-42l45 70c-6 20 -9 45 -9 74c0 89 50 418 212 418c38 0 69 -16 88 -47l23 35h42l-48 -73c5 -20 9 -44 9 -71c0 -89 -50 -418 -212 -418zM84 144v-8l214 328c-9 35 -27 52 -56 52c-114 0 -158 -308 -158 -372zM146 34
c114 0 157 308 157 372v1l-213 -325c9 -33 28 -48 56 -48zM399 750l-130 -144h-37l110 144h57z" />
    <glyph glyph-name="uni1ECC.smcp" horiz-adv-x="376" 
d="M145 -12c-71 0 -114 52 -114 156c0 89 50 418 212 418c71 0 114 -53 114 -156c0 -89 -50 -418 -212 -418zM146 34c114 0 157 308 157 372c0 76 -19 110 -61 110c-114 0 -158 -308 -158 -372c0 -76 20 -110 62 -110zM139 -137c0 -22 -19 -40 -41 -40c-19 0 -33 14 -33 32
c0 22 19 41 41 41c19 0 33 -14 33 -33z" />
    <glyph glyph-name="uni1ECE.smcp" horiz-adv-x="376" 
d="M145 -12c-71 0 -114 52 -114 156c0 89 50 418 212 418c71 0 114 -53 114 -156c0 -89 -50 -418 -212 -418zM146 34c114 0 157 308 157 372c0 76 -19 110 -61 110c-114 0 -158 -308 -158 -372c0 -76 20 -110 62 -110zM248 652l-24 10c11 22 28 41 57 41c30 0 46 -18 46 -45
c0 -32 -17 -59 -38 -78h-31c24 21 40 46 40 73c1 13 -6 24 -20 24s-23 -9 -30 -25z" />
    <glyph glyph-name="uni1ED0.smcp" horiz-adv-x="376" 
d="M145 -12c-71 0 -114 52 -114 156c0 89 50 418 212 418c71 0 114 -53 114 -156c0 -89 -50 -418 -212 -418zM146 34c114 0 157 308 157 372c0 76 -19 110 -61 110c-114 0 -158 -308 -158 -372c0 -76 20 -110 62 -110zM361 606h-30l-40 111l-84 -111h-34l99 144h51zM515 821
l-130 -144h-37l110 144h57z" />
    <glyph glyph-name="uni1ED2.smcp" horiz-adv-x="376" 
d="M145 -12c-71 0 -114 52 -114 156c0 89 50 418 212 418c71 0 114 -53 114 -156c0 -89 -50 -418 -212 -418zM146 34c114 0 157 308 157 372c0 76 -19 110 -61 110c-114 0 -158 -308 -158 -372c0 -76 20 -110 62 -110zM361 606h-30l-40 111l-84 -111h-34l99 144h51zM214 677
h-36l-65 144h54z" />
    <glyph glyph-name="uni1ED4.smcp" horiz-adv-x="376" 
d="M145 -12c-71 0 -114 52 -114 156c0 89 50 418 212 418c71 0 114 -53 114 -156c0 -89 -50 -418 -212 -418zM146 34c114 0 157 308 157 372c0 76 -19 110 -61 110c-114 0 -158 -308 -158 -372c0 -76 20 -110 62 -110zM361 606h-30l-40 111l-84 -111h-34l99 144h51zM336 789
l-24 10c11 22 28 41 57 41c30 0 46 -18 46 -45c0 -32 -17 -59 -38 -78h-31c24 21 40 46 40 73c1 13 -6 24 -20 24s-23 -9 -30 -25z" />
    <glyph glyph-name="uni1ED6.smcp" horiz-adv-x="376" 
d="M145 -12c-71 0 -114 52 -114 156c0 89 50 418 212 418c71 0 114 -53 114 -156c0 -89 -50 -418 -212 -418zM146 34c114 0 157 308 157 372c0 76 -19 110 -61 110c-114 0 -158 -308 -158 -372c0 -76 20 -110 62 -110zM353 573h-30l-40 111l-84 -111h-34l99 144h51zM338 732
c-62 0 -24 104 -65 104c-20 0 -38 -29 -53 -98h-31c16 73 41 134 91 134c63 0 26 -104 66 -104c20 0 38 29 53 98h32c-16 -72 -43 -134 -93 -134z" />
    <glyph glyph-name="uni1ED8.smcp" horiz-adv-x="376" 
d="M145 -12c-71 0 -114 52 -114 156c0 89 50 418 212 418c71 0 114 -53 114 -156c0 -89 -50 -418 -212 -418zM146 34c114 0 157 308 157 372c0 76 -19 110 -61 110c-114 0 -158 -308 -158 -372c0 -76 20 -110 62 -110zM363 606h-30l-40 111l-84 -111h-34l99 144h51z
M139 -137c0 -22 -19 -40 -41 -40c-19 0 -33 14 -33 32c0 22 19 41 41 41c19 0 33 -14 33 -33z" />
    <glyph glyph-name="Ohorn.smcp" horiz-adv-x="376" 
d="M145 -12c-71 0 -114 52 -114 156c0 89 50 418 212 418c53 0 91 -30 106 -89c23 18 40 41 46 63h-6c-16 0 -30 14 -30 31c0 23 19 41 41 41c21 0 36 -14 36 -42c0 -48 -38 -99 -81 -127c1 -10 2 -21 2 -33c0 -89 -50 -418 -212 -418zM146 34c114 0 157 308 157 372
c0 76 -19 110 -61 110c-114 0 -158 -308 -158 -372c0 -76 20 -110 62 -110z" />
    <glyph glyph-name="uni1EDA.smcp" horiz-adv-x="376" 
d="M145 -12c-71 0 -114 52 -114 156c0 89 50 418 212 418c53 0 91 -30 106 -89c23 18 40 41 46 63h-6c-16 0 -30 14 -30 31c0 23 19 41 41 41c21 0 36 -14 36 -42c0 -48 -38 -99 -81 -127c1 -10 2 -21 2 -33c0 -89 -50 -418 -212 -418zM146 34c114 0 157 308 157 372
c0 76 -19 110 -61 110c-114 0 -158 -308 -158 -372c0 -76 20 -110 62 -110zM399 750l-130 -144h-37l110 144h57z" />
    <glyph glyph-name="uni1EDC.smcp" horiz-adv-x="376" 
d="M145 -12c-71 0 -114 52 -114 156c0 89 50 418 212 418c53 0 91 -30 106 -89c23 18 40 41 46 63h-6c-16 0 -30 14 -30 31c0 23 19 41 41 41c21 0 36 -14 36 -42c0 -48 -38 -99 -81 -127c1 -10 2 -21 2 -33c0 -89 -50 -418 -212 -418zM146 34c114 0 157 308 157 372
c0 76 -19 110 -61 110c-114 0 -158 -308 -158 -372c0 -76 20 -110 62 -110zM301 606h-36l-65 144h54z" />
    <glyph glyph-name="uni1EDE.smcp" horiz-adv-x="376" 
d="M145 -12c-71 0 -114 52 -114 156c0 89 50 418 212 418c53 0 91 -30 106 -89c23 18 40 41 46 63h-6c-16 0 -30 14 -30 31c0 23 19 41 41 41c21 0 36 -14 36 -42c0 -48 -38 -99 -81 -127c1 -10 2 -21 2 -33c0 -89 -50 -418 -212 -418zM146 34c114 0 157 308 157 372
c0 76 -19 110 -61 110c-114 0 -158 -308 -158 -372c0 -76 20 -110 62 -110zM248 652l-24 10c11 22 28 41 57 41c30 0 46 -18 46 -45c0 -32 -17 -59 -38 -78h-31c24 21 40 46 40 73c1 13 -6 24 -20 24s-23 -9 -30 -25z" />
    <glyph glyph-name="uni1EE0.smcp" horiz-adv-x="376" 
d="M145 -12c-71 0 -114 52 -114 156c0 89 50 418 212 418c53 0 91 -30 106 -89c23 18 40 41 46 63h-6c-16 0 -30 14 -30 31c0 23 19 41 41 41c21 0 36 -14 36 -42c0 -48 -38 -99 -81 -127c1 -10 2 -21 2 -33c0 -89 -50 -418 -212 -418zM146 34c114 0 157 308 157 372
c0 76 -19 110 -61 110c-114 0 -158 -308 -158 -372c0 -76 20 -110 62 -110zM311 604c-62 0 -24 104 -65 104c-20 0 -38 -29 -53 -98h-31c16 73 41 134 91 134c63 0 26 -104 66 -104c20 0 38 29 53 98h32c-16 -72 -43 -134 -93 -134z" />
    <glyph glyph-name="uni1EE2.smcp" horiz-adv-x="376" 
d="M145 -12c-71 0 -114 52 -114 156c0 89 50 418 212 418c53 0 91 -30 106 -89c23 18 40 41 46 63h-6c-16 0 -30 14 -30 31c0 23 19 41 41 41c21 0 36 -14 36 -42c0 -48 -38 -99 -81 -127c1 -10 2 -21 2 -33c0 -89 -50 -418 -212 -418zM146 34c114 0 157 308 157 372
c0 76 -19 110 -61 110c-114 0 -158 -308 -158 -372c0 -76 20 -110 62 -110zM139 -137c0 -22 -19 -40 -41 -40c-19 0 -33 14 -33 32c0 22 19 41 41 41c19 0 33 -14 33 -33z" />
    <glyph glyph-name="OE.smcp" unicode="&#xf6fa;" horiz-adv-x="511" 
d="M417 0h-202l11 50c-27 -47 -64 -62 -90 -62c-70 0 -105 60 -105 154c0 115 57 420 209 420c39 0 74 -24 81 -80l15 68h202l-10 -46h-150l-45 -198h145l-10 -46h-144l-47 -214h150zM247 149l57 253c-1 71 -17 114 -62 114c-108 0 -158 -290 -158 -372
c0 -71 16 -110 62 -110s74 47 101 115z" />
    <glyph glyph-name="uni1E56.smcp" horiz-adv-x="310" 
d="M58 0h-51l121 550h79c68 0 115 -42 115 -121c0 -90 -53 -203 -159 -203h-55zM118 272h49c65 0 101 87 101 154c0 53 -27 78 -71 78h-28zM299 652c0 -22 -19 -40 -41 -40c-19 0 -33 14 -33 32c0 22 19 41 41 41c19 0 33 -14 33 -33z" />
    <glyph glyph-name="Racute.smcp" unicode="&#xf695;" horiz-adv-x="328" 
d="M384 750l-130 -144h-37l110 144h57zM238 0h-56l-28 226h-46l-50 -226h-51l121 550h85c67 0 110 -48 110 -122c0 -91 -52 -179 -120 -196zM154 272h14c67 0 101 93 101 153c0 54 -28 79 -64 79h-36l-51 -232h36z" />
    <glyph glyph-name="Rcaron.smcp" unicode="&#xf696;" horiz-adv-x="328" 
d="M280 606h-51l-38 144h30l39 -111l85 111h34zM238 0h-56l-28 226h-46l-50 -226h-51l121 550h85c67 0 110 -48 110 -122c0 -91 -52 -179 -120 -196zM154 272h14c67 0 101 93 101 153c0 54 -28 79 -64 79h-36l-51 -232h36z" />
    <glyph glyph-name="Rcommaaccent.smcp" unicode="&#xf697;" horiz-adv-x="328" 
d="M131 -122c0 -53 -46 -110 -95 -136l-21 24c36 18 65 51 74 81h-7c-16 0 -30 14 -30 32c0 23 19 42 41 42s38 -14 38 -43zM238 0h-56l-28 226h-46l-50 -226h-51l121 550h85c67 0 110 -48 110 -122c0 -91 -52 -179 -120 -196zM154 272h14c67 0 101 93 101 153
c0 54 -28 79 -64 79h-36l-51 -232h36z" />
    <glyph glyph-name="Sacute.smcp" unicode="&#xf698;" horiz-adv-x="290" 
d="M357 750l-130 -144h-37l110 144h57zM97 -12c-49 0 -90 19 -117 60l36 35c17 -30 47 -49 79 -49c49 0 89 52 89 118c0 102 -109 139 -109 249c0 90 62 161 136 161c41 0 76 -15 99 -47l-33 -36c-17 25 -39 37 -65 37c-43 0 -82 -48 -82 -104c0 -92 109 -131 109 -259
c0 -83 -61 -165 -142 -165z" />
    <glyph glyph-name="Scaron.smcp" unicode="&#xf6fd;" horiz-adv-x="290" 
d="M255 606h-51l-38 144h30l39 -111l85 111h34zM97 -12c-49 0 -90 19 -117 60l36 35c17 -30 47 -49 79 -49c49 0 89 52 89 118c0 102 -109 139 -109 249c0 90 62 161 136 161c41 0 76 -15 99 -47l-33 -36c-17 25 -39 37 -65 37c-43 0 -82 -48 -82 -104
c0 -92 109 -131 109 -259c0 -83 -61 -165 -142 -165z" />
    <glyph glyph-name="Scircumflex.smcp" unicode="&#xf69a;" horiz-adv-x="290" 
d="M321 606h-30l-40 111l-84 -111h-34l99 144h51zM97 -12c-49 0 -90 19 -117 60l36 35c17 -30 47 -49 79 -49c49 0 89 52 89 118c0 102 -109 139 -109 249c0 90 62 161 136 161c41 0 76 -15 99 -47l-33 -36c-17 25 -39 37 -65 37c-43 0 -82 -48 -82 -104
c0 -92 109 -131 109 -259c0 -83 -61 -165 -142 -165z" />
    <glyph glyph-name="Scedilla.smcp" unicode="&#xf699;" horiz-adv-x="290" 
d="M51 -189c-32 0 -57 11 -77 36l22 29c14 -22 34 -32 57 -32c31 0 54 25 54 54c0 17 -10 28 -27 28c-12 0 -20 -5 -29 -14l-23 15l38 64c-36 7 -65 25 -86 57l36 35c17 -30 47 -49 79 -49c49 0 89 52 89 118c0 102 -109 139 -109 249c0 90 62 161 136 161
c41 0 76 -15 99 -47l-33 -36c-17 25 -39 37 -65 37c-43 0 -82 -48 -82 -104c0 -92 109 -131 109 -259c0 -82 -60 -163 -139 -165l-28 -46c7 7 17 10 24 10c28 0 47 -23 47 -53c0 -49 -42 -88 -92 -88z" />
    <glyph glyph-name="Scommaaccent.smcp" unicode="&#xf69b;" horiz-adv-x="290" 
d="M104 -122c0 -53 -46 -110 -95 -136l-21 24c36 18 65 51 74 81h-7c-16 0 -30 14 -30 32c0 23 19 42 41 42s38 -14 38 -43zM97 -12c-49 0 -90 19 -117 60l36 35c17 -30 47 -49 79 -49c49 0 89 52 89 118c0 102 -109 139 -109 249c0 90 62 161 136 161c41 0 76 -15 99 -47
l-33 -36c-17 25 -39 37 -65 37c-43 0 -82 -48 -82 -104c0 -92 109 -131 109 -259c0 -83 -61 -165 -142 -165z" />
    <glyph glyph-name="uni1E60.smcp" horiz-adv-x="290" 
d="M97 -12c-49 0 -90 19 -117 60l36 35c17 -30 47 -49 79 -49c49 0 89 52 89 118c0 102 -109 139 -109 249c0 90 62 161 136 161c41 0 76 -15 99 -47l-33 -36c-17 25 -39 37 -65 37c-43 0 -82 -48 -82 -104c0 -92 109 -131 109 -259c0 -83 -61 -165 -142 -165zM273 652
c0 -22 -19 -40 -41 -40c-19 0 -33 14 -33 32c0 22 19 41 41 41c19 0 33 -14 33 -33z" />
    <glyph glyph-name="Tbar.smcp" unicode="&#xf69c;" horiz-adv-x="256" 
d="M99 0h-51l57 258h-55l8 36h55l46 210h-87l10 46h226l-10 -46h-88l-47 -210h54l-8 -36h-54z" />
    <glyph glyph-name="Tcaron.smcp" unicode="&#xf69d;" horiz-adv-x="256" 
d="M232 606h-51l-38 144h30l39 -111l85 111h34zM99 0h-51l111 504h-87l10 46h226l-10 -46h-88z" />
    <glyph glyph-name="Tcommaaccent.smcp" unicode="&#xf69e;" horiz-adv-x="256" 
d="M86 -122c0 -53 -46 -110 -95 -136l-21 24c36 18 65 51 74 81h-7c-16 0 -30 14 -30 32c0 23 19 42 41 42s38 -14 38 -43zM99 0h-51l111 504h-87l10 46h226l-10 -46h-88z" />
    <glyph glyph-name="uni021A.smcp" horiz-adv-x="256" 
d="M86 -122c0 -53 -46 -110 -95 -136l-21 24c36 18 65 51 74 81h-7c-16 0 -30 14 -30 32c0 23 19 42 41 42s38 -14 38 -43zM99 0h-51l111 504h-87l10 46h226l-10 -46h-88z" />
    <glyph glyph-name="uni1E6A.smcp" horiz-adv-x="256" 
d="M99 0h-51l111 504h-87l10 46h226l-10 -46h-88zM254 652c0 -22 -19 -40 -41 -40c-19 0 -33 14 -33 32c0 22 19 41 41 41c19 0 33 -14 33 -33z" />
    <glyph glyph-name="Uacute.smcp" unicode="&#xf7fa;" horiz-adv-x="370" 
d="M395 750l-130 -144h-37l110 144h57zM147 -12c-80 0 -114 38 -114 102c0 27 4 50 8 69l87 391h51l-90 -408c-3 -17 -5 -31 -5 -39c0 -54 27 -69 64 -69c46 0 71 37 88 116l89 400h51l-86 -388c-24 -106 -57 -174 -143 -174z" />
    <glyph glyph-name="Ubreve.smcp" unicode="&#xf69f;" horiz-adv-x="370" 
d="M147 -12c-80 0 -114 38 -114 102c0 27 4 50 8 69l87 391h51l-90 -408c-3 -17 -5 -31 -5 -39c0 -54 27 -69 64 -69c46 0 71 37 88 116l89 400h51l-86 -388c-24 -106 -57 -174 -143 -174zM390 665c-35 -37 -83 -59 -130 -59c-48 0 -86 22 -105 59l32 23
c12 -28 45 -46 78 -46c34 0 74 18 97 46z" />
    <glyph glyph-name="Ucircumflex.smcp" unicode="&#xf7fb;" horiz-adv-x="370" 
d="M359 606h-30l-40 111l-84 -111h-34l99 144h51zM147 -12c-80 0 -114 38 -114 102c0 27 4 50 8 69l87 391h51l-90 -408c-3 -17 -5 -31 -5 -39c0 -54 27 -69 64 -69c46 0 71 37 88 116l89 400h51l-86 -388c-24 -106 -57 -174 -143 -174z" />
    <glyph glyph-name="Udieresis.smcp" unicode="&#xf7fc;" horiz-adv-x="370" 
d="M375 654c0 -21 -18 -39 -40 -39c-18 0 -32 14 -32 32c0 21 19 39 40 39c18 0 32 -13 32 -32zM244 654c0 -21 -19 -39 -40 -39c-18 0 -32 14 -32 32c0 21 19 39 40 39c18 0 32 -13 32 -32zM147 -12c-80 0 -114 38 -114 102c0 27 4 50 8 69l87 391h51l-90 -408
c-3 -17 -5 -31 -5 -39c0 -54 27 -69 64 -69c46 0 71 37 88 116l89 400h51l-86 -388c-24 -106 -57 -174 -143 -174z" />
    <glyph glyph-name="Ugrave.smcp" unicode="&#xf7f9;" horiz-adv-x="370" 
d="M147 -12c-80 0 -114 38 -114 102c0 27 4 50 8 69l87 391h51l-90 -408c-3 -17 -5 -31 -5 -39c0 -54 27 -69 64 -69c46 0 71 37 88 116l89 400h51l-86 -388c-24 -106 -57 -174 -143 -174zM297 606h-36l-65 144h54z" />
    <glyph glyph-name="Uhungarumlaut.smcp" unicode="&#xf6a0;" horiz-adv-x="370" 
d="M147 -12c-80 0 -114 38 -114 102c0 27 4 50 8 69l87 391h51l-90 -408c-3 -17 -5 -31 -5 -39c0 -54 27 -69 64 -69c46 0 71 37 88 116l89 400h51l-86 -388c-24 -106 -57 -174 -143 -174zM323 750l-108 -144h-31l89 144h50zM434 750l-108 -144h-31l89 144h50z" />
    <glyph glyph-name="Umacron.smcp" unicode="&#xf6a1;" horiz-adv-x="370" 
d="M147 -12c-80 0 -114 38 -114 102c0 27 4 50 8 69l87 391h51l-90 -408c-3 -17 -5 -31 -5 -39c0 -54 27 -69 64 -69c46 0 71 37 88 116l89 400h51l-86 -388c-24 -106 -57 -174 -143 -174zM391 627h-244l8 36h243z" />
    <glyph glyph-name="Uogonek.smcp" unicode="&#xf6a2;" horiz-adv-x="370" 
d="M172 -119l26 -18c-14 -29 -37 -49 -70 -49c-36 0 -57 19 -57 56c0 33 14 77 63 119c-71 4 -101 40 -101 101c0 27 4 50 8 69l87 391h51l-90 -408c-3 -17 -5 -31 -5 -39c0 -54 27 -69 64 -69c46 0 71 37 88 116l89 400h51l-86 -388c-19 -82 -43 -142 -93 -164
c-47 -29 -92 -68 -92 -125c0 -17 11 -27 27 -27c20 0 33 15 40 35z" />
    <glyph glyph-name="Uring.smcp" unicode="&#xf6a3;" horiz-adv-x="370" 
d="M147 -12c-80 0 -114 38 -114 102c0 27 4 50 8 69l87 391h51l-90 -408c-3 -17 -5 -31 -5 -39c0 -54 27 -69 64 -69c46 0 71 37 88 116l89 400h51l-86 -388c-24 -106 -57 -174 -143 -174zM267 575c-43 0 -72 32 -72 74c0 47 43 89 89 89c43 0 72 -31 72 -74
c0 -47 -42 -89 -89 -89zM269 605c31 0 57 26 57 57c0 26 -18 46 -43 46c-31 0 -58 -26 -58 -57c0 -25 18 -46 44 -46z" />
    <glyph glyph-name="Utilde.smcp" unicode="&#xf6a4;" horiz-adv-x="370" 
d="M147 -12c-80 0 -114 38 -114 102c0 27 4 50 8 69l87 391h51l-90 -408c-3 -17 -5 -31 -5 -39c0 -54 27 -69 64 -69c46 0 71 37 88 116l89 400h51l-86 -388c-24 -106 -57 -174 -143 -174zM307 604c-62 0 -24 104 -65 104c-20 0 -38 -29 -53 -98h-31c16 73 41 134 91 134
c63 0 26 -104 66 -104c20 0 38 29 53 98h32c-16 -72 -43 -134 -93 -134z" />
    <glyph glyph-name="uni1EE4.smcp" horiz-adv-x="370" 
d="M147 -12c-80 0 -114 38 -114 102c0 27 4 50 8 69l87 391h51l-90 -408c-3 -17 -5 -31 -5 -39c0 -54 27 -69 64 -69c46 0 71 37 88 116l89 400h51l-86 -388c-24 -106 -57 -174 -143 -174zM136 -137c0 -22 -19 -40 -41 -40c-19 0 -33 14 -33 32c0 22 19 41 41 41
c19 0 33 -14 33 -33z" />
    <glyph glyph-name="Uhorn.smcp" horiz-adv-x="370" 
d="M147 -12c-80 0 -114 38 -114 102c0 22 4 47 8 69l87 391h51l-87 -396c-5 -22 -8 -43 -8 -51c0 -54 27 -69 64 -69c46 0 71 37 88 116l89 400h51l-7 -32c22 18 40 41 46 63h-6c-16 0 -30 15 -30 32c0 23 19 41 41 41c21 0 36 -14 36 -42c0 -51 -46 -109 -97 -136l-69 -314
c-24 -106 -57 -174 -143 -174z" />
    <glyph glyph-name="uni1EE6.smcp" horiz-adv-x="370" 
d="M147 -12c-80 0 -114 38 -114 102c0 27 4 50 8 69l87 391h51l-90 -408c-3 -17 -5 -31 -5 -39c0 -54 27 -69 64 -69c46 0 71 37 88 116l89 400h51l-86 -388c-24 -106 -57 -174 -143 -174zM244 652l-24 10c11 22 28 41 57 41c30 0 46 -18 46 -45c0 -32 -17 -59 -38 -78h-31
c24 21 40 46 40 73c1 13 -6 24 -20 24s-23 -9 -30 -25z" />
    <glyph glyph-name="uni1EE8.smcp" horiz-adv-x="370" 
d="M395 750l-130 -144h-37l110 144h57zM147 -12c-80 0 -114 38 -114 102c0 22 4 47 8 69l87 391h51l-87 -396c-5 -22 -8 -43 -8 -51c0 -54 27 -69 64 -69c46 0 71 37 88 116l89 400h51l-7 -32c22 18 40 41 46 63h-6c-16 0 -30 15 -30 32c0 23 19 41 41 41
c21 0 36 -14 36 -42c0 -51 -46 -109 -97 -136l-69 -314c-24 -106 -57 -174 -143 -174z" />
    <glyph glyph-name="uni1EEA.smcp" horiz-adv-x="370" 
d="M297 606h-36l-65 144h54zM147 -12c-80 0 -114 38 -114 102c0 22 4 47 8 69l87 391h51l-87 -396c-5 -22 -8 -43 -8 -51c0 -54 27 -69 64 -69c46 0 71 37 88 116l89 400h51l-7 -32c22 18 40 41 46 63h-6c-16 0 -30 15 -30 32c0 23 19 41 41 41c21 0 36 -14 36 -42
c0 -51 -46 -109 -97 -136l-69 -314c-24 -106 -57 -174 -143 -174z" />
    <glyph glyph-name="uni1EEC.smcp" horiz-adv-x="370" 
d="M245 652l-24 10c11 22 28 41 57 41c30 0 46 -18 46 -45c0 -32 -17 -59 -38 -78h-31c24 21 40 46 40 73c1 13 -6 24 -20 24s-23 -9 -30 -25zM147 -12c-80 0 -114 38 -114 102c0 22 4 47 8 69l87 391h51l-87 -396c-5 -22 -8 -43 -8 -51c0 -54 27 -69 64 -69
c46 0 71 37 88 116l89 400h51l-7 -32c22 18 40 41 46 63h-6c-16 0 -30 15 -30 32c0 23 19 41 41 41c21 0 36 -14 36 -42c0 -51 -46 -109 -97 -136l-69 -314c-24 -106 -57 -174 -143 -174z" />
    <glyph glyph-name="uni1EEE.smcp" horiz-adv-x="370" 
d="M147 -12c-80 0 -114 38 -114 102c0 22 4 47 8 69l87 391h51l-87 -396c-5 -22 -8 -43 -8 -51c0 -54 27 -69 64 -69c46 0 71 37 88 116l89 400h51l-7 -32c22 18 40 41 46 63h-6c-16 0 -30 15 -30 32c0 23 19 41 41 41c21 0 36 -14 36 -42c0 -51 -46 -109 -97 -136l-69 -314
c-24 -106 -57 -174 -143 -174zM303 604c-62 0 -24 104 -65 104c-20 0 -38 -29 -53 -98h-31c16 73 41 134 91 134c63 0 26 -104 66 -104c20 0 38 29 53 98h32c-16 -72 -43 -134 -93 -134z" />
    <glyph glyph-name="uni1EF0.smcp" horiz-adv-x="370" 
d="M136 -137c0 -22 -19 -40 -41 -40c-19 0 -33 14 -33 32c0 22 19 41 41 41c19 0 33 -14 33 -33zM147 -12c-80 0 -114 38 -114 102c0 22 4 47 8 69l87 391h51l-87 -396c-5 -22 -8 -43 -8 -51c0 -54 27 -69 64 -69c46 0 71 37 88 116l89 400h51l-7 -32c22 18 40 41 46 63h-6
c-16 0 -30 15 -30 32c0 23 19 41 41 41c21 0 36 -14 36 -42c0 -51 -46 -109 -97 -136l-69 -314c-24 -106 -57 -174 -143 -174z" />
    <glyph glyph-name="Wacute.smcp" horiz-adv-x="454" 
d="M297 0h-55l28 439l-166 -439h-55l27 550h54l-30 -449l171 449h46l-27 -449l169 449h53zM436 750l-130 -144h-37l110 144h57z" />
    <glyph glyph-name="Wcircumflex.smcp" unicode="&#xf6a6;" horiz-adv-x="454" 
d="M401 606h-30l-40 111l-84 -111h-34l99 144h51zM297 0h-55l28 439l-166 -439h-55l27 550h54l-30 -449l171 449h46l-27 -449l169 449h53z" />
    <glyph glyph-name="Wdieresis.smcp" horiz-adv-x="454" 
d="M297 0h-55l28 439l-166 -439h-55l27 550h54l-30 -449l171 449h46l-27 -449l169 449h53zM417 654c0 -21 -18 -39 -40 -39c-18 0 -32 14 -32 32c0 21 19 39 40 39c18 0 32 -13 32 -32zM286 654c0 -21 -19 -39 -40 -39c-18 0 -32 14 -32 32c0 21 19 39 40 39
c18 0 32 -13 32 -32z" />
    <glyph glyph-name="Wgrave.smcp" horiz-adv-x="454" 
d="M297 0h-55l28 439l-166 -439h-55l27 550h54l-30 -449l171 449h46l-27 -449l169 449h53zM340 606h-36l-65 144h54z" />
    <glyph glyph-name="Yacute.smcp" unicode="&#xf7fd;" horiz-adv-x="306" 
d="M365 750l-130 -144h-37l110 144h57zM125 0h-52l52 236l-57 314h54l40 -258l155 258h55l-196 -314z" />
    <glyph glyph-name="Ycircumflex.smcp" unicode="&#xf6a9;" horiz-adv-x="306" 
d="M328 606h-30l-40 111l-84 -111h-34l99 144h51zM125 0h-52l52 236l-57 314h54l40 -258l155 258h55l-196 -314z" />
    <glyph glyph-name="Ydieresis.smcp" unicode="&#xf7ff;" horiz-adv-x="306" 
d="M345 654c0 -21 -18 -39 -40 -39c-18 0 -32 14 -32 32c0 21 19 39 40 39c18 0 32 -13 32 -32zM214 654c0 -21 -19 -39 -40 -39c-18 0 -32 14 -32 32c0 21 19 39 40 39c18 0 32 -13 32 -32zM125 0h-52l52 236l-57 314h54l40 -258l155 258h55l-196 -314z" />
    <glyph glyph-name="Ygrave.smcp" horiz-adv-x="306" 
d="M125 0h-52l52 236l-57 314h54l40 -258l155 258h55l-196 -314zM267 606h-36l-65 144h54z" />
    <glyph glyph-name="Zacute.smcp" unicode="&#xf6ab;" horiz-adv-x="279" 
d="M347 750l-130 -144h-37l110 144h57zM197 0h-223l9 42l262 462h-160l10 46h217l-9 -41l-262 -463h166z" />
    <glyph glyph-name="Zcaron.smcp" unicode="&#xf6ff;" horiz-adv-x="279" 
d="M244 606h-51l-38 144h30l39 -111l85 111h34zM197 0h-223l9 42l262 462h-160l10 46h217l-9 -41l-262 -463h166z" />
    <glyph glyph-name="Zdotaccent.smcp" unicode="&#xf6ac;" horiz-adv-x="279" 
d="M197 0h-223l9 42l262 462h-160l10 46h217l-9 -41l-262 -463h166zM263 652c0 -22 -19 -40 -41 -40c-19 0 -33 14 -33 32c0 22 19 41 41 41c19 0 33 -14 33 -33z" />
    <glyph glyph-name="Eth.smcp" unicode="&#xf7f0;" horiz-adv-x="402" 
d="M147 0h-114l57 261h-63l9 39h63l55 250h72c86 0 148 -40 148 -168c0 -138 -66 -382 -227 -382zM155 46c107 0 165 222 165 336c0 91 -36 122 -101 122h-24l-45 -204h74l-9 -39h-74l-47 -215h61z" />
    <glyph glyph-name="Thorn.smcp" unicode="&#xf7fe;" horiz-adv-x="310" 
d="M58 0h-51l121 550h51l-21 -98h26c72 0 116 -40 116 -121c0 -90 -53 -203 -159 -203h-55zM126 174h18c66 0 102 88 102 154c0 53 -27 78 -72 78h-27l-51 -232h30z" />
    <glyph glyph-name="acute" unicode="&#xb4;" horiz-adv-x="133" 
d="M234 700l-130 -144h-37l110 144h57z" />
    <glyph glyph-name="dieresis" unicode="&#xa8;" horiz-adv-x="258" 
d="M309 604c0 -21 -18 -39 -40 -39c-18 0 -32 14 -32 32c0 21 19 39 40 39c18 0 32 -13 32 -32zM178 604c0 -21 -19 -39 -40 -39c-18 0 -32 14 -32 32c0 21 19 39 40 39c18 0 32 -13 32 -32z" />
    <glyph glyph-name="grave" unicode="`" horiz-adv-x="133" 
d="M202 556h-36l-65 144h54z" />
    <glyph glyph-name="uni02CB" unicode="&#x2cb;" horiz-adv-x="133" 
d="M202 556h-36l-65 144h54z" />
    <glyph glyph-name="circumflex" unicode="&#x2c6;" horiz-adv-x="188" 
d="M257 556h-30l-40 111l-84 -111h-34l99 144h51z" />
    <glyph glyph-name="tilde" unicode="&#x2dc;" horiz-adv-x="214" 
d="M219 554c-62 0 -24 104 -65 104c-20 0 -38 -29 -53 -98h-31c16 73 41 134 91 134c63 0 26 -104 66 -104c20 0 38 29 53 98h32c-16 -72 -43 -134 -93 -134z" />
    <glyph glyph-name="macron" unicode="&#xaf;" horiz-adv-x="244" 
d="M317 577h-244l8 36h243z" />
    </font>
</defs>
</svg>
