<?xml version="1.0" standalone="no"?>
<!DOCTYPE svg PUBLIC "-//W3C//DTD SVG 1.1//EN" "http://www.w3.org/Graphics/SVG/1.1/DTD/svg11.dtd" >
<svg xmlns="http://www.w3.org/2000/svg" xmlns:xlink="http://www.w3.org/1999/xlink" version="1.1">
<metadata>
Created by FontForge 20141024 at Thu Apr 30 19:02:01 2015
 By System Administrator
Copyright (c) Mark Simonson, 2005. All rights reserved.
</metadata>
<defs>
<font id="ProximaNovaExCn-BlackIt" horiz-adv-x="462" >
  <font-face 
    font-family="Proxima Nova ExCn Bl"
    font-weight="900"
    font-style="italic"
    font-stretch="normal"
    units-per-em="1000"
    panose-1="2 0 5 6 3 0 0 2 0 4"
    ascent="790"
    descent="-210"
    x-height="483"
    cap-height="667"
    bbox="-151 -291 933 887"
    underline-thickness="20"
    underline-position="-113"
    stemh="139"
    stemv="162"
    unicode-range="U+000D-FB04"
  />
<missing-glyph horiz-adv-x="434" 
d="M412 -90h-351v842h351v-842zM380 -60v782h-288v-782h288z" />
    <glyph glyph-name="f_b" unicode="fb" horiz-adv-x="737" 
d="M156 0h-157l76 346h-42l31 137h41l4 19c26 119 80 175 173 175c36 0 68 -7 92 -17l-48 -121c-5 4 -11 5 -17 5c-23 0 -38 -17 -43 -42l-4 -19h57l-31 -137h-56zM529 -12c-52 0 -88 19 -104 67l-11 -55h-157l146 667h158l-53 -237c33 47 68 65 105 65
c76 0 116 -54 116 -165c0 -132 -64 -342 -200 -342zM488 127c57 0 79 127 79 179c0 32 -13 50 -40 50c-16 0 -32 -14 -42 -33l-36 -162c5 -23 20 -34 39 -34z" />
    <glyph glyph-name="f_f" unicode="ff" horiz-adv-x="550" 
d="M156 0h-157l76 346h-42l31 137h41l4 19c20 94 61 175 173 175c48 0 95 -14 114 -31l-57 -115c-9 9 -18 13 -28 13c-27 0 -40 -19 -45 -42l-4 -19h57l-31 -137h-56zM431 0h-157l76 346h-42l31 137h41l4 19c20 94 61 175 173 175c48 0 95 -14 114 -31l-57 -115
c-9 9 -18 13 -28 13c-27 0 -40 -19 -45 -42l-4 -19h57l-31 -137h-56z" />
    <glyph glyph-name="f_h" unicode="fh" horiz-adv-x="737" 
d="M156 0h-157l76 346h-42l31 137h41l4 19c26 119 80 175 173 175c36 0 68 -7 92 -17l-48 -121c-5 4 -11 5 -17 5c-23 0 -38 -17 -43 -42l-4 -19h57l-31 -137h-56zM648 0h-158l70 316c0 1 2 12 2 15c0 15 -9 25 -23 25c-24 0 -44 -25 -57 -47l-68 -309h-158l147 667h158
l-54 -241c26 34 75 69 127 69c63 0 100 -38 100 -89c0 -8 -1 -16 -3 -26z" />
    <glyph glyph-name="fi" unicode="fi" horiz-adv-x="503" 
d="M156 0h-157l76 346h-42l31 137h41l4 19c26 119 80 175 173 175c36 0 68 -7 92 -17l-48 -121c-5 4 -11 5 -17 5c-23 0 -38 -17 -43 -42l-4 -19h57l-31 -137h-56zM460 525c-48 0 -82 35 -82 77c0 67 57 104 103 104c47 0 81 -35 81 -77c0 -67 -57 -104 -102 -104zM414 0
h-158l107 483h158z" />
    <glyph glyph-name="f_j" unicode="fj" horiz-adv-x="503" 
d="M156 0h-157l76 346h-42l31 137h41l4 19c26 119 80 175 173 175c36 0 68 -7 92 -17l-48 -121c-5 4 -11 5 -17 5c-23 0 -38 -17 -43 -42l-4 -19h57l-31 -137h-56zM222 -196c-35 0 -66 8 -83 22l51 118c4 -5 13 -7 22 -7c19 0 33 15 41 50l110 496h158l-111 -496
c-25 -115 -68 -183 -188 -183zM460 525c-48 0 -82 35 -82 77c0 67 57 104 103 104c47 0 81 -35 81 -77c0 -67 -57 -104 -102 -104z" />
    <glyph glyph-name="f_k" unicode="fk" horiz-adv-x="720" 
d="M156 0h-157l76 346h-42l31 137h41l4 19c26 119 80 175 173 175c36 0 68 -7 92 -17l-48 -121c-5 4 -11 5 -17 5c-23 0 -38 -17 -43 -42l-4 -19h57l-31 -137h-56zM671 0h-171l-16 169l-48 -67l-22 -102h-158l147 667h158l-78 -355l109 171h177l-155 -213z" />
    <glyph glyph-name="fl" unicode="fl" horiz-adv-x="503" 
d="M156 0h-157l76 346h-42l31 137h41l4 19c26 119 80 175 173 175c36 0 68 -7 92 -17l-48 -121c-5 4 -11 5 -17 5c-23 0 -38 -17 -43 -42l-4 -19h57l-31 -137h-56zM414 0h-158l147 667h158z" />
    <glyph glyph-name="f_f_i" unicode="ffi" horiz-adv-x="778" 
d="M431 0h-157l76 346h-42l31 137h41l4 19c26 119 80 175 173 175c36 0 68 -7 92 -17l-48 -121c-5 4 -11 5 -17 5c-23 0 -38 -17 -43 -42l-4 -19h57l-31 -137h-56zM735 525c-48 0 -82 35 -82 77c0 67 57 104 103 104c47 0 81 -35 81 -77c0 -67 -57 -104 -102 -104zM689 0
h-158l107 483h158zM156 0h-157l76 346h-42l31 137h41l4 19c20 94 61 175 173 175c48 0 95 -14 114 -31l-57 -115c-9 9 -18 13 -28 13c-27 0 -40 -19 -45 -42l-4 -19h57l-31 -137h-56z" />
    <glyph glyph-name="f_f_j" unicode="ffj" horiz-adv-x="778" 
d="M431 0h-157l76 346h-42l31 137h41l4 19c26 119 80 175 173 175c36 0 68 -7 92 -17l-48 -121c-5 4 -11 5 -17 5c-23 0 -38 -17 -43 -42l-4 -19h57l-31 -137h-56zM497 -196c-35 0 -66 8 -83 22l51 118c4 -5 13 -7 22 -7c19 0 33 15 41 50l110 496h158l-111 -496
c-25 -115 -68 -183 -188 -183zM735 525c-48 0 -82 35 -82 77c0 67 57 104 103 104c47 0 81 -35 81 -77c0 -67 -57 -104 -102 -104zM156 0h-157l76 346h-42l31 137h41l4 19c20 94 61 175 173 175c48 0 95 -14 114 -31l-57 -115c-9 9 -18 13 -28 13c-27 0 -40 -19 -45 -42
l-4 -19h57l-31 -137h-56z" />
    <glyph glyph-name="f_f_l" unicode="ffl" horiz-adv-x="778" 
d="M431 0h-157l76 346h-42l31 137h41l4 19c26 119 80 175 173 175c36 0 68 -7 92 -17l-48 -121c-5 4 -11 5 -17 5c-23 0 -38 -17 -43 -42l-4 -19h57l-31 -137h-56zM689 0h-158l147 667h158zM156 0h-157l76 346h-42l31 137h41l4 19c20 94 61 175 173 175c48 0 95 -14 114 -31
l-57 -115c-9 9 -18 13 -28 13c-27 0 -40 -19 -45 -42l-4 -19h57l-31 -137h-56z" />
    <glyph glyph-name=".notdef" horiz-adv-x="434" 
d="M412 -90h-351v842h351v-842zM380 -60v782h-288v-782h288z" />
    <glyph glyph-name=".null" horiz-adv-x="0" 
 />
    <glyph glyph-name=".null" horiz-adv-x="0" 
 />
    <glyph glyph-name="CR" unicode="&#xd;" horiz-adv-x="0" 
 />
    <glyph glyph-name="space" unicode=" " horiz-adv-x="154" 
 />
    <glyph glyph-name="nbspace" unicode="&#xa0;" horiz-adv-x="154" 
 />
    <glyph glyph-name="thinspace" unicode="&#x2009;" horiz-adv-x="31" 
 />
    <glyph glyph-name="zero" unicode="0" horiz-adv-x="495" 
d="M214 -12c-112 0 -191 86 -191 240c0 225 129 449 297 449c112 0 190 -86 190 -239c0 -226 -128 -450 -296 -450zM230 144c65 0 108 256 108 324c0 30 -6 53 -35 53c-65 0 -108 -255 -108 -323c0 -30 6 -54 35 -54z" />
    <glyph glyph-name="zero.pzero" horiz-adv-x="495" 
d="M214 -12c-50 0 -93 17 -126 49l-28 -37h-96l80 105c-14 34 -21 75 -21 123c0 225 129 449 297 449c49 0 92 -17 125 -49l30 39h96l-82 -107c13 -34 21 -75 21 -122c0 -226 -128 -450 -296 -450zM303 521c-42 0 -75 -106 -93 -200l127 166c-3 20 -12 34 -34 34zM230 144
c41 0 74 105 92 198l-126 -165c3 -19 12 -33 34 -33z" />
    <glyph glyph-name="one" unicode="1" horiz-adv-x="405" 
d="M310 0h-177l97 442l-104 -87l-77 104l256 208h152z" />
    <glyph glyph-name="two" unicode="2" horiz-adv-x="491" 
d="M414 0h-437l40 175c199 151 318 230 318 295c0 32 -20 51 -59 51c-41 0 -74 -11 -114 -53l-82 117c53 54 127 92 215 92c129 0 224 -66 224 -186c0 -126 -98 -203 -270 -337h199z" />
    <glyph glyph-name="three" unicode="3" horiz-adv-x="490" 
d="M222 -12c-104 0 -212 49 -243 135l137 92c19 -45 60 -71 106 -71c51 0 70 40 70 70c0 31 -30 45 -64 45c-17 0 -31 0 -43 -1l35 157c7 -1 48 -1 57 -1c47 0 67 31 67 62c0 30 -29 45 -72 45c-30 0 -67 -13 -92 -40l-89 106c54 52 125 90 211 90c126 0 221 -56 221 -162
c0 -101 -84 -166 -158 -177c72 -23 98 -81 98 -133c0 -124 -107 -217 -241 -217z" />
    <glyph glyph-name="four" unicode="4" horiz-adv-x="495" 
d="M377 0h-177l26 120h-237l38 169l284 378h213l-87 -393h47l-34 -154h-47zM260 274l43 193l-138 -193h95z" />
    <glyph glyph-name="five" unicode="5" horiz-adv-x="498" 
d="M221 -12c-119 0 -200 51 -237 134l133 93c21 -45 62 -71 101 -71c47 0 80 42 80 92c0 32 -19 56 -58 56c-33 0 -55 -15 -76 -40l-120 41l83 374h409l-34 -154h-232l-27 -122c26 31 57 43 100 43c83 0 141 -61 141 -171c0 -146 -100 -275 -263 -275z" />
    <glyph glyph-name="six" unicode="6" horiz-adv-x="491" 
d="M230 -12c-131 0 -210 83 -210 241c0 185 104 448 330 448c77 0 140 -30 177 -78l-112 -121c-12 26 -38 43 -74 43c-50 0 -95 -55 -117 -122c-5 -11 -6 -19 -8 -30c30 46 79 69 124 69c78 0 138 -62 138 -159c0 -145 -95 -291 -248 -291zM232 144c40 0 63 61 63 98
c0 30 -15 55 -44 55c-26 0 -41 -17 -56 -43c-3 -10 -5 -30 -5 -47c0 -39 13 -63 42 -63z" />
    <glyph glyph-name="seven" unicode="7" horiz-adv-x="451" 
d="M205 0h-194l285 513h-223l34 154h423l-27 -122z" />
    <glyph glyph-name="eight" unicode="8" horiz-adv-x="491" 
d="M225 -12c-148 0 -230 47 -230 165c0 78 51 171 163 203c-45 21 -80 67 -80 127c0 122 117 194 230 194c105 0 219 -41 219 -162c0 -87 -62 -166 -153 -182c60 -30 88 -83 88 -141c0 -116 -92 -204 -237 -204zM279 397c35 13 67 34 67 84c0 26 -16 40 -41 40
c-37 0 -59 -32 -59 -71c0 -27 22 -46 33 -53zM224 144c36 0 65 35 65 83c0 34 -24 52 -36 56c-35 -8 -75 -37 -75 -93c0 -29 17 -46 46 -46z" />
    <glyph glyph-name="nine" unicode="9" horiz-adv-x="491" 
d="M300 678c131 0 210 -84 210 -241c0 -185 -104 -448 -330 -448c-77 0 -140 30 -177 78l112 121c12 -26 38 -43 74 -43c50 0 95 55 117 121c5 12 6 20 8 31c-30 -46 -79 -69 -124 -69c-78 0 -138 62 -138 159c0 145 95 291 248 291zM298 522c-40 0 -62 -61 -62 -98
c0 -30 14 -55 43 -55c26 0 41 17 56 42c3 11 5 31 5 48c0 39 -13 63 -42 63z" />
    <glyph glyph-name="zero.tnum" unicode="&#xf639;" horiz-adv-x="491" 
d="M212 -12c-112 0 -191 86 -191 240c0 225 129 449 297 449c112 0 190 -86 190 -239c0 -226 -128 -450 -296 -450zM228 144c65 0 108 256 108 324c0 30 -6 53 -35 53c-65 0 -108 -255 -108 -323c0 -30 6 -54 35 -54z" />
    <glyph glyph-name="zero.tzero" unicode="&#xf638;" horiz-adv-x="491" 
d="M212 -12c-50 0 -93 17 -126 49l-28 -37h-96l80 105c-14 34 -21 75 -21 123c0 225 129 449 297 449c49 0 92 -17 125 -49l30 39h96l-82 -107c13 -34 21 -75 21 -122c0 -226 -128 -450 -296 -450zM301 521c-42 0 -75 -106 -93 -200l127 166c-3 20 -12 34 -34 34zM228 144
c41 0 74 105 92 198l-126 -165c3 -19 12 -33 34 -33z" />
    <glyph glyph-name="one.tnum" unicode="&#xf6dc;" horiz-adv-x="491" 
d="M354 0h-177l97 442l-104 -87l-77 104l256 208h152z" />
    <glyph glyph-name="two.tnum" unicode="&#xf63a;" horiz-adv-x="491" 
d="M421 0h-437l40 175c199 151 318 230 318 295c0 32 -20 51 -59 51c-41 0 -74 -11 -114 -53l-82 117c53 54 127 92 215 92c129 0 224 -66 224 -186c0 -126 -98 -203 -270 -337h199z" />
    <glyph glyph-name="three.tnum" unicode="&#xf63b;" horiz-adv-x="491" 
d="M222 -12c-104 0 -212 49 -243 135l137 92c19 -45 60 -71 106 -71c51 0 70 40 70 70c0 31 -30 45 -64 45c-17 0 -31 0 -43 -1l35 157c7 -1 48 -1 57 -1c47 0 67 31 67 62c0 30 -29 45 -72 45c-30 0 -67 -13 -92 -40l-89 106c54 52 125 90 211 90c126 0 221 -56 221 -162
c0 -101 -84 -166 -158 -177c72 -23 98 -81 98 -133c0 -124 -107 -217 -241 -217z" />
    <glyph glyph-name="four.tnum" unicode="&#xf63c;" horiz-adv-x="491" 
d="M375 0h-177l26 120h-237l38 169l284 378h213l-87 -393h47l-34 -154h-47zM258 274l43 193l-138 -193h95z" />
    <glyph glyph-name="five.tnum" unicode="&#xf63d;" horiz-adv-x="491" 
d="M214 -12c-119 0 -200 51 -237 134l133 93c21 -45 62 -71 101 -71c47 0 80 42 80 92c0 32 -19 56 -58 56c-33 0 -55 -15 -76 -40l-120 41l83 374h409l-34 -154h-232l-27 -122c26 31 57 43 100 43c83 0 141 -61 141 -171c0 -146 -100 -275 -263 -275z" />
    <glyph glyph-name="six.tnum" unicode="&#xf63e;" horiz-adv-x="491" 
d="M230 -12c-131 0 -210 83 -210 241c0 185 104 448 330 448c77 0 140 -30 177 -78l-112 -121c-12 26 -38 43 -74 43c-50 0 -95 -55 -117 -122c-5 -11 -6 -19 -8 -30c30 46 79 69 124 69c78 0 138 -62 138 -159c0 -145 -95 -291 -248 -291zM232 144c40 0 63 61 63 98
c0 30 -15 55 -44 55c-26 0 -41 -17 -56 -43c-3 -10 -5 -30 -5 -47c0 -39 13 -63 42 -63z" />
    <glyph glyph-name="seven.tnum" unicode="&#xf63f;" horiz-adv-x="491" 
d="M225 0h-194l285 513h-223l34 154h423l-27 -122z" />
    <glyph glyph-name="eight.tnum" unicode="&#xf640;" horiz-adv-x="491" 
d="M225 -12c-148 0 -230 47 -230 165c0 78 51 171 163 203c-45 21 -80 67 -80 127c0 122 117 194 230 194c105 0 219 -41 219 -162c0 -87 -62 -166 -153 -182c60 -30 88 -83 88 -141c0 -116 -92 -204 -237 -204zM279 397c35 13 67 34 67 84c0 26 -16 40 -41 40
c-37 0 -59 -32 -59 -71c0 -27 22 -46 33 -53zM224 144c36 0 65 35 65 83c0 34 -24 52 -36 56c-35 -8 -75 -37 -75 -93c0 -29 17 -46 46 -46z" />
    <glyph glyph-name="nine.tnum" unicode="&#xf641;" horiz-adv-x="491" 
d="M300 678c131 0 210 -84 210 -241c0 -185 -104 -448 -330 -448c-77 0 -140 30 -177 78l112 121c12 -26 38 -43 74 -43c50 0 95 55 117 121c5 12 6 20 8 31c-30 -46 -79 -69 -124 -69c-78 0 -138 62 -138 159c0 145 95 291 248 291zM298 522c-40 0 -62 -61 -62 -98
c0 -30 14 -55 43 -55c26 0 41 17 56 42c3 11 5 31 5 48c0 39 -13 63 -42 63z" />
    <glyph glyph-name="zero.tonum" unicode="&#xf643;" horiz-adv-x="491" 
d="M491 346c0 -156 -94 -358 -275 -358c-127 0 -204 82 -204 215c0 157 94 359 275 359c128 0 204 -82 204 -216zM313 348c0 40 -10 58 -36 58c-56 0 -87 -158 -87 -204c0 -41 11 -58 36 -58c56 0 87 158 87 204z" />
    <glyph glyph-name="zero.tonumzero" horiz-adv-x="491" 
d="M491 346c0 -156 -94 -358 -275 -358c-53 0 -98 14 -132 41l-24 -29h-82l65 76c-20 34 -31 77 -31 127c0 157 94 359 275 359c54 0 99 -15 132 -42l26 30h81l-66 -78c20 -34 31 -76 31 -126zM277 406c-42 0 -70 -86 -81 -149l111 130c-6 13 -15 19 -30 19zM226 144
c40 0 68 83 80 146l-110 -129c6 -12 16 -17 30 -17z" />
    <glyph glyph-name="one.tonum" unicode="&#xf644;" horiz-adv-x="491" 
d="M354 0h-177l71 325l-104 -87l-77 104l256 208h152z" />
    <glyph glyph-name="two.tonum" unicode="&#xf645;" horiz-adv-x="491" 
d="M394 0h-410l32 146c180 83 286 162 286 220c0 25 -21 42 -57 42c-42 0 -76 -19 -101 -51l-88 107c55 60 130 98 215 98c126 0 217 -59 217 -154c0 -108 -93 -188 -221 -254h161z" />
    <glyph glyph-name="three.tonum" unicode="&#xf646;" horiz-adv-x="491" 
d="M196 -129c-104 0 -212 49 -243 135l137 92c19 -45 60 -71 106 -71c51 0 70 40 70 70c0 31 -30 45 -64 45c-17 0 -31 0 -43 -1l35 157c7 -1 48 -1 57 -1c47 0 67 31 67 62c0 30 -29 45 -72 45c-30 0 -67 -13 -92 -40l-89 106c54 52 125 90 211 90c126 0 221 -56 221 -162
c0 -101 -84 -166 -158 -177c72 -23 98 -81 98 -133c0 -124 -107 -217 -241 -217z" />
    <glyph glyph-name="four.tonum" unicode="&#xf647;" horiz-adv-x="491" 
d="M425 12h-48l-28 -129h-177l29 129h-237l34 154l293 384h205l-85 -384h48zM235 166l41 185l-137 -185h96z" />
    <glyph glyph-name="five.tonum" unicode="&#xf648;" horiz-adv-x="491" 
d="M188 -129c-119 0 -200 51 -237 134l133 93c21 -45 62 -71 101 -71c47 0 80 42 80 92c0 32 -19 56 -58 56c-33 0 -55 -15 -76 -40l-120 41l83 374h409l-34 -154h-232l-27 -122c26 31 57 43 100 43c83 0 141 -61 141 -171c0 -146 -100 -275 -263 -275z" />
    <glyph glyph-name="six.tonum" unicode="&#xf649;" horiz-adv-x="491" 
d="M230 -12c-131 0 -210 83 -210 241c0 185 104 448 330 448c77 0 140 -30 177 -78l-112 -121c-12 26 -38 43 -74 43c-50 0 -95 -55 -117 -122c-5 -11 -6 -19 -8 -30c30 46 79 69 124 69c78 0 138 -62 138 -159c0 -145 -95 -291 -248 -291zM232 144c40 0 63 61 63 98
c0 30 -15 55 -44 55c-26 0 -41 -17 -56 -43c-3 -10 -5 -30 -5 -47c0 -39 13 -63 42 -63z" />
    <glyph glyph-name="seven.tonum" unicode="&#xf64a;" horiz-adv-x="491" 
d="M199 -117h-194l285 513h-223l34 154h423l-27 -122z" />
    <glyph glyph-name="eight.tonum" unicode="&#xf64b;" horiz-adv-x="491" 
d="M225 -12c-148 0 -230 47 -230 165c0 78 51 171 163 203c-45 21 -80 67 -80 127c0 122 117 194 230 194c105 0 219 -41 219 -162c0 -87 -62 -166 -153 -182c60 -30 88 -83 88 -141c0 -116 -92 -204 -237 -204zM279 397c35 13 67 34 67 84c0 26 -16 40 -41 40
c-37 0 -59 -32 -59 -71c0 -27 22 -46 33 -53zM224 144c36 0 65 35 65 83c0 34 -24 52 -36 56c-35 -8 -75 -37 -75 -93c0 -29 17 -46 46 -46z" />
    <glyph glyph-name="nine.tonum" unicode="&#xf64c;" horiz-adv-x="491" 
d="M274 561c131 0 210 -84 210 -241c0 -185 -104 -448 -330 -448c-77 0 -140 30 -177 78l112 121c12 -26 38 -43 74 -43c50 0 95 55 117 121c5 12 6 20 8 31c-30 -46 -79 -69 -124 -69c-78 0 -138 62 -138 159c0 145 95 291 248 291zM272 405c-40 0 -62 -61 -62 -98
c0 -30 14 -55 43 -55c26 0 41 17 56 42c3 11 5 31 5 48c0 39 -13 63 -42 63z" />
    <glyph glyph-name="zero.onum" unicode="&#xf730;" horiz-adv-x="495" 
d="M493 346c0 -156 -94 -358 -275 -358c-127 0 -204 82 -204 215c0 157 94 359 275 359c128 0 204 -82 204 -216zM315 348c0 40 -10 58 -36 58c-56 0 -87 -158 -87 -204c0 -41 11 -58 36 -58c56 0 87 158 87 204z" />
    <glyph glyph-name="zero.onumzero" horiz-adv-x="495" 
d="M493 346c0 -156 -94 -358 -275 -358c-53 0 -98 14 -132 41l-24 -29h-82l65 76c-20 34 -31 77 -31 127c0 157 94 359 275 359c54 0 99 -15 132 -42l26 30h81l-66 -78c20 -34 31 -76 31 -126zM279 406c-42 0 -70 -86 -81 -149l111 130c-6 13 -15 19 -30 19zM228 144
c40 0 68 83 80 146l-110 -129c6 -12 16 -17 30 -17z" />
    <glyph glyph-name="one.onum" unicode="&#xf731;" horiz-adv-x="405" 
d="M310 0h-177l71 325l-104 -87l-77 104l256 208h152z" />
    <glyph glyph-name="two.onum" unicode="&#xf732;" horiz-adv-x="470" 
d="M387 0h-410l32 146c180 83 286 162 286 220c0 25 -21 42 -57 42c-42 0 -76 -19 -101 -51l-88 107c55 60 130 98 215 98c126 0 217 -59 217 -154c0 -108 -93 -188 -221 -254h161z" />
    <glyph glyph-name="three.onum" unicode="&#xf733;" horiz-adv-x="490" 
d="M196 -129c-104 0 -212 49 -243 135l137 92c19 -45 60 -71 106 -71c51 0 70 40 70 70c0 31 -30 45 -64 45c-17 0 -31 0 -43 -1l35 157c7 -1 48 -1 57 -1c47 0 67 31 67 62c0 30 -29 45 -72 45c-30 0 -67 -13 -92 -40l-89 106c54 52 125 90 211 90c126 0 221 -56 221 -162
c0 -101 -84 -166 -158 -177c72 -23 98 -81 98 -133c0 -124 -107 -217 -241 -217z" />
    <glyph glyph-name="four.onum" unicode="&#xf734;" horiz-adv-x="495" 
d="M427 12h-48l-28 -129h-177l29 129h-237l34 154l293 384h205l-85 -384h48zM237 166l41 185l-137 -185h96z" />
    <glyph glyph-name="five.onum" unicode="&#xf735;" horiz-adv-x="498" 
d="M195 -129c-119 0 -200 51 -237 134l133 93c21 -45 62 -71 101 -71c47 0 80 42 80 92c0 32 -19 56 -58 56c-33 0 -55 -15 -76 -40l-120 41l83 374h409l-34 -154h-232l-27 -122c26 31 57 43 100 43c83 0 141 -61 141 -171c0 -146 -100 -275 -263 -275z" />
    <glyph glyph-name="six.onum" unicode="&#xf736;" horiz-adv-x="491" 
d="M230 -12c-131 0 -210 83 -210 241c0 185 104 448 330 448c77 0 140 -30 177 -78l-112 -121c-12 26 -38 43 -74 43c-50 0 -95 -55 -117 -122c-5 -11 -6 -19 -8 -30c30 46 79 69 124 69c78 0 138 -62 138 -159c0 -145 -95 -291 -248 -291zM232 144c40 0 63 61 63 98
c0 30 -15 55 -44 55c-26 0 -41 -17 -56 -43c-3 -10 -5 -30 -5 -47c0 -39 13 -63 42 -63z" />
    <glyph glyph-name="seven.onum" unicode="&#xf737;" horiz-adv-x="451" 
d="M179 -117h-194l285 513h-223l34 154h423l-27 -122z" />
    <glyph glyph-name="eight.onum" unicode="&#xf738;" horiz-adv-x="491" 
d="M225 -12c-148 0 -230 47 -230 165c0 78 51 171 163 203c-45 21 -80 67 -80 127c0 122 117 194 230 194c105 0 219 -41 219 -162c0 -87 -62 -166 -153 -182c60 -30 88 -83 88 -141c0 -116 -92 -204 -237 -204zM279 397c35 13 67 34 67 84c0 26 -16 40 -41 40
c-37 0 -59 -32 -59 -71c0 -27 22 -46 33 -53zM224 144c36 0 65 35 65 83c0 34 -24 52 -36 56c-35 -8 -75 -37 -75 -93c0 -29 17 -46 46 -46z" />
    <glyph glyph-name="nine.onum" unicode="&#xf739;" horiz-adv-x="491" 
d="M274 561c131 0 210 -84 210 -241c0 -185 -104 -448 -330 -448c-77 0 -140 30 -177 78l112 121c12 -26 38 -43 74 -43c50 0 95 55 117 121c5 12 6 20 8 31c-30 -46 -79 -69 -124 -69c-78 0 -138 62 -138 159c0 145 95 291 248 291zM272 405c-40 0 -62 -61 -62 -98
c0 -30 14 -55 43 -55c26 0 41 17 56 42c3 11 5 31 5 48c0 39 -13 63 -42 63z" />
    <glyph glyph-name="A" unicode="A" horiz-adv-x="484" 
d="M436 0h-177l7 93h-107l-34 -93h-185l293 667h203v-667zM280 247l17 228l-83 -228h66z" />
    <glyph glyph-name="B" unicode="B" horiz-adv-x="502" 
d="M274 0h-287l147 667h215c120 0 180 -72 180 -153c0 -86 -58 -175 -146 -183c59 -16 87 -69 87 -126c0 -93 -57 -205 -196 -205zM256 415h30c33 0 56 27 56 60c0 25 -17 38 -48 38h-17zM232 154c36 0 62 27 62 67c0 25 -14 40 -43 40h-30l-23 -107h34z" />
    <glyph glyph-name="C" unicode="C" horiz-adv-x="467" 
d="M231 -12c-139 0 -210 94 -210 235c0 161 83 455 309 455c149 0 193 -123 194 -227l-163 -32c-1 53 -7 103 -41 103c-74 0 -120 -217 -120 -303c0 -53 15 -75 39 -75c26 0 51 27 73 78l142 -56c-47 -110 -115 -178 -223 -178z" />
    <glyph glyph-name="D" unicode="D" horiz-adv-x="524" 
d="M194 0h-207l147 667h201c103 0 199 -84 199 -234c0 -159 -77 -433 -340 -433zM198 154h27c92 0 130 197 130 276c0 58 -24 83 -52 83h-26z" />
    <glyph glyph-name="E" unicode="E" horiz-adv-x="405" 
d="M323 0h-336l147 667h336l-34 -154h-159l-21 -98h152l-34 -154h-153l-23 -107h159z" />
    <glyph glyph-name="F" unicode="F" horiz-adv-x="400" 
d="M164 0h-177l147 667h336l-34 -154h-159l-21 -98h152l-34 -154h-153z" />
    <glyph glyph-name="G" unicode="G" horiz-adv-x="495" 
d="M231 -12c-143 0 -210 99 -210 235c0 180 94 455 309 455c134 0 184 -93 185 -203l-148 -37c0 44 -13 84 -46 84c-72 0 -121 -206 -121 -303c0 -54 12 -75 40 -75c23 0 41 14 56 32l12 55h-61l35 154h214l-61 -274c-56 -85 -128 -123 -204 -123z" />
    <glyph glyph-name="G.alt1" horiz-adv-x="495" 
d="M218 -12c-127 0 -197 94 -197 235c0 173 90 455 321 455c123 0 170 -91 171 -203l-146 -37c0 44 -13 84 -44 84c-71 0 -123 -193 -123 -303c0 -52 11 -75 46 -75c31 0 58 48 68 87h-67l35 154h230c-47 -254 -123 -397 -294 -397z" />
    <glyph glyph-name="H" unicode="H" horiz-adv-x="532" 
d="M436 0h-176l58 266h-96l-58 -266h-177l147 667h177l-55 -247h97l54 247h176z" />
    <glyph glyph-name="I" unicode="I" horiz-adv-x="259" 
d="M164 0h-177l147 667h177z" />
    <glyph glyph-name="J" unicode="J" horiz-adv-x="375" 
d="M98 -12c-50 0 -104 12 -136 36l65 143c13 -15 37 -23 54 -23c34 0 60 19 68 57l103 466h177l-105 -475c-32 -143 -99 -204 -226 -204z" />
    <glyph glyph-name="K" unicode="K" horiz-adv-x="524" 
d="M475 0h-185l-37 223l-59 -86l-30 -137h-177l147 667h177l-54 -248l153 248h201l-225 -311z" />
    <glyph glyph-name="L" unicode="L" horiz-adv-x="396" 
d="M323 0h-336l147 667h177l-113 -513h159z" />
    <glyph glyph-name="M" unicode="M" horiz-adv-x="675" 
d="M579 0h-174l71 321l-165 -321h-55l-22 321l-70 -321h-177l147 667h215l18 -268l141 268h218z" />
    <glyph glyph-name="N" unicode="N" horiz-adv-x="532" 
d="M436 0h-164l-47 278l-61 -278h-177l147 667h177l39 -261l57 261h176z" />
    <glyph glyph-name="O" unicode="O" horiz-adv-x="522" 
d="M231 -12c-143 0 -210 102 -210 235c0 164 86 455 309 455c142 0 210 -104 210 -236c0 -165 -87 -454 -309 -454zM239 144c74 0 121 218 121 301c0 44 -11 77 -40 77c-74 0 -120 -219 -120 -303c0 -44 10 -75 39 -75z" />
    <glyph glyph-name="P" unicode="P" horiz-adv-x="496" 
d="M164 0h-177l147 667h207c114 0 187 -83 187 -187c0 -134 -88 -258 -270 -258h-45zM247 376h26c45 0 72 43 72 85c0 32 -18 52 -45 52h-23z" />
    <glyph glyph-name="Q" unicode="Q" horiz-adv-x="523" 
d="M231 -12c-143 0 -210 102 -210 235c0 164 86 455 309 455c142 0 210 -104 210 -236c0 -118 -45 -299 -151 -393l10 -61l-127 -24l-5 27c-11 -2 -24 -3 -36 -3zM239 144h3l-14 86l93 17c25 68 39 153 39 198c0 44 -11 77 -40 77c-74 0 -120 -219 -120 -303
c0 -44 10 -75 39 -75z" />
    <glyph glyph-name="R" unicode="R" horiz-adv-x="510" 
d="M433 0h-184l-9 222h-27l-49 -222h-177l147 667h209c106 0 184 -83 184 -189c0 -104 -66 -198 -120 -223zM247 376h26c42 0 71 39 71 84c0 38 -21 53 -45 53h-22z" />
    <glyph glyph-name="S" unicode="S" horiz-adv-x="437" 
d="M178 -12c-88 0 -167 34 -206 84l97 130c25 -35 69 -58 109 -58c29 0 50 21 50 50c0 62 -163 100 -163 246c0 130 101 238 237 238c67 0 140 -25 184 -73l-91 -131c-23 30 -58 48 -95 48c-32 0 -47 -23 -47 -46c0 -67 160 -102 160 -248c0 -127 -92 -240 -235 -240z" />
    <glyph glyph-name="T" unicode="T" horiz-adv-x="406" 
d="M238 0h-177l113 513h-97l34 154h370l-34 -154h-96z" />
    <glyph glyph-name="U" unicode="U" horiz-adv-x="532" 
d="M236 -12c-113 0 -204 76 -204 193c0 11 1 26 4 40l98 446h177l-102 -463c-1 -6 -3 -15 -3 -21c0 -25 18 -41 43 -41c27 0 46 17 56 62l102 463h177l-101 -453c-34 -158 -137 -226 -247 -226z" />
    <glyph glyph-name="V" unicode="V" horiz-adv-x="484" 
d="M289 0h-203l1 667h177l-31 -443l164 443h186z" />
    <glyph glyph-name="W" unicode="W" horiz-adv-x="684" 
d="M504 0h-176l36 346l-117 -346h-175l25 667h176l-40 -362l132 362h134l-26 -362l119 362h181z" />
    <glyph glyph-name="X" unicode="X" horiz-adv-x="509" 
d="M461 0h-185l-31 182l-103 -182h-202l238 350l-83 317h186l23 -171l92 171h203l-227 -334z" />
    <glyph glyph-name="Y" unicode="Y" horiz-adv-x="489" 
d="M279 0h-177l59 269l-75 398h179l14 -232l117 232h193l-252 -398z" />
    <glyph glyph-name="Z" unicode="Z" horiz-adv-x="412" 
d="M332 0h-360l32 147l225 366h-144l34 154h353l-31 -141l-230 -372h155z" />
    <glyph glyph-name="a" unicode="a" horiz-adv-x="461" 
d="M207 495c51 0 87 -19 103 -67l13 55h156l-107 -483h-157l12 53c-32 -47 -67 -65 -104 -65c-76 0 -117 54 -117 165c0 132 64 342 201 342zM247 356c-57 0 -79 -128 -79 -179c0 -32 14 -50 40 -50c17 0 33 14 43 33l36 162c-5 22 -20 34 -40 34z" />
    <glyph glyph-name="a.alt1" horiz-adv-x="453" 
d="M377 0h-157l10 46c-24 -34 -67 -58 -111 -58c-66 0 -119 48 -119 127c0 107 68 188 158 188c44 0 95 -18 116 -56l9 41c2 6 3 16 3 24c0 33 -32 53 -70 53c-31 0 -65 -7 -102 -34l-31 113c47 38 118 51 175 51c105 0 193 -46 193 -139c0 -10 -1 -25 -5 -44zM200 91
c20 0 38 12 47 31l10 45c-8 22 -26 33 -48 33c-34 0 -50 -36 -50 -68c0 -26 17 -41 41 -41z" />
    <glyph glyph-name="b" unicode="b" horiz-adv-x="461" 
d="M254 -12c-52 0 -88 19 -104 67l-11 -55h-157l146 667h158l-53 -237c33 47 68 65 105 65c76 0 116 -54 116 -165c0 -132 -64 -342 -200 -342zM213 127c57 0 79 127 79 179c0 32 -13 50 -40 50c-16 0 -32 -14 -42 -33l-36 -162c5 -23 20 -34 39 -34z" />
    <glyph glyph-name="c" unicode="c" horiz-adv-x="371" 
d="M200 -12c-117 0 -191 70 -191 195c0 157 96 312 249 312c60 0 115 -22 144 -50l-70 -118c-14 21 -37 29 -59 29c-59 0 -103 -76 -103 -152c0 -52 29 -77 71 -77c20 0 40 9 55 22l19 -125c-29 -23 -70 -36 -115 -36z" />
    <glyph glyph-name="d" unicode="d" horiz-adv-x="461" 
d="M207 495c51 0 87 -19 103 -67l53 239h156l-147 -667h-157l12 53c-32 -47 -67 -65 -104 -65c-76 0 -117 54 -117 165c0 132 64 342 201 342zM247 356c-57 0 -79 -128 -79 -179c0 -32 14 -50 40 -50c17 0 33 14 43 33l36 162c-5 22 -20 34 -40 34z" />
    <glyph glyph-name="e" unicode="e" horiz-adv-x="435" 
d="M200 -12c-121 0 -191 75 -191 198c0 140 89 309 245 309c126 0 173 -79 173 -180c0 -48 -14 -102 -20 -126h-254c-1 -4 -1 -10 -1 -15c0 -18 13 -60 81 -60c30 0 57 14 80 31l48 -98c-40 -37 -104 -59 -161 -59zM175 297h110c1 8 2 16 2 24c0 31 -21 48 -46 48
c-43 0 -61 -41 -66 -72z" />
    <glyph glyph-name="f" unicode="f" horiz-adv-x="275" 
d="M156 0h-157l76 346h-42l31 137h41l4 19c20 94 61 175 173 175c48 0 95 -14 114 -31l-57 -115c-9 9 -18 13 -28 13c-27 0 -40 -19 -45 -42l-4 -19h57l-31 -137h-56z" />
    <glyph glyph-name="f.alt1" horiz-adv-x="275" 
d="M156 0h-157l76 346h-42l31 137h41l4 19c26 119 80 175 173 175c36 0 68 -7 92 -17l-48 -121c-5 4 -11 5 -17 5c-23 0 -38 -17 -43 -42l-4 -19h57l-31 -137h-56z" />
    <glyph glyph-name="g" unicode="g" horiz-adv-x="461" 
d="M140 -196c-79 0 -143 24 -180 66l76 115c24 -31 60 -48 99 -48c43 0 71 27 87 95l11 48c-29 -46 -67 -66 -104 -66c-80 0 -120 55 -120 154c0 123 52 327 197 327c37 0 93 -19 103 -67l13 55h157l-101 -451c-40 -181 -132 -228 -238 -228zM212 154c16 0 33 15 44 33
l30 135c-7 21 -24 34 -41 34c-56 0 -74 -107 -74 -152c0 -37 14 -50 41 -50z" />
    <glyph glyph-name="h" unicode="h" 
d="M373 0h-158l70 316c0 1 2 12 2 15c0 15 -9 25 -23 25c-24 0 -44 -25 -57 -47l-68 -309h-158l147 667h158l-54 -241c26 34 75 69 127 69c63 0 100 -38 100 -89c0 -8 -1 -16 -3 -26z" />
    <glyph glyph-name="i" unicode="i" horiz-adv-x="228" 
d="M185 525c-48 0 -82 35 -82 77c0 67 57 104 103 104c47 0 81 -35 81 -77c0 -67 -57 -104 -102 -104zM139 0h-158l107 483h158z" />
    <glyph glyph-name="j" unicode="j" horiz-adv-x="228" 
d="M-53 -196c-35 0 -66 8 -83 22l51 118c4 -5 13 -7 22 -7c19 0 33 15 41 50l110 496h158l-111 -496c-25 -115 -68 -183 -188 -183zM185 525c-48 0 -82 35 -82 77c0 67 57 104 103 104c47 0 81 -35 81 -77c0 -67 -57 -104 -102 -104z" />
    <glyph glyph-name="k" unicode="k" horiz-adv-x="445" 
d="M396 0h-171l-16 169l-48 -67l-22 -102h-158l147 667h158l-78 -355l109 171h177l-155 -213z" />
    <glyph glyph-name="l" unicode="l" horiz-adv-x="228" 
d="M139 0h-158l147 667h158z" />
    <glyph glyph-name="l.alt1" horiz-adv-x="258" 
d="M146 -12c-86 0 -141 31 -141 99c0 13 1 31 6 52l117 528h158l-110 -497c-1 -5 -2 -15 -2 -20c1 -16 10 -23 23 -23c7 0 14 3 18 6l-5 -133c-13 -8 -35 -12 -64 -12z" />
    <glyph glyph-name="m" unicode="m" horiz-adv-x="696" 
d="M606 0h-157l70 316c0 1 2 10 2 15c0 14 -8 25 -23 25c-25 0 -46 -27 -57 -47l-68 -309h-158l70 316c0 1 2 10 2 15c0 15 -9 25 -23 25c-25 0 -46 -28 -57 -47l-68 -309h-158l107 483h158l-14 -57c27 37 78 69 127 69c59 0 100 -37 100 -76c0 -3 0 -1 -1 -4
c28 43 83 80 135 80c58 0 100 -34 100 -89c0 -9 -2 -21 -3 -26z" />
    <glyph glyph-name="n" unicode="n" 
d="M373 0h-158l70 316c0 2 2 12 2 15c0 15 -9 25 -23 25c-24 0 -44 -25 -57 -47l-68 -309h-158l107 483h158l-14 -57c26 34 75 69 127 69c63 0 100 -37 100 -89c0 -6 -2 -20 -3 -26z" />
    <glyph glyph-name="o" unicode="o" horiz-adv-x="451" 
d="M196 -12c-126 0 -187 80 -187 197c0 140 88 310 244 310c126 0 188 -80 188 -197c0 -140 -89 -310 -245 -310zM205 127c53 0 77 131 77 175c0 40 -13 54 -38 54c-52 0 -76 -132 -76 -175c0 -40 12 -54 37 -54z" />
    <glyph glyph-name="p" unicode="p" horiz-adv-x="461" 
d="M254 -12c-52 0 -88 19 -104 67l-52 -239h-157l147 667h158l-13 -53c33 47 68 65 105 65c76 0 116 -54 116 -165c0 -132 -64 -342 -200 -342zM213 127c57 0 79 127 79 179c0 32 -13 50 -40 50c-16 0 -32 -14 -42 -33l-36 -162c5 -23 20 -34 39 -34z" />
    <glyph glyph-name="q" unicode="q" horiz-adv-x="461" 
d="M207 495c51 0 87 -19 103 -67l12 55h156l-147 -667h-157l53 237c-32 -47 -67 -65 -104 -65c-76 0 -117 54 -117 165c0 132 64 342 201 342zM247 356c-57 0 -79 -128 -79 -179c0 -32 14 -50 40 -50c17 0 33 14 43 33l36 162c-5 22 -20 34 -40 34z" />
    <glyph glyph-name="r" unicode="r" horiz-adv-x="309" 
d="M139 0h-158l107 483h158l-13 -56c24 39 72 69 121 69l-35 -154c-8 4 -16 6 -30 6c-32 0 -60 -16 -84 -46z" />
    <glyph glyph-name="s" unicode="s" horiz-adv-x="382" 
d="M156 -12c-86 0 -161 40 -187 76l82 101c20 -26 59 -54 103 -54c28 0 45 13 45 30c0 42 -160 49 -160 176c0 92 63 178 188 178c64 0 132 -26 175 -72l-78 -100c-13 17 -55 49 -97 49c-23 0 -38 -10 -38 -27c0 -36 166 -47 166 -176c0 -93 -74 -181 -199 -181z" />
    <glyph glyph-name="t" unicode="t" horiz-adv-x="282" 
d="M164 -12c-93 0 -142 33 -142 102c0 16 1 28 6 49l47 207h-42l31 137h41l29 132h158l-29 -132h56l-31 -137h-56l-39 -176c-1 -6 -2 -13 -2 -19c0 -15 6 -24 23 -24c6 0 14 3 18 6l-5 -133c-12 -7 -30 -12 -63 -12z" />
    <glyph glyph-name="u" unicode="u" 
d="M88 483h158l-69 -312c-2 -9 -4 -16 -4 -22c0 -12 9 -22 24 -22c24 0 44 24 56 46l69 310h158l-107 -483h-158l13 57c-26 -34 -74 -69 -126 -69c-63 0 -101 37 -101 89c0 6 3 20 4 26z" />
    <glyph glyph-name="v" unicode="v" horiz-adv-x="435" 
d="M247 0h-167l-33 483h162l-7 -285l122 285h170z" />
    <glyph glyph-name="w" unicode="w" horiz-adv-x="674" 
d="M506 0h-166l2 269l-116 -269h-166l-10 483h158l-11 -273l110 273h147l-3 -273l112 273h167z" />
    <glyph glyph-name="x" unicode="x" horiz-adv-x="418" 
d="M369 0h-163l-18 129l-77 -129h-171l169 242l-57 241h161l16 -127l72 127h170l-165 -241z" />
    <glyph glyph-name="y" unicode="y" horiz-adv-x="435" 
d="M-47 -181l50 129c5 -3 14 -5 23 -5c16 0 27 9 36 24l17 30l-32 486h162l-7 -284l122 284h170l-280 -547c-56 -106 -99 -132 -172 -132c-35 0 -72 7 -89 15z" />
    <glyph glyph-name="y.alt1" 
d="M141 -196c-82 0 -151 27 -181 66l76 115c23 -30 61 -48 99 -48c49 0 73 33 87 95l11 49c-26 -34 -79 -67 -126 -67c-62 0 -101 35 -101 86c0 11 3 23 6 37l76 346h158l-65 -290c-1 -5 -2 -11 -2 -16c0 -15 7 -24 24 -24c23 0 44 26 56 47l63 283h158l-101 -451
c-38 -172 -126 -228 -238 -228z" />
    <glyph glyph-name="z" unicode="z" horiz-adv-x="368" 
d="M295 0h-330l25 116l182 230h-131l31 137h326l-25 -111l-185 -235h136z" />
    <glyph glyph-name="A.smcp" unicode="&#xf761;" horiz-adv-x="427" 
d="M187 550h187l5 -550h-167l6 74h-82l-27 -74h-168zM231 215l13 160l-60 -160h47z" />
    <glyph glyph-name="B.smcp" unicode="&#xf762;" horiz-adv-x="439" 
d="M230 0h-249l121 550h199c104 0 157 -52 157 -120c0 -66 -40 -137 -121 -151c47 -17 71 -53 71 -104c0 -81 -52 -175 -178 -175zM176 141h34c20 0 34 21 34 41c0 16 -9 26 -25 26h-29zM221 349h28c22 0 33 19 33 37c0 16 -8 23 -27 23h-21z" />
    <glyph glyph-name="C.smcp" unicode="&#xf763;" horiz-adv-x="420" 
d="M199 -12c-101 0 -185 61 -185 200c0 140 78 374 260 374c117 0 164 -69 169 -179l-137 -28c-1 41 -12 64 -36 64c-60 0 -91 -175 -91 -227c0 -46 13 -61 37 -61c25 0 41 26 56 66l121 -53c-36 -73 -85 -156 -194 -156z" />
    <glyph glyph-name="D.smcp" unicode="&#xf764;" horiz-adv-x="467" 
d="M189 0h-208l121 550h155c118 0 209 -60 209 -204c0 -111 -59 -346 -277 -346zM176 141h29c62 0 94 137 94 200c0 44 -18 68 -52 68h-13z" />
    <glyph glyph-name="E.smcp" unicode="&#xf765;" horiz-adv-x="358" 
d="M281 0h-300l121 550h300l-32 -141h-136l-13 -60h131l-32 -141h-130l-15 -67h137z" />
    <glyph glyph-name="F.smcp" unicode="&#xf766;" horiz-adv-x="354" 
d="M144 0h-163l121 550h300l-31 -141h-137l-13 -60h131l-32 -141h-130z" />
    <glyph glyph-name="G.smcp" unicode="&#xf767;" horiz-adv-x="443" 
d="M210 -12c-129 0 -196 73 -196 205c0 154 88 369 263 369c103 0 164 -70 165 -181l-136 -26c-1 34 -9 64 -37 64c-55 0 -90 -164 -90 -226c0 -47 16 -62 42 -62c14 0 22 4 29 9l10 46h-43l29 132h187l-59 -269c-44 -36 -95 -61 -164 -61z" />
    <glyph glyph-name="G.smcp.alt1" horiz-adv-x="443" 
d="M196 -12c-111 0 -182 71 -182 199c0 147 80 375 264 375c107 0 163 -81 165 -176l-135 -31c-1 35 -12 64 -39 64c-56 0 -90 -167 -90 -232c0 -37 12 -56 35 -56c27 0 43 29 50 55h-47l29 132h200c-24 -150 -96 -330 -250 -330z" />
    <glyph glyph-name="H.smcp" unicode="&#xf768;" horiz-adv-x="479" 
d="M390 0h-164l46 210h-82l-46 -210h-163l121 550h163l-43 -198h82l43 198h164z" />
    <glyph glyph-name="I.smcp" unicode="&#xf769;" horiz-adv-x="233" 
d="M144 0h-163l121 550h163z" />
    <glyph glyph-name="J.smcp" unicode="&#xf76a;" horiz-adv-x="334" 
d="M82 -12c-48 0 -101 13 -124 33l62 129c11 -12 27 -19 46 -19c28 0 47 17 54 49l82 370h163l-86 -393c-26 -119 -86 -169 -197 -169z" />
    <glyph glyph-name="K.smcp" unicode="&#xf76b;" horiz-adv-x="464" 
d="M413 0h-181l-25 170l-38 -56l-25 -114h-163l121 550h163l-41 -190l123 190h177l-192 -257z" />
    <glyph glyph-name="L.smcp" unicode="&#xf76c;" horiz-adv-x="351" 
d="M281 0h-300l121 550h163l-90 -409h137z" />
    <glyph glyph-name="M.smcp" unicode="&#xf76d;" horiz-adv-x="591" 
d="M501 0h-161l52 237l-122 -237h-57l-17 238l-52 -238h-163l121 550h196l15 -220l115 220h194z" />
    <glyph glyph-name="N.smcp" unicode="&#xf76e;" horiz-adv-x="468" 
d="M379 0h-153l-32 226l-50 -226h-163l121 550h164l26 -207l45 207h163z" />
    <glyph glyph-name="O.smcp" unicode="&#xf76f;" horiz-adv-x="472" 
d="M205 -12c-114 0 -191 67 -191 204c0 124 65 370 265 370c114 0 191 -67 191 -204c0 -124 -65 -370 -265 -370zM216 131c60 0 90 170 90 229c0 31 -7 59 -36 59c-60 0 -92 -170 -92 -229c0 -31 9 -59 38 -59z" />
    <glyph glyph-name="P.smcp" unicode="&#xf770;" horiz-adv-x="439" 
d="M144 0h-163l121 550h182c107 0 174 -63 174 -156c0 -107 -74 -219 -212 -219h-63zM214 316h30c29 0 45 28 45 58c0 21 -12 35 -33 35h-22z" />
    <glyph glyph-name="Q.smcp" unicode="&#xf771;" horiz-adv-x="472" 
d="M205 -12c-114 0 -191 67 -191 204c0 124 65 370 265 370c114 0 191 -67 191 -204c0 -86 -31 -229 -116 -310l10 -61l-118 -23l-5 27c-11 -2 -24 -3 -36 -3zM216 131h3l-9 57l66 13c20 54 30 125 30 159c0 31 -7 59 -36 59c-60 0 -92 -170 -92 -229c0 -31 9 -59 38 -59z
" />
    <glyph glyph-name="R.smcp" unicode="&#xf772;" horiz-adv-x="453" 
d="M380 0h-172l-5 175h-20l-39 -175h-163l121 550h170c116 0 188 -56 188 -157c0 -83 -49 -164 -105 -193zM237 316h7c28 0 46 32 46 57c0 24 -13 36 -36 36h-20l-20 -93h23z" />
    <glyph glyph-name="S.smcp" unicode="&#xf773;" horiz-adv-x="399" 
d="M168 -12c-80 0 -151 21 -196 73l85 121c26 -34 60 -51 101 -51c27 0 41 18 41 38c0 45 -141 70 -141 204c0 107 91 189 207 189c62 0 127 -23 171 -64l-84 -121c-22 27 -53 42 -85 42c-23 0 -37 -17 -37 -36c0 -47 142 -62 142 -209c0 -90 -84 -186 -204 -186z" />
    <glyph glyph-name="T.smcp" unicode="&#xf774;" horiz-adv-x="349" 
d="M203 0h-164l89 409h-78l32 141h319l-32 -141h-77z" />
    <glyph glyph-name="U.smcp" unicode="&#xf775;" horiz-adv-x="477" 
d="M211 -12c-115 0 -195 58 -195 148c0 14 1 30 4 43l82 371h163l-81 -364c-1 -6 -2 -15 -2 -19c0 -26 13 -36 36 -36c24 0 38 18 45 51l82 368h164l-82 -370c-29 -129 -103 -192 -216 -192z" />
    <glyph glyph-name="V.smcp" unicode="&#xf776;" horiz-adv-x="427" 
d="M253 0h-187l-4 550h166l-20 -326l123 326h169z" />
    <glyph glyph-name="W.smcp" unicode="&#xf777;" horiz-adv-x="601" 
d="M439 0h-162l22 238l-83 -238h-162l14 550h166l-25 -254l96 254h125l-17 -257l88 257h165z" />
    <glyph glyph-name="X.smcp" unicode="&#xf778;" horiz-adv-x="449" 
d="M401 0h-177l-18 153l-86 -153h-180l190 282l-62 268h177l15 -142l76 142h179l-180 -268z" />
    <glyph glyph-name="Y.smcp" unicode="&#xf779;" horiz-adv-x="431" 
d="M243 0h-163l48 223l-68 327h170l14 -169l88 169h173l-213 -327z" />
    <glyph glyph-name="Z.smcp" unicode="&#xf77a;" horiz-adv-x="353" 
d="M277 0h-310l27 122l178 285h-115l31 143h304l-25 -117l-181 -290h123z" />
    <glyph glyph-name="Aacute" unicode="&#xc1;" horiz-adv-x="484" 
d="M436 0h-177l7 93h-107l-34 -93h-185l293 667h203v-667zM280 247l17 228l-83 -228h66zM535 867l-144 -144h-99l112 144h131z" />
    <glyph glyph-name="Abreve" unicode="&#x102;" horiz-adv-x="484" 
d="M436 0h-177l7 93h-107l-34 -93h-185l293 667h203v-667zM280 247l17 228l-83 -228h66zM485 770c-38 -41 -90 -65 -143 -65c-52 0 -94 24 -115 65l78 52c9 -19 28 -31 52 -31s49 12 66 31z" />
    <glyph glyph-name="Acircumflex" unicode="&#xc2;" horiz-adv-x="484" 
d="M477 723h-82l-30 79l-62 -79h-86l91 144h138zM436 0h-177l7 93h-107l-34 -93h-185l293 667h203v-667zM280 247l17 228l-83 -228h66z" />
    <glyph glyph-name="Adieresis" unicode="&#xc4;" horiz-adv-x="484" 
d="M533 791c0 -47 -44 -89 -91 -89c-40 0 -70 31 -70 71c0 47 43 89 90 89c40 0 71 -31 71 -71zM348 791c0 -47 -44 -89 -90 -89c-41 0 -71 31 -71 71c0 47 43 89 90 89c40 0 71 -31 71 -71zM436 0h-177l7 93h-107l-34 -93h-185l293 667h203v-667zM280 247l17 228l-83 -228
h66z" />
    <glyph glyph-name="Agrave" unicode="&#xc0;" horiz-adv-x="484" 
d="M436 0h-177l7 93h-107l-34 -93h-185l293 667h203v-667zM280 247l17 228l-83 -228h66zM398 723h-97l-80 144h129z" />
    <glyph glyph-name="Amacron" unicode="&#x100;" horiz-adv-x="484" 
d="M436 0h-177l7 93h-107l-34 -93h-185l293 667h203v-667zM280 247l17 228l-83 -228h66zM481 722h-267l18 87h268z" />
    <glyph glyph-name="Aogonek" unicode="&#x104;" horiz-adv-x="484" 
d="M405 -102l51 -37c-24 -34 -51 -47 -81 -47c-47 0 -85 22 -85 71c0 27 8 68 57 115h-88l7 93h-107l-34 -93h-185l293 667h203v-667c-42 -28 -73 -68 -73 -107c0 -11 6 -17 17 -17c10 0 19 8 25 22zM280 247l17 228l-83 -228h66z" />
    <glyph glyph-name="Aring" unicode="&#xc5;" horiz-adv-x="484" 
d="M436 0h-177l7 93h-107l-34 -93h-185l293 667h203v-667zM280 247l17 228l-83 -228h66zM351 687c-49 0 -84 36 -84 85c0 57 49 107 106 107c50 0 84 -36 84 -85c0 -57 -49 -107 -106 -107zM360 751c18 0 35 17 35 36c0 17 -11 29 -28 29c-19 0 -35 -17 -35 -36
c0 -17 11 -29 28 -29z" />
    <glyph glyph-name="Atilde" unicode="&#xc3;" horiz-adv-x="484" 
d="M436 0h-177l7 93h-107l-34 -93h-185l293 667h203v-667zM280 247l17 228l-83 -228h66zM403 721c-60 0 -51 53 -86 53c-15 0 -24 -15 -31 -47h-80c18 80 56 134 116 134c59 0 52 -54 87 -54c15 0 23 15 31 48h80c-18 -80 -57 -134 -117 -134z" />
    <glyph glyph-name="uni1EA0" unicode="&#x1ea0;" horiz-adv-x="484" 
d="M436 0h-177l7 93h-107l-34 -93h-185l293 667h203v-667zM280 247l17 228l-83 -228h66zM243 -114c0 -47 -44 -89 -91 -89c-41 0 -71 31 -71 71c0 47 44 89 91 89c40 0 71 -30 71 -71z" />
    <glyph glyph-name="uni1EA2" unicode="&#x1ea2;" horiz-adv-x="484" 
d="M436 0h-177l7 93h-107l-34 -93h-185l293 667h203v-667zM280 247l17 228l-83 -228h66zM338 754l-50 13c13 32 35 53 72 53c38 0 64 -18 64 -58c0 -25 -14 -52 -24 -65h-58c13 16 22 34 25 50c3 15 -1 24 -12 24c-7 0 -13 -6 -17 -17z" />
    <glyph glyph-name="uni1EA4" unicode="&#x1ea4;" horiz-adv-x="484" 
d="M463 682h-82l-30 59l-62 -59h-86l91 108h138zM436 0h-177l7 93h-107l-34 -93h-185l293 667h203v-667zM280 247l17 228l-83 -228h66zM695 843l-144 -108h-99l112 108h131z" />
    <glyph glyph-name="uni1EAC" unicode="&#x1eac;" horiz-adv-x="484" 
d="M436 0h-177l7 93h-107l-34 -93h-185l293 667h203v-667zM280 247l17 228l-83 -228h66zM476 723h-82l-30 79l-62 -79h-86l91 144h138zM243 -114c0 -47 -44 -89 -91 -89c-41 0 -71 31 -71 71c0 47 44 89 91 89c40 0 71 -30 71 -71z" />
    <glyph glyph-name="uni1EA6" unicode="&#x1ea6;" horiz-adv-x="484" 
d="M463 682h-82l-30 59l-62 -59h-86l91 108h138zM436 0h-177l7 93h-107l-34 -93h-185l293 667h203v-667zM280 247l17 228l-83 -228h66zM242 735h-97l-80 108h129z" />
    <glyph glyph-name="uni1EA8" unicode="&#x1ea8;" horiz-adv-x="484" 
d="M463 682h-82l-30 59l-62 -59h-86l91 108h138zM436 0h-177l7 93h-107l-34 -93h-185l293 667h203v-667zM280 247l17 228l-83 -228h66zM451 799l-50 10c13 24 35 39 72 39c38 0 64 -13 64 -43c0 -19 -14 -39 -24 -49h-58c13 12 22 26 25 38c3 11 -1 18 -12 18
c-7 0 -13 -5 -17 -13z" />
    <glyph glyph-name="uni1EAE" unicode="&#x1eae;" horiz-adv-x="484" 
d="M436 0h-177l7 93h-107l-34 -93h-185l293 667h203v-667zM280 247l17 228l-83 -228h66zM534 828l-144 -77h-99l112 77h131zM475 716c-38 -24 -90 -38 -143 -38c-52 0 -94 14 -115 38l78 30c9 -11 28 -18 52 -18s49 7 66 18z" />
    <glyph glyph-name="uni1EAA" unicode="&#x1eaa;" horiz-adv-x="484" 
d="M458 679h-82l-30 39l-62 -39h-86l91 72h138zM436 0h-177l7 93h-107l-34 -93h-185l293 667h203v-667zM280 247l17 228l-83 -228h66zM403 758c-60 0 -51 26 -86 26c-15 0 -24 -7 -31 -23h-80c18 40 56 67 116 67c59 0 52 -27 87 -27c15 0 23 7 31 24h80
c-18 -40 -57 -67 -117 -67z" />
    <glyph glyph-name="uni1EB0" unicode="&#x1eb0;" horiz-adv-x="484" 
d="M436 0h-177l7 93h-107l-34 -93h-185l293 667h203v-667zM280 247l17 228l-83 -228h66zM405 751h-97l-80 77h129zM473 716c-38 -24 -90 -38 -143 -38c-52 0 -94 14 -115 38l78 30c9 -11 28 -18 52 -18s49 7 66 18z" />
    <glyph glyph-name="uni1EB2" unicode="&#x1eb2;" horiz-adv-x="484" 
d="M436 0h-177l7 93h-107l-34 -93h-185l293 667h203v-667zM280 247l17 228l-83 -228h66zM344 781l-50 7c13 17 35 29 72 29c38 0 64 -10 64 -32c0 -13 -14 -27 -24 -34h-58c13 8 22 18 25 26s-1 13 -12 13c-7 0 -13 -3 -17 -9zM473 716c-38 -24 -90 -38 -143 -38
c-52 0 -94 14 -115 38l78 30c9 -11 28 -18 52 -18s49 7 66 18z" />
    <glyph glyph-name="uni1EB4" unicode="&#x1eb4;" horiz-adv-x="484" 
d="M436 0h-177l7 93h-107l-34 -93h-185l293 667h203v-667zM280 247l17 228l-83 -228h66zM473 714c-38 -22 -90 -35 -143 -35c-52 0 -94 13 -115 35l78 28c9 -10 28 -17 52 -17s49 7 66 17zM403 757c-60 0 -51 26 -86 26c-15 0 -24 -7 -31 -23h-80c18 40 56 67 116 67
c59 0 52 -27 87 -27c15 0 23 7 31 24h80c-18 -40 -57 -67 -117 -67z" />
    <glyph glyph-name="uni1EB6" unicode="&#x1eb6;" horiz-adv-x="484" 
d="M436 0h-177l7 93h-107l-34 -93h-185l293 667h203v-667zM280 247l17 228l-83 -228h66zM243 -114c0 -47 -44 -89 -91 -89c-41 0 -71 31 -71 71c0 47 44 89 91 89c40 0 71 -30 71 -71zM485 770c-38 -41 -90 -65 -143 -65c-52 0 -94 24 -115 65l78 52c9 -19 28 -31 52 -31
s49 12 66 31z" />
    <glyph glyph-name="AE" unicode="&#xc6;" horiz-adv-x="659" 
d="M586 0h-335l20 93h-98l-47 -93h-184l379 667h412l-34 -154h-159l-21 -98h152l-34 -154h-152l-24 -107h159zM305 247l47 212l-104 -212h57z" />
    <glyph glyph-name="AEacute" unicode="&#x1fc;" horiz-adv-x="659" 
d="M687 867l-144 -144h-99l112 144h131zM586 0h-335l20 93h-98l-47 -93h-184l379 667h412l-34 -154h-159l-21 -98h152l-34 -154h-152l-24 -107h159zM305 247l47 212l-104 -212h57z" />
    <glyph glyph-name="uni1E02" unicode="&#x1e02;" horiz-adv-x="502" 
d="M274 0h-287l147 667h215c120 0 180 -72 180 -153c0 -86 -58 -175 -146 -183c59 -16 87 -69 87 -126c0 -93 -57 -205 -196 -205zM256 415h30c33 0 56 27 56 60c0 25 -17 38 -48 38h-17zM232 154c36 0 62 27 62 67c0 25 -14 40 -43 40h-30l-23 -107h34zM458 792
c0 -47 -44 -89 -91 -89c-41 0 -71 31 -71 71c0 47 44 89 91 89c40 0 71 -30 71 -71z" />
    <glyph glyph-name="Cacute" unicode="&#x106;" horiz-adv-x="467" 
d="M560 872l-144 -144h-99l112 144h131zM231 -12c-139 0 -210 94 -210 235c0 161 83 455 309 455c149 0 193 -123 194 -227l-163 -32c-1 53 -7 103 -41 103c-74 0 -120 -217 -120 -303c0 -53 15 -75 39 -75c26 0 51 27 73 78l142 -56c-47 -110 -115 -178 -223 -178z" />
    <glyph glyph-name="Ccedilla" unicode="&#xc7;" horiz-adv-x="467" 
d="M177 -198c-44 0 -78 16 -102 41l37 54c15 -19 39 -33 64 -33c21 0 34 13 34 30c0 10 -6 18 -18 18c-10 0 -16 -5 -21 -12l-47 30l39 67c-94 26 -142 110 -142 226c0 161 83 455 309 455c149 0 193 -123 194 -227l-163 -32c-1 53 -7 103 -41 103
c-74 0 -120 -217 -120 -303c0 -53 15 -75 39 -75c26 0 51 27 73 78l142 -56c-47 -110 -115 -178 -223 -178h-1l-24 -37c8 7 15 9 23 9c31 0 55 -23 55 -62c0 -56 -45 -96 -107 -96z" />
    <glyph glyph-name="Ccircumflex" unicode="&#x108;" horiz-adv-x="467" 
d="M498 723h-82l-30 79l-62 -79h-86l91 144h138zM231 -12c-139 0 -210 94 -210 235c0 161 83 455 309 455c149 0 193 -123 194 -227l-163 -32c-1 53 -7 103 -41 103c-74 0 -120 -217 -120 -303c0 -53 15 -75 39 -75c26 0 51 27 73 78l142 -56c-47 -110 -115 -178 -223 -178z
" />
    <glyph glyph-name="Cdotaccent" unicode="&#x10a;" horiz-adv-x="467" 
d="M231 -12c-139 0 -210 94 -210 235c0 161 83 455 309 455c149 0 193 -123 194 -227l-163 -32c-1 53 -7 103 -41 103c-74 0 -120 -217 -120 -303c0 -53 15 -75 39 -75c26 0 51 27 73 78l142 -56c-47 -110 -115 -178 -223 -178zM464 792c0 -47 -44 -89 -91 -89
c-41 0 -71 31 -71 71c0 47 44 89 91 89c40 0 71 -30 71 -71z" />
    <glyph glyph-name="Ccaron" unicode="&#x10c;" horiz-adv-x="467" 
d="M438 723h-138l-30 144h82l30 -79l62 79h86zM231 -12c-139 0 -210 94 -210 235c0 161 83 455 309 455c149 0 193 -123 194 -227l-163 -32c-1 53 -7 103 -41 103c-74 0 -120 -217 -120 -303c0 -53 15 -75 39 -75c26 0 51 27 73 78l142 -56c-47 -110 -115 -178 -223 -178z
" />
    <glyph glyph-name="Dcaron" unicode="&#x10e;" horiz-adv-x="524" 
d="M446 723h-138l-30 144h82l30 -79l62 79h86zM194 0h-207l147 667h201c103 0 199 -84 199 -234c0 -159 -77 -433 -340 -433zM198 154h27c92 0 130 197 130 276c0 58 -24 83 -52 83h-26z" />
    <glyph glyph-name="Dcroat" unicode="&#x110;" horiz-adv-x="550" 
d="M220 0h-207l58 264h-56l31 139h55l59 264h201c103 0 199 -84 199 -234c0 -159 -77 -433 -340 -433zM304 264h-56l-24 -110h27c92 0 130 197 130 276c0 58 -24 83 -52 83h-26l-25 -110h56z" />
    <glyph glyph-name="uni1E0A" unicode="&#x1e0a;" horiz-adv-x="524" 
d="M194 0h-207l147 667h201c103 0 199 -84 199 -234c0 -159 -77 -433 -340 -433zM198 154h27c92 0 130 197 130 276c0 58 -24 83 -52 83h-26zM471 792c0 -47 -44 -89 -91 -89c-41 0 -71 31 -71 71c0 47 44 89 91 89c40 0 71 -30 71 -71z" />
    <glyph glyph-name="Eacute" unicode="&#xc9;" horiz-adv-x="405" 
d="M505 867l-144 -144h-99l112 144h131zM323 0h-336l147 667h336l-34 -154h-159l-21 -98h152l-34 -154h-153l-23 -107h159z" />
    <glyph glyph-name="Ebreve" unicode="&#x114;" horiz-adv-x="405" 
d="M323 0h-336l147 667h336l-34 -154h-159l-21 -98h152l-34 -154h-153l-23 -107h159zM453 770c-38 -41 -90 -65 -143 -65c-52 0 -94 24 -115 65l78 52c9 -19 28 -31 52 -31s49 12 66 31z" />
    <glyph glyph-name="Ecircumflex" unicode="&#xca;" horiz-adv-x="405" 
d="M445 723h-82l-30 79l-62 -79h-86l91 144h138zM323 0h-336l147 667h336l-34 -154h-159l-21 -98h152l-34 -154h-153l-23 -107h159z" />
    <glyph glyph-name="Edieresis" unicode="&#xcb;" horiz-adv-x="405" 
d="M500 791c0 -47 -44 -89 -91 -89c-40 0 -70 31 -70 71c0 47 43 89 90 89c40 0 71 -31 71 -71zM315 791c0 -47 -44 -89 -90 -89c-41 0 -71 31 -71 71c0 47 43 89 90 89c40 0 71 -31 71 -71zM323 0h-336l147 667h336l-34 -154h-159l-21 -98h152l-34 -154h-153l-23 -107h159z
" />
    <glyph glyph-name="Edotaccent" unicode="&#x116;" horiz-adv-x="405" 
d="M323 0h-336l147 667h336l-34 -154h-159l-21 -98h152l-34 -154h-153l-23 -107h159zM411 799c0 -47 -44 -89 -91 -89c-41 0 -71 31 -71 71c0 47 44 89 91 89c40 0 71 -30 71 -71z" />
    <glyph glyph-name="Egrave" unicode="&#xc8;" horiz-adv-x="405" 
d="M323 0h-336l147 667h336l-34 -154h-159l-21 -98h152l-34 -154h-153l-23 -107h159zM366 723h-97l-80 144h129z" />
    <glyph glyph-name="Emacron" unicode="&#x112;" horiz-adv-x="405" 
d="M323 0h-336l147 667h336l-34 -154h-159l-21 -98h152l-34 -154h-153l-23 -107h159zM448 722h-267l18 87h268z" />
    <glyph glyph-name="Eogonek" unicode="&#x118;" horiz-adv-x="405" 
d="M323 0c-42 -28 -73 -68 -73 -107c0 -11 6 -17 17 -17c10 0 19 8 25 22l51 -37c-24 -34 -51 -47 -81 -47c-47 0 -85 22 -85 71c0 27 8 68 57 115h-247l147 667h336l-34 -154h-159l-21 -98h152l-34 -154h-153l-23 -107h159z" />
    <glyph glyph-name="Ecaron" unicode="&#x11a;" horiz-adv-x="405" 
d="M386 723h-138l-30 144h82l30 -79l62 79h86zM323 0h-336l147 667h336l-34 -154h-159l-21 -98h152l-34 -154h-153l-23 -107h159z" />
    <glyph glyph-name="uni1EB8" unicode="&#x1eb8;" horiz-adv-x="405" 
d="M323 0h-336l147 667h336l-34 -154h-159l-21 -98h152l-34 -154h-153l-23 -107h159zM210 -114c0 -47 -44 -89 -91 -89c-41 0 -71 31 -71 71c0 47 44 89 91 89c40 0 71 -30 71 -71z" />
    <glyph glyph-name="uni1EBA" unicode="&#x1eba;" horiz-adv-x="405" 
d="M323 0h-336l147 667h336l-34 -154h-159l-21 -98h152l-34 -154h-153l-23 -107h159zM305 754l-50 13c13 32 35 53 72 53c38 0 64 -18 64 -58c0 -25 -14 -52 -24 -65h-58c13 16 22 34 25 50c3 15 -1 24 -12 24c-7 0 -13 -6 -17 -17z" />
    <glyph glyph-name="uni1EBC" unicode="&#x1ebc;" horiz-adv-x="405" 
d="M323 0h-336l147 667h336l-34 -154h-159l-21 -98h152l-34 -154h-153l-23 -107h159zM370 721c-60 0 -51 53 -86 53c-15 0 -24 -15 -31 -47h-80c18 80 56 134 116 134c59 0 52 -54 87 -54c15 0 23 15 31 48h80c-18 -80 -57 -134 -117 -134z" />
    <glyph glyph-name="uni1EBE" unicode="&#x1ebe;" horiz-adv-x="405" 
d="M432 682h-82l-30 59l-62 -59h-86l91 108h138zM667 843l-144 -108h-99l112 108h131zM323 0h-336l147 667h336l-34 -154h-159l-21 -98h152l-34 -154h-153l-23 -107h159z" />
    <glyph glyph-name="uni1EC0" unicode="&#x1ec0;" horiz-adv-x="405" 
d="M432 682h-82l-30 59l-62 -59h-86l91 108h138zM323 0h-336l147 667h336l-34 -154h-159l-21 -98h152l-34 -154h-153l-23 -107h159zM211 735h-97l-80 108h129z" />
    <glyph glyph-name="uni1EC2" unicode="&#x1ec2;" horiz-adv-x="405" 
d="M431 682h-82l-30 59l-62 -59h-86l91 108h138zM323 0h-336l147 667h336l-34 -154h-159l-21 -98h152l-34 -154h-153l-23 -107h159zM419 799l-50 10c13 24 35 39 72 39c38 0 64 -13 64 -43c0 -19 -14 -39 -24 -49h-58c13 12 22 26 25 38c3 11 -1 18 -12 18
c-7 0 -13 -5 -17 -13z" />
    <glyph glyph-name="uni1EC4" unicode="&#x1ec4;" horiz-adv-x="405" 
d="M427 678h-82l-30 39l-62 -39h-86l91 72h138zM323 0h-336l147 667h336l-34 -154h-159l-21 -98h152l-34 -154h-153l-23 -107h159zM372 757c-60 0 -51 26 -86 26c-15 0 -24 -7 -31 -23h-80c18 40 56 67 116 67c59 0 52 -27 87 -27c15 0 23 7 31 24h80
c-18 -40 -57 -67 -117 -67z" />
    <glyph glyph-name="uni1EC6" unicode="&#x1ec6;" horiz-adv-x="405" 
d="M445 723h-82l-30 79l-62 -79h-86l91 144h138zM323 0h-336l147 667h336l-34 -154h-159l-21 -98h152l-34 -154h-153l-23 -107h159zM214 -114c0 -47 -44 -89 -91 -89c-41 0 -71 31 -71 71c0 47 44 89 91 89c40 0 71 -30 71 -71z" />
    <glyph glyph-name="uni1E1E" unicode="&#x1e1e;" horiz-adv-x="400" 
d="M409 792c0 -47 -44 -89 -91 -89c-41 0 -71 31 -71 71c0 47 44 89 91 89c40 0 71 -30 71 -71zM164 0h-177l147 667h336l-34 -154h-159l-21 -98h152l-34 -154h-153z" />
    <glyph glyph-name="Gcircumflex" unicode="&#x11c;" horiz-adv-x="495" 
d="M499 723h-82l-30 79l-62 -79h-86l91 144h138zM231 -12c-143 0 -210 99 -210 235c0 180 94 455 309 455c134 0 184 -93 185 -203l-148 -37c0 44 -13 84 -46 84c-72 0 -121 -206 -121 -303c0 -54 12 -75 40 -75c23 0 41 14 56 32l12 55h-61l35 154h214l-61 -274
c-56 -85 -128 -123 -204 -123z" />
    <glyph glyph-name="Gbreve" unicode="&#x11e;" horiz-adv-x="495" 
d="M231 -12c-143 0 -210 99 -210 235c0 180 94 455 309 455c134 0 184 -93 185 -203l-148 -37c0 44 -13 84 -46 84c-72 0 -121 -206 -121 -303c0 -54 12 -75 40 -75c23 0 41 14 56 32l12 55h-61l35 154h214l-61 -274c-56 -85 -128 -123 -204 -123zM506 770
c-38 -41 -90 -65 -143 -65c-52 0 -94 24 -115 65l78 52c9 -19 28 -31 52 -31s49 12 66 31z" />
    <glyph glyph-name="Gdotaccent" unicode="&#x120;" horiz-adv-x="495" 
d="M231 -12c-143 0 -210 99 -210 235c0 180 94 455 309 455c134 0 184 -93 185 -203l-148 -37c0 44 -13 84 -46 84c-72 0 -121 -206 -121 -303c0 -54 12 -75 40 -75c23 0 41 14 56 32l12 55h-61l35 154h214l-61 -274c-56 -85 -128 -123 -204 -123zM464 793
c0 -47 -44 -89 -91 -89c-41 0 -71 31 -71 71c0 47 44 89 91 89c40 0 71 -30 71 -71z" />
    <glyph glyph-name="Gcommaaccent" unicode="&#x122;" horiz-adv-x="495" 
d="M256 -120c0 -65 -54 -136 -126 -171l-41 42c27 12 67 38 82 66c-2 -1 -8 -1 -10 -1c-29 0 -55 20 -55 59c0 42 40 78 81 78c36 0 69 -25 69 -73zM231 -12c-143 0 -210 99 -210 235c0 180 94 455 309 455c134 0 184 -93 185 -203l-148 -37c0 44 -13 84 -46 84
c-72 0 -121 -206 -121 -303c0 -54 12 -75 40 -75c23 0 41 14 56 32l12 55h-61l35 154h214l-61 -274c-56 -85 -128 -123 -204 -123z" />
    <glyph glyph-name="Gbreve.alt1" horiz-adv-x="495" 
d="M507 770c-38 -41 -90 -65 -143 -65c-52 0 -94 24 -115 65l78 52c9 -19 28 -31 52 -31s49 12 66 31zM218 -12c-127 0 -197 94 -197 235c0 173 90 455 321 455c123 0 170 -91 171 -203l-146 -37c0 44 -13 84 -44 84c-71 0 -123 -193 -123 -303c0 -52 11 -75 46 -75
c31 0 58 48 68 87h-67l35 154h230c-47 -254 -123 -397 -294 -397z" />
    <glyph glyph-name="Gcommaaccent.alt1" horiz-adv-x="495" 
d="M256 -120c0 -65 -54 -136 -126 -171l-41 42c27 12 67 38 82 66c-2 -1 -8 -1 -10 -1c-29 0 -55 20 -55 59c0 42 40 78 81 78c36 0 69 -25 69 -73zM218 -12c-127 0 -197 94 -197 235c0 173 90 455 321 455c123 0 170 -91 171 -203l-146 -37c0 44 -13 84 -44 84
c-71 0 -123 -193 -123 -303c0 -52 11 -75 46 -75c31 0 58 48 68 87h-67l35 154h230c-47 -254 -123 -397 -294 -397z" />
    <glyph glyph-name="Gcircumflex.alt1" horiz-adv-x="495" 
d="M499 723h-82l-30 79l-62 -79h-86l91 144h138zM218 -12c-127 0 -197 94 -197 235c0 173 90 455 321 455c123 0 170 -91 171 -203l-146 -37c0 44 -13 84 -44 84c-71 0 -123 -193 -123 -303c0 -52 11 -75 46 -75c31 0 58 48 68 87h-67l35 154h230
c-47 -254 -123 -397 -294 -397z" />
    <glyph glyph-name="Gdotaccent.alt1" horiz-adv-x="495" 
d="M464 793c0 -47 -44 -89 -91 -89c-41 0 -71 31 -71 71c0 47 44 89 91 89c40 0 71 -30 71 -71zM218 -12c-127 0 -197 94 -197 235c0 173 90 455 321 455c123 0 170 -91 171 -203l-146 -37c0 44 -13 84 -44 84c-71 0 -123 -193 -123 -303c0 -52 11 -75 46 -75
c31 0 58 48 68 87h-67l35 154h230c-47 -254 -123 -397 -294 -397z" />
    <glyph glyph-name="Hbar" unicode="&#x126;" horiz-adv-x="532" 
d="M436 0h-176l58 266h-96l-58 -266h-177l110 501h-40l18 86h41l18 80h177l-18 -80h96l18 80h176l-18 -80h38l-18 -86h-39zM256 420h97l17 81h-96z" />
    <glyph glyph-name="Hcircumflex" unicode="&#x124;" horiz-adv-x="532" 
d="M502 723h-82l-30 79l-62 -79h-86l91 144h138zM436 0h-176l58 266h-96l-58 -266h-177l147 667h177l-55 -247h97l54 247h176z" />
    <glyph glyph-name="uni1E22" unicode="&#x1e22;" horiz-adv-x="532" 
d="M436 0h-176l58 266h-96l-58 -266h-177l147 667h177l-55 -247h97l54 247h176zM468 792c0 -47 -44 -89 -91 -89c-41 0 -71 31 -71 71c0 47 44 89 91 89c40 0 71 -30 71 -71z" />
    <glyph glyph-name="Iacute" unicode="&#xcd;" horiz-adv-x="259" 
d="M164 0h-177l147 667h177zM425 867l-144 -144h-99l112 144h131z" />
    <glyph glyph-name="Ibreve" unicode="&#x12c;" horiz-adv-x="259" 
d="M164 0h-177l147 667h177zM373 770c-38 -41 -90 -65 -143 -65c-52 0 -94 24 -115 65l78 52c9 -19 28 -31 52 -31s49 12 66 31z" />
    <glyph glyph-name="Icircumflex" unicode="&#xce;" horiz-adv-x="259" 
d="M365 723h-82l-30 79l-62 -79h-86l91 144h138zM164 0h-177l147 667h177z" />
    <glyph glyph-name="Idieresis" unicode="&#xcf;" horiz-adv-x="259" 
d="M422 791c0 -47 -44 -89 -91 -89c-40 0 -70 31 -70 71c0 47 43 89 90 89c40 0 71 -31 71 -71zM237 791c0 -47 -44 -89 -90 -89c-41 0 -71 31 -71 71c0 47 43 89 90 89c40 0 71 -31 71 -71zM164 0h-177l147 667h177z" />
    <glyph glyph-name="Idotaccent" unicode="&#x130;" horiz-adv-x="259" 
d="M164 0h-177l147 667h177zM331 792c0 -47 -44 -89 -91 -89c-41 0 -71 31 -71 71c0 47 44 89 91 89c40 0 71 -30 71 -71z" />
    <glyph glyph-name="Igrave" unicode="&#xcc;" horiz-adv-x="259" 
d="M164 0h-177l147 667h177zM286 723h-97l-80 144h129z" />
    <glyph glyph-name="Imacron" unicode="&#x12a;" horiz-adv-x="259" 
d="M164 0h-177l147 667h177zM370 722h-267l18 87h268z" />
    <glyph glyph-name="Iogonek" unicode="&#x12e;" horiz-adv-x="259" 
d="M133 -102l51 -37c-24 -34 -51 -47 -81 -47c-47 0 -85 22 -85 71c0 27 8 68 57 115h-88l147 667h177l-147 -667c-42 -28 -73 -68 -73 -107c0 -11 6 -17 17 -17c10 0 19 8 25 22z" />
    <glyph glyph-name="Itilde" unicode="&#x128;" horiz-adv-x="259" 
d="M164 0h-177l147 667h177zM291 721c-60 0 -51 53 -86 53c-15 0 -24 -15 -31 -47h-80c18 80 56 134 116 134c59 0 52 -54 87 -54c15 0 23 15 31 48h80c-18 -80 -57 -134 -117 -134z" />
    <glyph glyph-name="uni1EC8" unicode="&#x1ec8;" horiz-adv-x="259" 
d="M164 0h-177l147 667h177zM226 754l-50 13c13 32 35 53 72 53c38 0 64 -18 64 -58c0 -25 -14 -52 -24 -65h-58c13 16 22 34 25 50c3 15 -1 24 -12 24c-7 0 -13 -6 -17 -17z" />
    <glyph glyph-name="uni1ECA" unicode="&#x1eca;" horiz-adv-x="259" 
d="M164 0h-177l147 667h177zM130 -114c0 -47 -44 -89 -91 -89c-41 0 -71 31 -71 71c0 47 44 89 91 89c40 0 71 -30 71 -71z" />
    <glyph glyph-name="IJ" unicode="&#x132;" horiz-adv-x="635" 
d="M164 0h-177l147 667h177zM357 -12c-50 0 -104 12 -136 36l65 143c13 -15 37 -23 54 -23c34 0 60 19 68 57l103 466h177l-105 -475c-32 -143 -99 -204 -226 -204z" />
    <glyph glyph-name="Jcircumflex" unicode="&#x134;" horiz-adv-x="375" 
d="M483 723h-82l-30 79l-62 -79h-86l91 144h138zM98 -12c-50 0 -104 12 -136 36l65 143c13 -15 37 -23 54 -23c34 0 60 19 68 57l103 466h177l-105 -475c-32 -143 -99 -204 -226 -204z" />
    <glyph glyph-name="Kcommaaccent" unicode="&#x136;" horiz-adv-x="524" 
d="M273 -120c0 -65 -54 -136 -126 -171l-41 42c27 12 67 38 82 66c-2 -1 -8 -1 -10 -1c-29 0 -55 20 -55 59c0 42 40 78 81 78c36 0 69 -25 69 -73zM475 0h-185l-37 223l-59 -86l-30 -137h-177l147 667h177l-54 -248l153 248h201l-225 -311z" />
    <glyph glyph-name="Lacute" unicode="&#x139;" horiz-adv-x="396" 
d="M504 867l-144 -144h-99l112 144h131zM323 0h-336l147 667h177l-113 -513h159z" />
    <glyph glyph-name="Lcaron" unicode="&#x13d;" horiz-adv-x="396" 
d="M486 609c0 -65 -54 -136 -126 -171l-41 42c27 12 67 38 82 66c-2 -1 -8 -1 -10 -1c-29 0 -55 20 -55 59c0 42 40 78 81 78c36 0 69 -25 69 -73zM323 0h-336l147 667h177l-113 -513h159z" />
    <glyph glyph-name="Lcommaaccent" unicode="&#x13b;" horiz-adv-x="396" 
d="M202 -120c0 -65 -54 -136 -126 -171l-41 42c27 12 67 38 82 66c-2 -1 -8 -1 -10 -1c-29 0 -55 20 -55 59c0 42 40 78 81 78c36 0 69 -25 69 -73zM323 0h-336l147 667h177l-113 -513h159z" />
    <glyph glyph-name="Ldot" unicode="&#x13f;" horiz-adv-x="495" 
d="M323 0h-336l147 667h177l-113 -513h159zM391 246c-49 0 -87 40 -87 88c0 57 48 105 105 105c48 0 86 -40 86 -89c0 -56 -48 -104 -104 -104z" />
    <glyph glyph-name="Lslash" unicode="&#x141;" horiz-adv-x="402" 
d="M-1 190l31 141l40 21l70 315h177l-47 -212l64 33l-31 -142l-64 -33l-35 -159h159l-34 -154h-336l46 211z" />
    <glyph glyph-name="Nacute" unicode="&#x143;" horiz-adv-x="532" 
d="M562 867l-144 -144h-99l112 144h131zM436 0h-164l-47 278l-61 -278h-177l147 667h177l39 -261l57 261h176z" />
    <glyph glyph-name="Ncaron" unicode="&#x147;" horiz-adv-x="532" 
d="M442 723h-138l-30 144h82l30 -79l62 79h86zM436 0h-164l-47 278l-61 -278h-177l147 667h177l39 -261l57 261h176z" />
    <glyph glyph-name="Ncommaaccent" unicode="&#x145;" horiz-adv-x="532" 
d="M259 -120c0 -65 -54 -136 -126 -171l-41 42c27 12 67 38 82 66c-2 -1 -8 -1 -10 -1c-29 0 -55 20 -55 59c0 42 40 78 81 78c36 0 69 -25 69 -73zM436 0h-164l-47 278l-61 -278h-177l147 667h177l39 -261l57 261h176z" />
    <glyph glyph-name="Ntilde" unicode="&#xd1;" horiz-adv-x="532" 
d="M428 721c-60 0 -51 53 -86 53c-15 0 -24 -15 -31 -47h-80c18 80 56 134 116 134c59 0 52 -54 87 -54c15 0 23 15 31 48h80c-18 -80 -57 -134 -117 -134zM436 0h-164l-47 278l-61 -278h-177l147 667h177l39 -261l57 261h176z" />
    <glyph glyph-name="Eng" unicode="&#x14a;" horiz-adv-x="532" 
d="M212 -196c-50 0 -101 11 -136 36l61 134c14 -12 39 -18 57 -18c34 0 60 20 68 57l4 18l-41 247l-61 -278h-177l147 667h177l39 -261l57 261h176l-145 -659c-32 -143 -99 -204 -226 -204z" />
    <glyph glyph-name="Oacute" unicode="&#xd3;" horiz-adv-x="522" 
d="M556 867l-144 -144h-99l112 144h131zM231 -12c-143 0 -210 102 -210 235c0 164 86 455 309 455c142 0 210 -104 210 -236c0 -165 -87 -454 -309 -454zM239 144c74 0 121 218 121 301c0 44 -11 77 -40 77c-74 0 -120 -219 -120 -303c0 -44 10 -75 39 -75z" />
    <glyph glyph-name="Obreve" unicode="&#x14e;" horiz-adv-x="522" 
d="M231 -12c-143 0 -210 102 -210 235c0 164 86 455 309 455c142 0 210 -104 210 -236c0 -165 -87 -454 -309 -454zM239 144c74 0 121 218 121 301c0 44 -11 77 -40 77c-74 0 -120 -219 -120 -303c0 -44 10 -75 39 -75zM505 770c-38 -41 -90 -65 -143 -65
c-52 0 -94 24 -115 65l78 52c9 -19 28 -31 52 -31s49 12 66 31z" />
    <glyph glyph-name="Ocircumflex" unicode="&#xd4;" horiz-adv-x="522" 
d="M498 723h-82l-30 79l-62 -79h-86l91 144h138zM231 -12c-143 0 -210 102 -210 235c0 164 86 455 309 455c142 0 210 -104 210 -236c0 -165 -87 -454 -309 -454zM239 144c74 0 121 218 121 301c0 44 -11 77 -40 77c-74 0 -120 -219 -120 -303c0 -44 10 -75 39 -75z" />
    <glyph glyph-name="Odieresis" unicode="&#xd6;" horiz-adv-x="522" 
d="M553 791c0 -47 -44 -89 -91 -89c-40 0 -70 31 -70 71c0 47 43 89 90 89c40 0 71 -31 71 -71zM368 791c0 -47 -44 -89 -90 -89c-41 0 -71 31 -71 71c0 47 43 89 90 89c40 0 71 -31 71 -71zM231 -12c-143 0 -210 102 -210 235c0 164 86 455 309 455
c142 0 210 -104 210 -236c0 -165 -87 -454 -309 -454zM239 144c74 0 121 218 121 301c0 44 -11 77 -40 77c-74 0 -120 -219 -120 -303c0 -44 10 -75 39 -75z" />
    <glyph glyph-name="Ograve" unicode="&#xd2;" horiz-adv-x="522" 
d="M418 723h-97l-80 144h129zM231 -12c-143 0 -210 102 -210 235c0 164 86 455 309 455c142 0 210 -104 210 -236c0 -165 -87 -454 -309 -454zM239 144c74 0 121 218 121 301c0 44 -11 77 -40 77c-74 0 -120 -219 -120 -303c0 -44 10 -75 39 -75z" />
    <glyph glyph-name="Ohungarumlaut" unicode="&#x150;" horiz-adv-x="522" 
d="M423 867l-116 -144h-81l83 144h114zM563 867l-116 -144h-81l83 144h114zM231 -12c-143 0 -210 102 -210 235c0 164 86 455 309 455c142 0 210 -104 210 -236c0 -165 -87 -454 -309 -454zM239 144c74 0 121 218 121 301c0 44 -11 77 -40 77c-74 0 -120 -219 -120 -303
c0 -44 10 -75 39 -75z" />
    <glyph glyph-name="Omacron" unicode="&#x14c;" horiz-adv-x="522" 
d="M500 722h-267l18 87h268zM231 -12c-143 0 -210 102 -210 235c0 164 86 455 309 455c142 0 210 -104 210 -236c0 -165 -87 -454 -309 -454zM239 144c74 0 121 218 121 301c0 44 -11 77 -40 77c-74 0 -120 -219 -120 -303c0 -44 10 -75 39 -75z" />
    <glyph glyph-name="Oslash" unicode="&#xd8;" horiz-adv-x="522" 
d="M231 -12c-57 0 -101 16 -134 43l-24 -31h-95l70 92c-18 37 -27 82 -27 131c0 164 86 455 309 455c56 0 100 -17 134 -44l25 33h95l-72 -94c19 -38 28 -82 28 -131c0 -165 -87 -454 -309 -454zM320 522c-56 0 -96 -124 -112 -222l146 191c-6 19 -17 31 -34 31zM239 144
c56 0 96 123 112 220l-146 -191c6 -18 17 -29 34 -29z" />
    <glyph glyph-name="Oslashacute" unicode="&#x1fe;" horiz-adv-x="522" 
d="M556 867l-144 -144h-99l112 144h131zM231 -12c-57 0 -101 16 -134 43l-24 -31h-95l70 92c-18 37 -27 82 -27 131c0 164 86 455 309 455c56 0 100 -17 134 -44l25 33h95l-72 -94c19 -38 28 -82 28 -131c0 -165 -87 -454 -309 -454zM320 522c-56 0 -96 -124 -112 -222
l146 191c-6 19 -17 31 -34 31zM239 144c56 0 96 123 112 220l-146 -191c6 -18 17 -29 34 -29z" />
    <glyph glyph-name="Otilde" unicode="&#xd5;" horiz-adv-x="522" 
d="M231 -12c-143 0 -210 102 -210 235c0 164 86 455 309 455c142 0 210 -104 210 -236c0 -165 -87 -454 -309 -454zM239 144c74 0 121 218 121 301c0 44 -11 77 -40 77c-74 0 -120 -219 -120 -303c0 -44 10 -75 39 -75zM422 721c-60 0 -51 53 -86 53c-15 0 -24 -15 -31 -47
h-80c18 80 56 134 116 134c59 0 52 -54 87 -54c15 0 23 15 31 48h80c-18 -80 -57 -134 -117 -134z" />
    <glyph glyph-name="uni1ECC" unicode="&#x1ecc;" horiz-adv-x="522" 
d="M231 -12c-143 0 -210 102 -210 235c0 164 86 455 309 455c142 0 210 -104 210 -236c0 -165 -87 -454 -309 -454zM239 144c74 0 121 218 121 301c0 44 -11 77 -40 77c-74 0 -120 -219 -120 -303c0 -44 10 -75 39 -75zM260 -114c0 -47 -44 -89 -91 -89c-41 0 -71 31 -71 71
c0 47 44 89 91 89c40 0 71 -30 71 -71z" />
    <glyph glyph-name="uni1ECE" unicode="&#x1ece;" horiz-adv-x="522" 
d="M231 -12c-143 0 -210 102 -210 235c0 164 86 455 309 455c142 0 210 -104 210 -236c0 -165 -87 -454 -309 -454zM239 144c74 0 121 218 121 301c0 44 -11 77 -40 77c-74 0 -120 -219 -120 -303c0 -44 10 -75 39 -75zM357 754l-50 13c13 32 35 53 72 53
c38 0 64 -18 64 -58c0 -25 -14 -52 -24 -65h-58c13 16 22 34 25 50c3 15 -1 24 -12 24c-7 0 -13 -6 -17 -17z" />
    <glyph glyph-name="uni1ED0" unicode="&#x1ed0;" horiz-adv-x="522" 
d="M482 682h-82l-30 59l-62 -59h-86l91 108h138zM714 843l-144 -108h-99l112 108h131zM231 -12c-143 0 -210 102 -210 235c0 164 86 455 309 455c142 0 210 -104 210 -236c0 -165 -87 -454 -309 -454zM239 144c74 0 121 218 121 301c0 44 -11 77 -40 77
c-74 0 -120 -219 -120 -303c0 -44 10 -75 39 -75z" />
    <glyph glyph-name="uni1ED2" unicode="&#x1ed2;" horiz-adv-x="522" 
d="M482 682h-82l-30 59l-62 -59h-86l91 108h138zM231 -12c-143 0 -210 102 -210 235c0 164 86 455 309 455c142 0 210 -104 210 -236c0 -165 -87 -454 -309 -454zM239 144c74 0 121 218 121 301c0 44 -11 77 -40 77c-74 0 -120 -219 -120 -303c0 -44 10 -75 39 -75zM261 735
h-97l-80 108h129z" />
    <glyph glyph-name="uni1ED4" unicode="&#x1ed4;" horiz-adv-x="522" 
d="M482 682h-82l-30 59l-62 -59h-86l91 108h138zM231 -12c-143 0 -210 102 -210 235c0 164 86 455 309 455c142 0 210 -104 210 -236c0 -165 -87 -454 -309 -454zM239 144c74 0 121 218 121 301c0 44 -11 77 -40 77c-74 0 -120 -219 -120 -303c0 -44 10 -75 39 -75zM471 799
l-50 10c13 24 35 39 72 39c38 0 64 -13 64 -43c0 -19 -14 -39 -24 -49h-58c13 12 22 26 25 38c3 11 -1 18 -12 18c-7 0 -13 -5 -17 -13z" />
    <glyph glyph-name="uni1ED6" unicode="&#x1ed6;" horiz-adv-x="522" 
d="M477 678h-82l-30 39l-62 -39h-86l91 72h138zM231 -12c-143 0 -210 102 -210 235c0 164 86 455 309 455c142 0 210 -104 210 -236c0 -165 -87 -454 -309 -454zM239 144c74 0 121 218 121 301c0 44 -11 77 -40 77c-74 0 -120 -219 -120 -303c0 -44 10 -75 39 -75zM422 757
c-60 0 -51 26 -86 26c-15 0 -24 -7 -31 -23h-80c18 40 56 67 116 67c59 0 52 -27 87 -27c15 0 23 7 31 24h80c-18 -40 -57 -67 -117 -67z" />
    <glyph glyph-name="uni1ED8" unicode="&#x1ed8;" horiz-adv-x="522" 
d="M496 723h-82l-30 79l-62 -79h-86l91 144h138zM231 -12c-143 0 -210 102 -210 235c0 164 86 455 309 455c142 0 210 -104 210 -236c0 -165 -87 -454 -309 -454zM239 144c74 0 121 218 121 301c0 44 -11 77 -40 77c-74 0 -120 -219 -120 -303c0 -44 10 -75 39 -75z
M261 -114c0 -47 -44 -89 -91 -89c-41 0 -71 31 -71 71c0 47 44 89 91 89c40 0 71 -30 71 -71z" />
    <glyph glyph-name="Ohorn" unicode="&#x1a0;" horiz-adv-x="522" 
d="M231 -12c-143 0 -210 102 -210 235c0 164 86 455 309 455c84 0 142 -37 175 -94c18 12 35 27 44 44c-2 -1 -6 -1 -8 -1c-25 0 -48 18 -48 52c0 38 34 68 70 68c32 0 62 -22 62 -64c0 -54 -41 -112 -99 -145c9 -29 14 -62 14 -96c0 -165 -87 -454 -309 -454zM239 144
c74 0 121 218 121 301c0 44 -11 77 -40 77c-74 0 -120 -219 -120 -303c0 -44 10 -75 39 -75z" />
    <glyph glyph-name="uni1EDA" unicode="&#x1eda;" horiz-adv-x="522" 
d="M556 867l-144 -144h-99l112 144h131zM231 -12c-143 0 -210 102 -210 235c0 164 86 455 309 455c84 0 142 -37 175 -94c18 12 35 27 44 44c-2 -1 -6 -1 -8 -1c-25 0 -48 18 -48 52c0 38 34 68 70 68c32 0 62 -22 62 -64c0 -54 -41 -112 -99 -145c9 -29 14 -62 14 -96
c0 -165 -87 -454 -309 -454zM239 144c74 0 121 218 121 301c0 44 -11 77 -40 77c-74 0 -120 -219 -120 -303c0 -44 10 -75 39 -75z" />
    <glyph glyph-name="uni1EDC" unicode="&#x1edc;" horiz-adv-x="522" 
d="M231 -12c-143 0 -210 102 -210 235c0 164 86 455 309 455c84 0 142 -37 175 -94c18 12 35 27 44 44c-2 -1 -6 -1 -8 -1c-25 0 -48 18 -48 52c0 38 34 68 70 68c32 0 62 -22 62 -64c0 -54 -41 -112 -99 -145c9 -29 14 -62 14 -96c0 -165 -87 -454 -309 -454zM239 144
c74 0 121 218 121 301c0 44 -11 77 -40 77c-74 0 -120 -219 -120 -303c0 -44 10 -75 39 -75zM418 723h-97l-80 144h129z" />
    <glyph glyph-name="uni1EDE" unicode="&#x1ede;" horiz-adv-x="522" 
d="M231 -12c-143 0 -210 102 -210 235c0 164 86 455 309 455c84 0 142 -37 175 -94c18 12 35 27 44 44c-2 -1 -6 -1 -8 -1c-25 0 -48 18 -48 52c0 38 34 68 70 68c32 0 62 -22 62 -64c0 -54 -41 -112 -99 -145c9 -29 14 -62 14 -96c0 -165 -87 -454 -309 -454zM239 144
c74 0 121 218 121 301c0 44 -11 77 -40 77c-74 0 -120 -219 -120 -303c0 -44 10 -75 39 -75zM356 754l-50 13c13 32 35 53 72 53c38 0 64 -18 64 -58c0 -25 -14 -52 -24 -65h-58c13 16 22 34 25 50c3 15 -1 24 -12 24c-7 0 -13 -6 -17 -17z" />
    <glyph glyph-name="uni1EE0" unicode="&#x1ee0;" horiz-adv-x="522" 
d="M231 -12c-143 0 -210 102 -210 235c0 164 86 455 309 455c84 0 142 -37 175 -94c18 12 35 27 44 44c-2 -1 -6 -1 -8 -1c-25 0 -48 18 -48 52c0 38 34 68 70 68c32 0 62 -22 62 -64c0 -54 -41 -112 -99 -145c9 -29 14 -62 14 -96c0 -165 -87 -454 -309 -454zM239 144
c74 0 121 218 121 301c0 44 -11 77 -40 77c-74 0 -120 -219 -120 -303c0 -44 10 -75 39 -75zM422 721c-60 0 -51 53 -86 53c-15 0 -24 -15 -31 -47h-80c18 80 56 134 116 134c59 0 52 -54 87 -54c15 0 23 15 31 48h80c-18 -80 -57 -134 -117 -134z" />
    <glyph glyph-name="uni1EE2" unicode="&#x1ee2;" horiz-adv-x="522" 
d="M231 -12c-143 0 -210 102 -210 235c0 164 86 455 309 455c84 0 142 -37 175 -94c18 12 35 27 44 44c-2 -1 -6 -1 -8 -1c-25 0 -48 18 -48 52c0 38 34 68 70 68c32 0 62 -22 62 -64c0 -54 -41 -112 -99 -145c9 -29 14 -62 14 -96c0 -165 -87 -454 -309 -454zM239 144
c74 0 121 218 121 301c0 44 -11 77 -40 77c-74 0 -120 -219 -120 -303c0 -44 10 -75 39 -75zM260 -114c0 -47 -44 -89 -91 -89c-41 0 -71 31 -71 71c0 47 44 89 91 89c40 0 71 -30 71 -71z" />
    <glyph glyph-name="OE" unicode="&#x152;" horiz-adv-x="671" 
d="M598 0h-335l6 34c-26 -35 -70 -46 -95 -46c-88 0 -155 81 -155 235c0 182 105 454 298 454c35 0 73 -17 86 -44l7 34h335l-34 -154h-159l-21 -98h152l-34 -154h-152l-24 -107h160zM307 204l58 259c-3 44 -22 58 -43 58c-80 0 -124 -216 -124 -302c0 -48 11 -75 41 -75
c20 0 48 17 68 60z" />
    <glyph glyph-name="uni1E56" unicode="&#x1e56;" horiz-adv-x="496" 
d="M164 0h-177l147 667h207c114 0 187 -83 187 -187c0 -134 -88 -258 -270 -258h-45zM247 376h26c45 0 72 43 72 85c0 32 -18 52 -45 52h-23zM457 792c0 -47 -44 -89 -91 -89c-41 0 -71 31 -71 71c0 47 44 89 91 89c40 0 71 -30 71 -71z" />
    <glyph glyph-name="Racute" unicode="&#x154;" horiz-adv-x="510" 
d="M551 867l-144 -144h-99l112 144h131zM433 0h-184l-9 222h-27l-49 -222h-177l147 667h209c106 0 184 -83 184 -189c0 -104 -66 -198 -120 -223zM247 376h26c42 0 71 39 71 84c0 38 -21 53 -45 53h-22z" />
    <glyph glyph-name="Rcaron" unicode="&#x158;" horiz-adv-x="510" 
d="M432 723h-138l-30 144h82l30 -79l62 79h86zM433 0h-184l-9 222h-27l-49 -222h-177l147 667h209c106 0 184 -83 184 -189c0 -104 -66 -198 -120 -223zM247 376h26c42 0 71 39 71 84c0 38 -21 53 -45 53h-22z" />
    <glyph glyph-name="Rcommaaccent" unicode="&#x156;" horiz-adv-x="510" 
d="M249 -120c0 -65 -54 -136 -126 -171l-41 42c27 12 67 38 82 66c-2 -1 -8 -1 -10 -1c-29 0 -55 20 -55 59c0 42 40 78 81 78c36 0 69 -25 69 -73zM433 0h-184l-9 222h-27l-49 -222h-177l147 667h209c106 0 184 -83 184 -189c0 -104 -66 -198 -120 -223zM247 376h26
c42 0 71 39 71 84c0 38 -21 53 -45 53h-22z" />
    <glyph glyph-name="Sacute" unicode="&#x15a;" horiz-adv-x="437" 
d="M518 867l-144 -144h-99l112 144h131zM178 -12c-88 0 -167 34 -206 84l97 130c25 -35 69 -58 109 -58c29 0 50 21 50 50c0 62 -163 100 -163 246c0 130 101 238 237 238c67 0 140 -25 184 -73l-91 -131c-23 30 -58 48 -95 48c-32 0 -47 -23 -47 -46
c0 -67 160 -102 160 -248c0 -127 -92 -240 -235 -240z" />
    <glyph glyph-name="Scaron" unicode="&#x160;" horiz-adv-x="437" 
d="M398 723h-138l-30 144h82l30 -79l62 79h86zM178 -12c-88 0 -167 34 -206 84l97 130c25 -35 69 -58 109 -58c29 0 50 21 50 50c0 62 -163 100 -163 246c0 130 101 238 237 238c67 0 140 -25 184 -73l-91 -131c-23 30 -58 48 -95 48c-32 0 -47 -23 -47 -46
c0 -67 160 -102 160 -248c0 -127 -92 -240 -235 -240z" />
    <glyph glyph-name="Scircumflex" unicode="&#x15c;" horiz-adv-x="437" 
d="M457 723h-82l-30 79l-62 -79h-86l91 144h138zM178 -12c-88 0 -167 34 -206 84l97 130c25 -35 69 -58 109 -58c29 0 50 21 50 50c0 62 -163 100 -163 246c0 130 101 238 237 238c67 0 140 -25 184 -73l-91 -131c-23 30 -58 48 -95 48c-32 0 -47 -23 -47 -46
c0 -67 160 -102 160 -248c0 -127 -92 -240 -235 -240z" />
    <glyph glyph-name="Scedilla" unicode="&#x15e;" horiz-adv-x="437" 
d="M126 -198c-44 0 -78 16 -102 41l37 54c15 -19 39 -33 64 -33c21 0 34 13 34 30c0 10 -6 18 -18 18c-10 0 -16 -5 -21 -12l-47 30l38 65c-60 11 -110 40 -139 77l97 130c25 -35 69 -58 109 -58c29 0 50 21 50 50c0 62 -163 100 -163 246c0 130 101 238 237 238
c67 0 140 -25 184 -73l-91 -131c-23 30 -58 48 -95 48c-32 0 -47 -23 -47 -46c0 -67 160 -102 160 -248c0 -127 -92 -239 -234 -240l-24 -37c8 7 15 9 23 9c31 0 55 -23 55 -62c0 -56 -45 -96 -107 -96z" />
    <glyph glyph-name="Scommaaccent" unicode="&#x218;" horiz-adv-x="437" 
d="M214 -120c0 -65 -54 -136 -126 -171l-41 42c27 12 67 38 82 66c-2 -1 -8 -1 -10 -1c-29 0 -55 20 -55 59c0 42 40 78 81 78c36 0 69 -25 69 -73zM178 -12c-88 0 -167 34 -206 84l97 130c25 -35 69 -58 109 -58c29 0 50 21 50 50c0 62 -163 100 -163 246
c0 130 101 238 237 238c67 0 140 -25 184 -73l-91 -131c-23 30 -58 48 -95 48c-32 0 -47 -23 -47 -46c0 -67 160 -102 160 -248c0 -127 -92 -240 -235 -240z" />
    <glyph glyph-name="uni1E60" unicode="&#x1e60;" horiz-adv-x="437" 
d="M178 -12c-88 0 -167 34 -206 84l97 130c25 -35 69 -58 109 -58c29 0 50 21 50 50c0 62 -163 100 -163 246c0 130 101 238 237 238c67 0 140 -25 184 -73l-91 -131c-23 30 -58 48 -95 48c-32 0 -47 -23 -47 -46c0 -67 160 -102 160 -248c0 -127 -92 -240 -235 -240z
M421 792c0 -47 -44 -89 -91 -89c-41 0 -71 31 -71 71c0 47 44 89 91 89c40 0 71 -30 71 -71z" />
    <glyph glyph-name="Tbar" unicode="&#x166;" horiz-adv-x="406" 
d="M238 0h-177l53 244h-64l19 87h64l41 182h-97l34 154h370l-34 -154h-96l-41 -182h65l-19 -87h-65z" />
    <glyph glyph-name="Tcaron" unicode="&#x164;" horiz-adv-x="406" 
d="M375 723h-138l-30 144h82l30 -79l62 79h86zM238 0h-177l113 513h-97l34 154h370l-34 -154h-96z" />
    <glyph glyph-name="Tcommaaccent" unicode="&#x162;" horiz-adv-x="406" 
d="M199 -120c0 -65 -54 -136 -126 -171l-41 42c27 12 67 38 82 66c-2 -1 -8 -1 -10 -1c-29 0 -55 20 -55 59c0 42 40 78 81 78c36 0 69 -25 69 -73zM238 0h-177l113 513h-97l34 154h370l-34 -154h-96z" />
    <glyph glyph-name="uni021A" unicode="&#x21a;" horiz-adv-x="406" 
d="M199 -120c0 -65 -54 -136 -126 -171l-41 42c27 12 67 38 82 66c-2 -1 -8 -1 -10 -1c-29 0 -55 20 -55 59c0 42 40 78 81 78c36 0 69 -25 69 -73zM238 0h-177l113 513h-97l34 154h370l-34 -154h-96z" />
    <glyph glyph-name="uni1E6A" unicode="&#x1e6a;" horiz-adv-x="406" 
d="M238 0h-177l113 513h-97l34 154h370l-34 -154h-96zM403 792c0 -47 -44 -89 -91 -89c-41 0 -71 31 -71 71c0 47 44 89 91 89c40 0 71 -30 71 -71z" />
    <glyph glyph-name="Uacute" unicode="&#xda;" horiz-adv-x="532" 
d="M561 867l-144 -144h-99l112 144h131zM236 -12c-113 0 -204 76 -204 193c0 11 1 26 4 40l98 446h177l-102 -463c-1 -6 -3 -15 -3 -21c0 -25 18 -41 43 -41c27 0 46 17 56 62l102 463h177l-101 -453c-34 -158 -137 -226 -247 -226z" />
    <glyph glyph-name="Ubreve" unicode="&#x16c;" horiz-adv-x="532" 
d="M236 -12c-113 0 -204 76 -204 193c0 11 1 26 4 40l98 446h177l-102 -463c-1 -6 -3 -15 -3 -21c0 -25 18 -41 43 -41c27 0 46 17 56 62l102 463h177l-101 -453c-34 -158 -137 -226 -247 -226zM510 770c-38 -41 -90 -65 -143 -65c-52 0 -94 24 -115 65l78 52
c9 -19 28 -31 52 -31s49 12 66 31z" />
    <glyph glyph-name="Ucircumflex" unicode="&#xdb;" horiz-adv-x="532" 
d="M504 723h-82l-30 79l-62 -79h-86l91 144h138zM236 -12c-113 0 -204 76 -204 193c0 11 1 26 4 40l98 446h177l-102 -463c-1 -6 -3 -15 -3 -21c0 -25 18 -41 43 -41c27 0 46 17 56 62l102 463h177l-101 -453c-34 -158 -137 -226 -247 -226z" />
    <glyph glyph-name="Udieresis" unicode="&#xdc;" horiz-adv-x="532" 
d="M558 791c0 -47 -44 -89 -91 -89c-40 0 -70 31 -70 71c0 47 43 89 90 89c40 0 71 -31 71 -71zM373 791c0 -47 -44 -89 -90 -89c-41 0 -71 31 -71 71c0 47 43 89 90 89c40 0 71 -31 71 -71zM236 -12c-113 0 -204 76 -204 193c0 11 1 26 4 40l98 446h177l-102 -463
c-1 -6 -3 -15 -3 -21c0 -25 18 -41 43 -41c27 0 46 17 56 62l102 463h177l-101 -453c-34 -158 -137 -226 -247 -226z" />
    <glyph glyph-name="Ugrave" unicode="&#xd9;" horiz-adv-x="532" 
d="M236 -12c-113 0 -204 76 -204 193c0 11 1 26 4 40l98 446h177l-102 -463c-1 -6 -3 -15 -3 -21c0 -25 18 -41 43 -41c27 0 46 17 56 62l102 463h177l-101 -453c-34 -158 -137 -226 -247 -226zM424 723h-97l-80 144h129z" />
    <glyph glyph-name="Uhungarumlaut" unicode="&#x170;" horiz-adv-x="532" 
d="M236 -12c-113 0 -204 76 -204 193c0 11 1 26 4 40l98 446h177l-102 -463c-1 -6 -3 -15 -3 -21c0 -25 18 -41 43 -41c27 0 46 17 56 62l102 463h177l-101 -453c-34 -158 -137 -226 -247 -226zM430 867l-116 -144h-81l83 144h114zM570 867l-116 -144h-81l83 144h114z" />
    <glyph glyph-name="Umacron" unicode="&#x16a;" horiz-adv-x="532" 
d="M236 -12c-113 0 -204 76 -204 193c0 11 1 26 4 40l98 446h177l-102 -463c-1 -6 -3 -15 -3 -21c0 -25 18 -41 43 -41c27 0 46 17 56 62l102 463h177l-101 -453c-34 -158 -137 -226 -247 -226zM506 722h-267l18 87h268z" />
    <glyph glyph-name="Uogonek" unicode="&#x172;" horiz-adv-x="532" 
d="M282 -102l51 -37c-24 -34 -51 -47 -81 -47c-47 0 -85 22 -85 71c0 25 7 62 47 104c-103 9 -182 82 -182 192c0 11 1 26 4 40l98 446h177l-102 -463c-1 -6 -3 -15 -3 -21c0 -25 18 -41 43 -41c27 0 46 17 56 62l102 463h177l-101 -453c-26 -120 -92 -188 -170 -214
c-42 -28 -73 -68 -73 -107c0 -11 6 -17 17 -17c10 0 19 8 25 22z" />
    <glyph glyph-name="Uring" unicode="&#x16e;" horiz-adv-x="532" 
d="M375 687c-49 0 -84 36 -84 85c0 57 49 107 106 107c50 0 84 -36 84 -85c0 -57 -49 -107 -106 -107zM384 751c18 0 35 17 35 36c0 17 -11 29 -28 29c-19 0 -35 -17 -35 -36c0 -17 11 -29 28 -29zM236 -12c-113 0 -204 76 -204 193c0 11 1 26 4 40l98 446h177l-102 -463
c-1 -6 -3 -15 -3 -21c0 -25 18 -41 43 -41c27 0 46 17 56 62l102 463h177l-101 -453c-34 -158 -137 -226 -247 -226z" />
    <glyph glyph-name="Utilde" unicode="&#x168;" horiz-adv-x="532" 
d="M236 -12c-113 0 -204 76 -204 193c0 11 1 26 4 40l98 446h177l-102 -463c-1 -6 -3 -15 -3 -21c0 -25 18 -41 43 -41c27 0 46 17 56 62l102 463h177l-101 -453c-34 -158 -137 -226 -247 -226zM428 721c-60 0 -51 53 -86 53c-15 0 -24 -15 -31 -47h-80
c18 80 56 134 116 134c59 0 52 -54 87 -54c15 0 23 15 31 48h80c-18 -80 -57 -134 -117 -134z" />
    <glyph glyph-name="uni1EE4" unicode="&#x1ee4;" horiz-adv-x="532" 
d="M236 -12c-113 0 -204 76 -204 193c0 11 1 26 4 40l98 446h177l-102 -463c-1 -6 -3 -15 -3 -21c0 -25 18 -41 43 -41c27 0 46 17 56 62l102 463h177l-101 -453c-34 -158 -137 -226 -247 -226zM266 -114c0 -47 -44 -89 -91 -89c-41 0 -71 31 -71 71c0 47 44 89 91 89
c40 0 71 -30 71 -71z" />
    <glyph glyph-name="Uhorn" unicode="&#x1af;" horiz-adv-x="532" 
d="M696 742c0 -57 -49 -130 -131 -161l-82 -367c-34 -158 -137 -226 -247 -226c-113 0 -204 76 -204 193c0 11 1 26 4 40l98 446h177l-102 -463c-1 -6 -3 -15 -3 -21c0 -25 18 -41 43 -41c27 0 46 17 56 62l102 463h177l-5 -23c17 12 33 27 41 43c-1 -1 -5 -1 -7 -1
c-26 0 -49 17 -49 52c0 37 34 68 70 68c32 0 62 -22 62 -64z" />
    <glyph glyph-name="uni1EE6" unicode="&#x1ee6;" horiz-adv-x="532" 
d="M236 -12c-113 0 -204 76 -204 193c0 11 1 26 4 40l98 446h177l-102 -463c-1 -6 -3 -15 -3 -21c0 -25 18 -41 43 -41c27 0 46 17 56 62l102 463h177l-101 -453c-34 -158 -137 -226 -247 -226zM362 754l-50 13c13 32 35 53 72 53c38 0 64 -18 64 -58c0 -25 -14 -52 -24 -65
h-58c13 16 22 34 25 50c3 15 -1 24 -12 24c-7 0 -13 -6 -17 -17z" />
    <glyph glyph-name="uni1EE8" unicode="&#x1ee8;" horiz-adv-x="532" 
d="M561 867l-144 -144h-99l112 144h131zM696 742c0 -57 -49 -130 -131 -161l-82 -367c-34 -158 -137 -226 -247 -226c-113 0 -204 76 -204 193c0 11 1 26 4 40l98 446h177l-102 -463c-1 -6 -3 -15 -3 -21c0 -25 18 -41 43 -41c27 0 46 17 56 62l102 463h177l-5 -23
c17 12 33 27 41 43c-1 -1 -5 -1 -7 -1c-26 0 -49 17 -49 52c0 37 34 68 70 68c32 0 62 -22 62 -64z" />
    <glyph glyph-name="uni1EEA" unicode="&#x1eea;" horiz-adv-x="532" 
d="M424 723h-97l-80 144h129zM696 742c0 -57 -49 -130 -131 -161l-82 -367c-34 -158 -137 -226 -247 -226c-113 0 -204 76 -204 193c0 11 1 26 4 40l98 446h177l-102 -463c-1 -6 -3 -15 -3 -21c0 -25 18 -41 43 -41c27 0 46 17 56 62l102 463h177l-5 -23c17 12 33 27 41 43
c-1 -1 -5 -1 -7 -1c-26 0 -49 17 -49 52c0 37 34 68 70 68c32 0 62 -22 62 -64z" />
    <glyph glyph-name="uni1EEC" unicode="&#x1eec;" horiz-adv-x="532" 
d="M362 754l-50 13c13 32 35 53 72 53c38 0 64 -18 64 -58c0 -25 -14 -52 -24 -65h-58c13 16 22 34 25 50c3 15 -1 24 -12 24c-7 0 -13 -6 -17 -17zM696 742c0 -57 -49 -130 -131 -161l-82 -367c-34 -158 -137 -226 -247 -226c-113 0 -204 76 -204 193c0 11 1 26 4 40
l98 446h177l-102 -463c-1 -6 -3 -15 -3 -21c0 -25 18 -41 43 -41c27 0 46 17 56 62l102 463h177l-5 -23c17 12 33 27 41 43c-1 -1 -5 -1 -7 -1c-26 0 -49 17 -49 52c0 37 34 68 70 68c32 0 62 -22 62 -64z" />
    <glyph glyph-name="uni1EEE" unicode="&#x1eee;" horiz-adv-x="532" 
d="M696 742c0 -57 -49 -130 -131 -161l-82 -367c-34 -158 -137 -226 -247 -226c-113 0 -204 76 -204 193c0 11 1 26 4 40l98 446h177l-102 -463c-1 -6 -3 -15 -3 -21c0 -25 18 -41 43 -41c27 0 46 17 56 62l102 463h177l-5 -23c17 12 33 27 41 43c-1 -1 -5 -1 -7 -1
c-26 0 -49 17 -49 52c0 37 34 68 70 68c32 0 62 -22 62 -64zM428 721c-60 0 -51 53 -86 53c-15 0 -24 -15 -31 -47h-80c18 80 56 134 116 134c59 0 52 -54 87 -54c15 0 23 15 31 48h80c-18 -80 -57 -134 -117 -134z" />
    <glyph glyph-name="uni1EF0" unicode="&#x1ef0;" horiz-adv-x="532" 
d="M266 -114c0 -47 -44 -89 -91 -89c-41 0 -71 31 -71 71c0 47 44 89 91 89c40 0 71 -30 71 -71zM696 742c0 -57 -49 -130 -131 -161l-82 -367c-34 -158 -137 -226 -247 -226c-113 0 -204 76 -204 193c0 11 1 26 4 40l98 446h177l-102 -463c-1 -6 -3 -15 -3 -21
c0 -25 18 -41 43 -41c27 0 46 17 56 62l102 463h177l-5 -23c17 12 33 27 41 43c-1 -1 -5 -1 -7 -1c-26 0 -49 17 -49 52c0 37 34 68 70 68c32 0 62 -22 62 -64z" />
    <glyph glyph-name="Wacute" unicode="&#x1e82;" horiz-adv-x="684" 
d="M633 867l-144 -144h-99l112 144h131zM504 0h-176l36 346l-117 -346h-175l25 667h176l-40 -362l132 362h134l-26 -362l119 362h181z" />
    <glyph glyph-name="Wcircumflex" unicode="&#x174;" horiz-adv-x="684" 
d="M575 723h-82l-30 79l-62 -79h-86l91 144h138zM504 0h-176l36 346l-117 -346h-175l25 667h176l-40 -362l132 362h134l-26 -362l119 362h181z" />
    <glyph glyph-name="Wdieresis" unicode="&#x1e84;" horiz-adv-x="684" 
d="M630 791c0 -47 -44 -89 -91 -89c-40 0 -70 31 -70 71c0 47 43 89 90 89c40 0 71 -31 71 -71zM445 791c0 -47 -44 -89 -90 -89c-41 0 -71 31 -71 71c0 47 43 89 90 89c40 0 71 -31 71 -71zM504 0h-176l36 346l-117 -346h-175l25 667h176l-40 -362l132 362h134l-26 -362
l119 362h181z" />
    <glyph glyph-name="Wgrave" unicode="&#x1e80;" horiz-adv-x="684" 
d="M504 0h-176l36 346l-117 -346h-175l25 667h176l-40 -362l132 362h134l-26 -362l119 362h181zM496 723h-97l-80 144h129z" />
    <glyph glyph-name="Yacute" unicode="&#xdd;" horiz-adv-x="489" 
d="M279 0h-177l59 269l-75 398h179l14 -232l117 232h193l-252 -398zM539 867l-144 -144h-99l112 144h131z" />
    <glyph glyph-name="Ycircumflex" unicode="&#x176;" horiz-adv-x="489" 
d="M480 723h-82l-30 79l-62 -79h-86l91 144h138zM279 0h-177l59 269l-75 398h179l14 -232l117 232h193l-252 -398z" />
    <glyph glyph-name="Ydieresis" unicode="&#x178;" horiz-adv-x="489" 
d="M536 791c0 -47 -44 -89 -91 -89c-40 0 -70 31 -70 71c0 47 43 89 90 89c40 0 71 -31 71 -71zM351 791c0 -47 -44 -89 -90 -89c-41 0 -71 31 -71 71c0 47 43 89 90 89c40 0 71 -31 71 -71zM279 0h-177l59 269l-75 398h179l14 -232l117 232h193l-252 -398z" />
    <glyph glyph-name="Ygrave" unicode="&#x1ef2;" horiz-adv-x="489" 
d="M279 0h-177l59 269l-75 398h179l14 -232l117 232h193l-252 -398zM402 723h-97l-80 144h129z" />
    <glyph glyph-name="Zacute" unicode="&#x179;" horiz-adv-x="412" 
d="M497 867l-144 -144h-99l112 144h131zM332 0h-360l32 147l225 366h-144l34 154h353l-31 -141l-230 -372h155z" />
    <glyph glyph-name="Zcaron" unicode="&#x17d;" horiz-adv-x="412" 
d="M379 723h-138l-30 144h82l30 -79l62 79h86zM332 0h-360l32 147l225 366h-144l34 154h353l-31 -141l-230 -372h155z" />
    <glyph glyph-name="Zdotaccent" unicode="&#x17b;" horiz-adv-x="412" 
d="M332 0h-360l32 147l225 366h-144l34 154h353l-31 -141l-230 -372h155zM403 792c0 -47 -44 -89 -91 -89c-41 0 -71 31 -71 71c0 47 44 89 91 89c40 0 71 -30 71 -71z" />
    <glyph glyph-name="Eth" unicode="&#xd0;" horiz-adv-x="550" 
d="M220 0h-207l58 264h-56l31 139h55l59 264h201c103 0 199 -84 199 -234c0 -159 -77 -433 -340 -433zM304 264h-56l-24 -110h27c92 0 130 197 130 276c0 58 -24 83 -52 83h-26l-25 -110h56z" />
    <glyph glyph-name="Thorn" unicode="&#xde;" horiz-adv-x="496" 
d="M164 0h-177l147 667h177l-22 -101h30c108 0 187 -77 187 -187c0 -126 -81 -258 -270 -258h-46zM248 275c42 0 75 37 75 85c0 35 -21 52 -45 52h-23l-30 -137h23z" />
    <glyph glyph-name="aacute" unicode="&#xe1;" horiz-adv-x="461" 
d="M207 495c51 0 87 -19 103 -67l13 55h156l-107 -483h-157l12 53c-32 -47 -67 -65 -104 -65c-76 0 -117 54 -117 165c0 132 64 342 201 342zM247 356c-57 0 -79 -128 -79 -179c0 -32 14 -50 40 -50c17 0 33 14 43 33l36 162c-5 22 -20 34 -40 34zM486 700l-144 -144h-99
l112 144h131z" />
    <glyph glyph-name="abreve" unicode="&#x103;" horiz-adv-x="461" 
d="M207 495c51 0 87 -19 103 -67l13 55h156l-107 -483h-157l12 53c-32 -47 -67 -65 -104 -65c-76 0 -117 54 -117 165c0 132 64 342 201 342zM247 356c-57 0 -79 -128 -79 -179c0 -32 14 -50 40 -50c17 0 33 14 43 33l36 162c-5 22 -20 34 -40 34zM435 603
c-38 -41 -90 -65 -143 -65c-52 0 -94 24 -115 65l78 52c9 -19 28 -31 52 -31s49 12 66 31z" />
    <glyph glyph-name="acircumflex" unicode="&#xe2;" horiz-adv-x="461" 
d="M207 495c51 0 87 -19 103 -67l13 55h156l-107 -483h-157l12 53c-32 -47 -67 -65 -104 -65c-76 0 -117 54 -117 165c0 132 64 342 201 342zM247 356c-57 0 -79 -128 -79 -179c0 -32 14 -50 40 -50c17 0 33 14 43 33l36 162c-5 22 -20 34 -40 34zM426 556h-82l-30 79
l-62 -79h-86l91 144h138z" />
    <glyph glyph-name="adieresis" unicode="&#xe4;" horiz-adv-x="461" 
d="M207 495c51 0 87 -19 103 -67l13 55h156l-107 -483h-157l12 53c-32 -47 -67 -65 -104 -65c-76 0 -117 54 -117 165c0 132 64 342 201 342zM247 356c-57 0 -79 -128 -79 -179c0 -32 14 -50 40 -50c17 0 33 14 43 33l36 162c-5 22 -20 34 -40 34zM483 624
c0 -47 -44 -89 -91 -89c-40 0 -70 31 -70 71c0 47 43 89 90 89c40 0 71 -31 71 -71zM298 624c0 -47 -44 -89 -90 -89c-41 0 -71 31 -71 71c0 47 43 89 90 89c40 0 71 -31 71 -71z" />
    <glyph glyph-name="agrave" unicode="&#xe0;" horiz-adv-x="461" 
d="M207 495c51 0 87 -19 103 -67l13 55h156l-107 -483h-157l12 53c-32 -47 -67 -65 -104 -65c-76 0 -117 54 -117 165c0 132 64 342 201 342zM247 356c-57 0 -79 -128 -79 -179c0 -32 14 -50 40 -50c17 0 33 14 43 33l36 162c-5 22 -20 34 -40 34zM347 556h-97l-80 144h129z
" />
    <glyph glyph-name="amacron" unicode="&#x101;" horiz-adv-x="461" 
d="M207 495c51 0 87 -19 103 -67l13 55h156l-107 -483h-157l12 53c-32 -47 -67 -65 -104 -65c-76 0 -117 54 -117 165c0 132 64 342 201 342zM247 356c-57 0 -79 -128 -79 -179c0 -32 14 -50 40 -50c17 0 33 14 43 33l36 162c-5 22 -20 34 -40 34zM429 555h-267l18 87h268z
" />
    <glyph glyph-name="aogonek" unicode="&#x105;" horiz-adv-x="461" 
d="M341 -102l51 -37c-24 -34 -51 -47 -81 -47c-47 0 -85 22 -85 71c0 27 8 68 57 115h-68l12 53c-32 -47 -67 -65 -104 -65c-76 0 -117 54 -117 165c0 132 64 342 201 342c51 0 87 -19 103 -67l13 55h156l-107 -483c-42 -28 -73 -68 -73 -107c0 -11 6 -17 17 -17
c10 0 19 8 25 22zM247 356c-57 0 -79 -128 -79 -179c0 -32 14 -50 40 -50c17 0 33 14 43 33l36 162c-5 22 -20 34 -40 34z" />
    <glyph glyph-name="aring" unicode="&#xe5;" horiz-adv-x="461" 
d="M207 495c51 0 87 -19 103 -67l13 55h156l-107 -483h-157l12 53c-32 -47 -67 -65 -104 -65c-76 0 -117 54 -117 165c0 132 64 342 201 342zM247 356c-57 0 -79 -128 -79 -179c0 -32 14 -50 40 -50c17 0 33 14 43 33l36 162c-5 22 -20 34 -40 34zM299 520
c-49 0 -84 36 -84 85c0 57 49 107 106 107c50 0 84 -36 84 -85c0 -57 -49 -107 -106 -107zM308 584c18 0 35 17 35 36c0 17 -11 29 -28 29c-19 0 -35 -17 -35 -36c0 -17 11 -29 28 -29z" />
    <glyph glyph-name="atilde" unicode="&#xe3;" horiz-adv-x="461" 
d="M207 495c51 0 87 -19 103 -67l13 55h156l-107 -483h-157l12 53c-32 -47 -67 -65 -104 -65c-76 0 -117 54 -117 165c0 132 64 342 201 342zM247 356c-57 0 -79 -128 -79 -179c0 -32 14 -50 40 -50c17 0 33 14 43 33l36 162c-5 22 -20 34 -40 34zM351 554
c-60 0 -51 53 -86 53c-15 0 -24 -15 -31 -47h-80c18 80 56 134 116 134c59 0 52 -54 87 -54c15 0 23 15 31 48h80c-18 -80 -57 -134 -117 -134z" />
    <glyph glyph-name="uni1EA1" unicode="&#x1ea1;" horiz-adv-x="461" 
d="M207 495c51 0 87 -19 103 -67l13 55h156l-107 -483h-157l12 53c-32 -47 -67 -65 -104 -65c-76 0 -117 54 -117 165c0 132 64 342 201 342zM247 356c-57 0 -79 -128 -79 -179c0 -32 14 -50 40 -50c17 0 33 14 43 33l36 162c-5 22 -20 34 -40 34zM228 -114
c0 -47 -44 -89 -91 -89c-41 0 -71 31 -71 71c0 47 44 89 91 89c40 0 71 -30 71 -71z" />
    <glyph glyph-name="uni1EA3" unicode="&#x1ea3;" horiz-adv-x="461" 
d="M207 495c51 0 87 -19 103 -67l13 55h156l-107 -483h-157l12 53c-32 -47 -67 -65 -104 -65c-76 0 -117 54 -117 165c0 132 64 342 201 342zM247 356c-57 0 -79 -128 -79 -179c0 -32 14 -50 40 -50c17 0 33 14 43 33l36 162c-5 22 -20 34 -40 34zM288 584l-50 13
c13 32 35 53 72 53c38 0 64 -18 64 -58c0 -25 -14 -52 -24 -65h-58c13 16 22 34 25 50c3 15 -1 24 -12 24c-7 0 -13 -6 -17 -17z" />
    <glyph glyph-name="uni1EA5" unicode="&#x1ea5;" horiz-adv-x="461" 
d="M207 495c51 0 87 -19 103 -67l13 55h156l-107 -483h-157l12 53c-32 -47 -67 -65 -104 -65c-76 0 -117 54 -117 165c0 132 64 342 201 342zM247 356c-57 0 -79 -128 -79 -179c0 -32 14 -50 40 -50c17 0 33 14 43 33l36 162c-5 22 -20 34 -40 34zM426 556h-82l-30 79
l-62 -79h-86l91 144h138zM659 770l-144 -144h-99l112 144h131z" />
    <glyph glyph-name="uni1EAD" unicode="&#x1ead;" horiz-adv-x="461" 
d="M207 495c51 0 87 -19 103 -67l13 55h156l-107 -483h-157l12 53c-32 -47 -67 -65 -104 -65c-76 0 -117 54 -117 165c0 132 64 342 201 342zM247 356c-57 0 -79 -128 -79 -179c0 -32 14 -50 40 -50c17 0 33 14 43 33l36 162c-5 22 -20 34 -40 34zM426 556h-82l-30 79
l-62 -79h-86l91 144h138zM228 -114c0 -47 -44 -89 -91 -89c-41 0 -71 31 -71 71c0 47 44 89 91 89c40 0 71 -30 71 -71z" />
    <glyph glyph-name="uni1EA7" unicode="&#x1ea7;" horiz-adv-x="461" 
d="M207 495c51 0 87 -19 103 -67l13 55h156l-107 -483h-157l12 53c-32 -47 -67 -65 -104 -65c-76 0 -117 54 -117 165c0 132 64 342 201 342zM247 356c-57 0 -79 -128 -79 -179c0 -32 14 -50 40 -50c17 0 33 14 43 33l36 162c-5 22 -20 34 -40 34zM426 556h-82l-30 79
l-62 -79h-86l91 144h138zM204 626h-97l-80 144h129z" />
    <glyph glyph-name="uni1EA9" unicode="&#x1ea9;" horiz-adv-x="461" 
d="M207 495c51 0 87 -19 103 -67l13 55h156l-107 -483h-157l12 53c-32 -47 -67 -65 -104 -65c-76 0 -117 54 -117 165c0 132 64 342 201 342zM247 356c-57 0 -79 -128 -79 -179c0 -32 14 -50 40 -50c17 0 33 14 43 33l36 162c-5 22 -20 34 -40 34zM426 556h-82l-30 79
l-62 -79h-86l91 144h138zM412 724l-50 13c13 32 35 53 72 53c38 0 64 -18 64 -58c0 -25 -14 -52 -24 -65h-58c13 16 22 34 25 50c3 15 -1 24 -12 24c-7 0 -13 -6 -17 -17z" />
    <glyph glyph-name="uni1EAF" unicode="&#x1eaf;" horiz-adv-x="461" 
d="M207 495c51 0 87 -19 103 -67l13 55h156l-107 -483h-157l12 53c-32 -47 -67 -65 -104 -65c-76 0 -117 54 -117 165c0 132 64 342 201 342zM247 356c-57 0 -79 -128 -79 -179c0 -32 14 -50 40 -50c17 0 33 14 43 33l36 162c-5 22 -20 34 -40 34zM500 787l-144 -144h-99
l112 144h131zM429 576c-38 -41 -90 -65 -143 -65c-52 0 -94 24 -115 65l78 52c9 -19 28 -31 52 -31s49 12 66 31z" />
    <glyph glyph-name="uni1EAB" unicode="&#x1eab;" horiz-adv-x="461" 
d="M207 495c51 0 87 -19 103 -67l13 55h156l-107 -483h-157l12 53c-32 -47 -67 -65 -104 -65c-76 0 -117 54 -117 165c0 132 64 342 201 342zM247 356c-57 0 -79 -128 -79 -179c0 -32 14 -50 40 -50c17 0 33 14 43 33l36 162c-5 22 -20 34 -40 34zM419 523h-82l-30 79
l-62 -79h-86l91 144h138zM380 682c-60 0 -51 53 -86 53c-15 0 -24 -15 -31 -47h-80c18 80 56 134 116 134c59 0 52 -54 87 -54c15 0 23 15 31 48h80c-18 -80 -57 -134 -117 -134z" />
    <glyph glyph-name="uni1EB1" unicode="&#x1eb1;" horiz-adv-x="461" 
d="M207 495c51 0 87 -19 103 -67l13 55h156l-107 -483h-157l12 53c-32 -47 -67 -65 -104 -65c-76 0 -117 54 -117 165c0 132 64 342 201 342zM247 356c-57 0 -79 -128 -79 -179c0 -32 14 -50 40 -50c17 0 33 14 43 33l36 162c-5 22 -20 34 -40 34zM368 643h-97l-80 144h129z
M429 576c-38 -41 -90 -65 -143 -65c-52 0 -94 24 -115 65l78 52c9 -19 28 -31 52 -31s49 12 66 31z" />
    <glyph glyph-name="uni1EB3" unicode="&#x1eb3;" horiz-adv-x="461" 
d="M207 495c51 0 87 -19 103 -67l13 55h156l-107 -483h-157l12 53c-32 -47 -67 -65 -104 -65c-76 0 -117 54 -117 165c0 132 64 342 201 342zM247 356c-57 0 -79 -128 -79 -179c0 -32 14 -50 40 -50c17 0 33 14 43 33l36 162c-5 22 -20 34 -40 34zM312 703l-50 13
c13 32 35 53 72 53c38 0 64 -18 64 -58c0 -25 -14 -52 -24 -65h-58c13 16 22 34 25 50c3 15 -1 24 -12 24c-7 0 -13 -6 -17 -17zM429 576c-38 -41 -90 -65 -143 -65c-52 0 -94 24 -115 65l78 52c9 -19 28 -31 52 -31s49 12 66 31z" />
    <glyph glyph-name="uni1EB5" unicode="&#x1eb5;" horiz-adv-x="461" 
d="M207 495c51 0 87 -19 103 -67l13 55h156l-107 -483h-157l12 53c-32 -47 -67 -65 -104 -65c-76 0 -117 54 -117 165c0 132 64 342 201 342zM247 356c-57 0 -79 -128 -79 -179c0 -32 14 -50 40 -50c17 0 33 14 43 33l36 162c-5 22 -20 34 -40 34zM429 576
c-38 -41 -90 -65 -143 -65c-52 0 -94 24 -115 65l78 52c9 -19 28 -31 52 -31s49 12 66 31zM372 647c-60 0 -51 53 -86 53c-15 0 -24 -15 -31 -47h-80c18 80 56 134 116 134c59 0 52 -54 87 -54c15 0 23 15 31 48h80c-18 -80 -57 -134 -117 -134z" />
    <glyph glyph-name="uni1EB7" unicode="&#x1eb7;" horiz-adv-x="461" 
d="M207 495c51 0 87 -19 103 -67l13 55h156l-107 -483h-157l12 53c-32 -47 -67 -65 -104 -65c-76 0 -117 54 -117 165c0 132 64 342 201 342zM247 356c-57 0 -79 -128 -79 -179c0 -32 14 -50 40 -50c17 0 33 14 43 33l36 162c-5 22 -20 34 -40 34zM226 -114
c0 -47 -44 -89 -91 -89c-41 0 -71 31 -71 71c0 47 44 89 91 89c40 0 71 -30 71 -71zM433 603c-38 -41 -90 -65 -143 -65c-52 0 -94 24 -115 65l78 52c9 -19 28 -31 52 -31s49 12 66 31z" />
    <glyph glyph-name="ae" unicode="&#xe6;" horiz-adv-x="698" 
d="M247 356c-57 0 -79 -128 -79 -179c0 -32 14 -50 40 -50c17 0 33 14 43 33l36 162c-5 22 -20 34 -40 34zM386 63l-14 -63h-157l12 53c-32 -47 -67 -65 -104 -65c-76 0 -117 54 -117 165c0 132 64 342 201 342c51 0 87 -19 103 -67l13 55h156l-8 -41c20 24 59 54 101 53
c82 -2 118 -56 118 -167c0 -48 -9 -101 -20 -139h-253c-1 -4 -2 -9 -2 -14c0 -19 18 -57 82 -57c30 0 57 13 79 31l48 -110c-35 -34 -82 -51 -125 -51c-70 0 -99 34 -113 75zM439 297h109c1 9 2 18 2 25c0 30 -21 47 -45 47c-43 0 -61 -41 -66 -72z" />
    <glyph glyph-name="aeacute" unicode="&#x1fd;" horiz-adv-x="698" 
d="M605 700l-144 -144h-99l112 144h131zM247 356c-57 0 -79 -128 -79 -179c0 -32 14 -50 40 -50c17 0 33 14 43 33l36 162c-5 22 -20 34 -40 34zM386 63l-14 -63h-157l12 53c-32 -47 -67 -65 -104 -65c-76 0 -117 54 -117 165c0 132 64 342 201 342c51 0 87 -19 103 -67
l13 55h156l-8 -41c20 24 59 54 101 53c82 -2 118 -56 118 -167c0 -48 -9 -101 -20 -139h-253c-1 -4 -2 -9 -2 -14c0 -19 18 -57 82 -57c30 0 57 13 79 31l48 -110c-35 -34 -82 -51 -125 -51c-70 0 -99 34 -113 75zM439 297h109c1 9 2 18 2 25c0 30 -21 47 -45 47
c-43 0 -61 -41 -66 -72z" />
    <glyph glyph-name="aacute.alt1" horiz-adv-x="453" 
d="M489 700l-144 -144h-99l112 144h131zM377 0h-157l10 46c-24 -34 -67 -58 -111 -58c-66 0 -119 48 -119 127c0 107 68 188 158 188c44 0 95 -18 116 -56l9 41c2 6 3 16 3 24c0 33 -32 53 -70 53c-31 0 -65 -7 -102 -34l-31 113c47 38 118 51 175 51
c105 0 193 -46 193 -139c0 -10 -1 -25 -5 -44zM200 91c20 0 38 12 47 31l10 45c-8 22 -26 33 -48 33c-34 0 -50 -36 -50 -68c0 -26 17 -41 41 -41z" />
    <glyph glyph-name="abreve.alt1" horiz-adv-x="453" 
d="M377 0h-157l10 46c-24 -34 -67 -58 -111 -58c-66 0 -119 48 -119 127c0 107 68 188 158 188c44 0 95 -18 116 -56l9 41c2 6 3 16 3 24c0 33 -32 53 -70 53c-31 0 -65 -7 -102 -34l-31 113c47 38 118 51 175 51c105 0 193 -46 193 -139c0 -10 -1 -25 -5 -44zM200 91
c20 0 38 12 47 31l10 45c-8 22 -26 33 -48 33c-34 0 -50 -36 -50 -68c0 -26 17 -41 41 -41zM437 603c-38 -41 -90 -65 -143 -65c-52 0 -94 24 -115 65l78 52c9 -19 28 -31 52 -31s49 12 66 31z" />
    <glyph glyph-name="acircumflex.alt1" horiz-adv-x="453" 
d="M429 556h-82l-30 79l-62 -79h-86l91 144h138zM377 0h-157l10 46c-24 -34 -67 -58 -111 -58c-66 0 -119 48 -119 127c0 107 68 188 158 188c44 0 95 -18 116 -56l9 41c2 6 3 16 3 24c0 33 -32 53 -70 53c-31 0 -65 -7 -102 -34l-31 113c47 38 118 51 175 51
c105 0 193 -46 193 -139c0 -10 -1 -25 -5 -44zM200 91c20 0 38 12 47 31l10 45c-8 22 -26 33 -48 33c-34 0 -50 -36 -50 -68c0 -26 17 -41 41 -41z" />
    <glyph glyph-name="adieresis.alt1" horiz-adv-x="453" 
d="M485 624c0 -47 -44 -89 -91 -89c-40 0 -70 31 -70 71c0 47 43 89 90 89c40 0 71 -31 71 -71zM300 624c0 -47 -44 -89 -90 -89c-41 0 -71 31 -71 71c0 47 43 89 90 89c40 0 71 -31 71 -71zM377 0h-157l10 46c-24 -34 -67 -58 -111 -58c-66 0 -119 48 -119 127
c0 107 68 188 158 188c44 0 95 -18 116 -56l9 41c2 6 3 16 3 24c0 33 -32 53 -70 53c-31 0 -65 -7 -102 -34l-31 113c47 38 118 51 175 51c105 0 193 -46 193 -139c0 -10 -1 -25 -5 -44zM200 91c20 0 38 12 47 31l10 45c-8 22 -26 33 -48 33c-34 0 -50 -36 -50 -68
c0 -26 17 -41 41 -41z" />
    <glyph glyph-name="agrave.alt1" horiz-adv-x="453" 
d="M377 0h-157l10 46c-24 -34 -67 -58 -111 -58c-66 0 -119 48 -119 127c0 107 68 188 158 188c44 0 95 -18 116 -56l9 41c2 6 3 16 3 24c0 33 -32 53 -70 53c-31 0 -65 -7 -102 -34l-31 113c47 38 118 51 175 51c105 0 193 -46 193 -139c0 -10 -1 -25 -5 -44zM200 91
c20 0 38 12 47 31l10 45c-8 22 -26 33 -48 33c-34 0 -50 -36 -50 -68c0 -26 17 -41 41 -41zM350 556h-97l-80 144h129z" />
    <glyph glyph-name="amacron.alt1" horiz-adv-x="453" 
d="M433 555h-267l18 87h268zM377 0h-157l10 46c-24 -34 -67 -58 -111 -58c-66 0 -119 48 -119 127c0 107 68 188 158 188c44 0 95 -18 116 -56l9 41c2 6 3 16 3 24c0 33 -32 53 -70 53c-31 0 -65 -7 -102 -34l-31 113c47 38 118 51 175 51c105 0 193 -46 193 -139
c0 -10 -1 -25 -5 -44zM200 91c20 0 38 12 47 31l10 45c-8 22 -26 33 -48 33c-34 0 -50 -36 -50 -68c0 -26 17 -41 41 -41z" />
    <glyph glyph-name="aogonek.alt1" horiz-adv-x="453" 
d="M377 0c-42 -28 -73 -68 -73 -107c0 -11 6 -17 17 -17c10 0 19 8 25 22l51 -37c-24 -34 -51 -47 -81 -47c-47 0 -85 22 -85 71c0 27 8 68 57 115h-68l10 46c-24 -34 -67 -58 -111 -58c-66 0 -119 48 -119 127c0 107 68 188 158 188c44 0 95 -18 116 -56l9 41
c2 6 3 16 3 24c0 33 -32 53 -70 53c-31 0 -65 -7 -102 -34l-31 113c47 38 118 51 175 51c105 0 193 -46 193 -139c0 -10 -1 -25 -5 -44zM200 91c20 0 38 12 47 31l10 45c-8 22 -26 33 -48 33c-34 0 -50 -36 -50 -68c0 -26 17 -41 41 -41z" />
    <glyph glyph-name="aring.alt1" horiz-adv-x="453" 
d="M303 527c-49 0 -84 36 -84 85c0 57 49 107 106 107c50 0 84 -36 84 -85c0 -57 -49 -107 -106 -107zM312 591c18 0 35 17 35 36c0 17 -11 29 -28 29c-19 0 -35 -17 -35 -36c0 -17 11 -29 28 -29zM377 0h-157l10 46c-24 -34 -67 -58 -111 -58c-66 0 -119 48 -119 127
c0 107 68 188 158 188c44 0 95 -18 116 -56l9 41c2 6 3 16 3 24c0 33 -32 53 -70 53c-31 0 -65 -7 -102 -34l-31 113c47 38 118 51 175 51c105 0 193 -46 193 -139c0 -10 -1 -25 -5 -44zM200 91c20 0 38 12 47 31l10 45c-8 22 -26 33 -48 33c-34 0 -50 -36 -50 -68
c0 -26 17 -41 41 -41z" />
    <glyph glyph-name="atilde.alt1" horiz-adv-x="453" 
d="M377 0h-157l10 46c-24 -34 -67 -58 -111 -58c-66 0 -119 48 -119 127c0 107 68 188 158 188c44 0 95 -18 116 -56l9 41c2 6 3 16 3 24c0 33 -32 53 -70 53c-31 0 -65 -7 -102 -34l-31 113c47 38 118 51 175 51c105 0 193 -46 193 -139c0 -10 -1 -25 -5 -44zM200 91
c20 0 38 12 47 31l10 45c-8 22 -26 33 -48 33c-34 0 -50 -36 -50 -68c0 -26 17 -41 41 -41zM354 554c-60 0 -51 53 -86 53c-15 0 -24 -15 -31 -47h-80c18 80 56 134 116 134c59 0 52 -54 87 -54c15 0 23 15 31 48h80c-18 -80 -57 -134 -117 -134z" />
    <glyph glyph-name="uni1EA1.alt1" horiz-adv-x="453" 
d="M377 0h-157l10 46c-24 -34 -67 -58 -111 -58c-66 0 -119 48 -119 127c0 107 68 188 158 188c44 0 95 -18 116 -56l9 41c2 6 3 16 3 24c0 33 -32 53 -70 53c-31 0 -65 -7 -102 -34l-31 113c47 38 118 51 175 51c105 0 193 -46 193 -139c0 -10 -1 -25 -5 -44zM200 91
c20 0 38 12 47 31l10 45c-8 22 -26 33 -48 33c-34 0 -50 -36 -50 -68c0 -26 17 -41 41 -41zM230 -114c0 -47 -44 -89 -91 -89c-41 0 -71 31 -71 71c0 47 44 89 91 89c40 0 71 -30 71 -71z" />
    <glyph glyph-name="uni1EA3.alt1" horiz-adv-x="453" 
d="M377 0h-157l10 46c-24 -34 -67 -58 -111 -58c-66 0 -119 48 -119 127c0 107 68 188 158 188c44 0 95 -18 116 -56l9 41c2 6 3 16 3 24c0 33 -32 53 -70 53c-31 0 -65 -7 -102 -34l-31 113c47 38 118 51 175 51c105 0 193 -46 193 -139c0 -10 -1 -25 -5 -44zM200 91
c20 0 38 12 47 31l10 45c-8 22 -26 33 -48 33c-34 0 -50 -36 -50 -68c0 -26 17 -41 41 -41zM288 584l-50 13c13 32 35 53 72 53c38 0 64 -18 64 -58c0 -25 -14 -52 -24 -65h-58c13 16 22 34 25 50c3 15 -1 24 -12 24c-7 0 -13 -6 -17 -17z" />
    <glyph glyph-name="uni1EA5.alt1" horiz-adv-x="453" 
d="M429 556h-82l-30 79l-62 -79h-86l91 144h138zM661 770l-144 -144h-99l112 144h131zM377 0h-157l10 46c-24 -34 -67 -58 -111 -58c-66 0 -119 48 -119 127c0 107 68 188 158 188c44 0 95 -18 116 -56l9 41c2 6 3 16 3 24c0 33 -32 53 -70 53c-31 0 -65 -7 -102 -34
l-31 113c47 38 118 51 175 51c105 0 193 -46 193 -139c0 -10 -1 -25 -5 -44zM200 91c20 0 38 12 47 31l10 45c-8 22 -26 33 -48 33c-34 0 -50 -36 -50 -68c0 -26 17 -41 41 -41z" />
    <glyph glyph-name="uni1EAD.alt1" horiz-adv-x="453" 
d="M428 556h-82l-30 79l-62 -79h-86l91 144h138zM377 0h-157l10 46c-24 -34 -67 -58 -111 -58c-66 0 -119 48 -119 127c0 107 68 188 158 188c44 0 95 -18 116 -56l9 41c2 6 3 16 3 24c0 33 -32 53 -70 53c-31 0 -65 -7 -102 -34l-31 113c47 38 118 51 175 51
c105 0 193 -46 193 -139c0 -10 -1 -25 -5 -44zM200 91c20 0 38 12 47 31l10 45c-8 22 -26 33 -48 33c-34 0 -50 -36 -50 -68c0 -26 17 -41 41 -41zM230 -114c0 -47 -44 -89 -91 -89c-41 0 -71 31 -71 71c0 47 44 89 91 89c40 0 71 -30 71 -71z" />
    <glyph glyph-name="uni1EA7.alt1" horiz-adv-x="453" 
d="M428 556h-82l-30 79l-62 -79h-86l91 144h138zM377 0h-157l10 46c-24 -34 -67 -58 -111 -58c-66 0 -119 48 -119 127c0 107 68 188 158 188c44 0 95 -18 116 -56l9 41c2 6 3 16 3 24c0 33 -32 53 -70 53c-31 0 -65 -7 -102 -34l-31 113c47 38 118 51 175 51
c105 0 193 -46 193 -139c0 -10 -1 -25 -5 -44zM200 91c20 0 38 12 47 31l10 45c-8 22 -26 33 -48 33c-34 0 -50 -36 -50 -68c0 -26 17 -41 41 -41zM206 626h-97l-80 144h129z" />
    <glyph glyph-name="uni1EA9.alt1" horiz-adv-x="453" 
d="M429 556h-82l-30 79l-62 -79h-86l91 144h138zM377 0h-157l10 46c-24 -34 -67 -58 -111 -58c-66 0 -119 48 -119 127c0 107 68 188 158 188c44 0 95 -18 116 -56l9 41c2 6 3 16 3 24c0 33 -32 53 -70 53c-31 0 -65 -7 -102 -34l-31 113c47 38 118 51 175 51
c105 0 193 -46 193 -139c0 -10 -1 -25 -5 -44zM200 91c20 0 38 12 47 31l10 45c-8 22 -26 33 -48 33c-34 0 -50 -36 -50 -68c0 -26 17 -41 41 -41zM415 724l-50 13c13 32 35 53 72 53c38 0 64 -18 64 -58c0 -25 -14 -52 -24 -65h-58c13 16 22 34 25 50c3 15 -1 24 -12 24
c-7 0 -13 -6 -17 -17z" />
    <glyph glyph-name="uni1EAF.alt1" horiz-adv-x="453" 
d="M503 787l-144 -144h-99l112 144h131zM377 0h-157l10 46c-24 -34 -67 -58 -111 -58c-66 0 -119 48 -119 127c0 107 68 188 158 188c44 0 95 -18 116 -56l9 41c2 6 3 16 3 24c0 33 -32 53 -70 53c-31 0 -65 -7 -102 -34l-31 113c47 38 118 51 175 51
c105 0 193 -46 193 -139c0 -10 -1 -25 -5 -44zM200 91c20 0 38 12 47 31l10 45c-8 22 -26 33 -48 33c-34 0 -50 -36 -50 -68c0 -26 17 -41 41 -41zM431 576c-38 -41 -90 -65 -143 -65c-52 0 -94 24 -115 65l78 52c9 -19 28 -31 52 -31s49 12 66 31z" />
    <glyph glyph-name="uni1EAB.alt1" horiz-adv-x="453" 
d="M420 523h-82l-30 79l-62 -79h-86l91 144h138zM377 0h-157l10 46c-24 -34 -67 -58 -111 -58c-66 0 -119 48 -119 127c0 107 68 188 158 188c44 0 95 -18 116 -56l9 41c2 6 3 16 3 24c0 33 -32 53 -70 53c-31 0 -65 -7 -102 -34l-31 113c47 38 118 51 175 51
c105 0 193 -46 193 -139c0 -10 -1 -25 -5 -44zM200 91c20 0 38 12 47 31l10 45c-8 22 -26 33 -48 33c-34 0 -50 -36 -50 -68c0 -26 17 -41 41 -41zM383 682c-60 0 -51 53 -86 53c-15 0 -24 -15 -31 -47h-80c18 80 56 134 116 134c59 0 52 -54 87 -54c15 0 23 15 31 48h80
c-18 -80 -57 -134 -117 -134z" />
    <glyph glyph-name="uni1EB1.alt1" horiz-adv-x="453" 
d="M377 0h-157l10 46c-24 -34 -67 -58 -111 -58c-66 0 -119 48 -119 127c0 107 68 188 158 188c44 0 95 -18 116 -56l9 41c2 6 3 16 3 24c0 33 -32 53 -70 53c-31 0 -65 -7 -102 -34l-31 113c47 38 118 51 175 51c105 0 193 -46 193 -139c0 -10 -1 -25 -5 -44zM200 91
c20 0 38 12 47 31l10 45c-8 22 -26 33 -48 33c-34 0 -50 -36 -50 -68c0 -26 17 -41 41 -41zM372 643h-97l-80 144h129zM431 576c-38 -41 -90 -65 -143 -65c-52 0 -94 24 -115 65l78 52c9 -19 28 -31 52 -31s49 12 66 31z" />
    <glyph glyph-name="uni1EB3.alt1" horiz-adv-x="453" 
d="M377 0h-157l10 46c-24 -34 -67 -58 -111 -58c-66 0 -119 48 -119 127c0 107 68 188 158 188c44 0 95 -18 116 -56l9 41c2 6 3 16 3 24c0 33 -32 53 -70 53c-31 0 -65 -7 -102 -34l-31 113c47 38 118 51 175 51c105 0 193 -46 193 -139c0 -10 -1 -25 -5 -44zM200 91
c20 0 38 12 47 31l10 45c-8 22 -26 33 -48 33c-34 0 -50 -36 -50 -68c0 -26 17 -41 41 -41zM315 703l-50 13c13 32 35 53 72 53c38 0 64 -18 64 -58c0 -25 -14 -52 -24 -65h-58c13 16 22 34 25 50c3 15 -1 24 -12 24c-7 0 -13 -6 -17 -17zM432 576c-38 -41 -90 -65 -143 -65
c-52 0 -94 24 -115 65l78 52c9 -19 28 -31 52 -31s49 12 66 31z" />
    <glyph glyph-name="uni1EB5.alt1" horiz-adv-x="453" 
d="M432 576c-38 -41 -90 -65 -143 -65c-52 0 -94 24 -115 65l78 52c9 -19 28 -31 52 -31s49 12 66 31zM377 0h-157l10 46c-24 -34 -67 -58 -111 -58c-66 0 -119 48 -119 127c0 107 68 188 158 188c44 0 95 -18 116 -56l9 41c2 6 3 16 3 24c0 33 -32 53 -70 53
c-31 0 -65 -7 -102 -34l-31 113c47 38 118 51 175 51c105 0 193 -46 193 -139c0 -10 -1 -25 -5 -44zM200 91c20 0 38 12 47 31l10 45c-8 22 -26 33 -48 33c-34 0 -50 -36 -50 -68c0 -26 17 -41 41 -41zM375 647c-60 0 -51 53 -86 53c-15 0 -24 -15 -31 -47h-80
c18 80 56 134 116 134c59 0 52 -54 87 -54c15 0 23 15 31 48h80c-18 -80 -57 -134 -117 -134z" />
    <glyph glyph-name="uni1EB7.alt1" horiz-adv-x="453" 
d="M377 0h-157l10 46c-24 -34 -67 -58 -111 -58c-66 0 -119 48 -119 127c0 107 68 188 158 188c44 0 95 -18 116 -56l9 41c2 6 3 16 3 24c0 33 -32 53 -70 53c-31 0 -65 -7 -102 -34l-31 113c47 38 118 51 175 51c105 0 193 -46 193 -139c0 -10 -1 -25 -5 -44zM200 91
c20 0 38 12 47 31l10 45c-8 22 -26 33 -48 33c-34 0 -50 -36 -50 -68c0 -26 17 -41 41 -41zM226 -114c0 -47 -44 -89 -91 -89c-41 0 -71 31 -71 71c0 47 44 89 91 89c40 0 71 -30 71 -71zM438 603c-38 -41 -90 -65 -143 -65c-52 0 -94 24 -115 65l78 52c9 -19 28 -31 52 -31
s49 12 66 31z" />
    <glyph glyph-name="ae.alt1" horiz-adv-x="694" 
d="M666 189h-254c-1 -4 -2 -9 -2 -14c0 -28 25 -60 81 -60c26 0 55 11 80 31l49 -99c-49 -41 -104 -59 -162 -59c-60 0 -109 26 -138 69c-40 -42 -93 -69 -161 -69c-101 0 -159 54 -159 138c0 101 66 177 158 177c44 0 91 -18 116 -55l9 40c2 9 3 18 3 22
c0 35 -31 55 -70 55c-31 0 -64 -7 -102 -34l-31 113c51 39 118 51 175 51c67 0 105 -27 125 -61c35 34 87 61 139 61c98 0 163 -57 163 -180c0 -39 -10 -89 -19 -126zM434 297h109c2 7 3 16 3 23c0 30 -19 48 -47 48c-43 0 -59 -39 -65 -71zM254 154l3 13
c-9 24 -27 33 -48 33c-29 0 -52 -27 -52 -53s18 -41 43 -41c27 0 48 21 54 48z" />
    <glyph glyph-name="aeacute.alt1" horiz-adv-x="694" 
d="M666 189h-254c-1 -4 -2 -9 -2 -14c0 -28 25 -60 81 -60c26 0 55 11 80 31l49 -99c-49 -41 -104 -59 -162 -59c-60 0 -109 26 -138 69c-40 -42 -93 -69 -161 -69c-101 0 -159 54 -159 138c0 101 66 177 158 177c44 0 91 -18 116 -55l9 40c2 9 3 18 3 22
c0 35 -31 55 -70 55c-31 0 -64 -7 -102 -34l-31 113c51 39 118 51 175 51c67 0 105 -27 125 -61c35 34 87 61 139 61c98 0 163 -57 163 -180c0 -39 -10 -89 -19 -126zM434 297h109c2 7 3 16 3 23c0 30 -19 48 -47 48c-43 0 -59 -39 -65 -71zM254 154l3 13
c-9 24 -27 33 -48 33c-29 0 -52 -27 -52 -53s18 -41 43 -41c27 0 48 21 54 48zM605 700l-144 -144h-99l112 144h131z" />
    <glyph glyph-name="uni1E03" unicode="&#x1e03;" horiz-adv-x="461" 
d="M254 -12c-52 0 -88 19 -104 67l-11 -55h-157l146 667h158l-53 -237c33 47 68 65 105 65c76 0 116 -54 116 -165c0 -132 -64 -342 -200 -342zM213 127c57 0 79 127 79 179c0 32 -13 50 -40 50c-16 0 -32 -14 -42 -33l-36 -162c5 -23 20 -34 39 -34zM438 792
c0 -47 -44 -89 -91 -89c-41 0 -71 31 -71 71c0 47 44 89 91 89c40 0 71 -30 71 -71z" />
    <glyph glyph-name="cacute" unicode="&#x107;" horiz-adv-x="371" 
d="M493 700l-144 -144h-99l112 144h131zM200 -12c-117 0 -191 70 -191 195c0 157 96 312 249 312c60 0 115 -22 144 -50l-70 -118c-14 21 -37 29 -59 29c-59 0 -103 -76 -103 -152c0 -52 29 -77 71 -77c20 0 40 9 55 22l19 -125c-29 -23 -70 -36 -115 -36z" />
    <glyph glyph-name="ccedilla" unicode="&#xe7;" horiz-adv-x="371" 
d="M145 -198c-44 0 -78 16 -102 41l37 54c15 -19 39 -33 64 -33c21 0 34 13 34 30c0 10 -6 18 -18 18c-10 0 -16 -5 -21 -12l-47 30l40 68c-77 22 -123 86 -123 185c0 157 96 312 249 312c60 0 115 -22 144 -50l-70 -118c-14 21 -37 29 -59 29c-59 0 -103 -76 -103 -152
c0 -52 29 -77 71 -77c20 0 40 9 55 22l19 -125c-29 -23 -70 -36 -115 -36h-2l-24 -37c8 7 15 9 23 9c31 0 55 -23 55 -62c0 -56 -45 -96 -107 -96z" />
    <glyph glyph-name="ccircumflex" unicode="&#x109;" horiz-adv-x="371" 
d="M433 556h-82l-30 79l-62 -79h-86l91 144h138zM200 -12c-117 0 -191 70 -191 195c0 157 96 312 249 312c60 0 115 -22 144 -50l-70 -118c-14 21 -37 29 -59 29c-59 0 -103 -76 -103 -152c0 -52 29 -77 71 -77c20 0 40 9 55 22l19 -125c-29 -23 -70 -36 -115 -36z" />
    <glyph glyph-name="cdotaccent" unicode="&#x10b;" horiz-adv-x="371" 
d="M200 -12c-117 0 -191 70 -191 195c0 157 96 312 249 312c60 0 115 -22 144 -50l-70 -118c-14 21 -37 29 -59 29c-59 0 -103 -76 -103 -152c0 -52 29 -77 71 -77c20 0 40 9 55 22l19 -125c-29 -23 -70 -36 -115 -36zM398 625c0 -47 -44 -89 -91 -89c-41 0 -71 31 -71 71
c0 47 44 89 91 89c40 0 71 -30 71 -71z" />
    <glyph glyph-name="ccaron" unicode="&#x10d;" horiz-adv-x="371" 
d="M373 556h-138l-30 144h82l30 -79l62 79h86zM200 -12c-117 0 -191 70 -191 195c0 157 96 312 249 312c60 0 115 -22 144 -50l-70 -118c-14 21 -37 29 -59 29c-59 0 -103 -76 -103 -152c0 -52 29 -77 71 -77c20 0 40 9 55 22l19 -125c-29 -23 -70 -36 -115 -36z" />
    <glyph glyph-name="dcaron" unicode="&#x10f;" horiz-adv-x="605" 
d="M689 607c0 -65 -54 -136 -126 -171l-41 42c27 12 67 38 82 66c-2 -1 -8 -1 -10 -1c-29 0 -55 20 -55 59c0 42 40 78 81 78c36 0 69 -25 69 -73zM207 495c51 0 87 -19 103 -67l53 239h156l-147 -667h-157l12 53c-32 -47 -67 -65 -104 -65c-76 0 -117 54 -117 165
c0 132 64 342 201 342zM247 356c-57 0 -79 -128 -79 -179c0 -32 14 -50 40 -50c17 0 33 14 43 33l36 162c-5 22 -20 34 -40 34z" />
    <glyph glyph-name="dcroat" unicode="&#x111;" horiz-adv-x="470" 
d="M207 495c51 0 87 -19 103 -67l21 98h-108l21 87h107l12 54h156l-12 -54h45l-22 -87h-42l-116 -526h-157l12 53c-32 -47 -67 -65 -104 -65c-76 0 -117 54 -117 165c0 132 64 342 201 342zM247 356c-57 0 -79 -128 -79 -179c0 -32 14 -50 40 -50c17 0 33 14 43 33l36 162
c-5 22 -20 34 -40 34z" />
    <glyph glyph-name="uni1E0B" unicode="&#x1e0b;" horiz-adv-x="461" 
d="M207 495c51 0 87 -19 103 -67l53 239h156l-147 -667h-157l12 53c-32 -47 -67 -65 -104 -65c-76 0 -117 54 -117 165c0 132 64 342 201 342zM247 356c-57 0 -79 -128 -79 -179c0 -32 14 -50 40 -50c17 0 33 14 43 33l36 162c-5 22 -20 34 -40 34zM428 792
c0 -47 -44 -89 -91 -89c-41 0 -71 31 -71 71c0 47 44 89 91 89c40 0 71 -30 71 -71z" />
    <glyph glyph-name="eacute" unicode="&#xe9;" horiz-adv-x="435" 
d="M488 700l-144 -144h-99l112 144h131zM200 -12c-121 0 -191 75 -191 198c0 140 89 309 245 309c126 0 173 -79 173 -180c0 -48 -14 -102 -20 -126h-254c-1 -4 -1 -10 -1 -15c0 -18 13 -60 81 -60c30 0 57 14 80 31l48 -98c-40 -37 -104 -59 -161 -59zM175 297h110
c1 8 2 16 2 24c0 31 -21 48 -46 48c-43 0 -61 -41 -66 -72z" />
    <glyph glyph-name="ebreve" unicode="&#x115;" horiz-adv-x="435" 
d="M200 -12c-121 0 -191 75 -191 198c0 140 89 309 245 309c126 0 173 -79 173 -180c0 -48 -14 -102 -20 -126h-254c-1 -4 -1 -10 -1 -15c0 -18 13 -60 81 -60c30 0 57 14 80 31l48 -98c-40 -37 -104 -59 -161 -59zM175 297h110c1 8 2 16 2 24c0 31 -21 48 -46 48
c-43 0 -61 -41 -66 -72zM436 603c-38 -41 -90 -65 -143 -65c-52 0 -94 24 -115 65l78 52c9 -19 28 -31 52 -31s49 12 66 31z" />
    <glyph glyph-name="ecircumflex" unicode="&#xea;" horiz-adv-x="435" 
d="M426 556h-82l-30 79l-62 -79h-86l91 144h138zM200 -12c-121 0 -191 75 -191 198c0 140 89 309 245 309c126 0 173 -79 173 -180c0 -48 -14 -102 -20 -126h-254c-1 -4 -1 -10 -1 -15c0 -18 13 -60 81 -60c30 0 57 14 80 31l48 -98c-40 -37 -104 -59 -161 -59zM175 297h110
c1 8 2 16 2 24c0 31 -21 48 -46 48c-43 0 -61 -41 -66 -72z" />
    <glyph glyph-name="edieresis" unicode="&#xeb;" horiz-adv-x="435" 
d="M484 624c0 -47 -44 -89 -91 -89c-40 0 -70 31 -70 71c0 47 43 89 90 89c40 0 71 -31 71 -71zM299 624c0 -47 -44 -89 -90 -89c-41 0 -71 31 -71 71c0 47 43 89 90 89c40 0 71 -31 71 -71zM200 -12c-121 0 -191 75 -191 198c0 140 89 309 245 309c126 0 173 -79 173 -180
c0 -48 -14 -102 -20 -126h-254c-1 -4 -1 -10 -1 -15c0 -18 13 -60 81 -60c30 0 57 14 80 31l48 -98c-40 -37 -104 -59 -161 -59zM175 297h110c1 8 2 16 2 24c0 31 -21 48 -46 48c-43 0 -61 -41 -66 -72z" />
    <glyph glyph-name="edotaccent" unicode="&#x117;" horiz-adv-x="435" 
d="M200 -12c-121 0 -191 75 -191 198c0 140 89 309 245 309c126 0 173 -79 173 -180c0 -48 -14 -102 -20 -126h-254c-1 -4 -1 -10 -1 -15c0 -18 13 -60 81 -60c30 0 57 14 80 31l48 -98c-40 -37 -104 -59 -161 -59zM175 297h110c1 8 2 16 2 24c0 31 -21 48 -46 48
c-43 0 -61 -41 -66 -72zM392 625c0 -47 -44 -89 -91 -89c-41 0 -71 31 -71 71c0 47 44 89 91 89c40 0 71 -30 71 -71z" />
    <glyph glyph-name="egrave" unicode="&#xe8;" horiz-adv-x="435" 
d="M200 -12c-121 0 -191 75 -191 198c0 140 89 309 245 309c126 0 173 -79 173 -180c0 -48 -14 -102 -20 -126h-254c-1 -4 -1 -10 -1 -15c0 -18 13 -60 81 -60c30 0 57 14 80 31l48 -98c-40 -37 -104 -59 -161 -59zM175 297h110c1 8 2 16 2 24c0 31 -21 48 -46 48
c-43 0 -61 -41 -66 -72zM350 556h-97l-80 144h129z" />
    <glyph glyph-name="emacron" unicode="&#x113;" horiz-adv-x="435" 
d="M200 -12c-121 0 -191 75 -191 198c0 140 89 309 245 309c126 0 173 -79 173 -180c0 -48 -14 -102 -20 -126h-254c-1 -4 -1 -10 -1 -15c0 -18 13 -60 81 -60c30 0 57 14 80 31l48 -98c-40 -37 -104 -59 -161 -59zM175 297h110c1 8 2 16 2 24c0 31 -21 48 -46 48
c-43 0 -61 -41 -66 -72zM431 555h-267l18 87h268z" />
    <glyph glyph-name="eogonek" unicode="&#x119;" horiz-adv-x="435" 
d="M244 -102l51 -37c-24 -34 -51 -47 -81 -47c-47 0 -85 22 -85 71c0 25 7 62 47 104c-107 10 -167 82 -167 197c0 140 89 309 245 309c126 0 173 -79 173 -180c0 -48 -14 -102 -20 -126h-254c-1 -4 -1 -10 -1 -15c0 -18 13 -60 81 -60c30 0 57 14 80 31l48 -98
c-23 -22 -54 -38 -88 -48c-41 -28 -71 -67 -71 -106c0 -11 6 -17 17 -17c10 0 19 8 25 22zM175 297h110c1 8 2 16 2 24c0 31 -21 48 -46 48c-43 0 -61 -41 -66 -72z" />
    <glyph glyph-name="ecaron" unicode="&#x11b;" horiz-adv-x="435" 
d="M367 556h-138l-30 144h82l30 -79l62 79h86zM200 -12c-121 0 -191 75 -191 198c0 140 89 309 245 309c126 0 173 -79 173 -180c0 -48 -14 -102 -20 -126h-254c-1 -4 -1 -10 -1 -15c0 -18 13 -60 81 -60c30 0 57 14 80 31l48 -98c-40 -37 -104 -59 -161 -59zM175 297h110
c1 8 2 16 2 24c0 31 -21 48 -46 48c-43 0 -61 -41 -66 -72z" />
    <glyph glyph-name="uni1EB9" unicode="&#x1eb9;" horiz-adv-x="435" 
d="M200 -12c-121 0 -191 75 -191 198c0 140 89 309 245 309c126 0 173 -79 173 -180c0 -48 -14 -102 -20 -126h-254c-1 -4 -1 -10 -1 -15c0 -18 13 -60 81 -60c30 0 57 14 80 31l48 -98c-40 -37 -104 -59 -161 -59zM175 297h110c1 8 2 16 2 24c0 31 -21 48 -46 48
c-43 0 -61 -41 -66 -72zM229 -114c0 -47 -44 -89 -91 -89c-41 0 -71 31 -71 71c0 47 44 89 91 89c40 0 71 -30 71 -71z" />
    <glyph glyph-name="uni1EBB" unicode="&#x1ebb;" horiz-adv-x="435" 
d="M200 -12c-121 0 -191 75 -191 198c0 140 89 309 245 309c126 0 173 -79 173 -180c0 -48 -14 -102 -20 -126h-254c-1 -4 -1 -10 -1 -15c0 -18 13 -60 81 -60c30 0 57 14 80 31l48 -98c-40 -37 -104 -59 -161 -59zM175 297h110c1 8 2 16 2 24c0 31 -21 48 -46 48
c-43 0 -61 -41 -66 -72zM287 584l-50 13c13 32 35 53 72 53c38 0 64 -18 64 -58c0 -25 -14 -52 -24 -65h-58c13 16 22 34 25 50c3 15 -1 24 -12 24c-7 0 -13 -6 -17 -17z" />
    <glyph glyph-name="uni1EBD" unicode="&#x1ebd;" horiz-adv-x="435" 
d="M200 -12c-121 0 -191 75 -191 198c0 140 89 309 245 309c126 0 173 -79 173 -180c0 -48 -14 -102 -20 -126h-254c-1 -4 -1 -10 -1 -15c0 -18 13 -60 81 -60c30 0 57 14 80 31l48 -98c-40 -37 -104 -59 -161 -59zM175 297h110c1 8 2 16 2 24c0 31 -21 48 -46 48
c-43 0 -61 -41 -66 -72zM352 554c-60 0 -51 53 -86 53c-15 0 -24 -15 -31 -47h-80c18 80 56 134 116 134c59 0 52 -54 87 -54c15 0 23 15 31 48h80c-18 -80 -57 -134 -117 -134z" />
    <glyph glyph-name="uni1EBF" unicode="&#x1ebf;" horiz-adv-x="435" 
d="M426 556h-82l-30 79l-62 -79h-86l91 144h138zM658 770l-144 -144h-99l112 144h131zM200 -12c-121 0 -191 75 -191 198c0 140 89 309 245 309c126 0 173 -79 173 -180c0 -48 -14 -102 -20 -126h-254c-1 -4 -1 -10 -1 -15c0 -18 13 -60 81 -60c30 0 57 14 80 31l48 -98
c-40 -37 -104 -59 -161 -59zM175 297h110c1 8 2 16 2 24c0 31 -21 48 -46 48c-43 0 -61 -41 -66 -72z" />
    <glyph glyph-name="uni1EC1" unicode="&#x1ec1;" horiz-adv-x="435" 
d="M427 556h-82l-30 79l-62 -79h-86l91 144h138zM200 -12c-121 0 -191 75 -191 198c0 140 89 309 245 309c126 0 173 -79 173 -180c0 -48 -14 -102 -20 -126h-254c-1 -4 -1 -10 -1 -15c0 -18 13 -60 81 -60c30 0 57 14 80 31l48 -98c-40 -37 -104 -59 -161 -59zM175 297h110
c1 8 2 16 2 24c0 31 -21 48 -46 48c-43 0 -61 -41 -66 -72zM205 626h-97l-80 144h129z" />
    <glyph glyph-name="uni1EC3" unicode="&#x1ec3;" horiz-adv-x="435" 
d="M428 556h-82l-30 79l-62 -79h-86l91 144h138zM200 -12c-121 0 -191 75 -191 198c0 140 89 309 245 309c126 0 173 -79 173 -180c0 -48 -14 -102 -20 -126h-254c-1 -4 -1 -10 -1 -15c0 -18 13 -60 81 -60c30 0 57 14 80 31l48 -98c-40 -37 -104 -59 -161 -59zM175 297h110
c1 8 2 16 2 24c0 31 -21 48 -46 48c-43 0 -61 -41 -66 -72zM414 724l-50 13c13 32 35 53 72 53c38 0 64 -18 64 -58c0 -25 -14 -52 -24 -65h-58c13 16 22 34 25 50c3 15 -1 24 -12 24c-7 0 -13 -6 -17 -17z" />
    <glyph glyph-name="uni1EC5" unicode="&#x1ec5;" horiz-adv-x="435" 
d="M421 523h-82l-30 79l-62 -79h-86l91 144h138zM200 -12c-121 0 -191 75 -191 198c0 140 89 309 245 309c126 0 173 -79 173 -180c0 -48 -14 -102 -20 -126h-254c-1 -4 -1 -10 -1 -15c0 -18 13 -60 81 -60c30 0 57 14 80 31l48 -98c-40 -37 -104 -59 -161 -59zM175 297h110
c1 8 2 16 2 24c0 31 -21 48 -46 48c-43 0 -61 -41 -66 -72zM381 682c-60 0 -51 53 -86 53c-15 0 -24 -15 -31 -47h-80c18 80 56 134 116 134c59 0 52 -54 87 -54c15 0 23 15 31 48h80c-18 -80 -57 -134 -117 -134z" />
    <glyph glyph-name="uni1EC7" unicode="&#x1ec7;" horiz-adv-x="435" 
d="M428 556h-82l-30 79l-62 -79h-86l91 144h138zM200 -12c-121 0 -191 75 -191 198c0 140 89 309 245 309c126 0 173 -79 173 -180c0 -48 -14 -102 -20 -126h-254c-1 -4 -1 -10 -1 -15c0 -18 13 -60 81 -60c30 0 57 14 80 31l48 -98c-40 -37 -104 -59 -161 -59zM175 297h110
c1 8 2 16 2 24c0 31 -21 48 -46 48c-43 0 -61 -41 -66 -72zM229 -114c0 -47 -44 -89 -91 -89c-41 0 -71 31 -71 71c0 47 44 89 91 89c40 0 71 -30 71 -71z" />
    <glyph glyph-name="fl.alt1" horiz-adv-x="533" 
d="M156 0h-157l76 346h-42l31 137h41l4 19c26 119 80 175 173 175c36 0 68 -7 92 -17l-48 -121c-5 4 -11 5 -17 5c-23 0 -38 -17 -43 -42l-4 -19h57l-31 -137h-56zM421 -12c-86 0 -141 31 -141 99c0 13 1 31 6 52l117 528h158l-110 -497c-1 -5 -2 -15 -2 -20
c1 -16 10 -23 23 -23c7 0 14 3 18 6l-5 -133c-13 -8 -35 -12 -64 -12z" />
    <glyph glyph-name="f_f_l.alt1" horiz-adv-x="808" 
d="M431 0h-157l76 346h-42l31 137h41l4 19c26 119 80 175 173 175c36 0 68 -7 92 -17l-48 -121c-5 4 -11 5 -17 5c-23 0 -38 -17 -43 -42l-4 -19h57l-31 -137h-56zM696 -12c-86 0 -141 31 -141 99c0 13 1 31 6 52l117 528h158l-110 -497c-1 -5 -2 -15 -2 -20
c1 -16 10 -23 23 -23c7 0 14 3 18 6l-5 -133c-13 -8 -35 -12 -64 -12zM156 0h-157l76 346h-42l31 137h41l4 19c20 94 61 175 173 175c48 0 95 -14 114 -31l-57 -115c-9 9 -18 13 -28 13c-27 0 -40 -19 -45 -42l-4 -19h57l-31 -137h-56z" />
    <glyph glyph-name="uni1E1F" unicode="&#x1e1f;" horiz-adv-x="275" 
d="M387 792c0 -47 -44 -89 -91 -89c-41 0 -71 31 -71 71c0 47 44 89 91 89c40 0 71 -30 71 -71zM156 0h-157l76 346h-42l31 137h41l4 19c20 94 61 175 173 175c48 0 95 -14 114 -31l-57 -115c-9 9 -18 13 -28 13c-27 0 -40 -19 -45 -42l-4 -19h57l-31 -137h-56z" />
    <glyph glyph-name="gcircumflex" unicode="&#x11d;" horiz-adv-x="461" 
d="M423 547h-82l-30 79l-62 -79h-86l91 144h138zM140 -196c-79 0 -143 24 -180 66l76 115c24 -31 60 -48 99 -48c43 0 71 27 87 95l11 48c-29 -46 -67 -66 -104 -66c-80 0 -120 55 -120 154c0 123 52 327 197 327c37 0 93 -19 103 -67l13 55h157l-101 -451
c-40 -181 -132 -228 -238 -228zM212 154c16 0 33 15 44 33l30 135c-7 21 -24 34 -41 34c-56 0 -74 -107 -74 -152c0 -37 14 -50 41 -50z" />
    <glyph glyph-name="gbreve" unicode="&#x11f;" horiz-adv-x="461" 
d="M140 -196c-79 0 -143 24 -180 66l76 115c24 -31 60 -48 99 -48c43 0 71 27 87 95l11 48c-29 -46 -67 -66 -104 -66c-80 0 -120 55 -120 154c0 123 52 327 197 327c37 0 93 -19 103 -67l13 55h157l-101 -451c-40 -181 -132 -228 -238 -228zM212 154c16 0 33 15 44 33
l30 135c-7 21 -24 34 -41 34c-56 0 -74 -107 -74 -152c0 -37 14 -50 41 -50zM435 603c-38 -41 -90 -65 -143 -65c-52 0 -94 24 -115 65l78 52c9 -19 28 -31 52 -31s49 12 66 31z" />
    <glyph glyph-name="gdotaccent" unicode="&#x121;" horiz-adv-x="461" 
d="M140 -196c-79 0 -143 24 -180 66l76 115c24 -31 60 -48 99 -48c43 0 71 27 87 95l11 48c-29 -46 -67 -66 -104 -66c-80 0 -120 55 -120 154c0 123 52 327 197 327c37 0 93 -19 103 -67l13 55h157l-101 -451c-40 -181 -132 -228 -238 -228zM212 154c16 0 33 15 44 33
l30 135c-7 21 -24 34 -41 34c-56 0 -74 -107 -74 -152c0 -37 14 -50 41 -50zM391 625c0 -47 -44 -89 -91 -89c-41 0 -71 31 -71 71c0 47 44 89 91 89c40 0 71 -30 71 -71z" />
    <glyph glyph-name="gcommaaccent" unicode="&#x123;" horiz-adv-x="461" 
d="M230 611c0 65 55 137 129 173l41 -43c-28 -12 -68 -38 -83 -67h9c31 0 57 -19 57 -58c0 -43 -41 -79 -82 -79c-37 0 -71 25 -71 74zM140 -196c-79 0 -143 24 -180 66l76 115c24 -31 60 -48 99 -48c43 0 71 27 87 95l11 48c-29 -46 -67 -66 -104 -66
c-80 0 -120 55 -120 154c0 123 52 327 197 327c37 0 93 -19 103 -67l13 55h157l-101 -451c-40 -181 -132 -228 -238 -228zM212 154c16 0 33 15 44 33l30 135c-7 21 -24 34 -41 34c-56 0 -74 -107 -74 -152c0 -37 14 -50 41 -50z" />
    <glyph glyph-name="hbar" unicode="&#x127;" horiz-adv-x="471" 
d="M382 0h-158l70 316c0 1 2 12 2 15c0 15 -9 25 -23 25c-24 0 -44 -25 -57 -47l-68 -309h-158l116 526h-33l19 87h33l12 54h158l-12 -54h117l-20 -87h-117l-22 -100c26 34 75 69 127 69c63 0 100 -38 100 -89c0 -8 -1 -16 -3 -26z" />
    <glyph glyph-name="hcircumflex" unicode="&#x125;" 
d="M469 723h-82l-30 79l-62 -79h-86l91 144h138zM373 0h-158l70 316c0 1 2 12 2 15c0 15 -9 25 -23 25c-24 0 -44 -25 -57 -47l-68 -309h-158l147 667h158l-54 -241c26 34 75 69 127 69c63 0 100 -38 100 -89c0 -8 -1 -16 -3 -26z" />
    <glyph glyph-name="uni1E23" unicode="&#x1e23;" 
d="M373 0h-158l70 316c0 1 2 12 2 15c0 15 -9 25 -23 25c-24 0 -44 -25 -57 -47l-68 -309h-158l147 667h158l-54 -241c26 34 75 69 127 69c63 0 100 -38 100 -89c0 -8 -1 -16 -3 -26zM434 792c0 -47 -44 -89 -91 -89c-41 0 -71 31 -71 71c0 47 44 89 91 89
c40 0 71 -30 71 -71z" />
    <glyph glyph-name="dotlessi" unicode="&#x131;" horiz-adv-x="228" 
d="M139 0h-158l107 483h158z" />
    <glyph glyph-name="iacute" unicode="&#xed;" horiz-adv-x="228" 
d="M374 700l-144 -144h-99l112 144h131zM139 0h-158l107 483h158z" />
    <glyph glyph-name="ibreve" unicode="&#x12d;" horiz-adv-x="228" 
d="M139 0h-158l107 483h158zM323 603c-38 -41 -90 -65 -143 -65c-52 0 -94 24 -115 65l78 52c9 -19 28 -31 52 -31s49 12 66 31z" />
    <glyph glyph-name="icircumflex" unicode="&#xee;" horiz-adv-x="228" 
d="M313 556h-82l-30 79l-62 -79h-86l91 144h138zM139 0h-158l107 483h158z" />
    <glyph glyph-name="idieresis" unicode="&#xef;" horiz-adv-x="228" 
d="M370 624c0 -47 -44 -89 -91 -89c-40 0 -70 31 -70 71c0 47 43 89 90 89c40 0 71 -31 71 -71zM185 624c0 -47 -44 -89 -90 -89c-41 0 -71 31 -71 71c0 47 43 89 90 89c40 0 71 -31 71 -71zM139 0h-158l107 483h158z" />
    <glyph glyph-name="igrave" unicode="&#xec;" horiz-adv-x="228" 
d="M139 0h-158l107 483h158zM235 556h-97l-80 144h129z" />
    <glyph glyph-name="imacron" unicode="&#x12b;" horiz-adv-x="228" 
d="M139 0h-158l107 483h158zM318 555h-267l18 87h268z" />
    <glyph glyph-name="iogonek" unicode="&#x12f;" horiz-adv-x="228" 
d="M108 -102l51 -37c-24 -34 -51 -47 -81 -47c-47 0 -85 22 -85 71c0 27 8 68 57 115h-69l107 483h158l-107 -483c-42 -28 -73 -68 -73 -107c0 -11 6 -17 17 -17c10 0 19 8 25 22zM185 525c-48 0 -82 35 -82 77c0 67 57 104 103 104c47 0 81 -35 81 -77
c0 -67 -57 -104 -102 -104z" />
    <glyph glyph-name="itilde" unicode="&#x129;" horiz-adv-x="228" 
d="M139 0h-158l107 483h158zM240 554c-60 0 -51 53 -86 53c-15 0 -24 -15 -31 -47h-80c18 80 56 134 116 134c59 0 52 -54 87 -54c15 0 23 15 31 48h80c-18 -80 -57 -134 -117 -134z" />
    <glyph glyph-name="uni1EC9" unicode="&#x1ec9;" horiz-adv-x="228" 
d="M139 0h-158l107 483h158zM173 584l-50 13c13 32 35 53 72 53c38 0 64 -18 64 -58c0 -25 -14 -52 -24 -65h-58c13 16 22 34 25 50c3 15 -1 24 -12 24c-7 0 -13 -6 -17 -17z" />
    <glyph glyph-name="uni1ECB" unicode="&#x1ecb;" horiz-adv-x="228" 
d="M185 525c-48 0 -82 35 -82 77c0 67 57 104 103 104c47 0 81 -35 81 -77c0 -67 -57 -104 -102 -104zM139 0h-158l107 483h158zM116 -114c0 -47 -44 -89 -91 -89c-41 0 -71 31 -71 71c0 47 44 89 91 89c40 0 71 -30 71 -71z" />
    <glyph glyph-name="ij" unicode="&#x133;" horiz-adv-x="456" 
d="M185 525c-48 0 -82 35 -82 77c0 67 57 104 103 104c47 0 81 -35 81 -77c0 -67 -57 -104 -102 -104zM139 0h-158l107 483h158zM175 -196c-35 0 -66 8 -83 22l51 118c4 -5 13 -7 22 -7c19 0 33 15 41 50l110 496h158l-111 -496c-25 -115 -68 -183 -188 -183zM413 525
c-48 0 -82 35 -82 77c0 67 57 104 103 104c47 0 81 -35 81 -77c0 -67 -57 -104 -102 -104z" />
    <glyph glyph-name="uni0237" unicode="&#x237;" horiz-adv-x="228" 
d="M-53 -196c-35 0 -66 8 -83 22l51 118c4 -5 13 -7 22 -7c19 0 33 15 41 50l110 496h158l-111 -496c-25 -115 -68 -183 -188 -183z" />
    <glyph glyph-name="jcircumflex" unicode="&#x135;" horiz-adv-x="228" 
d="M313 556h-82l-30 79l-62 -79h-86l91 144h138zM-53 -196c-35 0 -66 8 -83 22l51 118c4 -5 13 -7 22 -7c19 0 33 15 41 50l110 496h158l-111 -496c-25 -115 -68 -183 -188 -183z" />
    <glyph glyph-name="kcommaaccent" unicode="&#x137;" horiz-adv-x="445" 
d="M225 -120c0 -65 -54 -136 -126 -171l-41 42c27 12 67 38 82 66c-2 -1 -8 -1 -10 -1c-29 0 -55 20 -55 59c0 42 40 78 81 78c36 0 69 -25 69 -73zM396 0h-171l-16 169l-48 -67l-22 -102h-158l147 667h158l-78 -355l109 171h177l-155 -213z" />
    <glyph glyph-name="kgreenlandic" unicode="&#x138;" horiz-adv-x="445" 
d="M396 0h-171l-16 169l-48 -67l-22 -102h-158l107 483h158l-38 -171l109 171h177l-155 -213z" />
    <glyph glyph-name="lacute" unicode="&#x13a;" horiz-adv-x="228" 
d="M410 867l-144 -144h-99l112 144h131zM139 0h-158l147 667h158z" />
    <glyph glyph-name="lcommaaccent" unicode="&#x13c;" horiz-adv-x="228" 
d="M107 -120c0 -65 -54 -136 -126 -171l-41 42c27 12 67 38 82 66c-2 -1 -8 -1 -10 -1c-29 0 -55 20 -55 59c0 42 40 78 81 78c36 0 69 -25 69 -73zM139 0h-158l147 667h158z" />
    <glyph glyph-name="lcaron" unicode="&#x13e;" horiz-adv-x="371" 
d="M465 608c0 -65 -54 -136 -126 -171l-41 42c27 12 67 38 82 66c-2 -1 -8 -1 -10 -1c-29 0 -55 20 -55 59c0 42 40 78 81 78c36 0 69 -25 69 -73zM139 0h-158l147 667h158z" />
    <glyph glyph-name="ldot" unicode="&#x140;" horiz-adv-x="426" 
d="M139 0h-158l147 667h158zM318 148c-49 0 -87 40 -87 88c0 57 48 105 105 105c48 0 86 -40 86 -89c0 -56 -48 -104 -104 -104z" />
    <glyph glyph-name="lslash" unicode="&#x142;" horiz-adv-x="260" 
d="M2 207l25 112l45 23l72 325h158l-52 -235l47 24l-25 -112l-47 -24l-70 -320h-158l50 230z" />
    <glyph glyph-name="lacute.alt1" horiz-adv-x="258" 
d="M410 867l-144 -144h-99l112 144h131zM146 -12c-86 0 -141 31 -141 99c0 13 1 31 6 52l117 528h158l-110 -497c-1 -5 -2 -15 -2 -20c1 -16 10 -23 23 -23c7 0 14 3 18 6l-5 -133c-13 -8 -35 -12 -64 -12z" />
    <glyph glyph-name="lcommaaccent.alt1" horiz-adv-x="258" 
d="M107 -120c0 -65 -54 -136 -126 -171l-41 42c27 12 67 38 82 66c-2 -1 -8 -1 -10 -1c-29 0 -55 20 -55 59c0 42 40 78 81 78c36 0 69 -25 69 -73zM146 -12c-86 0 -141 31 -141 99c0 13 1 31 6 52l117 528h158l-110 -497c-1 -5 -2 -15 -2 -20c1 -16 10 -23 23 -23
c7 0 14 3 18 6l-5 -133c-13 -8 -35 -12 -64 -12z" />
    <glyph glyph-name="lcaron.alt1" horiz-adv-x="371" 
d="M465 608c0 -65 -54 -136 -126 -171l-41 42c27 12 67 38 82 66c-2 -1 -8 -1 -10 -1c-29 0 -55 20 -55 59c0 42 40 78 81 78c36 0 69 -25 69 -73zM146 -12c-86 0 -141 31 -141 99c0 13 1 31 6 52l117 528h158l-110 -497c-1 -5 -2 -15 -2 -20c1 -16 10 -23 23 -23
c7 0 14 3 18 6l-5 -133c-13 -8 -35 -12 -64 -12z" />
    <glyph glyph-name="ldot.alt1" horiz-adv-x="426" 
d="M146 -12c-86 0 -141 31 -141 99c0 13 1 31 6 52l117 528h158l-110 -497c-1 -5 -2 -15 -2 -20c1 -16 10 -23 23 -23c7 0 14 3 18 6l-5 -133c-13 -8 -35 -12 -64 -12zM318 148c-49 0 -87 40 -87 88c0 57 48 105 105 105c48 0 86 -40 86 -89c0 -56 -48 -104 -104 -104z" />
    <glyph glyph-name="lslash.alt1" horiz-adv-x="274" 
d="M2 207l25 112l45 22l72 326h158l-52 -235l47 24l-25 -112l-47 -24l-33 -150c-1 -5 -2 -15 -2 -20c1 -16 10 -23 23 -23c7 0 14 3 18 6l-5 -133c-13 -8 -35 -12 -64 -12c-86 0 -141 31 -141 99c0 13 1 31 6 52l20 91z" />
    <glyph glyph-name="nacute" unicode="&#x144;" 
d="M491 700l-144 -144h-99l112 144h131zM373 0h-158l70 316c0 2 2 12 2 15c0 15 -9 25 -23 25c-24 0 -44 -25 -57 -47l-68 -309h-158l107 483h158l-14 -57c26 34 75 69 127 69c63 0 100 -37 100 -89c0 -6 -2 -20 -3 -26z" />
    <glyph glyph-name="napostrophe" unicode="&#x149;" 
d="M262 704c0 -65 -54 -136 -126 -171l-41 42c27 12 67 38 82 66c-2 -1 -8 -1 -10 -1c-29 0 -55 20 -55 59c0 42 40 78 81 78c36 0 69 -25 69 -73zM373 0h-158l70 316c0 2 2 12 2 15c0 15 -9 25 -23 25c-24 0 -44 -25 -57 -47l-68 -309h-158l107 483h158l-14 -57
c26 34 75 69 127 69c63 0 100 -37 100 -89c0 -6 -2 -20 -3 -26z" />
    <glyph glyph-name="ncaron" unicode="&#x148;" 
d="M370 556h-138l-30 144h82l30 -79l62 79h86zM373 0h-158l70 316c0 2 2 12 2 15c0 15 -9 25 -23 25c-24 0 -44 -25 -57 -47l-68 -309h-158l107 483h158l-14 -57c26 34 75 69 127 69c63 0 100 -37 100 -89c0 -6 -2 -20 -3 -26z" />
    <glyph glyph-name="ncommaaccent" unicode="&#x146;" 
d="M224 -120c0 -65 -54 -136 -126 -171l-41 42c27 12 67 38 82 66c-2 -1 -8 -1 -10 -1c-29 0 -55 20 -55 59c0 42 40 78 81 78c36 0 69 -25 69 -73zM373 0h-158l70 316c0 2 2 12 2 15c0 15 -9 25 -23 25c-24 0 -44 -25 -57 -47l-68 -309h-158l107 483h158l-14 -57
c26 34 75 69 127 69c63 0 100 -37 100 -89c0 -6 -2 -20 -3 -26z" />
    <glyph glyph-name="ntilde" unicode="&#xf1;" 
d="M373 0h-158l70 316c0 2 2 12 2 15c0 15 -9 25 -23 25c-24 0 -44 -25 -57 -47l-68 -309h-158l107 483h158l-14 -57c26 34 75 69 127 69c63 0 100 -37 100 -89c0 -6 -2 -20 -3 -26zM356 554c-60 0 -51 53 -86 53c-15 0 -24 -15 -31 -47h-80c18 80 56 134 116 134
c59 0 52 -54 87 -54c15 0 23 15 31 48h80c-18 -80 -57 -134 -117 -134z" />
    <glyph glyph-name="eng" unicode="&#x14b;" 
d="M456 380l-86 -391c-30 -133 -83 -185 -189 -185c-34 0 -60 6 -83 22l52 124c4 -5 12 -7 21 -7c20 0 35 16 42 46l72 327c1 5 2 12 2 14c0 18 -9 26 -23 26c-22 0 -44 -24 -57 -47l-68 -309h-158l107 483h158l-14 -58c26 35 75 70 127 70c61 0 100 -36 100 -88
c0 -8 -1 -18 -3 -27z" />
    <glyph glyph-name="oacute" unicode="&#xf3;" horiz-adv-x="451" 
d="M484 700l-144 -144h-99l112 144h131zM196 -12c-126 0 -187 80 -187 197c0 140 88 310 244 310c126 0 188 -80 188 -197c0 -140 -89 -310 -245 -310zM205 127c53 0 77 131 77 175c0 40 -13 54 -38 54c-52 0 -76 -132 -76 -175c0 -40 12 -54 37 -54z" />
    <glyph glyph-name="obreve" unicode="&#x14f;" horiz-adv-x="451" 
d="M196 -12c-126 0 -187 80 -187 197c0 140 88 310 244 310c126 0 188 -80 188 -197c0 -140 -89 -310 -245 -310zM205 127c53 0 77 131 77 175c0 40 -13 54 -38 54c-52 0 -76 -132 -76 -175c0 -40 12 -54 37 -54zM433 603c-38 -41 -90 -65 -143 -65c-52 0 -94 24 -115 65
l78 52c9 -19 28 -31 52 -31s49 12 66 31z" />
    <glyph glyph-name="ocircumflex" unicode="&#xf4;" horiz-adv-x="451" 
d="M425 556h-82l-30 79l-62 -79h-86l91 144h138zM196 -12c-126 0 -187 80 -187 197c0 140 88 310 244 310c126 0 188 -80 188 -197c0 -140 -89 -310 -245 -310zM205 127c53 0 77 131 77 175c0 40 -13 54 -38 54c-52 0 -76 -132 -76 -175c0 -40 12 -54 37 -54z" />
    <glyph glyph-name="odieresis" unicode="&#xf6;" horiz-adv-x="451" 
d="M481 624c0 -47 -44 -89 -91 -89c-40 0 -70 31 -70 71c0 47 43 89 90 89c40 0 71 -31 71 -71zM296 624c0 -47 -44 -89 -90 -89c-41 0 -71 31 -71 71c0 47 43 89 90 89c40 0 71 -31 71 -71zM196 -12c-126 0 -187 80 -187 197c0 140 88 310 244 310c126 0 188 -80 188 -197
c0 -140 -89 -310 -245 -310zM205 127c53 0 77 131 77 175c0 40 -13 54 -38 54c-52 0 -76 -132 -76 -175c0 -40 12 -54 37 -54z" />
    <glyph glyph-name="ograve" unicode="&#xf2;" horiz-adv-x="451" 
d="M196 -12c-126 0 -187 80 -187 197c0 140 88 310 244 310c126 0 188 -80 188 -197c0 -140 -89 -310 -245 -310zM205 127c53 0 77 131 77 175c0 40 -13 54 -38 54c-52 0 -76 -132 -76 -175c0 -40 12 -54 37 -54zM346 556h-97l-80 144h129z" />
    <glyph glyph-name="ohungarumlaut" unicode="&#x151;" horiz-adv-x="451" 
d="M352 700l-116 -144h-81l83 144h114zM492 700l-116 -144h-81l83 144h114zM196 -12c-126 0 -187 80 -187 197c0 140 88 310 244 310c126 0 188 -80 188 -197c0 -140 -89 -310 -245 -310zM205 127c53 0 77 131 77 175c0 40 -13 54 -38 54c-52 0 -76 -132 -76 -175
c0 -40 12 -54 37 -54z" />
    <glyph glyph-name="omacron" unicode="&#x14d;" horiz-adv-x="451" 
d="M428 555h-267l18 87h268zM196 -12c-126 0 -187 80 -187 197c0 140 88 310 244 310c126 0 188 -80 188 -197c0 -140 -89 -310 -245 -310zM205 127c53 0 77 131 77 175c0 40 -13 54 -38 54c-52 0 -76 -132 -76 -175c0 -40 12 -54 37 -54z" />
    <glyph glyph-name="oslash" unicode="&#xf8;" horiz-adv-x="451" 
d="M51 0h-86l68 75c-16 30 -24 68 -24 110c0 140 88 310 244 310c52 0 93 -14 123 -38l24 26h85l-68 -76c16 -30 24 -67 24 -109c0 -140 -89 -310 -245 -310c-52 0 -93 13 -123 37zM244 356c-38 0 -61 -71 -71 -125l100 111c-6 10 -16 14 -29 14zM205 127c38 0 61 69 71 124
l-100 -112c6 -9 16 -12 29 -12z" />
    <glyph glyph-name="oslashacute" unicode="&#x1ff;" horiz-adv-x="451" 
d="M486 700l-144 -144h-99l112 144h131zM51 0h-86l68 75c-16 30 -24 68 -24 110c0 140 88 310 244 310c52 0 93 -14 123 -38l24 26h85l-68 -76c16 -30 24 -67 24 -109c0 -140 -89 -310 -245 -310c-52 0 -93 13 -123 37zM244 356c-38 0 -61 -71 -71 -125l100 111
c-6 10 -16 14 -29 14zM205 127c38 0 61 69 71 124l-100 -112c6 -9 16 -12 29 -12z" />
    <glyph glyph-name="otilde" unicode="&#xf5;" horiz-adv-x="451" 
d="M196 -12c-126 0 -187 80 -187 197c0 140 88 310 244 310c126 0 188 -80 188 -197c0 -140 -89 -310 -245 -310zM205 127c53 0 77 131 77 175c0 40 -13 54 -38 54c-52 0 -76 -132 -76 -175c0 -40 12 -54 37 -54zM350 554c-60 0 -51 53 -86 53c-15 0 -24 -15 -31 -47h-80
c18 80 56 134 116 134c59 0 52 -54 87 -54c15 0 23 15 31 48h80c-18 -80 -57 -134 -117 -134z" />
    <glyph glyph-name="uni1ECD" unicode="&#x1ecd;" horiz-adv-x="451" 
d="M196 -12c-126 0 -187 80 -187 197c0 140 88 310 244 310c126 0 188 -80 188 -197c0 -140 -89 -310 -245 -310zM205 127c53 0 77 131 77 175c0 40 -13 54 -38 54c-52 0 -76 -132 -76 -175c0 -40 12 -54 37 -54zM226 -114c0 -47 -44 -89 -91 -89c-41 0 -71 31 -71 71
c0 47 44 89 91 89c40 0 71 -30 71 -71z" />
    <glyph glyph-name="uni1ECF" unicode="&#x1ecf;" horiz-adv-x="451" 
d="M196 -12c-126 0 -187 80 -187 197c0 140 88 310 244 310c126 0 188 -80 188 -197c0 -140 -89 -310 -245 -310zM205 127c53 0 77 131 77 175c0 40 -13 54 -38 54c-52 0 -76 -132 -76 -175c0 -40 12 -54 37 -54zM284 584l-50 13c13 32 35 53 72 53c38 0 64 -18 64 -58
c0 -25 -14 -52 -24 -65h-58c13 16 22 34 25 50c3 15 -1 24 -12 24c-7 0 -13 -6 -17 -17z" />
    <glyph glyph-name="uni1ED1" unicode="&#x1ed1;" horiz-adv-x="451" 
d="M424 556h-82l-30 79l-62 -79h-86l91 144h138zM656 770l-144 -144h-99l112 144h131zM196 -12c-126 0 -187 80 -187 197c0 140 88 310 244 310c126 0 188 -80 188 -197c0 -140 -89 -310 -245 -310zM205 127c53 0 77 131 77 175c0 40 -13 54 -38 54c-52 0 -76 -132 -76 -175
c0 -40 12 -54 37 -54z" />
    <glyph glyph-name="uni1ED3" unicode="&#x1ed3;" horiz-adv-x="451" 
d="M423 556h-82l-30 79l-62 -79h-86l91 144h138zM196 -12c-126 0 -187 80 -187 197c0 140 88 310 244 310c126 0 188 -80 188 -197c0 -140 -89 -310 -245 -310zM205 127c53 0 77 131 77 175c0 40 -13 54 -38 54c-52 0 -76 -132 -76 -175c0 -40 12 -54 37 -54zM201 626h-97
l-80 144h129z" />
    <glyph glyph-name="uni1ED5" unicode="&#x1ed5;" horiz-adv-x="451" 
d="M424 556h-82l-30 79l-62 -79h-86l91 144h138zM196 -12c-126 0 -187 80 -187 197c0 140 88 310 244 310c126 0 188 -80 188 -197c0 -140 -89 -310 -245 -310zM205 127c53 0 77 131 77 175c0 40 -13 54 -38 54c-52 0 -76 -132 -76 -175c0 -40 12 -54 37 -54zM410 724
l-50 13c13 32 35 53 72 53c38 0 64 -18 64 -58c0 -25 -14 -52 -24 -65h-58c13 16 22 34 25 50c3 15 -1 24 -12 24c-7 0 -13 -6 -17 -17z" />
    <glyph glyph-name="uni1ED7" unicode="&#x1ed7;" horiz-adv-x="451" 
d="M417 523h-82l-30 79l-62 -79h-86l91 144h138zM196 -12c-126 0 -187 80 -187 197c0 140 88 310 244 310c126 0 188 -80 188 -197c0 -140 -89 -310 -245 -310zM205 127c53 0 77 131 77 175c0 40 -13 54 -38 54c-52 0 -76 -132 -76 -175c0 -40 12 -54 37 -54zM379 682
c-60 0 -51 53 -86 53c-15 0 -24 -15 -31 -47h-80c18 80 56 134 116 134c59 0 52 -54 87 -54c15 0 23 15 31 48h80c-18 -80 -57 -134 -117 -134z" />
    <glyph glyph-name="uni1ED9" unicode="&#x1ed9;" horiz-adv-x="451" 
d="M424 556h-82l-30 79l-62 -79h-86l91 144h138zM196 -12c-126 0 -187 80 -187 197c0 140 88 310 244 310c126 0 188 -80 188 -197c0 -140 -89 -310 -245 -310zM205 127c53 0 77 131 77 175c0 40 -13 54 -38 54c-52 0 -76 -132 -76 -175c0 -40 12 -54 37 -54zM226 -114
c0 -47 -44 -89 -91 -89c-41 0 -71 31 -71 71c0 47 44 89 91 89c40 0 71 -30 71 -71z" />
    <glyph glyph-name="ohorn" unicode="&#x1a1;" horiz-adv-x="451" 
d="M508 549c0 -52 -38 -107 -92 -141c17 -30 25 -68 25 -110c0 -140 -89 -310 -245 -310c-126 0 -187 80 -187 197c0 140 88 310 244 310c58 0 102 -17 133 -47c19 12 38 28 47 46c-2 -1 -6 -1 -8 -1c-26 0 -49 18 -49 52c0 38 35 68 71 68c31 0 61 -22 61 -64zM205 127
c53 0 77 131 77 175c0 40 -13 54 -38 54c-52 0 -76 -132 -76 -175c0 -40 12 -54 37 -54z" />
    <glyph glyph-name="uni1EDB" unicode="&#x1edb;" horiz-adv-x="451" 
d="M484 700l-144 -144h-99l112 144h131zM508 549c0 -52 -38 -107 -92 -141c17 -30 25 -68 25 -110c0 -140 -89 -310 -245 -310c-126 0 -187 80 -187 197c0 140 88 310 244 310c58 0 102 -17 133 -47c19 12 38 28 47 46c-2 -1 -6 -1 -8 -1c-26 0 -49 18 -49 52
c0 38 35 68 71 68c31 0 61 -22 61 -64zM205 127c53 0 77 131 77 175c0 40 -13 54 -38 54c-52 0 -76 -132 -76 -175c0 -40 12 -54 37 -54z" />
    <glyph glyph-name="uni1EDD" unicode="&#x1edd;" horiz-adv-x="451" 
d="M508 549c0 -52 -38 -107 -92 -141c17 -30 25 -68 25 -110c0 -140 -89 -310 -245 -310c-126 0 -187 80 -187 197c0 140 88 310 244 310c58 0 102 -17 133 -47c19 12 38 28 47 46c-2 -1 -6 -1 -8 -1c-26 0 -49 18 -49 52c0 38 35 68 71 68c31 0 61 -22 61 -64zM205 127
c53 0 77 131 77 175c0 40 -13 54 -38 54c-52 0 -76 -132 -76 -175c0 -40 12 -54 37 -54zM346 556h-97l-80 144h129z" />
    <glyph glyph-name="uni1EDF" unicode="&#x1edf;" horiz-adv-x="451" 
d="M508 549c0 -52 -38 -107 -92 -141c17 -30 25 -68 25 -110c0 -140 -89 -310 -245 -310c-126 0 -187 80 -187 197c0 140 88 310 244 310c58 0 102 -17 133 -47c19 12 38 28 47 46c-2 -1 -6 -1 -8 -1c-26 0 -49 18 -49 52c0 38 35 68 71 68c31 0 61 -22 61 -64zM205 127
c53 0 77 131 77 175c0 40 -13 54 -38 54c-52 0 -76 -132 -76 -175c0 -40 12 -54 37 -54zM283 584l-50 13c13 32 35 53 72 53c38 0 64 -18 64 -58c0 -25 -14 -52 -24 -65h-58c13 16 22 34 25 50c3 15 -1 24 -12 24c-7 0 -13 -6 -17 -17z" />
    <glyph glyph-name="uni1EE1" unicode="&#x1ee1;" horiz-adv-x="451" 
d="M508 549c0 -52 -38 -107 -92 -141c17 -30 25 -68 25 -110c0 -140 -89 -310 -245 -310c-126 0 -187 80 -187 197c0 140 88 310 244 310c58 0 102 -17 133 -47c19 12 38 28 47 46c-2 -1 -6 -1 -8 -1c-26 0 -49 18 -49 52c0 38 35 68 71 68c31 0 61 -22 61 -64zM205 127
c53 0 77 131 77 175c0 40 -13 54 -38 54c-52 0 -76 -132 -76 -175c0 -40 12 -54 37 -54zM302 554c-60 0 -51 53 -86 53c-15 0 -24 -15 -31 -47h-80c18 80 56 134 116 134c59 0 52 -54 87 -54c15 0 23 15 31 48h80c-18 -80 -57 -134 -117 -134z" />
    <glyph glyph-name="uni1EE3" unicode="&#x1ee3;" horiz-adv-x="451" 
d="M508 549c0 -52 -38 -107 -92 -141c17 -30 25 -68 25 -110c0 -140 -89 -310 -245 -310c-126 0 -187 80 -187 197c0 140 88 310 244 310c58 0 102 -17 133 -47c19 12 38 28 47 46c-2 -1 -6 -1 -8 -1c-26 0 -49 18 -49 52c0 38 35 68 71 68c31 0 61 -22 61 -64zM205 127
c53 0 77 131 77 175c0 40 -13 54 -38 54c-52 0 -76 -132 -76 -175c0 -40 12 -54 37 -54zM226 -114c0 -47 -44 -89 -91 -89c-41 0 -71 31 -71 71c0 47 44 89 91 89c40 0 71 -30 71 -71z" />
    <glyph glyph-name="oe" unicode="&#x153;" horiz-adv-x="693" 
d="M666 189h-250c-1 -2 -1 -12 -1 -14c0 -23 14 -60 77 -60c23 0 55 10 80 31l48 -99c-45 -41 -109 -59 -159 -59c-63 0 -107 23 -131 67c-41 -45 -80 -67 -136 -67c-128 0 -185 83 -185 197c0 147 90 310 242 310c53 0 100 -20 131 -66c33 42 83 66 133 66
c102 0 171 -52 171 -180c0 -45 -11 -88 -20 -126zM438 297h105c2 6 3 18 3 24c0 26 -11 47 -43 47c-43 0 -60 -39 -65 -71zM278 302c0 24 -5 54 -37 54c-51 0 -73 -121 -73 -175c0 -27 5 -54 37 -54c51 0 73 128 73 175z" />
    <glyph glyph-name="uni1E57" unicode="&#x1e57;" horiz-adv-x="461" 
d="M254 -12c-52 0 -88 19 -104 67l-52 -239h-157l147 667h158l-13 -53c33 47 68 65 105 65c76 0 116 -54 116 -165c0 -132 -64 -342 -200 -342zM213 127c57 0 79 127 79 179c0 32 -13 50 -40 50c-16 0 -32 -14 -42 -33l-36 -162c5 -23 20 -34 39 -34zM403 625
c0 -47 -44 -89 -91 -89c-41 0 -71 31 -71 71c0 47 44 89 91 89c40 0 71 -30 71 -71z" />
    <glyph glyph-name="racute" unicode="&#x155;" horiz-adv-x="309" 
d="M445 700l-144 -144h-99l112 144h131zM139 0h-158l107 483h158l-13 -56c24 39 72 69 121 69l-35 -154c-8 4 -16 6 -30 6c-32 0 -60 -16 -84 -46z" />
    <glyph glyph-name="rcaron" unicode="&#x159;" horiz-adv-x="309" 
d="M316 556h-138l-30 144h82l30 -79l62 79h86zM139 0h-158l107 483h158l-13 -56c24 39 72 69 121 69l-35 -154c-8 4 -16 6 -30 6c-32 0 -60 -16 -84 -46z" />
    <glyph glyph-name="rcommaaccent" unicode="&#x157;" horiz-adv-x="309" 
d="M165 -120c0 -65 -54 -136 -126 -171l-41 42c27 12 67 38 82 66c-2 -1 -8 -1 -10 -1c-29 0 -55 20 -55 59c0 42 40 78 81 78c36 0 69 -25 69 -73zM139 0h-158l107 483h158l-13 -56c24 39 72 69 121 69l-35 -154c-8 4 -16 6 -30 6c-32 0 -60 -16 -84 -46z" />
    <glyph glyph-name="sacute" unicode="&#x15b;" horiz-adv-x="382" 
d="M454 700l-144 -144h-99l112 144h131zM156 -12c-86 0 -161 40 -187 76l82 101c20 -26 59 -54 103 -54c28 0 45 13 45 30c0 42 -160 49 -160 176c0 92 63 178 188 178c64 0 132 -26 175 -72l-78 -100c-13 17 -55 49 -97 49c-23 0 -38 -10 -38 -27c0 -36 166 -47 166 -176
c0 -93 -74 -181 -199 -181z" />
    <glyph glyph-name="scaron" unicode="&#x161;" horiz-adv-x="382" 
d="M333 556h-138l-30 144h82l30 -79l62 79h86zM156 -12c-86 0 -161 40 -187 76l82 101c20 -26 59 -54 103 -54c28 0 45 13 45 30c0 42 -160 49 -160 176c0 92 63 178 188 178c64 0 132 -26 175 -72l-78 -100c-13 17 -55 49 -97 49c-23 0 -38 -10 -38 -27
c0 -36 166 -47 166 -176c0 -93 -74 -181 -199 -181z" />
    <glyph glyph-name="scircumflex" unicode="&#x15d;" horiz-adv-x="382" 
d="M393 556h-82l-30 79l-62 -79h-86l91 144h138zM156 -12c-86 0 -161 40 -187 76l82 101c20 -26 59 -54 103 -54c28 0 45 13 45 30c0 42 -160 49 -160 176c0 92 63 178 188 178c64 0 132 -26 175 -72l-78 -100c-13 17 -55 49 -97 49c-23 0 -38 -10 -38 -27
c0 -36 166 -47 166 -176c0 -93 -74 -181 -199 -181z" />
    <glyph glyph-name="scedilla" unicode="&#x15f;" horiz-adv-x="382" 
d="M100 -198c-44 0 -78 16 -102 41l37 54c15 -19 39 -33 64 -33c21 0 34 13 34 30c0 10 -6 18 -18 18c-10 0 -16 -5 -21 -12l-47 30l39 67c-55 13 -98 41 -117 67l82 101c20 -26 59 -54 103 -54c28 0 45 13 45 30c0 42 -160 49 -160 176c0 92 63 178 188 178
c64 0 132 -26 175 -72l-78 -100c-13 17 -55 49 -97 49c-23 0 -38 -10 -38 -27c0 -36 166 -47 166 -176c0 -93 -74 -181 -199 -181h-3l-24 -37c8 7 15 9 23 9c31 0 55 -23 55 -62c0 -56 -45 -96 -107 -96z" />
    <glyph glyph-name="scommaaccent" unicode="&#x219;" horiz-adv-x="382" 
d="M187 -120c0 -65 -54 -136 -126 -171l-41 42c27 12 67 38 82 66c-2 -1 -8 -1 -10 -1c-29 0 -55 20 -55 59c0 42 40 78 81 78c36 0 69 -25 69 -73zM156 -12c-86 0 -161 40 -187 76l82 101c20 -26 59 -54 103 -54c28 0 45 13 45 30c0 42 -160 49 -160 176
c0 92 63 178 188 178c64 0 132 -26 175 -72l-78 -100c-13 17 -55 49 -97 49c-23 0 -38 -10 -38 -27c0 -36 166 -47 166 -176c0 -93 -74 -181 -199 -181z" />
    <glyph glyph-name="uni1E61" unicode="&#x1e61;" horiz-adv-x="382" 
d="M156 -12c-86 0 -161 40 -187 76l82 101c20 -26 59 -54 103 -54c28 0 45 13 45 30c0 42 -160 49 -160 176c0 92 63 178 188 178c64 0 132 -26 175 -72l-78 -100c-13 17 -55 49 -97 49c-23 0 -38 -10 -38 -27c0 -36 166 -47 166 -176c0 -93 -74 -181 -199 -181zM358 625
c0 -47 -44 -89 -91 -89c-41 0 -71 31 -71 71c0 47 44 89 91 89c40 0 71 -30 71 -71z" />
    <glyph glyph-name="germandbls" unicode="&#xdf;" horiz-adv-x="581" 
d="M553 171c0 -84 -70 -183 -189 -183c-77 0 -137 22 -178 72l74 102c20 -27 47 -49 84 -49c19 0 37 13 37 31c0 43 -127 52 -127 159c0 131 129 127 129 193c0 25 -27 42 -62 42c-40 0 -66 -20 -79 -77l-101 -461h-158l101 461c26 118 107 216 249 216
c113 0 215 -69 215 -163c0 -122 -134 -143 -134 -182c0 -41 139 -40 139 -161z" />
    <glyph glyph-name="longs" unicode="&#x17f;" horiz-adv-x="275" 
d="M156 0h-157l76 346h-42l31 137h41l4 19c20 94 61 175 173 175c48 0 95 -14 114 -31l-57 -115c-9 9 -18 13 -28 13c-27 0 -40 -19 -45 -42z" />
    <glyph glyph-name="tbar" unicode="&#x167;" horiz-adv-x="282" 
d="M164 -12c-93 0 -142 33 -142 102c0 16 1 28 6 49l13 60h-41l19 86h42l14 61h-42l31 137h41l29 132h158l-29 -132h56l-31 -137h-56l-14 -61h34l-19 -86h-34l-6 -29c-1 -6 -2 -13 -2 -19c0 -15 6 -24 23 -24c6 0 14 3 18 6l-5 -133c-12 -7 -30 -12 -63 -12z" />
    <glyph glyph-name="tcaron" unicode="&#x165;" horiz-adv-x="356" 
d="M478 704c0 -65 -54 -136 -126 -171l-41 42c27 12 67 38 82 66c-2 -1 -8 -1 -10 -1c-29 0 -55 20 -55 59c0 42 40 78 81 78c36 0 69 -25 69 -73zM164 -12c-93 0 -142 33 -142 102c0 16 1 28 6 49l47 207h-42l31 137h41l29 132h158l-29 -132h56l-31 -137h-56l-39 -176
c-1 -6 -2 -13 -2 -19c0 -15 6 -24 23 -24c6 0 14 3 18 6l-5 -133c-12 -7 -30 -12 -63 -12z" />
    <glyph glyph-name="tcommaaccent" unicode="&#x163;" horiz-adv-x="282" 
d="M136 -120c0 -65 -54 -136 -126 -171l-41 42c27 12 67 38 82 66c-2 -1 -8 -1 -10 -1c-29 0 -55 20 -55 59c0 42 40 78 81 78c36 0 69 -25 69 -73zM164 -12c-93 0 -142 33 -142 102c0 16 1 28 6 49l47 207h-42l31 137h41l29 132h158l-29 -132h56l-31 -137h-56l-39 -176
c-1 -6 -2 -13 -2 -19c0 -15 6 -24 23 -24c6 0 14 3 18 6l-5 -133c-12 -7 -30 -12 -63 -12z" />
    <glyph glyph-name="uni021B" unicode="&#x21b;" horiz-adv-x="282" 
d="M136 -120c0 -65 -54 -136 -126 -171l-41 42c27 12 67 38 82 66c-2 -1 -8 -1 -10 -1c-29 0 -55 20 -55 59c0 42 40 78 81 78c36 0 69 -25 69 -73zM164 -12c-93 0 -142 33 -142 102c0 16 1 28 6 49l47 207h-42l31 137h41l29 132h158l-29 -132h56l-31 -137h-56l-39 -176
c-1 -6 -2 -13 -2 -19c0 -15 6 -24 23 -24c6 0 14 3 18 6l-5 -133c-12 -7 -30 -12 -63 -12z" />
    <glyph glyph-name="uni1E6B" unicode="&#x1e6b;" horiz-adv-x="282" 
d="M164 -12c-93 0 -142 33 -142 102c0 16 1 28 6 49l47 207h-42l31 137h41l29 132h158l-29 -132h56l-31 -137h-56l-39 -176c-1 -6 -2 -13 -2 -19c0 -15 6 -24 23 -24c6 0 14 3 18 6l-5 -133c-12 -7 -30 -12 -63 -12zM331 792c0 -47 -44 -89 -91 -89c-41 0 -71 31 -71 71
c0 47 44 89 91 89c40 0 71 -30 71 -71z" />
    <glyph glyph-name="uacute" unicode="&#xfa;" 
d="M489 700l-144 -144h-99l112 144h131zM88 483h158l-69 -312c-2 -9 -4 -16 -4 -22c0 -12 9 -22 24 -22c24 0 44 24 56 46l69 310h158l-107 -483h-158l13 57c-26 -34 -74 -69 -126 -69c-63 0 -101 37 -101 89c0 6 3 20 4 26z" />
    <glyph glyph-name="ubreve" unicode="&#x16d;" 
d="M88 483h158l-69 -312c-2 -9 -4 -16 -4 -22c0 -12 9 -22 24 -22c24 0 44 24 56 46l69 310h158l-107 -483h-158l13 57c-26 -34 -74 -69 -126 -69c-63 0 -101 37 -101 89c0 6 3 20 4 26zM438 603c-38 -41 -90 -65 -143 -65c-52 0 -94 24 -115 65l78 52c9 -19 28 -31 52 -31
s49 12 66 31z" />
    <glyph glyph-name="ucircumflex" unicode="&#xfb;" 
d="M429 556h-82l-30 79l-62 -79h-86l91 144h138zM88 483h158l-69 -312c-2 -9 -4 -16 -4 -22c0 -12 9 -22 24 -22c24 0 44 24 56 46l69 310h158l-107 -483h-158l13 57c-26 -34 -74 -69 -126 -69c-63 0 -101 37 -101 89c0 6 3 20 4 26z" />
    <glyph glyph-name="udieresis" unicode="&#xfc;" 
d="M486 624c0 -47 -44 -89 -91 -89c-40 0 -70 31 -70 71c0 47 43 89 90 89c40 0 71 -31 71 -71zM301 624c0 -47 -44 -89 -90 -89c-41 0 -71 31 -71 71c0 47 43 89 90 89c40 0 71 -31 71 -71zM88 483h158l-69 -312c-2 -9 -4 -16 -4 -22c0 -12 9 -22 24 -22c24 0 44 24 56 46
l69 310h158l-107 -483h-158l13 57c-26 -34 -74 -69 -126 -69c-63 0 -101 37 -101 89c0 6 3 20 4 26z" />
    <glyph glyph-name="ugrave" unicode="&#xf9;" 
d="M88 483h158l-69 -312c-2 -9 -4 -16 -4 -22c0 -12 9 -22 24 -22c24 0 44 24 56 46l69 310h158l-107 -483h-158l13 57c-26 -34 -74 -69 -126 -69c-63 0 -101 37 -101 89c0 6 3 20 4 26zM352 556h-97l-80 144h129z" />
    <glyph glyph-name="uhungarumlaut" unicode="&#x171;" 
d="M88 483h158l-69 -312c-2 -9 -4 -16 -4 -22c0 -12 9 -22 24 -22c24 0 44 24 56 46l69 310h158l-107 -483h-158l13 57c-26 -34 -74 -69 -126 -69c-63 0 -101 37 -101 89c0 6 3 20 4 26zM357 700l-116 -144h-81l83 144h114zM497 700l-116 -144h-81l83 144h114z" />
    <glyph glyph-name="umacron" unicode="&#x16b;" 
d="M88 483h158l-69 -312c-2 -9 -4 -16 -4 -22c0 -12 9 -22 24 -22c24 0 44 24 56 46l69 310h158l-107 -483h-158l13 57c-26 -34 -74 -69 -126 -69c-63 0 -101 37 -101 89c0 6 3 20 4 26zM434 555h-267l18 87h268z" />
    <glyph glyph-name="uogonek" unicode="&#x173;" 
d="M88 483h158l-69 -312c-2 -9 -4 -16 -4 -22c0 -12 9 -22 24 -22c24 0 44 24 56 46l69 310h158l-107 -483c-42 -28 -73 -68 -73 -107c0 -11 6 -17 17 -17c10 0 19 8 25 22l51 -37c-24 -34 -51 -47 -81 -47c-47 0 -85 22 -85 71c0 27 8 68 57 115h-69l13 57
c-26 -34 -74 -69 -126 -69c-63 0 -101 37 -101 89c0 6 3 20 4 26z" />
    <glyph glyph-name="uring" unicode="&#x16f;" 
d="M303 527c-49 0 -84 36 -84 85c0 57 49 107 106 107c50 0 84 -36 84 -85c0 -57 -49 -107 -106 -107zM312 591c18 0 35 17 35 36c0 17 -11 29 -28 29c-19 0 -35 -17 -35 -36c0 -17 11 -29 28 -29zM88 483h158l-69 -312c-2 -9 -4 -16 -4 -22c0 -12 9 -22 24 -22
c24 0 44 24 56 46l69 310h158l-107 -483h-158l13 57c-26 -34 -74 -69 -126 -69c-63 0 -101 37 -101 89c0 6 3 20 4 26z" />
    <glyph glyph-name="utilde" unicode="&#x169;" 
d="M88 483h158l-69 -312c-2 -9 -4 -16 -4 -22c0 -12 9 -22 24 -22c24 0 44 24 56 46l69 310h158l-107 -483h-158l13 57c-26 -34 -74 -69 -126 -69c-63 0 -101 37 -101 89c0 6 3 20 4 26zM354 554c-60 0 -51 53 -86 53c-15 0 -24 -15 -31 -47h-80c18 80 56 134 116 134
c59 0 52 -54 87 -54c15 0 23 15 31 48h80c-18 -80 -57 -134 -117 -134z" />
    <glyph glyph-name="uni1EE5" unicode="&#x1ee5;" 
d="M88 483h158l-69 -312c-2 -9 -4 -16 -4 -22c0 -12 9 -22 24 -22c24 0 44 24 56 46l69 310h158l-107 -483h-158l13 57c-26 -34 -74 -69 -126 -69c-63 0 -101 37 -101 89c0 6 3 20 4 26zM230 -114c0 -47 -44 -89 -91 -89c-41 0 -71 31 -71 71c0 47 44 89 91 89
c40 0 71 -30 71 -71z" />
    <glyph glyph-name="uhorn" unicode="&#x1b0;" 
d="M545 566c0 -42 -27 -93 -76 -130l-96 -436h-158l13 57c-26 -34 -74 -69 -126 -69c-63 0 -101 37 -101 89c0 6 3 20 4 26l83 380h158l-70 -316c-1 -5 -3 -12 -3 -15c0 -15 9 -25 24 -25c24 0 44 24 56 46l69 310h124c10 8 18 18 23 28c-2 -1 -6 -1 -8 -1
c-26 0 -49 18 -49 52c0 38 35 68 71 68c32 0 62 -22 62 -64z" />
    <glyph glyph-name="uni1EE7" unicode="&#x1ee7;" 
d="M88 483h158l-69 -312c-2 -9 -4 -16 -4 -22c0 -12 9 -22 24 -22c24 0 44 24 56 46l69 310h158l-107 -483h-158l13 57c-26 -34 -74 -69 -126 -69c-63 0 -101 37 -101 89c0 6 3 20 4 26zM289 584l-50 13c13 32 35 53 72 53c38 0 64 -18 64 -58c0 -25 -14 -52 -24 -65h-58
c13 16 22 34 25 50c3 15 -1 24 -12 24c-7 0 -13 -6 -17 -17z" />
    <glyph glyph-name="uni1EE9" unicode="&#x1ee9;" 
d="M489 700l-144 -144h-99l112 144h131zM545 566c0 -42 -27 -93 -76 -130l-96 -436h-158l13 57c-26 -34 -74 -69 -126 -69c-63 0 -101 37 -101 89c0 6 3 20 4 26l83 380h158l-70 -316c-1 -5 -3 -12 -3 -15c0 -15 9 -25 24 -25c24 0 44 24 56 46l69 310h124c10 8 18 18 23 28
c-2 -1 -6 -1 -8 -1c-26 0 -49 18 -49 52c0 38 35 68 71 68c32 0 62 -22 62 -64z" />
    <glyph glyph-name="uni1EEB" unicode="&#x1eeb;" 
d="M352 556h-97l-80 144h129zM545 566c0 -42 -27 -93 -76 -130l-96 -436h-158l13 57c-26 -34 -74 -69 -126 -69c-63 0 -101 37 -101 89c0 6 3 20 4 26l83 380h158l-70 -316c-1 -5 -3 -12 -3 -15c0 -15 9 -25 24 -25c24 0 44 24 56 46l69 310h124c10 8 18 18 23 28
c-2 -1 -6 -1 -8 -1c-26 0 -49 18 -49 52c0 38 35 68 71 68c32 0 62 -22 62 -64z" />
    <glyph glyph-name="uni1EED" unicode="&#x1eed;" 
d="M289 584l-50 13c13 32 35 53 72 53c38 0 64 -18 64 -58c0 -25 -14 -52 -24 -65h-58c13 16 22 34 25 50c3 15 -1 24 -12 24c-7 0 -13 -6 -17 -17zM545 566c0 -42 -27 -93 -76 -130l-96 -436h-158l13 57c-26 -34 -74 -69 -126 -69c-63 0 -101 37 -101 89c0 6 3 20 4 26
l83 380h158l-70 -316c-1 -5 -3 -12 -3 -15c0 -15 9 -25 24 -25c24 0 44 24 56 46l69 310h124c10 8 18 18 23 28c-2 -1 -6 -1 -8 -1c-26 0 -49 18 -49 52c0 38 35 68 71 68c32 0 62 -22 62 -64z" />
    <glyph glyph-name="uni1EEF" unicode="&#x1eef;" 
d="M545 566c0 -42 -27 -93 -76 -130l-96 -436h-158l13 57c-26 -34 -74 -69 -126 -69c-63 0 -101 37 -101 89c0 6 3 20 4 26l83 380h158l-70 -316c-1 -5 -3 -12 -3 -15c0 -15 9 -25 24 -25c24 0 44 24 56 46l69 310h124c10 8 18 18 23 28c-2 -1 -6 -1 -8 -1
c-26 0 -49 18 -49 52c0 38 35 68 71 68c32 0 62 -22 62 -64zM315 554c-60 0 -51 53 -86 53c-15 0 -24 -15 -31 -47h-80c18 80 56 134 116 134c59 0 52 -54 87 -54c15 0 23 15 31 48h80c-18 -80 -57 -134 -117 -134z" />
    <glyph glyph-name="uni1EF1" unicode="&#x1ef1;" 
d="M230 -114c0 -47 -44 -89 -91 -89c-41 0 -71 31 -71 71c0 47 44 89 91 89c40 0 71 -30 71 -71zM545 566c0 -42 -27 -93 -76 -130l-96 -436h-158l13 57c-26 -34 -74 -69 -126 -69c-63 0 -101 37 -101 89c0 6 3 20 4 26l83 380h158l-70 -316c-1 -5 -3 -12 -3 -15
c0 -15 9 -25 24 -25c24 0 44 24 56 46l69 310h124c10 8 18 18 23 28c-2 -1 -6 -1 -8 -1c-26 0 -49 18 -49 52c0 38 35 68 71 68c32 0 62 -22 62 -64z" />
    <glyph glyph-name="wacute" unicode="&#x1e83;" horiz-adv-x="674" 
d="M584 700l-144 -144h-99l112 144h131zM506 0h-166l2 269l-116 -269h-166l-10 483h158l-11 -273l110 273h147l-3 -273l112 273h167z" />
    <glyph glyph-name="wcircumflex" unicode="&#x175;" horiz-adv-x="674" 
d="M526 556h-82l-30 79l-62 -79h-86l91 144h138zM506 0h-166l2 269l-116 -269h-166l-10 483h158l-11 -273l110 273h147l-3 -273l112 273h167z" />
    <glyph glyph-name="wdieresis" unicode="&#x1e85;" horiz-adv-x="674" 
d="M582 624c0 -47 -44 -89 -91 -89c-40 0 -70 31 -70 71c0 47 43 89 90 89c40 0 71 -31 71 -71zM397 624c0 -47 -44 -89 -90 -89c-41 0 -71 31 -71 71c0 47 43 89 90 89c40 0 71 -31 71 -71zM506 0h-166l2 269l-116 -269h-166l-10 483h158l-11 -273l110 273h147l-3 -273
l112 273h167z" />
    <glyph glyph-name="wgrave" unicode="&#x1e81;" horiz-adv-x="674" 
d="M506 0h-166l2 269l-116 -269h-166l-10 483h158l-11 -273l110 273h147l-3 -273l112 273h167zM446 556h-97l-80 144h129z" />
    <glyph glyph-name="yacute" unicode="&#xfd;" horiz-adv-x="435" 
d="M-47 -181l50 129c5 -3 14 -5 23 -5c16 0 27 9 36 24l17 30l-32 486h162l-7 -284l122 284h170l-280 -547c-56 -106 -99 -132 -172 -132c-35 0 -72 7 -89 15zM472 700l-144 -144h-99l112 144h131z" />
    <glyph glyph-name="ycircumflex" unicode="&#x177;" horiz-adv-x="435" 
d="M-47 -181l50 129c5 -3 14 -5 23 -5c16 0 27 9 36 24l17 30l-32 486h162l-7 -284l122 284h170l-280 -547c-56 -106 -99 -132 -172 -132c-35 0 -72 7 -89 15zM412 556h-82l-30 79l-62 -79h-86l91 144h138z" />
    <glyph glyph-name="ydieresis" unicode="&#xff;" horiz-adv-x="435" 
d="M-47 -181l50 129c5 -3 14 -5 23 -5c16 0 27 9 36 24l17 30l-32 486h162l-7 -284l122 284h170l-280 -547c-56 -106 -99 -132 -172 -132c-35 0 -72 7 -89 15zM469 624c0 -47 -44 -89 -91 -89c-40 0 -70 31 -70 71c0 47 43 89 90 89c40 0 71 -31 71 -71zM284 624
c0 -47 -44 -89 -90 -89c-41 0 -71 31 -71 71c0 47 43 89 90 89c40 0 71 -31 71 -71z" />
    <glyph glyph-name="ygrave" unicode="&#x1ef3;" horiz-adv-x="435" 
d="M-47 -181l50 129c5 -3 14 -5 23 -5c16 0 27 9 36 24l17 30l-32 486h162l-7 -284l122 284h170l-280 -547c-56 -106 -99 -132 -172 -132c-35 0 -72 7 -89 15zM334 556h-97l-80 144h129z" />
    <glyph glyph-name="yacute.alt1" 
d="M490 700l-144 -144h-99l112 144h131zM141 -196c-82 0 -151 27 -181 66l76 115c23 -30 61 -48 99 -48c49 0 73 33 87 95l11 49c-26 -34 -79 -67 -126 -67c-62 0 -101 35 -101 86c0 11 3 23 6 37l76 346h158l-65 -290c-1 -5 -2 -11 -2 -16c0 -15 7 -24 24 -24
c23 0 44 26 56 47l63 283h158l-101 -451c-38 -172 -126 -228 -238 -228z" />
    <glyph glyph-name="ycircumflex.alt1" 
d="M430 556h-82l-30 79l-62 -79h-86l91 144h138zM141 -196c-82 0 -151 27 -181 66l76 115c23 -30 61 -48 99 -48c49 0 73 33 87 95l11 49c-26 -34 -79 -67 -126 -67c-62 0 -101 35 -101 86c0 11 3 23 6 37l76 346h158l-65 -290c-1 -5 -2 -11 -2 -16c0 -15 7 -24 24 -24
c23 0 44 26 56 47l63 283h158l-101 -451c-38 -172 -126 -228 -238 -228z" />
    <glyph glyph-name="ydieresis.alt1" 
d="M486 624c0 -47 -44 -89 -91 -89c-40 0 -70 31 -70 71c0 47 43 89 90 89c40 0 71 -31 71 -71zM301 624c0 -47 -44 -89 -90 -89c-41 0 -71 31 -71 71c0 47 43 89 90 89c40 0 71 -31 71 -71zM141 -196c-82 0 -151 27 -181 66l76 115c23 -30 61 -48 99 -48c49 0 73 33 87 95
l11 49c-26 -34 -79 -67 -126 -67c-62 0 -101 35 -101 86c0 11 3 23 6 37l76 346h158l-65 -290c-1 -5 -2 -11 -2 -16c0 -15 7 -24 24 -24c23 0 44 26 56 47l63 283h158l-101 -451c-38 -172 -126 -228 -238 -228z" />
    <glyph glyph-name="ygrave.alt1" 
d="M141 -196c-82 0 -151 27 -181 66l76 115c23 -30 61 -48 99 -48c49 0 73 33 87 95l11 49c-26 -34 -79 -67 -126 -67c-62 0 -101 35 -101 86c0 11 3 23 6 37l76 346h158l-65 -290c-1 -5 -2 -11 -2 -16c0 -15 7 -24 24 -24c23 0 44 26 56 47l63 283h158l-101 -451
c-38 -172 -126 -228 -238 -228zM352 556h-97l-80 144h129z" />
    <glyph glyph-name="zacute" unicode="&#x17a;" horiz-adv-x="368" 
d="M440 700l-144 -144h-99l112 144h131zM295 0h-330l25 116l182 230h-131l31 137h326l-25 -111l-185 -235h136z" />
    <glyph glyph-name="zcaron" unicode="&#x17e;" horiz-adv-x="368" 
d="M320 556h-138l-30 144h82l30 -79l62 79h86zM295 0h-330l25 116l182 230h-131l31 137h326l-25 -111l-185 -235h136z" />
    <glyph glyph-name="zdotaccent" unicode="&#x17c;" horiz-adv-x="368" 
d="M295 0h-330l25 116l182 230h-131l31 137h326l-25 -111l-185 -235h136zM344 625c0 -47 -44 -89 -91 -89c-41 0 -71 31 -71 71c0 47 44 89 91 89c40 0 71 -30 71 -71z" />
    <glyph glyph-name="eth" unicode="&#xf0;" horiz-adv-x="451" 
d="M207 484l-17 71l100 29c-5 32 -13 61 -22 84l152 47c10 -30 19 -58 25 -85l62 18l15 -70l-65 -20c4 -36 6 -74 6 -116c0 -194 -67 -454 -264 -454c-131 0 -192 80 -192 185c0 118 73 277 201 277c62 0 91 -41 100 -86c-1 44 -2 96 -8 148zM204 127c44 0 70 77 70 131
c0 24 -8 53 -40 53c-45 0 -68 -87 -68 -133c0 -32 9 -51 38 -51z" />
    <glyph glyph-name="thorn" unicode="&#xfe;" horiz-adv-x="461" 
d="M254 -12c-52 0 -88 19 -104 67l-52 -239h-157l187 851h158l-53 -237c33 47 68 65 105 65c76 0 116 -54 116 -165c0 -132 -64 -342 -200 -342zM213 127c57 0 79 127 79 179c0 32 -13 50 -40 50c-16 0 -32 -14 -42 -33l-36 -162c5 -23 20 -34 39 -34z" />
    <glyph glyph-name="Aacute.smcp" unicode="&#xf7e1;" horiz-adv-x="427" 
d="M484 750l-144 -144h-99l112 144h131zM187 550h187l5 -550h-167l6 74h-82l-27 -74h-168zM231 215l13 160l-60 -160h47z" />
    <glyph glyph-name="Abreve.smcp" unicode="&#xf66d;" horiz-adv-x="427" 
d="M187 550h187l5 -550h-167l6 74h-82l-27 -74h-168zM231 215l13 160l-60 -160h47zM432 653c-38 -41 -90 -65 -143 -65c-52 0 -94 24 -115 65l78 52c9 -19 28 -31 52 -31s49 12 66 31z" />
    <glyph glyph-name="Acircumflex.smcp" unicode="&#xf7e2;" horiz-adv-x="427" 
d="M424 606h-82l-30 79l-62 -79h-86l91 144h138zM187 550h187l5 -550h-167l6 74h-82l-27 -74h-168zM231 215l13 160l-60 -160h47z" />
    <glyph glyph-name="Adieresis.smcp" unicode="&#xf7e4;" horiz-adv-x="427" 
d="M480 674c0 -47 -44 -89 -91 -89c-40 0 -70 31 -70 71c0 47 43 89 90 89c40 0 71 -31 71 -71zM295 674c0 -47 -44 -89 -90 -89c-41 0 -71 31 -71 71c0 47 43 89 90 89c40 0 71 -31 71 -71zM187 550h187l5 -550h-167l6 74h-82l-27 -74h-168zM231 215l13 160l-60 -160h47z
" />
    <glyph glyph-name="Agrave.smcp" unicode="&#xf7e0;" horiz-adv-x="427" 
d="M187 550h187l5 -550h-167l6 74h-82l-27 -74h-168zM231 215l13 160l-60 -160h47zM346 606h-97l-80 144h129z" />
    <glyph glyph-name="Amacron.smcp" unicode="&#xf66e;" horiz-adv-x="427" 
d="M427 605h-267l18 87h268zM187 550h187l5 -550h-167l6 74h-82l-27 -74h-168zM231 215l13 160l-60 -160h47z" />
    <glyph glyph-name="Aogonek.smcp" unicode="&#xf66f;" horiz-adv-x="427" 
d="M187 550h187l5 -550c-42 -28 -73 -68 -73 -107c0 -11 6 -17 17 -17c10 0 19 8 25 22l51 -37c-24 -34 -51 -47 -81 -47c-47 0 -85 22 -85 71c0 27 8 68 57 115h-78l6 74h-82l-27 -74h-168zM231 215l13 160l-60 -160h47z" />
    <glyph glyph-name="Aring.smcp" unicode="&#xf7e5;" horiz-adv-x="427" 
d="M298 577c-49 0 -84 36 -84 85c0 57 49 107 106 107c50 0 84 -36 84 -85c0 -57 -49 -107 -106 -107zM307 641c18 0 35 17 35 36c0 17 -11 29 -28 29c-19 0 -35 -17 -35 -36c0 -17 11 -29 28 -29zM187 550h187l5 -550h-167l6 74h-82l-27 -74h-168zM231 215l13 160l-60 -160
h47z" />
    <glyph glyph-name="Atilde.smcp" unicode="&#xf7e3;" horiz-adv-x="427" 
d="M187 550h187l5 -550h-167l6 74h-82l-27 -74h-168zM231 215l13 160l-60 -160h47zM349 604c-60 0 -51 53 -86 53c-15 0 -24 -15 -31 -47h-80c18 80 56 134 116 134c59 0 52 -54 87 -54c15 0 23 15 31 48h80c-18 -80 -57 -134 -117 -134z" />
    <glyph glyph-name="uni1EA0.smcp" horiz-adv-x="427" 
d="M187 550h187l5 -550h-167l6 74h-82l-27 -74h-168zM231 215l13 160l-60 -160h47zM213 -114c0 -47 -44 -89 -91 -89c-41 0 -71 31 -71 71c0 47 44 89 91 89c40 0 71 -30 71 -71z" />
    <glyph glyph-name="uni1EA2.smcp" horiz-adv-x="427" 
d="M187 550h187l5 -550h-167l6 74h-82l-27 -74h-168zM231 215l13 160l-60 -160h47zM285 637l-50 13c13 32 35 53 72 53c38 0 64 -18 64 -58c0 -25 -14 -52 -24 -65h-58c13 16 22 34 25 50c3 15 -1 24 -12 24c-7 0 -13 -6 -17 -17z" />
    <glyph glyph-name="uni1EA4.smcp" horiz-adv-x="427" 
d="M424 606h-82l-30 79l-62 -79h-86l91 144h138zM657 820l-144 -144h-99l112 144h131zM187 550h187l5 -550h-167l6 74h-82l-27 -74h-168zM231 215l13 160l-60 -160h47z" />
    <glyph glyph-name="uni1EAC.smcp" horiz-adv-x="427" 
d="M423 606h-82l-30 79l-62 -79h-86l91 144h138zM187 550h187l5 -550h-167l6 74h-82l-27 -74h-168zM231 215l13 160l-60 -160h47zM213 -114c0 -47 -44 -89 -91 -89c-41 0 -71 31 -71 71c0 47 44 89 91 89c40 0 71 -30 71 -71z" />
    <glyph glyph-name="uni1EA6.smcp" horiz-adv-x="427" 
d="M423 606h-82l-30 79l-62 -79h-86l91 144h138zM187 550h187l5 -550h-167l6 74h-82l-27 -74h-168zM231 215l13 160l-60 -160h47zM202 676h-97l-80 144h129z" />
    <glyph glyph-name="uni1EA8.smcp" horiz-adv-x="427" 
d="M423 606h-82l-30 79l-62 -79h-86l91 144h138zM187 550h187l5 -550h-167l6 74h-82l-27 -74h-168zM231 215l13 160l-60 -160h47zM409 774l-50 13c13 32 35 53 72 53c38 0 64 -18 64 -58c0 -25 -14 -52 -24 -65h-58c13 16 22 34 25 50c3 15 -1 24 -12 24
c-7 0 -13 -6 -17 -17z" />
    <glyph glyph-name="uni1EAE.smcp" horiz-adv-x="427" 
d="M497 837l-144 -144h-99l112 144h131zM187 550h187l5 -550h-167l6 74h-82l-27 -74h-168zM231 215l13 160l-60 -160h47zM427 630c-38 -41 -90 -65 -143 -65c-52 0 -94 24 -115 65l78 52c9 -19 28 -31 52 -31s49 12 66 31z" />
    <glyph glyph-name="uni1EAA.smcp" horiz-adv-x="427" 
d="M416 573h-82l-30 79l-62 -79h-86l91 144h138zM187 550h187l5 -550h-167l6 74h-82l-27 -74h-168zM231 215l13 160l-60 -160h47zM379 732c-60 0 -51 53 -86 53c-15 0 -24 -15 -31 -47h-80c18 80 56 134 116 134c59 0 52 -54 87 -54c15 0 23 15 31 48h80
c-18 -80 -57 -134 -117 -134z" />
    <glyph glyph-name="uni1EB0.smcp" horiz-adv-x="427" 
d="M187 550h187l5 -550h-167l6 74h-82l-27 -74h-168zM231 215l13 160l-60 -160h47zM373 693h-97l-80 144h129zM428 630c-38 -41 -90 -65 -143 -65c-52 0 -94 24 -115 65l78 52c9 -19 28 -31 52 -31s49 12 66 31z" />
    <glyph glyph-name="uni1EB2.smcp" horiz-adv-x="427" 
d="M187 550h187l5 -550h-167l6 74h-82l-27 -74h-168zM231 215l13 160l-60 -160h47zM311 755l-50 13c13 32 35 53 72 53c38 0 64 -18 64 -58c0 -25 -14 -52 -24 -65h-58c13 16 22 34 25 50c3 15 -1 24 -12 24c-7 0 -13 -6 -17 -17zM428 630c-38 -41 -90 -65 -143 -65
c-52 0 -94 24 -115 65l78 52c9 -19 28 -31 52 -31s49 12 66 31z" />
    <glyph glyph-name="uni1EB4.smcp" horiz-adv-x="427" 
d="M428 630c-38 -41 -90 -65 -143 -65c-52 0 -94 24 -115 65l78 52c9 -19 28 -31 52 -31s49 12 66 31zM187 550h187l5 -550h-167l6 74h-82l-27 -74h-168zM231 215l13 160l-60 -160h47zM370 697c-60 0 -51 53 -86 53c-15 0 -24 -15 -31 -47h-80c18 80 56 134 116 134
c59 0 52 -54 87 -54c15 0 23 15 31 48h80c-18 -80 -57 -134 -117 -134z" />
    <glyph glyph-name="uni1EB6.smcp" horiz-adv-x="427" 
d="M187 550h187l5 -550h-167l6 74h-82l-27 -74h-168zM231 215l13 160l-60 -160h47zM215 -114c0 -47 -44 -89 -91 -89c-41 0 -71 31 -71 71c0 47 44 89 91 89c40 0 71 -30 71 -71zM432 653c-38 -41 -90 -65 -143 -65c-52 0 -94 24 -115 65l78 52c9 -19 28 -31 52 -31
s49 12 66 31z" />
    <glyph glyph-name="AE.smcp" unicode="&#xf7e6;" horiz-adv-x="580" 
d="M503 0h-301l16 74h-75l-35 -74h-169l312 550h373l-32 -141h-136l-13 -60h131l-32 -141h-130l-14 -67h136zM250 215l35 160l-76 -160h41z" />
    <glyph glyph-name="AEacute.smcp" unicode="&#xf670;" horiz-adv-x="580" 
d="M608 750l-144 -144h-99l112 144h131zM503 0h-301l16 74h-75l-35 -74h-169l312 550h373l-32 -141h-136l-13 -60h131l-32 -141h-130l-14 -67h136zM250 215l35 160l-76 -160h41z" />
    <glyph glyph-name="uni1E02.smcp" horiz-adv-x="439" 
d="M230 0h-249l121 550h199c104 0 157 -52 157 -120c0 -66 -40 -137 -121 -151c47 -17 71 -53 71 -104c0 -81 -52 -175 -178 -175zM176 141h34c20 0 34 21 34 41c0 16 -9 26 -25 26h-29zM221 349h28c22 0 33 19 33 37c0 16 -8 23 -27 23h-21zM399 675c0 -47 -44 -89 -91 -89
c-41 0 -71 31 -71 71c0 47 44 89 91 89c40 0 71 -30 71 -71z" />
    <glyph glyph-name="Cacute.smcp" unicode="&#xf671;" horiz-adv-x="420" 
d="M500 750l-144 -144h-99l112 144h131zM199 -12c-101 0 -185 61 -185 200c0 140 78 374 260 374c117 0 164 -69 169 -179l-137 -28c-1 41 -12 64 -36 64c-60 0 -91 -175 -91 -227c0 -46 13 -61 37 -61c25 0 41 26 56 66l121 -53c-36 -73 -85 -156 -194 -156z" />
    <glyph glyph-name="Ccaron.smcp" unicode="&#xf672;" horiz-adv-x="420" 
d="M382 606h-138l-30 144h82l30 -79l62 79h86zM199 -12c-101 0 -185 61 -185 200c0 140 78 374 260 374c117 0 164 -69 169 -179l-137 -28c-1 41 -12 64 -36 64c-60 0 -91 -175 -91 -227c0 -46 13 -61 37 -61c25 0 41 26 56 66l121 -53c-36 -73 -85 -156 -194 -156z" />
    <glyph glyph-name="Ccedilla.smcp" unicode="&#xf7e7;" horiz-adv-x="420" 
d="M148 -198c-44 0 -78 16 -102 41l37 54c15 -19 39 -33 64 -33c21 0 34 13 34 30c0 10 -6 18 -18 18c-10 0 -16 -5 -21 -12l-47 30l40 68c-70 21 -121 82 -121 190c0 140 78 374 260 374c117 0 164 -69 169 -179l-137 -28c-1 41 -12 64 -36 64c-60 0 -91 -175 -91 -227
c0 -46 13 -61 37 -61c25 0 41 26 56 66l121 -53c-36 -73 -85 -155 -192 -156l-24 -37c8 7 15 9 23 9c31 0 55 -23 55 -62c0 -56 -45 -96 -107 -96z" />
    <glyph glyph-name="Ccircumflex.smcp" unicode="&#xf673;" horiz-adv-x="420" 
d="M440 606h-82l-30 79l-62 -79h-86l91 144h138zM199 -12c-101 0 -185 61 -185 200c0 140 78 374 260 374c117 0 164 -69 169 -179l-137 -28c-1 41 -12 64 -36 64c-60 0 -91 -175 -91 -227c0 -46 13 -61 37 -61c25 0 41 26 56 66l121 -53c-36 -73 -85 -156 -194 -156z" />
    <glyph glyph-name="Cdotaccent.smcp" unicode="&#xf674;" horiz-adv-x="420" 
d="M199 -12c-101 0 -185 61 -185 200c0 140 78 374 260 374c117 0 164 -69 169 -179l-137 -28c-1 41 -12 64 -36 64c-60 0 -91 -175 -91 -227c0 -46 13 -61 37 -61c25 0 41 26 56 66l121 -53c-36 -73 -85 -156 -194 -156zM405 675c0 -47 -44 -89 -91 -89
c-41 0 -71 31 -71 71c0 47 44 89 91 89c40 0 71 -30 71 -71z" />
    <glyph glyph-name="Dcaron.smcp" unicode="&#xf675;" horiz-adv-x="467" 
d="M391 606h-138l-30 144h82l30 -79l62 79h86zM187 0h-208l121 550h155c118 0 209 -60 209 -204c0 -111 -59 -346 -277 -346zM174 141h29c62 0 94 137 94 200c0 44 -18 68 -52 68h-13z" />
    <glyph glyph-name="Dcroat.smcp" unicode="&#xf676;" horiz-adv-x="479" 
d="M199 0h-208l48 220h-34l24 112h35l48 218h155c118 0 209 -60 209 -204c0 -111 -59 -346 -277 -346zM215 141c62 0 94 137 94 200c0 44 -18 68 -52 68h-13l-17 -77h38l-24 -112h-38l-17 -79h29z" />
    <glyph glyph-name="uni1E0A.smcp" horiz-adv-x="467" 
d="M189 0h-208l121 550h155c118 0 209 -60 209 -204c0 -111 -59 -346 -277 -346zM176 141h29c62 0 94 137 94 200c0 44 -18 68 -52 68h-13zM414 675c0 -47 -44 -89 -91 -89c-41 0 -71 31 -71 71c0 47 44 89 91 89c40 0 71 -30 71 -71z" />
    <glyph glyph-name="Eacute.smcp" unicode="&#xf7e9;" horiz-adv-x="358" 
d="M454 750l-144 -144h-99l112 144h131zM281 0h-300l121 550h300l-32 -141h-136l-13 -60h131l-32 -141h-130l-15 -67h137z" />
    <glyph glyph-name="Ebreve.smcp" unicode="&#xf677;" horiz-adv-x="358" 
d="M281 0h-300l121 550h300l-32 -141h-136l-13 -60h131l-32 -141h-130l-15 -67h137zM403 653c-38 -41 -90 -65 -143 -65c-52 0 -94 24 -115 65l78 52c9 -19 28 -31 52 -31s49 12 66 31z" />
    <glyph glyph-name="Ecaron.smcp" unicode="&#xf678;" horiz-adv-x="358" 
d="M335 606h-138l-30 144h82l30 -79l62 79h86zM281 0h-300l121 550h300l-32 -141h-136l-13 -60h131l-32 -141h-130l-15 -67h137z" />
    <glyph glyph-name="Ecircumflex.smcp" unicode="&#xf7ea;" horiz-adv-x="358" 
d="M394 606h-82l-30 79l-62 -79h-86l91 144h138zM281 0h-300l121 550h300l-32 -141h-136l-13 -60h131l-32 -141h-130l-15 -67h137z" />
    <glyph glyph-name="Edieresis.smcp" unicode="&#xf7eb;" horiz-adv-x="358" 
d="M451 674c0 -47 -44 -89 -91 -89c-40 0 -70 31 -70 71c0 47 43 89 90 89c40 0 71 -31 71 -71zM266 674c0 -47 -44 -89 -90 -89c-41 0 -71 31 -71 71c0 47 43 89 90 89c40 0 71 -31 71 -71zM281 0h-300l121 550h300l-32 -141h-136l-13 -60h131l-32 -141h-130l-15 -67h137z
" />
    <glyph glyph-name="Edotaccent.smcp" unicode="&#xf679;" horiz-adv-x="358" 
d="M281 0h-300l121 550h300l-32 -141h-136l-13 -60h131l-32 -141h-130l-15 -67h137zM359 675c0 -47 -44 -89 -91 -89c-41 0 -71 31 -71 71c0 47 44 89 91 89c40 0 71 -30 71 -71z" />
    <glyph glyph-name="Egrave.smcp" unicode="&#xf7e8;" horiz-adv-x="358" 
d="M281 0h-300l121 550h300l-32 -141h-136l-13 -60h131l-32 -141h-130l-15 -67h137zM316 606h-97l-80 144h129z" />
    <glyph glyph-name="Emacron.smcp" unicode="&#xf67a;" horiz-adv-x="358" 
d="M281 0h-300l121 550h300l-32 -141h-136l-13 -60h131l-32 -141h-130l-15 -67h137zM398 605h-267l18 87h268z" />
    <glyph glyph-name="Eogonek.smcp" unicode="&#xf67c;" horiz-adv-x="358" 
d="M250 -102l51 -37c-24 -34 -51 -47 -81 -47c-47 0 -85 22 -85 71c0 27 8 68 57 115h-211l121 550h300l-32 -141h-136l-13 -60h131l-32 -141h-130l-15 -67h137l-31 -141c-42 -28 -73 -68 -73 -107c0 -11 6 -17 17 -17c10 0 19 8 25 22z" />
    <glyph glyph-name="uni1EB8.smcp" horiz-adv-x="358" 
d="M281 0h-300l121 550h300l-32 -141h-136l-13 -60h131l-32 -141h-130l-15 -67h137zM184 -114c0 -47 -44 -89 -91 -89c-41 0 -71 31 -71 71c0 47 44 89 91 89c40 0 71 -30 71 -71z" />
    <glyph glyph-name="uni1EBA.smcp" horiz-adv-x="358" 
d="M281 0h-300l121 550h300l-32 -141h-136l-13 -60h131l-32 -141h-130l-15 -67h137zM254 637l-50 13c13 32 35 53 72 53c38 0 64 -18 64 -58c0 -25 -14 -52 -24 -65h-58c13 16 22 34 25 50c3 15 -1 24 -12 24c-7 0 -13 -6 -17 -17z" />
    <glyph glyph-name="uni1EBC.smcp" horiz-adv-x="358" 
d="M281 0h-300l121 550h300l-32 -141h-136l-13 -60h131l-32 -141h-130l-15 -67h137zM320 604c-60 0 -51 53 -86 53c-15 0 -24 -15 -31 -47h-80c18 80 56 134 116 134c59 0 52 -54 87 -54c15 0 23 15 31 48h80c-18 -80 -57 -134 -117 -134z" />
    <glyph glyph-name="uni1EBE.smcp" horiz-adv-x="358" 
d="M395 606h-82l-30 79l-62 -79h-86l91 144h138zM627 820l-144 -144h-99l112 144h131zM281 0h-300l121 550h300l-32 -141h-136l-13 -60h131l-32 -141h-130l-15 -67h137z" />
    <glyph glyph-name="uni1EC0.smcp" horiz-adv-x="358" 
d="M395 606h-82l-30 79l-62 -79h-86l91 144h138zM281 0h-300l121 550h300l-32 -141h-136l-13 -60h131l-32 -141h-130l-15 -67h137zM174 676h-97l-80 144h129z" />
    <glyph glyph-name="uni1EC2.smcp" horiz-adv-x="358" 
d="M395 606h-82l-30 79l-62 -79h-86l91 144h138zM281 0h-300l121 550h300l-32 -141h-136l-13 -60h131l-32 -141h-130l-15 -67h137zM382 774l-50 13c13 32 35 53 72 53c38 0 64 -18 64 -58c0 -25 -14 -52 -24 -65h-58c13 16 22 34 25 50c3 15 -1 24 -12 24
c-7 0 -13 -6 -17 -17z" />
    <glyph glyph-name="uni1EC4.smcp" horiz-adv-x="358" 
d="M387 573h-82l-30 79l-62 -79h-86l91 144h138zM281 0h-300l121 550h300l-32 -141h-136l-13 -60h131l-32 -141h-130l-15 -67h137zM349 732c-60 0 -51 53 -86 53c-15 0 -24 -15 -31 -47h-80c18 80 56 134 116 134c59 0 52 -54 87 -54c15 0 23 15 31 48h80
c-18 -80 -57 -134 -117 -134z" />
    <glyph glyph-name="uni1EC6.smcp" horiz-adv-x="358" 
d="M396 606h-82l-30 79l-62 -79h-86l91 144h138zM281 0h-300l121 550h300l-32 -141h-136l-13 -60h131l-32 -141h-130l-15 -67h137zM185 -114c0 -47 -44 -89 -91 -89c-41 0 -71 31 -71 71c0 47 44 89 91 89c40 0 71 -30 71 -71z" />
    <glyph glyph-name="uni1E1E.smcp" horiz-adv-x="354" 
d="M359 675c0 -47 -44 -89 -91 -89c-41 0 -71 31 -71 71c0 47 44 89 91 89c40 0 71 -30 71 -71zM144 0h-163l121 550h300l-31 -141h-137l-13 -60h131l-32 -141h-130z" />
    <glyph glyph-name="Gbreve.smcp" unicode="&#xf67d;" horiz-adv-x="443" 
d="M210 -12c-129 0 -196 73 -196 205c0 154 88 369 263 369c103 0 164 -70 165 -181l-136 -26c-1 34 -9 64 -37 64c-55 0 -90 -164 -90 -226c0 -47 16 -62 42 -62c14 0 22 4 29 9l10 46h-43l29 132h187l-59 -269c-44 -36 -95 -61 -164 -61zM455 653
c-38 -41 -90 -65 -143 -65c-52 0 -94 24 -115 65l78 52c9 -19 28 -31 52 -31s49 12 66 31z" />
    <glyph glyph-name="Gcircumflex.smcp" unicode="&#xf67e;" horiz-adv-x="443" 
d="M210 -12c-129 0 -196 73 -196 205c0 154 88 369 263 369c103 0 164 -70 165 -181l-136 -26c-1 34 -9 64 -37 64c-55 0 -90 -164 -90 -226c0 -47 16 -62 42 -62c14 0 22 4 29 9l10 46h-43l29 132h187l-59 -269c-44 -36 -95 -61 -164 -61zM447 606h-82l-30 79l-62 -79h-86
l91 144h138z" />
    <glyph glyph-name="Gcommaaccent.smcp" unicode="&#xf67f;" horiz-adv-x="443" 
d="M210 -12c-129 0 -196 73 -196 205c0 154 88 369 263 369c103 0 164 -70 165 -181l-136 -26c-1 34 -9 64 -37 64c-55 0 -90 -164 -90 -226c0 -47 16 -62 42 -62c14 0 22 4 29 9l10 46h-43l29 132h187l-59 -269c-44 -36 -95 -61 -164 -61zM229 -120
c0 -65 -54 -136 -126 -171l-41 42c27 12 67 38 82 66c-2 -1 -8 -1 -10 -1c-29 0 -55 20 -55 59c0 42 40 78 81 78c36 0 69 -25 69 -73z" />
    <glyph glyph-name="Gdotaccent.smcp" unicode="&#xf680;" horiz-adv-x="443" 
d="M210 -12c-129 0 -196 73 -196 205c0 154 88 369 263 369c103 0 164 -70 165 -181l-136 -26c-1 34 -9 64 -37 64c-55 0 -90 -164 -90 -226c0 -47 16 -62 42 -62c14 0 22 4 29 9l10 46h-43l29 132h187l-59 -269c-44 -36 -95 -61 -164 -61zM411 675c0 -47 -44 -89 -91 -89
c-41 0 -71 31 -71 71c0 47 44 89 91 89c40 0 71 -30 71 -71z" />
    <glyph glyph-name="Gbreve.smcp.alt1" horiz-adv-x="443" 
d="M196 -12c-111 0 -182 71 -182 199c0 147 80 375 264 375c107 0 163 -81 165 -176l-135 -31c-1 35 -12 64 -39 64c-56 0 -90 -167 -90 -232c0 -37 12 -56 35 -56c27 0 43 29 50 55h-47l29 132h200c-24 -150 -96 -330 -250 -330zM455 653c-38 -41 -90 -65 -143 -65
c-52 0 -94 24 -115 65l78 52c9 -19 28 -31 52 -31s49 12 66 31z" />
    <glyph glyph-name="Gcommaaccent.smcp.alt1" horiz-adv-x="443" 
d="M229 -120c0 -65 -54 -136 -126 -171l-41 42c27 12 67 38 82 66c-2 -1 -8 -1 -10 -1c-29 0 -55 20 -55 59c0 42 40 78 81 78c36 0 69 -25 69 -73zM196 -12c-111 0 -182 71 -182 199c0 147 80 375 264 375c107 0 163 -81 165 -176l-135 -31c-1 35 -12 64 -39 64
c-56 0 -90 -167 -90 -232c0 -37 12 -56 35 -56c27 0 43 29 50 55h-47l29 132h200c-24 -150 -96 -330 -250 -330z" />
    <glyph glyph-name="Gcircumflex.smcp.alt1" horiz-adv-x="443" 
d="M446 606h-82l-30 79l-62 -79h-86l91 144h138zM196 -12c-111 0 -182 71 -182 199c0 147 80 375 264 375c107 0 163 -81 165 -176l-135 -31c-1 35 -12 64 -39 64c-56 0 -90 -167 -90 -232c0 -37 12 -56 35 -56c27 0 43 29 50 55h-47l29 132h200
c-24 -150 -96 -330 -250 -330z" />
    <glyph glyph-name="Gdotaccent.smcp.alt1" horiz-adv-x="443" 
d="M196 -12c-111 0 -182 71 -182 199c0 147 80 375 264 375c107 0 163 -81 165 -176l-135 -31c-1 35 -12 64 -39 64c-56 0 -90 -167 -90 -232c0 -37 12 -56 35 -56c27 0 43 29 50 55h-47l29 132h200c-24 -150 -96 -330 -250 -330zM411 675c0 -47 -44 -89 -91 -89
c-41 0 -71 31 -71 71c0 47 44 89 91 89c40 0 71 -30 71 -71z" />
    <glyph glyph-name="Hbar.smcp" unicode="&#xf682;" horiz-adv-x="501" 
d="M401 0h-164l46 210h-82l-46 -210h-163l90 411h-34l18 86h35l12 53h163l-12 -53h82l12 53h164l-12 -53h34l-19 -86h-34zM233 352h82l13 59h-82z" />
    <glyph glyph-name="Hcircumflex.smcp" unicode="&#xf681;" horiz-adv-x="479" 
d="M449 606h-82l-30 79l-62 -79h-86l91 144h138zM390 0h-164l46 210h-82l-46 -210h-163l121 550h163l-43 -198h82l43 198h164z" />
    <glyph glyph-name="uni1E22.smcp" horiz-adv-x="479" 
d="M390 0h-164l46 210h-82l-46 -210h-163l121 550h163l-43 -198h82l43 198h164zM414 675c0 -47 -44 -89 -91 -89c-41 0 -71 31 -71 71c0 47 44 89 91 89c40 0 71 -30 71 -71z" />
    <glyph glyph-name="Iacute.smcp" unicode="&#xf7ed;" horiz-adv-x="233" 
d="M385 750l-144 -144h-99l112 144h131zM144 0h-163l121 550h163z" />
    <glyph glyph-name="Ibreve.smcp" unicode="&#xf683;" horiz-adv-x="233" 
d="M144 0h-163l121 550h163zM334 653c-38 -41 -90 -65 -143 -65c-52 0 -94 24 -115 65l78 52c9 -19 28 -31 52 -31s49 12 66 31z" />
    <glyph glyph-name="Igrave.smcp" unicode="&#xf7ec;" horiz-adv-x="233" 
d="M144 0h-163l121 550h163zM248 606h-97l-80 144h129z" />
    <glyph glyph-name="Icircumflex.smcp" unicode="&#xf7ee;" horiz-adv-x="233" 
d="M325 606h-82l-30 79l-62 -79h-86l91 144h138zM144 0h-163l121 550h163z" />
    <glyph glyph-name="Idieresis.smcp" unicode="&#xf7ef;" horiz-adv-x="233" 
d="M383 674c0 -47 -44 -89 -91 -89c-40 0 -70 31 -70 71c0 47 43 89 90 89c40 0 71 -31 71 -71zM198 674c0 -47 -44 -89 -90 -89c-41 0 -71 31 -71 71c0 47 43 89 90 89c40 0 71 -31 71 -71zM144 0h-163l121 550h163z" />
    <glyph glyph-name="Idotaccent.smcp" unicode="&#xf6ad;" horiz-adv-x="233" 
d="M144 0h-163l121 550h163zM291 675c0 -47 -44 -89 -91 -89c-41 0 -71 31 -71 71c0 47 44 89 91 89c40 0 71 -30 71 -71z" />
    <glyph glyph-name="Imacron.smcp" unicode="&#xf685;" horiz-adv-x="233" 
d="M330 605h-267l18 87h268zM144 0h-163l121 550h163z" />
    <glyph glyph-name="Iogonek.smcp" unicode="&#xf686;" horiz-adv-x="233" 
d="M144 0c-42 -28 -73 -68 -73 -107c0 -11 6 -17 17 -17c10 0 19 8 25 22l51 -37c-24 -34 -51 -47 -81 -47c-47 0 -85 22 -85 71c0 27 8 68 57 115h-74l121 550h163z" />
    <glyph glyph-name="Itilde.smcp" unicode="&#xf687;" horiz-adv-x="233" 
d="M144 0h-163l121 550h163zM251 604c-60 0 -51 53 -86 53c-15 0 -24 -15 -31 -47h-80c18 80 56 134 116 134c59 0 52 -54 87 -54c15 0 23 15 31 48h80c-18 -80 -57 -134 -117 -134z" />
    <glyph glyph-name="uni1EC8.smcp" horiz-adv-x="233" 
d="M144 0h-163l121 550h163zM186 637l-50 13c13 32 35 53 72 53c38 0 64 -18 64 -58c0 -25 -14 -52 -24 -65h-58c13 16 22 34 25 50c3 15 -1 24 -12 24c-7 0 -13 -6 -17 -17z" />
    <glyph glyph-name="uni1ECA.smcp" horiz-adv-x="233" 
d="M144 0h-163l121 550h163zM116 -114c0 -47 -44 -89 -91 -89c-41 0 -71 31 -71 71c0 47 44 89 91 89c40 0 71 -30 71 -71z" />
    <glyph glyph-name="IJ.smcp" unicode="&#xf684;" horiz-adv-x="567" 
d="M315 -12c-48 0 -101 13 -124 33l62 129c11 -12 27 -19 46 -19c28 0 47 17 54 49l82 370h163l-86 -393c-26 -119 -86 -169 -197 -169zM144 0h-163l121 550h163z" />
    <glyph glyph-name="Jcircumflex.smcp" unicode="&#xf688;" horiz-adv-x="334" 
d="M428 606h-82l-30 79l-62 -79h-86l91 144h138zM82 -12c-48 0 -101 13 -124 33l62 129c11 -12 27 -19 46 -19c28 0 47 17 54 49l82 370h163l-86 -393c-26 -119 -86 -169 -197 -169z" />
    <glyph glyph-name="Kcommaaccent.smcp" unicode="&#xf689;" horiz-adv-x="464" 
d="M234 -120c0 -65 -54 -136 -126 -171l-41 42c27 12 67 38 82 66c-2 -1 -8 -1 -10 -1c-29 0 -55 20 -55 59c0 42 40 78 81 78c36 0 69 -25 69 -73zM413 0h-181l-25 170l-38 -56l-25 -114h-163l121 550h163l-41 -190l123 190h177l-192 -257z" />
    <glyph glyph-name="Lacute.smcp" unicode="&#xf68a;" horiz-adv-x="351" 
d="M281 0h-300l121 550h163l-90 -409h137zM454 750l-144 -144h-99l112 144h131z" />
    <glyph glyph-name="Lcaron.smcp" unicode="&#xf68b;" horiz-adv-x="376" 
d="M428 487c0 -65 -54 -136 -126 -171l-41 42c27 12 67 38 82 66c-2 -1 -8 -1 -10 -1c-29 0 -55 20 -55 59c0 42 40 78 81 78c36 0 69 -25 69 -73zM281 0h-300l121 550h163l-90 -409h137z" />
    <glyph glyph-name="Lcommaaccent.smcp" unicode="&#xf68c;" horiz-adv-x="351" 
d="M187 -120c0 -65 -54 -136 -126 -171l-41 42c27 12 67 38 82 66c-2 -1 -8 -1 -10 -1c-29 0 -55 20 -55 59c0 42 40 78 81 78c36 0 69 -25 69 -73zM281 0h-300l121 550h163l-90 -409h137z" />
    <glyph glyph-name="Ldot.smcp" unicode="&#xf68d;" horiz-adv-x="464" 
d="M281 0h-300l121 550h163l-90 -409h137zM359 213c-49 0 -87 40 -87 88c0 57 48 105 105 105c48 0 86 -40 86 -89c0 -56 -48 -104 -104 -104z" />
    <glyph glyph-name="Lslash.smcp" unicode="&#xf6f9;" horiz-adv-x="355" 
d="M-14 135l32 141l31 16l57 258h163l-36 -164l74 38l-32 -142l-73 -37l-23 -104h137l-31 -141h-300l33 151z" />
    <glyph glyph-name="Nacute.smcp" unicode="&#xf68e;" horiz-adv-x="468" 
d="M504 750l-144 -144h-99l112 144h131zM379 0h-153l-32 226l-50 -226h-163l121 550h164l26 -207l45 207h163z" />
    <glyph glyph-name="Ncaron.smcp" unicode="&#xf68f;" horiz-adv-x="468" 
d="M385 606h-138l-30 144h82l30 -79l62 79h86zM379 0h-153l-32 226l-50 -226h-163l121 550h164l26 -207l45 207h163z" />
    <glyph glyph-name="Ncommaaccent.smcp" unicode="&#xf690;" horiz-adv-x="468" 
d="M226 -120c0 -65 -54 -136 -126 -171l-41 42c27 12 67 38 82 66c-2 -1 -8 -1 -10 -1c-29 0 -55 20 -55 59c0 42 40 78 81 78c36 0 69 -25 69 -73zM379 0h-153l-32 226l-50 -226h-163l121 550h164l26 -207l45 207h163z" />
    <glyph glyph-name="Ntilde.smcp" unicode="&#xf7f1;" horiz-adv-x="468" 
d="M379 0h-153l-32 226l-50 -226h-163l121 550h164l26 -207l45 207h163zM370 604c-60 0 -51 53 -86 53c-15 0 -24 -15 -31 -47h-80c18 80 56 134 116 134c59 0 52 -54 87 -54c15 0 23 15 31 48h80c-18 -80 -57 -134 -117 -134z" />
    <glyph glyph-name="Eng.smcp" unicode="&#xf67b;" horiz-adv-x="468" 
d="M177 -196c-44 0 -98 12 -124 33l58 109c12 -12 28 -19 46 -19c29 0 47 19 54 49l11 50l-28 200l-50 -226h-163l121 550h164l26 -207l45 207h163l-127 -579c-26 -118 -84 -167 -196 -167z" />
    <glyph glyph-name="Oacute.smcp" unicode="&#xf7f3;" horiz-adv-x="472" 
d="M205 -12c-114 0 -191 67 -191 204c0 124 65 370 265 370c114 0 191 -67 191 -204c0 -124 -65 -370 -265 -370zM216 131c60 0 90 170 90 229c0 31 -7 59 -36 59c-60 0 -92 -170 -92 -229c0 -31 9 -59 38 -59zM508 750l-144 -144h-99l112 144h131z" />
    <glyph glyph-name="Obreve.smcp" unicode="&#xf691;" horiz-adv-x="472" 
d="M205 -12c-114 0 -191 67 -191 204c0 124 65 370 265 370c114 0 191 -67 191 -204c0 -124 -65 -370 -265 -370zM216 131c60 0 90 170 90 229c0 31 -7 59 -36 59c-60 0 -92 -170 -92 -229c0 -31 9 -59 38 -59zM454 653c-38 -41 -90 -65 -143 -65c-52 0 -94 24 -115 65
l78 52c9 -19 28 -31 52 -31s49 12 66 31z" />
    <glyph glyph-name="Ocircumflex.smcp" unicode="&#xf7f4;" horiz-adv-x="472" 
d="M205 -12c-114 0 -191 67 -191 204c0 124 65 370 265 370c114 0 191 -67 191 -204c0 -124 -65 -370 -265 -370zM216 131c60 0 90 170 90 229c0 31 -7 59 -36 59c-60 0 -92 -170 -92 -229c0 -31 9 -59 38 -59zM446 606h-82l-30 79l-62 -79h-86l91 144h138z" />
    <glyph glyph-name="Odieresis.smcp" unicode="&#xf7f6;" horiz-adv-x="472" 
d="M205 -12c-114 0 -191 67 -191 204c0 124 65 370 265 370c114 0 191 -67 191 -204c0 -124 -65 -370 -265 -370zM216 131c60 0 90 170 90 229c0 31 -7 59 -36 59c-60 0 -92 -170 -92 -229c0 -31 9 -59 38 -59zM503 674c0 -47 -44 -89 -91 -89c-40 0 -70 31 -70 71
c0 47 43 89 90 89c40 0 71 -31 71 -71zM318 674c0 -47 -44 -89 -90 -89c-41 0 -71 31 -71 71c0 47 43 89 90 89c40 0 71 -31 71 -71z" />
    <glyph glyph-name="Ograve.smcp" unicode="&#xf7f2;" horiz-adv-x="472" 
d="M205 -12c-114 0 -191 67 -191 204c0 124 65 370 265 370c114 0 191 -67 191 -204c0 -124 -65 -370 -265 -370zM216 131c60 0 90 170 90 229c0 31 -7 59 -36 59c-60 0 -92 -170 -92 -229c0 -31 9 -59 38 -59zM369 606h-97l-80 144h129z" />
    <glyph glyph-name="Ohungarumlaut.smcp" unicode="&#xf692;" horiz-adv-x="472" 
d="M205 -12c-114 0 -191 67 -191 204c0 124 65 370 265 370c114 0 191 -67 191 -204c0 -124 -65 -370 -265 -370zM216 131c60 0 90 170 90 229c0 31 -7 59 -36 59c-60 0 -92 -170 -92 -229c0 -31 9 -59 38 -59zM375 750l-116 -144h-81l83 144h114zM515 750l-116 -144h-81
l83 144h114z" />
    <glyph glyph-name="Omacron.smcp" unicode="&#xf693;" horiz-adv-x="472" 
d="M205 -12c-114 0 -191 67 -191 204c0 124 65 370 265 370c114 0 191 -67 191 -204c0 -124 -65 -370 -265 -370zM216 131c60 0 90 170 90 229c0 31 -7 59 -36 59c-60 0 -92 -170 -92 -229c0 -31 9 -59 38 -59zM451 605h-267l18 87h268z" />
    <glyph glyph-name="Otilde.smcp" unicode="&#xf7f5;" horiz-adv-x="472" 
d="M205 -12c-114 0 -191 67 -191 204c0 124 65 370 265 370c114 0 191 -67 191 -204c0 -124 -65 -370 -265 -370zM216 131c60 0 90 170 90 229c0 31 -7 59 -36 59c-60 0 -92 -170 -92 -229c0 -31 9 -59 38 -59zM373 604c-60 0 -51 53 -86 53c-15 0 -24 -15 -31 -47h-80
c18 80 56 134 116 134c59 0 52 -54 87 -54c15 0 23 15 31 48h80c-18 -80 -57 -134 -117 -134z" />
    <glyph glyph-name="Oslash.smcp" unicode="&#xf7f8;" horiz-adv-x="472" 
d="M205 -12c-51 0 -95 13 -128 40l-24 -28h-82l67 79c-16 30 -24 67 -24 113c0 124 65 370 265 370c53 0 98 -15 131 -45l28 33h81l-71 -84c14 -29 22 -65 22 -108c0 -124 -65 -370 -265 -370zM270 419c-45 0 -74 -96 -86 -168l119 140c-5 16 -15 28 -33 28zM216 131
c43 0 71 88 83 159l-116 -136c6 -14 16 -23 33 -23z" />
    <glyph glyph-name="Oslashacute.smcp" unicode="&#xf694;" horiz-adv-x="472" 
d="M205 -12c-51 0 -95 13 -128 40l-24 -28h-82l67 79c-16 30 -24 67 -24 113c0 124 65 370 265 370c53 0 98 -15 131 -45l28 33h81l-71 -84c14 -29 22 -65 22 -108c0 -124 -65 -370 -265 -370zM270 419c-45 0 -74 -96 -86 -168l119 140c-5 16 -15 28 -33 28zM216 131
c43 0 71 88 83 159l-116 -136c6 -14 16 -23 33 -23zM508 750l-144 -144h-99l112 144h131z" />
    <glyph glyph-name="uni1ECC.smcp" horiz-adv-x="472" 
d="M205 -12c-114 0 -191 67 -191 204c0 124 65 370 265 370c114 0 191 -67 191 -204c0 -124 -65 -370 -265 -370zM216 131c60 0 90 170 90 229c0 31 -7 59 -36 59c-60 0 -92 -170 -92 -229c0 -31 9 -59 38 -59zM237 -114c0 -47 -44 -89 -91 -89c-41 0 -71 31 -71 71
c0 47 44 89 91 89c40 0 71 -30 71 -71z" />
    <glyph glyph-name="uni1ECE.smcp" horiz-adv-x="472" 
d="M205 -12c-114 0 -191 67 -191 204c0 124 65 370 265 370c114 0 191 -67 191 -204c0 -124 -65 -370 -265 -370zM216 131c60 0 90 170 90 229c0 31 -7 59 -36 59c-60 0 -92 -170 -92 -229c0 -31 9 -59 38 -59zM308 637l-50 13c13 32 35 53 72 53c38 0 64 -18 64 -58
c0 -25 -14 -52 -24 -65h-58c13 16 22 34 25 50c3 15 -1 24 -12 24c-7 0 -13 -6 -17 -17z" />
    <glyph glyph-name="uni1ED0.smcp" horiz-adv-x="472" 
d="M205 -12c-114 0 -191 67 -191 204c0 124 65 370 265 370c114 0 191 -67 191 -204c0 -124 -65 -370 -265 -370zM216 131c60 0 90 170 90 229c0 31 -7 59 -36 59c-60 0 -92 -170 -92 -229c0 -31 9 -59 38 -59zM447 606h-82l-30 79l-62 -79h-86l91 144h138zM680 820
l-144 -144h-99l112 144h131z" />
    <glyph glyph-name="uni1ED2.smcp" horiz-adv-x="472" 
d="M205 -12c-114 0 -191 67 -191 204c0 124 65 370 265 370c114 0 191 -67 191 -204c0 -124 -65 -370 -265 -370zM216 131c60 0 90 170 90 229c0 31 -7 59 -36 59c-60 0 -92 -170 -92 -229c0 -31 9 -59 38 -59zM447 606h-82l-30 79l-62 -79h-86l91 144h138zM225 676h-97
l-80 144h129z" />
    <glyph glyph-name="uni1ED4.smcp" horiz-adv-x="472" 
d="M205 -12c-114 0 -191 67 -191 204c0 124 65 370 265 370c114 0 191 -67 191 -204c0 -124 -65 -370 -265 -370zM216 131c60 0 90 170 90 229c0 31 -7 59 -36 59c-60 0 -92 -170 -92 -229c0 -31 9 -59 38 -59zM447 606h-82l-30 79l-62 -79h-86l91 144h138zM433 774l-50 13
c13 32 35 53 72 53c38 0 64 -18 64 -58c0 -25 -14 -52 -24 -65h-58c13 16 22 34 25 50c3 15 -1 24 -12 24c-7 0 -13 -6 -17 -17z" />
    <glyph glyph-name="uni1ED6.smcp" horiz-adv-x="472" 
d="M205 -12c-114 0 -191 67 -191 204c0 124 65 370 265 370c114 0 191 -67 191 -204c0 -124 -65 -370 -265 -370zM216 131c60 0 90 170 90 229c0 31 -7 59 -36 59c-60 0 -92 -170 -92 -229c0 -31 9 -59 38 -59zM441 573h-82l-30 79l-62 -79h-86l91 144h138zM401 732
c-60 0 -51 53 -86 53c-15 0 -24 -15 -31 -47h-80c18 80 56 134 116 134c59 0 52 -54 87 -54c15 0 23 15 31 48h80c-18 -80 -57 -134 -117 -134z" />
    <glyph glyph-name="uni1ED8.smcp" horiz-adv-x="472" 
d="M205 -12c-114 0 -191 67 -191 204c0 124 65 370 265 370c114 0 191 -67 191 -204c0 -124 -65 -370 -265 -370zM216 131c60 0 90 170 90 229c0 31 -7 59 -36 59c-60 0 -92 -170 -92 -229c0 -31 9 -59 38 -59zM446 606h-82l-30 79l-62 -79h-86l91 144h138zM237 -114
c0 -47 -44 -89 -91 -89c-41 0 -71 31 -71 71c0 47 44 89 91 89c40 0 71 -30 71 -71z" />
    <glyph glyph-name="Ohorn.smcp" horiz-adv-x="472" 
d="M205 -12c-114 0 -191 67 -191 204c0 124 65 370 265 370c63 0 115 -21 149 -63c17 11 33 26 41 42c-2 -1 -6 -1 -8 -1c-26 0 -49 17 -49 52c0 38 35 68 71 68c31 0 61 -22 61 -64c0 -52 -38 -107 -91 -140c11 -28 17 -60 17 -98c0 -124 -65 -370 -265 -370zM216 131
c60 0 90 170 90 229c0 31 -7 59 -36 59c-60 0 -92 -170 -92 -229c0 -31 9 -59 38 -59z" />
    <glyph glyph-name="uni1EDA.smcp" horiz-adv-x="472" 
d="M205 -12c-114 0 -191 67 -191 204c0 124 65 370 265 370c63 0 115 -21 149 -63c17 11 33 26 41 42c-2 -1 -6 -1 -8 -1c-26 0 -49 17 -49 52c0 38 35 68 71 68c31 0 61 -22 61 -64c0 -52 -38 -107 -91 -140c11 -28 17 -60 17 -98c0 -124 -65 -370 -265 -370zM216 131
c60 0 90 170 90 229c0 31 -7 59 -36 59c-60 0 -92 -170 -92 -229c0 -31 9 -59 38 -59zM508 750l-144 -144h-99l112 144h131z" />
    <glyph glyph-name="uni1EDC.smcp" horiz-adv-x="472" 
d="M205 -12c-114 0 -191 67 -191 204c0 124 65 370 265 370c63 0 115 -21 149 -63c17 11 33 26 41 42c-2 -1 -6 -1 -8 -1c-26 0 -49 17 -49 52c0 38 35 68 71 68c31 0 61 -22 61 -64c0 -52 -38 -107 -91 -140c11 -28 17 -60 17 -98c0 -124 -65 -370 -265 -370zM216 131
c60 0 90 170 90 229c0 31 -7 59 -36 59c-60 0 -92 -170 -92 -229c0 -31 9 -59 38 -59zM369 606h-97l-80 144h129z" />
    <glyph glyph-name="uni1EDE.smcp" horiz-adv-x="472" 
d="M205 -12c-114 0 -191 67 -191 204c0 124 65 370 265 370c63 0 115 -21 149 -63c17 11 33 26 41 42c-2 -1 -6 -1 -8 -1c-26 0 -49 17 -49 52c0 38 35 68 71 68c31 0 61 -22 61 -64c0 -52 -38 -107 -91 -140c11 -28 17 -60 17 -98c0 -124 -65 -370 -265 -370zM216 131
c60 0 90 170 90 229c0 31 -7 59 -36 59c-60 0 -92 -170 -92 -229c0 -31 9 -59 38 -59zM308 637l-50 13c13 32 35 53 72 53c38 0 64 -18 64 -58c0 -25 -14 -52 -24 -65h-58c13 16 22 34 25 50c3 15 -1 24 -12 24c-7 0 -13 -6 -17 -17z" />
    <glyph glyph-name="uni1EE0.smcp" horiz-adv-x="472" 
d="M205 -12c-114 0 -191 67 -191 204c0 124 65 370 265 370c63 0 115 -21 149 -63c17 11 33 26 41 42c-2 -1 -6 -1 -8 -1c-26 0 -49 17 -49 52c0 38 35 68 71 68c31 0 61 -22 61 -64c0 -52 -38 -107 -91 -140c11 -28 17 -60 17 -98c0 -124 -65 -370 -265 -370zM216 131
c60 0 90 170 90 229c0 31 -7 59 -36 59c-60 0 -92 -170 -92 -229c0 -31 9 -59 38 -59zM337 604c-60 0 -51 53 -86 53c-15 0 -24 -15 -31 -47h-80c18 80 56 134 116 134c59 0 52 -54 87 -54c15 0 23 15 31 48h80c-18 -80 -57 -134 -117 -134z" />
    <glyph glyph-name="uni1EE2.smcp" horiz-adv-x="472" 
d="M205 -12c-114 0 -191 67 -191 204c0 124 65 370 265 370c63 0 115 -21 149 -63c17 11 33 26 41 42c-2 -1 -6 -1 -8 -1c-26 0 -49 17 -49 52c0 38 35 68 71 68c31 0 61 -22 61 -64c0 -52 -38 -107 -91 -140c11 -28 17 -60 17 -98c0 -124 -65 -370 -265 -370zM216 131
c60 0 90 170 90 229c0 31 -7 59 -36 59c-60 0 -92 -170 -92 -229c0 -31 9 -59 38 -59zM237 -114c0 -47 -44 -89 -91 -89c-41 0 -71 31 -71 71c0 47 44 89 91 89c40 0 71 -30 71 -71z" />
    <glyph glyph-name="OE.smcp" unicode="&#xf6fa;" horiz-adv-x="603" 
d="M525 0h-299l6 28c-23 -27 -55 -40 -86 -40c-89 0 -132 88 -132 186c0 163 77 388 243 388c34 0 72 -16 83 -44l7 32h299l-31 -141h-137l-12 -60h130l-31 -141h-131l-14 -67h137zM266 183l40 184c0 37 -17 52 -36 52c-59 0 -92 -165 -92 -229c0 -36 11 -59 38 -59
c18 0 33 16 50 52z" />
    <glyph glyph-name="uni1E56.smcp" horiz-adv-x="439" 
d="M144 0h-163l121 550h182c107 0 174 -63 174 -156c0 -107 -74 -219 -212 -219h-63zM214 316h30c29 0 45 28 45 58c0 21 -12 35 -33 35h-22zM405 675c0 -47 -44 -89 -91 -89c-41 0 -71 31 -71 71c0 47 44 89 91 89c40 0 71 -30 71 -71z" />
    <glyph glyph-name="Racute.smcp" unicode="&#xf695;" horiz-adv-x="453" 
d="M497 750l-144 -144h-99l112 144h131zM380 0h-172l-5 175h-20l-39 -175h-163l121 550h170c116 0 188 -56 188 -157c0 -83 -49 -164 -105 -193zM237 316h7c28 0 46 32 46 57c0 24 -13 36 -36 36h-20l-20 -93h23z" />
    <glyph glyph-name="Rcaron.smcp" unicode="&#xf696;" horiz-adv-x="453" 
d="M378 606h-138l-30 144h82l30 -79l62 79h86zM380 0h-172l-5 175h-20l-39 -175h-163l121 550h170c116 0 188 -56 188 -157c0 -83 -49 -164 -105 -193zM237 316h7c28 0 46 32 46 57c0 24 -13 36 -36 36h-20l-20 -93h23z" />
    <glyph glyph-name="Rcommaaccent.smcp" unicode="&#xf697;" horiz-adv-x="453" 
d="M220 -120c0 -65 -54 -136 -126 -171l-41 42c27 12 67 38 82 66c-2 -1 -8 -1 -10 -1c-29 0 -55 20 -55 59c0 42 40 78 81 78c36 0 69 -25 69 -73zM380 0h-172l-5 175h-20l-39 -175h-163l121 550h170c116 0 188 -56 188 -157c0 -83 -49 -164 -105 -193zM237 316h7
c28 0 46 32 46 57c0 24 -13 36 -36 36h-20l-20 -93h23z" />
    <glyph glyph-name="Sacute.smcp" unicode="&#xf698;" horiz-adv-x="399" 
d="M478 750l-144 -144h-99l112 144h131zM168 -12c-80 0 -151 21 -196 73l85 121c26 -34 60 -51 101 -51c27 0 41 18 41 38c0 45 -141 70 -141 204c0 107 91 189 207 189c62 0 127 -23 171 -64l-84 -121c-22 27 -53 42 -85 42c-23 0 -37 -17 -37 -36c0 -47 142 -62 142 -209
c0 -90 -84 -186 -204 -186z" />
    <glyph glyph-name="Scaron.smcp" unicode="&#xf6fd;" horiz-adv-x="399" 
d="M360 606h-138l-30 144h82l30 -79l62 79h86zM168 -12c-80 0 -151 21 -196 73l85 121c26 -34 60 -51 101 -51c27 0 41 18 41 38c0 45 -141 70 -141 204c0 107 91 189 207 189c62 0 127 -23 171 -64l-84 -121c-22 27 -53 42 -85 42c-23 0 -37 -17 -37 -36
c0 -47 142 -62 142 -209c0 -90 -84 -186 -204 -186z" />
    <glyph glyph-name="Scircumflex.smcp" unicode="&#xf69a;" horiz-adv-x="399" 
d="M418 606h-82l-30 79l-62 -79h-86l91 144h138zM168 -12c-80 0 -151 21 -196 73l85 121c26 -34 60 -51 101 -51c27 0 41 18 41 38c0 45 -141 70 -141 204c0 107 91 189 207 189c62 0 127 -23 171 -64l-84 -121c-22 27 -53 42 -85 42c-23 0 -37 -17 -37 -36
c0 -47 142 -62 142 -209c0 -90 -84 -186 -204 -186z" />
    <glyph glyph-name="Scedilla.smcp" unicode="&#xf699;" horiz-adv-x="399" 
d="M121 -198c-44 0 -78 16 -102 41l37 54c15 -19 39 -33 64 -33c21 0 34 13 34 30c0 10 -6 18 -18 18c-10 0 -16 -5 -21 -12l-47 30l37 63c-54 9 -100 30 -133 68l85 121c26 -34 60 -51 101 -51c27 0 41 18 41 38c0 45 -141 70 -141 204c0 107 91 189 207 189
c62 0 127 -23 171 -64l-84 -121c-22 27 -53 42 -85 42c-23 0 -37 -17 -37 -36c0 -47 142 -62 142 -209c0 -89 -81 -183 -198 -186l-24 -37c8 7 15 9 23 9c31 0 55 -23 55 -62c0 -56 -45 -96 -107 -96z" />
    <glyph glyph-name="Scommaaccent.smcp" unicode="&#xf69b;" horiz-adv-x="399" 
d="M200 -120c0 -65 -54 -136 -126 -171l-41 42c27 12 67 38 82 66c-2 -1 -8 -1 -10 -1c-29 0 -55 20 -55 59c0 42 40 78 81 78c36 0 69 -25 69 -73zM168 -12c-80 0 -151 21 -196 73l85 121c26 -34 60 -51 101 -51c27 0 41 18 41 38c0 45 -141 70 -141 204
c0 107 91 189 207 189c62 0 127 -23 171 -64l-84 -121c-22 27 -53 42 -85 42c-23 0 -37 -17 -37 -36c0 -47 142 -62 142 -209c0 -90 -84 -186 -204 -186z" />
    <glyph glyph-name="uni1E60.smcp" horiz-adv-x="399" 
d="M168 -12c-80 0 -151 21 -196 73l85 121c26 -34 60 -51 101 -51c27 0 41 18 41 38c0 45 -141 70 -141 204c0 107 91 189 207 189c62 0 127 -23 171 -64l-84 -121c-22 27 -53 42 -85 42c-23 0 -37 -17 -37 -36c0 -47 142 -62 142 -209c0 -90 -84 -186 -204 -186zM382 675
c0 -47 -44 -89 -91 -89c-41 0 -71 31 -71 71c0 47 44 89 91 89c40 0 71 -30 71 -71z" />
    <glyph glyph-name="Tbar.smcp" unicode="&#xf69c;" horiz-adv-x="349" 
d="M203 0h-164l40 186h-47l19 86h47l30 137h-78l32 141h319l-32 -141h-77l-30 -137h42l-20 -86h-41z" />
    <glyph glyph-name="Tcaron.smcp" unicode="&#xf69d;" horiz-adv-x="349" 
d="M324 606h-138l-30 144h82l30 -79l62 79h86zM203 0h-164l89 409h-78l32 141h319l-32 -141h-77z" />
    <glyph glyph-name="Tcommaaccent.smcp" unicode="&#xf69e;" horiz-adv-x="349" 
d="M171 -120c0 -65 -54 -136 -126 -171l-41 42c27 12 67 38 82 66c-2 -1 -8 -1 -10 -1c-29 0 -55 20 -55 59c0 42 40 78 81 78c36 0 69 -25 69 -73zM203 0h-164l89 409h-78l32 141h319l-32 -141h-77z" />
    <glyph glyph-name="uni021A.smcp" horiz-adv-x="349" 
d="M171 -120c0 -65 -54 -136 -126 -171l-41 42c27 12 67 38 82 66c-2 -1 -8 -1 -10 -1c-29 0 -55 20 -55 59c0 42 40 78 81 78c36 0 69 -25 69 -73zM203 0h-164l89 409h-78l32 141h319l-32 -141h-77z" />
    <glyph glyph-name="uni1E6A.smcp" horiz-adv-x="349" 
d="M203 0h-164l89 409h-78l32 141h319l-32 -141h-77zM350 675c0 -47 -44 -89 -91 -89c-41 0 -71 31 -71 71c0 47 44 89 91 89c40 0 71 -30 71 -71z" />
    <glyph glyph-name="Uacute.smcp" unicode="&#xf7fa;" horiz-adv-x="477" 
d="M506 750l-144 -144h-99l112 144h131zM211 -12c-115 0 -195 58 -195 148c0 14 1 30 4 43l82 371h163l-81 -364c-1 -6 -2 -15 -2 -19c0 -26 13 -36 36 -36c24 0 38 18 45 51l82 368h164l-82 -370c-29 -129 -103 -192 -216 -192z" />
    <glyph glyph-name="Ubreve.smcp" unicode="&#xf69f;" horiz-adv-x="477" 
d="M211 -12c-115 0 -195 58 -195 148c0 14 1 30 4 43l82 371h163l-81 -364c-1 -6 -2 -15 -2 -19c0 -26 13 -36 36 -36c24 0 38 18 45 51l82 368h164l-82 -370c-29 -129 -103 -192 -216 -192zM454 653c-38 -41 -90 -65 -143 -65c-52 0 -94 24 -115 65l78 52
c9 -19 28 -31 52 -31s49 12 66 31z" />
    <glyph glyph-name="Ucircumflex.smcp" unicode="&#xf7fb;" horiz-adv-x="477" 
d="M446 606h-82l-30 79l-62 -79h-86l91 144h138zM211 -12c-115 0 -195 58 -195 148c0 14 1 30 4 43l82 371h163l-81 -364c-1 -6 -2 -15 -2 -19c0 -26 13 -36 36 -36c24 0 38 18 45 51l82 368h164l-82 -370c-29 -129 -103 -192 -216 -192z" />
    <glyph glyph-name="Udieresis.smcp" unicode="&#xf7fc;" horiz-adv-x="477" 
d="M503 674c0 -47 -44 -89 -91 -89c-40 0 -70 31 -70 71c0 47 43 89 90 89c40 0 71 -31 71 -71zM318 674c0 -47 -44 -89 -90 -89c-41 0 -71 31 -71 71c0 47 43 89 90 89c40 0 71 -31 71 -71zM211 -12c-115 0 -195 58 -195 148c0 14 1 30 4 43l82 371h163l-81 -364
c-1 -6 -2 -15 -2 -19c0 -26 13 -36 36 -36c24 0 38 18 45 51l82 368h164l-82 -370c-29 -129 -103 -192 -216 -192z" />
    <glyph glyph-name="Ugrave.smcp" unicode="&#xf7f9;" horiz-adv-x="477" 
d="M211 -12c-115 0 -195 58 -195 148c0 14 1 30 4 43l82 371h163l-81 -364c-1 -6 -2 -15 -2 -19c0 -26 13 -36 36 -36c24 0 38 18 45 51l82 368h164l-82 -370c-29 -129 -103 -192 -216 -192zM368 606h-97l-80 144h129z" />
    <glyph glyph-name="Uhungarumlaut.smcp" unicode="&#xf6a0;" horiz-adv-x="477" 
d="M211 -12c-115 0 -195 58 -195 148c0 14 1 30 4 43l82 371h163l-81 -364c-1 -6 -2 -15 -2 -19c0 -26 13 -36 36 -36c24 0 38 18 45 51l82 368h164l-82 -370c-29 -129 -103 -192 -216 -192zM372 750l-116 -144h-81l83 144h114zM512 750l-116 -144h-81l83 144h114z" />
    <glyph glyph-name="Umacron.smcp" unicode="&#xf6a1;" horiz-adv-x="477" 
d="M211 -12c-115 0 -195 58 -195 148c0 14 1 30 4 43l82 371h163l-81 -364c-1 -6 -2 -15 -2 -19c0 -26 13 -36 36 -36c24 0 38 18 45 51l82 368h164l-82 -370c-29 -129 -103 -192 -216 -192zM450 605h-267l18 87h268z" />
    <glyph glyph-name="Uogonek.smcp" unicode="&#xf6a2;" horiz-adv-x="477" 
d="M258 -102l51 -37c-24 -34 -51 -47 -81 -47c-47 0 -85 22 -85 71c0 25 7 62 46 104c-103 7 -173 62 -173 147c0 14 1 30 4 43l82 371h163l-81 -364c-1 -6 -2 -15 -2 -19c0 -26 13 -36 36 -36c24 0 38 18 45 51l82 368h164l-82 -370c-22 -97 -69 -156 -138 -180
c-42 -28 -73 -68 -73 -107c0 -11 6 -17 17 -17c10 0 19 8 25 22z" />
    <glyph glyph-name="Uring.smcp" unicode="&#xf6a3;" horiz-adv-x="477" 
d="M211 -12c-115 0 -195 58 -195 148c0 14 1 30 4 43l82 371h163l-81 -364c-1 -6 -2 -15 -2 -19c0 -26 13 -36 36 -36c24 0 38 18 45 51l82 368h164l-82 -370c-29 -129 -103 -192 -216 -192zM321 577c-49 0 -84 36 -84 85c0 57 49 107 106 107c50 0 84 -36 84 -85
c0 -57 -49 -107 -106 -107zM330 641c18 0 35 17 35 36c0 17 -11 29 -28 29c-19 0 -35 -17 -35 -36c0 -17 11 -29 28 -29z" />
    <glyph glyph-name="Utilde.smcp" unicode="&#xf6a4;" horiz-adv-x="477" 
d="M211 -12c-115 0 -195 58 -195 148c0 14 1 30 4 43l82 371h163l-81 -364c-1 -6 -2 -15 -2 -19c0 -26 13 -36 36 -36c24 0 38 18 45 51l82 368h164l-82 -370c-29 -129 -103 -192 -216 -192zM372 604c-60 0 -51 53 -86 53c-15 0 -24 -15 -31 -47h-80c18 80 56 134 116 134
c59 0 52 -54 87 -54c15 0 23 15 31 48h80c-18 -80 -57 -134 -117 -134z" />
    <glyph glyph-name="uni1EE4.smcp" horiz-adv-x="477" 
d="M211 -12c-115 0 -195 58 -195 148c0 14 1 30 4 43l82 371h163l-81 -364c-1 -6 -2 -15 -2 -19c0 -26 13 -36 36 -36c24 0 38 18 45 51l82 368h164l-82 -370c-29 -129 -103 -192 -216 -192zM236 -114c0 -47 -44 -89 -91 -89c-41 0 -71 31 -71 71c0 47 44 89 91 89
c40 0 71 -30 71 -71z" />
    <glyph glyph-name="Uhorn.smcp" horiz-adv-x="477" 
d="M211 -12c-115 0 -195 58 -195 148c0 13 1 28 4 43l82 371h163l-80 -362c-2 -8 -3 -17 -3 -21c0 -26 13 -36 36 -36c24 0 38 18 45 51l82 368h131c11 9 19 19 25 29h-8c-25 0 -49 17 -49 51c0 38 35 69 71 69c32 0 62 -23 62 -65c0 -43 -28 -95 -79 -132l-71 -322
c-29 -129 -103 -192 -216 -192z" />
    <glyph glyph-name="uni1EE6.smcp" horiz-adv-x="477" 
d="M211 -12c-115 0 -195 58 -195 148c0 14 1 30 4 43l82 371h163l-81 -364c-1 -6 -2 -15 -2 -19c0 -26 13 -36 36 -36c24 0 38 18 45 51l82 368h164l-82 -370c-29 -129 -103 -192 -216 -192zM306 637l-50 13c13 32 35 53 72 53c38 0 64 -18 64 -58c0 -25 -14 -52 -24 -65
h-58c13 16 22 34 25 50c3 15 -1 24 -12 24c-7 0 -13 -6 -17 -17z" />
    <glyph glyph-name="uni1EE8.smcp" horiz-adv-x="477" 
d="M506 750l-144 -144h-99l112 144h131zM211 -12c-115 0 -195 58 -195 148c0 13 1 28 4 43l82 371h163l-80 -362c-2 -8 -3 -17 -3 -21c0 -26 13 -36 36 -36c24 0 38 18 45 51l82 368h131c11 9 19 19 25 29h-8c-25 0 -49 17 -49 51c0 38 35 69 71 69c32 0 62 -23 62 -65
c0 -43 -28 -95 -79 -132l-71 -322c-29 -129 -103 -192 -216 -192z" />
    <glyph glyph-name="uni1EEA.smcp" horiz-adv-x="477" 
d="M368 606h-97l-80 144h129zM211 -12c-115 0 -195 58 -195 148c0 13 1 28 4 43l82 371h163l-80 -362c-2 -8 -3 -17 -3 -21c0 -26 13 -36 36 -36c24 0 38 18 45 51l82 368h131c11 9 19 19 25 29h-8c-25 0 -49 17 -49 51c0 38 35 69 71 69c32 0 62 -23 62 -65
c0 -43 -28 -95 -79 -132l-71 -322c-29 -129 -103 -192 -216 -192z" />
    <glyph glyph-name="uni1EEC.smcp" horiz-adv-x="477" 
d="M306 637l-50 13c13 32 35 53 72 53c38 0 64 -18 64 -58c0 -25 -14 -52 -24 -65h-58c13 16 22 34 25 50c3 15 -1 24 -12 24c-7 0 -13 -6 -17 -17zM211 -12c-115 0 -195 58 -195 148c0 13 1 28 4 43l82 371h163l-80 -362c-2 -8 -3 -17 -3 -21c0 -26 13 -36 36 -36
c24 0 38 18 45 51l82 368h131c11 9 19 19 25 29h-8c-25 0 -49 17 -49 51c0 38 35 69 71 69c32 0 62 -23 62 -65c0 -43 -28 -95 -79 -132l-71 -322c-29 -129 -103 -192 -216 -192z" />
    <glyph glyph-name="uni1EEE.smcp" horiz-adv-x="477" 
d="M211 -12c-115 0 -195 58 -195 148c0 13 1 28 4 43l82 371h163l-80 -362c-2 -8 -3 -17 -3 -21c0 -26 13 -36 36 -36c24 0 38 18 45 51l82 368h131c11 9 19 19 25 29h-8c-25 0 -49 17 -49 51c0 38 35 69 71 69c32 0 62 -23 62 -65c0 -43 -28 -95 -79 -132l-71 -322
c-29 -129 -103 -192 -216 -192zM340 604c-60 0 -51 53 -86 53c-15 0 -24 -15 -31 -47h-80c18 80 56 134 116 134c59 0 52 -54 87 -54c15 0 23 15 31 48h80c-18 -80 -57 -134 -117 -134z" />
    <glyph glyph-name="uni1EF0.smcp" horiz-adv-x="477" 
d="M236 -114c0 -47 -44 -89 -91 -89c-41 0 -71 31 -71 71c0 47 44 89 91 89c40 0 71 -30 71 -71zM211 -12c-115 0 -195 58 -195 148c0 13 1 28 4 43l82 371h163l-80 -362c-2 -8 -3 -17 -3 -21c0 -26 13 -36 36 -36c24 0 38 18 45 51l82 368h131c11 9 19 19 25 29h-8
c-25 0 -49 17 -49 51c0 38 35 69 71 69c32 0 62 -23 62 -65c0 -43 -28 -95 -79 -132l-71 -322c-29 -129 -103 -192 -216 -192z" />
    <glyph glyph-name="Wacute.smcp" horiz-adv-x="601" 
d="M439 0h-162l22 238l-83 -238h-162l14 550h166l-25 -254l96 254h125l-17 -257l88 257h165zM568 750l-144 -144h-99l112 144h131z" />
    <glyph glyph-name="Wcircumflex.smcp" unicode="&#xf6a6;" horiz-adv-x="601" 
d="M509 606h-82l-30 79l-62 -79h-86l91 144h138zM439 0h-162l22 238l-83 -238h-162l14 550h166l-25 -254l96 254h125l-17 -257l88 257h165z" />
    <glyph glyph-name="Wdieresis.smcp" horiz-adv-x="601" 
d="M439 0h-162l22 238l-83 -238h-162l14 550h166l-25 -254l96 254h125l-17 -257l88 257h165zM566 674c0 -47 -44 -89 -91 -89c-40 0 -70 31 -70 71c0 47 43 89 90 89c40 0 71 -31 71 -71zM381 674c0 -47 -44 -89 -90 -89c-41 0 -71 31 -71 71c0 47 43 89 90 89
c40 0 71 -31 71 -71z" />
    <glyph glyph-name="Wgrave.smcp" horiz-adv-x="601" 
d="M439 0h-162l22 238l-83 -238h-162l14 550h166l-25 -254l96 254h125l-17 -257l88 257h165zM430 606h-97l-80 144h129z" />
    <glyph glyph-name="Yacute.smcp" unicode="&#xf7fd;" horiz-adv-x="431" 
d="M486 750l-144 -144h-99l112 144h131zM243 0h-163l48 223l-68 327h170l14 -169l88 169h173l-213 -327z" />
    <glyph glyph-name="Ycircumflex.smcp" unicode="&#xf6a9;" horiz-adv-x="431" 
d="M426 606h-82l-30 79l-62 -79h-86l91 144h138zM243 0h-163l48 223l-68 327h170l14 -169l88 169h173l-213 -327z" />
    <glyph glyph-name="Ydieresis.smcp" unicode="&#xf7ff;" horiz-adv-x="431" 
d="M483 674c0 -47 -44 -89 -91 -89c-40 0 -70 31 -70 71c0 47 43 89 90 89c40 0 71 -31 71 -71zM298 674c0 -47 -44 -89 -90 -89c-41 0 -71 31 -71 71c0 47 43 89 90 89c40 0 71 -31 71 -71zM243 0h-163l48 223l-68 327h170l14 -169l88 169h173l-213 -327z" />
    <glyph glyph-name="Ygrave.smcp" horiz-adv-x="431" 
d="M243 0h-163l48 223l-68 327h170l14 -169l88 169h173l-213 -327zM349 606h-97l-80 144h129z" />
    </font>
</defs>
</svg>
