<?xml version="1.0" standalone="no"?>
<!DOCTYPE svg PUBLIC "-//W3C//DTD SVG 1.1//EN" "http://www.w3.org/Graphics/SVG/1.1/DTD/svg11.dtd" >
<svg xmlns="http://www.w3.org/2000/svg" xmlns:xlink="http://www.w3.org/1999/xlink" version="1.1">
<metadata>
Created by FontForge 20141024 at Thu Apr 30 19:17:09 2015
 By System Administrator
Copyright (c) 2007 Monotype Imaging Inc. Soho is designed by Sebastian Lester. All rights reserved.
</metadata>
<defs>
<font id="SohoPro-MediumCondensed" horiz-adv-x="522" >
  <font-face 
    font-family="Soho Pro"
    font-weight="500"
    font-stretch="condensed"
    units-per-em="1000"
    panose-1="2 4 6 6 4 5 6 2 2 4"
    ascent="771"
    descent="-229"
    x-height="558"
    cap-height="743"
    bbox="-106 -222 1213 1033"
    underline-thickness="70"
    underline-position="-15"
    stemh="94"
    stemv="115"
    unicode-range="U+000D-FB16"
  />
<missing-glyph horiz-adv-x="168" 
 />
    <glyph glyph-name="f_i" unicode="fi" horiz-adv-x="545" 
d="M522 0h-195v90l40 4v374h-158v-374l40 -5v-89h-195v89l40 5v374l-75 10v80h75v67c0 102 28 157 127 157c39 0 77 -9 96 -15v-73c-15 1 -43 3 -62 3c-41 0 -46 -16 -46 -72v-67h274v-464l39 -4v-90zM485 652h-120v118h120v-118z" />
    <glyph glyph-name="f_l" unicode="fl" horiz-adv-x="556" 
d="M531 0h-195v89l39 5v599c-26 2 -73 4 -104 4c-49 0 -62 -8 -62 -72v-67h104v-90h-104v-374l39 -5v-89h-194v89l40 5v374l-76 10v80h76v67c0 122 46 157 144 157c48 0 105 -8 138 -12h115v-676l40 -5v-89z" />
    <glyph glyph-name="f_f" unicode="ff" horiz-adv-x="611" 
d="M587 468h-104v-374l40 -5v-89h-195v89l40 5v374h-158v-374l39 -5v-89h-195v89l40 5v374l-75 10v80h75v67c0 100 28 157 128 157c38 0 76 -9 95 -15v-73c-15 1 -43 3 -62 3c-41 0 -45 -17 -45 -72v-67h158v67c0 100 28 157 127 157c38 0 76 -9 96 -15v-73
c-15 1 -43 3 -62 3c-42 0 -46 -16 -46 -72v-67h104v-90z" />
    <glyph glyph-name="f_f_i" unicode="ffi" horiz-adv-x="821" 
d="M794 0h-195v90l40 4v374h-157v-374l40 -5v-89h-195v89l40 5v374h-157v-374l39 -5v-89h-195v89l40 5v374l-75 10v80h75v67c0 101 28 157 128 157c38 0 76 -9 95 -15v-73c-15 1 -43 3 -62 3c-41 0 -45 -16 -45 -72v-67h157v67c0 101 28 157 127 157c39 0 77 -9 96 -15v-73
c-15 1 -43 3 -62 3c-41 0 -46 -16 -46 -72v-67h272v-464l40 -4v-90zM756 652h-119v118h119v-118z" />
    <glyph glyph-name="f_f_l" unicode="ffl" horiz-adv-x="827" 
d="M802 0h-195v89l40 5v599c-26 2 -72 4 -104 4c-48 0 -62 -8 -62 -72v-67h105v-90h-105v-374l40 -5v-89h-195v89l40 5v374h-157v-374l40 -5v-89h-195v89l40 5v374l-75 10v80h75v67c0 101 28 157 127 157c38 0 76 -9 95 -15v-73c-15 1 -43 3 -62 3c-41 0 -45 -16 -45 -72
v-67h157v67c0 122 46 157 145 157c48 0 103 -8 136 -12h115v-676l40 -5v-89z" />
    <glyph glyph-name="f_b" unicode="fb" horiz-adv-x="785" 
d="M480 770v-228c30 19 67 28 101 28c127 0 172 -76 172 -220v-121c0 -168 -58 -240 -217 -240c-51 0 -86 3 -170 11v693c-29 2 -64 4 -100 4c-42 0 -57 -8 -57 -72v-67h104v-90h-104v-374l40 -5v-89h-195v89l40 5v374l-75 10v80h75v67c0 118 45 157 146 157
c47 0 84 -4 126 -12h114zM638 229v121c0 93 -16 123 -77 123c-19 0 -55 -4 -81 -20v-364c18 -2 37 -3 61 -3c71 0 97 25 97 143z" />
    <glyph glyph-name="f_f_b" unicode="ffb" horiz-adv-x="1060" 
d="M1028 229c0 -168 -58 -240 -216 -240c-51 0 -92 3 -170 11v693c-23 2 -64 4 -100 4c-43 0 -58 -8 -58 -72v-67h105v-90h-105v-374l40 -5v-89h-194v89l39 5v374h-160v-374l40 -5v-89h-195v89l40 5v374l-75 9v81h75v67c0 100 27 157 127 157c39 0 73 -8 96 -15v-73
c-19 1 -43 3 -61 3c-42 0 -47 -16 -47 -72v-67h160v67c0 118 47 157 142 157c45 0 97 -6 131 -12h114v-228c29 19 66 28 101 28c126 0 171 -76 171 -220v-121zM913 229v121c0 93 -16 123 -76 123c-20 0 -55 -4 -81 -20v-365c12 -1 35 -2 61 -2c71 0 96 25 96 143z" />
    <glyph glyph-name="f_f_h" unicode="ffh" horiz-adv-x="1091" 
d="M1066 0h-155v374c0 77 -13 99 -59 99c-35 0 -71 -13 -97 -30v-349l40 -5v-89h-195v89l40 5v599c-27 2 -63 4 -94 4c-49 0 -64 -8 -64 -72v-67h104v-90h-104v-374l40 -5v-89h-195v89l40 5v374h-158v-374l40 -5v-89h-195v89l40 5v374l-75 10v80h75v67c0 100 27 157 127 157
c38 0 76 -9 95 -15v-73c-15 1 -43 3 -62 3c-41 0 -45 -16 -45 -72v-67h158v67c0 122 50 157 149 157c44 0 93 -7 124 -12h115v-238c31 19 77 37 130 37c116 0 141 -82 141 -191v-284l40 -5v-89z" />
    <glyph glyph-name="f_f_j" unicode="ffj" horiz-adv-x="812" 
d="M756 -68c0 -99 -33 -146 -126 -146c-33 0 -63 6 -76 9v80c13 -1 28 -1 46 -1c34 0 41 11 41 58v536h-159v-374l40 -5v-89h-195v89l40 5v374h-158v-374l40 -5v-89h-195v89l40 5v374l-75 10v80h75v67c0 100 28 157 127 157c38 0 76 -9 95 -15v-73c-15 1 -42 3 -62 3
c-41 0 -45 -17 -45 -72v-67h158v67c0 100 28 157 128 157c38 0 75 -9 95 -15v-73c-15 1 -43 3 -62 3c-41 0 -46 -16 -46 -72v-67h274v-626zM757 652h-119v118h119v-118z" />
    <glyph glyph-name="f_f_k" unicode="ffk" horiz-adv-x="1050" 
d="M1025 0h-135l-137 263v-263h-154v89l40 5v599c-28 2 -62 4 -94 4c-48 0 -64 -8 -64 -72v-67h104v-90h-104v-374l40 -5v-89h-195v89l40 5v374h-157v-374l40 -5v-89h-195v89l40 5v374l-75 10v80h75v67c0 100 28 157 127 157c38 0 76 -9 95 -15v-73c-15 1 -43 3 -62 3
c-41 0 -45 -16 -45 -72v-67h157v67c0 122 50 157 149 157c45 0 93 -7 124 -12h114v-460l137 248h134v-89l-59 -6l-101 -173l107 -195l54 -6v-89z" />
    <glyph glyph-name="f_h" unicode="fh" horiz-adv-x="818" 
d="M793 0h-156v374c0 77 -12 99 -59 99c-35 0 -70 -13 -96 -30v-349l40 -5v-89h-195v89l40 5v599c-27 2 -63 4 -94 4c-49 0 -64 -8 -64 -72v-67h104v-90h-104v-374l40 -5v-89h-195v89l40 5v374l-75 10v80h75v67c0 122 50 157 149 157c45 0 93 -7 124 -12h115v-238
c30 19 77 37 130 37c116 0 141 -82 141 -191v-284l40 -5v-89z" />
    <glyph glyph-name="f_j" unicode="fj" horiz-adv-x="539" 
d="M483 -68c0 -99 -34 -146 -126 -146c-33 0 -64 6 -77 9v80c14 -1 29 -1 46 -1c35 0 41 11 41 58v536h-158v-374l40 -5v-89h-195v89l40 5v374l-75 10v80h75v67c0 100 28 157 127 157c38 0 76 -9 95 -15v-73c-15 1 -43 3 -62 3c-41 0 -45 -16 -45 -72v-67h274v-626zM484 652
h-120v118h120v-118z" />
    <glyph glyph-name="f_k" unicode="fk" horiz-adv-x="779" 
d="M753 0h-135l-137 263v-263h-154v89l40 5v599c-27 2 -63 4 -94 4c-49 0 -64 -8 -64 -72v-67h104v-90h-104v-374l40 -5v-89h-195v89l40 5v374l-75 10v80h75v67c0 122 50 157 149 157c45 0 93 -7 124 -12h114v-460l137 248h134v-89l-59 -6l-101 -173l107 -195l54 -6v-89z
" />
    <glyph glyph-name=".notdef" horiz-adv-x="168" 
 />
    <glyph glyph-name="CR" unicode="&#xd;" horiz-adv-x="168" 
 />
    <glyph glyph-name="space" unicode=" " horiz-adv-x="168" 
 />
    <glyph glyph-name="numbersign" unicode="#" horiz-adv-x="566" 
d="M519 190h-107l-15 -190h-95l15 190h-106l-15 -190h-96l16 190h-69v85h76l14 182h-90v84h98l16 202h96l-17 -202h106l17 202h95l-16 -202h77v-84h-85l-14 -182h99v-85zM339 457h-106l-15 -182h106z" />
    <glyph glyph-name="dollar" unicode="$" horiz-adv-x="484" 
d="M444 193c0 -111 -54 -178 -152 -197v-117h-105v111c-59 4 -112 14 -136 21v142h81l10 -64c18 0 43 -1 82 -1c68 0 98 35 98 103c0 54 -18 81 -73 119l-88 60c-81 55 -121 108 -121 202c0 98 48 157 147 175v109h105v-103c60 -3 114 -15 135 -21v-137h-82l-10 58
c-21 2 -44 3 -80 3c-63 0 -93 -24 -93 -85c0 -47 17 -74 71 -111l84 -57c84 -57 127 -115 127 -210z" />
    <glyph glyph-name="percent" unicode="%" horiz-adv-x="898" 
d="M862 188c0 -119 -39 -197 -153 -197c-115 0 -154 78 -154 197v70c0 119 39 196 154 196c114 0 153 -77 153 -196v-70zM769 188v70c0 95 -21 119 -60 119c-40 0 -60 -24 -60 -119v-70c0 -95 20 -119 60 -119c39 0 60 24 60 119zM680 744l-363 -744h-101l363 744h101z
M343 488c0 -113 -33 -197 -153 -197c-121 0 -153 86 -153 197v69c0 112 32 197 153 197c120 0 153 -83 153 -197v-69zM250 488v69c0 93 -16 120 -60 120s-60 -29 -60 -120v-69c0 -93 16 -120 60 -120s60 27 60 120z" />
    <glyph glyph-name="ampersand" unicode="&#x26;" horiz-adv-x="593" 
d="M439 0l-29 37c-41 -30 -95 -48 -164 -48c-121 0 -209 49 -209 192v6c0 86 34 150 102 204c-44 60 -79 116 -79 192v5c0 113 71 166 196 166c76 0 146 -15 173 -22v-135h-81l-11 60c-26 2 -52 2 -79 2c-50 0 -83 -18 -83 -75v-5c0 -53 27 -92 57 -132l185 -243
c15 49 18 104 18 153l-41 6v72h176v-72l-41 -6c0 -85 -13 -170 -49 -236l75 -98v-23h-116zM253 77c44 0 78 11 103 31l-154 201c-31 -29 -48 -67 -48 -122v-6c0 -72 39 -104 99 -104z" />
    <glyph glyph-name="quoteright" unicode="&#x2019;" horiz-adv-x="212" 
d="M182 770l-66 -236h-86l40 236h112z" />
    <glyph glyph-name="parenleft" unicode="(" horiz-adv-x="288" 
d="M267 -200h-107c-60 104 -119 267 -119 467v8c0 201 59 364 119 468h107c-68 -130 -110 -277 -110 -468v-8c0 -190 42 -337 110 -467z" />
    <glyph glyph-name="parenright" unicode=")" horiz-adv-x="288" 
d="M246 267c0 -200 -59 -363 -118 -467h-107c68 130 110 277 110 467v8c0 191 -42 338 -110 468h107c59 -104 118 -267 118 -468v-8z" />
    <glyph glyph-name="asterisk" unicode="*" horiz-adv-x="479" 
d="M442 590l-56 -18c-25 -8 -53 -15 -81 -19c21 -19 39 -41 54 -61l35 -47l-78 -56l-35 48c-15 21 -30 44 -43 70c-12 -26 -27 -49 -42 -70l-34 -47l-79 55l35 48c15 20 33 42 55 61c-29 4 -56 11 -80 19l-56 17l29 90l57 -18c24 -7 50 -18 75 -32c-5 28 -7 55 -7 81v59h97
v-59c0 -26 -3 -54 -9 -82c26 14 52 24 77 32l56 19z" />
    <glyph glyph-name="plus" unicode="+" horiz-adv-x="512" 
d="M470 345h-167v-167h-92v167h-169v90h169v167h92v-167h167v-90z" />
    <glyph glyph-name="comma" unicode="," horiz-adv-x="233" 
d="M204 146l-94 -240h-97l66 240h125z" />
    <glyph glyph-name="hyphen" unicode="-" horiz-adv-x="277" 
d="M242 249h-207v89h207v-89z" />
    <glyph glyph-name="period" unicode="." horiz-adv-x="203" 
d="M159 0h-115v146h115v-146z" />
    <glyph glyph-name="slash" unicode="/" horiz-adv-x="343" 
d="M341 743l-224 -743h-114l223 743h115z" />
    <glyph glyph-name="zero" unicode="0" horiz-adv-x="514" 
d="M477 284c0 -179 -52 -296 -220 -296s-220 117 -220 296v175c0 179 52 295 220 295s220 -116 220 -295v-175zM356 284v175c0 148 -29 197 -99 197c-69 0 -99 -49 -99 -197v-175c0 -148 30 -198 99 -198c70 0 99 50 99 198z" />
    <glyph glyph-name="one" unicode="1" horiz-adv-x="461" 
d="M426 0h-391v89l136 7v534l-136 -45v96l166 64h90v-649l135 -7v-89z" />
    <glyph glyph-name="two" unicode="2" horiz-adv-x="473" 
d="M427 0h-387v95c0 165 47 222 169 317c96 75 108 101 108 156c0 71 -30 92 -118 92c-17 0 -43 -2 -66 -3l-9 -62h-80v136c24 7 103 23 174 23c150 0 220 -55 220 -182c0 -79 -28 -136 -149 -231c-114 -89 -133 -122 -133 -226v-16h182l9 56h80v-155z" />
    <glyph glyph-name="three" unicode="3" horiz-adv-x="476" 
d="M439 196c0 -158 -79 -208 -227 -208c-70 0 -143 17 -169 25v139h80l10 -66c22 -2 46 -2 69 -2c78 0 116 15 116 116v28c0 69 -14 110 -91 110h-154v89h154c77 0 91 40 91 108v16c0 91 -30 108 -117 108c-21 0 -46 -1 -67 -2l-9 -62h-81v136c20 6 98 23 168 23
c148 0 227 -46 227 -199v-15c0 -74 -23 -126 -74 -157c52 -31 74 -84 74 -158v-29z" />
    <glyph glyph-name="four" unicode="4" horiz-adv-x="509" 
d="M482 187h-79v-105l40 -5v-77h-201v77l40 5v105h-258v104l262 452h117v-462h79v-94zM286 281v293l-163 -293h163z" />
    <glyph glyph-name="five" unicode="5" horiz-adv-x="470" 
d="M433 204c0 -165 -87 -216 -230 -216c-77 0 -148 18 -169 24v140h80l10 -66c21 -2 43 -3 64 -3c90 0 124 22 124 121v35c0 90 -21 122 -128 122h-140l25 382h346v-149h-80l-9 51h-156l-12 -192h46c185 0 229 -81 229 -214v-35z" />
    <glyph glyph-name="six" unicode="6" horiz-adv-x="507" 
d="M470 217c0 -190 -115 -229 -214 -229c-124 0 -219 45 -219 260v240c0 169 45 266 234 266c72 0 145 -15 172 -22v-137h-80l-10 62c-22 1 -48 2 -71 2c-118 0 -125 -56 -125 -166v-42c28 7 75 14 110 14c120 0 203 -41 203 -193v-55zM350 217v49c0 90 -24 114 -96 114
c-24 0 -64 -3 -97 -12v-128c0 -114 28 -159 99 -159c64 0 94 48 94 136z" />
    <glyph glyph-name="seven" unicode="7" horiz-adv-x="463" 
d="M436 631l-242 -631h-127l256 645h-201l-9 -52h-80v150h403v-112z" />
    <glyph glyph-name="eight" unicode="8" horiz-adv-x="521" 
d="M483 211c0 -207 -114 -223 -221 -223h-3c-108 0 -221 16 -221 223v9c0 87 23 132 71 167c-41 29 -69 72 -69 154v12c0 159 95 201 219 201h3c124 0 219 -42 219 -201v-12c0 -82 -28 -125 -69 -154c48 -35 71 -80 71 -167v-9zM363 212v9c0 87 -17 121 -73 121h-59
c-56 0 -74 -34 -74 -121v-9c0 -112 37 -131 102 -131h3c65 0 101 19 101 131zM362 540v12c0 88 -35 111 -100 111h-3c-66 0 -101 -23 -101 -111v-12c0 -69 18 -110 73 -110h59c55 0 72 41 72 110z" />
    <glyph glyph-name="nine" unicode="9" horiz-adv-x="507" 
d="M470 256c0 -168 -45 -267 -234 -267c-72 0 -145 15 -172 23v138h80l10 -63c22 -2 48 -3 72 -3c117 0 124 57 124 166v43c-28 -8 -75 -15 -110 -15c-120 0 -203 41 -203 193v55c0 190 115 229 214 229c124 0 219 -44 219 -258v-241zM350 376v128c0 113 -28 158 -99 158
c-64 0 -94 -48 -94 -136v-49c0 -89 24 -114 96 -114c24 0 64 4 97 13z" />
    <glyph glyph-name="colon" unicode=":" horiz-adv-x="214" 
d="M164 0h-115v146h115v-146zM164 554v-146h-115v146h115z" />
    <glyph glyph-name="semicolon" unicode=";" horiz-adv-x="235" 
d="M194 146l-97 -239h-96l65 239h128zM184 408h-115v146h115v-146z" />
    <glyph glyph-name="less" unicode="&#x3c;" horiz-adv-x="512" 
d="M430 135h-129l-219 255l219 254h129l-218 -254z" />
    <glyph glyph-name="equal" unicode="=" horiz-adv-x="512" 
d="M440 223h-368v92h368v-92zM440 463h-368v92h368v-92z" />
    <glyph glyph-name="greater" unicode="&#x3e;" horiz-adv-x="512" 
d="M430 390l-219 -255h-129l218 255l-218 254h129z" />
    <glyph glyph-name="question" unicode="?" horiz-adv-x="399" 
d="M26 761c41 11 99 19 146 19c128 0 189 -37 189 -162v-6c0 -53 -13 -106 -68 -180c-70 -94 -86 -121 -86 -183v-42h-103v42c0 75 7 121 68 206c46 64 60 100 60 146v5c0 60 -22 75 -76 75c-16 0 -31 0 -43 -1l-10 -54h-77v135zM99 146v-146h114v146h-114z" />
    <glyph glyph-name="at" unicode="@" horiz-adv-x="659" 
d="M626 370c0 -187 -79 -320 -288 -320c-126 0 -167 55 -168 146c0 18 2 55 4 81c10 168 68 212 165 212c49 0 98 -11 136 -23l-25 -323c71 32 105 112 105 227c0 151 -60 230 -197 230c-142 0 -222 -83 -247 -311c-4 -40 -8 -84 -8 -133c0 -110 40 -210 203 -210
c63 0 129 8 141 9v-51c-9 -2 -77 -15 -141 -15c-203 0 -273 118 -273 268c0 49 4 100 9 139c29 257 131 364 316 364c178 0 268 -104 268 -290zM374 409c-11 2 -24 3 -37 3c-39 0 -61 -17 -70 -138c-3 -43 -3 -61 -3 -78c0 -54 17 -73 67 -73h23z" />
    <glyph glyph-name="A" unicode="A" horiz-adv-x="590" 
d="M219 0h-199v90l40 4l123 554l-41 6v89h242l145 -649l41 -4v-90h-200v89l34 4l-27 129h-165l-28 -129l35 -4v-89zM359 323l-42 199c-10 46 -14 91 -19 130h-6c-5 -39 -9 -82 -19 -130l-43 -199h129z" />
    <glyph glyph-name="B" unicode="B" horiz-adv-x="530" 
d="M497 211c0 -176 -106 -214 -255 -214c-70 0 -135 1 -213 3v90l41 5v552l-41 6v90c76 3 146 4 214 4c152 0 251 -36 251 -196v-12c0 -68 -25 -128 -77 -156c56 -29 80 -92 80 -159v-13zM379 211v14c0 72 -22 115 -105 115h-86v-245h60c85 0 131 18 131 116zM376 537v12
c0 89 -46 100 -127 100h-61v-221h86c83 0 102 41 102 109z" />
    <glyph glyph-name="C" unicode="C" horiz-adv-x="461" 
d="M429 8c-26 -7 -95 -20 -148 -20c-142 0 -247 47 -247 305v157c0 258 105 304 247 304c53 0 122 -12 148 -19v-143h-82l-10 57c-16 0 -32 1 -48 1c-87 0 -134 -29 -134 -200v-157c0 -171 47 -201 135 -201c15 0 32 1 47 2l10 59h82v-145z" />
    <glyph glyph-name="D" unicode="D" horiz-adv-x="555" 
d="M518 298c0 -182 -56 -301 -271 -301c-71 0 -147 1 -218 3v89l41 7v552l-41 6v89c71 3 144 4 218 4c212 0 271 -118 271 -299v-150zM398 298v150c0 148 -35 197 -150 197h-59v-547h59c115 0 150 53 150 200z" />
    <glyph glyph-name="E" unicode="E" horiz-adv-x="470" 
d="M438 0h-409v89l39 5v555l-39 5v89h409v-150h-82l-9 50h-158v-210h233v-98h-233v-235h158l9 52h82v-152z" />
    <glyph glyph-name="F" unicode="F" horiz-adv-x="465" 
d="M423 334h-233v-240l40 -5v-89h-201v89l41 6v554l-41 5v89h410v-150h-82l-9 50h-158v-210h233v-99z" />
    <glyph glyph-name="G" unicode="G" horiz-adv-x="502" 
d="M466 9c-30 -7 -108 -21 -187 -21c-132 0 -245 48 -245 301v165c0 265 128 300 248 300c82 0 164 -17 182 -22v-140h-82l-10 55c-20 1 -46 3 -68 3c-94 0 -149 -16 -149 -196v-165c0 -170 45 -197 134 -197c21 0 41 1 60 2v205l-70 7v83h187v-380z" />
    <glyph glyph-name="H" unicode="H" horiz-adv-x="610" 
d="M379 743h202v-89l-41 -5v-555l41 -4v-90h-202v89l41 5v244h-230v-244l41 -5v-89h-202v90l41 4v555l-41 5v89h202v-89l-41 -5v-208h230v208l-41 5v89z" />
    <glyph glyph-name="I" unicode="I" horiz-adv-x="262" 
d="M231 0h-201v90l41 4v555l-41 5v89h201v-89l-40 -5v-555l40 -4v-90z" />
    <glyph glyph-name="J" unicode="J" horiz-adv-x="256" 
d="M226 654l-41 -5v-714c0 -106 -43 -146 -137 -146c-25 0 -59 5 -78 11v81h54c36 0 41 13 41 52v716l-40 5v89h201v-89z" />
    <glyph glyph-name="K" unicode="K" horiz-adv-x="545" 
d="M230 0h-201v90l39 4v555l-39 5v89h201v-89l-41 -5v-250l198 344h134v-89l-47 -5l-163 -272l164 -283l46 -4v-90h-142l-190 349v-255l41 -5v-89z" />
    <glyph glyph-name="L" unicode="L" horiz-adv-x="445" 
d="M420 0h-391v90l39 4v555l-39 5v89h200v-89l-40 -5v-548h140l9 55h82v-156z" />
    <glyph glyph-name="M" unicode="M" horiz-adv-x="680" 
d="M226 0h-197v90l39 4v555l-39 5v89h177l99 -261c12 -31 23 -65 33 -97h2c10 32 21 66 33 97l100 261h178v-89l-40 -5v-555l40 -4v-90h-198v89l41 5v341c0 53 3 104 6 153h-2c-13 -41 -25 -84 -40 -122l-69 -177h-100l-68 178c-14 38 -28 80 -40 121h-2c4 -49 6 -99 6 -153
v-341l41 -5v-89z" />
    <glyph glyph-name="N" unicode="N" horiz-adv-x="600" 
d="M377 743h193v-89l-40 -5v-649h-141l-175 474c-12 32 -26 72 -39 113h-2c4 -45 7 -96 7 -143v-350l41 -5v-89h-192v90l40 4v555l-40 5v89h182l172 -455c12 -32 29 -79 40 -116h2c-4 52 -7 109 -7 150v327l-41 5v89z" />
    <glyph glyph-name="O" unicode="O" horiz-adv-x="542" 
d="M508 303c0 -204 -73 -315 -237 -315c-163 0 -237 111 -237 315v137c0 205 75 314 237 314c163 0 237 -109 237 -314v-137zM388 303v137c0 149 -34 211 -117 211c-82 0 -116 -62 -116 -211v-137c0 -150 34 -212 116 -212s117 62 117 212z" />
    <glyph glyph-name="P" unicode="P" 
d="M234 0h-205v89l41 5v555l-41 5v90c69 2 137 3 208 3c146 0 256 -37 256 -224v-15c0 -186 -110 -228 -249 -228h-56v-186l46 -5v-89zM374 508v15c0 102 -40 123 -132 123h-54v-265h54c92 0 132 26 132 127z" />
    <glyph glyph-name="Q" unicode="Q" horiz-adv-x="542" 
d="M508 302c0 -175 -55 -286 -180 -308v-65c0 -33 5 -37 48 -37h61v-76c-14 -5 -59 -14 -104 -14c-75 0 -120 25 -120 124v68c-125 23 -179 134 -179 308v138c0 205 76 314 237 314c162 0 237 -109 237 -314v-138zM388 303v137c0 150 -35 211 -117 211s-116 -61 -116 -211
v-137c0 -150 34 -212 116 -212s117 62 117 212z" />
    <glyph glyph-name="R" unicode="R" horiz-adv-x="553" 
d="M229 0h-200v90l41 4v555l-41 5v89c66 2 134 3 203 3c146 0 260 -39 260 -223v-9c0 -110 -35 -169 -100 -204l93 -216l48 -4v-90h-136l-120 284c-12 -1 -26 -1 -38 -1h-51v-189l41 -5v-89zM373 513v9c0 102 -39 124 -137 124h-48v-266h52c100 0 133 35 133 133z" />
    <glyph glyph-name="S" unicode="S" horiz-adv-x="465" 
d="M434 193c0 -133 -74 -205 -213 -205c-78 0 -152 15 -179 23v141h81l9 -61c43 -4 49 -4 76 -4c73 0 104 28 104 104c0 54 -18 81 -73 119l-87 60c-80 55 -121 107 -121 202c0 122 70 182 213 182c76 0 147 -15 173 -22v-136h-81l-10 57c-40 3 -50 3 -71 3
c-71 0 -102 -23 -102 -85c0 -50 17 -76 71 -113l84 -57c86 -58 126 -113 126 -208z" />
    <glyph glyph-name="T" unicode="T" horiz-adv-x="506" 
d="M482 593h-81l-9 51h-79v-551l41 -4v-89h-202v89l41 4v551h-79l-9 -51h-81v150h458v-150z" />
    <glyph glyph-name="U" unicode="U" horiz-adv-x="592" 
d="M362 743h201v-89l-40 -5v-374c0 -161 -54 -287 -227 -287s-226 126 -226 287v374l-41 5v89h202v-89l-41 -5v-360c0 -143 17 -199 106 -199s107 56 107 199v360l-41 5v89z" />
    <glyph glyph-name="V" unicode="V" horiz-adv-x="589" 
d="M368 743h200v-89l-41 -5l-144 -649h-178l-145 649l-40 5v89h200v-89l-36 -5l87 -419c12 -60 17 -99 22 -140h2c5 41 10 80 22 140l86 419l-35 5v89z" />
    <glyph glyph-name="W" unicode="W" horiz-adv-x="763" 
d="M546 743h197v-89l-41 -5l-82 -649h-158l-63 335c-6 32 -12 78 -16 107h-3c-4 -29 -10 -75 -16 -107l-62 -335h-160l-82 649l-40 5v89h198v-89l-38 -5l41 -377c6 -53 9 -99 13 -145h3c6 42 11 90 21 141l53 269h141l54 -272c10 -50 15 -100 20 -138h4c2 48 7 93 13 145
l41 377l-38 5v89z" />
    <glyph glyph-name="X" unicode="X" horiz-adv-x="549" 
d="M349 93l-85 168l-77 -168l38 -4v-89h-205v89l45 6l139 285l-135 268l-45 6v89h213v-89l-36 -4l81 -162l74 162l-37 4v89h205v-89l-45 -6l-137 -277l139 -276l47 -6v-89h-212v89z" />
    <glyph glyph-name="Y" unicode="Y" horiz-adv-x="515" 
d="M303 743h192v-89l-41 -6l-137 -358v-196l40 -5v-89h-200v89l41 5v195l-138 359l-40 6v89h194v-89l-34 -4l44 -126c16 -45 24 -76 33 -112h2c8 36 17 67 33 112l44 126l-33 4v89z" />
    <glyph glyph-name="Z" unicode="Z" horiz-adv-x="476" 
d="M447 0h-418v114l277 530h-178l-10 -52h-80v151h400v-114l-277 -529h196l10 55h80v-155z" />
    <glyph glyph-name="bracketleft" unicode="[" horiz-adv-x="306" 
d="M278 -201h-219v944h219v-93h-104v-759h104v-92z" />
    <glyph glyph-name="backslash" unicode="\" horiz-adv-x="353" 
d="M345 0h-114l-222 743h113z" />
    <glyph glyph-name="bracketright" unicode="]" horiz-adv-x="306" 
d="M247 -201h-219v92h104v760h-104v92h219v-944z" />
    <glyph glyph-name="asciicircum" unicode="^" horiz-adv-x="537" 
d="M478 408h-114l-96 283l-96 -283h-114l119 336h182z" />
    <glyph glyph-name="underscore" unicode="_" horiz-adv-x="438" 
d="M452 -120h-466v70h466v-70z" />
    <glyph glyph-name="quoteleft" unicode="&#x2018;" horiz-adv-x="212" 
d="M182 770l-40 -236h-112l66 236h86z" />
    <glyph glyph-name="a" unicode="a" horiz-adv-x="465" 
d="M439 0h-145v31c-29 -22 -77 -42 -130 -42c-96 0 -132 58 -132 152v28c0 132 78 164 208 164h43v47c0 80 -12 95 -87 95c-16 0 -31 0 -47 -1l-10 -48h-79v117c19 7 86 26 158 26c139 0 181 -52 181 -189v-286l40 -5v-89zM286 99v162h-45c-73 0 -97 -17 -97 -90v-36
c0 -50 19 -62 55 -62c35 0 70 15 87 26z" />
    <glyph glyph-name="b" unicode="b" horiz-adv-x="461" 
d="M429 229c0 -168 -58 -240 -217 -240c-52 0 -89 3 -169 12v676l-40 5v89h154v-229c28 19 66 28 100 28c127 0 172 -76 172 -220v-121zM314 229v121c0 93 -16 123 -77 123c-19 0 -55 -4 -81 -20v-365c17 -1 36 -2 61 -2c71 0 97 25 97 143z" />
    <glyph glyph-name="c" unicode="c" horiz-adv-x="391" 
d="M362 10c-27 -10 -77 -21 -137 -21c-141 0 -190 85 -190 236v109c0 151 49 235 190 235c60 0 113 -11 137 -21v-123h-79l-9 47c-10 1 -24 1 -31 1c-64 0 -93 -22 -93 -139v-109c0 -117 29 -140 93 -140c28 0 67 3 119 8v-83z" />
    <glyph glyph-name="d" unicode="d" horiz-adv-x="488" 
d="M462 0h-148v26c-31 -22 -72 -37 -121 -37c-112 0 -158 78 -158 222v122c0 178 69 236 194 236c27 0 52 -3 78 -8v120l-51 4v85h166v-676l40 -5v-89zM308 107v360c-26 4 -52 7 -70 7c-60 0 -88 -19 -88 -141v-122c0 -92 18 -126 77 -126c28 0 55 8 81 22z" />
    <glyph glyph-name="e" unicode="e" horiz-adv-x="461" 
d="M431 242h-283v-13c0 -112 12 -146 111 -146c44 0 107 5 154 13v-85c-30 -10 -90 -22 -162 -22c-155 0 -218 60 -218 252v67c0 175 62 261 199 261c150 0 199 -99 199 -267v-60zM317 321v12c0 87 -10 143 -84 143s-85 -56 -85 -143v-12h169z" />
    <glyph glyph-name="f" unicode="f" horiz-adv-x="336" 
d="M313 468h-104v-374l40 -5v-89h-195v89l40 5v374l-75 9v81h75v67c0 100 28 157 127 157c38 0 73 -8 96 -15v-73c-19 1 -43 3 -62 3c-42 0 -46 -16 -46 -72v-67h104v-90z" />
    <glyph glyph-name="g" unicode="g" horiz-adv-x="473" 
d="M440 -37c0 -114 -64 -178 -207 -178c-141 0 -202 64 -202 174c0 43 16 89 43 120c-27 20 -40 46 -40 80c0 36 15 66 44 86c-25 29 -39 72 -39 135c0 107 34 189 198 189h208v-73l-44 -8c11 -18 27 -56 27 -108c0 -126 -67 -189 -195 -189c-35 0 -66 6 -87 13
c-12 -10 -18 -23 -18 -36c0 -24 11 -31 45 -31h59c133 0 208 -28 208 -174zM327 -39c0 75 -17 91 -95 91h-69c-13 -17 -22 -43 -22 -91c0 -63 17 -94 93 -94c73 0 93 31 93 94zM316 380c0 65 -14 103 -83 103c-70 0 -82 -39 -82 -103s13 -103 82 -103s83 39 83 103z" />
    <glyph glyph-name="h" unicode="h" horiz-adv-x="518" 
d="M492 0h-155v374c0 77 -13 99 -60 99c-34 0 -70 -13 -96 -30v-349l40 -5v-89h-195v89l40 5v582l-40 5v89h155v-238c30 19 77 37 130 37c116 0 141 -82 141 -191v-284l40 -5v-89z" />
    <glyph glyph-name="i" unicode="i" horiz-adv-x="248" 
d="M221 0h-195v90l40 4v369l-40 6v89h156v-464l39 -4v-90zM184 652h-120v118h120v-118z" />
    <glyph glyph-name="j" unicode="j" horiz-adv-x="237" 
d="M181 -69c0 -105 -33 -146 -131 -146c-27 0 -58 3 -71 7v81h45c35 0 42 11 42 58v533l-41 5v89h156v-627zM182 652h-119v118h119v-118z" />
    <glyph glyph-name="k" unicode="k" horiz-adv-x="477" 
d="M451 0h-136l-134 263v-263h-155v89l40 5v582l-40 5v89h155v-460l134 248h135v-89l-57 -5l-101 -174l107 -195l52 -6v-89z" />
    <glyph glyph-name="l" unicode="l" horiz-adv-x="247" 
d="M221 0h-195v89l40 5v582l-40 5v89h155v-676l40 -5v-89z" />
    <glyph glyph-name="m" unicode="m" horiz-adv-x="735" 
d="M709 0h-156v391c0 55 0 84 -47 84c-24 0 -57 -14 -83 -31c3 -19 3 -36 3 -53v-391h-117v391c0 55 0 84 -44 84c-28 0 -62 -17 -84 -32v-349l40 -5v-89h-195v89l40 5v370l-40 5v89h150v-38c37 32 84 49 127 49c50 0 80 -17 100 -50c46 35 91 50 132 50
c125 0 133 -93 133 -177v-298l41 -5v-89z" />
    <glyph glyph-name="n" unicode="n" horiz-adv-x="518" 
d="M492 0h-155v378c0 74 -9 97 -54 97c-28 0 -62 -12 -102 -34v-347l40 -5v-89h-195v89l40 5v370l-40 5v89h150v-38c41 27 87 49 139 49c121 0 137 -74 137 -191v-284l40 -5v-89z" />
    <glyph glyph-name="o" unicode="o" horiz-adv-x="467" 
d="M433 226c0 -167 -71 -237 -200 -237c-128 0 -199 70 -199 237v106c0 166 71 237 199 237c129 0 200 -70 200 -237v-106zM318 226v106c0 106 -25 141 -85 141c-59 0 -85 -34 -85 -141v-106c0 -106 26 -141 85 -141c60 0 85 34 85 141z" />
    <glyph glyph-name="p" unicode="p" horiz-adv-x="486" 
d="M221 -204h-195v90l40 4v574l-40 5v89h148v-31c37 28 84 42 126 42c106 0 153 -68 153 -220v-124c0 -175 -74 -236 -198 -236c-23 0 -53 4 -74 9v-108l40 -4v-90zM337 225v124c0 93 -18 123 -72 123c-26 0 -51 -6 -85 -25v-355c25 -5 48 -7 69 -7c58 0 88 21 88 140z" />
    <glyph glyph-name="q" unicode="q" horiz-adv-x="464" 
d="M457 -204h-194v90l40 4v127c-34 -19 -71 -28 -107 -28c-122 0 -165 72 -165 221v121c0 175 53 238 216 238c51 0 93 -2 170 -12v-667l40 -5v-89zM303 107v364c-17 1 -43 2 -59 2c-73 0 -98 -17 -98 -142v-121c0 -93 13 -124 71 -124c20 0 51 5 86 21z" />
    <glyph glyph-name="r" unicode="r" horiz-adv-x="347" 
d="M327 468c-46 0 -109 -10 -146 -28v-346l40 -5v-89h-195v89l40 5v370l-40 5v89h148v-40c48 44 107 51 153 51v-101z" />
    <glyph glyph-name="s" unicode="s" horiz-adv-x="398" 
d="M368 147c0 -92 -53 -158 -185 -158c-53 0 -120 11 -149 19v129h80l9 -54c32 -2 43 -2 60 -2c54 0 70 20 70 66c0 36 -14 52 -78 93l-30 19c-85 54 -116 99 -116 172c0 92 59 138 179 138c46 0 116 -8 148 -19v-119h-80l-10 45c-16 1 -36 2 -54 2c-46 0 -68 -11 -68 -47
s15 -52 68 -86l34 -22c94 -61 122 -97 122 -176z" />
    <glyph glyph-name="t" unicode="t" horiz-adv-x="346" 
d="M319 3c-14 -5 -52 -14 -95 -14c-89 0 -121 41 -121 135v344l-78 9v81h78v132h115v-132h100v-90h-100v-339c0 -44 2 -52 39 -52c20 0 53 3 62 3v-77z" />
    <glyph glyph-name="u" unicode="u" horiz-adv-x="518" 
d="M492 0h-152v38c-42 -27 -89 -49 -143 -49c-117 0 -131 90 -131 191v284l-40 5v89h155v-378c0 -74 8 -97 56 -97c26 0 60 12 100 34v347l-40 5v89h155v-464l40 -5v-89z" />
    <glyph glyph-name="v" unicode="v" horiz-adv-x="500" 
d="M286 558h191v-89l-40 -6l-107 -463h-162l-107 463l-40 6v89h193v-90l-36 -4l45 -234c11 -59 18 -108 26 -154h2c7 46 15 95 26 154l45 234l-36 4v90z" />
    <glyph glyph-name="w" unicode="w" horiz-adv-x="735" 
d="M524 558h189v-89l-43 -5l-71 -464h-146l-66 274c-11 47 -15 77 -18 105h-3c-4 -29 -7 -58 -18 -105l-67 -274h-144l-72 464l-42 5v89h190v-90l-35 -4l28 -221c6 -50 10 -93 14 -133h4c8 42 14 83 25 131l56 235h127l56 -234c12 -48 18 -90 26 -132h3c4 41 8 84 14 133
l27 221l-34 4v90z" />
    <glyph glyph-name="x" unicode="x" horiz-adv-x="478" 
d="M329 0l-100 181l-88 -181h-118v89l46 6l102 193l-96 175l-48 6v89h129l91 -169l82 169h120v-89l-49 -5l-97 -179l104 -191l47 -5v-89h-125z" />
    <glyph glyph-name="y" unicode="y" horiz-adv-x="513" 
d="M293 558h198v-89l-45 -5l-120 -480c-32 -131 -62 -199 -185 -199c-40 0 -78 6 -103 13v82c33 -2 56 -3 79 -3c55 0 62 23 81 107l4 18l-134 462l-47 5v89h199v-90l-35 -4l46 -196c12 -51 19 -85 29 -154h2c9 69 14 99 25 152l42 198l-36 4v90z" />
    <glyph glyph-name="z" unicode="z" horiz-adv-x="400" 
d="M371 0h-342v113l221 354h-128l-10 -42h-75v133h333v-108l-222 -359h138l10 51h75v-142z" />
    <glyph glyph-name="braceleft" unicode="{" horiz-adv-x="324" 
d="M295 -204h-49c-144 0 -171 58 -171 154v166c0 72 -11 88 -48 120v68c37 32 48 48 48 120v164c0 100 27 155 171 155h48v-92h-45c-53 0 -59 -10 -59 -63v-164c0 -81 -21 -119 -65 -154c43 -35 66 -73 66 -154v-166c0 -52 5 -61 58 -61h46v-93z" />
    <glyph glyph-name="bar" unicode="|" horiz-adv-x="232" 
d="M173 -204h-114v947h114v-947z" />
    <glyph glyph-name="braceright" unicode="}" horiz-adv-x="324" 
d="M297 236c-37 -32 -48 -48 -48 -120v-166c0 -96 -27 -154 -172 -154h-48v93h46c53 0 58 9 58 61v166c0 81 23 119 66 154c-44 35 -65 73 -65 154v164c0 53 -6 63 -59 63h-45v92h47c145 0 172 -55 172 -155v-164c0 -72 11 -88 48 -120v-68z" />
    <glyph glyph-name="asciitilde" unicode="~" horiz-adv-x="536" 
d="M477 463c0 -83 -27 -135 -108 -135c-45 0 -73 11 -103 41l-40 40c-18 18 -28 28 -46 28c-25 0 -30 -16 -30 -49v-57h-92v57c0 85 34 136 115 136c40 0 67 -15 97 -45l39 -39c18 -18 28 -26 48 -26c26 0 29 18 29 49v57h91v-57z" />
    <glyph glyph-name="Aacute" unicode="&#xc1;" horiz-adv-x="590" 
d="M219 0h-199v90l40 4l123 554l-41 6v89h242l145 -649l41 -4v-90h-200v89l34 4l-27 129h-165l-28 -129l35 -4v-89zM359 323l-42 199c-10 46 -14 91 -19 130h-6c-5 -39 -9 -82 -19 -130l-43 -199h129zM455 938l-117 -148h-106l97 148h126z" />
    <glyph glyph-name="Agrave" unicode="&#xc0;" horiz-adv-x="590" 
d="M219 0h-199v90l40 4l123 554l-41 6v89h242l145 -649l41 -4v-90h-200v89l34 4l-27 129h-165l-28 -129l35 -4v-89zM359 323l-42 199c-10 46 -14 91 -19 130h-6c-5 -39 -9 -82 -19 -130l-43 -199h129zM367 790h-105l-118 148h127z" />
    <glyph glyph-name="Acircumflex" unicode="&#xc2;" horiz-adv-x="590" 
d="M219 0h-199v90l40 4l123 554l-41 6v89h242l145 -649l41 -4v-90h-200v89l34 4l-27 129h-165l-28 -129l35 -4v-89zM359 323l-42 199c-10 46 -14 91 -19 130h-6c-5 -39 -9 -82 -19 -130l-43 -199h129zM469 790h-100l-74 95l-74 -95h-100l102 148h144z" />
    <glyph glyph-name="Adieresis" unicode="&#xc4;" horiz-adv-x="590" 
d="M219 0h-199v90l40 4l123 554l-41 6v89h242l145 -649l41 -4v-90h-200v89l34 4l-27 129h-165l-28 -129l35 -4v-89zM359 323l-42 199c-10 46 -14 91 -19 130h-6c-5 -39 -9 -82 -19 -130l-43 -199h129zM442 802h-100v117h100v-117zM250 802v117h-101v-117h101z" />
    <glyph glyph-name="Atilde" unicode="&#xc3;" horiz-adv-x="590" 
d="M219 0h-199v90l40 4l123 554l-41 6v89h242l145 -649l41 -4v-90h-200v89l34 4l-27 129h-165l-28 -129l35 -4v-89zM359 323l-42 199c-10 46 -14 91 -19 130h-6c-5 -39 -9 -82 -19 -130l-43 -199h129zM475 903c0 -75 -31 -117 -97 -117c-33 0 -64 8 -92 38l-30 31
c-16 17 -21 21 -37 21c-19 0 -27 -14 -27 -44v-42h-75v42c0 74 34 117 98 117c34 0 58 -8 86 -37l30 -31c17 -17 26 -22 44 -22c17 0 24 13 24 44v42h76v-42z" />
    <glyph glyph-name="Amacron" unicode="&#x100;" horiz-adv-x="590" 
d="M219 0h-199v90l40 4l123 554l-41 6v89h242l145 -649l41 -4v-90h-200v89l34 4l-27 129h-165l-28 -129l35 -4v-89zM359 323l-42 199c-10 46 -14 91 -19 130h-6c-5 -39 -9 -82 -19 -130l-43 -199h129zM444 802h-297v80h297v-80z" />
    <glyph glyph-name="Aring" unicode="&#xc5;" horiz-adv-x="590" 
d="M219 0h-199v90l40 4l123 554l-41 6v89h242l145 -649l41 -4v-90h-200v89l34 4l-27 129h-165l-28 -129l35 -4v-89zM359 323l-42 199c-10 46 -14 91 -19 130h-6c-5 -39 -9 -82 -19 -130l-43 -199h129zM410 875c0 -78 -48 -114 -114 -114s-116 36 -116 114
c0 79 50 115 116 115s114 -36 114 -115zM342 875c0 43 -20 55 -46 55c-27 0 -46 -12 -46 -55c0 -41 19 -54 46 -54c26 0 46 13 46 54z" />
    <glyph glyph-name="Abreve" unicode="&#x102;" horiz-adv-x="590" 
d="M219 0h-199v90l40 4l123 554l-41 6v89h242l145 -649l41 -4v-90h-200v89l34 4l-27 129h-165l-28 -129l35 -4v-89zM359 323l-42 199c-10 46 -14 91 -19 130h-6c-5 -39 -9 -82 -19 -130l-43 -199h129zM446 942c-8 -93 -49 -153 -150 -153c-102 0 -143 60 -151 153h79
c5 -69 25 -88 72 -88c46 0 66 19 72 88h78z" />
    <glyph glyph-name="Aogonek" unicode="&#x104;" horiz-adv-x="590" 
d="M570 -200c-23 -7 -56 -13 -91 -13c-77 0 -118 29 -118 94c0 44 28 83 88 119h-79v89l34 4l-27 129h-165l-28 -129l35 -4v-89h-199v90l40 4l123 554l-41 6v89h242l145 -649l41 -4v-90c-95 -55 -109 -78 -109 -108c0 -24 11 -35 48 -35c23 0 45 2 61 3v-60zM359 323
l-42 199c-10 46 -14 91 -19 130h-6c-5 -39 -9 -82 -19 -130l-43 -199h129z" />
    <glyph glyph-name="AE" unicode="&#xc6;" horiz-adv-x="773" 
d="M736 0h-408v89l39 5v128h-154l-48 -222h-146v89l41 6l124 553l-42 5v90h594v-150h-81l-9 50h-158v-210h232v-98h-232v-235h157l10 52h81v-152zM367 320v331h-69c-7 -36 -15 -77 -23 -115l-45 -216h137z" />
    <glyph glyph-name="AEacute" unicode="&#x1fc;" horiz-adv-x="773" 
d="M736 0h-408v89l39 5v128h-154l-48 -222h-146v89l41 6l124 553l-42 5v90h594v-150h-81l-9 50h-158v-210h232v-98h-232v-235h157l10 52h81v-152zM367 320v331h-69c-7 -36 -15 -77 -23 -115l-45 -216h137zM593 938l-117 -148h-106l97 148h126z" />
    <glyph glyph-name="Cacute" unicode="&#x106;" horiz-adv-x="461" 
d="M429 8c-26 -7 -95 -20 -148 -20c-142 0 -247 47 -247 305v157c0 258 105 304 247 304c53 0 122 -12 148 -19v-143h-82l-10 57c-16 0 -32 1 -48 1c-87 0 -134 -29 -134 -200v-157c0 -171 47 -201 135 -201c15 0 32 1 47 2l10 59h82v-145zM414 938l-117 -148h-106l97 148
h126z" />
    <glyph glyph-name="Ccircumflex" unicode="&#x108;" horiz-adv-x="461" 
d="M429 8c-26 -7 -95 -20 -148 -20c-142 0 -247 47 -247 305v157c0 258 105 304 247 304c53 0 122 -12 148 -19v-143h-82l-10 57c-16 0 -32 1 -48 1c-87 0 -134 -29 -134 -200v-157c0 -171 47 -201 135 -201c15 0 32 1 47 2l10 59h82v-145zM426 791h-100l-74 95l-74 -95
h-100l102 148h144z" />
    <glyph glyph-name="Ccaron" unicode="&#x10c;" horiz-adv-x="461" 
d="M429 8c-26 -7 -95 -20 -148 -20c-142 0 -247 47 -247 305v157c0 258 105 304 247 304c53 0 122 -12 148 -19v-143h-82l-10 57c-16 0 -32 1 -48 1c-87 0 -134 -29 -134 -200v-157c0 -171 47 -201 135 -201c15 0 32 1 47 2l10 59h82v-145zM434 939l-102 -148h-144l-102 148
h100l74 -95l74 95h100z" />
    <glyph glyph-name="Cdotaccent" unicode="&#x10a;" horiz-adv-x="461" 
d="M429 8c-26 -7 -95 -20 -148 -20c-142 0 -247 47 -247 305v157c0 258 105 304 247 304c53 0 122 -12 148 -19v-143h-82l-10 57c-16 0 -32 1 -48 1c-87 0 -134 -29 -134 -200v-157c0 -171 47 -201 135 -201c15 0 32 1 47 2l10 59h82v-145zM316 791h-118v117h118v-117z" />
    <glyph glyph-name="Ccedilla" unicode="&#xc7;" horiz-adv-x="461" 
d="M429 8c-26 -7 -95 -20 -148 -20c-142 0 -247 47 -247 305v157c0 258 105 304 247 304c53 0 122 -12 148 -19v-143h-82l-10 57c-16 0 -32 1 -48 1c-87 0 -134 -29 -134 -200v-157c0 -171 47 -201 135 -201c15 0 32 1 47 2l10 59h82v-145zM326 -61l-106 -143h-103l85 143
h124z" />
    <glyph glyph-name="Dcaron" unicode="&#x10e;" horiz-adv-x="555" 
d="M518 298c0 -182 -56 -301 -271 -301c-71 0 -147 1 -218 3v89l41 7v552l-41 6v89c71 3 144 4 218 4c212 0 271 -118 271 -299v-150zM398 298v150c0 148 -35 197 -150 197h-59v-547h59c115 0 150 53 150 200zM460 938l-102 -148h-144l-102 148h100l74 -95l74 95h100z" />
    <glyph glyph-name="Dcroat" unicode="&#x110;" horiz-adv-x="555" 
d="M518 298c0 -182 -56 -301 -271 -301c-72 0 -147 1 -218 3v91l41 6v239h-41v96h41v214l-41 7v90c71 3 146 4 218 4c212 0 271 -118 271 -299v-150zM397 298v150c0 148 -34 197 -149 197h-59v-213h94v-96h-94v-238h59c115 0 149 53 149 200z" />
    <glyph glyph-name="Eth" unicode="&#xd0;" horiz-adv-x="555" 
d="M518 298c0 -182 -56 -301 -271 -301c-72 0 -147 1 -218 3v91l41 6v239h-41v96h41v214l-41 7v90c71 3 146 4 218 4c212 0 271 -118 271 -299v-150zM397 298v150c0 148 -34 197 -149 197h-59v-213h94v-96h-94v-238h59c115 0 149 53 149 200z" />
    <glyph glyph-name="Eacute" unicode="&#xc9;" horiz-adv-x="470" 
d="M438 0h-409v89l39 5v555l-39 5v89h409v-150h-82l-9 50h-158v-210h233v-98h-233v-235h158l9 52h82v-152zM405 939l-117 -148h-106l97 148h126z" />
    <glyph glyph-name="Egrave" unicode="&#xc8;" horiz-adv-x="470" 
d="M438 0h-409v89l39 5v555l-39 5v89h409v-150h-82l-9 50h-158v-210h233v-98h-233v-235h158l9 52h82v-152zM321 791h-105l-118 148h127z" />
    <glyph glyph-name="Ecircumflex" unicode="&#xca;" horiz-adv-x="470" 
d="M438 0h-409v89l39 5v555l-39 5v89h409v-150h-82l-9 50h-158v-210h233v-98h-233v-235h158l9 52h82v-152zM421 791h-100l-74 95l-74 -95h-100l102 148h144z" />
    <glyph glyph-name="Edieresis" unicode="&#xcb;" horiz-adv-x="470" 
d="M438 0h-409v89l39 5v555l-39 5v89h409v-150h-82l-9 50h-158v-210h233v-98h-233v-235h158l9 52h82v-152zM397 803h-100v117h100v-117zM205 803v117h-101v-117h101z" />
    <glyph glyph-name="Emacron" unicode="&#x112;" horiz-adv-x="470" 
d="M438 0h-409v89l39 5v555l-39 5v89h409v-150h-82l-9 50h-158v-210h233v-98h-233v-235h158l9 52h82v-152zM402 803h-297v80h297v-80z" />
    <glyph glyph-name="Ecaron" unicode="&#x11a;" horiz-adv-x="470" 
d="M438 0h-409v89l39 5v555l-39 5v89h409v-150h-82l-9 50h-158v-210h233v-98h-233v-235h158l9 52h82v-152zM428 939l-102 -148h-144l-102 148h100l74 -95l74 95h100z" />
    <glyph glyph-name="Ebreve" unicode="&#x114;" horiz-adv-x="470" 
d="M438 0h-409v89l39 5v555l-39 5v89h409v-150h-82l-9 50h-158v-210h233v-98h-233v-235h158l9 52h82v-152zM405 943c-8 -93 -49 -153 -150 -153c-102 0 -143 60 -151 153h79c5 -69 25 -88 72 -88c46 0 66 19 72 88h78z" />
    <glyph glyph-name="Edotaccent" unicode="&#x116;" horiz-adv-x="470" 
d="M438 0h-409v89l39 5v555l-39 5v89h409v-150h-82l-9 50h-158v-210h233v-98h-233v-235h158l9 52h82v-152zM312 803h-118v117h118v-117z" />
    <glyph glyph-name="Eogonek" unicode="&#x118;" horiz-adv-x="470" 
d="M438 0h-26c-74 -56 -86 -79 -86 -103c0 -26 12 -40 48 -40c23 0 45 2 60 3v-60c-23 -7 -55 -13 -90 -13c-77 0 -118 36 -118 94c0 44 31 83 83 119h-280v91l39 5v551l-39 5v91h409v-150h-82l-9 50h-158v-210h235v-98h-235v-235h158l9 52h82v-152z" />
    <glyph glyph-name="Gcircumflex" unicode="&#x11c;" horiz-adv-x="502" 
d="M466 9c-30 -7 -108 -21 -187 -21c-132 0 -245 48 -245 301v165c0 265 128 300 248 300c82 0 164 -17 182 -22v-140h-82l-10 55c-20 1 -46 3 -68 3c-94 0 -149 -16 -149 -196v-165c0 -170 45 -197 134 -197c21 0 41 1 60 2v205l-70 7v83h187v-380zM439 791h-100l-74 95
l-74 -95h-100l102 148h144z" />
    <glyph glyph-name="Gbreve" unicode="&#x11e;" horiz-adv-x="502" 
d="M466 9c-30 -7 -108 -21 -187 -21c-132 0 -245 48 -245 301v165c0 265 128 300 248 300c82 0 164 -17 182 -22v-140h-82l-10 55c-20 1 -46 3 -68 3c-94 0 -149 -16 -149 -196v-165c0 -170 45 -197 134 -197c21 0 41 1 60 2v205l-70 7v83h187v-380zM431 944
c-8 -93 -49 -153 -150 -153c-102 0 -143 60 -151 153h79c5 -69 25 -88 72 -88c46 0 66 19 72 88h78z" />
    <glyph glyph-name="Gdotaccent" unicode="&#x120;" horiz-adv-x="502" 
d="M466 9c-30 -7 -108 -21 -187 -21c-132 0 -245 48 -245 301v165c0 265 128 300 248 300c82 0 164 -17 182 -22v-140h-82l-10 55c-20 1 -46 3 -68 3c-94 0 -149 -16 -149 -196v-165c0 -170 45 -197 134 -197c21 0 41 1 60 2v205l-70 7v83h187v-380zM329 803h-118v117h118
v-117z" />
    <glyph glyph-name="Gcommaaccent" unicode="&#x122;" horiz-adv-x="502" 
d="M466 9c-30 -7 -108 -21 -187 -21c-132 0 -245 48 -245 301v165c0 265 128 300 248 300c82 0 164 -17 182 -22v-140h-82l-10 55c-20 1 -46 3 -68 3c-94 0 -149 -16 -149 -196v-165c0 -170 45 -197 134 -197c21 0 41 1 60 2v205l-70 7v83h187v-380zM347 -62l-80 -143h-99
l54 143h125z" />
    <glyph glyph-name="Hcircumflex" unicode="&#x124;" horiz-adv-x="610" 
d="M379 743h202v-89l-41 -5v-555l41 -4v-90h-202v89l41 5v244h-230v-244l41 -5v-89h-202v90l41 4v555l-41 5v89h202v-89l-41 -5v-208h230v208l-41 5v89zM479 791h-100l-74 95l-74 -95h-100l102 148h144z" />
    <glyph glyph-name="Hbar" unicode="&#x126;" horiz-adv-x="610" 
d="M379 743h202v-89l-41 -5v-55h41v-76h-41v-424l41 -4v-90h-202v89l41 5v244h-230v-244l41 -5v-89h-202v90l41 4v424h-44v76h44v55l-41 5v89h202v-89l-41 -5v-55h230v55l-41 5v89zM190 441h230v77h-230v-77z" />
    <glyph glyph-name="Iacute" unicode="&#xcd;" horiz-adv-x="262" 
d="M231 0h-201v90l41 4v555l-41 5v89h201v-89l-40 -5v-555l40 -4v-90zM281 939l-117 -148h-106l97 148h126z" />
    <glyph glyph-name="Igrave" unicode="&#xcc;" horiz-adv-x="262" 
d="M231 0h-201v90l41 4v555l-41 5v89h201v-89l-40 -5v-555l40 -4v-90zM203 791h-105l-118 148h127z" />
    <glyph glyph-name="Icircumflex" unicode="&#xce;" horiz-adv-x="262" 
d="M231 0h-201v90l41 4v555l-41 5v89h201v-89l-40 -5v-555l40 -4v-90zM304 791h-100l-74 95l-74 -95h-100l102 148h144z" />
    <glyph glyph-name="Idieresis" unicode="&#xcf;" horiz-adv-x="262" 
d="M231 0h-201v90l41 4v555l-41 5v89h201v-89l-40 -5v-555l40 -4v-90zM277 803h-100v117h100v-117zM85 803v117h-101v-117h101z" />
    <glyph glyph-name="Itilde" unicode="&#x128;" horiz-adv-x="262" 
d="M231 0h-201v90l41 4v555l-41 5v89h201v-89l-40 -5v-555l40 -4v-90zM309 903c0 -75 -31 -117 -97 -117c-33 0 -64 8 -92 38l-30 31c-16 17 -21 21 -37 21c-19 0 -27 -14 -27 -44v-42h-75v42c0 74 34 117 98 117c34 0 58 -8 86 -37l30 -31c17 -17 26 -22 44 -22
c17 0 24 13 24 44v42h76v-42z" />
    <glyph glyph-name="Imacron" unicode="&#x12a;" horiz-adv-x="262" 
d="M231 0h-201v90l41 4v555l-41 5v89h201v-89l-40 -5v-555l40 -4v-90zM278 803h-297v80h297v-80z" />
    <glyph glyph-name="Ibreve" unicode="&#x12c;" horiz-adv-x="262" 
d="M231 0h-201v90l41 4v555l-41 5v89h201v-89l-40 -5v-555l40 -4v-90zM279 943c-8 -93 -49 -153 -150 -153c-102 0 -143 60 -151 153h79c5 -69 25 -88 72 -88c46 0 66 19 72 88h78z" />
    <glyph glyph-name="Idotaccent" unicode="&#x130;" horiz-adv-x="262" 
d="M231 0h-201v90l41 4v555l-41 5v89h201v-89l-40 -5v-555l40 -4v-90zM190 803h-118v117h118v-117z" />
    <glyph glyph-name="Iogonek" unicode="&#x12e;" horiz-adv-x="262" 
d="M231 0c-95 -55 -107 -78 -107 -108c0 -24 11 -35 48 -35c23 0 45 2 61 3v-60c-23 -7 -56 -13 -91 -13c-77 0 -118 29 -118 94c0 44 26 83 86 119h-80v90l41 4v555l-41 5v89h201v-89l-40 -5v-555l40 -4v-90z" />
    <glyph glyph-name="Jcircumflex" unicode="&#x134;" horiz-adv-x="256" 
d="M226 654l-41 -5v-714c0 -106 -43 -146 -137 -146c-25 0 -59 5 -78 11v81h54c36 0 41 13 41 52v716l-40 5v89h201v-89zM300 791h-100l-74 95l-74 -95h-100l102 148h144z" />
    <glyph glyph-name="Kcommaaccent" unicode="&#x136;" horiz-adv-x="545" 
d="M230 0h-201v90l39 4v555l-39 5v89h201v-89l-41 -5v-250l198 344h134v-89l-47 -5l-163 -272l164 -283l46 -4v-90h-142l-190 349v-255l41 -5v-89zM345 -62l-80 -143h-99l54 143h125z" />
    <glyph glyph-name="Lacute" unicode="&#x139;" horiz-adv-x="445" 
d="M420 0h-391v90l39 4v555l-39 5v89h200v-89l-40 -5v-548h140l9 55h82v-156zM394 939l-117 -148h-106l97 148h126z" />
    <glyph glyph-name="Lcaron" unicode="&#x13d;" horiz-adv-x="486" 
d="M421 0h-392v90l39 5v553l-39 5v90h201v-90l-40 -5v-546h139l10 56h82v-158zM455 764l-77 -236h-94l54 236h117z" />
    <glyph glyph-name="Ldot" unicode="&#x13f;" horiz-adv-x="445" 
d="M370 306h-105v121h105v-121zM420 0h-391v90l39 4v555l-39 5v89h200v-89l-40 -5v-548h139l10 56h82v-157z" />
    <glyph glyph-name="Lcommaaccent" unicode="&#x13b;" horiz-adv-x="445" 
d="M305 -61l-79 -144h-100l54 144h125zM420 0h-391v90l39 4v555l-39 5v89h200v-89l-40 -5v-548h139l10 56h82v-157z" />
    <glyph glyph-name="Lslash" unicode="&#x141;" horiz-adv-x="445" 
d="M419 0h-391v89l40 5v173l-57 -57v109l57 58v272l-40 5v89h201v-89l-41 -5v-163l88 94v-110l-88 -94v-275h140l10 56h81v-157z" />
    <glyph glyph-name="Nacute" unicode="&#x143;" horiz-adv-x="600" 
d="M377 743h193v-89l-40 -5v-649h-141l-175 474c-12 32 -26 72 -39 113h-2c4 -45 7 -96 7 -143v-350l41 -5v-89h-192v90l40 4v555l-40 5v89h182l172 -455c12 -32 29 -79 40 -116h2c-4 52 -7 109 -7 150v327l-41 5v89zM463 939l-117 -148h-106l97 148h126z" />
    <glyph glyph-name="Ntilde" unicode="&#xd1;" horiz-adv-x="600" 
d="M377 743h193v-89l-40 -5v-649h-141l-175 474c-12 32 -26 72 -39 113h-2c4 -45 7 -96 7 -143v-350l41 -5v-89h-192v90l40 4v555l-40 5v89h182l172 -455c12 -32 29 -79 40 -116h2c-4 52 -7 109 -7 150v327l-41 5v89zM482 905c0 -75 -31 -117 -97 -117c-33 0 -64 8 -92 38
l-30 31c-16 17 -21 21 -37 21c-19 0 -27 -14 -27 -44v-42h-75v42c0 74 34 117 98 117c34 0 58 -8 86 -37l30 -31c17 -17 26 -22 44 -22c17 0 24 13 24 44v42h76v-42z" />
    <glyph glyph-name="Ncaron" unicode="&#x147;" horiz-adv-x="600" 
d="M377 743h193v-89l-40 -5v-649h-141l-175 474c-12 32 -26 72 -39 113h-2c4 -45 7 -96 7 -143v-350l41 -5v-89h-192v90l40 4v555l-40 5v89h182l172 -455c12 -32 29 -79 40 -116h2c-4 52 -7 109 -7 150v327l-41 5v89zM477 939l-102 -148h-144l-102 148h100l74 -95l74 95h100
z" />
    <glyph glyph-name="Ncommaaccent" unicode="&#x145;" horiz-adv-x="600" 
d="M377 743h193v-89l-40 -5v-649h-141l-175 474c-12 32 -26 72 -39 113h-2c4 -45 7 -96 7 -143v-350l41 -5v-89h-192v90l40 4v555l-40 5v89h182l172 -455c12 -32 29 -79 40 -116h2c-4 52 -7 109 -7 150v327l-41 5v89zM370 -62l-80 -143h-99l54 143h125z" />
    <glyph glyph-name="Eng" unicode="&#x14a;" horiz-adv-x="600" 
d="M377 743h193v-89l-40 -5v-714c0 -106 -43 -146 -137 -146c-25 0 -59 5 -78 11v81h54c36 0 41 13 41 52v67l-196 474c-13 32 -26 72 -39 113h-2c4 -45 7 -96 7 -143v-350l41 -5v-89h-192v90l40 4v555l-40 5v89h182l172 -408c16 -37 27 -70 38 -107h2c-4 52 -5 76 -5 103
v318l-41 5v89z" />
    <glyph glyph-name="Oacute" unicode="&#xd3;" horiz-adv-x="542" 
d="M508 303c0 -204 -73 -315 -237 -315c-163 0 -237 111 -237 315v137c0 205 75 314 237 314c163 0 237 -109 237 -314v-137zM388 303v137c0 149 -34 211 -117 211c-82 0 -116 -62 -116 -211v-137c0 -150 34 -212 116 -212s117 62 117 212zM420 939l-117 -148h-106l97 148
h126z" />
    <glyph glyph-name="Ograve" unicode="&#xd2;" horiz-adv-x="542" 
d="M508 303c0 -204 -73 -315 -237 -315c-163 0 -237 111 -237 315v137c0 205 75 314 237 314c163 0 237 -109 237 -314v-137zM388 303v137c0 149 -34 211 -117 211c-82 0 -116 -62 -116 -211v-137c0 -150 34 -212 116 -212s117 62 117 212zM347 791h-105l-118 148h127z" />
    <glyph glyph-name="Ocircumflex" unicode="&#xd4;" horiz-adv-x="542" 
d="M508 303c0 -204 -73 -315 -237 -315c-163 0 -237 111 -237 315v137c0 205 75 314 237 314c163 0 237 -109 237 -314v-137zM388 303v137c0 149 -34 211 -117 211c-82 0 -116 -62 -116 -211v-137c0 -150 34 -212 116 -212s117 62 117 212zM445 791h-100l-74 95l-74 -95
h-100l102 148h144z" />
    <glyph glyph-name="Odieresis" unicode="&#xd6;" horiz-adv-x="542" 
d="M508 303c0 -204 -73 -315 -237 -315c-163 0 -237 111 -237 315v137c0 205 75 314 237 314c163 0 237 -109 237 -314v-137zM388 303v137c0 149 -34 211 -117 211c-82 0 -116 -62 -116 -211v-137c0 -150 34 -212 116 -212s117 62 117 212zM418 803h-100v117h100v-117z
M226 803v117h-101v-117h101z" />
    <glyph glyph-name="Otilde" unicode="&#xd5;" horiz-adv-x="542" 
d="M508 303c0 -204 -73 -315 -237 -315c-163 0 -237 111 -237 315v137c0 205 75 314 237 314c163 0 237 -109 237 -314v-137zM388 303v137c0 149 -34 211 -117 211c-82 0 -116 -62 -116 -211v-137c0 -150 34 -212 116 -212s117 62 117 212zM450 905c0 -75 -31 -117 -97 -117
c-33 0 -64 8 -92 38l-30 31c-16 17 -21 21 -37 21c-19 0 -27 -14 -27 -44v-42h-75v42c0 74 34 117 98 117c34 0 58 -8 86 -37l30 -31c17 -17 26 -22 44 -22c17 0 24 13 24 44v42h76v-42z" />
    <glyph glyph-name="Omacron" unicode="&#x14c;" horiz-adv-x="542" 
d="M508 303c0 -204 -73 -315 -237 -315c-163 0 -237 111 -237 315v137c0 205 75 314 237 314c163 0 237 -109 237 -314v-137zM388 303v137c0 149 -34 211 -117 211c-82 0 -116 -62 -116 -211v-137c0 -150 34 -212 116 -212s117 62 117 212zM421 803h-297v80h297v-80z" />
    <glyph glyph-name="Obreve" unicode="&#x14e;" horiz-adv-x="542" 
d="M508 303c0 -204 -73 -315 -237 -315c-163 0 -237 111 -237 315v137c0 205 75 314 237 314c163 0 237 -109 237 -314v-137zM388 303v137c0 149 -34 211 -117 211c-82 0 -116 -62 -116 -211v-137c0 -150 34 -212 116 -212s117 62 117 212zM423 944
c-8 -93 -49 -153 -150 -153c-102 0 -143 60 -151 153h79c5 -69 25 -88 72 -88c46 0 66 19 72 88h78z" />
    <glyph glyph-name="Ohungarumlaut" unicode="&#x150;" horiz-adv-x="542" 
d="M508 303c0 -204 -73 -315 -237 -315c-163 0 -237 111 -237 315v137c0 205 75 314 237 314c163 0 237 -109 237 -314v-137zM388 303v137c0 149 -34 211 -117 211c-82 0 -116 -62 -116 -211v-137c0 -150 34 -212 116 -212s117 62 117 212zM537 940l-118 -149h-103l97 149
h124zM343 940h-123l-97 -149h102z" />
    <glyph glyph-name="Oslash" unicode="&#xd8;" horiz-adv-x="542" 
d="M508 303c0 -204 -73 -315 -237 -315c-62 0 -110 16 -147 46l-24 -41h-91l62 109c-25 51 -37 118 -37 201v137c0 205 75 314 237 314c62 0 111 -16 148 -47l25 43h91l-64 -111c25 -51 37 -117 37 -199v-137zM155 303c0 -19 0 -37 1 -53l203 353c-19 33 -47 48 -88 48
c-82 0 -116 -62 -116 -211v-137zM388 303v137c0 18 -1 35 -2 51l-203 -353c19 -32 48 -47 88 -47c82 0 117 62 117 212z" />
    <glyph glyph-name="Oslashacute" unicode="&#x1fe;" horiz-adv-x="542" 
d="M433 939l-117 -148h-106l97 148h126zM508 303c0 -204 -73 -315 -237 -315c-62 0 -110 16 -147 46l-24 -41h-91l62 109c-25 51 -37 118 -37 201v137c0 205 75 314 237 314c62 0 111 -16 148 -47l25 43h91l-64 -111c25 -51 37 -117 37 -199v-137zM155 303
c0 -19 0 -37 1 -53l203 353c-19 33 -47 48 -88 48c-82 0 -116 -62 -116 -211v-137zM388 303v137c0 18 -1 35 -2 51l-203 -353c19 -32 48 -47 88 -47c82 0 117 62 117 212z" />
    <glyph glyph-name="OE" unicode="&#x152;" horiz-adv-x="765" 
d="M724 0h-330c-38 -6 -75 -12 -116 -12c-169 0 -241 109 -241 314v138c0 205 72 314 241 314c39 0 78 -5 116 -11h330v-150h-82l-9 50h-159v-210h234v-98h-234v-235h159l9 52h82v-152zM355 97v547c-28 5 -47 7 -74 7c-89 0 -123 -61 -123 -211v-138
c0 -149 34 -211 123 -211c27 0 44 1 74 6z" />
    <glyph glyph-name="Racute" unicode="&#x154;" horiz-adv-x="553" 
d="M229 0h-200v90l41 4v555l-41 5v89c66 2 134 3 203 3c146 0 260 -39 260 -223v-9c0 -110 -35 -169 -100 -204l93 -216l48 -4v-90h-136l-120 284c-12 -1 -26 -1 -38 -1h-51v-189l41 -5v-89zM373 513v9c0 102 -39 124 -137 124h-48v-266h52c100 0 133 35 133 133zM429 939
l-117 -148h-106l97 148h126z" />
    <glyph glyph-name="Rcaron" unicode="&#x158;" horiz-adv-x="553" 
d="M229 0h-200v90l41 4v555l-41 5v89c66 2 134 3 203 3c146 0 260 -39 260 -223v-9c0 -110 -35 -169 -100 -204l93 -216l48 -4v-90h-136l-120 284c-12 -1 -26 -1 -38 -1h-51v-189l41 -5v-89zM373 513v9c0 102 -39 124 -137 124h-48v-266h52c100 0 133 35 133 133zM448 939
l-102 -148h-144l-102 148h100l74 -95l74 95h100z" />
    <glyph glyph-name="Rcommaaccent" unicode="&#x156;" horiz-adv-x="553" 
d="M229 0h-200v90l41 4v555l-41 5v89c66 2 134 3 203 3c146 0 260 -39 260 -223v-9c0 -110 -35 -169 -100 -204l93 -216l48 -4v-90h-136l-120 284c-12 -1 -26 -1 -38 -1h-51v-189l41 -5v-89zM373 513v9c0 102 -39 124 -137 124h-48v-266h52c100 0 133 35 133 133zM352 -62
l-80 -143h-99l54 143h125z" />
    <glyph glyph-name="Sacute" unicode="&#x15a;" horiz-adv-x="465" 
d="M434 193c0 -133 -74 -205 -213 -205c-78 0 -152 15 -179 23v141h81l9 -61c43 -4 49 -4 76 -4c73 0 104 28 104 104c0 54 -18 81 -73 119l-87 60c-80 55 -121 107 -121 202c0 122 70 182 213 182c76 0 147 -15 173 -22v-136h-81l-10 57c-40 3 -50 3 -71 3
c-71 0 -102 -23 -102 -85c0 -50 17 -76 71 -113l84 -57c86 -58 126 -113 126 -208zM382 939l-117 -148h-106l97 148h126z" />
    <glyph glyph-name="Scircumflex" unicode="&#x15c;" horiz-adv-x="465" 
d="M434 193c0 -133 -74 -205 -213 -205c-78 0 -152 15 -179 23v141h81l9 -61c43 -4 49 -4 76 -4c73 0 104 28 104 104c0 54 -18 81 -73 119l-87 60c-80 55 -121 107 -121 202c0 122 70 182 213 182c76 0 147 -15 173 -22v-136h-81l-10 57c-40 3 -50 3 -71 3
c-71 0 -102 -23 -102 -85c0 -50 17 -76 71 -113l84 -57c86 -58 126 -113 126 -208zM401 791h-100l-74 95l-74 -95h-100l102 148h144z" />
    <glyph glyph-name="Scaron" unicode="&#x160;" horiz-adv-x="465" 
d="M434 193c0 -133 -74 -205 -213 -205c-78 0 -152 15 -179 23v141h81l9 -61c43 -4 49 -4 76 -4c73 0 104 28 104 104c0 54 -18 81 -73 119l-87 60c-80 55 -121 107 -121 202c0 122 70 182 213 182c76 0 147 -15 173 -22v-136h-81l-10 57c-40 3 -50 3 -71 3
c-71 0 -102 -23 -102 -85c0 -50 17 -76 71 -113l84 -57c86 -58 126 -113 126 -208zM405 939l-102 -148h-144l-102 148h100l74 -95l74 95h100z" />
    <glyph glyph-name="Scedilla" unicode="&#x15e;" horiz-adv-x="465" 
d="M434 193c0 -133 -74 -205 -213 -205c-78 0 -152 15 -179 23v141h81l9 -61c43 -4 49 -4 76 -4c73 0 104 28 104 104c0 54 -18 81 -73 119l-87 60c-80 55 -121 107 -121 202c0 122 70 182 213 182c76 0 147 -15 173 -22v-136h-81l-10 57c-40 3 -50 3 -71 3
c-71 0 -102 -23 -102 -85c0 -50 17 -76 71 -113l84 -57c86 -58 126 -113 126 -208zM297 -62l-106 -143h-103l85 143h124z" />
    <glyph glyph-name="Scommaaccent" unicode="&#x218;" horiz-adv-x="465" 
d="M434 193c0 -133 -74 -205 -213 -205c-78 0 -152 15 -179 23v141h81l9 -61c43 -4 49 -4 76 -4c73 0 104 28 104 104c0 54 -18 81 -73 119l-87 60c-80 55 -121 107 -121 202c0 122 70 182 213 182c76 0 147 -15 173 -22v-136h-81l-10 57c-40 3 -50 3 -71 3
c-71 0 -102 -23 -102 -85c0 -50 17 -76 71 -113l84 -57c86 -58 126 -113 126 -208zM303 -62l-80 -143h-99l54 143h125z" />
    <glyph glyph-name="Tcaron" unicode="&#x164;" horiz-adv-x="506" 
d="M482 593h-81l-9 51h-79v-551l41 -4v-89h-202v89l41 4v551h-79l-9 -51h-81v150h458v-150zM428 939l-102 -148h-144l-102 148h100l74 -95l74 95h100z" />
    <glyph glyph-name="Tcommaaccent" unicode="&#x162;" horiz-adv-x="506" 
d="M482 593h-81l-9 51h-79v-551l41 -4v-89h-202v89l41 4v551h-79l-9 -51h-81v150h458v-150zM319 -62l-80 -143h-99l54 143h125z" />
    <glyph glyph-name="uni021A" unicode="&#x21a;" horiz-adv-x="506" 
d="M482 593h-81l-9 51h-79v-551l41 -4v-89h-202v89l41 4v551h-79l-9 -51h-81v150h458v-150zM319 -61l-80 -143h-99l54 143h125z" />
    <glyph glyph-name="Tbar" unicode="&#x166;" horiz-adv-x="506" 
d="M458 378h-145v-283l40 -5v-90h-201v90l40 5v283h-145v93h145v173h-78l-10 -51h-80v150h458v-150h-81l-9 51h-79v-173h145v-93z" />
    <glyph glyph-name="Uacute" unicode="&#xda;" horiz-adv-x="592" 
d="M362 743h201v-89l-40 -5v-374c0 -161 -54 -287 -227 -287s-226 126 -226 287v374l-41 5v89h202v-89l-41 -5v-360c0 -143 17 -199 106 -199s107 56 107 199v360l-41 5v89zM452 939l-117 -148h-106l97 148h126z" />
    <glyph glyph-name="Ugrave" unicode="&#xd9;" horiz-adv-x="592" 
d="M362 743h201v-89l-40 -5v-374c0 -161 -54 -287 -227 -287s-226 126 -226 287v374l-41 5v89h202v-89l-41 -5v-360c0 -143 17 -199 106 -199s107 56 107 199v360l-41 5v89zM367 791h-105l-118 148h127z" />
    <glyph glyph-name="Ucircumflex" unicode="&#xdb;" horiz-adv-x="592" 
d="M362 743h201v-89l-40 -5v-374c0 -161 -54 -287 -227 -287s-226 126 -226 287v374l-41 5v89h202v-89l-41 -5v-360c0 -143 17 -199 106 -199s107 56 107 199v360l-41 5v89zM469 791h-100l-74 95l-74 -95h-100l102 148h144z" />
    <glyph glyph-name="Udieresis" unicode="&#xdc;" horiz-adv-x="592" 
d="M362 743h201v-89l-40 -5v-374c0 -161 -54 -287 -227 -287s-226 126 -226 287v374l-41 5v89h202v-89l-41 -5v-360c0 -143 17 -199 106 -199s107 56 107 199v360l-41 5v89zM442 803h-100v117h100v-117zM250 803v117h-101v-117h101z" />
    <glyph glyph-name="Utilde" unicode="&#x168;" horiz-adv-x="592" 
d="M362 743h201v-89l-40 -5v-374c0 -161 -54 -287 -227 -287s-226 126 -226 287v374l-41 5v89h202v-89l-41 -5v-360c0 -143 17 -199 106 -199s107 56 107 199v360l-41 5v89zM478 904c0 -75 -31 -117 -97 -117c-33 0 -64 8 -92 38l-30 31c-16 17 -21 21 -37 21
c-19 0 -27 -14 -27 -44v-42h-75v42c0 74 34 117 98 117c34 0 58 -8 86 -37l30 -31c17 -17 26 -22 44 -22c17 0 24 13 24 44v42h76v-42z" />
    <glyph glyph-name="Umacron" unicode="&#x16a;" horiz-adv-x="592" 
d="M362 743h201v-89l-40 -5v-374c0 -161 -54 -287 -227 -287s-226 126 -226 287v374l-41 5v89h202v-89l-41 -5v-360c0 -143 17 -199 106 -199s107 56 107 199v360l-41 5v89zM445 803h-297v80h297v-80z" />
    <glyph glyph-name="Uring" unicode="&#x16e;" horiz-adv-x="592" 
d="M362 743h201v-89l-40 -5v-374c0 -161 -54 -287 -227 -287s-226 126 -226 287v374l-41 5v89h202v-89l-41 -5v-360c0 -143 17 -199 106 -199s107 56 107 199v360l-41 5v89zM412 900c0 -78 -48 -114 -114 -114s-116 36 -116 114c0 79 50 115 116 115s114 -36 114 -115z
M344 900c0 43 -20 55 -46 55c-27 0 -46 -12 -46 -55c0 -41 19 -54 46 -54c26 0 46 13 46 54z" />
    <glyph glyph-name="Ubreve" unicode="&#x16c;" horiz-adv-x="592" 
d="M362 743h201v-89l-40 -5v-374c0 -161 -54 -287 -227 -287s-226 126 -226 287v374l-41 5v89h202v-89l-41 -5v-360c0 -143 17 -199 106 -199s107 56 107 199v360l-41 5v89zM446 942c-8 -93 -49 -153 -150 -153c-102 0 -143 60 -151 153h79c5 -69 25 -88 72 -88
c46 0 66 19 72 88h78z" />
    <glyph glyph-name="Uhungarumlaut" unicode="&#x170;" horiz-adv-x="592" 
d="M362 743h201v-89l-40 -5v-374c0 -161 -54 -287 -227 -287s-226 126 -226 287v374l-41 5v89h202v-89l-41 -5v-360c0 -143 17 -199 106 -199s107 56 107 199v360l-41 5v89zM568 940l-118 -149h-103l97 149h124zM374 940h-123l-97 -149h102z" />
    <glyph glyph-name="Uogonek" unicode="&#x172;" horiz-adv-x="592" 
d="M362 743h201v-89l-40 -5v-374c0 -128 -34 -233 -134 -272c-85 -50 -98 -77 -98 -106c0 -24 11 -40 48 -40c23 0 45 2 61 3v-60c-23 -7 -56 -13 -91 -13c-77 0 -118 34 -118 99c0 37 19 73 61 105c-138 20 -182 137 -182 284v374l-41 5v89h202v-89l-41 -5v-360
c0 -143 17 -199 106 -199s107 56 107 199v360l-41 5v89z" />
    <glyph glyph-name="Wacute" unicode="&#x1e82;" horiz-adv-x="763" 
d="M546 743h197v-89l-41 -5l-82 -649h-158l-63 335c-6 32 -12 78 -16 107h-3c-4 -29 -10 -75 -16 -107l-62 -335h-160l-82 649l-40 5v89h198v-89l-38 -5l41 -377c6 -53 9 -99 13 -145h3c6 42 11 90 21 141l53 269h141l54 -272c10 -50 15 -100 20 -138h4c2 48 7 93 13 145
l41 377l-38 5v89zM545 939l-117 -148h-106l97 148h126z" />
    <glyph glyph-name="Wgrave" unicode="&#x1e80;" horiz-adv-x="763" 
d="M546 743h197v-89l-41 -5l-82 -649h-158l-63 335c-6 32 -12 78 -16 107h-3c-4 -29 -10 -75 -16 -107l-62 -335h-160l-82 649l-40 5v89h198v-89l-38 -5l41 -377c6 -53 9 -99 13 -145h3c6 42 11 90 21 141l53 269h141l54 -272c10 -50 15 -100 20 -138h4c2 48 7 93 13 145
l41 377l-38 5v89zM452 791h-105l-118 148h127z" />
    <glyph glyph-name="Wcircumflex" unicode="&#x174;" horiz-adv-x="763" 
d="M546 743h197v-89l-41 -5l-82 -649h-158l-63 335c-6 32 -12 78 -16 107h-3c-4 -29 -10 -75 -16 -107l-62 -335h-160l-82 649l-40 5v89h198v-89l-38 -5l41 -377c6 -53 9 -99 13 -145h3c6 42 11 90 21 141l53 269h141l54 -272c10 -50 15 -100 20 -138h4c2 48 7 93 13 145
l41 377l-38 5v89zM555 791h-100l-74 95l-74 -95h-100l102 148h144z" />
    <glyph glyph-name="Wdieresis" unicode="&#x1e84;" horiz-adv-x="763" 
d="M546 743h197v-89l-41 -5l-82 -649h-158l-63 335c-6 32 -12 78 -16 107h-3c-4 -29 -10 -75 -16 -107l-62 -335h-160l-82 649l-40 5v89h198v-89l-38 -5l41 -377c6 -53 9 -99 13 -145h3c6 42 11 90 21 141l53 269h141l54 -272c10 -50 15 -100 20 -138h4c2 48 7 93 13 145
l41 377l-38 5v89zM528 803h-100v117h100v-117zM336 803v117h-101v-117h101z" />
    <glyph glyph-name="Yacute" unicode="&#xdd;" horiz-adv-x="515" 
d="M303 743h192v-89l-41 -6l-137 -358v-196l40 -5v-89h-200v89l41 5v195l-138 359l-40 6v89h194v-89l-34 -4l44 -126c16 -45 24 -76 33 -112h2c8 36 17 67 33 112l44 126l-33 4v89zM421 939l-117 -148h-106l97 148h126z" />
    <glyph glyph-name="Ygrave" unicode="&#x1ef2;" horiz-adv-x="515" 
d="M303 743h192v-89l-41 -6l-137 -358v-196l40 -5v-89h-200v89l41 5v195l-138 359l-40 6v89h194v-89l-34 -4l44 -126c16 -45 24 -76 33 -112h2c8 36 17 67 33 112l44 126l-33 4v89zM327 791h-105l-118 148h127z" />
    <glyph glyph-name="Ycircumflex" unicode="&#x176;" horiz-adv-x="515" 
d="M303 743h192v-89l-41 -6l-137 -358v-196l40 -5v-89h-200v89l41 5v195l-138 359l-40 6v89h194v-89l-34 -4l44 -126c16 -45 24 -76 33 -112h2c8 36 17 67 33 112l44 126l-33 4v89zM433 791h-100l-74 95l-74 -95h-100l102 148h144z" />
    <glyph glyph-name="Ydieresis" unicode="&#x178;" horiz-adv-x="515" 
d="M303 743h192v-89l-41 -6l-137 -358v-196l40 -5v-89h-200v89l41 5v195l-138 359l-40 6v89h194v-89l-34 -4l44 -126c16 -45 24 -76 33 -112h2c8 36 17 67 33 112l44 126l-33 4v89zM404 812h-100v117h100v-117zM212 812v117h-101v-117h101z" />
    <glyph glyph-name="Zacute" unicode="&#x179;" horiz-adv-x="476" 
d="M447 0h-418v114l277 530h-178l-10 -52h-80v151h400v-114l-277 -529h196l10 55h80v-155zM406 939l-117 -148h-106l97 148h126z" />
    <glyph glyph-name="Zcaron" unicode="&#x17d;" horiz-adv-x="476" 
d="M447 0h-418v114l277 530h-178l-10 -52h-80v151h400v-114l-277 -529h196l10 55h80v-155zM420 938l-102 -148h-144l-102 148h100l74 -95l74 95h100z" />
    <glyph glyph-name="Zdotaccent" unicode="&#x17b;" horiz-adv-x="476" 
d="M447 0h-418v114l277 530h-178l-10 -52h-80v151h400v-114l-277 -529h196l10 55h80v-155zM299 802h-118v117h118v-117z" />
    <glyph glyph-name="Thorn" unicode="&#xde;" 
d="M494 373c0 -186 -111 -228 -250 -228h-54v-51l41 -5v-89h-202v89l41 5v555l-41 5v89h202v-89l-41 -5v-37h53c142 0 250 -38 251 -223v-16zM374 373v16c0 101 -39 122 -132 122h-52v-265h53c92 0 131 26 131 127z" />
    <glyph glyph-name="aacute" unicode="&#xe1;" horiz-adv-x="465" 
d="M439 0h-145v31c-29 -22 -77 -42 -130 -42c-96 0 -132 58 -132 152v28c0 132 78 164 208 164h43v47c0 80 -12 95 -87 95c-16 0 -31 0 -47 -1l-10 -48h-79v117c19 7 86 26 158 26c139 0 181 -52 181 -189v-286l40 -5v-89zM286 99v162h-45c-73 0 -97 -17 -97 -90v-36
c0 -50 19 -62 55 -62c35 0 70 15 87 26zM394 764l-117 -148h-106l97 148h126z" />
    <glyph glyph-name="agrave" unicode="&#xe0;" horiz-adv-x="465" 
d="M439 0h-145v31c-29 -22 -77 -42 -130 -42c-96 0 -132 58 -132 152v28c0 132 78 164 208 164h43v47c0 80 -12 95 -87 95c-16 0 -31 0 -47 -1l-10 -48h-79v117c19 7 86 26 158 26c139 0 181 -52 181 -189v-286l40 -5v-89zM286 99v162h-45c-73 0 -97 -17 -97 -90v-36
c0 -50 19 -62 55 -62c35 0 70 15 87 26zM301 616h-105l-118 148h127z" />
    <glyph glyph-name="acircumflex" unicode="&#xe2;" horiz-adv-x="465" 
d="M439 0h-145v31c-29 -22 -77 -42 -130 -42c-96 0 -132 58 -132 152v28c0 132 78 164 208 164h43v47c0 80 -12 95 -87 95c-16 0 -31 0 -47 -1l-10 -48h-79v117c19 7 86 26 158 26c139 0 181 -52 181 -189v-286l40 -5v-89zM286 99v162h-45c-73 0 -97 -17 -97 -90v-36
c0 -50 19 -62 55 -62c35 0 70 15 87 26zM404 616h-100l-74 95l-74 -95h-100l102 148h144z" />
    <glyph glyph-name="adieresis" unicode="&#xe4;" horiz-adv-x="465" 
d="M439 0h-145v31c-29 -22 -77 -42 -130 -42c-96 0 -132 58 -132 152v28c0 132 78 164 208 164h43v47c0 80 -12 95 -87 95c-16 0 -31 0 -47 -1l-10 -48h-79v117c19 7 86 26 158 26c139 0 181 -52 181 -189v-286l40 -5v-89zM286 99v162h-45c-73 0 -97 -17 -97 -90v-36
c0 -50 19 -62 55 -62c35 0 70 15 87 26zM380 637h-100v117h100v-117zM188 637v117h-101v-117h101z" />
    <glyph glyph-name="atilde" unicode="&#xe3;" horiz-adv-x="465" 
d="M439 0h-145v31c-29 -22 -77 -42 -130 -42c-96 0 -132 58 -132 152v28c0 132 78 164 208 164h43v47c0 80 -12 95 -87 95c-16 0 -31 0 -47 -1l-10 -48h-79v117c19 7 86 26 158 26c139 0 181 -52 181 -189v-286l40 -5v-89zM286 99v162h-45c-73 0 -97 -17 -97 -90v-36
c0 -50 19 -62 55 -62c35 0 70 15 87 26zM410 729c0 -75 -31 -117 -97 -117c-33 0 -64 8 -92 38l-30 31c-16 17 -21 21 -37 21c-19 0 -27 -14 -27 -44v-42h-75v42c0 74 34 117 98 117c34 0 58 -8 86 -37l30 -31c17 -17 26 -22 44 -22c17 0 24 13 24 44v42h76v-42z" />
    <glyph glyph-name="amacron" unicode="&#x101;" horiz-adv-x="465" 
d="M439 0h-145v31c-29 -22 -77 -42 -130 -42c-96 0 -132 58 -132 152v28c0 132 78 164 208 164h43v47c0 80 -12 95 -87 95c-16 0 -31 0 -47 -1l-10 -48h-79v117c19 7 86 26 158 26c139 0 181 -52 181 -189v-286l40 -5v-89zM286 99v162h-45c-73 0 -97 -17 -97 -90v-36
c0 -50 19 -62 55 -62c35 0 70 15 87 26zM381 651h-297v80h297v-80z" />
    <glyph glyph-name="aring" unicode="&#xe5;" horiz-adv-x="465" 
d="M439 0h-145v31c-29 -22 -77 -42 -130 -42c-96 0 -132 58 -132 152v28c0 132 78 164 208 164h43v47c0 80 -12 95 -87 95c-16 0 -31 0 -47 -1l-10 -48h-79v117c19 7 86 26 158 26c139 0 181 -52 181 -189v-286l40 -5v-89zM286 99v162h-45c-73 0 -97 -17 -97 -90v-36
c0 -50 19 -62 55 -62c35 0 70 15 87 26zM343 713c0 -78 -48 -114 -114 -114s-116 36 -116 114c0 79 50 115 116 115s114 -36 114 -115zM275 713c0 43 -20 55 -46 55c-27 0 -46 -12 -46 -55c0 -41 19 -54 46 -54c26 0 46 13 46 54z" />
    <glyph glyph-name="abreve" unicode="&#x103;" horiz-adv-x="465" 
d="M439 0h-145v31c-29 -22 -77 -42 -130 -42c-96 0 -132 58 -132 152v28c0 132 78 164 208 164h43v47c0 80 -12 95 -87 95c-16 0 -31 0 -47 -1l-10 -48h-79v117c19 7 86 26 158 26c139 0 181 -52 181 -189v-286l40 -5v-89zM286 99v162h-45c-73 0 -97 -17 -97 -90v-36
c0 -50 19 -62 55 -62c35 0 70 15 87 26zM379 768c-8 -93 -49 -153 -150 -153c-102 0 -143 60 -151 153h79c5 -69 25 -88 72 -88c46 0 66 19 72 88h78z" />
    <glyph glyph-name="aogonek" unicode="&#x105;" horiz-adv-x="465" 
d="M439 -200c-23 -7 -56 -13 -91 -13c-77 0 -118 29 -118 94c0 44 28 83 88 119h-24v31c-29 -22 -77 -42 -130 -42c-96 0 -132 58 -132 152v28c0 132 78 164 208 164h43v47c0 80 -12 95 -87 95c-16 0 -31 0 -47 -1l-10 -48h-79v117c19 7 86 26 158 26
c139 0 181 -52 181 -189v-286l40 -5v-89c-95 -55 -109 -78 -109 -108c0 -24 11 -35 48 -35c23 0 45 2 61 3v-60zM286 99v162h-45c-73 0 -97 -17 -97 -90v-36c0 -50 19 -62 55 -62c35 0 70 15 87 26z" />
    <glyph glyph-name="ae" unicode="&#xe6;" horiz-adv-x="711" 
d="M681 242h-284v-13c0 -111 12 -148 112 -148c49 0 105 4 154 13v-83c-31 -10 -94 -22 -164 -22c-79 0 -134 16 -167 57c-56 -42 -110 -57 -169 -57c-96 0 -131 58 -131 152v28c0 132 77 164 208 164h43v47c0 80 -13 95 -86 95c-17 0 -37 0 -48 -1l-10 -48h-79v117
c18 7 85 26 158 26c74 0 111 -14 136 -42c30 26 69 42 128 42c150 0 199 -100 199 -264v-63zM567 321v12c0 87 -10 143 -84 143s-85 -56 -85 -143v-12h169zM286 99v162h-45c-73 0 -97 -17 -97 -90v-36c0 -50 19 -62 54 -62c36 0 70 15 88 26z" />
    <glyph glyph-name="aeacute" unicode="&#x1fd;" horiz-adv-x="711" 
d="M681 242h-284v-13c0 -111 12 -148 112 -148c49 0 105 4 154 13v-83c-31 -10 -94 -22 -164 -22c-79 0 -134 16 -167 57c-56 -42 -110 -57 -169 -57c-96 0 -131 58 -131 152v28c0 132 77 164 208 164h43v47c0 80 -13 95 -86 95c-17 0 -37 0 -48 -1l-10 -48h-79v117
c18 7 85 26 158 26c74 0 111 -14 136 -42c30 26 69 42 128 42c150 0 199 -100 199 -264v-63zM567 321v12c0 87 -10 143 -84 143s-85 -56 -85 -143v-12h169zM286 99v162h-45c-73 0 -97 -17 -97 -90v-36c0 -50 19 -62 54 -62c36 0 70 15 88 26zM522 764l-117 -148h-106l97 148
h126z" />
    <glyph glyph-name="cacute" unicode="&#x107;" horiz-adv-x="391" 
d="M362 10c-27 -10 -77 -21 -137 -21c-141 0 -190 85 -190 236v109c0 151 49 235 190 235c60 0 113 -11 137 -21v-123h-79l-9 47c-10 1 -24 1 -31 1c-64 0 -93 -22 -93 -139v-109c0 -117 29 -140 93 -140c28 0 67 3 119 8v-83zM370 764l-117 -148h-106l97 148h126z" />
    <glyph glyph-name="ccircumflex" unicode="&#x109;" horiz-adv-x="391" 
d="M362 10c-27 -10 -77 -21 -137 -21c-141 0 -190 85 -190 236v109c0 151 49 235 190 235c60 0 113 -11 137 -21v-123h-79l-9 47c-10 1 -24 1 -31 1c-64 0 -93 -22 -93 -139v-109c0 -117 29 -140 93 -140c28 0 67 3 119 8v-83zM381 616h-100l-74 95l-74 -95h-100l102 148
h144z" />
    <glyph glyph-name="ccaron" unicode="&#x10d;" horiz-adv-x="391" 
d="M362 10c-27 -10 -77 -21 -137 -21c-141 0 -190 85 -190 236v109c0 151 49 235 190 235c60 0 113 -11 137 -21v-123h-79l-9 47c-10 1 -24 1 -31 1c-64 0 -93 -22 -93 -139v-109c0 -117 29 -140 93 -140c28 0 67 3 119 8v-83zM391 764l-102 -148h-144l-102 148h100l74 -95
l74 95h100z" />
    <glyph glyph-name="cdotaccent" unicode="&#x10b;" horiz-adv-x="391" 
d="M362 10c-27 -10 -77 -21 -137 -21c-141 0 -190 85 -190 236v109c0 151 49 235 190 235c60 0 113 -11 137 -21v-123h-79l-9 47c-10 1 -24 1 -31 1c-64 0 -93 -22 -93 -139v-109c0 -117 29 -140 93 -140c28 0 67 3 119 8v-83zM276 652h-118v117h118v-117z" />
    <glyph glyph-name="ccedilla" unicode="&#xe7;" horiz-adv-x="391" 
d="M362 10c-27 -10 -77 -21 -137 -21c-141 0 -190 85 -190 236v109c0 151 49 235 190 235c60 0 113 -11 137 -21v-123h-79l-9 47c-10 1 -24 1 -31 1c-64 0 -93 -22 -93 -139v-109c0 -117 29 -140 93 -140c28 0 67 3 119 8v-83zM288 -61l-106 -143h-103l85 143h124z" />
    <glyph glyph-name="dcaron" unicode="&#x10f;" horiz-adv-x="602" 
d="M612 770l-64 -236h-88l41 236h111zM462 0h-148v26c-31 -22 -72 -37 -121 -37c-113 0 -158 78 -158 222v122c0 178 69 236 194 236c27 0 52 -3 77 -8v120l-50 4v85h166v-676l40 -5v-89zM308 107v360c-26 4 -52 7 -70 7c-60 0 -88 -19 -88 -141v-122c0 -92 17 -126 76 -126
c29 0 56 8 82 22z" />
    <glyph glyph-name="dcroat" unicode="&#x111;" horiz-adv-x="492" 
d="M462 0h-148v26c-31 -22 -72 -37 -119 -37c-112 0 -160 78 -160 224v118c0 180 69 238 194 238c27 0 52 -3 77 -8v70h-131v76h131v63h116v-63h46v-76h-46v-537l40 -5v-89zM308 107v359c-26 5 -52 8 -70 8c-60 0 -88 -19 -88 -143v-118c0 -94 17 -127 76 -127
c29 0 56 7 82 21z" />
    <glyph glyph-name="eacute" unicode="&#xe9;" horiz-adv-x="461" 
d="M431 242h-283v-13c0 -112 12 -146 111 -146c44 0 107 5 154 13v-85c-30 -10 -90 -22 -162 -22c-155 0 -218 60 -218 252v67c0 175 62 261 199 261c150 0 199 -99 199 -267v-60zM317 321v12c0 87 -10 143 -84 143s-85 -56 -85 -143v-12h169zM383 764l-117 -148h-106
l97 148h126z" />
    <glyph glyph-name="egrave" unicode="&#xe8;" horiz-adv-x="461" 
d="M431 242h-283v-13c0 -112 12 -146 111 -146c44 0 107 5 154 13v-85c-30 -10 -90 -22 -162 -22c-155 0 -218 60 -218 252v67c0 175 62 261 199 261c150 0 199 -99 199 -267v-60zM317 321v12c0 87 -10 143 -84 143s-85 -56 -85 -143v-12h169zM311 616h-105l-118 148h127z
" />
    <glyph glyph-name="ecircumflex" unicode="&#xea;" horiz-adv-x="461" 
d="M431 242h-283v-13c0 -112 12 -146 111 -146c44 0 107 5 154 13v-85c-30 -10 -90 -22 -162 -22c-155 0 -218 60 -218 252v67c0 175 62 261 199 261c150 0 199 -99 199 -267v-60zM317 321v12c0 87 -10 143 -84 143s-85 -56 -85 -143v-12h169zM408 616h-100l-74 95l-74 -95
h-100l102 148h144z" />
    <glyph glyph-name="edieresis" unicode="&#xeb;" horiz-adv-x="461" 
d="M431 242h-283v-13c0 -112 12 -146 111 -146c44 0 107 5 154 13v-85c-30 -10 -90 -22 -162 -22c-155 0 -218 60 -218 252v67c0 175 62 261 199 261c150 0 199 -99 199 -267v-60zM317 321v12c0 87 -10 143 -84 143s-85 -56 -85 -143v-12h169zM376 637h-100v117h100v-117z
M184 637v117h-101v-117h101z" />
    <glyph glyph-name="emacron" unicode="&#x113;" horiz-adv-x="461" 
d="M431 242h-283v-13c0 -112 12 -146 111 -146c44 0 107 5 154 13v-85c-30 -10 -90 -22 -162 -22c-155 0 -218 60 -218 252v67c0 175 62 261 199 261c150 0 199 -99 199 -267v-60zM317 321v12c0 87 -10 143 -84 143s-85 -56 -85 -143v-12h169zM383 651h-297v80h297v-80z" />
    <glyph glyph-name="ecaron" unicode="&#x11b;" horiz-adv-x="461" 
d="M431 242h-283v-13c0 -112 12 -146 111 -146c44 0 107 5 154 13v-85c-30 -10 -90 -22 -162 -22c-155 0 -218 60 -218 252v67c0 175 62 261 199 261c150 0 199 -99 199 -267v-60zM317 321v12c0 87 -10 143 -84 143s-85 -56 -85 -143v-12h169zM412 764l-102 -148h-144
l-102 148h100l74 -95l74 95h100z" />
    <glyph glyph-name="ebreve" unicode="&#x115;" horiz-adv-x="461" 
d="M431 242h-283v-13c0 -112 12 -146 111 -146c44 0 107 5 154 13v-85c-30 -10 -90 -22 -162 -22c-155 0 -218 60 -218 252v67c0 175 62 261 199 261c150 0 199 -99 199 -267v-60zM317 321v12c0 87 -10 143 -84 143s-85 -56 -85 -143v-12h169zM388 767
c-8 -93 -49 -153 -150 -153c-102 0 -143 60 -151 153h79c5 -69 25 -88 72 -88c46 0 66 19 72 88h78z" />
    <glyph glyph-name="edotaccent" unicode="&#x117;" horiz-adv-x="461" 
d="M431 242h-283v-13c0 -112 12 -146 111 -146c44 0 107 5 154 13v-85c-30 -10 -90 -22 -162 -22c-155 0 -218 60 -218 252v67c0 175 62 261 199 261c150 0 199 -99 199 -267v-60zM317 321v12c0 87 -10 143 -84 143s-85 -56 -85 -143v-12h169zM295 653h-118v117h118v-117z
" />
    <glyph glyph-name="eogonek" unicode="&#x119;" horiz-adv-x="461" 
d="M431 242h-283v-13c0 -112 12 -146 111 -146c44 0 107 5 154 13v-85c-95 -55 -109 -84 -109 -114c0 -24 11 -40 48 -40c23 0 45 2 61 3v-60c-23 -7 -56 -13 -91 -13c-77 0 -118 34 -118 99c0 35 18 71 57 103h-10c-155 0 -218 60 -218 252v67c0 175 62 261 199 261
c150 0 199 -99 199 -267v-60zM317 321v12c0 87 -10 143 -84 143s-85 -56 -85 -143v-12h169z" />
    <glyph glyph-name="gcircumflex" unicode="&#x11d;" horiz-adv-x="473" 
d="M440 -37c0 -114 -64 -178 -207 -178c-141 0 -202 64 -202 174c0 43 16 89 43 120c-27 20 -40 46 -40 80c0 36 15 66 44 86c-25 29 -39 72 -39 135c0 107 34 189 198 189h208v-73l-44 -8c11 -18 27 -56 27 -108c0 -126 -67 -189 -195 -189c-35 0 -66 6 -87 13
c-12 -10 -18 -23 -18 -36c0 -24 11 -31 45 -31h59c133 0 208 -28 208 -174zM327 -39c0 75 -17 91 -95 91h-69c-13 -17 -22 -43 -22 -91c0 -63 17 -94 93 -94c73 0 93 31 93 94zM316 380c0 65 -14 103 -83 103c-70 0 -82 -39 -82 -103s13 -103 82 -103s83 39 83 103zM405 616
h-100l-74 95l-74 -95h-100l102 148h144z" />
    <glyph glyph-name="gbreve" unicode="&#x11f;" horiz-adv-x="473" 
d="M440 -37c0 -114 -64 -178 -207 -178c-141 0 -202 64 -202 174c0 43 16 89 43 120c-27 20 -40 46 -40 80c0 36 15 66 44 86c-25 29 -39 72 -39 135c0 107 34 189 198 189h208v-73l-44 -8c11 -18 27 -56 27 -108c0 -126 -67 -189 -195 -189c-35 0 -66 6 -87 13
c-12 -10 -18 -23 -18 -36c0 -24 11 -31 45 -31h59c133 0 208 -28 208 -174zM327 -39c0 75 -17 91 -95 91h-69c-13 -17 -22 -43 -22 -91c0 -63 17 -94 93 -94c73 0 93 31 93 94zM316 380c0 65 -14 103 -83 103c-70 0 -82 -39 -82 -103s13 -103 82 -103s83 39 83 103zM385 768
c-8 -93 -49 -153 -150 -153c-102 0 -143 60 -151 153h79c5 -69 25 -88 72 -88c46 0 66 19 72 88h78z" />
    <glyph glyph-name="gdotaccent" unicode="&#x121;" horiz-adv-x="473" 
d="M440 -37c0 -114 -64 -178 -207 -178c-141 0 -202 64 -202 174c0 43 16 89 43 120c-27 20 -40 46 -40 80c0 36 15 66 44 86c-25 29 -39 72 -39 135c0 107 34 189 198 189h208v-73l-44 -8c11 -18 27 -56 27 -108c0 -126 -67 -189 -195 -189c-35 0 -66 6 -87 13
c-12 -10 -18 -23 -18 -36c0 -24 11 -31 45 -31h59c133 0 208 -28 208 -174zM327 -39c0 75 -17 91 -95 91h-69c-13 -17 -22 -43 -22 -91c0 -63 17 -94 93 -94c73 0 93 31 93 94zM316 380c0 65 -14 103 -83 103c-70 0 -82 -39 -82 -103s13 -103 82 -103s83 39 83 103zM296 653
h-118v117h118v-117z" />
    <glyph glyph-name="gcommaaccent" unicode="&#x123;" horiz-adv-x="473" 
d="M440 -37c0 -114 -64 -178 -207 -178c-141 0 -202 64 -202 174c0 43 16 89 43 120c-27 20 -40 46 -40 80c0 36 15 66 44 86c-25 29 -39 72 -39 135c0 107 34 189 198 189h208v-73l-44 -8c11 -18 27 -56 27 -108c0 -126 -67 -189 -195 -189c-35 0 -66 6 -87 13
c-12 -10 -18 -23 -18 -36c0 -24 11 -31 45 -31h59c133 0 208 -28 208 -174zM327 -39c0 75 -17 91 -95 91h-69c-13 -17 -22 -43 -22 -91c0 -63 17 -94 93 -94c73 0 93 31 93 94zM316 380c0 65 -14 103 -83 103c-70 0 -82 -39 -82 -103s13 -103 82 -103s83 39 83 103zM345 760
l-54 -144h-124l79 144h99z" />
    <glyph glyph-name="hcircumflex" unicode="&#x125;" horiz-adv-x="518" 
d="M492 0h-155v374c0 77 -13 99 -60 99c-34 0 -70 -13 -96 -30v-349l40 -5v-89h-195v89l40 5v582l-40 5v89h155v-238c30 19 77 37 130 37c116 0 141 -82 141 -191v-284l40 -5v-89zM433 798h-100l-74 95l-74 -95h-100l102 148h144z" />
    <glyph glyph-name="hbar" unicode="&#x127;" horiz-adv-x="518" 
d="M23 630v78h43v62h115v-62h133v-78h-133v-98c30 19 77 37 130 37c116 0 141 -82 141 -191v-284l40 -5v-89h-155v374c0 77 -13 99 -59 99c-35 0 -71 -13 -97 -30v-349l40 -5v-89h-195v89l40 5v536h-43z" />
    <glyph glyph-name="iacute" unicode="&#xed;" horiz-adv-x="248" 
d="M261 764l-117 -148h-106l97 148h126zM221 0h-195v90l40 4v369l-40 5v90h155v-464l40 -4v-90z" />
    <glyph glyph-name="igrave" unicode="&#xec;" horiz-adv-x="248" 
d="M185 616h-105l-118 148h127zM221 0h-195v90l40 4v369l-40 5v90h155v-464l40 -4v-90z" />
    <glyph glyph-name="icircumflex" unicode="&#xee;" horiz-adv-x="248" 
d="M221 0h-195v90l40 4v369l-40 5v90h155v-464l40 -4v-90zM296 616h-100l-74 95l-74 -95h-100l102 148h144z" />
    <glyph glyph-name="idieresis" unicode="&#xef;" horiz-adv-x="248" 
d="M270 637h-100v117h100v-117zM78 637v117h-101v-117h101zM221 0h-195v90l40 4v369l-40 5v90h155v-464l40 -4v-90z" />
    <glyph glyph-name="itilde" unicode="&#x129;" horiz-adv-x="248" 
d="M300 730c0 -75 -31 -117 -97 -117c-33 0 -64 8 -92 38l-30 31c-16 17 -21 21 -37 21c-19 0 -27 -14 -27 -44v-42h-75v42c0 74 34 117 98 117c34 0 58 -8 86 -37l30 -31c17 -17 26 -22 44 -22c17 0 24 13 24 44v42h76v-42zM221 0h-195v90l40 4v369l-40 5v90h155v-464
l40 -4v-90z" />
    <glyph glyph-name="imacron" unicode="&#x12b;" horiz-adv-x="248" 
d="M271 651h-297v80h297v-80zM221 0h-195v90l40 4v369l-40 5v90h155v-464l40 -4v-90z" />
    <glyph glyph-name="ibreve" unicode="&#x12d;" horiz-adv-x="248" 
d="M274 767c-8 -93 -49 -153 -150 -153c-102 0 -143 60 -151 153h79c5 -69 25 -88 72 -88c46 0 66 19 72 88h78zM221 0h-195v90l40 4v369l-40 5v90h155v-464l40 -4v-90z" />
    <glyph glyph-name="iogonek" unicode="&#x12f;" horiz-adv-x="248" 
d="M221 0h-34c-69 -54 -79 -77 -79 -102c0 -26 11 -41 48 -41c23 0 45 2 61 3v-60c-24 -7 -56 -13 -91 -13c-77 0 -118 38 -118 96c0 43 21 76 71 117h-53v90l40 4v369l-40 6v89h156v-464l39 -4v-90zM184 652h-120v118h120v-118z" />
    <glyph glyph-name="dotlessi" unicode="&#x131;" horiz-adv-x="248" 
d="M221 0h-195v90l40 4v369l-40 5v90h155v-464l40 -4v-90z" />
    <glyph glyph-name="ij" unicode="&#x133;" horiz-adv-x="463" 
d="M221 0h-195v90l40 4v369l-40 6v89h156v-464l39 -4v-90zM184 652h-120v118h120v-118zM407 -69c0 -105 -33 -146 -131 -146c-27 0 -58 3 -71 7v81h45c35 0 42 11 42 58v533l-41 5v89h156v-627zM408 652h-119v118h119v-118z" />
    <glyph glyph-name="jcircumflex" unicode="&#x135;" horiz-adv-x="237" 
d="M181 -68c0 -99 -33 -146 -126 -146c-32 0 -62 5 -76 9v80c14 -1 28 -1 46 -1c34 0 41 11 41 58v530l-40 5v91h155v-626zM297 616h-100l-74 95l-74 -95h-100l102 148h144z" />
    <glyph glyph-name="kcommaaccent" unicode="&#x137;" horiz-adv-x="477" 
d="M451 0h-136l-134 263v-263h-155v89l40 5v582l-40 5v89h155v-460l134 248h135v-89l-57 -5l-101 -174l107 -195l52 -6v-89zM313 -61l-80 -143h-99l54 143h125z" />
    <glyph glyph-name="kgreenlandic" unicode="&#x138;" horiz-adv-x="477" 
d="M452 0h-135l-137 263v-263h-154v89l40 5v370l-40 5v89h154v-248l137 248h134v-89l-58 -5l-101 -174l107 -195l53 -6v-89z" />
    <glyph glyph-name="lacute" unicode="&#x13a;" horiz-adv-x="247" 
d="M221 0h-195v89l40 5v582l-40 5v89h155v-676l40 -5v-89zM274 945l-117 -148h-106l97 148h126z" />
    <glyph glyph-name="lcaron" unicode="&#x13e;" horiz-adv-x="363" 
d="M221 0h-195v89l40 5v582l-40 5v89h155v-676l40 -5v-89zM373 770l-63 -236h-88l40 236h111z" />
    <glyph glyph-name="ldot" unicode="&#x140;" horiz-adv-x="372" 
d="M221 0h-195v89l40 5v582l-40 5v89h155v-676l40 -5v-89zM345 286h-112v146h112v-146z" />
    <glyph glyph-name="lcommaaccent" unicode="&#x13c;" horiz-adv-x="247" 
d="M221 0h-195v89l40 5v582l-40 5v89h155v-676l40 -5v-89zM190 -61l-80 -143h-99l54 143h125z" />
    <glyph glyph-name="lslash" unicode="&#x142;" horiz-adv-x="247" 
d="M14 231v102l52 57v286l-40 5v89h155v-253l50 55v-102l-50 -55v-321l40 -5v-89h-195v89l40 5v194z" />
    <glyph glyph-name="nacute" unicode="&#x144;" horiz-adv-x="518" 
d="M492 0h-155v378c0 74 -9 97 -54 97c-28 0 -62 -12 -102 -34v-347l40 -5v-89h-195v89l40 5v370l-40 5v89h150v-38c41 27 87 49 139 49c121 0 137 -74 137 -191v-284l40 -5v-89zM412 764l-117 -148h-106l97 148h126z" />
    <glyph glyph-name="ntilde" unicode="&#xf1;" horiz-adv-x="518" 
d="M492 0h-155v378c0 74 -9 97 -54 97c-28 0 -62 -12 -102 -34v-347l40 -5v-89h-195v89l40 5v370l-40 5v89h150v-38c41 27 87 49 139 49c121 0 137 -74 137 -191v-284l40 -5v-89zM434 730c0 -75 -31 -117 -97 -117c-33 0 -64 8 -92 38l-30 31c-16 17 -21 21 -37 21
c-19 0 -27 -14 -27 -44v-42h-75v42c0 74 34 117 98 117c34 0 58 -8 86 -37l30 -31c17 -17 26 -22 44 -22c17 0 24 13 24 44v42h76v-42z" />
    <glyph glyph-name="ncaron" unicode="&#x148;" horiz-adv-x="518" 
d="M492 0h-155v378c0 74 -9 97 -54 97c-28 0 -62 -12 -102 -34v-347l40 -5v-89h-195v89l40 5v370l-40 5v89h150v-38c41 27 87 49 139 49c121 0 137 -74 137 -191v-284l40 -5v-89zM435 764l-102 -148h-144l-102 148h100l74 -95l74 95h100z" />
    <glyph glyph-name="ncommaaccent" unicode="&#x146;" horiz-adv-x="518" 
d="M492 0h-155v378c0 74 -9 97 -54 97c-28 0 -62 -12 -102 -34v-347l40 -5v-89h-195v89l40 5v370l-40 5v89h150v-38c41 27 87 49 139 49c121 0 137 -74 137 -191v-284l40 -5v-89zM326 -61l-80 -143h-99l54 143h125z" />
    <glyph glyph-name="napostrophe" unicode="&#x149;" horiz-adv-x="518" 
d="M492 0h-155v378c0 74 -9 97 -54 97c-28 0 -62 -12 -102 -34v-347l40 -5v-89h-195v89l40 5v370l-40 5v89h150v-38c41 27 87 49 139 49c121 0 137 -74 137 -191v-284l40 -5v-89zM46 770l-66 -236h-86l40 236h112z" />
    <glyph glyph-name="eng" unicode="&#x14b;" horiz-adv-x="518" 
d="M452 -68c0 -99 -33 -146 -126 -146c-31 0 -62 5 -76 9v80c13 -1 28 -1 46 -1c34 0 41 11 41 58v446c0 74 -9 97 -54 97c-27 0 -61 -11 -102 -34v-347l40 -5v-89h-195v89l40 5v370l-40 5v89h151v-38c40 27 89 49 139 49c121 0 136 -74 136 -191v-446z" />
    <glyph glyph-name="oacute" unicode="&#xf3;" horiz-adv-x="467" 
d="M433 226c0 -167 -71 -237 -200 -237c-128 0 -199 70 -199 237v106c0 166 71 237 199 237c129 0 200 -70 200 -237v-106zM318 226v106c0 106 -25 141 -85 141c-59 0 -85 -34 -85 -141v-106c0 -106 26 -141 85 -141c60 0 85 34 85 141zM390 764l-117 -148h-106l97 148h126z
" />
    <glyph glyph-name="ograve" unicode="&#xf2;" horiz-adv-x="467" 
d="M433 226c0 -167 -71 -237 -200 -237c-128 0 -199 70 -199 237v106c0 166 71 237 199 237c129 0 200 -70 200 -237v-106zM318 226v106c0 106 -25 141 -85 141c-59 0 -85 -34 -85 -141v-106c0 -106 26 -141 85 -141c60 0 85 34 85 141zM309 616h-105l-118 148h127z" />
    <glyph glyph-name="ocircumflex" unicode="&#xf4;" horiz-adv-x="467" 
d="M433 226c0 -167 -71 -237 -200 -237c-128 0 -199 70 -199 237v106c0 166 71 237 199 237c129 0 200 -70 200 -237v-106zM318 226v106c0 106 -25 141 -85 141c-59 0 -85 -34 -85 -141v-106c0 -106 26 -141 85 -141c60 0 85 34 85 141zM407 616h-100l-74 95l-74 -95h-100
l102 148h144z" />
    <glyph glyph-name="odieresis" unicode="&#xf6;" horiz-adv-x="467" 
d="M433 226c0 -167 -71 -237 -200 -237c-128 0 -199 70 -199 237v106c0 166 71 237 199 237c129 0 200 -70 200 -237v-106zM318 226v106c0 106 -25 141 -85 141c-59 0 -85 -34 -85 -141v-106c0 -106 26 -141 85 -141c60 0 85 34 85 141zM380 637h-100v117h100v-117zM188 637
v117h-101v-117h101z" />
    <glyph glyph-name="otilde" unicode="&#xf5;" horiz-adv-x="467" 
d="M433 226c0 -167 -71 -237 -200 -237c-128 0 -199 70 -199 237v106c0 166 71 237 199 237c129 0 200 -70 200 -237v-106zM318 226v106c0 106 -25 141 -85 141c-59 0 -85 -34 -85 -141v-106c0 -106 26 -141 85 -141c60 0 85 34 85 141zM413 730c0 -75 -31 -117 -97 -117
c-33 0 -64 8 -92 38l-30 31c-16 17 -21 21 -37 21c-19 0 -27 -14 -27 -44v-42h-75v42c0 74 34 117 98 117c34 0 58 -8 86 -37l30 -31c17 -17 26 -22 44 -22c17 0 24 13 24 44v42h76v-42z" />
    <glyph glyph-name="omacron" unicode="&#x14d;" horiz-adv-x="467" 
d="M433 226c0 -167 -71 -237 -200 -237c-128 0 -199 70 -199 237v106c0 166 71 237 199 237c129 0 200 -70 200 -237v-106zM318 226v106c0 106 -25 141 -85 141c-59 0 -85 -34 -85 -141v-106c0 -106 26 -141 85 -141c60 0 85 34 85 141zM384 651h-297v80h297v-80z" />
    <glyph glyph-name="obreve" unicode="&#x14f;" horiz-adv-x="467" 
d="M433 226c0 -167 -71 -237 -200 -237c-128 0 -199 70 -199 237v106c0 166 71 237 199 237c129 0 200 -70 200 -237v-106zM318 226v106c0 106 -25 141 -85 141c-59 0 -85 -34 -85 -141v-106c0 -106 26 -141 85 -141c60 0 85 34 85 141zM385 767c-8 -93 -49 -153 -150 -153
c-102 0 -143 60 -151 153h79c5 -69 25 -88 72 -88c46 0 66 19 72 88h78z" />
    <glyph glyph-name="ohungarumlaut" unicode="&#x151;" horiz-adv-x="467" 
d="M433 226c0 -167 -71 -237 -200 -237c-128 0 -199 70 -199 237v106c0 166 71 237 199 237c129 0 200 -70 200 -237v-106zM318 226v106c0 106 -25 141 -85 141c-59 0 -85 -34 -85 -141v-106c0 -106 26 -141 85 -141c60 0 85 34 85 141zM490 763l-118 -149h-103l97 149h124z
M296 763h-123l-97 -149h102z" />
    <glyph glyph-name="oslash" unicode="&#xf8;" horiz-adv-x="467" 
d="M433 226c0 -167 -71 -237 -200 -237c-40 0 -75 7 -104 21l-23 -40h-93l56 97c-23 38 -35 90 -35 159v106c0 166 71 237 199 237c43 0 80 -8 110 -25l25 44h93l-60 -104c21 -37 32 -87 32 -152v-106zM148 226v-21l142 248c-14 14 -33 20 -57 20c-59 0 -85 -34 -85 -141
v-106zM318 226v106v7l-137 -239c13 -11 30 -15 52 -15c60 0 85 34 85 141z" />
    <glyph glyph-name="oslashacute" unicode="&#x1ff;" horiz-adv-x="467" 
d="M385 764l-117 -148h-106l97 148h126zM433 226c0 -167 -71 -237 -200 -237c-40 0 -75 7 -104 21l-23 -40h-93l56 97c-23 38 -35 90 -35 159v106c0 166 71 237 199 237c43 0 80 -8 110 -25l25 44h93l-60 -104c21 -37 32 -87 32 -152v-106zM148 226v-21l142 248
c-14 14 -33 20 -57 20c-59 0 -85 -34 -85 -141v-106zM318 226v106v7l-137 -239c13 -11 30 -15 52 -15c60 0 85 34 85 141z" />
    <glyph glyph-name="oe" unicode="&#x153;" horiz-adv-x="747" 
d="M717 242h-283v-13c0 -111 11 -148 112 -148c48 0 105 4 154 13v-83c-31 -10 -95 -22 -164 -22c-79 0 -129 18 -160 54c-33 -36 -80 -54 -142 -54c-129 0 -200 70 -200 237v106c0 166 71 237 200 237c63 0 111 -19 143 -56c30 37 78 56 141 56c150 0 199 -100 199 -264
v-63zM604 321v12c0 87 -11 144 -85 144c-72 0 -84 -52 -85 -125v-31h170zM319 226v106c0 106 -26 141 -85 141s-85 -34 -85 -141v-106c0 -106 25 -141 85 -141c59 0 85 34 85 141z" />
    <glyph glyph-name="racute" unicode="&#x155;" horiz-adv-x="347" 
d="M327 468c-46 0 -109 -10 -146 -28v-346l40 -5v-89h-195v89l40 5v370l-40 5v89h148v-40c48 44 107 51 153 51v-101zM345 764l-117 -148h-106l97 148h126z" />
    <glyph glyph-name="rcaron" unicode="&#x159;" horiz-adv-x="347" 
d="M327 468c-46 0 -109 -10 -146 -28v-346l40 -5v-89h-195v89l40 5v370l-40 5v89h148v-40c48 44 107 51 153 51v-101zM353 764l-102 -148h-144l-102 148h100l74 -95l74 95h100z" />
    <glyph glyph-name="rcommaaccent" unicode="&#x157;" horiz-adv-x="347" 
d="M327 468c-46 0 -109 -10 -146 -28v-346l40 -5v-89h-195v89l40 5v370l-40 5v89h148v-40c48 44 107 51 153 51v-101zM250 -61l-80 -143h-99l54 143h125z" />
    <glyph glyph-name="sacute" unicode="&#x15b;" horiz-adv-x="398" 
d="M368 147c0 -92 -53 -158 -185 -158c-53 0 -120 11 -149 19v129h80l9 -54c32 -2 43 -2 60 -2c54 0 70 20 70 66c0 36 -14 52 -78 93l-30 19c-85 54 -116 99 -116 172c0 92 59 138 179 138c46 0 116 -8 148 -19v-119h-80l-10 45c-16 1 -36 2 -54 2c-46 0 -68 -11 -68 -47
s15 -52 68 -86l34 -22c94 -61 122 -97 122 -176zM354 764l-117 -148h-106l97 148h126z" />
    <glyph glyph-name="scircumflex" unicode="&#x15d;" horiz-adv-x="398" 
d="M368 147c0 -92 -53 -158 -185 -158c-53 0 -120 11 -149 19v129h80l9 -54c32 -2 43 -2 60 -2c54 0 70 20 70 66c0 36 -14 52 -78 93l-30 19c-85 54 -116 99 -116 172c0 92 59 138 179 138c46 0 116 -8 148 -19v-119h-80l-10 45c-16 1 -36 2 -54 2c-46 0 -68 -11 -68 -47
s15 -52 68 -86l34 -22c94 -61 122 -97 122 -176zM373 616h-100l-74 95l-74 -95h-100l102 148h144z" />
    <glyph glyph-name="scaron" unicode="&#x161;" horiz-adv-x="398" 
d="M368 147c0 -92 -53 -158 -185 -158c-53 0 -120 11 -149 19v129h80l9 -54c32 -2 43 -2 60 -2c54 0 70 20 70 66c0 36 -14 52 -78 93l-30 19c-85 54 -116 99 -116 172c0 92 59 138 179 138c46 0 116 -8 148 -19v-119h-80l-10 45c-16 1 -36 2 -54 2c-46 0 -68 -11 -68 -47
s15 -52 68 -86l34 -22c94 -61 122 -97 122 -176zM373 764l-102 -148h-144l-102 148h100l74 -95l74 95h100z" />
    <glyph glyph-name="scedilla" unicode="&#x15f;" horiz-adv-x="398" 
d="M368 147c0 -92 -53 -158 -185 -158c-53 0 -120 11 -149 19v129h80l9 -54c32 -2 43 -2 60 -2c54 0 70 20 70 66c0 36 -14 52 -78 93l-30 19c-85 54 -116 99 -116 172c0 92 59 138 179 138c46 0 116 -8 148 -19v-119h-80l-10 45c-16 1 -36 2 -54 2c-46 0 -68 -11 -68 -47
s15 -52 68 -86l34 -22c94 -61 122 -97 122 -176zM269 -61l-106 -143h-103l85 143h124z" />
    <glyph glyph-name="scommaaccent" unicode="&#x219;" horiz-adv-x="398" 
d="M368 147c0 -92 -53 -158 -185 -158c-53 0 -120 11 -149 19v129h80l9 -54c32 -2 43 -2 60 -2c54 0 70 20 70 66c0 36 -14 52 -78 93l-30 19c-85 54 -116 99 -116 172c0 92 59 138 179 138c46 0 116 -8 148 -19v-119h-80l-10 45c-16 1 -36 2 -54 2c-46 0 -68 -11 -68 -47
s15 -52 68 -86l34 -22c94 -61 122 -97 122 -176zM271 -61l-80 -143h-99l54 143h125z" />
    <glyph glyph-name="germandbls" unicode="&#xdf;" horiz-adv-x="512" 
d="M481 208c0 -122 -42 -216 -197 -216c-14 0 -34 1 -54 4v90h34c80 0 102 36 102 124v29c0 74 -21 117 -102 117h-34v84h34c75 0 93 42 93 116v14c0 69 -16 113 -88 113s-92 -43 -92 -149v-534h-155v90l40 6v438c0 135 39 245 207 245c164 0 201 -106 201 -207v-14
c0 -69 -22 -122 -73 -156c59 -32 84 -91 84 -165v-29z" />
    <glyph glyph-name="tcaron" unicode="&#x165;" horiz-adv-x="346" 
d="M388 764l-54 -169h-90l35 169h109zM319 3c-14 -5 -52 -14 -95 -14c-89 0 -121 41 -121 135v344l-78 9v81h78v132h115v-132h100v-90h-100v-339c0 -44 2 -52 39 -52c20 0 53 3 62 3v-77z" />
    <glyph glyph-name="tcommaaccent" unicode="&#x163;" horiz-adv-x="346" 
d="M319 3c-14 -5 -52 -14 -95 -14c-89 0 -121 41 -121 135v344l-78 9v81h78v132h115v-132h100v-90h-100v-339c0 -44 2 -52 39 -52c20 0 53 3 62 3v-77zM275 -61l-80 -143h-99l54 143h125z" />
    <glyph glyph-name="uni021B" unicode="&#x21b;" horiz-adv-x="346" 
d="M319 3c-14 -5 -52 -14 -95 -14c-89 0 -121 41 -121 135v344l-78 9v81h78v132h115v-132h100v-90h-100v-339c0 -44 2 -52 39 -52c20 0 53 3 62 3v-77zM275 -61l-80 -143h-99l54 143h125z" />
    <glyph glyph-name="tbar" unicode="&#x167;" horiz-adv-x="346" 
d="M318 318h-100v-188c0 -46 2 -54 38 -54c21 0 53 3 62 4v-77c-13 -4 -51 -14 -94 -14c-89 0 -121 41 -121 135v194h-78v86h78v68h-78v86h78v132h115v-132h100v-86h-100v-68h100v-86z" />
    <glyph glyph-name="uacute" unicode="&#xfa;" horiz-adv-x="518" 
d="M492 0h-152v38c-42 -27 -89 -49 -143 -49c-117 0 -131 90 -131 191v284l-40 5v89h155v-378c0 -74 8 -97 56 -97c26 0 60 12 100 34v347l-40 5v89h155v-464l40 -5v-89zM408 764l-117 -148h-106l97 148h126z" />
    <glyph glyph-name="ugrave" unicode="&#xf9;" horiz-adv-x="518" 
d="M492 0h-152v38c-42 -27 -89 -49 -143 -49c-117 0 -131 90 -131 191v284l-40 5v89h155v-378c0 -74 8 -97 56 -97c26 0 60 12 100 34v347l-40 5v89h155v-464l40 -5v-89zM328 616h-105l-118 148h127z" />
    <glyph glyph-name="ucircumflex" unicode="&#xfb;" horiz-adv-x="518" 
d="M492 0h-152v38c-42 -27 -89 -49 -143 -49c-117 0 -131 90 -131 191v284l-40 5v89h155v-378c0 -74 8 -97 56 -97c26 0 60 12 100 34v347l-40 5v89h155v-464l40 -5v-89zM431 616h-100l-74 95l-74 -95h-100l102 148h144z" />
    <glyph glyph-name="udieresis" unicode="&#xfc;" horiz-adv-x="518" 
d="M492 0h-152v38c-42 -27 -89 -49 -143 -49c-117 0 -131 90 -131 191v284l-40 5v89h155v-378c0 -74 8 -97 56 -97c26 0 60 12 100 34v347l-40 5v89h155v-464l40 -5v-89zM402 637h-100v117h100v-117zM210 637v117h-101v-117h101z" />
    <glyph glyph-name="utilde" unicode="&#x169;" horiz-adv-x="518" 
d="M492 0h-152v38c-42 -27 -89 -49 -143 -49c-117 0 -131 90 -131 191v284l-40 5v89h155v-378c0 -74 8 -97 56 -97c26 0 60 12 100 34v347l-40 5v89h155v-464l40 -5v-89zM439 730c0 -75 -31 -117 -97 -117c-33 0 -64 8 -92 38l-30 31c-16 17 -21 21 -37 21
c-19 0 -27 -14 -27 -44v-42h-75v42c0 74 34 117 98 117c34 0 58 -8 86 -37l30 -31c17 -17 26 -22 44 -22c17 0 24 13 24 44v42h76v-42z" />
    <glyph glyph-name="umacron" unicode="&#x16b;" horiz-adv-x="518" 
d="M492 0h-152v38c-42 -27 -89 -49 -143 -49c-117 0 -131 90 -131 191v284l-40 5v89h155v-378c0 -74 8 -97 56 -97c26 0 60 12 100 34v347l-40 5v89h155v-464l40 -5v-89zM404 652h-297v80h297v-80z" />
    <glyph glyph-name="uring" unicode="&#x16f;" horiz-adv-x="518" 
d="M492 0h-152v38c-42 -27 -89 -49 -143 -49c-117 0 -131 90 -131 191v284l-40 5v89h155v-378c0 -74 8 -97 56 -97c26 0 60 12 100 34v347l-40 5v89h155v-464l40 -5v-89zM370 721c0 -78 -48 -114 -114 -114s-116 36 -116 114c0 79 50 115 116 115s114 -36 114 -115zM302 721
c0 43 -20 55 -46 55c-27 0 -46 -12 -46 -55c0 -41 19 -54 46 -54c26 0 46 13 46 54z" />
    <glyph glyph-name="ubreve" unicode="&#x16d;" horiz-adv-x="518" 
d="M492 0h-152v38c-42 -27 -89 -49 -143 -49c-117 0 -131 90 -131 191v284l-40 5v89h155v-378c0 -74 8 -97 56 -97c26 0 60 12 100 34v347l-40 5v89h155v-464l40 -5v-89zM403 767c-8 -93 -49 -153 -150 -153c-102 0 -143 60 -151 153h79c5 -69 25 -88 72 -88
c46 0 66 19 72 88h78z" />
    <glyph glyph-name="uhungarumlaut" unicode="&#x171;" horiz-adv-x="518" 
d="M492 0h-152v38c-42 -27 -89 -49 -143 -49c-117 0 -131 90 -131 191v284l-40 5v89h155v-378c0 -74 8 -97 56 -97c26 0 60 12 100 34v347l-40 5v89h155v-464l40 -5v-89zM517 765l-118 -149h-103l97 149h124zM323 765h-123l-97 -149h102z" />
    <glyph glyph-name="uogonek" unicode="&#x173;" horiz-adv-x="518" 
d="M492 -200c-23 -7 -56 -13 -91 -13c-77 0 -118 29 -118 94c0 44 28 83 88 119h-31v38c-42 -27 -89 -49 -143 -49c-117 0 -131 90 -131 191v284l-40 5v89h155v-378c0 -74 8 -97 56 -97c26 0 60 12 100 34v347l-40 5v89h155v-464l40 -5v-89c-95 -55 -109 -78 -109 -108
c0 -24 11 -35 48 -35c23 0 45 2 61 3v-60z" />
    <glyph glyph-name="wacute" unicode="&#x1e83;" horiz-adv-x="735" 
d="M524 558h189v-89l-43 -5l-71 -464h-146l-66 274c-11 47 -15 77 -18 105h-3c-4 -29 -7 -58 -18 -105l-67 -274h-144l-72 464l-42 5v89h190v-90l-35 -4l28 -221c6 -50 10 -93 14 -133h4c8 42 14 83 25 131l56 235h127l56 -234c12 -48 18 -90 26 -132h3c4 41 8 84 14 133
l27 221l-34 4v90zM524 764l-117 -148h-106l97 148h126z" />
    <glyph glyph-name="wgrave" unicode="&#x1e81;" horiz-adv-x="735" 
d="M524 558h189v-89l-43 -5l-71 -464h-146l-66 274c-11 47 -15 77 -18 105h-3c-4 -29 -7 -58 -18 -105l-67 -274h-144l-72 464l-42 5v89h190v-90l-35 -4l28 -221c6 -50 10 -93 14 -133h4c8 42 14 83 25 131l56 235h127l56 -234c12 -48 18 -90 26 -132h3c4 41 8 84 14 133
l27 221l-34 4v90zM433 616h-105l-118 148h127z" />
    <glyph glyph-name="wcircumflex" unicode="&#x175;" horiz-adv-x="735" 
d="M524 558h189v-89l-43 -5l-71 -464h-146l-66 274c-11 47 -15 77 -18 105h-3c-4 -29 -7 -58 -18 -105l-67 -274h-144l-72 464l-42 5v89h190v-90l-35 -4l28 -221c6 -50 10 -93 14 -133h4c8 42 14 83 25 131l56 235h127l56 -234c12 -48 18 -90 26 -132h3c4 41 8 84 14 133
l27 221l-34 4v90zM541 616h-100l-74 95l-74 -95h-100l102 148h144z" />
    <glyph glyph-name="wdieresis" unicode="&#x1e85;" horiz-adv-x="735" 
d="M524 558h189v-89l-43 -5l-71 -464h-146l-66 274c-11 47 -15 77 -18 105h-3c-4 -29 -7 -58 -18 -105l-67 -274h-144l-72 464l-42 5v89h190v-90l-35 -4l28 -221c6 -50 10 -93 14 -133h4c8 42 14 83 25 131l56 235h127l56 -234c12 -48 18 -90 26 -132h3c4 41 8 84 14 133
l27 221l-34 4v90zM513 638h-100v117h100v-117zM321 638v117h-101v-117h101z" />
    <glyph glyph-name="yacute" unicode="&#xfd;" horiz-adv-x="513" 
d="M293 558h198v-89l-45 -5l-120 -480c-32 -131 -62 -199 -185 -199c-40 0 -78 6 -103 13v82c33 -2 56 -3 79 -3c55 0 62 23 81 107l4 18l-134 462l-47 5v89h199v-90l-35 -4l46 -196c12 -51 19 -85 29 -154h2c9 69 14 99 25 152l42 198l-36 4v90zM436 764l-117 -148h-106
l97 148h126z" />
    <glyph glyph-name="ygrave" unicode="&#x1ef3;" horiz-adv-x="513" 
d="M293 558h198v-89l-45 -5l-120 -480c-32 -131 -62 -199 -185 -199c-40 0 -78 6 -103 13v82c33 -2 56 -3 79 -3c55 0 62 23 81 107l4 18l-134 462l-47 5v89h199v-90l-35 -4l46 -196c12 -51 19 -85 29 -154h2c9 69 14 99 25 152l42 198l-36 4v90zM322 616h-105l-118 148h127
z" />
    <glyph glyph-name="ycircumflex" unicode="&#x177;" horiz-adv-x="513" 
d="M293 558h198v-89l-45 -5l-120 -480c-32 -131 -62 -199 -185 -199c-40 0 -78 6 -103 13v82c33 -2 56 -3 79 -3c55 0 62 23 81 107l4 18l-134 462l-47 5v89h199v-90l-35 -4l46 -196c12 -51 19 -85 29 -154h2c9 69 14 99 25 152l42 198l-36 4v90zM434 616h-100l-74 95
l-74 -95h-100l102 148h144z" />
    <glyph glyph-name="ydieresis" unicode="&#xff;" horiz-adv-x="513" 
d="M293 558h198v-89l-45 -5l-120 -480c-32 -131 -62 -199 -185 -199c-40 0 -78 6 -103 13v82c33 -2 56 -3 79 -3c55 0 62 23 81 107l4 18l-134 462l-47 5v89h199v-90l-35 -4l46 -196c12 -51 19 -85 29 -154h2c9 69 14 99 25 152l42 198l-36 4v90zM407 637h-100v117h100v-117
zM215 637v117h-101v-117h101z" />
    <glyph glyph-name="zacute" unicode="&#x17a;" horiz-adv-x="400" 
d="M371 0h-342v113l221 354h-128l-10 -42h-75v133h333v-108l-222 -359h138l10 51h75v-142zM370 764l-117 -148h-106l97 148h126z" />
    <glyph glyph-name="zcaron" unicode="&#x17e;" horiz-adv-x="400" 
d="M371 0h-342v113l221 354h-128l-10 -42h-75v133h333v-108l-222 -359h138l10 51h75v-142zM383 764l-102 -148h-144l-102 148h100l74 -95l74 95h100z" />
    <glyph glyph-name="zdotaccent" unicode="&#x17c;" horiz-adv-x="400" 
d="M371 0h-342v113l221 354h-128l-10 -42h-75v133h333v-108l-222 -359h138l10 51h75v-142zM269 653h-118v117h118v-117z" />
    <glyph glyph-name="eth" unicode="&#xf0;" horiz-adv-x="467" 
d="M433 230c0 -169 -70 -240 -200 -240s-199 70 -199 236v96c0 167 70 237 197 237c25 0 49 -6 68 -16c-16 54 -44 93 -83 119l-87 -74l-43 41l67 62c-24 7 -52 11 -81 11h-22v79c12 1 24 2 34 2c54 0 100 -9 139 -24l52 44l45 -42l-37 -34c106 -71 150 -214 150 -398v-99z
M318 226v101c0 102 -26 136 -85 136s-85 -34 -85 -140v-97c0 -107 25 -141 85 -141c59 0 85 33 85 141z" />
    <glyph glyph-name="thorn" unicode="&#xfe;" horiz-adv-x="486" 
d="M452 226c0 -176 -73 -237 -197 -237c-23 0 -48 3 -73 8v-107l39 -4v-89h-195v89l40 4v786l-40 5v89h149v-243c38 28 80 42 123 42c108 0 154 -70 154 -223v-120zM337 226v120c0 94 -18 126 -72 126c-26 0 -50 -6 -85 -25v-355c26 -5 51 -8 69 -8c58 0 88 23 88 142z" />
    <glyph glyph-name="longs" unicode="&#x17f;" horiz-adv-x="294" 
d="M217 0h-195v89l40 5v531c0 101 28 156 127 156c41 0 73 -7 95 -14v-73c-18 1 -42 3 -61 3c-42 0 -46 -16 -46 -72v-531l40 -5v-89z" />
    <glyph glyph-name="longs_h" unicode="&#xfb13;" horiz-adv-x="746" 
d="M217 0h-195v89l40 5v531c0 101 28 156 127 156c41 0 77 -7 100 -14h123v-235c31 19 78 37 130 37c117 0 141 -82 141 -191v-284l40 -5v-89h-155v374c0 77 -13 99 -59 99c-35 0 -71 -13 -97 -30v-349l40 -5v-89h-195v89l40 5v598c-20 2 -46 5 -74 5c-42 0 -46 -16 -46 -72
v-531l40 -5v-89z" />
    <glyph glyph-name="longs_i" unicode="&#xfb15;" horiz-adv-x="501" 
d="M475 0h-195v90l40 4v369l-40 6v89h155v-464l40 -4v-90zM437 652h-119v118h119v-118zM284 694c-17 1 -42 3 -61 3c-42 0 -46 -16 -46 -72v-531l40 -5v-89h-195v89l40 5v531c0 101 28 156 127 156c41 0 73 -7 95 -14v-73z" />
    <glyph glyph-name="longs_l" unicode="&#xfb14;" horiz-adv-x="478" 
d="M451 0h-194v89l40 5v599c-26 1 -57 4 -73 4c-43 0 -47 -16 -47 -72v-531l40 -5v-89h-195v89l40 5v531c0 101 28 156 127 156c37 0 73 -5 102 -11h120v-676l40 -5v-89z" />
    <glyph glyph-name="longs_longs" unicode="&#xfb16;" horiz-adv-x="527" 
d="M557 694c-18 1 -42 3 -61 3c-42 0 -46 -16 -46 -72v-531l39 -5v-89h-194v89l40 5v531c0 101 28 156 127 156c41 0 73 -7 95 -14v-73zM285 767v-73c-19 1 -42 3 -62 3c-42 0 -46 -16 -46 -72v-531l40 -5v-89h-195v89l40 5v531c0 101 28 156 127 156c41 0 73 -7 96 -14z
" />
    <glyph glyph-name="longs_t" unicode="&#xfb05;" horiz-adv-x="536" 
d="M509 3c-13 -4 -52 -14 -94 -14c-90 0 -121 41 -121 135v345l-78 10v79h78v136c-17 1 -47 3 -69 3c-44 0 -48 -16 -48 -72v-531l40 -5v-89h-195v89l40 5v531c0 101 28 156 127 156c44 0 85 -7 107 -15h112v-208h101v-89h-100v-339c0 -46 2 -54 38 -54c21 0 53 3 62 4v-77z
" />
    <glyph glyph-name="acute" unicode="&#xb4;" horiz-adv-x="345" 
d="M315 764l-117 -148h-106l97 148h126z" />
    <glyph glyph-name="grave" unicode="`" horiz-adv-x="345" 
d="M248 616h-105l-118 148h127z" />
    <glyph glyph-name="circumflex" unicode="&#x2c6;" horiz-adv-x="370" 
d="M359 616h-100l-74 95l-74 -95h-100l102 148h144z" />
    <glyph glyph-name="dieresis" unicode="&#xa8;" horiz-adv-x="359" 
d="M326 637h-100v117h100v-117zM134 637v117h-101v-117h101z" />
    <glyph glyph-name="tilde" unicode="&#x2dc;" horiz-adv-x="365" 
d="M363 730c0 -75 -31 -117 -97 -117c-33 0 -64 8 -92 38l-30 31c-16 17 -21 21 -37 21c-19 0 -27 -14 -27 -44v-42h-75v42c0 74 34 117 98 117c34 0 58 -8 86 -37l30 -31c17 -17 26 -22 44 -22c17 0 24 13 24 44v42h76v-42z" />
    <glyph glyph-name="macron" unicode="&#xaf;" horiz-adv-x="354" 
d="M325 652h-297v80h297v-80z" />
    <glyph glyph-name="uni02C9" unicode="&#x2c9;" horiz-adv-x="354" 
d="M325 652h-297v80h297v-80z" />
    <glyph glyph-name="caron" unicode="&#x2c7;" horiz-adv-x="370" 
d="M359 764l-102 -148h-144l-102 148h100l74 -95l74 95h100z" />
    <glyph glyph-name="breve" unicode="&#x2d8;" horiz-adv-x="365" 
d="M333 767c-8 -93 -49 -153 -150 -153c-102 0 -143 60 -151 153h79c5 -69 25 -88 72 -88c46 0 66 19 72 88h78z" />
    <glyph glyph-name="ring" unicode="&#x2da;" horiz-adv-x="336" 
d="M283 721c0 -78 -48 -114 -114 -114s-116 36 -116 114c0 79 50 115 116 115s114 -36 114 -115zM215 721c0 43 -20 55 -46 55c-27 0 -46 -12 -46 -55c0 -41 19 -54 46 -54c26 0 46 13 46 54z" />
    <glyph glyph-name="dotaccent" unicode="&#x2d9;" horiz-adv-x="324" 
d="M221 652h-118v117h118v-117z" />
    <glyph glyph-name="hungarumlaut" unicode="&#x2dd;" horiz-adv-x="402" 
d="M434 763l-118 -149h-103l97 149h124zM240 763h-123l-97 -149h102z" />
    <glyph glyph-name="cedilla" unicode="&#xb8;" horiz-adv-x="337" 
d="M249 -61l-106 -143h-103l85 143h124z" />
    <glyph glyph-name="ogonek" unicode="&#x2db;" horiz-adv-x="340" 
d="M280 -200c-23 -7 -56 -13 -91 -13c-77 0 -118 29 -118 94c0 48 34 91 108 130l101 -11c-95 -55 -109 -78 -109 -108c0 -24 11 -35 48 -35c23 0 45 2 61 3v-60z" />
    <glyph glyph-name="one.superior" unicode="&#xb9;" horiz-adv-x="329" 
d="M289 300h-244v66l75 4v285l-75 -27v79l100 41h69v-378l75 -4v-66z" />
    <glyph glyph-name="two.superior" unicode="&#xb2;" horiz-adv-x="356" 
d="M310 301h-273v57c0 104 31 140 115 196c63 41 71 54 71 85c0 35 -18 47 -73 47c-11 0 -28 -1 -44 -3l-6 -37h-58v94c22 6 80 15 124 15c103 0 151 -34 151 -112c0 -54 -23 -88 -103 -141c-74 -48 -85 -64 -85 -122v-7h117l5 34h59v-106z" />
    <glyph glyph-name="three.superior" unicode="&#xb3;" horiz-adv-x="355" 
d="M314 422c0 -95 -51 -130 -155 -130c-47 0 -100 11 -121 17v94h59l5 -39c15 -1 32 -2 48 -2c48 0 71 9 71 64v12c0 37 -9 59 -59 59h-104v65h105c49 0 58 22 58 58v8c0 47 -18 57 -72 57c-15 0 -32 0 -46 -2l-6 -37h-58v94c17 5 72 15 120 15c102 0 155 -31 155 -122v-8
c0 -42 -15 -76 -48 -96c35 -18 48 -52 48 -94v-13z" />
    <glyph glyph-name="ordfeminine" unicode="&#xaa;" horiz-adv-x="341" 
d="M314 433h-101v20c-19 -13 -52 -27 -89 -27c-59 0 -88 36 -88 93v16c0 85 61 97 142 97h27v23c0 44 -8 53 -55 53c-11 0 -21 0 -32 -1l-5 -25h-57v75c17 6 61 17 112 17c92 0 123 -32 123 -119v-154l23 -2v-66zM208 502v82h-29c-45 0 -60 -7 -60 -48v-17
c0 -28 13 -32 34 -32s44 8 55 15z" />
    <glyph glyph-name="ordmasculine" unicode="&#xba;" horiz-adv-x="349" 
d="M313 577c0 -108 -50 -151 -138 -151s-139 43 -139 151v46c0 108 51 151 139 151s138 -43 138 -151v-46zM228 577v46c0 62 -15 82 -53 82s-54 -19 -54 -82v-46c0 -62 16 -81 54 -81s53 19 53 81z" />
    <glyph glyph-name="guilsinglleft" unicode="&#x2039;" horiz-adv-x="264" 
d="M239 68h-107l-107 212l107 212h107l-104 -212z" />
    <glyph glyph-name="guilsinglright" unicode="&#x203a;" horiz-adv-x="264" 
d="M239 280l-107 -212h-107l104 212l-104 212h107z" />
    <glyph glyph-name="guillemotleft" unicode="&#xab;" horiz-adv-x="444" 
d="M420 68h-107l-107 212l107 212h107l-104 -212zM240 68l-104 212l104 212h-107l-107 -212l107 -212h107z" />
    <glyph glyph-name="guillemotright" unicode="&#xbb;" horiz-adv-x="444" 
d="M419 280l-107 -212h-107l104 212l-104 212h107zM239 280l-107 212h-107l104 -212l-104 -212h107z" />
    <glyph glyph-name="quotedblleft" unicode="&#x201c;" horiz-adv-x="388" 
d="M358 770l-40 -236h-112l66 236h86zM182 770l-40 -236h-112l66 236h86z" />
    <glyph glyph-name="quotedblright" unicode="&#x201d;" horiz-adv-x="388" 
d="M358 770l-66 -236h-86l40 236h112zM182 770l-66 -236h-86l40 236h112z" />
    <glyph glyph-name="quotesinglbase" unicode="&#x201a;" horiz-adv-x="212" 
d="M182 143l-66 -236h-86l40 236h112z" />
    <glyph glyph-name="quotedblbase" unicode="&#x201e;" horiz-adv-x="388" 
d="M358 143l-66 -236h-86l40 236h112zM182 143h-112l-40 -236h86z" />
    <glyph glyph-name="ellipsis" unicode="&#x2026;" horiz-adv-x="692" 
d="M645 0h-114v146h114v-146zM404 0v146h-115v-146h115zM161 0h-114v146h114v-146z" />
    <glyph glyph-name="uni00AD" unicode="&#xad;" horiz-adv-x="277" 
d="M242 249h-207v89h207v-89z" />
    <glyph glyph-name="endash" unicode="&#x2013;" horiz-adv-x="358" 
d="M323 249h-288v89h288v-89z" />
    <glyph glyph-name="emdash" unicode="&#x2014;" horiz-adv-x="490" 
d="M455 249h-420v89h420v-89z" />
    <glyph glyph-name="exclamdown" unicode="&#xa1;" horiz-adv-x="226" 
d="M177 -212h-129l11 564h108zM173 559v-144h-120v144h120z" />
    <glyph glyph-name="questiondown" unicode="&#xbf;" horiz-adv-x="399" 
d="M373 -203c-41 -11 -99 -19 -146 -19c-128 0 -189 37 -189 162v6c0 53 13 106 68 180c70 94 86 121 86 183v42h103v-42c0 -75 -7 -121 -68 -206c-46 -64 -60 -100 -60 -146v-5c0 -60 22 -75 76 -75c16 0 31 0 43 1l10 54h77v-135zM300 558v-146h-114v146h114z" />
    <glyph glyph-name="periodcentered" unicode="&#xb7;" horiz-adv-x="203" 
d="M159 284h-115v146h115v-146z" />
    <glyph glyph-name="uni2219" unicode="&#x2219;" horiz-adv-x="203" 
d="M159 284h-115v146h115v-146z" />
    <glyph glyph-name="bullet" unicode="&#x2022;" horiz-adv-x="418" 
d="M369 367c0 -87 -71 -157 -160 -157c-88 0 -160 70 -160 157c0 88 72 159 160 159c89 0 160 -71 160 -159z" />
    <glyph glyph-name="dagger" unicode="&#x2020;" horiz-adv-x="404" 
d="M360 475h-103v-605h-115v605h-98v97h98v198h115v-198h103v-97z" />
    <glyph glyph-name="daggerdbl" unicode="&#x2021;" horiz-adv-x="404" 
d="M360 249h-103v-379h-115v379h-98v96h98v130h-98v97h98v197h115v-197h103v-97h-103v-130h103v-96z" />
    <glyph glyph-name="section" unicode="&#xa7;" horiz-adv-x="490" 
d="M446 -14c0 -118 -63 -204 -214 -204c-73 0 -143 14 -175 22v141h82l8 -60c20 -1 48 -2 85 -2c65 0 91 28 91 101c0 54 -6 89 -98 145l-79 48c-72 44 -102 104 -102 183c0 36 8 76 26 106c-18 29 -26 68 -26 108c0 115 60 180 210 180c77 0 146 -15 173 -22v-136h-82
l-10 57c-21 1 -48 2 -81 2c-69 0 -92 -25 -92 -81c0 -47 2 -89 102 -142l49 -26c111 -59 134 -123 134 -201c0 -36 -6 -74 -29 -109c20 -35 28 -73 28 -110zM338 173v19c0 63 0 86 -70 124l-52 29c-52 29 -64 44 -71 53v-28c0 -66 4 -82 62 -115l77 -44
c24 -14 39 -23 54 -38z" />
    <glyph glyph-name="paragraph" unicode="&#xb6;" horiz-adv-x="587" 
d="M541 -199h-87v857h-55v-857h-144v91l56 6v352h-26c-142 0 -246 57 -246 242v11c0 198 107 240 258 240h244v-942z" />
    <glyph glyph-name="copyright" unicode="&#xa9;" horiz-adv-x="668" 
d="M626 379c0 -225 -113 -358 -293 -358c-179 0 -293 133 -293 358c0 224 114 357 293 357c180 0 293 -133 293 -357zM555 379c0 183 -83 290 -222 290s-222 -107 -222 -290c0 -184 83 -292 222 -292s222 108 222 292zM435 175c-21 -7 -65 -12 -100 -12
c-107 0 -149 68 -149 174v83c0 109 42 173 149 173c35 0 83 -5 100 -12v-94h-58l-8 32c-7 1 -15 1 -25 1c-54 0 -69 -27 -69 -100v-83c0 -72 15 -99 69 -99c9 0 16 0 25 1l8 32h58v-96z" />
    <glyph glyph-name="registered" unicode="&#xae;" horiz-adv-x="541" 
d="M500 478c0 -174 -86 -285 -230 -285c-145 0 -230 111 -230 285c0 176 85 285 230 285c144 0 230 -109 230 -285zM440 478c0 145 -62 230 -170 230c-109 0 -171 -85 -171 -230c0 -146 62 -230 171 -230c108 0 170 84 170 230zM388 326h-71l-55 118h-11h-14v-118h-79v42
l18 3v227l-18 2v46c30 1 62 1 95 1c69 0 119 -16 119 -96v-4c0 -47 -16 -74 -49 -89l42 -86l23 -3v-43zM309 547v4c0 39 -17 45 -55 45h-17v-102h18c41 0 54 12 54 53z" />
    <glyph glyph-name="trademark" unicode="&#x2122;" horiz-adv-x="753" 
d="M465 349h-134v61l25 4v270l-25 3v61h119l59 -128c7 -16 11 -27 18 -46h1c6 19 10 30 18 46l60 128h118v-61l-24 -3v-270l24 -4v-61h-134v61l25 4v142c0 24 1 49 3 74h-1c-6 -19 -14 -41 -23 -59l-39 -79h-55l-38 79c-8 16 -18 41 -24 59h-1c2 -25 3 -49 3 -74v-142l25 -4
v-61zM306 653h-51l-5 28h-40v-267l24 -4v-60h-135v60l24 4v267h-40l-6 -28h-50v95h279v-95z" />
    <glyph glyph-name="zero.oldstyle" unicode="&#xf730;" horiz-adv-x="514" 
d="M477 255c0 -163 -56 -266 -220 -266s-220 103 -220 266v58c0 162 56 266 220 266s220 -104 220 -266v-58zM356 255v58c0 122 -30 168 -99 168s-99 -46 -99 -168v-58c0 -122 30 -168 99 -168s99 46 99 168z" />
    <glyph glyph-name="one.oldstyle" unicode="&#xf731;" horiz-adv-x="422" 
d="M388 0h-354v92l119 6v350l-119 -48v109l148 65h90v-476l116 -6v-92z" />
    <glyph glyph-name="two.oldstyle" unicode="&#xf732;" horiz-adv-x="474" 
d="M434 0h-398v100l127 102c121 97 154 145 154 209c0 50 -31 73 -119 73c-21 0 -39 -1 -65 -3l-10 -62h-81v136c36 9 106 24 176 24c166 0 220 -63 220 -161c0 -102 -43 -160 -180 -266l-67 -52h243v-100z" />
    <glyph glyph-name="three.oldstyle" unicode="&#xf733;" horiz-adv-x="475" 
d="M435 21c0 -158 -79 -208 -227 -208c-69 0 -143 17 -169 25v139h81l9 -66c22 -2 46 -3 69 -3c78 0 116 15 116 117v28c0 69 -13 110 -91 110h-154v89h155c76 0 90 40 90 108v16c0 91 -30 108 -117 108c-21 0 -46 -1 -67 -3l-9 -62h-81v136c21 7 98 24 168 24
c148 0 227 -46 227 -199v-16c0 -73 -23 -125 -74 -156c52 -31 74 -85 74 -159v-28z" />
    <glyph glyph-name="four.oldstyle" unicode="&#xf734;" horiz-adv-x="512" 
d="M485 13h-79v-105l40 -6v-76h-202v76l41 6v105h-258v104l261 452h118v-462h79v-94zM289 107v292l-163 -292h163z" />
    <glyph glyph-name="five.oldstyle" unicode="&#xf735;" horiz-adv-x="470" 
d="M434 30c0 -165 -87 -216 -230 -216c-77 0 -147 18 -169 24v140h80l10 -66c22 -2 43 -3 65 -3c89 0 123 22 123 121v35c0 90 -21 121 -128 121h-140l25 383h346v-149h-80l-9 51h-156l-12 -192h47c184 0 228 -81 228 -214v-35z" />
    <glyph glyph-name="six.oldstyle" unicode="&#xf736;" horiz-adv-x="507" 
d="M469 217c0 -190 -114 -229 -214 -229c-123 0 -218 45 -218 259v240c0 170 45 267 233 267c72 0 145 -15 173 -22v-137h-80l-10 62c-22 1 -48 2 -71 2c-118 0 -125 -56 -125 -166v-42c28 7 75 14 110 14c120 0 202 -41 202 -193v-55zM349 217v49c0 90 -23 114 -95 114
c-25 0 -64 -3 -97 -12v-128c0 -114 28 -159 99 -159c63 0 93 48 93 136z" />
    <glyph glyph-name="seven.oldstyle" unicode="&#xf737;" horiz-adv-x="463" 
d="M433 456l-244 -630h-127l258 645h-201l-9 -52h-80v150h403v-113z" />
    <glyph glyph-name="eight.oldstyle" unicode="&#xf738;" horiz-adv-x="523" 
d="M484 211c0 -207 -114 -223 -221 -223h-4c-107 0 -220 16 -220 223v9c0 87 23 132 70 167c-40 29 -68 72 -68 154v12c0 159 95 201 218 201h4c123 0 219 -42 219 -201v-12c0 -82 -28 -125 -69 -154c47 -35 71 -80 71 -167v-9zM364 212v9c0 87 -18 121 -74 121h-58
c-56 0 -74 -34 -74 -121v-9c0 -112 36 -131 101 -131h4c65 0 101 19 101 131zM363 540v12c0 88 -35 111 -100 111h-4c-65 0 -100 -23 -100 -111v-12c0 -69 17 -110 73 -110h58c56 0 73 41 73 110z" />
    <glyph glyph-name="nine.oldstyle" unicode="&#xf739;" horiz-adv-x="507" 
d="M469 80c0 -169 -44 -267 -233 -267c-72 0 -145 15 -172 23v138h80l9 -63c23 -2 49 -3 73 -3c117 0 124 57 124 166v43c-28 -8 -75 -14 -111 -14c-119 0 -202 40 -202 192v55c0 190 115 229 214 229c124 0 218 -44 218 -259v-240zM350 200v128c0 113 -28 158 -100 158
c-63 0 -93 -48 -93 -136v-49c0 -89 24 -114 95 -114c25 0 64 4 98 13z" />
    <glyph glyph-name="zero.fitted" unicode="&#xe097;" 
d="M481 284c0 -180 -52 -296 -220 -296s-220 116 -220 296v175c0 180 52 295 220 295s220 -115 220 -295v-175zM360 284v175c0 148 -30 197 -99 197s-99 -49 -99 -197v-175c0 -148 30 -198 99 -198s99 50 99 198z" />
    <glyph glyph-name="one.fitted" unicode="&#xf6dc;" 
d="M466 0h-411v90l146 6v534l-146 -45v96l176 64h89v-649l146 -6v-90z" />
    <glyph glyph-name="two.fitted" unicode="&#xe098;" 
d="M450 0h-388v95c0 165 47 222 169 317c96 75 108 101 108 156c0 71 -30 92 -118 92c-17 0 -43 -2 -65 -3l-10 -62h-80v136c24 7 103 23 174 23c150 0 220 -55 220 -182c0 -79 -28 -134 -149 -231c-112 -91 -132 -122 -132 -226v-16h181l9 56h81v-155z" />
    <glyph glyph-name="three.fitted" unicode="&#xe099;" 
d="M459 196c0 -158 -79 -208 -227 -208c-69 0 -143 17 -169 25v139h81l9 -66c22 -2 46 -2 69 -2c79 0 116 15 116 116v28c0 69 -13 110 -90 110h-155v89h155c77 0 90 40 90 108v16c0 91 -30 108 -116 108c-22 0 -46 -1 -67 -2l-10 -62h-80v136c20 6 98 23 167 23
c148 0 227 -46 227 -199v-15c0 -74 -23 -126 -74 -157c52 -31 74 -84 74 -158v-29z" />
    <glyph glyph-name="four.fitted" unicode="&#xe09a;" 
d="M490 187h-79v-105l40 -5v-77h-201v77l40 5v105h-258v104l262 452h117v-462h79v-94zM294 281v293l-163 -293h163z" />
    <glyph glyph-name="five.fitted" unicode="&#xe09b;" 
d="M460 204c0 -165 -88 -216 -230 -216c-78 0 -148 18 -169 24v140h80l10 -66c21 -2 42 -3 64 -3c90 0 124 22 124 121v35c0 90 -21 122 -128 122h-141l26 382h346v-149h-80l-10 51h-155l-13 -192h47c185 0 229 -81 229 -214v-35z" />
    <glyph glyph-name="six.fitted" unicode="&#xe09c;" 
d="M477 217c0 -190 -115 -229 -214 -229c-124 0 -218 45 -218 259v240c0 170 44 267 233 267c72 0 145 -15 172 -22v-137h-80l-10 62c-22 1 -47 2 -70 2c-118 0 -126 -56 -126 -166v-42c28 7 75 14 111 14c119 0 202 -41 202 -193v-55zM357 217v49c0 90 -24 114 -95 114
c-25 0 -64 -3 -98 -12v-128c0 -114 28 -159 100 -159c63 0 93 48 93 136z" />
    <glyph glyph-name="seven.fitted" unicode="&#xe09d;" 
d="M463 631l-245 -631h-127l258 645h-201l-9 -52h-80v150h404v-112z" />
    <glyph glyph-name="eight.fitted" unicode="&#xe09e;" 
d="M483 211c0 -207 -113 -223 -220 -223h-4c-107 0 -220 16 -220 223v9c0 87 23 132 70 167c-40 29 -68 72 -68 154v12c0 159 95 201 218 201h4c123 0 218 -42 218 -201v-12c0 -82 -27 -125 -68 -154c47 -35 70 -80 70 -167v-9zM364 212v9c0 87 -18 121 -74 121h-58
c-56 0 -74 -34 -74 -121v-9c0 -112 36 -131 101 -131h4c65 0 101 19 101 131zM363 540v12c0 88 -35 111 -100 111h-4c-65 0 -100 -23 -100 -111v-12c0 -69 17 -110 73 -110h58c56 0 73 41 73 110z" />
    <glyph glyph-name="nine.fitted" unicode="&#xe09f;" 
d="M477 256c0 -169 -45 -267 -233 -267c-72 0 -146 15 -173 23v138h80l10 -63c22 -2 48 -3 72 -3c117 0 124 57 124 166v43c-28 -8 -75 -15 -110 -15c-120 0 -202 41 -202 193v55c0 190 114 229 214 229c124 0 218 -44 218 -259v-240zM357 376v128c0 113 -28 158 -99 158
c-63 0 -93 -48 -93 -136v-49c0 -89 24 -114 95 -114c25 0 64 4 97 13z" />
    <glyph glyph-name="zero.taboldstyle" unicode="&#xe100;" 
d="M481 255c0 -163 -56 -266 -220 -266s-220 103 -220 266v58c0 162 56 266 220 266s220 -104 220 -266v-58zM360 255v58c0 122 -30 168 -99 168s-99 -46 -99 -168v-58c0 -122 30 -168 99 -168s99 46 99 168z" />
    <glyph glyph-name="one.taboldstyle" unicode="&#xe101;" 
d="M438 0h-354v92l119 6v350l-119 -48v109l148 65h90v-476l116 -6v-92z" />
    <glyph glyph-name="two.taboldstyle" unicode="&#xe102;" 
d="M458 0h-398v100l127 102c121 97 154 145 154 209c0 50 -31 73 -119 73c-21 0 -39 -1 -65 -3l-10 -62h-81v136c36 9 106 24 176 24c166 0 220 -63 220 -161c0 -102 -43 -160 -180 -266l-67 -52h243v-100z" />
    <glyph glyph-name="three.taboldstyle" unicode="&#xe103;" 
d="M459 21c0 -158 -79 -208 -227 -208c-69 0 -143 17 -169 25v139h81l9 -66c22 -2 46 -3 69 -3c78 0 116 15 116 117v28c0 69 -13 110 -91 110h-154v89h155c76 0 90 40 90 108v16c0 91 -30 108 -117 108c-21 0 -46 -1 -67 -3l-9 -62h-81v136c21 7 98 24 168 24
c148 0 227 -46 227 -199v-16c0 -73 -23 -125 -74 -156c52 -31 74 -85 74 -159v-28z" />
    <glyph glyph-name="four.taboldstyle" unicode="&#xe104;" 
d="M490 13h-79v-105l40 -6v-76h-202v76l41 6v105h-258v104l261 452h118v-462h79v-94zM294 107v292l-163 -292h163z" />
    <glyph glyph-name="five.taboldstyle" unicode="&#xe105;" 
d="M460 30c0 -165 -87 -216 -230 -216c-77 0 -147 18 -169 24v140h80l10 -66c22 -2 43 -3 65 -3c89 0 123 22 123 121v35c0 90 -21 121 -128 121h-140l25 383h346v-149h-80l-9 51h-156l-12 -192h47c184 0 228 -81 228 -214v-35z" />
    <glyph glyph-name="six.taboldstyle" unicode="&#xe106;" 
d="M477 217c0 -190 -114 -229 -214 -229c-123 0 -218 45 -218 259v240c0 170 45 267 233 267c72 0 145 -15 173 -22v-137h-80l-10 62c-22 1 -48 2 -71 2c-118 0 -125 -56 -125 -166v-42c28 7 75 14 110 14c120 0 202 -41 202 -193v-55zM357 217v49c0 90 -23 114 -95 114
c-25 0 -64 -3 -97 -12v-128c0 -114 28 -159 99 -159c63 0 93 48 93 136z" />
    <glyph glyph-name="seven.taboldstyle" unicode="&#xe107;" 
d="M462 456l-244 -630h-127l258 645h-201l-9 -52h-80v150h403v-113z" />
    <glyph glyph-name="eight.taboldstyle" unicode="&#xe108;" 
d="M483 211c0 -207 -114 -223 -221 -223h-4c-107 0 -220 16 -220 223v9c0 87 23 132 70 167c-40 29 -68 72 -68 154v12c0 159 95 201 218 201h4c123 0 219 -42 219 -201v-12c0 -82 -28 -125 -69 -154c47 -35 71 -80 71 -167v-9zM363 212v9c0 87 -18 121 -74 121h-58
c-56 0 -74 -34 -74 -121v-9c0 -112 36 -131 101 -131h4c65 0 101 19 101 131zM362 540v12c0 88 -35 111 -100 111h-4c-65 0 -100 -23 -100 -111v-12c0 -69 17 -110 73 -110h58c56 0 73 41 73 110z" />
    <glyph glyph-name="nine.taboldstyle" unicode="&#xe109;" 
d="M477 80c0 -169 -44 -267 -233 -267c-72 0 -145 15 -172 23v138h80l9 -63c23 -2 49 -3 73 -3c117 0 124 57 124 166v43c-28 -8 -75 -14 -111 -14c-119 0 -202 40 -202 192v55c0 190 115 229 214 229c124 0 218 -44 218 -259v-240zM358 200v128c0 113 -28 158 -100 158
c-63 0 -93 -48 -93 -136v-49c0 -89 24 -114 95 -114c25 0 64 4 98 13z" />
    <glyph glyph-name="onequarter" unicode="&#xbc;" horiz-adv-x="785" 
d="M753 106h-52v-52l26 -3v-51h-145v51l26 3v52h-175v71l185 269h83v-272h52v-68zM612 174v157l-104 -157h104zM644 744l-362 -744h-101l362 744h101zM281 300h-244v66l75 4v285l-75 -27v79l99 41h70v-378l75 -4v-66z" />
    <glyph glyph-name="onehalf" unicode="&#xbd;" horiz-adv-x="852" 
d="M809 0h-273v57c0 104 31 139 115 195c63 41 71 55 71 86c0 35 -18 47 -73 47c-12 0 -29 -1 -45 -3l-5 -37h-59v94c23 6 80 15 124 15c104 0 152 -34 152 -112c0 -53 -23 -89 -103 -141c-75 -49 -85 -64 -85 -122v-7h116l6 34h59v-106zM644 744l-362 -744h-101l362 744
h101zM281 300h-244v66l75 4v285l-75 -27v79l99 41h70v-378l75 -4v-66z" />
    <glyph glyph-name="threequarters" unicode="&#xbe;" horiz-adv-x="816" 
d="M781 106h-52v-52l26 -3v-51h-146v51l26 3v52h-174v71l185 269h83v-272h52v-68zM639 174v157l-103 -157h103zM659 744l-362 -744h-102l362 744h102zM309 422c0 -95 -51 -130 -154 -130c-48 0 -101 11 -122 17v94h59l5 -39c15 -1 32 -2 48 -2c48 0 71 9 71 64v12
c0 37 -9 59 -58 59h-105v65h105c49 0 58 22 58 58v8c0 47 -18 57 -72 57c-15 0 -31 0 -46 -2l-6 -37h-58v94c18 5 72 15 121 15c101 0 154 -31 154 -122v-8c0 -42 -14 -76 -48 -96c35 -18 48 -52 48 -94v-13z" />
    <glyph glyph-name="oneeighth" unicode="&#x215b;" horiz-adv-x="867" 
d="M833 126c0 -126 -80 -135 -155 -135h-3c-75 0 -154 9 -154 135v6c0 49 15 77 44 99c-27 19 -43 47 -43 94v6c0 102 71 123 153 123h3c82 0 153 -21 153 -123v-6c0 -47 -16 -75 -44 -94c31 -22 46 -50 46 -99v-6zM740 127v5c0 49 -10 68 -43 68h-41c-34 0 -43 -19 -43 -68
v-5c0 -60 22 -70 62 -70h3c39 0 62 10 62 70zM739 323v6c0 47 -22 59 -61 59h-3c-39 0 -62 -12 -62 -59v-6c0 -38 9 -61 43 -61h41c33 0 42 23 42 61zM638 744l-362 -744h-101l362 744h101zM281 300h-244v66l75 4v285l-75 -27v79l99 41h70v-378l75 -4v-66z" />
    <glyph glyph-name="threeeighths" unicode="&#x215c;" horiz-adv-x="891" 
d="M855 126c0 -126 -79 -135 -154 -135h-3c-75 0 -155 9 -155 135v6c0 49 15 77 45 99c-27 19 -44 47 -44 94v6c0 102 72 123 154 123h3c82 0 153 -21 153 -123v-6c0 -47 -17 -75 -44 -94c30 -22 45 -50 45 -99v-6zM763 127v5c0 49 -10 68 -43 68h-42c-33 0 -43 -19 -43 -68
v-5c0 -60 23 -70 63 -70h3c39 0 62 10 62 70zM762 323v6c0 47 -23 59 -61 59h-3c-39 0 -62 -12 -62 -59v-6c0 -38 9 -61 42 -61h42c33 0 42 23 42 61zM658 744l-362 -744h-101l362 744h101zM309 422c0 -95 -51 -130 -154 -130c-48 0 -101 11 -122 17v94h59l5 -39
c15 -1 32 -2 48 -2c48 0 71 9 71 64v12c0 37 -9 59 -58 59h-105v65h105c49 0 58 22 58 58v8c0 47 -17 57 -71 57c-15 0 -32 0 -47 -2l-6 -37h-58v94c18 5 72 15 121 15c101 0 154 -31 154 -122v-8c0 -42 -14 -76 -48 -96c35 -18 48 -52 48 -94v-13z" />
    <glyph glyph-name="fiveeighths" unicode="&#x215d;" horiz-adv-x="888" 
d="M854 126c0 -126 -80 -135 -155 -135h-3c-75 0 -155 9 -155 135v6c0 49 15 77 45 99c-27 19 -43 47 -43 94v6c0 102 71 123 153 123h3c82 0 153 -21 153 -123v-6c0 -47 -16 -75 -44 -94c31 -22 46 -50 46 -99v-6zM761 127v5c0 49 -10 68 -43 68h-41c-34 0 -43 -19 -43 -68
v-5c0 -60 22 -70 62 -70h3c39 0 62 10 62 70zM760 323v6c0 47 -22 59 -61 59h-3c-39 0 -62 -12 -62 -59v-6c0 -38 9 -61 43 -61h41c33 0 42 23 42 61zM656 744l-362 -744h-102l362 744h102zM313 428c0 -103 -62 -138 -157 -138c-56 0 -105 12 -121 16v96h57l6 -40
c14 -1 29 -2 43 -2c57 0 77 15 77 68v15c0 48 -14 63 -78 63h-102l19 240h243v-102h-58l-5 30h-104l-7 -101h33c119 0 154 -44 154 -130v-15z" />
    <glyph glyph-name="seveneighths" unicode="&#x215e;" horiz-adv-x="814" 
d="M779 126c0 -126 -80 -135 -155 -135h-2c-76 0 -155 9 -155 135v6c0 49 15 77 45 99c-28 19 -44 47 -44 94v6c0 102 71 123 154 123h2c82 0 154 -21 154 -123v-6c0 -47 -17 -75 -44 -94c30 -22 45 -50 45 -99v-6zM686 127v5c0 49 -10 68 -43 68h-41c-33 0 -43 -19 -43 -68
v-5c0 -60 23 -70 63 -70h2c39 0 62 10 62 70zM685 323v6c0 47 -22 59 -61 59h-2c-39 0 -62 -12 -62 -59v-6c0 -38 9 -61 42 -61h41c34 0 42 23 42 61zM582 744l-362 -744h-102l362 744h102zM312 666l-164 -367h-98l172 375h-124l-5 -30h-58v102h277v-80z" />
    <glyph glyph-name="onethird" unicode="&#x2153;" horiz-adv-x="856" 
d="M822 121c0 -95 -51 -130 -155 -130c-48 0 -101 10 -121 17v94h58l6 -39c15 -1 31 -2 47 -2c49 0 72 9 72 64v12c0 37 -9 59 -59 59h-104v65h104c50 0 59 22 59 58v8c0 47 -18 57 -72 57c-15 0 -32 0 -47 -2l-5 -37h-59v93c18 6 72 16 121 16c101 0 155 -31 155 -122v-8
c0 -42 -15 -76 -49 -96c35 -18 49 -52 49 -95v-12zM638 744l-362 -744h-101l362 744h101zM281 300h-244v66l75 4v285l-75 -27v79l99 41h70v-378l75 -4v-66z" />
    <glyph glyph-name="twothirds" unicode="&#x2154;" horiz-adv-x="898" 
d="M862 121c0 -95 -51 -130 -155 -130c-47 0 -100 10 -121 17v94h59l5 -39c15 -1 32 -2 48 -2c48 0 71 9 71 64v12c0 37 -9 59 -59 59h-104v65h105c49 0 58 22 58 58v8c0 47 -18 57 -72 57c-15 0 -32 0 -46 -2l-6 -37h-58v93c17 6 72 16 120 16c102 0 155 -31 155 -122v-8
c0 -42 -15 -76 -48 -96c34 -18 48 -52 48 -95v-12zM673 744l-362 -744h-102l363 744h101zM307 301h-272v57c0 104 29 141 114 196c64 42 71 54 71 85c0 35 -18 47 -72 47c-12 0 -29 -1 -45 -3l-6 -37h-58v94c22 6 80 15 124 15c103 0 151 -34 151 -112
c0 -54 -23 -88 -103 -141c-74 -48 -85 -64 -85 -122v-7h117l5 34h59v-106z" />
    <glyph glyph-name="zero.numerator" unicode="&#xe11e;" horiz-adv-x="368" 
d="M340 489c0 -114 -34 -197 -156 -197c-123 0 -156 85 -156 197v69c0 112 33 197 156 197c122 0 156 -83 156 -197v-69zM245 489v69c0 95 -17 122 -61 122c-45 0 -61 -29 -61 -122v-69c0 -95 16 -122 61 -122c44 0 61 27 61 122z" />
    <glyph glyph-name="one.numerator" unicode="&#xe11f;" horiz-adv-x="329" 
d="M289 300h-244v66l75 4v285l-75 -27v79l100 41h69v-378l75 -4v-66z" />
    <glyph glyph-name="two.numerator" unicode="&#xe120;" horiz-adv-x="356" 
d="M310 301h-273v57c0 104 31 140 115 196c63 41 71 54 71 85c0 35 -18 47 -73 47c-11 0 -28 -1 -44 -3l-6 -37h-58v94c22 6 80 15 124 15c103 0 151 -34 151 -112c0 -54 -23 -88 -103 -141c-74 -48 -85 -64 -85 -122v-7h117l5 34h59v-106z" />
    <glyph glyph-name="three.numerator" unicode="&#xe121;" horiz-adv-x="355" 
d="M314 422c0 -95 -51 -130 -155 -130c-47 0 -100 11 -121 17v94h59l5 -39c15 -1 32 -2 48 -2c48 0 71 9 71 64v12c0 37 -9 59 -59 59h-104v65h105c49 0 58 22 58 58v8c0 47 -18 57 -72 57c-15 0 -32 0 -46 -2l-6 -37h-58v94c17 5 72 15 120 15c102 0 155 -31 155 -122v-8
c0 -42 -15 -76 -48 -96c35 -18 48 -52 48 -94v-13z" />
    <glyph glyph-name="four.numerator" unicode="&#xe122;" horiz-adv-x="365" 
d="M341 406h-52v-51l26 -3v-52h-145v52l26 3v51h-174v71l184 269h83v-272h52v-68zM200 474v157l-104 -157h104z" />
    <glyph glyph-name="five.numerator" unicode="&#xe123;" horiz-adv-x="353" 
d="M316 428c0 -103 -62 -138 -157 -138c-56 0 -104 11 -122 16v96h58l6 -40c14 -1 28 -2 43 -2c57 0 77 15 77 68v15c0 48 -14 63 -78 63h-102l18 240h244v-102h-58l-5 30h-104l-7 -101h33c119 0 154 -44 154 -130v-15z" />
    <glyph glyph-name="six.numerator" unicode="&#xe124;" horiz-adv-x="361" 
d="M331 435c0 -114 -75 -143 -150 -143c-96 0 -153 37 -153 168v125c0 111 34 170 160 170c50 0 104 -10 124 -15v-94h-58l-5 37c-16 1 -34 2 -51 2c-72 0 -78 -30 -78 -92v-19c18 5 48 8 70 8c82 0 141 -22 141 -122v-25zM238 435v22c0 53 -17 64 -58 64
c-15 0 -39 -1 -60 -6v-64c0 -71 20 -93 61 -93c36 0 57 25 57 77z" />
    <glyph glyph-name="seven.numerator" unicode="&#xe125;" horiz-adv-x="357" 
d="M318 666l-164 -367h-99l172 375h-123l-5 -30h-59v102h278v-80z" />
    <glyph glyph-name="eight.numerator" unicode="&#xe126;" horiz-adv-x="366" 
d="M338 427c0 -126 -80 -136 -155 -136h-3c-75 0 -154 10 -154 136v5c0 50 15 78 44 99c-27 20 -43 48 -43 94v7c0 102 71 122 153 122h3c82 0 153 -20 153 -122v-7c0 -46 -16 -74 -44 -94c31 -21 46 -49 46 -99v-5zM245 428v5c0 49 -10 67 -43 67h-41
c-34 0 -43 -18 -43 -67v-5c0 -60 23 -71 62 -71h3c39 0 62 11 62 71zM244 623v6c0 48 -22 59 -61 59h-3c-38 0 -62 -11 -62 -59v-6c0 -38 9 -60 43 -60h41c33 0 42 22 42 60z" />
    <glyph glyph-name="nine.numerator" unicode="&#xe127;" horiz-adv-x="361" 
d="M331 462c0 -111 -33 -170 -159 -170c-51 0 -105 9 -126 15v94h59l5 -38c16 -1 35 -1 52 -1c71 0 77 31 77 91v20c-18 -5 -49 -8 -70 -8c-82 0 -141 22 -141 122v25c0 113 76 142 151 142c96 0 152 -36 152 -167v-125zM239 532v64c0 70 -20 92 -61 92
c-36 0 -57 -23 -57 -76v-23c0 -52 17 -64 58 -64c15 0 39 2 60 7z" />
    <glyph glyph-name="fraction" unicode="&#x2044;" horiz-adv-x="416" 
d="M440 744l-362 -744h-102l362 744h102z" />
    <glyph glyph-name="uni2215" unicode="&#x2215;" horiz-adv-x="416" 
d="M440 744l-362 -744h-102l362 744h102z" />
    <glyph glyph-name="zero.denominator" unicode="&#xe10a;" horiz-adv-x="373" 
d="M343 188c0 -119 -40 -197 -156 -197c-117 0 -157 78 -157 197v70c0 119 40 196 157 196c116 0 156 -77 156 -196v-70zM248 188v70c0 97 -22 121 -62 121s-61 -24 -61 -121v-70c0 -96 21 -121 61 -121s62 25 62 121z" />
    <glyph glyph-name="one.denominator" unicode="&#xe10b;" horiz-adv-x="325" 
d="M285 0h-244v66l75 3v286l-75 -28v80l99 40h70v-378l75 -3v-66z" />
    <glyph glyph-name="two.denominator" unicode="&#xe10c;" horiz-adv-x="353" 
d="M309 0h-272v57c0 104 30 141 114 196c64 42 72 54 72 85c0 35 -19 47 -73 47c-12 0 -29 -1 -45 -3l-5 -37h-59v94c23 6 80 15 124 15c104 0 152 -34 152 -112c0 -54 -23 -89 -103 -141c-75 -49 -86 -65 -86 -122v-7h117l6 34h58v-106z" />
    <glyph glyph-name="three.denominator" unicode="&#xe10d;" horiz-adv-x="350" 
d="M313 121c0 -95 -51 -130 -155 -130c-47 0 -100 10 -121 17v94h59l5 -39c15 -1 32 -2 48 -2c48 0 71 9 71 64v12c0 37 -9 59 -59 59h-104v65h105c49 0 58 22 58 58v8c0 47 -18 57 -72 57c-15 0 -32 0 -46 -2l-6 -37h-58v93c17 6 72 16 120 16c102 0 155 -31 155 -122v-8
c0 -42 -15 -76 -48 -96c35 -18 48 -52 48 -95v-12z" />
    <glyph glyph-name="four.denominator" unicode="&#xe10e;" horiz-adv-x="366" 
d="M343 106h-52v-52l26 -3v-51h-146v51l26 3v52h-174v71l185 269h83v-272h52v-68zM201 174v156l-103 -156h103z" />
    <glyph glyph-name="five.denominator" unicode="&#xe10f;" horiz-adv-x="351" 
d="M316 128c0 -104 -62 -138 -157 -138c-56 0 -105 11 -122 15v96h58l6 -39c14 -2 28 -2 43 -2c57 0 77 14 77 67v15c0 48 -14 64 -78 64h-102l18 239h244v-101h-58l-5 30h-104l-7 -101h33c119 0 154 -44 154 -130v-15z" />
    <glyph glyph-name="six.denominator" unicode="&#xe110;" horiz-adv-x="365" 
d="M334 134c0 -113 -76 -143 -150 -143c-96 0 -153 37 -153 168v125c0 111 34 170 160 170c50 0 104 -10 124 -15v-93h-58l-5 36c-16 2 -34 3 -51 3c-72 0 -78 -31 -78 -93v-19c18 5 48 9 70 9c82 0 141 -23 141 -123v-25zM241 134v23c0 52 -17 64 -58 64
c-15 0 -39 -1 -60 -7v-63c0 -71 20 -93 61 -93c36 0 57 24 57 76z" />
    <glyph glyph-name="seven.denominator" unicode="&#xe111;" horiz-adv-x="351" 
d="M317 365l-164 -366h-99l172 375h-124l-5 -31h-58v102h278v-80z" />
    <glyph glyph-name="eight.denominator" unicode="&#xe112;" horiz-adv-x="372" 
d="M342 126c0 -126 -80 -135 -155 -135h-2c-76 0 -155 9 -155 135v6c0 49 15 77 45 99c-28 19 -44 47 -44 94v6c0 102 71 123 154 123h2c82 0 154 -21 154 -123v-6c0 -47 -17 -75 -44 -94c30 -22 45 -50 45 -99v-6zM249 127v5c0 49 -9 68 -42 68h-42c-33 0 -43 -19 -43 -68
v-5c0 -60 23 -70 63 -70h2c39 0 62 10 62 70zM249 323v6c0 47 -23 59 -62 59h-2c-39 0 -62 -12 -62 -59v-6c0 -38 9 -61 42 -61h42c33 0 42 23 42 61z" />
    <glyph glyph-name="nine.denominator" unicode="&#xe113;" horiz-adv-x="365" 
d="M334 161c0 -110 -33 -170 -159 -170c-51 0 -105 10 -126 15v94h59l5 -37c16 -1 35 -2 52 -2c71 0 77 31 77 92v20c-18 -5 -49 -9 -70 -9c-82 0 -141 23 -141 123v24c0 114 76 143 151 143c96 0 152 -37 152 -168v-125zM242 232v63c0 71 -20 93 -61 93
c-36 0 -57 -24 -57 -77v-22c0 -52 17 -64 58 -64c15 0 39 2 60 7z" />
    <glyph glyph-name="zero.superior" unicode="&#x2070;" horiz-adv-x="368" 
d="M340 489c0 -114 -34 -197 -156 -197c-123 0 -156 85 -156 197v69c0 112 33 197 156 197c122 0 156 -83 156 -197v-69zM245 489v69c0 95 -17 122 -61 122c-45 0 -61 -29 -61 -122v-69c0 -95 16 -122 61 -122c44 0 61 27 61 122z" />
    <glyph glyph-name="four.superior" unicode="&#x2074;" horiz-adv-x="365" 
d="M341 406h-52v-51l26 -3v-52h-145v52l26 3v51h-174v71l184 269h83v-272h52v-68zM200 474v157l-104 -157h104z" />
    <glyph glyph-name="five.superior" unicode="&#x2075;" horiz-adv-x="353" 
d="M316 428c0 -103 -62 -138 -157 -138c-48 0 -105 12 -122 16v96h58l6 -38c14 -1 28 -2 43 -2c57 0 77 13 77 66v15c0 48 -14 63 -78 63h-102l18 240h244v-102h-58l-5 30h-104l-7 -101h33c119 0 154 -44 154 -130v-15z" />
    <glyph glyph-name="six.superior" unicode="&#x2076;" horiz-adv-x="361" 
d="M331 435c0 -114 -75 -143 -150 -143c-96 0 -153 37 -153 168v125c0 111 34 170 160 170c50 0 104 -10 124 -15v-94h-58l-5 37c-16 1 -34 2 -51 2c-72 0 -78 -30 -78 -92v-19c18 5 48 8 70 8c82 0 141 -22 141 -122v-25zM238 435v22c0 53 -17 64 -58 64
c-15 0 -39 -1 -60 -6v-64c0 -71 20 -93 61 -93c36 0 57 25 57 77z" />
    <glyph glyph-name="seven.superior" unicode="&#x2077;" horiz-adv-x="357" 
d="M318 666l-164 -367h-99l172 375h-123l-5 -30h-59v102h278v-80z" />
    <glyph glyph-name="eight.superior" unicode="&#x2078;" horiz-adv-x="366" 
d="M338 427c0 -126 -80 -136 -155 -136h-3c-75 0 -154 10 -154 136v5c0 50 15 78 44 99c-27 20 -43 48 -43 94v7c0 102 71 122 153 122h3c82 0 153 -20 153 -122v-7c0 -46 -16 -74 -44 -94c31 -21 46 -49 46 -99v-5zM245 428v5c0 49 -10 67 -43 67h-41
c-34 0 -43 -18 -43 -67v-5c0 -60 23 -71 62 -71h3c39 0 62 11 62 71zM244 623v6c0 48 -22 59 -61 59h-3c-38 0 -62 -11 -62 -59v-6c0 -38 9 -60 43 -60h41c33 0 42 22 42 60z" />
    <glyph glyph-name="nine.superior" unicode="&#x2079;" horiz-adv-x="361" 
d="M331 462c0 -111 -33 -170 -159 -170c-51 0 -105 9 -126 15v94h59l5 -38c16 -1 35 -1 52 -1c71 0 77 31 77 91v20c-18 -5 -49 -8 -70 -8c-82 0 -141 22 -141 122v25c0 113 76 142 151 142c96 0 152 -36 152 -167v-125zM239 532v64c0 70 -20 92 -61 92
c-36 0 -57 -23 -57 -76v-23c0 -52 17 -64 58 -64c15 0 39 2 60 7z" />
    <glyph glyph-name="zero.inferior" unicode="&#x2080;" horiz-adv-x="368" 
d="M339 188c0 -119 -40 -197 -156 -197c-117 0 -157 78 -157 197v69c0 120 40 197 157 197c116 0 156 -77 156 -197v-69zM244 188v69c0 97 -22 122 -61 122c-40 0 -62 -25 -62 -122v-69c0 -97 22 -121 62 -121c39 0 61 24 61 121z" />
    <glyph glyph-name="one.inferior" unicode="&#x2081;" horiz-adv-x="329" 
d="M289 0h-244v66l75 3v286l-75 -28v80l100 40h69v-378l75 -3v-66z" />
    <glyph glyph-name="two.inferior" unicode="&#x2082;" horiz-adv-x="356" 
d="M310 0h-273v57c0 104 31 139 115 195c63 41 71 55 71 86c0 35 -18 47 -73 47c-11 0 -28 -1 -44 -3l-6 -37h-58v94c22 6 80 15 124 15c103 0 151 -34 151 -112c0 -54 -23 -88 -103 -141c-74 -48 -85 -65 -85 -122v-7h117l5 34h59v-106z" />
    <glyph glyph-name="three.inferior" unicode="&#x2083;" horiz-adv-x="355" 
d="M314 121c0 -95 -51 -130 -155 -130c-47 0 -100 10 -121 17v94h59l5 -39c15 -1 32 -2 48 -2c48 0 71 9 71 64v12c0 37 -9 59 -59 59h-104v65h105c49 0 58 22 58 58v8c0 47 -18 57 -72 57c-15 0 -32 0 -46 -2l-6 -37h-58v93c17 6 72 16 120 16c102 0 155 -31 155 -122v-8
c0 -42 -15 -76 -48 -96c35 -18 48 -52 48 -95v-12z" />
    <glyph glyph-name="four.inferior" unicode="&#x2084;" horiz-adv-x="365" 
d="M341 106h-52v-52l26 -3v-51h-145v51l26 3v52h-174v71l184 269h83v-272h52v-68zM200 174v157l-104 -157h104z" />
    <glyph glyph-name="five.inferior" unicode="&#x2085;" horiz-adv-x="353" 
d="M316 129c0 -103 -62 -138 -157 -138c-56 0 -105 11 -122 15v96h58l6 -39c14 -1 28 -2 43 -2c57 0 77 14 77 67v15c0 48 -14 64 -78 64h-102l18 239h244v-101h-58l-5 30h-104l-7 -101h33c119 0 154 -44 154 -130v-15z" />
    <glyph glyph-name="six.inferior" unicode="&#x2086;" horiz-adv-x="361" 
d="M331 134c0 -113 -75 -143 -150 -143c-96 0 -153 37 -153 168v125c0 111 34 170 160 170c50 0 104 -10 124 -15v-93h-58l-5 36c-16 2 -34 2 -51 2c-72 0 -78 -30 -78 -92v-19c18 5 48 9 70 9c82 0 141 -23 141 -123v-25zM238 134v23c0 52 -17 64 -58 64
c-15 0 -39 -1 -60 -7v-63c0 -71 20 -93 61 -93c36 0 57 24 57 76z" />
    <glyph glyph-name="seven.inferior" unicode="&#x2087;" horiz-adv-x="357" 
d="M318 366l-164 -366h-99l172 375h-123l-5 -31h-59v102h278v-80z" />
    <glyph glyph-name="eight.inferior" unicode="&#x2088;" horiz-adv-x="366" 
d="M338 126c0 -126 -80 -135 -155 -135h-3c-75 0 -154 9 -154 135v6c0 49 15 77 44 99c-27 19 -43 47 -43 94v6c0 102 71 123 153 123h3c82 0 153 -21 153 -123v-6c0 -47 -16 -75 -44 -94c31 -22 46 -50 46 -99v-6zM245 127v5c0 49 -10 68 -43 68h-41c-34 0 -43 -19 -43 -68
v-5c0 -60 23 -70 62 -70h3c39 0 62 10 62 70zM244 323v6c0 47 -22 59 -61 59h-3c-38 0 -62 -12 -62 -59v-6c0 -38 9 -61 43 -61h41c33 0 42 23 42 61z" />
    <glyph glyph-name="nine.inferior" unicode="&#x2089;" horiz-adv-x="361" 
d="M331 161c0 -110 -33 -170 -159 -170c-51 0 -105 10 -126 15v94h59l5 -37c16 -1 35 -2 52 -2c71 0 77 31 77 92v20c-18 -5 -49 -9 -70 -9c-82 0 -141 23 -141 123v24c0 114 76 143 151 143c96 0 152 -37 152 -168v-125zM239 232v63c0 71 -20 93 -61 93
c-36 0 -57 -24 -57 -77v-22c0 -52 17 -64 58 -64c15 0 39 2 60 7z" />
    <glyph glyph-name="Euro" unicode="&#x20ac;" horiz-adv-x="516" 
d="M478 8c-28 -9 -95 -20 -147 -20c-117 0 -225 34 -240 272h-57v68h53v89h-53v68h56c14 237 120 269 238 269c55 0 122 -10 150 -19v-137h-81l-10 52c-14 1 -29 1 -43 1c-70 0 -120 -10 -131 -166h238l-14 -68h-228c0 -29 0 -60 1 -89h206l-13 -68h-189
c11 -159 61 -169 132 -169c35 0 88 5 132 10v-93z" />
    <glyph glyph-name="sterling" unicode="&#xa3;" horiz-adv-x="486" 
d="M450 0h-391v83c30 33 38 87 38 121v136h-62v90h62v78c0 172 43 247 195 247c67 0 126 -13 158 -22v-140h-81l-11 58c-14 2 -32 2 -49 2c-84 0 -94 -29 -94 -144v-79h172v-90h-172v-136c0 -32 -6 -72 -28 -108h263v-96z" />
    <glyph glyph-name="yen" unicode="&#xa5;" horiz-adv-x="530" 
d="M502 240h-178v-150l40 -5v-85h-200v85l41 5v150h-179v78h169l-36 89h-131v79h99l-62 164l-43 6v87h133l76 -219c12 -34 25 -83 33 -112h2c8 29 21 78 33 112l76 219h133v-87l-44 -6l-62 -164h100v-79h-132l-37 -89h169v-78z" />
    <glyph glyph-name="florin" unicode="&#x192;" horiz-adv-x="482" 
d="M455 741l-7 -75c-25 2 -39 4 -57 4c-39 0 -53 -10 -60 -73l-17 -160h123l-10 -90h-124l-35 -341c-13 -122 -70 -156 -147 -156c-40 0 -70 7 -94 14l8 74c22 -2 39 -3 58 -3c37 0 52 7 59 73l36 339h-111l10 90h112l16 162c12 121 69 155 149 155c37 0 68 -6 91 -13z" />
    <glyph glyph-name="cent" unicode="&#xa2;" horiz-adv-x="400" 
d="M362 10c-18 -7 -52 -15 -93 -18v-108h-101v112c-97 21 -133 102 -133 231v105c0 128 36 209 133 230v110h102v-105c41 -4 76 -13 92 -19v-122h-79l-9 47h-30c-66 0 -94 -23 -94 -141v-105c0 -119 28 -142 94 -142c29 0 69 3 118 8v-83z" />
    <glyph glyph-name="peseta" unicode="&#x20a7;" horiz-adv-x="545" 
d="M536 471h-46c-14 -156 -117 -191 -246 -191h-56v-185l45 -6v-89h-204v89l40 6v376h-48v91h48v93l-40 5v83c68 2 139 3 208 3c134 0 237 -32 253 -184h46v-91zM374 507v16c-1 102 -40 123 -133 123h-53v-266h54c92 0 132 26 132 127z" />
    <glyph glyph-name="peseta.taboldstyle" unicode="&#xe439;" horiz-adv-x="493" 
d="M213 0h-178v80l31 4v267h-44v82h44v59l-32 6v71c59 5 124 7 183 7c109 0 191 -27 205 -143h48v-82h-49c-15 -114 -95 -145 -198 -145c-14 0 -31 0 -46 2v-124l36 -4v-80zM312 387v13c0 69 -29 84 -91 84c-13 0 -34 -1 -44 -1v-184c10 0 31 -1 43 -1c62 0 92 22 92 89z
" />
    <glyph glyph-name="franc" unicode="&#x20a3;" horiz-adv-x="461" 
d="M420 334h-237v-97h135v-88h-135v-149h-121v149h-40v88h40v412l-40 5v89h410v-150h-82l-9 50h-158v-210h237v-99z" />
    <glyph glyph-name="franc.taboldstyle" unicode="&#xe431;" horiz-adv-x="465" 
d="M403 246h-186v-68h98v-76h-98v-102h-119v102h-43v76h43v299l-31 6v89h343v-136h-74l-7 36h-112v-132h186v-94z" />
    <glyph glyph-name="rupiah" unicode="&#xf6dd;" horiz-adv-x="1009" 
d="M229 0h-200v90l41 4v555l-41 5v89c66 2 134 3 203 3c146 0 260 -39 260 -223v-9c0 -110 -35 -169 -100 -204l93 -216l48 -4v-90h-136l-120 284c-12 -1 -26 -1 -38 -1h-51v-189l41 -5v-89zM373 513v9c0 102 -39 124 -137 124h-48v-266h52c100 0 133 35 133 133zM743 -204
h-195v90l40 4v574l-40 5v89h148v-31c37 28 84 42 126 42c106 0 153 -68 153 -220v-124c0 -175 -74 -236 -198 -236c-23 0 -53 4 -74 9v-108l40 -4v-90zM859 225v124c0 93 -18 123 -72 123c-26 0 -51 -6 -85 -25v-355c25 -5 48 -7 69 -7c58 0 88 21 88 140z" />
    <glyph glyph-name="currency" unicode="&#xa4;" horiz-adv-x="541" 
d="M497 217l-64 -63l-67 65c-29 -17 -64 -26 -95 -26c-33 0 -66 7 -96 26l-68 -65l-64 62l68 66c-17 28 -26 63 -26 95c0 33 7 65 26 94l-68 66l64 61l68 -65c29 18 64 27 96 27c34 0 67 -8 97 -26l66 63l63 -61l-66 -65c17 -30 28 -63 28 -94c0 -33 -9 -67 -27 -96z
M376 377c0 67 -49 105 -105 105s-104 -38 -104 -105c0 -72 49 -106 104 -106s105 34 105 106z" />
    <glyph glyph-name="quotesingle" unicode="'" horiz-adv-x="186" 
d="M156 764l-40 -240h-86l16 240h110z" />
    <glyph glyph-name="degree" unicode="&#xb0;" horiz-adv-x="377" 
d="M347 598c0 -86 -71 -155 -158 -155c-88 0 -158 69 -158 155c0 87 70 156 158 156c87 0 158 -69 158 -156zM271 598c0 49 -37 84 -83 84c-45 0 -82 -35 -82 -84c0 -48 37 -84 82 -84c46 0 83 36 83 84z" />
    <glyph glyph-name="perthousand" unicode="&#x2030;" horiz-adv-x="1250" 
d="M1213 185c0 -118 -40 -195 -153 -195s-154 77 -154 195v69c0 119 41 194 154 194s153 -75 153 -194v-69zM1120 185v69c0 94 -21 118 -60 118s-60 -24 -60 -118v-69c0 -93 21 -118 60 -118s60 25 60 118zM857 185c0 -118 -41 -195 -153 -195c-114 0 -154 77 -154 195v69
c0 119 40 194 154 194c112 0 153 -75 153 -194v-69zM763 185v69c0 94 -20 118 -60 118c-39 0 -59 -24 -59 -118v-69c0 -93 20 -118 59 -118c40 0 60 25 60 118zM677 744l-362 -744h-101l362 744h101zM343 491c0 -113 -34 -195 -153 -195c-120 0 -153 84 -153 195v69
c0 111 33 194 153 194c119 0 153 -81 153 -194v-69zM250 491v69c0 91 -16 118 -60 118s-60 -29 -60 -118v-69c0 -92 16 -119 60 -119s60 27 60 119z" />
    <glyph glyph-name="litre" unicode="&#x2113;" horiz-adv-x="450" 
d="M417 42c-43 -38 -93 -60 -147 -60c-95 0 -143 51 -143 158v81c-20 -17 -41 -33 -60 -47l-33 44c40 37 65 61 93 90v293c0 123 43 178 145 178c100 0 135 -58 135 -131c0 -114 -66 -216 -165 -320v-178c0 -66 14 -88 57 -88c23 0 50 13 75 34zM341 648c0 38 -12 64 -47 64
c-48 0 -52 -38 -52 -111v-182c65 77 99 148 99 229z" />
    <glyph glyph-name="estimated" unicode="&#x212e;" horiz-adv-x="622" 
d="M589 282h-435v-193c43 -40 93 -63 154 -63c114 0 167 59 213 127l31 -19c-53 -81 -117 -141 -244 -141c-165 0 -275 133 -275 290c0 159 106 290 279 290c172 0 277 -134 277 -291zM467 315v163c-36 33 -96 62 -155 62c-61 0 -117 -21 -158 -62v-163h313z" />
    <glyph glyph-name="multiply" unicode="&#xd7;" horiz-adv-x="512" 
d="M440 270l-64 -61l-120 118l-121 -119l-63 61l121 120l-122 120l63 62l122 -120l121 119l63 -61l-121 -120z" />
    <glyph glyph-name="divide" unicode="&#xf7;" horiz-adv-x="512" 
d="M314 113h-115v136h115v-136zM449 345v91h-386v-91h386zM314 528h-115v136h115v-136z" />
    <glyph glyph-name="minus" unicode="&#x2212;" horiz-adv-x="512" 
d="M449 345h-386v91h386v-91z" />
    <glyph glyph-name="plusminus" unicode="&#xb1;" horiz-adv-x="512" 
d="M462 0h-412v85h412v-85zM467 368h-164v-167h-92v167h-166v89h166v167h92v-167h164v-89z" />
    <glyph glyph-name="notequal" unicode="&#x2260;" horiz-adv-x="512" 
d="M443 223h-185l-63 -224h-101l63 224h-89v92h116l41 148h-157v92h184l54 189h101l-55 -189h91v-92h-117l-41 -148h158v-92z" />
    <glyph glyph-name="lessequal" unicode="&#x2264;" horiz-adv-x="512" 
d="M461 0h-411v85h411v-85zM407 152h-129l-219 246l219 246h129l-218 -246z" />
    <glyph glyph-name="greaterequal" unicode="&#x2265;" horiz-adv-x="512" 
d="M461 0h-411v85h411v-85zM452 398l-219 -246h-129l218 246l-218 246h129z" />
    <glyph glyph-name="approxequal" unicode="&#x2248;" horiz-adv-x="512" 
d="M465 555c0 -83 -27 -135 -108 -135c-45 0 -73 11 -103 41l-40 40c-18 18 -28 28 -46 28c-25 0 -30 -16 -30 -49v-57h-92v57c0 85 34 136 115 136c40 0 67 -15 97 -45l39 -39c18 -18 28 -26 48 -26c26 0 29 18 29 49v57h91v-57zM465 295c0 -83 -27 -135 -108 -135
c-45 0 -73 11 -103 41l-40 40c-18 18 -28 28 -46 28c-25 0 -30 -16 -30 -49v-57h-92v57c0 85 34 136 115 136c40 0 67 -15 97 -45l39 -39c18 -18 28 -26 48 -26c26 0 29 18 29 49v57h91v-57z" />
    <glyph glyph-name="logicalnot" unicode="&#xac;" horiz-adv-x="512" 
d="M440 223h-96v240h-272v92h368v-332z" />
    <glyph glyph-name="brokenbar" unicode="&#xa6;" horiz-adv-x="232" 
d="M173 352h-114v391h114v-391zM173 -203h-114v391h114v-391z" />
    <glyph glyph-name="infinity" unicode="&#x221e;" horiz-adv-x="636" 
d="M560 362c0 -73 -7 -226 -143 -226h-6c-40 0 -75 17 -101 47c-20 -30 -50 -49 -91 -49h-7c-135 0 -143 150 -143 227v25c0 72 8 225 144 225h6c40 0 74 -18 99 -47c20 33 50 49 93 49h6c135 0 143 -149 143 -227v-24zM472 362v24c0 74 -4 143 -56 143h-5
c-41 -2 -46 -53 -55 -155c-4 -44 -8 -81 -15 -119c21 -27 47 -37 68 -37h6c52 0 57 72 57 144zM289 491c-20 27 -46 38 -68 38h-6c-53 0 -57 -73 -57 -143v-25c0 -73 3 -142 56 -142h6c34 0 45 44 55 159c4 42 7 72 14 113z" />
    <glyph glyph-name="partialdiff" unicode="&#x2202;" horiz-adv-x="505" 
d="M466 492c0 -67 -10 -164 -22 -237c-32 -190 -96 -265 -233 -265c-106 0 -172 52 -172 171c0 39 6 78 11 113c21 151 93 226 220 226c39 0 67 -14 85 -26c1 15 1 44 0 63c-6 90 -38 162 -158 162c-24 0 -52 -2 -79 -8l4 81c29 6 62 9 92 9c181 0 252 -120 252 -289z
M338 327c0 54 -22 77 -71 77c-65 0 -94 -53 -105 -144c-4 -32 -10 -70 -10 -99c0 -55 22 -76 71 -76c65 0 91 45 109 172c5 32 6 59 6 70z" />
    <glyph glyph-name="mu" unicode="&#xb5;" horiz-adv-x="524" 
d="M224 -204h-195v90l40 4v574l-40 5v89h155v-378c0 -74 8 -97 56 -97c26 0 60 12 100 34v347l-40 5v89h155v-464l40 -5v-89h-152v38c-39 -24 -79 -43 -122 -45c-15 0 -27 1 -37 5v-108l40 -4v-90z" />
    <glyph glyph-name="Delta" unicode="&#x2206;" horiz-adv-x="549" 
d="M530 0h-511l165 743h179zM386 99l-89 423c-10 49 -16 94 -22 134h-2c-6 -40 -11 -85 -21 -134l-90 -423h224z" />
    <glyph glyph-name="Omega" unicode="&#x2126;" horiz-adv-x="552" 
d="M517 364c0 -113 -33 -205 -119 -248v-29h113v-87h-206v167c65 19 92 89 92 194v105c0 133 -41 185 -121 185s-121 -52 -121 -185v-105c0 -105 26 -175 92 -194v-167h-206v87h113v29c-86 43 -119 135 -119 248v104c0 179 76 286 241 286s241 -107 241 -286v-104z" />
    <glyph glyph-name="summation" unicode="&#x2211;" horiz-adv-x="461" 
d="M416 -46h-370v103l168 288l-168 296v102h370v-102h-241l149 -267v-60l-149 -257h241v-103z" />
    <glyph glyph-name="product" unicode="&#x220f;" horiz-adv-x="619" 
d="M589 638h-70v-684h-118v684h-184v-684h-118v684h-69v105h559v-105z" />
    <glyph glyph-name="integral" unicode="&#x222b;" horiz-adv-x="403" 
d="M366 684c-13 2 -42 4 -62 4c-41 0 -45 -12 -45 -69v-673c0 -98 -27 -153 -125 -153c-40 0 -79 9 -98 15v73c14 -1 43 -3 63 -3c41 0 45 12 45 69v673c0 98 27 152 125 152c40 0 78 -8 97 -15v-73z" />
    <glyph glyph-name="radical" unicode="&#x221a;" horiz-adv-x="704" 
d="M673 872l-258 -942h-141l-126 466h-116v92h193l119 -460l224 844h105z" />
    <glyph glyph-name="lozenge" unicode="&#x25ca;" horiz-adv-x="526" 
d="M486 361l-224 -304l-222 303l224 310zM381 361l-117 164l-119 -165l117 -161z" />
    <glyph glyph-name="uni00A0" unicode="&#xa0;" horiz-adv-x="168" 
 />
    <glyph glyph-name="Acute.sc" unicode="&#xe092;" horiz-adv-x="351" 
d="M313 764l-118 -148h-106l97 148h127z" />
    <glyph glyph-name="Breve.sc" unicode="&#xe082;" horiz-adv-x="371" 
d="M336 767c-8 -93 -49 -153 -150 -153c-102 0 -143 60 -151 153h79c5 -69 25 -88 72 -88c46 0 66 19 72 88h78z" />
    <glyph glyph-name="Caron.sc" unicode="&#xe083;" horiz-adv-x="376" 
d="M362 764l-102 -148h-144l-102 148h100l74 -95l74 95h100z" />
    <glyph glyph-name="Cedilla.sc" unicode="&#xe093;" horiz-adv-x="343" 
d="M252 -61l-106 -143h-103l85 143h124z" />
    <glyph glyph-name="Circumflex.sc" unicode="&#xe084;" horiz-adv-x="376" 
d="M362 616h-100l-74 95l-74 -95h-100l102 148h144z" />
    <glyph glyph-name="commaaccent.sc" unicode="&#xe469;" horiz-adv-x="339" 
d="M245 -61l-80 -143h-99l54 143h125z" />
    <glyph glyph-name="Dieresis.sc" unicode="&#xe090;" horiz-adv-x="369" 
d="M333 637h-101v117h101v-117zM137 637v117h-101v-117h101z" />
    <glyph glyph-name="DieresisAcute.sc" unicode="&#xe467;" horiz-adv-x="410" 
d="M433 639h-98v117h98v-117zM185 773h124l-103 -157h-104zM75 639h-98v117h98v-117z" />
    <glyph glyph-name="DieresisGrave.sc" unicode="&#xe468;" horiz-adv-x="410" 
d="M433 639h-99v117h99v-117zM225 773l82 -157h-103l-103 157h124zM75 639h-98v117h98v-117z" />
    <glyph glyph-name="Dotaccent.sc" unicode="&#xe085;" horiz-adv-x="330" 
d="M224 652h-118v117h118v-117z" />
    <glyph glyph-name="Hungarumlaut.sc" unicode="&#xe086;" horiz-adv-x="408" 
d="M454 765l-118 -149h-103l97 149h124zM264 765l-118 -149h-102l97 149h123z" />
    <glyph glyph-name="Grave.sc" unicode="&#xe08e;" horiz-adv-x="351" 
d="M251 616h-105l-118 148h127z" />
    <glyph glyph-name="dblGrave.sc" unicode="&#xe46a;" horiz-adv-x="408" 
d="M378 616h-103l-117 148h123zM184 616l-97 148h-123l117 -148h103z" />
    <glyph glyph-name="Macron.sc" unicode="&#xe091;" horiz-adv-x="360" 
d="M328 652h-297v80h297v-80z" />
    <glyph glyph-name="Ogonek.sc" unicode="&#xe087;" horiz-adv-x="346" 
d="M283 -200c-23 -7 -56 -13 -91 -13c-77 0 -118 36 -118 94c0 44 25 84 109 141h102c-101 -76 -111 -102 -111 -126c0 -25 11 -39 48 -39c23 0 45 2 61 3v-60z" />
    <glyph glyph-name="Ring.sc" unicode="&#xe088;" horiz-adv-x="342" 
d="M286 721c0 -78 -48 -114 -114 -114s-116 36 -116 114c0 79 50 115 116 115s114 -36 114 -115zM218 721c0 43 -20 55 -46 55c-27 0 -46 -12 -46 -55c0 -41 19 -54 46 -54c26 0 46 13 46 54z" />
    <glyph glyph-name="Tilde.sc" unicode="&#xe089;" horiz-adv-x="371" 
d="M366 730c0 -75 -31 -117 -97 -117c-33 0 -64 8 -92 38l-30 31c-16 17 -21 21 -37 21c-19 0 -27 -14 -27 -44v-42h-75v42c0 74 34 117 98 117c34 0 58 -8 86 -37l30 -31c17 -17 26 -22 44 -22c17 0 24 13 24 44v42h76v-42z" />
    <glyph glyph-name="middot" unicode="&#x387;" horiz-adv-x="206" 
d="M159 284h-112v146h112v-146z" />
    <glyph glyph-name="A.sc" unicode="&#xe000;" horiz-adv-x="492" 
d="M469 0h-130l-33 157h-121l-33 -157h-129v78l32 4l88 395l-31 3v80h217l106 -478l34 -4v-78zM292 242l-30 147c-7 33 -11 66 -15 95h-3c-5 -29 -8 -61 -15 -95l-30 -147h93z" />
    <glyph glyph-name="Aacute.sc" unicode="&#xe002;" horiz-adv-x="492" 
d="M469 0h-130l-33 157h-121l-33 -157h-129v78l32 4l88 395l-31 3v80h217l106 -478l34 -4v-78zM292 242l-30 147c-7 33 -11 66 -15 95h-3c-5 -29 -8 -61 -15 -95l-30 -147h93zM400 766l-117 -148h-106l97 148h126z" />
    <glyph glyph-name="Abreve.sc" unicode="&#xe040;" horiz-adv-x="492" 
d="M469 0h-130l-33 157h-121l-33 -157h-129v78l32 4l88 395l-31 3v80h217l106 -478l34 -4v-78zM292 242l-30 147c-7 33 -11 66 -15 95h-3c-5 -29 -8 -61 -15 -95l-30 -147h93zM391 768c-8 -93 -49 -153 -150 -153c-102 0 -143 60 -151 153h79c5 -69 25 -88 72 -88
c46 0 66 19 72 88h78z" />
    <glyph glyph-name="Acircumflex.sc" unicode="&#xe003;" horiz-adv-x="492" 
d="M469 0h-130l-33 157h-121l-33 -157h-129v78l32 4l88 395l-31 3v80h217l106 -478l34 -4v-78zM292 242l-30 147c-7 33 -11 66 -15 95h-3c-5 -29 -8 -61 -15 -95l-30 -147h93zM420 618h-100l-74 95l-74 -95h-100l102 148h144z" />
    <glyph glyph-name="Adieresis.sc" unicode="&#xe004;" horiz-adv-x="492" 
d="M469 0h-130l-33 157h-121l-33 -157h-129v78l32 4l88 395l-31 3v80h217l106 -478l34 -4v-78zM292 242l-30 147c-7 33 -11 66 -15 95h-3c-5 -29 -8 -61 -15 -95l-30 -147h93zM393 634h-100v117h100v-117zM201 634v117h-101v-117h101z" />
    <glyph glyph-name="Agrave.sc" unicode="&#xe005;" horiz-adv-x="492" 
d="M469 0h-130l-33 157h-121l-33 -157h-129v78l32 4l88 395l-31 3v80h217l106 -478l34 -4v-78zM292 242l-30 147c-7 33 -11 66 -15 95h-3c-5 -29 -8 -61 -15 -95l-30 -147h93zM308 618h-105l-118 148h127z" />
    <glyph glyph-name="Amacron.sc" unicode="&#xe041;" horiz-adv-x="492" 
d="M469 0h-130l-33 157h-121l-33 -157h-129v78l32 4l88 395l-31 3v80h217l106 -478l34 -4v-78zM292 242l-30 147c-7 33 -11 66 -15 95h-3c-5 -29 -8 -61 -15 -95l-30 -147h93zM395 636h-297v80h297v-80z" />
    <glyph glyph-name="Aogonek.sc" unicode="&#xe042;" horiz-adv-x="492" 
d="M469 -200c-23 -7 -56 -13 -91 -13c-77 0 -118 29 -118 94c0 44 28 83 88 119h-9l-33 157h-121l-33 -157h-129v78l32 4l88 395l-31 3v80h217l106 -478l34 -4v-78c-95 -55 -109 -78 -109 -108c0 -24 11 -35 48 -35c23 0 45 2 61 3v-60zM292 242l-30 147
c-7 33 -11 66 -15 95h-3c-5 -29 -8 -61 -15 -95l-30 -147h93z" />
    <glyph glyph-name="Aring.sc" unicode="&#xe006;" horiz-adv-x="492" 
d="M469 0h-130l-33 157h-121l-33 -157h-129v78l32 4l88 395l-31 3v80h217l106 -478l34 -4v-78zM292 242l-30 147c-7 33 -11 66 -15 95h-3c-5 -29 -8 -61 -15 -95l-30 -147h93zM356 722c0 -78 -48 -114 -114 -114s-116 36 -116 114c0 79 50 115 116 115s114 -36 114 -115z
M288 722c0 43 -20 55 -46 55c-27 0 -46 -12 -46 -55c0 -41 19 -54 46 -54c26 0 46 13 46 54z" />
    <glyph glyph-name="Atilde.sc" unicode="&#xe007;" horiz-adv-x="492" 
d="M469 0h-130l-33 157h-121l-33 -157h-129v78l32 4l88 395l-31 3v80h217l106 -478l34 -4v-78zM292 242l-30 147c-7 33 -11 66 -15 95h-3c-5 -29 -8 -61 -15 -95l-30 -147h93zM424 732c0 -75 -31 -117 -97 -117c-33 0 -64 8 -92 38l-30 31c-16 17 -21 21 -37 21
c-19 0 -27 -14 -27 -44v-42h-75v42c0 74 34 117 98 117c34 0 58 -8 86 -37l30 -31c17 -17 26 -22 44 -22c17 0 24 13 24 44v42h76v-42z" />
    <glyph glyph-name="AE.sc" unicode="&#xe001;" horiz-adv-x="630" 
d="M595 560v-122h-70l-7 35h-115v-143h182v-84h-182v-159h115l7 37h70v-124h-331v77l30 4v75h-109l-32 -156h-130v78l32 4l89 395l-32 3v80h483zM294 481h-48c-4 -26 -7 -47 -14 -81l-33 -160h95v241z" />
    <glyph glyph-name="AEacute.sc" unicode="&#xe043;" horiz-adv-x="630" 
d="M595 560v-122h-70l-7 35h-115v-143h182v-84h-182v-159h115l7 37h70v-124h-331v77l30 4v75h-109l-32 -156h-130v78l32 4l89 395l-32 3v80h483zM294 481h-48c-4 -26 -7 -47 -14 -81l-33 -160h95v241zM506 766l-117 -148h-106l97 148h126z" />
    <glyph glyph-name="B.sc" unicode="&#xe008;" horiz-adv-x="449" 
d="M418 161c0 -134 -84 -165 -208 -165c-53 0 -114 1 -180 5v77l30 5v395l-30 4v78c65 3 126 4 181 4c127 0 205 -28 205 -151v-9c0 -51 -19 -94 -58 -116c43 -23 60 -70 60 -117v-10zM311 161v11c0 50 -16 80 -76 80h-67v-171h49c63 0 94 13 94 80zM309 401v9
c0 62 -31 71 -91 71c-16 0 -31 0 -50 -1v-154h67c61 0 74 28 74 75z" />
    <glyph glyph-name="C.sc" unicode="&#xe009;" horiz-adv-x="387" 
d="M353 5c-22 -6 -81 -15 -122 -15c-120 0 -199 42 -199 237v106c0 196 79 237 199 237c41 0 100 -10 122 -15v-119h-71l-7 42c-11 0 -23 1 -33 1c-65 0 -99 -22 -99 -146v-106c0 -124 34 -146 99 -146c10 0 22 0 33 1l7 43h71v-120z" />
    <glyph glyph-name="Cacute.sc" unicode="&#xe044;" horiz-adv-x="387" 
d="M353 5c-22 -6 -81 -15 -122 -15c-120 0 -199 42 -199 237v106c0 196 79 237 199 237c41 0 100 -10 122 -15v-119h-71l-7 42c-11 0 -23 1 -33 1c-65 0 -99 -22 -99 -146v-106c0 -124 34 -146 99 -146c10 0 22 0 33 1l7 43h71v-120zM369 766l-117 -148h-106l97 148h126z
" />
    <glyph glyph-name="Ccaron.sc" unicode="&#xe045;" horiz-adv-x="387" 
d="M353 5c-22 -6 -81 -15 -122 -15c-120 0 -199 42 -199 237v106c0 196 79 237 199 237c41 0 100 -10 122 -15v-119h-71l-7 42c-11 0 -23 1 -33 1c-65 0 -99 -22 -99 -146v-106c0 -124 34 -146 99 -146c10 0 22 0 33 1l7 43h71v-120zM386 766l-102 -148h-144l-102 148h100
l74 -95l74 95h100z" />
    <glyph glyph-name="Ccedilla.sc" unicode="&#xe00a;" horiz-adv-x="387" 
d="M353 5c-22 -6 -81 -15 -122 -15c-120 0 -199 42 -199 237v106c0 196 79 237 199 237c41 0 100 -10 122 -15v-119h-71l-7 42c-11 0 -23 1 -33 1c-65 0 -99 -22 -99 -146v-106c0 -124 34 -146 99 -146c10 0 22 0 33 1l7 43h71v-120zM297 -61l-106 -143h-103l85 143h124z
" />
    <glyph glyph-name="Ccircumflex.sc" unicode="&#xe046;" horiz-adv-x="387" 
d="M353 5c-22 -6 -81 -15 -122 -15c-120 0 -199 42 -199 237v106c0 196 79 237 199 237c41 0 100 -10 122 -15v-119h-71l-7 42c-11 0 -23 1 -33 1c-65 0 -99 -22 -99 -146v-106c0 -124 34 -146 99 -146c10 0 22 0 33 1l7 43h71v-120zM386 618h-100l-74 95l-74 -95h-100
l102 148h144z" />
    <glyph glyph-name="Cdotaccent.sc" unicode="&#xe047;" horiz-adv-x="387" 
d="M353 5c-22 -6 -81 -15 -122 -15c-120 0 -199 42 -199 237v106c0 196 79 237 199 237c41 0 100 -10 122 -15v-119h-71l-7 42c-11 0 -23 1 -33 1c-65 0 -99 -22 -99 -146v-106c0 -124 34 -146 99 -146c10 0 22 0 33 1l7 43h71v-120zM272 635h-118v117h118v-117z" />
    <glyph glyph-name="D.sc" unicode="&#xe00b;" horiz-adv-x="460" 
d="M428 232c0 -149 -50 -236 -221 -236c-61 0 -120 1 -177 4v79l31 5v392l-31 5v79c59 3 115 4 177 4c171 0 221 -82 221 -232v-100zM318 231v102c0 111 -25 141 -105 141h-43v-389h43c83 0 105 36 105 146z" />
    <glyph glyph-name="Dcaron.sc" unicode="&#xe048;" horiz-adv-x="460" 
d="M428 232c0 -149 -50 -236 -221 -236c-61 0 -120 1 -177 4v79l31 5v392l-31 5v79c59 3 115 4 177 4c171 0 221 -82 221 -232v-100zM318 231v102c0 111 -25 141 -105 141h-43v-389h43c83 0 105 36 105 146zM400 766l-102 -148h-144l-102 148h100l74 -95l74 95h100z" />
    <glyph glyph-name="Dcroat.sc" unicode="&#xe049;" horiz-adv-x="460" 
d="M427 232c0 -151 -52 -236 -219 -236c-63 0 -122 1 -178 5v78l30 5v160h-38v86h38v146l-30 5v79c58 3 115 4 178 4c166 0 219 -82 219 -232v-100zM317 232v100c0 110 -24 142 -107 142h-41v-144h68v-86h-68v-158h43c83 0 105 36 105 146z" />
    <glyph glyph-name="Eth.sc" unicode="&#xe00c;" horiz-adv-x="460" 
d="M427 232c0 -151 -52 -236 -219 -236c-63 0 -122 1 -178 5v78l30 5v160h-38v86h38v146l-30 5v79c58 3 115 4 178 4c166 0 219 -82 219 -232v-100zM317 232v100c0 110 -24 142 -107 142h-41v-144h68v-86h-68v-158h43c83 0 105 36 105 146z" />
    <glyph glyph-name="E.sc" unicode="&#xe00d;" horiz-adv-x="395" 
d="M361 0h-331v78l30 3v398l-30 3v78h331v-122h-72l-6 35h-114v-143h180v-84h-180v-159h114l6 37h72v-124z" />
    <glyph glyph-name="Eacute.sc" unicode="&#xe00e;" horiz-adv-x="395" 
d="M361 0h-331v78l30 3v398l-30 3v78h331v-122h-72l-6 35h-114v-143h180v-84h-180v-159h114l6 37h72v-124zM360 766l-117 -148h-106l97 148h126z" />
    <glyph glyph-name="Ebreve.sc" unicode="&#xe04a;" horiz-adv-x="395" 
d="M361 0h-331v78l30 3v398l-30 3v78h331v-122h-72l-6 35h-114v-143h180v-84h-180v-159h114l6 37h72v-124zM356 768c-8 -93 -49 -153 -150 -153c-102 0 -143 60 -151 153h79c5 -69 25 -88 72 -88c46 0 66 19 72 88h78z" />
    <glyph glyph-name="Ecaron.sc" unicode="&#xe04b;" horiz-adv-x="395" 
d="M361 0h-331v78l30 3v398l-30 3v78h331v-122h-72l-6 35h-114v-143h180v-84h-180v-159h114l6 37h72v-124zM380 766l-102 -148h-144l-102 148h100l74 -95l74 95h100z" />
    <glyph glyph-name="Ecircumflex.sc" unicode="&#xe00f;" horiz-adv-x="395" 
d="M361 0h-331v78l30 3v398l-30 3v78h331v-122h-72l-6 35h-114v-143h180v-84h-180v-159h114l6 37h72v-124zM376 618h-100l-74 95l-74 -95h-100l102 148h144z" />
    <glyph glyph-name="Edieresis.sc" unicode="&#xe010;" horiz-adv-x="395" 
d="M361 0h-331v78l30 3v398l-30 3v78h331v-122h-72l-6 35h-114v-143h180v-84h-180v-159h114l6 37h72v-124zM344 634h-100v117h100v-117zM152 634v117h-101v-117h101z" />
    <glyph glyph-name="Edotaccent.sc" unicode="&#xe04c;" horiz-adv-x="395" 
d="M361 0h-331v78l30 3v398l-30 3v78h331v-122h-72l-6 35h-114v-143h180v-84h-180v-159h114l6 37h72v-124zM263 635h-118v117h118v-117z" />
    <glyph glyph-name="Egrave.sc" unicode="&#xe011;" horiz-adv-x="395" 
d="M361 0h-331v78l30 3v398l-30 3v78h331v-122h-72l-6 35h-114v-143h180v-84h-180v-159h114l6 37h72v-124zM270 618h-105l-118 148h127z" />
    <glyph glyph-name="Emacron.sc" unicode="&#xe04d;" horiz-adv-x="395" 
d="M361 0h-331v78l30 3v398l-30 3v78h331v-122h-72l-6 35h-114v-143h180v-84h-180v-159h114l6 37h72v-124zM350 636h-297v80h297v-80z" />
    <glyph glyph-name="Eogonek.sc" unicode="&#xe04f;" horiz-adv-x="395" 
d="M361 -200c-23 -7 -56 -13 -91 -13c-77 0 -118 29 -118 94c0 44 28 83 88 119h-210v78l30 3v398l-30 3v78h331v-122h-72l-6 35h-114v-143h180v-84h-180v-159h114l6 37h72v-124c-95 -55 -109 -78 -109 -108c0 -24 11 -35 48 -35c23 0 45 2 61 3v-60z" />
    <glyph glyph-name="F.sc" unicode="&#xe012;" horiz-adv-x="389" 
d="M353 246h-182v-164l30 -4v-78h-171v78l30 4v396l-30 4v78h332v-122h-72l-6 35h-113v-143h182v-84z" />
    <glyph glyph-name="G.sc" unicode="&#xe013;" horiz-adv-x="421" 
d="M387 6c-29 -6 -92 -16 -156 -16c-107 0 -199 37 -199 235v111c0 208 107 234 205 234c64 0 129 -14 147 -19v-114h-71l-7 39c-15 1 -33 2 -49 2c-75 0 -115 -12 -115 -142v-111c0 -122 30 -143 94 -143c16 0 31 0 45 1v137l-49 5v70h155v-289z" />
    <glyph glyph-name="Gbreve.sc" unicode="&#xe050;" horiz-adv-x="421" 
d="M387 6c-29 -6 -92 -16 -156 -16c-107 0 -199 37 -199 235v111c0 208 107 234 205 234c64 0 129 -14 147 -19v-114h-71l-7 39c-15 1 -33 2 -49 2c-75 0 -115 -12 -115 -142v-111c0 -122 30 -143 94 -143c16 0 31 0 45 1v137l-49 5v70h155v-289zM385 768
c-8 -93 -49 -153 -150 -153c-102 0 -143 60 -151 153h79c5 -69 25 -88 72 -88c46 0 66 19 72 88h78z" />
    <glyph glyph-name="Gcircumflex.sc" unicode="&#xe051;" horiz-adv-x="421" 
d="M387 6c-29 -6 -92 -16 -156 -16c-107 0 -199 37 -199 235v111c0 208 107 234 205 234c64 0 129 -14 147 -19v-114h-71l-7 39c-15 1 -33 2 -49 2c-75 0 -115 -12 -115 -142v-111c0 -122 30 -143 94 -143c16 0 31 0 45 1v137l-49 5v70h155v-289zM406 618h-100l-74 95
l-74 -95h-100l102 148h144z" />
    <glyph glyph-name="Gcommaaccent.sc" unicode="&#xe052;" horiz-adv-x="421" 
d="M387 6c-29 -6 -92 -16 -156 -16c-107 0 -199 37 -199 235v111c0 208 107 234 205 234c64 0 129 -14 147 -19v-114h-71l-7 39c-15 1 -33 2 -49 2c-75 0 -115 -12 -115 -142v-111c0 -122 30 -143 94 -143c16 0 31 0 45 1v137l-49 5v70h155v-289zM275 -61l-80 -143h-99
l54 143h125z" />
    <glyph glyph-name="Gdotaccent.sc" unicode="&#xe053;" horiz-adv-x="421" 
d="M387 6c-29 -6 -92 -16 -156 -16c-107 0 -199 37 -199 235v111c0 208 107 234 205 234c64 0 129 -14 147 -19v-114h-71l-7 39c-15 1 -33 2 -49 2c-75 0 -115 -12 -115 -142v-111c0 -122 30 -143 94 -143c16 0 31 0 45 1v137l-49 5v70h155v-289zM292 636h-118v117h118v-117
z" />
    <glyph glyph-name="H.sc" unicode="&#xe014;" horiz-adv-x="511" 
d="M307 560h173v-79l-30 -4v-394l30 -3v-80h-173v80l30 3v163h-163v-163l30 -3v-80h-174v80l30 3v394l-30 4v79h174v-80l-30 -3v-140h163v140l-30 3v80z" />
    <glyph glyph-name="Hbar.sc" unicode="&#xe054;" horiz-adv-x="511" 
d="M307 560h173v-79l-30 -4v-35h30v-58h-30v-301l30 -3v-80h-173v80l30 3v163h-163v-163l30 -3v-80h-174v80l30 3v301h-30v58h30v35l-30 4v79h174v-80l-30 -3v-35h163v35l-30 3v80zM174 337h163v47h-163v-47z" />
    <glyph glyph-name="Hcircumflex.sc" unicode="&#xe055;" horiz-adv-x="511" 
d="M307 560h173v-79l-30 -4v-394l30 -3v-80h-173v80l30 3v163h-163v-163l30 -3v-80h-174v80l30 3v394l-30 4v79h174v-80l-30 -3v-140h163v140l-30 3v80zM428 616h-100l-74 95l-74 -95h-100l102 148h144z" />
    <glyph glyph-name="I.sc" unicode="&#xe015;" horiz-adv-x="232" 
d="M204 0h-175v78l31 4v396l-31 4v78h175v-78l-30 -4v-396l30 -4v-78z" />
    <glyph glyph-name="Iacute.sc" unicode="&#xe016;" horiz-adv-x="232" 
d="M204 0h-175v78l31 4v396l-31 4v78h175v-78l-30 -4v-396l30 -4v-78zM282 766l-117 -148h-106l97 148h126z" />
    <glyph glyph-name="Ibreve.sc" unicode="&#xe056;" horiz-adv-x="232" 
d="M204 0h-175v78l31 4v396l-31 4v78h175v-78l-30 -4v-396l30 -4v-78zM267 768c-8 -93 -49 -153 -150 -153c-102 0 -143 60 -151 153h79c5 -69 25 -88 72 -88c46 0 66 19 72 88h78z" />
    <glyph glyph-name="Icircumflex.sc" unicode="&#xe017;" horiz-adv-x="232" 
d="M204 0h-175v78l31 4v396l-31 4v78h175v-78l-30 -4v-396l30 -4v-78zM291 618h-100l-74 95l-74 -95h-100l102 148h144z" />
    <glyph glyph-name="Idieresis.sc" unicode="&#xe018;" horiz-adv-x="232" 
d="M204 0h-175v78l31 4v396l-31 4v78h175v-78l-30 -4v-396l30 -4v-78zM260 635h-100v117h100v-117zM68 635v117h-101v-117h101z" />
    <glyph glyph-name="Idotaccent.sc" unicode="&#xe081;" horiz-adv-x="232" 
d="M204 0h-175v78l31 4v396l-31 4v78h175v-78l-30 -4v-396l30 -4v-78zM176 635h-118v117h118v-117z" />
    <glyph glyph-name="Igrave.sc" unicode="&#xe019;" horiz-adv-x="232" 
d="M204 0h-175v78l31 4v396l-31 4v78h175v-78l-30 -4v-396l30 -4v-78zM191 618h-105l-118 148h127z" />
    <glyph glyph-name="Imacron.sc" unicode="&#xe059;" horiz-adv-x="232" 
d="M204 0h-175v78l31 4v396l-31 4v78h175v-78l-30 -4v-396l30 -4v-78zM265 636h-297v80h297v-80z" />
    <glyph glyph-name="Iogonek.sc" unicode="&#xe05a;" horiz-adv-x="232" 
d="M204 0c-95 -55 -97 -78 -97 -108c0 -24 11 -35 48 -35c23 0 45 2 61 3v-60c-23 -7 -56 -13 -91 -13c-77 0 -118 29 -118 94c0 44 18 83 77 119h-55v78l31 4v396l-31 4v78h175v-78l-30 -4v-396l30 -4v-78z" />
    <glyph glyph-name="Itilde.sc" unicode="&#xe05b;" horiz-adv-x="232" 
d="M204 0h-175v78l31 4v396l-31 4v78h175v-78l-30 -4v-396l30 -4v-78zM292 730c0 -75 -31 -117 -97 -117c-33 0 -64 8 -92 38l-30 31c-16 17 -21 21 -37 21c-19 0 -27 -14 -27 -44v-42h-75v42c0 74 34 117 98 117c34 0 58 -8 86 -37l30 -31c17 -17 26 -22 44 -22
c17 0 24 13 24 44v42h76v-42z" />
    <glyph glyph-name="IJ.sc" unicode="&#xe058;" horiz-adv-x="442" 
d="M412 482l-30 -4v-519c0 -88 -38 -120 -117 -120c-19 0 -46 3 -63 8v73h38c28 0 32 9 32 39v519l-30 4v78h170v-78zM201 0h-171v78l31 4v396l-31 4v78h171v-78l-30 -4v-396l30 -4v-78z" />
    <glyph glyph-name="J.sc" unicode="&#xe01a;" horiz-adv-x="235" 
d="M204 482l-30 -4v-519c0 -88 -42 -120 -120 -120c-22 0 -47 3 -64 8v73h38c29 0 32 9 32 39v519l-30 4v78h174v-78z" />
    <glyph glyph-name="Jcircumflex.sc" unicode="&#xe05c;" horiz-adv-x="235" 
d="M204 482l-30 -4v-519c0 -88 -42 -120 -120 -120c-22 0 -47 3 -64 8v73h38c29 0 32 9 32 39v519l-30 4v78h174v-78zM291 618h-100l-74 95l-74 -95h-100l102 148h144z" />
    <glyph glyph-name="K.sc" unicode="&#xe01b;" horiz-adv-x="461" 
d="M434 0h-125l-139 261v-261h-140v78l30 3v398l-30 3v78h140v-258l145 258h119v-78l-37 -4l-117 -194l118 -202l36 -4v-78z" />
    <glyph glyph-name="Kcommaaccent.sc" unicode="&#xe05d;" horiz-adv-x="461" 
d="M434 0h-125l-139 261v-261h-140v78l30 3v398l-30 3v78h140v-258l145 258h119v-78l-37 -4l-117 -194l118 -202l36 -4v-78zM273 -61l-80 -143h-99l54 143h125z" />
    <glyph glyph-name="L.sc" unicode="&#xe01c;" horiz-adv-x="372" 
d="M345 0h-315v78l30 3v398l-30 3v78h169v-78l-30 -4v-389h98l6 40h72v-129z" />
    <glyph glyph-name="Lacute.sc" unicode="&#xe05e;" horiz-adv-x="372" 
d="M345 0h-315v78l30 3v398l-30 3v78h169v-78l-30 -4v-389h98l6 40h72v-129zM342 766l-117 -148h-106l97 148h126z" />
    <glyph glyph-name="Lcaron.sc" unicode="&#xe05f;" horiz-adv-x="430" 
d="M344 0h-315v78l30 3v398l-30 3v78h170v-78l-30 -4v-389h97l7 40h71v-129zM396 564l-66 -237h-86l40 237h112z" />
    <glyph glyph-name="Lcommaaccent.sc" unicode="&#xe060;" horiz-adv-x="372" 
d="M345 0h-315v78l30 3v398l-30 3v78h169v-78l-30 -4v-389h98l6 40h72v-129zM239 -61l-80 -143h-99l54 143h125z" />
    <glyph glyph-name="Ldot.sc" unicode="&#xe061;" horiz-adv-x="394" 
d="M344 0h-315v78l30 3v398l-30 3v78h170v-78l-30 -4v-389h97l7 40h71v-129zM340 246h-97v124h97v-124z" />
    <glyph glyph-name="Lslash.sc" unicode="&#xe01d;" horiz-adv-x="372" 
d="M346 0h-315v78l29 3v100l-34 -32v96l34 32v202l-29 3v78h169v-78l-30 -4v-113l84 74v-96l-84 -74v-180h97l7 40h72v-129z" />
    <glyph glyph-name="M.sc" unicode="&#xe01e;" horiz-adv-x="563" 
d="M195 0h-165v78l29 3v398l-29 3v78h145l78 -186c9 -23 19 -49 27 -72h1c8 23 17 49 27 72l79 186h146v-78l-30 -4v-396l30 -4v-78h-167v80l30 3v222c0 36 2 73 4 108h-1l-31 -86l-49 -120h-78l-49 120c-10 27 -21 59 -30 86h-1c2 -35 4 -71 4 -108v-222l30 -3v-80z" />
    <glyph glyph-name="N.sc" unicode="&#xe01f;" horiz-adv-x="502" 
d="M310 560h162v-78l-31 -4v-478h-120l-134 325c-9 23 -20 48 -30 77h-1c2 -32 4 -65 4 -98v-221l30 -3v-80h-160v78l30 3v398l-30 3v78h150l131 -313c11 -26 23 -53 32 -80h1c-2 35 -4 74 -4 104v206l-30 3v80z" />
    <glyph glyph-name="Nacute.sc" unicode="&#xe062;" horiz-adv-x="502" 
d="M310 560h162v-78l-31 -4v-478h-120l-134 325c-9 23 -20 48 -30 77h-1c2 -32 4 -65 4 -98v-221l30 -3v-80h-160v78l30 3v398l-30 3v78h150l131 -313c11 -26 23 -53 32 -80h1c-2 35 -4 74 -4 104v206l-30 3v80zM404 766l-117 -148h-106l97 148h126z" />
    <glyph glyph-name="Ncaron.sc" unicode="&#xe063;" horiz-adv-x="502" 
d="M310 560h162v-78l-31 -4v-478h-120l-134 325c-9 23 -20 48 -30 77h-1c2 -32 4 -65 4 -98v-221l30 -3v-80h-160v78l30 3v398l-30 3v78h150l131 -313c11 -26 23 -53 32 -80h1c-2 35 -4 74 -4 104v206l-30 3v80zM422 766l-102 -148h-144l-102 148h100l74 -95l74 95h100z" />
    <glyph glyph-name="Ncommaaccent.sc" unicode="&#xe064;" horiz-adv-x="502" 
d="M310 560h162v-78l-31 -4v-478h-120l-134 325c-9 23 -20 48 -30 77h-1c2 -32 4 -65 4 -98v-221l30 -3v-80h-160v78l30 3v398l-30 3v78h150l131 -313c11 -26 23 -53 32 -80h1c-2 35 -4 74 -4 104v206l-30 3v80zM314 -61l-80 -143h-99l54 143h125z" />
    <glyph glyph-name="Ntilde.sc" unicode="&#xe020;" horiz-adv-x="502" 
d="M310 560h162v-78l-31 -4v-478h-120l-134 325c-9 23 -20 48 -30 77h-1c2 -32 4 -65 4 -98v-221l30 -3v-80h-160v78l30 3v398l-30 3v78h150l131 -313c11 -26 23 -53 32 -80h1c-2 35 -4 74 -4 104v206l-30 3v80zM430 730c0 -75 -31 -117 -97 -117c-33 0 -64 8 -92 38l-30 31
c-16 17 -21 21 -37 21c-19 0 -27 -14 -27 -44v-42h-75v42c0 74 34 117 98 117c34 0 58 -8 86 -37l30 -31c17 -17 26 -22 44 -22c17 0 24 13 24 44v42h76v-42z" />
    <glyph glyph-name="Eng.sc" unicode="&#xe04e;" horiz-adv-x="502" 
d="M310 560h162v-78l-31 -4v-519c0 -88 -42 -120 -120 -120c-22 0 -47 3 -64 8v73h49c25 0 34 9 34 39v41l-153 325c-11 22 -20 48 -30 77h-1c2 -32 4 -65 4 -98v-221l30 -3v-80h-160v78l30 3v398l-30 3v78h150l131 -274c12 -25 23 -53 32 -80h1c-2 35 -4 74 -4 104v167
l-30 3v80z" />
    <glyph glyph-name="O.sc" unicode="&#xe021;" horiz-adv-x="450" 
d="M417 234c0 -169 -68 -244 -192 -244c-125 0 -193 77 -193 244v93c0 166 70 243 193 243s192 -75 192 -243v-93zM308 234v92c0 113 -25 152 -83 152s-83 -41 -83 -152v-92c0 -110 25 -152 83 -152s83 40 83 152z" />
    <glyph glyph-name="Oacute.sc" unicode="&#xe023;" horiz-adv-x="450" 
d="M417 234c0 -169 -68 -244 -192 -244c-125 0 -193 77 -193 244v93c0 166 70 243 193 243s192 -75 192 -243v-93zM308 234v92c0 113 -25 152 -83 152s-83 -41 -83 -152v-92c0 -110 25 -152 83 -152s83 40 83 152zM385 766l-117 -148h-106l97 148h126z" />
    <glyph glyph-name="Obreve.sc" unicode="&#xe065;" horiz-adv-x="450" 
d="M417 234c0 -169 -68 -244 -192 -244c-125 0 -193 77 -193 244v93c0 166 70 243 193 243s192 -75 192 -243v-93zM308 234v92c0 113 -25 152 -83 152s-83 -41 -83 -152v-92c0 -110 25 -152 83 -152s83 40 83 152zM375 769c-8 -93 -49 -153 -150 -153
c-102 0 -143 60 -151 153h79c5 -69 25 -88 72 -88c46 0 66 19 72 88h78z" />
    <glyph glyph-name="Ocircumflex.sc" unicode="&#xe024;" horiz-adv-x="450" 
d="M417 234c0 -169 -68 -244 -192 -244c-125 0 -193 77 -193 244v93c0 166 70 243 193 243s192 -75 192 -243v-93zM308 234v92c0 113 -25 152 -83 152s-83 -41 -83 -152v-92c0 -110 25 -152 83 -152s83 40 83 152zM398 618h-100l-74 95l-74 -95h-100l102 148h144z" />
    <glyph glyph-name="Odieresis.sc" unicode="&#xe025;" horiz-adv-x="450" 
d="M417 234c0 -169 -68 -244 -192 -244c-125 0 -193 77 -193 244v93c0 166 70 243 193 243s192 -75 192 -243v-93zM308 234v92c0 113 -25 152 -83 152s-83 -41 -83 -152v-92c0 -110 25 -152 83 -152s83 40 83 152zM370 635h-100v117h100v-117zM178 635v117h-101v-117h101z
" />
    <glyph glyph-name="Ograve.sc" unicode="&#xe026;" horiz-adv-x="450" 
d="M417 234c0 -169 -68 -244 -192 -244c-125 0 -193 77 -193 244v93c0 166 70 243 193 243s192 -75 192 -243v-93zM308 234v92c0 113 -25 152 -83 152s-83 -41 -83 -152v-92c0 -110 25 -152 83 -152s83 40 83 152zM303 618h-105l-118 148h127z" />
    <glyph glyph-name="Ohungarumlaut.sc" unicode="&#xe066;" horiz-adv-x="450" 
d="M417 234c0 -169 -68 -244 -192 -244c-125 0 -193 77 -193 244v93c0 166 70 243 193 243s192 -75 192 -243v-93zM308 234v92c0 113 -25 152 -83 152s-83 -41 -83 -152v-92c0 -110 25 -152 83 -152s83 40 83 152zM483 766l-118 -149h-103l97 149h124zM289 766h-123
l-97 -149h102z" />
    <glyph glyph-name="Omacron.sc" unicode="&#xe067;" horiz-adv-x="450" 
d="M417 234c0 -169 -68 -244 -192 -244c-125 0 -193 77 -193 244v93c0 166 70 243 193 243s192 -75 192 -243v-93zM308 234v92c0 113 -25 152 -83 152s-83 -41 -83 -152v-92c0 -110 25 -152 83 -152s83 40 83 152zM372 635h-297v80h297v-80z" />
    <glyph glyph-name="Otilde.sc" unicode="&#xe028;" horiz-adv-x="450" 
d="M417 234c0 -169 -68 -244 -192 -244c-125 0 -193 77 -193 244v93c0 166 70 243 193 243s192 -75 192 -243v-93zM308 234v92c0 113 -25 152 -83 152s-83 -41 -83 -152v-92c0 -110 25 -152 83 -152s83 40 83 152zM409 731c0 -75 -31 -117 -97 -117c-33 0 -64 8 -92 38
l-30 31c-16 17 -21 21 -37 21c-19 0 -27 -14 -27 -44v-42h-75v42c0 74 34 117 98 117c34 0 58 -8 86 -37l30 -31c17 -17 26 -22 44 -22c17 0 24 13 24 44v42h76v-42z" />
    <glyph glyph-name="Oslash.sc" unicode="&#xe027;" horiz-adv-x="450" 
d="M417 234c0 -169 -68 -244 -192 -244c-46 0 -84 10 -114 31l-17 -29h-75l47 79c-22 40 -34 93 -34 163v93c0 166 70 243 193 243c47 0 87 -11 117 -35l20 33h75l-51 -86c20 -38 31 -89 31 -155v-93zM142 234c0 -13 0 -24 1 -35l145 245c-13 24 -34 34 -63 34
c-58 0 -83 -41 -83 -152v-92zM308 234v92c0 9 0 17 -1 25l-142 -240c13 -20 33 -29 60 -29c58 0 83 40 83 152z" />
    <glyph glyph-name="Oslashacute.sc" unicode="&#xe068;" horiz-adv-x="450" 
d="M417 234c0 -169 -68 -244 -192 -244c-46 0 -84 10 -114 31l-17 -29h-75l47 79c-22 40 -34 93 -34 163v93c0 166 70 243 193 243c47 0 87 -11 117 -35l20 33h75l-51 -86c20 -38 31 -89 31 -155v-93zM142 234c0 -13 0 -24 1 -35l145 245c-13 24 -34 34 -63 34
c-58 0 -83 -41 -83 -152v-92zM308 234v92c0 9 0 17 -1 25l-142 -240c13 -20 33 -29 60 -29c58 0 83 40 83 152zM389 764l-117 -148h-106l97 148h126z" />
    <glyph glyph-name="OE.sc" unicode="&#xe022;" horiz-adv-x="627" 
d="M593 0h-269c-34 -5 -61 -9 -93 -9c-132 0 -199 76 -199 243v93c0 169 67 243 199 243c32 0 60 -4 94 -10h268v-122h-70l-8 35h-113v-143h182v-84h-182v-159h113l8 37h70v-124zM293 86v387c-22 3 -41 5 -58 5c-67 0 -93 -41 -93 -152v-92c0 -110 24 -152 90 -152
c27 0 39 2 61 4z" />
    <glyph glyph-name="P.sc" unicode="&#xe029;" horiz-adv-x="435" 
d="M202 0h-172v78l30 4v396l-30 4v78c55 3 111 4 172 4c118 0 209 -28 209 -173v-12c0 -144 -92 -175 -200 -175h-43v-122l34 -4v-78zM302 380v11c0 70 -27 85 -94 85h-40v-184c13 -1 27 -1 41 -1c66 0 93 20 93 89z" />
    <glyph glyph-name="Thorn.sc" unicode="&#xe02a;" horiz-adv-x="435" 
d="M411 289c0 -145 -92 -176 -200 -176c-14 0 -27 0 -43 1v-114h-138v78l30 4v405l-30 3v79h138v-96h38c115 0 205 -29 205 -173v-11zM302 289v11c0 70 -27 85 -94 85c-13 0 -26 -1 -40 -1v-183h41c66 0 93 19 93 88z" />
    <glyph glyph-name="Q.sc" unicode="&#xe02b;" horiz-adv-x="450" 
d="M417 234c0 -143 -48 -222 -143 -239v-42c0 -23 5 -26 29 -26h55v-65c-16 -5 -51 -12 -87 -12c-64 0 -100 21 -100 100v46c-94 19 -139 101 -139 238v93c0 166 70 243 193 243s192 -75 192 -243v-93zM308 234v92c0 113 -25 152 -83 152s-83 -41 -83 -152v-92
c0 -110 25 -152 83 -152s83 40 83 152z" />
    <glyph glyph-name="Qalt.sc" unicode="&#xe595;" horiz-adv-x="450" 
d="M417 234c0 -143 -48 -222 -143 -239v-136h-103v137c-94 19 -139 101 -139 238v93c0 166 70 243 193 243s192 -75 192 -243v-93zM308 234v92c0 113 -25 152 -83 152s-83 -41 -83 -152v-92c0 -110 25 -152 83 -152s83 40 83 152z" />
    <glyph glyph-name="R.sc" unicode="&#xe02c;" horiz-adv-x="462" 
d="M438 0h-116l-90 208h-28h-36v-208h-138v78l30 4v396l-30 4v78c53 2 112 4 169 4c117 0 211 -31 211 -173v-8c0 -81 -28 -126 -75 -151l65 -150l38 -4v-78zM302 383v7c0 70 -27 86 -97 86h-37v-185h39c71 0 95 25 95 92z" />
    <glyph glyph-name="Racute.sc" unicode="&#xe069;" horiz-adv-x="462" 
d="M438 0h-116l-90 208h-28h-36v-208h-138v78l30 4v396l-30 4v78c53 2 112 4 169 4c117 0 211 -31 211 -173v-8c0 -81 -28 -126 -75 -151l65 -150l38 -4v-78zM302 383v7c0 70 -27 86 -97 86h-37v-185h39c71 0 95 25 95 92zM378 766l-117 -148h-106l97 148h126z" />
    <glyph glyph-name="Rcaron.sc" unicode="&#xe06a;" horiz-adv-x="462" 
d="M438 0h-116l-90 208h-28h-36v-208h-138v78l30 4v396l-30 4v78c53 2 112 4 169 4c117 0 211 -31 211 -173v-8c0 -81 -28 -126 -75 -151l65 -150l38 -4v-78zM302 383v7c0 70 -27 86 -97 86h-37v-185h39c71 0 95 25 95 92zM398 766l-102 -148h-144l-102 148h100l74 -95
l74 95h100z" />
    <glyph glyph-name="Rcommaaccent.sc" unicode="&#xe06b;" horiz-adv-x="462" 
d="M438 0h-116l-90 208h-28h-36v-208h-138v78l30 4v396l-30 4v78c53 2 112 4 169 4c117 0 211 -31 211 -173v-8c0 -81 -28 -126 -75 -151l65 -150l38 -4v-78zM302 383v7c0 70 -27 86 -97 86h-37v-185h39c71 0 95 25 95 92zM295 -61l-80 -143h-99l54 143h125z" />
    <glyph glyph-name="S.sc" unicode="&#xe02d;" horiz-adv-x="384" 
d="M357 149c0 -103 -59 -159 -172 -159c-65 0 -124 11 -149 17v115h71l7 -44c21 -1 37 -1 56 -1c55 0 75 19 75 69c0 37 -11 52 -54 79l-67 44c-63 41 -97 82 -97 158c0 96 56 143 175 143c62 0 118 -12 143 -18v-112h-71l-8 42c-17 1 -37 1 -54 1c-50 0 -75 -14 -75 -57
c0 -33 14 -49 54 -75l64 -41c70 -44 102 -85 102 -161z" />
    <glyph glyph-name="Sacute.sc" unicode="&#xe06c;" horiz-adv-x="384" 
d="M357 149c0 -103 -59 -159 -172 -159c-65 0 -124 11 -149 17v115h71l7 -44c21 -1 37 -1 56 -1c55 0 75 19 75 69c0 37 -11 52 -54 79l-67 44c-63 41 -97 82 -97 158c0 96 56 143 175 143c62 0 118 -12 143 -18v-112h-71l-8 42c-17 1 -37 1 -54 1c-50 0 -75 -14 -75 -57
c0 -33 14 -49 54 -75l64 -41c70 -44 102 -85 102 -161zM356 766l-117 -148h-106l97 148h126z" />
    <glyph glyph-name="Scaron.sc" unicode="&#xe02e;" horiz-adv-x="384" 
d="M357 149c0 -103 -59 -159 -172 -159c-65 0 -124 11 -149 17v115h71l7 -44c21 -1 37 -1 56 -1c55 0 75 19 75 69c0 37 -11 52 -54 79l-67 44c-63 41 -97 82 -97 158c0 96 56 143 175 143c62 0 118 -12 143 -18v-112h-71l-8 42c-17 1 -37 1 -54 1c-50 0 -75 -14 -75 -57
c0 -33 14 -49 54 -75l64 -41c70 -44 102 -85 102 -161zM375 766l-102 -148h-144l-102 148h100l74 -95l74 95h100z" />
    <glyph glyph-name="Scedilla.sc" unicode="&#xe06d;" horiz-adv-x="384" 
d="M357 149c0 -103 -59 -159 -172 -159c-65 0 -124 11 -149 17v115h71l7 -44c21 -1 37 -1 56 -1c55 0 75 19 75 69c0 37 -11 52 -54 79l-67 44c-63 41 -97 82 -97 158c0 96 56 143 175 143c62 0 118 -12 143 -18v-112h-71l-8 42c-17 1 -37 1 -54 1c-50 0 -75 -14 -75 -57
c0 -33 14 -49 54 -75l64 -41c70 -44 102 -85 102 -161zM279 -61l-106 -143h-103l85 143h124z" />
    <glyph glyph-name="Scircumflex.sc" unicode="&#xe06e;" horiz-adv-x="384" 
d="M357 149c0 -103 -59 -159 -172 -159c-65 0 -124 11 -149 17v115h71l7 -44c21 -1 37 -1 56 -1c55 0 75 19 75 69c0 37 -11 52 -54 79l-67 44c-63 41 -97 82 -97 158c0 96 56 143 175 143c62 0 118 -12 143 -18v-112h-71l-8 42c-17 1 -37 1 -54 1c-50 0 -75 -14 -75 -57
c0 -33 14 -49 54 -75l64 -41c70 -44 102 -85 102 -161zM371 616h-100l-74 95l-74 -95h-100l102 148h144z" />
    <glyph glyph-name="Scommaaccent.sc" unicode="&#xe06f;" horiz-adv-x="384" 
d="M357 149c0 -103 -59 -159 -172 -159c-65 0 -124 11 -149 17v115h71l7 -44c21 -1 37 -1 56 -1c55 0 75 19 75 69c0 37 -11 52 -54 79l-67 44c-63 41 -97 82 -97 158c0 96 56 143 175 143c62 0 118 -12 143 -18v-112h-71l-8 42c-17 1 -37 1 -54 1c-50 0 -75 -14 -75 -57
c0 -33 14 -49 54 -75l64 -41c70 -44 102 -85 102 -161zM268 -61l-80 -143h-99l54 143h125z" />
    <glyph glyph-name="T.sc" unicode="&#xe02f;" horiz-adv-x="428" 
d="M400 437h-69l-7 37h-55v-393l30 -4v-77h-171v77l31 4v393h-56l-6 -37h-70v123h373v-123z" />
    <glyph glyph-name="Tcaron.sc" unicode="&#xe071;" horiz-adv-x="428" 
d="M400 437h-69l-7 37h-55v-393l30 -4v-77h-171v77l31 4v393h-56l-6 -37h-70v123h373v-123zM386 766l-102 -148h-144l-102 148h100l74 -95l74 95h100z" />
    <glyph glyph-name="Tbar.sc" unicode="&#xe070;" horiz-adv-x="428" 
d="M400 437h-69l-7 37h-55v-122h100v-82h-100v-189l30 -4v-77h-171v77l31 4v189h-103v82h103v122h-56l-6 -37h-70v123h373v-123z" />
    <glyph glyph-name="Tcommaaccent.sc" unicode="&#xe072;" horiz-adv-x="428" 
d="M400 437h-69l-7 37h-55v-393l30 -4v-77h-171v77l31 4v393h-56l-6 -37h-70v123h373v-123zM286 -61l-80 -143h-99l54 143h125z" />
    <glyph glyph-name="U.sc" unicode="&#xe030;" horiz-adv-x="492" 
d="M200 480l-30 -3v-259c0 -101 13 -138 76 -138s77 38 77 138v259l-30 3v80h169v-78l-30 -4v-268c0 -125 -47 -220 -186 -220c-138 0 -185 95 -185 220v268l-31 4v78h170v-80z" />
    <glyph glyph-name="Uacute.sc" unicode="&#xe031;" horiz-adv-x="492" 
d="M200 480l-30 -3v-259c0 -101 13 -138 76 -138s77 38 77 138v259l-30 3v80h169v-78l-30 -4v-268c0 -125 -47 -220 -186 -220c-138 0 -185 95 -185 220v268l-31 4v78h170v-80zM413 766l-117 -148h-106l97 148h126z" />
    <glyph glyph-name="Ubreve.sc" unicode="&#xe073;" horiz-adv-x="492" 
d="M200 480l-30 -3v-259c0 -101 13 -138 76 -138s77 38 77 138v259l-30 3v80h169v-78l-30 -4v-268c0 -125 -47 -220 -186 -220c-138 0 -185 95 -185 220v268l-31 4v78h170v-80zM398 768c-8 -93 -49 -153 -150 -153c-102 0 -143 60 -151 153h79c5 -69 25 -88 72 -88
c46 0 66 19 72 88h78z" />
    <glyph glyph-name="Ucircumflex.sc" unicode="&#xe032;" horiz-adv-x="492" 
d="M200 480l-30 -3v-259c0 -101 13 -138 76 -138s77 38 77 138v259l-30 3v80h169v-78l-30 -4v-268c0 -125 -47 -220 -186 -220c-138 0 -185 95 -185 220v268l-31 4v78h170v-80zM419 618h-100l-74 95l-74 -95h-100l102 148h144z" />
    <glyph glyph-name="Udieresis.sc" unicode="&#xe033;" horiz-adv-x="492" 
d="M200 480l-30 -3v-259c0 -101 13 -138 76 -138s77 38 77 138v259l-30 3v80h169v-78l-30 -4v-268c0 -125 -47 -220 -186 -220c-138 0 -185 95 -185 220v268l-31 4v78h170v-80zM392 634h-100v117h100v-117zM200 634v117h-101v-117h101z" />
    <glyph glyph-name="Uhungarumlaut.sc" unicode="&#xe074;" horiz-adv-x="492" 
d="M200 480l-30 -3v-259c0 -101 13 -138 76 -138s77 38 77 138v259l-30 3v80h169v-78l-30 -4v-268c0 -125 -47 -220 -186 -220c-138 0 -185 95 -185 220v268l-31 4v78h170v-80zM506 766l-118 -149h-103l97 149h124zM312 766h-123l-97 -149h102z" />
    <glyph glyph-name="Ugrave.sc" unicode="&#xe034;" horiz-adv-x="492" 
d="M200 480l-30 -3v-259c0 -101 13 -138 76 -138s77 38 77 138v259l-30 3v80h169v-78l-30 -4v-268c0 -125 -47 -220 -186 -220c-138 0 -185 95 -185 220v268l-31 4v78h170v-80zM317 618h-105l-118 148h127z" />
    <glyph glyph-name="Umacron.sc" unicode="&#xe075;" horiz-adv-x="492" 
d="M200 480l-30 -3v-259c0 -101 13 -138 76 -138s77 38 77 138v259l-30 3v80h169v-78l-30 -4v-268c0 -125 -47 -220 -186 -220c-138 0 -185 95 -185 220v268l-31 4v78h170v-80zM394 635h-297v80h297v-80z" />
    <glyph glyph-name="Uogonek.sc" unicode="&#xe076;" horiz-adv-x="492" 
d="M200 480l-30 -3v-259c0 -101 13 -138 76 -138s77 38 77 138v259l-30 3v80h169v-78l-30 -4v-268c0 -100 -30 -181 -113 -209c-67 -44 -78 -72 -78 -99c0 -24 11 -45 48 -45c23 0 45 2 61 3v-60c-23 -7 -56 -13 -91 -13c-77 0 -118 39 -118 104c0 35 17 72 55 104
c-100 21 -135 106 -135 215v268l-31 4v78h170v-80z" />
    <glyph glyph-name="Uring.sc" unicode="&#xe077;" horiz-adv-x="492" 
d="M200 480l-30 -3v-259c0 -101 13 -138 76 -138s77 38 77 138v259l-30 3v80h169v-78l-30 -4v-268c0 -125 -47 -220 -186 -220c-138 0 -185 95 -185 220v268l-31 4v78h170v-80zM360 722c0 -78 -48 -114 -114 -114s-116 36 -116 114c0 79 50 115 116 115s114 -36 114 -115z
M292 722c0 43 -20 55 -46 55c-27 0 -46 -12 -46 -55c0 -41 19 -54 46 -54c26 0 46 13 46 54z" />
    <glyph glyph-name="Utilde.sc" unicode="&#xe078;" horiz-adv-x="492" 
d="M200 480l-30 -3v-259c0 -101 13 -138 76 -138s77 38 77 138v259l-30 3v80h169v-78l-30 -4v-268c0 -125 -47 -220 -186 -220c-138 0 -185 95 -185 220v268l-31 4v78h170v-80zM424 732c0 -75 -31 -117 -97 -117c-33 0 -64 8 -92 38l-30 31c-16 17 -21 21 -37 21
c-19 0 -27 -14 -27 -44v-42h-75v42c0 74 34 117 98 117c34 0 58 -8 86 -37l30 -31c17 -17 26 -22 44 -22c17 0 24 13 24 44v42h76v-42z" />
    <glyph glyph-name="V.sc" unicode="&#xe035;" horiz-adv-x="486" 
d="M194 482l-28 -3l60 -296c7 -35 12 -74 16 -107h2c3 33 9 72 16 107l59 296l-28 3v78h172v-78l-32 -4l-106 -478h-166l-105 478l-32 4v78h172v-78z" />
    <glyph glyph-name="W.sc" unicode="&#xe036;" horiz-adv-x="631" 
d="M191 482l-30 -3l28 -250c4 -38 5 -73 8 -106h5c4 30 8 67 15 103l38 184h120l39 -185c7 -36 9 -65 15 -103h4c3 38 4 71 8 107l28 250l-30 3v78h167v-78l-30 -4l-62 -478h-138l-47 241c-5 28 -9 61 -11 83h-5c-3 -22 -8 -57 -13 -83l-46 -241h-138l-63 478l-31 4v78h169
v-78z" />
    <glyph glyph-name="Wacute.sc" unicode="&#xe079;" horiz-adv-x="631" 
d="M191 482l-30 -3l28 -250c4 -38 5 -73 8 -106h5c4 30 8 67 15 103l38 184h120l39 -185c7 -36 9 -65 15 -103h4c3 38 4 71 8 107l28 250l-30 3v78h167v-78l-30 -4l-62 -478h-138l-47 241c-5 28 -9 61 -11 83h-5c-3 -22 -8 -57 -13 -83l-46 -241h-138l-63 478l-31 4v78h169
v-78zM468 766l-117 -148h-106l97 148h126z" />
    <glyph glyph-name="Wcircumflex.sc" unicode="&#xe07a;" horiz-adv-x="631" 
d="M191 482l-30 -3l28 -250c4 -38 5 -73 8 -106h5c4 30 8 67 15 103l38 184h120l39 -185c7 -36 9 -65 15 -103h4c3 38 4 71 8 107l28 250l-30 3v78h167v-78l-30 -4l-62 -478h-138l-47 241c-5 28 -9 61 -11 83h-5c-3 -22 -8 -57 -13 -83l-46 -241h-138l-63 478l-31 4v78h169
v-78zM490 618h-100l-74 95l-74 -95h-100l102 148h144z" />
    <glyph glyph-name="Wdieresis.sc" unicode="&#xe07b;" horiz-adv-x="631" 
d="M191 482l-30 -3l28 -250c4 -38 5 -73 8 -106h5c4 30 8 67 15 103l38 184h120l39 -185c7 -36 9 -65 15 -103h4c3 38 4 71 8 107l28 250l-30 3v78h167v-78l-30 -4l-62 -478h-138l-47 241c-5 28 -9 61 -11 83h-5c-3 -22 -8 -57 -13 -83l-46 -241h-138l-63 478l-31 4v78h169
v-78zM463 634h-100v117h100v-117zM271 634v117h-101v-117h101z" />
    <glyph glyph-name="Wgrave.sc" unicode="&#xe07c;" horiz-adv-x="631" 
d="M191 482l-30 -3l28 -250c4 -38 5 -73 8 -106h5c4 30 8 67 15 103l38 184h120l39 -185c7 -36 9 -65 15 -103h4c3 38 4 71 8 107l28 250l-30 3v78h167v-78l-30 -4l-62 -478h-138l-47 241c-5 28 -9 61 -11 83h-5c-3 -22 -8 -57 -13 -83l-46 -241h-138l-63 478l-31 4v78h169
v-78zM376 618h-105l-118 148h127z" />
    <glyph glyph-name="X.sc" unicode="&#xe037;" horiz-adv-x="453" 
d="M59 83l102 205l-99 190l-36 4v78h119l91 -176l81 176h111v-78l-37 -4l-100 -199l102 -196l38 -5v-78h-118l-93 177l-85 -177h-113v78z" />
    <glyph glyph-name="Y.sc" unicode="&#xe038;" horiz-adv-x="433" 
d="M410 482l-35 -4l-105 -264v-133l30 -4v-77h-169v77l31 4v133l-105 264l-35 4v78h114l54 -156c9 -26 19 -53 26 -85h1c8 32 16 59 25 85l56 156h112v-78z" />
    <glyph glyph-name="Yacute.sc" unicode="&#xe039;" horiz-adv-x="433" 
d="M410 482l-35 -4l-105 -264v-133l30 -4v-77h-169v77l31 4v133l-105 264l-35 4v78h114l54 -156c9 -26 19 -53 26 -85h1c8 32 16 59 25 85l56 156h112v-78zM372 766l-117 -148h-106l97 148h126z" />
    <glyph glyph-name="Ycircumflex.sc" unicode="&#xe07d;" horiz-adv-x="433" 
d="M410 482l-35 -4l-105 -264v-133l30 -4v-77h-169v77l31 4v133l-105 264l-35 4v78h114l54 -156c9 -26 19 -53 26 -85h1c8 32 16 59 25 85l56 156h112v-78zM391 618h-100l-74 95l-74 -95h-100l102 148h144z" />
    <glyph glyph-name="Ydieresis.sc" unicode="&#xe03a;" horiz-adv-x="433" 
d="M410 482l-35 -4l-105 -264v-133l30 -4v-77h-169v77l31 4v133l-105 264l-35 4v78h114l54 -156c9 -26 19 -53 26 -85h1c8 32 16 59 25 85l56 156h112v-78zM364 634h-100v117h100v-117zM172 634v117h-101v-117h101z" />
    <glyph glyph-name="Ygrave.sc" unicode="&#xe07e;" horiz-adv-x="433" 
d="M410 482l-35 -4l-105 -264v-133l30 -4v-77h-169v77l31 4v133l-105 264l-35 4v78h114l54 -156c9 -26 19 -53 26 -85h1c8 32 16 59 25 85l56 156h112v-78zM287 618h-105l-118 148h127z" />
    <glyph glyph-name="Z.sc" unicode="&#xe03b;" horiz-adv-x="395" 
d="M365 0h-335v94l206 380h-124l-7 -37h-68v123h322v-96l-205 -378h135l7 40h69v-126z" />
    <glyph glyph-name="Zacute.sc" unicode="&#xe07f;" horiz-adv-x="395" 
d="M365 0h-335v94l206 380h-124l-7 -37h-68v123h322v-96l-205 -378h135l7 40h69v-126zM368 766l-117 -148h-106l97 148h126z" />
    <glyph glyph-name="Zcaron.sc" unicode="&#xe03c;" horiz-adv-x="395" 
d="M365 0h-335v94l206 380h-124l-7 -37h-68v123h322v-96l-205 -378h135l7 40h69v-126zM380 766l-102 -148h-144l-102 148h100l74 -95l74 95h100z" />
    <glyph glyph-name="Zdotaccent.sc" unicode="&#xe080;" horiz-adv-x="395" 
d="M365 0h-335v94l206 380h-124l-7 -37h-68v123h322v-96l-205 -378h135l7 40h69v-126zM260 635h-118v117h118v-117z" />
    <glyph glyph-name="ampersand.sc" unicode="&#xe08c;" horiz-adv-x="513" 
d="M366 0l-21 25c-34 -22 -79 -34 -136 -34c-114 0 -176 52 -176 154v4c0 58 22 110 87 155c-41 52 -66 87 -66 142v6c0 90 61 132 166 132c62 0 115 -10 152 -18v-113h-73l-8 45h-71c-37 0 -59 -8 -59 -46v-5c0 -36 9 -58 42 -99l150 -185c10 32 14 72 14 115l-31 5v60h146
v-61l-31 -5c-1 -68 -12 -133 -42 -184l59 -72v-21h-102zM217 68c32 0 58 6 79 18l-119 147c-23 -22 -35 -54 -35 -84v-4c0 -53 27 -77 75 -77z" />
    <glyph glyph-name="ampersandalt.sc" unicode="&#xe451;" horiz-adv-x="513" 
d="M386 451c0 -51 -17 -109 -125 -174l91 -112c10 31 15 66 15 103v14h84v-14c0 -66 -12 -127 -40 -175l58 -72v-21h-103l-20 24c-34 -21 -78 -33 -131 -33c-99 0 -182 37 -182 149v4c0 62 27 109 96 151l-6 8c-43 54 -67 93 -67 149v4c0 90 60 129 167 129
c112 0 163 -39 163 -129v-5zM163 447c0 -36 10 -59 37 -93l11 -14c67 45 70 69 70 107v5c0 38 -22 48 -58 48c-38 0 -60 -10 -60 -49v-4zM224 68c29 0 53 7 72 19l-114 142c-31 -25 -40 -54 -40 -85v-4c0 -50 39 -72 82 -72z" />
    <glyph glyph-name="exclam.sc" unicode="&#xe08b;" horiz-adv-x="202" 
d="M156 0h-110v116h110v-116zM160 581l-10 -418h-98l-10 418h118z" />
    <glyph glyph-name="exclamdown.sc" unicode="&#xe08f;" horiz-adv-x="202" 
d="M160 -21h-118l10 419h98zM156 560v-116h-110v116h110z" />
    <glyph glyph-name="questiondown.sc" unicode="&#xe094;" horiz-adv-x="335" 
d="M139 560h106v-116h-106v116zM30 98c0 40 10 77 54 135c52 67 64 89 64 137v27h90v-27c0 -57 -3 -90 -42 -144s-50 -82 -50 -113v-6c0 -37 17 -49 60 -49c9 0 19 1 24 1l8 40h65v-108c-35 -12 -85 -20 -132 -20c-88 0 -141 33 -141 119v8z" />
    <glyph glyph-name="question.sc" unicode="&#xe08d;" horiz-adv-x="335" 
d="M191 0h-106v116h106v-116zM300 462c0 -40 -10 -77 -54 -135c-52 -67 -64 -89 -64 -137v-27h-90v27c0 57 3 90 42 144s50 82 50 113v6c0 37 -17 49 -60 49c-9 0 -19 -1 -24 -1l-8 -40h-65v108c35 12 85 20 132 20c88 0 141 -33 141 -119v-8z" />
    <glyph glyph-name="Acute" unicode="&#xf6c9;" horiz-adv-x="345" 
d="M315 940l-117 -149h-106l97 149h126z" />
    <glyph glyph-name="Aringacute" unicode="&#x1fa;" horiz-adv-x="590" 
d="M409 837c0 -60 -54 -83 -114 -83c-61 0 -116 23 -116 83c0 61 55 83 116 83c60 0 114 -22 114 -83zM345 837c0 23 -21 32 -50 32c-31 0 -52 -9 -52 -32c0 -21 21 -32 52 -32c29 0 50 11 50 32zM442 1033l-102 -103h-106l82 103h126zM219 0h-199v90l40 4l123 554l-41 6v89
h242l145 -649l41 -4v-90h-200v89l34 4l-27 129h-165l-28 -129l35 -4v-89zM359 323l-42 199c-10 46 -14 91 -19 130h-6c-5 -39 -9 -82 -19 -130l-43 -199h129z" />
    <glyph glyph-name="Breve" unicode="&#xf71d;" horiz-adv-x="365" 
d="M333 942c-8 -93 -49 -153 -150 -153c-102 0 -143 60 -151 153h79c5 -69 25 -88 72 -88c46 0 66 19 72 88h78z" />
    <glyph glyph-name="Caron" unicode="&#xf6ca;" horiz-adv-x="370" 
d="M359 940l-102 -149h-144l-102 149h100l74 -96l74 96h100z" />
    <glyph glyph-name="Cedilla" unicode="&#xf722;" horiz-adv-x="337" 
d="M249 -61l-106 -143h-103l85 143h124z" />
    <glyph glyph-name="Circumflex" unicode="&#xf71e;" horiz-adv-x="370" 
d="M359 791h-100l-74 95l-74 -95h-100l102 149h144z" />
    <glyph glyph-name="Dieresis" unicode="&#xf6cb;" horiz-adv-x="363" 
d="M330 812h-101v117h101v-117zM134 812v117h-101v-117h101z" />
    <glyph glyph-name="DieresisAcute" unicode="&#xf6cc;" horiz-adv-x="410" 
d="M433 813h-98v117h98v-117zM185 947h124l-103 -157h-104zM75 813h-98v117h98v-117z" />
    <glyph glyph-name="DieresisGrave" unicode="&#xf6cd;" horiz-adv-x="410" 
d="M433 813h-99v117h99v-117zM225 947l82 -157h-103l-103 157h124zM75 813h-98v117h98v-117z" />
    <glyph glyph-name="Dotaccent" unicode="&#xf71a;" horiz-adv-x="324" 
d="M221 827h-118v117h118v-117z" />
    <glyph glyph-name="Euro.taboldstyle" unicode="&#xe430;" horiz-adv-x="470" 
d="M422 2c-25 -7 -84 -14 -124 -14c-118 0 -192 37 -203 197h-42v62h41v65h-41v62h42c9 171 83 206 203 206c44 0 98 -7 124 -15v-124h-71l-8 39c-9 0 -21 1 -32 1c-59 0 -91 -14 -97 -107h185l-14 -62h-173v-65h160l-14 -62h-144c5 -82 37 -98 98 -98c33 0 83 5 110 7v-92z
" />
    <glyph glyph-name="Grave" unicode="&#xf6ce;" horiz-adv-x="345" 
d="M248 791h-105l-118 149h127z" />
    <glyph glyph-name="Hungarumlaut" unicode="&#xf6cf;" horiz-adv-x="402" 
d="M266 938l-118 -149h-103l97 149h124zM467 938l-118 -149h-102l97 149h123z" />
    <glyph glyph-name="Macron" unicode="&#xf6d0;" horiz-adv-x="354" 
d="M325 827h-297v80h297v-80z" />
    <glyph glyph-name="Ogonek" unicode="&#xe46c;" horiz-adv-x="340" 
d="M280 -200c-20 -7 -52 -13 -90 -13c-79 0 -119 34 -119 95c0 43 25 75 110 138h100c-103 -81 -110 -100 -110 -127c0 -21 11 -36 48 -36c20 0 41 2 61 4v-61z" />
    <glyph glyph-name="Q.alt" unicode="&#xe23c;" horiz-adv-x="542" 
d="M328 -181h-115v175c-125 23 -179 134 -179 308v139c0 204 76 313 237 313c162 0 237 -109 237 -313v-139c0 -175 -55 -286 -180 -308v-175zM271 91c82 0 117 61 117 211v139c0 150 -35 210 -117 210s-116 -60 -116 -210v-139c0 -150 34 -211 116 -211z" />
    <glyph glyph-name="Ring" unicode="&#xf71b;" horiz-adv-x="336" 
d="M283 884c0 -78 -48 -114 -114 -114s-116 36 -116 114c0 79 50 115 116 115s114 -36 114 -115zM215 884c0 43 -20 55 -46 55c-27 0 -46 -12 -46 -55c0 -41 19 -54 46 -54c26 0 46 13 46 54z" />
    <glyph glyph-name="T_h" unicode="&#xfb10;" horiz-adv-x="910" 
d="M886 0h-156v374c0 77 -12 99 -59 99c-35 0 -70 -14 -96 -30v-348l40 -5v-90h-196v90l40 5v548h-146v-549l41 -5v-89h-203v89l41 5v549h-79l-9 -51h-81v151h552v-211c30 20 78 37 130 37c117 0 142 -82 142 -191v-283l39 -5v-90z" />
    <glyph glyph-name="T_h.caron" unicode="&#xfb11;" horiz-adv-x="910" 
d="M886 0h-156v374c0 77 -12 99 -59 99c-35 0 -70 -14 -96 -30v-348l40 -5v-90h-196v90l40 5v548h-146v-549l41 -5v-89h-203v89l41 5v549h-79l-9 -51h-81v151h552v-211c30 20 78 37 130 37c117 0 142 -82 142 -191v-283l39 -5v-90zM424 938l-102 -148h-144l-102 148h100
l74 -95l74 95h100z" />
    <glyph glyph-name="T_h.commaaccent" unicode="&#xfb12;" horiz-adv-x="910" 
d="M886 0h-156v374c0 77 -12 99 -59 99c-35 0 -70 -14 -96 -30v-348l40 -5v-90h-196v90l40 5v548h-146v-549l41 -5v-89h-203v89l41 5v549h-79l-9 -51h-81v151h552v-211c30 20 78 37 130 37c117 0 142 -82 142 -191v-283l39 -5v-90zM328 -61l-80 -143h-99l54 143h125z" />
    <glyph glyph-name="Tilde" unicode="&#xf71c;" horiz-adv-x="365" 
d="M363 905c0 -75 -31 -117 -97 -117c-33 0 -64 8 -92 38l-30 31c-16 17 -21 21 -37 21c-19 0 -27 -14 -27 -44v-42h-75v42c0 74 34 117 98 117c34 0 58 -8 86 -37l30 -31c17 -17 26 -22 44 -22c17 0 24 13 24 44v42h76v-42z" />
    <glyph glyph-name="a.alt" unicode="&#xe245;" horiz-adv-x="487" 
d="M461 0h-148v26c-31 -22 -71 -37 -121 -37c-112 0 -158 78 -158 222v122c0 181 68 236 211 236c48 0 120 -4 176 -11v-464l40 -5v-89zM307 107v364c-25 3 -53 4 -65 4c-64 0 -93 -20 -93 -142v-122c0 -92 18 -126 77 -126c28 0 56 8 81 22z" />
    <glyph glyph-name="a.alt2" unicode="&#xe43e;" horiz-adv-x="458" 
d="M436 0h-145v31c-29 -22 -77 -42 -130 -42c-96 0 -132 59 -132 152v27c0 133 79 165 208 165h43v47c0 80 -12 95 -88 95c-42 0 -91 -6 -135 -12v80c30 10 91 26 158 26c139 0 181 -52 181 -189v-286l40 -5v-89zM283 99v162h-45c-72 0 -97 -16 -97 -91v-34
c0 -50 18 -63 55 -63c35 0 70 15 87 26z" />
    <glyph glyph-name="aacute.alt" unicode="&#xe281;" horiz-adv-x="487" 
d="M461 0h-148v26c-31 -22 -71 -37 -121 -37c-112 0 -158 78 -158 222v122c0 181 68 236 211 236c48 0 120 -4 176 -11v-464l40 -5v-89zM307 107v364c-25 3 -53 4 -65 4c-64 0 -93 -20 -93 -142v-122c0 -92 18 -126 77 -126c28 0 56 8 81 22zM407 764l-117 -148h-106l97 148
h126z" />
    <glyph glyph-name="abreve.alt" unicode="&#xe441;" horiz-adv-x="487" 
d="M461 0h-148v26c-31 -22 -71 -37 -121 -37c-112 0 -158 78 -158 222v122c0 181 68 236 211 236c48 0 120 -4 176 -11v-464l40 -5v-89zM307 107v364c-25 3 -53 4 -65 4c-64 0 -93 -20 -93 -142v-122c0 -92 18 -126 77 -126c28 0 56 8 81 22zM394 767
c-8 -93 -49 -153 -150 -153c-102 0 -143 60 -151 153h79c5 -69 25 -88 72 -88c46 0 66 19 72 88h78z" />
    <glyph glyph-name="acircumflex.alt" unicode="&#xe283;" horiz-adv-x="487" 
d="M461 0h-148v26c-31 -22 -71 -37 -121 -37c-112 0 -158 78 -158 222v122c0 181 68 236 211 236c48 0 120 -4 176 -11v-464l40 -5v-89zM307 107v364c-25 3 -53 4 -65 4c-64 0 -93 -20 -93 -142v-122c0 -92 18 -126 77 -126c28 0 56 8 81 22zM409 616h-100l-74 95l-74 -95
h-100l102 148h144z" />
    <glyph glyph-name="adieresis.alt" unicode="&#xe284;" horiz-adv-x="487" 
d="M461 0h-148v26c-31 -22 -71 -37 -121 -37c-112 0 -158 78 -158 222v122c0 181 68 236 211 236c48 0 120 -4 176 -11v-464l40 -5v-89zM307 107v364c-25 3 -53 4 -65 4c-64 0 -93 -20 -93 -142v-122c0 -92 18 -126 77 -126c28 0 56 8 81 22zM382 637h-100v117h100v-117z
M190 637v117h-101v-117h101z" />
    <glyph glyph-name="afii61352" unicode="&#x2116;" horiz-adv-x="984" 
d="M955 142h-352v80h352v-80zM955 501c0 -142 -45 -233 -176 -233s-176 91 -176 233v21c0 143 46 233 176 233c131 0 176 -90 176 -233v-21zM854 501v21c0 99 -14 148 -75 148s-74 -49 -74 -148v-21c0 -98 13 -148 74 -148s75 50 75 148zM377 743h193v-89l-40 -5v-649h-141
l-175 474c-12 32 -26 72 -39 113h-2c4 -45 7 -96 7 -143v-350l41 -5v-89h-192v90l40 4v555l-40 5v89h182l172 -455c12 -32 29 -79 40 -116h2c-4 52 -7 109 -7 150v327l-41 5v89z" />
    <glyph glyph-name="agrave.alt" unicode="&#xe282;" horiz-adv-x="487" 
d="M461 0h-148v26c-31 -22 -71 -37 -121 -37c-112 0 -158 78 -158 222v122c0 181 68 236 211 236c48 0 120 -4 176 -11v-464l40 -5v-89zM307 107v364c-25 3 -53 4 -65 4c-64 0 -93 -20 -93 -142v-122c0 -92 18 -126 77 -126c28 0 56 8 81 22zM306 616h-105l-118 148h127z
" />
    <glyph glyph-name="amacron.alt" unicode="&#xe440;" horiz-adv-x="487" 
d="M461 0h-148v26c-31 -22 -71 -37 -121 -37c-112 0 -158 78 -158 222v122c0 181 68 236 211 236c48 0 120 -4 176 -11v-464l40 -5v-89zM307 107v364c-25 3 -53 4 -65 4c-64 0 -93 -20 -93 -142v-122c0 -92 18 -126 77 -126c28 0 56 8 81 22zM392 650h-297v80h297v-80z" />
    <glyph glyph-name="ampersand.alt" unicode="&#xe43d;" horiz-adv-x="593" 
d="M440 579c0 -81 -36 -135 -147 -221l123 -161c20 61 20 130 20 173v11h93v-12c0 -92 -12 -184 -50 -254l76 -98v-17h-120l-26 34c-40 -28 -93 -45 -161 -45c-110 0 -211 43 -211 186v5c0 77 26 136 110 198l-8 11c-56 74 -77 113 -77 190v5c0 113 69 170 191 170
c121 0 187 -57 187 -170v-5zM257 77c41 0 73 11 97 29l-146 191c-44 -37 -54 -71 -54 -117v-5c0 -72 44 -98 103 -98zM177 579c0 -53 5 -76 46 -130l11 -14c71 60 90 92 90 144v5c0 58 -26 76 -71 76c-46 0 -76 -18 -76 -76v-5z" />
    <glyph glyph-name="aogonek.alt" unicode="&#xe443;" horiz-adv-x="487" 
d="M461 -200c-23 -7 -56 -13 -91 -13c-77 0 -118 29 -118 94c0 44 28 83 88 119h-27v26c-31 -22 -71 -37 -121 -37c-112 0 -158 78 -158 222v122c0 181 68 236 211 236c48 0 120 -4 176 -11v-464l40 -5v-89c-95 -55 -109 -78 -109 -108c0 -24 11 -35 48 -35c23 0 45 2 61 3
v-60zM307 107v364c-25 3 -53 4 -65 4c-64 0 -93 -20 -93 -142v-122c0 -92 18 -126 77 -126c28 0 56 8 81 22z" />
    <glyph glyph-name="aring.alt" unicode="&#xe286;" horiz-adv-x="487" 
d="M364 713c0 -78 -48 -114 -114 -114s-116 36 -116 114c0 79 50 115 116 115s114 -36 114 -115zM296 713c0 43 -20 55 -46 55c-27 0 -46 -12 -46 -55c0 -41 19 -54 46 -54c26 0 46 13 46 54zM461 0h-148v26c-31 -22 -71 -37 -121 -37c-112 0 -158 78 -158 222v122
c0 181 68 236 211 236c48 0 120 -4 176 -11v-464l40 -5v-89zM307 107v364c-25 3 -53 4 -65 4c-64 0 -93 -20 -93 -142v-122c0 -92 18 -126 77 -126c28 0 56 8 81 22z" />
    <glyph glyph-name="aringacute" unicode="&#x1fb;" horiz-adv-x="465" 
d="M439 0h-145v31c-29 -22 -77 -42 -130 -42c-96 0 -132 58 -132 152v28c0 132 78 164 208 164h43v47c0 80 -12 95 -87 95c-16 0 -31 0 -47 -1l-10 -48h-79v117c19 7 86 26 158 26c139 0 181 -52 181 -189v-286l40 -5v-89zM286 99v162h-45c-73 0 -97 -17 -97 -90v-36
c0 -50 19 -62 55 -62c35 0 70 15 87 26zM344 700c0 -78 -48 -114 -114 -114s-116 36 -116 114c0 79 50 115 116 115s114 -36 114 -115zM276 700c0 43 -20 55 -46 55c-27 0 -46 -12 -46 -55c0 -41 19 -54 46 -54c26 0 46 13 46 54zM392 979l-117 -148h-106l97 148h126z" />
    <glyph glyph-name="aringacute.alt" unicode="&#xe442;" horiz-adv-x="487" 
d="M369 700c0 -78 -48 -114 -114 -114s-116 36 -116 114c0 79 50 115 116 115s114 -36 114 -115zM301 700c0 43 -20 55 -46 55c-27 0 -46 -12 -46 -55c0 -41 19 -54 46 -54c26 0 46 13 46 54zM461 0h-148v26c-31 -22 -71 -37 -121 -37c-112 0 -158 78 -158 222v122
c0 181 68 236 211 236c48 0 120 -4 176 -11v-464l40 -5v-89zM307 107v364c-25 3 -53 4 -65 4c-64 0 -93 -20 -93 -142v-122c0 -92 18 -126 77 -126c28 0 56 8 81 22zM419 976l-117 -148h-106l97 148h126z" />
    <glyph glyph-name="a.superior" unicode="&#xf6e9;" horiz-adv-x="346" 
d="M317 307h-107v20c-19 -13 -52 -27 -91 -27c-64 0 -90 36 -90 95v16c0 86 60 98 145 98h28v24c0 44 -8 54 -55 54c-10 0 -19 0 -33 -1l-5 -28h-59v79c14 5 63 18 115 18c95 0 127 -33 127 -122v-158l25 -3v-65zM205 375v86h-30c-43 0 -60 -7 -60 -49v-17
c0 -28 13 -36 34 -36c23 0 46 10 56 16z" />
    <glyph glyph-name="at.cap" unicode="&#xe138;" horiz-adv-x="659" 
d="M626 466c0 -187 -79 -320 -288 -320c-126 0 -167 55 -168 146c0 18 2 55 4 81c10 168 68 212 165 212c49 0 98 -11 136 -23l-25 -323c71 32 105 112 105 227c0 151 -60 230 -197 230c-142 0 -222 -83 -247 -311c-4 -40 -8 -84 -8 -133c0 -110 40 -210 203 -210
c63 0 129 8 141 9v-51c-9 -2 -77 -15 -141 -15c-203 0 -273 118 -273 268c0 49 4 100 9 139c29 257 131 364 316 364c178 0 268 -104 268 -290zM374 505c-11 2 -24 3 -37 3c-39 0 -61 -17 -70 -138c-3 -43 -3 -61 -3 -78c0 -54 17 -73 67 -73h23z" />
    <glyph glyph-name="atilde.alt" unicode="&#xe285;" horiz-adv-x="487" 
d="M461 0h-148v26c-31 -22 -71 -37 -121 -37c-112 0 -158 78 -158 222v122c0 181 68 236 211 236c48 0 120 -4 176 -11v-464l40 -5v-89zM307 107v364c-25 3 -53 4 -65 4c-64 0 -93 -20 -93 -142v-122c0 -92 18 -126 77 -126c28 0 56 8 81 22zM427 729
c0 -75 -31 -117 -97 -117c-33 0 -64 8 -92 38l-30 31c-16 17 -21 21 -37 21c-19 0 -27 -14 -27 -44v-42h-75v42c0 74 34 117 98 117c34 0 58 -8 86 -37l30 -31c17 -17 26 -22 44 -22c17 0 24 13 24 44v42h76v-42z" />
    <glyph glyph-name="braceleft.cap" unicode="&#xe139;" horiz-adv-x="285" 
d="M260 0h-42c-132 0 -154 56 -154 143v89c0 67 -10 80 -41 109v61c31 29 41 42 41 109v88c0 91 22 144 154 144h42v-86h-40c-45 0 -50 -9 -50 -58v-88c0 -75 -18 -108 -55 -140c36 -32 56 -65 56 -139v-89c0 -49 4 -57 49 -57h40v-86z" />
    <glyph glyph-name="braceright.cap" unicode="&#xe13a;" horiz-adv-x="284" 
d="M260 341c-32 -29 -41 -42 -41 -109v-89c0 -87 -22 -143 -155 -143h-41v86h40c45 0 49 8 49 57v89c0 74 19 107 56 139c-37 32 -56 65 -56 140v88c0 49 -4 58 -49 58h-40v86h41c133 0 155 -53 155 -144v-88c0 -67 9 -80 41 -109v-61z" />
    <glyph glyph-name="bracketleft.cap" unicode="&#xe13b;" horiz-adv-x="261" 
d="M231 0h-182v743h182v-83h-78v-577h78v-83z" />
    <glyph glyph-name="bracketright.cap" unicode="&#xe13c;" horiz-adv-x="261" 
d="M211 0h-181v83h78v577h-78v83h181v-743z" />
    <glyph glyph-name="b.superior" unicode="&#xf6ea;" horiz-adv-x="354" 
d="M325 456c0 -112 -46 -156 -153 -156c-38 0 -67 2 -125 8v399l-26 3v65h115v-133c18 10 40 14 61 14c91 0 128 -49 128 -147v-53zM235 457v52c0 59 -11 76 -51 76c-11 0 -34 -2 -49 -10v-202c10 0 24 -2 40 -2c44 0 60 15 60 86z" />
    <glyph glyph-name="cent.denominator" unicode="&#xe119;" horiz-adv-x="310" 
d="M283 3c-15 -5 -43 -10 -72 -11v-75h-80v80c-65 17 -105 70 -105 191v68c0 117 37 175 105 191v77h80v-71c29 -2 58 -7 72 -11v-103h-62l-6 33h-19c-54 0 -76 -24 -76 -116v-68c0 -91 21 -115 79 -115c27 0 65 3 84 4v-74z" />
    <glyph glyph-name="cent.numerator" unicode="&#xe12d;" horiz-adv-x="310" 
d="M283 308c-15 -5 -43 -11 -72 -12v-74h-80v79c-65 17 -105 70 -105 192v67c0 117 37 175 105 191v77h80v-71c29 -1 58 -7 72 -11v-103h-62l-6 33c-5 0 -10 1 -19 1c-54 0 -76 -24 -76 -117v-67c0 -92 21 -116 79 -116c27 0 65 3 84 5v-74z" />
    <glyph glyph-name="cent.taboldstyle" unicode="&#xe500;" horiz-adv-x="446" 
d="M387 8c-22 -8 -58 -14 -90 -16v-107h-99v111c-102 23 -139 102 -139 234v110c0 130 38 211 139 233v107h100v-102c30 -3 68 -8 89 -16v-125h-72l-9 46h-29c-74 0 -101 -27 -101 -143v-110c0 -116 27 -143 101 -143c38 0 75 3 110 7v-86z" />
    <glyph glyph-name="cent.inferior" unicode="&#xf6df;" horiz-adv-x="310" 
d="M283 4c-15 -5 -43 -11 -72 -12v-74h-80v79c-65 17 -105 70 -105 192v68c0 116 37 174 105 190v77h80v-71c29 -1 58 -7 72 -11v-103h-62l-6 33c-5 0 -10 1 -19 1c-54 0 -76 -24 -76 -116v-68c0 -92 21 -116 79 -116c27 0 65 3 84 5v-74z" />
    <glyph glyph-name="cent.oldstyle" unicode="&#xf7a2;" horiz-adv-x="427" 
d="M378 8c-22 -8 -58 -14 -90 -16v-107h-99v111c-103 23 -140 102 -140 234v110c0 130 38 211 140 233v107h99v-102c31 -3 68 -8 90 -16v-125h-73l-9 46h-28c-74 0 -101 -27 -101 -143v-110c0 -116 27 -143 101 -143c37 0 74 3 110 7v-86z" />
    <glyph glyph-name="cent.superior" unicode="&#xf6e0;" horiz-adv-x="310" 
d="M286 307c-15 -5 -43 -11 -72 -12v-74h-80v79c-65 17 -105 70 -105 192v67c0 117 37 175 105 191v77h80v-71c29 -2 58 -7 72 -11v-103h-62l-6 33c-5 0 -10 1 -19 1c-54 0 -76 -24 -76 -117v-67c0 -92 21 -116 79 -116c26 0 63 3 84 5v-74z" />
    <glyph glyph-name="colonmonetary" unicode="&#x20a1;" horiz-adv-x="383" 
d="M361 10c-9 -4 -25 -8 -45 -12v-101h-72v92h-18c-15 0 -26 1 -36 3v-95h-72v118c-58 35 -83 108 -83 209v110c0 102 25 173 83 209v117h72v-94c10 2 24 3 39 3h15v91h72v-100c21 -4 37 -8 45 -12v-123h-78l-9 47c-10 1 -20 1 -31 1c-64 0 -93 -22 -93 -139v-110
c0 -115 29 -139 93 -139c30 0 72 3 118 8v-83z" />
    <glyph glyph-name="colonmonetary.taboldstyle" unicode="&#xe437;" horiz-adv-x="446" 
d="M387 8c-11 -4 -28 -8 -45 -11v-97h-70v90h-12c-16 0 -30 1 -44 3v-93h-70v117c-62 35 -87 107 -87 213v110c0 106 25 177 87 213v110h70v-86c13 2 29 3 44 3h12v83h70v-91c17 -2 33 -6 45 -10v-125h-73l-9 45h-28c-73 0 -100 -26 -100 -142v-110c0 -116 27 -143 100 -143
c37 0 76 4 110 8v-87z" />
    <glyph glyph-name="comma.denominator" unicode="&#xe11a;" horiz-adv-x="180" 
d="M152 93l-61 -151h-72l42 151h91z" />
    <glyph glyph-name="comma.numerator" unicode="&#xe130;" horiz-adv-x="180" 
d="M151 397l-61 -152h-71l41 152h91z" />
    <glyph glyph-name="commaaccent" unicode="&#xf6c3;" horiz-adv-x="442" 
d="M298 -61l-80 -143h-99l54 143h125z" />
    <glyph glyph-name="commaaccent.alt" unicode="&#xe504;" horiz-adv-x="442" 
d="M314 761l-54 -144h-124l79 144h99z" />
    <glyph glyph-name="commaaccent.cap" unicode="&#xe46b;" horiz-adv-x="442" 
d="M298 -61l-80 -143h-99l54 143h125z" />
    <glyph glyph-name="comma.inferior" unicode="&#xf6e1;" horiz-adv-x="180" 
d="M151 93l-61 -151h-71l41 151h91z" />
    <glyph glyph-name="comma.superior" unicode="&#xf6e2;" horiz-adv-x="180" 
d="M151 397l-61 -152h-71l42 152h90z" />
    <glyph glyph-name="currency.taboldstyle" unicode="&#xe438;" horiz-adv-x="511" 
d="M486 139l-66 -64l-67 66c-30 -17 -65 -26 -97 -26c-34 0 -67 7 -98 26l-69 -66l-64 63l68 67c-17 28 -27 64 -27 96c0 34 6 68 27 96l-68 67l64 62l69 -66c30 19 65 27 98 27c35 0 68 -7 98 -26l67 64l65 -62l-68 -66c19 -25 28 -64 28 -96c0 -33 -9 -67 -27 -97z
M363 301c0 68 -48 108 -107 108c-60 0 -106 -40 -106 -108c0 -69 47 -108 106 -108c58 0 107 39 107 108z" />
    <glyph glyph-name="cyrBreve" unicode="&#xf6d1;" horiz-adv-x="365" 
d="M333 767c-8 -93 -49 -153 -150 -153c-102 0 -143 60 -151 153h79c5 -69 25 -88 72 -88c46 0 66 19 72 88h78z" />
    <glyph glyph-name="cyrFlex" unicode="&#xf6d2;" horiz-adv-x="365" 
d="M333 616h-78c-6 68 -26 87 -72 87c-47 0 -67 -19 -72 -87h-79c8 92 49 153 151 153c101 0 142 -61 150 -153z" />
    <glyph glyph-name="cyrbreve" unicode="&#xf6d4;" horiz-adv-x="365" 
d="M333 767c-8 -93 -49 -153 -150 -153c-102 0 -143 60 -151 153h79c5 -69 25 -88 72 -88c46 0 66 19 72 88h78z" />
    <glyph glyph-name="cyrflex" unicode="&#xf6d5;" horiz-adv-x="365" 
d="M333 616h-78c-6 68 -26 87 -72 87c-47 0 -67 -19 -72 -87h-79c8 92 49 153 151 153c101 0 142 -61 150 -153z" />
    <glyph glyph-name="dblGrave" unicode="&#xf6d3;" horiz-adv-x="402" 
d="M375 616h-103l-117 148h123zM181 616l-97 148h-123l117 -148h103z" />
    <glyph glyph-name="dblgrave" unicode="&#xf6d6;" horiz-adv-x="402" 
d="M375 616h-103l-117 148h123zM181 616l-97 148h-123l117 -148h103z" />
    <glyph glyph-name="dieresisacute" unicode="&#x385;" horiz-adv-x="410" 
d="M433 639h-98v117h98v-117zM185 773h124l-103 -157h-104zM75 639h-98v117h98v-117z" />
    <glyph glyph-name="dieresisgrave" unicode="&#x1fed;" horiz-adv-x="410" 
d="M433 639h-99v117h99v-117zM225 773l82 -157h-103l-103 157h124zM75 639h-98v117h98v-117z" />
    <glyph glyph-name="dollar.denominator" unicode="&#xe11b;" horiz-adv-x="334" 
d="M303 123c0 -71 -36 -113 -98 -126v-79h-82v75c-38 1 -72 8 -90 13v103h64l7 -40c12 -1 27 -1 40 -1c47 0 65 18 65 51c0 26 -13 40 -45 60l-57 35c-51 31 -83 61 -83 123c0 63 34 101 99 113v76h82v-73c39 -3 73 -10 88 -14v-99h-64l-6 36c-15 2 -26 2 -42 2
c-42 0 -63 -11 -63 -42c0 -23 12 -36 43 -54l53 -31c58 -34 89 -68 89 -128z" />
    <glyph glyph-name="dollar.numerator" unicode="&#xe131;" horiz-adv-x="334" 
d="M303 427c0 -71 -36 -113 -98 -126v-80h-82v75c-38 2 -72 9 -90 14v102h64l7 -40c12 0 27 -1 40 -1c47 0 65 19 65 52c0 26 -13 38 -45 58l-56 34c-52 31 -84 63 -84 126c0 62 34 100 99 112v77h82v-73c39 -3 73 -10 88 -14v-99h-64l-6 36c-15 2 -26 2 -42 2
c-42 0 -63 -12 -63 -42c0 -23 12 -38 44 -56l52 -29c59 -33 89 -68 89 -128z" />
    <glyph glyph-name="dollar.taboldstyle" unicode="&#xe42f;" horiz-adv-x="458" 
d="M400 150c0 -82 -41 -137 -123 -154v-95h-98v90c-47 3 -90 12 -112 18v129h73l9 -53c17 -1 37 -1 62 -1c54 0 72 19 72 63c0 37 -23 57 -79 96l-37 26c-73 52 -110 92 -110 166c0 75 40 124 122 139v89h98v-84c46 -4 88 -13 110 -19v-120h-73l-10 46c-17 0 -36 1 -64 1
c-42 0 -67 -11 -67 -50c0 -32 14 -49 65 -83l40 -27c82 -56 122 -96 122 -177z" />
    <glyph glyph-name="dollar.inferior" unicode="&#xf6e3;" horiz-adv-x="334" 
d="M303 124c0 -71 -36 -113 -98 -126v-79h-82v75c-38 1 -72 8 -90 13v103h64l7 -40c12 -1 27 -1 40 -1c47 0 65 18 65 49c0 28 -13 41 -45 60l-58 35c-51 32 -82 62 -82 125s34 100 99 112v77h82v-73c39 -3 73 -10 88 -14v-99h-64l-6 36c-15 2 -31 2 -42 2
c-42 0 -63 -12 -63 -42c0 -23 12 -36 43 -54l53 -31c58 -34 89 -68 89 -128z" />
    <glyph glyph-name="dollar.superior" unicode="&#xf6e4;" horiz-adv-x="334" 
d="M306 425c0 -70 -36 -112 -98 -125v-80h-82v75c-38 2 -72 9 -90 14v102h64l7 -40c19 -1 27 -1 40 -1c47 0 65 19 65 52c0 26 -13 41 -45 60l-57 34c-52 31 -83 61 -83 124c0 62 34 100 99 112v76h82v-73c39 -2 73 -9 88 -13v-99h-64l-6 36c-15 2 -26 2 -42 2
c-42 0 -63 -12 -63 -43c0 -22 11 -35 42 -53l54 -32c58 -34 89 -67 89 -128z" />
    <glyph glyph-name="dotlessj" unicode="&#xf6be;" horiz-adv-x="237" 
d="M181 -68c0 -99 -33 -146 -126 -146c-32 0 -62 5 -76 9v80c14 -1 28 -1 46 -1c34 0 41 11 41 58v530l-40 5v91h155v-626z" />
    </font>
</defs>
</svg>
