<?xml version="1.0" standalone="no"?>
<!DOCTYPE svg PUBLIC "-//W3C//DTD SVG 1.1//EN" "http://www.w3.org/Graphics/SVG/1.1/DTD/svg11.dtd" >
<svg xmlns="http://www.w3.org/2000/svg" xmlns:xlink="http://www.w3.org/1999/xlink" version="1.1">
<metadata>
Created by FontForge 20141024 at Thu Apr 30 19:16:32 2015
 By System Administrator
Copyright (c) 2007 Monotype Imaging Inc. Soho is designed by Sebastian Lester. All rights reserved.
</metadata>
<defs>
<font id="SohoPro-ExtraLight" horiz-adv-x="520" >
  <font-face 
    font-family="Soho Pro"
    font-weight="300"
    font-stretch="normal"
    units-per-em="1000"
    panose-1="2 4 2 3 3 5 6 2 2 4"
    ascent="772"
    descent="-228"
    x-height="536"
    cap-height="743"
    bbox="-77 -228 1289 1146"
    underline-thickness="30"
    underline-position="-46"
    stemh="36"
    stemv="41"
    unicode-range="U+000D-FB16"
  />
<missing-glyph horiz-adv-x="211" 
 />
    <glyph glyph-name="f_b" unicode="fb" horiz-adv-x="879" 
d="M835 249c0 -188 -70 -261 -230 -261c-41 0 -89 1 -173 9v742c-48 5 -104 8 -138 8c-86 0 -110 -19 -110 -128v-83h173v-35h-173v-465l62 -1v-35h-165v35l62 1v465l-110 4v31h110v83c0 128 38 162 147 162c38 0 86 -3 142 -10h40v-250c52 21 112 30 151 30
c147 0 212 -75 212 -256v-46zM473 30c54 -4 98 -6 133 -6c131 0 187 56 187 226v46c0 161 -52 218 -174 218c-32 0 -96 -7 -146 -28v-456z" />
    <glyph glyph-name="f_f_b" unicode="ffb" horiz-adv-x="1209" 
d="M1148 249c0 -188 -70 -261 -230 -261c-41 0 -88 1 -173 9v743c-49 4 -102 7 -139 7c-86 0 -110 -19 -110 -128v-83h175v-35h-175v-465l62 -1v-35h-165v35l62 1v465h-265v-465l62 -1v-35h-165v35l62 1v465l-116 2v33h116v83c0 103 19 161 132 161c28 0 66 -5 87 -9v-30
c-20 2 -57 4 -83 4c-80 0 -95 -29 -95 -126v-83h265v83c0 128 38 162 147 162c39 0 93 -5 143 -10h41v-250c49 21 111 30 150 30c147 0 212 -75 212 -256v-46zM1107 250v46c0 161 -53 218 -175 218c-32 0 -96 -7 -146 -28v-456c53 -4 98 -6 133 -6c131 0 188 56 188 226z
" />
    <glyph glyph-name="f_h" unicode="fh" horiz-adv-x="956" 
d="M900 0h-97v337c0 134 -39 176 -137 176c-66 0 -136 -26 -185 -52v-425l56 -1v-35h-154v35l57 1v704c-44 4 -92 7 -139 7c-88 0 -112 -19 -112 -128v-83h175v-35h-175v-465l62 -1v-35h-165v35l62 1v465l-115 3v32h115v83c0 129 40 162 150 162c50 0 102 -5 142 -10h41
v-275c47 24 114 54 191 54c125 0 172 -65 172 -212v-302l56 -1v-35z" />
    <glyph glyph-name="f_f_h" unicode="ffh" horiz-adv-x="1268" 
d="M1205 0h-98v337c0 134 -39 176 -136 176c-67 0 -137 -26 -186 -52v-425l57 -1v-35h-154v35l56 1v704c-38 4 -101 7 -138 7c-88 0 -112 -19 -112 -128v-83h175v-35h-175v-465l62 -1v-35h-164v35l62 1v465h-265v-465l62 -1v-35h-165v35l62 1v465l-115 3v32h115v83
c0 103 19 161 132 161c28 0 68 -5 87 -9v-30c-17 1 -57 4 -84 4c-79 0 -94 -29 -94 -126v-83h265v83c0 129 39 162 149 162c38 0 101 -5 142 -10h40v-275c47 24 114 54 192 54c125 0 171 -65 171 -212v-302l57 -1v-35z" />
    <glyph glyph-name="f_j" unicode="fj" horiz-adv-x="609" 
d="M521 -80c0 -90 -22 -135 -107 -135c-15 0 -37 2 -62 5v31c26 -2 44 -2 59 -2c57 0 69 27 69 101v581h-291v-465l62 -1v-35h-165v35l62 1v465l-115 3v32h115v83c0 103 20 161 132 161c28 0 68 -5 87 -9v-30c-17 1 -57 4 -84 4c-79 0 -94 -29 -94 -126v-83h332v-616z
M521 645h-42v126h42v-126z" />
    <glyph glyph-name="f_f_j" unicode="ffj" horiz-adv-x="903" 
d="M812 -80c0 -90 -22 -135 -107 -135c-16 0 -38 2 -62 5v31c26 -2 44 -2 58 -2c58 0 70 27 70 101v581h-274v-465l62 -1v-35h-165v35l62 1v465h-272v-465l62 -1v-35h-165v35l62 1v465l-110 3v32h110v83c0 103 20 161 132 161c28 0 70 -5 89 -9v-30c-18 1 -60 4 -86 4
c-79 0 -94 -31 -94 -126v-83h272v83c0 103 19 161 131 161c28 0 69 -5 88 -9v-30c-18 1 -57 4 -84 4c-79 0 -94 -29 -94 -126v-83h315v-616zM812 645h-42v126h42v-126z" />
    <glyph glyph-name="f_f_k" unicode="ffk" horiz-adv-x="1185" 
d="M1147 0h-79l-262 277v-277h-98v35l57 1v703c-48 4 -104 8 -152 8c-88 0 -112 -19 -112 -128v-83h175v-35h-175v-465l62 -1v-35h-165v35l62 1v465h-271v-465l62 -1v-35h-165v35l62 1v465l-115 3v32h115v83c0 103 20 161 132 161c28 0 68 -5 87 -9v-30c-17 1 -58 4 -84 4
c-79 0 -94 -29 -94 -126v-83h271v83c0 129 40 162 149 162c52 0 108 -5 156 -10h41v-482l260 247h79v-35l-60 -2l-231 -216l235 -247l58 -1v-35z" />
    <glyph glyph-name="f_k" unicode="fk" horiz-adv-x="875" 
d="M839 0h-79l-262 277v-277h-97v35l56 1v703c-49 5 -103 8 -156 8c-88 0 -112 -19 -112 -128v-83h175v-35h-175v-465l62 -1v-35h-165v35l62 1v465l-115 3v32h115v83c0 129 40 162 150 162c56 0 109 -5 159 -10h41v-482l261 247h79v-35l-61 -2l-231 -216l236 -247l57 -1v-35
z" />
    <glyph glyph-name="f_i" unicode="fi" horiz-adv-x="599" 
d="M533 0h-154v35l57 1v465h-251v-465l62 -1v-35h-165v35l62 1v465l-111 3v32h111v83c0 106 19 161 132 161c27 0 70 -5 89 -9v-30c-18 1 -61 4 -86 4c-79 0 -94 -29 -94 -126v-83h292v-500l56 -1v-35zM477 646h-42v125h42v-125z" />
    <glyph glyph-name="f_l" unicode="fl" horiz-adv-x="595" 
d="M554 0h-154v35l57 1v704c-27 3 -93 7 -140 7c-105 0 -133 -14 -133 -128v-83h177v-35h-177v-465l62 -1v-35h-165v35l62 1v465l-110 3v32h110v83c0 134 41 162 170 162c50 0 117 -6 144 -9h41v-736l56 -1v-35z" />
    <glyph glyph-name="f_f" unicode="ff" horiz-adv-x="710" 
d="M668 501h-177v-465l62 -1v-35h-165v35l62 1v465h-266v-465l62 -1v-35h-165v35l62 1v465l-110 3v32h110v83c0 103 20 161 132 161c28 0 70 -5 89 -9v-30c-18 1 -60 4 -86 4c-79 0 -94 -30 -94 -126v-83h266v83c0 103 20 161 132 161c28 0 70 -5 89 -9v-30
c-18 1 -60 4 -86 4c-79 0 -94 -29 -94 -126v-83h177v-35z" />
    <glyph glyph-name="f_f_i" unicode="ffi" horiz-adv-x="897" 
d="M859 0h-154v35l57 1v465h-271v-465l62 -1v-35h-164v35l62 1v465h-267v-465l62 -1v-35h-165v35l62 1v465l-110 3v32h110v83c0 105 20 161 132 161c28 0 70 -5 89 -9v-30c-18 1 -60 4 -86 4c-79 0 -94 -29 -94 -126v-83h267v83c0 105 19 161 131 161c28 0 71 -5 90 -9v-30
c-19 1 -61 4 -87 4c-78 0 -94 -29 -94 -126v-83h312v-500l56 -1v-35zM803 646h-42v125h42v-125z" />
    <glyph glyph-name="f_f_l" unicode="ffl" horiz-adv-x="907" 
d="M861 0h-154v35l57 1v704c-21 1 -96 7 -140 7c-109 0 -133 -19 -133 -128v-83h178v-35h-178v-465l62 -1v-35h-165v35l62 1v465h-266v-465l62 -1v-35h-165v35l62 1v465l-110 3v32h110v83c0 109 22 161 134 161c30 0 72 -6 87 -9v-30c-18 1 -57 4 -84 4
c-79 0 -96 -25 -96 -126v-83h266v83c0 129 36 162 171 162c46 0 122 -7 143 -10h40v-735l57 -1v-35z" />
    <glyph glyph-name=".notdef" horiz-adv-x="211" 
 />
    <glyph glyph-name="space" unicode=" " horiz-adv-x="211" 
 />
    <glyph glyph-name="M" unicode="M" horiz-adv-x="809" 
d="M767 0h-162v35l61 1v550c0 37 1 74 1 110h-1c-17 -30 -35 -60 -53 -91l-183 -296h-52l-181 296c-18 30 -36 61 -53 91h-2c1 -36 2 -73 2 -110v-550l60 -1v-35h-161v35l59 1v671l-59 1v35h114l206 -340c14 -22 28 -45 40 -66h2c13 21 26 44 41 66l207 340h114v-35l-60 -1
v-671l60 -1v-35z" />
    <glyph glyph-name="N" unicode="N" horiz-adv-x="715" 
d="M672 708l-60 -1v-709h-58l-364 619c-17 28 -34 56 -48 84h-2c1 -33 2 -67 2 -100v-565l61 -1v-35h-160v35l60 1v671l-60 1v35h118l364 -613c16 -27 32 -57 48 -86h1c-1 34 -2 69 -2 104v559l-60 1v35h160v-35z" />
    <glyph glyph-name="O" unicode="O" horiz-adv-x="653" 
d="M601 347c0 -258 -104 -359 -275 -359c-170 0 -274 101 -274 359v49c0 259 105 358 274 358c170 0 275 -99 275 -358v-49zM559 347v49c0 248 -98 321 -233 321s-232 -73 -232 -321v-49c0 -248 98 -322 232 -322c135 0 233 74 233 322z" />
    <glyph glyph-name="R" unicode="R" horiz-adv-x="647" 
d="M625 0h-80l-196 317c-24 -2 -51 -3 -69 -3c-46 0 -103 1 -136 2v-280l61 -1v-35h-162v35l60 1v671l-60 1v35c97 0 149 7 236 7c177 0 275 -56 275 -208v-10c0 -121 -51 -184 -160 -207l178 -289l53 -1v-35zM512 532v10c0 127 -76 171 -233 171c-40 0 -94 -4 -135 -6v-353
c39 -1 90 -2 136 -2c162 0 232 53 232 180z" />
    <glyph glyph-name="S" unicode="S" horiz-adv-x="542" 
d="M496 182c0 -134 -111 -194 -234 -194c-76 0 -156 8 -199 15v113h34l3 -83c46 -5 105 -8 162 -8c96 0 192 42 192 157c0 86 -47 121 -163 176l-74 35c-103 49 -170 99 -170 199c0 115 88 163 229 163c78 0 153 -9 196 -16v-112h-34l-4 83c-37 4 -98 8 -157 8
c-114 0 -188 -31 -188 -126c0 -80 52 -118 147 -164l74 -36c124 -60 186 -103 186 -210z" />
    <glyph glyph-name="T" unicode="T" horiz-adv-x="612" 
d="M579 627h-34l-3 79h-215v-670l70 -2v-34h-182v34l70 2v670h-215l-3 -79h-34v116h546v-116z" />
    <glyph glyph-name="U" unicode="U" horiz-adv-x="720" 
d="M677 708l-64 -1v-378c0 -224 -69 -339 -253 -339s-253 115 -253 339v378l-64 1v35h166v-35l-60 -1v-375c0 -210 50 -304 211 -304s212 94 212 304v375l-61 1v35h166v-35z" />
    <glyph glyph-name="a" unicode="a" 
d="M491 0h-95v42c-42 -24 -108 -54 -186 -54c-110 0 -162 50 -162 157v9c0 132 79 162 243 162h103v52c0 116 -27 146 -159 146c-26 0 -60 -1 -112 -5l-3 -65h-34v92c59 7 105 14 151 14c164 0 198 -50 198 -182v-332l56 -1v-35zM394 74v209h-103c-146 0 -202 -22 -202 -129
v-11c0 -89 45 -122 127 -122c72 0 141 31 178 53z" />
    <glyph glyph-name="b" unicode="b" horiz-adv-x="531" 
d="M479 249c0 -193 -70 -261 -230 -261c-41 0 -89 1 -173 9v738l-57 2v35h98v-252c54 22 111 31 150 31c146 0 212 -67 212 -256v-46zM437 250v46c0 170 -52 218 -174 218c-33 0 -96 -7 -146 -28v-456c53 -4 98 -6 132 -6c132 0 188 51 188 226z" />
    <glyph glyph-name="c" unicode="c" horiz-adv-x="452" 
d="M408 2c-53 -9 -94 -14 -141 -14c-147 0 -213 65 -213 263v36c0 193 69 263 213 263c47 0 90 -5 141 -14v-95h-33l-4 66c-45 6 -76 7 -99 7c-117 0 -177 -45 -177 -227v-36c0 -188 58 -228 177 -228c28 0 68 3 136 12v-33z" />
    <glyph glyph-name="d" unicode="d" horiz-adv-x="553" 
d="M512 0h-96v35c-38 -21 -97 -47 -168 -47c-133 0 -194 74 -194 259v40c0 196 76 263 224 263c32 0 73 -2 137 -10v195l-64 1v35h105v-735l56 -1v-35zM415 69v436c-59 7 -108 9 -135 9c-126 0 -185 -51 -185 -227v-40c0 -165 47 -223 159 -223c64 0 121 24 161 45z" />
    <glyph glyph-name="e" unicode="e" horiz-adv-x="533" 
d="M485 257h-392v-14c0 -154 53 -219 198 -219c58 0 132 8 179 15v-34c-40 -8 -108 -17 -180 -17c-174 0 -238 79 -238 263v35c0 166 62 264 217 264c153 0 216 -94 216 -269v-24zM443 291v9c0 128 -41 213 -174 213c-139 0 -176 -92 -176 -214v-8h350z" />
    <glyph glyph-name="f" unicode="f" horiz-adv-x="398" 
d="M361 501h-177v-465l62 -1v-35h-164v35l62 1v465l-111 2v33h111v83c0 103 19 161 131 161c28 0 68 -5 89 -9v-30c-21 2 -60 4 -85 4c-80 0 -95 -29 -95 -126v-83h177v-35z" />
    <glyph glyph-name="h" unicode="h" horiz-adv-x="604" 
d="M560 0h-97v337c0 134 -39 176 -137 176c-66 0 -136 -26 -185 -52v-425l56 -1v-35h-154v35l57 1v699l-57 1v35h98v-275c47 24 114 54 191 54c125 0 172 -65 172 -212v-302l56 -1v-35z" />
    <glyph glyph-name="i" unicode="i" horiz-adv-x="245" 
d="M199 0h-154v35l57 1v463l-57 2v35h98v-500l56 -1v-35zM143 646h-41v125h41v-125z" />
    <glyph glyph-name="l" unicode="l" horiz-adv-x="245" 
d="M199 0h-154v35l57 1v699l-57 1v35h98v-735l56 -1v-35z" />
    <glyph glyph-name="m" unicode="m" horiz-adv-x="853" 
d="M809 0h-96v361c0 94 -14 153 -109 153c-46 0 -105 -18 -166 -57c6 -23 10 -50 10 -96v-361h-42v361c0 99 -10 153 -105 153c-47 0 -104 -21 -160 -55v-423l55 -1v-35h-152v35l56 1v463l-57 2v35h98v-43c58 37 115 57 167 57c65 0 101 -23 121 -62c64 43 129 62 179 62
c132 0 146 -91 146 -189v-325l55 -1v-35z" />
    <glyph glyph-name="n" unicode="n" horiz-adv-x="600" 
d="M557 0h-96v338c0 132 -35 176 -133 176c-60 0 -126 -24 -189 -56v-422l55 -1v-35h-152v35l56 1v463l-56 2v35h97v-44c57 30 122 58 192 58c133 0 171 -69 171 -212v-302l55 -1v-35z" />
    <glyph glyph-name="o" unicode="o" horiz-adv-x="543" 
d="M489 252c0 -176 -65 -264 -218 -264s-217 88 -218 264v34c0 176 65 264 218 264s218 -88 218 -264v-34zM449 252v34c0 161 -53 227 -178 227c-124 0 -176 -66 -177 -227v-34c1 -161 52 -228 177 -228s177 68 178 228z" />
    <glyph glyph-name="r" unicode="r" horiz-adv-x="367" 
d="M352 513c-48 0 -136 -8 -212 -54v-423l63 -1v-35h-160v35l56 1v463l-56 2v35h96v-43c77 50 164 57 213 57v-37z" />
    <glyph glyph-name="s" unicode="s" horiz-adv-x="460" 
d="M413 129c0 -72 -48 -141 -189 -141c-69 0 -136 10 -170 19v94h34l3 -67c35 -5 80 -11 132 -11c109 0 149 47 149 106c0 60 -32 81 -134 125l-37 16c-100 41 -153 78 -153 153c0 86 64 127 189 127c59 0 123 -10 154 -17v-89h-33l-3 61c-30 4 -79 9 -117 9
c-99 0 -149 -24 -149 -91c0 -58 40 -79 129 -118l37 -16c113 -49 158 -80 158 -160z" />
    <glyph glyph-name="t" unicode="t" horiz-adv-x="403" 
d="M365 -3c-28 -5 -68 -9 -94 -9c-85 0 -111 35 -111 130v383l-124 3v32h124v148h41v-148h164v-35h-164v-381c0 -77 13 -98 74 -98c23 0 59 1 90 5v-30z" />
    <glyph glyph-name="v" unicode="v" horiz-adv-x="585" 
d="M551 501l-53 -1l-178 -500h-57l-178 500l-52 1v35h150v-34l-54 -1l123 -354c14 -41 27 -78 40 -118h1c13 40 26 77 40 118l122 354l-53 1v34h149v-35z" />
    <glyph glyph-name="D" unicode="D" horiz-adv-x="660" 
d="M607 344c0 -242 -95 -352 -312 -352c-105 0 -156 8 -252 8v35l59 2v669l-59 2v35c96 0 140 7 252 7c214 0 312 -109 312 -351v-55zM565 344v55c0 234 -95 313 -273 313c-53 0 -103 -2 -148 -5v-670c42 -3 98 -7 148 -7c178 0 273 81 273 314z" />
    <glyph glyph-name="J" unicode="J" horiz-adv-x="255" 
d="M207 708l-60 -1v-759c0 -93 -18 -154 -125 -154c-20 0 -48 2 -64 5v32c23 0 42 -1 62 -1c80 0 86 43 86 118v759l-59 1v35h160v-35z" />
    <glyph glyph-name="K" unicode="K" horiz-adv-x="628" 
d="M593 0h-82l-363 370v-334l60 -1v-35h-161v35l59 1v671l-59 1v35h161v-35l-60 -1v-320l363 356h79v-35l-57 -1l-336 -328l339 -343l57 -1v-35z" />
    <glyph glyph-name="P" unicode="P" horiz-adv-x="600" 
d="M554 529c0 -153 -94 -215 -275 -215c-38 0 -84 1 -135 3v-281l64 -1v-35h-165v35l60 1v671l-60 1v35c91 0 145 7 239 7c181 0 272 -53 272 -207v-14zM512 529v14c0 127 -68 170 -230 170c-56 0 -105 -4 -138 -6v-353c52 -2 97 -2 135 -2c161 0 233 51 233 177z" />
    <glyph glyph-name="Q" unicode="Q" horiz-adv-x="654" 
d="M602 347c0 -249 -97 -349 -254 -358v-62c0 -60 9 -88 83 -88h84v-29c-19 -2 -64 -6 -93 -6c-91 0 -114 40 -115 123v62c-157 8 -254 109 -254 358v49c0 259 105 358 274 358c170 0 275 -99 275 -358v-49zM560 347v49c0 248 -98 321 -233 321s-232 -73 -232 -321v-49
c0 -248 98 -322 232 -322c135 0 233 74 233 322z" />
    <glyph glyph-name="W" unicode="W" horiz-adv-x="943" 
d="M911 708l-59 -1l-151 -707h-64l-140 492c-8 30 -17 64 -25 94h-2c-7 -30 -16 -64 -24 -94l-140 -492h-64l-152 707l-58 1v35h161v-34l-60 -2l118 -557c7 -40 15 -75 23 -116h2c10 38 19 75 28 115l135 471h65l135 -472c9 -40 19 -78 27 -114h3c8 40 16 76 23 116l117 557
l-59 2v34h161v-35z" />
    <glyph glyph-name="X" unicode="X" horiz-adv-x="695" 
d="M663 0h-158v34l52 2l-211 301l-210 -301l52 -2v-34h-156v35l55 1l234 341l-229 330l-59 1v35h160v-34l-51 -2l208 -293l204 293l-52 2v34h159v-35l-59 -1l-229 -332l234 -339l56 -1v-35z" />
    <glyph glyph-name="Y" unicode="Y" horiz-adv-x="636" 
d="M604 708l-57 -1l-208 -400v-270l67 -1v-36h-176v36l67 1v269l-209 401l-56 1v35h154v-34l-52 -2l138 -262c16 -31 32 -66 46 -93h1c14 27 29 61 45 93l138 262l-52 2v34h154v-35z" />
    <glyph glyph-name="Z" unicode="Z" horiz-adv-x="609" 
d="M557 0h-506v44l445 662h-389l-3 -79h-34v116h472v-44l-445 -662h423l4 81h33v-118z" />
    <glyph glyph-name="w" unicode="w" horiz-adv-x="883" 
d="M845 501l-51 -1l-125 -500h-55l-133 356c-14 36 -28 75 -39 108h-3c-11 -33 -25 -72 -39 -108l-133 -356h-55l-125 500l-51 1v35h147v-34l-54 -1l87 -355c9 -37 17 -74 24 -109h4c11 34 22 71 37 109l134 353h53l133 -353c16 -42 26 -72 38 -109h3c8 38 15 66 25 109
l86 355l-54 1v34h146v-35z" />
    <glyph glyph-name="x" unicode="x" horiz-adv-x="576" 
d="M540 0h-75l-179 240l-178 -240h-73v35l51 1l176 239l-164 225l-58 1v35h82l167 -225l165 225h78v-35l-56 -1l-162 -223l175 -241l51 -1v-35z" />
    <glyph glyph-name="y" unicode="y" horiz-adv-x="600" 
d="M571 501l-63 -1l-192 -537c-44 -124 -76 -178 -181 -178c-28 0 -58 3 -83 6v32c36 -2 59 -3 82 -3c73 0 107 27 143 149l9 31l-193 500l-62 1v35h160v-34l-55 -1l130 -344c14 -36 26 -69 39 -104h2c11 33 23 69 35 104l122 344l-53 1v34h160v-35z" />
    <glyph glyph-name="z" unicode="z" horiz-adv-x="475" 
d="M427 0h-379v43l332 458h-282l-3 -57h-34v92h366v-41l-334 -460h297l4 62h33v-97z" />
    <glyph glyph-name="j" unicode="j" horiz-adv-x="213" 
d="M143 -81c0 -91 -22 -134 -108 -134c-15 0 -40 1 -62 4v31c26 -1 44 -2 59 -2c58 0 70 28 70 101v580l-56 2v35h97v-617zM143 645h-42v126h42v-126z" />
    <glyph glyph-name="k" unicode="k" horiz-adv-x="510" 
d="M197 0h-155v35l57 1v699l-57 1v35h98v-482l259 247h81v-35l-61 -2l-230 -216l235 -247l57 -1v-35h-81l-260 277v-241l57 -1v-35z" />
    <glyph glyph-name="p" unicode="p" horiz-adv-x="557" 
d="M197 -208h-154v35l57 1v671l-57 2v35h96v-40c43 25 111 54 178 54c134 0 186 -75 186 -259v-39c0 -190 -78 -264 -228 -264c-29 0 -74 2 -135 10v-170l57 -1v-35zM463 252v39c0 163 -38 222 -151 222c-61 0 -124 -26 -172 -51v-428c60 -8 106 -11 135 -11
c126 0 188 59 188 229z" />
    <glyph glyph-name="A" unicode="A" horiz-adv-x="713" 
d="M694 0h-156v34l55 2l-84 247h-298l-84 -247l55 -2v-34h-155v35l55 1l236 671l-64 2v35h135l249 -708l56 -1v-35zM496 321l-100 280c-11 37 -23 74 -34 109h-4c-11 -35 -22 -71 -34 -109l-100 -280h272z" />
    <glyph glyph-name="zero" unicode="0" horiz-adv-x="611" 
d="M550 327c0 -245 -94 -339 -245 -339c-150 0 -244 94 -244 339v88c0 245 94 339 244 339c151 0 245 -94 245 -339v-88zM509 327v88c0 231 -87 303 -204 303c-116 0 -203 -72 -203 -303v-88c0 -231 87 -303 203 -303c117 0 204 72 204 303z" />
    <glyph glyph-name="one" unicode="1" horiz-adv-x="430" 
d="M384 0h-332v35l146 2v667l-146 -53v39l154 57h33v-710l145 -2v-35z" />
    <glyph glyph-name="two" unicode="2" horiz-adv-x="572" 
d="M505 0h-439v51c0 188 55 240 230 335c145 81 175 116 175 202c0 94 -65 130 -208 130c-47 0 -115 -7 -153 -12l-3 -89h-34v118c18 4 115 19 191 19c169 0 248 -52 248 -166c0 -96 -39 -146 -193 -233c-170 -94 -213 -135 -213 -304v-13h362l3 93h34v-131z" />
    <glyph glyph-name="three" unicode="3" horiz-adv-x="565" 
d="M503 192c0 -134 -71 -204 -248 -204c-71 0 -161 10 -189 15v125h34l3 -97c36 -4 101 -7 152 -7c154 0 207 56 207 168v31c0 67 -14 147 -148 147h-224v36h224c133 0 148 75 148 148v15c0 102 -47 149 -208 149c-49 0 -114 -4 -150 -7l-3 -90h-34v119c23 4 117 14 188 14
c181 0 249 -58 249 -185v-15c0 -74 -23 -143 -111 -166c92 -24 110 -97 110 -165v-31z" />
    <glyph glyph-name="four" unicode="4" horiz-adv-x="618" 
d="M575 218h-125v-182l70 -1v-35h-181v35l70 1v182h-369v41l362 486h48v-490h125v-37zM409 255v436l-325 -436h325z" />
    <glyph glyph-name="five" unicode="5" horiz-adv-x="571" 
d="M510 205c0 -143 -67 -216 -252 -216c-89 0 -173 13 -200 19v114h34l3 -86c40 -5 97 -10 162 -10c166 0 211 60 211 179v24c0 134 -74 168 -226 168h-167l32 346h372v-123h-34l-3 86h-299l-25 -272h125c173 0 267 -48 267 -205v-24z" />
    <glyph glyph-name="six" unicode="6" horiz-adv-x="614" 
d="M554 220c0 -173 -118 -232 -244 -232c-142 0 -249 66 -249 299v191c0 177 59 277 264 277c78 0 173 -13 200 -19v-115h-34l-3 86c-38 5 -109 11 -162 11c-183 0 -224 -89 -224 -237v-60c70 19 152 28 210 28c119 0 242 -33 242 -197v-32zM512 220v31
c0 138 -96 163 -201 163c-56 0 -134 -7 -209 -26v-105c0 -194 85 -259 208 -259c120 0 202 59 202 196z" />
    <glyph glyph-name="seven" unicode="7" horiz-adv-x="543" 
d="M504 700l-333 -700h-46l339 706h-374l-3 -86h-33v123h450v-43z" />
    <glyph glyph-name="eight" unicode="8" horiz-adv-x="628" 
d="M566 208c0 -173 -87 -220 -249 -220h-6c-162 0 -249 48 -249 221v8c0 90 29 149 106 171c-75 21 -104 85 -104 165v9c0 142 85 192 247 192h6c161 0 247 -50 247 -192v-9c0 -81 -29 -144 -104 -165c76 -22 106 -80 106 -170v-10zM524 208v10c0 87 -26 152 -134 152h-152
c-108 0 -135 -66 -135 -153v-8c0 -143 66 -185 208 -185h6c141 0 207 41 207 184zM523 553v9c0 117 -66 156 -206 156h-6c-141 0 -206 -39 -206 -156v-9c0 -76 25 -146 133 -146h152c107 0 133 69 133 146z" />
    <glyph glyph-name="nine" unicode="9" horiz-adv-x="614" 
d="M554 264c0 -177 -60 -277 -265 -277c-78 0 -173 13 -200 19v116h34l3 -87c38 -4 109 -11 162 -11c183 0 224 89 224 237v60c-70 -19 -152 -28 -210 -28c-119 0 -241 33 -241 197v32c0 173 117 233 243 233c142 0 250 -67 250 -299v-192zM512 354v105
c0 194 -84 259 -208 259c-119 0 -202 -59 -202 -196v-30c0 -139 96 -164 202 -164c55 0 133 7 208 26z" />
    <glyph glyph-name="comma" unicode="," horiz-adv-x="203" 
d="M151 134l-79 -218h-38l71 218h46z" />
    <glyph glyph-name="hyphen" unicode="-" horiz-adv-x="388" 
d="M315 270h-242v36h242v-36z" />
    <glyph glyph-name="period" unicode="." horiz-adv-x="171" 
d="M106 0h-41v134h41v-134z" />
    <glyph glyph-name="question" unicode="?" horiz-adv-x="434" 
d="M174 0h-42v120h42v-120zM382 614c0 -71 -21 -117 -101 -195c-97 -93 -108 -119 -108 -192v-35h-41v35c0 78 13 116 113 211c79 75 95 112 95 176v4c0 89 -62 109 -156 109c-32 0 -70 -3 -107 -8l-4 -77h-34v105c48 10 106 16 148 16c112 0 195 -30 195 -145v-4z" />
    <glyph glyph-name="at" unicode="@" horiz-adv-x="805" 
d="M761 386c0 -170 -73 -323 -344 -323c-132 0 -187 45 -187 156c0 21 2 50 5 73c17 144 88 186 193 186c36 0 82 -5 129 -15l-38 -357c158 29 207 147 207 280c0 142 -83 234 -278 234c-212 0 -320 -98 -350 -329c-4 -28 -6 -64 -6 -98c0 -187 105 -272 293 -272
c60 0 125 6 156 11v-27c-32 -5 -98 -13 -158 -13c-206 0 -325 98 -325 303c0 35 3 72 7 100c32 245 149 356 383 356c218 0 313 -109 313 -265zM514 436c-21 3 -59 7 -85 7c-83 0 -140 -28 -156 -153c-3 -28 -5 -51 -5 -72c0 -90 43 -122 149 -122c30 0 44 1 62 3z" />
    <glyph glyph-name="colon" unicode=":" horiz-adv-x="170" 
d="M109 0h-41v134h41v-134zM109 543v-134h-41v134h41z" />
    <glyph glyph-name="semicolon" unicode=";" horiz-adv-x="198" 
d="M136 134l-80 -218h-38l71 218h47zM133 408h-42v135h42v-135z" />
    <glyph glyph-name="ampersand" unicode="&#x26;" horiz-adv-x="686" 
d="M661 388l-69 -2c0 -119 -14 -217 -59 -286l90 -90v-10h-53l-63 65c-48 -49 -129 -77 -232 -77c-117 0 -226 41 -226 184v4c1 83 30 139 148 198l-13 13c-72 72 -106 119 -106 208v3c0 115 80 157 205 157c83 0 161 -9 197 -15v-123h-33l-4 91c-43 5 -97 10 -160 10
c-92 0 -164 -24 -164 -120v-3c0 -80 31 -113 105 -187l280 -280c35 59 49 149 49 258l-70 2v34h178v-34zM480 92l-256 255c-101 -48 -132 -88 -133 -171v-4c0 -110 91 -148 184 -148c92 0 162 24 205 68z" />
    <glyph glyph-name="exclam" unicode="!" horiz-adv-x="205" 
d="M123 0h-41v119h41v-119zM124 756l-3 -566h-37l-3 566h43z" />
    <glyph glyph-name="B" unicode="B" horiz-adv-x="623" 
d="M572 196c0 -150 -97 -204 -283 -204c-110 0 -159 8 -246 8v35l59 2v669l-59 2v35c85 0 139 6 245 6c189 0 280 -43 280 -185v-9c0 -67 -27 -144 -139 -166c112 -22 143 -98 143 -177v-16zM530 196v16c0 79 -29 159 -198 159h-188v-335c40 -3 83 -7 145 -7
c165 0 241 43 241 167zM526 555v9c0 117 -74 148 -238 148c-57 0 -100 -2 -144 -5v-299h188c168 0 194 77 194 147z" />
    <glyph glyph-name="u" unicode="u" horiz-adv-x="601" 
d="M559 0h-98v45c-58 -31 -120 -57 -195 -57c-130 0 -167 73 -167 212v300l-57 1v35h98v-336c0 -133 35 -177 133 -177c65 0 128 26 188 57v420l-56 1v35h97v-500l57 -1v-35z" />
    <glyph glyph-name="V" unicode="V" horiz-adv-x="733" 
d="M701 708l-57 -1l-249 -707h-58l-249 707l-56 1v35h160v-34l-59 -2l197 -565c12 -37 25 -74 36 -109h1c12 35 24 73 36 109l197 565l-59 2v34h160v-35z" />
    <glyph glyph-name="C" unicode="C" horiz-adv-x="563" 
d="M510 2c-20 -3 -90 -14 -172 -14c-185 0 -285 98 -285 360v47c0 262 100 359 285 359c82 0 154 -10 172 -13v-113h-34l-3 81c-31 3 -83 8 -135 8c-168 0 -244 -91 -244 -322v-47c0 -231 76 -322 244 -322c55 0 106 4 135 7l3 82h34v-113z" />
    <glyph glyph-name="slash" unicode="/" horiz-adv-x="393" 
d="M361 743l-294 -743h-40l294 743h40z" />
    <glyph glyph-name="E" unicode="E" horiz-adv-x="565" 
d="M519 0h-476v35l59 1v671l-59 1v35h476v-116h-35l-3 79h-337v-297h348v-38h-348v-334h337l3 80h35v-117z" />
    <glyph glyph-name="L" unicode="L" horiz-adv-x="563" 
d="M516 0h-470v35l60 1v671l-60 1v35h166v-35l-64 -1v-670h330l3 87h35v-124z" />
    <glyph glyph-name="greater" unicode="&#x3e;" horiz-adv-x="684" 
d="M511 391l-282 -252h-57l282 252l-282 251h57z" />
    <glyph glyph-name="F" unicode="F" horiz-adv-x="554" 
d="M492 371h-348v-335l63 -1v-35h-164v35l59 1v671l-59 1v35h476v-120h-35l-3 83h-337v-297h348v-38z" />
    <glyph glyph-name="G" unicode="G" horiz-adv-x="606" 
d="M537 3c-58 -9 -128 -15 -194 -15c-173 0 -290 96 -290 358v51c0 272 120 357 291 357c84 0 161 -9 193 -14v-116h-34l-4 84c-38 4 -94 9 -151 9c-158 0 -253 -74 -253 -319v-52c0 -238 95 -320 252 -320c44 0 101 2 149 7v311l-126 3v34h167v-378z" />
    <glyph glyph-name="Eth" unicode="&#xd0;" horiz-adv-x="660" 
d="M607 344c0 -242 -96 -352 -312 -352c-106 0 -155 8 -252 8v35l59 2v332h-61v38h61v299l-59 2v35c97 0 142 7 252 7c214 0 312 -109 312 -351v-55zM565 344v55c0 234 -95 313 -273 313c-53 0 -104 -2 -148 -5v-300h181v-38h-181v-332c42 -3 98 -7 148 -7
c178 0 273 81 273 314z" />
    <glyph glyph-name="eth" unicode="&#xf0;" horiz-adv-x="543" 
d="M489 236c0 -151 -65 -250 -218 -250s-218 99 -218 250v61c0 152 65 249 218 249c79 0 132 -30 162 -78c-21 111 -70 183 -148 227l-140 -93l-17 23l125 86c-50 22 -105 30 -174 30v34c73 0 136 -8 208 -40l87 56l17 -23l-74 -49c115 -71 172 -205 172 -422v-61zM448 236
v61c0 138 -52 213 -177 213s-177 -75 -177 -213v-61c0 -138 52 -213 177 -213s177 75 177 213z" />
    <glyph glyph-name="Lslash" unicode="&#x141;" horiz-adv-x="563" 
d="M13 259v52l93 91v305l-60 1v35h166v-35l-64 -1v-263l131 129v-52l-131 -129v-355h330l3 87h35v-124h-470v35l60 1v314z" />
    <glyph glyph-name="lslash" unicode="&#x142;" horiz-adv-x="245" 
d="M20 282v52l82 80v321l-57 1v35h98v-317l79 77v-52l-79 -77v-366l56 -1v-35h-154v35l57 1v326z" />
    <glyph glyph-name="Thorn" unicode="&#xde;" horiz-adv-x="600" 
d="M144 707v-88c41 4 80 6 138 6c181 0 272 -53 272 -207v-14c0 -153 -94 -215 -275 -215c-38 0 -84 1 -135 3v-156l64 -1v-35h-165v35l60 1v671l-60 1v35h165v-35zM512 404v14c0 127 -68 170 -230 170c-47 0 -107 -3 -138 -6v-353c52 -2 97 -2 135 -2c161 0 233 51 233 177
z" />
    <glyph glyph-name="thorn" unicode="&#xfe;" horiz-adv-x="557" 
d="M504 251c0 -189 -79 -263 -228 -263c-30 0 -71 2 -135 10v-170l58 -1v-35h-156v35l57 1v907l-57 1v35h97v-275c44 25 110 54 176 54c135 0 188 -75 188 -260v-39zM463 251v39c0 164 -38 223 -151 223c-61 0 -124 -26 -171 -51v-428c59 -8 108 -11 134 -11
c127 0 188 59 188 228z" />
    <glyph glyph-name="onehalf" unicode="&#xbd;" horiz-adv-x="899" 
d="M841 0h-279v32c0 104 27 137 141 194c93 47 106 69 106 115c0 56 -39 72 -120 72c-30 0 -63 -3 -91 -6l-2 -47h-27v71c26 5 78 12 123 12c103 0 155 -27 155 -101c0 -58 -23 -90 -121 -140c-109 -54 -127 -78 -127 -165v-5h212l2 45h28v-77zM699 743l-473 -743h-43
l473 743h43zM308 311h-256v30l108 1v371l-108 -37v33l115 39h31v-406l110 -1v-30z" />
    <glyph glyph-name="onequarter" unicode="&#xbc;" horiz-adv-x="828" 
d="M780 124h-74v-96l38 -1v-27h-113v27l37 1v96h-225v32l224 280h39v-282h74v-30zM669 154v238l-188 -238h188zM699 743l-473 -743h-43l473 743h43zM308 311h-256v30l108 1v371l-108 -37v33l115 39h31v-406l110 -1v-30z" />
    <glyph glyph-name="threequarters" unicode="&#xbe;" horiz-adv-x="839" 
d="M788 124h-73v-96l38 -1v-27h-113v27l37 1v96h-226v32l224 280h40v-282h73v-30zM677 154v238l-187 -238h187zM698 743l-474 -743h-43l474 743h43zM329 432c0 -90 -52 -128 -161 -128c-47 0 -101 8 -119 12v72h28l2 -49c22 -2 56 -4 87 -4c87 0 126 25 126 98v5
c0 46 -12 86 -92 86h-135v30h135c81 0 92 45 92 88v5c0 58 -33 78 -126 78c-30 0 -63 -3 -87 -5l-2 -48h-27v73c15 3 74 10 119 10c109 0 160 -26 160 -107v-5c0 -45 -16 -90 -69 -105c58 -14 69 -58 69 -101v-5z" />
    <glyph glyph-name="brokenbar" unicode="&#xa6;" horiz-adv-x="242" 
d="M145 -207h-41v388h41v-388zM145 743v-387h-41v387h41z" />
    <glyph glyph-name="minus" unicode="&#x2212;" horiz-adv-x="684" 
d="M579 375h-475v36h475v-36z" />
    <glyph glyph-name="multiply" unicode="&#xd7;" horiz-adv-x="684" 
d="M544 214l-25 -25l-177 178l-179 -179l-25 25l179 179l-179 178l25 26l179 -180l178 179l26 -25l-180 -178z" />
    <glyph glyph-name="quotedbl" unicode="&#x22;" horiz-adv-x="290" 
d="M270 759l-34 -240h-33l26 240h41zM87 759h-41l-26 -240h33z" />
    <glyph glyph-name="numbersign" unicode="#" horiz-adv-x="711" 
d="M644 213h-163l-24 -213h-38l24 213h-211l-23 -213h-38l23 213h-114v37h118l26 238h-144v36h148l25 219h38l-24 -219h210l24 219h38l-24 -219h129v-36h-133l-26 -238h159v-37zM473 488h-210l-27 -238h211z" />
    <glyph glyph-name="dollar" unicode="$" horiz-adv-x="559" 
d="M523 182c0 -122 -101 -186 -212 -192v-108h-40v106c-71 2 -139 9 -179 15v114h34l4 -84c41 -4 98 -8 158 -8c96 0 193 48 193 157c0 86 -44 120 -163 176l-74 35c-102 48 -169 99 -169 199c0 108 82 155 207 161v102h39v-101c75 -1 140 -8 180 -14v-113h-34l-4 83
c-39 4 -96 8 -157 8c-115 0 -189 -31 -189 -126c0 -79 51 -119 146 -164l75 -36c125 -60 185 -103 185 -210z" />
    <glyph glyph-name="percent" unicode="%" horiz-adv-x="956" 
d="M905 185c0 -139 -61 -197 -156 -197s-156 59 -156 197v58c0 137 61 196 156 196s156 -58 156 -196v-58zM868 184v59c0 126 -51 163 -119 163s-118 -37 -118 -163v-59c0 -126 50 -163 118 -163s119 37 119 163zM740 743l-473 -743h-44l474 743h43zM369 500
c0 -134 -56 -197 -156 -197s-156 66 -156 197v58c0 132 56 197 156 197s156 -63 156 -197v-58zM332 500v58c0 125 -47 164 -119 164c-71 0 -118 -41 -118 -164v-58c0 -124 47 -163 118 -163c72 0 119 39 119 163z" />
    <glyph glyph-name="quotesingle" unicode="'" horiz-adv-x="107" 
d="M87 759l-34 -240h-33l26 240h41z" />
    <glyph glyph-name="plus" unicode="+" horiz-adv-x="684" 
d="M591 375h-231v-232h-35v232h-233v35h233v233h35v-233h231v-35z" />
    <glyph glyph-name="less" unicode="&#x3c;" horiz-adv-x="684" 
d="M512 139h-58l-282 252l282 251h58l-282 -251z" />
    <glyph glyph-name="equal" unicode="=" horiz-adv-x="684" 
d="M565 261h-446v35h446v-35zM565 490h-446v35h446v-35z" />
    <glyph glyph-name="bracketleft" unicode="[" horiz-adv-x="353" 
d="M308 -208h-204v951h204v-36h-163v-879h163v-36z" />
    <glyph glyph-name="backslash" unicode="\" horiz-adv-x="411" 
d="M375 0h-41l-304 743h40z" />
    <glyph glyph-name="bracketright" unicode="]" horiz-adv-x="353" 
d="M249 -208h-204v36h163v879h-163v36h204v-951z" />
    <glyph glyph-name="asciicircum" unicode="^" horiz-adv-x="671" 
d="M578 397h-47l-192 267l-191 -267h-48l206 289h67z" />
    <glyph glyph-name="underscore" unicode="_" horiz-adv-x="570" 
d="M570 -91h-585v30h585v-30z" />
    <glyph glyph-name="grave" unicode="`" horiz-adv-x="400" 
d="M254 616h-43l-145 154h50z" />
    <glyph glyph-name="braceleft" unicode="{" horiz-adv-x="384" 
d="M338 -208h-45c-129 0 -149 52 -149 133v180c0 73 -14 103 -75 146v34c61 43 75 72 75 146v178c0 82 20 134 149 134h45v-36h-45c-99 0 -108 -33 -108 -98v-178c0 -77 -19 -121 -80 -164c60 -42 80 -86 80 -162v-180c0 -65 9 -98 108 -98h45v-35z" />
    <glyph glyph-name="bar" unicode="|" horiz-adv-x="242" 
d="M145 -208h-41v951h41v-951z" />
    <glyph glyph-name="braceright" unicode="}" horiz-adv-x="384" 
d="M315 251c-60 -43 -75 -73 -75 -146v-180c0 -81 -19 -133 -149 -133h-45v35h45c100 0 109 33 109 98v180c0 76 19 120 80 162c-61 43 -80 87 -80 164v178c0 65 -9 98 -109 98h-45v36h45c130 0 149 -52 149 -134v-178c0 -74 15 -103 75 -146v-34z" />
    <glyph glyph-name="asciitilde" unicode="~" horiz-adv-x="657" 
d="M545 484c0 -87 -15 -140 -90 -140c-43 0 -78 25 -111 56l-56 52c-35 32 -51 47 -79 47c-52 0 -58 -40 -58 -108v-39h-36v39c0 87 18 141 94 141c40 0 63 -18 102 -54l55 -51c31 -29 56 -51 88 -51c51 0 56 41 56 107v40h35v-39z" />
    <glyph glyph-name="dagger" unicode="&#x2020;" horiz-adv-x="473" 
d="M403 509h-150v-619h-40v619h-137v38h137v224h40v-224h150v-38z" />
    <glyph glyph-name="degree" unicode="&#xb0;" horiz-adv-x="433" 
d="M393 581c0 -97 -78 -171 -174 -171c-97 0 -174 74 -174 171c0 98 77 173 174 173c96 0 174 -75 174 -173zM357 581c0 81 -63 138 -138 138c-76 0 -138 -57 -138 -138c0 -80 62 -137 138 -137c75 0 138 57 138 137z" />
    <glyph glyph-name="cent" unicode="&#xa2;" horiz-adv-x="461" 
d="M410 3c-48 -9 -86 -13 -124 -15v-111h-38v112c-133 8 -192 82 -192 244v73c0 155 62 234 192 243v115h38v-114c38 -2 76 -6 124 -14v-101h-34l-3 73c-47 6 -75 6 -99 6c-117 0 -177 -55 -177 -208v-73c0 -159 58 -209 177 -209c28 0 68 2 136 11v-32z" />
    <glyph glyph-name="sterling" unicode="&#xa3;" horiz-adv-x="608" 
d="M544 0h-449v34c46 49 57 94 57 157v180h-86v36h86v102c0 168 40 240 220 240c68 0 128 -7 172 -13v-116h-34l-4 86c-42 4 -90 6 -132 6c-149 0 -180 -49 -180 -203v-102h271v-36h-271v-180c0 -66 -15 -109 -52 -154h402v-37z" />
    <glyph glyph-name="section" unicode="&#xa7;" horiz-adv-x="602" 
d="M525 -34c0 -124 -92 -193 -236 -193c-92 0 -137 6 -195 15v114h33l3 -83c33 -4 67 -8 158 -8c121 0 193 48 193 154c0 98 -45 120 -171 186l-75 39c-102 53 -158 94 -158 188c0 38 11 74 35 103c-22 30 -35 69 -35 111c0 114 89 162 230 162c82 0 157 -8 195 -15v-112
h-33l-4 81c-40 5 -98 9 -158 9c-116 0 -188 -34 -188 -125c0 -78 40 -114 150 -169l73 -36c129 -63 183 -104 183 -207c0 -41 -8 -76 -28 -107c19 -32 28 -64 28 -107zM469 103c11 21 14 46 14 74c0 90 -44 114 -159 172l-74 37c-56 28 -90 46 -112 68
c-15 -19 -22 -42 -22 -72c0 -87 54 -114 140 -157l72 -36c64 -32 112 -59 141 -86z" />
    <glyph glyph-name="bullet" unicode="&#x2022;" horiz-adv-x="509" 
d="M437 369c0 -99 -80 -178 -179 -178s-179 79 -179 178c0 100 80 180 179 180s179 -80 179 -180zM398 369c0 78 -63 142 -140 142s-140 -64 -140 -142c0 -76 63 -140 140 -140s140 64 140 140z" />
    <glyph glyph-name="paragraph" unicode="&#xb6;" horiz-adv-x="682" 
d="M613 -204h-38v911h-93v-911h-111v35l72 2v436h-67c-182 0 -314 44 -314 233v10c0 195 131 233 317 233h234v-949zM443 308v399h-68c-159 0 -273 -35 -273 -195v-10c0 -157 115 -194 274 -194h67z" />
    <glyph glyph-name="germandbls" unicode="&#xdf;" horiz-adv-x="580" 
d="M534 208c0 -137 -70 -218 -224 -218c-13 0 -30 0 -54 2v33c26 -1 39 -1 53 -1c122 0 185 59 185 184v16c0 103 -60 162 -200 162h-38v34h38c136 0 184 67 184 165v8c0 96 -40 158 -174 158c-133 0 -179 -68 -179 -224v-527h-102v35l61 1v491c0 167 56 261 220 261
c157 0 214 -81 214 -195v-8c0 -98 -52 -162 -136 -181c88 -15 152 -75 152 -180v-16z" />
    <glyph glyph-name="registered" unicode="&#xae;" horiz-adv-x="659" 
d="M609 480c0 -165 -109 -282 -267 -282s-266 117 -266 282c0 166 108 282 266 282s267 -116 267 -282zM578 480c0 150 -91 252 -236 252s-236 -102 -236 -252s91 -253 236 -253s236 103 236 253zM302 332h-80v23l25 1v265l-25 1v23c43 2 77 4 103 4c77 0 120 -26 120 -90
v-4c0 -53 -31 -78 -69 -87l69 -111l28 -1v-24h-48l-82 130h-17c-22 0 -30 0 -49 1v-107l25 -1v-23zM414 555v4c0 49 -31 64 -89 64c-15 0 -29 0 -48 -1v-133c15 -1 28 -1 49 -1c59 0 88 16 88 67z" />
    <glyph glyph-name="copyright" unicode="&#xa9;" horiz-adv-x="822" 
d="M764 378c0 -232 -151 -363 -353 -363c-201 0 -352 131 -352 363c0 231 151 362 352 362c202 0 353 -131 353 -362zM728 378c0 208 -132 329 -317 329s-316 -121 -316 -329c0 -209 131 -330 316 -330s317 121 317 330zM523 169c-14 -3 -62 -9 -106 -9
c-117 0 -178 65 -178 192v48c0 128 61 192 178 192c44 0 93 -5 106 -8v-87h-30l-2 59c-18 1 -45 3 -73 3c-97 0 -141 -46 -141 -159v-48c0 -112 44 -159 141 -159c29 0 55 2 73 4l2 59h30v-87z" />
    <glyph glyph-name="trademark" unicode="&#x2122;" horiz-adv-x="842" 
d="M813 349h-114v27l40 2v266c0 21 0 42 1 61h-1c-9 -15 -19 -32 -29 -47l-97 -149h-30l-96 149c-10 16 -20 32 -29 47h-1c1 -19 1 -42 1 -61v-266l40 -2v-27h-114v27l40 2v337l-40 2v26h85l107 -164c8 -12 12 -20 21 -37h2c9 17 13 24 21 37l108 164h85v-26l-40 -2v-337
l40 -2v-27zM350 672h-26l-2 41h-110v-335l42 -2v-27h-121v27l43 2v335h-110l-2 -41h-25v71h311v-71z" />
    <glyph glyph-name="acute" unicode="&#xb4;" horiz-adv-x="423" 
d="M348 770l-145 -154h-43l138 154h50z" />
    <glyph glyph-name="dieresis" unicode="&#xa8;" horiz-adv-x="420" 
d="M344 640h-38v120h38v-120zM114 640v120h-38v-120h38z" />
    <glyph glyph-name="notequal" unicode="&#x2260;" horiz-adv-x="684" 
d="M555 261h-238l-88 -261h-37l88 261h-151v36h164l65 192h-229v36h242l75 222h38l-76 -222h147v-36h-160l-65 -192h225v-36z" />
    <glyph glyph-name="AE" unicode="&#xc6;" horiz-adv-x="955" 
d="M909 0h-476v35l59 1v246h-282l-98 -282h-85v35l53 2l235 670l-63 1v35h657v-116h-35l-3 79h-337v-297h348v-38h-348v-334h337l3 80h35v-117zM492 320v386h-136c-11 -35 -22 -68 -34 -103l-100 -283h270z" />
    <glyph glyph-name="Oslash" unicode="&#xd8;" horiz-adv-x="653" 
d="M601 347c0 -258 -104 -359 -275 -359c-79 0 -144 22 -191 71l-41 -59h-44l61 89c-38 57 -59 142 -59 258v49c0 259 105 358 274 358c81 0 148 -23 195 -75l44 64h44l-65 -94c37 -57 57 -140 57 -253v-49zM94 347c0 -100 15 -171 43 -221l360 518c-42 53 -102 73 -171 73
c-135 0 -232 -73 -232 -321v-49zM559 347v49c0 96 -15 166 -41 216l-359 -518c42 -50 99 -69 167 -69c135 0 233 74 233 322z" />
    <glyph glyph-name="infinity" unicode="&#x221e;" horiz-adv-x="733" 
d="M627 367c0 -70 -7 -230 -137 -230h-4c-45 0 -91 25 -127 72c-19 -46 -49 -73 -99 -73h-4c-130 0 -135 162 -135 232v13c0 70 6 230 136 230h5c44 0 91 -25 125 -72c19 47 50 73 101 73h4c130 0 135 -162 135 -233v-12zM590 367v12c0 75 -7 197 -98 197h-4
c-72 0 -82 -74 -95 -201c-5 -51 -11 -96 -21 -130c34 -48 74 -73 114 -73h4c90 0 100 120 100 195zM375 502c-33 48 -73 74 -113 74h-5c-90 0 -100 -121 -100 -195v-13c0 -74 7 -196 99 -196h4c68 0 84 74 97 206c4 46 10 89 18 124z" />
    <glyph glyph-name="plusminus" unicode="&#xb1;" horiz-adv-x="684" 
d="M587 0h-491v35h491v-35zM591 385h-231v-233h-35v233h-233v35h233v233h35v-233h231v-35z" />
    <glyph glyph-name="lessequal" unicode="&#x2264;" horiz-adv-x="684" 
d="M577 0h-470v35h470v-35zM474 159h-57l-267 241l267 240h57l-267 -240z" />
    <glyph glyph-name="greaterequal" unicode="&#x2265;" horiz-adv-x="684" 
d="M577 0h-470v35h470v-35zM534 400l-267 -241h-57l267 241l-267 240h57z" />
    <glyph glyph-name="yen" unicode="&#xa5;" horiz-adv-x="645" 
d="M587 279h-244v-242l67 -1v-36h-175v36l67 1v242h-245v35h242l-70 132h-171v35h153l-118 225l-49 2v35h76l157 -298c15 -30 32 -66 45 -94h2c14 28 30 64 45 94l156 298h76v-35l-49 -2l-117 -225h152v-35h-172l-69 -132h241v-35z" />
    <glyph glyph-name="mu" unicode="&#xb5;" horiz-adv-x="603" 
d="M560 0h-98v45c-58 -31 -121 -57 -195 -57c-66 0 -106 18 -126 59v-219l56 -1v-35h-154v35l57 1v672l-57 1v35h98v-336c0 -133 35 -177 133 -177c65 0 128 26 188 57v420l-56 1v35h97v-500l57 -1v-35z" />
    <glyph glyph-name="partialdiff" unicode="&#x2202;" horiz-adv-x="582" 
d="M532 453c0 -59 -6 -136 -21 -217c-35 -159 -114 -250 -255 -250c-138 0 -198 70 -198 183c0 31 5 64 8 88c18 140 98 226 244 226c79 0 167 -32 178 -128c4 47 4 85 3 113c-2 176 -57 275 -232 275c-43 0 -90 -5 -132 -14v34c39 9 86 15 133 15c195 0 272 -115 272 -325z
M475 294c0 91 -51 151 -165 151c-122 0 -189 -72 -204 -194c-3 -22 -7 -55 -7 -82c0 -95 49 -146 161 -146c126 0 189 88 208 201c5 26 7 51 7 70z" />
    <glyph glyph-name="summation" unicode="&#x2211;" horiz-adv-x="568" 
d="M500 -66h-427v38l255 364l-255 370v37h427v-38h-376l247 -358v-23l-247 -352h376v-38z" />
    <glyph glyph-name="product" unicode="&#x220f;" horiz-adv-x="697" 
d="M671 704h-117v-770h-41v770h-322v-770h-41v770h-118v39h639v-39z" />
    <glyph glyph-name="pi" unicode="&#x3c0;" horiz-adv-x="590" 
d="M567 -11c-13 -2 -26 -3 -36 -3c-82 0 -100 42 -100 139v372h-246v-497h-41v497h-97v39h521v-39h-96v-372c0 -79 10 -104 66 -104c11 0 17 0 29 1v-33z" />
    <glyph glyph-name="integral" unicode="&#x222b;" horiz-adv-x="492" 
d="M447 719c-18 1 -59 4 -84 4c-79 0 -94 -26 -94 -123v-651c0 -103 -19 -157 -132 -157c-28 0 -69 5 -87 8v30c18 -1 59 -4 84 -4c79 0 94 27 94 123v651c0 103 19 157 132 157c27 0 68 -5 87 -8v-30z" />
    <glyph glyph-name="ordfeminine" unicode="&#xaa;" horiz-adv-x="372" 
d="M341 440h-62v24c-22 -12 -60 -32 -112 -32c-64 0 -100 31 -100 91v11c0 80 55 94 152 94h59v25c0 68 -15 83 -94 83c-14 0 -41 -1 -64 -3l-2 -35h-26v57c22 4 66 9 96 9c102 0 124 -29 124 -111v-184l29 -1v-28zM278 490v112h-59c-84 0 -118 -9 -118 -68v-12
c0 -48 28 -62 74 -62c42 0 82 17 103 30z" />
    <glyph glyph-name="ordmasculine" unicode="&#xba;" horiz-adv-x="388" 
d="M334 583c0 -92 -42 -153 -137 -153s-135 61 -136 153v29c1 92 41 152 136 152s137 -60 137 -152v-29zM300 583v29c0 77 -31 122 -103 122c-71 0 -101 -44 -101 -122v-29c0 -78 30 -123 101 -123c72 0 103 45 103 123z" />
    <glyph glyph-name="Omega" unicode="&#x2126;" horiz-adv-x="639" 
d="M594 382c0 -124 -57 -226 -183 -276v-70h170v-36h-209v126c128 45 180 137 180 256v71c0 186 -93 266 -231 266s-230 -80 -230 -266v-71c0 -119 52 -211 180 -256v-126h-209v36h170v70c-127 50 -183 152 -183 276v71c0 198 103 303 272 303s273 -105 273 -303v-71z" />
    <glyph glyph-name="ae" unicode="&#xe6;" horiz-adv-x="879" 
d="M831 257h-395v-96c0 -103 45 -138 199 -138c66 0 133 9 181 16v-34c-41 -8 -113 -17 -182 -17c-106 0 -173 10 -217 76c-59 -47 -130 -76 -214 -76c-96 0 -155 53 -155 154v14c0 126 79 160 243 160h104v52c0 115 -28 146 -160 146c-27 0 -74 -1 -116 -5l-3 -65h-33v92
c44 7 108 14 154 14c130 0 175 -31 187 -104c27 62 89 104 190 104c157 0 217 -103 217 -249v-44zM790 291v22c0 111 -42 201 -176 201c-138 0 -178 -94 -178 -185v-38h354zM395 89v194h-104c-146 0 -202 -26 -202 -127v-14c0 -80 47 -121 121 -121s145 35 185 68z" />
    <glyph glyph-name="oslash" unicode="&#xf8;" horiz-adv-x="543" 
d="M489 252c0 -176 -65 -264 -218 -264c-65 0 -113 15 -148 46l-44 -59h-43l63 86c-31 44 -46 108 -46 191v34c0 176 65 264 218 264c67 0 117 -17 152 -51l45 62h43l-65 -89c29 -43 43 -106 43 -186v-34zM94 252c0 -69 10 -121 30 -157l275 373c-29 31 -71 45 -128 45
c-124 0 -176 -66 -177 -227v-34zM449 252v34c0 66 -9 116 -28 152l-275 -372c28 -29 69 -42 125 -42c125 0 177 68 178 228z" />
    <glyph glyph-name="questiondown" unicode="&#xbf;" horiz-adv-x="434" 
d="M404 -212c-49 -10 -106 -16 -148 -16c-113 0 -196 30 -196 144v5c0 71 22 113 103 192c95 92 106 121 106 195v34h41v-34c0 -79 -13 -119 -112 -214c-79 -76 -95 -109 -95 -173v-5c0 -88 61 -108 155 -108c33 0 71 3 109 8l3 65h34v-93zM310 414h-41v122h41v-122z" />
    <glyph glyph-name="exclamdown" unicode="&#xa1;" horiz-adv-x="205" 
d="M82 536h41v-119h-41v119zM121 346l3 -566h-43l3 566h37z" />
    <glyph glyph-name="logicalnot" unicode="&#xac;" horiz-adv-x="684" 
d="M565 261h-36v229h-410v35h446v-264z" />
    <glyph glyph-name="radical" unicode="&#x221a;" horiz-adv-x="771" 
d="M723 873l-319 -947h-51l-179 517h-121v36h148l178 -521l305 915h39z" />
    <glyph glyph-name="florin" unicode="&#x192;" horiz-adv-x="613" 
d="M563 748l-5 -31c-22 2 -55 5 -76 5c-77 0 -99 -25 -117 -124l-24 -187h183l-5 -36h-184l-47 -374c-21 -118 -58 -155 -154 -155c-26 0 -63 4 -85 8l5 30c22 -2 55 -4 77 -4c74 0 98 23 116 123l48 372h-156l5 36h156l24 189c21 117 56 155 155 155c25 0 62 -3 84 -7z" />
    <glyph glyph-name="approxequal" unicode="&#x2248;" horiz-adv-x="684" 
d="M557 559c0 -87 -15 -140 -90 -140c-43 0 -78 25 -111 56l-56 52c-35 32 -51 47 -79 47c-52 0 -58 -40 -58 -108v-39h-36v39c0 87 18 141 94 141c40 0 63 -18 102 -54l55 -51c31 -29 56 -51 88 -51c51 0 56 41 56 107v40h35v-39zM557 314c0 -87 -15 -140 -90 -140
c-43 0 -78 25 -111 56l-56 52c-35 32 -51 47 -79 47c-52 0 -58 -40 -58 -108v-39h-36v39c0 87 18 141 94 141c40 0 63 -18 102 -54l55 -51c31 -29 56 -51 88 -51c51 0 56 41 56 107v40h35v-39z" />
    <glyph glyph-name="Delta" unicode="&#x2206;" horiz-adv-x="647" 
d="M614 0h-582l261 744h59zM556 37l-197 564c-12 38 -24 75 -36 111h-1c-11 -36 -23 -73 -36 -111l-196 -564h466z" />
    <glyph glyph-name="guillemotleft" unicode="&#xab;" horiz-adv-x="544" 
d="M490 74h-49l-157 208l157 206h49l-155 -206zM259 74l-155 208l155 206h-49l-157 -206l157 -208h49z" />
    <glyph glyph-name="guillemotright" unicode="&#xbb;" horiz-adv-x="544" 
d="M491 282l-157 -208h-49l155 208l-155 206h49zM260 282l-157 206h-50l155 -206l-155 -208h50z" />
    <glyph glyph-name="ellipsis" unicode="&#x2026;" horiz-adv-x="738" 
d="M636 0h-41v120h41v-120zM395 0v120h-41v-120h41zM154 0h-41v120h41v-120z" />
    <glyph glyph-name="OE" unicode="&#x152;" horiz-adv-x="965" 
d="M899 0h-391c-59 -10 -117 -14 -170 -14c-172 0 -282 104 -282 344v81c0 241 110 344 281 344c50 0 106 -4 161 -12h401v-116h-34l-4 79h-336v-297h348v-38h-348v-334h336l4 78h34v-115zM483 33v674c-55 8 -106 10 -145 10c-137 0 -240 -76 -240 -306v-81
c0 -230 103 -306 240 -306c40 0 89 2 145 9z" />
    <glyph glyph-name="oe" unicode="&#x153;" horiz-adv-x="926" 
d="M880 257h-396v-23c0 -148 68 -211 200 -211c66 0 133 9 180 16v-34c-40 -8 -112 -17 -181 -17c-104 0 -191 31 -219 125c-26 -77 -90 -127 -198 -127c-153 0 -217 99 -218 250v65c1 151 65 249 218 249c108 0 172 -50 198 -126c25 75 90 126 198 126
c154 0 218 -103 218 -252v-41zM838 291v18c0 115 -44 205 -176 205c-141 0 -177 -97 -177 -199v-24h353zM444 236v65c-1 142 -55 213 -178 213c-124 0 -177 -76 -177 -213v-65c0 -137 52 -214 177 -214s177 77 178 214z" />
    <glyph glyph-name="endash" unicode="&#x2013;" horiz-adv-x="487" 
d="M422 270h-356v36h356v-36z" />
    <glyph glyph-name="emdash" unicode="&#x2014;" horiz-adv-x="625" 
d="M560 270h-494v36h494v-36z" />
    <glyph glyph-name="quotedblleft" unicode="&#x201c;" horiz-adv-x="325" 
d="M305 771l-57 -229h-45l68 229h34zM121 771h-34l-67 -229h44z" />
    <glyph glyph-name="quotedblright" unicode="&#x201d;" horiz-adv-x="325" 
d="M305 771l-67 -229h-34l57 229h44zM122 771h-45l-57 -229h34z" />
    <glyph glyph-name="quoteleft" unicode="&#x2018;" horiz-adv-x="142" 
d="M122 771l-57 -229h-45l67 229h35z" />
    <glyph glyph-name="quoteright" unicode="&#x2019;" horiz-adv-x="142" 
d="M122 771l-68 -229h-34l57 229h45z" />
    <glyph glyph-name="divide" unicode="&#xf7;" horiz-adv-x="684" 
d="M362 101h-42v131h42v-131zM589 371v36h-495v-36h495zM362 532h-42v130h42v-130z" />
    <glyph glyph-name="lozenge" unicode="&#x25ca;" horiz-adv-x="663" 
d="M566 361l-239 -299l-236 296l239 299zM520 361l-190 236l-192 -239l189 -236z" />
    <glyph glyph-name="fraction" unicode="&#x2044;" horiz-adv-x="374" 
d="M449 743l-473 -743h-43l473 743h43z" />
    <glyph glyph-name="Euro" unicode="&#x20ac;" horiz-adv-x="601" 
d="M550 4c-16 -3 -90 -16 -174 -16c-156 0 -255 76 -278 278h-64v35h60c-3 51 -3 101 1 144h-61v35h64c23 200 123 275 278 275c84 0 161 -13 174 -16v-108h-34l-4 78c-28 3 -82 8 -134 8c-137 0 -215 -64 -237 -237h355l-9 -35h-350c-4 -43 -4 -92 0 -144h311l-9 -35h-298
c22 -175 99 -241 237 -241c62 0 138 10 172 14v-35z" />
    <glyph glyph-name="guilsinglleft" unicode="&#x2039;" horiz-adv-x="313" 
d="M260 74h-50l-157 208l157 206h50l-155 -206z" />
    <glyph glyph-name="guilsinglright" unicode="&#x203a;" horiz-adv-x="313" 
d="M260 282l-157 -208h-50l155 208l-155 206h50z" />
    <glyph glyph-name="daggerdbl" unicode="&#x2021;" horiz-adv-x="473" 
d="M407 286h-154v-396h-40v396h-141v37h141v183h-141v37h141v227h40v-227h154v-37h-154v-183h154v-37z" />
    <glyph glyph-name="periodcentered" unicode="&#xb7;" horiz-adv-x="171" 
d="M106 301h-41v136h41v-136z" />
    <glyph glyph-name="quotesinglbase" unicode="&#x201a;" horiz-adv-x="142" 
d="M122 134l-67 -228h-35l57 228h45z" />
    <glyph glyph-name="quotedblbase" unicode="&#x201e;" horiz-adv-x="325" 
d="M305 134l-66 -228h-35l57 228h44zM122 134h-45l-57 -228h35z" />
    <glyph glyph-name="perthousand" unicode="&#x2030;" horiz-adv-x="1340" 
d="M1289 185c0 -139 -61 -197 -156 -197s-156 59 -156 197v58c0 137 61 196 156 196s156 -58 156 -196v-58zM1252 184v59c0 126 -51 163 -119 163s-118 -37 -118 -163v-59c0 -126 50 -163 118 -163s119 37 119 163zM905 185c0 -139 -61 -197 -156 -197s-156 59 -156 197v58
c0 137 61 196 156 196s156 -58 156 -196v-58zM868 184v59c0 126 -51 163 -119 163s-118 -37 -118 -163v-59c0 -126 50 -163 118 -163s119 37 119 163zM740 743l-473 -743h-44l474 743h43zM369 500c0 -134 -56 -197 -156 -197s-156 66 -156 197v58c0 132 56 197 156 197
s156 -63 156 -197v-58zM332 500v58c0 125 -47 164 -119 164c-71 0 -118 -41 -118 -164v-58c0 -124 47 -163 118 -163c72 0 119 39 119 163z" />
    <glyph glyph-name="dotlessi" unicode="&#x131;" horiz-adv-x="245" 
d="M199 0h-154v35l57 1v463l-57 2v35h98v-500l56 -1v-35z" />
    <glyph glyph-name="circumflex" unicode="&#x2c6;" horiz-adv-x="444" 
d="M388 616h-44l-122 128l-121 -128h-44l141 154h48z" />
    <glyph glyph-name="tilde" unicode="&#x2dc;" horiz-adv-x="432" 
d="M396 737c0 -77 -18 -125 -83 -125c-36 0 -56 17 -88 48l-45 44c-26 26 -39 39 -65 39c-43 0 -48 -41 -48 -92v-35h-35v35c0 77 19 124 83 124c38 0 58 -14 88 -44l46 -45c27 -27 41 -41 64 -41c42 0 47 41 47 92v34h36v-34z" />
    <glyph glyph-name="macron" unicode="&#xaf;" horiz-adv-x="439" 
d="M391 673h-343v34h343v-34z" />
    <glyph glyph-name="breve" unicode="&#x2d8;" horiz-adv-x="427" 
d="M369 772c-7 -88 -41 -158 -155 -158c-113 0 -147 70 -154 158h32c7 -74 32 -128 122 -128c91 0 116 54 123 128h32z" />
    <glyph glyph-name="dotaccent" unicode="&#x2d9;" horiz-adv-x="398" 
d="M230 647h-41v122h41v-122z" />
    <glyph glyph-name="ring" unicode="&#x2da;" horiz-adv-x="427" 
d="M328 707c0 -73 -49 -107 -113 -107c-65 0 -114 34 -114 107s49 107 114 107c64 0 113 -35 113 -107zM297 707c0 60 -40 79 -82 79c-43 0 -82 -18 -82 -79c0 -60 39 -79 82 -79c42 0 82 19 82 79z" />
    <glyph glyph-name="cedilla" unicode="&#xb8;" horiz-adv-x="407" 
d="M254 -68l-133 -140h-44l126 140h51z" />
    <glyph glyph-name="hungarumlaut" unicode="&#x2dd;" horiz-adv-x="435" 
d="M429 769l-145 -154h-43l138 154h50zM238 769h-50l-138 -154h44z" />
    <glyph glyph-name="ogonek" unicode="&#x2db;" horiz-adv-x="428" 
d="M338 -207c-16 -5 -51 -10 -84 -10c-83 0 -117 34 -117 88c0 61 66 100 139 131h62c-107 -45 -165 -77 -165 -130c0 -39 23 -60 84 -60c33 0 65 4 81 7v-26z" />
    <glyph glyph-name="caron" unicode="&#x2c7;" horiz-adv-x="444" 
d="M392 770l-149 -154h-49l-148 154h44l128 -129l130 129h44z" />
    <glyph glyph-name="a.alt" unicode="&#xe245;" horiz-adv-x="540" 
d="M511 0h-96v35c-38 -21 -92 -47 -155 -47c-144 0 -208 92 -208 261v36c0 191 76 265 220 265c45 0 108 -2 182 -11v-503l57 -1v-35zM414 69v438c-59 6 -111 7 -134 7c-128 0 -187 -61 -187 -229v-36c0 -146 50 -225 167 -225c63 0 113 24 154 45z" />
    <glyph glyph-name="g.alt" unicode="&#xe24b;" horiz-adv-x="511" 
d="M414 52v454c-46 4 -96 8 -127 8c-137 0 -193 -57 -193 -210v-70c0 -155 50 -211 173 -211c59 0 116 18 147 29zM72 -167c56 -5 119 -10 176 -10c130 0 166 41 166 171v23c-29 -11 -87 -29 -147 -29c-147 0 -214 70 -214 246v70c0 173 70 246 234 246c46 0 110 -8 168 -14
h56v-35l-56 -2v-505c0 -146 -48 -206 -206 -206c-58 0 -125 5 -177 13v32z" />
    <glyph glyph-name="u.alt" unicode="&#xe259;" horiz-adv-x="576" 
d="M502 265c0 -184 -47 -277 -202 -277c-153 0 -201 93 -201 277v235l-57 1v35h98v-271c0 -169 38 -241 160 -241c123 0 161 73 161 241v235l-56 1v35h97v-271z" />
    <glyph glyph-name="Scaron" unicode="&#x160;" horiz-adv-x="542" 
d="M496 182c0 -134 -111 -194 -234 -194c-76 0 -156 8 -199 15v113h34l3 -83c46 -5 105 -8 162 -8c96 0 192 42 192 157c0 86 -47 121 -163 176l-74 35c-103 49 -170 99 -170 199c0 115 88 163 229 163c78 0 153 -9 196 -16v-112h-34l-4 83c-37 4 -98 8 -157 8
c-114 0 -188 -31 -188 -126c0 -80 52 -118 147 -164l74 -36c124 -60 186 -103 186 -210zM440 947l-149 -154h-49l-148 154h44l128 -129l130 129h44z" />
    <glyph glyph-name="scaron" unicode="&#x161;" horiz-adv-x="460" 
d="M413 129c0 -72 -48 -141 -189 -141c-69 0 -136 10 -170 19v94h34l3 -67c35 -5 80 -11 132 -11c109 0 149 47 149 106c0 60 -32 81 -134 125l-37 16c-100 41 -153 78 -153 153c0 86 64 127 189 127c59 0 123 -10 154 -17v-89h-33l-3 61c-30 4 -79 9 -117 9
c-99 0 -149 -24 -149 -91c0 -58 40 -79 129 -118l37 -16c113 -49 158 -80 158 -160zM405 770l-149 -154h-49l-148 154h44l128 -129l130 129h44z" />
    <glyph glyph-name="Yacute" unicode="&#xdd;" horiz-adv-x="636" 
d="M604 708l-57 -1l-208 -400v-270l67 -1v-36h-176v36l67 1v269l-209 401l-56 1v35h154v-34l-52 -2l138 -262c16 -31 32 -66 46 -93h1c14 27 29 61 45 93l138 262l-52 2v34h154v-35zM465 947l-145 -154h-43l138 154h50z" />
    <glyph glyph-name="yacute" unicode="&#xfd;" horiz-adv-x="600" 
d="M571 501l-63 -1l-192 -537c-44 -124 -76 -178 -181 -178c-28 0 -58 3 -83 6v32c36 -2 59 -3 82 -3c73 0 107 27 143 149l9 31l-193 500l-62 1v35h160v-34l-55 -1l130 -344c14 -36 26 -69 39 -104h2c11 33 23 69 35 104l122 344l-53 1v34h160v-35zM462 770l-145 -154h-43
l138 154h50z" />
    <glyph glyph-name="Zcaron" unicode="&#x17d;" horiz-adv-x="609" 
d="M557 0h-506v44l445 662h-389l-3 -79h-34v116h472v-44l-445 -662h423l4 81h33v-118zM487 947l-149 -154h-49l-148 154h44l128 -129l130 129h44z" />
    <glyph glyph-name="zcaron" unicode="&#x17e;" horiz-adv-x="475" 
d="M427 0h-379v43l332 458h-282l-3 -57h-34v92h366v-41l-334 -460h297l4 62h33v-97zM430 770l-149 -154h-49l-148 154h44l128 -129l130 129h44z" />
    <glyph glyph-name="Adieresis" unicode="&#xc4;" horiz-adv-x="713" 
d="M694 0h-156v34l55 2l-84 247h-298l-84 -247l55 -2v-34h-155v35l55 1l236 671l-64 2v35h135l249 -708l56 -1v-35zM496 321l-100 280c-11 37 -23 74 -34 109h-4c-11 -35 -22 -71 -34 -109l-100 -280h272zM493 815h-38v120h38v-120zM263 815v120h-38v-120h38z" />
    <glyph glyph-name="Aring" unicode="&#xc5;" horiz-adv-x="713" 
d="M694 0h-156v34l55 2l-84 247h-298l-84 -247l55 -2v-34h-155v35l55 1l236 671l-64 2v35h135l249 -708l56 -1v-35zM496 321l-100 280c-11 37 -23 74 -34 109h-4c-11 -35 -22 -71 -34 -109l-100 -280h272zM473 889c0 -73 -49 -107 -113 -107c-65 0 -114 34 -114 107
s49 107 114 107c64 0 113 -35 113 -107zM442 889c0 60 -40 79 -82 79c-43 0 -82 -18 -82 -79c0 -60 39 -79 82 -79c42 0 82 19 82 79z" />
    <glyph glyph-name="Ccedilla" unicode="&#xc7;" horiz-adv-x="563" 
d="M510 2c-20 -3 -90 -14 -172 -14c-185 0 -285 98 -285 360v47c0 262 100 359 285 359c82 0 154 -10 172 -13v-113h-34l-3 81c-31 3 -83 8 -135 8c-168 0 -244 -91 -244 -322v-47c0 -231 76 -322 244 -322c55 0 106 4 135 7l3 82h34v-113zM358 -68l-133 -140h-44l126 140
h51z" />
    <glyph glyph-name="Eacute" unicode="&#xc9;" horiz-adv-x="565" 
d="M519 0h-476v35l59 1v671l-59 1v35h476v-116h-35l-3 79h-337v-297h348v-38h-348v-334h337l3 80h35v-117zM440 946l-145 -154h-43l138 154h50z" />
    <glyph glyph-name="Ntilde" unicode="&#xd1;" horiz-adv-x="715" 
d="M672 708l-60 -1v-709h-58l-364 619c-17 28 -34 56 -48 84h-2c1 -33 2 -67 2 -100v-565l61 -1v-35h-160v35l60 1v671l-60 1v35h118l364 -613c16 -27 32 -57 48 -86h1c-1 34 -2 69 -2 104v559l-60 1v35h160v-35zM545 914c0 -77 -18 -125 -83 -125c-36 0 -56 17 -88 48
l-45 44c-26 26 -39 39 -65 39c-43 0 -48 -41 -48 -92v-35h-35v35c0 77 19 124 83 124c38 0 58 -14 88 -44l46 -45c27 -27 41 -41 64 -41c42 0 47 41 47 92v34h36v-34z" />
    <glyph glyph-name="Odieresis" unicode="&#xd6;" horiz-adv-x="653" 
d="M601 347c0 -258 -104 -359 -275 -359c-170 0 -274 101 -274 359v49c0 259 105 358 274 358c170 0 275 -99 275 -358v-49zM559 347v49c0 248 -98 321 -233 321s-232 -73 -232 -321v-49c0 -248 98 -322 232 -322c135 0 233 74 233 322zM460 803h-38v120h38v-120zM230 803
v120h-38v-120h38z" />
    <glyph glyph-name="Udieresis" unicode="&#xdc;" horiz-adv-x="720" 
d="M677 708l-64 -1v-378c0 -224 -69 -339 -253 -339s-253 115 -253 339v378l-64 1v35h166v-35l-60 -1v-375c0 -210 50 -304 211 -304s212 94 212 304v375l-61 1v35h166v-35zM494 807h-38v120h38v-120zM264 807v120h-38v-120h38z" />
    <glyph glyph-name="aacute" unicode="&#xe1;" 
d="M491 0h-95v42c-42 -24 -108 -54 -186 -54c-110 0 -162 50 -162 157v9c0 132 79 162 243 162h103v52c0 116 -27 146 -159 146c-26 0 -60 -1 -112 -5l-3 -65h-34v92c59 7 105 14 151 14c164 0 198 -50 198 -182v-332l56 -1v-35zM394 74v209h-103c-146 0 -202 -22 -202 -129
v-11c0 -89 45 -122 127 -122c72 0 141 31 178 53zM407 770l-145 -154h-43l138 154h50z" />
    <glyph glyph-name="agrave" unicode="&#xe0;" 
d="M491 0h-95v42c-42 -24 -108 -54 -186 -54c-110 0 -162 50 -162 157v9c0 132 79 162 243 162h103v52c0 116 -27 146 -159 146c-26 0 -60 -1 -112 -5l-3 -65h-34v92c59 7 105 14 151 14c164 0 198 -50 198 -182v-332l56 -1v-35zM394 74v209h-103c-146 0 -202 -22 -202 -129
v-11c0 -89 45 -122 127 -122c72 0 141 31 178 53zM301 616h-43l-145 154h50z" />
    <glyph glyph-name="acircumflex" unicode="&#xe2;" 
d="M491 0h-95v42c-42 -24 -108 -54 -186 -54c-110 0 -162 50 -162 157v9c0 132 79 162 243 162h103v52c0 116 -27 146 -159 146c-26 0 -60 -1 -112 -5l-3 -65h-34v92c59 7 105 14 151 14c164 0 198 -50 198 -182v-332l56 -1v-35zM394 74v209h-103c-146 0 -202 -22 -202 -129
v-11c0 -89 45 -122 127 -122c72 0 141 31 178 53zM422 616h-44l-122 128l-121 -128h-44l141 154h48z" />
    <glyph glyph-name="adieresis" unicode="&#xe4;" 
d="M491 0h-95v42c-42 -24 -108 -54 -186 -54c-110 0 -162 50 -162 157v9c0 132 79 162 243 162h103v52c0 116 -27 146 -159 146c-26 0 -60 -1 -112 -5l-3 -65h-34v92c59 7 105 14 151 14c164 0 198 -50 198 -182v-332l56 -1v-35zM394 74v209h-103c-146 0 -202 -22 -202 -129
v-11c0 -89 45 -122 127 -122c72 0 141 31 178 53zM397 640h-38v120h38v-120zM167 640v120h-38v-120h38z" />
    <glyph glyph-name="atilde" unicode="&#xe3;" 
d="M491 0h-95v42c-42 -24 -108 -54 -186 -54c-110 0 -162 50 -162 157v9c0 132 79 162 243 162h103v52c0 116 -27 146 -159 146c-26 0 -60 -1 -112 -5l-3 -65h-34v92c59 7 105 14 151 14c164 0 198 -50 198 -182v-332l56 -1v-35zM394 74v209h-103c-146 0 -202 -22 -202 -129
v-11c0 -89 45 -122 127 -122c72 0 141 31 178 53zM450 737c0 -77 -18 -125 -83 -125c-36 0 -56 17 -88 48l-45 44c-26 26 -39 39 -65 39c-43 0 -48 -41 -48 -92v-35h-35v35c0 77 19 124 83 124c38 0 58 -14 88 -44l46 -45c27 -27 41 -41 64 -41c42 0 47 41 47 92v34h36v-34z
" />
    <glyph glyph-name="aring" unicode="&#xe5;" 
d="M491 0h-95v42c-42 -24 -108 -54 -186 -54c-110 0 -162 50 -162 157v9c0 132 79 162 243 162h103v52c0 116 -27 146 -159 146c-26 0 -60 -1 -112 -5l-3 -65h-34v92c59 7 105 14 151 14c164 0 198 -50 198 -182v-332l56 -1v-35zM394 74v209h-103c-146 0 -202 -22 -202 -129
v-11c0 -89 45 -122 127 -122c72 0 141 31 178 53zM378 705c0 -73 -49 -107 -113 -107c-65 0 -114 34 -114 107s49 107 114 107c64 0 113 -35 113 -107zM347 705c0 60 -40 79 -82 79c-43 0 -82 -18 -82 -79c0 -60 39 -79 82 -79c42 0 82 19 82 79z" />
    <glyph glyph-name="ccedilla" unicode="&#xe7;" horiz-adv-x="452" 
d="M408 2c-53 -9 -94 -14 -141 -14c-147 0 -213 65 -213 263v36c0 193 69 263 213 263c47 0 90 -5 141 -14v-95h-33l-4 66c-45 6 -76 7 -99 7c-117 0 -177 -45 -177 -227v-36c0 -188 58 -228 177 -228c28 0 68 3 136 12v-33zM294 -68l-133 -140h-44l126 140h51z" />
    <glyph glyph-name="eacute" unicode="&#xe9;" horiz-adv-x="533" 
d="M485 257h-392v-14c0 -154 53 -219 198 -219c58 0 132 8 179 15v-34c-40 -8 -108 -17 -180 -17c-174 0 -238 79 -238 263v35c0 166 62 264 217 264c153 0 216 -94 216 -269v-24zM443 291v9c0 128 -41 213 -174 213c-139 0 -176 -92 -176 -214v-8h350zM410 770l-145 -154
h-43l138 154h50z" />
    <glyph glyph-name="egrave" unicode="&#xe8;" horiz-adv-x="533" 
d="M485 257h-392v-14c0 -154 53 -219 198 -219c58 0 132 8 179 15v-34c-40 -8 -108 -17 -180 -17c-174 0 -238 79 -238 263v35c0 166 62 264 217 264c153 0 216 -94 216 -269v-24zM443 291v9c0 128 -41 213 -174 213c-139 0 -176 -92 -176 -214v-8h350zM322 616h-43
l-145 154h50z" />
    <glyph glyph-name="ecircumflex" unicode="&#xea;" horiz-adv-x="533" 
d="M485 257h-392v-14c0 -154 53 -219 198 -219c58 0 132 8 179 15v-34c-40 -8 -108 -17 -180 -17c-174 0 -238 79 -238 263v35c0 166 62 264 217 264c153 0 216 -94 216 -269v-24zM443 291v9c0 128 -41 213 -174 213c-139 0 -176 -92 -176 -214v-8h350zM436 616h-44
l-122 128l-121 -128h-44l141 154h48z" />
    <glyph glyph-name="edieresis" unicode="&#xeb;" horiz-adv-x="533" 
d="M485 257h-392v-14c0 -154 53 -219 198 -219c58 0 132 8 179 15v-34c-40 -8 -108 -17 -180 -17c-174 0 -238 79 -238 263v35c0 166 62 264 217 264c153 0 216 -94 216 -269v-24zM443 291v9c0 128 -41 213 -174 213c-139 0 -176 -92 -176 -214v-8h350zM401 640h-38v120h38
v-120zM171 640v120h-38v-120h38z" />
    <glyph glyph-name="iacute" unicode="&#xed;" horiz-adv-x="245" 
d="M258 770l-145 -154h-43l138 154h50zM199 0h-154v35l57 1v463l-57 2v35h98v-500l56 -1v-35z" />
    <glyph glyph-name="igrave" unicode="&#xec;" horiz-adv-x="245" 
d="M171 616h-43l-145 154h50zM199 0h-154v35l57 1v463l-57 2v35h98v-500l56 -1v-35z" />
    <glyph glyph-name="icircumflex" unicode="&#xee;" horiz-adv-x="245" 
d="M199 0h-154v35l57 1v463l-57 2v35h98v-500l56 -1v-35zM284 616h-44l-122 128l-121 -128h-44l141 154h48z" />
    <glyph glyph-name="idieresis" unicode="&#xef;" horiz-adv-x="245" 
d="M253 640h-38v120h38v-120zM23 640v120h-38v-120h38zM199 0h-154v35l57 1v463l-57 2v35h98v-500l56 -1v-35z" />
    <glyph glyph-name="ntilde" unicode="&#xf1;" horiz-adv-x="600" 
d="M557 0h-96v338c0 132 -35 176 -133 176c-60 0 -126 -24 -189 -56v-422l55 -1v-35h-152v35l56 1v463l-56 2v35h97v-44c57 30 122 58 192 58c133 0 171 -69 171 -212v-302l55 -1v-35zM469 737c0 -77 -18 -125 -83 -125c-36 0 -56 17 -88 48l-45 44c-26 26 -39 39 -65 39
c-43 0 -48 -41 -48 -92v-35h-35v35c0 77 19 124 83 124c38 0 58 -14 88 -44l46 -45c27 -27 41 -41 64 -41c42 0 47 41 47 92v34h36v-34z" />
    <glyph glyph-name="oacute" unicode="&#xf3;" horiz-adv-x="543" 
d="M489 252c0 -176 -65 -264 -218 -264s-217 88 -218 264v34c0 176 65 264 218 264s218 -88 218 -264v-34zM449 252v34c0 161 -53 227 -178 227c-124 0 -176 -66 -177 -227v-34c1 -161 52 -228 177 -228s177 68 178 228zM401 770l-145 -154h-43l138 154h50z" />
    <glyph glyph-name="ograve" unicode="&#xf2;" horiz-adv-x="543" 
d="M489 252c0 -176 -65 -264 -218 -264s-217 88 -218 264v34c0 176 65 264 218 264s218 -88 218 -264v-34zM449 252v34c0 161 -53 227 -178 227c-124 0 -176 -66 -177 -227v-34c1 -161 52 -228 177 -228s177 68 178 228zM323 616h-43l-145 154h50z" />
    <glyph glyph-name="ocircumflex" unicode="&#xf4;" horiz-adv-x="543" 
d="M489 252c0 -176 -65 -264 -218 -264s-217 88 -218 264v34c0 176 65 264 218 264s218 -88 218 -264v-34zM449 252v34c0 161 -53 227 -178 227c-124 0 -176 -66 -177 -227v-34c1 -161 52 -228 177 -228s177 68 178 228zM437 616h-44l-122 128l-121 -128h-44l141 154h48z
" />
    <glyph glyph-name="odieresis" unicode="&#xf6;" horiz-adv-x="543" 
d="M489 252c0 -176 -65 -264 -218 -264s-217 88 -218 264v34c0 176 65 264 218 264s218 -88 218 -264v-34zM449 252v34c0 161 -53 227 -178 227c-124 0 -176 -66 -177 -227v-34c1 -161 52 -228 177 -228s177 68 178 228zM403 640h-38v120h38v-120zM173 640v120h-38v-120h38z
" />
    <glyph glyph-name="otilde" unicode="&#xf5;" horiz-adv-x="543" 
d="M489 252c0 -176 -65 -264 -218 -264s-217 88 -218 264v34c0 176 65 264 218 264s218 -88 218 -264v-34zM449 252v34c0 161 -53 227 -178 227c-124 0 -176 -66 -177 -227v-34c1 -161 52 -228 177 -228s177 68 178 228zM454 737c0 -77 -18 -125 -83 -125
c-36 0 -56 17 -88 48l-45 44c-26 26 -39 39 -65 39c-43 0 -48 -41 -48 -92v-35h-35v35c0 77 19 124 83 124c38 0 58 -14 88 -44l46 -45c27 -27 41 -41 64 -41c42 0 47 41 47 92v34h36v-34z" />
    <glyph glyph-name="uacute" unicode="&#xfa;" horiz-adv-x="601" 
d="M559 0h-98v45c-58 -31 -120 -57 -195 -57c-130 0 -167 73 -167 212v300l-57 1v35h98v-336c0 -133 35 -177 133 -177c65 0 128 26 188 57v420l-56 1v35h97v-500l57 -1v-35zM408 770l-145 -154h-43l138 154h50z" />
    <glyph glyph-name="ugrave" unicode="&#xf9;" horiz-adv-x="601" 
d="M559 0h-98v45c-58 -31 -120 -57 -195 -57c-130 0 -167 73 -167 212v300l-57 1v35h98v-336c0 -133 35 -177 133 -177c65 0 128 26 188 57v420l-56 1v35h97v-500l57 -1v-35zM362 616h-43l-145 154h50z" />
    <glyph glyph-name="Agrave" unicode="&#xc0;" horiz-adv-x="713" 
d="M694 0h-156v34l55 2l-84 247h-298l-84 -247l55 -2v-34h-155v35l55 1l236 671l-64 2v35h135l249 -708l56 -1v-35zM496 321l-100 280c-11 37 -23 74 -34 109h-4c-11 -35 -22 -71 -34 -109l-100 -280h272zM404 793h-43l-145 154h50z" />
    <glyph glyph-name="Atilde" unicode="&#xc3;" horiz-adv-x="713" 
d="M694 0h-156v34l55 2l-84 247h-298l-84 -247l55 -2v-34h-155v35l55 1l236 671l-64 2v35h135l249 -708l56 -1v-35zM496 321l-100 280c-11 37 -23 74 -34 109h-4c-11 -35 -22 -71 -34 -109l-100 -280h272zM542 914c0 -77 -18 -125 -83 -125c-36 0 -56 17 -88 48l-45 44
c-26 26 -39 39 -65 39c-43 0 -48 -41 -48 -92v-35h-35v35c0 77 19 124 83 124c38 0 58 -14 88 -44l46 -45c27 -27 41 -41 64 -41c42 0 47 41 47 92v34h36v-34z" />
    <glyph glyph-name="Otilde" unicode="&#xd5;" horiz-adv-x="653" 
d="M601 347c0 -258 -104 -359 -275 -359c-170 0 -274 101 -274 359v49c0 259 105 358 274 358c170 0 275 -99 275 -358v-49zM559 347v49c0 248 -98 321 -233 321s-232 -73 -232 -321v-49c0 -248 98 -322 232 -322c135 0 233 74 233 322zM508 914c0 -77 -18 -125 -83 -125
c-36 0 -56 17 -88 48l-45 44c-26 26 -39 39 -65 39c-43 0 -48 -41 -48 -92v-35h-35v35c0 77 19 124 83 124c38 0 58 -14 88 -44l46 -45c27 -27 41 -41 64 -41c42 0 47 41 47 92v34h36v-34z" />
    <glyph glyph-name="ydieresis" unicode="&#xff;" horiz-adv-x="600" 
d="M571 501l-63 -1l-192 -537c-44 -124 -76 -178 -181 -178c-28 0 -58 3 -83 6v32c36 -2 59 -3 82 -3c73 0 107 27 143 149l9 31l-193 500l-62 1v35h160v-34l-55 -1l130 -344c14 -36 26 -69 39 -104h2c11 33 23 69 35 104l122 344l-53 1v34h160v-35zM440 640h-38v120h38
v-120zM210 640v120h-38v-120h38z" />
    <glyph glyph-name="Ydieresis" unicode="&#x178;" horiz-adv-x="636" 
d="M604 708l-57 -1l-208 -400v-270l67 -1v-36h-176v36l67 1v269l-209 401l-56 1v35h154v-34l-52 -2l138 -262c16 -31 32 -66 46 -93h1c14 27 29 61 45 93l138 262l-52 2v34h154v-35zM454 811h-38v120h38v-120zM224 811v120h-38v-120h38z" />
    <glyph glyph-name="Acircumflex" unicode="&#xc2;" horiz-adv-x="713" 
d="M694 0h-156v34l55 2l-84 247h-298l-84 -247l55 -2v-34h-155v35l55 1l236 671l-64 2v35h135l249 -708l56 -1v-35zM496 321l-100 280c-11 37 -23 74 -34 109h-4c-11 -35 -22 -71 -34 -109l-100 -280h272zM526 792h-44l-122 128l-121 -128h-44l141 154h48z" />
    <glyph glyph-name="Aacute" unicode="&#xc1;" horiz-adv-x="713" 
d="M694 0h-156v34l55 2l-84 247h-298l-84 -247l55 -2v-34h-155v35l55 1l236 671l-64 2v35h135l249 -708l56 -1v-35zM496 321l-100 280c-11 37 -23 74 -34 109h-4c-11 -35 -22 -71 -34 -109l-100 -280h272zM515 947l-145 -154h-43l138 154h50z" />
    <glyph glyph-name="Iacute" unicode="&#xcd;" horiz-adv-x="257" 
d="M209 0h-161v35l60 1v671l-60 1v35h161v-35l-60 -1v-671l60 -1v-35zM278 947l-145 -154h-43l138 154h50z" />
    <glyph glyph-name="Icircumflex" unicode="&#xce;" horiz-adv-x="257" 
d="M209 0h-161v35l60 1v671l-60 1v35h161v-35l-60 -1v-671l60 -1v-35zM294 793h-44l-122 128l-121 -128h-44l141 154h48z" />
    <glyph glyph-name="Idieresis" unicode="&#xcf;" horiz-adv-x="257" 
d="M209 0h-161v35l60 1v671l-60 1v35h161v-35l-60 -1v-671l60 -1v-35zM263 802h-38v120h38v-120zM33 802v120h-38v-120h38z" />
    <glyph glyph-name="Igrave" unicode="&#xcc;" horiz-adv-x="257" 
d="M209 0h-161v35l60 1v671l-60 1v35h161v-35l-60 -1v-671l60 -1v-35zM172 793h-43l-145 154h50z" />
    <glyph glyph-name="Oacute" unicode="&#xd3;" horiz-adv-x="653" 
d="M601 347c0 -258 -104 -359 -275 -359c-170 0 -274 101 -274 359v49c0 259 105 358 274 358c170 0 275 -99 275 -358v-49zM559 347v49c0 248 -98 321 -233 321s-232 -73 -232 -321v-49c0 -248 98 -322 232 -322c135 0 233 74 233 322zM470 947l-145 -154h-43l138 154h50z
" />
    <glyph glyph-name="Ocircumflex" unicode="&#xd4;" horiz-adv-x="653" 
d="M601 347c0 -258 -104 -359 -275 -359c-170 0 -274 101 -274 359v49c0 259 105 358 274 358c170 0 275 -99 275 -358v-49zM559 347v49c0 248 -98 321 -233 321s-232 -73 -232 -321v-49c0 -248 98 -322 232 -322c135 0 233 74 233 322zM492 793h-44l-122 128l-121 -128h-44
l141 154h48z" />
    <glyph glyph-name="Ograve" unicode="&#xd2;" horiz-adv-x="653" 
d="M601 347c0 -258 -104 -359 -275 -359c-170 0 -274 101 -274 359v49c0 259 105 358 274 358c170 0 275 -99 275 -358v-49zM559 347v49c0 248 -98 321 -233 321s-232 -73 -232 -321v-49c0 -248 98 -322 232 -322c135 0 233 74 233 322zM374 793h-43l-145 154h50z" />
    <glyph glyph-name="Uacute" unicode="&#xda;" horiz-adv-x="720" 
d="M677 708l-64 -1v-378c0 -224 -69 -339 -253 -339s-253 115 -253 339v378l-64 1v35h166v-35l-60 -1v-375c0 -210 50 -304 211 -304s212 94 212 304v375l-61 1v35h166v-35zM507 948l-145 -154h-43l138 154h50z" />
    <glyph glyph-name="Ucircumflex" unicode="&#xdb;" horiz-adv-x="720" 
d="M677 708l-64 -1v-378c0 -224 -69 -339 -253 -339s-253 115 -253 339v378l-64 1v35h166v-35l-60 -1v-375c0 -210 50 -304 211 -304s212 94 212 304v375l-61 1v35h166v-35zM528 794h-44l-122 128l-121 -128h-44l141 154h48z" />
    <glyph glyph-name="Ugrave" unicode="&#xd9;" horiz-adv-x="720" 
d="M677 708l-64 -1v-378c0 -224 -69 -339 -253 -339s-253 115 -253 339v378l-64 1v35h166v-35l-60 -1v-375c0 -210 50 -304 211 -304s212 94 212 304v375l-61 1v35h166v-35zM413 794h-43l-145 154h50z" />
    <glyph glyph-name="q" unicode="q" horiz-adv-x="545" 
d="M511 -208h-153v34l56 2v189c-49 -20 -112 -29 -156 -29c-142 0 -206 69 -206 259v40c0 200 70 263 234 263c39 0 88 -2 169 -10v-712l56 -2v-34zM414 53v454c-50 5 -102 6 -128 6c-135 0 -193 -43 -193 -226v-40c0 -169 51 -223 171 -223c36 0 95 8 150 29z" />
    <glyph glyph-name="parenleft" unicode="(" horiz-adv-x="299" 
d="M265 -207h-40c-76 88 -166 250 -166 471v7c0 222 90 384 166 472h40c-88 -109 -165 -258 -165 -472v-7c0 -213 77 -362 165 -471z" />
    <glyph glyph-name="parenright" unicode=")" horiz-adv-x="299" 
d="M240 264c0 -221 -89 -383 -165 -471h-41c89 109 165 258 165 471v7c0 214 -76 363 -165 472h41c76 -88 165 -250 165 -472v-7z" />
    <glyph glyph-name="asterisk" unicode="*" horiz-adv-x="492" 
d="M435 621l-103 -33c-18 -6 -39 -12 -58 -16c12 -15 27 -33 37 -47l64 -87l-31 -23l-63 87c-11 15 -23 34 -34 51c-10 -17 -22 -36 -33 -51l-63 -87l-31 22l63 87c11 15 25 34 37 48c-19 4 -40 10 -58 16l-101 33l11 36l102 -33c18 -6 39 -14 57 -21c-2 18 -2 41 -2 58v110
h37v-110c0 -18 -1 -40 -2 -58c17 7 39 15 56 21l103 34z" />
    <glyph glyph-name="commaaccent" unicode="&#xf6c3;" horiz-adv-x="454" 
d="M256 -68l-101 -140h-42l94 140h49z" />
    <glyph glyph-name="dotlessj" unicode="&#xf6be;" horiz-adv-x="200" 
d="M138 -80c0 -90 -22 -135 -107 -135c-16 0 -40 2 -62 5v31c25 -2 44 -2 58 -2c58 0 70 27 70 101v579l-58 2v35h99v-616z" />
    <glyph glyph-name="franc" unicode="&#x20a3;" horiz-adv-x="554" 
d="M517 623h-35l-3 83h-337v-297h349v-38h-349v-139h176v-37h-176v-159l63 -1v-35h-164v35l60 1v159h-63v37h63v475l-60 1v35h476v-120z" />
    <glyph glyph-name="Gbreve" unicode="&#x11e;" horiz-adv-x="606" 
d="M537 3c-58 -9 -128 -15 -194 -15c-173 0 -290 96 -290 358v51c0 272 120 357 291 357c84 0 161 -9 193 -14v-116h-34l-4 84c-38 4 -94 9 -151 9c-158 0 -253 -74 -253 -319v-52c0 -238 95 -320 252 -320c44 0 101 2 149 7v311l-126 3v34h167v-378zM485 952
c-7 -88 -41 -158 -155 -158c-113 0 -147 70 -154 158h32c7 -74 32 -128 122 -128c91 0 116 54 123 128h32z" />
    <glyph glyph-name="gbreve" unicode="&#x11f;" horiz-adv-x="538" 
d="M490 -44c0 -102 -56 -172 -222 -172c-168 0 -221 70 -221 173c0 57 23 99 55 129c-33 13 -50 43 -50 76c0 31 18 60 49 79c-32 31 -45 76 -45 126c0 95 31 183 209 183h215v-32l-86 -2c49 -22 76 -71 76 -149c0 -96 -44 -174 -207 -174c-64 0 -104 12 -136 29
c-24 -14 -39 -38 -39 -60c0 -31 18 -50 60 -50h116c161 0 226 -41 226 -156zM450 -44c0 88 -36 122 -186 122h-126c-30 -27 -51 -62 -51 -121c0 -83 35 -138 181 -138c142 0 182 54 182 137zM430 367c0 79 -21 148 -166 148c-151 0 -168 -72 -168 -148
c0 -78 26 -139 167 -139c142 0 167 61 167 139zM419 772c-7 -88 -41 -158 -155 -158c-113 0 -147 70 -154 158h32c7 -74 32 -128 122 -128c91 0 116 54 123 128h32z" />
    <glyph glyph-name="Scedilla" unicode="&#x15e;" horiz-adv-x="542" 
d="M496 182c0 -134 -111 -194 -234 -194c-76 0 -156 8 -199 15v113h34l3 -83c46 -5 105 -8 162 -8c96 0 192 42 192 157c0 86 -47 121 -163 176l-74 35c-103 49 -170 99 -170 199c0 115 88 163 229 163c78 0 153 -9 196 -16v-112h-34l-4 83c-37 4 -98 8 -157 8
c-114 0 -188 -31 -188 -126c0 -80 52 -118 147 -164l74 -36c124 -60 186 -103 186 -210zM310 -68l-133 -140h-44l126 140h51z" />
    <glyph glyph-name="scedilla" unicode="&#x15f;" horiz-adv-x="460" 
d="M413 129c0 -72 -48 -141 -189 -141c-69 0 -136 10 -170 19v94h34l3 -67c35 -5 80 -11 132 -11c109 0 149 47 149 106c0 60 -32 81 -134 125l-37 16c-100 41 -153 78 -153 153c0 86 64 127 189 127c59 0 123 -10 154 -17v-89h-33l-3 61c-30 4 -79 9 -117 9
c-99 0 -149 -24 -149 -91c0 -58 40 -79 129 -118l37 -16c113 -49 158 -80 158 -160zM268 -68l-133 -140h-44l126 140h51z" />
    <glyph glyph-name="Cacute" unicode="&#x106;" horiz-adv-x="563" 
d="M510 2c-20 -3 -90 -14 -172 -14c-185 0 -285 98 -285 360v47c0 262 100 359 285 359c82 0 154 -10 172 -13v-113h-34l-3 81c-31 3 -83 8 -135 8c-168 0 -244 -91 -244 -322v-47c0 -231 76 -322 244 -322c55 0 106 4 135 7l3 82h34v-113zM460 946l-145 -154h-43l138 154
h50z" />
    <glyph glyph-name="cacute" unicode="&#x107;" horiz-adv-x="452" 
d="M408 2c-53 -9 -94 -14 -141 -14c-147 0 -213 65 -213 263v36c0 193 69 263 213 263c47 0 90 -5 141 -14v-95h-33l-4 66c-45 6 -76 7 -99 7c-117 0 -177 -45 -177 -227v-36c0 -188 58 -228 177 -228c28 0 68 3 136 12v-33zM398 770l-145 -154h-43l138 154h50z" />
    <glyph glyph-name="Ccaron" unicode="&#x10c;" horiz-adv-x="563" 
d="M510 2c-20 -3 -90 -14 -172 -14c-185 0 -285 98 -285 360v47c0 262 100 359 285 359c82 0 154 -10 172 -13v-113h-34l-3 81c-31 3 -83 8 -135 8c-168 0 -244 -91 -244 -322v-47c0 -231 76 -322 244 -322c55 0 106 4 135 7l3 82h34v-113zM486 946l-149 -154h-49l-148 154
h44l128 -129l130 129h44z" />
    <glyph glyph-name="ccaron" unicode="&#x10d;" horiz-adv-x="452" 
d="M408 2c-53 -9 -94 -14 -141 -14c-147 0 -213 65 -213 263v36c0 193 69 263 213 263c47 0 90 -5 141 -14v-95h-33l-4 66c-45 6 -76 7 -99 7c-117 0 -177 -45 -177 -227v-36c0 -188 58 -228 177 -228c28 0 68 3 136 12v-33zM427 770l-149 -154h-49l-148 154h44l128 -129
l130 129h44z" />
    <glyph glyph-name="Amacron" unicode="&#x100;" horiz-adv-x="713" 
d="M694 0h-156v34l55 2l-84 247h-298l-84 -247l55 -2v-34h-155v35l55 1l236 671l-64 2v35h135l249 -708l56 -1v-35zM496 321l-100 280c-11 37 -23 74 -34 109h-4c-11 -35 -22 -71 -34 -109l-100 -280h272zM532 837h-343v34h343v-34z" />
    <glyph glyph-name="amacron" unicode="&#x101;" 
d="M491 0h-95v42c-42 -24 -108 -54 -186 -54c-110 0 -162 50 -162 157v9c0 132 79 162 243 162h103v52c0 116 -27 146 -159 146c-26 0 -60 -1 -112 -5l-3 -65h-34v92c59 7 105 14 151 14c164 0 198 -50 198 -182v-332l56 -1v-35zM394 74v209h-103c-146 0 -202 -22 -202 -129
v-11c0 -89 45 -122 127 -122c72 0 141 31 178 53zM429 672h-343v34h343v-34z" />
    <glyph glyph-name="Abreve" unicode="&#x102;" horiz-adv-x="713" 
d="M694 0h-156v34l55 2l-84 247h-298l-84 -247l55 -2v-34h-155v35l55 1l236 671l-64 2v35h135l249 -708l56 -1v-35zM496 321l-100 280c-11 37 -23 74 -34 109h-4c-11 -35 -22 -71 -34 -109l-100 -280h272zM515 951c-7 -88 -41 -158 -155 -158c-113 0 -147 70 -154 158h32
c7 -74 32 -128 122 -128c91 0 116 54 123 128h32z" />
    <glyph glyph-name="abreve" unicode="&#x103;" 
d="M491 0h-95v42c-42 -24 -108 -54 -186 -54c-110 0 -162 50 -162 157v9c0 132 79 162 243 162h103v52c0 116 -27 146 -159 146c-26 0 -60 -1 -112 -5l-3 -65h-34v92c59 7 105 14 151 14c164 0 198 -50 198 -182v-332l56 -1v-35zM394 74v209h-103c-146 0 -202 -22 -202 -129
v-11c0 -89 45 -122 127 -122c72 0 141 31 178 53zM420 772c-7 -88 -41 -158 -155 -158c-113 0 -147 70 -154 158h32c7 -74 32 -128 122 -128c91 0 116 54 123 128h32z" />
    <glyph glyph-name="Aogonek" unicode="&#x104;" horiz-adv-x="713" 
d="M694 0c-107 -45 -163 -75 -163 -128c0 -39 23 -60 84 -60c33 0 65 4 81 7v-26c-16 -5 -51 -10 -84 -10c-83 0 -117 34 -117 88c0 58 59 99 128 129h-85v34l55 2l-84 247h-298l-84 -247l55 -2v-34h-155v35l55 1l236 671l-64 2v35h135l249 -708l56 -1v-35zM496 321
l-100 280c-13 36 -23 74 -34 109h-4c-11 -36 -21 -74 -34 -109l-100 -280h272z" />
    <glyph glyph-name="aogonek" unicode="&#x105;" 
d="M491 0c-107 -45 -165 -75 -165 -128c0 -39 23 -60 84 -60c33 0 65 4 81 7v-26c-16 -5 -51 -10 -84 -10c-83 0 -117 34 -117 88c0 60 65 99 136 129h-30v42c-42 -24 -108 -54 -186 -54c-110 0 -162 50 -162 157v9c0 132 79 162 243 162h103v52c0 116 -27 146 -159 146
c-26 0 -60 -1 -112 -5l-3 -65h-34v92c59 7 105 14 151 14c164 0 198 -50 198 -182v-332l56 -1v-35zM394 74v209h-103c-146 0 -202 -22 -202 -129v-11c0 -89 45 -122 127 -122c72 0 141 31 178 53z" />
    <glyph glyph-name="Ccircumflex" unicode="&#x108;" horiz-adv-x="563" 
d="M510 2c-20 -3 -90 -14 -172 -14c-185 0 -285 98 -285 360v47c0 262 100 359 285 359c82 0 154 -10 172 -13v-113h-34l-3 81c-31 3 -83 8 -135 8c-168 0 -244 -91 -244 -322v-47c0 -231 76 -322 244 -322c55 0 106 4 135 7l3 82h34v-113zM465 792h-44l-122 128l-121 -128
h-44l141 154h48z" />
    <glyph glyph-name="ccircumflex" unicode="&#x109;" horiz-adv-x="452" 
d="M408 2c-53 -9 -94 -14 -141 -14c-147 0 -213 65 -213 263v36c0 193 69 263 213 263c47 0 90 -5 141 -14v-95h-33l-4 66c-45 6 -76 7 -99 7c-117 0 -177 -45 -177 -227v-36c0 -188 58 -228 177 -228c28 0 68 3 136 12v-33zM409 616h-44l-122 128l-121 -128h-44l141 154h48
z" />
    <glyph glyph-name="Cdotaccent" unicode="&#x10a;" horiz-adv-x="563" 
d="M510 2c-20 -3 -90 -14 -172 -14c-185 0 -285 98 -285 360v47c0 262 100 359 285 359c82 0 154 -10 172 -13v-113h-34l-3 81c-31 3 -83 8 -135 8c-168 0 -244 -91 -244 -322v-47c0 -231 76 -322 244 -322c55 0 106 4 135 7l3 82h34v-113zM344 812h-41v122h41v-122z" />
    <glyph glyph-name="cdotaccent" unicode="&#x10b;" horiz-adv-x="452" 
d="M408 2c-53 -9 -94 -14 -141 -14c-147 0 -213 65 -213 263v36c0 193 69 263 213 263c47 0 90 -5 141 -14v-95h-33l-4 66c-45 6 -76 7 -99 7c-117 0 -177 -45 -177 -227v-36c0 -188 58 -228 177 -228c28 0 68 3 136 12v-33zM274 647h-41v122h41v-122z" />
    <glyph glyph-name="Dcaron" unicode="&#x10e;" horiz-adv-x="660" 
d="M607 344c0 -242 -95 -352 -312 -352c-105 0 -156 8 -252 8v35l59 2v669l-59 2v35c96 0 140 7 252 7c214 0 312 -109 312 -351v-55zM565 344v55c0 234 -95 313 -273 313c-53 0 -103 -2 -148 -5v-670c42 -3 98 -7 148 -7c178 0 273 81 273 314zM483 947l-149 -154h-49
l-148 154h44l128 -129l130 129h44z" />
    <glyph glyph-name="dcaron" unicode="&#x10f;" horiz-adv-x="598" 
d="M618 771l-67 -229h-35l57 229h45zM511 0h-96v35c-38 -21 -97 -47 -168 -47c-133 0 -194 74 -194 259v40c0 196 76 263 224 263c32 0 73 -2 137 -10v195l-64 1v35h105v-735l56 -1v-35zM414 69v436c-59 7 -108 9 -134 9c-127 0 -186 -51 -186 -227v-40
c0 -165 47 -223 159 -223c64 0 121 24 161 45z" />
    <glyph glyph-name="Dcroat" unicode="&#x110;" horiz-adv-x="660" 
d="M607 344c0 -242 -96 -352 -312 -352c-106 0 -155 8 -252 8v35l59 2v332h-61v38h61v299l-59 2v35c97 0 142 7 252 7c214 0 312 -109 312 -351v-55zM565 344v55c0 234 -95 313 -273 313c-53 0 -104 -2 -148 -5v-300h181v-38h-181v-332c42 -3 98 -7 148 -7
c178 0 273 81 273 314z" />
    <glyph glyph-name="dcroat" unicode="&#x111;" horiz-adv-x="553" 
d="M512 0h-96v35c-38 -21 -97 -47 -168 -47c-133 0 -194 74 -194 259v40c0 196 76 263 224 263c32 0 73 -2 137 -10v76h-151v33h151v86l-64 1v35h105v-122h57v-33h-57v-580l56 -1v-35zM415 69v436c-59 7 -108 9 -135 9c-126 0 -185 -51 -185 -227v-40
c0 -165 47 -223 159 -223c64 0 121 24 161 45z" />
    <glyph glyph-name="emacron" unicode="&#x113;" horiz-adv-x="533" 
d="M485 257h-392v-14c0 -154 53 -219 198 -219c58 0 132 8 179 15v-34c-40 -8 -108 -17 -180 -17c-174 0 -238 79 -238 263v35c0 166 62 264 217 264c153 0 216 -94 216 -269v-24zM443 291v9c0 128 -41 213 -174 213c-139 0 -176 -92 -176 -214v-8h350zM446 672h-343v34h343
v-34z" />
    <glyph glyph-name="ebreve" unicode="&#x115;" horiz-adv-x="533" 
d="M485 257h-392v-14c0 -154 53 -219 198 -219c58 0 132 8 179 15v-34c-40 -8 -108 -17 -180 -17c-174 0 -238 79 -238 263v35c0 166 62 264 217 264c153 0 216 -94 216 -269v-24zM443 291v9c0 128 -41 213 -174 213c-139 0 -176 -92 -176 -214v-8h350zM429 772
c-7 -88 -41 -158 -155 -158c-113 0 -147 70 -154 158h32c7 -74 32 -128 122 -128c91 0 116 54 123 128h32z" />
    <glyph glyph-name="edotaccent" unicode="&#x117;" horiz-adv-x="533" 
d="M485 257h-392v-14c0 -154 53 -219 198 -219c58 0 132 8 179 15v-34c-40 -8 -108 -17 -180 -17c-174 0 -238 79 -238 263v35c0 166 62 264 217 264c153 0 216 -94 216 -269v-24zM443 291v9c0 128 -41 213 -174 213c-139 0 -176 -92 -176 -214v-8h350zM293 648h-41v122h41
v-122z" />
    <glyph glyph-name="eogonek" unicode="&#x119;" horiz-adv-x="533" 
d="M485 257h-392v-14c0 -154 53 -219 198 -219c58 0 132 8 179 15v-34c-107 -45 -165 -80 -165 -133c0 -39 23 -60 84 -60c33 0 65 4 81 7v-26c-16 -5 -51 -10 -84 -10c-83 0 -117 34 -117 88c0 53 49 92 110 121c-27 -2 -58 -4 -89 -4c-174 0 -238 79 -238 263v35
c0 166 62 264 217 264c153 0 216 -94 216 -269v-24zM443 291v9c0 128 -41 213 -174 213c-139 0 -176 -92 -176 -214v-8h350z" />
    <glyph glyph-name="ecaron" unicode="&#x11b;" horiz-adv-x="533" 
d="M485 257h-392v-14c0 -154 53 -219 198 -219c58 0 132 8 179 15v-34c-40 -8 -108 -17 -180 -17c-174 0 -238 79 -238 263v35c0 166 62 264 217 264c153 0 216 -94 216 -269v-24zM443 291v9c0 128 -41 213 -174 213c-139 0 -176 -92 -176 -214v-8h350zM445 770l-149 -154
h-49l-148 154h44l128 -129l130 129h44z" />
    <glyph glyph-name="Gcircumflex" unicode="&#x11c;" horiz-adv-x="606" 
d="M537 3c-58 -9 -128 -15 -194 -15c-173 0 -290 96 -290 358v51c0 272 120 357 291 357c84 0 161 -9 193 -14v-116h-34l-4 84c-38 4 -94 9 -151 9c-158 0 -253 -74 -253 -319v-52c0 -238 95 -320 252 -320c44 0 101 2 149 7v311l-126 3v34h167v-378zM491 794h-44l-122 128
l-121 -128h-44l141 154h48z" />
    <glyph glyph-name="gcircumflex" unicode="&#x11d;" horiz-adv-x="538" 
d="M490 -44c0 -102 -56 -172 -222 -172c-168 0 -221 70 -221 173c0 57 23 99 55 129c-33 13 -50 43 -50 76c0 31 18 60 49 79c-32 31 -45 76 -45 126c0 95 31 183 209 183h215v-32l-86 -2c49 -22 76 -71 76 -149c0 -96 -44 -174 -207 -174c-64 0 -104 12 -136 29
c-24 -14 -39 -38 -39 -60c0 -31 18 -50 60 -50h116c161 0 226 -41 226 -156zM450 -44c0 88 -36 122 -186 122h-126c-30 -27 -51 -62 -51 -121c0 -83 35 -138 181 -138c142 0 182 54 182 137zM430 367c0 79 -21 148 -166 148c-151 0 -168 -72 -168 -148
c0 -78 26 -139 167 -139c142 0 167 61 167 139zM429 616h-44l-122 128l-121 -128h-44l141 154h48z" />
    <glyph glyph-name="Gdotaccent" unicode="&#x120;" horiz-adv-x="606" 
d="M537 3c-58 -9 -128 -15 -194 -15c-173 0 -290 96 -290 358v51c0 272 120 357 291 357c84 0 161 -9 193 -14v-116h-34l-4 84c-38 4 -94 9 -151 9c-158 0 -253 -74 -253 -319v-52c0 -238 95 -320 252 -320c44 0 101 2 149 7v311l-126 3v34h167v-378zM340 813h-41v122h41
v-122z" />
    <glyph glyph-name="gdotaccent" unicode="&#x121;" horiz-adv-x="538" 
d="M490 -44c0 -102 -56 -172 -222 -172c-168 0 -221 70 -221 173c0 57 23 99 55 129c-33 13 -50 43 -50 76c0 31 18 60 49 79c-32 31 -45 76 -45 126c0 95 31 183 209 183h215v-32l-86 -2c49 -22 76 -71 76 -149c0 -96 -44 -174 -207 -174c-64 0 -104 12 -136 29
c-24 -14 -39 -38 -39 -60c0 -31 18 -50 60 -50h116c161 0 226 -41 226 -156zM450 -44c0 88 -36 122 -186 122h-126c-30 -27 -51 -62 -51 -121c0 -83 35 -138 181 -138c142 0 182 54 182 137zM430 367c0 79 -21 148 -166 148c-151 0 -168 -72 -168 -148
c0 -78 26 -139 167 -139c142 0 167 61 167 139zM283 648h-41v122h41v-122z" />
    <glyph glyph-name="Gcommaaccent" unicode="&#x122;" horiz-adv-x="606" 
d="M537 3c-58 -9 -128 -15 -194 -15c-173 0 -290 96 -290 358v51c0 272 120 357 291 357c84 0 161 -9 193 -14v-116h-34l-4 84c-38 4 -94 9 -151 9c-158 0 -253 -74 -253 -319v-52c0 -238 95 -320 252 -320c44 0 101 2 149 7v311l-126 3v34h167v-378zM375 -68l-101 -140h-42
l94 140h49z" />
    <glyph glyph-name="gcommaaccent" unicode="&#x123;" horiz-adv-x="538" 
d="M490 -44c0 -102 -56 -172 -222 -172c-168 0 -221 70 -221 173c0 57 23 99 55 129c-33 13 -50 43 -50 76c0 31 18 60 49 79c-32 31 -45 76 -45 126c0 95 31 183 209 183h215v-32l-86 -2c49 -22 76 -71 76 -149c0 -96 -44 -174 -207 -174c-64 0 -104 12 -136 29
c-24 -14 -39 -38 -39 -60c0 -31 18 -50 60 -50h116c161 0 226 -41 226 -156zM450 -44c0 88 -36 122 -186 122h-126c-30 -27 -51 -62 -51 -121c0 -83 35 -138 181 -138c142 0 182 54 182 137zM430 367c0 79 -21 148 -166 148c-151 0 -168 -72 -168 -148
c0 -78 26 -139 167 -139c142 0 167 61 167 139zM394 757l-94 -141h-49l101 141h42z" />
    <glyph glyph-name="Hcircumflex" unicode="&#x124;" horiz-adv-x="730" 
d="M207 708l-60 -1v-289h436v289l-60 1v35h161v-35l-59 -1v-671l59 -1v-35h-161v35l60 1v343h-436v-343l60 -1v-35h-162v35l60 1v671l-60 1v35h162v-35zM531 794h-44l-122 128l-121 -128h-44l141 154h48z" />
    <glyph glyph-name="hcircumflex" unicode="&#x125;" horiz-adv-x="604" 
d="M560 0h-97v337c0 134 -39 176 -137 176c-66 0 -136 -26 -185 -52v-425l56 -1v-35h-154v35l57 1v699l-57 1v35h98v-275c47 24 114 54 191 54c125 0 172 -65 172 -212v-302l56 -1v-35zM467 795h-44l-122 128l-121 -128h-44l141 154h48z" />
    <glyph glyph-name="Hbar" unicode="&#x126;" horiz-adv-x="730" 
d="M207 708l-60 -1v-122h436v122l-60 1v35h161v-35l-59 -1v-122h69v-37h-69v-512l59 -1v-35h-161v35l60 1v343h-436v-343l60 -1v-35h-162v35l60 1v512h-70v37h70v122l-60 1v35h162v-35zM147 418h436v130h-436v-130z" />
    <glyph glyph-name="hbar" unicode="&#x127;" horiz-adv-x="604" 
d="M560 0h-97v337c0 134 -39 176 -137 176c-66 0 -136 -26 -185 -52v-425l56 -1v-35h-154v35l57 1v580h-58v34h58v85l-57 1v35h98v-121h175v-34h-175v-120c47 24 114 54 191 54c125 0 172 -65 172 -212v-302l56 -1v-35z" />
    <glyph glyph-name="Itilde" unicode="&#x128;" horiz-adv-x="257" 
d="M209 0h-161v35l60 1v671l-60 1v35h161v-35l-60 -1v-671l60 -1v-35zM310 914c0 -77 -18 -125 -83 -125c-36 0 -56 17 -88 48l-45 44c-26 26 -39 39 -65 39c-43 0 -48 -41 -48 -92v-35h-35v35c0 77 19 124 83 124c38 0 58 -14 88 -44l46 -45c27 -27 41 -41 64 -41
c42 0 47 41 47 92v34h36v-34z" />
    <glyph glyph-name="itilde" unicode="&#x129;" horiz-adv-x="245" 
d="M300 737c0 -77 -18 -125 -83 -125c-36 0 -56 17 -88 48l-45 44c-26 26 -39 39 -65 39c-43 0 -48 -41 -48 -92v-35h-35v35c0 77 19 124 83 124c38 0 58 -14 88 -44l46 -45c27 -27 41 -41 64 -41c42 0 47 41 47 92v34h36v-34zM199 0h-154v35l57 1v463l-57 2v35h98v-500
l56 -1v-35z" />
    <glyph glyph-name="Imacron" unicode="&#x12a;" horiz-adv-x="257" 
d="M209 0h-161v35l60 1v671l-60 1v35h161v-35l-60 -1v-671l60 -1v-35zM299 832h-343v34h343v-34z" />
    <glyph glyph-name="imacron" unicode="&#x12b;" horiz-adv-x="245" 
d="M290 672h-343v34h343v-34zM199 0h-154v35l57 1v463l-57 2v35h98v-500l56 -1v-35z" />
    <glyph glyph-name="Ibreve" unicode="&#x12c;" horiz-adv-x="257" 
d="M209 0h-161v35l60 1v671l-60 1v35h161v-35l-60 -1v-671l60 -1v-35zM282 945c-7 -88 -41 -158 -155 -158c-113 0 -147 70 -154 158h32c7 -74 32 -128 122 -128c91 0 116 54 123 128h32z" />
    <glyph glyph-name="ibreve" unicode="&#x12d;" horiz-adv-x="245" 
d="M275 772c-7 -88 -41 -158 -155 -158c-113 0 -147 70 -154 158h32c7 -74 32 -128 122 -128c91 0 116 54 123 128h32zM199 0h-154v35l57 1v463l-57 2v35h98v-500l56 -1v-35z" />
    <glyph glyph-name="Iogonek" unicode="&#x12e;" horiz-adv-x="257" 
d="M222 -207c-16 -5 -51 -10 -84 -10c-83 0 -117 34 -117 88c0 57 55 101 120 129h-93v35l60 1v671l-60 1v35h161v-35l-60 -1v-671l60 -1v-35c-107 -45 -152 -75 -152 -128c0 -39 23 -60 84 -60c33 0 65 4 81 7v-26z" />
    <glyph glyph-name="iogonek" unicode="&#x12f;" horiz-adv-x="245" 
d="M222 -207c-16 -5 -51 -10 -84 -10c-83 0 -117 33 -117 91c0 54 51 96 112 126h-88v35l57 1v463l-57 2v35h98v-500l56 -1v-35c-91 -40 -142 -76 -142 -125c0 -43 23 -63 84 -63c33 0 65 4 81 7v-26zM143 646h-41v125h41v-125z" />
    <glyph glyph-name="Idotaccent" unicode="&#x130;" horiz-adv-x="257" 
d="M209 0h-161v35l60 1v671l-60 1v35h161v-35l-60 -1v-671l60 -1v-35zM149 802h-41v122h41v-122z" />
    <glyph glyph-name="IJ" unicode="&#x132;" horiz-adv-x="491" 
d="M442 708l-59 -1v-760c0 -93 -18 -154 -125 -154c-20 0 -48 3 -64 5v32c23 0 42 -1 62 -1c80 0 86 44 86 118v760l-58 1v35h158v-35zM209 0h-160v35l59 1v671l-59 1v35h160v-35l-59 -1v-671l59 -1v-35z" />
    <glyph glyph-name="ij" unicode="&#x133;" horiz-adv-x="426" 
d="M199 0h-154v35l57 1v463l-57 2v35h98v-500l56 -1v-35zM143 646h-41v125h41v-125zM356 -81c0 -91 -22 -134 -108 -134c-15 0 -40 1 -62 4v31c26 -1 44 -2 59 -2c58 0 70 28 70 101v580l-56 2v35h97v-617zM356 645h-42v126h42v-126z" />
    <glyph glyph-name="Jcircumflex" unicode="&#x134;" horiz-adv-x="255" 
d="M207 708l-60 -1v-759c0 -93 -18 -154 -125 -154c-20 0 -48 2 -64 5v32c23 0 42 -1 62 -1c80 0 86 43 86 118v759l-59 1v35h160v-35zM293 793h-44l-122 128l-121 -128h-44l141 154h48z" />
    <glyph glyph-name="jcircumflex" unicode="&#x135;" horiz-adv-x="213" 
d="M284 616h-44l-122 128l-121 -128h-44l141 154h48zM143 -81c0 -91 -22 -134 -108 -134c-15 0 -40 1 -62 4v31c26 -1 44 -2 59 -2c58 0 70 28 70 101v580l-56 2v35h97v-617z" />
    <glyph glyph-name="Kcommaaccent" unicode="&#x136;" horiz-adv-x="628" 
d="M593 0h-82l-363 370v-334l60 -1v-35h-161v35l59 1v671l-59 1v35h161v-35l-60 -1v-320l363 356h79v-35l-57 -1l-336 -328l339 -343l57 -1v-35zM376 -68l-101 -140h-42l94 140h49z" />
    <glyph glyph-name="kcommaaccent" unicode="&#x137;" horiz-adv-x="510" 
d="M197 0h-155v35l57 1v699l-57 1v35h98v-482l259 247h81v-35l-61 -2l-230 -216l235 -247l57 -1v-35h-81l-260 277v-241l57 -1v-35zM261 -68l-101 -140h-42l94 140h49z" />
    <glyph glyph-name="kgreenlandic" unicode="&#x138;" horiz-adv-x="510" 
d="M482 0h-79l-262 277v-277h-97v35l57 1v463l-57 2v35h97v-247l261 247h79v-35l-61 -2l-230 -216l236 -247l56 -1v-35z" />
    <glyph glyph-name="Lacute" unicode="&#x139;" horiz-adv-x="563" 
d="M516 0h-470v35l60 1v671l-60 1v35h166v-35l-64 -1v-670h330l3 87h35v-124zM437 946l-145 -154h-43l138 154h50z" />
    <glyph glyph-name="lacute" unicode="&#x13a;" horiz-adv-x="245" 
d="M199 0h-154v35l57 1v699l-57 1v35h98v-735l56 -1v-35zM269 948l-145 -154h-43l138 154h50z" />
    <glyph glyph-name="Lcommaaccent" unicode="&#x13b;" horiz-adv-x="563" 
d="M516 0h-470v35l60 1v671l-60 1v35h166v-35l-64 -1v-670h330l3 87h35v-124zM326 -68l-101 -140h-42l94 140h49z" />
    <glyph glyph-name="lcommaaccent" unicode="&#x13c;" horiz-adv-x="245" 
d="M199 0h-154v35l57 1v699l-57 1v35h98v-735l56 -1v-35zM166 -68l-101 -140h-42l94 140h49z" />
    <glyph glyph-name="Lcaron" unicode="&#x13d;" horiz-adv-x="563" 
d="M453 771l-71 -229h-35l60 229h46zM516 0h-470v35l60 1v671l-60 1v35h166v-35l-64 -1v-670h330l3 87h35v-124z" />
    <glyph glyph-name="lcaron" unicode="&#x13e;" horiz-adv-x="320" 
d="M199 0h-154v35l57 1v699l-57 1v35h98v-735l56 -1v-35zM340 771l-68 -229h-34l57 229h45z" />
    <glyph glyph-name="Ldot" unicode="&#x13f;" horiz-adv-x="563" 
d="M371 342h-40v123h40v-123zM516 0h-470v35l60 1v671l-60 1v35h166v-35l-64 -1v-670h330l3 87h35v-124z" />
    <glyph glyph-name="ldot" unicode="&#x140;" horiz-adv-x="318" 
d="M238 336v118h41v-118h-41zM199 0h-154v35l57 1v699l-57 1v35h98v-735l56 -1v-35z" />
    <glyph glyph-name="Nacute" unicode="&#x143;" horiz-adv-x="715" 
d="M672 708l-60 -1v-709h-58l-364 619c-17 28 -34 56 -48 84h-2c1 -33 2 -67 2 -100v-565l61 -1v-35h-160v35l60 1v671l-60 1v35h118l364 -613c16 -27 32 -57 48 -86h1c-1 34 -2 69 -2 104v559l-60 1v35h160v-35zM505 948l-145 -154h-43l138 154h50z" />
    <glyph glyph-name="nacute" unicode="&#x144;" horiz-adv-x="600" 
d="M557 0h-96v338c0 132 -35 176 -133 176c-60 0 -126 -24 -189 -56v-422l55 -1v-35h-152v35l56 1v463l-56 2v35h97v-44c57 30 122 58 192 58c133 0 171 -69 171 -212v-302l55 -1v-35zM428 770l-145 -154h-43l138 154h50z" />
    <glyph glyph-name="Ncommaaccent" unicode="&#x145;" horiz-adv-x="715" 
d="M672 708l-60 -1v-709h-58l-364 619c-17 28 -34 56 -48 84h-2c1 -33 2 -67 2 -100v-565l61 -1v-35h-160v35l60 1v671l-60 1v35h118l364 -613c16 -27 32 -57 48 -86h1c-1 34 -2 69 -2 104v559l-60 1v35h160v-35zM395 -68l-101 -140h-42l94 140h49z" />
    <glyph glyph-name="ncommaaccent" unicode="&#x146;" horiz-adv-x="600" 
d="M557 0h-96v338c0 132 -35 176 -133 176c-60 0 -126 -24 -189 -56v-422l55 -1v-35h-152v35l56 1v463l-56 2v35h97v-44c57 30 122 58 192 58c133 0 171 -69 171 -212v-302l55 -1v-35zM336 -68l-101 -140h-42l94 140h49z" />
    <glyph glyph-name="Ncaron" unicode="&#x147;" horiz-adv-x="715" 
d="M672 708l-60 -1v-709h-58l-364 619c-17 28 -34 56 -48 84h-2c1 -33 2 -67 2 -100v-565l61 -1v-35h-160v35l60 1v671l-60 1v35h118l364 -613c16 -27 32 -57 48 -86h1c-1 34 -2 69 -2 104v559l-60 1v35h160v-35zM531 947l-149 -154h-49l-148 154h44l128 -129l130 129h44z
" />
    <glyph glyph-name="ncaron" unicode="&#x148;" horiz-adv-x="600" 
d="M557 0h-96v338c0 132 -35 176 -133 176c-60 0 -126 -24 -189 -56v-422l55 -1v-35h-152v35l56 1v463l-56 2v35h97v-44c57 30 122 58 192 58c133 0 171 -69 171 -212v-302l55 -1v-35zM466 770l-149 -154h-49l-148 154h44l128 -129l130 129h44z" />
    <glyph glyph-name="napostrophe" unicode="&#x149;" horiz-adv-x="662" 
d="M621 0h-96v338c0 132 -35 176 -133 176c-60 0 -126 -24 -189 -56v-422l55 -1v-35h-152v35l56 1v463l-56 2v35h97v-44c57 30 122 58 192 58c133 0 171 -69 171 -212v-302l55 -1v-35zM112 771l-68 -229h-34l57 229h45z" />
    <glyph glyph-name="Eng" unicode="&#x14a;" horiz-adv-x="715" 
d="M672 708l-60 -1v-759c0 -93 -18 -154 -125 -154c-20 0 -48 2 -64 5v32c23 0 42 -1 62 -1c80 0 87 43 87 118v50l-382 619c-17 28 -34 58 -48 86h-2c1 -32 2 -69 2 -102v-565l61 -1v-35h-160v35l60 1v671l-60 1v35h112l382 -613c16 -27 22 -38 36 -65h1c-2 35 -2 48 -2 83
v559l-60 1v35h160v-35z" />
    <glyph glyph-name="eng" unicode="&#x14b;" horiz-adv-x="595" 
d="M501 -80c0 -90 -21 -135 -106 -135c-17 0 -41 2 -63 5v31c26 -2 44 -2 59 -2c57 0 69 27 69 101v418c0 132 -35 176 -133 176c-60 0 -125 -24 -189 -56v-422l56 -1v-35h-152v35l56 1v463l-56 2v35h96v-44c58 30 125 58 193 58c133 0 170 -69 170 -212v-418z" />
    <glyph glyph-name="Omacron" unicode="&#x14c;" horiz-adv-x="653" 
d="M601 347c0 -258 -104 -359 -275 -359c-170 0 -274 101 -274 359v49c0 259 105 358 274 358c170 0 275 -99 275 -358v-49zM559 347v49c0 248 -98 321 -233 321s-232 -73 -232 -321v-49c0 -248 98 -322 232 -322c135 0 233 74 233 322zM498 819h-343v34h343v-34z" />
    <glyph glyph-name="omacron" unicode="&#x14d;" horiz-adv-x="543" 
d="M489 252c0 -176 -65 -264 -218 -264s-217 88 -218 264v34c0 176 65 264 218 264s218 -88 218 -264v-34zM449 252v34c0 161 -53 227 -178 227c-124 0 -176 -66 -177 -227v-34c1 -161 52 -228 177 -228s177 68 178 228zM442 672h-343v34h343v-34z" />
    <glyph glyph-name="Obreve" unicode="&#x14e;" horiz-adv-x="653" 
d="M601 347c0 -258 -104 -359 -275 -359c-170 0 -274 101 -274 359v49c0 259 105 358 274 358c170 0 275 -99 275 -358v-49zM559 347v49c0 248 -98 321 -233 321s-232 -73 -232 -321v-49c0 -248 98 -322 232 -322c135 0 233 74 233 322zM481 951c-7 -88 -41 -158 -155 -158
c-113 0 -147 70 -154 158h32c7 -74 32 -128 122 -128c91 0 116 54 123 128h32z" />
    <glyph glyph-name="obreve" unicode="&#x14f;" horiz-adv-x="543" 
d="M489 252c0 -176 -65 -264 -218 -264s-217 88 -218 264v34c0 176 65 264 218 264s218 -88 218 -264v-34zM449 252v34c0 161 -53 227 -178 227c-124 0 -176 -66 -177 -227v-34c1 -161 52 -228 177 -228s177 68 178 228zM425 772c-7 -88 -41 -158 -155 -158
c-113 0 -147 70 -154 158h32c7 -74 32 -128 122 -128c91 0 116 54 123 128h32z" />
    <glyph glyph-name="Ohungarumlaut" unicode="&#x150;" horiz-adv-x="653" 
d="M601 347c0 -258 -104 -359 -275 -359c-170 0 -274 101 -274 359v49c0 259 105 358 274 358c170 0 275 -99 275 -358v-49zM559 347v49c0 248 -98 321 -233 321s-232 -73 -232 -321v-49c0 -248 98 -322 232 -322c135 0 233 74 233 322zM559 947l-145 -154h-43l138 154h50z
M368 947h-50l-138 -154h44z" />
    <glyph glyph-name="ohungarumlaut" unicode="&#x151;" horiz-adv-x="543" 
d="M489 252c0 -176 -65 -264 -218 -264s-217 88 -218 264v34c0 176 65 264 218 264s218 -88 218 -264v-34zM449 252v34c0 161 -53 227 -178 227c-124 0 -176 -66 -177 -227v-34c1 -161 52 -228 177 -228s177 68 178 228zM496 769l-145 -154h-43l138 154h50zM305 769h-50
l-138 -154h44z" />
    <glyph glyph-name="Racute" unicode="&#x154;" horiz-adv-x="647" 
d="M625 0h-80l-196 317c-24 -2 -51 -3 -69 -3c-46 0 -103 1 -136 2v-280l61 -1v-35h-162v35l60 1v671l-60 1v35c97 0 149 7 236 7c177 0 275 -56 275 -208v-10c0 -121 -51 -184 -160 -207l178 -289l53 -1v-35zM512 532v10c0 127 -76 171 -233 171c-40 0 -94 -4 -135 -6v-353
c39 -1 90 -2 136 -2c162 0 232 53 232 180zM453 947l-145 -154h-43l138 154h50z" />
    <glyph glyph-name="racute" unicode="&#x155;" horiz-adv-x="367" 
d="M352 513c-48 0 -136 -8 -212 -54v-423l63 -1v-35h-160v35l56 1v463l-56 2v35h96v-43c77 50 164 57 213 57v-37zM351 770l-145 -154h-43l138 154h50z" />
    <glyph glyph-name="Rcommaaccent" unicode="&#x156;" horiz-adv-x="647" 
d="M625 0h-80l-196 317c-24 -2 -51 -3 -69 -3c-46 0 -103 1 -136 2v-280l61 -1v-35h-162v35l60 1v671l-60 1v35c97 0 149 7 236 7c177 0 275 -56 275 -208v-10c0 -121 -51 -184 -160 -207l178 -289l53 -1v-35zM512 532v10c0 127 -76 171 -233 171c-40 0 -94 -4 -135 -6v-353
c39 -1 90 -2 136 -2c162 0 232 53 232 180zM327 -68l-101 -140h-42l94 140h49z" />
    <glyph glyph-name="rcommaaccent" unicode="&#x157;" horiz-adv-x="367" 
d="M352 513c-48 0 -136 -8 -212 -54v-423l63 -1v-35h-160v35l56 1v463l-56 2v35h96v-43c77 50 164 57 213 57v-37zM162 -68l-101 -140h-42l94 140h49z" />
    <glyph glyph-name="Rcaron" unicode="&#x158;" horiz-adv-x="647" 
d="M625 0h-80l-196 317c-24 -2 -51 -3 -69 -3c-46 0 -103 1 -136 2v-280l61 -1v-35h-162v35l60 1v671l-60 1v35c97 0 149 7 236 7c177 0 275 -56 275 -208v-10c0 -121 -51 -184 -160 -207l178 -289l53 -1v-35zM512 532v10c0 127 -76 171 -233 171c-40 0 -94 -4 -135 -6v-353
c39 -1 90 -2 136 -2c162 0 232 53 232 180zM465 947l-149 -154h-49l-148 154h44l128 -129l130 129h44z" />
    <glyph glyph-name="rcaron" unicode="&#x159;" horiz-adv-x="367" 
d="M353 513c-48 0 -136 -8 -212 -54v-423l63 -1v-35h-160v35l56 1v463l-56 2v35h96v-43c77 50 164 57 213 57v-37zM386 770l-149 -154h-49l-148 154h44l128 -129l130 129h44z" />
    <glyph glyph-name="Sacute" unicode="&#x15a;" horiz-adv-x="542" 
d="M496 182c0 -134 -111 -194 -234 -194c-76 0 -156 8 -199 15v113h34l3 -83c46 -5 105 -8 162 -8c96 0 192 42 192 157c0 86 -47 121 -163 176l-74 35c-103 49 -170 99 -170 199c0 115 88 163 229 163c78 0 153 -9 196 -16v-112h-34l-4 83c-37 4 -98 8 -157 8
c-114 0 -188 -31 -188 -126c0 -80 52 -118 147 -164l74 -36c124 -60 186 -103 186 -210zM410 947l-145 -154h-43l138 154h50z" />
    <glyph glyph-name="sacute" unicode="&#x15b;" horiz-adv-x="460" 
d="M413 129c0 -72 -48 -141 -189 -141c-69 0 -136 10 -170 19v94h34l3 -67c35 -5 80 -11 132 -11c109 0 149 47 149 106c0 60 -32 81 -134 125l-37 16c-100 41 -153 78 -153 153c0 86 64 127 189 127c59 0 123 -10 154 -17v-89h-33l-3 61c-30 4 -79 9 -117 9
c-99 0 -149 -24 -149 -91c0 -58 40 -79 129 -118l37 -16c113 -49 158 -80 158 -160zM374 770l-145 -154h-43l138 154h50z" />
    <glyph glyph-name="Scircumflex" unicode="&#x15c;" horiz-adv-x="542" 
d="M496 182c0 -134 -111 -194 -234 -194c-76 0 -156 8 -199 15v113h34l3 -83c46 -5 105 -8 162 -8c96 0 192 42 192 157c0 86 -47 121 -163 176l-74 35c-103 49 -170 99 -170 199c0 115 88 163 229 163c78 0 153 -9 196 -16v-112h-34l-4 83c-37 4 -98 8 -157 8
c-114 0 -188 -31 -188 -126c0 -80 52 -118 147 -164l74 -36c124 -60 186 -103 186 -210zM427 793h-44l-122 128l-121 -128h-44l141 154h48z" />
    <glyph glyph-name="scircumflex" unicode="&#x15d;" horiz-adv-x="460" 
d="M413 129c0 -72 -48 -141 -189 -141c-69 0 -136 10 -170 19v94h34l3 -67c35 -5 80 -11 132 -11c109 0 149 47 149 106c0 60 -32 81 -134 125l-37 16c-100 41 -153 78 -153 153c0 86 64 127 189 127c59 0 123 -10 154 -17v-89h-33l-3 61c-30 4 -79 9 -117 9
c-99 0 -149 -24 -149 -91c0 -58 40 -79 129 -118l37 -16c113 -49 158 -80 158 -160zM397 616h-44l-122 128l-121 -128h-44l141 154h48z" />
    <glyph glyph-name="Tcommaaccent" unicode="&#x162;" horiz-adv-x="612" 
d="M579 627h-34l-3 79h-215v-670l70 -2v-34h-182v34l70 2v670h-215l-3 -79h-34v116h546v-116zM341 -68l-101 -140h-42l94 140h49z" />
    <glyph glyph-name="tcommaaccent" unicode="&#x163;" horiz-adv-x="403" 
d="M365 -3c-28 -5 -68 -9 -94 -9c-85 0 -111 35 -111 130v383l-124 3v32h124v148h41v-148h164v-35h-164v-381c0 -77 13 -98 74 -98c23 0 59 1 90 5v-30zM286 -68l-101 -140h-42l94 140h49z" />
    <glyph glyph-name="Tcaron" unicode="&#x164;" horiz-adv-x="612" 
d="M579 627h-34l-3 79h-215v-670l70 -2v-34h-182v34l70 2v670h-215l-3 -79h-34v116h546v-116zM478 947l-149 -154h-49l-148 154h44l128 -129l130 129h44z" />
    <glyph glyph-name="tcaron" unicode="&#x165;" horiz-adv-x="403" 
d="M379 780l-55 -183h-35l45 183h45zM365 -3c-28 -5 -68 -9 -94 -9c-85 0 -111 35 -111 130v383l-124 3v32h124v148h41v-148h164v-35h-164v-381c0 -77 13 -98 74 -98c23 0 59 1 90 5v-30z" />
    <glyph glyph-name="Tbar" unicode="&#x166;" horiz-adv-x="612" 
d="M570 468h-244v-432l70 -2v-34h-182v34l71 2v432h-244v37h244v201h-215l-3 -79h-34v116h545v-116h-33l-4 79h-215v-201h244v-37z" />
    <glyph glyph-name="tbar" unicode="&#x167;" horiz-adv-x="403" 
d="M366 357h-165v-237c0 -77 14 -98 74 -98c22 0 60 2 90 5v-30c-28 -5 -68 -9 -93 -9c-86 0 -112 35 -112 130v239l-123 4v31h123v109l-123 4v31h123v148h41v-148h165v-35h-165v-109h165v-35z" />
    <glyph glyph-name="Utilde" unicode="&#x168;" horiz-adv-x="720" 
d="M677 708l-64 -1v-378c0 -224 -69 -339 -253 -339s-253 115 -253 339v378l-64 1v35h166v-35l-60 -1v-375c0 -210 50 -304 211 -304s212 94 212 304v375l-61 1v35h166v-35zM545 914c0 -77 -18 -125 -83 -125c-36 0 -56 17 -88 48l-45 44c-26 26 -39 39 -65 39
c-43 0 -48 -41 -48 -92v-35h-35v35c0 77 19 124 83 124c38 0 58 -14 88 -44l46 -45c27 -27 41 -41 64 -41c42 0 47 41 47 92v34h36v-34z" />
    <glyph glyph-name="Umacron" unicode="&#x16a;" horiz-adv-x="720" 
d="M677 708l-64 -1v-378c0 -224 -69 -339 -253 -339s-253 115 -253 339v378l-64 1v35h166v-35l-60 -1v-375c0 -210 50 -304 211 -304s212 94 212 304v375l-61 1v35h166v-35zM533 828h-343v34h343v-34z" />
    <glyph glyph-name="Ubreve" unicode="&#x16c;" horiz-adv-x="720" 
d="M677 708l-64 -1v-378c0 -224 -69 -339 -253 -339s-253 115 -253 339v378l-64 1v35h166v-35l-60 -1v-375c0 -210 50 -304 211 -304s212 94 212 304v375l-61 1v35h166v-35zM516 937c-7 -88 -41 -158 -155 -158c-113 0 -147 70 -154 158h32c7 -74 32 -128 122 -128
c91 0 116 54 123 128h32z" />
    <glyph glyph-name="Uring" unicode="&#x16e;" horiz-adv-x="720" 
d="M677 708l-64 -1v-378c0 -224 -69 -339 -253 -339s-253 115 -253 339v378l-64 1v35h166v-35l-60 -1v-375c0 -210 50 -304 211 -304s212 94 212 304v375l-61 1v35h166v-35zM479 887c0 -73 -49 -107 -113 -107c-65 0 -114 34 -114 107s49 107 114 107c64 0 113 -35 113 -107
zM448 887c0 60 -40 79 -82 79c-43 0 -82 -18 -82 -79c0 -60 39 -79 82 -79c42 0 82 19 82 79z" />
    <glyph glyph-name="Uhungarumlaut" unicode="&#x170;" horiz-adv-x="720" 
d="M677 708l-64 -1v-378c0 -224 -69 -339 -253 -339s-253 115 -253 339v378l-64 1v35h166v-35l-60 -1v-375c0 -210 50 -304 211 -304s212 94 212 304v375l-61 1v35h166v-35zM606 948l-145 -154h-43l138 154h50zM415 948h-50l-138 -154h44z" />
    <glyph glyph-name="Uogonek" unicode="&#x172;" horiz-adv-x="720" 
d="M445 -207c-16 -5 -51 -10 -84 -10c-83 0 -117 34 -117 88s50 90 112 119c-181 2 -249 116 -249 339v378l-64 1v35h166v-35l-60 -1v-375c0 -210 50 -304 211 -304s212 94 212 304v375l-61 1v35h166v-35l-64 -1v-378c0 -191 -51 -303 -179 -331
c-100 -43 -154 -75 -154 -126c0 -39 23 -60 84 -60c33 0 65 4 81 7v-26z" />
    <glyph glyph-name="uogonek" unicode="&#x173;" horiz-adv-x="601" 
d="M559 -207c-16 -5 -51 -10 -84 -10c-83 0 -117 34 -117 88c0 60 63 99 134 129h-31v45c-58 -31 -120 -57 -195 -57c-130 0 -167 73 -167 212v300l-57 1v35h98v-336c0 -133 35 -177 133 -177c65 0 128 26 188 57v420l-56 1v35h97v-500l57 -1v-35
c-107 -45 -165 -75 -165 -128c0 -39 23 -60 84 -60c33 0 65 4 81 7v-26z" />
    <glyph glyph-name="Wcircumflex" unicode="&#x174;" horiz-adv-x="943" 
d="M911 708l-59 -1l-151 -707h-64l-140 492c-8 30 -17 64 -25 94h-2c-7 -30 -16 -64 -24 -94l-140 -492h-64l-152 707l-58 1v35h161v-34l-60 -2l118 -557c7 -40 15 -75 23 -116h2c10 38 19 75 28 115l135 471h65l135 -472c9 -40 19 -78 27 -114h3c8 40 16 76 23 116l117 557
l-59 2v34h161v-35zM637 793h-44l-122 128l-121 -128h-44l141 154h48z" />
    <glyph glyph-name="wcircumflex" unicode="&#x175;" horiz-adv-x="883" 
d="M849 501l-51 -1l-125 -500h-55l-133 356c-14 36 -28 75 -39 108h-3c-11 -33 -25 -72 -39 -108l-133 -356h-55l-125 500l-51 1v35h147v-34l-54 -1l87 -355c9 -37 17 -74 24 -109h4c11 34 22 71 37 109l134 353h53l133 -353c16 -42 26 -72 38 -109h3c8 38 15 66 25 109
l86 355l-54 1v34h146v-35zM609 616h-44l-122 128l-121 -128h-44l141 154h48z" />
    <glyph glyph-name="Ycircumflex" unicode="&#x176;" horiz-adv-x="636" 
d="M604 708l-57 -1l-208 -400v-270l67 -1v-36h-176v36l67 1v269l-209 401l-56 1v35h154v-34l-52 -2l138 -262c16 -31 32 -66 46 -93h1c14 27 29 61 45 93l138 262l-52 2v34h154v-35zM485 793h-44l-122 128l-121 -128h-44l141 154h48z" />
    <glyph glyph-name="ycircumflex" unicode="&#x177;" horiz-adv-x="600" 
d="M571 501l-63 -1l-192 -537c-44 -124 -76 -178 -181 -178c-28 0 -58 3 -83 6v32c36 -2 59 -3 82 -3c73 0 107 27 143 149l9 31l-193 500l-62 1v35h160v-34l-55 -1l130 -344c14 -36 26 -69 39 -104h2c11 33 23 69 35 104l122 344l-53 1v34h160v-35zM472 616h-44l-122 128
l-121 -128h-44l141 154h48z" />
    <glyph glyph-name="Zacute" unicode="&#x179;" horiz-adv-x="609" 
d="M557 0h-506v44l445 662h-389l-3 -79h-34v116h472v-44l-445 -662h423l4 81h33v-118zM467 947l-145 -154h-43l138 154h50z" />
    <glyph glyph-name="zacute" unicode="&#x17a;" horiz-adv-x="475" 
d="M427 0h-379v43l332 458h-282l-3 -57h-34v92h366v-41l-334 -460h297l4 62h33v-97zM409 770l-145 -154h-43l138 154h50z" />
    <glyph glyph-name="Zdotaccent" unicode="&#x17b;" horiz-adv-x="609" 
d="M557 0h-506v44l445 662h-389l-3 -79h-34v116h472v-44l-445 -662h423l4 81h33v-118zM322 805h-41v122h41v-122z" />
    <glyph glyph-name="zdotaccent" unicode="&#x17c;" horiz-adv-x="475" 
d="M427 0h-379v43l332 458h-282l-3 -57h-34v92h366v-41l-334 -460h297l4 62h33v-97zM270 648h-41v122h41v-122z" />
    <glyph glyph-name="longs" unicode="&#x17f;" horiz-adv-x="345" 
d="M318 741c-21 2 -60 4 -85 4c-80 0 -95 -29 -95 -126v-583l64 -1v-35h-169v35l64 1v583c0 105 20 161 132 161c30 0 67 -5 89 -9v-30z" />
    <glyph glyph-name="Aringacute" unicode="&#x1fa;" horiz-adv-x="713" 
d="M694 0h-156v34l55 2l-84 247h-298l-84 -247l55 -2v-34h-155v35l55 1l236 671l-64 2v35h135l249 -708l56 -1v-35zM496 321l-100 280c-11 37 -23 74 -34 109h-4c-11 -35 -22 -71 -34 -109l-100 -280h272zM473 867c0 -73 -49 -107 -113 -107c-65 0 -114 34 -114 107
s49 107 114 107c64 0 113 -35 113 -107zM442 867c0 60 -40 79 -82 79c-43 0 -82 -18 -82 -79c0 -60 39 -79 82 -79c42 0 82 19 82 79zM515 1146l-145 -154h-43l138 154h50z" />
    <glyph glyph-name="aringacute" unicode="&#x1fb;" 
d="M491 0h-95v42c-42 -24 -108 -54 -186 -54c-110 0 -162 50 -162 157v9c0 132 79 162 243 162h103v52c0 116 -27 146 -159 146c-26 0 -60 -1 -112 -5l-3 -65h-34v92c59 7 105 14 151 14c164 0 198 -50 198 -182v-332l56 -1v-35zM394 74v209h-103c-146 0 -202 -22 -202 -129
v-11c0 -89 45 -122 127 -122c72 0 141 31 178 53zM371 677c0 -73 -49 -107 -113 -107c-65 0 -114 34 -114 107s49 107 114 107c64 0 113 -35 113 -107zM340 677c0 60 -40 79 -82 79c-43 0 -82 -18 -82 -79c0 -60 39 -79 82 -79c42 0 82 19 82 79zM391 956l-145 -154h-43
l138 154h50z" />
    <glyph glyph-name="AEacute" unicode="&#x1fc;" horiz-adv-x="955" 
d="M909 0h-476v35l59 1v246h-282l-98 -282h-85v35l53 2l235 670l-63 1v35h657v-116h-35l-3 79h-337v-297h348v-38h-348v-334h337l3 80h35v-117zM492 320v386h-136c-11 -35 -22 -68 -34 -103l-100 -283h270zM732 947l-145 -154h-43l138 154h50z" />
    <glyph glyph-name="aeacute" unicode="&#x1fd;" horiz-adv-x="879" 
d="M831 257h-395v-96c0 -103 45 -138 199 -138c66 0 133 9 181 16v-34c-41 -8 -113 -17 -182 -17c-106 0 -173 10 -217 76c-59 -47 -130 -76 -214 -76c-96 0 -155 53 -155 154v14c0 126 79 160 243 160h104v52c0 115 -28 146 -160 146c-27 0 -74 -1 -116 -5l-3 -65h-33v92
c44 7 108 14 154 14c130 0 175 -31 187 -104c27 62 89 104 190 104c157 0 217 -103 217 -249v-44zM790 291v22c0 111 -42 201 -176 201c-138 0 -178 -94 -178 -185v-38h354zM395 89v194h-104c-146 0 -202 -26 -202 -127v-14c0 -80 47 -121 121 -121s145 35 185 68zM594 770
l-145 -154h-43l138 154h50z" />
    <glyph glyph-name="Oslashacute" unicode="&#x1fe;" horiz-adv-x="653" 
d="M484 958l-145 -154h-43l138 154h50zM601 347c0 -258 -104 -359 -275 -359c-79 0 -144 22 -191 71l-41 -59h-44l61 89c-38 57 -59 142 -59 258v49c0 259 105 358 274 358c81 0 148 -23 195 -75l44 64h44l-65 -94c37 -57 57 -140 57 -253v-49zM94 347
c0 -100 15 -171 43 -221l360 518c-42 53 -102 73 -171 73c-135 0 -232 -73 -232 -321v-49zM559 347v49c0 96 -15 166 -41 216l-359 -518c42 -50 99 -69 167 -69c135 0 233 74 233 322z" />
    <glyph glyph-name="oslashacute" unicode="&#x1ff;" horiz-adv-x="543" 
d="M404 770l-145 -154h-43l138 154h50zM489 252c0 -176 -65 -264 -218 -264c-65 0 -113 15 -148 46l-44 -59h-43l63 86c-31 44 -46 108 -46 191v34c0 176 65 264 218 264c67 0 117 -17 152 -51l45 62h43l-65 -89c29 -43 43 -106 43 -186v-34zM94 252c0 -69 10 -121 30 -157
l275 373c-29 31 -71 45 -128 45c-124 0 -176 -66 -177 -227v-34zM449 252v34c0 66 -9 116 -28 152l-275 -372c28 -29 69 -42 125 -42c125 0 177 68 178 228z" />
    <glyph glyph-name="Wgrave" unicode="&#x1e80;" horiz-adv-x="943" 
d="M911 708l-59 -1l-151 -707h-64l-140 492c-8 30 -17 64 -25 94h-2c-7 -30 -16 -64 -24 -94l-140 -492h-64l-152 707l-58 1v35h161v-34l-60 -2l118 -557c7 -40 15 -75 23 -116h2c10 38 19 75 28 115l135 471h65l135 -472c9 -40 19 -78 27 -114h3c8 40 16 76 23 116l117 557
l-59 2v34h161v-35zM535 793h-43l-145 154h50z" />
    <glyph glyph-name="wgrave" unicode="&#x1e81;" horiz-adv-x="883" 
d="M849 501l-51 -1l-125 -500h-55l-133 356c-14 36 -28 75 -39 108h-3c-11 -33 -25 -72 -39 -108l-133 -356h-55l-125 500l-51 1v35h147v-34l-54 -1l87 -355c9 -37 17 -74 24 -109h4c11 34 22 71 37 109l134 353h53l133 -353c16 -42 26 -72 38 -109h3c8 38 15 66 25 109
l86 355l-54 1v34h146v-35zM517 616h-43l-145 154h50z" />
    <glyph glyph-name="Wacute" unicode="&#x1e82;" horiz-adv-x="943" 
d="M911 708l-59 -1l-151 -707h-64l-140 492c-8 30 -17 64 -25 94h-2c-7 -30 -16 -64 -24 -94l-140 -492h-64l-152 707l-58 1v35h161v-34l-60 -2l118 -557c7 -40 15 -75 23 -116h2c10 38 19 75 28 115l135 471h65l135 -472c9 -40 19 -78 27 -114h3c8 40 16 76 23 116l117 557
l-59 2v34h161v-35zM621 947l-145 -154h-43l138 154h50z" />
    <glyph glyph-name="wacute" unicode="&#x1e83;" horiz-adv-x="883" 
d="M849 501l-51 -1l-125 -500h-55l-133 356c-14 36 -28 75 -39 108h-3c-11 -33 -25 -72 -39 -108l-133 -356h-55l-125 500l-51 1v35h147v-34l-54 -1l87 -355c9 -37 17 -74 24 -109h4c11 34 22 71 37 109l134 353h53l133 -353c16 -42 26 -72 38 -109h3c8 38 15 66 25 109
l86 355l-54 1v34h146v-35zM566 770l-145 -154h-43l138 154h50z" />
    <glyph glyph-name="Wdieresis" unicode="&#x1e84;" horiz-adv-x="943" 
d="M911 708l-59 -1l-151 -707h-64l-140 492c-8 30 -17 64 -25 94h-2c-7 -30 -16 -64 -24 -94l-140 -492h-64l-152 707l-58 1v35h161v-34l-60 -2l118 -557c7 -40 15 -75 23 -116h2c10 38 19 75 28 115l135 471h65l135 -472c9 -40 19 -78 27 -114h3c8 40 16 76 23 116l117 557
l-59 2v34h161v-35zM606 802h-38v120h38v-120zM376 802v120h-38v-120h38z" />
    <glyph glyph-name="wdieresis" unicode="&#x1e85;" horiz-adv-x="883" 
d="M849 501l-51 -1l-125 -500h-55l-133 356c-14 36 -28 75 -39 108h-3c-11 -33 -25 -72 -39 -108l-133 -356h-55l-125 500l-51 1v35h147v-34l-54 -1l87 -355c9 -37 17 -74 24 -109h4c11 34 22 71 37 109l134 353h53l133 -353c16 -42 26 -72 38 -109h3c8 38 15 66 25 109
l86 355l-54 1v34h146v-35zM578 640h-38v120h38v-120zM348 640v120h-38v-120h38z" />
    <glyph glyph-name="Ygrave" unicode="&#x1ef2;" horiz-adv-x="636" 
d="M604 708l-57 -1l-208 -400v-270l67 -1v-36h-176v36l67 1v269l-209 401l-56 1v35h154v-34l-52 -2l138 -262c16 -31 32 -66 46 -93h1c14 27 29 61 45 93l138 262l-52 2v34h154v-35zM387 793h-43l-145 154h50z" />
    <glyph glyph-name="ygrave" unicode="&#x1ef3;" horiz-adv-x="600" 
d="M571 501l-63 -1l-192 -537c-44 -124 -76 -178 -181 -178c-28 0 -58 3 -83 6v32c36 -2 59 -3 82 -3c73 0 107 27 143 149l9 31l-193 500l-62 1v35h160v-34l-55 -1l130 -344c14 -36 26 -69 39 -104h2c11 33 23 69 35 104l122 344l-53 1v34h160v-35zM348 616h-43l-145 154
h50z" />
    <glyph glyph-name="lira" unicode="&#x20a4;" horiz-adv-x="575" 
d="M526 0h-449v34c46 50 57 92 57 157v75h-87v36h87v102h-87v36h87v71c0 168 40 240 220 240c68 0 128 -7 172 -13v-111h-34l-3 81c-42 4 -86 6 -133 6c-149 0 -180 -49 -180 -203v-71h271v-36h-271v-102h271v-36h-271v-75c0 -67 -14 -109 -52 -154h402v-37z" />
    <glyph glyph-name="peseta" unicode="&#x20a7;" horiz-adv-x="600" 
d="M43 518v36h60v153l-60 1v35c91 0 145 7 239 7c176 0 268 -51 272 -196h53v-36h-53c-5 -145 -99 -204 -275 -204c-38 0 -84 1 -135 3v-281l64 -1v-35h-165v35l60 1v482h-60zM512 529v14c0 127 -68 170 -230 170c-56 0 -105 -4 -138 -6v-353c52 -2 97 -2 135 -2
c161 0 233 51 233 177z" />
    <glyph glyph-name="Scommaaccent" unicode="&#x218;" horiz-adv-x="542" 
d="M496 182c0 -134 -111 -194 -234 -194c-76 0 -156 8 -199 15v113h34l3 -83c46 -5 105 -8 162 -8c96 0 192 42 192 157c0 86 -47 121 -163 176l-74 35c-103 49 -170 99 -170 199c0 115 88 163 229 163c78 0 153 -9 196 -16v-112h-34l-4 83c-37 4 -98 8 -157 8
c-114 0 -188 -31 -188 -126c0 -80 52 -118 147 -164l74 -36c124 -60 186 -103 186 -210zM311 -68l-101 -140h-42l94 140h49z" />
    <glyph glyph-name="scommaaccent" unicode="&#x219;" horiz-adv-x="460" 
d="M413 129c0 -72 -48 -141 -189 -141c-69 0 -136 10 -170 19v94h34l3 -67c35 -5 80 -11 132 -11c109 0 149 47 149 106c0 60 -32 81 -134 125l-37 16c-100 41 -153 78 -153 153c0 86 64 127 189 127c59 0 123 -10 154 -17v-89h-33l-3 61c-30 4 -79 9 -117 9
c-99 0 -149 -24 -149 -91c0 -58 40 -79 129 -118l37 -16c113 -49 158 -80 158 -160zM260 -68l-101 -140h-42l94 140h49z" />
    <glyph glyph-name="zero.fitted" unicode="&#xe097;" horiz-adv-x="621" 
d="M555 327c0 -245 -94 -339 -245 -339c-150 0 -244 94 -244 339v88c0 245 94 339 244 339c151 0 245 -94 245 -339v-88zM514 327v88c0 231 -87 303 -204 303c-116 0 -203 -72 -203 -303v-88c0 -231 87 -303 203 -303c117 0 204 72 204 303z" />
    <glyph glyph-name="one.fitted" unicode="&#xf6dc;" horiz-adv-x="621" 
d="M533 0h-445v36l202 2v666l-202 -54v38l210 59h33v-709l202 -2v-36z" />
    <glyph glyph-name="two.fitted" unicode="&#xe098;" horiz-adv-x="621" 
d="M526 0h-439v51c0 188 56 240 230 335c146 81 175 116 175 202c0 94 -65 130 -208 130c-47 0 -114 -7 -152 -12l-3 -89h-34v118c18 4 114 19 191 19c169 0 247 -52 247 -166c0 -96 -38 -146 -193 -233c-170 -94 -212 -135 -212 -304v-13h361l4 93h33v-131z" />
    <glyph glyph-name="three.fitted" unicode="&#xe099;" horiz-adv-x="621" 
d="M529 192c0 -134 -72 -204 -249 -204c-71 0 -160 10 -189 15v125h34l4 -97c36 -4 100 -7 151 -7c154 0 207 56 207 168v31c0 67 -14 147 -148 147h-224v36h224c133 0 148 75 148 148v15c0 102 -47 149 -207 149c-49 0 -115 -4 -150 -7l-4 -90h-34v119c23 4 117 14 188 14
c181 0 249 -58 249 -185v-15c0 -74 -23 -143 -111 -166c92 -24 111 -97 111 -165v-31z" />
    <glyph glyph-name="four.fitted" unicode="&#xe09a;" horiz-adv-x="621" 
d="M578 218h-125v-182l69 -1v-35h-180v35l69 1v182h-368v41l361 486h49v-490h125v-37zM411 255v436l-324 -436h324z" />
    <glyph glyph-name="five.fitted" unicode="&#xe09b;" horiz-adv-x="621" 
d="M536 205c0 -144 -67 -216 -253 -216c-88 0 -172 13 -199 18v114h34l3 -86c40 -5 97 -10 162 -10c166 0 211 61 211 180v24c0 134 -74 168 -226 168h-167l32 346h372v-123h-34l-3 85h-299l-25 -272h125c173 0 267 -47 267 -204v-24z" />
    <glyph glyph-name="six.fitted" unicode="&#xe09c;" horiz-adv-x="621" 
d="M557 230c0 -183 -118 -242 -244 -242c-142 0 -249 66 -249 299v191c0 177 59 277 265 277c77 0 172 -13 199 -19v-115h-34l-3 86c-38 5 -108 11 -162 11c-183 0 -223 -89 -223 -237v-60c69 19 151 28 209 28c119 0 242 -33 242 -207v-12zM515 230v11
c0 148 -96 173 -201 173c-56 0 -134 -7 -208 -26v-105c0 -194 84 -259 207 -259c120 0 202 59 202 206z" />
    <glyph glyph-name="seven.fitted" unicode="&#xe09d;" horiz-adv-x="621" 
d="M536 700l-333 -700h-46l339 706h-374l-3 -86h-34v123h451v-43z" />
    <glyph glyph-name="eight.fitted" unicode="&#xe09e;" horiz-adv-x="621" 
d="M562 208c0 -173 -87 -220 -248 -220h-7c-161 0 -249 48 -249 221v8c0 90 30 149 106 171c-75 21 -103 85 -103 165v9c0 142 85 192 246 192h6c162 0 247 -50 247 -192v-9c0 -81 -28 -144 -104 -165c77 -22 106 -80 106 -170v-10zM521 208v10c0 87 -27 152 -135 152h-151
c-108 0 -135 -66 -135 -153v-8c0 -143 66 -185 207 -185h7c141 0 207 41 207 184zM519 553v9c0 117 -65 156 -206 156h-6c-140 0 -205 -39 -205 -156v-9c0 -76 25 -146 133 -146h151c108 0 133 69 133 146z" />
    <glyph glyph-name="nine.fitted" unicode="&#xe09f;" horiz-adv-x="621" 
d="M557 264c0 -177 -60 -277 -265 -277c-78 0 -173 13 -200 19v116h34l3 -87c39 -4 109 -11 162 -11c183 0 224 89 224 237v60c-69 -19 -152 -28 -210 -28c-118 0 -241 33 -241 207v12c0 183 117 243 243 243c143 0 250 -67 250 -299v-192zM515 354v105
c0 194 -84 259 -208 259c-119 0 -202 -59 -202 -206v-10c0 -149 96 -174 202 -174c55 0 133 7 208 26z" />
    <glyph glyph-name="zero.denominator" unicode="&#xe10a;" horiz-adv-x="418" 
d="M366 188c0 -138 -62 -196 -157 -196c-96 0 -158 59 -158 196v59c0 138 62 196 158 196c95 0 157 -58 157 -196v-59zM328 188v59c0 127 -51 163 -119 163s-119 -36 -119 -163v-59c0 -126 51 -163 119 -163s119 37 119 163z" />
    <glyph glyph-name="one.denominator" unicode="&#xe10b;" horiz-adv-x="334" 
d="M295 -1h-256v30l108 1v371l-108 -37v33l115 39h31v-406l110 -1v-30z" />
    <glyph glyph-name="two.denominator" unicode="&#xe10c;" horiz-adv-x="392" 
d="M332 0h-279v32c0 104 27 137 142 194c93 47 106 69 106 115c0 56 -40 72 -121 72c-30 0 -63 -3 -91 -6l-1 -47h-28v71c27 5 78 12 123 12c103 0 156 -27 156 -101c0 -58 -24 -90 -122 -140c-109 -54 -126 -79 -126 -165v-5h212l2 45h27v-77z" />
    <glyph glyph-name="three.denominator" unicode="&#xe10d;" horiz-adv-x="386" 
d="M333 120c0 -90 -52 -128 -162 -128c-46 0 -100 8 -118 12v72h28l2 -49c22 -2 56 -4 87 -4c87 0 126 24 126 97v6c0 46 -12 86 -93 86h-134v29h135c81 0 92 45 92 89v5c0 58 -33 78 -126 78c-30 0 -63 -3 -87 -5l-2 -48h-27v72c15 3 74 11 118 11c110 0 161 -26 161 -107
v-5c0 -45 -16 -90 -69 -105c57 -14 69 -58 69 -101v-5z" />
    <glyph glyph-name="four.denominator" unicode="&#xe10e;" horiz-adv-x="428" 
d="M382 124h-74v-96l38 -1v-27h-113v27l37 1v96h-225v32l224 280h39v-282h74v-30zM271 154v238l-188 -238h188z" />
    <glyph glyph-name="five.denominator" unicode="&#xe10f;" horiz-adv-x="392" 
d="M340 128c0 -96 -51 -136 -166 -136c-53 0 -99 7 -121 11v72h27l2 -47c23 -3 54 -5 89 -5c99 0 131 30 131 104v8c0 77 -42 94 -130 94h-110l19 207h239v-76h-27l-2 45h-177l-14 -146h76c107 0 164 -28 164 -124v-7z" />
    <glyph glyph-name="six.denominator" unicode="&#xe110;" horiz-adv-x="416" 
d="M365 126c0 -96 -69 -134 -155 -134c-94 0 -158 45 -158 172v109c0 109 41 170 167 170c49 0 98 -6 126 -11v-72h-28l-2 46c-23 3 -63 6 -94 6c-106 0 -131 -49 -132 -133v-30c44 11 90 15 123 15c79 0 153 -20 153 -115v-23zM327 126v23c0 73 -53 87 -117 87
c-31 0 -74 -4 -121 -14v-61c2 -109 51 -139 121 -139s117 30 117 104z" />
    <glyph glyph-name="seven.denominator" unicode="&#xe111;" horiz-adv-x="380" 
d="M333 402l-209 -402h-42l212 405h-215l-2 -45h-27v76h283v-34z" />
    <glyph glyph-name="eight.denominator" unicode="&#xe112;" horiz-adv-x="433" 
d="M382 119c0 -103 -68 -127 -163 -127h-5c-96 0 -163 24 -163 127v9c0 50 23 85 65 100c-42 15 -64 51 -64 99v7c0 83 64 109 162 109h4c98 0 163 -26 163 -109v-7c0 -47 -23 -85 -65 -99c42 -15 66 -50 66 -100v-9zM344 119v9c0 48 -20 85 -84 85h-88
c-63 0 -83 -37 -83 -85v-9c0 -77 47 -97 125 -97h5c78 0 125 20 125 97zM343 327v6c0 62 -47 80 -125 80h-4c-78 0 -125 -18 -125 -80v-6c0 -44 19 -84 83 -84h88c64 0 83 40 83 84z" />
    <glyph glyph-name="nine.denominator" unicode="&#xe113;" horiz-adv-x="416" 
d="M365 162c0 -109 -42 -170 -167 -170c-50 0 -99 6 -127 11v72h28l2 -46c23 -3 63 -6 95 -6c105 0 131 50 131 133v30c-44 -11 -90 -15 -122 -15c-79 0 -153 21 -153 115v23c0 96 68 134 154 134c94 0 159 -44 159 -172v-109zM327 214v60c-2 109 -50 139 -121 139
c-69 0 -117 -30 -117 -104v-22c0 -74 53 -87 117 -87c32 0 74 3 121 14z" />
    <glyph glyph-name="zero.numerator" unicode="&#xe11e;" horiz-adv-x="413" 
d="M364 500c0 -134 -57 -196 -158 -196s-157 64 -157 196v58c0 132 56 197 157 197s158 -63 158 -197v-58zM325 500v58c0 125 -47 164 -119 164c-71 0 -119 -40 -119 -164v-58c0 -125 48 -164 119 -164c72 0 119 39 119 164z" />
    <glyph glyph-name="one.numerator" unicode="&#xe11f;" horiz-adv-x="338" 
d="M299 311h-256v30l107 1v371l-107 -37v33l115 39h30v-406l111 -1v-30z" />
    <glyph glyph-name="two.numerator" unicode="&#xe120;" horiz-adv-x="394" 
d="M333 313h-279v31c0 105 26 138 141 195c93 46 106 68 106 114c0 56 -39 72 -121 72c-30 0 -62 -3 -90 -6l-2 -47h-28v71c27 6 78 12 123 12c103 0 156 -26 156 -101c0 -58 -23 -90 -122 -140c-108 -54 -126 -78 -126 -165v-5h212l2 45h28v-76z" />
    <glyph glyph-name="three.numerator" unicode="&#xe121;" horiz-adv-x="390" 
d="M334 432c0 -90 -52 -128 -162 -128c-46 0 -100 8 -118 12v72h28l2 -49c22 -2 56 -4 86 -4c88 0 126 25 126 98v5c0 46 -11 86 -92 86h-134v30h134c82 0 92 45 92 88v5c0 58 -32 78 -125 78c-30 0 -63 -3 -87 -5l-2 -48h-27v73c15 3 73 10 118 10c110 0 161 -26 161 -107
v-5c0 -45 -16 -90 -69 -105c57 -14 69 -58 69 -101v-5z" />
    <glyph glyph-name="four.numerator" unicode="&#xe122;" horiz-adv-x="428" 
d="M381 436h-74v-96l38 -1v-27h-113v27l37 1v96h-225v31l224 280h39v-281h74v-30zM270 466v237l-188 -237h188z" />
    <glyph glyph-name="five.numerator" unicode="&#xe123;" horiz-adv-x="394" 
d="M340 439c0 -95 -51 -135 -166 -135c-53 0 -99 7 -121 11v72h27l2 -48c23 -2 54 -5 89 -5c99 0 131 31 131 105v8c0 77 -42 93 -130 93h-110l19 207h239v-75h-27l-2 44h-177l-14 -145h76c107 0 164 -28 164 -124v-8z" />
    <glyph glyph-name="six.numerator" unicode="&#xe124;" horiz-adv-x="413" 
d="M362 438c0 -96 -68 -134 -154 -134c-94 0 -159 44 -159 172v109c0 109 42 170 167 170c50 0 99 -6 127 -11v-72h-28l-2 46c-24 3 -63 6 -95 6c-105 0 -131 -50 -131 -133v-30c44 11 89 15 122 15c79 0 153 -20 153 -115v-23zM325 438v22c0 74 -53 87 -118 87
c-31 0 -73 -3 -120 -14v-60c2 -109 50 -139 121 -139c69 0 117 30 117 104z" />
    <glyph glyph-name="seven.numerator" unicode="&#xe125;" horiz-adv-x="385" 
d="M334 713l-209 -401h-42l212 404h-215l-2 -44h-27v75h283v-34z" />
    <glyph glyph-name="eight.numerator" unicode="&#xe126;" horiz-adv-x="428" 
d="M378 431c0 -104 -67 -127 -163 -127h-5c-95 0 -162 23 -162 127v9c0 50 22 85 65 100c-42 15 -64 51 -64 99v6c0 83 64 110 162 110h4c98 0 162 -27 162 -110v-6c0 -47 -22 -85 -64 -99c42 -15 65 -50 65 -100v-9zM341 431v9c0 48 -21 85 -84 85h-88
c-64 0 -84 -37 -84 -85v-9c0 -77 47 -98 125 -98h5c79 0 126 21 126 98zM340 638v7c0 61 -47 80 -125 80h-4c-78 0 -125 -19 -125 -80v-7c0 -43 19 -83 83 -83h88c64 0 82 40 83 83z" />
    <glyph glyph-name="nine.numerator" unicode="&#xe127;" horiz-adv-x="413" 
d="M362 474c0 -109 -41 -170 -167 -170c-49 0 -98 6 -127 11v71h28l2 -45c23 -3 64 -6 95 -6c106 0 131 50 132 133v30c-44 -11 -90 -15 -123 -15c-79 0 -153 20 -153 115v23c0 96 69 134 155 134c94 0 158 -45 158 -172v-109zM325 525v61c-2 109 -51 139 -121 139
s-117 -30 -117 -104v-23c0 -73 53 -87 117 -87c31 0 74 4 121 14z" />
    <glyph glyph-name="oneeighth" unicode="&#x215b;" horiz-adv-x="917" 
d="M867 119c0 -103 -67 -127 -163 -127h-5c-95 0 -163 24 -163 127v9c0 50 23 86 66 100c-42 15 -65 51 -65 99v7c0 83 65 109 163 109h4c97 0 162 -26 162 -109v-7c0 -47 -22 -84 -64 -99c41 -14 65 -50 65 -100v-9zM829 119v9c0 49 -20 86 -83 86h-88
c-64 0 -84 -37 -84 -86v-9c0 -76 47 -97 125 -97h5c78 0 125 21 125 97zM828 327v6c0 62 -46 81 -124 81h-4c-79 0 -125 -19 -125 -81v-6c0 -44 19 -84 83 -84h88c63 0 82 41 82 84zM680 743l-474 -743h-43l474 743h43zM308 311h-256v30l108 1v371l-108 -37v33l115 39h31
v-406l110 -1v-30z" />
    <glyph glyph-name="threeeighths" unicode="&#x215c;" horiz-adv-x="954" 
d="M903 119c0 -103 -67 -127 -163 -127h-4c-96 0 -163 24 -163 127v9c0 50 22 86 65 100c-42 15 -64 51 -64 99v7c0 83 64 109 162 109h4c98 0 162 -26 162 -109v-7c0 -47 -22 -84 -64 -99c42 -14 65 -50 65 -100v-9zM866 119v9c0 49 -21 86 -84 86h-88
c-63 0 -84 -37 -84 -86v-9c0 -76 47 -97 126 -97h4c79 0 126 21 126 97zM865 327v6c0 62 -47 81 -125 81h-4c-78 0 -125 -19 -125 -81v-6c0 -44 19 -84 83 -84h88c64 0 82 41 83 84zM708 743l-473 -743h-44l474 743h43zM329 432c0 -90 -52 -128 -161 -128
c-47 0 -101 8 -119 12v72h28l2 -49c22 -2 56 -4 87 -4c87 0 126 25 126 98v5c0 46 -12 86 -92 86h-135v30h135c81 0 92 45 92 88v5c0 58 -33 78 -126 78c-30 0 -63 -3 -87 -5l-2 -48h-27v73c15 3 74 10 119 10c109 0 160 -26 160 -107v-5c0 -45 -16 -90 -69 -105
c58 -14 69 -58 69 -101v-5z" />
    <glyph glyph-name="fiveeighths" unicode="&#x215d;" horiz-adv-x="959" 
d="M908 119c0 -103 -67 -127 -163 -127h-5c-95 0 -162 24 -162 127v9c0 50 22 86 65 100c-42 15 -65 51 -65 99v7c0 83 65 109 163 109h4c97 0 162 -26 162 -109v-7c0 -47 -22 -84 -64 -99c42 -14 65 -50 65 -100v-9zM870 119v9c0 49 -20 86 -83 86h-88
c-64 0 -84 -37 -84 -86v-9c0 -76 47 -97 125 -97h5c78 0 125 21 125 97zM870 327v6c0 62 -47 81 -125 81h-4c-78 0 -125 -19 -125 -81v-6c0 -44 19 -84 83 -84h88c63 0 82 41 83 84zM713 743l-474 -743h-43l474 743h43zM337 439c0 -95 -51 -135 -166 -135
c-53 0 -99 7 -121 11v72h27l2 -48c23 -2 54 -5 89 -5c98 0 131 31 131 105v8c0 77 -42 93 -130 93h-110l19 207h239v-75h-27l-2 44h-177l-14 -145h76c107 0 164 -28 164 -124v-8z" />
    <glyph glyph-name="seveneighths" unicode="&#x215e;" horiz-adv-x="884" 
d="M833 119c0 -103 -68 -127 -163 -127h-5c-95 0 -163 24 -163 127v9c0 50 23 86 65 100c-42 15 -64 51 -64 99v7c0 83 65 109 162 109h5c97 0 162 -26 162 -109v-7c0 -47 -23 -84 -65 -99c42 -14 66 -50 66 -100v-9zM795 119v9c0 49 -20 86 -84 86h-87
c-64 0 -84 -37 -84 -86v-9c0 -76 47 -97 125 -97h5c78 0 125 21 125 97zM794 327v6c0 62 -47 81 -124 81h-5c-78 0 -124 -19 -124 -81v-6c0 -44 18 -84 83 -84h87c64 0 83 41 83 84zM638 743l-474 -743h-43l473 743h44zM332 713l-209 -401h-42l213 404h-216l-2 -44h-27v75
h283v-34z" />
    <glyph glyph-name="onethird" unicode="&#x2153;" horiz-adv-x="894" 
d="M844 120c0 -90 -52 -128 -162 -128c-46 0 -101 8 -119 12v73h28l2 -50c22 -2 56 -4 87 -4c88 0 126 25 126 98v5c0 46 -12 86 -92 86h-135v30h135c81 0 92 45 92 88v5c0 59 -33 78 -125 78c-30 0 -64 -3 -87 -5l-2 -47h-28v72c15 3 74 10 119 10c109 0 161 -26 161 -107
v-5c0 -45 -16 -90 -70 -105c58 -14 70 -58 70 -101v-5zM680 743l-474 -743h-43l474 743h43zM308 311h-256v30l108 1v371l-108 -37v33l115 39h31v-406l110 -1v-30z" />
    <glyph glyph-name="twothirds" unicode="&#x2154;" horiz-adv-x="935" 
d="M884 120c0 -90 -52 -128 -162 -128c-46 0 -101 8 -118 12v73h27l2 -50c23 -2 56 -4 87 -4c88 0 126 25 126 98v5c0 46 -12 86 -92 86h-135v30h135c81 0 92 45 92 88v5c0 59 -32 78 -125 78c-30 0 -63 -3 -87 -5l-2 -47h-28v72c16 3 74 10 119 10c110 0 161 -26 161 -107
v-5c0 -45 -16 -90 -70 -105c58 -14 70 -58 70 -101v-5zM716 743l-474 -743h-44l474 743h44zM330 313h-280v31c0 105 27 138 142 195c93 46 106 68 106 114c0 56 -39 72 -121 72c-30 0 -62 -3 -90 -6l-2 -47h-28v71c27 6 78 12 123 12c103 0 156 -26 156 -101
c0 -58 -23 -90 -122 -140c-108 -54 -126 -78 -126 -165v-5h212l2 45h28v-76z" />
    <glyph glyph-name="estimated" unicode="&#x212e;" horiz-adv-x="627" 
d="M590 282h-429v-193c43 -40 92 -63 152 -63c112 0 165 59 210 127l31 -19c-51 -81 -116 -141 -241 -141c-163 0 -271 133 -271 290c0 159 104 290 276 290c169 0 272 -134 272 -291zM470 315v163c-35 33 -95 62 -152 62c-61 0 -117 -21 -157 -62v-163h309z" />
    <glyph glyph-name="DieresisGrave" unicode="&#xf6cd;" horiz-adv-x="448" 
d="M426 816h-38v120h38v-120zM182 951l130 -160h-43l-137 160h50zM64 816h-38v120h38v-120z" />
    <glyph glyph-name="Dieresis" unicode="&#xf6cb;" horiz-adv-x="420" 
d="M344 808h-38v120h38v-120zM114 808v120h-38v-120h38z" />
    <glyph glyph-name="Acute" unicode="&#xf6c9;" horiz-adv-x="423" 
d="M347 945l-145 -154h-43l138 154h50z" />
    <glyph glyph-name="Breve" unicode="&#xf71d;" horiz-adv-x="427" 
d="M369 948c-8 -87 -41 -157 -155 -157c-113 0 -147 70 -155 157h33c7 -74 32 -127 122 -127c91 0 116 53 123 127h32z" />
    <glyph glyph-name="cyrBreve" unicode="&#xf6d1;" horiz-adv-x="427" 
d="M370 773c-8 -87 -42 -157 -156 -157c-113 0 -147 70 -155 157h33c7 -73 32 -127 122 -127c91 0 116 54 123 127h33z" />
    <glyph glyph-name="Caron" unicode="&#xf6ca;" horiz-adv-x="444" 
d="M392 945l-149 -154h-49l-148 154h44l128 -129l130 129h44z" />
    <glyph glyph-name="Cedilla" unicode="&#xf722;" horiz-adv-x="407" 
d="M253 -68l-133 -140h-44l126 140h51z" />
    <glyph glyph-name="Circumflex" unicode="&#xf71e;" horiz-adv-x="444" 
d="M387 791h-44l-121 128l-122 -128h-44l141 154h49z" />
    <glyph glyph-name="commaaccent.cap" unicode="&#xe46b;" horiz-adv-x="454" 
d="M259 -68l-101 -140h-41l93 140h49z" />
    <glyph glyph-name="DieresisAcute" unicode="&#xf6cc;" horiz-adv-x="441" 
d="M26 816h38v120h-38v-120zM140 791l130 160h50l-137 -160h-43zM388 816h38v120h-38v-120z" />
    <glyph glyph-name="Dotaccent" unicode="&#xf71a;" horiz-adv-x="398" 
d="M230 816h-41v122h41v-122z" />
    <glyph glyph-name="Hungarumlaut" unicode="&#xf6cf;" horiz-adv-x="435" 
d="M429 946l-145 -154h-43l138 154h50zM238 946h-50l-138 -154h44z" />
    <glyph glyph-name="Grave" unicode="&#xf6ce;" horiz-adv-x="400" 
d="M246 793h-44l-144 154h50z" />
    <glyph glyph-name="dblGrave" unicode="&#xf6d3;" horiz-adv-x="415" 
d="M356 616h-44l-145 154h51zM144 616l-138 154h-50l145 -154h43z" />
    <glyph glyph-name="cyrFlex" unicode="&#xf6d2;" horiz-adv-x="419" 
d="M370 616h-33c-7 82 -40 124 -123 124c-82 0 -115 -42 -122 -124h-33c8 97 51 154 155 154c105 0 148 -57 156 -154z" />
    <glyph glyph-name="Macron" unicode="&#xf6d0;" horiz-adv-x="439" 
d="M391 767h-343v34h343v-34z" />
    <glyph glyph-name="Ogonek" unicode="&#xe46c;" horiz-adv-x="428" 
d="M338 -207c-16 -5 -51 -10 -84 -10c-83 0 -117 34 -117 88c0 61 66 100 139 131h62c-107 -45 -165 -77 -165 -130c0 -39 23 -60 84 -60c33 0 65 4 81 7v-26z" />
    <glyph glyph-name="Ring" unicode="&#xf71b;" horiz-adv-x="429" 
d="M330 812c0 -73 -50 -106 -114 -106s-115 32 -115 106s51 107 115 107s114 -33 114 -107zM299 812c0 62 -43 78 -83 78c-41 0 -83 -16 -83 -78c0 -61 42 -78 83 -78c40 0 83 17 83 78z" />
    <glyph glyph-name="Tilde" unicode="&#xf71c;" horiz-adv-x="432" 
d="M404 844c0 -77 -18 -125 -83 -125c-36 0 -56 17 -88 48l-45 44c-26 26 -39 39 -65 39c-43 0 -48 -41 -48 -92v-35h-35v35c0 77 19 124 83 124c38 0 58 -14 88 -44l46 -45c27 -27 41 -41 64 -41c42 0 47 41 47 92v34h36v-34z" />
    <glyph glyph-name="middot" unicode="&#x387;" horiz-adv-x="238" 
d="M141 301h-41v136h41v-136z" />
    <glyph glyph-name="undercommaaccent" unicode="&#xf005;" horiz-adv-x="454" 
d="M259 -68l-101 -140h-41l93 140h49z" />
    <glyph glyph-name="dieresisacute" unicode="&#x385;" horiz-adv-x="448" 
d="M26 673h38v120h-38v-120zM140 648l130 160h50l-137 -160h-43zM388 673h38v120h-38v-120z" />
    <glyph glyph-name="dieresisgrave" unicode="&#x1fed;" horiz-adv-x="441" 
d="M426 673h-38v120h38v-120zM182 808l130 -160h-43l-137 160h50zM64 673h-38v120h38v-120z" />
    <glyph glyph-name="dblgrave" unicode="&#xf6d6;" horiz-adv-x="415" 
d="M356 616h-44l-145 154h51zM144 616l-138 154h-50l145 -154h43z" />
    <glyph glyph-name="cyrflex" unicode="&#xf6d5;" horiz-adv-x="419" 
d="M370 616h-34c-6 82 -39 124 -122 124s-116 -42 -122 -124h-34c8 97 52 154 156 154c105 0 148 -57 156 -154z" />
    <glyph glyph-name="uni02C9" unicode="&#x2c9;" horiz-adv-x="439" 
d="M385 675h-331v34h331v-34z" />
    <glyph glyph-name="cyrbreve" unicode="&#xf6d4;" horiz-adv-x="427" 
d="M370 773c-8 -87 -42 -157 -156 -157c-113 0 -147 70 -155 157h33c7 -73 32 -127 122 -127c91 0 116 54 123 127h33z" />
    <glyph glyph-name="currency" unicode="&#xa4;" horiz-adv-x="623" 
d="M549 174l-29 -28l-76 75c-37 -31 -83 -46 -129 -46s-92 15 -129 46l-77 -75l-28 28l76 76c-31 37 -46 84 -46 129c0 49 15 92 46 129l-76 76l29 29l76 -76c37 31 83 46 129 46s92 -15 129 -46l76 75l28 -28l-76 -76c28 -33 47 -79 47 -129c0 -46 -15 -92 -46 -129z
M484 379c0 89 -70 170 -169 170c-91 0 -168 -73 -168 -170c0 -91 75 -170 168 -170c92 0 167 74 169 170z" />
    <glyph glyph-name="one.taboldstyle" unicode="&#xe101;" horiz-adv-x="621" 
d="M514 0h-407v36l184 1v461l-185 -53v40l193 58h33v-506l182 -1v-36z" />
    <glyph glyph-name="zero.taboldstyle" unicode="&#xe100;" horiz-adv-x="621" 
d="M555 258c0 -176 -94 -270 -244 -270s-245 94 -245 270v26c0 176 95 270 245 270s244 -94 244 -270v-26zM514 258v26c0 166 -86 233 -203 233s-203 -67 -203 -233v-26c0 -166 86 -234 203 -234s203 68 203 234z" />
    <glyph glyph-name="two.taboldstyle" unicode="&#xe102;" horiz-adv-x="621" 
d="M529 0h-442v38l158 102c196 127 248 163 248 263c0 87 -67 114 -203 114c-50 0 -119 -6 -156 -11l-3 -85h-34v114c51 9 128 19 194 19c172 0 243 -45 243 -151c0 -115 -63 -169 -261 -290l-122 -75h378v-38z" />
    <glyph glyph-name="three.taboldstyle" unicode="&#xe103;" horiz-adv-x="621" 
d="M528 -8c0 -134 -71 -205 -248 -205c-71 0 -161 10 -189 16v124h34l3 -97c36 -3 101 -6 152 -6c154 0 207 56 207 168v31c0 67 -14 147 -148 147h-224v36h224c133 0 148 75 148 148v14c0 103 -47 150 -207 150c-49 0 -115 -4 -151 -8l-3 -89h-34v118c23 5 117 15 188 15
c181 0 249 -58 249 -186v-14c0 -75 -23 -143 -111 -166c92 -25 110 -97 110 -165v-31z" />
    <glyph glyph-name="four.taboldstyle" unicode="&#xe104;" horiz-adv-x="621" 
d="M578 22h-125v-181l69 -1v-35h-181v35l70 1v181h-368v42l361 486h49v-491h125v-37zM411 59v437l-324 -437h324z" />
    <glyph glyph-name="five.taboldstyle" unicode="&#xe105;" horiz-adv-x="621" 
d="M536 3c0 -144 -67 -217 -252 -217c-89 0 -173 14 -200 19v114h34l3 -86c40 -5 98 -10 162 -10c166 0 211 61 211 180v24c0 134 -74 168 -226 168h-167l32 346h372v-123h-34l-3 85h-299l-25 -272h125c173 0 267 -47 267 -204v-24z" />
    <glyph glyph-name="six.taboldstyle" unicode="&#xe106;" horiz-adv-x="621" 
d="M557 230c0 -183 -118 -242 -244 -242c-142 0 -249 66 -249 299v191c0 177 59 277 265 277c77 0 172 -13 199 -19v-115h-34l-3 86c-38 5 -109 11 -162 11c-183 0 -224 -89 -224 -237v-60c70 19 152 28 210 28c119 0 242 -33 242 -207v-12zM515 230v11
c0 148 -96 173 -201 173c-56 0 -134 -7 -209 -26v-105c0 -194 85 -259 208 -259c120 0 202 59 202 206z" />
    <glyph glyph-name="seven.taboldstyle" unicode="&#xe107;" horiz-adv-x="621" 
d="M535 498l-332 -700h-47l339 705h-374l-3 -85h-33v123h450v-43z" />
    <glyph glyph-name="eight.taboldstyle" unicode="&#xe108;" horiz-adv-x="621" 
d="M562 208c0 -173 -87 -220 -249 -220h-6c-162 0 -249 48 -249 221v8c0 90 29 149 106 171c-75 21 -104 85 -104 165v9c0 142 85 192 247 192h6c161 0 247 -50 247 -192v-9c0 -81 -29 -144 -104 -165c76 -22 106 -80 106 -170v-10zM520 208v10c0 87 -26 152 -134 152h-152
c-108 0 -135 -66 -135 -153v-8c0 -143 66 -185 208 -185h6c141 0 207 41 207 184zM519 553v9c0 117 -66 156 -206 156h-6c-141 0 -206 -39 -206 -156v-9c0 -76 25 -146 133 -146h152c107 0 133 69 133 146z" />
    <glyph glyph-name="nine.taboldstyle" unicode="&#xe109;" horiz-adv-x="621" 
d="M557 64c0 -177 -60 -277 -265 -277c-78 0 -173 13 -200 19v116h34l3 -88c38 -4 109 -11 162 -11c183 0 224 89 224 238v59c-70 -18 -152 -28 -210 -28c-119 0 -241 34 -241 208v11c0 184 117 243 243 243c142 0 250 -67 250 -299v-191zM515 154v105
c0 194 -84 258 -208 258c-119 0 -202 -59 -202 -206v-10c0 -148 96 -174 202 -174c55 0 133 7 208 27z" />
    <glyph glyph-name="uni021A" unicode="&#x21a;" horiz-adv-x="612" 
d="M579 627h-34l-3 79h-215v-670l70 -2v-34h-182v34l70 2v670h-215l-3 -79h-34v116h546v-116zM338 -68l-101 -140h-42l94 140h49z" />
    <glyph glyph-name="uni037E" unicode="&#x37e;" horiz-adv-x="226" 
d="M135 284h-41v136h41v-136z" />
    <glyph glyph-name="exclamdbl" unicode="&#x203c;" horiz-adv-x="397" 
d="M313 0h-42v119h42v-119zM270 756h44l-3 -566h-37zM126 119v-119h-41v119h41zM127 756l-3 -566h-37l-3 566h43z" />
    <glyph glyph-name="h.superior" unicode="&#xf700;" horiz-adv-x="374" 
d="M348 306h-71v209c0 78 -20 99 -74 99c-37 0 -75 -14 -102 -28v-251l35 -1v-28h-107v28l35 1v414l-35 1v28h72v-164c27 14 67 30 109 30c77 0 103 -38 103 -128v-181l35 -1v-28z" />
    <glyph glyph-name="uni2215" unicode="&#x2215;" horiz-adv-x="374" 
d="M449 743l-473 -743h-43l473 743h43z" />
    <glyph glyph-name="uni021B" unicode="&#x21b;" horiz-adv-x="403" 
d="M365 -3c-28 -5 -68 -9 -94 -9c-85 0 -111 35 -111 130v383l-124 3v32h124v148h41v-148h164v-35h-164v-381c0 -77 13 -98 74 -98c23 0 59 1 90 5v-30zM286 -68l-101 -140h-42l94 140h49z" />
    <glyph glyph-name="dollar.taboldstyle" unicode="&#xe42f;" horiz-adv-x="499" 
d="M431 131c0 -74 -49 -134 -162 -141v-104h-37v103c-58 1 -120 9 -155 17v93h33l3 -64c32 -5 83 -10 133 -10c98 0 144 43 144 106c0 58 -32 83 -126 123l-51 22c-92 40 -144 74 -144 150c0 80 58 121 168 126v111h37v-109c53 -2 106 -10 137 -16v-88h-33l-3 59
c-29 4 -75 9 -116 9c-96 0 -149 -24 -149 -92c0 -56 38 -78 122 -116l52 -23c100 -44 147 -75 147 -156z" />
    <glyph glyph-name="Euro.taboldstyle" unicode="&#xe430;" horiz-adv-x="502" 
d="M441 1c-55 -10 -98 -13 -134 -13c-131 0 -198 49 -215 201h-51v32h50c-3 32 -5 66 0 103h-50v32h52c16 148 86 198 213 198c37 0 89 -4 135 -12v-88h-33l-2 57c-42 5 -75 6 -99 6c-102 0 -158 -39 -173 -161h252l-8 -32h-246c-5 -37 -3 -71 0 -103h223l-8 -32h-213
c14 -127 68 -165 174 -165c35 0 79 3 133 10v-33z" />
    <glyph glyph-name="uni03BC" unicode="&#x3bc;" horiz-adv-x="603" 
d="M560 0h-98v45c-58 -31 -121 -57 -195 -57c-66 0 -106 18 -126 59v-219l56 -1v-35h-154v35l57 1v672l-57 1v35h98v-336c0 -133 35 -177 133 -177c65 0 128 26 188 57v420l-56 1v35h97v-500l57 -1v-35z" />
    <glyph glyph-name="franc.taboldstyle" unicode="&#xe431;" horiz-adv-x="504" 
d="M423 265h-250v-90h132v-34h-132v-107l47 -2v-32h-128v32l40 2v107h-46v34h46v329l-40 2v35h349v-91h-32l-3 53h-233v-200h250v-38z" />
    <glyph glyph-name="sterling.taboldstyle" unicode="&#xe432;" horiz-adv-x="504" 
d="M441 0h-355v33c37 41 43 71 43 125v102h-68v34h68v60c0 142 42 199 178 199c41 0 94 -4 134 -10v-113h-33l-3 81c-32 4 -69 5 -94 5c-110 0 -142 -38 -142 -162v-60h214v-34h-214v-102c0 -56 -8 -86 -36 -121h308v-37z" />
    <glyph glyph-name="yen.taboldstyle" unicode="&#xe433;" horiz-adv-x="511" 
d="M473 196h-198v-162l50 -2v-32h-140v32l50 2v162h-195v32h191l-54 94h-137v32h121l-76 152l-46 3v32h72l111 -209c13 -24 24 -50 32 -68h2c10 21 21 46 33 68l111 209h72v-32l-47 -3l-76 -152h124v-32h-141l-54 -94h195v-32z" />
    <glyph glyph-name="lira.taboldstyle" unicode="&#xe434;" horiz-adv-x="504" 
d="M441 0h-355v33c37 41 42 71 42 125v26h-67v32h67v80h-67v31h67v25c1 142 43 200 179 200c42 0 98 -4 134 -11v-111h-33l-3 80c-32 3 -69 4 -94 4c-110 0 -141 -37 -141 -162v-25h213v-31h-213v-80h213v-32h-213v-26c0 -56 -9 -86 -37 -121h308v-37z" />
    <glyph glyph-name="florin.taboldstyle" unicode="&#xe435;" horiz-adv-x="584" 
d="M526 586l-4 -31c-20 1 -50 4 -72 4c-70 0 -98 -21 -109 -114l-15 -132h169l-5 -33h-169l-32 -246c-15 -112 -50 -148 -144 -148c-25 0 -60 4 -80 7l4 32c27 -2 52 -5 74 -5c72 0 94 27 106 116l33 244h-142l4 33h142l16 134c13 111 52 146 146 146c25 0 60 -3 78 -7z" />
    <glyph glyph-name="numbersign.taboldstyle" unicode="&#xe436;" horiz-adv-x="542" 
d="M478 170h-103l-18 -170h-37l18 170h-156l-18 -170h-36l17 170h-69v33h73l19 188h-92v34h96l18 175h37l-19 -175h157l18 175h36l-18 -175h77v-34h-81l-19 -188h100v-33zM361 391h-156l-20 -188h157z" />
    <glyph glyph-name="colonmonetary.taboldstyle" unicode="&#xe437;" horiz-adv-x="490" 
d="M429 2c-30 -5 -56 -8 -77 -10v-110h-36v106h-19c-27 0 -46 2 -63 5v-111h-35v122c-84 28 -124 99 -124 228v79c0 124 41 197 124 227v125h35v-114c25 4 44 5 63 5h19v109h36v-112c21 -2 46 -5 77 -10v-94h-33l-3 64c-43 5 -73 6 -96 6c-123 0 -180 -59 -180 -206v-79
c0 -153 55 -206 180 -206c34 0 74 2 132 10v-34z" />
    <glyph glyph-name="colonmonetary" unicode="&#x20a1;" horiz-adv-x="447" 
d="M407 2c-30 -4 -56 -8 -80 -11v-110h-35v107h-28c-18 0 -33 1 -48 3v-110h-35v120c-87 27 -129 99 -129 230v77c1 125 44 199 129 228v127h35v-117c15 2 30 4 48 4c9 0 17 0 28 -1v114h35v-117c24 -2 50 -6 80 -10v-95h-34l-3 66c-47 6 -76 7 -100 7
c-116 0 -177 -55 -177 -206v-77c0 -157 59 -208 177 -208c29 0 69 3 137 12v-33z" />
    <glyph glyph-name="cent.taboldstyle" unicode="&#xe500;" horiz-adv-x="490" 
d="M426 2c-52 -9 -89 -12 -121 -13v-111h-38v112c-135 8 -195 81 -195 242v79c0 155 63 233 195 242v115h38v-114c32 -1 69 -4 121 -13v-100h-33l-3 71c-47 5 -73 6 -97 6c-123 0 -180 -60 -180 -207v-79c0 -153 55 -207 180 -207c35 0 75 3 133 11v-34z" />
    <glyph glyph-name="rupiah" unicode="&#xf6dd;" horiz-adv-x="1149" 
d="M625 0h-80l-196 317c-24 -2 -51 -3 -69 -3c-46 0 -103 1 -136 2v-280l61 -1v-35h-162v35l60 1v671l-60 1v35c97 0 149 7 236 7c177 0 275 -56 275 -208v-10c0 -121 -51 -184 -160 -207l178 -289l53 -1v-35zM512 532v10c0 127 -76 171 -233 171c-40 0 -94 -4 -135 -6v-353
c39 -1 90 -2 136 -2c162 0 232 53 232 180zM775 -208h-154v35l57 1v671l-57 2v35h96v-40c43 25 111 54 178 54c134 0 186 -75 186 -259v-39c0 -190 -78 -264 -228 -264c-29 0 -74 2 -135 10v-170l57 -1v-35zM1041 252v39c0 163 -38 222 -151 222c-61 0 -124 -26 -172 -51
v-428c60 -8 106 -11 135 -11c126 0 188 59 188 229z" />
    <glyph glyph-name="Q.alt" unicode="&#xe23c;" horiz-adv-x="655" 
d="M349 -187h-41v176c-157 8 -255 108 -255 357v51c0 259 105 357 275 357c169 0 274 -98 274 -357v-51c0 -249 -97 -348 -253 -357v-176zM328 25c134 0 232 73 232 321v51c0 248 -97 320 -232 320s-233 -72 -233 -320v-51c0 -248 98 -321 233 -321z" />
    <glyph glyph-name="longs_h" unicode="&#xfb13;" horiz-adv-x="851" 
d="M811 0h-97v337c0 134 -39 176 -137 176c-66 0 -136 -26 -185 -52v-425l56 -1v-35h-154v35l57 1v703c-34 4 -77 7 -118 7c-80 0 -95 -30 -95 -126v-584l64 -1v-35h-169v35l64 1v584c0 104 20 160 132 160c44 0 87 -4 121 -10h42v-274c47 24 114 54 191 54
c125 0 172 -65 172 -212v-302l56 -1v-35z" />
    <glyph glyph-name="longs_l" unicode="&#xfb14;" horiz-adv-x="506" 
d="M463 0h-153v35l56 1v702c-34 3 -81 8 -131 8c-82 0 -97 -30 -97 -126v-584l64 -1v-35h-169v35l64 1v584c0 104 20 160 134 160c55 0 98 -6 134 -10h42v-734l56 -1v-35z" />
    <glyph glyph-name="longs_t" unicode="&#xfb05;" horiz-adv-x="615" 
d="M567 -3c-28 -5 -68 -9 -93 -9c-86 0 -112 35 -112 130v383l-124 3v32h124v203c-22 2 -80 7 -126 7c-83 0 -98 -30 -98 -127v-583l64 -1v-35h-169v35l64 1v583c0 109 21 161 136 161c53 0 107 -7 131 -11h39v-233h164v-35h-164v-381c0 -77 13 -98 74 -98c24 0 60 2 90 5
v-30z" />
    <glyph glyph-name="longs_i" unicode="&#xfb15;" horiz-adv-x="522" 
d="M484 0h-154v35l57 1v463l-57 2v35h97v-500l57 -1v-35zM428 646h-42v125h42v-125zM318 741c-21 2 -60 4 -85 4c-80 0 -95 -29 -95 -126v-583l64 -1v-35h-169v35l64 1v583c0 105 20 161 132 161c30 0 67 -5 89 -9v-30z" />
    <glyph glyph-name="longs_longs" unicode="&#xfb16;" horiz-adv-x="635" 
d="M608 741c-21 2 -58 4 -85 4c-80 0 -95 -29 -95 -126v-583l64 -1v-35h-169v35l64 1v583c0 105 20 161 132 161c30 0 67 -5 89 -9v-30zM318 741c-21 2 -58 4 -85 4c-80 0 -95 -29 -95 -126v-583l64 -1v-35h-169v35l64 1v583c0 105 20 161 132 161c30 0 67 -5 89 -9v-30z
" />
    <glyph glyph-name="zero.slash" unicode="&#xe466;" horiz-adv-x="621" 
d="M555 327c0 -245 -94 -339 -245 -339c-75 0 -136 23 -178 77l-43 -65h-45l66 99c-29 53 -44 128 -44 228v88c0 245 94 339 244 339c77 0 140 -25 182 -82l48 71h45l-71 -106c26 -53 41 -126 41 -222v-88zM107 327c0 -81 10 -143 29 -188l332 496c-37 60 -93 83 -158 83
c-116 0 -203 -72 -203 -303v-88zM514 327v88c0 77 -10 136 -27 181l-331 -495c37 -56 91 -77 154 -77c117 0 204 72 204 303z" />
    <glyph glyph-name="uni2219" unicode="&#x2219;" horiz-adv-x="171" 
d="M106 301h-41v136h41v-136z" />
    <glyph glyph-name="currency.taboldstyle" unicode="&#xe438;" horiz-adv-x="588" 
d="M524 151l-30 -30l-74 75c-36 -30 -82 -45 -126 -45s-89 14 -126 45l-75 -74l-29 29l75 75c-30 36 -45 81 -45 125c0 45 15 89 45 125l-75 76l29 29l75 -75c36 30 81 45 126 45c44 0 89 -15 125 -45l75 74l29 -28l-75 -75c30 -37 46 -82 46 -126c0 -45 -15 -90 -45 -126z
M458 351c0 88 -73 164 -164 164c-88 0 -163 -72 -163 -164c0 -88 72 -165 163 -165c89 0 161 74 164 165z" />
    <glyph glyph-name="T_h" unicode="&#xfb10;" horiz-adv-x="1066" 
d="M1026 0h-100v337c0 134 -38 176 -136 176c-66 0 -136 -26 -185 -52v-425l58 -1v-35h-158v35l59 1v670h-240v-670l70 -2v-34h-182v34l70 2v670h-214l-3 -79h-34v116h574v-247c47 24 114 54 191 54c125 0 171 -65 171 -212v-302l59 -1v-35z" />
    <glyph glyph-name="hyphen.cap" unicode="&#xe13f;" horiz-adv-x="328" 
d="M267 380h-205v36h205v-36z" />
    <glyph glyph-name="parenleft.numerator" unicode="&#xe12b;" horiz-adv-x="213" 
d="M171 241h-38c-38 50 -84 139 -84 261v4c0 123 48 214 86 263h39c-45 -60 -87 -144 -87 -263v-4c0 -117 40 -201 84 -261z" />
    <glyph glyph-name="at.cap" unicode="&#xe138;" horiz-adv-x="805" 
d="M761 489c0 -170 -73 -323 -344 -323c-132 0 -187 45 -187 156c0 21 2 50 5 73c17 144 88 186 193 186c36 0 82 -5 129 -15l-38 -357c158 29 207 147 207 280c0 142 -83 234 -278 234c-212 0 -320 -98 -350 -329c-4 -28 -6 -64 -6 -98c0 -187 105 -272 293 -272
c60 0 125 6 156 11v-27c-32 -5 -98 -13 -158 -13c-206 0 -325 98 -325 303c0 35 3 72 7 100c32 245 149 356 383 356c218 0 313 -109 313 -265zM514 539c-21 3 -59 7 -85 7c-83 0 -140 -28 -156 -153c-3 -28 -5 -51 -5 -72c0 -90 43 -122 149 -122c30 0 44 1 62 3z" />
    <glyph glyph-name="parenleft.cap" unicode="&#xe140;" horiz-adv-x="251" 
d="M206 0h-38c-60 84 -112 220 -112 377v6c0 157 52 291 112 375h38c-66 -96 -111 -223 -111 -375v-6c0 -152 45 -281 111 -377z" />
    <glyph glyph-name="parenright.cap" unicode="&#xe141;" horiz-adv-x="251" 
d="M200 377c0 -157 -52 -293 -111 -377h-38c65 96 110 225 110 377v6c0 152 -44 279 -110 375h38c59 -84 111 -218 111 -375v-6z" />
    <glyph glyph-name="bracketleft.cap" unicode="&#xe13b;" horiz-adv-x="328" 
d="M268 0h-172v743h172v-34h-133v-675h133v-34z" />
    <glyph glyph-name="bracketright.cap" unicode="&#xe13c;" horiz-adv-x="321" 
d="M248 0h-171v34h133v675h-133v34h171v-743z" />
    <glyph glyph-name="braceleft.cap" unicode="&#xe139;" horiz-adv-x="361" 
d="M299 0h-35c-123 0 -141 52 -141 130v85c0 72 -13 99 -71 141v32c58 41 71 69 71 140v85c0 79 18 130 141 130h35v-35h-35c-93 0 -102 -32 -102 -95v-85c0 -74 -18 -115 -76 -156c58 -41 76 -82 76 -157v-85c0 -63 9 -95 102 -95h35v-35z" />
    <glyph glyph-name="braceright.cap" unicode="&#xe13a;" horiz-adv-x="366" 
d="M299 356c-58 -42 -71 -69 -71 -141v-85c0 -78 -18 -130 -141 -130h-35v35h35c93 0 102 32 102 95v85c0 75 18 116 76 157c-58 41 -76 82 -76 156v85c0 63 -9 95 -102 95h-35v35h35c123 0 141 -51 141 -130v-85c0 -71 13 -99 71 -140v-32z" />
    <glyph glyph-name="exclamdown.cap" unicode="&#xe142;" horiz-adv-x="205" 
d="M82 744h41v-119h-41v119zM121 554l3 -566h-43l3 566h37z" />
    <glyph glyph-name="questiondown.cap" unicode="&#xe143;" horiz-adv-x="434" 
d="M269 743h42v-120h-42v120zM61 129c0 71 21 117 101 195c97 93 108 119 108 192v35h41v-35c0 -78 -13 -116 -113 -211c-79 -75 -95 -112 -95 -176v-4c0 -89 62 -109 156 -109c32 0 70 3 107 8l4 77h34v-105c-48 -10 -106 -16 -148 -16c-112 0 -195 30 -195 145v4z" />
    <glyph glyph-name="guillemotleft.cap" unicode="&#xe134;" horiz-adv-x="544" 
d="M488 190h-49l-157 207l157 207h49l-155 -207zM261 190l-155 207l155 207h-48l-157 -207l157 -207h48z" />
    <glyph glyph-name="guillemotright.cap" unicode="&#xe135;" horiz-adv-x="544" 
d="M488 397l-157 -207h-49l156 207l-156 207h49zM262 397l-157 207h-49l155 -207l-155 -207h49z" />
    <glyph glyph-name="guilsinglleft.cap" unicode="&#xe136;" horiz-adv-x="313" 
d="M259 190h-49l-157 207l157 207h49l-155 -207z" />
    <glyph glyph-name="guilsinglright.cap" unicode="&#xe137;" horiz-adv-x="313" 
d="M259 397l-157 -207h-49l155 207l-155 207h49z" />
    <glyph glyph-name="endash.cap" unicode="&#xe13e;" horiz-adv-x="422" 
d="M366 312h-310v36h310v-36z" />
    <glyph glyph-name="emdash.cap" unicode="&#xe13d;" horiz-adv-x="553" 
d="M497 312h-441v36h441v-36z" />
    <glyph glyph-name="periodcentered.cap" unicode="&#xe22b;" horiz-adv-x="198" 
d="M121 334h-41v120h41v-120z" />
    <glyph glyph-name="percent.oldstyle" unicode="&#xe43a;" horiz-adv-x="877" 
d="M825 171c0 -127 -51 -182 -138 -182s-139 56 -139 182v10c0 126 52 182 139 182s138 -55 138 -182v-10zM789 171v10c0 114 -41 150 -102 150s-102 -36 -102 -150v-10c0 -114 41 -150 102 -150s102 36 102 150zM625 542l-328 -542h-40l328 542h40zM335 363
c0 -127 -51 -182 -138 -182s-139 56 -139 182v9c0 127 52 182 139 182s138 -55 138 -182v-9zM299 362v10c0 115 -41 151 -102 151s-102 -36 -102 -151v-10c0 -113 41 -149 102 -149s102 36 102 149z" />
    <glyph glyph-name="perthousand.oldstyle" unicode="&#xe43b;" horiz-adv-x="1219" 
d="M1167 171c0 -127 -52 -182 -139 -182s-138 56 -138 182v10c0 126 51 182 138 182s139 -55 139 -182v-10zM1131 171v10c0 114 -41 150 -103 150c-61 0 -102 -36 -102 -150v-10c0 -114 41 -150 102 -150c62 0 103 36 103 150zM825 171c0 -127 -51 -182 -138 -182
s-139 56 -139 182v10c0 126 52 182 139 182s138 -55 138 -182v-10zM789 171v10c0 114 -41 150 -102 150s-102 -36 -102 -150v-10c0 -114 41 -150 102 -150s102 36 102 150zM625 542l-328 -542h-40l328 542h40zM335 363c0 -127 -51 -182 -138 -182s-139 56 -139 182v9
c0 127 52 182 139 182s138 -55 138 -182v-9zM299 362v10c0 115 -41 151 -102 151s-102 -36 -102 -151v-10c0 -113 41 -149 102 -149s102 36 102 149z" />
    <glyph glyph-name="figuredash" unicode="&#x2012;" horiz-adv-x="589" 
d="M524 273h-459v36h459v-36z" />
    <glyph glyph-name="threequartersemdash" unicode="&#x2015;" horiz-adv-x="794" 
d="M729 273h-664v36h664v-36z" />
    <glyph glyph-name="overscore" unicode="&#x203e;" horiz-adv-x="571" 
d="M570 828h-585v31h585v-31z" />
    <glyph glyph-name="onedotenleader" unicode="&#x2024;" horiz-adv-x="163" 
d="M104 0h-41v134h41v-134z" />
    <glyph glyph-name="twodotenleader" unicode="&#x2025;" horiz-adv-x="357" 
d="M296 0h-41v134h41v-134zM106 0v134h-42v-134h42z" />
    <glyph glyph-name="afii61352" unicode="&#x2116;" horiz-adv-x="1176" 
d="M1125 496c0 -145 -54 -218 -181 -218c-126 0 -179 73 -179 218v28c0 145 53 217 179 217c127 0 181 -72 181 -217v-28zM1088 496v28c0 130 -42 184 -144 184c-100 0 -142 -54 -142 -184v-28c0 -131 41 -184 142 -184c102 0 144 54 144 184zM769 193v34h359v-34h-359z
M672 708l-60 -1v-709h-58l-364 619c-17 28 -34 56 -48 84h-2c1 -33 2 -67 2 -100v-565l61 -1v-35h-160v35l60 1v671l-60 1v35h118l364 -613c16 -27 32 -57 48 -86h1c-1 34 -2 69 -2 104v559l-60 1v35h160v-35z" />
    <glyph glyph-name="parenleft.denominator" unicode="&#xe117;" horiz-adv-x="213" 
d="M171 -79h-39c-37 50 -84 140 -84 261v4c0 123 48 214 87 263h38c-44 -60 -87 -144 -87 -263v-4c0 -117 41 -201 85 -261z" />
    <glyph glyph-name="period.numerator" unicode="&#xe133;" horiz-adv-x="123" 
d="M82 306h-37v88h37v-88z" />
    <glyph glyph-name="parenright.numerator" unicode="&#xe12c;" horiz-adv-x="213" 
d="M163 502c0 -122 -47 -211 -84 -261h-39c45 60 85 144 85 261v4c0 119 -42 203 -87 263h38c39 -49 87 -140 87 -263v-4z" />
    <glyph glyph-name="cent.numerator" unicode="&#xe12d;" horiz-adv-x="345" 
d="M306 315c-34 -5 -67 -8 -94 -8v-78h-34v79c-88 8 -137 57 -137 192v60c0 126 47 181 137 190v75h34v-74c27 -1 60 -3 94 -9v-77h-31l-2 48c-28 3 -50 4 -70 4c-85 0 -124 -40 -124 -157v-60c0 -121 37 -159 126 -159c30 0 66 2 101 6v-32z" />
    <glyph glyph-name="dollar.numerator" unicode="&#xe131;" horiz-adv-x="363" 
d="M324 423c0 -77 -58 -108 -125 -115v-75h-35v74c-29 0 -72 4 -113 10v82h32l3 -54c27 -3 58 -5 89 -5c65 0 110 22 110 82c0 46 -26 63 -90 91l-53 23c-58 25 -102 56 -102 119c0 71 61 96 124 101v74h35v-73c44 -1 90 -7 110 -10v-81h-32l-2 53c-30 3 -55 5 -88 5
c-57 0 -108 -13 -108 -69c0 -42 31 -63 82 -86l52 -23c72 -32 111 -59 111 -123z" />
    <glyph glyph-name="hyphen.numerator" unicode="&#xe132;" horiz-adv-x="257" 
d="M208 475h-157v32h157v-32z" />
    <glyph glyph-name="comma.numerator" unicode="&#xe130;" horiz-adv-x="159" 
d="M119 394l-54 -144h-33l47 144h40z" />
    <glyph glyph-name="parenright.denominator" unicode="&#xe118;" horiz-adv-x="213" 
d="M162 182c0 -121 -46 -211 -84 -261h-38c44 60 84 144 84 261v4c0 119 -42 203 -87 263h39c38 -49 86 -140 86 -263v-4z" />
    <glyph glyph-name="cent.denominator" unicode="&#xe119;" horiz-adv-x="345" 
d="M306 7c-34 -5 -67 -8 -94 -8v-78h-34v79c-88 8 -137 57 -137 192v60c0 126 47 181 137 190v75h34v-74c27 -1 60 -3 94 -9v-77h-31l-2 48c-28 3 -50 4 -70 4c-85 0 -124 -40 -124 -157v-60c0 -121 37 -159 126 -159c30 0 66 2 101 6v-32z" />
    <glyph glyph-name="dollar.denominator" unicode="&#xe11b;" horiz-adv-x="363" 
d="M324 111c0 -77 -58 -108 -125 -115v-75h-35v74c-41 0 -86 6 -113 10v82h32l3 -53c27 -3 58 -6 89 -6c65 0 110 22 110 82c0 46 -26 64 -90 92l-53 23c-59 25 -102 55 -102 118c0 71 61 96 124 101v74h35v-73c44 -1 90 -7 110 -10v-81h-32l-2 53c-30 3 -55 5 -88 5
c-57 0 -108 -13 -108 -69c0 -42 31 -63 82 -86l52 -23c72 -32 111 -59 111 -123z" />
    <glyph glyph-name="hyphen.denominator" unicode="&#xe11c;" horiz-adv-x="257" 
d="M208 169h-157v31h157v-31z" />
    <glyph glyph-name="comma.denominator" unicode="&#xe11a;" horiz-adv-x="159" 
d="M119 87l-54 -143h-33l47 143h40z" />
    <glyph glyph-name="period.denominator" unicode="&#xe11d;" horiz-adv-x="123" 
d="M82 0h-37v87h37v-87z" />
    <glyph glyph-name="T_h.caron" unicode="&#xfb11;" horiz-adv-x="1066" 
d="M1026 0h-100v337c0 134 -38 176 -136 176c-66 0 -136 -26 -185 -52v-425l58 -1v-35h-158v35l59 1v670h-240v-670l70 -2v-34h-182v34l70 2v670h-214l-3 -79h-34v116h574v-247c47 24 114 54 191 54c125 0 171 -65 171 -212v-302l59 -1v-35zM476 947l-149 -154h-49l-148 154
h44l128 -129l130 129h44z" />
    <glyph glyph-name="T_h.commaaccent" unicode="&#xfb12;" horiz-adv-x="1066" 
d="M1026 0h-100v337c0 134 -38 176 -136 176c-66 0 -136 -26 -185 -52v-425l58 -1v-35h-158v35l59 1v670h-240v-670l70 -2v-34h-182v34l70 2v670h-214l-3 -79h-34v116h574v-247c47 24 114 54 191 54c125 0 171 -65 171 -212v-302l59 -1v-35zM336 -68l-101 -140h-42l94 140
h49z" />
    <glyph glyph-name="g" unicode="g" horiz-adv-x="538" 
d="M490 -44c0 -102 -56 -172 -222 -172c-168 0 -221 70 -221 173c0 57 23 99 55 129c-33 13 -50 43 -50 76c0 31 18 60 49 79c-32 31 -45 76 -45 126c0 95 31 183 209 183h215v-32l-86 -2c49 -22 76 -71 76 -149c0 -96 -44 -174 -207 -174c-64 0 -104 12 -136 29
c-24 -14 -39 -38 -39 -60c0 -31 18 -50 60 -50h116c161 0 226 -41 226 -156zM450 -44c0 88 -36 122 -186 122h-126c-30 -27 -51 -62 -51 -121c0 -83 35 -138 181 -138c142 0 182 54 182 137zM430 367c0 79 -21 148 -166 148c-151 0 -168 -72 -168 -148
c0 -78 26 -139 167 -139c142 0 167 61 167 139z" />
    <glyph glyph-name="e.alt" unicode="&#xe249;" horiz-adv-x="531" 
d="M483 257h-392v-14c0 -147 52 -220 198 -220c47 0 104 5 143 10l3 72h33v-99c-47 -9 -114 -18 -180 -18c-185 0 -238 101 -238 263v35c0 160 62 264 217 264c153 0 216 -102 216 -266v-27zM442 291v8c0 120 -40 215 -175 215c-142 0 -176 -103 -176 -215v-8h351z" />
    <glyph glyph-name="uni00AD" unicode="&#xad;" horiz-adv-x="388" 
d="M315 270h-242v36h242v-36z" />
    <glyph glyph-name="uni00A0" unicode="&#xa0;" horiz-adv-x="211" 
 />
    <glyph glyph-name="peseta.taboldstyle" unicode="&#xe439;" horiz-adv-x="521" 
d="M478 373h-48c-7 -101 -70 -148 -201 -148c-22 0 -61 1 -98 4v-195l57 -2v-32h-140v32l42 2v339h-48v34h48v100l-42 3v31c76 4 127 7 183 7c129 0 193 -39 199 -141h48v-34zM391 386v10c0 88 -51 116 -161 116c-34 0 -72 -2 -99 -4v-245c38 -1 77 -3 98 -3
c113 0 162 38 162 126z" />
    <glyph glyph-name="ampersand.alt" unicode="&#xe43d;" horiz-adv-x="682" 
d="M621 0h-50l-65 65c-48 -49 -128 -77 -231 -77c-117 0 -226 44 -226 184v4c1 89 34 139 153 196l-12 12c-63 63 -112 121 -112 209v5c0 115 80 157 203 157c124 0 201 -42 201 -157v-4c0 -86 -40 -146 -213 -230l234 -236c36 58 51 151 51 265v12h38v-12
c0 -124 -16 -224 -61 -293l90 -91v-9zM480 91l-251 253c-101 -45 -137 -85 -138 -168v-4c0 -107 78 -148 184 -148c92 0 162 23 205 67zM441 594v4c0 96 -70 120 -160 120s-162 -24 -162 -120v-5c0 -79 48 -127 110 -189l12 -12c159 78 200 125 200 202z" />
    <glyph glyph-name="a.alt2" unicode="&#xe43e;" 
d="M491 0h-96v42c-42 -24 -108 -54 -186 -54c-110 0 -162 51 -162 157v8c0 133 80 163 243 163h103v52c0 116 -28 146 -159 146c-35 0 -87 -4 -147 -11v33c52 8 109 14 150 14c164 0 197 -50 197 -182v-332l57 -1v-35zM393 74v209h-103c-146 0 -202 -22 -202 -130v-10
c0 -88 44 -122 127 -122c72 0 141 31 178 53z" />
    <glyph glyph-name="agrave.alt" unicode="&#xe282;" horiz-adv-x="540" 
d="M511 0h-96v35c-38 -21 -92 -47 -155 -47c-144 0 -208 92 -208 261v36c0 191 76 265 220 265c45 0 108 -2 182 -11v-503l57 -1v-35zM414 69v438c-59 6 -111 7 -134 7c-128 0 -187 -61 -187 -229v-36c0 -146 50 -225 167 -225c63 0 113 24 154 45zM418 770l-145 -154h-43
l138 154h50z" />
    <glyph glyph-name="aacute.alt" unicode="&#xe281;" horiz-adv-x="540" 
d="M511 0h-96v35c-38 -21 -92 -47 -155 -47c-144 0 -208 92 -208 261v36c0 191 76 265 220 265c45 0 108 -2 182 -11v-503l57 -1v-35zM414 69v438c-59 6 -111 7 -134 7c-128 0 -187 -61 -187 -229v-36c0 -146 50 -225 167 -225c63 0 113 24 154 45zM418 770l-145 -154h-43
l138 154h50z" />
    <glyph glyph-name="acircumflex.alt" unicode="&#xe283;" horiz-adv-x="540" 
d="M511 0h-96v35c-38 -21 -92 -47 -155 -47c-144 0 -208 92 -208 261v36c0 191 76 265 220 265c45 0 108 -2 182 -11v-503l57 -1v-35zM414 69v438c-59 6 -111 7 -134 7c-128 0 -187 -61 -187 -229v-36c0 -146 50 -225 167 -225c63 0 113 24 154 45zM446 616h-44l-122 128
l-121 -128h-44l141 154h48z" />
    <glyph glyph-name="atilde.alt" unicode="&#xe285;" horiz-adv-x="540" 
d="M511 0h-96v35c-38 -21 -92 -47 -155 -47c-144 0 -208 92 -208 261v36c0 191 76 265 220 265c45 0 108 -2 182 -11v-503l57 -1v-35zM414 69v438c-59 6 -111 7 -134 7c-128 0 -187 -61 -187 -229v-36c0 -146 50 -225 167 -225c63 0 113 24 154 45zM459 737
c0 -77 -18 -125 -83 -125c-36 0 -56 17 -88 48l-45 44c-26 26 -39 39 -65 39c-43 0 -48 -41 -48 -92v-35h-35v35c0 77 19 124 83 124c38 0 58 -14 88 -44l46 -45c27 -27 41 -41 64 -41c42 0 47 41 47 92v34h36v-34z" />
    <glyph glyph-name="adieresis.alt" unicode="&#xe284;" horiz-adv-x="540" 
d="M511 0h-96v35c-38 -21 -92 -47 -155 -47c-144 0 -208 92 -208 261v36c0 191 76 265 220 265c45 0 108 -2 182 -11v-503l57 -1v-35zM414 69v438c-59 6 -111 7 -134 7c-128 0 -187 -61 -187 -229v-36c0 -146 50 -225 167 -225c63 0 113 24 154 45zM398 640h-38v120h38v-120
zM168 640v120h-38v-120h38z" />
    <glyph glyph-name="amacron.alt" unicode="&#xe440;" horiz-adv-x="540" 
d="M511 0h-96v35c-38 -21 -92 -47 -155 -47c-144 0 -208 92 -208 261v36c0 191 76 265 220 265c45 0 108 -2 182 -11v-503l57 -1v-35zM414 69v438c-59 6 -111 7 -134 7c-128 0 -187 -61 -187 -229v-36c0 -146 50 -225 167 -225c63 0 113 24 154 45zM441 673h-343v34h343v-34
z" />
    <glyph glyph-name="abreve.alt" unicode="&#xe441;" horiz-adv-x="540" 
d="M511 0h-96v35c-38 -21 -92 -47 -155 -47c-144 0 -208 92 -208 261v36c0 191 76 265 220 265c45 0 108 -2 182 -11v-503l57 -1v-35zM414 69v438c-59 6 -111 7 -134 7c-128 0 -187 -61 -187 -229v-36c0 -146 50 -225 167 -225c63 0 113 24 154 45zM428 772
c-7 -88 -41 -158 -155 -158c-113 0 -147 70 -154 158h32c7 -74 32 -128 122 -128c91 0 116 54 123 128h32z" />
    <glyph glyph-name="aring.alt" unicode="&#xe286;" horiz-adv-x="540" 
d="M511 0h-96v35c-38 -21 -92 -47 -155 -47c-144 0 -208 92 -208 261v36c0 191 76 265 220 265c45 0 108 -2 182 -11v-503l57 -1v-35zM414 69v438c-59 6 -111 7 -134 7c-128 0 -187 -61 -187 -229v-36c0 -146 50 -225 167 -225c63 0 113 24 154 45zM379 707
c0 -73 -49 -107 -113 -107c-65 0 -114 34 -114 107s49 107 114 107c64 0 113 -35 113 -107zM348 707c0 60 -40 79 -82 79c-43 0 -82 -18 -82 -79c0 -60 39 -79 82 -79c42 0 82 19 82 79z" />
    <glyph glyph-name="aringacute.alt" unicode="&#xe442;" horiz-adv-x="540" 
d="M511 0h-96v35c-38 -21 -92 -47 -155 -47c-144 0 -208 92 -208 261v36c0 191 76 265 220 265c45 0 108 -2 182 -11v-503l57 -1v-35zM414 69v438c-59 6 -111 7 -134 7c-128 0 -187 -61 -187 -229v-36c0 -146 50 -225 167 -225c63 0 113 24 154 45zM378 677
c0 -73 -49 -107 -113 -107c-65 0 -114 34 -114 107s49 107 114 107c64 0 113 -35 113 -107zM347 677c0 60 -40 79 -82 79c-43 0 -82 -18 -82 -79c0 -60 39 -79 82 -79c42 0 82 19 82 79zM424 953l-145 -154h-43l138 154h50z" />
    <glyph glyph-name="aogonek.alt" unicode="&#xe443;" horiz-adv-x="540" 
d="M511 0c-107 -45 -165 -75 -165 -128c0 -39 23 -60 84 -60c33 0 65 4 81 7v-26c-16 -5 -51 -10 -84 -10c-83 0 -117 34 -117 88c0 59 62 99 132 129h-27v35c-38 -21 -92 -47 -155 -47c-144 0 -208 92 -208 261v36c0 191 76 265 220 265c45 0 108 -2 182 -11v-503l57 -1
v-35zM414 69v438c-59 6 -111 7 -134 7c-128 0 -187 -61 -187 -229v-36c0 -146 50 -225 167 -225c63 0 113 24 154 45z" />
    <glyph glyph-name="gcircumflex.alt" unicode="&#xe56e;" horiz-adv-x="511" 
d="M414 52v454c-46 4 -96 8 -127 8c-137 0 -193 -57 -193 -210v-70c0 -155 50 -211 173 -211c59 0 116 18 147 29zM72 -167c56 -5 119 -10 176 -10c130 0 166 41 166 171v23c-29 -11 -87 -29 -147 -29c-147 0 -214 70 -214 246v70c0 173 70 246 234 246c46 0 110 -8 168 -14
h56v-35l-56 -2v-505c0 -146 -48 -206 -206 -206c-58 0 -125 5 -177 13v32zM428 616h-44l-122 128l-121 -128h-44l141 154h48z" />
    <glyph glyph-name="gbreve.alt" unicode="&#xe56d;" horiz-adv-x="511" 
d="M421 772c-7 -88 -41 -158 -155 -158c-113 0 -147 70 -154 158h32c7 -74 32 -128 122 -128c91 0 116 54 123 128h32zM414 52v454c-46 4 -96 8 -127 8c-137 0 -193 -57 -193 -210v-70c0 -155 50 -211 173 -211c59 0 116 18 147 29zM72 -167c56 -5 119 -10 176 -10
c130 0 166 41 166 171v23c-29 -11 -87 -29 -147 -29c-147 0 -214 70 -214 246v70c0 173 70 246 234 246c46 0 110 -8 168 -14h56v-35l-56 -2v-505c0 -146 -48 -206 -206 -206c-58 0 -125 5 -177 13v32z" />
    <glyph glyph-name="gdotaccent.alt" unicode="&#xe570;" horiz-adv-x="511" 
d="M414 52v454c-46 4 -96 8 -127 8c-137 0 -193 -57 -193 -210v-70c0 -155 50 -211 173 -211c59 0 116 18 147 29zM72 -167c56 -5 119 -10 176 -10c130 0 166 41 166 171v23c-29 -11 -87 -29 -147 -29c-147 0 -214 70 -214 246v70c0 173 70 246 234 246c46 0 110 -8 168 -14
h56v-35l-56 -2v-505c0 -146 -48 -206 -206 -206c-58 0 -125 5 -177 13v32zM292 647h-41v122h41v-122z" />
    <glyph glyph-name="gcommaaccent.alt" unicode="&#xe56f;" horiz-adv-x="511" 
d="M414 52v454c-46 4 -96 8 -127 8c-137 0 -193 -57 -193 -210v-70c0 -155 50 -211 173 -211c59 0 116 18 147 29zM72 -167c56 -5 119 -10 176 -10c130 0 166 41 166 171v23c-29 -11 -87 -29 -147 -29c-147 0 -214 70 -214 246v70c0 173 70 246 234 246c46 0 110 -8 168 -14
h56v-35l-56 -2v-505c0 -146 -48 -206 -206 -206c-58 0 -125 5 -177 13v32zM382 757l-94 -141h-49l101 141h42z" />
    <glyph glyph-name="egrave.alt" unicode="&#xe289;" horiz-adv-x="531" 
d="M483 257h-392v-14c0 -147 52 -220 198 -220c47 0 104 5 143 10l3 72h33v-99c-47 -9 -114 -18 -180 -18c-185 0 -238 101 -238 263v35c0 160 62 264 217 264c153 0 216 -102 216 -266v-27zM442 291v8c0 120 -40 215 -175 215c-142 0 -176 -103 -176 -215v-8h351zM314 616
h-43l-145 154h50z" />
    <glyph glyph-name="eacute.alt" unicode="&#xe288;" horiz-adv-x="531" 
d="M402 770l-145 -154h-43l138 154h50zM483 257h-392v-14c0 -147 52 -220 198 -220c47 0 104 5 143 10l3 72h33v-99c-47 -9 -114 -18 -180 -18c-185 0 -238 101 -238 263v35c0 160 62 264 217 264c153 0 216 -102 216 -266v-27zM442 291v8c0 120 -40 215 -175 215
c-142 0 -176 -103 -176 -215v-8h351z" />
    <glyph glyph-name="ecircumflex.alt" unicode="&#xe28a;" horiz-adv-x="531" 
d="M483 257h-392v-14c0 -147 52 -220 198 -220c47 0 104 5 143 10l3 72h33v-99c-47 -9 -114 -18 -180 -18c-185 0 -238 101 -238 263v35c0 160 62 264 217 264c153 0 216 -102 216 -266v-27zM442 291v8c0 120 -40 215 -175 215c-142 0 -176 -103 -176 -215v-8h351zM434 616
h-44l-122 128l-121 -128h-44l141 154h48z" />
    <glyph glyph-name="ecaron.alt" unicode="&#xe444;" horiz-adv-x="531" 
d="M442 770l-149 -154h-49l-148 154h44l128 -129l130 129h44zM483 257h-392v-14c0 -147 52 -220 198 -220c47 0 104 5 143 10l3 72h33v-99c-47 -9 -114 -18 -180 -18c-185 0 -238 101 -238 263v35c0 160 62 264 217 264c153 0 216 -102 216 -266v-27zM442 291v8
c0 120 -40 215 -175 215c-142 0 -176 -103 -176 -215v-8h351z" />
    <glyph glyph-name="edieresis.alt" unicode="&#xe28b;" horiz-adv-x="531" 
d="M483 257h-392v-14c0 -147 52 -220 198 -220c47 0 104 5 143 10l3 72h33v-99c-47 -9 -114 -18 -180 -18c-185 0 -238 101 -238 263v35c0 160 62 264 217 264c153 0 216 -102 216 -266v-27zM442 291v8c0 120 -40 215 -175 215c-142 0 -176 -103 -176 -215v-8h351zM396 640
h-38v120h38v-120zM166 640v120h-38v-120h38z" />
    <glyph glyph-name="emacron.alt" unicode="&#xe445;" horiz-adv-x="531" 
d="M483 257h-392v-14c0 -147 52 -220 198 -220c47 0 104 5 143 10l3 72h33v-99c-47 -9 -114 -18 -180 -18c-185 0 -238 101 -238 263v35c0 160 62 264 217 264c153 0 216 -102 216 -266v-27zM442 291v8c0 120 -40 215 -175 215c-142 0 -176 -103 -176 -215v-8h351zM439 670
h-343v34h343v-34z" />
    <glyph glyph-name="ebreve.alt" unicode="&#xe446;" horiz-adv-x="531" 
d="M422 772c-7 -88 -41 -158 -155 -158c-113 0 -147 70 -154 158h32c7 -74 32 -128 122 -128c91 0 116 54 123 128h32zM483 257h-392v-14c0 -147 52 -220 198 -220c47 0 104 5 143 10l3 72h33v-99c-47 -9 -114 -18 -180 -18c-185 0 -238 101 -238 263v35
c0 160 62 264 217 264c153 0 216 -102 216 -266v-27zM442 291v8c0 120 -40 215 -175 215c-142 0 -176 -103 -176 -215v-8h351z" />
    <glyph glyph-name="edotaccent.alt" unicode="&#xe448;" horiz-adv-x="531" 
d="M483 257h-392v-14c0 -147 52 -220 198 -220c47 0 104 5 143 10l3 72h33v-99c-47 -9 -114 -18 -180 -18c-185 0 -238 101 -238 263v35c0 160 62 264 217 264c153 0 216 -102 216 -266v-27zM442 291v8c0 120 -40 215 -175 215c-142 0 -176 -103 -176 -215v-8h351zM288 649
h-41v122h41v-122z" />
    <glyph glyph-name="eogonek.alt" unicode="&#xe44a;" horiz-adv-x="531" 
d="M483 257h-392v-14c0 -147 52 -220 198 -220c47 0 104 5 143 10l3 72h33v-99c-107 -45 -165 -81 -165 -134c0 -39 23 -60 84 -60c33 0 65 4 81 7v-26c-16 -5 -51 -10 -84 -10c-83 0 -117 34 -117 88c0 53 49 92 109 122c-28 -3 -59 -5 -88 -5c-185 0 -238 101 -238 263v35
c0 160 62 264 217 264c153 0 216 -102 216 -266v-27zM442 291v8c0 120 -40 215 -175 215c-142 0 -176 -103 -176 -215v-8h351z" />
    <glyph glyph-name="ugrave.alt" unicode="&#xe297;" horiz-adv-x="576" 
d="M344 616h-43l-145 154h50zM502 265c0 -184 -47 -277 -202 -277c-153 0 -201 93 -201 277v235l-57 1v35h98v-271c0 -169 38 -241 160 -241c123 0 161 73 161 241v235l-56 1v35h97v-271z" />
    <glyph glyph-name="uacute.alt" unicode="&#xe296;" horiz-adv-x="576" 
d="M433 770l-145 -154h-43l138 154h50zM502 265c0 -184 -47 -277 -202 -277c-153 0 -201 93 -201 277v235l-57 1v35h98v-271c0 -169 38 -241 160 -241c123 0 161 73 161 241v235l-56 1v35h97v-271z" />
    <glyph glyph-name="ucircumflex.alt" unicode="&#xe298;" horiz-adv-x="576" 
d="M502 265c0 -184 -47 -277 -202 -277c-153 0 -201 93 -201 277v235l-57 1v35h98v-271c0 -169 38 -241 160 -241c123 0 161 73 161 241v235l-56 1v35h97v-271zM468 616h-44l-122 128l-121 -128h-44l141 154h48z" />
    <glyph glyph-name="utilde.alt" unicode="&#xe44b;" horiz-adv-x="576" 
d="M468 737c0 -77 -18 -125 -83 -125c-36 0 -56 17 -88 48l-45 44c-26 26 -39 39 -65 39c-43 0 -48 -41 -48 -92v-35h-35v35c0 77 19 124 83 124c38 0 58 -14 88 -44l46 -45c27 -27 41 -41 64 -41c42 0 47 41 47 92v34h36v-34zM502 265c0 -184 -47 -277 -202 -277
c-153 0 -201 93 -201 277v235l-57 1v35h98v-271c0 -169 38 -241 160 -241c123 0 161 73 161 241v235l-56 1v35h97v-271z" />
    <glyph glyph-name="udieresis.alt" unicode="&#xe299;" horiz-adv-x="576" 
d="M502 265c0 -184 -47 -277 -202 -277c-153 0 -201 93 -201 277v235l-57 1v35h98v-271c0 -169 38 -241 160 -241c123 0 161 73 161 241v235l-56 1v35h97v-271zM426 640h-38v120h38v-120zM196 640v120h-38v-120h38z" />
    <glyph glyph-name="umacron.alt" unicode="&#xe44c;" horiz-adv-x="576" 
d="M502 265c0 -184 -47 -277 -202 -277c-153 0 -201 93 -201 277v235l-57 1v35h98v-271c0 -169 38 -241 160 -241c123 0 161 73 161 241v235l-56 1v35h97v-271zM459 673h-343v34h343v-34z" />
    <glyph glyph-name="ubreve.alt" unicode="&#xe44d;" horiz-adv-x="576" 
d="M448 772c-7 -88 -41 -158 -155 -158c-113 0 -147 70 -154 158h32c7 -74 32 -128 122 -128c91 0 116 54 123 128h32zM502 265c0 -184 -47 -277 -202 -277c-153 0 -201 93 -201 277v235l-57 1v35h98v-271c0 -169 38 -241 160 -241c123 0 161 73 161 241v235l-56 1v35h97
v-271z" />
    <glyph glyph-name="uring.alt" unicode="&#xe44e;" horiz-adv-x="576" 
d="M411 707c0 -73 -49 -107 -113 -107c-65 0 -114 34 -114 107s49 107 114 107c64 0 113 -35 113 -107zM380 707c0 60 -40 79 -82 79c-43 0 -82 -18 -82 -79c0 -60 39 -79 82 -79c42 0 82 19 82 79zM502 265c0 -184 -47 -277 -202 -277c-153 0 -201 93 -201 277v235l-57 1
v35h98v-271c0 -169 38 -241 160 -241c123 0 161 73 161 241v235l-56 1v35h97v-271z" />
    <glyph glyph-name="uhungarumlaut.alt" unicode="&#xe44f;" horiz-adv-x="576" 
d="M502 265c0 -184 -47 -277 -202 -277c-153 0 -201 93 -201 277v235l-57 1v35h98v-271c0 -169 38 -241 160 -241c123 0 161 73 161 241v235l-56 1v35h97v-271zM518 769l-145 -154h-43l138 154h50zM327 769h-50l-138 -154h44z" />
    <glyph glyph-name="uogonek.alt" unicode="&#xe450;" horiz-adv-x="576" 
d="M502 265c0 -159 -35 -250 -144 -271c-89 -40 -136 -75 -136 -123c0 -39 23 -60 84 -60c33 0 65 4 81 7v-26c-16 -5 -51 -10 -84 -10c-83 0 -117 34 -117 88c0 50 44 89 100 118c-142 6 -187 98 -187 277v235l-57 1v35h98v-271c0 -169 38 -241 160 -241
c123 0 161 73 161 241v235l-56 1v35h97v-271z" />
    <glyph glyph-name="A.sc" unicode="&#xe000;" horiz-adv-x="535" 
d="M510 0h-110v32l28 1l-57 164h-211l-56 -164l32 -1v-32h-112v32l35 1l166 471l-50 1v32h120l177 -504l38 -1v-32zM361 231l-69 199c-10 28 -17 52 -25 77h-3c-8 -25 -14 -48 -24 -77l-70 -199h191z" />
    <glyph glyph-name="B.sc" unicode="&#xe008;" horiz-adv-x="481" 
d="M435 147c0 -112 -70 -153 -212 -153c-69 0 -128 6 -185 6v32l40 2v469l-40 2v32c57 1 126 5 185 5c143 0 209 -32 209 -135v-6c0 -49 -18 -104 -97 -120c79 -16 100 -71 100 -128v-6zM395 147v6c0 58 -20 112 -140 112h-136v-232c20 -2 60 -5 105 -5
c118 0 171 30 171 119zM392 400v7c0 82 -54 101 -168 101c-37 0 -82 -2 -105 -3v-207h136c120 0 137 52 137 102z" />
    <glyph glyph-name="C.sc" unicode="&#xe009;" horiz-adv-x="437" 
d="M391 2c-13 -2 -67 -11 -128 -11c-139 0 -212 71 -212 247v61c0 176 73 246 212 246c61 0 115 -8 128 -11v-87h-31l-2 58c-21 2 -57 6 -94 6c-118 0 -173 -63 -173 -212v-61c0 -149 55 -212 173 -212c37 0 73 3 94 5l2 59h31v-88z" />
    <glyph glyph-name="D.sc" unicode="&#xe00b;" horiz-adv-x="505" 
d="M457 250c0 -172 -69 -256 -239 -256c-61 0 -124 5 -180 6v33l40 2v467l-40 2v33c61 2 116 6 181 6c170 0 238 -83 238 -255v-38zM416 250v38c0 163 -67 219 -197 219c-38 0 -78 -2 -100 -4v-469c26 -1 58 -4 100 -4c133 0 197 56 197 220z" />
    <glyph glyph-name="E.sc" unicode="&#xe00d;" horiz-adv-x="448" 
d="M389 0h-351v32l40 1v471l-40 1v32h351v-87h-32l-2 53h-236v-204h251v-34h-251v-231h236l2 54h32v-88z" />
    <glyph glyph-name="F.sc" unicode="&#xe012;" horiz-adv-x="430" 
d="M370 265h-251v-232l44 -1v-32h-125v32l41 1v471l-40 1v32h349v-87h-32l-2 52h-235v-203h251v-34z" />
    <glyph glyph-name="G.sc" unicode="&#xe013;" horiz-adv-x="476" 
d="M414 3c-39 -5 -92 -12 -146 -12c-129 0 -217 67 -217 246v63c0 186 87 245 220 245c62 0 123 -9 143 -12v-84h-31l-3 54c-27 3 -67 7 -106 7c-115 0 -183 -48 -183 -210v-63c0 -155 68 -210 180 -210c32 0 70 1 104 5v214l-83 2v30h122v-275z" />
    <glyph glyph-name="H.sc" unicode="&#xe014;" horiz-adv-x="549" 
d="M510 0h-121v32l40 1v237h-309v-237l40 -1v-32h-121v32l40 1v471l-40 1v32h121v-32l-40 -1v-200h309v200l-40 1v32h121v-32l-40 -1v-471l40 -1v-32z" />
    <glyph glyph-name="I.sc" unicode="&#xe015;" horiz-adv-x="204" 
d="M164 0h-124v32l42 1v471l-42 1v32h124v-32l-42 -1v-471l42 -1v-32z" />
    <glyph glyph-name="J.sc" unicode="&#xe01a;" horiz-adv-x="205" 
d="M164 505l-42 -1v-539c0 -70 -16 -114 -99 -114c-16 0 -34 2 -47 3v30c15 0 29 -1 43 -1c58 0 63 29 63 82v539l-42 1v32h124v-32z" />
    <glyph glyph-name="K.sc" unicode="&#xe01b;" horiz-adv-x="484" 
d="M451 0h-71l-259 267v-234l40 -1v-32h-121v32l41 1v471l-41 1v32h121v-32l-40 -1v-225l259 258h71v-32l-47 -1l-235 -230l238 -241l44 -1v-32z" />
    <glyph glyph-name="L.sc" unicode="&#xe01c;" horiz-adv-x="416" 
d="M383 0h-345v32l41 1v471l-41 1v32h121v-32l-40 -1v-469h230l2 66h32v-101z" />
    <glyph glyph-name="M.sc" unicode="&#xe01e;" horiz-adv-x="608" 
d="M573 0h-121v32l41 1v376c0 27 0 52 1 79h-1c-13 -21 -24 -41 -36 -61l-129 -203h-45l-129 203c-13 20 -23 41 -36 61h-1c1 -27 1 -52 1 -79v-376l40 -1v-32h-120v32l41 1v471l-41 1v32h89l148 -236c10 -15 20 -32 29 -47h2c10 15 20 32 30 47l149 236h88v-32l-40 -1v-471
l40 -1v-32z" />
    <glyph glyph-name="N.sc" unicode="&#xe01f;" horiz-adv-x="551" 
d="M512 505l-40 -1v-504h-51l-269 429c-15 22 -25 39 -35 59h-1c0 -24 1 -48 1 -71v-384l40 -1v-32h-119v32l41 1v471l-41 1v32h91l270 -427c12 -19 24 -39 35 -59h1c-1 26 -2 52 -2 76v377l-40 1v32h119v-32z" />
    <glyph glyph-name="O.sc" unicode="&#xe021;" horiz-adv-x="513" 
d="M462 238c0 -174 -80 -247 -205 -247c-127 0 -206 74 -206 247v60c0 174 80 247 206 247c125 0 205 -71 205 -247v-60zM421 239v58c0 161 -69 212 -164 212c-96 0 -166 -52 -166 -212v-58c0 -159 70 -212 166 -212c95 0 164 51 164 212z" />
    <glyph glyph-name="P.sc" unicode="&#xe029;" horiz-adv-x="466" 
d="M422 382c0 -114 -70 -159 -204 -159c-23 0 -58 1 -97 3v-192l52 -2v-32h-135v32l43 1v472l-43 1v31c72 2 123 4 179 4c135 0 204 -38 205 -150v-9zM381 382v9c0 89 -48 116 -163 116c-33 0 -65 -1 -97 -3v-244c40 -2 74 -2 97 -2c117 0 163 35 163 124z" />
    <glyph glyph-name="Q.sc" unicode="&#xe02b;" horiz-adv-x="509" 
d="M462 238c0 -165 -72 -239 -186 -246v-46c0 -37 6 -54 56 -54h56v-28c-15 -1 -44 -3 -65 -3c-67 0 -86 27 -86 85v46c-115 8 -186 82 -186 246v60c0 174 80 247 206 247c125 0 205 -71 205 -247v-60zM421 239v58c0 161 -69 212 -164 212c-96 0 -166 -52 -166 -212v-58
c0 -159 70 -212 166 -212c95 0 164 51 164 212z" />
    <glyph glyph-name="R.sc" unicode="&#xe02c;" horiz-adv-x="489" 
d="M471 0h-65l-144 226c-15 -1 -29 -1 -47 -1c-31 0 -70 1 -95 1v-193l42 -1v-32h-124v32l43 1v471l-43 1v32c56 0 117 6 177 6c134 0 206 -40 206 -153v-7c0 -83 -35 -132 -116 -150l127 -200l39 -1v-32zM381 383v7c0 89 -50 118 -166 118c-31 0 -74 -2 -95 -3v-245
c26 -1 63 -2 96 -2c125 0 165 42 165 125z" />
    <glyph glyph-name="S.sc" unicode="&#xe02d;" horiz-adv-x="428" 
d="M383 133c0 -80 -50 -142 -176 -142c-54 0 -110 6 -152 11v87h30l3 -59c39 -3 79 -5 117 -5c95 0 138 41 138 108c0 59 -32 83 -116 122l-54 25c-77 36 -127 74 -127 146c0 85 72 119 173 119c58 0 119 -6 146 -11v-85h-31l-3 57c-30 3 -73 5 -110 5
c-76 0 -134 -19 -134 -86c0 -53 36 -80 106 -113l53 -25c96 -45 137 -78 137 -154z" />
    <glyph glyph-name="T.sc" unicode="&#xe02f;" horiz-adv-x="468" 
d="M436 449h-31l-2 54h-149v-470l46 -2v-31h-132v31l45 2v470h-148l-2 -54h-31v88h404v-88z" />
    <glyph glyph-name="U.sc" unicode="&#xe030;" horiz-adv-x="537" 
d="M498 505l-40 -1v-261c0 -173 -53 -252 -190 -252c-136 0 -189 79 -189 252v261l-41 1v32h121v-32l-40 -2v-258c0 -157 36 -219 149 -219c114 0 150 62 150 219v258l-40 2v32h120v-32z" />
    <glyph glyph-name="V.sc" unicode="&#xe035;" horiz-adv-x="548" 
d="M519 505l-40 -1l-176 -504h-58l-177 504l-40 1v32h120v-32l-36 -1l136 -394c9 -26 17 -54 26 -79h1c8 25 16 53 25 79l136 394l-36 1v32h119v-32z" />
    <glyph glyph-name="W.sc" unicode="&#xe036;" horiz-adv-x="712" 
d="M682 505l-41 -1l-108 -504h-58l-97 299c-9 28 -16 50 -22 72h-2c-6 -22 -12 -44 -21 -72l-97 -299h-59l-108 504l-40 1v32h121v-32l-39 -1l82 -386c6 -28 9 -53 15 -82h3c7 27 13 55 22 82l94 283h58l93 -283c9 -28 14 -52 22 -82h3c5 30 10 54 16 82l82 386l-39 1v32
h120v-32z" />
    <glyph glyph-name="X.sc" unicode="&#xe037;" 
d="M492 0h-128v31l36 1l-141 205l-142 -205l38 -1v-31h-127v32l42 1l165 240l-162 231l-41 1v32h128v-31l-38 -1l140 -199l138 199l-36 1v31h125v-32l-42 -1l-161 -233l163 -238l43 -1v-32z" />
    <glyph glyph-name="Y.sc" unicode="&#xe038;" horiz-adv-x="479" 
d="M451 505l-41 -1l-151 -286v-184l45 -2v-32h-130v32l45 2v184l-151 286l-40 1v32h121v-31l-37 -2l94 -177c12 -22 23 -45 33 -68h3c8 23 21 49 31 68l94 177l-37 2v31h121v-32z" />
    <glyph glyph-name="Z.sc" unicode="&#xe03b;" horiz-adv-x="446" 
d="M408 0h-370v38l316 465h-270l-2 -54h-30v88h348v-38l-315 -465h290l2 62h31v-96z" />
    <glyph glyph-name="Aacute.sc" unicode="&#xe002;" horiz-adv-x="535" 
d="M510 0h-110v32l28 1l-57 164h-211l-56 -164l32 -1v-32h-112v32l35 1l166 471l-50 1v32h120l177 -504l38 -1v-32zM361 231l-69 199c-10 28 -17 52 -25 77h-3c-8 -25 -14 -48 -24 -77l-70 -199h191zM404 770l-145 -154h-43l138 154h50z" />
    <glyph glyph-name="Acircumflex.sc" unicode="&#xe003;" horiz-adv-x="535" 
d="M510 0h-110v32l28 1l-57 164h-211l-56 -164l32 -1v-32h-112v32l35 1l166 471l-50 1v32h120l177 -504l38 -1v-32zM361 231l-69 199c-10 28 -17 52 -25 77h-3c-8 -25 -14 -48 -24 -77l-70 -199h191zM430 616h-44l-122 128l-121 -128h-44l141 154h48z" />
    <glyph glyph-name="Adieresis.sc" unicode="&#xe004;" horiz-adv-x="535" 
d="M510 0h-110v32l28 1l-57 164h-211l-56 -164l32 -1v-32h-112v32l35 1l166 471l-50 1v32h120l177 -504l38 -1v-32zM361 231l-69 199c-10 28 -17 52 -25 77h-3c-8 -25 -14 -48 -24 -77l-70 -199h191zM381 639h-38v120h38v-120zM151 639v120h-38v-120h38z" />
    <glyph glyph-name="Agrave.sc" unicode="&#xe005;" horiz-adv-x="535" 
d="M510 0h-110v32l28 1l-57 164h-211l-56 -164l32 -1v-32h-112v32l35 1l166 471l-50 1v32h120l177 -504l38 -1v-32zM361 231l-69 199c-10 28 -17 52 -25 77h-3c-8 -25 -14 -48 -24 -77l-70 -199h191zM296 616h-43l-145 154h50z" />
    <glyph glyph-name="Atilde.sc" unicode="&#xe007;" horiz-adv-x="535" 
d="M510 0h-110v32l28 1l-57 164h-211l-56 -164l32 -1v-32h-112v32l35 1l166 471l-50 1v32h120l177 -504l38 -1v-32zM361 231l-69 199c-10 28 -17 52 -25 77h-3c-8 -25 -14 -48 -24 -77l-70 -199h191zM447 737c0 -77 -18 -125 -83 -125c-36 0 -56 17 -88 48l-45 44
c-26 26 -39 39 -65 39c-43 0 -48 -41 -48 -92v-35h-35v35c0 77 19 124 83 124c38 0 58 -14 88 -44l46 -45c27 -27 41 -41 64 -41c42 0 47 41 47 92v34h36v-34z" />
    <glyph glyph-name="AE.sc" unicode="&#xe001;" horiz-adv-x="729" 
d="M670 537v-87h-32l-2 53h-236v-204h251v-34h-251v-231h236l2 54h32v-88h-350v32l40 1v164h-199l-68 -197h-69v32l36 1l166 471l-51 1v32h495zM171 231h189v272h-95c-8 -24 -16 -47 -24 -70z" />
    <glyph glyph-name="Aring.sc" unicode="&#xe006;" horiz-adv-x="535" 
d="M510 0h-110v32l28 1l-57 164h-211l-56 -164l32 -1v-32h-112v32l35 1l166 471l-50 1v32h120l177 -504l38 -1v-32zM361 231l-69 199c-10 28 -17 52 -25 77h-3c-8 -25 -14 -48 -24 -77l-70 -199h191zM373 707c0 -73 -49 -107 -113 -107c-65 0 -114 34 -114 107
s49 107 114 107c64 0 113 -35 113 -107zM342 707c0 60 -40 79 -82 79c-43 0 -82 -18 -82 -79c0 -60 39 -79 82 -79c42 0 82 19 82 79z" />
    <glyph glyph-name="Abreve.sc" unicode="&#xe040;" horiz-adv-x="535" 
d="M510 0h-110v32l28 1l-57 164h-211l-56 -164l32 -1v-32h-112v32l35 1l166 471l-50 1v32h120l177 -504l38 -1v-32zM361 231l-69 199c-10 28 -17 52 -25 77h-3c-8 -25 -14 -48 -24 -77l-70 -199h191zM415 772c-7 -88 -41 -158 -155 -158c-113 0 -147 70 -154 158h32
c7 -74 32 -128 122 -128c91 0 116 54 123 128h32z" />
    <glyph glyph-name="Amacron.sc" unicode="&#xe041;" horiz-adv-x="535" 
d="M510 0h-110v32l28 1l-57 164h-211l-56 -164l32 -1v-32h-112v32l35 1l166 471l-50 1v32h120l177 -504l38 -1v-32zM361 231l-69 199c-10 28 -17 52 -25 77h-3c-8 -25 -14 -48 -24 -77l-70 -199h191zM429 643h-343v34h343v-34z" />
    <glyph glyph-name="Aogonek.sc" unicode="&#xe042;" horiz-adv-x="535" 
d="M510 0c-107 -45 -165 -75 -165 -128c0 -39 23 -60 84 -60c33 0 65 4 81 7v-26c-16 -5 -51 -10 -84 -10c-83 0 -117 34 -117 88c0 60 63 99 134 129h-43v32l28 1l-57 164h-211l-56 -164l32 -1v-32h-112v32l35 1l166 471l-50 1v32h120l177 -504l38 -1v-32zM361 231l-69 199
c-10 28 -17 52 -25 77h-3c-8 -25 -14 -48 -24 -77l-70 -199h191z" />
    <glyph glyph-name="AEacute.sc" unicode="&#xe043;" horiz-adv-x="729" 
d="M670 537v-87h-32l-2 53h-236v-204h251v-34h-251v-231h236l2 54h32v-88h-350v32l40 1v164h-199l-68 -197h-69v32l36 1l166 471l-51 1v32h495zM171 231h189v272h-95c-8 -24 -16 -47 -24 -70zM520 770l-145 -154h-43l138 154h50z" />
    <glyph glyph-name="Cacute.sc" unicode="&#xe044;" horiz-adv-x="437" 
d="M391 2c-13 -2 -67 -11 -128 -11c-139 0 -212 71 -212 247v61c0 176 73 246 212 246c61 0 115 -8 128 -11v-87h-31l-2 58c-21 2 -57 6 -94 6c-118 0 -173 -63 -173 -212v-61c0 -149 55 -212 173 -212c37 0 73 3 94 5l2 59h31v-88zM407 770l-145 -154h-43l138 154h50z" />
    <glyph glyph-name="Ccedilla.sc" unicode="&#xe00a;" horiz-adv-x="437" 
d="M391 2c-13 -2 -67 -11 -128 -11c-139 0 -212 71 -212 247v61c0 176 73 246 212 246c61 0 115 -8 128 -11v-87h-31l-2 58c-21 2 -57 6 -94 6c-118 0 -173 -63 -173 -212v-61c0 -149 55 -212 173 -212c37 0 73 3 94 5l2 59h31v-88zM300 -68l-133 -140h-44l126 140h51z" />
    <glyph glyph-name="Ccaron.sc" unicode="&#xe045;" horiz-adv-x="437" 
d="M391 2c-13 -2 -67 -11 -128 -11c-139 0 -212 71 -212 247v61c0 176 73 246 212 246c61 0 115 -8 128 -11v-87h-31l-2 58c-21 2 -57 6 -94 6c-118 0 -173 -63 -173 -212v-61c0 -149 55 -212 173 -212c37 0 73 3 94 5l2 59h31v-88zM416 770l-149 -154h-49l-148 154h44
l128 -129l130 129h44z" />
    <glyph glyph-name="Nacute.sc" unicode="&#xe062;" horiz-adv-x="551" 
d="M512 505l-40 -1v-504h-51l-269 429c-15 22 -25 39 -35 59h-1c0 -24 1 -48 1 -71v-384l40 -1v-32h-119v32l41 1v471l-41 1v32h91l270 -427c12 -19 24 -39 35 -59h1c-1 26 -2 52 -2 76v377l-40 1v32h119v-32zM418 770l-145 -154h-43l138 154h50z" />
    <glyph glyph-name="Hbar.sc" unicode="&#xe054;" horiz-adv-x="549" 
d="M510 0h-121v32l40 1v237h-309v-237l40 -1v-32h-121v32l40 1v354h-50v35h50v82l-40 1v32h121v-32l-40 -1v-82h309v82l-40 1v32h121v-32l-40 -1v-82h50v-35h-50v-354l40 -1v-32zM120 304h309v83h-309v-83z" />
    <glyph glyph-name="Egrave.sc" unicode="&#xe011;" horiz-adv-x="448" 
d="M389 0h-351v32l40 1v471l-40 1v32h351v-87h-32l-2 53h-236v-204h251v-34h-251v-231h236l2 54h32v-88zM261 616h-43l-145 154h50z" />
    <glyph glyph-name="Eacute.sc" unicode="&#xe00e;" horiz-adv-x="448" 
d="M389 0h-351v32l40 1v471l-40 1v32h351v-87h-32l-2 53h-236v-204h251v-34h-251v-231h236l2 54h32v-88zM369 770l-145 -154h-43l138 154h50z" />
    <glyph glyph-name="Ecircumflex.sc" unicode="&#xe00f;" horiz-adv-x="448" 
d="M389 0h-351v32l40 1v471l-40 1v32h351v-87h-32l-2 53h-236v-204h251v-34h-251v-231h236l2 54h32v-88zM395 616h-44l-122 128l-121 -128h-44l141 154h48z" />
    <glyph glyph-name="Edieresis.sc" unicode="&#xe010;" horiz-adv-x="448" 
d="M389 0h-351v32l40 1v471l-40 1v32h351v-87h-32l-2 53h-236v-204h251v-34h-251v-231h236l2 54h32v-88zM350 639h-38v120h38v-120zM120 639v120h-38v-120h38z" />
    <glyph glyph-name="Igrave.sc" unicode="&#xe019;" horiz-adv-x="204" 
d="M164 0h-124v32l42 1v471l-42 1v32h124v-32l-42 -1v-471l42 -1v-32zM164 616h-43l-145 154h50z" />
    <glyph glyph-name="Iacute.sc" unicode="&#xe016;" horiz-adv-x="204" 
d="M164 0h-124v32l42 1v471l-42 1v32h124v-32l-42 -1v-471l42 -1v-32zM245 770l-145 -154h-43l138 154h50z" />
    <glyph glyph-name="Icircumflex.sc" unicode="&#xe017;" horiz-adv-x="204" 
d="M164 0h-124v32l42 1v471l-42 1v32h124v-32l-42 -1v-471l42 -1v-32zM268 616h-44l-122 128l-121 -128h-44l141 154h48z" />
    <glyph glyph-name="Idieresis.sc" unicode="&#xe018;" horiz-adv-x="204" 
d="M164 0h-124v32l42 1v471l-42 1v32h124v-32l-42 -1v-471l42 -1v-32zM236 639h-38v120h38v-120zM6 639v120h-38v-120h38z" />
    <glyph glyph-name="Ograve.sc" unicode="&#xe026;" horiz-adv-x="513" 
d="M462 238c0 -174 -80 -247 -205 -247c-127 0 -206 74 -206 247v60c0 174 80 247 206 247c125 0 205 -71 205 -247v-60zM421 239v58c0 161 -69 212 -164 212c-96 0 -166 -52 -166 -212v-58c0 -159 70 -212 166 -212c95 0 164 51 164 212zM306 616h-43l-145 154h50z" />
    <glyph glyph-name="Ntilde.sc" unicode="&#xe020;" horiz-adv-x="551" 
d="M512 505l-40 -1v-504h-51l-269 429c-15 22 -25 39 -35 59h-1c0 -24 1 -48 1 -71v-384l40 -1v-32h-119v32l41 1v471l-41 1v32h91l270 -427c12 -19 24 -39 35 -59h1c-1 26 -2 52 -2 76v377l-40 1v32h119v-32zM457 736c0 -77 -18 -125 -83 -125c-36 0 -56 17 -88 48l-45 44
c-26 26 -39 39 -65 39c-43 0 -48 -41 -48 -92v-35h-35v35c0 77 19 124 83 124c38 0 58 -14 88 -44l46 -45c27 -27 41 -41 64 -41c42 0 47 41 47 92v34h36v-34z" />
    <glyph glyph-name="Oacute.sc" unicode="&#xe023;" horiz-adv-x="513" 
d="M462 238c0 -174 -80 -247 -205 -247c-127 0 -206 74 -206 247v60c0 174 80 247 206 247c125 0 205 -71 205 -247v-60zM421 239v58c0 161 -69 212 -164 212c-96 0 -166 -52 -166 -212v-58c0 -159 70 -212 166 -212c95 0 164 51 164 212zM390 770l-145 -154h-43l138 154h50
z" />
    <glyph glyph-name="Ocircumflex.sc" unicode="&#xe024;" horiz-adv-x="513" 
d="M462 238c0 -174 -80 -247 -205 -247c-127 0 -206 74 -206 247v60c0 174 80 247 206 247c125 0 205 -71 205 -247v-60zM421 239v58c0 161 -69 212 -164 212c-96 0 -166 -52 -166 -212v-58c0 -159 70 -212 166 -212c95 0 164 51 164 212zM419 616h-44l-122 128l-121 -128
h-44l141 154h48z" />
    <glyph glyph-name="Otilde.sc" unicode="&#xe028;" horiz-adv-x="513" 
d="M462 238c0 -174 -80 -247 -205 -247c-127 0 -206 74 -206 247v60c0 174 80 247 206 247c125 0 205 -71 205 -247v-60zM421 239v58c0 161 -69 212 -164 212c-96 0 -166 -52 -166 -212v-58c0 -159 70 -212 166 -212c95 0 164 51 164 212zM439 736c0 -77 -18 -125 -83 -125
c-36 0 -56 17 -88 48l-45 44c-26 26 -39 39 -65 39c-43 0 -48 -41 -48 -92v-35h-35v35c0 77 19 124 83 124c38 0 58 -14 88 -44l46 -45c27 -27 41 -41 64 -41c42 0 47 41 47 92v34h36v-34z" />
    <glyph glyph-name="Odieresis.sc" unicode="&#xe025;" horiz-adv-x="513" 
d="M462 238c0 -174 -80 -247 -205 -247c-127 0 -206 74 -206 247v60c0 174 80 247 206 247c125 0 205 -71 205 -247v-60zM421 239v58c0 161 -69 212 -164 212c-96 0 -166 -52 -166 -212v-58c0 -159 70 -212 166 -212c95 0 164 51 164 212zM387 639h-38v120h38v-120zM157 639
v120h-38v-120h38z" />
    <glyph glyph-name="Oslash.sc" unicode="&#xe027;" horiz-adv-x="513" 
d="M462 238c0 -174 -80 -247 -205 -247c-58 0 -108 15 -143 49l-33 -46h-37l50 71c-28 40 -43 97 -43 173v60c0 174 80 247 206 247c57 0 106 -14 141 -49l35 48h37l-51 -73c27 -40 43 -97 43 -173v-60zM421 239v58c0 56 -11 97 -29 126l-255 -347c29 -36 71 -49 120 -49
c95 0 164 51 164 212zM376 460c-29 36 -71 49 -119 49c-96 0 -166 -52 -166 -212v-58c0 -56 11 -97 30 -126z" />
    <glyph glyph-name="OE.sc" unicode="&#xe022;" horiz-adv-x="721" 
d="M672 0h-291c-48 -7 -90 -10 -125 -10c-128 0 -213 70 -213 262v31c0 194 84 262 213 262c35 0 73 -2 118 -8h298v-87h-31l-3 53h-236v-204h250v-34h-250v-231h236l3 54h31v-88zM361 32v470c-40 6 -76 7 -103 7c-99 0 -174 -50 -174 -226v-31c0 -176 73 -227 172 -227
c34 0 65 3 105 7z" />
    <glyph glyph-name="Scaron.sc" unicode="&#xe02e;" horiz-adv-x="428" 
d="M383 133c0 -80 -50 -142 -176 -142c-54 0 -110 6 -152 11v87h30l3 -59c39 -3 79 -5 117 -5c95 0 138 41 138 108c0 59 -32 83 -116 122l-54 25c-77 36 -127 74 -127 146c0 85 72 119 173 119c58 0 119 -6 146 -11v-85h-31l-3 57c-30 3 -73 5 -110 5
c-76 0 -134 -19 -134 -86c0 -53 36 -80 106 -113l53 -25c96 -45 137 -78 137 -154zM385 770l-149 -154h-49l-148 154h44l128 -129l130 129h44z" />
    <glyph glyph-name="Ugrave.sc" unicode="&#xe034;" horiz-adv-x="537" 
d="M498 505l-40 -1v-261c0 -173 -53 -252 -190 -252c-136 0 -189 79 -189 252v261l-41 1v32h121v-32l-40 -2v-258c0 -157 36 -219 149 -219c114 0 150 62 150 219v258l-40 2v32h120v-32zM322 616h-43l-145 154h50z" />
    <glyph glyph-name="Uacute.sc" unicode="&#xe031;" horiz-adv-x="537" 
d="M498 505l-40 -1v-261c0 -173 -53 -252 -190 -252c-136 0 -189 79 -189 252v261l-41 1v32h121v-32l-40 -2v-258c0 -157 36 -219 149 -219c114 0 150 62 150 219v258l-40 2v32h120v-32zM426 770l-145 -154h-43l138 154h50z" />
    <glyph glyph-name="Yacute.sc" unicode="&#xe039;" horiz-adv-x="479" 
d="M451 505l-41 -1l-151 -286v-184l45 -2v-32h-130v32l45 2v184l-151 286l-40 1v32h121v-31l-37 -2l94 -177c12 -22 23 -45 33 -68h3c8 23 21 49 31 68l94 177l-37 2v31h121v-32zM384 770l-145 -154h-43l138 154h50z" />
    <glyph glyph-name="Ydieresis.sc" unicode="&#xe03a;" horiz-adv-x="479" 
d="M451 505l-41 -1l-151 -286v-184l45 -2v-32h-130v32l45 2v184l-151 286l-40 1v32h121v-31l-37 -2l94 -177c12 -22 23 -45 33 -68h3c8 23 21 49 31 68l94 177l-37 2v31h121v-32zM374 639h-38v120h38v-120zM144 639v120h-38v-120h38z" />
    <glyph glyph-name="Ucircumflex.sc" unicode="&#xe032;" horiz-adv-x="537" 
d="M498 505l-40 -1v-261c0 -173 -53 -252 -190 -252c-136 0 -189 79 -189 252v261l-41 1v32h121v-32l-40 -2v-258c0 -157 36 -219 149 -219c114 0 150 62 150 219v258l-40 2v32h120v-32zM431 616h-44l-122 128l-121 -128h-44l141 154h48z" />
    <glyph glyph-name="Udieresis.sc" unicode="&#xe033;" horiz-adv-x="537" 
d="M498 505l-40 -1v-261c0 -173 -53 -252 -190 -252c-136 0 -189 79 -189 252v261l-41 1v32h121v-32l-40 -2v-258c0 -157 36 -219 149 -219c114 0 150 62 150 219v258l-40 2v32h120v-32zM402 639h-38v120h38v-120zM172 639v120h-38v-120h38z" />
    <glyph glyph-name="Zcaron.sc" unicode="&#xe03c;" horiz-adv-x="446" 
d="M408 0h-370v38l316 465h-270l-2 -54h-30v88h348v-38l-315 -465h290l2 62h31v-96zM403 770l-149 -154h-49l-148 154h44l128 -129l130 129h44z" />
    <glyph glyph-name="Gbreve.sc" unicode="&#xe050;" horiz-adv-x="476" 
d="M414 3c-39 -5 -92 -12 -146 -12c-129 0 -217 67 -217 246v63c0 186 87 245 220 245c62 0 123 -9 143 -12v-84h-31l-3 54c-27 3 -67 7 -106 7c-115 0 -183 -48 -183 -210v-63c0 -155 68 -210 180 -210c32 0 70 1 104 5v214l-83 2v30h122v-275zM390 772
c-7 -88 -41 -158 -155 -158c-113 0 -147 70 -154 158h32c7 -74 32 -128 122 -128c91 0 116 54 123 128h32z" />
    <glyph glyph-name="Gcircumflex.sc" unicode="&#xe051;" horiz-adv-x="476" 
d="M414 3c-39 -5 -92 -12 -146 -12c-129 0 -217 67 -217 246v63c0 186 87 245 220 245c62 0 123 -9 143 -12v-84h-31l-3 54c-27 3 -67 7 -106 7c-115 0 -183 -48 -183 -210v-63c0 -155 68 -210 180 -210c32 0 70 1 104 5v214l-83 2v30h122v-275zM422 616h-44l-122 128
l-121 -128h-44l141 154h48z" />
    <glyph glyph-name="Gcommaaccent.sc" unicode="&#xe052;" horiz-adv-x="476" 
d="M414 3c-39 -5 -92 -12 -146 -12c-129 0 -217 67 -217 246v63c0 186 87 245 220 245c62 0 123 -9 143 -12v-84h-31l-3 54c-27 3 -67 7 -106 7c-115 0 -183 -48 -183 -210v-63c0 -155 68 -210 180 -210c32 0 70 1 104 5v214l-83 2v30h122v-275zM238 -68l-101 -140h-42
l94 140h49z" />
    <glyph glyph-name="Gdotaccent.sc" unicode="&#xe053;" horiz-adv-x="476" 
d="M414 3c-39 -5 -92 -12 -146 -12c-129 0 -217 67 -217 246v63c0 186 87 245 220 245c62 0 123 -9 143 -12v-84h-31l-3 54c-27 3 -67 7 -106 7c-115 0 -183 -48 -183 -210v-63c0 -155 68 -210 180 -210c32 0 70 1 104 5v214l-83 2v30h122v-275zM271 643h-41v122h41v-122z
" />
    <glyph glyph-name="Hcircumflex.sc" unicode="&#xe055;" horiz-adv-x="549" 
d="M510 0h-121v32l40 1v237h-309v-237l40 -1v-32h-121v32l40 1v471l-40 1v32h121v-32l-40 -1v-200h309v200l-40 1v32h121v-32l-40 -1v-471l40 -1v-32zM445 616h-44l-122 128l-121 -128h-44l141 154h48z" />
    <glyph glyph-name="Ibreve.sc" unicode="&#xe056;" horiz-adv-x="204" 
d="M164 0h-124v32l42 1v471l-42 1v32h124v-32l-42 -1v-471l42 -1v-32zM256 772c-7 -88 -41 -158 -155 -158c-113 0 -147 70 -154 158h32c7 -74 32 -128 122 -128c91 0 116 54 123 128h32z" />
    <glyph glyph-name="Idotaccent.sc" unicode="&#xe081;" horiz-adv-x="204" 
d="M164 0h-124v32l42 1v471l-42 1v32h124v-32l-42 -1v-471l42 -1v-32zM124 643h-41v122h41v-122z" />
    <glyph glyph-name="Imacron.sc" unicode="&#xe059;" horiz-adv-x="204" 
d="M164 0h-124v32l42 1v471l-42 1v32h124v-32l-42 -1v-471l42 -1v-32zM275 668h-343v34h343v-34z" />
    <glyph glyph-name="Iogonek.sc" unicode="&#xe05a;" horiz-adv-x="204" 
d="M194 -207c-16 -5 -51 -10 -84 -10c-83 0 -117 34 -117 88s49 98 111 129h-64v32l42 1v471l-42 1v32h124v-32l-42 -1v-471l42 -1v-32c-79 -37 -135 -75 -135 -128c0 -39 23 -60 84 -60c33 0 65 4 81 7v-26z" />
    <glyph glyph-name="Itilde.sc" unicode="&#xe05b;" horiz-adv-x="204" 
d="M164 0h-124v32l42 1v471l-42 1v32h124v-32l-42 -1v-471l42 -1v-32zM287 736c0 -77 -18 -125 -83 -125c-36 0 -56 17 -88 48l-45 44c-26 26 -39 39 -65 39c-43 0 -48 -41 -48 -92v-35h-35v35c0 77 19 124 83 124c38 0 58 -14 88 -44l46 -45c27 -27 41 -41 64 -41
c42 0 47 41 47 92v34h36v-34z" />
    <glyph glyph-name="IJ.sc" unicode="&#xe058;" horiz-adv-x="376" 
d="M342 505l-42 -1v-539c0 -70 -16 -114 -100 -114c-15 0 -33 2 -47 3v30c16 0 30 -1 43 -1c58 0 63 29 63 82v539l-42 1v32h125v-32zM164 0h-124v32l42 1v471l-42 1v32h124v-32l-42 -1v-471l42 -1v-32z" />
    <glyph glyph-name="Jcircumflex.sc" unicode="&#xe05c;" horiz-adv-x="205" 
d="M164 505l-42 -1v-539c0 -70 -16 -114 -99 -114c-16 0 -34 2 -47 3v30c15 0 29 -1 43 -1c58 0 63 29 63 82v539l-42 1v32h124v-32zM267 616h-44l-122 128l-121 -128h-44l141 154h48z" />
    <glyph glyph-name="Kcommaaccent.sc" unicode="&#xe05d;" horiz-adv-x="484" 
d="M451 0h-71l-259 267v-234l40 -1v-32h-121v32l41 1v471l-41 1v32h121v-32l-40 -1v-225l259 258h71v-32l-47 -1l-235 -230l238 -241l44 -1v-32zM277 -68l-101 -140h-42l94 140h49z" />
    <glyph glyph-name="Lacute.sc" unicode="&#xe05e;" horiz-adv-x="416" 
d="M383 0h-345v32l41 1v471l-41 1v32h121v-32l-40 -1v-469h230l2 66h32v-101zM363 770l-145 -154h-43l138 154h50z" />
    <glyph glyph-name="Lcommaaccent.sc" unicode="&#xe060;" horiz-adv-x="416" 
d="M383 0h-345v32l41 1v471l-41 1v32h121v-32l-40 -1v-469h230l2 66h32v-101zM256 -68l-101 -140h-42l94 140h49z" />
    <glyph glyph-name="Ldot.sc" unicode="&#xe061;" horiz-adv-x="416" 
d="M306 234h-30v123h30v-123zM383 0h-345v32l41 1v471l-41 1v32h121v-32l-40 -1v-469h230l2 66h32v-101z" />
    <glyph glyph-name="Umacron.sc" unicode="&#xe075;" horiz-adv-x="537" 
d="M498 505l-40 -1v-261c0 -173 -53 -252 -190 -252c-136 0 -189 79 -189 252v261l-41 1v32h121v-32l-40 -2v-258c0 -157 36 -219 149 -219c114 0 150 62 150 219v258l-40 2v32h120v-32zM444 668h-343v34h343v-34z" />
    <glyph glyph-name="Uogonek.sc" unicode="&#xe076;" horiz-adv-x="537" 
d="M498 505l-40 -1v-261c0 -151 -41 -231 -142 -248c-81 -38 -125 -72 -125 -118c0 -39 23 -65 84 -65c33 0 65 4 81 7v-26c-16 -5 -51 -10 -84 -10c-83 0 -117 39 -117 93c0 49 41 87 95 116c-123 6 -171 85 -171 251v261l-41 1v32h121v-32l-40 -2v-258
c0 -157 36 -219 149 -219c114 0 150 62 150 219v258l-40 2v32h120v-32z" />
    <glyph glyph-name="Uring.sc" unicode="&#xe077;" horiz-adv-x="537" 
d="M498 505l-40 -1v-261c0 -173 -53 -252 -190 -252c-136 0 -189 79 -189 252v261l-41 1v32h121v-32l-40 -2v-258c0 -157 36 -219 149 -219c114 0 150 62 150 219v258l-40 2v32h120v-32zM383 707c0 -73 -49 -107 -113 -107c-65 0 -114 34 -114 107s49 107 114 107
c64 0 113 -35 113 -107zM352 707c0 60 -40 79 -82 79c-43 0 -82 -18 -82 -79c0 -60 39 -79 82 -79c42 0 82 19 82 79z" />
    <glyph glyph-name="Utilde.sc" unicode="&#xe078;" horiz-adv-x="537" 
d="M498 505l-40 -1v-261c0 -173 -53 -252 -190 -252c-136 0 -189 79 -189 252v261l-41 1v32h121v-32l-40 -2v-258c0 -157 36 -219 149 -219c114 0 150 62 150 219v258l-40 2v32h120v-32zM452 737c0 -77 -18 -125 -83 -125c-36 0 -56 17 -88 48l-45 44c-26 26 -39 39 -65 39
c-43 0 -48 -41 -48 -92v-35h-35v35c0 77 19 124 83 124c38 0 58 -14 88 -44l46 -45c27 -27 41 -41 64 -41c42 0 47 41 47 92v34h36v-34z" />
    <glyph glyph-name="Wacute.sc" unicode="&#xe079;" horiz-adv-x="712" 
d="M682 505l-41 -1l-108 -504h-58l-97 299c-9 28 -16 50 -22 72h-2c-6 -22 -12 -44 -21 -72l-97 -299h-59l-108 504l-40 1v32h121v-32l-39 -1l82 -386c6 -28 9 -53 15 -82h3c7 27 13 55 22 82l94 283h58l93 -283c9 -28 14 -52 22 -82h3c5 30 10 54 16 82l82 386l-39 1v32
h120v-32zM490 770l-145 -154h-43l138 154h50z" />
    <glyph glyph-name="Wcircumflex.sc" unicode="&#xe07a;" horiz-adv-x="712" 
d="M682 505l-41 -1l-108 -504h-58l-97 299c-9 28 -16 50 -22 72h-2c-6 -22 -12 -44 -21 -72l-97 -299h-59l-108 504l-40 1v32h121v-32l-39 -1l82 -386c6 -28 9 -53 15 -82h3c7 27 13 55 22 82l94 283h58l93 -283c9 -28 14 -52 22 -82h3c5 30 10 54 16 82l82 386l-39 1v32
h120v-32zM522 616h-44l-122 128l-121 -128h-44l141 154h48z" />
    <glyph glyph-name="Wdieresis.sc" unicode="&#xe07b;" horiz-adv-x="712" 
d="M682 505l-41 -1l-108 -504h-58l-97 299c-9 28 -16 50 -22 72h-2c-6 -22 -12 -44 -21 -72l-97 -299h-59l-108 504l-40 1v32h121v-32l-39 -1l82 -386c6 -28 9 -53 15 -82h3c7 27 13 55 22 82l94 283h58l93 -283c9 -28 14 -52 22 -82h3c5 30 10 54 16 82l82 386l-39 1v32
h120v-32zM489 639h-38v120h38v-120zM259 639v120h-38v-120h38z" />
    <glyph glyph-name="Wgrave.sc" unicode="&#xe07c;" horiz-adv-x="712" 
d="M682 505l-41 -1l-108 -504h-58l-97 299c-9 28 -16 50 -22 72h-2c-6 -22 -12 -44 -21 -72l-97 -299h-59l-108 504l-40 1v32h121v-32l-39 -1l82 -386c6 -28 9 -53 15 -82h3c7 27 13 55 22 82l94 283h58l93 -283c9 -28 14 -52 22 -82h3c5 30 10 54 16 82l82 386l-39 1v32
h120v-32zM421 616h-43l-145 154h50z" />
    <glyph glyph-name="Ycircumflex.sc" unicode="&#xe07d;" horiz-adv-x="479" 
d="M451 505l-41 -1l-151 -286v-184l45 -2v-32h-130v32l45 2v184l-151 286l-40 1v32h121v-31l-37 -2l94 -177c12 -22 23 -45 33 -68h3c8 23 21 49 31 68l94 177l-37 2v31h121v-32zM406 616h-44l-122 128l-121 -128h-44l141 154h48z" />
    <glyph glyph-name="Ygrave.sc" unicode="&#xe07e;" horiz-adv-x="479" 
d="M451 505l-41 -1l-151 -286v-184l45 -2v-32h-130v32l45 2v184l-151 286l-40 1v32h121v-31l-37 -2l94 -177c12 -22 23 -45 33 -68h3c8 23 21 49 31 68l94 177l-37 2v31h121v-32zM280 616h-43l-145 154h50z" />
    <glyph glyph-name="Zacute.sc" unicode="&#xe07f;" horiz-adv-x="446" 
d="M408 0h-370v38l316 465h-270l-2 -54h-30v88h348v-38l-315 -465h290l2 62h31v-96zM379 770l-145 -154h-43l138 154h50z" />
    <glyph glyph-name="Zdotaccent.sc" unicode="&#xe080;" horiz-adv-x="446" 
d="M408 0h-370v38l316 465h-270l-2 -54h-30v88h348v-38l-315 -465h290l2 62h31v-96zM250 643h-41v122h41v-122z" />
    <glyph glyph-name="Ncaron.sc" unicode="&#xe063;" horiz-adv-x="551" 
d="M512 505l-40 -1v-504h-51l-269 429c-15 22 -25 39 -35 59h-1c0 -24 1 -48 1 -71v-384l40 -1v-32h-119v32l41 1v471l-41 1v32h91l270 -427c12 -19 24 -39 35 -59h1c-1 26 -2 52 -2 76v377l-40 1v32h119v-32zM443 770l-149 -154h-49l-148 154h44l128 -129l130 129h44z" />
    <glyph glyph-name="Ncommaaccent.sc" unicode="&#xe064;" horiz-adv-x="551" 
d="M512 505l-40 -1v-504h-51l-269 429c-15 22 -25 39 -35 59h-1c0 -24 1 -48 1 -71v-384l40 -1v-32h-119v32l41 1v471l-41 1v32h91l270 -427c12 -19 24 -39 35 -59h1c-1 26 -2 52 -2 76v377l-40 1v32h119v-32zM265 -68l-101 -140h-42l94 140h49z" />
    <glyph glyph-name="Lslash.sc" unicode="&#xe01d;" horiz-adv-x="416" 
d="M22 178v47l57 48v231l-41 1v32h121v-32l-40 -1v-197l104 89v-47l-104 -89v-225h230l2 66h32v-101h-345v32l41 1v193z" />
    <glyph glyph-name="Lcaron.sc" unicode="&#xe05f;" horiz-adv-x="416" 
d="M382 0h-344v32l40 1v471l-40 1v32h121v-32l-41 -1v-469h230l2 66h32v-101zM353 537l-67 -229h-34l57 229h44z" />
    <glyph glyph-name="Tcaron.sc" unicode="&#xe071;" horiz-adv-x="468" 
d="M436 449h-31l-2 54h-149v-470l46 -2v-31h-132v31l45 2v470h-148l-2 -54h-31v88h404v-88zM405 770l-149 -154h-49l-148 154h44l128 -129l130 129h44z" />
    <glyph glyph-name="Tbar.sc" unicode="&#xe070;" horiz-adv-x="468" 
d="M436 449h-31l-2 54h-149v-154h169v-36h-169v-280l46 -2v-31h-132v31l45 2v280h-169v36h169v154h-148l-2 -54h-31v88h404v-88z" />
    <glyph glyph-name="Tcommaaccent.sc" unicode="&#xe072;" horiz-adv-x="468" 
d="M436 449h-31l-2 54h-149v-470l46 -2v-31h-132v31l45 2v470h-148l-2 -54h-31v88h404v-88zM294 -68l-101 -140h-42l94 140h49z" />
    <glyph glyph-name="Ubreve.sc" unicode="&#xe073;" horiz-adv-x="537" 
d="M498 505l-40 -1v-261c0 -173 -53 -252 -190 -252c-136 0 -189 79 -189 252v261l-41 1v32h121v-32l-40 -2v-258c0 -157 36 -219 149 -219c114 0 150 62 150 219v258l-40 2v32h120v-32zM423 772c-7 -88 -41 -158 -155 -158c-113 0 -147 70 -154 158h32
c7 -74 32 -128 122 -128c91 0 116 54 123 128h32z" />
    <glyph glyph-name="Uhungarumlaut.sc" unicode="&#xe074;" horiz-adv-x="537" 
d="M498 505l-40 -1v-261c0 -173 -53 -252 -190 -252c-136 0 -189 79 -189 252v261l-41 1v32h121v-32l-40 -2v-258c0 -157 36 -219 149 -219c114 0 150 62 150 219v258l-40 2v32h120v-32zM508 770l-145 -154h-43l138 154h50zM317 770h-50l-138 -154h44z" />
    <glyph glyph-name="Scedilla.sc" unicode="&#xe06d;" horiz-adv-x="428" 
d="M383 133c0 -80 -50 -142 -176 -142c-54 0 -110 6 -152 11v87h30l3 -59c39 -3 79 -5 117 -5c95 0 138 41 138 108c0 59 -32 83 -116 122l-54 25c-77 36 -127 74 -127 146c0 85 72 119 173 119c58 0 119 -6 146 -11v-85h-31l-3 57c-30 3 -73 5 -110 5
c-76 0 -134 -19 -134 -86c0 -53 36 -80 106 -113l53 -25c96 -45 137 -78 137 -154zM260 -68l-133 -140h-44l126 140h51z" />
    <glyph glyph-name="Scircumflex.sc" unicode="&#xe06e;" horiz-adv-x="428" 
d="M383 133c0 -80 -50 -142 -176 -142c-54 0 -110 6 -152 11v87h30l3 -59c39 -3 79 -5 117 -5c95 0 138 41 138 108c0 59 -32 83 -116 122l-54 25c-77 36 -127 74 -127 146c0 85 72 119 173 119c58 0 119 -6 146 -11v-85h-31l-3 57c-30 3 -73 5 -110 5
c-76 0 -134 -19 -134 -86c0 -53 36 -80 106 -113l53 -25c96 -45 137 -78 137 -154zM379 616h-44l-122 128l-121 -128h-44l141 154h48z" />
    <glyph glyph-name="Scommaaccent.sc" unicode="&#xe06f;" horiz-adv-x="428" 
d="M383 133c0 -80 -50 -142 -176 -142c-54 0 -110 6 -152 11v87h30l3 -59c39 -3 79 -5 117 -5c95 0 138 41 138 108c0 59 -32 83 -116 122l-54 25c-77 36 -127 74 -127 146c0 85 72 119 173 119c58 0 119 -6 146 -11v-85h-31l-3 57c-30 3 -73 5 -110 5
c-76 0 -134 -19 -134 -86c0 -53 36 -80 106 -113l53 -25c96 -45 137 -78 137 -154zM244 -68l-101 -140h-42l94 140h49z" />
    <glyph glyph-name="Sacute.sc" unicode="&#xe06c;" horiz-adv-x="428" 
d="M383 133c0 -80 -50 -142 -176 -142c-54 0 -110 6 -152 11v87h30l3 -59c39 -3 79 -5 117 -5c95 0 138 41 138 108c0 59 -32 83 -116 122l-54 25c-77 36 -127 74 -127 146c0 85 72 119 173 119c58 0 119 -6 146 -11v-85h-31l-3 57c-30 3 -73 5 -110 5
c-76 0 -134 -19 -134 -86c0 -53 36 -80 106 -113l53 -25c96 -45 137 -78 137 -154zM357 770l-145 -154h-43l138 154h50z" />
    <glyph glyph-name="Racute.sc" unicode="&#xe069;" horiz-adv-x="489" 
d="M471 0h-65l-144 226c-15 -1 -29 -1 -47 -1c-31 0 -70 1 -95 1v-193l42 -1v-32h-124v32l43 1v471l-43 1v32c56 0 117 6 177 6c134 0 206 -40 206 -153v-7c0 -83 -35 -132 -116 -150l127 -200l39 -1v-32zM381 383v7c0 89 -50 118 -166 118c-31 0 -74 -2 -95 -3v-245
c26 -1 63 -2 96 -2c125 0 165 42 165 125zM392 770l-145 -154h-43l138 154h50z" />
    <glyph glyph-name="Rcaron.sc" unicode="&#xe06a;" horiz-adv-x="489" 
d="M471 0h-65l-144 226c-15 -1 -29 -1 -47 -1c-31 0 -70 1 -95 1v-193l42 -1v-32h-124v32l43 1v471l-43 1v32c56 0 117 6 177 6c134 0 206 -40 206 -153v-7c0 -83 -35 -132 -116 -150l127 -200l39 -1v-32zM381 383v7c0 89 -50 118 -166 118c-31 0 -74 -2 -95 -3v-245
c26 -1 63 -2 96 -2c125 0 165 42 165 125zM427 770l-149 -154h-49l-148 154h44l128 -129l130 129h44z" />
    <glyph glyph-name="Rcommaaccent.sc" unicode="&#xe06b;" horiz-adv-x="489" 
d="M471 0h-65l-144 226c-15 -1 -29 -1 -47 -1c-31 0 -70 1 -95 1v-193l42 -1v-32h-124v32l43 1v471l-43 1v32c56 0 117 6 177 6c134 0 206 -40 206 -153v-7c0 -83 -35 -132 -116 -150l127 -200l39 -1v-32zM381 383v7c0 89 -50 118 -166 118c-31 0 -74 -2 -95 -3v-245
c26 -1 63 -2 96 -2c125 0 165 42 165 125zM293 -68l-101 -140h-42l94 140h49z" />
    <glyph glyph-name="Ccircumflex.sc" unicode="&#xe046;" horiz-adv-x="437" 
d="M391 2c-13 -2 -67 -11 -128 -11c-139 0 -212 71 -212 247v61c0 176 73 246 212 246c61 0 115 -8 128 -11v-87h-31l-2 58c-21 2 -57 6 -94 6c-118 0 -173 -63 -173 -212v-61c0 -149 55 -212 173 -212c37 0 73 3 94 5l2 59h31v-88zM401 616h-44l-122 128l-121 -128h-44
l141 154h48z" />
    <glyph glyph-name="Cdotaccent.sc" unicode="&#xe047;" horiz-adv-x="437" 
d="M391 2c-13 -2 -67 -11 -128 -11c-139 0 -212 71 -212 247v61c0 176 73 246 212 246c61 0 115 -8 128 -11v-87h-31l-2 58c-21 2 -57 6 -94 6c-118 0 -173 -63 -173 -212v-61c0 -149 55 -212 173 -212c37 0 73 3 94 5l2 59h31v-88zM268 643h-41v122h41v-122z" />
    <glyph glyph-name="Dcaron.sc" unicode="&#xe048;" horiz-adv-x="505" 
d="M457 250c0 -172 -69 -256 -239 -256c-61 0 -124 5 -180 6v33l40 2v467l-40 2v33c61 2 116 6 181 6c170 0 238 -83 238 -255v-38zM416 250v38c0 163 -67 219 -197 219c-38 0 -78 -2 -100 -4v-469c26 -1 58 -4 100 -4c133 0 197 56 197 220zM418 770l-149 -154h-49
l-148 154h44l128 -129l130 129h44z" />
    <glyph glyph-name="Dcroat.sc" unicode="&#xe049;" horiz-adv-x="505" 
d="M457 250c0 -174 -71 -256 -238 -256c-63 0 -126 5 -181 6v33l40 2v231h-46v36h46v200l-40 2v33c61 2 115 6 181 6c166 0 238 -83 238 -255v-38zM416 250v38c0 162 -67 219 -198 219c-37 0 -77 -2 -100 -4v-201h111v-36h-111v-232c27 -1 60 -4 100 -4
c133 0 198 57 198 220z" />
    <glyph glyph-name="Ebreve.sc" unicode="&#xe04a;" horiz-adv-x="448" 
d="M389 0h-351v32l40 1v471l-40 1v32h351v-87h-32l-2 53h-236v-204h251v-34h-251v-231h236l2 54h32v-88zM379 772c-7 -88 -41 -158 -155 -158c-113 0 -147 70 -154 158h32c7 -74 32 -128 122 -128c91 0 116 54 123 128h32z" />
    <glyph glyph-name="Ecaron.sc" unicode="&#xe04b;" horiz-adv-x="448" 
d="M389 0h-351v32l40 1v471l-40 1v32h351v-87h-32l-2 53h-236v-204h251v-34h-251v-231h236l2 54h32v-88zM401 770l-149 -154h-49l-148 154h44l128 -129l130 129h44z" />
    <glyph glyph-name="Edotaccent.sc" unicode="&#xe04c;" horiz-adv-x="448" 
d="M389 0h-351v32l40 1v471l-40 1v32h351v-87h-32l-2 53h-236v-204h251v-34h-251v-231h236l2 54h32v-88zM240 643h-41v122h41v-122z" />
    <glyph glyph-name="Emacron.sc" unicode="&#xe04d;" horiz-adv-x="448" 
d="M389 0h-351v32l40 1v471l-40 1v32h351v-87h-32l-2 53h-236v-204h251v-34h-251v-231h236l2 54h32v-88zM400 668h-343v34h343v-34z" />
    <glyph glyph-name="Eogonek.sc" unicode="&#xe04f;" horiz-adv-x="448" 
d="M366 -207c-16 -5 -51 -10 -84 -10c-83 0 -117 34 -117 88c0 60 63 99 134 129h-261v32l40 1v471l-40 1v32h351v-87h-32l-2 53h-236v-204h251v-34h-251v-231h236l2 54h32v-88h-28c-104 -44 -160 -76 -160 -128c0 -39 23 -60 84 -60c33 0 65 4 81 7v-26z" />
    <glyph glyph-name="Qalt.sc" unicode="&#xe595;" horiz-adv-x="509" 
d="M462 238c0 -165 -72 -239 -186 -246v-130h-39v130c-115 8 -186 82 -186 246v60c0 174 80 247 206 247c125 0 205 -71 205 -247v-60zM421 239v58c0 161 -69 212 -164 212c-96 0 -166 -52 -166 -212v-58c0 -159 70 -212 166 -212c95 0 164 51 164 212z" />
    <glyph glyph-name="Oslashacute.sc" unicode="&#xe068;" horiz-adv-x="513" 
d="M462 238c0 -174 -80 -247 -205 -247c-58 0 -108 15 -143 49l-33 -46h-37l50 71c-28 40 -43 97 -43 173v60c0 174 80 247 206 247c57 0 106 -14 141 -49l35 48h37l-51 -73c27 -40 43 -97 43 -173v-60zM421 239v58c0 56 -11 97 -29 126l-255 -347c29 -36 71 -49 120 -49
c95 0 164 51 164 212zM376 460c-29 36 -71 49 -119 49c-96 0 -166 -52 -166 -212v-58c0 -56 11 -97 30 -126zM408 770l-145 -154h-43l138 154h50z" />
    <glyph glyph-name="Ohungarumlaut.sc" unicode="&#xe066;" horiz-adv-x="513" 
d="M462 238c0 -174 -80 -247 -205 -247c-127 0 -206 74 -206 247v60c0 174 80 247 206 247c125 0 205 -71 205 -247v-60zM421 239v58c0 161 -69 212 -164 212c-96 0 -166 -52 -166 -212v-58c0 -159 70 -212 166 -212c95 0 164 51 164 212zM493 770l-145 -154h-43l138 154h50
zM302 770h-50l-138 -154h44z" />
    </font>
</defs>
</svg>
