<?xml version="1.0" standalone="no"?>
<!DOCTYPE svg PUBLIC "-//W3C//DTD SVG 1.1//EN" "http://www.w3.org/Graphics/SVG/1.1/DTD/svg11.dtd" >
<svg xmlns="http://www.w3.org/2000/svg" xmlns:xlink="http://www.w3.org/1999/xlink" version="1.1">
<metadata>
Created by FontForge 20141024 at Thu Apr 30 19:17:04 2015
 By System Administrator
Copyright (c) 2007 Monotype Imaging Inc. Soho is designed by Sebastian Lester. All rights reserved.
</metadata>
<defs>
<font id="SohoPro-HeavyCondensed" horiz-adv-x="609" >
  <font-face 
    font-family="Soho Pro"
    font-weight="900"
    font-stretch="condensed"
    units-per-em="1000"
    panose-1="2 4 9 6 6 5 6 2 2 4"
    ascent="780"
    descent="-220"
    x-height="582"
    cap-height="743"
    bbox="-70 -218 1374 1065"
    underline-thickness="111"
    underline-position="4"
    stemh="136"
    stemv="212"
    unicode-range="U+000D-FB16"
  />
<missing-glyph horiz-adv-x="500" 
 />
    <glyph glyph-name="f_i" unicode="fi" horiz-adv-x="714" 
d="M687 0h-279v144l34 5v287h-137v-287l34 -5v-144h-279v144l34 5v287l-70 10v136h70v38c0 131 58 175 167 175c49 0 98 -7 133 -17v-119c-29 1 -41 2 -51 2c-34 0 -38 -7 -38 -43v-36h349v-433l33 -5v-144zM658 648h-221v131h221v-131z" />
    <glyph glyph-name="f_l" unicode="fl" horiz-adv-x="716" 
d="M690 0h-279v144l33 5v510c-32 1 -66 2 -96 2c-34 0 -42 -5 -42 -43v-36h88v-146h-88v-287l34 -5v-144h-279v144l33 5v287l-70 10v136h70v36c0 146 63 177 179 177c56 0 134 -9 171 -16h212v-630l34 -5v-144z" />
    <glyph glyph-name="f_f" unicode="ff" horiz-adv-x="770" 
d="M744 436h-87v-287l33 -5v-144h-279v144l34 5v287h-139v-287l34 -5v-144h-279v144l33 5v287l-70 10v136h70v38c0 130 58 175 167 175c49 0 99 -7 133 -17v-119c-29 1 -41 2 -51 2c-34 0 -37 -7 -37 -43v-36h139v38c0 130 58 175 167 175c49 0 98 -7 133 -17v-119
c-29 1 -41 2 -51 2c-34 0 -37 -7 -37 -43v-36h87v-146z" />
    <glyph glyph-name="f_f_i" unicode="ffi" horiz-adv-x="1061" 
d="M1035 0h-279v144l33 5v287h-136v-287l34 -5v-144h-279v144l34 5v287h-136v-287l34 -5v-144h-279v144l33 5v287l-70 10v136h70v38c0 130 58 175 167 175c49 0 99 -7 133 -17v-119c-29 1 -41 2 -51 2c-34 0 -37 -7 -37 -43v-36h136v38c0 130 58 175 167 175
c49 0 98 -7 133 -17v-119c-29 1 -41 2 -51 2c-34 0 -38 -7 -38 -43v-36h348v-433l34 -5v-144zM1005 648h-220v131h220v-131z" />
    <glyph glyph-name="f_f_l" unicode="ffl" horiz-adv-x="1062" 
d="M1036 0h-278v144l33 5v510c-31 1 -66 2 -96 2c-34 0 -42 -5 -42 -43v-36h88v-146h-88v-287l33 -5v-144h-279v144l34 5v287h-135v-287l33 -5v-144h-279v144l34 5v287l-71 10v136h71v38c0 130 58 175 167 175c49 0 98 -7 133 -17v-119c-29 1 -41 2 -51 2
c-34 0 -37 -7 -37 -43v-36h135v36c0 146 63 177 179 177c56 0 134 -9 171 -16h211v-630l34 -5v-144z" />
    <glyph glyph-name="f_b" unicode="fb" horiz-adv-x="980" 
d="M653 779v-193c17 5 36 8 62 8c172 0 234 -89 234 -262v-71c0 -198 -79 -273 -276 -273c-58 0 -116 3 -231 14v657c-33 1 -58 2 -90 2s-46 -5 -46 -42v-37h88v-146h-88v-287l34 -5v-144h-279v144l33 5v287l-70 10v136h70v38c0 143 67 175 186 175c50 0 105 -7 162 -16h211
zM738 261v71c0 87 -8 103 -53 103c-11 0 -25 -2 -37 -7v-280c10 -1 21 -2 32 -2c48 0 58 14 58 115z" />
    <glyph glyph-name="f_f_b" unicode="ffb" horiz-adv-x="1327" 
d="M1296 261c0 -198 -79 -273 -276 -273c-58 0 -136 4 -231 14v657c-30 1 -57 2 -90 2c-32 0 -45 -5 -45 -43v-36h87v-146h-87v-287l33 -5v-144h-279v144l34 5v287h-136v-287l33 -5v-144h-279v144l34 5v287l-71 10v136h71v38c0 130 58 175 167 175c49 0 97 -7 133 -17v-119
c-30 1 -41 2 -51 2c-34 0 -37 -7 -37 -43v-36h136v36c0 145 66 177 186 177c45 0 118 -8 161 -16h212v-193c14 5 36 8 61 8c172 0 234 -89 234 -262v-71zM1085 261v71c0 87 -7 103 -53 103c-11 0 -25 -2 -36 -7v-280c9 -1 20 -2 31 -2c48 0 58 14 58 115z" />
    <glyph glyph-name="f_f_h" unicode="ffh" horiz-adv-x="1360" 
d="M1333 0h-245v383c0 40 -6 51 -33 51c-18 0 -37 -7 -52 -15v-270l34 -5v-144h-279v144l33 5v510c-32 1 -58 2 -90 2c-33 0 -47 -5 -47 -43v-36h88v-146h-88v-287l34 -5v-144h-279v144l33 5v287h-136v-287l34 -5v-144h-279v144l33 5v287l-70 10v136h70v38
c0 130 58 175 167 175c49 0 99 -7 133 -17v-119c-29 1 -41 2 -51 2c-34 0 -37 -7 -37 -43v-36h136v36c0 146 68 177 188 177c46 0 118 -8 161 -16h212v-219c41 24 92 33 130 33c156 0 167 -97 167 -209v-235l33 -5v-144z" />
    <glyph glyph-name="f_f_j" unicode="ffj" horiz-adv-x="1057" 
d="M1007 -22c0 -142 -61 -189 -190 -189c-52 0 -90 6 -112 12v134h50c33 0 40 7 40 43v458h-141v-287l33 -5v-144h-279v144l34 5v287h-136v-287l34 -5v-144h-279v144l33 5v287l-70 10v136h70v38c0 130 58 175 167 175c49 0 99 -7 133 -17v-119c-29 1 -41 2 -50 2
c-35 0 -38 -8 -38 -43v-36h136v38c0 130 58 175 167 175c49 0 98 -7 133 -17v-119c-29 1 -41 2 -51 2c-34 0 -37 -7 -37 -43v-36h353v-604zM1011 648h-221v131h221v-131z" />
    <glyph glyph-name="f_f_k" unicode="ffk" horiz-adv-x="1333" 
d="M1314 0h-223l-92 251v-251h-244v144l34 5v510c-32 1 -57 2 -88 2c-34 0 -48 -5 -48 -43v-36h88v-146h-88v-287l34 -5v-144h-279v144l33 5v287h-135v-287l33 -5v-144h-279v144l34 5v287l-70 10v136h70v38c0 130 58 175 167 175c49 0 98 -7 133 -17v-119c-29 1 -41 2 -51 2
c-34 0 -37 -7 -37 -43v-36h135v36c0 146 68 177 188 177c50 0 117 -8 160 -16h210v-443l96 246h217v-144l-61 -9l-61 -130l68 -146l56 -9v-144z" />
    <glyph glyph-name="f_h" unicode="fh" horiz-adv-x="1010" 
d="M984 0h-246v383c0 40 -5 51 -32 51c-19 0 -37 -7 -52 -15v-270l34 -5v-144h-279v144l33 5v510c-32 1 -57 2 -89 2c-33 0 -47 -5 -47 -43v-36h88v-146h-88v-287l34 -5v-144h-279v144l33 5v287l-70 10v136h70v36c0 146 67 177 188 177c50 0 117 -8 160 -16h212v-218
c41 23 92 33 130 33c155 0 167 -98 167 -210v-235l33 -5v-144z" />
    <glyph glyph-name="f_j" unicode="fj" horiz-adv-x="709" 
d="M659 -22c0 -142 -60 -189 -190 -189c-51 0 -91 6 -112 12v134h50c33 0 40 7 40 43v458h-141v-287l34 -5v-144h-279v144l33 5v287l-70 10v136h70v38c0 130 58 175 167 175c49 0 99 -7 133 -17v-119c-29 1 -41 2 -51 2c-34 0 -37 -7 -37 -43v-36h353v-604zM663 648h-221
v131h221v-131z" />
    <glyph glyph-name="f_k" unicode="fk" horiz-adv-x="986" 
d="M967 0h-223l-92 251v-251h-244v144l34 5v510c-32 1 -57 2 -89 2c-33 0 -47 -5 -47 -43v-36h88v-146h-88v-287l33 -5v-144h-279v144l34 5v287l-70 10v136h70v36c0 146 67 177 188 177c50 0 117 -8 160 -16h210v-443l95 246h217v-144l-60 -9l-61 -130l67 -146l57 -9v-144z
" />
    <glyph glyph-name=".notdef" horiz-adv-x="500" 
 />
    <glyph glyph-name=".null" horiz-adv-x="187" 
 />
    <glyph glyph-name=".null" horiz-adv-x="187" 
 />
    <glyph glyph-name="CR" unicode="&#xd;" horiz-adv-x="187" 
 />
    <glyph glyph-name="space" unicode=" " horiz-adv-x="187" 
 />
    <glyph glyph-name="numbersign" unicode="#" horiz-adv-x="631" 
d="M600 172h-95l-14 -172h-165l14 172h-84l-14 -172h-165l14 172h-60v121h71l11 148h-82v121h94l15 181h165l-16 -181h84l15 181h164l-14 -181h62v-121h-74l-11 -148h85v-121zM362 441h-84l-11 -148h83z" />
    <glyph glyph-name="dollar" unicode="$" horiz-adv-x="573" 
d="M543 214c0 -120 -64 -195 -170 -220v-122h-176v116c-54 5 -105 13 -150 23v183h132l9 -42c21 0 36 -1 56 -1c48 0 69 13 69 56c0 40 -21 62 -81 96l-44 25c-90 51 -158 115 -158 223c0 105 53 172 167 197v114h176v-106c61 -5 125 -17 154 -25v-178h-132l-9 39
c-20 1 -40 2 -60 2c-43 0 -68 -11 -68 -47c0 -26 19 -45 60 -68l44 -25c116 -65 181 -130 181 -240z" />
    <glyph glyph-name="percent" unicode="%" horiz-adv-x="1024" 
d="M996 208c0 -126 -37 -218 -179 -218c-143 0 -180 92 -180 218v31c0 125 37 217 180 217c142 0 179 -92 179 -217v-31zM847 207v33c0 91 -7 107 -30 107c-24 0 -30 -16 -30 -107v-33c0 -91 6 -108 30 -108c23 0 30 17 30 108zM791 745l-393 -745h-170l394 745h169z
M387 511c0 -125 -36 -218 -179 -218c-145 0 -179 94 -179 218v31c0 124 34 217 179 217c143 0 179 -93 179 -217v-31zM238 510v33c0 91 -5 107 -30 107s-30 -17 -30 -107v-33c0 -91 5 -108 30 -108s30 17 30 108z" />
    <glyph glyph-name="ampersand" unicode="&#x26;" horiz-adv-x="715" 
d="M307 484l187 -230c6 30 10 64 10 104l-34 9v94h219v-95l-35 -8c0 -91 -23 -165 -62 -223l77 -94v-41h-190l-20 23c-53 -24 -113 -37 -176 -37c-139 0 -256 43 -256 200v6c0 79 52 148 122 201l-3 4c-61 65 -81 120 -81 179v7c0 123 82 176 252 176c89 0 192 -16 238 -28
v-169h-132l-9 42c-29 1 -56 1 -87 1c-35 0 -54 -10 -54 -38v-6c0 -27 12 -49 34 -77zM314 117c23 0 43 2 62 6l-114 136c-15 -20 -20 -45 -20 -68v-6c0 -44 22 -68 72 -68z" />
    <glyph glyph-name="quoteright" unicode="&#x2019;" horiz-adv-x="262" 
d="M252 779l-95 -268h-147l56 268h186z" />
    <glyph glyph-name="parenleft" unicode="(" horiz-adv-x="358" 
d="M333 -196h-189c-60 111 -114 268 -114 465v10c0 197 54 354 114 464h189c-55 -122 -94 -278 -94 -464v-10c0 -186 39 -342 94 -465z" />
    <glyph glyph-name="parenright" unicode=")" horiz-adv-x="358" 
d="M328 269c0 -197 -54 -354 -113 -465h-190c55 123 94 279 94 465v10c0 186 -39 342 -94 464h190c59 -110 113 -267 113 -464v-10z" />
    <glyph glyph-name="asterisk" unicode="*" horiz-adv-x="509" 
d="M480 570l-47 -14c-21 -7 -45 -11 -70 -13c20 -15 37 -32 49 -48l29 -38l-125 -85l-28 37c-14 17 -24 38 -34 60c-10 -23 -21 -43 -34 -59l-29 -38l-124 86l29 37c12 16 29 34 49 49c-25 1 -49 5 -70 12l-46 15l48 137l46 -14c20 -7 42 -17 64 -30c-6 24 -9 46 -9 67v47
h153v-47c0 -21 -4 -43 -11 -68c22 14 44 24 65 31l47 14z" />
    <glyph glyph-name="plus" unicode="+" horiz-adv-x="542" 
d="M510 310h-157v-155h-164v155h-158v154h158v155h164v-155h157v-154z" />
    <glyph glyph-name="comma" unicode="," horiz-adv-x="330" 
d="M303 176l-114 -276h-166l71 276h209z" />
    <glyph glyph-name="hyphen" unicode="-" horiz-adv-x="286" 
d="M258 225h-230v141h230v-141z" />
    <glyph glyph-name="period" unicode="." horiz-adv-x="276" 
d="M243 0h-210v176h210v-176z" />
    <glyph glyph-name="slash" unicode="/" horiz-adv-x="454" 
d="M434 743l-197 -743h-217l197 743h217z" />
    <glyph glyph-name="zero" unicode="0" horiz-adv-x="619" 
d="M588 336c0 -198 -50 -352 -278 -352c-229 0 -278 154 -278 352v71c0 198 49 352 278 352c228 0 278 -154 278 -352v-71zM359 337v70c0 152 -9 181 -49 181c-41 0 -50 -29 -50 -181v-70c0 -153 9 -181 50 -181c40 0 49 28 49 181z" />
    <glyph glyph-name="one" unicode="1" horiz-adv-x="530" 
d="M501 0h-473v144l124 8v399l-124 -32v157l184 68h166v-592l123 -8v-144z" />
    <glyph glyph-name="two" unicode="2" horiz-adv-x="548" 
d="M499 0h-482v93c0 190 37 248 172 345c86 62 97 77 97 113c0 38 -18 49 -82 49c-9 0 -25 0 -43 -1l-8 -48h-128v178c69 21 163 30 224 30c185 0 267 -58 267 -192c0 -93 -42 -150 -168 -237c-103 -71 -109 -86 -109 -158v-8h124l7 40h129v-204z" />
    <glyph glyph-name="three" unicode="3" horiz-adv-x="557" 
d="M525 205c0 -155 -79 -221 -273 -221c-83 0 -174 15 -219 31v180h129l8 -49c18 -1 36 -1 51 -1c53 0 77 5 77 74v13c0 52 -17 71 -79 71h-148v145h149c60 0 78 17 78 69v10c0 66 -21 72 -77 72c-17 0 -34 0 -51 -1l-8 -47h-128v177c46 16 135 31 218 31
c178 0 273 -58 273 -213v-11c0 -74 -25 -125 -77 -158c53 -31 77 -87 77 -158v-14z" />
    <glyph glyph-name="four" unicode="4" horiz-adv-x="603" 
d="M576 154h-68v-54l35 -5v-95h-297v95l35 5v54h-255v145l304 445h178v-438h68v-152zM295 306v180l-108 -180h108z" />
    <glyph glyph-name="five" unicode="5" horiz-adv-x="552" 
d="M520 227c0 -186 -116 -243 -270 -243c-99 0 -180 18 -217 28v182h128l8 -50c13 -1 24 -1 33 -1c68 0 88 15 88 83v16c0 59 -15 73 -88 73h-169l30 428h442v-194h-128l-6 34h-125l-7 -116h25c212 0 256 -83 256 -224v-16z" />
    <glyph glyph-name="six" unicode="6" horiz-adv-x="600" 
d="M568 231c0 -177 -104 -247 -271 -247c-199 0 -265 98 -265 278v209c0 196 55 288 273 288c89 0 189 -17 231 -28v-179h-127l-9 47c-20 0 -41 1 -60 1c-79 0 -84 -22 -84 -105v-24c15 4 45 6 71 6c153 0 241 -45 241 -215v-31zM343 231v29c0 66 -6 85 -46 85
c-12 0 -29 -1 -41 -4v-104c0 -75 7 -103 44 -103c35 0 43 28 43 97z" />
    <glyph glyph-name="seven" unicode="7" horiz-adv-x="571" 
d="M545 570l-263 -570h-233l274 583h-151l-7 -38h-127v198h507v-173z" />
    <glyph glyph-name="eight" unicode="8" horiz-adv-x="617" 
d="M585 210c0 -207 -141 -226 -274 -226h-5c-133 0 -274 19 -274 226v7c0 80 24 127 73 166c-45 36 -71 83 -71 156v10c0 182 120 210 272 210h5c152 0 272 -28 272 -210v-10c0 -73 -25 -120 -71 -156c50 -39 73 -86 73 -166v-7zM361 211v8c0 75 -8 97 -43 97h-19
c-35 0 -43 -22 -43 -97v-8c0 -62 13 -82 50 -82h5c37 0 50 20 50 82zM360 534v8c0 50 -11 71 -49 71h-5c-38 0 -49 -21 -49 -71v-8c0 -54 6 -84 42 -84h19c35 0 42 30 42 84z" />
    <glyph glyph-name="nine" unicode="9" horiz-adv-x="600" 
d="M568 275c0 -195 -55 -291 -273 -291c-89 0 -189 17 -231 28v180h126l9 -47c22 -1 45 -1 66 -1c75 0 80 23 80 105v23c-16 -3 -46 -6 -71 -6c-154 0 -242 46 -242 215v32c0 176 104 246 272 246c198 0 264 -95 264 -273v-211zM345 403v103c0 76 -8 104 -45 104
c-36 0 -43 -29 -43 -97v-30c0 -66 6 -85 46 -85c12 0 29 2 42 5z" />
    <glyph glyph-name="colon" unicode=":" horiz-adv-x="293" 
d="M252 0h-211v176h211v-176zM252 566v-176h-211v176h211z" />
    <glyph glyph-name="semicolon" unicode=";" horiz-adv-x="341" 
d="M291 177l-125 -276h-166l70 276h221zM282 390h-211v176h211v-176z" />
    <glyph glyph-name="less" unicode="&#x3c;" horiz-adv-x="542" 
d="M487 122h-212l-220 265l220 265h212l-217 -265z" />
    <glyph glyph-name="equal" unicode="=" horiz-adv-x="542" 
d="M486 157h-431v154h431v-154zM486 452h-431v154h431v-154z" />
    <glyph glyph-name="greater" unicode="&#x3e;" horiz-adv-x="542" 
d="M487 387l-219 -265h-213l217 265l-217 265h213z" />
    <glyph glyph-name="question" unicode="?" horiz-adv-x="490" 
d="M28 754c63 26 152 36 232 36c140 0 211 -50 211 -161v-8c0 -57 -18 -100 -71 -168c-73 -94 -96 -145 -96 -190v-18h-177v18c0 80 1 120 41 187c38 63 52 97 52 125v5c0 27 -11 40 -47 40c-7 0 -14 0 -23 -1l-7 -38h-115v173zM110 176v-176h211v176h-211z" />
    <glyph glyph-name="at" unicode="@" horiz-adv-x="750" 
d="M722 377c0 -204 -97 -341 -331 -341c-150 0 -207 54 -208 163c0 25 1 53 3 77c12 154 77 220 211 220c61 0 122 -12 160 -24l-27 -314c61 35 93 111 93 219c0 134 -72 217 -220 217c-156 0 -236 -118 -266 -306c-6 -37 -11 -78 -11 -122c0 -150 74 -215 231 -215
c61 0 124 6 160 10v-64c-24 -6 -96 -18 -160 -18c-215 0 -329 88 -329 287c0 48 5 94 12 134c41 233 158 371 363 371c191 0 319 -102 319 -294zM404 389c-6 2 -13 2 -20 2c-30 0 -46 -23 -54 -119c-3 -29 -3 -51 -3 -74c0 -46 9 -62 40 -62h18z" />
    <glyph glyph-name="A" unicode="A" horiz-adv-x="695" 
d="M670 0h-246l-22 154h-110l-23 -154h-244v146l37 4l78 442l-38 6v145h421l108 -593l39 -4v-146zM387 313l-26 176c-5 35 -10 80 -13 113h-3c-3 -33 -8 -77 -13 -113l-26 -176h81z" />
    <glyph glyph-name="B" unicode="B" horiz-adv-x="635" 
d="M607 222c0 -183 -113 -235 -313 -235c-79 0 -157 3 -267 13v146l35 4v442l-35 6v145c97 11 198 14 267 14c203 0 311 -50 311 -221v-10c0 -68 -23 -117 -65 -146c51 -32 67 -96 67 -144v-14zM388 223v15c0 57 -14 76 -64 76h-43v-164c14 -1 23 -1 37 -1c55 0 70 17 70 74
zM387 519v10c0 53 -18 69 -71 69c-11 0 -20 0 -35 -1v-152h42c53 0 64 21 64 74z" />
    <glyph glyph-name="C" unicode="C" horiz-adv-x="542" 
d="M514 6c-38 -12 -145 -22 -193 -22c-195 0 -290 73 -290 347v82c0 274 95 346 290 346c48 0 155 -9 193 -22v-198h-133l-8 41h-20c-61 0 -92 -17 -92 -167v-82c0 -150 31 -168 94 -168h18l8 42h133v-199z" />
    <glyph glyph-name="D" unicode="D" horiz-adv-x="654" 
d="M623 345c0 -266 -88 -359 -326 -359c-85 0 -185 6 -270 15v144l38 6v442l-38 6v144c85 11 184 14 270 14c238 0 326 -92 326 -351v-61zM398 345v61c0 153 -9 179 -84 179c-7 0 -17 0 -27 -1v-425h27c75 0 84 32 84 186z" />
    <glyph glyph-name="E" unicode="E" horiz-adv-x="543" 
d="M512 0h-485v145l31 4v444l-31 5v145h485v-198h-133l-6 30h-88v-120h209v-155h-209v-132h87l7 31h133v-199z" />
    <glyph glyph-name="F" unicode="F" horiz-adv-x="543" 
d="M499 299h-210v-148l35 -6v-145h-297v145l35 6v441l-35 6v145h490v-199h-133l-7 30h-88v-120h210v-155z" />
    <glyph glyph-name="G" unicode="G" horiz-adv-x="610" 
d="M577 5c-56 -10 -152 -21 -250 -21c-153 0 -296 40 -296 348v80c0 326 169 347 306 347c86 0 189 -18 234 -30v-189h-133l-8 39c-14 0 -34 1 -48 1c-95 0 -125 -18 -125 -168v-80c0 -139 13 -172 69 -172c12 0 26 0 40 1v111l-43 7v121h254v-395z" />
    <glyph glyph-name="H" unicode="H" horiz-adv-x="715" 
d="M390 743h298v-146l-35 -4v-443l35 -4v-146h-298v146l35 4v143h-135v-143l35 -4v-146h-298v146l35 4v443l-35 4v146h298v-146l-35 -4v-127h135v127l-35 4v146z" />
    <glyph glyph-name="I" unicode="I" horiz-adv-x="351" 
d="M325 0h-298v146l35 4v443l-35 4v146h298v-146l-36 -4v-443l36 -4v-146z" />
    <glyph glyph-name="J" unicode="J" horiz-adv-x="351" 
d="M323 597l-35 -4v-609c0 -146 -74 -194 -194 -194c-29 0 -73 4 -105 12v136h37c29 0 35 9 35 40v615l-35 4v146h297v-146z" />
    <glyph glyph-name="K" unicode="K" horiz-adv-x="678" 
d="M320 0h-293v146l31 4v443l-31 4v146h293v-146l-35 -4v-184l134 334h233v-146l-46 -4l-100 -218l100 -225l45 -4v-146h-244l-122 331v-181l35 -4v-146z" />
    <glyph glyph-name="L" unicode="L" horiz-adv-x="508" 
d="M483 0h-456v146l31 4v443l-31 4v146h293v-146l-35 -4v-420h57l8 41h133v-214z" />
    <glyph glyph-name="M" unicode="M" horiz-adv-x="796" 
d="M309 0h-282v146l29 4v443l-29 5v145h235l94 -194c13 -27 27 -62 38 -91h2c11 29 24 65 37 91l95 194h241v-146l-35 -4v-443l35 -4v-146h-288v146l35 4v142c0 36 1 75 4 113h-2c-10 -27 -22 -65 -34 -90l-41 -84h-97l-41 84c-12 24 -23 63 -34 90h-2c3 -38 5 -77 5 -113
v-142l35 -4v-146z" />
    <glyph glyph-name="N" unicode="N" horiz-adv-x="692" 
d="M393 743h276v-146l-35 -4v-593h-216l-122 273c-11 25 -26 62 -36 90h-2c3 -33 5 -76 5 -108v-105l35 -4v-146h-271v146l31 4v443l-31 4v146h240l124 -266c16 -35 30 -68 40 -97h2c-3 27 -5 86 -5 120v93l-35 4v146z" />
    <glyph glyph-name="O" unicode="O" horiz-adv-x="639" 
d="M608 334c0 -282 -122 -350 -288 -350s-289 68 -289 350v75c0 286 127 350 289 350s288 -64 288 -350v-75zM383 335v73c0 138 -11 173 -63 173s-63 -35 -63 -173v-73c0 -140 12 -172 63 -172c50 0 63 32 63 172z" />
    <glyph glyph-name="P" unicode="P" horiz-adv-x="638" 
d="M328 0h-301v146l35 4v444l-35 3v146c89 9 175 12 272 12c170 0 313 -38 313 -252v-9c0 -214 -143 -256 -285 -256h-44v-88l45 -4v-146zM391 494v9c0 64 -18 83 -73 83c-12 0 -24 -1 -35 -1v-176c10 -1 23 -1 37 -1c53 0 71 27 71 86z" />
    <glyph glyph-name="Q" unicode="Q" horiz-adv-x="639" 
d="M608 332c0 -219 -75 -311 -188 -337v-26c0 -26 5 -29 41 -29h60v-123c-37 -14 -93 -23 -145 -23c-113 0 -165 42 -165 164v39c-110 30 -180 124 -180 335v79c0 286 130 348 289 348s288 -62 288 -348v-79zM383 333v77c0 138 -12 171 -63 171s-63 -33 -63 -171v-77
c0 -138 12 -170 63 -170c50 0 63 32 63 170z" />
    <glyph glyph-name="R" unicode="R" horiz-adv-x="656" 
d="M316 0h-289v146l35 4v443l-35 4v146c82 7 173 12 269 12c165 0 312 -37 312 -250v-8c0 -99 -31 -159 -82 -199l58 -147l47 -5v-146h-210l-95 253h-45v-103l35 -4v-146zM387 495v7c0 63 -13 84 -73 84c-13 0 -20 0 -33 -1v-177h36c59 0 70 31 70 87z" />
    <glyph glyph-name="S" unicode="S" horiz-adv-x="563" 
d="M535 215c0 -152 -96 -231 -253 -231c-100 0 -188 13 -238 27v181h132l9 -42c19 -1 37 -1 55 -1c49 0 65 20 65 57c0 31 -11 50 -55 77l-81 51c-87 55 -142 105 -142 216c0 140 88 209 274 209c89 0 177 -16 223 -28v-176h-133l-9 40h-59c-46 0 -69 -11 -69 -47
c0 -24 13 -45 52 -67l70 -39c106 -59 159 -117 159 -227z" />
    <glyph glyph-name="T" unicode="T" horiz-adv-x="616" 
d="M590 544h-128l-8 34h-32v-429l35 -4v-145h-298v145l36 4v429h-33l-8 -34h-128v199h564v-199z" />
    <glyph glyph-name="U" unicode="U" horiz-adv-x="694" 
d="M371 743h295v-146l-35 -4v-320c0 -146 -70 -289 -285 -289c-214 0 -283 143 -283 289v320l-36 4v146h296v-146l-35 -4v-317c0 -90 7 -120 58 -120c53 0 60 31 60 120v317l-35 4v146z" />
    <glyph glyph-name="V" unicode="V" horiz-adv-x="692" 
d="M667 598l-40 -6l-103 -592h-357l-103 592l-39 6v145h245l59 -450c6 -45 11 -108 15 -152h2c4 44 11 107 17 152l59 450h245v-145z" />
    <glyph glyph-name="W" unicode="W" horiz-adv-x="897" 
d="M590 743h284v-145l-37 -6l-73 -592h-247l-51 242c-7 33 -13 80 -16 111h-3c-3 -31 -10 -78 -17 -111l-49 -242h-248l-73 592l-37 6v145h285v-146l-31 -4l15 -172c4 -42 7 -94 8 -130h2c6 35 12 85 20 121l29 134h196l28 -134c7 -36 15 -87 20 -121h2c1 36 5 88 8 130
l14 172l-29 4v146z" />
    <glyph glyph-name="X" unicode="X" horiz-adv-x="648" 
d="M623 0h-233l-75 179l-70 -179h-220v145l50 6l108 239l-102 201l-52 7v145h238l74 -169l63 169h215v-145l-52 -6l-103 -224l102 -217l57 -6v-145z" />
    <glyph glyph-name="Y" unicode="Y" horiz-adv-x="619" 
d="M595 598l-46 -7l-129 -321v-124l36 -6v-140h-295v140l38 6v124l-129 321l-45 7v145h212l45 -162c10 -35 19 -83 26 -116h3c7 33 17 82 26 116l46 162h212v-145z" />
    <glyph glyph-name="Z" unicode="Z" horiz-adv-x="534" 
d="M507 0h-480v163l214 414h-76l-10 -35h-125v201h474v-169l-214 -408h82l10 37h125v-203z" />
    <glyph glyph-name="bracketleft" unicode="[" horiz-adv-x="370" 
d="M343 -196h-309v939h309v-155h-97v-629h97v-155z" />
    <glyph glyph-name="backslash" unicode="\" horiz-adv-x="450" 
d="M428 0h-211l-195 743h210z" />
    <glyph glyph-name="bracketright" unicode="]" horiz-adv-x="370" 
d="M336 -196h-309v155h96v629h-96v155h309v-939z" />
    <glyph glyph-name="asciicircum" unicode="^" horiz-adv-x="606" 
d="M572 434h-194l-76 219l-74 -219h-194l117 309h302z" />
    <glyph glyph-name="underscore" unicode="_" horiz-adv-x="548" 
d="M532 -161h-516v111h516v-111z" />
    <glyph glyph-name="quoteleft" unicode="&#x2018;" horiz-adv-x="262" 
d="M252 779l-56 -268h-186l94 268h148z" />
    <glyph glyph-name="a" unicode="a" horiz-adv-x="562" 
d="M536 0h-222v32c-31 -22 -87 -44 -143 -44c-113 0 -143 74 -143 163v31c0 147 109 160 246 160h16v34c0 54 -8 63 -62 63h-26l-8 -35h-131v151c32 12 126 39 218 39c144 0 221 -46 221 -218v-228l34 -4v-144zM302 130v116h-25c-36 0 -50 -7 -50 -59v-27
c0 -31 10 -41 30 -41c17 0 33 6 45 11z" />
    <glyph glyph-name="b" unicode="b" horiz-adv-x="574" 
d="M544 261c0 -198 -79 -273 -276 -273c-64 0 -128 3 -231 14v630l-33 4v144h244v-194c14 5 36 8 62 8c172 0 234 -89 234 -262v-71zM333 261v71c0 87 -7 103 -53 103c-11 0 -25 -2 -37 -7v-280c10 -1 21 -2 32 -2c48 0 58 14 58 115z" />
    <glyph glyph-name="c" unicode="c" horiz-adv-x="480" 
d="M453 13c-40 -11 -106 -25 -183 -25c-169 0 -239 82 -239 268v70c0 188 70 268 239 268c87 0 159 -17 183 -25v-168h-127l-7 32h-15c-48 0 -62 -16 -62 -107v-70c0 -92 14 -108 65 -108c36 0 88 3 146 6v-141z" />
    <glyph glyph-name="d" unicode="d" horiz-adv-x="600" 
d="M574 0h-223v27c-36 -25 -80 -39 -136 -39c-135 0 -184 100 -184 268v72c0 182 70 266 242 266c23 0 40 -1 55 -3v57l-36 5v126h248v-631l34 -4v-144zM334 157v275c-12 2 -26 3 -34 3c-45 0 -57 -13 -57 -107v-72c0 -88 6 -107 48 -107c13 0 31 3 43 8z" />
    <glyph glyph-name="e" unicode="e" horiz-adv-x="566" 
d="M535 235h-295v-7c0 -72 6 -84 86 -84c45 0 130 2 184 7v-136c-36 -11 -117 -27 -201 -27c-176 0 -278 56 -278 256v86c0 190 99 264 255 264c197 0 249 -125 249 -271v-88zM333 342v6c0 75 -9 100 -47 100s-46 -25 -46 -100v-6h93z" />
    <glyph glyph-name="f" unicode="f" horiz-adv-x="418" 
d="M393 436h-88v-288l34 -4v-144h-279v144l34 4v288l-71 10v136h71v38c0 130 58 175 167 175c49 0 97 -7 133 -17v-119c-30 1 -41 2 -51 2c-34 0 -38 -7 -38 -43v-36h88v-146z" />
    <glyph glyph-name="g" unicode="g" horiz-adv-x="579" 
d="M546 -22c0 -142 -102 -189 -265 -189c-153 0 -254 50 -254 175c0 40 16 82 48 113c-32 23 -43 56 -43 88c0 33 15 69 53 90c-28 28 -47 73 -47 141c0 108 32 198 249 198h267v-101l-39 -14c9 -14 19 -47 19 -83c0 -157 -111 -202 -248 -202c-24 0 -57 3 -79 8
c-6 -6 -12 -15 -12 -25c0 -19 9 -22 43 -22h45c199 0 263 -44 263 -177zM342 -35c0 52 -6 61 -60 61h-50c-9 -13 -11 -29 -11 -61c0 -45 20 -58 61 -58c42 0 60 13 60 58zM331 396c0 48 -7 70 -45 70s-44 -22 -44 -70c0 -51 8 -73 44 -73c38 0 45 22 45 73z" />
    <glyph glyph-name="h" unicode="h" horiz-adv-x="629" 
d="M272 0h-246v144l34 4v483l-34 5v143h246v-218c40 23 92 33 129 33c156 0 168 -98 168 -210v-236l33 -4v-144h-246v383c0 40 -6 51 -32 51c-19 0 -38 -7 -52 -15v-419z" />
    <glyph glyph-name="i" unicode="i" horiz-adv-x="332" 
d="M305 0h-279v144l34 4v285l-34 5v144h246v-434l33 -4v-144zM276 648h-221v131h221v-131z" />
    <glyph glyph-name="j" unicode="j" horiz-adv-x="322" 
d="M272 -22c0 -144 -61 -189 -192 -189c-46 0 -87 5 -110 11v135c20 -1 34 -1 50 -1c33 0 40 7 40 44v456l-34 5v143h246v-604zM276 648h-221v131h221v-131z" />
    <glyph glyph-name="k" unicode="k" horiz-adv-x="604" 
d="M577 0h-215l-92 251v-251h-244v144l34 4v484l-34 4v143h244v-443l95 246h210v-144l-53 -7l-60 -132l67 -147l48 -8v-144z" />
    <glyph glyph-name="l" unicode="l" horiz-adv-x="331" 
d="M305 0h-279v144l34 4v483l-34 5v143h245v-631l34 -4v-144z" />
    <glyph glyph-name="m" unicode="m" horiz-adv-x="896" 
d="M272 0h-246v144l34 4v286l-34 5v143h231v-42c41 39 96 54 142 54c60 0 95 -19 120 -56c51 41 107 56 153 56c131 0 164 -81 164 -202v-244l34 -4v-144h-246v389c0 30 -2 46 -28 46c-14 0 -32 -6 -44 -13c2 -12 2 -22 2 -33v-389h-212v389c0 30 -2 46 -27 46
c-16 0 -32 -7 -43 -14v-421z" />
    <glyph glyph-name="n" unicode="n" horiz-adv-x="629" 
d="M272 0h-246v144l34 4v286l-34 5v143h231v-43c38 32 94 55 153 55c155 0 159 -102 159 -210v-236l33 -4v-144h-246v384c0 39 -7 50 -32 50c-17 0 -37 -7 -52 -16v-418z" />
    <glyph glyph-name="o" unicode="o" horiz-adv-x="571" 
d="M540 255c0 -207 -100 -267 -255 -267c-154 0 -254 60 -254 267v71c0 208 100 268 254 268c155 0 255 -60 255 -267v-72zM330 255v72c0 88 -12 107 -45 107s-45 -19 -45 -108v-71c0 -89 12 -108 45 -108s45 19 45 108z" />
    <glyph glyph-name="p" unicode="p" horiz-adv-x="600" 
d="M305 -196h-279v144l34 4v482l-34 5v143h226v-34c46 34 101 46 145 46c116 0 172 -65 172 -260v-81c0 -181 -73 -265 -244 -265c-19 0 -42 2 -54 3v-39l34 -4v-144zM357 253v81c0 83 -7 99 -46 99c-12 0 -30 -2 -45 -11v-272c12 -2 22 -3 33 -3c45 0 58 13 58 106z" />
    <glyph glyph-name="q" unicode="q" horiz-adv-x="581" 
d="M293 -53l33 6v43c-15 -6 -35 -8 -59 -8c-175 0 -237 83 -237 262v71c0 207 80 273 274 273c66 0 128 -3 233 -15v-626l33 -6v-143h-277v143zM331 153v280c-10 1 -23 2 -31 2c-47 0 -59 -9 -59 -115v-70c0 -86 9 -103 52 -103c10 0 23 1 38 6z" />
    <glyph glyph-name="r" unicode="r" horiz-adv-x="419" 
d="M404 421c-45 0 -90 -3 -132 -8v-265l33 -4v-144h-279v144l34 4v286l-34 5v143h226v-42c51 51 114 54 152 54v-173z" />
    <glyph glyph-name="s" unicode="s" horiz-adv-x="496" 
d="M467 168c0 -128 -93 -180 -242 -180c-66 0 -153 12 -193 23v151h133l7 -31c17 -1 24 -1 31 -1c40 0 53 10 53 38c0 21 -13 38 -59 63l-36 20c-79 44 -134 87 -134 175c0 135 93 168 223 168c74 0 161 -11 206 -27v-144h-132l-9 29c-19 1 -24 1 -34 1
c-30 0 -43 -7 -43 -28c0 -19 9 -35 52 -59l36 -20c89 -50 141 -91 141 -178z" />
    <glyph glyph-name="t" unicode="t" horiz-adv-x="422" 
d="M395 4c-14 -5 -70 -16 -129 -16c-132 0 -169 72 -169 183v265l-72 10v136h72v127h211v-127h87v-146h-87v-265c0 -32 1 -42 32 -42c17 0 46 2 55 2v-127z" />
    <glyph glyph-name="u" unicode="u" horiz-adv-x="629" 
d="M356 582h213v-434l33 -5v-143h-231v43c-35 -29 -90 -55 -162 -55c-141 0 -149 106 -149 210v237l-34 4v143h246v-384c0 -39 7 -50 33 -50c16 0 36 7 51 16v418z" />
    <glyph glyph-name="v" unicode="v" horiz-adv-x="610" 
d="M584 438l-38 -8l-90 -430h-303l-90 430l-38 8v144h223l38 -300c7 -51 14 -119 17 -158h2c4 40 12 107 19 158l38 300h222v-144z" />
    <glyph glyph-name="w" unicode="w" horiz-adv-x="865" 
d="M839 438l-41 -7l-66 -431h-240l-41 178c-8 33 -14 70 -18 105h-2c-5 -36 -11 -71 -20 -105l-44 -178h-235l-66 431l-41 7v144h232l21 -236c4 -43 8 -89 9 -121h2c7 33 15 80 26 120l29 111h176l29 -111c11 -41 19 -87 26 -120h2c2 33 5 78 9 121l22 236h231v-144z" />
    <glyph glyph-name="x" unicode="x" horiz-adv-x="548" 
d="M523 0h-194l-64 135l-54 -135h-185v144l41 7l73 154l-66 125l-47 8v144h206l59 -126l51 126h177v-144l-39 -6l-72 -146l71 -136l43 -6v-144z" />
    <glyph glyph-name="y" unicode="y" horiz-adv-x="614" 
d="M589 439l-41 -6l-81 -369c-41 -186 -103 -274 -277 -274c-43 0 -105 5 -154 17v133c40 -1 64 -1 92 -1c36 0 49 9 55 42l5 25l-121 426l-42 7v143h225l39 -280c7 -49 15 -118 18 -157h2c4 39 11 107 18 157l38 280h224v-143z" />
    <glyph glyph-name="z" unicode="z" horiz-adv-x="478" 
d="M451 0h-424v147l192 284h-70l-7 -30h-111v181h419v-150l-188 -282h68l11 34h110v-184z" />
    <glyph glyph-name="braceleft" unicode="{" horiz-adv-x="409" 
d="M382 -196h-50c-193 0 -259 36 -259 205v112c0 64 -17 81 -47 101v104c30 20 47 36 47 100v111c0 170 66 206 259 206h49v-155h-40c-46 0 -55 -4 -55 -51v-111c0 -85 -28 -119 -82 -152c54 -34 82 -67 82 -153v-112c0 -47 9 -50 55 -50h41v-155z" />
    <glyph glyph-name="bar" unicode="|" horiz-adv-x="280" 
d="M245 -196h-211v939h211v-939z" />
    <glyph glyph-name="braceright" unicode="}" horiz-adv-x="409" 
d="M382 222c-30 -20 -46 -37 -46 -101v-112c0 -169 -66 -205 -259 -205h-50v155h41c45 0 55 3 55 50v112c0 86 28 119 82 153c-54 33 -82 67 -82 152v111c0 47 -10 51 -55 51h-41v155h50c193 0 259 -36 259 -206v-111c0 -64 16 -80 46 -100v-104z" />
    <glyph glyph-name="asciitilde" unicode="~" horiz-adv-x="604" 
d="M570 499c0 -130 -53 -186 -151 -186c-43 0 -75 5 -114 27l-41 23c-13 7 -27 16 -41 16c-20 0 -25 -12 -25 -37v-26h-164v26c0 135 67 186 163 186c35 0 72 -8 107 -29l37 -22c15 -9 27 -15 43 -15c20 0 23 13 23 37v26h163v-26z" />
    <glyph glyph-name="Aacute" unicode="&#xc1;" horiz-adv-x="695" 
d="M670 0h-246l-22 154h-110l-23 -154h-244v146l37 4l78 442l-38 6v145h421l108 -593l39 -4v-146zM387 313l-26 176c-5 35 -10 80 -13 113h-3c-3 -33 -8 -77 -13 -113l-26 -176h81zM546 915l-138 -136h-185l101 136h222z" />
    <glyph glyph-name="Agrave" unicode="&#xc0;" horiz-adv-x="695" 
d="M670 0h-246l-22 154h-110l-23 -154h-244v146l37 4l78 442l-38 6v145h421l108 -593l39 -4v-146zM387 313l-26 176c-5 35 -10 80 -13 113h-3c-3 -33 -8 -77 -13 -113l-26 -176h81zM457 779h-185l-138 136h222z" />
    <glyph glyph-name="Acircumflex" unicode="&#xc2;" horiz-adv-x="695" 
d="M670 0h-246l-22 154h-110l-23 -154h-244v146l37 4l78 442l-38 6v145h421l108 -593l39 -4v-146zM387 313l-26 176c-5 35 -10 80 -13 113h-3c-3 -33 -8 -77 -13 -113l-26 -176h81zM572 779h-169l-56 64l-55 -64h-170l105 136h240z" />
    <glyph glyph-name="Adieresis" unicode="&#xc4;" horiz-adv-x="695" 
d="M670 0h-246l-22 154h-110l-23 -154h-244v146l37 4l78 442l-38 6v145h421l108 -593l39 -4v-146zM387 313l-26 176c-5 35 -10 80 -13 113h-3c-3 -33 -8 -77 -13 -113l-26 -176h81zM544 781h-163v132h163v-132zM314 781v132h-164v-132h164z" />
    <glyph glyph-name="Atilde" unicode="&#xc3;" horiz-adv-x="695" 
d="M670 0h-246l-22 154h-110l-23 -154h-244v146l37 4l78 442l-38 6v145h421l108 -593l39 -4v-146zM387 313l-26 176c-5 35 -10 80 -13 113h-3c-3 -33 -8 -77 -13 -113l-26 -176h81zM563 915c0 -102 -61 -139 -119 -139c-35 0 -65 4 -94 19l-38 20c-13 7 -24 13 -35 13
c-16 0 -21 -9 -21 -30v-20h-124v20c0 102 55 139 120 139c31 0 59 -5 92 -23l37 -20c15 -8 24 -11 37 -11c16 0 22 11 22 32v19h123v-19z" />
    <glyph glyph-name="Amacron" unicode="&#x100;" horiz-adv-x="695" 
d="M670 0h-246l-22 154h-110l-23 -154h-244v146l37 4l78 442l-38 6v145h421l108 -593l39 -4v-146zM387 313l-26 176c-5 35 -10 80 -13 113h-3c-3 -33 -8 -77 -13 -113l-26 -176h81zM534 781h-376v119h376v-119z" />
    <glyph glyph-name="Aring" unicode="&#xc5;" horiz-adv-x="695" 
d="M670 0h-246l-22 154h-110l-23 -154h-244v146l37 4l78 442l-38 6v145h421l108 -593l39 -4v-146zM387 313l-26 176c-5 35 -10 80 -13 113h-3c-3 -33 -8 -77 -13 -113l-26 -176h81zM494 888c0 -83 -63 -127 -147 -127s-147 44 -147 127c0 81 63 128 147 128
s147 -46 147 -128zM396 889c0 28 -19 45 -49 45s-49 -17 -49 -45s19 -46 49 -46s49 18 49 46z" />
    <glyph glyph-name="Abreve" unicode="&#x102;" horiz-adv-x="695" 
d="M670 0h-246l-22 154h-110l-23 -154h-244v146l37 4l78 442l-38 6v145h421l108 -593l39 -4v-146zM387 313l-26 176c-5 35 -10 80 -13 113h-3c-3 -33 -8 -77 -13 -113l-26 -176h81zM556 922c-21 -117 -124 -150 -210 -150s-189 33 -210 150h128c9 -45 42 -56 82 -56
s74 11 83 56h127z" />
    <glyph glyph-name="Aogonek" unicode="&#x104;" horiz-adv-x="695" 
d="M670 -187c-38 -12 -94 -22 -150 -22c-93 0 -153 28 -153 95c0 45 32 85 112 114h-55l-22 154h-110l-23 -154h-244v146l37 4l78 442l-38 6v145h421l108 -593l39 -4v-146c-103 -29 -119 -53 -119 -72c0 -17 12 -23 46 -23c26 0 55 3 73 4v-96zM387 313l-26 176
c-5 35 -10 80 -13 113h-3c-3 -33 -8 -77 -13 -113l-26 -176h81z" />
    <glyph glyph-name="AE" unicode="&#xc6;" horiz-adv-x="875" 
d="M844 0h-454v154h-95l-23 -154h-247v145l42 6l76 439l-36 5v148h737v-198h-132l-7 30h-89v-120h210v-155h-210v-132h89l7 31h132v-199zM390 313v289h-40c-4 -33 -9 -77 -14 -110l-26 -179h80z" />
    <glyph glyph-name="AEacute" unicode="&#x1fc;" horiz-adv-x="875" 
d="M844 0h-454v154h-95l-23 -154h-247v145l42 6l76 439l-36 5v148h737v-198h-132l-7 30h-89v-120h210v-155h-210v-132h89l7 31h132v-199zM390 313v289h-40c-4 -33 -9 -77 -14 -110l-26 -179h80zM708 915l-138 -136h-185l101 136h222z" />
    <glyph glyph-name="Cacute" unicode="&#x106;" horiz-adv-x="542" 
d="M514 6c-38 -12 -145 -22 -193 -22c-195 0 -290 73 -290 347v82c0 274 95 346 290 346c48 0 155 -9 193 -22v-198h-133l-8 41h-20c-61 0 -92 -17 -92 -167v-82c0 -150 31 -168 94 -168h18l8 42h133v-199zM526 915l-138 -136h-185l101 136h222z" />
    <glyph glyph-name="Ccircumflex" unicode="&#x108;" horiz-adv-x="542" 
d="M514 6c-38 -12 -145 -22 -193 -22c-195 0 -290 73 -290 347v82c0 274 95 346 290 346c48 0 155 -9 193 -22v-198h-133l-8 41h-20c-61 0 -92 -17 -92 -167v-82c0 -150 31 -168 94 -168h18l8 42h133v-199zM523 781h-169l-56 64l-55 -64h-170l105 136h240z" />
    <glyph glyph-name="Ccaron" unicode="&#x10c;" horiz-adv-x="542" 
d="M514 6c-38 -12 -145 -22 -193 -22c-195 0 -290 73 -290 347v82c0 274 95 346 290 346c48 0 155 -9 193 -22v-198h-133l-8 41h-20c-61 0 -92 -17 -92 -167v-82c0 -150 31 -168 94 -168h18l8 42h133v-199zM529 917l-105 -136h-240l-105 136h170l55 -64l56 64h169z" />
    <glyph glyph-name="Cdotaccent" unicode="&#x10a;" horiz-adv-x="542" 
d="M514 6c-38 -12 -145 -22 -193 -22c-195 0 -290 73 -290 347v82c0 274 95 346 290 346c48 0 155 -9 193 -22v-198h-133l-8 41h-20c-61 0 -92 -17 -92 -167v-82c0 -150 31 -168 94 -168h18l8 42h133v-199zM408 781h-220v128h220v-128z" />
    <glyph glyph-name="Ccedilla" unicode="&#xc7;" horiz-adv-x="542" 
d="M514 6c-38 -12 -145 -22 -193 -22c-195 0 -290 73 -290 347v82c0 274 95 346 290 346c48 0 155 -9 193 -22v-198h-133l-8 41h-20c-61 0 -92 -17 -92 -167v-82c0 -150 31 -168 94 -168h18l8 42h133v-199zM413 -57l-109 -139h-182l79 139h212z" />
    <glyph glyph-name="Dcaron" unicode="&#x10e;" horiz-adv-x="654" 
d="M623 345c0 -266 -88 -359 -326 -359c-85 0 -185 6 -270 15v144l38 6v442l-38 6v144c85 11 184 14 270 14c238 0 326 -92 326 -351v-61zM398 345v61c0 153 -9 179 -84 179c-7 0 -17 0 -27 -1v-425h27c75 0 84 32 84 186zM553 917l-105 -136h-240l-105 136h170l55 -64
l56 64h169z" />
    <glyph glyph-name="Dcroat" unicode="&#x110;" horiz-adv-x="654" 
d="M623 345c0 -266 -87 -359 -326 -359c-85 0 -184 6 -270 15v150l38 6v144h-38v154h38v132l-38 6v150c86 11 185 14 270 14c238 0 326 -92 326 -351v-61zM398 345v61c0 153 -8 179 -83 179c-9 0 -20 0 -28 -1v-129h53v-154h-53v-142h28c74 0 83 32 83 186z" />
    <glyph glyph-name="Eth" unicode="&#xd0;" horiz-adv-x="654" 
d="M623 345c0 -266 -87 -359 -326 -359c-85 0 -184 6 -270 15v150l38 6v144h-38v154h38v132l-38 6v150c86 11 185 14 270 14c238 0 326 -92 326 -351v-61zM398 345v61c0 153 -8 179 -83 179c-9 0 -20 0 -28 -1v-129h53v-154h-53v-142h28c74 0 83 32 83 186z" />
    <glyph glyph-name="Eacute" unicode="&#xc9;" horiz-adv-x="543" 
d="M512 0h-485v145l31 4v444l-31 5v145h485v-198h-133l-6 30h-88v-120h209v-155h-209v-132h87l7 31h133v-199zM495 917l-138 -136h-185l101 136h222z" />
    <glyph glyph-name="Egrave" unicode="&#xc8;" horiz-adv-x="543" 
d="M512 0h-485v145l31 4v444l-31 5v145h485v-198h-133l-6 30h-88v-120h209v-155h-209v-132h87l7 31h133v-199zM391 781h-185l-138 136h222z" />
    <glyph glyph-name="Ecircumflex" unicode="&#xca;" horiz-adv-x="543" 
d="M512 0h-485v145l31 4v444l-31 5v145h485v-198h-133l-6 30h-88v-120h209v-155h-209v-132h87l7 31h133v-199zM506 781h-169l-56 64l-55 -64h-170l105 136h240z" />
    <glyph glyph-name="Edieresis" unicode="&#xcb;" horiz-adv-x="543" 
d="M512 0h-485v145l31 4v444l-31 5v145h485v-198h-133l-6 30h-88v-120h209v-155h-209v-132h87l7 31h133v-199zM476 783h-163v132h163v-132zM246 783v132h-164v-132h164z" />
    <glyph glyph-name="Emacron" unicode="&#x112;" horiz-adv-x="543" 
d="M512 0h-485v145l31 4v444l-31 5v145h485v-198h-133l-6 30h-88v-120h209v-155h-209v-132h87l7 31h133v-199zM468 784h-376v119h376v-119z" />
    <glyph glyph-name="Ecaron" unicode="&#x11a;" horiz-adv-x="543" 
d="M512 0h-485v145l31 4v444l-31 5v145h485v-198h-133l-6 30h-88v-120h209v-155h-209v-132h87l7 31h133v-199zM511 917l-105 -136h-240l-105 136h170l55 -64l56 64h169z" />
    <glyph glyph-name="Ebreve" unicode="&#x114;" horiz-adv-x="543" 
d="M512 0h-485v145l31 4v444l-31 5v145h485v-198h-133l-6 30h-88v-120h209v-155h-209v-132h87l7 31h133v-199zM494 926c-21 -117 -124 -150 -210 -150s-189 33 -210 150h128c9 -45 42 -56 82 -56s74 11 83 56h127z" />
    <glyph glyph-name="Edotaccent" unicode="&#x116;" horiz-adv-x="543" 
d="M512 0h-485v145l31 4v444l-31 5v145h485v-198h-133l-6 30h-88v-120h209v-155h-209v-132h87l7 31h133v-199zM403 784h-220v128h220v-128z" />
    <glyph glyph-name="Eogonek" unicode="&#x118;" horiz-adv-x="543" 
d="M512 -187c-38 -12 -94 -22 -150 -22c-93 0 -153 28 -153 95c0 45 32 85 112 114h-294v145l31 4v444l-31 5v145h485v-198h-133l-6 30h-88v-120h209v-155h-209v-132h87l7 31h133v-199c-103 -29 -119 -53 -119 -72c0 -17 12 -23 46 -23c26 0 55 3 73 4v-96z" />
    <glyph glyph-name="Gcircumflex" unicode="&#x11c;" horiz-adv-x="610" 
d="M577 5c-56 -10 -152 -21 -250 -21c-153 0 -296 40 -296 348v80c0 326 169 347 306 347c86 0 189 -18 234 -30v-189h-133l-8 39c-14 0 -34 1 -48 1c-95 0 -125 -18 -125 -168v-80c0 -139 13 -172 69 -172c12 0 26 0 40 1v111l-43 7v121h254v-395zM548 781h-169l-56 64
l-55 -64h-170l105 136h240z" />
    <glyph glyph-name="Gbreve" unicode="&#x11e;" horiz-adv-x="610" 
d="M577 5c-56 -10 -152 -21 -250 -21c-153 0 -296 40 -296 348v80c0 326 169 347 306 347c86 0 189 -18 234 -30v-189h-133l-8 39c-14 0 -34 1 -48 1c-95 0 -125 -18 -125 -168v-80c0 -139 13 -172 69 -172c12 0 26 0 40 1v111l-43 7v121h254v-395zM536 930
c-21 -117 -124 -150 -210 -150s-189 33 -210 150h128c9 -45 42 -56 82 -56s74 11 83 56h127z" />
    <glyph glyph-name="Gdotaccent" unicode="&#x120;" horiz-adv-x="610" 
d="M577 5c-56 -10 -152 -21 -250 -21c-153 0 -296 40 -296 348v80c0 326 169 347 306 347c86 0 189 -18 234 -30v-189h-133l-8 39c-14 0 -34 1 -48 1c-95 0 -125 -18 -125 -168v-80c0 -139 13 -172 69 -172c12 0 26 0 40 1v111l-43 7v121h254v-395zM439 784h-220v128h220
v-128z" />
    <glyph glyph-name="Gcommaaccent" unicode="&#x122;" horiz-adv-x="610" 
d="M577 5c-56 -10 -152 -21 -250 -21c-153 0 -296 40 -296 348v80c0 326 169 347 306 347c86 0 189 -18 234 -30v-189h-133l-8 39c-14 0 -34 1 -48 1c-95 0 -125 -18 -125 -168v-80c0 -139 13 -172 69 -172c12 0 26 0 40 1v111l-43 7v121h254v-395zM444 -60l-91 -139h-177
l60 139h208z" />
    <glyph glyph-name="Hcircumflex" unicode="&#x124;" horiz-adv-x="715" 
d="M390 743h298v-146l-35 -4v-443l35 -4v-146h-298v146l35 4v143h-135v-143l35 -4v-146h-298v146l35 4v443l-35 4v146h298v-146l-35 -4v-127h135v127l-35 4v146zM582 781h-169l-56 64l-55 -64h-170l105 136h240z" />
    <glyph glyph-name="Hbar" unicode="&#x126;" horiz-adv-x="715" 
d="M702 549h-49v-399l35 -4v-146h-263v293h-135v-293h-263v146l35 4v399h-49v106h49v88h228v-88h135v88h228v-88h49v-106zM425 466v83h-135v-83h135z" />
    <glyph glyph-name="Iacute" unicode="&#xcd;" horiz-adv-x="351" 
d="M325 0h-298v146l35 4v443l-35 4v146h298v-146l-36 -4v-443l36 -4v-146zM383 917l-138 -136h-185l101 136h222z" />
    <glyph glyph-name="Igrave" unicode="&#xcc;" horiz-adv-x="351" 
d="M325 0h-298v146l35 4v443l-35 4v146h298v-146l-36 -4v-443l36 -4v-146zM288 781h-185l-138 136h222z" />
    <glyph glyph-name="Icircumflex" unicode="&#xce;" horiz-adv-x="351" 
d="M325 0h-298v146l35 4v443l-35 4v146h298v-146l-36 -4v-443l36 -4v-146zM400 781h-169l-56 64l-55 -64h-170l105 136h240z" />
    <glyph glyph-name="Idieresis" unicode="&#xcf;" horiz-adv-x="351" 
d="M325 0h-298v146l35 4v443l-35 4v146h298v-146l-36 -4v-443l36 -4v-146zM372 783h-163v132h163v-132zM142 783v132h-164v-132h164z" />
    <glyph glyph-name="Itilde" unicode="&#x128;" horiz-adv-x="351" 
d="M325 0h-298v146l35 4v443l-35 4v146h298v-146l-36 -4v-443l36 -4v-146zM391 917c0 -102 -61 -139 -119 -139c-35 0 -65 4 -94 19l-38 20c-13 7 -24 13 -35 13c-16 0 -21 -9 -21 -30v-20h-124v20c0 102 55 139 120 139c31 0 59 -5 92 -23l37 -20c15 -8 24 -11 37 -11
c16 0 22 11 22 32v19h123v-19z" />
    <glyph glyph-name="Imacron" unicode="&#x12a;" horiz-adv-x="351" 
d="M325 0h-298v146l35 4v443l-35 4v146h298v-146l-36 -4v-443l36 -4v-146zM364 784h-376v119h376v-119z" />
    <glyph glyph-name="Ibreve" unicode="&#x12c;" horiz-adv-x="351" 
d="M325 0h-298v146l35 4v443l-35 4v146h298v-146l-36 -4v-443l36 -4v-146zM384 935c-21 -117 -124 -150 -210 -150s-189 33 -210 150h128c9 -45 42 -56 82 -56s74 11 83 56h127z" />
    <glyph glyph-name="Idotaccent" unicode="&#x130;" horiz-adv-x="351" 
d="M325 0h-298v146l35 4v443l-35 4v146h298v-146l-36 -4v-443l36 -4v-146zM287 784h-220v128h220v-128z" />
    <glyph glyph-name="Iogonek" unicode="&#x12e;" horiz-adv-x="351" 
d="M325 -187c-38 -12 -94 -22 -150 -22c-93 0 -153 28 -153 95c0 45 32 85 112 114h-107v146l35 4v443l-35 4v146h298v-146l-36 -4v-443l36 -4v-146c-103 -29 -119 -53 -119 -72c0 -17 12 -23 46 -23c26 0 55 3 73 4v-96z" />
    <glyph glyph-name="IJ" unicode="&#x132;" horiz-adv-x="686" 
d="M659 597l-35 -4v-610c0 -146 -74 -194 -194 -194c-27 0 -68 4 -105 12v137h37c29 0 35 8 35 39v616l-35 4v146h297v-146zM324 0h-297v146l35 4v443l-35 4v146h297v-146l-35 -4v-443l35 -4v-146z" />
    <glyph glyph-name="Jcircumflex" unicode="&#x134;" horiz-adv-x="351" 
d="M323 597l-35 -4v-609c0 -146 -74 -194 -194 -194c-29 0 -73 4 -105 12v136h37c29 0 35 9 35 40v615l-35 4v146h297v-146zM401 781h-169l-56 64l-55 -64h-170l105 136h240z" />
    <glyph glyph-name="Kcommaaccent" unicode="&#x136;" horiz-adv-x="678" 
d="M319 0h-293v146l31 4v443l-31 4v146h293v-146l-35 -4v-184l134 334h233v-146l-46 -4l-100 -218l100 -225l45 -4v-146h-244l-122 331v-181l35 -4v-146zM457 -60l-91 -139h-177l60 139h208z" />
    <glyph glyph-name="Lacute" unicode="&#x139;" horiz-adv-x="508" 
d="M483 0h-456v146l31 4v443l-31 4v146h293v-146l-35 -4v-420h57l8 41h133v-214zM440 917l-138 -136h-185l101 136h222z" />
    <glyph glyph-name="Lcaron" unicode="&#x13d;" horiz-adv-x="629" 
d="M489 0h-461v149l30 3v440l-30 4v147h298v-147l-35 -4v-415h54l8 42h136v-219zM610 758l-94 -269h-161l64 269h191z" />
    <glyph glyph-name="Ldot" unicode="&#x13f;" horiz-adv-x="568" 
d="M523 324h-171v149h171v-149zM483 0h-455v146l30 3v446l-30 4v144h293v-144l-35 -4v-422h56l9 42h132v-215z" />
    <glyph glyph-name="Lcommaaccent" unicode="&#x13b;" horiz-adv-x="508" 
d="M368 -61l-90 -139h-177l59 139h208zM483 0h-455v146l30 3v446l-30 4v144h293v-144l-35 -4v-422h56l9 42h132v-215z" />
    <glyph glyph-name="Lslash" unicode="&#x141;" horiz-adv-x="508" 
d="M483 0h-455v145l30 4v101l-37 -29v116l37 28v229l-30 5v144h293v-144l-35 -5v-92l80 61v-115l-80 -61v-214h56l8 42h133v-215z" />
    <glyph glyph-name="Nacute" unicode="&#x143;" horiz-adv-x="692" 
d="M393 743h276v-146l-35 -4v-593h-216l-122 273c-11 25 -26 62 -36 90h-2c3 -33 5 -76 5 -108v-105l35 -4v-146h-271v146l31 4v443l-31 4v146h240l124 -266c16 -35 30 -68 40 -97h2c-3 27 -5 86 -5 120v93l-35 4v146zM565 916l-138 -136h-185l101 136h222z" />
    <glyph glyph-name="Ntilde" unicode="&#xd1;" horiz-adv-x="692" 
d="M393 743h276v-146l-35 -4v-593h-216l-122 273c-11 25 -26 62 -36 90h-2c3 -33 5 -76 5 -108v-105l35 -4v-146h-271v146l31 4v443l-31 4v146h240l124 -266c16 -35 30 -68 40 -97h2c-3 27 -5 86 -5 120v93l-35 4v146zM565 918c0 -102 -61 -139 -119 -139
c-35 0 -65 4 -94 19l-38 20c-13 7 -24 13 -35 13c-16 0 -21 -9 -21 -30v-20h-124v20c0 102 55 139 120 139c31 0 59 -5 92 -23l37 -20c15 -8 24 -11 37 -11c16 0 22 11 22 32v19h123v-19z" />
    <glyph glyph-name="Ncaron" unicode="&#x147;" horiz-adv-x="692" 
d="M393 743h276v-146l-35 -4v-593h-216l-122 273c-11 25 -26 62 -36 90h-2c3 -33 5 -76 5 -108v-105l35 -4v-146h-271v146l31 4v443l-31 4v146h240l124 -266c16 -35 30 -68 40 -97h2c-3 27 -5 86 -5 120v93l-35 4v146zM574 917l-105 -136h-240l-105 136h170l55 -64l56 64
h169z" />
    <glyph glyph-name="Ncommaaccent" unicode="&#x145;" horiz-adv-x="692" 
d="M393 743h276v-146l-35 -4v-593h-216l-122 273c-11 25 -26 62 -36 90h-2c3 -33 5 -76 5 -108v-105l35 -4v-146h-271v146l31 4v443l-31 4v146h240l124 -266c16 -35 30 -68 40 -97h2c-3 27 -5 86 -5 120v93l-35 4v146zM464 -61l-91 -139h-177l60 139h208z" />
    <glyph glyph-name="Eng" unicode="&#x14a;" horiz-adv-x="692" 
d="M672 599l-35 -5v-611c0 -146 -74 -194 -194 -194c-29 0 -73 4 -105 12v143h37c29 0 35 8 35 37v40l-114 253c-11 24 -26 61 -36 89h-2c3 -33 5 -76 5 -108v-255h-236v145l31 4v445l-31 5v144h242l125 -251c16 -39 30 -70 40 -100h2c-3 28 -4 85 -4 120v231h240v-144z" />
    <glyph glyph-name="Oacute" unicode="&#xd3;" horiz-adv-x="639" 
d="M608 334c0 -282 -122 -350 -288 -350s-289 68 -289 350v75c0 286 127 350 289 350s288 -64 288 -350v-75zM383 335v73c0 138 -11 173 -63 173s-63 -35 -63 -173v-73c0 -140 12 -172 63 -172c50 0 63 32 63 172zM531 917l-138 -136h-185l101 136h222z" />
    <glyph glyph-name="Ograve" unicode="&#xd2;" horiz-adv-x="639" 
d="M608 334c0 -282 -122 -350 -288 -350s-289 68 -289 350v75c0 286 127 350 289 350s288 -64 288 -350v-75zM383 335v73c0 138 -11 173 -63 173s-63 -35 -63 -173v-73c0 -140 12 -172 63 -172c50 0 63 32 63 172zM437 781h-185l-138 136h222z" />
    <glyph glyph-name="Ocircumflex" unicode="&#xd4;" horiz-adv-x="639" 
d="M608 334c0 -282 -122 -350 -288 -350s-289 68 -289 350v75c0 286 127 350 289 350s288 -64 288 -350v-75zM383 335v73c0 138 -11 173 -63 173s-63 -35 -63 -173v-73c0 -140 12 -172 63 -172c50 0 63 32 63 172zM544 781h-169l-56 64l-55 -64h-170l105 136h240z" />
    <glyph glyph-name="Odieresis" unicode="&#xd6;" horiz-adv-x="639" 
d="M608 334c0 -282 -122 -350 -288 -350s-289 68 -289 350v75c0 286 127 350 289 350s288 -64 288 -350v-75zM383 335v73c0 138 -11 173 -63 173s-63 -35 -63 -173v-73c0 -140 12 -172 63 -172c50 0 63 32 63 172zM518 783h-163v132h163v-132zM288 783v132h-164v-132h164z
" />
    <glyph glyph-name="Otilde" unicode="&#xd5;" horiz-adv-x="639" 
d="M608 334c0 -282 -122 -350 -288 -350s-289 68 -289 350v75c0 286 127 350 289 350s288 -64 288 -350v-75zM383 335v73c0 138 -11 173 -63 173s-63 -35 -63 -173v-73c0 -140 12 -172 63 -172c50 0 63 32 63 172zM535 918c0 -102 -61 -139 -119 -139c-35 0 -65 4 -94 19
l-38 20c-13 7 -24 13 -35 13c-16 0 -21 -9 -21 -30v-20h-124v20c0 102 55 139 120 139c31 0 59 -5 92 -23l37 -20c15 -8 24 -11 37 -11c16 0 22 11 22 32v19h123v-19z" />
    <glyph glyph-name="Omacron" unicode="&#x14c;" horiz-adv-x="639" 
d="M608 334c0 -282 -122 -350 -288 -350s-289 68 -289 350v75c0 286 127 350 289 350s288 -64 288 -350v-75zM383 335v73c0 138 -11 173 -63 173s-63 -35 -63 -173v-73c0 -140 12 -172 63 -172c50 0 63 32 63 172zM508 784h-376v119h376v-119z" />
    <glyph glyph-name="Obreve" unicode="&#x14e;" horiz-adv-x="639" 
d="M608 334c0 -282 -122 -350 -288 -350s-289 68 -289 350v75c0 286 127 350 289 350s288 -64 288 -350v-75zM383 335v73c0 138 -11 173 -63 173s-63 -35 -63 -173v-73c0 -140 12 -172 63 -172c50 0 63 32 63 172zM530 930c-21 -117 -124 -150 -210 -150s-189 33 -210 150
h128c9 -45 42 -56 82 -56s74 11 83 56h127z" />
    <glyph glyph-name="Ohungarumlaut" unicode="&#x150;" horiz-adv-x="639" 
d="M608 334c0 -282 -122 -350 -288 -350s-289 68 -289 350v75c0 286 127 350 289 350s288 -64 288 -350v-75zM383 335v73c0 138 -11 173 -63 173s-63 -35 -63 -173v-73c0 -140 12 -172 63 -172c50 0 63 32 63 172zM680 913l-137 -137h-173l102 137h208zM405 913h-209
l-101 -137h172z" />
    <glyph glyph-name="Oslash" unicode="&#xd8;" horiz-adv-x="639" 
d="M609 333c0 -278 -126 -349 -289 -349c-58 0 -111 9 -155 33l-27 -45h-121l70 116c-35 53 -56 132 -56 245v77c0 283 130 350 289 350c58 0 112 -10 157 -35l30 47h120l-74 -120c35 -54 56 -131 56 -242v-77zM383 334v75c0 139 -12 172 -63 172s-63 -33 -63 -172v-75
c0 -139 13 -171 63 -171c51 0 63 32 63 171z" />
    <glyph glyph-name="Oslashacute" unicode="&#x1fe;" horiz-adv-x="639" 
d="M539 917l-138 -136h-185l101 136h222zM609 333c0 -278 -126 -349 -289 -349c-58 0 -111 9 -155 33l-27 -45h-121l70 116c-35 53 -56 132 -56 245v77c0 283 130 350 289 350c58 0 112 -10 157 -35l30 47h120l-74 -120c35 -54 56 -131 56 -242v-77zM383 334v75
c0 139 -12 172 -63 172s-63 -33 -63 -172v-75c0 -139 13 -171 63 -171c51 0 63 32 63 171z" />
    <glyph glyph-name="OE" unicode="&#x152;" horiz-adv-x="852" 
d="M822 0h-362c-42 -8 -108 -16 -150 -16c-153 0 -281 60 -281 347v80c0 286 127 347 281 347c41 0 106 -6 150 -15h362v-198h-133l-7 30h-88v-120h210v-155h-210v-132h88l7 31h133v-199zM372 164v413c-19 2 -32 4 -49 4c-56 0 -68 -33 -68 -172v-77c0 -138 12 -171 68 -171
c15 0 26 0 49 3z" />
    <glyph glyph-name="Racute" unicode="&#x154;" horiz-adv-x="656" 
d="M316 0h-289v146l35 4v443l-35 4v146c82 7 173 12 269 12c165 0 312 -37 312 -250v-8c0 -99 -31 -159 -82 -199l58 -147l47 -5v-146h-210l-95 253h-45v-103l35 -4v-146zM387 495v7c0 63 -13 84 -73 84c-13 0 -20 0 -33 -1v-177h36c59 0 70 31 70 87zM546 917l-138 -136
h-185l101 136h222z" />
    <glyph glyph-name="Rcaron" unicode="&#x158;" horiz-adv-x="656" 
d="M316 0h-289v146l35 4v443l-35 4v146c82 7 173 12 269 12c165 0 312 -37 312 -250v-8c0 -99 -31 -159 -82 -199l58 -147l47 -5v-146h-210l-95 253h-45v-103l35 -4v-146zM387 495v7c0 63 -13 84 -73 84c-13 0 -20 0 -33 -1v-177h36c59 0 70 31 70 87zM553 917l-105 -136
h-240l-105 136h170l55 -64l56 64h169z" />
    <glyph glyph-name="Rcommaaccent" unicode="&#x156;" horiz-adv-x="656" 
d="M316 0h-289v146l35 4v443l-35 4v146c82 7 173 12 269 12c165 0 312 -37 312 -250v-8c0 -99 -31 -159 -82 -199l58 -147l47 -5v-146h-210l-95 253h-45v-103l35 -4v-146zM387 495v7c0 63 -13 84 -73 84c-13 0 -20 0 -33 -1v-177h36c59 0 70 31 70 87zM456 -61l-91 -139
h-177l60 139h208z" />
    <glyph glyph-name="Sacute" unicode="&#x15a;" horiz-adv-x="563" 
d="M535 215c0 -152 -96 -231 -253 -231c-100 0 -188 13 -238 27v181h132l9 -42c19 -1 37 -1 55 -1c49 0 65 20 65 57c0 31 -11 50 -55 77l-81 51c-87 55 -142 105 -142 216c0 140 88 209 274 209c89 0 177 -16 223 -28v-176h-133l-9 40h-59c-46 0 -69 -11 -69 -47
c0 -24 13 -45 52 -67l70 -39c106 -59 159 -117 159 -227zM504 917l-138 -136h-185l101 136h222z" />
    <glyph glyph-name="Scircumflex" unicode="&#x15c;" horiz-adv-x="563" 
d="M535 215c0 -152 -96 -231 -253 -231c-100 0 -188 13 -238 27v181h132l9 -42c19 -1 37 -1 55 -1c49 0 65 20 65 57c0 31 -11 50 -55 77l-81 51c-87 55 -142 105 -142 216c0 140 88 209 274 209c89 0 177 -16 223 -28v-176h-133l-9 40h-59c-46 0 -69 -11 -69 -47
c0 -24 13 -45 52 -67l70 -39c106 -59 159 -117 159 -227zM513 781h-169l-56 64l-55 -64h-170l105 136h240z" />
    <glyph glyph-name="Scaron" unicode="&#x160;" horiz-adv-x="563" 
d="M535 215c0 -152 -96 -231 -253 -231c-100 0 -188 13 -238 27v181h132l9 -42c19 -1 37 -1 55 -1c49 0 65 20 65 57c0 31 -11 50 -55 77l-81 51c-87 55 -142 105 -142 216c0 140 88 209 274 209c89 0 177 -16 223 -28v-176h-133l-9 40h-59c-46 0 -69 -11 -69 -47
c0 -24 13 -45 52 -67l70 -39c106 -59 159 -117 159 -227zM511 917l-105 -136h-240l-105 136h170l55 -64l56 64h169z" />
    <glyph glyph-name="Scedilla" unicode="&#x15e;" horiz-adv-x="563" 
d="M535 215c0 -152 -96 -231 -253 -231c-100 0 -188 13 -238 27v181h132l9 -42c19 -1 37 -1 55 -1c49 0 65 20 65 57c0 31 -11 50 -55 77l-81 51c-87 55 -142 105 -142 216c0 140 88 209 274 209c89 0 177 -16 223 -28v-176h-133l-9 40h-59c-46 0 -69 -11 -69 -47
c0 -24 13 -45 52 -67l70 -39c106 -59 159 -117 159 -227zM405 -61l-109 -139h-182l79 139h212z" />
    <glyph glyph-name="Scommaaccent" unicode="&#x218;" horiz-adv-x="563" 
d="M535 215c0 -152 -96 -231 -253 -231c-100 0 -188 13 -238 27v181h132l9 -42c19 -1 37 -1 55 -1c49 0 65 20 65 57c0 31 -11 50 -55 77l-81 51c-87 55 -142 105 -142 216c0 140 88 209 274 209c89 0 177 -16 223 -28v-176h-133l-9 40h-59c-46 0 -69 -11 -69 -47
c0 -24 13 -45 52 -67l70 -39c106 -59 159 -117 159 -227zM403 -60l-91 -139h-177l60 139h208z" />
    <glyph glyph-name="Tcaron" unicode="&#x164;" horiz-adv-x="616" 
d="M590 544h-128l-8 34h-32v-429l35 -4v-145h-298v145l36 4v429h-33l-8 -34h-128v199h564v-199zM533 917l-105 -136h-240l-105 136h170l55 -64l56 64h169z" />
    <glyph glyph-name="Tcommaaccent" unicode="&#x162;" horiz-adv-x="616" 
d="M590 544h-128l-8 34h-32v-429l35 -4v-145h-298v145l36 4v429h-33l-8 -34h-128v199h564v-199zM421 -60l-91 -139h-177l60 139h208z" />
    <glyph glyph-name="uni021A" unicode="&#x21a;" horiz-adv-x="617" 
d="M590 544h-128l-8 34h-32v-429l35 -4v-145h-298v145l36 4v429h-33l-8 -34h-128v199h564v-199zM421 -57l-91 -139h-177l60 139h208z" />
    <glyph glyph-name="Tbar" unicode="&#x166;" horiz-adv-x="616" 
d="M556 328h-134v-172l36 -5v-151h-299v151l36 5v172h-135v142h135v108h-32l-8 -34h-129v199h565v-199h-128l-9 34h-32v-108h134v-142z" />
    <glyph glyph-name="Uacute" unicode="&#xda;" horiz-adv-x="694" 
d="M371 743h295v-146l-35 -4v-320c0 -146 -70 -289 -285 -289c-214 0 -283 143 -283 289v320l-36 4v146h296v-146l-35 -4v-317c0 -90 7 -120 58 -120c53 0 60 31 60 120v317l-35 4v146zM569 917l-138 -136h-185l101 136h222z" />
    <glyph glyph-name="Ugrave" unicode="&#xd9;" horiz-adv-x="694" 
d="M371 743h295v-146l-35 -4v-320c0 -146 -70 -289 -285 -289c-214 0 -283 143 -283 289v320l-36 4v146h296v-146l-35 -4v-317c0 -90 7 -120 58 -120c53 0 60 31 60 120v317l-35 4v146zM457 781h-185l-138 136h222z" />
    <glyph glyph-name="Ucircumflex" unicode="&#xdb;" horiz-adv-x="694" 
d="M371 743h295v-146l-35 -4v-320c0 -146 -70 -289 -285 -289c-214 0 -283 143 -283 289v320l-36 4v146h296v-146l-35 -4v-317c0 -90 7 -120 58 -120c53 0 60 31 60 120v317l-35 4v146zM571 781h-169l-56 64l-55 -64h-170l105 136h240z" />
    <glyph glyph-name="Udieresis" unicode="&#xdc;" horiz-adv-x="694" 
d="M371 743h295v-146l-35 -4v-320c0 -146 -70 -289 -285 -289c-214 0 -283 143 -283 289v320l-36 4v146h296v-146l-35 -4v-317c0 -90 7 -120 58 -120c53 0 60 31 60 120v317l-35 4v146zM543 783h-163v132h163v-132zM313 783v132h-164v-132h164z" />
    <glyph glyph-name="Utilde" unicode="&#x168;" horiz-adv-x="694" 
d="M371 743h295v-146l-35 -4v-320c0 -146 -70 -289 -285 -289c-214 0 -283 143 -283 289v320l-36 4v146h296v-146l-35 -4v-317c0 -90 7 -120 58 -120c53 0 60 31 60 120v317l-35 4v146zM562 917c0 -102 -61 -139 -119 -139c-35 0 -65 4 -94 19l-38 20c-13 7 -24 13 -35 13
c-16 0 -21 -9 -21 -30v-20h-124v20c0 102 55 139 120 139c31 0 59 -5 92 -23l37 -20c15 -8 24 -11 37 -11c16 0 22 11 22 32v19h123v-19z" />
    <glyph glyph-name="Umacron" unicode="&#x16a;" horiz-adv-x="694" 
d="M371 743h295v-146l-35 -4v-320c0 -146 -70 -289 -285 -289c-214 0 -283 143 -283 289v320l-36 4v146h296v-146l-35 -4v-317c0 -90 7 -120 58 -120c53 0 60 31 60 120v317l-35 4v146zM535 784h-376v119h376v-119z" />
    <glyph glyph-name="Uring" unicode="&#x16e;" horiz-adv-x="694" 
d="M371 743h295v-146l-35 -4v-320c0 -146 -70 -289 -285 -289c-214 0 -283 143 -283 289v320l-36 4v146h296v-146l-35 -4v-317c0 -90 7 -120 58 -120c53 0 60 31 60 120v317l-35 4v146zM494 893c0 -83 -63 -127 -147 -127s-147 44 -147 127c0 81 63 128 147 128
s147 -46 147 -128zM396 894c0 28 -19 45 -49 45s-49 -17 -49 -45s19 -46 49 -46s49 18 49 46z" />
    <glyph glyph-name="Ubreve" unicode="&#x16c;" horiz-adv-x="694" 
d="M371 743h295v-146l-35 -4v-320c0 -146 -70 -289 -285 -289c-214 0 -283 143 -283 289v320l-36 4v146h296v-146l-35 -4v-317c0 -90 7 -120 58 -120c53 0 60 31 60 120v317l-35 4v146zM556 930c-21 -117 -124 -150 -210 -150s-189 33 -210 150h128c9 -45 42 -56 82 -56
s74 11 83 56h127z" />
    <glyph glyph-name="Uhungarumlaut" unicode="&#x170;" horiz-adv-x="694" 
d="M371 743h295v-146l-35 -4v-320c0 -146 -70 -289 -285 -289c-214 0 -283 143 -283 289v320l-36 4v146h296v-146l-35 -4v-317c0 -90 7 -120 58 -120c53 0 60 31 60 120v317l-35 4v146zM701 913l-137 -137h-173l102 137h208zM426 913h-209l-101 -137h172z" />
    <glyph glyph-name="Uogonek" unicode="&#x172;" horiz-adv-x="694" 
d="M371 743h295v-146l-35 -4v-320c0 -126 -52 -249 -204 -281c-38 -20 -45 -41 -45 -54c0 -22 12 -33 46 -33c26 0 55 3 73 4v-96c-38 -12 -94 -22 -150 -22c-93 0 -153 27 -153 105c0 39 21 71 63 97c-148 32 -198 155 -198 280v320l-36 4v146h296v-146l-35 -4v-317
c0 -90 7 -120 58 -120c53 0 60 31 60 120v317l-35 4v146z" />
    <glyph glyph-name="Wacute" unicode="&#x1e82;" horiz-adv-x="897" 
d="M590 743h284v-145l-37 -6l-73 -592h-247l-51 242c-7 33 -13 80 -16 111h-3c-3 -31 -10 -78 -17 -111l-49 -242h-248l-73 592l-37 6v145h285v-146l-31 -4l15 -172c4 -42 7 -94 8 -130h2c6 35 12 85 20 121l29 134h196l28 -134c7 -36 15 -87 20 -121h2c1 36 5 88 8 130
l14 172l-29 4v146zM676 917l-138 -136h-185l101 136h222z" />
    <glyph glyph-name="Wgrave" unicode="&#x1e80;" horiz-adv-x="897" 
d="M590 743h284v-145l-37 -6l-73 -592h-247l-51 242c-7 33 -13 80 -16 111h-3c-3 -31 -10 -78 -17 -111l-49 -242h-248l-73 592l-37 6v145h285v-146l-31 -4l15 -172c4 -42 7 -94 8 -130h2c6 35 12 85 20 121l29 134h196l28 -134c7 -36 15 -87 20 -121h2c1 36 5 88 8 130
l14 172l-29 4v146zM552 781h-185l-138 136h222z" />
    <glyph glyph-name="Wcircumflex" unicode="&#x174;" horiz-adv-x="897" 
d="M590 743h284v-145l-37 -6l-73 -592h-247l-51 242c-7 33 -13 80 -16 111h-3c-3 -31 -10 -78 -17 -111l-49 -242h-248l-73 592l-37 6v145h285v-146l-31 -4l15 -172c4 -42 7 -94 8 -130h2c6 35 12 85 20 121l29 134h196l28 -134c7 -36 15 -87 20 -121h2c1 36 5 88 8 130
l14 172l-29 4v146zM674 781h-169l-56 64l-55 -64h-170l105 136h240z" />
    <glyph glyph-name="Wdieresis" unicode="&#x1e84;" horiz-adv-x="897" 
d="M590 743h284v-145l-37 -6l-73 -592h-247l-51 242c-7 33 -13 80 -16 111h-3c-3 -31 -10 -78 -17 -111l-49 -242h-248l-73 592l-37 6v145h285v-146l-31 -4l15 -172c4 -42 7 -94 8 -130h2c6 35 12 85 20 121l29 134h196l28 -134c7 -36 15 -87 20 -121h2c1 36 5 88 8 130
l14 172l-29 4v146zM646 783h-163v132h163v-132zM416 783v132h-164v-132h164z" />
    <glyph glyph-name="Yacute" unicode="&#xdd;" horiz-adv-x="619" 
d="M595 598l-46 -7l-129 -321v-124l36 -6v-140h-295v140l38 6v124l-129 321l-45 7v145h212l45 -162c10 -35 19 -83 26 -116h3c7 33 17 82 26 116l46 162h212v-145zM525 917l-138 -136h-185l101 136h222z" />
    <glyph glyph-name="Ygrave" unicode="&#x1ef2;" horiz-adv-x="619" 
d="M595 598l-46 -7l-129 -321v-124l36 -6v-140h-295v140l38 6v124l-129 321l-45 7v145h212l45 -162c10 -35 19 -83 26 -116h3c7 33 17 82 26 116l46 162h212v-145zM421 781h-185l-138 136h222z" />
    <glyph glyph-name="Ycircumflex" unicode="&#x176;" horiz-adv-x="619" 
d="M595 598l-46 -7l-129 -321v-124l36 -6v-140h-295v140l38 6v124l-129 321l-45 7v145h212l45 -162c10 -35 19 -83 26 -116h3c7 33 17 82 26 116l46 162h212v-145zM535 781h-169l-56 64l-55 -64h-170l105 136h240z" />
    <glyph glyph-name="Ydieresis" unicode="&#x178;" horiz-adv-x="619" 
d="M595 598l-46 -7l-129 -321v-124l36 -6v-140h-295v140l38 6v124l-129 321l-45 7v145h212l45 -162c10 -35 19 -83 26 -116h3c7 33 17 82 26 116l46 162h212v-145zM508 786h-163v132h163v-132zM278 786v132h-164v-132h164z" />
    <glyph glyph-name="Zacute" unicode="&#x179;" horiz-adv-x="534" 
d="M507 0h-480v163l214 414h-76l-10 -35h-125v201h474v-169l-214 -408h82l10 37h125v-203zM494 917l-138 -136h-185l101 136h222z" />
    <glyph glyph-name="Zcaron" unicode="&#x17d;" horiz-adv-x="534" 
d="M507 0h-480v163l214 414h-76l-10 -35h-125v201h474v-169l-214 -408h82l10 37h125v-203zM504 917l-105 -136h-240l-105 136h170l55 -64l56 64h169z" />
    <glyph glyph-name="Zdotaccent" unicode="&#x17b;" horiz-adv-x="534" 
d="M507 0h-480v163l214 414h-76l-10 -35h-125v201h474v-169l-214 -408h82l10 37h125v-203zM386 784h-220v128h220v-128z" />
    <glyph glyph-name="Thorn" unicode="&#xde;" horiz-adv-x="638" 
d="M611 407c0 -209 -143 -254 -284 -254h-45v-153h-255v145l35 6v456l-35 5v145h255v-87c15 1 29 1 41 1c153 0 288 -42 288 -253v-11zM391 408v11c-1 63 -16 82 -74 82c-11 0 -23 0 -35 -1v-176c11 0 24 -1 37 -1c55 0 72 27 72 85z" />
    <glyph glyph-name="aacute" unicode="&#xe1;" horiz-adv-x="562" 
d="M536 0h-222v32c-31 -22 -87 -44 -143 -44c-113 0 -143 74 -143 163v31c0 147 109 160 246 160h16v34c0 54 -8 63 -62 63h-26l-8 -35h-131v151c32 12 126 39 218 39c144 0 221 -46 221 -218v-228l34 -4v-144zM302 130v116h-25c-36 0 -50 -7 -50 -59v-27
c0 -31 10 -41 30 -41c17 0 33 6 45 11zM497 778l-138 -136h-185l101 136h222z" />
    <glyph glyph-name="agrave" unicode="&#xe0;" horiz-adv-x="562" 
d="M536 0h-222v32c-31 -22 -87 -44 -143 -44c-113 0 -143 74 -143 163v31c0 147 109 160 246 160h16v34c0 54 -8 63 -62 63h-26l-8 -35h-131v151c32 12 126 39 218 39c144 0 221 -46 221 -218v-228l34 -4v-144zM302 130v116h-25c-36 0 -50 -7 -50 -59v-27
c0 -31 10 -41 30 -41c17 0 33 6 45 11zM404 642h-185l-138 136h222z" />
    <glyph glyph-name="acircumflex" unicode="&#xe2;" horiz-adv-x="562" 
d="M536 0h-222v32c-31 -22 -87 -44 -143 -44c-113 0 -143 74 -143 163v31c0 147 109 160 246 160h16v34c0 54 -8 63 -62 63h-26l-8 -35h-131v151c32 12 126 39 218 39c144 0 221 -46 221 -218v-228l34 -4v-144zM302 130v116h-25c-36 0 -50 -7 -50 -59v-27
c0 -31 10 -41 30 -41c17 0 33 6 45 11zM505 642h-169l-56 64l-55 -64h-170l105 136h240z" />
    <glyph glyph-name="adieresis" unicode="&#xe4;" horiz-adv-x="562" 
d="M536 0h-222v32c-31 -22 -87 -44 -143 -44c-113 0 -143 74 -143 163v31c0 147 109 160 246 160h16v34c0 54 -8 63 -62 63h-26l-8 -35h-131v151c32 12 126 39 218 39c144 0 221 -46 221 -218v-228l34 -4v-144zM302 130v116h-25c-36 0 -50 -7 -50 -59v-27
c0 -31 10 -41 30 -41c17 0 33 6 45 11zM475 643h-163v132h163v-132zM245 643v132h-164v-132h164z" />
    <glyph glyph-name="atilde" unicode="&#xe3;" horiz-adv-x="562" 
d="M536 0h-222v32c-31 -22 -87 -44 -143 -44c-113 0 -143 74 -143 163v31c0 147 109 160 246 160h16v34c0 54 -8 63 -62 63h-26l-8 -35h-131v151c32 12 126 39 218 39c144 0 221 -46 221 -218v-228l34 -4v-144zM302 130v116h-25c-36 0 -50 -7 -50 -59v-27
c0 -31 10 -41 30 -41c17 0 33 6 45 11zM504 776c0 -102 -61 -139 -119 -139c-35 0 -65 4 -94 19l-38 20c-13 7 -24 13 -35 13c-16 0 -21 -9 -21 -30v-20h-124v20c0 102 55 139 120 139c31 0 59 -5 92 -23l37 -20c15 -8 24 -11 37 -11c16 0 22 11 22 32v19h123v-19z" />
    <glyph glyph-name="amacron" unicode="&#x101;" horiz-adv-x="562" 
d="M536 0h-222v32c-31 -22 -87 -44 -143 -44c-113 0 -143 74 -143 163v31c0 147 109 160 246 160h16v34c0 54 -8 63 -62 63h-26l-8 -35h-131v151c32 12 126 39 218 39c144 0 221 -46 221 -218v-228l34 -4v-144zM302 130v116h-25c-36 0 -50 -7 -50 -59v-27
c0 -31 10 -41 30 -41c17 0 33 6 45 11zM482 651h-376v119h376v-119z" />
    <glyph glyph-name="aring" unicode="&#xe5;" horiz-adv-x="562" 
d="M536 0h-222v32c-31 -22 -87 -44 -143 -44c-113 0 -143 74 -143 163v31c0 147 109 160 246 160h16v34c0 54 -8 63 -62 63h-26l-8 -35h-131v151c32 12 126 39 218 39c144 0 221 -46 221 -218v-228l34 -4v-144zM302 130v116h-25c-36 0 -50 -7 -50 -59v-27
c0 -31 10 -41 30 -41c17 0 33 6 45 11zM440 754c0 -83 -63 -127 -147 -127s-147 44 -147 127c0 81 63 128 147 128s147 -46 147 -128zM342 755c0 28 -19 45 -49 45s-49 -17 -49 -45s19 -46 49 -46s49 18 49 46z" />
    <glyph glyph-name="abreve" unicode="&#x103;" horiz-adv-x="562" 
d="M536 0h-222v32c-31 -22 -87 -44 -143 -44c-113 0 -143 74 -143 163v31c0 147 109 160 246 160h16v34c0 54 -8 63 -62 63h-26l-8 -35h-131v151c32 12 126 39 218 39c144 0 221 -46 221 -218v-228l34 -4v-144zM302 130v116h-25c-36 0 -50 -7 -50 -59v-27
c0 -31 10 -41 30 -41c17 0 33 6 45 11zM504 794c-21 -117 -124 -150 -210 -150s-189 33 -210 150h128c9 -45 42 -56 82 -56s74 11 83 56h127z" />
    <glyph glyph-name="aogonek" unicode="&#x105;" horiz-adv-x="562" 
d="M536 -187c-38 -12 -94 -22 -150 -22c-93 0 -153 28 -153 95c0 45 32 85 112 114h-31v32c-31 -22 -87 -44 -143 -44c-113 0 -143 74 -143 163v31c0 147 109 160 246 160h16v34c0 54 -8 63 -62 63h-26l-8 -35h-131v151c32 12 126 39 218 39c144 0 221 -46 221 -218v-228
l34 -4v-144c-103 -29 -119 -53 -119 -72c0 -17 12 -23 46 -23c26 0 55 3 73 4v-96zM302 130v116h-25c-36 0 -50 -7 -50 -59v-27c0 -31 10 -41 30 -41c17 0 33 6 45 11z" />
    <glyph glyph-name="ae" unicode="&#xe6;" horiz-adv-x="827" 
d="M792 235h-296v-7c0 -72 6 -92 86 -92c46 0 130 2 184 7v-129c-36 -11 -125 -26 -211 -26c-82 0 -149 15 -191 59c-64 -45 -123 -58 -193 -58c-113 0 -144 73 -144 162v31c0 147 110 160 246 160h17v34c0 54 -9 63 -56 63h-32l-8 -35h-131v151c32 12 125 39 218 39
c58 0 100 -9 132 -27c34 18 76 27 129 27c197 0 250 -125 250 -271v-88zM589 342v6c0 75 -9 100 -47 100s-46 -25 -46 -100v-6h93zM301 130v116h-24c-37 0 -50 -7 -50 -59v-27c0 -31 10 -41 30 -41c17 0 32 6 44 11z" />
    <glyph glyph-name="aeacute" unicode="&#x1fd;" horiz-adv-x="827" 
d="M792 235h-296v-7c0 -72 6 -92 86 -92c46 0 130 2 184 7v-129c-36 -11 -125 -26 -211 -26c-82 0 -149 15 -191 59c-64 -45 -123 -58 -193 -58c-113 0 -144 73 -144 162v31c0 147 110 160 246 160h17v34c0 54 -9 63 -56 63h-32l-8 -35h-131v151c32 12 125 39 218 39
c58 0 100 -9 132 -27c34 18 76 27 129 27c197 0 250 -125 250 -271v-88zM589 342v6c0 75 -9 100 -47 100s-46 -25 -46 -100v-6h93zM301 130v116h-24c-37 0 -50 -7 -50 -59v-27c0 -31 10 -41 30 -41c17 0 32 6 44 11zM645 778l-138 -136h-185l101 136h222z" />
    <glyph glyph-name="cacute" unicode="&#x107;" horiz-adv-x="480" 
d="M453 13c-40 -11 -106 -25 -183 -25c-169 0 -239 82 -239 268v70c0 188 70 268 239 268c87 0 159 -17 183 -25v-168h-127l-7 32h-15c-48 0 -62 -16 -62 -107v-70c0 -92 14 -108 65 -108c36 0 88 3 146 6v-141zM479 778l-138 -136h-185l101 136h222z" />
    <glyph glyph-name="ccircumflex" unicode="&#x109;" horiz-adv-x="480" 
d="M453 13c-40 -11 -106 -25 -183 -25c-169 0 -239 82 -239 268v70c0 188 70 268 239 268c87 0 159 -17 183 -25v-168h-127l-7 32h-15c-48 0 -62 -16 -62 -107v-70c0 -92 14 -108 65 -108c36 0 88 3 146 6v-141zM486 642h-169l-56 64l-55 -64h-170l105 136h240z" />
    <glyph glyph-name="ccaron" unicode="&#x10d;" horiz-adv-x="480" 
d="M453 13c-40 -11 -106 -25 -183 -25c-169 0 -239 82 -239 268v70c0 188 70 268 239 268c87 0 159 -17 183 -25v-168h-127l-7 32h-15c-48 0 -62 -16 -62 -107v-70c0 -92 14 -108 65 -108c36 0 88 3 146 6v-141zM482 778l-105 -136h-240l-105 136h170l55 -64l56 64h169z" />
    <glyph glyph-name="cdotaccent" unicode="&#x10b;" horiz-adv-x="480" 
d="M453 13c-40 -11 -106 -25 -183 -25c-169 0 -239 82 -239 268v70c0 188 70 268 239 268c87 0 159 -17 183 -25v-168h-127l-7 32h-15c-48 0 -62 -16 -62 -107v-70c0 -92 14 -108 65 -108c36 0 88 3 146 6v-141zM369 651h-220v128h220v-128z" />
    <glyph glyph-name="ccedilla" unicode="&#xe7;" horiz-adv-x="480" 
d="M453 13c-40 -11 -106 -25 -183 -25c-169 0 -239 82 -239 268v70c0 188 70 268 239 268c87 0 159 -17 183 -25v-168h-127l-7 32h-15c-48 0 -62 -16 -62 -107v-70c0 -92 14 -108 65 -108c36 0 88 3 146 6v-141zM385 -57l-109 -139h-182l79 139h212z" />
    <glyph glyph-name="dcaron" unicode="&#x10f;" horiz-adv-x="790" 
d="M810 779l-85 -267h-157l57 267h185zM573 0h-223v27c-35 -25 -80 -39 -136 -39c-135 0 -184 100 -184 268v72c0 182 71 266 242 266c24 0 40 -1 56 -3v57l-37 5v126h248v-631l34 -4v-144zM333 157v275c-12 2 -23 3 -34 3c-45 0 -57 -13 -57 -107v-72c0 -88 6 -107 49 -107
c15 0 31 3 42 8z" />
    <glyph glyph-name="dcroat" unicode="&#x111;" horiz-adv-x="613" 
d="M574 0h-223v27c-36 -25 -80 -39 -136 -39c-134 0 -184 100 -184 269v70c0 183 70 267 242 267c23 0 40 -2 55 -3v50h-129v90h129v48h212v-48h47v-90h-47v-493l34 -4v-144zM334 157v275c-12 1 -26 3 -34 3c-45 0 -57 -13 -57 -108v-70c0 -89 6 -108 48 -108
c15 0 32 3 43 8z" />
    <glyph glyph-name="eacute" unicode="&#xe9;" horiz-adv-x="566" 
d="M535 235h-295v-7c0 -72 6 -84 86 -84c45 0 130 2 184 7v-136c-36 -11 -117 -27 -201 -27c-176 0 -278 56 -278 256v86c0 190 99 264 255 264c197 0 249 -125 249 -271v-88zM333 342v6c0 75 -9 100 -47 100s-46 -25 -46 -100v-6h93zM494 778l-138 -136h-185l101 136h222z
" />
    <glyph glyph-name="egrave" unicode="&#xe8;" horiz-adv-x="566" 
d="M535 235h-295v-7c0 -72 6 -84 86 -84c45 0 130 2 184 7v-136c-36 -11 -117 -27 -201 -27c-176 0 -278 56 -278 256v86c0 190 99 264 255 264c197 0 249 -125 249 -271v-88zM333 342v6c0 75 -9 100 -47 100s-46 -25 -46 -100v-6h93zM411 642h-185l-138 136h222z" />
    <glyph glyph-name="ecircumflex" unicode="&#xea;" horiz-adv-x="566" 
d="M535 235h-295v-7c0 -72 6 -84 86 -84c45 0 130 2 184 7v-136c-36 -11 -117 -27 -201 -27c-176 0 -278 56 -278 256v86c0 190 99 264 255 264c197 0 249 -125 249 -271v-88zM333 342v6c0 75 -9 100 -47 100s-46 -25 -46 -100v-6h93zM512 642h-169l-56 64l-55 -64h-170
l105 136h240z" />
    <glyph glyph-name="edieresis" unicode="&#xeb;" horiz-adv-x="566" 
d="M535 235h-295v-7c0 -72 6 -84 86 -84c45 0 130 2 184 7v-136c-36 -11 -117 -27 -201 -27c-176 0 -278 56 -278 256v86c0 190 99 264 255 264c197 0 249 -125 249 -271v-88zM333 342v6c0 75 -9 100 -47 100s-46 -25 -46 -100v-6h93zM484 643h-163v132h163v-132zM254 643
v132h-164v-132h164z" />
    <glyph glyph-name="emacron" unicode="&#x113;" horiz-adv-x="566" 
d="M535 235h-295v-7c0 -72 6 -84 86 -84c45 0 130 2 184 7v-136c-36 -11 -117 -27 -201 -27c-176 0 -278 56 -278 256v86c0 190 99 264 255 264c197 0 249 -125 249 -271v-88zM333 342v6c0 75 -9 100 -47 100s-46 -25 -46 -100v-6h93zM478 650h-376v119h376v-119z" />
    <glyph glyph-name="ecaron" unicode="&#x11b;" horiz-adv-x="566" 
d="M535 235h-295v-7c0 -72 6 -84 86 -84c45 0 130 2 184 7v-136c-36 -11 -117 -27 -201 -27c-176 0 -278 56 -278 256v86c0 190 99 264 255 264c197 0 249 -125 249 -271v-88zM333 342v6c0 75 -9 100 -47 100s-46 -25 -46 -100v-6h93zM516 778l-105 -136h-240l-105 136h170
l55 -64l56 64h169z" />
    <glyph glyph-name="ebreve" unicode="&#x115;" horiz-adv-x="566" 
d="M535 235h-295v-7c0 -72 6 -84 86 -84c45 0 130 2 184 7v-136c-36 -11 -117 -27 -201 -27c-176 0 -278 56 -278 256v86c0 190 99 264 255 264c197 0 249 -125 249 -271v-88zM333 342v6c0 75 -9 100 -47 100s-46 -25 -46 -100v-6h93zM501 788c-21 -117 -124 -150 -210 -150
s-189 33 -210 150h128c9 -45 42 -56 82 -56s74 11 83 56h127z" />
    <glyph glyph-name="edotaccent" unicode="&#x117;" horiz-adv-x="566" 
d="M535 235h-295v-7c0 -72 6 -84 86 -84c45 0 130 2 184 7v-136c-36 -11 -117 -27 -201 -27c-176 0 -278 56 -278 256v86c0 190 99 264 255 264c197 0 249 -125 249 -271v-88zM333 342v6c0 75 -9 100 -47 100s-46 -25 -46 -100v-6h93zM400 652h-220v128h220v-128z" />
    <glyph glyph-name="eogonek" unicode="&#x119;" horiz-adv-x="566" 
d="M535 235h-295v-7c0 -72 6 -84 86 -84c45 0 130 2 184 7v-136c-102 -31 -119 -57 -119 -79s12 -31 46 -31c26 0 55 3 73 4v-96c-38 -12 -94 -22 -150 -22c-93 0 -153 25 -153 103c0 36 19 69 62 95c-152 9 -238 70 -238 255v86c0 190 99 264 255 264
c197 0 249 -125 249 -271v-88zM333 342v6c0 75 -9 100 -47 100s-46 -25 -46 -100v-6h93z" />
    <glyph glyph-name="gcircumflex" unicode="&#x11d;" horiz-adv-x="579" 
d="M546 -22c0 -142 -102 -189 -265 -189c-153 0 -254 50 -254 175c0 40 16 82 48 113c-32 23 -43 56 -43 88c0 33 15 69 53 90c-28 28 -47 73 -47 141c0 108 32 198 249 198h267v-101l-39 -14c9 -14 19 -47 19 -83c0 -157 -111 -202 -248 -202c-24 0 -57 3 -79 8
c-6 -6 -12 -15 -12 -25c0 -19 9 -22 43 -22h45c199 0 263 -44 263 -177zM342 -35c0 52 -6 61 -60 61h-50c-9 -13 -11 -29 -11 -61c0 -45 20 -58 61 -58c42 0 60 13 60 58zM331 396c0 48 -7 70 -45 70s-44 -22 -44 -70c0 -51 8 -73 44 -73c38 0 45 22 45 73zM511 642h-169
l-56 64l-55 -64h-170l105 136h240z" />
    <glyph glyph-name="gbreve" unicode="&#x11f;" horiz-adv-x="579" 
d="M546 -22c0 -142 -102 -189 -265 -189c-153 0 -254 50 -254 175c0 40 16 82 48 113c-32 23 -43 56 -43 88c0 33 15 69 53 90c-28 28 -47 73 -47 141c0 108 32 198 249 198h267v-101l-39 -14c9 -14 19 -47 19 -83c0 -157 -111 -202 -248 -202c-24 0 -57 3 -79 8
c-6 -6 -12 -15 -12 -25c0 -19 9 -22 43 -22h45c199 0 263 -44 263 -177zM342 -35c0 52 -6 61 -60 61h-50c-9 -13 -11 -29 -11 -61c0 -45 20 -58 61 -58c42 0 60 13 60 58zM331 396c0 48 -7 70 -45 70s-44 -22 -44 -70c0 -51 8 -73 44 -73c38 0 45 22 45 73zM496 788
c-21 -117 -124 -150 -210 -150s-189 33 -210 150h128c9 -45 42 -56 82 -56s74 11 83 56h127z" />
    <glyph glyph-name="gdotaccent" unicode="&#x121;" horiz-adv-x="579" 
d="M546 -22c0 -142 -102 -189 -265 -189c-153 0 -254 50 -254 175c0 40 16 82 48 113c-32 23 -43 56 -43 88c0 33 15 69 53 90c-28 28 -47 73 -47 141c0 108 32 198 249 198h267v-101l-39 -14c9 -14 19 -47 19 -83c0 -157 -111 -202 -248 -202c-24 0 -57 3 -79 8
c-6 -6 -12 -15 -12 -25c0 -19 9 -22 43 -22h45c199 0 263 -44 263 -177zM342 -35c0 52 -6 61 -60 61h-50c-9 -13 -11 -29 -11 -61c0 -45 20 -58 61 -58c42 0 60 13 60 58zM331 396c0 48 -7 70 -45 70s-44 -22 -44 -70c0 -51 8 -73 44 -73c38 0 45 22 45 73zM396 652h-220
v128h220v-128z" />
    <glyph glyph-name="gcommaaccent" unicode="&#x123;" horiz-adv-x="579" 
d="M546 -22c0 -142 -102 -189 -265 -189c-153 0 -254 50 -254 175c0 40 16 82 48 113c-32 23 -43 56 -43 88c0 33 15 69 53 90c-28 28 -47 73 -47 141c0 108 32 198 249 198h267v-101l-39 -14c9 -14 19 -47 19 -83c0 -157 -111 -202 -248 -202c-24 0 -57 3 -79 8
c-6 -6 -12 -15 -12 -25c0 -19 9 -22 43 -22h45c199 0 263 -44 263 -177zM342 -35c0 52 -6 61 -60 61h-50c-9 -13 -11 -29 -11 -61c0 -45 20 -58 61 -58c42 0 60 13 60 58zM331 396c0 48 -7 70 -45 70s-44 -22 -44 -70c0 -51 8 -73 44 -73c38 0 45 22 45 73zM463 788
l-59 -140h-208l90 140h177z" />
    <glyph glyph-name="hcircumflex" unicode="&#x125;" horiz-adv-x="629" 
d="M272 0h-246v144l34 4v483l-34 5v143h246v-218c40 23 92 33 129 33c156 0 168 -98 168 -210v-236l33 -4v-144h-246v383c0 40 -6 51 -32 51c-19 0 -38 -7 -52 -15v-419zM543 802h-169l-56 64l-55 -64h-170l105 136h240z" />
    <glyph glyph-name="hbar" unicode="&#x127;" horiz-adv-x="635" 
d="M278 0h-245v144l34 5v484h-41v103h41v43h211v-43h130v-103h-130v-72c41 23 92 33 130 33c156 0 168 -98 168 -210v-235l33 -5v-144h-246v383c0 40 -6 51 -33 51c-18 0 -37 -7 -52 -15v-419z" />
    <glyph glyph-name="iacute" unicode="&#xed;" horiz-adv-x="332" 
d="M372 778l-138 -136h-185l101 136h222zM305 0h-279v144l34 5v283l-34 6v144h246v-433l33 -5v-144z" />
    <glyph glyph-name="igrave" unicode="&#xec;" horiz-adv-x="332" 
d="M270 642h-185l-138 136h222zM305 0h-279v144l34 5v283l-34 6v144h246v-433l33 -5v-144z" />
    <glyph glyph-name="icircumflex" unicode="&#xee;" horiz-adv-x="332" 
d="M305 0h-279v144l34 5v283l-34 6v144h246v-433l33 -5v-144zM388 642h-169l-56 64l-55 -64h-170l105 136h240z" />
    <glyph glyph-name="idieresis" unicode="&#xef;" horiz-adv-x="332" 
d="M362 643h-163v132h163v-132zM132 643v132h-164v-132h164zM305 0h-279v144l34 5v283l-34 6v144h246v-433l33 -5v-144z" />
    <glyph glyph-name="itilde" unicode="&#x129;" horiz-adv-x="332" 
d="M377 777c0 -102 -61 -139 -119 -139c-35 0 -65 4 -94 19l-38 20c-13 7 -24 13 -35 13c-16 0 -21 -9 -21 -30v-20h-124v20c0 102 55 139 120 139c31 0 59 -5 92 -23l37 -20c15 -8 24 -11 37 -11c16 0 22 11 22 32v19h123v-19zM304 0h-279v144l34 5v283l-34 6v144h246v-433
l33 -5v-144z" />
    <glyph glyph-name="imacron" unicode="&#x12b;" horiz-adv-x="332" 
d="M350 651h-376v119h376v-119zM304 0h-279v144l34 5v283l-34 6v144h246v-433l33 -5v-144z" />
    <glyph glyph-name="ibreve" unicode="&#x12d;" horiz-adv-x="332" 
d="M374 788c-21 -117 -124 -150 -210 -150s-189 33 -210 150h128c9 -45 42 -56 82 -56s74 11 83 56h127zM305 0h-279v144l34 5v283l-34 6v144h246v-433l33 -5v-144z" />
    <glyph glyph-name="iogonek" unicode="&#x12f;" horiz-adv-x="332" 
d="M312 -187c-38 -12 -94 -22 -150 -22c-93 0 -153 28 -153 95c0 45 27 85 106 114h-89v144l34 4v285l-34 5v144h246v-434l33 -4v-144c-103 -29 -112 -53 -112 -72c0 -17 12 -23 46 -23c26 0 55 3 73 4v-96zM276 648h-221v131h221v-131z" />
    <glyph glyph-name="dotlessi" unicode="&#x131;" horiz-adv-x="332" 
d="M305 0h-279v144l34 5v283l-34 6v144h246v-433l33 -5v-144z" />
    <glyph glyph-name="ij" unicode="&#x133;" horiz-adv-x="624" 
d="M306 0h-279v144l34 4v285l-34 5v144h246v-434l33 -4v-144zM277 648h-221v131h221v-131zM580 -22c0 -144 -61 -189 -192 -189c-46 0 -87 5 -110 11v135c20 -1 34 -1 50 -1c33 0 40 7 40 44v456l-34 5v143h246v-604zM584 648h-221v131h221v-131z" />
    <glyph glyph-name="jcircumflex" unicode="&#x135;" horiz-adv-x="322" 
d="M272 -22c0 -142 -60 -189 -190 -189c-48 0 -88 5 -112 12v134h50c33 0 40 7 40 43v448l-34 6v150h246v-604zM390 642h-169l-56 64l-55 -64h-170l105 136h240z" />
    <glyph glyph-name="kcommaaccent" unicode="&#x137;" horiz-adv-x="604" 
d="M577 0h-215l-92 251v-251h-244v144l34 4v484l-34 4v143h244v-443l95 246h210v-144l-53 -7l-60 -132l67 -147l48 -8v-144zM421 -57l-91 -139h-177l60 139h208z" />
    <glyph glyph-name="kgreenlandic" unicode="&#x138;" horiz-adv-x="604" 
d="M585 0h-222l-92 251v-251h-244v144l33 4v286l-33 4v144h244v-246l95 246h217v-144l-61 -7l-60 -132l68 -147l55 -8v-144z" />
    <glyph glyph-name="lacute" unicode="&#x13a;" horiz-adv-x="331" 
d="M305 0h-279v144l34 4v483l-34 5v143h245v-631l34 -4v-144zM372 940l-138 -136h-185l101 136h222z" />
    <glyph glyph-name="lcaron" unicode="&#x13e;" horiz-adv-x="516" 
d="M536 779l-84 -267h-158l58 267h184zM305 0h-279v144l34 4v483l-34 5v143h245v-631l34 -4v-144z" />
    <glyph glyph-name="ldot" unicode="&#x140;" horiz-adv-x="535" 
d="M509 280h-200v176h200v-176zM305 0h-279v144l34 4v483l-34 5v143h245v-631l34 -4v-144z" />
    <glyph glyph-name="lcommaaccent" unicode="&#x13c;" horiz-adv-x="331" 
d="M305 0h-279v144l34 4v483l-34 5v143h245v-631l34 -4v-144zM277 -57l-91 -139h-177l60 139h208z" />
    <glyph glyph-name="lslash" unicode="&#x142;" horiz-adv-x="331" 
d="M13 214v138l47 37v242l-34 5v143h245v-221l47 38v-138l-47 -38v-272l34 -4v-144h-279v144l34 4v103z" />
    <glyph glyph-name="nacute" unicode="&#x144;" horiz-adv-x="629" 
d="M272 0h-246v144l34 4v286l-34 5v143h231v-43c38 32 94 55 153 55c155 0 159 -102 159 -210v-236l33 -4v-144h-246v384c0 39 -7 50 -32 50c-17 0 -37 -7 -52 -16v-418zM520 778l-138 -136h-185l101 136h222z" />
    <glyph glyph-name="ntilde" unicode="&#xf1;" horiz-adv-x="629" 
d="M272 0h-246v144l34 4v286l-34 5v143h231v-43c38 32 94 55 153 55c155 0 159 -102 159 -210v-236l33 -4v-144h-246v384c0 39 -7 50 -32 50c-17 0 -37 -7 -52 -16v-418zM524 777c0 -102 -61 -139 -119 -139c-35 0 -65 4 -94 19l-38 20c-13 7 -24 13 -35 13
c-16 0 -21 -9 -21 -30v-20h-124v20c0 102 55 139 120 139c31 0 59 -5 92 -23l37 -20c15 -8 24 -11 37 -11c16 0 22 11 22 32v19h123v-19z" />
    <glyph glyph-name="ncaron" unicode="&#x148;" horiz-adv-x="629" 
d="M272 0h-246v144l34 4v286l-34 5v143h231v-43c38 32 94 55 153 55c155 0 159 -102 159 -210v-236l33 -4v-144h-246v384c0 39 -7 50 -32 50c-17 0 -37 -7 -52 -16v-418zM537 778l-105 -136h-240l-105 136h170l55 -64l56 64h169z" />
    <glyph glyph-name="ncommaaccent" unicode="&#x146;" horiz-adv-x="629" 
d="M272 0h-246v144l34 4v286l-34 5v143h231v-43c38 32 94 55 153 55c155 0 159 -102 159 -210v-236l33 -4v-144h-246v384c0 39 -7 50 -32 50c-17 0 -37 -7 -52 -16v-418zM438 -57l-91 -139h-177l60 139h208z" />
    <glyph glyph-name="napostrophe" unicode="&#x149;" horiz-adv-x="812" 
d="M455 0h-246v144l34 4v286l-34 5v143h231v-43c38 32 94 55 153 55c155 0 159 -102 159 -210v-236l33 -4v-144h-246v384c0 39 -7 50 -32 50c-17 0 -37 -7 -52 -16v-418zM253 779l-95 -268h-147l56 268h186z" />
    <glyph glyph-name="eng" unicode="&#x14b;" horiz-adv-x="619" 
d="M271 0h-245v144l34 5v283l-34 6v144h230v-43c38 32 93 55 156 55c152 0 157 -102 157 -210v-406c0 -142 -62 -189 -191 -189c-44 0 -87 5 -112 12v134h51c31 0 39 7 39 43v406c0 39 -7 50 -33 50c-15 0 -34 -6 -52 -16v-418z" />
    <glyph glyph-name="oacute" unicode="&#xf3;" horiz-adv-x="571" 
d="M540 255c0 -207 -100 -267 -255 -267c-154 0 -254 60 -254 267v71c0 208 100 268 254 268c155 0 255 -60 255 -267v-72zM330 255v72c0 88 -12 107 -45 107s-45 -19 -45 -108v-71c0 -89 12 -108 45 -108s45 19 45 108zM491 778l-138 -136h-185l101 136h222z" />
    <glyph glyph-name="ograve" unicode="&#xf2;" horiz-adv-x="571" 
d="M540 255c0 -207 -100 -267 -255 -267c-154 0 -254 60 -254 267v71c0 208 100 268 254 268c155 0 255 -60 255 -267v-72zM330 255v72c0 88 -12 107 -45 107s-45 -19 -45 -108v-71c0 -89 12 -108 45 -108s45 19 45 108zM402 642h-185l-138 136h222z" />
    <glyph glyph-name="ocircumflex" unicode="&#xf4;" horiz-adv-x="571" 
d="M540 255c0 -207 -100 -267 -255 -267c-154 0 -254 60 -254 267v71c0 208 100 268 254 268c155 0 255 -60 255 -267v-72zM330 255v72c0 88 -12 107 -45 107s-45 -19 -45 -108v-71c0 -89 12 -108 45 -108s45 19 45 108zM510 642h-169l-56 64l-55 -64h-170l105 136h240z" />
    <glyph glyph-name="odieresis" unicode="&#xf6;" horiz-adv-x="571" 
d="M540 254c0 -207 -100 -267 -255 -267c-154 0 -254 60 -254 267v71c0 208 100 268 254 268c155 0 255 -60 255 -267v-72zM330 254v72c0 88 -12 107 -45 107s-45 -19 -45 -108v-71c0 -89 12 -108 45 -108s45 19 45 108zM486 642h-163v132h163v-132zM256 642v132h-164v-132
h164z" />
    <glyph glyph-name="otilde" unicode="&#xf5;" horiz-adv-x="571" 
d="M539 255c0 -207 -100 -267 -255 -267c-154 0 -254 60 -254 267v71c0 208 100 268 254 268c155 0 255 -60 255 -267v-72zM329 255v72c0 88 -12 107 -45 107s-45 -19 -45 -108v-71c0 -89 12 -108 45 -108s45 19 45 108zM502 776c0 -102 -61 -139 -119 -139
c-35 0 -65 4 -94 19l-38 20c-13 7 -24 13 -35 13c-16 0 -21 -9 -21 -30v-20h-124v20c0 102 55 139 120 139c31 0 59 -5 92 -23l37 -20c15 -8 24 -11 37 -11c16 0 22 11 22 32v19h123v-19z" />
    <glyph glyph-name="omacron" unicode="&#x14d;" horiz-adv-x="571" 
d="M540 255c0 -207 -100 -267 -255 -267c-154 0 -254 60 -254 267v71c0 208 100 268 254 268c155 0 255 -60 255 -267v-72zM330 255v72c0 88 -12 107 -45 107s-45 -19 -45 -108v-71c0 -89 12 -108 45 -108s45 19 45 108zM479 651h-376v119h376v-119z" />
    <glyph glyph-name="obreve" unicode="&#x14f;" horiz-adv-x="571" 
d="M540 255c0 -207 -100 -267 -255 -267c-154 0 -254 60 -254 267v71c0 208 100 268 254 268c155 0 255 -60 255 -267v-72zM330 255v72c0 88 -12 107 -45 107s-45 -19 -45 -108v-71c0 -89 12 -108 45 -108s45 19 45 108zM500 788c-21 -117 -124 -150 -210 -150
s-189 33 -210 150h128c9 -45 42 -56 82 -56s74 11 83 56h127z" />
    <glyph glyph-name="ohungarumlaut" unicode="&#x151;" horiz-adv-x="571" 
d="M540 255c0 -207 -100 -267 -255 -267c-154 0 -254 60 -254 267v71c0 208 100 268 254 268c155 0 255 -60 255 -267v-72zM330 255v72c0 88 -12 107 -45 107s-45 -19 -45 -108v-71c0 -89 12 -108 45 -108s45 19 45 108zM644 778l-137 -137h-173l102 137h208zM369 778h-209
l-101 -137h172z" />
    <glyph glyph-name="oslash" unicode="&#xf8;" horiz-adv-x="571" 
d="M540 255c0 -203 -100 -267 -255 -267c-41 0 -77 5 -109 15l-23 -36h-129l62 93c-35 42 -55 104 -55 195v71c0 204 100 268 254 268c42 0 79 -6 112 -17l24 39h130l-65 -98c34 -42 54 -103 54 -192v-71zM329 255v71c0 89 -11 108 -44 108c-34 0 -45 -19 -45 -108v-71
c0 -89 11 -108 45 -108c33 0 44 19 44 108z" />
    <glyph glyph-name="oslashacute" unicode="&#x1ff;" horiz-adv-x="571" 
d="M497 778l-138 -136h-185l101 136h222zM540 255c0 -203 -100 -267 -255 -267c-41 0 -77 5 -109 15l-23 -36h-129l62 93c-35 42 -55 104 -55 195v71c0 204 100 268 254 268c42 0 79 -6 112 -17l24 39h130l-65 -98c34 -42 54 -103 54 -192v-71zM329 255v71
c0 89 -11 108 -44 108c-34 0 -45 -19 -45 -108v-71c0 -89 11 -108 45 -108c33 0 44 19 44 108z" />
    <glyph glyph-name="oe" unicode="&#x153;" horiz-adv-x="860" 
d="M832 235h-295v-7c0 -72 6 -92 86 -92c46 0 130 2 184 7v-129c-36 -11 -125 -26 -211 -26c-69 0 -125 14 -162 42c-41 -29 -90 -42 -152 -42c-154 0 -254 60 -254 267v71c0 208 100 268 254 268c61 0 113 -12 151 -41c38 29 89 41 150 41c197 0 249 -125 249 -271v-88z
M629 342v6c0 75 -9 100 -46 100s-46 -24 -46 -95v-11h92zM326 255v72c0 88 -11 108 -44 108c-34 0 -45 -20 -45 -109v-71c0 -89 11 -108 45 -108c33 0 44 19 44 108z" />
    <glyph glyph-name="racute" unicode="&#x155;" horiz-adv-x="419" 
d="M404 421c-45 0 -90 -3 -132 -8v-265l33 -4v-144h-279v144l34 4v286l-34 5v143h226v-42c51 51 114 54 152 54v-173zM442 778l-138 -136h-185l101 136h222z" />
    <glyph glyph-name="rcaron" unicode="&#x159;" horiz-adv-x="419" 
d="M404 421c-45 0 -90 -3 -132 -8v-265l33 -4v-144h-279v144l34 4v286l-34 5v143h226v-42c51 51 114 54 152 54v-173zM442 778l-105 -136h-240l-105 136h170l55 -64l56 64h169z" />
    <glyph glyph-name="rcommaaccent" unicode="&#x157;" horiz-adv-x="419" 
d="M404 421c-45 0 -90 -3 -132 -8v-265l33 -4v-144h-279v144l34 4v286l-34 5v143h226v-42c51 51 114 54 152 54v-173zM311 -57l-91 -139h-177l60 139h208z" />
    <glyph glyph-name="sacute" unicode="&#x15b;" horiz-adv-x="496" 
d="M467 168c0 -128 -93 -180 -242 -180c-66 0 -153 12 -193 23v151h133l7 -31c17 -1 24 -1 31 -1c40 0 53 10 53 38c0 21 -13 38 -59 63l-36 20c-79 44 -134 87 -134 175c0 135 93 168 223 168c74 0 161 -11 206 -27v-144h-132l-9 29c-19 1 -24 1 -34 1
c-30 0 -43 -7 -43 -28c0 -19 9 -35 52 -59l36 -20c89 -50 141 -91 141 -178zM461 778l-138 -136h-185l101 136h222z" />
    <glyph glyph-name="scircumflex" unicode="&#x15d;" horiz-adv-x="496" 
d="M467 168c0 -128 -93 -180 -242 -180c-66 0 -153 12 -193 23v151h133l7 -31c17 -1 24 -1 31 -1c40 0 53 10 53 38c0 21 -13 38 -59 63l-36 20c-79 44 -134 87 -134 175c0 135 93 168 223 168c74 0 161 -11 206 -27v-144h-132l-9 29c-19 1 -24 1 -34 1
c-30 0 -43 -7 -43 -28c0 -19 9 -35 52 -59l36 -20c89 -50 141 -91 141 -178zM478 642h-169l-56 64l-55 -64h-170l105 136h240z" />
    <glyph glyph-name="scaron" unicode="&#x161;" horiz-adv-x="496" 
d="M467 168c0 -128 -93 -180 -242 -180c-66 0 -153 12 -193 23v151h133l7 -31c17 -1 24 -1 31 -1c40 0 53 10 53 38c0 21 -13 38 -59 63l-36 20c-79 44 -134 87 -134 175c0 135 93 168 223 168c74 0 161 -11 206 -27v-144h-132l-9 29c-19 1 -24 1 -34 1
c-30 0 -43 -7 -43 -28c0 -19 9 -35 52 -59l36 -20c89 -50 141 -91 141 -178zM471 778l-105 -136h-240l-105 136h170l55 -64l56 64h169z" />
    <glyph glyph-name="scedilla" unicode="&#x15f;" horiz-adv-x="496" 
d="M467 168c0 -128 -93 -180 -242 -180c-66 0 -153 12 -193 23v151h133l7 -31c17 -1 24 -1 31 -1c40 0 53 10 53 38c0 21 -13 38 -59 63l-36 20c-79 44 -134 87 -134 175c0 135 93 168 223 168c74 0 161 -11 206 -27v-144h-132l-9 29c-19 1 -24 1 -34 1
c-30 0 -43 -7 -43 -28c0 -19 9 -35 52 -59l36 -20c89 -50 141 -91 141 -178zM371 -57l-109 -139h-182l79 139h212z" />
    <glyph glyph-name="scommaaccent" unicode="&#x219;" horiz-adv-x="496" 
d="M467 168c0 -128 -93 -180 -242 -180c-66 0 -153 12 -193 23v151h133l7 -31c17 -1 24 -1 31 -1c40 0 53 10 53 38c0 21 -13 38 -59 63l-36 20c-79 44 -134 87 -134 175c0 135 93 168 223 168c74 0 161 -11 206 -27v-144h-132l-9 29c-19 1 -24 1 -34 1
c-30 0 -43 -7 -43 -28c0 -19 9 -35 52 -59l36 -20c89 -50 141 -91 141 -178zM359 -57l-91 -139h-177l60 139h208z" />
    <glyph glyph-name="germandbls" unicode="&#xdf;" horiz-adv-x="636" 
d="M608 218c0 -141 -57 -230 -210 -230c-32 0 -62 4 -85 8v158h20c56 0 64 23 64 70v15c0 59 -6 89 -64 89h-20v133h20c45 0 60 20 60 82v9c0 41 -11 68 -60 68c-50 0 -63 -26 -63 -81v-539h-245v149l34 6v384c0 138 55 247 274 247c227 0 266 -120 266 -228v-9
c0 -58 -20 -115 -76 -151c70 -38 85 -110 85 -164v-16z" />
    <glyph glyph-name="tcaron" unicode="&#x165;" horiz-adv-x="422" 
d="M478 781l-53 -169h-100l26 169h127zM395 4c-14 -5 -70 -16 -129 -16c-132 0 -169 72 -169 183v265l-72 10v136h72v127h211v-127h87v-146h-87v-265c0 -32 1 -42 32 -42c17 0 46 2 55 2v-127z" />
    <glyph glyph-name="tcommaaccent" unicode="&#x163;" horiz-adv-x="422" 
d="M395 4c-14 -5 -70 -16 -129 -16c-132 0 -169 72 -169 183v265l-72 10v136h72v127h211v-127h87v-146h-87v-265c0 -32 1 -42 32 -42c17 0 46 2 55 2v-127zM350 -57l-91 -139h-177l60 139h208z" />
    <glyph glyph-name="uni021B" unicode="&#x21b;" horiz-adv-x="406" 
d="M395 4c-14 -5 -70 -16 -129 -16c-132 0 -169 72 -169 183v265l-72 10v136h72v127h211v-127h87v-146h-87v-265c0 -32 1 -42 32 -42c17 0 46 2 55 2v-127zM350 -57l-91 -139h-177l60 139h208z" />
    <glyph glyph-name="tbar" unicode="&#x167;" horiz-adv-x="422" 
d="M396 264h-87v-93c0 -33 1 -44 32 -44c17 0 44 2 54 2v-125c-14 -5 -69 -16 -128 -16c-132 0 -169 72 -169 183v93l-72 10v119h72v59l-72 10v120h72v127h211v-127h87v-130h-87v-59h87v-129z" />
    <glyph glyph-name="uacute" unicode="&#xfa;" horiz-adv-x="629" 
d="M356 582h213v-434l33 -5v-143h-231v43c-35 -29 -90 -55 -162 -55c-141 0 -149 106 -149 210v237l-34 4v143h246v-384c0 -39 7 -50 33 -50c16 0 36 7 51 16v418zM518 778l-138 -136h-185l101 136h222z" />
    <glyph glyph-name="ugrave" unicode="&#xf9;" horiz-adv-x="629" 
d="M356 582h213v-434l33 -5v-143h-231v43c-35 -29 -90 -55 -162 -55c-141 0 -149 106 -149 210v237l-34 4v143h246v-384c0 -39 7 -50 33 -50c16 0 36 7 51 16v418zM428 642h-185l-138 136h222z" />
    <glyph glyph-name="ucircumflex" unicode="&#xfb;" horiz-adv-x="629" 
d="M356 582h213v-434l33 -5v-143h-231v43c-35 -29 -90 -55 -162 -55c-141 0 -149 106 -149 210v237l-34 4v143h246v-384c0 -39 7 -50 33 -50c16 0 36 7 51 16v418zM538 642h-169l-56 64l-55 -64h-170l105 136h240z" />
    <glyph glyph-name="udieresis" unicode="&#xfc;" horiz-adv-x="629" 
d="M356 582h213v-434l33 -5v-143h-231v43c-35 -29 -90 -55 -162 -55c-141 0 -149 106 -149 210v237l-34 4v143h246v-384c0 -39 7 -50 33 -50c16 0 36 7 51 16v418zM511 643h-163v132h163v-132zM281 643v132h-164v-132h164z" />
    <glyph glyph-name="utilde" unicode="&#x169;" horiz-adv-x="629" 
d="M356 582h213v-434l33 -5v-143h-231v43c-35 -29 -90 -55 -162 -55c-141 0 -149 106 -149 210v237l-34 4v143h246v-384c0 -39 7 -50 33 -50c16 0 36 7 51 16v418zM529 778c0 -102 -61 -139 -119 -139c-35 0 -65 4 -94 19l-38 20c-13 7 -24 13 -35 13c-16 0 -21 -9 -21 -30
v-20h-124v20c0 102 55 139 120 139c31 0 59 -5 92 -23l37 -20c15 -8 24 -11 37 -11c16 0 22 11 22 32v19h123v-19z" />
    <glyph glyph-name="umacron" unicode="&#x16b;" horiz-adv-x="629" 
d="M356 582h213v-434l33 -5v-143h-231v43c-35 -29 -90 -55 -162 -55c-141 0 -149 106 -149 210v237l-34 4v143h246v-384c0 -39 7 -50 33 -50c16 0 36 7 51 16v418zM501 651h-376v119h376v-119z" />
    <glyph glyph-name="uring" unicode="&#x16f;" horiz-adv-x="629" 
d="M356 582h213v-434l33 -5v-143h-231v43c-35 -29 -90 -55 -162 -55c-141 0 -149 106 -149 210v237l-34 4v143h246v-384c0 -39 7 -50 33 -50c16 0 36 7 51 16v418zM460 752c0 -83 -63 -127 -147 -127s-147 44 -147 127c0 81 63 128 147 128s147 -46 147 -128zM362 753
c0 28 -19 45 -49 45s-49 -17 -49 -45s19 -46 49 -46s49 18 49 46z" />
    <glyph glyph-name="ubreve" unicode="&#x16d;" horiz-adv-x="629" 
d="M356 582h213v-434l33 -5v-143h-231v43c-35 -29 -90 -55 -162 -55c-141 0 -149 106 -149 210v237l-34 4v143h246v-384c0 -39 7 -50 33 -50c16 0 36 7 51 16v418zM524 788c-21 -117 -124 -150 -210 -150s-189 33 -210 150h128c9 -45 42 -56 82 -56s74 11 83 56h127z" />
    <glyph glyph-name="uhungarumlaut" unicode="&#x171;" horiz-adv-x="629" 
d="M356 582h213v-434l33 -5v-143h-231v43c-35 -29 -90 -55 -162 -55c-141 0 -149 106 -149 210v237l-34 4v143h246v-384c0 -39 7 -50 33 -50c16 0 36 7 51 16v418zM664 778l-137 -137h-173l102 137h208zM389 778h-209l-101 -137h172z" />
    <glyph glyph-name="uogonek" unicode="&#x173;" horiz-adv-x="629" 
d="M602 -187c-38 -12 -94 -22 -150 -22c-93 0 -153 28 -153 95c0 45 32 85 112 114h-40v43c-35 -29 -90 -55 -162 -55c-141 0 -149 106 -149 210v237l-34 4v143h246v-384c0 -39 7 -50 33 -50c16 0 36 7 51 16v418h213v-434l33 -5v-143c-103 -29 -119 -53 -119 -72
c0 -17 12 -23 46 -23c26 0 55 3 73 4v-96z" />
    <glyph glyph-name="wacute" unicode="&#x1e83;" horiz-adv-x="865" 
d="M840 438l-41 -7l-66 -431h-240l-41 178c-8 33 -14 70 -18 105h-2c-5 -36 -11 -71 -20 -105l-44 -178h-235l-66 431l-41 7v144h232l21 -236c4 -43 8 -89 9 -121h2c7 33 15 80 26 120l29 111h176l29 -111c11 -41 19 -87 26 -120h2c2 33 5 78 9 121l22 236h231v-144z
M656 778l-138 -136h-185l101 136h222z" />
    <glyph glyph-name="wgrave" unicode="&#x1e81;" horiz-adv-x="865" 
d="M840 438l-41 -7l-66 -431h-240l-41 178c-8 33 -14 70 -18 105h-2c-5 -36 -11 -71 -20 -105l-44 -178h-235l-66 431l-41 7v144h232l21 -236c4 -43 8 -89 9 -121h2c7 33 15 80 26 120l29 111h176l29 -111c11 -41 19 -87 26 -120h2c2 33 5 78 9 121l22 236h231v-144z
M532 642h-185l-138 136h222z" />
    <glyph glyph-name="wcircumflex" unicode="&#x175;" horiz-adv-x="865" 
d="M840 438l-41 -7l-66 -431h-240l-41 178c-8 33 -14 70 -18 105h-2c-5 -36 -11 -71 -20 -105l-44 -178h-235l-66 431l-41 7v144h232l21 -236c4 -43 8 -89 9 -121h2c7 33 15 80 26 120l29 111h176l29 -111c11 -41 19 -87 26 -120h2c2 33 5 78 9 121l22 236h231v-144z
M658 642h-169l-56 64l-55 -64h-170l105 136h240z" />
    <glyph glyph-name="wdieresis" unicode="&#x1e85;" horiz-adv-x="865" 
d="M840 438l-41 -7l-66 -431h-240l-41 178c-8 33 -14 70 -18 105h-2c-5 -36 -11 -71 -20 -105l-44 -178h-235l-66 431l-41 7v144h232l21 -236c4 -43 8 -89 9 -121h2c7 33 15 80 26 120l29 111h176l29 -111c11 -41 19 -87 26 -120h2c2 33 5 78 9 121l22 236h231v-144z
M630 646h-163v132h163v-132zM400 646v132h-164v-132h164z" />
    <glyph glyph-name="yacute" unicode="&#xfd;" horiz-adv-x="614" 
d="M589 439l-41 -6l-81 -369c-41 -186 -103 -274 -277 -274c-43 0 -105 5 -154 17v133c40 -1 64 -1 92 -1c36 0 49 9 55 42l5 25l-121 426l-42 7v143h225l39 -280c7 -49 15 -118 18 -157h2c4 39 11 107 18 157l38 280h224v-143zM531 778l-138 -136h-185l101 136h222z" />
    <glyph glyph-name="ygrave" unicode="&#x1ef3;" horiz-adv-x="614" 
d="M589 439l-41 -6l-81 -369c-41 -186 -103 -274 -277 -274c-43 0 -105 5 -154 17v133c40 -1 64 -1 92 -1c36 0 49 9 55 42l5 25l-121 426l-42 7v143h225l39 -280c7 -49 15 -118 18 -157h2c4 39 11 107 18 157l38 280h224v-143zM409 642h-185l-138 136h222z" />
    <glyph glyph-name="ycircumflex" unicode="&#x177;" horiz-adv-x="614" 
d="M589 439l-41 -6l-81 -369c-41 -186 -103 -274 -277 -274c-43 0 -105 5 -154 17v133c40 -1 64 -1 92 -1c36 0 49 9 55 42l5 25l-121 426l-42 7v143h225l39 -280c7 -49 15 -118 18 -157h2c4 39 11 107 18 157l38 280h224v-143zM534 642h-169l-56 64l-55 -64h-170l105 136
h240z" />
    <glyph glyph-name="ydieresis" unicode="&#xff;" horiz-adv-x="614" 
d="M589 439l-41 -6l-81 -369c-41 -186 -103 -274 -277 -274c-43 0 -105 5 -154 17v133c40 -1 64 -1 92 -1c36 0 49 9 55 42l5 25l-121 426l-42 7v143h225l39 -280c7 -49 15 -118 18 -157h2c4 39 11 107 18 157l38 280h224v-143zM506 643h-163v132h163v-132zM276 643v132
h-164v-132h164z" />
    <glyph glyph-name="zacute" unicode="&#x17a;" horiz-adv-x="478" 
d="M451 0h-424v147l192 284h-70l-7 -30h-111v181h419v-150l-188 -282h68l11 34h110v-184zM469 778l-138 -136h-185l101 136h222z" />
    <glyph glyph-name="zcaron" unicode="&#x17e;" horiz-adv-x="478" 
d="M451 0h-424v147l192 284h-70l-7 -30h-111v181h419v-150l-188 -282h68l11 34h110v-184zM469 778l-105 -136h-240l-105 136h170l55 -64l56 64h169z" />
    <glyph glyph-name="zdotaccent" unicode="&#x17c;" horiz-adv-x="478" 
d="M451 0h-424v147l192 284h-70l-7 -30h-111v181h419v-150l-188 -282h68l11 34h110v-184zM362 652h-220v128h220v-128z" />
    <glyph glyph-name="eth" unicode="&#xf0;" horiz-adv-x="571" 
d="M540 268c0 -213 -95 -280 -255 -280s-254 63 -254 264v55c0 206 100 265 237 265c15 0 32 -2 46 -5c-21 39 -54 65 -95 81l-73 -69l-51 44l48 48c-28 4 -56 5 -86 3v111c20 2 42 2 64 2c47 0 89 -5 125 -15l55 52l51 -43l-33 -34c154 -67 221 -225 221 -411v-68zM329 252
v75c0 68 -13 85 -44 85c-33 0 -45 -19 -45 -103v-57c0 -86 11 -105 45 -105c33 0 44 19 44 105z" />
    <glyph glyph-name="thorn" unicode="&#xfe;" horiz-adv-x="600" 
d="M569 251c0 -181 -73 -263 -244 -263c-19 0 -41 1 -54 3v-39l34 -4v-144h-279v143l34 6v677l-34 6v143h226v-230c46 33 101 45 144 45c117 0 173 -65 173 -261v-82zM357 251v82c0 84 -7 100 -46 100c-12 0 -30 -2 -45 -11v-274c12 -2 23 -3 33 -3c45 0 58 12 58 106z" />
    <glyph glyph-name="longs" unicode="&#x17f;" horiz-adv-x="365" 
d="M304 0h-279v144l35 5v469c0 133 57 177 167 177c50 0 97 -7 132 -17v-119c-30 1 -40 2 -50 2c-35 0 -38 -7 -38 -43v-469l33 -5v-144z" />
    <glyph glyph-name="longs_h" unicode="&#xfb13;" horiz-adv-x="945" 
d="M304 0h-279v144l35 5v469c0 133 57 177 167 177c49 0 96 -7 132 -16h229v-218c41 23 92 33 130 33c156 0 168 -98 168 -210v-235l33 -5v-144h-246v383c0 40 -6 51 -33 51c-18 0 -37 -7 -52 -15v-270l34 -5v-144h-279v144l34 5v508c-32 2 -50 4 -68 4
c-35 0 -38 -7 -38 -43v-469l33 -5v-144z" />
    <glyph glyph-name="longs_i" unicode="&#xfb15;" horiz-adv-x="668" 
d="M641 0h-279v144l34 4v285l-34 5v144h246v-434l33 -4v-144zM612 648h-221v131h221v-131zM361 659c-27 1 -40 2 -51 2c-35 0 -38 -7 -38 -43v-469l33 -5v-144h-279v144l35 5v469c0 133 57 177 167 177c50 0 97 -7 133 -17v-119z" />
    <glyph glyph-name="longs_l" unicode="&#xfb14;" horiz-adv-x="649" 
d="M622 0h-278v144l34 5v508c-31 2 -59 4 -64 4c-38 0 -42 -7 -42 -43v-469l33 -5v-144h-279v144l35 5v469c0 133 57 177 167 177c59 0 110 -7 149 -16h212v-630l33 -5v-144z" />
    <glyph glyph-name="longs_longs" unicode="&#xfb16;" horiz-adv-x="680" 
d="M304 0h-279v144l35 5v469c0 133 57 177 167 177c50 0 97 -7 132 -17v-119c-30 1 -40 2 -50 2c-35 0 -38 -7 -38 -43v-469l33 -5v-144zM639 0h-279v144l35 5v469c0 133 57 177 167 177c50 0 97 -7 132 -17v-119c-30 1 -40 2 -50 2c-35 0 -38 -7 -38 -43v-469l33 -5v-144z
" />
    <glyph glyph-name="longs_t" unicode="&#xfb05;" horiz-adv-x="729" 
d="M700 4c-14 -5 -70 -16 -128 -16c-133 0 -170 72 -170 183v269l-72 10v132h72v77c-25 1 -57 2 -86 2c-41 0 -44 -7 -44 -43v-469l33 -5v-144h-279v144l34 5v469c0 133 58 177 168 177c71 0 117 -8 175 -18h210v-195h87v-142h-87v-269c0 -33 1 -44 33 -44c16 0 45 2 54 2
v-125z" />
    <glyph glyph-name="acute" unicode="&#xb4;" horiz-adv-x="393" 
d="M366 778l-138 -136h-185l101 136h222z" />
    <glyph glyph-name="grave" unicode="`" horiz-adv-x="393" 
d="M349 642h-185l-138 136h222z" />
    <glyph glyph-name="circumflex" unicode="&#x2c6;" horiz-adv-x="495" 
d="M472 642h-169l-56 64l-55 -64h-170l105 136h240z" />
    <glyph glyph-name="dieresis" unicode="&#xa8;" horiz-adv-x="450" 
d="M422 643h-163v132h163v-132zM192 643v132h-164v-132h164z" />
    <glyph glyph-name="tilde" unicode="&#x2dc;" horiz-adv-x="472" 
d="M452 777c0 -102 -61 -139 -119 -139c-35 0 -65 4 -94 19l-38 20c-13 7 -24 13 -35 13c-16 0 -21 -9 -21 -30v-20h-124v20c0 102 55 139 120 139c31 0 59 -5 92 -23l37 -20c15 -8 24 -11 37 -11c16 0 22 11 22 32v19h123v-19z" />
    <glyph glyph-name="macron" unicode="&#xaf;" horiz-adv-x="430" 
d="M403 651h-376v119h376v-119z" />
    <glyph glyph-name="uni02C9" unicode="&#x2c9;" horiz-adv-x="430" 
d="M403 651h-376v119h376v-119z" />
    <glyph glyph-name="caron" unicode="&#x2c7;" horiz-adv-x="495" 
d="M472 778l-105 -136h-240l-105 136h170l55 -64l56 64h169z" />
    <glyph glyph-name="breve" unicode="&#x2d8;" horiz-adv-x="475" 
d="M448 788c-21 -117 -124 -150 -210 -150s-189 33 -210 150h128c9 -45 42 -56 82 -56s74 11 83 56h127z" />
    <glyph glyph-name="ring" unicode="&#x2da;" horiz-adv-x="360" 
d="M327 752c0 -83 -63 -127 -147 -127s-147 44 -147 127c0 81 63 128 147 128s147 -46 147 -128zM229 753c0 28 -19 45 -49 45s-49 -17 -49 -45s19 -46 49 -46s49 18 49 46z" />
    <glyph glyph-name="dotaccent" unicode="&#x2d9;" horiz-adv-x="312" 
d="M266 651h-220v128h220v-128z" />
    <glyph glyph-name="hungarumlaut" unicode="&#x2dd;" horiz-adv-x="622" 
d="M610 778l-137 -137h-173l102 137h208zM335 778h-209l-101 -137h172z" />
    <glyph glyph-name="cedilla" unicode="&#xb8;" horiz-adv-x="362" 
d="M321 -57l-109 -139h-182l79 139h212z" />
    <glyph glyph-name="ogonek" unicode="&#x2db;" horiz-adv-x="375" 
d="M340 -187c-38 -12 -94 -22 -150 -22c-93 0 -153 28 -153 95c0 51 42 96 150 126l153 -12c-103 -29 -119 -53 -119 -72c0 -17 12 -23 46 -23c26 0 55 3 73 4v-96z" />
    <glyph glyph-name="one.superior" unicode="&#xb9;" horiz-adv-x="304" 
d="M274 302h-243v92l49 5v212l-49 -19v115l88 42h106v-350l49 -5v-92z" />
    <glyph glyph-name="two.superior" unicode="&#xb2;" horiz-adv-x="368" 
d="M328 302h-299v56c0 116 25 152 106 208c53 37 60 44 60 66c0 20 -10 27 -49 27h-27l-5 -30h-80v111c44 13 103 18 139 18c115 0 166 -36 166 -119c0 -57 -28 -91 -105 -140c-62 -39 -66 -49 -66 -91v-4h76l4 23h80v-125z" />
    <glyph glyph-name="three.superior" unicode="&#xb3;" horiz-adv-x="364" 
d="M334 424c0 -93 -48 -133 -169 -133c-51 0 -107 9 -136 19v111h80l5 -29c11 -1 23 -1 32 -1c33 0 46 3 46 42v8c0 31 -10 42 -48 42h-92v89h93c37 0 47 10 47 39v6c0 38 -12 42 -47 42c-10 0 -21 -1 -31 -1l-5 -28h-80v109c30 10 85 19 136 19c110 0 169 -35 169 -129v-6
c0 -44 -15 -75 -47 -95c33 -19 47 -52 47 -95v-9z" />
    <glyph glyph-name="ordfeminine" unicode="&#xaa;" horiz-adv-x="391" 
d="M364 398h-147v21c-20 -13 -57 -28 -94 -28c-73 0 -94 48 -94 105v19c0 97 74 103 162 103h11v20c0 34 -5 40 -41 40c-5 0 -10 0 -16 -1l-5 -21h-88v99c34 13 84 25 145 25c95 0 146 -30 146 -142v-140l21 -4v-96zM210 484v71h-16c-24 0 -32 -4 -32 -36v-16
c0 -20 7 -25 19 -25c11 0 21 3 29 6z" />
    <glyph glyph-name="ordmasculine" unicode="&#xba;" horiz-adv-x="395" 
d="M366 564c0 -135 -66 -174 -169 -174c-102 0 -168 39 -168 174v42c0 136 66 174 168 174c103 0 169 -38 169 -174v-42zM226 564v42c0 57 -7 68 -29 68c-21 0 -29 -11 -29 -68v-42c0 -55 8 -68 29 -68c22 0 29 12 29 68z" />
    <glyph glyph-name="guilsinglleft" unicode="&#x2039;" horiz-adv-x="375" 
d="M349 60h-202l-121 231l121 230h202l-118 -230z" />
    <glyph glyph-name="guilsinglright" unicode="&#x203a;" horiz-adv-x="375" 
d="M349 291l-121 -231h-202l118 231l-118 230h202z" />
    <glyph glyph-name="guillemotleft" unicode="&#xab;" horiz-adv-x="677" 
d="M651 60h-202l-123 231l123 230h202l-121 -230zM351 60l-120 231l120 230h-202l-123 -230l123 -231h202z" />
    <glyph glyph-name="guillemotright" unicode="&#xbb;" horiz-adv-x="677" 
d="M651 291l-124 -231h-202l120 231l-120 230h202zM351 291l-123 230h-202l120 -230l-120 -231h202z" />
    <glyph glyph-name="quotedblleft" unicode="&#x201c;" horiz-adv-x="511" 
d="M501 779l-55 -268h-187l95 268h147zM252 779l-56 -268h-186l95 268h147z" />
    <glyph glyph-name="quotedblright" unicode="&#x201d;" horiz-adv-x="511" 
d="M501 779l-95 -268h-147l56 268h186zM252 779l-95 -268h-147l56 268h186z" />
    <glyph glyph-name="quotesinglbase" unicode="&#x201a;" horiz-adv-x="262" 
d="M252 171l-95 -268h-147l56 268h186z" />
    <glyph glyph-name="quotedblbase" unicode="&#x201e;" horiz-adv-x="511" 
d="M501 171l-95 -268h-147l56 268h186zM252 171h-186l-56 -268h147z" />
    <glyph glyph-name="ellipsis" unicode="&#x2026;" horiz-adv-x="854" 
d="M823 0h-211v176h211v-176zM532 0v176h-210v-176h210zM242 0h-211v176h211v-176z" />
    <glyph glyph-name="uni00AD" unicode="&#xad;" horiz-adv-x="286" 
d="M258 225h-230v141h230v-141z" />
    <glyph glyph-name="endash" unicode="&#x2013;" horiz-adv-x="370" 
d="M342 225h-314v141h314v-141z" />
    <glyph glyph-name="emdash" unicode="&#x2014;" horiz-adv-x="590" 
d="M562 225h-534v141h534v-141z" />
    <glyph glyph-name="exclamdown" unicode="&#xa1;" horiz-adv-x="315" 
d="M283 -194h-251l21 537h210zM273 585v-181h-232v181h232z" />
    <glyph glyph-name="questiondown" unicode="&#xbf;" horiz-adv-x="490" 
d="M462 -168c-63 -26 -152 -36 -232 -36c-140 0 -211 50 -211 161v8c0 57 18 100 71 168c73 94 96 145 96 190v18h177v-18c0 -80 -1 -120 -41 -187c-38 -63 -52 -97 -52 -125v-5c0 -27 11 -40 47 -40c7 0 14 0 23 1l7 38h115v-173zM380 586v-176h-211v176h211z" />
    <glyph glyph-name="periodcentered" unicode="&#xb7;" horiz-adv-x="276" 
d="M238 279h-200v176h200v-176z" />
    <glyph glyph-name="uni2219" unicode="&#x2219;" horiz-adv-x="276" 
d="M238 274h-200v176h200v-176z" />
    <glyph glyph-name="bullet" unicode="&#x2022;" horiz-adv-x="433" 
d="M402 366c0 -97 -83 -174 -186 -174c-102 0 -184 77 -184 174c0 98 82 176 184 176c103 0 186 -78 186 -176z" />
    <glyph glyph-name="dagger" unicode="&#x2020;" horiz-adv-x="453" 
d="M422 439h-90v-569h-212v569h-89v161h89v178h212v-178h90v-161z" />
    <glyph glyph-name="daggerdbl" unicode="&#x2021;" horiz-adv-x="453" 
d="M422 186h-90v-316h-212v316h-89v161h89v101h-89v161h89v169h212v-169h90v-161h-90v-101h90v-161z" />
    <glyph glyph-name="section" unicode="&#xa7;" horiz-adv-x="574" 
d="M538 4c0 -158 -103 -222 -275 -222c-79 0 -154 11 -222 25v181h134l8 -44c16 0 33 -1 58 -1c53 0 65 22 65 58c0 38 -10 66 -82 97l-63 27c-90 39 -129 109 -129 197c0 45 11 90 37 124c-26 35 -35 79 -35 119c0 126 85 194 263 194c93 0 189 -17 221 -27v-176h-134
l-7 41c-20 1 -43 1 -68 1c-41 0 -57 -12 -57 -43c0 -29 -2 -57 69 -88l67 -29c120 -52 155 -116 155 -209c0 -32 -9 -74 -38 -117c23 -31 33 -71 33 -108zM366 183v36c0 48 -1 71 -49 91l-64 27c-29 12 -56 31 -57 38v-30c0 -52 0 -72 49 -93l64 -27c23 -10 44 -26 57 -42z
" />
    <glyph glyph-name="paragraph" unicode="&#xb6;" horiz-adv-x="651" 
d="M620 -195h-119v816h-60v-816h-155v150l35 6v274h-30c-146 0 -262 61 -262 251v10c0 191 116 248 265 248h326v-939z" />
    <glyph glyph-name="copyright" unicode="&#xa9;" horiz-adv-x="714" 
d="M684 373c0 -252 -127 -392 -327 -392c-201 0 -327 140 -327 392s126 391 327 391c200 0 327 -139 327 -391zM588 373c0 191 -83 305 -231 305c-149 0 -231 -114 -231 -305c0 -192 82 -305 231 -305c148 0 231 113 231 305zM475 169c-17 -7 -64 -17 -109 -17
c-127 0 -171 73 -171 193v55c0 120 44 193 171 193c45 0 92 -10 109 -17v-112h-76l-6 23h-13c-35 0 -48 -21 -48 -87v-55c0 -65 13 -87 48 -87c4 0 8 0 13 1l6 22h76v-112z" />
    <glyph glyph-name="registered" unicode="&#xae;" horiz-adv-x="546" 
d="M516 475c0 -185 -92 -298 -244 -298c-151 0 -242 113 -242 298s91 299 242 299c152 0 244 -114 244 -299zM435 475c0 139 -57 225 -163 225c-104 0 -161 -86 -161 -225s57 -226 161 -226c106 0 163 87 163 226zM394 333h-84l-39 99h-8h-13v-99h-91v55l15 2v177l-15 2v55
c38 4 68 4 106 4c61 0 115 -16 115 -97v-4c0 -41 -16 -63 -37 -77l25 -58l26 -4v-55zM303 527v4c0 24 -9 34 -35 34c-7 0 -12 0 -18 -1v-74h20c26 0 33 9 33 37z" />
    <glyph glyph-name="trademark" unicode="&#x2122;" horiz-adv-x="940" 
d="M913 318h-168v166c0 20 1 43 2 65h-1c-6 -15 -15 -37 -23 -51l-28 -47h-60l-29 47c-6 14 -16 36 -21 51h-2c2 -22 2 -45 2 -65v-166h-168v86l24 4v265l-24 4v86h159l65 -114c7 -15 16 -35 24 -52h1c7 17 15 37 24 52l65 114h158v-86l-24 -4v-265l24 -4v-86zM392 634h-75
l-6 24h-27v-250l25 -4v-86h-199v86l24 4v250h-26l-7 -24h-75v129h366v-129z" />
    <glyph glyph-name="zero.oldstyle" unicode="&#xf730;" horiz-adv-x="619" 
d="M588 280c0 -179 -68 -296 -278 -296c-211 0 -278 117 -278 296v39c0 180 67 297 278 297c210 0 278 -117 278 -297v-39zM359 281v39c0 94 -9 124 -49 124c-41 0 -50 -30 -50 -124v-39c0 -95 9 -125 50 -125c40 0 49 30 49 125z" />
    <glyph glyph-name="one.oldstyle" unicode="&#xf731;" horiz-adv-x="519" 
d="M491 0h-463v153l119 5v236l-119 -38v181l179 68h166v-447l118 -5v-153z" />
    <glyph glyph-name="two.oldstyle" unicode="&#xf732;" horiz-adv-x="563" 
d="M521 0h-489v164l127 83c111 73 142 107 142 156c0 41 -18 54 -82 54c-17 0 -26 0 -46 -1l-9 -48h-129v177c51 16 142 31 229 31c192 0 268 -61 268 -186c0 -110 -57 -163 -162 -229l-59 -37h210v-164z" />
    <glyph glyph-name="three.oldstyle" unicode="&#xf733;" horiz-adv-x="557" 
d="M522 61c0 -155 -79 -220 -274 -220c-82 0 -173 15 -218 31v180h128l8 -49c18 -1 37 -1 52 -1c53 0 76 5 76 73v14c0 52 -16 71 -78 71h-149v145h149c61 0 78 17 78 68v11c0 66 -21 72 -77 72c-16 0 -34 -1 -50 -1l-8 -47h-129v177c46 16 136 31 218 31
c178 0 274 -58 274 -214v-11c0 -73 -25 -125 -78 -157c54 -31 78 -87 78 -159v-14z" />
    <glyph glyph-name="four.oldstyle" unicode="&#xf734;" horiz-adv-x="604" 
d="M575 14h-68v-54l35 -5v-95h-297v95l36 5v54h-256v145l305 445h177v-438h68v-152zM294 166v180l-108 -180h108z" />
    <glyph glyph-name="five.oldstyle" unicode="&#xf735;" horiz-adv-x="552" 
d="M515 88c0 -186 -116 -242 -271 -242c-99 0 -180 18 -216 28v181h127l9 -50c13 0 24 -1 33 -1c68 0 88 15 88 83v16c0 59 -15 74 -88 74h-169l30 427h442v-194h-128l-6 34h-125l-7 -116h25c211 0 256 -83 256 -224v-16z" />
    <glyph glyph-name="six.oldstyle" unicode="&#xf736;" horiz-adv-x="600" 
d="M567 231c0 -177 -104 -247 -271 -247c-199 0 -265 99 -265 277v210c0 197 55 288 273 288c89 0 189 -17 231 -28v-179h-127l-9 47c-20 0 -41 1 -60 1c-79 0 -84 -22 -84 -105v-24c15 4 45 6 70 6c154 0 242 -45 242 -215v-31zM342 231v29c0 66 -6 85 -46 85
c-12 0 -29 -1 -41 -4v-104c0 -75 7 -103 44 -103c35 0 43 28 43 97z" />
    <glyph glyph-name="seven.oldstyle" unicode="&#xf737;" horiz-adv-x="571" 
d="M540 431l-270 -570h-234l281 582h-150l-7 -37h-127v198h507v-173z" />
    <glyph glyph-name="eight.oldstyle" unicode="&#xf738;" horiz-adv-x="618" 
d="M586 210c0 -207 -141 -226 -274 -226h-6c-133 0 -273 19 -273 226v7c0 80 23 127 73 166c-46 36 -71 83 -71 156v10c0 182 120 210 271 210h6c151 0 272 -28 272 -210v-10c0 -73 -26 -120 -71 -156c49 -39 73 -86 73 -166v-7zM361 211v8c0 75 -8 97 -42 97h-20
c-34 0 -42 -22 -42 -97v-8c0 -62 12 -82 49 -82h6c37 0 49 20 49 82zM360 534v8c0 50 -11 71 -48 71h-6c-37 0 -49 -21 -49 -71v-8c0 -54 7 -84 42 -84h20c35 0 41 30 41 84z" />
    <glyph glyph-name="nine.oldstyle" unicode="&#xf739;" horiz-adv-x="600" 
d="M567 130c0 -195 -55 -289 -273 -289c-89 0 -189 17 -231 27v180h126l9 -47c22 0 44 -1 66 -1c74 0 79 23 79 105v24c-15 -4 -45 -6 -70 -6c-154 0 -242 46 -242 215v31c0 176 104 247 272 247c198 0 264 -96 264 -275v-211zM343 259v104c0 76 -7 103 -44 103
c-36 0 -43 -29 -43 -97v-29c0 -66 6 -85 46 -85c12 0 29 1 41 4z" />
    <glyph glyph-name="zero.fitted" unicode="&#xe097;" horiz-adv-x="627" 
d="M592 336c0 -200 -50 -352 -278 -352c-229 0 -278 152 -278 352v71c0 200 49 352 278 352c228 0 278 -152 278 -352v-71zM363 337v70c0 152 -9 181 -49 181c-41 0 -50 -29 -50 -181v-70c0 -153 9 -181 50 -181c40 0 49 28 49 181z" />
    <glyph glyph-name="one.fitted" unicode="&#xf6dc;" horiz-adv-x="627" 
d="M565 0h-503v145l139 8v398l-139 -32v157l199 68h165v-591l139 -8v-145z" />
    <glyph glyph-name="two.fitted" unicode="&#xe098;" horiz-adv-x="627" 
d="M546 0h-482v93c0 190 37 248 172 345c86 62 97 77 97 113c0 38 -18 49 -82 49c-9 0 -25 0 -43 -1l-8 -48h-129v178c70 21 164 30 225 30c185 0 267 -58 267 -192c0 -93 -43 -150 -168 -237c-103 -72 -109 -86 -109 -158v-8h124l7 40h129v-204z" />
    <glyph glyph-name="three.fitted" unicode="&#xe099;" horiz-adv-x="627" 
d="M559 205c0 -155 -78 -221 -273 -221c-83 0 -173 15 -219 31v180h129l8 -49c18 -1 36 -1 52 -1c52 0 76 5 76 74v13c0 52 -17 71 -79 71h-148v145h149c61 0 78 17 78 69v10c0 66 -21 72 -77 72c-17 0 -34 0 -51 -1l-8 -47h-128v177c46 16 135 31 218 31
c178 0 273 -58 273 -213v-11c0 -74 -24 -125 -77 -158c54 -31 77 -87 77 -158v-14z" />
    <glyph glyph-name="four.fitted" unicode="&#xe09a;" horiz-adv-x="627" 
d="M589 154h-68v-54l35 -5v-95h-297v95l35 5v54h-256v145l305 445h178v-438h68v-152zM307 306v180l-108 -180h108z" />
    <glyph glyph-name="five.fitted" unicode="&#xe09b;" horiz-adv-x="627" 
d="M558 227c0 -186 -116 -243 -271 -243c-98 0 -180 18 -216 28v182h127l9 -50c13 -1 24 -1 33 -1c68 0 88 15 88 83v16c0 59 -15 73 -88 73h-169l30 428h442v-194h-128l-6 34h-125l-7 -116h25c211 0 256 -83 256 -224v-16z" />
    <glyph glyph-name="six.fitted" unicode="&#xe09c;" horiz-adv-x="627" 
d="M581 231c0 -177 -104 -247 -271 -247c-199 0 -265 97 -265 277v210c0 197 55 288 273 288c89 0 189 -17 232 -28v-179h-128l-9 47c-20 0 -41 1 -60 1c-79 0 -84 -22 -84 -105v-24c15 4 45 6 71 6c153 0 241 -45 241 -215v-31zM356 231v29c0 66 -6 85 -46 85
c-12 0 -29 -1 -41 -4v-104c0 -75 7 -103 44 -103c35 0 43 28 43 97z" />
    <glyph glyph-name="seven.fitted" unicode="&#xe09d;" horiz-adv-x="627" 
d="M572 570l-270 -570h-233l281 583h-151l-7 -38h-127v198h507v-173z" />
    <glyph glyph-name="eight.fitted" unicode="&#xe09e;" horiz-adv-x="627" 
d="M590 210c0 -207 -141 -226 -274 -226h-6c-133 0 -273 19 -273 226v7c0 80 23 127 73 166c-46 36 -71 83 -71 156v10c0 182 120 210 271 210h6c152 0 272 -28 272 -210v-10c0 -73 -26 -120 -71 -156c50 -39 73 -86 73 -166v-7zM365 211v8c0 75 -8 97 -42 97h-20
c-34 0 -42 -22 -42 -97v-8c0 -62 12 -82 49 -82h6c37 0 49 20 49 82zM365 534v8c0 50 -12 71 -49 71h-6c-37 0 -48 -21 -48 -71v-8c0 -54 6 -84 41 -84h20c35 0 42 30 42 84z" />
    <glyph glyph-name="nine.fitted" unicode="&#xe09f;" horiz-adv-x="627" 
d="M581 274c0 -195 -55 -290 -273 -290c-89 0 -189 17 -231 28v180h127l8 -47c22 -1 45 -1 66 -1c75 0 80 23 80 105v23c-16 -3 -46 -6 -71 -6c-154 0 -242 46 -242 215v32c0 176 104 246 272 246c198 0 264 -95 264 -276v-209zM358 403v103c0 76 -8 104 -45 104
c-36 0 -43 -29 -43 -97v-30c0 -66 6 -85 46 -85c12 0 29 2 42 5z" />
    <glyph glyph-name="zero.taboldstyle" unicode="&#xe100;" horiz-adv-x="625" 
d="M577 280c0 -179 -67 -296 -277 -296c-211 0 -279 117 -279 296v39c0 180 68 297 279 297c210 0 277 -117 277 -297v-39zM349 281v39c0 94 -9 124 -49 124c-41 0 -50 -30 -50 -124v-39c0 -95 9 -125 50 -125c40 0 49 30 49 125z" />
    <glyph glyph-name="one.taboldstyle" unicode="&#xe101;" horiz-adv-x="625" 
d="M566 0h-507v163l141 1v236l-141 -38v175l202 68h165v-441l140 -1v-163z" />
    <glyph glyph-name="two.taboldstyle" unicode="&#xe102;" horiz-adv-x="625" 
d="M552 0h-489v164l127 83c111 73 142 107 142 156c0 41 -19 54 -82 54c-17 0 -27 0 -47 -1l-8 -48h-129v177c51 16 142 31 229 31c192 0 268 -61 268 -186c0 -110 -57 -163 -162 -229l-59 -37h210v-164z" />
    <glyph glyph-name="three.taboldstyle" unicode="&#xe103;" horiz-adv-x="625" 
d="M555 61c0 -155 -79 -220 -273 -220c-83 0 -174 15 -219 31v180h129l8 -49c18 -1 36 -1 51 -1c53 0 77 5 77 73v14c0 52 -17 71 -79 71h-148v145h149c60 0 78 17 78 68v11c0 66 -21 72 -77 72c-17 0 -34 -1 -51 -1l-8 -47h-128v177c46 16 135 31 218 31
c178 0 273 -58 273 -214v-11c0 -73 -25 -125 -77 -157c53 -31 77 -87 77 -159v-14z" />
    <glyph glyph-name="four.taboldstyle" unicode="&#xe104;" horiz-adv-x="625" 
d="M586 14h-68v-54l35 -5v-95h-297v95l35 5v54h-256v145l305 445h178v-438h68v-152zM305 166v180l-108 -180h108z" />
    <glyph glyph-name="five.taboldstyle" unicode="&#xe105;" horiz-adv-x="625" 
d="M552 88c0 -186 -116 -242 -270 -242c-99 0 -180 18 -217 28v181h127l9 -50c13 0 24 -1 33 -1c68 0 88 15 88 83v16c0 59 -15 74 -88 74h-169l30 427h442v-194h-128l-6 34h-125l-7 -116h25c212 0 256 -83 256 -224v-16z" />
    <glyph glyph-name="six.taboldstyle" unicode="&#xe106;" horiz-adv-x="625" 
d="M579 231c0 -177 -104 -247 -271 -247c-199 0 -265 98 -265 278v209c0 198 55 288 273 288c89 0 189 -17 231 -28v-179h-127l-9 47c-20 0 -41 1 -60 1c-79 0 -84 -22 -84 -105v-24c15 4 45 6 71 6c153 0 241 -45 241 -215v-31zM354 231v29c0 66 -6 85 -46 85
c-12 0 -29 -1 -41 -4v-104c0 -75 7 -103 44 -103c35 0 43 28 43 97z" />
    <glyph glyph-name="seven.taboldstyle" unicode="&#xe107;" horiz-adv-x="625" 
d="M566 431l-270 -570h-234l282 582h-151l-7 -37h-127v198h507v-173z" />
    <glyph glyph-name="eight.taboldstyle" unicode="&#xe108;" horiz-adv-x="625" 
d="M589 210c0 -207 -141 -226 -274 -226h-6c-133 0 -273 19 -273 226v7c0 80 23 127 73 166c-45 36 -71 83 -71 156v10c0 182 120 210 271 210h6c152 0 272 -28 272 -210v-10c0 -73 -25 -120 -71 -156c50 -39 73 -86 73 -166v-7zM365 211v8c0 75 -8 97 -43 97h-19
c-35 0 -43 -22 -43 -97v-8c0 -62 12 -82 49 -82h6c37 0 50 20 50 82zM364 534v8c0 50 -12 71 -49 71h-6c-37 0 -48 -21 -48 -71v-8c0 -54 6 -84 42 -84h19c35 0 42 30 42 84z" />
    <glyph glyph-name="nine.taboldstyle" unicode="&#xe109;" horiz-adv-x="625" 
d="M579 130c0 -195 -55 -289 -273 -289c-89 0 -189 17 -231 27v180h126l9 -47c22 0 44 -1 66 -1c75 0 80 23 80 105v24c-16 -4 -46 -6 -71 -6c-154 0 -242 46 -242 215v31c0 176 104 247 272 247c198 0 264 -96 264 -277v-209zM356 259v104c0 76 -8 103 -45 103
c-36 0 -43 -29 -43 -97v-29c0 -66 6 -85 46 -85c12 0 29 1 42 4z" />
    <glyph glyph-name="onequarter" unicode="&#xbc;" horiz-adv-x="873" 
d="M845 91h-41v-30l21 -3v-58h-184v58l21 3v30h-158v89l189 267h111v-262h41v-94zM671 185v103l-66 -103h66zM726 745l-394 -745h-172l393 745h173zM272 302h-243v92l49 5v212l-49 -19v115l88 42h106v-350l49 -5v-92z" />
    <glyph glyph-name="onehalf" unicode="&#xbd;" horiz-adv-x="941" 
d="M901 0h-299v56c0 116 25 152 106 208c53 37 60 44 60 66c0 20 -10 27 -49 27h-27l-5 -30h-80v111c44 13 103 18 140 18c114 0 165 -36 165 -119c0 -54 -27 -90 -105 -140c-62 -40 -66 -49 -66 -91v-4h76l4 23h80v-125zM726 745l-394 -745h-172l393 745h173zM272 302h-243
v92l49 5v212l-49 -19v115l88 42h106v-350l49 -5v-92z" />
    <glyph glyph-name="threequarters" unicode="&#xbe;" horiz-adv-x="916" 
d="M888 91h-42v-30l21 -3v-58h-184v58l21 3v30h-158v89l190 267h110v-262h42v-94zM713 185v103l-66 -103h66zM762 745l-393 -745h-173l394 745h172zM333 424c0 -93 -48 -133 -169 -133c-51 0 -107 9 -136 19v111h80l5 -29c10 -1 22 -1 32 -1c32 0 46 3 46 42v8
c0 31 -10 42 -48 42h-92v89h93c36 0 47 10 47 39v6c0 38 -12 42 -47 42c-10 0 -21 -1 -31 -1l-5 -28h-80v109c30 10 85 19 136 19c110 0 169 -35 169 -129v-6c0 -44 -15 -75 -48 -95c34 -19 48 -52 48 -95v-9z" />
    <glyph glyph-name="oneeighth" unicode="&#x215b;" horiz-adv-x="963" 
d="M935 124c0 -124 -88 -135 -170 -135h-4c-82 0 -169 11 -169 135v6c0 47 14 76 44 100c-28 21 -43 50 -43 93v7c0 108 76 126 168 126h4c93 0 168 -18 168 -126v-7c0 -43 -15 -72 -43 -93c31 -24 45 -53 45 -100v-6zM795 126v5c0 45 -4 57 -25 57h-14
c-21 0 -25 -12 -25 -57v-5c0 -36 8 -47 30 -47h4c22 0 30 11 30 47zM794 320v4c0 29 -7 41 -29 41h-4c-22 0 -29 -12 -29 -41v-4c0 -32 3 -49 24 -49h14c21 0 24 17 24 49zM724 745l-393 -745h-173l394 745h172zM272 302h-243v92l49 5v212l-49 -19v115l88 42h106v-350l49 -5
v-92z" />
    <glyph glyph-name="threeeighths" unicode="&#x215c;" horiz-adv-x="1005" 
d="M976 124c0 -124 -87 -135 -170 -135h-3c-83 0 -170 11 -170 135v6c0 47 14 76 45 100c-28 21 -44 50 -44 93v7c0 108 76 126 169 126h3c93 0 169 -18 169 -126v-7c0 -43 -15 -72 -44 -93c31 -24 45 -53 45 -100v-6zM836 126v5c0 45 -4 57 -25 57h-13
c-21 0 -25 -12 -25 -57v-5c0 -36 7 -47 30 -47h3c23 0 30 11 30 47zM836 320v4c0 29 -7 41 -30 41h-3c-23 0 -30 -12 -30 -41v-4c0 -32 4 -49 25 -49h13c21 0 25 17 25 49zM765 745l-394 -745h-172l394 745h172zM333 424c0 -93 -48 -133 -169 -133c-51 0 -107 9 -136 19v111
h80l5 -29c10 -1 22 -1 33 -1c31 0 45 3 45 42v8c0 31 -10 42 -48 42h-92v89h93c36 0 47 10 47 39v6c0 38 -11 42 -44 42c-10 0 -24 -1 -34 -1l-5 -28h-80v109c30 10 85 19 136 19c110 0 169 -35 169 -129v-6c0 -44 -15 -75 -48 -95c34 -19 48 -52 48 -95v-9z" />
    <glyph glyph-name="fiveeighths" unicode="&#x215d;" horiz-adv-x="998" 
d="M970 124c0 -124 -88 -135 -170 -135h-4c-82 0 -169 11 -169 135v6c0 47 14 76 45 100c-29 21 -44 50 -44 93v7c0 108 76 126 168 126h4c93 0 169 -18 169 -126v-7c0 -43 -16 -72 -44 -93c31 -24 45 -53 45 -100v-6zM830 126v5c0 45 -4 57 -25 57h-14
c-20 0 -25 -12 -25 -57v-5c0 -36 8 -47 30 -47h4c22 0 30 11 30 47zM829 320v4c0 29 -7 41 -29 41h-4c-22 0 -29 -12 -29 -41v-4c0 -32 3 -49 24 -49h14c21 0 24 17 24 49zM758 745l-393 -745h-172l393 745h172zM332 434c0 -112 -72 -147 -167 -147c-63 0 -113 10 -135 17
v112h78l6 -30c8 -1 15 -1 21 -1c41 0 53 9 53 48v9c0 34 -9 43 -53 43h-106l19 259h274v-119h-79l-4 20h-77l-4 -67h16c129 0 158 -49 158 -135v-9z" />
    <glyph glyph-name="seveneighths" unicode="&#x215e;" horiz-adv-x="929" 
d="M901 124c0 -124 -88 -135 -170 -135h-4c-82 0 -169 11 -169 135v6c0 47 14 76 44 100c-28 21 -43 50 -43 93v7c0 108 76 126 168 126h4c93 0 168 -18 168 -126v-7c0 -43 -15 -72 -43 -93c31 -24 45 -53 45 -100v-6zM761 126v5c0 45 -4 57 -25 57h-14
c-21 0 -25 -12 -25 -57v-5c0 -36 8 -47 30 -47h4c22 0 30 11 30 47zM760 320v4c0 29 -7 41 -29 41h-4c-22 0 -29 -12 -29 -41v-4c0 -32 3 -49 24 -49h14c21 0 24 17 24 49zM689 745l-393 -745h-172l393 745h172zM337 638l-159 -340h-146l166 347h-81l-4 -23h-79v122h303
v-106z" />
    <glyph glyph-name="onethird" unicode="&#x2153;" horiz-adv-x="948" 
d="M920 122c0 -93 -48 -133 -169 -133c-50 0 -107 9 -136 19v111h80l5 -29c11 -1 23 -1 32 -1c33 0 47 3 47 42v8c0 31 -11 42 -48 42h-93v89h93c37 0 48 10 48 39v6c0 38 -13 42 -47 42c-10 0 -22 -1 -32 -1l-5 -28h-79v109c29 10 84 19 135 19c110 0 169 -35 169 -129v-6
c0 -44 -15 -75 -47 -95c33 -19 47 -52 47 -95v-9zM724 745l-393 -745h-173l394 745h172zM272 302h-243v92l49 5v212l-49 -19v115l88 42h106v-350l49 -5v-92z" />
    <glyph glyph-name="twothirds" unicode="&#x2154;" horiz-adv-x="1009" 
d="M981 122c0 -93 -48 -133 -169 -133c-51 0 -107 9 -136 19v111h80l5 -29c11 -1 23 -1 32 -1c33 0 47 3 47 42v8c0 31 -11 42 -49 42h-92v89h93c37 0 48 10 48 39v6c0 38 -13 42 -48 42c-10 0 -21 -1 -31 -1l-5 -28h-80v109c30 10 85 19 136 19c110 0 169 -35 169 -129v-6
c0 -44 -15 -75 -47 -95c33 -19 47 -52 47 -95v-9zM783 745l-393 -745h-172l393 745h172zM327 302h-299v56c0 116 25 152 106 208c53 37 60 44 60 66c0 20 -10 27 -49 27h-27l-5 -30h-80v111c44 13 103 18 140 18c114 0 165 -36 165 -119c0 -57 -28 -91 -105 -140
c-62 -39 -66 -49 -66 -91v-4h76l4 23h80v-125z" />
    <glyph glyph-name="zero.numerator" unicode="&#xe11e;" horiz-adv-x="404" 
d="M377 513c0 -122 -30 -221 -175 -221s-175 99 -175 221v25c0 121 30 220 175 220s175 -98 175 -220v-25zM231 512v26c0 95 -5 110 -29 110s-29 -16 -29 -110v-26c0 -94 5 -110 29 -110s29 16 29 110z" />
    <glyph glyph-name="one.numerator" unicode="&#xe11f;" horiz-adv-x="304" 
d="M274 302h-243v92l49 5v212l-49 -19v115l88 42h106v-350l49 -5v-92z" />
    <glyph glyph-name="two.numerator" unicode="&#xe120;" horiz-adv-x="368" 
d="M328 302h-299v56c0 116 25 152 106 208c53 37 60 44 60 66c0 20 -10 27 -49 27h-27l-5 -30h-80v111c44 13 103 18 139 18c115 0 166 -36 166 -119c0 -57 -27 -90 -105 -140c-63 -40 -66 -49 -66 -91v-4h76l4 23h80v-125z" />
    <glyph glyph-name="three.numerator" unicode="&#xe121;" horiz-adv-x="364" 
d="M334 424c0 -93 -48 -133 -169 -133c-51 0 -107 9 -136 19v111h80l5 -29c11 -1 23 -1 32 -1c33 0 46 3 46 42v8c0 31 -10 42 -48 42h-92v89h93c37 0 47 10 47 39v6c0 38 -12 42 -47 42c-10 0 -21 -1 -31 -1l-5 -28h-80v109c30 10 85 19 136 19c110 0 169 -35 169 -129v-6
c0 -44 -15 -75 -47 -95c33 -19 47 -52 47 -95v-9z" />
    <glyph glyph-name="four.numerator" unicode="&#xe122;" horiz-adv-x="392" 
d="M367 392h-42v-30l21 -3v-58h-184v58l21 3v30h-158v89l190 267h110v-262h42v-94zM192 486v104l-66 -104h66z" />
    <glyph glyph-name="five.numerator" unicode="&#xe123;" horiz-adv-x="361" 
d="M332 434c0 -112 -72 -147 -167 -147c-62 0 -112 10 -135 17v112h79l5 -30c8 -1 15 -1 21 -1c42 0 54 9 54 48v9c0 34 -9 43 -53 43h-106l19 259h274v-119h-79l-4 20h-77l-5 -67h17c128 0 157 -49 157 -135v-9z" />
    <glyph glyph-name="six.numerator" unicode="&#xe124;" horiz-adv-x="387" 
d="M360 441c0 -107 -65 -150 -169 -150c-125 0 -164 62 -164 171v119c0 119 35 177 168 177c56 0 118 -10 145 -17v-110h-79l-6 27c-12 1 -26 1 -38 1c-48 0 -51 -12 -51 -61v-12c9 2 28 3 43 3c95 0 151 -26 151 -130v-18zM219 441v17c0 39 -5 50 -29 50
c-6 0 -17 -1 -24 -3v-59c0 -47 5 -62 27 -62c21 0 26 16 26 57z" />
    <glyph glyph-name="seven.numerator" unicode="&#xe125;" horiz-adv-x="368" 
d="M339 638l-160 -340h-146l167 347h-81l-4 -23h-79v122h303v-106z" />
    <glyph glyph-name="eight.numerator" unicode="&#xe126;" horiz-adv-x="396" 
d="M369 426c0 -124 -87 -135 -170 -135h-3c-83 0 -170 11 -170 135v5c0 48 15 77 45 100c-28 22 -44 51 -44 94v6c0 109 76 127 169 127h3c93 0 169 -18 169 -127v-6c0 -43 -15 -72 -43 -94c30 -23 44 -52 44 -100v-5zM229 428v5c0 45 -4 57 -25 57h-13
c-21 0 -25 -12 -25 -57v-5c0 -36 7 -47 30 -47h3c23 0 30 11 30 47zM229 622v4c0 29 -7 41 -30 41h-3c-23 0 -30 -12 -30 -41v-4c0 -32 4 -49 25 -49h13c21 0 25 17 25 49z" />
    <glyph glyph-name="nine.numerator" unicode="&#xe127;" horiz-adv-x="387" 
d="M360 468c0 -119 -35 -177 -169 -177c-56 0 -117 8 -145 17v110h79l5 -28h42c44 0 48 12 48 60v14c-10 -2 -28 -3 -43 -3c-95 0 -150 27 -150 130v17c0 106 64 150 168 150c125 0 165 -62 165 -171v-119zM220 545v59c0 46 -5 61 -27 61c-21 0 -26 -15 -26 -56v-17
c0 -39 4 -49 28 -49c7 0 18 1 25 2z" />
    <glyph glyph-name="fraction" unicode="&#x2044;" horiz-adv-x="526" 
d="M546 745l-394 -745h-172l394 745h172z" />
    <glyph glyph-name="uni2215" unicode="&#x2215;" horiz-adv-x="526" 
d="M546 745l-394 -745h-172l394 745h172z" />
    <glyph glyph-name="zero.denominator" unicode="&#xe10a;" horiz-adv-x="405" 
d="M378 211c0 -123 -32 -221 -175 -221c-144 0 -176 98 -176 221v25c0 123 32 221 176 221c143 0 175 -98 175 -221v-25zM232 211v25c0 95 -7 111 -29 111c-23 0 -29 -16 -29 -111v-25c0 -95 6 -110 29 -110c22 0 29 15 29 110z" />
    <glyph glyph-name="one.denominator" unicode="&#xe10b;" horiz-adv-x="303" 
d="M273 0h-243v93l49 4v212l-49 -19v115l88 42h106v-350l49 -4v-93z" />
    <glyph glyph-name="two.denominator" unicode="&#xe10c;" horiz-adv-x="367" 
d="M328 0h-299v56c0 116 25 152 106 208c53 37 60 44 60 66c0 21 -10 27 -49 27h-27l-6 -30h-79v111c44 13 103 18 139 18c115 0 166 -36 166 -119c0 -56 -28 -91 -105 -140c-63 -40 -67 -49 -67 -91v-4h77l4 23h80v-125z" />
    <glyph glyph-name="three.denominator" unicode="&#xe10d;" horiz-adv-x="362" 
d="M333 122c0 -93 -47 -133 -168 -133c-51 0 -107 9 -136 19v111h80l4 -29c11 -1 23 -1 33 -1c32 0 46 3 46 42v8c0 31 -10 42 -48 42h-92v89h92c37 0 48 10 48 39v6c0 38 -12 42 -47 42c-10 0 -21 -1 -31 -1l-5 -28h-80v109c29 10 85 19 136 19c110 0 168 -35 168 -129v-6
c0 -44 -14 -75 -47 -95c34 -19 47 -52 47 -95v-9z" />
    <glyph glyph-name="four.denominator" unicode="&#xe10e;" horiz-adv-x="392" 
d="M367 90h-42v-29l22 -3v-59h-185v59l22 3v29h-159v89l190 267h110v-262h42v-94zM192 184v104l-66 -104h66z" />
    <glyph glyph-name="five.denominator" unicode="&#xe10f;" horiz-adv-x="361" 
d="M332 132c0 -112 -72 -147 -167 -147c-62 0 -112 10 -135 17v112h79l5 -30c8 0 15 -1 21 -1c42 0 54 10 54 49v9c0 34 -9 42 -53 42h-106l19 259h274v-119h-79l-4 20h-77l-5 -67h17c128 0 157 -49 157 -135v-9z" />
    <glyph glyph-name="six.denominator" unicode="&#xe110;" horiz-adv-x="388" 
d="M360 139c0 -106 -64 -149 -168 -149c-125 0 -165 61 -165 170v119c0 120 35 178 169 178c56 0 118 -11 145 -18v-110h-79l-6 28c-12 0 -26 1 -38 1c-48 0 -51 -13 -51 -61v-13c9 3 28 4 43 4c95 0 150 -27 150 -131v-18zM220 139v17c0 40 -5 50 -29 50
c-6 0 -17 -1 -24 -3v-59c0 -47 5 -62 26 -62c22 0 27 16 27 57z" />
    <glyph glyph-name="seven.denominator" unicode="&#xe111;" horiz-adv-x="367" 
d="M338 336l-159 -340h-146l166 347h-81l-3 -22h-80v121h303v-106z" />
    <glyph glyph-name="eight.denominator" unicode="&#xe112;" horiz-adv-x="397" 
d="M370 124c0 -124 -87 -135 -170 -135h-3c-83 0 -170 11 -170 135v6c0 47 15 76 45 100c-28 21 -44 50 -44 93v7c0 108 76 126 169 126h3c93 0 169 -18 169 -126v-7c0 -43 -15 -72 -43 -93c30 -24 44 -53 44 -100v-6zM230 126v5c0 45 -4 57 -25 57h-13
c-21 0 -25 -12 -25 -57v-5c0 -36 7 -47 30 -47h3c23 0 30 11 30 47zM230 320v4c0 29 -7 41 -30 41h-3c-23 0 -30 -12 -30 -41v-4c0 -32 4 -49 25 -49h13c21 0 25 17 25 49z" />
    <glyph glyph-name="nine.denominator" unicode="&#xe113;" horiz-adv-x="388" 
d="M360 166c0 -119 -34 -177 -168 -177c-56 0 -118 8 -145 17v111h79l5 -28c14 -1 28 -1 41 -1c45 0 49 13 49 61v13c-10 -1 -28 -3 -43 -3c-95 0 -151 27 -151 130v18c0 105 65 149 169 149c125 0 164 -62 164 -170v-120zM221 243v59c0 46 -5 62 -27 62
c-21 0 -26 -16 -26 -57v-17c0 -38 4 -49 28 -49c6 0 17 1 25 2z" />
    <glyph glyph-name="zero.superior" unicode="&#x2070;" horiz-adv-x="404" 
d="M377 513c0 -122 -30 -221 -175 -221s-175 99 -175 221v25c0 121 30 220 175 220s175 -98 175 -220v-25zM231 512v26c0 95 -5 110 -29 110s-29 -16 -29 -110v-26c0 -94 5 -110 29 -110s29 16 29 110z" />
    <glyph glyph-name="four.superior" unicode="&#x2074;" horiz-adv-x="392" 
d="M367 392h-42v-30l21 -3v-58h-184v58l21 3v30h-158v89l190 267h110v-262h42v-94zM192 486v104l-66 -104h66z" />
    <glyph glyph-name="five.superior" unicode="&#x2075;" horiz-adv-x="361" 
d="M332 434c0 -112 -72 -147 -167 -147c-62 0 -112 10 -135 17v112h79l5 -30c8 -1 15 -1 21 -1c42 0 54 9 54 48v9c0 34 -9 43 -53 43h-106l19 259h274v-119h-79l-4 20h-77l-5 -67h17c128 0 157 -49 157 -135v-9z" />
    <glyph glyph-name="six.superior" unicode="&#x2076;" horiz-adv-x="387" 
d="M360 441c0 -107 -65 -150 -169 -150c-125 0 -164 62 -164 171v119c0 119 35 177 168 177c56 0 118 -10 145 -17v-110h-79l-6 27c-12 1 -26 1 -38 1c-48 0 -51 -12 -51 -61v-12c9 2 28 3 43 3c95 0 151 -26 151 -130v-18zM219 441v17c0 39 -5 50 -29 50
c-6 0 -17 -1 -24 -3v-59c0 -47 5 -62 27 -62c21 0 26 16 26 57z" />
    <glyph glyph-name="seven.superior" unicode="&#x2077;" horiz-adv-x="368" 
d="M339 638l-160 -340h-146l167 347h-81l-4 -23h-79v122h303v-106z" />
    <glyph glyph-name="eight.superior" unicode="&#x2078;" horiz-adv-x="396" 
d="M369 426c0 -124 -87 -135 -170 -135h-3c-83 0 -170 11 -170 135v5c0 48 15 77 45 100c-28 22 -44 51 -44 94v6c0 109 76 127 169 127h3c93 0 169 -18 169 -127v-6c0 -43 -15 -72 -43 -94c30 -23 44 -52 44 -100v-5zM229 428v5c0 45 -4 57 -25 57h-13
c-21 0 -25 -12 -25 -57v-5c0 -36 7 -47 30 -47h3c23 0 30 11 30 47zM229 622v4c0 29 -7 41 -30 41h-3c-23 0 -30 -12 -30 -41v-4c0 -32 4 -49 25 -49h13c21 0 25 17 25 49z" />
    <glyph glyph-name="nine.superior" unicode="&#x2079;" horiz-adv-x="387" 
d="M360 468c0 -119 -35 -177 -169 -177c-56 0 -117 8 -145 17v110h79l5 -28h42c44 0 48 12 48 60v14c-10 -2 -28 -3 -43 -3c-95 0 -150 27 -150 130v17c0 106 64 150 168 150c125 0 165 -62 165 -171v-119zM220 545v59c0 46 -5 61 -27 61c-21 0 -26 -15 -26 -56v-17
c0 -39 4 -49 28 -49c7 0 18 1 25 2z" />
    <glyph glyph-name="zero.inferior" unicode="&#x2080;" horiz-adv-x="405" 
d="M378 210c0 -125 -32 -221 -176 -221s-176 96 -176 221v26c0 124 32 220 176 220s176 -96 176 -220v-26zM231 210v26c0 95 -6 110 -29 110s-29 -15 -29 -110v-26c0 -95 6 -110 29 -110s29 15 29 110z" />
    <glyph glyph-name="one.inferior" unicode="&#x2081;" horiz-adv-x="304" 
d="M274 0h-243v93l49 4v212l-49 -19v115l88 42h106v-350l49 -4v-93z" />
    <glyph glyph-name="two.inferior" unicode="&#x2082;" horiz-adv-x="368" 
d="M328 0h-299v56c0 116 27 150 106 208c54 35 60 44 60 66c0 21 -10 27 -49 27h-27l-5 -30h-80v111c44 13 103 18 139 18c115 0 166 -36 166 -119c0 -56 -26 -92 -105 -140c-62 -41 -66 -49 -66 -91v-4h76l4 23h80v-125z" />
    <glyph glyph-name="three.inferior" unicode="&#x2083;" horiz-adv-x="364" 
d="M334 122c0 -93 -48 -133 -169 -133c-51 0 -107 9 -136 19v111h80l5 -29c11 -1 23 -1 32 -1c33 0 46 3 46 42v8c0 31 -10 42 -48 42h-92v89h93c37 0 47 10 47 39v6c0 38 -12 42 -47 42c-10 0 -21 -1 -31 -1l-5 -28h-80v109c30 10 85 19 136 19c110 0 169 -35 169 -129v-6
c0 -44 -15 -75 -47 -95c33 -19 47 -52 47 -95v-9z" />
    <glyph glyph-name="four.inferior" unicode="&#x2084;" horiz-adv-x="392" 
d="M367 91h-42v-30l21 -3v-58h-184v58l21 3v30h-158v89l190 267h110v-262h42v-94zM192 185v103l-66 -103h66z" />
    <glyph glyph-name="five.inferior" unicode="&#x2085;" horiz-adv-x="361" 
d="M332 137c0 -113 -72 -148 -167 -148c-62 0 -112 11 -135 17v112h79l5 -30h21c42 0 54 9 54 48v9c0 34 -9 42 -53 42h-106l19 260h274v-120h-79l-4 20h-77l-5 -67h17c128 0 157 -48 157 -135v-8z" />
    <glyph glyph-name="six.inferior" unicode="&#x2086;" horiz-adv-x="387" 
d="M360 139c0 -107 -65 -150 -169 -150c-125 0 -164 61 -164 170v119c0 120 35 178 168 178c56 0 118 -11 145 -17v-110h-79l-6 27c-12 0 -26 1 -38 1c-48 0 -51 -12 -51 -61v-12c9 2 28 3 43 3c95 0 151 -27 151 -131v-17zM219 139v16c0 40 -5 50 -29 50c-6 0 -17 0 -24 -2
v-60c0 -46 5 -61 27 -61c21 0 26 16 26 57z" />
    <glyph glyph-name="seven.inferior" unicode="&#x2087;" horiz-adv-x="368" 
d="M339 340l-160 -340h-146l167 347h-81l-4 -22h-79v122h303v-107z" />
    <glyph glyph-name="eight.inferior" unicode="&#x2088;" horiz-adv-x="396" 
d="M369 124c0 -124 -87 -135 -170 -135h-3c-83 0 -170 11 -170 135v6c0 47 15 76 45 100c-28 21 -44 50 -44 93v7c0 108 76 126 169 126h3c93 0 169 -18 169 -126v-7c0 -43 -15 -72 -43 -93c30 -24 44 -53 44 -100v-6zM229 126v5c0 45 -4 57 -25 57h-13
c-21 0 -25 -12 -25 -57v-5c0 -36 7 -47 30 -47h3c23 0 30 11 30 47zM229 320v4c0 29 -7 41 -30 41h-3c-23 0 -30 -12 -30 -41v-4c0 -32 4 -49 25 -49h13c21 0 25 17 25 49z" />
    <glyph glyph-name="nine.inferior" unicode="&#x2089;" horiz-adv-x="387" 
d="M360 166c0 -119 -35 -177 -169 -177c-56 0 -117 8 -145 17v111h79l5 -28c14 -1 28 -1 42 -1c44 0 48 13 48 61v13c-10 -1 -28 -3 -43 -3c-95 0 -150 27 -150 130v18c0 105 64 149 168 149c125 0 165 -62 165 -170v-120zM220 243v59c0 46 -5 62 -27 62
c-21 0 -26 -16 -26 -57v-17c0 -38 4 -49 28 -49c7 0 18 1 25 2z" />
    <glyph glyph-name="Euro" unicode="&#x20ac;" horiz-adv-x="574" 
d="M545 6c-39 -13 -132 -22 -180 -22c-170 0 -272 56 -288 282h-49v69h48v74h-48v70h49c15 225 107 280 277 280c59 0 152 -8 191 -22v-186h-129l-7 29c-6 0 -13 1 -20 1c-49 0 -75 -9 -81 -102h218l-14 -70h-206v-74h191l-14 -69h-175c7 -96 32 -103 92 -103
c46 0 98 2 145 4v-161z" />
    <glyph glyph-name="sterling" unicode="&#xa3;" horiz-adv-x="560" 
d="M532 0h-489v126c30 29 44 61 44 105v70h-58v152h58v43c0 196 79 265 247 265c53 0 128 -7 198 -25v-190h-132l-9 41h-17c-57 0 -68 -14 -68 -88v-46h136v-152h-136v-70c0 -30 -6 -52 -16 -69h242v-162z" />
    <glyph glyph-name="yen" unicode="&#xa5;" horiz-adv-x="666" 
d="M634 195h-192v-68l35 -5v-122h-294v122l38 6v67h-192v116h173l-31 71h-142v116h93l-38 100l-58 9v136h232l46 -162c9 -34 19 -83 26 -116h2c8 33 17 82 26 116l46 162h236v-136l-62 -9l-38 -100h94v-116h-143l-32 -71h175v-116z" />
    <glyph glyph-name="florin" unicode="&#x192;" horiz-adv-x="569" 
d="M542 742l-13 -122c-29 1 -44 1 -61 1c-35 0 -43 -6 -47 -46l-12 -110h108l-17 -144h-107l-33 -319c-15 -145 -93 -183 -198 -183c-62 0 -107 10 -135 18l13 121c28 -1 44 -1 61 -1c34 0 43 5 47 46l33 318h-99l16 144h99l11 111c15 145 100 183 200 183
c60 0 106 -10 134 -17z" />
    <glyph glyph-name="cent" unicode="&#xa2;" horiz-adv-x="479" 
d="M450 13c-22 -8 -60 -15 -103 -20v-101h-176v108c-100 29 -143 112 -143 257v68c0 143 43 227 143 256v108h176v-100c48 -6 88 -16 103 -20v-166h-125l-7 30h-13c-53 0 -66 -16 -66 -108v-68c0 -93 13 -109 66 -109c42 0 100 3 145 5v-140z" />
    <glyph glyph-name="peseta" unicode="&#x20a7;" horiz-adv-x="688" 
d="M332 0h-296v145l35 6v278h-46v138h46v49l-35 6v121c86 9 184 12 273 12c151 0 280 -30 306 -188h51v-138h-51c-26 -158 -152 -191 -278 -191h-45v-87l40 -6v-145zM400 494v8c0 65 -17 84 -73 84c-11 0 -25 -1 -35 -1v-176c11 -1 24 -1 37 -1c54 0 71 27 71 86z" />
    <glyph glyph-name="peseta.taboldstyle" unicode="&#xe439;" horiz-adv-x="645" 
d="M620 339h-53c-27 -129 -140 -156 -251 -156c-14 0 -25 1 -42 1v-184h-237v133l30 5v201h-42v122h42v37l-34 6v101c72 7 165 13 255 13c137 0 256 -26 280 -157h52v-122zM365 398v9c0 43 -14 56 -57 56c-12 0 -25 0 -34 -1v-121c9 -1 22 -2 34 -2c42 0 57 19 57 59z" />
    <glyph glyph-name="franc" unicode="&#x20a3;" horiz-adv-x="542" 
d="M512 297h-224v-76h98v-112h-98v-109h-228v109h-35v112h35v373l-35 5v144h490v-199h-133l-7 30h-87v-120h224v-157z" />
    <glyph glyph-name="franc.taboldstyle" unicode="&#xe431;" horiz-adv-x="548" 
d="M513 237h-202v-56h98v-98h-98v-83h-223v83h-55v98h55v292l-33 6v133h460v-183h-112l-6 27h-86v-76h202v-143z" />
    <glyph glyph-name="rupiah" unicode="&#xf6dd;" horiz-adv-x="1225" 
d="M316 0h-289v146l35 4v443l-35 4v146c82 7 173 12 269 12c165 0 312 -37 312 -250v-8c0 -99 -31 -159 -82 -199l58 -147l47 -5v-146h-210l-95 253h-45v-103l35 -4v-146zM387 495v7c0 63 -13 84 -73 84c-13 0 -20 0 -33 -1v-177h36c59 0 70 31 70 87zM931 -196h-279v144
l34 4v482l-34 5v143h226v-34c46 34 101 46 145 46c116 0 172 -65 172 -260v-81c0 -181 -73 -265 -244 -265c-19 0 -42 2 -54 3v-39l34 -4v-144zM983 253v81c0 83 -7 99 -46 99c-12 0 -30 -2 -45 -11v-272c12 -2 22 -3 33 -3c45 0 58 13 58 106z" />
    <glyph glyph-name="currency" unicode="&#xa4;" horiz-adv-x="607" 
d="M576 187l-86 -79l-76 71c-33 -17 -64 -28 -108 -28c-48 0 -76 9 -109 29l-80 -76l-86 80l80 76c-18 32 -27 67 -27 104c0 36 7 64 27 102l-81 76l86 79l80 -75c34 20 72 28 110 28c39 0 76 -8 109 -27l77 72l85 -80l-78 -72c21 -30 31 -68 31 -104s-10 -72 -30 -105z
M404 364c0 64 -45 95 -98 95c-54 0 -99 -31 -99 -95c0 -69 47 -96 99 -96c50 0 98 27 98 96z" />
    <glyph glyph-name="quotesingle" unicode="'" horiz-adv-x="254" 
d="M244 777l-78 -269h-156l49 269h185z" />
    <glyph glyph-name="degree" unicode="&#xb0;" horiz-adv-x="371" 
d="M35 611c0 83 67 150 150 150s150 -67 150 -150s-67 -151 -150 -151s-150 68 -150 151zM124 610c0 -33 28 -61 61 -61c34 0 62 28 62 61c0 34 -28 62 -62 62c-33 0 -61 -28 -61 -62z" />
    <glyph glyph-name="perthousand" unicode="&#x2030;" horiz-adv-x="1403" 
d="M1374 195c0 -124 -42 -208 -179 -208c-138 0 -180 84 -180 208v30c0 124 42 208 180 208c137 0 179 -84 179 -208v-30zM1224 195v30c0 86 -6 102 -29 102s-30 -16 -30 -102v-30c0 -86 7 -101 30 -101s29 15 29 101zM974 195c0 -124 -41 -208 -178 -208
c-139 0 -179 84 -179 208v30c0 124 40 208 179 208c137 0 178 -84 178 -208v-30zM825 195v30c0 86 -7 102 -29 102c-24 0 -30 -16 -30 -102v-30c0 -86 6 -101 30 -101c22 0 29 15 29 101zM781 745l-393 -745h-170l394 745h169zM386 522c0 -123 -39 -208 -178 -208
c-140 0 -179 86 -179 208v29c0 122 39 208 179 208c139 0 178 -85 178 -208v-29zM238 522v30c0 86 -6 102 -30 102s-30 -17 -30 -102v-30c0 -86 6 -102 30 -102s30 16 30 102z" />
    <glyph glyph-name="litre" unicode="&#x2113;" horiz-adv-x="539" 
d="M511 42c-43 -32 -105 -61 -197 -61c-113 0 -196 43 -196 186v17l-49 -38l-28 58l77 70v339c0 128 66 180 203 180c133 0 183 -51 183 -142c0 -103 -68 -211 -175 -310v-171c0 -57 16 -76 57 -76c22 0 48 10 72 26zM431 650c0 34 -7 64 -49 64c-51 0 -53 -39 -53 -101
v-180c68 71 102 149 102 217z" />
    <glyph glyph-name="estimated" unicode="&#x212e;" horiz-adv-x="633" 
d="M605 282h-452v-193c45 -40 97 -63 160 -63c118 0 174 59 222 127l32 -19c-55 -81 -122 -141 -254 -141c-171 0 -285 133 -285 290c0 159 110 290 289 290c180 0 288 -134 288 -291zM479 315v163c-38 33 -100 62 -162 62c-63 0 -122 -21 -164 -62v-163h326z" />
    <glyph glyph-name="multiply" unicode="&#xd7;" horiz-adv-x="542" 
d="M501 271l-109 -102l-121 115l-121 -115l-109 102l120 115l-120 115l109 102l121 -114l121 114l109 -103l-121 -114z" />
    <glyph glyph-name="divide" unicode="&#xf7;" horiz-adv-x="542" 
d="M373 59h-205v160h205v-160zM489 310v154h-437v-154h437zM373 554h-205v160h205v-160z" />
    <glyph glyph-name="minus" unicode="&#x2212;" horiz-adv-x="542" 
d="M489 310h-437v154h437v-154z" />
    <glyph glyph-name="plusminus" unicode="&#xb1;" horiz-adv-x="542" 
d="M498 0h-454v128h454v-128zM499 354h-145v-154h-164v154h-147v154h147v155h164v-155h145v-154z" />
    <glyph glyph-name="notequal" unicode="&#x2260;" horiz-adv-x="542" 
d="M490 157h-184l-41 -162h-190l40 162h-63v154h105l35 141h-140v154h182l36 142h190l-37 -142h67v-154h-107l-36 -141h143v-154z" />
    <glyph glyph-name="lessequal" unicode="&#x2264;" horiz-adv-x="542" 
d="M500 0h-449v128h449v-128zM474 189h-212l-220 232l220 231h212l-217 -231z" />
    <glyph glyph-name="greaterequal" unicode="&#x2265;" horiz-adv-x="542" 
d="M491 0h-449v128h449v-128zM500 421l-219 -232h-212l217 232l-217 231h212z" />
    <glyph glyph-name="approxequal" unicode="&#x2248;" horiz-adv-x="542" 
d="M486 572c0 -102 -61 -139 -119 -139c-35 0 -65 4 -94 19l-38 20c-13 7 -24 13 -35 13c-16 0 -21 -9 -21 -30v-20h-124v20c0 102 55 139 120 139c31 0 59 -5 92 -23l37 -20c15 -8 24 -11 37 -11c16 0 22 11 22 32v19h123v-19zM486 328c0 -102 -61 -139 -119 -139
c-35 0 -65 4 -94 19l-38 20c-13 7 -24 13 -35 13c-16 0 -21 -9 -21 -30v-20h-124v20c0 102 55 139 120 139c31 0 59 -5 92 -23l37 -20c15 -8 24 -11 37 -11c16 0 22 11 22 32v19h123v-19z" />
    <glyph glyph-name="logicalnot" unicode="&#xac;" horiz-adv-x="542" 
d="M486 157h-168v295h-263v154h431v-449z" />
    <glyph glyph-name="brokenbar" unicode="&#xa6;" horiz-adv-x="280" 
d="M245 -196h-211v374h211v-374zM245 369h-211v374h211v-374z" />
    <glyph glyph-name="infinity" unicode="&#x221e;" horiz-adv-x="619" 
d="M581 365c0 -78 -9 -254 -166 -254h-5c-40 0 -77 16 -103 45c-24 -31 -62 -46 -101 -46h-6c-154 0 -163 158 -163 255v24c0 76 8 254 165 254h7c39 0 76 -17 101 -47c25 34 62 48 102 48h5c154 0 164 -158 164 -256v-23zM447 365v23c0 95 -1 135 -35 135h-3
c-23 0 -30 -33 -40 -142c-4 -45 -6 -54 -14 -123c13 -22 30 -29 47 -29h4c38 0 41 53 41 136zM264 494c-12 20 -31 31 -48 31h-4c-38 0 -41 -57 -41 -136v-24c0 -89 1 -135 35 -135h4c22 0 27 28 39 145c4 39 7 51 15 119z" />
    <glyph glyph-name="partialdiff" unicode="&#x2202;" horiz-adv-x="589" 
d="M560 443c0 -203 -42 -455 -307 -455c-139 0 -224 60 -224 199c0 32 3 63 9 97c32 192 138 244 257 244c36 0 52 -4 65 -8c-8 96 -56 149 -173 149c-20 0 -44 -2 -70 -6l14 120c35 6 70 9 103 9c228 0 326 -147 326 -349zM341 324c0 34 -11 44 -35 44
c-35 0 -49 -27 -60 -104c-5 -31 -8 -56 -8 -75c0 -33 11 -42 36 -42c33 0 48 24 61 109c4 29 6 52 6 68z" />
    <glyph glyph-name="mu" unicode="&#xb5;" horiz-adv-x="630" 
d="M357 582h213v-434l33 -5v-143h-231v43c-22 -17 -48 -32 -78 -40c-8 -2 -16 -3 -22 -4v-47l34 -4v-144h-279v144l34 4v483l-34 4v143h245v-384c0 -39 7 -50 34 -50c16 0 36 7 51 16v418z" />
    <glyph glyph-name="Delta" unicode="&#x2206;" horiz-adv-x="674" 
d="M650 0h-626l135 743h355zM399 159l-48 330c-5 36 -10 81 -14 115h-2c-3 -34 -8 -79 -13 -115l-48 -330h125z" />
    <glyph glyph-name="Omega" unicode="&#x2126;" horiz-adv-x="667" 
d="M638 405c0 -132 -39 -205 -124 -240v-30h105v-135h-258v241c47 9 55 61 55 152v69c0 87 -24 119 -82 119c-59 0 -82 -32 -82 -119v-69c0 -91 7 -143 54 -152v-241h-258v135h105v30c-84 35 -125 108 -125 240v68c0 207 115 286 306 286s304 -79 304 -286v-68z" />
    <glyph glyph-name="summation" unicode="&#x2211;" horiz-adv-x="517" 
d="M486 -55h-455v170l165 234l-165 224v170h455v-170h-225l130 -183v-85l-130 -190h225v-170z" />
    <glyph glyph-name="product" unicode="&#x220f;" horiz-adv-x="723" 
d="M696 564h-65v-619h-218v619h-103v-619h-218v619h-65v179h669v-179z" />
    <glyph glyph-name="integral" unicode="&#x222b;" horiz-adv-x="446" 
d="M417 658c-23 1 -41 2 -51 2c-34 0 -37 -5 -37 -41v-653c0 -126 -53 -174 -159 -174c-55 0 -107 8 -141 17v120c23 -2 41 -3 51 -3c34 0 37 6 37 42v653c0 126 53 174 159 174c55 0 107 -9 141 -17v-120z" />
    <glyph glyph-name="radical" unicode="&#x221a;" horiz-adv-x="758" 
d="M731 870l-244 -930h-234l-108 420h-117v154h251l91 -375l178 731h183z" />
    <glyph glyph-name="lozenge" unicode="&#x25ca;" horiz-adv-x="563" 
d="M534 371l-253 -330l-251 330l251 335zM375 371l-94 129l-92 -129l92 -130z" />
    <glyph glyph-name="uni00A0" unicode="&#xa0;" horiz-adv-x="187" 
 />
    <glyph glyph-name="Acute.sc" unicode="&#xe092;" horiz-adv-x="394" 
d="M365 778l-137 -136h-186l101 136h222z" />
    <glyph glyph-name="Breve.sc" unicode="&#xe082;" horiz-adv-x="477" 
d="M448 788c-21 -117 -123 -150 -209 -150s-189 33 -211 150h128c9 -45 43 -56 83 -56s73 11 82 56h127z" />
    <glyph glyph-name="Caron.sc" unicode="&#xe083;" horiz-adv-x="496" 
d="M473 778l-105 -136h-240l-105 136h169l56 -64l55 64h170z" />
    <glyph glyph-name="Cedilla.sc" unicode="&#xe093;" horiz-adv-x="364" 
d="M321 -57l-108 -139h-183l80 139h211z" />
    <glyph glyph-name="Circumflex.sc" unicode="&#xe084;" horiz-adv-x="496" 
d="M473 642h-170l-55 64l-56 -64h-169l105 136h240z" />
    <glyph glyph-name="commaaccent.sc" unicode="&#xe469;" horiz-adv-x="347" 
d="M303 -57l-90 -139h-177l59 139h208z" />
    <glyph glyph-name="Dieresis.sc" unicode="&#xe090;" horiz-adv-x="467" 
d="M438 643h-163v132h163v-132zM192 643v132h-163v-132h163z" />
    <glyph glyph-name="DieresisAcute.sc" unicode="&#xe467;" horiz-adv-x="653" 
d="M14 672h154v132h-154v-132zM182 666l80 142h212l-116 -142h-176zM486 672h153v132h-153v-132z" />
    <glyph glyph-name="DieresisGrave.sc" unicode="&#xe468;" horiz-adv-x="653" 
d="M639 672h-154v132h154v-132zM391 808l80 -142h-176l-116 142h212zM167 672h-153v132h153v-132z" />
    <glyph glyph-name="Dotaccent.sc" unicode="&#xe085;" horiz-adv-x="313" 
d="M267 651h-221v128h221v-128z" />
    <glyph glyph-name="Hungarumlaut.sc" unicode="&#xe086;" horiz-adv-x="624" 
d="M596 778l-138 -137h-172l101 137h209zM351 778l-138 -137h-172l101 137h209z" />
    <glyph glyph-name="Grave.sc" unicode="&#xe08e;" horiz-adv-x="394" 
d="M350 642h-185l-138 136h222z" />
    <glyph glyph-name="dblGrave.sc" unicode="&#xe46a;" horiz-adv-x="624" 
d="M596 642h-172l-138 136h209zM321 642l-102 136h-208l137 -136h173z" />
    <glyph glyph-name="Macron.sc" unicode="&#xe091;" horiz-adv-x="431" 
d="M403 651h-375v119h375v-119z" />
    <glyph glyph-name="Ogonek.sc" unicode="&#xe087;" horiz-adv-x="375" 
d="M340 -187c-38 -12 -94 -22 -150 -22c-93 0 -153 28 -153 95c0 51 42 96 150 126l153 -12c-103 -29 -119 -53 -119 -72c0 -17 12 -23 46 -23c26 0 55 3 73 4v-96z" />
    <glyph glyph-name="Ring.sc" unicode="&#xe088;" horiz-adv-x="360" 
d="M327 752c0 -83 -63 -127 -147 -127s-147 44 -147 127c0 81 63 128 147 128s147 -46 147 -128zM229 753c0 28 -19 45 -49 45s-49 -17 -49 -45s19 -46 49 -46s49 18 49 46z" />
    <glyph glyph-name="Tilde.sc" unicode="&#xe089;" horiz-adv-x="472" 
d="M452 777c0 -102 -61 -139 -119 -139c-35 0 -65 4 -94 19l-38 20c-13 7 -24 13 -35 13c-16 0 -21 -9 -21 -30v-20h-124v20c0 102 55 139 120 139c31 0 59 -5 92 -23l37 -20c15 -8 24 -11 37 -11c16 0 22 11 22 32v19h123v-19z" />
    <glyph glyph-name="middot" unicode="&#x387;" horiz-adv-x="261" 
d="M231 279h-200v176h200v-176z" />
    <glyph glyph-name="A.sc" unicode="&#xe000;" 
d="M583 0h-217l-17 113h-90l-17 -113h-217v128l36 5l57 317l-29 3v133h372l85 -453l37 -5v-128zM336 246l-21 138c-5 31 -8 53 -11 87h-1c-4 -34 -7 -59 -11 -87l-21 -138h65z" />
    <glyph glyph-name="Aacute.sc" unicode="&#xe002;" 
d="M583 0h-217l-17 113h-90l-17 -113h-217v128l36 5l57 317l-29 3v133h372l85 -453l37 -5v-128zM336 246l-21 138c-5 31 -8 53 -11 87h-1c-4 -34 -7 -59 -11 -87l-21 -138h65zM519 784l-138 -136h-185l101 136h222z" />
    <glyph glyph-name="Abreve.sc" unicode="&#xe040;" 
d="M583 0h-217l-17 113h-90l-17 -113h-217v128l36 5l57 317l-29 3v133h372l85 -453l37 -5v-128zM336 246l-21 138c-5 31 -8 53 -11 87h-1c-4 -34 -7 -59 -11 -87l-21 -138h65zM513 793c-21 -117 -124 -150 -210 -150s-189 33 -210 150h128c9 -45 42 -56 82 -56s74 11 83 56
h127z" />
    <glyph glyph-name="Acircumflex.sc" unicode="&#xe003;" 
d="M583 0h-217l-17 113h-90l-17 -113h-217v128l36 5l57 317l-29 3v133h372l85 -453l37 -5v-128zM336 246l-21 138c-5 31 -8 53 -11 87h-1c-4 -34 -7 -59 -11 -87l-21 -138h65zM528 648h-169l-56 64l-55 -64h-170l105 136h240z" />
    <glyph glyph-name="Adieresis.sc" unicode="&#xe004;" 
d="M583 0h-217l-17 113h-90l-17 -113h-217v128l36 5l57 317l-29 3v133h372l85 -453l37 -5v-128zM336 246l-21 138c-5 31 -8 53 -11 87h-1c-4 -34 -7 -59 -11 -87l-21 -138h65zM500 648h-163v132h163v-132zM270 648v132h-164v-132h164z" />
    <glyph glyph-name="Agrave.sc" unicode="&#xe005;" 
d="M583 0h-217l-17 113h-90l-17 -113h-217v128l36 5l57 317l-29 3v133h372l85 -453l37 -5v-128zM336 246l-21 138c-5 31 -8 53 -11 87h-1c-4 -34 -7 -59 -11 -87l-21 -138h65zM410 648h-185l-138 136h222z" />
    <glyph glyph-name="Amacron.sc" unicode="&#xe041;" 
d="M583 0h-217l-17 113h-90l-17 -113h-217v128l36 5l57 317l-29 3v133h372l85 -453l37 -5v-128zM336 246l-21 138c-5 31 -8 53 -11 87h-1c-4 -34 -7 -59 -11 -87l-21 -138h65zM491 653h-376v119h376v-119z" />
    <glyph glyph-name="Aogonek.sc" unicode="&#xe042;" 
d="M583 -187c-38 -12 -94 -22 -150 -22c-93 0 -153 28 -153 95c0 45 32 85 112 114h-26l-17 113h-90l-17 -113h-217v128l36 5l57 317l-29 3v133h372l85 -453l37 -5v-128c-103 -29 -119 -53 -119 -72c0 -17 12 -23 46 -23c26 0 55 3 73 4v-96zM336 246l-21 138
c-5 31 -8 53 -11 87h-1c-4 -34 -7 -58 -11 -87l-21 -138h65z" />
    <glyph glyph-name="Aring.sc" unicode="&#xe006;" 
d="M583 0h-217l-17 113h-90l-17 -113h-217v128l36 5l57 317l-29 3v133h372l85 -453l37 -5v-128zM336 246l-21 138c-5 31 -8 53 -11 87h-1c-4 -34 -7 -59 -11 -87l-21 -138h65zM450 756c0 -83 -63 -127 -147 -127s-147 44 -147 127c0 81 63 128 147 128s147 -46 147 -128z
M352 757c0 28 -19 45 -49 45s-49 -17 -49 -45s19 -46 49 -46s49 18 49 46z" />
    <glyph glyph-name="Atilde.sc" unicode="&#xe007;" 
d="M583 0h-217l-17 113h-90l-17 -113h-217v128l36 5l57 317l-29 3v133h372l85 -453l37 -5v-128zM336 246l-21 138c-5 31 -8 53 -11 87h-1c-4 -34 -7 -59 -11 -87l-21 -138h65zM518 784c0 -102 -61 -139 -119 -139c-35 0 -65 4 -94 19l-38 20c-13 7 -24 13 -35 13
c-16 0 -21 -9 -21 -30v-20h-124v20c0 102 55 139 120 139c31 0 59 -5 92 -23l37 -20c15 -8 24 -11 37 -11c16 0 22 11 22 32v19h123v-19z" />
    <glyph glyph-name="AE.sc" unicode="&#xe001;" horiz-adv-x="750" 
d="M722 586v-163h-114l-6 22h-70v-83h175v-131h-175v-90h70l6 22h114v-163h-391v113h-72l-18 -113h-215v128l35 5l58 317l-30 4v132h633zM331 470h-29c-2 -26 -6 -58 -10 -83l-21 -141h60v224z" />
    <glyph glyph-name="AEacute.sc" unicode="&#xe043;" horiz-adv-x="750" 
d="M722 586v-163h-114l-6 22h-70v-83h175v-131h-175v-90h70l6 22h114v-163h-391v113h-72l-18 -113h-215v128l35 5l58 317l-30 4v132h633zM331 470h-29c-2 -26 -6 -58 -10 -83l-21 -141h60v224zM627 785l-138 -136h-185l101 136h222z" />
    <glyph glyph-name="B.sc" unicode="&#xe008;" horiz-adv-x="557" 
d="M530 177c0 -148 -98 -189 -269 -189c-59 0 -139 4 -234 14v126l28 4v322l-28 5v127c93 9 173 12 234 12c175 0 267 -40 267 -177v-7c0 -53 -19 -90 -52 -115c42 -25 54 -75 54 -112v-10zM338 178v11c0 40 -11 54 -51 54h-40v-118c15 -1 25 -1 33 -1c47 0 58 14 58 54z
M338 404v10c0 38 -13 50 -58 50h-33v-111h40c42 0 51 17 51 51z" />
    <glyph glyph-name="C.sc" unicode="&#xe009;" horiz-adv-x="467" 
d="M439 4c-32 -10 -125 -18 -164 -18c-169 0 -247 66 -247 276v62c0 211 78 276 247 276c39 0 132 -8 164 -18v-165h-114l-7 32h-14c-49 0 -74 -15 -74 -125v-62c0 -111 25 -125 75 -125h13l7 33h114v-166z" />
    <glyph glyph-name="Cacute.sc" unicode="&#xe044;" horiz-adv-x="467" 
d="M439 4c-32 -10 -125 -18 -164 -18c-169 0 -247 66 -247 276v62c0 211 78 276 247 276c39 0 132 -8 164 -18v-165h-114l-7 32h-14c-49 0 -74 -15 -74 -125v-62c0 -111 25 -125 75 -125h13l7 33h114v-166zM467 785l-138 -136h-185l101 136h222z" />
    <glyph glyph-name="Ccaron.sc" unicode="&#xe045;" horiz-adv-x="467" 
d="M439 4c-32 -10 -125 -18 -164 -18c-169 0 -247 66 -247 276v62c0 211 78 276 247 276c39 0 132 -8 164 -18v-165h-114l-7 32h-14c-49 0 -74 -15 -74 -125v-62c0 -111 25 -125 75 -125h13l7 33h114v-166zM480 785l-105 -136h-240l-105 136h170l55 -64l56 64h169z" />
    <glyph glyph-name="Ccedilla.sc" unicode="&#xe00a;" horiz-adv-x="467" 
d="M439 4c-32 -10 -125 -18 -164 -18c-169 0 -247 66 -247 276v62c0 211 78 276 247 276c39 0 132 -8 164 -18v-165h-114l-7 32h-14c-49 0 -74 -15 -74 -125v-62c0 -111 25 -125 75 -125h13l7 33h114v-166zM387 -57l-109 -139h-182l79 139h212z" />
    <glyph glyph-name="Ccircumflex.sc" unicode="&#xe046;" horiz-adv-x="467" 
d="M439 4c-32 -10 -125 -18 -164 -18c-169 0 -247 66 -247 276v62c0 211 78 276 247 276c39 0 132 -8 164 -18v-165h-114l-7 32h-14c-49 0 -74 -15 -74 -125v-62c0 -111 25 -125 75 -125h13l7 33h114v-166zM481 649h-169l-56 64l-55 -64h-170l105 136h240z" />
    <glyph glyph-name="Cdotaccent.sc" unicode="&#xe047;" horiz-adv-x="467" 
d="M439 4c-32 -10 -125 -18 -164 -18c-169 0 -247 66 -247 276v62c0 211 78 276 247 276c39 0 132 -8 164 -18v-165h-114l-7 32h-14c-49 0 -74 -15 -74 -125v-62c0 -111 25 -125 75 -125h13l7 33h114v-166zM370 653h-220v128h220v-128z" />
    <glyph glyph-name="D.sc" unicode="&#xe00b;" horiz-adv-x="563" 
d="M535 270c0 -210 -82 -283 -275 -283c-86 0 -160 5 -233 15v127l31 4v321l-31 5v127c78 8 151 12 233 12c193 0 275 -71 275 -278v-50zM338 267v57c0 109 -6 128 -64 128h-22v-318h22c58 0 64 24 64 133z" />
    <glyph glyph-name="Dcaron.sc" unicode="&#xe048;" horiz-adv-x="563" 
d="M535 270c0 -210 -82 -283 -275 -283c-86 0 -160 5 -233 15v127l31 4v321l-31 5v127c78 8 151 12 233 12c193 0 275 -71 275 -278v-50zM338 267v57c0 109 -6 128 -64 128h-22v-318h22c58 0 64 24 64 133zM506 785l-105 -136h-240l-105 136h170l55 -64l56 64h169z" />
    <glyph glyph-name="Dcroat.sc" unicode="&#xe049;" horiz-adv-x="563" 
d="M535 270c0 -211 -82 -283 -275 -283c-86 0 -160 5 -232 15v127l30 4v98h-33v130h33v93l-30 5v127c78 8 150 12 232 12c192 0 275 -71 275 -278v-50zM338 270v50c0 112 -6 132 -64 132h-22v-91h42v-130h-42v-97h23c58 0 63 24 63 136z" />
    <glyph glyph-name="Eth.sc" unicode="&#xe00c;" horiz-adv-x="563" 
d="M535 270c0 -211 -82 -283 -275 -283c-86 0 -160 5 -232 15v127l30 4v98h-33v130h33v93l-30 5v127c78 8 150 12 232 12c192 0 275 -71 275 -278v-50zM338 270v50c0 112 -6 132 -64 132h-22v-91h42v-130h-42v-97h23c58 0 63 24 63 136z" />
    <glyph glyph-name="E.sc" unicode="&#xe00d;" horiz-adv-x="470" 
d="M441 0h-414v128l25 4v323l-25 4v127h414v-163h-114l-5 22h-70v-83h177v-131h-177v-90h70l5 22h114v-163z" />
    <glyph glyph-name="Eacute.sc" unicode="&#xe00e;" horiz-adv-x="470" 
d="M441 0h-414v128l25 4v323l-25 4v127h414v-163h-114l-5 22h-70v-83h177v-131h-177v-90h70l5 22h114v-163zM466 785l-138 -136h-185l101 136h222z" />
    <glyph glyph-name="Ebreve.sc" unicode="&#xe04a;" horiz-adv-x="470" 
d="M441 0h-414v128l25 4v323l-25 4v127h414v-163h-114l-5 22h-70v-83h177v-131h-177v-90h70l5 22h114v-163zM465 793c-21 -117 -124 -150 -210 -150s-189 33 -210 150h128c9 -45 42 -56 82 -56s74 11 83 56h127z" />
    <glyph glyph-name="Ecaron.sc" unicode="&#xe04b;" horiz-adv-x="470" 
d="M441 0h-414v128l25 4v323l-25 4v127h414v-163h-114l-5 22h-70v-83h177v-131h-177v-90h70l5 22h114v-163zM479 785l-105 -136h-240l-105 136h170l55 -64l56 64h169z" />
    <glyph glyph-name="Ecircumflex.sc" unicode="&#xe00f;" horiz-adv-x="470" 
d="M441 0h-414v128l25 4v323l-25 4v127h414v-163h-114l-5 22h-70v-83h177v-131h-177v-90h70l5 22h114v-163zM474 649h-169l-56 64l-55 -64h-170l105 136h240z" />
    <glyph glyph-name="Edieresis.sc" unicode="&#xe010;" horiz-adv-x="470" 
d="M441 0h-414v128l25 4v323l-25 4v127h414v-163h-114l-5 22h-70v-83h177v-131h-177v-90h70l5 22h114v-163zM442 648h-163v132h163v-132zM212 648v132h-164v-132h164z" />
    <glyph glyph-name="Edotaccent.sc" unicode="&#xe04c;" horiz-adv-x="470" 
d="M441 0h-414v128l25 4v323l-25 4v127h414v-163h-114l-5 22h-70v-83h177v-131h-177v-90h70l5 22h114v-163zM360 653h-220v128h220v-128z" />
    <glyph glyph-name="Egrave.sc" unicode="&#xe011;" horiz-adv-x="470" 
d="M441 0h-414v128l25 4v323l-25 4v127h414v-163h-114l-5 22h-70v-83h177v-131h-177v-90h70l5 22h114v-163zM355 649h-185l-138 136h222z" />
    <glyph glyph-name="Emacron.sc" unicode="&#xe04d;" horiz-adv-x="470" 
d="M441 0h-414v128l25 4v323l-25 4v127h414v-163h-114l-5 22h-70v-83h177v-131h-177v-90h70l5 22h114v-163zM432 653h-376v119h376v-119z" />
    <glyph glyph-name="Eogonek.sc" unicode="&#xe04f;" horiz-adv-x="470" 
d="M441 -187c-38 -12 -94 -22 -150 -22c-93 0 -153 28 -153 95c0 45 32 85 112 114h-223v128l25 4v323l-25 4v127h414v-163h-114l-5 22h-70v-83h177v-131h-177v-90h70l5 22h114v-163c-103 -29 -119 -53 -119 -72c0 -17 12 -23 46 -23c26 0 55 3 73 4v-96z" />
    <glyph glyph-name="F.sc" unicode="&#xe012;" horiz-adv-x="472" 
d="M439 229h-184v-97l28 -4v-128h-256v128l28 4v322l-28 5v127h417v-164h-113l-6 22h-70v-84h184v-131z" />
    <glyph glyph-name="G.sc" unicode="&#xe013;" horiz-adv-x="523" 
d="M494 4c-51 -9 -133 -18 -216 -18c-129 0 -250 35 -250 276v63c0 256 149 275 259 275c78 0 162 -15 202 -26v-157h-113l-7 30c-13 1 -25 1 -35 1c-83 0 -108 -12 -108 -125v-61c0 -100 9 -127 51 -127c10 0 22 0 33 1v72l-33 6v105h217v-315z" />
    <glyph glyph-name="Gbreve.sc" unicode="&#xe050;" horiz-adv-x="523" 
d="M494 4c-51 -9 -133 -18 -216 -18c-129 0 -250 35 -250 276v63c0 256 149 275 259 275c78 0 162 -15 202 -26v-157h-113l-7 30c-13 1 -25 1 -35 1c-83 0 -108 -12 -108 -125v-61c0 -100 9 -127 51 -127c10 0 22 0 33 1v72l-33 6v105h217v-315zM502 794
c-21 -117 -124 -150 -210 -150s-189 33 -210 150h128c9 -45 42 -56 82 -56s74 11 83 56h127z" />
    <glyph glyph-name="Gcircumflex.sc" unicode="&#xe051;" horiz-adv-x="523" 
d="M494 4c-51 -9 -133 -18 -216 -18c-129 0 -250 35 -250 276v63c0 256 149 275 259 275c78 0 162 -15 202 -26v-157h-113l-7 30c-13 1 -25 1 -35 1c-83 0 -108 -12 -108 -125v-61c0 -100 9 -127 51 -127c10 0 22 0 33 1v72l-33 6v105h217v-315zM512 649h-169l-56 64
l-55 -64h-170l105 136h240z" />
    <glyph glyph-name="Gcommaaccent.sc" unicode="&#xe052;" horiz-adv-x="523" 
d="M494 4c-51 -9 -133 -18 -216 -18c-129 0 -250 35 -250 276v63c0 256 149 275 259 275c78 0 162 -15 202 -26v-157h-113l-7 30c-13 1 -25 1 -35 1c-83 0 -108 -12 -108 -125v-61c0 -100 9 -127 51 -127c10 0 22 0 33 1v72l-33 6v105h217v-315zM395 -57l-91 -139h-177
l60 139h208z" />
    <glyph glyph-name="Gdotaccent.sc" unicode="&#xe053;" horiz-adv-x="523" 
d="M494 4c-51 -9 -133 -18 -216 -18c-129 0 -250 35 -250 276v63c0 256 149 275 259 275c78 0 162 -15 202 -26v-157h-113l-7 30c-13 1 -25 1 -35 1c-83 0 -108 -12 -108 -125v-61c0 -100 9 -127 51 -127c10 0 22 0 33 1v72l-33 6v105h217v-315zM401 653h-220v128h220v-128z
" />
    <glyph glyph-name="H.sc" unicode="&#xe014;" horiz-adv-x="620" 
d="M593 0h-230v225h-107v-225h-229v129l28 4v321l-28 5v127h229v-215h107v215h230v-127l-28 -5v-321l28 -4v-129z" />
    <glyph glyph-name="Hbar.sc" unicode="&#xe054;" horiz-adv-x="620" 
d="M603 428h-39v-295l28 -4v-129h-229v225h-107v-225h-229v129l28 4v295h-38v100h38v58h201v-58h107v58h201v-58h39v-100zM363 371v57h-107v-57h107z" />
    <glyph glyph-name="Hcircumflex.sc" unicode="&#xe055;" horiz-adv-x="620" 
d="M593 0h-230v225h-107v-225h-229v129l28 4v321l-28 5v127h229v-215h107v215h230v-127l-28 -5v-321l28 -4v-129zM534 642h-169l-56 64l-55 -64h-170l105 136h240z" />
    <glyph glyph-name="I.sc" unicode="&#xe015;" horiz-adv-x="311" 
d="M284 0h-257v128l28 4v322l-28 5v127h257v-127l-28 -5v-322l28 -4v-128z" />
    <glyph glyph-name="Iacute.sc" unicode="&#xe016;" horiz-adv-x="311" 
d="M284 0h-257v128l28 4v322l-28 5v127h257v-127l-28 -5v-322l28 -4v-128zM363 785l-138 -136h-185l101 136h222z" />
    <glyph glyph-name="Ibreve.sc" unicode="&#xe056;" horiz-adv-x="311" 
d="M284 0h-257v128l28 4v322l-28 5v127h257v-127l-28 -5v-322l28 -4v-128zM365 793c-21 -117 -124 -150 -210 -150s-189 33 -210 150h128c9 -45 42 -56 82 -56s74 11 83 56h127z" />
    <glyph glyph-name="Icircumflex.sc" unicode="&#xe017;" horiz-adv-x="311" 
d="M284 0h-257v128l28 4v322l-28 5v127h257v-127l-28 -5v-322l28 -4v-128zM380 649h-169l-56 64l-55 -64h-170l105 136h240z" />
    <glyph glyph-name="Idieresis.sc" unicode="&#xe018;" horiz-adv-x="311" 
d="M284 0h-257v128l28 4v322l-28 5v127h257v-127l-28 -5v-322l28 -4v-128zM352 649h-163v132h163v-132zM122 649v132h-164v-132h164z" />
    <glyph glyph-name="Idotaccent.sc" unicode="&#xe081;" horiz-adv-x="311" 
d="M284 0h-257v128l28 4v322l-28 5v127h257v-127l-28 -5v-322l28 -4v-128zM266 653h-220v128h220v-128z" />
    <glyph glyph-name="Igrave.sc" unicode="&#xe019;" horiz-adv-x="311" 
d="M284 0h-257v128l28 4v322l-28 5v127h257v-127l-28 -5v-322l28 -4v-128zM280 649h-185l-138 136h222z" />
    <glyph glyph-name="Imacron.sc" unicode="&#xe059;" horiz-adv-x="311" 
d="M284 0h-257v128l28 4v322l-28 5v127h257v-127l-28 -5v-322l28 -4v-128zM343 653h-376v119h376v-119z" />
    <glyph glyph-name="Iogonek.sc" unicode="&#xe05a;" horiz-adv-x="311" 
d="M284 0c-92 -26 -98 -53 -98 -72c0 -17 12 -23 39 -23c33 0 45 2 80 4v-96c-38 -12 -94 -22 -150 -22c-93 0 -153 28 -153 95c0 44 26 87 93 114h-68v128l28 4v322l-28 5v127h257v-127l-28 -5v-322l28 -4v-128z" />
    <glyph glyph-name="Itilde.sc" unicode="&#xe05b;" horiz-adv-x="311" 
d="M284 0h-257v128l28 4v322l-28 5v127h257v-127l-28 -5v-322l28 -4v-128zM369 784c0 -102 -61 -139 -119 -139c-35 0 -65 4 -94 19l-38 20c-13 7 -24 13 -35 13c-16 0 -21 -9 -21 -30v-20h-124v20c0 102 55 139 120 139c31 0 59 -5 92 -23l37 -20c15 -8 24 -11 37 -11
c16 0 22 11 22 32v19h123v-19z" />
    <glyph glyph-name="IJ.sc" unicode="&#xe058;" horiz-adv-x="605" 
d="M578 459l-28 -5v-458c0 -122 -63 -162 -168 -162c-25 0 -59 2 -89 9v121h28c24 0 29 6 29 32v458l-28 5v127h256v-127zM284 0h-257v128l28 4v322l-28 5v127h257v-127l-28 -5v-322l28 -4v-128z" />
    <glyph glyph-name="J.sc" unicode="&#xe01a;" horiz-adv-x="323" 
d="M296 459l-28 -5v-458c0 -122 -63 -162 -168 -162c-32 0 -61 3 -89 9v121h28c25 0 29 6 29 32v458l-28 5v127h256v-127z" />
    <glyph glyph-name="Jcircumflex.sc" unicode="&#xe05c;" horiz-adv-x="323" 
d="M296 459l-28 -5v-458c0 -122 -63 -162 -168 -162c-32 0 -61 3 -89 9v121h28c25 0 29 6 29 32v458l-28 5v127h256v-127zM394 649h-169l-56 64l-55 -64h-170l105 136h240z" />
    <glyph glyph-name="K.sc" unicode="&#xe01b;" horiz-adv-x="591" 
d="M563 0h-212l-99 260v-260h-225v128l25 4v323l-25 4v127h225v-264l110 264h202v-127l-41 -6l-75 -158l74 -162l41 -5v-128z" />
    <glyph glyph-name="Kcommaaccent.sc" unicode="&#xe05d;" horiz-adv-x="591" 
d="M563 0h-212l-99 260v-260h-225v128l25 4v323l-25 4v127h225v-264l110 264h202v-127l-41 -6l-75 -158l74 -162l41 -5v-128zM405 -57l-91 -139h-177l60 139h208z" />
    <glyph glyph-name="L.sc" unicode="&#xe01c;" horiz-adv-x="440" 
d="M413 0h-386v128l25 4v323l-25 4v127h253v-127l-28 -5v-308h41l6 33h114v-179z" />
    <glyph glyph-name="Lacute.sc" unicode="&#xe05e;" horiz-adv-x="440" 
d="M413 0h-386v128l25 4v323l-25 4v127h253v-127l-28 -5v-308h41l6 33h114v-179zM436 785l-138 -136h-185l101 136h222z" />
    <glyph glyph-name="Lcaron.sc" unicode="&#xe05f;" horiz-adv-x="500" 
d="M500 599l-75 -268h-133l35 268h173zM413 0h-386v128l25 4v323l-25 4v127h253v-127l-28 -5v-308h41l6 33h114v-179z" />
    <glyph glyph-name="Lcommaaccent.sc" unicode="&#xe060;" horiz-adv-x="440" 
d="M413 0h-386v128l25 4v323l-25 4v127h253v-127l-28 -5v-308h41l6 33h114v-179zM330 -57l-91 -139h-177l60 139h208z" />
    <glyph glyph-name="Ldot.sc" unicode="&#xe061;" horiz-adv-x="477" 
d="M444 257h-137v156h137v-156zM413 0h-386v128l25 4v323l-25 4v127h253v-127l-28 -5v-308h41l6 33h114v-179z" />
    <glyph glyph-name="Lslash.sc" unicode="&#xe01d;" horiz-adv-x="440" 
d="M26 170v95l26 14v176l-25 4v127h253v-127l-28 -5v-66l90 50v-95l-90 -50v-147h41l6 33h114v-179h-386v128l25 4v52z" />
    <glyph glyph-name="M.sc" unicode="&#xe01e;" horiz-adv-x="688" 
d="M660 0h-220v215c0 32 2 56 4 86h-2c-8 -20 -15 -44 -28 -67l-35 -59h-77l-34 59c-13 23 -20 47 -29 67h-1c2 -30 3 -54 3 -86v-215h-214v128l23 4v323l-23 4v127h199l82 -148c11 -20 24 -49 32 -70h2c7 21 20 50 31 70l83 148h204v-127l-27 -5v-322l27 -4v-128z" />
    <glyph glyph-name="N.sc" unicode="&#xe01f;" horiz-adv-x="604" 
d="M577 459l-29 -5v-454h-185l-103 198c-8 18 -22 46 -30 67h-1c1 -24 3 -58 3 -82v-183h-205v128l25 4v323l-25 4v127h205l105 -195c13 -26 24 -51 32 -72h2c-2 20 -3 64 -3 90v177h209v-127z" />
    <glyph glyph-name="Nacute.sc" unicode="&#xe062;" horiz-adv-x="604" 
d="M577 459l-29 -5v-454h-185l-103 198c-8 18 -22 46 -30 67h-1c1 -24 3 -58 3 -82v-183h-205v128l25 4v323l-25 4v127h205l105 -195c13 -26 24 -51 32 -72h2c-2 20 -3 64 -3 90v177h209v-127zM510 785l-138 -136h-185l101 136h222z" />
    <glyph glyph-name="Ncaron.sc" unicode="&#xe063;" horiz-adv-x="604" 
d="M577 459l-29 -5v-454h-185l-103 198c-8 18 -22 46 -30 67h-1c1 -24 3 -58 3 -82v-183h-205v128l25 4v323l-25 4v127h205l105 -195c13 -26 24 -51 32 -72h2c-2 20 -3 64 -3 90v177h209v-127zM528 785l-105 -136h-240l-105 136h170l55 -64l56 64h169z" />
    <glyph glyph-name="Ncommaaccent.sc" unicode="&#xe064;" horiz-adv-x="604" 
d="M577 459l-29 -5v-454h-185l-103 198c-8 18 -22 46 -30 67h-1c1 -24 3 -58 3 -82v-183h-205v128l25 4v323l-25 4v127h205l105 -195c13 -26 24 -51 32 -72h2c-2 20 -3 64 -3 90v177h209v-127zM410 -57l-91 -139h-177l60 139h208z" />
    <glyph glyph-name="Ntilde.sc" unicode="&#xe020;" horiz-adv-x="604" 
d="M577 459l-29 -5v-454h-185l-103 198c-8 18 -22 46 -30 67h-1c1 -24 3 -58 3 -82v-183h-205v128l25 4v323l-25 4v127h205l105 -195c13 -26 24 -51 32 -72h2c-2 20 -3 64 -3 90v177h209v-127zM519 785c0 -102 -61 -139 -119 -139c-35 0 -65 4 -94 19l-38 20
c-13 7 -24 13 -35 13c-16 0 -21 -9 -21 -30v-20h-124v20c0 102 55 139 120 139c31 0 59 -5 92 -23l37 -20c15 -8 24 -11 37 -11c16 0 22 11 22 32v19h123v-19z" />
    <glyph glyph-name="Eng.sc" unicode="&#xe04e;" horiz-adv-x="604" 
d="M576 459l-28 -5v-458c0 -122 -63 -162 -169 -162c-22 0 -54 2 -88 9v121h28c24 0 28 6 28 31v31l-88 172c-8 18 -21 46 -29 67h-2c2 -24 4 -57 4 -82v-183h-205v128l24 4v323l-24 4v127h205l104 -186c13 -27 25 -52 33 -73h2c-2 20 -3 64 -3 90v169h208v-127z" />
    <glyph glyph-name="O.sc" unicode="&#xe021;" horiz-adv-x="548" 
d="M520 266c0 -230 -112 -280 -246 -280c-135 0 -246 51 -246 280v54c0 232 114 280 246 280c131 0 246 -48 246 -280v-54zM323 267v52c0 107 -9 130 -49 130s-49 -24 -49 -130v-52c0 -106 10 -130 49 -130s49 23 49 130z" />
    <glyph glyph-name="Oacute.sc" unicode="&#xe023;" horiz-adv-x="548" 
d="M520 266c0 -230 -112 -280 -246 -280c-135 0 -246 51 -246 280v54c0 232 114 280 246 280c131 0 246 -48 246 -280v-54zM323 267v52c0 107 -9 130 -49 130s-49 -24 -49 -130v-52c0 -106 10 -130 49 -130s49 23 49 130zM501 785l-138 -136h-185l101 136h222z" />
    <glyph glyph-name="Obreve.sc" unicode="&#xe065;" horiz-adv-x="548" 
d="M520 266c0 -230 -112 -280 -246 -280c-135 0 -246 51 -246 280v54c0 232 114 280 246 280c131 0 246 -48 246 -280v-54zM323 267v52c0 107 -9 130 -49 130s-49 -24 -49 -130v-52c0 -106 10 -130 49 -130s49 23 49 130zM483 795c-21 -117 -124 -150 -210 -150
s-189 33 -210 150h128c9 -45 42 -56 82 -56s74 11 83 56h127z" />
    <glyph glyph-name="Ocircumflex.sc" unicode="&#xe024;" horiz-adv-x="548" 
d="M520 266c0 -230 -112 -280 -246 -280c-135 0 -246 51 -246 280v54c0 232 114 280 246 280c131 0 246 -48 246 -280v-54zM323 267v52c0 107 -9 130 -49 130s-49 -24 -49 -130v-52c0 -106 10 -130 49 -130s49 23 49 130zM499 649h-169l-56 64l-55 -64h-170l105 136h240z
" />
    <glyph glyph-name="Odieresis.sc" unicode="&#xe025;" horiz-adv-x="548" 
d="M520 266c0 -230 -112 -280 -246 -280c-135 0 -246 51 -246 280v54c0 232 114 280 246 280c131 0 246 -48 246 -280v-54zM323 267v52c0 107 -9 130 -49 130s-49 -24 -49 -130v-52c0 -106 10 -130 49 -130s49 23 49 130zM471 648h-163v132h163v-132zM241 648v132h-164v-132
h164z" />
    <glyph glyph-name="Ograve.sc" unicode="&#xe026;" horiz-adv-x="548" 
d="M520 266c0 -230 -112 -280 -246 -280c-135 0 -246 51 -246 280v54c0 232 114 280 246 280c131 0 246 -48 246 -280v-54zM323 267v52c0 107 -9 130 -49 130s-49 -24 -49 -130v-52c0 -106 10 -130 49 -130s49 23 49 130zM409 648h-185l-138 136h222z" />
    <glyph glyph-name="Ohungarumlaut.sc" unicode="&#xe066;" horiz-adv-x="548" 
d="M520 266c0 -230 -112 -280 -246 -280c-135 0 -246 51 -246 280v54c0 232 114 280 246 280c131 0 246 -48 246 -280v-54zM323 267v52c0 107 -9 130 -49 130s-49 -24 -49 -130v-52c0 -106 10 -130 49 -130s49 23 49 130zM640 785l-137 -137h-173l102 137h208zM365 785h-209
l-101 -137h172z" />
    <glyph glyph-name="Omacron.sc" unicode="&#xe067;" horiz-adv-x="548" 
d="M520 266c0 -230 -112 -280 -246 -280c-135 0 -246 51 -246 280v54c0 232 114 280 246 280c131 0 246 -48 246 -280v-54zM323 267v52c0 107 -9 130 -49 130s-49 -24 -49 -130v-52c0 -106 10 -130 49 -130s49 23 49 130zM462 653h-376v119h376v-119z" />
    <glyph glyph-name="Otilde.sc" unicode="&#xe028;" horiz-adv-x="548" 
d="M520 266c0 -230 -112 -280 -246 -280c-135 0 -246 51 -246 280v54c0 232 114 280 246 280c131 0 246 -48 246 -280v-54zM323 267v52c0 107 -9 130 -49 130s-49 -24 -49 -130v-52c0 -106 10 -130 49 -130s49 23 49 130zM490 785c0 -102 -61 -139 -119 -139
c-35 0 -65 4 -94 19l-38 20c-13 7 -24 13 -35 13c-16 0 -21 -9 -21 -30v-20h-124v20c0 102 55 139 120 139c31 0 59 -5 92 -23l37 -20c15 -8 24 -11 37 -11c16 0 22 11 22 32v19h123v-19z" />
    <glyph glyph-name="Oslash.sc" unicode="&#xe027;" horiz-adv-x="548" 
d="M17 -23l58 92c-30 43 -47 105 -47 197v54c0 232 114 280 246 280c48 0 94 -7 133 -27l23 36h103l-60 -94c29 -43 47 -105 47 -195v-54c0 -230 -112 -280 -246 -280c-49 0 -94 7 -132 25l-22 -34h-103zM323 267v52c0 107 -9 130 -49 130s-49 -24 -49 -130v-52
c0 -106 10 -130 49 -130s49 23 49 130z" />
    <glyph glyph-name="Oslashacute.sc" unicode="&#xe068;" horiz-adv-x="548" 
d="M17 -23l58 92c-30 43 -47 105 -47 197v54c0 232 114 280 246 280c48 0 94 -7 133 -27l23 36h103l-60 -94c29 -43 47 -105 47 -195v-54c0 -230 -112 -280 -246 -280c-49 0 -94 7 -132 25l-22 -34h-103zM323 267v52c0 107 -9 130 -49 130s-49 -24 -49 -130v-52
c0 -106 10 -130 49 -130s49 23 49 130zM495 778l-138 -136h-185l101 136h222z" />
    <glyph glyph-name="OE.sc" unicode="&#xe022;" horiz-adv-x="734" 
d="M705 0h-319c-36 -10 -72 -13 -111 -13c-136 0 -247 50 -247 279v54c0 232 114 280 247 280c39 0 76 -4 112 -14h318v-163h-113l-6 22h-70v-83h182v-131h-182v-90h70l6 22h113v-163zM319 139v308c-15 2 -32 2 -43 2c-41 0 -50 -24 -50 -130v-52c0 -106 9 -130 49 -130
c16 0 26 1 44 2z" />
    <glyph glyph-name="P.sc" unicode="&#xe029;" horiz-adv-x="554" 
d="M528 385c0 -168 -123 -203 -242 -203h-38v-182h-221v128l28 4v322l-28 5v127c69 7 145 11 233 11c146 0 268 -31 268 -203v-9zM334 386v9c0 45 -12 59 -56 59c-11 0 -21 0 -30 -1v-127h31c42 0 55 19 55 60z" />
    <glyph glyph-name="Thorn.sc" unicode="&#xe02a;" horiz-adv-x="554" 
d="M527 313c0 -168 -123 -203 -242 -203h-38v-110h-220v128l28 4v356l-28 4v128h220v-96c8 1 17 1 25 1c138 0 255 -35 255 -203v-9zM334 314v9c0 45 -13 59 -57 59c-10 0 -20 -1 -30 -2v-125c8 -1 20 -1 32 -1c42 0 55 19 55 60z" />
    <glyph glyph-name="Q.sc" unicode="&#xe02b;" horiz-adv-x="548" 
d="M520 266c0 -179 -67 -249 -162 -270v-16c0 -22 11 -22 26 -22h58v-102c-33 -12 -75 -20 -125 -20c-94 0 -140 34 -140 134v28c-89 24 -149 98 -149 268v54c0 232 114 280 246 280c131 0 246 -48 246 -280v-54zM323 267v52c0 107 -9 130 -49 130s-49 -24 -49 -130v-52
c0 -106 10 -130 49 -130s49 23 49 130z" />
    <glyph glyph-name="Qalt.sc" unicode="&#xe595;" horiz-adv-x="548" 
d="M520 266c0 -179 -67 -249 -162 -270v-155h-181v157c-89 24 -149 98 -149 268v54c0 232 114 280 246 280c131 0 246 -48 246 -280v-54zM323 267v52c0 107 -9 130 -49 130s-49 -24 -49 -130v-52c0 -106 10 -130 49 -130s49 23 49 130z" />
    <glyph glyph-name="R.sc" unicode="&#xe02c;" horiz-adv-x="567" 
d="M540 0h-178l-78 196c-5 -1 -12 -1 -17 -1h-20v-195h-220v128l28 4v322l-28 5v127c67 6 151 10 233 10c142 0 266 -33 266 -201v-8c0 -79 -28 -125 -67 -154l40 -98l41 -7v-128zM333 388v5c0 46 -10 61 -57 61c-10 0 -21 0 -30 -1v-127h32c45 0 55 21 55 62z" />
    <glyph glyph-name="Racute.sc" unicode="&#xe069;" horiz-adv-x="567" 
d="M540 0h-178l-78 196c-5 -1 -12 -1 -17 -1h-20v-195h-220v128l28 4v322l-28 5v127c67 6 151 10 233 10c142 0 266 -33 266 -201v-8c0 -79 -28 -125 -67 -154l40 -98l41 -7v-128zM333 388v5c0 46 -10 61 -57 61c-10 0 -21 0 -30 -1v-127h32c45 0 55 21 55 62zM500 784
l-138 -136h-185l101 136h222z" />
    <glyph glyph-name="Rcaron.sc" unicode="&#xe06a;" horiz-adv-x="567" 
d="M540 0h-178l-78 196c-5 -1 -12 -1 -17 -1h-20v-195h-220v128l28 4v322l-28 5v127c67 6 151 10 233 10c142 0 266 -33 266 -201v-8c0 -79 -28 -125 -67 -154l40 -98l41 -7v-128zM333 388v5c0 46 -10 61 -57 61c-10 0 -21 0 -30 -1v-127h32c45 0 55 21 55 62zM507 784
l-105 -136h-240l-105 136h170l55 -64l56 64h169z" />
    <glyph glyph-name="Rcommaaccent.sc" unicode="&#xe06b;" horiz-adv-x="567" 
d="M540 0h-178l-78 196c-5 -1 -12 -1 -17 -1h-20v-195h-220v128l28 4v322l-28 5v127c67 6 151 10 233 10c142 0 266 -33 266 -201v-8c0 -79 -28 -125 -67 -154l40 -98l41 -7v-128zM333 388v5c0 46 -10 61 -57 61c-10 0 -21 0 -30 -1v-127h32c45 0 55 21 55 62zM395 -57
l-91 -139h-177l60 139h208z" />
    <glyph glyph-name="S.sc" unicode="&#xe02d;" horiz-adv-x="487" 
d="M460 173c0 -125 -77 -187 -214 -187c-87 0 -161 10 -206 22v150h114l7 -32h49c34 0 49 13 49 38c0 22 -11 36 -55 59l-55 29c-75 40 -123 83 -123 176c0 118 72 172 234 172c79 0 149 -13 191 -23v-147h-115l-7 31c-18 1 -35 1 -52 1c-35 0 -53 -8 -53 -33
c0 -16 14 -28 46 -45l53 -28c91 -48 137 -91 137 -183z" />
    <glyph glyph-name="Sacute.sc" unicode="&#xe06c;" horiz-adv-x="487" 
d="M461 173c0 -125 -77 -187 -214 -187c-87 0 -161 10 -206 22v150h114l7 -32h49c34 0 49 13 49 38c0 22 -11 36 -55 59l-55 29c-75 40 -123 83 -123 176c0 118 72 172 234 172c79 0 149 -13 191 -23v-147h-115l-7 31c-18 1 -35 1 -52 1c-35 0 -53 -8 -53 -33
c0 -16 14 -28 46 -45l53 -28c91 -48 137 -91 137 -183zM470 784l-138 -136h-185l101 136h222z" />
    <glyph glyph-name="Scaron.sc" unicode="&#xe02e;" horiz-adv-x="487" 
d="M461 173c0 -125 -77 -187 -214 -187c-87 0 -161 10 -206 22v150h114l7 -32h49c34 0 49 13 49 38c0 22 -11 36 -55 59l-55 29c-75 40 -123 83 -123 176c0 118 72 172 234 172c79 0 149 -13 191 -23v-147h-115l-7 31c-18 1 -35 1 -52 1c-35 0 -53 -8 -53 -33
c0 -16 14 -28 46 -45l53 -28c91 -48 137 -91 137 -183zM480 784l-105 -136h-240l-105 136h170l55 -64l56 64h169z" />
    <glyph glyph-name="Scedilla.sc" unicode="&#xe06d;" horiz-adv-x="487" 
d="M460 173c0 -125 -77 -187 -214 -187c-87 0 -161 10 -206 22v150h114l7 -32h49c34 0 49 13 49 38c0 22 -11 36 -55 59l-55 29c-75 40 -123 83 -123 176c0 118 72 172 234 172c79 0 149 -13 191 -23v-147h-115l-7 31c-18 1 -35 1 -52 1c-35 0 -53 -8 -53 -33
c0 -16 14 -28 46 -45l53 -28c91 -48 137 -91 137 -183zM382 -57l-109 -139h-182l79 139h212z" />
    <glyph glyph-name="Scircumflex.sc" unicode="&#xe06e;" horiz-adv-x="487" 
d="M460 173c0 -125 -77 -187 -214 -187c-87 0 -161 10 -206 22v150h114l7 -32h49c34 0 49 13 49 38c0 22 -11 36 -55 59l-55 29c-75 40 -123 83 -123 176c0 118 72 172 234 172c79 0 149 -13 191 -23v-147h-115l-7 31c-18 1 -35 1 -52 1c-35 0 -53 -8 -53 -33
c0 -16 14 -28 46 -45l53 -28c91 -48 137 -91 137 -183zM474 642h-169l-56 64l-55 -64h-170l105 136h240z" />
    <glyph glyph-name="Scommaaccent.sc" unicode="&#xe06f;" horiz-adv-x="487" 
d="M461 173c0 -125 -77 -187 -214 -187c-87 0 -161 10 -206 22v150h114l7 -32h49c34 0 49 13 49 38c0 22 -11 36 -55 59l-55 29c-75 40 -123 83 -123 176c0 118 72 172 234 172c79 0 149 -13 191 -23v-147h-115l-7 31c-18 1 -35 1 -52 1c-35 0 -53 -8 -53 -33
c0 -16 14 -28 46 -45l53 -28c91 -48 137 -91 137 -183zM376 -57l-91 -139h-177l60 139h208z" />
    <glyph glyph-name="T.sc" unicode="&#xe02f;" horiz-adv-x="531" 
d="M505 420h-109l-7 27h-23v-315l28 -4v-128h-257v128l29 4v315h-24l-6 -27h-110v166h479v-166z" />
    <glyph glyph-name="Tcaron.sc" unicode="&#xe071;" horiz-adv-x="531" 
d="M505 420h-109l-7 27h-23v-315l28 -4v-128h-257v128l29 4v315h-24l-6 -27h-110v166h479v-166zM490 785l-105 -136h-240l-105 136h170l55 -64l56 64h169z" />
    <glyph glyph-name="Tbar.sc" unicode="&#xe070;" horiz-adv-x="531" 
d="M505 420h-109l-7 27h-23v-83h97v-114h-97v-118l28 -4v-128h-257v128l29 4v118h-98v114h98v83h-24l-6 -27h-110v166h479v-166z" />
    <glyph glyph-name="Tcommaaccent.sc" unicode="&#xe072;" horiz-adv-x="531" 
d="M505 420h-109l-7 27h-23v-315l28 -4v-128h-257v128l29 4v315h-24l-6 -27h-110v166h479v-166zM384 -57l-91 -139h-177l60 139h208z" />
    <glyph glyph-name="U.sc" unicode="&#xe030;" horiz-adv-x="598" 
d="M571 459l-28 -5v-235c0 -127 -70 -233 -245 -233c-173 0 -242 106 -242 233v235l-29 5v127h226v-365c0 -68 6 -89 45 -89c41 0 47 21 47 89v365h226v-127z" />
    <glyph glyph-name="Uacute.sc" unicode="&#xe031;" horiz-adv-x="598" 
d="M571 459l-28 -5v-235c0 -127 -70 -233 -245 -233c-173 0 -242 106 -242 233v235l-29 5v127h226v-365c0 -68 6 -89 45 -89c41 0 47 21 47 89v365h226v-127zM507 785l-138 -136h-185l101 136h222z" />
    <glyph glyph-name="Ubreve.sc" unicode="&#xe073;" horiz-adv-x="598" 
d="M571 459l-28 -5v-235c0 -127 -70 -233 -245 -233c-173 0 -242 106 -242 233v235l-29 5v127h226v-365c0 -68 6 -89 45 -89c41 0 47 21 47 89v365h226v-127zM507 794c-21 -117 -124 -150 -210 -150s-189 33 -210 150h128c9 -45 42 -56 82 -56s74 11 83 56h127z" />
    <glyph glyph-name="Ucircumflex.sc" unicode="&#xe032;" horiz-adv-x="598" 
d="M571 459l-28 -5v-235c0 -127 -70 -233 -245 -233c-173 0 -242 106 -242 233v235l-29 5v127h226v-365c0 -68 6 -89 45 -89c41 0 47 21 47 89v365h226v-127zM524 649h-169l-56 64l-55 -64h-170l105 136h240z" />
    <glyph glyph-name="Udieresis.sc" unicode="&#xe033;" horiz-adv-x="598" 
d="M571 459l-28 -5v-235c0 -127 -70 -233 -245 -233c-173 0 -242 106 -242 233v235l-29 5v127h226v-365c0 -68 6 -89 45 -89c41 0 47 21 47 89v365h226v-127zM495 648h-163v132h163v-132zM265 648v132h-164v-132h164z" />
    <glyph glyph-name="Uhungarumlaut.sc" unicode="&#xe074;" horiz-adv-x="598" 
d="M571 459l-28 -5v-235c0 -127 -70 -233 -245 -233c-173 0 -242 106 -242 233v235l-29 5v127h226v-365c0 -68 6 -89 45 -89c41 0 47 21 47 89v365h226v-127zM668 785l-137 -137h-173l102 137h208zM393 785h-209l-101 -137h172z" />
    <glyph glyph-name="Ugrave.sc" unicode="&#xe034;" horiz-adv-x="598" 
d="M571 459l-28 -5v-235c0 -127 -70 -233 -245 -233c-173 0 -242 106 -242 233v235l-29 5v127h226v-365c0 -68 6 -89 45 -89c41 0 47 21 47 89v365h226v-127zM414 649h-185l-138 136h222z" />
    <glyph glyph-name="Umacron.sc" unicode="&#xe075;" horiz-adv-x="598" 
d="M571 459l-28 -5v-235c0 -127 -70 -233 -245 -233c-173 0 -242 106 -242 233v235l-29 5v127h226v-365c0 -68 6 -89 45 -89c41 0 47 21 47 89v365h226v-127zM485 653h-376v119h376v-119z" />
    <glyph glyph-name="Uogonek.sc" unicode="&#xe076;" horiz-adv-x="598" 
d="M571 459l-28 -5v-235c0 -109 -51 -202 -175 -226c-32 -20 -38 -40 -38 -54c0 -23 12 -34 46 -34c26 0 55 3 73 4v-96c-38 -12 -94 -22 -150 -22c-93 0 -153 25 -153 106c0 37 17 73 59 102c-105 31 -149 118 -149 220v235l-29 5v127h226v-365c0 -68 6 -89 45 -89
c41 0 47 21 47 89v365h226v-127z" />
    <glyph glyph-name="Uring.sc" unicode="&#xe077;" horiz-adv-x="598" 
d="M571 459l-28 -5v-235c0 -127 -70 -233 -245 -233c-173 0 -242 106 -242 233v235l-29 5v127h226v-365c0 -68 6 -89 45 -89c41 0 47 21 47 89v365h226v-127zM444 755c0 -83 -63 -127 -147 -127s-147 44 -147 127c0 81 63 128 147 128s147 -46 147 -128zM346 756
c0 28 -19 45 -49 45s-49 -17 -49 -45s19 -46 49 -46s49 18 49 46z" />
    <glyph glyph-name="Utilde.sc" unicode="&#xe078;" horiz-adv-x="598" 
d="M571 459l-28 -5v-235c0 -127 -70 -233 -245 -233c-173 0 -242 106 -242 233v235l-29 5v127h226v-365c0 -68 6 -89 45 -89c41 0 47 21 47 89v365h226v-127zM514 785c0 -102 -61 -139 -119 -139c-35 0 -65 4 -94 19l-38 20c-13 7 -24 13 -35 13c-16 0 -21 -9 -21 -30v-20
h-124v20c0 102 55 139 120 139c31 0 59 -5 92 -23l37 -20c15 -8 24 -11 37 -11c16 0 22 11 22 32v19h123v-19z" />
    <glyph glyph-name="V.sc" unicode="&#xe035;" horiz-adv-x="596" 
d="M570 459l-35 -5l-79 -454h-317l-80 454l-34 5v127h213l46 -351c4 -35 9 -85 12 -118h2c3 33 9 83 13 118l46 351h213v-127z" />
    <glyph glyph-name="W.sc" unicode="&#xe036;" horiz-adv-x="773" 
d="M748 459l-30 -5l-58 -454h-215l-43 185c-7 29 -11 65 -14 89h-3c-3 -24 -7 -60 -14 -89l-43 -185h-214l-59 454l-30 5v127h208l21 -239c3 -34 5 -75 6 -103h4c4 28 9 68 15 93l23 97h169l23 -97c6 -27 11 -63 15 -93h5c1 30 3 71 6 103l20 239h208v-127z" />
    <glyph glyph-name="Wacute.sc" unicode="&#xe079;" horiz-adv-x="773" 
d="M748 459l-30 -5l-58 -454h-215l-43 185c-7 29 -11 65 -14 89h-3c-3 -24 -7 -60 -14 -89l-43 -185h-214l-59 454l-30 5v127h208l21 -239c3 -34 5 -75 6 -103h4c4 28 9 68 15 93l23 97h169l23 -97c6 -27 11 -63 15 -93h5c1 30 3 71 6 103l20 239h208v-127zM609 785
l-138 -136h-185l101 136h222z" />
    <glyph glyph-name="Wcircumflex.sc" unicode="&#xe07a;" horiz-adv-x="773" 
d="M748 459l-30 -5l-58 -454h-215l-43 185c-7 29 -11 65 -14 89h-3c-3 -24 -7 -60 -14 -89l-43 -185h-214l-59 454l-30 5v127h208l21 -239c3 -34 5 -75 6 -103h4c4 28 9 68 15 93l23 97h169l23 -97c6 -27 11 -63 15 -93h5c1 30 3 71 6 103l20 239h208v-127zM612 649h-169
l-56 64l-55 -64h-170l105 136h240z" />
    <glyph glyph-name="Wdieresis.sc" unicode="&#xe07b;" horiz-adv-x="773" 
d="M748 459l-30 -5l-58 -454h-215l-43 185c-7 29 -11 65 -14 89h-3c-3 -24 -7 -60 -14 -89l-43 -185h-214l-59 454l-30 5v127h208l21 -239c3 -34 5 -75 6 -103h4c4 28 9 68 15 93l23 97h169l23 -97c6 -27 11 -63 15 -93h5c1 30 3 71 6 103l20 239h208v-127zM583 648h-163
v132h163v-132zM353 648v132h-164v-132h164z" />
    <glyph glyph-name="Wgrave.sc" unicode="&#xe07c;" horiz-adv-x="773" 
d="M748 459l-30 -5l-58 -454h-215l-43 185c-7 29 -11 65 -14 89h-3c-3 -24 -7 -60 -14 -89l-43 -185h-214l-59 454l-30 5v127h208l21 -239c3 -34 5 -75 6 -103h4c4 28 9 68 15 93l23 97h169l23 -97c6 -27 11 -63 15 -93h5c1 30 3 71 6 103l20 239h208v-127zM504 649h-185
l-138 136h222z" />
    <glyph glyph-name="X.sc" unicode="&#xe037;" horiz-adv-x="556" 
d="M531 0h-200l-60 135l-56 -135h-190v128l45 6l84 174l-80 144l-45 7v127h207l58 -127l51 127h183v-127l-44 -7l-80 -162l77 -155l50 -7v-128z" />
    <glyph glyph-name="Y.sc" unicode="&#xe038;" horiz-adv-x="545" 
d="M519 459l-46 -8l-103 -242v-81l28 -5v-123h-253v123l30 5v81l-103 242l-47 8v127h188l36 -122c8 -28 16 -59 22 -91h2c7 32 14 63 22 91l37 122h187v-127z" />
    <glyph glyph-name="Yacute.sc" unicode="&#xe039;" horiz-adv-x="545" 
d="M519 459l-46 -8l-103 -242v-81l28 -5v-123h-253v123l30 5v81l-103 242l-47 8v127h188l36 -122c8 -28 16 -59 22 -91h2c7 32 14 63 22 91l37 122h187v-127zM493 785l-138 -136h-185l101 136h222z" />
    <glyph glyph-name="Ycircumflex.sc" unicode="&#xe07d;" horiz-adv-x="545" 
d="M519 459l-46 -8l-103 -242v-81l28 -5v-123h-253v123l30 5v81l-103 242l-47 8v127h188l36 -122c8 -28 16 -59 22 -91h2c7 32 14 63 22 91l37 122h187v-127zM497 649h-169l-56 64l-55 -64h-170l105 136h240z" />
    <glyph glyph-name="Ydieresis.sc" unicode="&#xe03a;" horiz-adv-x="545" 
d="M519 459l-46 -8l-103 -242v-81l28 -5v-123h-253v123l30 5v81l-103 242l-47 8v127h188l36 -122c8 -28 16 -59 22 -91h2c7 32 14 63 22 91l37 122h187v-127zM470 648h-163v132h163v-132zM240 648v132h-164v-132h164z" />
    <glyph glyph-name="Ygrave.sc" unicode="&#xe07e;" horiz-adv-x="545" 
d="M519 459l-46 -8l-103 -242v-81l28 -5v-123h-253v123l30 5v81l-103 242l-47 8v127h188l36 -122c8 -28 16 -59 22 -91h2c7 32 14 63 22 91l37 122h187v-127zM391 649h-185l-138 136h222z" />
    <glyph glyph-name="Z.sc" unicode="&#xe03b;" horiz-adv-x="460" 
d="M435 0h-408v133l171 312h-54l-8 -27h-107v168h402v-141l-169 -305h57l8 28h108v-168z" />
    <glyph glyph-name="Zacute.sc" unicode="&#xe07f;" horiz-adv-x="460" 
d="M435 0h-408v133l171 312h-54l-8 -27h-107v168h402v-141l-169 -305h57l8 28h108v-168zM473 785l-138 -136h-185l101 136h222z" />
    <glyph glyph-name="Zcaron.sc" unicode="&#xe03c;" horiz-adv-x="460" 
d="M435 0h-408v133l171 312h-54l-8 -27h-107v168h402v-141l-169 -305h57l8 28h108v-168zM476 785l-105 -136h-240l-105 136h170l55 -64l56 64h169z" />
    <glyph glyph-name="Zdotaccent.sc" unicode="&#xe080;" horiz-adv-x="460" 
d="M435 0h-408v133l171 312h-54l-8 -27h-107v168h402v-141l-169 -305h57l8 28h108v-168zM360 653h-220v128h220v-128z" />
    <glyph glyph-name="ampersand.sc" unicode="&#xe08c;" horiz-adv-x="605" 
d="M560 0h-161l-15 17c-32 -15 -82 -29 -146 -29c-115 0 -209 36 -209 156v6c0 70 36 115 103 157l-9 10c-47 52 -65 96 -65 140v5c0 98 69 143 212 143c73 0 159 -13 199 -24v-140h-112l-7 33h-72c-28 0 -43 -8 -43 -26v-3c0 -19 12 -39 26 -56l153 -186c6 23 8 54 8 83
l-27 7v79h181v-80l-28 -7c0 -78 -16 -136 -47 -179l59 -72v-34zM305 105l-73 91c-14 -11 -20 -26 -20 -46v-6c0 -33 24 -45 55 -45c13 0 27 2 38 6z" />
    <glyph glyph-name="ampersandalt.sc" unicode="&#xe451;" horiz-adv-x="605" 
d="M560 0h-164l-15 17c-29 -15 -85 -28 -143 -28c-123 0 -211 38 -211 158v5c0 70 37 119 105 155l-10 11c-45 55 -65 95 -65 139v5c0 98 67 144 217 144c148 0 213 -46 213 -144v-5c0 -50 -14 -122 -139 -175l66 -79c7 21 8 40 8 66v10h126v-11c0 -41 -7 -108 -47 -162
l59 -72v-34zM305 105l-73 91c-13 -11 -22 -25 -22 -47v-3c0 -33 26 -47 55 -47c15 0 29 2 40 6zM314 441v2c0 24 -12 37 -40 37s-39 -12 -39 -34v-3c0 -23 9 -38 27 -61l10 -12c35 28 42 47 42 71z" />
    <glyph glyph-name="exclam.sc" unicode="&#xe08b;" horiz-adv-x="271" 
d="M233 0h-195v147h195v-147zM241 616l-17 -422h-178l-16 422h211z" />
    <glyph glyph-name="exclamdown.sc" unicode="&#xe08f;" horiz-adv-x="271" 
d="M241 -30h-211l16 421h178zM233 586v-147h-195v147h195z" />
    <glyph glyph-name="questiondown.sc" unicode="&#xe094;" horiz-adv-x="432" 
d="M403 -7c-49 -22 -121 -31 -199 -31c-115 0 -177 41 -177 128v6c0 44 10 82 67 152c54 58 67 78 67 127v14h156v-14c0 -61 -1 -93 -33 -146c-27 -46 -41 -73 -41 -93v-2c0 -19 9 -29 42 -29c7 0 13 0 20 1l5 28h93v-141zM336 441h-197v146h197v-146z" />
    <glyph glyph-name="question.sc" unicode="&#xe08d;" horiz-adv-x="431" 
d="M290 0h-197v147h197v-147zM403 492c0 -45 -10 -83 -68 -152c-53 -58 -66 -79 -66 -131v-10h-156v10c0 64 0 97 33 149c27 47 40 73 40 93v3c0 19 -8 28 -42 28h-19l-6 -29h-92v142c48 21 122 30 199 30c114 0 177 -41 177 -127v-6z" />
    <glyph glyph-name="Acute" unicode="&#xf6c9;" horiz-adv-x="393" 
d="M366 917l-138 -136h-185l101 136h222z" />
    <glyph glyph-name="Aringacute" unicode="&#x1fa;" horiz-adv-x="695" 
d="M490 856c0 -73 -70 -102 -147 -102s-147 29 -147 102c0 72 70 101 147 101s147 -29 147 -101zM395 856c0 23 -25 31 -52 31s-52 -8 -52 -31s25 -31 52 -31s52 8 52 31zM540 1065l-118 -96h-186l82 96h222zM670 0h-246l-22 154h-110l-23 -154h-244v146l37 4l78 442l-38 6
v145h421l108 -593l39 -4v-146zM387 313l-26 176c-5 35 -10 80 -13 113h-3c-3 -33 -8 -77 -13 -113l-26 -176h81z" />
    <glyph glyph-name="Breve" unicode="&#xf71d;" horiz-adv-x="475" 
d="M448 927c-21 -117 -124 -150 -210 -150s-189 33 -210 150h128c9 -45 42 -56 82 -56s74 11 83 56h127z" />
    <glyph glyph-name="Caron" unicode="&#xf6ca;" horiz-adv-x="495" 
d="M472 917l-105 -136h-240l-105 136h170l55 -65l56 65h169z" />
    <glyph glyph-name="Cedilla" unicode="&#xf722;" horiz-adv-x="362" 
d="M321 -57l-109 -139h-182l79 139h212z" />
    <glyph glyph-name="Circumflex" unicode="&#xf71e;" horiz-adv-x="495" 
d="M472 781h-169l-56 64l-55 -64h-170l105 136h240z" />
    <glyph glyph-name="Dieresis" unicode="&#xf6cb;" horiz-adv-x="465" 
d="M437 782h-163v132h163v-132zM192 782v132h-164v-132h164z" />
    <glyph glyph-name="DieresisAcute" unicode="&#xf6cc;" horiz-adv-x="653" 
d="M639 783h-153v132h153v-132zM262 919h211l-116 -142h-175zM167 783h-153v132h153v-132z" />
    <glyph glyph-name="DieresisGrave" unicode="&#xf6cd;" horiz-adv-x="653" 
d="M639 783h-154v132h154v-132zM391 919l80 -142h-176l-116 142h212zM167 783h-153v132h153v-132z" />
    <glyph glyph-name="Dotaccent" unicode="&#xf71a;" horiz-adv-x="312" 
d="M266 790h-220v128h220v-128z" />
    <glyph glyph-name="Euro.taboldstyle" unicode="&#xe430;" horiz-adv-x="541" 
d="M504 5c-42 -12 -124 -20 -164 -20c-164 0 -255 56 -265 227h-42v62h41v54h-41v62h42c9 173 96 230 268 230c52 0 118 -8 161 -19v-166h-96l-8 25h-21c-50 0 -74 -10 -80 -70h167l-11 -62h-159v-54h150l-11 -62h-136c4 -56 24 -68 78 -68c33 0 75 2 127 5v-144z" />
    <glyph glyph-name="Grave" unicode="&#xf6ce;" horiz-adv-x="393" 
d="M349 781h-185l-138 136h222z" />
    <glyph glyph-name="Hungarumlaut" unicode="&#xf6cf;" horiz-adv-x="622" 
d="M387 917l-138 -137h-172l101 137h209zM665 917l-137 -137h-173l102 137h208z" />
    <glyph glyph-name="Macron" unicode="&#xf6d0;" horiz-adv-x="430" 
d="M403 790h-376v119h376v-119z" />
    <glyph glyph-name="Ogonek" unicode="&#xe46c;" horiz-adv-x="375" 
d="M340 -187c-38 -12 -94 -22 -150 -22c-93 0 -153 28 -153 95c0 51 42 96 150 126l153 -12c-103 -29 -119 -53 -119 -72c0 -17 12 -23 46 -23c26 0 55 3 73 4v-96z" />
    <glyph glyph-name="Q.alt" unicode="&#xe23c;" horiz-adv-x="641" 
d="M421 -193h-209v191c-110 30 -180 125 -180 334v79c0 282 130 349 288 349c160 0 289 -67 289 -349v-79c0 -216 -75 -309 -188 -337v-188zM320 163c51 0 63 32 63 170v77c0 138 -12 171 -63 171c-50 0 -62 -33 -62 -171v-77c0 -138 12 -170 62 -170z" />
    <glyph glyph-name="Ring" unicode="&#xf71b;" horiz-adv-x="360" 
d="M327 888c0 -76 -63 -127 -147 -127s-147 51 -147 127c0 77 63 128 147 128s147 -51 147 -128zM229 889c0 28 -19 45 -49 45s-49 -17 -49 -45s19 -46 49 -46s49 18 49 46z" />
    <glyph glyph-name="T_h" unicode="&#xfb10;" horiz-adv-x="1108" 
d="M748 0h-249v147l33 5v423h-105v-424l36 -5v-146h-303v146l36 5v424h-32l-8 -34h-131v202h723v-181c42 24 94 33 131 33c157 0 169 -98 169 -211v-232l34 -5v-147h-251v383c0 38 -6 48 -32 48c-18 0 -36 -6 -51 -14v-417z" />
    <glyph glyph-name="T_h.caron" unicode="&#xfb11;" horiz-adv-x="1102" 
d="M748 0h-249v147l33 5v423h-105v-424l36 -5v-146h-303v146l36 5v424h-32l-8 -34h-131v202h723v-181c42 24 94 33 131 33c157 0 169 -98 169 -211v-232l34 -5v-147h-251v383c0 38 -6 48 -32 48c-18 0 -36 -6 -51 -14v-417zM536 920l-105 -136h-240l-105 136h170l55 -64
l56 64h169z" />
    <glyph glyph-name="T_h.commaaccent" unicode="&#xfb12;" horiz-adv-x="1108" 
d="M748 0h-249v147l33 5v423h-105v-424l36 -5v-146h-303v146l36 5v424h-32l-8 -34h-131v202h723v-181c42 24 94 33 131 33c157 0 169 -98 169 -211v-232l34 -5v-147h-251v383c0 38 -6 48 -32 48c-18 0 -36 -6 -51 -14v-417zM421 -57l-91 -139h-177l60 139h208z" />
    <glyph glyph-name="Tilde" unicode="&#xf71c;" horiz-adv-x="472" 
d="M452 916c0 -102 -61 -139 -125 -139c-26 0 -53 5 -88 23l-38 16c-13 7 -24 13 -35 13c-16 0 -21 -9 -21 -30v-20h-124v20c0 102 62 138 128 138c28 0 50 -5 84 -22l37 -16c15 -8 25 -13 38 -13c16 0 21 9 21 30v19h123v-19z" />
    <glyph glyph-name="a.alt" unicode="&#xe245;" horiz-adv-x="596" 
d="M570 0h-223v27c-38 -26 -80 -39 -136 -39c-135 0 -184 100 -184 268v72c0 193 62 266 285 266c63 0 144 -4 224 -12v-434l34 -4v-144zM330 157v276c-12 2 -26 2 -33 2c-46 0 -58 -13 -58 -107v-72c0 -88 6 -107 48 -107c15 0 32 3 43 8z" />
    <glyph glyph-name="a.alt2" unicode="&#xe43e;" horiz-adv-x="560" 
d="M535 0h-222v32c-31 -22 -87 -44 -143 -44c-113 0 -143 74 -143 163v30c0 148 109 161 246 161h16v34c0 54 -8 63 -62 63c-49 0 -108 -4 -165 -8v124c44 17 127 39 218 39c144 0 221 -46 221 -218v-228l34 -4v-144zM301 130v116h-25c-36 0 -50 -7 -50 -59v-27
c0 -31 10 -41 31 -41c16 0 32 6 44 11z" />
    <glyph glyph-name="aacute.alt" unicode="&#xe281;" horiz-adv-x="596" 
d="M570 0h-223v27c-38 -26 -80 -39 -136 -39c-135 0 -184 100 -184 268v72c0 193 62 266 285 266c63 0 144 -4 224 -12v-434l34 -4v-144zM330 157v276c-12 2 -26 2 -33 2c-46 0 -58 -13 -58 -107v-72c0 -88 6 -107 48 -107c15 0 32 3 43 8zM528 778l-138 -136h-185l101 136
h222z" />
    <glyph glyph-name="abreve.alt" unicode="&#xe441;" horiz-adv-x="596" 
d="M570 0h-223v27c-38 -26 -80 -39 -136 -39c-135 0 -184 100 -184 268v72c0 193 62 266 285 266c63 0 144 -4 224 -12v-434l34 -4v-144zM330 157v276c-12 2 -26 2 -33 2c-46 0 -58 -13 -58 -107v-72c0 -88 6 -107 48 -107c15 0 32 3 43 8zM505 788
c-21 -117 -124 -150 -210 -150s-189 33 -210 150h128c9 -45 42 -56 82 -56s74 11 83 56h127z" />
    <glyph glyph-name="acircumflex.alt" unicode="&#xe283;" horiz-adv-x="596" 
d="M570 0h-223v27c-38 -26 -80 -39 -136 -39c-135 0 -184 100 -184 268v72c0 193 62 266 285 266c63 0 144 -4 224 -12v-434l34 -4v-144zM330 157v276c-12 2 -26 2 -33 2c-46 0 -58 -13 -58 -107v-72c0 -88 6 -107 48 -107c15 0 32 3 43 8zM516 642h-169l-56 64l-55 -64
h-170l105 136h240z" />
    <glyph glyph-name="adieresis.alt" unicode="&#xe284;" horiz-adv-x="596" 
d="M570 0h-223v27c-38 -26 -80 -39 -136 -39c-135 0 -184 100 -184 268v72c0 193 62 266 285 266c63 0 144 -4 224 -12v-434l34 -4v-144zM330 157v276c-12 2 -26 2 -33 2c-46 0 -58 -13 -58 -107v-72c0 -88 6 -107 48 -107c15 0 32 3 43 8zM483 643h-163v132h163v-132z
M253 643v132h-164v-132h164z" />
    <glyph glyph-name="afii61352" unicode="&#x2116;" horiz-adv-x="1179" 
d="M1153 35h-453v115h453v-115zM1153 459c0 -204 -87 -264 -227 -264c-139 0 -226 60 -226 264v36c0 207 90 264 226 264c137 0 227 -57 227 -264v-36zM967 460v34c0 98 -6 123 -41 123c-34 0 -40 -25 -40 -124v-33c0 -99 6 -124 40 -124c35 0 41 25 41 124zM393 743h276
v-146l-35 -4v-593h-216l-122 273c-11 25 -26 62 -36 90h-2c3 -33 5 -76 5 -108v-105l35 -4v-146h-271v146l31 4v443l-31 4v146h240l124 -266c16 -35 30 -68 40 -97h2c-3 27 -5 86 -5 120v93l-35 4v146z" />
    <glyph glyph-name="agrave.alt" unicode="&#xe282;" horiz-adv-x="596" 
d="M570 0h-223v27c-38 -26 -80 -39 -136 -39c-135 0 -184 100 -184 268v72c0 193 62 266 285 266c63 0 144 -4 224 -12v-434l34 -4v-144zM330 157v276c-12 2 -26 2 -33 2c-46 0 -58 -13 -58 -107v-72c0 -88 6 -107 48 -107c15 0 32 3 43 8zM400 642h-185l-138 136h222z" />
    <glyph glyph-name="amacron.alt" unicode="&#xe440;" horiz-adv-x="596" 
d="M570 0h-223v27c-38 -26 -80 -39 -136 -39c-135 0 -184 100 -184 268v72c0 193 62 266 285 266c63 0 144 -4 224 -12v-434l34 -4v-144zM330 157v276c-12 2 -26 2 -33 2c-46 0 -58 -13 -58 -107v-72c0 -88 6 -107 48 -107c15 0 32 3 43 8zM480 647h-376v119h376v-119z" />
    <glyph glyph-name="ampersand.alt" unicode="&#xe43d;" horiz-adv-x="715" 
d="M670 0h-191l-20 23c-35 -21 -98 -38 -176 -38c-139 0 -254 46 -254 196v5c0 85 43 146 126 200l-9 11c-56 70 -81 113 -81 172v5c0 123 82 186 257 186s256 -63 256 -186v-5c0 -77 -40 -151 -165 -218l81 -103c7 31 10 67 10 108v10h150v-10c0 -100 -18 -170 -57 -226
l73 -91v-39zM367 127l-96 126c-20 -18 -27 -42 -27 -68v-4c0 -45 29 -64 70 -64c22 0 40 4 53 10zM370 559v5c0 30 -15 42 -48 42s-49 -13 -49 -42v-5c0 -28 8 -47 32 -76l16 -19c45 41 49 69 49 95z" />
    <glyph glyph-name="aogonek.alt" unicode="&#xe443;" horiz-adv-x="596" 
d="M570 -187c-38 -12 -94 -22 -150 -22c-93 0 -153 28 -153 95c0 45 32 85 112 114h-32v27c-38 -26 -80 -39 -136 -39c-135 0 -184 100 -184 268v72c0 193 62 266 285 266c63 0 144 -4 224 -12v-434l34 -4v-144c-103 -29 -119 -53 -119 -72c0 -17 12 -23 46 -23
c26 0 55 3 73 4v-96zM330 157v276c-12 2 -26 2 -33 2c-46 0 -58 -13 -58 -107v-72c0 -88 6 -107 48 -107c15 0 32 3 43 8z" />
    <glyph glyph-name="aring.alt" unicode="&#xe286;" horiz-adv-x="596" 
d="M456 750c0 -83 -63 -127 -147 -127s-147 44 -147 127c0 81 63 128 147 128s147 -46 147 -128zM358 751c0 28 -19 45 -49 45s-49 -17 -49 -45s19 -46 49 -46s49 18 49 46zM570 0h-223v27c-38 -26 -80 -39 -136 -39c-135 0 -184 100 -184 268v72c0 193 62 266 285 266
c63 0 144 -4 224 -12v-434l34 -4v-144zM330 157v276c-12 2 -26 2 -33 2c-46 0 -58 -13 -58 -107v-72c0 -88 6 -107 48 -107c15 0 32 3 43 8z" />
    <glyph glyph-name="aringacute" unicode="&#x1fb;" horiz-adv-x="562" 
d="M536 0h-222v32c-31 -22 -87 -44 -143 -44c-113 0 -143 74 -143 163v31c0 147 109 160 246 160h16v34c0 54 -8 63 -62 63h-26l-8 -35h-131v151c32 12 126 39 218 39c144 0 221 -46 221 -218v-228l34 -4v-144zM302 130v116h-25c-36 0 -50 -7 -50 -59v-27
c0 -31 10 -41 30 -41c17 0 33 6 45 11zM439 732c0 -83 -63 -127 -147 -127s-147 44 -147 127c0 81 63 128 147 128s147 -46 147 -128zM341 733c0 28 -19 45 -49 45s-49 -17 -49 -45s19 -46 49 -46s49 18 49 46zM508 1012l-138 -136h-185l101 136h222z" />
    <glyph glyph-name="aringacute.alt" unicode="&#xe442;" horiz-adv-x="596" 
d="M460 745c0 -83 -63 -127 -147 -127s-147 44 -147 127c0 81 63 128 147 128s147 -46 147 -128zM362 746c0 28 -19 45 -49 45s-49 -17 -49 -45s19 -46 49 -46s49 18 49 46zM570 0h-223v27c-38 -26 -80 -39 -136 -39c-135 0 -184 100 -184 268v72c0 193 62 266 285 266
c63 0 144 -4 224 -12v-434l34 -4v-144zM330 157v276c-12 2 -26 2 -33 2c-46 0 -58 -13 -58 -107v-72c0 -88 6 -107 48 -107c15 0 32 3 43 8zM539 1028l-138 -136h-185l101 136h222z" />
    <glyph glyph-name="a.superior" unicode="&#xf6e9;" horiz-adv-x="381" 
d="M351 318h-141v20c-19 -12 -51 -27 -90 -27c-71 0 -90 45 -90 99v18c0 92 71 96 155 96h10v20c0 30 -5 36 -37 36h-17l-4 -20h-84v93c20 7 80 24 139 24c90 0 139 -28 139 -135v-129l20 -4v-91zM203 398v68h-15c-23 0 -30 -4 -30 -35v-15c0 -18 7 -23 19 -23
c10 0 18 2 26 5z" />
    <glyph glyph-name="at.cap" unicode="&#xe138;" horiz-adv-x="750" 
d="M722 465c0 -204 -97 -341 -331 -341c-150 0 -207 54 -208 163c0 25 1 53 3 77c12 154 77 220 211 220c61 0 122 -12 160 -24l-27 -314c61 35 93 111 93 219c0 134 -72 217 -220 217c-156 0 -236 -118 -266 -306c-6 -37 -11 -78 -11 -122c0 -150 74 -215 231 -215
c61 0 124 6 160 10v-64c-24 -6 -96 -18 -160 -18c-215 0 -329 88 -329 287c0 48 5 94 12 134c41 233 158 371 363 371c191 0 319 -102 319 -294zM404 477c-6 2 -13 2 -20 2c-30 0 -46 -23 -54 -119c-3 -29 -3 -51 -3 -74c0 -46 9 -62 40 -62h18z" />
    <glyph glyph-name="atilde.alt" unicode="&#xe285;" horiz-adv-x="596" 
d="M570 0h-223v27c-38 -26 -80 -39 -136 -39c-135 0 -184 100 -184 268v72c0 193 62 266 285 266c63 0 144 -4 224 -12v-434l34 -4v-144zM330 157v276c-12 2 -26 2 -33 2c-46 0 -58 -13 -58 -107v-72c0 -88 6 -107 48 -107c15 0 32 3 43 8zM512 777
c0 -102 -61 -139 -119 -139c-35 0 -65 4 -94 19l-38 20c-13 7 -24 13 -35 13c-16 0 -21 -9 -21 -30v-20h-124v20c0 102 55 139 120 139c31 0 59 -5 92 -23l37 -20c15 -8 24 -11 37 -11c16 0 22 11 22 32v19h123v-19z" />
    <glyph glyph-name="braceleft.cap" unicode="&#xe139;" horiz-adv-x="358" 
d="M332 0h-43c-171 0 -226 33 -226 176v72c0 52 -14 65 -38 81v85c24 17 38 30 38 82v70c0 145 55 177 226 177h43v-133h-38c-39 0 -46 -2 -46 -44v-70c0 -70 -21 -98 -61 -124c41 -27 61 -54 61 -124v-72c0 -41 7 -44 46 -44h38v-132z" />
    <glyph glyph-name="braceright.cap" unicode="&#xe13a;" horiz-adv-x="357" 
d="M332 329c-24 -16 -38 -29 -38 -81v-72c0 -143 -55 -176 -226 -176h-43v132h38c39 0 46 3 46 44v72c0 70 21 97 61 124c-40 26 -61 54 -61 124v70c0 42 -7 44 -46 44h-38v133h43c171 0 226 -32 226 -177v-70c0 -52 14 -65 38 -82v-85z" />
    <glyph glyph-name="bracketleft.cap" unicode="&#xe13b;" horiz-adv-x="324" 
d="M297 0h-265v743h265v-132h-81v-479h81v-132z" />
    <glyph glyph-name="bracketright.cap" unicode="&#xe13c;" horiz-adv-x="324" 
d="M292 0h-265v132h81v479h-81v132h265v-743z" />
    <glyph glyph-name="b.superior" unicode="&#xf6ea;" horiz-adv-x="399" 
d="M370 480c0 -124 -51 -170 -174 -170c-41 0 -82 2 -148 10v373l-20 3v92h156v-114c8 2 21 4 35 4c110 0 151 -55 151 -165v-33zM234 480v33c0 54 -4 63 -33 63c-6 0 -14 -1 -21 -3v-160c6 0 13 -1 20 -1c28 0 34 8 34 68z" />
    <glyph glyph-name="cent.denominator" unicode="&#xe119;" horiz-adv-x="350" 
d="M323 3c-16 -6 -42 -10 -69 -12v-77h-122v84c-69 21 -106 79 -106 205v39c0 124 36 184 106 204v79h122v-72c28 -2 55 -7 69 -11v-132h-77l-4 26h-10c-38 0 -54 -12 -54 -94v-39c0 -82 16 -94 56 -94c14 0 65 2 89 4v-110z" />
    <glyph glyph-name="cent.numerator" unicode="&#xe12d;" horiz-adv-x="350" 
d="M323 310c-16 -5 -42 -10 -69 -12v-76h-122v83c-69 21 -106 80 -106 206v38c0 124 36 184 106 205v78h122v-71c28 -3 55 -7 69 -11v-132h-77l-4 25h-10c-38 0 -54 -12 -54 -94v-38c0 -82 16 -94 56 -94c14 0 67 1 89 3v-110z" />
    <glyph glyph-name="cent.taboldstyle" unicode="&#xe500;" horiz-adv-x="502" 
d="M467 5c-23 -8 -72 -14 -108 -17v-99h-166v108c-115 35 -159 115 -159 275v60c0 153 47 242 159 274v99h166v-89c31 -2 86 -8 109 -16v-179h-107l-8 35c-5 1 -10 1 -16 1c-58 0 -82 -17 -82 -125v-60c0 -108 24 -124 82 -124c47 0 90 3 130 4v-147z" />
    <glyph glyph-name="cent.inferior" unicode="&#xf6df;" horiz-adv-x="350" 
d="M323 4c-16 -5 -42 -10 -69 -12v-77h-122v84c-69 21 -106 79 -106 205v39c0 124 36 184 106 204v79h122v-71c28 -3 55 -8 69 -12v-131h-77l-4 25h-10c-38 0 -54 -12 -54 -94v-39c0 -82 16 -94 56 -94c14 0 67 2 89 4v-110z" />
    <glyph glyph-name="cent.oldstyle" unicode="&#xf7a2;" horiz-adv-x="528" 
d="M480 5c-23 -8 -73 -14 -109 -17v-99h-165v108c-115 35 -159 115 -159 275v60c0 153 47 242 159 274v99h165v-89c32 -2 86 -8 110 -16v-179h-108l-7 35c-6 1 -10 1 -16 1c-59 0 -82 -17 -82 -125v-60c0 -108 23 -124 82 -124c47 0 90 3 130 4v-147z" />
    <glyph glyph-name="cent.superior" unicode="&#xf6e0;" horiz-adv-x="350" 
d="M324 306c-16 -5 -42 -10 -69 -12v-77h-122v84c-69 21 -106 80 -106 205v39c0 124 36 184 106 204v79h122v-71c28 -3 54 -7 69 -12v-131h-77l-4 25h-10c-38 0 -55 -12 -55 -94v-39c0 -81 17 -94 57 -94c10 0 58 2 89 4v-110z" />
    <glyph glyph-name="colonmonetary" unicode="&#x20a1;" horiz-adv-x="475" 
d="M450 13c-16 -5 -40 -11 -67 -15v-115h-95v105h-23c-14 0 -26 1 -37 2v-107h-95v132c-72 37 -105 116 -105 241v70c1 124 33 203 105 241v124h95v-99c12 1 23 2 37 2c8 0 15 0 23 -1v98h95v-107c31 -5 52 -10 67 -15v-168h-125l-7 32h-13c-53 0 -66 -16 -66 -107v-70
c0 -92 13 -108 66 -108c42 0 100 3 145 6v-141z" />
    <glyph glyph-name="colonmonetary.taboldstyle" unicode="&#xe437;" horiz-adv-x="502" 
d="M468 5c-14 -5 -43 -10 -67 -13v-99h-87v92h-14c-20 0 -40 1 -54 3v-95h-86v119c-89 38 -126 122 -126 260v60c0 138 37 222 126 260v109h86v-84c16 2 38 3 54 3h14v81h87v-89c24 -3 48 -7 67 -12v-179h-107l-8 35h-16c-58 0 -82 -16 -82 -124v-60c0 -108 24 -124 82 -124
c43 0 96 2 131 4v-147z" />
    <glyph glyph-name="comma.denominator" unicode="&#xe11a;" horiz-adv-x="210" 
d="M183 106l-64 -172h-103l41 172h126z" />
    <glyph glyph-name="comma.numerator" unicode="&#xe130;" horiz-adv-x="210" 
d="M183 409l-63 -172h-104l41 172h126z" />
    <glyph glyph-name="commaaccent" unicode="&#xf6c3;" horiz-adv-x="372" 
d="M317 -57l-91 -139h-177l60 139h208z" />
    <glyph glyph-name="commaaccent.alt" unicode="&#xe504;" horiz-adv-x="372" 
d="M321 788l-59 -140h-208l90 140h177z" />
    <glyph glyph-name="commaaccent.cap" unicode="&#xe46b;" horiz-adv-x="372" 
d="M317 -57l-91 -139h-177l60 139h208z" />
    <glyph glyph-name="comma.inferior" unicode="&#xf6e1;" horiz-adv-x="210" 
d="M183 106l-63 -172h-104l41 172h126z" />
    <glyph glyph-name="comma.superior" unicode="&#xf6e2;" horiz-adv-x="210" 
d="M183 409l-64 -172h-103l41 172h126z" />
    <glyph glyph-name="currency.taboldstyle" unicode="&#xe438;" horiz-adv-x="600" 
d="M573 128l-86 -79l-76 71c-34 -17 -71 -27 -108 -27c-39 0 -75 9 -111 28l-80 -76l-85 80l80 76c-19 32 -28 68 -28 105c0 36 9 70 28 102l-81 77l86 79l80 -75c34 19 72 28 111 28c38 0 75 -8 109 -28l77 73l85 -81l-78 -71c20 -34 31 -69 31 -105
c0 -37 -10 -73 -30 -105zM401 306c0 63 -45 95 -99 95c-55 0 -99 -32 -99 -95c0 -65 46 -96 99 -96c51 0 99 31 99 96z" />
    <glyph glyph-name="cyrBreve" unicode="&#xf6d1;" horiz-adv-x="475" 
d="M448 788c-21 -117 -124 -150 -210 -150s-189 33 -210 150h128c9 -45 42 -56 82 -56s74 11 83 56h127z" />
    <glyph glyph-name="cyrFlex" unicode="&#xf6d2;" horiz-adv-x="475" 
d="M448 641h-127c-9 44 -43 55 -83 55s-73 -11 -82 -55h-128c21 116 124 149 210 149s189 -33 210 -149z" />
    <glyph glyph-name="cyrbreve" unicode="&#xf6d4;" horiz-adv-x="475" 
d="M448 788c-21 -117 -124 -150 -210 -150s-189 33 -210 150h128c9 -45 42 -56 82 -56s74 11 83 56h127z" />
    <glyph glyph-name="cyrflex" unicode="&#xf6d5;" horiz-adv-x="475" 
d="M448 641h-127c-9 44 -43 55 -83 55s-73 -11 -82 -55h-128c21 116 124 149 210 149s189 -33 210 -149z" />
    <glyph glyph-name="dblGrave" unicode="&#xf6d3;" horiz-adv-x="622" 
d="M596 642h-173l-137 136h208zM320 642l-102 136h-208l137 -136h173z" />
    <glyph glyph-name="dblgrave" unicode="&#xf6d6;" horiz-adv-x="622" 
d="M596 642h-173l-137 136h208zM320 642l-102 136h-208l137 -136h173z" />
    <glyph glyph-name="dieresisacute" unicode="&#x385;" horiz-adv-x="653" 
d="M14 672h154v132h-154v-132zM182 666l80 142h212l-116 -142h-176zM486 672h153v132h-153v-132z" />
    <glyph glyph-name="dieresisgrave" unicode="&#x1fed;" horiz-adv-x="653" 
d="M639 672h-154v132h154v-132zM391 808l80 -142h-176l-116 142h212zM167 672h-153v132h153v-132z" />
    <glyph glyph-name="dollar.denominator" unicode="&#xe11b;" horiz-adv-x="372" 
d="M345 130c0 -70 -37 -119 -100 -134v-81h-122v77c-36 2 -66 7 -88 13v117h79l5 -27c12 -1 25 -1 39 -1c29 0 42 12 42 30c0 17 -8 29 -54 54l-25 14c-61 34 -95 72 -95 135s30 104 97 121v77h122v-72c39 -3 72 -10 93 -15v-114h-79l-5 23c-15 2 -29 2 -43 2
c-26 0 -43 -5 -43 -25c0 -13 8 -22 43 -42l25 -14c79 -44 109 -73 109 -138z" />
    <glyph glyph-name="dollar.numerator" unicode="&#xe131;" horiz-adv-x="372" 
d="M345 437c0 -70 -37 -119 -100 -134v-81h-122v77c-36 2 -66 7 -88 13v117h79l5 -27c12 -1 25 -1 39 -1c29 0 42 12 42 30c0 17 -8 29 -54 54l-25 14c-61 34 -95 72 -95 135s30 104 97 121v77h122v-72c39 -3 72 -10 93 -15v-114h-79l-5 23c-15 2 -29 2 -43 2
c-26 0 -43 -5 -43 -25c0 -13 8 -22 43 -42l25 -14c79 -44 109 -73 109 -138z" />
    <glyph glyph-name="dollar.taboldstyle" unicode="&#xe42f;" horiz-adv-x="535" 
d="M501 181c0 -107 -54 -168 -150 -188v-99h-166v94c-53 4 -101 11 -136 19v168h110l8 -37h58c42 0 57 8 57 33c0 21 -14 34 -65 60l-48 25c-87 45 -135 87 -135 183c0 100 52 154 151 173v89h166v-84c52 -5 98 -14 129 -21v-161h-110l-9 34c-18 1 -37 1 -55 1
c-36 0 -57 -3 -57 -27c0 -17 10 -27 55 -51l51 -27c97 -52 146 -92 146 -184z" />
    <glyph glyph-name="dollar.inferior" unicode="&#xf6e3;" horiz-adv-x="372" 
d="M345 130c0 -70 -37 -119 -100 -134v-81h-122v77c-36 2 -66 7 -88 13v117h79l5 -27c12 -1 25 -1 39 -1c29 0 42 12 42 30c0 17 -8 29 -54 54l-25 14c-61 34 -95 72 -95 135s30 104 97 121v77h122v-72c39 -3 72 -10 93 -15v-114h-79l-5 23c-15 2 -29 2 -43 2
c-26 0 -43 -5 -43 -25c0 -13 8 -22 43 -42l25 -14c79 -44 109 -73 109 -138z" />
    <glyph glyph-name="dollar.superior" unicode="&#xf6e4;" horiz-adv-x="372" 
d="M345 437c0 -70 -37 -119 -100 -134v-81h-122v77c-36 2 -66 7 -88 13v117h79l5 -27c12 -1 25 -1 39 -1c29 0 42 12 42 30c0 17 -8 29 -54 54l-25 14c-61 34 -95 72 -95 135s30 104 97 121v77h122v-72c39 -3 72 -10 93 -15v-114h-79l-5 23c-15 2 -29 2 -43 2
c-26 0 -43 -5 -43 -25c0 -13 8 -22 43 -42l25 -14c79 -44 109 -73 109 -138z" />
    <glyph glyph-name="dotlessj" unicode="&#xf6be;" horiz-adv-x="314" 
d="M282 -22c0 -142 -60 -189 -190 -189c-48 0 -88 5 -112 12v134h50c33 0 40 7 40 43v448l-34 6v150h246v-604z" />
    <glyph glyph-name="d.superior" unicode="&#xf6eb;" horiz-adv-x="403" 
d="M374 318h-142v19c-22 -16 -50 -27 -85 -27c-85 0 -117 64 -117 169v33c0 112 44 165 153 165c15 0 25 -1 35 -1v30l-21 3v79h156v-375l21 -4v-91zM221 417v156c-7 2 -16 2 -20 2c-27 0 -35 -8 -35 -63v-33c0 -54 4 -66 30 -66c9 0 19 3 25 4z" />
    <glyph glyph-name="emdash.cap" unicode="&#xe13d;" horiz-adv-x="464" 
d="M435 322h-407v122h407v-122z" />
    <glyph glyph-name="endash.cap" unicode="&#xe13e;" horiz-adv-x="326" 
d="M298 322h-270v122h270v-122z" />
    <glyph glyph-name="e.superior" unicode="&#xf6ec;" horiz-adv-x="379" 
d="M349 458h-184v-3c0 -37 2 -50 53 -50c27 0 74 1 116 5v-83c-23 -7 -80 -17 -134 -17c-106 0 -170 41 -170 155v53c0 116 65 159 162 159c123 0 157 -77 157 -163v-56zM220 524v4c0 45 -6 59 -28 59c-23 0 -27 -14 -27 -59v-4h55z" />
    <glyph glyph-name="exclamdbl" unicode="&#x203c;" horiz-adv-x="642" 
d="M599 0h-232v181h232v-181zM359 779h251l-21 -537h-210zM273 181v-181h-232v181h232zM283 779l-20 -537h-210l-21 537h251z" />
    <glyph glyph-name="exclamdown.cap" unicode="&#xe142;" horiz-adv-x="315" 
d="M283 -36h-251l20 537h210zM273 743v-181h-232v181h232z" />
    <glyph glyph-name="figuredash" unicode="&#x2012;" horiz-adv-x="678" 
d="M664 217h-636v133h636v-133z" />
    <glyph glyph-name="florin.taboldstyle" unicode="&#xe435;" horiz-adv-x="519" 
d="M486 604l-12 -109h-53c-26 0 -33 -6 -36 -32l-9 -78h87l-16 -132h-86l-27 -248c-14 -124 -85 -155 -171 -155c-56 0 -90 6 -130 15l14 109h51c28 0 33 9 36 33l27 246h-78l14 132h79l9 80c14 124 86 154 172 154c56 0 90 -6 129 -15z" />
    <glyph glyph-name="guillemotleft.cap" unicode="&#xe134;" horiz-adv-x="677" 
d="M651 120h-202l-123 231l123 230h202l-121 -230zM351 120l-120 231l120 230h-202l-123 -230l123 -231h202z" />
    <glyph glyph-name="guillemotright.cap" unicode="&#xe135;" horiz-adv-x="677" 
d="M651 351l-124 -231h-202l120 231l-120 230h202zM351 351l-123 230h-202l120 -230l-120 -231h202z" />
    <glyph glyph-name="guilsinglleft.cap" unicode="&#xe136;" horiz-adv-x="375" 
d="M349 120h-202l-121 231l121 230h202l-118 -230z" />
    <glyph glyph-name="guilsinglright.cap" unicode="&#xe137;" horiz-adv-x="375" 
d="M349 351l-121 -231h-202l118 231l-118 230h202z" />
    </font>
</defs>
</svg>
