<?xml version="1.0" standalone="no"?>
<!DOCTYPE svg PUBLIC "-//W3C//DTD SVG 1.1//EN" "http://www.w3.org/Graphics/SVG/1.1/DTD/svg11.dtd" >
<svg xmlns="http://www.w3.org/2000/svg" xmlns:xlink="http://www.w3.org/1999/xlink" version="1.1">
<metadata>
Created by FontForge 20141024 at Thu Apr 30 19:17:52 2015
 By System Administrator
Copyright (c) 2007 Monotype Imaging Inc. Soho is designed by Sebastian Lester. All rights reserved.
</metadata>
<defs>
<font id="SohoPro-Compressed" horiz-adv-x="230" >
  <font-face 
    font-family="Soho Pro"
    font-weight="400"
    font-stretch="normal"
    units-per-em="1000"
    panose-1="2 4 5 8 3 5 6 2 2 4"
    ascent="760"
    descent="-240"
    x-height="550"
    cap-height="743"
    bbox="-69 -218 910 1011"
    underline-thickness="52"
    underline-position="-29"
    stemh="72"
    stemv="76"
    unicode-range="U+000D-FB16"
  />
<missing-glyph horiz-adv-x="132" 
 />
    <glyph glyph-name="f_i" unicode="fi" horiz-adv-x="361" 
d="M338 0h-136v69l31 4v408h-95v-408l30 -5v-68h-136v68l30 5v408l-49 10v59h49v87c0 94 24 130 86 130c26 0 48 -8 59 -15v-53c-6 1 -26 3 -35 3c-28 0 -34 -7 -34 -65v-87h171v-477l29 -4v-69zM310 654h-78v106h78v-106z" />
    <glyph glyph-name="f_l" unicode="fl" horiz-adv-x="378" 
d="M355 0h-136v68l30 5v627c-26 2 -58 3 -67 3c-38 0 -44 -8 -44 -66v-87h63v-69h-63v-408l30 -5v-68h-136v68l30 5v408l-49 10v59h49v87c0 101 24 130 94 130c28 0 58 -3 93 -7h76v-687l30 -5v-68z" />
    <glyph glyph-name="f_f" unicode="ff" horiz-adv-x="393" 
d="M372 481h-63v-408l30 -5v-68h-136v68l30 5v408h-95v-408l30 -5v-68h-136v68l30 5v408l-49 10v59h49v87c0 94 24 130 86 130c26 0 48 -8 59 -15v-53c-6 1 -26 3 -35 3c-28 0 -34 -7 -34 -65v-87h95v87c0 94 24 130 86 130c26 0 48 -8 59 -15v-53c-6 1 -26 3 -35 3
c-28 0 -34 -7 -34 -65v-87h63v-69z" />
    <glyph glyph-name="f_f_i" unicode="ffi" horiz-adv-x="530" 
d="M507 0h-136v69l31 4v408h-93v-408l30 -5v-68h-136v68l30 5v408h-95v-408l30 -5v-68h-136v68l30 5v408l-49 10v59h49v87c0 94 24 130 86 130c26 0 48 -8 59 -15v-53c-6 1 -26 3 -35 3c-28 0 -34 -7 -34 -65v-87h95v87c0 94 24 130 86 130c26 0 48 -8 59 -15v-53
c-6 1 -26 3 -35 3c-28 0 -34 -7 -34 -65v-87h169v-477l29 -4v-69zM479 654h-78v106h78v-106z" />
    <glyph glyph-name="f_f_l" unicode="ffl" horiz-adv-x="545" 
d="M523 0h-136v68l30 5v627c-26 2 -56 3 -65 3c-38 0 -44 -8 -44 -66v-87h63v-69h-63v-408l30 -5v-68h-136v68l30 5v408h-94v-408l30 -5v-68h-136v68l30 5v408l-49 10v59h49v87c0 94 24 130 86 130c26 0 48 -8 59 -15v-53c-6 1 -26 3 -35 3c-28 0 -34 -7 -34 -65v-87h94v87
c0 101 24 130 94 130c28 0 56 -3 91 -7h76v-687l30 -5v-68z" />
    <glyph glyph-name="f_b" unicode="fb" horiz-adv-x="504" 
d="M479 198c0 -140 -21 -205 -150 -205c-28 0 -42 1 -96 7v699c-19 2 -45 3 -61 3c-28 0 -34 -7 -34 -65v-87h63v-69h-63v-408l30 -5v-68h-136v68l30 5v408l-49 10v59h49v87c0 94 24 130 86 130c26 0 52 -2 85 -7h74v-234c19 19 48 31 78 31c81 0 94 -67 94 -178v-181z
M309 66c14 -1 18 -1 26 -1c55 0 68 17 68 133v181c0 78 -3 106 -40 106c-17 0 -36 -6 -54 -20v-399z" />
    <glyph glyph-name="f_f_b" unicode="ffb" horiz-adv-x="676" 
d="M651 198c0 -140 -21 -205 -150 -205c-28 0 -42 1 -96 7v699c-19 2 -45 3 -61 3c-28 0 -34 -7 -34 -65v-87h63v-69h-63v-408l30 -5v-68h-136v68l30 5v408h-96v-408l30 -5v-68h-136v68l30 5v408l-49 10v59h49v87c0 94 24 130 86 130c26 0 48 -8 59 -15v-53
c-6 1 -26 3 -35 3c-28 0 -34 -7 -34 -65v-87h96v87c0 94 24 130 86 130c26 0 52 -2 85 -7h74v-234c19 19 48 31 78 31c81 0 94 -67 94 -178v-181zM575 198v181c0 78 -3 106 -40 106c-17 0 -36 -6 -54 -20v-400h26c55 0 68 17 68 133z" />
    <glyph glyph-name="f_f_h" unicode="ffh" horiz-adv-x="703" 
d="M680 0h-106v393c0 72 -2 94 -32 94c-18 0 -38 -11 -62 -32v-382l30 -5v-68h-136v68l30 5v627c-26 2 -41 3 -50 3c-38 0 -45 -8 -45 -66v-87h63v-69h-63v-408l30 -5v-68h-136v68l30 5v408h-95v-408l30 -5v-68h-136v68l30 5v408l-49 10v59h49v87c0 94 24 130 86 130
c26 0 48 -8 59 -15v-53c-6 1 -26 3 -35 3c-28 0 -34 -7 -34 -65v-87h95v87c0 101 30 130 98 130c25 0 46 -3 73 -7h76v-235c19 18 46 32 81 32c86 0 89 -85 89 -157v-327l30 -5v-68z" />
    <glyph glyph-name="f_f_j" unicode="ffj" horiz-adv-x="515" 
d="M480 -101c0 -58 -13 -107 -74 -107c-24 0 -46 5 -58 9v58c10 -1 18 -1 29 -1c22 0 27 6 27 41v582h-94v-408l30 -5v-68h-136v68l30 5v408h-96v-408l30 -5v-68h-136v68l30 5v408l-49 10v59h49v87c0 94 24 130 86 130c26 0 48 -8 59 -15v-53c-6 1 -26 3 -35 3
c-28 0 -34 -7 -34 -65v-87h96v87c0 94 24 130 86 130c26 0 48 -8 59 -15v-53c-6 1 -26 3 -35 3c-28 0 -34 -7 -34 -65v-87h170v-651zM479 654h-78v106h78v-106z" />
    <glyph glyph-name="f_f_k" unicode="ffk" horiz-adv-x="679" 
d="M656 0h-102l-76 262v-262h-106v68l30 5v627c-26 2 -40 3 -49 3c-38 0 -45 -8 -45 -66v-87h63v-69h-63v-408l30 -5v-68h-136v68l30 5v408h-94v-408l30 -5v-68h-136v68l30 5v408l-49 10v59h49v87c0 94 24 130 86 130c26 0 48 -8 59 -15v-53c-6 1 -26 3 -35 3
c-28 0 -34 -7 -34 -65v-87h94v87c0 101 30 130 98 130c25 0 45 -3 72 -7h76v-460l75 250h103v-68l-46 -5l-64 -193l67 -211l43 -5v-68z" />
    <glyph glyph-name="f_h" unicode="fh" horiz-adv-x="532" 
d="M509 0h-106v393c0 72 -2 94 -32 94c-18 0 -38 -11 -62 -32v-382l30 -5v-68h-136v68l30 5v627c-26 2 -41 3 -50 3c-38 0 -45 -8 -45 -66v-87h63v-69h-63v-408l30 -5v-68h-136v68l30 5v408l-49 10v59h49v87c0 101 30 130 98 130c25 0 46 -3 73 -7h76v-235
c19 18 46 32 81 32c86 0 89 -85 89 -157v-327l30 -5v-68z" />
    <glyph glyph-name="f_j" unicode="fj" horiz-adv-x="343" 
d="M308 -101c0 -58 -13 -107 -74 -107c-24 0 -46 5 -58 9v58c10 -1 18 -1 29 -1c22 0 27 6 27 41v582h-94v-408l30 -5v-68h-136v68l30 5v408l-49 10v59h49v87c0 94 24 130 86 130c26 0 48 -8 59 -15v-53c-6 1 -26 3 -35 3c-28 0 -34 -7 -34 -65v-87h170v-651zM307 654h-78
v106h78v-106z" />
    <glyph glyph-name="f_k" unicode="fk" horiz-adv-x="510" 
d="M487 0h-102l-76 262v-262h-106v68l30 5v627c-26 2 -41 3 -50 3c-38 0 -45 -8 -45 -66v-87h63v-69h-63v-408l30 -5v-68h-136v68l30 5v408l-49 10v59h49v87c0 101 30 130 98 130c25 0 46 -3 73 -7h76v-460l75 250h103v-68l-46 -5l-64 -193l67 -211l43 -5v-68z" />
    <glyph glyph-name=".notdef" horiz-adv-x="132" 
 />
    <glyph glyph-name="CR" unicode="&#xd;" horiz-adv-x="132" 
 />
    <glyph glyph-name="space" unicode=" " horiz-adv-x="132" 
 />
    <glyph glyph-name="numbersign" unicode="#" horiz-adv-x="377" 
d="M343 196h-77l-10 -196h-64l10 196h-59l-10 -196h-64l10 196h-44v67h48l11 200h-59v67h62l12 213h64l-12 -213h59l12 213h64l-12 -213h59v-67h-62l-11 -200h73v-67zM217 463h-59l-11 -200h59z" />
    <glyph glyph-name="dollar" unicode="$" horiz-adv-x="320" 
d="M290 183c0 -104 -35 -162 -96 -182v-119h-76v112c-44 3 -78 15 -88 20v107h58l10 -55c3 0 15 -1 32 -1c69 0 81 41 81 118c0 64 -19 98 -57 146l-48 61c-54 69 -76 116 -76 192c0 88 29 142 88 160v112h76v-105c42 -3 75 -15 86 -20v-103h-58l-11 50c-6 1 -14 2 -27 2
c-65 0 -75 -33 -75 -96c0 -55 19 -89 57 -137l48 -61c54 -69 76 -125 76 -201z" />
    <glyph glyph-name="percent" unicode="%" horiz-adv-x="675" 
d="M640 169c0 -99 -17 -176 -113 -176c-97 0 -114 77 -114 176v108c0 100 17 175 114 175c96 0 113 -75 113 -175v-108zM571 169v108c0 84 -9 111 -44 111s-44 -27 -44 -111v-108c0 -84 9 -111 44 -111s44 27 44 111zM486 743l-230 -743h-66l230 743h66zM262 467
c0 -99 -17 -176 -113 -176c-97 0 -114 77 -114 176v108c0 100 17 175 114 175c96 0 113 -75 113 -175v-108zM193 467v108c0 84 -9 111 -44 111s-44 -27 -44 -111v-108c0 -84 9 -111 44 -111s44 27 44 111z" />
    <glyph glyph-name="ampersand" unicode="&#x26;" horiz-adv-x="396" 
d="M381 352l-30 -5c0 -89 -7 -180 -32 -245l40 -85v-17h-76l-13 27c-21 -18 -49 -34 -95 -34c-69 0 -140 30 -140 171v13c0 83 21 127 73 195l-5 10c-42 84 -54 117 -54 200v22c0 102 45 146 121 146c53 0 96 -16 108 -21v-103h-58l-11 52h-32c-33 0 -52 -8 -52 -74v-22
c0 -62 5 -78 31 -134l121 -257c8 49 8 109 8 156l-30 5v58h126v-58zM240 90l-98 210c-28 -35 -32 -67 -32 -123v-13c0 -80 27 -102 63 -102c32 0 50 12 67 28z" />
    <glyph glyph-name="quoteright" unicode="&#x2019;" horiz-adv-x="140" 
d="M120 760l-39 -222h-61l22 222h78z" />
    <glyph glyph-name="parenleft" unicode="(" horiz-adv-x="203" 
d="M188 -196h-71c-50 120 -82 284 -82 466v7c0 182 32 346 82 466h71c-51 -138 -74 -286 -74 -466v-7c0 -180 23 -328 74 -466z" />
    <glyph glyph-name="parenright" unicode=")" horiz-adv-x="203" 
d="M168 270c0 -182 -32 -346 -82 -466h-71c51 138 74 286 74 466v7c0 180 -23 328 -74 466h71c50 -120 82 -284 82 -466v-7z" />
    <glyph glyph-name="asterisk" unicode="*" horiz-adv-x="435" 
d="M410 591l-49 -16c-29 -10 -62 -18 -96 -22c25 -23 46 -49 64 -73l31 -41l-63 -46l-31 42c-18 24 -36 53 -50 84c-15 -31 -33 -58 -50 -83l-29 -42l-64 45l31 43c18 24 39 50 64 73c-34 4 -65 13 -94 22l-49 15l23 74l50 -16c29 -9 60 -21 89 -38c-6 33 -8 65 -8 96v52h78
v-52c0 -31 -3 -64 -10 -98c30 17 61 29 90 39l49 16z" />
    <glyph glyph-name="plus" unicode="+" horiz-adv-x="355" 
d="M337 360h-127v-128h-64v128h-129v63h129v128h64v-128h127v-63z" />
    <glyph glyph-name="comma" unicode="," horiz-adv-x="155" 
d="M135 133l-59 -227h-66l35 227h90z" />
    <glyph glyph-name="hyphen" unicode="-" horiz-adv-x="183" 
d="M168 258h-153v69h153v-69z" />
    <glyph glyph-name="period" unicode="." horiz-adv-x="135" 
d="M105 0h-75v133h75v-133z" />
    <glyph glyph-name="slash" unicode="/" 
d="M233 743l-160 -743h-75l160 743h75z" />
    <glyph glyph-name="zero" unicode="0" horiz-adv-x="349" 
d="M315 233c0 -138 -10 -240 -140 -240s-140 102 -140 240v277c0 138 10 240 140 240s140 -102 140 -240v-277zM237 233v277c0 118 -2 171 -62 171s-62 -53 -62 -171v-277c0 -118 2 -171 62 -171s62 53 62 171z" />
    <glyph glyph-name="one" unicode="1" horiz-adv-x="346" 
d="M318 0h-290v67l107 6v584l-107 -43v72l122 57h62v-670l106 -6v-67z" />
    <glyph glyph-name="two" unicode="2" horiz-adv-x="327" 
d="M288 0h-253v98c0 150 38 203 110 302c63 86 73 117 73 173c0 88 -22 109 -90 109c-8 0 -18 -1 -28 -2l-10 -54h-58v104c9 4 53 20 111 20c105 0 153 -55 153 -177c0 -57 -6 -105 -94 -222c-79 -105 -94 -143 -94 -253v-25h112l10 48h58v-121z" />
    <glyph glyph-name="three" unicode="3" horiz-adv-x="331" 
d="M296 186c0 -156 -61 -193 -162 -193c-48 0 -92 16 -102 20v108h58l10 -59c10 -1 20 -1 28 -1c62 0 90 13 90 125v41c0 82 -12 126 -64 126h-98v64h98c52 0 64 37 64 119v21c0 112 -28 125 -90 125c-8 0 -18 -1 -28 -2l-10 -54h-58v104c10 4 54 20 102 20
c101 0 162 -37 162 -193v-21c0 -82 -19 -121 -54 -151c35 -30 54 -76 54 -158v-41z" />
    <glyph glyph-name="four" unicode="4" horiz-adv-x="333" 
d="M313 200h-53v-127l30 -5v-68h-139v68l30 5v127h-166v87l156 456h89v-473h53v-70zM182 270v317l-102 -317h102z" />
    <glyph glyph-name="five" unicode="5" horiz-adv-x="329" 
d="M296 186c0 -156 -61 -193 -162 -193c-48 0 -92 16 -102 20v108h58l10 -59c10 -1 20 -1 28 -1c62 0 90 13 90 125v54c0 102 -12 141 -101 141h-74l15 362h226v-117h-58l-10 44h-89l-9 -222h8c162 0 170 -99 170 -208v-54z" />
    <glyph glyph-name="six" unicode="6" horiz-adv-x="351" 
d="M316 204c0 -186 -75 -211 -140 -211s-141 25 -141 211v308c0 138 14 238 162 238c45 0 86 -14 102 -20v-104h-58l-10 54c-10 1 -20 2 -28 2c-90 0 -90 -56 -90 -170v-64c16 5 44 11 73 11c92 0 130 -52 130 -172v-83zM238 204v74c0 82 0 117 -63 117
c-18 0 -44 -4 -62 -11v-180c0 -78 3 -142 63 -142s62 64 62 142z" />
    <glyph glyph-name="seven" unicode="7" horiz-adv-x="307" 
d="M282 656l-148 -656h-80l159 670h-120l-10 -44h-58v117h257v-87z" />
    <glyph glyph-name="eight" unicode="8" horiz-adv-x="355" 
d="M321 209c0 -196 -71 -216 -143 -216h-2c-72 0 -143 20 -143 216v12c0 93 18 134 58 169c-30 24 -57 58 -57 152v14c0 131 40 194 142 194h2c102 0 142 -63 142 -194v-14c0 -94 -27 -128 -57 -152c40 -35 58 -76 58 -169v-12zM244 209v12c0 96 -17 134 -63 134h-8
c-46 0 -63 -38 -63 -134v-12c0 -120 17 -146 66 -146h2c49 0 66 26 66 146zM244 542v14c0 95 -14 126 -66 126h-2c-52 0 -66 -31 -66 -126v-14c0 -76 18 -120 63 -120h8c45 0 63 44 63 120z" />
    <glyph glyph-name="nine" unicode="9" horiz-adv-x="351" 
d="M316 232c0 -138 -14 -238 -162 -238c-45 0 -86 14 -102 20v107h58l10 -57c10 -1 20 -2 28 -2c90 0 90 56 90 170v64c-16 -5 -44 -11 -73 -11c-92 0 -130 52 -130 172v83c0 186 75 211 140 211s141 -25 141 -211v-308zM238 360v180c0 78 -3 142 -63 142s-62 -64 -62 -142
v-74c0 -82 0 -117 63 -117c18 0 44 4 62 11z" />
    <glyph glyph-name="colon" unicode=":" horiz-adv-x="146" 
d="M111 0h-76v133h76v-133zM111 550v-133h-76v133h76z" />
    <glyph glyph-name="semicolon" unicode=";" horiz-adv-x="160" 
d="M130 133l-59 -227h-66l35 227h90zM120 417h-76v133h76v-133z" />
    <glyph glyph-name="less" unicode="&#x3c;" horiz-adv-x="355" 
d="M290 141h-80l-146 250l146 250h80l-145 -250z" />
    <glyph glyph-name="equal" unicode="=" horiz-adv-x="355" 
d="M301 247h-247v67h247v-67zM301 470h-247v67h247v-67z" />
    <glyph glyph-name="greater" unicode="&#x3e;" horiz-adv-x="355" 
d="M290 391l-146 -250h-80l145 250l-145 250h80z" />
    <glyph glyph-name="question" unicode="?" horiz-adv-x="288" 
d="M157 0h-75v133h75v-133zM253 603c0 -40 -8 -87 -40 -158c-45 -98 -59 -128 -59 -191v-58h-70v58c0 61 6 105 33 164c41 87 54 132 54 185v14c0 61 -15 78 -65 78h-8l-10 -43h-58v96c18 8 58 19 96 19c66 0 127 -31 127 -150v-14z" />
    <glyph glyph-name="at" unicode="@" horiz-adv-x="453" 
d="M423 366c0 -178 -60 -311 -190 -311c-97 0 -111 61 -111 130c0 16 1 59 3 90c9 178 44 210 110 210c31 0 65 -11 92 -24l-16 -323c37 36 61 115 61 228c0 160 -30 242 -123 242c-95 0 -152 -67 -163 -332c-2 -40 -5 -85 -5 -134c0 -73 7 -202 136 -202c50 0 92 8 92 8
v-43s-43 -12 -92 -12c-162 0 -187 143 -187 250c0 48 3 101 5 136c16 283 80 377 215 377c125 0 173 -103 173 -290zM252 422c-5 2 -8 3 -15 3c-27 0 -32 -16 -41 -155c-3 -53 -3 -67 -3 -85c0 -49 7 -72 37 -72h8z" />
    <glyph glyph-name="A" unicode="A" horiz-adv-x="397" 
d="M382 0h-139v66l29 5l-23 176h-101l-24 -176l30 -5v-66h-139v68l30 5l86 597l-32 5v68h155l97 -670l31 -5v-68zM238 325l-24 197c-7 59 -10 103 -14 148h-2c-4 -45 -6 -88 -14 -148l-25 -197h79z" />
    <glyph glyph-name="B" unicode="B" horiz-adv-x="363" 
d="M333 204c0 -168 -75 -204 -163 -204h-145v68l30 5v597l-30 5v68h143c89 0 163 -34 163 -184v-16c0 -71 -23 -132 -63 -159c42 -28 65 -89 65 -163v-17zM256 204v17c0 81 -14 131 -71 131h-52v-279h37c52 0 86 20 86 131zM254 543v16c0 99 -35 111 -86 111h-35v-250h52
c57 0 69 48 69 123z" />
    <glyph glyph-name="C" unicode="C" horiz-adv-x="313" 
d="M288 13c-12 -5 -51 -20 -92 -20c-81 0 -166 13 -166 258v241c0 245 85 258 166 258c41 0 80 -15 92 -20v-104h-58l-10 47c-9 0 -17 1 -24 1c-52 0 -88 -9 -88 -182v-241c0 -173 36 -182 88 -182c7 0 15 0 24 1l10 51h58v-108z" />
    <glyph glyph-name="D" unicode="D" horiz-adv-x="379" 
d="M344 254c0 -121 -5 -254 -181 -254h-138v68l30 5v597l-30 5v68h138c176 0 181 -130 181 -251v-238zM265 254v238c0 121 -5 178 -102 178h-30v-597h30c97 0 102 60 102 181z" />
    <glyph glyph-name="E" unicode="E" horiz-adv-x="323" 
d="M298 0h-273v68l30 5v597l-30 5v68h273v-117h-58l-10 44h-97v-245h155v-77h-155v-275h97l10 48h58v-121z" />
    <glyph glyph-name="F" unicode="F" horiz-adv-x="318" 
d="M288 348h-155v-275l30 -5v-68h-138v68l30 5v597l-30 5v68h273v-117h-58l-10 44h-97v-245h155v-77z" />
    <glyph glyph-name="G" unicode="G" horiz-adv-x="328" 
d="M303 14c-12 -6 -69 -21 -112 -21c-86 0 -161 28 -161 251v256c0 226 79 250 161 250c54 0 103 -18 111 -21v-103h-58l-10 46c-11 1 -21 2 -28 2c-61 0 -98 0 -98 -174v-256c0 -171 34 -175 98 -175c6 0 8 0 19 1v240l-51 5v68h129v-369z" />
    <glyph glyph-name="H" unicode="H" horiz-adv-x="416" 
d="M391 0h-138v68l30 5v282h-150v-282l30 -5v-68h-138v68l30 5v597l-30 5v68h138v-68l-30 -5v-239h150v239l-30 5v68h138v-68l-30 -5v-597l30 -5v-68z" />
    <glyph glyph-name="I" unicode="I" horiz-adv-x="188" 
d="M163 0h-138v68l30 5v597l-30 5v68h138v-68l-30 -5v-597l30 -5v-68z" />
    <glyph glyph-name="J" unicode="J" horiz-adv-x="179" 
d="M154 675l-30 -5v-774c0 -76 -29 -99 -84 -99c-24 0 -47 5 -65 12v57h51s20 6 20 30v774l-30 5v68h138v-68z" />
    <glyph glyph-name="K" unicode="K" horiz-adv-x="367" 
d="M347 0h-99l-115 352v-279l30 -5v-68h-138v68l30 5v597l-30 5v68h138v-68l-30 -5v-273l120 346h94v-68l-36 -5l-105 -293l105 -304l36 -5v-68z" />
    <glyph glyph-name="L" unicode="L" horiz-adv-x="298" 
d="M278 0h-253v68l30 5v597l-30 5v68h138v-68l-30 -5v-597h77l10 48h58v-121z" />
    <glyph glyph-name="M" unicode="M" horiz-adv-x="462" 
d="M437 0h-136v68l30 5v409c0 64 5 120 9 175h-2c-8 -46 -15 -92 -23 -138l-35 -203h-98l-35 204c-8 45 -16 92 -23 137h-2c5 -55 9 -110 9 -175v-409l30 -5v-68h-136v68l30 5v597l-30 5v68h140l52 -281c6 -33 9 -66 13 -99h2c4 33 7 66 13 98l52 282h140v-68l-30 -5v-597
l30 -5v-68z" />
    <glyph glyph-name="N" unicode="N" horiz-adv-x="416" 
d="M391 675l-30 -5v-670h-102l-118 544c-7 32 -11 58 -19 107h-2c6 -50 9 -89 9 -141v-437l30 -5v-68h-134v68l30 5v597l-30 5v68h139l111 -510c6 -27 14 -70 20 -109h2c-7 65 -10 108 -10 148v398l-30 5v68h134v-68z" />
    <glyph glyph-name="O" unicode="O" horiz-adv-x="366" 
d="M336 267c0 -143 -13 -274 -153 -274s-153 131 -153 274v209c0 143 13 274 153 274s153 -131 153 -274v-209zM258 267v209c0 126 -4 200 -75 200s-75 -74 -75 -200v-209c0 -126 4 -200 75 -200s75 74 75 200z" />
    <glyph glyph-name="P" unicode="P" horiz-adv-x="349" 
d="M324 513c0 -168 -65 -215 -171 -215h-20v-225l30 -5v-68h-138v68l30 5v597l-30 5v68h128c106 0 171 -40 171 -208v-22zM246 513v22c0 111 -23 135 -93 135h-20v-299h20c70 0 93 31 93 142z" />
    <glyph glyph-name="Q" unicode="Q" horiz-adv-x="366" 
d="M336 267c0 -129 -11 -248 -115 -270v-101c0 -30 3 -30 35 -30h38v-57s-29 -12 -69 -12c-48 0 -80 19 -80 99v101c-105 22 -115 141 -115 270v209c0 143 13 274 153 274s153 -131 153 -274v-209zM258 267v209c0 126 -4 200 -75 200s-75 -74 -75 -200v-209
c0 -126 4 -200 75 -200s75 74 75 200z" />
    <glyph glyph-name="R" unicode="R" horiz-adv-x="376" 
d="M361 0h-105l-82 298h-22h-19v-225l30 -5v-68h-138v68l30 5v597l-30 5v68h122c107 0 177 -43 177 -208v-12c0 -108 -22 -168 -75 -204l71 -246l41 -5v-68zM246 523v12c0 111 -23 135 -99 135h-14v-299h20c80 0 93 44 93 152z" />
    <glyph glyph-name="S" unicode="S" horiz-adv-x="310" 
d="M285 183c0 -124 -51 -190 -152 -190c-53 0 -96 16 -108 21v107h58l10 -55c11 -1 15 -1 23 -1c70 0 90 27 90 118c0 64 -19 98 -57 146l-48 61c-54 69 -76 116 -76 192c0 112 47 168 142 168c53 0 96 -16 108 -21v-103h-58l-11 52h-27c-60 0 -75 -32 -75 -96
c0 -60 19 -89 57 -137l48 -61c54 -69 76 -125 76 -201z" />
    <glyph glyph-name="T" unicode="T" horiz-adv-x="334" 
d="M314 626h-58l-10 44h-40v-597l30 -5v-68h-138v68l30 5v597h-40l-10 -44h-58v117h294v-117z" />
    <glyph glyph-name="U" unicode="U" horiz-adv-x="400" 
d="M375 675l-30 -5v-428c0 -118 -5 -249 -145 -249s-145 131 -145 249v428l-30 5v68h138v-68l-30 -5v-403c0 -141 0 -200 67 -200s67 59 67 200v403l-30 5v68h138v-68z" />
    <glyph glyph-name="V" unicode="V" horiz-adv-x="395" 
d="M380 675l-30 -5l-97 -670h-111l-98 670l-29 5v68h131v-66l-24 -4l60 -453c7 -51 11 -104 14 -144h2c3 40 7 93 14 144l60 453l-24 4v66h132v-68z" />
    <glyph glyph-name="W" unicode="W" horiz-adv-x="509" 
d="M494 675l-30 -5l-52 -670h-114l-35 314c-3 27 -6 69 -7 93h-2c-2 -24 -5 -66 -8 -93l-32 -314h-117l-53 670l-29 5v68h138v-66l-29 -5l27 -450c4 -62 6 -105 7 -150h2c2 39 6 89 13 148l27 244h110l27 -247c6 -58 11 -109 13 -146h2c0 54 3 94 6 151l27 450l-29 5v66h138
v-68z" />
    <glyph glyph-name="X" unicode="X" horiz-adv-x="364" 
d="M349 0h-124v65l16 3l-61 207l-61 -207l17 -3v-65h-121v68l29 5l96 305l-94 292l-29 5v68h128v-65l-21 -4l58 -197l55 197l-21 4v65h128v-68l-30 -5l-92 -294l97 -303l30 -5v-68z" />
    <glyph glyph-name="Y" unicode="Y" horiz-adv-x="350" 
d="M335 675l-30 -5l-91 -375v-222l30 -5v-68h-138v68l30 5v222l-91 375l-30 5v68h125v-66l-19 -3l35 -163c7 -32 18 -95 19 -109h2c1 14 11 77 18 109l34 163l-18 3v66h124v-68z" />
    <glyph glyph-name="Z" unicode="Z" horiz-adv-x="318" 
d="M298 0h-278v93l195 577h-120l-10 -44h-58v117h265v-92l-197 -578h135l10 48h58v-121z" />
    <glyph glyph-name="bracketleft" unicode="[" horiz-adv-x="196" 
d="M181 -198h-146v941h146v-67h-70v-806h70v-68z" />
    <glyph glyph-name="backslash" unicode="\" 
d="M233 0h-75l-160 743h75z" />
    <glyph glyph-name="bracketright" unicode="]" horiz-adv-x="196" 
d="M161 -198h-146v68h70v806h-70v67h146v-941z" />
    <glyph glyph-name="asciicircum" unicode="^" horiz-adv-x="355" 
d="M317 385h-75l-65 320l-65 -320h-75l74 358h132z" />
    <glyph glyph-name="underscore" unicode="_" horiz-adv-x="258" 
d="M285 -107h-312v52h312v-52z" />
    <glyph glyph-name="quoteleft" unicode="&#x2018;" horiz-adv-x="140" 
d="M120 760l-22 -222h-78l39 222h61z" />
    <glyph glyph-name="a" unicode="a" horiz-adv-x="319" 
d="M296 0h-97v25c-25 -22 -54 -32 -78 -32c-77 0 -91 58 -91 139v36c0 107 36 158 138 158h22v64c0 83 -9 96 -63 96h-17l-10 -46h-55v97c13 7 52 20 99 20c92 0 122 -41 122 -167v-317l30 -5v-68zM190 77v191h-22c-54 0 -62 -26 -62 -100v-50c0 -50 5 -60 33 -60
c18 0 35 9 51 19z" />
    <glyph glyph-name="b" unicode="b" horiz-adv-x="301" 
d="M276 198c0 -140 -21 -205 -150 -205c-28 0 -42 1 -96 7v687l-30 5v68h104v-234c19 19 48 31 78 31c81 0 94 -67 94 -178v-181zM200 198v181c0 78 -3 106 -40 106c-17 0 -36 -6 -54 -20v-400h26c55 0 68 17 68 133z" />
    <glyph glyph-name="c" unicode="c" horiz-adv-x="263" 
d="M243 12c-26 -12 -57 -19 -87 -19c-112 0 -126 82 -126 201v162c0 119 14 201 126 201c30 0 61 -7 87 -19v-98h-56l-10 46h-8c-51 0 -63 -17 -63 -130v-162c0 -113 12 -130 63 -130c21 0 42 4 74 9v-61z" />
    <glyph glyph-name="d" unicode="d" horiz-adv-x="329" 
d="M306 0h-104v22c-22 -18 -48 -29 -78 -29c-81 0 -94 68 -94 179v181c0 156 39 204 130 204c12 0 26 -1 40 -4v134l-49 5v68h125v-687l30 -5v-68zM200 82v400c-15 3 -29 4 -40 4c-41 0 -54 -17 -54 -133v-181c0 -78 3 -107 40 -107c17 0 34 5 54 17z" />
    <glyph glyph-name="e" unicode="e" horiz-adv-x="313" 
d="M285 247h-181v-19c0 -156 16 -166 75 -166c25 0 58 3 96 12v-63c-20 -9 -57 -18 -102 -18c-101 0 -145 36 -145 235v80c0 166 23 249 128 249c106 0 129 -83 129 -249v-61zM209 311v18c0 115 -7 156 -52 156c-46 0 -53 -41 -53 -156v-18h105z" />
    <glyph glyph-name="f" unicode="f" horiz-adv-x="224" 
d="M203 481h-63v-408l30 -5v-68h-136v68l30 5v408l-49 10v59h49v87c0 94 24 130 86 130c26 0 48 -8 59 -15v-53c-6 1 -26 3 -35 3c-28 0 -34 -7 -34 -65v-87h63v-69z" />
    <glyph glyph-name="g" unicode="g" horiz-adv-x="317" 
d="M293 -38c0 -100 -37 -172 -132 -172c-96 0 -133 72 -133 172c0 44 13 93 33 125c-22 17 -33 37 -33 70c0 37 14 63 36 82c-21 29 -33 71 -33 135c0 106 29 183 134 183h132v-62l-32 -5c11 -23 22 -64 22 -116c0 -113 -39 -179 -128 -179c-23 0 -40 5 -52 10
c-12 -13 -16 -26 -16 -38c0 -24 9 -32 41 -32h27c78 0 134 -26 134 -173zM217 -35c-1 83 -10 103 -58 103h-39c-9 -19 -16 -48 -16 -103c0 -71 11 -107 57 -107c45 0 56 36 56 107zM211 374c0 71 -10 114 -52 114c-43 0 -53 -43 -53 -114c0 -65 10 -110 53 -110
c42 0 52 45 52 110z" />
    <glyph glyph-name="h" unicode="h" horiz-adv-x="352" 
d="M329 0h-106v393c0 72 -2 94 -32 94c-18 0 -38 -11 -62 -32v-382l30 -5v-68h-136v68l30 5v614l-30 5v68h106v-235c19 18 46 32 81 32c86 0 89 -85 89 -157v-327l30 -5v-68z" />
    <glyph glyph-name="i" unicode="i" horiz-adv-x="182" 
d="M159 0h-136v69l31 4v403l-31 5v69h107v-477l29 -4v-69zM131 654h-78v106h78v-106z" />
    <glyph glyph-name="j" unicode="j" horiz-adv-x="159" 
d="M124 -103c0 -68 -13 -107 -82 -107c-16 0 -38 2 -50 6v60h29c22 0 27 6 27 41v579l-31 5v69h107v-653zM123 654h-78v106h78v-106z" />
    <glyph glyph-name="k" unicode="k" horiz-adv-x="330" 
d="M307 0h-102l-76 262v-262h-106v68l30 5v614l-30 5v68h106v-460l75 250h103v-68l-46 -5l-64 -193l67 -211l43 -5v-68z" />
    <glyph glyph-name="l" unicode="l" horiz-adv-x="182" 
d="M159 0h-136v68l30 5v614l-30 5v68h106v-687l30 -5v-68z" />
    <glyph glyph-name="m" unicode="m" horiz-adv-x="492" 
d="M469 0h-107v418c0 50 0 70 -26 70c-15 0 -39 -15 -52 -28c1 -14 1 -27 1 -42v-418h-78v418c0 50 0 70 -26 70c-15 0 -39 -15 -52 -28v-387l30 -5v-68h-136v68l30 5v404l-30 5v68h104v-30c26 27 56 37 79 37c29 0 49 -10 65 -37c24 24 50 37 79 37c88 0 88 -81 88 -139
v-345l31 -5v-68z" />
    <glyph glyph-name="n" unicode="n" horiz-adv-x="352" 
d="M329 0h-106v401c0 72 -3 89 -31 89c-19 0 -39 -9 -63 -30v-387l30 -5v-68h-136v68l30 5v404l-30 5v68h104v-30c18 18 46 37 85 37c74 0 87 -50 87 -156v-328l30 -5v-68z" />
    <glyph glyph-name="o" unicode="o" horiz-adv-x="313" 
d="M285 197c0 -146 -43 -204 -129 -204c-85 0 -128 58 -128 204v155c0 146 43 205 128 205c86 0 129 -59 129 -205v-155zM209 197v155c0 105 -17 133 -53 133c-35 0 -52 -27 -52 -133v-155c0 -105 16 -132 52 -132s53 26 53 132z" />
    <glyph glyph-name="p" unicode="p" horiz-adv-x="327" 
d="M159 -203h-136v69l30 4v607l-30 5v68h104v-24c19 19 48 31 78 31c81 0 94 -67 94 -178v-181c0 -156 -46 -205 -130 -205c-12 0 -26 1 -40 4v-127l30 -4v-69zM223 198v181c0 78 -3 106 -40 106c-17 0 -36 -6 -54 -20v-396c15 -3 29 -4 40 -4c37 0 54 17 54 133z" />
    <glyph glyph-name="q" unicode="q" horiz-adv-x="304" 
d="M299 -203h-134v69l30 4v154c-19 -19 -48 -31 -78 -31c-81 0 -94 67 -94 178v182c0 136 5 204 146 204c25 0 55 -1 100 -7v-680l30 -5v-68zM193 85v400c-14 1 -19 1 -28 1c-60 0 -66 -17 -66 -133v-182c0 -78 3 -106 40 -106c17 0 36 6 54 20z" />
    <glyph glyph-name="r" unicode="r" horiz-adv-x="250" 
d="M235 484c-21 0 -79 -5 -106 -25v-386l30 -5v-68h-136v68l30 5v404l-30 5v68h102v-34c41 41 89 41 110 41v-73z" />
    <glyph glyph-name="s" unicode="s" horiz-adv-x="269" 
d="M244 133c0 -81 -37 -140 -128 -140c-40 0 -75 13 -90 20v108h56l10 -56h18c47 0 58 21 58 68c0 45 -17 67 -63 122l-15 18c-53 65 -65 108 -65 159c0 71 34 125 121 125c42 0 71 -11 92 -20v-97h-56l-11 45h-15c-38 0 -55 -13 -55 -53c0 -35 8 -61 47 -106l17 -20
c62 -75 79 -105 79 -173z" />
    <glyph glyph-name="t" unicode="t" horiz-adv-x="228" 
d="M208 4c-11 -4 -33 -11 -65 -11c-50 0 -74 24 -74 98v390l-49 10v59h49v123h76v-123h63v-69h-63v-380c0 -36 1 -41 25 -41c14 0 38 4 38 4v-60z" />
    <glyph glyph-name="u" unicode="u" horiz-adv-x="352" 
d="M329 0h-106v31c-18 -18 -44 -38 -83 -38c-81 0 -87 76 -87 156v328l-30 5v68h106v-401c0 -72 2 -89 34 -89c16 0 36 10 60 31v386l-30 5v68h106v-477l30 -5v-68z" />
    <glyph glyph-name="v" unicode="v" horiz-adv-x="339" 
d="M322 482l-31 -5l-67 -477h-109l-68 477l-30 5v68h132v-67l-26 -4l30 -266c7 -67 11 -107 15 -153h2c4 46 7 86 15 153l31 266l-26 4v67h132v-68z" />
    <glyph glyph-name="w" unicode="w" horiz-adv-x="508" 
d="M491 482l-37 -5l-40 -477h-104l-44 280c-8 50 -10 79 -11 107h-2c-2 -28 -3 -57 -11 -107l-44 -280h-104l-40 477l-37 5v68h139v-67l-27 -4l15 -272c3 -51 4 -98 4 -136h3c4 41 9 91 15 134l38 255h100l38 -255c7 -45 12 -92 16 -134h2c0 41 1 82 4 136l15 272l-27 4v67
h139v-68z" />
    <glyph glyph-name="x" unicode="x" horiz-adv-x="326" 
d="M308 0h-90l-58 187l-60 -187h-83v68l33 5l73 206l-70 198l-36 5v68h92l54 -176l54 176h92v-68l-40 -5l-69 -192l75 -212l33 -5v-68z" />
    <glyph glyph-name="y" unicode="y" horiz-adv-x="349" 
d="M332 482l-32 -5l-81 -497c-16 -101 -30 -190 -135 -190c-23 0 -42 5 -58 11v62c20 -3 39 -3 50 -3c46 0 52 28 65 119l3 21l-93 477l-34 5v68h139v-67l-30 -4l33 -213c8 -54 16 -115 18 -158h2c1 43 7 104 15 159l30 212l-29 4v67h137v-68z" />
    <glyph glyph-name="z" unicode="z" horiz-adv-x="275" 
d="M250 0h-225v103l154 378h-82l-10 -41h-56v110h219v-94l-157 -387h91l10 52h56v-121z" />
    <glyph glyph-name="braceleft" unicode="{" horiz-adv-x="209" 
d="M194 -203h-31c-113 0 -115 79 -115 135v184c0 83 -5 93 -33 131v48c28 38 33 48 33 131v181c0 63 2 136 115 136h31v-67h-31c-37 0 -39 -13 -39 -69v-181c0 -83 -19 -119 -49 -155c30 -36 49 -72 49 -155v-184c0 -56 2 -67 39 -67h31v-68z" />
    <glyph glyph-name="bar" unicode="|" horiz-adv-x="146" 
d="M111 -203h-76v946h76v-946z" />
    <glyph glyph-name="braceright" unicode="}" horiz-adv-x="209" 
d="M194 247c-28 -38 -33 -48 -33 -131v-184c0 -56 -2 -135 -115 -135h-31v68h31c37 0 39 11 39 67v184c0 83 19 119 49 155c-30 36 -49 72 -49 155v181c0 56 -2 69 -39 69h-31v67h31c113 0 115 -73 115 -136v-181c0 -83 5 -93 33 -131v-48z" />
    <glyph glyph-name="asciitilde" unicode="~" horiz-adv-x="355" 
d="M323 422c0 -54 -15 -99 -77 -99c-44 0 -68 23 -85 57l-16 34c-11 24 -17 35 -31 35c-17 0 -20 -11 -20 -37v-89h-63v89c0 53 15 99 83 99c39 0 64 -23 80 -59l14 -31c11 -22 19 -37 34 -37c16 0 18 12 18 38v89h63v-89z" />
    <glyph glyph-name="Aacute" unicode="&#xc1;" horiz-adv-x="397" 
d="M382 0h-139v66l29 5l-23 176h-101l-24 -176l30 -5v-66h-139v68l30 5l86 597l-32 5v68h155l97 -670l31 -5v-68zM238 325l-24 197c-7 59 -10 103 -14 148h-2c-4 -45 -6 -88 -14 -148l-25 -197h79zM298 940l-72 -152h-68l60 152h80z" />
    <glyph glyph-name="Agrave" unicode="&#xc0;" horiz-adv-x="397" 
d="M382 0h-139v66l29 5l-23 176h-101l-24 -176l30 -5v-66h-139v68l30 5l86 597l-32 5v68h155l97 -670l31 -5v-68zM238 325l-24 197c-7 59 -10 103 -14 148h-2c-4 -45 -6 -88 -14 -148l-25 -197h79zM238 788h-68l-72 152h80z" />
    <glyph glyph-name="Acircumflex" unicode="&#xc2;" horiz-adv-x="397" 
d="M382 0h-139v66l29 5l-23 176h-101l-24 -176l30 -5v-66h-139v68l30 5l86 597l-32 5v68h155l97 -670l31 -5v-68zM238 325l-24 197c-7 59 -10 103 -14 148h-2c-4 -45 -6 -88 -14 -148l-25 -197h79zM319 788h-65l-55 106l-55 -106h-65l67 152h106z" />
    <glyph glyph-name="Adieresis" unicode="&#xc4;" horiz-adv-x="397" 
d="M382 0h-139v66l29 5l-23 176h-101l-24 -176l30 -5v-66h-139v68l30 5l86 597l-32 5v68h155l97 -670l31 -5v-68zM238 325l-24 197c-7 59 -10 103 -14 148h-2c-4 -45 -6 -88 -14 -148l-25 -197h79zM302 808h-78v106h78v-106zM172 808v106h-78v-106h78z" />
    <glyph glyph-name="Atilde" unicode="&#xc3;" horiz-adv-x="397" 
d="M382 0h-139v66l29 5l-23 176h-101l-24 -176l30 -5v-66h-139v68l30 5l86 597l-32 5v68h155l97 -670l31 -5v-68zM238 325l-24 197c-7 59 -10 103 -14 148h-2c-4 -45 -6 -88 -14 -148l-25 -197h79zM333 883c0 -57 -19 -95 -76 -95c-39 0 -60 18 -79 56l-8 16
c-11 22 -17 31 -31 31c-10 0 -19 -8 -19 -36v-66h-57v66c0 56 23 95 76 95c39 0 59 -17 78 -55l8 -16c12 -25 19 -32 32 -32c12 0 19 8 19 36v66h57v-66z" />
    <glyph glyph-name="Amacron" unicode="&#x100;" horiz-adv-x="397" 
d="M382 0h-139v66l29 5l-23 176h-101l-24 -176l30 -5v-66h-139v68l30 5l86 597l-32 5v68h155l97 -670l31 -5v-68zM238 325l-24 197c-7 59 -10 103 -14 148h-2c-4 -45 -6 -88 -14 -148l-25 -197h79zM298 808h-198v62h198v-62z" />
    <glyph glyph-name="Aring" unicode="&#xc5;" horiz-adv-x="397" 
d="M382 0h-139v66l29 5l-23 176h-101l-24 -176l30 -5v-66h-139v68l30 5l86 597l-32 5v68h155l97 -670l31 -5v-68zM238 325l-24 197c-7 59 -10 103 -14 148h-2c-4 -45 -6 -88 -14 -148l-25 -197h79zM292 899c0 -81 -38 -111 -93 -111s-93 30 -93 111c0 82 38 112 93 112
s93 -30 93 -112zM234 899c0 53 -16 60 -35 60s-35 -7 -35 -60c0 -52 16 -59 35 -59s35 7 35 59z" />
    <glyph glyph-name="Abreve" unicode="&#x102;" horiz-adv-x="397" 
d="M382 0h-139v66l29 5l-23 176h-101l-24 -176l30 -5v-66h-139v68l30 5l86 597l-32 5v68h155l97 -670l31 -5v-68zM238 325l-24 197c-7 59 -10 103 -14 148h-2c-4 -45 -6 -88 -14 -148l-25 -197h79zM292 942c0 -83 0 -154 -93 -154s-93 71 -93 154h58c0 -83 0 -102 35 -102
s35 19 35 102h58z" />
    <glyph glyph-name="Aogonek" unicode="&#x104;" horiz-adv-x="397" 
d="M382 0c-57 -56 -75 -84 -75 -124c0 -19 8 -34 39 -34c11 0 24 1 36 2v-47c-19 -6 -35 -8 -53 -8c-65 0 -90 37 -90 87c0 39 24 81 76 124h-72v66l29 5l-23 176h-101l-24 -176l30 -5v-66h-139v68l30 5l86 597l-32 5v68h155l97 -670l31 -5v-68zM238 325l-24 197
c-7 59 -10 103 -14 148h-2c-4 -45 -6 -88 -14 -148l-25 -197h79z" />
    <glyph glyph-name="AE" unicode="&#xc6;" horiz-adv-x="505" 
d="M480 0h-273v68l30 5v173h-89l-33 -246h-100v68l30 6l86 596l-32 5v68h381v-117h-58l-10 44h-97v-245h155v-77h-155v-275h97l10 48h58v-121zM237 321v351h-29c-6 -38 -12 -81 -18 -122l-32 -229h79z" />
    <glyph glyph-name="AEacute" unicode="&#x1fc;" horiz-adv-x="505" 
d="M480 0h-273v68l30 5v173h-89l-33 -246h-100v68l30 6l86 596l-32 5v68h381v-117h-58l-10 44h-97v-245h155v-77h-155v-275h97l10 48h58v-121zM237 321v351h-29c-6 -38 -12 -81 -18 -122l-32 -229h79zM386 940l-72 -152h-68l60 152h80z" />
    <glyph glyph-name="Cacute" unicode="&#x106;" horiz-adv-x="313" 
d="M288 13c-12 -5 -51 -20 -92 -20c-81 0 -166 13 -166 258v241c0 245 85 258 166 258c41 0 80 -15 92 -20v-104h-58l-10 47c-9 0 -17 1 -24 1c-52 0 -88 -9 -88 -182v-241c0 -173 36 -182 88 -182c7 0 15 0 24 1l10 51h58v-108zM277 940l-72 -152h-68l60 152h80z" />
    <glyph glyph-name="Ccircumflex" unicode="&#x108;" horiz-adv-x="313" 
d="M288 13c-12 -5 -51 -20 -92 -20c-81 0 -166 13 -166 258v241c0 245 85 258 166 258c41 0 80 -15 92 -20v-104h-58l-10 47c-9 0 -17 1 -24 1c-52 0 -88 -9 -88 -182v-241c0 -173 36 -182 88 -182c7 0 15 0 24 1l10 51h58v-108zM290 788h-65l-55 106l-55 -106h-65l67 152
h106z" />
    <glyph glyph-name="Ccaron" unicode="&#x10c;" horiz-adv-x="313" 
d="M288 13c-12 -5 -51 -20 -92 -20c-81 0 -166 13 -166 258v241c0 245 85 258 166 258c41 0 80 -15 92 -20v-104h-58l-10 47c-9 0 -17 1 -24 1c-52 0 -88 -9 -88 -182v-241c0 -173 36 -182 88 -182c7 0 15 0 24 1l10 51h58v-108zM296 940l-67 -152h-106l-67 152h65l55 -106
l55 106h65z" />
    <glyph glyph-name="Cdotaccent" unicode="&#x10a;" horiz-adv-x="313" 
d="M288 13c-12 -5 -51 -20 -92 -20c-81 0 -166 13 -166 258v241c0 245 85 258 166 258c41 0 80 -15 92 -20v-104h-58l-10 47c-9 0 -17 1 -24 1c-52 0 -88 -9 -88 -182v-241c0 -173 36 -182 88 -182c7 0 15 0 24 1l10 51h58v-108zM214 787h-78v106h78v-106z" />
    <glyph glyph-name="Ccedilla" unicode="&#xc7;" horiz-adv-x="313" 
d="M288 13c-12 -5 -51 -20 -92 -20c-81 0 -166 13 -166 258v241c0 245 85 258 166 258c41 0 80 -15 92 -20v-104h-58l-10 47c-9 0 -17 1 -24 1c-52 0 -88 -9 -88 -182v-241c0 -173 36 -182 88 -182c7 0 15 0 24 1l10 51h58v-108zM218 -56l-74 -147h-62l57 147h79z" />
    <glyph glyph-name="Dcaron" unicode="&#x10e;" horiz-adv-x="379" 
d="M344 254c0 -121 -5 -254 -181 -254h-138v68l30 5v597l-30 5v68h138c176 0 181 -130 181 -251v-238zM265 254v238c0 121 -5 178 -102 178h-30v-597h30c97 0 102 60 102 181zM319 939l-67 -152h-106l-67 152h65l55 -106l55 106h65z" />
    <glyph glyph-name="Dcroat" unicode="&#x110;" horiz-adv-x="379" 
d="M344 254c0 -121 -5 -254 -181 -254h-138v68l30 5v277h-30v73h30v247l-30 5v68h138c176 0 181 -130 181 -251v-238zM265 254v238c0 121 -5 178 -102 178h-30v-247h64v-73h-64v-277h30c97 0 102 60 102 181z" />
    <glyph glyph-name="Eth" unicode="&#xd0;" horiz-adv-x="379" 
d="M344 254c0 -121 -5 -254 -181 -254h-138v68l30 5v277h-30v73h30v247l-30 5v68h138c176 0 181 -130 181 -251v-238zM265 254v238c0 121 -5 178 -102 178h-30v-247h64v-73h-64v-277h30c97 0 102 60 102 181z" />
    <glyph glyph-name="Eacute" unicode="&#xc9;" horiz-adv-x="323" 
d="M298 0h-273v68l30 5v597l-30 5v68h273v-117h-58l-10 44h-97v-245h155v-77h-155v-275h97l10 48h58v-121zM276 940l-72 -152h-68l60 152h80z" />
    <glyph glyph-name="Egrave" unicode="&#xc8;" horiz-adv-x="323" 
d="M298 0h-273v68l30 5v597l-30 5v68h273v-117h-58l-10 44h-97v-245h155v-77h-155v-275h97l10 48h58v-121zM216 788h-68l-72 152h80z" />
    <glyph glyph-name="Ecircumflex" unicode="&#xca;" horiz-adv-x="323" 
d="M298 0h-273v68l30 5v597l-30 5v68h273v-117h-58l-10 44h-97v-245h155v-77h-155v-275h97l10 48h58v-121zM296 788h-65l-55 106l-55 -106h-65l67 152h106z" />
    <glyph glyph-name="Edieresis" unicode="&#xcb;" horiz-adv-x="323" 
d="M298 0h-273v68l30 5v597l-30 5v68h273v-117h-58l-10 44h-97v-245h155v-77h-155v-275h97l10 48h58v-121zM280 808h-78v106h78v-106zM150 808v106h-78v-106h78z" />
    <glyph glyph-name="Emacron" unicode="&#x112;" horiz-adv-x="323" 
d="M298 0h-273v68l30 5v597l-30 5v68h273v-117h-58l-10 44h-97v-245h155v-77h-155v-275h97l10 48h58v-121zM276 808h-198v62h198v-62z" />
    <glyph glyph-name="Ecaron" unicode="&#x11a;" horiz-adv-x="323" 
d="M298 0h-273v68l30 5v597l-30 5v68h273v-117h-58l-10 44h-97v-245h155v-77h-155v-275h97l10 48h58v-121zM298 940l-67 -152h-106l-67 152h65l55 -106l55 106h65z" />
    <glyph glyph-name="Ebreve" unicode="&#x114;" horiz-adv-x="323" 
d="M298 0h-273v68l30 5v597l-30 5v68h273v-117h-58l-10 44h-97v-245h155v-77h-155v-275h97l10 48h58v-121zM272 942c0 -83 0 -154 -93 -154s-93 71 -93 154h58c0 -83 0 -102 35 -102s35 19 35 102h58z" />
    <glyph glyph-name="Edotaccent" unicode="&#x116;" horiz-adv-x="323" 
d="M298 0h-273v68l30 5v597l-30 5v68h273v-117h-58l-10 44h-97v-245h155v-77h-155v-275h97l10 48h58v-121zM213 808h-78v106h78v-106z" />
    <glyph glyph-name="Eogonek" unicode="&#x118;" horiz-adv-x="323" 
d="M298 0c-57 -56 -75 -84 -75 -124c0 -19 8 -34 39 -34c11 0 24 1 36 2v-47c-19 -6 -35 -8 -53 -8c-65 0 -90 37 -90 87c0 39 23 80 76 124h-206v68l30 5v597l-30 5v68h273v-117h-58l-10 44h-97v-245h155v-77h-155v-275h97l10 48h58v-121z" />
    <glyph glyph-name="Gcircumflex" unicode="&#x11c;" horiz-adv-x="328" 
d="M303 14c-12 -6 -69 -21 -112 -21c-86 0 -161 28 -161 251v256c0 226 79 250 161 250c54 0 103 -18 111 -21v-103h-58l-10 46c-11 1 -21 2 -28 2c-61 0 -98 0 -98 -174v-256c0 -171 34 -175 98 -175c6 0 8 0 19 1v240l-51 5v68h129v-369zM294 788h-65l-55 106l-55 -106
h-65l67 152h106z" />
    <glyph glyph-name="Gbreve" unicode="&#x11e;" horiz-adv-x="328" 
d="M303 14c-12 -6 -69 -21 -112 -21c-86 0 -161 28 -161 251v256c0 226 79 250 161 250c54 0 103 -18 111 -21v-103h-58l-10 46c-11 1 -21 2 -28 2c-61 0 -98 0 -98 -174v-256c0 -171 34 -175 98 -175c6 0 8 0 19 1v240l-51 5v68h129v-369zM270 942c0 -83 0 -154 -93 -154
s-93 71 -93 154h58c0 -83 0 -102 35 -102s35 19 35 102h58z" />
    <glyph glyph-name="Gdotaccent" unicode="&#x120;" horiz-adv-x="328" 
d="M303 14c-12 -6 -69 -21 -112 -21c-86 0 -161 28 -161 251v256c0 226 79 250 161 250c54 0 103 -18 111 -21v-103h-58l-10 46c-11 1 -21 2 -28 2c-61 0 -98 0 -98 -174v-256c0 -171 34 -175 98 -175c6 0 8 0 19 1v240l-51 5v68h129v-369zM216 808h-78v106h78v-106z" />
    <glyph glyph-name="Gcommaaccent" unicode="&#x122;" horiz-adv-x="328" 
d="M303 14c-12 -6 -69 -21 -112 -21c-86 0 -161 28 -161 251v256c0 226 79 250 161 250c54 0 103 -18 111 -21v-103h-58l-10 46c-11 1 -21 2 -28 2c-61 0 -98 0 -98 -174v-256c0 -171 34 -175 98 -175c6 0 8 0 19 1v240l-51 5v68h129v-369zM227 -56l-61 -147h-66l37 147h90z
" />
    <glyph glyph-name="Hcircumflex" unicode="&#x124;" horiz-adv-x="416" 
d="M391 0h-138v68l30 5v282h-150v-282l30 -5v-68h-138v68l30 5v597l-30 5v68h138v-68l-30 -5v-239h150v239l-30 5v68h138v-68l-30 -5v-597l30 -5v-68zM328 788h-65l-55 106l-55 -106h-65l67 152h106z" />
    <glyph glyph-name="Hbar" unicode="&#x126;" horiz-adv-x="416" 
d="M25 522v76h30v72l-30 5v68h138v-68l-30 -5v-72h150v72l-30 5v68h138v-68l-30 -5v-72h30v-76h-30v-449l30 -5v-68h-138v68l30 5v282h-150v-282l30 -5v-68h-138v68l30 5v449h-30zM133 431h150v91h-150v-91z" />
    <glyph glyph-name="Iacute" unicode="&#xcd;" horiz-adv-x="188" 
d="M163 0h-138v68l30 5v597l-30 5v68h138v-68l-30 -5v-597l30 -5v-68zM194 940l-72 -152h-68l60 152h80z" />
    <glyph glyph-name="Igrave" unicode="&#xcc;" horiz-adv-x="188" 
d="M163 0h-138v68l30 5v597l-30 5v68h138v-68l-30 -5v-597l30 -5v-68zM134 788h-68l-72 152h80z" />
    <glyph glyph-name="Icircumflex" unicode="&#xce;" horiz-adv-x="188" 
d="M163 0h-138v68l30 5v597l-30 5v68h138v-68l-30 -5v-597l30 -5v-68zM214 788h-65l-55 106l-55 -106h-65l67 152h106z" />
    <glyph glyph-name="Idieresis" unicode="&#xcf;" horiz-adv-x="188" 
d="M163 0h-138v68l30 5v597l-30 5v68h138v-68l-30 -5v-597l30 -5v-68zM198 808h-78v106h78v-106zM68 808v106h-78v-106h78z" />
    <glyph glyph-name="Itilde" unicode="&#x128;" horiz-adv-x="188" 
d="M163 0h-138v68l30 5v597l-30 5v68h138v-68l-30 -5v-597l30 -5v-68zM228 882c0 -57 -19 -95 -76 -95c-39 0 -60 18 -79 56l-8 16c-11 22 -17 31 -31 31c-10 0 -19 -8 -19 -36v-66h-57v66c0 56 23 95 76 95c39 0 59 -17 78 -55l8 -16c12 -25 19 -32 32 -32c12 0 19 8 19 36
v66h57v-66z" />
    <glyph glyph-name="Imacron" unicode="&#x12a;" horiz-adv-x="188" 
d="M163 0h-138v68l30 5v597l-30 5v68h138v-68l-30 -5v-597l30 -5v-68zM192 808h-198v62h198v-62z" />
    <glyph glyph-name="Ibreve" unicode="&#x12c;" horiz-adv-x="188" 
d="M163 0h-138v68l30 5v597l-30 5v68h138v-68l-30 -5v-597l30 -5v-68zM186 942c0 -83 0 -154 -93 -154s-93 71 -93 154h58c0 -83 0 -102 35 -102s35 19 35 102h58z" />
    <glyph glyph-name="Idotaccent" unicode="&#x130;" horiz-adv-x="188" 
d="M163 0h-138v68l30 5v597l-30 5v68h138v-68l-30 -5v-597l30 -5v-68zM133 808h-78v106h78v-106z" />
    <glyph glyph-name="Iogonek" unicode="&#x12e;" horiz-adv-x="188" 
d="M96 0h-71v68l30 5v597l-30 5v68h138v-68l-30 -5v-597l30 -5v-68c-57 -56 -75 -84 -75 -124c0 -19 8 -34 39 -34c11 0 24 1 36 2v-47c-19 -6 -35 -8 -53 -8c-65 0 -90 37 -90 87c0 39 23 80 76 124z" />
    <glyph glyph-name="IJ" unicode="&#x132;" horiz-adv-x="367" 
d="M342 675l-30 -5v-779c0 -76 -29 -99 -84 -99c-24 0 -47 5 -65 12v57h51s20 6 20 30v779l-30 5v68h138v-68zM163 0h-138v68l30 5v597l-30 5v68h138v-68l-30 -5v-597l30 -5v-68z" />
    <glyph glyph-name="Jcircumflex" unicode="&#x134;" horiz-adv-x="179" 
d="M149 675l-30 -5v-774c0 -76 -29 -99 -84 -99c-24 0 -47 5 -65 12v57h51s20 6 20 30v774l-30 5v68h138v-68zM200 788h-65l-55 106l-55 -106h-65l67 152h106z" />
    <glyph glyph-name="Kcommaaccent" unicode="&#x136;" horiz-adv-x="367" 
d="M347 0h-99l-115 352v-279l30 -5v-68h-138v68l30 5v597l-30 5v68h138v-68l-30 -5v-273l120 346h94v-68l-36 -5l-105 -293l105 -304l36 -5v-68zM233 -56l-61 -147h-66l37 147h90z" />
    <glyph glyph-name="Lacute" unicode="&#x139;" horiz-adv-x="298" 
d="M278 0h-253v68l30 5v597l-30 5v68h138v-68l-30 -5v-597h77l10 48h58v-121zM271 940l-72 -152h-68l60 152h80z" />
    <glyph glyph-name="Lcaron" unicode="&#x13d;" horiz-adv-x="306" 
d="M268 0h-253v68l30 5v597l-30 5v68h138v-68l-30 -5v-597h77l10 48h58v-121zM301 759l-60 -222h-69l43 222h86z" />
    <glyph glyph-name="Ldot" unicode="&#x13f;" horiz-adv-x="298" 
d="M258 291h-78v106h78v-106zM278 0h-253v68l30 5v597l-30 5v68h138v-68l-30 -5v-597h77l10 48h58v-121z" />
    <glyph glyph-name="Lcommaaccent" unicode="&#x13b;" horiz-adv-x="298" 
d="M208 -56l-61 -147h-66l37 147h90zM278 0h-253v68l30 5v597l-30 5v68h138v-68l-30 -5v-597h77l10 48h58v-121z" />
    <glyph glyph-name="Lslash" unicode="&#x141;" horiz-adv-x="288" 
d="M268 0h-253v68l30 5v194l-41 -55v108l41 55v295l-30 5v68h138v-68l-30 -5v-189l77 104v-108l-77 -104v-300h77l10 48h58v-121z" />
    <glyph glyph-name="Nacute" unicode="&#x143;" horiz-adv-x="416" 
d="M391 675l-30 -5v-670h-102l-118 544c-7 32 -11 58 -19 107h-2c6 -50 9 -89 9 -141v-437l30 -5v-68h-134v68l30 5v597l-30 5v68h139l111 -510c6 -27 14 -70 20 -109h2c-7 65 -10 108 -10 148v398l-30 5v68h134v-68zM313 940l-72 -152h-68l60 152h80z" />
    <glyph glyph-name="Ntilde" unicode="&#xd1;" horiz-adv-x="416" 
d="M391 675l-30 -5v-670h-102l-118 544c-7 32 -11 58 -19 107h-2c6 -50 9 -89 9 -141v-437l30 -5v-68h-134v68l30 5v597l-30 5v68h139l111 -510c6 -27 14 -70 20 -109h2c-7 65 -10 108 -10 148v398l-30 5v68h134v-68zM342 882c0 -57 -19 -95 -76 -95c-39 0 -60 18 -79 56
l-8 16c-11 22 -17 31 -31 31c-10 0 -19 -8 -19 -36v-66h-57v66c0 56 23 95 76 95c39 0 59 -17 78 -55l8 -16c12 -25 19 -32 32 -32c12 0 19 8 19 36v66h57v-66z" />
    <glyph glyph-name="Ncaron" unicode="&#x147;" horiz-adv-x="416" 
d="M391 675l-30 -5v-670h-102l-118 544c-7 32 -11 58 -19 107h-2c6 -50 9 -89 9 -141v-437l30 -5v-68h-134v68l30 5v597l-30 5v68h139l111 -510c6 -27 14 -70 20 -109h2c-7 65 -10 108 -10 148v398l-30 5v68h134v-68zM328 940l-67 -152h-106l-67 152h65l55 -106l55 106h65z
" />
    <glyph glyph-name="Ncommaaccent" unicode="&#x145;" horiz-adv-x="416" 
d="M391 675l-30 -5v-670h-102l-118 544c-7 32 -11 58 -19 107h-2c6 -50 9 -89 9 -141v-437l30 -5v-68h-134v68l30 5v597l-30 5v68h139l111 -510c6 -27 14 -70 20 -109h2c-7 65 -10 108 -10 148v398l-30 5v68h134v-68zM250 -56l-61 -147h-66l37 147h90z" />
    <glyph glyph-name="Eng" unicode="&#x14a;" horiz-adv-x="416" 
d="M257 743h134v-68l-30 -5v-779c0 -76 -29 -99 -84 -99c-24 0 -47 5 -65 12v57h51c17 0 20 6 20 30v117l-139 536c-8 32 -14 58 -22 107h-2c5 -47 9 -89 9 -141v-437l30 -5v-68h-134v68l30 5v597l-30 5v68h135l110 -436c12 -48 19 -91 25 -130h2c-7 65 -10 108 -10 148v345
l-30 5v68z" />
    <glyph glyph-name="Oacute" unicode="&#xd3;" horiz-adv-x="366" 
d="M336 267c0 -143 -13 -274 -153 -274s-153 131 -153 274v209c0 143 13 274 153 274s153 -131 153 -274v-209zM258 267v209c0 126 -4 200 -75 200s-75 -74 -75 -200v-209c0 -126 4 -200 75 -200s75 74 75 200zM283 940l-72 -152h-68l60 152h80z" />
    <glyph glyph-name="Ograve" unicode="&#xd2;" horiz-adv-x="366" 
d="M336 267c0 -143 -13 -274 -153 -274s-153 131 -153 274v209c0 143 13 274 153 274s153 -131 153 -274v-209zM258 267v209c0 126 -4 200 -75 200s-75 -74 -75 -200v-209c0 -126 4 -200 75 -200s75 74 75 200zM223 788h-68l-72 152h80z" />
    <glyph glyph-name="Ocircumflex" unicode="&#xd4;" horiz-adv-x="366" 
d="M336 267c0 -143 -13 -274 -153 -274s-153 131 -153 274v209c0 143 13 274 153 274s153 -131 153 -274v-209zM258 267v209c0 126 -4 200 -75 200s-75 -74 -75 -200v-209c0 -126 4 -200 75 -200s75 74 75 200zM303 788h-65l-55 106l-55 -106h-65l67 152h106z" />
    <glyph glyph-name="Odieresis" unicode="&#xd6;" horiz-adv-x="366" 
d="M336 267c0 -143 -13 -274 -153 -274s-153 131 -153 274v209c0 143 13 274 153 274s153 -131 153 -274v-209zM258 267v209c0 126 -4 200 -75 200s-75 -74 -75 -200v-209c0 -126 4 -200 75 -200s75 74 75 200zM287 808h-78v106h78v-106zM157 808v106h-78v-106h78z" />
    <glyph glyph-name="Otilde" unicode="&#xd5;" horiz-adv-x="366" 
d="M336 267c0 -143 -13 -274 -153 -274s-153 131 -153 274v209c0 143 13 274 153 274s153 -131 153 -274v-209zM258 267v209c0 126 -4 200 -75 200s-75 -74 -75 -200v-209c0 -126 4 -200 75 -200s75 74 75 200zM317 882c0 -57 -19 -95 -76 -95c-39 0 -60 18 -79 56l-8 16
c-11 22 -17 31 -31 31c-10 0 -19 -8 -19 -36v-66h-57v66c0 56 23 95 76 95c39 0 59 -17 78 -55l8 -16c12 -25 19 -32 32 -32c12 0 19 8 19 36v66h57v-66z" />
    <glyph glyph-name="Omacron" unicode="&#x14c;" horiz-adv-x="366" 
d="M336 267c0 -143 -13 -274 -153 -274s-153 131 -153 274v209c0 143 13 274 153 274s153 -131 153 -274v-209zM258 267v209c0 126 -4 200 -75 200s-75 -74 -75 -200v-209c0 -126 4 -200 75 -200s75 74 75 200zM283 808h-198v62h198v-62z" />
    <glyph glyph-name="Obreve" unicode="&#x14e;" horiz-adv-x="366" 
d="M336 267c0 -143 -13 -274 -153 -274s-153 131 -153 274v209c0 143 13 274 153 274s153 -131 153 -274v-209zM258 267v209c0 126 -4 200 -75 200s-75 -74 -75 -200v-209c0 -126 4 -200 75 -200s75 74 75 200zM276 942c0 -83 0 -154 -93 -154s-93 71 -93 154h58
c0 -83 0 -102 35 -102s35 19 35 102h58z" />
    <glyph glyph-name="Ohungarumlaut" unicode="&#x150;" horiz-adv-x="366" 
d="M336 267c0 -143 -13 -274 -153 -274s-153 131 -153 274v209c0 143 13 274 153 274s153 -131 153 -274v-209zM258 267v209c0 126 -4 200 -75 200s-75 -74 -75 -200v-209c0 -126 4 -200 75 -200s75 74 75 200zM338 940l-72 -152h-68l60 152h80zM218 940h-80l-60 -152h68z
" />
    <glyph glyph-name="Oslash" unicode="&#xd8;" horiz-adv-x="366" 
d="M336 267c0 -143 -13 -274 -153 -274c-45 0 -77 13 -99 36l-11 -29h-62l36 95c-14 48 -17 109 -17 172v209c0 143 13 274 153 274c46 0 78 -15 101 -39l12 32h62l-39 -100c14 -47 17 -106 17 -167v-209zM258 267v209v6l-139 -362c10 -35 28 -53 64 -53c71 0 75 74 75 200z
M248 618c-9 38 -28 58 -65 58c-71 0 -75 -74 -75 -200v-209v-14z" />
    <glyph glyph-name="Oslashacute" unicode="&#x1fe;" horiz-adv-x="366" 
d="M287 940l-72 -152h-68l60 152h80zM336 267c0 -143 -13 -274 -153 -274c-45 0 -77 13 -99 36l-11 -29h-62l36 95c-14 48 -17 109 -17 172v209c0 143 13 274 153 274c46 0 78 -15 101 -39l12 32h62l-39 -100c14 -47 17 -106 17 -167v-209zM258 267v209v6l-139 -362
c10 -35 28 -53 64 -53c71 0 75 74 75 200zM248 618c-9 38 -28 58 -65 58c-71 0 -75 -74 -75 -200v-209v-14z" />
    <glyph glyph-name="OE" unicode="&#x152;" horiz-adv-x="506" 
d="M481 0h-217c-24 -4 -49 -7 -70 -7c-156 0 -164 131 -164 274v209c0 143 8 274 164 274c21 0 46 -3 70 -7h217v-117h-58l-10 44h-97v-245h155v-77h-155v-275h97l10 48h58v-121zM238 71v598c-11 4 -25 7 -44 7c-82 0 -86 -74 -86 -200v-209c0 -126 4 -200 86 -200
c19 0 33 2 44 4z" />
    <glyph glyph-name="Racute" unicode="&#x154;" horiz-adv-x="376" 
d="M361 0h-105l-82 298h-22h-19v-225l30 -5v-68h-138v68l30 5v597l-30 5v68h122c107 0 177 -43 177 -208v-12c0 -108 -22 -168 -75 -204l71 -246l41 -5v-68zM246 523v12c0 111 -23 135 -99 135h-14v-299h20c80 0 93 44 93 152zM282 940l-72 -152h-68l60 152h80z" />
    <glyph glyph-name="Rcaron" unicode="&#x158;" horiz-adv-x="376" 
d="M361 0h-105l-82 298h-22h-19v-225l30 -5v-68h-138v68l30 5v597l-30 5v68h122c107 0 177 -43 177 -208v-12c0 -108 -22 -168 -75 -204l71 -246l41 -5v-68zM246 523v12c0 111 -23 135 -99 135h-14v-299h20c80 0 93 44 93 152zM292 940l-67 -152h-106l-67 152h65l55 -106
l55 106h65z" />
    <glyph glyph-name="Rcommaaccent" unicode="&#x156;" horiz-adv-x="376" 
d="M361 0h-105l-82 298h-22h-19v-225l30 -5v-68h-138v68l30 5v597l-30 5v68h122c107 0 177 -43 177 -208v-12c0 -108 -22 -168 -75 -204l71 -246l41 -5v-68zM246 523v12c0 111 -23 135 -99 135h-14v-299h20c80 0 93 44 93 152zM237 -56l-61 -147h-66l37 147h90z" />
    <glyph glyph-name="Sacute" unicode="&#x15a;" horiz-adv-x="310" 
d="M285 183c0 -124 -51 -190 -152 -190c-53 0 -96 16 -108 21v107h58l10 -55c11 -1 15 -1 23 -1c70 0 90 27 90 118c0 64 -19 98 -57 146l-48 61c-54 69 -76 116 -76 192c0 112 47 168 142 168c53 0 96 -16 108 -21v-103h-58l-11 52h-27c-60 0 -75 -32 -75 -96
c0 -60 19 -89 57 -137l48 -61c54 -69 76 -125 76 -201zM249 940l-72 -152h-68l60 152h80z" />
    <glyph glyph-name="Scircumflex" unicode="&#x15c;" horiz-adv-x="310" 
d="M285 183c0 -124 -51 -190 -152 -190c-53 0 -96 16 -108 21v107h58l10 -55c11 -1 15 -1 23 -1c70 0 90 27 90 118c0 64 -19 98 -57 146l-48 61c-54 69 -76 116 -76 192c0 112 47 168 142 168c53 0 96 -16 108 -21v-103h-58l-11 52h-27c-60 0 -75 -32 -75 -96
c0 -60 19 -89 57 -137l48 -61c54 -69 76 -125 76 -201zM272 788h-65l-55 106l-55 -106h-65l67 152h106z" />
    <glyph glyph-name="Scaron" unicode="&#x160;" horiz-adv-x="310" 
d="M285 183c0 -124 -51 -190 -152 -190c-53 0 -96 16 -108 21v107h58l10 -55c11 -1 15 -1 23 -1c70 0 90 27 90 118c0 64 -19 98 -57 146l-48 61c-54 69 -76 116 -76 192c0 112 47 168 142 168c53 0 96 -16 108 -21v-103h-58l-11 52h-27c-60 0 -75 -32 -75 -96
c0 -60 19 -89 57 -137l48 -61c54 -69 76 -125 76 -201zM275 940l-67 -152h-106l-67 152h65l55 -106l55 106h65z" />
    <glyph glyph-name="Scedilla" unicode="&#x15e;" horiz-adv-x="310" 
d="M285 183c0 -124 -51 -190 -152 -190c-53 0 -96 16 -108 21v107h58l10 -55c11 -1 15 -1 23 -1c70 0 90 27 90 118c0 64 -19 98 -57 146l-48 61c-54 69 -76 116 -76 192c0 112 47 168 142 168c53 0 96 -16 108 -21v-103h-58l-11 52h-27c-60 0 -75 -32 -75 -96
c0 -60 19 -89 57 -137l48 -61c54 -69 76 -125 76 -201zM195 -56l-74 -147h-62l57 147h79z" />
    <glyph glyph-name="Scommaaccent" unicode="&#x218;" horiz-adv-x="310" 
d="M285 183c0 -124 -51 -190 -152 -190c-53 0 -96 16 -108 21v107h58l10 -55c11 -1 15 -1 23 -1c70 0 90 27 90 118c0 64 -19 98 -57 146l-48 61c-54 69 -76 116 -76 192c0 112 47 168 142 168c53 0 96 -16 108 -21v-103h-58l-11 52h-27c-60 0 -75 -32 -75 -96
c0 -60 19 -89 57 -137l48 -61c54 -69 76 -125 76 -201zM205 -56l-61 -147h-66l37 147h90z" />
    <glyph glyph-name="Tcaron" unicode="&#x164;" horiz-adv-x="334" 
d="M314 626h-58l-10 44h-40v-597l30 -5v-68h-138v68l30 5v597h-40l-10 -44h-58v117h294v-117zM291 940l-67 -152h-106l-67 152h65l55 -106l55 106h65z" />
    <glyph glyph-name="Tcommaaccent" unicode="&#x162;" horiz-adv-x="334" 
d="M314 626h-58l-10 44h-40v-597l30 -5v-68h-138v68l30 5v597h-40l-10 -44h-58v117h294v-117zM213 -56l-61 -147h-66l37 147h90z" />
    <glyph glyph-name="uni021A" unicode="&#x21a;" horiz-adv-x="334" 
d="M314 626h-58l-10 44h-40v-597l30 -5v-68h-138v68l30 5v597h-40l-10 -44h-58v117h294v-117zM213 -56l-61 -147h-66l37 147h90z" />
    <glyph glyph-name="Tbar" unicode="&#x166;" horiz-adv-x="334" 
d="M299 406h-93v-333l30 -5v-68h-138v68l30 5v333h-93v72h93v192h-40l-10 -44h-58v117h294v-117h-58l-10 44h-40v-192h93v-72z" />
    <glyph glyph-name="Uacute" unicode="&#xda;" horiz-adv-x="400" 
d="M375 675l-30 -5v-428c0 -118 -5 -249 -145 -249s-145 131 -145 249v428l-30 5v68h138v-68l-30 -5v-403c0 -141 0 -200 67 -200s67 59 67 200v403l-30 5v68h138v-68zM300 940l-72 -152h-68l60 152h80z" />
    <glyph glyph-name="Ugrave" unicode="&#xd9;" horiz-adv-x="400" 
d="M375 675l-30 -5v-428c0 -118 -5 -249 -145 -249s-145 131 -145 249v428l-30 5v68h138v-68l-30 -5v-403c0 -141 0 -200 67 -200s67 59 67 200v403l-30 5v68h138v-68zM240 788h-68l-72 152h80z" />
    <glyph glyph-name="Ucircumflex" unicode="&#xdb;" horiz-adv-x="400" 
d="M375 675l-30 -5v-428c0 -118 -5 -249 -145 -249s-145 131 -145 249v428l-30 5v68h138v-68l-30 -5v-403c0 -141 0 -200 67 -200s67 59 67 200v403l-30 5v68h138v-68zM320 788h-65l-55 106l-55 -106h-65l67 152h106z" />
    <glyph glyph-name="Udieresis" unicode="&#xdc;" horiz-adv-x="400" 
d="M375 675l-30 -5v-428c0 -118 -5 -249 -145 -249s-145 131 -145 249v428l-30 5v68h138v-68l-30 -5v-403c0 -141 0 -200 67 -200s67 59 67 200v403l-30 5v68h138v-68zM304 808h-78v106h78v-106zM174 808v106h-78v-106h78z" />
    <glyph glyph-name="Utilde" unicode="&#x168;" horiz-adv-x="400" 
d="M375 675l-30 -5v-428c0 -118 -5 -249 -145 -249s-145 131 -145 249v428l-30 5v68h138v-68l-30 -5v-403c0 -141 0 -200 67 -200s67 59 67 200v403l-30 5v68h138v-68zM336 882c0 -57 -19 -95 -76 -95c-39 0 -60 18 -79 56l-8 16c-11 22 -17 31 -31 31c-10 0 -19 -8 -19 -36
v-66h-57v66c0 56 23 95 76 95c39 0 59 -17 78 -55l8 -16c12 -25 19 -32 32 -32c12 0 19 8 19 36v66h57v-66z" />
    <glyph glyph-name="Umacron" unicode="&#x16a;" horiz-adv-x="400" 
d="M375 675l-30 -5v-428c0 -118 -5 -249 -145 -249s-145 131 -145 249v428l-30 5v68h138v-68l-30 -5v-403c0 -141 0 -200 67 -200s67 59 67 200v403l-30 5v68h138v-68zM300 808h-198v62h198v-62z" />
    <glyph glyph-name="Uring" unicode="&#x16e;" horiz-adv-x="400" 
d="M375 675l-30 -5v-428c0 -118 -5 -249 -145 -249s-145 131 -145 249v428l-30 5v68h138v-68l-30 -5v-403c0 -141 0 -200 67 -200s67 59 67 200v403l-30 5v68h138v-68zM293 897c0 -81 -38 -111 -93 -111s-93 30 -93 111c0 82 38 112 93 112s93 -30 93 -112zM235 897
c0 53 -16 60 -35 60s-35 -7 -35 -60c0 -52 16 -59 35 -59s35 7 35 59z" />
    <glyph glyph-name="Ubreve" unicode="&#x16c;" horiz-adv-x="400" 
d="M375 675l-30 -5v-428c0 -118 -5 -249 -145 -249s-145 131 -145 249v428l-30 5v68h138v-68l-30 -5v-403c0 -141 0 -200 67 -200s67 59 67 200v403l-30 5v68h138v-68zM293 939c0 -83 0 -154 -93 -154s-93 71 -93 154h58c0 -83 0 -102 35 -102s35 19 35 102h58z" />
    <glyph glyph-name="Uhungarumlaut" unicode="&#x170;" horiz-adv-x="400" 
d="M375 675l-30 -5v-428c0 -118 -5 -249 -145 -249s-145 131 -145 249v428l-30 5v68h138v-68l-30 -5v-403c0 -141 0 -200 67 -200s67 59 67 200v403l-30 5v68h138v-68zM360 940l-72 -152h-68l60 152h80zM240 940h-80l-60 -152h68z" />
    <glyph glyph-name="Uogonek" unicode="&#x172;" horiz-adv-x="400" 
d="M375 675l-30 -5v-428c0 -100 -4 -209 -89 -240c-54 -53 -71 -84 -71 -123c0 -19 8 -37 39 -37c11 0 24 1 36 2v-47c-19 -6 -35 -8 -53 -8c-65 0 -90 40 -90 90c0 36 19 75 62 115c-120 12 -124 136 -124 248v428l-30 5v68h138v-68l-30 -5v-403c0 -141 0 -200 67 -200
s67 59 67 200v403l-30 5v68h138v-68z" />
    <glyph glyph-name="Wacute" unicode="&#x1e82;" horiz-adv-x="509" 
d="M494 675l-30 -5l-52 -670h-114l-35 314c-3 27 -6 69 -7 93h-2c-2 -24 -5 -66 -8 -93l-32 -314h-117l-53 670l-29 5v68h138v-66l-29 -5l27 -450c4 -62 6 -105 7 -150h2c2 39 6 89 13 148l27 244h110l27 -247c6 -58 11 -109 13 -146h2c0 54 3 94 6 151l27 450l-29 5v66h138
v-68zM358 940l-72 -152h-68l60 152h80z" />
    <glyph glyph-name="Wgrave" unicode="&#x1e80;" horiz-adv-x="509" 
d="M494 675l-30 -5l-52 -670h-114l-35 314c-3 27 -6 69 -7 93h-2c-2 -24 -5 -66 -8 -93l-32 -314h-117l-53 670l-29 5v68h138v-66l-29 -5l27 -450c4 -62 6 -105 7 -150h2c2 39 6 89 13 148l27 244h110l27 -247c6 -58 11 -109 13 -146h2c0 54 3 94 6 151l27 450l-29 5v66h138
v-68zM296 788h-68l-72 152h80z" />
    <glyph glyph-name="Wcircumflex" unicode="&#x174;" horiz-adv-x="509" 
d="M494 675l-30 -5l-52 -670h-114l-35 314c-3 27 -6 69 -7 93h-2c-2 -24 -5 -66 -8 -93l-32 -314h-117l-53 670l-29 5v68h138v-66l-29 -5l27 -450c4 -62 6 -105 7 -150h2c2 39 6 89 13 148l27 244h110l27 -247c6 -58 11 -109 13 -146h2c0 54 3 94 6 151l27 450l-29 5v66h138
v-68zM374 788h-65l-55 106l-55 -106h-65l67 152h106z" />
    <glyph glyph-name="Wdieresis" unicode="&#x1e84;" horiz-adv-x="509" 
d="M494 675l-30 -5l-52 -670h-114l-35 314c-3 27 -6 69 -7 93h-2c-2 -24 -5 -66 -8 -93l-32 -314h-117l-53 670l-29 5v68h138v-66l-29 -5l27 -450c4 -62 6 -105 7 -150h2c2 39 6 89 13 148l27 244h110l27 -247c6 -58 11 -109 13 -146h2c0 54 3 94 6 151l27 450l-29 5v66h138
v-68zM359 808h-78v106h78v-106zM229 808v106h-78v-106h78z" />
    <glyph glyph-name="Yacute" unicode="&#xdd;" horiz-adv-x="350" 
d="M335 675l-30 -5l-91 -375v-222l30 -5v-68h-138v68l30 5v222l-91 375l-30 5v68h125v-66l-19 -3l35 -163c7 -32 18 -95 19 -109h2c1 14 11 77 18 109l34 163l-18 3v66h124v-68zM275 940l-72 -152h-68l60 152h80z" />
    <glyph glyph-name="Ygrave" unicode="&#x1ef2;" horiz-adv-x="350" 
d="M335 675l-30 -5l-91 -375v-222l30 -5v-68h-138v68l30 5v222l-91 375l-30 5v68h125v-66l-19 -3l35 -163c7 -32 18 -95 19 -109h2c1 14 11 77 18 109l34 163l-18 3v66h124v-68zM214 788h-68l-72 152h80z" />
    <glyph glyph-name="Ycircumflex" unicode="&#x176;" horiz-adv-x="350" 
d="M335 675l-30 -5l-91 -375v-222l30 -5v-68h-138v68l30 5v222l-91 375l-30 5v68h125v-66l-19 -3l35 -163c7 -32 18 -95 19 -109h2c1 14 11 77 18 109l34 163l-18 3v66h124v-68zM296 788h-65l-55 106l-55 -106h-65l67 152h106z" />
    <glyph glyph-name="Ydieresis" unicode="&#x178;" horiz-adv-x="350" 
d="M335 675l-30 -5l-91 -375v-222l30 -5v-68h-138v68l30 5v222l-91 375l-30 5v68h125v-66l-19 -3l35 -163c7 -32 18 -95 19 -109h2c1 14 11 77 18 109l34 163l-18 3v66h124v-68zM279 808h-78v106h78v-106zM149 808v106h-78v-106h78z" />
    <glyph glyph-name="Zacute" unicode="&#x179;" horiz-adv-x="318" 
d="M298 0h-278v93l195 577h-120l-10 -44h-58v117h265v-92l-197 -578h135l10 48h58v-121zM263 940l-72 -152h-68l60 152h80z" />
    <glyph glyph-name="Zcaron" unicode="&#x17d;" horiz-adv-x="318" 
d="M298 0h-278v93l195 577h-120l-10 -44h-58v117h265v-92l-197 -578h135l10 48h58v-121zM279 940l-67 -152h-106l-67 152h65l55 -106l55 106h65z" />
    <glyph glyph-name="Zdotaccent" unicode="&#x17b;" horiz-adv-x="318" 
d="M298 0h-278v93l195 577h-120l-10 -44h-58v117h265v-92l-197 -578h135l10 48h58v-121zM199 808h-78v106h78v-106z" />
    <glyph glyph-name="Thorn" unicode="&#xde;" horiz-adv-x="349" 
d="M324 422c0 -168 -65 -215 -171 -215h-20v-134l30 -5v-68h-138v68l30 5v597l-30 5v68h138v-68l-30 -5v-18h20c106 0 171 -40 171 -208v-22zM246 422v22c0 111 -23 135 -93 135h-20v-299h20c70 0 93 31 93 142z" />
    <glyph glyph-name="aacute" unicode="&#xe1;" horiz-adv-x="319" 
d="M296 0h-97v25c-25 -22 -54 -32 -78 -32c-77 0 -91 58 -91 139v36c0 107 36 158 138 158h22v64c0 83 -9 96 -63 96h-17l-10 -46h-55v97c13 7 52 20 99 20c92 0 122 -41 122 -167v-317l30 -5v-68zM190 77v191h-22c-54 0 -62 -26 -62 -100v-50c0 -50 5 -60 33 -60
c18 0 35 9 51 19zM243 750l-72 -152h-68l60 152h80z" />
    <glyph glyph-name="agrave" unicode="&#xe0;" horiz-adv-x="319" 
d="M296 0h-97v25c-25 -22 -54 -32 -78 -32c-77 0 -91 58 -91 139v36c0 107 36 158 138 158h22v64c0 83 -9 96 -63 96h-17l-10 -46h-55v97c13 7 52 20 99 20c92 0 122 -41 122 -167v-317l30 -5v-68zM190 77v191h-22c-54 0 -62 -26 -62 -100v-50c0 -50 5 -60 33 -60
c18 0 35 9 51 19zM193 598h-68l-72 152h80z" />
    <glyph glyph-name="acircumflex" unicode="&#xe2;" horiz-adv-x="319" 
d="M296 0h-97v25c-25 -22 -54 -32 -78 -32c-77 0 -91 58 -91 139v36c0 107 36 158 138 158h22v64c0 83 -9 96 -63 96h-17l-10 -46h-55v97c13 7 52 20 99 20c92 0 122 -41 122 -167v-317l30 -5v-68zM190 77v191h-22c-54 0 -62 -26 -62 -100v-50c0 -50 5 -60 33 -60
c18 0 35 9 51 19zM268 598h-65l-55 106l-55 -106h-65l67 152h106z" />
    <glyph glyph-name="adieresis" unicode="&#xe4;" horiz-adv-x="319" 
d="M296 0h-97v25c-25 -22 -54 -32 -78 -32c-77 0 -91 58 -91 139v36c0 107 36 158 138 158h22v64c0 83 -9 96 -63 96h-17l-10 -46h-55v97c13 7 52 20 99 20c92 0 122 -41 122 -167v-317l30 -5v-68zM190 77v191h-22c-54 0 -62 -26 -62 -100v-50c0 -50 5 -60 33 -60
c18 0 35 9 51 19zM252 627h-78v106h78v-106zM122 627v106h-78v-106h78z" />
    <glyph glyph-name="atilde" unicode="&#xe3;" horiz-adv-x="319" 
d="M296 0h-97v25c-25 -22 -54 -32 -78 -32c-77 0 -91 58 -91 139v36c0 107 36 158 138 158h22v64c0 83 -9 96 -63 96h-17l-10 -46h-55v97c13 7 52 20 99 20c92 0 122 -41 122 -167v-317l30 -5v-68zM190 77v191h-22c-54 0 -62 -26 -62 -100v-50c0 -50 5 -60 33 -60
c18 0 35 9 51 19zM282 691c0 -57 -19 -95 -76 -95c-39 0 -60 18 -79 56l-8 16c-11 22 -17 31 -31 31c-10 0 -19 -8 -19 -36v-66h-57v66c0 56 23 95 76 95c39 0 59 -17 78 -55l8 -16c12 -25 19 -32 32 -32c12 0 19 8 19 36v66h57v-66z" />
    <glyph glyph-name="amacron" unicode="&#x101;" horiz-adv-x="319" 
d="M296 0h-97v25c-25 -22 -54 -32 -78 -32c-77 0 -91 58 -91 139v36c0 107 36 158 138 158h22v64c0 83 -9 96 -63 96h-17l-10 -46h-55v97c13 7 52 20 99 20c92 0 122 -41 122 -167v-317l30 -5v-68zM190 77v191h-22c-54 0 -62 -26 -62 -100v-50c0 -50 5 -60 33 -60
c18 0 35 9 51 19zM255 651h-198v62h198v-62z" />
    <glyph glyph-name="aring" unicode="&#xe5;" horiz-adv-x="319" 
d="M296 0h-97v25c-25 -22 -54 -32 -78 -32c-77 0 -91 58 -91 139v36c0 107 36 158 138 158h22v64c0 83 -9 96 -63 96h-17l-10 -46h-55v97c13 7 52 20 99 20c92 0 122 -41 122 -167v-317l30 -5v-68zM190 77v191h-22c-54 0 -62 -26 -62 -100v-50c0 -50 5 -60 33 -60
c18 0 35 9 51 19zM249 703c0 -81 -38 -111 -93 -111s-93 30 -93 111c0 82 38 112 93 112s93 -30 93 -112zM191 703c0 53 -16 60 -35 60s-35 -7 -35 -60c0 -52 16 -59 35 -59s35 7 35 59z" />
    <glyph glyph-name="abreve" unicode="&#x103;" horiz-adv-x="319" 
d="M296 0h-97v25c-25 -22 -54 -32 -78 -32c-77 0 -91 58 -91 139v36c0 107 36 158 138 158h22v64c0 83 -9 96 -63 96h-17l-10 -46h-55v97c13 7 52 20 99 20c92 0 122 -41 122 -167v-317l30 -5v-68zM190 77v191h-22c-54 0 -62 -26 -62 -100v-50c0 -50 5 -60 33 -60
c18 0 35 9 51 19zM245 750c0 -83 0 -154 -93 -154s-93 71 -93 154h58c0 -83 0 -102 35 -102s35 19 35 102h58z" />
    <glyph glyph-name="aogonek" unicode="&#x105;" horiz-adv-x="319" 
d="M229 0h-30v25c-25 -22 -54 -32 -78 -32c-77 0 -91 58 -91 139v36c0 107 36 158 138 158h22v64c0 83 -9 96 -63 96h-17l-10 -46h-55v97c13 7 52 20 99 20c92 0 122 -41 122 -167v-317l30 -5v-68c-57 -56 -75 -84 -75 -124c0 -19 8 -34 39 -34c11 0 24 1 36 2v-47
c-19 -6 -35 -8 -53 -8c-65 0 -90 37 -90 87c0 39 23 80 76 124zM190 77v191h-22c-54 0 -62 -26 -62 -100v-50c0 -50 5 -60 33 -60c18 0 35 9 51 19z" />
    <glyph glyph-name="ae" unicode="&#xe6;" horiz-adv-x="468" 
d="M443 247h-181v-19c0 -156 16 -166 75 -166c25 0 58 3 96 12v-63c-20 -9 -57 -18 -102 -18c-52 0 -89 9 -113 45c-39 -36 -79 -45 -102 -45c-77 0 -91 58 -91 139v36c0 107 36 158 138 158h22v64c0 83 -9 96 -63 96h-17l-10 -46h-55v97c13 7 52 20 99 20
c43 0 72 -9 91 -32c20 21 46 32 84 32c106 0 129 -83 129 -249v-61zM367 311v18c0 115 -7 156 -52 156c-46 0 -53 -41 -53 -156v-18h105zM185 77v191h-22c-54 0 -62 -26 -62 -100v-50c0 -50 5 -60 33 -60c18 0 35 9 51 19z" />
    <glyph glyph-name="aeacute" unicode="&#x1fd;" horiz-adv-x="468" 
d="M443 247h-181v-19c0 -156 16 -166 75 -166c25 0 58 3 96 12v-63c-20 -9 -57 -18 -102 -18c-52 0 -89 9 -113 45c-39 -36 -79 -45 -102 -45c-77 0 -91 58 -91 139v36c0 107 36 158 138 158h22v64c0 83 -9 96 -63 96h-17l-10 -46h-55v97c13 7 52 20 99 20
c43 0 72 -9 91 -32c20 21 46 32 84 32c106 0 129 -83 129 -249v-61zM367 311v18c0 115 -7 156 -52 156c-46 0 -53 -41 -53 -156v-18h105zM185 77v191h-22c-54 0 -62 -26 -62 -100v-50c0 -50 5 -60 33 -60c18 0 35 9 51 19zM336 750l-72 -152h-68l60 152h80z" />
    <glyph glyph-name="cacute" unicode="&#x107;" horiz-adv-x="263" 
d="M243 12c-26 -12 -57 -19 -87 -19c-112 0 -126 82 -126 201v162c0 119 14 201 126 201c30 0 61 -7 87 -19v-98h-56l-10 46h-8c-51 0 -63 -17 -63 -130v-162c0 -113 12 -130 63 -130c21 0 42 4 74 9v-61zM241 750l-72 -152h-68l60 152h80z" />
    <glyph glyph-name="ccircumflex" unicode="&#x109;" horiz-adv-x="263" 
d="M243 12c-26 -12 -57 -19 -87 -19c-112 0 -126 82 -126 201v162c0 119 14 201 126 201c30 0 61 -7 87 -19v-98h-56l-10 46h-8c-51 0 -63 -17 -63 -130v-162c0 -113 12 -130 63 -130c21 0 42 4 74 9v-61zM256 598h-65l-55 106l-55 -106h-65l67 152h106z" />
    <glyph glyph-name="ccaron" unicode="&#x10d;" horiz-adv-x="263" 
d="M243 12c-26 -12 -57 -19 -87 -19c-112 0 -126 82 -126 201v162c0 119 14 201 126 201c30 0 61 -7 87 -19v-98h-56l-10 46h-8c-51 0 -63 -17 -63 -130v-162c0 -113 12 -130 63 -130c21 0 42 4 74 9v-61zM270 750l-67 -152h-106l-67 152h65l55 -106l55 106h65z" />
    <glyph glyph-name="cdotaccent" unicode="&#x10b;" horiz-adv-x="263" 
d="M243 12c-26 -12 -57 -19 -87 -19c-112 0 -126 82 -126 201v162c0 119 14 201 126 201c30 0 61 -7 87 -19v-98h-56l-10 46h-8c-51 0 -63 -17 -63 -130v-162c0 -113 12 -130 63 -130c21 0 42 4 74 9v-61zM188 654h-78v106h78v-106z" />
    <glyph glyph-name="ccedilla" unicode="&#xe7;" horiz-adv-x="263" 
d="M243 12c-26 -12 -57 -19 -87 -19c-112 0 -126 82 -126 201v162c0 119 14 201 126 201c30 0 61 -7 87 -19v-98h-56l-10 46h-8c-51 0 -63 -17 -63 -130v-162c0 -113 12 -130 63 -130c21 0 42 4 74 9v-61zM186 -56l-74 -147h-62l57 147h79z" />
    <glyph glyph-name="dcaron" unicode="&#x10f;" horiz-adv-x="404" 
d="M404 760l-39 -222h-61l22 222h78zM301 0h-104v22c-22 -18 -48 -29 -78 -29c-81 0 -94 68 -94 179v181c0 156 39 204 130 204c12 0 26 -1 40 -4v134l-49 5v68h125v-687l30 -5v-68zM195 82v400c-15 3 -29 4 -40 4c-41 0 -54 -17 -54 -133v-181c0 -78 3 -107 40 -107
c17 0 34 5 54 17z" />
    <glyph glyph-name="dcroat" unicode="&#x111;" horiz-adv-x="329" 
d="M306 0h-104v22c-22 -18 -48 -29 -78 -29c-81 0 -94 68 -94 179v181c0 156 39 204 130 204c12 0 26 -1 40 -4v44h-91v66h91v24l-49 5v68h125v-97h33v-66h-33v-524l30 -5v-68zM200 82v400c-15 3 -29 4 -40 4c-41 0 -54 -17 -54 -133v-181c0 -78 3 -107 40 -107
c17 0 34 5 54 17z" />
    <glyph glyph-name="eacute" unicode="&#xe9;" horiz-adv-x="313" 
d="M285 247h-181v-19c0 -156 16 -166 75 -166c25 0 58 3 96 12v-63c-20 -9 -57 -18 -102 -18c-101 0 -145 36 -145 235v80c0 166 23 249 128 249c106 0 129 -83 129 -249v-61zM209 311v18c0 115 -7 156 -52 156c-46 0 -53 -41 -53 -156v-18h105zM251 750l-72 -152h-68
l60 152h80z" />
    <glyph glyph-name="egrave" unicode="&#xe8;" horiz-adv-x="313" 
d="M285 247h-181v-19c0 -156 16 -166 75 -166c25 0 58 3 96 12v-63c-20 -9 -57 -18 -102 -18c-101 0 -145 36 -145 235v80c0 166 23 249 128 249c106 0 129 -83 129 -249v-61zM209 311v18c0 115 -7 156 -52 156c-46 0 -53 -41 -53 -156v-18h105zM201 598h-68l-72 152h80z
" />
    <glyph glyph-name="ecircumflex" unicode="&#xea;" horiz-adv-x="313" 
d="M285 247h-181v-19c0 -156 16 -166 75 -166c25 0 58 3 96 12v-63c-20 -9 -57 -18 -102 -18c-101 0 -145 36 -145 235v80c0 166 23 249 128 249c106 0 129 -83 129 -249v-61zM209 311v18c0 115 -7 156 -52 156c-46 0 -53 -41 -53 -156v-18h105zM276 598h-65l-55 106
l-55 -106h-65l67 152h106z" />
    <glyph glyph-name="edieresis" unicode="&#xeb;" horiz-adv-x="313" 
d="M285 247h-181v-19c0 -156 16 -166 75 -166c25 0 58 3 96 12v-63c-20 -9 -57 -18 -102 -18c-101 0 -145 36 -145 235v80c0 166 23 249 128 249c106 0 129 -83 129 -249v-61zM209 311v18c0 115 -7 156 -52 156c-46 0 -53 -41 -53 -156v-18h105zM260 627h-78v106h78v-106z
M130 627v106h-78v-106h78z" />
    <glyph glyph-name="emacron" unicode="&#x113;" horiz-adv-x="313" 
d="M285 247h-181v-19c0 -156 16 -166 75 -166c25 0 58 3 96 12v-63c-20 -9 -57 -18 -102 -18c-101 0 -145 36 -145 235v80c0 166 23 249 128 249c106 0 129 -83 129 -249v-61zM209 311v18c0 115 -7 156 -52 156c-46 0 -53 -41 -53 -156v-18h105zM255 651h-198v62h198v-62z
" />
    <glyph glyph-name="ecaron" unicode="&#x11b;" horiz-adv-x="313" 
d="M285 247h-181v-19c0 -156 16 -166 75 -166c25 0 58 3 96 12v-63c-20 -9 -57 -18 -102 -18c-101 0 -145 36 -145 235v80c0 166 23 249 128 249c106 0 129 -83 129 -249v-61zM209 311v18c0 115 -7 156 -52 156c-46 0 -53 -41 -53 -156v-18h105zM277 750l-67 -152h-106
l-67 152h65l55 -106l55 106h65z" />
    <glyph glyph-name="ebreve" unicode="&#x115;" horiz-adv-x="313" 
d="M285 247h-181v-19c0 -156 16 -166 75 -166c25 0 58 3 96 12v-63c-20 -9 -57 -18 -102 -18c-101 0 -145 36 -145 235v80c0 166 23 249 128 249c106 0 129 -83 129 -249v-61zM209 311v18c0 115 -7 156 -52 156c-46 0 -53 -41 -53 -156v-18h105zM250 750
c0 -83 0 -154 -93 -154s-93 71 -93 154h58c0 -83 0 -102 35 -102s35 19 35 102h58z" />
    <glyph glyph-name="edotaccent" unicode="&#x117;" horiz-adv-x="313" 
d="M285 247h-181v-19c0 -156 16 -166 75 -166c25 0 58 3 96 12v-63c-20 -9 -57 -18 -102 -18c-101 0 -145 36 -145 235v80c0 166 23 249 128 249c106 0 129 -83 129 -249v-61zM209 311v18c0 115 -7 156 -52 156c-46 0 -53 -41 -53 -156v-18h105zM196 654h-78v106h78v-106z
" />
    <glyph glyph-name="eogonek" unicode="&#x119;" horiz-adv-x="313" 
d="M285 247h-181v-19c0 -156 16 -166 75 -166c25 0 58 3 96 12v-63c-57 -56 -75 -88 -75 -130c0 -22 8 -39 39 -39c11 0 24 1 36 2v-47c-19 -6 -35 -8 -53 -8c-65 0 -90 34 -90 92c0 37 17 75 56 113c-5 0 -10 -1 -15 -1c-101 0 -145 36 -145 235v80c0 166 23 249 128 249
c106 0 129 -83 129 -249v-61zM209 311v18c0 115 -7 156 -52 156c-46 0 -53 -41 -53 -156v-18h105z" />
    <glyph glyph-name="gcircumflex" unicode="&#x11d;" horiz-adv-x="317" 
d="M293 -38c0 -100 -37 -172 -132 -172c-96 0 -133 72 -133 172c0 44 13 93 33 125c-22 17 -33 37 -33 70c0 37 14 63 36 82c-21 29 -33 71 -33 135c0 106 29 183 134 183h132v-62l-32 -5c11 -23 22 -64 22 -116c0 -113 -39 -179 -128 -179c-23 0 -40 5 -52 10
c-12 -13 -16 -26 -16 -38c0 -24 9 -32 41 -32h27c78 0 134 -26 134 -173zM217 -35c-1 83 -10 103 -58 103h-39c-9 -19 -16 -48 -16 -103c0 -71 11 -107 57 -107c45 0 56 36 56 107zM211 374c0 71 -10 114 -52 114c-43 0 -53 -43 -53 -114c0 -65 10 -110 53 -110
c42 0 52 45 52 110zM272 598h-65l-55 106l-55 -106h-65l67 152h106z" />
    <glyph glyph-name="gbreve" unicode="&#x11f;" horiz-adv-x="317" 
d="M293 -38c0 -100 -37 -172 -132 -172c-96 0 -133 72 -133 172c0 44 13 93 33 125c-22 17 -33 37 -33 70c0 37 14 63 36 82c-21 29 -33 71 -33 135c0 106 29 183 134 183h132v-62l-32 -5c11 -23 22 -64 22 -116c0 -113 -39 -179 -128 -179c-23 0 -40 5 -52 10
c-12 -13 -16 -26 -16 -38c0 -24 9 -32 41 -32h27c78 0 134 -26 134 -173zM217 -35c-1 83 -10 103 -58 103h-39c-9 -19 -16 -48 -16 -103c0 -71 11 -107 57 -107c45 0 56 36 56 107zM211 374c0 71 -10 114 -52 114c-43 0 -53 -43 -53 -114c0 -65 10 -110 53 -110
c42 0 52 45 52 110zM248 751c0 -83 0 -154 -93 -154s-93 71 -93 154h58c0 -83 0 -102 35 -102s35 19 35 102h58z" />
    <glyph glyph-name="gdotaccent" unicode="&#x121;" horiz-adv-x="317" 
d="M293 -38c0 -100 -37 -172 -132 -172c-96 0 -133 72 -133 172c0 44 13 93 33 125c-22 17 -33 37 -33 70c0 37 14 63 36 82c-21 29 -33 71 -33 135c0 106 29 183 134 183h132v-62l-32 -5c11 -23 22 -64 22 -116c0 -113 -39 -179 -128 -179c-23 0 -40 5 -52 10
c-12 -13 -16 -26 -16 -38c0 -24 9 -32 41 -32h27c78 0 134 -26 134 -173zM217 -35c-1 83 -10 103 -58 103h-39c-9 -19 -16 -48 -16 -103c0 -71 11 -107 57 -107c45 0 56 36 56 107zM211 374c0 71 -10 114 -52 114c-43 0 -53 -43 -53 -114c0 -65 10 -110 53 -110
c42 0 52 45 52 110zM198 654h-78v106h78v-106z" />
    <glyph glyph-name="gcommaaccent" unicode="&#x123;" horiz-adv-x="317" 
d="M293 -38c0 -100 -37 -172 -132 -172c-96 0 -133 72 -133 172c0 44 13 93 33 125c-22 17 -33 37 -33 70c0 37 14 63 36 82c-21 29 -33 71 -33 135c0 106 29 183 134 183h132v-62l-32 -5c11 -23 22 -64 22 -116c0 -113 -39 -179 -128 -179c-23 0 -40 5 -52 10
c-12 -13 -16 -26 -16 -38c0 -24 9 -32 41 -32h27c78 0 134 -26 134 -173zM217 -35c-1 83 -10 103 -58 103h-39c-9 -19 -16 -48 -16 -103c0 -71 11 -107 57 -107c45 0 56 36 56 107zM211 374c0 71 -10 114 -52 114c-43 0 -53 -43 -53 -114c0 -65 10 -110 53 -110
c42 0 52 45 52 110zM231 768l-37 -147h-90l61 147h66z" />
    <glyph glyph-name="hcircumflex" unicode="&#x125;" horiz-adv-x="352" 
d="M329 0h-106v393c0 72 -2 94 -32 94c-18 0 -38 -11 -62 -32v-382l30 -5v-68h-136v68l30 5v614l-30 5v68h106v-235c19 18 46 32 81 32c86 0 89 -85 89 -157v-327l30 -5v-68zM300 788h-65l-55 106l-55 -106h-65l67 152h106z" />
    <glyph glyph-name="hbar" unicode="&#x127;" horiz-adv-x="352" 
d="M329 0h-106v393c0 72 -2 94 -32 94c-18 0 -38 -11 -62 -32v-382l30 -5v-68h-136v68l30 5v524h-33v66h33v24l-30 5v68h106v-97h91v-66h-91v-72c19 18 46 32 81 32c86 0 89 -85 89 -157v-327l30 -5v-68z" />
    <glyph glyph-name="iacute" unicode="&#xed;" horiz-adv-x="182" 
d="M174 750l-72 -152h-68l60 152h80zM158 0h-136v69l31 4v403l-31 5v69h107v-477l29 -4v-69z" />
    <glyph glyph-name="igrave" unicode="&#xec;" horiz-adv-x="182" 
d="M124 598h-68l-72 152h80zM158 0h-136v69l31 4v403l-31 5v69h107v-477l29 -4v-69z" />
    <glyph glyph-name="icircumflex" unicode="&#xee;" horiz-adv-x="182" 
d="M158 0h-136v69l31 4v403l-31 5v69h107v-477l29 -4v-69zM199 598h-65l-55 106l-55 -106h-65l67 152h106z" />
    <glyph glyph-name="idieresis" unicode="&#xef;" horiz-adv-x="182" 
d="M183 627h-78v106h78v-106zM53 627v106h-78v-106h78zM158 0h-136v69l31 4v403l-31 5v69h107v-477l29 -4v-69z" />
    <glyph glyph-name="itilde" unicode="&#x129;" horiz-adv-x="182" 
d="M212 692c0 -57 -19 -95 -76 -95c-39 0 -60 18 -79 56l-8 16c-11 22 -17 31 -31 31c-10 0 -19 -8 -19 -36v-66h-57v66c0 56 23 95 76 95c39 0 59 -17 78 -55l8 -16c12 -25 19 -32 32 -32c12 0 19 8 19 36v66h57v-66zM158 0h-136v69l31 4v403l-31 5v69h107v-477l29 -4v-69z
" />
    <glyph glyph-name="imacron" unicode="&#x12b;" horiz-adv-x="182" 
d="M177 651h-198v62h198v-62zM158 0h-136v69l31 4v403l-31 5v69h107v-477l29 -4v-69z" />
    <glyph glyph-name="ibreve" unicode="&#x12d;" horiz-adv-x="182" 
d="M171 750c0 -83 0 -154 -93 -154s-93 71 -93 154h58c0 -83 0 -102 35 -102s35 19 35 102h58zM158 0h-136v69l31 4v403l-31 5v69h107v-477l29 -4v-69z" />
    <glyph glyph-name="iogonek" unicode="&#x12f;" horiz-adv-x="182" 
d="M92 0h-69v69l31 4v403l-31 5v69h107v-477l29 -4v-69c-57 -56 -75 -84 -75 -124c0 -19 8 -34 39 -34c11 0 24 1 36 2v-47c-19 -6 -35 -8 -53 -8c-65 0 -90 37 -90 87c0 39 23 80 76 124zM131 654h-78v106h78v-106z" />
    <glyph glyph-name="dotlessi" unicode="&#x131;" horiz-adv-x="182" 
d="M158 0h-136v69l31 4v403l-31 5v69h107v-477l29 -4v-69z" />
    <glyph glyph-name="ij" unicode="&#x133;" horiz-adv-x="320" 
d="M158 0h-136v69l31 4v403l-31 5v69h107v-477l29 -4v-69zM130 654h-78v106h78v-106zM285 -103c0 -68 -13 -107 -82 -107c-16 0 -38 2 -50 6v60h29c22 0 27 6 27 41v579l-31 5v69h107v-653zM284 654h-78v106h78v-106z" />
    <glyph glyph-name="jcircumflex" unicode="&#x135;" horiz-adv-x="159" 
d="M124 -101c0 -58 -13 -107 -74 -107c-24 0 -46 5 -58 9v58c10 -1 18 -1 29 -1c22 0 27 6 27 41v577l-31 5v69h107v-651zM193 598h-65l-55 106l-55 -106h-65l67 152h106z" />
    <glyph glyph-name="kcommaaccent" unicode="&#x137;" horiz-adv-x="330" 
d="M307 0h-102l-76 262v-262h-106v68l30 5v614l-30 5v68h106v-460l75 250h103v-68l-46 -5l-64 -193l67 -211l43 -5v-68zM213 -56l-61 -147h-66l37 147h90z" />
    <glyph glyph-name="kgreenlandic" unicode="&#x138;" horiz-adv-x="330" 
d="M307 0h-102l-76 262v-262h-106v68l30 5v404l-30 5v68h106v-250l75 250h103v-68l-46 -5l-64 -193l67 -211l43 -5v-68z" />
    <glyph glyph-name="lacute" unicode="&#x13a;" horiz-adv-x="182" 
d="M159 0h-136v68l30 5v614l-30 5v68h106v-687l30 -5v-68zM188 940l-72 -152h-68l60 152h80z" />
    <glyph glyph-name="lcaron" unicode="&#x13e;" horiz-adv-x="250" 
d="M153 0h-136v68l30 5v614l-30 5v68h106v-687l30 -5v-68zM250 760l-39 -222h-61l22 222h78z" />
    <glyph glyph-name="ldot" unicode="&#x140;" horiz-adv-x="269" 
d="M159 0h-136v68l30 5v614l-30 5v68h106v-687l30 -5v-68zM254 272h-75v133h75v-133z" />
    <glyph glyph-name="lcommaaccent" unicode="&#x13c;" horiz-adv-x="182" 
d="M159 0h-136v68l30 5v614l-30 5v68h106v-687l30 -5v-68zM135 -56l-61 -147h-66l37 147h90z" />
    <glyph glyph-name="lslash" unicode="&#x142;" horiz-adv-x="182" 
d="M159 0h-136v68l30 5v198l-42 -57v106l42 57v310l-30 5v68h106v-280l42 57v-106l-42 -57v-301l30 -5v-68z" />
    <glyph glyph-name="nacute" unicode="&#x144;" horiz-adv-x="352" 
d="M329 0h-106v401c0 72 -3 89 -31 89c-19 0 -39 -9 -63 -30v-387l30 -5v-68h-136v68l30 5v404l-30 5v68h104v-30c18 18 46 37 85 37c74 0 87 -50 87 -156v-328l30 -5v-68zM278 750l-72 -152h-68l60 152h80z" />
    <glyph glyph-name="ntilde" unicode="&#xf1;" horiz-adv-x="352" 
d="M329 0h-106v401c0 72 -3 89 -31 89c-19 0 -39 -9 -63 -30v-387l30 -5v-68h-136v68l30 5v404l-30 5v68h104v-30c18 18 46 37 85 37c74 0 87 -50 87 -156v-328l30 -5v-68zM310 692c0 -57 -19 -95 -76 -95c-39 0 -60 18 -79 56l-8 16c-11 22 -17 31 -31 31
c-10 0 -19 -8 -19 -36v-66h-57v66c0 56 23 95 76 95c39 0 59 -17 78 -55l8 -16c12 -25 19 -32 32 -32c12 0 19 8 19 36v66h57v-66z" />
    <glyph glyph-name="ncaron" unicode="&#x148;" horiz-adv-x="352" 
d="M329 0h-106v401c0 72 -3 89 -31 89c-19 0 -39 -9 -63 -30v-387l30 -5v-68h-136v68l30 5v404l-30 5v68h104v-30c18 18 46 37 85 37c74 0 87 -50 87 -156v-328l30 -5v-68zM302 750l-67 -152h-106l-67 152h65l55 -106l55 106h65z" />
    <glyph glyph-name="ncommaaccent" unicode="&#x146;" horiz-adv-x="352" 
d="M329 0h-106v401c0 72 -3 89 -31 89c-19 0 -39 -9 -63 -30v-387l30 -5v-68h-136v68l30 5v404l-30 5v68h104v-30c18 18 46 37 85 37c74 0 87 -50 87 -156v-328l30 -5v-68zM223 -56l-61 -147h-66l37 147h90z" />
    <glyph glyph-name="napostrophe" unicode="&#x149;" horiz-adv-x="352" 
d="M329 0h-106v401c0 72 -3 89 -31 89c-19 0 -39 -9 -63 -30v-387l30 -5v-68h-136v68l30 5v404l-30 5v68h104v-30c18 18 46 37 85 37c74 0 87 -50 87 -156v-328l30 -5v-68zM31 760l-39 -222h-61l22 222h78z" />
    <glyph glyph-name="eng" unicode="&#x14b;" horiz-adv-x="334" 
d="M299 -101c0 -58 -13 -107 -74 -107c-24 0 -46 5 -58 9v58c10 -1 18 -1 29 -1c22 0 27 6 27 41v502c0 72 -3 89 -31 89c-19 0 -39 -9 -63 -30v-387l30 -5v-68h-136v68l30 5v404l-30 5v68h104v-30c18 18 46 37 85 37c74 0 87 -50 87 -156v-502z" />
    <glyph glyph-name="oacute" unicode="&#xf3;" horiz-adv-x="313" 
d="M285 197c0 -146 -43 -204 -129 -204c-85 0 -128 58 -128 204v155c0 146 43 205 128 205c86 0 129 -59 129 -205v-155zM209 197v155c0 105 -17 133 -53 133c-35 0 -52 -27 -52 -133v-155c0 -105 16 -132 52 -132s53 26 53 132zM251 750l-72 -152h-68l60 152h80z" />
    <glyph glyph-name="ograve" unicode="&#xf2;" horiz-adv-x="313" 
d="M285 197c0 -146 -43 -204 -129 -204c-85 0 -128 58 -128 204v155c0 146 43 205 128 205c86 0 129 -59 129 -205v-155zM209 197v155c0 105 -17 133 -53 133c-35 0 -52 -27 -52 -133v-155c0 -105 16 -132 52 -132s53 26 53 132zM201 598h-68l-72 152h80z" />
    <glyph glyph-name="ocircumflex" unicode="&#xf4;" horiz-adv-x="313" 
d="M285 197c0 -146 -43 -204 -129 -204c-85 0 -128 58 -128 204v155c0 146 43 205 128 205c86 0 129 -59 129 -205v-155zM209 197v155c0 105 -17 133 -53 133c-35 0 -52 -27 -52 -133v-155c0 -105 16 -132 52 -132s53 26 53 132zM276 598h-65l-55 106l-55 -106h-65l67 152
h106z" />
    <glyph glyph-name="odieresis" unicode="&#xf6;" horiz-adv-x="313" 
d="M285 197c0 -146 -43 -204 -129 -204c-85 0 -128 58 -128 204v155c0 146 43 205 128 205c86 0 129 -59 129 -205v-155zM209 197v155c0 105 -17 133 -53 133c-35 0 -52 -27 -52 -133v-155c0 -105 16 -132 52 -132s53 26 53 132zM260 627h-78v106h78v-106zM130 627v106h-78
v-106h78z" />
    <glyph glyph-name="otilde" unicode="&#xf5;" horiz-adv-x="313" 
d="M285 197c0 -146 -43 -204 -129 -204c-85 0 -128 58 -128 204v155c0 146 43 205 128 205c86 0 129 -59 129 -205v-155zM209 197v155c0 105 -17 133 -53 133c-35 0 -52 -27 -52 -133v-155c0 -105 16 -132 52 -132s53 26 53 132zM291 692c0 -57 -19 -95 -76 -95
c-39 0 -60 18 -79 56l-8 16c-11 22 -17 31 -31 31c-10 0 -19 -8 -19 -36v-66h-57v66c0 56 23 95 76 95c39 0 59 -17 78 -55l8 -16c12 -25 19 -32 32 -32c12 0 19 8 19 36v66h57v-66z" />
    <glyph glyph-name="omacron" unicode="&#x14d;" horiz-adv-x="313" 
d="M285 197c0 -146 -43 -204 -129 -204c-85 0 -128 58 -128 204v155c0 146 43 205 128 205c86 0 129 -59 129 -205v-155zM209 197v155c0 105 -17 133 -53 133c-35 0 -52 -27 -52 -133v-155c0 -105 16 -132 52 -132s53 26 53 132zM256 651h-198v62h198v-62z" />
    <glyph glyph-name="obreve" unicode="&#x14f;" horiz-adv-x="313" 
d="M285 197c0 -146 -43 -204 -129 -204c-85 0 -128 58 -128 204v155c0 146 43 205 128 205c86 0 129 -59 129 -205v-155zM209 197v155c0 105 -17 133 -53 133c-35 0 -52 -27 -52 -133v-155c0 -105 16 -132 52 -132s53 26 53 132zM250 750c0 -83 0 -154 -93 -154
s-93 71 -93 154h58c0 -83 0 -102 35 -102s35 19 35 102h58z" />
    <glyph glyph-name="ohungarumlaut" unicode="&#x151;" horiz-adv-x="313" 
d="M285 197c0 -146 -43 -204 -129 -204c-85 0 -128 58 -128 204v155c0 146 43 205 128 205c86 0 129 -59 129 -205v-155zM209 197v155c0 105 -17 133 -53 133c-35 0 -52 -27 -52 -133v-155c0 -105 16 -132 52 -132s53 26 53 132zM314 750l-72 -152h-68l60 152h80zM194 750
h-80l-60 -152h68z" />
    <glyph glyph-name="oslash" unicode="&#xf8;" horiz-adv-x="313" 
d="M285 197c0 -146 -43 -204 -129 -204c-23 0 -43 5 -59 13l-13 -41h-46l23 74c-22 32 -33 84 -33 158v155c0 146 43 205 128 205c23 0 44 -5 61 -14l12 39h46l-23 -72c22 -33 33 -85 33 -158v-155zM209 197v155v16l-89 -285c9 -14 21 -18 36 -18c36 0 53 26 53 132z
M192 464c-8 15 -20 21 -36 21c-35 0 -52 -27 -52 -133v-155v-19z" />
    <glyph glyph-name="oslashacute" unicode="&#x1ff;" horiz-adv-x="313" 
d="M253 750l-72 -152h-68l60 152h80zM285 197c0 -146 -43 -204 -129 -204c-23 0 -43 5 -59 13l-13 -41h-46l23 74c-22 32 -33 84 -33 158v155c0 146 43 205 128 205c23 0 44 -5 61 -14l12 39h46l-23 -72c22 -33 33 -85 33 -158v-155zM209 197v155v16l-89 -285
c9 -14 21 -18 36 -18c36 0 53 26 53 132zM192 464c-8 15 -20 21 -36 21c-35 0 -52 -27 -52 -133v-155v-19z" />
    <glyph glyph-name="oe" unicode="&#x153;" horiz-adv-x="492" 
d="M465 247h-181v-19c0 -156 16 -166 75 -166c25 0 58 3 96 12v-63c-20 -9 -57 -18 -102 -18c-49 0 -84 8 -108 39c-21 -27 -51 -39 -90 -39c-85 0 -128 58 -128 204v155c0 146 43 205 128 205c39 0 69 -13 91 -40c19 26 48 40 90 40c106 0 129 -83 129 -249v-61zM389 311
v18c0 115 -7 156 -52 156c-42 0 -52 -33 -53 -124v-50h105zM208 197v155c0 105 -17 133 -53 133c-35 0 -52 -27 -52 -133v-155c0 -105 16 -132 52 -132s53 26 53 132z" />
    <glyph glyph-name="racute" unicode="&#x155;" horiz-adv-x="250" 
d="M235 484c-21 0 -79 -5 -106 -25v-386l30 -5v-68h-136v68l30 5v404l-30 5v68h102v-34c41 41 89 41 110 41v-73zM237 750l-72 -152h-68l60 152h80z" />
    <glyph glyph-name="rcaron" unicode="&#x159;" horiz-adv-x="250" 
d="M235 484c-21 0 -79 -5 -106 -25v-386l30 -5v-68h-136v68l30 5v404l-30 5v68h102v-34c41 41 89 41 110 41v-73zM253 750l-67 -152h-106l-67 152h65l55 -106l55 106h65z" />
    <glyph glyph-name="rcommaaccent" unicode="&#x157;" horiz-adv-x="250" 
d="M235 484c-21 0 -79 -5 -106 -25v-386l30 -5v-68h-136v68l30 5v404l-30 5v68h102v-34c41 41 89 41 110 41v-73zM187 -56l-61 -147h-66l37 147h90z" />
    <glyph glyph-name="sacute" unicode="&#x15b;" horiz-adv-x="269" 
d="M244 133c0 -81 -37 -140 -128 -140c-40 0 -75 13 -90 20v108h56l10 -56h18c47 0 58 21 58 68c0 45 -17 67 -63 122l-15 18c-53 65 -65 108 -65 159c0 71 34 125 121 125c42 0 71 -11 92 -20v-97h-56l-11 45h-15c-38 0 -55 -13 -55 -53c0 -35 8 -61 47 -106l17 -20
c62 -75 79 -105 79 -173zM238 750l-72 -152h-68l60 152h80z" />
    <glyph glyph-name="scircumflex" unicode="&#x15d;" horiz-adv-x="269" 
d="M244 133c0 -81 -37 -140 -128 -140c-40 0 -75 13 -90 20v108h56l10 -56h18c47 0 58 21 58 68c0 45 -17 67 -63 122l-15 18c-53 65 -65 108 -65 159c0 71 34 125 121 125c42 0 71 -11 92 -20v-97h-56l-11 45h-15c-38 0 -55 -13 -55 -53c0 -35 8 -61 47 -106l17 -20
c62 -75 79 -105 79 -173zM253 598h-65l-55 106l-55 -106h-65l67 152h106z" />
    <glyph glyph-name="scaron" unicode="&#x161;" horiz-adv-x="269" 
d="M244 133c0 -81 -37 -140 -128 -140c-40 0 -75 13 -90 20v108h56l10 -56h18c47 0 58 21 58 68c0 45 -17 67 -63 122l-15 18c-53 65 -65 108 -65 159c0 71 34 125 121 125c42 0 71 -11 92 -20v-97h-56l-11 45h-15c-38 0 -55 -13 -55 -53c0 -35 8 -61 47 -106l17 -20
c62 -75 79 -105 79 -173zM254 750l-67 -152h-106l-67 152h65l55 -106l55 106h65z" />
    <glyph glyph-name="scedilla" unicode="&#x15f;" horiz-adv-x="269" 
d="M244 133c0 -81 -37 -140 -128 -140c-40 0 -75 13 -90 20v108h56l10 -56h18c47 0 58 21 58 68c0 45 -17 67 -63 122l-15 18c-53 65 -65 108 -65 159c0 71 34 125 121 125c42 0 71 -11 92 -20v-97h-56l-11 45h-15c-38 0 -55 -13 -55 -53c0 -35 8 -61 47 -106l17 -20
c62 -75 79 -105 79 -173zM179 -56l-74 -147h-62l57 147h79z" />
    <glyph glyph-name="scommaaccent" unicode="&#x219;" horiz-adv-x="269" 
d="M244 133c0 -81 -37 -140 -128 -140c-40 0 -75 13 -90 20v108h56l10 -56h18c47 0 58 21 58 68c0 45 -17 67 -63 122l-15 18c-53 65 -65 108 -65 159c0 71 34 125 121 125c42 0 71 -11 92 -20v-97h-56l-11 45h-15c-38 0 -55 -13 -55 -53c0 -35 8 -61 47 -106l17 -20
c62 -75 79 -105 79 -173zM186 -56l-61 -147h-66l37 147h90z" />
    <glyph glyph-name="germandbls" unicode="&#xdf;" horiz-adv-x="337" 
d="M312 194c0 -96 0 -201 -136 -201c-8 0 -21 1 -28 3v66c11 -1 14 -1 21 -1c65 0 67 37 67 133v44c0 76 -2 122 -63 122h-25v64h25c54 0 56 46 56 126v20c0 82 -4 128 -53 128s-53 -46 -53 -128v-570h-106v68l30 5v497c0 82 3 197 129 197s129 -115 129 -197v-20
c0 -70 -12 -116 -48 -152c41 -32 55 -84 55 -160v-44z" />
    <glyph glyph-name="tcaron" unicode="&#x165;" horiz-adv-x="284" 
d="M304 760l-51 -178h-69l34 178h86zM213 4c-11 -4 -33 -11 -65 -11c-50 0 -74 24 -74 98v390h-49v69h49v123h76v-123h63v-69h-63v-380c0 -36 1 -41 25 -41c14 0 38 4 38 4v-60z" />
    <glyph glyph-name="tcommaaccent" unicode="&#x163;" horiz-adv-x="228" 
d="M208 4c-11 -4 -33 -11 -65 -11c-50 0 -74 24 -74 98v390l-49 10v59h49v123h76v-123h63v-69h-63v-380c0 -36 1 -41 25 -41c14 0 38 4 38 4v-60zM181 -56l-61 -147h-66l37 147h90z" />
    <glyph glyph-name="uni021B" unicode="&#x21b;" horiz-adv-x="228" 
d="M208 4c-11 -4 -33 -11 -65 -11c-50 0 -74 24 -74 98v390l-49 10v59h49v123h76v-123h63v-69h-63v-380c0 -36 1 -41 25 -41c14 0 38 4 38 4v-60zM181 -56l-61 -147h-66l37 147h90z" />
    <glyph glyph-name="tbar" unicode="&#x167;" horiz-adv-x="228" 
d="M208 351h-63v-250c0 -36 1 -41 25 -41c14 0 38 4 38 4v-60c-11 -4 -33 -11 -65 -11c-50 0 -74 24 -74 98v260h-49v69h49v61h-49v69h49v123h76v-123h63v-69h-63v-61h63v-69z" />
    <glyph glyph-name="uacute" unicode="&#xfa;" horiz-adv-x="352" 
d="M329 0h-106v31c-18 -18 -44 -38 -83 -38c-81 0 -87 76 -87 156v328l-30 5v68h106v-401c0 -72 2 -89 34 -89c16 0 36 10 60 31v386l-30 5v68h106v-477l30 -5v-68zM271 750l-72 -152h-68l60 152h80z" />
    <glyph glyph-name="ugrave" unicode="&#xf9;" horiz-adv-x="352" 
d="M329 0h-106v31c-18 -18 -44 -38 -83 -38c-81 0 -87 76 -87 156v328l-30 5v68h106v-401c0 -72 2 -89 34 -89c16 0 36 10 60 31v386l-30 5v68h106v-477l30 -5v-68zM221 598h-68l-72 152h80z" />
    <glyph glyph-name="ucircumflex" unicode="&#xfb;" horiz-adv-x="352" 
d="M329 0h-106v31c-18 -18 -44 -38 -83 -38c-81 0 -87 76 -87 156v328l-30 5v68h106v-401c0 -72 2 -89 34 -89c16 0 36 10 60 31v386l-30 5v68h106v-477l30 -5v-68zM296 598h-65l-55 106l-55 -106h-65l67 152h106z" />
    <glyph glyph-name="udieresis" unicode="&#xfc;" horiz-adv-x="352" 
d="M329 0h-106v31c-18 -18 -44 -38 -83 -38c-81 0 -87 76 -87 156v328l-30 5v68h106v-401c0 -72 2 -89 34 -89c16 0 36 10 60 31v386l-30 5v68h106v-477l30 -5v-68zM280 627h-78v106h78v-106zM150 627v106h-78v-106h78z" />
    <glyph glyph-name="utilde" unicode="&#x169;" horiz-adv-x="352" 
d="M329 0h-106v31c-18 -18 -44 -38 -83 -38c-81 0 -87 76 -87 156v328l-30 5v68h106v-401c0 -72 2 -89 34 -89c16 0 36 10 60 31v386l-30 5v68h106v-477l30 -5v-68zM316 692c0 -57 -19 -95 -76 -95c-39 0 -60 18 -79 56l-8 16c-11 22 -17 31 -31 31c-10 0 -19 -8 -19 -36
v-66h-57v66c0 56 23 95 76 95c39 0 59 -17 78 -55l8 -16c12 -25 19 -32 32 -32c12 0 19 8 19 36v66h57v-66z" />
    <glyph glyph-name="umacron" unicode="&#x16b;" horiz-adv-x="352" 
d="M329 0h-106v31c-18 -18 -44 -38 -83 -38c-81 0 -87 76 -87 156v328l-30 5v68h106v-401c0 -72 2 -89 34 -89c16 0 36 10 60 31v386l-30 5v68h106v-477l30 -5v-68zM276 651h-198v62h198v-62z" />
    <glyph glyph-name="uring" unicode="&#x16f;" horiz-adv-x="352" 
d="M329 0h-106v31c-18 -18 -44 -38 -83 -38c-81 0 -87 76 -87 156v328l-30 5v68h106v-401c0 -72 2 -89 34 -89c16 0 36 10 60 31v386l-30 5v68h106v-477l30 -5v-68zM269 707c0 -81 -38 -111 -93 -111s-93 30 -93 111c0 82 38 112 93 112s93 -30 93 -112zM211 707
c0 53 -16 60 -35 60s-35 -7 -35 -60c0 -52 16 -59 35 -59s35 7 35 59z" />
    <glyph glyph-name="ubreve" unicode="&#x16d;" horiz-adv-x="352" 
d="M329 0h-106v31c-18 -18 -44 -38 -83 -38c-81 0 -87 76 -87 156v328l-30 5v68h106v-401c0 -72 2 -89 34 -89c16 0 36 10 60 31v386l-30 5v68h106v-477l30 -5v-68zM269 750c0 -83 0 -154 -93 -154s-93 71 -93 154h58c0 -83 0 -102 35 -102s35 19 35 102h58z" />
    <glyph glyph-name="uhungarumlaut" unicode="&#x171;" horiz-adv-x="352" 
d="M329 0h-106v31c-18 -18 -44 -38 -83 -38c-81 0 -87 76 -87 156v328l-30 5v68h106v-401c0 -72 2 -89 34 -89c16 0 36 10 60 31v386l-30 5v68h106v-477l30 -5v-68zM331 750l-72 -152h-68l60 152h80zM211 750h-80l-60 -152h68z" />
    <glyph glyph-name="uogonek" unicode="&#x173;" horiz-adv-x="352" 
d="M262 0h-39v31c-18 -18 -44 -38 -83 -38c-81 0 -87 76 -87 156v328l-30 5v68h106v-401c0 -72 2 -89 34 -89c16 0 36 10 60 31v386l-30 5v68h106v-477l30 -5v-68c-57 -56 -75 -84 -75 -124c0 -19 8 -34 39 -34c11 0 24 1 36 2v-47c-19 -6 -35 -8 -53 -8
c-65 0 -90 37 -90 87c0 39 23 80 76 124z" />
    <glyph glyph-name="wacute" unicode="&#x1e83;" horiz-adv-x="508" 
d="M491 482l-37 -5l-40 -477h-104l-44 280c-8 50 -10 79 -11 107h-2c-2 -28 -3 -57 -11 -107l-44 -280h-104l-40 477l-37 5v68h139v-67l-27 -4l15 -272c3 -51 4 -98 4 -136h3c4 41 9 91 15 134l38 255h100l38 -255c7 -45 12 -92 16 -134h2c0 41 1 82 4 136l15 272l-27 4v67
h139v-68zM357 750l-72 -152h-68l60 152h80z" />
    <glyph glyph-name="wgrave" unicode="&#x1e81;" horiz-adv-x="508" 
d="M491 482l-37 -5l-40 -477h-104l-44 280c-8 50 -10 79 -11 107h-2c-2 -28 -3 -57 -11 -107l-44 -280h-104l-40 477l-37 5v68h139v-67l-27 -4l15 -272c3 -51 4 -98 4 -136h3c4 41 9 91 15 134l38 255h100l38 -255c7 -45 12 -92 16 -134h2c0 41 1 82 4 136l15 272l-27 4v67
h139v-68zM300 598h-68l-72 152h80z" />
    <glyph glyph-name="wcircumflex" unicode="&#x175;" horiz-adv-x="508" 
d="M491 482l-37 -5l-40 -477h-104l-44 280c-8 50 -10 79 -11 107h-2c-2 -28 -3 -57 -11 -107l-44 -280h-104l-40 477l-37 5v68h139v-67l-27 -4l15 -272c3 -51 4 -98 4 -136h3c4 41 9 91 15 134l38 255h100l38 -255c7 -45 12 -92 16 -134h2c0 41 1 82 4 136l15 272l-27 4v67
h139v-68zM374 598h-65l-55 106l-55 -106h-65l67 152h106z" />
    <glyph glyph-name="wdieresis" unicode="&#x1e85;" horiz-adv-x="508" 
d="M491 482l-37 -5l-40 -477h-104l-44 280c-8 50 -10 79 -11 107h-2c-2 -28 -3 -57 -11 -107l-44 -280h-104l-40 477l-37 5v68h139v-67l-27 -4l15 -272c3 -51 4 -98 4 -136h3c4 41 9 91 15 134l38 255h100l38 -255c7 -45 12 -92 16 -134h2c0 41 1 82 4 136l15 272l-27 4v67
h139v-68zM358 627h-78v106h78v-106zM228 627v106h-78v-106h78z" />
    <glyph glyph-name="yacute" unicode="&#xfd;" horiz-adv-x="349" 
d="M332 482l-32 -5l-81 -497c-16 -101 -30 -190 -135 -190c-23 0 -42 5 -58 11v62c20 -3 39 -3 50 -3c46 0 52 28 65 119l3 21l-93 477l-34 5v68h139v-67l-30 -4l33 -213c8 -54 16 -115 18 -158h2c1 43 7 104 15 159l30 212l-29 4v67h137v-68zM267 750l-72 -152h-68l60 152
h80z" />
    <glyph glyph-name="ygrave" unicode="&#x1ef3;" horiz-adv-x="349" 
d="M332 482l-32 -5l-81 -497c-16 -101 -30 -190 -135 -190c-23 0 -42 5 -58 11v62c20 -3 39 -3 50 -3c46 0 52 28 65 119l3 21l-93 477l-34 5v68h139v-67l-30 -4l33 -213c8 -54 16 -115 18 -158h2c1 43 7 104 15 159l30 212l-29 4v67h137v-68zM218 598h-68l-72 152h80z" />
    <glyph glyph-name="ycircumflex" unicode="&#x177;" horiz-adv-x="349" 
d="M332 482l-32 -5l-81 -497c-16 -101 -30 -190 -135 -190c-23 0 -42 5 -58 11v62c20 -3 39 -3 50 -3c46 0 52 28 65 119l3 21l-93 477l-34 5v68h139v-67l-30 -4l33 -213c8 -54 16 -115 18 -158h2c1 43 7 104 15 159l30 212l-29 4v67h137v-68zM294 598h-65l-55 106l-55 -106
h-65l67 152h106z" />
    <glyph glyph-name="ydieresis" unicode="&#xff;" horiz-adv-x="349" 
d="M332 482l-32 -5l-81 -497c-16 -101 -30 -190 -135 -190c-23 0 -42 5 -58 11v62c20 -3 39 -3 50 -3c46 0 52 28 65 119l3 21l-93 477l-34 5v68h139v-67l-30 -4l33 -213c8 -54 16 -115 18 -158h2c1 43 7 104 15 159l30 212l-29 4v67h137v-68zM276 627h-78v106h78v-106z
M146 627v106h-78v-106h78z" />
    <glyph glyph-name="zacute" unicode="&#x17a;" horiz-adv-x="275" 
d="M250 0h-225v103l154 378h-82l-10 -41h-56v110h219v-94l-157 -387h91l10 52h56v-121zM249 750l-72 -152h-68l60 152h80z" />
    <glyph glyph-name="zcaron" unicode="&#x17e;" horiz-adv-x="275" 
d="M250 0h-225v103l154 378h-82l-10 -41h-56v110h219v-94l-157 -387h91l10 52h56v-121zM257 750l-67 -152h-106l-67 152h65l55 -106l55 106h65z" />
    <glyph glyph-name="zdotaccent" unicode="&#x17c;" horiz-adv-x="275" 
d="M250 0h-225v103l154 378h-82l-10 -41h-56v110h219v-94l-157 -387h91l10 52h56v-121zM182 654h-78v106h78v-106z" />
    <glyph glyph-name="eth" unicode="&#xf0;" horiz-adv-x="313" 
d="M285 197c0 -146 -43 -204 -129 -204c-85 0 -128 58 -128 204v154c0 146 43 205 128 205c16 0 33 -4 45 -11c-8 57 -23 95 -44 122l-47 -64l-46 33l47 65c-18 7 -39 12 -64 12h-10v66c7 1 14 1 21 1c37 0 69 -7 95 -21l23 32l47 -34l-23 -32c65 -68 85 -198 85 -374v-154z
M209 197v154c0 105 -17 133 -53 133c-35 0 -52 -27 -52 -133v-154c0 -105 16 -132 52 -132s53 26 53 132z" />
    <glyph glyph-name="thorn" unicode="&#xfe;" horiz-adv-x="327" 
d="M299 198c0 -156 -46 -205 -130 -205c-12 0 -26 1 -40 4v-127l30 -4v-69h-136v69l30 4v817l-30 5v68h104v-234c19 19 48 31 78 31c81 0 94 -67 94 -178v-181zM223 198v181c0 78 -3 106 -40 106c-17 0 -36 -6 -54 -20v-396c15 -3 29 -4 40 -4c37 0 54 17 54 133z" />
    <glyph glyph-name="longs" unicode="&#x17f;" horiz-adv-x="203" 
d="M159 0h-136v68l30 5v564c0 94 24 130 86 130c26 0 48 -8 59 -15v-53c-6 1 -26 3 -35 3c-28 0 -34 -7 -34 -65v-564l30 -5v-68z" />
    <glyph glyph-name="longs_h" unicode="&#xfb13;" horiz-adv-x="509" 
d="M159 0h-136v68l30 5v564c0 94 24 130 86 130c26 0 56 -8 67 -15h84v-227c19 18 46 32 81 32c86 0 89 -85 89 -157v-327l30 -5v-68h-106v393c0 72 -2 94 -32 94c-18 0 -38 -11 -62 -32v-382l30 -5v-68h-136v68l30 5v624c-9 2 -31 5 -51 5c-28 0 -34 -7 -34 -65v-564l30 -5
v-68z" />
    <glyph glyph-name="longs_i" unicode="&#xfb15;" horiz-adv-x="363" 
d="M338 0h-136v69l31 4v403l-31 5v69h107v-477l29 -4v-69zM310 654h-78v106h78v-106zM198 699c-6 1 -26 3 -35 3c-28 0 -34 -7 -34 -65v-564l30 -5v-68h-136v68l30 5v564c0 94 24 130 86 130c26 0 48 -8 59 -15v-53z" />
    <glyph glyph-name="longs_l" unicode="&#xfb14;" horiz-adv-x="344" 
d="M319 0h-136v68l30 5v627c-18 1 -44 2 -50 2c-28 0 -34 -7 -34 -65v-564l30 -5v-68h-136v68l30 5v564c0 94 24 130 86 130c16 0 43 -3 63 -7h87v-687l30 -5v-68z" />
    <glyph glyph-name="longs_longs" unicode="&#xfb16;" horiz-adv-x="380" 
d="M375 699c-6 1 -26 3 -35 3c-28 0 -34 -7 -34 -65v-564l30 -5v-68h-136v68l30 5v564c0 94 24 130 86 130c26 0 48 -8 59 -15v-53zM198 752v-53c-6 1 -26 3 -35 3c-28 0 -34 -7 -34 -65v-564l30 -5v-68h-136v68l30 5v564c0 94 24 130 86 130c26 0 48 -8 59 -15z" />
    <glyph glyph-name="longs_t" unicode="&#xfb05;" horiz-adv-x="365" 
d="M340 4c-11 -4 -33 -11 -65 -11c-50 0 -74 24 -74 98v390l-49 10v59h49v149c-6 1 -29 3 -38 3c-28 0 -34 -7 -34 -65v-564l30 -5v-68h-136v68l30 5v564c0 94 24 130 86 130c26 0 51 -8 62 -15h76v-202h63v-69h-63v-380c0 -36 1 -41 25 -41c14 0 38 4 38 4v-60z" />
    <glyph glyph-name="acute" unicode="&#xb4;" 
d="M220 750l-72 -152h-68l60 152h80z" />
    <glyph glyph-name="grave" unicode="`" 
d="M150 598h-68l-72 152h80z" />
    <glyph glyph-name="circumflex" unicode="&#x2c6;" 
d="M235 598h-65l-55 106l-55 -106h-65l67 152h106z" />
    <glyph glyph-name="dieresis" unicode="&#xa8;" 
d="M219 627h-78v106h78v-106zM89 627v106h-78v-106h78z" />
    <glyph glyph-name="tilde" unicode="&#x2dc;" 
d="M250 692c0 -57 -19 -95 -76 -95c-39 0 -60 18 -79 56l-8 16c-11 22 -17 31 -31 31c-10 0 -19 -8 -19 -36v-66h-57v66c0 56 23 95 76 95c39 0 59 -17 78 -55l8 -16c12 -25 19 -32 32 -32c12 0 19 8 19 36v66h57v-66z" />
    <glyph glyph-name="macron" unicode="&#xaf;" 
d="M214 651h-198v62h198v-62z" />
    <glyph glyph-name="uni02C9" unicode="&#x2c9;" 
d="M214 651h-198v62h198v-62z" />
    <glyph glyph-name="caron" unicode="&#x2c7;" 
d="M235 750l-67 -152h-106l-67 152h65l55 -106l55 106h65z" />
    <glyph glyph-name="breve" unicode="&#x2d8;" 
d="M208 750c0 -83 0 -154 -93 -154s-93 71 -93 154h58c0 -83 0 -102 35 -102s35 19 35 102h58z" />
    <glyph glyph-name="ring" unicode="&#x2da;" 
d="M208 707c0 -81 -38 -111 -93 -111s-93 30 -93 111c0 82 38 112 93 112s93 -30 93 -112zM150 707c0 53 -16 60 -35 60s-35 -7 -35 -60c0 -52 16 -59 35 -59s35 7 35 59z" />
    <glyph glyph-name="dotaccent" unicode="&#x2d9;" 
d="M154 654h-78v106h78v-106z" />
    <glyph glyph-name="hungarumlaut" unicode="&#x2dd;" 
d="M275 750l-72 -152h-68l60 152h80zM155 750h-80l-60 -152h68z" />
    <glyph glyph-name="cedilla" unicode="&#xb8;" 
d="M164 -56l-74 -147h-62l57 147h79z" />
    <glyph glyph-name="ogonek" unicode="&#x2db;" 
d="M119 0h67c-57 -56 -75 -84 -75 -124c0 -19 8 -34 39 -34c11 0 24 1 36 2v-47c-19 -6 -35 -8 -53 -8c-65 0 -90 37 -90 87c0 39 23 80 76 124z" />
    <glyph glyph-name="one.superior" unicode="&#xb9;" horiz-adv-x="275" 
d="M237 300h-198v55l63 3v309l-63 -27v69l80 37h55v-388l63 -3v-55z" />
    <glyph glyph-name="two.superior" unicode="&#xb2;" horiz-adv-x="282" 
d="M244 300h-211v58c0 98 25 131 88 190c49 45 56 61 56 92c0 42 -15 54 -61 54c-8 0 -18 -1 -28 -2l-6 -34h-48v81c15 4 57 13 95 13c82 0 121 -33 121 -109c0 -44 -13 -76 -78 -137c-60 -55 -69 -74 -69 -135v-10h87l6 30h48v-91z" />
    <glyph glyph-name="three.superior" unicode="&#xb3;" horiz-adv-x="282" 
d="M249 417c0 -94 -43 -124 -126 -124c-37 0 -76 10 -90 15v82h48l6 -37c9 0 19 -1 29 -1c41 0 60 8 60 67v18c0 42 -8 65 -47 65h-80v55h80c39 0 47 20 47 62v10c0 56 -17 65 -61 65c-9 0 -19 -1 -28 -2l-6 -34h-48v81c13 4 52 13 90 13c82 0 126 -28 126 -120v-10
c0 -46 -14 -74 -41 -93c28 -18 41 -48 41 -95v-17z" />
    <glyph glyph-name="ordfeminine" unicode="&#xaa;" horiz-adv-x="245" 
d="M225 455h-69v15c-16 -11 -37 -20 -57 -20c-48 0 -64 33 -64 81v18c0 69 37 88 98 88h16v28c0 42 -5 50 -40 50c-5 0 -10 0 -16 -1l-5 -20h-40v59c9 5 40 14 76 14c64 0 86 -25 86 -102v-155l15 -2v-53zM151 508v91h-17c-32 0 -40 -10 -40 -49v-22c0 -26 7 -31 23 -31
c11 0 23 5 34 11z" />
    <glyph glyph-name="ordmasculine" unicode="&#xba;" horiz-adv-x="260" 
d="M225 577c0 -92 -34 -127 -95 -127s-95 35 -95 127v63c0 92 34 127 95 127s95 -35 95 -127v-63zM165 577v63c0 57 -10 74 -35 74c-24 0 -35 -16 -35 -74v-63c0 -57 10 -73 35 -73s35 15 35 73z" />
    <glyph glyph-name="guilsinglleft" unicode="&#x2039;" horiz-adv-x="237" 
d="M212 70h-85l-102 206l102 206h85l-99 -206z" />
    <glyph glyph-name="guilsinglright" unicode="&#x203a;" horiz-adv-x="237" 
d="M212 276l-102 -206h-85l99 206l-99 206h85z" />
    <glyph glyph-name="guillemotleft" unicode="&#xab;" horiz-adv-x="406" 
d="M381 70h-85l-102 206l102 206h85l-99 -206zM212 70l-99 206l99 206h-85l-102 -206l102 -206h85z" />
    <glyph glyph-name="guillemotright" unicode="&#xbb;" horiz-adv-x="406" 
d="M382 276l-102 -206h-85l99 206l-99 206h85zM212 276l-102 206h-85l99 -206l-99 -206h85z" />
    <glyph glyph-name="quotedblleft" unicode="&#x201c;" horiz-adv-x="260" 
d="M240 760l-22 -222h-78l39 222h61zM120 760h-61l-39 -222h78z" />
    <glyph glyph-name="quotedblright" unicode="&#x201d;" horiz-adv-x="260" 
d="M240 760l-39 -222h-61l22 222h78zM120 760h-78l-22 -222h61z" />
    <glyph glyph-name="quotesinglbase" unicode="&#x201a;" horiz-adv-x="140" 
d="M120 133l-39 -222h-61l22 222h78z" />
    <glyph glyph-name="quotedblbase" unicode="&#x201e;" horiz-adv-x="260" 
d="M240 133l-39 -222h-61l22 222h78zM120 133h-78l-22 -222h61z" />
    <glyph glyph-name="ellipsis" unicode="&#x2026;" horiz-adv-x="484" 
d="M449 0h-75v133h75v-133zM280 0v133h-75v-133h75zM110 0h-75v133h75v-133z" />
    <glyph glyph-name="uni00AD" unicode="&#xad;" horiz-adv-x="183" 
d="M168 258h-153v69h153v-69z" />
    <glyph glyph-name="endash" unicode="&#x2013;" horiz-adv-x="234" 
d="M219 258h-204v69h204v-69z" />
    <glyph glyph-name="emdash" unicode="&#x2014;" horiz-adv-x="299" 
d="M284 258h-269v69h269v-69z" />
    <glyph glyph-name="exclamdown" unicode="&#xa1;" horiz-adv-x="171" 
d="M126 -210h-81l6 564h69zM123 550v-127h-75v127h75z" />
    <glyph glyph-name="questiondown" unicode="&#xbf;" horiz-adv-x="288" 
d="M258 -198c-18 -8 -58 -19 -96 -19c-66 0 -127 31 -127 150v14c0 40 8 87 40 158c45 98 59 128 59 191v58h70v-58c0 -61 -6 -105 -33 -164c-41 -87 -54 -132 -54 -185v-14c0 -61 15 -78 65 -78h8l10 43h58v-96zM206 417h-75v133h75v-133z" />
    <glyph glyph-name="periodcentered" unicode="&#xb7;" horiz-adv-x="135" 
d="M105 272h-75v133h75v-133z" />
    <glyph glyph-name="uni2219" unicode="&#x2219;" horiz-adv-x="135" 
d="M105 272h-75v133h75v-133z" />
    <glyph glyph-name="bullet" unicode="&#x2022;" horiz-adv-x="322" 
d="M287 366c0 -70 -56 -126 -126 -126c-69 0 -126 56 -126 126s57 126 126 126c70 0 126 -56 126 -126zM217 366c0 31 -25 56 -56 56s-56 -25 -56 -56s25 -56 56 -56s56 25 56 56z" />
    <glyph glyph-name="dagger" unicode="&#x2020;" horiz-adv-x="296" 
d="M261 493h-75v-623h-76v623h-75v71h75v196h76v-196h75v-71z" />
    <glyph glyph-name="daggerdbl" unicode="&#x2021;" horiz-adv-x="296" 
d="M261 271h-75v-401h-76v401h-75v71h75v141h-75v71h75v196h76v-196h75v-71h-75v-141h75v-71z" />
    <glyph glyph-name="section" unicode="&#xa7;" horiz-adv-x="310" 
d="M285 -20c0 -99 -28 -198 -141 -198c-53 0 -96 16 -108 21v107h58l7 -50c11 -1 22 -1 30 -1c54 0 72 22 72 121c0 61 -10 87 -84 174l-42 49c-33 40 -52 97 -52 165c0 39 10 76 22 99c-16 29 -22 71 -22 109c0 109 33 174 142 174c53 0 96 -16 108 -21v-103h-58l-11 49
h-27c-62 0 -73 -32 -73 -99c0 -52 6 -78 75 -157l30 -34c59 -67 74 -121 74 -193c0 -37 -4 -66 -22 -97c18 -42 22 -81 22 -115zM206 175v17c0 67 0 75 -43 126l-30 35c-23 28 -27 32 -32 41v-26c0 -65 7 -74 39 -113l32 -38c20 -23 30 -36 34 -42z" />
    <glyph glyph-name="paragraph" unicode="&#xb6;" horiz-adv-x="426" 
d="M393 -203h-70v878h-50v-878h-108v68l38 7v382h-4c-97 0 -167 65 -167 239v12c0 199 74 238 189 238h172v-946zM203 324v351h-4c-60 0 -97 -45 -97 -170v-12c0 -123 41 -169 97 -169h4z" />
    <glyph glyph-name="copyright" unicode="&#xa9;" horiz-adv-x="490" 
d="M460 384c0 -202 -72 -328 -215 -328s-215 126 -215 328s72 328 215 328s215 -126 215 -328zM408 384c0 177 -54 275 -163 275s-163 -98 -163 -275s54 -275 163 -275s163 98 163 275zM320 182c-20 -9 -58 -12 -81 -12c-84 0 -103 68 -103 152v123c0 90 19 152 103 152
c23 0 67 -3 81 -11v-78h-49l-8 30h-14c-38 0 -48 -25 -48 -93v-123c0 -65 10 -91 48 -91c4 0 8 0 14 1l8 30h49v-80z" />
    <glyph glyph-name="registered" unicode="&#xae;" horiz-adv-x="427" 
d="M397 482c0 -169 -63 -277 -184 -277s-183 108 -183 277c0 172 62 278 183 278s184 -106 184 -278zM351 482c0 152 -48 235 -138 235s-139 -83 -139 -235c0 -154 49 -236 139 -236s138 82 138 236zM307 321h-64l-39 131h-9h-9v-131h-64v36l13 2v258l-13 2v41h73
c61 0 100 -17 100 -95v-5c0 -50 -12 -77 -43 -95l36 -105l19 -2v-37zM242 560v5c0 46 -12 52 -47 52h-9v-120h9c40 0 47 16 47 63z" />
    <glyph glyph-name="trademark" unicode="&#x2122;" horiz-adv-x="523" 
d="M498 371h-87v50l16 3v160c0 26 1 51 4 76h-1c-5 -21 -9 -41 -15 -61l-24 -83h-49l-23 83c-6 20 -11 41 -16 61h-1c3 -25 4 -49 4 -76v-160l16 -3v-50h-88v50l16 3v266l-16 3v50h90l34 -127c4 -16 6 -27 8 -43h1c2 16 4 27 8 43l34 127h89v-50l-15 -3v-266l15 -3v-50z
M213 672h-37l-4 21h-24v-269l15 -3v-50h-88v50l15 3v269h-24l-4 -21h-37v71h188v-71z" />
    <glyph glyph-name="zero.oldstyle" unicode="&#xf730;" horiz-adv-x="350" 
d="M315 233c0 -138 -10 -240 -140 -240s-140 102 -140 240v84c0 138 10 240 140 240s140 -102 140 -240v-84zM237 233v84c0 118 -2 171 -62 171s-62 -53 -62 -171v-84c0 -118 2 -171 62 -171s62 53 62 171z" />
    <glyph glyph-name="one.oldstyle" unicode="&#xf731;" horiz-adv-x="300" 
d="M265 0h-230v67l77 6v388l-77 -46v85l92 57h62v-484l76 -6v-67z" />
    <glyph glyph-name="two.oldstyle" unicode="&#xf732;" horiz-adv-x="329" 
d="M299 0h-269v74l75 103c76 104 115 159 115 235c0 49 -22 77 -90 77c-8 0 -18 -1 -28 -2l-10 -54h-58v104c10 4 53 20 111 20c122 0 153 -71 153 -145c0 -83 -33 -135 -135 -272l-49 -66h185v-74z" />
    <glyph glyph-name="three.oldstyle" unicode="&#xf733;" horiz-adv-x="329" 
d="M296 -7c0 -156 -61 -193 -162 -193c-48 0 -92 16 -102 20v108h58l10 -59c10 -1 20 -1 28 -1c62 0 90 13 90 125v41c0 82 -12 126 -64 126h-98v64h98c52 0 64 37 64 119v21c0 112 -28 125 -90 125c-8 0 -18 -1 -28 -2l-10 -54h-58v104c10 4 54 20 102 20
c101 0 162 -37 162 -193v-21c0 -82 -19 -121 -54 -151c35 -30 54 -76 54 -158v-41z" />
    <glyph glyph-name="four.oldstyle" unicode="&#xf734;" horiz-adv-x="338" 
d="M318 7h-53v-127l30 -5v-68h-139v68l30 5v127h-166v87l156 456h89v-473h53v-70zM187 77v317l-102 -317h102z" />
    <glyph glyph-name="five.oldstyle" unicode="&#xf735;" horiz-adv-x="329" 
d="M296 -7c0 -156 -61 -193 -162 -193c-48 0 -92 16 -102 20v108h58l10 -59c10 -1 20 -1 28 -1c62 0 90 13 90 125v54c0 102 -12 141 -101 141h-74l15 362h226v-117h-58l-10 44h-89l-9 -222h8c162 0 170 -99 170 -208v-54z" />
    <glyph glyph-name="six.oldstyle" unicode="&#xf736;" horiz-adv-x="351" 
d="M316 204c0 -186 -75 -211 -140 -211s-141 25 -141 211v308c0 138 14 238 162 238c45 0 86 -14 102 -20v-104h-58l-10 54c-10 1 -20 2 -28 2c-90 0 -90 -56 -90 -170v-64c16 5 44 11 73 11c92 0 130 -52 130 -172v-83zM238 204v74c0 82 0 117 -63 117
c-18 0 -44 -4 -62 -11v-180c0 -78 3 -142 63 -142s62 64 62 142z" />
    <glyph glyph-name="seven.oldstyle" unicode="&#xf737;" horiz-adv-x="307" 
d="M282 463l-148 -656h-80l159 670h-120l-10 -44h-58v117h257v-87z" />
    <glyph glyph-name="eight.oldstyle" unicode="&#xf738;" horiz-adv-x="358" 
d="M323 209c0 -196 -71 -216 -143 -216h-2c-72 0 -143 20 -143 216v12c0 93 18 134 58 169c-30 24 -57 58 -57 152v14c0 131 40 194 142 194h2c102 0 142 -63 142 -194v-14c0 -94 -27 -128 -57 -152c40 -35 58 -76 58 -169v-12zM246 209v12c0 96 -17 134 -63 134h-8
c-46 0 -63 -38 -63 -134v-12c0 -120 17 -146 66 -146h2c49 0 66 26 66 146zM246 542v14c0 95 -14 126 -66 126h-2c-52 0 -66 -31 -66 -126v-14c0 -76 18 -120 63 -120h8c45 0 63 44 63 120z" />
    <glyph glyph-name="nine.oldstyle" unicode="&#xf739;" horiz-adv-x="351" 
d="M316 38c0 -138 -14 -238 -162 -238c-45 0 -86 14 -102 20v107h58l10 -57c10 -1 20 -2 28 -2c90 0 90 56 90 170v64c-16 -5 -44 -11 -73 -11c-92 0 -130 52 -130 172v83c0 186 75 211 140 211s141 -25 141 -211v-308zM238 166v180c0 78 -3 142 -63 142s-62 -64 -62 -142
v-74c0 -82 0 -117 63 -117c18 0 44 4 62 11z" />
    <glyph glyph-name="zero.fitted" unicode="&#xe097;" horiz-adv-x="350" 
d="M315 233c0 -138 -10 -240 -140 -240s-140 102 -140 240v277c0 138 10 240 140 240s140 -102 140 -240v-277zM237 233v277c0 118 -2 171 -62 171s-62 -53 -62 -171v-277c0 -118 2 -171 62 -171s62 53 62 171z" />
    <glyph glyph-name="one.fitted" unicode="&#xf6dc;" horiz-adv-x="350" 
d="M320 0h-290v67l107 6v584l-107 -43v72l122 57h62v-670l106 -6v-67z" />
    <glyph glyph-name="two.fitted" unicode="&#xe098;" horiz-adv-x="350" 
d="M299 0h-253v98c0 150 38 203 110 302c63 86 73 117 73 173c0 88 -22 109 -90 109c-8 0 -18 -1 -28 -2l-10 -54h-58v104c9 4 53 20 111 20c105 0 153 -55 153 -177c0 -57 -6 -105 -94 -222c-79 -105 -94 -143 -94 -253v-25h112l10 48h58v-121z" />
    <glyph glyph-name="three.fitted" unicode="&#xe099;" horiz-adv-x="350" 
d="M307 186c0 -156 -61 -193 -162 -193c-48 0 -92 16 -102 20v108h58l10 -59c10 -1 20 -1 28 -1c62 0 90 13 90 125v41c0 82 -12 126 -64 126h-98v64h98c52 0 64 37 64 119v21c0 112 -28 125 -90 125c-8 0 -18 -1 -28 -2l-10 -54h-58v104c10 4 54 20 102 20
c101 0 162 -37 162 -193v-21c0 -82 -19 -121 -54 -151c35 -30 54 -76 54 -158v-41z" />
    <glyph glyph-name="four.fitted" unicode="&#xe09a;" horiz-adv-x="350" 
d="M324 200h-53v-127l30 -5v-68h-139v68l30 5v127h-166v87l156 456h89v-473h53v-70zM193 270v317l-102 -317h102z" />
    <glyph glyph-name="five.fitted" unicode="&#xe09b;" horiz-adv-x="350" 
d="M307 186c0 -156 -61 -193 -162 -193c-48 0 -92 16 -102 20v108h58l10 -59c10 -1 20 -1 28 -1c62 0 90 13 90 125v54c0 102 -12 141 -101 141h-74l15 362h226v-117h-58l-10 44h-89l-9 -222h8c162 0 170 -99 170 -208v-54z" />
    <glyph glyph-name="six.fitted" unicode="&#xe09c;" horiz-adv-x="350" 
d="M315 204c0 -186 -75 -211 -140 -211s-141 25 -141 211v308c0 138 14 238 162 238c45 0 86 -14 102 -20v-104h-58l-10 54c-10 1 -20 2 -28 2c-90 0 -90 -56 -90 -170v-64c16 5 44 11 73 11c92 0 130 -52 130 -172v-83zM237 204v74c0 82 0 117 -63 117
c-18 0 -44 -4 -62 -11v-180c0 -78 3 -142 63 -142s62 64 62 142z" />
    <glyph glyph-name="seven.fitted" unicode="&#xe09d;" horiz-adv-x="350" 
d="M303 656l-148 -656h-80l159 670h-120l-10 -44h-58v117h257v-87z" />
    <glyph glyph-name="eight.fitted" unicode="&#xe09e;" horiz-adv-x="350" 
d="M319 209c0 -196 -71 -216 -143 -216h-2c-72 0 -143 20 -143 216v12c0 93 18 134 58 169c-30 24 -57 58 -57 152v14c0 131 40 194 142 194h2c102 0 142 -63 142 -194v-14c0 -94 -27 -128 -57 -152c40 -35 58 -76 58 -169v-12zM242 209v12c0 96 -17 134 -63 134h-8
c-46 0 -63 -38 -63 -134v-12c0 -120 17 -146 66 -146h2c49 0 66 26 66 146zM242 542v14c0 95 -14 126 -66 126h-2c-52 0 -66 -31 -66 -126v-14c0 -76 18 -120 63 -120h8c45 0 63 44 63 120z" />
    <glyph glyph-name="nine.fitted" unicode="&#xe09f;" horiz-adv-x="350" 
d="M315 232c0 -138 -14 -238 -162 -238c-45 0 -86 14 -102 20v107h58l10 -57c10 -1 20 -2 28 -2c90 0 90 56 90 170v64c-16 -5 -44 -11 -73 -11c-92 0 -130 52 -130 172v83c0 186 75 211 140 211s141 -25 141 -211v-308zM237 360v180c0 78 -3 142 -63 142s-62 -64 -62 -142
v-74c0 -82 0 -117 63 -117c18 0 44 4 62 11z" />
    <glyph glyph-name="zero.taboldstyle" unicode="&#xe100;" horiz-adv-x="350" 
d="M315 233c0 -138 -10 -240 -140 -240s-140 102 -140 240v84c0 138 10 240 140 240s140 -102 140 -240v-84zM237 233v84c0 118 -2 171 -62 171s-62 -53 -62 -171v-84c0 -118 2 -171 62 -171s62 53 62 171z" />
    <glyph glyph-name="one.taboldstyle" unicode="&#xe101;" horiz-adv-x="350" 
d="M290 0h-230v67l77 6v388l-77 -46v85l92 57h62v-484l76 -6v-67z" />
    <glyph glyph-name="two.taboldstyle" unicode="&#xe102;" horiz-adv-x="350" 
d="M309 0h-269v74l75 103c76 104 115 159 115 235c0 49 -22 77 -90 77c-8 0 -18 -1 -28 -2l-10 -54h-58v104c10 4 53 20 111 20c122 0 153 -71 153 -145c0 -83 -33 -135 -135 -272l-49 -66h185v-74z" />
    <glyph glyph-name="three.taboldstyle" unicode="&#xe103;" horiz-adv-x="350" 
d="M307 -7c0 -156 -61 -193 -162 -193c-48 0 -92 16 -102 20v108h58l10 -59c10 -1 20 -1 28 -1c62 0 90 13 90 125v41c0 82 -12 126 -64 126h-98v64h98c52 0 64 37 64 119v21c0 112 -28 125 -90 125c-8 0 -18 -1 -28 -2l-10 -54h-58v104c10 4 54 20 102 20
c101 0 162 -37 162 -193v-21c0 -82 -19 -121 -54 -151c35 -30 54 -76 54 -158v-41z" />
    <glyph glyph-name="four.taboldstyle" unicode="&#xe104;" horiz-adv-x="350" 
d="M324 7h-53v-127l30 -5v-68h-139v68l30 5v127h-166v87l156 456h89v-473h53v-70zM193 77v317l-102 -317h102z" />
    <glyph glyph-name="five.taboldstyle" unicode="&#xe105;" horiz-adv-x="350" 
d="M307 -7c0 -156 -61 -193 -162 -193c-48 0 -92 16 -102 20v108h58l10 -59c10 -1 20 -1 28 -1c62 0 90 13 90 125v54c0 102 -12 141 -101 141h-74l15 362h226v-117h-58l-10 44h-89l-9 -222h8c162 0 170 -99 170 -208v-54z" />
    <glyph glyph-name="six.taboldstyle" unicode="&#xe106;" horiz-adv-x="350" 
d="M315 204c0 -186 -75 -211 -140 -211s-141 25 -141 211v308c0 138 14 238 162 238c45 0 86 -14 102 -20v-104h-58l-10 54c-10 1 -20 2 -28 2c-90 0 -90 -56 -90 -170v-64c16 5 44 11 73 11c92 0 130 -52 130 -172v-83zM237 204v74c0 82 0 117 -63 117
c-18 0 -44 -4 -62 -11v-180c0 -78 3 -142 63 -142s62 64 62 142z" />
    <glyph glyph-name="seven.taboldstyle" unicode="&#xe107;" horiz-adv-x="350" 
d="M303 463l-148 -656h-80l159 670h-120l-10 -44h-58v117h257v-87z" />
    <glyph glyph-name="eight.taboldstyle" unicode="&#xe108;" horiz-adv-x="350" 
d="M319 209c0 -196 -71 -216 -143 -216h-2c-72 0 -143 20 -143 216v12c0 93 18 134 58 169c-30 24 -57 58 -57 152v14c0 131 40 194 142 194h2c102 0 142 -63 142 -194v-14c0 -94 -27 -128 -57 -152c40 -35 58 -76 58 -169v-12zM242 209v12c0 96 -17 134 -63 134h-8
c-46 0 -63 -38 -63 -134v-12c0 -120 17 -146 66 -146h2c49 0 66 26 66 146zM242 542v14c0 95 -14 126 -66 126h-2c-52 0 -66 -31 -66 -126v-14c0 -76 18 -120 63 -120h8c45 0 63 44 63 120z" />
    <glyph glyph-name="nine.taboldstyle" unicode="&#xe109;" horiz-adv-x="350" 
d="M315 38c0 -138 -14 -238 -162 -238c-45 0 -86 14 -102 20v107h58l10 -57c10 -1 20 -2 28 -2c90 0 90 56 90 170v64c-16 -5 -44 -11 -73 -11c-92 0 -130 52 -130 172v83c0 186 75 211 140 211s141 -25 141 -211v-308zM237 166v180c0 78 -3 142 -63 142s-62 -64 -62 -142
v-74c0 -82 0 -117 63 -117c18 0 44 4 62 11z" />
    <glyph glyph-name="onequarter" unicode="&#xbc;" horiz-adv-x="599" 
d="M574 111h-41v-61l22 -3v-47h-117v47l22 3v61h-134v64l138 271h69v-277h41v-58zM462 169v168l-79 -168h79zM462 743l-230 -743h-66l230 743h66zM223 300h-198v55l63 3v309l-63 -27v69l80 37h55v-388l63 -3v-55z" />
    <glyph glyph-name="onehalf" unicode="&#xbd;" horiz-adv-x="641" 
d="M610 0h-211v58c0 98 25 131 88 190c49 45 56 61 56 92c0 42 -15 54 -61 54c-8 0 -18 -1 -28 -2l-6 -34h-48v81c15 4 57 13 95 13c82 0 121 -33 121 -109c0 -44 -13 -76 -78 -137c-60 -55 -69 -74 -69 -135v-10h87l6 30h48v-91zM462 743l-230 -743h-66l230 743h66z
M223 300h-198v55l63 3v309l-63 -27v69l80 37h55v-388l63 -3v-55z" />
    <glyph glyph-name="threequarters" unicode="&#xbe;" horiz-adv-x="605" 
d="M580 111h-41v-61l22 -3v-47h-117v47l22 3v61h-134v64l138 271h69v-277h41v-58zM468 169v168l-79 -168h79zM468 743l-230 -743h-66l230 743h66zM241 417c0 -94 -43 -124 -126 -124c-37 0 -76 10 -90 15v82h48l6 -37c9 0 19 -1 29 -1c41 0 60 8 60 67v18c0 42 -8 65 -47 65
h-80v55h80c39 0 47 20 47 62v10c0 56 -17 65 -61 65c-9 0 -19 -1 -28 -2l-6 -34h-48v81c13 4 52 13 90 13c82 0 126 -28 126 -120v-10c0 -46 -14 -74 -41 -93c28 -18 41 -48 41 -95v-17z" />
    <glyph glyph-name="oneeighth" unicode="&#x215b;" horiz-adv-x="662" 
d="M637 126c0 -123 -64 -133 -120 -133h-2c-56 0 -120 10 -120 133v6c0 52 13 79 39 100c-23 18 -38 43 -38 93v7c0 93 50 120 119 120h2c69 0 119 -27 119 -120v-7c0 -50 -16 -75 -39 -93c27 -21 40 -48 40 -100v-6zM564 126v6c0 53 -9 73 -37 73h-22
c-29 0 -38 -20 -38 -73v-6c0 -63 15 -76 48 -76h2c32 0 47 13 47 76zM564 324v7c0 50 -14 65 -47 65h-2c-33 0 -48 -15 -48 -65v-7c0 -41 9 -65 38 -65h22c28 0 37 24 37 65zM462 743l-230 -743h-66l230 743h66zM223 300h-198v55l63 3v309l-63 -27v69l80 37h55v-388l63 -3
v-55z" />
    <glyph glyph-name="threeeighths" unicode="&#x215c;" horiz-adv-x="673" 
d="M648 126c0 -123 -64 -133 -120 -133h-2c-56 0 -120 10 -120 133v6c0 52 13 79 39 100c-23 18 -38 43 -38 93v7c0 93 50 120 119 120h2c69 0 119 -27 119 -120v-7c0 -50 -16 -75 -39 -93c27 -21 40 -48 40 -100v-6zM575 126v6c0 53 -9 73 -37 73h-22
c-29 0 -38 -20 -38 -73v-6c0 -63 15 -76 48 -76h2c32 0 47 13 47 76zM575 324v7c0 50 -14 65 -47 65h-2c-33 0 -48 -15 -48 -65v-7c0 -41 9 -65 38 -65h22c28 0 37 24 37 65zM473 743l-230 -743h-66l230 743h66zM241 417c0 -94 -43 -124 -126 -124c-37 0 -76 10 -90 15v82
h48l6 -37c9 0 19 -1 29 -1c41 0 60 8 60 67v18c0 42 -8 65 -47 65h-80v55h80c39 0 47 20 47 62v10c0 56 -17 65 -61 65c-9 0 -19 -1 -28 -2l-6 -34h-48v81c13 4 52 13 90 13c82 0 126 -28 126 -120v-10c0 -46 -14 -74 -41 -93c28 -18 41 -48 41 -95v-17z" />
    <glyph glyph-name="fiveeighths" unicode="&#x215d;" horiz-adv-x="666" 
d="M641 126c0 -123 -64 -133 -120 -133h-2c-56 0 -120 10 -120 133v6c0 52 13 79 39 100c-23 18 -38 43 -38 93v7c0 93 50 120 119 120h2c69 0 119 -27 119 -120v-7c0 -50 -16 -75 -39 -93c27 -21 40 -48 40 -100v-6zM568 126v6c0 53 -9 73 -37 73h-22
c-29 0 -38 -20 -38 -73v-6c0 -63 15 -76 48 -76h2c32 0 47 13 47 76zM568 324v7c0 50 -14 65 -47 65h-2c-33 0 -48 -15 -48 -65v-7c0 -41 9 -65 38 -65h22c28 0 37 24 37 65zM466 743l-230 -743h-66l230 743h66zM242 422c0 -100 -51 -129 -127 -129c-42 0 -80 11 -90 14v83
h47l6 -37c9 -1 19 -1 28 -1c45 0 62 11 62 70v22c0 53 -10 71 -66 71h-73l14 231h189v-88h-48l-5 27h-75l-6 -113h18c106 0 126 -52 126 -128v-22z" />
    <glyph glyph-name="seveneighths" unicode="&#x215e;" horiz-adv-x="605" 
d="M580 126c0 -123 -64 -133 -120 -133h-2c-56 0 -120 10 -120 133v6c0 52 13 79 39 100c-23 18 -38 43 -38 93v7c0 93 50 120 119 120h2c69 0 119 -27 119 -120v-7c0 -50 -16 -75 -39 -93c27 -21 40 -48 40 -100v-6zM507 126v6c0 53 -9 73 -37 73h-22
c-29 0 -38 -20 -38 -73v-6c0 -63 15 -76 48 -76h2c32 0 47 13 47 76zM507 324v7c0 50 -14 65 -47 65h-2c-33 0 -48 -15 -48 -65v-7c0 -41 9 -65 38 -65h22c28 0 37 24 37 65zM405 743l-230 -743h-66l230 743h66zM240 677l-124 -377h-76l132 385h-94l-5 -27h-48v88h215v-69z
" />
    <glyph glyph-name="onethird" unicode="&#x2153;" horiz-adv-x="655" 
d="M630 117c0 -94 -43 -124 -126 -124c-37 0 -76 10 -90 15v82h48l6 -37c9 0 19 -1 29 -1c41 0 60 8 60 67v18c0 42 -8 65 -47 65h-80v55h80c39 0 47 20 47 62v10c0 56 -17 65 -61 65c-9 0 -19 -1 -28 -2l-6 -34h-48v81c13 4 52 13 90 13c82 0 126 -28 126 -120v-10
c0 -46 -14 -74 -41 -93c28 -18 41 -48 41 -95v-17zM462 743l-230 -743h-66l230 743h66zM223 300h-198v55l63 3v309l-63 -27v69l80 37h55v-388l63 -3v-55z" />
    <glyph glyph-name="twothirds" unicode="&#x2154;" horiz-adv-x="667" 
d="M642 117c0 -94 -43 -124 -126 -124c-37 0 -76 10 -90 15v82h48l6 -37c9 0 19 -1 29 -1c41 0 60 8 60 67v18c0 42 -8 65 -47 65h-80v55h80c39 0 47 20 47 62v10c0 56 -17 65 -61 65c-9 0 -19 -1 -28 -2l-6 -34h-48v81c13 4 52 13 90 13c82 0 126 -28 126 -120v-10
c0 -46 -14 -74 -41 -93c28 -18 41 -48 41 -95v-17zM474 743l-230 -743h-66l230 743h66zM236 300h-211v58c0 98 25 131 88 190c49 45 56 61 56 92c0 42 -15 54 -61 54c-8 0 -18 -1 -28 -2l-6 -34h-48v81c15 4 57 13 95 13c82 0 121 -33 121 -109c0 -44 -13 -76 -78 -137
c-60 -55 -69 -74 -69 -135v-10h87l6 30h48v-91z" />
    <glyph glyph-name="zero.numerator" unicode="&#xe11e;" horiz-adv-x="284" 
d="M262 467c0 -100 -21 -174 -120 -174c-100 0 -120 74 -120 174v111c0 101 20 174 120 174c99 0 120 -73 120 -174v-111zM189 467v111c0 86 -11 113 -47 113c-37 0 -47 -27 -47 -113v-111c0 -85 10 -112 47 -112c36 0 47 27 47 112z" />
    <glyph glyph-name="one.numerator" unicode="&#xe11f;" horiz-adv-x="275" 
d="M237 300h-198v55l63 3v309l-63 -27v69l80 37h55v-388l63 -3v-55z" />
    <glyph glyph-name="two.numerator" unicode="&#xe120;" horiz-adv-x="282" 
d="M244 300h-211v58c0 98 25 131 88 190c49 45 56 61 56 92c0 42 -15 54 -61 54c-8 0 -18 -1 -28 -2l-6 -34h-48v81c15 4 57 13 95 13c82 0 121 -33 121 -109c0 -44 -13 -76 -78 -137c-60 -55 -69 -74 -69 -135v-10h87l6 30h48v-91z" />
    <glyph glyph-name="three.numerator" unicode="&#xe121;" horiz-adv-x="282" 
d="M249 417c0 -94 -43 -124 -126 -124c-37 0 -76 10 -90 15v82h48l6 -37c9 0 19 -1 29 -1c41 0 60 8 60 67v18c0 42 -8 65 -47 65h-80v55h80c39 0 47 20 47 62v10c0 56 -17 65 -61 65c-9 0 -19 -1 -28 -2l-6 -34h-48v81c13 4 52 13 90 13c82 0 126 -28 126 -120v-10
c0 -46 -14 -74 -41 -93c28 -18 41 -48 41 -95v-17z" />
    <glyph glyph-name="four.numerator" unicode="&#xe122;" horiz-adv-x="284" 
d="M266 411h-41v-61l22 -3v-47h-117v47l22 3v61h-134v64l138 271h69v-277h41v-58zM154 469v168l-79 -168h79z" />
    <glyph glyph-name="five.numerator" unicode="&#xe123;" horiz-adv-x="281" 
d="M250 422c0 -100 -51 -129 -127 -129c-42 0 -80 11 -90 14v83h47l6 -37c9 -1 19 -1 28 -1c45 0 62 11 62 70v22c0 53 -10 71 -66 71h-73l14 231h189v-88h-48l-5 27h-75l-6 -113h18c106 0 126 -52 126 -128v-22z" />
    <glyph glyph-name="six.numerator" unicode="&#xe124;" horiz-adv-x="282" 
d="M259 429c0 -112 -60 -136 -118 -136c-67 0 -118 27 -118 147v156c0 100 23 156 128 156c38 0 78 -9 93 -13v-81h-47l-6 34c-10 1 -22 2 -32 2c-61 0 -64 -30 -64 -95v-27c13 4 35 7 55 7c68 0 109 -27 109 -114v-36zM186 429v32c0 50 -8 66 -45 66c-12 0 -31 -1 -46 -6
v-84c0 -58 10 -87 47 -87c34 0 44 30 44 79z" />
    <glyph glyph-name="seven.numerator" unicode="&#xe125;" horiz-adv-x="282" 
d="M249 677l-124 -377h-76l132 385h-94l-5 -27h-48v88h215v-69z" />
    <glyph glyph-name="eight.numerator" unicode="&#xe126;" horiz-adv-x="284" 
d="M263 426c0 -123 -64 -133 -120 -133h-2c-56 0 -120 10 -120 133v6c0 52 13 79 39 100c-23 18 -38 43 -38 93v7c0 93 50 120 119 120h2c69 0 119 -27 119 -120v-7c0 -50 -16 -75 -39 -93c27 -21 40 -48 40 -100v-6zM190 426v6c0 53 -9 73 -37 73h-22
c-29 0 -38 -20 -38 -73v-6c0 -63 15 -76 48 -76h2c32 0 47 13 47 76zM190 624v7c0 50 -14 65 -47 65h-2c-33 0 -48 -15 -48 -65v-7c0 -41 9 -65 38 -65h22c28 0 37 24 37 65z" />
    <glyph glyph-name="nine.numerator" unicode="&#xe127;" horiz-adv-x="282" 
d="M259 450c0 -100 -23 -156 -128 -156c-38 0 -79 9 -94 13v82h48l6 -35c10 -1 22 -2 32 -2c61 0 64 31 64 94v28c-13 -4 -36 -7 -55 -7c-68 0 -109 27 -109 114v36c0 112 60 135 118 135c67 0 118 -26 118 -146v-156zM187 525v85c0 57 -10 86 -47 86c-34 0 -44 -29 -44 -79
v-32c0 -50 8 -66 45 -66c12 0 31 2 46 6z" />
    <glyph glyph-name="fraction" unicode="&#x2044;" horiz-adv-x="376" 
d="M336 743l-230 -743h-66l230 743h66z" />
    <glyph glyph-name="uni2215" unicode="&#x2215;" horiz-adv-x="195" 
d="M190 550l-114 -550h-71l114 550h71z" />
    <glyph glyph-name="zero.denominator" unicode="&#xe10a;" horiz-adv-x="284" 
d="M262 167c0 -100 -21 -174 -120 -174c-100 0 -120 74 -120 174v111c0 101 20 174 120 174c99 0 120 -73 120 -174v-111zM189 167v111c0 86 -11 113 -47 113c-37 0 -47 -27 -47 -113v-111c0 -85 10 -112 47 -112c36 0 47 27 47 112z" />
    <glyph glyph-name="one.denominator" unicode="&#xe10b;" horiz-adv-x="275" 
d="M237 0h-198v55l63 3v309l-63 -27v69l80 37h55v-388l63 -3v-55z" />
    <glyph glyph-name="two.denominator" unicode="&#xe10c;" horiz-adv-x="282" 
d="M244 0h-211v58c0 98 25 131 88 190c49 45 56 61 56 92c0 42 -15 54 -61 54c-8 0 -18 -1 -28 -2l-6 -34h-48v81c15 4 57 13 95 13c82 0 121 -33 121 -109c0 -44 -13 -76 -78 -137c-60 -55 -69 -74 -69 -135v-10h87l6 30h48v-91z" />
    <glyph glyph-name="three.denominator" unicode="&#xe10d;" horiz-adv-x="282" 
d="M249 117c0 -94 -43 -124 -126 -124c-37 0 -76 10 -90 15v82h48l6 -37c9 0 19 -1 29 -1c41 0 60 8 60 67v18c0 42 -8 65 -47 65h-80v55h80c39 0 47 20 47 62v10c0 56 -17 65 -61 65c-9 0 -19 -1 -28 -2l-6 -34h-48v81c13 4 52 13 90 13c82 0 126 -28 126 -120v-10
c0 -46 -14 -74 -41 -93c28 -18 41 -48 41 -95v-17z" />
    <glyph glyph-name="four.denominator" unicode="&#xe10e;" horiz-adv-x="284" 
d="M266 111h-41v-61l22 -3v-47h-117v47l22 3v61h-134v64l138 271h69v-277h41v-58zM154 169v168l-79 -168h79z" />
    <glyph glyph-name="five.denominator" unicode="&#xe10f;" horiz-adv-x="281" 
d="M250 122c0 -100 -51 -129 -127 -129c-42 0 -80 11 -90 14v83h47l6 -37c9 -1 19 -1 28 -1c45 0 62 11 62 70v22c0 53 -10 71 -66 71h-73l14 231h189v-88h-48l-5 27h-75l-6 -113h18c106 0 126 -52 126 -128v-22z" />
    <glyph glyph-name="six.denominator" unicode="&#xe110;" horiz-adv-x="282" 
d="M259 129c0 -112 -60 -136 -118 -136c-67 0 -118 27 -118 147v156c0 100 23 156 128 156c38 0 78 -9 93 -13v-81h-47l-6 34c-10 1 -22 2 -32 2c-61 0 -64 -30 -64 -95v-27c13 4 35 7 55 7c68 0 109 -27 109 -114v-36zM186 129v32c0 50 -8 66 -45 66c-12 0 -31 -1 -46 -6
v-84c0 -58 10 -87 47 -87c34 0 44 30 44 79z" />
    <glyph glyph-name="seven.denominator" unicode="&#xe111;" horiz-adv-x="282" 
d="M249 377l-124 -377h-76l132 385h-94l-5 -27h-48v88h215v-69z" />
    <glyph glyph-name="eight.denominator" unicode="&#xe112;" horiz-adv-x="284" 
d="M263 126c0 -123 -64 -133 -120 -133h-2c-56 0 -120 10 -120 133v6c0 52 13 79 39 100c-23 18 -38 43 -38 93v7c0 93 50 120 119 120h2c69 0 119 -27 119 -120v-7c0 -50 -16 -75 -39 -93c27 -21 40 -48 40 -100v-6zM190 126v6c0 53 -9 73 -37 73h-22
c-29 0 -38 -20 -38 -73v-6c0 -63 15 -76 48 -76h2c32 0 47 13 47 76zM190 324v7c0 50 -14 65 -47 65h-2c-33 0 -48 -15 -48 -65v-7c0 -41 9 -65 38 -65h22c28 0 37 24 37 65z" />
    <glyph glyph-name="nine.denominator" unicode="&#xe113;" horiz-adv-x="282" 
d="M259 150c0 -100 -23 -156 -128 -156c-38 0 -79 9 -94 13v82h48l6 -35c10 -1 22 -2 32 -2c61 0 64 31 64 94v28c-13 -4 -36 -7 -55 -7c-68 0 -109 27 -109 114v36c0 112 60 135 118 135c67 0 118 -26 118 -146v-156zM187 225v85c0 57 -10 86 -47 86c-34 0 -44 -29 -44 -79
v-32c0 -50 8 -66 45 -66c12 0 31 2 46 6z" />
    <glyph glyph-name="zero.superior" unicode="&#x2070;" horiz-adv-x="284" 
d="M262 467c0 -100 -21 -174 -120 -174c-100 0 -120 74 -120 174v111c0 101 20 174 120 174c99 0 120 -73 120 -174v-111zM189 467v111c0 86 -11 113 -47 113c-37 0 -47 -27 -47 -113v-111c0 -85 10 -112 47 -112c36 0 47 27 47 112z" />
    <glyph glyph-name="four.superior" unicode="&#x2074;" horiz-adv-x="284" 
d="M266 411h-41v-61l22 -3v-47h-117v47l22 3v61h-134v64l138 271h69v-277h41v-58zM154 469v168l-79 -168h79z" />
    <glyph glyph-name="five.superior" unicode="&#x2075;" horiz-adv-x="281" 
d="M250 422c0 -100 -51 -129 -127 -129c-42 0 -80 11 -90 14v83h47l6 -37c9 -1 19 -1 28 -1c45 0 62 11 62 70v22c0 53 -10 71 -66 71h-73l14 231h189v-88h-48l-5 27h-75l-6 -113h18c106 0 126 -52 126 -128v-22z" />
    <glyph glyph-name="six.superior" unicode="&#x2076;" horiz-adv-x="282" 
d="M259 429c0 -112 -60 -136 -118 -136c-67 0 -118 27 -118 147v156c0 100 23 156 128 156c38 0 78 -9 93 -13v-81h-47l-6 34c-10 1 -22 2 -32 2c-61 0 -64 -30 -64 -95v-27c13 4 35 7 55 7c68 0 109 -27 109 -114v-36zM186 429v32c0 50 -8 66 -45 66c-12 0 -31 -1 -46 -6
v-84c0 -58 10 -87 47 -87c34 0 44 30 44 79z" />
    <glyph glyph-name="seven.superior" unicode="&#x2077;" horiz-adv-x="282" 
d="M249 677l-124 -377h-76l132 385h-94l-5 -27h-48v88h215v-69z" />
    <glyph glyph-name="eight.superior" unicode="&#x2078;" horiz-adv-x="284" 
d="M263 426c0 -123 -64 -133 -120 -133h-2c-56 0 -120 10 -120 133v6c0 52 13 79 39 100c-23 18 -38 43 -38 93v7c0 93 50 120 119 120h2c69 0 119 -27 119 -120v-7c0 -50 -16 -75 -39 -93c27 -21 40 -48 40 -100v-6zM190 426v6c0 53 -9 73 -37 73h-22
c-29 0 -38 -20 -38 -73v-6c0 -63 15 -76 48 -76h2c32 0 47 13 47 76zM190 624v7c0 50 -14 65 -47 65h-2c-33 0 -48 -15 -48 -65v-7c0 -41 9 -65 38 -65h22c28 0 37 24 37 65z" />
    <glyph glyph-name="nine.superior" unicode="&#x2079;" horiz-adv-x="282" 
d="M259 450c0 -100 -23 -156 -128 -156c-38 0 -79 9 -94 13v82h48l6 -35c10 -1 22 -2 32 -2c61 0 64 31 64 94v28c-13 -4 -36 -7 -55 -7c-68 0 -109 27 -109 114v36c0 112 60 135 118 135c67 0 118 -26 118 -146v-156zM187 525v85c0 57 -10 86 -47 86c-34 0 -44 -29 -44 -79
v-32c0 -50 8 -66 45 -66c12 0 31 2 46 6z" />
    <glyph glyph-name="zero.inferior" unicode="&#x2080;" horiz-adv-x="284" 
d="M262 167c0 -100 -21 -174 -120 -174c-100 0 -120 74 -120 174v111c0 101 20 174 120 174c99 0 120 -73 120 -174v-111zM189 167v111c0 86 -11 113 -47 113c-37 0 -47 -27 -47 -113v-111c0 -85 10 -112 47 -112c36 0 47 27 47 112z" />
    <glyph glyph-name="one.inferior" unicode="&#x2081;" horiz-adv-x="275" 
d="M237 0h-198v55l63 3v309l-63 -27v69l80 37h55v-388l63 -3v-55z" />
    <glyph glyph-name="two.inferior" unicode="&#x2082;" horiz-adv-x="282" 
d="M244 0h-211v58c0 98 25 131 88 190c49 45 56 61 56 92c0 42 -15 54 -61 54c-8 0 -18 -1 -28 -2l-6 -34h-48v81c15 4 57 13 95 13c82 0 121 -33 121 -109c0 -44 -13 -76 -78 -137c-60 -55 -69 -74 -69 -135v-10h87l6 30h48v-91z" />
    <glyph glyph-name="three.inferior" unicode="&#x2083;" horiz-adv-x="282" 
d="M249 117c0 -94 -43 -124 -126 -124c-37 0 -76 10 -90 15v82h48l6 -37c9 0 19 -1 29 -1c41 0 60 8 60 67v18c0 42 -8 65 -47 65h-80v55h80c39 0 47 20 47 62v10c0 56 -17 65 -61 65c-9 0 -19 -1 -28 -2l-6 -34h-48v81c13 4 52 13 90 13c82 0 126 -28 126 -120v-10
c0 -46 -14 -74 -41 -93c28 -18 41 -48 41 -95v-17z" />
    <glyph glyph-name="four.inferior" unicode="&#x2084;" horiz-adv-x="284" 
d="M266 111h-41v-61l22 -3v-47h-117v47l22 3v61h-134v64l138 271h69v-277h41v-58zM154 169v168l-79 -168h79z" />
    <glyph glyph-name="five.inferior" unicode="&#x2085;" horiz-adv-x="281" 
d="M250 122c0 -100 -51 -129 -127 -129c-42 0 -80 11 -90 14v83h47l6 -37c9 -1 19 -1 28 -1c45 0 62 11 62 70v22c0 53 -10 71 -66 71h-73l14 231h189v-88h-48l-5 27h-75l-6 -113h18c106 0 126 -52 126 -128v-22z" />
    <glyph glyph-name="six.inferior" unicode="&#x2086;" horiz-adv-x="282" 
d="M259 129c0 -112 -60 -136 -118 -136c-67 0 -118 27 -118 147v156c0 100 23 156 128 156c38 0 78 -9 93 -13v-81h-47l-6 34c-10 1 -22 2 -32 2c-61 0 -64 -30 -64 -95v-27c13 4 35 7 55 7c68 0 109 -27 109 -114v-36zM186 129v32c0 50 -8 66 -45 66c-12 0 -31 -1 -46 -6
v-84c0 -58 10 -87 47 -87c34 0 44 30 44 79z" />
    <glyph glyph-name="seven.inferior" unicode="&#x2087;" horiz-adv-x="282" 
d="M249 377l-124 -377h-76l132 385h-94l-5 -27h-48v88h215v-69z" />
    <glyph glyph-name="eight.inferior" unicode="&#x2088;" horiz-adv-x="284" 
d="M263 126c0 -123 -64 -133 -120 -133h-2c-56 0 -120 10 -120 133v6c0 52 13 79 39 100c-23 18 -38 43 -38 93v7c0 93 50 120 119 120h2c69 0 119 -27 119 -120v-7c0 -50 -16 -75 -39 -93c27 -21 40 -48 40 -100v-6zM190 126v6c0 53 -9 73 -37 73h-22
c-29 0 -38 -20 -38 -73v-6c0 -63 15 -76 48 -76h2c32 0 47 13 47 76zM190 324v7c0 50 -14 65 -47 65h-2c-33 0 -48 -15 -48 -65v-7c0 -41 9 -65 38 -65h22c28 0 37 24 37 65z" />
    <glyph glyph-name="nine.inferior" unicode="&#x2089;" horiz-adv-x="282" 
d="M259 150c0 -100 -23 -156 -128 -156c-38 0 -79 9 -94 13v82h48l6 -35c10 -1 22 -2 32 -2c61 0 64 31 64 94v28c-13 -4 -36 -7 -55 -7c-68 0 -109 27 -109 114v36c0 112 60 135 118 135c67 0 118 -26 118 -146v-156zM187 225v85c0 57 -10 86 -47 86c-34 0 -44 -29 -44 -79
v-32c0 -50 8 -66 45 -66c12 0 31 2 46 6z" />
    <glyph glyph-name="Euro" unicode="&#x20ac;" horiz-adv-x="355" 
d="M329 13c-17 -8 -59 -20 -97 -20c-76 0 -161 17 -161 275h-46v62h46v88h-46v62h46c0 253 85 270 161 270c38 0 80 -12 97 -20v-104h-58l-11 49c-6 0 -12 1 -17 1c-58 0 -93 -3 -93 -196h158l-8 -62h-150v-88h137l-8 -62h-129c0 -198 35 -201 93 -201c24 0 55 5 86 11v-65z
" />
    <glyph glyph-name="sterling" unicode="&#xa3;" horiz-adv-x="328" 
d="M303 0h-258v67c26 32 26 101 26 127v164h-46v62h46v102c0 163 24 228 132 228c53 0 88 -16 100 -21v-103h-58l-11 49c-8 1 -12 1 -17 1c-62 0 -67 -25 -67 -154v-102h118v-62h-118v-164c0 -25 0 -74 -29 -123h182v-71z" />
    <glyph glyph-name="yen" unicode="&#xa5;" horiz-adv-x="350" 
d="M335 268h-121v-195l30 -5v-68h-138v68l30 5v195h-121v62h112l-21 88h-89v62h74l-46 190l-30 5v68h92l49 -232c7 -32 18 -95 19 -109h2c1 14 11 77 18 109l49 232h91v-68l-30 -5l-46 -190h76v-62h-91l-22 -88h113v-62z" />
    <glyph glyph-name="florin" unicode="&#x192;" horiz-adv-x="298" 
d="M288 738l-3 -55c-17 2 -23 3 -36 3c-29 0 -34 -11 -39 -72l-14 -188h83l-5 -68h-83l-25 -362c-7 -103 -43 -136 -97 -136c-26 0 -42 5 -59 12l3 54c12 -1 24 -2 36 -2c30 0 35 5 40 72l26 362h-75l5 68h75l12 188c7 103 43 136 97 136c26 0 42 -5 59 -12z" />
    <glyph glyph-name="cent" unicode="&#xa2;" horiz-adv-x="258" 
d="M243 12c-18 -8 -37 -14 -57 -17v-112h-73v116c-73 19 -83 93 -83 195v162c0 101 10 176 83 195v113h74v-109c19 -3 39 -9 56 -17v-98h-56l-10 46h-8c-51 0 -63 -17 -63 -130v-162c0 -113 12 -130 63 -130c21 0 42 4 74 9v-61z" />
    <glyph glyph-name="peseta" unicode="&#x20a7;" horiz-adv-x="339" 
d="M345 490h-32c-6 -150 -69 -192 -170 -192h-20v-225l30 -5v-68h-138v68l30 5v417h-30v70h30v110l-30 5v68h128c100 0 164 -36 170 -183h32v-70zM236 513v22c0 111 -23 135 -93 135h-20v-299h20c70 0 93 31 93 142z" />
    <glyph glyph-name="peseta.taboldstyle" unicode="&#xe439;" horiz-adv-x="354" 
d="M329 349h-46c-8 -106 -59 -135 -132 -135h-15v-152l32 -4v-58h-125v58l22 4v287h-40v66h40v73l-22 3v59c28 1 76 1 105 1c77 0 129 -26 135 -136h46v-66zM213 377v15c0 76 -14 93 -63 93h-14v-206h14c49 0 63 24 63 98z" />
    <glyph glyph-name="franc" unicode="&#x20a3;" horiz-adv-x="318" 
d="M288 626h-58l-10 44h-97v-245h155v-77h-155v-104h87v-77h-87v-94l30 -5v-68h-138v68l30 5v94h-30v77h30v426l-30 5v68h273v-117z" />
    <glyph glyph-name="franc.taboldstyle" unicode="&#xe431;" horiz-adv-x="297" 
d="M257 246h-115v-72h68v-67h-68v-45l22 -4v-58h-122v58l22 4v45h-29v67h29v298l-19 5v73h217v-110h-56l-8 31h-56v-150h115v-75z" />
    <glyph glyph-name="rupiah" unicode="&#xf6dd;" horiz-adv-x="681" 
d="M361 0h-105l-82 298h-22h-19v-225l30 -5v-68h-138v68l30 5v597l-30 5v68h122c107 0 177 -43 177 -208v-12c0 -108 -22 -168 -75 -204l71 -246l41 -5v-68zM246 523v12c0 111 -23 135 -99 135h-14v-299h20c80 0 93 44 93 152zM511 -203h-136v69l30 4v607l-30 5v68h104v-24
c19 19 48 31 78 31c81 0 94 -67 94 -178v-181c0 -156 -46 -205 -130 -205c-12 0 -26 1 -40 4v-127l30 -4v-69zM575 198v181c0 78 -3 106 -40 106c-17 0 -36 -6 -54 -20v-396c15 -3 29 -4 40 -4c37 0 54 17 54 133z" />
    <glyph glyph-name="currency" unicode="&#xa4;" horiz-adv-x="415" 
d="M381 261l-52 -51l-51 50c-21 -11 -50 -19 -70 -19c-25 0 -49 4 -72 19l-51 -49l-51 50l51 50c-11 20 -19 50 -19 72c0 25 4 48 19 71l-51 49l51 50l51 -49c22 13 49 19 72 19c25 0 49 -4 72 -19l50 48l51 -49l-51 -50c12 -23 20 -48 20 -70c0 -25 -6 -50 -19 -72z
M288 383c0 43 -38 81 -80 81c-43 0 -80 -38 -80 -81c0 -45 38 -83 80 -83s80 38 80 83z" />
    <glyph glyph-name="quotesingle" unicode="'" horiz-adv-x="118" 
d="M98 760l-20 -222h-58v222h78z" />
    <glyph glyph-name="degree" unicode="&#xb0;" horiz-adv-x="335" 
d="M310 607c0 -79 -64 -143 -143 -143s-142 64 -142 143s63 143 142 143s143 -64 143 -143zM250 607c0 48 -37 85 -83 85c-45 0 -82 -37 -82 -85s37 -85 82 -85c46 0 83 37 83 85z" />
    <glyph glyph-name="perthousand" unicode="&#x2030;" horiz-adv-x="945" 
d="M910 169c0 -99 -17 -176 -113 -176c-97 0 -114 77 -114 176v108c0 100 17 175 114 175c96 0 113 -75 113 -175v-108zM841 169v108c0 84 -9 111 -44 111s-44 -27 -44 -111v-108c0 -84 9 -111 44 -111s44 27 44 111zM640 169c0 -99 -17 -176 -113 -176
c-97 0 -114 77 -114 176v108c0 100 17 175 114 175c96 0 113 -75 113 -175v-108zM571 169v108c0 84 -9 111 -44 111s-44 -27 -44 -111v-108c0 -84 9 -111 44 -111s44 27 44 111zM486 743l-230 -743h-66l230 743h66zM262 467c0 -99 -17 -176 -113 -176
c-97 0 -114 77 -114 176v108c0 100 17 175 114 175c96 0 113 -75 113 -175v-108zM193 467v108c0 84 -9 111 -44 111s-44 -27 -44 -111v-108c0 -84 9 -111 44 -111s44 27 44 111z" />
    <glyph glyph-name="afii61289" unicode="&#x2113;" horiz-adv-x="391" 
d="M356 40c-39 -39 -81 -59 -119 -59c-81 0 -115 54 -115 144v110c-17 -18 -35 -36 -53 -54l-34 45c32 33 61 64 87 92v277c0 119 33 169 114 169s111 -61 111 -123c0 -117 -60 -218 -149 -323v-180c0 -65 10 -92 51 -92c21 0 46 14 69 36zM288 641c0 41 -14 63 -41 63
c-45 0 -49 -35 -49 -109v-187c59 78 90 149 90 233z" />
    <glyph glyph-name="estimated" unicode="&#x212e;" horiz-adv-x="616" 
d="M582 282h-429v-193c42 -40 92 -63 152 -63c112 0 165 59 210 127l31 -19c-52 -81 -116 -141 -241 -141c-163 0 -271 133 -271 290c0 159 104 290 275 290c170 0 273 -134 273 -291zM462 315v163c-36 33 -95 62 -153 62c-60 0 -116 -21 -156 -62v-163h309z" />
    <glyph glyph-name="multiply" unicode="&#xd7;" horiz-adv-x="355" 
d="M313 300l-45 -44l-90 90l-90 -91l-45 45l90 91l-91 91l44 45l92 -91l90 90l45 -45l-90 -91z" />
    <glyph glyph-name="divide" unicode="&#xf7;" horiz-adv-x="355" 
d="M218 144h-78v122h78v-122zM308 358v67h-261v-67h261zM218 511h-78v122h78v-122z" />
    <glyph glyph-name="minus" unicode="&#x2212;" horiz-adv-x="355" 
d="M308 358h-261v67h261v-67z" />
    <glyph glyph-name="plusminus" unicode="&#xb1;" horiz-adv-x="355" 
d="M328 0h-302v67h302v-67zM337 360h-127v-128h-64v128h-129v63h129v128h64v-128h127v-63z" />
    <glyph glyph-name="notequal" unicode="&#x2260;" horiz-adv-x="355" 
d="M306 247h-129l-52 -247h-64l52 247h-64v67h79l33 156h-112v67h126l44 206h64l-44 -206h67v-67h-81l-33 -156h114v-67z" />
    <glyph glyph-name="lessequal" unicode="&#x2264;" horiz-adv-x="355" 
d="M328 0h-302v67h302v-67zM264 141h-80l-146 250l146 250h80l-145 -250z" />
    <glyph glyph-name="greaterequal" unicode="&#x2265;" horiz-adv-x="355" 
d="M328 0h-302v67h302v-67zM316 391l-146 -250h-80l145 250l-145 250h80z" />
    <glyph glyph-name="approxequal" unicode="&#x2248;" horiz-adv-x="355" 
d="M312 273c0 -57 -19 -95 -76 -95c-39 0 -60 18 -79 56l-8 16c-11 22 -17 31 -31 31c-10 0 -19 -8 -19 -36v-66h-57v66c0 56 23 95 76 95c39 0 59 -17 78 -55l8 -16c12 -25 19 -32 32 -32c12 0 19 8 19 36v66h57v-66zM312 523c0 -57 -19 -95 -76 -95c-39 0 -60 18 -79 56
l-8 16c-11 22 -17 31 -31 31c-10 0 -19 -8 -19 -36v-66h-57v66c0 56 23 95 76 95c39 0 59 -17 78 -55l8 -16c12 -25 19 -32 32 -32c12 0 19 8 19 36v66h57v-66z" />
    <glyph glyph-name="logicalnot" unicode="&#xac;" horiz-adv-x="355" 
d="M301 247h-69v223h-178v67h247v-290z" />
    <glyph glyph-name="brokenbar" unicode="&#xa6;" horiz-adv-x="146" 
d="M111 -196h-76v397h76v-397zM111 743v-397h-76v397h76z" />
    <glyph glyph-name="infinity" unicode="&#x221e;" horiz-adv-x="538" 
d="M478 361c0 -71 -7 -206 -126 -206h-6c-33 0 -66 15 -87 41c-17 -27 -41 -43 -78 -43h-6c-119 0 -126 136 -126 207v24c0 71 7 206 126 206h6c32 0 64 -15 85 -40c16 27 41 42 80 42h6c119 0 126 -136 126 -207v-24zM408 361v24c0 68 -6 137 -56 137h-6
c-41 -3 -44 -57 -50 -145c-4 -48 -9 -100 -16 -128c23 -22 50 -26 66 -26h6c49 0 56 70 56 138zM246 496c-23 22 -49 26 -65 26h-6c-49 0 -56 -70 -56 -138v-24c0 -68 6 -137 56 -137h6c32 0 41 40 51 162c3 43 7 80 14 111z" />
    <glyph glyph-name="partialdiff" unicode="&#x2202;" horiz-adv-x="365" 
d="M330 550c0 -68 -14 -194 -25 -281c-24 -195 -54 -276 -167 -276c-52 0 -103 27 -103 134c0 54 9 103 14 147c16 131 53 212 148 212c21 0 41 -5 58 -15c2 16 4 54 4 79c0 96 -22 164 -120 164c-7 0 -15 0 -23 -1v63c10 1 26 1 35 1c134 0 179 -100 179 -227zM237 351
c0 49 -14 63 -40 63c-48 0 -63 -65 -73 -151c-5 -42 -15 -95 -15 -137c0 -47 13 -61 39 -61c46 0 62 43 82 197c6 43 7 79 7 89z" />
    <glyph glyph-name="mu" unicode="&#xb5;" horiz-adv-x="362" 
d="M334 0h-106v31c-18 -18 -44 -38 -83 -38c-4 0 -8 0 -11 1v-124l30 -4v-69h-136v69l30 4v607l-30 5v68h106v-401c0 -72 2 -89 34 -89c16 0 36 10 60 31v386l-30 5v68h106v-477l30 -5v-68z" />
    <glyph glyph-name="Delta" unicode="&#x2206;" horiz-adv-x="347" 
d="M337 0h-327l107 743h112zM247 78l-58 444c-8 59 -10 106 -14 151h-2c-4 -45 -6 -91 -14 -151l-59 -444h147z" />
    <glyph glyph-name="Omega" unicode="&#x2126;" horiz-adv-x="376" 
d="M341 317c0 -99 -16 -189 -70 -234v-16h74v-67h-135v123c40 19 53 90 53 194v159c0 126 -4 200 -75 200s-75 -74 -75 -200v-159c0 -104 13 -175 53 -194v-123h-135v67h74v16c-54 45 -70 135 -70 234v159c0 143 13 274 153 274s153 -131 153 -274v-159z" />
    <glyph glyph-name="summation" unicode="&#x2211;" horiz-adv-x="313" 
d="M278 -20h-243v77l116 300l-116 310v76h243v-76h-165l107 -284v-54l-107 -272h165v-77z" />
    <glyph glyph-name="product" unicode="&#x220f;" horiz-adv-x="476" 
d="M441 667h-50v-687h-78v687h-150v-687h-78v687h-50v76h406v-76z" />
    <glyph glyph-name="integral" unicode="&#x222b;" horiz-adv-x="274" 
d="M244 699c-6 1 -26 3 -35 3c-28 0 -34 -7 -34 -65v-718c0 -94 -24 -130 -86 -130c-26 0 -48 8 -59 15v53c6 -1 26 -3 35 -3c28 0 34 7 34 65v718c0 94 24 130 86 130c26 0 48 -8 59 -15v-53z" />
    <glyph glyph-name="radical" unicode="&#x221a;" horiz-adv-x="602" 
d="M577 873l-218 -947h-110l-112 485h-112v68h170l109 -492l196 886h77z" />
    <glyph glyph-name="lozenge" unicode="&#x25ca;" horiz-adv-x="355" 
d="M357 357l-179 -293l-179 293l179 301zM274 357l-96 165l-96 -165l96 -161z" />
    <glyph glyph-name="uni00A0" unicode="&#xa0;" horiz-adv-x="132" 
 />
    <glyph glyph-name="Acute.sc" unicode="&#xe092;" horiz-adv-x="240" 
d="M215 750l-72 -152h-68l60 152h80z" />
    <glyph glyph-name="Breve.sc" unicode="&#xe082;" horiz-adv-x="240" 
d="M213 750c0 -83 0 -154 -93 -154s-93 71 -93 154h58c0 -83 0 -102 35 -102s35 19 35 102h58z" />
    <glyph glyph-name="Caron.sc" unicode="&#xe083;" horiz-adv-x="240" 
d="M240 750l-67 -152h-106l-67 152h65l55 -106l55 106h65z" />
    <glyph glyph-name="Cedilla.sc" unicode="&#xe093;" horiz-adv-x="240" 
d="M169 -56l-74 -147h-62l57 147h79z" />
    <glyph glyph-name="Circumflex.sc" unicode="&#xe084;" horiz-adv-x="240" 
d="M240 598h-65l-55 106l-55 -106h-65l67 152h106z" />
    <glyph glyph-name="commaaccent.sc" unicode="&#xe469;" horiz-adv-x="240" 
d="M173 -56l-61 -147h-66l37 147h90z" />
    <glyph glyph-name="Dieresis.sc" unicode="&#xe090;" horiz-adv-x="240" 
d="M224 627h-78v106h78v-106zM94 627v106h-78v-106h78z" />
    <glyph glyph-name="DieresisAcute.sc" unicode="&#xe467;" 
d="M277 817h-78v106h78v-106zM104 940h80l-72 -152h-68zM31 817h-78v106h78v-106z" />
    <glyph glyph-name="DieresisGrave.sc" unicode="&#xe468;" 
d="M277 817h-78v106h78v-106zM126 940l60 -152h-68l-72 152h80zM31 817h-78v106h78v-106z" />
    <glyph glyph-name="Dotaccent.sc" unicode="&#xe085;" horiz-adv-x="240" 
d="M159 654h-78v106h78v-106z" />
    <glyph glyph-name="Hungarumlaut.sc" unicode="&#xe086;" horiz-adv-x="240" 
d="M280 750l-72 -152h-68l60 152h80zM160 750l-72 -152h-68l60 152h80z" />
    <glyph glyph-name="Grave.sc" unicode="&#xe08e;" horiz-adv-x="240" 
d="M155 598h-68l-72 152h80z" />
    <glyph glyph-name="dblGrave.sc" unicode="&#xe46a;" horiz-adv-x="240" 
d="M220 598h-68l-72 152h80zM100 598l-60 152h-80l72 -152h68z" />
    <glyph glyph-name="Macron.sc" unicode="&#xe091;" horiz-adv-x="240" 
d="M219 651h-198v62h198v-62z" />
    <glyph glyph-name="Ogonek.sc" unicode="&#xe087;" 
d="M119 0h67c-57 -56 -75 -84 -75 -124c0 -19 8 -34 39 -34c11 0 24 1 36 2v-47c-19 -6 -35 -8 -53 -8c-65 0 -90 37 -90 87c0 39 23 80 76 124z" />
    <glyph glyph-name="Ring.sc" unicode="&#xe088;" horiz-adv-x="240" 
d="M213 707c0 -81 -38 -111 -93 -111s-93 30 -93 111c0 82 38 112 93 112s93 -30 93 -112zM155 707c0 53 -16 60 -35 60s-35 -7 -35 -60c0 -52 16 -59 35 -59s35 7 35 59z" />
    <glyph glyph-name="Tilde.sc" unicode="&#xe089;" horiz-adv-x="240" 
d="M255 692c0 -57 -19 -95 -76 -95c-39 0 -60 18 -79 56l-8 16c-11 22 -17 31 -31 31c-10 0 -19 -8 -19 -36v-66h-57v66c0 56 23 95 76 95c39 0 59 -17 78 -55l8 -16c12 -25 19 -32 32 -32c12 0 19 8 19 36v66h57v-66z" />
    <glyph glyph-name="middot" unicode="&#x387;" horiz-adv-x="135" 
d="M105 272h-75v133h75v-133z" />
    <glyph glyph-name="A.sc" unicode="&#xe000;" horiz-adv-x="327" 
d="M307 0h-113v57l19 3l-15 112h-69l-15 -112l19 -3v-57h-113v58l22 4l60 426l-23 3v59h136l69 -488l23 -4v-58zM191 238l-17 142c-5 41 -7 74 -10 106h-1c-3 -32 -5 -64 -10 -106l-17 -142h55z" />
    <glyph glyph-name="Aacute.sc" unicode="&#xe002;" horiz-adv-x="327" 
d="M307 0h-113v57l19 3l-15 112h-69l-15 -112l19 -3v-57h-113v58l22 4l60 426l-23 3v59h136l69 -488l23 -4v-58zM191 238l-17 142c-5 41 -7 74 -10 106h-1c-3 -32 -5 -64 -10 -106l-17 -142h55zM257 750l-72 -152h-68l60 152h80z" />
    <glyph glyph-name="Abreve.sc" unicode="&#xe040;" horiz-adv-x="327" 
d="M307 0h-113v57l19 3l-15 112h-69l-15 -112l19 -3v-57h-113v58l22 4l60 426l-23 3v59h136l69 -488l23 -4v-58zM191 238l-17 142c-5 41 -7 74 -10 106h-1c-3 -32 -5 -64 -10 -106l-17 -142h55zM248 750c0 -83 0 -154 -93 -154s-93 71 -93 154h58c0 -83 0 -102 35 -102
s35 19 35 102h58z" />
    <glyph glyph-name="Acircumflex.sc" unicode="&#xe003;" horiz-adv-x="327" 
d="M307 0h-113v57l19 3l-15 112h-69l-15 -112l19 -3v-57h-113v58l22 4l60 426l-23 3v59h136l69 -488l23 -4v-58zM191 238l-17 142c-5 41 -7 74 -10 106h-1c-3 -32 -5 -64 -10 -106l-17 -142h55zM275 598h-65l-55 106l-55 -106h-65l67 152h106z" />
    <glyph glyph-name="Adieresis.sc" unicode="&#xe004;" horiz-adv-x="327" 
d="M307 0h-113v57l19 3l-15 112h-69l-15 -112l19 -3v-57h-113v58l22 4l60 426l-23 3v59h136l69 -488l23 -4v-58zM191 238l-17 142c-5 41 -7 74 -10 106h-1c-3 -32 -5 -64 -10 -106l-17 -142h55zM261 620h-78v106h78v-106zM131 620v106h-78v-106h78z" />
    <glyph glyph-name="Agrave.sc" unicode="&#xe005;" horiz-adv-x="327" 
d="M307 0h-113v57l19 3l-15 112h-69l-15 -112l19 -3v-57h-113v58l22 4l60 426l-23 3v59h136l69 -488l23 -4v-58zM191 238l-17 142c-5 41 -7 74 -10 106h-1c-3 -32 -5 -64 -10 -106l-17 -142h55zM196 598h-68l-72 152h80z" />
    <glyph glyph-name="Amacron.sc" unicode="&#xe041;" horiz-adv-x="327" 
d="M307 0h-113v57l19 3l-15 112h-69l-15 -112l19 -3v-57h-113v58l22 4l60 426l-23 3v59h136l69 -488l23 -4v-58zM191 238l-17 142c-5 41 -7 74 -10 106h-1c-3 -32 -5 -64 -10 -106l-17 -142h55zM254 621h-198v62h198v-62z" />
    <glyph glyph-name="Aogonek.sc" unicode="&#xe042;" horiz-adv-x="327" 
d="M240 0h-46v57l19 3l-15 112h-69l-15 -112l19 -3v-57h-113v58l22 4l60 426l-23 3v59h136l69 -488l23 -4v-58c-57 -56 -75 -84 -75 -124c0 -19 8 -34 39 -34c11 0 24 1 36 2v-47c-19 -6 -35 -8 -53 -8c-65 0 -90 37 -90 87c0 39 23 80 76 124zM191 238l-17 142
c-5 41 -7 74 -10 106h-1c-3 -32 -5 -64 -10 -106l-17 -142h55z" />
    <glyph glyph-name="Aring.sc" unicode="&#xe006;" horiz-adv-x="327" 
d="M307 0h-113v57l19 3l-15 112h-69l-15 -112l19 -3v-57h-113v58l22 4l60 426l-23 3v59h136l69 -488l23 -4v-58zM191 238l-17 142c-5 41 -7 74 -10 106h-1c-3 -32 -5 -64 -10 -106l-17 -142h55zM248 707c0 -81 -38 -111 -93 -111s-93 30 -93 111c0 82 38 112 93 112
s93 -30 93 -112zM190 707c0 53 -16 60 -35 60s-35 -7 -35 -60c0 -52 16 -59 35 -59s35 7 35 59z" />
    <glyph glyph-name="Atilde.sc" unicode="&#xe007;" horiz-adv-x="327" 
d="M307 0h-113v57l19 3l-15 112h-69l-15 -112l19 -3v-57h-113v58l22 4l60 426l-23 3v59h136l69 -488l23 -4v-58zM191 238l-17 142c-5 41 -7 74 -10 106h-1c-3 -32 -5 -64 -10 -106l-17 -142h55zM288 692c0 -57 -19 -95 -76 -95c-39 0 -60 18 -79 56l-8 16
c-11 22 -17 31 -31 31c-10 0 -19 -8 -19 -36v-66h-57v66c0 56 23 95 76 95c39 0 59 -17 78 -55l8 -16c12 -25 19 -32 32 -32c12 0 19 8 19 36v66h57v-66z" />
    <glyph glyph-name="AE.sc" unicode="&#xe001;" horiz-adv-x="403" 
d="M373 550v-96h-49l-8 30h-65v-166h115v-66h-115v-186h65l8 33h49v-99h-214v58l22 3v110h-62l-22 -171h-87v58l22 4l61 426l-24 3v59h304zM126 236h55v251h-22c-3 -28 -8 -59 -12 -89z" />
    <glyph glyph-name="AEacute.sc" unicode="&#xe043;" horiz-adv-x="403" 
d="M373 550v-96h-49l-8 30h-65v-166h115v-66h-115v-186h65l8 33h49v-99h-214v58l22 3v110h-62l-22 -171h-87v58l22 4l61 426l-24 3v59h304zM126 236h55v251h-22c-3 -28 -8 -59 -12 -89zM317 750l-72 -152h-68l60 152h80z" />
    <glyph glyph-name="B.sc" unicode="&#xe008;" horiz-adv-x="306" 
d="M276 153c0 -124 -55 -154 -130 -154c-38 0 -75 0 -116 1v58l22 4v426l-22 3v59c38 1 75 1 115 1c74 0 129 -27 129 -141v-11c0 -53 -17 -95 -45 -116c31 -21 47 -66 47 -117v-13zM206 153v13c0 57 -9 90 -49 90h-34v-193h25c37 0 58 15 58 90zM205 398v12
c0 67 -22 78 -58 78h-24v-174h34c40 0 48 32 48 84z" />
    <glyph glyph-name="C.sc" unicode="&#xe009;" horiz-adv-x="266" 
d="M236 9c-12 -5 -46 -15 -77 -15c-68 0 -129 16 -129 201v160c0 185 61 201 129 201c31 0 65 -11 77 -15v-87h-50l-7 33c-6 0 -12 1 -16 1c-38 0 -62 -8 -62 -133v-160c0 -125 24 -133 62 -133c4 0 10 0 16 1l7 36h50v-90z" />
    <glyph glyph-name="Cacute.sc" unicode="&#xe044;" horiz-adv-x="266" 
d="M236 9c-12 -5 -46 -15 -77 -15c-68 0 -129 16 -129 201v160c0 185 61 201 129 201c31 0 65 -11 77 -15v-87h-50l-7 33c-6 0 -12 1 -16 1c-38 0 -62 -8 -62 -133v-160c0 -125 24 -133 62 -133c4 0 10 0 16 1l7 36h50v-90zM235 750l-72 -152h-68l60 152h80z" />
    <glyph glyph-name="Ccaron.sc" unicode="&#xe045;" horiz-adv-x="266" 
d="M236 9c-12 -5 -46 -15 -77 -15c-68 0 -129 16 -129 201v160c0 185 61 201 129 201c31 0 65 -11 77 -15v-87h-50l-7 33c-6 0 -12 1 -16 1c-38 0 -62 -8 -62 -133v-160c0 -125 24 -133 62 -133c4 0 10 0 16 1l7 36h50v-90zM260 750l-67 -152h-106l-67 152h65l55 -106
l55 106h65z" />
    <glyph glyph-name="Ccedilla.sc" unicode="&#xe00a;" horiz-adv-x="266" 
d="M236 9c-12 -5 -46 -15 -77 -15c-68 0 -129 16 -129 201v160c0 185 61 201 129 201c31 0 65 -11 77 -15v-87h-50l-7 33c-6 0 -12 1 -16 1c-38 0 -62 -8 -62 -133v-160c0 -125 24 -133 62 -133c4 0 10 0 16 1l7 36h50v-90zM198 -56l-74 -147h-62l57 147h79z" />
    <glyph glyph-name="Ccircumflex.sc" unicode="&#xe046;" horiz-adv-x="266" 
d="M236 9c-12 -5 -46 -15 -77 -15c-68 0 -129 16 -129 201v160c0 185 61 201 129 201c31 0 65 -11 77 -15v-87h-50l-7 33c-6 0 -12 1 -16 1c-38 0 -62 -8 -62 -133v-160c0 -125 24 -133 62 -133c4 0 10 0 16 1l7 36h50v-90zM261 598h-65l-55 106l-55 -106h-65l67 152h106z
" />
    <glyph glyph-name="Cdotaccent.sc" unicode="&#xe047;" horiz-adv-x="266" 
d="M236 9c-12 -5 -46 -15 -77 -15c-68 0 -129 16 -129 201v160c0 185 61 201 129 201c31 0 65 -11 77 -15v-87h-50l-7 33c-6 0 -12 1 -16 1c-38 0 -62 -8 -62 -133v-160c0 -125 24 -133 62 -133c4 0 10 0 16 1l7 36h50v-90zM181 620h-78v106h78v-106z" />
    <glyph glyph-name="D.sc" unicode="&#xe00b;" horiz-adv-x="314" 
d="M284 199c0 -108 -10 -200 -144 -200c-37 0 -74 0 -110 1v58l22 4v426l-22 3v59c36 1 73 1 110 1c134 0 144 -90 144 -197v-155zM212 199v155c0 94 -3 131 -69 131h-20v-421h20c66 0 69 41 69 135z" />
    <glyph glyph-name="Dcaron.sc" unicode="&#xe048;" horiz-adv-x="314" 
d="M284 199c0 -108 -10 -200 -144 -200c-37 0 -74 0 -110 1v58l22 4v426l-22 3v59c36 1 73 1 110 1c134 0 144 -90 144 -197v-155zM212 199v155c0 94 -3 131 -69 131h-20v-421h20c66 0 69 41 69 135zM273 750l-67 -152h-106l-67 152h65l55 -106l55 106h65z" />
    <glyph glyph-name="Dcroat.sc" unicode="&#xe049;" horiz-adv-x="314" 
d="M284 199c0 -108 -10 -200 -144 -200c-37 0 -74 0 -110 1v58l22 4v189h-34v67h34v170l-22 3v59c36 1 73 1 110 1c134 0 144 -90 144 -197v-155zM212 199v155c0 94 -1 131 -73 131h-16v-167h45v-67h-45v-187h20c66 0 69 41 69 135z" />
    <glyph glyph-name="Eth.sc" unicode="&#xe00c;" horiz-adv-x="314" 
d="M284 199c0 -108 -10 -200 -144 -200c-37 0 -74 0 -110 1v58l22 4v189h-34v67h34v170l-22 3v59c36 1 73 1 110 1c134 0 144 -90 144 -197v-155zM212 199v155c0 94 -1 131 -73 131h-16v-167h45v-67h-45v-187h20c66 0 69 41 69 135z" />
    <glyph glyph-name="E.sc" unicode="&#xe00d;" horiz-adv-x="274" 
d="M244 0h-214v58l22 3v427l-22 3v59h214v-96h-50l-7 30h-65v-166h115v-66h-115v-186h65l7 33h50v-99z" />
    <glyph glyph-name="Eacute.sc" unicode="&#xe00e;" horiz-adv-x="274" 
d="M244 0h-214v58l22 3v427l-22 3v59h214v-96h-50l-7 30h-65v-166h115v-66h-115v-186h65l7 33h50v-99zM232 750l-72 -152h-68l60 152h80z" />
    <glyph glyph-name="Ebreve.sc" unicode="&#xe04a;" horiz-adv-x="274" 
d="M244 0h-214v58l22 3v427l-22 3v59h214v-96h-50l-7 30h-65v-166h115v-66h-115v-186h65l7 33h50v-99zM230 750c0 -83 0 -154 -93 -154s-93 71 -93 154h58c0 -83 0 -102 35 -102s35 19 35 102h58z" />
    <glyph glyph-name="Ecaron.sc" unicode="&#xe04b;" horiz-adv-x="274" 
d="M244 0h-214v58l22 3v427l-22 3v59h214v-96h-50l-7 30h-65v-166h115v-66h-115v-186h65l7 33h50v-99zM258 750l-67 -152h-106l-67 152h65l55 -106l55 106h65z" />
    <glyph glyph-name="Ecircumflex.sc" unicode="&#xe00f;" horiz-adv-x="274" 
d="M244 0h-214v58l22 3v427l-22 3v59h214v-96h-50l-7 30h-65v-166h115v-66h-115v-186h65l7 33h50v-99zM256 598h-65l-55 106l-55 -106h-65l67 152h106z" />
    <glyph glyph-name="Edieresis.sc" unicode="&#xe010;" horiz-adv-x="274" 
d="M244 0h-214v58l22 3v427l-22 3v59h214v-96h-50l-7 30h-65v-166h115v-66h-115v-186h65l7 33h50v-99zM237 620h-78v106h78v-106zM107 620v106h-78v-106h78z" />
    <glyph glyph-name="Edotaccent.sc" unicode="&#xe04c;" horiz-adv-x="274" 
d="M244 0h-214v58l22 3v427l-22 3v59h214v-96h-50l-7 30h-65v-166h115v-66h-115v-186h65l7 33h50v-99zM176 620h-78v106h78v-106z" />
    <glyph glyph-name="Egrave.sc" unicode="&#xe011;" horiz-adv-x="274" 
d="M244 0h-214v58l22 3v427l-22 3v59h214v-96h-50l-7 30h-65v-166h115v-66h-115v-186h65l7 33h50v-99zM184 598h-68l-72 152h80z" />
    <glyph glyph-name="Emacron.sc" unicode="&#xe04d;" horiz-adv-x="274" 
d="M244 0h-214v58l22 3v427l-22 3v59h214v-96h-50l-7 30h-65v-166h115v-66h-115v-186h65l7 33h50v-99zM235 621h-198v62h198v-62z" />
    <glyph glyph-name="Eogonek.sc" unicode="&#xe04f;" horiz-adv-x="274" 
d="M177 0h-147v58l22 3v427l-22 3v59h214v-96h-50l-7 30h-65v-166h115v-66h-115v-186h65l7 33h50v-99c-57 -56 -75 -84 -75 -124c0 -19 8 -34 39 -34c11 0 24 1 36 2v-47c-19 -6 -35 -8 -53 -8c-65 0 -90 37 -90 87c0 39 23 80 76 124z" />
    <glyph glyph-name="F.sc" unicode="&#xe012;" horiz-adv-x="270" 
d="M239 252h-116v-190l22 -4v-58h-115v58l22 4v426l-22 3v59h215v-96h-51l-6 30h-65v-166h116v-66z" />
    <glyph glyph-name="G.sc" unicode="&#xe013;" horiz-adv-x="282" 
d="M252 9c-13 -5 -57 -15 -93 -15c-69 0 -129 21 -129 197v169c0 180 68 196 130 196c41 0 81 -13 90 -17v-85h-50l-7 32c-8 1 -14 2 -19 2c-48 0 -73 -3 -73 -128v-169c0 -123 21 -129 66 -129c4 0 6 0 14 1v161l-35 4v56h106v-275z" />
    <glyph glyph-name="Gbreve.sc" unicode="&#xe050;" horiz-adv-x="282" 
d="M252 9c-13 -5 -57 -15 -93 -15c-69 0 -129 21 -129 197v169c0 180 68 196 130 196c41 0 81 -13 90 -17v-85h-50l-7 32c-8 1 -14 2 -19 2c-48 0 -73 -3 -73 -128v-169c0 -123 21 -129 66 -129c4 0 6 0 14 1v161l-35 4v56h106v-275zM248 750c0 -83 0 -154 -93 -154
s-93 71 -93 154h58c0 -83 0 -102 35 -102s35 19 35 102h58z" />
    <glyph glyph-name="Gcircumflex.sc" unicode="&#xe051;" horiz-adv-x="282" 
d="M252 9c-13 -5 -57 -15 -93 -15c-69 0 -129 21 -129 197v169c0 180 68 196 130 196c41 0 81 -13 90 -17v-85h-50l-7 32c-8 1 -14 2 -19 2c-48 0 -73 -3 -73 -128v-169c0 -123 21 -129 66 -129c4 0 6 0 14 1v161l-35 4v56h106v-275zM273 598h-65l-55 106l-55 -106h-65
l67 152h106z" />
    <glyph glyph-name="Gcommaaccent.sc" unicode="&#xe052;" horiz-adv-x="282" 
d="M252 9c-13 -5 -57 -15 -93 -15c-69 0 -129 21 -129 197v169c0 180 68 196 130 196c41 0 81 -13 90 -17v-85h-50l-7 32c-8 1 -14 2 -19 2c-48 0 -73 -3 -73 -128v-169c0 -123 21 -129 66 -129c4 0 6 0 14 1v161l-35 4v56h106v-275zM209 -56l-61 -147h-66l37 147h90z" />
    <glyph glyph-name="Gdotaccent.sc" unicode="&#xe053;" horiz-adv-x="282" 
d="M252 9c-13 -5 -57 -15 -93 -15c-69 0 -129 21 -129 197v169c0 180 68 196 130 196c41 0 81 -13 90 -17v-85h-50l-7 32c-8 1 -14 2 -19 2c-48 0 -73 -3 -73 -128v-169c0 -123 21 -129 66 -129c4 0 6 0 14 1v161l-35 4v56h106v-275zM192 621h-78v106h78v-106z" />
    <glyph glyph-name="H.sc" unicode="&#xe014;" horiz-adv-x="354" 
d="M322 0h-115v58l22 4v190h-104v-190l22 -4v-58h-115v58l22 4v426l-22 4v58h115v-58l-22 -4v-170h104v170l-22 4v58h115v-58l-22 -4v-426l22 -4v-58z" />
    <glyph glyph-name="Hbar.sc" unicode="&#xe054;" horiz-adv-x="354" 
d="M322 0h-115v58l22 4v190h-104v-190l22 -4v-58h-115v58l22 4v318h-34v62h34v46l-22 4v58h115v-58l-22 -4v-46h104v46l-22 4v58h115v-58l-22 -4v-46h34v-62h-34v-318l22 -4v-58zM229 318v62h-104v-62h104z" />
    <glyph glyph-name="Hcircumflex.sc" unicode="&#xe055;" horiz-adv-x="354" 
d="M322 0h-115v58l22 4v190h-104v-190l22 -4v-58h-115v58l22 4v426l-22 4v58h115v-58l-22 -4v-170h104v170l-22 4v58h115v-58l-22 -4v-426l22 -4v-58zM296 598h-65l-55 106l-55 -106h-65l67 152h106z" />
    <glyph glyph-name="I.sc" unicode="&#xe015;" horiz-adv-x="177" 
d="M146 0h-116v58l23 4v426l-23 3v59h116v-59l-22 -3v-426l22 -4v-58z" />
    <glyph glyph-name="Iacute.sc" unicode="&#xe016;" horiz-adv-x="177" 
d="M146 0h-116v58l23 4v426l-23 3v59h116v-59l-22 -3v-426l22 -4v-58zM189 750l-72 -152h-68l60 152h80z" />
    <glyph glyph-name="Ibreve.sc" unicode="&#xe056;" horiz-adv-x="177" 
d="M146 0h-116v58l23 4v426l-23 3v59h116v-59l-22 -3v-426l22 -4v-58zM180 750c0 -83 0 -154 -93 -154s-93 71 -93 154h58c0 -83 0 -102 35 -102s35 19 35 102h58z" />
    <glyph glyph-name="Icircumflex.sc" unicode="&#xe017;" horiz-adv-x="177" 
d="M146 0h-116v58l23 4v426l-23 3v59h116v-59l-22 -3v-426l22 -4v-58zM207 598h-65l-55 106l-55 -106h-65l67 152h106z" />
    <glyph glyph-name="Idieresis.sc" unicode="&#xe018;" horiz-adv-x="177" 
d="M146 0h-116v58l23 4v426l-23 3v59h116v-59l-22 -3v-426l22 -4v-58zM192 621h-78v106h78v-106zM62 621v106h-78v-106h78z" />
    <glyph glyph-name="Idotaccent.sc" unicode="&#xe081;" horiz-adv-x="177" 
d="M146 0h-116v58l23 4v426l-23 3v59h116v-59l-22 -3v-426l22 -4v-58zM127 620h-78v106h78v-106z" />
    <glyph glyph-name="Igrave.sc" unicode="&#xe019;" horiz-adv-x="177" 
d="M146 0h-116v58l23 4v426l-23 3v59h116v-59l-22 -3v-426l22 -4v-58zM133 598h-68l-72 152h80z" />
    <glyph glyph-name="Imacron.sc" unicode="&#xe059;" horiz-adv-x="177" 
d="M146 0h-116v58l23 4v426l-23 3v59h116v-59l-22 -3v-426l22 -4v-58zM182 621h-198v62h198v-62z" />
    <glyph glyph-name="Iogonek.sc" unicode="&#xe05a;" horiz-adv-x="177" 
d="M146 0c-57 -56 -67 -84 -67 -124c0 -19 8 -34 39 -34c11 0 24 1 36 2v-47c-19 -6 -35 -8 -53 -8c-65 0 -90 37 -90 87c0 39 16 81 68 124h-49v58l23 4v426l-23 3v59h116v-59l-22 -3v-426l22 -4v-58z" />
    <glyph glyph-name="Itilde.sc" unicode="&#xe05b;" horiz-adv-x="177" 
d="M146 0h-116v58l23 4v426l-23 3v59h116v-59l-22 -3v-426l22 -4v-58zM223 692c0 -57 -19 -95 -76 -95c-39 0 -60 18 -79 56l-8 16c-11 22 -17 31 -31 31c-10 0 -19 -8 -19 -36v-66h-57v66c0 56 23 95 76 95c39 0 59 -17 78 -55l8 -16c12 -25 19 -32 32 -32c12 0 19 8 19 36
v66h57v-66z" />
    <glyph glyph-name="IJ.sc" unicode="&#xe058;" horiz-adv-x="331" 
d="M301 491l-22 -3v-559c0 -64 -26 -83 -71 -83c-16 0 -35 4 -50 9v52h35c13 0 15 4 15 22v559l-22 3v59h115v-59zM146 0h-116v58l23 4v426l-23 3v59h116v-59l-22 -3v-426l22 -4v-58z" />
    <glyph glyph-name="J.sc" unicode="&#xe01a;" horiz-adv-x="176" 
d="M146 491l-22 -3v-559c0 -64 -26 -83 -71 -83c-16 0 -35 4 -50 9v52h35c13 0 15 4 15 22v559l-22 3v59h115v-59z" />
    <glyph glyph-name="Jcircumflex.sc" unicode="&#xe05c;" horiz-adv-x="176" 
d="M146 491l-22 -3v-559c0 -64 -26 -83 -71 -83c-16 0 -35 4 -50 9v52h35c13 0 15 4 15 22v559l-22 3v59h115v-59zM207 598h-65l-55 106l-55 -106h-65l67 152h106z" />
    <glyph glyph-name="K.sc" unicode="&#xe01b;" horiz-adv-x="313" 
d="M288 0h-87l-79 257v-195l22 -4v-58h-115v58l23 4v426l-22 3v59h114v-58l-22 -4v-192l83 254h83v-59l-27 -3l-73 -209l73 -217l27 -4v-58z" />
    <glyph glyph-name="Kcommaaccent.sc" unicode="&#xe05d;" horiz-adv-x="313" 
d="M288 0h-87l-79 257v-195l22 -4v-58h-115v58l23 4v426l-22 3v59h114v-58l-22 -4v-192l83 254h83v-59l-27 -3l-73 -209l73 -217l27 -4v-58zM201 -56l-61 -147h-66l37 147h90z" />
    <glyph glyph-name="L.sc" unicode="&#xe01c;" horiz-adv-x="256" 
d="M231 0h-201v58l22 3v427l-22 3v59h114v-59l-22 -3v-422h51l7 33h51v-99z" />
    <glyph glyph-name="Lacute.sc" unicode="&#xe05e;" horiz-adv-x="256" 
d="M231 0h-201v58l22 3v427l-22 3v59h114v-59l-22 -3v-422h51l7 33h51v-99zM232 750l-72 -152h-68l60 152h80z" />
    <glyph glyph-name="Lcaron.sc" unicode="&#xe05f;" horiz-adv-x="300" 
d="M231 0h-201v58l22 3v427l-22 3v59h114v-59l-22 -3v-422h51l7 33h51v-99zM275 550l-39 -222h-61l22 222h78z" />
    <glyph glyph-name="Lcommaaccent.sc" unicode="&#xe060;" horiz-adv-x="256" 
d="M184 -56l-61 -147h-66l37 147h90zM231 0h-201v58l22 3v427l-22 3v59h114v-59l-22 -3v-422h51l7 33h51v-99z" />
    <glyph glyph-name="Ldot.sc" unicode="&#xe061;" horiz-adv-x="280" 
d="M231 0h-201v58l22 3v427l-22 3v59h114v-59l-22 -3v-422h51l7 33h51v-99zM255 244h-78v106h78v-106z" />
    <glyph glyph-name="Lslash.sc" unicode="&#xe01d;" horiz-adv-x="258" 
d="M233 0h-201v58l22 3v123l-29 -37v96l29 37v208l-22 3v59h114v-59l-22 -3v-119l58 75v-96l-58 -75v-207h51l7 33h51v-99z" />
    <glyph glyph-name="M.sc" unicode="&#xe01e;" horiz-adv-x="384" 
d="M354 0h-113v56l22 4v272c0 43 3 82 6 121h-1c-6 -33 -12 -66 -17 -96l-23 -134h-72l-24 134c-6 31 -12 65 -17 96h-1c3 -39 6 -77 6 -121v-272l22 -4v-56h-112v58l22 3v427l-22 3v59h110l40 -196c5 -23 8 -48 11 -73h1c4 25 7 50 12 73l39 196h111v-59l-22 -3v-426l22 -4
v-58z" />
    <glyph glyph-name="N.sc" unicode="&#xe01f;" horiz-adv-x="347" 
d="M317 491l-23 -3v-488h-85l-81 365c-5 23 -9 44 -15 78h-1c3 -35 5 -65 5 -100v-282l22 -4v-57h-109v58l22 3v427l-22 3v59h110l77 -343c5 -22 12 -52 17 -80h1c-4 42 -7 77 -7 106v254l-22 4v59h111v-59z" />
    <glyph glyph-name="Nacute.sc" unicode="&#xe062;" horiz-adv-x="347" 
d="M317 491l-23 -3v-488h-85l-81 365c-5 23 -9 44 -15 78h-1c3 -35 5 -65 5 -100v-282l22 -4v-57h-109v58l22 3v427l-22 3v59h110l77 -343c5 -22 12 -52 17 -80h1c-4 42 -7 77 -7 106v254l-22 4v59h111v-59zM269 750l-72 -152h-68l60 152h80z" />
    <glyph glyph-name="Ncaron.sc" unicode="&#xe063;" horiz-adv-x="347" 
d="M317 491l-23 -3v-488h-85l-81 365c-5 23 -9 44 -15 78h-1c3 -35 5 -65 5 -100v-282l22 -4v-57h-109v58l22 3v427l-22 3v59h110l77 -343c5 -22 12 -52 17 -80h1c-4 42 -7 77 -7 106v254l-22 4v59h111v-59zM290 750l-67 -152h-106l-67 152h65l55 -106l55 106h65z" />
    <glyph glyph-name="Ncommaaccent.sc" unicode="&#xe064;" horiz-adv-x="347" 
d="M317 491l-23 -3v-488h-85l-81 365c-5 23 -9 44 -15 78h-1c3 -35 5 -65 5 -100v-282l22 -4v-57h-109v58l22 3v427l-22 3v59h110l77 -343c5 -22 12 -52 17 -80h1c-4 42 -7 77 -7 106v254l-22 4v59h111v-59zM221 -56l-61 -147h-66l37 147h90z" />
    <glyph glyph-name="Ntilde.sc" unicode="&#xe020;" horiz-adv-x="347" 
d="M317 491l-23 -3v-488h-85l-81 365c-5 23 -9 44 -15 78h-1c3 -35 5 -65 5 -100v-282l22 -4v-57h-109v58l22 3v427l-22 3v59h110l77 -343c5 -22 12 -52 17 -80h1c-4 42 -7 77 -7 106v254l-22 4v59h111v-59zM311 692c0 -57 -19 -95 -76 -95c-39 0 -60 18 -79 56l-8 16
c-11 22 -17 31 -31 31c-10 0 -19 -8 -19 -36v-66h-57v66c0 56 23 95 76 95c39 0 59 -17 78 -55l8 -16c12 -25 19 -32 32 -32c12 0 19 8 19 36v66h57v-66z" />
    <glyph glyph-name="Eng.sc" unicode="&#xe04e;" horiz-adv-x="347" 
d="M317 491l-23 -3v-559c0 -64 -26 -83 -71 -83c-16 0 -35 4 -50 9v52h35c13 0 20 4 20 22v71l-100 365c-5 23 -9 44 -15 78h-1c3 -35 5 -65 5 -100v-282l22 -4v-57h-109v58l22 3v427l-22 3v59h104l76 -288c5 -17 15 -59 24 -118h1c-3 49 -7 80 -7 123v220l-22 4v59h111v-59
z" />
    <glyph glyph-name="O.sc" unicode="&#xe021;" horiz-adv-x="304" 
d="M274 205c0 -124 -20 -211 -122 -211s-122 87 -122 211v140c0 124 21 211 122 211s122 -87 122 -211v-140zM203 206v138c0 96 -3 144 -51 144s-51 -48 -51 -144v-138c0 -96 3 -145 51 -145s51 49 51 145z" />
    <glyph glyph-name="Oacute.sc" unicode="&#xe023;" horiz-adv-x="304" 
d="M274 205c0 -124 -20 -211 -122 -211s-122 87 -122 211v140c0 124 21 211 122 211s122 -87 122 -211v-140zM203 206v138c0 96 -3 144 -51 144s-51 -48 -51 -144v-138c0 -96 3 -145 51 -145s51 49 51 145zM251 750l-72 -152h-68l60 152h80z" />
    <glyph glyph-name="Obreve.sc" unicode="&#xe065;" horiz-adv-x="304" 
d="M274 205c0 -124 -20 -211 -122 -211s-122 87 -122 211v140c0 124 21 211 122 211s122 -87 122 -211v-140zM203 206v138c0 96 -3 144 -51 144s-51 -48 -51 -144v-138c0 -96 3 -145 51 -145s51 49 51 145zM240 750c0 -83 0 -154 -93 -154s-93 71 -93 154h58
c0 -83 0 -102 35 -102s35 19 35 102h58z" />
    <glyph glyph-name="Ocircumflex.sc" unicode="&#xe024;" horiz-adv-x="304" 
d="M274 205c0 -124 -20 -211 -122 -211s-122 87 -122 211v140c0 124 21 211 122 211s122 -87 122 -211v-140zM203 206v138c0 96 -3 144 -51 144s-51 -48 -51 -144v-138c0 -96 3 -145 51 -145s51 49 51 145zM267 598h-65l-55 106l-55 -106h-65l67 152h106z" />
    <glyph glyph-name="Odieresis.sc" unicode="&#xe025;" horiz-adv-x="304" 
d="M274 205c0 -124 -20 -211 -122 -211s-122 87 -122 211v140c0 124 21 211 122 211s122 -87 122 -211v-140zM203 206v138c0 96 -3 144 -51 144s-51 -48 -51 -144v-138c0 -96 3 -145 51 -145s51 49 51 145zM249 621h-78v106h78v-106zM119 621v106h-78v-106h78z" />
    <glyph glyph-name="Ograve.sc" unicode="&#xe026;" horiz-adv-x="304" 
d="M274 205c0 -124 -20 -211 -122 -211s-122 87 -122 211v140c0 124 21 211 122 211s122 -87 122 -211v-140zM203 206v138c0 96 -3 144 -51 144s-51 -48 -51 -144v-138c0 -96 3 -145 51 -145s51 49 51 145zM202 598h-68l-72 152h80z" />
    <glyph glyph-name="Ohungarumlaut.sc" unicode="&#xe066;" horiz-adv-x="304" 
d="M274 205c0 -124 -20 -211 -122 -211s-122 87 -122 211v140c0 124 21 211 122 211s122 -87 122 -211v-140zM203 206v138c0 96 -3 144 -51 144s-51 -48 -51 -144v-138c0 -96 3 -145 51 -145s51 49 51 145zM313 750l-72 -152h-68l60 152h80zM193 750h-80l-60 -152h68z" />
    <glyph glyph-name="Omacron.sc" unicode="&#xe067;" horiz-adv-x="304" 
d="M274 205c0 -124 -20 -211 -122 -211s-122 87 -122 211v140c0 124 21 211 122 211s122 -87 122 -211v-140zM203 206v138c0 96 -3 144 -51 144s-51 -48 -51 -144v-138c0 -96 3 -145 51 -145s51 49 51 145zM246 620h-198v62h198v-62z" />
    <glyph glyph-name="Otilde.sc" unicode="&#xe028;" horiz-adv-x="304" 
d="M274 205c0 -124 -20 -211 -122 -211s-122 87 -122 211v140c0 124 21 211 122 211s122 -87 122 -211v-140zM203 206v138c0 96 -3 144 -51 144s-51 -48 -51 -144v-138c0 -96 3 -145 51 -145s51 49 51 145zM291 692c0 -57 -19 -95 -76 -95c-39 0 -60 18 -79 56l-8 16
c-11 22 -17 31 -31 31c-10 0 -19 -8 -19 -36v-66h-57v66c0 56 23 95 76 95c39 0 59 -17 78 -55l8 -16c12 -25 19 -32 32 -32c12 0 19 8 19 36v66h57v-66z" />
    <glyph glyph-name="Oslash.sc" unicode="&#xe027;" horiz-adv-x="304" 
d="M274 205c0 -124 -20 -211 -122 -211c-28 0 -49 6 -66 17l-15 -46h-41l26 80c-21 38 -26 93 -26 160v140c0 124 21 211 122 211c28 0 49 -7 66 -19l15 45h41l-26 -80c20 -37 26 -92 26 -157v-140zM203 206v138v22l-92 -278c8 -18 20 -27 41 -27c48 0 51 49 51 145z
M193 460c-8 18 -20 28 -41 28c-48 0 -51 -48 -51 -144v-138v-25z" />
    <glyph glyph-name="Oslashacute.sc" unicode="&#xe068;" horiz-adv-x="304" 
d="M250 750l-72 -152h-68l60 152h80zM274 205c0 -124 -20 -211 -122 -211c-28 0 -49 6 -66 17l-15 -46h-41l26 80c-21 38 -26 93 -26 160v140c0 124 21 211 122 211c28 0 49 -7 66 -19l15 45h41l-26 -80c20 -37 26 -92 26 -157v-140zM203 206v138v22l-92 -278
c8 -18 20 -27 41 -27c48 0 51 49 51 145zM193 460c-8 18 -20 28 -41 28c-48 0 -51 -48 -51 -144v-138v-25z" />
    <glyph glyph-name="OE.sc" unicode="&#xe022;" horiz-adv-x="413" 
d="M383 0h-166c-18 -3 -41 -6 -58 -6c-112 0 -129 87 -129 211v140c0 124 17 211 129 211c16 0 39 -3 58 -6h166v-96h-49l-8 30h-64v-166h116v-66h-116v-186h64l8 33h49v-99zM191 64v420c-8 3 -18 4 -30 4c-57 0 -59 -48 -59 -144v-139c0 -95 2 -144 59 -144c12 0 22 1 30 3
z" />
    <glyph glyph-name="P.sc" unicode="&#xe029;" horiz-adv-x="291" 
d="M271 377c0 -129 -54 -163 -133 -163h-15v-149l32 -4v-61h-125v58l22 4v426l-22 3v59c36 1 69 1 105 1c82 0 136 -29 136 -159v-15zM200 377v15c0 76 -14 93 -63 93h-14v-206h14c49 0 63 24 63 98z" />
    <glyph glyph-name="Thorn.sc" unicode="&#xe02a;" horiz-adv-x="291" 
d="M155 0h-125v58l22 4v426l-22 3v59h125v-58l-32 -4v-39h12c82 0 136 -29 136 -159v-15c0 -129 -54 -163 -133 -163h-15v-50l32 -4v-58zM200 275v15c0 76 -14 93 -63 93h-14v-206h14c49 0 63 24 63 98z" />
    <glyph glyph-name="Q.sc" unicode="&#xe02b;" horiz-adv-x="304" 
d="M274 205c0 -107 -13 -190 -89 -207v-65c0 -22 2 -23 26 -23h29v-50c-6 -2 -28 -9 -56 -9c-44 0 -67 17 -67 80v67c-75 18 -87 102 -87 207v140c0 124 21 211 122 211s122 -87 122 -211v-140zM203 206v138c0 96 -3 144 -51 144s-51 -48 -51 -144v-138
c0 -96 3 -145 51 -145s51 49 51 145z" />
    <glyph glyph-name="Qalt.sc" unicode="&#xe595;" horiz-adv-x="304" 
d="M274 205c0 -107 -13 -190 -89 -207v-138h-68v138c-75 18 -87 102 -87 207v140c0 124 21 211 122 211s122 -87 122 -211v-140zM203 206v138c0 96 -3 144 -51 144s-51 -48 -51 -144v-138c0 -96 3 -145 51 -145s51 49 51 145z" />
    <glyph glyph-name="R.sc" unicode="&#xe02c;" horiz-adv-x="316" 
d="M296 0h-88l-58 215h-14h-13v-153l22 -4v-58h-115v58l22 4v426l-22 3v59c34 1 67 1 99 1c83 0 141 -32 141 -159v-9c0 -77 -17 -123 -54 -149l49 -172l31 -4v-58zM200 383v9c0 76 -15 93 -67 93h-10v-206h14c54 0 63 32 63 104z" />
    <glyph glyph-name="Racute.sc" unicode="&#xe069;" horiz-adv-x="316" 
d="M296 0h-88l-58 215h-14h-13v-153l22 -4v-58h-115v58l22 4v426l-22 3v59c34 1 67 1 99 1c83 0 141 -32 141 -159v-9c0 -77 -17 -123 -54 -149l49 -172l31 -4v-58zM200 383v9c0 76 -15 93 -67 93h-10v-206h14c54 0 63 32 63 104zM249 750l-72 -152h-68l60 152h80z" />
    <glyph glyph-name="Rcaron.sc" unicode="&#xe06a;" horiz-adv-x="316" 
d="M296 0h-88l-58 215h-14h-13v-153l22 -4v-58h-115v58l22 4v426l-22 3v59c34 1 67 1 99 1c83 0 141 -32 141 -159v-9c0 -77 -17 -123 -54 -149l49 -172l31 -4v-58zM200 383v9c0 76 -15 93 -67 93h-10v-206h14c54 0 63 32 63 104zM272 750l-67 -152h-106l-67 152h65l55 -106
l55 106h65z" />
    <glyph glyph-name="Rcommaaccent.sc" unicode="&#xe06b;" horiz-adv-x="316" 
d="M296 0h-88l-58 215h-14h-13v-153l22 -4v-58h-115v58l22 4v426l-22 3v59c34 1 67 1 99 1c83 0 141 -32 141 -159v-9c0 -77 -17 -123 -54 -149l49 -172l31 -4v-58zM200 383v9c0 76 -15 93 -67 93h-10v-206h14c54 0 63 32 63 104zM203 -56l-61 -147h-66l37 147h90z" />
    <glyph glyph-name="S.sc" unicode="&#xe02d;" horiz-adv-x="259" 
d="M234 138c0 -92 -40 -144 -119 -144c-43 0 -79 12 -89 16v88h51l6 -39c8 -1 13 -1 21 -1c44 0 57 20 57 80c0 43 -12 66 -38 100l-41 47c-43 49 -57 86 -57 143c0 83 35 128 114 128c42 0 77 -12 89 -17v-85h-51l-7 37h-20c-41 0 -53 -21 -53 -65c0 -39 12 -59 39 -92
l38 -45c42 -50 60 -91 60 -151z" />
    <glyph glyph-name="Sacute.sc" unicode="&#xe06c;" horiz-adv-x="259" 
d="M234 138c0 -92 -40 -144 -119 -144c-43 0 -79 12 -89 16v88h51l6 -39c8 -1 13 -1 21 -1c44 0 57 20 57 80c0 43 -12 66 -38 100l-41 47c-43 49 -57 86 -57 143c0 83 35 128 114 128c42 0 77 -12 89 -17v-85h-51l-7 37h-20c-41 0 -53 -21 -53 -65c0 -39 12 -59 39 -92
l38 -45c42 -50 60 -91 60 -151zM232 750l-72 -152h-68l60 152h80z" />
    <glyph glyph-name="Scaron.sc" unicode="&#xe02e;" horiz-adv-x="259" 
d="M234 138c0 -92 -40 -144 -119 -144c-43 0 -79 12 -89 16v88h51l6 -39c8 -1 13 -1 21 -1c44 0 57 20 57 80c0 43 -12 66 -38 100l-41 47c-43 49 -57 86 -57 143c0 83 35 128 114 128c42 0 77 -12 89 -17v-85h-51l-7 37h-20c-41 0 -53 -21 -53 -65c0 -39 12 -59 39 -92
l38 -45c42 -50 60 -91 60 -151zM254 750l-67 -152h-106l-67 152h65l55 -106l55 106h65z" />
    <glyph glyph-name="Scedilla.sc" unicode="&#xe06d;" horiz-adv-x="259" 
d="M234 138c0 -92 -40 -144 -119 -144c-43 0 -79 12 -89 16v88h51l6 -39c8 -1 13 -1 21 -1c44 0 57 20 57 80c0 43 -12 66 -38 100l-41 47c-43 49 -57 86 -57 143c0 83 35 128 114 128c42 0 77 -12 89 -17v-85h-51l-7 37h-20c-41 0 -53 -21 -53 -65c0 -39 12 -59 39 -92
l38 -45c42 -50 60 -91 60 -151zM186 -56l-74 -147h-62l57 147h79z" />
    <glyph glyph-name="Scircumflex.sc" unicode="&#xe06e;" horiz-adv-x="259" 
d="M234 138c0 -92 -40 -144 -119 -144c-43 0 -79 12 -89 16v88h51l6 -39c8 -1 13 -1 21 -1c44 0 57 20 57 80c0 43 -12 66 -38 100l-41 47c-43 49 -57 86 -57 143c0 83 35 128 114 128c42 0 77 -12 89 -17v-85h-51l-7 37h-20c-41 0 -53 -21 -53 -65c0 -39 12 -59 39 -92
l38 -45c42 -50 60 -91 60 -151zM246 598h-65l-55 106l-55 -106h-65l67 152h106z" />
    <glyph glyph-name="Scommaaccent.sc" unicode="&#xe06f;" horiz-adv-x="259" 
d="M234 138c0 -92 -40 -144 -119 -144c-43 0 -79 12 -89 16v88h51l6 -39c8 -1 13 -1 21 -1c44 0 57 20 57 80c0 43 -12 66 -38 100l-41 47c-43 49 -57 86 -57 143c0 83 35 128 114 128c42 0 77 -12 89 -17v-85h-51l-7 37h-20c-41 0 -53 -21 -53 -65c0 -39 12 -59 39 -92
l38 -45c42 -50 60 -91 60 -151zM183 -56l-61 -147h-66l37 147h90z" />
    <glyph glyph-name="T.sc" unicode="&#xe02f;" horiz-adv-x="289" 
d="M264 454h-51l-6 31h-27v-423l22 -4v-58h-115v58l22 4v423h-27l-6 -31h-51v96h239v-96z" />
    <glyph glyph-name="Tcaron.sc" unicode="&#xe071;" horiz-adv-x="289" 
d="M264 454h-51l-6 31h-27v-423l22 -4v-58h-115v58l22 4v423h-27l-6 -31h-51v96h239v-96zM264 750l-67 -152h-106l-67 152h65l55 -106l55 106h65z" />
    <glyph glyph-name="Tbar.sc" unicode="&#xe070;" horiz-adv-x="289" 
d="M264 454h-51l-6 31h-27v-138h67v-67h-67v-218l22 -4v-58h-115v58l22 4v218h-71v67h71v138h-27l-6 -31h-51v96h239v-96z" />
    <glyph glyph-name="Tcommaaccent.sc" unicode="&#xe072;" horiz-adv-x="289" 
d="M264 454h-51l-6 31h-27v-423l22 -4v-58h-115v58l22 4v423h-27l-6 -31h-51v96h239v-96zM195 -56l-61 -147h-66l37 147h90z" />
    <glyph glyph-name="U.sc" unicode="&#xe030;" horiz-adv-x="337" 
d="M307 491l-22 -3v-307c0 -83 -3 -187 -116 -187c-114 0 -117 104 -117 187v307l-22 3v59h113v-61l-20 -4v-289c0 -96 0 -135 46 -135c45 0 45 39 45 135v289l-20 4v61h113v-59z" />
    <glyph glyph-name="Uacute.sc" unicode="&#xe031;" horiz-adv-x="337" 
d="M307 491l-22 -3v-307c0 -83 -3 -187 -116 -187c-114 0 -117 104 -117 187v307l-22 3v59h113v-61l-20 -4v-289c0 -96 0 -135 46 -135c45 0 45 39 45 135v289l-20 4v61h113v-59zM269 750l-72 -152h-68l60 152h80z" />
    <glyph glyph-name="Ubreve.sc" unicode="&#xe073;" horiz-adv-x="337" 
d="M307 491l-22 -3v-307c0 -83 -3 -187 -116 -187c-114 0 -117 104 -117 187v307l-22 3v59h113v-61l-20 -4v-289c0 -96 0 -135 46 -135c45 0 45 39 45 135v289l-20 4v61h113v-59zM267 750c0 -83 0 -154 -93 -154s-93 71 -93 154h58c0 -83 0 -102 35 -102s35 19 35 102h58z
" />
    <glyph glyph-name="Ucircumflex.sc" unicode="&#xe032;" horiz-adv-x="337" 
d="M307 491l-22 -3v-307c0 -83 -3 -187 -116 -187c-114 0 -117 104 -117 187v307l-22 3v59h113v-61l-20 -4v-289c0 -96 0 -135 46 -135c45 0 45 39 45 135v289l-20 4v61h113v-59zM289 598h-65l-55 106l-55 -106h-65l67 152h106z" />
    <glyph glyph-name="Udieresis.sc" unicode="&#xe033;" horiz-adv-x="337" 
d="M307 491l-22 -3v-307c0 -83 -3 -187 -116 -187c-114 0 -117 104 -117 187v307l-22 3v59h113v-61l-20 -4v-289c0 -96 0 -135 46 -135c45 0 45 39 45 135v289l-20 4v61h113v-59zM267 620h-78v106h78v-106zM137 620v106h-78v-106h78z" />
    <glyph glyph-name="Uhungarumlaut.sc" unicode="&#xe074;" horiz-adv-x="337" 
d="M307 491l-22 -3v-307c0 -83 -3 -187 -116 -187c-114 0 -117 104 -117 187v307l-22 3v59h113v-61l-20 -4v-289c0 -96 0 -135 46 -135c45 0 45 39 45 135v289l-20 4v61h113v-59zM330 750l-72 -152h-68l60 152h80zM210 750h-80l-60 -152h68z" />
    <glyph glyph-name="Ugrave.sc" unicode="&#xe034;" horiz-adv-x="337" 
d="M307 491l-22 -3v-307c0 -83 -3 -187 -116 -187c-114 0 -117 104 -117 187v307l-22 3v59h113v-61l-20 -4v-289c0 -96 0 -135 46 -135c45 0 45 39 45 135v289l-20 4v61h113v-59zM207 598h-68l-72 152h80z" />
    <glyph glyph-name="Umacron.sc" unicode="&#xe075;" horiz-adv-x="337" 
d="M307 491l-22 -3v-307c0 -83 -3 -187 -116 -187c-114 0 -117 104 -117 187v307l-22 3v59h113v-61l-20 -4v-289c0 -96 0 -135 46 -135c45 0 45 39 45 135v289l-20 4v61h113v-59zM268 620h-198v62h198v-62z" />
    <glyph glyph-name="Uogonek.sc" unicode="&#xe076;" horiz-adv-x="337" 
d="M307 491l-22 -3v-307c0 -72 -2 -159 -75 -181c-42 -45 -55 -79 -55 -114c0 -29 8 -44 39 -44c11 0 24 1 36 2v-47c-19 -6 -35 -8 -53 -8c-65 0 -90 37 -90 97c0 33 15 73 51 111c-84 17 -86 109 -86 184v307l-22 3v59h113v-61l-20 -4v-289c0 -96 0 -135 46 -135
c45 0 45 39 45 135v289l-20 4v61h113v-59z" />
    <glyph glyph-name="Uring.sc" unicode="&#xe077;" horiz-adv-x="337" 
d="M307 491l-22 -3v-307c0 -83 -3 -187 -116 -187c-114 0 -117 104 -117 187v307l-22 3v59h113v-61l-20 -4v-289c0 -96 0 -135 46 -135c45 0 45 39 45 135v289l-20 4v61h113v-59zM262 707c0 -81 -38 -111 -93 -111s-93 30 -93 111c0 82 38 112 93 112s93 -30 93 -112z
M204 707c0 53 -16 60 -35 60s-35 -7 -35 -60c0 -52 16 -59 35 -59s35 7 35 59z" />
    <glyph glyph-name="Utilde.sc" unicode="&#xe078;" horiz-adv-x="337" 
d="M307 491l-22 -3v-307c0 -83 -3 -187 -116 -187c-114 0 -117 104 -117 187v307l-22 3v59h113v-61l-20 -4v-289c0 -96 0 -135 46 -135c45 0 45 39 45 135v289l-20 4v61h113v-59zM304 692c0 -57 -19 -95 -76 -95c-39 0 -60 18 -79 56l-8 16c-11 22 -17 31 -31 31
c-10 0 -19 -8 -19 -36v-66h-57v66c0 56 23 95 76 95c39 0 59 -17 78 -55l8 -16c12 -25 19 -32 32 -32c12 0 19 8 19 36v66h57v-66z" />
    <glyph glyph-name="V.sc" unicode="&#xe035;" horiz-adv-x="328" 
d="M308 491l-23 -3l-69 -488h-104l-69 488l-23 3v59h115v-57l-22 -4l40 -314c5 -38 8 -80 10 -110h2c2 30 5 72 10 110l38 314l-21 4v57h116v-59z" />
    <glyph glyph-name="W.sc" unicode="&#xe036;" horiz-adv-x="417" 
d="M396 491l-22 -3l-39 -488h-95l-25 220c-3 24 -5 53 -5 71h-3c0 -18 -2 -47 -5 -71l-23 -220h-97l-40 488l-22 3v59h115v-57l-22 -4l18 -298c3 -42 2 -76 3 -107h4c2 28 4 65 9 105l18 162h87l18 -163c4 -40 7 -67 9 -105h4c0 38 0 69 2 108l18 298l-21 4v57h114v-59z" />
    <glyph glyph-name="Wacute.sc" unicode="&#xe079;" horiz-adv-x="417" 
d="M396 491l-22 -3l-39 -488h-95l-25 220c-3 24 -5 53 -5 71h-3c0 -18 -2 -47 -5 -71l-23 -220h-97l-40 488l-22 3v59h115v-57l-22 -4l18 -298c3 -42 2 -76 3 -107h4c2 28 4 65 9 105l18 162h87l18 -163c4 -40 7 -67 9 -105h4c0 38 0 69 2 108l18 298l-21 4v57h114v-59z
M293 750l-72 -152h-68l60 152h80z" />
    <glyph glyph-name="Wcircumflex.sc" unicode="&#xe07a;" horiz-adv-x="417" 
d="M396 491l-22 -3l-39 -488h-95l-25 220c-3 24 -5 53 -5 71h-3c0 -18 -2 -47 -5 -71l-23 -220h-97l-40 488l-22 3v59h115v-57l-22 -4l18 -298c3 -42 2 -76 3 -107h4c2 28 4 65 9 105l18 162h87l18 -163c4 -40 7 -67 9 -105h4c0 38 0 69 2 108l18 298l-21 4v57h114v-59z
M329 598h-65l-55 106l-55 -106h-65l67 152h106z" />
    <glyph glyph-name="Wdieresis.sc" unicode="&#xe07b;" horiz-adv-x="417" 
d="M396 491l-22 -3l-39 -488h-95l-25 220c-3 24 -5 53 -5 71h-3c0 -18 -2 -47 -5 -71l-23 -220h-97l-40 488l-22 3v59h115v-57l-22 -4l18 -298c3 -42 2 -76 3 -107h4c2 28 4 65 9 105l18 162h87l18 -163c4 -40 7 -67 9 -105h4c0 38 0 69 2 108l18 298l-21 4v57h114v-59z
M311 620h-78v106h78v-106zM181 620v106h-78v-106h78z" />
    <glyph glyph-name="Wgrave.sc" unicode="&#xe07c;" horiz-adv-x="417" 
d="M396 491l-22 -3l-39 -488h-95l-25 220c-3 24 -5 53 -5 71h-3c0 -18 -2 -47 -5 -71l-23 -220h-97l-40 488l-22 3v59h115v-57l-22 -4l18 -298c3 -42 2 -76 3 -107h4c2 28 4 65 9 105l18 162h87l18 -163c4 -40 7 -67 9 -105h4c0 38 0 69 2 108l18 298l-21 4v57h114v-59z
M248 598h-68l-72 152h80z" />
    <glyph glyph-name="X.sc" unicode="&#xe037;" horiz-adv-x="305" 
d="M285 0h-115v55l19 3l-38 132l-38 -132l20 -3v-55h-113v58l24 4l70 219l-68 207l-24 3v59h114v-57l-18 -3l36 -123l33 123l-17 3v57h112v-59l-25 -3l-66 -211l70 -215l24 -4v-58z" />
    <glyph glyph-name="Y.sc" unicode="&#xe038;" horiz-adv-x="296" 
d="M276 491l-25 -3l-68 -272v-154l22 -4v-58h-114v58l22 4v154l-69 272l-24 3v59h112v-57l-19 -4l21 -102c5 -24 13 -70 14 -82h1c2 12 8 58 13 82l21 102l-19 4v57h112v-59z" />
    <glyph glyph-name="Yacute.sc" unicode="&#xe039;" horiz-adv-x="296" 
d="M276 491l-25 -3l-68 -272v-154l22 -4v-58h-114v58l22 4v154l-69 272l-24 3v59h112v-57l-19 -4l21 -102c5 -24 13 -70 14 -82h1c2 12 8 58 13 82l21 102l-19 4v57h112v-59zM240 750l-72 -152h-68l60 152h80z" />
    <glyph glyph-name="Ycircumflex.sc" unicode="&#xe07d;" horiz-adv-x="296" 
d="M276 491l-25 -3l-68 -272v-154l22 -4v-58h-114v58l22 4v154l-69 272l-24 3v59h112v-57l-19 -4l21 -102c5 -24 13 -70 14 -82h1c2 12 8 58 13 82l21 102l-19 4v57h112v-59zM268 598h-65l-55 106l-55 -106h-65l67 152h106z" />
    <glyph glyph-name="Ydieresis.sc" unicode="&#xe03a;" horiz-adv-x="296" 
d="M276 491l-25 -3l-68 -272v-154l22 -4v-58h-114v58l22 4v154l-69 272l-24 3v59h112v-57l-19 -4l21 -102c5 -24 13 -70 14 -82h1c2 12 8 58 13 82l21 102l-19 4v57h112v-59zM251 620h-78v106h78v-106zM121 620v106h-78v-106h78z" />
    <glyph glyph-name="Ygrave.sc" unicode="&#xe07e;" horiz-adv-x="296" 
d="M276 491l-25 -3l-68 -272v-154l22 -4v-58h-114v58l22 4v154l-69 272l-24 3v59h112v-57l-19 -4l21 -102c5 -24 13 -70 14 -82h1c2 12 8 58 13 82l21 102l-19 4v57h112v-59zM185 598h-68l-72 152h80z" />
    <glyph glyph-name="Z.sc" unicode="&#xe03b;" horiz-adv-x="278" 
d="M248 0h-218v77l141 408h-79l-8 -31h-49v96h209v-78l-142 -408h90l6 34h50v-98z" />
    <glyph glyph-name="Zacute.sc" unicode="&#xe07f;" horiz-adv-x="278" 
d="M248 0h-218v77l141 408h-79l-8 -31h-49v96h209v-78l-142 -408h90l6 34h50v-98zM241 750l-72 -152h-68l60 152h80z" />
    <glyph glyph-name="Zcaron.sc" unicode="&#xe03c;" horiz-adv-x="278" 
d="M248 0h-218v77l141 408h-79l-8 -31h-49v96h209v-78l-142 -408h90l6 34h50v-98zM258 750l-67 -152h-106l-67 152h65l55 -106l55 106h65z" />
    <glyph glyph-name="Zdotaccent.sc" unicode="&#xe080;" horiz-adv-x="278" 
d="M248 0h-218v77l141 408h-79l-8 -31h-49v96h209v-78l-142 -408h90l6 34h50v-98zM173 620h-78v106h78v-106z" />
    <glyph glyph-name="ampersand.sc" unicode="&#xe08c;" horiz-adv-x="345" 
d="M297 0h-70l-9 18c-19 -13 -42 -24 -77 -24c-55 0 -111 25 -111 128v9c0 61 17 96 60 145l-5 8c-32 62 -43 89 -43 146v14c0 78 38 112 105 112c42 0 81 -11 94 -17v-85h-53l-7 37h-31c-23 0 -37 -7 -37 -48v-15c0 -39 6 -53 23 -89l93 -189c5 34 6 76 6 110l-23 3v50h103
v-50l-23 -4c0 -68 -7 -134 -27 -180l32 -64v-15zM190 72l-66 140c-18 -23 -22 -44 -22 -81v-9c0 -52 19 -67 44 -67c21 0 32 7 44 17z" />
    <glyph glyph-name="ampersandalt.sc" unicode="&#xe451;" horiz-adv-x="345" 
d="M297 0h-70l-9 18c-19 -13 -42 -24 -77 -24c-55 0 -111 25 -111 128v9c0 61 17 96 60 145l-6 12c-31 62 -42 88 -42 145v8c0 78 41 116 108 116c78 0 108 -38 108 -116v-8c0 -36 -10 -85 -86 -169l57 -114c6 32 6 61 6 91v11h57v-11c0 -66 -2 -111 -27 -162l32 -64v-15z
M190 72l-66 140c-18 -23 -22 -44 -22 -81v-9c0 -52 19 -67 44 -67c21 0 32 7 44 17zM187 433v8c0 41 -14 50 -37 50s-37 -9 -37 -50v-8c0 -39 6 -58 23 -94l8 -18c41 56 43 78 43 112z" />
    <glyph glyph-name="exclam.sc" unicode="&#xe08b;" horiz-adv-x="162" 
d="M119 0h-76v103h76v-103zM122 565l-6 -412h-70l-6 412h82z" />
    <glyph glyph-name="exclamdown.sc" unicode="&#xe08f;" horiz-adv-x="162" 
d="M122 -15h-82l6 412h70zM119 550v-103h-76v103h76z" />
    <glyph glyph-name="questiondown.sc" unicode="&#xe094;" 
d="M200 9c-20 -8 -48 -16 -85 -16c-54 0 -98 25 -98 111v10c0 30 6 64 29 115c34 73 47 100 47 145v37h61v-37c0 -48 -3 -80 -23 -124c-29 -61 -39 -94 -39 -130v-9c0 -41 10 -53 45 -53h7l7 31h49v-80zM157 460h-68v103h68v-103z" />
    <glyph glyph-name="question.sc" unicode="&#xe08d;" 
d="M128 0h-68v103h68v-103zM200 449c0 -30 -6 -64 -29 -115c-34 -73 -47 -100 -47 -145v-37h-61v37c0 48 3 80 23 124c29 61 39 94 39 130v9c0 41 -10 53 -45 53h-7l-7 -31h-49v80c20 8 54 16 85 16c54 0 98 -25 98 -111v-10z" />
    <glyph glyph-name="Acute" unicode="&#xf6c9;" 
d="M220 940l-72 -152h-68l60 152h80z" />
    <glyph glyph-name="Aringacute" unicode="&#x1fa;" horiz-adv-x="397" 
d="M288 821c0 -50 -45 -67 -93 -67s-93 17 -93 67c0 51 45 67 93 67s93 -16 93 -67zM237 821c0 19 -15 26 -42 26s-42 -7 -42 -26c0 -18 15 -26 42 -26s42 8 42 26zM283 986l-53 -88h-68l41 88h80zM382 0h-139v66l29 5l-23 176h-101l-24 -176l30 -5v-66h-139v68l30 5l86 597
l-32 5v68h155l97 -670l31 -5v-68zM238 325l-24 197c-7 59 -10 103 -14 148h-2c-4 -45 -6 -88 -14 -148l-25 -197h79z" />
    <glyph glyph-name="Breve" unicode="&#xf71d;" 
d="M208 940c0 -83 0 -154 -93 -154s-93 71 -93 154h58c0 -83 0 -102 35 -102s35 19 35 102h58z" />
    <glyph glyph-name="Caron" unicode="&#xf6ca;" 
d="M235 940l-67 -152h-106l-67 152h65l55 -106l55 106h65z" />
    <glyph glyph-name="Cedilla" unicode="&#xf722;" 
d="M164 -56l-74 -147h-62l57 147h79z" />
    <glyph glyph-name="Circumflex" unicode="&#xf71e;" 
d="M235 788h-65l-55 106l-55 -106h-65l67 152h106z" />
    <glyph glyph-name="Dieresis" unicode="&#xf6cb;" 
d="M219 817h-78v106h78v-106zM89 817v106h-78v-106h78z" />
    <glyph glyph-name="DieresisAcute" unicode="&#xf6cc;" 
d="M277 817h-78v106h78v-106zM104 940h80l-72 -152h-68zM31 817h-78v106h78v-106z" />
    <glyph glyph-name="DieresisGrave" unicode="&#xf6cd;" 
d="M277 817h-78v106h78v-106zM126 940l60 -152h-68l-72 152h80zM31 817h-78v106h78v-106z" />
    <glyph glyph-name="Dotaccent" unicode="&#xf71a;" 
d="M154 844h-78v106h78v-106z" />
    <glyph glyph-name="Euro.taboldstyle" unicode="&#xe430;" horiz-adv-x="309" 
d="M283 8c-13 -6 -53 -15 -83 -15c-68 0 -125 19 -132 179h-33v60h33v68h-33v60h33c3 176 62 197 132 197c30 0 70 -8 83 -14v-102h-56l-9 36h-10c-37 0 -60 -9 -62 -117h128l-11 -60h-117v-68h106l-10 -60h-96c4 -92 27 -101 62 -101c20 0 64 5 75 7v-70z" />
    <glyph glyph-name="Grave" unicode="&#xf6ce;" 
d="M150 788h-68l-72 152h80z" />
    <glyph glyph-name="Hungarumlaut" unicode="&#xf6cf;" 
d="M275 940l-72 -152h-68l60 152h80zM155 940h-80l-60 -152h68z" />
    <glyph glyph-name="Macron" unicode="&#xf6d0;" 
d="M214 841h-198v62h198v-62z" />
    <glyph glyph-name="Ogonek" unicode="&#xe46c;" 
d="M119 0h67c-57 -56 -75 -84 -75 -124c0 -19 8 -34 39 -34c11 0 24 1 36 2v-47c-19 -6 -35 -8 -53 -8c-65 0 -90 37 -90 87c0 39 23 80 76 124z" />
    <glyph glyph-name="Q.alt" unicode="&#xe23c;" horiz-adv-x="376" 
d="M226 -181h-76v178c-105 22 -115 141 -115 270v209c0 143 13 274 153 274s153 -131 153 -274v-209c0 -129 -11 -248 -115 -270v-178zM188 67c71 0 75 74 75 200v209c0 126 -4 200 -75 200s-75 -74 -75 -200v-209c0 -126 4 -200 75 -200z" />
    <glyph glyph-name="Ring" unicode="&#xf71b;" 
d="M208 877c0 -81 -38 -111 -93 -111s-93 30 -93 111c0 82 38 112 93 112s93 -30 93 -112zM150 877c0 53 -16 60 -35 60s-35 -7 -35 -60c0 -52 16 -59 35 -59s35 7 35 59z" />
    <glyph glyph-name="T_h" unicode="&#xfb10;" horiz-adv-x="588" 
d="M571 0h-106v393c0 72 -2 94 -32 94c-18 0 -38 -11 -62 -32v-382l30 -5v-68h-136v68l30 5v597h-94v-597l30 -5v-68h-138v68l30 5v597h-40l-10 -44h-58v117h356v-218c19 18 46 32 81 32c86 0 89 -85 89 -157v-327l30 -5v-68z" />
    <glyph glyph-name="T_h.caron" unicode="&#xfb11;" horiz-adv-x="588" 
d="M571 0h-106v393c0 72 -2 94 -32 94c-18 0 -38 -11 -62 -32v-382l30 -5v-68h-136v68l30 5v597h-94v-597l30 -5v-68h-138v68l30 5v597h-40l-10 -44h-58v117h356v-218c19 18 46 32 81 32c86 0 89 -85 89 -157v-327l30 -5v-68zM280 940l-67 -152h-106l-67 152h65l55 -106
l55 106h65z" />
    <glyph glyph-name="T_h.commaaccent" unicode="&#xfb12;" horiz-adv-x="588" 
d="M571 0h-106v393c0 72 -2 94 -32 94c-18 0 -38 -11 -62 -32v-382l30 -5v-68h-136v68l30 5v597h-94v-597l30 -5v-68h-138v68l30 5v597h-40l-10 -44h-58v117h356v-218c19 18 46 32 81 32c86 0 89 -85 89 -157v-327l30 -5v-68zM215 -56l-61 -147h-66l37 147h90z" />
    <glyph glyph-name="Tilde" unicode="&#xf71c;" 
d="M250 882c0 -57 -19 -95 -76 -95c-39 0 -60 18 -79 56l-8 16c-11 22 -17 31 -31 31c-10 0 -19 -8 -19 -36v-66h-57v66c0 56 23 95 76 95c39 0 59 -17 78 -55l8 -16c12 -25 19 -32 32 -32c12 0 19 8 19 36v66h57v-66z" />
    <glyph glyph-name="a.alt" unicode="&#xe245;" horiz-adv-x="329" 
d="M306 0h-104v22c-22 -18 -48 -29 -78 -29c-81 0 -94 68 -94 179v181c0 156 41 204 137 204c35 0 84 -3 109 -7v-477l30 -5v-68zM200 82v404c-16 1 -25 1 -33 1c-48 0 -61 -18 -61 -134v-181c0 -78 3 -107 40 -107c17 0 34 5 54 17z" />
    <glyph glyph-name="a.alt2" unicode="&#xe43e;" horiz-adv-x="308" 
d="M291 0h-97v25c-25 -22 -54 -32 -78 -32c-77 0 -91 58 -91 139v36c0 107 36 158 138 158h22v64c0 83 -9 96 -63 96c-26 0 -54 -5 -82 -10v61c13 7 52 20 99 20c92 0 122 -41 122 -167v-317l30 -5v-68zM185 77v191h-22c-54 0 -62 -26 -62 -100v-50c0 -50 5 -60 33 -60
c18 0 35 9 51 19z" />
    <glyph glyph-name="aacute.alt" unicode="&#xe281;" horiz-adv-x="329" 
d="M306 0h-104v22c-22 -18 -48 -29 -78 -29c-81 0 -94 68 -94 179v181c0 156 41 204 137 204c35 0 84 -3 109 -7v-477l30 -5v-68zM200 82v404c-16 1 -25 1 -33 1c-48 0 -61 -18 -61 -134v-181c0 -78 3 -107 40 -107c17 0 34 5 54 17zM272 750l-72 -152h-68l60 152h80z" />
    <glyph glyph-name="abreve.alt" unicode="&#xe441;" horiz-adv-x="329" 
d="M306 0h-104v22c-22 -18 -48 -29 -78 -29c-81 0 -94 68 -94 179v181c0 156 41 204 137 204c35 0 84 -3 109 -7v-477l30 -5v-68zM200 82v404c-16 1 -25 1 -33 1c-48 0 -61 -18 -61 -134v-181c0 -78 3 -107 40 -107c17 0 34 5 54 17zM255 750c0 -83 0 -154 -93 -154
s-93 71 -93 154h58c0 -83 0 -102 35 -102s35 19 35 102h58z" />
    <glyph glyph-name="acircumflex.alt" unicode="&#xe283;" horiz-adv-x="329" 
d="M306 0h-104v22c-22 -18 -48 -29 -78 -29c-81 0 -94 68 -94 179v181c0 156 41 204 137 204c35 0 84 -3 109 -7v-477l30 -5v-68zM200 82v404c-16 1 -25 1 -33 1c-48 0 -61 -18 -61 -134v-181c0 -78 3 -107 40 -107c17 0 34 5 54 17zM284 598h-65l-55 106l-55 -106h-65
l67 152h106z" />
    <glyph glyph-name="adieresis.alt" unicode="&#xe284;" horiz-adv-x="329" 
d="M306 0h-104v22c-22 -18 -48 -29 -78 -29c-81 0 -94 68 -94 179v181c0 156 41 204 137 204c35 0 84 -3 109 -7v-477l30 -5v-68zM200 82v404c-16 1 -25 1 -33 1c-48 0 -61 -18 -61 -134v-181c0 -78 3 -107 40 -107c17 0 34 5 54 17zM273 627h-78v106h78v-106zM143 627v106
h-78v-106h78z" />
    <glyph glyph-name="afii61352" unicode="&#x2116;" horiz-adv-x="698" 
d="M668 181h-252v65h252v-65zM668 510c0 -116 -10 -221 -126 -221s-126 105 -126 221v20c0 116 10 221 126 221s126 -105 126 -221v-20zM598 510v20c0 98 -3 157 -56 157s-56 -59 -56 -157v-20c0 -98 3 -157 56 -157s56 59 56 157zM391 675l-30 -5v-670h-102l-118 544
c-7 32 -11 58 -19 107h-2c6 -50 9 -89 9 -141v-437l30 -5v-68h-134v68l30 5v597l-30 5v68h139l111 -510c6 -27 14 -70 20 -109h2c-7 65 -10 108 -10 148v398l-30 5v68h134v-68z" />
    <glyph glyph-name="agrave.alt" unicode="&#xe282;" horiz-adv-x="329" 
d="M306 0h-104v22c-22 -18 -48 -29 -78 -29c-81 0 -94 68 -94 179v181c0 156 41 204 137 204c35 0 84 -3 109 -7v-477l30 -5v-68zM200 82v404c-16 1 -25 1 -33 1c-48 0 -61 -18 -61 -134v-181c0 -78 3 -107 40 -107c17 0 34 5 54 17zM201 598h-68l-72 152h80z" />
    <glyph glyph-name="amacron.alt" unicode="&#xe440;" horiz-adv-x="329" 
d="M306 0h-104v22c-22 -18 -48 -29 -78 -29c-81 0 -94 68 -94 179v181c0 156 41 204 137 204c35 0 84 -3 109 -7v-477l30 -5v-68zM200 82v404c-16 1 -25 1 -33 1c-48 0 -61 -18 -61 -134v-181c0 -78 3 -107 40 -107c17 0 34 5 54 17zM252 651h-198v62h198v-62z" />
    <glyph glyph-name="ampersand.alt" unicode="&#xe43d;" horiz-adv-x="396" 
d="M363 0h-80l-13 27c-21 -18 -49 -34 -95 -34c-69 0 -140 30 -140 171v13c0 83 21 127 73 195l-5 10c-42 84 -54 117 -54 200v22c0 102 45 146 121 146s121 -44 121 -146v-22c0 -81 -23 -115 -96 -215l82 -176c8 49 8 105 8 152v23h66v-23c0 -89 -7 -176 -32 -241l44 -94
v-8zM240 90l-98 210c-28 -35 -32 -67 -32 -123v-13c0 -80 27 -102 63 -102c32 0 50 12 67 28zM215 583v21c0 66 -19 75 -45 75s-45 -9 -45 -75v-22c0 -62 3 -79 31 -134l5 -10c44 68 54 85 54 145z" />
    <glyph glyph-name="aogonek.alt" unicode="&#xe443;" horiz-adv-x="329" 
d="M239 0h-37v22c-22 -18 -48 -29 -78 -29c-81 0 -94 68 -94 179v181c0 156 41 204 137 204c35 0 84 -3 109 -7v-477l30 -5v-68c-57 -56 -75 -84 -75 -124c0 -19 8 -34 39 -34c11 0 24 1 36 2v-47c-19 -6 -35 -8 -53 -8c-65 0 -90 37 -90 87c0 39 23 80 76 124zM200 82v404
c-16 1 -25 1 -33 1c-48 0 -61 -18 -61 -134v-181c0 -78 3 -107 40 -107c17 0 34 5 54 17z" />
    <glyph glyph-name="aring.alt" unicode="&#xe286;" horiz-adv-x="319" 
d="M263 693c0 -81 -38 -111 -93 -111s-93 30 -93 111c0 82 38 112 93 112s93 -30 93 -112zM205 693c0 53 -16 60 -35 60s-35 -7 -35 -60c0 -52 16 -59 35 -59s35 7 35 59zM301 0h-104v22c-22 -18 -48 -29 -78 -29c-81 0 -94 68 -94 179v181c0 156 41 204 137 204
c35 0 84 -3 109 -7v-477l30 -5v-68zM195 82v404c-16 1 -25 1 -33 1c-48 0 -61 -18 -61 -134v-181c0 -78 3 -107 40 -107c17 0 34 5 54 17z" />
    <glyph glyph-name="aringacute" unicode="&#x1fb;" horiz-adv-x="319" 
d="M296 0h-97v25c-25 -22 -54 -32 -78 -32c-77 0 -91 58 -91 139v36c0 107 36 158 138 158h22v64c0 83 -9 96 -63 96h-17l-10 -46h-55v97c13 7 52 20 99 20c92 0 122 -41 122 -167v-317l30 -5v-68zM190 77v191h-22c-54 0 -62 -26 -62 -100v-50c0 -50 5 -60 33 -60
c18 0 35 9 51 19zM242 679c0 -81 -38 -111 -93 -111s-93 30 -93 111c0 82 38 112 93 112s93 -30 93 -112zM184 679c0 53 -16 60 -35 60s-35 -7 -35 -60c0 -52 16 -59 35 -59s35 7 35 59zM255 952l-72 -152h-68l60 152h80z" />
    <glyph glyph-name="aringacute.alt" unicode="&#xe442;" horiz-adv-x="319" 
d="M253 689c0 -81 -38 -111 -93 -111s-93 30 -93 111c0 82 38 112 93 112s93 -30 93 -112zM195 689c0 53 -16 60 -35 60s-35 -7 -35 -60c0 -52 16 -59 35 -59s35 7 35 59zM301 0h-104v22c-22 -18 -48 -29 -78 -29c-81 0 -94 68 -94 179v181c0 156 41 204 137 204
c35 0 84 -3 109 -7v-477l30 -5v-68zM195 82v404c-16 1 -25 1 -33 1c-48 0 -61 -18 -61 -134v-181c0 -78 3 -107 40 -107c17 0 34 5 54 17zM265 962l-72 -152h-68l60 152h80z" />
    <glyph glyph-name="a.superior" unicode="&#xf6e9;" horiz-adv-x="273" 
d="M248 300h-84v17c-16 -12 -41 -22 -67 -22c-56 0 -72 37 -72 89v19c0 76 42 96 113 96h19v30c0 46 -6 55 -44 55c-5 0 -10 0 -21 -1l-5 -27h-47v70c10 5 47 15 88 15c74 0 99 -28 99 -112v-171l21 -3v-55zM159 358v99h-20c-36 0 -47 -11 -47 -54v-23c0 -27 8 -34 26 -34
c16 0 31 7 41 12z" />
    <glyph glyph-name="at.cap" unicode="&#xe138;" horiz-adv-x="453" 
d="M423 466c0 -178 -60 -311 -190 -311c-97 0 -111 61 -111 130c0 16 1 59 3 90c9 178 44 210 110 210c31 0 65 -11 92 -24l-16 -323c37 36 61 115 61 228c0 160 -30 242 -123 242c-95 0 -152 -67 -163 -332c-2 -40 -5 -85 -5 -134c0 -73 7 -202 136 -202c50 0 92 8 92 8
v-43s-43 -12 -92 -12c-162 0 -187 143 -187 250c0 48 3 101 5 136c16 283 80 377 215 377c125 0 173 -103 173 -290zM252 522c-5 2 -8 3 -15 3c-27 0 -32 -16 -41 -155c-3 -53 -3 -67 -3 -85c0 -49 7 -72 37 -72h8z" />
    <glyph glyph-name="atilde.alt" unicode="&#xe285;" horiz-adv-x="329" 
d="M306 0h-104v22c-22 -18 -48 -29 -78 -29c-81 0 -94 68 -94 179v181c0 156 41 204 137 204c35 0 84 -3 109 -7v-477l30 -5v-68zM200 82v404c-16 1 -25 1 -33 1c-48 0 -61 -18 -61 -134v-181c0 -78 3 -107 40 -107c17 0 34 5 54 17zM311 691c0 -57 -19 -95 -76 -95
c-39 0 -60 18 -79 56l-8 16c-11 22 -17 31 -31 31c-10 0 -19 -8 -19 -36v-66h-57v66c0 56 23 95 76 95c39 0 59 -17 78 -55l8 -16c12 -25 19 -32 32 -32c12 0 19 8 19 36v66h57v-66z" />
    <glyph glyph-name="braceleft.cap" unicode="&#xe139;" horiz-adv-x="209" 
d="M194 0h-31c-113 0 -115 79 -115 135v81c0 83 -5 93 -33 131v48c28 38 33 48 33 131v81c0 63 2 136 115 136h31v-67h-31c-37 0 -39 -13 -39 -69v-81c0 -83 -19 -119 -49 -155c30 -36 49 -72 49 -155v-81c0 -56 2 -67 39 -67h31v-68z" />
    <glyph glyph-name="braceright.cap" unicode="&#xe13a;" horiz-adv-x="207" 
d="M194 347c-28 -38 -33 -48 -33 -131v-81c0 -56 -2 -135 -115 -135h-31v68h31c37 0 39 11 39 67v81c0 83 19 119 49 155c-30 36 -49 72 -49 155v81c0 56 -2 69 -39 69h-31v67h31c113 0 115 -73 115 -136v-81c0 -83 5 -93 33 -131v-48z" />
    <glyph glyph-name="bracketleft.cap" unicode="&#xe13b;" horiz-adv-x="182" 
d="M157 0h-122v743h122v-63h-50v-616h50v-64z" />
    <glyph glyph-name="bracketright.cap" unicode="&#xe13c;" horiz-adv-x="182" 
d="M147 0h-122v64h50v616h-50v63h122v-743z" />
    <glyph glyph-name="b.superior" unicode="&#xf6ea;" horiz-adv-x="284" 
d="M259 436c0 -100 -29 -141 -121 -141c-27 0 -45 1 -91 6v403l-22 3v54h90v-134c14 10 33 15 51 15c71 0 93 -46 93 -129v-77zM189 436v77c0 53 -6 69 -36 69c-10 0 -26 -2 -38 -10v-217c8 0 16 -1 26 -1c37 0 48 11 48 82z" />
    <glyph glyph-name="cent.denominator" unicode="&#xe119;" horiz-adv-x="239" 
d="M217 6c-11 -5 -35 -11 -59 -12v-74h-64v80c-45 15 -75 59 -75 172v102c0 113 30 156 75 171v80h64v-74c24 -1 48 -7 59 -11v-88h-52l-7 32h-7c-39 0 -62 -11 -62 -110v-102c0 -98 23 -110 65 -110c21 0 52 4 63 5v-61z" />
    <glyph glyph-name="cent.numerator" unicode="&#xe12d;" horiz-adv-x="239" 
d="M217 310c-11 -5 -35 -11 -59 -12v-74h-64v80c-45 15 -75 59 -75 172v102c0 113 30 156 75 171v80h64v-74c24 -1 48 -7 59 -11v-88h-52l-7 32h-7c-39 0 -62 -11 -62 -110v-102c0 -98 23 -110 65 -110c21 0 52 4 63 5v-61z" />
    <glyph glyph-name="cent.taboldstyle" unicode="&#xe500;" horiz-adv-x="283" 
d="M248 12c-18 -8 -37 -14 -57 -17v-112h-73v116c-73 19 -83 93 -83 195v162c0 101 10 176 83 195v113h74v-109c19 -3 39 -9 56 -17v-98h-56l-10 46h-8c-51 0 -63 -17 -63 -130v-162c0 -113 12 -130 63 -130c21 0 42 4 74 9v-61z" />
    <glyph glyph-name="cent.inferior" unicode="&#xf6df;" horiz-adv-x="239" 
d="M217 6c-11 -5 -35 -11 -59 -12v-74h-64v80c-45 15 -75 59 -75 172v102c0 113 30 156 75 171v80h64v-74c24 -1 48 -7 59 -11v-88h-52l-7 32h-7c-39 0 -62 -11 -62 -110v-102c0 -98 23 -110 65 -110c21 0 52 4 63 5v-61z" />
    <glyph glyph-name="cent.oldstyle" unicode="&#xf7a2;" horiz-adv-x="313" 
d="M263 12c-18 -8 -37 -14 -57 -17v-112h-73v116c-73 19 -83 93 -83 195v162c0 101 10 176 83 195v113h74v-109c19 -3 39 -9 56 -17v-98h-56l-10 46h-8c-51 0 -63 -17 -63 -130v-162c0 -113 12 -130 63 -130c21 0 42 4 74 9v-61z" />
    <glyph glyph-name="cent.superior" unicode="&#xf6e0;" horiz-adv-x="239" 
d="M222 310c-11 -5 -35 -11 -59 -12v-74h-64v80c-45 15 -75 59 -75 172v102c0 113 30 156 75 171v80h64v-74c24 -1 48 -7 59 -11v-88h-52l-7 32h-7c-39 0 -62 -11 -62 -110v-102c0 -98 23 -110 65 -110c21 0 52 4 63 5v-61z" />
    <glyph glyph-name="colonmonetary" unicode="&#x20a1;" horiz-adv-x="253" 
d="M238 12c-8 -4 -16 -7 -24 -10v-93h-55v84h-8c-11 0 -20 1 -29 3v-87h-55v111c-36 33 -42 96 -42 174v162c0 78 6 140 42 174v106h55v-82c9 2 18 3 29 3h8v79h55v-88c8 -2 17 -6 24 -10v-98h-56l-10 46h-8c-51 0 -63 -17 -63 -130v-162c0 -113 12 -130 63 -130
c21 0 45 4 74 9v-61z" />
    <glyph glyph-name="colonmonetary.taboldstyle" unicode="&#xe437;" horiz-adv-x="283" 
d="M248 12c-8 -4 -16 -7 -24 -10v-93h-55v84h-8c-11 0 -20 1 -29 3v-87h-55v111c-36 33 -42 96 -42 174v162c0 78 6 140 42 174v106h55v-82c9 2 18 3 29 3h8v79h55v-89c8 -2 16 -6 24 -9v-98h-56l-10 46h-8c-51 0 -63 -17 -63 -130v-162c0 -113 12 -130 63 -130
c21 0 42 4 74 9v-61z" />
    <glyph glyph-name="comma.denominator" unicode="&#xe11a;" horiz-adv-x="119" 
d="M102 89l-47 -147h-55l30 147h72z" />
    <glyph glyph-name="comma.numerator" unicode="&#xe130;" horiz-adv-x="119" 
d="M102 393l-47 -147h-55l30 147h72z" />
    <glyph glyph-name="commaaccent" unicode="&#xf6c3;" horiz-adv-x="425" 
d="M268 -56l-61 -147h-66l37 147h90z" />
    <glyph glyph-name="commaaccent.alt" unicode="&#xe504;" horiz-adv-x="425" 
d="M268 745l-37 -147h-90l61 147h66z" />
    <glyph glyph-name="commaaccent.cap" unicode="&#xe46b;" horiz-adv-x="425" 
d="M268 -56l-61 -147h-66l37 147h90z" />
    <glyph glyph-name="comma.inferior" unicode="&#xf6e1;" horiz-adv-x="119" 
d="M102 89l-47 -147h-55l30 147h72z" />
    <glyph glyph-name="comma.superior" unicode="&#xf6e2;" horiz-adv-x="119" 
d="M102 393l-47 -147h-55l30 147h72z" />
    <glyph glyph-name="currency.taboldstyle" unicode="&#xe438;" horiz-adv-x="355" 
d="M351 184l-52 -51l-51 50c-21 -11 -50 -19 -70 -19c-25 0 -49 4 -72 19l-51 -49l-51 50l51 50c-11 20 -19 50 -19 72c0 25 4 48 19 71l-51 49l51 50l51 -49c22 13 49 19 72 19c25 0 49 -4 72 -19l50 48l51 -49l-51 -50c12 -23 20 -48 20 -70c0 -25 -6 -50 -19 -72z
M258 306c0 43 -34 81 -80 81c-47 0 -80 -38 -80 -81c0 -45 34 -83 80 -83s80 38 80 83z" />
    <glyph glyph-name="cyrBreve" unicode="&#xf6d1;" 
d="M208 750c0 -83 0 -154 -93 -154s-93 71 -93 154h58c0 -83 0 -102 35 -102s35 19 35 102h58z" />
    <glyph glyph-name="cyrFlex" unicode="&#xf6d2;" 
d="M208 598h-58c0 83 0 102 -35 102s-35 -19 -35 -102h-58c0 83 0 154 93 154s93 -71 93 -154z" />
    <glyph glyph-name="cyrbreve" unicode="&#xf6d4;" 
d="M208 750c0 -83 0 -154 -93 -154s-93 71 -93 154h58c0 -83 0 -102 35 -102s35 19 35 102h58z" />
    <glyph glyph-name="cyrflex" unicode="&#xf6d5;" 
d="M208 598h-58c0 83 0 102 -35 102s-35 -19 -35 -102h-58c0 83 0 154 93 154s93 -71 93 -154z" />
    <glyph glyph-name="dblGrave" unicode="&#xf6d3;" 
d="M215 598h-68l-72 152h80zM95 598l-60 152h-80l72 -152h68z" />
    <glyph glyph-name="dblgrave" unicode="&#xf6d6;" 
d="M215 598h-68l-72 152h80zM95 598l-60 152h-80l72 -152h68z" />
    <glyph glyph-name="dieresisacute" unicode="&#x385;" 
d="M277 817h-78v106h78v-106zM104 940h80l-72 -152h-68zM31 817h-78v106h78v-106z" />
    <glyph glyph-name="dieresisgrave" unicode="&#x1fed;" 
d="M277 817h-78v106h78v-106zM126 940l60 -152h-68l-72 152h80zM31 817h-78v106h78v-106z" />
    <glyph glyph-name="dollar.denominator" unicode="&#xe11b;" horiz-adv-x="254" 
d="M227 119c0 -68 -28 -104 -72 -118v-80h-64v74c-32 2 -58 9 -69 14v87h52l8 -37h16c42 0 57 19 57 59c0 29 -9 45 -35 68l-43 39c-40 36 -60 66 -60 119c0 57 26 93 74 105v77h64v-74c29 -3 52 -9 63 -13v-86h-52l-8 35c-6 1 -13 1 -18 1c-39 0 -52 -14 -52 -47
c0 -26 10 -42 35 -64l41 -35c44 -37 63 -74 63 -124z" />
    <glyph glyph-name="dollar.numerator" unicode="&#xe131;" horiz-adv-x="254" 
d="M227 422c0 -68 -28 -104 -72 -118v-80h-64v74c-32 2 -58 9 -69 14v87h52l8 -37h16c42 0 57 19 57 59c0 29 -9 45 -35 68l-43 39c-40 36 -60 66 -60 119c0 57 26 93 74 105v77h64v-74c29 -3 52 -9 63 -13v-86h-52l-8 35c-6 1 -13 1 -18 1c-39 0 -52 -14 -52 -47
c0 -26 10 -42 35 -64l41 -35c44 -37 63 -74 63 -124z" />
    <glyph glyph-name="dollar.taboldstyle" unicode="&#xe42f;" horiz-adv-x="289" 
d="M254 133c0 -64 -23 -114 -76 -132v-90h-71v83c-32 3 -59 13 -71 19v108h56l10 -56h18c47 0 58 21 58 68c0 45 -17 67 -63 122l-15 18c-53 65 -65 108 -65 159c0 55 21 101 72 118v86h71v-80c30 -3 53 -12 70 -19v-97h-56l-11 45h-15c-38 0 -55 -13 -55 -53
c0 -35 8 -61 47 -106l17 -20c62 -75 79 -105 79 -173z" />
    <glyph glyph-name="dollar.inferior" unicode="&#xf6e3;" horiz-adv-x="254" 
d="M227 119c0 -68 -28 -104 -72 -118v-80h-64v74c-32 2 -58 9 -69 14v87h52l8 -37h16c42 0 57 19 57 59c0 29 -9 45 -35 68l-43 39c-40 36 -60 66 -60 119c0 57 26 93 74 105v77h64v-74c29 -3 52 -9 63 -13v-86h-52l-8 35c-6 1 -13 1 -18 1c-39 0 -52 -14 -52 -47
c0 -26 10 -42 35 -64l41 -35c44 -37 63 -74 63 -124z" />
    <glyph glyph-name="dollar.superior" unicode="&#xf6e4;" horiz-adv-x="254" 
d="M232 422c0 -68 -28 -104 -72 -118v-80h-64v74c-32 2 -58 9 -69 14v87h52l8 -37h16c42 0 57 19 57 59c0 29 -9 45 -35 68l-43 39c-40 36 -60 66 -60 119c0 57 26 93 74 105v77h64v-74c29 -3 52 -9 63 -13v-86h-52l-8 35c-6 1 -13 1 -18 1c-39 0 -52 -14 -52 -47
c0 -26 10 -42 35 -64l41 -35c44 -37 63 -74 63 -124z" />
    <glyph glyph-name="dotlessj" unicode="&#xf6be;" horiz-adv-x="159" 
d="M124 -101c0 -58 -13 -107 -74 -107c-24 0 -46 5 -58 9v58c10 -1 18 -1 29 -1c22 0 27 6 27 41v577l-31 5v69h107v-651z" />
    <glyph glyph-name="d.superior" unicode="&#xf6eb;" horiz-adv-x="284" 
d="M259 300h-86v15c-16 -13 -39 -21 -64 -21c-63 0 -84 49 -84 131v77c0 103 34 139 108 139c12 0 24 -1 36 -3v68l-29 3v52h98v-403l21 -3v-55zM170 365v214c-12 2 -24 4 -33 4c-30 0 -42 -11 -42 -81v-77c0 -53 6 -71 35 -71c13 0 27 4 40 11z" />
    <glyph glyph-name="emdash.cap" unicode="&#xe13d;" horiz-adv-x="409" 
d="M394 358h-379v69h379v-69z" />
    <glyph glyph-name="endash.cap" unicode="&#xe13e;" horiz-adv-x="254" 
d="M239 358h-224v69h224v-69z" />
    <glyph glyph-name="e.superior" unicode="&#xf6ec;" horiz-adv-x="269" 
d="M244 445h-150v-8c0 -71 7 -87 58 -87c24 0 54 3 82 8v-51c-16 -6 -52 -13 -89 -13c-87 0 -120 37 -120 148v46c0 104 33 153 109 153c83 0 110 -56 110 -154v-42zM175 493v7c0 57 -5 84 -40 84s-41 -27 -41 -84v-7h81z" />
    <glyph glyph-name="exclamdbl" unicode="&#x203c;" horiz-adv-x="315" 
d="M267 0h-75v127h75v-127zM189 760h81l-6 -564h-69zM123 127v-127h-75v127h75zM126 760l-6 -564h-69l-6 564h81z" />
    <glyph glyph-name="exclamdown.cap" unicode="&#xe142;" horiz-adv-x="171" 
d="M126 -17h-81l6 564h69zM123 743v-127h-75v127h75z" />
    <glyph glyph-name="figuredash" unicode="&#x2012;" horiz-adv-x="602" 
d="M587 258h-572v69h572v-69z" />
    <glyph glyph-name="florin.taboldstyle" unicode="&#xe435;" horiz-adv-x="304" 
d="M269 546l-3 -57c-13 1 -20 2 -30 2c-22 0 -27 -7 -30 -47l-9 -119h63l-5 -69h-63l-18 -258c-6 -88 -39 -113 -87 -113c-23 0 -40 5 -52 10l3 56c17 -1 20 -1 30 -1c23 0 27 9 30 47l19 259h-58l5 69h58l8 118c6 88 41 113 87 113c23 0 40 -5 52 -10z" />
    <glyph glyph-name="guillemotleft.cap" unicode="&#xe134;" horiz-adv-x="406" 
d="M381 130h-85l-102 206l102 206h85l-99 -206zM212 130l-99 206l99 206h-85l-102 -206l102 -206h85z" />
    <glyph glyph-name="guillemotright.cap" unicode="&#xe135;" horiz-adv-x="406" 
d="M382 336l-102 -206h-85l99 206l-99 206h85zM212 336l-102 206h-85l99 -206l-99 -206h85z" />
    <glyph glyph-name="guilsinglleft.cap" unicode="&#xe136;" horiz-adv-x="237" 
d="M212 130h-85l-102 206l102 206h85l-99 -206z" />
    <glyph glyph-name="guilsinglright.cap" unicode="&#xe137;" horiz-adv-x="237" 
d="M212 336l-102 -206h-85l99 206l-99 206h85z" />
    <glyph glyph-name="h.superior" unicode="&#xf700;" horiz-adv-x="306" 
d="M281 300h-91v229c0 42 -5 53 -27 53c-16 0 -33 -7 -46 -16v-208l21 -3v-55h-113v55l22 3v346l-22 3v54h92v-140c16 11 41 20 67 20c66 0 76 -50 76 -109v-174l21 -3v-55z" />
    <glyph glyph-name="hyphen.cap" unicode="&#xe13f;" horiz-adv-x="183" 
d="M168 358h-153v69h153v-69z" />
    <glyph glyph-name="hyphen.denominator" unicode="&#xe11c;" horiz-adv-x="143" 
d="M126 148h-110v57h110v-57z" />
    <glyph glyph-name="hyphen.numerator" unicode="&#xe132;" horiz-adv-x="143" 
d="M126 452h-110v57h110v-57z" />
    <glyph glyph-name="hyphen.inferior" unicode="&#xf6e5;" horiz-adv-x="143" 
d="M126 148h-110v57h110v-57z" />
    <glyph glyph-name="hyphen.superior" unicode="&#xf6e6;" horiz-adv-x="143" 
d="M126 452h-110v57h110v-57z" />
    <glyph glyph-name="i.superior" unicode="&#x2071;" horiz-adv-x="162" 
d="M137 300h-112v55l22 3v220l-22 3v55h91v-278l21 -3v-55zM117 691h-72v70h72v-70z" />
    <glyph glyph-name="lira" unicode="&#x20a4;" horiz-adv-x="318" 
d="M298 0h-258v67c26 32 26 101 26 127v54h-46v62h46v78h-46v62h46v72c0 163 24 228 132 228c53 0 88 -16 100 -21v-103h-58l-11 49c-7 1 -10 1 -17 1c-62 0 -67 -25 -67 -154v-72h118v-62h-118v-78h118v-62h-118v-54c0 -25 0 -74 -29 -123h182v-71z" />
    <glyph glyph-name="lira.taboldstyle" unicode="&#xe434;" horiz-adv-x="310" 
d="M270 0h-224v62c19 23 22 65 22 89v23h-33v59h33v54h-33v60h33v33c0 129 26 177 113 177c31 0 72 -8 89 -15v-101h-56l-9 37h-10c-46 0 -50 -16 -50 -98v-33h83v-60h-83v-54h83v-59h-83v-23c0 -20 -1 -50 -18 -77h143v-74z" />
    <glyph glyph-name="l.superior" unicode="&#xf6ee;" horiz-adv-x="162" 
d="M137 300h-112v55l21 3v346l-21 3v54h90v-403l22 -3v-55z" />
    <glyph glyph-name="m.superior" unicode="&#xf6ef;" horiz-adv-x="424" 
d="M399 300h-91v240c0 29 -1 43 -22 43c-12 0 -28 -8 -40 -16c1 -10 1 -18 1 -27v-240h-70v240c0 29 0 43 -21 43c-13 0 -30 -9 -40 -17v-208l21 -3v-55h-112v55l21 3v220l-21 3v55h87v-22c21 20 46 27 68 27c26 0 42 -9 54 -27c24 19 48 27 70 27c68 0 74 -51 74 -101v-182
l21 -3v-55z" />
    <glyph glyph-name="n.superior" unicode="&#x207f;" horiz-adv-x="306" 
d="M281 300h-91v229c0 42 -5 53 -27 53c-16 0 -33 -7 -46 -16v-208l21 -3v-55h-113v55l22 3v221l-22 3v54h92v-15c16 11 41 20 67 20c66 0 76 -50 76 -109v-174l21 -3v-55z" />
    <glyph glyph-name="numbersign.taboldstyle" unicode="&#xe436;" horiz-adv-x="355" 
d="M303 141h-55l-7 -141h-60l7 141h-43l-8 -141h-59l7 141h-33v61h36l8 137h-44v61h47l8 150h60l-9 -150h44l9 150h59l-8 -150h41v-61h-44l-8 -137h52v-61zM199 339h-44l-7 -137h44z" />
    <glyph glyph-name="onedotenleader" unicode="&#x2024;" horiz-adv-x="125" 
d="M100 0h-75v133h75v-133z" />
    <glyph glyph-name="o.superior" unicode="&#xf6f0;" horiz-adv-x="269" 
d="M244 433c0 -101 -39 -139 -110 -139c-69 0 -109 38 -109 139v70c0 101 40 138 109 138c71 0 110 -37 110 -138v-70zM175 433v70c0 61 -12 79 -41 79c-28 0 -40 -17 -40 -79v-70c0 -62 12 -80 40 -80c29 0 41 18 41 80z" />
    <glyph glyph-name="overscore" unicode="&#x203e;" horiz-adv-x="258" 
d="M285 826h-312v52h312v-52z" />
    <glyph glyph-name="parenleft.cap" unicode="&#xe140;" horiz-adv-x="196" 
d="M172 0h-65c-38 89 -69 235 -69 371v6c0 136 30 276 68 366h65c-34 -97 -60 -232 -60 -366v-6c0 -136 27 -274 61 -371z" />
    <glyph glyph-name="parenleft.denominator" unicode="&#xe117;" horiz-adv-x="186" 
d="M166 -78h-71c-27 56 -60 142 -60 260v5c0 118 33 204 60 260h71c-27 -60 -57 -145 -57 -260v-5c0 -115 30 -200 57 -260z" />
    <glyph glyph-name="parenleft.numerator" unicode="&#xe12b;" horiz-adv-x="186" 
d="M166 226h-71c-27 56 -60 142 -60 260v5c0 118 33 204 60 260h71c-27 -60 -57 -145 -57 -260v-5c0 -115 30 -200 57 -260z" />
    </font>
</defs>
</svg>
