<?xml version="1.0" standalone="no"?>
<!DOCTYPE svg PUBLIC "-//W3C//DTD SVG 1.1//EN" "http://www.w3.org/Graphics/SVG/1.1/DTD/svg11.dtd" >
<svg xmlns="http://www.w3.org/2000/svg" xmlns:xlink="http://www.w3.org/1999/xlink" version="1.1">
<metadata>
Created by FontForge 20141024 at Thu Apr 30 19:23:40 2015
 By System Administrator
Copyright (c) 2007 Monotype Imaging Inc. Soho is designed by Sebastian Lester. All rights reserved.
</metadata>
<defs>
<font id="SohoPro-UltraExtendedUltra" horiz-adv-x="1086" >
  <font-face 
    font-family="Soho Pro"
    font-weight="1000"
    font-stretch="normal"
    units-per-em="1000"
    panose-1="2 4 11 7 7 5 6 2 2 4"
    ascent="793"
    descent="-207"
    x-height="606"
    cap-height="743"
    bbox="-186 -236 2336 1233"
    underline-thickness="131"
    underline-position="14"
    stemh="142"
    stemv="415"
    unicode-range="U+000D-FB16"
  />
<missing-glyph horiz-adv-x="266" 
 />
    <glyph glyph-name="f_f" unicode="ff" horiz-adv-x="1312" 
d="M1287 383h-128v-145l36 -4v-234h-487v234l36 4v145h-197v-145l36 -4v-234h-487v234l36 4v145l-107 11v212h107v12c0 172 153 194 301 194c86 0 178 -9 242 -21v-161c-64 2 -75 2 -84 2c-32 0 -44 -4 -44 -23v-3h197v12c0 172 153 194 301 194c86 0 177 -9 242 -21v-161
c-63 2 -74 2 -84 2c-32 0 -44 -4 -44 -23v-3h128v-223z" />
    <glyph glyph-name="f_i" unicode="fi" horiz-adv-x="1222" 
d="M1197 0h-488v233l36 5v145h-199v-145l36 -5v-233h-487v233l36 5v145l-106 10v213h106v12c0 172 153 194 301 194c87 0 178 -9 243 -21v-161c-64 2 -75 2 -85 2c-32 0 -44 -4 -44 -23v-3h614v-368l37 -5v-233zM1171 639h-437v154h437v-154z" />
    <glyph glyph-name="f_l" unicode="fl" horiz-adv-x="1221" 
d="M1196 0h-487v234l36 4v392c-64 2 -117 2 -154 2c-31 0 -44 -2 -44 -23v-3h128v-223h-128v-145l36 -4v-234h-487v234l36 4v145l-107 11v212h107v3c0 169 125 203 318 203c64 0 229 -12 295 -19h415v-555l36 -4v-234z" />
    <glyph glyph-name="f_f_i" unicode="ffi" horiz-adv-x="1835" 
d="M1810 0h-487v234l36 4v145h-199v-145l36 -4v-234h-487v234l36 4v145h-198v-145l36 -4v-234h-487v234l36 4v145l-107 11v212h107v12c0 172 153 194 301 194c86 0 178 -9 242 -21v-161c-64 2 -75 2 -84 2c-32 0 -44 -4 -44 -23v-3h198v12c0 172 153 194 301 194
c87 0 177 -9 243 -21v-161c-64 2 -75 2 -85 2c-32 0 -44 -4 -44 -23v-3h614v-368l36 -4v-234zM1785 639h-437v154h437v-154z" />
    <glyph glyph-name="f_f_l" unicode="ffl" horiz-adv-x="1835" 
d="M1810 0h-487v234l36 4v392c-64 2 -117 2 -155 2c-30 0 -44 -2 -44 -23v-3h129v-223h-129v-145l36 -4v-234h-487v234l36 4v145h-198v-145l36 -4v-234h-487v234l36 4v145l-107 11v212h107v12c0 172 153 194 301 194c86 0 178 -9 242 -21v-161c-64 2 -75 2 -84 2
c-32 0 -44 -4 -44 -23v-3h198v3c0 169 126 203 319 203c64 0 229 -12 295 -19h415v-555l36 -4v-234z" />
    <glyph glyph-name="f_b" unicode="fb" horiz-adv-x="1714" 
d="M1165 793v-171c9 1 49 4 111 4c254 0 408 -80 408 -319v-13c0 -252 -199 -315 -465 -315c-134 0 -222 2 -469 20v631c-64 2 -119 2 -156 2c-31 0 -42 -2 -42 -19v-7h128v-223h-128v-145l36 -4v-234h-487v234l36 4v145l-107 11v212h107v9c0 163 124 197 315 197
c92 0 234 -12 298 -19h415zM1273 294v13c0 64 -7 87 -60 87c-18 0 -38 -3 -46 -4v-177c8 -1 28 -3 46 -3c53 0 60 21 60 84z" />
    <glyph glyph-name="f_f_b" unicode="ffb" horiz-adv-x="2328" 
d="M2298 294c0 -252 -199 -315 -465 -315c-134 0 -326 9 -469 20v631c-64 2 -119 2 -157 2c-30 0 -42 -2 -42 -23v-3h129v-223h-129v-145l36 -4v-234h-487v234l36 4v145h-198v-145l36 -4v-234h-487v234l36 4v145l-107 11v212h107v12c0 172 153 194 301 194
c86 0 178 -9 242 -21v-161c-64 2 -75 2 -84 2c-32 0 -44 -4 -44 -23v-3h198v3c0 169 125 203 316 203c68 0 234 -12 298 -19h415v-171c9 1 49 4 111 4c254 0 408 -80 408 -319v-13zM1887 294v13c0 64 -7 87 -60 87c-18 0 -38 -3 -46 -4v-177c8 -1 28 -3 46 -3
c53 0 60 21 60 84z" />
    <glyph glyph-name="f_h" unicode="fh" horiz-adv-x="1753" 
d="M1723 0h-451v347c0 42 -9 54 -43 54c-25 0 -50 -6 -64 -12v-151l36 -4v-234h-487v234l36 4v392c-64 2 -119 2 -156 2c-31 0 -42 -2 -42 -23v-3h128v-223h-128v-145l36 -4v-234h-487v234l36 4v145l-107 11v212h107v3c0 169 124 203 315 203c92 0 234 -12 298 -19h415v-203
c81 32 163 36 216 36c306 0 306 -151 306 -279v-109l36 -4v-234z" />
    <glyph glyph-name="f_f_h" unicode="ffh" horiz-adv-x="2366" 
d="M2336 0h-450v347c0 42 -10 54 -44 54c-24 0 -50 -6 -64 -12v-151l36 -4v-234h-487v234l36 4v392c-63 2 -118 2 -156 2c-30 0 -42 -2 -42 -23v-3h128v-223h-128v-145l36 -4v-234h-487v234l36 4v145h-198v-145l36 -4v-234h-487v234l36 4v145l-107 11v212h107v12
c0 172 153 194 301 194c86 0 178 -9 242 -21v-161c-64 2 -75 2 -84 2c-32 0 -44 -4 -44 -23v-3h198v3c0 169 125 203 316 203c68 0 234 -12 297 -19h415v-205c81 32 162 36 216 36c306 0 306 -149 306 -277v-109l36 -4v-234z" />
    <glyph glyph-name="f_j" unicode="fj" horiz-adv-x="1220" 
d="M1179 26c0 -184 -95 -240 -335 -240c-105 0 -169 6 -183 8v188c38 -1 43 -1 52 -1c45 0 51 11 51 45v357h-212v-145l36 -4v-234h-487v234l36 4v145l-107 11v212h107v12c0 172 153 194 301 194c86 0 178 -9 242 -21v-161c-64 2 -75 2 -84 2c-32 0 -44 -4 -44 -23v-3h627
v-580zM1190 639h-437v154h437v-154z" />
    <glyph glyph-name="f_f_j" unicode="ffj" horiz-adv-x="1834" 
d="M1792 26c0 -184 -94 -240 -334 -240c-106 0 -166 6 -183 8v188c37 -1 41 -1 51 -1c46 0 51 11 51 45v357h-212v-145l36 -4v-234h-487v234l36 4v145h-198v-145l36 -4v-234h-487v234l36 4v145l-107 11v212h107v12c0 172 153 194 301 194c86 0 178 -9 242 -21v-161
c-64 2 -75 2 -84 2c-32 0 -44 -4 -44 -23v-3h198v12c0 172 153 194 301 194c87 0 177 -9 243 -21v-161c-64 2 -75 2 -85 2c-32 0 -44 -4 -44 -23v-3h627v-580zM1804 639h-438v154h438v-154z" />
    <glyph glyph-name="f_k" unicode="fk" horiz-adv-x="1689" 
d="M1659 0h-328l-166 266v-266h-451v234l36 4v392c-64 2 -119 2 -157 2c-30 0 -42 -2 -42 -23v-3h129v-223h-129v-145l36 -4v-234h-487v234l36 4v145l-106 11v212h106v3c0 169 125 203 316 203c92 0 234 -12 298 -19h415v-467l185 280h309v-234l-68 -10l-49 -50l64 -68
l53 -10v-234z" />
    <glyph glyph-name="f_f_k" unicode="ffk" horiz-adv-x="2304" 
d="M2273 0h-328l-166 266v-266h-451v234l36 4v392c-64 2 -120 2 -157 2c-30 0 -42 -2 -42 -23v-3h128v-223h-128v-145l36 -4v-234h-487v234l36 4v145h-199v-145l36 -4v-234h-487v234l36 4v145l-106 9v214h106v12c0 172 153 194 301 194c87 0 178 -9 243 -21v-161
c-64 2 -75 2 -85 2c-32 0 -44 -4 -44 -23v-3h199v3c0 169 124 203 316 203c91 0 234 -12 298 -19h415v-467l185 280h310v-234l-67 -10l-52 -50l65 -68l53 -10v-234z" />
    <glyph glyph-name=".notdef" horiz-adv-x="266" 
 />
    <glyph glyph-name="CR" unicode="&#xd;" horiz-adv-x="266" 
 />
    <glyph glyph-name="space" unicode=" " horiz-adv-x="266" 
 />
    <glyph glyph-name="exclam" unicode="!" horiz-adv-x="491" 
d="M443 0h-399v213h399v-213zM461 793l-34 -527h-366l-31 527h431z" />
    <glyph glyph-name="quotedbl" unicode="&#x22;" horiz-adv-x="930" 
d="M900 787l-176 -310h-259l116 310h319zM465 787h-320l-115 -310h260z" />
    <glyph glyph-name="numbersign" unicode="#" horiz-adv-x="1094" 
d="M1064 135h-155l-24 -135h-343l25 135h-116l-25 -135h-342l25 135h-79v173h107l19 97h-126v173h155l29 165h342l-29 -165h116l28 165h342l-28 -165h79v-173h-107l-19 -97h126v-173zM614 405h-115l-19 -97h116z" />
    <glyph glyph-name="dollar" unicode="$" horiz-adv-x="1002" 
d="M972 248c0 -176 -124 -244 -293 -266v-127h-309v120c-72 3 -168 10 -305 23v242h230l10 -28c70 -2 100 -2 149 -2c56 0 70 1 70 14c0 11 -8 12 -84 20l-74 7c-178 17 -336 52 -336 256c0 171 132 240 340 258v114h309v-116c84 -6 211 -21 251 -26v-227h-231l-11 31
c-52 2 -102 2 -153 2c-42 0 -65 0 -65 -12c0 -15 8 -17 101 -26l65 -6c240 -22 336 -85 336 -251z" />
    <glyph glyph-name="percent" unicode="%" horiz-adv-x="1680" 
d="M1650 223c0 -181 -117 -237 -306 -237c-190 0 -305 56 -305 237v2c0 181 115 237 305 237c189 0 306 -56 306 -237v-2zM1370 222v4c0 76 -5 88 -26 88c-22 0 -27 -12 -27 -88v-4c0 -75 5 -87 27 -87c21 0 26 12 26 87zM1381 754l-786 -754h-310l787 754h309zM641 531
c0 -181 -117 -237 -306 -237c-190 0 -305 56 -305 237v2c0 181 115 237 305 237c189 0 306 -56 306 -237v-2zM362 530v4c0 76 -5 88 -27 88c-21 0 -26 -12 -26 -88v-4c0 -75 5 -88 26 -88c22 0 27 13 27 88z" />
    <glyph glyph-name="ampersand" unicode="&#x26;" horiz-adv-x="1259" 
d="M1223 358l-41 -18c0 -72 -27 -125 -70 -176l117 -68v-96h-348l-30 25c-43 -19 -161 -44 -331 -44c-292 0 -490 32 -490 244v6c0 130 85 160 186 186l-12 7c-79 44 -107 95 -107 142v5c0 148 132 199 439 199c151 0 314 -18 412 -33v-238h-228l-13 40c-42 1 -72 1 -127 1
c-28 0 -50 0 -50 -20v-2c0 -11 9 -18 27 -28l318 -186c3 13 4 28 4 36l-40 18v96h384v-96zM627 161l-150 102c-15 -9 -18 -24 -18 -36v-5c0 -43 51 -67 107 -67c18 0 40 3 61 6z" />
    <glyph glyph-name="quotesingle" unicode="'" horiz-adv-x="475" 
d="M455 787l-175 -310h-260l115 310h320z" />
    <glyph glyph-name="parenleft" unicode="(" horiz-adv-x="597" 
d="M567 -194h-359c-72 73 -178 259 -178 467v3c0 208 106 394 178 467h359c-104 -173 -135 -305 -135 -467v-3c0 -162 31 -294 135 -467z" />
    <glyph glyph-name="parenright" unicode=")" horiz-adv-x="597" 
d="M566 273c0 -208 -104 -394 -177 -467h-359c104 173 134 305 134 467v3c0 162 -30 294 -134 467h359c73 -73 177 -259 177 -467v-3z" />
    <glyph glyph-name="asterisk" unicode="*" horiz-adv-x="665" 
d="M635 515l-57 -17c-26 -7 -55 -11 -88 -12c28 -18 48 -37 63 -56l35 -44l-182 -118l-35 43c-16 19 -28 43 -39 70c-11 -28 -24 -51 -40 -70l-36 -43l-180 119l35 43c15 19 36 38 62 56c-33 1 -62 4 -87 12l-56 18l70 192l55 -17c26 -8 52 -20 78 -37c-10 29 -14 55 -14 79
v54h225v-54c0 -24 -5 -50 -15 -79c26 17 54 30 79 37l57 17z" />
    <glyph glyph-name="plus" unicode="+" horiz-adv-x="800" 
d="M765 240h-224v-201h-284v201h-223v257h223v199h284v-199h224v-257z" />
    <glyph glyph-name="comma" unicode="," horiz-adv-x="619" 
d="M589 218l-248 -318h-311l146 318h413z" />
    <glyph glyph-name="hyphen" unicode="-" horiz-adv-x="431" 
d="M401 189h-371v219h371v-219z" />
    <glyph glyph-name="period" unicode="." horiz-adv-x="502" 
d="M462 0h-422v217h422v-217z" />
    <glyph glyph-name="slash" unicode="/" horiz-adv-x="848" 
d="M818 743l-345 -743h-443l347 743h441z" />
    <glyph glyph-name="zero" unicode="0" horiz-adv-x="1085" 
d="M1055 368c0 -303 -196 -395 -512 -395c-318 0 -513 92 -513 395v8c0 303 195 394 513 394c316 0 512 -91 512 -394v-8zM587 367v10c0 125 -8 144 -44 144c-37 0 -45 -19 -45 -144v-10c0 -125 8 -145 45 -145c36 0 44 20 44 145z" />
    <glyph glyph-name="one" unicode="1" horiz-adv-x="880" 
d="M850 0h-820v236l179 12v205l-179 -24v233l316 81h325v-495l179 -12v-236z" />
    <glyph glyph-name="two" unicode="2" horiz-adv-x="1011" 
d="M961 0h-931v88c0 218 85 305 313 371c162 47 164 52 164 67c0 13 -9 18 -96 18c-21 0 -68 -1 -126 -4l-3 -37h-240v213c167 45 354 54 467 54c359 0 472 -77 472 -217c0 -139 -98 -210 -332 -264c-155 -36 -165 -36 -165 -40v-1h232l5 41h240v-289z" />
    <glyph glyph-name="three" unicode="3" horiz-adv-x="1004" 
d="M974 215c0 -176 -138 -242 -476 -242c-185 0 -384 29 -468 61v213h240l3 -36c61 -2 118 -2 162 -2c69 0 85 9 85 27v2c0 24 -17 27 -114 27h-258v209h262c89 0 110 9 110 32v3c0 20 -12 29 -84 29c-51 0 -107 -1 -163 -3l-3 -33h-240v207c97 32 283 61 468 61
c249 0 476 -32 476 -217v-8c0 -45 -17 -131 -98 -169c85 -31 98 -120 98 -153v-8z" />
    <glyph glyph-name="four" unicode="4" horiz-adv-x="1090" 
d="M1060 122h-104v-39l43 -4v-79h-548v79l44 4v39h-465v194l604 427h322v-405h104v-216zM527 338v122l-162 -122h162z" />
    <glyph glyph-name="five" unicode="5" horiz-adv-x="983" 
d="M953 238c0 -186 -176 -265 -457 -265c-202 0 -358 19 -459 47v221h232l7 -41c30 -1 52 -1 62 -1c112 0 144 4 144 33v6c0 27 -35 31 -124 31h-328l55 474h845v-253h-233l-5 23h-253l-3 -30h37c408 0 480 -55 480 -239v-6z" />
    <glyph glyph-name="six" unicode="6" horiz-adv-x="1031" 
d="M1001 249c0 -170 -118 -276 -480 -276c-490 0 -490 251 -490 402v2c1 182 -1 393 469 393c191 0 364 -28 442 -46v-216h-233l-7 27c-44 1 -91 3 -131 3c-72 0 -89 0 -89 -42v-8c25 5 77 7 93 7c277 0 426 -46 426 -239v-7zM555 248v6c0 34 0 51 -35 51
c-16 0 -36 -3 -38 -4v-47c0 -35 3 -63 37 -63c33 0 36 29 36 57z" />
    <glyph glyph-name="seven" unicode="7" horiz-adv-x="1035" 
d="M1005 504l-455 -504h-485l464 513h-206l-7 -41h-233v271h922v-239z" />
    <glyph glyph-name="eight" unicode="8" 
d="M1056 216c0 -165 -127 -243 -507 -243h-11c-380 0 -507 78 -507 243v4c0 60 28 118 101 154c-60 33 -102 69 -102 169v5c0 159 133 222 508 222h11c374 0 507 -63 507 -222v-5c0 -100 -41 -136 -101 -169c73 -36 101 -94 101 -154v-4zM612 228v6c0 32 -16 54 -63 54h-11
c-47 0 -63 -22 -63 -54v-6c0 -33 16 -54 63 -54h11c47 0 63 21 63 54zM609 518v6c0 24 -11 43 -60 43h-11c-49 0 -60 -19 -60 -43v-6c0 -25 12 -43 60 -43h11c48 0 60 18 60 43z" />
    <glyph glyph-name="nine" unicode="9" horiz-adv-x="1031" 
d="M1000 379c0 -175 0 -406 -469 -406c-191 0 -365 28 -442 45v216h231l7 -28c52 -1 105 -1 154 -1c51 0 68 5 68 42v8c-25 -5 -78 -7 -93 -7c-277 0 -426 50 -426 238v8c0 164 118 276 480 276c490 0 490 -237 490 -378v-13zM549 442v47c0 35 -1 63 -38 63
c-36 0 -36 -30 -36 -57v-6c0 -34 0 -51 35 -51c16 0 36 3 39 4z" />
    <glyph glyph-name="colon" unicode=":" horiz-adv-x="521" 
d="M471 0h-421v218h421v-218zM471 606v-217h-421v217h421z" />
    <glyph glyph-name="semicolon" unicode=";" horiz-adv-x="630" 
d="M600 219l-256 -317h-314l144 317h426zM597 389h-422v217h422v-217z" />
    <glyph glyph-name="less" unicode="&#x3c;" horiz-adv-x="800" 
d="M775 59h-398l-352 309l352 309h398l-339 -309z" />
    <glyph glyph-name="equal" unicode="=" horiz-adv-x="800" 
d="M772 54h-744v257h744v-257zM772 429h-744v257h744v-257z" />
    <glyph glyph-name="greater" unicode="&#x3e;" horiz-adv-x="800" 
d="M775 368l-351 -309h-399l340 309l-340 309h399z" />
    <glyph glyph-name="question" unicode="?" horiz-adv-x="828" 
d="M520 0h-421v216h421v-216zM477 268v-4h-335v3c0 86 1 134 57 192c61 62 72 64 72 84c0 17 -14 21 -35 21c-11 0 -23 -1 -27 -1l-6 -34h-173v233c65 21 194 43 372 43c271 0 396 -65 396 -191v-7c0 -98 -48 -153 -169 -222c-151 -86 -152 -78 -152 -117z" />
    <glyph glyph-name="at" unicode="@" horiz-adv-x="1282" 
d="M1252 344c0 -181 -129 -316 -569 -316c-238 0 -388 14 -388 178c0 22 1 43 5 62c29 161 167 231 368 231c121 0 213 -13 297 -26l-44 -284c100 4 147 58 147 155c0 176 -184 221 -398 221c-203 0 -366 -55 -426 -192c-20 -46 -30 -100 -30 -162c0 -232 179 -248 398 -248
c88 0 219 5 281 8v-76c-59 -8 -198 -16 -281 -16c-363 0 -582 78 -582 332c0 74 13 139 39 195c91 193 342 265 601 265c320 0 582 -90 582 -327zM662 346c-8 2 -17 3 -23 3c-43 0 -59 -9 -70 -74c-6 -38 -7 -60 -7 -74c0 -22 9 -33 40 -33h32z" />
    <glyph glyph-name="A" unicode="A" horiz-adv-x="1242" 
d="M1212 0h-472l-19 94h-202l-20 -94h-469v241l57 5l78 251l-55 5v241h895l148 -497l59 -5v-241zM681 319l-42 185c-6 28 -13 69 -17 97h-2c-4 -29 -13 -69 -19 -97l-39 -185h119z" />
    <glyph glyph-name="B" unicode="B" horiz-adv-x="1124" 
d="M1094 235c0 -236 -251 -262 -594 -262c-78 0 -275 8 -470 27v241l43 5v251l-43 5v241c208 21 402 27 469 27c385 0 587 -47 587 -232v-8c0 -59 -16 -114 -81 -150c70 -31 89 -90 89 -140v-5zM661 241v2c0 28 -24 32 -102 32h-54v-69c12 -2 31 -3 54 -3c82 0 102 5 102 38
zM661 500v4c0 31 -34 33 -109 33c-13 0 -33 -1 -47 -3v-71h47c96 0 109 6 109 37z" />
    <glyph glyph-name="C" unicode="C" horiz-adv-x="926" 
d="M896 2c-57 -16 -258 -29 -321 -29c-402 0 -545 124 -545 396v6c0 272 143 395 545 395c63 0 264 -13 321 -29v-269h-240l-8 41h-14c-89 0 -134 -11 -134 -138v-6c0 -130 45 -139 134 -139h14l8 41h240v-269z" />
    <glyph glyph-name="D" unicode="D" horiz-adv-x="1145" 
d="M1115 369c0 -304 -204 -396 -547 -396c-168 0 -383 12 -538 34v234l56 6v256l-56 6v234c153 20 370 27 538 27c343 0 547 -92 547 -395v-6zM669 369v6c0 122 0 148 -94 148c-10 0 -24 0 -49 -1v-301c18 -1 39 -1 49 -1c94 0 94 26 94 149z" />
    <glyph glyph-name="E" unicode="E" horiz-adv-x="959" 
d="M929 0h-899v241l45 4v252l-45 5v241h899v-242h-229l-9 19h-150v-41h358v-212h-358v-43h149l10 21h229v-245z" />
    <glyph glyph-name="F" unicode="F" horiz-adv-x="958" 
d="M898 264h-359v-19l44 -4v-241h-553v241l43 5v251l-43 5v241h898v-248h-230l-9 19h-150v-40h359v-210z" />
    <glyph glyph-name="G" unicode="G" horiz-adv-x="1044" 
d="M1009 13c-124 -23 -304 -40 -474 -40c-263 0 -505 69 -505 397v6c0 336 242 394 508 394c168 0 358 -23 471 -43v-252h-228l-11 36c-38 1 -97 2 -132 2c-118 0 -164 -2 -164 -137v-6c0 -108 9 -139 76 -139c18 0 37 0 56 2v32l-47 9v180h450v-441z" />
    <glyph glyph-name="H" unicode="H" horiz-adv-x="1292" 
d="M1262 0h-509v247h-214v-247h-509v241l43 5v251l-43 5v241h509v-249h214v249h509v-241l-43 -5v-251l43 -5v-241z" />
    <glyph glyph-name="I" unicode="I" horiz-adv-x="613" 
d="M583 0h-553v241l43 5v251l-43 5v241h553v-241l-44 -5v-251l44 -5v-241z" />
    <glyph glyph-name="J" unicode="J" horiz-adv-x="613" 
d="M582 502l-43 -5v-432c0 -193 -124 -276 -370 -276c-73 0 -145 4 -185 8v183h35c50 0 54 15 54 55v462l-44 5v241h553v-241z" />
    <glyph glyph-name="K" unicode="K" horiz-adv-x="1243" 
d="M1208 0h-450l-217 338v-338h-511v241l45 5v251l-45 5v241h511v-351l247 351h425v-241l-69 -5l-120 -126l113 -124l71 -6v-241z" />
    <glyph glyph-name="L" unicode="L" horiz-adv-x="853" 
d="M823 0h-793v241l45 5v251l-45 5v241h554v-241l-43 -5v-251h39l13 56h230v-302z" />
    <glyph glyph-name="M" unicode="M" horiz-adv-x="1428" 
d="M1398 0h-484v201c0 34 0 73 4 106h-2c-18 -19 -42 -41 -62 -59l-87 -78h-111l-88 78c-20 17 -43 40 -61 59h-2c2 -33 2 -72 2 -106v-201h-477v241l38 5v251l-38 5v241h411l203 -189c21 -20 43 -38 66 -61h2c23 23 45 42 65 61l205 189h416v-241l-43 -5v-251l43 -5v-241z
" />
    <glyph glyph-name="N" unicode="N" horiz-adv-x="1228" 
d="M1198 502l-43 -5v-497h-390l-221 208c-16 15 -40 36 -54 50h-3c2 -26 2 -56 2 -83v-175h-459v241l45 5v251l-45 5v241h413l243 -218c14 -13 40 -35 54 -49h2c-2 28 -2 55 -2 80v187h458v-241z" />
    <glyph glyph-name="O" unicode="O" horiz-adv-x="1108" 
d="M1078 369c0 -321 -245 -396 -524 -396s-524 75 -524 396v6c0 316 245 395 524 395s524 -79 524 -395v-6zM636 369v6c0 99 -11 139 -82 139s-82 -40 -82 -139v-6c0 -110 20 -139 82 -139s82 29 82 139z" />
    <glyph glyph-name="P" unicode="P" horiz-adv-x="1138" 
d="M1113 483c0 -259 -258 -294 -521 -294c-31 0 -39 1 -89 3v-192h-473v241l43 5v251l-43 5v241c150 19 342 27 498 27c329 0 585 -39 585 -284v-3zM680 483v3c0 40 -41 40 -103 40c-29 0 -64 -2 -74 -3v-81c16 -1 45 -2 73 -2c63 0 104 0 104 43z" />
    <glyph glyph-name="Q" unicode="Q" horiz-adv-x="1109" 
d="M1079 360c0 -239 -146 -336 -328 -370v-3c0 -13 9 -13 54 -13h115v-165c-73 -15 -196 -30 -298 -30c-140 0 -279 32 -279 210v3c-176 37 -313 135 -313 368v22c0 316 259 388 524 388s525 -72 525 -388v-22zM636 358v27c0 99 -18 129 -82 129c-65 0 -82 -30 -82 -129v-27
c0 -99 20 -128 82 -128s82 29 82 128z" />
    <glyph glyph-name="R" unicode="R" horiz-adv-x="1135" 
d="M1105 0h-342l-179 221h-34h-46v-221h-474v241l43 5v251l-43 5v241c115 14 324 27 543 27c281 0 532 -33 532 -273v-3c0 -106 -35 -165 -107 -214l40 -34l67 -5v-241zM672 481v3c0 34 -18 42 -101 42c-29 0 -33 0 -68 -3v-81c22 -2 43 -2 68 -2c83 0 101 8 101 41z" />
    <glyph glyph-name="S" unicode="S" horiz-adv-x="992" 
d="M962 253c0 -238 -209 -280 -446 -280c-167 0 -336 7 -456 25v232h229l11 -29h149c59 0 70 4 70 17s-11 14 -101 22l-61 5c-178 15 -327 44 -327 257c0 237 215 268 493 268c151 0 303 -18 401 -33v-217h-231l-12 31h-151c-55 0 -67 -3 -67 -16c0 -14 17 -17 103 -26
l66 -7c240 -25 330 -83 330 -249z" />
    <glyph glyph-name="T" unicode="T" horiz-adv-x="1021" 
d="M991 466h-208l-16 41h-22v-261l43 -5v-241h-554v241l43 5v261h-23l-15 -41h-209v277h961v-277z" />
    <glyph glyph-name="U" unicode="U" horiz-adv-x="1214" 
d="M1184 502l-44 -5v-167c0 -357 -300 -357 -534 -357c-233 0 -533 0 -533 357v167l-43 5v241h495v-413c0 -82 14 -111 81 -111c69 0 83 29 83 111v413h495v-241z" />
    <glyph glyph-name="V" unicode="V" horiz-adv-x="1184" 
d="M1154 502l-54 -5l-134 -497h-749l-133 497l-54 5v241h451l86 -461c7 -40 16 -82 23 -122h2c7 40 15 82 23 122l88 461h451v-241z" />
    <glyph glyph-name="W" unicode="W" horiz-adv-x="1602" 
d="M1582 502l-55 -5l-107 -497h-484l-105 246c-14 34 -26 77 -30 102h-2c-5 -25 -15 -68 -29 -102l-105 -246h-484l-107 497l-54 5v241h451l33 -249c9 -66 11 -110 12 -149h2c14 43 24 68 39 107l58 150h371l57 -150c15 -39 27 -65 39 -107h2c1 39 4 83 13 149l33 249h452
v-241z" />
    <glyph glyph-name="X" unicode="X" horiz-adv-x="1081" 
d="M1051 0h-405l-114 150l-107 -150h-395v241l71 5l139 146l-141 105l-55 5v241h436l120 -143l99 143h352v-241l-66 -5l-126 -139l111 -112l81 -5v-241z" />
    <glyph glyph-name="Y" unicode="Y" horiz-adv-x="1014" 
d="M984 502l-62 -5l-194 -257v-19l43 -6v-215h-541v215l57 6v19l-195 257l-62 5v241h352l73 -126c18 -32 35 -61 51 -93h4c15 32 32 61 50 93l74 126h350v-241z" />
    <glyph glyph-name="Z" unicode="Z" horiz-adv-x="911" 
d="M881 0h-851v216l288 276h-65l-10 -36h-213v287h851v-215l-290 -277h65l12 36h213v-287z" />
    <glyph glyph-name="bracketleft" unicode="[" horiz-adv-x="650" 
d="M620 -194h-589v937h589v-233h-174v-471h174v-233z" />
    <glyph glyph-name="backslash" unicode="\" horiz-adv-x="849" 
d="M819 0h-444l-345 743h444z" />
    <glyph glyph-name="bracketright" unicode="]" horiz-adv-x="650" 
d="M620 -194h-590v233h174v471h-174v233h590v-937z" />
    <glyph glyph-name="asciicircum" unicode="^" horiz-adv-x="956" 
d="M926 445h-345l-103 215l-103 -215h-345l202 299h492z" />
    <glyph glyph-name="underscore" unicode="_" horiz-adv-x="807" 
d="M812 -181h-817v131h817v-131z" />
    <glyph glyph-name="grave" unicode="`" horiz-adv-x="736" 
d="M706 651h-391l-285 142h484z" />
    <glyph glyph-name="a" unicode="a" horiz-adv-x="952" 
d="M922 0h-409v49c-67 -42 -175 -70 -265 -70c-104 0 -218 35 -218 179v15c0 178 187 189 431 189h10v8c0 28 -12 29 -97 29h-21l-14 -26h-232v200c95 25 234 53 379 53c219 0 400 -51 400 -256v-132l36 -5v-233zM490 177v49h-29c-23 0 -48 -1 -48 -25v-7
c0 -22 14 -28 29 -28c21 0 38 6 48 11z" />
    <glyph glyph-name="b" unicode="b" horiz-adv-x="1005" 
d="M975 294c0 -252 -199 -315 -465 -315c-160 0 -280 4 -469 23v556l-36 6v229h451v-171c9 1 49 4 111 4c254 0 408 -80 408 -319v-13zM564 294v13c0 64 -6 87 -60 87c-17 0 -38 -3 -46 -4v-177c8 -1 29 -3 46 -3c54 0 60 21 60 84z" />
    <glyph glyph-name="c" unicode="c" horiz-adv-x="792" 
d="M762 4c-73 -13 -168 -25 -324 -25c-281 0 -408 113 -408 319v10c0 216 127 318 408 318c156 0 279 -15 324 -25v-246h-210l-10 33c-10 1 -15 1 -23 1c-58 0 -80 -4 -80 -81v-10c0 -79 22 -83 96 -83c44 0 85 0 227 4v-215z" />
    <glyph glyph-name="d" unicode="d" horiz-adv-x="1031" 
d="M1001 0h-423v37c-56 -30 -130 -58 -234 -58c-159 0 -314 67 -314 315v13c0 239 153 319 407 319c62 0 91 -2 111 -4v21l-37 5v145h452v-555l38 -5v-233zM546 211v180c-8 1 -27 3 -47 3c-52 0 -58 -23 -58 -87v-13c0 -65 7 -85 61 -85c11 0 31 1 44 2z" />
    <glyph glyph-name="e" unicode="e" horiz-adv-x="960" 
d="M940 236h-504v-5c0 -30 6 -32 94 -32c73 0 285 -1 355 -1v-190c-88 -14 -209 -29 -356 -29c-327 0 -499 80 -499 323v3c0 235 181 321 463 321c446 0 447 -284 447 -349v-41zM547 363v7c0 32 -19 46 -58 46c-34 0 -53 -18 -53 -46v-7h111z" />
    <glyph glyph-name="f" unicode="f" horiz-adv-x="700" 
d="M675 383h-129v-145l36 -5v-233h-487v233l36 5v145l-106 10v213h106v12c0 172 153 194 301 194c87 0 178 -9 243 -21v-161c-64 2 -75 2 -85 2c-32 0 -44 -4 -44 -23v-3h129v-223z" />
    <glyph glyph-name="g" unicode="g" horiz-adv-x="983" 
d="M958 -14c0 -189 -247 -192 -478 -192c-246 0 -460 2 -460 192c0 31 16 74 60 101c-26 17 -42 48 -42 79c0 35 25 70 89 90c-44 24 -74 80 -74 145c0 156 94 225 435 225h470v-136l-41 -21c6 -12 14 -29 14 -68c0 -218 -245 -222 -443 -222c-37 0 -88 3 -135 9
c-8 -2 -12 -8 -12 -13c0 -11 6 -17 33 -17h114c320 0 470 0 470 -172zM576 -11c0 16 -5 25 -91 25h-84c-6 -7 -8 -15 -8 -24c0 -28 29 -30 92 -30c66 0 91 7 91 29zM539 401c0 23 -11 42 -51 42c-36 0 -46 -19 -46 -42c0 -26 16 -40 46 -40c39 0 51 14 51 40z" />
    <glyph glyph-name="h" unicode="h" horiz-adv-x="1069" 
d="M1039 0h-451v347c0 42 -9 54 -42 54c-24 0 -50 -6 -65 -12v-151l36 -5v-233h-487v233l36 5v320l-36 6v229h451v-203c81 32 163 36 216 36c306 0 306 -151 306 -279v-109l36 -5v-233z" />
    <glyph glyph-name="i" unicode="i" horiz-adv-x="548" 
d="M518 0h-488v233l36 5v133l-36 5v230h451v-368l37 -5v-233zM492 639h-437v154h437v-154z" />
    <glyph glyph-name="j" unicode="j" horiz-adv-x="517" 
d="M481 26c0 -184 -95 -240 -335 -240c-84 0 -156 5 -183 8v188c38 -1 43 -1 52 -1c46 0 51 11 51 45v346l-36 5v229h451v-580zM492 639h-437v154h437v-154z" />
    <glyph glyph-name="k" unicode="k" horiz-adv-x="1006" 
d="M976 0h-328l-167 266v-266h-451v233l36 5v321l-36 5v229h451v-467l185 280h310v-234l-69 -10l-49 -50l64 -68l54 -10v-234z" />
    <glyph glyph-name="l" unicode="l" horiz-adv-x="548" 
d="M518 0h-488v233l36 5v320l-36 6v229h451v-555l37 -5v-233z" />
    <glyph glyph-name="m" unicode="m" horiz-adv-x="1514" 
d="M1484 0h-453v360c0 33 -3 48 -34 48c-10 0 -25 -2 -34 -5c1 -9 1 -28 1 -42v-361h-415v361c0 33 -5 47 -34 47c-11 0 -23 -3 -34 -7v-163l36 -5v-233h-487v233l36 5v134l-36 5v229h413v-60c67 48 157 80 256 80c113 0 178 -30 217 -81c82 57 180 81 256 81
c198 0 276 -86 276 -250v-138l36 -5v-233z" />
    <glyph glyph-name="n" unicode="n" horiz-adv-x="1069" 
d="M1039 0h-451v348c0 41 -8 53 -41 53c-25 0 -63 -13 -66 -14v-149l36 -5v-233h-487v233l36 5v130l-36 9v229h413v-62c72 54 171 82 259 82c301 0 301 -155 301 -278v-110l36 -5v-233z" />
    <glyph glyph-name="o" unicode="o" horiz-adv-x="969" 
d="M939 299c0 -222 -173 -320 -456 -320c-279 0 -453 98 -453 320v6c0 223 174 321 453 321c283 0 456 -97 456 -320v-7zM526 299v7c0 70 -14 88 -43 88c-30 0 -44 -18 -44 -89v-6c0 -71 14 -90 44 -90c29 0 43 19 43 90z" />
    <glyph glyph-name="p" unicode="p" horiz-adv-x="1033" 
d="M1003 300c0 -239 -164 -320 -417 -320c-45 0 -96 4 -105 5v-179h-451v229l36 6v330l-36 6v229h414v-36c79 42 152 56 246 56c150 0 313 -79 313 -318v-8zM588 300v8c0 68 -9 89 -64 89c-11 0 -33 -2 -41 -2v-180c8 -1 26 -2 44 -2c53 0 61 23 61 87z" />
    <glyph glyph-name="q" unicode="q" horiz-adv-x="1026" 
d="M996 -194h-447v177c-10 -1 -40 -4 -93 -4c-273 0 -426 87 -426 321v8c0 262 198 318 486 318c143 0 254 -5 444 -20v-562l36 -5v-233zM543 213v177c-11 1 -25 2 -45 2c-46 0 -60 -7 -60 -86v-6c0 -64 13 -89 60 -89c22 0 36 1 45 2z" />
    <glyph glyph-name="r" unicode="r" horiz-adv-x="688" 
d="M668 344h-187v-106l36 -5v-233h-487v233l36 5v133l-36 6v229h413v-68c79 84 179 88 225 88v-282z" />
    <glyph glyph-name="s" unicode="s" horiz-adv-x="826" 
d="M801 206c0 -199 -198 -226 -440 -226c-122 0 -239 12 -308 20v181h239l10 -23h55c32 0 45 2 45 14c0 11 -11 15 -49 19l-54 7c-167 22 -274 57 -274 206c0 202 186 222 388 222c141 0 278 -12 355 -22v-176h-236l-10 23h-64c-31 0 -45 -1 -45 -13c0 -14 15 -16 53 -20
l76 -7c193 -18 259 -75 259 -205z" />
    <glyph glyph-name="t" unicode="t" horiz-adv-x="700" 
d="M665 -3c-12 -1 -95 -18 -215 -18c-165 0 -319 19 -319 245v159l-106 10v213h106v149h415v-149h129v-223h-129v-157c0 -30 0 -37 39 -37c31 0 74 2 80 2v-194z" />
    <glyph glyph-name="u" unicode="u" horiz-adv-x="1069" 
d="M1039 0h-412v62c-54 -40 -149 -83 -301 -83c-260 0 -260 156 -260 279v110l-36 9v229h451v-348c0 -41 8 -53 43 -53c24 0 62 13 64 14v149l-36 9v229h451v-368l36 -9v-229z" />
    <glyph glyph-name="v" unicode="v" horiz-adv-x="1020" 
d="M990 372l-57 -11l-121 -361h-604l-121 361l-57 11v234h389l62 -250c13 -53 24 -103 29 -156h2c8 54 17 103 29 156l59 250h390v-234z" />
    <glyph glyph-name="w" unicode="w" horiz-adv-x="1537" 
d="M1507 372l-59 -6l-101 -366h-484l-59 125c-18 37 -26 73 -34 141h-3c-8 -68 -18 -103 -34 -140l-57 -126h-486l-101 366l-59 6v234h417l29 -214c11 -85 15 -122 17 -157h2c5 35 16 86 46 159l42 100h371l41 -98c31 -75 41 -126 47 -161h2c3 35 7 72 18 159l28 212h417
v-234z" />
    <glyph glyph-name="x" unicode="x" horiz-adv-x="926" 
d="M896 0h-336l-123 132l-92 -132h-315v234l52 7l65 79l-51 44l-66 8v234h369l122 -131l91 131h284v-234l-54 -7l-76 -76l57 -49l73 -6v-234z" />
    <glyph glyph-name="y" unicode="y" horiz-adv-x="1002" 
d="M977 375l-59 -6l-119 -326c-85 -235 -226 -248 -390 -248c-124 0 -248 3 -345 15v188c90 -2 109 -2 152 -2c23 0 28 4 31 17l3 12l-171 344l-54 6v231h388l62 -266c12 -53 23 -103 29 -156h2c8 54 18 103 29 156l58 266h384v-231z" />
    <glyph glyph-name="z" unicode="z" horiz-adv-x="834" 
d="M804 0h-774v171l274 218h-80l-10 -34h-181v251h768v-195l-250 -197h63l10 29h180v-243z" />
    <glyph glyph-name="braceleft" unicode="{" horiz-adv-x="712" 
d="M682 -194h-88c-389 0 -502 39 -502 292v21c0 50 -28 61 -62 71v170c34 10 62 21 62 71v20c0 253 113 292 502 292h88v-233h-91c-70 0 -83 0 -83 -60v-19c0 -103 -18 -118 -108 -156c90 -38 108 -53 108 -156v-20c0 -60 13 -60 83 -60h91v-233z" />
    <glyph glyph-name="bar" unicode="|" horiz-adv-x="475" 
d="M445 -194h-415v937h415v-937z" />
    <glyph glyph-name="braceright" unicode="}" horiz-adv-x="712" 
d="M682 190c-34 -10 -62 -21 -62 -71v-21c0 -253 -114 -292 -503 -292h-87v233h91c70 0 83 1 83 60v20c0 103 17 118 108 156c-91 38 -108 53 -108 156v19c0 59 -13 60 -83 60h-91v233h87c389 0 503 -39 503 -292v-20c0 -50 28 -61 62 -71v-170z" />
    <glyph glyph-name="asciitilde" unicode="~" horiz-adv-x="775" 
d="M745 475c0 -176 -73 -204 -165 -204c-76 0 -103 6 -178 25l-84 21c-28 7 -50 12 -62 12c-18 0 -29 -5 -29 -38v-15h-197v15c0 197 125 204 181 204c47 0 102 -9 159 -25l84 -23c42 -11 49 -12 66 -12c24 0 31 11 31 40v12h194v-12z" />
    <glyph glyph-name="uni00A0" unicode="&#xa0;" horiz-adv-x="266" 
 />
    <glyph glyph-name="exclamdown" unicode="&#xa1;" horiz-adv-x="491" 
d="M461 -169h-431l31 527h366zM443 624v-213h-399v213h399z" />
    <glyph glyph-name="cent" unicode="&#xa2;" horiz-adv-x="792" 
d="M762 4c-32 -10 -98 -16 -169 -20v-140h-310v149c-171 36 -253 146 -253 305v10c0 157 82 267 253 305v147h310v-141c74 -6 144 -13 169 -18v-234h-204l-6 22h-17c-82 0 -96 -4 -96 -81v-10c0 -79 14 -83 96 -83c76 0 150 -1 227 -1v-210z" />
    <glyph glyph-name="sterling" unicode="&#xa3;" horiz-adv-x="934" 
d="M904 0h-829v189c42 28 54 45 54 86v17h-99v183h99v19c0 206 155 282 421 282c128 0 237 -9 354 -22v-247h-233l-12 37h-9c-69 0 -80 -2 -80 -50v-19h196v-183h-196v-17c0 -20 -1 -25 -7 -42h341v-233z" />
    <glyph glyph-name="currency" unicode="&#xa4;" horiz-adv-x="765" 
d="M734 162l-106 -96l-98 88c-44 -21 -93 -33 -143 -33c-51 0 -100 12 -145 35l-105 -94l-106 95l104 94c-24 40 -37 85 -37 131c0 45 13 90 37 129l-105 95l106 95l105 -95c45 24 96 37 146 37s99 -12 144 -36l98 90l106 -97l-99 -88c26 -40 41 -85 41 -131
c0 -45 -15 -91 -41 -131zM512 382c0 67 -56 117 -126 117s-127 -51 -127 -117c0 -67 60 -116 127 -116c65 0 126 50 126 116z" />
    <glyph glyph-name="yen" unicode="&#xa5;" horiz-adv-x="1241" 
d="M1197 129h-364v-31l43 -4v-94h-539v94l56 6v29h-363v144h325l-65 93h-260v145h156l-44 57l-109 8v167h455l74 -126c18 -32 35 -61 51 -93h2c16 34 31 62 49 93l73 126h474v-167l-128 -10l-43 -55h157v-145h-261l-65 -93h326v-144z" />
    <glyph glyph-name="brokenbar" unicode="&#xa6;" horiz-adv-x="475" 
d="M445 -194h-415v410h415v-410zM445 333h-415v410h415v-410z" />
    <glyph glyph-name="section" unicode="&#xa7;" horiz-adv-x="1006" 
d="M976 42c0 -223 -205 -260 -449 -260c-65 0 -254 8 -458 29v232h238l3 -25c46 -1 95 -1 182 -1c21 0 33 2 33 15c0 14 -19 18 -91 27l-153 19c-124 15 -251 50 -251 192c0 57 20 101 42 125c-30 30 -42 78 -42 133c0 180 197 230 486 230c173 0 395 -30 419 -34v-210h-239
l-3 20c-51 1 -101 2 -179 2c-24 0 -39 -1 -39 -15c0 -9 11 -11 22 -12l164 -20c236 -29 314 -79 314 -217c0 -38 -8 -83 -41 -115c30 -29 42 -75 42 -115zM705 201v27c0 46 -13 52 -97 64l-226 32c-45 6 -71 13 -103 31v-18c0 -60 6 -68 88 -79l226 -31
c59 -8 72 -11 112 -26z" />
    <glyph glyph-name="dieresis" unicode="&#xa8;" horiz-adv-x="767" 
d="M737 653h-315v140h315v-140zM345 653v140h-315v-140h315z" />
    <glyph glyph-name="copyright" unicode="&#xa9;" horiz-adv-x="1149" 
d="M1119 371c0 -284 -251 -403 -545 -403c-293 0 -544 119 -544 403c0 283 251 403 544 403c294 0 545 -119 545 -403zM983 371c0 206 -190 295 -409 295c-218 0 -406 -89 -406 -295s188 -295 406 -295c219 0 409 89 409 295zM735 171c-32 -10 -100 -14 -129 -14
c-203 0 -289 83 -289 201v25c0 118 86 201 289 201c29 0 97 -4 129 -14v-137h-83l-11 21c-12 1 -15 1 -17 1c-42 0 -76 -12 -76 -72v-25c0 -60 34 -72 77 -72c3 0 7 0 17 1l10 21h83v-137z" />
    <glyph glyph-name="ordfeminine" unicode="&#xaa;" horiz-adv-x="640" 
d="M610 386h-266v32c-44 -27 -114 -46 -173 -46c-67 0 -141 23 -141 117v9c0 116 121 123 280 123h6v5c0 19 -7 19 -63 19h-13l-7 -17h-153v130c62 17 152 35 246 35c142 0 260 -33 260 -167v-85l24 -3v-152zM329 501v32h-19c-15 0 -31 -1 -31 -16v-5c0 -14 9 -18 19 -18
c13 0 24 4 31 7z" />
    <glyph glyph-name="guillemotleft" unicode="&#xab;" horiz-adv-x="1220" 
d="M1190 53h-400l-168 245l168 245h400l-156 -245zM597 53l-155 245l155 245h-399l-168 -245l168 -245h399z" />
    <glyph glyph-name="logicalnot" unicode="&#xac;" horiz-adv-x="800" 
d="M772 54h-297v375h-447v257h744v-632z" />
    <glyph glyph-name="uni00AD" unicode="&#xad;" horiz-adv-x="431" 
d="M401 189h-371v219h371v-219z" />
    <glyph glyph-name="registered" unicode="&#xae;" horiz-adv-x="815" 
d="M785 468c0 -185 -170 -306 -378 -306s-377 121 -377 306s169 306 377 306s378 -121 378 -306zM671 468c0 135 -118 215 -264 215c-145 0 -263 -80 -263 -215s118 -216 263 -216c146 0 264 81 264 216zM607 335h-151l-57 86h-10h-11v-86h-154v65l18 2v145l-18 3v64
c70 7 118 7 168 7c115 0 192 -21 192 -103v-5c0 -47 -31 -68 -54 -77l21 -28l56 -8v-65zM448 515v3c0 16 -13 21 -42 21c-11 0 -22 0 -28 -1v-42c6 0 18 -1 28 -1c27 0 42 2 42 20z" />
    <glyph glyph-name="macron" unicode="&#xaf;" horiz-adv-x="775" 
d="M745 651h-715v142h715v-142z" />
    <glyph glyph-name="degree" unicode="&#xb0;" horiz-adv-x="430" 
d="M400 610c0 -92 -82 -167 -185 -167c-102 0 -185 75 -185 167s83 167 185 167c103 0 185 -75 185 -167zM284 610c0 38 -30 64 -69 64c-38 0 -68 -26 -68 -64c0 -39 30 -64 68 -64c39 0 69 25 69 64z" />
    <glyph glyph-name="plusminus" unicode="&#xb1;" horiz-adv-x="800" 
d="M770 0h-740v156h740v-156zM770 356h-227v-150h-285v150h-227v258h227v147h285v-147h227v-258z" />
    <glyph glyph-name="two.superior" unicode="&#xb2;" horiz-adv-x="631" 
d="M589 300h-559v53c0 131 69 187 188 222c97 28 98 29 98 40c0 7 -2 11 -57 11c-13 0 -41 0 -76 -2l-2 -22h-144v128c100 27 213 32 280 32c216 0 284 -46 284 -145c0 -81 -58 -122 -200 -144c-91 -14 -99 -16 -99 -23v-1h140l3 24h144v-173z" />
    <glyph glyph-name="three.superior" unicode="&#xb3;" horiz-adv-x="626" 
d="M596 429c0 -106 -82 -145 -285 -145c-111 0 -231 17 -281 36v128h144l2 -21c37 -2 71 -2 97 -2c43 0 51 5 51 17v1c0 15 -10 16 -68 16h-155v125h157c53 0 66 6 66 20v1c0 12 -7 18 -50 18c-31 0 -65 -1 -98 -2l-2 -20h-144v124c58 20 170 37 281 37
c149 0 285 -19 285 -130v-5c0 -27 -10 -79 -58 -101c51 -19 58 -72 58 -92v-5z" />
    <glyph glyph-name="acute" unicode="&#xb4;" horiz-adv-x="736" 
d="M706 793l-285 -142h-391l193 142h483z" />
    <glyph glyph-name="mu" unicode="&#xb5;" horiz-adv-x="1069" 
d="M1039 0h-412v62c-29 -21 -69 -44 -124 -60c-7 -2 -15 -4 -22 -6v-190h-451v229l36 6v327l-36 9v229h451v-348c0 -41 8 -53 43 -53c24 0 62 13 64 14v149l-36 9v229h451v-368l36 -9v-229z" />
    <glyph glyph-name="paragraph" unicode="&#xb6;" horiz-adv-x="961" 
d="M931 -194h-158v790h-94l1 -790h-197v239l37 4v175h-99c-191 0 -391 32 -391 252v13c0 208 200 254 391 254h510v-937z" />
    <glyph glyph-name="periodcentered" unicode="&#xb7;" horiz-adv-x="382" 
d="M342 233h-302v217h302v-217z" />
    <glyph glyph-name="cedilla" unicode="&#xb8;" horiz-adv-x="577" 
d="M547 -55l-151 -139h-366l110 139h407z" />
    <glyph glyph-name="one.superior" unicode="&#xb9;" horiz-adv-x="451" 
d="M421 300h-391v145l57 6v121l-57 -15v140l139 49h195v-295l57 -6v-145z" />
    <glyph glyph-name="ordmasculine" unicode="&#xba;" horiz-adv-x="650" 
d="M620 578c0 -144 -112 -206 -296 -206c-181 0 -294 62 -294 206v8c0 145 113 207 294 207c184 0 296 -62 296 -207v-8zM352 578v8c0 45 -9 56 -28 56s-29 -11 -29 -56v-8c0 -44 10 -56 29 -56s28 12 28 56z" />
    <glyph glyph-name="guillemotright" unicode="&#xbb;" horiz-adv-x="1220" 
d="M1190 298l-168 -245h-400l156 245l-156 245h400zM597 298l-167 245h-400l156 -245l-156 -245h400z" />
    <glyph glyph-name="onequarter" unicode="&#xbc;" horiz-adv-x="1435" 
d="M1405 73h-63v-23l26 -3v-47h-329v47l27 3v23h-279v117l362 256h193v-243h63v-130zM1085 203v73l-97 -73h97zM1262 754l-787 -754h-310l788 754h309zM421 300h-391v145l57 6v121l-57 -15v140l139 49h195v-295l57 -6v-145z" />
    <glyph glyph-name="onehalf" unicode="&#xbd;" horiz-adv-x="1577" 
d="M1535 0h-559v53c0 131 69 187 188 222c97 28 98 29 98 41c0 4 -2 10 -57 10c-13 0 -41 0 -76 -2l-2 -22h-144v128c100 27 213 32 280 32c216 0 284 -46 284 -145c0 -69 -58 -121 -200 -144c-91 -15 -99 -17 -99 -23v-1h140l3 24h144v-173zM1262 754l-787 -754h-310
l788 754h309zM421 300h-391v145l57 6v121l-57 -15v140l139 49h195v-295l57 -6v-145z" />
    <glyph glyph-name="threequarters" unicode="&#xbe;" horiz-adv-x="1578" 
d="M1548 73h-63v-23l26 -3v-47h-329v47l27 3v23h-279v117l362 256h193v-243h63v-130zM1228 203v73l-97 -73h97zM1392 754l-787 -754h-310l788 754h309zM596 429c0 -106 -82 -145 -285 -145c-111 0 -231 17 -281 36v128h144l2 -21c36 -2 71 -2 97 -2c43 0 51 5 51 17v1
c0 15 -10 16 -68 16h-155v125h157c53 0 66 6 66 20v1c0 12 -7 18 -50 18c-31 0 -65 -1 -98 -2l-2 -20h-144v124c58 20 170 37 281 37c149 0 285 -19 285 -130v-5c0 -27 -10 -79 -58 -101c51 -19 58 -72 58 -92v-5z" />
    <glyph glyph-name="questiondown" unicode="&#xbf;" horiz-adv-x="828" 
d="M798 -132c-65 -21 -195 -43 -373 -43c-271 0 -395 65 -395 190v7c0 98 48 154 168 223c152 87 153 79 153 118v2h334v-2c0 -86 0 -135 -56 -192c-61 -63 -72 -65 -72 -80v-1c0 -16 17 -23 53 -23h9l6 34h173v-233zM728 414h-420v216h420v-216z" />
    <glyph glyph-name="Agrave" unicode="&#xc0;" horiz-adv-x="1242" 
d="M1212 0h-472l-19 94h-202l-20 -94h-469v241l57 5l78 251l-55 5v241h895l148 -497l59 -5v-241zM681 319l-42 185c-6 28 -13 69 -17 97h-2c-4 -29 -13 -69 -19 -97l-39 -185h119zM843 793h-391l-285 142h484z" />
    <glyph glyph-name="Aacute" unicode="&#xc1;" horiz-adv-x="1242" 
d="M1212 0h-472l-19 94h-202l-20 -94h-469v241l57 5l78 251l-55 5v241h895l148 -497l59 -5v-241zM681 319l-42 185c-6 28 -13 69 -17 97h-2c-4 -29 -13 -69 -19 -97l-39 -185h119zM1016 935l-285 -142h-391l193 142h483z" />
    <glyph glyph-name="Acircumflex" unicode="&#xc2;" horiz-adv-x="1242" 
d="M1212 0h-472l-19 94h-202l-20 -94h-469v241l57 5l78 251l-55 5v241h895l148 -497l59 -5v-241zM681 319l-42 185c-6 28 -13 69 -17 97h-2c-4 -29 -13 -69 -19 -97l-39 -185h119zM1054 793h-353l-79 52l-80 -52h-354l193 142h483z" />
    <glyph glyph-name="Atilde" unicode="&#xc3;" horiz-adv-x="1242" 
d="M1212 0h-472l-19 94h-202l-20 -94h-469v241l57 5l78 251l-55 5v241h895l148 -497l59 -5v-241zM681 319l-42 185c-6 28 -13 69 -17 97h-2c-4 -29 -13 -69 -19 -97l-39 -185h119zM994 969c0 -172 -127 -179 -182 -179c-19 0 -67 1 -152 22l-88 22c-41 10 -69 16 -81 16
c-27 0 -38 -10 -38 -42v-15h-166v15c0 173 125 179 195 179c28 0 55 -2 135 -21l88 -21c42 -10 65 -17 90 -17c24 0 33 9 33 41v14h166v-14z" />
    <glyph glyph-name="Adieresis" unicode="&#xc4;" horiz-adv-x="1242" 
d="M1212 0h-472l-19 94h-202l-20 -94h-469v241l57 5l78 251l-55 5v241h895l148 -497l59 -5v-241zM681 319l-42 185c-6 28 -13 69 -17 97h-2c-4 -29 -13 -69 -19 -97l-39 -185h119zM975 792h-315v140h315v-140zM583 792v140h-315v-140h315z" />
    <glyph glyph-name="Aring" unicode="&#xc5;" horiz-adv-x="1242" 
d="M1212 0h-472l-19 94h-202l-20 -94h-469v241l57 5l78 251l-55 5v241h895l148 -497l59 -5v-241zM681 319l-42 185c-6 28 -13 69 -17 97h-2c-4 -29 -13 -69 -19 -97l-39 -185h119zM851 919c0 -95 -91 -147 -228 -147c-139 0 -231 52 -231 147s92 148 231 148
c138 0 228 -53 228 -148zM687 920c0 25 -27 35 -64 35c-39 0 -66 -10 -66 -35c0 -24 27 -34 66 -34c37 0 64 10 64 34z" />
    <glyph glyph-name="AE" unicode="&#xc6;" horiz-adv-x="1544" 
d="M1514 0h-851v94h-125l-21 -94h-487v239l77 9l73 237l-50 2v256h1384v-242h-226l-9 19h-153v-41h358v-212h-358v-43h152l10 21h226v-245zM663 319v282h-25c-6 -31 -13 -69 -19 -97l-39 -185h83z" />
    <glyph glyph-name="Ccedilla" unicode="&#xc7;" horiz-adv-x="926" 
d="M896 2c-57 -16 -258 -29 -321 -29c-402 0 -545 124 -545 396v6c0 272 143 395 545 395c63 0 264 -13 321 -29v-269h-240l-8 41h-14c-89 0 -134 -11 -134 -138v-6c0 -130 45 -139 134 -139h14l8 41h240v-269zM786 -55l-151 -139h-366l110 139h407z" />
    <glyph glyph-name="Egrave" unicode="&#xc8;" horiz-adv-x="959" 
d="M929 0h-899v241l45 4v252l-45 5v241h899v-242h-229l-9 19h-150v-41h358v-212h-358v-43h149l10 21h229v-245zM737 792h-391l-285 142h484z" />
    <glyph glyph-name="Eacute" unicode="&#xc9;" horiz-adv-x="959" 
d="M929 0h-899v241l45 4v252l-45 5v241h899v-242h-229l-9 19h-150v-41h358v-212h-358v-43h149l10 21h229v-245zM953 934l-285 -142h-391l193 142h483z" />
    <glyph glyph-name="Ecircumflex" unicode="&#xca;" horiz-adv-x="959" 
d="M929 0h-899v241l45 4v252l-45 5v241h899v-242h-229l-9 19h-150v-41h358v-212h-358v-43h149l10 21h229v-245zM921 792h-353l-79 52l-80 -52h-354l193 142h483z" />
    <glyph glyph-name="Edieresis" unicode="&#xcb;" horiz-adv-x="959" 
d="M929 0h-899v241l45 4v252l-45 5v241h899v-242h-229l-9 19h-150v-41h358v-212h-358v-43h149l10 21h229v-245zM845 792h-315v140h315v-140zM453 792v140h-315v-140h315z" />
    <glyph glyph-name="Igrave" unicode="&#xcc;" horiz-adv-x="613" 
d="M583 0h-553v241l43 5v251l-43 5v241h553v-241l-44 -5v-251l44 -5v-241zM542 793h-391l-285 142h484z" />
    <glyph glyph-name="Iacute" unicode="&#xcd;" horiz-adv-x="613" 
d="M583 0h-553v241l43 5v251l-43 5v241h553v-241l-44 -5v-251l44 -5v-241zM743 935l-285 -142h-391l193 142h483z" />
    <glyph glyph-name="Icircumflex" unicode="&#xce;" horiz-adv-x="613" 
d="M583 0h-553v241l43 5v251l-43 5v241h553v-241l-44 -5v-251l44 -5v-241zM735 793h-353l-79 52l-80 -52h-354l193 142h483z" />
    <glyph glyph-name="Idieresis" unicode="&#xcf;" horiz-adv-x="613" 
d="M583 0h-553v241l43 5v251l-43 5v241h553v-241l-44 -5v-251l44 -5v-241zM658 793h-315v140h315v-140zM266 793v140h-315v-140h315z" />
    <glyph glyph-name="Eth" unicode="&#xd0;" horiz-adv-x="1145" 
d="M1115 369c0 -304 -204 -396 -547 -396c-168 0 -383 12 -538 34v234l56 6v28h-56v200h56v28l-56 6v234c153 20 370 27 538 27c343 0 547 -92 547 -395v-6zM669 369v6c0 122 0 148 -94 148c-16 0 -35 0 -49 -1v-47h72v-200h-72v-54c18 -1 39 -1 49 -1c94 0 94 26 94 149z
" />
    <glyph glyph-name="Ntilde" unicode="&#xd1;" horiz-adv-x="1228" 
d="M1198 502l-43 -5v-497h-390l-221 208c-16 15 -40 36 -54 50h-3c2 -26 2 -56 2 -83v-175h-459v241l45 5v251l-45 5v241h413l243 -218c14 -13 40 -35 54 -49h2c-2 28 -2 55 -2 80v187h458v-241zM970 968c0 -172 -127 -179 -182 -179c-19 0 -67 1 -152 22l-88 22
c-41 10 -69 16 -81 16c-27 0 -38 -10 -38 -42v-15h-166v15c0 173 125 179 195 179c28 0 55 -2 135 -21l88 -21c42 -10 65 -17 90 -17c24 0 33 9 33 41v14h166v-14z" />
    <glyph glyph-name="Ograve" unicode="&#xd2;" horiz-adv-x="1108" 
d="M1078 369c0 -321 -245 -396 -524 -396s-524 75 -524 396v6c0 316 245 395 524 395s524 -79 524 -395v-6zM636 369v6c0 99 -11 139 -82 139s-82 -40 -82 -139v-6c0 -110 20 -139 82 -139s82 29 82 139zM789 793h-391l-285 142h484z" />
    <glyph glyph-name="Oacute" unicode="&#xd3;" horiz-adv-x="1108" 
d="M1078 369c0 -321 -245 -396 -524 -396s-524 75 -524 396v6c0 316 245 395 524 395s524 -79 524 -395v-6zM636 369v6c0 99 -11 139 -82 139s-82 -40 -82 -139v-6c0 -110 20 -139 82 -139s82 29 82 139zM1015 935l-285 -142h-391l193 142h483z" />
    <glyph glyph-name="Ocircumflex" unicode="&#xd4;" horiz-adv-x="1108" 
d="M1078 369c0 -321 -245 -396 -524 -396s-524 75 -524 396v6c0 316 245 395 524 395s524 -79 524 -395v-6zM636 369v6c0 99 -11 139 -82 139s-82 -40 -82 -139v-6c0 -110 20 -139 82 -139s82 29 82 139zM985 792h-353l-79 52l-80 -52h-354l193 142h483z" />
    <glyph glyph-name="Otilde" unicode="&#xd5;" horiz-adv-x="1108" 
d="M1078 369c0 -321 -245 -396 -524 -396s-524 75 -524 396v6c0 316 245 395 524 395s524 -79 524 -395v-6zM636 369v6c0 99 -11 139 -82 139s-82 -40 -82 -139v-6c0 -110 20 -139 82 -139s82 29 82 139zM906 968c0 -172 -127 -179 -182 -179c-19 0 -67 1 -152 22l-88 22
c-41 10 -69 16 -81 16c-27 0 -38 -10 -38 -42v-15h-166v15c0 173 125 179 195 179c28 0 55 -2 135 -21l88 -21c42 -10 65 -17 90 -17c24 0 33 9 33 41v14h166v-14z" />
    <glyph glyph-name="Odieresis" unicode="&#xd6;" horiz-adv-x="1108" 
d="M1078 369c0 -321 -245 -396 -524 -396s-524 75 -524 396v6c0 316 245 395 524 395s524 -79 524 -395v-6zM636 369v6c0 99 -11 139 -82 139s-82 -40 -82 -139v-6c0 -110 20 -139 82 -139s82 29 82 139zM909 793h-315v140h315v-140zM517 793v140h-315v-140h315z" />
    <glyph glyph-name="multiply" unicode="&#xd7;" horiz-adv-x="800" 
d="M777 197l-192 -173l-185 167l-184 -169l-194 174l186 168l-183 167l192 174l183 -167l185 166l192 -174l-185 -166z" />
    <glyph glyph-name="Oslash" unicode="&#xd8;" horiz-adv-x="1108" 
d="M1079 360c0 -301 -263 -387 -525 -387c-94 0 -189 11 -270 39l-44 -41h-221l124 119c-71 60 -113 147 -113 270v22c0 296 260 389 524 389c93 0 185 -12 267 -40l45 41h222l-125 -117c70 -61 116 -149 116 -273v-22zM637 358v27c0 99 -18 129 -83 129s-82 -30 -82 -129
v-27c0 -99 20 -128 82 -128s83 29 83 128z" />
    <glyph glyph-name="Ugrave" unicode="&#xd9;" horiz-adv-x="1214" 
d="M1184 502l-44 -5v-167c0 -357 -300 -357 -534 -357c-233 0 -533 0 -533 357v167l-43 5v241h495v-413c0 -82 14 -111 81 -111c69 0 83 29 83 111v413h495v-241zM852 792h-391l-285 142h484z" />
    <glyph glyph-name="Uacute" unicode="&#xda;" horiz-adv-x="1214" 
d="M1184 502l-44 -5v-167c0 -357 -300 -357 -534 -357c-233 0 -533 0 -533 357v167l-43 5v241h495v-413c0 -82 14 -111 81 -111c69 0 83 29 83 111v413h495v-241zM1093 935l-285 -142h-391l193 142h483z" />
    <glyph glyph-name="Ucircumflex" unicode="&#xdb;" horiz-adv-x="1214" 
d="M1184 502l-44 -5v-167c0 -357 -300 -357 -534 -357c-233 0 -533 0 -533 357v167l-43 5v241h495v-413c0 -82 14 -111 81 -111c69 0 83 29 83 111v413h495v-241zM1041 792h-353l-79 52l-80 -52h-354l193 142h483z" />
    <glyph glyph-name="Udieresis" unicode="&#xdc;" horiz-adv-x="1214" 
d="M1184 502l-44 -5v-167c0 -357 -300 -357 -534 -357c-233 0 -533 0 -533 357v167l-43 5v241h495v-413c0 -82 14 -111 81 -111c69 0 83 29 83 111v413h495v-241zM960 793h-315v140h315v-140zM568 793v140h-315v-140h315z" />
    <glyph glyph-name="Yacute" unicode="&#xdd;" horiz-adv-x="1014" 
d="M984 502l-62 -5l-194 -257v-19l43 -6v-215h-541v215l57 6v19l-195 257l-62 5v241h352l73 -126c18 -32 35 -61 51 -93h4c15 32 32 61 50 93l74 126h350v-241zM951 935l-285 -142h-391l193 142h483z" />
    <glyph glyph-name="Thorn" unicode="&#xde;" horiz-adv-x="1138" 
d="M1113 389c0 -238 -258 -283 -521 -283c-31 0 -49 0 -89 3v-109h-473v241l43 4v301l-43 4v241h473v-105c26 2 55 2 73 2c281 0 537 -44 537 -283v-16zM680 394v15c0 31 -32 34 -103 34c-29 0 -64 -2 -74 -3v-81c16 -1 45 -2 73 -2c68 0 104 0 104 37z" />
    <glyph glyph-name="germandbls" unicode="&#xdf;" 
d="M1056 230c0 -129 -100 -251 -343 -251c-83 0 -124 10 -171 18v212h26c73 0 96 19 96 48v6c0 24 -32 38 -96 38h-26v177h26c59 0 97 11 97 39v3c0 24 -19 40 -92 40s-94 -14 -94 -62v-498h-449v232l36 4v262c0 203 143 287 507 287c425 0 476 -145 476 -231v-9
c0 -5 -1 -97 -107 -148c102 -50 114 -118 114 -159v-8z" />
    <glyph glyph-name="agrave" unicode="&#xe0;" horiz-adv-x="952" 
d="M922 0h-409v49c-67 -42 -175 -70 -265 -70c-104 0 -218 35 -218 179v15c0 178 187 189 431 189h10v8c0 28 -12 29 -97 29h-21l-14 -26h-232v200c95 25 234 53 379 53c219 0 400 -51 400 -256v-132l36 -5v-233zM490 177v49h-29c-23 0 -48 -1 -48 -25v-7
c0 -22 14 -28 29 -28c21 0 38 6 48 11zM765 651h-391l-285 142h484z" />
    <glyph glyph-name="aacute" unicode="&#xe1;" horiz-adv-x="952" 
d="M922 0h-409v49c-67 -42 -175 -70 -265 -70c-104 0 -218 35 -218 179v15c0 178 187 189 431 189h10v8c0 28 -12 29 -97 29h-21l-14 -26h-232v200c95 25 234 53 379 53c219 0 400 -51 400 -256v-132l36 -5v-233zM490 177v49h-29c-23 0 -48 -1 -48 -25v-7
c0 -22 14 -28 29 -28c21 0 38 6 48 11zM949 793l-285 -142h-391l193 142h483z" />
    <glyph glyph-name="acircumflex" unicode="&#xe2;" horiz-adv-x="952" 
d="M922 0h-409v49c-67 -42 -175 -70 -265 -70c-104 0 -218 35 -218 179v15c0 178 187 189 431 189h10v8c0 28 -12 29 -97 29h-21l-14 -26h-232v200c95 25 234 53 379 53c219 0 400 -51 400 -256v-132l36 -5v-233zM490 177v49h-29c-23 0 -48 -1 -48 -25v-7
c0 -22 14 -28 29 -28c21 0 38 6 48 11zM948 651h-353l-79 52l-80 -52h-354l193 142h483z" />
    <glyph glyph-name="atilde" unicode="&#xe3;" horiz-adv-x="952" 
d="M922 0h-409v49c-67 -42 -175 -70 -265 -70c-104 0 -218 35 -218 179v15c0 178 187 189 431 189h10v8c0 28 -12 29 -97 29h-21l-14 -26h-232v200c95 25 234 53 379 53c219 0 400 -51 400 -256v-132l36 -5v-233zM490 177v49h-29c-23 0 -48 -1 -48 -25v-7
c0 -22 14 -28 29 -28c21 0 38 6 48 11zM866 821c0 -172 -127 -179 -182 -179c-19 0 -67 1 -152 22l-88 22c-41 10 -69 16 -81 16c-27 0 -38 -10 -38 -42v-15h-166v15c0 173 125 179 195 179c28 0 55 -2 135 -21l88 -21c42 -10 65 -17 90 -17c24 0 33 9 33 41v14h166v-14z
" />
    <glyph glyph-name="adieresis" unicode="&#xe4;" horiz-adv-x="952" 
d="M922 0h-409v49c-67 -42 -175 -70 -265 -70c-104 0 -218 35 -218 179v15c0 178 187 189 431 189h10v8c0 28 -12 29 -97 29h-21l-14 -26h-232v200c95 25 234 53 379 53c219 0 400 -51 400 -256v-132l36 -5v-233zM490 177v49h-29c-23 0 -48 -1 -48 -25v-7
c0 -22 14 -28 29 -28c21 0 38 6 48 11zM859 651h-315v140h315v-140zM467 651v140h-315v-140h315z" />
    <glyph glyph-name="aring" unicode="&#xe5;" horiz-adv-x="952" 
d="M922 0h-409v49c-67 -42 -175 -70 -265 -70c-104 0 -218 35 -218 179v15c0 178 187 189 431 189h10v8c0 28 -12 29 -97 29h-21l-14 -26h-232v200c95 25 234 53 379 53c219 0 400 -51 400 -256v-132l36 -5v-233zM490 177v49h-29c-23 0 -48 -1 -48 -25v-7
c0 -22 14 -28 29 -28c21 0 38 6 48 11zM746 795c0 -95 -91 -147 -228 -147c-139 0 -231 52 -231 147s92 148 231 148c138 0 228 -53 228 -148zM582 796c0 25 -27 35 -64 35c-39 0 -66 -10 -66 -35c0 -24 27 -34 66 -34c37 0 64 10 64 34z" />
    <glyph glyph-name="ae" unicode="&#xe6;" horiz-adv-x="1422" 
d="M1392 236h-504v-5c0 -30 6 -42 94 -42c73 0 285 -1 355 -1v-184c-88 -14 -248 -24 -405 -24c-120 0 -252 21 -330 79c-115 -75 -220 -79 -354 -79c-104 0 -218 34 -218 178v15c0 178 187 189 431 189h10v8c0 28 -12 29 -97 29h-21l-14 -26h-232v200c95 25 234 53 379 53
c84 0 161 -8 226 -28c65 19 143 28 233 28c447 0 447 -284 447 -349v-41zM999 363v7c0 32 -19 46 -58 46c-34 0 -53 -18 -53 -46v-7h111zM487 177v49h-26c-23 0 -48 -1 -48 -25v-7c0 -22 14 -28 29 -28c21 0 35 6 45 11z" />
    <glyph glyph-name="ccedilla" unicode="&#xe7;" horiz-adv-x="792" 
d="M762 4c-73 -13 -168 -25 -324 -25c-281 0 -408 113 -408 319v10c0 216 127 318 408 318c156 0 279 -15 324 -25v-246h-210l-10 33c-10 1 -15 1 -23 1c-58 0 -80 -4 -80 -81v-10c0 -79 22 -83 96 -83c44 0 85 0 227 4v-215zM660 -55l-151 -139h-366l110 139h407z" />
    <glyph glyph-name="egrave" unicode="&#xe8;" horiz-adv-x="960" 
d="M940 236h-504v-5c0 -30 6 -32 94 -32c73 0 285 -1 355 -1v-190c-88 -14 -209 -29 -356 -29c-327 0 -499 80 -499 323v3c0 235 181 321 463 321c446 0 447 -284 447 -349v-41zM547 363v7c0 32 -19 46 -58 46c-34 0 -53 -18 -53 -46v-7h111zM754 651h-391l-285 142h484z
" />
    <glyph glyph-name="eacute" unicode="&#xe9;" horiz-adv-x="960" 
d="M940 236h-504v-5c0 -30 6 -32 94 -32c73 0 285 -1 355 -1v-190c-88 -14 -209 -29 -356 -29c-327 0 -499 80 -499 323v3c0 235 181 321 463 321c446 0 447 -284 447 -349v-41zM547 363v7c0 32 -19 46 -58 46c-34 0 -53 -18 -53 -46v-7h111zM910 793l-285 -142h-391
l193 142h483z" />
    <glyph glyph-name="ecircumflex" unicode="&#xea;" horiz-adv-x="960" 
d="M940 236h-504v-5c0 -30 6 -32 94 -32c73 0 285 -1 355 -1v-190c-88 -14 -209 -29 -356 -29c-327 0 -499 80 -499 323v3c0 235 181 321 463 321c446 0 447 -284 447 -349v-41zM547 363v7c0 32 -19 46 -58 46c-34 0 -53 -18 -53 -46v-7h111zM932 651h-353l-79 52l-80 -52
h-354l193 142h483z" />
    <glyph glyph-name="edieresis" unicode="&#xeb;" horiz-adv-x="960" 
d="M940 236h-504v-5c0 -30 6 -32 94 -32c73 0 285 -1 355 -1v-190c-88 -14 -209 -29 -356 -29c-327 0 -499 80 -499 326c0 235 181 321 463 321c446 0 447 -284 447 -349v-41zM547 363v7c0 32 -19 46 -58 46c-34 0 -53 -18 -53 -46v-7h111zM847 653h-315v140h315v-140z
M455 653v140h-315v-140h315z" />
    <glyph glyph-name="igrave" unicode="&#xec;" horiz-adv-x="548" 
d="M490 651h-391l-285 142h484zM518 0h-488v234l36 4v130l-36 4v234h451v-368l37 -4v-234z" />
    <glyph glyph-name="iacute" unicode="&#xed;" horiz-adv-x="548" 
d="M710 793l-285 -142h-391l193 142h483zM518 0h-488v234l36 4v130l-36 4v234h451v-368l37 -4v-234z" />
    <glyph glyph-name="icircumflex" unicode="&#xee;" horiz-adv-x="548" 
d="M518 0h-488v234l36 4v130l-36 4v234h451v-368l37 -4v-234zM700 651h-353l-79 52l-80 -52h-354l193 142h483z" />
    <glyph glyph-name="idieresis" unicode="&#xef;" horiz-adv-x="548" 
d="M624 651h-315v140h315v-140zM232 651v140h-315v-140h315zM518 0h-488v234l36 4v130l-36 4v234h451v-368l37 -4v-234z" />
    <glyph glyph-name="eth" unicode="&#xf0;" horiz-adv-x="969" 
d="M30 284v7c0 215 175 291 419 291c45 0 63 -1 70 -3c-44 37 -114 59 -205 68l-122 -96l-56 56l56 44h-44h-42v162c54 5 110 6 140 6c55 0 103 -3 150 -7l97 76l58 -56l-46 -36c283 -57 434 -229 434 -426v-4c0 -269 -149 -387 -455 -387s-454 115 -454 305zM526 284v3
c0 42 -13 63 -42 63c-31 0 -44 -21 -44 -63v-3c0 -57 13 -75 44 -75c29 0 42 18 42 75z" />
    <glyph glyph-name="ntilde" unicode="&#xf1;" horiz-adv-x="1069" 
d="M1039 0h-451v348c0 41 -8 53 -41 53c-25 0 -63 -13 -66 -14v-149l36 -5v-233h-487v233l36 5v130l-36 9v229h413v-62c72 54 171 82 259 82c301 0 301 -155 301 -278v-110l36 -5v-233zM871 827c0 -172 -127 -179 -182 -179c-19 0 -67 1 -152 22l-88 22
c-41 10 -69 16 -81 16c-27 0 -38 -10 -38 -42v-15h-166v15c0 173 125 179 195 179c28 0 55 -2 135 -21l88 -21c42 -10 65 -17 90 -17c24 0 33 9 33 41v14h166v-14z" />
    <glyph glyph-name="ograve" unicode="&#xf2;" horiz-adv-x="969" 
d="M939 299c0 -222 -173 -320 -456 -320c-279 0 -453 98 -453 320v6c0 223 174 321 453 321c283 0 456 -97 456 -320v-7zM526 299v7c0 70 -14 88 -43 88c-30 0 -44 -18 -44 -89v-6c0 -71 14 -90 44 -90c29 0 43 19 43 90zM731 651h-391l-285 142h484z" />
    <glyph glyph-name="oacute" unicode="&#xf3;" horiz-adv-x="969" 
d="M939 299c0 -222 -173 -320 -456 -320c-279 0 -453 98 -453 320v6c0 223 174 321 453 321c283 0 456 -97 456 -320v-7zM526 299v7c0 70 -14 88 -43 88c-30 0 -44 -18 -44 -89v-6c0 -71 14 -90 44 -90c29 0 43 19 43 90zM932 793l-285 -142h-391l193 142h483z" />
    <glyph glyph-name="ocircumflex" unicode="&#xf4;" horiz-adv-x="969" 
d="M939 299c0 -222 -173 -320 -456 -320c-279 0 -453 98 -453 320v6c0 223 174 321 453 321c283 0 456 -97 456 -320v-7zM526 299v7c0 70 -14 88 -43 88c-30 0 -44 -18 -44 -89v-6c0 -71 14 -90 44 -90c29 0 43 19 43 90zM914 651h-353l-79 52l-80 -52h-354l193 142h483z
" />
    <glyph glyph-name="otilde" unicode="&#xf5;" horiz-adv-x="969" 
d="M939 299c0 -222 -173 -320 -456 -320c-279 0 -453 98 -453 320v6c0 223 174 321 453 321c283 0 456 -97 456 -320v-7zM526 299v7c0 70 -14 88 -43 88c-30 0 -44 -18 -44 -89v-6c0 -71 14 -90 44 -90c29 0 43 19 43 90zM850 821c0 -172 -127 -179 -182 -179
c-19 0 -67 1 -152 22l-88 22c-41 10 -69 16 -81 16c-27 0 -38 -10 -38 -42v-15h-166v15c0 173 125 179 195 179c28 0 55 -2 135 -21l88 -21c42 -10 65 -17 90 -17c24 0 33 9 33 41v14h166v-14z" />
    <glyph glyph-name="odieresis" unicode="&#xf6;" horiz-adv-x="969" 
d="M939 299c0 -222 -173 -320 -456 -320c-279 0 -453 98 -453 320v6c0 223 174 321 453 321c283 0 456 -97 456 -320v-7zM526 299v7c0 70 -14 88 -43 88c-30 0 -44 -18 -44 -89v-6c0 -71 14 -90 44 -90c29 0 43 19 43 90zM856 653h-315v140h315v-140zM464 653v140h-315v-140
h315z" />
    <glyph glyph-name="divide" unicode="&#xf7;" horiz-adv-x="800" 
d="M597 -12h-394v198h394v-198zM772 240v257h-744v-257h744zM597 550h-394v197h394v-197z" />
    <glyph glyph-name="oslash" unicode="&#xf8;" horiz-adv-x="969" 
d="M939 296c0 -202 -173 -317 -455 -317c-67 0 -127 7 -181 20l-36 -27h-270l132 108c-64 53 -99 126 -99 216v12c0 203 175 318 454 318c69 0 134 -7 189 -21l40 28h271l-139 -112c62 -53 94 -125 94 -213v-12zM526 296v12c0 69 -13 86 -42 86c-31 0 -44 -17 -44 -86v-12
c0 -69 13 -87 44 -87c29 0 42 18 42 87z" />
    <glyph glyph-name="ugrave" unicode="&#xf9;" horiz-adv-x="1069" 
d="M1039 0h-412v62c-54 -40 -149 -83 -301 -83c-260 0 -260 156 -260 279v110l-36 9v229h451v-348c0 -41 8 -53 43 -53c24 0 62 13 64 14v149l-36 9v229h451v-368l36 -9v-229zM787 651h-391l-285 142h484z" />
    <glyph glyph-name="uacute" unicode="&#xfa;" horiz-adv-x="1069" 
d="M1039 0h-412v62c-54 -40 -149 -83 -301 -83c-260 0 -260 156 -260 279v110l-36 9v229h451v-348c0 -41 8 -53 43 -53c24 0 62 13 64 14v149l-36 9v229h451v-368l36 -9v-229zM943 793l-285 -142h-391l193 142h483z" />
    <glyph glyph-name="ucircumflex" unicode="&#xfb;" horiz-adv-x="1069" 
d="M1039 0h-412v62c-54 -40 -149 -83 -301 -83c-260 0 -260 156 -260 279v110l-36 9v229h451v-348c0 -41 8 -53 43 -53c24 0 62 13 64 14v149l-36 9v229h451v-368l36 -9v-229zM955 651h-353l-79 52l-80 -52h-354l193 142h483z" />
    <glyph glyph-name="udieresis" unicode="&#xfc;" horiz-adv-x="1069" 
d="M1039 0h-412v62c-54 -40 -149 -83 -301 -83c-260 0 -260 156 -260 279v110l-36 9v229h451v-348c0 -41 8 -53 43 -53c24 0 62 13 64 14v149l-36 9v229h451v-368l36 -9v-229zM875 653h-315v140h315v-140zM483 653v140h-315v-140h315z" />
    <glyph glyph-name="yacute" unicode="&#xfd;" horiz-adv-x="1002" 
d="M977 375l-59 -6l-119 -326c-85 -235 -226 -248 -390 -248c-124 0 -248 3 -345 15v188c90 -2 109 -2 152 -2c23 0 28 4 31 17l3 12l-171 344l-54 6v231h388l62 -266c12 -53 23 -103 29 -156h2c8 54 18 103 29 156l58 266h384v-231zM961 793l-285 -142h-391l193 142h483z
" />
    <glyph glyph-name="thorn" unicode="&#xfe;" horiz-adv-x="1033" 
d="M1003 300c0 -239 -164 -320 -417 -320c-45 0 -96 4 -105 5v-179h-451v234l36 4v512l-36 3v234h414v-223c79 42 152 56 246 56c150 0 313 -79 313 -318v-8zM588 300v8c0 68 -9 89 -64 89c-11 0 -33 -2 -41 -2v-180c8 -1 26 -2 44 -2c53 0 61 23 61 87z" />
    <glyph glyph-name="ydieresis" unicode="&#xff;" horiz-adv-x="1002" 
d="M977 375l-59 -6l-119 -326c-85 -235 -226 -248 -390 -248c-124 0 -248 3 -345 15v188c90 -2 109 -2 152 -2c23 0 28 4 31 17l3 12l-171 344l-54 6v231h388l62 -266c12 -53 23 -103 29 -156h2c8 54 18 103 29 156l58 266h384v-231zM860 653h-315v140h315v-140zM468 653
v140h-315v-140h315z" />
    <glyph glyph-name="Amacron" unicode="&#x100;" horiz-adv-x="1242" 
d="M1212 0h-472l-19 94h-202l-20 -94h-469v241l57 5l78 251l-55 5v241h895l148 -497l59 -5v-241zM681 319l-42 185c-6 28 -13 69 -17 97h-2c-4 -29 -13 -69 -19 -97l-39 -185h119zM979 792h-715v142h715v-142z" />
    <glyph glyph-name="amacron" unicode="&#x101;" horiz-adv-x="952" 
d="M922 0h-409v49c-67 -42 -175 -70 -265 -70c-104 0 -218 35 -218 179v15c0 178 187 189 431 189h10v8c0 28 -12 29 -97 29h-21l-14 -26h-232v200c95 25 234 53 379 53c219 0 400 -51 400 -256v-132l36 -5v-233zM490 177v49h-29c-23 0 -48 -1 -48 -25v-7
c0 -22 14 -28 29 -28c21 0 38 6 48 11zM875 651h-715v142h715v-142z" />
    <glyph glyph-name="Abreve" unicode="&#x102;" horiz-adv-x="1242" 
d="M1212 0h-472l-19 94h-202l-20 -94h-469v241l57 5l78 251l-55 5v241h895l148 -497l59 -5v-241zM681 319l-42 185c-6 28 -13 69 -17 97h-2c-4 -29 -13 -69 -19 -97l-39 -185h119zM962 988c-17 -194 -289 -195 -339 -195s-322 1 -341 195h169c11 -66 111 -72 172 -72
s161 6 172 72h167z" />
    <glyph glyph-name="abreve" unicode="&#x103;" horiz-adv-x="952" 
d="M922 0h-409v49c-67 -42 -175 -70 -265 -70c-104 0 -218 35 -218 179v15c0 178 187 189 431 189h10v8c0 28 -12 29 -97 29h-21l-14 -26h-232v200c95 25 234 53 379 53c219 0 400 -51 400 -256v-132l36 -5v-233zM490 177v49h-29c-23 0 -48 -1 -48 -25v-7
c0 -22 14 -28 29 -28c21 0 38 6 48 11zM847 846c-17 -194 -289 -195 -339 -195s-322 1 -341 195h169c11 -66 111 -72 172 -72s161 6 172 72h167z" />
    <glyph glyph-name="Aogonek" unicode="&#x104;" horiz-adv-x="1242" 
d="M1212 -209c-36 -5 -155 -27 -288 -27c-149 0 -228 32 -228 107c0 50 30 95 138 129h-94l-19 94h-202l-20 -94h-469v241l57 5l78 251l-55 5v241h895l148 -497l59 -5v-241c-138 -18 -170 -39 -170 -55c0 -23 20 -25 46 -25c48 0 89 5 124 7v-136zM681 319l-42 185
c-6 28 -13 69 -17 97h-2c-4 -29 -13 -69 -19 -97l-39 -185h119z" />
    <glyph glyph-name="aogonek" unicode="&#x105;" horiz-adv-x="952" 
d="M922 -209c-36 -5 -155 -27 -288 -27c-149 0 -228 32 -228 107c0 50 30 95 138 129h-31v49c-67 -42 -175 -70 -265 -70c-104 0 -218 35 -218 179v15c0 178 187 189 431 189h10v8c0 28 -12 29 -97 29h-21l-14 -26h-232v200c95 25 234 53 379 53c219 0 400 -51 400 -256
v-132l36 -5v-233c-138 -18 -170 -39 -170 -55c0 -23 20 -25 46 -25c48 0 89 5 124 7v-136zM490 177v49h-29c-23 0 -48 -1 -48 -25v-7c0 -22 14 -28 29 -28c21 0 38 6 48 11z" />
    <glyph glyph-name="Cacute" unicode="&#x106;" horiz-adv-x="926" 
d="M896 2c-57 -16 -258 -29 -321 -29c-402 0 -545 124 -545 396v6c0 272 143 395 545 395c63 0 264 -13 321 -29v-269h-240l-8 41h-14c-89 0 -134 -11 -134 -138v-6c0 -130 45 -139 134 -139h14l8 41h240v-269zM1003 935l-285 -142h-391l193 142h483z" />
    <glyph glyph-name="cacute" unicode="&#x107;" horiz-adv-x="792" 
d="M762 4c-73 -13 -168 -25 -324 -25c-281 0 -408 113 -408 319v10c0 216 127 318 408 318c156 0 279 -15 324 -25v-246h-210l-10 33c-10 1 -15 1 -23 1c-58 0 -80 -4 -80 -81v-10c0 -79 22 -83 96 -83c44 0 85 0 227 4v-215zM888 793l-285 -142h-391l193 142h483z" />
    <glyph glyph-name="Ccircumflex" unicode="&#x108;" horiz-adv-x="926" 
d="M896 2c-57 -16 -258 -29 -321 -29c-402 0 -545 124 -545 396v6c0 272 143 395 545 395c63 0 264 -13 321 -29v-269h-240l-8 41h-14c-89 0 -134 -11 -134 -138v-6c0 -130 45 -139 134 -139h14l8 41h240v-269zM960 792h-353l-79 52l-80 -52h-354l193 142h483z" />
    <glyph glyph-name="ccircumflex" unicode="&#x109;" horiz-adv-x="792" 
d="M762 4c-73 -13 -168 -25 -324 -25c-281 0 -408 113 -408 319v10c0 216 127 318 408 318c156 0 279 -15 324 -25v-246h-210l-10 33c-10 1 -15 1 -23 1c-58 0 -80 -4 -80 -81v-10c0 -79 22 -83 96 -83c44 0 85 0 227 4v-215zM850 651h-353l-79 52l-80 -52h-354l193 142h483
z" />
    <glyph glyph-name="Cdotaccent" unicode="&#x10a;" horiz-adv-x="926" 
d="M896 2c-57 -16 -258 -29 -321 -29c-402 0 -545 124 -545 396v6c0 272 143 395 545 395c63 0 264 -13 321 -29v-269h-240l-8 41h-14c-89 0 -134 -11 -134 -138v-6c0 -130 45 -139 134 -139h14l8 41h240v-269zM752 793h-437v142h437v-142z" />
    <glyph glyph-name="cdotaccent" unicode="&#x10b;" horiz-adv-x="792" 
d="M762 4c-73 -13 -168 -25 -324 -25c-281 0 -408 113 -408 319v10c0 216 127 318 408 318c156 0 279 -15 324 -25v-246h-210l-10 33c-10 1 -15 1 -23 1c-58 0 -80 -4 -80 -81v-10c0 -79 22 -83 96 -83c44 0 85 0 227 4v-215zM636 651h-437v142h437v-142z" />
    <glyph glyph-name="Ccaron" unicode="&#x10c;" horiz-adv-x="926" 
d="M896 2c-57 -16 -258 -29 -321 -29c-402 0 -545 124 -545 396v6c0 272 143 395 545 395c63 0 264 -13 321 -29v-269h-240l-8 41h-14c-89 0 -134 -11 -134 -138v-6c0 -130 45 -139 134 -139h14l8 41h240v-269zM985 934l-190 -142h-483l-193 142h354l80 -51l79 51h353z" />
    <glyph glyph-name="ccaron" unicode="&#x10d;" horiz-adv-x="792" 
d="M762 4c-73 -13 -168 -25 -324 -25c-281 0 -408 113 -408 319v10c0 216 127 318 408 318c156 0 279 -15 324 -25v-246h-210l-10 33c-10 1 -15 1 -23 1c-58 0 -80 -4 -80 -81v-10c0 -79 22 -83 96 -83c44 0 85 0 227 4v-215zM850 793l-190 -142h-483l-193 142h354l80 -51
l79 51h353z" />
    <glyph glyph-name="Dcaron" unicode="&#x10e;" horiz-adv-x="1145" 
d="M1115 369c0 -304 -204 -396 -547 -396c-168 0 -383 12 -538 34v234l56 6v256l-56 6v234c153 20 370 27 538 27c343 0 547 -92 547 -395v-6zM669 369v6c0 122 0 148 -94 148c-10 0 -24 0 -49 -1v-301c18 -1 39 -1 49 -1c94 0 94 26 94 149zM1020 934l-190 -142h-483
l-193 142h354l80 -51l79 51h353z" />
    <glyph glyph-name="dcaron" unicode="&#x10f;" horiz-adv-x="1361" 
d="M1391 793l-151 -309h-263l95 309h319zM1001 0h-423v37c-56 -30 -130 -58 -234 -58c-159 0 -314 67 -314 315v13c0 239 153 319 407 319c62 0 91 -2 111 -4v21l-37 5v145h452v-555l38 -5v-233zM546 211v179c-8 1 -27 4 -47 4c-52 0 -58 -23 -58 -87v-13
c0 -65 7 -85 61 -85c17 0 35 2 44 2z" />
    <glyph glyph-name="Dcroat" unicode="&#x110;" horiz-adv-x="1145" 
d="M1115 369c0 -304 -204 -396 -547 -396c-168 0 -383 12 -538 34v234l56 6v28h-56v200h56v28l-56 6v234c153 20 370 27 538 27c343 0 547 -92 547 -395v-6zM669 369v6c0 122 0 148 -94 148c-16 0 -35 0 -49 -1v-47h72v-200h-72v-54c18 -1 39 -1 49 -1c94 0 94 26 94 149z
" />
    <glyph glyph-name="dcroat" unicode="&#x111;" horiz-adv-x="1052" 
d="M1001 0h-423v37c-56 -30 -130 -58 -234 -58c-159 0 -314 67 -314 315v13c0 239 153 319 407 319c62 0 91 -2 111 -4v46h-222v86h222v39h415v-39h59v-86h-59v-430l38 -4v-234zM546 211v179c-8 1 -27 4 -47 4c-52 0 -58 -23 -58 -87v-13c0 -65 7 -85 61 -85c17 0 35 2 44 2
z" />
    <glyph glyph-name="Emacron" unicode="&#x112;" horiz-adv-x="959" 
d="M929 0h-899v241l45 4v252l-45 5v241h899v-242h-229l-9 19h-150v-41h358v-212h-358v-43h149l10 21h229v-245zM857 793h-715v142h715v-142z" />
    <glyph glyph-name="emacron" unicode="&#x113;" horiz-adv-x="960" 
d="M940 236h-504v-5c0 -30 6 -32 94 -32c73 0 285 -1 355 -1v-190c-88 -14 -209 -29 -356 -29c-327 0 -499 80 -499 323v3c0 235 181 321 463 321c446 0 447 -284 447 -349v-41zM547 363v7c0 32 -19 46 -58 46c-34 0 -53 -18 -53 -46v-7h111zM862 646h-715v142h715v-142z
" />
    <glyph glyph-name="Ebreve" unicode="&#x114;" horiz-adv-x="959" 
d="M929 0h-899v241l45 4v252l-45 5v241h899v-242h-229l-9 19h-150v-41h358v-212h-358v-43h149l10 21h229v-245zM839 977c-17 -194 -289 -195 -339 -195s-322 1 -341 195h169c11 -66 111 -72 172 -72s161 6 172 72h167z" />
    <glyph glyph-name="ebreve" unicode="&#x115;" horiz-adv-x="960" 
d="M940 236h-504v-5c0 -30 6 -32 94 -32c73 0 285 -1 355 -1v-190c-88 -14 -209 -29 -356 -29c-327 0 -499 80 -499 323v3c0 235 181 321 463 321c446 0 447 -284 447 -349v-41zM547 363v7c0 32 -19 46 -58 46c-34 0 -53 -18 -53 -46v-7h111zM851 841
c-17 -194 -289 -195 -339 -195s-322 1 -341 195h169c11 -66 111 -72 172 -72s161 6 172 72h167z" />
    <glyph glyph-name="Edotaccent" unicode="&#x116;" horiz-adv-x="959" 
d="M929 0h-899v241l45 4v252l-45 5v241h899v-242h-229l-9 19h-150v-41h358v-212h-358v-43h149l10 21h229v-245zM755 792h-437v142h437v-142z" />
    <glyph glyph-name="edotaccent" unicode="&#x117;" horiz-adv-x="960" 
d="M940 236h-504v-5c0 -30 6 -32 94 -32c73 0 285 -1 355 -1v-190c-88 -14 -209 -29 -356 -29c-327 0 -499 80 -499 323v3c0 235 181 321 463 321c446 0 447 -284 447 -349v-41zM547 363v7c0 32 -19 46 -58 46c-34 0 -53 -18 -53 -46v-7h111zM727 655h-437v142h437v-142z
" />
    <glyph glyph-name="Eogonek" unicode="&#x118;" horiz-adv-x="959" 
d="M929 -209c-36 -5 -155 -27 -288 -27c-149 0 -228 32 -228 107c0 50 30 95 138 129h-521v241l45 4v252l-45 5v241h899v-242h-229l-9 19h-150v-41h358v-212h-358v-43h149l10 21h229v-245c-138 -18 -170 -39 -170 -55c0 -23 20 -25 46 -25c48 0 89 5 124 7v-136z" />
    <glyph glyph-name="eogonek" unicode="&#x119;" horiz-adv-x="960" 
d="M940 236h-504v-5c0 -30 6 -32 94 -32c73 0 285 -1 355 -1v-190c-138 -18 -170 -47 -170 -63c0 -23 20 -25 46 -25c48 0 89 5 124 7v-136c-36 -5 -155 -27 -288 -27c-149 0 -228 32 -228 107c0 39 24 77 89 110c-281 11 -428 96 -428 321v3c0 235 181 321 463 321
c446 0 447 -284 447 -349v-41zM547 363v7c0 32 -19 46 -58 46c-34 0 -53 -18 -53 -46v-7h111z" />
    <glyph glyph-name="Ecaron" unicode="&#x11a;" horiz-adv-x="959" 
d="M929 0h-899v241l45 4v252l-45 5v241h899v-242h-229l-9 19h-150v-41h358v-212h-358v-43h149l10 21h229v-245zM929 935l-190 -142h-483l-193 142h354l80 -51l79 51h353z" />
    <glyph glyph-name="ecaron" unicode="&#x11b;" horiz-adv-x="960" 
d="M940 236h-504v-5c0 -30 6 -32 94 -32c73 0 285 -1 355 -1v-190c-88 -14 -209 -29 -356 -29c-327 0 -499 80 -499 323v3c0 235 181 321 463 321c446 0 447 -284 447 -349v-41zM547 363v7c0 32 -19 46 -58 46c-34 0 -53 -18 -53 -46v-7h111zM946 793l-190 -142h-483
l-193 142h354l80 -51l79 51h353z" />
    <glyph glyph-name="Gcircumflex" unicode="&#x11c;" horiz-adv-x="1044" 
d="M1009 13c-124 -23 -304 -40 -474 -40c-263 0 -505 69 -505 397v6c0 336 242 394 508 394c168 0 358 -23 471 -43v-252h-228l-11 36c-38 1 -97 2 -132 2c-118 0 -164 -2 -164 -137v-6c0 -108 9 -139 76 -139c18 0 37 0 56 2v32l-47 9v180h450v-441zM991 792h-353l-79 52
l-80 -52h-354l193 142h483z" />
    <glyph glyph-name="gcircumflex" unicode="&#x11d;" horiz-adv-x="983" 
d="M958 -14c0 -189 -247 -192 -478 -192c-246 0 -460 2 -460 192c0 31 16 74 60 101c-26 17 -42 48 -42 79c0 35 25 70 89 90c-44 24 -74 80 -74 145c0 156 94 225 435 225h470v-136l-41 -21c6 -12 14 -29 14 -68c0 -218 -245 -222 -443 -222c-37 0 -88 3 -135 9
c-8 -2 -12 -8 -12 -13c0 -11 6 -17 33 -17h114c320 0 470 0 470 -172zM576 -11c0 16 -5 25 -91 25h-84c-6 -7 -8 -15 -8 -24c0 -28 29 -30 92 -30c66 0 91 7 91 29zM539 401c0 23 -11 42 -51 42c-36 0 -46 -19 -46 -42c0 -26 16 -40 46 -40c39 0 51 14 51 40zM937 651h-353
l-79 52l-80 -52h-354l193 142h483z" />
    <glyph glyph-name="Gbreve" unicode="&#x11e;" horiz-adv-x="1044" 
d="M1009 13c-124 -23 -304 -40 -474 -40c-263 0 -505 69 -505 397v6c0 336 242 394 508 394c168 0 358 -23 471 -43v-252h-228l-11 36c-38 1 -97 2 -132 2c-118 0 -164 -2 -164 -137v-6c0 -108 9 -139 76 -139c18 0 37 0 56 2v32l-47 9v180h450v-441zM923 987
c-17 -194 -289 -195 -339 -195s-322 1 -341 195h169c11 -66 111 -72 172 -72s161 6 172 72h167z" />
    <glyph glyph-name="gbreve" unicode="&#x11f;" horiz-adv-x="983" 
d="M958 -14c0 -189 -247 -192 -478 -192c-246 0 -460 2 -460 192c0 31 16 74 60 101c-26 17 -42 48 -42 79c0 35 25 70 89 90c-44 24 -74 80 -74 145c0 156 94 225 435 225h470v-136l-41 -21c6 -12 14 -29 14 -68c0 -218 -245 -222 -443 -222c-37 0 -88 3 -135 9
c-8 -2 -12 -8 -12 -13c0 -11 6 -17 33 -17h114c320 0 470 0 470 -172zM576 -11c0 16 -5 25 -91 25h-84c-6 -7 -8 -15 -8 -24c0 -28 29 -30 92 -30c66 0 91 7 91 29zM539 401c0 23 -11 42 -51 42c-36 0 -46 -19 -46 -42c0 -26 16 -40 46 -40c39 0 51 14 51 40zM875 841
c-17 -194 -289 -195 -339 -195s-322 1 -341 195h169c11 -66 111 -72 172 -72s161 6 172 72h167z" />
    <glyph glyph-name="Gdotaccent" unicode="&#x120;" horiz-adv-x="1044" 
d="M1009 13c-124 -23 -304 -40 -474 -40c-263 0 -505 69 -505 397v6c0 336 242 394 508 394c168 0 358 -23 471 -43v-252h-228l-11 36c-38 1 -97 2 -132 2c-118 0 -164 -2 -164 -137v-6c0 -108 9 -139 76 -139c18 0 37 0 56 2v32l-47 9v180h450v-441zM778 792h-437v142h437
v-142z" />
    <glyph glyph-name="gdotaccent" unicode="&#x121;" horiz-adv-x="983" 
d="M958 -14c0 -189 -247 -192 -478 -192c-246 0 -460 2 -460 192c0 31 16 74 60 101c-26 17 -42 48 -42 79c0 35 25 70 89 90c-44 24 -74 80 -74 145c0 156 94 225 435 225h470v-136l-41 -21c6 -12 14 -29 14 -68c0 -218 -245 -222 -443 -222c-37 0 -88 3 -135 9
c-8 -2 -12 -8 -12 -13c0 -11 6 -17 33 -17h114c320 0 470 0 470 -172zM576 -11c0 16 -5 25 -91 25h-84c-6 -7 -8 -15 -8 -24c0 -28 29 -30 92 -30c66 0 91 7 91 29zM539 401c0 23 -11 42 -51 42c-36 0 -46 -19 -46 -42c0 -26 16 -40 46 -40c39 0 51 14 51 40zM754 655h-437
v142h437v-142z" />
    <glyph glyph-name="Gcommaaccent" unicode="&#x122;" horiz-adv-x="1044" 
d="M1009 13c-124 -23 -304 -40 -474 -40c-263 0 -505 69 -505 397v6c0 336 242 394 508 394c168 0 358 -23 471 -43v-252h-228l-11 36c-38 1 -97 2 -132 2c-118 0 -164 -2 -164 -137v-6c0 -108 9 -139 76 -139c18 0 37 0 56 2v32l-47 9v180h450v-441zM804 -54l-126 -139
h-365l82 139h409z" />
    <glyph glyph-name="gcommaaccent" unicode="&#x123;" horiz-adv-x="983" 
d="M958 -14c0 -189 -247 -192 -478 -192c-246 0 -460 2 -460 192c0 31 16 74 60 101c-26 17 -42 48 -42 79c0 35 25 70 89 90c-44 24 -74 80 -74 145c0 156 94 225 435 225h470v-136l-41 -21c6 -12 14 -29 14 -68c0 -218 -245 -222 -443 -222c-37 0 -88 3 -135 9
c-8 -2 -12 -8 -12 -13c0 -11 6 -17 33 -17h114c320 0 470 0 470 -172zM576 -11c0 16 -5 25 -91 25h-84c-6 -7 -8 -15 -8 -24c0 -28 29 -30 92 -30c66 0 91 7 91 29zM539 401c0 23 -11 42 -51 42c-36 0 -46 -19 -46 -42c0 -26 16 -40 46 -40c39 0 51 14 51 40zM810 790
l-82 -139h-409l126 139h365z" />
    <glyph glyph-name="Hcircumflex" unicode="&#x124;" horiz-adv-x="1292" 
d="M1262 0h-509v247h-214v-247h-509v241l43 5v251l-43 5v241h509v-249h214v249h509v-241l-43 -5v-251l43 -5v-241zM1078 792h-353l-79 52l-80 -52h-354l193 142h483z" />
    <glyph glyph-name="hcircumflex" unicode="&#x125;" horiz-adv-x="1069" 
d="M1039 0h-451v347c0 42 -9 54 -42 54c-24 0 -50 -6 -65 -12v-151l36 -5v-233h-487v233l36 5v320l-36 6v229h451v-203c81 32 163 36 216 36c306 0 306 -151 306 -279v-109l36 -5v-233zM965 822h-353l-79 52l-80 -52h-354l193 142h483z" />
    <glyph glyph-name="Hbar" unicode="&#x126;" horiz-adv-x="1292" 
d="M1283 566h-64v-320l43 -5v-241h-509v247h-214v-247h-509v241l43 5v320h-64v100h64v77h466v-77h214v77h466v-77h64v-100zM753 494v72h-214v-72h214z" />
    <glyph glyph-name="hbar" unicode="&#x127;" horiz-adv-x="1069" 
d="M22 657v91h44v45h415v-45h212v-91h-212v-67c81 32 163 36 216 36c306 0 306 -151 306 -279v-109l36 -4v-234h-451v347c0 42 -9 54 -42 54c-24 0 -50 -6 -65 -12v-151l36 -4v-234h-487v234l36 4v419h-44z" />
    <glyph glyph-name="Itilde" unicode="&#x128;" horiz-adv-x="613" 
d="M583 0h-553v241l43 5v251l-43 5v241h553v-241l-44 -5v-251l44 -5v-241zM662 969c0 -172 -127 -179 -182 -179c-19 0 -67 1 -152 22l-88 22c-41 10 -69 16 -81 16c-27 0 -38 -10 -38 -42v-15h-166v15c0 173 125 179 195 179c28 0 55 -2 135 -21l88 -21
c42 -10 65 -17 90 -17c24 0 33 9 33 41v14h166v-14z" />
    <glyph glyph-name="itilde" unicode="&#x129;" horiz-adv-x="548" 
d="M598 821c0 -172 -127 -179 -182 -179c-19 0 -67 1 -152 22l-88 22c-41 10 -69 16 -81 16c-27 0 -38 -10 -38 -42v-15h-166v15c0 173 125 179 195 179c28 0 55 -2 135 -21l88 -21c42 -10 65 -17 90 -17c24 0 33 9 33 41v14h166v-14zM518 0h-488v234l36 4v130l-36 4v234
h451v-368l37 -4v-234z" />
    <glyph glyph-name="Imacron" unicode="&#x12a;" horiz-adv-x="613" 
d="M583 0h-553v241l43 5v251l-43 5v241h553v-241l-44 -5v-251l44 -5v-241zM664 793h-715v142h715v-142z" />
    <glyph glyph-name="imacron" unicode="&#x12b;" horiz-adv-x="548" 
d="M609 651h-715v142h715v-142zM518 0h-488v234l36 4v130l-36 4v234h451v-368l37 -4v-234z" />
    <glyph glyph-name="Ibreve" unicode="&#x12c;" horiz-adv-x="613" 
d="M583 0h-553v241l43 5v251l-43 5v241h553v-241l-44 -5v-251l44 -5v-241zM640 971c-17 -194 -289 -195 -339 -195s-322 1 -341 195h169c11 -66 111 -72 172 -72s161 6 172 72h167z" />
    <glyph glyph-name="ibreve" unicode="&#x12d;" horiz-adv-x="548" 
d="M607 841c-17 -194 -289 -195 -339 -195s-322 1 -341 195h169c11 -66 111 -72 172 -72s161 6 172 72h167zM518 0h-488v234l36 4v130l-36 4v234h451v-368l37 -4v-234z" />
    <glyph glyph-name="Iogonek" unicode="&#x12e;" horiz-adv-x="613" 
d="M562 -209c-36 -5 -155 -27 -288 -27c-149 0 -228 32 -228 107c0 50 30 95 138 129h-154v241l43 5v251l-43 5v241h553v-241l-44 -5v-251l44 -5v-241h-21c-138 -18 -170 -39 -170 -55c0 -23 20 -25 46 -25c48 0 89 5 124 7v-136z" />
    <glyph glyph-name="iogonek" unicode="&#x12f;" horiz-adv-x="548" 
d="M518 0h-87c-69 -20 -75 -39 -75 -55c0 -23 20 -25 46 -25c48 0 89 5 124 7v-136c-36 -5 -155 -27 -288 -27c-149 0 -228 32 -228 107c0 64 39 98 153 129h-133v233l36 5v133l-36 5v230h451v-368l37 -5v-233zM492 639h-437v154h437v-154z" />
    <glyph glyph-name="Idotaccent" unicode="&#x130;" horiz-adv-x="613" 
d="M583 0h-553v241l43 5v251l-43 5v241h553v-241l-44 -5v-251l44 -5v-241zM530 793h-437v142h437v-142z" />
    <glyph glyph-name="dotlessi" unicode="&#x131;" horiz-adv-x="548" 
d="M518 0h-488v234l36 4v130l-36 4v234h451v-368l37 -4v-234z" />
    <glyph glyph-name="IJ" unicode="&#x132;" horiz-adv-x="1207" 
d="M1177 502l-43 -5v-432c0 -193 -124 -276 -370 -276c-62 0 -122 3 -185 8v183h35c50 0 54 15 54 55v462l-44 5v241h553v-241zM583 0h-553v241l43 5v251l-43 5v241h553v-241l-44 -5v-251l44 -5v-241z" />
    <glyph glyph-name="ij" unicode="&#x133;" horiz-adv-x="1052" 
d="M518 0h-488v233l36 5v133l-36 5v230h451v-368l37 -5v-233zM492 639h-437v154h437v-154zM1016 26c0 -184 -95 -240 -335 -240c-84 0 -156 5 -183 8v188c38 -1 43 -1 52 -1c46 0 51 11 51 45v346l-36 5v229h451v-580zM1027 639h-437v154h437v-154z" />
    <glyph glyph-name="Jcircumflex" unicode="&#x134;" horiz-adv-x="613" 
d="M582 502l-43 -5v-432c0 -193 -124 -276 -370 -276c-73 0 -145 4 -185 8v183h35c50 0 54 15 54 55v462l-44 5v241h553v-241zM740 793h-353l-79 52l-80 -52h-354l193 142h483z" />
    <glyph glyph-name="jcircumflex" unicode="&#x135;" horiz-adv-x="517" 
d="M481 26c0 -184 -95 -240 -335 -240c-88 0 -153 4 -183 8v188c38 -1 43 -1 52 -1c46 0 51 11 51 45v342l-36 4v234h451v-580zM712 651h-353l-79 52l-80 -52h-354l193 142h483z" />
    <glyph glyph-name="Kcommaaccent" unicode="&#x136;" horiz-adv-x="1243" 
d="M1208 0h-450l-217 338v-338h-511v241l45 5v251l-45 5v241h511v-351l247 351h425v-241l-69 -5l-120 -126l113 -124l71 -6v-241zM873 -54l-126 -139h-365l82 139h409z" />
    <glyph glyph-name="kcommaaccent" unicode="&#x137;" horiz-adv-x="1006" 
d="M976 0h-328l-167 266v-266h-451v233l36 5v321l-36 5v229h451v-467l185 280h310v-234l-69 -10l-49 -50l64 -68l54 -10v-234zM720 -54l-126 -139h-365l82 139h409z" />
    <glyph glyph-name="kgreenlandic" unicode="&#x138;" horiz-adv-x="1006" 
d="M976 0h-328l-167 266v-266h-451v233l36 5v134l-36 5v229h451v-280l185 280h310v-234l-69 -10l-49 -50l64 -68l54 -10v-234z" />
    <glyph glyph-name="Lacute" unicode="&#x139;" horiz-adv-x="853" 
d="M823 0h-793v241l45 5v251l-45 5v241h554v-241l-43 -5v-251h39l13 56h230v-302zM868 935l-285 -142h-391l193 142h483z" />
    <glyph glyph-name="lacute" unicode="&#x13a;" horiz-adv-x="548" 
d="M518 0h-488v233l36 5v320l-36 6v229h451v-555l37 -5v-233zM719 980l-285 -142h-391l193 142h483z" />
    <glyph glyph-name="Lcommaaccent" unicode="&#x13b;" horiz-adv-x="853" 
d="M645 -55l-126 -139h-366l83 139h409zM823 0h-793v241l45 5v251l-45 5v241h554v-241l-43 -5v-251h39l13 56h230v-302z" />
    <glyph glyph-name="lcommaaccent" unicode="&#x13c;" horiz-adv-x="548" 
d="M518 0h-488v233l36 5v320l-36 6v229h451v-555l37 -5v-233zM483 -54l-126 -139h-365l82 139h409z" />
    <glyph glyph-name="Lcaron" unicode="&#x13d;" horiz-adv-x="924" 
d="M970 797l-115 -319h-237l55 319h297zM823 0h-793v241l45 5v251l-45 5v241h554v-241l-43 -5v-251h39l13 56h230v-302z" />
    <glyph glyph-name="lcaron" unicode="&#x13e;" horiz-adv-x="881" 
d="M518 0h-488v233l36 5v320l-36 6v229h451v-555l37 -5v-233zM911 793l-151 -309h-263l95 309h319z" />
    <glyph glyph-name="Ldot" unicode="&#x13f;" horiz-adv-x="853" 
d="M808 365h-188v186h188v-186zM823 0h-793v241l45 5v251l-45 5v241h554v-241l-43 -5v-251h39l13 56h230v-302z" />
    <glyph glyph-name="ldot" unicode="&#x140;" horiz-adv-x="940" 
d="M518 0h-488v233l36 5v320l-36 6v229h451v-555l37 -5v-233zM910 254h-370v217h370v-217z" />
    <glyph glyph-name="Lslash" unicode="&#x141;" horiz-adv-x="853" 
d="M823 0h-793v241l45 5v49l-47 -9v90l47 9v112l-45 5v241h554v-241l-43 -5v-24l98 19v-90l-98 -19v-137h39l13 56h230v-302z" />
    <glyph glyph-name="lslash" unicode="&#x142;" horiz-adv-x="548" 
d="M518 0h-488v234l36 4v54l-49 -30v127l49 30v137l-36 3v234h451v-118l51 32v-127l-51 -32v-310l37 -4v-234z" />
    <glyph glyph-name="Nacute" unicode="&#x143;" horiz-adv-x="1228" 
d="M1198 502l-43 -5v-497h-390l-221 208c-16 15 -40 36 -54 50h-3c2 -26 2 -56 2 -83v-175h-459v241l45 5v251l-45 5v241h413l243 -218c14 -13 40 -35 54 -49h2c-2 28 -2 55 -2 80v187h458v-241zM1088 935l-285 -142h-391l193 142h483z" />
    <glyph glyph-name="nacute" unicode="&#x144;" horiz-adv-x="1069" 
d="M1039 0h-451v348c0 41 -8 53 -41 53c-25 0 -63 -13 -66 -14v-149l36 -5v-233h-487v233l36 5v130l-36 9v229h413v-62c72 54 171 82 259 82c301 0 301 -155 301 -278v-110l36 -5v-233zM938 793l-285 -142h-391l193 142h483z" />
    <glyph glyph-name="Ncommaaccent" unicode="&#x145;" horiz-adv-x="1228" 
d="M1198 502l-43 -5v-497h-390l-221 208c-16 15 -40 36 -54 50h-3c2 -26 2 -56 2 -83v-175h-459v241l45 5v251l-45 5v241h413l243 -218c14 -13 40 -35 54 -49h2c-2 28 -2 55 -2 80v187h458v-241zM865 -54l-126 -139h-365l82 139h409z" />
    <glyph glyph-name="ncommaaccent" unicode="&#x146;" horiz-adv-x="1069" 
d="M1039 0h-451v348c0 41 -8 53 -41 53c-25 0 -63 -13 -66 -14v-149l36 -5v-233h-487v233l36 5v130l-36 9v229h413v-62c72 54 171 82 259 82c301 0 301 -155 301 -278v-110l36 -5v-233zM782 -55l-126 -139h-365l82 139h409z" />
    <glyph glyph-name="Ncaron" unicode="&#x147;" horiz-adv-x="1228" 
d="M1198 502l-43 -5v-497h-390l-221 208c-16 15 -40 36 -54 50h-3c2 -26 2 -56 2 -83v-175h-459v241l45 5v251l-45 5v241h413l243 -218c14 -13 40 -35 54 -49h2c-2 28 -2 55 -2 80v187h458v-241zM1060 934l-190 -142h-483l-193 142h354l80 -51l79 51h353z" />
    <glyph glyph-name="ncaron" unicode="&#x148;" horiz-adv-x="1069" 
d="M1039 0h-451v348c0 41 -8 53 -41 53c-25 0 -63 -13 -66 -14v-149l36 -5v-233h-487v233l36 5v130l-36 9v229h413v-62c72 54 171 82 259 82c301 0 301 -155 301 -278v-110l36 -5v-233zM951 793l-190 -142h-483l-193 142h354l80 -51l79 51h353z" />
    <glyph glyph-name="napostrophe" unicode="&#x149;" horiz-adv-x="1433" 
d="M1403 0h-451v348c0 41 -8 53 -41 53c-25 0 -63 -13 -66 -14v-149l36 -5v-233h-487v233l36 5v130l-36 9v229h413v-62c72 54 171 82 259 82c301 0 301 -155 301 -278v-110l36 -5v-233zM464 793l-171 -309h-263l115 309h319z" />
    <glyph glyph-name="Eng" unicode="&#x14a;" horiz-adv-x="1228" 
d="M1198 502l-43 -5v-432c0 -193 -124 -276 -370 -276c-73 0 -145 4 -185 8v183h35c50 0 54 15 54 55v36l-145 137c-16 15 -40 36 -54 50h-3c2 -26 2 -56 2 -83v-175h-459v241l45 5v251l-45 5v241h413l243 -218c14 -13 40 -35 54 -49h2c-2 28 -2 55 -2 80v187h458v-241z" />
    <glyph glyph-name="eng" unicode="&#x14b;" horiz-adv-x="1033" 
d="M1003 26c0 -184 -98 -240 -338 -240c-67 0 -146 5 -183 8v188c38 -1 43 -1 62 -1c36 0 44 11 44 45v322c0 41 -10 53 -43 53c-18 0 -50 -9 -64 -14v-149l34 -4v-234h-485v234l36 4v130l-36 4v234h411v-62c72 54 161 82 276 82c284 0 286 -155 286 -278v-322z" />
    <glyph glyph-name="Omacron" unicode="&#x14c;" horiz-adv-x="1108" 
d="M1078 369c0 -321 -245 -396 -524 -396s-524 75 -524 396v6c0 316 245 395 524 395s524 -79 524 -395v-6zM636 369v6c0 99 -11 139 -82 139s-82 -40 -82 -139v-6c0 -110 20 -139 82 -139s82 29 82 139zM912 792h-715v142h715v-142z" />
    <glyph glyph-name="omacron" unicode="&#x14d;" horiz-adv-x="969" 
d="M939 299c0 -222 -173 -320 -456 -320c-279 0 -453 98 -453 320v6c0 223 174 321 453 321c283 0 456 -97 456 -320v-7zM526 299v7c0 70 -14 88 -43 88c-30 0 -44 -18 -44 -89v-6c0 -71 14 -90 44 -90c29 0 43 19 43 90zM869 651h-715v142h715v-142z" />
    <glyph glyph-name="Obreve" unicode="&#x14e;" horiz-adv-x="1108" 
d="M1078 369c0 -321 -245 -396 -524 -396s-524 75 -524 396v6c0 316 245 395 524 395s524 -79 524 -395v-6zM636 369v6c0 99 -11 139 -82 139s-82 -40 -82 -139v-6c0 -110 20 -139 82 -139s82 29 82 139zM892 987c-17 -194 -289 -195 -339 -195s-322 1 -341 195h169
c11 -66 111 -72 172 -72s161 6 172 72h167z" />
    <glyph glyph-name="obreve" unicode="&#x14f;" horiz-adv-x="969" 
d="M939 299c0 -222 -173 -320 -456 -320c-279 0 -453 98 -453 320v6c0 223 174 321 453 321c283 0 456 -97 456 -320v-7zM526 299v7c0 70 -14 88 -43 88c-30 0 -44 -18 -44 -89v-6c0 -71 14 -90 44 -90c29 0 43 19 43 90zM846 841c-17 -194 -289 -195 -339 -195
s-322 1 -341 195h169c11 -66 111 -72 172 -72s161 6 172 72h167z" />
    <glyph glyph-name="Ohungarumlaut" unicode="&#x150;" horiz-adv-x="1108" 
d="M1078 369c0 -321 -245 -396 -524 -396s-524 75 -524 396v6c0 316 245 395 524 395s524 -79 524 -395v-6zM636 369v6c0 99 -11 139 -82 139s-82 -40 -82 -139v-6c0 -110 20 -139 82 -139s82 29 82 139zM1225 935l-286 -142h-324l193 142h417zM715 935h-418l-192 -142h324z
" />
    <glyph glyph-name="ohungarumlaut" unicode="&#x151;" horiz-adv-x="969" 
d="M939 299c0 -222 -173 -320 -456 -320c-279 0 -453 98 -453 320v6c0 223 174 321 453 321c283 0 456 -97 456 -320v-7zM526 299v7c0 70 -14 88 -43 88c-30 0 -44 -18 -44 -89v-6c0 -71 14 -90 44 -90c29 0 43 19 43 90zM1156 793l-286 -142h-324l193 142h417zM646 793
h-418l-192 -142h324z" />
    <glyph glyph-name="OE" unicode="&#x152;" horiz-adv-x="1498" 
d="M1468 0h-670c-101 -14 -203 -27 -283 -27c-223 0 -485 66 -485 387v22c0 316 259 389 484 389c81 0 184 -9 282 -28h672v-242h-229l-9 19h-150v-41h358v-212h-358v-43h149l10 21h229v-245zM636 235v274c-28 3 -48 5 -82 5c-65 0 -82 -30 -82 -134v-22
c0 -99 20 -128 82 -128c27 0 35 0 82 5z" />
    <glyph glyph-name="oe" unicode="&#x153;" horiz-adv-x="1467" 
d="M1439 236h-504v-5c0 -30 6 -42 94 -42c73 0 285 -1 355 -1v-184c-88 -14 -248 -24 -405 -24c-94 0 -187 19 -245 46c-75 -31 -152 -47 -251 -47c-279 0 -453 98 -453 320v6c0 223 174 321 453 321c98 0 183 -9 248 -46c68 37 160 46 261 46c447 0 447 -284 447 -349v-41z
M1046 363v7c0 32 -19 46 -58 46c-34 0 -53 -18 -53 -46v-7h111zM526 299v7c0 70 -14 88 -43 88c-30 0 -44 -18 -44 -89v-6c0 -71 14 -90 44 -90c29 0 43 19 43 90z" />
    <glyph glyph-name="Racute" unicode="&#x154;" horiz-adv-x="1135" 
d="M1105 0h-342l-179 221h-34h-46v-221h-474v241l43 5v251l-43 5v241c115 14 324 27 543 27c281 0 532 -33 532 -273v-3c0 -106 -35 -165 -107 -214l40 -34l67 -5v-241zM672 481v3c0 34 -18 42 -101 42c-29 0 -33 0 -68 -3v-81c22 -2 43 -2 68 -2c83 0 101 8 101 41z
M1050 935l-285 -142h-391l193 142h483z" />
    <glyph glyph-name="racute" unicode="&#x155;" horiz-adv-x="688" 
d="M668 344h-187v-106l36 -5v-233h-487v233l36 5v133l-36 6v229h413v-68c79 84 179 88 225 88v-282zM807 793l-285 -142h-391l193 142h483z" />
    <glyph glyph-name="Rcommaaccent" unicode="&#x156;" horiz-adv-x="1135" 
d="M1105 0h-342l-179 221h-34h-46v-221h-474v241l43 5v251l-43 5v241c115 14 324 27 543 27c281 0 532 -33 532 -273v-3c0 -106 -35 -165 -107 -214l40 -34l67 -5v-241zM672 481v3c0 34 -18 42 -101 42c-29 0 -33 0 -68 -3v-81c22 -2 43 -2 68 -2c83 0 101 8 101 41z
M806 -54l-126 -139h-365l82 139h409z" />
    <glyph glyph-name="rcommaaccent" unicode="&#x157;" horiz-adv-x="688" 
d="M668 344h-187v-106l36 -5v-233h-487v233l36 5v133l-36 6v229h413v-68c79 84 179 88 225 88v-282zM584 -55l-126 -139h-365l82 139h409z" />
    <glyph glyph-name="Rcaron" unicode="&#x158;" horiz-adv-x="1135" 
d="M1105 0h-342l-179 221h-34h-46v-221h-474v241l43 5v251l-43 5v241c115 14 324 27 543 27c281 0 532 -33 532 -273v-3c0 -106 -35 -165 -107 -214l40 -34l67 -5v-241zM672 481v3c0 34 -18 42 -101 42c-29 0 -33 0 -68 -3v-81c22 -2 43 -2 68 -2c83 0 101 8 101 41z
M1000 935l-190 -142h-483l-193 142h354l80 -51l79 51h353z" />
    <glyph glyph-name="rcaron" unicode="&#x159;" horiz-adv-x="688" 
d="M668 344h-187v-106l36 -5v-233h-487v233l36 5v133l-36 6v229h413v-68c79 84 179 88 225 88v-282zM769 793l-190 -142h-483l-193 142h354l80 -51l79 51h353z" />
    <glyph glyph-name="Sacute" unicode="&#x15a;" horiz-adv-x="992" 
d="M962 253c0 -238 -209 -280 -446 -280c-167 0 -336 7 -456 25v232h229l11 -29h149c59 0 70 4 70 17s-11 14 -101 22l-61 5c-178 15 -327 44 -327 257c0 237 215 268 493 268c151 0 303 -18 401 -33v-217h-231l-12 31h-151c-55 0 -67 -3 -67 -16c0 -14 17 -17 103 -26
l66 -7c240 -25 330 -83 330 -249zM973 934l-285 -142h-391l193 142h483z" />
    <glyph glyph-name="sacute" unicode="&#x15b;" horiz-adv-x="826" 
d="M801 206c0 -199 -198 -226 -440 -226c-122 0 -239 12 -308 20v181h239l10 -23h55c32 0 45 2 45 14c0 11 -11 15 -49 19l-54 7c-167 22 -274 57 -274 206c0 202 186 222 388 222c141 0 278 -12 355 -22v-176h-236l-10 23h-64c-31 0 -45 -1 -45 -13c0 -14 15 -16 53 -20
l76 -7c193 -18 259 -75 259 -205zM855 793l-285 -142h-391l193 142h483z" />
    <glyph glyph-name="Scircumflex" unicode="&#x15c;" horiz-adv-x="992" 
d="M962 253c0 -238 -209 -280 -446 -280c-167 0 -336 7 -456 25v232h229l11 -29h149c59 0 70 4 70 17s-11 14 -101 22l-61 5c-178 15 -327 44 -327 257c0 237 215 268 493 268c151 0 303 -18 401 -33v-217h-231l-12 31h-151c-55 0 -67 -3 -67 -16c0 -14 17 -17 103 -26
l66 -7c240 -25 330 -83 330 -249zM945 792h-353l-79 52l-80 -52h-354l193 142h483z" />
    <glyph glyph-name="scircumflex" unicode="&#x15d;" horiz-adv-x="826" 
d="M801 206c0 -199 -198 -226 -440 -226c-122 0 -239 12 -308 20v181h239l10 -23h55c32 0 45 2 45 14c0 11 -11 15 -49 19l-54 7c-167 22 -274 57 -274 206c0 202 186 222 388 222c141 0 278 -12 355 -22v-176h-236l-10 23h-64c-31 0 -45 -1 -45 -13c0 -14 15 -16 53 -20
l76 -7c193 -18 259 -75 259 -205zM875 651h-353l-79 52l-80 -52h-354l193 142h483z" />
    <glyph glyph-name="Scedilla" unicode="&#x15e;" horiz-adv-x="992" 
d="M962 253c0 -238 -209 -280 -446 -280c-167 0 -336 7 -456 25v232h229l11 -29h149c59 0 70 4 70 17s-11 14 -101 22l-61 5c-178 15 -327 44 -327 257c0 237 215 268 493 268c151 0 303 -18 401 -33v-217h-231l-12 31h-151c-55 0 -67 -3 -67 -16c0 -14 17 -17 103 -26
l66 -7c240 -25 330 -83 330 -249zM758 -54l-151 -139h-366l110 139h407z" />
    <glyph glyph-name="scedilla" unicode="&#x15f;" horiz-adv-x="826" 
d="M801 206c0 -199 -198 -226 -440 -226c-122 0 -239 12 -308 20v181h239l10 -23h55c32 0 45 2 45 14c0 11 -11 15 -49 19l-54 7c-167 22 -274 57 -274 206c0 202 186 222 388 222c141 0 278 -12 355 -22v-176h-236l-10 23h-64c-31 0 -45 -1 -45 -13c0 -14 15 -16 53 -20
l76 -7c193 -18 259 -75 259 -205zM674 -54l-151 -139h-366l110 139h407z" />
    <glyph glyph-name="Scaron" unicode="&#x160;" horiz-adv-x="992" 
d="M962 253c0 -238 -209 -280 -446 -280c-167 0 -336 7 -456 25v232h229l11 -29h149c59 0 70 4 70 17s-11 14 -101 22l-61 5c-178 15 -327 44 -327 257c0 237 215 268 493 268c151 0 303 -18 401 -33v-217h-231l-12 31h-151c-55 0 -67 -3 -67 -16c0 -14 17 -17 103 -26
l66 -7c240 -25 330 -83 330 -249zM930 935l-190 -142h-483l-193 142h354l80 -51l79 51h353z" />
    <glyph glyph-name="scaron" unicode="&#x161;" horiz-adv-x="826" 
d="M801 206c0 -199 -198 -226 -440 -226c-122 0 -239 12 -308 20v181h239l10 -23h55c32 0 45 2 45 14c0 11 -11 15 -49 19l-54 7c-167 22 -274 57 -274 206c0 202 186 222 388 222c141 0 278 -12 355 -22v-176h-236l-10 23h-64c-31 0 -45 -1 -45 -13c0 -14 15 -16 53 -20
l76 -7c193 -18 259 -75 259 -205zM841 793l-190 -142h-483l-193 142h354l80 -51l79 51h353z" />
    <glyph glyph-name="Tcommaaccent" unicode="&#x162;" horiz-adv-x="1021" 
d="M991 466h-208l-16 41h-22v-261l43 -5v-241h-554v241l43 5v261h-23l-15 -41h-209v277h961v-277zM735 -54l-126 -139h-365l82 139h409z" />
    <glyph glyph-name="tcommaaccent" unicode="&#x163;" horiz-adv-x="700" 
d="M665 -3c-12 -1 -95 -18 -215 -18c-165 0 -319 19 -319 245v159l-106 10v213h106v149h415v-149h129v-223h-129v-157c0 -30 0 -37 39 -37c31 0 74 2 80 2v-194zM611 -54l-126 -139h-365l82 139h409z" />
    <glyph glyph-name="Tcaron" unicode="&#x164;" horiz-adv-x="1021" 
d="M991 466h-208l-16 41h-22v-261l43 -5v-241h-554v241l43 5v261h-23l-15 -41h-209v277h961v-277zM941 935l-190 -142h-483l-193 142h354l80 -51l79 51h353z" />
    <glyph glyph-name="tcaron" unicode="&#x165;" horiz-adv-x="901" 
d="M926 793l-107 -154h-220l48 154h279zM671 -3c-13 -1 -96 -18 -216 -18c-165 0 -319 19 -319 245v159l-106 10v213h106v149h416v-149h128v-223h-129v-157c0 -40 0 -47 39 -47c31 0 74 2 81 2v-184z" />
    <glyph glyph-name="Tbar" unicode="&#x166;" horiz-adv-x="1021" 
d="M961 306h-216v-61l43 -4v-241h-554v241l43 4v61h-217v125h217v76h-23l-15 -41h-209v277h961v-277h-208l-16 41h-22v-76h216v-125z" />
    <glyph glyph-name="tbar" unicode="&#x167;" horiz-adv-x="699" 
d="M674 263h-128v-37c0 -40 0 -47 39 -47c31 0 75 2 81 2v-184c-13 -1 -96 -18 -216 -18c-165 0 -319 19 -319 245v39l-106 10v133h106v57l-106 10v133h106v149h416v-149h127v-143h-128v-57h128v-143z" />
    <glyph glyph-name="Utilde" unicode="&#x168;" horiz-adv-x="1214" 
d="M1184 502l-44 -5v-167c0 -357 -300 -357 -534 -357c-233 0 -533 0 -533 357v167l-43 5v241h495v-413c0 -82 14 -111 81 -111c69 0 83 29 83 111v413h495v-241zM962 968c0 -172 -127 -179 -182 -179c-19 0 -67 1 -152 22l-88 22c-41 10 -69 16 -81 16
c-27 0 -38 -10 -38 -42v-15h-166v15c0 173 125 179 195 179c28 0 55 -2 135 -21l88 -21c42 -10 65 -17 90 -17c24 0 33 9 33 41v14h166v-14z" />
    <glyph glyph-name="utilde" unicode="&#x169;" horiz-adv-x="1069" 
d="M1039 0h-412v62c-54 -40 -149 -83 -301 -83c-260 0 -260 156 -260 279v110l-36 9v229h451v-348c0 -41 8 -53 43 -53c24 0 62 13 64 14v149l-36 9v229h451v-368l36 -9v-229zM871 821c0 -172 -127 -179 -182 -179c-19 0 -67 1 -152 22l-88 22c-41 10 -69 16 -81 16
c-27 0 -38 -10 -38 -42v-15h-166v15c0 173 125 179 195 179c28 0 55 -2 135 -21l88 -21c42 -10 65 -17 90 -17c24 0 33 9 33 41v14h166v-14z" />
    <glyph glyph-name="Umacron" unicode="&#x16a;" horiz-adv-x="1214" 
d="M1184 502l-44 -5v-167c0 -357 -300 -357 -534 -357c-233 0 -533 0 -533 357v167l-43 5v241h495v-413c0 -82 14 -111 81 -111c69 0 83 29 83 111v413h495v-241zM965 792h-715v142h715v-142z" />
    <glyph glyph-name="umacron" unicode="&#x16b;" horiz-adv-x="1069" 
d="M1039 0h-412v62c-54 -40 -149 -83 -301 -83c-260 0 -260 156 -260 279v110l-36 9v229h451v-348c0 -41 8 -53 43 -53c24 0 62 13 64 14v149l-36 9v229h451v-368l36 -9v-229zM875 651h-715v142h715v-142z" />
    <glyph glyph-name="Ubreve" unicode="&#x16c;" horiz-adv-x="1214" 
d="M1184 502l-44 -5v-167c0 -357 -300 -357 -534 -357c-233 0 -533 0 -533 357v167l-43 5v241h495v-413c0 -82 14 -111 81 -111c69 0 83 29 83 111v413h495v-241zM947 987c-17 -194 -289 -195 -339 -195s-322 1 -341 195h169c11 -66 111 -72 172 -72s161 6 172 72h167z" />
    <glyph glyph-name="ubreve" unicode="&#x16d;" horiz-adv-x="1069" 
d="M1039 0h-412v62c-54 -40 -149 -83 -301 -83c-260 0 -260 156 -260 279v110l-36 9v229h451v-348c0 -41 8 -53 43 -53c24 0 62 13 64 14v149l-36 9v229h451v-368l36 -9v-229zM860 841c-17 -194 -289 -195 -339 -195s-322 1 -341 195h169c11 -66 111 -72 172 -72
s161 6 172 72h167z" />
    <glyph glyph-name="Uring" unicode="&#x16e;" horiz-adv-x="1214" 
d="M1184 502l-44 -5v-167c0 -357 -300 -357 -534 -357c-233 0 -533 0 -533 357v167l-43 5v241h495v-413c0 -82 14 -111 81 -111c69 0 83 29 83 111v413h495v-241zM838 911c0 -95 -91 -147 -228 -147c-139 0 -231 52 -231 147s92 148 231 148c138 0 228 -53 228 -148z
M674 912c0 25 -27 35 -64 35c-39 0 -66 -10 -66 -35c0 -24 27 -34 66 -34c37 0 64 10 64 34z" />
    <glyph glyph-name="uring" unicode="&#x16f;" horiz-adv-x="1069" 
d="M1039 0h-412v62c-54 -40 -149 -83 -301 -83c-260 0 -260 156 -260 279v110l-36 9v229h451v-348c0 -41 8 -53 43 -53c24 0 62 13 64 14v149l-36 9v229h451v-368l36 -9v-229zM747 777c0 -95 -91 -147 -228 -147c-139 0 -231 52 -231 147s92 148 231 148
c138 0 228 -53 228 -148zM583 778c0 25 -27 35 -64 35c-39 0 -66 -10 -66 -35c0 -24 27 -34 66 -34c37 0 64 10 64 34z" />
    <glyph glyph-name="Uhungarumlaut" unicode="&#x170;" horiz-adv-x="1214" 
d="M1184 502l-44 -5v-167c0 -357 -300 -357 -534 -357c-233 0 -533 0 -533 357v167l-43 5v241h495v-413c0 -82 14 -111 81 -111c69 0 83 29 83 111v413h495v-241zM1295 935l-286 -142h-324l193 142h417zM785 935h-418l-192 -142h324z" />
    <glyph glyph-name="uhungarumlaut" unicode="&#x171;" horiz-adv-x="1069" 
d="M1039 0h-412v62c-54 -40 -149 -83 -301 -83c-260 0 -260 156 -260 279v110l-36 9v229h451v-348c0 -41 8 -53 43 -53c24 0 62 13 64 14v149l-36 9v229h451v-368l36 -9v-229zM1187 793l-286 -142h-324l193 142h417zM677 793h-418l-192 -142h324z" />
    <glyph glyph-name="Uogonek" unicode="&#x172;" horiz-adv-x="1214" 
d="M864 -209c-36 -5 -155 -27 -288 -27c-149 0 -228 32 -228 107c0 40 19 77 82 107c-185 16 -357 81 -357 352v167l-43 5v241h495v-413c0 -82 14 -111 81 -111c69 0 83 29 83 111v413h495v-241l-44 -5v-167c0 -293 -201 -345 -403 -355c-33 -10 -43 -21 -43 -30
c0 -23 20 -25 46 -25c48 0 89 5 124 7v-136z" />
    <glyph glyph-name="uogonek" unicode="&#x173;" horiz-adv-x="1069" 
d="M1039 -209c-36 -5 -155 -27 -288 -27c-149 0 -228 32 -228 107c0 50 30 95 138 129h-34v62c-54 -40 -149 -83 -301 -83c-260 0 -260 156 -260 279v110l-36 9v229h451v-348c0 -41 8 -53 43 -53c24 0 62 13 64 14v149l-36 9v229h451v-368l36 -9v-229
c-138 -18 -170 -39 -170 -55c0 -23 20 -25 46 -25c48 0 89 5 124 7v-136z" />
    <glyph glyph-name="Wcircumflex" unicode="&#x174;" horiz-adv-x="1602" 
d="M1582 502l-55 -5l-107 -497h-484l-105 246c-14 34 -26 77 -30 102h-2c-5 -25 -15 -68 -29 -102l-105 -246h-484l-107 497l-54 5v241h451l33 -249c9 -66 11 -110 12 -149h2c14 43 24 68 39 107l58 150h371l57 -150c15 -39 27 -65 39 -107h2c1 39 4 83 13 149l33 249h452
v-241zM1233 793h-353l-79 52l-80 -52h-354l193 142h483z" />
    <glyph glyph-name="wcircumflex" unicode="&#x175;" horiz-adv-x="1537" 
d="M1507 372l-59 -6l-101 -366h-484l-59 125c-18 37 -26 73 -34 141h-3c-8 -68 -18 -103 -34 -140l-57 -126h-486l-101 366l-59 6v234h417l29 -214c11 -85 15 -122 17 -157h2c5 35 16 86 46 159l42 100h371l41 -98c31 -75 41 -126 47 -161h2c3 35 7 72 18 159l28 212h417
v-234zM1176 651h-353l-79 52l-80 -52h-354l193 142h483z" />
    <glyph glyph-name="Ycircumflex" unicode="&#x176;" horiz-adv-x="1014" 
d="M984 502l-62 -5l-194 -257v-19l43 -6v-215h-541v215l57 6v19l-195 257l-62 5v241h352l73 -126c18 -32 35 -61 51 -93h4c15 32 32 61 50 93l74 126h350v-241zM941 793h-353l-79 52l-80 -52h-354l193 142h483z" />
    <glyph glyph-name="ycircumflex" unicode="&#x177;" horiz-adv-x="1002" 
d="M977 375l-59 -6l-119 -326c-85 -235 -226 -248 -390 -248c-124 0 -248 3 -345 15v188c90 -2 109 -2 152 -2c23 0 28 4 31 17l3 12l-171 344l-54 6v231h388l62 -266c12 -53 23 -103 29 -156h2c8 54 18 103 29 156l58 266h384v-231zM937 651h-353l-79 52l-80 -52h-354
l193 142h483z" />
    <glyph glyph-name="Ydieresis" unicode="&#x178;" horiz-adv-x="1014" 
d="M984 502l-62 -5l-194 -257v-19l43 -6v-215h-541v215l57 6v19l-195 257l-62 5v241h352l73 -126c18 -32 35 -61 51 -93h4c15 32 32 61 50 93l74 126h350v-241zM862 793h-315v140h315v-140zM470 793v140h-315v-140h315z" />
    <glyph glyph-name="Zacute" unicode="&#x179;" horiz-adv-x="911" 
d="M881 0h-851v216l288 276h-65l-10 -36h-213v287h851v-215l-290 -277h65l12 36h213v-287zM927 935l-285 -142h-391l193 142h483z" />
    <glyph glyph-name="zacute" unicode="&#x17a;" horiz-adv-x="834" 
d="M804 0h-774v171l274 218h-80l-10 -34h-181v251h768v-195l-250 -197h63l10 29h180v-243zM887 793l-285 -142h-391l193 142h483z" />
    <glyph glyph-name="Zdotaccent" unicode="&#x17b;" horiz-adv-x="911" 
d="M881 0h-851v216l288 276h-65l-10 -36h-213v287h851v-215l-290 -277h65l12 36h213v-287zM693 792h-437v142h437v-142z" />
    <glyph glyph-name="zdotaccent" unicode="&#x17c;" horiz-adv-x="834" 
d="M804 0h-774v171l274 218h-80l-10 -34h-181v251h768v-195l-250 -197h63l10 29h180v-243zM673 656h-437v142h437v-142z" />
    <glyph glyph-name="Zcaron" unicode="&#x17d;" horiz-adv-x="911" 
d="M881 0h-851v216l288 276h-65l-10 -36h-213v287h851v-215l-290 -277h65l12 36h213v-287zM894 935l-190 -142h-483l-193 142h354l80 -51l79 51h353z" />
    <glyph glyph-name="zcaron" unicode="&#x17e;" horiz-adv-x="834" 
d="M804 0h-774v171l274 218h-80l-10 -34h-181v251h768v-195l-250 -197h63l10 29h180v-243zM869 793l-190 -142h-483l-193 142h354l80 -51l79 51h353z" />
    <glyph glyph-name="longs" unicode="&#x17f;" horiz-adv-x="641" 
d="M518 0h-488v234l38 4v371c0 182 151 201 305 201c88 0 174 -7 238 -19v-161c-64 2 -75 2 -84 2c-32 0 -44 -4 -44 -23l2 -371l33 -4v-234z" />
    <glyph glyph-name="florin" unicode="&#x192;" horiz-adv-x="866" 
d="M836 750l-25 -160c-66 2 -73 2 -80 2c-32 0 -43 -4 -46 -21l-12 -78h121l-32 -202h-123l-46 -285c-24 -146 -152 -190 -309 -190c-119 0 -192 10 -254 20l25 160c64 -2 72 -2 79 -2c31 0 41 3 46 21l44 276h-98l32 202h99l13 86c22 147 151 191 310 191
c118 0 194 -11 256 -20z" />
    <glyph glyph-name="Aringacute" unicode="&#x1fa;" horiz-adv-x="1282" 
d="M1252 0h-492l-19 94h-202l-20 -94h-489v241l77 5l78 251l-55 5v241h895l148 -497l79 -5v-241zM701 319l-42 185c-6 28 -13 69 -17 97h-2c-4 -29 -13 -69 -19 -97l-39 -185h119zM871 912c0 -95 -89 -154 -229 -154c-141 0 -230 59 -230 154s89 155 230 155
s229 -60 229 -155zM706 913c0 25 -25 38 -64 38c-40 0 -65 -13 -65 -38c0 -24 25 -37 65 -37c39 0 64 13 64 37zM1090 1233l-291 -154h-391l199 154h483z" />
    <glyph glyph-name="aringacute" unicode="&#x1fb;" horiz-adv-x="952" 
d="M922 0h-409v49c-67 -42 -175 -70 -265 -70c-104 0 -218 35 -218 179v15c0 178 187 189 431 189h10v8c0 28 -12 29 -97 29h-21l-14 -26h-232v200c95 25 234 53 379 53c219 0 400 -51 400 -256v-132l36 -5v-233zM490 177v49h-29c-23 0 -48 -1 -48 -25v-7
c0 -22 14 -28 29 -28c21 0 38 6 48 11zM759 795c0 -95 -91 -147 -228 -147c-139 0 -231 52 -231 147s92 148 231 148c138 0 228 -53 228 -148zM595 796c0 25 -27 35 -64 35c-39 0 -66 -10 -66 -35c0 -24 27 -34 66 -34c37 0 64 10 64 34zM962 1115l-285 -142h-391l193 142
h483z" />
    <glyph glyph-name="AEacute" unicode="&#x1fc;" horiz-adv-x="1544" 
d="M1514 0h-851v94h-125l-21 -94h-487v239l77 9l73 237l-50 2v256h1384v-242h-226l-9 19h-153v-41h358v-212h-358v-43h152l10 21h226v-245zM663 319v282h-25c-6 -31 -13 -69 -19 -97l-39 -185h83zM1313 934l-285 -142h-391l193 142h483z" />
    <glyph glyph-name="aeacute" unicode="&#x1fd;" horiz-adv-x="1422" 
d="M1392 236h-504v-5c0 -30 6 -42 94 -42c73 0 285 -1 355 -1v-184c-88 -14 -248 -24 -405 -24c-120 0 -252 21 -330 79c-115 -75 -220 -79 -354 -79c-104 0 -218 34 -218 178v15c0 178 187 189 431 189h10v8c0 28 -12 29 -97 29h-21l-14 -26h-232v200c95 25 234 53 379 53
c84 0 161 -8 226 -28c65 19 143 28 233 28c447 0 447 -284 447 -349v-41zM999 363v7c0 32 -19 46 -58 46c-34 0 -53 -18 -53 -46v-7h111zM487 177v49h-26c-23 0 -48 -1 -48 -25v-7c0 -22 14 -28 29 -28c21 0 35 6 45 11zM1169 793l-285 -142h-391l193 142h483z" />
    <glyph glyph-name="Oslashacute" unicode="&#x1fe;" horiz-adv-x="1108" 
d="M1001 934l-285 -142h-391l193 142h483zM1079 360c0 -301 -263 -387 -525 -387c-94 0 -189 11 -270 39l-44 -41h-221l124 119c-71 60 -113 147 -113 270v22c0 296 260 389 524 389c93 0 185 -12 267 -40l45 41h222l-125 -117c70 -61 116 -149 116 -273v-22zM637 358v27
c0 99 -18 129 -83 129s-82 -30 -82 -129v-27c0 -99 20 -128 82 -128s83 29 83 128z" />
    <glyph glyph-name="oslashacute" unicode="&#x1ff;" horiz-adv-x="969" 
d="M943 793l-285 -142h-391l193 142h483zM939 296c0 -202 -173 -317 -455 -317c-67 0 -127 7 -181 20l-36 -27h-270l132 108c-64 53 -99 126 -99 216v12c0 203 175 318 454 318c69 0 134 -7 189 -21l40 28h271l-139 -112c62 -53 94 -125 94 -213v-12zM526 296v12
c0 69 -13 86 -42 86c-31 0 -44 -17 -44 -86v-12c0 -69 13 -87 44 -87c29 0 42 18 42 87z" />
    <glyph glyph-name="Scommaaccent" unicode="&#x218;" horiz-adv-x="992" 
d="M962 253c0 -238 -209 -280 -446 -280c-167 0 -336 7 -456 25v232h229l11 -29h149c59 0 70 4 70 17s-11 14 -101 22l-61 5c-178 15 -327 44 -327 257c0 237 215 268 493 268c151 0 303 -18 401 -33v-217h-231l-12 31h-151c-55 0 -67 -3 -67 -16c0 -14 17 -17 103 -26
l66 -7c240 -25 330 -83 330 -249zM770 -54l-126 -139h-365l82 139h409z" />
    <glyph glyph-name="scommaaccent" unicode="&#x219;" horiz-adv-x="826" 
d="M801 206c0 -199 -198 -226 -440 -226c-122 0 -239 12 -308 20v181h239l10 -23h55c32 0 45 2 45 14c0 11 -11 15 -49 19l-54 7c-167 22 -274 57 -274 206c0 202 186 222 388 222c141 0 278 -12 355 -22v-176h-236l-10 23h-64c-31 0 -45 -1 -45 -13c0 -14 15 -16 53 -20
l76 -7c193 -18 259 -75 259 -205zM674 -54l-151 -139h-366l110 139h407z" />
    <glyph glyph-name="uni021A" unicode="&#x21a;" horiz-adv-x="1021" 
d="M991 466h-208l-16 41h-22v-261l43 -5v-241h-554v241l43 5v261h-23l-15 -41h-209v277h961v-277zM735 -54l-126 -139h-365l82 139h409z" />
    <glyph glyph-name="uni021B" unicode="&#x21b;" horiz-adv-x="710" 
d="M670 -3c-12 -1 -95 -18 -215 -18c-165 0 -319 19 -319 245v159l-106 10v213h106v149h415v-149h129v-223h-129v-157c0 -30 0 -37 39 -37c31 0 74 2 80 2v-194zM616 -54l-126 -139h-365l82 139h409z" />
    <glyph glyph-name="circumflex" unicode="&#x2c6;" horiz-adv-x="926" 
d="M896 651h-353l-79 52l-80 -52h-354l193 142h483z" />
    <glyph glyph-name="caron" unicode="&#x2c7;" horiz-adv-x="926" 
d="M896 793l-190 -142h-483l-193 142h354l80 -51l79 51h353z" />
    <glyph glyph-name="uni02C9" unicode="&#x2c9;" horiz-adv-x="775" 
d="M745 651h-715v142h715v-142z" />
    <glyph glyph-name="breve" unicode="&#x2d8;" horiz-adv-x="740" 
d="M710 841c-17 -194 -289 -195 -339 -195s-322 1 -341 195h169c11 -66 111 -72 172 -72s161 6 172 72h167z" />
    <glyph glyph-name="dotaccent" unicode="&#x2d9;" horiz-adv-x="497" 
d="M467 651h-437v142h437v-142z" />
    <glyph glyph-name="ring" unicode="&#x2da;" horiz-adv-x="519" 
d="M489 777c0 -95 -91 -147 -228 -147c-139 0 -231 52 -231 147s92 148 231 148c138 0 228 -53 228 -148zM325 778c0 25 -27 35 -64 35c-39 0 -66 -10 -66 -35c0 -24 27 -34 66 -34c37 0 64 10 64 34z" />
    <glyph glyph-name="ogonek" unicode="&#x2db;" horiz-adv-x="578" 
d="M546 -209c-36 -5 -155 -27 -288 -27c-149 0 -228 32 -228 107c0 69 57 128 302 164l214 -35c-138 -18 -170 -39 -170 -55c0 -23 20 -25 46 -25c48 0 89 5 124 7v-136z" />
    <glyph glyph-name="tilde" unicode="&#x2dc;" horiz-adv-x="767" 
d="M737 821c0 -172 -127 -179 -182 -179c-19 0 -67 1 -152 22l-88 22c-41 10 -69 16 -81 16c-27 0 -38 -10 -38 -42v-15h-166v15c0 173 125 179 195 179c28 0 55 -2 135 -21l88 -21c42 -10 65 -17 90 -17c24 0 33 9 33 41v14h166v-14z" />
    <glyph glyph-name="hungarumlaut" unicode="&#x2dd;" horiz-adv-x="1180" 
d="M1150 793l-286 -142h-324l193 142h417zM640 793h-418l-192 -142h324z" />
    <glyph glyph-name="uni037E" unicode="&#x37e;" horiz-adv-x="430" 
d="M400 254h-370v217h370v-217z" />
    <glyph glyph-name="dieresisacute" unicode="&#x385;" horiz-adv-x="1138" 
d="M1108 653h-265v140h265v-140zM835 793h-433l-98 -140h341zM295 653h-265v140h265v-140z" />
    <glyph glyph-name="middot" unicode="&#x387;" horiz-adv-x="430" 
d="M400 254h-370v217h370v-217z" />
    <glyph glyph-name="uni03A9" unicode="&#x3a9;" horiz-adv-x="1096" 
d="M1066 477c0 -130 -59 -234 -215 -278v-22h197v-177h-460v297c46 19 50 56 50 121v6c0 58 -13 90 -90 90c-78 0 -89 -32 -89 -90v-6c0 -65 1 -102 48 -121v-297h-460v177h197v22c-155 44 -214 148 -214 278l1 1c0 190 144 292 517 292s518 -102 518 -292v-1z" />
    <glyph glyph-name="uni03BC" unicode="&#x3bc;" horiz-adv-x="1069" 
d="M1039 0h-412v62c-29 -21 -69 -44 -124 -60c-7 -2 -15 -4 -22 -6v-190h-451v229l36 6v327l-36 9v229h451v-348c0 -41 8 -53 43 -53c24 0 62 13 64 14v149l-36 9v229h451v-368l36 -9v-229z" />
    <glyph glyph-name="pi" unicode="&#x3c0;" horiz-adv-x="1127" 
d="M1097 -17c-34 -3 -121 -3 -144 -3c-240 0 -336 56 -336 240v108h-107v-328h-415v329h-65v277h1067v-277h-65v-119c0 -25 7 -35 31 -35h34v-192z" />
    <glyph glyph-name="Wgrave" unicode="&#x1e80;" horiz-adv-x="1602" 
d="M1582 502l-55 -5l-107 -497h-484l-105 246c-14 34 -26 77 -30 102h-2c-5 -25 -15 -68 -29 -102l-105 -246h-484l-107 497l-54 5v241h451l33 -249c9 -66 11 -110 12 -149h2c14 43 24 68 39 107l58 150h371l57 -150c15 -39 27 -65 39 -107h2c1 39 4 83 13 149l33 249h452
v-241zM1004 793h-391l-285 142h484z" />
    <glyph glyph-name="wgrave" unicode="&#x1e81;" horiz-adv-x="1537" 
d="M1507 372l-59 -6l-101 -366h-484l-59 125c-18 37 -26 73 -34 141h-3c-8 -68 -18 -103 -34 -140l-57 -126h-486l-101 366l-59 6v234h417l29 -214c11 -85 15 -122 17 -157h2c5 35 16 86 46 159l42 100h371l41 -98c31 -75 41 -126 47 -161h2c3 35 7 72 18 159l28 212h417
v-234zM962 651h-391l-285 142h484z" />
    <glyph glyph-name="Wacute" unicode="&#x1e82;" horiz-adv-x="1602" 
d="M1582 502l-55 -5l-107 -497h-484l-105 246c-14 34 -26 77 -30 102h-2c-5 -25 -15 -68 -29 -102l-105 -246h-484l-107 497l-54 5v241h451l33 -249c9 -66 11 -110 12 -149h2c14 43 24 68 39 107l58 150h371l57 -150c15 -39 27 -65 39 -107h2c1 39 4 83 13 149l33 249h452
v-241zM1273 934l-285 -142h-391l193 142h483z" />
    <glyph glyph-name="wacute" unicode="&#x1e83;" horiz-adv-x="1537" 
d="M1507 372l-59 -6l-101 -366h-484l-59 125c-18 37 -26 73 -34 141h-3c-8 -68 -18 -103 -34 -140l-57 -126h-486l-101 366l-59 6v234h417l29 -214c11 -85 15 -122 17 -157h2c5 35 16 86 46 159l42 100h371l41 -98c31 -75 41 -126 47 -161h2c3 35 7 72 18 159l28 212h417
v-234zM1218 793l-285 -142h-391l193 142h483z" />
    <glyph glyph-name="Wdieresis" unicode="&#x1e84;" horiz-adv-x="1602" 
d="M1582 502l-55 -5l-107 -497h-484l-105 246c-14 34 -26 77 -30 102h-2c-5 -25 -15 -68 -29 -102l-105 -246h-484l-107 497l-54 5v241h451l33 -249c9 -66 11 -110 12 -149h2c14 43 24 68 39 107l58 150h371l57 -150c15 -39 27 -65 39 -107h2c1 39 4 83 13 149l33 249h452
v-241zM1155 793h-315v140h315v-140zM763 793v140h-315v-140h315z" />
    <glyph glyph-name="wdieresis" unicode="&#x1e85;" horiz-adv-x="1537" 
d="M1507 372l-59 -6l-101 -366h-484l-59 125c-18 37 -26 73 -34 141h-3c-8 -68 -18 -103 -34 -140l-57 -126h-486l-101 366l-59 6v234h417l29 -214c11 -85 15 -122 17 -157h2c5 35 16 86 46 159l42 100h371l41 -98c31 -75 41 -126 47 -161h2c3 35 7 72 18 159l28 212h417
v-234zM1094 652h-315v140h315v-140zM702 652v140h-315v-140h315z" />
    <glyph glyph-name="Ygrave" unicode="&#x1ef2;" horiz-adv-x="1014" 
d="M984 502l-62 -5l-194 -257v-19l43 -6v-215h-541v215l57 6v19l-195 257l-62 5v241h352l73 -126c18 -32 35 -61 51 -93h4c15 32 32 61 50 93l74 126h350v-241zM735 793h-391l-285 142h484z" />
    <glyph glyph-name="ygrave" unicode="&#x1ef3;" horiz-adv-x="1002" 
d="M977 375l-59 -6l-119 -326c-85 -235 -226 -248 -390 -248c-124 0 -248 3 -345 15v188c90 -2 109 -2 152 -2c23 0 28 4 31 17l3 12l-171 344l-54 6v231h388l62 -266c12 -53 23 -103 29 -156h2c8 54 18 103 29 156l58 266h384v-231zM718 651h-391l-285 142h484z" />
    <glyph glyph-name="dieresisgrave" unicode="&#x1fed;" horiz-adv-x="1138" 
d="M1108 653h-265v140h265v-140zM834 653l-98 140h-433l190 -140h341zM295 653h-265v140h265v-140z" />
    <glyph glyph-name="figuredash" unicode="&#x2012;" horiz-adv-x="764" 
d="M734 149h-704v178h704v-178z" />
    <glyph glyph-name="endash" unicode="&#x2013;" horiz-adv-x="506" 
d="M476 189h-446v219h446v-219z" />
    <glyph glyph-name="emdash" unicode="&#x2014;" horiz-adv-x="703" 
d="M673 189h-643v219h643v-219z" />
    <glyph glyph-name="threequartersemdash" unicode="&#x2015;" horiz-adv-x="504" 
d="M474 149h-444v178h444v-178z" />
    <glyph glyph-name="quoteleft" unicode="&#x2018;" horiz-adv-x="494" 
d="M464 793l-116 -309h-318l171 309h263z" />
    <glyph glyph-name="quoteright" unicode="&#x2019;" horiz-adv-x="494" 
d="M464 793l-171 -309h-263l115 309h319z" />
    <glyph glyph-name="quotesinglbase" unicode="&#x201a;" horiz-adv-x="494" 
d="M464 195l-171 -310h-263l115 310h319z" />
    <glyph glyph-name="quotedblleft" unicode="&#x201c;" horiz-adv-x="895" 
d="M865 793l-116 -309h-319l172 309h263zM464 793l-116 -309h-318l171 309h263z" />
    <glyph glyph-name="quotedblright" unicode="&#x201d;" horiz-adv-x="895" 
d="M865 793l-172 -309h-263l116 309h319zM464 793l-171 -309h-263l115 309h319z" />
    <glyph glyph-name="quotedblbase" unicode="&#x201e;" horiz-adv-x="895" 
d="M865 195l-172 -310h-263l116 310h319zM464 195h-319l-115 -310h263z" />
    <glyph glyph-name="dagger" unicode="&#x2020;" horiz-adv-x="780" 
d="M750 395h-152v-525h-415v525h-153v229h153v163h415v-163h152v-229z" />
    <glyph glyph-name="daggerdbl" unicode="&#x2021;" horiz-adv-x="780" 
d="M750 116h-152v-246h-415v246h-153v229h153v103h-153v229h153v116h415v-116h152v-229h-152v-103h152v-229z" />
    <glyph glyph-name="bullet" unicode="&#x2022;" horiz-adv-x="539" 
d="M509 363c0 -119 -107 -215 -240 -215c-131 0 -239 96 -239 215c0 121 108 217 239 217c133 0 240 -96 240 -217z" />
    <glyph glyph-name="onedotenleader" unicode="&#x2024;" horiz-adv-x="482" 
d="M452 0h-422v217h422v-217z" />
    <glyph glyph-name="twodotenleader" unicode="&#x2025;" horiz-adv-x="1039" 
d="M1009 0h-422v217h422v-217zM452 0v217h-422v-217h422z" />
    <glyph glyph-name="ellipsis" unicode="&#x2026;" horiz-adv-x="1524" 
d="M1494 0h-422v217h422v-217zM973 0v217h-422v-217h422zM452 0h-422v217h422v-217z" />
    <glyph glyph-name="perthousand" unicode="&#x2030;" horiz-adv-x="2340" 
d="M2310 227c0 -181 -116 -240 -306 -240c-192 0 -306 59 -306 240v3c0 182 114 241 306 241c190 0 306 -59 306 -241v-3zM2031 226v6c0 77 -5 89 -27 89s-27 -12 -27 -89v-6c0 -76 5 -89 27 -89s27 13 27 89zM1658 227c0 -181 -116 -240 -307 -240s-305 59 -305 240v3
c0 182 114 241 305 241s307 -59 307 -241v-3zM1378 226v6c0 77 -5 89 -27 89s-26 -12 -26 -89v-6c0 -76 4 -89 26 -89s27 13 27 89zM1385 754l-786 -754h-310l787 754h309zM641 527c0 -182 -116 -240 -306 -240c-192 0 -305 58 -305 240v3c0 181 113 240 305 240
c190 0 306 -59 306 -240v-3zM362 526v5c0 78 -5 89 -27 89c-21 0 -26 -11 -26 -89v-5c0 -77 5 -90 26 -90c22 0 27 13 27 90z" />
    <glyph glyph-name="guilsinglleft" unicode="&#x2039;" horiz-adv-x="617" 
d="M587 53h-399l-158 245l158 245h399l-145 -245z" />
    <glyph glyph-name="guilsinglright" unicode="&#x203a;" horiz-adv-x="617" 
d="M587 298l-157 -245h-400l146 245l-146 245h400z" />
    <glyph glyph-name="exclamdbl" unicode="&#x203c;" horiz-adv-x="995" 
d="M946 0h-398v213h398v-213zM534 793h431l-34 -527h-367zM442 213v-213h-398v213h398zM461 793l-34 -527h-367l-30 527h431z" />
    <glyph glyph-name="overscore" unicode="&#x203e;" horiz-adv-x="983" 
d="M953 814h-923v131h923v-131z" />
    <glyph glyph-name="fraction" unicode="&#x2044;" horiz-adv-x="1157" 
d="M1127 754l-787 -754h-310l788 754h309z" />
    <glyph glyph-name="zero.superior" unicode="&#x2070;" horiz-adv-x="672" 
d="M642 523c0 -181 -117 -237 -307 -237c-189 0 -305 56 -305 237v2c0 181 116 237 305 237c190 0 307 -56 307 -237v-2zM363 522v4c0 76 -6 88 -28 88c-20 0 -26 -12 -26 -88v-4c0 -75 6 -87 26 -87c22 0 28 12 28 87z" />
    <glyph glyph-name="i.superior" unicode="&#x2071;" horiz-adv-x="353" 
d="M323 317h-293v140l22 3v78l-22 2v141h271v-221l22 -3v-140zM307 700h-262v93h262v-93z" />
    <glyph glyph-name="four.superior" unicode="&#x2074;" horiz-adv-x="678" 
d="M648 373h-63v-23l26 -3v-47h-329v47l27 3v23h-279v117l362 256h193v-243h63v-130zM328 503v73l-97 -73h97z" />
    <glyph glyph-name="five.superior" unicode="&#x2075;" horiz-adv-x="614" 
d="M584 443c0 -112 -106 -159 -274 -159c-122 0 -215 11 -276 28v133h139l5 -25c18 -1 31 -1 37 -1c67 0 86 3 86 20v4c0 16 -21 18 -74 18h-197l33 285h507v-152h-140l-3 14h-152l-1 -18h22c245 0 288 -33 288 -144v-3z" />
    <glyph glyph-name="six.superior" unicode="&#x2076;" horiz-adv-x="642" 
d="M344 449v3c0 21 0 31 -21 31c-9 0 -21 -2 -22 -2v-29c0 -21 1 -37 22 -37s21 17 21 34zM612 459v-5c0 -102 -71 -170 -288 -170c-294 0 -294 140 -294 233v5c0 106 1 240 281 240c115 0 219 -17 266 -28v-129h-140l-4 16c-27 1 -55 2 -79 2c-43 0 -53 0 -53 -25v-5
c15 3 46 4 55 4c167 0 256 -23 256 -138z" />
    <glyph glyph-name="seven.superior" unicode="&#x2077;" horiz-adv-x="645" 
d="M615 602l-294 -302h-291l299 308h-123l-4 -25h-140v163h553v-144z" />
    <glyph glyph-name="eight.superior" unicode="&#x2078;" horiz-adv-x="676" 
d="M646 427c0 -96 -76 -143 -304 -143h-7c-228 0 -304 47 -304 143v5c0 36 17 71 61 92c-36 20 -62 42 -62 102v6c0 81 80 130 305 130h7c224 0 304 -49 304 -130v-6c0 -60 -25 -82 -61 -102c44 -21 61 -56 61 -92v-5zM380 437v3c0 20 -10 33 -38 33h-7
c-28 0 -38 -13 -38 -33v-3c0 -20 10 -33 38 -33h7c28 0 38 13 38 33zM378 611v3c0 15 -7 26 -36 26h-7c-29 0 -36 -11 -36 -26v-3c0 -15 7 -26 36 -26h7c29 0 36 11 36 26z" />
    <glyph glyph-name="nine.superior" unicode="&#x2079;" horiz-adv-x="642" 
d="M298 597v-3c0 -21 0 -31 21 -31c9 0 21 2 22 2v29c0 21 0 37 -22 37c-21 0 -21 -17 -21 -34zM30 587v5c0 102 71 170 288 170c294 0 294 -140 294 -233v-5c0 -106 -1 -240 -281 -240c-115 0 -219 17 -266 28v129h140l4 -16c27 -1 55 -2 79 -2c43 0 53 0 53 25v5
c-15 -3 -46 -4 -55 -4c-167 0 -256 23 -256 138z" />
    <glyph glyph-name="parenleft.superior" unicode="&#x207d;" horiz-adv-x="353" 
d="M323 269h-210c-52 57 -83 157 -83 251v3c0 94 31 194 83 251h210c-36 -52 -74 -156 -74 -251v-3c0 -95 38 -199 74 -251z" />
    <glyph glyph-name="parenright.superior" unicode="&#x207e;" horiz-adv-x="353" 
d="M323 520c0 -94 -31 -194 -82 -251h-211c36 52 74 156 74 251v3c0 95 -38 199 -74 251h211c51 -57 82 -157 82 -251v-3z" />
    <glyph glyph-name="n.superior" unicode="&#x207f;" horiz-adv-x="666" 
d="M636 317h-271v209c0 24 -5 32 -25 32c-15 0 -37 -8 -39 -9v-89l21 -3v-140h-292v140l22 3v78l-22 2v141h248v-38c43 33 103 50 155 50c181 0 181 -93 181 -167v-66l22 -3v-140z" />
    <glyph glyph-name="zero.inferior" unicode="&#x2080;" horiz-adv-x="676" 
d="M646 221c0 -188 -119 -237 -308 -237c-190 0 -308 49 -308 237v5c0 187 118 236 308 236c189 0 308 -49 308 -236v-5zM364 220v6c0 75 -5 87 -26 87c-22 0 -27 -12 -27 -87v-6c0 -75 5 -87 27 -87c21 0 26 12 26 87z" />
    <glyph glyph-name="one.inferior" unicode="&#x2081;" horiz-adv-x="451" 
d="M421 0h-391v145l57 6v121l-57 -15v140l139 49h195v-295l57 -6v-145z" />
    <glyph glyph-name="two.inferior" unicode="&#x2082;" horiz-adv-x="631" 
d="M589 0h-559v53c0 131 69 187 188 222c97 28 98 29 98 40c0 7 -2 11 -57 11c-13 0 -41 0 -76 -2l-2 -22h-144v128c100 27 213 32 280 32c216 0 284 -46 284 -145c0 -81 -58 -122 -200 -144c-91 -14 -99 -16 -99 -23v-1h140l3 24h144v-173z" />
    <glyph glyph-name="three.inferior" unicode="&#x2083;" horiz-adv-x="626" 
d="M596 129c0 -106 -82 -145 -285 -145c-111 0 -231 17 -281 36v128h144l2 -21c36 -2 71 -2 97 -2c43 0 51 5 51 17v1c0 15 -10 16 -68 16h-155v125h157c53 0 66 6 66 20v1c0 12 -7 18 -50 18c-31 0 -65 -1 -98 -2l-2 -20h-144v124c58 20 170 37 281 37
c149 0 285 -19 285 -130v-5c0 -27 -10 -79 -58 -101c51 -19 58 -72 58 -92v-5z" />
    <glyph glyph-name="four.inferior" unicode="&#x2084;" horiz-adv-x="678" 
d="M648 73h-63v-23l26 -3v-47h-329v47l27 3v23h-279v117l362 256h193v-243h63v-130zM328 203v73l-97 -73h97z" />
    <glyph glyph-name="five.inferior" unicode="&#x2085;" horiz-adv-x="614" 
d="M584 143c0 -112 -106 -159 -274 -159c-122 0 -215 11 -276 28v133h139l5 -25c18 -1 31 -1 37 -1c67 0 86 3 86 20v4c0 16 -21 18 -74 18h-197l33 285h507v-152h-140l-3 14h-152l-1 -18h22c245 0 288 -33 288 -144v-3z" />
    <glyph glyph-name="six.inferior" unicode="&#x2086;" horiz-adv-x="642" 
d="M344 149v3c0 21 0 31 -21 31c-9 0 -21 -2 -22 -2v-29c0 -21 1 -37 22 -37s21 17 21 34zM612 159v-5c0 -102 -71 -170 -288 -170c-294 0 -294 140 -294 233v5c0 106 1 240 281 240c115 0 219 -17 266 -28v-129h-140l-4 16c-27 1 -55 2 -79 2c-43 0 -53 0 -53 -25v-5
c15 3 46 4 55 4c167 0 256 -23 256 -138z" />
    <glyph glyph-name="seven.inferior" unicode="&#x2087;" horiz-adv-x="645" 
d="M615 302l-294 -302h-291l299 308h-123l-4 -25h-140v163h553v-144z" />
    <glyph glyph-name="eight.inferior" unicode="&#x2088;" horiz-adv-x="676" 
d="M646 127c0 -96 -76 -143 -304 -143h-7c-228 0 -304 47 -304 143v5c0 36 17 71 61 92c-36 20 -62 42 -62 102v6c0 81 80 130 305 130h7c224 0 304 -49 304 -130v-6c0 -60 -25 -82 -61 -102c44 -21 61 -56 61 -92v-5zM380 137v3c0 20 -10 33 -38 33h-7
c-28 0 -38 -13 -38 -33v-3c0 -20 10 -33 38 -33h7c28 0 38 13 38 33zM378 311v3c0 15 -7 26 -36 26h-7c-29 0 -36 -11 -36 -26v-3c0 -15 7 -26 36 -26h7c29 0 36 11 36 26z" />
    <glyph glyph-name="nine.inferior" unicode="&#x2089;" horiz-adv-x="642" 
d="M298 297v-3c0 -21 0 -31 21 -31c9 0 21 2 22 2v29c0 21 0 37 -22 37c-21 0 -21 -17 -21 -34zM30 287v5c0 102 71 170 288 170c294 0 294 -140 294 -233v-5c0 -106 -1 -240 -281 -240c-115 0 -219 17 -266 28v129h140l4 -16c27 -1 55 -2 79 -2c43 0 53 0 53 25v5
c-15 -3 -46 -4 -55 -4c-167 0 -256 23 -256 138z" />
    <glyph glyph-name="parenleft.inferior" unicode="&#x208d;" horiz-adv-x="353" 
d="M323 -51h-210c-52 58 -83 157 -83 252v2c0 94 31 194 83 251h210c-36 -52 -74 -156 -74 -251v-2c0 -95 38 -199 74 -252z" />
    <glyph glyph-name="parenright.inferior" unicode="&#x208e;" horiz-adv-x="353" 
d="M323 201c0 -95 -31 -194 -82 -252h-211c36 53 74 157 74 252v2c0 95 -38 199 -74 251h211c51 -57 82 -157 82 -251v-2z" />
    <glyph glyph-name="colonmonetary" unicode="&#x20a1;" horiz-adv-x="792" 
d="M762 4c-24 -7 -65 -12 -114 -16v-145h-171v137c-19 -1 -37 -1 -54 -1c-16 0 -31 1 -45 2v-138h-171v173c-119 51 -177 150 -177 282v10c0 131 58 230 177 280v172h171v-136c14 1 29 2 45 2c18 0 36 0 54 -1v135h171v-144c52 -5 93 -11 114 -15v-246h-200l-10 34h-17
c-82 0 -96 -4 -96 -81v-10c0 -79 14 -83 96 -83h227v-211z" />
    <glyph glyph-name="franc" unicode="&#x20a3;" horiz-adv-x="959" 
d="M929 254h-389v-34h84v-112h-84v-108h-466v108h-44v112h44v284l-43 5v234h898v-248h-230l-9 19h-150v-40h389v-220z" />
    <glyph glyph-name="lira" unicode="&#x20a4;" horiz-adv-x="939" 
d="M909 0h-834v189c39 25 55 41 55 74v12h-100v82h100v46h-100v82h100v9c0 206 154 282 422 282c121 0 235 -8 357 -22v-237h-213l-10 27h-26c-89 0 -89 -2 -89 -50v-9h195v-82h-195v-46h195v-82h-195v-12c0 -10 -1 -16 -6 -30h344v-233z" />
    <glyph glyph-name="peseta" unicode="&#x20a7;" horiz-adv-x="1201" 
d="M1171 405h-68c-48 -188 -277 -216 -511 -216c-31 0 -39 1 -89 3v-192h-473v241l43 5v159h-43v152h43v60l-43 5v121c135 16 384 27 498 27c294 0 530 -32 576 -213h67v-152zM680 483v3c0 40 -41 40 -103 40c-29 0 -64 -2 -74 -3v-81c16 -1 45 -2 73 -2c63 0 104 0 104 43z
" />
    <glyph glyph-name="Euro" unicode="&#x20ac;" horiz-adv-x="928" 
d="M898 2c-59 -17 -188 -29 -249 -29c-341 0 -521 88 -547 296h-72v72h72v57h-72v71h72c26 207 153 301 489 301c119 0 248 -12 307 -29v-244h-220l-4 15h-15c-68 0 -82 -10 -86 -43h320l-24 -71h-296v-57h276l-25 -72h-251c6 -39 24 -39 132 -39c62 0 138 5 193 11v-239z
" />
    <glyph glyph-name="litre" unicode="&#x2113;" horiz-adv-x="793" 
d="M761 46c-74 -30 -173 -66 -332 -66c-213 0 -319 60 -319 262v24l-49 -17l-31 87l80 30v218c0 164 105 219 359 219c212 0 294 -26 294 -133c0 -91 -82 -167 -238 -243v-185c0 -68 34 -75 72 -75c31 0 68 10 103 21zM650 669c0 20 -11 37 -56 37c-63 0 -69 -50 -69 -122
v-59c87 45 125 90 125 144z" />
    <glyph glyph-name="afii61352" unicode="&#x2116;" horiz-adv-x="2176" 
d="M2145 0h-909v104h909v-104zM2146 442c0 -222 -173 -320 -456 -320c-279 0 -453 98 -453 320v6c0 223 174 321 453 321c283 0 456 -97 456 -320v-7zM1733 442v7c0 70 -14 88 -43 88c-30 0 -44 -18 -44 -89v-6c0 -71 14 -90 44 -90c29 0 43 19 43 90zM1208 502l-43 -5v-497
h-390l-231 208c-16 15 -40 36 -54 50h-3c2 -26 2 -56 2 -83v-175h-459v241l45 5v251l-45 5v241h423l243 -218c14 -13 40 -35 54 -49h2c-2 28 -2 55 -2 80v187h458v-241z" />
    <glyph glyph-name="trademark" unicode="&#x2122;" horiz-adv-x="1279" 
d="M1247 342h-252v123c0 19 0 40 1 58h-1c-10 -11 -24 -24 -35 -35l-53 -50h-61l-53 50c-12 11 -26 24 -36 35h-1c1 -18 2 -39 2 -58v-123h-255v91l41 5v201l-41 6v91h225l112 -106c12 -11 25 -25 36 -36h1c11 11 23 25 35 36l112 106h225v-91l-41 -6v-201l39 -5v-91z
M484 595h-92l-8 24h-13v-181l37 -5v-91h-302v91l39 5v181h-15l-8 -24h-92v141h454v-141z" />
    <glyph glyph-name="Omega" unicode="&#x2126;" horiz-adv-x="1096" 
d="M1066 477c0 -130 -59 -234 -215 -278v-22h197v-177h-460v297c46 19 50 56 50 121v6c0 58 -13 90 -90 90c-78 0 -89 -32 -89 -90v-6c0 -65 1 -102 48 -121v-297h-460v177h197v22c-155 44 -214 148 -214 278l1 1c0 190 144 292 517 292s518 -102 518 -292v-1z" />
    <glyph glyph-name="estimated" unicode="&#x212e;" horiz-adv-x="669" 
d="M639 282h-476v-193c46 -40 101 -63 168 -63c124 0 184 59 233 127l34 -19c-57 -81 -128 -141 -267 -141c-181 0 -301 133 -301 290c0 159 115 290 305 290c189 0 304 -134 304 -291zM506 315v163c-41 33 -106 62 -171 62c-67 0 -128 -21 -172 -62v-163h343z" />
    <glyph glyph-name="onethird" unicode="&#x2153;" horiz-adv-x="1585" 
d="M1555 129c0 -106 -82 -145 -285 -145c-111 0 -231 17 -281 36v128h144l2 -21c36 -2 71 -2 97 -2c43 0 51 5 51 17v1c0 15 -10 16 -68 16h-155v125h157c53 0 66 6 66 20v1c0 12 -7 18 -50 18c-31 0 -65 -1 -98 -2l-2 -20h-144v124c58 20 170 37 281 37
c149 0 285 -19 285 -130v-5c0 -27 -10 -79 -58 -101c51 -19 58 -72 58 -92v-5zM1262 754l-787 -754h-310l788 754h309zM421 300h-391v145l57 6v121l-57 -15v140l139 49h195v-295l57 -6v-145z" />
    <glyph glyph-name="twothirds" unicode="&#x2154;" horiz-adv-x="1765" 
d="M1735 129c0 -106 -82 -145 -285 -145c-111 0 -231 17 -281 36v128h144l2 -21c36 -2 71 -2 97 -2c43 0 51 5 51 17v1c0 15 -10 16 -68 16h-155v125h157c53 0 66 6 66 20v1c0 12 -7 18 -50 18c-31 0 -65 -1 -98 -2l-2 -20h-144v124c58 20 170 37 281 37
c149 0 285 -19 285 -130v-5c0 -27 -10 -79 -58 -101c51 -19 58 -72 58 -92v-5zM1442 754l-787 -754h-310l788 754h309zM589 300h-559v53c0 131 69 187 188 222c97 28 98 29 98 40c0 7 -2 11 -57 11c-13 0 -41 0 -76 -2l-2 -22h-144v128c100 27 213 32 280 32
c216 0 284 -46 284 -145c0 -81 -58 -122 -200 -144c-91 -14 -99 -16 -99 -23v-1h140l3 24h144v-173z" />
    <glyph glyph-name="oneeighth" unicode="&#x215b;" horiz-adv-x="1599" 
d="M1569 127c0 -96 -76 -143 -304 -143h-7c-228 0 -304 47 -304 143v5c0 36 17 71 61 92c-36 20 -62 42 -62 102v6c0 81 80 130 305 130h7c224 0 304 -49 304 -130v-6c0 -60 -25 -82 -61 -102c44 -21 61 -56 61 -92v-5zM1303 137v3c0 20 -10 33 -38 33h-7
c-28 0 -38 -13 -38 -33v-3c0 -20 10 -33 38 -33h7c28 0 38 13 38 33zM1301 311v3c0 15 -7 26 -36 26h-7c-29 0 -36 -11 -36 -26v-3c0 -15 7 -26 36 -26h7c29 0 36 11 36 26zM1262 754l-787 -754h-310l788 754h309zM421 300h-391v145l57 6v121l-57 -15v140l139 49h195v-295
l57 -6v-145z" />
    <glyph glyph-name="threeeighths" unicode="&#x215c;" horiz-adv-x="1723" 
d="M1693 127c0 -96 -76 -143 -304 -143h-7c-228 0 -304 47 -304 143v5c0 36 17 71 61 92c-36 20 -62 42 -62 102v6c0 81 80 130 305 130h7c224 0 304 -49 304 -130v-6c0 -60 -25 -82 -61 -102c44 -21 61 -56 61 -92v-5zM1427 137v3c0 20 -10 33 -38 33h-7
c-28 0 -38 -13 -38 -33v-3c0 -20 10 -33 38 -33h7c28 0 38 13 38 33zM1425 311v3c0 15 -7 26 -36 26h-7c-29 0 -36 -11 -36 -26v-3c0 -15 7 -26 36 -26h7c29 0 36 11 36 26zM1386 754l-787 -754h-310l788 754h309zM596 429c0 -106 -82 -145 -285 -145
c-111 0 -231 17 -281 36v128h144l2 -21c36 -2 71 -2 97 -2c43 0 51 5 51 17v1c0 15 -10 16 -68 16h-155v125h157c53 0 66 6 66 20v1c0 12 -7 18 -50 18c-31 0 -65 -1 -98 -2l-2 -20h-144v124c58 20 170 37 281 37c149 0 285 -19 285 -130v-5c0 -27 -10 -79 -58 -101
c51 -19 58 -72 58 -92v-5z" />
    <glyph glyph-name="fiveeighths" unicode="&#x215d;" horiz-adv-x="1716" 
d="M1686 127c0 -96 -76 -143 -304 -143h-7c-228 0 -304 47 -304 143v5c0 36 17 71 61 92c-36 20 -62 42 -62 102v6c0 81 80 130 305 130h7c224 0 304 -49 304 -130v-6c0 -60 -25 -82 -61 -102c44 -21 61 -56 61 -92v-5zM1420 137v3c0 20 -10 33 -38 33h-7
c-28 0 -38 -13 -38 -33v-3c0 -20 10 -33 38 -33h7c28 0 38 13 38 33zM1418 311v3c0 15 -7 26 -36 26h-7c-29 0 -36 -11 -36 -26v-3c0 -15 7 -26 36 -26h7c29 0 36 11 36 26zM1379 754l-787 -754h-310l788 754h309zM584 443c0 -112 -106 -159 -274 -159
c-122 0 -215 11 -276 28v133h139l5 -25c18 -1 31 -1 37 -1c67 0 86 3 86 20v4c0 16 -21 18 -74 18h-197l33 285h507v-152h-140l-3 14h-152l-1 -18h22c245 0 288 -33 288 -144v-3z" />
    <glyph glyph-name="seveneighths" unicode="&#x215e;" horiz-adv-x="1579" 
d="M1549 127c0 -96 -76 -143 -304 -143h-7c-228 0 -304 47 -304 143v5c0 36 17 71 61 92c-36 20 -62 42 -62 102v6c0 81 80 130 305 130h7c224 0 304 -49 304 -130v-6c0 -60 -25 -82 -61 -102c44 -21 61 -56 61 -92v-5zM1283 137v3c0 20 -10 33 -38 33h-7
c-28 0 -38 -13 -38 -33v-3c0 -20 10 -33 38 -33h7c28 0 38 13 38 33zM1281 311v3c0 15 -7 26 -36 26h-7c-29 0 -36 -11 -36 -26v-3c0 -15 7 -26 36 -26h7c29 0 36 11 36 26zM1242 754l-787 -754h-310l788 754h309zM615 602l-294 -302h-291l299 308h-123l-4 -25h-140v163h553
v-144z" />
    <glyph glyph-name="partialdiff" unicode="&#x2202;" horiz-adv-x="983" 
d="M953 423c0 -70 -9 -134 -30 -189c-57 -150 -209 -255 -474 -255c-286 0 -419 127 -419 306c0 38 2 70 9 97c42 173 231 212 452 212c10 0 52 0 94 -9c-6 11 -15 24 -25 32c-38 33 -111 50 -225 50c-52 0 -115 -5 -188 -18l18 164c86 17 168 27 245 27
c314 0 543 -147 543 -417zM535 319c0 31 -12 42 -37 42c-30 0 -52 -28 -56 -65c-3 -8 -3 -22 -3 -38c0 -36 11 -49 35 -49c23 0 43 26 53 50c5 16 8 37 8 60z" />
    <glyph glyph-name="Delta" unicode="&#x2206;" horiz-adv-x="1263" 
d="M1233 0h-1203l213 743h773zM705 225l-55 279c-6 28 -13 69 -18 97h-2c-5 -28 -13 -69 -19 -97l-57 -279h151z" />
    <glyph glyph-name="product" unicode="&#x220f;" horiz-adv-x="1124" 
d="M1094 467h-68v-579h-413v578h-103v-578h-413v579h-67v276h1064v-276z" />
    <glyph glyph-name="summation" unicode="&#x2211;" horiz-adv-x="914" 
d="M884 -112h-854v230l236 200l-236 195v230h854v-229h-388l169 -140v-114l-169 -142h388v-230z" />
    <glyph glyph-name="minus" unicode="&#x2212;" horiz-adv-x="800" 
d="M772 240h-744v257h744v-257z" />
    <glyph glyph-name="uni2215" unicode="&#x2215;" horiz-adv-x="1157" 
d="M1127 754l-787 -754h-310l788 754h309z" />
    <glyph glyph-name="uni2219" unicode="&#x2219;" horiz-adv-x="430" 
d="M400 254h-370v217h370v-217z" />
    <glyph glyph-name="radical" unicode="&#x221a;" horiz-adv-x="1065" 
d="M1035 872l-348 -950h-379l-133 368h-145v257h348l117 -345l229 670h311z" />
    <glyph glyph-name="infinity" unicode="&#x221e;" horiz-adv-x="749" 
d="M719 379c0 -78 -9 -257 -210 -257h-8c-54 0 -90 14 -128 47c-29 -23 -72 -49 -122 -49h-9c-203 0 -212 189 -212 257v23c0 74 9 257 211 257h9c57 0 94 -15 125 -47c35 33 70 48 126 48h7c203 0 211 -189 211 -257v-22zM545 379v22c0 56 0 101 -35 101h-3
c-20 0 -28 -42 -39 -110c-6 -37 -10 -64 -15 -87c19 -21 30 -28 54 -28h2c36 0 36 47 36 102zM300 467c-11 13 -29 34 -55 34h-3c-38 0 -38 -67 -38 -101v-23c0 -29 0 -101 39 -101h3c23 0 20 26 40 119c2 10 9 57 14 72z" />
    <glyph glyph-name="integral" unicode="&#x222b;" horiz-adv-x="732" 
d="M702 630c-66 2 -75 2 -84 2c-32 0 -44 -4 -44 -23v-620c0 -152 -127 -194 -286 -194c-120 0 -197 11 -258 20v161c66 -2 75 -2 84 -2c33 0 45 4 45 23v620c0 152 126 194 284 194c121 0 199 -11 259 -21v-160z" />
    <glyph glyph-name="approxequal" unicode="&#x2248;" horiz-adv-x="800" 
d="M767 327c0 -185 -135 -191 -196 -191c-19 0 -78 4 -154 22l-88 22c-41 10 -64 15 -79 15c-17 0 -25 -7 -25 -29v-27h-192v27c0 184 133 191 207 191c30 0 68 -4 138 -21l107 -27c30 -8 51 -12 68 -12c15 0 20 7 20 30v25h194v-25zM767 631c0 -184 -135 -191 -196 -191
c-19 0 -78 4 -154 22l-88 22c-41 10 -68 16 -79 16c-17 0 -25 -7 -25 -30v-27h-192v27c0 185 133 191 207 191c30 0 68 -4 138 -21l107 -26c30 -8 51 -12 68 -12c15 0 20 7 20 29v26h194v-26z" />
    <glyph glyph-name="notequal" unicode="&#x2260;" horiz-adv-x="800" 
d="M785 54h-301l-30 -78h-414l30 78h-55v257h143l42 118h-185v257h274l32 81h414l-32 -81h82v-257h-171l-41 -118h212v-257z" />
    <glyph glyph-name="lessequal" unicode="&#x2264;" horiz-adv-x="800" 
d="M772 0h-748v156h748v-156zM776 215h-398l-351 231l351 231h398l-339 -231z" />
    <glyph glyph-name="greaterequal" unicode="&#x2265;" horiz-adv-x="800" 
d="M776 0h-748v156h748v-156zM773 446l-352 -231h-398l339 231l-339 231h398z" />
    <glyph glyph-name="lozenge" unicode="&#x25ca;" horiz-adv-x="882" 
d="M852 365l-415 -381l-407 381l407 385zM572 365l-135 127l-128 -127l128 -122z" />
    <glyph glyph-name="A.sc" unicode="&#xe000;" 
d="M1056 0h-413l-16 79h-170l-17 -79h-410v202l65 8l61 196l-42 1v217h751l124 -414l67 -8v-202zM593 268l-35 155c-5 24 -11 58 -14 82h-2c-5 -27 -10 -55 -16 -82l-33 -155h100z" />
    <glyph glyph-name="AE.sc" unicode="&#xe001;" horiz-adv-x="1309" 
d="M1279 624v-203h-192l-8 16h-126v-35h306v-178h-306v-36h125l9 18h192v-206h-717v79h-105l-18 -79h-409v201l64 7l62 199l-42 2v215h1165zM562 505h-21c-6 -26 -11 -58 -16 -82l-33 -155h70v237z" />
    <glyph glyph-name="Aacute.sc" unicode="&#xe002;" 
d="M1056 0h-413l-16 79h-170l-17 -79h-410v202l65 8l61 196l-42 1v217h751l124 -414l67 -8v-202zM593 268l-35 155c-5 24 -11 58 -14 82h-2c-5 -27 -10 -55 -16 -82l-33 -155h100zM972 825l-285 -142h-391l193 142h483z" />
    <glyph glyph-name="Acircumflex.sc" unicode="&#xe003;" 
d="M1056 0h-413l-16 79h-170l-17 -79h-410v202l65 8l61 196l-42 1v217h751l124 -414l67 -8v-202zM593 268l-35 155c-5 24 -11 58 -14 82h-2c-5 -27 -10 -55 -16 -82l-33 -155h100zM976 683h-353l-79 52l-80 -52h-354l193 142h483z" />
    <glyph glyph-name="Adieresis.sc" unicode="&#xe004;" 
d="M1056 0h-413l-16 79h-170l-17 -79h-410v202l65 8l61 196l-42 1v217h751l124 -414l67 -8v-202zM593 268l-35 155c-5 24 -11 58 -14 82h-2c-5 -27 -10 -55 -16 -82l-33 -155h100zM895 683h-315v140h315v-140zM503 683v140h-315v-140h315z" />
    <glyph glyph-name="Agrave.sc" unicode="&#xe005;" 
d="M1056 0h-413l-16 79h-170l-17 -79h-410v202l65 8l61 196l-42 1v217h751l124 -414l67 -8v-202zM593 268l-35 155c-5 24 -11 58 -14 82h-2c-5 -27 -10 -55 -16 -82l-33 -155h100zM769 683h-391l-285 142h484z" />
    <glyph glyph-name="Aring.sc" unicode="&#xe006;" 
d="M1056 0h-413l-16 79h-170l-17 -79h-410v202l65 8l61 196l-42 1v217h751l124 -414l67 -8v-202zM593 268l-35 155c-5 24 -11 58 -14 82h-2c-5 -27 -10 -55 -16 -82l-33 -155h100zM773 798c0 -95 -91 -147 -228 -147c-139 0 -231 52 -231 147s92 148 231 148
c138 0 228 -53 228 -148zM609 799c0 25 -27 35 -64 35c-39 0 -66 -10 -66 -35c0 -24 27 -34 66 -34c37 0 64 10 64 34z" />
    <glyph glyph-name="Atilde.sc" unicode="&#xe007;" 
d="M1056 0h-413l-16 79h-170l-17 -79h-410v202l65 8l61 196l-42 1v217h751l124 -414l67 -8v-202zM593 268l-35 155c-5 24 -11 58 -14 82h-2c-5 -27 -10 -55 -16 -82l-33 -155h100zM896 854c0 -172 -127 -179 -182 -179c-19 0 -67 1 -152 22l-88 22c-41 10 -69 16 -81 16
c-27 0 -38 -10 -38 -42v-15h-166v15c0 173 125 179 195 179c28 0 55 -2 135 -21l88 -21c42 -10 65 -17 90 -17c24 0 33 9 33 41v14h166v-14z" />
    <glyph glyph-name="B.sc" unicode="&#xe008;" horiz-adv-x="979" 
d="M949 197c0 -198 -211 -220 -499 -220c-66 0 -251 10 -420 29v196l36 4v217l-36 5v196c205 19 363 23 419 23c323 0 493 -40 493 -195v-7c0 -49 -14 -96 -68 -126c59 -26 75 -75 75 -117v-5zM585 202v2c0 26 -20 27 -86 27h-70v-58c28 -2 51 -2 58 -2c81 0 98 3 98 31z
M585 420v3c0 28 -23 28 -98 28c-17 0 -25 0 -58 -2v-60h70c75 0 86 3 86 31z" />
    <glyph glyph-name="C.sc" unicode="&#xe009;" horiz-adv-x="788" 
d="M758 2c-48 -14 -217 -25 -270 -25c-333 0 -458 106 -458 318v34c0 212 125 318 458 318c53 0 222 -11 270 -25v-226h-202l-7 35h-12c-74 0 -112 -13 -112 -102v-34c0 -91 38 -102 112 -102h12l7 35h202v-226z" />
    <glyph glyph-name="Ccedilla.sc" unicode="&#xe00a;" horiz-adv-x="788" 
d="M758 2c-48 -14 -217 -25 -270 -25c-333 0 -458 106 -458 318v34c0 212 125 318 458 318c53 0 222 -11 270 -25v-226h-202l-7 35h-12c-74 0 -112 -13 -112 -102v-34c0 -91 38 -102 112 -102h12l7 35h202v-226zM711 -55l-151 -139h-366l110 139h407z" />
    <glyph glyph-name="D.sc" unicode="&#xe00b;" horiz-adv-x="971" 
d="M941 287c0 -232 -188 -310 -459 -310c-190 0 -322 10 -452 29v196l47 5v216l-47 5v196c153 15 279 23 452 23c271 0 459 -77 459 -312v-48zM566 270v82c0 59 0 87 -79 87c-8 0 -40 -1 -41 -1v-252c1 0 33 -1 41 -1c79 0 79 27 79 85z" />
    <glyph glyph-name="Eth.sc" unicode="&#xe00c;" horiz-adv-x="971" 
d="M941 287c0 -232 -188 -310 -459 -310c-190 0 -322 10 -452 29v196l47 5v24h-47v160h47v32l-47 5v196c153 15 279 23 452 23c271 0 459 -77 459 -312v-48zM566 285v49c0 77 -1 105 -79 105c-8 0 -19 0 -41 -1v-47h54v-160h-54v-45c20 -1 33 -1 41 -1c78 0 79 27 79 100z
" />
    <glyph glyph-name="E.sc" unicode="&#xe00d;" horiz-adv-x="815" 
d="M785 0h-755v202l37 4v217l-37 5v196h755v-203h-193l-7 16h-126v-35h306v-178h-306v-36h125l8 18h193v-206z" />
    <glyph glyph-name="Eacute.sc" unicode="&#xe00e;" horiz-adv-x="815" 
d="M871 826l-285 -142h-391l193 142h483zM785 0h-755v202l37 4v217l-37 5v196h755v-203h-193l-7 16h-126v-35h306v-178h-306v-36h125l8 18h193v-206z" />
    <glyph glyph-name="Ecircumflex.sc" unicode="&#xe00f;" horiz-adv-x="815" 
d="M785 0h-755v202l37 4v217l-37 5v196h755v-203h-193l-7 16h-126v-35h306v-178h-306v-36h125l8 18h193v-206zM874 685h-353l-79 52l-80 -52h-354l193 142h483z" />
    <glyph glyph-name="Edieresis.sc" unicode="&#xe010;" horiz-adv-x="815" 
d="M771 685h-315v140h315v-140zM379 685v140h-315v-140h315zM785 0h-755v202l37 4v217l-37 5v196h755v-203h-193l-7 16h-126v-35h306v-178h-306v-36h125l8 18h193v-206z" />
    <glyph glyph-name="Egrave.sc" unicode="&#xe011;" horiz-adv-x="815" 
d="M649 685h-391l-285 142h484zM785 0h-755v202l37 4v217l-37 5v196h755v-203h-193l-7 16h-126v-35h306v-178h-306v-36h125l8 18h193v-206z" />
    <glyph glyph-name="F.sc" unicode="&#xe012;" horiz-adv-x="814" 
d="M764 213h-307v-7l37 -4v-202h-464v202l36 4v217l-36 5v196h754v-208h-193l-8 16h-126v-34h307v-185z" />
    <glyph glyph-name="G.sc" unicode="&#xe013;" horiz-adv-x="885" 
d="M852 11c-104 -19 -255 -34 -398 -34c-221 0 -424 64 -424 313v49c0 262 235 308 427 308c162 0 303 -20 398 -36v-212h-194l-9 29c-32 2 -62 3 -83 3c-120 0 -166 0 -166 -97v-44c0 -67 8 -96 64 -96c15 0 31 0 47 2v27l-40 7v151h378v-370z" />
    <glyph glyph-name="H.sc" unicode="&#xe014;" horiz-adv-x="1095" 
d="M1065 0h-428v207h-180v-207h-427v202l36 4v217l-36 5v196h427v-209h180v209h428v-196l-37 -5v-217l37 -4v-202z" />
    <glyph glyph-name="I.sc" unicode="&#xe015;" horiz-adv-x="524" 
d="M494 0h-464v202l36 4v217l-36 5v196h464v-196l-37 -5v-217l37 -4v-202z" />
    <glyph glyph-name="Iacute.sc" unicode="&#xe016;" horiz-adv-x="524" 
d="M701 827l-285 -142h-391l193 142h483zM494 0h-464v202l36 4v217l-36 5v196h464v-196l-37 -5v-217l37 -4v-202z" />
    <glyph glyph-name="Icircumflex.sc" unicode="&#xe017;" horiz-adv-x="524" 
d="M494 0h-464v202l36 4v217l-36 5v196h464v-196l-37 -5v-217l37 -4v-202zM698 685h-353l-79 52l-80 -52h-354l193 142h483z" />
    <glyph glyph-name="Idieresis.sc" unicode="&#xe018;" horiz-adv-x="524" 
d="M494 0h-464v202l36 4v217l-36 5v196h464v-196l-37 -5v-217l37 -4v-202zM616 685h-315v140h315v-140zM224 685v140h-315v-140h315z" />
    <glyph glyph-name="Igrave.sc" unicode="&#xe019;" horiz-adv-x="524" 
d="M531 685h-391l-285 142h484zM494 0h-464v202l36 4v217l-36 5v196h464v-196l-37 -5v-217l37 -4v-202z" />
    <glyph glyph-name="J.sc" unicode="&#xe01a;" horiz-adv-x="524" 
d="M494 428l-36 -5v-368c0 -163 -104 -232 -311 -232c-87 0 -115 2 -155 6v179h29c42 0 46 13 46 47v368l-37 5v196h464v-196z" />
    <glyph glyph-name="K.sc" unicode="&#xe01b;" horiz-adv-x="1053" 
d="M1019 0h-378l-182 284v-284h-429v202l37 4v217l-37 5v196h429v-295l207 295h357v-196l-58 -5l-99 -114l94 -102l59 -5v-202z" />
    <glyph glyph-name="L.sc" unicode="&#xe01c;" horiz-adv-x="726" 
d="M696 0h-666v202l37 4v217l-37 5v196h465v-196l-36 -5v-215h33l11 51h193v-259z" />
    <glyph glyph-name="Lslash.sc" unicode="&#xe01d;" horiz-adv-x="726" 
d="M696 0h-666v202l37 4v27l-37 -9v60l37 9v130l-37 5v196h465v-196l-36 -5v-33l134 34v-60l-134 -34v-122h33l11 51h193v-259z" />
    <glyph glyph-name="M.sc" unicode="&#xe01e;" horiz-adv-x="1209" 
d="M1179 0h-407v169c0 28 3 61 4 89h-2c-15 -16 -35 -35 -52 -50l-73 -65h-94l-73 65c-16 15 -37 34 -52 50h-1c0 -28 1 -61 1 -89v-169h-400v202l32 4v218l-32 4v196h345l170 -159c18 -17 40 -35 55 -49h4c13 13 35 33 53 49l172 159h350v-196l-36 -5v-217l36 -4v-202z" />
    <glyph glyph-name="N.sc" unicode="&#xe01f;" horiz-adv-x="1049" 
d="M1019 428l-36 -5v-423h-328l-194 175c-13 12 -33 30 -45 42h-2c1 -21 1 -47 1 -70v-147h-385v202l37 4v217l-37 5v196h355l204 -183c14 -9 34 -29 45 -39h2c-2 23 -2 44 -2 65v157h385v-196z" />
    <glyph glyph-name="Ntilde.sc" unicode="&#xe020;" horiz-adv-x="1049" 
d="M877 860c0 -172 -127 -179 -182 -179c-19 0 -67 1 -152 22l-88 22c-41 10 -69 16 -81 16c-27 0 -38 -10 -38 -42v-15h-166v15c0 173 125 179 195 179c28 0 55 -2 135 -21l88 -21c42 -10 65 -17 90 -17c24 0 33 9 33 41v14h166v-14zM1019 428l-36 -5v-423h-328l-194 175
c-13 12 -33 30 -45 42h-2c1 -21 1 -47 1 -70v-147h-385v202l37 4v217l-37 5v196h355l204 -183c14 -9 34 -29 45 -39h2c-2 23 -2 44 -2 65v157h385v-196z" />
    <glyph glyph-name="O.sc" unicode="&#xe021;" horiz-adv-x="941" 
d="M911 302c0 -269 -221 -325 -441 -325s-440 56 -440 325v19c0 265 218 326 440 326c223 0 441 -61 441 -326v-19zM539 301v22c0 84 -15 109 -69 109s-69 -25 -69 -109v-22c0 -83 17 -108 69 -108s69 25 69 108z" />
    <glyph glyph-name="OE.sc" unicode="&#xe022;" horiz-adv-x="1268" 
d="M1238 0h-563c-64 -17 -134 -23 -205 -23c-220 0 -440 56 -440 325v19c0 265 218 326 440 326c71 0 141 -6 204 -23h564v-203h-192l-8 16h-126v-35h326v-178h-326v-36h125l9 18h192v-206zM539 196v233c-30 3 -51 3 -69 3c-54 0 -69 -25 -69 -109v-22
c0 -83 17 -108 69 -108c24 0 57 2 69 3z" />
    <glyph glyph-name="Oacute.sc" unicode="&#xe023;" horiz-adv-x="941" 
d="M929 826l-285 -142h-391l193 142h483zM911 302c0 -269 -221 -325 -441 -325s-440 56 -440 325v19c0 265 218 326 440 326c223 0 441 -61 441 -326v-19zM539 301v22c0 84 -15 109 -69 109s-69 -25 -69 -109v-22c0 -83 17 -108 69 -108s69 25 69 108z" />
    <glyph glyph-name="Ocircumflex.sc" unicode="&#xe024;" horiz-adv-x="941" 
d="M911 302c0 -269 -221 -325 -441 -325s-440 56 -440 325v19c0 265 218 326 440 326c223 0 441 -61 441 -326v-19zM539 301v22c0 84 -15 109 -69 109s-69 -25 -69 -109v-22c0 -83 17 -108 69 -108s69 25 69 108zM902 684h-353l-79 52l-80 -52h-354l193 142h483z" />
    <glyph glyph-name="Odieresis.sc" unicode="&#xe025;" horiz-adv-x="941" 
d="M911 302c0 -269 -221 -325 -441 -325s-440 56 -440 325v19c0 265 218 326 440 326c223 0 441 -61 441 -326v-19zM539 301v22c0 84 -15 109 -69 109s-69 -25 -69 -109v-22c0 -83 17 -108 69 -108s69 25 69 108zM823 684h-315v140h315v-140zM431 684v140h-315v-140h315z
" />
    <glyph glyph-name="Ograve.sc" unicode="&#xe026;" horiz-adv-x="941" 
d="M738 683h-391l-285 142h484zM911 302c0 -269 -221 -325 -441 -325s-440 56 -440 325v19c0 265 218 326 440 326c223 0 441 -61 441 -326v-19zM539 301v22c0 84 -15 109 -69 109s-69 -25 -69 -109v-22c0 -83 17 -108 69 -108s69 25 69 108z" />
    <glyph glyph-name="Oslash.sc" unicode="&#xe027;" horiz-adv-x="941" 
d="M905 301c0 -252 -217 -324 -433 -324c-77 0 -155 10 -223 33l-36 -34h-183l103 99c-58 50 -93 123 -93 226v19c0 250 215 326 432 326c76 0 153 -10 220 -33l36 34h183l-102 -98c58 -50 96 -125 96 -229v-19zM539 300v23c0 85 -14 110 -67 110s-67 -25 -67 -110v-23
c0 -84 15 -109 67 -109s67 25 67 109z" />
    <glyph glyph-name="Otilde.sc" unicode="&#xe028;" horiz-adv-x="941" 
d="M815 861c0 -172 -127 -179 -182 -179c-19 0 -67 1 -152 22l-88 22c-41 10 -69 16 -81 16c-27 0 -38 -10 -38 -42v-15h-166v15c0 173 125 179 195 179c28 0 55 -2 135 -21l88 -21c42 -10 65 -17 90 -17c24 0 33 9 33 41v14h166v-14zM911 302c0 -269 -221 -325 -441 -325
s-440 56 -440 325v19c0 265 218 326 440 326c223 0 441 -61 441 -326v-19zM539 301v22c0 84 -15 109 -69 109s-69 -25 -69 -109v-22c0 -83 17 -108 69 -108s69 25 69 108z" />
    <glyph glyph-name="P.sc" unicode="&#xe029;" horiz-adv-x="969" 
d="M939 396c0 -199 -216 -237 -437 -237c-26 0 -33 1 -75 2v-161h-397v202l36 4v217l-36 5v196c102 12 259 24 418 24c276 0 491 -37 491 -238v-14zM576 401v12c0 26 -27 29 -87 29c-24 0 -54 -2 -62 -3v-68c13 -1 38 -1 61 -1c57 0 88 0 88 31z" />
    <glyph glyph-name="Thorn.sc" unicode="&#xe02a;" horiz-adv-x="969" 
d="M939 313c0 -199 -216 -237 -437 -237c-26 0 -33 1 -75 2v-78h-397v202l36 4v218l-36 4v202h397v-65h43c254 0 469 -37 469 -238v-14zM576 318v12c0 26 -27 29 -87 29c-24 0 -54 -2 -62 -3v-68c13 -1 38 -1 61 -1c57 0 88 0 88 31z" />
    <glyph glyph-name="Q.sc" unicode="&#xe02b;" horiz-adv-x="941" 
d="M911 302c0 -207 -130 -287 -290 -313v-3c0 -9 2 -9 44 -9h96v-137c-61 -13 -127 -25 -246 -25c-117 0 -230 21 -230 168v12c-144 32 -255 115 -255 307v19c0 265 218 326 440 326c223 0 441 -61 441 -326v-19zM539 301v22c0 84 -15 109 -69 109s-69 -25 -69 -109v-22
c0 -83 17 -108 69 -108s69 25 69 108z" />
    <glyph glyph-name="R.sc" unicode="&#xe02c;" horiz-adv-x="969" 
d="M933 0h-288l-150 186h-29h-38v-186h-398v202l36 4v217l-36 5v196c96 12 279 23 462 23c237 0 447 -45 447 -233v-12c0 -92 -41 -137 -96 -167l31 -25l59 -8v-202zM576 404v3c0 28 -15 35 -85 35c-25 0 -49 -2 -64 -3v-68c23 -1 43 -1 64 -1c70 0 85 6 85 34z" />
    <glyph glyph-name="S.sc" unicode="&#xe02d;" horiz-adv-x="843" 
d="M813 213c0 -200 -176 -236 -375 -236c-140 0 -282 6 -383 21v200h192l9 -28c57 -1 84 -1 126 -1c52 0 59 3 59 15c0 9 -7 11 -85 18l-52 4c-149 12 -274 37 -274 211c0 204 180 230 414 230c127 0 254 -15 337 -28v-187h-194l-10 30c-49 1 -85 1 -127 1
c-46 0 -56 -3 -56 -14s14 -13 86 -21l55 -6c202 -21 278 -70 278 -209z" />
    <glyph glyph-name="Scaron.sc" unicode="&#xe02e;" horiz-adv-x="843" 
d="M875 825l-190 -142h-483l-193 142h354l80 -51l79 51h353zM813 213c0 -200 -176 -236 -375 -236c-140 0 -282 6 -383 21v200h192l9 -28c57 -1 84 -1 126 -1c52 0 59 3 59 15c0 9 -7 11 -85 18l-52 4c-149 12 -274 37 -274 211c0 204 180 230 414 230
c127 0 254 -15 337 -28v-187h-194l-10 30c-49 1 -85 1 -127 1c-46 0 -56 -3 -56 -14s14 -13 86 -21l55 -6c202 -21 278 -70 278 -209z" />
    <glyph glyph-name="T.sc" unicode="&#xe02f;" horiz-adv-x="868" 
d="M838 391h-175l-13 35h-19v-220l36 -4v-202h-465v202l36 4v220h-19l-13 -35h-176v233h808v-233z" />
    <glyph glyph-name="U.sc" unicode="&#xe030;" horiz-adv-x="1029" 
d="M999 428l-37 -5v-146c0 -298 -252 -300 -449 -300c-195 0 -447 2 -447 300v146l-36 5v196h415v-347c0 -69 12 -93 68 -93c58 0 70 24 70 93v347h416v-196z" />
    <glyph glyph-name="Uacute.sc" unicode="&#xe031;" horiz-adv-x="1029" 
d="M961 827l-285 -142h-391l193 142h483zM999 428l-37 -5v-146c0 -298 -252 -300 -449 -300c-195 0 -447 2 -447 300v146l-36 5v196h415v-347c0 -69 12 -93 68 -93c58 0 70 24 70 93v347h416v-196z" />
    <glyph glyph-name="Ucircumflex.sc" unicode="&#xe032;" horiz-adv-x="1029" 
d="M999 428l-37 -5v-146c0 -298 -252 -300 -449 -300c-195 0 -447 2 -447 300v146l-36 5v196h415v-347c0 -69 12 -93 68 -93c58 0 70 24 70 93v347h416v-196zM946 684h-353l-79 52l-80 -52h-354l193 142h483z" />
    <glyph glyph-name="Udieresis.sc" unicode="&#xe033;" horiz-adv-x="1029" 
d="M999 428l-37 -5v-146c0 -298 -252 -300 -449 -300c-195 0 -447 2 -447 300v146l-36 5v196h415v-347c0 -69 12 -93 68 -93c58 0 70 24 70 93v347h416v-196zM868 684h-315v140h315v-140zM476 684v140h-315v-140h315z" />
    <glyph glyph-name="Ugrave.sc" unicode="&#xe034;" horiz-adv-x="1029" 
d="M757 684h-391l-285 142h484zM999 428l-37 -5v-146c0 -298 -252 -300 -449 -300c-195 0 -447 2 -447 300v146l-36 5v196h415v-347c0 -69 12 -93 68 -93c58 0 70 24 70 93v347h416v-196z" />
    <glyph glyph-name="V.sc" unicode="&#xe035;" horiz-adv-x="1006" 
d="M976 428l-48 -5l-111 -423h-629l-111 423l-47 5v196h379l73 -386c6 -30 13 -72 19 -101h2c5 29 13 71 19 100l74 387h380v-196z" />
    <glyph glyph-name="W.sc" unicode="&#xe036;" horiz-adv-x="1356" 
d="M1326 428l-38 -5l-90 -423h-407l-88 207c-12 28 -19 65 -22 85h-4c-4 -21 -13 -57 -25 -85l-88 -207h-407l-90 423l-37 5v196h371l28 -209c7 -55 10 -93 11 -126h5c9 35 19 67 28 91l49 126h311l48 -126c13 -33 19 -56 29 -91h4c3 40 7 79 13 126l27 209h372v-196z" />
    <glyph glyph-name="X.sc" unicode="&#xe037;" horiz-adv-x="918" 
d="M888 0h-340l-96 126l-90 -126h-332v202l63 8l114 119l-119 92l-46 7v196h366l101 -120l83 120h296v-196l-55 -8l-106 -119l89 -90l72 -9v-202z" />
    <glyph glyph-name="Y.sc" unicode="&#xe038;" horiz-adv-x="912" 
d="M882 428l-77 -9l-163 -217v-16l36 -5v-181h-454v181l48 5v16l-164 217l-78 9v196h321l62 -106c15 -27 29 -51 42 -78h4c12 27 27 51 42 78l62 106h319v-196z" />
    <glyph glyph-name="Yacute.sc" unicode="&#xe039;" horiz-adv-x="912" 
d="M929 826l-285 -142h-391l193 142h483zM882 428l-77 -9l-163 -217v-16l36 -5v-181h-454v181l48 5v16l-164 217l-78 9v196h321l62 -106c15 -27 29 -51 42 -78h4c12 27 27 51 42 78l62 106h319v-196z" />
    <glyph glyph-name="Ydieresis.sc" unicode="&#xe03a;" horiz-adv-x="912" 
d="M882 428l-77 -9l-163 -217v-16l36 -5v-181h-454v181l48 5v16l-164 217l-78 9v196h321l62 -106c15 -27 29 -51 42 -78h4c12 27 27 51 42 78l62 106h319v-196zM811 685h-315v140h315v-140zM419 685v140h-315v-140h315z" />
    <glyph glyph-name="Z.sc" unicode="&#xe03b;" horiz-adv-x="775" 
d="M745 0h-715v170l242 243h-54l-9 -30h-179v241h714v-181l-238 -232h50l10 30h179v-241z" />
    <glyph glyph-name="Zcaron.sc" unicode="&#xe03c;" horiz-adv-x="775" 
d="M839 826l-190 -142h-483l-193 142h354l80 -51l79 51h353zM745 0h-715v170l242 243h-54l-9 -30h-179v241h714v-181l-238 -232h50l10 30h179v-241z" />
    <glyph glyph-name="Abreve.sc" unicode="&#xe040;" 
d="M1056 0h-413l-16 79h-170l-17 -79h-410v202l65 8l61 196l-42 1v217h751l124 -414l67 -8v-202zM593 268l-35 155c-5 24 -11 58 -14 82h-2c-5 -27 -10 -55 -16 -82l-33 -155h100zM882 865c-17 -194 -289 -195 -339 -195s-322 1 -341 195h169c11 -66 111 -72 172 -72
s161 6 172 72h167z" />
    <glyph glyph-name="Amacron.sc" unicode="&#xe041;" 
d="M1056 0h-413l-16 79h-170l-17 -79h-410v202l65 8l61 196l-42 1v217h751l124 -414l67 -8v-202zM593 268l-35 155c-5 24 -11 58 -14 82h-2c-5 -27 -10 -55 -16 -82l-33 -155h100zM901 684h-715v142h715v-142z" />
    <glyph glyph-name="Aogonek.sc" unicode="&#xe042;" 
d="M1056 -209c-36 -5 -155 -27 -288 -27c-149 0 -228 32 -228 107c0 50 30 95 138 129h-35l-16 79h-170l-17 -79h-410v202l65 8l61 196l-42 1v217h751l124 -414l67 -8v-202c-138 -18 -170 -39 -170 -55c0 -23 20 -25 46 -25c48 0 89 5 124 7v-136zM593 268l-35 155
c-5 24 -11 58 -14 82h-2c-5 -27 -10 -55 -16 -82l-33 -155h100z" />
    <glyph glyph-name="AEacute.sc" unicode="&#xe043;" horiz-adv-x="1309" 
d="M1279 624v-203h-192l-8 16h-126v-35h306v-178h-306v-36h125l9 18h192v-206h-717v79h-105l-18 -79h-409v201l64 7l62 199l-42 2v215h1165zM562 505h-21c-6 -26 -11 -58 -16 -82l-33 -155h70v237zM1184 826l-285 -142h-391l193 142h483z" />
    <glyph glyph-name="Cacute.sc" unicode="&#xe044;" horiz-adv-x="788" 
d="M885 826l-285 -142h-391l193 142h483zM758 2c-48 -14 -217 -25 -270 -25c-333 0 -458 106 -458 318v34c0 212 125 318 458 318c53 0 222 -11 270 -25v-226h-202l-7 35h-12c-74 0 -112 -13 -112 -102v-34c0 -91 38 -102 112 -102h12l7 35h202v-226z" />
    <glyph glyph-name="Ccaron.sc" unicode="&#xe045;" horiz-adv-x="788" 
d="M868 827l-190 -142h-483l-193 142h354l80 -51l79 51h353zM758 2c-48 -14 -217 -25 -270 -25c-333 0 -458 106 -458 318v34c0 212 125 318 458 318c53 0 222 -11 270 -25v-226h-202l-7 35h-12c-74 0 -112 -13 -112 -102v-34c0 -91 38 -102 112 -102h12l7 35h202v-226z" />
    <glyph glyph-name="Ccircumflex.sc" unicode="&#xe046;" horiz-adv-x="788" 
d="M758 2c-48 -14 -217 -25 -270 -25c-333 0 -458 106 -458 318v34c0 212 125 318 458 318c53 0 222 -11 270 -25v-226h-202l-7 35h-12c-74 0 -112 -13 -112 -102v-34c0 -91 38 -102 112 -102h12l7 35h202v-226zM890 685h-353l-79 52l-80 -52h-354l193 142h483z" />
    <glyph glyph-name="Cdotaccent.sc" unicode="&#xe047;" horiz-adv-x="788" 
d="M758 2c-48 -14 -217 -25 -270 -25c-333 0 -458 106 -458 318v34c0 212 125 318 458 318c53 0 222 -11 270 -25v-226h-202l-7 35h-12c-74 0 -112 -13 -112 -102v-34c0 -91 38 -102 112 -102h12l7 35h202v-226zM687 685h-437v142h437v-142z" />
    <glyph glyph-name="Dcaron.sc" unicode="&#xe048;" horiz-adv-x="971" 
d="M901 826l-190 -142h-483l-193 142h354l80 -51l79 51h353zM941 287c0 -232 -188 -310 -459 -310c-190 0 -322 10 -452 29v196l47 5v216l-47 5v196c153 15 279 23 452 23c271 0 459 -77 459 -312v-48zM566 270v82c0 59 0 87 -79 87c-8 0 -40 -1 -41 -1v-252
c1 0 33 -1 41 -1c79 0 79 27 79 85z" />
    <glyph glyph-name="Dcroat.sc" unicode="&#xe049;" horiz-adv-x="971" 
d="M941 287c0 -232 -188 -310 -459 -310c-190 0 -322 10 -452 29v196l47 5v24h-47v160h47v32l-47 5v196c153 15 279 23 452 23c271 0 459 -77 459 -312v-48zM566 285v49c0 77 -1 105 -79 105c-8 0 -19 0 -41 -1v-47h54v-160h-54v-45c20 -1 33 -1 41 -1c78 0 79 27 79 100z
" />
    <glyph glyph-name="Ebreve.sc" unicode="&#xe04a;" horiz-adv-x="815" 
d="M781 867c-17 -194 -289 -195 -339 -195s-322 1 -341 195h169c11 -66 111 -72 172 -72s161 6 172 72h167zM785 0h-755v202l37 4v217l-37 5v196h755v-203h-193l-7 16h-126v-35h306v-178h-306v-36h125l8 18h193v-206z" />
    <glyph glyph-name="Ecaron.sc" unicode="&#xe04b;" horiz-adv-x="815" 
d="M873 826l-190 -142h-483l-193 142h354l80 -51l79 51h353zM785 0h-755v202l37 4v217l-37 5v196h755v-203h-193l-7 16h-126v-35h306v-178h-306v-36h125l8 18h193v-206z" />
    <glyph glyph-name="Edotaccent.sc" unicode="&#xe04c;" horiz-adv-x="815" 
d="M785 0h-755v202l37 4v217l-37 5v196h755v-203h-193l-7 16h-126v-35h306v-178h-306v-36h125l8 18h193v-206zM629 685h-437v142h437v-142z" />
    <glyph glyph-name="Emacron.sc" unicode="&#xe04d;" horiz-adv-x="815" 
d="M785 0h-755v202l37 4v217l-37 5v196h755v-203h-193l-7 16h-126v-35h306v-178h-306v-36h125l8 18h193v-206zM770 685h-715v142h715v-142z" />
    <glyph glyph-name="Eng.sc" unicode="&#xe04e;" horiz-adv-x="1049" 
d="M1019 428l-36 -5v-368c0 -163 -104 -232 -311 -232c-41 0 -81 0 -155 6v179h29c42 0 46 13 46 44v5l-131 118c-13 12 -33 30 -45 42h-2c1 -22 1 -47 1 -70v-147h-385v202l37 4v217l-37 5v196h355l204 -183c12 -11 34 -29 45 -39h2c-2 23 -2 44 -2 65v157h385v-196z" />
    <glyph glyph-name="Eogonek.sc" unicode="&#xe04f;" horiz-adv-x="815" 
d="M784 -209c-36 -5 -155 -27 -288 -27c-149 0 -228 32 -228 107c0 50 30 95 138 129h-376v202l37 4v217l-37 5v196h755v-203h-193l-7 16h-126v-35h306v-178h-306v-36h125l8 18h193v-206c-139 -18 -171 -39 -171 -55c0 -23 20 -25 46 -25c48 0 89 5 124 7v-136z" />
    <glyph glyph-name="Gbreve.sc" unicode="&#xe050;" horiz-adv-x="885" 
d="M824 869c-17 -194 -289 -195 -339 -195s-322 1 -341 195h169c11 -66 111 -72 172 -72s161 6 172 72h167zM852 11c-104 -19 -255 -34 -398 -34c-221 0 -424 64 -424 313v49c0 262 235 308 427 308c162 0 303 -20 398 -36v-212h-194l-9 29c-32 2 -62 3 -83 3
c-120 0 -166 0 -166 -97v-44c0 -67 8 -96 64 -96c15 0 31 0 47 2v27l-40 7v151h378v-370z" />
    <glyph glyph-name="Gcircumflex.sc" unicode="&#xe051;" horiz-adv-x="885" 
d="M852 11c-104 -19 -255 -34 -398 -34c-221 0 -424 64 -424 313v49c0 262 235 308 427 308c162 0 303 -20 398 -36v-212h-194l-9 29c-32 2 -62 3 -83 3c-120 0 -166 0 -166 -97v-44c0 -67 8 -96 64 -96c15 0 31 0 47 2v27l-40 7v151h378v-370zM897 685h-353l-79 52l-80 -52
h-354l193 142h483z" />
    <glyph glyph-name="Gcommaaccent.sc" unicode="&#xe052;" horiz-adv-x="885" 
d="M852 11c-104 -19 -255 -34 -398 -34c-221 0 -424 64 -424 313v49c0 262 235 308 427 308c162 0 303 -20 398 -36v-212h-194l-9 29c-32 2 -62 3 -83 3c-120 0 -166 0 -166 -97v-44c0 -67 8 -96 64 -96c15 0 31 0 47 2v27l-40 7v151h378v-370zM686 -55l-126 -139h-365
l82 139h409z" />
    <glyph glyph-name="Gdotaccent.sc" unicode="&#xe053;" horiz-adv-x="885" 
d="M852 11c-104 -19 -255 -34 -398 -34c-221 0 -424 64 -424 313v49c0 262 235 308 427 308c162 0 303 -20 398 -36v-212h-194l-9 29c-32 2 -62 3 -83 3c-120 0 -166 0 -166 -97v-44c0 -67 8 -96 64 -96c15 0 31 0 47 2v27l-40 7v151h378v-370zM693 684h-437v142h437v-142z
" />
    <glyph glyph-name="Hbar.sc" unicode="&#xe054;" horiz-adv-x="1095" 
d="M1075 467h-47v-261l37 -4v-202h-428v207h-180v-207h-427v202l36 4v261h-41v99h41v58h391v-58h180v58h391v-58h47v-99zM637 415v52h-180v-52h180z" />
    <glyph glyph-name="Hcircumflex.sc" unicode="&#xe055;" horiz-adv-x="1095" 
d="M1065 0h-428v207h-180v-207h-427v202l36 4v217l-36 5v196h427v-209h180v209h428v-196l-37 -5v-217l37 -4v-202zM977 684h-353l-79 52l-80 -52h-354l193 142h483z" />
    <glyph glyph-name="Ibreve.sc" unicode="&#xe056;" horiz-adv-x="524" 
d="M605 865c-17 -194 -289 -195 -339 -195s-322 1 -341 195h169c11 -66 111 -72 172 -72s161 6 172 72h167zM494 0h-464v202l36 4v217l-36 5v196h464v-196l-37 -5v-217l37 -4v-202z" />
    <glyph glyph-name="IJ.sc" unicode="&#xe058;" horiz-adv-x="1041" 
d="M1011 428l-36 -5v-368c0 -163 -104 -232 -311 -232c-51 0 -102 1 -155 6v179h29c42 0 46 13 46 47v368l-37 5v196h464v-196zM494 0h-464v202l36 4v217l-36 5v196h464v-196l-37 -5v-217l37 -4v-202z" />
    <glyph glyph-name="Imacron.sc" unicode="&#xe059;" horiz-adv-x="524" 
d="M494 0h-464v202l36 4v217l-36 5v196h464v-196l-37 -5v-217l37 -4v-202zM620 685h-715v142h715v-142z" />
    <glyph glyph-name="Iogonek.sc" unicode="&#xe05a;" horiz-adv-x="524" 
d="M494 0c-138 -18 -140 -39 -140 -55c0 -23 20 -25 46 -25c48 0 89 5 124 7v-136c-36 -5 -155 -27 -288 -27c-149 0 -228 32 -228 107c0 50 14 95 114 129h-92v202l36 4v217l-36 5v196h464v-196l-37 -5v-217l37 -4v-202z" />
    <glyph glyph-name="Itilde.sc" unicode="&#xe05b;" horiz-adv-x="524" 
d="M612 860c0 -172 -127 -179 -182 -179c-19 0 -67 1 -152 22l-88 22c-41 10 -69 16 -81 16c-27 0 -38 -10 -38 -42v-15h-166v15c0 173 125 179 195 179c28 0 55 -2 135 -21l88 -21c42 -10 65 -17 90 -17c24 0 33 9 33 41v14h166v-14zM494 0h-464v202l36 4v217l-36 5v196
h464v-196l-37 -5v-217l37 -4v-202z" />
    <glyph glyph-name="Jcircumflex.sc" unicode="&#xe05c;" horiz-adv-x="524" 
d="M494 428l-36 -5v-368c0 -163 -104 -232 -311 -232c-87 0 -115 2 -155 6v179h29c42 0 46 13 46 47v368l-37 5v196h464v-196zM695 684h-353l-79 52l-80 -52h-354l193 142h483z" />
    <glyph glyph-name="Kcommaaccent.sc" unicode="&#xe05d;" horiz-adv-x="1053" 
d="M1019 0h-378l-182 284v-284h-429v202l37 4v217l-37 5v196h429v-295l207 295h357v-196l-58 -5l-99 -114l94 -102l59 -5v-202zM764 -55l-126 -139h-365l82 139h409z" />
    <glyph glyph-name="Lacute.sc" unicode="&#xe05e;" horiz-adv-x="726" 
d="M819 826l-285 -142h-391l193 142h483zM696 0h-666v202l37 4v217l-37 5v196h465v-196l-36 -5v-215h33l11 51h193v-259z" />
    <glyph glyph-name="Lcaron.sc" unicode="&#xe05f;" horiz-adv-x="965" 
d="M696 0h-666v202l37 4v217l-37 5v196h465v-196l-36 -5v-215h33l11 51h193v-259zM955 629l-171 -309h-263l115 309h319z" />
    <glyph glyph-name="Lcommaaccent.sc" unicode="&#xe060;" horiz-adv-x="726" 
d="M696 0h-666v202l37 4v217l-37 5v196h465v-196l-36 -5v-215h33l11 51h193v-259zM597 -55l-126 -139h-365l82 139h409z" />
    <glyph glyph-name="Ldot.sc" unicode="&#xe061;" horiz-adv-x="726" 
d="M696 0h-666v202l37 4v217l-37 5v196h465v-196l-36 -5v-215h33l11 51h193v-259zM695 308h-170v160h170v-160z" />
    <glyph glyph-name="Nacute.sc" unicode="&#xe062;" horiz-adv-x="1049" 
d="M972 826l-285 -142h-391l193 142h483zM1019 428l-36 -5v-423h-328l-194 175c-13 12 -33 30 -45 42h-2c1 -21 1 -47 1 -70v-147h-385v202l37 4v217l-37 5v196h355l204 -183c14 -9 34 -29 45 -39h2c-2 23 -2 44 -2 65v157h385v-196z" />
    <glyph glyph-name="Ncaron.sc" unicode="&#xe063;" horiz-adv-x="1049" 
d="M972 826l-190 -142h-483l-193 142h354l80 -51l79 51h353zM1019 428l-36 -5v-423h-328l-194 175c-13 12 -33 30 -45 42h-2c1 -21 1 -47 1 -70v-147h-385v202l37 4v217l-37 5v196h355l204 -183c14 -9 34 -29 45 -39h2c-2 23 -2 44 -2 65v157h385v-196z" />
    <glyph glyph-name="Ncommaaccent.sc" unicode="&#xe064;" horiz-adv-x="1049" 
d="M1019 428l-36 -5v-423h-328l-194 175c-13 12 -33 30 -45 42h-2c1 -21 1 -47 1 -70v-147h-385v202l37 4v217l-37 5v196h355l204 -183c14 -9 34 -29 45 -39h2c-2 23 -2 44 -2 65v157h385v-196zM729 -55l-126 -139h-365l82 139h409z" />
    <glyph glyph-name="Obreve.sc" unicode="&#xe065;" horiz-adv-x="941" 
d="M823 877c-17 -194 -289 -195 -339 -195s-322 1 -341 195h169c11 -66 111 -72 172 -72s161 6 172 72h167zM911 302c0 -269 -221 -325 -441 -325s-440 56 -440 325v19c0 265 218 326 440 326c223 0 441 -61 441 -326v-19zM539 301v22c0 84 -15 109 -69 109
s-69 -25 -69 -109v-22c0 -83 17 -108 69 -108s69 25 69 108z" />
    <glyph glyph-name="Ohungarumlaut.sc" unicode="&#xe066;" horiz-adv-x="941" 
d="M911 302c0 -269 -221 -325 -441 -325s-440 56 -440 325v19c0 265 218 326 440 326c223 0 441 -61 441 -326v-19zM539 301v22c0 84 -15 109 -69 109s-69 -25 -69 -109v-22c0 -83 17 -108 69 -108s69 25 69 108zM1133 825l-286 -142h-324l193 142h417zM623 825h-418
l-192 -142h324z" />
    <glyph glyph-name="Omacron.sc" unicode="&#xe067;" horiz-adv-x="941" 
d="M911 302c0 -269 -221 -325 -441 -325s-440 56 -440 325v19c0 265 218 326 440 326c223 0 441 -61 441 -326v-19zM539 301v22c0 84 -15 109 -69 109s-69 -25 -69 -109v-22c0 -83 17 -108 69 -108s69 25 69 108zM826 684h-715v142h715v-142z" />
    <glyph glyph-name="Oslashacute.sc" unicode="&#xe068;" horiz-adv-x="941" 
d="M946 825l-285 -142h-391l193 142h483zM905 301c0 -252 -217 -324 -433 -324c-77 0 -155 10 -223 33l-36 -34h-183l103 99c-58 50 -93 123 -93 226v19c0 250 215 326 432 326c76 0 153 -10 220 -33l36 34h183l-102 -98c58 -50 96 -125 96 -229v-19zM539 300v23
c0 85 -14 110 -67 110s-67 -25 -67 -110v-23c0 -84 15 -109 67 -109s67 25 67 109z" />
    <glyph glyph-name="Racute.sc" unicode="&#xe069;" horiz-adv-x="969" 
d="M922 825l-285 -142h-391l193 142h483zM933 0h-288l-150 186h-29h-38v-186h-398v202l36 4v217l-36 5v196c96 12 279 23 462 23c237 0 447 -45 447 -233v-12c0 -92 -41 -137 -96 -167l31 -25l59 -8v-202zM576 404v3c0 28 -15 35 -85 35c-25 0 -49 -2 -64 -3v-68
c23 -1 43 -1 64 -1c70 0 85 6 85 34z" />
    <glyph glyph-name="Rcaron.sc" unicode="&#xe06a;" horiz-adv-x="969" 
d="M921 825l-190 -142h-483l-193 142h354l80 -51l79 51h353zM933 0h-288l-150 186h-29h-38v-186h-398v202l36 4v217l-36 5v196c96 12 279 23 462 23c237 0 447 -45 447 -233v-12c0 -92 -41 -137 -96 -167l31 -25l59 -8v-202zM576 404v3c0 28 -15 35 -85 35
c-25 0 -49 -2 -64 -3v-68c23 -1 43 -1 64 -1c70 0 85 6 85 34z" />
    <glyph glyph-name="Rcommaaccent.sc" unicode="&#xe06b;" horiz-adv-x="969" 
d="M933 0h-288l-150 186h-29h-38v-186h-398v202l36 4v217l-36 5v196c96 12 279 23 462 23c237 0 447 -45 447 -233v-12c0 -92 -41 -137 -96 -167l31 -25l59 -8v-202zM576 404v3c0 28 -15 35 -85 35c-25 0 -49 -2 -64 -3v-68c23 -1 43 -1 64 -1c70 0 85 6 85 34zM697 -55
l-126 -139h-365l82 139h409z" />
    <glyph glyph-name="Sacute.sc" unicode="&#xe06c;" horiz-adv-x="843" 
d="M887 825l-285 -142h-391l193 142h483zM813 213c0 -200 -176 -236 -375 -236c-140 0 -282 6 -383 21v200h192l9 -28c57 -1 84 -1 126 -1c52 0 59 3 59 15c0 9 -7 11 -85 18l-52 4c-149 12 -274 37 -274 211c0 204 180 230 414 230c127 0 254 -15 337 -28v-187h-194l-10 30
c-49 1 -85 1 -127 1c-46 0 -56 -3 -56 -14s14 -13 86 -21l55 -6c202 -21 278 -70 278 -209z" />
    <glyph glyph-name="Scedilla.sc" unicode="&#xe06d;" horiz-adv-x="843" 
d="M813 213c0 -200 -176 -236 -375 -236c-140 0 -282 6 -383 21v200h192l9 -28c57 -1 84 -1 126 -1c52 0 59 3 59 15c0 9 -7 11 -85 18l-52 4c-149 12 -274 37 -274 211c0 204 180 230 414 230c127 0 254 -15 337 -28v-187h-194l-10 30c-49 1 -85 1 -127 1
c-46 0 -56 -3 -56 -14s14 -13 86 -21l55 -6c202 -21 278 -70 278 -209zM670 -55l-151 -139h-366l110 139h407z" />
    <glyph glyph-name="Scircumflex.sc" unicode="&#xe06e;" horiz-adv-x="843" 
d="M813 213c0 -200 -176 -236 -375 -236c-140 0 -282 6 -383 21v200h192l9 -28c57 -1 84 -1 126 -1c52 0 59 3 59 15c0 9 -7 11 -85 18l-52 4c-149 12 -274 37 -274 211c0 204 180 230 414 230c127 0 254 -15 337 -28v-187h-194l-10 30c-49 1 -85 1 -127 1
c-46 0 -56 -3 -56 -14s14 -13 86 -21l55 -6c202 -21 278 -70 278 -209zM866 685h-353l-79 52l-80 -52h-354l193 142h483z" />
    <glyph glyph-name="Scommaaccent.sc" unicode="&#xe06f;" horiz-adv-x="843" 
d="M813 213c0 -200 -176 -236 -375 -236c-140 0 -282 6 -383 21v200h192l9 -28c57 -1 84 -1 126 -1c52 0 59 3 59 15c0 9 -7 11 -85 18l-52 4c-149 12 -274 37 -274 211c0 204 180 230 414 230c127 0 254 -15 337 -28v-187h-194l-10 30c-49 1 -85 1 -127 1
c-46 0 -56 -3 -56 -14s14 -13 86 -21l55 -6c202 -21 278 -70 278 -209zM668 -55l-126 -139h-365l82 139h409z" />
    <glyph glyph-name="Tbar.sc" unicode="&#xe070;" horiz-adv-x="868" 
d="M838 391h-175l-13 35h-19v-78h168v-89h-168v-53l36 -4v-202h-465v202l36 4v53h-169v89h169v78h-19l-13 -35h-176v233h808v-233z" />
    <glyph glyph-name="Tcaron.sc" unicode="&#xe071;" horiz-adv-x="868" 
d="M869 826l-190 -142h-483l-193 142h354l80 -51l79 51h353zM838 391h-175l-13 35h-19v-220l36 -4v-202h-465v202l36 4v220h-19l-13 -35h-176v233h808v-233z" />
    <glyph glyph-name="Tcommaaccent.sc" unicode="&#xe072;" horiz-adv-x="868" 
d="M838 391h-175l-13 35h-19v-220l36 -4v-202h-465v202l36 4v220h-19l-13 -35h-176v233h808v-233zM657 -55l-126 -139h-365l82 139h409z" />
    <glyph glyph-name="Ubreve.sc" unicode="&#xe073;" horiz-adv-x="1029" 
d="M852 870c-17 -194 -289 -195 -339 -195s-322 1 -341 195h169c11 -66 111 -72 172 -72s161 6 172 72h167zM999 428l-37 -5v-146c0 -298 -252 -300 -449 -300c-195 0 -447 2 -447 300v146l-36 5v196h415v-347c0 -69 12 -93 68 -93c58 0 70 24 70 93v347h416v-196z" />
    <glyph glyph-name="Uhungarumlaut.sc" unicode="&#xe074;" horiz-adv-x="1029" 
d="M999 428l-37 -5v-146c0 -298 -252 -300 -449 -300c-195 0 -447 2 -447 300v146l-36 5v196h415v-347c0 -69 12 -93 68 -93c58 0 70 24 70 93v347h416v-196zM1207 827l-286 -142h-324l193 142h417zM697 827h-418l-192 -142h324z" />
    <glyph glyph-name="Umacron.sc" unicode="&#xe075;" horiz-adv-x="1029" 
d="M999 428l-37 -5v-146c0 -298 -252 -300 -449 -300c-195 0 -447 2 -447 300v146l-36 5v196h415v-347c0 -69 12 -93 68 -93c58 0 70 24 70 93v347h416v-196zM871 685h-715v142h715v-142z" />
    <glyph glyph-name="Uogonek.sc" unicode="&#xe076;" horiz-adv-x="1029" 
d="M999 428l-37 -5v-146c0 -230 -150 -284 -310 -296c-40 -13 -52 -26 -52 -36c0 -23 20 -25 46 -25c48 0 89 5 124 7v-136c-36 -5 -155 -27 -288 -27c-149 0 -228 32 -228 107c0 42 20 81 89 113c-146 17 -277 78 -277 293v146l-36 5v196h415v-347c0 -69 12 -93 68 -93
c58 0 70 24 70 93v347h416v-196z" />
    <glyph glyph-name="Uring.sc" unicode="&#xe077;" horiz-adv-x="1029" 
d="M743 794c0 -95 -91 -147 -228 -147c-139 0 -231 52 -231 147s92 148 231 148c138 0 228 -53 228 -148zM579 795c0 25 -27 35 -64 35c-39 0 -66 -10 -66 -35c0 -24 27 -34 66 -34c37 0 64 10 64 34zM999 428l-37 -5v-146c0 -298 -252 -300 -449 -300
c-195 0 -447 2 -447 300v146l-36 5v196h415v-347c0 -69 12 -93 68 -93c58 0 70 24 70 93v347h416v-196z" />
    <glyph glyph-name="Utilde.sc" unicode="&#xe078;" horiz-adv-x="1029" 
d="M868 861c0 -172 -127 -179 -182 -179c-19 0 -67 1 -152 22l-88 22c-41 10 -69 16 -81 16c-27 0 -38 -10 -38 -42v-15h-166v15c0 173 125 179 195 179c28 0 55 -2 135 -21l88 -21c42 -10 65 -17 90 -17c24 0 33 9 33 41v14h166v-14zM999 428l-37 -5v-146
c0 -298 -252 -300 -449 -300c-195 0 -447 2 -447 300v146l-36 5v196h415v-347c0 -69 12 -93 68 -93c58 0 70 24 70 93v347h416v-196z" />
    <glyph glyph-name="Wacute.sc" unicode="&#xe079;" horiz-adv-x="1356" 
d="M1143 827l-285 -142h-391l193 142h483zM1326 428l-38 -5l-90 -423h-407l-88 207c-12 28 -19 65 -22 85h-4c-4 -21 -13 -57 -25 -85l-88 -207h-407l-90 423l-37 5v196h371l28 -209c7 -55 10 -93 11 -126h5c9 35 19 67 28 91l49 126h311l48 -126c13 -33 19 -56 29 -91h4
c3 40 7 79 13 126l27 209h372v-196z" />
    <glyph glyph-name="Wcircumflex.sc" unicode="&#xe07a;" horiz-adv-x="1356" 
d="M1326 428l-38 -5l-90 -423h-407l-88 207c-12 28 -19 65 -22 85h-4c-4 -21 -13 -57 -25 -85l-88 -207h-407l-90 423l-37 5v196h371l28 -209c7 -55 10 -93 11 -126h5c9 35 19 67 28 91l49 126h311l48 -126c13 -33 19 -56 29 -91h4c3 40 7 79 13 126l27 209h372v-196z
M1112 684h-353l-79 52l-80 -52h-354l193 142h483z" />
    <glyph glyph-name="Wdieresis.sc" unicode="&#xe07b;" horiz-adv-x="1356" 
d="M1326 428l-38 -5l-90 -423h-407l-88 207c-12 28 -19 65 -22 85h-4c-4 -21 -13 -57 -25 -85l-88 -207h-407l-90 423l-37 5v196h371l28 -209c7 -55 10 -93 11 -126h5c9 35 19 67 28 91l49 126h311l48 -126c13 -33 19 -56 29 -91h4c3 40 7 79 13 126l27 209h372v-196z
M1034 685h-315v140h315v-140zM642 685v140h-315v-140h315z" />
    <glyph glyph-name="Wgrave.sc" unicode="&#xe07c;" horiz-adv-x="1356" 
d="M911 684h-391l-285 142h484zM1326 428l-38 -5l-90 -423h-407l-88 207c-12 28 -19 65 -22 85h-4c-4 -21 -13 -57 -25 -85l-88 -207h-407l-90 423l-37 5v196h371l28 -209c7 -55 10 -93 11 -126h5c9 35 19 67 28 91l49 126h311l48 -126c13 -33 19 -56 29 -91h4
c3 40 7 79 13 126l27 209h372v-196z" />
    <glyph glyph-name="Ycircumflex.sc" unicode="&#xe07d;" horiz-adv-x="912" 
d="M882 428l-77 -9l-163 -217v-16l36 -5v-181h-454v181l48 5v16l-164 217l-78 9v196h321l62 -106c15 -27 29 -51 42 -78h4c12 27 27 51 42 78l62 106h319v-196zM891 685h-353l-79 52l-80 -52h-354l193 142h483z" />
    <glyph glyph-name="Ygrave.sc" unicode="&#xe07e;" horiz-adv-x="912" 
d="M709 685h-391l-285 142h484zM882 428l-77 -9l-163 -217v-16l36 -5v-181h-454v181l48 5v16l-164 217l-78 9v196h321l62 -106c15 -27 29 -51 42 -78h4c12 27 27 51 42 78l62 106h319v-196z" />
    <glyph glyph-name="Zacute.sc" unicode="&#xe07f;" horiz-adv-x="775" 
d="M894 827l-285 -142h-391l193 142h483zM745 0h-715v170l242 243h-54l-9 -30h-179v241h714v-181l-238 -232h50l10 30h179v-241z" />
    <glyph glyph-name="Zdotaccent.sc" unicode="&#xe080;" horiz-adv-x="775" 
d="M745 0h-715v170l242 243h-54l-9 -30h-179v241h714v-181l-238 -232h50l10 30h179v-241zM628 684h-437v142h437v-142z" />
    <glyph glyph-name="Idotaccent.sc" unicode="&#xe081;" horiz-adv-x="524" 
d="M494 0h-464v202l36 4v217l-36 5v196h464v-196l-37 -5v-217l37 -4v-202zM482 684h-437v142h437v-142z" />
    <glyph glyph-name="Breve.sc" unicode="&#xe082;" horiz-adv-x="740" 
d="M710 841c-17 -194 -289 -195 -339 -195s-322 1 -341 195h169c11 -66 111 -72 172 -72s161 6 172 72h167z" />
    <glyph glyph-name="Caron.sc" unicode="&#xe083;" horiz-adv-x="926" 
d="M896 793l-190 -142h-483l-193 142h354l80 -51l79 51h353z" />
    <glyph glyph-name="Circumflex.sc" unicode="&#xe084;" horiz-adv-x="926" 
d="M896 651h-353l-79 52l-80 -52h-354l193 142h483z" />
    <glyph glyph-name="Dotaccent.sc" unicode="&#xe085;" horiz-adv-x="497" 
d="M467 651h-437v142h437v-142z" />
    <glyph glyph-name="Hungarumlaut.sc" unicode="&#xe086;" horiz-adv-x="1180" 
d="M1150 793l-286 -142h-324l193 142h417zM640 793l-286 -142h-324l192 142h418z" />
    <glyph glyph-name="Ogonek.sc" unicode="&#xe087;" horiz-adv-x="578" 
d="M546 -209c-36 -5 -155 -27 -288 -27c-149 0 -228 32 -228 107c0 69 57 128 302 164l214 -35c-138 -18 -170 -39 -170 -55c0 -23 20 -25 46 -25c48 0 89 5 124 7v-136z" />
    <glyph glyph-name="Ring.sc" unicode="&#xe088;" horiz-adv-x="519" 
d="M489 777c0 -95 -91 -147 -228 -147c-139 0 -231 52 -231 147s92 148 231 148c138 0 228 -53 228 -148zM325 778c0 25 -27 35 -64 35c-39 0 -66 -10 -66 -35c0 -24 27 -34 66 -34c37 0 64 10 64 34z" />
    <glyph glyph-name="Tilde.sc" unicode="&#xe089;" horiz-adv-x="767" 
d="M737 821c0 -172 -127 -179 -182 -179c-19 0 -67 1 -152 22l-88 22c-41 10 -69 16 -81 16c-27 0 -38 -10 -38 -42v-15h-166v15c0 173 125 179 195 179c28 0 55 -2 135 -21l88 -21c42 -10 65 -17 90 -17c24 0 33 9 33 41v14h166v-14z" />
    <glyph glyph-name="exclam.sc" unicode="&#xe08b;" horiz-adv-x="418" 
d="M373 0h-331v178h331v-178zM388 666l-29 -444h-303l-26 444h358z" />
    <glyph glyph-name="ampersand.sc" unicode="&#xe08c;" horiz-adv-x="1067" 
d="M1037 0h-292l-26 21c-36 -16 -135 -37 -278 -37c-245 0 -411 27 -411 205v5c0 109 71 134 156 156l-10 6c-66 37 -90 80 -90 119v5c0 124 111 167 369 167c127 0 264 -15 346 -28v-200h-192l-12 35h-105c-24 0 -42 0 -42 -17v-2c0 -10 15 -19 22 -23l268 -157
c3 15 3 22 3 31l-34 15v80h323v-80l-35 -15c0 -61 -22 -105 -58 -148l98 -57v-81zM531 135l-126 86c-12 -8 -15 -20 -15 -30v-5c0 -36 43 -56 90 -56c15 0 34 3 51 5z" />
    <glyph glyph-name="question.sc" unicode="&#xe08d;" horiz-adv-x="701" 
d="M443 0h-346v179h346v-179zM671 510c0 -80 -37 -126 -137 -184c-123 -72 -127 -70 -127 -102v-3h-276v3c0 72 0 116 54 167c45 44 53 49 53 62v1c0 18 -17 19 -77 19h-22l-6 -28h-103v194c59 19 170 36 315 36c224 0 326 -55 326 -159v-6z" />
    <glyph glyph-name="Grave.sc" unicode="&#xe08e;" horiz-adv-x="736" 
d="M706 651h-391l-285 142h484z" />
    <glyph glyph-name="exclamdown.sc" unicode="&#xe08f;" horiz-adv-x="418" 
d="M388 -42h-358l26 444h303zM373 624v-178h-331v178h331z" />
    <glyph glyph-name="Dieresis.sc" unicode="&#xe090;" horiz-adv-x="845" 
d="M815 653h-315v140h315v-140zM345 653v140h-315v-140h315z" />
    <glyph glyph-name="Macron.sc" unicode="&#xe091;" horiz-adv-x="775" 
d="M745 651h-715v142h715v-142z" />
    <glyph glyph-name="Acute.sc" unicode="&#xe092;" horiz-adv-x="736" 
d="M706 793l-285 -142h-391l193 142h483z" />
    <glyph glyph-name="Cedilla.sc" unicode="&#xe093;" horiz-adv-x="577" 
d="M547 -55l-151 -139h-366l110 139h407z" />
    <glyph glyph-name="questiondown.sc" unicode="&#xe094;" horiz-adv-x="701" 
d="M671 -15c-59 -19 -170 -36 -315 -36c-224 0 -326 55 -326 159v6c0 80 37 126 137 184c123 72 127 70 127 102v3h276v-3c0 -72 0 -116 -54 -167c-45 -44 -53 -49 -53 -62v-1c0 -18 17 -19 77 -19h22l6 28h103v-194zM604 445h-346v179h346v-179z" />
    <glyph glyph-name="zero.fitted" unicode="&#xe097;" 
d="M1056 368c0 -313 -197 -395 -513 -395c-317 0 -513 82 -513 395v8c0 313 196 394 513 394c316 0 513 -81 513 -394v-8zM587 367v10c0 125 -8 144 -44 144s-45 -19 -45 -144v-10c0 -125 9 -145 45 -145s44 20 44 145z" />
    <glyph glyph-name="two.fitted" unicode="&#xe098;" 
d="M998 0h-931v88c0 218 85 305 313 371c162 47 164 52 164 67c0 13 -9 18 -96 18c-21 0 -68 -1 -126 -4l-3 -37h-240v213c167 45 354 54 467 54c359 0 472 -77 472 -217c0 -139 -98 -210 -332 -264c-155 -36 -165 -36 -165 -40v-1h232l5 41h240v-289z" />
    <glyph glyph-name="three.fitted" unicode="&#xe099;" 
d="M1015 215c0 -176 -138 -242 -476 -242c-185 0 -384 29 -468 61v213h240l3 -36c61 -2 118 -2 162 -2c69 0 85 9 85 27v2c0 24 -17 27 -114 27h-258v209h262c89 0 110 9 110 32v3c0 20 -12 29 -84 29c-51 0 -107 -1 -163 -3l-3 -33h-240v207c97 32 283 61 468 61
c249 0 476 -32 476 -217v-8c0 -45 -17 -131 -98 -169c85 -31 98 -120 98 -153v-8z" />
    <glyph glyph-name="four.fitted" unicode="&#xe09a;" 
d="M1058 122h-104v-39l43 -4v-79h-548v79l44 4v39h-465v194l604 427h322v-405h104v-216zM525 338v122l-162 -122h162z" />
    <glyph glyph-name="five.fitted" unicode="&#xe09b;" 
d="M1004 238c0 -186 -176 -265 -457 -265c-202 0 -358 19 -459 47v221h232l7 -41c30 -1 52 -1 62 -1c112 0 144 4 144 33v6c0 27 -35 31 -124 31h-328l55 474h845v-253h-233l-5 23h-253l-3 -30h37c408 0 480 -55 480 -239v-6z" />
    <glyph glyph-name="six.fitted" unicode="&#xe09c;" 
d="M1028 249c0 -170 -118 -276 -480 -276c-490 0 -490 243 -490 394v8c0 190 0 395 469 395c191 0 364 -28 442 -46v-216h-233l-7 27c-44 1 -91 3 -131 3c-72 0 -89 0 -89 -42v-8c25 5 77 7 93 7c277 0 426 -46 426 -239v-7zM582 248v6c0 34 0 51 -35 51
c-16 0 -36 -3 -38 -4v-47c0 -35 3 -63 37 -63c33 0 36 29 36 57z" />
    <glyph glyph-name="seven.fitted" unicode="&#xe09d;" 
d="M1030 504l-490 -504h-485l499 513h-206l-7 -41h-233v271h922v-239z" />
    <glyph glyph-name="eight.fitted" unicode="&#xe09e;" 
d="M1056 216c0 -165 -127 -243 -507 -243h-11c-380 0 -507 78 -507 243v4c0 60 28 118 101 154c-60 33 -102 69 -102 169v5c0 159 133 222 508 222h11c374 0 507 -63 507 -222v-5c0 -100 -41 -136 -101 -169c73 -36 101 -94 101 -154v-4zM612 228v6c0 32 -16 54 -63 54h-11
c-47 0 -63 -22 -63 -54v-6c0 -33 16 -54 63 -54h11c47 0 63 21 63 54zM609 518v6c0 24 -11 43 -60 43h-11c-49 0 -60 -19 -60 -43v-6c0 -25 12 -43 60 -43h11c48 0 60 18 60 43z" />
    <glyph glyph-name="nine.fitted" unicode="&#xe09f;" 
d="M1027 371c0 -175 0 -398 -469 -398c-191 0 -365 28 -442 45v216h231l7 -28c52 -1 105 -1 154 -1c51 0 68 5 68 42v8c-25 -5 -78 -7 -93 -7c-277 0 -426 50 -426 238v8c0 164 118 276 480 276c490 0 490 -239 490 -394v-5zM576 442v47c0 35 -1 63 -38 63
c-36 0 -36 -30 -36 -57v-6c0 -34 0 -51 35 -51c16 0 36 3 39 4z" />
    <glyph glyph-name="zero.taboldstyle" unicode="&#xe100;" 
d="M1055 348c0 -283 -190 -375 -513 -375c-322 0 -512 92 -512 375v9c0 283 190 374 512 374c323 0 513 -91 513 -374v-9zM587 347v11c0 93 -8 124 -45 124c-36 0 -44 -31 -44 -124v-11c0 -93 8 -125 44 -125c37 0 45 32 45 125z" />
    <glyph glyph-name="one.taboldstyle" unicode="&#xe101;" 
d="M1010 0h-934v251l236 -1v188l-236 -48v240l373 80h325v-460l236 1v-251z" />
    <glyph glyph-name="two.taboldstyle" unicode="&#xe102;" 
d="M995 0h-927v248l263 104c178 71 214 86 214 116c0 25 -16 37 -96 37c-50 0 -59 0 -125 -3l-4 -39h-241v207c98 32 285 61 468 61c375 0 471 -77 471 -210c0 -142 -80 -186 -259 -239l-114 -34h350v-248z" />
    <glyph glyph-name="three.taboldstyle" unicode="&#xe103;" 
d="M1015 176c0 -176 -138 -242 -476 -242c-185 0 -384 29 -468 61v213h240l3 -36c61 -2 118 -2 162 -2c69 0 85 9 85 27v2c0 24 -17 27 -114 27h-258v209h262c89 0 110 9 110 32v3c0 20 -12 29 -84 29c-51 0 -107 -1 -163 -3l-3 -33h-240v207c97 32 283 61 468 61
c249 0 476 -32 476 -217v-8c0 -45 -17 -131 -98 -169c85 -31 98 -120 98 -153v-8z" />
    <glyph glyph-name="four.taboldstyle" unicode="&#xe104;" 
d="M1058 90h-104v-40l43 -4v-79h-548v79l44 4v40h-465v193l604 427h322v-404h104v-216zM525 306v121l-162 -121h162z" />
    <glyph glyph-name="five.taboldstyle" unicode="&#xe105;" 
d="M1004 205c0 -186 -176 -265 -457 -265c-202 0 -358 19 -459 47v221h232l7 -41c30 -1 52 -1 62 -1c112 0 144 4 144 33v6c0 27 -35 31 -124 31h-328l55 474h845v-253h-233l-5 23h-253l-3 -30h37c408 0 480 -55 480 -239v-6z" />
    <glyph glyph-name="six.taboldstyle" unicode="&#xe106;" 
d="M1028 249c0 -170 -118 -276 -480 -276c-490 0 -490 249 -490 400v5c0 190 0 392 469 392c191 0 364 -28 442 -46v-216h-233l-7 27c-44 1 -91 3 -131 3c-72 0 -89 0 -89 -42v-8c25 5 77 7 93 7c277 0 426 -46 426 -239v-7zM582 248v6c0 34 0 51 -35 51
c-16 0 -36 -3 -38 -4v-47c0 -35 3 -63 37 -63c33 0 36 29 36 57z" />
    <glyph glyph-name="seven.taboldstyle" unicode="&#xe107;" 
d="M1030 471l-490 -504h-485l499 513h-206l-7 -41h-233v271h922v-239z" />
    <glyph glyph-name="eight.taboldstyle" unicode="&#xe108;" 
d="M1056 216c0 -165 -127 -243 -507 -243h-11c-380 0 -507 78 -507 243v4c0 60 28 118 101 154c-60 33 -102 69 -102 169v5c0 159 133 222 508 222h11c374 0 507 -63 507 -222v-5c0 -100 -41 -136 -101 -169c73 -36 101 -94 101 -154v-4zM612 228v6c0 32 -16 54 -63 54h-11
c-47 0 -63 -22 -63 -54v-6c0 -33 16 -54 63 -54h11c47 0 63 21 63 54zM609 518v6c0 24 -11 43 -60 43h-11c-49 0 -60 -19 -60 -43v-6c0 -25 12 -43 60 -43h11c48 0 60 18 60 43z" />
    <glyph glyph-name="nine.taboldstyle" unicode="&#xe109;" 
d="M1027 332c0 -175 0 -398 -469 -398c-191 0 -365 28 -442 45v216h231l7 -28c52 -1 105 -1 154 -1c51 0 68 5 68 42v8c-25 -5 -78 -7 -93 -7c-277 0 -426 50 -426 238v8c0 164 118 276 480 276c490 0 490 -240 490 -395v-4zM576 403v47c0 35 -1 63 -38 63
c-36 0 -36 -30 -36 -57v-6c0 -34 0 -51 35 -51c16 0 36 3 39 4z" />
    <glyph glyph-name="zero.denominator" unicode="&#xe10a;" horiz-adv-x="672" 
d="M642 223c0 -181 -117 -237 -307 -237c-189 0 -305 56 -305 237v2c0 181 116 237 305 237c190 0 307 -56 307 -237v-2zM363 222v4c0 76 -6 88 -28 88c-20 0 -26 -12 -26 -88v-4c0 -75 6 -87 26 -87c22 0 28 12 28 87z" />
    <glyph glyph-name="one.denominator" unicode="&#xe10b;" horiz-adv-x="451" 
d="M421 0h-391v145l57 6v121l-57 -15v140l139 49h195v-295l57 -6v-145z" />
    <glyph glyph-name="two.denominator" unicode="&#xe10c;" horiz-adv-x="631" 
d="M589 0h-559v53c0 131 69 187 188 222c97 28 98 29 98 40c0 7 -2 11 -57 11c-13 0 -41 0 -76 -2l-2 -22h-144v128c100 27 213 32 280 32c216 0 284 -46 284 -145c0 -81 -58 -122 -200 -144c-91 -14 -99 -16 -99 -23v-1h140l3 24h144v-173z" />
    <glyph glyph-name="three.denominator" unicode="&#xe10d;" horiz-adv-x="626" 
d="M596 129c0 -106 -82 -145 -285 -145c-111 0 -231 17 -281 36v128h144l2 -21c36 -2 71 -2 97 -2c43 0 51 5 51 17v1c0 15 -10 16 -68 16h-155v125h157c53 0 66 6 66 20v1c0 12 -7 18 -50 18c-31 0 -65 -1 -98 -2l-2 -20h-144v124c58 20 170 37 281 37
c149 0 285 -19 285 -130v-5c0 -27 -10 -79 -58 -101c51 -19 58 -72 58 -92v-5z" />
    <glyph glyph-name="four.denominator" unicode="&#xe10e;" horiz-adv-x="678" 
d="M648 73h-63v-23l26 -3v-47h-329v47l27 3v23h-279v117l362 256h193v-243h63v-130zM328 203v73l-97 -73h97z" />
    <glyph glyph-name="five.denominator" unicode="&#xe10f;" horiz-adv-x="614" 
d="M584 143c0 -112 -106 -159 -274 -159c-122 0 -215 11 -276 28v133h139l5 -25c18 -1 31 -1 37 -1c67 0 86 3 86 20v4c0 16 -21 18 -74 18h-197l33 285h507v-152h-140l-3 14h-152l-1 -18h22c245 0 288 -33 288 -144v-3z" />
    <glyph glyph-name="six.denominator" unicode="&#xe110;" horiz-adv-x="642" 
d="M344 149v3c0 21 0 31 -21 31c-9 0 -21 -2 -22 -2v-29c0 -21 1 -37 22 -37s21 17 21 34zM612 159v-5c0 -102 -71 -170 -288 -170c-294 0 -294 140 -294 233v5c0 106 1 240 281 240c115 0 219 -17 266 -28v-129h-140l-4 16c-27 1 -55 2 -79 2c-43 0 -53 0 -53 -25v-5
c15 3 46 4 55 4c167 0 256 -23 256 -138z" />
    <glyph glyph-name="seven.denominator" unicode="&#xe111;" horiz-adv-x="645" 
d="M615 302l-294 -302h-291l299 308h-123l-4 -25h-140v163h553v-144z" />
    <glyph glyph-name="eight.denominator" unicode="&#xe112;" horiz-adv-x="676" 
d="M646 127c0 -96 -76 -143 -304 -143h-7c-228 0 -304 47 -304 143v5c0 36 17 71 61 92c-36 20 -62 42 -62 102v6c0 81 80 130 305 130h7c224 0 304 -49 304 -130v-6c0 -60 -25 -82 -61 -102c44 -21 61 -56 61 -92v-5zM380 137v3c0 20 -10 33 -38 33h-7
c-28 0 -38 -13 -38 -33v-3c0 -20 10 -33 38 -33h7c28 0 38 13 38 33zM378 311v3c0 15 -7 26 -36 26h-7c-29 0 -36 -11 -36 -26v-3c0 -15 7 -26 36 -26h7c29 0 36 11 36 26z" />
    <glyph glyph-name="nine.denominator" unicode="&#xe113;" horiz-adv-x="642" 
d="M298 297v-3c0 -21 0 -31 21 -31c9 0 21 2 22 2v29c0 21 0 37 -22 37c-21 0 -21 -17 -21 -34zM30 287v5c0 102 71 170 288 170c294 0 294 -140 294 -233v-5c0 -106 -1 -240 -281 -240c-115 0 -219 17 -266 28v129h140l4 -16c27 -1 55 -2 79 -2c43 0 53 0 53 25v5
c-15 -3 -46 -4 -55 -4c-167 0 -256 23 -256 138z" />
    <glyph glyph-name="parenleft.denominator" unicode="&#xe117;" horiz-adv-x="353" 
d="M323 -51h-210c-52 58 -83 157 -83 252v2c0 94 31 194 83 251h210c-36 -52 -74 -156 -74 -251v-2c0 -95 38 -199 74 -252z" />
    <glyph glyph-name="parenright.denominator" unicode="&#xe118;" horiz-adv-x="353" 
d="M323 201c0 -95 -31 -194 -82 -252h-211c36 53 74 157 74 252v2c0 95 -38 199 -74 251h211c51 -57 82 -157 82 -251v-2z" />
    <glyph glyph-name="cent.denominator" unicode="&#xe119;" horiz-adv-x="549" 
d="M519 -4c-26 -8 -60 -14 -103 -16v-99h-235v116c-100 36 -151 113 -151 214v11c0 100 51 178 151 214v119h235v-102c45 -5 83 -14 103 -16v-187h-101l-4 30h-9c-59 0 -70 -5 -70 -58v-11c0 -53 11 -56 70 -56c34 0 78 2 114 4v-163z" />
    <glyph glyph-name="comma.denominator" unicode="&#xe11a;" horiz-adv-x="321" 
d="M291 114l-90 -205h-171l60 205h201z" />
    <glyph glyph-name="dollar.denominator" unicode="&#xe11b;" horiz-adv-x="608" 
d="M578 141c0 -90 -60 -145 -147 -159v-101h-235v97c-55 2 -107 6 -154 10v145h101l6 -24c40 -1 78 -1 127 -1c37 0 50 3 50 15c0 13 -12 16 -66 20l-38 3c-108 9 -192 48 -192 152c0 95 62 135 166 151v106h235v-105c51 -3 97 -10 131 -14v-137h-101l-6 21
c-45 2 -88 2 -131 2c-32 0 -52 0 -52 -14s19 -15 73 -18l37 -2c147 -8 196 -65 196 -147z" />
    <glyph glyph-name="hyphen.denominator" unicode="&#xe11c;" horiz-adv-x="261" 
d="M231 146h-201v155h201v-155z" />
    <glyph glyph-name="period.denominator" unicode="&#xe11d;" horiz-adv-x="297" 
d="M267 -1h-237v115h237v-115z" />
    <glyph glyph-name="zero.numerator" unicode="&#xe11e;" horiz-adv-x="672" 
d="M642 523c0 -181 -117 -237 -307 -237c-189 0 -305 56 -305 237v2c0 181 116 237 305 237c190 0 307 -56 307 -237v-2zM363 522v4c0 76 -6 88 -28 88c-20 0 -26 -12 -26 -88v-4c0 -75 6 -87 26 -87c22 0 28 12 28 87z" />
    <glyph glyph-name="one.numerator" unicode="&#xe11f;" horiz-adv-x="451" 
d="M421 300h-391v145l57 6v121l-57 -15v140l139 49h195v-295l57 -6v-145z" />
    <glyph glyph-name="two.numerator" unicode="&#xe120;" horiz-adv-x="631" 
d="M589 300h-559v53c0 131 69 187 188 222c97 28 98 29 98 40c0 7 -2 11 -57 11c-13 0 -41 0 -76 -2l-2 -22h-144v128c100 27 213 32 280 32c216 0 284 -46 284 -145c0 -81 -58 -122 -200 -144c-91 -14 -99 -16 -99 -23v-1h140l3 24h144v-173z" />
    <glyph glyph-name="three.numerator" unicode="&#xe121;" horiz-adv-x="626" 
d="M596 429c0 -106 -82 -145 -285 -145c-111 0 -231 17 -281 36v128h144l2 -21c36 -2 71 -2 97 -2c43 0 51 5 51 17v1c0 15 -10 16 -68 16h-155v125h157c53 0 66 6 66 20v1c0 12 -7 18 -50 18c-31 0 -65 -1 -98 -2l-2 -20h-144v124c58 20 170 37 281 37
c149 0 285 -19 285 -130v-5c0 -27 -10 -79 -58 -101c51 -19 58 -72 58 -92v-5z" />
    <glyph glyph-name="four.numerator" unicode="&#xe122;" horiz-adv-x="678" 
d="M648 373h-63v-23l26 -3v-47h-329v47l27 3v23h-279v117l362 256h193v-243h63v-130zM328 503v73l-97 -73h97z" />
    <glyph glyph-name="five.numerator" unicode="&#xe123;" horiz-adv-x="614" 
d="M584 443c0 -112 -106 -159 -274 -159c-122 0 -215 11 -276 28v133h139l5 -25c18 -1 31 -1 37 -1c67 0 86 3 86 20v4c0 16 -21 18 -74 18h-197l33 285h507v-152h-140l-3 14h-152l-1 -18h22c245 0 288 -33 288 -144v-3z" />
    <glyph glyph-name="six.numerator" unicode="&#xe124;" horiz-adv-x="642" 
d="M344 449v3c0 21 0 31 -21 31c-9 0 -21 -2 -22 -2v-29c0 -21 1 -37 22 -37s21 17 21 34zM612 459v-5c0 -102 -71 -170 -288 -170c-294 0 -294 140 -294 233v5c0 106 1 240 281 240c115 0 219 -17 266 -28v-129h-140l-4 16c-27 1 -55 2 -79 2c-43 0 -53 0 -53 -25v-5
c15 3 46 4 55 4c167 0 256 -23 256 -138z" />
    <glyph glyph-name="seven.numerator" unicode="&#xe125;" horiz-adv-x="645" 
d="M615 602l-294 -302h-291l299 308h-123l-4 -25h-140v163h553v-144z" />
    <glyph glyph-name="eight.numerator" unicode="&#xe126;" horiz-adv-x="676" 
d="M646 427c0 -96 -76 -143 -304 -143h-7c-228 0 -304 47 -304 143v5c0 36 17 71 61 92c-36 20 -62 42 -62 102v6c0 81 80 130 305 130h7c224 0 304 -49 304 -130v-6c0 -60 -25 -82 -61 -102c44 -21 61 -56 61 -92v-5zM380 437v3c0 20 -10 33 -38 33h-7
c-28 0 -38 -13 -38 -33v-3c0 -20 10 -33 38 -33h7c28 0 38 13 38 33zM378 611v3c0 15 -7 26 -36 26h-7c-29 0 -36 -11 -36 -26v-3c0 -15 7 -26 36 -26h7c29 0 36 11 36 26z" />
    <glyph glyph-name="nine.numerator" unicode="&#xe127;" horiz-adv-x="642" 
d="M298 597v-3c0 -21 0 -31 21 -31c9 0 21 2 22 2v29c0 21 0 37 -22 37c-21 0 -21 -17 -21 -34zM30 587v5c0 102 71 170 288 170c294 0 294 -140 294 -233v-5c0 -106 -1 -240 -281 -240c-115 0 -219 17 -266 28v129h140l4 -16c27 -1 55 -2 79 -2c43 0 53 0 53 25v5
c-15 -3 -46 -4 -55 -4c-167 0 -256 23 -256 138z" />
    <glyph glyph-name="parenleft.numerator" unicode="&#xe12b;" horiz-adv-x="353" 
d="M323 269h-211c-51 57 -82 157 -82 251v3c0 94 31 194 82 251h211c-36 -52 -74 -156 -74 -251v-3c0 -95 38 -199 74 -251z" />
    <glyph glyph-name="parenright.numerator" unicode="&#xe12c;" horiz-adv-x="353" 
d="M323 520c0 -94 -31 -194 -82 -251h-211c36 52 74 156 74 251v3c0 95 -38 199 -74 251h211c51 -57 82 -157 82 -251v-3z" />
    <glyph glyph-name="cent.numerator" unicode="&#xe12d;" horiz-adv-x="549" 
d="M519 315c-26 -8 -60 -14 -103 -16v-99h-235v116c-100 36 -151 113 -151 214v11c0 100 51 178 151 214v119h235v-102c45 -5 83 -14 103 -16v-187h-101l-4 30h-9c-59 0 -70 -5 -70 -58v-11c0 -53 11 -56 70 -56c34 0 87 1 114 4v-163z" />
    <glyph glyph-name="comma.numerator" unicode="&#xe130;" horiz-adv-x="321" 
d="M291 434l-90 -205h-171l60 205h201z" />
    <glyph glyph-name="dollar.numerator" unicode="&#xe131;" horiz-adv-x="608" 
d="M578 460c0 -90 -60 -145 -147 -159v-101h-235v97c-55 2 -107 6 -154 10v145h101l6 -24c40 -1 78 -1 127 -1c37 0 50 3 50 15c0 13 -12 16 -66 20l-38 3c-108 9 -192 48 -192 152c0 95 62 135 166 151v106h235v-105c51 -3 97 -10 131 -14v-137h-101l-6 21
c-45 2 -88 2 -131 2c-32 0 -52 0 -52 -14s19 -15 73 -18l37 -2c147 -8 196 -65 196 -147z" />
    <glyph glyph-name="hyphen.numerator" unicode="&#xe132;" horiz-adv-x="261" 
d="M231 466h-201v155h201v-155z" />
    <glyph glyph-name="period.numerator" unicode="&#xe133;" horiz-adv-x="297" 
d="M267 319h-237v115h237v-115z" />
    <glyph glyph-name="guillemotleft.cap" unicode="&#xe134;" horiz-adv-x="1220" 
d="M1190 123h-400l-168 245l168 245h400l-156 -245zM597 123l-155 245l155 245h-399l-168 -245l168 -245h399z" />
    <glyph glyph-name="guillemotright.cap" unicode="&#xe135;" horiz-adv-x="1220" 
d="M1190 368l-168 -245h-400l156 245l-156 245h400zM597 368l-167 245h-400l156 -245l-156 -245h400z" />
    <glyph glyph-name="guilsinglleft.cap" unicode="&#xe136;" horiz-adv-x="617" 
d="M587 123h-399l-158 245l158 245h399l-145 -245z" />
    <glyph glyph-name="guilsinglright.cap" unicode="&#xe137;" horiz-adv-x="617" 
d="M587 368l-157 -245h-400l146 245l-146 245h400z" />
    <glyph glyph-name="at.cap" unicode="&#xe138;" horiz-adv-x="1282" 
d="M1252 439c0 -181 -129 -316 -569 -316c-238 0 -388 14 -388 178c0 22 1 43 5 62c29 161 167 231 368 231c121 0 213 -13 297 -26l-44 -284c100 4 147 58 147 155c0 176 -184 221 -398 221c-203 0 -366 -55 -426 -192c-20 -46 -30 -100 -30 -162c0 -232 179 -248 398 -248
c88 0 219 5 281 8v-76c-59 -8 -198 -16 -281 -16c-363 0 -582 78 -582 332c0 74 13 139 39 195c91 193 342 265 601 265c320 0 582 -90 582 -327zM662 441c-8 2 -17 3 -23 3c-43 0 -59 -9 -70 -74c-6 -38 -7 -60 -7 -74c0 -22 9 -33 40 -33h32z" />
    <glyph glyph-name="braceleft.cap" unicode="&#xe139;" horiz-adv-x="595" 
d="M565 0h-72c-319 0 -412 33 -412 242v12c0 41 -24 52 -51 60v116c27 8 51 19 51 60v10c0 210 93 243 412 243h72v-193h-74c-56 0 -68 0 -68 -50v-10c0 -72 -15 -94 -63 -119c49 -23 63 -46 63 -117v-12c0 -49 12 -49 68 -49h74v-193z" />
    <glyph glyph-name="braceright.cap" unicode="&#xe13a;" horiz-adv-x="595" 
d="M565 314c-27 -8 -51 -19 -51 -60v-12c0 -209 -93 -242 -412 -242h-72v193h74c56 0 68 0 68 49v12c0 71 14 94 63 117c-48 25 -63 47 -63 119v10c0 50 -12 50 -68 50h-74v193h72c319 0 412 -33 412 -243v-10c0 -41 24 -52 51 -60v-116z" />
    <glyph glyph-name="bracketleft.cap" unicode="&#xe13b;" horiz-adv-x="545" 
d="M515 0h-485v743h485v-193h-143v-357h143v-193z" />
    <glyph glyph-name="bracketright.cap" unicode="&#xe13c;" horiz-adv-x="545" 
d="M515 0h-485v193h141v357h-141v193h485v-743z" />
    <glyph glyph-name="emdash.cap" unicode="&#xe13d;" horiz-adv-x="616" 
d="M586 282h-556v181h556v-181z" />
    <glyph glyph-name="endash.cap" unicode="&#xe13e;" horiz-adv-x="430" 
d="M400 282h-370v181h370v-181z" />
    <glyph glyph-name="hyphen.cap" unicode="&#xe13f;" horiz-adv-x="366" 
d="M336 282h-306v181h306v-181z" />
    <glyph glyph-name="parenleft.cap" unicode="&#xe140;" horiz-adv-x="503" 
d="M473 0h-297c-60 64 -136 197 -136 370v3c0 173 76 306 136 370h297c-60 -101 -102 -233 -102 -370v-3c0 -137 30 -249 102 -370z" />
    <glyph glyph-name="parenright.cap" unicode="&#xe141;" horiz-adv-x="503" 
d="M473 370c0 -173 -76 -306 -136 -370h-297c72 121 102 233 102 370v3c0 137 -42 269 -102 370h297c60 -64 136 -197 136 -370v-3z" />
    <glyph glyph-name="exclamdown.cap" unicode="&#xe142;" horiz-adv-x="491" 
d="M461 -50h-431l31 527h366zM443 743v-213h-399v213h399z" />
    <glyph glyph-name="questiondown.cap" unicode="&#xe143;" horiz-adv-x="828" 
d="M798 -19c-65 -21 -194 -43 -372 -43c-271 0 -396 65 -396 191v7c0 98 48 153 169 222c151 86 152 78 152 117v4h335v-4c0 -86 -1 -133 -57 -191c-61 -62 -72 -65 -72 -81v-2c0 -18 19 -22 46 -22c5 0 8 0 16 1l6 34h173v-233zM729 743v-216h-421v216h421z" />
    <glyph glyph-name="periodcentered.cap" unicode="&#xe22b;" horiz-adv-x="382" 
d="M342 273h-302v217h302v-217z" />
    <glyph glyph-name="Q.alt" unicode="&#xe23c;" horiz-adv-x="1109" 
d="M751 -198h-408v193c-176 41 -313 146 -313 365v22c0 296 259 389 524 389s525 -93 525 -389v-22c0 -223 -145 -329 -328 -368v-190zM554 230c62 0 82 29 82 128v27c0 99 -18 129 -82 129c-65 0 -82 -30 -82 -129v-27c0 -99 20 -128 82 -128z" />
    <glyph glyph-name="a.alt" unicode="&#xe245;" horiz-adv-x="1031" 
d="M1001 0h-423v37c-66 -37 -128 -57 -234 -57c-159 0 -314 66 -314 314v13c0 239 112 319 518 319c135 0 270 -7 415 -20v-368l38 -5v-233zM546 211v181c-8 1 -27 2 -47 2c-52 0 -58 -23 -58 -87v-13c0 -65 7 -85 61 -85c17 0 35 2 44 2z" />
    <glyph glyph-name="e.alt" unicode="&#xe249;" horiz-adv-x="971" 
d="M940 236h-504v-9c0 -19 6 -38 94 -38c30 0 74 0 121 1l7 29h227v-188c-91 -27 -261 -52 -405 -52c-311 0 -450 91 -450 323v3c0 240 176 321 463 321c447 0 447 -284 447 -349v-41zM547 363v7c0 32 -19 46 -58 46c-34 0 -53 -18 -53 -46v-7h111z" />
    <glyph glyph-name="g.alt" unicode="&#xe24b;" horiz-adv-x="1016" 
d="M75 -172v172c90 -7 268 -17 361 -17c101 0 113 10 113 42v8c-21 -3 -62 -7 -93 -7c-280 0 -426 94 -426 295v6c0 232 193 299 483 299c194 0 364 -8 483 -20v-229l-36 -6v-346c0 -153 -117 -231 -476 -231c-223 0 -382 29 -409 34zM543 260v131c-13 1 -20 2 -43 2
c-52 0 -62 -19 -62 -69v-3c0 -33 10 -63 62 -63c22 0 33 1 43 2z" />
    <glyph glyph-name="s.alt" unicode="&#xe257;" horiz-adv-x="826" 
d="M801 206c0 -199 -198 -226 -440 -226c-122 0 -239 12 -308 20v167c67 -1 236 -6 304 -6c32 0 45 0 45 12c0 11 -11 14 -49 18l-54 7c-167 22 -274 57 -274 206c0 202 186 222 388 222c141 0 278 -12 355 -22v-176h-236l-10 22c-23 1 -43 1 -64 1c-31 0 -45 -1 -45 -13
c0 -14 15 -16 53 -20l76 -7c193 -18 259 -75 259 -205z" />
    <glyph glyph-name="u.alt" unicode="&#xe259;" horiz-adv-x="1043" 
d="M1003 309c0 -232 -187 -330 -470 -330c-279 0 -467 98 -467 330v59l-36 9v229h451v-297c0 -81 22 -100 52 -100c29 0 55 19 55 100v59l-36 9v229h451v-297z" />
    <glyph glyph-name="scaron.alt" unicode="&#xe265;" horiz-adv-x="826" 
d="M801 206c0 -199 -198 -226 -440 -226c-122 0 -239 12 -308 20v167c67 -1 236 -6 304 -6c32 0 45 0 45 12c0 11 -11 14 -49 18l-54 7c-167 22 -274 57 -274 206c0 202 186 222 388 222c141 0 278 -12 355 -22v-176h-236l-10 22c-23 1 -43 1 -64 1c-31 0 -45 -1 -45 -13
c0 -14 15 -16 53 -20l76 -7c193 -18 259 -75 259 -205zM841 793l-190 -142h-483l-193 142h354l80 -51l79 51h353z" />
    <glyph glyph-name="aacute.alt" unicode="&#xe281;" horiz-adv-x="1031" 
d="M1001 0h-423v37c-66 -37 -128 -57 -234 -57c-159 0 -314 66 -314 314v13c0 239 112 319 518 319c135 0 270 -7 415 -20v-368l38 -5v-233zM546 211v181c-8 1 -27 2 -47 2c-52 0 -58 -23 -58 -87v-13c0 -65 7 -85 61 -85c17 0 35 2 44 2zM990 793l-285 -142h-391l193 142
h483z" />
    <glyph glyph-name="agrave.alt" unicode="&#xe282;" horiz-adv-x="1031" 
d="M1001 0h-423v37c-66 -37 -128 -57 -234 -57c-159 0 -314 66 -314 314v13c0 239 112 319 518 319c135 0 270 -7 415 -20v-368l38 -5v-233zM546 211v181c-8 1 -27 2 -47 2c-52 0 -58 -23 -58 -87v-13c0 -65 7 -85 61 -85c17 0 35 2 44 2zM714 651h-391l-285 142h484z" />
    <glyph glyph-name="acircumflex.alt" unicode="&#xe283;" horiz-adv-x="1031" 
d="M1001 0h-423v37c-66 -37 -128 -57 -234 -57c-159 0 -314 66 -314 314v13c0 239 112 319 518 319c135 0 270 -7 415 -20v-368l38 -5v-233zM546 211v181c-8 1 -27 2 -47 2c-52 0 -58 -23 -58 -87v-13c0 -65 7 -85 61 -85c17 0 35 2 44 2zM901 651h-353l-79 52l-80 -52h-354
l193 142h483z" />
    <glyph glyph-name="adieresis.alt" unicode="&#xe284;" horiz-adv-x="1031" 
d="M1001 0h-423v37c-66 -37 -128 -57 -234 -57c-159 0 -314 66 -314 314v13c0 239 112 319 518 319c135 0 270 -7 415 -20v-368l38 -5v-233zM546 211v181c-8 1 -27 2 -47 2c-52 0 -58 -23 -58 -87v-13c0 -65 7 -85 61 -85c17 0 35 2 44 2zM820 653h-315v140h315v-140z
M428 653v140h-315v-140h315z" />
    <glyph glyph-name="atilde.alt" unicode="&#xe285;" horiz-adv-x="1031" 
d="M1001 0h-423v37c-66 -37 -128 -57 -234 -57c-159 0 -314 66 -314 314v13c0 239 112 319 518 319c135 0 270 -7 415 -20v-368l38 -5v-233zM546 211v181c-8 1 -27 2 -47 2c-52 0 -58 -23 -58 -87v-13c0 -65 7 -85 61 -85c17 0 35 2 44 2zM840 821
c0 -172 -127 -179 -182 -179c-19 0 -67 1 -152 22l-88 22c-41 10 -69 16 -81 16c-27 0 -38 -10 -38 -42v-15h-166v15c0 173 125 179 195 179c28 0 55 -2 135 -21l88 -21c42 -10 65 -17 90 -17c24 0 33 9 33 41v14h166v-14z" />
    <glyph glyph-name="aring.alt" unicode="&#xe286;" horiz-adv-x="1031" 
d="M757 777c0 -95 -91 -147 -228 -147c-139 0 -231 52 -231 147s92 148 231 148c138 0 228 -53 228 -148zM593 778c0 25 -27 35 -64 35c-39 0 -66 -10 -66 -35c0 -24 27 -34 66 -34c37 0 64 10 64 34zM1001 0h-423v37c-66 -37 -128 -57 -234 -57c-159 0 -314 66 -314 314v13
c0 239 112 319 518 319c135 0 270 -7 415 -20v-368l38 -5v-233zM546 211v181c-8 1 -27 2 -47 2c-52 0 -58 -23 -58 -87v-13c0 -65 7 -85 61 -85c17 0 35 2 44 2z" />
    <glyph glyph-name="eacute.alt" unicode="&#xe288;" horiz-adv-x="971" 
d="M970 793l-285 -142h-391l193 142h483zM940 236h-504v-9c0 -19 6 -38 94 -38c30 0 74 0 121 1l7 29h227v-188c-91 -27 -261 -52 -405 -52c-311 0 -450 91 -450 323v3c0 240 176 321 463 321c447 0 447 -284 447 -349v-41zM547 363v7c0 32 -19 46 -58 46
c-34 0 -53 -18 -53 -46v-7h111z" />
    <glyph glyph-name="egrave.alt" unicode="&#xe289;" horiz-adv-x="971" 
d="M940 236h-504v-9c0 -19 6 -38 94 -38c30 0 74 0 121 1l7 29h227v-188c-91 -27 -261 -52 -405 -52c-311 0 -450 91 -450 323v3c0 240 176 321 463 321c447 0 447 -284 447 -349v-41zM547 363v7c0 32 -19 46 -58 46c-34 0 -53 -18 -53 -46v-7h111zM723 651h-391l-285 142
h484z" />
    <glyph glyph-name="ecircumflex.alt" unicode="&#xe28a;" horiz-adv-x="971" 
d="M940 236h-504v-9c0 -19 6 -38 94 -38c30 0 74 0 121 1l7 29h227v-188c-91 -27 -261 -52 -405 -52c-311 0 -450 91 -450 323v3c0 240 176 321 463 321c447 0 447 -284 447 -349v-41zM547 363v7c0 32 -19 46 -58 46c-34 0 -53 -18 -53 -46v-7h111zM928 651h-353l-79 52
l-80 -52h-354l193 142h483z" />
    <glyph glyph-name="edieresis.alt" unicode="&#xe28b;" horiz-adv-x="971" 
d="M940 236h-504v-9c0 -19 6 -38 94 -38c30 0 74 0 121 1l7 29h227v-188c-91 -27 -261 -52 -405 -52c-311 0 -450 91 -450 323v3c0 240 176 321 463 321c447 0 447 -284 447 -349v-41zM547 363v7c0 32 -19 46 -58 46c-34 0 -53 -18 -53 -46v-7h111zM826 653h-315v140h315
v-140zM434 653v140h-315v-140h315z" />
    <glyph glyph-name="uacute.alt" unicode="&#xe296;" horiz-adv-x="1043" 
d="M947 803l-285 -142h-391l193 142h483zM1003 309c0 -232 -187 -330 -470 -330c-279 0 -467 98 -467 330v59l-36 9v229h451v-297c0 -81 22 -100 52 -100c29 0 55 19 55 100v59l-36 9v229h451v-297z" />
    <glyph glyph-name="ugrave.alt" unicode="&#xe297;" horiz-adv-x="1043" 
d="M777 651h-391l-285 142h484zM1003 309c0 -232 -187 -330 -470 -330c-279 0 -467 98 -467 330v59l-36 9v229h451v-297c0 -81 22 -100 52 -100c29 0 55 19 55 100v59l-36 9v229h451v-297z" />
    <glyph glyph-name="ucircumflex.alt" unicode="&#xe298;" horiz-adv-x="1043" 
d="M1003 309c0 -232 -187 -330 -470 -330c-279 0 -467 98 -467 330v59l-36 9v229h451v-297c0 -81 22 -100 52 -100c29 0 55 19 55 100v59l-36 9v229h451v-297zM957 661h-353l-79 52l-80 -52h-354l193 142h483z" />
    <glyph glyph-name="udieresis.alt" unicode="&#xe299;" horiz-adv-x="1043" 
d="M1003 309c0 -232 -187 -330 -470 -330c-279 0 -467 98 -467 330v59l-36 9v229h451v-297c0 -81 22 -100 52 -100c29 0 55 19 55 100v59l-36 9v229h451v-297zM872 661h-315v140h315v-140zM480 661v140h-315v-140h315z" />
    <glyph glyph-name="dollar.taboldstyle" unicode="&#xe42f;" horiz-adv-x="947" 
d="M917 240c0 -174 -118 -239 -274 -259v-90h-310v85c-103 3 -199 10 -274 21v226h218l10 -33h141c59 0 67 4 67 16c0 13 -8 14 -96 21l-58 5c-169 14 -311 42 -311 238c0 179 124 237 303 254v89h310v-87c91 -6 175 -17 237 -26v-213h-220l-11 35h-144
c-52 0 -63 -2 -63 -15s16 -17 97 -25l63 -6c229 -24 315 -79 315 -236z" />
    <glyph glyph-name="Euro.taboldstyle" unicode="&#xe430;" horiz-adv-x="943" 
d="M913 1c-55 -16 -245 -28 -305 -28c-331 0 -480 92 -511 278h-67v78h60v43h-60v77h66c30 188 179 282 512 282c60 0 190 -4 305 -22v-226h-183l-10 26h-28c-76 0 -119 -6 -139 -60h321l-10 -77h-327v-43h322l-10 -78h-297c11 -37 35 -55 112 -55c83 0 133 0 249 2v-197z
" />
    <glyph glyph-name="franc.taboldstyle" unicode="&#xe431;" horiz-adv-x="978" 
d="M948 264h-389v-55h188v-105h-188v-104h-466v104h-63v105h63v295l-43 5v234h898v-248h-230l-9 19h-150v-40h389v-210z" />
    <glyph glyph-name="sterling.taboldstyle" unicode="&#xe432;" horiz-adv-x="865" 
d="M835 0h-765v173c39 26 51 44 51 82v20h-91v170h91v23c0 192 141 263 387 263c112 0 215 -7 327 -21v-223h-184l-9 29h-26c-82 0 -92 -2 -92 -49v-22h179v-170h-179v-20c0 -19 -1 -24 -7 -41h318v-214z" />
    <glyph glyph-name="yen.taboldstyle" unicode="&#xe433;" horiz-adv-x="1164" 
d="M1125 134h-340v-134h-407v134h-329v137h292l-57 80h-235v136h139l-42 50l-109 12v161h429l68 -118c18 -31 33 -64 48 -95h1c15 32 31 64 48 95l65 118h435v-161l-109 -12l-42 -50h145v-136h-244l-59 -80h303v-137z" />
    <glyph glyph-name="lira.taboldstyle" unicode="&#xe434;" horiz-adv-x="866" 
d="M836 0h-766v173c39 26 51 44 51 80v5h-91v78h91v43h-91v77h91v10c0 192 140 263 388 263c112 0 215 -4 327 -18v-223h-154l-8 26h-27c-107 0 -122 -2 -122 -48v-10h179v-77h-179v-43h179v-78h-179v-6c0 -16 -1 -25 -7 -38h318v-214z" />
    <glyph glyph-name="florin.taboldstyle" unicode="&#xe435;" horiz-adv-x="822" 
d="M792 711l-20 -149h-80c-30 0 -41 -3 -44 -23l-12 -78h117l-31 -191h-117l-45 -278c-23 -142 -143 -184 -292 -184c-112 0 -184 11 -238 20l27 149h71c32 0 42 3 45 23l42 270h-95l30 191h97l14 86c24 141 142 184 293 184c111 0 184 -11 238 -20z" />
    <glyph glyph-name="numbersign.taboldstyle" unicode="&#xe436;" horiz-adv-x="1019" 
d="M989 132h-145l-22 -132h-316l23 132h-109l-23 -132h-315l22 132h-74v161h100l16 96h-116v161h143l27 160h317l-28 -160h108l28 160h315l-26 -160h75v-161h-101l-16 -96h117v-161zM571 389h-108l-17 -96h109z" />
    <glyph glyph-name="colonmonetary.taboldstyle" unicode="&#xe437;" horiz-adv-x="883" 
d="M853 1c-28 -8 -90 -15 -153 -20v-90h-130v82h-22c-29 0 -57 1 -83 2v-84h-130v99c-218 41 -305 155 -305 343v38c0 188 87 302 305 343v99h130v-84c26 1 54 2 83 2h22v82h130v-89c61 -4 114 -13 153 -21v-256h-228l-8 39h-13c-85 0 -127 -14 -127 -115v-38
c0 -103 42 -115 127 -115h249v-217z" />
    <glyph glyph-name="currency.taboldstyle" unicode="&#xe438;" horiz-adv-x="765" 
d="M734 132l-106 -96l-98 88c-44 -21 -93 -33 -143 -33c-51 0 -100 12 -145 35l-105 -94l-106 95l104 94c-24 40 -37 85 -37 131c0 45 13 90 37 129l-105 95l106 95l105 -95c45 24 96 37 146 37s99 -12 144 -36l98 90l106 -97l-99 -88c26 -40 41 -85 41 -131
c0 -45 -15 -91 -41 -131zM512 352c0 67 -56 117 -126 117s-127 -51 -127 -117c0 -67 60 -116 127 -116c65 0 126 50 126 116z" />
    <glyph glyph-name="peseta.taboldstyle" unicode="&#xe439;" horiz-adv-x="1160" 
d="M1130 366h-63c-54 -155 -266 -187 -481 -187c-30 0 -37 1 -85 3v-182h-453v228l46 4v134h-64v170h64v43l-45 10v119c115 11 317 23 476 23c275 0 496 -33 545 -195h60v-170zM669 452v14c0 30 -30 33 -97 33c-28 0 -61 -2 -71 -3v-77c16 -1 43 -2 70 -2c64 0 98 0 98 35z
" />
    <glyph glyph-name="percent.oldstyle" unicode="&#xe43a;" horiz-adv-x="1375" 
d="M1345 182c0 -150 -96 -193 -249 -193s-248 43 -248 193v5c0 151 95 194 248 194s249 -43 249 -194v-5zM1118 182v6c0 64 -3 73 -22 73c-17 0 -21 -9 -21 -73v-6c0 -63 4 -73 21 -73c19 0 22 10 22 73zM1131 632l-646 -632h-252l645 632h253zM527 448
c0 -150 -96 -193 -248 -193c-154 0 -249 43 -249 193v5c0 150 95 193 249 193c152 0 248 -43 248 -193v-5zM300 447v7c0 64 -3 73 -21 73s-22 -9 -22 -73v-7c0 -62 4 -72 22 -72s21 10 21 72z" />
    <glyph glyph-name="perthousand.oldstyle" unicode="&#xe43b;" horiz-adv-x="1906" 
d="M1876 182c0 -150 -97 -193 -249 -193c-153 0 -249 43 -249 193v5c0 151 96 194 249 194c152 0 249 -43 249 -194v-5zM1648 182v6c0 64 -3 73 -21 73c-17 0 -22 -9 -22 -73v-6c0 -63 5 -73 22 -73c18 0 21 10 21 73zM1345 182c0 -150 -96 -193 -249 -193s-248 43 -248 193
v5c0 151 95 194 248 194s249 -43 249 -194v-5zM1118 182v6c0 64 -3 73 -22 73c-17 0 -21 -9 -21 -73v-6c0 -63 4 -73 21 -73c19 0 22 10 22 73zM1131 632l-646 -632h-252l645 632h253zM527 448c0 -150 -96 -193 -248 -193c-154 0 -249 43 -249 193v5c0 150 95 193 249 193
c152 0 248 -43 248 -193v-5zM300 447v7c0 64 -3 73 -21 73s-22 -9 -22 -73v-7c0 -62 4 -72 22 -72s21 10 21 72z" />
    <glyph glyph-name="ampersand.alt" unicode="&#xe43d;" horiz-adv-x="1259" 
d="M1229 0h-348l-37 23c-43 -19 -154 -46 -324 -46c-292 0 -490 36 -490 248v6c0 114 83 165 186 186l-12 7c-79 44 -107 95 -107 142v5c0 148 129 200 463 200s466 -52 466 -200v-5c0 -85 -60 -164 -258 -200l107 -62c4 17 4 29 4 46v6h303v-6c0 -82 -21 -134 -70 -186
l117 -68v-96zM631 159l-154 104c-12 -8 -18 -23 -18 -38v-3c0 -43 43 -67 107 -67c28 0 51 2 65 4zM593 517v2c0 16 -13 21 -31 21c-22 0 -32 -6 -32 -20v-2c0 -13 6 -20 34 -34l10 -5c15 15 19 26 19 38z" />
    <glyph glyph-name="a.alt2" unicode="&#xe43e;" horiz-adv-x="952" 
d="M922 0h-409v49c-67 -42 -175 -70 -265 -70c-104 0 -218 35 -218 179v15c0 178 187 189 431 189h10v8c0 28 -12 29 -97 29c-72 0 -158 -4 -267 -11v185c95 25 234 53 379 53c219 0 400 -51 400 -256v-132l36 -5v-233zM490 177v49h-29c-23 0 -48 -1 -48 -25v-7
c0 -22 14 -28 29 -28c21 0 38 6 48 11z" />
    <glyph glyph-name="amacron.alt" unicode="&#xe440;" horiz-adv-x="1031" 
d="M1001 0h-423v37c-66 -37 -128 -57 -234 -57c-159 0 -314 66 -314 314v13c0 239 112 319 518 319c135 0 270 -7 415 -20v-368l38 -5v-233zM546 211v181c-8 1 -27 2 -47 2c-52 0 -58 -23 -58 -87v-13c0 -65 7 -85 61 -85c17 0 35 2 44 2zM848 646h-715v142h715v-142z" />
    <glyph glyph-name="abreve.alt" unicode="&#xe441;" horiz-adv-x="1031" 
d="M1001 0h-423v37c-66 -37 -128 -57 -234 -57c-159 0 -314 66 -314 314v13c0 239 112 319 518 319c135 0 270 -7 415 -20v-368l38 -5v-233zM546 211v181c-8 1 -27 2 -47 2c-52 0 -58 -23 -58 -87v-13c0 -65 7 -85 61 -85c17 0 35 2 44 2zM820 841
c-17 -194 -289 -195 -339 -195s-322 1 -341 195h169c11 -66 111 -72 172 -72s161 6 172 72h167z" />
    <glyph glyph-name="aringacute.alt" unicode="&#xe442;" horiz-adv-x="1031" 
d="M769 794c0 -95 -91 -147 -228 -147c-139 0 -231 52 -231 147s92 148 231 148c138 0 228 -53 228 -148zM605 795c0 25 -27 35 -64 35c-39 0 -66 -10 -66 -35c0 -24 27 -34 66 -34c37 0 64 10 64 34zM1001 0h-423v37c-66 -37 -128 -57 -234 -57c-159 0 -314 66 -314 314v13
c0 239 112 319 518 319c135 0 270 -7 415 -20v-368l38 -5v-233zM546 211v181c-8 1 -27 2 -47 2c-52 0 -58 -23 -58 -87v-13c0 -65 7 -85 61 -85c17 0 35 2 44 2zM1041 1101l-285 -142h-391l193 142h483z" />
    <glyph glyph-name="aogonek.alt" unicode="&#xe443;" horiz-adv-x="1031" 
d="M1001 -209c-36 -5 -155 -27 -288 -27c-149 0 -228 32 -228 107c0 50 30 95 138 129h-45v37c-66 -37 -128 -57 -234 -57c-159 0 -314 66 -314 314v13c0 239 112 319 518 319c135 0 270 -7 415 -20v-368l38 -5v-233c-138 -18 -170 -39 -170 -55c0 -23 20 -25 46 -25
c48 0 89 5 124 7v-136zM546 211v181c-8 1 -27 2 -47 2c-52 0 -58 -23 -58 -87v-13c0 -65 7 -85 61 -85c17 0 35 2 44 2z" />
    <glyph glyph-name="ecaron.alt" unicode="&#xe444;" horiz-adv-x="971" 
d="M938 793l-190 -142h-483l-193 142h354l80 -51l79 51h353zM940 236h-504v-9c0 -19 6 -38 94 -38c30 0 74 0 121 1l7 29h227v-188c-91 -27 -261 -52 -405 -52c-311 0 -450 91 -450 323v3c0 240 176 321 463 321c447 0 447 -284 447 -349v-41zM547 363v7c0 32 -19 46 -58 46
c-34 0 -53 -18 -53 -46v-7h111z" />
    <glyph glyph-name="emacron.alt" unicode="&#xe445;" horiz-adv-x="971" 
d="M940 236h-504v-9c0 -19 6 -38 94 -38c30 0 74 0 121 1l7 29h227v-188c-91 -27 -261 -52 -405 -52c-311 0 -450 91 -450 323v3c0 240 176 321 463 321c447 0 447 -284 447 -349v-41zM547 363v7c0 32 -19 46 -58 46c-34 0 -53 -18 -53 -46v-7h111zM855 646h-715v142h715
v-142z" />
    <glyph glyph-name="ebreve.alt" unicode="&#xe446;" horiz-adv-x="971" 
d="M843 841c-17 -194 -289 -195 -339 -195s-322 1 -341 195h169c11 -66 111 -72 172 -72s161 6 172 72h167zM940 236h-504v-9c0 -19 6 -38 94 -38c30 0 74 0 121 1l7 29h227v-188c-91 -27 -261 -52 -405 -52c-311 0 -450 91 -450 323v3c0 240 176 321 463 321
c447 0 447 -284 447 -349v-41zM547 363v7c0 32 -19 46 -58 46c-34 0 -53 -18 -53 -46v-7h111z" />
    <glyph glyph-name="edotaccent.alt" unicode="&#xe448;" horiz-adv-x="971" 
d="M940 236h-504v-9c0 -19 6 -38 94 -38c30 0 74 0 121 1l7 29h227v-188c-91 -27 -261 -52 -405 -52c-311 0 -450 91 -450 323v3c0 240 176 321 463 321c447 0 447 -284 447 -349v-41zM547 363v7c0 32 -19 46 -58 46c-34 0 -53 -18 -53 -46v-7h111zM720 655h-437v142h437
v-142z" />
    </font>
</defs>
</svg>
