<?xml version="1.0" standalone="no"?>
<!DOCTYPE svg PUBLIC "-//W3C//DTD SVG 1.1//EN" "http://www.w3.org/Graphics/SVG/1.1/DTD/svg11.dtd" >
<svg xmlns="http://www.w3.org/2000/svg" xmlns:xlink="http://www.w3.org/1999/xlink" version="1.1">
<metadata>
Created by FontForge 20141024 at Thu Apr 30 19:22:40 2015
 By System Administrator
Copyright (c) 2007 Monotype Imaging Inc. Soho is designed by Sebastian Lester. All rights reserved.
</metadata>
<defs>
<font id="SohoPro-ExtraBoldItalic" horiz-adv-x="686" >
  <font-face 
    font-family="Soho Pro"
    font-weight="800"
    font-style="italic"
    font-stretch="normal"
    units-per-em="1000"
    panose-1="2 4 8 3 5 5 6 9 2 4"
    ascent="782"
    descent="-218"
    x-height="579"
    cap-height="743"
    bbox="-54 -218 1674 1103"
    underline-thickness="52"
    underline-position="-49"
    slope="-12"
    stemh="141"
    stemv="229"
    unicode-range="U+000D-FB30"
  />
<missing-glyph horiz-adv-x="207" 
 />
    <glyph glyph-name="f_f" unicode="ff" horiz-adv-x="897" 
d="M939 434h-121l-50 -282l41 -5l-25 -147h-299l25 147l42 5l50 282h-187l-50 -282l41 -5l-25 -147h-300l25 147l43 5l50 282l-89 10l24 135h91l6 39c20 129 95 180 221 180c56 0 113 -8 146 -17l-20 -115c-32 1 -55 2 -74 2c-43 0 -50 -13 -57 -53l-6 -36h187l6 39
c20 129 95 180 221 180c56 0 112 -8 146 -17l-20 -115c-32 1 -55 2 -74 2c-43 0 -50 -13 -57 -53l-6 -36h121z" />
    <glyph glyph-name="f_i" unicode="fi" horiz-adv-x="827" 
d="M784 0h-300l25 147l42 5l50 282h-185l-50 -282l40 -5l-25 -147h-299l25 147l42 5l50 282l-88 10l24 135h90l6 39c20 130 95 180 221 180c56 0 113 -8 147 -17l-20 -115c-32 1 -55 2 -75 2c-42 0 -49 -13 -56 -53l-6 -36h402l-76 -427l41 -5zM861 647h-226l23 135h226z
" />
    <glyph glyph-name="f_l" unicode="fl" horiz-adv-x="803" 
d="M785 0h-299l25 147l42 5l91 513c-35 1 -86 3 -127 3c-45 0 -62 -6 -70 -53l-6 -36h121l-26 -145h-121l-50 -282l41 -5l-25 -147h-299l25 147l42 5l50 282l-89 10l24 135h91l6 36c25 148 107 183 241 183c61 0 154 -11 192 -16h217l-111 -630l40 -5z" />
    <glyph glyph-name="f_f_i" unicode="ffi" horiz-adv-x="1228" 
d="M1184 0h-299l25 147l42 5l50 282h-185l-50 -282l40 -5l-25 -147h-299l25 147l43 5l50 282h-186l-50 -282l41 -5l-25 -147h-300l25 147l43 5l50 282l-89 10l24 135h91l6 39c20 130 95 180 221 180c56 0 113 -8 146 -17l-20 -115c-32 1 -55 2 -74 2c-43 0 -50 -13 -57 -53
l-6 -36h186l6 39c20 130 94 180 220 180c56 0 113 -8 147 -17l-20 -115c-32 1 -55 2 -74 2c-43 0 -50 -13 -57 -53l-6 -36h402l-76 -427l40 -5zM1261 647h-226l23 135h226z" />
    <glyph glyph-name="f_f_l" unicode="ffl" horiz-adv-x="1204" 
d="M1187 0h-300l25 147l43 5l91 513c-35 1 -85 3 -127 3c-46 0 -62 -6 -70 -53l-6 -36h122l-26 -145h-122l-50 -282l41 -5l-25 -147h-300l25 147l43 5l50 282h-185l-50 -282l40 -5l-25 -147h-299l25 147l42 5l50 282l-88 10l24 135h90l6 39c20 130 95 180 221 180
c56 0 113 -8 147 -17l-20 -115c-33 1 -56 2 -75 2c-42 0 -49 -13 -56 -53l-6 -36h185l6 36c26 148 107 183 241 183c61 0 153 -11 192 -16h216l-111 -630l41 -5z" />
    <glyph glyph-name="f_b" unicode="fb" horiz-adv-x="1153" 
d="M661 782h216l-35 -201c27 9 64 14 103 14c153 0 225 -73 225 -206c0 -26 -3 -55 -8 -85l-11 -59c-36 -207 -153 -260 -355 -260c-86 0 -155 4 -272 17l117 663c-41 2 -81 3 -124 3c-44 0 -62 -6 -70 -52l-6 -37h121l-26 -145h-121l-50 -282l40 -5l-25 -147h-299l25 147
l43 5l50 282l-89 10l24 135h91l6 38c23 146 108 181 242 181c64 0 114 -3 188 -16zM938 265l11 59c4 23 6 41 6 56c0 44 -18 58 -67 58c-18 0 -53 -3 -75 -11l-50 -283c15 -1 37 -3 63 -3c68 0 95 24 112 124z" />
    <glyph glyph-name="f_f_b" unicode="ffb" horiz-adv-x="1557" 
d="M1065 782h216l-35 -201c27 9 64 14 103 14c153 0 225 -73 225 -206c0 -26 -3 -55 -8 -85l-11 -59c-36 -207 -153 -260 -355 -260c-86 0 -155 4 -272 17l117 663c-35 2 -81 3 -125 3c-43 0 -61 -6 -69 -53l-6 -36h121l-26 -145h-121l-50 -282l40 -5l-25 -147h-299l25 147
l42 5l50 282h-186l-50 -282l40 -5l-25 -147h-299l25 147l42 5l50 282l-89 9l24 136h91l6 39c20 129 94 180 221 180c56 0 109 -8 146 -17l-20 -115c-36 1 -55 2 -73 2c-44 0 -50 -13 -57 -53l-6 -36h186l6 36c26 147 109 183 243 183c57 0 147 -9 188 -16zM1342 265l11 59
c4 23 6 41 6 56c0 44 -18 58 -67 58c-18 0 -53 -3 -75 -11l-50 -283c15 -1 37 -3 63 -3c68 0 95 24 112 124z" />
    <glyph glyph-name="f_h" unicode="fh" horiz-adv-x="1195" 
d="M879 782l-39 -225c52 24 117 37 172 37c133 0 169 -69 169 -157c0 -29 -4 -60 -10 -92l-35 -193l41 -5l-25 -147h-258l64 364c2 13 3 23 3 32c0 33 -15 43 -50 43s-73 -11 -96 -20l-47 -267l40 -5l-25 -147h-299l25 147l42 5l91 513c-36 2 -81 3 -122 3
c-46 0 -64 -6 -72 -53l-6 -36h121l-26 -145h-121l-50 -282l40 -5l-25 -147h-299l25 147l42 5l50 282l-88 10l24 135h90l6 36c26 148 110 183 245 183c64 0 145 -10 186 -16h217z" />
    <glyph glyph-name="f_f_h" unicode="ffh" horiz-adv-x="1598" 
d="M1281 782l-39 -226c52 24 118 38 173 38c133 0 169 -69 169 -157c0 -29 -4 -60 -10 -92l-35 -193l41 -5l-25 -147h-258l64 364c2 13 3 23 3 32c0 33 -15 43 -50 43s-73 -11 -97 -20l-47 -267l41 -5l-25 -147h-300l25 147l42 5l91 513c-35 2 -81 3 -122 3
c-45 0 -64 -6 -72 -53l-6 -36h121l-26 -145h-121l-50 -282l40 -5l-25 -147h-299l25 147l42 5l50 282h-185l-50 -282l40 -5l-25 -147h-299l25 147l42 5l50 282l-88 10l24 135h90l6 39c20 129 94 180 221 180c56 0 113 -8 147 -17l-20 -115c-33 1 -56 2 -75 2
c-42 0 -49 -13 -56 -53l-6 -36h185l6 36c26 148 110 183 245 183c57 0 145 -10 186 -16h217z" />
    <glyph glyph-name="f_j" unicode="fj" horiz-adv-x="806" 
d="M743 -20c-26 -147 -95 -195 -240 -195c-55 0 -97 6 -113 10l23 130c22 -1 37 -1 55 -1c41 0 51 12 59 56l80 454h-191l-50 -282l40 -5l-25 -147h-299l25 147l42 5l50 282l-88 10l24 135h90l6 39c20 129 95 180 221 180c56 0 113 -8 147 -17l-20 -115c-33 1 -56 2 -75 2
c-42 0 -49 -13 -56 -53l-6 -36h407zM866 647h-227l23 135h227z" />
    <glyph glyph-name="f_f_j" unicode="ffj" horiz-adv-x="1207" 
d="M1144 -20c-26 -147 -95 -195 -239 -195c-57 0 -97 6 -114 10l23 130c21 -1 36 -1 55 -1c41 0 50 12 58 56l80 454h-190l-50 -282l40 -5l-25 -147h-299l25 147l42 5l50 282h-185l-50 -282l40 -5l-25 -147h-299l25 147l43 5l50 282l-89 10l24 135h91l6 39
c20 129 95 180 220 180c56 0 113 -8 147 -17l-20 -115c-33 1 -56 2 -74 2c-43 0 -50 -14 -57 -53l-6 -36h185l6 39c20 129 95 180 221 180c56 0 113 -8 147 -17l-20 -115c-33 1 -56 2 -75 2c-42 0 -49 -13 -56 -53l-6 -36h407zM1267 647h-227l23 135h227z" />
    <glyph glyph-name="f_k" unicode="fk" horiz-adv-x="1146" 
d="M798 326l203 253h202l-26 -147l-64 -7l-116 -125l79 -145l53 -7l-26 -148h-209l-108 260l-45 -260h-257l25 147l42 5l91 513c-36 2 -81 3 -123 3c-45 0 -63 -6 -71 -53l-6 -36h121l-26 -145h-121l-50 -282l40 -5l-25 -147h-299l25 147l42 5l50 282l-88 10l24 135h90l6 36
c26 148 110 183 245 183c64 0 145 -10 186 -16h216z" />
    <glyph glyph-name="f_f_k" unicode="ffk" horiz-adv-x="1549" 
d="M954 152l90 513c-36 2 -81 3 -123 3c-45 0 -64 -6 -72 -53l-6 -36h121l-26 -145h-121l-50 -282l41 -5l-25 -147h-300l25 147l43 5l50 282h-185l-50 -282l40 -5l-25 -147h-299l25 147l42 5l50 282l-88 9l24 136h90l6 39c20 129 95 180 221 180c56 0 113 -8 147 -17
l-20 -115c-33 1 -56 2 -75 2c-43 0 -49 -13 -56 -53l-6 -36h185l6 36c26 148 110 183 245 183c64 0 144 -10 186 -16h217l-80 -456l203 253h202l-26 -147l-64 -7l-116 -125l79 -145l53 -7l-26 -148h-209l-108 260l-45 -260h-257l25 147z" />
    <glyph glyph-name=".notdef" horiz-adv-x="207" 
 />
    <glyph glyph-name="CR" unicode="&#xd;" horiz-adv-x="207" 
 />
    <glyph glyph-name="space" unicode=" " horiz-adv-x="207" 
 />
    <glyph glyph-name="exclam" unicode="!" horiz-adv-x="354" 
d="M288 0h-223l31 178h223zM435 782l-116 -546h-202l76 546h242z" />
    <glyph glyph-name="quotedbl" unicode="&#x22;" horiz-adv-x="553" 
d="M669 775l-134 -272h-150l100 272h184zM392 775h-184l-100 -272h151z" />
    <glyph glyph-name="numbersign" unicode="#" horiz-adv-x="794" 
d="M764 170h-125l-48 -170h-176l48 170h-121l-48 -170h-176l48 170h-78l22 122h92l42 146h-108l21 122h122l54 183h176l-54 -183h121l54 183h175l-53 -183h81l-21 -122h-95l-42 -146h111zM541 438h-121l-42 -146h121z" />
    <glyph glyph-name="dollar" unicode="$" horiz-adv-x="707" 
d="M266 -15c-65 4 -134 12 -189 22l33 190h134l1 -51c34 -1 63 -2 100 -2c65 0 112 15 112 65c0 36 -18 46 -78 76l-80 41c-87 45 -153 97 -153 208c0 141 109 198 255 221l20 109h176l-19 -107c72 -4 149 -17 179 -23l-32 -183h-135l-1 48c-34 2 -66 3 -100 3
c-55 0 -109 -5 -109 -53c0 -31 13 -44 67 -69l84 -40c102 -49 164 -98 164 -208c0 -143 -106 -224 -252 -241l-21 -121h-176z" />
    <glyph glyph-name="percent" unicode="%" horiz-adv-x="1208" 
d="M1073 747l-639 -747h-175l639 747h175zM551 498c-23 -132 -90 -206 -240 -206c-126 0 -178 69 -178 171c0 20 2 42 6 65l5 28c25 140 92 205 239 205c137 0 179 -68 179 -171c0 -20 -2 -42 -6 -64zM397 512l5 29c5 28 7 49 7 65c0 37 -13 47 -39 47
c-38 0 -55 -22 -71 -112l-5 -29c-5 -28 -8 -50 -8 -66c0 -36 13 -46 39 -46c38 0 56 21 72 112zM1193 195c-23 -132 -90 -206 -240 -206c-126 0 -178 69 -178 171c0 20 2 42 6 65l5 28c25 140 92 205 239 205c137 0 179 -68 179 -171c0 -20 -2 -42 -6 -64zM1039 209l5 29
c5 28 7 49 7 65c0 37 -13 47 -39 47c-38 0 -55 -22 -71 -112l-5 -29c-5 -28 -8 -50 -8 -66c0 -36 13 -46 39 -46c38 0 56 21 72 112z" />
    <glyph glyph-name="ampersand" unicode="&#x26;" horiz-adv-x="867" 
d="M886 367l-45 -10c-16 -91 -48 -164 -100 -222l80 -88l-8 -47h-201l-29 30c-47 -24 -131 -45 -234 -45c-154 0 -271 51 -271 190c0 115 69 172 182 215c-56 70 -73 120 -73 170c0 180 167 201 320 201c104 0 214 -16 264 -27l-32 -180h-134l-1 51c-36 2 -69 2 -109 2
c-42 0 -89 -5 -89 -55c0 -25 8 -43 39 -79l198 -228c16 31 29 72 36 112l-41 10l16 90h248zM490 130l-121 140c-29 -14 -66 -35 -66 -91c0 -55 36 -66 93 -66c35 0 72 8 94 17z" />
    <glyph glyph-name="quotesingle" unicode="'" horiz-adv-x="276" 
d="M392 775l-133 -272h-151l100 272h184z" />
    <glyph glyph-name="parenleft" unicode="(" horiz-adv-x="432" 
d="M350 -198h-182c-38 71 -80 194 -80 338c0 231 84 431 241 603h194c-139 -183 -226 -406 -226 -619c0 -108 15 -233 53 -322z" />
    <glyph glyph-name="parenright" unicode=")" horiz-adv-x="432" 
d="M176 743h182c38 -71 80 -194 80 -338c0 -231 -84 -431 -241 -603h-194c139 183 226 406 226 619c0 108 -15 233 -53 322z" />
    <glyph glyph-name="asterisk" unicode="*" horiz-adv-x="571" 
d="M629 566l-57 -17c-22 -7 -47 -12 -74 -14c21 -16 38 -34 51 -51l35 -46l-118 -83l-34 45c-14 18 -26 39 -37 62c-10 -24 -23 -44 -36 -62l-35 -44l-118 83l36 45c13 17 30 35 50 51c-26 2 -51 7 -73 14l-56 18l45 134l56 -17c22 -7 45 -17 67 -30c-5 25 -8 48 -8 70v56
h145v-56c0 -22 -3 -46 -10 -71c23 13 47 24 69 31l56 17z" />
    <glyph glyph-name="plus" unicode="+" horiz-adv-x="676" 
d="M677 305h-192v-184h-161v184h-193v158h193v183h161v-183h192v-158z" />
    <glyph glyph-name="comma" unicode="," horiz-adv-x="398" 
d="M381 177l-193 -274h-171l145 274h219z" />
    <glyph glyph-name="hyphen" unicode="-" horiz-adv-x="378" 
d="M362 224h-268l25 143h268z" />
    <glyph glyph-name="period" unicode="." horiz-adv-x="339" 
d="M278 0h-217l31 176h217z" />
    <glyph glyph-name="slash" unicode="/" horiz-adv-x="519" 
d="M635 743l-397 -743h-223l397 743h223z" />
    <glyph glyph-name="zero" unicode="0" horiz-adv-x="752" 
d="M759 318c-40 -227 -158 -336 -375 -336c-200 0 -283 103 -283 267c0 34 3 70 10 109l12 67c40 227 158 336 374 336c200 0 285 -99 285 -264c0 -34 -4 -72 -11 -112zM525 338l12 67c7 42 11 76 11 102c0 69 -25 87 -68 87c-59 0 -96 -34 -123 -189l-12 -67
c-7 -42 -11 -76 -11 -102c0 -69 25 -87 68 -87c59 0 96 34 123 189z" />
    <glyph glyph-name="one" unicode="1" horiz-adv-x="639" 
d="M589 0h-539l26 149l154 8l70 397l-159 -37l27 156l231 72h168l-104 -588l152 -8z" />
    <glyph glyph-name="two" unicode="2" horiz-adv-x="693" 
d="M628 0h-575l16 92c33 191 100 261 283 350c121 59 151 75 151 122c0 31 -27 42 -107 42c-19 0 -53 -1 -86 -3l-18 -55h-134l32 179c75 22 196 34 277 34c195 0 279 -63 279 -175c0 -143 -115 -205 -260 -272c-135 -62 -162 -75 -176 -151h204l17 50h134z" />
    <glyph glyph-name="three" unicode="3" horiz-adv-x="691" 
d="M685 247c0 -218 -157 -265 -363 -265c-105 0 -216 19 -262 37l32 180h134l-2 -56c32 -2 67 -3 98 -3c94 0 129 24 129 105c0 43 -21 60 -93 60h-196l25 143h197c74 0 120 23 120 98c0 48 -20 58 -100 58c-32 0 -67 -1 -99 -3l-17 -53h-134l31 177c50 17 170 36 275 36
c187 0 276 -57 276 -183c0 -86 -33 -157 -116 -199c46 -25 65 -80 65 -132z" />
    <glyph glyph-name="four" unicode="4" horiz-adv-x="751" 
d="M733 157h-92l-11 -65l42 -5l-15 -87h-321l15 87l45 5l11 65h-336l26 144l462 442h186l-78 -437h92zM446 306l37 207l-209 -207h172z" />
    <glyph glyph-name="five" unicode="5" horiz-adv-x="681" 
d="M379 586l-31 -120h54c208 0 276 -66 276 -194c0 -217 -140 -290 -365 -290c-120 0 -217 18 -261 31l32 184h132l-1 -58c25 -1 54 -2 70 -2c104 0 152 20 152 109c0 58 -26 72 -115 72h-213l112 425h519l-36 -199h-132l1 42h-194z" />
    <glyph glyph-name="six" unicode="6" horiz-adv-x="729" 
d="M729 296c0 -215 -136 -314 -352 -314c-210 0 -283 91 -283 234c0 31 4 65 10 100l27 153c34 192 104 292 383 292c101 0 210 -19 254 -31l-32 -180h-132l1 52c-31 1 -65 2 -97 2c-110 0 -127 -32 -141 -116l-4 -21c30 7 82 11 113 11c152 0 253 -42 253 -182zM390 130
c84 0 107 87 107 161c0 44 -22 55 -71 55c-22 0 -57 -2 -86 -8l-15 -84c-4 -21 -6 -38 -6 -53c0 -53 24 -71 71 -71z" />
    <glyph glyph-name="seven" unicode="7" horiz-adv-x="698" 
d="M757 573l-430 -573h-245l444 586h-221l-17 -48h-132l37 205h594z" />
    <glyph glyph-name="eight" unicode="8" horiz-adv-x="757" 
d="M751 246c0 -238 -197 -264 -374 -264h-6c-155 0 -288 39 -288 189c0 96 29 158 118 211c-35 26 -59 73 -59 146c0 209 196 233 367 233h6c175 0 290 -44 290 -185c0 -87 -39 -148 -116 -194c39 -29 62 -79 62 -136zM405 124c97 0 113 56 113 125c0 53 -24 68 -88 68h-10
c-76 0 -104 -46 -104 -119c0 -61 27 -74 83 -74h6zM463 450c87 0 107 48 107 103c0 51 -29 65 -81 65h-6c-85 0 -110 -40 -110 -103c0 -47 14 -65 72 -65h18z" />
    <glyph glyph-name="nine" unicode="9" horiz-adv-x="729" 
d="M129 447c0 215 136 314 352 314c210 0 283 -91 283 -234c0 -31 -4 -65 -10 -100l-27 -153c-34 -192 -104 -292 -383 -292c-101 0 -210 19 -254 31l32 180h132l-1 -52c31 -1 65 -2 97 -2c110 0 127 32 141 116l4 21c-30 -7 -82 -11 -113 -11c-152 0 -253 42 -253 182z
M468 613c-84 0 -107 -87 -107 -161c0 -44 22 -55 71 -55c22 0 57 2 86 8l15 84c4 21 6 38 6 53c0 53 -24 71 -71 71z" />
    <glyph glyph-name="colon" unicode=":" horiz-adv-x="353" 
d="M285 0h-217l31 177h217zM387 579l-31 -176h-217l31 176h217z" />
    <glyph glyph-name="semicolon" unicode=";" horiz-adv-x="402" 
d="M378 177l-200 -273h-170l143 273h227zM409 403h-217l31 176h217z" />
    <glyph glyph-name="less" unicode="&#x3c;" horiz-adv-x="676" 
d="M636 112h-224l-275 272l275 271h224l-271 -271z" />
    <glyph glyph-name="equal" unicode="=" horiz-adv-x="676" 
d="M663 155h-509v158h509v-158zM663 449h-509v159h509v-159z" />
    <glyph glyph-name="greater" unicode="&#x3e;" horiz-adv-x="676" 
d="M672 384l-274 -272h-225l271 272l-271 271h225z" />
    <glyph glyph-name="question" unicode="?" horiz-adv-x="595" 
d="M183 758c65 23 158 35 250 35c149 0 225 -58 225 -143c0 -106 -64 -163 -141 -225c-110 -90 -129 -119 -139 -169l-4 -19h-183l4 19c23 104 33 133 104 203c58 58 90 86 90 132c0 27 -17 38 -68 38c-14 0 -26 -1 -39 -1l-16 -48h-114zM164 176h217l-31 -176h-217z" />
    <glyph glyph-name="at" unicode="@" horiz-adv-x="920" 
d="M948 390c0 -242 -175 -351 -424 -351c-158 0 -233 47 -233 155c0 34 4 59 14 108c29 140 117 193 257 193c74 0 139 -12 190 -24l-61 -311c98 29 148 121 148 230c0 131 -93 193 -255 193c-266 0 -373 -202 -373 -439c0 -139 85 -190 257 -190c74 0 162 6 195 9l-5 -64
c-28 -5 -122 -17 -196 -17c-238 0 -359 88 -359 267c0 275 140 518 488 518c219 0 357 -98 357 -277zM579 384c-12 2 -27 3 -39 3c-42 0 -70 -18 -87 -112c-5 -27 -11 -67 -11 -86c0 -36 18 -48 62 -48h29z" />
    <glyph glyph-name="A" unicode="A" horiz-adv-x="856" 
d="M815 0h-253l-12 162h-184l-68 -162h-258l26 150l48 4l193 434l-46 6l27 149h455l51 -589l47 -4zM553 318l-11 188c-1 21 -2 44 -2 66c0 16 1 31 1 45h-5c-7 -26 -25 -76 -39 -111l-78 -188h134z" />
    <glyph glyph-name="B" unicode="B" horiz-adv-x="774" 
d="M769 257c0 -239 -212 -269 -421 -270c-82 0 -183 4 -303 13l26 150l45 5l76 432l-43 6l27 150c120 10 234 14 310 14c213 0 334 -46 334 -181c0 -82 -31 -154 -111 -195c45 -24 60 -76 60 -124zM400 145c81 0 145 14 145 103c0 48 -17 65 -95 65h-82l-30 -166
c22 -1 38 -2 62 -2zM471 444c71 0 124 20 124 95c0 52 -39 60 -115 60c-22 0 -38 0 -62 -1l-27 -154h80z" />
    <glyph glyph-name="C" unicode="C" horiz-adv-x="665" 
d="M616 4c-42 -12 -162 -22 -220 -22c-233 0 -333 103 -285 375l12 68c48 272 178 336 411 336c58 0 174 -10 212 -22l-36 -204h-137l1 51c-14 1 -29 2 -43 2c-95 0 -147 -29 -174 -182l-12 -68c-27 -154 15 -183 110 -183c15 0 29 1 43 1l17 52h137z" />
    <glyph glyph-name="D" unicode="D" horiz-adv-x="800" 
d="M808 325c-45 -259 -175 -338 -438 -338c-104 0 -225 5 -325 15l26 147l49 7l76 433l-46 7l26 147c102 10 223 14 330 14c219 0 324 -85 324 -251c0 -47 -5 -84 -22 -181zM580 345c16 94 20 123 20 156c0 68 -35 88 -117 88c-18 0 -37 0 -60 -1l-76 -433h60
c112 0 146 37 173 190z" />
    <glyph glyph-name="E" unicode="E" horiz-adv-x="676" 
d="M627 0h-582l26 149l43 5l76 435l-41 5l27 149h582l-35 -198h-134l-3 38h-162l-22 -129h283l-27 -151h-283l-25 -143h162l16 40h134z" />
    <glyph glyph-name="F" unicode="F" horiz-adv-x="673" 
d="M660 302h-283l-26 -148l43 -5l-26 -149h-323l26 149l45 6l76 433l-43 6l27 149h584l-36 -200h-135l-1 38h-162l-23 -129h283z" />
    <glyph glyph-name="G" unicode="G" horiz-adv-x="740" 
d="M685 7c-65 -12 -179 -25 -296 -25c-157 0 -290 55 -290 262c0 33 4 71 11 112l12 70c56 314 242 335 417 335c106 0 224 -19 270 -31l-34 -194h-135v49c-25 1 -63 2 -91 2c-112 0 -169 -19 -198 -180l-12 -70c-6 -35 -9 -63 -9 -87c0 -74 31 -96 96 -96c24 0 50 1 71 2
l22 122l-65 8l22 123h280z" />
    <glyph glyph-name="H" unicode="H" horiz-adv-x="882" 
d="M645 743h322l-27 -150l-44 -4l-76 -435l42 -4l-26 -150h-322l26 150l45 4l25 142h-234l-25 -142l43 -4l-26 -150h-323l26 150l45 4l76 435l-43 4l27 150h323l-27 -150l-45 -4l-22 -124h234l22 124l-43 4z" />
    <glyph glyph-name="I" unicode="I" horiz-adv-x="415" 
d="M369 0h-323l26 150l45 4l76 435l-43 4l27 150h323l-27 -150l-45 -4l-76 -435l43 -4z" />
    <glyph glyph-name="J" unicode="J" horiz-adv-x="413" 
d="M471 593l-45 -4l-105 -595c-26 -150 -109 -207 -257 -207c-36 0 -82 4 -108 10l23 131h45c45 0 53 14 61 56l106 605l-43 4l27 150h323z" />
    <glyph glyph-name="K" unicode="K" horiz-adv-x="821" 
d="M349 154l45 -4l-26 -150h-323l26 150l43 4l76 435l-41 4l27 150h323l-27 -150l-45 -4l-34 -187l283 341h234l-27 -150l-50 -4l-207 -224l114 -211l63 -4l-26 -150h-247l-148 339z" />
    <glyph glyph-name="L" unicode="L" horiz-adv-x="627" 
d="M589 0h-544l26 150l43 4l76 435l-41 4l27 150h321l-27 -150l-44 -4l-74 -421h122l19 53h134z" />
    <glyph glyph-name="M" unicode="M" horiz-adv-x="978" 
d="M354 0h-309l26 150l41 4l76 435l-39 5l27 149h248l100 -214c12 -26 22 -59 32 -87h2c21 28 44 60 65 86l177 215h264l-27 -150l-45 -4l-76 -435l43 -4l-26 -150h-313l26 150l45 4l28 163c7 39 16 82 26 121h-2c-18 -28 -44 -65 -66 -91l-97 -114h-105l-57 114
c-13 26 -26 64 -33 91h-2c-4 -39 -11 -81 -18 -121l-28 -163l43 -4z" />
    <glyph glyph-name="N" unicode="N" horiz-adv-x="854" 
d="M640 743h300l-27 -150l-45 -4l-103 -589h-226l-137 322c-10 25 -24 59 -33 88h-3c-4 -36 -9 -79 -15 -114l-25 -142l43 -4l-26 -150h-298l26 150l43 4l76 435l-41 4l27 150h261l142 -317c13 -30 25 -65 34 -93h2c3 34 11 85 17 120l24 136l-43 4z" />
    <glyph glyph-name="O" unicode="O" horiz-adv-x="783" 
d="M790 320c-48 -278 -206 -338 -396 -338c-166 0 -293 75 -293 270c0 33 4 70 22 172c49 278 208 337 395 337c173 0 293 -75 293 -260c0 -44 -4 -81 -21 -181zM563 341l10 61c6 34 9 62 9 94c0 66 -30 92 -88 92c-77 0 -120 -44 -145 -186l-10 -61c-6 -34 -9 -63 -9 -86
c0 -76 31 -100 88 -100c74 0 121 40 145 186z" />
    <glyph glyph-name="P" unicode="P" horiz-adv-x="776" 
d="M368 0h-323l26 150l45 4l76 435l-43 4l27 150c102 9 230 13 317 13c184 0 329 -43 329 -221c0 -231 -165 -296 -393 -296c-25 0 -43 0 -73 1l-15 -86l53 -4zM451 406c87 0 145 24 145 109c0 64 -39 75 -113 75c-22 0 -47 0 -66 -1l-32 -182c19 0 43 -1 66 -1z" />
    <glyph glyph-name="Q" unicode="Q" horiz-adv-x="782" 
d="M280 11h215l-6 -44c-4 -27 1 -31 46 -31h81l-21 -119c-40 -12 -110 -21 -170 -21c-110 0 -170 33 -152 165zM790 320c-48 -278 -206 -338 -396 -338c-166 0 -293 75 -293 270c0 33 4 70 22 172c49 278 208 337 395 337c173 0 293 -75 293 -260c0 -44 -4 -81 -21 -181z
M563 341l10 61c6 34 9 62 9 94c0 66 -30 92 -88 92c-77 0 -120 -44 -145 -186l-10 -61c-6 -34 -9 -63 -9 -86c0 -76 31 -100 88 -100c74 0 121 40 145 186z" />
    <glyph glyph-name="R" unicode="R" horiz-adv-x="798" 
d="M357 0h-312l26 150l45 4l76 435l-43 4l27 150c91 7 205 12 323 12c185 0 322 -39 322 -210c0 -106 -43 -191 -148 -249l57 -142l54 -4l-26 -150h-210l-95 250h-96l-17 -96l43 -4zM448 406c93 0 145 18 145 115c0 60 -34 69 -114 69c-23 0 -38 0 -63 -1l-32 -182
c21 -1 42 -1 64 -1z" />
    <glyph glyph-name="S" unicode="S" horiz-adv-x="688" 
d="M580 603c-33 1 -69 1 -100 1c-40 0 -108 -5 -108 -64c0 -23 16 -40 66 -61l86 -35c106 -44 160 -99 160 -197c0 -194 -142 -265 -341 -265c-112 0 -219 11 -275 25l33 186h135v-51c34 -1 68 -1 101 -1c63 0 109 13 109 66c0 35 -16 49 -68 72l-90 39
c-88 38 -151 96 -151 197c0 204 172 246 358 246c103 0 203 -16 253 -27l-32 -180h-134z" />
    <glyph glyph-name="T" unicode="T" horiz-adv-x="737" 
d="M789 536h-128l-2 46h-71l-76 -429l44 -4l-26 -149h-323l26 149l44 4l76 429h-71l-18 -46h-128l37 207h653z" />
    <glyph glyph-name="U" unicode="U" horiz-adv-x="848" 
d="M617 743h319l-27 -150l-45 -4l-59 -332c-34 -193 -156 -275 -369 -275c-202 0 -300 94 -300 253c0 26 3 54 11 100l45 254l-43 4l27 150h319l-27 -150l-45 -4l-50 -288c-5 -29 -8 -52 -8 -72c0 -57 24 -79 86 -79c93 0 113 46 132 151l50 288l-43 4z" />
    <glyph glyph-name="V" unicode="V" horiz-adv-x="843" 
d="M906 594l-49 -5l-253 -589h-367l-47 589l-46 5l27 149h314l-27 -148l-35 -3l13 -328c1 -19 1 -40 1 -62c0 -26 0 -53 -2 -75h2c14 40 32 95 48 137l130 328l-35 3l27 148h326z" />
    <glyph glyph-name="W" unicode="W" horiz-adv-x="1098" 
d="M879 743h312l-27 -149l-48 -6l-199 -588h-271l-27 278c-2 22 -3 42 -3 61c0 21 1 41 3 57h-3c-6 -31 -19 -72 -34 -106l-130 -290h-271l6 588l-46 6l27 149h299l-27 -150l-31 -3l-8 -200c-2 -49 -6 -97 -10 -139h4c10 41 26 84 50 137l88 191h224l19 -189
c4 -34 5 -63 5 -89c0 -18 0 -34 -2 -50h4c9 43 22 89 38 139l64 200l-33 3z" />
    <glyph glyph-name="X" unicode="X" horiz-adv-x="785" 
d="M125 155l194 239l-99 194l-69 6l27 149h224l104 -203l154 203h212l-27 -149l-58 -6l-188 -230l105 -203l67 -6l-26 -149h-223l-105 203l-153 -203h-224l26 149z" />
    <glyph glyph-name="Y" unicode="Y" horiz-adv-x="742" 
d="M802 594l-51 -6l-221 -318l-21 -122l43 -6l-25 -142h-319l25 142l49 6l21 121l-110 319l-49 6l27 149h206l47 -175c9 -34 17 -78 20 -110h3c15 33 41 77 61 110l109 175h212z" />
    <glyph glyph-name="Z" unicode="Z" horiz-adv-x="672" 
d="M624 0h-577l28 161l369 417h-152l-18 -45h-127l38 210h564l-29 -163l-369 -415h164l19 48h127z" />
    <glyph glyph-name="bracketleft" unicode="[" horiz-adv-x="466" 
d="M381 -199h-346l167 942h346l-27 -154h-131l-111 -634h130z" />
    <glyph glyph-name="backslash" unicode="\" horiz-adv-x="557" 
d="M514 0h-206l-134 743h205z" />
    <glyph glyph-name="bracketright" unicode="]" horiz-adv-x="466" 
d="M359 -199h-347l28 154h130l111 634h-130l28 154h347z" />
    <glyph glyph-name="asciicircum" unicode="^" horiz-adv-x="742" 
d="M748 433h-192l-64 233l-145 -233h-202l208 311h296z" />
    <glyph glyph-name="underscore" unicode="_" horiz-adv-x="643" 
d="M593 -153h-596l17 105h597z" />
    <glyph glyph-name="grave" unicode="`" horiz-adv-x="512" 
d="M528 639h-189l-150 141h232z" />
    <glyph glyph-name="a" unicode="a" horiz-adv-x="670" 
d="M627 0h-237l6 37c-44 -26 -117 -52 -190 -52c-101 0 -142 57 -142 141c0 14 1 29 8 69c27 150 153 150 319 150h38l5 28c2 11 3 21 3 29c0 33 -19 40 -83 40c-17 0 -32 0 -49 -1l-16 -39h-134l28 154c42 13 146 38 248 38c149 0 224 -53 224 -173c0 -21 -3 -43 -7 -68
l-36 -201l40 -5zM402 135l20 111h-46c-61 0 -90 -7 -100 -62c-3 -16 -5 -30 -5 -41c0 -21 15 -29 40 -29c35 0 75 13 91 21z" />
    <glyph glyph-name="b" unicode="b" horiz-adv-x="689" 
d="M687 245c-36 -207 -153 -260 -355 -260c-86 0 -155 4 -272 17l111 629l-41 5l25 146h258l-35 -201c27 9 64 14 103 14c153 0 225 -73 225 -206c0 -26 -3 -55 -8 -85zM474 265l11 59c4 23 6 41 6 56c0 44 -18 58 -67 58c-18 0 -53 -3 -75 -11l-50 -283c15 -1 37 -3 63 -3
c68 0 95 24 112 124z" />
    <glyph glyph-name="c" unicode="c" horiz-adv-x="576" 
d="M529 9c-42 -10 -114 -24 -210 -24c-157 0 -229 78 -229 212c0 26 3 55 18 141c33 189 130 256 318 256c99 0 177 -15 202 -23l-31 -175h-127l-1 39c-11 1 -26 1 -34 1c-64 0 -96 -18 -114 -118c-13 -76 -15 -94 -15 -108c0 -56 28 -67 82 -67c37 0 86 2 166 6z" />
    <glyph glyph-name="d" unicode="d" horiz-adv-x="720" 
d="M677 0h-240l5 30c-46 -26 -104 -45 -174 -45c-116 0 -179 72 -179 203c0 28 3 58 9 91l11 59c35 201 143 256 320 256c39 0 67 -2 92 -6l13 71l-44 4l21 119h261l-111 -630l41 -5zM448 155l49 278c-23 3 -49 6 -67 6c-62 0 -90 -19 -108 -121l-11 -59
c-4 -22 -6 -41 -6 -56c0 -46 19 -61 66 -61c25 0 53 5 77 13z" />
    <glyph glyph-name="e" unicode="e" 
d="M676 237h-372c-4 -22 -6 -35 -6 -46c0 -38 22 -54 105 -54c58 0 169 3 227 8l-23 -133c-50 -12 -139 -27 -241 -27c-186 0 -277 69 -277 217c0 24 2 50 9 88l8 46c35 196 159 258 328 258c205 0 258 -102 258 -230c0 -28 -3 -55 -16 -127zM487 341c4 22 5 36 5 48
c0 38 -16 61 -69 61c-67 0 -88 -42 -99 -109h163z" />
    <glyph glyph-name="f" unicode="f" horiz-adv-x="495" 
d="M537 434h-121l-50 -282l40 -5l-25 -147h-299l25 147l42 5l50 282l-88 9l24 136h90l6 39c20 129 95 180 221 180c56 0 110 -8 147 -17l-20 -115c-36 1 -55 2 -74 2c-43 0 -50 -13 -57 -53l-6 -36h121z" />
    <glyph glyph-name="g" unicode="g" horiz-adv-x="672" 
d="M631 6c0 -192 -173 -220 -343 -220c-166 0 -267 45 -267 155c0 58 26 99 74 137c-21 17 -31 44 -31 70c0 51 31 82 77 105c-19 21 -31 57 -31 100c0 187 140 241 325 241h306l-17 -100l-50 -14c6 -10 12 -35 12 -64c0 -179 -163 -228 -324 -228c-37 0 -78 4 -107 11
c-12 -5 -21 -15 -21 -28c0 -14 8 -17 42 -17h79c186 0 276 -32 276 -148zM310 -95c57 0 113 14 113 83c0 32 -21 37 -92 37h-79c-20 -17 -31 -46 -31 -75c0 -33 23 -45 89 -45zM384 316c64 0 96 34 96 102c0 32 -16 49 -69 49c-65 0 -92 -37 -92 -103c0 -32 16 -48 65 -48z
" />
    <glyph glyph-name="h" unicode="h" horiz-adv-x="754" 
d="M711 0h-258l64 364c2 13 3 23 3 32c0 33 -15 43 -50 43s-73 -11 -96 -20l-47 -267l40 -5l-25 -147h-299l25 147l42 5l85 479l-40 5l25 146h258l-39 -225c52 24 117 37 172 37c133 0 169 -69 169 -157c0 -29 -4 -60 -10 -92l-35 -193l41 -5z" />
    <glyph glyph-name="i" unicode="i" horiz-adv-x="386" 
d="M343 0h-300l25 147l42 5l49 276l-40 5l26 146h258l-76 -427l41 -5zM420 647h-226l23 135h226z" />
    <glyph glyph-name="j" unicode="j" horiz-adv-x="362" 
d="M299 -20c-26 -149 -95 -195 -241 -195c-48 0 -93 5 -111 9l23 130h53c42 0 51 12 59 56l79 449l-40 5l26 145h258zM421 647h-226l23 135h226z" />
    <glyph glyph-name="k" unicode="k" horiz-adv-x="705" 
d="M662 0h-209l-108 260l-45 -260h-257l25 147l42 5l85 479l-40 5l25 146h257l-80 -456l203 253h202l-26 -147l-64 -7l-116 -125l79 -145l53 -7z" />
    <glyph glyph-name="l" unicode="l" horiz-adv-x="385" 
d="M342 0h-299l25 147l42 5l85 479l-40 5l25 146h258l-111 -630l40 -5z" />
    <glyph glyph-name="m" unicode="m" horiz-adv-x="1061" 
d="M1018 0h-259l65 374c3 14 5 26 5 36c0 21 -9 32 -41 32c-22 0 -52 -9 -78 -20c0 -16 -6 -48 -9 -67l-62 -355h-217l61 348c7 40 8 52 8 62c0 21 -8 32 -38 32c-25 0 -56 -12 -78 -22l-48 -268l40 -5l-25 -147h-299l25 147l42 5l49 277l-40 5l26 145h243l-9 -46
c56 40 123 61 187 61c73 0 106 -23 126 -63c72 46 145 63 200 63c120 0 155 -65 155 -152c0 -26 -3 -54 -10 -94l-35 -196l41 -5z" />
    <glyph glyph-name="n" unicode="n" horiz-adv-x="753" 
d="M711 0h-258l64 365c2 14 4 25 4 35c0 29 -13 39 -46 39c-28 0 -67 -11 -101 -24l-47 -263l40 -5l-25 -147h-299l25 147l42 5l49 276l-40 6l26 145h243l-9 -47c62 38 132 62 199 62c131 0 163 -65 163 -146c0 -33 -5 -68 -11 -103l-35 -193l41 -5z" />
    <glyph glyph-name="o" unicode="o" 
d="M682 242c-36 -200 -158 -257 -330 -257c-166 0 -261 72 -261 213c0 33 2 58 15 139c33 201 158 257 334 257c161 0 257 -73 257 -208c0 -39 -2 -63 -15 -144zM468 262c12 76 14 94 14 113c0 46 -20 63 -62 63c-56 0 -86 -28 -101 -121c-13 -77 -14 -95 -14 -110
c0 -49 15 -66 62 -66c61 0 86 28 101 121z" />
    <glyph glyph-name="p" unicode="p" horiz-adv-x="719" 
d="M306 -200h-299l26 146l42 5l84 478l-40 5l26 145h240l-7 -35c62 37 125 50 174 50c124 0 184 -64 184 -191c0 -38 -3 -69 -20 -166c-36 -199 -151 -251 -329 -251c-32 0 -69 3 -88 7l-7 -42l40 -5zM499 261c15 85 17 103 17 118c0 45 -19 58 -62 58c-23 0 -49 -4 -82 -17
l-48 -272c22 -4 43 -7 65 -7c62 0 92 20 110 120z" />
    <glyph glyph-name="q" unicode="q" horiz-adv-x="702" 
d="M637 -200h-297l26 146l42 5l9 49c-33 -11 -68 -15 -106 -15c-152 0 -224 70 -224 204c0 27 3 56 19 146c38 218 155 259 360 259c84 0 150 -3 267 -16l-110 -626l40 -5zM444 154l49 281c-15 1 -42 2 -60 2c-66 0 -95 -11 -115 -123c-14 -80 -16 -99 -16 -114
c0 -44 18 -58 63 -58c19 0 46 2 79 12z" />
    <glyph glyph-name="r" unicode="r" horiz-adv-x="497" 
d="M540 419c-59 0 -120 -7 -168 -16l-45 -251l40 -5l-25 -147h-299l25 147l42 5l49 277l-40 5l26 145h240l-9 -48c68 56 141 63 195 63z" />
    <glyph glyph-name="s" unicode="s" horiz-adv-x="592" 
d="M221 122c20 -1 39 -2 59 -2c33 0 82 3 82 48c0 19 -16 26 -65 48l-40 18c-95 43 -141 91 -141 175c0 164 139 185 285 185c89 0 185 -12 226 -24l-26 -146h-134l-4 35c-19 1 -43 1 -59 1c-33 0 -75 0 -75 -32c0 -25 18 -30 57 -49l49 -23c106 -49 145 -83 145 -173
c0 -160 -158 -197 -312 -197c-82 0 -175 13 -212 22l27 153h136z" />
    <glyph glyph-name="t" unicode="t" horiz-adv-x="493" 
d="M458 2c-15 -4 -76 -17 -142 -17c-132 0 -183 53 -159 189l46 260l-92 9l24 136h94l24 138h216l-24 -138h117l-26 -145h-117l-46 -259c-7 -40 -6 -50 34 -50c25 0 61 2 73 3z" />
    <glyph glyph-name="u" unicode="u" horiz-adv-x="753" 
d="M711 0h-243l8 48c-59 -35 -131 -63 -208 -63c-124 0 -154 74 -154 155c0 32 5 65 10 94l35 195l-40 5l26 145h258l-65 -365c-9 -55 -3 -74 43 -74c27 0 65 11 101 25l46 264l-40 5l26 145h257l-76 -427l41 -6z" />
    <glyph glyph-name="v" unicode="v" horiz-adv-x="727" 
d="M761 432l-49 -7l-194 -425h-310l-47 425l-44 7l26 147h222l13 -297c2 -52 3 -111 2 -156h2c16 45 36 104 56 156l118 297h231z" />
    <glyph glyph-name="w" unicode="w" horiz-adv-x="1049" 
d="M1083 432l-49 -6l-163 -426h-258l-31 206c-5 38 -3 85 -1 112h-3c-9 -27 -22 -73 -42 -112l-104 -206h-256l-13 426l-47 6l26 147h232l-5 -255c-2 -55 -4 -96 -7 -132h4c14 37 28 82 54 132l80 154h206l26 -154c8 -51 8 -95 7 -132h4c11 36 23 79 41 133l85 254h240z" />
    <glyph glyph-name="x" unicode="x" horiz-adv-x="677" 
d="M352 579l78 -141l116 141h184l-26 -146l-52 -7l-135 -145l71 -128l72 -5l-26 -148h-204l-80 143l-115 -143h-192l26 148l52 6l138 152l-66 119l-71 8l26 146h204z" />
    <glyph glyph-name="y" unicode="y" horiz-adv-x="735" 
d="M770 434l-53 -6l-200 -411c-83 -171 -156 -230 -305 -230c-68 0 -136 6 -184 16l23 130c51 -2 75 -2 108 -2c36 0 55 12 75 52l12 26l-78 418l-51 7l26 145h225l21 -268c5 -49 3 -109 4 -154h2c15 45 33 102 54 153l112 269h235z" />
    <glyph glyph-name="z" unicode="z" horiz-adv-x="588" 
d="M542 0h-497l24 141l303 291h-122l-15 -36h-114l33 183h489l-26 -146l-296 -287h123l17 40h113z" />
    <glyph glyph-name="braceleft" unicode="{" horiz-adv-x="500" 
d="M415 -199h-64c-184 0 -253 41 -253 155c0 22 2 47 7 74l19 109c2 13 3 24 3 33c0 35 -15 48 -42 65l19 110c42 21 63 38 74 98l20 109c30 171 101 189 320 189h63l-28 -154h-59c-61 0 -70 -4 -79 -55l-20 -109c-15 -86 -45 -119 -112 -153c43 -27 63 -52 63 -102
c0 -15 -2 -31 -5 -51l-19 -109c-2 -11 -3 -20 -3 -27c0 -26 15 -29 63 -29h60z" />
    <glyph glyph-name="bar" unicode="|" horiz-adv-x="358" 
d="M347 -199h-216v942h216v-942z" />
    <glyph glyph-name="braceright" unicode="}" horiz-adv-x="500" 
d="M181 743h64c184 0 253 -41 253 -155c0 -22 -2 -47 -7 -74l-19 -109c-2 -13 -3 -24 -3 -33c0 -35 15 -48 42 -65l-19 -110c-42 -21 -63 -38 -74 -98l-20 -109c-30 -171 -101 -189 -320 -189h-63l28 154h59c61 0 70 4 79 55l20 109c15 86 45 119 112 153
c-43 27 -63 52 -63 102c0 15 2 31 5 51l19 109c2 11 3 20 3 27c0 26 -15 29 -63 29h-60z" />
    <glyph glyph-name="asciitilde" unicode="~" horiz-adv-x="705" 
d="M723 518c-19 -161 -84 -206 -179 -206c-52 0 -81 8 -124 30l-56 30c-19 10 -33 17 -48 17c-25 0 -34 -14 -40 -46l-5 -26h-144c15 166 105 207 189 207c42 0 74 -11 112 -31l56 -29c21 -11 37 -18 52 -18c27 0 34 16 39 46l5 26h143z" />
    <glyph glyph-name="uni00A0" unicode="&#xa0;" horiz-adv-x="207" 
 />
    <glyph glyph-name="exclamdown" unicode="&#xa1;" horiz-adv-x="354" 
d="M265 -203h-242l116 546h202zM393 579l-32 -178h-224l32 178h224z" />
    <glyph glyph-name="cent" unicode="&#xa2;" horiz-adv-x="586" 
d="M529 9c-23 -7 -73 -15 -128 -19l-20 -111h-175l21 117c-94 22 -139 99 -139 207c0 25 2 53 7 81l9 52c26 149 100 219 226 248l21 116h175l-19 -110c57 -5 105 -15 121 -19l-30 -171h-125l-1 36h-33c-71 0 -102 -18 -120 -120l-9 -52c-4 -21 -6 -38 -6 -53
c0 -56 28 -68 84 -68c46 0 105 2 166 5z" />
    <glyph glyph-name="sterling" unicode="&#xa3;" horiz-adv-x="688" 
d="M637 0h-559l22 127c40 31 59 63 66 105l14 78h-74l25 141h74l8 45c36 201 130 267 326 267c81 0 162 -9 228 -23l-34 -193h-135l-1 50c-12 1 -30 1 -45 1c-83 0 -99 -19 -113 -101l-8 -46h188l-25 -141h-188l-14 -78c-5 -31 -17 -53 -34 -74h306z" />
    <glyph glyph-name="currency" unicode="&#xa4;" horiz-adv-x="683" 
d="M705 179l-84 -80l-81 77c-36 -19 -77 -30 -118 -30c-42 0 -82 10 -120 31l-84 -80l-84 79l85 81c-21 35 -32 75 -32 114c0 40 10 78 32 113l-85 81l83 79l85 -80c37 21 79 32 120 32c42 0 82 -10 119 -32l82 78l83 -80l-83 -77c22 -36 35 -75 35 -114
c0 -40 -12 -80 -34 -115zM539 371c0 78 -54 113 -117 113c-64 0 -118 -36 -118 -113c0 -78 56 -112 118 -112c61 0 117 35 117 112z" />
    <glyph glyph-name="yen" unicode="&#xa5;" horiz-adv-x="810" 
d="M791 190h-242l-14 -79l43 -5l-18 -106h-318l18 106l48 5l14 79h-242l20 112h224l-32 83h-177l20 113h119l-39 109l-64 7l23 129h234l47 -175c7 -26 17 -74 21 -110h2c19 38 44 85 60 110l110 175h251l-23 -129l-73 -8l-78 -108h120l-20 -113h-178l-60 -83h224z" />
    <glyph glyph-name="brokenbar" unicode="&#xa6;" horiz-adv-x="358" 
d="M347 -199h-216v387h216v-387zM347 356h-216v387h216v-387z" />
    <glyph glyph-name="section" unicode="&#xa7;" horiz-adv-x="717" 
d="M660 27c0 -194 -164 -245 -349 -245c-82 0 -186 11 -268 25l33 187h137l-2 -51c28 -1 65 -2 109 -2c57 0 105 14 105 75c0 28 -19 46 -86 70l-102 36c-100 36 -124 97 -124 163c0 71 25 118 65 162c-12 20 -22 50 -22 90c0 187 167 221 345 221c110 0 224 -19 256 -27
l-31 -177h-137v46c-32 1 -68 2 -109 2c-39 0 -103 -5 -103 -62c0 -24 14 -42 66 -60l101 -35c116 -40 158 -87 158 -174c0 -73 -32 -127 -63 -159c9 -15 21 -41 21 -85zM517 174c7 22 11 39 11 55c0 37 -22 61 -78 82l-83 32c-53 21 -70 29 -81 46c-8 -21 -14 -43 -14 -63
c0 -31 15 -59 62 -77l117 -43c28 -11 45 -19 66 -32z" />
    <glyph glyph-name="dieresis" unicode="&#xa8;" horiz-adv-x="546" 
d="M604 646h-169l24 131h169zM338 646l24 131h-170l-24 -131h170z" />
    <glyph glyph-name="copyright" unicode="&#xa9;" horiz-adv-x="878" 
d="M899 373c0 -255 -161 -389 -383 -389c-223 0 -384 134 -384 389s161 389 384 389c222 0 383 -134 383 -389zM802 373c0 193 -117 302 -286 302c-170 0 -285 -109 -285 -302c0 -194 115 -303 285 -303c169 0 286 109 286 303zM645 170c-23 -7 -75 -15 -116 -15
c-141 0 -201 74 -201 195v46c0 122 60 194 201 194c41 0 94 -8 116 -15v-115h-72l-7 27c-10 1 -17 1 -25 1c-53 0 -74 -22 -74 -92v-46c0 -70 21 -92 74 -92c8 0 15 0 25 1l7 27h72v-116z" />
    <glyph glyph-name="ordfeminine" unicode="&#xaa;" horiz-adv-x="482" 
d="M508 403h-159l4 24c-29 -16 -77 -33 -125 -33c-61 0 -94 24 -94 95c0 8 0 17 4 41c17 93 106 93 212 93h23l3 16c7 36 0 42 -51 42c-10 0 -20 0 -31 -1l-10 -23h-91l18 101c36 11 99 25 167 25c88 0 148 -33 148 -111c0 -13 -1 -27 -8 -64l-18 -103l25 -3zM357 493l12 64
h-29c-38 0 -56 -3 -62 -36l-2 -12c-4 -23 9 -27 27 -27c21 0 44 7 54 11z" />
    <glyph glyph-name="guillemotleft" unicode="&#xab;" horiz-adv-x="722" 
d="M611 276l74 -215h-195l-83 228l164 228h207zM300 276l74 -215h-195l-83 228l164 228h207z" />
    <glyph glyph-name="logicalnot" unicode="&#xac;" horiz-adv-x="676" 
d="M657 155h-166v294h-343v159h509v-453z" />
    <glyph glyph-name="uni00AD" unicode="&#xad;" horiz-adv-x="378" 
d="M362 224h-268l25 143h268z" />
    <glyph glyph-name="registered" unicode="&#xae;" horiz-adv-x="673" 
d="M713 473c0 -181 -113 -296 -282 -296c-168 0 -281 115 -281 296c0 183 113 297 281 297c169 0 282 -114 282 -297zM631 473c0 139 -77 224 -200 224c-122 0 -199 -85 -199 -224c0 -138 77 -223 199 -223c123 0 200 85 200 223zM577 332h-94l-57 100h-11h-15v-100h-103v54
l19 2v181l-19 3v54c45 4 80 4 122 4c78 0 140 -16 140 -98v-4c0 -44 -22 -68 -50 -80l35 -57l33 -5v-54zM473 529v3c0 27 -16 33 -50 33h-23v-74h24c34 0 49 8 49 38z" />
    <glyph glyph-name="macron" unicode="&#xaf;" horiz-adv-x="538" 
d="M603 652h-441l20 113h441z" />
    <glyph glyph-name="degree" unicode="&#xb0;" horiz-adv-x="433" 
d="M490 602c0 -89 -76 -160 -170 -160s-170 71 -170 160s76 161 170 161s170 -72 170 -161zM393 602c0 41 -33 71 -74 71c-40 0 -74 -30 -74 -71c0 -40 34 -70 74 -70c41 0 74 30 74 70z" />
    <glyph glyph-name="plusminus" unicode="&#xb1;" horiz-adv-x="676" 
d="M660 0h-533v122h533v-122zM661 363h-186v-172h-162v172h-187v158h187v172h162v-172h186v-158z" />
    <glyph glyph-name="two.superior" unicode="&#xb2;" horiz-adv-x="474" 
d="M465 301h-362l9 56c19 116 67 158 175 207c29 13 92 31 92 74c0 17 -16 22 -63 22c-12 0 -33 0 -53 -1l-11 -32h-85l20 111c48 14 125 21 174 21c121 0 175 -37 175 -108c0 -89 -72 -129 -150 -160c-81 -33 -117 -55 -122 -86h129l9 29h86z" />
    <glyph glyph-name="three.superior" unicode="&#xb3;" horiz-adv-x="470" 
d="M495 444c0 -126 -103 -154 -223 -154c-66 0 -136 11 -166 22l19 112h86l-2 -33c20 -1 42 -1 61 -1c42 0 75 11 75 56c0 26 -12 36 -56 36h-121l16 90h121c38 0 72 12 72 56c0 26 -15 31 -59 31c-20 0 -41 0 -60 -1l-11 -31h-85l19 109c32 11 107 23 173 23
c109 0 177 -30 177 -115c0 -52 -25 -94 -74 -120c28 -15 38 -49 38 -80z" />
    <glyph glyph-name="acute" unicode="&#xb4;" horiz-adv-x="512" 
d="M597 780l-200 -141h-203l157 141h246z" />
    <glyph glyph-name="mu" unicode="&#xb5;" horiz-adv-x="756" 
d="M712 0h-243l8 48c-54 -29 -106 -49 -176 -49l-8 -47l40 -5l-26 -146h-299l26 146l42 5l84 477l-40 5l26 145h258l-65 -365c-3 -14 -4 -25 -4 -35c0 -28 13 -39 47 -39c27 0 65 11 101 25l46 264l-40 5l26 145h257l-76 -427l41 -6z" />
    <glyph glyph-name="paragraph" unicode="&#xb6;" horiz-adv-x="774" 
d="M680 -195h-117l145 821h-66l-145 -821h-192l27 152l76 5l48 276h-52c-151 0 -272 55 -272 223c0 202 127 282 353 282h361z" />
    <glyph glyph-name="periodcentered" unicode="&#xb7;" horiz-adv-x="339" 
d="M314 280h-202l31 176h202z" />
    <glyph glyph-name="cedilla" unicode="&#xb8;" horiz-adv-x="465" 
d="M366 -60l-154 -139h-193l124 139h223z" />
    <glyph glyph-name="one.superior" unicode="&#xb9;" horiz-adv-x="399" 
d="M400 301h-291l17 96l69 5l38 215l-73 -22l20 109l119 44h110l-61 -346l69 -5z" />
    <glyph glyph-name="ordmasculine" unicode="&#xba;" horiz-adv-x="487" 
d="M540 558c-24 -131 -106 -165 -228 -165c-104 0 -168 48 -168 145c0 15 2 32 10 80c23 132 106 165 227 165c106 0 169 -48 169 -146c0 -15 -2 -31 -10 -79zM393 573c7 44 9 55 9 64c0 30 -13 40 -40 40c-34 0 -52 -16 -62 -74c-8 -44 -9 -56 -9 -66c0 -29 13 -38 39 -38
c35 0 52 16 63 74z" />
    <glyph glyph-name="guillemotright" unicode="&#xbb;" horiz-adv-x="722" 
d="M214 301l-74 216h195l83 -228l-164 -228h-207zM525 301l-74 216h195l83 -228l-164 -228h-207z" />
    <glyph glyph-name="onequarter" unicode="&#xbc;" horiz-adv-x="1043" 
d="M1011 92h-56l-6 -35l25 -3l-9 -54h-204l9 54l28 3l6 35h-207l15 89l287 265h118l-46 -260h56zM829 186l21 116l-123 -116h102zM1008 747l-639 -747h-176l639 747h176zM398 301h-292l17 96l69 5l38 215l-73 -22l20 109l119 44h110l-61 -346l70 -5z" />
    <glyph glyph-name="onehalf" unicode="&#xbd;" horiz-adv-x="1135" 
d="M1008 747l-639 -747h-176l639 747h176zM398 301h-292l17 96l69 5l38 215l-73 -22l20 109l119 44h110l-61 -346l70 -5zM1074 -1h-362l9 56c19 116 67 158 175 207c29 13 92 31 92 74c0 17 -16 22 -63 22c-12 0 -33 0 -53 -1l-11 -32h-85l20 111c48 14 125 21 174 21
c121 0 175 -37 175 -108c0 -89 -72 -129 -150 -160c-81 -33 -117 -55 -122 -86h129l9 29h86z" />
    <glyph glyph-name="threequarters" unicode="&#xbe;" horiz-adv-x="1109" 
d="M1074 92h-56l-6 -35l25 -3l-9 -54h-204l9 54l28 3l6 35h-207l15 89l287 265h118l-46 -260h56zM892 186l21 116l-123 -116h102zM1055 747l-639 -747h-176l639 747h176zM492 444c0 -126 -103 -154 -223 -154c-66 0 -136 11 -166 22l19 112h86l-2 -33c20 -1 42 -1 61 -1
c42 0 75 11 75 56c0 26 -12 36 -56 36h-121l16 90h121c38 0 72 12 72 56c0 26 -15 31 -59 31c-20 0 -41 0 -60 -1l-11 -31h-85l19 109c32 11 107 23 173 23c109 0 177 -30 177 -115c0 -52 -25 -94 -74 -120c28 -15 38 -49 38 -80z" />
    <glyph glyph-name="questiondown" unicode="&#xbf;" horiz-adv-x="595" 
d="M526 -170c-65 -23 -158 -35 -250 -35c-149 0 -225 58 -225 143c0 106 64 163 141 225c110 90 129 119 139 169l4 19h183l-4 -19c-23 -104 -33 -133 -104 -203c-58 -58 -90 -86 -90 -132c0 -27 17 -38 68 -38c14 0 26 1 39 1l16 48h114zM545 412h-217l31 176h217z" />
    <glyph glyph-name="Agrave" unicode="&#xc0;" horiz-adv-x="856" 
d="M817 0h-253l-12 162h-184l-68 -162h-258l26 150l48 4l193 434l-46 6l27 149h455l51 -589l47 -4zM555 318l-11 188c-1 21 -2 44 -2 66c0 16 1 31 1 45h-5c-7 -26 -25 -76 -39 -111l-78 -188h134zM688 788h-189l-150 141h232z" />
    <glyph glyph-name="Aacute" unicode="&#xc1;" horiz-adv-x="856" 
d="M817 0h-253l-12 162h-184l-68 -162h-258l26 150l48 4l193 434l-46 6l27 149h455l51 -589l47 -4zM555 318l-11 188c-1 21 -2 44 -2 66c0 16 1 31 1 45h-5c-7 -26 -25 -76 -39 -111l-78 -188h134zM820 929l-200 -141h-203l157 141h246z" />
    <glyph glyph-name="Acircumflex" unicode="&#xc2;" horiz-adv-x="856" 
d="M817 0h-253l-12 162h-184l-68 -162h-258l26 150l48 4l193 434l-46 6l27 149h455l51 -589l47 -4zM555 318l-11 188c-1 21 -2 44 -2 66c0 16 1 31 1 45h-5c-7 -26 -25 -76 -39 -111l-78 -188h134zM809 788h-178l-65 71l-90 -71h-189l160 141h253z" />
    <glyph glyph-name="Atilde" unicode="&#xc3;" horiz-adv-x="856" 
d="M815 0h-253l-12 162h-184l-68 -162h-258l26 150l48 4l193 434l-46 6l27 149h455l51 -589l47 -4zM553 318l-11 188c-1 21 -2 44 -2 66c0 16 1 31 1 45h-5c-7 -26 -25 -76 -39 -111l-78 -188h134zM836 950c-24 -132 -93 -165 -159 -165c-28 0 -70 3 -108 24l-41 22
c-24 13 -34 18 -45 18c-25 0 -34 -12 -43 -61h-115c23 133 92 168 162 168c31 0 61 -4 95 -22l41 -23c28 -15 41 -21 60 -21c22 0 30 12 39 60h114z" />
    <glyph glyph-name="Adieresis" unicode="&#xc4;" horiz-adv-x="856" 
d="M817 0h-253l-12 162h-184l-68 -162h-258l26 150l48 4l193 434l-46 6l27 149h455l51 -589l47 -4zM555 318l-11 188c-1 21 -2 44 -2 66c0 16 1 31 1 45h-5c-7 -26 -25 -76 -39 -111l-78 -188h134zM785 791h-169l24 131h169zM519 791l24 131h-170l-24 -131h170z" />
    <glyph glyph-name="Aring" unicode="&#xc5;" horiz-adv-x="856" 
d="M817 0h-253l-12 162h-184l-68 -162h-258l26 150l48 4l193 434l-46 6l27 149h455l51 -589l47 -4zM555 318l-11 188c-1 21 -2 44 -2 66c0 16 1 31 1 45h-5c-7 -26 -25 -76 -39 -111l-78 -188h134zM738 891c0 -80 -65 -127 -154 -127c-90 0 -157 47 -157 127
c0 81 67 128 157 128c89 0 154 -47 154 -128zM638 892c0 30 -22 45 -54 45c-33 0 -56 -15 -56 -45s23 -45 56 -45c32 0 54 15 54 45z" />
    <glyph glyph-name="AE" unicode="&#xc6;" horiz-adv-x="1092" 
d="M1038 0h-539l28 162h-159l-69 -162h-259l26 149l53 7l191 428l-45 5l28 154h876l-35 -198h-133l-3 38h-163l-22 -129h283l-27 -151h-283l-25 -143h163l16 40h133zM554 317l53 299h-68c-13 -34 -26 -75 -40 -108l-79 -191h134z" />
    <glyph glyph-name="Ccedilla" unicode="&#xc7;" horiz-adv-x="665" 
d="M619 4c-42 -12 -162 -22 -220 -22c-233 0 -333 103 -285 375l12 68c48 272 178 336 411 336c58 0 174 -10 212 -22l-36 -204h-137l1 51c-14 1 -29 2 -43 2c-95 0 -147 -29 -174 -182l-12 -68c-27 -154 15 -183 110 -183c15 0 29 1 43 1l17 52h137zM491 -60l-154 -139
h-193l124 139h223z" />
    <glyph glyph-name="Egrave" unicode="&#xc8;" horiz-adv-x="676" 
d="M627 0h-582l26 149l43 5l76 435l-41 5l27 149h582l-35 -198h-134l-3 38h-162l-22 -129h283l-27 -151h-283l-25 -143h162l16 40h134zM613 789h-189l-150 141h232z" />
    <glyph glyph-name="Eacute" unicode="&#xc9;" horiz-adv-x="676" 
d="M627 0h-582l26 149l43 5l76 435l-41 5l27 149h582l-35 -198h-134l-3 38h-162l-22 -129h283l-27 -151h-283l-25 -143h162l16 40h134zM768 930l-200 -141h-203l157 141h246z" />
    <glyph glyph-name="Ecircumflex" unicode="&#xca;" horiz-adv-x="676" 
d="M627 0h-582l26 149l43 5l76 435l-41 5l27 149h582l-35 -198h-134l-3 38h-162l-22 -129h283l-27 -151h-283l-25 -143h162l16 40h134zM747 789h-178l-65 71l-90 -71h-189l160 141h253z" />
    <glyph glyph-name="Edieresis" unicode="&#xcb;" horiz-adv-x="676" 
d="M627 0h-582l26 149l43 5l76 435l-41 5l27 149h582l-35 -198h-134l-3 38h-162l-22 -129h283l-27 -151h-283l-25 -143h162l16 40h134zM707 792h-169l24 131h169zM441 792l24 131h-170l-24 -131h170z" />
    <glyph glyph-name="Igrave" unicode="&#xcc;" horiz-adv-x="415" 
d="M368 0h-323l26 150l45 4l76 435l-43 4l27 150h323l-27 -150l-45 -4l-76 -435l43 -4zM469 789h-189l-150 141h232z" />
    <glyph glyph-name="Iacute" unicode="&#xcd;" horiz-adv-x="415" 
d="M368 0h-323l26 150l45 4l76 435l-43 4l27 150h323l-27 -150l-45 -4l-76 -435l43 -4zM643 930l-200 -141h-203l157 141h246z" />
    <glyph glyph-name="Icircumflex" unicode="&#xce;" horiz-adv-x="415" 
d="M367 0h-323l26 150l45 4l76 435l-43 4l27 150h323l-27 -150l-45 -4l-76 -435l43 -4zM604 789h-178l-65 71l-90 -71h-189l160 141h253z" />
    <glyph glyph-name="Idieresis" unicode="&#xcf;" horiz-adv-x="415" 
d="M367 0h-323l26 150l45 4l76 435l-43 4l27 150h323l-27 -150l-45 -4l-76 -435l43 -4zM561 792h-169l24 131h169zM295 792l24 131h-170l-24 -131h170z" />
    <glyph glyph-name="Eth" unicode="&#xd0;" horiz-adv-x="800" 
d="M808 325c-45 -259 -175 -338 -438 -338c-104 0 -225 5 -325 15l26 147l49 7l26 150h-49l26 147h49l24 136l-46 7l26 147c102 10 223 14 330 14c219 0 324 -85 324 -251c0 -47 -5 -84 -22 -181zM580 345c16 94 20 123 20 156c0 68 -35 88 -117 88c-18 0 -37 0 -60 -1
l-24 -135h89l-26 -147h-89l-26 -151h60c112 0 146 37 173 190z" />
    <glyph glyph-name="Ntilde" unicode="&#xd1;" horiz-adv-x="854" 
d="M640 743h300l-27 -150l-45 -4l-103 -589h-226l-137 322c-10 25 -24 59 -33 88h-3c-4 -36 -9 -79 -15 -114l-25 -142l43 -4l-26 -150h-298l26 150l43 4l76 435l-41 4l27 150h261l142 -317c13 -30 25 -65 34 -93h2c3 34 11 85 17 120l24 136l-43 4zM838 952
c-24 -132 -93 -165 -159 -165c-28 0 -70 3 -108 24l-41 22c-24 13 -34 18 -45 18c-25 0 -34 -12 -43 -61h-115c23 133 92 168 162 168c31 0 61 -4 95 -22l41 -23c28 -15 41 -21 60 -21c22 0 30 12 39 60h114z" />
    <glyph glyph-name="Ograve" unicode="&#xd2;" horiz-adv-x="783" 
d="M790 320c-48 -278 -206 -338 -396 -338c-166 0 -293 75 -293 270c0 33 4 70 22 172c49 278 208 337 395 337c173 0 293 -75 293 -260c0 -44 -4 -81 -21 -181zM563 341l10 61c6 34 9 62 9 94c0 66 -30 92 -88 92c-77 0 -120 -44 -145 -186l-10 -61c-6 -34 -9 -63 -9 -86
c0 -76 31 -100 88 -100c74 0 121 40 145 186zM657 789h-189l-150 141h232z" />
    <glyph glyph-name="Oacute" unicode="&#xd3;" horiz-adv-x="783" 
d="M790 320c-48 -278 -206 -338 -396 -338c-166 0 -293 75 -293 270c0 33 4 70 22 172c49 278 208 337 395 337c173 0 293 -75 293 -260c0 -44 -4 -81 -21 -181zM563 341l10 61c6 34 9 62 9 94c0 66 -30 92 -88 92c-77 0 -120 -44 -145 -186l-10 -61c-6 -34 -9 -63 -9 -86
c0 -76 31 -100 88 -100c74 0 121 40 145 186zM802 930l-200 -141h-203l157 141h246z" />
    <glyph glyph-name="Ocircumflex" unicode="&#xd4;" horiz-adv-x="783" 
d="M790 320c-48 -278 -206 -338 -396 -338c-166 0 -293 75 -293 270c0 33 4 70 22 172c49 278 208 337 395 337c173 0 293 -75 293 -260c0 -44 -4 -81 -21 -181zM563 341l10 61c6 34 9 62 9 94c0 66 -30 92 -88 92c-77 0 -120 -44 -145 -186l-10 -61c-6 -34 -9 -63 -9 -86
c0 -76 31 -100 88 -100c74 0 121 40 145 186zM789 789h-178l-65 71l-90 -71h-189l160 141h253z" />
    <glyph glyph-name="Otilde" unicode="&#xd5;" horiz-adv-x="783" 
d="M790 320c-48 -278 -206 -338 -396 -338c-166 0 -293 75 -293 270c0 33 4 70 22 172c49 278 208 337 395 337c173 0 293 -75 293 -260c0 -44 -4 -81 -21 -181zM563 341l10 61c6 34 9 62 9 94c0 66 -30 92 -88 92c-77 0 -120 -44 -145 -186l-10 -61c-6 -34 -9 -63 -9 -86
c0 -76 31 -100 88 -100c74 0 121 40 145 186zM798 952c-24 -132 -93 -165 -159 -165c-28 0 -70 3 -108 24l-41 22c-24 13 -34 18 -45 18c-25 0 -34 -12 -43 -61h-115c23 133 92 168 162 168c31 0 61 -4 95 -22l41 -23c28 -15 41 -21 60 -21c22 0 30 12 39 60h114z" />
    <glyph glyph-name="Odieresis" unicode="&#xd6;" horiz-adv-x="783" 
d="M790 320c-48 -278 -206 -338 -396 -338c-166 0 -293 75 -293 270c0 33 4 70 22 172c49 278 208 337 395 337c173 0 293 -75 293 -260c0 -44 -4 -81 -21 -181zM563 341l10 61c6 34 9 62 9 94c0 66 -30 92 -88 92c-77 0 -120 -44 -145 -186l-10 -61c-6 -34 -9 -63 -9 -86
c0 -76 31 -100 88 -100c74 0 121 40 145 186zM748 792h-169l24 131h169zM482 792l24 131h-170l-24 -131h170z" />
    <glyph glyph-name="multiply" unicode="&#xd7;" horiz-adv-x="676" 
d="M660 244l-109 -106l-145 138l-146 -139l-109 106l146 139l-146 138l109 107l146 -138l146 137l109 -106l-147 -138z" />
    <glyph glyph-name="Oslash" unicode="&#xd8;" horiz-adv-x="783" 
d="M790 320c-48 -278 -206 -338 -396 -338c-70 0 -133 13 -183 43l-43 -47h-135l107 117c-25 40 -39 91 -39 157c0 33 4 70 22 172c49 278 208 337 395 337c76 0 141 -15 191 -47l47 51h134l-112 -123c21 -37 33 -84 33 -141c0 -44 -4 -81 -21 -181zM563 341l10 61
c5 34 9 62 9 94c0 66 -30 92 -88 92c-76 0 -122 -44 -145 -186l-10 -61c-6 -34 -9 -63 -9 -86c0 -76 31 -100 88 -100c74 0 121 40 145 186z" />
    <glyph glyph-name="Ugrave" unicode="&#xd9;" horiz-adv-x="848" 
d="M616 743h319l-27 -150l-45 -4l-59 -332c-34 -193 -156 -275 -369 -275c-202 0 -300 94 -300 253c0 26 3 54 11 100l45 254l-43 4l27 150h319l-27 -150l-45 -4l-50 -288c-5 -29 -8 -52 -8 -72c0 -57 24 -79 86 -79c93 0 113 46 132 151l50 288l-43 4zM686 789h-189
l-150 141h232z" />
    <glyph glyph-name="Uacute" unicode="&#xda;" horiz-adv-x="848" 
d="M616 743h319l-27 -150l-45 -4l-59 -332c-34 -193 -156 -275 -369 -275c-202 0 -300 94 -300 253c0 26 3 54 11 100l45 254l-43 4l27 150h319l-27 -150l-45 -4l-50 -288c-5 -29 -8 -52 -8 -72c0 -57 24 -79 86 -79c93 0 113 46 132 151l50 288l-43 4zM849 930l-200 -141
h-203l157 141h246z" />
    <glyph glyph-name="Ucircumflex" unicode="&#xdb;" horiz-adv-x="848" 
d="M616 743h319l-27 -150l-45 -4l-59 -332c-34 -193 -156 -275 -369 -275c-202 0 -300 94 -300 253c0 26 3 54 11 100l45 254l-43 4l27 150h319l-27 -150l-45 -4l-50 -288c-5 -29 -8 -52 -8 -72c0 -57 24 -79 86 -79c93 0 113 46 132 151l50 288l-43 4zM823 789h-178l-65 71
l-90 -71h-189l160 141h253z" />
    <glyph glyph-name="Udieresis" unicode="&#xdc;" horiz-adv-x="848" 
d="M616 743h319l-27 -150l-45 -4l-59 -332c-34 -193 -156 -275 -369 -275c-202 0 -300 94 -300 253c0 26 3 54 11 100l45 254l-43 4l27 150h319l-27 -150l-45 -4l-50 -288c-5 -29 -8 -52 -8 -72c0 -57 24 -79 86 -79c93 0 113 46 132 151l50 288l-43 4zM779 792h-169l24 131
h169zM513 792l24 131h-170l-24 -131h170z" />
    <glyph glyph-name="Yacute" unicode="&#xdd;" horiz-adv-x="742" 
d="M804 594l-51 -6l-221 -318l-21 -122l43 -6l-25 -142h-319l25 142l49 6l21 121l-110 319l-49 6l27 149h206l47 -175c9 -34 17 -78 20 -110h3c15 33 41 77 61 110l109 175h212zM784 930l-200 -141h-203l157 141h246z" />
    <glyph glyph-name="Thorn" unicode="&#xde;" horiz-adv-x="776" 
d="M811 458c0 -242 -190 -304 -397 -304c-25 0 -46 0 -73 1l-27 -155h-268l26 149l44 5l82 466l-42 5l26 150h268l-18 -104c24 1 47 1 68 1c169 0 311 -49 311 -214zM436 322c84 0 146 23 146 123c0 49 -36 61 -114 61c-22 0 -46 -1 -65 -1l-33 -182c19 -1 43 -1 66 -1z" />
    <glyph glyph-name="germandbls" unicode="&#xdf;" horiz-adv-x="760" 
d="M757 256c0 -173 -122 -269 -302 -269c-34 0 -63 5 -94 9l26 150c20 -1 32 -1 34 -1c80 0 125 37 125 113c0 52 -27 74 -94 74h-32l23 129h32c70 0 118 35 118 112c0 34 -20 56 -84 56c-75 0 -106 -30 -121 -113l-90 -516h-257l26 150l43 5l63 361c30 169 126 271 364 271
c212 0 267 -99 267 -195c0 -86 -40 -149 -123 -191c57 -30 76 -92 76 -145z" />
    <glyph glyph-name="agrave" unicode="&#xe0;" horiz-adv-x="670" 
d="M635 0h-237l6 37c-44 -26 -117 -52 -190 -52c-101 0 -142 57 -142 141c0 14 1 29 8 69c27 150 153 150 319 150h38l5 28c2 11 3 21 3 29c0 33 -19 40 -83 40c-17 0 -32 0 -49 -1l-16 -39h-134l28 154c42 13 146 38 248 38c149 0 224 -53 224 -173c0 -21 -3 -43 -7 -68
l-36 -201l40 -5zM410 135l20 111h-46c-61 0 -90 -7 -100 -62c-3 -16 -5 -30 -5 -41c0 -21 15 -29 40 -29c35 0 75 13 91 21zM588 639h-189l-150 141h232z" />
    <glyph glyph-name="aacute" unicode="&#xe1;" horiz-adv-x="670" 
d="M635 0h-237l6 37c-44 -26 -117 -52 -190 -52c-101 0 -142 57 -142 141c0 14 1 29 8 69c27 150 153 150 319 150h38l5 28c2 11 3 21 3 29c0 33 -19 40 -83 40c-17 0 -32 0 -49 -1l-16 -39h-134l28 154c42 13 146 38 248 38c149 0 224 -53 224 -173c0 -21 -3 -43 -7 -68
l-36 -201l40 -5zM410 135l20 111h-46c-61 0 -90 -7 -100 -62c-3 -16 -5 -30 -5 -41c0 -21 15 -29 40 -29c35 0 75 13 91 21zM735 780l-200 -141h-203l157 141h246z" />
    <glyph glyph-name="acircumflex" unicode="&#xe2;" horiz-adv-x="670" 
d="M635 0h-237l6 37c-44 -26 -117 -52 -190 -52c-101 0 -142 57 -142 141c0 14 1 29 8 69c27 150 153 150 319 150h38l5 28c2 11 3 21 3 29c0 33 -19 40 -83 40c-17 0 -32 0 -49 -1l-16 -39h-134l28 154c42 13 146 38 248 38c149 0 224 -53 224 -173c0 -21 -3 -43 -7 -68
l-36 -201l40 -5zM410 135l20 111h-46c-61 0 -90 -7 -100 -62c-3 -16 -5 -30 -5 -41c0 -21 15 -29 40 -29c35 0 75 13 91 21zM714 639h-178l-65 71l-90 -71h-189l160 141h253z" />
    <glyph glyph-name="atilde" unicode="&#xe3;" horiz-adv-x="670" 
d="M635 0h-237l6 37c-44 -26 -117 -52 -190 -52c-101 0 -142 57 -142 141c0 14 1 29 8 69c27 150 153 150 319 150h38l5 28c2 11 3 21 3 29c0 33 -19 40 -83 40c-17 0 -32 0 -49 -1l-16 -39h-134l28 154c42 13 146 38 248 38c149 0 224 -53 224 -173c0 -21 -3 -43 -7 -68
l-36 -201l40 -5zM410 135l20 111h-46c-61 0 -90 -7 -100 -62c-3 -16 -5 -30 -5 -41c0 -21 15 -29 40 -29c35 0 75 13 91 21zM730 799c-24 -132 -93 -165 -159 -165c-28 0 -70 3 -108 24l-41 22c-24 13 -34 18 -45 18c-25 0 -34 -12 -43 -61h-115c23 133 92 168 162 168
c31 0 61 -4 95 -22l41 -23c28 -15 41 -21 60 -21c22 0 30 12 39 60h114z" />
    <glyph glyph-name="adieresis" unicode="&#xe4;" horiz-adv-x="670" 
d="M635 0h-237l6 37c-44 -26 -117 -52 -190 -52c-101 0 -142 57 -142 141c0 14 1 29 8 69c27 150 153 150 319 150h38l5 28c2 11 3 21 3 29c0 33 -19 40 -83 40c-17 0 -32 0 -49 -1l-16 -39h-134l28 154c42 13 146 38 248 38c149 0 224 -53 224 -173c0 -21 -3 -43 -7 -68
l-36 -201l40 -5zM410 135l20 111h-46c-61 0 -90 -7 -100 -62c-3 -16 -5 -30 -5 -41c0 -21 15 -29 40 -29c35 0 75 13 91 21zM668 645h-169l24 131h169zM402 645l24 131h-170l-24 -131h170z" />
    <glyph glyph-name="aring" unicode="&#xe5;" horiz-adv-x="670" 
d="M635 0h-237l6 37c-44 -26 -117 -52 -190 -52c-101 0 -142 57 -142 141c0 14 1 29 8 69c27 150 153 150 319 150h38l5 28c2 11 3 21 3 29c0 33 -19 40 -83 40c-17 0 -32 0 -49 -1l-16 -39h-134l28 154c42 13 146 38 248 38c149 0 224 -53 224 -173c0 -21 -3 -43 -7 -68
l-36 -201l40 -5zM410 135l20 111h-46c-61 0 -90 -7 -100 -62c-3 -16 -5 -30 -5 -41c0 -21 15 -29 40 -29c35 0 75 13 91 21zM636 752c0 -80 -65 -127 -154 -127c-90 0 -157 47 -157 127c0 81 67 128 157 128c89 0 154 -47 154 -128zM536 753c0 30 -22 45 -54 45
c-33 0 -56 -15 -56 -45s23 -45 56 -45c32 0 54 15 54 45z" />
    <glyph glyph-name="ae" unicode="&#xe6;" horiz-adv-x="1010" 
d="M1005 237h-372l-1 -7c-11 -65 -11 -100 98 -100c62 0 167 3 227 8l-23 -128c-50 -11 -152 -24 -253 -24c-99 0 -177 19 -216 66c-86 -52 -160 -67 -236 -67c-109 0 -158 46 -158 142c0 14 1 29 8 68c28 156 154 150 320 150h38l5 28c10 58 -2 69 -72 69
c-20 0 -40 0 -56 -1l-17 -39h-133l28 154c42 13 145 38 247 38c85 0 132 -12 166 -37c45 24 101 37 173 37c193 0 245 -114 245 -217c0 -39 -8 -97 -18 -140zM815 341l1 7c11 61 5 102 -64 102c-68 0 -89 -42 -99 -102l-1 -7h163zM409 135l20 111h-45c-61 0 -89 -7 -99 -62
l-4 -21c-6 -38 13 -49 43 -49c35 0 69 13 85 21z" />
    <glyph glyph-name="ccedilla" unicode="&#xe7;" horiz-adv-x="576" 
d="M529 9c-42 -10 -114 -24 -210 -24c-157 0 -229 78 -229 212c0 26 3 55 18 141c33 189 130 256 318 256c99 0 177 -15 202 -23l-31 -175h-127l-1 39c-11 1 -26 1 -34 1c-64 0 -96 -18 -114 -118c-13 -76 -15 -94 -15 -108c0 -56 28 -67 82 -67c37 0 86 2 166 6zM433 -60
l-154 -139h-193l124 139h223z" />
    <glyph glyph-name="egrave" unicode="&#xe8;" 
d="M676 237h-372c-4 -22 -6 -35 -6 -46c0 -38 22 -54 105 -54c58 0 169 3 227 8l-23 -133c-50 -12 -139 -27 -241 -27c-186 0 -277 69 -277 217c0 24 2 50 9 88l8 46c35 196 159 258 328 258c205 0 258 -102 258 -230c0 -28 -3 -55 -16 -127zM487 341c4 22 5 36 5 48
c0 38 -16 61 -69 61c-67 0 -88 -42 -99 -109h163zM593 639h-189l-150 141h232z" />
    <glyph glyph-name="eacute" unicode="&#xe9;" 
d="M676 237h-372c-4 -22 -6 -35 -6 -46c0 -38 22 -54 105 -54c58 0 169 3 227 8l-23 -133c-50 -12 -139 -27 -241 -27c-186 0 -277 69 -277 217c0 24 2 50 9 88l8 46c35 196 159 258 328 258c205 0 258 -102 258 -230c0 -28 -3 -55 -16 -127zM487 341c4 22 5 36 5 48
c0 38 -16 61 -69 61c-67 0 -88 -42 -99 -109h163zM724 780l-200 -141h-203l157 141h246z" />
    <glyph glyph-name="ecircumflex" unicode="&#xea;" 
d="M676 237h-372c-4 -22 -6 -35 -6 -46c0 -38 22 -54 105 -54c58 0 169 3 227 8l-23 -133c-50 -12 -139 -27 -241 -27c-186 0 -277 69 -277 217c0 24 2 50 9 88l8 46c35 196 159 258 328 258c205 0 258 -102 258 -230c0 -28 -3 -55 -16 -127zM487 341c4 22 5 36 5 48
c0 38 -16 61 -69 61c-67 0 -88 -42 -99 -109h163zM721 639h-178l-65 71l-90 -71h-189l160 141h253z" />
    <glyph glyph-name="edieresis" unicode="&#xeb;" 
d="M676 237h-372c-4 -22 -6 -35 -6 -46c0 -38 22 -54 105 -54c58 0 169 3 227 8l-23 -133c-50 -12 -139 -27 -241 -27c-186 0 -277 69 -277 217c0 24 2 50 9 88l8 46c35 196 159 258 328 258c205 0 258 -102 258 -230c0 -28 -3 -55 -16 -127zM487 341c4 22 5 36 5 48
c0 38 -16 61 -69 61c-67 0 -88 -42 -99 -109h163zM673 646h-169l24 131h169zM407 646l24 131h-170l-24 -131h170z" />
    <glyph glyph-name="igrave" unicode="&#xec;" horiz-adv-x="386" 
d="M416 639h-189l-150 141h232zM343 0h-300l25 147l42 5l49 276l-40 5l26 146h258l-76 -427l41 -5z" />
    <glyph glyph-name="iacute" unicode="&#xed;" horiz-adv-x="386" 
d="M568 780l-200 -141h-203l157 141h246zM343 0h-300l25 147l42 5l49 276l-40 5l26 146h258l-76 -427l41 -5z" />
    <glyph glyph-name="icircumflex" unicode="&#xee;" horiz-adv-x="386" 
d="M343 0h-300l25 147l42 5l49 276l-40 5l26 146h258l-76 -427l41 -5zM560 639h-178l-65 71l-90 -71h-189l160 141h253z" />
    <glyph glyph-name="idieresis" unicode="&#xef;" horiz-adv-x="386" 
d="M519 645h-169l24 131h169zM253 645l24 131h-170l-24 -131h170zM343 0h-300l25 147l42 5l49 276l-40 5l26 146h258l-76 -427l41 -5z" />
    <glyph glyph-name="eth" unicode="&#xf0;" 
d="M501 558c-19 45 -57 75 -111 94l-120 -80l-38 47l77 53c-22 4 -47 6 -72 6c-10 0 -19 0 -33 -1l20 113c24 2 49 3 68 3c59 0 109 -6 152 -18l83 58l40 -48l-49 -35c129 -55 187 -188 187 -336c0 -261 -104 -428 -357 -428c-171 0 -260 77 -260 220c0 23 2 48 14 115
c35 198 182 248 309 248c33 0 67 -3 90 -11zM467 257l7 40c5 29 6 48 6 55c0 45 -21 61 -64 61c-56 0 -84 -28 -99 -113c-11 -64 -12 -82 -12 -96c0 -48 20 -63 63 -63c56 0 83 27 99 116z" />
    <glyph glyph-name="ntilde" unicode="&#xf1;" horiz-adv-x="753" 
d="M710 0h-258l64 365c2 14 4 25 4 35c0 29 -13 39 -46 39c-28 0 -67 -11 -101 -24l-47 -263l40 -5l-25 -147h-299l25 147l42 5l49 276l-40 6l26 145h243l-9 -47c62 38 132 62 199 62c131 0 163 -65 163 -146c0 -33 -5 -68 -11 -103l-35 -193l41 -5zM749 801
c-24 -132 -93 -165 -159 -165c-28 0 -70 3 -108 24l-41 22c-24 13 -34 18 -45 18c-25 0 -34 -12 -43 -61h-115c23 133 92 168 162 168c31 0 61 -4 95 -22l41 -23c28 -15 41 -21 60 -21c22 0 30 12 39 60h114z" />
    <glyph glyph-name="ograve" unicode="&#xf2;" 
d="M682 242c-36 -200 -158 -257 -330 -257c-166 0 -261 72 -261 213c0 33 2 58 15 139c33 201 158 257 334 257c161 0 257 -73 257 -208c0 -39 -2 -63 -15 -144zM468 262c12 76 14 94 14 113c0 46 -20 63 -62 63c-56 0 -86 -28 -101 -121c-13 -77 -14 -95 -14 -110
c0 -49 15 -66 62 -66c61 0 86 28 101 121zM584 639h-189l-150 141h232z" />
    <glyph glyph-name="oacute" unicode="&#xf3;" 
d="M682 242c-36 -200 -158 -257 -330 -257c-166 0 -261 72 -261 213c0 33 2 58 15 139c33 201 158 257 334 257c161 0 257 -73 257 -208c0 -39 -2 -63 -15 -144zM468 262c12 76 14 94 14 113c0 46 -20 63 -62 63c-56 0 -86 -28 -101 -121c-13 -77 -14 -95 -14 -110
c0 -49 15 -66 62 -66c61 0 86 28 101 121zM722 780l-200 -141h-203l157 141h246z" />
    <glyph glyph-name="ocircumflex" unicode="&#xf4;" 
d="M682 242c-36 -200 -158 -257 -330 -257c-166 0 -261 72 -261 213c0 33 2 58 15 139c33 201 158 257 334 257c161 0 257 -73 257 -208c0 -39 -2 -63 -15 -144zM468 262c12 76 14 94 14 113c0 46 -20 63 -62 63c-56 0 -86 -28 -101 -121c-13 -77 -14 -95 -14 -110
c0 -49 15 -66 62 -66c61 0 86 28 101 121zM715 639h-178l-65 71l-90 -71h-189l160 141h253z" />
    <glyph glyph-name="otilde" unicode="&#xf5;" 
d="M681 242c-36 -200 -158 -257 -330 -257c-166 0 -261 72 -261 213c0 33 2 58 15 139c33 201 158 257 334 257c161 0 257 -73 257 -208c0 -39 -2 -63 -15 -144zM467 262c12 76 14 94 14 113c0 46 -20 63 -62 63c-56 0 -86 -28 -101 -121c-13 -77 -14 -95 -14 -110
c0 -49 15 -66 62 -66c61 0 86 28 101 121zM726 799c-24 -132 -93 -165 -159 -165c-28 0 -70 3 -108 24l-41 22c-24 13 -34 18 -45 18c-25 0 -34 -12 -43 -61h-115c23 133 92 168 162 168c31 0 61 -4 95 -22l41 -23c28 -15 41 -21 60 -21c22 0 30 12 39 60h114z" />
    <glyph glyph-name="odieresis" unicode="&#xf6;" 
d="M682 242c-36 -200 -158 -257 -330 -257c-166 0 -261 72 -261 213c0 33 2 58 15 139c33 201 158 257 334 257c161 0 257 -73 257 -208c0 -39 -2 -63 -15 -144zM468 262c12 76 14 94 14 113c0 46 -20 63 -62 63c-56 0 -86 -28 -101 -121c-13 -77 -14 -95 -14 -110
c0 -49 15 -66 62 -66c61 0 86 28 101 121zM679 646h-169l24 131h169zM413 646l24 131h-170l-24 -131h170z" />
    <glyph glyph-name="divide" unicode="&#xf7;" horiz-adv-x="676" 
d="M514 56h-210v163h210v-163zM669 305v158h-521v-158h521zM514 548h-210v162h210v-162z" />
    <glyph glyph-name="oslash" unicode="&#xf8;" 
d="M682 242c-36 -200 -158 -257 -330 -257c-56 0 -103 8 -142 24l-38 -38h-149l104 101c-24 33 -36 75 -36 126c0 33 2 58 15 139c33 201 158 257 334 257c56 0 104 -9 143 -26l43 41h149l-110 -108c21 -31 32 -69 32 -115c0 -39 -2 -63 -15 -144zM468 262
c12 76 14 94 14 113c0 46 -20 63 -62 63c-56 0 -86 -28 -101 -121c-13 -77 -14 -95 -14 -110c0 -49 15 -66 62 -66c61 0 86 28 101 121z" />
    <glyph glyph-name="ugrave" unicode="&#xf9;" horiz-adv-x="753" 
d="M710 0h-243l8 48c-59 -35 -131 -63 -208 -63c-124 0 -154 74 -154 155c0 32 5 65 10 94l35 195l-40 5l26 145h258l-65 -365c-9 -55 -3 -74 43 -74c27 0 65 11 101 25l46 264l-40 5l26 145h257l-76 -427l41 -6zM611 639h-189l-150 141h232z" />
    <glyph glyph-name="uacute" unicode="&#xfa;" horiz-adv-x="753" 
d="M710 0h-243l8 48c-59 -35 -131 -63 -208 -63c-124 0 -154 74 -154 155c0 32 5 65 10 94l35 195l-40 5l26 145h258l-65 -365c-9 -55 -3 -74 43 -74c27 0 65 11 101 25l46 264l-40 5l26 145h257l-76 -427l41 -6zM751 780l-200 -141h-203l157 141h246z" />
    <glyph glyph-name="ucircumflex" unicode="&#xfb;" horiz-adv-x="753" 
d="M710 0h-243l8 48c-59 -35 -131 -63 -208 -63c-124 0 -154 74 -154 155c0 32 5 65 10 94l35 195l-40 5l26 145h258l-65 -365c-9 -55 -3 -74 43 -74c27 0 65 11 101 25l46 264l-40 5l26 145h257l-76 -427l41 -6zM743 639h-178l-65 71l-90 -71h-189l160 141h253z" />
    <glyph glyph-name="udieresis" unicode="&#xfc;" horiz-adv-x="753" 
d="M710 0h-243l8 48c-59 -35 -131 -63 -208 -63c-124 0 -154 74 -154 155c0 32 5 65 10 94l35 195l-40 5l26 145h258l-65 -365c-9 -55 -3 -74 43 -74c27 0 65 11 101 25l46 264l-40 5l26 145h257l-76 -427l41 -6zM700 646h-169l24 131h169zM434 646l24 131h-170l-24 -131
h170z" />
    <glyph glyph-name="yacute" unicode="&#xfd;" horiz-adv-x="735" 
d="M768 434l-53 -6l-200 -411c-83 -171 -156 -230 -305 -230c-68 0 -136 6 -184 16l23 130c51 -2 75 -2 108 -2c36 0 55 12 75 52l12 26l-78 418l-51 7l26 145h225l21 -268c5 -49 3 -109 4 -154h2c15 45 33 102 54 153l112 269h235zM761 780l-200 -141h-203l157 141h246z
" />
    <glyph glyph-name="thorn" unicode="&#xfe;" horiz-adv-x="719" 
d="M420 782l-41 -238c62 37 125 50 174 50c124 0 184 -64 184 -191c0 -38 -3 -69 -20 -166c-36 -199 -151 -251 -329 -251c-32 0 -69 3 -88 7l-7 -41l40 -5l-26 -146h-299l26 146l42 5l120 678l-42 5l26 147h240zM500 261c15 85 17 103 17 118c0 45 -19 58 -62 58
c-23 0 -49 -4 -82 -17l-48 -272c22 -4 43 -7 65 -7c62 0 92 20 110 120z" />
    <glyph glyph-name="ydieresis" unicode="&#xff;" horiz-adv-x="735" 
d="M768 434l-53 -6l-200 -411c-83 -171 -156 -230 -305 -230c-68 0 -136 6 -184 16l23 130c51 -2 75 -2 108 -2c36 0 55 12 75 52l12 26l-78 418l-51 7l26 145h225l21 -268c5 -49 3 -109 4 -154h2c15 45 33 102 54 153l112 269h235zM701 646h-169l24 131h169zM435 646
l24 131h-170l-24 -131h170z" />
    <glyph glyph-name="Amacron" unicode="&#x100;" horiz-adv-x="856" 
d="M817 0h-253l-12 162h-184l-68 -162h-258l26 150l48 4l193 434l-46 6l27 149h455l51 -589l47 -4zM555 318l-11 188c-1 21 -2 44 -2 66c0 16 1 31 1 45h-5c-7 -26 -25 -76 -39 -111l-78 -188h134zM789 791h-441l20 113h441z" />
    <glyph glyph-name="amacron" unicode="&#x101;" horiz-adv-x="670" 
d="M635 0h-237l6 37c-44 -26 -117 -52 -190 -52c-101 0 -142 57 -142 141c0 14 1 29 8 69c27 150 153 150 319 150h38l5 28c2 11 3 21 3 29c0 33 -19 40 -83 40c-17 0 -32 0 -49 -1l-16 -39h-134l28 154c42 13 146 38 248 38c149 0 224 -53 224 -173c0 -21 -3 -43 -7 -68
l-36 -201l40 -5zM410 135l20 111h-46c-61 0 -90 -7 -100 -62c-3 -16 -5 -30 -5 -41c0 -21 15 -29 40 -29c35 0 75 13 91 21zM687 651h-441l20 113h441z" />
    <glyph glyph-name="Abreve" unicode="&#x102;" horiz-adv-x="856" 
d="M817 0h-253l-12 162h-184l-68 -162h-258l26 150l48 4l193 434l-46 6l27 149h455l51 -589l47 -4zM555 318l-11 188c-1 21 -2 44 -2 66c0 16 1 31 1 45h-5c-7 -26 -25 -76 -39 -111l-78 -188h134zM818 945c-26 -120 -134 -161 -241 -161c-102 0 -199 42 -209 161h115
c5 -59 49 -68 106 -68c47 0 99 14 119 68h110z" />
    <glyph glyph-name="abreve" unicode="&#x103;" horiz-adv-x="670" 
d="M635 0h-237l6 37c-44 -26 -117 -52 -190 -52c-101 0 -142 57 -142 141c0 14 1 29 8 69c27 150 153 150 319 150h38l5 28c2 11 3 21 3 29c0 33 -19 40 -83 40c-17 0 -32 0 -49 -1l-16 -39h-134l28 154c42 13 146 38 248 38c149 0 224 -53 224 -173c0 -21 -3 -43 -7 -68
l-36 -201l40 -5zM410 135l20 111h-46c-61 0 -90 -7 -100 -62c-3 -16 -5 -30 -5 -41c0 -21 15 -29 40 -29c35 0 75 13 91 21zM712 805c-26 -120 -134 -161 -241 -161c-102 0 -199 42 -209 161h115c5 -59 49 -68 106 -68c47 0 99 14 119 68h110z" />
    <glyph glyph-name="Aogonek" unicode="&#x104;" horiz-adv-x="856" 
d="M780 -197c-31 -8 -95 -20 -164 -20c-100 0 -146 32 -146 92c0 67 75 104 144 125h-52l-12 162h-184l-68 -162h-258l26 150l48 4l193 434l-46 6l27 149h455l51 -589l47 -4l-26 -150c-78 -21 -153 -48 -153 -84c0 -16 11 -23 47 -23c30 0 61 3 88 5zM553 318l-11 188
c-1 21 -2 44 -2 66c0 16 1 31 1 45h-5c-7 -26 -25 -76 -39 -111l-78 -188h134z" />
    <glyph glyph-name="aogonek" unicode="&#x105;" horiz-adv-x="670" 
d="M600 -197c-31 -8 -95 -20 -164 -20c-100 0 -146 32 -146 92c0 67 75 104 144 125h-36l6 37c-44 -26 -117 -52 -190 -52c-101 0 -142 57 -142 141c0 14 1 29 8 69c27 150 153 150 319 150h38l5 28c2 11 3 21 3 29c0 33 -19 40 -83 40c-17 0 -32 0 -49 -1l-16 -39h-134
l28 154c42 13 146 38 248 38c149 0 224 -53 224 -173c0 -21 -3 -43 -7 -68l-36 -201l40 -5l-25 -147c-78 -21 -153 -48 -153 -84c0 -16 11 -23 47 -23c30 0 61 3 88 5zM410 135l20 111h-46c-61 0 -90 -7 -100 -62c-3 -16 -5 -30 -5 -41c0 -21 15 -29 40 -29
c35 0 75 13 91 21z" />
    <glyph glyph-name="Cacute" unicode="&#x106;" horiz-adv-x="665" 
d="M619 4c-42 -12 -162 -22 -220 -22c-233 0 -333 103 -285 375l12 68c48 272 178 336 411 336c58 0 174 -10 212 -22l-36 -204h-137l1 51c-14 1 -29 2 -43 2c-95 0 -147 -29 -174 -182l-12 -68c-27 -154 15 -183 110 -183c15 0 29 1 43 1l17 52h137zM798 929l-200 -141
h-203l157 141h246z" />
    <glyph glyph-name="cacute" unicode="&#x107;" horiz-adv-x="576" 
d="M529 9c-42 -10 -114 -24 -210 -24c-157 0 -229 78 -229 212c0 26 3 55 18 141c33 189 130 256 318 256c99 0 177 -15 202 -23l-31 -175h-127l-1 39c-11 1 -26 1 -34 1c-64 0 -96 -18 -114 -118c-13 -76 -15 -94 -15 -108c0 -56 28 -67 82 -67c37 0 86 2 166 6zM706 780
l-200 -141h-203l157 141h246z" />
    <glyph glyph-name="Ccircumflex" unicode="&#x108;" horiz-adv-x="665" 
d="M619 4c-42 -12 -162 -22 -220 -22c-233 0 -333 103 -285 375l12 68c48 272 178 336 411 336c58 0 174 -10 212 -22l-36 -204h-137l1 51c-14 1 -29 2 -43 2c-95 0 -147 -29 -174 -182l-12 -68c-27 -154 15 -183 110 -183c15 0 29 1 43 1l17 52h137zM769 789h-178l-65 71
l-90 -71h-189l160 141h253z" />
    <glyph glyph-name="ccircumflex" unicode="&#x109;" horiz-adv-x="576" 
d="M528 9c-42 -10 -114 -24 -210 -24c-157 0 -229 78 -229 212c0 26 3 55 18 141c33 189 130 256 318 256c99 0 177 -15 202 -23l-31 -175h-127l-1 39c-11 1 -26 1 -34 1c-64 0 -96 -18 -114 -118c-13 -76 -15 -94 -15 -108c0 -56 28 -67 82 -67c37 0 86 2 166 6zM676 639
h-178l-65 71l-90 -71h-189l160 141h253z" />
    <glyph glyph-name="Cdotaccent" unicode="&#x10a;" horiz-adv-x="665" 
d="M619 4c-42 -12 -162 -22 -220 -22c-233 0 -333 103 -285 375l12 68c48 272 178 336 411 336c58 0 174 -10 212 -22l-36 -204h-137l1 51c-14 1 -29 2 -43 2c-95 0 -147 -29 -174 -182l-12 -68c-27 -154 15 -183 110 -183c15 0 29 1 43 1l17 52h137zM624 790h-225l23 130
h225z" />
    <glyph glyph-name="cdotaccent" unicode="&#x10b;" horiz-adv-x="576" 
d="M529 9c-42 -10 -114 -24 -210 -24c-157 0 -229 78 -229 212c0 26 3 55 18 141c33 189 130 256 318 256c99 0 177 -15 202 -23l-31 -175h-127l-1 39c-11 1 -26 1 -34 1c-64 0 -96 -18 -114 -118c-13 -76 -15 -94 -15 -108c0 -56 28 -67 82 -67c37 0 86 2 166 6zM537 651
h-225l23 130h225z" />
    <glyph glyph-name="Ccaron" unicode="&#x10c;" horiz-adv-x="665" 
d="M619 4c-42 -12 -162 -22 -220 -22c-233 0 -333 103 -285 375l12 68c48 272 178 336 411 336c58 0 174 -10 212 -22l-36 -204h-137l1 51c-14 1 -29 2 -43 2c-95 0 -147 -29 -174 -182l-12 -68c-27 -154 15 -183 110 -183c15 0 29 1 43 1l17 52h137zM805 930l-159 -141
h-253l-110 141h179l65 -71l90 71h188z" />
    <glyph glyph-name="ccaron" unicode="&#x10d;" horiz-adv-x="576" 
d="M529 9c-42 -10 -114 -24 -210 -24c-157 0 -229 78 -229 212c0 26 3 55 18 141c33 189 130 256 318 256c99 0 177 -15 202 -23l-31 -175h-127l-1 39c-11 1 -26 1 -34 1c-64 0 -96 -18 -114 -118c-13 -76 -15 -94 -15 -108c0 -56 28 -67 82 -67c37 0 86 2 166 6zM707 780
l-159 -141h-253l-110 141h179l65 -71l90 71h188z" />
    <glyph glyph-name="Dcaron" unicode="&#x10e;" horiz-adv-x="800" 
d="M807 325c-45 -259 -175 -338 -438 -338c-104 0 -225 5 -325 15l26 147l49 7l76 433l-46 7l26 147c102 10 223 14 330 14c219 0 324 -85 324 -251c0 -47 -5 -84 -22 -181zM579 345c16 94 20 123 20 156c0 68 -35 88 -117 88c-18 0 -37 0 -60 -1l-76 -433h60
c112 0 146 37 173 190zM830 929l-159 -141h-253l-110 141h179l65 -71l90 71h188z" />
    <glyph glyph-name="dcaron" unicode="&#x10f;" horiz-adv-x="899" 
d="M1053 782l-144 -268h-152l110 268h186zM677 0h-240l5 30c-46 -26 -104 -45 -174 -45c-116 0 -179 72 -179 203c0 28 3 58 9 91l11 59c35 201 143 256 320 256c39 0 67 -2 92 -6l13 71l-44 4l21 119h261l-111 -630l41 -5zM448 155l49 278c-23 3 -49 6 -67 6
c-62 0 -90 -19 -108 -121l-11 -59c-4 -22 -6 -41 -6 -56c0 -46 19 -61 66 -61c25 0 53 5 77 13z" />
    <glyph glyph-name="Dcroat" unicode="&#x110;" horiz-adv-x="800" 
d="M808 325c-45 -259 -175 -338 -438 -338c-104 0 -225 5 -325 15l26 147l49 7l26 150h-49l26 147h49l24 136l-46 7l26 147c102 10 223 14 330 14c219 0 324 -85 324 -251c0 -47 -5 -84 -22 -181zM580 345c16 94 20 123 20 156c0 68 -35 88 -117 88c-18 0 -37 0 -60 -1
l-24 -135h89l-26 -147h-89l-26 -151h60c112 0 146 37 173 190z" />
    <glyph glyph-name="dcroat" unicode="&#x111;" horiz-adv-x="720" 
d="M747 644l-86 -492l41 -5l-25 -147h-240l5 30c-46 -26 -104 -45 -174 -45c-116 0 -179 72 -179 203c0 28 3 58 9 91l11 59c35 201 143 256 320 256c39 0 67 -2 92 -6l10 56h-165l15 87h165l9 51h217l-9 -51h54l-15 -87h-55zM448 155l49 278c-23 3 -49 6 -67 6
c-62 0 -90 -19 -108 -121l-11 -59c-4 -22 -6 -41 -6 -56c0 -46 19 -61 66 -61c25 0 53 5 77 13z" />
    <glyph glyph-name="Emacron" unicode="&#x112;" horiz-adv-x="676" 
d="M627 0h-582l26 149l43 5l76 435l-41 5l27 149h582l-35 -198h-134l-3 38h-162l-22 -129h283l-27 -151h-283l-25 -143h162l16 40h134zM710 792h-441l20 113h441z" />
    <glyph glyph-name="emacron" unicode="&#x113;" 
d="M676 237h-372c-4 -22 -6 -35 -6 -46c0 -38 22 -54 105 -54c58 0 169 3 227 8l-23 -133c-50 -12 -139 -27 -241 -27c-186 0 -277 69 -277 217c0 24 2 50 9 88l8 46c35 196 159 258 328 258c205 0 258 -102 258 -230c0 -28 -3 -55 -16 -127zM487 341c4 22 5 36 5 48
c0 38 -16 61 -69 61c-67 0 -88 -42 -99 -109h163zM684 649h-441l20 113h441z" />
    <glyph glyph-name="Ebreve" unicode="&#x114;" horiz-adv-x="676" 
d="M627 0h-582l26 149l43 5l76 435l-41 5l27 149h582l-35 -198h-134l-3 38h-162l-22 -129h283l-27 -151h-283l-25 -143h162l16 40h134zM745 944c-26 -120 -134 -161 -241 -161c-102 0 -199 42 -209 161h115c5 -59 49 -68 106 -68c47 0 99 14 119 68h110z" />
    <glyph glyph-name="ebreve" unicode="&#x115;" 
d="M676 237h-372c-4 -22 -6 -35 -6 -46c0 -38 22 -54 105 -54c58 0 169 3 227 8l-23 -133c-50 -12 -139 -27 -241 -27c-186 0 -277 69 -277 217c0 24 2 50 9 88l8 46c35 196 159 258 328 258c205 0 258 -102 258 -230c0 -28 -3 -55 -16 -127zM487 341c4 22 5 36 5 48
c0 38 -16 61 -69 61c-67 0 -88 -42 -99 -109h163zM716 796c-26 -120 -134 -161 -241 -161c-102 0 -199 42 -209 161h115c5 -59 49 -68 106 -68c47 0 99 14 119 68h110z" />
    <glyph glyph-name="Edotaccent" unicode="&#x116;" horiz-adv-x="676" 
d="M627 0h-582l26 149l43 5l76 435l-41 5l27 149h582l-35 -198h-134l-3 38h-162l-22 -129h283l-27 -151h-283l-25 -143h162l16 40h134zM618 792h-225l23 130h225z" />
    <glyph glyph-name="edotaccent" unicode="&#x117;" 
d="M676 237h-372c-4 -22 -6 -35 -6 -46c0 -38 22 -54 105 -54c58 0 169 3 227 8l-23 -133c-50 -12 -139 -27 -241 -27c-186 0 -277 69 -277 217c0 24 2 50 9 88l8 46c35 196 159 258 328 258c205 0 258 -102 258 -230c0 -28 -3 -55 -16 -127zM487 341c4 22 5 36 5 48
c0 38 -16 61 -69 61c-67 0 -88 -42 -99 -109h163zM579 653h-225l23 130h225z" />
    <glyph glyph-name="Eogonek" unicode="&#x118;" horiz-adv-x="676" 
d="M592 -197c-31 -8 -95 -20 -164 -20c-100 0 -146 32 -146 92c0 67 75 104 144 125h-381l26 149l43 5l76 435l-41 5l27 149h582l-35 -198h-134l-3 38h-162l-22 -129h283l-27 -151h-283l-25 -143h162l16 40h134l-35 -200c-78 -21 -153 -48 -153 -84c0 -16 11 -23 47 -23
c30 0 61 3 88 5z" />
    <glyph glyph-name="eogonek" unicode="&#x119;" 
d="M676 237h-372l-1 -7c-3 -15 -5 -28 -5 -39c0 -38 22 -54 105 -54c58 0 169 3 227 8l-23 -133c-78 -21 -154 -60 -154 -96c0 -16 11 -23 47 -23c30 0 61 3 88 5l-17 -95c-31 -8 -95 -20 -164 -20c-100 0 -146 32 -146 92c0 49 39 85 87 110c-174 5 -259 74 -259 217
c0 24 2 50 7 79l10 55c35 196 159 258 328 258c205 0 258 -114 258 -230c0 -28 -3 -55 -8 -82zM487 341c4 22 5 36 5 48c0 38 -16 61 -69 61c-67 0 -88 -42 -98 -102l-1 -7h163z" />
    <glyph glyph-name="Ecaron" unicode="&#x11a;" horiz-adv-x="676" 
d="M627 0h-582l26 149l43 5l76 435l-41 5l27 149h582l-35 -198h-134l-3 38h-162l-22 -129h283l-27 -151h-283l-25 -143h162l16 40h134zM781 930l-159 -141h-253l-110 141h179l65 -71l90 71h188z" />
    <glyph glyph-name="ecaron" unicode="&#x11b;" 
d="M676 237h-372c-4 -22 -6 -35 -6 -46c0 -38 22 -54 105 -54c58 0 169 3 227 8l-23 -133c-50 -12 -139 -27 -241 -27c-186 0 -277 69 -277 217c0 24 2 50 9 88l8 46c35 196 159 258 328 258c205 0 258 -102 258 -230c0 -28 -3 -55 -16 -127zM487 341c4 22 5 36 5 48
c0 38 -16 61 -69 61c-67 0 -88 -42 -99 -109h163zM753 780l-159 -141h-253l-110 141h179l65 -71l90 71h188z" />
    <glyph glyph-name="Gcircumflex" unicode="&#x11c;" horiz-adv-x="740" 
d="M686 7c-65 -12 -179 -25 -296 -25c-157 0 -290 55 -290 262c0 33 4 71 11 112l12 70c56 314 242 335 417 335c106 0 224 -19 270 -31l-34 -194h-135v49c-25 1 -63 2 -91 2c-112 0 -169 -19 -198 -180l-12 -70c-6 -35 -9 -63 -9 -87c0 -74 31 -96 96 -96c24 0 50 1 71 2
l22 122l-65 8l22 123h280zM790 789h-178l-65 71l-90 -71h-189l160 141h253z" />
    <glyph glyph-name="gcircumflex" unicode="&#x11d;" horiz-adv-x="672" 
d="M631 6c0 -192 -173 -220 -343 -220c-166 0 -267 45 -267 155c0 58 26 99 74 137c-21 17 -31 44 -31 70c0 51 31 82 77 105c-19 21 -31 57 -31 100c0 187 140 241 325 241h306l-17 -100l-50 -14c6 -10 12 -35 12 -64c0 -179 -163 -228 -324 -228c-37 0 -78 4 -107 11
c-12 -5 -21 -15 -21 -28c0 -14 8 -17 42 -17h79c186 0 276 -32 276 -148zM310 -95c57 0 113 14 113 83c0 32 -21 37 -92 37h-79c-20 -17 -31 -46 -31 -75c0 -33 23 -45 89 -45zM384 316c64 0 96 34 96 102c0 32 -16 49 -69 49c-65 0 -92 -37 -92 -103c0 -32 16 -48 65 -48z
M706 639h-178l-65 71l-90 -71h-189l160 141h253z" />
    <glyph glyph-name="Gbreve" unicode="&#x11e;" horiz-adv-x="740" 
d="M686 7c-65 -12 -179 -25 -296 -25c-157 0 -290 55 -290 262c0 33 4 71 11 112l12 70c56 314 242 335 417 335c106 0 224 -19 270 -31l-34 -194h-135v49c-25 1 -63 2 -91 2c-112 0 -169 -19 -198 -180l-12 -70c-6 -35 -9 -63 -9 -87c0 -74 31 -96 96 -96c24 0 50 1 71 2
l22 122l-65 8l22 123h280zM785 949c-26 -120 -134 -161 -241 -161c-102 0 -199 42 -209 161h115c5 -59 49 -68 106 -68c47 0 99 14 119 68h110z" />
    <glyph glyph-name="gbreve" unicode="&#x11f;" horiz-adv-x="672" 
d="M631 6c0 -192 -173 -220 -343 -220c-166 0 -267 45 -267 155c0 58 26 99 74 137c-21 17 -31 44 -31 70c0 51 31 82 77 105c-19 21 -31 57 -31 100c0 187 140 241 325 241h306l-17 -100l-50 -14c6 -10 12 -35 12 -64c0 -179 -163 -228 -324 -228c-37 0 -78 4 -107 11
c-12 -5 -21 -15 -21 -28c0 -14 8 -17 42 -17h79c186 0 276 -32 276 -148zM310 -95c57 0 113 14 113 83c0 32 -21 37 -92 37h-79c-20 -17 -31 -46 -31 -75c0 -33 23 -45 89 -45zM384 316c64 0 96 34 96 102c0 32 -16 49 -69 49c-65 0 -92 -37 -92 -103c0 -32 16 -48 65 -48z
M706 796c-26 -120 -134 -161 -241 -161c-102 0 -199 42 -209 161h115c5 -59 49 -68 106 -68c47 0 99 14 119 68h110z" />
    <glyph glyph-name="Gdotaccent" unicode="&#x120;" horiz-adv-x="740" 
d="M686 7c-65 -12 -179 -25 -296 -25c-157 0 -290 55 -290 262c0 33 4 71 11 112l12 70c56 314 242 335 417 335c106 0 224 -19 270 -31l-34 -194h-135v49c-25 1 -63 2 -91 2c-112 0 -169 -19 -198 -180l-12 -70c-6 -35 -9 -63 -9 -87c0 -74 31 -96 96 -96c24 0 50 1 71 2
l22 122l-65 8l22 123h280zM648 792h-225l23 130h225z" />
    <glyph glyph-name="gdotaccent" unicode="&#x121;" horiz-adv-x="672" 
d="M631 6c0 -192 -173 -220 -343 -220c-166 0 -267 45 -267 155c0 58 26 99 74 137c-21 17 -31 44 -31 70c0 51 31 82 77 105c-19 21 -31 57 -31 100c0 187 140 241 325 241h306l-17 -100l-50 -14c6 -10 12 -35 12 -64c0 -179 -163 -228 -324 -228c-37 0 -78 4 -107 11
c-12 -5 -21 -15 -21 -28c0 -14 8 -17 42 -17h79c186 0 276 -32 276 -148zM310 -95c57 0 113 14 113 83c0 32 -21 37 -92 37h-79c-20 -17 -31 -46 -31 -75c0 -33 23 -45 89 -45zM384 316c64 0 96 34 96 102c0 32 -16 49 -69 49c-65 0 -92 -37 -92 -103c0 -32 16 -48 65 -48z
M571 653h-225l23 130h225z" />
    <glyph glyph-name="Gcommaaccent" unicode="&#x122;" horiz-adv-x="740" 
d="M686 7c-65 -12 -179 -25 -296 -25c-157 0 -290 55 -290 262c0 33 4 71 11 112l12 70c56 314 242 335 417 335c106 0 224 -19 270 -31l-34 -194h-135v49c-25 1 -63 2 -91 2c-112 0 -169 -19 -198 -180l-12 -70c-6 -35 -9 -63 -9 -87c0 -74 31 -96 96 -96c24 0 50 1 71 2
l22 122l-65 8l22 123h280zM515 -61l-124 -139h-186l92 139h218z" />
    <glyph glyph-name="gcommaaccent" unicode="&#x123;" horiz-adv-x="672" 
d="M631 6c0 -192 -173 -220 -343 -220c-166 0 -267 45 -267 155c0 58 26 99 74 137c-21 17 -31 44 -31 70c0 51 31 82 77 105c-19 21 -31 57 -31 100c0 187 140 241 325 241h306l-17 -100l-50 -14c6 -10 12 -35 12 -64c0 -179 -163 -228 -324 -228c-37 0 -78 4 -107 11
c-12 -5 -21 -15 -21 -28c0 -14 8 -17 42 -17h79c186 0 276 -32 276 -148zM310 -95c57 0 113 14 113 83c0 32 -21 37 -92 37h-79c-20 -17 -31 -46 -31 -75c0 -33 23 -45 89 -45zM384 316c64 0 96 34 96 102c0 32 -16 49 -69 49c-65 0 -92 -37 -92 -103c0 -32 16 -48 65 -48z
M646 778l-93 -139h-218l124 139h187z" />
    <glyph glyph-name="Hcircumflex" unicode="&#x124;" horiz-adv-x="882" 
d="M645 743h322l-27 -150l-44 -4l-76 -435l42 -4l-26 -150h-322l26 150l45 4l25 142h-234l-25 -142l43 -4l-26 -150h-323l26 150l45 4l76 435l-43 4l27 150h323l-27 -150l-45 -4l-22 -124h234l22 124l-43 4zM839 789h-178l-65 71l-90 -71h-189l160 141h253z" />
    <glyph glyph-name="hcircumflex" unicode="&#x125;" horiz-adv-x="754" 
d="M713 0h-258l64 364c2 13 3 23 3 32c0 33 -15 43 -50 43s-73 -11 -96 -20l-47 -267l40 -5l-25 -147h-299l25 147l42 5l85 479l-40 5l25 146h258l-39 -225c52 24 117 37 172 37c133 0 169 -69 169 -157c0 -29 -4 -60 -10 -92l-35 -193l41 -5zM780 808h-178l-65 71l-90 -71
h-189l160 141h253z" />
    <glyph glyph-name="Hbar" unicode="&#x126;" horiz-adv-x="882" 
d="M645 743h322l-27 -150l-44 -4l-6 -34h43l-8 -48h-43l-62 -353l42 -4l-26 -150h-322l26 150l45 4l25 142h-234l-25 -142l43 -4l-26 -150h-323l26 150l45 4l62 353h-44l8 48h44l6 34l-43 4l27 150h323l-27 -150l-45 -4l-6 -34h234l6 34l-43 4zM405 465h234l8 42h-234z" />
    <glyph glyph-name="hbar" unicode="&#x127;" horiz-adv-x="754" 
d="M153 638l17 94h48l8 50h216l-8 -50h164l-17 -94h-164l-14 -81c52 24 117 37 173 37c133 0 169 -69 169 -157c0 -29 -4 -60 -12 -106l-33 -179l40 -5l-25 -147h-258l64 364c2 13 3 24 3 33c0 32 -14 42 -50 42c-34 0 -72 -11 -96 -20l-47 -267l41 -5l-25 -147h-299l25 147
l42 5l86 486h-48z" />
    <glyph glyph-name="Itilde" unicode="&#x128;" horiz-adv-x="415" 
d="M367 0h-323l26 150l45 4l76 435l-43 4l27 150h323l-27 -150l-45 -4l-76 -435l43 -4zM614 950c-24 -132 -93 -165 -159 -165c-28 0 -70 3 -108 24l-41 22c-24 13 -34 18 -45 18c-25 0 -34 -12 -43 -61h-115c23 133 92 168 162 168c31 0 61 -4 95 -22l41 -23
c28 -15 41 -21 60 -21c22 0 30 12 39 60h114z" />
    <glyph glyph-name="itilde" unicode="&#x129;" horiz-adv-x="386" 
d="M561 800c-24 -132 -93 -165 -159 -165c-28 0 -70 3 -108 24l-41 22c-24 13 -34 18 -45 18c-25 0 -34 -12 -43 -61h-115c23 133 92 168 162 168c31 0 61 -4 95 -22l41 -23c28 -15 41 -21 60 -21c22 0 30 12 39 60h114zM343 0h-300l25 147l42 5l49 276l-40 5l26 146h258
l-76 -427l41 -5z" />
    <glyph glyph-name="Imacron" unicode="&#x12a;" horiz-adv-x="415" 
d="M367 0h-323l26 150l45 4l76 435l-43 4l27 150h323l-27 -150l-45 -4l-76 -435l43 -4zM564 792h-441l20 113h441z" />
    <glyph glyph-name="imacron" unicode="&#x12b;" horiz-adv-x="386" 
d="M516 651h-441l20 113h441zM343 0h-300l25 147l42 5l49 276l-40 5l26 146h258l-76 -427l41 -5z" />
    <glyph glyph-name="Ibreve" unicode="&#x12c;" horiz-adv-x="415" 
d="M367 0h-323l26 150l45 4l76 435l-43 4l27 150h323l-27 -150l-45 -4l-76 -435l43 -4zM591 946c-26 -120 -134 -161 -241 -161c-102 0 -199 42 -209 161h115c5 -59 49 -68 106 -68c47 0 99 14 119 68h110z" />
    <glyph glyph-name="ibreve" unicode="&#x12d;" horiz-adv-x="386" 
d="M549 796c-26 -120 -134 -161 -241 -161c-102 0 -199 42 -209 161h115c5 -59 49 -68 106 -68c47 0 99 14 119 68h110zM343 0h-300l25 147l42 5l49 276l-40 5l26 146h258l-76 -427l41 -5z" />
    <glyph glyph-name="Iogonek" unicode="&#x12e;" horiz-adv-x="415" 
d="M334 -197c-31 -8 -95 -20 -164 -20c-100 0 -146 32 -146 92c0 67 75 104 144 125h-122l26 150l45 4l76 435l-43 4l27 150h323l-27 -150l-45 -4l-76 -435l43 -4l-26 -150c-78 -21 -153 -48 -153 -84c0 -16 11 -23 47 -23c30 0 61 3 88 5z" />
    <glyph glyph-name="iogonek" unicode="&#x12f;" horiz-adv-x="386" 
d="M308 -197c-31 -8 -95 -20 -164 -20c-100 0 -146 32 -146 92c0 67 75 104 144 125h-99l25 147l42 5l49 276l-40 5l26 146h258l-76 -427l41 -5l-25 -147c-78 -21 -153 -48 -153 -84c0 -16 11 -23 47 -23c30 0 61 3 88 5zM420 647h-226l23 135h226z" />
    <glyph glyph-name="Idotaccent" unicode="&#x130;" horiz-adv-x="415" 
d="M368 0h-323l26 150l45 4l76 435l-43 4l27 150h323l-27 -150l-45 -4l-76 -435l43 -4zM459 793h-225l23 130h225z" />
    <glyph glyph-name="dotlessi" unicode="&#x131;" horiz-adv-x="386" 
d="M343 0h-300l25 147l42 5l49 276l-40 5l26 146h258l-76 -427l41 -5z" />
    <glyph glyph-name="IJ" unicode="&#x132;" horiz-adv-x="784" 
d="M843 593l-44 -4l-105 -596c-26 -150 -109 -207 -257 -207c-33 0 -77 3 -110 10l23 131h47c45 0 54 15 61 56l106 606l-43 4l27 150h322zM367 0h-322l26 150l45 4l76 435l-43 4l27 150h322l-27 -150l-44 -4l-76 -435l42 -4z" />
    <glyph glyph-name="ij" unicode="&#x133;" horiz-adv-x="697" 
d="M343 0h-300l25 147l42 5l49 276l-40 5l26 146h258l-76 -427l41 -5zM420 647h-226l23 135h226zM634 -20c-26 -149 -95 -195 -241 -195c-48 0 -93 5 -111 9l23 130h53c42 0 51 12 59 56l79 449l-40 5l26 145h258zM756 647h-226l23 135h226z" />
    <glyph glyph-name="Jcircumflex" unicode="&#x134;" horiz-adv-x="413" 
d="M470 593l-45 -4l-105 -595c-26 -150 -109 -207 -257 -207c-36 0 -82 4 -108 10l23 131h45c45 0 53 14 61 56l106 605l-43 4l27 150h323zM605 789h-178l-65 71l-90 -71h-189l160 141h253z" />
    <glyph glyph-name="jcircumflex" unicode="&#x135;" horiz-adv-x="362" 
d="M298 -20c-26 -147 -94 -195 -239 -195c-51 0 -93 5 -113 10l23 130c21 -1 36 -1 54 -1c41 0 51 12 59 56l78 444l-41 5l27 150h258zM563 639h-178l-65 71l-90 -71h-189l160 141h253z" />
    <glyph glyph-name="Kcommaaccent" unicode="&#x136;" horiz-adv-x="821" 
d="M346 154l45 -4l-26 -150h-323l26 150l43 4l76 435l-41 4l27 150h323l-27 -150l-45 -4l-34 -187l283 341h234l-27 -150l-50 -4l-207 -224l114 -211l63 -4l-26 -150h-247l-148 339zM525 -62l-124 -139h-186l92 139h218z" />
    <glyph glyph-name="kcommaaccent" unicode="&#x137;" horiz-adv-x="705" 
d="M664 0h-209l-108 260l-45 -260h-257l25 147l42 5l85 479l-40 5l25 146h257l-80 -456l203 253h202l-26 -147l-64 -7l-116 -125l79 -145l53 -7zM468 -60l-124 -139h-186l92 139h218z" />
    <glyph glyph-name="kgreenlandic" unicode="&#x138;" horiz-adv-x="705" 
d="M662 0h-209l-108 260l-45 -260h-257l25 147l42 5l49 276l-40 5l25 146h257l-44 -253l203 253h202l-26 -147l-64 -7l-116 -125l79 -145l53 -7z" />
    <glyph glyph-name="Lacute" unicode="&#x139;" horiz-adv-x="627" 
d="M589 0h-544l26 150l43 4l76 435l-41 4l27 150h321l-27 -150l-44 -4l-74 -421h122l19 53h134zM729 930l-200 -141h-203l157 141h246z" />
    <glyph glyph-name="lacute" unicode="&#x13a;" horiz-adv-x="385" 
d="M341 0h-299l25 147l42 5l85 479l-40 5l25 146h258l-111 -630l40 -5zM605 953l-200 -141h-203l157 141h246z" />
    <glyph glyph-name="Lcommaaccent" unicode="&#x13b;" horiz-adv-x="627" 
d="M589 0h-544l26 150l43 4l76 435l-41 4l27 150h321l-27 -150l-44 -4l-74 -421h122l19 53h134zM429 -60l-124 -139h-186l92 139h218z" />
    <glyph glyph-name="lcommaaccent" unicode="&#x13c;" horiz-adv-x="385" 
d="M341 0h-299l25 147l42 5l85 479l-40 5l25 146h258l-111 -630l40 -5zM296 -60l-124 -139h-186l92 139h218z" />
    <glyph glyph-name="Lcaron" unicode="&#x13d;" horiz-adv-x="657" 
d="M808 771l-136 -271h-158l101 271h193zM589 0h-544l26 150l43 4l76 435l-41 4l27 150h321l-27 -150l-44 -4l-74 -421h122l19 53h134z" />
    <glyph glyph-name="lcaron" unicode="&#x13e;" horiz-adv-x="575" 
d="M340 0h-299l25 147l43 5l85 479l-41 5l25 146h258l-111 -630l40 -5zM722 782l-144 -268h-152l110 268h186z" />
    <glyph glyph-name="Ldot" unicode="&#x13f;" horiz-adv-x="627" 
d="M623 330h-150l26 151h150zM589 0h-544l26 150l43 4l76 435l-41 4l27 150h321l-27 -150l-44 -4l-74 -421h122l19 53h134z" />
    <glyph glyph-name="ldot" unicode="&#x140;" horiz-adv-x="552" 
d="M342 0h-300l25 147l43 5l85 479l-41 5l25 146h258l-111 -630l41 -5zM601 282h-202l31 176h202z" />
    <glyph glyph-name="Lslash" unicode="&#x141;" horiz-adv-x="627" 
d="M69 230l19 108l64 32l38 219l-41 4l27 150h321l-27 -150l-44 -4l-15 -88l99 50l-19 -108l-99 -50l-40 -225h122l19 53h134l-38 -221h-544l26 150l43 4l19 108z" />
    <glyph glyph-name="lslash" unicode="&#x142;" horiz-adv-x="385" 
d="M72 239l19 112l63 46l41 234l-40 5l25 146h258l-35 -199l57 42l-20 -112l-56 -42l-57 -319l40 -5l-25 -147h-299l25 147l42 5l24 133z" />
    <glyph glyph-name="Nacute" unicode="&#x143;" horiz-adv-x="854" 
d="M640 743h300l-27 -150l-45 -4l-103 -589h-226l-137 322c-10 25 -24 59 -33 88h-3c-4 -36 -9 -79 -15 -114l-25 -142l43 -4l-26 -150h-298l26 150l43 4l76 435l-41 4l27 150h261l142 -317c13 -30 25 -65 34 -93h2c3 34 11 85 17 120l24 136l-43 4zM854 930l-200 -141h-203
l157 141h246z" />
    <glyph glyph-name="nacute" unicode="&#x144;" horiz-adv-x="753" 
d="M710 0h-258l64 365c2 14 4 25 4 35c0 29 -13 39 -46 39c-28 0 -67 -11 -101 -24l-47 -263l40 -5l-25 -147h-299l25 147l42 5l49 276l-40 6l26 145h243l-9 -47c62 38 132 62 199 62c131 0 163 -65 163 -146c0 -33 -5 -68 -11 -103l-35 -193l41 -5zM751 780l-200 -141h-203
l157 141h246z" />
    <glyph glyph-name="Ncommaaccent" unicode="&#x145;" horiz-adv-x="854" 
d="M640 743h300l-27 -150l-45 -4l-103 -589h-226l-137 322c-10 25 -24 59 -33 88h-3c-4 -36 -9 -79 -15 -114l-25 -142l43 -4l-26 -150h-298l26 150l43 4l76 435l-41 4l27 150h261l142 -317c13 -30 25 -65 34 -93h2c3 34 11 85 17 120l24 136l-43 4zM545 -62l-124 -139h-186
l92 139h218z" />
    <glyph glyph-name="ncommaaccent" unicode="&#x146;" horiz-adv-x="753" 
d="M710 0h-258l64 365c2 14 4 25 4 35c0 29 -13 39 -46 39c-28 0 -67 -11 -101 -24l-47 -263l40 -5l-25 -147h-299l25 147l42 5l49 276l-40 6l26 145h243l-9 -47c62 38 132 62 199 62c131 0 163 -65 163 -146c0 -33 -5 -68 -11 -103l-35 -193l41 -5zM491 -60l-124 -139h-186
l92 139h218z" />
    <glyph glyph-name="Ncaron" unicode="&#x147;" horiz-adv-x="854" 
d="M640 743h300l-27 -150l-45 -4l-103 -589h-226l-137 322c-10 25 -24 59 -33 88h-3c-4 -36 -9 -79 -15 -114l-25 -142l43 -4l-26 -150h-298l26 150l43 4l76 435l-41 4l27 150h261l142 -317c13 -30 25 -65 34 -93h2c3 34 11 85 17 120l24 136l-43 4zM857 930l-159 -141h-253
l-110 141h179l65 -71l90 71h188z" />
    <glyph glyph-name="ncaron" unicode="&#x148;" horiz-adv-x="753" 
d="M710 0h-258l64 365c2 14 4 25 4 35c0 29 -13 39 -46 39c-28 0 -67 -11 -101 -24l-47 -263l40 -5l-25 -147h-299l25 147l42 5l49 276l-40 6l26 145h243l-9 -47c62 38 132 62 199 62c131 0 163 -65 163 -146c0 -33 -5 -68 -11 -103l-35 -193l41 -5zM769 780l-159 -141h-253
l-110 141h179l65 -71l90 71h188z" />
    <glyph glyph-name="napostrophe" unicode="&#x149;" horiz-adv-x="944" 
d="M903 0h-258l64 365c2 14 4 25 4 35c0 29 -13 39 -46 39c-28 0 -67 -11 -101 -24l-47 -263l40 -5l-25 -147h-299l25 147l42 5l49 276l-40 6l26 145h243l-9 -47c62 38 132 62 199 62c131 0 163 -65 163 -146c0 -33 -5 -68 -11 -103l-35 -193l41 -5zM413 782l-152 -268h-148
l114 268h186z" />
    <glyph glyph-name="Eng" unicode="&#x14a;" horiz-adv-x="854" 
d="M640 743h300l-27 -150l-45 -4l-105 -595c-26 -150 -109 -207 -257 -207c-36 0 -83 4 -109 10l23 131h46c45 0 62 14 70 56l3 16l-137 322c-10 25 -24 59 -33 88h-3c-4 -36 -9 -79 -15 -114l-25 -142l43 -4l-26 -150h-298l26 150l43 4l76 435l-41 4l27 150h261l142 -317
c13 -30 25 -65 34 -93h2c3 34 11 85 17 120l24 136l-43 4z" />
    <glyph glyph-name="eng" unicode="&#x14b;" horiz-adv-x="742" 
d="M665 -20c-26 -147 -96 -195 -241 -195c-44 0 -91 6 -113 10l23 130c21 -1 37 -1 57 -1c39 0 49 12 57 56l68 385c2 14 4 26 4 35c0 29 -13 39 -47 39c-25 0 -62 -10 -100 -24l-47 -263l40 -5l-25 -147h-299l25 147l43 5l49 275l-41 5l26 147h242l-9 -47
c62 38 133 62 205 62c128 0 159 -70 159 -150c0 -33 -5 -67 -11 -99z" />
    <glyph glyph-name="Omacron" unicode="&#x14c;" horiz-adv-x="783" 
d="M790 320c-48 -278 -206 -338 -396 -338c-166 0 -293 75 -293 270c0 33 4 70 22 172c49 278 208 337 395 337c173 0 293 -75 293 -260c0 -44 -4 -81 -21 -181zM563 341l10 61c6 34 9 62 9 94c0 66 -30 92 -88 92c-77 0 -120 -44 -145 -186l-10 -61c-6 -34 -9 -63 -9 -86
c0 -76 31 -100 88 -100c74 0 121 40 145 186zM751 792h-441l20 113h441z" />
    <glyph glyph-name="omacron" unicode="&#x14d;" 
d="M682 242c-36 -200 -158 -257 -330 -257c-166 0 -261 72 -261 213c0 33 2 58 15 139c33 201 158 257 334 257c161 0 257 -73 257 -208c0 -39 -2 -63 -15 -144zM468 262c12 76 14 94 14 113c0 46 -20 63 -62 63c-56 0 -86 -28 -101 -121c-13 -77 -14 -95 -14 -110
c0 -49 15 -66 62 -66c61 0 86 28 101 121zM677 651h-441l20 113h441z" />
    <glyph glyph-name="Obreve" unicode="&#x14e;" horiz-adv-x="783" 
d="M790 320c-48 -278 -206 -338 -396 -338c-166 0 -293 75 -293 270c0 33 4 70 22 172c49 278 208 337 395 337c173 0 293 -75 293 -260c0 -44 -4 -81 -21 -181zM563 341l10 61c6 34 9 62 9 94c0 66 -30 92 -88 92c-77 0 -120 -44 -145 -186l-10 -61c-6 -34 -9 -63 -9 -86
c0 -76 31 -100 88 -100c74 0 121 40 145 186zM780 949c-26 -120 -134 -161 -241 -161c-102 0 -199 42 -209 161h115c5 -59 49 -68 106 -68c47 0 99 14 119 68h110z" />
    <glyph glyph-name="obreve" unicode="&#x14f;" 
d="M682 242c-36 -200 -158 -257 -330 -257c-166 0 -261 72 -261 213c0 33 2 58 15 139c33 201 158 257 334 257c161 0 257 -73 257 -208c0 -39 -2 -63 -15 -144zM468 262c12 76 14 94 14 113c0 46 -20 63 -62 63c-56 0 -86 -28 -101 -121c-13 -77 -14 -95 -14 -110
c0 -49 15 -66 62 -66c61 0 86 28 101 121zM712 796c-26 -120 -134 -161 -241 -161c-102 0 -199 42 -209 161h115c5 -59 49 -68 106 -68c47 0 99 14 119 68h110z" />
    <glyph glyph-name="Ohungarumlaut" unicode="&#x150;" horiz-adv-x="783" 
d="M790 320c-48 -278 -206 -338 -396 -338c-166 0 -293 75 -293 270c0 33 4 70 22 172c49 278 208 337 395 337c173 0 293 -75 293 -260c0 -44 -4 -81 -21 -181zM563 341l10 61c6 34 9 62 9 94c0 66 -30 92 -88 92c-77 0 -120 -44 -145 -186l-10 -61c-6 -34 -9 -63 -9 -86
c0 -76 31 -100 88 -100c74 0 121 40 145 186zM961 925l-199 -141h-180l157 141h222zM653 925h-222l-157 -141h179z" />
    <glyph glyph-name="ohungarumlaut" unicode="&#x151;" 
d="M682 242c-36 -200 -158 -257 -330 -257c-166 0 -261 72 -261 213c0 33 2 58 15 139c33 201 158 257 334 257c161 0 257 -73 257 -208c0 -39 -2 -63 -15 -144zM468 262c12 76 14 94 14 113c0 46 -20 63 -62 63c-56 0 -86 -28 -101 -121c-13 -77 -14 -95 -14 -110
c0 -49 15 -66 62 -66c61 0 86 28 101 121zM888 779l-199 -141h-180l157 141h222zM580 779h-222l-157 -141h179z" />
    <glyph glyph-name="OE" unicode="&#x152;" horiz-adv-x="1068" 
d="M1011 0h-452c-59 -9 -123 -18 -180 -18c-156 0 -279 71 -279 269c0 32 3 67 10 106l12 68c49 279 213 335 394 335c56 0 118 -6 173 -17h453l-35 -198h-135l-2 38h-162l-22 -129h283l-27 -151h-283l-25 -143h162l15 40h135zM505 160c0 0 21 123 74 422c-31 4 -51 6 -79 6
c-79 0 -123 -40 -148 -184l-12 -67c-6 -33 -8 -59 -8 -82c0 -77 32 -101 92 -101c26 0 41 1 81 6z" />
    <glyph glyph-name="oe" unicode="&#x153;" horiz-adv-x="1054" 
d="M1047 237h-371c-4 -23 -5 -37 -5 -49c0 -38 19 -58 102 -58c62 0 167 3 227 8l-23 -128c-50 -11 -153 -24 -254 -24c-90 0 -152 20 -189 53c-53 -36 -117 -54 -196 -54c-159 0 -251 67 -251 223c0 23 3 47 7 74l9 55c34 205 159 257 342 257c79 0 140 -16 178 -53
c51 37 119 53 197 53c193 0 245 -110 245 -223c0 -27 -8 -83 -18 -134zM858 341c4 22 5 36 5 48c0 38 -16 61 -68 61c-67 0 -88 -41 -100 -109h163zM466 262l8 47c5 30 6 48 6 63c0 49 -19 66 -62 66c-56 0 -86 -28 -101 -121l-9 -55c-4 -22 -5 -40 -5 -55
c0 -49 19 -66 62 -66c56 0 86 28 101 121z" />
    <glyph glyph-name="Racute" unicode="&#x154;" horiz-adv-x="798" 
d="M356 0h-312l26 150l45 4l76 435l-43 4l27 150c91 7 205 12 323 12c185 0 322 -39 322 -210c0 -106 -43 -191 -148 -249l57 -142l54 -4l-26 -150h-210l-95 250h-96l-17 -96l43 -4zM447 406c93 0 145 18 145 115c0 60 -34 69 -114 69c-23 0 -38 0 -63 -1l-32 -182
c21 -1 42 -1 64 -1zM821 930l-200 -141h-203l157 141h246z" />
    <glyph glyph-name="racute" unicode="&#x155;" horiz-adv-x="497" 
d="M540 419c-59 0 -120 -7 -168 -16l-45 -251l40 -5l-25 -147h-299l25 147l42 5l49 277l-40 5l26 145h240l-9 -48c68 56 141 63 195 63zM658 780l-200 -141h-203l157 141h246z" />
    <glyph glyph-name="Rcommaaccent" unicode="&#x156;" horiz-adv-x="798" 
d="M356 0h-312l26 150l45 4l76 435l-43 4l27 150c91 7 205 12 323 12c185 0 322 -39 322 -210c0 -106 -43 -191 -148 -249l57 -142l54 -4l-26 -150h-210l-95 250h-96l-17 -96l43 -4zM447 406c93 0 145 18 145 115c0 60 -34 69 -114 69c-23 0 -38 0 -63 -1l-32 -182
c21 -1 42 -1 64 -1zM518 -62l-124 -139h-186l92 139h218z" />
    <glyph glyph-name="rcommaaccent" unicode="&#x157;" horiz-adv-x="497" 
d="M540 419c-59 0 -120 -7 -168 -16l-45 -251l40 -5l-25 -147h-299l25 147l42 5l49 277l-40 5l26 145h240l-9 -48c68 56 141 63 195 63zM362 -60l-124 -139h-186l92 139h218z" />
    <glyph glyph-name="Rcaron" unicode="&#x158;" horiz-adv-x="798" 
d="M356 0h-312l26 150l45 4l76 435l-43 4l27 150c91 7 205 12 323 12c185 0 322 -39 322 -210c0 -106 -43 -191 -148 -249l57 -142l54 -4l-26 -150h-210l-95 250h-96l-17 -96l43 -4zM447 406c93 0 145 18 145 115c0 60 -34 69 -114 69c-23 0 -38 0 -63 -1l-32 -182
c21 -1 42 -1 64 -1zM820 930l-159 -141h-253l-110 141h179l65 -71l90 71h188z" />
    <glyph glyph-name="rcaron" unicode="&#x159;" horiz-adv-x="497" 
d="M540 419c-59 0 -120 -7 -168 -16l-45 -251l40 -5l-25 -147h-299l25 147l42 5l49 277l-40 5l26 145h240l-9 -48c68 56 141 63 195 63zM652 780l-159 -141h-253l-110 141h179l65 -71l90 71h188z" />
    <glyph glyph-name="Sacute" unicode="&#x15a;" horiz-adv-x="688" 
d="M581 603c-33 1 -69 1 -100 1c-40 0 -108 -5 -108 -64c0 -23 16 -40 66 -61l86 -35c106 -44 160 -99 160 -197c0 -194 -142 -265 -341 -265c-112 0 -219 11 -275 25l33 186h135v-51c34 -1 68 -1 101 -1c63 0 109 13 109 66c0 35 -16 49 -68 72l-90 39
c-88 38 -151 96 -151 197c0 204 172 246 358 246c103 0 203 -16 253 -27l-32 -180h-134zM765 930l-200 -141h-203l157 141h246z" />
    <glyph glyph-name="sacute" unicode="&#x15b;" horiz-adv-x="592" 
d="M221 122c20 -1 39 -2 59 -2c33 0 82 3 82 48c0 19 -16 26 -65 48l-40 18c-95 43 -141 91 -141 175c0 164 139 185 285 185c89 0 185 -12 226 -24l-26 -146h-134l-4 35c-19 1 -43 1 -59 1c-33 0 -75 0 -75 -32c0 -25 18 -30 57 -49l49 -23c106 -49 145 -83 145 -173
c0 -160 -158 -197 -312 -197c-82 0 -175 13 -212 22l27 153h136zM681 780l-200 -141h-203l157 141h246z" />
    <glyph glyph-name="Scircumflex" unicode="&#x15c;" horiz-adv-x="688" 
d="M581 603c-33 1 -69 1 -100 1c-40 0 -108 -5 -108 -64c0 -23 16 -40 66 -61l86 -35c106 -44 160 -99 160 -197c0 -194 -142 -265 -341 -265c-112 0 -219 11 -275 25l33 186h135v-51c34 -1 68 -1 101 -1c63 0 109 13 109 66c0 35 -16 49 -68 72l-90 39
c-88 38 -151 96 -151 197c0 204 172 246 358 246c103 0 203 -16 253 -27l-32 -180h-134zM745 789h-178l-65 71l-90 -71h-189l160 141h253z" />
    <glyph glyph-name="scircumflex" unicode="&#x15d;" horiz-adv-x="592" 
d="M221 122c20 -1 39 -2 59 -2c33 0 82 3 82 48c0 19 -16 26 -65 48l-40 18c-95 43 -141 91 -141 175c0 164 139 185 285 185c89 0 185 -12 226 -24l-26 -146h-134l-4 35c-19 1 -43 1 -59 1c-33 0 -75 0 -75 -32c0 -25 18 -30 57 -49l49 -23c106 -49 145 -83 145 -173
c0 -160 -158 -197 -312 -197c-82 0 -175 13 -212 22l27 153h136zM677 639h-178l-65 71l-90 -71h-189l160 141h253z" />
    <glyph glyph-name="Scedilla" unicode="&#x15e;" horiz-adv-x="688" 
d="M581 603c-33 1 -69 1 -100 1c-40 0 -108 -5 -108 -64c0 -23 16 -40 66 -61l86 -35c106 -44 160 -99 160 -197c0 -194 -142 -265 -341 -265c-112 0 -219 11 -275 25l33 186h135v-51c34 -1 68 -1 101 -1c63 0 109 13 109 66c0 35 -16 49 -68 72l-90 39
c-88 38 -151 96 -151 197c0 204 172 246 358 246c103 0 203 -16 253 -27l-32 -180h-134zM463 -62l-154 -139h-193l124 139h223z" />
    <glyph glyph-name="scedilla" unicode="&#x15f;" horiz-adv-x="592" 
d="M221 122c20 -1 39 -2 59 -2c33 0 82 3 82 48c0 19 -16 26 -65 48l-40 18c-95 43 -141 91 -141 175c0 164 139 185 285 185c89 0 185 -12 226 -24l-26 -146h-134l-4 35c-19 1 -43 1 -59 1c-33 0 -75 0 -75 -32c0 -25 18 -30 57 -49l49 -23c106 -49 145 -83 145 -173
c0 -160 -158 -197 -312 -197c-82 0 -175 13 -212 22l27 153h136zM417 -61l-154 -139h-193l124 139h223z" />
    <glyph glyph-name="Scaron" unicode="&#x160;" horiz-adv-x="688" 
d="M581 603c-33 1 -69 1 -100 1c-40 0 -108 -5 -108 -64c0 -23 16 -40 66 -61l86 -35c106 -44 160 -99 160 -197c0 -194 -142 -265 -341 -265c-112 0 -219 11 -275 25l33 186h135v-51c34 -1 68 -1 101 -1c63 0 109 13 109 66c0 35 -16 49 -68 72l-90 39
c-88 38 -151 96 -151 197c0 204 172 246 358 246c103 0 203 -16 253 -27l-32 -180h-134zM769 930l-159 -141h-253l-110 141h179l65 -71l90 71h188z" />
    <glyph glyph-name="scaron" unicode="&#x161;" horiz-adv-x="592" 
d="M221 122c20 -1 39 -2 59 -2c33 0 82 3 82 48c0 19 -16 26 -65 48l-40 18c-95 43 -141 91 -141 175c0 164 139 185 285 185c89 0 185 -12 226 -24l-26 -146h-134l-4 35c-19 1 -43 1 -59 1c-33 0 -75 0 -75 -32c0 -25 18 -30 57 -49l49 -23c106 -49 145 -83 145 -173
c0 -160 -158 -197 -312 -197c-82 0 -175 13 -212 22l27 153h136zM692 780l-159 -141h-253l-110 141h179l65 -71l90 71h188z" />
    <glyph glyph-name="Tcommaaccent" unicode="&#x162;" horiz-adv-x="737" 
d="M791 536h-128l-2 46h-71l-76 -429l44 -4l-26 -149h-323l26 149l44 4l76 429h-71l-18 -46h-128l37 207h653zM477 -62l-124 -139h-186l92 139h218z" />
    <glyph glyph-name="tcommaaccent" unicode="&#x163;" horiz-adv-x="493" 
d="M458 2c-15 -4 -76 -17 -142 -17c-132 0 -183 53 -159 189l46 260l-92 9l24 136h94l24 138h216l-24 -138h117l-26 -145h-117l-46 -259c-7 -40 -6 -50 34 -50c25 0 61 2 73 3zM378 -60l-124 -139h-186l92 139h218z" />
    <glyph glyph-name="Tcaron" unicode="&#x164;" horiz-adv-x="737" 
d="M791 536h-128l-2 46h-71l-76 -429l44 -4l-26 -149h-323l26 149l44 4l76 429h-71l-18 -46h-128l37 207h653zM793 930l-159 -141h-253l-110 141h179l65 -71l90 71h188z" />
    <glyph glyph-name="tcaron" unicode="&#x165;" horiz-adv-x="568" 
d="M719 777l-98 -166h-130l68 166h160zM467 2c-15 -4 -76 -17 -142 -17c-132 0 -183 53 -159 189l46 260l-92 9l24 136h94l24 138h216l-24 -138h117l-26 -145h-117l-46 -259c-7 -40 -6 -50 34 -50c25 0 61 2 73 3z" />
    <glyph glyph-name="Tbar" unicode="&#x166;" horiz-adv-x="737" 
d="M724 335h-177l-32 -178l43 -5l-26 -152h-323l26 152l45 5l32 178h-178l22 125h178l21 122h-71l-18 -46h-128l37 207h652l-37 -207h-127l-2 46h-71l-21 -122h177z" />
    <glyph glyph-name="tbar" unicode="&#x167;" horiz-adv-x="493" 
d="M508 276h-117l-18 -101c-2 -12 -3 -21 -3 -28c0 -18 8 -22 37 -22c25 0 61 2 73 3l-22 -126c-15 -4 -75 -17 -142 -17c-110 0 -162 51 -162 147c0 19 2 40 6 62l15 82h-94l21 119h94l12 65h-94l21 119h94l24 138h216l-24 -138h117l-21 -119h-117l-12 -65h117z" />
    <glyph glyph-name="Utilde" unicode="&#x168;" horiz-adv-x="848" 
d="M616 743h319l-27 -150l-45 -4l-59 -332c-34 -193 -156 -275 -369 -275c-202 0 -300 94 -300 253c0 26 3 54 11 100l45 254l-43 4l27 150h319l-27 -150l-45 -4l-50 -288c-5 -29 -8 -52 -8 -72c0 -57 24 -79 86 -79c93 0 113 46 132 151l50 288l-43 4zM834 951
c-24 -132 -93 -165 -159 -165c-28 0 -70 3 -108 24l-41 22c-24 13 -34 18 -45 18c-25 0 -34 -12 -43 -61h-115c23 133 92 168 162 168c31 0 61 -4 95 -22l41 -23c28 -15 41 -21 60 -21c22 0 30 12 39 60h114z" />
    <glyph glyph-name="utilde" unicode="&#x169;" horiz-adv-x="753" 
d="M710 0h-243l8 48c-59 -35 -131 -63 -208 -63c-124 0 -154 74 -154 155c0 32 5 65 10 94l35 195l-40 5l26 145h258l-65 -365c-9 -55 -3 -74 43 -74c27 0 65 11 101 25l46 264l-40 5l26 145h257l-76 -427l41 -6zM753 800c-24 -132 -93 -165 -159 -165c-28 0 -70 3 -108 24
l-41 22c-24 13 -34 18 -45 18c-25 0 -34 -12 -43 -61h-115c23 133 92 168 162 168c31 0 61 -4 95 -22l41 -23c28 -15 41 -21 60 -21c22 0 30 12 39 60h114z" />
    <glyph glyph-name="Umacron" unicode="&#x16a;" horiz-adv-x="848" 
d="M616 743h319l-27 -150l-45 -4l-59 -332c-34 -193 -156 -275 -369 -275c-202 0 -300 94 -300 253c0 26 3 54 11 100l45 254l-43 4l27 150h319l-27 -150l-45 -4l-50 -288c-5 -29 -8 -52 -8 -72c0 -57 24 -79 86 -79c93 0 113 46 132 151l50 288l-43 4zM783 792h-441l20 113
h441z" />
    <glyph glyph-name="umacron" unicode="&#x16b;" horiz-adv-x="753" 
d="M710 0h-243l8 48c-59 -35 -131 -63 -208 -63c-124 0 -154 74 -154 155c0 32 5 65 10 94l35 195l-40 5l26 145h258l-65 -365c-9 -55 -3 -74 43 -74c27 0 65 11 101 25l46 264l-40 5l26 145h257l-76 -427l41 -6zM702 652h-441l20 113h441z" />
    <glyph glyph-name="Ubreve" unicode="&#x16c;" horiz-adv-x="848" 
d="M616 743h319l-27 -150l-45 -4l-59 -332c-34 -193 -156 -275 -369 -275c-202 0 -300 94 -300 253c0 26 3 54 11 100l45 254l-43 4l27 150h319l-27 -150l-45 -4l-50 -288c-5 -29 -8 -52 -8 -72c0 -57 24 -79 86 -79c93 0 113 46 132 151l50 288l-43 4zM812 948
c-26 -120 -134 -161 -241 -161c-102 0 -199 42 -209 161h115c5 -59 49 -68 106 -68c47 0 99 14 119 68h110z" />
    <glyph glyph-name="ubreve" unicode="&#x16d;" horiz-adv-x="753" 
d="M710 0h-243l8 48c-59 -35 -131 -63 -208 -63c-124 0 -154 74 -154 155c0 32 5 65 10 94l35 195l-40 5l26 145h258l-65 -365c-9 -55 -3 -74 43 -74c27 0 65 11 101 25l46 264l-40 5l26 145h257l-76 -427l41 -6zM735 796c-26 -120 -134 -161 -241 -161
c-102 0 -199 42 -209 161h115c5 -59 49 -68 106 -68c47 0 99 14 119 68h110z" />
    <glyph glyph-name="Uring" unicode="&#x16e;" horiz-adv-x="848" 
d="M616 743h319l-27 -150l-45 -4l-59 -332c-34 -193 -156 -275 -369 -275c-202 0 -300 94 -300 253c0 26 3 54 11 100l45 254l-43 4l27 150h319l-27 -150l-45 -4l-50 -288c-5 -29 -8 -52 -8 -72c0 -57 24 -79 86 -79c93 0 113 46 132 151l50 288l-43 4zM736 901
c0 -80 -65 -127 -154 -127c-90 0 -157 47 -157 127c0 81 67 128 157 128c89 0 154 -47 154 -128zM636 902c0 30 -22 45 -54 45c-33 0 -56 -15 -56 -45s23 -45 56 -45c32 0 54 15 54 45z" />
    <glyph glyph-name="uring" unicode="&#x16f;" horiz-adv-x="753" 
d="M710 0h-243l8 48c-59 -35 -131 -63 -208 -63c-124 0 -154 74 -154 155c0 32 5 65 10 94l35 195l-40 5l26 145h258l-65 -365c-9 -55 -3 -74 43 -74c27 0 65 11 101 25l46 264l-40 5l26 145h257l-76 -427l41 -6zM651 749c0 -80 -65 -127 -154 -127c-90 0 -157 47 -157 127
c0 81 67 128 157 128c89 0 154 -47 154 -128zM551 750c0 30 -22 45 -54 45c-33 0 -56 -15 -56 -45s23 -45 56 -45c32 0 54 15 54 45z" />
    <glyph glyph-name="Uhungarumlaut" unicode="&#x170;" horiz-adv-x="848" 
d="M616 743h319l-27 -150l-45 -4l-59 -332c-34 -193 -156 -275 -369 -275c-202 0 -300 94 -300 253c0 26 3 54 11 100l45 254l-43 4l27 150h319l-27 -150l-45 -4l-50 -288c-5 -29 -8 -52 -8 -72c0 -57 24 -79 86 -79c93 0 113 46 132 151l50 288l-43 4zM994 925l-199 -141
h-180l157 141h222zM686 925h-222l-157 -141h179z" />
    <glyph glyph-name="uhungarumlaut" unicode="&#x171;" horiz-adv-x="753" 
d="M710 0h-243l8 48c-59 -35 -131 -63 -208 -63c-124 0 -154 74 -154 155c0 32 5 65 10 94l35 195l-40 5l26 145h258l-65 -365c-9 -55 -3 -74 43 -74c27 0 65 11 101 25l46 264l-40 5l26 145h257l-76 -427l41 -6zM907 779l-199 -141h-180l157 141h222zM599 779h-222
l-157 -141h179z" />
    <glyph glyph-name="Uogonek" unicode="&#x172;" horiz-adv-x="848" 
d="M542 -197c-31 -8 -95 -20 -164 -20c-100 0 -146 32 -146 92c0 57 54 93 113 115c-141 24 -209 112 -209 245c0 26 3 54 11 100l45 254l-43 4l27 150h319l-27 -150l-45 -4l-50 -288c-5 -29 -8 -52 -8 -72c0 -57 24 -79 86 -79c93 0 113 46 132 151l50 288l-43 4l27 150
h319l-27 -150l-45 -4l-59 -332c-28 -159 -116 -243 -265 -267c-63 -20 -116 -44 -116 -74c0 -16 11 -23 47 -23c30 0 61 3 88 5z" />
    <glyph glyph-name="uogonek" unicode="&#x173;" horiz-adv-x="753" 
d="M676 -197c-31 -8 -95 -20 -164 -20c-100 0 -146 32 -146 92c0 67 75 104 144 125h-42l8 48c-59 -35 -131 -63 -208 -63c-124 0 -154 74 -154 155c0 32 5 65 10 94l35 195l-40 5l26 145h258l-65 -365c-3 -14 -4 -25 -4 -35c0 -28 13 -39 47 -39c27 0 65 11 101 25l46 264
l-40 5l26 145h257l-76 -427l41 -6l-25 -146c-78 -21 -153 -48 -153 -84c0 -16 11 -23 47 -23c30 0 61 3 88 5z" />
    <glyph glyph-name="Wcircumflex" unicode="&#x174;" horiz-adv-x="1098" 
d="M881 743h312l-27 -149l-48 -6l-199 -588h-271l-27 278c-2 22 -3 42 -3 61c0 21 1 41 3 57h-3c-6 -31 -19 -72 -34 -106l-130 -290h-271l6 588l-46 6l27 149h299l-27 -150l-31 -3l-8 -200c-2 -49 -6 -97 -10 -139h4c10 41 26 84 50 137l88 191h224l19 -189
c4 -34 5 -63 5 -89c0 -18 0 -34 -2 -50h4c9 43 22 89 38 139l64 200l-33 3zM949 789h-178l-65 71l-90 -71h-189l160 141h253z" />
    <glyph glyph-name="wcircumflex" unicode="&#x175;" horiz-adv-x="1049" 
d="M1088 432l-49 -6l-163 -426h-258l-31 206c-5 38 -3 85 -1 112h-3c-9 -27 -22 -73 -42 -112l-104 -206h-256l-13 426l-47 6l26 147h232l-5 -255c-2 -55 -4 -96 -7 -132h4c14 37 28 82 54 132l80 154h206l26 -154c8 -51 8 -95 7 -132h4c11 36 23 79 41 133l85 254h240z
M901 639h-178l-65 71l-90 -71h-189l160 141h253z" />
    <glyph glyph-name="Ycircumflex" unicode="&#x176;" horiz-adv-x="742" 
d="M804 594l-51 -6l-221 -318l-21 -122l43 -6l-25 -142h-319l25 142l49 6l21 121l-110 319l-49 6l27 149h206l47 -175c9 -34 17 -78 20 -110h3c15 33 41 77 61 110l109 175h212zM770 789h-178l-65 71l-90 -71h-189l160 141h253z" />
    <glyph glyph-name="ycircumflex" unicode="&#x177;" horiz-adv-x="735" 
d="M768 434l-53 -6l-200 -411c-83 -171 -156 -230 -305 -230c-68 0 -136 6 -184 16l23 130c51 -2 75 -2 108 -2c36 0 55 12 75 52l12 26l-78 418l-51 7l26 145h225l21 -268c5 -49 3 -109 4 -154h2c15 45 33 102 54 153l112 269h235zM743 639h-178l-65 71l-90 -71h-189
l160 141h253z" />
    <glyph glyph-name="Ydieresis" unicode="&#x178;" horiz-adv-x="742" 
d="M804 594l-51 -6l-221 -318l-21 -122l43 -6l-25 -142h-319l25 142l49 6l21 121l-110 319l-49 6l27 149h206l47 -175c9 -34 17 -78 20 -110h3c15 33 41 77 61 110l109 175h212zM728 794h-169l24 131h169zM462 794l24 131h-170l-24 -131h170z" />
    <glyph glyph-name="Zacute" unicode="&#x179;" horiz-adv-x="672" 
d="M624 0h-577l28 161l369 417h-152l-18 -45h-127l38 210h564l-29 -163l-369 -415h164l19 48h127zM769 930l-200 -141h-203l157 141h246z" />
    <glyph glyph-name="zacute" unicode="&#x17a;" horiz-adv-x="588" 
d="M542 0h-497l24 141l303 291h-122l-15 -36h-114l33 183h489l-26 -146l-296 -287h123l17 40h113zM700 780l-200 -141h-203l157 141h246z" />
    <glyph glyph-name="Zdotaccent" unicode="&#x17b;" horiz-adv-x="672" 
d="M624 0h-577l28 161l369 417h-152l-18 -45h-127l38 210h564l-29 -163l-369 -415h164l19 48h127zM594 792h-225l23 130h225z" />
    <glyph glyph-name="zdotaccent" unicode="&#x17c;" horiz-adv-x="588" 
d="M542 0h-497l24 141l303 291h-122l-15 -36h-114l33 183h489l-26 -146l-296 -287h123l17 40h113zM535 653h-225l23 130h225z" />
    <glyph glyph-name="Zcaron" unicode="&#x17d;" horiz-adv-x="672" 
d="M624 0h-577l28 161l369 417h-152l-18 -45h-127l38 210h564l-29 -163l-369 -415h164l19 48h127zM770 930l-159 -141h-253l-110 141h179l65 -71l90 71h188z" />
    <glyph glyph-name="zcaron" unicode="&#x17e;" horiz-adv-x="588" 
d="M542 0h-497l24 141l303 291h-122l-15 -36h-114l33 183h489l-26 -146l-296 -287h123l17 40h113zM701 780l-159 -141h-253l-110 141h179l65 -71l90 71h188z" />
    <glyph glyph-name="longs" unicode="&#x17f;" horiz-adv-x="451" 
d="M341 0h-300l25 147l44 5l82 463c23 132 93 182 222 182c58 0 108 -7 145 -16l-20 -115c-36 1 -55 2 -74 2c-43 0 -50 -13 -57 -53l-82 -463l40 -5z" />
    <glyph glyph-name="florin" unicode="&#x192;" 
d="M719 744l-24 -116c-39 1 -54 2 -71 2c-41 0 -56 -7 -67 -53l-26 -114h135l-32 -141h-135l-68 -314c-31 -142 -120 -179 -230 -179c-67 0 -113 9 -148 17l25 116c35 -2 52 -2 71 -2c38 0 56 5 66 52l68 310h-121l32 141h120l27 118c32 142 121 180 232 180
c64 0 112 -9 146 -17z" />
    <glyph glyph-name="Aringacute" unicode="&#x1fa;" horiz-adv-x="856" 
d="M871 1103l-184 -116h-199l141 116h242zM741 866c0 -76 -70 -111 -155 -111c-86 0 -156 35 -156 111c0 75 70 110 156 110s155 -35 155 -110zM643 866c0 24 -25 35 -57 35c-33 0 -58 -11 -58 -35s25 -35 58 -35c32 0 57 11 57 35zM815 0h-253l-12 162h-184l-68 -162h-258
l26 150l48 4l193 434l-46 6l27 149h455l51 -589l47 -4zM553 318l-11 188c-1 21 -2 44 -2 66c0 16 1 31 1 45h-5c-7 -26 -25 -76 -39 -111l-78 -188h134z" />
    <glyph glyph-name="aringacute" unicode="&#x1fb;" horiz-adv-x="670" 
d="M635 0h-237l6 37c-44 -26 -117 -52 -190 -52c-101 0 -142 57 -142 141c0 14 1 29 8 69c27 150 153 150 319 150h38l5 28c2 11 3 21 3 29c0 33 -19 40 -83 40c-17 0 -32 0 -49 -1l-16 -39h-134l28 154c42 13 146 38 248 38c149 0 224 -53 224 -173c0 -21 -3 -43 -7 -68
l-36 -201l40 -5zM410 135l20 111h-46c-61 0 -90 -7 -100 -62c-3 -16 -5 -30 -5 -41c0 -21 15 -29 40 -29c35 0 75 13 91 21zM636 736c0 -80 -65 -127 -154 -127c-90 0 -157 47 -157 127c0 81 67 128 157 128c89 0 154 -47 154 -128zM536 737c0 30 -22 45 -54 45
c-33 0 -56 -15 -56 -45s23 -45 56 -45c32 0 54 15 54 45zM789 1024l-200 -141h-203l157 141h246z" />
    <glyph glyph-name="AEacute" unicode="&#x1fc;" horiz-adv-x="1092" 
d="M1038 0h-539l28 162h-159l-69 -162h-259l26 149l53 7l191 428l-45 5l28 154h876l-35 -198h-133l-3 38h-163l-22 -129h283l-27 -151h-283l-25 -143h163l16 40h133zM554 317l53 299h-68c-13 -34 -26 -75 -40 -108l-79 -191h134zM1028 930l-200 -141h-203l157 141h246z" />
    <glyph glyph-name="aeacute" unicode="&#x1fd;" horiz-adv-x="1010" 
d="M1003 237h-372l-1 -7c-11 -65 -11 -100 98 -100c62 0 167 3 227 8l-23 -128c-50 -11 -152 -24 -253 -24c-99 0 -177 19 -216 66c-86 -52 -160 -67 -236 -67c-109 0 -158 46 -158 142c0 14 1 29 8 68c28 156 154 150 320 150h38l5 28c10 58 -2 69 -72 69
c-20 0 -40 0 -56 -1l-17 -39h-133l28 154c42 13 145 38 247 38c85 0 132 -12 166 -37c45 24 101 37 173 37c193 0 245 -114 245 -217c0 -39 -8 -97 -18 -140zM813 341l1 7c11 61 5 102 -64 102c-68 0 -89 -42 -99 -102l-1 -7h163zM407 135l20 111h-45c-61 0 -89 -7 -99 -62
l-4 -21c-6 -38 13 -49 43 -49c35 0 69 13 85 21zM909 780l-200 -141h-203l157 141h246z" />
    <glyph glyph-name="Oslashacute" unicode="&#x1fe;" horiz-adv-x="783" 
d="M812 930l-200 -141h-203l157 141h246zM790 320c-48 -278 -206 -338 -396 -338c-70 0 -133 13 -183 43l-43 -47h-135l107 117c-25 40 -39 91 -39 157c0 33 4 70 22 172c49 278 208 337 395 337c76 0 141 -15 191 -47l47 51h134l-112 -123c21 -37 33 -84 33 -141
c0 -44 -4 -81 -21 -181zM563 341l10 61c6 34 9 62 9 94c0 66 -30 92 -88 92c-77 0 -120 -44 -145 -186l-10 -61c-6 -34 -9 -63 -9 -86c0 -76 31 -100 88 -100c74 0 121 40 145 186z" />
    <glyph glyph-name="oslashacute" unicode="&#x1ff;" 
d="M731 780l-200 -141h-203l157 141h246zM682 242c-36 -200 -158 -257 -330 -257c-56 0 -103 8 -142 24l-38 -38h-149l104 101c-24 33 -36 75 -36 126c0 33 2 58 15 139c33 201 158 257 334 257c56 0 104 -9 143 -26l43 41h149l-110 -108c21 -31 32 -69 32 -115
c0 -39 -2 -63 -15 -144zM468 262c12 76 14 94 14 113c0 46 -20 63 -62 63c-56 0 -86 -28 -101 -121c-13 -77 -14 -95 -14 -110c0 -49 15 -66 62 -66c61 0 86 28 101 121z" />
    <glyph glyph-name="Scommaaccent" unicode="&#x218;" horiz-adv-x="688" 
d="M581 603c-33 1 -69 1 -100 1c-40 0 -108 -5 -108 -64c0 -23 16 -40 66 -61l86 -35c106 -44 160 -99 160 -197c0 -194 -142 -265 -341 -265c-112 0 -219 11 -275 25l33 186h135v-51c34 -1 68 -1 101 -1c63 0 109 13 109 66c0 35 -16 49 -68 72l-90 39
c-88 38 -151 96 -151 197c0 204 172 246 358 246c103 0 203 -16 253 -27l-32 -180h-134zM466 -62l-124 -139h-186l92 139h218z" />
    <glyph glyph-name="scommaaccent" unicode="&#x219;" horiz-adv-x="592" 
d="M221 122c20 -1 39 -2 59 -2c33 0 82 3 82 48c0 19 -16 26 -65 48l-40 18c-95 43 -141 91 -141 175c0 164 139 185 285 185c89 0 185 -12 226 -24l-26 -146h-134l-4 35c-19 1 -43 1 -59 1c-33 0 -75 0 -75 -32c0 -25 18 -30 57 -49l49 -23c106 -49 145 -83 145 -173
c0 -160 -158 -197 -312 -197c-82 0 -175 13 -212 22l27 153h136zM417 -61l-124 -139h-186l92 139h218z" />
    <glyph glyph-name="uni021A" unicode="&#x21a;" horiz-adv-x="741" 
d="M791 536h-128l-2 46h-71l-76 -429l44 -4l-26 -149h-323l26 149l44 4l76 429h-71l-18 -46h-128l37 207h653zM477 -62l-124 -139h-186l92 139h218z" />
    <glyph glyph-name="uni021B" unicode="&#x21b;" horiz-adv-x="514" 
d="M467 2c-15 -4 -76 -17 -142 -17c-132 0 -183 53 -159 189l46 260l-92 9l24 136h94l24 138h216l-24 -138h117l-26 -145h-117l-46 -259c-7 -40 -6 -50 34 -50c25 0 61 2 73 3zM387 -60l-124 -139h-186l92 139h218z" />
    <glyph glyph-name="circumflex" unicode="&#x2c6;" horiz-adv-x="601" 
d="M673 639h-178l-65 71l-90 -71h-189l160 141h253z" />
    <glyph glyph-name="caron" unicode="&#x2c7;" horiz-adv-x="601" 
d="M698 780l-159 -141h-253l-110 141h179l65 -71l90 71h188z" />
    <glyph glyph-name="uni02C9" unicode="&#x2c9;" horiz-adv-x="538" 
d="M603 652h-441l20 113h441z" />
    <glyph glyph-name="breve" unicode="&#x2d8;" horiz-adv-x="554" 
d="M639 796c-26 -120 -134 -161 -241 -161c-102 0 -199 42 -209 161h115c5 -59 49 -68 106 -68c47 0 99 14 119 68h110z" />
    <glyph glyph-name="dotaccent" unicode="&#x2d9;" horiz-adv-x="423" 
d="M438 651h-225l23 130h225z" />
    <glyph glyph-name="ring" unicode="&#x2da;" horiz-adv-x="452" 
d="M510 749c0 -80 -65 -127 -154 -127c-90 0 -157 47 -157 127c0 81 67 128 157 128c89 0 154 -47 154 -128zM410 750c0 30 -22 45 -54 45c-33 0 -56 -15 -56 -45s23 -45 56 -45c32 0 54 15 54 45z" />
    <glyph glyph-name="ogonek" unicode="&#x2db;" horiz-adv-x="471" 
d="M367 -197c-31 -8 -95 -20 -164 -20c-100 0 -146 32 -146 92c0 90 135 126 210 141l135 -16c-78 -21 -153 -48 -153 -84c0 -16 11 -23 47 -23c30 0 61 3 88 5z" />
    <glyph glyph-name="tilde" unicode="&#x2dc;" horiz-adv-x="558" 
d="M662 800c-24 -132 -93 -165 -159 -165c-28 0 -70 3 -108 24l-41 22c-24 13 -34 18 -45 18c-25 0 -34 -12 -43 -61h-115c23 133 92 168 162 168c31 0 61 -4 95 -22l41 -23c28 -15 41 -21 60 -21c22 0 30 12 39 60h114z" />
    <glyph glyph-name="hungarumlaut" unicode="&#x2dd;" horiz-adv-x="715" 
d="M839 779l-199 -141h-180l157 141h222zM531 779h-222l-157 -141h179z" />
    <glyph glyph-name="uni037E" unicode="&#x37e;" horiz-adv-x="313" 
d="M304 262h-202l31 177h202z" />
    <glyph glyph-name="dieresisacute" unicode="&#x385;" horiz-adv-x="722" 
d="M819 680h-154l24 131h154zM440 820h227l-162 -150h-185zM295 680h-154l24 131h154z" />
    <glyph glyph-name="middot" unicode="&#x387;" horiz-adv-x="326" 
d="M313 280h-202l31 176h202z" />
    <glyph glyph-name="uni03A9" unicode="&#x3a9;" horiz-adv-x="792" 
d="M817 399c-24 -128 -84 -196 -204 -236l-5 -32h144l-23 -131h-300l41 237c70 15 103 71 119 163c12 68 13 83 13 96c0 69 -38 92 -103 92c-78 0 -129 -33 -147 -136c-13 -76 -15 -97 -15 -116c0 -54 18 -88 66 -99l-41 -237h-299l23 131h143l5 32
c-84 32 -120 107 -120 201c0 24 3 49 16 125c36 204 176 272 400 272c195 0 303 -83 303 -239c0 -36 -6 -70 -16 -123z" />
    <glyph glyph-name="uni03BC" unicode="&#x3bc;" horiz-adv-x="756" 
d="M712 0h-243l8 48c-54 -29 -106 -49 -176 -49l-8 -47l40 -5l-26 -146h-299l26 146l42 5l84 477l-40 5l26 145h258l-65 -365c-3 -14 -4 -25 -4 -35c0 -28 13 -39 47 -39c27 0 65 11 101 25l46 264l-40 5l26 145h257l-76 -427l41 -6z" />
    <glyph glyph-name="pi" unicode="&#x3c0;" horiz-adv-x="795" 
d="M792 -7c-25 -6 -69 -9 -99 -9c-139 0 -196 49 -196 187v231h-118v-402h-217v402h-78v177h708v-177h-78v-234c0 -34 6 -44 36 -44c15 0 27 0 42 1v-132z" />
    <glyph glyph-name="Wgrave" unicode="&#x1e80;" horiz-adv-x="1098" 
d="M881 743h312l-27 -149l-48 -6l-199 -588h-271l-27 278c-2 22 -3 42 -3 61c0 21 1 41 3 57h-3c-6 -31 -19 -72 -34 -106l-130 -290h-271l6 588l-46 6l27 149h299l-27 -150l-31 -3l-8 -200c-2 -49 -6 -97 -10 -139h4c10 41 26 84 50 137l88 191h224l19 -189
c4 -34 5 -63 5 -89c0 -18 0 -34 -2 -50h4c9 43 22 89 38 139l64 200l-33 3zM801 789h-189l-150 141h232z" />
    <glyph glyph-name="wgrave" unicode="&#x1e81;" horiz-adv-x="1049" 
d="M1088 432l-49 -6l-163 -426h-258l-31 206c-5 38 -3 85 -1 112h-3c-9 -27 -22 -73 -42 -112l-104 -206h-256l-13 426l-47 6l26 147h232l-5 -255c-2 -55 -4 -96 -7 -132h4c14 37 28 82 54 132l80 154h206l26 -154c8 -51 8 -95 7 -132h4c11 36 23 79 41 133l85 254h240z
M743 639h-189l-150 141h232z" />
    <glyph glyph-name="Wacute" unicode="&#x1e82;" horiz-adv-x="1098" 
d="M881 743h312l-27 -149l-48 -6l-199 -588h-271l-27 278c-2 22 -3 42 -3 61c0 21 1 41 3 57h-3c-6 -31 -19 -72 -34 -106l-130 -290h-271l6 588l-46 6l27 149h299l-27 -150l-31 -3l-8 -200c-2 -49 -6 -97 -10 -139h4c10 41 26 84 50 137l88 191h224l19 -189
c4 -34 5 -63 5 -89c0 -18 0 -34 -2 -50h4c9 43 22 89 38 139l64 200l-33 3zM981 930l-200 -141h-203l157 141h246z" />
    <glyph glyph-name="wacute" unicode="&#x1e83;" horiz-adv-x="1049" 
d="M1088 432l-49 -6l-163 -426h-258l-31 206c-5 38 -3 85 -1 112h-3c-9 -27 -22 -73 -42 -112l-104 -206h-256l-13 426l-47 6l26 147h232l-5 -255c-2 -55 -4 -96 -7 -132h4c14 37 28 82 54 132l80 154h206l26 -154c8 -51 8 -95 7 -132h4c11 36 23 79 41 133l85 254h240z
M920 780l-200 -141h-203l157 141h246z" />
    <glyph glyph-name="Wdieresis" unicode="&#x1e84;" horiz-adv-x="1098" 
d="M881 743h312l-27 -149l-48 -6l-199 -588h-271l-27 278c-2 22 -3 42 -3 61c0 21 1 41 3 57h-3c-6 -31 -19 -72 -34 -106l-130 -290h-271l6 588l-46 6l27 149h299l-27 -150l-31 -3l-8 -200c-2 -49 -6 -97 -10 -139h4c10 41 26 84 50 137l88 191h224l19 -189
c4 -34 5 -63 5 -89c0 -18 0 -34 -2 -50h4c9 43 22 89 38 139l64 200l-33 3zM907 792h-169l24 131h169zM641 792l24 131h-170l-24 -131h170z" />
    <glyph glyph-name="wdieresis" unicode="&#x1e85;" horiz-adv-x="1049" 
d="M1088 432l-49 -6l-163 -426h-258l-31 206c-5 38 -3 85 -1 112h-3c-9 -27 -22 -73 -42 -112l-104 -206h-256l-13 426l-47 6l26 147h232l-5 -255c-2 -55 -4 -96 -7 -132h4c14 37 28 82 54 132l80 154h206l26 -154c8 -51 8 -95 7 -132h4c11 36 23 79 41 133l85 254h240z
M859 648h-169l24 131h169zM593 648l24 131h-170l-24 -131h170z" />
    <glyph glyph-name="Ygrave" unicode="&#x1ef2;" horiz-adv-x="742" 
d="M804 594l-51 -6l-221 -318l-21 -122l43 -6l-25 -142h-319l25 142l49 6l21 121l-110 319l-49 6l27 149h206l47 -175c9 -34 17 -78 20 -110h3c15 33 41 77 61 110l109 175h212zM629 789h-189l-150 141h232z" />
    <glyph glyph-name="ygrave" unicode="&#x1ef3;" horiz-adv-x="735" 
d="M768 434l-53 -6l-200 -411c-83 -171 -156 -230 -305 -230c-68 0 -136 6 -184 16l23 130c51 -2 75 -2 108 -2c36 0 55 12 75 52l12 26l-78 418l-51 7l26 145h225l21 -268c5 -49 3 -109 4 -154h2c15 45 33 102 54 153l112 269h235zM587 639h-189l-150 141h232z" />
    <glyph glyph-name="dieresisgrave" unicode="&#x1fed;" horiz-adv-x="722" 
d="M819 680h-154l24 131h154zM570 820l68 -150h-185l-110 150h227zM295 680h-154l24 131h154z" />
    <glyph glyph-name="figuredash" unicode="&#x2012;" horiz-adv-x="739" 
d="M721 211h-629l22 129h629z" />
    <glyph glyph-name="endash" unicode="&#x2013;" horiz-adv-x="471" 
d="M454 224h-360l25 143h360z" />
    <glyph glyph-name="emdash" unicode="&#x2014;" horiz-adv-x="665" 
d="M649 224h-555l25 143h555z" />
    <glyph glyph-name="threequartersemdash" unicode="&#x2015;" horiz-adv-x="679" 
d="M661 211h-569l22 129h569z" />
    <glyph glyph-name="quoteleft" unicode="&#x2018;" horiz-adv-x="293" 
d="M410 782l-113 -268h-187l153 268h147z" />
    <glyph glyph-name="quoteright" unicode="&#x2019;" horiz-adv-x="293" 
d="M410 782l-152 -268h-148l114 268h186z" />
    <glyph glyph-name="quotesinglbase" unicode="&#x201a;" horiz-adv-x="293" 
d="M302 168l-152 -269h-148l114 269h186z" />
    <glyph glyph-name="quotedblleft" unicode="&#x201c;" horiz-adv-x="556" 
d="M673 782l-114 -268h-186l153 268h147zM410 782l-113 -268h-187l153 268h147z" />
    <glyph glyph-name="quotedblright" unicode="&#x201d;" horiz-adv-x="556" 
d="M673 782l-153 -268h-147l114 268h186zM410 782l-152 -268h-148l114 268h186z" />
    <glyph glyph-name="quotedblbase" unicode="&#x201e;" horiz-adv-x="556" 
d="M565 168l-153 -269h-147l114 269h186zM302 168h-186l-114 -269h148z" />
    <glyph glyph-name="dagger" unicode="&#x2020;" horiz-adv-x="565" 
d="M586 439h-120l-100 -569h-217l100 569h-116l28 157h116l32 184h217l-32 -184h120z" />
    <glyph glyph-name="daggerdbl" unicode="&#x2021;" horiz-adv-x="565" 
d="M542 190h-120l-56 -320h-217l56 320h-116l28 157h116l19 108h-116l27 157h116l30 168h217l-30 -168h120l-27 -157h-120l-19 -108h120z" />
    <glyph glyph-name="bullet" unicode="&#x2022;" horiz-adv-x="515" 
d="M526 367c0 -104 -88 -188 -197 -188c-108 0 -196 84 -196 188s88 188 196 188c109 0 197 -84 197 -188z" />
    <glyph glyph-name="onedotenleader" unicode="&#x2024;" horiz-adv-x="331" 
d="M274 0h-217l31 176h217z" />
    <glyph glyph-name="twodotenleader" unicode="&#x2025;" horiz-adv-x="651" 
d="M595 0h-218l31 176h218zM274 0l31 176h-217l-31 -176h217z" />
    <glyph glyph-name="ellipsis" unicode="&#x2026;" horiz-adv-x="1015" 
d="M956 0h-218l31 176h218zM616 0l31 176h-217l-31 -176h217zM276 0h-217l31 176h217z" />
    <glyph glyph-name="perthousand" unicode="&#x2030;" horiz-adv-x="1661" 
d="M1073 747l-639 -747h-175l639 747h175zM551 498c-23 -132 -90 -206 -240 -206c-126 0 -178 69 -178 171c0 20 2 42 6 65l5 28c25 140 92 205 239 205c137 0 179 -68 179 -171c0 -20 -2 -42 -6 -64zM397 512l5 29c5 28 7 49 7 65c0 37 -13 47 -39 47
c-38 0 -55 -22 -71 -112l-5 -29c-5 -28 -8 -50 -8 -66c0 -36 13 -46 39 -46c38 0 56 21 72 112zM1193 195c-23 -132 -90 -206 -240 -206c-126 0 -178 69 -178 171c0 20 2 42 6 65l5 28c25 140 92 205 239 205c137 0 179 -68 179 -171c0 -20 -2 -42 -6 -64zM1039 209l5 29
c5 28 7 49 7 65c0 37 -13 47 -39 47c-38 0 -55 -22 -71 -112l-5 -29c-5 -28 -8 -50 -8 -66c0 -36 13 -46 39 -46c38 0 56 21 72 112zM1663 195c-23 -132 -90 -206 -240 -206c-126 0 -178 69 -178 171c0 20 2 42 6 65l5 28c25 140 92 205 239 205c137 0 179 -68 179 -171
c0 -20 -2 -42 -6 -64zM1509 209l5 29c5 28 7 49 7 65c0 37 -13 47 -39 47c-38 0 -55 -22 -71 -112l-5 -29c-5 -28 -8 -50 -8 -66c0 -36 13 -46 39 -46c38 0 56 21 72 112z" />
    <glyph glyph-name="guilsinglleft" unicode="&#x2039;" horiz-adv-x="409" 
d="M295 276l74 -215h-195l-83 228l164 228h207z" />
    <glyph glyph-name="guilsinglright" unicode="&#x203a;" horiz-adv-x="409" 
d="M214 301l-74 216h195l83 -228l-164 -228h-207z" />
    <glyph glyph-name="exclamdbl" unicode="&#x203c;" horiz-adv-x="688" 
d="M618 0h-223l31 178h223zM524 782h241l-116 -546h-202zM322 178l-31 -178h-224l31 178h224zM438 782l-116 -546h-203l77 546h242z" />
    <glyph glyph-name="overscore" unicode="&#x203e;" horiz-adv-x="696" 
d="M815 816h-649l19 104h649z" />
    <glyph glyph-name="fraction" unicode="&#x2044;" horiz-adv-x="640" 
d="M793 747l-639 -747h-177l640 747h176z" />
    <glyph glyph-name="zero.superior" unicode="&#x2070;" horiz-adv-x="502" 
d="M546 497c-24 -136 -90 -207 -244 -207c-122 0 -173 72 -173 173c0 20 2 42 10 89c24 134 93 207 245 207c129 0 173 -65 173 -161c0 -24 -2 -49 -11 -101zM392 512c9 54 12 76 12 92c0 37 -13 46 -39 46c-38 0 -56 -21 -72 -113c-9 -54 -12 -76 -12 -92
c0 -37 14 -46 40 -46c37 0 54 19 71 113z" />
    <glyph glyph-name="i.superior" unicode="&#x2071;" horiz-adv-x="284" 
d="M293 315h-192l17 95l25 3l28 156l-25 3l17 94h167l-45 -253l25 -3zM340 704h-149l14 83h149z" />
    <glyph glyph-name="four.superior" unicode="&#x2074;" horiz-adv-x="497" 
d="M524 392h-56l-6 -34l25 -3l-9 -54h-204l9 54l28 3l6 34h-207l15 90l287 265h118l-46 -261h56zM341 486l21 116l-122 -116h101z" />
    <glyph glyph-name="five.superior" unicode="&#x2075;" horiz-adv-x="466" 
d="M497 468c0 -138 -94 -181 -227 -181c-76 0 -137 11 -165 19l21 114h83v-34c14 -1 28 -1 41 -1c50 0 90 13 90 71c0 23 -18 30 -69 30h-133l69 259h326l-22 -123h-84v24h-119l-16 -67h33c129 0 172 -35 172 -111z" />
    <glyph glyph-name="six.superior" unicode="&#x2076;" horiz-adv-x="486" 
d="M522 475c0 -137 -95 -186 -229 -186c-127 0 -170 60 -170 147c0 19 2 40 21 143c21 117 66 179 233 179c70 0 139 -12 168 -19l-20 -111h-84v30c-19 1 -40 1 -60 1c-64 0 -74 -17 -83 -65l-2 -11c18 4 48 6 67 6c104 0 159 -27 159 -114zM310 383c46 0 62 51 62 92
c0 25 -13 31 -41 31c-13 0 -33 -1 -49 -4c-10 -60 -11 -70 -11 -79c0 -31 13 -40 39 -40z" />
    <glyph glyph-name="seven.superior" unicode="&#x2077;" horiz-adv-x="477" 
d="M537 638l-265 -339h-158l273 347h-124l-10 -28h-84l23 127h364z" />
    <glyph glyph-name="eight.superior" unicode="&#x2078;" horiz-adv-x="499" 
d="M495 530c25 -18 37 -46 37 -78c0 -143 -103 -163 -232 -163h-4c-103 0 -180 26 -180 118c0 53 18 99 71 123c-22 16 -36 47 -36 82c0 134 112 146 228 146h4c108 0 182 -31 182 -114c0 -48 -19 -89 -70 -114zM380 430c3 14 4 22 4 29c0 21 -10 30 -33 30h-34
c-31 0 -43 -15 -49 -46c-3 -19 -3 -24 -3 -29c0 -28 17 -36 47 -36h4c35 0 57 11 64 52zM413 620l1 4c1 4 1 8 1 11c0 25 -17 33 -48 33h-4c-35 0 -56 -11 -62 -48c-1 -7 -2 -13 -2 -18c0 -19 8 -29 33 -29h34c31 0 42 17 47 47z" />
    <glyph glyph-name="nine.superior" unicode="&#x2079;" horiz-adv-x="486" 
d="M146 572c0 137 95 186 229 186c127 0 170 -60 170 -147c0 -19 -2 -40 -21 -143c-21 -117 -66 -179 -233 -179c-70 0 -139 12 -168 19l20 111h84v-30c19 -1 40 -1 60 -1c64 0 74 17 83 65l2 11c-18 -4 -48 -6 -67 -6c-104 0 -159 27 -159 114zM358 664
c-46 0 -62 -51 -62 -92c0 -25 13 -31 41 -31c13 0 33 1 49 4c10 60 11 70 11 79c0 31 -13 40 -39 40z" />
    <glyph glyph-name="parenleft.superior" unicode="&#x207d;" horiz-adv-x="302" 
d="M292 225h-117c-22 41 -44 109 -44 194c0 120 42 236 128 339h132c-79 -102 -126 -231 -126 -345c0 -56 10 -140 27 -188z" />
    <glyph glyph-name="parenright.superior" unicode="&#x207e;" horiz-adv-x="302" 
d="M183 758h117c22 -41 44 -109 44 -194c0 -120 -42 -236 -128 -339h-132c79 102 126 231 126 345c0 56 -10 140 -27 188z" />
    <glyph glyph-name="n.superior" unicode="&#x207f;" horiz-adv-x="515" 
d="M524 315h-167l36 204c4 22 5 28 5 33c0 18 -8 24 -28 24c-17 0 -39 -7 -58 -14l-27 -149l23 -3l-17 -95h-190l17 95l25 3l28 156l-25 3l17 94h157l-5 -28c38 23 84 38 130 38c74 0 98 -41 98 -90c0 -20 -3 -41 -7 -62l-20 -111l25 -3z" />
    <glyph glyph-name="zero.inferior" unicode="&#x2080;" horiz-adv-x="502" 
d="M495 195c-24 -136 -90 -207 -244 -207c-122 0 -173 72 -173 173c0 20 2 42 10 89c24 134 93 207 245 207c129 0 173 -65 173 -161c0 -24 -2 -49 -11 -101zM341 210c9 54 12 76 12 92c0 37 -13 46 -39 46c-38 0 -56 -21 -72 -113c-9 -54 -12 -76 -12 -92
c0 -37 14 -46 40 -46c37 0 54 19 71 113z" />
    <glyph glyph-name="one.inferior" unicode="&#x2081;" horiz-adv-x="399" 
d="M349 -1h-291l17 96l69 5l38 215l-73 -22l20 109l119 44h110l-61 -346l69 -5z" />
    <glyph glyph-name="two.inferior" unicode="&#x2082;" horiz-adv-x="474" 
d="M414 -1h-362l9 56c19 116 67 158 175 207c29 13 92 31 92 74c0 17 -16 22 -63 22c-12 0 -33 0 -53 -1l-11 -32h-85l20 111c48 14 125 21 174 21c121 0 175 -37 175 -108c0 -89 -72 -129 -150 -160c-81 -33 -117 -55 -122 -86h129l9 29h86z" />
    <glyph glyph-name="three.inferior" unicode="&#x2083;" horiz-adv-x="470" 
d="M444 142c0 -126 -103 -154 -223 -154c-66 0 -136 11 -166 22l19 112h86l-2 -33c20 -1 42 -1 61 -1c42 0 75 11 75 56c0 26 -12 36 -56 36h-121l16 90h121c38 0 72 12 72 56c0 26 -15 31 -59 31c-20 0 -41 0 -60 -1l-11 -31h-85l19 109c32 11 107 23 173 23
c109 0 177 -30 177 -115c0 -52 -25 -94 -74 -120c28 -15 38 -49 38 -80z" />
    <glyph glyph-name="four.inferior" unicode="&#x2084;" horiz-adv-x="497" 
d="M473 90h-56l-6 -34l25 -3l-9 -54h-204l9 54l28 3l6 34h-207l15 90l287 265h118l-46 -261h56zM290 184l21 116l-122 -116h101z" />
    <glyph glyph-name="five.inferior" unicode="&#x2085;" horiz-adv-x="466" 
d="M446 166c0 -138 -94 -181 -227 -181c-76 0 -137 11 -165 19l21 114h83v-34c14 -1 28 -1 41 -1c50 0 90 13 90 71c0 23 -18 30 -69 30h-133l69 259h326l-22 -123h-84v24h-119l-16 -67h33c129 0 172 -35 172 -111z" />
    <glyph glyph-name="six.inferior" unicode="&#x2086;" horiz-adv-x="486" 
d="M471 173c0 -137 -95 -186 -229 -186c-127 0 -170 60 -170 147c0 19 2 40 21 143c21 117 66 179 233 179c70 0 139 -12 168 -19l-20 -111h-84v30c-19 1 -40 1 -60 1c-64 0 -74 -17 -83 -65l-2 -11c18 4 48 6 67 6c104 0 159 -27 159 -114zM259 81c46 0 62 51 62 92
c0 25 -13 31 -41 31c-13 0 -33 -1 -49 -4c-10 -60 -11 -70 -11 -79c0 -31 13 -40 39 -40z" />
    <glyph glyph-name="seven.inferior" unicode="&#x2087;" horiz-adv-x="477" 
d="M486 336l-265 -339h-158l273 347h-124l-10 -28h-84l23 127h364z" />
    <glyph glyph-name="eight.inferior" unicode="&#x2088;" horiz-adv-x="499" 
d="M444 228c25 -18 37 -46 37 -78c0 -143 -103 -163 -232 -163h-4c-103 0 -180 26 -180 118c0 53 18 99 71 123c-22 16 -36 47 -36 82c0 134 112 146 228 146h4c108 0 182 -31 182 -114c0 -48 -19 -89 -70 -114zM329 128c3 14 4 22 4 29c0 21 -10 30 -33 30h-34
c-31 0 -43 -15 -49 -46c-3 -19 -3 -24 -3 -29c0 -28 17 -36 47 -36h4c35 0 57 11 64 52zM362 318l1 4c1 4 1 8 1 11c0 25 -17 33 -48 33h-4c-35 0 -56 -11 -62 -48c-1 -7 -2 -13 -2 -18c0 -19 8 -29 33 -29h34c31 0 42 17 47 47z" />
    <glyph glyph-name="nine.inferior" unicode="&#x2089;" horiz-adv-x="486" 
d="M92 270c0 137 95 186 229 186c127 0 170 -60 170 -147c0 -19 -2 -40 -21 -143c-21 -117 -66 -179 -233 -179c-70 0 -139 12 -168 19l20 111h84v-30c19 -1 40 -1 60 -1c64 0 74 17 83 65l2 11c-18 -4 -48 -6 -67 -6c-104 0 -159 27 -159 114zM304 362
c-46 0 -62 -51 -62 -92c0 -25 13 -31 41 -31c13 0 33 1 49 4c10 60 11 70 11 79c0 31 -13 40 -39 40z" />
    <glyph glyph-name="parenleft.inferior" unicode="&#x208d;" horiz-adv-x="302" 
d="M241 -77h-117c-22 41 -44 109 -44 194c0 120 42 236 128 339h132c-79 -102 -126 -231 -126 -345c0 -56 10 -140 27 -188z" />
    <glyph glyph-name="parenright.inferior" unicode="&#x208e;" horiz-adv-x="302" 
d="M282 182c-20 -112 -74 -206 -124 -263h-128c49 62 98 156 117 263v5c20 108 4 202 -23 264h128c30 -58 50 -152 30 -264v-5z" />
    <glyph glyph-name="colonmonetary" unicode="&#x20a1;" horiz-adv-x="571" 
d="M530 9c-15 -5 -43 -10 -75 -14l-21 -119h-105l19 110c-11 -1 -21 -1 -30 -1c-16 0 -29 1 -41 2l-19 -111h-105l24 137c-59 32 -88 100 -88 187c0 26 3 53 8 82l10 56c22 124 78 192 168 233l23 130h105l-19 -109c12 1 25 2 41 2h30l19 107h105l-20 -116
c34 -5 58 -10 70 -14l-31 -175h-124l-1 39c-10 1 -21 1 -32 1c-71 0 -102 -18 -119 -118l-10 -56c-4 -21 -6 -38 -6 -52c0 -55 28 -67 84 -67c45 0 106 2 165 5z" />
    <glyph glyph-name="franc" unicode="&#x20a3;" horiz-adv-x="674" 
d="M670 299h-297l-13 -74h135l-18 -105h-135l-21 -120h-235l21 120h-44l18 105h44l65 365l-43 6l26 147h584l-36 -200h-135l-1 38h-162l-23 -129h297z" />
    <glyph glyph-name="lira" unicode="&#x20a4;" horiz-adv-x="699" 
d="M641 0h-560l22 127c39 30 59 61 66 101l4 23h-74l14 79h74l11 62h-74l14 79h74l4 25c31 193 130 267 327 267c79 0 162 -8 228 -23l-34 -190h-128v47c-13 1 -28 1 -53 1c-87 0 -100 -20 -114 -102l-4 -25h188l-14 -79h-188l-11 -62h188l-14 -79h-188l-4 -23
c-5 -28 -15 -49 -33 -70h306z" />
    <glyph glyph-name="peseta" unicode="&#x20a7;" horiz-adv-x="838" 
d="M368 0h-323l26 150l45 4l49 281h-68l23 128h67l5 26l-43 4l27 150c102 9 230 13 317 13c174 0 312 -39 327 -193h68l-23 -128h-56c-43 -151 -189 -196 -380 -196c-25 0 -43 0 -73 1l-15 -86l53 -4zM451 406c87 0 145 24 145 109c0 64 -39 75 -113 75c-22 0 -47 0 -66 -1
l-32 -182c19 0 43 -1 66 -1z" />
    <glyph glyph-name="Euro" unicode="&#x20ac;" horiz-adv-x="708" 
d="M654 4c-44 -12 -142 -22 -199 -22c-190 0 -297 66 -297 265v14h-62l12 71h57c4 26 8 50 14 78h-57l12 71h62c56 230 187 280 379 280c75 0 170 -10 209 -22l-34 -189h-130l-1 37c-13 0 -28 1 -42 1c-69 0 -113 -12 -142 -107h280l-30 -71h-266c-6 -26 -10 -52 -14 -78
h244l-30 -71h-222v-12c0 -86 42 -94 119 -94c47 0 114 4 166 8z" />
    <glyph glyph-name="litre" unicode="&#x2113;" horiz-adv-x="596" 
d="M598 43c-51 -33 -117 -62 -209 -62c-128 0 -203 50 -203 196v43c-11 -8 -38 -27 -60 -43l-21 66c20 16 55 41 81 62v299c0 135 66 191 216 191c138 0 189 -49 189 -139c0 -104 -72 -202 -189 -299v-176c0 -63 20 -79 63 -79c25 0 55 11 82 27zM511 655c0 32 -9 59 -52 59
c-53 0 -57 -42 -57 -110v-153c73 68 109 135 109 204z" />
    <glyph glyph-name="afii61352" unicode="&#x2116;" horiz-adv-x="1438" 
d="M1384 60h-530l18 102h530zM1457 450c-35 -190 -143 -247 -313 -247c-144 0 -225 71 -225 210c0 24 2 49 11 100c34 193 146 248 313 248c144 0 226 -68 226 -203c0 -29 -2 -56 -12 -108zM1259 471c8 49 10 70 10 87c0 43 -16 59 -52 59c-51 0 -73 -31 -89 -124
c-8 -49 -10 -70 -10 -87c0 -43 16 -59 52 -59c51 0 72 31 89 124zM640 743h300l-27 -150l-45 -4l-103 -589h-226l-137 322c-10 25 -24 59 -33 88h-3c-4 -36 -9 -79 -15 -114l-25 -142l43 -4l-26 -150h-298l26 150l43 4l76 435l-41 4l27 150h261l142 -317
c13 -30 25 -65 34 -93h2c3 34 11 85 17 120l24 136l-43 4z" />
    <glyph glyph-name="trademark" unicode="&#x2122;" horiz-adv-x="1030" 
d="M856 410l32 4l16 87c4 21 8 44 14 67h-1c-12 -16 -26 -37 -38 -50l-56 -61h-60l-33 61c-7 13 -15 34 -20 50h-1c-3 -23 -6 -46 -10 -67l-16 -87l32 -4l-14 -81h-201l14 81l32 4l45 254l-31 4l14 80h157l61 -118c8 -14 14 -31 19 -47h1c10 16 22 33 35 47l103 118h167
l-14 -80l-33 -4l-45 -254l31 -4l-14 -81h-200zM527 627h-71l-2 28h-37l-43 -241l30 -4l-14 -80h-204l14 80l30 4l43 241h-37l-12 -28h-71l22 125h374z" />
    <glyph glyph-name="Omega" unicode="&#x2126;" horiz-adv-x="792" 
d="M817 399c-24 -128 -84 -196 -204 -236l-5 -32h144l-23 -131h-300l41 237c70 15 103 71 119 163c12 68 13 83 13 96c0 69 -38 92 -103 92c-78 0 -129 -33 -147 -136c-13 -76 -15 -97 -15 -116c0 -54 18 -88 66 -99l-41 -237h-299l23 131h143l5 32
c-84 32 -120 107 -120 201c0 24 3 49 16 125c36 204 176 272 400 272c195 0 303 -83 303 -239c0 -36 -6 -70 -16 -123z" />
    <glyph glyph-name="estimated" unicode="&#x212e;" horiz-adv-x="667" 
d="M692 282h-450v-193c44 -40 96 -63 159 -63c118 0 173 59 220 127l33 -19c-55 -81 -122 -141 -253 -141c-171 0 -284 133 -284 290c0 159 109 290 288 290s287 -134 287 -291zM566 315v163c-38 33 -100 62 -161 62c-63 0 -121 -21 -163 -62v-163h324z" />
    <glyph glyph-name="onethird" unicode="&#x2153;" horiz-adv-x="1137" 
d="M1002 747l-639 -747h-176l639 747h176zM398 301h-292l17 96l69 5l38 215l-73 -22l20 109l119 44h110l-61 -346l70 -5zM1110 142c0 -126 -103 -154 -223 -154c-66 0 -136 11 -166 22l19 112h86l-2 -33c20 -1 42 -1 61 -1c42 0 75 11 75 56c0 26 -12 36 -56 36h-121l16 90
h121c38 0 72 12 72 56c0 26 -15 31 -59 31c-20 0 -41 0 -60 -1l-11 -31h-85l19 109c32 11 107 23 173 23c109 0 177 -30 177 -115c0 -52 -25 -94 -74 -120c28 -15 38 -49 38 -80z" />
    <glyph glyph-name="twothirds" unicode="&#x2154;" horiz-adv-x="1223" 
d="M1082 747l-639 -747h-177l640 747h176zM1197 142c0 -126 -103 -154 -223 -154c-66 0 -136 11 -166 22l19 112h86l-2 -33c20 -1 42 -1 61 -1c42 0 75 11 75 56c0 26 -12 36 -56 36h-121l16 90h121c38 0 72 12 72 56c0 26 -15 31 -59 31c-20 0 -41 0 -60 -1l-11 -31h-85
l19 109c32 11 107 23 173 23c109 0 177 -30 177 -115c0 -52 -25 -94 -74 -120c28 -15 38 -49 38 -80zM465 301h-362l9 56c19 116 67 158 175 207c29 13 92 31 92 74c0 17 -16 22 -63 22c-12 0 -33 0 -53 -1l-11 -32h-85l20 111c48 14 125 21 174 21c121 0 175 -37 175 -108
c0 -89 -72 -129 -150 -160c-81 -33 -117 -55 -122 -86h129l9 29h86z" />
    <glyph glyph-name="oneeighth" unicode="&#x215b;" horiz-adv-x="1151" 
d="M1002 747l-639 -747h-176l639 747h176zM398 301h-292l17 96l69 5l38 215l-73 -22l20 109l119 44h110l-61 -346l70 -5zM1095 228c25 -18 37 -46 37 -78c0 -143 -103 -163 -232 -163h-4c-103 0 -180 26 -180 118c0 53 18 99 71 123c-22 16 -36 47 -36 82
c0 134 112 146 228 146h4c108 0 182 -31 182 -114c0 -48 -19 -89 -70 -114zM980 128c3 14 4 22 4 29c0 21 -10 30 -33 30h-34c-31 0 -43 -15 -49 -46c-3 -19 -3 -24 -3 -29c0 -28 17 -36 47 -36h4c35 0 57 11 64 52zM1013 318l1 4c1 4 1 8 1 11c0 25 -17 33 -48 33h-4
c-35 0 -56 -11 -62 -48c-1 -7 -2 -13 -2 -18c0 -19 8 -29 33 -29h34c31 0 42 17 47 47z" />
    <glyph glyph-name="threeeighths" unicode="&#x215c;" horiz-adv-x="1205" 
d="M1052 747l-639 -747h-176l639 747h176zM1145 228c25 -18 37 -46 37 -78c0 -143 -103 -163 -232 -163h-4c-103 0 -180 26 -180 118c0 53 18 99 71 123c-22 16 -36 47 -36 82c0 134 112 146 228 146h4c108 0 182 -31 182 -114c0 -48 -19 -89 -70 -114zM1030 128
c3 14 4 22 4 29c0 21 -10 30 -33 30h-34c-31 0 -43 -15 -49 -46c-3 -19 -3 -24 -3 -29c0 -28 17 -36 47 -36h4c35 0 57 11 64 52zM1063 318l1 4c1 4 1 8 1 11c0 25 -17 33 -48 33h-4c-35 0 -56 -11 -62 -48c-1 -7 -2 -13 -2 -18c0 -19 8 -29 33 -29h34c31 0 42 17 47 47z
M495 444c0 -126 -103 -154 -223 -154c-66 0 -136 11 -166 22l19 112h86l-2 -33c20 -1 42 -1 61 -1c42 0 75 11 75 56c0 26 -12 36 -56 36h-121l16 90h121c38 0 72 12 72 56c0 26 -15 31 -59 31c-20 0 -41 0 -60 -1l-11 -31h-85l19 109c32 11 107 23 173 23
c109 0 177 -30 177 -115c0 -52 -25 -94 -74 -120c28 -15 38 -49 38 -80z" />
    <glyph glyph-name="fiveeighths" unicode="&#x215d;" horiz-adv-x="1202" 
d="M1050 747l-640 -747h-176l639 747h177zM1145 228c25 -18 37 -46 37 -78c0 -143 -103 -163 -232 -163h-4c-103 0 -180 26 -180 118c0 53 18 99 71 123c-22 16 -36 47 -36 82c0 134 112 146 228 146h4c108 0 182 -31 182 -114c0 -48 -19 -89 -70 -114zM1030 128
c3 14 4 22 4 29c0 21 -10 30 -33 30h-34c-31 0 -43 -15 -49 -46c-3 -19 -3 -24 -3 -29c0 -28 17 -36 47 -36h4c35 0 57 11 64 52zM1063 318l1 4c1 4 1 8 1 11c0 25 -17 33 -48 33h-4c-35 0 -56 -11 -62 -48c-1 -7 -2 -13 -2 -18c0 -19 8 -29 33 -29h34c31 0 42 17 47 47z
M497 468c0 -138 -94 -181 -227 -181c-76 0 -137 11 -165 19l21 114h83v-34c14 -1 28 -1 41 -1c50 0 90 13 90 71c0 23 -18 30 -69 30h-133l69 259h326l-22 -123h-84v24h-119l-16 -67h33c129 0 172 -35 172 -111z" />
    <glyph glyph-name="seveneighths" unicode="&#x215e;" horiz-adv-x="1112" 
d="M959 747l-639 -747h-176l639 747h176zM535 638l-265 -339h-158l273 347h-124l-10 -28h-84l23 127h364zM1049 228c25 -18 37 -46 37 -78c0 -143 -103 -163 -232 -163h-4c-103 0 -180 26 -180 118c0 53 18 99 71 123c-22 16 -36 47 -36 82c0 134 112 146 228 146h4
c108 0 182 -31 182 -114c0 -48 -19 -89 -70 -114zM934 128c3 14 4 22 4 29c0 21 -10 30 -33 30h-34c-31 0 -43 -15 -49 -46c-3 -19 -3 -24 -3 -29c0 -28 17 -36 47 -36h4c35 0 57 11 64 52zM967 318l1 4c1 4 1 8 1 11c0 25 -17 33 -48 33h-4c-35 0 -56 -11 -62 -48
c-1 -7 -2 -13 -2 -18c0 -19 8 -29 33 -29h34c31 0 42 17 47 47z" />
    <glyph glyph-name="partialdiff" unicode="&#x2202;" horiz-adv-x="709" 
d="M718 439c0 -224 -64 -453 -344 -453c-173 0 -263 80 -263 223c0 178 89 326 293 326c61 0 92 -10 113 -19c-12 107 -80 160 -197 160c-35 0 -77 -3 -121 -11l11 118c50 11 101 16 149 16c238 0 359 -142 359 -360zM493 316c0 43 -20 62 -66 62c-86 0 -103 -100 -103 -173
c0 -47 21 -64 68 -64c85 0 101 103 101 175z" />
    <glyph glyph-name="Delta" unicode="&#x2206;" horiz-adv-x="836" 
d="M794 0h-753l321 743h371zM556 155l-22 351c-2 37 -2 80 -2 114h-2c-12 -34 -26 -77 -41 -114l-147 -351h214z" />
    <glyph glyph-name="product" unicode="&#x220f;" horiz-adv-x="835" 
d="M793 565h-76v-638h-220v637h-160v-637h-220v638h-75v178h751v-178z" />
    <glyph glyph-name="summation" unicode="&#x2211;" horiz-adv-x="656" 
d="M664 -73h-540v163l201 246l-201 244v163h540v-162h-296l165 -205v-82l-165 -204h296v-163z" />
    <glyph glyph-name="minus" unicode="&#x2212;" horiz-adv-x="676" 
d="M681 305h-521v158h521v-158z" />
    <glyph glyph-name="uni2215" unicode="&#x2215;" horiz-adv-x="640" 
d="M793 747l-639 -747h-177l640 747h176z" />
    <glyph glyph-name="uni2219" unicode="&#x2219;" horiz-adv-x="339" 
d="M307 262h-202l31 177h202z" />
    <glyph glyph-name="radical" unicode="&#x221a;" horiz-adv-x="862" 
d="M922 871l-288 -938h-226l-128 422h-124v158h249l115 -394l224 752h178z" />
    <glyph glyph-name="infinity" unicode="&#x221e;" horiz-adv-x="723" 
d="M723 367c0 -76 -8 -249 -169 -249h-6c-46 0 -83 17 -112 48c-24 -30 -62 -50 -106 -50h-7c-160 0 -169 166 -169 251v24c0 74 8 249 170 249h7c46 0 82 -18 110 -50c26 36 61 51 108 51h6c160 0 168 -166 168 -251v-23zM598 367v23c0 80 -1 133 -45 133h-5
c-31 0 -38 -42 -49 -144c-5 -41 -8 -61 -15 -110c18 -25 38 -36 61 -36h4c47 0 49 61 49 134zM395 485c-15 23 -38 39 -61 39h-5c-48 0 -50 -67 -50 -133v-24c0 -71 1 -133 47 -133h5c30 0 36 36 49 145c4 33 8 58 15 106z" />
    <glyph glyph-name="integral" unicode="&#x222b;" horiz-adv-x="561" 
d="M577 658c-30 2 -56 3 -74 3c-43 0 -48 -9 -48 -50v-639c0 -121 -55 -177 -182 -177c-65 0 -122 9 -156 17v115c29 -1 55 -3 74 -3c43 0 48 10 48 51v638c0 122 54 177 181 177c66 0 122 -9 157 -16v-116z" />
    <glyph glyph-name="approxequal" unicode="&#x2248;" horiz-adv-x="676" 
d="M670 588c0 -121 -67 -157 -141 -157c-36 0 -67 3 -111 23l-59 27c-24 11 -39 18 -54 18c-22 0 -28 -11 -28 -39v-25h-127v25c0 121 68 157 145 157c33 0 61 -8 103 -27l65 -29c20 -9 35 -14 52 -14c22 0 27 14 27 41v25h128v-25zM670 327c0 -121 -67 -157 -141 -157
c-36 0 -67 3 -111 23l-59 27c-24 11 -39 18 -54 18c-22 0 -28 -11 -28 -39v-25h-127v25c0 121 68 157 145 157c33 0 61 -8 103 -27l65 -29c20 -9 35 -14 52 -14c22 0 27 14 27 41v25h128v-25z" />
    <glyph glyph-name="notequal" unicode="&#x2260;" horiz-adv-x="676" 
d="M672 155h-229l-56 -163h-202l55 163h-86v158h134l43 136h-177v159h225l49 143h202l-49 -143h91v-159h-139l-43 -136h182v-158z" />
    <glyph glyph-name="lessequal" unicode="&#x2264;" horiz-adv-x="676" 
d="M659 0h-532v122h532v-122zM628 183h-225l-274 236l274 236h225l-271 -236z" />
    <glyph glyph-name="greaterequal" unicode="&#x2265;" horiz-adv-x="676" 
d="M600 0h-532v122h532v-122zM598 419l-274 -236h-225l271 236l-271 236h225z" />
    <glyph glyph-name="lozenge" unicode="&#x25ca;" horiz-adv-x="706" 
d="M705 367l-288 -334l-284 333l285 338zM541 367l-123 143l-122 -144l121 -142z" />
    <glyph glyph-name="A.sc" unicode="&#xe000;" horiz-adv-x="738" 
d="M696 0h-221l-9 119h-143l-50 -119h-232l22 130l45 5l140 313l-35 3l24 136h398l39 -452l44 -5zM470 250l-9 148c-2 26 -1 60 0 85h-4c-9 -26 -20 -58 -30 -85l-60 -148h103z" />
    <glyph glyph-name="AE.sc" unicode="&#xe001;" horiz-adv-x="914" 
d="M969 587l-29 -163h-115l-2 28h-123l-16 -91h229l-22 -127h-229l-18 -99h123l12 29h115l-28 -164h-452l20 119h-117l-50 -119h-225l22 130l44 4l142 315l-36 3l24 135h731zM498 481h-48c-9 -26 -20 -56 -29 -80l-60 -151h97z" />
    <glyph glyph-name="Aacute.sc" unicode="&#xe002;" horiz-adv-x="738" 
d="M696 0h-221l-9 119h-143l-50 -119h-232l22 130l45 5l140 313l-35 3l24 136h398l39 -452l44 -5zM470 250l-9 148c-2 26 -1 60 0 85h-4c-9 -26 -20 -58 -30 -85l-60 -148h103zM756 790l-200 -141h-203l157 141h246z" />
    <glyph glyph-name="Acircumflex.sc" unicode="&#xe003;" horiz-adv-x="738" 
d="M696 0h-221l-9 119h-143l-50 -119h-232l22 130l45 5l140 313l-35 3l24 136h398l39 -452l44 -5zM470 250l-9 148c-2 26 -1 60 0 85h-4c-9 -26 -20 -58 -30 -85l-60 -148h103zM741 649h-178l-65 71l-90 -71h-189l160 141h253z" />
    <glyph glyph-name="Adieresis.sc" unicode="&#xe004;" horiz-adv-x="738" 
d="M696 0h-221l-9 119h-143l-50 -119h-232l22 130l45 5l140 313l-35 3l24 136h398l39 -452l44 -5zM470 250l-9 148c-2 26 -1 60 0 85h-4c-9 -26 -20 -58 -30 -85l-60 -148h103zM698 655h-169l24 131h169zM432 655l24 131h-170l-24 -131h170z" />
    <glyph glyph-name="Agrave.sc" unicode="&#xe005;" horiz-adv-x="738" 
d="M696 0h-221l-9 119h-143l-50 -119h-232l22 130l45 5l140 313l-35 3l24 136h398l39 -452l44 -5zM470 250l-9 148c-2 26 -1 60 0 85h-4c-9 -26 -20 -58 -30 -85l-60 -148h103zM595 649h-189l-150 141h232z" />
    <glyph glyph-name="Aring.sc" unicode="&#xe006;" horiz-adv-x="738" 
d="M696 0h-221l-9 119h-143l-50 -119h-232l22 130l45 5l140 313l-35 3l24 136h398l39 -452l44 -5zM470 250l-9 148c-2 26 -1 60 0 85h-4c-9 -26 -20 -58 -30 -85l-60 -148h103zM640 756c0 -80 -65 -127 -154 -127c-90 0 -157 47 -157 127c0 81 67 128 157 128
c89 0 154 -47 154 -128zM540 757c0 30 -22 45 -54 45c-33 0 -56 -15 -56 -45s23 -45 56 -45c32 0 54 15 54 45z" />
    <glyph glyph-name="Atilde.sc" unicode="&#xe007;" horiz-adv-x="738" 
d="M696 0h-221l-9 119h-143l-50 -119h-232l22 130l45 5l140 313l-35 3l24 136h398l39 -452l44 -5zM470 250l-9 148c-2 26 -1 60 0 85h-4c-9 -26 -20 -58 -30 -85l-60 -148h103zM751 811c-24 -132 -93 -165 -159 -165c-28 0 -70 3 -108 24l-41 22c-24 13 -34 18 -45 18
c-25 0 -34 -12 -43 -61h-115c23 133 92 168 162 168c31 0 61 -4 95 -22l41 -23c28 -15 41 -21 60 -21c22 0 30 12 39 60h114z" />
    <glyph glyph-name="B.sc" unicode="&#xe008;" horiz-adv-x="671" 
d="M660 197c0 -193 -187 -209 -351 -209c-63 0 -162 4 -265 14l22 128l35 5l57 319l-34 5l23 128c113 9 208 12 272 12c180 0 282 -34 282 -155c0 -56 -26 -117 -89 -155c33 -19 48 -52 48 -92zM464 196c0 35 -19 47 -74 47h-74l-21 -120c23 -1 42 -1 56 -1
c73 0 113 10 113 74zM410 353c61 0 92 15 92 75c0 32 -27 38 -88 38c-18 0 -33 0 -59 -1l-19 -112h74z" />
    <glyph glyph-name="C.sc" unicode="&#xe009;" horiz-adv-x="567" 
d="M519 3c-36 -10 -137 -18 -184 -18c-172 0 -251 68 -251 216c0 26 3 55 18 144c36 208 146 257 342 257c47 0 145 -9 177 -18l-29 -169h-117v39c-10 0 -21 1 -31 1c-74 0 -113 -23 -133 -133c-14 -79 -16 -98 -16 -113c0 -64 33 -77 92 -77h31l14 40h117z" />
    <glyph glyph-name="Ccedilla.sc" unicode="&#xe00a;" horiz-adv-x="567" 
d="M520 3c-36 -10 -137 -18 -184 -18c-172 0 -251 68 -251 216c0 26 3 55 18 144c36 208 146 257 342 257c47 0 145 -9 177 -18l-29 -169h-117v39c-10 0 -21 1 -31 1c-74 0 -113 -23 -133 -133c-14 -79 -16 -98 -16 -113c0 -64 33 -77 92 -77h31l14 40h117zM448 -60
l-154 -139h-193l124 139h223z" />
    <glyph glyph-name="D.sc" unicode="&#xe00b;" horiz-adv-x="678" 
d="M678 253c-36 -203 -152 -265 -363 -265c-103 0 -189 4 -271 14l23 129l38 5l56 317l-37 5l23 129c93 8 177 12 276 12c181 0 272 -67 272 -213c0 -25 -3 -52 -17 -133zM476 263c15 88 17 108 17 124c0 54 -24 68 -86 68h-46l-57 -323c10 0 31 -1 46 -1
c82 0 108 28 126 132z" />
    <glyph glyph-name="Eth.sc" unicode="&#xe00c;" horiz-adv-x="678" 
d="M678 253c-36 -203 -152 -265 -363 -265c-103 0 -189 4 -271 14l23 129l38 5l17 98h-40l22 124h40l17 95l-37 5l23 129c93 8 177 12 276 12c181 0 272 -67 272 -213c0 -25 -3 -52 -17 -133zM476 263c15 88 17 108 17 124c0 54 -24 68 -86 68h-46l-17 -97h67l-22 -124h-67
l-18 -102c10 0 31 -1 46 -1c82 0 108 28 126 132z" />
    <glyph glyph-name="E.sc" unicode="&#xe00d;" horiz-adv-x="577" 
d="M529 0h-485l22 130l34 3l57 322l-33 4l23 128h485l-29 -163h-116l-1 28h-124l-16 -91h231l-22 -127h-231l-18 -99h124l11 29h116z" />
    <glyph glyph-name="Eacute.sc" unicode="&#xe00e;" horiz-adv-x="577" 
d="M528 0h-485l22 130l34 3l57 322l-33 4l23 128h485l-29 -163h-116l-1 28h-124l-16 -91h231l-22 -127h-231l-18 -99h124l11 29h116zM694 791l-200 -141h-203l157 141h246z" />
    <glyph glyph-name="Ecircumflex.sc" unicode="&#xe00f;" horiz-adv-x="577" 
d="M528 0h-485l22 130l34 3l57 322l-33 4l23 128h485l-29 -163h-116l-1 28h-124l-16 -91h231l-22 -127h-231l-18 -99h124l11 29h116zM676 650h-178l-65 71l-90 -71h-189l160 141h253z" />
    <glyph glyph-name="Edieresis.sc" unicode="&#xe010;" horiz-adv-x="577" 
d="M528 0h-485l22 130l34 3l57 322l-33 4l23 128h485l-29 -163h-116l-1 28h-124l-16 -91h231l-22 -127h-231l-18 -99h124l11 29h116zM626 655h-169l24 131h169zM360 655l24 131h-170l-24 -131h170z" />
    <glyph glyph-name="Egrave.sc" unicode="&#xe011;" horiz-adv-x="577" 
d="M528 0h-485l22 130l34 3l57 322l-33 4l23 128h485l-29 -163h-116l-1 28h-124l-16 -91h231l-22 -127h-231l-18 -99h124l11 29h116zM526 650h-189l-150 141h232z" />
    <glyph glyph-name="F.sc" unicode="&#xe012;" horiz-adv-x="574" 
d="M558 231h-234l-17 -97l33 -4l-22 -130h-274l22 130l35 4l57 321l-34 4l23 128h486l-29 -165h-115l-2 28h-124l-16 -90h234z" />
    <glyph glyph-name="G.sc" unicode="&#xe013;" horiz-adv-x="626" 
d="M578 6c-57 -11 -153 -21 -238 -21c-146 0 -256 50 -256 215c0 25 3 53 19 145c43 246 208 257 343 257c96 0 189 -16 230 -26l-28 -160h-115l-2 36c-20 1 -44 2 -63 2c-97 0 -143 -13 -164 -131c-14 -84 -17 -104 -17 -121c0 -53 23 -70 72 -70c18 0 38 0 54 2l14 81
l-48 6l19 105h236z" />
    <glyph glyph-name="H.sc" unicode="&#xe014;" horiz-adv-x="749" 
d="M532 587h276l-23 -128l-35 -5l-57 -320l34 -4l-22 -130h-276l22 130l35 4l17 93h-177l-17 -93l33 -4l-22 -130h-276l22 130l35 4l57 320l-34 5l23 128h276l-23 -130l-35 -4l-14 -82h177l14 82l-33 4z" />
    <glyph glyph-name="I.sc" unicode="&#xe015;" horiz-adv-x="364" 
d="M319 0h-275l22 130l35 4l57 321l-34 4l23 128h275l-23 -128l-34 -4l-57 -321l33 -4z" />
    <glyph glyph-name="Iacute.sc" unicode="&#xe016;" horiz-adv-x="364" 
d="M319 0h-275l22 130l35 4l57 321l-34 4l23 128h275l-23 -128l-34 -4l-57 -321l33 -4zM568 791l-200 -141h-203l157 141h246z" />
    <glyph glyph-name="Icircumflex.sc" unicode="&#xe017;" horiz-adv-x="364" 
d="M319 0h-275l22 130l35 4l57 321l-34 4l23 128h275l-23 -128l-34 -4l-57 -321l33 -4zM556 650h-178l-65 71l-90 -71h-189l160 141h253z" />
    <glyph glyph-name="Idieresis.sc" unicode="&#xe018;" horiz-adv-x="364" 
d="M318 0h-275l22 130l35 4l57 321l-34 4l23 128h275l-23 -128l-34 -4l-57 -321l33 -4zM513 655h-169l24 131h169zM247 655l24 131h-170l-24 -131h170z" />
    <glyph glyph-name="Igrave.sc" unicode="&#xe019;" horiz-adv-x="364" 
d="M319 0h-275l22 130l35 4l57 321l-34 4l23 128h275l-23 -128l-34 -4l-57 -321l33 -4zM430 650h-189l-150 141h232z" />
    <glyph glyph-name="J.sc" unicode="&#xe01a;" horiz-adv-x="370" 
d="M405 459l-34 -4l-80 -452c-22 -124 -93 -171 -217 -171c-40 0 -69 2 -92 7l20 120h34c37 0 43 11 49 44l80 452l-34 4l23 128h274z" />
    <glyph glyph-name="K.sc" unicode="&#xe01b;" horiz-adv-x="703" 
d="M700 454l-155 -166l78 -154l58 -4l-22 -130h-209l-119 277l-25 -143l33 -4l-22 -130h-273l22 130l34 3l57 322l-33 4l23 128h273l-23 -130l-35 -4l-24 -136l222 270h203l-23 -128z" />
    <glyph glyph-name="L.sc" unicode="&#xe01c;" horiz-adv-x="538" 
d="M494 0h-450l22 130l34 3l57 322l-33 4l23 128h273l-23 -128l-34 -4l-55 -312h88l14 42h116z" />
    <glyph glyph-name="Lslash.sc" unicode="&#xe01d;" horiz-adv-x="538" 
d="M494 0h-450l22 130l34 3l11 60l-38 -20l16 88l37 19l31 175l-33 4l23 128h273l-23 -128l-34 -4l-14 -79l116 57l-16 -88l-116 -57l-25 -145h88l14 42h116z" />
    <glyph glyph-name="M.sc" unicode="&#xe01e;" horiz-adv-x="827" 
d="M305 0h-261l22 130l32 3l57 322l-31 4l23 128h208l84 -164c10 -20 22 -45 28 -66h2c14 21 34 46 51 66l144 164h222l-23 -128l-34 -4l-57 -321l33 -4l-22 -130h-266l22 130l35 4l18 100c5 29 13 61 19 92h-1c-15 -23 -35 -49 -52 -68l-74 -82h-83l-46 82
c-11 19 -22 47 -28 68h-1c-4 -31 -9 -63 -14 -92l-18 -100l33 -4z" />
    <glyph glyph-name="N.sc" unicode="&#xe01f;" horiz-adv-x="731" 
d="M535 587h254l-23 -128l-34 -4l-80 -455h-194l-117 234c-9 19 -20 45 -28 66h-2c-2 -26 -7 -60 -12 -86l-14 -80l33 -4l-22 -130h-252l22 130l34 3l57 322l-33 4l23 128h222l119 -233c12 -23 21 -48 29 -68h2c2 25 8 63 13 89l13 78l-33 4z" />
    <glyph glyph-name="Ntilde.sc" unicode="&#xe020;" horiz-adv-x="731" 
d="M535 587h254l-23 -128l-34 -4l-80 -455h-194l-117 234c-9 19 -20 45 -28 66h-2c-2 -26 -7 -60 -12 -86l-14 -80l33 -4l-22 -130h-252l22 130l34 3l57 322l-33 4l23 128h222l119 -233c12 -23 21 -48 29 -68h2c2 25 8 63 13 89l13 78l-33 4zM751 812
c-24 -132 -93 -165 -159 -165c-28 0 -70 3 -108 24l-41 22c-24 13 -34 18 -45 18c-25 0 -34 -12 -43 -61h-115c23 133 92 168 162 168c31 0 61 -4 95 -22l41 -23c28 -15 41 -21 60 -21c22 0 30 12 39 60h114z" />
    <glyph glyph-name="O.sc" unicode="&#xe021;" horiz-adv-x="662" 
d="M661 250c-40 -228 -178 -265 -322 -265s-252 60 -252 223c0 25 3 52 16 129c39 226 187 265 327 265c150 0 247 -61 247 -220c0 -26 -3 -54 -16 -132zM462 270c13 73 15 94 15 112c0 56 -23 72 -66 72c-56 0 -90 -29 -109 -138c-12 -71 -15 -92 -15 -109
c0 -57 24 -74 67 -74c56 0 89 27 108 137z" />
    <glyph glyph-name="OE.sc" unicode="&#xe022;" horiz-adv-x="899" 
d="M851 0h-382c-49 -10 -90 -15 -138 -15c-137 0 -245 61 -245 226c0 25 2 52 15 128c39 228 181 263 339 263c48 0 88 -5 132 -15h382l-29 -163h-115l-2 28h-123l-16 -91h236l-22 -127h-236l-18 -99h123l12 29h115zM429 137l55 313c-27 3 -48 4 -67 4
c-61 0 -96 -29 -115 -138c-12 -71 -15 -91 -15 -108c0 -57 25 -75 71 -75c29 0 45 2 71 4z" />
    <glyph glyph-name="Oacute.sc" unicode="&#xe023;" horiz-adv-x="662" 
d="M661 250c-40 -228 -178 -265 -322 -265s-252 60 -252 223c0 25 3 52 16 129c39 226 187 265 327 265c150 0 247 -61 247 -220c0 -26 -3 -54 -16 -132zM462 270c13 73 15 94 15 112c0 56 -23 72 -66 72c-56 0 -90 -29 -109 -138c-12 -71 -15 -92 -15 -109
c0 -57 24 -74 67 -74c56 0 89 27 108 137zM732 791l-200 -141h-203l157 141h246z" />
    <glyph glyph-name="Ocircumflex.sc" unicode="&#xe024;" horiz-adv-x="662" 
d="M661 250c-40 -228 -178 -265 -322 -265s-252 60 -252 223c0 25 3 52 16 129c39 226 187 265 327 265c150 0 247 -61 247 -220c0 -26 -3 -54 -16 -132zM462 270c13 73 15 94 15 112c0 56 -23 72 -66 72c-56 0 -90 -29 -109 -138c-12 -71 -15 -92 -15 -109
c0 -57 24 -74 67 -74c56 0 89 27 108 137zM708 650h-178l-65 71l-90 -71h-189l160 141h253z" />
    <glyph glyph-name="Odieresis.sc" unicode="&#xe025;" horiz-adv-x="662" 
d="M661 250c-40 -228 -178 -265 -322 -265s-252 60 -252 223c0 25 3 52 16 129c39 226 187 265 327 265c150 0 247 -61 247 -220c0 -26 -3 -54 -16 -132zM462 270c13 73 15 94 15 112c0 56 -23 72 -66 72c-56 0 -90 -29 -109 -138c-12 -71 -15 -92 -15 -109
c0 -57 24 -74 67 -74c56 0 89 27 108 137zM666 655h-169l24 131h169zM400 655l24 131h-170l-24 -131h170z" />
    <glyph glyph-name="Ograve.sc" unicode="&#xe026;" horiz-adv-x="662" 
d="M661 250c-40 -228 -178 -265 -322 -265s-252 60 -252 223c0 25 3 52 16 129c39 226 187 265 327 265c150 0 247 -61 247 -220c0 -26 -3 -54 -16 -132zM462 270c13 73 15 94 15 112c0 56 -23 72 -66 72c-56 0 -90 -29 -109 -138c-12 -71 -15 -92 -15 -109
c0 -57 24 -74 67 -74c56 0 89 27 108 137zM582 649h-189l-150 141h232z" />
    <glyph glyph-name="Oslash.sc" unicode="&#xe027;" horiz-adv-x="662" 
d="M661 250c-40 -228 -178 -265 -322 -265c-60 0 -114 11 -156 34l-35 -37h-112l87 93c-23 33 -35 77 -35 133c0 25 2 52 15 129c39 226 187 265 327 265c63 0 117 -11 158 -36l34 39h112l-88 -97c19 -33 30 -74 30 -126c0 -26 -2 -54 -15 -132zM462 270c13 73 15 94 15 112
c0 56 -23 72 -66 72c-56 0 -90 -29 -109 -138c-12 -71 -15 -92 -15 -109c0 -57 24 -74 67 -74c56 0 89 27 108 137z" />
    <glyph glyph-name="Otilde.sc" unicode="&#xe028;" horiz-adv-x="662" 
d="M661 250c-40 -228 -178 -265 -322 -265s-252 60 -252 223c0 25 3 52 16 129c39 226 187 265 327 265c150 0 247 -61 247 -220c0 -26 -3 -54 -16 -132zM462 270c13 73 15 94 15 112c0 56 -23 72 -66 72c-56 0 -90 -29 -109 -138c-12 -71 -15 -92 -15 -109
c0 -57 24 -74 67 -74c56 0 89 27 108 137zM718 812c-24 -132 -93 -165 -159 -165c-28 0 -70 3 -108 24l-41 22c-24 13 -34 18 -45 18c-25 0 -34 -12 -43 -61h-115c23 133 92 168 162 168c31 0 61 -4 95 -22l41 -23c28 -15 41 -21 60 -21c22 0 30 12 39 60h114z" />
    <glyph glyph-name="P.sc" unicode="&#xe029;" horiz-adv-x="661" 
d="M308 0h-264l22 130l35 4l57 321l-34 4l23 128c77 6 169 11 266 11c156 0 279 -41 279 -178c0 -196 -147 -237 -327 -237h-59l-9 -49l33 -4zM384 325c70 0 109 18 109 80c0 45 -28 53 -87 53c-18 0 -37 -1 -52 -2l-23 -130c15 -1 34 -1 53 -1z" />
    <glyph glyph-name="Thorn.sc" unicode="&#xe02a;" horiz-adv-x="661" 
d="M678 349c0 -195 -150 -243 -328 -243c-20 0 -34 0 -59 1l-18 -107h-230l22 130l35 4l60 339l-33 4l23 130h230l-16 -86h45c148 0 269 -38 269 -172zM369 248c63 0 109 16 109 86c0 38 -28 46 -86 46c-18 0 -38 -1 -53 -2l-23 -129c15 -1 34 -1 53 -1z" />
    <glyph glyph-name="Q.sc" unicode="&#xe02b;" horiz-adv-x="662" 
d="M661 250c-33 -189 -134 -247 -249 -261l-1 -11c-1 -4 -1 -7 -1 -10c0 -12 6 -14 24 -14h80l-17 -99c-36 -10 -84 -18 -140 -18c-78 0 -133 20 -133 103c0 13 1 28 4 44l3 15c-87 26 -144 90 -144 209c0 25 3 52 16 129c39 226 187 265 327 265c150 0 247 -61 247 -220
c0 -26 -3 -54 -16 -132zM462 270c13 73 15 94 15 112c0 56 -23 72 -66 72c-56 0 -90 -29 -109 -138c-12 -71 -15 -92 -15 -109c0 -57 24 -74 67 -74c56 0 89 27 108 137z" />
    <glyph glyph-name="R.sc" unicode="&#xe02c;" horiz-adv-x="680" 
d="M308 0h-264l22 130l35 4l57 321l-34 4l23 128c74 6 175 11 275 11c170 0 270 -44 270 -169c0 -96 -34 -153 -120 -197l41 -96l45 -6l-22 -130h-178l-71 194h-79l-11 -60l33 -4zM383 325c61 0 109 16 109 88c0 36 -26 45 -87 45c-18 0 -36 -1 -51 -1l-23 -132h52z" />
    <glyph glyph-name="S.sc" unicode="&#xe02d;" horiz-adv-x="583" 
d="M575 195c0 -161 -133 -210 -283 -210c-95 0 -183 8 -232 19l28 156h115v-38c33 -1 55 -1 83 -1c33 0 80 6 80 52c0 17 -12 29 -58 46l-67 26c-84 32 -128 76 -128 160c0 171 149 197 299 197c87 0 167 -13 212 -22l-27 -150h-115l-2 37c-29 1 -55 1 -81 1
c-49 0 -75 -7 -80 -35c0 -3 -1 -5 -1 -7c0 -17 14 -28 54 -44l66 -26c91 -35 137 -74 137 -161z" />
    <glyph glyph-name="Scaron.sc" unicode="&#xe02e;" horiz-adv-x="583" 
d="M575 195c0 -161 -133 -210 -283 -210c-95 0 -183 8 -232 19l28 156h115v-38c33 -1 55 -1 83 -1c33 0 80 6 80 52c0 17 -12 29 -58 46l-67 26c-84 32 -128 76 -128 160c0 171 149 197 299 197c87 0 167 -13 212 -22l-27 -150h-115l-2 37c-29 1 -55 1 -81 1
c-49 0 -75 -7 -80 -35c0 -3 -1 -5 -1 -7c0 -17 14 -28 54 -44l66 -26c91 -35 137 -74 137 -161zM705 790l-159 -141h-253l-110 141h179l65 -71l90 71h188z" />
    <glyph glyph-name="T.sc" unicode="&#xe02f;" horiz-adv-x="629" 
d="M658 415h-108l-3 35h-50l-56 -317l33 -4l-22 -129h-275l22 129l35 4l56 317h-51l-13 -35h-110l30 172h542z" />
    <glyph glyph-name="U.sc" unicode="&#xe030;" horiz-adv-x="720" 
d="M508 587h271l-23 -128l-35 -4l-43 -237c-32 -178 -152 -233 -315 -233c-154 0 -245 72 -245 209c0 20 2 41 10 87l31 174l-35 4l23 128h271l-23 -130l-35 -4l-37 -214c-4 -21 -6 -39 -6 -54c0 -42 18 -58 64 -58c64 0 85 29 100 112l37 214l-33 4z" />
    <glyph glyph-name="Uacute.sc" unicode="&#xe031;" horiz-adv-x="720" 
d="M507 587h271l-23 -128l-35 -4l-43 -237c-32 -178 -152 -233 -315 -233c-154 0 -245 72 -245 209c0 20 2 41 10 87l31 174l-35 4l23 128h271l-23 -130l-35 -4l-37 -214c-4 -21 -6 -39 -6 -54c0 -42 18 -58 64 -58c64 0 85 29 100 112l37 214l-33 4zM736 791l-200 -141
h-203l157 141h246z" />
    <glyph glyph-name="Ucircumflex.sc" unicode="&#xe032;" horiz-adv-x="720" 
d="M507 587h271l-23 -128l-35 -4l-43 -237c-32 -178 -152 -233 -315 -233c-154 0 -245 72 -245 209c0 20 2 41 10 87l31 174l-35 4l23 128h271l-23 -130l-35 -4l-37 -214c-4 -21 -6 -39 -6 -54c0 -42 18 -58 64 -58c64 0 85 29 100 112l37 214l-33 4zM731 650h-178l-65 71
l-90 -71h-189l160 141h253z" />
    <glyph glyph-name="Udieresis.sc" unicode="&#xe033;" horiz-adv-x="720" 
d="M507 587h271l-23 -128l-35 -4l-43 -237c-32 -178 -152 -233 -315 -233c-154 0 -245 72 -245 209c0 20 2 41 10 87l31 174l-35 4l23 128h271l-23 -130l-35 -4l-37 -214c-4 -21 -6 -39 -6 -54c0 -42 18 -58 64 -58c64 0 85 29 100 112l37 214l-33 4zM689 655h-169l24 131
h169zM423 655l24 131h-170l-24 -131h170z" />
    <glyph glyph-name="Ugrave.sc" unicode="&#xe034;" horiz-adv-x="720" 
d="M507 587h271l-23 -128l-35 -4l-43 -237c-32 -178 -152 -233 -315 -233c-154 0 -245 72 -245 209c0 20 2 41 10 87l31 174l-35 4l23 128h271l-23 -130l-35 -4l-37 -214c-4 -21 -6 -39 -6 -54c0 -42 18 -58 64 -58c64 0 85 29 100 112l37 214l-33 4zM597 650h-189l-150 141
h232z" />
    <glyph glyph-name="V.sc" unicode="&#xe035;" horiz-adv-x="712" 
d="M751 459l-40 -5l-194 -454h-324l-34 454l-39 5l23 128h213l15 -371c1 -33 -2 -77 -3 -109h2c11 32 26 76 39 109l144 371h221z" />
    <glyph glyph-name="W.sc" unicode="&#xe036;" horiz-adv-x="929" 
d="M967 459l-35 -4l-156 -455h-232l-25 221c-3 27 -1 65 0 89h-3c-8 -24 -19 -62 -31 -89l-101 -221h-232l3 455l-34 4l23 128h210l-10 -263c-2 -39 -6 -77 -9 -109h4c10 35 24 69 36 96l71 149h189l17 -149c4 -30 4 -61 1 -96h5c9 36 20 73 31 109l82 263h219z" />
    <glyph glyph-name="X.sc" unicode="&#xe037;" horiz-adv-x="663" 
d="M340 587l82 -153l121 153h180l-23 -128l-48 -7l-146 -175l76 -141l63 -6l-22 -130h-200l-77 143l-114 -143h-192l22 130l51 6l144 173l-77 144l-54 6l23 128h191z" />
    <glyph glyph-name="Y.sc" unicode="&#xe038;" horiz-adv-x="643" 
d="M682 459l-51 -7l-174 -243l-14 -82l33 -4l-21 -123h-271l21 123l39 4l14 82l-88 243l-50 7l23 128h182l37 -132c7 -27 14 -57 18 -86h2c13 29 30 60 47 86l84 132h192z" />
    <glyph glyph-name="Yacute.sc" unicode="&#xe039;" horiz-adv-x="643" 
d="M683 459l-51 -7l-174 -243l-14 -82l33 -4l-21 -123h-271l21 123l39 4l14 82l-88 243l-50 7l23 128h182l37 -132c7 -27 14 -57 18 -86h2c13 29 30 60 47 86l84 132h192zM723 791l-200 -141h-203l157 141h246z" />
    <glyph glyph-name="Ydieresis.sc" unicode="&#xe03a;" horiz-adv-x="643" 
d="M683 459l-51 -7l-174 -243l-14 -82l33 -4l-21 -123h-271l21 123l39 4l14 82l-88 243l-50 7l23 128h182l37 -132c7 -27 14 -57 18 -86h2c13 29 30 60 47 86l84 132h192zM655 655h-169l24 131h169zM389 655l24 131h-170l-24 -131h170z" />
    <glyph glyph-name="Z.sc" unicode="&#xe03b;" horiz-adv-x="565" 
d="M521 0h-477l22 130l286 316h-109l-14 -34h-108l31 175h467l-24 -137l-282 -310h115l16 36h108z" />
    <glyph glyph-name="Zcaron.sc" unicode="&#xe03c;" horiz-adv-x="565" 
d="M521 0h-477l22 130l286 316h-109l-14 -34h-108l31 175h467l-24 -137l-282 -310h115l16 36h108zM699 791l-159 -141h-253l-110 141h179l65 -71l90 71h188z" />
    <glyph glyph-name="Abreve.sc" unicode="&#xe040;" horiz-adv-x="738" 
d="M696 0h-221l-9 119h-143l-50 -119h-232l22 130l45 5l140 313l-35 3l24 136h398l39 -452l44 -5zM470 250l-9 148c-2 26 -1 60 0 85h-4c-9 -26 -20 -58 -30 -85l-60 -148h103zM729 804c-26 -120 -134 -161 -241 -161c-102 0 -199 42 -209 161h115c5 -59 49 -68 106 -68
c47 0 99 14 119 68h110z" />
    <glyph glyph-name="Amacron.sc" unicode="&#xe041;" horiz-adv-x="738" 
d="M696 0h-221l-9 119h-143l-50 -119h-232l22 130l45 5l140 313l-35 3l24 136h398l39 -452l44 -5zM470 250l-9 148c-2 26 -1 60 0 85h-4c-9 -26 -20 -58 -30 -85l-60 -148h103zM702 658h-441l20 113h441z" />
    <glyph glyph-name="Aogonek.sc" unicode="&#xe042;" horiz-adv-x="738" 
d="M661 -197c-31 -8 -95 -20 -164 -20c-100 0 -146 32 -146 92c0 67 75 104 144 125h-20l-9 119h-143l-50 -119h-232l22 130l45 5l140 313l-35 3l24 136h398l39 -452l44 -5l-22 -130c-78 -21 -153 -48 -153 -84c0 -16 11 -23 47 -23c30 0 61 3 88 5zM470 250l-9 148
c-2 26 -1 60 0 85h-4l-30 -85l-60 -148h103z" />
    <glyph glyph-name="AEacute.sc" unicode="&#xe043;" horiz-adv-x="914" 
d="M969 587l-29 -163h-115l-2 28h-123l-16 -91h229l-22 -127h-229l-18 -99h123l12 29h115l-28 -164h-452l20 119h-117l-50 -119h-225l22 130l44 4l142 315l-36 3l24 135h731zM498 481h-48c-9 -26 -20 -56 -29 -80l-60 -151h97zM898 791l-200 -141h-203l157 141h246z" />
    <glyph glyph-name="Cacute.sc" unicode="&#xe044;" horiz-adv-x="567" 
d="M520 3c-36 -10 -137 -18 -184 -18c-172 0 -251 68 -251 216c0 26 3 55 18 144c36 208 146 257 342 257c47 0 145 -9 177 -18l-29 -169h-117v39c-10 0 -21 1 -31 1c-74 0 -113 -23 -133 -133c-14 -79 -16 -98 -16 -113c0 -64 33 -77 92 -77h31l14 40h117zM706 791
l-200 -141h-203l157 141h246z" />
    <glyph glyph-name="Ccaron.sc" unicode="&#xe045;" horiz-adv-x="567" 
d="M520 3c-36 -10 -137 -18 -184 -18c-172 0 -251 68 -251 216c0 26 3 55 18 144c36 208 146 257 342 257c47 0 145 -9 177 -18l-29 -169h-117v39c-10 0 -21 1 -31 1c-74 0 -113 -23 -133 -133c-14 -79 -16 -98 -16 -113c0 -64 33 -77 92 -77h31l14 40h117zM712 791
l-159 -141h-253l-110 141h179l65 -71l90 71h188z" />
    <glyph glyph-name="Ccircumflex.sc" unicode="&#xe046;" horiz-adv-x="567" 
d="M520 3c-36 -10 -137 -18 -184 -18c-172 0 -251 68 -251 216c0 26 3 55 18 144c36 208 146 257 342 257c47 0 145 -9 177 -18l-29 -169h-117v39c-10 0 -21 1 -31 1c-74 0 -113 -23 -133 -133c-14 -79 -16 -98 -16 -113c0 -64 33 -77 92 -77h31l14 40h117zM690 650h-178
l-65 71l-90 -71h-189l160 141h253z" />
    <glyph glyph-name="Cdotaccent.sc" unicode="&#xe047;" horiz-adv-x="567" 
d="M520 3c-36 -10 -137 -18 -184 -18c-172 0 -251 68 -251 216c0 26 3 55 18 144c36 208 146 257 342 257c47 0 145 -9 177 -18l-29 -169h-117v39c-10 0 -21 1 -31 1c-74 0 -113 -23 -133 -133c-14 -79 -16 -98 -16 -113c0 -64 33 -77 92 -77h31l14 40h117zM549 658h-225
l23 130h225z" />
    <glyph glyph-name="Dcaron.sc" unicode="&#xe048;" horiz-adv-x="678" 
d="M677 253c-36 -203 -152 -265 -363 -265c-103 0 -189 4 -271 14l23 129l38 5l56 317l-37 5l23 129c93 8 177 12 276 12c181 0 272 -67 272 -213c0 -25 -3 -52 -17 -133zM475 263c15 88 17 108 17 124c0 54 -24 68 -86 68h-46l-57 -323c10 0 31 -1 46 -1
c82 0 108 28 126 132zM731 791l-159 -141h-253l-110 141h179l65 -71l90 71h188z" />
    <glyph glyph-name="Dcroat.sc" unicode="&#xe049;" horiz-adv-x="678" 
d="M678 253c-36 -203 -152 -265 -363 -265c-103 0 -189 4 -271 14l23 129l38 5l17 98h-40l22 124h40l17 95l-37 5l23 129c93 8 177 12 276 12c181 0 272 -67 272 -213c0 -25 -3 -52 -17 -133zM476 263c15 88 17 108 17 124c0 54 -24 68 -86 68h-46l-17 -97h67l-22 -124h-67
l-18 -102c10 0 31 -1 46 -1c82 0 108 28 126 132z" />
    <glyph glyph-name="Ebreve.sc" unicode="&#xe04a;" horiz-adv-x="577" 
d="M528 0h-485l22 130l34 3l57 322l-33 4l23 128h485l-29 -163h-116l-1 28h-124l-16 -91h231l-22 -127h-231l-18 -99h124l11 29h116zM670 805c-26 -120 -134 -161 -241 -161c-102 0 -199 42 -209 161h115c5 -59 49 -68 106 -68c47 0 99 14 119 68h110z" />
    <glyph glyph-name="Ecaron.sc" unicode="&#xe04b;" horiz-adv-x="577" 
d="M528 0h-485l22 130l34 3l57 322l-33 4l23 128h485l-29 -163h-116l-1 28h-124l-16 -91h231l-22 -127h-231l-18 -99h124l11 29h116zM706 791l-159 -141h-253l-110 141h179l65 -71l90 71h188z" />
    <glyph glyph-name="Edotaccent.sc" unicode="&#xe04c;" horiz-adv-x="577" 
d="M528 0h-485l22 130l34 3l57 322l-33 4l23 128h485l-29 -163h-116l-1 28h-124l-16 -91h231l-22 -127h-231l-18 -99h124l11 29h116zM526 658h-225l23 130h225z" />
    <glyph glyph-name="Emacron.sc" unicode="&#xe04d;" horiz-adv-x="577" 
d="M528 0h-485l22 130l34 3l57 322l-33 4l23 128h485l-29 -163h-116l-1 28h-124l-16 -91h231l-22 -127h-231l-18 -99h124l11 29h116zM631 658h-441l20 113h441z" />
    <glyph glyph-name="Eng.sc" unicode="&#xe04e;" horiz-adv-x="731" 
d="M535 587h254l-23 -128l-34 -4l-80 -452c-22 -124 -93 -171 -217 -171c-40 0 -69 2 -93 7l21 120h34c37 0 55 7 61 41l-117 234c-9 19 -20 45 -28 66h-2c-2 -26 -7 -60 -12 -86l-14 -80l33 -4l-22 -130h-252l22 130l34 3l57 322l-33 4l23 128h222l119 -233
c11 -23 21 -48 29 -68h2c2 25 8 63 13 89l13 78l-33 4z" />
    <glyph glyph-name="Eogonek.sc" unicode="&#xe04f;" horiz-adv-x="577" 
d="M494 -197c-31 -8 -95 -20 -164 -20c-100 0 -146 32 -146 92c0 67 75 104 144 125h-284l22 130l34 3l57 322l-33 4l23 128h485l-29 -163h-116l-1 28h-124l-16 -91h231l-22 -127h-231l-18 -99h124l11 29h116l-28 -164c-78 -21 -153 -48 -153 -84c0 -16 11 -23 47 -23
c30 0 61 3 88 5z" />
    <glyph glyph-name="Gbreve.sc" unicode="&#xe050;" horiz-adv-x="626" 
d="M577 6c-57 -11 -153 -21 -238 -21c-146 0 -256 50 -256 215c0 25 3 53 19 145c43 246 208 257 343 257c96 0 189 -16 230 -26l-28 -160h-115l-2 36c-20 1 -44 2 -63 2c-97 0 -143 -13 -164 -131c-14 -84 -17 -104 -17 -121c0 -53 23 -70 72 -70c18 0 38 0 54 2l14 81
l-48 6l19 105h236zM708 805c-26 -120 -134 -161 -241 -161c-102 0 -199 42 -209 161h115c5 -59 49 -68 106 -68c47 0 99 14 119 68h110z" />
    <glyph glyph-name="Gcircumflex.sc" unicode="&#xe051;" horiz-adv-x="626" 
d="M577 6c-57 -11 -153 -21 -238 -21c-146 0 -256 50 -256 215c0 25 3 53 19 145c43 246 208 257 343 257c96 0 189 -16 230 -26l-28 -160h-115l-2 36c-20 1 -44 2 -63 2c-97 0 -143 -13 -164 -131c-14 -84 -17 -104 -17 -121c0 -53 23 -70 72 -70c18 0 38 0 54 2l14 81
l-48 6l19 105h236zM713 650h-178l-65 71l-90 -71h-189l160 141h253z" />
    <glyph glyph-name="Gcommaaccent.sc" unicode="&#xe052;" horiz-adv-x="626" 
d="M577 6c-57 -11 -153 -21 -238 -21c-146 0 -256 50 -256 215c0 25 3 53 19 145c43 246 208 257 343 257c96 0 189 -16 230 -26l-28 -160h-115l-2 36c-20 1 -44 2 -63 2c-97 0 -143 -13 -164 -131c-14 -84 -17 -104 -17 -121c0 -53 23 -70 72 -70c18 0 38 0 54 2l14 81
l-48 6l19 105h236zM468 -60l-124 -139h-186l92 139h218z" />
    <glyph glyph-name="Gdotaccent.sc" unicode="&#xe053;" horiz-adv-x="626" 
d="M577 6c-57 -11 -153 -21 -238 -21c-146 0 -256 50 -256 215c0 25 3 53 19 145c43 246 208 257 343 257c96 0 189 -16 230 -26l-28 -160h-115l-2 36c-20 1 -44 2 -63 2c-97 0 -143 -13 -164 -131c-14 -84 -17 -104 -17 -121c0 -53 23 -70 72 -70c18 0 38 0 54 2l14 81
l-48 6l19 105h236zM570 658h-225l23 130h225z" />
    <glyph glyph-name="Hbar.sc" unicode="&#xe054;" horiz-adv-x="749" 
d="M117 445l14 78h39l11 64h208l-11 -64h177l11 64h207l-11 -64h49l-14 -78h-49l-55 -311l34 -4l-22 -130h-276l22 130l35 4l17 93h-177l-17 -93l33 -4l-22 -130h-276l22 130l35 4l55 311h-39zM351 371h177l13 74h-177z" />
    <glyph glyph-name="Hcircumflex.sc" unicode="&#xe055;" horiz-adv-x="749" 
d="M532 587h276l-23 -128l-35 -5l-57 -320l34 -4l-22 -130h-276l22 130l35 4l17 93h-177l-17 -93l33 -4l-22 -130h-276l22 130l35 4l57 320l-34 5l23 128h276l-23 -130l-35 -4l-14 -82h177l14 82l-33 4zM748 639h-178l-65 71l-90 -71h-189l160 141h253z" />
    <glyph glyph-name="Ibreve.sc" unicode="&#xe056;" horiz-adv-x="364" 
d="M319 0h-275l22 130l35 4l57 321l-34 4l23 128h275l-23 -128l-34 -4l-57 -321l33 -4zM546 804c-26 -120 -134 -161 -241 -161c-102 0 -199 42 -209 161h115c5 -59 49 -68 106 -68c47 0 99 14 119 68h110z" />
    <glyph glyph-name="IJ.sc" unicode="&#xe058;" horiz-adv-x="680" 
d="M716 459l-34 -4l-80 -452c-22 -124 -93 -171 -218 -171c-29 0 -65 2 -93 7l21 120h35c36 0 43 11 49 44l80 452l-35 4l23 128h275zM319 0h-275l22 130l35 4l57 321l-34 4l23 128h275l-23 -128l-34 -4l-57 -321l33 -4z" />
    <glyph glyph-name="Imacron.sc" unicode="&#xe059;" horiz-adv-x="364" 
d="M319 0h-275l22 130l35 4l57 321l-34 4l23 128h275l-23 -128l-34 -4l-57 -321l33 -4zM517 658h-441l20 113h441z" />
    <glyph glyph-name="Iogonek.sc" unicode="&#xe05a;" horiz-adv-x="364" 
d="M298 -197c-31 -8 -95 -20 -164 -20c-100 0 -146 32 -146 92c0 67 61 104 130 125h-74l22 130l35 4l57 321l-34 4l23 128h275l-23 -128l-34 -4l-57 -321l33 -4l-22 -130c-78 -21 -139 -48 -139 -84c0 -16 11 -23 47 -23c30 0 61 3 88 5z" />
    <glyph glyph-name="Itilde.sc" unicode="&#xe05b;" horiz-adv-x="364" 
d="M319 0h-275l22 130l35 4l57 321l-34 4l23 128h275l-23 -128l-34 -4l-57 -321l33 -4zM563 811c-24 -132 -93 -165 -159 -165c-28 0 -70 3 -108 24l-41 22c-24 13 -34 18 -45 18c-25 0 -34 -12 -43 -61h-115c23 133 92 168 162 168c31 0 61 -4 95 -22l41 -23
c28 -15 41 -21 60 -21c22 0 30 12 39 60h114z" />
    <glyph glyph-name="Jcircumflex.sc" unicode="&#xe05c;" horiz-adv-x="370" 
d="M404 459l-34 -4l-80 -452c-22 -124 -93 -171 -217 -171c-40 0 -69 2 -92 7l20 120h34c37 0 43 11 49 44l80 452l-34 4l23 128h274zM562 650h-178l-65 71l-90 -71h-189l160 141h253z" />
    <glyph glyph-name="Kcommaaccent.sc" unicode="&#xe05d;" horiz-adv-x="703" 
d="M699 454l-155 -166l78 -154l58 -4l-22 -130h-209l-119 277l-25 -143l33 -4l-22 -130h-273l22 130l34 3l57 322l-33 4l23 128h273l-23 -130l-35 -4l-24 -136l222 270h203l-23 -128zM460 -60l-124 -139h-186l92 139h218z" />
    <glyph glyph-name="Lacute.sc" unicode="&#xe05e;" horiz-adv-x="538" 
d="M493 0h-450l22 130l34 3l57 322l-33 4l23 128h273l-23 -128l-34 -4l-55 -312h88l14 42h116zM659 791l-200 -141h-203l157 141h246z" />
    <glyph glyph-name="Lcaron.sc" unicode="&#xe05f;" horiz-adv-x="618" 
d="M493 0h-449l22 130l33 3l57 322l-32 4l23 128h272l-23 -128l-34 -4l-55 -312h88l15 42h115zM717 595l-153 -268h-147l114 268h186z" />
    <glyph glyph-name="Lcommaaccent.sc" unicode="&#xe060;" horiz-adv-x="538" 
d="M493 0h-450l22 130l34 3l57 322l-33 4l23 128h273l-23 -128l-34 -4l-55 -312h88l14 42h116zM359 -60l-124 -139h-186l92 139h218z" />
    <glyph glyph-name="Ldot.sc" unicode="&#xe061;" horiz-adv-x="538" 
d="M493 0h-449l22 130l33 3l57 322l-32 4l23 128h272l-23 -128l-34 -4l-55 -312h88l15 42h115zM533 264h-129l26 149h129z" />
    <glyph glyph-name="Nacute.sc" unicode="&#xe062;" horiz-adv-x="731" 
d="M535 587h254l-23 -128l-34 -4l-80 -455h-194l-117 234c-9 19 -20 45 -28 66h-2c-2 -26 -7 -60 -12 -86l-14 -80l33 -4l-22 -130h-252l22 130l34 3l57 322l-33 4l23 128h222l119 -233c12 -23 21 -48 29 -68h2c2 25 8 63 13 89l13 78l-33 4zM753 791l-200 -141h-203
l157 141h246z" />
    <glyph glyph-name="Ncaron.sc" unicode="&#xe063;" horiz-adv-x="731" 
d="M535 587h254l-23 -128l-34 -4l-80 -455h-194l-117 234c-9 19 -20 45 -28 66h-2c-2 -26 -7 -60 -12 -86l-14 -80l33 -4l-22 -130h-252l22 130l34 3l57 322l-33 4l23 128h222l119 -233c12 -23 21 -48 29 -68h2c2 25 8 63 13 89l13 78l-33 4zM766 791l-159 -141h-253
l-110 141h179l65 -71l90 71h188z" />
    <glyph glyph-name="Ncommaaccent.sc" unicode="&#xe064;" horiz-adv-x="731" 
d="M535 587h254l-23 -128l-34 -4l-80 -455h-194l-117 234c-9 19 -20 45 -28 66h-2c-2 -26 -7 -60 -12 -86l-14 -80l33 -4l-22 -130h-252l22 130l34 3l57 322l-33 4l23 128h222l119 -233c12 -23 21 -48 29 -68h2c2 25 8 63 13 89l13 78l-33 4zM463 -60l-124 -139h-186l92 139
h218z" />
    <glyph glyph-name="Obreve.sc" unicode="&#xe065;" horiz-adv-x="662" 
d="M661 250c-40 -228 -178 -265 -322 -265s-252 60 -252 223c0 25 3 52 16 129c39 226 187 265 327 265c150 0 247 -61 247 -220c0 -26 -3 -54 -16 -132zM462 270c13 73 15 94 15 112c0 56 -23 72 -66 72c-56 0 -90 -29 -109 -138c-12 -71 -15 -92 -15 -109
c0 -57 24 -74 67 -74c56 0 89 27 108 137zM702 808c-26 -120 -134 -161 -241 -161c-102 0 -199 42 -209 161h115c5 -59 49 -68 106 -68c47 0 99 14 119 68h110z" />
    <glyph glyph-name="Ohungarumlaut.sc" unicode="&#xe066;" horiz-adv-x="662" 
d="M661 250c-40 -228 -178 -265 -322 -265s-252 60 -252 223c0 25 3 52 16 129c39 226 187 265 327 265c150 0 247 -61 247 -220c0 -26 -3 -54 -16 -132zM462 270c13 73 15 94 15 112c0 56 -23 72 -66 72c-56 0 -90 -29 -109 -138c-12 -71 -15 -92 -15 -109
c0 -57 24 -74 67 -74c56 0 89 27 108 137zM875 790l-199 -141h-180l157 141h222zM567 790h-222l-157 -141h179z" />
    <glyph glyph-name="Omacron.sc" unicode="&#xe067;" horiz-adv-x="662" 
d="M661 250c-40 -228 -178 -265 -322 -265s-252 60 -252 223c0 25 3 52 16 129c39 226 187 265 327 265c150 0 247 -61 247 -220c0 -26 -3 -54 -16 -132zM462 270c13 73 15 94 15 112c0 56 -23 72 -66 72c-56 0 -90 -29 -109 -138c-12 -71 -15 -92 -15 -109
c0 -57 24 -74 67 -74c56 0 89 27 108 137zM668 657h-441l20 113h441z" />
    <glyph glyph-name="Oslashacute.sc" unicode="&#xe068;" horiz-adv-x="662" 
d="M661 250c-40 -228 -178 -265 -322 -265c-60 0 -114 11 -156 34l-35 -37h-112l87 93c-23 33 -35 77 -35 133c0 25 2 52 15 129c39 226 187 265 327 265c63 0 117 -11 158 -36l34 39h112l-88 -97c19 -33 30 -74 30 -126c0 -26 -2 -54 -15 -132zM462 270c13 73 15 94 15 112
c0 56 -23 72 -66 72c-56 0 -90 -29 -109 -138c-12 -71 -15 -92 -15 -109c0 -57 24 -74 67 -74c56 0 89 27 108 137zM712 780l-200 -141h-203l157 141h246z" />
    <glyph glyph-name="Racute.sc" unicode="&#xe069;" horiz-adv-x="680" 
d="M307 0h-264l22 130l35 4l57 321l-34 4l23 128c74 6 175 11 275 11c170 0 270 -44 270 -169c0 -96 -34 -153 -120 -197l41 -96l45 -6l-22 -130h-178l-71 194h-79l-11 -60l33 -4zM382 325c61 0 109 16 109 88c0 36 -26 45 -87 45c-18 0 -36 -1 -51 -1l-23 -132h52zM724 790
l-200 -141h-203l157 141h246z" />
    <glyph glyph-name="Rcaron.sc" unicode="&#xe06a;" horiz-adv-x="680" 
d="M307 0h-264l22 130l35 4l57 321l-34 4l23 128c74 6 175 11 275 11c170 0 270 -44 270 -169c0 -96 -34 -153 -120 -197l41 -96l45 -6l-22 -130h-178l-71 194h-79l-11 -60l33 -4zM382 325c61 0 109 16 109 88c0 36 -26 45 -87 45c-18 0 -36 -1 -51 -1l-23 -132h52zM734 790
l-159 -141h-253l-110 141h179l65 -71l90 71h188z" />
    <glyph glyph-name="Rcommaaccent.sc" unicode="&#xe06b;" horiz-adv-x="680" 
d="M307 0h-264l22 130l35 4l57 321l-34 4l23 128c74 6 175 11 275 11c170 0 270 -44 270 -169c0 -96 -34 -153 -120 -197l41 -96l45 -6l-22 -130h-178l-71 194h-79l-11 -60l33 -4zM382 325c61 0 109 16 109 88c0 36 -26 45 -87 45c-18 0 -36 -1 -51 -1l-23 -132h52zM442 -60
l-124 -139h-186l92 139h218z" />
    <glyph glyph-name="Sacute.sc" unicode="&#xe06c;" horiz-adv-x="583" 
d="M575 195c0 -161 -133 -210 -283 -210c-95 0 -183 8 -232 19l28 156h115v-38c33 -1 55 -1 83 -1c33 0 80 6 80 52c0 17 -12 29 -58 46l-67 26c-84 32 -128 76 -128 160c0 171 149 197 299 197c87 0 167 -13 212 -22l-27 -150h-115l-2 37c-29 1 -55 1 -81 1
c-49 0 -75 -7 -80 -35c0 -3 -1 -5 -1 -7c0 -17 14 -28 54 -44l66 -26c91 -35 137 -74 137 -161zM695 790l-200 -141h-203l157 141h246z" />
    <glyph glyph-name="Scedilla.sc" unicode="&#xe06d;" horiz-adv-x="583" 
d="M575 195c0 -161 -133 -210 -283 -210c-95 0 -183 8 -232 19l28 156h115v-38c33 -1 55 -1 83 -1c33 0 80 6 80 52c0 17 -12 29 -58 46l-67 26c-84 32 -128 76 -128 160c0 171 149 197 299 197c87 0 167 -13 212 -22l-27 -150h-115l-2 37c-29 1 -55 1 -81 1
c-49 0 -75 -7 -80 -35c0 -3 -1 -5 -1 -7c0 -17 14 -28 54 -44l66 -26c91 -35 137 -74 137 -161zM398 -60l-154 -139h-193l124 139h223z" />
    <glyph glyph-name="Scircumflex.sc" unicode="&#xe06e;" horiz-adv-x="583" 
d="M575 195c0 -161 -133 -210 -283 -210c-95 0 -183 8 -232 19l28 156h115v-38c33 -1 55 -1 83 -1c33 0 80 6 80 52c0 17 -12 29 -58 46l-67 26c-84 32 -128 76 -128 160c0 171 149 197 299 197c87 0 167 -13 212 -22l-27 -150h-115l-2 37c-29 1 -55 1 -81 1
c-49 0 -75 -7 -80 -35c0 -3 -1 -5 -1 -7c0 -17 14 -28 54 -44l66 -26c91 -35 137 -74 137 -161zM673 639h-178l-65 71l-90 -71h-189l160 141h253z" />
    <glyph glyph-name="Scommaaccent.sc" unicode="&#xe06f;" horiz-adv-x="583" 
d="M575 195c0 -161 -133 -210 -283 -210c-95 0 -183 8 -232 19l28 156h115v-38c33 -1 55 -1 83 -1c33 0 80 6 80 52c0 17 -12 29 -58 46l-67 26c-84 32 -128 76 -128 160c0 171 149 197 299 197c87 0 167 -13 212 -22l-27 -150h-115l-2 37c-29 1 -55 1 -81 1
c-49 0 -75 -7 -80 -35c0 -3 -1 -5 -1 -7c0 -17 14 -28 54 -44l66 -26c91 -35 137 -74 137 -161zM414 -60l-124 -139h-186l92 139h218z" />
    <glyph glyph-name="Tbar.sc" unicode="&#xe070;" horiz-adv-x="629" 
d="M658 415h-108l-3 35h-50l-17 -93h126l-17 -100h-126l-22 -124l33 -4l-22 -129h-275l22 129l35 4l22 124h-127l17 100h127l17 93h-51l-13 -35h-110l30 172h542z" />
    <glyph glyph-name="Tcaron.sc" unicode="&#xe071;" horiz-adv-x="629" 
d="M658 415h-108l-3 35h-50l-56 -317l33 -4l-22 -129h-275l22 129l35 4l56 317h-51l-13 -35h-110l30 172h542zM711 791l-159 -141h-253l-110 141h179l65 -71l90 71h188z" />
    <glyph glyph-name="Tcommaaccent.sc" unicode="&#xe072;" horiz-adv-x="629" 
d="M658 415h-108l-3 35h-50l-56 -317l33 -4l-22 -129h-275l22 129l35 4l56 317h-51l-13 -35h-110l30 172h542zM426 -60l-124 -139h-186l92 139h218z" />
    <glyph glyph-name="Ubreve.sc" unicode="&#xe073;" horiz-adv-x="720" 
d="M507 587h271l-23 -128l-35 -4l-43 -237c-32 -178 -152 -233 -315 -233c-154 0 -245 72 -245 209c0 20 2 41 10 87l31 174l-35 4l23 128h271l-23 -130l-35 -4l-37 -214c-4 -21 -6 -39 -6 -54c0 -42 18 -58 64 -58c64 0 85 29 100 112l37 214l-33 4zM720 805
c-26 -120 -134 -161 -241 -161c-102 0 -199 42 -209 161h115c5 -59 49 -68 106 -68c47 0 99 14 119 68h110z" />
    <glyph glyph-name="Uhungarumlaut.sc" unicode="&#xe074;" horiz-adv-x="720" 
d="M507 587h271l-23 -128l-35 -4l-43 -237c-32 -178 -152 -233 -315 -233c-154 0 -245 72 -245 209c0 20 2 41 10 87l31 174l-35 4l23 128h271l-23 -130l-35 -4l-37 -214c-4 -21 -6 -39 -6 -54c0 -42 18 -58 64 -58c64 0 85 29 100 112l37 214l-33 4zM912 791l-199 -141
h-180l157 141h222zM604 791h-222l-157 -141h179z" />
    <glyph glyph-name="Umacron.sc" unicode="&#xe075;" horiz-adv-x="720" 
d="M507 587h271l-23 -128l-35 -4l-43 -237c-32 -178 -152 -233 -315 -233c-154 0 -245 72 -245 209c0 20 2 41 10 87l31 174l-35 4l23 128h271l-23 -130l-35 -4l-37 -214c-4 -21 -6 -39 -6 -54c0 -42 18 -58 64 -58c64 0 85 29 100 112l37 214l-33 4zM694 658h-441l20 113
h441z" />
    <glyph glyph-name="Uogonek.sc" unicode="&#xe076;" horiz-adv-x="720" 
d="M475 -197c-31 -8 -95 -20 -164 -20c-100 0 -146 32 -146 92c0 56 51 95 108 120c-99 24 -155 91 -155 199c0 20 2 41 10 87l31 174l-35 4l23 128h271l-23 -130l-35 -4l-37 -214c-4 -21 -6 -39 -6 -54c0 -42 18 -58 64 -58c64 0 85 29 100 112l37 214l-33 4l23 130h271
l-23 -128l-35 -4l-43 -237c-26 -143 -109 -207 -225 -226c-54 -21 -96 -49 -96 -76c0 -16 11 -23 47 -23c30 0 61 3 88 5z" />
    <glyph glyph-name="Uring.sc" unicode="&#xe077;" horiz-adv-x="720" 
d="M507 587h271l-23 -128l-35 -4l-43 -237c-32 -178 -152 -233 -315 -233c-154 0 -245 72 -245 209c0 20 2 41 10 87l31 174l-35 4l23 128h271l-23 -130l-35 -4l-37 -214c-4 -21 -6 -39 -6 -54c0 -42 18 -58 64 -58c64 0 85 29 100 112l37 214l-33 4zM643 755
c0 -80 -65 -127 -154 -127c-90 0 -157 47 -157 127c0 81 67 128 157 128c89 0 154 -47 154 -128zM543 756c0 30 -22 45 -54 45c-33 0 -56 -15 -56 -45s23 -45 56 -45c32 0 54 15 54 45z" />
    <glyph glyph-name="Utilde.sc" unicode="&#xe078;" horiz-adv-x="720" 
d="M507 587h271l-23 -128l-35 -4l-43 -237c-32 -178 -152 -233 -315 -233c-154 0 -245 72 -245 209c0 20 2 41 10 87l31 174l-35 4l23 128h271l-23 -130l-35 -4l-37 -214c-4 -21 -6 -39 -6 -54c0 -42 18 -58 64 -58c64 0 85 29 100 112l37 214l-33 4zM744 813
c-24 -132 -93 -165 -159 -165c-28 0 -70 3 -108 24l-41 22c-24 13 -34 18 -45 18c-25 0 -34 -12 -43 -61h-115c23 133 92 168 162 168c31 0 61 -4 95 -22l41 -23c28 -15 41 -21 60 -21c22 0 30 12 39 60h114z" />
    <glyph glyph-name="Wacute.sc" unicode="&#xe079;" horiz-adv-x="929" 
d="M968 459l-35 -4l-156 -455h-232l-25 221c-3 27 -1 65 0 89h-3c-8 -24 -19 -62 -31 -89l-101 -221h-232l3 455l-34 4l23 128h210l-10 -263c-2 -39 -6 -77 -9 -109h4c10 35 24 69 36 96l71 149h189l17 -149c4 -30 4 -61 1 -96h5c9 36 20 73 31 109l82 263h219zM865 791
l-200 -141h-203l157 141h246z" />
    <glyph glyph-name="Wcircumflex.sc" unicode="&#xe07a;" horiz-adv-x="929" 
d="M968 459l-35 -4l-156 -455h-232l-25 221c-3 27 -1 65 0 89h-3c-8 -24 -19 -62 -31 -89l-101 -221h-232l3 455l-34 4l23 128h210l-10 -263c-2 -39 -6 -77 -9 -109h4c10 35 24 69 36 96l71 149h189l17 -149c4 -30 4 -61 1 -96h5c9 36 20 73 31 109l82 263h219zM838 650
h-178l-65 71l-90 -71h-189l160 141h253z" />
    <glyph glyph-name="Wdieresis.sc" unicode="&#xe07b;" horiz-adv-x="929" 
d="M968 459l-35 -4l-156 -455h-232l-25 221c-3 27 -1 65 0 89h-3c-8 -24 -19 -62 -31 -89l-101 -221h-232l3 455l-34 4l23 128h210l-10 -263c-2 -39 -6 -77 -9 -109h4c10 35 24 69 36 96l71 149h189l17 -149c4 -30 4 -61 1 -96h5c9 36 20 73 31 109l82 263h219zM796 655
h-169l24 131h169zM530 655l24 131h-170l-24 -131h170z" />
    <glyph glyph-name="Wgrave.sc" unicode="&#xe07c;" horiz-adv-x="929" 
d="M968 459l-35 -4l-156 -455h-232l-25 221c-3 27 -1 65 0 89h-3c-8 -24 -19 -62 -31 -89l-101 -221h-232l3 455l-34 4l23 128h210l-10 -263c-2 -39 -6 -77 -9 -109h4c10 35 24 69 36 96l71 149h189l17 -149c4 -30 4 -61 1 -96h5c9 36 20 73 31 109l82 263h219zM702 650
h-189l-150 141h232z" />
    <glyph glyph-name="Ycircumflex.sc" unicode="&#xe07d;" horiz-adv-x="643" 
d="M683 459l-51 -7l-174 -243l-14 -82l33 -4l-21 -123h-271l21 123l39 4l14 82l-88 243l-50 7l23 128h182l37 -132c7 -27 14 -57 18 -86h2c13 29 30 60 47 86l84 132h192zM697 650h-178l-65 71l-90 -71h-189l160 141h253z" />
    <glyph glyph-name="Ygrave.sc" unicode="&#xe07e;" horiz-adv-x="643" 
d="M683 459l-51 -7l-174 -243l-14 -82l33 -4l-21 -123h-271l21 123l39 4l14 82l-88 243l-50 7l23 128h182l37 -132c7 -27 14 -57 18 -86h2c13 29 30 60 47 86l84 132h192zM564 650h-189l-150 141h232z" />
    <glyph glyph-name="Zacute.sc" unicode="&#xe07f;" horiz-adv-x="565" 
d="M521 0h-477l22 130l286 316h-109l-14 -34h-108l31 175h467l-24 -137l-282 -310h115l16 36h108zM705 791l-200 -141h-203l157 141h246z" />
    <glyph glyph-name="Zdotaccent.sc" unicode="&#xe080;" horiz-adv-x="565" 
d="M521 0h-477l22 130l286 316h-109l-14 -34h-108l31 175h467l-24 -137l-282 -310h115l16 36h108zM525 657h-225l23 130h225z" />
    <glyph glyph-name="Idotaccent.sc" unicode="&#xe081;" horiz-adv-x="364" 
d="M319 0h-275l22 130l35 4l57 321l-34 4l23 128h275l-23 -128l-34 -4l-57 -321l33 -4zM410 658h-225l23 130h225z" />
    <glyph glyph-name="Breve.sc" unicode="&#xe082;" horiz-adv-x="554" 
d="M639 796c-26 -120 -134 -161 -241 -161c-102 0 -199 42 -209 161h115c5 -59 49 -68 106 -68c47 0 99 14 119 68h110z" />
    <glyph glyph-name="Caron.sc" unicode="&#xe083;" horiz-adv-x="601" 
d="M698 780l-159 -141h-253l-110 141h179l65 -71l90 71h188z" />
    <glyph glyph-name="Circumflex.sc" unicode="&#xe084;" horiz-adv-x="601" 
d="M673 639h-178l-65 71l-90 -71h-189l160 141h253z" />
    <glyph glyph-name="Dotaccent.sc" unicode="&#xe085;" horiz-adv-x="423" 
d="M438 651h-225l23 130h225z" />
    <glyph glyph-name="Hungarumlaut.sc" unicode="&#xe086;" horiz-adv-x="715" 
d="M839 779l-199 -141h-180l157 141h222zM531 779h-222l-157 -141h179z" />
    <glyph glyph-name="Ogonek.sc" unicode="&#xe087;" horiz-adv-x="471" 
d="M367 -197c-31 -8 -95 -20 -164 -20c-100 0 -146 32 -146 92c0 90 135 126 210 141l135 -16c-78 -21 -153 -48 -153 -84c0 -16 11 -23 47 -23c30 0 61 3 88 5z" />
    <glyph glyph-name="Ring.sc" unicode="&#xe088;" horiz-adv-x="452" 
d="M510 749c0 -80 -65 -127 -154 -127c-90 0 -157 47 -157 127c0 81 67 128 157 128c89 0 154 -47 154 -128zM410 750c0 30 -22 45 -54 45c-33 0 -56 -15 -56 -45s23 -45 56 -45c32 0 54 15 54 45z" />
    <glyph glyph-name="Tilde.sc" unicode="&#xe089;" horiz-adv-x="558" 
d="M662 800c-24 -132 -93 -165 -159 -165c-28 0 -70 3 -108 24l-41 22c-24 13 -34 18 -45 18c-25 0 -34 -12 -43 -61h-115c23 133 92 168 162 168c31 0 61 -4 95 -22l41 -23c28 -15 41 -21 60 -21c22 0 30 12 39 60h114z" />
    <glyph glyph-name="exclam.sc" unicode="&#xe08b;" horiz-adv-x="309" 
d="M250 0h-191l25 145h191zM365 618l-92 -428h-172l59 428h205z" />
    <glyph glyph-name="ampersand.sc" unicode="&#xe08c;" horiz-adv-x="746" 
d="M690 0h-170l-24 24c-40 -20 -111 -37 -196 -37c-129 0 -226 43 -226 156c0 93 61 137 151 173c-51 60 -63 98 -63 138c0 144 149 161 270 161c86 0 180 -13 223 -23l-27 -151h-115l-1 42h-90s-70 -5 -70 -44c0 -19 13 -35 30 -54l164 -182c15 25 23 54 29 86l-32 8l13 75
h208l-13 -75l-37 -9c-13 -74 -41 -132 -82 -177l65 -71zM416 108l-96 105c-26 -12 -52 -29 -52 -69s35 -47 76 -47c26 0 54 5 72 11z" />
    <glyph glyph-name="question.sc" unicode="&#xe08d;" horiz-adv-x="506" 
d="M308 0h-194l25 145h194zM544 510c0 -80 -50 -129 -116 -181c-83 -64 -96 -78 -105 -125l-2 -12h-156l2 12c12 67 20 104 78 160c24 23 70 58 70 97c0 20 -18 26 -60 26h-30l-13 -36h-86l26 147c52 19 129 29 210 29c121 0 182 -43 182 -117z" />
    <glyph glyph-name="Grave.sc" unicode="&#xe08e;" horiz-adv-x="512" 
d="M528 639h-189l-150 141h232z" />
    <glyph glyph-name="exclamdown.sc" unicode="&#xe08f;" horiz-adv-x="309" 
d="M251 -31h-205l92 428h172zM353 587l-26 -145h-191l26 145h191z" />
    <glyph glyph-name="Dieresis.sc" unicode="&#xe090;" horiz-adv-x="546" 
d="M604 646h-169l24 131h169zM338 646l24 131h-170l-24 -131h170z" />
    <glyph glyph-name="Macron.sc" unicode="&#xe091;" horiz-adv-x="538" 
d="M603 652h-441l20 113h441z" />
    <glyph glyph-name="Acute.sc" unicode="&#xe092;" horiz-adv-x="512" 
d="M597 780l-200 -141h-203l157 141h246z" />
    <glyph glyph-name="Cedilla.sc" unicode="&#xe093;" horiz-adv-x="465" 
d="M366 -60l-154 -139h-193l124 139h223z" />
    <glyph glyph-name="questiondown.sc" unicode="&#xe094;" horiz-adv-x="506" 
d="M301 589h194l-25 -145h-194zM65 79c0 80 50 129 116 181c83 64 96 78 105 125l2 12h156l-2 -12c-12 -67 -20 -104 -78 -160c-24 -23 -70 -58 -70 -97c0 -20 18 -26 60 -26h30l13 36h86l-26 -147c-52 -19 -129 -29 -210 -29c-121 0 -182 43 -182 117z" />
    <glyph glyph-name="zero.fitted" unicode="&#xe097;" horiz-adv-x="762" 
d="M759 318c-40 -227 -158 -336 -375 -336c-200 0 -283 103 -283 267c0 34 3 70 10 109l12 67c40 227 158 336 374 336c200 0 285 -99 285 -264c0 -34 -4 -72 -11 -112zM525 338l12 67c7 42 11 76 11 102c0 69 -25 87 -68 87c-59 0 -96 -34 -123 -189l-12 -67
c-7 -42 -11 -76 -11 -102c0 -69 25 -87 68 -87c59 0 96 34 123 189z" />
    <glyph glyph-name="two.fitted" unicode="&#xe098;" horiz-adv-x="762" 
d="M659 0h-575l16 92c33 191 100 261 283 350c121 59 151 75 151 122c0 31 -27 42 -107 42c-19 0 -53 -1 -86 -3l-18 -55h-134l32 179c75 22 196 34 277 34c195 0 279 -63 279 -175c0 -143 -115 -205 -260 -272c-135 -62 -162 -75 -176 -151h204l17 50h134z" />
    <glyph glyph-name="three.fitted" unicode="&#xe099;" horiz-adv-x="762" 
d="M717 247c0 -218 -157 -265 -363 -265c-105 0 -216 19 -262 37l32 180h134l-2 -56c32 -2 67 -3 98 -3c94 0 129 24 129 105c0 43 -21 60 -93 60h-196l25 143h197c74 0 120 23 120 98c0 48 -20 58 -100 58c-32 0 -67 -1 -99 -3l-17 -53h-134l31 177c50 17 170 36 275 36
c187 0 276 -57 276 -183c0 -86 -33 -157 -116 -199c46 -25 65 -80 65 -132z" />
    <glyph glyph-name="four.fitted" unicode="&#xe09a;" horiz-adv-x="762" 
d="M737 157h-92l-11 -65l42 -5l-15 -87h-321l15 87l45 5l11 65h-336l26 144l462 442h186l-78 -437h92zM450 306l37 207l-209 -207h172z" />
    <glyph glyph-name="five.fitted" unicode="&#xe09b;" horiz-adv-x="762" 
d="M419 586l-31 -120h54c208 0 276 -66 276 -194c0 -217 -140 -290 -365 -290c-120 0 -217 18 -261 31l32 184h132l-1 -58c25 -1 54 -2 70 -2c104 0 152 20 152 109c0 58 -26 72 -115 72h-213l112 425h519l-36 -199h-132l1 42h-194z" />
    <glyph glyph-name="six.fitted" unicode="&#xe09c;" horiz-adv-x="762" 
d="M746 296c0 -215 -136 -314 -352 -314c-210 0 -283 91 -283 234c0 31 4 65 10 100l27 153c34 192 104 292 383 292c101 0 210 -19 254 -31l-32 -180h-132l1 52c-31 1 -65 2 -97 2c-110 0 -127 -32 -141 -116l-4 -21c30 7 82 11 113 11c152 0 253 -42 253 -182zM407 130
c84 0 107 87 107 161c0 44 -22 55 -71 55c-22 0 -57 -2 -86 -8l-15 -84c-4 -21 -6 -38 -6 -53c0 -53 24 -71 71 -71z" />
    <glyph glyph-name="seven.fitted" unicode="&#xe09d;" horiz-adv-x="762" 
d="M777 573l-430 -573h-245l444 586h-221l-17 -48h-132l37 205h594z" />
    <glyph glyph-name="eight.fitted" unicode="&#xe09e;" horiz-adv-x="762" 
d="M751 246c0 -238 -197 -264 -374 -264h-6c-155 0 -288 39 -288 189c0 96 29 158 118 211c-35 26 -59 73 -59 146c0 209 196 233 367 233h6c175 0 290 -44 290 -185c0 -87 -39 -148 -116 -194c39 -29 62 -79 62 -136zM405 124c97 0 113 56 113 125c0 53 -24 68 -88 68h-10
c-76 0 -104 -46 -104 -119c0 -61 27 -74 83 -74h6zM463 450c87 0 107 48 107 103c0 51 -29 65 -81 65h-6c-85 0 -110 -40 -110 -103c0 -47 14 -65 72 -65h18z" />
    <glyph glyph-name="nine.fitted" unicode="&#xe09f;" horiz-adv-x="762" 
d="M149 447c0 215 136 314 352 314c210 0 283 -91 283 -234c0 -31 -4 -65 -10 -100l-27 -153c-34 -192 -104 -292 -383 -292c-101 0 -210 19 -254 31l32 180h132l-1 -52c31 -1 65 -2 97 -2c110 0 127 32 141 116l4 21c-30 -7 -82 -11 -113 -11c-152 0 -253 42 -253 182z
M488 613c-84 0 -107 -87 -107 -161c0 -44 22 -55 71 -55c22 0 57 2 86 8l15 84c4 21 6 38 6 53c0 53 -24 71 -71 71z" />
    <glyph glyph-name="zero.taboldstyle" unicode="&#xe100;" horiz-adv-x="762" 
d="M106 343c34 204 157 290 379 290c204 0 281 -96 281 -245c0 -41 -6 -76 -13 -116c-35 -204 -158 -290 -379 -290c-189 0 -281 92 -281 245c0 27 3 55 13 116zM517 292c10 55 12 75 12 92c0 60 -25 82 -71 82c-59 0 -97 -35 -115 -142c-10 -56 -12 -76 -12 -93
c0 -60 25 -82 71 -82c59 0 96 35 115 143z" />
    <glyph glyph-name="one.taboldstyle" unicode="&#xe101;" horiz-adv-x="762" 
d="M666 0h-548l27 157l160 4l46 262l-167 -46l30 171l237 72h168l-81 -459l155 -4z" />
    <glyph glyph-name="two.taboldstyle" unicode="&#xe102;" horiz-adv-x="762" 
d="M668 0h-580l28 164l192 95c134 67 208 103 208 170c0 36 -28 49 -106 49c-32 0 -49 -1 -89 -3l-17 -55h-135l31 177c66 18 179 36 280 36c205 0 281 -60 281 -160c0 -149 -106 -205 -247 -270l-85 -39h267z" />
    <glyph glyph-name="three.taboldstyle" unicode="&#xe103;" horiz-adv-x="762" 
d="M703 119c0 -218 -157 -265 -363 -265c-105 0 -216 19 -262 37l32 180h134l-2 -56c32 -2 67 -3 98 -3c94 0 129 24 129 105c0 43 -21 60 -93 60h-196l25 143h197c74 0 120 23 120 98c0 48 -20 58 -100 58c-32 0 -67 -1 -99 -3l-17 -53h-134l31 177c50 17 170 36 275 36
c187 0 276 -57 276 -183c0 -86 -33 -157 -116 -199c46 -25 65 -80 65 -132z" />
    <glyph glyph-name="four.taboldstyle" unicode="&#xe104;" horiz-adv-x="762" 
d="M721 32h-91l-11 -65l42 -5l-16 -87h-321l16 87l45 5l11 65h-336l26 144l462 443h186l-77 -437h91zM436 182l36 206l-208 -206h172z" />
    <glyph glyph-name="five.taboldstyle" unicode="&#xe105;" horiz-adv-x="762" 
d="M402 462l-31 -120h54c208 0 276 -66 276 -194c0 -217 -140 -290 -365 -290c-120 0 -217 18 -261 31l32 184h132l-1 -58c25 -1 54 -2 70 -2c104 0 152 20 152 109c0 58 -26 72 -115 72h-213l112 425h519l-36 -199h-132l1 42h-194z" />
    <glyph glyph-name="six.taboldstyle" unicode="&#xe106;" horiz-adv-x="762" 
d="M753 296c0 -215 -136 -314 -352 -314c-210 0 -283 91 -283 234c0 31 4 65 10 100l27 153c34 192 104 292 383 292c101 0 210 -19 254 -31l-32 -180h-132l1 52c-31 1 -65 2 -97 2c-110 0 -127 -32 -141 -116l-4 -21c30 7 82 11 113 11c152 0 253 -42 253 -182zM414 130
c84 0 107 87 107 161c0 44 -22 55 -71 55c-22 0 -57 -2 -86 -8l-15 -84c-4 -21 -6 -38 -6 -53c0 -53 24 -71 71 -71z" />
    <glyph glyph-name="seven.taboldstyle" unicode="&#xe107;" horiz-adv-x="762" 
d="M761 447l-430 -573h-245l444 586h-221l-17 -48h-132l37 205h594z" />
    <glyph glyph-name="eight.taboldstyle" unicode="&#xe108;" horiz-adv-x="762" 
d="M763 246c0 -238 -197 -264 -374 -264h-6c-155 0 -288 39 -288 189c0 96 29 158 118 211c-35 26 -59 73 -59 146c0 209 196 233 367 233h6c175 0 290 -44 290 -185c0 -87 -39 -148 -116 -194c39 -29 62 -79 62 -136zM417 124c97 0 113 56 113 125c0 53 -24 68 -88 68h-10
c-76 0 -104 -46 -104 -119c0 -61 27 -74 83 -74h6zM475 450c87 0 107 48 107 103c0 51 -29 65 -81 65h-6c-85 0 -110 -40 -110 -103c0 -47 14 -65 72 -65h18z" />
    <glyph glyph-name="nine.taboldstyle" unicode="&#xe109;" horiz-adv-x="762" 
d="M115 319c0 215 136 314 352 314c210 0 283 -91 283 -234c0 -31 -4 -65 -10 -100l-27 -153c-34 -192 -104 -292 -383 -292c-101 0 -210 19 -254 31l32 180h132l-1 -52c31 -1 65 -2 97 -2c110 0 127 32 141 116l4 21c-30 -7 -82 -11 -113 -11c-152 0 -253 42 -253 182z
M454 485c-84 0 -107 -87 -107 -161c0 -44 22 -55 71 -55c22 0 57 2 86 8l15 84c4 21 6 38 6 53c0 53 -24 71 -71 71z" />
    <glyph glyph-name="zero.denominator" unicode="&#xe10a;" horiz-adv-x="502" 
d="M495 195c-24 -136 -90 -207 -244 -207c-122 0 -173 72 -173 173c0 20 2 42 10 89c24 134 93 207 245 207c129 0 173 -65 173 -161c0 -24 -2 -49 -11 -101zM341 210c9 54 12 76 12 92c0 37 -13 46 -39 46c-38 0 -56 -21 -72 -113c-9 -54 -12 -76 -12 -92
c0 -37 14 -46 40 -46c37 0 54 19 71 113z" />
    <glyph glyph-name="one.denominator" unicode="&#xe10b;" horiz-adv-x="399" 
d="M349 -1h-291l17 96l69 5l38 215l-73 -22l20 109l119 44h110l-61 -346l69 -5z" />
    <glyph glyph-name="two.denominator" unicode="&#xe10c;" horiz-adv-x="474" 
d="M414 -1h-362l9 56c19 116 67 158 175 207c29 13 92 31 92 74c0 17 -16 22 -63 22c-12 0 -33 0 -53 -1l-11 -32h-85l20 111c48 14 125 21 174 21c121 0 175 -37 175 -108c0 -89 -72 -129 -150 -160c-81 -33 -117 -55 -122 -86h129l9 29h86z" />
    <glyph glyph-name="three.denominator" unicode="&#xe10d;" horiz-adv-x="470" 
d="M444 142c0 -126 -103 -154 -223 -154c-66 0 -136 11 -166 22l19 112h86l-2 -33c20 -1 42 -1 61 -1c42 0 75 11 75 56c0 26 -12 36 -56 36h-121l16 90h121c38 0 72 12 72 56c0 26 -15 31 -59 31c-20 0 -41 0 -60 -1l-11 -31h-85l19 109c32 11 107 23 173 23
c109 0 177 -30 177 -115c0 -52 -25 -94 -74 -120c28 -15 38 -49 38 -80z" />
    <glyph glyph-name="four.denominator" unicode="&#xe10e;" horiz-adv-x="497" 
d="M473 90h-56l-6 -34l25 -3l-9 -54h-204l9 54l28 3l6 34h-207l15 90l287 265h118l-46 -261h56zM290 184l21 116l-122 -116h101z" />
    <glyph glyph-name="five.denominator" unicode="&#xe10f;" horiz-adv-x="466" 
d="M446 166c0 -138 -94 -181 -227 -181c-76 0 -137 11 -165 19l21 114h83v-34c14 -1 28 -1 41 -1c50 0 90 13 90 71c0 23 -18 30 -69 30h-133l69 259h326l-22 -123h-84v24h-119l-16 -67h33c129 0 172 -35 172 -111z" />
    <glyph glyph-name="six.denominator" unicode="&#xe110;" horiz-adv-x="486" 
d="M471 173c0 -137 -95 -186 -229 -186c-127 0 -170 60 -170 147c0 19 2 40 21 143c21 117 66 179 233 179c70 0 139 -12 168 -19l-20 -111h-84v30c-19 1 -40 1 -60 1c-64 0 -74 -17 -83 -65l-2 -11c18 4 48 6 67 6c104 0 159 -27 159 -114zM259 81c46 0 62 51 62 92
c0 25 -13 31 -41 31c-13 0 -33 -1 -49 -4c-10 -60 -11 -70 -11 -79c0 -31 13 -40 39 -40z" />
    <glyph glyph-name="seven.denominator" unicode="&#xe111;" horiz-adv-x="477" 
d="M486 336l-265 -339h-158l273 347h-124l-10 -28h-84l23 127h364z" />
    <glyph glyph-name="eight.denominator" unicode="&#xe112;" horiz-adv-x="499" 
d="M444 228c25 -18 37 -46 37 -78c0 -143 -103 -163 -232 -163h-4c-103 0 -180 26 -180 118c0 53 18 99 71 123c-22 16 -36 47 -36 82c0 134 112 146 228 146h4c108 0 182 -31 182 -114c0 -48 -19 -89 -70 -114zM329 128c3 14 4 22 4 29c0 21 -10 30 -33 30h-34
c-31 0 -43 -15 -49 -46c-3 -19 -3 -24 -3 -29c0 -28 17 -36 47 -36h4c35 0 57 11 64 52zM362 318l1 4c1 4 1 8 1 11c0 25 -17 33 -48 33h-4c-35 0 -56 -11 -62 -48c-1 -7 -2 -13 -2 -18c0 -19 8 -29 33 -29h34c31 0 42 17 47 47z" />
    <glyph glyph-name="nine.denominator" unicode="&#xe113;" horiz-adv-x="486" 
d="M92 270c0 137 95 186 229 186c127 0 170 -60 170 -147c0 -19 -2 -40 -21 -143c-21 -117 -66 -179 -233 -179c-70 0 -139 12 -168 19l20 111h84v-30c19 -1 40 -1 60 -1c64 0 74 17 83 65l2 11c-18 -4 -48 -6 -67 -6c-104 0 -159 27 -159 114zM304 362
c-46 0 -62 -51 -62 -92c0 -25 13 -31 41 -31c13 0 33 1 49 4c10 60 11 70 11 79c0 31 -13 40 -39 40z" />
    <glyph glyph-name="parenleft.denominator" unicode="&#xe117;" horiz-adv-x="302" 
d="M241 -77h-117c-22 41 -44 109 -44 194c0 120 42 236 128 339h132c-79 -102 -126 -231 -126 -345c0 -56 10 -140 27 -188z" />
    <glyph glyph-name="parenright.denominator" unicode="&#xe118;" horiz-adv-x="302" 
d="M282 182c-20 -112 -74 -206 -124 -263h-128c49 62 98 156 117 263v5c20 108 4 202 -23 264h128c30 -58 50 -152 30 -264v-5z" />
    <glyph glyph-name="cent.denominator" unicode="&#xe119;" horiz-adv-x="427" 
d="M385 7c-19 -5 -51 -10 -84 -12l-14 -81h-129l15 89c-62 18 -96 74 -96 158c0 21 2 43 12 100c20 117 75 168 163 191l15 85h129l-13 -77c33 -2 63 -8 80 -12l-24 -136h-77v30h-20c-56 0 -77 -20 -91 -98c-9 -52 -11 -67 -11 -79c0 -40 18 -51 65 -51c26 0 75 2 100 4z
" />
    <glyph glyph-name="comma.denominator" unicode="&#xe11a;" horiz-adv-x="271" 
d="M240 104l-103 -172h-107l80 172h130z" />
    <glyph glyph-name="dollar.denominator" unicode="&#xe11b;" horiz-adv-x="461" 
d="M443 149c0 -86 -62 -133 -146 -151l-14 -84h-130l14 81c-44 2 -82 7 -109 12l21 122h80l1 -33c20 0 43 -1 72 -1c32 0 59 5 59 36c0 20 -13 28 -43 39l-55 20c-62 23 -92 65 -92 125c0 91 66 130 147 140l15 83h130l-14 -79c44 -3 84 -10 104 -15l-20 -116h-79l-1 28
c-24 2 -44 2 -69 2c-26 0 -65 0 -65 -28c0 -17 12 -25 43 -36l50 -17c68 -23 101 -63 101 -128z" />
    <glyph glyph-name="hyphen.denominator" unicode="&#xe11c;" horiz-adv-x="252" 
d="M229 150h-155l18 101h155z" />
    <glyph glyph-name="period.denominator" unicode="&#xe11d;" horiz-adv-x="240" 
d="M189 0h-138l18 104h138z" />
    <glyph glyph-name="zero.numerator" unicode="&#xe11e;" horiz-adv-x="502" 
d="M546 497c-24 -136 -90 -207 -244 -207c-122 0 -173 72 -173 173c0 20 2 42 10 89c24 134 93 207 245 207c129 0 173 -65 173 -161c0 -24 -2 -49 -11 -101zM392 512c9 54 12 76 12 92c0 37 -13 46 -39 46c-38 0 -56 -21 -72 -113c-9 -54 -12 -76 -12 -92
c0 -37 14 -46 40 -46c37 0 54 19 71 113z" />
    <glyph glyph-name="one.numerator" unicode="&#xe11f;" horiz-adv-x="399" 
d="M400 301h-291l17 96l69 5l38 215l-73 -22l20 109l119 44h110l-61 -346l69 -5z" />
    <glyph glyph-name="two.numerator" unicode="&#xe120;" horiz-adv-x="474" 
d="M465 301h-362l9 56c19 116 67 158 175 207c29 13 92 31 92 74c0 17 -16 22 -63 22c-12 0 -33 0 -53 -1l-11 -32h-85l20 111c48 14 125 21 174 21c121 0 175 -37 175 -108c0 -89 -72 -129 -150 -160c-81 -33 -117 -55 -122 -86h129l9 29h86z" />
    <glyph glyph-name="three.numerator" unicode="&#xe121;" horiz-adv-x="470" 
d="M495 444c0 -126 -103 -154 -223 -154c-66 0 -136 11 -166 22l19 112h86l-2 -33c20 -1 42 -1 61 -1c42 0 75 11 75 56c0 26 -12 36 -56 36h-121l16 90h121c38 0 72 12 72 56c0 26 -15 31 -59 31c-20 0 -41 0 -60 -1l-11 -31h-85l19 109c32 11 107 23 173 23
c109 0 177 -30 177 -115c0 -52 -25 -94 -74 -120c28 -15 38 -49 38 -80z" />
    <glyph glyph-name="four.numerator" unicode="&#xe122;" horiz-adv-x="497" 
d="M524 392h-56l-6 -34l25 -3l-9 -54h-204l9 54l28 3l6 34h-207l15 90l287 265h118l-46 -261h56zM341 486l21 116l-122 -116h101z" />
    <glyph glyph-name="five.numerator" unicode="&#xe123;" horiz-adv-x="466" 
d="M497 468c0 -138 -94 -181 -227 -181c-76 0 -137 11 -165 19l21 114h83v-34c14 -1 28 -1 41 -1c50 0 90 13 90 71c0 23 -18 30 -69 30h-133l69 259h326l-22 -123h-84v24h-119l-16 -67h33c129 0 172 -35 172 -111z" />
    <glyph glyph-name="six.numerator" unicode="&#xe124;" horiz-adv-x="486" 
d="M522 475c0 -137 -95 -186 -229 -186c-127 0 -170 60 -170 147c0 19 2 40 21 143c21 117 66 179 233 179c70 0 139 -12 168 -19l-20 -111h-84v30c-19 1 -40 1 -60 1c-64 0 -74 -17 -83 -65l-2 -11c18 4 48 6 67 6c104 0 159 -27 159 -114zM310 383c46 0 62 51 62 92
c0 25 -13 31 -41 31c-13 0 -33 -1 -49 -4c-10 -60 -11 -70 -11 -79c0 -31 13 -40 39 -40z" />
    <glyph glyph-name="seven.numerator" unicode="&#xe125;" horiz-adv-x="477" 
d="M537 638l-265 -339h-158l273 347h-124l-10 -28h-84l23 127h364z" />
    <glyph glyph-name="eight.numerator" unicode="&#xe126;" horiz-adv-x="499" 
d="M495 530c25 -18 37 -46 37 -78c0 -143 -103 -163 -232 -163h-4c-103 0 -180 26 -180 118c0 53 18 99 71 123c-22 16 -36 47 -36 82c0 134 112 146 228 146h4c108 0 182 -31 182 -114c0 -48 -19 -89 -70 -114zM380 430c3 14 4 22 4 29c0 21 -10 30 -33 30h-34
c-31 0 -43 -15 -49 -46c-3 -19 -3 -24 -3 -29c0 -28 17 -36 47 -36h4c35 0 57 11 64 52zM413 620l1 4c1 4 1 8 1 11c0 25 -17 33 -48 33h-4c-35 0 -56 -11 -62 -48c-1 -7 -2 -13 -2 -18c0 -19 8 -29 33 -29h34c31 0 42 17 47 47z" />
    <glyph glyph-name="nine.numerator" unicode="&#xe127;" horiz-adv-x="486" 
d="M146 572c0 137 95 186 229 186c127 0 170 -60 170 -147c0 -19 -2 -40 -21 -143c-21 -117 -66 -179 -233 -179c-70 0 -139 12 -168 19l20 111h84v-30c19 -1 40 -1 60 -1c64 0 74 17 83 65l2 11c-18 -4 -48 -6 -67 -6c-104 0 -159 27 -159 114zM358 664
c-46 0 -62 -51 -62 -92c0 -25 13 -31 41 -31c13 0 33 1 49 4c10 60 11 70 11 79c0 31 -13 40 -39 40z" />
    <glyph glyph-name="parenleft.numerator" unicode="&#xe12b;" horiz-adv-x="302" 
d="M292 225h-117c-22 41 -44 109 -44 194c0 120 42 236 128 339h132c-79 -102 -126 -231 -126 -345c0 -56 10 -140 27 -188z" />
    <glyph glyph-name="parenright.numerator" unicode="&#xe12c;" horiz-adv-x="302" 
d="M183 758h117c22 -41 44 -109 44 -194c0 -120 -42 -236 -128 -339h-132c79 102 126 231 126 345c0 56 -10 140 -27 188z" />
    <glyph glyph-name="cent.numerator" unicode="&#xe12d;" horiz-adv-x="427" 
d="M436 309c-19 -5 -51 -10 -84 -12l-14 -81h-129l15 89c-62 18 -96 74 -96 158c0 21 2 43 12 100c20 117 75 168 163 191l15 85h129l-13 -77c33 -2 63 -8 80 -12l-24 -136h-77v30h-20c-56 0 -77 -20 -91 -98c-9 -52 -11 -67 -11 -79c0 -40 18 -51 65 -51c26 0 75 2 100 4z
" />
    <glyph glyph-name="comma.numerator" unicode="&#xe130;" horiz-adv-x="271" 
d="M294 411l-103 -172h-106l80 172h129z" />
    <glyph glyph-name="dollar.numerator" unicode="&#xe131;" horiz-adv-x="461" 
d="M494 451c0 -86 -62 -133 -146 -151l-14 -84h-130l14 81c-44 2 -82 7 -109 12l21 122h80l1 -33c20 0 43 -1 72 -1c32 0 59 5 59 36c0 20 -13 28 -43 39l-55 20c-62 23 -92 65 -92 125c0 91 66 130 147 140l15 83h130l-14 -79c44 -3 84 -10 104 -15l-20 -116h-79l-1 28
c-24 2 -44 2 -69 2c-26 0 -65 0 -65 -28c0 -17 12 -25 43 -36l50 -17c68 -23 101 -63 101 -128z" />
    <glyph glyph-name="hyphen.numerator" unicode="&#xe132;" horiz-adv-x="252" 
d="M283 457h-155l18 101h155z" />
    <glyph glyph-name="period.numerator" unicode="&#xe133;" horiz-adv-x="240" 
d="M242 306h-139l19 105h139z" />
    <glyph glyph-name="guillemotleft.cap" unicode="&#xe134;" horiz-adv-x="722" 
d="M611 363l74 -215h-195l-83 228l164 228h207zM300 363l74 -215h-195l-83 228l164 228h207z" />
    <glyph glyph-name="guillemotright.cap" unicode="&#xe135;" horiz-adv-x="722" 
d="M244 388l-74 216h195l83 -228l-164 -228h-207zM555 388l-74 216h195l83 -228l-164 -228h-207z" />
    </font>
</defs>
</svg>
