<?xml version="1.0" standalone="no"?>
<!DOCTYPE svg PUBLIC "-//W3C//DTD SVG 1.1//EN" "http://www.w3.org/Graphics/SVG/1.1/DTD/svg11.dtd" >
<svg xmlns="http://www.w3.org/2000/svg" xmlns:xlink="http://www.w3.org/1999/xlink" version="1.1">
<metadata>
Created by FontForge 20141024 at Thu Apr 30 19:22:46 2015
 By System Administrator
Copyright (c) 2007 Monotype Imaging Inc. Soho is designed by Sebastian Lester. All rights reserved.
</metadata>
<defs>
<font id="SohoPro-ExtraLightCondensed" horiz-adv-x="458" >
  <font-face 
    font-family="Soho Pro"
    font-weight="300"
    font-stretch="condensed"
    units-per-em="1000"
    panose-1="2 4 2 6 3 5 6 2 2 4"
    ascent="763"
    descent="-237"
    x-height="536"
    cap-height="743"
    bbox="-64 -225 1068 1148"
    underline-thickness="29"
    underline-position="-50"
    stemh="34"
    stemv="39"
    unicode-range="U+000D-FB16"
  />
<missing-glyph horiz-adv-x="171" 
 />
    <glyph glyph-name="f_b" unicode="fb" horiz-adv-x="649" 
d="M615 240c0 -174 -39 -249 -169 -249c-29 0 -60 1 -126 8v732c-33 3 -73 6 -98 6c-69 0 -83 -14 -83 -103v-98h119v-34h-119v-467l46 -1v-34h-130v34l45 1v467l-79 3v31h79v98c0 108 28 136 116 136c30 0 65 -3 104 -8h38v-238c38 16 79 22 106 22c116 0 151 -76 151 -241
v-65zM358 31c40 -4 67 -5 90 -5c98 0 128 54 128 214v66c0 149 -27 205 -117 205c-22 0 -64 -4 -101 -19v-461z" />
    <glyph glyph-name="f_f_b" unicode="ffb" horiz-adv-x="882" 
d="M843 240c0 -174 -38 -249 -168 -249c-29 0 -60 1 -127 8v732c-32 4 -72 6 -99 6c-68 0 -83 -14 -83 -103v-98h120v-34h-120v-467l47 -1v-34h-130v34l45 1v467h-190v-467l46 -1v-34h-130v34l46 1v467l-87 3v31h87v98c0 86 13 134 101 134c18 0 45 -4 62 -8v-28
c-16 1 -40 3 -57 3c-59 0 -68 -25 -68 -101v-98h190v98c0 108 28 136 116 136c29 0 69 -4 104 -8h38v-238c37 16 80 22 106 22c116 0 151 -76 151 -241v-65zM804 240v66c0 149 -26 205 -117 205c-22 0 -63 -4 -100 -19v-462c37 -3 66 -4 89 -4c98 0 128 54 128 214z" />
    <glyph glyph-name="f_h" unicode="fh" horiz-adv-x="694" 
d="M659 0h-81v361c0 114 -20 150 -89 150c-45 0 -92 -20 -129 -45v-431l43 -1v-34h-125v34l43 1v696c-31 3 -66 6 -97 6c-70 0 -85 -14 -85 -103v-98h119v-34h-119v-467l45 -1v-34h-129v34l45 1v467l-86 3v31h86v98c0 110 29 136 119 136c35 0 73 -4 102 -8h39v-261
c33 22 81 45 135 45c97 0 121 -63 121 -183v-328l43 -1v-34z" />
    <glyph glyph-name="f_f_h" unicode="ffh" horiz-adv-x="926" 
d="M886 0h-81v361c0 114 -20 150 -88 150c-46 0 -93 -20 -130 -45v-431l43 -1v-34h-124v34l43 1v697c-28 3 -72 5 -97 5c-71 0 -85 -14 -85 -103v-98h119v-34h-119v-467l45 -1v-34h-130v34l46 1v467h-189v-467l45 -1v-34h-129v34l45 1v467l-86 3v31h86v98
c0 86 14 134 101 134c19 0 46 -4 63 -8v-28c-14 1 -41 3 -57 3c-60 0 -68 -25 -68 -101v-98h189v98c0 110 29 136 119 136c29 0 72 -4 102 -8h38v-261c34 22 81 45 136 45c97 0 120 -63 120 -183v-328l43 -1v-34z" />
    <glyph glyph-name="f_j" unicode="fj" horiz-adv-x="456" 
d="M380 -104c0 -65 -15 -105 -80 -105c-14 0 -31 2 -51 5v30c21 -2 34 -2 44 -2c40 0 48 19 48 72v606h-202v-467l45 -1v-34h-129v34l45 1v467l-86 3v31h86v98c0 86 14 134 101 134c19 0 46 -4 63 -8v-28c-14 1 -40 3 -57 3c-60 0 -68 -25 -68 -101v-98h241v-640zM380 644
h-40v118h40v-118z" />
    <glyph glyph-name="f_f_j" unicode="ffj" horiz-adv-x="679" 
d="M603 -104c0 -65 -14 -105 -80 -105c-13 0 -31 2 -50 5v30c20 -2 33 -2 43 -2c40 0 48 19 48 72v606h-194v-467l46 -1v-34h-130v34l46 1v467h-193v-467l45 -1v-34h-129v34l45 1v467l-79 3v31h79v98c0 86 14 134 101 134c19 0 49 -4 66 -8v-28c-16 1 -45 3 -60 3
c-60 0 -68 -25 -68 -101v-98h193v98c0 86 14 134 101 134c19 0 46 -4 62 -8v-28c-14 1 -40 3 -57 3c-59 0 -68 -25 -68 -101v-98h233v-640zM603 644h-39v118h39v-118z" />
    <glyph glyph-name="f_f_k" unicode="ffk" horiz-adv-x="865" 
d="M845 0h-69l-179 271v-236l43 -1v-34h-124v34l43 1v696c-33 3 -73 6 -104 6c-70 0 -85 -14 -85 -103v-98h119v-34h-119v-467l45 -1v-34h-129v34l45 1v467h-192v-467l45 -1v-34h-129v34l45 1v467l-86 3v31h86v98c0 86 14 134 101 134c19 0 46 -4 63 -8v-28
c-14 1 -41 3 -57 3c-60 0 -68 -25 -68 -101v-98h192v98c0 110 29 136 119 136c35 0 76 -4 109 -8h38v-478l177 252h70v-34l-47 -1l-159 -223l162 -243l45 -1v-34z" />
    <glyph glyph-name="f_k" unicode="fk" horiz-adv-x="636" 
d="M616 0h-68l-180 271v-236l43 -1v-34h-124v34l43 1v696c-34 3 -72 6 -106 6c-70 0 -85 -14 -85 -103v-98h119v-34h-119v-467l45 -1v-34h-129v34l45 1v467l-86 3v31h86v98c0 110 29 136 119 136c38 0 77 -4 111 -8h38v-478l178 252h70v-34l-48 -1l-159 -223l163 -243l44 -1
v-34z" />
    <glyph glyph-name="f_i" unicode="fi" horiz-adv-x="427" 
d="M394 0h-124v34l43 1v467h-174v-467l45 -1v-34h-129v34l45 1v467l-79 3v31h79v98c0 87 14 134 101 134c19 0 49 -4 66 -8v-28c-16 1 -45 3 -60 3c-60 0 -68 -25 -68 -101v-98h213v-501l42 -1v-34zM352 644h-39v118h39v-118z" />
    <glyph glyph-name="f_l" unicode="fl" horiz-adv-x="450" 
d="M417 0h-125v34l43 1v697c-23 2 -70 5 -100 5c-80 0 -96 -12 -96 -103v-98h122v-34h-122v-467l45 -1v-34h-129v34l45 1v467l-79 3v31h79v98c0 113 29 136 129 136c34 0 82 -5 106 -7h38v-728l44 -1v-34z" />
    <glyph glyph-name="f_f" unicode="ff" horiz-adv-x="523" 
d="M492 502h-123v-467l46 -1v-34h-130v34l46 1v467h-193v-467l46 -1v-34h-130v34l46 1v467l-79 3v31h79v98c0 86 13 134 101 134c19 0 48 -4 65 -8v-28c-15 1 -45 3 -60 3c-59 0 -68 -25 -68 -101v-98h193v98c0 86 13 134 101 134c19 0 48 -4 65 -8v-28c-15 1 -45 3 -60 3
c-59 0 -68 -25 -68 -101v-98h123v-34z" />
    <glyph glyph-name="f_f_i" unicode="ffi" horiz-adv-x="676" 
d="M649 0h-124v34l43 1v467h-199v-467l46 -1v-34h-130v34l46 1v467h-193v-467l46 -1v-34h-130v34l46 1v467l-79 3v31h79v98c0 86 13 134 101 134c19 0 48 -4 65 -8v-28c-15 1 -45 3 -60 3c-59 0 -68 -25 -68 -101v-98h193v98c0 86 14 134 101 134c19 0 49 -4 65 -8v-28
c-15 1 -45 3 -60 3c-59 0 -68 -25 -68 -101v-98h238v-501l42 -1v-34zM607 644h-39v118h39v-118z" />
    <glyph glyph-name="f_f_l" unicode="ffl" horiz-adv-x="674" 
d="M653 0h-124v34l43 1v696c-20 2 -75 6 -104 6c-82 0 -99 -14 -99 -103v-98h124v-34h-124v-467l46 -1v-34h-130v34l46 1v467h-193v-467l46 -1v-34h-130v34l46 1v467l-79 3v31h79v98c0 93 17 134 104 134c23 0 51 -5 62 -8v-28c-16 1 -40 3 -57 3c-59 0 -71 -18 -71 -101
v-98h193v98c0 110 29 136 131 136c33 0 89 -5 110 -8h38v-727l43 -1v-34z" />
    <glyph glyph-name=".notdef" horiz-adv-x="171" 
 />
    <glyph glyph-name=".notdef" horiz-adv-x="171" 
 />
    <glyph glyph-name="space" unicode=" " horiz-adv-x="171" 
 />
    <glyph glyph-name="M" unicode="M" horiz-adv-x="608" 
d="M576 0h-131v34l48 1v666h-2l-159 -381h-56l-159 381h-2v-666l47 -1v-34h-129v34l46 1v673l-46 1v34h104l166 -398h2l166 398h105v-34l-47 -1v-673l47 -1v-34z" />
    <glyph glyph-name="N" unicode="N" horiz-adv-x="541" 
d="M508 709l-46 -1v-709h-59l-284 703h-2v-667l47 -1v-34h-131v34l46 1v673l-46 1v34h105l286 -695h1v660l-48 1v34h131v-34z" />
    <glyph glyph-name="O" unicode="O" horiz-adv-x="482" 
d="M442 336c0 -241 -54 -345 -201 -345c-146 0 -201 104 -201 345v71c0 241 55 345 201 345c147 0 201 -104 201 -345v-71zM403 336v71c0 233 -49 308 -162 308c-112 0 -162 -75 -162 -308v-71c0 -233 50 -309 162 -309c113 0 162 76 162 309z" />
    <glyph glyph-name="R" unicode="R" horiz-adv-x="477" 
d="M461 0h-72l-140 320c-16 -1 -33 -1 -45 -1c-29 0 -65 1 -86 2v-286l48 -1v-34h-133v34l46 1v673l-46 1v34c72 0 108 5 170 5c147 0 207 -62 207 -204v-13c0 -118 -30 -179 -121 -203l129 -293l43 -1v-34zM371 531v13c0 120 -42 168 -168 168c-26 0 -58 -2 -85 -4v-351
c24 -1 57 -2 86 -2c130 0 167 55 167 176z" />
    <glyph glyph-name="S" unicode="S" horiz-adv-x="395" 
d="M364 181c0 -113 -64 -190 -181 -190c-59 0 -117 8 -144 13v98h32l3 -70c29 -3 67 -5 106 -5c94 0 145 56 145 154c0 84 -34 121 -117 182l-53 39c-83 61 -123 114 -123 195c0 93 52 155 175 155c56 0 108 -8 140 -13v-97h-32l-4 69c-24 2 -64 5 -101 5
c-99 0 -139 -44 -139 -119c0 -72 32 -112 107 -166l54 -39c92 -66 132 -119 132 -211z" />
    <glyph glyph-name="T" unicode="T" horiz-adv-x="454" 
d="M428 642h-31l-3 65h-148v-672l55 -2v-33h-149v33l55 2v672h-147l-3 -65h-32v101h403v-101z" />
    <glyph glyph-name="U" unicode="U" horiz-adv-x="535" 
d="M502 709l-49 -1v-424c0 -182 -35 -292 -185 -292s-186 110 -186 292v424l-48 1v34h135v-34l-48 -1v-419c0 -178 26 -261 147 -261s146 83 146 261v419l-48 1v34h136v-34z" />
    <glyph glyph-name="a" unicode="a" horiz-adv-x="388" 
d="M364 0h-79v33c-34 -23 -78 -42 -128 -42c-91 0 -120 56 -120 152v12c0 115 45 160 181 160h65v70c0 101 -15 126 -114 126c-18 0 -40 0 -72 -3l-3 -56h-31v82c39 6 74 12 110 12c123 0 149 -42 149 -161v-350l42 -1v-34zM283 63v220h-65c-113 0 -143 -31 -143 -128v-16
c0 -82 24 -115 89 -115c45 0 89 19 119 39z" />
    <glyph glyph-name="b" unicode="b" horiz-adv-x="388" 
d="M348 240c0 -179 -39 -249 -169 -249c-29 0 -60 1 -126 8v728l-43 2v34h81v-239c39 16 79 22 106 22c116 0 151 -65 151 -241v-65zM309 240v66c0 160 -27 205 -118 205c-21 0 -63 -4 -100 -19v-462c40 -3 67 -4 90 -4c98 0 128 48 128 214z" />
    <glyph glyph-name="c" unicode="c" horiz-adv-x="333" 
d="M304 4c-39 -9 -70 -13 -102 -13c-124 0 -160 66 -160 252v52c0 182 38 251 160 251c34 0 66 -5 102 -13v-86h-32l-3 60c-27 4 -48 4 -63 4c-93 0 -125 -40 -125 -216v-52c0 -179 31 -217 125 -217c21 0 50 2 98 9v-31z" />
    <glyph glyph-name="d" unicode="d" horiz-adv-x="407" 
d="M379 0h-80v29c-29 -18 -71 -38 -121 -38c-103 0 -136 71 -136 247v56c0 183 45 252 163 252c20 0 49 -1 93 -8v189l-50 1v34h88v-727l43 -1v-34zM298 62v443c-41 5 -74 6 -92 6c-94 0 -125 -51 -125 -217v-56c0 -160 24 -212 104 -212c44 0 84 19 113 36z" />
    <glyph glyph-name="e" unicode="e" horiz-adv-x="390" 
d="M353 258h-273v-20c0 -155 29 -212 135 -212c42 0 94 6 129 12v-32c-26 -6 -77 -15 -131 -15c-133 0 -172 74 -172 251v50c0 164 35 254 156 254s156 -88 156 -256v-32zM314 291v12c0 136 -22 208 -117 208c-98 0 -117 -76 -117 -209v-11h234z" />
    <glyph glyph-name="f" unicode="f" horiz-adv-x="287" 
d="M261 502h-123v-467l46 -1v-34h-130v34l46 1v467l-79 3v31h79v98c0 86 13 134 100 134c19 0 48 -4 66 -8v-28c-17 1 -45 3 -60 3c-59 0 -68 -25 -68 -101v-98h123v-34z" />
    <glyph glyph-name="h" unicode="h" horiz-adv-x="444" 
d="M413 0h-82v361c0 114 -20 150 -88 150c-46 0 -93 -20 -130 -45v-431l43 -1v-34h-124v34l43 1v692l-43 1v34h81v-261c34 22 81 45 136 45c97 0 121 -63 121 -183v-328l43 -1v-34z" />
    <glyph glyph-name="i" unicode="i" horiz-adv-x="190" 
d="M157 0h-124v34l43 1v466l-43 1v34h81v-501l43 -1v-34zM115 644h-39v118h39v-118z" />
    <glyph glyph-name="l" unicode="l" horiz-adv-x="190" 
d="M157 0h-124v34l43 1v692l-43 1v34h81v-727l43 -1v-34z" />
    <glyph glyph-name="m" unicode="m" horiz-adv-x="630" 
d="M598 0h-81v393c0 75 -7 119 -72 119c-33 0 -75 -15 -115 -46c3 -19 5 -41 5 -73v-393h-39v393c0 77 -5 119 -70 119c-33 0 -72 -17 -113 -44v-433l42 -1v-34h-123v34l43 1v466l-43 1v34h81v-36c43 32 84 46 120 46c48 0 74 -18 89 -49c44 34 90 49 128 49
c98 0 105 -75 105 -153v-358l43 -1v-34z" />
    <glyph glyph-name="n" unicode="n" horiz-adv-x="440" 
d="M410 0h-81v363c0 113 -19 149 -87 149c-42 0 -85 -17 -131 -46v-431l43 -1v-34h-124v34l43 1v466l-43 1v34h81v-37c40 25 84 47 136 47c99 0 121 -59 121 -183v-328l42 -1v-34z" />
    <glyph glyph-name="o" unicode="o" horiz-adv-x="400" 
d="M359 244c-1 -175 -40 -253 -159 -253s-158 78 -158 253v49c0 175 39 253 158 253s158 -78 159 -253v-49zM320 244v49c0 160 -29 218 -120 218s-120 -57 -120 -218v-49c0 -160 29 -218 120 -218s120 58 120 218z" />
    <glyph glyph-name="r" unicode="r" horiz-adv-x="286" 
d="M271 510c-33 0 -101 -6 -158 -45v-430l48 -1v-34h-129v34l42 1v466l-42 1v34h80v-39c59 44 126 49 159 49v-36z" />
    <glyph glyph-name="s" unicode="s" horiz-adv-x="339" 
d="M305 126c0 -58 -30 -135 -149 -135c-50 0 -96 8 -119 15v85h31l3 -59c23 -4 51 -6 84 -6c90 0 111 54 111 100c0 52 -21 83 -95 130l-31 20c-73 48 -106 88 -106 148c0 72 39 122 145 122c43 0 88 -8 112 -14v-81h-31l-4 54c-21 3 -51 6 -75 6c-80 0 -109 -29 -109 -87
c0 -49 27 -77 90 -118l31 -20c82 -53 112 -91 112 -160z" />
    <glyph glyph-name="t" unicode="t" horiz-adv-x="291" 
d="M265 -2c-21 -4 -49 -7 -69 -7c-65 0 -82 32 -82 103v408l-91 3v31h91v137h38v-137h114v-34h-114v-405c0 -56 7 -73 50 -73c17 0 41 2 63 4v-30z" />
    <glyph glyph-name="v" unicode="v" horiz-adv-x="431" 
d="M406 503l-40 -2l-123 -501h-56l-124 501l-39 2v33h120v-33l-41 -1c94 -399 103 -435 112 -473h1c8 38 17 74 111 473l-41 1v33h120v-33z" />
    <glyph glyph-name="D" unicode="D" horiz-adv-x="492" 
d="M450 332c0 -220 -48 -338 -232 -338c-71 0 -112 6 -185 6v34l46 2v671l-46 2v34c72 0 107 5 185 5c183 0 232 -117 232 -337v-79zM411 332v79c0 214 -48 301 -194 301c-37 0 -69 -1 -99 -4v-673c27 -1 66 -4 99 -4c146 0 194 88 194 301z" />
    <glyph glyph-name="J" unicode="J" horiz-adv-x="199" 
d="M166 709l-47 -1v-783c0 -72 -14 -118 -92 -118c-18 0 -44 3 -58 5v30h54c53 0 57 29 57 83v783l-46 1v34h132v-34z" />
    <glyph glyph-name="K" unicode="K" horiz-adv-x="468" 
d="M443 0h-72l-251 369v-334l48 -1v-34h-133v34l46 1v673l-45 1v34h132v-34l-48 -1v-322l252 357h70v-34l-46 -1l-234 -330l236 -343l45 -1v-34z" />
    <glyph glyph-name="P" unicode="P" horiz-adv-x="444" 
d="M410 528c0 -143 -59 -209 -207 -209c-26 0 -55 1 -85 2v-286l50 -1v-34h-135v34l46 1v673l-46 1v34c66 0 105 5 172 5c148 0 205 -61 205 -204v-16zM371 528v16c0 120 -39 168 -166 168c-36 0 -67 -3 -87 -4v-351c30 -2 59 -2 85 -2c127 0 168 53 168 173z" />
    <glyph glyph-name="Q" unicode="Q" horiz-adv-x="482" 
d="M442 336c0 -232 -50 -334 -181 -344v-74c0 -51 5 -72 58 -72h62v-28c-11 -1 -47 -6 -72 -6c-69 0 -87 35 -87 106v74c-131 10 -182 112 -182 344v71c0 241 55 345 201 345c147 0 201 -104 201 -345v-71zM403 336v71c0 233 -49 308 -162 308c-112 0 -162 -75 -162 -308
v-71c0 -233 50 -309 162 -309c113 0 162 76 162 309z" />
    <glyph glyph-name="W" unicode="W" horiz-adv-x="702" 
d="M681 709l-45 -1l-108 -708h-61l-115 527h-2l-115 -527h-61l-108 708l-46 1v34h133v-33l-48 -2l100 -675h2l113 525h62l113 -525h2l99 675l-47 2v33h132v-34z" />
    <glyph glyph-name="X" unicode="X" horiz-adv-x="509" 
d="M489 0h-126v33l38 1l-148 298l-148 -298l40 -1v-33h-125v34l43 1l169 343l-164 330l-46 1v34h129v-33l-40 -1l144 -287l143 287l-41 1v33h130v-34l-47 -1l-163 -331l168 -342l44 -1v-34z" />
    <glyph glyph-name="Y" unicode="Y" horiz-adv-x="467" 
d="M446 709l-44 -1l-149 -403v-269l53 -2v-34h-146v34l54 2v269l-150 403l-44 1v34h127v-33l-42 -1l128 -355h1l127 355l-41 1v33h126v-34z" />
    <glyph glyph-name="Z" unicode="Z" horiz-adv-x="443" 
d="M409 0h-375v43l323 664h-274l-3 -65h-32v101h350v-42l-323 -665h299l4 66h31v-102z" />
    <glyph glyph-name="w" unicode="w" horiz-adv-x="656" 
d="M630 503l-41 -2l-85 -501h-53c-107 386 -115 418 -123 448h-2c-7 -30 -15 -62 -122 -448h-54l-85 501l-40 2v33h120v-33l-42 -1c65 -396 69 -433 75 -468h3c8 36 16 72 121 451h52c104 -379 113 -414 121 -451h3c5 41 10 71 73 468l-41 1v33h120v-33z" />
    <glyph glyph-name="x" unicode="x" horiz-adv-x="424" 
d="M402 0h-66l-126 235l-125 -235h-65v34l42 1l127 240l-120 226l-46 2v33h71l118 -221l117 221h70v-33l-47 -2l-118 -224l127 -242l41 -1v-34z" />
    <glyph glyph-name="y" unicode="y" horiz-adv-x="440" 
d="M419 503l-45 -2l-135 -538c-29 -116 -52 -172 -142 -172c-20 0 -44 2 -63 5v32c28 -3 46 -3 61 -3c61 0 84 32 106 141l7 34l-140 501l-45 2v33h127v-33l-42 -1l118 -442h1l107 442l-41 1v33h126v-33z" />
    <glyph glyph-name="z" unicode="z" horiz-adv-x="349" 
d="M316 0h-283v44l241 458h-196l-3 -51h-31v85h271v-41l-242 -461h208l3 56h32v-90z" />
    <glyph glyph-name="j" unicode="j" horiz-adv-x="190" 
d="M114 -104c0 -68 -14 -105 -82 -105c-12 0 -33 1 -48 4v30c19 -1 32 -1 44 -1c40 0 48 18 48 72v605l-43 1v34h81v-640zM114 644h-39v118h39v-118z" />
    <glyph glyph-name="k" unicode="k" horiz-adv-x="380" 
d="M155 0h-125v34l43 1v692l-43 1v34h82v-478l176 252h71v-34l-47 -1l-159 -223l162 -243l45 -1v-34h-70l-178 271v-236l43 -1v-34z" />
    <glyph glyph-name="p" unicode="p" horiz-adv-x="411" 
d="M156 -204h-124v34l43 1v670l-43 1v34h80v-32c32 22 78 42 126 42c103 0 132 -70 132 -246v-56c0 -180 -47 -253 -165 -253c-19 0 -50 2 -92 8v-168l43 -1v-34zM331 244v56c0 159 -19 211 -100 211c-42 0 -84 -19 -118 -39v-439c41 -6 73 -7 92 -7c93 0 126 55 126 218z
" />
    <glyph glyph-name="A" unicode="A" horiz-adv-x="536" 
d="M520 0h-132v33l45 2l-61 252h-208l-61 -252l45 -2v-33h-132v34l45 1l169 673l-48 2v33h114l178 -708l46 -1v-34zM363 324l-93 386h-4l-93 -386h190z" />
    <glyph glyph-name="zero" unicode="0" horiz-adv-x="448" 
d="M404 306c0 -221 -49 -315 -180 -315c-130 0 -179 94 -179 315v131c0 220 49 315 179 315c131 0 180 -95 180 -315v-131zM364 306v131c0 210 -43 280 -140 280s-140 -70 -140 -280v-131c0 -210 43 -280 140 -280s140 70 140 280z" />
    <glyph glyph-name="one" unicode="1" horiz-adv-x="341" 
d="M310 0h-270v34l116 2v667l-117 -51v38l123 55h32v-709l116 -2v-34z" />
    <glyph glyph-name="two" unicode="2" horiz-adv-x="424" 
d="M374 0h-324v52c0 182 42 230 166 333c105 88 126 123 126 201c0 89 -36 131 -155 131c-29 0 -71 -4 -101 -9l-4 -71h-31v98c22 6 86 17 140 17c142 0 190 -61 190 -166c0 -83 -26 -131 -139 -228c-123 -102 -154 -142 -154 -306v-16h251l4 78h31v-114z" />
    <glyph glyph-name="three" unicode="3" horiz-adv-x="422" 
d="M377 186c0 -128 -46 -195 -191 -195c-49 0 -113 9 -139 15v107h32l3 -82c29 -4 71 -6 103 -6c121 0 153 52 153 161v45c0 75 -11 141 -115 141h-152v33h152c103 0 115 63 115 140v21c0 105 -28 151 -153 151c-31 0 -73 -3 -102 -7l-4 -70h-31v97c23 6 89 15 138 15
c147 0 191 -62 191 -186v-21c0 -78 -17 -133 -84 -157c69 -24 84 -82 84 -157v-45z" />
    <glyph glyph-name="four" unicode="4" horiz-adv-x="455" 
d="M423 219h-91v-184l55 -1v-34h-149v34l55 1v184h-265v40l256 485h48v-490h91v-35zM293 254v433l-227 -433h227z" />
    <glyph glyph-name="five" unicode="5" horiz-adv-x="424" 
d="M380 196c0 -136 -44 -204 -193 -204c-57 0 -118 10 -144 16v96h32l3 -70c31 -5 70 -8 108 -8c128 0 155 54 155 170v35c0 128 -39 172 -175 172h-111l24 340h279v-104h-32l-3 68h-210l-18 -270h73c164 0 212 -65 212 -206v-35z" />
    <glyph glyph-name="six" unicode="6" horiz-adv-x="455" 
d="M410 214c0 -152 -71 -223 -181 -223c-118 0 -184 74 -184 249v273c0 147 32 239 199 239c52 0 117 -10 144 -17v-96h-32l-3 70c-31 4 -76 8 -108 8c-141 0 -161 -74 -161 -202v-88c50 14 104 21 148 21c110 0 178 -50 178 -188v-46zM371 214v44c0 119 -48 157 -142 157
c-41 0 -92 -5 -145 -21v-156c0 -138 43 -212 145 -212c100 0 142 72 142 188z" />
    <glyph glyph-name="seven" unicode="7" horiz-adv-x="402" 
d="M374 702l-243 -702h-42l248 707h-264l-4 -68h-31v104h336v-41z" />
    <glyph glyph-name="eight" unicode="8" horiz-adv-x="462" 
d="M417 209c0 -164 -55 -218 -183 -218h-5c-128 0 -184 55 -184 218v9c0 93 20 149 85 172c-63 20 -84 76 -84 160v11c0 128 50 190 183 190h4c133 0 183 -62 183 -190v-11c0 -85 -21 -140 -84 -160c65 -23 85 -78 85 -171v-10zM378 209v10c0 92 -17 153 -108 153h-78
c-91 0 -108 -62 -108 -154v-9c0 -136 36 -183 145 -183h5c108 0 144 46 144 183zM377 550v11c0 109 -35 156 -144 156h-4c-109 0 -144 -47 -144 -156v-11c0 -79 16 -143 107 -143h78c91 0 107 62 107 143z" />
    <glyph glyph-name="nine" unicode="9" horiz-adv-x="455" 
d="M410 230c0 -146 -32 -239 -199 -239c-52 0 -118 10 -144 17v97h31l4 -71c31 -4 75 -8 108 -8c141 0 161 74 161 202v89c-50 -15 -104 -22 -148 -22c-111 0 -178 50 -178 188v47c0 152 71 222 181 222c118 0 184 -74 184 -249v-273zM371 349v156c0 138 -43 212 -145 212
c-100 0 -142 -72 -142 -187v-45c0 -119 48 -157 142 -157c41 0 92 6 145 21z" />
    <glyph glyph-name="comma" unicode="," horiz-adv-x="148" 
d="M115 132l-59 -209h-35l50 209h44z" />
    <glyph glyph-name="hyphen" unicode="-" horiz-adv-x="270" 
d="M228 268h-185v35h185v-35z" />
    <glyph glyph-name="period" unicode="." horiz-adv-x="127" 
d="M83 0h-39v132h39v-132z" />
    <glyph glyph-name="question" unicode="?" horiz-adv-x="330" 
d="M142 0h-39v125h39v-125zM295 613c0 -71 -16 -115 -73 -191c-70 -95 -81 -120 -81 -190v-40h-37v40c0 72 10 108 79 198c59 77 72 113 72 183v5c0 83 -37 108 -118 108c-22 0 -45 -2 -69 -5l-3 -64h-32v91c34 7 77 13 108 13c96 0 154 -35 154 -143v-5z" />
    <glyph glyph-name="at" unicode="@" horiz-adv-x="597" 
d="M566 395c0 -164 -51 -332 -257 -332c-104 0 -140 49 -140 140c0 21 2 52 5 78c13 156 62 196 149 196c25 0 59 -4 97 -14l-32 -357c115 34 147 162 147 289c0 145 -59 228 -200 228c-154 0 -237 -95 -257 -352c-2 -27 -5 -66 -5 -100c0 -151 62 -249 213 -249
c49 0 100 6 118 9v-26c-19 -3 -70 -11 -119 -11c-170 0 -242 111 -242 279c0 35 2 74 4 101c24 267 111 377 288 377c164 0 231 -98 231 -256zM381 438c-12 3 -38 6 -58 6c-64 0 -100 -26 -113 -165c-2 -32 -4 -56 -4 -78c0 -72 26 -107 103 -107c19 0 29 1 41 3z" />
    <glyph glyph-name="colon" unicode=":" horiz-adv-x="129" 
d="M89 0h-39v132h39v-132zM89 546v-131h-39v131h39z" />
    <glyph glyph-name="semicolon" unicode=";" horiz-adv-x="145" 
d="M105 132l-59 -209h-36l51 209h44zM101 414h-38v132h38v-132z" />
    <glyph glyph-name="ampersand" unicode="&#x26;" horiz-adv-x="511" 
d="M418 0l-45 62c-34 -43 -85 -71 -162 -71c-72 0 -170 29 -170 182v4c0 87 27 146 103 203l-4 6c-57 80 -80 122 -80 209v5c0 108 64 152 158 152c43 0 108 -6 135 -11v-104h-31l-4 74c-30 3 -57 5 -100 5c-64 0 -119 -23 -119 -116v-5c0 -79 20 -118 68 -185l205 -286
c31 69 33 163 33 253l-57 1v31h144v-31l-54 -1c0 -94 -3 -204 -44 -282l68 -95h-44zM211 25c69 0 113 25 142 65l-188 260c-62 -45 -85 -95 -86 -173v-4c0 -105 60 -148 132 -148z" />
    <glyph glyph-name="exclam" unicode="!" horiz-adv-x="164" 
d="M101 0h-38v123h38v-123zM102 755l-2 -564h-36l-2 564h40z" />
    <glyph glyph-name="B" unicode="B" horiz-adv-x="463" 
d="M426 189c0 -132 -61 -195 -211 -195c-72 0 -114 6 -182 6v34l46 2v671l-46 2v34c67 0 111 4 179 4c154 0 211 -57 211 -182v-12c0 -68 -17 -140 -105 -164c88 -24 108 -96 108 -177v-23zM387 189v23c0 82 -17 160 -147 160h-122v-337c28 -2 56 -5 97 -5
c128 0 172 49 172 159zM384 553v12c0 104 -42 146 -172 146c-38 0 -63 -1 -94 -3v-301h122c130 0 144 76 144 146z" />
    <glyph glyph-name="u" unicode="u" horiz-adv-x="441" 
d="M411 0h-82v39c-40 -27 -83 -48 -137 -48c-98 0 -119 66 -119 183v327l-43 2v33h82v-362c0 -113 18 -149 88 -149c44 0 85 18 129 47v429l-42 2v33h81v-501l43 -1v-34z" />
    <glyph glyph-name="V" unicode="V" horiz-adv-x="539" 
d="M518 709l-43 -1l-178 -708h-56l-178 708l-43 1v34h130v-33l-46 -2l165 -675h1l164 675l-46 2v33h130v-34z" />
    <glyph glyph-name="C" unicode="C" horiz-adv-x="413" 
d="M375 5c-19 -5 -68 -14 -127 -14c-144 0 -208 89 -208 346v69c0 257 64 346 208 346c59 0 109 -9 127 -14v-95h-32l-3 66c-24 3 -58 6 -92 6c-125 0 -169 -80 -169 -309v-69c0 -229 44 -309 169 -309c37 0 70 2 92 5l3 66h32v-94z" />
    <glyph glyph-name="slash" unicode="/" horiz-adv-x="282" 
d="M263 743l-214 -743h-38l214 743h38z" />
    <glyph glyph-name="E" unicode="E" horiz-adv-x="420" 
d="M390 0h-357v34l46 1v673l-46 1v34h357v-101h-32l-4 65h-236v-298h251v-37h-251v-336h236l4 66h32v-102z" />
    <glyph glyph-name="L" unicode="L" horiz-adv-x="410" 
d="M380 0h-346v34l47 1v673l-47 1v34h135v-34l-49 -1v-672h225l3 70h32v-106z" />
    <glyph glyph-name="greater" unicode="&#x3e;" horiz-adv-x="516" 
d="M389 391l-214 -251h-48l213 251l-213 251h48z" />
    <glyph glyph-name="F" unicode="F" horiz-adv-x="414" 
d="M369 372h-251v-337l52 -1v-34h-137v34l46 1v673l-46 1v34h357v-102h-32l-4 66h-236v-298h251v-37z" />
    <glyph glyph-name="G" unicode="G" horiz-adv-x="442" 
d="M391 5c-38 -7 -90 -14 -141 -14c-139 0 -210 91 -210 344v74c0 258 73 343 211 343c59 0 114 -9 140 -14v-97h-32l-3 67c-27 4 -65 7 -101 7c-122 0 -176 -70 -176 -306v-74c0 -232 54 -307 176 -307c30 0 65 1 97 5v314l-93 2v33h132v-377z" />
    <glyph glyph-name="Eth" unicode="&#xd0;" horiz-adv-x="492" 
d="M450 332c0 -220 -49 -338 -233 -338c-71 0 -112 6 -185 6v34l46 2v333h-47v37h47v301l-46 2v34c73 0 108 5 185 5c183 0 233 -117 233 -337v-79zM410 332v79c0 214 -48 301 -194 301c-37 0 -68 -1 -98 -4v-302h130v-37h-130v-334c26 -1 66 -4 98 -4c146 0 194 88 194 301
z" />
    <glyph glyph-name="eth" unicode="&#xf0;" horiz-adv-x="400" 
d="M359 216c-1 -139 -40 -226 -159 -226s-158 87 -158 226v102c0 140 39 226 158 226c54 0 90 -21 111 -55c-13 102 -43 161 -97 202l-99 -87l-20 20l93 84c-33 18 -73 28 -120 28h-11v32c5 1 10 1 13 1c58 0 106 -12 145 -35l56 46l21 -19l-51 -44
c83 -67 117 -187 118 -399v-102zM320 216v102c0 126 -29 191 -120 191s-120 -65 -120 -191v-102c0 -126 29 -191 120 -191s120 65 120 191z" />
    <glyph glyph-name="Lslash" unicode="&#x141;" horiz-adv-x="410" 
d="M7 277v52l74 83v296l-47 1v34h135v-34l-49 -1v-252l105 118v-52l-105 -118v-368h225l3 70h32v-106h-346v34l47 1v325z" />
    <glyph glyph-name="lslash" unicode="&#x142;" horiz-adv-x="190" 
d="M157 0h-124v34l43 1v318l-65 -71v52l65 71v322l-43 1v34h81v-311l64 71v-52l-64 -71v-364l43 -1v-34z" />
    <glyph glyph-name="Thorn" unicode="&#xde;" horiz-adv-x="444" 
d="M410 407c0 -143 -60 -209 -208 -209c-25 0 -51 1 -84 2v-165l54 -1v-34h-139v34l46 1v672l-46 2v34h139v-34l-54 -2v-68c33 2 59 2 84 2c148 0 207 -65 208 -207v-27zM370 407v27c0 120 -41 171 -168 171c-29 0 -54 0 -84 -2v-367c30 -2 55 -2 84 -2
c127 0 168 53 168 173z" />
    <glyph glyph-name="thorn" unicode="&#xfe;" horiz-adv-x="411" 
d="M370 244c0 -180 -47 -253 -165 -253c-19 0 -47 1 -91 8v-168l46 -1v-34h-128v34l43 1v896l-43 1v34h81v-258c32 22 77 42 125 42c104 0 132 -70 132 -246v-56zM332 244v56c0 159 -20 211 -100 211c-42 0 -84 -19 -118 -39v-439c41 -6 74 -7 91 -7c93 0 127 55 127 218z
" />
    <glyph glyph-name="onehalf" unicode="&#xbd;" horiz-adv-x="726" 
d="M680 1h-228v32c0 103 22 135 113 196c74 50 85 73 85 116c0 57 -30 72 -97 72c-22 0 -47 -2 -69 -4l-2 -42h-26v65c22 5 65 11 100 11c88 0 131 -27 131 -101c0 -51 -18 -84 -98 -140c-87 -58 -101 -82 -101 -168v-7h163l2 42h27v-72zM548 743l-352 -743h-38l352 743h38z
M247 305h-208v28l85 1v376l-85 -32v33l92 35h29v-412l87 -1v-28z" />
    <glyph glyph-name="onequarter" unicode="&#xbc;" horiz-adv-x="671" 
d="M634 125h-57v-97l31 -1v-26h-99v26l31 1v97h-182v32l180 283h39v-285h57v-30zM541 155v240l-149 -240h149zM548 743l-352 -743h-38l352 743h38zM247 305h-208v28l85 1v376l-85 -32v33l92 35h29v-412l87 -1v-28z" />
    <glyph glyph-name="threequarters" unicode="&#xbe;" horiz-adv-x="684" 
d="M645 125h-57v-97l31 -1v-26h-99v26l31 1v97h-182v32l180 283h39v-285h57v-30zM552 155v240l-149 -240h149zM554 743l-352 -743h-38l352 743h38zM269 426c0 -96 -46 -128 -139 -128c-35 0 -76 6 -92 11v67h26l2 -45c18 -1 42 -3 62 -3c72 0 104 19 104 99v6
c0 52 -12 86 -80 86h-99v29h99c68 0 80 41 80 90v6c0 62 -28 79 -102 79c-21 0 -43 -2 -63 -4l-2 -42h-27v66c16 4 61 10 94 10c93 0 137 -25 137 -108v-6c0 -51 -16 -89 -60 -105c46 -15 60 -51 60 -101v-7z" />
    <glyph glyph-name="brokenbar" unicode="&#xa6;" horiz-adv-x="165" 
d="M102 -204h-39v392h39v-392zM102 743v-392h-39v392h39z" />
    <glyph glyph-name="minus" unicode="&#x2212;" horiz-adv-x="516" 
d="M442 375h-368v34h368v-34z" />
    <glyph glyph-name="multiply" unicode="&#xd7;" horiz-adv-x="516" 
d="M428 245l-24 -24l-147 147l-147 -148l-24 24l148 148l-148 147l23 24l148 -148l147 148l25 -24l-148 -148z" />
    <glyph glyph-name="quotedbl" unicode="&#x22;" horiz-adv-x="268" 
d="M238 760l-24 -231h-32l16 231h40zM86 760h-40l-16 -231h32z" />
    <glyph glyph-name="numbersign" unicode="#" horiz-adv-x="530" 
d="M487 214h-125l-17 -213h-35l17 213h-149l-17 -213h-36l18 213h-87v34h90l19 237h-109v34h112l18 224h36l-19 -224h149l19 224h35l-19 -224h100v-34h-103l-19 -237h122v-34zM349 485h-149l-19 -237h149z" />
    <glyph glyph-name="dollar" unicode="$" horiz-adv-x="410" 
d="M384 181c0 -99 -57 -179 -159 -188v-108h-37v107c-55 1 -104 8 -128 12v98h31l4 -70c25 -3 63 -5 106 -5c93 0 143 65 143 154c0 80 -28 116 -116 182l-55 41c-82 62 -120 112 -120 193c0 85 46 144 150 152v106h38v-104c54 -1 98 -7 127 -12v-97h-32l-3 69
c-27 3 -62 5 -102 5c-100 0 -139 -44 -139 -119c0 -67 31 -111 106 -166l53 -39c95 -70 133 -119 133 -211z" />
    <glyph glyph-name="percent" unicode="%" horiz-adv-x="789" 
d="M754 174c0 -122 -40 -184 -128 -184s-128 62 -128 184v88c0 122 40 183 128 183s128 -61 128 -183v-88zM718 173v89c0 112 -31 150 -92 150c-60 0 -92 -38 -92 -150v-89c0 -111 32 -150 92 -150c61 0 92 39 92 150zM595 743l-352 -743h-38l352 743h38zM301 481
c0 -120 -37 -183 -128 -183s-128 64 -128 183v88c0 119 37 183 128 183s128 -63 128 -183v-88zM265 481v88c0 111 -30 151 -92 151s-92 -41 -92 -151v-88c0 -111 30 -151 92 -151s92 40 92 151z" />
    <glyph glyph-name="quotesingle" unicode="'" horiz-adv-x="116" 
d="M86 760l-24 -231h-32l16 231h40z" />
    <glyph glyph-name="plus" unicode="+" horiz-adv-x="516" 
d="M463 375h-188v-188h-34v188h-189v34h189v189h34v-189h188v-34z" />
    <glyph glyph-name="less" unicode="&#x3c;" horiz-adv-x="516" 
d="M389 140h-49l-214 251l214 251h49l-214 -251z" />
    <glyph glyph-name="equal" unicode="=" horiz-adv-x="516" 
d="M431 262h-347v34h347v-34zM431 488h-347v35h347v-35z" />
    <glyph glyph-name="bracketleft" unicode="[" horiz-adv-x="255" 
d="M226 -203h-158v946h158v-35h-119v-876h119v-35z" />
    <glyph glyph-name="backslash" unicode="\" horiz-adv-x="305" 
d="M284 0h-39l-232 743h38z" />
    <glyph glyph-name="bracketright" unicode="]" horiz-adv-x="255" 
d="M187 -203h-158v35h120v877h-120v34h158v-946z" />
    <glyph glyph-name="asciicircum" unicode="^" horiz-adv-x="497" 
d="M441 369h-42l-145 249l-145 -249h-42l156 270h63z" />
    <glyph glyph-name="underscore" unicode="_" horiz-adv-x="425" 
d="M431 -93h-437v29h437v-29z" />
    <glyph glyph-name="grave" unicode="`" horiz-adv-x="273" 
d="M183 607h-38l-108 153h44z" />
    <glyph glyph-name="braceleft" unicode="{" horiz-adv-x="285" 
d="M256 -204h-31c-112 0 -123 60 -123 128v183c0 80 -15 106 -61 148v30c46 42 61 68 61 148v182c0 70 11 128 123 128h31v-34h-31c-79 0 -84 -34 -84 -94v-182c0 -81 -21 -121 -68 -163c47 -42 68 -82 68 -163v-183c0 -60 5 -93 84 -93h31v-35z" />
    <glyph glyph-name="bar" unicode="|" horiz-adv-x="165" 
d="M107 -204h-39v947h39v-947z" />
    <glyph glyph-name="braceright" unicode="}" horiz-adv-x="285" 
d="M244 255c-46 -42 -61 -68 -61 -148v-183c0 -68 -10 -128 -123 -128h-31v35h31c79 0 84 33 84 93v183c0 81 21 121 68 163c-47 42 -68 82 -68 163v182c0 60 -5 94 -84 94h-31v34h31c113 0 123 -58 123 -128v-182c0 -80 15 -106 61 -148v-30z" />
    <glyph glyph-name="asciitilde" unicode="~" horiz-adv-x="479" 
d="M410 455c0 -75 -14 -121 -74 -121c-43 0 -71 25 -97 62l-29 42c-24 34 -39 49 -65 49c-39 0 -43 -32 -43 -88v-59h-34v59c0 74 18 121 80 121c38 0 58 -20 87 -60l29 -41c24 -33 44 -53 70 -53c39 0 42 33 42 89v58h34v-58z" />
    <glyph glyph-name="dagger" unicode="&#x2020;" horiz-adv-x="361" 
d="M316 509h-115v-619h-38v619h-109v37h109v216h38v-216h115v-37z" />
    <glyph glyph-name="degree" unicode="&#xb0;" horiz-adv-x="379" 
d="M348 594c0 -89 -71 -158 -159 -158s-158 69 -158 158s70 158 158 158s159 -69 159 -158zM314 594c0 71 -57 126 -125 126c-69 0 -125 -55 -125 -126c0 -72 56 -125 125 -125c68 0 125 53 125 125z" />
    <glyph glyph-name="cent" unicode="&#xa2;" horiz-adv-x="335" 
d="M298 4c-33 -7 -60 -11 -86 -12v-112h-36v113c-108 9 -139 81 -139 221v110c0 136 32 211 139 220v120h36v-118c26 -2 53 -5 86 -13v-95h-32l-3 69c-30 4 -47 4 -62 4c-94 0 -126 -49 -126 -187v-110c0 -142 31 -188 126 -188c20 0 49 2 97 9v-31z" />
    <glyph glyph-name="sterling" unicode="&#xa3;" horiz-adv-x="447" 
d="M405 0h-346v34c39 47 48 89 48 155v184h-66v33h66v112c0 163 28 231 170 231c53 0 98 -7 128 -12v-106h-33l-3 77c-28 3 -60 5 -89 5c-113 0 -133 -45 -133 -195v-112h200v-33h-200v-184c0 -68 -13 -107 -46 -154h304v-35z" />
    <glyph glyph-name="section" unicode="&#xa7;" horiz-adv-x="429" 
d="M382 -32c0 -100 -49 -191 -182 -191c-55 0 -114 6 -140 10v101h31l2 -69c32 -3 52 -5 104 -5c103 0 144 63 144 153c0 85 -21 119 -128 198l-55 40c-66 49 -107 101 -107 179c0 35 6 74 28 102c-20 34 -28 71 -28 110c0 92 50 156 176 156c59 0 114 -9 139 -13v-97h-30
l-4 68c-26 3 -65 5 -103 5c-102 0 -138 -45 -138 -119c0 -79 21 -109 114 -176l50 -36c94 -66 127 -113 127 -203c0 -37 -5 -74 -23 -107c17 -33 23 -66 23 -106zM334 111c6 19 9 45 9 69c0 83 -25 112 -108 172l-53 37c-41 29 -62 46 -80 66c-10 -20 -13 -44 -13 -69
c0 -74 30 -107 95 -154l49 -35c51 -37 81 -63 101 -86z" />
    <glyph glyph-name="bullet" unicode="&#x2022;" horiz-adv-x="407" 
d="M361 368c0 -86 -68 -153 -152 -153c-85 0 -153 67 -153 153c0 85 68 153 153 153c84 0 152 -68 152 -153zM325 368c0 64 -53 117 -116 117c-64 0 -117 -53 -117 -117s53 -117 117 -117c63 0 116 53 116 117z" />
    <glyph glyph-name="paragraph" unicode="&#xb6;" horiz-adv-x="509" 
d="M465 -202h-36v911h-72v-911h-94v34l58 3v427h-36c-140 0 -240 59 -240 235v12c0 186 99 235 245 235h175v-946zM321 298v411h-37c-121 0 -202 -35 -202 -200v-11c0 -161 84 -200 203 -200h36z" />
    <glyph glyph-name="germandbls" unicode="&#xdf;" horiz-adv-x="450" 
d="M419 200c0 -118 -39 -208 -175 -208c-11 0 -24 0 -45 2v33c23 -2 31 -2 44 -2c101 0 138 63 138 175v24c0 95 -35 157 -143 157h-39v33h39c103 0 131 65 131 161v10c0 98 -24 158 -129 158s-132 -63 -132 -190v-553h-89v34l50 1v518c0 132 33 224 171 224
c134 0 167 -85 167 -192v-10c0 -92 -33 -155 -99 -176c71 -17 111 -79 111 -175v-24z" />
    <glyph glyph-name="registered" unicode="&#xae;" horiz-adv-x="536" 
d="M493 481c0 -167 -86 -279 -226 -279c-139 0 -225 112 -225 279c0 169 86 280 225 280c140 0 226 -111 226 -280zM464 481c0 154 -71 253 -197 253c-125 0 -197 -99 -197 -253s72 -253 197 -253c126 0 197 99 197 253zM241 323h-72v22l22 1v286l-22 1v23c37 1 62 2 83 2
c67 0 99 -30 99 -93v-6c0 -50 -19 -79 -55 -90l55 -123l25 -1v-22h-45l-65 140h-15c-12 0 -21 0 -32 1v-118l22 -1v-22zM322 559v6c0 50 -21 68 -70 68h-33v-145h36c49 0 67 20 67 71z" />
    <glyph glyph-name="copyright" unicode="&#xa9;" horiz-adv-x="649" 
d="M608 381c0 -217 -112 -345 -284 -345s-284 128 -284 345s112 345 284 345s284 -128 284 -345zM576 381c0 197 -97 314 -252 314c-156 0 -252 -117 -252 -314c0 -198 96 -315 252 -315c155 0 252 117 252 315zM410 171c-14 -3 -51 -7 -82 -7c-101 0 -135 66 -135 181v70
c0 116 34 181 135 181c31 0 69 -4 82 -7v-79h-28l-3 53c-13 1 -31 2 -48 2c-78 0 -103 -45 -103 -150v-70c0 -104 25 -149 103 -149c17 0 34 1 48 2l3 52h28v-79z" />
    <glyph glyph-name="trademark" unicode="&#x2122;" horiz-adv-x="650" 
d="M623 360h-94v27l31 1v264c0 19 1 36 2 54h-1c-7 -15 -13 -30 -20 -44l-66 -141h-30l-66 141c-7 15 -13 29 -19 44h-1c1 -18 1 -39 1 -54v-264l31 -1v-27h-94v27l31 1v328l-31 1v26h75l72 -151c6 -13 10 -25 14 -41h3c5 16 8 26 15 41l72 151h75v-26l-31 -1v-328l31 -1
v-27zM267 679h-23l-2 35h-80v-326l36 -1v-27h-104v27l36 1v326h-79l-2 -35h-23v64h241v-64z" />
    <glyph glyph-name="acute" unicode="&#xb4;" horiz-adv-x="308" 
d="M265 760l-108 -153h-38l102 153h44z" />
    <glyph glyph-name="dieresis" unicode="&#xa8;" horiz-adv-x="303" 
d="M259 630h-37v116h37v-116zM79 630v116h-37v-116h37z" />
    <glyph glyph-name="notequal" unicode="&#x2260;" horiz-adv-x="516" 
d="M427 262h-187l-67 -262h-35l67 262h-116v35h126l50 191h-176v34h185l58 223h35l-58 -223h118v-34h-128l-49 -191h177v-35z" />
    <glyph glyph-name="AE" unicode="&#xc6;" horiz-adv-x="691" 
d="M658 0h-357v34l47 1v252h-189l-69 -287h-77v34l44 2l168 672l-48 1v34h481v-101h-32l-3 65h-236v-298h251v-37h-251v-336h236l3 66h32v-102zM348 323v385h-85c-8 -36 -16 -69 -24 -104l-71 -281h180z" />
    <glyph glyph-name="Oslash" unicode="&#xd8;" horiz-adv-x="482" 
d="M442 336c0 -241 -54 -345 -201 -345c-66 0 -113 21 -145 66l-30 -57h-39l49 92c-25 56 -36 136 -36 244v71c0 241 55 345 201 345c67 0 114 -22 146 -68l32 59h39l-51 -96c24 -56 35 -135 35 -240v-71zM79 336c0 -86 6 -151 21 -198l266 506c-26 51 -67 71 -125 71
c-112 0 -162 -75 -162 -308v-71zM403 336v71c0 84 -7 147 -20 194l-266 -505c26 -50 67 -69 124 -69c113 0 162 76 162 309z" />
    <glyph glyph-name="infinity" unicode="&#x221e;" horiz-adv-x="609" 
d="M533 367c0 -69 -5 -219 -125 -219h-4c-39 0 -81 21 -114 62c-19 -40 -45 -62 -87 -62h-4c-121 0 -124 150 -124 220v12c0 69 4 219 124 219h4c39 0 81 -21 114 -62c16 40 45 62 88 62h4c120 0 124 -150 124 -220v-12zM498 367v12c0 72 -5 185 -89 185h-4
c-62 0 -72 -64 -82 -185c-5 -55 -12 -103 -21 -137c34 -42 68 -60 102 -60h4c83 0 90 113 90 185zM306 504c-35 43 -69 60 -103 60h-4c-82 0 -89 -113 -89 -184v-12c0 -72 4 -186 89 -186h4c57 0 74 64 86 200c4 44 9 88 17 122z" />
    <glyph glyph-name="plusminus" unicode="&#xb1;" horiz-adv-x="516" 
d="M455 0h-396v34h396v-34zM463 380h-188v-188h-34v188h-189v34h189v188h34v-188h188v-34z" />
    <glyph glyph-name="lessequal" unicode="&#x2264;" horiz-adv-x="516" 
d="M451 0h-387v34h387v-34zM354 150h-48l-207 245l207 245h48l-206 -245z" />
    <glyph glyph-name="greaterequal" unicode="&#x2265;" horiz-adv-x="516" 
d="M451 0h-386v34h386v-34zM417 395l-207 -245h-48l206 245l-206 245h48z" />
    <glyph glyph-name="yen" unicode="&#xa5;" horiz-adv-x="473" 
d="M428 282h-172v-246l53 -2v-34h-146v34l54 2v246h-173v33h169l-48 132h-120v33h106l-83 227l-40 2v34h68l108 -293c11 -30 24 -69 32 -95h2c9 26 21 65 31 95l108 293h68v-34l-40 -2l-84 -227h107v-33h-120l-49 -132h169v-33z" />
    <glyph glyph-name="mu" unicode="&#xb5;" horiz-adv-x="444" 
d="M412 0h-81v39c-41 -27 -83 -48 -137 -48c-42 0 -67 11 -81 37v-197l43 -1v-34h-124v34l43 1v670l-43 2v33h81v-362c0 -113 18 -149 88 -149c44 0 85 18 130 47v429l-43 2v33h81v-501l43 -1v-34z" />
    <glyph glyph-name="partialdiff" unicode="&#x2202;" horiz-adv-x="452" 
d="M412 506c0 -53 -5 -144 -21 -250c-28 -161 -85 -267 -205 -267c-96 0 -146 49 -146 154c0 44 7 89 11 119c17 132 74 217 189 217c59 0 120 -27 129 -103c5 60 6 107 6 138c-1 145 -42 231 -188 231c-24 0 -51 -3 -75 -8v33c23 5 49 8 77 8c163 0 223 -100 223 -272z
M356 311c0 81 -32 132 -115 132c-93 0 -138 -75 -152 -187c-4 -28 -11 -75 -11 -113c0 -83 36 -118 111 -118c95 0 142 89 159 204c6 32 8 62 8 82z" />
    <glyph glyph-name="summation" unicode="&#x2211;" horiz-adv-x="422" 
d="M374 -43h-326v36l194 355l-194 359v36h326v-37h-281l187 -347v-23l-187 -342h281v-37z" />
    <glyph glyph-name="product" unicode="&#x220f;" horiz-adv-x="577" 
d="M550 706h-94v-749h-39v749h-257v-749h-39v749h-94v37h523v-37z" />
    <glyph glyph-name="pi" unicode="&#x3c0;" horiz-adv-x="476" 
d="M445 -7c-10 -2 -21 -3 -30 -3c-69 0 -80 43 -80 121v388h-194v-499h-39v499h-72v37h416v-37h-73v-388c0 -64 7 -87 49 -87h23v-31z" />
    <glyph glyph-name="integral" unicode="&#x222b;" horiz-adv-x="358" 
d="M323 721c-15 1 -42 3 -57 3c-59 0 -68 -23 -68 -99v-699c0 -86 -14 -132 -101 -132c-19 0 -46 4 -63 8v28c16 -1 43 -3 58 -3c59 0 68 23 68 99v699c0 85 13 131 100 131c19 0 46 -3 63 -7v-28z" />
    <glyph glyph-name="ordfeminine" unicode="&#xaa;" horiz-adv-x="273" 
d="M258 447h-55v19c-16 -10 -44 -24 -78 -24c-53 0 -75 33 -75 85v17c0 68 34 89 115 89h36v34c0 57 -8 71 -66 71c-10 0 -26 -1 -42 -2l-2 -29h-24v50c16 4 47 9 72 9c78 0 95 -27 95 -99v-191l24 -1v-28zM202 491v118h-37c-66 0 -84 -14 -84 -65v-18c0 -41 17 -58 51 -58
c28 0 53 12 70 23z" />
    <glyph glyph-name="ordmasculine" unicode="&#xba;" horiz-adv-x="286" 
d="M250 580c0 -85 -27 -140 -102 -140s-101 55 -101 140v46c0 85 26 140 101 140s102 -55 102 -140v-46zM218 580v46c0 70 -17 111 -70 111c-51 0 -68 -40 -68 -111v-46c0 -71 17 -111 68 -111c53 0 70 40 70 111z" />
    <glyph glyph-name="Omega" unicode="&#x2126;" horiz-adv-x="480" 
d="M444 348c0 -116 -40 -207 -132 -256v-57h124v-35h-159v111c92 42 128 124 128 237v120c0 159 -48 250 -165 250c-118 0 -165 -91 -165 -250v-120c0 -113 35 -195 127 -237v-111h-159v35h124v57c-92 49 -132 140 -132 256v120c0 170 55 286 205 286
c149 0 204 -116 204 -286v-120z" />
    <glyph glyph-name="ae" unicode="&#xe6;" horiz-adv-x="633" 
d="M602 258h-279v-119c0 -85 35 -114 137 -114c48 0 99 7 132 13v-32c-26 -6 -80 -15 -133 -15c-75 0 -120 8 -154 57c-44 -36 -97 -57 -151 -57c-84 0 -116 55 -116 142v32c0 105 46 150 181 150h65v70c0 100 -16 126 -115 126c-17 0 -46 -1 -73 -3l-3 -56h-31v82
c31 6 76 12 111 12c91 0 125 -22 137 -75c20 46 63 75 133 75c125 0 159 -93 159 -233v-55zM563 291v32c0 114 -22 188 -119 188c-96 0 -121 -70 -121 -164v-56h240zM284 70v213h-65c-113 0 -143 -31 -143 -118v-36c0 -71 25 -105 85 -105c47 0 92 21 123 46z" />
    <glyph glyph-name="oslash" unicode="&#xf8;" horiz-adv-x="400" 
d="M359 244c-1 -175 -40 -253 -159 -253c-47 0 -81 12 -106 37l-30 -58h-37l46 88c-22 41 -31 103 -31 186v49c0 175 39 253 158 253c48 0 83 -13 108 -40l32 60h37l-48 -91c21 -42 29 -102 30 -182v-49zM80 244c0 -63 4 -110 15 -144l194 369c-19 29 -47 42 -89 42
c-91 0 -120 -57 -120 -218v-49zM320 244v49c0 59 -4 105 -14 138l-193 -368c19 -26 47 -37 87 -37c91 0 120 58 120 218z" />
    <glyph glyph-name="questiondown" unicode="&#xbf;" horiz-adv-x="330" 
d="M297 -212c-34 -8 -77 -13 -109 -13c-95 0 -153 35 -153 143v5c0 71 16 112 74 188c70 95 79 122 79 193v39h37v-39c0 -73 -8 -110 -78 -198c-58 -79 -72 -114 -72 -183v-5c0 -83 37 -108 118 -108c22 0 45 2 68 5l4 58h32v-85zM226 411h-39v125h39v-125z" />
    <glyph glyph-name="exclamdown" unicode="&#xa1;" horiz-adv-x="164" 
d="M63 536h38v-123h-38v123zM100 345l2 -564h-40l2 564h36z" />
    <glyph glyph-name="logicalnot" unicode="&#xac;" horiz-adv-x="516" 
d="M431 262h-35v226h-312v35h347v-261z" />
    <glyph glyph-name="radical" unicode="&#x221a;" horiz-adv-x="671" 
d="M637 873l-277 -947h-52l-154 518h-120v35h148l152 -523l265 917h38z" />
    <glyph glyph-name="florin" unicode="&#x192;" horiz-adv-x="437" 
d="M407 746l-3 -29c-20 2 -40 3 -53 3c-59 0 -71 -22 -82 -100l-20 -209h130l-4 -35h-130l-39 -411c-13 -95 -38 -132 -115 -132c-19 0 -43 3 -62 7l3 28c19 -1 40 -2 54 -2c57 0 70 20 81 100l39 410h-113l3 35h114l20 210c13 94 37 132 116 132c18 0 42 -3 61 -7z" />
    <glyph glyph-name="approxequal" unicode="&#x2248;" horiz-adv-x="516" 
d="M429 538c0 -75 -14 -121 -74 -121c-43 0 -71 25 -97 62l-29 42c-24 34 -39 49 -65 49c-39 0 -43 -32 -43 -88v-59h-34v59c0 74 18 121 80 121c38 0 58 -20 87 -60l29 -41c24 -33 44 -53 70 -53c39 0 42 33 42 89v58h34v-58zM429 307c0 -75 -14 -121 -74 -121
c-43 0 -71 25 -97 62l-29 42c-24 34 -39 49 -65 49c-39 0 -43 -32 -43 -88v-59h-34v59c0 74 18 121 80 121c38 0 58 -20 87 -60l29 -41c24 -33 44 -53 70 -53c39 0 42 33 42 89v58h34v-58z" />
    <glyph glyph-name="Delta" unicode="&#x2206;" horiz-adv-x="472" 
d="M451 0h-430l186 743h57zM401 37l-139 562c-9 40 -17 76 -26 113h-1c-8 -36 -16 -73 -25 -113l-139 -562h330z" />
    <glyph glyph-name="guillemotleft" unicode="&#xab;" horiz-adv-x="438" 
d="M404 72h-45l-130 207l130 206h45l-128 -206zM214 72l-128 207l128 206h-46l-129 -206l129 -207h46z" />
    <glyph glyph-name="guillemotright" unicode="&#xbb;" horiz-adv-x="438" 
d="M405 279l-130 -207h-46l129 207l-129 206h46zM214 279l-130 206h-45l128 -206l-128 -207h45z" />
    <glyph glyph-name="ellipsis" unicode="&#x2026;" horiz-adv-x="579" 
d="M309 0h-39v132h39v-132zM94 0h-39v132h39v-132zM524 0h-39v132h39v-132z" />
    <glyph glyph-name="OE" unicode="&#x152;" horiz-adv-x="705" 
d="M664 0h-289c-41 -6 -86 -10 -126 -10c-151 0 -207 109 -207 321v121c0 211 56 320 206 320c39 0 83 -4 121 -9h295v-101h-32l-3 65h-237v-298h252v-37h-252v-336h237l3 65h32v-101zM353 33v675c-35 5 -74 8 -105 8c-115 0 -167 -81 -167 -284v-121
c0 -204 52 -285 167 -285c31 0 69 2 105 7z" />
    <glyph glyph-name="oe" unicode="&#x153;" horiz-adv-x="663" 
d="M632 258h-279v-38c0 -139 37 -195 138 -195c48 0 98 7 131 13v-32c-26 -6 -80 -15 -133 -15c-77 0 -133 26 -155 92c-20 -56 -64 -93 -139 -93c-119 0 -159 87 -159 226v105c0 139 40 225 159 225c75 0 119 -36 139 -92c18 55 63 92 139 92c123 0 159 -93 159 -235v-53z
M593 291v30c0 116 -23 190 -120 190c-100 0 -119 -77 -120 -182v-38h240zM315 216v105c0 132 -34 190 -120 190c-91 0 -120 -65 -120 -190v-105c0 -125 29 -191 120 -191s120 66 120 191z" />
    <glyph glyph-name="endash" unicode="&#x2013;" horiz-adv-x="358" 
d="M319 268h-280v35h280v-35z" />
    <glyph glyph-name="emdash" unicode="&#x2014;" horiz-adv-x="460" 
d="M421 268h-382v35h382v-35z" />
    <glyph glyph-name="quotedblleft" unicode="&#x201c;" horiz-adv-x="296" 
d="M266 762l-43 -225h-41l51 225h33zM114 762h-33l-51 -225h41z" />
    <glyph glyph-name="quotedblright" unicode="&#x201d;" horiz-adv-x="296" 
d="M266 762l-51 -225h-33l43 225h41zM114 762h-41l-43 -225h33z" />
    <glyph glyph-name="quoteleft" unicode="&#x2018;" horiz-adv-x="144" 
d="M114 762l-43 -225h-41l51 225h33z" />
    <glyph glyph-name="quoteright" unicode="&#x2019;" horiz-adv-x="144" 
d="M114 762l-51 -225h-33l43 225h41z" />
    <glyph glyph-name="divide" unicode="&#xf7;" horiz-adv-x="516" 
d="M278 123h-39v126h39v-126zM457 373v35h-398v-35h398zM278 521h-39v127h39v-127z" />
    <glyph glyph-name="lozenge" unicode="&#x25ca;" horiz-adv-x="485" 
d="M437 360l-195 -297l-194 296l195 299zM393 360l-150 229l-151 -230l150 -228z" />
    <glyph glyph-name="fraction" unicode="&#x2044;" horiz-adv-x="348" 
d="M375 743l-352 -743h-38l352 743h38z" />
    <glyph glyph-name="Euro" unicode="&#x20ac;" horiz-adv-x="451" 
d="M417 7c-12 -4 -67 -16 -128 -16c-128 0 -193 76 -204 281h-57v33h55c-2 50 -2 97 0 136h-55v33h57c12 202 77 278 204 278c61 0 117 -12 128 -16v-92h-32l-3 65c-20 3 -56 7 -90 7c-110 0 -156 -64 -167 -242h257l-6 -33h-253c-2 -39 -2 -85 0 -136h224l-7 -33h-215
c11 -181 57 -245 167 -245c45 0 101 9 125 12v-32z" />
    <glyph glyph-name="guilsinglleft" unicode="&#x2039;" horiz-adv-x="247" 
d="M213 72h-45l-130 207l130 206h45l-128 -206z" />
    <glyph glyph-name="guilsinglright" unicode="&#x203a;" horiz-adv-x="247" 
d="M214 279l-130 -207h-45l128 207l-128 206h45z" />
    <glyph glyph-name="daggerdbl" unicode="&#x2021;" horiz-adv-x="361" 
d="M318 288h-117v-398h-38v398h-111v36h111v179h-111v36h111v221h38v-221h117v-36h-117v-179h117v-36z" />
    <glyph glyph-name="periodcentered" unicode="&#xb7;" horiz-adv-x="127" 
d="M83 288h-39v132h39v-132z" />
    <glyph glyph-name="quotesinglbase" unicode="&#x201a;" horiz-adv-x="144" 
d="M114 134l-51 -225h-33l43 225h41z" />
    <glyph glyph-name="quotedblbase" unicode="&#x201e;" horiz-adv-x="296" 
d="M266 134l-51 -225h-33l43 225h41zM114 134h-41l-43 -225h33z" />
    <glyph glyph-name="perthousand" unicode="&#x2030;" horiz-adv-x="1108" 
d="M1068 174c0 -122 -40 -184 -128 -184s-128 62 -128 184v88c0 122 40 183 128 183s128 -61 128 -183v-88zM1032 173v89c0 112 -31 150 -92 150c-60 0 -92 -38 -92 -150v-89c0 -111 32 -150 92 -150c61 0 92 39 92 150zM749 174c0 -122 -40 -184 -128 -184
s-128 62 -128 184v88c0 122 40 183 128 183s128 -61 128 -183v-88zM713 173v89c0 112 -31 150 -92 150c-60 0 -92 -38 -92 -150v-89c0 -111 32 -150 92 -150c61 0 92 39 92 150zM590 743l-352 -743h-38l352 743h38zM296 481c0 -120 -37 -183 -128 -183s-128 64 -128 183v88
c0 119 37 183 128 183s128 -63 128 -183v-88zM260 481v88c0 111 -30 151 -92 151s-92 -41 -92 -151v-88c0 -111 30 -151 92 -151s92 40 92 151z" />
    <glyph glyph-name="dotlessi" unicode="&#x131;" horiz-adv-x="190" 
d="M157 0h-124v34l43 1v466l-43 1v34h81v-501l43 -1v-34z" />
    <glyph glyph-name="circumflex" unicode="&#x2c6;" horiz-adv-x="339" 
d="M304 607h-39l-96 129l-95 -129h-39l110 153h49z" />
    <glyph glyph-name="tilde" unicode="&#x2dc;" horiz-adv-x="322" 
d="M303 714c0 -68 -14 -109 -68 -109c-35 0 -57 22 -83 58l-20 28c-22 31 -35 46 -58 46c-34 0 -38 -31 -38 -78v-50h-31v50c0 67 16 108 69 108c34 0 54 -20 80 -56l20 -28c22 -31 38 -48 61 -48c33 0 38 31 38 79v49h30v-49z" />
    <glyph glyph-name="macron" unicode="&#xaf;" horiz-adv-x="332" 
d="M301 670h-270v33h270v-33z" />
    <glyph glyph-name="breve" unicode="&#x2d8;" horiz-adv-x="314" 
d="M277 764c-3 -88 -20 -160 -119 -160c-98 0 -115 72 -118 160h30c4 -82 16 -131 88 -131c73 0 85 49 88 131h31z" />
    <glyph glyph-name="dotaccent" unicode="&#x2d9;" horiz-adv-x="271" 
d="M170 645h-39v116h39v-116z" />
    <glyph glyph-name="ring" unicode="&#x2da;" horiz-adv-x="314" 
d="M256 697c0 -72 -39 -106 -97 -106s-99 34 -99 106s41 106 99 106s97 -35 97 -106zM227 697c0 60 -31 79 -68 79c-38 0 -68 -19 -68 -79s30 -79 68 -79c37 0 68 20 68 79z" />
    <glyph glyph-name="cedilla" unicode="&#xb8;" horiz-adv-x="283" 
d="M192 -62l-103 -142h-38l96 142h45z" />
    <glyph glyph-name="hungarumlaut" unicode="&#x2dd;" horiz-adv-x="325" 
d="M326 760l-108 -153h-38l102 153h44zM177 760h-44l-102 -153h38z" />
    <glyph glyph-name="ogonek" unicode="&#x2db;" horiz-adv-x="315" 
d="M259 -206c-16 -4 -41 -8 -67 -8c-74 0 -100 36 -100 85c0 52 50 93 117 130h50c-90 -50 -132 -83 -132 -130c0 -36 18 -57 69 -57c24 0 49 3 63 6v-26z" />
    <glyph glyph-name="caron" unicode="&#x2c7;" horiz-adv-x="339" 
d="M265 760h39l-110 -153h-49l-110 153h39l95 -129z" />
    <glyph glyph-name="a.alt" unicode="&#xe245;" horiz-adv-x="399" 
d="M377 0h-81v29c-29 -18 -70 -38 -120 -38c-104 0 -136 81 -136 252v51c0 183 44 252 165 252c31 0 76 -2 129 -9v-502l43 -1v-34zM295 62v444c-41 5 -74 6 -90 6c-95 0 -127 -52 -127 -218v-51c0 -155 24 -217 105 -217c43 0 83 19 112 36z" />
    <glyph glyph-name="g.alt" unicode="&#xe24b;" horiz-adv-x="405" 
d="M51 -197v31c40 -4 83 -8 122 -8c99 0 121 39 121 162v20c-21 -7 -59 -17 -98 -17c-116 0 -158 68 -158 224v107c0 156 45 224 171 224c29 0 69 -4 109 -10h57v-34l-42 -1v-513c0 -137 -33 -196 -158 -196c-47 0 -102 7 -124 11zM294 42v465c-33 3 -66 4 -85 4
c-99 0 -132 -50 -132 -189v-107c0 -139 28 -189 120 -189c37 0 75 9 97 16z" />
    <glyph glyph-name="u.alt" unicode="&#xe259;" horiz-adv-x="418" 
d="M368 248c0 -179 -30 -257 -147 -257s-148 78 -148 257v253l-43 2v33h82v-288c0 -164 21 -222 109 -222s108 58 108 222v253l-42 2v33h81v-288z" />
    <glyph glyph-name="Scaron" unicode="&#x160;" horiz-adv-x="395" 
d="M364 181c0 -113 -64 -190 -181 -190c-59 0 -117 8 -144 13v98h32l3 -70c29 -3 67 -5 106 -5c94 0 145 56 145 154c0 84 -34 121 -117 182l-53 39c-83 61 -123 114 -123 195c0 93 52 155 175 155c56 0 108 -8 140 -13v-97h-32l-4 69c-24 2 -64 5 -101 5
c-99 0 -139 -44 -139 -119c0 -72 32 -112 107 -166l54 -39c92 -66 132 -119 132 -211zM297 955h39l-110 -153h-49l-110 153h39l95 -129z" />
    <glyph glyph-name="scaron" unicode="&#x161;" horiz-adv-x="339" 
d="M305 126c0 -58 -30 -135 -149 -135c-50 0 -96 8 -119 15v85h31l3 -59c23 -4 51 -6 84 -6c90 0 111 54 111 100c0 52 -21 83 -95 130l-31 20c-73 48 -106 88 -106 148c0 72 39 122 145 122c43 0 88 -8 112 -14v-81h-31l-4 54c-21 3 -51 6 -75 6c-80 0 -109 -29 -109 -87
c0 -49 27 -77 90 -118l31 -20c82 -53 112 -91 112 -160zM271 760h39l-110 -153h-49l-110 153h39l95 -129z" />
    <glyph glyph-name="Yacute" unicode="&#xdd;" horiz-adv-x="467" 
d="M446 709l-44 -1l-149 -403v-269l53 -2v-34h-146v34l54 2v269l-150 403l-44 1v34h127v-33l-42 -1l128 -355h1l127 355l-41 1v33h126v-34zM351 953l-108 -153h-38l102 153h44z" />
    <glyph glyph-name="yacute" unicode="&#xfd;" horiz-adv-x="440" 
d="M419 503l-45 -2l-135 -538c-29 -116 -52 -172 -142 -172c-20 0 -44 2 -63 5v32c28 -3 46 -3 61 -3c61 0 84 32 106 141l7 34l-140 501l-45 2v33h127v-33l-42 -1l118 -442h1l107 442l-41 1v33h126v-33zM326 760l-108 -153h-38l102 153h44z" />
    <glyph glyph-name="Zcaron" unicode="&#x17d;" horiz-adv-x="443" 
d="M409 0h-375v43l323 664h-274l-3 -65h-32v101h350v-42l-323 -665h299l4 66h31v-102zM326 953h39l-110 -153h-49l-110 153h39l95 -129z" />
    <glyph glyph-name="zcaron" unicode="&#x17e;" horiz-adv-x="349" 
d="M316 0h-283v44l241 458h-196l-3 -51h-31v85h271v-41l-242 -461h208l3 56h32v-90zM281 760h39l-110 -153h-49l-110 153h39l95 -129z" />
    <glyph glyph-name="Ntilde" unicode="&#xd1;" horiz-adv-x="541" 
d="M508 709l-46 -1v-709h-59l-284 703h-2v-667l47 -1v-34h-131v34l46 1v673l-46 1v34h105l286 -695h1v660l-48 1v34h131v-34zM421 908c0 -68 -14 -109 -68 -109c-35 0 -57 22 -83 58l-20 28c-22 31 -35 46 -58 46c-34 0 -38 -31 -38 -78v-50h-31v50c0 67 16 108 69 108
c34 0 54 -20 80 -56l20 -28c22 -31 38 -48 61 -48c33 0 38 31 38 79v49h30v-49z" />
    <glyph glyph-name="Odieresis" unicode="&#xd6;" horiz-adv-x="482" 
d="M442 336c0 -241 -54 -345 -201 -345c-146 0 -201 104 -201 345v71c0 241 55 345 201 345c147 0 201 -104 201 -345v-71zM403 336v71c0 233 -49 308 -162 308c-112 0 -162 -75 -162 -308v-71c0 -233 50 -309 162 -309c113 0 162 76 162 309zM348 816h-37v116h37v-116z
M168 816v116h-37v-116h37z" />
    <glyph glyph-name="Udieresis" unicode="&#xdc;" horiz-adv-x="535" 
d="M502 709l-49 -1v-424c0 -182 -35 -292 -185 -292s-186 110 -186 292v424l-48 1v34h135v-34l-48 -1v-419c0 -178 26 -261 147 -261s146 83 146 261v419l-48 1v34h136v-34zM377 819h-37v116h37v-116zM197 819v116h-37v-116h37z" />
    <glyph glyph-name="aacute" unicode="&#xe1;" horiz-adv-x="388" 
d="M364 0h-79v33c-34 -23 -78 -42 -128 -42c-91 0 -120 56 -120 152v12c0 115 45 160 181 160h65v70c0 101 -15 126 -114 126c-18 0 -40 0 -72 -3l-3 -56h-31v82c39 6 74 12 110 12c123 0 149 -42 149 -161v-350l42 -1v-34zM283 63v220h-65c-113 0 -143 -31 -143 -128v-16
c0 -82 24 -115 89 -115c45 0 89 19 119 39zM302 760l-108 -153h-38l102 153h44z" />
    <glyph glyph-name="agrave" unicode="&#xe0;" horiz-adv-x="388" 
d="M364 0h-79v33c-34 -23 -78 -42 -128 -42c-91 0 -120 56 -120 152v12c0 115 45 160 181 160h65v70c0 101 -15 126 -114 126c-18 0 -40 0 -72 -3l-3 -56h-31v82c39 6 74 12 110 12c123 0 149 -42 149 -161v-350l42 -1v-34zM283 63v220h-65c-113 0 -143 -31 -143 -128v-16
c0 -82 24 -115 89 -115c45 0 89 19 119 39zM223 607h-38l-108 153h44z" />
    <glyph glyph-name="acircumflex" unicode="&#xe2;" horiz-adv-x="388" 
d="M364 0h-79v33c-34 -23 -78 -42 -128 -42c-91 0 -120 56 -120 152v12c0 115 45 160 181 160h65v70c0 101 -15 126 -114 126c-18 0 -40 0 -72 -3l-3 -56h-31v82c39 6 74 12 110 12c123 0 149 -42 149 -161v-350l42 -1v-34zM283 63v220h-65c-113 0 -143 -31 -143 -128v-16
c0 -82 24 -115 89 -115c45 0 89 19 119 39zM323 607h-39l-96 129l-95 -129h-39l110 153h49z" />
    <glyph glyph-name="adieresis" unicode="&#xe4;" horiz-adv-x="388" 
d="M364 0h-79v33c-34 -23 -78 -42 -128 -42c-91 0 -120 56 -120 152v12c0 115 45 160 181 160h65v70c0 101 -15 126 -114 126c-18 0 -40 0 -72 -3l-3 -56h-31v82c39 6 74 12 110 12c123 0 149 -42 149 -161v-350l42 -1v-34zM283 63v220h-65c-113 0 -143 -31 -143 -128v-16
c0 -82 24 -115 89 -115c45 0 89 19 119 39zM302 630h-37v116h37v-116zM122 630v116h-37v-116h37z" />
    <glyph glyph-name="atilde" unicode="&#xe3;" horiz-adv-x="388" 
d="M364 0h-79v33c-34 -23 -78 -42 -128 -42c-91 0 -120 56 -120 152v12c0 115 45 160 181 160h65v70c0 101 -15 126 -114 126c-18 0 -40 0 -72 -3l-3 -56h-31v82c39 6 74 12 110 12c123 0 149 -42 149 -161v-350l42 -1v-34zM283 63v220h-65c-113 0 -143 -31 -143 -128v-16
c0 -82 24 -115 89 -115c45 0 89 19 119 39zM344 714c0 -68 -14 -109 -68 -109c-35 0 -57 22 -83 58l-20 28c-22 31 -35 46 -58 46c-34 0 -38 -31 -38 -78v-50h-31v50c0 67 16 108 69 108c34 0 54 -20 80 -56l20 -28c22 -31 38 -48 61 -48c33 0 38 31 38 79v49h30v-49z" />
    <glyph glyph-name="aring" unicode="&#xe5;" horiz-adv-x="388" 
d="M364 0h-79v33c-34 -23 -78 -42 -128 -42c-91 0 -120 56 -120 152v12c0 115 45 160 181 160h65v70c0 101 -15 126 -114 126c-18 0 -40 0 -72 -3l-3 -56h-31v82c39 6 74 12 110 12c123 0 149 -42 149 -161v-350l42 -1v-34zM283 63v220h-65c-113 0 -143 -31 -143 -128v-16
c0 -82 24 -115 89 -115c45 0 89 19 119 39zM291 694c0 -72 -39 -106 -97 -106s-99 34 -99 106s41 106 99 106s97 -35 97 -106zM262 694c0 60 -31 79 -68 79c-38 0 -68 -19 -68 -79s30 -79 68 -79c37 0 68 20 68 79z" />
    <glyph glyph-name="ccedilla" unicode="&#xe7;" horiz-adv-x="333" 
d="M304 4c-39 -9 -70 -13 -102 -13c-124 0 -160 66 -160 252v52c0 182 38 251 160 251c34 0 66 -5 102 -13v-86h-32l-3 60c-27 4 -48 4 -63 4c-93 0 -125 -40 -125 -216v-52c0 -179 31 -217 125 -217c21 0 50 2 98 9v-31zM232 -62l-103 -142h-38l96 142h45z" />
    <glyph glyph-name="eacute" unicode="&#xe9;" horiz-adv-x="390" 
d="M353 258h-273v-20c0 -155 29 -212 135 -212c42 0 94 6 129 12v-32c-26 -6 -77 -15 -131 -15c-133 0 -172 74 -172 251v50c0 164 35 254 156 254s156 -88 156 -256v-32zM314 291v12c0 136 -22 208 -117 208c-98 0 -117 -76 -117 -209v-11h234zM304 760l-108 -153h-38
l102 153h44z" />
    <glyph glyph-name="egrave" unicode="&#xe8;" horiz-adv-x="390" 
d="M353 258h-273v-20c0 -155 29 -212 135 -212c42 0 94 6 129 12v-32c-26 -6 -77 -15 -131 -15c-133 0 -172 74 -172 251v50c0 164 35 254 156 254s156 -88 156 -256v-32zM314 291v12c0 136 -22 208 -117 208c-98 0 -117 -76 -117 -209v-11h234zM238 607h-38l-108 153h44z
" />
    <glyph glyph-name="ecircumflex" unicode="&#xea;" horiz-adv-x="390" 
d="M353 258h-273v-20c0 -155 29 -212 135 -212c42 0 94 6 129 12v-32c-26 -6 -77 -15 -131 -15c-133 0 -172 74 -172 251v50c0 164 35 254 156 254s156 -88 156 -256v-32zM314 291v12c0 136 -22 208 -117 208c-98 0 -117 -76 -117 -209v-11h234zM333 607h-39l-96 129
l-95 -129h-39l110 153h49z" />
    <glyph glyph-name="edieresis" unicode="&#xeb;" horiz-adv-x="390" 
d="M353 258h-273v-20c0 -155 29 -212 135 -212c42 0 94 6 129 12v-32c-26 -6 -77 -15 -131 -15c-133 0 -172 74 -172 251v50c0 164 35 254 156 254s156 -88 156 -256v-32zM314 291v12c0 136 -22 208 -117 208c-98 0 -117 -76 -117 -209v-11h234zM305 630h-37v116h37v-116z
M125 630v116h-37v-116h37z" />
    <glyph glyph-name="iacute" unicode="&#xed;" horiz-adv-x="190" 
d="M203 760l-108 -153h-38l102 153h44zM157 0h-124v34l43 1v466l-43 1v34h81v-501l43 -1v-34z" />
    <glyph glyph-name="igrave" unicode="&#xec;" horiz-adv-x="190" 
d="M136 607h-38l-108 153h44zM157 0h-124v34l43 1v466l-43 1v34h81v-501l43 -1v-34z" />
    <glyph glyph-name="icircumflex" unicode="&#xee;" horiz-adv-x="190" 
d="M157 0h-124v34l43 1v466l-43 1v34h81v-501l43 -1v-34zM230 607h-39l-96 129l-95 -129h-39l110 153h49z" />
    <glyph glyph-name="idieresis" unicode="&#xef;" horiz-adv-x="190" 
d="M204 630h-37v116h37v-116zM24 630v116h-37v-116h37zM157 0h-124v34l43 1v466l-43 1v34h81v-501l43 -1v-34z" />
    <glyph glyph-name="ntilde" unicode="&#xf1;" horiz-adv-x="440" 
d="M410 0h-81v363c0 113 -19 149 -87 149c-42 0 -85 -17 -131 -46v-431l43 -1v-34h-124v34l43 1v466l-43 1v34h81v-37c40 25 84 47 136 47c99 0 121 -59 121 -183v-328l42 -1v-34zM361 714c0 -68 -14 -109 -68 -109c-35 0 -57 22 -83 58l-20 28c-22 31 -35 46 -58 46
c-34 0 -38 -31 -38 -78v-50h-31v50c0 67 16 108 69 108c34 0 54 -20 80 -56l20 -28c22 -31 38 -48 61 -48c33 0 38 31 38 79v49h30v-49z" />
    <glyph glyph-name="oacute" unicode="&#xf3;" horiz-adv-x="400" 
d="M359 244c-1 -175 -40 -253 -159 -253s-158 78 -158 253v49c0 175 39 253 158 253s158 -78 159 -253v-49zM320 244v49c0 160 -29 218 -120 218s-120 -57 -120 -218v-49c0 -160 29 -218 120 -218s120 58 120 218zM302 760l-108 -153h-38l102 153h44z" />
    <glyph glyph-name="ograve" unicode="&#xf2;" horiz-adv-x="400" 
d="M359 244c-1 -175 -40 -253 -159 -253s-158 78 -158 253v49c0 175 39 253 158 253s158 -78 159 -253v-49zM320 244v49c0 160 -29 218 -120 218s-120 -57 -120 -218v-49c0 -160 29 -218 120 -218s120 58 120 218zM240 607h-38l-108 153h44z" />
    <glyph glyph-name="ocircumflex" unicode="&#xf4;" horiz-adv-x="400" 
d="M359 244c-1 -175 -40 -253 -159 -253s-158 78 -158 253v49c0 175 39 253 158 253s158 -78 159 -253v-49zM320 244v49c0 160 -29 218 -120 218s-120 -57 -120 -218v-49c0 -160 29 -218 120 -218s120 58 120 218zM334 607h-39l-96 129l-95 -129h-39l110 153h49z" />
    <glyph glyph-name="odieresis" unicode="&#xf6;" horiz-adv-x="400" 
d="M359 244c-1 -175 -40 -253 -159 -253s-158 78 -158 253v49c0 175 39 253 158 253s158 -78 159 -253v-49zM320 244v49c0 160 -29 218 -120 218s-120 -57 -120 -218v-49c0 -160 29 -218 120 -218s120 58 120 218zM306 630h-37v116h37v-116zM126 630v116h-37v-116h37z" />
    <glyph glyph-name="otilde" unicode="&#xf5;" horiz-adv-x="400" 
d="M359 244c-1 -175 -40 -253 -159 -253s-158 78 -158 253v49c0 175 39 253 158 253s158 -78 159 -253v-49zM320 244v49c0 160 -29 218 -120 218s-120 -57 -120 -218v-49c0 -160 29 -218 120 -218s120 58 120 218zM352 714c0 -68 -14 -109 -68 -109c-35 0 -57 22 -83 58
l-20 28c-22 31 -35 46 -58 46c-34 0 -38 -31 -38 -78v-50h-31v50c0 67 16 108 69 108c34 0 54 -20 80 -56l20 -28c22 -31 38 -48 61 -48c33 0 38 31 38 79v49h30v-49z" />
    <glyph glyph-name="uacute" unicode="&#xfa;" horiz-adv-x="441" 
d="M411 0h-82v39c-40 -27 -83 -48 -137 -48c-98 0 -119 66 -119 183v327l-43 2v33h82v-362c0 -113 18 -149 88 -149c44 0 85 18 129 47v429l-42 2v33h81v-501l43 -1v-34zM304 760l-108 -153h-38l102 153h44z" />
    <glyph glyph-name="ugrave" unicode="&#xf9;" horiz-adv-x="441" 
d="M411 0h-82v39c-40 -27 -83 -48 -137 -48c-98 0 -119 66 -119 183v327l-43 2v33h82v-362c0 -113 18 -149 88 -149c44 0 85 18 129 47v429l-42 2v33h81v-501l43 -1v-34zM261 607h-38l-108 153h44z" />
    <glyph glyph-name="Otilde" unicode="&#xd5;" horiz-adv-x="482" 
d="M442 336c0 -241 -54 -345 -201 -345c-146 0 -201 104 -201 345v71c0 241 55 345 201 345c147 0 201 -104 201 -345v-71zM403 336v71c0 233 -49 308 -162 308c-112 0 -162 -75 -162 -308v-71c0 -233 50 -309 162 -309c113 0 162 76 162 309zM390 907
c0 -68 -14 -109 -68 -109c-35 0 -57 22 -83 58l-20 28c-22 31 -35 46 -58 46c-34 0 -38 -31 -38 -78v-50h-31v50c0 67 16 108 69 108c34 0 54 -20 80 -56l20 -28c22 -31 38 -48 61 -48c33 0 38 31 38 79v49h30v-49z" />
    <glyph glyph-name="ydieresis" unicode="&#xff;" horiz-adv-x="440" 
d="M419 503l-45 -2l-135 -538c-29 -116 -52 -172 -142 -172c-20 0 -44 2 -63 5v32c28 -3 46 -3 61 -3c61 0 84 32 106 141l7 34l-140 501l-45 2v33h127v-33l-42 -1l118 -442h1l107 442l-41 1v33h126v-33zM332 630h-37v116h37v-116zM152 630v116h-37v-116h37z" />
    <glyph glyph-name="Ydieresis" unicode="&#x178;" horiz-adv-x="467" 
d="M446 709l-44 -1l-149 -403v-269l53 -2v-34h-146v34l54 2v269l-150 403l-44 1v34h127v-33l-42 -1l128 -355h1l127 355l-41 1v33h126v-34zM343 824h-37v116h37v-116zM163 824v116h-37v-116h37z" />
    <glyph glyph-name="Iacute" unicode="&#xcd;" horiz-adv-x="203" 
d="M167 0h-132v34l47 1v673l-47 1v34h132v-34l-46 -1v-673l46 -1v-34zM212 958l-108 -153h-38l102 153h44z" />
    <glyph glyph-name="Icircumflex" unicode="&#xce;" horiz-adv-x="203" 
d="M167 0h-132v34l47 1v673l-47 1v34h132v-34l-46 -1v-673l46 -1v-34zM236 805h-39l-96 129l-95 -129h-39l110 153h49z" />
    <glyph glyph-name="Idieresis" unicode="&#xcf;" horiz-adv-x="203" 
d="M167 0h-132v34l47 1v673l-47 1v34h132v-34l-46 -1v-673l46 -1v-34zM210 819h-37v116h37v-116zM30 819v116h-37v-116h37z" />
    <glyph glyph-name="Igrave" unicode="&#xcc;" horiz-adv-x="203" 
d="M167 0h-132v34l47 1v673l-47 1v34h132v-34l-46 -1v-673l46 -1v-34zM142 805h-38l-108 153h44z" />
    <glyph glyph-name="Oacute" unicode="&#xd3;" horiz-adv-x="482" 
d="M442 336c0 -241 -54 -345 -201 -345c-146 0 -201 104 -201 345v71c0 241 55 345 201 345c147 0 201 -104 201 -345v-71zM403 336v71c0 233 -49 308 -162 308c-112 0 -162 -75 -162 -308v-71c0 -233 50 -309 162 -309c113 0 162 76 162 309zM358 955l-108 -153h-38
l102 153h44z" />
    <glyph glyph-name="Ocircumflex" unicode="&#xd4;" horiz-adv-x="482" 
d="M442 336c0 -241 -54 -345 -201 -345c-146 0 -201 104 -201 345v71c0 241 55 345 201 345c147 0 201 -104 201 -345v-71zM403 336v71c0 233 -49 308 -162 308c-112 0 -162 -75 -162 -308v-71c0 -233 50 -309 162 -309c113 0 162 76 162 309zM375 802h-39l-96 129l-95 -129
h-39l110 153h49z" />
    <glyph glyph-name="Ograve" unicode="&#xd2;" horiz-adv-x="482" 
d="M442 336c0 -241 -54 -345 -201 -345c-146 0 -201 104 -201 345v71c0 241 55 345 201 345c147 0 201 -104 201 -345v-71zM403 336v71c0 233 -49 308 -162 308c-112 0 -162 -75 -162 -308v-71c0 -233 50 -309 162 -309c113 0 162 76 162 309zM276 802h-38l-108 153h44z" />
    <glyph glyph-name="Uacute" unicode="&#xda;" horiz-adv-x="535" 
d="M502 709l-49 -1v-424c0 -182 -35 -292 -185 -292s-186 110 -186 292v424l-48 1v34h135v-34l-48 -1v-419c0 -178 26 -261 147 -261s146 83 146 261v419l-48 1v34h136v-34zM379 954l-108 -153h-38l102 153h44z" />
    <glyph glyph-name="Ucircumflex" unicode="&#xdb;" horiz-adv-x="535" 
d="M502 709l-49 -1v-424c0 -182 -35 -292 -185 -292s-186 110 -186 292v424l-48 1v34h135v-34l-48 -1v-419c0 -178 26 -261 147 -261s146 83 146 261v419l-48 1v34h136v-34zM405 801h-39l-96 129l-95 -129h-39l110 153h49z" />
    <glyph glyph-name="Ugrave" unicode="&#xd9;" horiz-adv-x="535" 
d="M502 709l-49 -1v-424c0 -182 -35 -292 -185 -292s-186 110 -186 292v424l-48 1v34h135v-34l-48 -1v-419c0 -178 26 -261 147 -261s146 83 146 261v419l-48 1v34h136v-34zM312 801h-38l-108 153h44z" />
    <glyph glyph-name="q" unicode="q" horiz-adv-x="399" 
d="M377 -204h-123v34l43 1v181c-32 -14 -75 -21 -109 -21c-114 0 -148 68 -148 247v55c0 188 36 253 173 253c26 0 62 -1 122 -8v-707l42 -1v-34zM296 45v462c-35 3 -67 3 -84 3c-103 0 -133 -41 -133 -217v-55c0 -163 26 -212 116 -212c28 0 65 6 101 19z" />
    <glyph glyph-name="parenleft" unicode="(" horiz-adv-x="237" 
d="M214 -202h-37c-71 109 -131 269 -131 469v7c0 200 60 361 131 469h37c-77 -124 -129 -273 -129 -469v-7c0 -196 52 -344 129 -469z" />
    <glyph glyph-name="parenright" unicode=")" horiz-adv-x="237" 
d="M191 267c0 -200 -60 -360 -130 -469h-38c77 125 129 273 129 469v7c0 196 -52 345 -129 469h38c70 -108 130 -269 130 -469v-7z" />
    <glyph glyph-name="asterisk" unicode="*" horiz-adv-x="438" 
d="M402 618l-95 -31c-18 -6 -41 -12 -60 -17c13 -15 28 -33 39 -48l59 -80l-31 -23l-59 81c-11 14 -24 34 -35 52c-10 -18 -22 -37 -33 -52l-58 -80l-31 22l58 80c11 15 25 34 38 49c-19 4 -41 10 -59 16l-94 31l12 35l94 -30c18 -6 40 -14 58 -22c-2 20 -3 43 -3 61v100h38
v-100c0 -18 -1 -41 -3 -62c19 8 41 17 58 23l95 31z" />
    <glyph glyph-name="commaaccent" unicode="&#xf6c3;" horiz-adv-x="377" 
d="M218 -62l-85 -142h-37l76 142h46z" />
    <glyph glyph-name="dotlessj" unicode="&#xf6be;" horiz-adv-x="150" 
d="M109 -104c0 -65 -14 -105 -80 -105c-14 0 -35 2 -50 5v30c19 -2 32 -2 44 -2c40 0 48 19 48 72v605l-46 1v34h84v-640z" />
    <glyph glyph-name="franc" unicode="&#x20a3;" horiz-adv-x="414" 
d="M388 641h-32l-3 66h-236v-298h251v-37h-251v-135h141v-37h-141v-165l51 -1v-34h-137v34l47 1v165h-52v37h52v471l-47 1v34h357v-102z" />
    <glyph glyph-name="Gbreve" unicode="&#x11e;" horiz-adv-x="442" 
d="M391 5c-38 -7 -90 -14 -141 -14c-139 0 -210 91 -210 344v74c0 258 73 343 211 343c59 0 114 -9 140 -14v-97h-32l-3 67c-27 4 -65 7 -101 7c-122 0 -176 -70 -176 -306v-74c0 -232 54 -307 176 -307c30 0 65 1 97 5v314l-93 2v33h132v-377zM349 961
c-3 -88 -20 -160 -119 -160c-98 0 -115 72 -118 160h30c4 -82 16 -131 88 -131c73 0 85 49 88 131h31z" />
    <glyph glyph-name="gbreve" unicode="&#x11f;" horiz-adv-x="398" 
d="M363 -39c0 -94 -36 -170 -164 -170c-129 0 -164 75 -164 170c0 62 20 102 46 133c-29 12 -43 36 -43 67c0 30 16 61 41 79c-28 30 -38 78 -38 127c0 89 20 179 156 179h162v-31l-65 -2c38 -24 55 -73 55 -146c0 -87 -28 -169 -154 -169c-43 0 -71 9 -92 22
c-19 -13 -31 -36 -31 -56c0 -28 12 -45 51 -45h70c126 0 170 -41 170 -158zM325 -39c0 92 -21 124 -132 124h-79c-23 -27 -41 -59 -41 -123c0 -80 22 -137 126 -137c103 0 126 56 126 136zM311 367c0 76 -12 145 -116 145c-107 0 -116 -71 -116 -145s14 -135 116 -135
c103 0 116 63 116 135zM313 764c-3 -88 -20 -160 -119 -160c-98 0 -115 72 -118 160h30c4 -82 16 -131 88 -131c73 0 85 49 88 131h31z" />
    <glyph glyph-name="Scedilla" unicode="&#x15e;" horiz-adv-x="395" 
d="M364 181c0 -113 -64 -190 -181 -190c-59 0 -117 8 -144 13v98h32l3 -70c29 -3 67 -5 106 -5c94 0 145 56 145 154c0 84 -34 121 -117 182l-53 39c-83 61 -123 114 -123 195c0 93 52 155 175 155c56 0 108 -8 140 -13v-97h-32l-4 69c-24 2 -64 5 -101 5
c-99 0 -139 -44 -139 -119c0 -72 32 -112 107 -166l54 -39c92 -66 132 -119 132 -211zM229 -62l-103 -142h-38l96 142h45z" />
    <glyph glyph-name="scedilla" unicode="&#x15f;" horiz-adv-x="339" 
d="M305 126c0 -58 -30 -135 -149 -135c-50 0 -96 8 -119 15v85h31l3 -59c23 -4 51 -6 84 -6c90 0 111 54 111 100c0 52 -21 83 -95 130l-31 20c-73 48 -106 88 -106 148c0 72 39 122 145 122c43 0 88 -8 112 -14v-81h-31l-4 54c-21 3 -51 6 -75 6c-80 0 -109 -29 -109 -87
c0 -49 27 -77 90 -118l31 -20c82 -53 112 -91 112 -160zM201 -62l-103 -142h-38l96 142h45z" />
    <glyph glyph-name="cacute" unicode="&#x107;" horiz-adv-x="333" 
d="M304 4c-39 -9 -70 -13 -102 -13c-124 0 -160 66 -160 252v52c0 182 38 251 160 251c34 0 66 -5 102 -13v-86h-32l-3 60c-27 4 -48 4 -63 4c-93 0 -125 -40 -125 -216v-52c0 -179 31 -217 125 -217c21 0 50 2 98 9v-31zM301 760l-108 -153h-38l102 153h44z" />
    <glyph glyph-name="ccaron" unicode="&#x10d;" horiz-adv-x="333" 
d="M304 4c-39 -9 -70 -13 -102 -13c-124 0 -160 66 -160 252v52c0 182 38 251 160 251c34 0 66 -5 102 -13v-86h-32l-3 60c-27 4 -48 4 -63 4c-93 0 -125 -40 -125 -216v-52c0 -179 31 -217 125 -217c21 0 50 2 98 9v-31zM290 760h39l-110 -153h-49l-110 153h39l95 -129z
" />
    <glyph glyph-name="amacron" unicode="&#x101;" horiz-adv-x="388" 
d="M364 0h-79v33c-34 -23 -78 -42 -128 -42c-91 0 -120 56 -120 152v12c0 115 45 160 181 160h65v70c0 101 -15 126 -114 126c-18 0 -40 0 -72 -3l-3 -56h-31v82c39 6 74 12 110 12c123 0 149 -42 149 -161v-350l42 -1v-34zM283 63v220h-65c-113 0 -143 -31 -143 -128v-16
c0 -82 24 -115 89 -115c45 0 89 19 119 39zM324 670h-270v33h270v-33z" />
    <glyph glyph-name="abreve" unicode="&#x103;" horiz-adv-x="388" 
d="M364 0h-79v33c-34 -23 -78 -42 -128 -42c-91 0 -120 56 -120 152v12c0 115 45 160 181 160h65v70c0 101 -15 126 -114 126c-18 0 -40 0 -72 -3l-3 -56h-31v82c39 6 74 12 110 12c123 0 149 -42 149 -161v-350l42 -1v-34zM283 63v220h-65c-113 0 -143 -31 -143 -128v-16
c0 -82 24 -115 89 -115c45 0 89 19 119 39zM311 764c-3 -88 -20 -160 -119 -160c-98 0 -115 72 -118 160h30c4 -82 16 -131 88 -131c73 0 85 49 88 131h31z" />
    <glyph glyph-name="ccircumflex" unicode="&#x109;" horiz-adv-x="333" 
d="M304 4c-39 -9 -70 -13 -102 -13c-124 0 -160 66 -160 252v52c0 182 38 251 160 251c34 0 66 -5 102 -13v-86h-32l-3 60c-27 4 -48 4 -63 4c-93 0 -125 -40 -125 -216v-52c0 -179 31 -217 125 -217c21 0 50 2 98 9v-31zM316 607h-39l-96 129l-95 -129h-39l110 153h49z" />
    <glyph glyph-name="cdotaccent" unicode="&#x10b;" horiz-adv-x="333" 
d="M304 4c-39 -9 -70 -13 -102 -13c-124 0 -160 66 -160 252v52c0 182 38 251 160 251c34 0 66 -5 102 -13v-86h-32l-3 60c-27 4 -48 4 -63 4c-93 0 -125 -40 -125 -216v-52c0 -179 31 -217 125 -217c21 0 50 2 98 9v-31zM208 645h-39v116h39v-116z" />
    <glyph glyph-name="dcaron" unicode="&#x10f;" horiz-adv-x="453" 
d="M473 762l-51 -225h-32l42 225h41zM378 0h-81v29c-29 -18 -70 -38 -120 -38c-103 0 -136 71 -136 247v56c0 183 44 252 163 252c20 0 49 -1 93 -8v189l-50 1v34h88v-727l43 -1v-34zM297 62v443c-42 5 -75 6 -92 6c-94 0 -126 -51 -126 -217v-56c0 -160 24 -212 105 -212
c43 0 84 19 113 36z" />
    <glyph glyph-name="Dcroat" unicode="&#x110;" horiz-adv-x="492" 
d="M450 332c0 -220 -49 -338 -233 -338c-71 0 -112 6 -185 6v34l46 2v333h-47v37h47v301l-46 2v34c73 0 108 5 185 5c183 0 233 -117 233 -337v-79zM410 332v79c0 214 -48 301 -194 301c-37 0 -68 -1 -98 -4v-302h130v-37h-130v-334c26 -1 66 -4 98 -4c146 0 194 88 194 301
z" />
    <glyph glyph-name="dcroat" unicode="&#x111;" horiz-adv-x="407" 
d="M379 0h-80v29c-29 -18 -71 -38 -121 -38c-103 0 -136 71 -136 247v56c0 183 45 252 163 252c20 0 49 -1 93 -8v77h-122v33h122v79l-50 1v34h88v-114h44v-33h-44v-580l43 -1v-34zM298 62v443c-41 5 -74 6 -92 6c-94 0 -125 -51 -125 -217v-56c0 -160 24 -212 104 -212
c44 0 84 19 113 36z" />
    <glyph glyph-name="emacron" unicode="&#x113;" horiz-adv-x="390" 
d="M353 258h-273v-20c0 -155 29 -212 135 -212c42 0 94 6 129 12v-32c-26 -6 -77 -15 -131 -15c-133 0 -172 74 -172 251v50c0 164 35 254 156 254s156 -88 156 -256v-32zM314 291v12c0 136 -22 208 -117 208c-98 0 -117 -76 -117 -209v-11h234zM335 670h-270v33h270v-33z
" />
    <glyph glyph-name="ebreve" unicode="&#x115;" horiz-adv-x="390" 
d="M353 258h-273v-20c0 -155 29 -212 135 -212c42 0 94 6 129 12v-32c-26 -6 -77 -15 -131 -15c-133 0 -172 74 -172 251v50c0 164 35 254 156 254s156 -88 156 -256v-32zM314 291v12c0 136 -22 208 -117 208c-98 0 -117 -76 -117 -209v-11h234zM319 764
c-3 -88 -20 -160 -119 -160c-98 0 -115 72 -118 160h30c4 -82 16 -131 88 -131c73 0 85 49 88 131h31z" />
    <glyph glyph-name="edotaccent" unicode="&#x117;" horiz-adv-x="390" 
d="M353 258h-273v-20c0 -155 29 -212 135 -212c42 0 94 6 129 12v-32c-26 -6 -77 -15 -131 -15c-133 0 -172 74 -172 251v50c0 164 35 254 156 254s156 -88 156 -256v-32zM314 291v12c0 136 -22 208 -117 208c-98 0 -117 -76 -117 -209v-11h234zM218 645h-39v116h39v-116z
" />
    <glyph glyph-name="eogonek" unicode="&#x119;" horiz-adv-x="390" 
d="M353 258h-273v-20c0 -155 29 -212 135 -212c42 0 94 6 129 12v-32c-90 -50 -132 -88 -132 -135c0 -36 18 -57 69 -57c24 0 49 3 63 6v-26c-16 -4 -41 -8 -67 -8c-74 0 -100 36 -100 85c0 47 40 88 96 123c-19 -2 -39 -3 -60 -3c-133 0 -172 74 -172 251v50
c0 164 35 254 156 254s156 -88 156 -256v-32zM314 291v12c0 136 -22 208 -117 208c-98 0 -117 -76 -117 -209v-11h234z" />
    <glyph glyph-name="ecaron" unicode="&#x11b;" horiz-adv-x="390" 
d="M353 258h-273v-20c0 -155 29 -212 135 -212c42 0 94 6 129 12v-32c-26 -6 -77 -15 -131 -15c-133 0 -172 74 -172 251v50c0 164 35 254 156 254s156 -88 156 -256v-32zM314 291v12c0 136 -22 208 -117 208c-98 0 -117 -76 -117 -209v-11h234zM300 760h39l-110 -153h-49
l-110 153h39l95 -129z" />
    <glyph glyph-name="Gcircumflex" unicode="&#x11c;" horiz-adv-x="442" 
d="M391 5c-38 -7 -90 -14 -141 -14c-139 0 -210 91 -210 344v74c0 258 73 343 211 343c59 0 114 -9 140 -14v-97h-32l-3 67c-27 4 -65 7 -101 7c-122 0 -176 -70 -176 -306v-74c0 -232 54 -307 176 -307c30 0 65 1 97 5v314l-93 2v33h132v-377zM364 802h-39l-96 129
l-95 -129h-39l110 153h49z" />
    <glyph glyph-name="gcircumflex" unicode="&#x11d;" horiz-adv-x="398" 
d="M363 -39c0 -94 -36 -170 -164 -170c-129 0 -164 75 -164 170c0 62 20 102 46 133c-29 12 -43 36 -43 67c0 30 16 61 41 79c-28 30 -38 78 -38 127c0 89 20 179 156 179h162v-31l-65 -2c38 -24 55 -73 55 -146c0 -87 -28 -169 -154 -169c-43 0 -71 9 -92 22
c-19 -13 -31 -36 -31 -56c0 -28 12 -45 51 -45h70c126 0 170 -41 170 -158zM325 -39c0 92 -21 124 -132 124h-79c-23 -27 -41 -59 -41 -123c0 -80 22 -137 126 -137c103 0 126 56 126 136zM311 367c0 76 -12 145 -116 145c-107 0 -116 -71 -116 -145s14 -135 116 -135
c103 0 116 63 116 135zM328 607h-39l-96 129l-95 -129h-39l110 153h49z" />
    <glyph glyph-name="Gdotaccent" unicode="&#x120;" horiz-adv-x="442" 
d="M391 5c-38 -7 -90 -14 -141 -14c-139 0 -210 91 -210 344v74c0 258 73 343 211 343c59 0 114 -9 140 -14v-97h-32l-3 67c-27 4 -65 7 -101 7c-122 0 -176 -70 -176 -306v-74c0 -232 54 -307 176 -307c30 0 65 1 97 5v314l-93 2v33h132v-377zM253 812h-39v116h39v-116z
" />
    <glyph glyph-name="gdotaccent" unicode="&#x121;" horiz-adv-x="398" 
d="M363 -39c0 -94 -36 -170 -164 -170c-129 0 -164 75 -164 170c0 62 20 102 46 133c-29 12 -43 36 -43 67c0 30 16 61 41 79c-28 30 -38 78 -38 127c0 89 20 179 156 179h162v-31l-65 -2c38 -24 55 -73 55 -146c0 -87 -28 -169 -154 -169c-43 0 -71 9 -92 22
c-19 -13 -31 -36 -31 -56c0 -28 12 -45 51 -45h70c126 0 170 -41 170 -158zM325 -39c0 92 -21 124 -132 124h-79c-23 -27 -41 -59 -41 -123c0 -80 22 -137 126 -137c103 0 126 56 126 136zM311 367c0 76 -12 145 -116 145c-107 0 -116 -71 -116 -145s14 -135 116 -135
c103 0 116 63 116 135zM213 645h-39v116h39v-116z" />
    <glyph glyph-name="Gcommaaccent" unicode="&#x122;" horiz-adv-x="442" 
d="M391 5c-38 -7 -90 -14 -141 -14c-139 0 -210 91 -210 344v74c0 258 73 343 211 343c59 0 114 -9 140 -14v-97h-32l-3 67c-27 4 -65 7 -101 7c-122 0 -176 -70 -176 -306v-74c0 -232 54 -307 176 -307c30 0 65 1 97 5v314l-93 2v33h132v-377zM240 -62l-85 -142h-37l76 142
h46z" />
    <glyph glyph-name="gcommaaccent" unicode="&#x123;" horiz-adv-x="398" 
d="M363 -39c0 -94 -36 -170 -164 -170c-129 0 -164 75 -164 170c0 62 20 102 46 133c-29 12 -43 36 -43 67c0 30 16 61 41 79c-28 30 -38 78 -38 127c0 89 20 179 156 179h162v-31l-65 -2c38 -24 55 -73 55 -146c0 -87 -28 -169 -154 -169c-43 0 -71 9 -92 22
c-19 -13 -31 -36 -31 -56c0 -28 12 -45 51 -45h70c126 0 170 -41 170 -158zM325 -39c0 92 -21 124 -132 124h-79c-23 -27 -41 -59 -41 -123c0 -80 22 -137 126 -137c103 0 126 56 126 136zM311 367c0 76 -12 145 -116 145c-107 0 -116 -71 -116 -145s14 -135 116 -135
c103 0 116 63 116 135zM302 749l-78 -142h-44l84 142h38z" />
    <glyph glyph-name="Hcircumflex" unicode="&#x124;" horiz-adv-x="548" 
d="M167 709l-48 -1v-291h310v291l-48 1v34h134v-34l-47 -1v-673l47 -1v-34h-134v34l48 1v345h-310v-345l48 -1v-34h-133v34l46 1v673l-46 1v34h133v-34zM408 802h-39l-96 129l-95 -129h-39l110 153h49z" />
    <glyph glyph-name="hcircumflex" unicode="&#x125;" horiz-adv-x="444" 
d="M413 0h-82v361c0 114 -20 150 -88 150c-46 0 -93 -20 -130 -45v-431l43 -1v-34h-124v34l43 1v692l-43 1v34h81v-261c34 22 81 45 136 45c97 0 121 -63 121 -183v-328l43 -1v-34zM357 785h-39l-96 129l-95 -129h-39l110 153h49z" />
    <glyph glyph-name="Hbar" unicode="&#x126;" horiz-adv-x="548" 
d="M167 709l-48 -1v-124h310v124l-48 1v34h134v-34l-47 -1v-124h47v-36h-47v-513l47 -1v-34h-134v34l48 1v345h-310v-345l48 -1v-34h-133v34l46 1v513h-46v36h46v124l-46 1v34h133v-34zM119 417h310v131h-310v-131z" />
    <glyph glyph-name="hbar" unicode="&#x127;" horiz-adv-x="444" 
d="M413 0h-82v361c0 114 -20 150 -88 150c-46 0 -93 -20 -130 -45v-431l43 -1v-34h-124v34l43 1v580h-44v33h44v79l-43 1v34h81v-114h135v-33h-135v-114c34 22 81 45 136 45c97 0 121 -63 121 -183v-328l43 -1v-34z" />
    <glyph glyph-name="Itilde" unicode="&#x128;" horiz-adv-x="203" 
d="M167 0h-132v34l47 1v673l-47 1v34h132v-34l-46 -1v-673l46 -1v-34zM250 906c0 -68 -14 -109 -68 -109c-35 0 -57 22 -83 58l-20 28c-22 31 -35 46 -58 46c-34 0 -38 -31 -38 -78v-50h-31v50c0 67 16 108 69 108c34 0 54 -20 80 -56l20 -28c22 -31 38 -48 61 -48
c33 0 38 31 38 79v49h30v-49z" />
    <glyph glyph-name="itilde" unicode="&#x129;" horiz-adv-x="190" 
d="M243 714c0 -68 -14 -109 -68 -109c-35 0 -57 22 -83 58l-20 28c-22 31 -35 46 -58 46c-34 0 -38 -31 -38 -78v-50h-31v50c0 67 16 108 69 108c34 0 54 -20 80 -56l20 -28c22 -31 38 -48 61 -48c33 0 38 31 38 79v49h30v-49zM157 0h-124v34l43 1v466l-43 1v34h81v-501
l43 -1v-34z" />
    <glyph glyph-name="Imacron" unicode="&#x12a;" horiz-adv-x="203" 
d="M167 0h-132v34l47 1v673l-47 1v34h132v-34l-46 -1v-673l46 -1v-34zM235 853h-270v33h270v-33z" />
    <glyph glyph-name="imacron" unicode="&#x12b;" horiz-adv-x="190" 
d="M230 670h-270v33h270v-33zM157 0h-124v34l43 1v466l-43 1v34h81v-501l43 -1v-34z" />
    <glyph glyph-name="Ibreve" unicode="&#x12c;" horiz-adv-x="203" 
d="M167 0h-132v34l47 1v673l-47 1v34h132v-34l-46 -1v-673l46 -1v-34zM219 960c-3 -88 -20 -160 -119 -160c-98 0 -115 72 -118 160h30c4 -82 16 -131 88 -131c73 0 85 49 88 131h31z" />
    <glyph glyph-name="ibreve" unicode="&#x12d;" horiz-adv-x="190" 
d="M210 764c-3 -88 -20 -160 -119 -160c-98 0 -115 72 -118 160h30c4 -82 16 -131 88 -131c73 0 85 49 88 131h31zM157 0h-124v34l43 1v466l-43 1v34h81v-501l43 -1v-34z" />
    <glyph glyph-name="Iogonek" unicode="&#x12e;" horiz-adv-x="203" 
d="M177 -206c-16 -4 -41 -8 -67 -8c-74 0 -100 36 -100 85c0 51 38 93 102 129h-77v34l47 1v673l-47 1v34h132v-34l-46 -1v-673l46 -1v-34c-90 -50 -122 -82 -122 -129c0 -36 18 -57 69 -57c24 0 49 3 63 6v-26z" />
    <glyph glyph-name="iogonek" unicode="&#x12f;" horiz-adv-x="190" 
d="M157 0c-90 -50 -110 -82 -110 -129c0 -36 18 -57 69 -57c24 0 49 3 63 6v-26c-16 -4 -41 -8 -67 -8c-74 0 -100 36 -100 85c0 51 27 93 90 129h-69v34l43 1v466l-43 1v34h81v-501l43 -1v-34zM115 644h-39v118h39v-118z" />
    <glyph glyph-name="Idotaccent" unicode="&#x130;" horiz-adv-x="203" 
d="M167 0h-132v34l47 1v673l-47 1v34h132v-34l-46 -1v-673l46 -1v-34zM121 820h-39v116h39v-116z" />
    <glyph glyph-name="IJ" unicode="&#x132;" horiz-adv-x="392" 
d="M357 709l-46 -1v-784c0 -72 -14 -118 -92 -118c-18 0 -44 2 -58 5v30h54c53 0 57 29 57 83v784l-45 1v34h130v-34zM166 0h-131v34l46 1v673l-46 1v34h131v-34l-46 -1v-673l46 -1v-34z" />
    <glyph glyph-name="ij" unicode="&#x133;" horiz-adv-x="359" 
d="M161 0h-124v34l43 1v466l-43 1v34h81v-501l43 -1v-34zM119 644h-39v118h39v-118zM283 -104c0 -68 -14 -105 -82 -105c-12 0 -33 1 -48 4v30c19 -1 32 -1 44 -1c40 0 48 18 48 72v605l-43 1v34h81v-640zM283 644h-39v118h39v-118z" />
    <glyph glyph-name="Jcircumflex" unicode="&#x134;" horiz-adv-x="199" 
d="M166 709l-47 -1v-783c0 -72 -14 -118 -92 -118c-18 0 -44 3 -58 5v30h54c53 0 57 29 57 83v783l-46 1v34h132v-34zM234 803h-39l-96 129l-95 -129h-39l110 153h49z" />
    <glyph glyph-name="jcircumflex" unicode="&#x135;" horiz-adv-x="190" 
d="M114 -104c0 -65 -14 -105 -80 -105c-14 0 -35 2 -50 5v30c19 -2 32 -2 44 -2c40 0 48 19 48 72v605l-46 1v34h84v-640zM226 607h-39l-96 129l-95 -129h-39l110 153h49z" />
    <glyph glyph-name="Kcommaaccent" unicode="&#x136;" horiz-adv-x="468" 
d="M443 0h-72l-251 369v-334l48 -1v-34h-133v34l46 1v673l-45 1v34h132v-34l-48 -1v-322l252 357h70v-34l-46 -1l-234 -330l236 -343l45 -1v-34zM270 -62l-85 -142h-37l76 142h46z" />
    <glyph glyph-name="kcommaaccent" unicode="&#x137;" horiz-adv-x="380" 
d="M156 0h-125v34l43 1v692l-43 1v34h82v-478l176 252h71v-34l-47 -1l-159 -223l162 -243l45 -1v-34h-70l-178 271v-236l43 -1v-34zM180 -62l-85 -142h-37l76 142h46z" />
    <glyph glyph-name="kgreenlandic" unicode="&#x138;" horiz-adv-x="380" 
d="M155 0h-125v34l43 1v466l-43 1v34h82v-252l176 252h71v-34l-47 -1l-159 -223l162 -243l45 -1v-34h-70l-178 271v-236l43 -1v-34z" />
    <glyph glyph-name="lacute" unicode="&#x13a;" horiz-adv-x="190" 
d="M157 0h-124v34l43 1v692l-43 1v34h81v-727l43 -1v-34zM209 937l-108 -153h-38l102 153h44z" />
    <glyph glyph-name="lcommaaccent" unicode="&#x13c;" horiz-adv-x="190" 
d="M157 0h-124v34l43 1v692l-43 1v34h81v-727l43 -1v-34zM75 -62l-85 -142h-37l76 142h46z" />
    <glyph glyph-name="Lcaron" unicode="&#x13d;" horiz-adv-x="410" 
d="M380 0h-346v34l47 1v673l-47 1v34h135v-34l-49 -1v-672h225l3 70h32v-106zM351 762l-56 -225h-35l48 225h43z" />
    <glyph glyph-name="lcaron" unicode="&#x13e;" horiz-adv-x="220" 
d="M240 762l-50 -225h-34l44 225h40zM157 0h-124v34l43 1v692l-43 1v34h81v-727l43 -1v-34z" />
    <glyph glyph-name="Ldot" unicode="&#x13f;" horiz-adv-x="410" 
d="M286 341h-39v117h39v-117zM380 0h-346v34l47 1v673l-47 1v34h135v-34l-49 -1v-672h225l3 70h32v-106z" />
    <glyph glyph-name="ldot" unicode="&#x140;" horiz-adv-x="216" 
d="M180 336v116h38v-116h-38zM157 0h-124v34l43 1v692l-43 1v34h81v-727l43 -1v-34z" />
    <glyph glyph-name="Nacute" unicode="&#x143;" horiz-adv-x="541" 
d="M508 709l-46 -1v-709h-59l-284 703h-2v-667l47 -1v-34h-131v34l46 1v673l-46 1v34h105l286 -695h1v660l-48 1v34h131v-34zM387 955l-108 -153h-38l102 153h44z" />
    <glyph glyph-name="nacute" unicode="&#x144;" horiz-adv-x="440" 
d="M410 0h-81v363c0 113 -19 149 -87 149c-42 0 -85 -17 -131 -46v-431l42 -1v-34h-123v34l43 1v466l-43 1v34h81v-37c40 25 84 47 136 47c99 0 120 -59 120 -183v-328l43 -1v-34zM361 760l-89 -188h-38l83 188h44z" />
    <glyph glyph-name="Ncommaaccent" unicode="&#x145;" horiz-adv-x="541" 
d="M508 709l-46 -1v-709h-59l-284 703h-2v-667l47 -1v-34h-131v34l46 1v673l-46 1v34h105l286 -695h1v660l-48 1v34h131v-34zM256 -62l-85 -142h-37l76 142h46z" />
    <glyph glyph-name="ncommaaccent" unicode="&#x146;" horiz-adv-x="440" 
d="M410 0h-81v363c0 113 -19 149 -87 149c-42 0 -85 -17 -131 -46v-431l43 -1v-34h-124v34l43 1v466l-43 1v34h81v-37c40 25 84 47 136 47c99 0 121 -59 121 -183v-328l42 -1v-34zM206 -62l-85 -142h-37l76 142h46z" />
    <glyph glyph-name="Ncaron" unicode="&#x147;" horiz-adv-x="541" 
d="M508 709l-46 -1v-709h-59l-284 703h-2v-667l47 -1v-34h-131v34l46 1v673l-46 1v34h105l286 -695h1v660l-48 1v34h131v-34zM372 955h39l-110 -153h-49l-110 153h39l95 -129z" />
    <glyph glyph-name="ncaron" unicode="&#x148;" horiz-adv-x="440" 
d="M410 0h-81v363c0 113 -19 149 -87 149c-42 0 -85 -17 -131 -46v-431l43 -1v-34h-124v34l43 1v466l-43 1v34h81v-37c40 25 84 47 136 47c99 0 121 -59 121 -183v-328l42 -1v-34zM317 760h39l-110 -153h-49l-110 153h39l95 -129z" />
    <glyph glyph-name="napostrophe" unicode="&#x149;" horiz-adv-x="492" 
d="M463 0h-81v363c0 113 -19 149 -87 149c-42 0 -85 -17 -131 -46v-431l43 -1v-34h-124v34l43 1v466l-43 1v34h81v-37c40 25 84 47 136 47c99 0 121 -59 121 -183v-328l42 -1v-34zM91 762l-51 -225h-33l43 225h41z" />
    <glyph glyph-name="Eng" unicode="&#x14a;" horiz-adv-x="541" 
d="M508 709l-46 -1v-783c0 -72 -8 -118 -92 -118c-18 0 -44 3 -58 5v29h54c57 0 59 30 59 84v74h-22l-284 703h-2v-667l47 -1v-34h-131v34l46 1v673l-46 1v34h105l286 -695h1v660l-48 1v34h131v-34z" />
    <glyph glyph-name="eng" unicode="&#x14b;" horiz-adv-x="432" 
d="M367 -104c0 -65 -14 -105 -79 -105c-15 0 -36 2 -51 5v30c19 -2 33 -2 44 -2c40 0 48 19 48 72v467c0 113 -19 149 -87 149c-42 0 -85 -17 -131 -46v-431l42 -1v-34h-123v34l43 1v466l-43 1v34h81v-37c40 25 85 47 136 47c99 0 120 -59 120 -183v-467z" />
    <glyph glyph-name="Omacron" unicode="&#x14c;" horiz-adv-x="482" 
d="M442 336c0 -241 -54 -345 -201 -345c-146 0 -201 104 -201 345v71c0 241 55 345 201 345c147 0 201 -104 201 -345v-71zM403 336v71c0 233 -49 308 -162 308c-112 0 -162 -75 -162 -308v-71c0 -233 50 -309 162 -309c113 0 162 76 162 309zM377 825h-270v33h270v-33z" />
    <glyph glyph-name="omacron" unicode="&#x14d;" horiz-adv-x="400" 
d="M359 244c-1 -175 -40 -253 -159 -253s-158 78 -158 253v49c0 175 39 253 158 253s158 -78 159 -253v-49zM320 244v49c0 160 -29 218 -120 218s-120 -57 -120 -218v-49c0 -160 29 -218 120 -218s120 58 120 218zM333 670h-270v33h270v-33z" />
    <glyph glyph-name="Obreve" unicode="&#x14e;" horiz-adv-x="482" 
d="M442 336c0 -241 -54 -345 -201 -345c-146 0 -201 104 -201 345v71c0 241 55 345 201 345c147 0 201 -104 201 -345v-71zM403 336v71c0 233 -49 308 -162 308c-112 0 -162 -75 -162 -308v-71c0 -233 50 -309 162 -309c113 0 162 76 162 309zM359 961
c-3 -88 -20 -160 -119 -160c-98 0 -115 72 -118 160h30c4 -82 16 -131 88 -131c73 0 85 49 88 131h31z" />
    <glyph glyph-name="obreve" unicode="&#x14f;" horiz-adv-x="400" 
d="M359 244c-1 -175 -40 -253 -159 -253s-158 78 -158 253v49c0 175 39 253 158 253s158 -78 159 -253v-49zM320 244v49c0 160 -29 218 -120 218s-120 -57 -120 -218v-49c0 -160 29 -218 120 -218s120 58 120 218zM318 764c-3 -88 -20 -160 -119 -160
c-98 0 -115 72 -118 160h30c4 -82 16 -131 88 -131c73 0 85 49 88 131h31z" />
    <glyph glyph-name="Ohungarumlaut" unicode="&#x150;" horiz-adv-x="482" 
d="M442 336c0 -241 -54 -345 -201 -345c-146 0 -201 104 -201 345v71c0 241 55 345 201 345c147 0 201 -104 201 -345v-71zM403 336v71c0 233 -49 308 -162 308c-112 0 -162 -75 -162 -308v-71c0 -233 50 -309 162 -309c113 0 162 76 162 309zM435 948l-108 -153h-38
l102 153h44zM286 948h-44l-102 -153h38z" />
    <glyph glyph-name="ohungarumlaut" unicode="&#x151;" horiz-adv-x="400" 
d="M359 244c-1 -175 -40 -253 -159 -253s-158 78 -158 253v49c0 175 39 253 158 253s158 -78 159 -253v-49zM320 244v49c0 160 -29 218 -120 218s-120 -57 -120 -218v-49c0 -160 29 -218 120 -218s120 58 120 218zM387 760l-108 -153h-38l102 153h44zM238 760h-44l-102 -153
h38z" />
    <glyph glyph-name="Racute" unicode="&#x154;" horiz-adv-x="477" 
d="M460 0h-72l-140 320c-16 -1 -33 -1 -45 -1c-29 0 -65 1 -86 2v-286l48 -1v-34h-133v34l46 1v673l-46 1v34c72 0 108 5 170 5c147 0 207 -62 207 -204v-13c0 -118 -30 -179 -121 -203l129 -293l43 -1v-34zM370 531v13c0 120 -42 168 -168 168c-26 0 -58 -2 -85 -4v-351
c24 -1 57 -2 86 -2c130 0 167 55 167 176zM345 955l-108 -153h-38l102 153h44z" />
    <glyph glyph-name="racute" unicode="&#x155;" horiz-adv-x="286" 
d="M271 510c-33 0 -101 -6 -158 -45v-430l48 -1v-34h-129v34l42 1v466l-42 1v34h80v-39c59 44 126 49 159 49v-36zM269 760l-108 -153h-38l102 153h44z" />
    <glyph glyph-name="Rcommaaccent" unicode="&#x156;" horiz-adv-x="477" 
d="M460 0h-72l-140 320c-16 -1 -33 -1 -45 -1c-29 0 -65 1 -86 2v-286l48 -1v-34h-133v34l46 1v673l-46 1v34c72 0 108 5 170 5c147 0 207 -62 207 -204v-13c0 -118 -30 -179 -121 -203l129 -293l43 -1v-34zM370 531v13c0 120 -42 168 -168 168c-26 0 -58 -2 -85 -4v-351
c24 -1 57 -2 86 -2c130 0 167 55 167 176zM227 -62l-85 -142h-37l76 142h46z" />
    <glyph glyph-name="rcommaaccent" unicode="&#x157;" horiz-adv-x="286" 
d="M271 510c-33 0 -101 -6 -158 -45v-430l48 -1v-34h-129v34l42 1v466l-42 1v34h80v-39c59 44 126 49 159 49v-36zM128 -62l-85 -142h-37l76 142h46z" />
    <glyph glyph-name="Rcaron" unicode="&#x158;" horiz-adv-x="477" 
d="M460 0h-72l-140 320c-16 -1 -33 -1 -45 -1c-29 0 -65 1 -86 2v-286l48 -1v-34h-133v34l46 1v673l-46 1v34c72 0 108 5 170 5c147 0 207 -62 207 -204v-13c0 -118 -30 -179 -121 -203l129 -293l43 -1v-34zM370 531v13c0 120 -42 168 -168 168c-26 0 -58 -2 -85 -4v-351
c24 -1 57 -2 86 -2c130 0 167 55 167 176zM335 955h39l-110 -153h-49l-110 153h39l95 -129z" />
    <glyph glyph-name="rcaron" unicode="&#x159;" horiz-adv-x="286" 
d="M271 510c-33 0 -101 -6 -158 -45v-430l48 -1v-34h-129v34l42 1v466l-42 1v34h80v-39c59 44 126 49 159 49v-36zM252 760h39l-110 -153h-49l-110 153h39l95 -129z" />
    <glyph glyph-name="Sacute" unicode="&#x15a;" horiz-adv-x="395" 
d="M364 181c0 -113 -64 -190 -181 -190c-59 0 -117 8 -144 13v98h32l3 -70c29 -3 67 -5 106 -5c94 0 145 56 145 154c0 84 -34 121 -117 182l-53 39c-83 61 -123 114 -123 195c0 93 52 155 175 155c56 0 108 -8 140 -13v-97h-32l-4 69c-24 2 -64 5 -101 5
c-99 0 -139 -44 -139 -119c0 -72 32 -112 107 -166l54 -39c92 -66 132 -119 132 -211zM308 955l-108 -153h-38l102 153h44z" />
    <glyph glyph-name="sacute" unicode="&#x15b;" horiz-adv-x="339" 
d="M305 126c0 -58 -30 -135 -149 -135c-50 0 -96 8 -119 15v85h31l3 -59c23 -4 51 -6 84 -6c90 0 111 54 111 100c0 52 -21 83 -95 130l-31 20c-73 48 -106 88 -106 148c0 72 39 122 145 122c43 0 88 -8 112 -14v-81h-31l-4 54c-21 3 -51 6 -75 6c-80 0 -109 -29 -109 -87
c0 -49 27 -77 90 -118l31 -20c82 -53 112 -91 112 -160zM296 760l-108 -153h-38l102 153h44z" />
    <glyph glyph-name="Scircumflex" unicode="&#x15c;" horiz-adv-x="395" 
d="M364 181c0 -113 -64 -190 -181 -190c-59 0 -117 8 -144 13v98h32l3 -70c29 -3 67 -5 106 -5c94 0 145 56 145 154c0 84 -34 121 -117 182l-53 39c-83 61 -123 114 -123 195c0 93 52 155 175 155c56 0 108 -8 140 -13v-97h-32l-4 69c-24 2 -64 5 -101 5
c-99 0 -139 -44 -139 -119c0 -72 32 -112 107 -166l54 -39c92 -66 132 -119 132 -211zM327 802h-39l-96 129l-95 -129h-39l110 153h49z" />
    <glyph glyph-name="scircumflex" unicode="&#x15d;" horiz-adv-x="339" 
d="M305 126c0 -58 -30 -135 -149 -135c-50 0 -96 8 -119 15v85h31l3 -59c23 -4 51 -6 84 -6c90 0 111 54 111 100c0 52 -21 83 -95 130l-31 20c-73 48 -106 88 -106 148c0 72 39 122 145 122c43 0 88 -8 112 -14v-81h-31l-4 54c-21 3 -51 6 -75 6c-80 0 -109 -29 -109 -87
c0 -49 27 -77 90 -118l31 -20c82 -53 112 -91 112 -160zM305 607h-39l-96 129l-95 -129h-39l110 153h49z" />
    <glyph glyph-name="Tcommaaccent" unicode="&#x162;" horiz-adv-x="454" 
d="M429 642h-31l-3 65h-148v-672l55 -2v-33h-149v33l55 2v672h-147l-3 -65h-32v101h403v-101zM225 -62l-85 -142h-37l76 142h46z" />
    <glyph glyph-name="tcommaaccent" unicode="&#x163;" horiz-adv-x="291" 
d="M265 -2c-21 -4 -49 -7 -69 -7c-65 0 -82 32 -82 103v408l-91 3v31h91v137h38v-137h114v-34h-114v-405c0 -56 7 -73 50 -73c17 0 41 2 63 4v-30zM218 -62l-85 -142h-37l76 142h46z" />
    <glyph glyph-name="Tcaron" unicode="&#x164;" horiz-adv-x="454" 
d="M428 642h-31l-3 65h-148v-672l55 -2v-33h-149v33l55 2v672h-147l-3 -65h-32v101h403v-101zM330 955h39l-110 -153h-49l-110 153h39l95 -129z" />
    <glyph glyph-name="tcaron" unicode="&#x165;" horiz-adv-x="291" 
d="M266 -2c-21 -4 -50 -7 -70 -7c-65 0 -82 32 -82 103v408l-90 3v31h90v137h39v-137h114v-34h-114v-405c0 -56 7 -73 50 -73c17 0 41 2 63 4v-30zM278 767l-45 -186h-32l36 186h41z" />
    <glyph glyph-name="Tbar" unicode="&#x166;" horiz-adv-x="454" 
d="M423 478h-176v-443l55 -2v-33h-149v33l55 2v443h-175v35h175v194h-147l-3 -65h-32v101h403v-101h-31l-4 65h-147v-194h176v-35z" />
    <glyph glyph-name="tbar" unicode="&#x167;" horiz-adv-x="291" 
d="M267 369h-115v-272c0 -56 7 -73 50 -73c15 0 41 2 63 4v-29c-21 -5 -49 -8 -69 -8c-65 0 -82 32 -82 103v275h-91v34h91v99h-91v34h91v137h38v-137h115v-34h-115v-99h115v-34z" />
    <glyph glyph-name="Utilde" unicode="&#x168;" horiz-adv-x="535" 
d="M502 709l-49 -1v-424c0 -182 -35 -292 -185 -292s-186 110 -186 292v424l-48 1v34h135v-34l-48 -1v-419c0 -178 26 -261 147 -261s146 83 146 261v419l-48 1v34h136v-34zM419 907c0 -68 -14 -109 -68 -109c-35 0 -57 22 -83 58l-20 28c-22 31 -35 46 -58 46
c-34 0 -38 -31 -38 -78v-50h-31v50c0 67 16 108 69 108c34 0 54 -20 80 -56l20 -28c22 -31 38 -48 61 -48c33 0 38 31 38 79v49h30v-49z" />
    <glyph glyph-name="Umacron" unicode="&#x16a;" horiz-adv-x="535" 
d="M502 709l-49 -1v-424c0 -182 -35 -292 -185 -292s-186 110 -186 292v424l-48 1v34h135v-34l-48 -1v-419c0 -178 26 -261 147 -261s146 83 146 261v419l-48 1v34h136v-34zM408 836h-270v33h270v-33z" />
    <glyph glyph-name="Ubreve" unicode="&#x16c;" horiz-adv-x="535" 
d="M502 709l-49 -1v-424c0 -182 -35 -292 -185 -292s-186 110 -186 292v424l-48 1v34h135v-34l-48 -1v-419c0 -178 26 -261 147 -261s146 83 146 261v419l-48 1v34h136v-34zM387 954c-3 -88 -20 -160 -119 -160c-98 0 -115 72 -118 160h30c4 -82 16 -131 88 -131
c73 0 85 49 88 131h31z" />
    <glyph glyph-name="Uring" unicode="&#x16e;" horiz-adv-x="535" 
d="M502 709l-49 -1v-424c0 -182 -35 -292 -185 -292s-186 110 -186 292v424l-48 1v34h135v-34l-48 -1v-419c0 -178 26 -261 147 -261s146 83 146 261v419l-48 1v34h136v-34zM367 895c0 -72 -39 -106 -97 -106s-99 34 -99 106s41 106 99 106s97 -35 97 -106zM338 895
c0 60 -31 79 -68 79c-38 0 -68 -19 -68 -79s30 -79 68 -79c37 0 68 20 68 79z" />
    <glyph glyph-name="Uhungarumlaut" unicode="&#x170;" horiz-adv-x="535" 
d="M502 709l-49 -1v-424c0 -182 -35 -292 -185 -292s-186 110 -186 292v424l-48 1v34h135v-34l-48 -1v-419c0 -178 26 -261 147 -261s146 83 146 261v419l-48 1v34h136v-34zM463 953l-108 -153h-38l102 153h44zM314 953h-44l-102 -153h38z" />
    <glyph glyph-name="uogonek" unicode="&#x173;" horiz-adv-x="441" 
d="M411 0h-82v39c-40 -27 -83 -48 -137 -48c-98 0 -119 66 -119 183v327l-43 2v33h82v-362c0 -113 18 -149 88 -149c44 0 85 18 129 47v429l-42 2v33h81v-501l43 -1v-34zM383 -206c-16 -4 -41 -8 -67 -8c-74 0 -100 36 -100 85c0 52 50 93 117 130h50
c-90 -50 -132 -83 -132 -130c0 -36 18 -57 69 -57c24 0 49 3 63 6v-26z" />
    <glyph glyph-name="Wcircumflex" unicode="&#x174;" horiz-adv-x="702" 
d="M681 709l-45 -1l-108 -708h-61l-115 527h-2l-115 -527h-61l-108 708l-46 1v34h133v-33l-48 -2l100 -675h2l113 525h62l113 -525h2l99 675l-47 2v33h132v-34zM486 800h-39l-96 129l-95 -129h-39l110 153h49z" />
    <glyph glyph-name="wcircumflex" unicode="&#x175;" horiz-adv-x="656" 
d="M633 503l-41 -2l-85 -501h-53c-107 386 -115 418 -123 448h-2c-7 -30 -15 -62 -122 -448h-54l-85 501l-40 2v33h120v-33l-42 -1c65 -396 69 -433 75 -468h3c8 36 16 72 121 451h52c104 -379 113 -414 121 -451h3c5 41 10 71 73 468l-41 1v33h120v-33zM463 607h-39
l-96 129l-95 -129h-39l110 153h49z" />
    <glyph glyph-name="Ycircumflex" unicode="&#x176;" horiz-adv-x="467" 
d="M446 709l-44 -1l-149 -403v-269l53 -2v-34h-146v34l54 2v269l-150 403l-44 1v34h127v-33l-42 -1l128 -355h1l127 355l-41 1v33h126v-34zM369 800h-39l-96 129l-95 -129h-39l110 153h49z" />
    <glyph glyph-name="ycircumflex" unicode="&#x177;" horiz-adv-x="440" 
d="M419 503l-45 -2l-135 -538c-29 -116 -52 -172 -142 -172c-20 0 -44 2 -63 5v32c28 -3 46 -3 61 -3c61 0 84 32 106 141l7 34l-140 501l-45 2v33h127v-33l-42 -1l118 -442h1l107 442l-41 1v33h126v-33zM359 607h-39l-96 129l-95 -129h-39l110 153h49z" />
    <glyph glyph-name="Zacute" unicode="&#x179;" horiz-adv-x="443" 
d="M409 0h-375v43l323 664h-274l-3 -65h-32v101h350v-42l-323 -665h299l4 66h31v-102zM346 953l-108 -153h-38l102 153h44z" />
    <glyph glyph-name="zacute" unicode="&#x17a;" horiz-adv-x="349" 
d="M316 0h-283v44l241 458h-196l-3 -51h-31v85h271v-41l-242 -461h208l3 56h32v-90zM283 760l-108 -153h-38l102 153h44z" />
    <glyph glyph-name="Zdotaccent" unicode="&#x17b;" horiz-adv-x="443" 
d="M409 0h-375v43l323 664h-274l-3 -65h-32v101h350v-42l-323 -665h299l4 66h31v-102zM250 816h-39v116h39v-116z" />
    <glyph glyph-name="zdotaccent" unicode="&#x17c;" horiz-adv-x="349" 
d="M316 0h-283v44l241 458h-196l-3 -51h-31v85h271v-41l-242 -461h208l3 56h32v-90zM196 645h-39v116h39v-116z" />
    <glyph glyph-name="longs" unicode="&#x17f;" horiz-adv-x="257" 
d="M239 732c-17 1 -45 3 -60 3c-60 0 -68 -25 -68 -101v-599l48 -1v-34h-135v34l48 1v599c0 86 14 134 101 134c20 0 48 -4 66 -8v-28z" />
    <glyph glyph-name="aringacute" unicode="&#x1fb;" horiz-adv-x="388" 
d="M364 0h-79v33c-34 -23 -78 -42 -128 -42c-91 0 -120 56 -120 152v12c0 115 45 160 181 160h65v70c0 101 -15 126 -114 126c-18 0 -40 0 -72 -3l-3 -56h-31v82c39 6 74 12 110 12c123 0 149 -42 149 -161v-350l42 -1v-34zM283 63v220h-65c-113 0 -143 -31 -143 -128v-16
c0 -82 24 -115 89 -115c45 0 89 19 119 39zM296 674c0 -72 -39 -106 -97 -106s-99 34 -99 106s41 106 99 106s97 -35 97 -106zM267 674c0 60 -31 79 -68 79c-38 0 -68 -19 -68 -79s30 -79 68 -79c37 0 68 20 68 79zM321 953l-108 -153h-38l102 153h44z" />
    <glyph glyph-name="AEacute" unicode="&#x1fc;" horiz-adv-x="691" 
d="M658 0h-357v34l47 1v252h-189l-69 -287h-77v34l44 2l168 672l-48 1v34h481v-101h-32l-3 65h-236v-298h251v-37h-251v-336h236l3 66h32v-102zM348 323v385h-85c-8 -36 -16 -69 -24 -104l-71 -281h180zM524 953l-108 -153h-38l102 153h44z" />
    <glyph glyph-name="aeacute" unicode="&#x1fd;" horiz-adv-x="633" 
d="M602 258h-279v-119c0 -85 35 -114 137 -114c48 0 99 7 132 13v-32c-26 -6 -80 -15 -133 -15c-75 0 -120 8 -154 57c-44 -36 -97 -57 -151 -57c-84 0 -116 55 -116 142v32c0 105 46 150 181 150h65v70c0 100 -16 126 -115 126c-17 0 -46 -1 -73 -3l-3 -56h-31v82
c31 6 76 12 111 12c91 0 125 -22 137 -75c20 46 63 75 133 75c125 0 159 -93 159 -233v-55zM563 291v32c0 114 -22 188 -119 188c-96 0 -121 -70 -121 -164v-56h240zM284 70v213h-65c-113 0 -143 -31 -143 -118v-36c0 -71 25 -105 85 -105c47 0 92 21 123 46zM440 760
l-108 -153h-38l102 153h44z" />
    <glyph glyph-name="Oslashacute" unicode="&#x1fe;" horiz-adv-x="482" 
d="M364 955l-108 -153h-38l102 153h44zM442 336c0 -241 -54 -345 -201 -345c-66 0 -113 21 -145 66l-30 -57h-39l49 92c-25 56 -36 136 -36 244v71c0 241 55 345 201 345c67 0 114 -22 146 -68l32 59h39l-51 -96c24 -56 35 -135 35 -240v-71zM79 336c0 -86 6 -151 21 -198
l266 506c-26 51 -67 71 -125 71c-112 0 -162 -75 -162 -308v-71zM403 336v71c0 84 -7 147 -20 194l-266 -505c26 -50 67 -69 124 -69c113 0 162 76 162 309z" />
    <glyph glyph-name="oslashacute" unicode="&#x1ff;" horiz-adv-x="400" 
d="M307 760l-108 -153h-38l102 153h44zM359 244c-1 -175 -40 -253 -159 -253c-47 0 -81 12 -106 37l-30 -58h-37l46 88c-22 41 -31 103 -31 186v49c0 175 39 253 158 253c48 0 83 -13 108 -40l32 60h37l-48 -91c21 -42 29 -102 30 -182v-49zM80 244c0 -63 4 -110 15 -144
l194 369c-19 29 -47 42 -89 42c-91 0 -120 -57 -120 -218v-49zM320 244v49c0 59 -4 105 -14 138l-193 -368c19 -26 47 -37 87 -37c91 0 120 58 120 218z" />
    <glyph glyph-name="Wgrave" unicode="&#x1e80;" horiz-adv-x="702" 
d="M681 709l-45 -1l-108 -708h-61l-115 527h-2l-115 -527h-61l-108 708l-46 1v34h133v-33l-48 -2l100 -675h2l113 525h62l113 -525h2l99 675l-47 2v33h132v-34zM399 800h-38l-108 153h44z" />
    <glyph glyph-name="wgrave" unicode="&#x1e81;" horiz-adv-x="656" 
d="M633 503l-41 -2l-85 -501h-53c-107 386 -115 418 -123 448h-2c-7 -30 -15 -62 -122 -448h-54l-85 501l-40 2v33h120v-33l-42 -1c65 -396 69 -433 75 -468h3c8 36 16 72 121 451h52c104 -379 113 -414 121 -451h3c5 41 10 71 73 468l-41 1v33h120v-33zM385 607h-38
l-108 153h44z" />
    <glyph glyph-name="Wacute" unicode="&#x1e82;" horiz-adv-x="702" 
d="M681 709l-45 -1l-108 -708h-61l-115 527h-2l-115 -527h-61l-108 708l-46 1v34h133v-33l-48 -2l100 -675h2l113 525h62l113 -525h2l99 675l-47 2v33h132v-34zM469 953l-108 -153h-38l102 153h44z" />
    <glyph glyph-name="wacute" unicode="&#x1e83;" horiz-adv-x="656" 
d="M633 503l-41 -2l-85 -501h-53c-107 386 -115 418 -123 448h-2c-7 -30 -15 -62 -122 -448h-54l-85 501l-40 2v33h120v-33l-42 -1c65 -396 69 -433 75 -468h3c8 36 16 72 121 451h52c104 -379 113 -414 121 -451h3c5 41 10 71 73 468l-41 1v33h120v-33zM434 760l-108 -153
h-38l102 153h44z" />
    <glyph glyph-name="Wdieresis" unicode="&#x1e84;" horiz-adv-x="702" 
d="M681 709l-45 -1l-108 -708h-61l-115 527h-2l-115 -527h-61l-108 708l-46 1v34h133v-33l-48 -2l100 -675h2l113 525h62l113 -525h2l99 675l-47 2v33h132v-34zM460 818h-37v116h37v-116zM280 818v116h-37v-116h37z" />
    <glyph glyph-name="wdieresis" unicode="&#x1e85;" horiz-adv-x="656" 
d="M633 503l-41 -2l-85 -501h-53c-107 386 -115 418 -123 448h-2c-7 -30 -15 -62 -122 -448h-54l-85 501l-40 2v33h120v-33l-42 -1c65 -396 69 -433 75 -468h3c8 36 16 72 121 451h52c104 -379 113 -414 121 -451h3c5 41 10 71 73 468l-41 1v33h120v-33zM437 630h-37v116h37
v-116zM257 630v116h-37v-116h37z" />
    <glyph glyph-name="Ygrave" unicode="&#x1ef2;" horiz-adv-x="467" 
d="M446 709l-44 -1l-149 -403v-269l53 -2v-34h-146v34l54 2v269l-150 403l-44 1v34h127v-33l-42 -1l128 -355h1l127 355l-41 1v33h126v-34zM278 800h-38l-108 153h44z" />
    <glyph glyph-name="ygrave" unicode="&#x1ef3;" horiz-adv-x="440" 
d="M419 503l-45 -2l-135 -538c-29 -116 -52 -172 -142 -172c-20 0 -44 2 -63 5v32c28 -3 46 -3 61 -3c61 0 84 32 106 141l7 34l-140 501l-45 2v33h127v-33l-42 -1l118 -442h1l107 442l-41 1v33h126v-33zM271 607h-38l-108 153h44z" />
    <glyph glyph-name="lira" unicode="&#x20a4;" horiz-adv-x="425" 
d="M394 0h-345v34c38 47 48 89 48 155v89h-66v34h66v92h-66v34h66v83c0 163 28 231 170 231c52 0 98 -7 127 -12v-98h-31l-4 69c-27 3 -56 5 -89 5c-113 0 -134 -45 -134 -195v-83h201v-34h-201v-92h201v-34h-201v-89c0 -68 -11 -107 -45 -154h303v-35z" />
    <glyph glyph-name="peseta" unicode="&#x20a7;" horiz-adv-x="444" 
d="M20 518v35h59v155l-46 1v34c66 0 105 5 172 5c145 0 202 -59 205 -195h53v-35h-53c-3 -136 -63 -199 -207 -199c-26 0 -55 1 -85 2v-286l50 -1v-34h-135v34l46 1v483h-59zM371 528v16c0 120 -39 168 -166 168c-36 0 -67 -3 -87 -4v-351c30 -2 59 -2 85 -2
c127 0 168 53 168 173z" />
    <glyph glyph-name="Scommaaccent" unicode="&#x218;" horiz-adv-x="395" 
d="M364 181c0 -113 -64 -190 -181 -190c-59 0 -117 8 -144 13v98h32l3 -70c29 -3 67 -5 106 -5c94 0 145 56 145 154c0 84 -34 121 -117 182l-53 39c-83 61 -123 114 -123 195c0 93 52 155 175 155c56 0 108 -8 140 -13v-97h-32l-4 69c-24 2 -64 5 -101 5
c-99 0 -139 -44 -139 -119c0 -72 32 -112 107 -166l54 -39c92 -66 132 -119 132 -211zM184 -62l-85 -142h-37l76 142h46z" />
    <glyph glyph-name="scommaaccent" unicode="&#x219;" horiz-adv-x="339" 
d="M305 126c0 -58 -30 -135 -149 -135c-50 0 -96 8 -119 15v85h31l3 -59c23 -4 51 -6 84 -6c90 0 111 54 111 100c0 52 -21 83 -95 130l-31 20c-73 48 -106 88 -106 148c0 72 39 122 145 122c43 0 88 -8 112 -14v-81h-31l-4 54c-21 3 -51 6 -75 6c-80 0 -109 -29 -109 -87
c0 -49 27 -77 90 -118l31 -20c82 -53 112 -91 112 -160zM170 -62l-85 -142h-37l76 142h46z" />
    <glyph glyph-name="zero.fitted" unicode="&#xe097;" 
d="M408 306c0 -221 -50 -315 -180 -315s-179 94 -179 315v131c0 220 49 315 179 315s180 -95 180 -315v-131zM368 306v131c0 210 -43 280 -140 280s-140 -70 -140 -280v-131c0 -210 43 -280 140 -280s140 70 140 280z" />
    <glyph glyph-name="one.fitted" unicode="&#xf6dc;" 
d="M400 0h-342v34l152 2v667l-152 -53v37l158 58h33v-709l151 -2v-34z" />
    <glyph glyph-name="two.fitted" unicode="&#xe098;" 
d="M388 0h-324v52c0 182 42 230 166 333c104 88 125 123 125 201c0 89 -36 131 -154 131c-30 0 -72 -4 -102 -9l-4 -71h-31v98c22 6 87 17 140 17c142 0 190 -61 190 -166c0 -83 -25 -131 -139 -228c-122 -102 -154 -142 -154 -306v-16h252l3 78h32v-114z" />
    <glyph glyph-name="three.fitted" unicode="&#xe099;" 
d="M393 186c0 -128 -45 -195 -190 -195c-49 0 -113 9 -139 15v107h31l4 -82c29 -4 71 -6 103 -6c121 0 152 52 152 161v45c0 75 -11 141 -114 141h-153v33h153c103 0 115 63 115 140v21c0 105 -29 151 -153 151c-31 0 -74 -3 -103 -7l-3 -70h-32v97c24 6 90 15 139 15
c146 0 191 -62 191 -186v-21c0 -78 -17 -133 -84 -157c68 -24 83 -82 83 -157v-45z" />
    <glyph glyph-name="four.fitted" unicode="&#xe09a;" 
d="M427 219h-91v-184l54 -1v-34h-149v34l55 1v184h-265v40l256 485h49v-490h91v-35zM297 254v433l-228 -433h228z" />
    <glyph glyph-name="five.fitted" unicode="&#xe09b;" 
d="M397 196c0 -136 -44 -205 -192 -205c-58 0 -119 10 -145 17v95h32l3 -70c31 -4 70 -7 108 -7c128 0 155 53 155 170v34c0 128 -39 172 -175 172h-111l24 340h279v-103h-32l-3 68h-209l-19 -270h73c164 0 212 -66 212 -207v-34z" />
    <glyph glyph-name="six.fitted" unicode="&#xe09c;" 
d="M412 214c0 -152 -72 -223 -182 -223c-117 0 -184 74 -184 249v273c0 147 32 239 199 239c52 0 118 -10 145 -17v-96h-32l-4 70c-30 4 -75 8 -108 8c-140 0 -161 -74 -161 -202v-88c50 14 104 21 148 21c111 0 179 -50 179 -188v-46zM373 214v44c0 119 -48 157 -142 157
c-41 0 -93 -5 -146 -21v-156c0 -138 43 -212 146 -212c100 0 142 72 142 188z" />
    <glyph glyph-name="seven.fitted" unicode="&#xe09d;" 
d="M397 702l-243 -702h-42l248 707h-264l-3 -68h-32v104h336v-41z" />
    <glyph glyph-name="eight.fitted" unicode="&#xe09e;" 
d="M415 209c0 -164 -55 -218 -184 -218h-4c-129 0 -184 55 -184 218v9c0 93 20 149 85 172c-63 20 -84 76 -84 160v11c0 128 50 190 183 190h4c133 0 183 -62 183 -190v-11c0 -85 -21 -140 -84 -160c65 -23 85 -78 85 -171v-10zM376 209v10c0 92 -17 153 -108 153h-78
c-91 0 -108 -62 -108 -154v-9c0 -136 36 -183 145 -183h4c109 0 145 46 145 183zM375 550v11c0 109 -35 156 -144 156h-4c-109 0 -144 -47 -144 -156v-11c0 -79 16 -143 107 -143h78c91 0 107 62 107 143z" />
    <glyph glyph-name="nine.fitted" unicode="&#xe09f;" 
d="M412 230c0 -146 -33 -239 -199 -239c-52 0 -118 10 -145 17v97h32l3 -71c31 -4 76 -8 108 -8c141 0 161 74 161 202v89c-49 -15 -103 -22 -147 -22c-111 0 -179 50 -179 188v47c0 152 72 222 181 222c118 0 185 -74 185 -249v-273zM372 349v156c0 138 -42 212 -145 212
c-100 0 -142 -72 -142 -187v-45c0 -119 48 -157 142 -157c41 0 93 6 145 21z" />
    <glyph glyph-name="zero.denominator" unicode="&#xe10a;" horiz-adv-x="335" 
d="M297 175c0 -122 -41 -182 -129 -182c-89 0 -130 60 -130 182v89c0 123 41 183 130 183c88 0 129 -60 129 -183v-89zM261 175v89c0 112 -33 151 -93 151c-61 0 -93 -39 -93 -151v-89c0 -111 32 -150 93 -150c60 0 93 39 93 150z" />
    <glyph glyph-name="one.denominator" unicode="&#xe10b;" horiz-adv-x="268" 
d="M238 -1h-208v28l85 2v376l-85 -33v33l92 35h29v-411l87 -2v-28z" />
    <glyph glyph-name="two.denominator" unicode="&#xe10c;" horiz-adv-x="316" 
d="M269 1h-228v32c0 103 22 135 113 196c74 50 85 73 85 116c0 57 -30 72 -97 72c-22 0 -47 -2 -69 -4l-2 -42h-26v65c22 5 65 11 100 11c88 0 131 -27 131 -101c0 -51 -18 -84 -98 -140c-87 -58 -101 -82 -101 -168v-7h163l2 42h27v-72z" />
    <glyph glyph-name="three.denominator" unicode="&#xe10d;" horiz-adv-x="313" 
d="M272 120c0 -96 -46 -127 -138 -127c-36 0 -77 6 -93 10v67h27l2 -44c17 -2 41 -3 61 -3c72 0 104 19 104 98v7c0 51 -12 85 -80 85h-98v30h98c69 0 80 40 80 90v5c0 62 -27 79 -102 79c-21 0 -43 -2 -63 -3l-2 -43h-27v67c16 3 61 9 94 9c93 0 137 -25 137 -107v-6
c0 -52 -16 -90 -60 -106c47 -15 60 -50 60 -101v-7z" />
    <glyph glyph-name="four.denominator" unicode="&#xe10e;" horiz-adv-x="344" 
d="M309 125h-58v-97l32 -1v-26h-99v26l31 1v97h-183v32l180 283h39v-285h58v-30zM216 155v240l-149 -240h149z" />
    <glyph glyph-name="five.denominator" unicode="&#xe10f;" horiz-adv-x="317" 
d="M277 125c0 -100 -48 -132 -142 -132c-40 0 -76 5 -94 9v65h26l2 -41c17 -2 40 -3 63 -3c77 0 108 22 108 102v8c0 79 -27 100 -108 100h-85l15 207h200v-69h-26l-1 39h-142l-10 -147h53c104 0 141 -38 141 -130v-8z" />
    <glyph glyph-name="six.denominator" unicode="&#xe110;" horiz-adv-x="333" 
d="M295 121c0 -83 -50 -128 -128 -128c-83 0 -129 49 -129 150v153c0 96 33 151 138 151c38 0 78 -5 102 -10v-66h-26l-2 41c-19 3 -48 5 -72 5c-83 0 -103 -42 -104 -118v-43c38 8 69 11 96 11c75 0 125 -30 125 -112v-34zM258 121v33c0 65 -33 85 -91 85
c-24 0 -54 -2 -93 -10v-88c1 -82 32 -119 93 -119c62 0 91 38 91 99z" />
    <glyph glyph-name="seven.denominator" unicode="&#xe111;" horiz-adv-x="304" 
d="M270 407l-173 -406h-39l176 409h-170l-2 -39h-26v69h234v-33z" />
    <glyph glyph-name="eight.denominator" unicode="&#xe112;" horiz-adv-x="345" 
d="M307 117c0 -100 -56 -124 -132 -124h-5c-76 0 -132 24 -132 124v13c0 50 19 85 57 101c-38 16 -57 50 -57 100v9c0 76 50 107 133 107h3c82 0 133 -31 133 -107v-9c0 -49 -20 -84 -57 -100c37 -16 57 -51 57 -101v-13zM271 117v13c0 50 -17 87 -74 87h-49
c-57 0 -74 -37 -74 -87v-13c0 -72 34 -95 96 -95h5c62 0 96 23 96 95zM271 331v8c0 56 -34 79 -97 79h-3c-63 0 -97 -23 -97 -79v-8c0 -46 16 -85 74 -85h49c58 0 73 40 74 85z" />
    <glyph glyph-name="nine.denominator" unicode="&#xe113;" horiz-adv-x="333" 
d="M295 144c0 -96 -33 -151 -138 -151c-38 0 -78 5 -103 10v65h27l2 -41c18 -2 48 -4 72 -4c83 0 103 42 104 118v43c-38 -8 -70 -11 -96 -11c-75 0 -125 30 -125 111v35c0 83 50 128 128 128c83 0 129 -49 129 -149v-154zM259 211v89c-1 81 -32 118 -94 118
c-61 0 -90 -37 -90 -99v-34c0 -64 32 -84 91 -84c24 0 53 2 93 10z" />
    <glyph glyph-name="zero.numerator" unicode="&#xe11e;" horiz-adv-x="333" 
d="M296 481c0 -120 -38 -183 -129 -183c-92 0 -130 64 -130 183v89c0 119 38 183 130 183c91 0 129 -63 129 -183v-89zM259 481v89c0 111 -30 151 -92 151c-63 0 -93 -41 -93 -151v-89c0 -111 30 -151 93 -151c62 0 92 40 92 151z" />
    <glyph glyph-name="one.numerator" unicode="&#xe11f;" horiz-adv-x="270" 
d="M240 305h-208v28l85 1v376l-85 -32v33l91 35h30v-412l87 -1v-28z" />
    <glyph glyph-name="two.numerator" unicode="&#xe120;" horiz-adv-x="317" 
d="M269 306h-228v33c0 103 22 135 113 196c74 50 85 73 85 116c0 57 -30 72 -97 72c-22 0 -47 -2 -68 -5l-2 -41h-27v65c22 5 65 11 100 11c88 0 131 -27 131 -101c0 -51 -18 -84 -98 -140c-87 -58 -101 -82 -101 -169v-6h164l2 42h26v-73z" />
    <glyph glyph-name="three.numerator" unicode="&#xe121;" horiz-adv-x="314" 
d="M272 426c0 -96 -46 -128 -138 -128c-36 0 -76 6 -93 11v67h27l2 -45c17 -1 41 -3 62 -3c71 0 104 19 104 99v6c0 52 -12 86 -80 86h-99v29h99c68 0 80 41 80 90v6c0 62 -28 79 -103 79c-20 0 -43 -2 -63 -4l-2 -42h-27v66c16 4 61 10 95 10c93 0 136 -25 136 -108v-6
c0 -51 -15 -89 -60 -105c47 -15 60 -51 60 -101v-7z" />
    <glyph glyph-name="four.numerator" unicode="&#xe122;" horiz-adv-x="343" 
d="M308 431h-57v-98l31 -1v-26h-99v26l31 1v98h-182v31l180 284h39v-286h57v-29zM215 460v240l-149 -240h149z" />
    <glyph glyph-name="five.numerator" unicode="&#xe123;" horiz-adv-x="318" 
d="M277 430c0 -99 -48 -132 -142 -132c-40 0 -76 6 -94 10v65h26l2 -41c17 -2 40 -4 63 -4c77 0 108 23 108 102v9c0 78 -27 100 -108 100h-85l15 207h200v-70h-26l-1 39h-142l-10 -146h53c104 0 141 -38 141 -130v-9z" />
    <glyph glyph-name="six.numerator" unicode="&#xe124;" horiz-adv-x="331" 
d="M293 427c0 -84 -49 -129 -127 -129c-83 0 -129 49 -129 150v153c0 97 32 152 137 152c39 0 78 -5 103 -10v-67h-26l-2 42c-19 2 -49 5 -72 5c-84 0 -104 -42 -104 -119v-43c37 9 69 12 95 12c76 0 125 -31 125 -112v-34zM257 427v33c0 64 -33 85 -91 85
c-24 0 -54 -2 -93 -11v-88c1 -81 32 -119 93 -119s91 38 91 100z" />
    <glyph glyph-name="seven.numerator" unicode="&#xe125;" horiz-adv-x="307" 
d="M270 712l-172 -406h-39l176 409h-171l-1 -39h-27v70h234v-34z" />
    <glyph glyph-name="eight.numerator" unicode="&#xe126;" horiz-adv-x="343" 
d="M306 423c0 -100 -57 -125 -133 -125h-4c-77 0 -133 25 -133 125v13c0 50 19 85 57 101c-37 16 -56 50 -56 100v8c0 76 49 108 132 108h4c82 0 132 -32 132 -108v-8c0 -50 -20 -85 -57 -100c38 -16 58 -51 58 -101v-13zM269 423v13c0 49 -17 86 -74 86h-49
c-57 0 -74 -37 -74 -86v-13c0 -73 34 -96 97 -96h4c62 0 96 23 96 96zM269 636v9c0 56 -34 79 -96 79h-4c-63 0 -97 -23 -97 -79v-9c0 -45 16 -84 74 -84h49c58 0 74 39 74 84z" />
    <glyph glyph-name="nine.numerator" unicode="&#xe127;" horiz-adv-x="331" 
d="M293 450c0 -96 -32 -152 -137 -152c-39 0 -78 6 -103 10v66h27l2 -41c18 -2 48 -4 72 -4c83 0 103 42 103 117v44c-37 -9 -69 -11 -95 -11c-75 0 -125 30 -125 111v34c0 84 49 129 127 129c84 0 129 -49 129 -150v-153zM257 517v88c-1 81 -31 119 -93 119
c-61 0 -91 -38 -91 -100v-33c0 -64 33 -85 91 -85c24 0 54 3 93 11z" />
    <glyph glyph-name="oneeighth" unicode="&#x215b;" horiz-adv-x="745" 
d="M707 118c0 -100 -56 -125 -132 -125h-5c-76 0 -132 25 -132 125v13c0 50 19 85 57 101c-38 16 -57 50 -57 100v8c0 76 50 108 133 108h3c82 0 133 -32 133 -108v-8c0 -50 -20 -85 -57 -100c37 -16 57 -51 57 -101v-13zM671 118v13c0 49 -17 86 -74 86h-49
c-57 0 -74 -37 -74 -86v-13c0 -73 34 -96 96 -96h5c62 0 96 23 96 96zM671 331v9c0 56 -34 79 -97 79h-3c-63 0 -97 -23 -97 -79v-9c0 -45 16 -84 74 -84h49c58 0 73 39 74 84zM534 743l-352 -743h-39l352 743h39zM247 305h-208v28l85 1v376l-85 -32v33l92 35h29v-412l87 -1
v-28z" />
    <glyph glyph-name="threeeighths" unicode="&#x215c;" horiz-adv-x="775" 
d="M737 118c0 -100 -56 -125 -133 -125h-4c-76 0 -133 25 -133 125v13c0 50 19 85 58 101c-38 16 -57 50 -57 100v8c0 76 50 108 132 108h4c82 0 132 -32 132 -108v-8c0 -50 -19 -85 -57 -100c38 -16 58 -51 58 -101v-13zM701 118v13c0 49 -18 86 -74 86h-49
c-57 0 -74 -37 -74 -86v-13c0 -73 33 -96 96 -96h4c62 0 97 23 97 96zM700 331v9c0 56 -34 79 -96 79h-4c-63 0 -96 -23 -96 -79v-9c0 -45 15 -84 74 -84h49c57 0 73 39 73 84zM565 743l-352 -743h-39l352 743h39zM269 426c0 -96 -46 -128 -139 -128c-35 0 -76 6 -92 11v67
h26l2 -45c18 -1 42 -3 62 -3c72 0 104 19 104 99v6c0 52 -12 86 -80 86h-99v29h99c68 0 80 41 80 90v6c0 62 -28 79 -102 79c-21 0 -43 -2 -63 -4l-2 -42h-27v66c16 4 61 10 94 10c93 0 137 -25 137 -108v-6c0 -51 -16 -89 -60 -105c46 -15 60 -51 60 -101v-7z" />
    <glyph glyph-name="fiveeighths" unicode="&#x215d;" horiz-adv-x="780" 
d="M742 118c0 -100 -57 -125 -133 -125h-4c-77 0 -133 25 -133 125v13c0 50 19 85 57 101c-37 16 -56 50 -56 100v8c0 76 49 108 132 108h4c82 0 132 -32 132 -108v-8c0 -50 -20 -85 -57 -100c38 -16 58 -51 58 -101v-13zM705 118v13c0 49 -17 86 -74 86h-49
c-57 0 -74 -37 -74 -86v-13c0 -73 34 -96 97 -96h4c62 0 96 23 96 96zM705 331v9c0 56 -34 79 -96 79h-4c-63 0 -97 -23 -97 -79v-9c0 -45 16 -84 74 -84h49c58 0 74 39 74 84zM569 743l-352 -743h-38l352 743h38zM274 430c0 -99 -48 -132 -142 -132c-40 0 -76 6 -94 10v65
h26l2 -41c18 -2 40 -4 63 -4c77 0 108 23 108 102v9c0 78 -27 100 -108 100h-85l15 207h201v-70h-27l-1 39h-141l-11 -146h54c103 0 140 -38 140 -130v-9z" />
    <glyph glyph-name="seveneighths" unicode="&#x215e;" horiz-adv-x="717" 
d="M678 118c0 -100 -56 -125 -132 -125h-4c-77 0 -133 25 -133 125v13c0 50 19 85 57 101c-38 16 -57 50 -57 100v8c0 76 50 108 133 108h3c82 0 133 -32 133 -108v-8c0 -50 -20 -85 -57 -100c37 -16 57 -51 57 -101v-13zM642 118v13c0 49 -17 86 -74 86h-49
c-57 0 -74 -37 -74 -86v-13c0 -73 34 -96 97 -96h4c62 0 96 23 96 96zM642 331v9c0 56 -34 79 -97 79h-3c-63 0 -97 -23 -97 -79v-9c0 -45 16 -84 74 -84h49c58 0 73 39 74 84zM506 743l-352 -743h-38l352 743h38zM271 712l-172 -406h-39l176 409h-171l-1 -39h-26v70h233
v-34z" />
    <glyph glyph-name="onethird" unicode="&#x2153;" horiz-adv-x="732" 
d="M693 121c0 -96 -45 -128 -138 -128c-35 0 -76 6 -93 11v67h27l2 -45c18 -1 41 -3 62 -3c71 0 104 20 104 99v7c0 51 -12 85 -80 85h-99v29h99c68 0 80 41 80 91v5c0 62 -28 79 -102 79c-21 0 -43 -2 -64 -4l-2 -42h-26v66c16 4 61 10 94 10c93 0 136 -25 136 -108v-5
c0 -52 -15 -90 -59 -106c46 -15 59 -51 59 -101v-7zM534 743l-352 -743h-39l352 743h39zM247 305h-208v28l85 1v376l-85 -32v33l92 35h29v-412l87 -1v-28z" />
    <glyph glyph-name="twothirds" unicode="&#x2154;" horiz-adv-x="767" 
d="M728 121c0 -96 -46 -128 -138 -128c-36 0 -76 6 -93 11v67h27l2 -45c17 -1 41 -3 62 -3c71 0 104 20 104 99v7c0 51 -12 85 -80 85h-99v29h99c68 0 80 41 80 91v5c0 62 -28 79 -103 79c-20 0 -43 -2 -63 -4l-2 -42h-27v66c16 4 61 10 95 10c93 0 136 -25 136 -108v-5
c0 -52 -15 -90 -60 -106c47 -15 60 -51 60 -101v-7zM566 743l-352 -743h-38l352 743h38zM267 306h-229v33c0 103 22 135 113 196c74 50 86 73 86 116c0 57 -31 72 -98 72c-22 0 -47 -2 -68 -5l-2 -41h-27v65c22 5 65 11 101 11c87 0 130 -27 130 -101
c0 -51 -18 -84 -98 -140c-86 -58 -101 -82 -101 -169v-6h164l2 42h27v-73z" />
    <glyph glyph-name="estimated" unicode="&#x212e;" horiz-adv-x="612" 
d="M585 282h-429v-193c42 -40 92 -63 152 -63c112 0 165 59 210 127l31 -19c-52 -81 -116 -141 -241 -141c-163 0 -271 133 -271 290c0 159 104 290 275 290c170 0 273 -134 273 -291zM465 315v163c-36 33 -95 62 -153 62c-60 0 -116 -21 -156 -62v-163h309z" />
    <glyph glyph-name="DieresisGrave" unicode="&#xf6cd;" horiz-adv-x="345" 
d="M338 802h-37v115h37v-115zM144 934l98 -156h-38l-104 156h44zM46 802h-37v115h37v-115z" />
    <glyph glyph-name="Dieresis" unicode="&#xf6cb;" horiz-adv-x="303" 
d="M260 802h-37v116h37v-116zM80 802v116h-37v-116h37z" />
    <glyph glyph-name="Acute" unicode="&#xf6c9;" horiz-adv-x="308" 
d="M264 931l-108 -153h-38l102 153h44z" />
    <glyph glyph-name="Breve" unicode="&#xf71d;" horiz-adv-x="314" 
d="M277 937c-4 -88 -20 -159 -119 -159c-98 0 -115 71 -119 159h31c4 -81 16 -131 88 -131c73 0 85 50 88 131h31z" />
    <glyph glyph-name="cyrBreve" unicode="&#xf6d1;" horiz-adv-x="314" 
d="M278 766c-4 -88 -21 -159 -120 -159c-98 0 -115 71 -119 159h31c4 -81 16 -131 88 -131c73 0 85 50 88 131h32z" />
    <glyph glyph-name="Caron" unicode="&#xf6ca;" horiz-adv-x="339" 
d="M265 931h38l-109 -153h-50l-109 153h39l95 -129z" />
    <glyph glyph-name="Cedilla" unicode="&#xf722;" horiz-adv-x="283" 
d="M192 -62l-104 -142h-37l96 142h45z" />
    <glyph glyph-name="Circumflex" unicode="&#xf71e;" horiz-adv-x="339" 
d="M303 778h-38l-96 129l-95 -129h-39l109 153h50z" />
    <glyph glyph-name="commaaccent.cap" unicode="&#xe46b;" horiz-adv-x="377" 
d="M223 -62l-85 -142h-37l76 142h46z" />
    <glyph glyph-name="DieresisAcute" unicode="&#xf6cc;" horiz-adv-x="341" 
d="M9 802h37v115h-37v-115zM105 778l98 156h44l-104 -156h-38zM301 802h37v115h-37v-115z" />
    <glyph glyph-name="Dotaccent" unicode="&#xf71a;" horiz-adv-x="271" 
d="M170 800h-39v116h39v-116z" />
    <glyph glyph-name="Hungarumlaut" unicode="&#xf6cf;" horiz-adv-x="325" 
d="M326 932l-108 -153h-38l102 153h44zM177 932h-44l-102 -153h38z" />
    <glyph glyph-name="Grave" unicode="&#xf6ce;" horiz-adv-x="273" 
d="M179 779h-38l-108 153h43z" />
    <glyph glyph-name="dblGrave" unicode="&#xf6d3;" horiz-adv-x="295" 
d="M259 607h-38l-108 153h44zM100 607l-102 153h-44l108 -153h38z" />
    <glyph glyph-name="cyrFlex" unicode="&#xf6d2;" horiz-adv-x="309" 
d="M278 607h-32c-3 93 -27 126 -88 126c-60 0 -84 -33 -88 -126h-31c4 102 35 154 119 154c85 0 116 -52 120 -154z" />
    <glyph glyph-name="Macron" unicode="&#xf6d0;" horiz-adv-x="332" 
d="M301 789h-270v32h270v-32z" />
    <glyph glyph-name="Ogonek" unicode="&#xe46c;" horiz-adv-x="315" 
d="M259 -206c-16 -4 -41 -8 -67 -8c-74 0 -100 36 -100 85c0 52 50 93 117 130h50c-90 -50 -132 -83 -132 -130c0 -36 18 -57 69 -57c24 0 49 3 63 6v-26z" />
    <glyph glyph-name="Ring" unicode="&#xf71b;" horiz-adv-x="317" 
d="M260 837c0 -73 -43 -105 -99 -105c-58 0 -101 31 -101 105c0 73 43 106 101 106c56 0 99 -33 99 -106zM230 837c0 63 -36 78 -69 78c-34 0 -70 -15 -70 -78c0 -62 35 -77 70 -77c33 0 69 15 69 77z" />
    <glyph glyph-name="Tilde" unicode="&#xf71c;" horiz-adv-x="322" 
d="M310 849c0 -68 -14 -109 -68 -109c-35 0 -57 22 -83 58l-20 28c-22 31 -35 46 -58 46c-34 0 -38 -31 -38 -78v-50h-31v50c0 67 16 108 69 108c34 0 54 -20 80 -56l20 -28c22 -31 38 -48 61 -48c33 0 38 31 38 79v49h30v-49z" />
    <glyph glyph-name="middot" unicode="&#x387;" horiz-adv-x="156" 
d="M100 288h-39v132h39v-132z" />
    <glyph glyph-name="undercommaaccent" unicode="&#xf005;" horiz-adv-x="377" 
d="M223 -62l-85 -142h-37l76 142h46z" />
    <glyph glyph-name="dieresisacute" unicode="&#x385;" horiz-adv-x="341" 
d="M9 678h37v115h-37v-115zM105 654l98 156h44l-104 -156h-38zM301 678h37v115h-37v-115z" />
    <glyph glyph-name="dieresisgrave" unicode="&#x1fed;" horiz-adv-x="341" 
d="M338 678h-37v115h37v-115zM144 810l98 -156h-38l-104 156h44zM46 678h-37v115h37v-115z" />
    <glyph glyph-name="dblgrave" unicode="&#xf6d6;" horiz-adv-x="295" 
d="M259 607h-38l-108 153h44zM100 607l-102 153h-44l108 -153h38z" />
    <glyph glyph-name="cyrflex" unicode="&#xf6d5;" horiz-adv-x="309" 
d="M277 607h-31c-3 93 -27 126 -88 126s-85 -33 -88 -126h-31c3 102 34 154 119 154c84 0 115 -52 119 -154z" />
    <glyph glyph-name="uni02C9" unicode="&#x2c9;" horiz-adv-x="332" 
d="M301 670h-270v33h270v-33z" />
    <glyph glyph-name="cyrbreve" unicode="&#xf6d4;" horiz-adv-x="314" 
d="M278 766c-4 -88 -21 -159 -120 -159c-98 0 -115 71 -119 159h31c4 -81 16 -131 88 -131c73 0 85 50 88 131h32z" />
    <glyph glyph-name="currency" unicode="&#xa4;" horiz-adv-x="504" 
d="M452 207l-26 -26l-66 65c-31 -25 -71 -39 -108 -39c-38 0 -77 13 -108 39l-66 -65l-27 26l66 66c-25 31 -38 70 -38 108c0 42 13 76 39 107l-67 66l27 26l66 -66c31 26 70 39 108 39s77 -12 108 -38l66 65l26 -26l-66 -66c20 -26 39 -63 39 -107c0 -39 -13 -78 -38 -109z
M392 381c0 71 -58 139 -140 139c-75 0 -139 -58 -139 -139c0 -75 62 -141 139 -141c76 0 138 61 140 141z" />
    <glyph glyph-name="one.taboldstyle" unicode="&#xe101;" 
d="M378 0h-298v34l130 2v460l-131 -51v40l138 56h32v-505l129 -2v-34z" />
    <glyph glyph-name="zero.taboldstyle" unicode="&#xe100;" 
d="M408 220c0 -130 -49 -229 -179 -229s-179 99 -179 229v100c0 129 49 228 179 228s179 -99 179 -228v-100zM369 220v100c0 121 -43 193 -140 193c-96 0 -140 -72 -140 -193v-100c0 -121 44 -194 140 -194c97 0 140 73 140 194z" />
    <glyph glyph-name="two.taboldstyle" unicode="&#xe102;" 
d="M390 0h-328v37l122 110c130 117 173 171 173 256c0 81 -46 110 -152 110c-31 0 -74 -3 -104 -8l-3 -69h-32v96c40 8 94 16 142 16c137 0 187 -49 187 -145c0 -93 -47 -154 -185 -278l-98 -88h278v-37z" />
    <glyph glyph-name="three.taboldstyle" unicode="&#xe103;" 
d="M394 -17c0 -128 -46 -195 -191 -195c-49 0 -113 8 -139 15v106h31l4 -81c29 -4 71 -6 103 -6c121 0 152 51 152 161v44c0 75 -11 141 -114 141h-153v34h153c103 0 115 62 115 140v21c0 104 -29 151 -153 151c-31 0 -73 -3 -103 -7l-3 -71h-32v97c24 6 90 15 139 15
c147 0 191 -61 191 -185v-21c0 -78 -17 -133 -84 -157c69 -25 84 -82 84 -158v-44z" />
    <glyph glyph-name="four.taboldstyle" unicode="&#xe104;" 
d="M426 19h-91v-183l54 -1v-34h-148v34l55 1v183h-265v41l256 485h48v-490h91v-36zM296 55v433l-227 -433h227z" />
    <glyph glyph-name="five.taboldstyle" unicode="&#xe105;" 
d="M397 -8c0 -136 -43 -205 -192 -205c-58 0 -119 10 -145 17v95h32l3 -70c31 -4 70 -7 108 -7c128 0 155 53 155 170v34c0 129 -39 172 -175 172h-111l24 341h279v-104h-32l-3 68h-209l-19 -270h73c164 0 212 -66 212 -207v-34z" />
    <glyph glyph-name="six.taboldstyle" unicode="&#xe106;" 
d="M411 214c0 -152 -71 -223 -181 -223c-118 0 -184 74 -184 249v273c0 147 32 239 199 239c52 0 117 -10 144 -17v-96h-32l-3 70c-31 4 -76 8 -108 8c-141 0 -161 -74 -161 -202v-88c50 14 104 21 148 21c110 0 178 -50 178 -188v-46zM372 214v44c0 119 -48 157 -142 157
c-41 0 -92 -5 -145 -21v-156c0 -138 43 -212 145 -212c100 0 142 72 142 188z" />
    <glyph glyph-name="seven.taboldstyle" unicode="&#xe107;" 
d="M396 498l-243 -702h-41l247 707h-264l-3 -68h-31v104h335v-41z" />
    <glyph glyph-name="eight.taboldstyle" unicode="&#xe108;" 
d="M415 209c0 -164 -56 -218 -184 -218h-5c-128 0 -183 55 -183 218v9c0 93 20 149 85 172c-63 20 -84 76 -84 160v11c0 128 49 190 182 190h5c133 0 182 -62 182 -190v-11c0 -85 -20 -140 -84 -160c65 -23 86 -78 86 -171v-10zM376 209v10c0 92 -17 153 -108 153h-79
c-91 0 -108 -62 -108 -154v-9c0 -136 36 -183 145 -183h5c109 0 145 46 145 183zM375 550v11c0 109 -35 156 -144 156h-5c-108 0 -144 -47 -144 -156v-11c0 -79 17 -143 107 -143h79c91 0 107 62 107 143z" />
    <glyph glyph-name="nine.taboldstyle" unicode="&#xe109;" 
d="M411 26c0 -146 -32 -239 -199 -239c-52 0 -118 10 -144 17v97h31l4 -71c31 -4 75 -8 108 -8c141 0 161 75 161 203v88c-50 -14 -104 -22 -148 -22c-111 0 -178 50 -178 189v46c0 152 71 222 181 222c118 0 184 -74 184 -248v-274zM372 145v156c0 138 -43 212 -145 212
c-100 0 -142 -71 -142 -187v-44c0 -119 48 -157 142 -157c41 0 92 5 145 20z" />
    <glyph glyph-name="uni021A" unicode="&#x21a;" horiz-adv-x="463" 
d="M429 642h-31l-3 65h-148v-672l55 -2v-33h-149v33l55 2v672h-147l-3 -65h-32v101h403v-101zM228 -62l-85 -142h-37l76 142h46z" />
    <glyph glyph-name="uni037E" unicode="&#x37e;" horiz-adv-x="148" 
d="M96 279h-38v133h38v-133z" />
    <glyph glyph-name="exclamdbl" unicode="&#x203c;" horiz-adv-x="320" 
d="M256 0h-38v123h38v-123zM217 755h40l-2 -564h-36zM102 123v-123h-38v123h38zM103 755l-2 -564h-35l-3 564h40z" />
    <glyph glyph-name="h.superior" unicode="&#xf700;" horiz-adv-x="300" 
d="M280 302h-64v224c0 67 -11 86 -51 86c-27 0 -55 -11 -75 -24v-257l29 -1v-28h-93v28l29 1v415l-29 1v27h64v-158c21 13 50 26 82 26c64 0 78 -39 78 -115v-196l30 -1v-28z" />
    <glyph glyph-name="uni2215" unicode="&#x2215;" horiz-adv-x="348" 
d="M375 743l-352 -743h-38l352 743h38z" />
    <glyph glyph-name="uni021B" unicode="&#x21b;" horiz-adv-x="290" 
d="M265 -2c-21 -4 -49 -7 -69 -7c-65 0 -82 32 -82 103v408l-91 3v31h91v137h38v-137h114v-34h-114v-405c0 -56 7 -73 50 -73c17 0 41 2 63 4v-30zM218 -62l-85 -142h-37l76 142h46z" />
    <glyph glyph-name="dollar.taboldstyle" unicode="&#xe42f;" horiz-adv-x="364" 
d="M317 127c0 -59 -28 -125 -118 -133v-102h-36v100c-40 1 -88 7 -111 13v85h30l3 -58c22 -3 57 -6 89 -6c80 0 104 50 104 101s-23 80 -92 126l-37 25c-69 47 -101 87 -101 147c0 66 33 113 122 120v114h36v-112c38 -1 76 -8 98 -13v-80h-31l-3 53c-21 3 -49 6 -76 6
c-77 0 -108 -29 -108 -87c0 -49 26 -77 87 -118l37 -25c76 -52 107 -87 107 -156z" />
    <glyph glyph-name="Euro.taboldstyle" unicode="&#xe430;" horiz-adv-x="373" 
d="M331 2c-37 -7 -70 -11 -97 -11c-107 0 -152 49 -162 206h-39v31h39c-2 29 -3 58 0 88h-39v31h40c9 153 56 201 160 201c28 0 66 -3 98 -11v-77h-30l-3 47c-27 4 -48 4 -63 4c-81 0 -115 -36 -123 -164h183l-7 -31h-177c-3 -30 -2 -59 0 -88h157l-6 -31h-150
c7 -132 40 -170 124 -170c23 0 58 2 95 8v-33z" />
    <glyph glyph-name="uni03BC" unicode="&#x3bc;" horiz-adv-x="444" 
d="M412 0h-81v39c-41 -27 -83 -48 -137 -48c-42 0 -67 11 -81 37v-197l43 -1v-34h-124v34l43 1v670l-43 2v33h81v-362c0 -113 18 -149 88 -149c44 0 85 18 130 47v429l-43 2v33h81v-501l43 -1v-34z" />
    <glyph glyph-name="franc.taboldstyle" unicode="&#xe431;" horiz-adv-x="370" 
d="M312 265h-180v-87h103v-33h-103v-113l33 -1l-32 -24c-6 -2 -64 -5 -70 -7v31l31 1v113h-38v33h38v324l-30 2v35h262v-81h-31l-3 44h-160v-201h180v-36z" />
    <glyph glyph-name="sterling.taboldstyle" unicode="&#xe432;" horiz-adv-x="381" 
d="M337 0h-276v32c33 42 37 72 37 133v94h-55v34h55v56c1 142 29 198 140 198c29 0 69 -4 99 -10v-96h-31l-3 66c-23 3 -46 4 -61 4c-86 0 -105 -37 -105 -162v-56h164v-34h-164v-94c0 -62 -6 -91 -33 -129h233v-36z" />
    <glyph glyph-name="yen.taboldstyle" unicode="&#xe433;" horiz-adv-x="381" 
d="M357 199h-148v-167l42 -1v-31h-122v31l42 1v167h-145v31h141l-36 85h-105v31h94l-57 160l-38 2v31h65l77 -202c9 -23 17 -51 22 -70h2c6 20 14 47 23 70l76 202h65v-31l-39 -2l-56 -160h97v-31h-109l-36 -85h145v-31z" />
    <glyph glyph-name="lira.taboldstyle" unicode="&#xe434;" horiz-adv-x="382" 
d="M336 0h-275v32c33 42 37 72 37 133v27h-55v30h55v71h-55v31h55v24c0 142 29 198 140 198c30 0 70 -3 98 -10v-95h-30l-3 65c-23 3 -46 3 -61 3c-86 0 -105 -36 -105 -161v-24h163v-31h-163v-71h163v-30h-163v-27c0 -62 -6 -91 -33 -129h232v-36z" />
    <glyph glyph-name="florin.taboldstyle" unicode="&#xe435;" horiz-adv-x="431" 
d="M391 600l-3 -29c-18 1 -36 3 -50 3c-55 0 -67 -21 -77 -91l-13 -158h119l-4 -34h-119l-26 -271c-13 -88 -34 -124 -109 -124c-17 0 -41 3 -58 6l3 30c21 -2 37 -3 51 -3c55 0 65 23 75 92l26 270h-104l3 34h105l14 159c12 87 35 123 110 123c17 0 42 -3 57 -7z" />
    <glyph glyph-name="numbersign.taboldstyle" unicode="&#xe436;" horiz-adv-x="447" 
d="M403 183h-91l-14 -182h-34l14 182h-119l-14 -182h-34l14 182h-62v32h65l15 201h-80v32h83l15 191h33l-15 -191h120l15 191h33l-15 -191h71v-32h-73l-16 -201h89v-32zM296 416h-119l-16 -201h120z" />
    <glyph glyph-name="colonmonetary.taboldstyle" unicode="&#xe437;" horiz-adv-x="355" 
d="M315 4c-21 -4 -39 -7 -54 -9v-108h-33v105c-6 0 -12 -1 -17 -1c-16 0 -30 2 -42 5v-109h-33v121c-61 27 -82 95 -82 206v113c0 107 21 176 82 205v127h33v-116c11 4 29 5 42 5h17v111h33v-114c15 -2 32 -5 54 -9v-86h-31l-3 58c-25 4 -47 5 -61 5
c-97 0 -127 -51 -127 -186v-113c0 -139 29 -187 127 -187c23 0 52 2 95 9v-32z" />
    <glyph glyph-name="colonmonetary" unicode="&#x20a1;" horiz-adv-x="325" 
d="M293 4c-21 -4 -39 -7 -56 -9v-109h-32v105h-18c-15 0 -27 2 -38 4v-109h-32v120c-64 27 -86 96 -86 207v112c0 108 23 177 86 205v129h32v-117c11 2 23 4 38 4h18v113h32v-117c16 -1 35 -4 56 -9v-86h-32l-3 60c-30 4 -48 4 -63 4c-93 0 -125 -49 -125 -186v-112
c0 -140 31 -187 125 -187c21 0 50 2 98 9v-31z" />
    <glyph glyph-name="cent.taboldstyle" unicode="&#xe500;" horiz-adv-x="355" 
d="M310 4c-35 -8 -62 -11 -84 -12v-112h-37v113c-108 9 -140 81 -140 220v114c0 136 33 210 140 220v119h37v-118c22 -2 49 -4 84 -12v-95h-31l-3 68c-30 4 -47 4 -61 4c-97 0 -128 -51 -128 -186v-114c0 -138 30 -187 128 -187c23 0 52 3 95 9v-31z" />
    <glyph glyph-name="rupiah" unicode="&#xf6dd;" horiz-adv-x="843" 
d="M460 0h-72l-140 320c-16 -1 -33 -1 -45 -1c-29 0 -65 1 -86 2v-286l48 -1v-34h-133v34l46 1v673l-46 1v34c72 0 108 5 170 5c147 0 207 -62 207 -204v-13c0 -118 -30 -179 -121 -203l129 -293l43 -1v-34zM370 531v13c0 120 -42 168 -168 168c-26 0 -58 -2 -85 -4v-351
c24 -1 57 -2 86 -2c130 0 167 55 167 176zM589 -204h-124v34l43 1v670l-43 1v34h80v-32c32 22 78 42 126 42c103 0 132 -70 132 -246v-56c0 -180 -47 -253 -165 -253c-19 0 -50 2 -92 8v-168l43 -1v-34zM764 244v56c0 159 -19 211 -100 211c-42 0 -84 -19 -118 -39v-439
c41 -6 73 -7 92 -7c93 0 126 55 126 218z" />
    <glyph glyph-name="Q.alt" unicode="&#xe23c;" horiz-adv-x="485" 
d="M262 -179h-39v171c-131 10 -182 112 -182 343v73c0 240 55 344 202 344c146 0 201 -104 201 -344v-73c0 -231 -51 -333 -182 -343v-171zM243 27c112 0 161 76 161 308v73c0 232 -49 307 -161 307c-113 0 -163 -75 -163 -307v-73c0 -232 51 -308 163 -308z" />
    <glyph glyph-name="longs_h" unicode="&#xfb13;" horiz-adv-x="626" 
d="M608 0h-82v361c0 114 -19 150 -88 150c-45 0 -92 -20 -129 -45v-431l43 -1v-34h-125v34l43 1v696c-28 3 -61 5 -91 5c-60 0 -68 -25 -68 -101v-600l48 -1v-34h-135v34l48 1v600c0 86 14 134 101 134c33 0 66 -4 95 -9h41v-259c33 22 80 45 135 45c97 0 121 -63 121 -183
v-328l43 -1v-34z" />
    <glyph glyph-name="longs_l" unicode="&#xfb14;" horiz-adv-x="380" 
d="M362 0h-124v34l43 1v696c-32 2 -64 5 -99 5c-63 0 -71 -25 -71 -101v-600l48 -1v-34h-135v34l48 1v600c0 86 14 134 104 134c40 0 69 -4 102 -7h41v-727l43 -1v-34z" />
    <glyph glyph-name="longs_t" unicode="&#xfb05;" horiz-adv-x="448" 
d="M428 -1c-21 -5 -49 -8 -69 -8c-65 0 -82 32 -82 103v408l-90 4v30h90v194c-19 2 -61 6 -92 6c-66 0 -74 -26 -74 -102v-599l48 -1v-34h-135v34l48 1v599c0 92 16 135 107 135c38 0 77 -6 99 -10h37v-223h115v-34h-115v-405c0 -56 7 -73 50 -73c18 0 43 2 63 4v-29z" />
    <glyph glyph-name="longs_i" unicode="&#xfb15;" horiz-adv-x="391" 
d="M373 0h-124v34l43 1v466l-43 1v34h82v-501l42 -1v-34zM331 644h-39v118h39v-118zM239 732c-17 1 -45 3 -60 3c-60 0 -68 -25 -68 -101v-599l48 -1v-34h-135v34l48 1v599c0 86 14 134 101 134c20 0 48 -4 66 -8v-28z" />
    <glyph glyph-name="longs_longs" unicode="&#xfb16;" horiz-adv-x="497" 
d="M479 732c-17 1 -42 3 -59 3c-60 0 -69 -25 -69 -101v-599l49 -1v-34h-136v34l49 1v599c0 86 14 134 101 134c20 0 47 -4 65 -8v-28zM239 732c-17 1 -42 3 -59 3c-60 0 -69 -25 -69 -101v-599l49 -1v-34h-136v34l49 1v599c0 86 14 134 101 134c20 0 47 -4 65 -8v-28z" />
    <glyph glyph-name="zero.slash" unicode="&#xe466;" horiz-adv-x="459" 
d="M409 306c0 -221 -49 -315 -180 -315c-66 0 -111 24 -139 76l-36 -69h-39l57 110c-15 49 -22 115 -22 198v131c0 220 49 315 179 315c65 0 110 -24 139 -75l36 69h39l-57 -111c16 -49 23 -115 23 -198v-131zM369 306v131c0 59 -4 107 -11 146l-246 -473
c22 -61 61 -84 117 -84c97 0 140 70 140 280zM89 306c0 -59 3 -107 10 -146l246 473c-22 61 -60 84 -116 84c-97 0 -140 -70 -140 -280v-131z" />
    <glyph glyph-name="uni2219" unicode="&#x2219;" horiz-adv-x="127" 
d="M83 288h-39v132h39v-132z" />
    <glyph glyph-name="currency.taboldstyle" unicode="&#xe438;" horiz-adv-x="470" 
d="M433 182l-27 -26l-65 65c-30 -25 -69 -38 -105 -38c-38 0 -76 12 -107 38l-66 -65l-27 26l66 66c-25 30 -37 69 -37 106s12 75 37 105l-66 66l27 27l66 -66c31 26 69 38 106 38c38 0 75 -12 106 -37l65 64l27 -26l-65 -65c25 -31 38 -69 38 -107c0 -37 -12 -75 -38 -106z
M372 354c0 73 -61 137 -137 137c-73 0 -136 -61 -136 -137c0 -74 60 -138 136 -138c75 0 135 62 137 138z" />
    <glyph glyph-name="T_h" unicode="&#xfb10;" horiz-adv-x="778" 
d="M752 0h-85v361c0 114 -20 150 -88 150c-46 0 -93 -20 -130 -45v-431l46 -1v-34h-130v34l46 1v672h-169v-672l56 -2v-33h-150v33l55 2v672h-147l-3 -65h-31v101h427v-242c34 22 81 45 136 45c97 0 121 -63 121 -183v-328l46 -1v-34z" />
    <glyph glyph-name="hyphen.cap" unicode="&#xe13f;" horiz-adv-x="240" 
d="M204 381h-167v35h167v-35z" />
    <glyph glyph-name="parenleft.numerator" unicode="&#xe12b;" horiz-adv-x="177" 
d="M149 234h-36c-33 53 -72 140 -72 260v5c0 120 40 208 73 261h37c-37 -61 -74 -145 -74 -261v-5c0 -116 36 -199 72 -260z" />
    <glyph glyph-name="at.cap" unicode="&#xe138;" horiz-adv-x="597" 
d="M566 497c0 -164 -51 -332 -257 -332c-104 0 -140 49 -140 140c0 21 2 52 5 78c13 156 62 196 149 196c25 0 59 -4 97 -14l-32 -357c115 34 147 162 147 289c0 145 -59 228 -200 228c-154 0 -237 -95 -257 -352c-2 -27 -5 -66 -5 -100c0 -151 62 -249 213 -249
c49 0 100 6 118 9v-26c-19 -3 -70 -11 -119 -11c-170 0 -242 111 -242 279c0 35 2 74 4 101c24 267 111 377 288 377c164 0 231 -98 231 -256zM381 540c-12 3 -38 6 -58 6c-64 0 -100 -26 -113 -165c-2 -32 -4 -56 -4 -78c0 -72 26 -107 103 -107c19 0 29 1 41 3z" />
    <glyph glyph-name="parenleft.cap" unicode="&#xe140;" horiz-adv-x="208" 
d="M175 0h-36c-55 91 -94 225 -94 373v6c0 148 38 280 94 371h35c-57 -101 -92 -226 -92 -371v-6c0 -145 35 -272 93 -373z" />
    <glyph glyph-name="parenright.cap" unicode="&#xe141;" horiz-adv-x="208" 
d="M163 373c0 -148 -39 -282 -94 -373h-36c58 101 93 228 93 373v6c0 145 -35 270 -92 371h35c56 -91 94 -223 94 -371v-6z" />
    <glyph glyph-name="bracketleft.cap" unicode="&#xe13b;" horiz-adv-x="240" 
d="M202 0h-138v743h138v-33h-101v-677h101v-33z" />
    <glyph glyph-name="bracketright.cap" unicode="&#xe13c;" horiz-adv-x="230" 
d="M184 0h-138v33h102v677h-102v33h138v-743z" />
    <glyph glyph-name="braceleft.cap" unicode="&#xe139;" horiz-adv-x="270" 
d="M237 0h-25c-110 0 -119 59 -119 126v86c0 78 -15 103 -60 144v30c45 41 60 67 60 145v86c0 68 9 126 119 126h25v-34h-25c-77 0 -82 -33 -82 -92v-86c0 -80 -20 -118 -66 -160c46 -41 66 -79 66 -159v-86c0 -59 5 -92 82 -92h25v-34z" />
    <glyph glyph-name="braceright.cap" unicode="&#xe13a;" horiz-adv-x="270" 
d="M237 356c-45 -41 -59 -66 -59 -144v-86c0 -67 -10 -126 -119 -126h-26v34h26c76 0 81 33 81 92v86c0 80 20 118 66 159c-46 42 -66 80 -66 160v86c0 59 -5 92 -81 92h-26v34h26c109 0 119 -58 119 -126v-86c0 -78 14 -104 59 -145v-30z" />
    <glyph glyph-name="exclamdown.cap" unicode="&#xe142;" horiz-adv-x="164" 
d="M63 743h38v-123h-38v123zM100 552l2 -564h-40l2 564h36z" />
    <glyph glyph-name="questiondown.cap" unicode="&#xe143;" horiz-adv-x="330" 
d="M188 743h39v-125h-39v125zM35 130c0 71 16 115 73 191c70 95 81 120 81 190v40h37v-40c0 -72 -10 -108 -79 -198c-59 -77 -72 -113 -72 -183v-5c0 -83 37 -108 118 -108c22 0 45 2 69 5l3 64h32v-91c-34 -7 -77 -13 -108 -13c-96 0 -154 35 -154 143v5z" />
    <glyph glyph-name="guillemotleft.cap" unicode="&#xe134;" horiz-adv-x="438" 
d="M404 132h-45l-130 207l130 206h45l-128 -206zM214 132l-128 207l128 206h-46l-129 -206l129 -207h46z" />
    <glyph glyph-name="guillemotright.cap" unicode="&#xe135;" horiz-adv-x="438" 
d="M405 339l-130 -207h-46l129 207l-129 206h46zM214 339l-130 206h-45l128 -206l-128 -207h45z" />
    <glyph glyph-name="guilsinglleft.cap" unicode="&#xe136;" horiz-adv-x="247" 
d="M213 132h-45l-130 207l130 206h45l-128 -206z" />
    <glyph glyph-name="guilsinglright.cap" unicode="&#xe137;" horiz-adv-x="247" 
d="M214 339l-130 -207h-45l128 207l-128 206h45z" />
    <glyph glyph-name="endash.cap" unicode="&#xe13e;" horiz-adv-x="333" 
d="M298 347h-264v35h264v-35z" />
    <glyph glyph-name="emdash.cap" unicode="&#xe13d;" horiz-adv-x="444" 
d="M410 347h-376v35h376v-35z" />
    <glyph glyph-name="periodcentered.cap" unicode="&#xe22b;" horiz-adv-x="127" 
d="M83 334h-39v132h39v-132z" />
    <glyph glyph-name="percent.oldstyle" unicode="&#xe43a;" horiz-adv-x="731" 
d="M695 168c0 -116 -35 -176 -119 -176s-119 60 -119 176v10c0 117 35 176 119 176s119 -59 119 -176v-10zM660 167v11c0 106 -27 144 -84 144s-84 -38 -84 -144v-11c0 -105 27 -143 84 -143s84 38 84 143zM512 539l-248 -539h-37l248 539h37zM284 362
c0 -116 -35 -176 -119 -176c-85 0 -120 60 -120 176v11c0 116 35 175 120 175c84 0 119 -59 119 -175v-11zM249 362v11c0 105 -27 144 -84 144s-84 -39 -84 -144v-11c0 -105 27 -144 84 -144s84 39 84 144z" />
    <glyph glyph-name="perthousand.oldstyle" unicode="&#xe43b;" horiz-adv-x="1024" 
d="M988 168c0 -116 -34 -176 -119 -176c-84 0 -119 60 -119 176v10c0 117 35 176 119 176c85 0 119 -59 119 -176v-10zM954 167v11c0 106 -27 144 -85 144c-57 0 -84 -38 -84 -144v-11c0 -105 27 -143 84 -143c58 0 85 38 85 143zM695 168c0 -116 -35 -176 -119 -176
s-119 60 -119 176v10c0 117 35 176 119 176s119 -59 119 -176v-10zM660 167v11c0 106 -27 144 -84 144s-84 -38 -84 -144v-11c0 -105 27 -143 84 -143s84 38 84 143zM512 539l-248 -539h-37l248 539h37zM284 362c0 -116 -35 -176 -119 -176c-85 0 -120 60 -120 176v11
c0 116 35 175 120 175c84 0 119 -59 119 -175v-11zM249 362v11c0 105 -27 144 -84 144s-84 -39 -84 -144v-11c0 -105 27 -144 84 -144s84 39 84 144z" />
    <glyph glyph-name="figuredash" unicode="&#x2012;" horiz-adv-x="463" 
d="M454 274h-411v34h411v-34z" />
    <glyph glyph-name="threequartersemdash" unicode="&#x2015;" horiz-adv-x="620" 
d="M611 274h-568v34h568v-34z" />
    <glyph glyph-name="overscore" unicode="&#x203e;" horiz-adv-x="426" 
d="M426 839h-448v29h448v-29z" />
    <glyph glyph-name="onedotenleader" unicode="&#x2024;" horiz-adv-x="118" 
d="M81 0h-38v132h38v-132z" />
    <glyph glyph-name="twodotenleader" unicode="&#x2025;" horiz-adv-x="301" 
d="M246 0h-38v132h38v-132zM93 0v132h-38v-132h38z" />
    <glyph glyph-name="afii61352" unicode="&#x2116;" horiz-adv-x="854" 
d="M820 506c-1 -150 -34 -222 -136 -222c-103 0 -136 72 -136 222v32c0 150 33 221 136 221c102 0 136 -71 136 -221v-32zM785 506v32c0 135 -25 190 -101 190c-77 0 -102 -54 -102 -190v-32c0 -135 25 -191 102 -191c76 0 101 56 101 191zM550 211v30h271v-30h-271z
M508 709l-46 -1v-709h-59l-284 703h-2v-667l47 -1v-34h-131v34l46 1v673l-46 1v34h105l286 -695h1v660l-48 1v34h131v-34z" />
    <glyph glyph-name="parenleft.denominator" unicode="&#xe117;" horiz-adv-x="177" 
d="M149 -78h-37c-32 53 -72 140 -72 260v5c0 120 41 208 74 261h36c-37 -61 -73 -145 -73 -261v-5c0 -116 35 -199 72 -260z" />
    <glyph glyph-name="period.numerator" unicode="&#xe133;" horiz-adv-x="94" 
d="M67 305h-36v88h36v-88z" />
    <glyph glyph-name="parenright.numerator" unicode="&#xe12c;" horiz-adv-x="177" 
d="M138 494c0 -120 -40 -207 -72 -260h-37c37 61 72 144 72 260v5c0 116 -37 200 -73 261h36c33 -53 74 -141 74 -261v-5z" />
    <glyph glyph-name="cent.numerator" unicode="&#xe12d;" horiz-adv-x="276" 
d="M250 317c-23 -5 -51 -8 -76 -8v-78h-33v80c-70 9 -109 52 -109 178v84c0 123 39 169 109 178v78h33v-77c25 0 53 -3 76 -7v-72h-29l-2 44c-19 1 -36 2 -51 2c-67 0 -100 -29 -100 -146v-84c0 -118 33 -146 102 -146c25 0 57 2 80 4v-30z" />
    <glyph glyph-name="dollar.numerator" unicode="&#xe131;" horiz-adv-x="291" 
d="M263 420c0 -69 -39 -107 -100 -116v-73h-34v71c-35 1 -71 6 -92 10v74h30l2 -48c20 -2 43 -4 67 -4c66 0 90 30 90 85c0 45 -19 62 -67 92l-50 31c-46 29 -80 58 -80 113c0 64 42 94 100 100v75h34v-75c33 0 71 -5 87 -8v-75h-29l-3 48c-27 2 -42 3 -64 3
c-53 0 -89 -16 -89 -68c0 -39 25 -60 64 -84l48 -29c57 -34 86 -64 86 -122z" />
    <glyph glyph-name="hyphen.numerator" unicode="&#xe132;" horiz-adv-x="197" 
d="M165 471h-133v30h133v-30z" />
    <glyph glyph-name="comma.numerator" unicode="&#xe130;" horiz-adv-x="117" 
d="M90 393l-45 -145h-30l38 145h37z" />
    <glyph glyph-name="parenright.denominator" unicode="&#xe118;" horiz-adv-x="177" 
d="M137 182c0 -120 -39 -207 -72 -260h-36c36 61 72 144 72 260v5c0 116 -37 200 -74 261h37c33 -53 73 -141 73 -261v-5z" />
    <glyph glyph-name="cent.denominator" unicode="&#xe119;" horiz-adv-x="276" 
d="M249 9c-23 -5 -52 -8 -76 -8v-78h-33v80c-69 9 -109 51 -109 178v85c0 122 39 168 109 177v78h33v-76c24 -1 53 -4 76 -8v-72h-29l-2 44c-19 1 -36 2 -51 2c-67 0 -101 -29 -101 -145v-85c0 -118 33 -146 102 -146c26 0 57 2 81 4v-30z" />
    <glyph glyph-name="dollar.denominator" unicode="&#xe11b;" horiz-adv-x="291" 
d="M263 112c0 -69 -39 -107 -100 -116v-73h-34v71c-35 1 -71 6 -92 10v74h30l2 -48c20 -2 43 -4 67 -4c66 0 90 30 90 85c0 45 -19 62 -67 92l-50 31c-46 29 -80 58 -80 113c0 64 42 94 100 100v75h34v-75c33 0 71 -5 87 -8v-75h-29l-3 48c-27 2 -42 3 -64 3
c-53 0 -89 -16 -89 -68c0 -39 25 -60 64 -84l48 -29c57 -34 86 -64 86 -122z" />
    <glyph glyph-name="hyphen.denominator" unicode="&#xe11c;" horiz-adv-x="197" 
d="M165 166h-133v30h133v-30z" />
    <glyph glyph-name="comma.denominator" unicode="&#xe11a;" horiz-adv-x="117" 
d="M90 88l-45 -145h-30l38 145h37z" />
    <glyph glyph-name="period.denominator" unicode="&#xe11d;" horiz-adv-x="94" 
d="M67 0h-36v88h36v-88z" />
    <glyph glyph-name="T_h.caron" unicode="&#xfb11;" horiz-adv-x="778" 
d="M752 0h-85v361c0 114 -20 150 -88 150c-46 0 -93 -20 -130 -45v-431l46 -1v-34h-130v34l46 1v672h-169v-672l56 -2v-33h-150v33l55 2v672h-147l-3 -65h-31v101h427v-242c34 22 81 45 136 45c97 0 121 -63 121 -183v-328l46 -1v-34zM318 953h39l-110 -153h-49l-110 153h39
l95 -129z" />
    <glyph glyph-name="T_h.commaaccent" unicode="&#xfb12;" horiz-adv-x="778" 
d="M752 0h-85v361c0 114 -20 150 -88 150c-46 0 -93 -20 -130 -45v-431l46 -1v-34h-130v34l46 1v672h-169v-672l56 -2v-33h-150v33l55 2v672h-147l-3 -65h-31v101h427v-242c34 22 81 45 136 45c97 0 121 -63 121 -183v-328l46 -1v-34zM264 -62l-85 -142h-37l76 142h46z" />
    <glyph glyph-name="g" unicode="g" horiz-adv-x="398" 
d="M363 -39c0 -94 -36 -170 -164 -170c-129 0 -164 75 -164 170c0 62 20 102 46 133c-29 12 -43 36 -43 67c0 30 16 61 41 79c-28 30 -38 78 -38 127c0 89 20 179 156 179h162v-31l-65 -2c38 -24 55 -73 55 -146c0 -87 -28 -169 -154 -169c-43 0 -71 9 -92 22
c-19 -13 -31 -36 -31 -56c0 -28 12 -45 51 -45h70c126 0 170 -41 170 -158zM325 -39c0 92 -21 124 -132 124h-79c-23 -27 -41 -59 -41 -123c0 -80 22 -137 126 -137c103 0 126 56 126 136zM311 367c0 76 -12 145 -116 145c-107 0 -116 -71 -116 -145s14 -135 116 -135
c103 0 116 63 116 135z" />
    <glyph glyph-name="e.alt" unicode="&#xe249;" horiz-adv-x="387" 
d="M350 258h-273v-20c0 -152 28 -213 135 -213c31 0 67 3 94 7l4 65h31v-91c-29 -6 -80 -15 -131 -15c-137 0 -172 85 -172 252v49c0 161 35 254 156 254s156 -92 156 -255v-33zM311 291v12c0 131 -21 208 -117 208c-99 0 -117 -81 -117 -209v-11h234z" />
    <glyph glyph-name="uni00AD" unicode="&#xad;" horiz-adv-x="270" 
d="M228 268h-185v35h185v-35z" />
    <glyph glyph-name="uni00A0" unicode="&#xa0;" horiz-adv-x="171" 
 />
    <glyph glyph-name="peseta.taboldstyle" unicode="&#xe439;" horiz-adv-x="395" 
d="M368 371h-44c-5 -96 -45 -143 -154 -143c-14 0 -37 1 -61 2v-198l46 -1v-31h-117v31l34 1v339h-43v33h43v103l-34 2v30c57 3 96 4 133 4c108 0 149 -42 153 -139h44v-33zM288 382v12c0 85 -28 116 -118 116c-21 0 -43 -1 -61 -2v-245c27 -1 48 -2 61 -2
c91 0 118 37 118 121z" />
    <glyph glyph-name="ampersand.alt" unicode="&#xe43d;" horiz-adv-x="504" 
d="M438 393c0 -110 -6 -219 -44 -296l69 -97h-47l-44 62c-34 -44 -85 -71 -161 -71c-82 0 -170 38 -170 180v6c0 88 29 141 109 196l-11 17c-52 74 -79 121 -79 208v4c0 102 58 150 150 150c93 0 148 -48 148 -150v-4c0 -85 -36 -148 -156 -231l170 -239
c29 70 31 168 31 265h35zM210 25c69 0 113 25 141 66l-180 254c-72 -48 -91 -88 -92 -168v-6c0 -106 60 -146 131 -146zM173 408l9 -13c108 74 138 128 138 203v4c0 91 -48 115 -110 115c-63 0 -111 -24 -111 -115v-4c0 -79 23 -118 74 -190z" />
    <glyph glyph-name="a.alt2" unicode="&#xe43e;" horiz-adv-x="386" 
d="M363 0h-79v33c-34 -23 -78 -42 -129 -42c-91 0 -119 56 -119 152v12c0 115 45 160 181 160h65v70c0 101 -17 126 -113 126c-27 0 -63 -3 -105 -9v32c34 6 75 12 109 12c124 0 147 -42 147 -161v-350l43 -1v-34zM282 63v220h-65c-113 0 -143 -31 -143 -128v-15
c0 -82 24 -116 89 -116c45 0 89 19 119 39z" />
    <glyph glyph-name="gcircumflex.alt" unicode="&#xe56e;" horiz-adv-x="405" 
d="M51 -197v31c40 -4 83 -8 122 -8c99 0 121 39 121 162v20c-21 -7 -59 -17 -98 -17c-116 0 -158 68 -158 224v107c0 156 45 224 171 224c29 0 69 -4 109 -10h57v-34l-42 -1v-513c0 -137 -33 -196 -158 -196c-47 0 -102 7 -124 11zM294 42v465c-33 3 -66 4 -85 4
c-99 0 -132 -50 -132 -189v-107c0 -139 28 -189 120 -189c37 0 75 9 97 16zM331 607h-39l-96 129l-95 -129h-39l110 153h49z" />
    <glyph glyph-name="gbreve.alt" unicode="&#xe56d;" horiz-adv-x="405" 
d="M313 764c-3 -88 -20 -160 -119 -160c-98 0 -115 72 -118 160h30c4 -82 16 -131 88 -131c73 0 85 49 88 131h31zM51 -197v31c40 -4 83 -8 122 -8c99 0 121 39 121 162v20c-21 -7 -59 -17 -98 -17c-116 0 -158 68 -158 224v107c0 156 45 224 171 224c29 0 69 -4 109 -10h57
v-34l-42 -1v-513c0 -137 -33 -196 -158 -196c-47 0 -102 7 -124 11zM294 42v465c-33 3 -66 4 -85 4c-99 0 -132 -50 -132 -189v-107c0 -139 28 -189 120 -189c37 0 75 9 97 16z" />
    <glyph glyph-name="gdotaccent.alt" unicode="&#xe570;" horiz-adv-x="405" 
d="M51 -197v31c40 -4 83 -8 122 -8c99 0 121 39 121 162v20c-21 -7 -59 -17 -98 -17c-116 0 -158 68 -158 224v107c0 156 45 224 171 224c29 0 69 -4 109 -10h57v-34l-42 -1v-513c0 -137 -33 -196 -158 -196c-47 0 -102 7 -124 11zM294 42v465c-33 3 -66 4 -85 4
c-99 0 -132 -50 -132 -189v-107c0 -139 28 -189 120 -189c37 0 75 9 97 16zM220 645h-39v116h39v-116z" />
    <glyph glyph-name="gcommaaccent.alt" unicode="&#xe56f;" horiz-adv-x="405" 
d="M51 -197v31c40 -4 83 -8 122 -8c99 0 121 39 121 162v20c-21 -7 -59 -17 -98 -17c-116 0 -158 68 -158 224v107c0 156 45 224 171 224c29 0 69 -4 109 -10h57v-34l-42 -1v-513c0 -137 -33 -196 -158 -196c-47 0 -102 7 -124 11zM294 42v465c-33 3 -66 4 -85 4
c-99 0 -132 -50 -132 -189v-107c0 -139 28 -189 120 -189c37 0 75 9 97 16zM301 749l-78 -142h-44l84 142h38z" />
    <glyph glyph-name="egrave.alt" unicode="&#xe289;" horiz-adv-x="389" 
d="M350 258h-273v-20c0 -152 28 -213 135 -213c31 0 67 3 94 7l4 65h31v-91c-29 -6 -80 -15 -131 -15c-137 0 -172 85 -172 252v49c0 161 35 254 156 254s156 -92 156 -255v-33zM311 291v12c0 131 -21 208 -117 208c-99 0 -117 -81 -117 -209v-11h234zM230 607h-38l-108 153
h44z" />
    <glyph glyph-name="eacute.alt" unicode="&#xe288;" horiz-adv-x="389" 
d="M304 760l-108 -153h-38l102 153h44zM350 258h-273v-20c0 -152 28 -213 135 -213c31 0 67 3 94 7l4 65h31v-91c-29 -6 -80 -15 -131 -15c-137 0 -172 85 -172 252v49c0 161 35 254 156 254s156 -92 156 -255v-33zM311 291v12c0 131 -21 208 -117 208
c-99 0 -117 -81 -117 -209v-11h234z" />
    <glyph glyph-name="ecircumflex.alt" unicode="&#xe28a;" horiz-adv-x="389" 
d="M350 258h-273v-20c0 -152 28 -213 135 -213c31 0 67 3 94 7l4 65h31v-91c-29 -6 -80 -15 -131 -15c-137 0 -172 85 -172 252v49c0 161 35 254 156 254s156 -92 156 -255v-33zM311 291v12c0 131 -21 208 -117 208c-99 0 -117 -81 -117 -209v-11h234zM330 607h-39l-96 129
l-95 -129h-39l110 153h49z" />
    <glyph glyph-name="ecaron.alt" unicode="&#xe444;" horiz-adv-x="389" 
d="M295 760h39l-110 -153h-49l-110 153h39l95 -129zM350 258h-273v-20c0 -152 28 -213 135 -213c31 0 67 3 94 7l4 65h31v-91c-29 -6 -80 -15 -131 -15c-137 0 -172 85 -172 252v49c0 161 35 254 156 254s156 -92 156 -255v-33zM311 291v12c0 131 -21 208 -117 208
c-99 0 -117 -81 -117 -209v-11h234z" />
    <glyph glyph-name="edieresis.alt" unicode="&#xe28b;" horiz-adv-x="389" 
d="M350 258h-273v-20c0 -152 28 -213 135 -213c31 0 67 3 94 7l4 65h31v-91c-29 -6 -80 -15 -131 -15c-137 0 -172 85 -172 252v49c0 161 35 254 156 254s156 -92 156 -255v-33zM311 291v12c0 131 -21 208 -117 208c-99 0 -117 -81 -117 -209v-11h234zM298 630h-37v116h37
v-116zM118 630v116h-37v-116h37z" />
    <glyph glyph-name="emacron.alt" unicode="&#xe445;" horiz-adv-x="389" 
d="M350 258h-273v-20c0 -152 28 -213 135 -213c31 0 67 3 94 7l4 65h31v-91c-29 -6 -80 -15 -131 -15c-137 0 -172 85 -172 252v49c0 161 35 254 156 254s156 -92 156 -255v-33zM311 291v12c0 131 -21 208 -117 208c-99 0 -117 -81 -117 -209v-11h234zM328 667h-270v33h270
v-33z" />
    <glyph glyph-name="ebreve.alt" unicode="&#xe446;" horiz-adv-x="389" 
d="M312 764c-3 -88 -20 -160 -119 -160c-98 0 -115 72 -118 160h30c4 -82 16 -131 88 -131c73 0 85 49 88 131h31zM350 258h-273v-20c0 -152 28 -213 135 -213c31 0 67 3 94 7l4 65h31v-91c-29 -6 -80 -15 -131 -15c-137 0 -172 85 -172 252v49c0 161 35 254 156 254
s156 -92 156 -255v-33zM311 291v12c0 131 -21 208 -117 208c-99 0 -117 -81 -117 -209v-11h234z" />
    <glyph glyph-name="edotaccent.alt" unicode="&#xe448;" horiz-adv-x="389" 
d="M350 258h-273v-20c0 -152 28 -213 135 -213c31 0 67 3 94 7l4 65h31v-91c-29 -6 -80 -15 -131 -15c-137 0 -172 85 -172 252v49c0 161 35 254 156 254s156 -92 156 -255v-33zM311 291v12c0 131 -21 208 -117 208c-99 0 -117 -81 -117 -209v-11h234zM213 647h-39v116h39
v-116z" />
    <glyph glyph-name="eogonek.alt" unicode="&#xe44a;" horiz-adv-x="389" 
d="M350 258h-273v-20c0 -155 29 -212 135 -212c30 0 64 3 94 7l5 64h30v-91c-90 -50 -132 -88 -132 -135c0 -36 18 -57 69 -57c24 0 49 3 63 6v-26c-16 -4 -41 -8 -67 -8c-74 0 -100 36 -100 85c0 47 40 88 96 123c-19 -2 -39 -3 -60 -3c-133 0 -172 74 -172 251v50
c0 164 35 254 156 254s156 -88 156 -256v-32zM311 291v12c0 136 -22 208 -117 208c-98 0 -117 -76 -117 -209v-11h234z" />
    <glyph glyph-name="ugrave.alt" unicode="&#xe297;" horiz-adv-x="418" 
d="M264 607h-38l-108 153h44zM368 248c0 -179 -30 -257 -147 -257s-148 78 -148 257v253l-43 2v33h82v-288c0 -164 21 -222 109 -222s108 58 108 222v253l-42 2v33h81v-288z" />
    <glyph glyph-name="uacute.alt" unicode="&#xe296;" horiz-adv-x="418" 
d="M333 760l-108 -153h-38l102 153h44zM368 248c0 -179 -30 -257 -147 -257s-148 78 -148 257v253l-43 2v33h82v-288c0 -164 21 -222 109 -222s108 58 108 222v253l-42 2v33h81v-288z" />
    <glyph glyph-name="ucircumflex.alt" unicode="&#xe298;" horiz-adv-x="418" 
d="M368 248c0 -179 -30 -257 -147 -257s-148 78 -148 257v253l-43 2v33h82v-288c0 -164 21 -222 109 -222s108 58 108 222v253l-42 2v33h81v-288zM359 607h-39l-96 129l-95 -129h-39l110 153h49z" />
    <glyph glyph-name="utilde.alt" unicode="&#xe44b;" horiz-adv-x="418" 
d="M368 714c0 -68 -14 -109 -68 -109c-35 0 -57 22 -83 58l-20 28c-22 31 -35 46 -58 46c-34 0 -38 -31 -38 -78v-50h-31v50c0 67 16 108 69 108c34 0 54 -20 80 -56l20 -28c22 -31 38 -48 61 -48c33 0 38 31 38 79v49h30v-49zM368 248c0 -179 -30 -257 -147 -257
s-148 78 -148 257v253l-43 2v33h82v-288c0 -164 21 -222 109 -222s108 58 108 222v253l-42 2v33h81v-288z" />
    <glyph glyph-name="udieresis.alt" unicode="&#xe299;" horiz-adv-x="418" 
d="M368 248c0 -179 -30 -257 -147 -257s-148 78 -148 257v253l-43 2v33h82v-288c0 -164 21 -222 109 -222s108 58 108 222v253l-42 2v33h81v-288zM330 630h-37v116h37v-116zM150 630v116h-37v-116h37z" />
    <glyph glyph-name="umacron.alt" unicode="&#xe44c;" horiz-adv-x="418" 
d="M368 248c0 -179 -30 -257 -147 -257s-148 78 -148 257v253l-43 2v33h82v-288c0 -164 21 -222 109 -222s108 58 108 222v253l-42 2v33h81v-288zM352 670h-270v33h270v-33z" />
    <glyph glyph-name="ubreve.alt" unicode="&#xe44d;" horiz-adv-x="418" 
d="M341 764c-3 -88 -20 -160 -119 -160c-98 0 -115 72 -118 160h30c4 -82 16 -131 88 -131c73 0 85 49 88 131h31zM368 248c0 -179 -30 -257 -147 -257s-148 78 -148 257v253l-43 2v33h82v-288c0 -164 21 -222 109 -222s108 58 108 222v253l-42 2v33h81v-288z" />
    <glyph glyph-name="uring.alt" unicode="&#xe44e;" horiz-adv-x="418" 
d="M317 697c0 -72 -39 -106 -97 -106s-99 34 -99 106s41 106 99 106s97 -35 97 -106zM288 697c0 60 -31 79 -68 79c-38 0 -68 -19 -68 -79s30 -79 68 -79c37 0 68 20 68 79zM368 248c0 -179 -30 -257 -147 -257s-148 78 -148 257v253l-43 2v33h82v-288
c0 -164 21 -222 109 -222s108 58 108 222v253l-42 2v33h81v-288z" />
    <glyph glyph-name="uhungarumlaut.alt" unicode="&#xe44f;" horiz-adv-x="418" 
d="M368 248c0 -179 -30 -257 -147 -257s-148 78 -148 257v253l-43 2v33h82v-288c0 -164 21 -222 109 -222s108 58 108 222v253l-42 2v33h81v-288zM422 760l-108 -153h-38l102 153h44zM273 760h-44l-102 -153h38z" />
    <glyph glyph-name="uogonek.alt" unicode="&#xe450;" horiz-adv-x="418" 
d="M368 248c0 -147 -21 -226 -93 -249c-75 -44 -110 -80 -110 -123c0 -36 18 -62 69 -62c24 0 49 3 63 6v-26c-16 -4 -41 -8 -67 -8c-74 0 -100 41 -100 90c0 43 34 82 83 115c-110 4 -140 82 -140 257v253l-43 2v33h82v-288c0 -164 21 -222 109 -222s108 58 108 222v253
l-42 2v33h81v-288z" />
    <glyph glyph-name="A.sc" unicode="&#xe000;" horiz-adv-x="403" 
d="M384 0h-91v30l23 1l-41 169h-148l-41 -169l25 -1v-30h-92v31l27 1l118 473l-36 1v31h101l126 -505l29 -1v-31zM268 233l-48 195c-7 29 -13 55 -18 80h-2c-5 -26 -10 -50 -18 -80l-48 -195h134z" />
    <glyph glyph-name="B.sc" unicode="&#xe008;" horiz-adv-x="358" 
d="M327 145c0 -99 -44 -149 -158 -149c-53 0 -96 4 -138 4v31l31 1v473l-31 1v31c42 0 96 3 135 3c117 0 159 -42 159 -133v-9c0 -49 -13 -99 -74 -118c62 -17 76 -69 76 -126v-9zM290 145v9c0 60 -12 112 -104 112h-88v-235c14 -1 43 -3 71 -3c91 0 121 38 121 117z
M288 398v9c0 73 -30 100 -122 100c-23 0 -50 -1 -68 -1v-209h88c92 0 102 50 102 101z" />
    <glyph glyph-name="C.sc" unicode="&#xe009;" horiz-adv-x="320" 
d="M289 4c-10 -2 -50 -11 -95 -11c-110 0 -157 65 -157 230v90c0 165 47 230 157 230c45 0 85 -9 95 -11v-75h-29l-2 48c-15 1 -39 4 -63 4c-89 0 -121 -54 -121 -196v-90c0 -142 32 -196 121 -196c24 0 48 3 63 4l2 49h29v-76z" />
    <glyph glyph-name="D.sc" unicode="&#xe00b;" horiz-adv-x="375" 
d="M343 241c0 -155 -36 -245 -178 -245c-44 0 -88 2 -134 4v31l31 2v471l-31 2v31c49 1 90 4 134 4c142 0 178 -89 178 -245v-55zM305 241v55c0 149 -34 211 -140 211c-24 0 -51 -1 -66 -2v-473c19 -1 41 -3 66 -3c107 0 140 64 140 212z" />
    <glyph glyph-name="E.sc" unicode="&#xe00d;" horiz-adv-x="332" 
d="M294 0h-263v31l31 1v473l-31 1v31h263v-77h-29l-2 44h-165v-205h182v-33h-182v-233h165l2 45h29v-78z" />
    <glyph glyph-name="F.sc" unicode="&#xe012;" horiz-adv-x="322" 
d="M279 266h-180v-234l36 -1v-31h-104v31l31 1v473l-30 1v31h261v-77h-29l-2 44h-163v-205h180v-33z" />
    <glyph glyph-name="G.sc" unicode="&#xe013;" horiz-adv-x="346" 
d="M303 4c-22 -3 -64 -11 -106 -11c-106 0 -160 64 -160 229v92c0 170 56 229 161 229c47 0 92 -9 105 -12v-71h-29l-3 44c-18 2 -44 5 -69 5c-90 0 -127 -46 -127 -195v-92c0 -144 37 -195 124 -195c22 0 45 2 68 5v214l-61 2v30h97v-274z" />
    <glyph glyph-name="H.sc" unicode="&#xe014;" horiz-adv-x="418" 
d="M386 0h-98v31l30 1v238h-218v-238l30 -1v-31h-98v31l31 1v473l-31 1v31h98v-31l-30 -1v-202h218v202l-30 1v31h98v-31l-31 -1v-473l31 -1v-31z" />
    <glyph glyph-name="I.sc" unicode="&#xe015;" horiz-adv-x="171" 
d="M137 0h-104v31l34 1v473l-34 1v31h104v-31l-33 -1v-473l33 -1v-31z" />
    <glyph glyph-name="J.sc" unicode="&#xe01a;" horiz-adv-x="171" 
d="M137 506l-33 -1v-557c0 -54 -13 -88 -76 -88c-14 0 -29 2 -41 4v27h36c41 0 44 19 44 57v557l-34 1v31h104v-31z" />
    <glyph glyph-name="K.sc" unicode="&#xe01b;" horiz-adv-x="366" 
d="M340 0h-60l-179 265v-233l31 -1v-31h-98v31l31 1v473l-31 1v31h98v-31l-31 -1v-226l180 258h59v-31l-34 -1l-164 -232l165 -241l33 -1v-31z" />
    <glyph glyph-name="L.sc" unicode="&#xe01c;" horiz-adv-x="310" 
d="M285 0h-254v31l31 1v473l-31 1v31h99v-31l-31 -1v-472h155l2 57h29v-90z" />
    <glyph glyph-name="M.sc" unicode="&#xe01e;" horiz-adv-x="461" 
d="M436 0h-97v30l30 1v461h-1l-114 -258h-42l-114 258h-1v-461l31 -1v-30h-98v31l31 1v473l-31 1v31h82l120 -271h2l119 271h83v-31l-31 -1v-473l31 -1v-31z" />
    <glyph glyph-name="N.sc" unicode="&#xe01f;" horiz-adv-x="419" 
d="M388 506l-31 -1v-505h-48l-212 487h-1v-455l31 -2v-30h-96v31l31 1v473l-31 1v31h79l212 -484h1v452l-31 1v31h96v-31z" />
    <glyph glyph-name="O.sc" unicode="&#xe021;" horiz-adv-x="379" 
d="M342 225c0 -157 -44 -232 -152 -232c-109 0 -153 75 -153 232v86c0 157 45 232 153 232s152 -74 152 -232v-86zM305 225v86c0 144 -36 198 -115 198s-116 -55 -116 -198v-86c0 -143 37 -198 116 -198s115 54 115 198z" />
    <glyph glyph-name="P.sc" unicode="&#xe029;" horiz-adv-x="347" 
d="M318 380c0 -106 -44 -153 -155 -153c-14 0 -36 1 -61 2v-196l43 -2v-31h-114v31l34 1v474l-34 1v30c56 2 92 3 130 3c113 0 156 -42 157 -148v-12zM281 380v12c0 85 -27 115 -119 115c-20 0 -38 0 -60 -1v-245c26 -1 46 -1 60 -1c93 0 119 35 119 120z" />
    <glyph glyph-name="Q.sc" unicode="&#xe02b;" horiz-adv-x="375" 
d="M342 225c0 -148 -39 -223 -134 -231v-54c0 -32 3 -44 41 -44h42v-26c-12 -2 -33 -4 -51 -4c-55 0 -68 25 -68 73v55c-96 8 -135 83 -135 231v86c0 157 45 232 153 232s152 -74 152 -232v-86zM305 225v86c0 144 -36 198 -115 198s-116 -55 -116 -198v-86
c0 -143 37 -198 116 -198s115 54 115 198z" />
    <glyph glyph-name="R.sc" unicode="&#xe02c;" horiz-adv-x="369" 
d="M356 0h-59l-106 229c-10 0 -19 -1 -30 -1c-18 0 -42 1 -60 1v-197l34 -1v-31h-104v31l34 1v473l-34 1v31c43 0 85 4 129 4c112 0 157 -44 157 -150v-9c0 -80 -20 -129 -89 -146l95 -204l33 -1v-31zM280 382v9c0 86 -27 117 -119 117c-19 0 -44 -1 -60 -2v-245
c19 0 40 -1 60 -1c98 0 119 40 119 122z" />
    <glyph glyph-name="S.sc" unicode="&#xe02d;" horiz-adv-x="314" 
d="M284 132c0 -71 -32 -139 -139 -139c-39 0 -78 5 -108 9v76h29l2 -49c25 -2 50 -3 75 -3c80 0 103 47 103 106c0 55 -21 81 -83 126l-40 29c-62 45 -90 84 -90 143c0 68 41 113 133 113c42 0 84 -6 104 -10v-74h-29l-2 49c-20 1 -46 2 -71 2c-67 0 -98 -28 -98 -81
c0 -46 22 -76 76 -115l39 -28c71 -51 99 -87 99 -154z" />
    <glyph glyph-name="T.sc" unicode="&#xe02f;" horiz-adv-x="348" 
d="M324 459h-29l-2 45h-101v-472l35 -2v-30h-107v30l35 2v472h-100l-2 -45h-29v78h300v-78z" />
    <glyph glyph-name="U.sc" unicode="&#xe030;" horiz-adv-x="405" 
d="M373 506l-30 -1v-296c0 -137 -27 -216 -141 -216c-113 0 -140 79 -140 216v296l-31 1v31h98v-31l-30 -2v-292c0 -130 18 -186 103 -186c86 0 103 56 103 186v292l-30 2v31h98v-31z" />
    <glyph glyph-name="V.sc" unicode="&#xe035;" horiz-adv-x="410" 
d="M388 506l-29 -1l-126 -505h-55l-127 505l-30 1v31h96v-30l-27 -2l97 -393c6 -27 12 -56 18 -82h1c6 26 11 55 18 82l96 393l-27 2v30h95v-31z" />
    <glyph glyph-name="W.sc" unicode="&#xe036;" horiz-adv-x="537" 
d="M515 506l-31 -1l-78 -505h-53l-69 268c-6 22 -11 45 -15 65h-2c-4 -20 -9 -43 -14 -65l-69 -268h-54l-78 505l-31 1v31h100v-30l-31 -2l58 -387c4 -28 7 -54 11 -82h2c5 26 11 54 17 82l65 244h52l64 -245c5 -28 11 -52 17 -81h2c4 30 7 54 11 82l57 387l-30 2v30h99v-31
z" />
    <glyph glyph-name="X.sc" unicode="&#xe037;" horiz-adv-x="390" 
d="M369 0h-104v30l28 1l-99 202l-100 -202l29 -1v-30h-102v31l33 1l119 241l-116 232l-32 1v31h103v-30l-29 -1l97 -195l96 195l-28 1v30h102v-31l-34 -1l-115 -233l118 -240l34 -1v-31z" />
    <glyph glyph-name="Y.sc" unicode="&#xe038;" horiz-adv-x="359" 
d="M339 506l-33 -1l-108 -286v-187l35 -1v-31h-107v31l36 1v187l-109 286l-32 1v31h99v-30l-29 -2l66 -173c7 -22 16 -50 23 -69l3 4c6 18 14 45 21 65l64 173l-28 2v30h99v-31z" />
    <glyph glyph-name="Z.sc" unicode="&#xe03b;" horiz-adv-x="337" 
d="M306 0h-275v36l228 468h-188l-2 -45h-28v78h258v-37l-228 -468h204l3 50h28v-82z" />
    <glyph glyph-name="Aacute.sc" unicode="&#xe002;" horiz-adv-x="403" 
d="M384 0h-91v30l23 1l-41 169h-148l-41 -169l25 -1v-30h-92v31l27 1l118 473l-36 1v31h101l126 -505l29 -1v-31zM268 233l-48 195c-7 29 -13 55 -18 80h-2c-5 -26 -10 -50 -18 -80l-48 -195h134zM308 760l-108 -153h-38l102 153h44z" />
    <glyph glyph-name="Acircumflex.sc" unicode="&#xe003;" horiz-adv-x="403" 
d="M384 0h-91v30l23 1l-41 169h-148l-41 -169l25 -1v-30h-92v31l27 1l118 473l-36 1v31h101l126 -505l29 -1v-31zM268 233l-48 195c-7 29 -13 55 -18 80h-2c-5 -26 -10 -50 -18 -80l-48 -195h134zM336 607h-39l-96 129l-95 -129h-39l110 153h49z" />
    <glyph glyph-name="Adieresis.sc" unicode="&#xe004;" horiz-adv-x="403" 
d="M384 0h-91v30l23 1l-41 169h-148l-41 -169l25 -1v-30h-92v31l27 1l118 473l-36 1v31h101l126 -505l29 -1v-31zM268 233l-48 195c-7 29 -13 55 -18 80h-2c-5 -26 -10 -50 -18 -80l-48 -195h134zM311 628h-37v116h37v-116zM131 628v116h-37v-116h37z" />
    <glyph glyph-name="Agrave.sc" unicode="&#xe005;" horiz-adv-x="403" 
d="M384 0h-91v30l23 1l-41 169h-148l-41 -169l25 -1v-30h-92v31l27 1l118 473l-36 1v31h101l126 -505l29 -1v-31zM268 233l-48 195c-7 29 -13 55 -18 80h-2c-5 -26 -10 -50 -18 -80l-48 -195h134zM239 607h-38l-108 153h44z" />
    <glyph glyph-name="Atilde.sc" unicode="&#xe007;" horiz-adv-x="403" 
d="M384 0h-91v30l23 1l-41 169h-148l-41 -169l25 -1v-30h-92v31l27 1l118 473l-36 1v31h101l126 -505l29 -1v-31zM268 233l-48 195c-7 29 -13 55 -18 80h-2c-5 -26 -10 -50 -18 -80l-48 -195h134zM351 714c0 -68 -14 -109 -68 -109c-35 0 -57 22 -83 58l-20 28
c-22 31 -35 46 -58 46c-34 0 -38 -31 -38 -78v-50h-31v50c0 67 16 108 69 108c34 0 54 -20 80 -56l20 -28c22 -31 38 -48 61 -48c33 0 38 31 38 79v49h30v-49z" />
    <glyph glyph-name="AE.sc" unicode="&#xe001;" horiz-adv-x="522" 
d="M484 537v-77h-29l-2 44h-164v-205h181v-33h-181v-233h164l2 45h29v-78h-263v31l31 1v168h-132l-48 -200h-60v31l28 1l118 473l-38 1v31h364zM127 233h125v272h-58c-6 -26 -12 -48 -17 -72z" />
    <glyph glyph-name="Aring.sc" unicode="&#xe006;" horiz-adv-x="403" 
d="M384 0h-91v30l23 1l-41 169h-148l-41 -169l25 -1v-30h-92v31l27 1l118 473l-36 1v31h101l126 -505l29 -1v-31zM268 233l-48 195c-7 29 -13 55 -18 80h-2c-5 -26 -10 -50 -18 -80l-48 -195h134zM300 697c0 -72 -39 -106 -97 -106s-99 34 -99 106s41 106 99 106
s97 -35 97 -106zM271 697c0 60 -31 79 -68 79c-38 0 -68 -19 -68 -79s30 -79 68 -79c37 0 68 20 68 79z" />
    <glyph glyph-name="Abreve.sc" unicode="&#xe040;" horiz-adv-x="403" 
d="M384 0h-91v30l23 1l-41 169h-148l-41 -169l25 -1v-30h-92v31l27 1l118 473l-36 1v31h101l126 -505l29 -1v-31zM268 233l-48 195c-7 29 -13 55 -18 80h-2c-5 -26 -10 -50 -18 -80l-48 -195h134zM320 764c-3 -88 -20 -160 -119 -160c-98 0 -115 72 -118 160h30
c4 -82 16 -131 88 -131c73 0 85 49 88 131h31z" />
    <glyph glyph-name="Amacron.sc" unicode="&#xe041;" horiz-adv-x="403" 
d="M384 0h-91v30l23 1l-41 169h-148l-41 -169l25 -1v-30h-92v31l27 1l118 473l-36 1v31h101l126 -505l29 -1v-31zM268 233l-48 195c-7 29 -13 55 -18 80h-2c-5 -26 -10 -50 -18 -80l-48 -195h134zM337 633h-270v33h270v-33z" />
    <glyph glyph-name="Aogonek.sc" unicode="&#xe042;" horiz-adv-x="403" 
d="M384 0c-90 -50 -132 -82 -132 -129c0 -36 18 -57 69 -57c24 0 49 3 63 6v-26c-16 -4 -41 -8 -67 -8c-74 0 -100 36 -100 85c0 52 49 93 115 129h-39v30l23 1l-41 169h-148l-41 -169l25 -1v-30h-92v31l27 1l118 473l-36 1v31h101l126 -505l29 -1v-31zM268 233l-48 195
c-7 29 -13 55 -18 80h-2c-5 -26 -10 -50 -18 -80l-48 -195h134z" />
    <glyph glyph-name="AEacute.sc" unicode="&#xe043;" horiz-adv-x="522" 
d="M484 537v-77h-29l-2 44h-164v-205h181v-33h-181v-233h164l2 45h29v-78h-263v31l31 1v168h-132l-48 -200h-60v31l28 1l118 473l-38 1v31h364zM127 233h125v272h-58c-6 -26 -12 -48 -17 -72zM416 760l-108 -153h-38l102 153h44z" />
    <glyph glyph-name="Cacute.sc" unicode="&#xe044;" horiz-adv-x="320" 
d="M289 4c-10 -2 -50 -11 -95 -11c-110 0 -157 65 -157 230v90c0 165 47 230 157 230c45 0 85 -9 95 -11v-75h-29l-2 48c-15 1 -39 4 -63 4c-89 0 -121 -54 -121 -196v-90c0 -142 32 -196 121 -196c24 0 48 3 63 4l2 49h29v-76zM317 760l-108 -153h-38l102 153h44z" />
    <glyph glyph-name="Ccedilla.sc" unicode="&#xe00a;" horiz-adv-x="320" 
d="M289 4c-10 -2 -50 -11 -95 -11c-110 0 -157 65 -157 230v90c0 165 47 230 157 230c45 0 85 -9 95 -11v-75h-29l-2 48c-15 1 -39 4 -63 4c-89 0 -121 -54 -121 -196v-90c0 -142 32 -196 121 -196c24 0 48 3 63 4l2 49h29v-76zM236 -62l-103 -142h-38l96 142h45z" />
    <glyph glyph-name="Ccaron.sc" unicode="&#xe045;" horiz-adv-x="320" 
d="M289 4c-10 -2 -50 -11 -95 -11c-110 0 -157 65 -157 230v90c0 165 47 230 157 230c45 0 85 -9 95 -11v-75h-29l-2 48c-15 1 -39 4 -63 4c-89 0 -121 -54 -121 -196v-90c0 -142 32 -196 121 -196c24 0 48 3 63 4l2 49h29v-76zM287 760h39l-110 -153h-49l-110 153h39
l95 -129z" />
    <glyph glyph-name="Nacute.sc" unicode="&#xe062;" horiz-adv-x="419" 
d="M388 506l-31 -1v-505h-48l-212 487h-1v-455l31 -2v-30h-96v31l31 1v473l-31 1v31h79l212 -484h1v452l-31 1v31h96v-31zM328 760l-108 -153h-38l102 153h44z" />
    <glyph glyph-name="Hbar.sc" unicode="&#xe054;" horiz-adv-x="418" 
d="M32 388v33h31v84l-31 1v31h98v-31l-30 -1v-84h218v84l-30 1v31h98v-31l-31 -1v-84h31v-33h-31v-356l31 -1v-31h-98v31l30 1v238h-218v-238l30 -1v-31h-98v31l31 1v356h-31zM100 303h218v85h-218v-85z" />
    <glyph glyph-name="Egrave.sc" unicode="&#xe011;" horiz-adv-x="332" 
d="M294 0h-263v31l31 1v473l-31 1v31h263v-77h-29l-2 44h-165v-205h182v-33h-182v-233h165l2 45h29v-78zM192 607h-38l-108 153h44z" />
    <glyph glyph-name="Eacute.sc" unicode="&#xe00e;" horiz-adv-x="332" 
d="M294 0h-263v31l31 1v473l-31 1v31h263v-77h-29l-2 44h-165v-205h182v-33h-182v-233h165l2 45h29v-78zM280 760l-108 -153h-38l102 153h44z" />
    <glyph glyph-name="Ecircumflex.sc" unicode="&#xe00f;" horiz-adv-x="332" 
d="M294 0h-263v31l31 1v473l-31 1v31h263v-77h-29l-2 44h-165v-205h182v-33h-182v-233h165l2 45h29v-78zM311 607h-39l-96 129l-95 -129h-39l110 153h49z" />
    <glyph glyph-name="Edieresis.sc" unicode="&#xe010;" horiz-adv-x="332" 
d="M294 0h-263v31l31 1v473l-31 1v31h263v-77h-29l-2 44h-165v-205h182v-33h-182v-233h165l2 45h29v-78zM286 628h-37v116h37v-116zM106 628v116h-37v-116h37z" />
    <glyph glyph-name="Igrave.sc" unicode="&#xe019;" horiz-adv-x="171" 
d="M137 0h-104v31l34 1v473l-34 1v31h104v-31l-33 -1v-473l33 -1v-31zM120 607h-38l-108 153h44z" />
    <glyph glyph-name="Iacute.sc" unicode="&#xe016;" horiz-adv-x="171" 
d="M137 0h-104v31l34 1v473l-34 1v31h104v-31l-33 -1v-473l33 -1v-31zM205 760l-108 -153h-38l102 153h44z" />
    <glyph glyph-name="Icircumflex.sc" unicode="&#xe017;" horiz-adv-x="171" 
d="M137 0h-104v31l34 1v473l-34 1v31h104v-31l-33 -1v-473l33 -1v-31zM221 607h-39l-96 129l-95 -129h-39l110 153h49z" />
    <glyph glyph-name="Idieresis.sc" unicode="&#xe018;" horiz-adv-x="171" 
d="M137 0h-104v31l34 1v473l-34 1v31h104v-31l-33 -1v-473l33 -1v-31zM194 629h-37v116h37v-116zM14 629v116h-37v-116h37z" />
    <glyph glyph-name="Ograve.sc" unicode="&#xe026;" horiz-adv-x="379" 
d="M342 225c0 -157 -44 -232 -152 -232c-109 0 -153 75 -153 232v86c0 157 45 232 153 232s152 -74 152 -232v-86zM305 225v86c0 144 -36 198 -115 198s-116 -55 -116 -198v-86c0 -143 37 -198 116 -198s115 54 115 198zM234 607h-38l-108 153h44z" />
    <glyph glyph-name="Ntilde.sc" unicode="&#xe020;" horiz-adv-x="419" 
d="M388 506l-31 -1v-505h-48l-212 487h-1v-455l31 -2v-30h-96v31l31 1v473l-31 1v31h79l212 -484h1v452l-31 1v31h96v-31zM356 713c0 -68 -14 -109 -68 -109c-35 0 -57 22 -83 58l-20 28c-22 31 -35 46 -58 46c-34 0 -38 -31 -38 -78v-50h-31v50c0 67 16 108 69 108
c34 0 54 -20 80 -56l20 -28c22 -31 38 -48 61 -48c33 0 38 31 38 79v49h30v-49z" />
    <glyph glyph-name="Oacute.sc" unicode="&#xe023;" horiz-adv-x="379" 
d="M342 225c0 -157 -44 -232 -152 -232c-109 0 -153 75 -153 232v86c0 157 45 232 153 232s152 -74 152 -232v-86zM305 225v86c0 144 -36 198 -115 198s-116 -55 -116 -198v-86c0 -143 37 -198 116 -198s115 54 115 198zM301 760l-108 -153h-38l102 153h44z" />
    <glyph glyph-name="Ocircumflex.sc" unicode="&#xe024;" horiz-adv-x="379" 
d="M342 225c0 -157 -44 -232 -152 -232c-109 0 -153 75 -153 232v86c0 157 45 232 153 232s152 -74 152 -232v-86zM305 225v86c0 144 -36 198 -115 198s-116 -55 -116 -198v-86c0 -143 37 -198 116 -198s115 54 115 198zM332 607h-39l-96 129l-95 -129h-39l110 153h49z" />
    <glyph glyph-name="Otilde.sc" unicode="&#xe028;" horiz-adv-x="379" 
d="M342 225c0 -157 -44 -232 -152 -232c-109 0 -153 75 -153 232v86c0 157 45 232 153 232s152 -74 152 -232v-86zM305 225v86c0 144 -36 198 -115 198s-116 -55 -116 -198v-86c0 -143 37 -198 116 -198s115 54 115 198zM344 713c0 -68 -14 -109 -68 -109
c-35 0 -57 22 -83 58l-20 28c-22 31 -35 46 -58 46c-34 0 -38 -31 -38 -78v-50h-31v50c0 67 16 108 69 108c34 0 54 -20 80 -56l20 -28c22 -31 38 -48 61 -48c33 0 38 31 38 79v49h30v-49z" />
    <glyph glyph-name="Odieresis.sc" unicode="&#xe025;" horiz-adv-x="379" 
d="M347 225c0 -157 -44 -232 -152 -232c-109 0 -153 75 -153 232v86c0 157 45 232 153 232s152 -74 152 -232v-86zM310 225v86c0 144 -36 198 -115 198s-116 -55 -116 -198v-86c0 -143 37 -198 116 -198s115 54 115 198zM304 629h-37v116h37v-116zM124 629v116h-37v-116h37z
" />
    <glyph glyph-name="Oslash.sc" unicode="&#xe027;" horiz-adv-x="379" 
d="M342 225c0 -157 -44 -232 -152 -232c-48 0 -83 14 -108 43l-24 -45h-30l37 71c-19 38 -28 92 -28 163v86c0 157 45 232 153 232c48 0 83 -15 107 -45l26 48h30l-39 -73c19 -38 28 -92 28 -162v-86zM74 225c0 -51 5 -90 14 -120l190 357c-19 33 -48 47 -88 47
c-79 0 -116 -55 -116 -198v-86zM305 225v86c0 50 -5 89 -14 119l-189 -357c19 -32 48 -46 88 -46c79 0 115 54 115 198z" />
    <glyph glyph-name="OE.sc" unicode="&#xe022;" horiz-adv-x="528" 
d="M494 0h-213c-34 -5 -65 -8 -90 -8c-111 0 -157 74 -157 253v45c0 181 45 253 157 253c27 0 55 -2 86 -6h217v-77h-28l-3 44h-164v-205h181v-33h-181v-233h164l3 45h28v-78zM262 31v473c-26 3 -50 5 -70 5c-82 0 -121 -54 -121 -219v-45c0 -165 38 -219 120 -219
c24 0 44 2 71 5z" />
    <glyph glyph-name="Scaron.sc" unicode="&#xe02e;" horiz-adv-x="314" 
d="M284 132c0 -71 -32 -139 -139 -139c-39 0 -78 5 -108 9v76h29l2 -49c25 -2 50 -3 75 -3c80 0 103 47 103 106c0 55 -21 81 -83 126l-40 29c-62 45 -90 84 -90 143c0 68 41 113 133 113c42 0 84 -6 104 -10v-74h-29l-2 49c-20 1 -46 2 -71 2c-67 0 -98 -28 -98 -81
c0 -46 22 -76 76 -115l39 -28c71 -51 99 -87 99 -154zM259 760h39l-110 -153h-49l-110 153h39l95 -129z" />
    <glyph glyph-name="Ugrave.sc" unicode="&#xe034;" horiz-adv-x="405" 
d="M373 506l-30 -1v-296c0 -137 -27 -216 -141 -216c-113 0 -140 79 -140 216v296l-31 1v31h98v-31l-30 -2v-292c0 -130 18 -186 103 -186c86 0 103 56 103 186v292l-30 2v31h98v-31zM246 607h-38l-108 153h44z" />
    <glyph glyph-name="Uacute.sc" unicode="&#xe031;" horiz-adv-x="405" 
d="M373 506l-30 -1v-296c0 -137 -27 -216 -141 -216c-113 0 -140 79 -140 216v296l-31 1v31h98v-31l-30 -2v-292c0 -130 18 -186 103 -186c86 0 103 56 103 186v292l-30 2v31h98v-31zM309 760l-108 -153h-38l102 153h44z" />
    <glyph glyph-name="Yacute.sc" unicode="&#xe039;" horiz-adv-x="359" 
d="M339 506l-33 -1l-108 -286v-187l35 -1v-31h-107v31l36 1v187l-109 286l-32 1v31h99v-30l-29 -2l66 -173c7 -22 16 -50 23 -69l3 4c6 18 14 45 21 65l64 173l-28 2v30h99v-31zM297 760l-108 -153h-38l102 153h44z" />
    <glyph glyph-name="Ydieresis.sc" unicode="&#xe03a;" horiz-adv-x="359" 
d="M339 506l-33 -1l-108 -286v-187l35 -1v-31h-107v31l36 1v187l-109 286l-32 1v31h99v-30l-29 -2l66 -173c7 -22 16 -50 23 -69l3 4c6 18 14 45 21 65l64 173l-28 2v30h99v-31zM290 628h-37v116h37v-116zM110 628v116h-37v-116h37z" />
    <glyph glyph-name="Ucircumflex.sc" unicode="&#xe032;" horiz-adv-x="405" 
d="M373 506l-30 -1v-296c0 -137 -27 -216 -141 -216c-113 0 -140 79 -140 216v296l-31 1v31h98v-31l-30 -2v-292c0 -130 18 -186 103 -186c86 0 103 56 103 186v292l-30 2v31h98v-31zM343 607h-39l-96 129l-95 -129h-39l110 153h49z" />
    <glyph glyph-name="Udieresis.sc" unicode="&#xe033;" horiz-adv-x="405" 
d="M373 506l-30 -1v-296c0 -137 -27 -216 -141 -216c-113 0 -140 79 -140 216v296l-31 1v31h98v-31l-30 -2v-292c0 -130 18 -186 103 -186c86 0 103 56 103 186v292l-30 2v31h98v-31zM313 628h-37v116h37v-116zM133 628v116h-37v-116h37z" />
    <glyph glyph-name="Zcaron.sc" unicode="&#xe03c;" horiz-adv-x="337" 
d="M306 0h-275v36l228 468h-188l-2 -45h-28v78h258v-37l-228 -468h204l3 50h28v-82zM275 760h39l-110 -153h-49l-110 153h39l95 -129z" />
    <glyph glyph-name="Gbreve.sc" unicode="&#xe050;" horiz-adv-x="346" 
d="M303 4c-22 -3 -64 -11 -106 -11c-106 0 -160 64 -160 229v92c0 170 56 229 161 229c47 0 92 -9 105 -12v-71h-29l-3 44c-18 2 -44 5 -69 5c-90 0 -127 -46 -127 -195v-92c0 -144 37 -195 124 -195c22 0 45 2 68 5v214l-61 2v30h97v-274zM311 764
c-3 -88 -20 -160 -119 -160c-98 0 -115 72 -118 160h30c4 -82 16 -131 88 -131c73 0 85 49 88 131h31z" />
    <glyph glyph-name="Gcircumflex.sc" unicode="&#xe051;" horiz-adv-x="346" 
d="M303 4c-22 -3 -64 -11 -106 -11c-106 0 -160 64 -160 229v92c0 170 56 229 161 229c47 0 92 -9 105 -12v-71h-29l-3 44c-18 2 -44 5 -69 5c-90 0 -127 -46 -127 -195v-92c0 -144 37 -195 124 -195c22 0 45 2 68 5v214l-61 2v30h97v-274zM326 607h-39l-96 129l-95 -129
h-39l110 153h49z" />
    <glyph glyph-name="Gcommaaccent.sc" unicode="&#xe052;" horiz-adv-x="346" 
d="M303 4c-22 -3 -64 -11 -106 -11c-106 0 -160 64 -160 229v92c0 170 56 229 161 229c47 0 92 -9 105 -12v-71h-29l-3 44c-18 2 -44 5 -69 5c-90 0 -127 -46 -127 -195v-92c0 -144 37 -195 124 -195c22 0 45 2 68 5v214l-61 2v30h97v-274zM228 -62l-85 -142h-37l76 142h46z
" />
    <glyph glyph-name="Gdotaccent.sc" unicode="&#xe053;" horiz-adv-x="346" 
d="M303 4c-22 -3 -64 -11 -106 -11c-106 0 -160 64 -160 229v92c0 170 56 229 161 229c47 0 92 -9 105 -12v-71h-29l-3 44c-18 2 -44 5 -69 5c-90 0 -127 -46 -127 -195v-92c0 -144 37 -195 124 -195c22 0 45 2 68 5v214l-61 2v30h97v-274zM206 638h-39v116h39v-116z" />
    <glyph glyph-name="Hcircumflex.sc" unicode="&#xe055;" horiz-adv-x="418" 
d="M386 0h-98v31l30 1v238h-218v-238l30 -1v-31h-98v31l31 1v473l-31 1v31h98v-31l-30 -1v-202h218v202l-30 1v31h98v-31l-31 -1v-473l31 -1v-31zM345 607h-39l-96 129l-95 -129h-39l110 153h49z" />
    <glyph glyph-name="Ibreve.sc" unicode="&#xe056;" horiz-adv-x="171" 
d="M137 0h-104v31l34 1v473l-34 1v31h104v-31l-33 -1v-473l33 -1v-31zM205 764c-3 -88 -20 -160 -119 -160c-98 0 -115 72 -118 160h30c4 -82 16 -131 88 -131c73 0 85 49 88 131h31z" />
    <glyph glyph-name="Idotaccent.sc" unicode="&#xe081;" horiz-adv-x="171" 
d="M137 0h-104v31l34 1v473l-34 1v31h104v-31l-33 -1v-473l33 -1v-31zM105 637h-39v116h39v-116z" />
    <glyph glyph-name="Imacron.sc" unicode="&#xe059;" horiz-adv-x="171" 
d="M137 0h-104v31l34 1v473l-34 1v31h104v-31l-33 -1v-473l33 -1v-31zM220 663h-270v33h270v-33z" />
    <glyph glyph-name="Iogonek.sc" unicode="&#xe05a;" horiz-adv-x="171" 
d="M137 0c-78 -43 -106 -77 -106 -122c0 -43 18 -64 69 -64c24 0 49 3 63 6v-26c-16 -4 -41 -8 -67 -8c-74 0 -100 36 -100 92c0 45 29 89 89 122h-52v31l34 1v473l-34 1v31h104v-31l-33 -1v-473l33 -1v-31z" />
    <glyph glyph-name="Itilde.sc" unicode="&#xe05b;" horiz-adv-x="171" 
d="M137 0h-104v31l34 1v473l-34 1v31h104v-31l-33 -1v-473l33 -1v-31zM234 713c0 -68 -14 -109 -68 -109c-35 0 -57 22 -83 58l-20 28c-22 31 -35 46 -58 46c-34 0 -38 -31 -38 -78v-50h-31v50c0 67 16 108 69 108c34 0 54 -20 80 -56l20 -28c22 -31 38 -48 61 -48
c33 0 38 31 38 79v49h30v-49z" />
    <glyph glyph-name="IJ.sc" unicode="&#xe058;" horiz-adv-x="311" 
d="M281 506l-34 -1v-557c0 -54 -12 -88 -75 -88c-13 0 -28 2 -41 4v27h36c41 0 43 19 43 57v557l-33 1v31h104v-31zM137 0h-104v31l34 1v473l-34 1v31h104v-31l-33 -1v-473l33 -1v-31z" />
    <glyph glyph-name="Jcircumflex.sc" unicode="&#xe05c;" horiz-adv-x="171" 
d="M137 506l-33 -1v-557c0 -54 -13 -88 -76 -88c-14 0 -29 2 -41 4v27h36c41 0 44 19 44 57v557l-34 1v31h104v-31zM219 607h-39l-96 129l-95 -129h-39l110 153h49z" />
    <glyph glyph-name="Kcommaaccent.sc" unicode="&#xe05d;" horiz-adv-x="366" 
d="M340 0h-60l-179 265v-233l31 -1v-31h-98v31l31 1v473l-31 1v31h98v-31l-31 -1v-226l180 258h59v-31l-34 -1l-164 -232l165 -241l33 -1v-31zM197 -62l-85 -142h-37l76 142h46z" />
    <glyph glyph-name="Lacute.sc" unicode="&#xe05e;" horiz-adv-x="310" 
d="M285 0h-254v31l31 1v473l-31 1v31h99v-31l-31 -1v-472h155l2 57h29v-90zM279 760l-108 -153h-38l102 153h44z" />
    <glyph glyph-name="Lcommaaccent.sc" unicode="&#xe060;" horiz-adv-x="310" 
d="M285 0h-254v31l31 1v473l-31 1v31h99v-31l-31 -1v-472h155l2 57h29v-90zM188 -62l-85 -142h-37l76 142h46z" />
    <glyph glyph-name="Umacron.sc" unicode="&#xe075;" horiz-adv-x="405" 
d="M373 506l-30 -1v-296c0 -137 -27 -216 -141 -216c-113 0 -140 79 -140 216v296l-31 1v31h98v-31l-30 -2v-292c0 -130 18 -186 103 -186c86 0 103 56 103 186v292l-30 2v31h98v-31zM348 662h-270v33h270v-33z" />
    <glyph glyph-name="Uogonek.sc" unicode="&#xe076;" horiz-adv-x="405" 
d="M373 506l-30 -1v-296c0 -117 -20 -192 -96 -211c-65 -42 -95 -82 -95 -122c0 -41 18 -62 69 -62c24 0 49 3 63 6v-26c-16 -4 -41 -8 -67 -8c-74 0 -100 36 -100 90c0 41 30 83 75 117c-105 5 -130 83 -130 216v296l-31 1v31h98v-31l-30 -2v-292c0 -130 18 -186 103 -186
c86 0 103 56 103 186v292l-30 2v31h98v-31z" />
    <glyph glyph-name="Uring.sc" unicode="&#xe077;" horiz-adv-x="405" 
d="M373 506l-30 -1v-296c0 -137 -27 -216 -141 -216c-113 0 -140 79 -140 216v296l-31 1v31h98v-31l-30 -2v-292c0 -130 18 -186 103 -186c86 0 103 56 103 186v292l-30 2v31h98v-31zM302 697c0 -72 -39 -106 -97 -106s-99 34 -99 106s41 106 99 106s97 -35 97 -106z
M273 697c0 60 -31 79 -68 79c-38 0 -68 -19 -68 -79s30 -79 68 -79c37 0 68 20 68 79z" />
    <glyph glyph-name="Utilde.sc" unicode="&#xe078;" horiz-adv-x="405" 
d="M373 506l-30 -1v-296c0 -137 -27 -216 -141 -216c-113 0 -140 79 -140 216v296l-31 1v31h98v-31l-30 -2v-292c0 -130 18 -186 103 -186c86 0 103 56 103 186v292l-30 2v31h98v-31zM355 714c0 -68 -14 -109 -68 -109c-35 0 -57 22 -83 58l-20 28c-22 31 -35 46 -58 46
c-34 0 -38 -31 -38 -78v-50h-31v50c0 67 16 108 69 108c34 0 54 -20 80 -56l20 -28c22 -31 38 -48 61 -48c33 0 38 31 38 79v49h30v-49z" />
    <glyph glyph-name="Wacute.sc" unicode="&#xe079;" horiz-adv-x="537" 
d="M515 506l-31 -1l-78 -505h-53l-69 268c-6 22 -11 45 -15 65h-2c-4 -20 -9 -43 -14 -65l-69 -268h-54l-78 505l-31 1v31h100v-30l-31 -2l58 -387c4 -28 7 -54 11 -82h2c5 26 11 54 17 82l65 244h52l64 -245c5 -28 11 -52 17 -81h2c4 30 7 54 11 82l57 387l-30 2v30h99v-31
zM380 760l-108 -153h-38l102 153h44z" />
    <glyph glyph-name="Wcircumflex.sc" unicode="&#xe07a;" horiz-adv-x="537" 
d="M515 506l-31 -1l-78 -505h-53l-69 268c-6 22 -11 45 -15 65h-2c-4 -20 -9 -43 -14 -65l-69 -268h-54l-78 505l-31 1v31h100v-30l-31 -2l58 -387c4 -28 7 -54 11 -82h2c5 26 11 54 17 82l65 244h52l64 -245c5 -28 11 -52 17 -81h2c4 30 7 54 11 82l57 387l-30 2v30h99v-31
zM427 607h-39l-96 129l-95 -129h-39l110 153h49z" />
    <glyph glyph-name="Wdieresis.sc" unicode="&#xe07b;" horiz-adv-x="537" 
d="M515 506l-31 -1l-78 -505h-53l-69 268c-6 22 -11 45 -15 65h-2c-4 -20 -9 -43 -14 -65l-69 -268h-54l-78 505l-31 1v31h100v-30l-31 -2l58 -387c4 -28 7 -54 11 -82h2c5 26 11 54 17 82l65 244h52l64 -245c5 -28 11 -52 17 -81h2c4 30 7 54 11 82l57 387l-30 2v30h99v-31
zM393 628h-37v116h37v-116zM213 628v116h-37v-116h37z" />
    <glyph glyph-name="Wgrave.sc" unicode="&#xe07c;" horiz-adv-x="537" 
d="M515 506l-31 -1l-78 -505h-53l-69 268c-6 22 -11 45 -15 65h-2c-4 -20 -9 -43 -14 -65l-69 -268h-54l-78 505l-31 1v31h100v-30l-31 -2l58 -387c4 -28 7 -54 11 -82h2c5 26 11 54 17 82l65 244h52l64 -245c5 -28 11 -52 17 -81h2c4 30 7 54 11 82l57 387l-30 2v30h99v-31
zM328 607h-38l-108 153h44z" />
    <glyph glyph-name="Ycircumflex.sc" unicode="&#xe07d;" horiz-adv-x="359" 
d="M339 506l-33 -1l-108 -286v-187l35 -1v-31h-107v31l36 1v187l-109 286l-32 1v31h99v-30l-29 -2l66 -173c7 -22 16 -50 23 -69l3 4c6 18 14 45 21 65l64 173l-28 2v30h99v-31zM321 607h-39l-96 129l-95 -129h-39l110 153h49z" />
    <glyph glyph-name="Ygrave.sc" unicode="&#xe07e;" horiz-adv-x="359" 
d="M339 506l-33 -1l-108 -286v-187l35 -1v-31h-107v31l36 1v187l-109 286l-32 1v31h99v-30l-29 -2l66 -173c7 -22 16 -50 23 -69l3 4c6 18 14 45 21 65l64 173l-28 2v30h99v-31zM216 607h-38l-108 153h44z" />
    <glyph glyph-name="Zacute.sc" unicode="&#xe07f;" horiz-adv-x="337" 
d="M306 0h-275v36l228 468h-188l-2 -45h-28v78h258v-37l-228 -468h204l3 50h28v-82zM291 760l-108 -153h-38l102 153h44z" />
    <glyph glyph-name="Zdotaccent.sc" unicode="&#xe080;" horiz-adv-x="337" 
d="M306 0h-275v36l228 468h-188l-2 -45h-28v78h258v-37l-228 -468h204l3 50h28v-82zM191 637h-39v116h39v-116z" />
    <glyph glyph-name="Ncaron.sc" unicode="&#xe063;" horiz-adv-x="419" 
d="M388 506l-31 -1v-505h-48l-212 487h-1v-455l31 -2v-30h-96v31l31 1v473l-31 1v31h79l212 -484h1v452l-31 1v31h96v-31zM313 760h39l-110 -153h-49l-110 153h39l95 -129z" />
    <glyph glyph-name="Ncommaaccent.sc" unicode="&#xe064;" horiz-adv-x="419" 
d="M388 506l-31 -1v-505h-48l-212 487h-1v-455l31 -2v-30h-96v31l31 1v473l-31 1v31h79l212 -484h1v452l-31 1v31h96v-31zM235 -62l-85 -142h-37l76 142h46z" />
    <glyph glyph-name="Lslash.sc" unicode="&#xe01d;" horiz-adv-x="310" 
d="M286 0h-255v31l31 1v198l-47 -42v45l47 42v230l-31 1v31h99v-31l-31 -1v-193l81 74v-45l-81 -74v-234h155l2 57h30v-90z" />
    <glyph glyph-name="Lcaron.sc" unicode="&#xe05f;" horiz-adv-x="310" 
d="M285 0h-254v31l31 1v473l-31 1v31h98v-31l-30 -1v-472h154l3 57h29v-90zM276 537l-51 -226h-32l42 226h41z" />
    <glyph glyph-name="Tcaron.sc" unicode="&#xe071;" horiz-adv-x="348" 
d="M324 459h-29l-2 45h-101v-472l35 -2v-30h-107v30l35 2v472h-100l-2 -45h-29v78h300v-78zM277 760h39l-110 -153h-49l-110 153h39l95 -129z" />
    <glyph glyph-name="Tbar.sc" unicode="&#xe070;" horiz-adv-x="348" 
d="M324 459h-29l-2 45h-101v-145h123v-34h-123v-293l35 -2v-30h-107v30l35 2v293h-122v34h122v145h-100l-2 -45h-29v78h300v-78z" />
    <glyph glyph-name="Tcommaaccent.sc" unicode="&#xe072;" horiz-adv-x="348" 
d="M324 459h-29l-2 45h-101v-472l35 -2v-30h-107v30l35 2v472h-100l-2 -45h-29v78h300v-78zM238 -62l-85 -142h-37l76 142h46z" />
    <glyph glyph-name="Ubreve.sc" unicode="&#xe073;" horiz-adv-x="405" 
d="M373 506l-30 -1v-296c0 -137 -27 -216 -141 -216c-113 0 -140 79 -140 216v296l-31 1v31h98v-31l-30 -2v-292c0 -130 18 -186 103 -186c86 0 103 56 103 186v292l-30 2v31h98v-31zM327 764c-3 -88 -20 -160 -119 -160c-98 0 -115 72 -118 160h30c4 -82 16 -131 88 -131
c73 0 85 49 88 131h31z" />
    <glyph glyph-name="Uhungarumlaut.sc" unicode="&#xe074;" horiz-adv-x="405" 
d="M373 506l-30 -1v-296c0 -137 -27 -216 -141 -216c-113 0 -140 79 -140 216v296l-31 1v31h98v-31l-30 -2v-292c0 -130 18 -186 103 -186c86 0 103 56 103 186v292l-30 2v31h98v-31zM398 760l-108 -153h-38l102 153h44zM249 760h-44l-102 -153h38z" />
    <glyph glyph-name="Scedilla.sc" unicode="&#xe06d;" horiz-adv-x="314" 
d="M284 132c0 -71 -32 -139 -139 -139c-39 0 -78 5 -108 9v76h29l2 -49c25 -2 50 -3 75 -3c80 0 103 47 103 106c0 55 -21 81 -83 126l-40 29c-62 45 -90 84 -90 143c0 68 41 113 133 113c42 0 84 -6 104 -10v-74h-29l-2 49c-20 1 -46 2 -71 2c-67 0 -98 -28 -98 -81
c0 -46 22 -76 76 -115l39 -28c71 -51 99 -87 99 -154zM199 -62l-103 -142h-38l96 142h45z" />
    <glyph glyph-name="Scircumflex.sc" unicode="&#xe06e;" horiz-adv-x="314" 
d="M284 132c0 -71 -32 -139 -139 -139c-39 0 -78 5 -108 9v76h29l2 -49c25 -2 50 -3 75 -3c80 0 103 47 103 106c0 55 -21 81 -83 126l-40 29c-62 45 -90 84 -90 143c0 68 41 113 133 113c42 0 84 -6 104 -10v-74h-29l-2 49c-20 1 -46 2 -71 2c-67 0 -98 -28 -98 -81
c0 -46 22 -76 76 -115l39 -28c71 -51 99 -87 99 -154zM295 607h-39l-96 129l-95 -129h-39l110 153h49z" />
    <glyph glyph-name="Scommaaccent.sc" unicode="&#xe06f;" horiz-adv-x="314" 
d="M284 132c0 -71 -32 -139 -139 -139c-39 0 -78 5 -108 9v76h29l2 -49c25 -2 50 -3 75 -3c80 0 103 47 103 106c0 55 -21 81 -83 126l-40 29c-62 45 -90 84 -90 143c0 68 41 113 133 113c42 0 84 -6 104 -10v-74h-29l-2 49c-20 1 -46 2 -71 2c-67 0 -98 -28 -98 -81
c0 -46 22 -76 76 -115l39 -28c71 -51 99 -87 99 -154zM198 -62l-85 -142h-37l76 142h46z" />
    <glyph glyph-name="Sacute.sc" unicode="&#xe06c;" horiz-adv-x="314" 
d="M284 132c0 -71 -32 -139 -139 -139c-39 0 -78 5 -108 9v76h29l2 -49c25 -2 50 -3 75 -3c80 0 103 47 103 106c0 55 -21 81 -83 126l-40 29c-62 45 -90 84 -90 143c0 68 41 113 133 113c42 0 84 -6 104 -10v-74h-29l-2 49c-20 1 -46 2 -71 2c-67 0 -98 -28 -98 -81
c0 -46 22 -76 76 -115l39 -28c71 -51 99 -87 99 -154zM272 760l-108 -153h-38l102 153h44z" />
    <glyph glyph-name="Racute.sc" unicode="&#xe069;" horiz-adv-x="369" 
d="M356 0h-59l-106 229c-10 0 -19 -1 -30 -1c-18 0 -42 1 -60 1v-197l34 -1v-31h-104v31l34 1v473l-34 1v31c43 0 85 4 129 4c112 0 157 -44 157 -150v-9c0 -80 -20 -129 -89 -146l95 -204l33 -1v-31zM280 382v9c0 86 -27 117 -119 117c-19 0 -44 -1 -60 -2v-245
c19 0 40 -1 60 -1c98 0 119 40 119 122zM305 760l-108 -153h-38l102 153h44z" />
    <glyph glyph-name="Rcaron.sc" unicode="&#xe06a;" horiz-adv-x="369" 
d="M356 0h-59l-106 229c-10 0 -19 -1 -30 -1c-18 0 -42 1 -60 1v-197l34 -1v-31h-104v31l34 1v473l-34 1v31c43 0 85 4 129 4c112 0 157 -44 157 -150v-9c0 -80 -20 -129 -89 -146l95 -204l33 -1v-31zM280 382v9c0 86 -27 117 -119 117c-19 0 -44 -1 -60 -2v-245
c19 0 40 -1 60 -1c98 0 119 40 119 122zM282 760h39l-110 -153h-49l-110 153h39l95 -129z" />
    <glyph glyph-name="Rcommaaccent.sc" unicode="&#xe06b;" horiz-adv-x="369" 
d="M356 0h-59l-106 229c-10 0 -19 -1 -30 -1c-18 0 -42 1 -60 1v-197l34 -1v-31h-104v31l34 1v473l-34 1v31c43 0 85 4 129 4c112 0 157 -44 157 -150v-9c0 -80 -20 -129 -89 -146l95 -204l33 -1v-31zM280 382v9c0 86 -27 117 -119 117c-19 0 -44 -1 -60 -2v-245
c19 0 40 -1 60 -1c98 0 119 40 119 122zM224 -62l-85 -142h-37l76 142h46z" />
    <glyph glyph-name="Ccircumflex.sc" unicode="&#xe046;" horiz-adv-x="320" 
d="M289 4c-10 -2 -50 -11 -95 -11c-110 0 -157 65 -157 230v90c0 165 47 230 157 230c45 0 85 -9 95 -11v-75h-29l-2 48c-15 1 -39 4 -63 4c-89 0 -121 -54 -121 -196v-90c0 -142 32 -196 121 -196c24 0 48 3 63 4l2 49h29v-76zM315 607h-39l-96 129l-95 -129h-39l110 153
h49z" />
    <glyph glyph-name="Cdotaccent.sc" unicode="&#xe047;" horiz-adv-x="320" 
d="M289 4c-10 -2 -50 -11 -95 -11c-110 0 -157 65 -157 230v90c0 165 47 230 157 230c45 0 85 -9 95 -11v-75h-29l-2 48c-15 1 -39 4 -63 4c-89 0 -121 -54 -121 -196v-90c0 -142 32 -196 121 -196c24 0 48 3 63 4l2 49h29v-76zM206 637h-39v116h39v-116z" />
    <glyph glyph-name="Dcaron.sc" unicode="&#xe048;" horiz-adv-x="375" 
d="M343 241c0 -155 -36 -245 -178 -245c-44 0 -88 2 -134 4v31l31 2v471l-31 2v31c49 1 90 4 134 4c142 0 178 -89 178 -245v-55zM305 241v55c0 149 -34 211 -140 211c-24 0 -51 -1 -66 -2v-473c19 -1 41 -3 66 -3c107 0 140 64 140 212zM284 760h39l-110 -153h-49l-110 153
h39l95 -129z" />
    <glyph glyph-name="Dcroat.sc" unicode="&#xe049;" horiz-adv-x="375" 
d="M344 241c0 -156 -37 -245 -178 -245c-44 0 -88 3 -134 4v31l30 2v234h-39v34h39v203l-30 2v31c48 1 90 4 134 4c140 0 178 -89 178 -245v-55zM306 241v55c0 148 -34 211 -141 211c-23 0 -50 -1 -66 -2v-204h80v-34h-80v-235c21 -1 42 -3 67 -3c107 0 140 64 140 212z" />
    <glyph glyph-name="Ebreve.sc" unicode="&#xe04a;" horiz-adv-x="332" 
d="M294 0h-263v31l31 1v473l-31 1v31h263v-77h-29l-2 44h-165v-205h182v-33h-182v-233h165l2 45h29v-78zM285 764c-3 -88 -20 -160 -119 -160c-98 0 -115 72 -118 160h30c4 -82 16 -131 88 -131c73 0 85 49 88 131h31z" />
    <glyph glyph-name="Ecaron.sc" unicode="&#xe04b;" horiz-adv-x="332" 
d="M294 0h-263v31l31 1v473l-31 1v31h263v-77h-29l-2 44h-165v-205h182v-33h-182v-233h165l2 45h29v-78zM273 760h39l-110 -153h-49l-110 153h39l95 -129z" />
    <glyph glyph-name="Edotaccent.sc" unicode="&#xe04c;" horiz-adv-x="332" 
d="M294 0h-263v31l31 1v473l-31 1v31h263v-77h-29l-2 44h-165v-205h182v-33h-182v-233h165l2 45h29v-78zM201 637h-39v116h39v-116z" />
    <glyph glyph-name="Emacron.sc" unicode="&#xe04d;" horiz-adv-x="332" 
d="M294 0h-263v31l31 1v473l-31 1v31h263v-77h-29l-2 44h-165v-205h182v-33h-182v-233h165l2 45h29v-78zM309 663h-270v33h270v-33z" />
    <glyph glyph-name="Eogonek.sc" unicode="&#xe04f;" horiz-adv-x="332" 
d="M294 -206c-16 -4 -41 -8 -67 -8c-74 0 -100 36 -100 85c0 52 49 93 115 129h-211v31l31 1v473l-31 1v31h263v-77h-29l-2 44h-165v-205h182v-33h-182v-233h165l2 45h29v-78c-90 -50 -132 -82 -132 -129c0 -36 18 -57 69 -57c24 0 49 3 63 6v-26z" />
    <glyph glyph-name="Qalt.sc" unicode="&#xe595;" horiz-adv-x="375" 
d="M342 225c0 -148 -39 -223 -134 -231v-123h-36v123c-96 8 -135 83 -135 231v86c0 157 45 232 153 232s152 -74 152 -232v-86zM305 225v86c0 144 -36 198 -115 198s-116 -55 -116 -198v-86c0 -143 37 -198 116 -198s115 54 115 198z" />
    <glyph glyph-name="Oslashacute.sc" unicode="&#xe068;" horiz-adv-x="379" 
d="M342 225c0 -157 -44 -232 -152 -232c-48 0 -83 14 -108 43l-24 -45h-30l37 71c-19 38 -28 92 -28 163v86c0 157 45 232 153 232c48 0 83 -15 107 -45l26 48h30l-39 -73c19 -38 28 -92 28 -162v-86zM74 225c0 -51 5 -90 14 -120l190 357c-19 33 -48 47 -88 47
c-79 0 -116 -55 -116 -198v-86zM305 225v86c0 50 -5 89 -14 119l-189 -357c19 -32 48 -46 88 -46c79 0 115 54 115 198zM305 760l-108 -153h-38l102 153h44z" />
    <glyph glyph-name="Ohungarumlaut.sc" unicode="&#xe066;" horiz-adv-x="379" 
d="M342 225c0 -157 -44 -232 -152 -232c-109 0 -153 75 -153 232v86c0 157 45 232 153 232s152 -74 152 -232v-86zM305 225v86c0 144 -36 198 -115 198s-116 -55 -116 -198v-86c0 -143 37 -198 116 -198s115 54 115 198zM384 760l-108 -153h-38l102 153h44zM235 760h-44
l-102 -153h38z" />
    <glyph glyph-name="Omacron.sc" unicode="&#xe067;" horiz-adv-x="379" 
d="M342 225c0 -157 -44 -232 -152 -232c-109 0 -153 75 -153 232v86c0 157 45 232 153 232s152 -74 152 -232v-86zM305 225v86c0 144 -36 198 -115 198s-116 -55 -116 -198v-86c0 -143 37 -198 116 -198s115 54 115 198zM335 662h-270v33h270v-33z" />
    <glyph glyph-name="Obreve.sc" unicode="&#xe065;" horiz-adv-x="379" 
d="M342 225c0 -157 -44 -232 -152 -232c-109 0 -153 75 -153 232v86c0 157 45 232 153 232s152 -74 152 -232v-86zM305 225v86c0 144 -36 198 -115 198s-116 -55 -116 -198v-86c0 -143 37 -198 116 -198s115 54 115 198zM313 764c-3 -88 -20 -160 -119 -160
c-98 0 -115 72 -118 160h30c4 -82 16 -131 88 -131c73 0 85 49 88 131h31z" />
    <glyph glyph-name="zero.inferior" unicode="&#x2080;" horiz-adv-x="333" 
d="M296 175c0 -122 -41 -183 -130 -183s-130 61 -130 183v89c0 122 41 183 130 183s130 -61 130 -183v-89zM259 175v89c0 112 -32 151 -93 151s-93 -39 -93 -151v-89c0 -112 32 -151 93 -151s93 39 93 151z" />
    <glyph glyph-name="one.inferior" unicode="&#x2081;" horiz-adv-x="270" 
d="M240 -3h-208v29l85 1v376l-85 -33v33l91 36h30v-412l87 -1v-29z" />
    <glyph glyph-name="two.inferior" unicode="&#x2082;" horiz-adv-x="317" 
d="M269 0h-228v33c0 103 22 135 113 196c74 50 85 73 85 116c0 57 -30 72 -97 72c-22 0 -47 -2 -68 -5l-2 -42h-27v66c22 5 65 11 100 11c88 0 131 -27 131 -102c0 -50 -17 -84 -98 -139c-89 -60 -101 -82 -101 -169v-6h164l2 41h26v-72z" />
    <glyph glyph-name="three.inferior" unicode="&#x2083;" horiz-adv-x="314" 
d="M272 120c0 -96 -46 -128 -138 -128c-36 0 -76 6 -93 11v67h27l2 -45c17 -1 41 -3 62 -3c71 0 104 19 104 98v7c0 51 -12 86 -80 86h-99v29h99c68 0 80 40 80 90v6c0 61 -28 79 -103 79c-20 0 -43 -2 -63 -4l-2 -43h-27v67c16 4 61 10 95 10c93 0 136 -25 136 -108v-6
c0 -51 -15 -89 -60 -105c47 -15 60 -51 60 -101v-7z" />
    <glyph glyph-name="four.inferior" unicode="&#x2084;" horiz-adv-x="343" 
d="M308 125h-57v-98l31 -1v-26h-99v26l31 1v98h-182v31l180 284h39v-286h57v-29zM215 154v240l-149 -240h149z" />
    <glyph glyph-name="five.inferior" unicode="&#x2085;" horiz-adv-x="318" 
d="M277 124c0 -99 -48 -132 -142 -132c-40 0 -76 6 -94 10v65h26l2 -41c17 -2 40 -4 63 -4c77 0 108 23 108 102v9c0 79 -27 100 -108 100h-85l15 207h200v-70h-26l-1 39h-142l-10 -146h53c104 0 141 -38 141 -130v-9z" />
    <glyph glyph-name="six.inferior" unicode="&#x2086;" horiz-adv-x="331" 
d="M293 121c0 -83 -49 -129 -127 -129c-83 0 -129 49 -129 150v153c0 97 32 152 137 152c39 0 78 -5 103 -10v-67h-26l-2 42c-19 2 -49 5 -72 5c-84 0 -104 -42 -104 -118v-43c37 8 69 11 95 11c76 0 125 -30 125 -112v-34zM257 121v33c0 65 -33 85 -91 85
c-24 0 -54 -2 -93 -11v-88c0 -81 32 -118 93 -118s91 37 91 99z" />
    <glyph glyph-name="seven.inferior" unicode="&#x2087;" horiz-adv-x="307" 
d="M270 407l-172 -406h-39l176 409h-171l-1 -39h-27v69h234v-33z" />
    <glyph glyph-name="eight.inferior" unicode="&#x2088;" horiz-adv-x="343" 
d="M306 117c0 -100 -57 -125 -133 -125h-4c-77 0 -133 25 -133 125v13c0 50 19 85 57 101c-37 16 -56 50 -56 100v8c0 77 49 108 132 108h4c82 0 132 -31 132 -108v-8c0 -49 -20 -85 -57 -100c38 -16 58 -51 58 -101v-13zM269 117v13c0 49 -17 87 -74 87h-49
c-57 0 -74 -38 -74 -87v-13c0 -73 34 -95 97 -95h4c62 0 96 22 96 95zM269 331v8c0 56 -34 79 -96 79h-4c-63 0 -97 -23 -97 -79v-8c0 -46 16 -85 74 -85h49c58 0 74 40 74 85z" />
    <glyph glyph-name="nine.inferior" unicode="&#x2089;" horiz-adv-x="331" 
d="M293 144c0 -96 -32 -152 -137 -152c-39 0 -78 6 -103 11v65h27l2 -41c18 -2 48 -4 72 -4c83 0 103 42 103 117v44c-37 -9 -69 -11 -95 -11c-75 0 -125 30 -125 111v34c0 84 49 129 127 129c84 0 129 -49 129 -150v-153zM257 211v88c0 81 -31 119 -93 119
c-61 0 -91 -38 -91 -100v-33c0 -64 33 -84 91 -84c24 0 54 2 93 10z" />
    <glyph glyph-name="one.superior" unicode="&#xb9;" horiz-adv-x="270" 
d="M240 305h-208v28l85 1v376l-85 -32v33l91 35h30v-412l87 -1v-28z" />
    <glyph glyph-name="two.superior" unicode="&#xb2;" horiz-adv-x="317" 
d="M269 306h-228v33c0 103 22 135 113 196c74 50 85 73 85 116c0 57 -30 72 -97 72c-22 0 -47 -2 -68 -5l-2 -41h-27v65c22 5 65 11 100 11c88 0 131 -27 131 -101c0 -51 -18 -84 -98 -140c-87 -58 -101 -82 -101 -169v-6h164l2 42h26v-73z" />
    <glyph glyph-name="three.superior" unicode="&#xb3;" horiz-adv-x="314" 
d="M272 426c0 -96 -46 -128 -138 -128c-36 0 -76 6 -93 11v67h27l2 -45c17 -1 41 -3 62 -3c71 0 104 19 104 99v6c0 52 -12 86 -80 86h-99v29h99c68 0 80 41 80 90v6c0 62 -28 79 -103 79c-20 0 -43 -2 -63 -4l-2 -42h-27v66c16 4 61 10 95 10c93 0 136 -25 136 -108v-6
c0 -51 -15 -89 -60 -105c47 -15 60 -51 60 -101v-7z" />
    <glyph glyph-name="Eng.sc" unicode="&#xe04e;" horiz-adv-x="419" 
d="M387 506l-31 -1v-557c0 -54 -13 -88 -76 -88c-14 0 -29 2 -41 4v27h36c41 0 44 19 44 57v52h-10l-189 429c-9 20 -16 38 -23 58h-1c0 -22 1 -45 1 -68v-387l31 -2v-30h-97v31l31 1v473l-31 1v31h79l187 -424c8 -19 17 -39 25 -60h1c-1 26 -2 51 -2 74v378l-31 1v31h97
v-31z" />
    <glyph glyph-name="Eth.sc" unicode="&#xe00c;" horiz-adv-x="375" 
d="M344 241c0 -156 -37 -245 -178 -245c-44 0 -88 3 -134 4v31l30 2v234h-39v34h39v203l-30 2v31c48 1 90 4 134 4c140 0 178 -89 178 -245v-55zM306 241v55c0 148 -34 211 -141 211c-23 0 -50 -1 -66 -2v-204h80v-34h-80v-235c21 -1 42 -3 67 -3c107 0 140 64 140 212z" />
    <glyph glyph-name="Thorn.sc" unicode="&#xe02a;" horiz-adv-x="347" 
d="M95 505v-61c25 1 47 2 61 2c111 0 155 -47 155 -153v-7c0 -106 -44 -153 -155 -153c-14 0 -36 1 -61 2v-103l33 -2v-30h-97v30l28 2v473l-28 2v30h97v-30zM155 413c-14 0 -34 0 -60 -1v-245c26 -1 46 -1 60 -1c93 0 119 35 119 120v7c0 85 -26 120 -119 120z" />
    <glyph glyph-name="ampersand.sc" unicode="&#xe08c;" horiz-adv-x="427" 
d="M335 0l-29 38c-29 -29 -69 -47 -124 -47c-78 0 -147 36 -147 134v4c0 59 27 107 87 153l-4 7c-46 61 -62 97 -62 148v4c0 75 52 108 137 108c27 0 77 -3 119 -12v-75h-30l-3 49c-43 5 -59 5 -87 5c-61 0 -99 -17 -99 -75v-4c0 -45 11 -72 52 -127l162 -217
c24 45 32 106 32 170l-30 2v27h93v-27l-30 -2c0 -69 -10 -144 -44 -197l49 -66h-42zM182 24c47 0 81 15 104 40l-143 191c-52 -38 -70 -75 -70 -126v-4c0 -73 51 -101 109 -101z" />
    <glyph glyph-name="ampersandalt.sc" unicode="&#xe451;" horiz-adv-x="419" 
d="M372 275c0 -81 -12 -153 -44 -205l53 -70h-43l-32 42c-30 -32 -73 -51 -132 -51c-70 0 -137 27 -137 125v6c0 58 34 107 96 153l-10 14c-46 61 -67 96 -67 145v6c0 74 46 109 122 109c80 0 121 -36 121 -109v-6c0 -57 -22 -99 -118 -167l128 -171c22 44 31 104 31 179h32
zM176 22c50 0 87 16 112 44l-135 183c-51 -36 -78 -75 -78 -127v-6c0 -73 49 -94 101 -94zM149 310l13 -17c83 60 101 87 101 141v6c0 57 -33 75 -85 75c-50 0 -86 -17 -86 -76v-5c0 -45 18 -71 57 -124z" />
    <glyph glyph-name="exclam.sc" unicode="&#xe08b;" horiz-adv-x="138" 
d="M93 0h-38v102h38v-102zM94 560l-2 -402h-35l-3 402h40z" />
    <glyph glyph-name="exclamdown.sc" unicode="&#xe08f;" horiz-adv-x="138" 
d="M94 -24h-40l3 403h35zM93 537v-102h-38v102h38z" />
    <glyph glyph-name="question.sc" unicode="&#xe08d;" horiz-adv-x="260" 
d="M117 0h-36v99h36v-99zM228 454c0 -46 -16 -85 -57 -138c-50 -65 -56 -78 -56 -135v-31h-33v31c0 57 6 83 53 144c41 53 55 84 55 126v5c0 48 -22 78 -80 78c-18 0 -28 -1 -52 -4l-2 -44h-29v72c33 8 62 10 83 10c83 0 118 -45 118 -110v-4z" />
    <glyph glyph-name="questiondown.sc" unicode="&#xe094;" horiz-adv-x="260" 
d="M138 537h36v-99h-36v99zM27 83c0 46 16 85 57 138c50 65 56 78 56 135v31h33v-31c0 -57 -6 -83 -53 -144c-41 -53 -55 -84 -55 -126v-5c0 -48 22 -78 80 -78c18 0 28 1 52 4l2 44h29v-72c-33 -8 -62 -10 -83 -10c-83 0 -118 45 -118 110v4z" />
    <glyph glyph-name="four.superior" unicode="&#x2074;" horiz-adv-x="343" 
d="M308 431h-57v-98l31 -1v-26h-99v26l31 1v98h-182v31l180 284h39v-286h57v-29zM215 460v240l-149 -240h149z" />
    <glyph glyph-name="five.superior" unicode="&#x2075;" horiz-adv-x="318" 
d="M277 430c0 -99 -48 -132 -142 -132c-40 0 -76 6 -94 10v65h26l2 -41c17 -2 40 -4 63 -4c77 0 108 23 108 102v9c0 78 -27 100 -108 100h-85l15 207h200v-70h-26l-1 39h-142l-10 -146h53c104 0 141 -38 141 -130v-9z" />
    <glyph glyph-name="six.superior" unicode="&#x2076;" horiz-adv-x="331" 
d="M293 427c0 -84 -49 -129 -127 -129c-83 0 -129 49 -129 150v153c0 97 32 152 137 152c39 0 78 -5 103 -10v-67h-26l-2 42c-19 2 -49 5 -72 5c-84 0 -104 -42 -104 -119v-43c37 9 69 12 95 12c76 0 125 -31 125 -112v-34zM257 427v33c0 64 -33 85 -91 85
c-24 0 -54 -2 -93 -11v-88c1 -81 32 -119 93 -119s91 38 91 100z" />
    <glyph glyph-name="seven.superior" unicode="&#x2077;" horiz-adv-x="307" 
d="M270 712l-172 -406h-39l176 409h-171l-1 -39h-27v70h234v-34z" />
    <glyph glyph-name="eight.superior" unicode="&#x2078;" horiz-adv-x="343" 
d="M306 423c0 -100 -57 -125 -133 -125h-4c-77 0 -133 25 -133 125v13c0 50 19 85 57 101c-37 16 -56 50 -56 100v8c0 76 49 108 132 108h4c82 0 132 -32 132 -108v-8c0 -50 -20 -85 -57 -100c38 -16 58 -51 58 -101v-13zM269 423v13c0 49 -17 86 -74 86h-49
c-57 0 -74 -37 -74 -86v-13c0 -73 34 -96 97 -96h4c62 0 96 23 96 96zM269 636v9c0 56 -34 79 -96 79h-4c-63 0 -97 -23 -97 -79v-9c0 -45 16 -84 74 -84h49c58 0 74 39 74 84z" />
    <glyph glyph-name="nine.superior" unicode="&#x2079;" horiz-adv-x="331" 
d="M293 450c0 -96 -32 -152 -137 -152c-39 0 -78 6 -103 10v66h27l2 -41c18 -2 48 -4 72 -4c83 0 103 42 103 117v44c-37 -9 -69 -11 -95 -11c-75 0 -125 30 -125 111v34c0 84 49 129 127 129c84 0 129 -49 129 -150v-153zM257 517v88c-1 81 -31 119 -93 119
c-61 0 -91 -38 -91 -100v-33c0 -64 33 -85 91 -85c24 0 54 3 93 11z" />
    <glyph glyph-name="a.superior" unicode="&#xf6e9;" horiz-adv-x="259" 
d="M247 302h-60v19c-18 -12 -48 -24 -79 -24c-58 0 -76 35 -76 94v9c0 73 31 99 117 99h36v41c0 59 -8 73 -67 73c-10 0 -23 0 -41 -2l-1 -37h-26v59c22 4 48 9 73 9c79 0 97 -26 97 -102v-209l27 -1v-28zM186 345v129h-37c-67 0 -83 -17 -83 -74v-9c0 -47 12 -68 51 -68
c25 0 51 11 69 22z" />
    <glyph glyph-name="b.superior" unicode="&#xf6ea;" horiz-adv-x="272" 
d="M247 455c0 -109 -25 -158 -109 -158c-21 0 -42 0 -86 5v445l-29 1v26h63v-140c26 7 45 8 59 8c79 0 102 -49 102 -154v-33zM212 455v33c0 91 -14 125 -70 125c-11 0 -32 -1 -56 -7v-277c23 -2 39 -3 52 -3c58 0 74 34 74 129z" />
    <glyph glyph-name="d.superior" unicode="&#xf6eb;" horiz-adv-x="263" 
d="M254 302h-62v17c-17 -11 -43 -22 -74 -22c-66 0 -88 50 -88 140v62c0 96 28 142 106 142c12 0 30 0 55 -4v110l-31 1v26h66v-443l28 -1v-28zM191 346v262c-24 3 -43 4 -53 4c-56 0 -73 -31 -73 -113v-62c0 -77 13 -111 61 -111c25 0 48 11 65 20z" />
    <glyph glyph-name="e.superior" unicode="&#xf6ec;" horiz-adv-x="263" 
d="M237 459h-172v-22c0 -76 18 -112 80 -112c36 0 64 4 86 7v-26c-16 -4 -53 -9 -88 -9c-85 0 -113 51 -113 145v54c0 89 26 146 104 146c81 0 103 -59 103 -145v-38zM203 485v18c0 67 -13 110 -69 110c-57 0 -69 -45 -69 -110v-18h138z" />
    <glyph glyph-name="i.superior" unicode="&#x2071;" horiz-adv-x="143" 
d="M121 302h-93v27l29 1v276l-29 1v27h63v-304l30 -1v-27zM92 698h-36v76h36v-76z" />
    <glyph glyph-name="l.superior" unicode="&#xf6ee;" horiz-adv-x="143" 
d="M121 302h-93v27l29 1v417l-29 1v26h63v-444l30 -1v-27z" />
    <glyph glyph-name="m.superior" unicode="&#xf6ef;" horiz-adv-x="419" 
d="M398 302h-64v243c0 44 -3 68 -41 68c-20 0 -44 -9 -67 -25c3 -12 3 -29 3 -43v-243h-34v243c0 44 -3 68 -40 68c-19 0 -41 -10 -65 -26v-256l29 -1v-28h-93v28l29 1v274l-29 1v28h62v-21c27 20 52 29 75 29c30 0 47 -12 56 -30c29 21 57 30 80 30c63 0 70 -45 70 -97
v-214l29 -1v-28z" />
    <glyph glyph-name="n.superior" unicode="&#x207f;" horiz-adv-x="300" 
d="M280 302h-64v224c0 66 -10 86 -50 86c-26 0 -51 -11 -76 -26v-255l29 -1v-28h-93v28l29 1v275l-29 1v27h64v-20c23 14 52 28 82 28c67 0 78 -41 78 -115v-196l30 -1v-28z" />
    <glyph glyph-name="o.superior" unicode="&#xf6f0;" horiz-adv-x="263" 
d="M237 454c0 -104 -25 -157 -103 -157s-104 53 -104 157v31c0 104 26 157 104 157s103 -53 103 -157v-31zM203 454v31c0 90 -15 127 -69 127s-69 -37 -69 -127v-31c0 -90 15 -129 69 -129s69 39 69 129z" />
    <glyph glyph-name="r.superior" unicode="&#xf6f1;" horiz-adv-x="196" 
d="M174 611c-18 0 -58 -4 -85 -23v-260l26 -1v-27h-85v27l25 1v278l-25 1v27h58v-20c28 23 68 27 86 27v-30z" />
    <glyph glyph-name="s.superior" unicode="&#xf6f2;" horiz-adv-x="237" 
d="M210 385c0 -37 -19 -88 -98 -88c-30 0 -62 4 -78 8v60h26l2 -38c15 -2 30 -3 49 -3c54 0 66 33 66 61c0 31 -12 45 -55 73l-25 16c-44 28 -65 50 -65 89c0 46 25 79 94 79c30 0 64 -5 78 -9v-59h-26l-2 37c-16 2 -31 3 -47 3c-47 0 -64 -19 -64 -51c0 -29 13 -42 51 -66
l25 -16c52 -31 69 -57 69 -96z" />
    <glyph glyph-name="t.superior" unicode="&#xf6f3;" horiz-adv-x="208" 
d="M185 301c-17 -2 -33 -4 -46 -4c-46 0 -57 22 -57 67v242l-55 2v26h55v85h35v-85h69v-28h-69v-241c0 -33 4 -41 28 -41c11 0 25 1 40 2v-25z" />
    <glyph glyph-name="parenleft.superior" unicode="&#x207d;" horiz-adv-x="177" 
d="M149 234h-36c-33 53 -72 140 -72 260v5c0 120 40 208 73 261h37c-37 -61 -74 -145 -74 -261v-5c0 -116 36 -199 72 -260z" />
    <glyph glyph-name="parenright.superior" unicode="&#x207e;" horiz-adv-x="177" 
d="M138 494c0 -120 -40 -207 -72 -260h-37c37 61 72 144 72 260v5c0 116 -37 200 -73 261h36c33 -53 74 -141 74 -261v-5z" />
    <glyph glyph-name="dollar.superior" unicode="&#xf6e4;" horiz-adv-x="291" 
d="M263 420c0 -69 -39 -107 -100 -116v-73h-34v71c-35 1 -71 6 -92 10v74h30l2 -48c20 -2 43 -4 67 -4c66 0 90 30 90 85c0 45 -19 62 -67 92l-50 31c-46 29 -80 58 -80 113c0 64 42 94 100 100v75h34v-75c33 0 71 -5 87 -8v-75h-29l-3 48c-27 2 -42 3 -64 3
c-53 0 -89 -16 -89 -68c0 -39 25 -60 64 -84l48 -29c57 -34 86 -64 86 -122z" />
    <glyph glyph-name="cent.superior" unicode="&#xf6e0;" horiz-adv-x="276" 
d="M250 317c-23 -5 -51 -8 -76 -8v-78h-33v80c-70 9 -109 52 -109 178v84c0 123 39 169 109 178v78h33v-77c25 0 53 -3 76 -7v-72h-29l-2 44c-19 1 -36 2 -51 2c-67 0 -100 -29 -100 -146v-84c0 -118 33 -146 102 -146c25 0 57 2 80 4v-30z" />
    <glyph glyph-name="hyphen.superior" unicode="&#xf6e6;" horiz-adv-x="197" 
d="M165 475h-133v30h133v-30z" />
    <glyph glyph-name="comma.superior" unicode="&#xf6e2;" horiz-adv-x="117" 
d="M90 397l-45 -145h-30l38 145h37z" />
    <glyph glyph-name="period.superior" unicode="&#xf6e8;" horiz-adv-x="94" 
d="M67 309h-36v88h36v-88z" />
    <glyph glyph-name="zero.oldstyle" unicode="&#xf730;" horiz-adv-x="443" 
d="M406 220c0 -130 -50 -229 -180 -229c-129 0 -179 99 -179 229v100c0 129 50 228 179 228c130 0 180 -99 180 -228v-100zM367 220v100c0 121 -44 193 -141 193c-96 0 -140 -72 -140 -193v-100c0 -121 44 -194 140 -194c97 0 141 73 141 194z" />
    <glyph glyph-name="one.oldstyle" unicode="&#xf731;" horiz-adv-x="351" 
d="M320 0h-278v34l120 2v460l-121 -51v40l128 56h32v-505l119 -2v-34z" />
    <glyph glyph-name="two.oldstyle" unicode="&#xf732;" horiz-adv-x="416" 
d="M375 0h-328v37l112 110c132 114 181 171 181 261c0 76 -45 105 -151 105c-30 0 -71 -3 -103 -8l-3 -69h-32v96c39 8 93 16 142 16c137 0 186 -49 186 -140c0 -98 -53 -161 -194 -283l-83 -88h273v-37z" />
    <glyph glyph-name="three.oldstyle" unicode="&#xf733;" horiz-adv-x="408" 
d="M365 -17c0 -128 -45 -195 -190 -195c-49 0 -113 8 -139 15v106h31l4 -81c29 -4 71 -6 103 -6c121 0 152 51 152 161v44c0 75 -11 141 -114 141h-153v34h153c103 0 115 62 115 140v21c0 104 -29 151 -153 151c-31 0 -74 -3 -103 -7l-3 -71h-32v97c24 6 90 15 139 15
c146 0 191 -61 191 -185v-21c0 -78 -17 -133 -84 -157c68 -25 83 -82 83 -158v-44z" />
    <glyph glyph-name="four.oldstyle" unicode="&#xf734;" horiz-adv-x="446" 
d="M416 20h-91v-184l55 -1v-34h-149v34l55 1v184h-265v40l256 485h48v-490h91v-35zM286 55v433l-227 -433h227z" />
    <glyph glyph-name="five.oldstyle" unicode="&#xf735;" horiz-adv-x="411" 
d="M366 -8c0 -136 -44 -205 -193 -205c-58 0 -119 10 -144 17v95h31l4 -70c31 -4 69 -7 108 -7c128 0 155 53 155 170v34c0 129 -39 172 -175 172h-111l23 341h279v-104h-31l-4 68h-209l-18 -270h73c164 0 212 -66 212 -207v-34z" />
    <glyph glyph-name="six.oldstyle" unicode="&#xf736;" horiz-adv-x="450" 
d="M411 214c0 -152 -71 -223 -181 -223c-118 0 -184 74 -184 249v273c0 147 32 239 199 239c52 0 118 -10 144 -17v-96h-31l-4 70c-30 4 -75 8 -108 8c-140 0 -161 -74 -161 -202v-88c50 14 104 21 148 21c111 0 178 -50 178 -188v-46zM372 214v44c0 119 -48 157 -142 157
c-41 0 -92 -5 -145 -21v-156c0 -138 43 -212 145 -212c101 0 142 72 142 188z" />
    <glyph glyph-name="seven.oldstyle" unicode="&#xf737;" horiz-adv-x="390" 
d="M354 498l-243 -702h-41l247 707h-264l-3 -68h-31v104h335v-41z" />
    <glyph glyph-name="eight.oldstyle" unicode="&#xf738;" horiz-adv-x="459" 
d="M421 209c0 -164 -55 -218 -183 -218h-5c-128 0 -184 55 -184 218v9c0 93 21 149 85 172c-63 20 -83 76 -83 160v11c0 128 49 190 182 190h5c133 0 182 -62 182 -190v-11c0 -85 -21 -140 -84 -160c65 -23 85 -78 85 -171v-10zM382 209v10c0 92 -16 153 -107 153h-79
c-91 0 -108 -62 -108 -154v-9c0 -136 36 -183 145 -183h5c109 0 144 46 144 183zM382 550v11c0 109 -35 156 -144 156h-5c-109 0 -144 -47 -144 -156v-11c0 -79 16 -143 107 -143h79c90 0 107 62 107 143z" />
    <glyph glyph-name="nine.oldstyle" unicode="&#xf739;" horiz-adv-x="450" 
d="M411 26c0 -146 -32 -239 -198 -239c-52 0 -118 10 -145 17v97h32l3 -71c31 -4 76 -8 108 -8c141 0 161 75 161 203v88c-50 -14 -103 -22 -147 -22c-111 0 -179 50 -179 189v46c0 152 71 222 181 222c118 0 184 -74 184 -248v-274zM372 145v156c0 138 -42 212 -145 212
c-100 0 -142 -71 -142 -187v-44c0 -119 48 -157 142 -157c41 0 93 5 145 20z" />
    <glyph glyph-name="cent.oldstyle" unicode="&#xf7a2;" horiz-adv-x="355" 
d="M317 4c-35 -8 -62 -11 -85 -12v-112h-36v113c-109 9 -140 81 -140 220v114c0 136 33 210 140 220v119h37v-118c22 -2 49 -4 84 -12v-84h-31l-3 57c-30 4 -47 4 -62 4c-96 0 -127 -51 -127 -186v-114c0 -138 30 -187 127 -187c24 0 53 3 96 9v-31z" />
    </font>
</defs>
</svg>
