<?xml version="1.0" standalone="no"?>
<!DOCTYPE svg PUBLIC "-//W3C//DTD SVG 1.1//EN" "http://www.w3.org/Graphics/SVG/1.1/DTD/svg11.dtd" >
<svg xmlns="http://www.w3.org/2000/svg" xmlns:xlink="http://www.w3.org/1999/xlink" version="1.1">
<metadata>
Created by FontForge 20141024 at Thu Apr 30 19:23:41 2015
 By System Administrator
Copyright (c) 2007 Monotype Imaging Inc. Soho is designed by Sebastian Lester. All rights reserved.
</metadata>
<defs>
<font id="SohoPro-UltraExtendedUltraIt" horiz-adv-x="1086" >
  <font-face 
    font-family="Soho Pro"
    font-weight="1000"
    font-style="italic"
    font-stretch="normal"
    units-per-em="1000"
    panose-1="2 4 11 7 7 5 6 9 2 4"
    ascent="793"
    descent="-207"
    x-height="606"
    cap-height="743"
    bbox="-73 -236 2413 1108"
    underline-thickness="131"
    underline-position="14"
    slope="-12"
    stemh="142"
    stemv="163"
    unicode-range="U+000D-FB30"
  />
<missing-glyph horiz-adv-x="266" 
 />
    <glyph glyph-name="f_f" unicode="ff" horiz-adv-x="1311" 
d="M1353 383h-128l-26 -145l36 -4l-41 -234h-487l41 234l36 4l26 145h-197l-26 -145l36 -4l-41 -234h-487l41 234l36 4l26 145l-105 11l37 212h107l2 12c31 172 188 194 336 194c86 0 176 -9 238 -21l-28 -161c-64 2 -75 2 -84 2c-32 0 -45 -4 -49 -26h197l2 12
c31 172 188 194 336 194c86 0 175 -9 238 -21l-28 -161c-63 2 -74 2 -84 2c-32 0 -45 -4 -49 -26h128z" />
    <glyph glyph-name="f_i" unicode="fi" horiz-adv-x="1222" 
d="M1283 639h-437l27 154h437zM1197 0h-488l41 233l36 5l26 145h-199l-26 -145l36 -5l-41 -233h-487l41 233l36 5l26 145l-104 10l37 213h106l2 12c31 172 188 194 336 194c87 0 176 -9 239 -21l-28 -161c-64 2 -75 2 -85 2c-32 0 -45 -4 -49 -26h614l-65 -368l37 -5z" />
    <glyph glyph-name="f_l" unicode="fl" horiz-adv-x="1220" 
d="M1195 0h-487l41 234l36 4l70 392c-64 2 -117 2 -154 2c-31 0 -44 -2 -49 -26h128l-39 -223h-128l-26 -145l36 -4l-41 -234h-487l41 234l36 4l26 145l-105 11l37 212h107l1 3c30 169 161 203 354 203c64 0 227 -12 291 -19h415l-98 -555l36 -4z" />
    <glyph glyph-name="f_f_i" unicode="ffi" horiz-adv-x="1834" 
d="M1896 639h-437l27 154h437zM1809 0h-487l41 234l36 4l26 145h-199l-26 -145l36 -4l-41 -234h-487l41 234l36 4l26 145h-198l-26 -145l36 -4l-41 -234h-487l41 234l36 4l26 145l-105 11l37 212h107l2 12c31 172 188 194 336 194c86 0 176 -9 238 -21l-28 -161
c-64 2 -75 2 -84 2c-32 0 -45 -4 -49 -26h198l2 12c31 172 188 194 336 194c87 0 175 -9 239 -21l-28 -161c-64 2 -75 2 -85 2c-32 0 -45 -4 -49 -26h614l-65 -368l36 -4z" />
    <glyph glyph-name="f_f_l" unicode="ffl" horiz-adv-x="1834" 
d="M1809 0h-487l41 234l36 4l70 392c-64 2 -117 2 -155 2c-30 0 -44 -2 -49 -26h129l-39 -223h-129l-26 -145l36 -4l-41 -234h-487l41 234l36 4l26 145h-198l-26 -145l36 -4l-41 -234h-487l41 234l36 4l26 145l-105 11l37 212h107l2 12c31 172 188 194 336 194
c86 0 176 -9 238 -21l-28 -161c-64 2 -75 2 -84 2c-32 0 -45 -4 -49 -26h198l1 3c30 169 162 203 355 203c64 0 227 -12 291 -19h415l-98 -555l36 -4z" />
    <glyph glyph-name="f_b" unicode="fb" horiz-adv-x="1708" 
d="M883 793h415l-30 -171c9 1 50 4 112 4c224 0 359 -78 359 -260c0 -24 -2 -51 -10 -92c-46 -252 -254 -295 -520 -295c-160 0 -279 4 -465 23l111 628c-64 2 -119 2 -156 2c-31 0 -42 -2 -47 -26h128l-39 -223h-128l-26 -145l36 -4l-41 -234h-487l41 234l36 4l26 145
l-105 11l37 212h107l2 9c29 163 159 197 350 197c92 0 232 -12 294 -19zM1318 294c6 32 8 47 8 59c0 29 -12 41 -50 41c-12 0 -33 -1 -47 -4l-31 -177c8 -1 29 -3 46 -3c54 0 62 21 74 84z" />
    <glyph glyph-name="f_f_b" unicode="ffb" horiz-adv-x="2322" 
d="M1497 793h415l-30 -171c9 1 50 4 112 4c224 0 359 -78 359 -260c0 -24 -2 -51 -10 -92c-46 -252 -254 -295 -520 -295c-160 0 -279 4 -465 23l111 628c-64 2 -119 2 -157 2c-30 0 -42 -2 -47 -26h129l-39 -223h-129l-26 -145l36 -4l-41 -234h-487l41 234l36 4l26 145
h-198l-26 -145l36 -4l-41 -234h-487l41 234l36 4l26 145l-105 11l37 212h107l2 12c31 172 188 194 336 194c86 0 176 -9 238 -21l-28 -161c-64 2 -75 2 -84 2c-32 0 -45 -4 -49 -26h198l1 3c30 169 161 203 352 203c68 0 232 -12 294 -19zM1932 294c6 32 8 47 8 59
c0 29 -12 41 -50 41c-12 0 -33 -1 -47 -4l-31 -177c8 -1 29 -3 46 -3c54 0 62 21 74 84z" />
    <glyph glyph-name="f_h" unicode="fh" horiz-adv-x="1747" 
d="M1298 793l-35 -203c86 32 170 36 234 36c212 0 256 -93 256 -189c0 -38 -7 -76 -13 -109l-17 -90l36 -5l-41 -233h-451l61 347c2 10 2 17 2 24c0 23 -10 30 -35 30c-24 0 -51 -6 -68 -12l-27 -151l36 -4l-41 -234h-487l41 234l36 4l70 392c-64 2 -119 2 -156 2
c-31 0 -42 -2 -47 -26h128l-39 -223h-128l-26 -145l36 -4l-41 -234h-487l41 234l36 4l26 145l-105 11l37 212h107l1 3c30 169 160 203 351 203c92 0 232 -12 294 -19h415z" />
    <glyph glyph-name="f_f_h" unicode="ffh" horiz-adv-x="2360" 
d="M1911 793l-36 -205c86 32 171 38 235 38c212 0 256 -93 256 -189c0 -38 -7 -76 -13 -109l-17 -90l36 -5l-41 -233h-451l61 347c2 10 2 17 2 24c0 23 -10 30 -35 30c-24 0 -51 -6 -68 -12l-27 -151l36 -4l-41 -234h-487l41 234l36 4l70 392c-63 2 -118 2 -156 2
c-30 0 -42 -2 -47 -26h128l-39 -223h-128l-26 -145l36 -4l-41 -234h-487l41 234l36 4l26 145h-198l-26 -145l36 -4l-41 -234h-487l41 234l36 4l26 145l-105 11l37 212h107l2 12c31 172 188 194 336 194c86 0 176 -9 238 -21l-28 -161c-64 2 -75 2 -84 2
c-32 0 -45 -4 -49 -26h198l1 3c30 169 161 203 352 203c68 0 232 -12 293 -19h415z" />
    <glyph glyph-name="f_j" unicode="fj" horiz-adv-x="1214" 
d="M1296 639h-437l27 154h437zM1177 26c-32 -184 -137 -240 -377 -240c-105 0 -168 6 -182 8l33 188c38 -1 43 -1 52 -1c45 0 53 11 59 45l63 357h-212l-26 -145l36 -4l-41 -234h-487l41 234l36 4l26 145l-105 11l37 212h107l2 12c31 172 188 194 336 194
c86 0 176 -9 238 -21l-28 -161c-64 2 -75 2 -84 2c-32 0 -45 -4 -49 -26h627z" />
    <glyph glyph-name="f_f_j" unicode="ffj" horiz-adv-x="1834" 
d="M1916 639h-438l27 154h438zM1796 26c-32 -184 -136 -240 -376 -240c-106 0 -165 6 -182 8l33 188c37 -1 41 -1 51 -1c46 0 53 11 59 45l63 357h-212l-26 -145l36 -4l-41 -234h-487l41 234l36 4l26 145h-198l-26 -145l36 -4l-41 -234h-487l41 234l36 4l26 145l-105 11
l37 212h107l2 12c31 172 188 194 336 194c86 0 176 -9 238 -21l-28 -161c-64 2 -75 2 -84 2c-32 0 -45 -4 -49 -26h198l2 12c31 172 188 194 336 194c87 0 175 -9 239 -21l-28 -161c-64 2 -75 2 -85 2c-32 0 -45 -4 -49 -26h627z" />
    <glyph glyph-name="f_k" unicode="fk" horiz-adv-x="1723" 
d="M1693 0h-367l-120 266l-46 -266h-451l41 234l36 4l70 392c-64 2 -119 2 -157 2c-30 0 -42 -2 -47 -26h129l-39 -223h-129l-26 -145l36 -4l-41 -234h-487l41 234l36 4l26 145l-104 11l37 212h106l1 3c30 169 161 203 352 203c92 0 232 -12 294 -19h415l-82 -467l234 280
h348l-41 -234l-109 -10l-57 -50l52 -68l90 -10z" />
    <glyph glyph-name="f_f_k" unicode="ffk" horiz-adv-x="2337" 
d="M2306 0h-366l-120 266l-46 -266h-451l41 234l36 4l70 392c-64 2 -120 2 -157 2c-30 0 -42 -2 -47 -26h128l-39 -223h-128l-26 -145l36 -4l-41 -234h-487l41 234l36 4l26 145h-199l-26 -145l36 -4l-41 -234h-487l41 234l36 4l26 145l-104 9l37 214h106l2 12
c31 172 188 194 336 194c87 0 176 -9 239 -21l-28 -161c-64 2 -75 2 -85 2c-32 0 -45 -4 -49 -26h199l1 3c30 169 160 203 352 203c91 0 232 -12 294 -19h415l-82 -467l234 280h348l-41 -234l-107 -10l-60 -50l53 -68l89 -10z" />
    <glyph glyph-name=".notdef" horiz-adv-x="266" 
 />
    <glyph glyph-name="CR" unicode="&#xd;" horiz-adv-x="266" 
 />
    <glyph glyph-name="space" unicode=" " horiz-adv-x="266" 
 />
    <glyph glyph-name="exclam" unicode="!" horiz-adv-x="491" 
d="M443 0h-399l37 213h399zM600 793l-127 -527h-366l62 527h431z" />
    <glyph glyph-name="quotedbl" unicode="&#x22;" horiz-adv-x="930" 
d="M1038 787l-230 -310h-259l170 310h319zM603 787h-320l-169 -310h260z" />
    <glyph glyph-name="numbersign" unicode="#" horiz-adv-x="1094" 
d="M1087 135h-155l-47 -135h-343l48 135h-116l-48 -135h-342l48 135h-79l31 173h107l36 97h-126l30 173h155l59 165h342l-59 -165h116l58 165h342l-58 -165h79l-30 -173h-107l-36 -97h126zM685 405h-115l-36 -97h116z" />
    <glyph glyph-name="dollar" unicode="$" horiz-adv-x="1002" 
d="M1021 282c0 -211 -151 -273 -346 -300l-22 -127h-309l21 120c-71 3 -166 10 -301 23l43 242h230l5 -28c70 -2 100 -2 149 -2c55 0 72 0 72 15c0 10 -12 12 -80 19l-73 7c-183 17 -296 65 -296 224c0 223 188 270 390 290l20 114h309l-20 -116c83 -6 207 -21 246 -26
l-40 -227h-231l-5 31c-52 2 -102 2 -153 2c-50 0 -67 0 -67 -14c0 -13 14 -16 97 -24l63 -6c207 -19 298 -89 298 -217z" />
    <glyph glyph-name="percent" unicode="%" horiz-adv-x="1680" 
d="M1513 754l-918 -754h-310l919 754h309zM740 576c0 -215 -147 -282 -354 -282c-167 0 -269 55 -269 192c0 216 144 284 353 284c167 0 270 -55 270 -194zM455 530c6 32 9 53 9 67c0 21 -7 25 -20 25c-21 0 -28 -12 -41 -88c-6 -35 -9 -55 -9 -68c0 -19 6 -24 18 -24
c22 0 30 13 43 88zM1695 269c0 -215 -147 -282 -354 -282c-167 0 -269 55 -269 192c0 216 144 284 353 284c167 0 270 -55 270 -194zM1410 223c6 32 9 53 9 67c0 21 -7 25 -20 25c-21 0 -28 -12 -41 -88c-6 -35 -9 -55 -9 -68c0 -19 6 -24 18 -24c22 0 30 13 43 88z" />
    <glyph glyph-name="ampersand" unicode="&#x26;" horiz-adv-x="1259" 
d="M1286 358l-45 -18c-12 -72 -49 -125 -101 -176l105 -68l-16 -96h-348l-31 23c-46 -19 -164 -42 -334 -42c-302 0 -452 44 -452 215c0 151 112 200 225 221c-72 45 -95 96 -95 150c0 203 298 203 477 203c151 0 311 -18 406 -33l-42 -238h-228l-5 40c-42 1 -72 1 -127 1
c-25 0 -54 0 -54 -20c0 -14 5 -19 22 -30l285 -186c5 13 9 28 10 36l-36 18l17 96h384zM655 161l-132 102c-17 -9 -26 -29 -26 -50c0 -43 44 -58 96 -58c18 0 40 3 62 6z" />
    <glyph glyph-name="quotesingle" unicode="'" horiz-adv-x="475" 
d="M593 787l-229 -310h-260l169 310h320z" />
    <glyph glyph-name="parenleft" unicode="(" horiz-adv-x="597" 
d="M527 -194h-346c-53 65 -113 209 -113 363c0 227 107 426 271 574h359c-139 -180 -234 -392 -234 -614c0 -105 15 -210 63 -323z" />
    <glyph glyph-name="parenright" unicode=")" horiz-adv-x="597" 
d="M168 743h346c53 -65 113 -209 113 -363c0 -227 -107 -426 -271 -574h-359c139 180 234 392 234 614c0 105 -15 210 -63 323z" />
    <glyph glyph-name="asterisk" unicode="*" horiz-adv-x="665" 
d="M731 515l-57 -17c-26 -7 -55 -11 -88 -12c28 -18 48 -37 63 -56l35 -44l-182 -118l-35 43c-16 19 -28 43 -39 70c-11 -28 -24 -51 -40 -70l-36 -43l-180 119l35 43c15 19 36 38 62 56c-33 1 -62 4 -87 12l-56 18l70 192l55 -17c26 -8 52 -20 78 -37c-10 29 -14 55 -14 79
v54h225v-54c0 -24 -5 -50 -15 -79c26 17 54 30 79 37l57 17z" />
    <glyph glyph-name="plus" unicode="+" horiz-adv-x="800" 
d="M826 240h-224v-201h-284v201h-223v257h223v199h284v-199h224v-257z" />
    <glyph glyph-name="comma" unicode="," horiz-adv-x="619" 
d="M627 218l-304 -318h-311l202 318h413z" />
    <glyph glyph-name="hyphen" unicode="-" horiz-adv-x="431" 
d="M434 189h-371l38 219h371z" />
    <glyph glyph-name="period" unicode="." horiz-adv-x="502" 
d="M462 0h-422l38 217h422z" />
    <glyph glyph-name="slash" unicode="/" horiz-adv-x="848" 
d="M949 743l-476 -743h-443l478 743h441z" />
    <glyph glyph-name="zero" unicode="0" horiz-adv-x="1085" 
d="M1119 338c-53 -303 -255 -365 -571 -365c-304 0 -463 95 -463 326c0 31 3 64 11 107c51 291 276 364 572 364c302 0 462 -94 462 -325c0 -30 -3 -64 -11 -107zM651 367c11 59 15 92 15 114c0 33 -10 40 -32 40c-37 0 -48 -19 -70 -144c-11 -59 -15 -92 -15 -114
c0 -34 11 -41 33 -41c36 0 47 20 69 145z" />
    <glyph glyph-name="one" unicode="1" horiz-adv-x="880" 
d="M850 0h-820l41 236l181 12l36 205l-183 -24l41 233l331 81h325l-88 -495l177 -12z" />
    <glyph glyph-name="two" unicode="2" horiz-adv-x="1011" 
d="M961 0h-931l15 88c38 218 139 305 378 371c167 46 176 52 176 69c0 12 -13 16 -93 16c-21 0 -68 -1 -126 -4l-10 -37h-240l38 213c175 45 363 54 476 54c338 0 438 -75 438 -198c0 -183 -197 -242 -383 -283c-161 -36 -165 -37 -172 -41h232l12 41h240z" />
    <glyph glyph-name="three" unicode="3" horiz-adv-x="1004" 
d="M1016 252c0 -265 -301 -279 -523 -279c-185 0 -379 29 -458 61l38 213h240l-3 -36c60 -2 117 -2 170 -2c42 0 82 0 82 31c0 27 -23 30 -110 30h-258l37 209h291c50 0 88 0 88 32c0 21 -16 27 -80 27c-51 0 -107 -1 -163 -3l-9 -33h-240l37 207c102 32 293 61 478 61
c232 0 441 -41 441 -197c0 -84 -29 -148 -132 -197c61 -24 74 -90 74 -124z" />
    <glyph glyph-name="four" unicode="4" horiz-adv-x="1090" 
d="M1081 122h-104l-7 -39l42 -4l-13 -79h-548l13 79l45 4l7 39h-465l34 194l680 427h322l-72 -405h104zM586 338l22 122l-184 -122h162z" />
    <glyph glyph-name="five" unicode="5" horiz-adv-x="983" 
d="M1003 292c0 -280 -266 -319 -512 -319c-202 0 -355 19 -451 47l39 221h232v-41c30 -1 52 -1 62 -1c110 0 150 0 150 40c0 27 -35 30 -90 30h-356l139 474h845l-45 -253h-233l-1 23h-253l-8 -30h37c350 0 445 -58 445 -191z" />
    <glyph glyph-name="six" unicode="6" horiz-adv-x="1031" 
d="M568 488c25 5 78 7 94 7c250 0 389 -46 389 -204c0 -287 -278 -318 -535 -318c-365 0 -434 156 -434 298c0 34 8 96 15 136c33 182 68 363 538 363c191 0 359 -28 434 -46l-38 -216h-233l-2 27c-44 1 -91 3 -131 3c-72 0 -89 0 -96 -42zM598 248c3 17 5 27 5 35
c0 15 -7 22 -30 22c-16 0 -36 -3 -38 -4l-9 -47c-2 -11 -3 -22 -3 -31c0 -19 6 -32 29 -32c33 0 41 29 46 57z" />
    <glyph glyph-name="seven" unicode="7" horiz-adv-x="1035" 
d="M1093 504l-543 -504h-485l554 513h-206l-14 -41h-233l48 271h922z" />
    <glyph glyph-name="eight" unicode="8" 
d="M1097 238c0 -261 -338 -265 -553 -265h-11c-342 0 -469 69 -469 211c0 101 49 155 133 190c-54 32 -76 84 -76 142c0 254 329 254 552 254h11c350 0 472 -65 472 -196c0 -91 -50 -161 -136 -200c55 -30 77 -84 77 -136zM652 228c2 10 2 15 2 19c0 25 -14 41 -55 41h-11
c-47 0 -67 -22 -72 -54c-2 -11 -2 -15 -2 -20c0 -25 14 -40 54 -40h11c47 0 67 21 73 54zM700 518c2 9 2 13 2 16c0 19 -12 33 -54 33h-11c-49 0 -63 -19 -67 -43c-2 -10 -2 -13 -2 -17c0 -19 13 -32 53 -32h11c48 0 63 18 68 43z" />
    <glyph glyph-name="nine" unicode="9" horiz-adv-x="1031" 
d="M593 255c-25 -5 -78 -7 -94 -7c-250 0 -389 46 -389 204c0 287 278 318 535 318c365 0 434 -156 434 -298c0 -34 -8 -96 -15 -136c-33 -182 -68 -363 -538 -363c-191 0 -359 28 -434 46l38 216h233l2 -27c44 -1 91 -3 131 -3c72 0 89 0 96 42zM563 495
c-3 -17 -5 -27 -5 -35c0 -15 7 -22 30 -22c16 0 36 3 38 4l9 47c2 11 3 22 3 31c0 19 -6 32 -29 32c-33 0 -41 -29 -46 -57z" />
    <glyph glyph-name="colon" unicode=":" horiz-adv-x="521" 
d="M471 0h-421l38 218h421zM577 606l-38 -217h-421l38 217h421z" />
    <glyph glyph-name="semicolon" unicode=";" horiz-adv-x="630" 
d="M638 219l-312 -317h-314l200 317h426zM665 389h-422l38 217h422z" />
    <glyph glyph-name="less" unicode="&#x3c;" horiz-adv-x="800" 
d="M816 59h-398l-352 309l352 309h398l-339 -309z" />
    <glyph glyph-name="equal" unicode="=" horiz-adv-x="800" 
d="M839 429h-711v257h711v-257zM839 54h-711v257h711v-257z" />
    <glyph glyph-name="greater" unicode="&#x3e;" horiz-adv-x="800" 
d="M883 368l-351 -309h-399l340 309l-340 309h399z" />
    <glyph glyph-name="question" unicode="?" horiz-adv-x="828" 
d="M520 0h-421l38 216h421zM523 264h-335c16 89 25 137 91 195c32 27 87 58 87 89c0 13 -12 16 -31 16c-11 0 -23 -1 -27 -1l-12 -34h-173l41 233c69 21 201 43 379 43c249 0 366 -62 366 -174c0 -136 -93 -185 -213 -246c-146 -74 -165 -78 -173 -121z" />
    <glyph glyph-name="at" unicode="@" horiz-adv-x="1282" 
d="M752 346c-14 1 -21 1 -25 1c-55 0 -61 -22 -74 -72c-6 -25 -14 -54 -14 -79c0 -24 17 -28 46 -28h23zM1343 370c0 -308 -367 -342 -598 -342c-52 0 -103 1 -155 6c-104 9 -216 34 -216 161c0 31 6 61 14 91c49 177 222 213 383 213c99 0 197 -11 295 -26l-69 -284
c107 4 162 70 162 175c0 187 -244 201 -380 201c-160 0 -361 -35 -443 -192c-31 -59 -46 -131 -46 -198c0 -143 86 -190 216 -205c54 -7 108 -7 162 -7c94 0 188 3 282 8l-7 -76c-90 -12 -192 -16 -282 -16c-196 0 -555 2 -555 292c0 78 17 162 58 235
c117 210 403 265 624 265c195 0 555 -36 555 -301z" />
    <glyph glyph-name="A" unicode="A" horiz-adv-x="1242" 
d="M1212 0h-472l-3 94h-202l-36 -94h-469l42 241l58 5l122 251l-54 5l43 241h895l60 -497l58 -5zM737 319l-10 185c-2 28 0 69 0 97h-2c-9 -29 -25 -69 -36 -97l-71 -185h119z" />
    <glyph glyph-name="B" unicode="B" horiz-adv-x="1124" 
d="M1139 258c0 -259 -310 -285 -644 -285c-78 0 -274 8 -465 27l42 241l44 5l44 251l-42 5l43 241c211 21 406 27 473 27c357 0 550 -53 550 -208c0 -79 -33 -142 -112 -182c51 -25 67 -77 67 -122zM553 275l-12 -69c11 -2 38 -3 64 -3c59 0 99 0 99 47c0 22 -26 25 -97 25
h-54zM633 463c83 0 117 0 117 45c0 27 -30 29 -88 29c-22 0 -49 -1 -63 -3l-13 -71h47z" />
    <glyph glyph-name="C" unicode="C" horiz-adv-x="926" 
d="M896 2c-60 -16 -263 -29 -326 -29c-347 0 -485 115 -485 322c0 33 3 67 11 110c48 272 212 365 614 365c63 0 262 -13 316 -29l-47 -269h-240l-1 41h-14c-89 0 -136 -11 -158 -138c-5 -29 -7 -49 -7 -65c0 -74 42 -80 115 -80h14l15 41h240z" />
    <glyph glyph-name="D" unicode="D" horiz-adv-x="1145" 
d="M1190 440c0 -455 -377 -467 -627 -467c-168 0 -381 12 -532 34l41 234l57 6l45 256l-55 6l42 234c156 20 374 27 542 27c305 0 487 -96 487 -330zM734 369c8 48 14 79 14 101c0 42 -20 53 -81 53c-10 0 -24 0 -49 -1l-54 -301c18 -1 39 -1 49 -1c94 0 99 26 121 149z" />
    <glyph glyph-name="E" unicode="E" horiz-adv-x="959" 
d="M929 0h-899l42 241l46 4l44 252l-44 5l43 241h899l-43 -242h-229l-6 19h-150l-7 -41h358l-37 -212h-358l-8 -43h149l14 21h229z" />
    <glyph glyph-name="F" unicode="F" horiz-adv-x="958" 
d="M944 264h-359l-3 -19l43 -4l-42 -241h-553l42 241l44 5l44 251l-42 5l43 241h898l-44 -248h-230l-6 19h-150l-7 -40h359z" />
    <glyph glyph-name="G" unicode="G" horiz-adv-x="1044" 
d="M1011 13c-128 -23 -311 -40 -481 -40c-249 0 -444 80 -444 331c0 30 3 61 10 102c59 336 311 364 577 364c168 0 354 -23 464 -43l-45 -252h-228l-4 36c-38 1 -97 2 -132 2c-118 0 -164 -2 -188 -137c-7 -41 -11 -69 -11 -89c0 -42 16 -56 61 -56c18 0 37 0 57 2l5 32
l-45 9l32 180h450z" />
    <glyph glyph-name="H" unicode="H" horiz-adv-x="1292" 
d="M1262 0h-509l43 247h-214l-43 -247h-509l42 241l44 5l44 251l-42 5l43 241h509l-44 -249h214l44 249h509l-43 -241l-44 -5l-44 -251l42 -5z" />
    <glyph glyph-name="I" unicode="I" horiz-adv-x="613" 
d="M583 0h-553l42 241l44 5l44 251l-42 5l43 241h553l-43 -241l-45 -5l-44 -251l43 -5z" />
    <glyph glyph-name="J" unicode="J" horiz-adv-x="613" 
d="M670 502l-44 -5l-76 -432c-34 -193 -173 -276 -419 -276c-73 0 -143 4 -182 8l32 183h34c50 0 57 15 64 55l81 462l-43 5l43 241h553z" />
    <glyph glyph-name="K" unicode="K" horiz-adv-x="1243" 
d="M1208 0h-450l-158 338l-59 -338h-511l42 241l46 5l44 251l-44 5l43 241h511l-62 -351l309 351h425l-43 -241l-70 -5l-142 -126l91 -124l70 -6z" />
    <glyph glyph-name="L" unicode="L" horiz-adv-x="853" 
d="M823 0h-793l42 241l46 5l44 251l-44 5l43 241h554l-43 -241l-44 -5l-44 -251h39l23 56h230z" />
    <glyph glyph-name="M" unicode="M" horiz-adv-x="1428" 
d="M1398 0h-484l35 201c6 34 13 73 23 106h-2c-22 -19 -50 -41 -73 -59l-101 -78h-111l-74 78c-17 17 -36 40 -50 59h-2c-4 -33 -11 -72 -17 -106l-35 -201h-477l42 241l39 5l44 251l-37 5l43 241h396l169 -189c18 -20 36 -38 55 -61h2c27 23 53 42 76 61l239 189h431
l-43 -241l-44 -5l-44 -251l42 -5z" />
    <glyph glyph-name="N" unicode="N" horiz-adv-x="1228" 
d="M1286 502l-44 -5l-87 -497h-390l-185 208c-13 15 -33 36 -45 50h-3c-3 -26 -8 -56 -13 -83l-30 -175h-459l42 241l46 5l44 251l-44 5l43 241h413l204 -218c12 -13 34 -35 45 -49h2c3 28 8 55 13 80l33 187h458z" />
    <glyph glyph-name="O" unicode="O" horiz-adv-x="1108" 
d="M1143 339c-58 -321 -305 -366 -584 -366c-288 0 -473 85 -473 334c0 29 3 59 10 98c55 316 304 365 583 365c280 0 473 -88 473 -336c0 -28 -2 -57 -9 -95zM701 369c6 36 9 60 9 80c0 45 -17 65 -66 65c-71 0 -89 -40 -106 -139c-6 -36 -9 -60 -9 -79
c0 -51 20 -66 65 -66c62 0 87 29 107 139z" />
    <glyph glyph-name="P" unicode="P" horiz-adv-x="1138" 
d="M1203 519c0 -316 -335 -330 -526 -330c-46 0 -91 1 -141 3l-33 -192h-473l42 241l44 5l44 251l-42 5l43 241c153 19 346 27 502 27c304 0 540 -39 540 -251zM653 440h12c40 0 101 1 101 54c0 32 -40 32 -97 32c-29 0 -64 -2 -74 -3l-15 -81c16 -1 45 -2 73 -2z" />
    <glyph glyph-name="Q" unicode="Q" horiz-adv-x="1109" 
d="M1143 339c-45 -246 -200 -330 -395 -355c0 -10 10 -10 52 -10h115l-29 -165c-76 -15 -201 -30 -303 -30c-140 0 -274 32 -242 210l1 6c-161 39 -256 133 -256 312c0 29 3 59 10 98c55 316 304 365 583 365c280 0 473 -88 473 -336c0 -28 -2 -57 -9 -95zM701 369
c6 36 9 60 9 80c0 45 -17 65 -66 65c-71 0 -89 -40 -106 -139c-6 -36 -9 -60 -9 -79c0 -51 20 -66 65 -66c62 0 87 29 107 139z" />
    <glyph glyph-name="R" unicode="R" horiz-adv-x="1135" 
d="M1105 0h-332l-141 221h-44h-46l-38 -221h-474l42 241l44 5l44 251l-42 5l43 241c117 14 328 27 547 27c260 0 489 -41 489 -237c0 -112 -45 -186 -150 -253l34 -34l66 -5zM648 440c66 0 110 0 110 50c0 30 -22 36 -95 36c-29 0 -33 0 -68 -3l-15 -81c22 -2 43 -2 68 -2z
" />
    <glyph glyph-name="S" unicode="S" horiz-adv-x="992" 
d="M1012 284c0 -285 -244 -311 -501 -311c-167 0 -335 7 -452 25l41 232h229l6 -29h149c59 0 71 4 73 19c0 11 -15 13 -97 20l-60 5c-157 13 -288 62 -288 223c0 292 244 302 546 302c151 0 300 -18 395 -33l-38 -217h-231l-6 31h-151c-55 0 -68 -3 -70 -19
c0 -12 20 -15 98 -23l65 -7c205 -22 292 -91 292 -218z" />
    <glyph glyph-name="T" unicode="T" horiz-adv-x="1021" 
d="M1073 466h-208l-9 41h-22l-46 -261l42 -5l-42 -241h-554l42 241l44 5l46 261h-23l-22 -41h-209l49 277h961z" />
    <glyph glyph-name="U" unicode="U" horiz-adv-x="1214" 
d="M1272 502l-45 -5l-35 -197c-58 -327 -347 -327 -581 -327c-237 0 -484 24 -484 291c0 29 3 61 9 96l24 137l-42 5l43 241h495l-73 -413c-4 -22 -6 -39 -6 -54c0 -41 18 -57 67 -57c69 0 88 29 103 111l73 413h495z" />
    <glyph glyph-name="V" unicode="V" horiz-adv-x="1184" 
d="M1242 502l-55 -5l-221 -497h-749l-46 497l-53 5l43 241h436l4 -461c0 -40 2 -82 2 -122h2c14 40 29 82 44 122l170 461h466z" />
    <glyph glyph-name="W" unicode="W" horiz-adv-x="1602" 
d="M1670 502l-56 -5l-194 -497h-484l-62 246c-8 34 -13 77 -12 102h-2c-10 -25 -27 -68 -47 -102l-148 -246h-484l-20 497l-53 5l43 241h436l-11 -249c-3 -66 -9 -110 -15 -149h2c22 43 36 68 58 107l85 150h371l30 -150c8 -39 16 -65 20 -107h2c8 39 19 83 40 149l77 249
h467z" />
    <glyph glyph-name="X" unicode="X" horiz-adv-x="1081" 
d="M1051 0h-405l-88 150l-133 -150h-395l42 241l72 5l165 146l-123 105l-54 5l43 241h436l94 -143l125 143h352l-43 -241l-67 -5l-150 -139l91 -112l80 -5z" />
    <glyph glyph-name="Y" unicode="Y" horiz-adv-x="1014" 
d="M1072 502l-63 -5l-239 -257l-4 -19l42 -6l-37 -215h-541l37 215l58 6l4 19l-150 257l-61 5l43 241h337l50 -126c13 -32 20 -54 35 -93h4c21 32 42 62 66 93l97 126h365z" />
    <glyph glyph-name="Z" unicode="Z" horiz-adv-x="911" 
d="M881 0h-851l38 216l336 276h-65l-16 -36h-213l51 287h851l-38 -215l-339 -277h65l18 36h213z" />
    <glyph glyph-name="bracketleft" unicode="[" horiz-adv-x="649" 
d="M584 -194h-588l165 937h589l-42 -233h-174l-83 -471h174z" />
    <glyph glyph-name="backslash" unicode="\" horiz-adv-x="849" 
d="M819 0h-444l-214 743h444z" />
    <glyph glyph-name="bracketright" unicode="]" horiz-adv-x="649" 
d="M585 -194h-589l40 233h174l83 471h-174l42 233h590z" />
    <glyph glyph-name="asciicircum" unicode="^" horiz-adv-x="956" 
d="M1004 445h-322l-65 215l-141 -215h-368l255 299h492z" />
    <glyph glyph-name="underscore" unicode="_" horiz-adv-x="807" 
d="M745 -181h-746l22 131h747z" />
    <glyph glyph-name="grave" unicode="`" horiz-adv-x="736" 
d="M820 651h-391l-260 142h484z" />
    <glyph glyph-name="a" unicode="a" horiz-adv-x="952" 
d="M922 0h-409l8 49c-74 -42 -187 -70 -277 -70c-94 0 -191 41 -191 154c0 12 1 26 6 55c30 174 212 174 465 174h10c2 7 3 14 3 17c0 19 -18 20 -93 20h-21l-19 -26h-232l36 200c99 25 243 53 388 53c199 0 360 -43 360 -205c0 -16 -2 -33 -5 -51l-24 -132l36 -5zM521 177
l8 49h-29c-31 0 -48 0 -52 -22c-1 -7 -2 -12 -2 -17c0 -16 12 -21 25 -21c21 0 39 6 50 11z" />
    <glyph glyph-name="b" unicode="b" horiz-adv-x="1005" 
d="M1026 274c-46 -252 -254 -295 -520 -295c-160 0 -279 4 -465 23l98 556l-35 6l40 229h451l-30 -171c9 1 50 4 112 4c224 0 359 -78 359 -260c0 -24 -2 -51 -10 -92zM615 294c6 32 8 47 8 59c0 29 -12 41 -50 41c-12 0 -33 -1 -47 -4l-31 -177c8 -1 29 -3 46 -3
c54 0 62 21 74 84z" />
    <glyph glyph-name="c" unicode="c" horiz-adv-x="792" 
d="M762 4c-75 -13 -172 -25 -328 -25c-246 0 -359 102 -359 266c0 23 3 47 9 83c37 216 183 298 464 298c156 0 276 -15 319 -25l-43 -246h-210l-4 33c-10 1 -15 1 -23 1c-58 0 -79 -4 -94 -81c-5 -25 -6 -37 -6 -47c0 -43 25 -46 85 -46c44 0 85 0 228 4z" />
    <glyph glyph-name="d" unicode="d" horiz-adv-x="1031" 
d="M1001 0h-423l6 37c-61 -30 -140 -58 -244 -58c-140 0 -267 67 -267 251c0 26 3 54 11 97c43 239 209 299 463 299c62 0 91 -2 110 -4l4 21l-36 5l25 145h452l-98 -555l38 -5zM583 211l31 180c-7 1 -26 3 -46 3c-52 0 -62 -23 -73 -87c-6 -32 -8 -46 -8 -58
c0 -30 12 -40 51 -40c11 0 32 1 45 2z" />
    <glyph glyph-name="e" unicode="e" horiz-adv-x="960" 
d="M981 236h-504c-2 -10 -2 -14 -2 -17c0 -19 15 -20 90 -20c73 0 284 -1 354 -1l-33 -190c-91 -14 -214 -29 -361 -29c-292 0 -449 79 -449 269c0 23 2 48 7 77c41 235 238 301 520 301c315 0 391 -138 391 -280c0 -37 -6 -75 -13 -110zM611 363c2 11 2 15 2 18
c0 25 -17 35 -51 35c-39 0 -56 -18 -62 -53h111z" />
    <glyph glyph-name="f" unicode="f" horiz-adv-x="700" 
d="M742 383h-129l-26 -145l36 -5l-41 -233h-487l41 233l36 5l26 145l-104 10l37 213h106l2 12c31 172 188 194 336 194c87 0 176 -9 239 -21l-28 -161c-64 2 -75 2 -85 2c-37 0 -45 -4 -49 -26h129z" />
    <glyph glyph-name="g" unicode="g" horiz-adv-x="983" 
d="M959 16c0 -222 -297 -222 -492 -222h-24c-229 0 -429 11 -429 166c0 58 28 96 81 127c-19 14 -30 44 -30 71c0 57 55 88 107 98c-33 20 -52 74 -52 129c0 240 278 241 478 241h470l-24 -136l-45 -21c3 -8 6 -25 6 -47c0 -243 -303 -243 -486 -243c-37 0 -87 3 -133 9
c-9 -2 -15 -8 -15 -17c0 -11 6 -13 30 -13h114c293 0 444 -8 444 -142zM574 -8c0 18 -10 22 -72 22h-99c-9 -9 -13 -19 -13 -28c0 -24 20 -26 87 -26c74 0 97 6 97 32zM551 361c36 0 59 13 59 50c0 18 -10 32 -44 32c-33 0 -55 -18 -55 -51c0 -20 14 -31 40 -31z" />
    <glyph glyph-name="h" unicode="h" horiz-adv-x="1069" 
d="M1039 0h-451l61 347c2 10 2 17 2 24c0 23 -10 30 -35 30c-24 0 -51 -6 -67 -12l-27 -151l36 -5l-41 -233h-487l41 233l36 5l57 320l-35 6l40 229h451l-35 -203c86 32 169 36 233 36c212 0 256 -93 256 -189c0 -38 -7 -76 -13 -109l-17 -90l36 -5z" />
    <glyph glyph-name="i" unicode="i" horiz-adv-x="549" 
d="M518 0h-488l41 233l36 5l24 133l-35 5l40 230h451l-65 -368l37 -5zM604 639h-437l27 154h437z" />
    <glyph glyph-name="j" unicode="j" horiz-adv-x="517" 
d="M485 26c-32 -184 -137 -240 -377 -240c-84 0 -154 5 -181 8l33 188c38 -1 42 -1 51 -1c46 0 53 11 59 45l61 346l-35 5l40 229h451zM604 639h-437l27 154h437z" />
    <glyph glyph-name="k" unicode="k" horiz-adv-x="1006" 
d="M976 0h-328l-121 266l-46 -266h-451l41 233l36 5l57 321l-35 5l40 229h451l-82 -467l234 280h310l-41 -234l-71 -10l-57 -50l52 -68l52 -10z" />
    <glyph glyph-name="l" unicode="l" horiz-adv-x="548" 
d="M518 0h-488l41 233l36 5l57 320l-35 6l40 229h451l-98 -555l37 -5z" />
    <glyph glyph-name="m" unicode="m" horiz-adv-x="1514" 
d="M1484 0h-453l61 348c4 22 5 29 5 36c0 16 -7 24 -29 24c-10 0 -25 -2 -34 -5c-1 -9 -4 -28 -7 -42l-63 -361h-415l63 361c2 9 3 16 3 22c0 17 -8 25 -29 25c-11 0 -23 -3 -35 -7l-29 -163l36 -5l-41 -233h-487l41 233l36 5l24 134l-35 5l40 229h413l-10 -60
c75 48 171 80 270 80c113 0 173 -30 203 -81c92 57 194 81 270 81c167 0 236 -67 236 -193c0 -22 -2 -46 -7 -72l-22 -123l36 -5z" />
    <glyph glyph-name="n" unicode="n" horiz-adv-x="1069" 
d="M1039 0h-451l59 334c4 24 5 32 5 39c0 21 -10 28 -35 28s-65 -13 -68 -14l-27 -149l36 -5l-41 -233h-487l41 233l36 5l23 130l-34 9l40 229h413l-11 -62c82 54 186 82 274 82c219 0 264 -82 264 -174c0 -34 -6 -70 -12 -104l-20 -110l36 -5z" />
    <glyph glyph-name="o" unicode="o" horiz-adv-x="969" 
d="M991 279c-38 -222 -229 -300 -512 -300c-275 0 -403 96 -403 276c0 20 2 41 7 70c40 223 231 301 510 301c263 0 405 -94 405 -274c0 -21 -2 -43 -7 -73zM578 299c5 27 6 42 6 54c0 31 -11 41 -32 41c-30 0 -47 -18 -60 -89c-4 -26 -6 -42 -6 -54c0 -32 11 -42 33 -42
c29 0 47 19 59 90z" />
    <glyph glyph-name="p" unicode="p" horiz-adv-x="1033" 
d="M1055 280c-42 -239 -220 -300 -473 -300c-45 0 -95 4 -104 5l-32 -179h-450l40 229l37 6l58 330l-35 6l40 229h414l-6 -36c86 42 162 56 256 56c132 0 264 -61 264 -260c0 -24 -2 -50 -9 -86zM640 300c5 27 7 42 7 54c0 32 -13 43 -53 43c-11 0 -34 -2 -42 -2l-32 -180
c8 -1 26 -2 44 -2c53 0 65 23 76 87z" />
    <glyph glyph-name="q" unicode="q" horiz-adv-x="1026" 
d="M961 -194h-447l32 177c-11 -1 -41 -4 -94 -4c-241 0 -377 84 -377 265c0 24 2 49 9 84c49 261 254 298 542 298c143 0 253 -5 440 -20l-99 -562l35 -5zM580 213l31 177c-11 1 -24 2 -44 2c-46 0 -62 -7 -76 -86c-4 -22 -5 -36 -5 -47c0 -34 14 -48 49 -48c22 0 36 1 45 2
z" />
    <glyph glyph-name="r" unicode="r" horiz-adv-x="688" 
d="M728 344h-187l-19 -106l36 -5l-41 -233h-487l41 233l36 5l24 133l-35 6l40 229h413l-12 -68c94 84 195 88 241 88z" />
    <glyph glyph-name="s" unicode="s" horiz-adv-x="826" 
d="M842 237c0 -257 -277 -257 -485 -257c-122 0 -237 12 -304 20l31 181h239l6 -23h55c29 0 48 0 48 15c0 10 -12 14 -46 18l-53 7c-145 20 -241 66 -241 181c0 234 222 247 431 247c141 0 276 -12 351 -22l-31 -176h-236l-6 23h-64c-30 0 -47 0 -47 -16
c0 -11 15 -14 49 -17l75 -7c164 -16 228 -75 228 -174z" />
    <glyph glyph-name="t" unicode="t" horiz-adv-x="700" 
d="M664 -3c-12 -1 -98 -18 -218 -18c-164 0 -280 31 -280 196c0 21 3 44 7 69l25 139l-104 10l37 213h106l27 149h415l-27 -149h129l-39 -223h-129l-28 -157c-5 -30 -6 -37 33 -37c31 0 74 2 80 2z" />
    <glyph glyph-name="u" unicode="u" horiz-adv-x="1069" 
d="M1039 0h-412l10 62c-61 -40 -163 -83 -315 -83c-180 0 -220 92 -220 189c0 38 6 76 12 110l16 90l-34 9l40 229h451l-58 -331c-5 -27 -6 -34 -6 -41c0 -22 10 -29 37 -29c24 0 64 13 66 14l26 149l-34 9l40 229h451l-65 -368l35 -9z" />
    <glyph glyph-name="v" unicode="v" horiz-adv-x="1020" 
d="M1055 372l-59 -11l-184 -361h-604l-58 361l-55 11l41 234h384l18 -250c4 -53 6 -103 2 -156h2c17 54 35 103 56 156l103 250h395z" />
    <glyph glyph-name="w" unicode="w" horiz-adv-x="1537" 
d="M1572 372l-60 -6l-165 -366h-484l-33 111c-12 41 -16 67 -16 105c0 15 1 31 2 50h-3c-20 -68 -35 -104 -67 -155l-70 -111h-486l-37 366l-58 6l41 234h412l-8 -214c-3 -85 -7 -122 -11 -157h2c11 35 31 86 74 159l60 100h371l23 -98c18 -75 19 -126 19 -161h2
c9 35 20 72 46 159l65 212h422z" />
    <glyph glyph-name="x" unicode="x" horiz-adv-x="926" 
d="M896 0h-336l-100 132l-115 -132h-315l41 234l53 7l79 79l-43 44l-65 8l41 234h369l99 -131l114 131h284l-41 -234l-55 -7l-90 -76l49 -49l72 -6z" />
    <glyph glyph-name="y" unicode="y" horiz-adv-x="1002" 
d="M1043 375l-60 -6l-177 -326c-127 -234 -270 -248 -434 -248c-124 0 -247 3 -342 15l33 188c90 -2 109 -2 152 -2c23 0 29 4 34 17l5 12l-110 344l-53 6l40 231h383l15 -266c3 -53 5 -103 2 -156h2c17 54 35 103 56 156l105 266h389z" />
    <glyph glyph-name="z" unicode="z" horiz-adv-x="834" 
d="M804 0h-774l30 171l312 218h-80l-16 -34h-181l44 251h768l-34 -195l-285 -197h63l15 29h180z" />
    <glyph glyph-name="braceleft" unicode="{" horiz-adv-x="712" 
d="M647 -194h-88c-339 0 -453 44 -453 223c0 27 2 56 7 89c4 27 4 32 4 37c0 36 -22 46 -50 55l30 170c36 10 66 21 74 71l4 20c50 252 161 272 550 272h88l-42 -233h-91c-61 0 -80 0 -93 -60l-4 -19c-18 -103 -37 -126 -135 -156c64 -22 87 -45 87 -95
c0 -16 -2 -36 -10 -81c-2 -12 -3 -21 -3 -29c0 -31 19 -31 75 -31h91z" />
    <glyph glyph-name="bar" unicode="|" horiz-adv-x="580" 
d="M565 -194h-415v937h415v-937z" />
    <glyph glyph-name="braceright" unicode="}" horiz-adv-x="712" 
d="M161 743h88c339 0 453 -44 453 -223c0 -27 -2 -56 -7 -89c-4 -27 -4 -32 -4 -37c0 -36 22 -46 50 -55l-30 -170c-36 -10 -66 -21 -74 -71l-4 -20c-50 -252 -161 -272 -550 -272h-88l42 233h91c61 0 80 0 93 60l4 19c18 103 37 126 135 156c-64 22 -87 45 -87 95
c0 16 2 36 10 81c2 12 3 21 3 29c0 31 -19 31 -75 31h-91z" />
    <glyph glyph-name="asciitilde" unicode="~" horiz-adv-x="775" 
d="M830 487c-19 -187 -111 -216 -203 -216c-76 0 -102 6 -173 25l-81 21c-26 7 -47 12 -59 12c-18 0 -30 -5 -39 -53h-197c18 217 164 219 220 219c47 0 100 -9 154 -25l80 -23c40 -11 47 -12 64 -12c24 0 33 11 40 52h194z" />
    <glyph glyph-name="uni00A0" unicode="&#xa0;" horiz-adv-x="266" 
 />
    <glyph glyph-name="exclamdown" unicode="&#xa1;" horiz-adv-x="491" 
d="M431 -169h-431l124 527h366zM553 624l-38 -213h-399l38 213h399z" />
    <glyph glyph-name="cent" unicode="&#xa2;" horiz-adv-x="792" 
d="M762 4c-34 -10 -101 -16 -172 -20l-25 -140h-310l26 149c-139 31 -205 128 -205 254c0 23 2 47 8 81c27 157 129 247 307 285l26 147h310l-25 -141c73 -6 141 -13 165 -18l-41 -234h-204l-2 22h-17c-82 0 -96 -4 -110 -81c-5 -27 -7 -41 -7 -52c0 -38 22 -41 86 -41
c76 0 150 -1 227 -1z" />
    <glyph glyph-name="sterling" unicode="&#xa3;" horiz-adv-x="934" 
d="M904 0h-829l33 189c47 28 62 45 69 86l3 17h-99l32 183h99l4 19c36 206 204 282 470 282c128 0 236 -9 350 -22l-43 -247h-233l-6 37h-9c-69 0 -80 -2 -88 -50l-4 -19h196l-32 -183h-196l-3 -17c-4 -20 -5 -25 -14 -42h341z" />
    <glyph glyph-name="currency" unicode="&#xa4;" horiz-adv-x="765" 
d="M584 382c0 67 -56 117 -126 117s-127 -51 -127 -117c0 -67 60 -116 127 -116c65 0 126 50 126 116zM806 162l-106 -96l-98 88c-44 -21 -93 -33 -143 -33c-51 0 -100 12 -145 35l-105 -94l-106 95l104 94c-24 40 -37 85 -37 131c0 45 13 90 37 129l-105 95l106 95l105 -95
c45 24 96 37 146 37s99 -12 144 -36l98 90l106 -97l-99 -88c26 -40 41 -85 41 -131c0 -45 -15 -91 -41 -131z" />
    <glyph glyph-name="yen" unicode="&#xa5;" horiz-adv-x="1241" 
d="M1219 129h-364l-5 -31l42 -4l-16 -94h-539l16 94l57 6l5 29h-363l26 144h325l-49 93h-260l26 145h156l-34 57l-108 8l30 167h450l51 -126c13 -32 25 -61 35 -93h2c22 34 42 62 65 93l96 126h479l-30 -167l-130 -10l-52 -55h157l-26 -145h-261l-81 -93h326z" />
    <glyph glyph-name="brokenbar" unicode="&#xa6;" horiz-adv-x="580" 
d="M571 333h-415v410h415v-410zM571 -194h-415v410h415v-410z" />
    <glyph glyph-name="section" unicode="&#xa7;" horiz-adv-x="1006" 
d="M986 61c0 -262 -284 -279 -498 -279c-65 0 -253 8 -453 29l41 232h238l-1 -25c45 -1 94 -1 181 -1c23 0 36 0 36 15s-15 18 -86 27l-150 19c-137 17 -220 61 -220 176c0 55 22 98 67 141c-16 20 -23 56 -23 94c0 269 311 269 531 269c173 0 390 -30 413 -34l-37 -210
h-239l1 20c-51 1 -101 2 -179 2c-28 0 -42 -1 -42 -14c0 -10 10 -12 20 -13l161 -20c202 -25 280 -82 280 -188c0 -58 -19 -104 -66 -144c18 -21 25 -60 25 -96zM740 201c6 35 7 41 7 47c0 28 -20 34 -88 44l-220 32c-44 6 -69 13 -98 31c-6 -32 -7 -44 -7 -53
c0 -29 17 -36 78 -44l221 -31c57 -8 70 -11 107 -26z" />
    <glyph glyph-name="dieresis" unicode="&#xa8;" horiz-adv-x="767" 
d="M852 653h-315l24 140h315zM460 653l24 140h-315l-24 -140h315z" />
    <glyph glyph-name="copyright" unicode="&#xa9;" horiz-adv-x="1149" 
d="M798 171c-32 -10 -100 -14 -129 -14c-203 0 -289 83 -289 201v25c0 118 86 201 289 201c29 0 97 -4 129 -14v-137h-83l-11 21c-12 1 -15 1 -17 1c-42 0 -76 -12 -76 -72v-25c0 -60 34 -72 77 -72c3 0 7 0 17 1l10 21h83v-137zM1046 371c0 206 -190 295 -409 295
c-218 0 -406 -89 -406 -295s188 -295 406 -295c219 0 409 89 409 295zM1182 371c0 -284 -251 -403 -545 -403c-293 0 -544 119 -544 403c0 283 251 403 544 403c294 0 545 -119 545 -403z" />
    <glyph glyph-name="ordfeminine" unicode="&#xaa;" horiz-adv-x="640" 
d="M678 386h-266l5 32c-49 -27 -122 -46 -181 -46c-67 0 -123 28 -123 102c0 147 153 147 306 147h6c1 7 2 9 2 11c0 13 -12 13 -61 13h-13l-10 -17h-153l23 130c65 17 158 35 252 35c127 0 232 -24 232 -140c0 -13 -1 -28 -4 -44l-12 -68l23 -3zM417 501l5 32h-19
c-23 0 -35 -4 -35 -24c0 -13 8 -15 17 -15c13 0 24 4 32 7z" />
    <glyph glyph-name="guillemotleft" unicode="&#xab;" horiz-adv-x="1220" 
d="M1199 53h-400l-125 245l211 245h400l-199 -245zM606 53l-112 245l198 245h-399l-211 -245l125 -245h399z" />
    <glyph glyph-name="logicalnot" unicode="&#xac;" horiz-adv-x="800" 
d="M839 54h-297v375h-414v257h711v-632z" />
    <glyph glyph-name="uni00AD" unicode="&#xad;" horiz-adv-x="431" 
d="M434 189h-371l38 219h371z" />
    <glyph glyph-name="registered" unicode="&#xae;" horiz-adv-x="815" 
d="M544 515v3c0 16 -13 21 -42 21c-11 0 -22 0 -28 -1v-42c6 0 18 -1 28 -1c27 0 42 2 42 20zM703 335h-151l-57 86h-10h-11v-86h-154v65l18 2v145l-18 3v64c70 7 118 7 168 7c115 0 192 -21 192 -103v-5c0 -47 -31 -68 -54 -77l21 -28l56 -8v-65zM767 468
c0 135 -118 215 -264 215c-145 0 -263 -80 -263 -215s118 -216 263 -216c146 0 264 81 264 216zM881 468c0 -185 -170 -306 -378 -306s-377 121 -377 306s169 306 377 306s378 -121 378 -306z" />
    <glyph glyph-name="macron" unicode="&#xaf;" horiz-adv-x="775" 
d="M859 651h-715l25 142h715z" />
    <glyph glyph-name="degree" unicode="&#xb0;" horiz-adv-x="430" 
d="M392 610c0 38 -30 64 -69 64c-38 0 -68 -26 -68 -64c0 -39 30 -64 68 -64c39 0 69 25 69 64zM508 610c0 -92 -82 -167 -185 -167c-102 0 -185 75 -185 167s83 167 185 167c103 0 185 -75 185 -167z" />
    <glyph glyph-name="plusminus" unicode="&#xb1;" horiz-adv-x="800" 
d="M854 356h-227v-150h-285v150h-227v258h227v147h285v-147h227v-258zM854 0h-740v156h740v-156z" />
    <glyph glyph-name="two.superior" unicode="&#xb2;" horiz-adv-x="631" 
d="M641 300h-559l10 53c23 131 102 186 227 222c86 25 105 27 105 40c0 8 -6 11 -55 11c-13 0 -41 0 -76 -2l-6 -22h-144l22 128c105 27 219 32 286 32c192 0 261 -48 261 -129c0 -119 -110 -140 -228 -158c-94 -14 -102 -18 -103 -26h140l7 24h144z" />
    <glyph glyph-name="three.superior" unicode="&#xb3;" horiz-adv-x="626" 
d="M674 441c0 -157 -184 -157 -313 -157c-111 0 -228 17 -275 36l22 128h144l-1 -21c35 -2 70 -2 96 -2c30 0 55 0 55 19c0 14 -12 15 -66 15h-155l22 125h157c35 0 70 0 70 25c0 10 -9 14 -47 14c-31 0 -65 -1 -98 -2l-6 -20h-144l22 124c62 20 177 37 288 37
c139 0 264 -19 264 -124c0 -49 -29 -87 -79 -112c38 -23 44 -57 44 -85z" />
    <glyph glyph-name="acute" unicode="&#xb4;" horiz-adv-x="736" 
d="M845 793l-310 -142h-391l218 142h483z" />
    <glyph glyph-name="mu" unicode="&#xb5;" horiz-adv-x="1069" 
d="M1039 0h-412l10 62c-48 -32 -101 -51 -157 -66l-34 -190h-450l40 229l37 6l57 327l-34 9l40 229h451l-58 -332c-5 -26 -6 -33 -6 -43c0 -19 10 -26 37 -26c24 0 64 13 66 14l26 149l-34 9l40 229h451l-65 -368l35 -9z" />
    <glyph glyph-name="paragraph" unicode="&#xb6;" horiz-adv-x="961" 
d="M896 -194h-158l140 790h-94l-139 -790h-197l42 239l38 4l31 175h-99c-190 0 -352 39 -352 233c0 231 223 286 444 286h510z" />
    <glyph glyph-name="periodcentered" unicode="&#xb7;" horiz-adv-x="430" 
d="M444 254h-370l39 217h370z" />
    <glyph glyph-name="cedilla" unicode="&#xb8;" horiz-adv-x="577" 
d="M537 -55l-176 -139h-365l134 139h407z" />
    <glyph glyph-name="one.superior" unicode="&#xb9;" horiz-adv-x="451" 
d="M473 300h-391l26 145l58 6l21 121l-59 -15l24 140l148 49h195l-52 -295l56 -6z" />
    <glyph glyph-name="ordmasculine" unicode="&#xba;" horiz-adv-x="650" 
d="M727 608c0 -188 -161 -236 -333 -236c-183 0 -267 67 -267 185c0 189 171 236 336 236c178 0 264 -66 264 -185zM453 578c4 20 5 30 5 38c0 20 -7 26 -21 26c-19 0 -31 -11 -38 -46c-6 -29 -6 -38 -6 -45c0 -23 9 -29 23 -29c19 0 28 12 37 56z" />
    <glyph glyph-name="guillemotright" unicode="&#xbb;" horiz-adv-x="1220" 
d="M1242 298l-211 -245h-400l199 245l-113 245h400zM649 298l-124 245h-400l113 -245l-199 -245h400z" />
    <glyph glyph-name="onequarter" unicode="&#xbc;" horiz-adv-x="1435" 
d="M1417 73h-63l-4 -23l26 -3l-8 -47h-329l8 47l27 3l4 23h-279l21 117l407 256h193l-43 -243h63zM1120 203l13 73l-110 -73h97zM1394 754l-919 -754h-310l920 754h309zM473 300h-391l26 145l58 6l21 121l-59 -15l24 140l148 49h195l-52 -295l56 -6z" />
    <glyph glyph-name="onehalf" unicode="&#xbd;" horiz-adv-x="1577" 
d="M1394 754l-919 -754h-310l920 754h309zM473 300h-391l26 145l58 6l21 121l-59 -15l24 140l148 49h195l-52 -295l56 -6zM1536 0h-559l9 53c23 131 102 187 227 222c102 28 103 29 105 40c1 7 0 11 -55 11c-13 0 -41 0 -76 -2l-6 -22h-144l22 128c105 27 219 32 286 32
c216 0 276 -46 258 -145c-14 -81 -79 -122 -225 -144c-93 -14 -102 -16 -103 -23v-1h140l7 24h144z" />
    <glyph glyph-name="threequarters" unicode="&#xbe;" horiz-adv-x="1578" 
d="M1560 73h-63l-4 -23l26 -3l-8 -47h-329l8 47l27 3l4 23h-279l21 117l407 256h193l-43 -243h63zM1263 203l13 73l-110 -73h97zM1524 754l-919 -754h-310l920 754h309zM674 441c0 -157 -184 -157 -313 -157c-111 0 -228 17 -275 36l22 128h144l-1 -21c35 -2 70 -2 96 -2
c30 0 55 0 55 19c0 14 -12 15 -66 15h-155l22 125h157c35 0 70 0 70 25c0 10 -9 14 -47 14c-31 0 -65 -1 -98 -2l-6 -20h-144l22 124c62 20 177 37 288 37c139 0 264 -19 264 -124c0 -49 -29 -87 -79 -112c38 -23 44 -57 44 -85z" />
    <glyph glyph-name="questiondown" unicode="&#xbf;" horiz-adv-x="828" 
d="M419 630h421l-38 -216h-421zM416 366c-8 -43 -27 -47 -173 -121c-120 -61 -213 -110 -213 -246c0 -112 117 -174 366 -174c178 0 310 22 379 43l41 233h-173l-12 -34c-4 0 -16 -1 -27 -1c-19 0 -31 3 -31 16c0 31 55 62 87 89c66 58 75 106 91 195h-335z" />
    <glyph glyph-name="Agrave" unicode="&#xc0;" horiz-adv-x="1242" 
d="M1212 0h-472l-3 94h-202l-36 -94h-469l42 241l58 5l122 251l-54 5l43 241h895l60 -497l58 -5zM737 319l-10 185c-2 28 0 69 0 97h-2c-9 -29 -25 -69 -36 -97l-71 -185h119zM982 793h-391l-260 142h484z" />
    <glyph glyph-name="Aacute" unicode="&#xc1;" horiz-adv-x="1242" 
d="M1212 0h-472l-3 94h-202l-36 -94h-469l42 241l58 5l122 251l-54 5l43 241h895l60 -497l58 -5zM737 319l-10 185c-2 28 0 69 0 97h-2c-9 -29 -25 -69 -36 -97l-71 -185h119zM1180 935l-310 -142h-391l218 142h483z" />
    <glyph glyph-name="Acircumflex" unicode="&#xc2;" horiz-adv-x="1242" 
d="M1212 0h-472l-3 94h-202l-36 -94h-469l42 241l58 5l122 251l-54 5l43 241h895l60 -497l58 -5zM737 319l-10 185c-2 28 0 69 0 97h-2c-9 -29 -25 -69 -36 -97l-71 -185h119zM1174 793h-346l-70 52l-89 -52h-361l218 142h483z" />
    <glyph glyph-name="Atilde" unicode="&#xc3;" horiz-adv-x="1242" 
d="M1212 0h-472l-3 94h-202l-36 -94h-469l42 241l58 5l122 251l-54 5l43 241h895l60 -497l58 -5zM737 319l-10 185c-2 28 0 69 0 97h-2c-9 -29 -25 -69 -36 -97l-71 -185h119zM1132 983c-28 -185 -148 -193 -216 -193c-19 0 -67 1 -148 22l-85 22c-39 10 -66 16 -78 16
c-27 0 -39 -10 -48 -57h-166c17 187 159 194 229 194c28 0 55 -2 132 -21l84 -21c40 -10 62 -17 87 -17c24 0 35 9 43 55h166z" />
    <glyph glyph-name="Adieresis" unicode="&#xc4;" horiz-adv-x="1242" 
d="M1212 0h-472l-3 94h-202l-36 -94h-469l42 241l58 5l122 251l-54 5l43 241h895l60 -497l58 -5zM737 319l-10 185c-2 28 0 69 0 97h-2c-9 -29 -25 -69 -36 -97l-71 -185h119zM1114 792h-315l24 140h315zM722 792l24 140h-315l-24 -140h315z" />
    <glyph glyph-name="Aring" unicode="&#xc5;" horiz-adv-x="1242" 
d="M1212 0h-472l-3 94h-202l-36 -94h-469l42 241l58 5l122 251l-54 5l43 241h895l60 -497l58 -5zM737 319l-10 185c-2 28 0 69 0 97h-2c-9 -29 -25 -69 -36 -97l-71 -185h119zM844 920c0 25 -27 35 -64 35c-39 0 -66 -10 -66 -35c0 -24 27 -34 66 -34c37 0 64 10 64 34z
M1008 919c0 -95 -91 -147 -228 -147c-139 0 -231 52 -231 147s92 148 231 148c138 0 228 -53 228 -148z" />
    <glyph glyph-name="AE" unicode="&#xc6;" horiz-adv-x="1544" 
d="M1514 0h-851l16 94h-125l-37 -94h-487l42 239l78 9l115 237l-50 2l46 256h1384l-43 -242h-226l-6 19h-153l-7 -41h358l-37 -212h-358l-8 -43h152l14 21h226zM719 319l49 282h-25c-11 -31 -25 -69 -36 -97l-71 -185h83z" />
    <glyph glyph-name="Ccedilla" unicode="&#xc7;" horiz-adv-x="926" 
d="M896 2c-60 -16 -263 -29 -326 -29c-347 0 -485 115 -485 322c0 33 3 67 11 110c48 272 212 365 614 365c63 0 262 -13 316 -29l-47 -269h-240l-1 41h-14c-89 0 -136 -11 -158 -138c-5 -29 -7 -49 -7 -65c0 -74 42 -80 115 -80h14l15 41h240zM776 -55l-176 -139h-365
l134 139h407z" />
    <glyph glyph-name="Egrave" unicode="&#xc8;" horiz-adv-x="959" 
d="M929 0h-899l42 241l46 4l44 252l-44 5l43 241h899l-43 -242h-229l-6 19h-150l-7 -41h358l-37 -212h-358l-8 -43h149l14 21h229zM875 792h-391l-260 142h484z" />
    <glyph glyph-name="Eacute" unicode="&#xc9;" horiz-adv-x="959" 
d="M929 0h-899l42 241l46 4l44 252l-44 5l43 241h899l-43 -242h-229l-6 19h-150l-7 -41h358l-37 -212h-358l-8 -43h149l14 21h229zM1116 934l-310 -142h-391l218 142h483z" />
    <glyph glyph-name="Ecircumflex" unicode="&#xca;" horiz-adv-x="959" 
d="M929 0h-899l42 241l46 4l44 252l-44 5l43 241h899l-43 -242h-229l-6 19h-150l-7 -41h358l-37 -212h-358l-8 -43h149l14 21h229zM1059 792h-346l-70 52l-89 -52h-361l218 142h483z" />
    <glyph glyph-name="Edieresis" unicode="&#xcb;" horiz-adv-x="959" 
d="M929 0h-899l42 241l46 4l44 252l-44 5l43 241h899l-43 -242h-229l-6 19h-150l-7 -41h358l-37 -212h-358l-8 -43h149l14 21h229zM984 792h-315l24 140h315zM592 792l24 140h-315l-24 -140h315z" />
    <glyph glyph-name="Igrave" unicode="&#xcc;" horiz-adv-x="613" 
d="M583 0h-553l42 241l44 5l44 251l-42 5l43 241h553l-43 -241l-45 -5l-44 -251l43 -5zM682 793h-391l-260 142h484z" />
    <glyph glyph-name="Iacute" unicode="&#xcd;" horiz-adv-x="613" 
d="M583 0h-553l42 241l44 5l44 251l-42 5l43 241h553l-43 -241l-45 -5l-44 -251l43 -5zM907 935l-310 -142h-391l218 142h483z" />
    <glyph glyph-name="Icircumflex" unicode="&#xce;" horiz-adv-x="613" 
d="M583 0h-553l42 241l44 5l44 251l-42 5l43 241h553l-43 -241l-45 -5l-44 -251l43 -5zM875 793h-346l-70 52l-89 -52h-361l218 142h483z" />
    <glyph glyph-name="Idieresis" unicode="&#xcf;" horiz-adv-x="613" 
d="M583 0h-553l42 241l44 5l44 251l-42 5l43 241h553l-43 -241l-45 -5l-44 -251l43 -5zM798 793h-315l24 140h315zM406 793l24 140h-315l-24 -140h315z" />
    <glyph glyph-name="Eth" unicode="&#xd0;" horiz-adv-x="1145" 
d="M1180 339c-54 -304 -274 -366 -617 -366c-168 0 -381 12 -532 34l41 234l57 6l5 28h-56l35 200h56l5 28l-55 6l42 234c156 20 374 27 542 27c305 0 487 -96 487 -330c0 -18 -3 -61 -10 -101zM734 369c8 48 14 79 14 101c0 42 -20 53 -81 53c-10 0 -24 0 -49 -1l-9 -47h72
l-35 -200h-73l-9 -54c18 -1 39 -1 49 -1c94 0 99 26 121 149z" />
    <glyph glyph-name="Ntilde" unicode="&#xd1;" horiz-adv-x="1228" 
d="M1286 502l-44 -5l-87 -497h-390l-185 208c-13 15 -33 36 -45 50h-3c-3 -26 -8 -56 -13 -83l-30 -175h-459l42 241l46 5l44 251l-44 5l43 241h413l204 -218c12 -13 34 -35 45 -49h2c3 28 8 55 13 80l33 187h458zM1142 982c-28 -185 -148 -193 -216 -193
c-19 0 -67 1 -148 22l-85 22c-39 10 -66 16 -78 16c-27 0 -39 -10 -48 -57h-166c17 187 159 194 229 194c28 0 55 -2 132 -21l84 -21c40 -10 62 -17 87 -17c24 0 35 9 43 55h166z" />
    <glyph glyph-name="Ograve" unicode="&#xd2;" horiz-adv-x="1108" 
d="M1143 339c-58 -321 -305 -366 -584 -366c-288 0 -473 85 -473 334c0 29 3 59 10 98c55 316 304 365 583 365c280 0 473 -88 473 -336c0 -28 -2 -57 -9 -95zM701 369c6 36 9 60 9 80c0 45 -17 65 -66 65c-71 0 -89 -40 -106 -139c-6 -36 -9 -60 -9 -79
c0 -51 20 -66 65 -66c62 0 87 29 107 139zM928 793h-391l-260 142h484z" />
    <glyph glyph-name="Oacute" unicode="&#xd3;" horiz-adv-x="1108" 
d="M1143 339c-58 -321 -305 -366 -584 -366c-288 0 -473 85 -473 334c0 29 3 59 10 98c55 316 304 365 583 365c280 0 473 -88 473 -336c0 -28 -2 -57 -9 -95zM701 369c6 36 9 60 9 80c0 45 -17 65 -66 65c-71 0 -89 -40 -106 -139c-6 -36 -9 -60 -9 -79
c0 -51 20 -66 65 -66c62 0 87 29 107 139zM1179 935l-310 -142h-391l218 142h483z" />
    <glyph glyph-name="Ocircumflex" unicode="&#xd4;" horiz-adv-x="1108" 
d="M1143 339c-58 -321 -305 -366 -584 -366c-288 0 -473 85 -473 334c0 29 3 59 10 98c55 316 304 365 583 365c280 0 473 -88 473 -336c0 -28 -2 -57 -9 -95zM701 369c6 36 9 60 9 80c0 45 -17 65 -66 65c-71 0 -89 -40 -106 -139c-6 -36 -9 -60 -9 -79
c0 -51 20 -66 65 -66c62 0 87 29 107 139zM1123 792h-346l-70 52l-89 -52h-361l218 142h483z" />
    <glyph glyph-name="Otilde" unicode="&#xd5;" horiz-adv-x="1108" 
d="M1143 339c-58 -321 -305 -366 -584 -366c-288 0 -473 85 -473 334c0 29 3 59 10 98c55 316 304 365 583 365c280 0 473 -88 473 -336c0 -28 -2 -57 -9 -95zM701 369c6 36 9 60 9 80c0 45 -17 65 -66 65c-71 0 -89 -40 -106 -139c-6 -36 -9 -60 -9 -79
c0 -51 20 -66 65 -66c62 0 87 29 107 139zM1078 982c-28 -185 -148 -193 -216 -193c-19 0 -67 1 -148 22l-85 22c-39 10 -66 16 -78 16c-27 0 -39 -10 -48 -57h-166c17 187 159 194 229 194c28 0 55 -2 132 -21l84 -21c40 -10 62 -17 87 -17c24 0 35 9 43 55h166z" />
    <glyph glyph-name="Odieresis" unicode="&#xd6;" horiz-adv-x="1108" 
d="M1143 339c-58 -321 -305 -366 -584 -366c-288 0 -473 85 -473 334c0 29 3 59 10 98c55 316 304 365 583 365c280 0 473 -88 473 -336c0 -28 -2 -57 -9 -95zM701 369c6 36 9 60 9 80c0 45 -17 65 -66 65c-71 0 -89 -40 -106 -139c-6 -36 -9 -60 -9 -79
c0 -51 20 -66 65 -66c62 0 87 29 107 139zM1048 793h-315l24 140h315zM656 793l24 140h-315l-24 -140h315z" />
    <glyph glyph-name="multiply" unicode="&#xd7;" horiz-adv-x="800" 
d="M848 197l-192 -173l-185 167l-184 -169l-194 174l186 168l-183 167l192 174l183 -167l185 166l192 -174l-185 -166z" />
    <glyph glyph-name="Oslash" unicode="&#xd8;" horiz-adv-x="1108" 
d="M1143 339c-58 -321 -305 -366 -584 -366c-107 0 -199 12 -273 38l-52 -40h-221l147 120c-48 51 -74 122 -74 216c0 29 3 59 10 98c55 316 304 365 583 365c103 0 194 -13 269 -40l54 42h221l-149 -121c50 -52 78 -123 78 -217c0 -28 -2 -57 -9 -95zM701 369
c6 36 9 60 9 80c0 45 -17 65 -66 65c-71 0 -89 -40 -106 -139c-6 -36 -9 -60 -9 -79c0 -51 20 -66 65 -66c62 0 87 29 107 139z" />
    <glyph glyph-name="Ugrave" unicode="&#xd9;" horiz-adv-x="1214" 
d="M1272 502l-45 -5l-35 -197c-58 -327 -347 -327 -581 -327c-237 0 -484 24 -484 291c0 29 3 61 9 96l24 137l-42 5l43 241h495l-73 -413c-4 -22 -6 -39 -6 -54c0 -41 18 -57 67 -57c69 0 88 29 103 111l73 413h495zM990 792h-391l-260 142h484z" />
    <glyph glyph-name="Uacute" unicode="&#xda;" horiz-adv-x="1214" 
d="M1272 502l-45 -5l-35 -197c-58 -327 -347 -327 -581 -327c-237 0 -484 24 -484 291c0 29 3 61 9 96l24 137l-42 5l43 241h495l-73 -413c-4 -22 -6 -39 -6 -54c0 -41 18 -57 67 -57c69 0 88 29 103 111l73 413h495zM1257 935l-310 -142h-391l218 142h483z" />
    <glyph glyph-name="Ucircumflex" unicode="&#xdb;" horiz-adv-x="1214" 
d="M1272 502l-45 -5l-35 -197c-58 -327 -347 -327 -581 -327c-237 0 -484 24 -484 291c0 29 3 61 9 96l24 137l-42 5l43 241h495l-73 -413c-4 -22 -6 -39 -6 -54c0 -41 18 -57 67 -57c69 0 88 29 103 111l73 413h495zM1179 792h-346l-70 52l-89 -52h-361l218 142h483z" />
    <glyph glyph-name="Udieresis" unicode="&#xdc;" horiz-adv-x="1214" 
d="M1272 502l-45 -5l-35 -197c-58 -327 -347 -327 -581 -327c-237 0 -484 24 -484 291c0 29 3 61 9 96l24 137l-42 5l43 241h495l-73 -413c-4 -22 -6 -39 -6 -54c0 -41 18 -57 67 -57c69 0 88 29 103 111l73 413h495zM1099 793h-315l24 140h315zM707 793l24 140h-315
l-24 -140h315z" />
    <glyph glyph-name="Yacute" unicode="&#xdd;" horiz-adv-x="1014" 
d="M1072 502l-63 -5l-239 -257l-4 -19l42 -6l-37 -215h-541l37 215l58 6l4 19l-150 257l-61 5l43 241h337l50 -126c13 -32 20 -54 35 -93h4c21 32 42 62 66 93l97 126h365zM1115 935l-310 -142h-391l218 142h483z" />
    <glyph glyph-name="Thorn" unicode="&#xde;" horiz-adv-x="1138" 
d="M1189 441c0 -294 -273 -335 -579 -335c-31 0 -49 0 -88 3l-19 -109h-473l42 241l44 4l53 301l-43 4l43 241h473l-19 -105c27 2 56 2 74 2c290 0 492 -50 492 -247zM638 357c72 0 115 0 115 49c0 34 -32 37 -98 37c-29 0 -65 -2 -75 -3l-14 -81c16 -1 44 -2 72 -2z" />
    <glyph glyph-name="germandbls" unicode="&#xdf;" 
d="M1100 252c0 -196 -206 -273 -391 -273c-83 0 -122 10 -168 18l37 212h26c55 0 106 4 106 52c0 30 -29 40 -89 40h-26l31 177h26c41 0 105 0 105 48c0 20 -10 34 -86 34c-73 0 -96 -14 -105 -62l-87 -498h-449l40 232l37 4l46 262c36 203 194 287 558 287
c400 0 438 -128 438 -199c0 -99 -52 -154 -137 -189c72 -39 88 -100 88 -145z" />
    <glyph glyph-name="agrave" unicode="&#xe0;" horiz-adv-x="952" 
d="M922 0h-409l8 49c-74 -42 -187 -70 -277 -70c-94 0 -191 41 -191 154c0 12 1 26 6 55c30 174 212 174 465 174h10c2 7 3 14 3 17c0 19 -18 20 -93 20h-21l-19 -26h-232l36 200c99 25 243 53 388 53c199 0 360 -43 360 -205c0 -16 -2 -33 -5 -51l-24 -132l36 -5zM521 177
l8 49h-29c-31 0 -48 0 -52 -22c-1 -7 -2 -12 -2 -17c0 -16 12 -21 25 -21c21 0 39 6 50 11zM879 651h-391l-260 142h484z" />
    <glyph glyph-name="aacute" unicode="&#xe1;" horiz-adv-x="952" 
d="M922 0h-409l8 49c-74 -42 -187 -70 -277 -70c-94 0 -191 41 -191 154c0 12 1 26 6 55c30 174 212 174 465 174h10c2 7 3 14 3 17c0 19 -18 20 -93 20h-21l-19 -26h-232l36 200c99 25 243 53 388 53c199 0 360 -43 360 -205c0 -16 -2 -33 -5 -51l-24 -132l36 -5zM521 177
l8 49h-29c-31 0 -48 0 -52 -22c-1 -7 -2 -12 -2 -17c0 -16 12 -21 25 -21c21 0 39 6 50 11zM1088 793l-310 -142h-391l218 142h483z" />
    <glyph glyph-name="acircumflex" unicode="&#xe2;" horiz-adv-x="952" 
d="M922 0h-409l8 49c-74 -42 -187 -70 -277 -70c-94 0 -191 41 -191 154c0 12 1 26 6 55c30 174 212 174 465 174h10c2 7 3 14 3 17c0 19 -18 20 -93 20h-21l-19 -26h-232l36 200c99 25 243 53 388 53c199 0 360 -43 360 -205c0 -16 -2 -33 -5 -51l-24 -132l36 -5zM521 177
l8 49h-29c-31 0 -48 0 -52 -22c-1 -7 -2 -12 -2 -17c0 -16 12 -21 25 -21c21 0 39 6 50 11zM1062 651h-346l-70 52l-89 -52h-361l218 142h483z" />
    <glyph glyph-name="atilde" unicode="&#xe3;" horiz-adv-x="952" 
d="M922 0h-409l8 49c-74 -42 -187 -70 -277 -70c-94 0 -191 41 -191 154c0 12 1 26 6 55c30 174 212 174 465 174h10c2 7 3 14 3 17c0 19 -18 20 -93 20h-21l-19 -26h-232l36 200c99 25 243 53 388 53c199 0 360 -43 360 -205c0 -16 -2 -33 -5 -51l-24 -132l36 -5zM521 177
l8 49h-29c-31 0 -48 0 -52 -22c-1 -7 -2 -12 -2 -17c0 -16 12 -21 25 -21c21 0 39 6 50 11zM1013 835c-28 -185 -148 -193 -216 -193c-19 0 -67 1 -148 22l-85 22c-39 10 -66 16 -78 16c-27 0 -39 -10 -48 -57h-166c17 187 159 194 229 194c28 0 55 -2 132 -21l84 -21
c40 -10 62 -17 87 -17c24 0 35 9 43 55h166z" />
    <glyph glyph-name="adieresis" unicode="&#xe4;" horiz-adv-x="952" 
d="M922 0h-409l8 49c-74 -42 -187 -70 -277 -70c-94 0 -191 41 -191 154c0 12 1 26 6 55c30 174 212 174 465 174h10c2 7 3 14 3 17c0 19 -18 20 -93 20h-21l-19 -26h-232l36 200c99 25 243 53 388 53c199 0 360 -43 360 -205c0 -16 -2 -33 -5 -51l-24 -132l36 -5zM521 177
l8 49h-29c-31 0 -48 0 -52 -22c-1 -7 -2 -12 -2 -17c0 -16 12 -21 25 -21c21 0 39 6 50 11zM973 651h-315l24 140h315zM581 651l24 140h-315l-24 -140h315z" />
    <glyph glyph-name="aring" unicode="&#xe5;" horiz-adv-x="952" 
d="M922 0h-409l8 49c-74 -42 -187 -70 -277 -70c-94 0 -191 41 -191 154c0 12 1 26 6 55c30 174 212 174 465 174h10c2 7 3 14 3 17c0 19 -18 20 -93 20h-21l-19 -26h-232l36 200c99 25 243 53 388 53c199 0 360 -43 360 -205c0 -16 -2 -33 -5 -51l-24 -132l36 -5zM521 177
l8 49h-29c-31 0 -48 0 -52 -22c-1 -7 -2 -12 -2 -17c0 -16 12 -21 25 -21c21 0 39 6 50 11zM717 796c0 25 -27 35 -64 35c-39 0 -66 -10 -66 -35c0 -24 27 -34 66 -34c37 0 64 10 64 34zM881 795c0 -95 -91 -147 -228 -147c-139 0 -231 52 -231 147s92 148 231 148
c138 0 228 -53 228 -148z" />
    <glyph glyph-name="ae" unicode="&#xe6;" horiz-adv-x="1422" 
d="M1433 236h-504c-2 -10 -2 -14 -2 -18c0 -24 14 -29 88 -29c73 0 285 -1 355 -1l-33 -184c-90 -14 -252 -24 -409 -24c-120 0 -248 21 -316 79c-128 -75 -234 -79 -368 -79c-94 0 -191 40 -191 162c0 220 245 220 471 220h10c3 11 3 14 3 17c0 19 -18 20 -93 20h-21
l-19 -26h-232l36 200c99 25 243 53 388 53c84 0 159 -8 221 -28c68 19 148 28 238 28c341 0 390 -166 390 -273c0 -33 -2 -61 -12 -117zM1063 363c1 5 1 11 1 15c0 28 -16 38 -50 38s-56 -18 -62 -53h111zM518 177l8 49h-26c-31 0 -54 -5 -54 -39c0 -16 12 -21 25 -21
c21 0 36 6 47 11z" />
    <glyph glyph-name="ccedilla" unicode="&#xe7;" horiz-adv-x="792" 
d="M762 4c-75 -13 -172 -25 -328 -25c-246 0 -359 102 -359 266c0 23 3 47 9 83c37 216 183 298 464 298c156 0 276 -15 319 -25l-43 -246h-210l-4 33c-10 1 -15 1 -23 1c-58 0 -79 -4 -94 -81c-5 -25 -6 -37 -6 -47c0 -43 25 -46 85 -46c44 0 85 0 228 4zM650 -55
l-176 -139h-365l134 139h407z" />
    <glyph glyph-name="egrave" unicode="&#xe8;" horiz-adv-x="960" 
d="M981 236h-504c-2 -10 -2 -14 -2 -17c0 -19 15 -20 90 -20c73 0 284 -1 354 -1l-33 -190c-91 -14 -214 -29 -361 -29c-292 0 -449 79 -449 269c0 23 2 48 7 77c41 235 238 301 520 301c315 0 391 -138 391 -280c0 -37 -6 -75 -13 -110zM611 363c2 11 2 15 2 18
c0 25 -17 35 -51 35c-39 0 -56 -18 -62 -53h111zM868 651h-391l-260 142h484z" />
    <glyph glyph-name="eacute" unicode="&#xe9;" horiz-adv-x="960" 
d="M981 236h-504c-2 -10 -2 -14 -2 -17c0 -19 15 -20 90 -20c73 0 284 -1 354 -1l-33 -190c-91 -14 -214 -29 -361 -29c-292 0 -449 79 -449 269c0 23 2 48 7 77c41 235 238 301 520 301c315 0 391 -138 391 -280c0 -37 -6 -75 -13 -110zM611 363c2 11 2 15 2 18
c0 25 -17 35 -51 35c-39 0 -56 -18 -62 -53h111zM1049 793l-310 -142h-391l218 142h483z" />
    <glyph glyph-name="ecircumflex" unicode="&#xea;" horiz-adv-x="960" 
d="M981 236h-504c-2 -10 -2 -14 -2 -17c0 -19 15 -20 90 -20c73 0 284 -1 354 -1l-33 -190c-91 -14 -214 -29 -361 -29c-292 0 -449 79 -449 269c0 23 2 48 7 77c41 235 238 301 520 301c315 0 391 -138 391 -280c0 -37 -6 -75 -13 -110zM611 363c2 11 2 15 2 18
c0 25 -17 35 -51 35c-39 0 -56 -18 -62 -53h111zM1046 651h-346l-70 52l-89 -52h-361l218 142h483z" />
    <glyph glyph-name="edieresis" unicode="&#xeb;" horiz-adv-x="960" 
d="M981 236h-504c-2 -10 -2 -14 -2 -17c0 -19 15 -20 90 -20c73 0 284 -1 354 -1l-33 -190c-91 -14 -214 -29 -361 -29c-292 0 -449 79 -449 269c0 23 2 48 7 77c41 235 238 301 520 301c315 0 391 -138 391 -280c0 -37 -6 -75 -13 -110zM611 363c2 11 2 15 2 18
c0 25 -17 35 -51 35c-39 0 -56 -18 -62 -53h111zM962 653h-315l24 140h315zM570 653l24 140h-315l-24 -140h315z" />
    <glyph glyph-name="igrave" unicode="&#xec;" horiz-adv-x="549" 
d="M605 651h-391l-260 142h484zM519 0h-488l41 234l36 4l23 130l-35 4l41 234h451l-65 -368l37 -4z" />
    <glyph glyph-name="iacute" unicode="&#xed;" horiz-adv-x="549" 
d="M850 793l-310 -142h-391l218 142h483zM519 0h-488l41 234l36 4l23 130l-35 4l41 234h451l-65 -368l37 -4z" />
    <glyph glyph-name="icircumflex" unicode="&#xee;" horiz-adv-x="549" 
d="M519 0h-488l41 234l36 4l23 130l-35 4l41 234h451l-65 -368l37 -4zM815 651h-346l-70 52l-89 -52h-361l218 142h483z" />
    <glyph glyph-name="idieresis" unicode="&#xef;" horiz-adv-x="549" 
d="M740 651h-315l24 140h315zM348 651l24 140h-315l-24 -140h315zM519 0h-488l41 234l36 4l23 130l-35 4l41 234h451l-65 -368l37 -4z" />
    <glyph glyph-name="eth" unicode="&#xf0;" horiz-adv-x="969" 
d="M1010 430c0 -293 -209 -451 -530 -451c-279 0 -405 96 -405 277c0 261 271 326 513 326c8 0 26 -1 33 -3c-38 37 -104 59 -193 68l-139 -96l-46 56l63 44h-44h-42l29 162c55 5 111 6 141 6c55 0 102 -3 149 -7l110 76l48 -56l-52 -36c242 -51 365 -191 365 -366zM576 284
v3c8 42 -2 63 -31 63c-31 0 -47 -21 -55 -63v-3c-10 -57 -1 -75 30 -75c29 0 46 18 56 75z" />
    <glyph glyph-name="ntilde" unicode="&#xf1;" horiz-adv-x="1069" 
d="M1039 0h-451l59 334c4 24 5 32 5 39c0 21 -10 28 -35 28s-65 -13 -68 -14l-27 -149l36 -5l-41 -233h-487l41 233l36 5l23 130l-34 9l40 229h413l-11 -62c82 54 186 82 274 82c219 0 264 -82 264 -174c0 -34 -6 -70 -12 -104l-20 -110l36 -5zM1019 841
c-28 -185 -148 -193 -216 -193c-19 0 -67 1 -148 22l-85 22c-39 10 -66 16 -78 16c-27 0 -39 -10 -48 -57h-166c17 187 159 194 229 194c28 0 55 -2 132 -21l84 -21c40 -10 62 -17 87 -17c24 0 35 9 43 55h166z" />
    <glyph glyph-name="ograve" unicode="&#xf2;" horiz-adv-x="969" 
d="M991 279c-38 -222 -229 -300 -512 -300c-275 0 -403 96 -403 276c0 20 2 41 7 70c40 223 231 301 510 301c263 0 405 -94 405 -274c0 -21 -2 -43 -7 -73zM578 299c5 27 6 42 6 54c0 31 -11 41 -32 41c-30 0 -47 -18 -60 -89c-4 -26 -6 -42 -6 -54c0 -32 11 -42 33 -42
c29 0 47 19 59 90zM845 651h-391l-260 142h484z" />
    <glyph glyph-name="oacute" unicode="&#xf3;" horiz-adv-x="969" 
d="M991 279c-38 -222 -229 -300 -512 -300c-275 0 -403 96 -403 276c0 20 2 41 7 70c40 223 231 301 510 301c263 0 405 -94 405 -274c0 -21 -2 -43 -7 -73zM578 299c5 27 6 42 6 54c0 31 -11 41 -32 41c-30 0 -47 -18 -60 -89c-4 -26 -6 -42 -6 -54c0 -32 11 -42 33 -42
c29 0 47 19 59 90zM1071 793l-310 -142h-391l218 142h483z" />
    <glyph glyph-name="ocircumflex" unicode="&#xf4;" horiz-adv-x="969" 
d="M991 279c-38 -222 -229 -300 -512 -300c-275 0 -403 96 -403 276c0 20 2 41 7 70c40 223 231 301 510 301c263 0 405 -94 405 -274c0 -21 -2 -43 -7 -73zM578 299c5 27 6 42 6 54c0 31 -11 41 -32 41c-30 0 -47 -18 -60 -89c-4 -26 -6 -42 -6 -54c0 -32 11 -42 33 -42
c29 0 47 19 59 90zM1028 651h-346l-70 52l-89 -52h-361l218 142h483z" />
    <glyph glyph-name="otilde" unicode="&#xf5;" horiz-adv-x="969" 
d="M991 279c-38 -222 -229 -300 -512 -300c-275 0 -403 96 -403 276c0 20 2 41 7 70c40 223 231 301 510 301c263 0 405 -94 405 -274c0 -21 -2 -43 -7 -73zM578 299c5 27 6 42 6 54c0 31 -11 41 -32 41c-30 0 -47 -18 -60 -89c-4 -26 -6 -42 -6 -54c0 -32 11 -42 33 -42
c29 0 47 19 59 90zM997 835c-28 -185 -148 -193 -216 -193c-19 0 -67 1 -148 22l-85 22c-39 10 -66 16 -78 16c-27 0 -39 -10 -48 -57h-166c17 187 159 194 229 194c28 0 55 -2 132 -21l84 -21c40 -10 62 -17 87 -17c24 0 35 9 43 55h166z" />
    <glyph glyph-name="odieresis" unicode="&#xf6;" horiz-adv-x="969" 
d="M991 279c-38 -222 -229 -300 -512 -300c-275 0 -403 96 -403 276c0 20 2 41 7 70c40 223 231 301 510 301c263 0 405 -94 405 -274c0 -21 -2 -43 -7 -73zM578 299c5 27 6 42 6 54c0 31 -11 41 -32 41c-30 0 -47 -18 -60 -89c-4 -26 -6 -42 -6 -54c0 -32 11 -42 33 -42
c29 0 47 19 59 90zM971 653h-315l24 140h315zM579 653l24 140h-315l-24 -140h315z" />
    <glyph glyph-name="divide" unicode="&#xf7;" horiz-adv-x="800" 
d="M659 550h-394v197h394v-197zM834 240v257h-744v-257h744zM659 -12h-394v198h394v-198z" />
    <glyph glyph-name="oslash" unicode="&#xf8;" horiz-adv-x="969" 
d="M991 279c-38 -222 -229 -300 -512 -300c-67 0 -127 7 -179 20l-38 -27h-269l151 109c-45 44 -68 103 -68 174c0 20 2 41 7 70c40 223 231 301 510 301c71 0 134 -8 188 -22l43 29h271l-159 -114c40 -43 62 -99 62 -167c0 -21 -2 -43 -7 -73zM578 299c5 27 6 42 6 54
c0 31 -11 41 -32 41c-30 0 -47 -18 -60 -89c-4 -26 -6 -42 -6 -54c0 -32 11 -42 33 -42c29 0 47 19 59 90z" />
    <glyph glyph-name="ugrave" unicode="&#xf9;" horiz-adv-x="1069" 
d="M1039 0h-412l10 62c-61 -40 -163 -83 -315 -83c-180 0 -220 92 -220 189c0 38 6 76 12 110l16 90l-34 9l40 229h451l-58 -331c-5 -27 -6 -34 -6 -41c0 -22 10 -29 37 -29c24 0 64 13 66 14l26 149l-34 9l40 229h451l-65 -368l35 -9zM901 651h-391l-260 142h484z" />
    <glyph glyph-name="uacute" unicode="&#xfa;" horiz-adv-x="1069" 
d="M1039 0h-412l10 62c-61 -40 -163 -83 -315 -83c-180 0 -220 92 -220 189c0 38 6 76 12 110l16 90l-34 9l40 229h451l-58 -331c-5 -27 -6 -34 -6 -41c0 -22 10 -29 37 -29c24 0 64 13 66 14l26 149l-34 9l40 229h451l-65 -368l35 -9zM1082 793l-310 -142h-391l218 142h483
z" />
    <glyph glyph-name="ucircumflex" unicode="&#xfb;" horiz-adv-x="1069" 
d="M1039 0h-412l10 62c-61 -40 -163 -83 -315 -83c-180 0 -220 92 -220 189c0 38 6 76 12 110l16 90l-34 9l40 229h451l-58 -331c-5 -27 -6 -34 -6 -41c0 -22 10 -29 37 -29c24 0 64 13 66 14l26 149l-34 9l40 229h451l-65 -368l35 -9zM1069 651h-346l-70 52l-89 -52h-361
l218 142h483z" />
    <glyph glyph-name="udieresis" unicode="&#xfc;" horiz-adv-x="1069" 
d="M1039 0h-412l10 62c-61 -40 -163 -83 -315 -83c-180 0 -220 92 -220 189c0 38 6 76 12 110l16 90l-34 9l40 229h451l-58 -331c-5 -27 -6 -34 -6 -41c0 -22 10 -29 37 -29c24 0 64 13 66 14l26 149l-34 9l40 229h451l-65 -368l35 -9zM990 653h-315l24 140h315zM598 653
l24 140h-315l-24 -140h315z" />
    <glyph glyph-name="yacute" unicode="&#xfd;" horiz-adv-x="1002" 
d="M1043 375l-60 -6l-177 -326c-127 -234 -270 -248 -434 -248c-124 0 -247 3 -342 15l33 188c90 -2 109 -2 152 -2c23 0 29 4 34 17l5 12l-110 344l-53 6l40 231h383l15 -266c3 -53 5 -103 2 -156h2c17 54 35 103 56 156l105 266h389zM1100 793l-310 -142h-391l218 142h483
z" />
    <glyph glyph-name="thorn" unicode="&#xfe;" horiz-adv-x="1033" 
d="M1055 280c-42 -239 -220 -300 -473 -300c-45 0 -95 4 -104 5l-32 -179h-450l40 229l37 6l91 517l-35 6l40 229h414l-39 -223c86 42 162 56 256 56c132 0 264 -61 264 -260c0 -24 -2 -50 -9 -86zM640 300c5 27 7 42 7 54c0 32 -13 43 -53 43c-11 0 -34 -2 -42 -2l-32 -180
c8 -1 26 -2 44 -2c53 0 65 23 76 87z" />
    <glyph glyph-name="ydieresis" unicode="&#xff;" horiz-adv-x="1002" 
d="M1043 375l-60 -6l-177 -326c-127 -234 -270 -248 -434 -248c-124 0 -247 3 -342 15l33 188c90 -2 109 -2 152 -2c23 0 29 4 34 17l5 12l-110 344l-53 6l40 231h383l15 -266c3 -53 5 -103 2 -156h2c17 54 35 103 56 156l105 266h389zM975 653h-315l24 140h315zM583 653
l24 140h-315l-24 -140h315z" />
    <glyph glyph-name="Amacron" unicode="&#x100;" horiz-adv-x="1242" 
d="M1212 0h-472l-3 94h-202l-36 -94h-469l42 241l58 5l122 251l-54 5l43 241h895l60 -497l58 -5zM737 319l-10 185c-2 28 0 69 0 97h-2c-9 -29 -25 -69 -36 -97l-71 -185h119zM1117 792h-715l25 142h715z" />
    <glyph glyph-name="amacron" unicode="&#x101;" horiz-adv-x="952" 
d="M922 0h-409l8 49c-74 -42 -187 -70 -277 -70c-94 0 -191 41 -191 154c0 12 1 26 6 55c30 174 212 174 465 174h10c2 7 3 14 3 17c0 19 -18 20 -93 20h-21l-19 -26h-232l36 200c99 25 243 53 388 53c199 0 360 -43 360 -205c0 -16 -2 -33 -5 -51l-24 -132l36 -5zM521 177
l8 49h-29c-31 0 -48 0 -52 -22c-1 -7 -2 -12 -2 -17c0 -16 12 -21 25 -21c21 0 39 6 50 11zM989 651h-715l25 142h715z" />
    <glyph glyph-name="Abreve" unicode="&#x102;" horiz-adv-x="1242" 
d="M1212 0h-472l-3 94h-202l-36 -94h-469l42 241l58 5l122 251l-54 5l43 241h895l60 -497l58 -5zM737 319l-10 185c-2 28 0 69 0 97h-2c-9 -29 -25 -69 -36 -97l-71 -185h119zM1130 988c-44 -195 -279 -195 -360 -195c-61 0 -312 0 -320 195h163c5 -69 104 -72 165 -72
c72 0 164 6 191 72h161z" />
    <glyph glyph-name="abreve" unicode="&#x103;" horiz-adv-x="952" 
d="M922 0h-409l8 49c-74 -42 -187 -70 -277 -70c-94 0 -191 41 -191 154c0 12 1 26 6 55c30 174 212 174 465 174h10c2 7 3 14 3 17c0 19 -18 20 -93 20h-21l-19 -26h-232l36 200c99 25 243 53 388 53c199 0 360 -43 360 -205c0 -16 -2 -33 -5 -51l-24 -132l36 -5zM521 177
l8 49h-29c-31 0 -48 0 -52 -22c-1 -7 -2 -12 -2 -17c0 -16 12 -21 25 -21c21 0 39 6 50 11zM994 842c-44 -195 -279 -195 -360 -195c-61 0 -312 0 -320 195h163c5 -69 104 -72 165 -72c72 0 164 6 191 72h161z" />
    <glyph glyph-name="Aogonek" unicode="&#x104;" horiz-adv-x="1242" 
d="M1212 0c-135 -20 -181 -35 -181 -61c0 -18 18 -19 42 -19c48 0 90 5 126 7l-24 -136c-37 -5 -160 -27 -293 -27c-138 0 -210 27 -210 101c0 72 59 112 133 135h-65l-3 94h-202l-36 -94h-469l42 241l58 5l122 251l-54 5l43 241h895l60 -497l58 -5zM737 319l-10 185
c-2 28 0 69 0 97h-2c-9 -29 -25 -69 -36 -97l-71 -185h119z" />
    <glyph glyph-name="aogonek" unicode="&#x105;" horiz-adv-x="952" 
d="M513 0l8 49c-74 -42 -187 -70 -277 -70c-94 0 -191 41 -191 154c0 12 1 26 6 55c30 174 212 174 465 174h10c2 7 3 14 3 17c0 19 -18 20 -93 20h-21l-19 -26h-232l36 200c99 25 243 53 388 53c199 0 360 -43 360 -205c0 -16 -2 -33 -5 -51l-24 -132l36 -5l-41 -233
c-135 -20 -181 -35 -181 -61c0 -18 18 -19 42 -19c48 0 90 5 126 7l-24 -136c-37 -5 -160 -27 -293 -27c-138 0 -210 27 -210 101c0 72 57 112 131 135zM521 177l8 49h-29c-31 0 -48 0 -52 -22c-1 -7 -2 -12 -2 -17c0 -16 12 -21 25 -21c21 0 39 6 50 11z" />
    <glyph glyph-name="Cacute" unicode="&#x106;" horiz-adv-x="926" 
d="M896 2c-60 -16 -263 -29 -326 -29c-347 0 -485 115 -485 322c0 33 3 67 11 110c48 272 212 365 614 365c63 0 262 -13 316 -29l-47 -269h-240l-1 41h-14c-89 0 -136 -11 -158 -138c-5 -29 -7 -49 -7 -65c0 -74 42 -80 115 -80h14l15 41h240zM1167 935l-310 -142h-391
l218 142h483z" />
    <glyph glyph-name="cacute" unicode="&#x107;" horiz-adv-x="792" 
d="M762 4c-75 -13 -172 -25 -328 -25c-246 0 -359 102 -359 266c0 23 3 47 9 83c37 216 183 298 464 298c156 0 276 -15 319 -25l-43 -246h-210l-4 33c-10 1 -15 1 -23 1c-58 0 -79 -4 -94 -81c-5 -25 -6 -37 -6 -47c0 -43 25 -46 85 -46c44 0 85 0 228 4zM1027 793
l-310 -142h-391l218 142h483z" />
    <glyph glyph-name="Ccircumflex" unicode="&#x108;" horiz-adv-x="926" 
d="M896 2c-60 -16 -263 -29 -326 -29c-347 0 -485 115 -485 322c0 33 3 67 11 110c48 272 212 365 614 365c63 0 262 -13 316 -29l-47 -269h-240l-1 41h-14c-89 0 -136 -11 -158 -138c-5 -29 -7 -49 -7 -65c0 -74 42 -80 115 -80h14l15 41h240zM1098 792h-346l-70 52
l-89 -52h-361l218 142h483z" />
    <glyph glyph-name="ccircumflex" unicode="&#x109;" horiz-adv-x="792" 
d="M762 4c-75 -13 -172 -25 -328 -25c-246 0 -359 102 -359 266c0 23 3 47 9 83c37 216 183 298 464 298c156 0 276 -15 319 -25l-43 -246h-210l-4 33c-10 1 -15 1 -23 1c-58 0 -79 -4 -94 -81c-5 -25 -6 -37 -6 -47c0 -43 25 -46 85 -46c44 0 85 0 228 4zM964 651h-346
l-70 52l-89 -52h-361l218 142h483z" />
    <glyph glyph-name="Cdotaccent" unicode="&#x10a;" horiz-adv-x="926" 
d="M896 2c-60 -16 -263 -29 -326 -29c-347 0 -485 115 -485 322c0 33 3 67 11 110c48 272 212 365 614 365c63 0 262 -13 316 -29l-47 -269h-240l-1 41h-14c-89 0 -136 -11 -158 -138c-5 -29 -7 -49 -7 -65c0 -74 42 -80 115 -80h14l15 41h240zM891 793h-437l25 142h437z
" />
    <glyph glyph-name="cdotaccent" unicode="&#x10b;" horiz-adv-x="792" 
d="M762 4c-75 -13 -172 -25 -328 -25c-246 0 -359 102 -359 266c0 23 3 47 9 83c37 216 183 298 464 298c156 0 276 -15 319 -25l-43 -246h-210l-4 33c-10 1 -15 1 -23 1c-58 0 -79 -4 -94 -81c-5 -25 -6 -37 -6 -47c0 -43 25 -46 85 -46c44 0 85 0 228 4zM750 651h-437
l25 142h437z" />
    <glyph glyph-name="Ccaron" unicode="&#x10c;" horiz-adv-x="926" 
d="M896 2c-60 -16 -263 -29 -326 -29c-347 0 -485 115 -485 322c0 33 3 67 11 110c48 272 212 365 614 365c63 0 262 -13 316 -29l-47 -269h-240l-1 41h-14c-89 0 -136 -11 -158 -138c-5 -29 -7 -49 -7 -65c0 -74 42 -80 115 -80h14l15 41h240zM1148 934l-215 -142h-483
l-168 142h348l71 -51l88 51h359z" />
    <glyph glyph-name="ccaron" unicode="&#x10d;" horiz-adv-x="792" 
d="M762 4c-75 -13 -172 -25 -328 -25c-246 0 -359 102 -359 266c0 23 3 47 9 83c37 216 183 298 464 298c156 0 276 -15 319 -25l-43 -246h-210l-4 33c-10 1 -15 1 -23 1c-58 0 -79 -4 -94 -81c-5 -25 -6 -37 -6 -47c0 -43 25 -46 85 -46c44 0 85 0 228 4zM989 793
l-215 -142h-483l-168 142h348l71 -51l88 51h359z" />
    <glyph glyph-name="Dcaron" unicode="&#x10e;" horiz-adv-x="1145" 
d="M1180 339c-54 -304 -274 -366 -617 -366c-168 0 -381 12 -532 34l41 234l57 6l45 256l-55 6l42 234c156 20 374 27 542 27c305 0 487 -96 487 -330c0 -18 -3 -61 -10 -101zM734 369c8 48 14 79 14 101c0 42 -20 53 -81 53c-10 0 -24 0 -49 -1l-54 -301c18 -1 39 -1 49 -1
c94 0 99 26 121 149zM1183 934l-215 -142h-483l-168 142h348l71 -51l88 51h359z" />
    <glyph glyph-name="dcaron" unicode="&#x10f;" horiz-adv-x="1380" 
d="M1530 793l-205 -309h-263l149 309h319zM1001 0h-423l6 37c-61 -30 -140 -58 -244 -58c-140 0 -267 67 -267 251c0 26 3 54 11 97c43 239 209 299 463 299c62 0 91 -2 110 -4l4 21l-36 5l25 145h452l-98 -555l38 -5zM583 211l31 180c-7 1 -26 3 -46 3
c-52 0 -62 -23 -73 -87c-6 -32 -8 -46 -8 -58c0 -30 12 -40 51 -40c11 0 32 1 45 2z" />
    <glyph glyph-name="Dcroat" unicode="&#x110;" horiz-adv-x="1145" 
d="M1180 339c-54 -304 -274 -366 -617 -366c-168 0 -381 12 -532 34l41 234l57 6l5 28h-56l35 200h56l5 28l-55 6l42 234c156 20 374 27 542 27c305 0 487 -96 487 -330c0 -18 -3 -61 -10 -101zM734 369c8 48 14 79 14 101c0 42 -20 53 -81 53c-10 0 -24 0 -49 -1l-9 -47h72
l-35 -200h-73l-9 -54c18 -1 39 -1 49 -1c94 0 99 26 121 149z" />
    <glyph glyph-name="dcroat" unicode="&#x111;" horiz-adv-x="1031" 
d="M458 754h222l7 39h415l-7 -39h59l-15 -86h-59l-76 -430l38 -5l-41 -233h-423l6 37c-61 -30 -140 -58 -244 -58c-140 0 -267 67 -267 251c0 26 3 54 11 97c43 239 209 299 463 299c62 0 91 -2 110 -4l8 46h-222zM583 211l31 180c-7 1 -26 3 -46 3c-52 0 -62 -23 -73 -87
c-6 -32 -8 -46 -8 -58c0 -30 12 -40 51 -40c11 0 32 1 45 2z" />
    <glyph glyph-name="Emacron" unicode="&#x112;" horiz-adv-x="959" 
d="M929 0h-899l42 241l46 4l44 252l-44 5l43 241h899l-43 -242h-229l-6 19h-150l-7 -41h358l-37 -212h-358l-8 -43h149l14 21h229zM996 793h-715l25 142h715z" />
    <glyph glyph-name="emacron" unicode="&#x113;" horiz-adv-x="960" 
d="M981 236h-504c-2 -10 -2 -14 -2 -17c0 -19 15 -20 90 -20c73 0 284 -1 354 -1l-33 -190c-91 -14 -214 -29 -361 -29c-292 0 -449 79 -449 269c0 23 2 48 7 77c41 235 238 301 520 301c315 0 391 -138 391 -280c0 -37 -6 -75 -13 -110zM611 363c2 11 2 15 2 18
c0 25 -17 35 -51 35c-39 0 -56 -18 -62 -53h111zM975 646h-715l25 142h715z" />
    <glyph glyph-name="Ebreve" unicode="&#x114;" horiz-adv-x="959" 
d="M929 0h-899l42 241l46 4l44 252l-44 5l43 241h899l-43 -242h-229l-6 19h-150l-7 -41h358l-37 -212h-358l-8 -43h149l14 21h229zM1005 977c-44 -195 -279 -195 -360 -195c-61 0 -312 0 -320 195h163c5 -69 104 -72 165 -72c72 0 164 6 191 72h161z" />
    <glyph glyph-name="ebreve" unicode="&#x115;" horiz-adv-x="960" 
d="M981 236h-504c-2 -10 -2 -14 -2 -17c0 -19 15 -20 90 -20c73 0 284 -1 354 -1l-33 -190c-91 -14 -214 -29 -361 -29c-292 0 -449 79 -449 269c0 23 2 48 7 77c41 235 238 301 520 301c315 0 391 -138 391 -280c0 -37 -6 -75 -13 -110zM611 363c2 11 2 15 2 18
c0 25 -17 35 -51 35c-39 0 -56 -18 -62 -53h111zM994 841c-44 -195 -279 -195 -360 -195c-61 0 -312 0 -320 195h163c5 -69 104 -72 165 -72c72 0 164 6 191 72h161z" />
    <glyph glyph-name="Edotaccent" unicode="&#x116;" horiz-adv-x="959" 
d="M929 0h-899l42 241l46 4l44 252l-44 5l43 241h899l-43 -242h-229l-6 19h-150l-7 -41h358l-37 -212h-358l-8 -43h149l14 21h229zM893 792h-437l25 142h437z" />
    <glyph glyph-name="edotaccent" unicode="&#x117;" horiz-adv-x="960" 
d="M981 236h-504c-2 -10 -2 -14 -2 -17c0 -19 15 -20 90 -20c73 0 284 -1 354 -1l-33 -190c-91 -14 -214 -29 -361 -29c-292 0 -449 79 -449 269c0 23 2 48 7 77c41 235 238 301 520 301c315 0 391 -138 391 -280c0 -37 -6 -75 -13 -110zM611 363c2 11 2 15 2 18
c0 25 -17 35 -51 35c-39 0 -56 -18 -62 -53h111zM841 655h-437l25 142h437z" />
    <glyph glyph-name="Eogonek" unicode="&#x118;" horiz-adv-x="959" 
d="M892 -209c-37 -5 -160 -27 -293 -27c-138 0 -210 27 -210 101c0 72 59 112 133 135h-492l42 241l46 4l44 252l-44 5l43 241h899l-43 -242h-229l-6 19h-150l-7 -41h358l-37 -212h-358l-8 -43h149l14 21h229l-43 -245c-135 -20 -181 -35 -181 -61c0 -18 18 -19 42 -19
c48 0 90 5 126 7z" />
    <glyph glyph-name="eogonek" unicode="&#x119;" horiz-adv-x="960" 
d="M981 236h-504c-2 -10 -2 -14 -2 -17c0 -19 15 -20 90 -20c73 0 284 -1 354 -1l-33 -190c-128 -13 -181 -44 -181 -69c0 -18 18 -19 42 -19c48 0 90 5 126 7l-24 -136c-37 -5 -160 -27 -293 -27c-138 0 -210 27 -210 101c0 55 34 92 82 118c-230 16 -352 97 -352 265
c0 23 2 48 7 77c41 235 238 301 520 301c315 0 391 -138 391 -280c0 -37 -6 -75 -13 -110zM611 363c2 11 2 15 2 18c0 25 -14 35 -47 35c-41 0 -60 -18 -66 -53h111z" />
    <glyph glyph-name="Ecaron" unicode="&#x11a;" horiz-adv-x="959" 
d="M929 0h-899l42 241l46 4l44 252l-44 5l43 241h899l-43 -242h-229l-6 19h-150l-7 -41h358l-37 -212h-358l-8 -43h149l14 21h229zM1093 935l-215 -142h-483l-168 142h348l71 -51l88 51h359z" />
    <glyph glyph-name="ecaron" unicode="&#x11b;" horiz-adv-x="960" 
d="M981 236h-504c-2 -10 -2 -14 -2 -17c0 -19 15 -20 90 -20c73 0 284 -1 354 -1l-33 -190c-91 -14 -214 -29 -361 -29c-292 0 -449 79 -449 269c0 23 2 48 7 77c41 235 238 301 520 301c315 0 391 -138 391 -280c0 -37 -6 -75 -13 -110zM611 363c2 11 2 15 2 18
c0 25 -17 35 -51 35c-39 0 -56 -18 -62 -53h111zM1085 793l-215 -142h-483l-168 142h348l71 -51l88 51h359z" />
    <glyph glyph-name="Gcircumflex" unicode="&#x11c;" horiz-adv-x="1044" 
d="M1011 13c-128 -23 -311 -40 -481 -40c-249 0 -444 80 -444 331c0 30 3 61 10 102c59 336 311 364 577 364c168 0 354 -23 464 -43l-45 -252h-228l-4 36c-38 1 -97 2 -132 2c-118 0 -164 -2 -188 -137c-7 -41 -11 -69 -11 -89c0 -42 16 -56 61 -56c18 0 37 0 57 2l5 32
l-45 9l32 180h450zM1129 792h-346l-70 52l-89 -52h-361l218 142h483z" />
    <glyph glyph-name="gcircumflex" unicode="&#x11d;" horiz-adv-x="983" 
d="M959 16c0 -222 -297 -222 -492 -222h-24c-229 0 -429 11 -429 166c0 58 28 96 81 127c-19 14 -30 44 -30 71c0 57 55 88 107 98c-33 20 -52 74 -52 129c0 240 278 241 478 241h470l-24 -136l-45 -21c3 -8 6 -25 6 -47c0 -243 -303 -243 -486 -243c-37 0 -87 3 -133 9
c-9 -2 -15 -8 -15 -17c0 -11 6 -13 30 -13h114c293 0 444 -8 444 -142zM574 -8c0 18 -10 22 -72 22h-99c-9 -9 -13 -19 -13 -28c0 -24 20 -26 87 -26c74 0 97 6 97 32zM551 361c36 0 59 13 59 50c0 18 -10 32 -44 32c-33 0 -55 -18 -55 -51c0 -20 14 -31 40 -31zM1051 651
h-346l-70 52l-89 -52h-361l218 142h483z" />
    <glyph glyph-name="Gbreve" unicode="&#x11e;" horiz-adv-x="1044" 
d="M1011 13c-128 -23 -311 -40 -481 -40c-249 0 -444 80 -444 331c0 30 3 61 10 102c59 336 311 364 577 364c168 0 354 -23 464 -43l-45 -252h-228l-4 36c-38 1 -97 2 -132 2c-118 0 -164 -2 -188 -137c-7 -41 -11 -69 -11 -89c0 -42 16 -56 61 -56c18 0 37 0 57 2l5 32
l-45 9l32 180h450zM1067 987c-44 -195 -279 -195 -360 -195c-61 0 -312 0 -320 195h163c5 -69 104 -72 165 -72c72 0 164 6 191 72h161z" />
    <glyph glyph-name="gbreve" unicode="&#x11f;" horiz-adv-x="983" 
d="M959 16c0 -222 -297 -222 -492 -222h-24c-229 0 -429 11 -429 166c0 58 28 96 81 127c-19 14 -30 44 -30 71c0 57 55 88 107 98c-33 20 -52 74 -52 129c0 240 278 241 478 241h470l-24 -136l-45 -21c3 -8 6 -25 6 -47c0 -243 -303 -243 -486 -243c-37 0 -87 3 -133 9
c-9 -2 -15 -8 -15 -17c0 -11 6 -13 30 -13h114c293 0 444 -8 444 -142zM574 -8c0 18 -10 22 -72 22h-99c-9 -9 -13 -19 -13 -28c0 -24 20 -26 87 -26c74 0 97 6 97 32zM551 361c36 0 59 13 59 50c0 18 -10 32 -44 32c-33 0 -55 -18 -55 -51c0 -20 14 -31 40 -31zM976 841
c-44 -195 -279 -195 -360 -195c-61 0 -312 0 -320 195h163c5 -69 104 -72 165 -72c72 0 164 6 191 72h161z" />
    <glyph glyph-name="Gdotaccent" unicode="&#x120;" horiz-adv-x="1044" 
d="M1011 13c-128 -23 -311 -40 -481 -40c-249 0 -444 80 -444 331c0 30 3 61 10 102c59 336 311 364 577 364c168 0 354 -23 464 -43l-45 -252h-228l-4 36c-38 1 -97 2 -132 2c-118 0 -164 -2 -188 -137c-7 -41 -11 -69 -11 -89c0 -42 16 -56 61 -56c18 0 37 0 57 2l5 32
l-45 9l32 180h450zM916 792h-437l25 142h437z" />
    <glyph glyph-name="gdotaccent" unicode="&#x121;" horiz-adv-x="983" 
d="M959 16c0 -222 -297 -222 -492 -222h-24c-229 0 -429 11 -429 166c0 58 28 96 81 127c-19 14 -30 44 -30 71c0 57 55 88 107 98c-33 20 -52 74 -52 129c0 240 278 241 478 241h470l-24 -136l-45 -21c3 -8 6 -25 6 -47c0 -243 -303 -243 -486 -243c-37 0 -87 3 -133 9
c-9 -2 -15 -8 -15 -17c0 -11 6 -13 30 -13h114c293 0 444 -8 444 -142zM574 -8c0 18 -10 22 -72 22h-99c-9 -9 -13 -19 -13 -28c0 -24 20 -26 87 -26c74 0 97 6 97 32zM551 361c36 0 59 13 59 50c0 18 -10 32 -44 32c-33 0 -55 -18 -55 -51c0 -20 14 -31 40 -31zM805 655
h-437l25 142h437z" />
    <glyph glyph-name="Gcommaaccent" unicode="&#x122;" horiz-adv-x="1044" 
d="M1011 13c-128 -23 -311 -40 -481 -40c-249 0 -444 80 -444 331c0 30 3 61 10 102c59 336 311 364 577 364c168 0 354 -23 464 -43l-45 -252h-228l-4 36c-38 1 -97 2 -132 2c-118 0 -164 -2 -188 -137c-7 -41 -11 -69 -11 -89c0 -42 16 -56 61 -56c18 0 37 0 57 2l5 32
l-45 9l32 180h450zM794 -54l-151 -139h-364l106 139h409z" />
    <glyph glyph-name="gcommaaccent" unicode="&#x123;" horiz-adv-x="983" 
d="M959 16c0 -222 -297 -222 -492 -222h-24c-229 0 -429 11 -429 166c0 58 28 96 81 127c-19 14 -30 44 -30 71c0 57 55 88 107 98c-33 20 -52 74 -52 129c0 240 278 241 478 241h470l-24 -136l-45 -21c3 -8 6 -25 6 -47c0 -243 -303 -243 -486 -243c-37 0 -87 3 -133 9
c-9 -2 -15 -8 -15 -17c0 -11 6 -13 30 -13h114c293 0 444 -8 444 -142zM574 -8c0 18 -10 22 -72 22h-99c-9 -9 -13 -19 -13 -28c0 -24 20 -26 87 -26c74 0 97 6 97 32zM551 361c36 0 59 13 59 50c0 18 -10 32 -44 32c-33 0 -55 -18 -55 -51c0 -20 14 -31 40 -31zM897 790
l-107 -139h-409l151 139h365z" />
    <glyph glyph-name="Hcircumflex" unicode="&#x124;" horiz-adv-x="1292" 
d="M1262 0h-509l43 247h-214l-43 -247h-509l42 241l44 5l44 251l-42 5l43 241h509l-44 -249h214l44 249h509l-43 -241l-44 -5l-44 -251l42 -5zM1216 792h-346l-70 52l-89 -52h-361l218 142h483z" />
    <glyph glyph-name="hcircumflex" unicode="&#x125;" horiz-adv-x="1069" 
d="M1039 0h-451l61 347c2 10 2 17 2 24c0 23 -10 30 -35 30c-24 0 -51 -6 -67 -12l-27 -151l36 -5l-41 -233h-487l41 233l36 5l57 320l-35 6l40 229h451l-35 -203c86 32 169 36 233 36c212 0 256 -93 256 -189c0 -38 -7 -76 -13 -109l-17 -90l36 -5zM1109 822h-346l-70 52
l-89 -52h-361l218 142h483z" />
    <glyph glyph-name="Hbar" unicode="&#x126;" horiz-adv-x="1292" 
d="M1382 566h-64l-56 -320l42 -5l-42 -241h-509l43 247h-214l-43 -247h-509l42 241l44 5l56 320h-64l18 100h64l14 77h466l-14 -77h214l14 77h466l-14 -77h64zM840 494l12 72h-214l-12 -72h214z" />
    <glyph glyph-name="hbar" unicode="&#x127;" horiz-adv-x="1069" 
d="M809 657h-212l-11 -67c86 32 169 36 233 36c212 0 256 -93 256 -189c0 -38 -7 -76 -13 -109l-17 -90l36 -5l-41 -233h-451l61 347c2 10 2 17 2 24c0 23 -10 30 -35 30c-24 0 -51 -6 -67 -12l-27 -151l36 -5l-41 -233h-487l41 233l36 5l74 419h-44l16 91h44l8 45h415
l-8 -45h212z" />
    <glyph glyph-name="Itilde" unicode="&#x128;" horiz-adv-x="613" 
d="M583 0h-553l42 241l44 5l44 251l-42 5l43 241h553l-43 -241l-45 -5l-44 -251l43 -5zM836 983c-28 -185 -148 -193 -216 -193c-19 0 -67 1 -148 22l-85 22c-39 10 -66 16 -78 16c-27 0 -39 -10 -48 -57h-166c17 187 159 194 229 194c28 0 55 -2 132 -21l84 -21
c40 -10 62 -17 87 -17c24 0 35 9 43 55h166z" />
    <glyph glyph-name="itilde" unicode="&#x129;" horiz-adv-x="549" 
d="M746 835c-28 -185 -148 -193 -216 -193c-19 0 -67 1 -148 22l-85 22c-39 10 -66 16 -78 16c-27 0 -39 -10 -48 -57h-166c17 187 159 194 229 194c28 0 55 -2 132 -21l84 -21c40 -10 62 -17 87 -17c24 0 35 9 43 55h166zM519 0h-488l41 234l36 4l23 130l-35 4l41 234h451
l-65 -368l37 -4z" />
    <glyph glyph-name="Imacron" unicode="&#x12a;" horiz-adv-x="613" 
d="M583 0h-553l42 241l44 5l44 251l-42 5l43 241h553l-43 -241l-45 -5l-44 -251l43 -5zM804 793h-715l25 142h715z" />
    <glyph glyph-name="imacron" unicode="&#x12b;" horiz-adv-x="549" 
d="M724 651h-715l25 142h715zM519 0h-488l41 234l36 4l23 130l-35 4l41 234h451l-65 -368l37 -4z" />
    <glyph glyph-name="Ibreve" unicode="&#x12c;" horiz-adv-x="613" 
d="M583 0h-553l42 241l44 5l44 251l-42 5l43 241h553l-43 -241l-45 -5l-44 -251l43 -5zM806 971c-44 -195 -279 -195 -360 -195c-61 0 -312 0 -320 195h163c5 -69 104 -72 165 -72c72 0 164 6 191 72h161z" />
    <glyph glyph-name="ibreve" unicode="&#x12d;" horiz-adv-x="549" 
d="M751 841c-44 -195 -279 -195 -360 -195c-61 0 -312 0 -320 195h163c5 -69 104 -72 165 -72c72 0 164 6 191 72h161zM519 0h-488l41 234l36 4l23 130l-35 4l41 234h451l-65 -368l37 -4z" />
    <glyph glyph-name="Iogonek" unicode="&#x12e;" horiz-adv-x="613" 
d="M529 -209c-37 -5 -160 -27 -293 -27c-138 0 -210 27 -210 101c0 72 59 112 133 135h-129l42 241l44 5l44 251l-42 5l43 241h553l-43 -241l-45 -5l-44 -251l43 -5l-42 -241h-17c-135 -20 -181 -35 -181 -61c0 -18 18 -19 42 -19c48 0 90 5 126 7z" />
    <glyph glyph-name="iogonek" unicode="&#x12f;" horiz-adv-x="549" 
d="M481 -209c-37 -5 -160 -27 -293 -27c-138 0 -210 27 -210 101c0 72 59 112 133 135h-81l41 233l36 5l24 133l-35 5l40 230h451l-65 -368l37 -5l-41 -233c-135 -20 -181 -35 -181 -61c0 -18 18 -19 42 -19c48 0 90 5 126 7zM604 639h-437l27 154h437z" />
    <glyph glyph-name="Idotaccent" unicode="&#x130;" horiz-adv-x="613" 
d="M583 0h-553l42 241l44 5l44 251l-42 5l43 241h553l-43 -241l-45 -5l-44 -251l43 -5zM669 793h-437l25 142h437z" />
    <glyph glyph-name="dotlessi" unicode="&#x131;" horiz-adv-x="549" 
d="M519 0h-488l41 234l36 4l23 130l-35 4l41 234h451l-65 -368l37 -4z" />
    <glyph glyph-name="IJ" unicode="&#x132;" horiz-adv-x="1208" 
d="M1265 502l-44 -5l-76 -432c-34 -193 -173 -276 -419 -276c-62 0 -121 3 -183 8l32 183h35c50 0 57 15 64 55l81 462l-43 5l43 241h553zM583 0h-553l42 241l44 5l44 251l-42 5l43 241h553l-43 -241l-45 -5l-44 -251l43 -5z" />
    <glyph glyph-name="ij" unicode="&#x133;" horiz-adv-x="1052" 
d="M518 0h-488l41 233l36 5l24 133l-35 5l40 230h451l-65 -368l37 -5zM604 639h-437l27 154h437zM1020 26c-32 -184 -137 -240 -377 -240c-84 0 -154 5 -181 8l33 188c38 -1 42 -1 51 -1c46 0 53 11 59 45l61 346l-35 5l40 229h451zM1139 639h-437l27 154h437z" />
    <glyph glyph-name="Jcircumflex" unicode="&#x134;" horiz-adv-x="613" 
d="M670 502l-44 -5l-76 -432c-34 -193 -173 -276 -419 -276c-73 0 -143 4 -182 8l32 183h34c50 0 57 15 64 55l81 462l-43 5l43 241h553zM879 793h-346l-70 52l-89 -52h-361l218 142h483z" />
    <glyph glyph-name="jcircumflex" unicode="&#x135;" horiz-adv-x="517" 
d="M485 26c-32 -184 -137 -240 -377 -240c-88 0 -153 4 -181 8l32 188c38 -1 43 -1 52 -1c46 0 53 11 59 45l60 342l-35 4l41 234h451zM826 651h-346l-70 52l-89 -52h-361l218 142h483z" />
    <glyph glyph-name="Kcommaaccent" unicode="&#x136;" horiz-adv-x="1243" 
d="M1208 0h-450l-158 338l-59 -338h-511l42 241l46 5l44 251l-44 5l43 241h511l-62 -351l309 351h425l-43 -241l-70 -5l-142 -126l91 -124l70 -6zM863 -54l-151 -139h-364l106 139h409z" />
    <glyph glyph-name="kcommaaccent" unicode="&#x137;" horiz-adv-x="1006" 
d="M976 0h-328l-121 266l-46 -266h-451l41 233l36 5l57 321l-35 5l40 229h451l-82 -467l234 280h310l-41 -234l-71 -10l-57 -50l52 -68l52 -10zM710 -54l-151 -139h-364l106 139h409z" />
    <glyph glyph-name="kgreenlandic" unicode="&#x138;" horiz-adv-x="1006" 
d="M976 0h-328l-121 266l-46 -266h-451l41 233l36 5l25 135l-35 5l40 229h451l-50 -281l234 280h310l-41 -234l-71 -10l-57 -50l52 -68l52 -10z" />
    <glyph glyph-name="Lacute" unicode="&#x139;" horiz-adv-x="853" 
d="M823 0h-793l42 241l46 5l44 251l-44 5l43 241h554l-43 -241l-44 -5l-44 -251h39l23 56h230zM1032 935l-310 -142h-391l218 142h483z" />
    <glyph glyph-name="lacute" unicode="&#x13a;" horiz-adv-x="548" 
d="M518 0h-488l41 233l36 5l57 320l-35 6l40 229h451l-98 -555l37 -5zM890 980l-310 -142h-391l218 142h483z" />
    <glyph glyph-name="Lcommaaccent" unicode="&#x13b;" horiz-adv-x="853" 
d="M635 -55l-151 -139h-366l108 139h409zM823 0h-793l42 241l46 5l44 251l-44 5l43 241h554l-43 -241l-44 -5l-44 -251h39l23 56h230z" />
    <glyph glyph-name="lcommaaccent" unicode="&#x13c;" horiz-adv-x="548" 
d="M518 0h-488l41 233l36 5l57 320l-35 6l40 229h451l-98 -555l37 -5zM474 -54l-151 -139h-364l106 139h409z" />
    <glyph glyph-name="Lcaron" unicode="&#x13d;" horiz-adv-x="1120" 
d="M1170 797l-231 -319h-247l171 319h307zM823 0h-793l42 241l46 5l44 251l-44 5l43 241h554l-43 -241l-44 -5l-44 -251h39l23 56h230z" />
    <glyph glyph-name="lcaron" unicode="&#x13e;" horiz-adv-x="900" 
d="M518 0h-488l41 233l36 5l57 320l-35 6l40 229h451l-98 -555l37 -5zM1050 793l-205 -309h-263l149 309h319z" />
    <glyph glyph-name="Ldot" unicode="&#x13f;" horiz-adv-x="853" 
d="M872 365h-188l33 186h188zM823 0h-793l42 241l46 5l44 251l-44 5l43 241h554l-43 -241l-44 -5l-44 -251h39l23 56h230z" />
    <glyph glyph-name="ldot" unicode="&#x140;" horiz-adv-x="940" 
d="M518 0h-488l41 233l36 5l57 320l-35 6l40 229h451l-98 -555l37 -5zM954 254h-370l39 217h370z" />
    <glyph glyph-name="Lslash" unicode="&#x141;" horiz-adv-x="853" 
d="M823 0h-793l42 241l46 5l8 49l-48 -9l16 90l48 9l20 112l-44 5l43 241h554l-43 -241l-44 -5l-4 -24l101 19l-16 -90l-101 -19l-24 -137h39l23 56h230z" />
    <glyph glyph-name="lslash" unicode="&#x142;" horiz-adv-x="548" 
d="M518 0h-488l41 234l36 4l10 54l-54 -30l22 127l54 30l25 137l-36 3l41 234h451l-20 -118l56 32l-22 -127l-57 -32l-55 -310l37 -4z" />
    <glyph glyph-name="Nacute" unicode="&#x143;" horiz-adv-x="1228" 
d="M1286 502l-44 -5l-87 -497h-390l-185 208c-13 15 -33 36 -45 50h-3c-3 -26 -8 -56 -13 -83l-30 -175h-459l42 241l46 5l44 251l-44 5l43 241h413l204 -218c12 -13 34 -35 45 -49h2c3 28 8 55 13 80l33 187h458zM1252 935l-310 -142h-391l218 142h483z" />
    <glyph glyph-name="nacute" unicode="&#x144;" horiz-adv-x="1069" 
d="M1039 0h-451l59 334c4 24 5 32 5 39c0 21 -10 28 -35 28s-65 -13 -68 -14l-27 -149l36 -5l-41 -233h-487l41 233l36 5l23 130l-34 9l40 229h413l-11 -62c82 54 186 82 274 82c219 0 264 -82 264 -174c0 -34 -6 -70 -12 -104l-20 -110l36 -5zM1077 793l-310 -142h-391
l218 142h483z" />
    <glyph glyph-name="Ncommaaccent" unicode="&#x145;" horiz-adv-x="1228" 
d="M1286 502l-44 -5l-87 -497h-390l-185 208c-13 15 -33 36 -45 50h-3c-3 -26 -8 -56 -13 -83l-30 -175h-459l42 241l46 5l44 251l-44 5l43 241h413l204 -218c12 -13 34 -35 45 -49h2c3 28 8 55 13 80l33 187h458zM855 -54l-151 -139h-364l106 139h409z" />
    <glyph glyph-name="ncommaaccent" unicode="&#x146;" horiz-adv-x="1069" 
d="M1039 0h-451l59 334c4 24 5 32 5 39c0 21 -10 28 -35 28s-65 -13 -68 -14l-27 -149l36 -5l-41 -233h-487l41 233l36 5l23 130l-34 9l40 229h413l-11 -62c82 54 186 82 274 82c219 0 264 -82 264 -174c0 -34 -6 -70 -12 -104l-20 -110l36 -5zM772 -55l-151 -139h-364
l106 139h409z" />
    <glyph glyph-name="Ncaron" unicode="&#x147;" horiz-adv-x="1228" 
d="M1286 502l-44 -5l-87 -497h-390l-185 208c-13 15 -33 36 -45 50h-3c-3 -26 -8 -56 -13 -83l-30 -175h-459l42 241l46 5l44 251l-44 5l43 241h413l204 -218c12 -13 34 -35 45 -49h2c3 28 8 55 13 80l33 187h458zM1223 934l-215 -142h-483l-168 142h348l71 -51l88 51h359z
" />
    <glyph glyph-name="ncaron" unicode="&#x148;" horiz-adv-x="1069" 
d="M1039 0h-451l59 334c4 24 5 32 5 39c0 21 -10 28 -35 28s-65 -13 -68 -14l-27 -149l36 -5l-41 -233h-487l41 233l36 5l23 130l-34 9l40 229h413l-11 -62c82 54 186 82 274 82c219 0 264 -82 264 -174c0 -34 -6 -70 -12 -104l-20 -110l36 -5zM1090 793l-215 -142h-483
l-168 142h348l71 -51l88 51h359z" />
    <glyph glyph-name="napostrophe" unicode="&#x149;" horiz-adv-x="1367" 
d="M1337 0h-451l59 334c4 24 5 32 5 39c0 21 -10 28 -35 28s-65 -13 -68 -14l-27 -149l36 -5l-41 -233h-487l41 233l36 5l23 130l-34 9l40 229h413l-11 -62c82 54 186 82 274 82c219 0 264 -82 264 -174c0 -34 -6 -70 -12 -104l-20 -110l36 -5zM537 793l-225 -309h-263
l169 309h319z" />
    <glyph glyph-name="Eng" unicode="&#x14a;" horiz-adv-x="1228" 
d="M1286 502l-44 -5l-75 -432c-34 -193 -173 -276 -419 -276c-73 0 -143 4 -182 8l32 183h34c50 0 57 15 64 55l6 35l-122 138l-45 50h-3c-3 -26 -8 -56 -13 -83l-30 -175h-459l42 241l46 5l44 251l-44 5l43 241h413l204 -218c12 -13 34 -35 45 -49h2c3 28 8 55 13 80
l33 187h458z" />
    <glyph glyph-name="eng" unicode="&#x14b;" horiz-adv-x="1069" 
d="M1007 26c-32 -184 -140 -240 -380 -240c-67 0 -145 5 -182 8l33 188c38 -1 43 -1 62 -1c36 0 46 11 52 45l57 322c2 9 2 17 2 23c0 23 -10 30 -36 30c-18 0 -51 -9 -66 -14l-27 -149l34 -4l-41 -234h-485l41 234l36 4l23 130l-35 4l41 234h411l-11 -62
c82 54 176 82 291 82c204 0 247 -87 247 -182c0 -37 -5 -67 -13 -111z" />
    <glyph glyph-name="Omacron" unicode="&#x14c;" horiz-adv-x="1108" 
d="M1143 339c-58 -321 -305 -366 -584 -366c-288 0 -473 85 -473 334c0 29 3 59 10 98c55 316 304 365 583 365c280 0 473 -88 473 -336c0 -28 -2 -57 -9 -95zM701 369c6 36 9 60 9 80c0 45 -17 65 -66 65c-71 0 -89 -40 -106 -139c-6 -36 -9 -60 -9 -79
c0 -51 20 -66 65 -66c62 0 87 29 107 139zM1050 792h-715l25 142h715z" />
    <glyph glyph-name="omacron" unicode="&#x14d;" horiz-adv-x="969" 
d="M991 279c-38 -222 -229 -300 -512 -300c-275 0 -403 96 -403 276c0 20 2 41 7 70c40 223 231 301 510 301c263 0 405 -94 405 -274c0 -21 -2 -43 -7 -73zM578 299c5 27 6 42 6 54c0 31 -11 41 -32 41c-30 0 -47 -18 -60 -89c-4 -26 -6 -42 -6 -54c0 -32 11 -42 33 -42
c29 0 47 19 59 90zM952 651h-715l25 142h715z" />
    <glyph glyph-name="Obreve" unicode="&#x14e;" horiz-adv-x="1108" 
d="M1143 339c-58 -321 -305 -366 -584 -366c-288 0 -473 85 -473 334c0 29 3 59 10 98c55 316 304 365 583 365c280 0 473 -88 473 -336c0 -28 -2 -57 -9 -95zM701 369c6 36 9 60 9 80c0 45 -17 65 -66 65c-71 0 -89 -40 -106 -139c-6 -36 -9 -60 -9 -79
c0 -51 20 -66 65 -66c62 0 87 29 107 139zM1060 987c-44 -195 -279 -195 -360 -195c-61 0 -312 0 -320 195h163c5 -69 104 -72 165 -72c72 0 164 6 191 72h161z" />
    <glyph glyph-name="obreve" unicode="&#x14f;" horiz-adv-x="969" 
d="M991 279c-38 -222 -229 -300 -512 -300c-275 0 -403 96 -403 276c0 20 2 41 7 70c40 223 231 301 510 301c263 0 405 -94 405 -274c0 -21 -2 -43 -7 -73zM578 299c5 27 6 42 6 54c0 31 -11 41 -32 41c-30 0 -47 -18 -60 -89c-4 -26 -6 -42 -6 -54c0 -32 11 -42 33 -42
c29 0 47 19 59 90zM959 841c-44 -195 -279 -195 -360 -195c-61 0 -312 0 -320 195h163c5 -69 104 -72 165 -72c72 0 164 6 191 72h161z" />
    <glyph glyph-name="Ohungarumlaut" unicode="&#x150;" horiz-adv-x="1108" 
d="M1143 339c-58 -321 -305 -366 -584 -366c-288 0 -473 85 -473 334c0 29 3 59 10 98c55 316 304 365 583 365c280 0 473 -88 473 -336c0 -28 -2 -57 -9 -95zM701 369c6 36 9 60 9 80c0 45 -17 65 -66 65c-71 0 -89 -40 -106 -139c-6 -36 -9 -60 -9 -79
c0 -51 20 -66 65 -66c62 0 87 29 107 139zM1389 935l-311 -142h-324l218 142h417zM879 935h-418l-217 -142h324z" />
    <glyph glyph-name="ohungarumlaut" unicode="&#x151;" horiz-adv-x="969" 
d="M991 279c-38 -222 -229 -300 -512 -300c-275 0 -403 96 -403 276c0 20 2 41 7 70c40 223 231 301 510 301c263 0 405 -94 405 -274c0 -21 -2 -43 -7 -73zM578 299c5 27 6 42 6 54c0 31 -11 41 -32 41c-30 0 -47 -18 -60 -89c-4 -26 -6 -42 -6 -54c0 -32 11 -42 33 -42
c29 0 47 19 59 90zM1295 793l-311 -142h-324l218 142h417zM785 793h-418l-217 -142h324z" />
    <glyph glyph-name="OE" unicode="&#x152;" horiz-adv-x="1498" 
d="M1468 0h-670c-104 -14 -208 -27 -288 -27c-201 0 -425 78 -425 329c0 27 2 57 12 110c58 316 327 359 552 359c81 0 183 -9 278 -28h672l-43 -242h-229l-6 19h-150l-7 -41h358l-37 -212h-358l-8 -43h149l14 21h229zM677 235c0 0 14 80 48 274c-27 3 -47 5 -81 5
c-65 0 -86 -30 -105 -134c-9 -48 -11 -68 -11 -85c0 -49 20 -65 66 -65c27 0 35 0 83 5z" />
    <glyph glyph-name="oe" unicode="&#x153;" horiz-adv-x="1466" 
d="M1479 236h-504c-2 -10 -2 -14 -2 -17c0 -19 15 -20 90 -20c73 0 284 -1 354 -1l-33 -190c-91 -14 -214 -29 -361 -29c-116 0 -204 13 -269 39c-73 -27 -165 -39 -275 -39c-251 0 -403 96 -403 276c0 20 2 41 7 70c40 223 231 301 510 301c94 0 170 -13 229 -39
c73 28 166 39 279 39c315 0 391 -138 391 -280c0 -37 -6 -75 -13 -110zM578 299c5 27 6 42 6 54c0 31 -11 41 -32 41c-30 0 -47 -18 -60 -89c-4 -26 -6 -42 -6 -54c0 -32 11 -42 33 -42c29 0 47 19 59 90zM1109 363c2 11 2 15 2 18c0 25 -17 35 -51 35
c-39 0 -56 -18 -62 -53h111z" />
    <glyph glyph-name="Racute" unicode="&#x154;" horiz-adv-x="1135" 
d="M1105 0h-332l-141 221h-44h-46l-38 -221h-474l42 241l44 5l44 251l-42 5l43 241c117 14 328 27 547 27c260 0 489 -41 489 -237c0 -112 -45 -186 -150 -253l34 -34l66 -5zM648 440c66 0 110 0 110 50c0 30 -22 36 -95 36c-29 0 -33 0 -68 -3l-15 -81c22 -2 43 -2 68 -2z
M1214 935l-310 -142h-391l218 142h483z" />
    <glyph glyph-name="racute" unicode="&#x155;" horiz-adv-x="688" 
d="M728 344h-187l-19 -106l36 -5l-41 -233h-487l41 233l36 5l24 133l-35 6l40 229h413l-12 -68c94 84 195 88 241 88zM946 793l-310 -142h-391l218 142h483z" />
    <glyph glyph-name="Rcommaaccent" unicode="&#x156;" horiz-adv-x="1135" 
d="M1105 0h-332l-141 221h-44h-46l-38 -221h-474l42 241l44 5l44 251l-42 5l43 241c117 14 328 27 547 27c260 0 489 -41 489 -237c0 -112 -45 -186 -150 -253l34 -34l66 -5zM648 440c66 0 110 0 110 50c0 30 -22 36 -95 36c-29 0 -33 0 -68 -3l-15 -81c22 -2 43 -2 68 -2z
M796 -54l-151 -139h-364l106 139h409z" />
    <glyph glyph-name="rcommaaccent" unicode="&#x157;" horiz-adv-x="688" 
d="M728 344h-187l-19 -106l36 -5l-41 -233h-487l41 233l36 5l24 133l-35 6l40 229h413l-12 -68c94 84 195 88 241 88zM525 -55l-151 -139h-364l106 139h409z" />
    <glyph glyph-name="Rcaron" unicode="&#x158;" horiz-adv-x="1135" 
d="M1105 0h-332l-141 221h-44h-46l-38 -221h-474l42 241l44 5l44 251l-42 5l43 241c117 14 328 27 547 27c260 0 489 -41 489 -237c0 -112 -45 -186 -150 -253l34 -34l66 -5zM648 440c66 0 110 0 110 50c0 30 -22 36 -95 36c-29 0 -33 0 -68 -3l-15 -81c22 -2 43 -2 68 -2z
M1164 935l-215 -142h-483l-168 142h348l71 -51l88 51h359z" />
    <glyph glyph-name="rcaron" unicode="&#x159;" horiz-adv-x="688" 
d="M728 344h-187l-19 -106l36 -5l-41 -233h-487l41 233l36 5l24 133l-35 6l40 229h413l-12 -68c94 84 195 88 241 88zM908 793l-215 -142h-483l-168 142h348l71 -51l88 51h359z" />
    <glyph glyph-name="Sacute" unicode="&#x15a;" horiz-adv-x="992" 
d="M1012 284c0 -285 -244 -311 -501 -311c-167 0 -335 7 -452 25l41 232h229l6 -29h149c59 0 71 4 73 17s-9 14 -97 22l-60 5c-157 13 -288 62 -288 223c0 292 244 302 546 302c151 0 300 -18 395 -33l-38 -217h-231l-6 31h-151c-55 0 -68 -3 -70 -16c-3 -14 14 -17 98 -26
l65 -7c205 -22 292 -91 292 -218zM1136 934l-310 -142h-391l218 142h483z" />
    <glyph glyph-name="sacute" unicode="&#x15b;" horiz-adv-x="826" 
d="M842 237c0 -257 -277 -257 -485 -257c-122 0 -237 12 -304 20l31 181h239l6 -23h55c29 0 48 0 48 15c0 10 -12 14 -46 18l-53 7c-145 20 -241 66 -241 181c0 234 222 247 431 247c141 0 276 -12 351 -22l-31 -176h-236l-6 23h-64c-30 0 -47 0 -47 -16
c0 -11 15 -14 49 -17l75 -7c164 -16 228 -75 228 -174zM994 793l-310 -142h-391l218 142h483z" />
    <glyph glyph-name="Scircumflex" unicode="&#x15c;" horiz-adv-x="992" 
d="M1012 284c0 -285 -244 -311 -501 -311c-167 0 -335 7 -452 25l41 232h229l6 -29h149c59 0 71 4 73 17s-9 14 -97 22l-60 5c-157 13 -288 62 -288 223c0 292 244 302 546 302c151 0 300 -18 395 -33l-38 -217h-231l-6 31h-151c-55 0 -68 -3 -70 -16c-3 -14 14 -17 98 -26
l65 -7c205 -22 292 -91 292 -218zM1083 792h-346l-70 52l-89 -52h-361l218 142h483z" />
    <glyph glyph-name="scircumflex" unicode="&#x15d;" horiz-adv-x="826" 
d="M842 237c0 -257 -277 -257 -485 -257c-122 0 -237 12 -304 20l31 181h239l6 -23h55c29 0 48 0 48 15c0 10 -12 14 -46 18l-53 7c-145 20 -241 66 -241 181c0 234 222 247 431 247c141 0 276 -12 351 -22l-31 -176h-236l-6 23h-64c-30 0 -47 0 -47 -16
c0 -11 15 -14 49 -17l75 -7c164 -16 228 -75 228 -174zM940 651h-346l-70 52l-89 -52h-361l218 142h483z" />
    <glyph glyph-name="Scedilla" unicode="&#x15e;" horiz-adv-x="992" 
d="M1012 284c0 -285 -244 -311 -501 -311c-167 0 -335 7 -452 25l41 232h229l6 -29h149c59 0 71 4 73 17s-9 14 -97 22l-60 5c-157 13 -288 62 -288 223c0 292 244 302 546 302c151 0 300 -18 395 -33l-38 -217h-231l-6 31h-151c-55 0 -68 -3 -70 -16c-3 -14 14 -17 98 -26
l65 -7c205 -22 292 -91 292 -218zM748 -54l-176 -139h-365l134 139h407z" />
    <glyph glyph-name="scedilla" unicode="&#x15f;" horiz-adv-x="826" 
d="M842 237c0 -257 -277 -257 -485 -257c-122 0 -237 12 -304 20l31 181h239l6 -23h55c29 0 48 0 48 15c0 10 -12 14 -46 18l-53 7c-145 20 -241 66 -241 181c0 234 222 247 431 247c141 0 276 -12 351 -22l-31 -176h-236l-6 23h-64c-30 0 -47 0 -47 -16
c0 -11 15 -14 49 -17l75 -7c164 -16 228 -75 228 -174zM664 -54l-176 -139h-365l134 139h407z" />
    <glyph glyph-name="Scaron" unicode="&#x160;" horiz-adv-x="992" 
d="M1012 284c0 -285 -244 -311 -501 -311c-167 0 -335 7 -452 25l41 232h229l6 -29h149c59 0 71 4 73 17s-9 14 -97 22l-60 5c-157 13 -288 62 -288 223c0 292 244 302 546 302c151 0 300 -18 395 -33l-38 -217h-231l-6 31h-151c-55 0 -68 -3 -70 -16c-3 -14 14 -17 98 -26
l65 -7c205 -22 292 -91 292 -218zM1094 935l-215 -142h-483l-168 142h348l71 -51l88 51h359z" />
    <glyph glyph-name="scaron" unicode="&#x161;" horiz-adv-x="826" 
d="M842 237c0 -257 -277 -257 -485 -257c-122 0 -237 12 -304 20l31 181h239l6 -23h55c29 0 48 0 48 15c0 10 -12 14 -46 18l-53 7c-145 20 -241 66 -241 181c0 234 222 247 431 247c141 0 276 -12 351 -22l-31 -176h-236l-6 23h-64c-30 0 -47 0 -47 -16
c0 -11 15 -14 49 -17l75 -7c164 -16 228 -75 228 -174zM980 793l-215 -142h-483l-168 142h348l71 -51l88 51h359z" />
    <glyph glyph-name="Tcommaaccent" unicode="&#x162;" horiz-adv-x="1021" 
d="M1073 466h-208l-9 41h-22l-46 -261l42 -5l-42 -241h-554l42 241l44 5l46 261h-23l-22 -41h-209l49 277h961zM725 -54l-151 -139h-364l106 139h409z" />
    <glyph glyph-name="tcommaaccent" unicode="&#x163;" horiz-adv-x="700" 
d="M664 -3c-12 -1 -98 -18 -218 -18c-164 0 -280 31 -280 196c0 21 3 44 7 69l25 139l-104 10l37 213h106l27 149h415l-27 -149h129l-39 -223h-129l-28 -157c-5 -30 -6 -37 33 -37c31 0 74 2 80 2zM601 -54l-151 -139h-364l106 139h409z" />
    <glyph glyph-name="Tcaron" unicode="&#x164;" horiz-adv-x="1021" 
d="M1073 466h-208l-9 41h-22l-46 -261l42 -5l-42 -241h-554l42 241l44 5l46 261h-23l-22 -41h-209l49 277h961zM1105 935l-215 -142h-483l-168 142h348l71 -51l88 51h359z" />
    <glyph glyph-name="tcaron" unicode="&#x165;" horiz-adv-x="901" 
d="M1065 793l-134 -154h-220l75 154h279zM670 -3c-13 -1 -99 -18 -219 -18c-147 0 -281 27 -281 191c0 21 3 44 7 69l26 144l-104 10l37 213h106l27 149h416l-27 -149h128l-39 -223h-129l-28 -157c-2 -12 -4 -21 -4 -28c0 -15 8 -19 35 -19c31 0 74 2 81 2z" />
    <glyph glyph-name="Tbar" unicode="&#x166;" horiz-adv-x="1021" 
d="M1014 306h-216l-10 -61l42 -4l-42 -241h-554l42 241l44 4l10 61h-217l22 125h217l14 76h-23l-22 -41h-209l49 277h961l-49 -277h-208l-9 41h-22l-14 -76h216z" />
    <glyph glyph-name="tbar" unicode="&#x167;" horiz-adv-x="700" 
d="M719 263h-128l-7 -37c-7 -40 -8 -47 31 -47c31 0 75 2 81 2l-32 -184c-13 -1 -99 -18 -219 -18c-165 0 -316 19 -276 245l7 39l-104 10l23 133h106l10 57l-104 10l23 133h106l27 149h416l-27 -149h127l-25 -143h-128l-10 -57h128z" />
    <glyph glyph-name="Utilde" unicode="&#x168;" horiz-adv-x="1214" 
d="M1272 502l-45 -5l-35 -197c-58 -327 -347 -327 -581 -327c-237 0 -484 24 -484 291c0 29 3 61 9 96l24 137l-42 5l43 241h495l-73 -413c-4 -22 -6 -39 -6 -54c0 -41 18 -57 67 -57c69 0 88 29 103 111l73 413h495zM1134 982c-28 -185 -148 -193 -216 -193
c-19 0 -67 1 -148 22l-85 22c-39 10 -66 16 -78 16c-27 0 -39 -10 -48 -57h-166c17 187 159 194 229 194c28 0 55 -2 132 -21l84 -21c40 -10 62 -17 87 -17c24 0 35 9 43 55h166z" />
    <glyph glyph-name="utilde" unicode="&#x169;" horiz-adv-x="1069" 
d="M1039 0h-412l10 62c-61 -40 -163 -83 -315 -83c-180 0 -220 92 -220 189c0 38 6 76 12 110l16 90l-34 9l40 229h451l-58 -331c-5 -27 -6 -34 -6 -41c0 -22 10 -29 37 -29c24 0 64 13 66 14l26 149l-34 9l40 229h451l-65 -368l35 -9zM1018 835
c-28 -185 -148 -193 -216 -193c-19 0 -67 1 -148 22l-85 22c-39 10 -66 16 -78 16c-27 0 -39 -10 -48 -57h-166c17 187 159 194 229 194c28 0 55 -2 132 -21l84 -21c40 -10 62 -17 87 -17c24 0 35 9 43 55h166z" />
    <glyph glyph-name="Umacron" unicode="&#x16a;" horiz-adv-x="1214" 
d="M1272 502l-45 -5l-35 -197c-58 -327 -347 -327 -581 -327c-237 0 -484 24 -484 291c0 29 3 61 9 96l24 137l-42 5l43 241h495l-73 -413c-4 -22 -6 -39 -6 -54c0 -41 18 -57 67 -57c69 0 88 29 103 111l73 413h495zM1103 792h-715l25 142h715z" />
    <glyph glyph-name="umacron" unicode="&#x16b;" horiz-adv-x="1069" 
d="M1039 0h-412l10 62c-61 -40 -163 -83 -315 -83c-180 0 -220 92 -220 189c0 38 6 76 12 110l16 90l-34 9l40 229h451l-58 -331c-5 -27 -6 -34 -6 -41c0 -22 10 -29 37 -29c24 0 64 13 66 14l26 149l-34 9l40 229h451l-65 -368l35 -9zM989 651h-715l25 142h715z" />
    <glyph glyph-name="Ubreve" unicode="&#x16c;" horiz-adv-x="1214" 
d="M1272 502l-45 -5l-35 -197c-58 -327 -347 -327 -581 -327c-237 0 -484 24 -484 291c0 29 3 61 9 96l24 137l-42 5l43 241h495l-73 -413c-4 -22 -6 -39 -6 -54c0 -41 18 -57 67 -57c69 0 88 29 103 111l73 413h495zM1105 987c-44 -195 -279 -195 -360 -195
c-61 0 -312 0 -320 195h163c5 -69 104 -72 165 -72c72 0 164 6 191 72h161z" />
    <glyph glyph-name="ubreve" unicode="&#x16d;" horiz-adv-x="1069" 
d="M1039 0h-412l10 62c-61 -40 -163 -83 -315 -83c-180 0 -220 92 -220 189c0 38 6 76 12 110l16 90l-34 9l40 229h451l-58 -331c-5 -27 -6 -34 -6 -41c0 -22 10 -29 37 -29c24 0 64 13 66 14l26 149l-34 9l40 229h451l-65 -368l35 -9zM1003 841
c-44 -195 -279 -195 -360 -195c-61 0 -312 0 -320 195h163c5 -69 104 -72 165 -72c72 0 164 6 191 72h161z" />
    <glyph glyph-name="Uring" unicode="&#x16e;" horiz-adv-x="1214" 
d="M1272 502l-45 -5l-35 -197c-58 -327 -347 -327 -581 -327c-237 0 -484 24 -484 291c0 29 3 61 9 96l24 137l-42 5l43 241h495l-73 -413c-4 -22 -6 -39 -6 -54c0 -41 18 -57 67 -57c69 0 88 29 103 111l73 413h495zM809 912c0 25 -27 35 -64 35c-39 0 -66 -10 -66 -35
c0 -24 27 -34 66 -34c37 0 64 10 64 34zM973 911c0 -95 -91 -147 -228 -147c-139 0 -231 52 -231 147s92 148 231 148c138 0 228 -53 228 -148z" />
    <glyph glyph-name="uring" unicode="&#x16f;" horiz-adv-x="1069" 
d="M1039 0h-412l10 62c-61 -40 -163 -83 -315 -83c-180 0 -220 92 -220 189c0 38 6 76 12 110l16 90l-34 9l40 229h451l-58 -331c-5 -27 -6 -34 -6 -41c0 -22 10 -29 37 -29c24 0 64 13 66 14l26 149l-34 9l40 229h451l-65 -368l35 -9zM715 778c0 25 -27 35 -64 35
c-39 0 -66 -10 -66 -35c0 -24 27 -34 66 -34c37 0 64 10 64 34zM879 777c0 -95 -91 -147 -228 -147c-139 0 -231 52 -231 147s92 148 231 148c138 0 228 -53 228 -148z" />
    <glyph glyph-name="Uhungarumlaut" unicode="&#x170;" horiz-adv-x="1214" 
d="M1272 502l-45 -5l-35 -197c-58 -327 -347 -327 -581 -327c-237 0 -484 24 -484 291c0 29 3 61 9 96l24 137l-42 5l43 241h495l-73 -413c-4 -22 -6 -39 -6 -54c0 -41 18 -57 67 -57c69 0 88 29 103 111l73 413h495zM1459 935l-311 -142h-324l218 142h417zM949 935h-418
l-217 -142h324z" />
    <glyph glyph-name="uhungarumlaut" unicode="&#x171;" horiz-adv-x="1069" 
d="M1039 0h-412l10 62c-61 -40 -163 -83 -315 -83c-180 0 -220 92 -220 189c0 38 6 76 12 110l16 90l-34 9l40 229h451l-58 -331c-5 -27 -6 -34 -6 -41c0 -22 10 -29 37 -29c24 0 64 13 66 14l26 149l-34 9l40 229h451l-65 -368l35 -9zM1326 793l-311 -142h-324l218 142h417
zM816 793h-418l-217 -142h324z" />
    <glyph glyph-name="Uogonek" unicode="&#x172;" horiz-adv-x="1214" 
d="M833 -209c-37 -5 -160 -27 -293 -27c-138 0 -210 27 -210 101c0 57 37 94 89 118c-162 21 -292 87 -292 281c0 29 3 61 9 96l24 137l-42 5l43 241h495l-73 -413c-4 -22 -6 -39 -6 -54c0 -41 18 -57 67 -57c69 0 88 29 103 111l73 413h495l-43 -241l-45 -5l-35 -197
c-48 -269 -252 -316 -454 -325c-35 -10 -49 -21 -49 -36c0 -18 18 -19 42 -19c48 0 90 5 126 7z" />
    <glyph glyph-name="uogonek" unicode="&#x173;" horiz-adv-x="1069" 
d="M627 0l10 62c-61 -40 -163 -83 -315 -83c-180 0 -220 92 -220 189c0 38 6 76 12 110l16 90l-34 9l40 229h451l-58 -331c-5 -27 -6 -34 -6 -41c0 -22 10 -29 37 -29c24 0 64 13 66 14l26 149l-34 9l40 229h451l-65 -368l35 -9l-40 -229c-135 -20 -181 -35 -181 -61
c0 -18 18 -19 42 -19c48 0 90 5 126 7l-24 -136c-37 -5 -160 -27 -293 -27c-138 0 -210 27 -210 101c0 72 54 112 128 135z" />
    <glyph glyph-name="Wcircumflex" unicode="&#x174;" horiz-adv-x="1602" 
d="M1670 502l-56 -5l-194 -497h-484l-62 246c-8 34 -13 77 -12 102h-2c-10 -25 -27 -68 -47 -102l-148 -246h-484l-20 497l-53 5l43 241h436l-11 -249c-3 -66 -9 -110 -15 -149h2c22 43 36 68 58 107l85 150h371l30 -150c8 -39 16 -65 20 -107h2c8 39 19 83 40 149l77 249
h467zM1372 793h-346l-70 52l-89 -52h-361l218 142h483z" />
    <glyph glyph-name="wcircumflex" unicode="&#x175;" horiz-adv-x="1537" 
d="M1572 372l-60 -6l-165 -366h-484l-33 111c-12 41 -16 67 -16 105c0 15 1 31 2 50h-3c-20 -68 -35 -104 -67 -155l-70 -111h-486l-37 366l-58 6l41 234h412l-8 -214c-3 -85 -7 -122 -11 -157h2c11 35 31 86 74 159l60 100h371l23 -98c18 -75 19 -126 19 -161h2
c9 35 20 72 46 159l65 212h422zM1290 651h-346l-70 52l-89 -52h-361l218 142h483z" />
    <glyph glyph-name="Ycircumflex" unicode="&#x176;" horiz-adv-x="1014" 
d="M1072 502l-63 -5l-239 -257l-4 -19l42 -6l-37 -215h-541l37 215l58 6l4 19l-150 257l-61 5l43 241h337l50 -126c13 -32 20 -54 35 -93h4c21 32 42 62 66 93l97 126h365zM1056 793h-346l-70 52l-89 -52h-361l218 142h483z" />
    <glyph glyph-name="ycircumflex" unicode="&#x177;" horiz-adv-x="1002" 
d="M1043 375l-60 -6l-177 -326c-127 -234 -270 -248 -434 -248c-124 0 -247 3 -342 15l33 188c90 -2 109 -2 152 -2c23 0 29 4 34 17l5 12l-110 344l-53 6l40 231h383l15 -266c3 -53 5 -103 2 -156h2c17 54 35 103 56 156l105 266h389zM1051 651h-346l-70 52l-89 -52h-361
l218 142h483z" />
    <glyph glyph-name="Ydieresis" unicode="&#x178;" horiz-adv-x="1014" 
d="M1072 502l-63 -5l-239 -257l-4 -19l42 -6l-37 -215h-541l37 215l58 6l4 19l-150 257l-61 5l43 241h337l50 -126c13 -32 20 -54 35 -93h4c21 32 42 62 66 93l97 126h365zM984 793h-315l24 140h315zM592 793l24 140h-315l-24 -140h315z" />
    <glyph glyph-name="Zacute" unicode="&#x179;" horiz-adv-x="911" 
d="M881 0h-851l38 216l336 276h-65l-16 -36h-213l51 287h851l-38 -215l-339 -277h65l18 36h213zM1091 935l-310 -142h-391l218 142h483z" />
    <glyph glyph-name="zacute" unicode="&#x17a;" horiz-adv-x="834" 
d="M804 0h-774l30 171l312 218h-80l-16 -34h-181l44 251h768l-34 -195l-285 -197h63l15 29h180zM1026 793l-310 -142h-391l218 142h483z" />
    <glyph glyph-name="Zdotaccent" unicode="&#x17b;" horiz-adv-x="911" 
d="M881 0h-851l38 216l336 276h-65l-16 -36h-213l51 287h851l-38 -215l-339 -277h65l18 36h213zM831 792h-437l25 142h437z" />
    <glyph glyph-name="zdotaccent" unicode="&#x17c;" horiz-adv-x="834" 
d="M804 0h-774l30 171l312 218h-80l-16 -34h-181l44 251h768l-34 -195l-285 -197h63l15 29h180zM787 656h-437l25 142h437z" />
    <glyph glyph-name="Zcaron" unicode="&#x17d;" horiz-adv-x="911" 
d="M881 0h-851l38 216l336 276h-65l-16 -36h-213l51 287h851l-38 -215l-339 -277h65l18 36h213zM1058 935l-215 -142h-483l-168 142h348l71 -51l88 51h359z" />
    <glyph glyph-name="zcaron" unicode="&#x17e;" horiz-adv-x="834" 
d="M804 0h-774l30 171l312 218h-80l-16 -34h-181l44 251h768l-34 -195l-285 -197h63l15 29h180zM1008 793l-215 -142h-483l-168 142h348l71 -51l88 51h359z" />
    <glyph glyph-name="longs" unicode="&#x17f;" horiz-adv-x="641" 
d="M518 0h-488l41 234l38 4l66 371c32 182 186 201 340 201c88 0 173 -7 235 -19l-28 -161c-64 2 -75 2 -84 2c-32 0 -45 -4 -48 -23l-64 -371l33 -4z" />
    <glyph glyph-name="florin" unicode="&#x192;" horiz-adv-x="866" 
d="M902 750l-39 -160c-66 2 -73 2 -80 2c-32 0 -44 -4 -48 -21l-20 -78h121l-49 -202h-123l-71 -285c-37 -146 -169 -190 -326 -190c-119 0 -191 10 -252 20l39 160c63 -2 71 -2 78 -2c31 0 42 3 48 21l69 276h-98l49 202h99l22 86c37 146 167 191 326 191
c118 0 193 -11 255 -20z" />
    <glyph glyph-name="Aringacute" unicode="&#x1fa;" horiz-adv-x="1242" 
d="M1212 0h-472l-3 94h-202l-36 -94h-469l42 241l58 5l122 251l-54 5l43 241h895l60 -497l58 -5zM737 319l-10 185c-2 28 0 69 0 97h-2c-9 -29 -25 -69 -36 -97l-71 -185h119zM795 906c0 25 -27 35 -64 35c-39 0 -66 -10 -66 -35c0 -24 27 -34 66 -34c37 0 64 10 64 34z
M959 905c0 -95 -91 -147 -228 -147c-139 0 -231 52 -231 147s92 148 231 148c138 0 228 -53 228 -148z" />
    <glyph glyph-name="aringacute" unicode="&#x1fb;" horiz-adv-x="952" 
d="M922 0h-409l8 49c-74 -42 -187 -70 -277 -70c-94 0 -191 41 -191 154c0 12 1 26 6 55c30 174 212 174 465 174h10c2 7 3 14 3 17c0 19 -18 20 -93 20h-21l-19 -26h-232l36 200c99 25 243 53 388 53c199 0 360 -43 360 -205c0 -16 -2 -33 -5 -51l-24 -132l36 -5zM521 177
l8 49h-29c-31 0 -48 0 -52 -22c-1 -7 -2 -12 -2 -17c0 -16 12 -21 25 -21c21 0 39 6 50 11zM730 796c0 25 -27 35 -64 35c-39 0 -66 -10 -66 -35c0 -24 27 -34 66 -34c37 0 64 10 64 34zM894 795c0 -95 -91 -147 -228 -147c-139 0 -231 52 -231 147s92 148 231 148
c138 0 228 -53 228 -148zM1175 1099l-310 -142h-391l218 142h483z" />
    <glyph glyph-name="AEacute" unicode="&#x1fc;" horiz-adv-x="1544" 
d="M1514 0h-851l16 94h-125l-37 -94h-487l42 239l78 9l115 237l-50 2l46 256h1384l-43 -242h-226l-6 19h-153l-7 -41h358l-37 -212h-358l-8 -43h152l14 21h226zM719 319l49 282h-25c-11 -31 -25 -69 -36 -97l-71 -185h83zM1476 934l-310 -142h-391l218 142h483z" />
    <glyph glyph-name="aeacute" unicode="&#x1fd;" horiz-adv-x="1422" 
d="M1433 236h-504c-2 -10 -2 -14 -2 -18c0 -24 14 -29 88 -29c73 0 285 -1 355 -1l-33 -184c-90 -14 -252 -24 -409 -24c-120 0 -248 21 -316 79c-128 -75 -234 -79 -368 -79c-94 0 -191 40 -191 162c0 220 245 220 471 220h10c3 11 3 14 3 17c0 19 -18 20 -93 20h-21
l-19 -26h-232l36 200c99 25 243 53 388 53c84 0 159 -8 221 -28c68 19 148 28 238 28c341 0 390 -166 390 -273c0 -33 -2 -61 -12 -117zM1063 363c1 5 1 11 1 15c0 28 -16 38 -50 38s-56 -18 -62 -53h111zM518 177l8 49h-26c-31 0 -54 -5 -54 -39c0 -16 12 -21 25 -21
c21 0 36 6 47 11zM1308 793l-310 -142h-391l218 142h483z" />
    <glyph glyph-name="Oslashacute" unicode="&#x1fe;" horiz-adv-x="1108" 
d="M1164 934l-310 -142h-391l218 142h483zM1143 339c-58 -321 -305 -366 -584 -366c-107 0 -199 12 -273 38l-52 -40h-221l147 120c-48 51 -74 122 -74 216c0 29 3 59 10 98c55 316 304 365 583 365c103 0 194 -13 269 -40l54 42h221l-149 -121c50 -52 78 -123 78 -217
c0 -28 -2 -57 -9 -95zM701 369c6 36 9 60 9 80c0 45 -17 65 -66 65c-71 0 -89 -40 -106 -139c-6 -36 -9 -60 -9 -79c0 -51 20 -66 65 -66c62 0 87 29 107 139z" />
    <glyph glyph-name="oslashacute" unicode="&#x1ff;" horiz-adv-x="969" 
d="M1082 793l-310 -142h-391l218 142h483zM991 279c-38 -222 -229 -300 -512 -300c-67 0 -127 7 -179 20l-38 -27h-269l151 109c-45 44 -68 103 -68 174c0 20 2 41 7 70c40 223 231 301 510 301c71 0 134 -8 188 -22l43 29h271l-159 -114c40 -43 62 -99 62 -167
c0 -21 -2 -43 -7 -73zM578 299c5 27 6 42 6 54c0 31 -11 41 -32 41c-30 0 -47 -18 -60 -89c-4 -26 -6 -42 -6 -54c0 -32 11 -42 33 -42c29 0 47 19 59 90z" />
    <glyph glyph-name="Scommaaccent" unicode="&#x218;" horiz-adv-x="992" 
d="M1012 284c0 -285 -244 -311 -501 -311c-167 0 -335 7 -452 25l41 232h229l6 -29h149c59 0 71 4 73 17s-9 14 -97 22l-60 5c-157 13 -288 62 -288 223c0 292 244 302 546 302c151 0 300 -18 395 -33l-38 -217h-231l-6 31h-151c-55 0 -68 -3 -70 -16c-3 -14 14 -17 98 -26
l65 -7c205 -22 292 -91 292 -218zM760 -54l-151 -139h-364l106 139h409z" />
    <glyph glyph-name="scommaaccent" unicode="&#x219;" horiz-adv-x="826" 
d="M842 237c0 -257 -277 -257 -485 -257c-122 0 -237 12 -304 20l31 181h239l6 -23h55c29 0 48 0 48 15c0 10 -12 14 -46 18l-53 7c-145 20 -241 66 -241 181c0 234 222 247 431 247c141 0 276 -12 351 -22l-31 -176h-236l-6 23h-64c-30 0 -47 0 -47 -16
c0 -11 15 -14 49 -17l75 -7c164 -16 228 -75 228 -174zM664 -54l-176 -139h-365l134 139h407z" />
    <glyph glyph-name="uni021A" unicode="&#x21a;" horiz-adv-x="1021" 
d="M1073 466h-208l-9 41h-22l-46 -261l42 -5l-42 -241h-554l42 241l44 5l46 261h-23l-22 -41h-209l49 277h961zM725 -54l-151 -139h-364l106 139h409z" />
    <glyph glyph-name="uni021B" unicode="&#x21b;" horiz-adv-x="710" 
d="M669 -3c-12 -1 -98 -18 -218 -18c-164 0 -280 31 -280 196c0 21 3 44 7 69l25 139l-104 10l37 213h106l27 149h415l-27 -149h129l-39 -223h-129l-28 -157c-5 -30 -6 -37 33 -37c31 0 74 2 80 2zM606 -54l-151 -139h-364l106 139h409z" />
    <glyph glyph-name="circumflex" unicode="&#x2c6;" horiz-adv-x="926" 
d="M1010 651h-346l-70 52l-89 -52h-361l218 142h483z" />
    <glyph glyph-name="caron" unicode="&#x2c7;" horiz-adv-x="926" 
d="M1035 793l-215 -142h-483l-168 142h348l71 -51l88 51h359z" />
    <glyph glyph-name="uni02C9" unicode="&#x2c9;" horiz-adv-x="775" 
d="M859 651h-715l25 142h715z" />
    <glyph glyph-name="breve" unicode="&#x2d8;" horiz-adv-x="740" 
d="M853 841c-44 -195 -279 -195 -360 -195c-61 0 -312 0 -320 195h163c5 -69 104 -72 165 -72c72 0 164 6 191 72h161z" />
    <glyph glyph-name="dotaccent" unicode="&#x2d9;" horiz-adv-x="497" 
d="M581 651h-437l25 142h437z" />
    <glyph glyph-name="ring" unicode="&#x2da;" horiz-adv-x="519" 
d="M457 778c0 25 -27 35 -64 35c-39 0 -66 -10 -66 -35c0 -24 27 -34 66 -34c37 0 64 10 64 34zM621 777c0 -95 -91 -147 -228 -147c-139 0 -231 52 -231 147s92 148 231 148c138 0 228 -53 228 -148z" />
    <glyph glyph-name="ogonek" unicode="&#x2db;" horiz-adv-x="578" 
d="M509 -209c-37 -5 -160 -27 -293 -27c-138 0 -210 27 -210 101c0 134 205 156 332 170l208 -35c-135 -20 -181 -35 -181 -61c0 -18 18 -19 42 -19c48 0 90 5 126 7z" />
    <glyph glyph-name="tilde" unicode="&#x2dc;" horiz-adv-x="767" 
d="M884 835c-28 -185 -148 -193 -216 -193c-19 0 -67 1 -148 22l-85 22c-39 10 -66 16 -78 16c-27 0 -39 -10 -48 -57h-166c17 187 159 194 229 194c28 0 55 -2 132 -21l84 -21c40 -10 62 -17 87 -17c24 0 35 9 43 55h166z" />
    <glyph glyph-name="hungarumlaut" unicode="&#x2dd;" horiz-adv-x="1180" 
d="M1289 793l-311 -142h-324l218 142h417zM779 793h-418l-217 -142h324z" />
    <glyph glyph-name="uni037E" unicode="&#x37e;" horiz-adv-x="430" 
d="M444 254h-370l39 217h370z" />
    <glyph glyph-name="dieresisacute" unicode="&#x385;" horiz-adv-x="1138" 
d="M1223 653h-265l24 140h265zM974 793h-433l-122 -140h341zM410 653h-265l24 140h265z" />
    <glyph glyph-name="middot" unicode="&#x387;" horiz-adv-x="430" 
d="M444 254h-370l39 217h370z" />
    <glyph glyph-name="uni03A9" unicode="&#x3a9;" horiz-adv-x="1096" 
d="M1155 513c0 -166 -107 -279 -269 -314l-4 -22h197l-31 -177h-460l52 297c49 19 60 56 71 121c3 19 5 30 5 40c0 36 -18 56 -78 56c-78 0 -95 -32 -105 -90c-5 -32 -9 -53 -9 -71c0 -27 8 -45 35 -56l-52 -297h-460l31 177h197l4 22c-123 36 -171 128 -171 232
c0 300 310 339 575 339c336 0 472 -99 472 -257z" />
    <glyph glyph-name="uni03BC" unicode="&#x3bc;" horiz-adv-x="1069" 
d="M1039 0h-412l10 62c-48 -32 -101 -51 -157 -66l-34 -190h-450l40 229l37 6l57 327l-34 9l40 229h451l-58 -332c-5 -26 -6 -33 -6 -43c0 -19 10 -26 37 -26c24 0 64 13 66 14l26 149l-34 9l40 229h451l-65 -368l35 -9z" />
    <glyph glyph-name="pi" unicode="&#x3c0;" horiz-adv-x="1219" 
d="M1193 -17c-34 -3 -121 -3 -144 -3c-240 0 -336 56 -336 240v108h-107v-328h-415v329h-65v277h1067v-277h-65v-119c0 -25 7 -35 31 -35h34v-192z" />
    <glyph glyph-name="Wgrave" unicode="&#x1e80;" horiz-adv-x="1602" 
d="M1670 502l-56 -5l-194 -497h-484l-62 246c-8 34 -13 77 -12 102h-2c-10 -25 -27 -68 -47 -102l-148 -246h-484l-20 497l-53 5l43 241h436l-11 -249c-3 -66 -9 -110 -15 -149h2c22 43 36 68 58 107l85 150h371l30 -150c8 -39 16 -65 20 -107h2c8 39 19 83 40 149l77 249
h467zM1143 793h-391l-260 142h484z" />
    <glyph glyph-name="wgrave" unicode="&#x1e81;" horiz-adv-x="1537" 
d="M1572 372l-60 -6l-165 -366h-484l-33 111c-12 41 -16 67 -16 105c0 15 1 31 2 50h-3c-20 -68 -35 -104 -67 -155l-70 -111h-486l-37 366l-58 6l41 234h412l-8 -214c-3 -85 -7 -122 -11 -157h2c11 35 31 86 74 159l60 100h371l23 -98c18 -75 19 -126 19 -161h2
c9 35 20 72 46 159l65 212h422zM1076 651h-391l-260 142h484z" />
    <glyph glyph-name="Wacute" unicode="&#x1e82;" horiz-adv-x="1602" 
d="M1670 502l-56 -5l-194 -497h-484l-62 246c-8 34 -13 77 -12 102h-2c-10 -25 -27 -68 -47 -102l-148 -246h-484l-20 497l-53 5l43 241h436l-11 -249c-3 -66 -9 -110 -15 -149h2c22 43 36 68 58 107l85 150h371l30 -150c8 -39 16 -65 20 -107h2c8 39 19 83 40 149l77 249
h467zM1436 934l-310 -142h-391l218 142h483z" />
    <glyph glyph-name="wacute" unicode="&#x1e83;" horiz-adv-x="1537" 
d="M1572 372l-60 -6l-165 -366h-484l-33 111c-12 41 -16 67 -16 105c0 15 1 31 2 50h-3c-20 -68 -35 -104 -67 -155l-70 -111h-486l-37 366l-58 6l41 234h412l-8 -214c-3 -85 -7 -122 -11 -157h2c11 35 31 86 74 159l60 100h371l23 -98c18 -75 19 -126 19 -161h2
c9 35 20 72 46 159l65 212h422zM1357 793l-310 -142h-391l218 142h483z" />
    <glyph glyph-name="Wdieresis" unicode="&#x1e84;" horiz-adv-x="1602" 
d="M1670 502l-56 -5l-194 -497h-484l-62 246c-8 34 -13 77 -12 102h-2c-10 -25 -27 -68 -47 -102l-148 -246h-484l-20 497l-53 5l43 241h436l-11 -249c-3 -66 -9 -110 -15 -149h2c22 43 36 68 58 107l85 150h371l30 -150c8 -39 16 -65 20 -107h2c8 39 19 83 40 149l77 249
h467zM1294 793h-315l24 140h315zM902 793l24 140h-315l-24 -140h315z" />
    <glyph glyph-name="wdieresis" unicode="&#x1e85;" horiz-adv-x="1537" 
d="M1572 372l-60 -6l-165 -366h-484l-33 111c-12 41 -16 67 -16 105c0 15 1 31 2 50h-3c-20 -68 -35 -104 -67 -155l-70 -111h-486l-37 366l-58 6l41 234h412l-8 -214c-3 -85 -7 -122 -11 -157h2c11 35 31 86 74 159l60 100h371l23 -98c18 -75 19 -126 19 -161h2
c9 35 20 72 46 159l65 212h422zM1208 652h-315l24 140h315zM816 652l24 140h-315l-24 -140h315z" />
    <glyph glyph-name="Ygrave" unicode="&#x1ef2;" horiz-adv-x="1014" 
d="M1072 502l-63 -5l-239 -257l-4 -19l42 -6l-37 -215h-541l37 215l58 6l4 19l-150 257l-61 5l43 241h337l50 -126c13 -32 20 -54 35 -93h4c21 32 42 62 66 93l97 126h365zM874 793h-391l-260 142h484z" />
    <glyph glyph-name="ygrave" unicode="&#x1ef3;" horiz-adv-x="1002" 
d="M1043 375l-60 -6l-177 -326c-127 -234 -270 -248 -434 -248c-124 0 -247 3 -342 15l33 188c90 -2 109 -2 152 -2c23 0 29 4 34 17l5 12l-110 344l-53 6l40 231h383l15 -266c3 -53 5 -103 2 -156h2c17 54 35 103 56 156l105 266h389zM832 651h-391l-260 142h484z" />
    <glyph glyph-name="dieresisgrave" unicode="&#x1fed;" horiz-adv-x="1138" 
d="M1223 653h-265l24 140h265zM949 653l-74 140h-433l166 -140h341zM410 653h-265l24 140h265z" />
    <glyph glyph-name="figuredash" unicode="&#x2012;" horiz-adv-x="764" 
d="M760 149h-704l31 178h704z" />
    <glyph glyph-name="endash" unicode="&#x2013;" horiz-adv-x="506" 
d="M509 189h-446l38 219h446z" />
    <glyph glyph-name="emdash" unicode="&#x2014;" horiz-adv-x="703" 
d="M706 189h-643l38 219h643z" />
    <glyph glyph-name="threequartersemdash" unicode="&#x2015;" horiz-adv-x="504" 
d="M500 149h-444l31 178h444z" />
    <glyph glyph-name="quoteleft" unicode="&#x2018;" horiz-adv-x="494" 
d="M603 793l-170 -309h-318l225 309h263z" />
    <glyph glyph-name="quoteright" unicode="&#x2019;" horiz-adv-x="494" 
d="M603 793l-225 -309h-263l169 309h319z" />
    <glyph glyph-name="quotesinglbase" unicode="&#x201a;" horiz-adv-x="494" 
d="M498 195l-226 -310h-263l170 310h319z" />
    <glyph glyph-name="quotedblleft" unicode="&#x201c;" horiz-adv-x="895" 
d="M1004 793l-170 -309h-319l226 309h263zM603 793l-170 -309h-318l225 309h263z" />
    <glyph glyph-name="quotedblright" unicode="&#x201d;" horiz-adv-x="895" 
d="M1004 793l-226 -309h-263l170 309h319zM603 793l-225 -309h-263l169 309h319z" />
    <glyph glyph-name="quotedblbase" unicode="&#x201e;" horiz-adv-x="895" 
d="M899 195l-227 -310h-263l171 310h319zM498 195h-319l-170 -310h263z" />
    <glyph glyph-name="dagger" unicode="&#x2020;" horiz-adv-x="780" 
d="M819 395h-152l-92 -525h-415l92 525h-153l41 229h153l28 163h415l-28 -163h152z" />
    <glyph glyph-name="daggerdbl" unicode="&#x2021;" horiz-adv-x="780" 
d="M770 116h-152l-43 -246h-415l43 246h-153l40 229h153l18 103h-153l41 229h153l20 116h415l-20 -116h152l-41 -229h-152l-18 -103h152z" />
    <glyph glyph-name="bullet" unicode="&#x2022;" horiz-adv-x="539" 
d="M580 363c0 -119 -107 -215 -240 -215c-131 0 -239 96 -239 215c0 121 108 217 239 217c133 0 240 -96 240 -217z" />
    <glyph glyph-name="onedotenleader" unicode="&#x2024;" horiz-adv-x="482" 
d="M452 0h-422l38 217h422z" />
    <glyph glyph-name="twodotenleader" unicode="&#x2025;" horiz-adv-x="1039" 
d="M1009 0h-422l38 217h422zM452 0l38 217h-422l-38 -217h422z" />
    <glyph glyph-name="ellipsis" unicode="&#x2026;" horiz-adv-x="1524" 
d="M1494 0h-422l38 217h422zM973 0l38 217h-422l-38 -217h422zM452 0h-422l38 217h422z" />
    <glyph glyph-name="perthousand" unicode="&#x2030;" horiz-adv-x="2340" 
d="M1513 754l-918 -754h-310l919 754h309zM740 576c0 -215 -147 -282 -354 -282c-167 0 -269 55 -269 192c0 216 144 284 353 284c167 0 270 -55 270 -194zM455 530c6 32 9 53 9 67c0 21 -7 25 -20 25c-21 0 -28 -12 -41 -88c-6 -35 -9 -55 -9 -68c0 -19 6 -24 18 -24
c22 0 30 13 43 88zM1695 269c0 -215 -147 -282 -354 -282c-167 0 -269 55 -269 192c0 216 144 284 353 284c167 0 270 -55 270 -194zM1410 223c6 32 9 53 9 67c0 21 -7 25 -20 25c-21 0 -28 -12 -41 -88c-6 -35 -9 -55 -9 -68c0 -19 6 -24 18 -24c22 0 30 13 43 88z
M2356 269c0 -215 -147 -282 -354 -282c-167 0 -269 55 -269 192c0 216 144 284 353 284c167 0 270 -55 270 -194zM2071 223c6 32 9 53 9 67c0 21 -7 25 -20 25c-21 0 -28 -12 -41 -88c-6 -35 -9 -55 -9 -68c0 -19 6 -24 18 -24c22 0 30 13 43 88z" />
    <glyph glyph-name="guilsinglleft" unicode="&#x2039;" horiz-adv-x="617" 
d="M596 53h-399l-115 245l201 245h399l-188 -245z" />
    <glyph glyph-name="guilsinglright" unicode="&#x203a;" horiz-adv-x="617" 
d="M639 298l-200 -245h-400l189 245l-103 245h400z" />
    <glyph glyph-name="exclamdbl" unicode="&#x203c;" horiz-adv-x="995" 
d="M946 0h-398l37 213h398zM673 793h431l-127 -527h-367zM479 213l-37 -213h-398l37 213h398zM600 793l-127 -527h-367l63 527h431z" />
    <glyph glyph-name="overscore" unicode="&#x203e;" horiz-adv-x="983" 
d="M1096 814h-923l23 131h923z" />
    <glyph glyph-name="fraction" unicode="&#x2044;" horiz-adv-x="1157" 
d="M1259 754l-919 -754h-310l920 754h309z" />
    <glyph glyph-name="zero.superior" unicode="&#x2070;" horiz-adv-x="672" 
d="M734 513c-32 -181 -159 -227 -349 -227c-167 0 -269 51 -269 187c0 18 2 39 6 62c32 181 158 227 347 227c168 0 271 -52 271 -188c0 -18 -2 -38 -6 -61zM455 522c5 31 8 52 8 66c0 22 -7 26 -20 26c-20 0 -28 -12 -42 -88c-6 -31 -8 -52 -8 -66c0 -21 6 -25 18 -25
c22 0 30 12 44 87z" />
    <glyph glyph-name="i.superior" unicode="&#x2071;" horiz-adv-x="353" 
d="M378 317h-293l25 140l23 3l13 78l-21 2l25 141h271l-39 -221l21 -3zM430 700h-262l16 93h262z" />
    <glyph glyph-name="four.superior" unicode="&#x2074;" horiz-adv-x="678" 
d="M713 373h-63l-4 -23l26 -3l-9 -47h-329l9 47l27 3l4 23h-279l21 117l407 256h193l-43 -243h63zM416 503l13 73l-110 -73h97z" />
    <glyph glyph-name="five.superior" unicode="&#x2075;" horiz-adv-x="614" 
d="M667 476c0 -168 -151 -192 -307 -192c-122 0 -213 11 -271 28l23 133h139l1 -25c17 -1 30 -1 36 -1c53 0 91 0 91 23c0 17 -11 19 -71 19h-197l83 285h507l-27 -152h-140v14h-152l-4 -18h22c209 0 267 -35 267 -114z" />
    <glyph glyph-name="six.superior" unicode="&#x2076;" horiz-adv-x="642" 
d="M123 538c16 104 53 224 322 224c115 0 216 -17 261 -28l-23 -129h-140l-1 16c-27 1 -55 2 -79 2c-43 0 -53 0 -57 -25l-1 -5c16 3 47 4 56 4c151 0 234 -31 234 -122c0 -10 -1 -20 -4 -36c-18 -102 -100 -155 -317 -155c-220 0 -259 89 -259 173c0 24 3 47 8 81zM423 449
c2 10 2 16 2 21c0 9 -3 13 -17 13c-9 0 -22 -2 -23 -2l-5 -29c-1 -7 -2 -14 -2 -19c0 -11 4 -18 18 -18c21 0 24 17 27 34z" />
    <glyph glyph-name="seven.superior" unicode="&#x2077;" horiz-adv-x="645" 
d="M721 602l-348 -302h-291l354 308h-123l-9 -25h-140l29 163h553z" />
    <glyph glyph-name="eight.superior" unicode="&#x2078;" horiz-adv-x="676" 
d="M724 450c0 -155 -204 -166 -332 -166h-7c-206 0 -281 39 -281 117c0 55 27 97 80 123c-26 17 -47 41 -47 82c0 147 203 156 332 156h7c206 0 283 -41 283 -111c0 -61 -30 -100 -82 -127c33 -18 47 -45 47 -74zM457 437c1 6 1 9 1 12c0 15 -9 24 -33 24h-7
c-28 0 -40 -13 -44 -36c-1 -3 -1 -6 -1 -9c0 -15 9 -24 33 -24h7c28 0 40 13 44 33zM485 611l1 3c0 2 1 4 1 6c0 12 -8 20 -33 20h-7c-29 0 -37 -11 -40 -26l-1 -3v-5c0 -12 7 -21 32 -21h7c29 0 38 11 40 26z" />
    <glyph glyph-name="nine.superior" unicode="&#x2079;" horiz-adv-x="642" 
d="M702 508c-16 -104 -53 -224 -322 -224c-115 0 -216 17 -261 28l23 129h140l1 -16c27 -1 55 -2 79 -2c43 0 53 0 57 25l1 5c-16 -3 -47 -4 -56 -4c-151 0 -234 31 -234 122c0 10 1 20 4 36c18 102 100 155 317 155c220 0 259 -89 259 -173c0 -24 -3 -47 -8 -81zM402 597
c-2 -10 -2 -16 -2 -21c0 -9 3 -13 17 -13c9 0 22 2 23 2l5 29c1 7 2 14 2 19c0 11 -4 18 -18 18c-21 0 -24 -17 -27 -34z" />
    <glyph glyph-name="parenleft.superior" unicode="&#x207d;" horiz-adv-x="353" 
d="M364 269h-196c-30 42 -54 113 -54 196c0 108 45 221 135 309h210c-81 -93 -125 -217 -125 -318c0 -80 10 -141 30 -187z" />
    <glyph glyph-name="parenright.superior" unicode="&#x207e;" horiz-adv-x="353" 
d="M171 774h196c30 -42 54 -113 54 -196c0 -108 -45 -221 -135 -309h-210c81 93 125 217 125 318c0 80 -10 141 -30 187z" />
    <glyph glyph-name="n.superior" unicode="&#x207f;" horiz-adv-x="666" 
d="M691 317h-271l37 209c1 6 2 11 2 15c0 13 -6 17 -21 17s-39 -8 -41 -9l-15 -89l20 -3l-25 -140h-292l25 140l23 3l13 78l-21 2l25 141h248l-7 -38c49 33 112 50 164 50c131 0 158 -49 158 -104c0 -21 -3 -43 -7 -63l-11 -66l21 -3z" />
    <glyph glyph-name="zero.inferior" unicode="&#x2080;" horiz-adv-x="676" 
d="M681 211c-32 -181 -159 -227 -349 -227c-167 0 -269 51 -269 187c0 18 2 39 6 62c32 181 158 227 347 227c168 0 271 -52 271 -188c0 -18 -2 -38 -6 -61zM402 220c5 31 8 52 8 66c0 22 -7 26 -20 26c-20 0 -28 -12 -42 -88c-6 -31 -8 -52 -8 -66c0 -21 6 -25 18 -25
c22 0 30 12 44 87z" />
    <glyph glyph-name="one.inferior" unicode="&#x2081;" horiz-adv-x="451" 
d="M421 0h-391l26 145l58 6l21 121l-59 -15l24 140l148 49h195l-52 -295l56 -6z" />
    <glyph glyph-name="two.inferior" unicode="&#x2082;" horiz-adv-x="631" 
d="M588 0h-559l10 53c23 131 102 186 227 222c86 25 105 27 105 40c0 8 -6 11 -55 11c-13 0 -41 0 -76 -2l-6 -22h-144l22 128c105 27 219 32 286 32c192 0 261 -48 261 -129c0 -119 -110 -140 -228 -158c-94 -14 -102 -18 -103 -26h140l7 24h144z" />
    <glyph glyph-name="three.inferior" unicode="&#x2083;" horiz-adv-x="626" 
d="M622 141c0 -157 -184 -157 -313 -157c-111 0 -228 17 -275 36l22 128h144l-1 -21c35 -2 70 -2 96 -2c30 0 55 0 55 19c0 14 -12 15 -66 15h-155l22 125h157c35 0 70 0 70 25c0 10 -9 14 -47 14c-31 0 -65 -1 -98 -2l-6 -20h-144l22 124c62 20 177 37 288 37
c139 0 264 -19 264 -124c0 -49 -29 -87 -79 -112c38 -23 44 -57 44 -85z" />
    <glyph glyph-name="four.inferior" unicode="&#x2084;" horiz-adv-x="678" 
d="M660 73h-63l-4 -23l26 -3l-9 -47h-329l9 47l27 3l4 23h-279l21 117l407 256h193l-43 -243h63zM363 203l13 73l-110 -73h97z" />
    <glyph glyph-name="five.inferior" unicode="&#x2085;" horiz-adv-x="614" 
d="M614 176c0 -168 -151 -192 -307 -192c-122 0 -213 11 -271 28l23 133h139l1 -25c17 -1 30 -1 36 -1c53 0 91 0 91 23c0 17 -11 19 -71 19h-197l83 285h507l-27 -152h-140v14h-152l-4 -18h22c209 0 267 -35 267 -114z" />
    <glyph glyph-name="six.inferior" unicode="&#x2086;" horiz-adv-x="642" 
d="M70 238c16 104 53 224 322 224c115 0 216 -17 261 -28l-23 -129h-140l-1 16c-27 1 -55 2 -79 2c-43 0 -53 0 -57 -25l-1 -5c16 3 47 4 56 4c151 0 234 -31 234 -122c0 -10 -1 -20 -4 -36c-18 -102 -100 -155 -317 -155c-220 0 -259 89 -259 173c0 24 3 47 8 81zM370 149
c2 10 2 16 2 21c0 9 -3 13 -17 13c-9 0 -22 -2 -23 -2l-5 -29c-1 -7 -2 -14 -2 -19c0 -11 4 -18 18 -18c21 0 24 17 27 34z" />
    <glyph glyph-name="seven.inferior" unicode="&#x2087;" horiz-adv-x="645" 
d="M668 302l-348 -302h-291l354 308h-123l-9 -25h-140l29 163h553z" />
    <glyph glyph-name="eight.inferior" unicode="&#x2088;" horiz-adv-x="676" 
d="M671 150c0 -155 -204 -166 -332 -166h-7c-206 0 -281 39 -281 117c0 55 27 97 80 123c-26 17 -47 41 -47 82c0 147 203 156 332 156h7c206 0 283 -41 283 -111c0 -61 -30 -100 -82 -127c33 -18 47 -45 47 -74zM404 137c1 6 1 9 1 12c0 15 -9 24 -33 24h-7
c-28 0 -40 -13 -44 -36c-1 -3 -1 -6 -1 -9c0 -15 9 -24 33 -24h7c28 0 40 13 44 33zM432 311l1 3c0 2 1 4 1 6c0 12 -8 20 -33 20h-7c-29 0 -37 -11 -40 -26l-1 -3v-5c0 -12 7 -21 32 -21h7c29 0 38 11 40 26z" />
    <glyph glyph-name="nine.inferior" unicode="&#x2089;" horiz-adv-x="642" 
d="M649 207c-16 -104 -53 -224 -322 -224c-115 0 -216 17 -261 28l23 129h140l1 -16c27 -1 55 -2 79 -2c43 0 53 0 57 25l1 5c-16 -3 -47 -4 -56 -4c-151 0 -234 31 -234 122c0 10 1 20 4 36c18 102 100 155 317 155c220 0 259 -89 259 -173c0 -24 -3 -47 -8 -81zM349 296
c-2 -10 -2 -16 -2 -21c0 -9 3 -13 17 -13c9 0 22 2 23 2l5 29c1 7 2 14 2 19c0 11 -4 18 -18 18c-21 0 -24 -17 -27 -34z" />
    <glyph glyph-name="parenleft.inferior" unicode="&#x208d;" horiz-adv-x="353" 
d="M308 -51h-196c-30 42 -54 113 -54 196c0 108 45 221 135 309h210c-81 -93 -125 -217 -125 -318c0 -80 10 -141 30 -187z" />
    <glyph glyph-name="parenright.inferior" unicode="&#x208e;" horiz-adv-x="353" 
d="M116 454h196c30 -42 54 -113 54 -196c0 -108 -45 -221 -135 -309h-210c81 93 125 217 125 318c0 80 -10 141 -30 187z" />
    <glyph glyph-name="colonmonetary" unicode="&#x20a1;" horiz-adv-x="792" 
d="M762 4c-25 -7 -67 -12 -117 -16l-25 -145h-171l24 137c-19 -1 -37 -1 -54 -1c-16 0 -31 1 -45 2l-24 -138h-171l30 173c-90 42 -133 129 -133 232c0 23 2 46 8 80c23 131 98 210 226 260l31 172h171l-24 -136c14 1 29 2 45 2c18 0 36 0 54 -1l24 135h171l-26 -144
c51 -5 91 -11 111 -15l-43 -246h-200l-4 34h-17c-82 0 -96 -4 -110 -81c-5 -27 -7 -41 -7 -52c0 -38 22 -41 86 -41h227z" />
    <glyph glyph-name="franc" unicode="&#x20a3;" horiz-adv-x="959" 
d="M973 254h-389l-6 -34h84l-19 -112h-84l-19 -108h-466l19 108h-44l19 112h44l50 284l-42 5l42 234h898l-44 -248h-230l-6 19h-150l-7 -40h389z" />
    <glyph glyph-name="lira" unicode="&#x20a4;" horiz-adv-x="939" 
d="M909 0h-834l33 189c43 25 62 41 68 74l2 12h-100l14 82h100l9 46h-100l14 82h100l2 9c36 206 203 282 471 282c121 0 234 -8 353 -22l-41 -237h-213l-6 27h-26c-89 0 -89 -2 -97 -50l-2 -9h195l-14 -82h-195l-9 -46h195l-14 -82h-195l-2 -12c-2 -10 -4 -16 -11 -30h344z
" />
    <glyph glyph-name="peseta" unicode="&#x20a7;" horiz-adv-x="1201" 
d="M1242 405h-68c-74 -198 -315 -216 -549 -216c-31 0 -39 1 -89 3l-33 -192h-473l42 241l44 5l28 159h-43l27 152h43l10 60l-42 5l22 121c137 16 388 27 502 27c294 0 515 -32 529 -213h77zM653 440c52 0 113 0 113 47c0 39 -40 39 -97 39c-29 0 -64 -2 -74 -3l-15 -81
c16 -1 45 -2 73 -2z" />
    <glyph glyph-name="Euro" unicode="&#x20ac;" horiz-adv-x="928" 
d="M898 2c-62 -17 -193 -29 -254 -29c-341 0 -477 93 -485 296h-82l13 72h72c3 19 6 38 10 57h-72l12 71h72c57 230 206 301 542 301c119 0 246 -12 302 -29l-43 -244h-220l-1 15h-15c-68 0 -84 -10 -94 -43h320l-36 -71h-296c-4 -19 -7 -38 -10 -57h276l-38 -72h-251v-3
c0 -36 17 -36 125 -36c62 0 139 5 195 11z" />
    <glyph glyph-name="litre" unicode="&#x2113;" horiz-adv-x="793" 
d="M692 669c0 20 -11 37 -56 37c-63 0 -69 -50 -69 -122v-59c87 45 125 90 125 144zM803 46c-74 -30 -173 -66 -332 -66c-213 0 -319 60 -319 262v24l-49 -17l-31 87l80 30v218c0 164 105 219 359 219c212 0 294 -26 294 -133c0 -91 -82 -167 -238 -243v-185
c0 -68 34 -75 72 -75c31 0 68 10 103 21z" />
    <glyph glyph-name="afii61352" unicode="&#x2116;" horiz-adv-x="2176" 
d="M2145 0h-909l18 104h909zM2231 489c0 -287 -245 -367 -501 -367c-260 0 -422 100 -422 281c0 285 244 366 487 366c274 0 436 -98 436 -280zM1752 352c53 0 65 100 65 143c0 33 -12 42 -33 42c-55 0 -66 -97 -66 -141c0 -33 12 -44 34 -44zM1296 502l-44 -5l-87 -497
h-390l-195 208c-14 14 -33 36 -45 50h-3c-3 -26 -8 -56 -13 -83l-30 -175h-459l42 241l46 5l44 251l-44 5l43 241h423l204 -218c12 -13 34 -35 45 -49h2c3 28 8 55 13 80l33 187h458z" />
    <glyph glyph-name="trademark" unicode="&#x2122;" horiz-adv-x="1279" 
d="M1307 342h-252l21 123c3 19 8 40 12 58h-1c-12 -11 -29 -24 -41 -35l-62 -50h-61l-44 50c-11 11 -22 24 -30 35h-1c-2 -18 -6 -39 -9 -58l-21 -123h-255l16 91l42 5l35 201l-40 6l16 91h219l94 -106c10 -11 20 -25 29 -36h1c13 11 28 25 42 36l130 106h231l-16 -91
l-42 -6l-35 -201l38 -5zM588 595h-92l-3 24h-13l-32 -181l36 -5l-16 -91h-302l16 91l40 5l32 181h-15l-13 -24h-92l25 141h454z" />
    <glyph glyph-name="Omega" unicode="&#x2126;" horiz-adv-x="1096" 
d="M1155 513c0 -166 -107 -279 -269 -314l-4 -22h197l-31 -177h-460l52 297c49 19 60 56 71 121c3 19 5 30 5 40c0 36 -18 56 -78 56c-78 0 -95 -32 -105 -90c-5 -32 -9 -53 -9 -71c0 -27 8 -45 35 -56l-52 -297h-460l31 177h197l4 22c-123 36 -171 128 -171 232
c0 300 310 339 575 339c336 0 472 -99 472 -257z" />
    <glyph glyph-name="estimated" unicode="&#x212e;" horiz-adv-x="669" 
d="M566 315v163c-41 33 -106 62 -171 62c-67 0 -128 -21 -172 -62v-163h343zM699 282h-476v-193c46 -40 101 -63 168 -63c124 0 184 59 233 127l34 -19c-57 -81 -128 -141 -267 -141c-181 0 -301 133 -301 290c0 159 115 290 305 290c189 0 304 -134 304 -291z" />
    <glyph glyph-name="onethird" unicode="&#x2153;" horiz-adv-x="1585" 
d="M1394 754l-919 -754h-310l920 754h309zM473 300h-391l26 145l58 6l21 121l-59 -15l24 140l148 49h195l-52 -295l56 -6zM1581 141c0 -157 -184 -157 -313 -157c-111 0 -228 17 -275 36l22 128h144l-1 -21c35 -2 70 -2 96 -2c30 0 55 0 55 19c0 14 -12 15 -66 15h-155
l22 125h157c35 0 70 0 70 25c0 10 -9 14 -47 14c-31 0 -65 -1 -98 -2l-6 -20h-144l22 124c62 20 177 37 288 37c139 0 264 -19 264 -124c0 -49 -29 -87 -79 -112c38 -23 44 -57 44 -85z" />
    <glyph glyph-name="twothirds" unicode="&#x2154;" horiz-adv-x="1765" 
d="M1574 754l-919 -754h-310l920 754h309zM641 300h-559l10 53c23 131 102 186 227 222c86 25 105 27 105 40c0 8 -6 11 -55 11c-13 0 -41 0 -76 -2l-6 -22h-144l22 128c105 27 219 32 286 32c192 0 261 -48 261 -129c0 -119 -110 -140 -228 -158c-94 -14 -102 -18 -103 -26
h140l7 24h144zM1757 129c-18 -106 -107 -145 -310 -145c-111 0 -228 17 -275 36l23 128h144l-2 -21c36 -2 71 -2 97 -2c43 0 51 5 54 17v1c2 15 -7 16 -65 16h-155l22 125h157c53 0 67 6 69 20v1c2 12 -4 18 -47 18c-31 0 -65 -1 -98 -2l-5 -20h-144l21 124
c62 20 177 37 288 37c149 0 282 -19 262 -130l-1 -5c-5 -27 -24 -79 -76 -101c48 -19 46 -72 42 -92z" />
    <glyph glyph-name="oneeighth" unicode="&#x215b;" horiz-adv-x="1599" 
d="M1394 754l-919 -754h-310l920 754h309zM473 300h-391l26 145l58 6l21 121l-59 -15l24 140l148 49h195l-52 -295l56 -6zM1593 150c0 -155 -204 -166 -332 -166h-7c-206 0 -281 39 -281 117c0 55 27 97 80 123c-26 17 -47 41 -47 82c0 147 203 156 332 156h7
c206 0 283 -41 283 -111c0 -61 -30 -100 -82 -127c33 -18 47 -45 47 -74zM1326 137c1 6 1 9 1 12c0 15 -9 24 -33 24h-7c-28 0 -40 -13 -44 -36c-1 -3 -1 -6 -1 -9c0 -15 9 -24 33 -24h7c28 0 40 13 44 33zM1354 311l1 3c0 2 1 4 1 6c0 12 -8 20 -33 20h-7
c-29 0 -37 -11 -40 -26l-1 -3v-5c0 -12 7 -21 32 -21h7c29 0 38 11 40 26z" />
    <glyph glyph-name="threeeighths" unicode="&#x215c;" horiz-adv-x="1723" 
d="M1518 754l-919 -754h-310l920 754h309zM674 441c0 -157 -184 -157 -313 -157c-111 0 -228 17 -275 36l22 128h144l-1 -21c35 -2 70 -2 96 -2c30 0 55 0 55 19c0 14 -12 15 -66 15h-155l22 125h157c35 0 70 0 70 25c0 10 -9 14 -47 14c-31 0 -65 -1 -98 -2l-6 -20h-144
l22 124c62 20 177 37 288 37c139 0 264 -19 264 -124c0 -49 -29 -87 -79 -112c38 -23 44 -57 44 -85zM1718 150c0 -155 -204 -166 -332 -166h-7c-206 0 -281 39 -281 117c0 55 27 97 80 123c-26 17 -47 41 -47 82c0 147 203 156 332 156h7c206 0 283 -41 283 -111
c0 -61 -30 -100 -82 -127c33 -18 47 -45 47 -74zM1451 137c1 6 1 9 1 12c0 15 -9 24 -33 24h-7c-28 0 -40 -13 -44 -36c-1 -3 -1 -6 -1 -9c0 -15 9 -24 33 -24h7c28 0 40 13 44 33zM1479 311l1 3c0 2 1 4 1 6c0 12 -8 20 -33 20h-7c-29 0 -37 -11 -40 -26l-1 -3v-5
c0 -12 7 -21 32 -21h7c29 0 38 11 40 26z" />
    <glyph glyph-name="fiveeighths" unicode="&#x215d;" horiz-adv-x="1716" 
d="M1511 754l-919 -754h-310l920 754h309zM667 476c0 -168 -151 -192 -307 -192c-122 0 -213 11 -271 28l23 133h139l1 -25c17 -1 30 -1 36 -1c53 0 91 0 91 23c0 17 -11 19 -71 19h-197l83 285h507l-27 -152h-140v14h-152l-4 -18h22c209 0 267 -35 267 -114zM1711 150
c0 -155 -204 -166 -332 -166h-7c-206 0 -281 39 -281 117c0 55 27 97 80 123c-26 17 -47 41 -47 82c0 147 203 156 332 156h7c206 0 283 -41 283 -111c0 -61 -30 -100 -82 -127c33 -18 47 -45 47 -74zM1444 137c1 6 1 9 1 12c0 15 -9 24 -33 24h-7c-28 0 -40 -13 -44 -36
c-1 -3 -1 -6 -1 -9c0 -15 9 -24 33 -24h7c28 0 40 13 44 33zM1472 311l1 3c0 2 1 4 1 6c0 12 -8 20 -33 20h-7c-29 0 -37 -11 -40 -26l-1 -3v-5c0 -12 7 -21 32 -21h7c29 0 38 11 40 26z" />
    <glyph glyph-name="seveneighths" unicode="&#x215e;" horiz-adv-x="1579" 
d="M1374 754l-919 -754h-310l920 754h309zM721 602l-348 -302h-291l354 308h-123l-9 -25h-140l29 163h553zM1573 150c0 -155 -204 -166 -332 -166h-7c-206 0 -281 39 -281 117c0 55 27 97 80 123c-26 17 -47 41 -47 82c0 147 203 156 332 156h7c206 0 283 -41 283 -111
c0 -61 -30 -100 -82 -127c33 -18 47 -45 47 -74zM1306 137c1 6 1 9 1 12c0 15 -9 24 -33 24h-7c-28 0 -40 -13 -44 -36c-1 -3 -1 -6 -1 -9c0 -15 9 -24 33 -24h7c28 0 40 13 44 33zM1334 311l1 3c0 2 1 4 1 6c0 12 -8 20 -33 20h-7c-29 0 -37 -11 -40 -26l-1 -3v-5
c0 -12 7 -21 32 -21h7c29 0 38 11 40 26z" />
    <glyph glyph-name="partialdiff" unicode="&#x2202;" horiz-adv-x="983" 
d="M595 319c0 31 -12 42 -37 42c-30 0 -52 -28 -56 -65c-3 -8 -3 -22 -3 -38c0 -36 11 -49 35 -49c23 0 43 26 53 50c5 16 8 37 8 60zM1013 423c0 -70 -9 -134 -30 -189c-57 -150 -209 -255 -474 -255c-286 0 -419 127 -419 306c0 38 2 70 9 97c42 173 231 212 452 212
c10 0 52 0 94 -9c-6 11 -15 24 -25 32c-38 33 -111 50 -225 50c-52 0 -115 -5 -188 -18l18 164c86 17 168 27 245 27c314 0 543 -147 543 -417z" />
    <glyph glyph-name="Delta" unicode="&#x2206;" horiz-adv-x="1263" 
d="M1233 0h-1203l344 743h773zM744 225l-6 279c-1 28 0 69 -1 97h-2c-9 -28 -25 -69 -36 -97l-106 -279h151z" />
    <glyph glyph-name="product" unicode="&#x220f;" horiz-adv-x="1173" 
d="M1209 467h-68v-579h-413v578h-103v-578h-413v579h-67v276h1064v-276z" />
    <glyph glyph-name="summation" unicode="&#x2211;" horiz-adv-x="989" 
d="M992 -112h-854v230l236 200l-236 195v230h854v-229h-388l169 -140v-114l-169 -142h388v-230z" />
    <glyph glyph-name="minus" unicode="&#x2212;" horiz-adv-x="800" 
d="M834 240h-744v257h744v-257z" />
    <glyph glyph-name="uni2215" unicode="&#x2215;" horiz-adv-x="1157" 
d="M1259 754l-919 -754h-310l920 754h309z" />
    <glyph glyph-name="uni2219" unicode="&#x2219;" horiz-adv-x="430" 
d="M444 254h-370l39 217h370z" />
    <glyph glyph-name="radical" unicode="&#x221a;" horiz-adv-x="1065" 
d="M1155 872l-348 -950h-379l-133 368h-145v257h348l117 -345l229 670h311z" />
    <glyph glyph-name="infinity" unicode="&#x221e;" horiz-adv-x="749" 
d="M360 467c-11 13 -29 34 -55 34h-3c-38 0 -38 -67 -38 -101v-23c0 -29 0 -101 39 -101h3c23 0 20 26 40 119c2 10 9 57 14 72zM605 379v22c0 56 0 101 -35 101h-3c-20 0 -28 -42 -39 -110c-6 -37 -10 -64 -15 -87c19 -21 30 -28 54 -28h2c36 0 36 47 36 102zM779 379
c0 -78 -9 -257 -210 -257h-8c-54 0 -90 14 -128 47c-29 -23 -72 -49 -122 -49h-9c-203 0 -212 189 -212 257v23c0 74 9 257 211 257h9c57 0 94 -15 125 -47c35 33 70 48 126 48h7c203 0 211 -189 211 -257v-22z" />
    <glyph glyph-name="integral" unicode="&#x222b;" horiz-adv-x="732" 
d="M762 630c-66 2 -75 2 -84 2c-32 0 -44 -4 -44 -23v-620c0 -152 -127 -194 -286 -194c-120 0 -197 11 -258 20v161c66 -2 75 -2 84 -2c33 0 45 4 45 23v620c0 152 126 194 284 194c121 0 199 -11 259 -21v-160z" />
    <glyph glyph-name="approxequal" unicode="&#x2248;" horiz-adv-x="800" 
d="M836 631c0 -184 -135 -191 -196 -191c-19 0 -78 4 -154 22l-88 22c-41 10 -68 16 -79 16c-17 0 -25 -7 -25 -30v-27h-192v27c0 185 133 191 207 191c30 0 68 -4 138 -21l107 -26c30 -8 51 -12 68 -12c15 0 20 7 20 29v26h194v-26zM836 327c0 -185 -135 -191 -196 -191
c-19 0 -78 4 -154 22l-88 22c-41 10 -64 15 -79 15c-17 0 -25 -7 -25 -29v-27h-192v27c0 184 133 191 207 191c30 0 68 -4 138 -21l107 -27c30 -8 51 -12 68 -12c15 0 20 7 20 30v25h194v-25z" />
    <glyph glyph-name="notequal" unicode="&#x2260;" horiz-adv-x="800" 
d="M875 54h-301l-30 -78h-381l30 78h-55v257h143l42 118h-185v257h274l32 81h381l-32 -81h82v-257h-171l-41 -118h212v-257z" />
    <glyph glyph-name="lessequal" unicode="&#x2264;" horiz-adv-x="800" 
d="M830 215h-398l-351 231l351 231h398l-339 -231zM826 0h-748v156h748v-156z" />
    <glyph glyph-name="greaterequal" unicode="&#x2265;" horiz-adv-x="800" 
d="M852 446l-352 -231h-398l339 231l-339 231h398zM855 0h-748v156h748v-156z" />
    <glyph glyph-name="lozenge" unicode="&#x25ca;" horiz-adv-x="882" 
d="M656 365l-135 127l-128 -127l128 -122zM936 365l-415 -381l-407 381l407 385z" />
    <glyph glyph-name="A.sc" unicode="&#xe000;" 
d="M1056 0h-408l-3 79h-170l-30 -79h-415l35 202l67 8l95 196l-42 1l39 217h751l51 -414l65 -8zM645 268l-8 155c-1 24 -1 58 1 82h-2c-10 -27 -20 -55 -31 -82l-60 -155h100z" />
    <glyph glyph-name="AE.sc" unicode="&#xe001;" horiz-adv-x="1309" 
d="M1389 624l-36 -203h-192l-5 16h-126l-7 -35h306l-31 -178h-306l-6 -36h125l12 18h192l-36 -206h-717l13 79h-105l-31 -79h-409l35 201l65 7l97 199l-41 2l38 215h1165zM651 505h-21c-11 -26 -22 -58 -31 -82l-60 -155h70z" />
    <glyph glyph-name="Aacute.sc" unicode="&#xe002;" 
d="M1056 0h-408l-3 79h-170l-30 -79h-415l35 202l67 8l95 196l-42 1l39 217h751l51 -414l65 -8zM645 268l-8 155c-1 24 -1 58 1 82h-2c-10 -27 -20 -55 -31 -82l-60 -155h100zM1116 825l-310 -142h-391l218 142h483z" />
    <glyph glyph-name="Acircumflex.sc" unicode="&#xe003;" 
d="M1056 0h-408l-3 79h-170l-30 -79h-415l35 202l67 8l95 196l-42 1l39 217h751l51 -414l65 -8zM645 268l-8 155c-1 24 -1 58 1 82h-2c-10 -27 -20 -55 -31 -82l-60 -155h100zM1095 683h-346l-70 52l-89 -52h-361l218 142h483z" />
    <glyph glyph-name="Adieresis.sc" unicode="&#xe004;" 
d="M1056 0h-408l-3 79h-170l-30 -79h-415l35 202l67 8l95 196l-42 1l39 217h751l51 -414l65 -8zM645 268l-8 155c-1 24 -1 58 1 82h-2c-10 -27 -20 -55 -31 -82l-60 -155h100zM1015 683h-315l24 140h315zM623 683l24 140h-315l-24 -140h315z" />
    <glyph glyph-name="Agrave.sc" unicode="&#xe005;" 
d="M1056 0h-408l-3 79h-170l-30 -79h-415l35 202l67 8l95 196l-42 1l39 217h751l51 -414l65 -8zM645 268l-8 155c-1 24 -1 58 1 82h-2c-10 -27 -20 -55 -31 -82l-60 -155h100zM888 683h-391l-260 142h484z" />
    <glyph glyph-name="Aring.sc" unicode="&#xe006;" 
d="M1056 0h-408l-3 79h-170l-30 -79h-415l35 202l67 8l95 196l-42 1l39 217h751l51 -414l65 -8zM645 268l-8 155c-1 24 -1 58 1 82h-2c-10 -27 -20 -55 -31 -82l-60 -155h100zM744 799c0 25 -27 35 -64 35c-39 0 -66 -10 -66 -35c0 -24 27 -34 66 -34c37 0 64 10 64 34z
M908 798c0 -95 -91 -147 -228 -147c-139 0 -231 52 -231 147s92 148 231 148c138 0 228 -53 228 -148z" />
    <glyph glyph-name="Atilde.sc" unicode="&#xe007;" 
d="M1056 0h-408l-3 79h-170l-30 -79h-415l35 202l67 8l95 196l-42 1l39 217h751l51 -414l65 -8zM645 268l-8 155c-1 24 -1 58 1 82h-2c-10 -27 -20 -55 -31 -82l-60 -155h100zM1048 868c-28 -185 -148 -193 -216 -193c-19 0 -67 1 -148 22l-85 22c-39 10 -66 16 -78 16
c-27 0 -39 -10 -48 -57h-166c17 187 159 194 229 194c28 0 55 -2 132 -21l84 -21c40 -10 62 -17 87 -17c24 0 35 9 43 55h166z" />
    <glyph glyph-name="B.sc" unicode="&#xe008;" horiz-adv-x="979" 
d="M987 216c0 -238 -331 -239 -542 -239c-66 0 -249 10 -414 29l34 196l37 4l38 217l-35 5l35 196c208 19 367 23 423 23c324 0 461 -47 461 -177c0 -67 -31 -118 -94 -151c43 -21 57 -65 57 -103zM517 171c62 0 104 0 104 33c0 26 -17 27 -82 27h-70l-10 -58
c28 -2 51 -2 58 -2zM567 389c47 0 93 0 93 36c0 26 -25 26 -94 26c-17 0 -25 0 -58 -2l-11 -60h70z" />
    <glyph glyph-name="C.sc" unicode="&#xe009;" horiz-adv-x="788" 
d="M758 2c-51 -14 -222 -25 -275 -25c-291 0 -408 100 -408 266c0 24 2 50 13 111c35 203 181 293 514 293c53 0 197 -13 265 -25l-40 -226h-203v35h-12c-74 0 -113 -13 -129 -102c-9 -49 -10 -61 -10 -72c0 -56 36 -64 98 -64h12l13 35h202z" />
    <glyph glyph-name="Ccedilla.sc" unicode="&#xe00a;" horiz-adv-x="788" 
d="M758 2c-51 -14 -222 -25 -275 -25c-291 0 -408 100 -408 266c0 24 2 50 13 111c35 203 181 293 514 293c53 0 197 -13 265 -25l-40 -226h-203v35h-12c-74 0 -113 -13 -129 -102c-9 -49 -10 -61 -10 -72c0 -56 36 -64 98 -64h12l13 35h202zM701 -55l-176 -139h-365
l134 139h407z" />
    <glyph glyph-name="D.sc" unicode="&#xe00b;" horiz-adv-x="971" 
d="M991 273c-41 -232 -243 -296 -514 -296c-190 0 -320 10 -446 29l34 196l48 5l38 216l-46 5l35 196c155 15 283 23 456 23c244 0 410 -74 410 -261c0 -20 -2 -42 -15 -113zM613 270c18 100 21 115 21 127c0 29 -15 42 -70 42c-8 0 -40 -1 -41 -1l-45 -252c1 0 33 -1 41 -1
c79 0 84 27 94 85z" />
    <glyph glyph-name="Eth.sc" unicode="&#xe00c;" horiz-adv-x="971" 
d="M991 273c-41 -232 -243 -296 -514 -296c-190 0 -320 10 -446 29l34 196l48 5l5 29h-47l28 160h47l5 27l-46 5l35 196c155 15 283 23 456 23c244 0 410 -74 410 -261c0 -20 -2 -42 -15 -113zM613 270c18 100 21 115 21 127c0 29 -15 42 -70 42c-8 0 -40 -1 -41 -1l-8 -42
h54l-28 -160h-54l-9 -50c1 0 33 -1 41 -1c79 0 84 27 94 85z" />
    <glyph glyph-name="E.sc" unicode="&#xe00d;" horiz-adv-x="815" 
d="M785 0h-755l35 202l38 4l38 217l-36 5l35 196h755l-36 -203h-193l-4 16h-126l-7 -35h306l-31 -178h-306l-6 -36h125l11 18h193z" />
    <glyph glyph-name="Eacute.sc" unicode="&#xe00e;" horiz-adv-x="815" 
d="M1015 826l-310 -142h-391l218 142h483zM785 0h-755l35 202l38 4l38 217l-36 5l35 196h755l-36 -203h-193l-4 16h-126l-7 -35h306l-31 -178h-306l-6 -36h125l11 18h193z" />
    <glyph glyph-name="Ecircumflex.sc" unicode="&#xe00f;" horiz-adv-x="815" 
d="M785 0h-755l35 202l38 4l38 217l-36 5l35 196h755l-36 -203h-193l-4 16h-126l-7 -35h306l-31 -178h-306l-6 -36h125l11 18h193zM947 685h-346l-70 52l-89 -52h-361l218 142h483z" />
    <glyph glyph-name="Edieresis.sc" unicode="&#xe010;" horiz-adv-x="815" 
d="M785 0h-755l35 202l38 4l38 217l-36 5l35 196h755l-36 -203h-193l-4 16h-126l-7 -35h306l-31 -178h-306l-6 -36h125l11 18h193zM891 685h-315l24 140h315zM499 685l24 140h-315l-24 -140h315z" />
    <glyph glyph-name="Egrave.sc" unicode="&#xe011;" horiz-adv-x="815" 
d="M769 685h-391l-260 142h484zM785 0h-755l35 202l38 4l38 217l-36 5l35 196h755l-36 -203h-193l-4 16h-126l-7 -35h306l-31 -178h-306l-6 -36h125l11 18h193z" />
    <glyph glyph-name="F.sc" unicode="&#xe012;" horiz-adv-x="814" 
d="M801 213h-307l-4 -24l36 -4l-32 -185h-464l35 202l37 4l38 217l-35 5l35 196h754l-37 -208h-193l-5 16h-126l-6 -34h307z" />
    <glyph glyph-name="G.sc" unicode="&#xe013;" horiz-adv-x="885" 
d="M853 11c-107 -19 -261 -34 -404 -34c-188 0 -374 65 -374 249c0 32 2 55 14 128c45 262 270 293 482 293c162 0 299 -20 391 -36l-37 -212h-194l-4 29c-32 2 -62 3 -83 3c-120 0 -166 0 -183 -97c-11 -64 -12 -80 -12 -93c0 -32 12 -47 52 -47c15 0 31 0 47 2l5 27l-39 7
l27 151h378z" />
    <glyph glyph-name="H.sc" unicode="&#xe014;" horiz-adv-x="1095" 
d="M1065 0h-428l36 207h-180l-36 -207h-427l35 202l37 4l38 217l-35 5l35 196h427l-37 -209h180l37 209h428l-35 -196l-38 -5l-38 -217l36 -4z" />
    <glyph glyph-name="I.sc" unicode="&#xe015;" horiz-adv-x="524" 
d="M494 0h-464l35 202l37 4l38 217l-35 5l35 196h464l-35 -196l-38 -5l-38 -217l36 -4z" />
    <glyph glyph-name="Iacute.sc" unicode="&#xe016;" horiz-adv-x="524" 
d="M845 827l-310 -142h-391l218 142h483zM494 0h-464l35 202l37 4l38 217l-35 5l35 196h464l-35 -196l-38 -5l-38 -217l36 -4z" />
    <glyph glyph-name="Icircumflex.sc" unicode="&#xe017;" horiz-adv-x="524" 
d="M494 0h-464l35 202l37 4l38 217l-35 5l35 196h464l-35 -196l-38 -5l-38 -217l36 -4zM818 685h-346l-70 52l-89 -52h-361l218 142h483z" />
    <glyph glyph-name="Idieresis.sc" unicode="&#xe018;" horiz-adv-x="524" 
d="M494 0h-464l35 202l37 4l38 217l-35 5l35 196h464l-35 -196l-38 -5l-38 -217l36 -4zM737 685h-315l24 140h315zM345 685l24 140h-315l-24 -140h315z" />
    <glyph glyph-name="Igrave.sc" unicode="&#xe019;" horiz-adv-x="524" 
d="M651 685h-391l-260 142h484zM494 0h-464l35 202l37 4l38 217l-35 5l35 196h464l-35 -196l-38 -5l-38 -217l36 -4z" />
    <glyph glyph-name="J.sc" unicode="&#xe01a;" horiz-adv-x="523" 
d="M568 428l-37 -5l-65 -368c-29 -163 -145 -232 -352 -232c-87 0 -114 2 -153 6l32 179h28c42 0 48 13 54 47l65 368l-36 5l35 196h464z" />
    <glyph glyph-name="K.sc" unicode="&#xe01b;" horiz-adv-x="1053" 
d="M1019 0h-378l-132 284l-50 -284h-429l35 202l38 4l38 217l-36 5l35 196h429l-52 -295l259 295h357l-35 -196l-59 -5l-119 -114l76 -102l58 -5z" />
    <glyph glyph-name="L.sc" unicode="&#xe01c;" horiz-adv-x="726" 
d="M696 0h-666l35 202l38 4l38 217l-36 5l35 196h465l-35 -196l-37 -5l-38 -215h33l20 51h193z" />
    <glyph glyph-name="Lslash.sc" unicode="&#xe01d;" horiz-adv-x="726" 
d="M696 0h-666l35 202l38 4l5 27l-39 -9l11 60l38 9l23 130l-36 5l35 196h465l-35 -196l-37 -5l-6 -33l140 34l-10 -60l-140 -34l-22 -122h33l20 51h193z" />
    <glyph glyph-name="M.sc" unicode="&#xe01e;" horiz-adv-x="1209" 
d="M1179 0h-407l29 169c5 28 14 61 20 89h-2c-18 -16 -41 -35 -61 -50l-84 -65h-94l-62 65c-14 14 -31 34 -43 50h-1c-5 -28 -10 -61 -15 -89l-29 -169h-400l35 202l33 4l38 218l-31 4l35 196h338l141 -159c15 -17 34 -35 47 -49h4c15 13 41 33 61 49l201 159h357l-35 -196
l-37 -5l-38 -217l35 -4z" />
    <glyph glyph-name="N.sc" unicode="&#xe01f;" horiz-adv-x="1049" 
d="M1094 428l-37 -5l-74 -423h-328l-164 175c-11 12 -27 30 -37 42h-2c-3 -21 -8 -47 -12 -70l-25 -147h-385l35 202l38 4l38 217l-36 5l35 196h355l171 -183c13 -9 29 -29 38 -39h2c2 23 6 44 10 65l28 157h385z" />
    <glyph glyph-name="Ntilde.sc" unicode="&#xe020;" horiz-adv-x="1049" 
d="M1030 874c-28 -185 -148 -193 -216 -193c-19 0 -67 1 -148 22l-85 22c-39 10 -66 16 -78 16c-27 0 -39 -10 -48 -57h-166c17 187 159 194 229 194c28 0 55 -2 132 -21l84 -21c40 -10 62 -17 87 -17c24 0 35 9 43 55h166zM1094 428l-37 -5l-74 -423h-328l-164 175
c-11 12 -27 30 -37 42h-2c-3 -21 -8 -47 -12 -70l-25 -147h-385l35 202l38 4l38 217l-36 5l35 196h355l171 -183c13 -9 29 -29 38 -39h2c2 23 6 44 10 65l28 157h385z" />
    <glyph glyph-name="O.sc" unicode="&#xe021;" horiz-adv-x="941" 
d="M964 287c-46 -269 -274 -310 -494 -310c-200 0 -393 57 -393 271c0 21 2 45 9 88c42 266 272 311 494 311c203 0 393 -62 393 -274c0 -21 -2 -43 -9 -86zM592 301c6 44 8 62 8 77c0 41 -14 54 -54 54c-54 0 -77 -24 -89 -109c-6 -42 -7 -59 -7 -73c0 -43 15 -57 54 -57
c52 0 77 24 88 108z" />
    <glyph glyph-name="OE.sc" unicode="&#xe022;" horiz-adv-x="1268" 
d="M1238 0h-563c-67 -17 -139 -23 -210 -23c-214 0 -389 58 -389 267c0 23 2 47 10 92c47 265 276 311 498 311c71 0 140 -6 200 -23h564l-36 -203h-192l-5 16h-126l-7 -35h326l-31 -178h-326l-6 -36h125l12 18h192zM573 196l41 233c-29 3 -50 3 -68 3
c-54 0 -77 -24 -89 -109c-6 -42 -7 -59 -7 -73c0 -43 15 -57 54 -57c24 0 57 2 69 3z" />
    <glyph glyph-name="Oacute.sc" unicode="&#xe023;" horiz-adv-x="941" 
d="M1073 826l-310 -142h-391l218 142h483zM964 287c-46 -269 -274 -310 -494 -310c-200 0 -393 57 -393 271c0 21 2 45 9 88c42 266 272 311 494 311c203 0 393 -62 393 -274c0 -21 -2 -43 -9 -86zM592 301c6 44 8 62 8 77c0 41 -14 54 -54 54c-54 0 -77 -24 -89 -109
c-6 -42 -7 -59 -7 -73c0 -43 15 -57 54 -57c52 0 77 24 88 108z" />
    <glyph glyph-name="Ocircumflex.sc" unicode="&#xe024;" horiz-adv-x="941" 
d="M964 287c-46 -269 -274 -310 -494 -310c-200 0 -393 57 -393 271c0 21 2 45 9 88c42 266 272 311 494 311c203 0 393 -62 393 -274c0 -21 -2 -43 -9 -86zM592 301c6 44 8 62 8 77c0 41 -14 54 -54 54c-54 0 -77 -24 -89 -109c-6 -42 -7 -59 -7 -73c0 -43 15 -57 54 -57
c52 0 77 24 88 108zM1021 684h-346l-70 52l-89 -52h-361l218 142h483z" />
    <glyph glyph-name="Odieresis.sc" unicode="&#xe025;" horiz-adv-x="941" 
d="M964 287c-46 -269 -274 -310 -494 -310c-200 0 -393 57 -393 271c0 21 2 45 9 88c42 266 272 311 494 311c203 0 393 -62 393 -274c0 -21 -2 -43 -9 -86zM592 301c6 44 8 62 8 77c0 41 -14 54 -54 54c-54 0 -77 -24 -89 -109c-6 -42 -7 -59 -7 -73c0 -43 15 -57 54 -57
c52 0 77 24 88 108zM943 684h-315l24 140h315zM551 684l24 140h-315l-24 -140h315z" />
    <glyph glyph-name="Ograve.sc" unicode="&#xe026;" horiz-adv-x="941" 
d="M857 683h-391l-260 142h484zM964 287c-46 -269 -274 -310 -494 -310c-200 0 -393 57 -393 271c0 21 2 45 9 88c42 266 272 311 494 311c203 0 393 -62 393 -274c0 -21 -2 -43 -9 -86zM592 301c6 44 8 62 8 77c0 41 -14 54 -54 54c-54 0 -77 -24 -89 -109
c-6 -42 -7 -59 -7 -73c0 -43 15 -57 54 -57c52 0 77 24 88 108z" />
    <glyph glyph-name="Oslash.sc" unicode="&#xe027;" horiz-adv-x="941" 
d="M24 -24l119 97c-41 41 -66 98 -66 175c0 21 2 45 9 88c42 266 272 311 494 311c79 0 155 -10 220 -34l41 34h183l-119 -97c42 -42 68 -100 68 -177c0 -21 -2 -43 -9 -86c-46 -269 -274 -310 -494 -310c-79 0 -156 10 -221 33l-42 -34h-183zM592 301c6 44 8 62 8 77
c0 41 -14 54 -54 54c-54 0 -77 -24 -89 -109c-6 -42 -7 -59 -7 -73c0 -43 15 -57 54 -57c52 0 77 24 88 108z" />
    <glyph glyph-name="Otilde.sc" unicode="&#xe028;" horiz-adv-x="941" 
d="M969 875c-28 -185 -148 -193 -216 -193c-19 0 -67 1 -148 22l-85 22c-39 10 -66 16 -78 16c-27 0 -39 -10 -48 -57h-166c17 187 159 194 229 194c28 0 55 -2 132 -21l84 -21c40 -10 62 -17 87 -17c24 0 35 9 43 55h166zM964 287c-46 -269 -274 -310 -494 -310
c-200 0 -393 57 -393 271c0 21 2 45 9 88c42 266 272 311 494 311c203 0 393 -62 393 -274c0 -21 -2 -43 -9 -86zM592 301c6 44 8 62 8 77c0 41 -14 54 -54 54c-54 0 -77 -24 -89 -109c-6 -42 -7 -59 -7 -73c0 -43 15 -57 54 -57c52 0 77 24 88 108z" />
    <glyph glyph-name="P.sc" unicode="&#xe029;" horiz-adv-x="969" 
d="M1015 437c0 -255 -274 -278 -485 -278c-26 0 -33 1 -75 2l-28 -161h-397l35 202l37 4l38 217l-35 5l35 196c104 12 263 24 422 24c256 0 453 -38 453 -211zM553 370c49 0 96 0 96 43c0 27 -28 29 -83 29c-24 0 -54 -2 -62 -3l-12 -68c13 -1 38 -1 61 -1z" />
    <glyph glyph-name="Thorn.sc" unicode="&#xe02a;" horiz-adv-x="969" 
d="M1000 355c0 -256 -272 -279 -485 -279c-26 0 -33 1 -75 2l-13 -78h-397l35 202l37 4l38 218l-35 4l36 202h397l-12 -65h43c258 0 431 -28 431 -210zM634 329c0 28 -26 30 -82 30c-24 0 -55 -2 -63 -3l-12 -68c13 -1 38 -1 61 -1c53 0 96 0 96 42z" />
    <glyph glyph-name="Q.sc" unicode="&#xe02b;" horiz-adv-x="941" 
d="M964 287c-36 -209 -181 -280 -347 -301c-1 -3 0 -3 0 -4c0 -5 5 -5 22 -5h117l-24 -137c-63 -13 -131 -25 -250 -25c-105 0 -204 17 -204 127c0 12 1 26 4 41l2 15c-119 32 -207 105 -207 250c0 21 2 45 9 88c42 266 272 311 494 311c203 0 393 -62 393 -274
c0 -21 -2 -43 -9 -86zM592 301c6 44 8 62 8 77c0 41 -14 54 -54 54c-54 0 -77 -24 -89 -109c-6 -42 -7 -59 -7 -73c0 -43 15 -57 54 -57c52 0 77 24 88 108z" />
    <glyph glyph-name="R.sc" unicode="&#xe02c;" horiz-adv-x="969" 
d="M933 0h-288l-118 186h-67l-32 -186h-398l35 202l37 4l38 217l-35 5l35 196c98 12 283 23 466 23c226 0 409 -51 409 -208c0 -95 -43 -163 -131 -204l27 -25l57 -8zM556 370c34 0 92 0 92 40c0 31 -30 32 -80 32c-25 0 -49 -2 -64 -3l-12 -68c23 -1 43 -1 64 -1z" />
    <glyph glyph-name="S.sc" unicode="&#xe02d;" horiz-adv-x="843" 
d="M855 233c0 -227 -218 -256 -422 -256c-140 0 -280 6 -379 21l35 200h192l4 -28c57 -1 84 -1 126 -1c38 0 62 0 62 14c0 10 -12 13 -82 19l-51 4c-131 11 -242 48 -242 197c0 239 249 244 460 244c127 0 251 -15 332 -28l-33 -187h-194l-5 30c-49 1 -85 1 -127 1
c-34 0 -58 0 -58 -14c0 -11 11 -13 82 -21l54 -6c172 -18 246 -73 246 -189z" />
    <glyph glyph-name="Scaron.sc" unicode="&#xe02e;" horiz-adv-x="843" 
d="M1020 825l-215 -142h-483l-168 142h348l71 -51l88 51h359zM855 233c0 -227 -218 -256 -422 -256c-140 0 -280 6 -379 21l35 200h192l4 -28c57 -1 84 -1 126 -1c38 0 62 0 62 14c0 10 -12 13 -82 19l-51 4c-131 11 -242 48 -242 197c0 239 249 244 460 244
c127 0 251 -15 332 -28l-33 -187h-194l-5 30c-49 1 -85 1 -127 1c-34 0 -58 0 -58 -14c0 -11 11 -13 82 -21l54 -6c172 -18 246 -73 246 -189z" />
    <glyph glyph-name="T.sc" unicode="&#xe02f;" horiz-adv-x="868" 
d="M906 391h-175l-6 35h-19l-39 -220l35 -4l-35 -202h-465l35 202l37 4l39 220h-19l-20 -35h-176l42 233h808z" />
    <glyph glyph-name="U.sc" unicode="&#xe030;" horiz-adv-x="1029" 
d="M1074 428l-38 -5l-28 -161c-50 -285 -298 -285 -495 -285c-198 0 -405 14 -405 233c0 25 2 52 8 82l24 131l-35 5l35 196h415l-62 -347c-3 -18 -5 -32 -5 -44c0 -35 15 -49 57 -49c58 0 74 24 86 93l62 347h416z" />
    <glyph glyph-name="Uacute.sc" unicode="&#xe031;" horiz-adv-x="1029" 
d="M1105 827l-310 -142h-391l218 142h483zM1074 428l-38 -5l-28 -161c-50 -285 -298 -285 -495 -285c-198 0 -405 14 -405 233c0 25 2 52 8 82l24 131l-35 5l35 196h415l-62 -347c-3 -18 -5 -32 -5 -44c0 -35 15 -49 57 -49c58 0 74 24 86 93l62 347h416z" />
    <glyph glyph-name="Ucircumflex.sc" unicode="&#xe032;" horiz-adv-x="1029" 
d="M1074 428l-38 -5l-28 -161c-50 -285 -298 -285 -495 -285c-198 0 -405 14 -405 233c0 25 2 52 8 82l24 131l-35 5l35 196h415l-62 -347c-3 -18 -5 -32 -5 -44c0 -35 15 -49 57 -49c58 0 74 24 86 93l62 347h416zM1065 684h-346l-70 52l-89 -52h-361l218 142h483z" />
    <glyph glyph-name="Udieresis.sc" unicode="&#xe033;" horiz-adv-x="1029" 
d="M1074 428l-38 -5l-28 -161c-50 -285 -298 -285 -495 -285c-198 0 -405 14 -405 233c0 25 2 52 8 82l24 131l-35 5l35 196h415l-62 -347c-3 -18 -5 -32 -5 -44c0 -35 15 -49 57 -49c58 0 74 24 86 93l62 347h416zM988 684h-315l24 140h315zM596 684l24 140h-315l-24 -140
h315z" />
    <glyph glyph-name="Ugrave.sc" unicode="&#xe034;" horiz-adv-x="1029" 
d="M876 684h-391l-260 142h484zM1074 428l-38 -5l-28 -161c-50 -285 -298 -285 -495 -285c-198 0 -405 14 -405 233c0 25 2 52 8 82l24 131l-35 5l35 196h415l-62 -347c-3 -18 -5 -32 -5 -44c0 -35 15 -49 57 -49c58 0 74 24 86 93l62 347h416z" />
    <glyph glyph-name="V.sc" unicode="&#xe035;" horiz-adv-x="1006" 
d="M1051 428l-49 -5l-185 -423h-629l-37 423l-46 5l35 196h374l4 -386c0 -30 1 -72 2 -101h2c10 29 20 57 36 100l143 387h385z" />
    <glyph glyph-name="W.sc" unicode="&#xe036;" horiz-adv-x="1356" 
d="M1401 428l-39 -5l-164 -423h-407l-52 207c-7 28 -8 65 -7 85h-4c-8 -21 -23 -57 -40 -85l-124 -207h-407l-16 423l-36 5l35 196h366l-9 -209c-3 -55 -7 -93 -12 -126h5c16 35 31 67 45 91l71 126h311l26 -126c7 -33 9 -56 12 -91h4c11 40 21 79 36 126l64 209h377z" />
    <glyph glyph-name="X.sc" unicode="&#xe037;" horiz-adv-x="918" 
d="M888 0h-340l-74 126l-112 -126h-332l35 202l65 8l135 119l-103 92l-45 7l35 196h366l79 -120l105 120h296l-35 -196l-56 -8l-127 -119l73 -90l70 -9z" />
    <glyph glyph-name="Y.sc" unicode="&#xe038;" horiz-adv-x="912" 
d="M957 428l-79 -9l-201 -217l-3 -16l35 -5l-31 -181h-454l31 181l49 5l3 16l-126 217l-76 9l35 196h315l43 -106c11 -27 20 -51 28 -78h4c17 27 36 51 56 78l81 106h325z" />
    <glyph glyph-name="Yacute.sc" unicode="&#xe039;" horiz-adv-x="912" 
d="M1073 826l-310 -142h-391l218 142h483zM957 428l-79 -9l-201 -217l-3 -16l35 -5l-31 -181h-454l31 181l49 5l3 16l-126 217l-76 9l35 196h315l43 -106c11 -27 20 -51 28 -78h4c17 27 36 51 56 78l81 106h325z" />
    <glyph glyph-name="Ydieresis.sc" unicode="&#xe03a;" horiz-adv-x="912" 
d="M957 428l-79 -9l-201 -217l-3 -16l35 -5l-31 -181h-454l31 181l49 5l3 16l-126 217l-76 9l35 196h315l43 -106c11 -27 20 -51 28 -78h4c17 27 36 51 56 78l81 106h325zM931 685h-315l24 140h315zM539 685l24 140h-315l-24 -140h315z" />
    <glyph glyph-name="Z.sc" unicode="&#xe03b;" horiz-adv-x="775" 
d="M745 0h-715l29 170l285 243h-54l-14 -30h-179l43 241h714l-32 -181l-279 -232h50l15 30h179z" />
    <glyph glyph-name="Zcaron.sc" unicode="&#xe03c;" horiz-adv-x="775" 
d="M984 826l-215 -142h-483l-168 142h348l71 -51l88 51h359zM745 0h-715l29 170l285 243h-54l-14 -30h-179l43 241h714l-32 -181l-279 -232h50l15 30h179z" />
    <glyph glyph-name="Abreve.sc" unicode="&#xe040;" 
d="M1056 0h-408l-3 79h-170l-30 -79h-415l35 202l67 8l95 196l-42 1l39 217h751l51 -414l65 -8zM645 268l-8 155c-1 24 -1 58 1 82h-2c-10 -27 -20 -55 -31 -82l-60 -155h100zM1029 865c-44 -195 -279 -195 -360 -195c-61 0 -312 0 -320 195h163c5 -69 104 -72 165 -72
c72 0 164 6 191 72h161z" />
    <glyph glyph-name="Amacron.sc" unicode="&#xe041;" 
d="M1056 0h-408l-3 79h-170l-30 -79h-415l35 202l67 8l95 196l-42 1l39 217h751l51 -414l65 -8zM645 268l-8 155c-1 24 -1 58 1 82h-2c-10 -27 -20 -55 -31 -82l-60 -155h100zM1020 684h-715l25 142h715z" />
    <glyph glyph-name="Aogonek.sc" unicode="&#xe042;" 
d="M648 0l-3 79h-170l-30 -79h-415l35 202l67 8l95 196l-42 2l39 216h751l51 -414l65 -8l-35 -202c-135 -20 -181 -35 -181 -61c0 -18 18 -19 42 -19c48 0 90 5 126 7l-24 -136c-37 -5 -160 -27 -293 -27c-138 0 -210 27 -210 101c0 72 58 112 132 135zM645 268l-8 155
c-1 24 -1 58 1 82h-2c-10 -27 -20 -55 -31 -82l-60 -155h100z" />
    <glyph glyph-name="AEacute.sc" unicode="&#xe043;" horiz-adv-x="1309" 
d="M1389 624l-36 -203h-192l-5 16h-126l-7 -35h306l-31 -178h-306l-6 -36h125l12 18h192l-36 -206h-717l13 79h-105l-31 -79h-409l35 201l65 7l97 199l-41 2l38 215h1165zM651 505h-21c-11 -26 -22 -58 -31 -82l-60 -155h70zM1328 826l-310 -142h-391l218 142h483z" />
    <glyph glyph-name="Cacute.sc" unicode="&#xe044;" horiz-adv-x="788" 
d="M1029 826l-310 -142h-391l218 142h483zM758 2c-51 -14 -222 -25 -275 -25c-291 0 -408 100 -408 266c0 24 2 50 13 111c35 203 181 293 514 293c53 0 197 -13 265 -25l-40 -226h-203v35h-12c-74 0 -113 -13 -129 -102c-9 -49 -10 -61 -10 -72c0 -56 36 -64 98 -64h12
l13 35h202z" />
    <glyph glyph-name="Ccaron.sc" unicode="&#xe045;" horiz-adv-x="788" 
d="M1013 827l-215 -142h-483l-168 142h348l71 -51l88 51h359zM758 2c-51 -14 -222 -25 -275 -25c-291 0 -408 100 -408 266c0 24 2 50 13 111c35 203 181 293 514 293c53 0 197 -13 265 -25l-40 -226h-203v35h-12c-74 0 -113 -13 -129 -102c-9 -49 -10 -61 -10 -72
c0 -56 36 -64 98 -64h12l13 35h202z" />
    <glyph glyph-name="Ccircumflex.sc" unicode="&#xe046;" horiz-adv-x="788" 
d="M758 2c-51 -14 -222 -25 -275 -25c-291 0 -408 100 -408 266c0 24 2 50 13 111c35 203 181 293 514 293c53 0 197 -13 265 -25l-40 -226h-203v35h-12c-74 0 -113 -13 -129 -102c-9 -49 -10 -61 -10 -72c0 -56 36 -64 98 -64h12l13 35h202zM983 684h-346l-70 52l-89 -52
h-361l218 142h483z" />
    <glyph glyph-name="Cdotaccent.sc" unicode="&#xe047;" horiz-adv-x="788" 
d="M758 2c-51 -14 -222 -25 -275 -25c-291 0 -408 100 -408 266c0 24 2 50 13 111c35 203 181 293 514 293c53 0 197 -13 265 -25l-40 -226h-203v35h-12c-74 0 -113 -13 -129 -102c-9 -49 -10 -61 -10 -72c0 -56 36 -64 98 -64h12l13 35h202zM771 684h-437l25 142h437z" />
    <glyph glyph-name="Dcaron.sc" unicode="&#xe048;" horiz-adv-x="971" 
d="M1045 826l-215 -142h-483l-168 142h348l71 -51l88 51h359zM991 273c-41 -232 -243 -296 -514 -296c-190 0 -320 10 -446 29l34 196l48 5l38 216l-46 5l35 196c155 15 283 23 456 23c244 0 410 -74 410 -261c0 -20 -2 -42 -15 -113zM613 270c18 100 21 115 21 127
c0 29 -15 42 -70 42c-8 0 -40 -1 -41 -1l-45 -252c1 0 33 -1 41 -1c79 0 84 27 94 85z" />
    <glyph glyph-name="Dcroat.sc" unicode="&#xe049;" horiz-adv-x="971" 
d="M991 273c-41 -232 -243 -296 -514 -296c-190 0 -320 10 -446 29l34 196l48 5l5 29h-47l28 160h47l5 27l-46 5l35 196c155 15 283 23 456 23c244 0 410 -74 410 -261c0 -20 -2 -42 -15 -113zM613 270c18 100 21 115 21 127c0 29 -15 42 -70 42c-8 0 -40 -1 -41 -1l-8 -42
h54l-28 -160h-54l-9 -50c1 0 33 -1 41 -1c79 0 84 27 94 85z" />
    <glyph glyph-name="Ebreve.sc" unicode="&#xe04a;" horiz-adv-x="815" 
d="M910 867c-44 -195 -279 -195 -360 -195c-61 0 -312 0 -320 195h163c5 -69 104 -72 165 -72c72 0 164 6 191 72h161zM785 0h-755l35 202l38 4l38 217l-36 5l35 196h755l-36 -203h-193l-4 16h-126l-7 -35h306l-31 -178h-306l-6 -36h125l11 18h193z" />
    <glyph glyph-name="Ecaron.sc" unicode="&#xe04b;" horiz-adv-x="815" 
d="M998 826l-215 -142h-483l-168 142h348l71 -51l88 51h359zM785 0h-755l35 202l38 4l38 217l-36 5l35 196h755l-36 -203h-193l-4 16h-126l-7 -35h306l-31 -178h-306l-6 -36h125l11 18h193z" />
    <glyph glyph-name="Edotaccent.sc" unicode="&#xe04c;" horiz-adv-x="815" 
d="M785 0h-755l35 202l38 4l38 217l-36 5l35 196h755l-36 -203h-193l-4 16h-126l-7 -35h306l-31 -178h-306l-6 -36h125l11 18h193zM748 685h-437l25 142h437z" />
    <glyph glyph-name="Emacron.sc" unicode="&#xe04d;" horiz-adv-x="815" 
d="M785 0h-755l35 202l38 4l38 217l-36 5l35 196h755l-36 -203h-193l-4 16h-126l-7 -35h306l-31 -178h-306l-6 -36h125l11 18h193zM889 685h-715l25 142h715z" />
    <glyph glyph-name="Eng.sc" unicode="&#xe04e;" horiz-adv-x="1049" 
d="M1094 428l-37 -5l-65 -368c-29 -163 -145 -232 -352 -232c-41 0 -81 0 -154 6l32 179h29c42 0 48 13 54 44l1 5l-111 118c-11 12 -27 30 -37 42h-2c-3 -22 -8 -47 -12 -70l-25 -147h-385l35 202l38 4l38 217l-36 5l35 196h355l171 -183c10 -11 29 -29 38 -39h2
c2 23 6 44 10 65l28 157h385z" />
    <glyph glyph-name="Eogonek.sc" unicode="&#xe04f;" horiz-adv-x="815" 
d="M785 0c-135 -20 -181 -35 -181 -61c0 -18 18 -19 42 -19c48 0 90 5 126 7l-24 -136c-37 -5 -160 -27 -293 -27c-138 0 -210 27 -210 101c0 72 59 112 133 135h-348l35 202l38 4l38 217l-36 5l35 196h755l-36 -203h-193l-4 16h-126l-7 -35h306l-31 -178h-306l-6 -36h125
l11 18h193z" />
    <glyph glyph-name="Gbreve.sc" unicode="&#xe050;" horiz-adv-x="885" 
d="M971 869c-44 -195 -279 -195 -360 -195c-61 0 -312 0 -320 195h163c5 -69 104 -72 165 -72c72 0 164 6 191 72h161zM853 11c-107 -19 -261 -34 -404 -34c-188 0 -374 65 -374 249c0 32 2 55 14 128c45 262 270 293 482 293c162 0 299 -20 391 -36l-37 -212h-194l-4 29
c-32 2 -62 3 -83 3c-120 0 -166 0 -183 -97c-11 -64 -12 -80 -12 -93c0 -32 12 -47 52 -47c15 0 31 0 47 2l5 27l-39 7l27 151h378z" />
    <glyph glyph-name="Gcircumflex.sc" unicode="&#xe051;" horiz-adv-x="885" 
d="M853 11c-107 -19 -261 -34 -404 -34c-188 0 -374 65 -374 249c0 32 2 55 14 128c45 262 270 293 482 293c162 0 299 -20 391 -36l-37 -212h-194l-4 29c-32 2 -62 3 -83 3c-120 0 -166 0 -183 -97c-11 -64 -12 -80 -12 -93c0 -32 12 -47 52 -47c15 0 31 0 47 2l5 27l-39 7
l27 151h378zM1016 685h-346l-70 52l-89 -52h-361l218 142h483z" />
    <glyph glyph-name="Gcommaaccent.sc" unicode="&#xe052;" horiz-adv-x="885" 
d="M853 11c-107 -19 -261 -34 -404 -34c-188 0 -374 65 -374 249c0 32 2 55 14 128c45 262 270 293 482 293c162 0 299 -20 391 -36l-37 -212h-194l-4 29c-32 2 -62 3 -83 3c-120 0 -166 0 -183 -97c-11 -64 -12 -80 -12 -93c0 -32 12 -47 52 -47c15 0 31 0 47 2l5 27l-39 7
l27 151h378zM676 -55l-151 -139h-364l106 139h409z" />
    <glyph glyph-name="Gdotaccent.sc" unicode="&#xe053;" horiz-adv-x="885" 
d="M853 11c-107 -19 -261 -34 -404 -34c-188 0 -374 65 -374 249c0 32 2 55 14 128c45 262 270 293 482 293c162 0 299 -20 391 -36l-37 -212h-194l-4 29c-32 2 -62 3 -83 3c-120 0 -166 0 -183 -97c-11 -64 -12 -80 -12 -93c0 -32 12 -47 52 -47c15 0 31 0 47 2l5 27l-39 7
l27 151h378zM812 684h-437l25 142h437z" />
    <glyph glyph-name="Hbar.sc" unicode="&#xe054;" horiz-adv-x="1095" 
d="M1157 467h-47l-46 -261l36 -4l-35 -202h-428l36 207h-180l-36 -207h-427l35 202l37 4l46 261h-41l17 99h41l11 58h391l-11 -58h180l11 58h391l-11 -58h47zM710 415l9 52h-180l-9 -52h180z" />
    <glyph glyph-name="Hcircumflex.sc" unicode="&#xe055;" horiz-adv-x="1095" 
d="M1065 0h-428l36 207h-180l-36 -207h-427l35 202l37 4l38 217l-35 5l35 196h427l-37 -209h180l37 209h428l-35 -196l-38 -5l-38 -217l36 -4zM1096 684h-346l-70 52l-89 -52h-361l218 142h483z" />
    <glyph glyph-name="Ibreve.sc" unicode="&#xe056;" horiz-adv-x="524" 
d="M753 865c-44 -195 -279 -195 -360 -195c-61 0 -312 0 -320 195h163c5 -69 104 -72 165 -72c72 0 164 6 191 72h161zM494 0h-464l35 202l37 4l38 217l-35 5l35 196h464l-35 -196l-38 -5l-38 -217l36 -4z" />
    <glyph glyph-name="IJ.sc" unicode="&#xe058;" horiz-adv-x="1041" 
d="M1086 428l-37 -5l-65 -368c-29 -163 -145 -232 -352 -232c-51 0 -102 1 -154 6l32 179h29c42 0 48 13 54 47l65 368l-36 5l35 196h464zM494 0h-464l35 202l37 4l38 217l-35 5l35 196h464l-35 -196l-38 -5l-38 -217l36 -4z" />
    <glyph glyph-name="Imacron.sc" unicode="&#xe059;" horiz-adv-x="524" 
d="M494 0h-464l35 202l37 4l38 217l-35 5l35 196h464l-35 -196l-38 -5l-38 -217l36 -4zM740 685h-715l25 142h715z" />
    <glyph glyph-name="Iogonek.sc" unicode="&#xe05a;" horiz-adv-x="524" 
d="M487 -209c-70 -15 -184 -27 -293 -27c-138 0 -210 27 -210 101c0 72 50 112 116 135h-70l35 202l37 4l38 217l-35 5l35 196h464l-35 -196l-38 -5l-38 -217l36 -4l-35 -202c-135 -20 -151 -35 -151 -61c0 -18 18 -19 42 -19c48 0 90 5 126 7z" />
    <glyph glyph-name="Itilde.sc" unicode="&#xe05b;" horiz-adv-x="524" 
d="M766 874c-28 -185 -148 -193 -216 -193c-19 0 -67 1 -148 22l-85 22c-39 10 -66 16 -78 16c-27 0 -39 -10 -48 -57h-166c17 187 159 194 229 194c28 0 55 -2 132 -21l84 -21c40 -10 62 -17 87 -17c24 0 35 9 43 55h166zM494 0h-464l35 202l37 4l38 217l-35 5l35 196h464
l-35 -196l-38 -5l-38 -217l36 -4z" />
    <glyph glyph-name="Jcircumflex.sc" unicode="&#xe05c;" horiz-adv-x="523" 
d="M568 428l-37 -5l-65 -368c-29 -163 -145 -232 -352 -232c-87 0 -114 2 -153 6l32 179h28c42 0 48 13 54 47l65 368l-36 5l35 196h464zM814 684h-346l-70 52l-89 -52h-361l218 142h483z" />
    <glyph glyph-name="Kcommaaccent.sc" unicode="&#xe05d;" horiz-adv-x="1053" 
d="M1019 0h-378l-132 284l-50 -284h-429l35 202l38 4l38 217l-36 5l35 196h429l-52 -295l259 295h357l-35 -196l-59 -5l-119 -114l76 -102l58 -5zM754 -55l-151 -139h-364l106 139h409z" />
    <glyph glyph-name="Lacute.sc" unicode="&#xe05e;" horiz-adv-x="726" 
d="M963 826l-310 -142h-391l218 142h483zM696 0h-666l35 202l38 4l38 217l-36 5l35 196h465l-35 -196l-37 -5l-38 -215h33l20 51h193z" />
    <glyph glyph-name="Lcaron.sc" unicode="&#xe05f;" horiz-adv-x="965" 
d="M696 0h-666l35 202l38 4l38 217l-36 5l35 196h465l-35 -196l-37 -5l-38 -215h33l20 51h193zM1065 629l-225 -309h-263l169 309h319z" />
    <glyph glyph-name="Lcommaaccent.sc" unicode="&#xe060;" horiz-adv-x="726" 
d="M696 0h-666l35 202l38 4l38 217l-36 5l35 196h465l-35 -196l-37 -5l-38 -215h33l20 51h193zM587 -55l-151 -139h-364l106 139h409z" />
    <glyph glyph-name="Ldot.sc" unicode="&#xe061;" horiz-adv-x="726" 
d="M696 0h-666l35 202l38 4l38 217l-36 5l35 196h465l-35 -196l-37 -5l-38 -215h33l20 51h193zM749 308h-170l28 160h170z" />
    <glyph glyph-name="Nacute.sc" unicode="&#xe062;" horiz-adv-x="1049" 
d="M1116 826l-310 -142h-391l218 142h483zM1094 428l-37 -5l-74 -423h-328l-164 175c-11 12 -27 30 -37 42h-2c-3 -21 -8 -47 -12 -70l-25 -147h-385l35 202l38 4l38 217l-36 5l35 196h355l171 -183c13 -9 29 -29 38 -39h2c2 23 6 44 10 65l28 157h385z" />
    <glyph glyph-name="Ncaron.sc" unicode="&#xe063;" horiz-adv-x="1049" 
d="M1116 826l-215 -142h-483l-168 142h348l71 -51l88 51h359zM1094 428l-37 -5l-74 -423h-328l-164 175c-11 12 -27 30 -37 42h-2c-3 -21 -8 -47 -12 -70l-25 -147h-385l35 202l38 4l38 217l-36 5l35 196h355l171 -183c13 -9 29 -29 38 -39h2c2 23 6 44 10 65l28 157h385z
" />
    <glyph glyph-name="Ncommaaccent.sc" unicode="&#xe064;" horiz-adv-x="1049" 
d="M1094 428l-37 -5l-74 -423h-328l-164 175c-11 12 -27 30 -37 42h-2c-3 -21 -8 -47 -12 -70l-25 -147h-385l35 202l38 4l38 217l-36 5l35 196h355l171 -183c13 -9 29 -29 38 -39h2c2 23 6 44 10 65l28 157h385zM719 -55l-151 -139h-364l106 139h409z" />
    <glyph glyph-name="Obreve.sc" unicode="&#xe065;" horiz-adv-x="941" 
d="M972 877c-44 -195 -279 -195 -360 -195c-61 0 -312 0 -320 195h163c5 -69 104 -72 165 -72c72 0 164 6 191 72h161zM964 287c-46 -269 -274 -310 -494 -310c-200 0 -393 57 -393 271c0 21 2 45 9 88c42 266 272 311 494 311c203 0 393 -62 393 -274c0 -21 -2 -43 -9 -86z
M592 301c6 44 8 62 8 77c0 41 -14 54 -54 54c-54 0 -77 -24 -89 -109c-6 -42 -7 -59 -7 -73c0 -43 15 -57 54 -57c52 0 77 24 88 108z" />
    <glyph glyph-name="Ohungarumlaut.sc" unicode="&#xe066;" horiz-adv-x="941" 
d="M964 287c-46 -269 -274 -310 -494 -310c-200 0 -393 57 -393 271c0 21 2 45 9 88c42 266 272 311 494 311c203 0 393 -62 393 -274c0 -21 -2 -43 -9 -86zM592 301c6 44 8 62 8 77c0 41 -14 54 -54 54c-54 0 -77 -24 -89 -109c-6 -42 -7 -59 -7 -73c0 -43 15 -57 54 -57
c52 0 77 24 88 108zM1278 825l-311 -142h-324l218 142h417zM768 825h-418l-217 -142h324z" />
    <glyph glyph-name="Omacron.sc" unicode="&#xe067;" horiz-adv-x="941" 
d="M964 287c-46 -269 -274 -310 -494 -310c-200 0 -393 57 -393 271c0 21 2 45 9 88c42 266 272 311 494 311c203 0 393 -62 393 -274c0 -21 -2 -43 -9 -86zM592 301c6 44 8 62 8 77c0 41 -14 54 -54 54c-54 0 -77 -24 -89 -109c-6 -42 -7 -59 -7 -73c0 -43 15 -57 54 -57
c52 0 77 24 88 108zM945 684h-715l25 142h715z" />
    <glyph glyph-name="Oslashacute.sc" unicode="&#xe068;" horiz-adv-x="941" 
d="M1080 825l-310 -142h-391l218 142h483zM24 -24l119 97c-41 41 -66 98 -66 175c0 21 2 45 9 88c42 266 272 311 494 311c79 0 155 -10 220 -34l41 34h183l-119 -97c42 -42 68 -100 68 -177c0 -21 -2 -43 -9 -86c-46 -269 -274 -310 -494 -310c-79 0 -156 10 -221 33
l-42 -34h-183zM592 301c6 44 8 62 8 77c0 41 -14 54 -54 54c-54 0 -77 -24 -89 -109c-6 -42 -7 -59 -7 -73c0 -43 15 -57 54 -57c52 0 77 24 88 108z" />
    <glyph glyph-name="Racute.sc" unicode="&#xe069;" horiz-adv-x="969" 
d="M1066 825l-310 -142h-391l218 142h483zM933 0h-288l-118 186h-67l-32 -186h-398l35 202l37 4l38 217l-35 5l35 196c98 12 283 23 466 23c226 0 409 -51 409 -208c0 -95 -43 -163 -131 -204l27 -25l57 -8zM556 370c34 0 92 0 92 40c0 31 -30 32 -80 32
c-25 0 -49 -2 -64 -3l-12 -68c23 -1 43 -1 64 -1z" />
    <glyph glyph-name="Rcaron.sc" unicode="&#xe06a;" horiz-adv-x="969" 
d="M1065 825l-215 -142h-483l-168 142h348l71 -51l88 51h359zM933 0h-288l-118 186h-67l-32 -186h-398l35 202l37 4l38 217l-35 5l35 196c98 12 283 23 466 23c226 0 409 -51 409 -208c0 -95 -43 -163 -131 -204l27 -25l57 -8zM556 370c34 0 92 0 92 40c0 31 -30 32 -80 32
c-25 0 -49 -2 -64 -3l-12 -68c23 -1 43 -1 64 -1z" />
    <glyph glyph-name="Rcommaaccent.sc" unicode="&#xe06b;" horiz-adv-x="969" 
d="M933 0h-288l-118 186h-67l-32 -186h-398l35 202l37 4l38 217l-35 5l35 196c98 12 283 23 466 23c226 0 409 -51 409 -208c0 -95 -43 -163 -131 -204l27 -25l57 -8zM556 370c34 0 92 0 92 40c0 31 -30 32 -80 32c-25 0 -49 -2 -64 -3l-12 -68c23 -1 43 -1 64 -1zM687 -55
l-151 -139h-364l106 139h409z" />
    <glyph glyph-name="Sacute.sc" unicode="&#xe06c;" horiz-adv-x="843" 
d="M1031 825l-310 -142h-391l218 142h483zM855 233c0 -227 -218 -256 -422 -256c-140 0 -280 6 -379 21l35 200h192l4 -28c57 -1 84 -1 126 -1c38 0 62 0 62 14c0 10 -12 13 -82 19l-51 4c-131 11 -242 48 -242 197c0 239 249 244 460 244c127 0 251 -15 332 -28l-33 -187
h-194l-5 30c-49 1 -85 1 -127 1c-34 0 -58 0 -58 -14c0 -11 11 -13 82 -21l54 -6c172 -18 246 -73 246 -189z" />
    <glyph glyph-name="Scedilla.sc" unicode="&#xe06d;" horiz-adv-x="843" 
d="M855 233c0 -227 -218 -256 -422 -256c-140 0 -280 6 -379 21l35 200h192l4 -28c57 -1 84 -1 126 -1c38 0 62 0 62 14c0 10 -12 13 -82 19l-51 4c-131 11 -242 48 -242 197c0 239 249 244 460 244c127 0 251 -15 332 -28l-33 -187h-194l-5 30c-49 1 -85 1 -127 1
c-34 0 -58 0 -58 -14c0 -11 11 -13 82 -21l54 -6c172 -18 246 -73 246 -189zM660 -55l-176 -139h-365l134 139h407z" />
    <glyph glyph-name="Scircumflex.sc" unicode="&#xe06e;" horiz-adv-x="843" 
d="M855 233c0 -227 -218 -256 -422 -256c-140 0 -280 6 -379 21l35 200h192l4 -28c57 -1 84 -1 126 -1c38 0 62 0 62 14c0 10 -12 13 -82 19l-51 4c-131 11 -242 48 -242 197c0 239 249 244 460 244c127 0 251 -15 332 -28l-33 -187h-194l-5 30c-49 1 -85 1 -127 1
c-34 0 -58 0 -58 -14c0 -11 11 -13 82 -21l54 -6c172 -18 246 -73 246 -189zM986 685h-346l-70 52l-89 -52h-361l218 142h483z" />
    <glyph glyph-name="Scommaaccent.sc" unicode="&#xe06f;" horiz-adv-x="843" 
d="M855 233c0 -227 -218 -256 -422 -256c-140 0 -280 6 -379 21l35 200h192l4 -28c57 -1 84 -1 126 -1c38 0 62 0 62 14c0 10 -12 13 -82 19l-51 4c-131 11 -242 48 -242 197c0 239 249 244 460 244c127 0 251 -15 332 -28l-33 -187h-194l-5 30c-49 1 -85 1 -127 1
c-34 0 -58 0 -58 -14c0 -11 11 -13 82 -21l54 -6c172 -18 246 -73 246 -189zM658 -55l-151 -139h-364l106 139h409z" />
    <glyph glyph-name="Tbar.sc" unicode="&#xe070;" horiz-adv-x="868" 
d="M906 391h-175l-6 35h-19l-14 -78h168l-16 -89h-168l-9 -53l35 -4l-35 -202h-465l35 202l37 4l9 53h-169l16 89h169l14 78h-19l-20 -35h-176l42 233h808z" />
    <glyph glyph-name="Tcaron.sc" unicode="&#xe071;" horiz-adv-x="868" 
d="M1014 826l-215 -142h-483l-168 142h348l71 -51l88 51h359zM906 391h-175l-6 35h-19l-39 -220l35 -4l-35 -202h-465l35 202l37 4l39 220h-19l-20 -35h-176l42 233h808z" />
    <glyph glyph-name="Tcommaaccent.sc" unicode="&#xe072;" horiz-adv-x="868" 
d="M906 391h-175l-6 35h-19l-39 -220l35 -4l-35 -202h-465l35 202l37 4l39 220h-19l-20 -35h-176l42 233h808zM647 -55l-151 -139h-364l106 139h409z" />
    <glyph glyph-name="Ubreve.sc" unicode="&#xe073;" horiz-adv-x="1029" 
d="M1000 870c-44 -195 -279 -195 -360 -195c-61 0 -312 0 -320 195h163c5 -69 104 -72 165 -72c72 0 164 6 191 72h161zM1074 428l-38 -5l-28 -161c-50 -285 -298 -285 -495 -285c-198 0 -405 14 -405 233c0 25 2 52 8 82l24 131l-35 5l35 196h415l-62 -347
c-3 -18 -5 -32 -5 -44c0 -35 15 -49 57 -49c58 0 74 24 86 93l62 347h416z" />
    <glyph glyph-name="Uhungarumlaut.sc" unicode="&#xe074;" horiz-adv-x="1029" 
d="M1074 428l-38 -5l-28 -161c-50 -285 -298 -285 -495 -285c-198 0 -405 14 -405 233c0 25 2 52 8 82l24 131l-35 5l35 196h415l-62 -347c-3 -18 -5 -32 -5 -44c0 -35 15 -49 57 -49c58 0 74 24 86 93l62 347h416zM1351 827l-311 -142h-324l218 142h417zM841 827h-418
l-217 -142h324z" />
    <glyph glyph-name="Umacron.sc" unicode="&#xe075;" horiz-adv-x="1029" 
d="M1074 428l-38 -5l-28 -161c-50 -285 -298 -285 -495 -285c-198 0 -405 14 -405 233c0 25 2 52 8 82l24 131l-35 5l35 196h415l-62 -347c-3 -18 -5 -32 -5 -44c0 -35 15 -49 57 -49c58 0 74 24 86 93l62 347h416zM990 685h-715l25 142h715z" />
    <glyph glyph-name="Uogonek.sc" unicode="&#xe076;" horiz-adv-x="1029" 
d="M1074 428l-38 -5l-28 -161c-40 -229 -207 -274 -374 -283c-32 -12 -45 -26 -45 -40c0 -18 18 -19 42 -19c48 0 90 5 126 7l-24 -136c-37 -5 -160 -27 -293 -27c-138 0 -210 27 -210 101c0 58 38 97 92 124c-121 19 -214 74 -214 221c0 25 2 52 8 82l24 131l-35 5l35 196
h415l-62 -347c-3 -18 -5 -32 -5 -44c0 -35 15 -49 57 -49c58 0 74 24 86 93l62 347h416z" />
    <glyph glyph-name="Uring.sc" unicode="&#xe077;" horiz-adv-x="1029" 
d="M713 795c0 25 -27 35 -64 35c-39 0 -66 -10 -66 -35c0 -24 27 -34 66 -34c37 0 64 10 64 34zM877 794c0 -95 -91 -147 -228 -147c-139 0 -231 52 -231 147s92 148 231 148c138 0 228 -53 228 -148zM1074 428l-38 -5l-28 -161c-50 -285 -298 -285 -495 -285
c-198 0 -405 14 -405 233c0 25 2 52 8 82l24 131l-35 5l35 196h415l-62 -347c-3 -18 -5 -32 -5 -44c0 -35 15 -49 57 -49c58 0 74 24 86 93l62 347h416z" />
    <glyph glyph-name="Utilde.sc" unicode="&#xe078;" horiz-adv-x="1029" 
d="M1022 875c-28 -185 -148 -193 -216 -193c-19 0 -67 1 -148 22l-85 22c-39 10 -66 16 -78 16c-27 0 -39 -10 -48 -57h-166c17 187 159 194 229 194c28 0 55 -2 132 -21l84 -21c40 -10 62 -17 87 -17c24 0 35 9 43 55h166zM1074 428l-38 -5l-28 -161
c-50 -285 -298 -285 -495 -285c-198 0 -405 14 -405 233c0 25 2 52 8 82l24 131l-35 5l35 196h415l-62 -347c-3 -18 -5 -32 -5 -44c0 -35 15 -49 57 -49c58 0 74 24 86 93l62 347h416z" />
    <glyph glyph-name="Wacute.sc" unicode="&#xe079;" horiz-adv-x="1356" 
d="M1287 827l-310 -142h-391l218 142h483zM1401 428l-39 -5l-164 -423h-407l-52 207c-7 28 -8 65 -7 85h-4c-8 -21 -23 -57 -40 -85l-124 -207h-407l-16 423l-36 5l35 196h366l-9 -209c-3 -55 -7 -93 -12 -126h5c16 35 31 67 45 91l71 126h311l26 -126c7 -33 9 -56 12 -91h4
c11 40 21 79 36 126l64 209h377z" />
    <glyph glyph-name="Wcircumflex.sc" unicode="&#xe07a;" horiz-adv-x="1356" 
d="M1401 428l-39 -5l-164 -423h-407l-52 207c-7 28 -8 65 -7 85h-4c-8 -21 -23 -57 -40 -85l-124 -207h-407l-16 423l-36 5l35 196h366l-9 -209c-3 -55 -7 -93 -12 -126h5c16 35 31 67 45 91l71 126h311l26 -126c7 -33 9 -56 12 -91h4c11 40 21 79 36 126l64 209h377z
M1219 684h-346l-70 52l-89 -52h-361l218 142h483z" />
    <glyph glyph-name="Wdieresis.sc" unicode="&#xe07b;" horiz-adv-x="1356" 
d="M1401 428l-39 -5l-164 -423h-407l-52 207c-7 28 -8 65 -7 85h-4c-8 -21 -23 -57 -40 -85l-124 -207h-407l-16 423l-36 5l35 196h366l-9 -209c-3 -55 -7 -93 -12 -126h5c16 35 31 67 45 91l71 126h311l26 -126c7 -33 9 -56 12 -91h4c11 40 21 79 36 126l64 209h377z
M1154 685h-315l24 140h315zM762 685l24 140h-315l-24 -140h315z" />
    <glyph glyph-name="Wgrave.sc" unicode="&#xe07c;" horiz-adv-x="1356" 
d="M1030 684h-391l-260 142h484zM1401 428l-39 -5l-164 -423h-407l-52 207c-7 28 -8 65 -7 85h-4c-8 -21 -23 -57 -40 -85l-124 -207h-407l-16 423l-36 5l35 196h366l-9 -209c-3 -55 -7 -93 -12 -126h5c16 35 31 67 45 91l71 126h311l26 -126c7 -33 9 -56 12 -91h4
c11 40 21 79 36 126l64 209h377z" />
    <glyph glyph-name="Ycircumflex.sc" unicode="&#xe07d;" horiz-adv-x="912" 
d="M957 428l-79 -9l-201 -217l-3 -16l35 -5l-31 -181h-454l31 181l49 5l3 16l-126 217l-76 9l35 196h315l43 -106c11 -27 20 -51 28 -78h4c17 27 36 51 56 78l81 106h325zM1010 685h-346l-70 52l-89 -52h-361l218 142h483z" />
    <glyph glyph-name="Ygrave.sc" unicode="&#xe07e;" horiz-adv-x="912" 
d="M828 685h-391l-260 142h484zM957 428l-79 -9l-201 -217l-3 -16l35 -5l-31 -181h-454l31 181l49 5l3 16l-126 217l-76 9l35 196h315l43 -106c11 -27 20 -51 28 -78h4c17 27 36 51 56 78l81 106h325z" />
    <glyph glyph-name="Zacute.sc" unicode="&#xe07f;" horiz-adv-x="775" 
d="M1038 827l-310 -142h-391l218 142h483zM745 0h-715l29 170l285 243h-54l-14 -30h-179l43 241h714l-32 -181l-279 -232h50l15 30h179z" />
    <glyph glyph-name="Zdotaccent.sc" unicode="&#xe080;" horiz-adv-x="775" 
d="M745 0h-715l29 170l285 243h-54l-14 -30h-179l43 241h714l-32 -181l-279 -232h50l15 30h179zM747 684h-437l25 142h437z" />
    <glyph glyph-name="Idotaccent.sc" unicode="&#xe081;" horiz-adv-x="524" 
d="M494 0h-464l35 202l37 4l38 217l-35 5l35 196h464l-35 -196l-38 -5l-38 -217l36 -4zM601 684h-437l25 142h437z" />
    <glyph glyph-name="Breve.sc" unicode="&#xe082;" horiz-adv-x="740" 
d="M853 841c-44 -195 -279 -195 -360 -195c-61 0 -312 0 -320 195h163c5 -69 104 -72 165 -72c72 0 164 6 191 72h161z" />
    <glyph glyph-name="Caron.sc" unicode="&#xe083;" horiz-adv-x="926" 
d="M1035 793l-215 -142h-483l-168 142h348l71 -51l88 51h359z" />
    <glyph glyph-name="Circumflex.sc" unicode="&#xe084;" horiz-adv-x="926" 
d="M1010 651h-346l-70 52l-89 -52h-361l218 142h483z" />
    <glyph glyph-name="Dotaccent.sc" unicode="&#xe085;" horiz-adv-x="497" 
d="M581 651h-437l25 142h437z" />
    <glyph glyph-name="Hungarumlaut.sc" unicode="&#xe086;" horiz-adv-x="1180" 
d="M1289 793l-311 -142h-324l218 142h417zM779 793h-418l-217 -142h324z" />
    <glyph glyph-name="Ogonek.sc" unicode="&#xe087;" horiz-adv-x="578" 
d="M509 -209c-37 -5 -160 -27 -293 -27c-138 0 -210 27 -210 101c0 134 205 156 332 170l208 -35c-135 -20 -181 -35 -181 -61c0 -18 18 -19 42 -19c48 0 90 5 126 7z" />
    <glyph glyph-name="Ring.sc" unicode="&#xe088;" horiz-adv-x="519" 
d="M457 778c0 25 -27 35 -64 35c-39 0 -66 -10 -66 -35c0 -24 27 -34 66 -34c37 0 64 10 64 34zM621 777c0 -95 -91 -147 -228 -147c-139 0 -231 52 -231 147s92 148 231 148c138 0 228 -53 228 -148z" />
    <glyph glyph-name="Tilde.sc" unicode="&#xe089;" horiz-adv-x="767" 
d="M884 835c-28 -185 -148 -193 -216 -193c-19 0 -67 1 -148 22l-85 22c-39 10 -66 16 -78 16c-27 0 -39 -10 -48 -57h-166c17 187 159 194 229 194c28 0 55 -2 132 -21l84 -21c40 -10 62 -17 87 -17c24 0 35 9 43 55h166z" />
    <glyph glyph-name="exclam.sc" unicode="&#xe08b;" horiz-adv-x="418" 
d="M373 0h-331l31 178h331zM505 666l-107 -444h-303l52 444h358z" />
    <glyph glyph-name="ampersand.sc" unicode="&#xe08c;" horiz-adv-x="1067" 
d="M1037 0h-292l-23 21c-39 -16 -141 -37 -284 -37c-235 0 -379 35 -379 189c0 86 54 144 188 177c-60 38 -79 76 -79 120c0 177 239 177 401 177c127 0 261 -15 341 -28l-36 -200h-192l-5 35h-105c-21 0 -46 0 -46 -19c0 -11 7 -16 18 -23l240 -157c6 15 7 22 9 31l-31 15
l14 80h323l-14 -80l-38 -15c-11 -61 -41 -105 -84 -148l88 -57zM554 135l-111 86c-13 -8 -22 -22 -22 -42c0 -45 37 -49 81 -49c17 0 34 2 52 5z" />
    <glyph glyph-name="question.sc" unicode="&#xe08d;" horiz-adv-x="701" 
d="M443 0h-346l31 179h346zM763 527c0 -104 -81 -153 -172 -201c-136 -72 -139 -70 -146 -105h-276c14 75 22 119 84 170c57 47 65 49 65 66c0 16 -18 16 -74 16h-22l-11 -28h-103l34 194c63 19 177 36 322 36c224 0 299 -58 299 -148z" />
    <glyph glyph-name="Grave.sc" unicode="&#xe08e;" horiz-adv-x="736" 
d="M820 651h-391l-260 142h484z" />
    <glyph glyph-name="exclamdown.sc" unicode="&#xe08f;" horiz-adv-x="418" 
d="M380 -42h-358l104 444h303zM483 624l-32 -178h-331l32 178h331z" />
    <glyph glyph-name="Dieresis.sc" unicode="&#xe090;" horiz-adv-x="767" 
d="M852 653h-315l24 140h315zM460 653l24 140h-315l-24 -140h315z" />
    <glyph glyph-name="Macron.sc" unicode="&#xe091;" horiz-adv-x="775" 
d="M859 651h-715l25 142h715z" />
    <glyph glyph-name="Acute.sc" unicode="&#xe092;" horiz-adv-x="736" 
d="M845 793l-310 -142h-391l218 142h483z" />
    <glyph glyph-name="Cedilla.sc" unicode="&#xe093;" horiz-adv-x="775" 
d="M859 651h-715l25 142h715z" />
    <glyph glyph-name="questiondown.sc" unicode="&#xe094;" horiz-adv-x="701" 
d="M368 624h346l-31 -179h-346zM48 97c0 104 81 153 172 201c136 72 139 70 146 105h276c-14 -75 -22 -119 -84 -170c-57 -47 -65 -49 -65 -66c0 -16 18 -16 74 -16h22l11 28h103l-34 -194c-63 -19 -177 -36 -322 -36c-224 0 -299 58 -299 148z" />
    <glyph glyph-name="zero.fitted" unicode="&#xe097;" 
d="M1119 338c-53 -303 -255 -365 -571 -365c-304 0 -463 95 -463 326c0 31 3 64 11 107c51 291 276 364 572 364c302 0 462 -94 462 -325c0 -30 -3 -64 -11 -107zM651 367c11 59 15 92 15 114c0 33 -10 40 -32 40c-37 0 -48 -19 -70 -144c-11 -59 -15 -92 -15 -114
c0 -34 11 -41 33 -41c36 0 47 20 69 145z" />
    <glyph glyph-name="two.fitted" unicode="&#xe098;" 
d="M998 0h-931l15 88c38 218 139 305 378 371c167 46 176 52 176 69c0 12 -13 16 -93 16c-21 0 -68 -1 -126 -4l-10 -37h-240l38 213c175 45 363 54 476 54c338 0 438 -75 438 -198c0 -183 -197 -242 -383 -283c-161 -36 -165 -37 -172 -41h232l12 41h240z" />
    <glyph glyph-name="three.fitted" unicode="&#xe099;" 
d="M1057 252c0 -265 -301 -279 -523 -279c-185 0 -379 29 -458 61l38 213h240l-3 -36c60 -2 117 -2 170 -2c42 0 82 0 82 31c0 27 -23 30 -110 30h-258l37 209h291c50 0 88 0 88 32c0 21 -16 27 -80 27c-51 0 -107 -1 -163 -3l-9 -33h-240l37 207c102 32 293 61 478 61
c232 0 441 -41 441 -197c0 -84 -29 -148 -132 -197c61 -24 74 -90 74 -124z" />
    <glyph glyph-name="four.fitted" unicode="&#xe09a;" 
d="M1081 122h-104l-7 -39l42 -4l-13 -79h-548l13 79l45 4l7 39h-465l34 194l680 427h322l-72 -405h104zM586 338l22 122l-184 -122h162z" />
    <glyph glyph-name="five.fitted" unicode="&#xe09b;" 
d="M1054 292c0 -280 -266 -319 -512 -319c-202 0 -355 19 -451 47l39 221h232v-41c30 -1 52 -1 62 -1c110 0 150 0 150 40c0 27 -35 30 -90 30h-356l139 474h845l-45 -253h-233l-1 23h-253l-8 -30h37c350 0 445 -58 445 -191z" />
    <glyph glyph-name="six.fitted" unicode="&#xe09c;" 
d="M595 488c25 5 78 7 94 7c250 0 389 -46 389 -204c0 -287 -278 -318 -535 -318c-365 0 -434 156 -434 298c0 34 8 96 15 136c33 182 68 363 538 363c191 0 359 -28 434 -46l-38 -216h-233l-2 27c-44 1 -91 3 -131 3c-72 0 -89 0 -96 -42zM625 248c3 17 5 27 5 35
c0 15 -7 22 -30 22c-16 0 -36 -3 -38 -4l-9 -47c-2 -11 -3 -22 -3 -31c0 -19 6 -32 29 -32c33 0 41 29 46 57z" />
    <glyph glyph-name="seven.fitted" unicode="&#xe09d;" 
d="M1093 504l-543 -504h-485l554 513h-206l-14 -41h-233l48 271h922z" />
    <glyph glyph-name="eight.fitted" unicode="&#xe09e;" 
d="M1097 238c0 -261 -338 -265 -553 -265h-11c-342 0 -469 69 -469 211c0 101 49 155 133 190c-54 32 -76 84 -76 142c0 254 329 254 552 254h11c350 0 472 -65 472 -196c0 -91 -50 -161 -136 -200c55 -30 77 -84 77 -136zM652 228c2 10 2 15 2 19c0 25 -14 41 -55 41h-11
c-47 0 -67 -22 -72 -54c-2 -11 -2 -15 -2 -20c0 -25 14 -40 54 -40h11c47 0 67 21 73 54zM700 518c2 9 2 13 2 16c0 19 -12 33 -54 33h-11c-49 0 -63 -19 -67 -43c-2 -10 -2 -13 -2 -17c0 -19 13 -32 53 -32h11c48 0 63 18 68 43z" />
    <glyph glyph-name="nine.fitted" unicode="&#xe09f;" 
d="M619 255c-25 -5 -78 -7 -94 -7c-250 0 -389 46 -389 204c0 287 278 318 535 318c365 0 434 -156 434 -298c0 -34 -8 -96 -15 -136c-33 -182 -68 -363 -538 -363c-191 0 -359 28 -434 46l38 216h233l2 -27c44 -1 91 -3 131 -3c72 0 89 0 96 42zM589 495
c-3 -17 -5 -27 -5 -35c0 -15 7 -22 30 -22c16 0 36 3 38 4l9 47c2 11 3 22 3 31c0 19 -6 32 -29 32c-33 0 -41 -29 -46 -57z" />
    <glyph glyph-name="zero.taboldstyle" unicode="&#xe100;" 
d="M1116 318c-46 -284 -261 -345 -569 -345c-287 0 -464 97 -464 318c0 27 2 56 9 96c46 284 273 344 568 344c288 0 465 -96 465 -317c0 -27 -3 -56 -9 -96zM648 347c8 45 11 71 11 90c0 33 -10 45 -33 45c-36 0 -49 -31 -65 -124c-8 -46 -12 -73 -12 -92
c0 -32 10 -44 32 -44c37 0 50 32 67 125z" />
    <glyph glyph-name="one.taboldstyle" unicode="&#xe101;" 
d="M1009 0h-934l43 241l237 9l33 188l-245 -48l43 240l387 80h325l-81 -460l235 -9z" />
    <glyph glyph-name="two.taboldstyle" unicode="&#xe102;" 
d="M995 0h-927l43 248l282 104c206 77 235 92 235 128c0 15 -10 25 -81 25c-59 0 -68 0 -135 -3l-11 -39h-241l37 207c103 32 295 61 478 61c336 0 438 -74 438 -194c0 -168 -119 -203 -305 -255l-120 -34h350z" />
    <glyph glyph-name="three.taboldstyle" unicode="&#xe103;" 
d="M1050 213c0 -265 -301 -279 -523 -279c-185 0 -379 29 -458 61l38 213h240l-3 -36c60 -2 117 -2 170 -2c42 0 82 0 82 31c0 27 -23 30 -110 30h-258l37 209h291c50 0 88 0 88 32c0 21 -16 27 -80 27c-51 0 -107 -1 -163 -3l-9 -33h-240l37 207c102 32 293 61 478 61
c232 0 441 -41 441 -197c0 -84 -29 -148 -132 -197c61 -24 74 -90 74 -124z" />
    <glyph glyph-name="four.taboldstyle" unicode="&#xe104;" 
d="M1073 90h-104l-7 -40l43 -4l-14 -79h-548l14 79l44 4l7 40h-465l34 193l680 427h322l-72 -404h104zM580 306l22 121l-184 -121h162z" />
    <glyph glyph-name="five.taboldstyle" unicode="&#xe105;" 
d="M1048 259c0 -280 -266 -319 -512 -319c-202 0 -355 19 -451 47l39 221h232v-41c30 -1 52 -1 62 -1c110 0 150 0 150 40c0 27 -35 30 -90 30h-356l139 474h845l-45 -253h-233l-1 23h-253l-8 -30h37c350 0 445 -58 445 -191z" />
    <glyph glyph-name="six.taboldstyle" unicode="&#xe106;" 
d="M593 488c25 5 78 7 94 7c250 0 389 -46 389 -204c0 -287 -278 -318 -535 -318c-365 0 -434 156 -434 298c0 34 8 96 15 136c33 182 68 363 538 363c191 0 359 -28 434 -46l-38 -216h-233l-2 27c-44 1 -91 3 -131 3c-72 0 -89 0 -96 -42zM623 248c3 17 5 27 5 35
c0 15 -7 22 -30 22c-16 0 -36 -3 -38 -4l-9 -47c-2 -11 -3 -22 -3 -31c0 -19 6 -32 29 -32c33 0 41 29 46 57z" />
    <glyph glyph-name="seven.taboldstyle" unicode="&#xe107;" 
d="M1113 471l-579 -504h-485l589 513h-206l-14 -41h-233l48 271h922z" />
    <glyph glyph-name="eight.taboldstyle" unicode="&#xe108;" 
d="M1097 238c0 -261 -338 -265 -553 -265h-11c-342 0 -469 69 -469 211c0 101 49 155 133 190c-54 32 -76 84 -76 142c0 254 329 254 552 254h11c350 0 472 -65 472 -196c0 -91 -50 -161 -136 -200c55 -30 77 -84 77 -136zM652 228c2 10 2 15 2 19c0 25 -14 41 -55 41h-11
c-47 0 -67 -22 -72 -54c-2 -11 -2 -15 -2 -20c0 -25 14 -40 54 -40h11c47 0 67 21 73 54zM700 518c2 9 2 13 2 16c0 19 -12 33 -54 33h-11c-49 0 -63 -19 -67 -43c-2 -10 -2 -13 -2 -17c0 -19 13 -32 53 -32h11c48 0 63 18 68 43z" />
    <glyph glyph-name="nine.taboldstyle" unicode="&#xe109;" 
d="M613 215c-25 -5 -78 -7 -94 -7c-250 0 -389 46 -389 204c0 287 278 318 535 318c365 0 434 -156 434 -298c0 -34 -8 -96 -15 -136c-33 -182 -68 -363 -538 -363c-191 0 -359 28 -434 46l38 216h233l2 -27c44 -1 91 -3 131 -3c72 0 89 0 96 42zM583 455
c-3 -17 -5 -27 -5 -35c0 -15 7 -22 30 -22c16 0 36 3 38 4l9 47c2 11 3 22 3 31c0 19 -6 32 -29 32c-33 0 -41 -29 -46 -57z" />
    <glyph glyph-name="zero.denominator" unicode="&#xe10a;" horiz-adv-x="672" 
d="M681 223c-32 -181 -159 -237 -349 -237c-189 0 -295 56 -263 237v2c32 181 158 237 347 237c190 0 297 -56 265 -237v-2zM402 222v4c14 76 10 88 -12 88c-20 0 -28 -12 -42 -88v-4c-14 -75 -10 -87 10 -87c22 0 30 12 44 87z" />
    <glyph glyph-name="one.denominator" unicode="&#xe10b;" horiz-adv-x="451" 
d="M421 0h-391l25 145l58 6l21 121l-59 -15l25 140l147 49h195l-52 -295l56 -6z" />
    <glyph glyph-name="two.denominator" unicode="&#xe10c;" horiz-adv-x="631" 
d="M589 0h-559l9 53c23 131 102 187 227 222c102 28 103 29 105 40c1 7 0 11 -55 11c-13 0 -41 0 -76 -2l-6 -22h-144l22 128c105 27 219 32 286 32c216 0 276 -46 258 -145c-14 -81 -79 -122 -225 -144c-93 -14 -102 -16 -103 -23v-1h140l7 24h144z" />
    <glyph glyph-name="three.denominator" unicode="&#xe10d;" horiz-adv-x="626" 
d="M618 129c-18 -106 -107 -145 -310 -145c-111 0 -228 17 -275 36l23 128h144l-2 -21c36 -2 71 -2 97 -2c43 0 51 5 54 17v1c2 15 -7 16 -65 16h-155l22 125h157c53 0 67 6 69 20v1c2 12 -4 18 -47 18c-31 0 -65 -1 -98 -2l-5 -20h-144l21 124c62 20 177 37 288 37
c149 0 282 -19 262 -130l-1 -5c-5 -27 -24 -79 -76 -101c48 -19 46 -72 42 -92z" />
    <glyph glyph-name="four.denominator" unicode="&#xe10e;" horiz-adv-x="678" 
d="M660 73h-63l-4 -23l26 -3l-8 -47h-329l8 47l27 3l4 23h-279l21 117l407 256h193l-43 -243h63zM363 203l13 73l-110 -73h97z" />
    <glyph glyph-name="five.denominator" unicode="&#xe10f;" horiz-adv-x="614" 
d="M609 143c-20 -112 -134 -159 -302 -159c-122 0 -213 11 -271 28l23 133h139l1 -25c17 -1 30 -1 36 -1c67 0 87 3 90 20l1 4c3 16 -18 18 -71 18h-197l83 285h507l-27 -152h-140v14h-152l-4 -18h22c245 0 282 -33 262 -144v-3z" />
    <glyph glyph-name="six.denominator" unicode="&#xe110;" horiz-adv-x="642" 
d="M638 149c-18 -102 -100 -165 -317 -165c-294 0 -268 150 -251 243l-3 -12c19 106 45 247 325 247c115 0 216 -17 261 -28l-23 -129h-140l-1 16c-27 1 -55 2 -79 2c-43 0 -53 0 -57 -25l-1 -5c16 3 47 4 56 4c167 0 251 -28 231 -143zM370 149v3c4 21 6 31 -15 31
c-9 0 -22 -2 -23 -2l-5 -29c-3 -21 -5 -37 16 -37s24 17 27 34z" />
    <glyph glyph-name="seven.denominator" unicode="&#xe111;" horiz-adv-x="645" 
d="M668 302l-347 -302h-291l353 308h-123l-9 -25h-140l29 163h553z" />
    <glyph glyph-name="eight.denominator" unicode="&#xe112;" horiz-adv-x="676" 
d="M670 150c0 -155 -204 -166 -332 -166h-7c-206 0 -281 39 -281 117c0 55 27 97 80 123c-26 17 -47 41 -47 82c0 147 203 156 332 156h7c206 0 283 -41 283 -111c0 -61 -30 -100 -82 -127c33 -18 47 -45 47 -74zM403 137c1 6 1 9 1 12c0 15 -9 24 -33 24h-7
c-28 0 -40 -13 -44 -36c-1 -3 -1 -6 -1 -9c0 -15 9 -24 33 -24h7c28 0 40 13 44 33zM431 311l1 3c0 2 1 4 1 6c0 12 -8 20 -33 20h-7c-29 0 -37 -11 -40 -26l-1 -3v-5c0 -12 7 -21 32 -21h7c29 0 38 11 40 26z" />
    <glyph glyph-name="nine.denominator" unicode="&#xe113;" horiz-adv-x="642" 
d="M652 230c-18 -105 -43 -246 -324 -246c-115 0 -216 17 -262 27l23 129h139l1 -16c31 -1 63 -1 93 -1s41 3 45 25v5c-15 -3 -46 -4 -55 -4c-167 0 -251 30 -231 143l1 4c17 99 100 166 317 166c294 0 267 -151 251 -244zM387 265l5 28c4 21 7 38 -15 38s-25 -18 -28 -34
l-1 -4c-3 -20 -5 -30 16 -30c10 0 22 2 23 2z" />
    <glyph glyph-name="parenleft.denominator" unicode="&#xe117;" horiz-adv-x="353" 
d="M308 -51h-196c-30 42 -54 113 -54 196c0 108 45 221 135 309h210c-81 -93 -125 -217 -125 -318c0 -80 10 -141 30 -187z" />
    <glyph glyph-name="parenright.denominator" unicode="&#xe118;" horiz-adv-x="353" 
d="M116 454h196c30 -42 54 -113 54 -196c0 -108 -45 -221 -135 -309h-210c81 93 125 217 125 318c0 80 -10 141 -30 187z" />
    <glyph glyph-name="cent.denominator" unicode="&#xe119;" horiz-adv-x="549" 
d="M518 -4c-28 -8 -63 -14 -106 -16l-17 -99h-235l20 116c-79 30 -117 99 -117 180c0 16 1 33 6 60c18 100 82 171 188 199l21 119h235l-18 -102c44 -5 81 -14 101 -16l-33 -187h-101l1 30h-9c-59 0 -71 -5 -80 -58c-4 -22 -5 -31 -5 -38c0 -27 16 -29 63 -29
c34 0 87 1 115 1z" />
    <glyph glyph-name="comma.denominator" unicode="&#xe11a;" horiz-adv-x="321" 
d="M311 114l-127 -205h-171l97 205h201z" />
    <glyph glyph-name="dollar.denominator" unicode="&#xe11b;" horiz-adv-x="608" 
d="M605 155c0 -99 -78 -162 -178 -173l-17 -101h-235l17 97c-55 2 -106 6 -153 10l26 145h101l2 -24c40 -1 78 -1 127 -1c32 0 52 0 52 15c0 11 -13 13 -62 17l-38 3c-119 10 -168 50 -168 141c0 116 96 155 196 165l18 106h235l-18 -105c50 -3 95 -10 128 -14l-24 -137
h-101l-2 21c-47 2 -88 2 -131 2c-32 0 -54 0 -54 -15c0 -13 16 -14 70 -17l36 -2c138 -8 173 -54 173 -133z" />
    <glyph glyph-name="hyphen.denominator" unicode="&#xe11c;" horiz-adv-x="261" 
d="M256 146h-201l28 155h201z" />
    <glyph glyph-name="period.denominator" unicode="&#xe11d;" horiz-adv-x="297" 
d="M266 -1h-237l21 115h237z" />
    <glyph glyph-name="zero.numerator" unicode="&#xe11e;" horiz-adv-x="672" 
d="M734 513c-32 -181 -159 -227 -349 -227c-167 0 -269 51 -269 187c0 18 2 39 6 62c32 181 158 227 347 227c168 0 271 -52 271 -188c0 -18 -2 -38 -6 -61zM455 522c5 31 8 52 8 66c0 22 -7 26 -20 26c-20 0 -28 -12 -42 -88c-6 -31 -8 -52 -8 -66c0 -21 6 -25 18 -25
c22 0 30 12 44 87z" />
    <glyph glyph-name="one.numerator" unicode="&#xe11f;" horiz-adv-x="451" 
d="M473 300h-391l26 145l58 6l21 121l-59 -15l24 140l148 49h195l-52 -295l56 -6z" />
    <glyph glyph-name="two.numerator" unicode="&#xe120;" horiz-adv-x="631" 
d="M641 300h-559l10 53c23 131 102 186 227 222c86 25 105 27 105 40c0 8 -6 11 -55 11c-13 0 -41 0 -76 -2l-6 -22h-144l22 128c105 27 219 32 286 32c192 0 261 -48 261 -129c0 -119 -110 -140 -228 -158c-94 -14 -102 -18 -103 -26h140l7 24h144z" />
    <glyph glyph-name="three.numerator" unicode="&#xe121;" horiz-adv-x="626" 
d="M674 441c0 -157 -184 -157 -313 -157c-111 0 -228 17 -275 36l22 128h144l-1 -21c35 -2 70 -2 96 -2c30 0 55 0 55 19c0 14 -12 15 -66 15h-155l22 125h157c35 0 70 0 70 25c0 10 -9 14 -47 14c-31 0 -65 -1 -98 -2l-6 -20h-144l22 124c62 20 177 37 288 37
c139 0 264 -19 264 -124c0 -49 -29 -87 -79 -112c38 -23 44 -57 44 -85z" />
    <glyph glyph-name="four.numerator" unicode="&#xe122;" horiz-adv-x="678" 
d="M713 373h-63l-4 -23l26 -3l-9 -47h-329l9 47l27 3l4 23h-279l21 117l407 256h193l-43 -243h63zM416 503l13 73l-110 -73h97z" />
    <glyph glyph-name="five.numerator" unicode="&#xe123;" horiz-adv-x="614" 
d="M667 476c0 -168 -151 -192 -307 -192c-122 0 -213 11 -271 28l23 133h139l1 -25c17 -1 30 -1 36 -1c53 0 91 0 91 23c0 17 -11 19 -71 19h-197l83 285h507l-27 -152h-140v14h-152l-4 -18h22c209 0 267 -35 267 -114z" />
    <glyph glyph-name="six.numerator" unicode="&#xe124;" horiz-adv-x="642" 
d="M123 538c16 104 53 224 322 224c115 0 216 -17 261 -28l-23 -129h-140l-1 16c-27 1 -55 2 -79 2c-43 0 -53 0 -57 -25l-1 -5c16 3 47 4 56 4c151 0 234 -31 234 -122c0 -10 -1 -20 -4 -36c-18 -102 -100 -155 -317 -155c-220 0 -259 89 -259 173c0 24 3 47 8 81zM423 449
c2 10 2 16 2 21c0 9 -3 13 -17 13c-9 0 -22 -2 -23 -2l-5 -29c-1 -7 -2 -14 -2 -19c0 -11 4 -18 18 -18c21 0 24 17 27 34z" />
    <glyph glyph-name="seven.numerator" unicode="&#xe125;" horiz-adv-x="645" 
d="M721 602l-348 -302h-291l354 308h-123l-9 -25h-140l29 163h553z" />
    <glyph glyph-name="eight.numerator" unicode="&#xe126;" horiz-adv-x="676" 
d="M724 450c0 -155 -204 -166 -332 -166h-7c-206 0 -281 39 -281 117c0 55 27 97 80 123c-26 17 -47 41 -47 82c0 147 203 156 332 156h7c206 0 283 -41 283 -111c0 -61 -30 -100 -82 -127c33 -18 47 -45 47 -74zM457 437c1 6 1 9 1 12c0 15 -9 24 -33 24h-7
c-28 0 -40 -13 -44 -36c-1 -3 -1 -6 -1 -9c0 -15 9 -24 33 -24h7c28 0 40 13 44 33zM485 611l1 3c0 2 1 4 1 6c0 12 -8 20 -33 20h-7c-29 0 -37 -11 -40 -26l-1 -3v-5c0 -12 7 -21 32 -21h7c29 0 38 11 40 26z" />
    <glyph glyph-name="nine.numerator" unicode="&#xe127;" horiz-adv-x="642" 
d="M702 508c-16 -104 -53 -224 -322 -224c-115 0 -216 17 -261 28l23 129h140l1 -16c27 -1 55 -2 79 -2c43 0 53 0 57 25l1 5c-16 -3 -47 -4 -56 -4c-151 0 -234 31 -234 122c0 10 1 20 4 36c18 102 100 155 317 155c220 0 259 -89 259 -173c0 -24 -3 -47 -8 -81zM402 597
c-2 -10 -2 -16 -2 -21c0 -9 3 -13 17 -13c9 0 22 2 23 2l5 29c1 7 2 14 2 19c0 11 -4 18 -18 18c-21 0 -24 -17 -27 -34z" />
    <glyph glyph-name="parenleft.numerator" unicode="&#xe12b;" horiz-adv-x="353" 
d="M364 269h-196c-30 42 -54 113 -54 196c0 108 45 221 135 309h210c-81 -93 -125 -217 -125 -318c0 -80 10 -141 30 -187z" />
    <glyph glyph-name="parenright.numerator" unicode="&#xe12c;" horiz-adv-x="353" 
d="M171 774h196c30 -42 54 -113 54 -196c0 -108 -45 -221 -135 -309h-210c81 93 125 217 125 318c0 80 -10 141 -30 187z" />
    <glyph glyph-name="cent.numerator" unicode="&#xe12d;" horiz-adv-x="549" 
d="M574 315c-28 -8 -63 -14 -106 -16l-17 -99h-235l20 116c-79 30 -117 99 -117 180c0 16 1 33 6 60c18 100 82 171 188 199l21 119h235l-18 -102c44 -5 81 -14 101 -16l-33 -187h-101l1 30h-9c-59 0 -71 -5 -80 -58c-4 -22 -5 -31 -5 -38c0 -27 16 -29 63 -29
c34 0 87 1 115 1z" />
    <glyph glyph-name="comma.numerator" unicode="&#xe130;" horiz-adv-x="321" 
d="M367 434l-127 -205h-171l97 205h201z" />
    <glyph glyph-name="dollar.numerator" unicode="&#xe131;" horiz-adv-x="608" 
d="M661 474c0 -99 -78 -162 -178 -173l-17 -101h-235l17 97c-55 2 -106 6 -153 10l26 145h101l2 -24c40 -1 78 -1 127 -1c32 0 52 0 52 15c0 11 -13 13 -62 17l-38 3c-119 10 -168 50 -168 141c0 116 96 155 196 165l18 106h235l-18 -105c50 -3 95 -10 128 -14l-24 -137
h-101l-2 21c-47 2 -88 2 -131 2c-32 0 -54 0 -54 -15c0 -13 16 -14 70 -17l36 -2c138 -8 173 -54 173 -133z" />
    <glyph glyph-name="hyphen.numerator" unicode="&#xe132;" horiz-adv-x="261" 
d="M312 466h-201l28 155h201z" />
    <glyph glyph-name="period.numerator" unicode="&#xe133;" horiz-adv-x="297" 
d="M322 319h-237l21 115h237z" />
    <glyph glyph-name="guillemotleft.cap" unicode="&#xe134;" horiz-adv-x="1220" 
d="M1211 123h-400l-125 245l212 245h400l-200 -245zM618 123l-112 245l199 245h-399l-212 -245l125 -245h399z" />
    <glyph glyph-name="guillemotright.cap" unicode="&#xe135;" horiz-adv-x="1220" 
d="M1254 368l-211 -245h-400l199 245l-112 245h400zM661 368l-123 245h-400l112 -245l-199 -245h400z" />
    <glyph glyph-name="guilsinglleft.cap" unicode="&#xe136;" horiz-adv-x="617" 
d="M608 123h-399l-115 245l202 245h399l-189 -245z" />
    <glyph glyph-name="guilsinglright.cap" unicode="&#xe137;" horiz-adv-x="617" 
d="M651 368l-200 -245h-400l189 245l-102 245h400z" />
    <glyph glyph-name="at.cap" unicode="&#xe138;" horiz-adv-x="1282" 
d="M764 441c-14 1 -21 1 -25 1c-55 0 -61 -22 -74 -72c-6 -25 -14 -54 -14 -79c0 -24 17 -28 46 -28h23zM1355 465c0 -308 -367 -342 -598 -342c-52 0 -103 1 -155 6c-104 9 -216 34 -216 161c0 31 6 61 14 91c49 177 222 213 383 213c99 0 197 -11 295 -26l-69 -284
c107 4 162 70 162 175c0 187 -244 201 -380 201c-160 0 -361 -35 -443 -192c-31 -59 -46 -131 -46 -198c0 -143 86 -190 216 -205c54 -7 108 -7 162 -7c94 0 188 3 282 8l-7 -76c-90 -12 -192 -16 -282 -16c-196 0 -555 2 -555 292c0 78 17 162 58 235
c117 210 403 265 624 265c195 0 555 -36 555 -301z" />
    <glyph glyph-name="braceleft.cap" unicode="&#xe139;" horiz-adv-x="595" 
d="M565 0h-88c-250 0 -358 40 -358 187c0 23 1 41 6 69c3 18 3 22 3 31c0 25 -19 34 -41 41l20 116c29 8 55 19 62 60l2 10c37 210 134 229 441 229h84l-35 -193h-74c-56 0 -68 0 -76 -50l-2 -10c-14 -72 -32 -94 -84 -119c33 -17 47 -34 47 -70c0 -13 -2 -28 -5 -47l-2 -12
c-1 -9 -2 -16 -2 -22c0 -27 16 -27 62 -27h74z" />
    <glyph glyph-name="braceright.cap" unicode="&#xe13a;" horiz-adv-x="595" 
d="M161 743h88c250 0 358 -40 358 -187c0 -23 -1 -41 -6 -69c-3 -18 -3 -22 -3 -31c0 -25 19 -34 41 -41l-20 -116c-29 -8 -55 -19 -62 -60l-2 -10c-37 -210 -134 -229 -441 -229h-84l35 193h74c56 0 68 0 76 50l2 10c14 72 32 94 84 119c-33 17 -47 34 -47 70
c0 13 2 28 5 47l2 12c1 9 2 16 2 22c0 27 -16 27 -62 27h-74z" />
    <glyph glyph-name="bracketleft.cap" unicode="&#xe13b;" horiz-adv-x="545" 
d="M515 0h-485l131 743h485l-35 -193h-143l-62 -357h143z" />
    <glyph glyph-name="bracketright.cap" unicode="&#xe13c;" horiz-adv-x="545" 
d="M515 0h-485l34 193h141l62 357h-141l35 193h485z" />
    <glyph glyph-name="emdash.cap" unicode="&#xe13d;" horiz-adv-x="616" 
d="M635 282h-556l32 181h556z" />
    <glyph glyph-name="endash.cap" unicode="&#xe13e;" horiz-adv-x="430" 
d="M449 282h-370l32 181h370z" />
    <glyph glyph-name="hyphen.cap" unicode="&#xe13f;" horiz-adv-x="366" 
d="M385 282h-306l32 181h306z" />
    <glyph glyph-name="parenleft.cap" unicode="&#xe140;" horiz-adv-x="503" 
d="M473 0h-297c-39 51 -80 158 -80 286c0 175 77 335 211 457h297c-109 -142 -180 -319 -180 -502c0 -98 22 -178 49 -241z" />
    <glyph glyph-name="parenright.cap" unicode="&#xe141;" horiz-adv-x="503" 
d="M172 743h297c39 -51 80 -158 80 -286c0 -175 -77 -335 -211 -457h-297c109 142 180 319 180 502c0 98 -22 178 -49 241z" />
    <glyph glyph-name="exclamdown.cap" unicode="&#xe142;" horiz-adv-x="491" 
d="M452 -50h-431l124 527h366zM574 743l-38 -213h-399l38 213h399z" />
    <glyph glyph-name="questiondown.cap" unicode="&#xe143;" horiz-adv-x="828" 
d="M438 743h421l-38 -216h-421zM435 479c-8 -43 -27 -47 -173 -121c-120 -61 -213 -110 -213 -246c0 -112 117 -174 366 -174c178 0 310 22 379 43l41 233h-173l-12 -34c-4 0 -16 -1 -27 -1c-19 0 -31 3 -31 16c0 31 55 62 87 89c66 58 75 106 91 195h-335z" />
    <glyph glyph-name="periodcentered.cap" unicode="&#xe22b;" horiz-adv-x="430" 
d="M444 334h-370l39 217h370z" />
    <glyph glyph-name="Q.alt" unicode="&#xe23c;" horiz-adv-x="1109" 
d="M1143 339c-44 -242 -195 -327 -386 -354l-31 -183h-408l33 191c-166 37 -265 132 -265 314c0 29 3 59 10 98c55 316 304 365 583 365c280 0 473 -88 473 -336c0 -28 -2 -57 -9 -95zM701 369c6 36 9 60 9 80c0 45 -17 65 -66 65c-71 0 -89 -40 -106 -139
c-6 -36 -9 -60 -9 -79c0 -51 20 -66 65 -66c62 0 87 29 107 139z" />
    <glyph glyph-name="a.alt" unicode="&#xe245;" horiz-adv-x="1031" 
d="M1001 0h-423l6 37c-72 -37 -138 -57 -244 -57c-140 0 -267 66 -267 238c0 38 3 66 11 109c42 239 168 299 574 299c135 0 269 -7 411 -20l-65 -368l38 -5zM583 211l32 181c-8 1 -27 2 -47 2c-52 0 -62 -23 -73 -87c-6 -32 -8 -46 -8 -58c0 -30 12 -40 51 -40
c17 0 36 2 45 2z" />
    <glyph glyph-name="e.alt" unicode="&#xe249;" horiz-adv-x="960" 
d="M981 236h-504c-2 -10 -2 -13 -2 -17c0 -21 15 -30 90 -30h119l12 30h227l-37 -211c-91 -14 -214 -29 -361 -29c-292 0 -449 79 -449 269c0 23 2 48 7 77c41 235 238 301 520 301c315 0 391 -138 391 -280c0 -37 -6 -75 -13 -110zM611 363c2 11 2 15 2 18
c0 25 -17 35 -51 35s-56 -18 -61 -46l-1 -7h111z" />
    </font>
</defs>
</svg>
