<?xml version="1.0" standalone="no"?>
<!DOCTYPE svg PUBLIC "-//W3C//DTD SVG 1.1//EN" "http://www.w3.org/Graphics/SVG/1.1/DTD/svg11.dtd" >
<svg xmlns="http://www.w3.org/2000/svg" xmlns:xlink="http://www.w3.org/1999/xlink" version="1.1">
<metadata>
Created by FontForge 20141024 at Thu Apr 30 19:16:47 2015
 By System Administrator
Copyright (c) 2007 Monotype Imaging Inc. Soho is designed by Sebastian Lester. All rights reserved.
</metadata>
<defs>
<font id="SohoPro-Italic" horiz-adv-x="457" >
  <font-face 
    font-family="Soho Pro"
    font-weight="400"
    font-style="italic"
    font-stretch="normal"
    units-per-em="1000"
    panose-1="2 4 5 3 3 5 6 9 2 4"
    ascent="775"
    descent="-225"
    x-height="550"
    cap-height="743"
    bbox="-75 -237 1481 1059"
    underline-thickness="59"
    underline-position="-18"
    slope="-12"
    stemh="77"
    stemv="88"
    unicode-range="U+000D-FB30"
  />
<missing-glyph horiz-adv-x="191" 
 />
    <glyph glyph-name="f_f" unicode="ff" horiz-adv-x="751" 
d="M560 550l13 72c18 99 41 165 171 165c43 0 88 -9 104 -14l-11 -61c-15 1 -60 4 -96 4c-58 0 -67 -32 -79 -100l-12 -66h156l-13 -75h-156l-70 -397l53 -5l-12 -73h-198l12 73l55 5l70 397h-235l-70 -397l53 -5l-12 -73h-198l12 73l55 5l70 397l-102 10l11 65h104l13 72
c18 99 41 165 171 165c43 0 88 -9 104 -14l-11 -61c-15 1 -60 4 -96 4c-58 0 -67 -32 -79 -100l-12 -66h235z" />
    <glyph glyph-name="f_i" unicode="fi" horiz-adv-x="650" 
d="M608 0h-198l13 74l54 4l70 397h-235l-70 -397l53 -5l-12 -73h-198l12 73l55 5l70 397l-102 10l11 65h104l12 66c19 110 42 171 172 171c43 0 88 -9 104 -14l-11 -61c-15 1 -59 4 -95 4c-59 0 -68 -30 -80 -100l-12 -66h325l-83 -472l54 -4zM670 652h-93l22 122h93z" />
    <glyph glyph-name="f_l" unicode="fl" horiz-adv-x="656" 
d="M615 0h-198l12 73l55 5l112 631c-23 2 -92 7 -147 7c-69 0 -96 -12 -112 -100l-12 -66h156l-13 -75h-156l-70 -397l53 -5l-12 -73h-198l12 73l55 5l70 397l-102 10l11 65h104l12 66c25 144 87 171 203 171c63 0 131 -10 157 -13h90l-123 -696l53 -5z" />
    <glyph glyph-name="f_f_i" unicode="ffi" horiz-adv-x="976" 
d="M931 0h-197l13 74l54 4l70 397h-234l-70 -397l53 -5l-12 -73h-198l12 73l55 5l70 397h-235l-70 -397l53 -5l-12 -73h-198l12 73l55 5l70 397l-102 10l11 65h104l12 66c19 106 42 171 172 171c43 0 88 -9 104 -14l-11 -61c-15 1 -60 4 -96 4c-58 0 -67 -30 -79 -100
l-12 -66h235l12 66c20 107 42 171 172 171c43 0 88 -9 104 -14l-11 -61c-15 1 -59 4 -95 4c-59 0 -68 -30 -80 -100l-12 -66h324l-83 -472l53 -4zM993 652h-92l22 122h92z" />
    <glyph glyph-name="f_f_l" unicode="ffl" horiz-adv-x="980" 
d="M938 0h-198l12 73l55 5l112 631c-23 2 -90 7 -146 7c-68 0 -95 -12 -111 -100l-12 -66h156l-13 -75h-156l-70 -397l53 -5l-12 -73h-198l12 73l55 5l70 397h-235l-70 -397l53 -5l-12 -73h-198l12 73l55 5l70 397l-102 10l11 65h104l12 66c18 100 42 171 172 171
c43 0 88 -9 104 -14l-11 -61c-15 1 -60 4 -96 4c-58 0 -67 -30 -79 -100l-12 -66h235l12 66c25 140 87 171 202 171c63 0 130 -10 156 -13h90l-123 -696l53 -5z" />
    <glyph glyph-name="f_b" unicode="fb" horiz-adv-x="968" 
d="M863 239l16 94c4 22 6 42 6 59c0 68 -33 95 -108 95c-28 0 -96 -5 -142 -29l-68 -387c25 -2 64 -5 113 -5c114 0 160 42 183 173zM600 774h90l-43 -245c54 27 110 37 155 37c117 0 173 -59 173 -169c0 -24 -3 -50 -8 -78l-17 -94c-31 -176 -118 -239 -286 -239
c-68 0 -109 4 -199 14l124 709c-37 3 -88 6 -146 6c-64 0 -90 -11 -106 -99l-12 -66h156l-13 -75h-156l-70 -397l53 -5l-12 -73h-198l12 73l55 5l70 397l-102 10l11 65h104l14 77c23 126 85 160 196 160c63 0 126 -9 155 -13z" />
    <glyph glyph-name="f_f_b" unicode="ffb" horiz-adv-x="1297" 
d="M481 78l70 397h-240l-70 -397l53 -5l-12 -73h-197l12 73l55 5l70 397l-103 8l11 67h105l12 66c19 107 39 171 171 171c43 0 80 -8 105 -14l-11 -61c-25 1 -59 4 -94 4c-61 0 -70 -30 -82 -100l-12 -66h240l14 77c23 126 85 160 196 160c63 0 126 -9 155 -13h90l-43 -245
c54 27 110 37 155 37c117 0 173 -59 173 -169c0 -24 -3 -50 -8 -78l-17 -94c-31 -176 -118 -239 -286 -239c-68 0 -109 4 -199 14l124 709c-37 3 -88 6 -146 6c-64 0 -90 -11 -106 -99l-12 -66h156l-13 -75h-156l-70 -397l53 -5l-12 -73h-198l12 73zM1192 239l16 94
c4 22 6 42 6 59c0 68 -33 95 -108 95c-28 0 -96 -5 -142 -29l-68 -387c25 -2 64 -5 113 -5c114 0 160 42 183 173z" />
    <glyph glyph-name="f_h" unicode="fh" horiz-adv-x="1006" 
d="M600 774h90l-45 -255c37 18 107 45 186 45c107 0 145 -54 145 -143c0 -17 -2 -41 -10 -87l-45 -256l53 -5l-12 -73h-144l61 348c4 24 6 43 6 60c0 59 -27 78 -86 78c-62 0 -129 -22 -167 -39l-65 -369l53 -5l-12 -73h-198l12 73l55 5l112 631c-25 2 -86 7 -141 7
c-68 0 -95 -12 -111 -100l-12 -66h156l-13 -75h-156l-70 -397l53 -5l-12 -73h-198l12 73l55 5l70 397l-102 10l11 65h104l12 66c23 130 89 171 204 171c62 0 123 -9 149 -13z" />
    <glyph glyph-name="f_f_h" unicode="ffh" horiz-adv-x="1331" 
d="M477 78l70 397h-235l-70 -397l53 -5l-12 -73h-198l12 73l55 5l70 397l-102 10l11 65h104l12 66c15 85 40 171 172 171c43 0 88 -9 104 -14l-11 -61c-15 1 -60 4 -96 4c-59 0 -67 -30 -79 -100l-12 -66h235l12 66c23 130 89 171 204 171c62 0 123 -9 149 -13h90l-45 -255
c37 18 107 45 186 45c107 0 145 -54 145 -143c0 -17 -2 -41 -10 -87l-45 -256l53 -5l-12 -73h-144l61 348c4 24 6 43 6 60c0 59 -27 78 -86 78c-62 0 -129 -22 -167 -39l-65 -369l53 -5l-12 -73h-198l12 73l55 5l112 631c-25 2 -86 7 -141 7c-68 0 -95 -12 -111 -100
l-12 -66h156l-13 -75h-156l-70 -397l53 -5l-12 -73h-198l12 73z" />
    <glyph glyph-name="f_j" unicode="fj" horiz-adv-x="630" 
d="M542 -65c-20 -112 -63 -156 -163 -156c-29 0 -62 5 -69 7l11 65c12 -1 34 -2 59 -2c48 0 60 20 72 86l95 540h-235l-70 -397l53 -5l-12 -73h-198l12 73l55 5l70 397l-102 10l11 65h104l12 66c18 103 42 171 172 171c43 0 88 -9 104 -14l-11 -61c-15 1 -60 4 -96 4
c-58 0 -67 -30 -79 -100l-12 -66h325zM668 652h-92l22 122h92z" />
    <glyph glyph-name="f_f_j" unicode="ffj" horiz-adv-x="955" 
d="M867 -65c-20 -112 -62 -156 -162 -156c-29 0 -62 5 -69 7l11 65c12 -1 34 -2 59 -2c48 0 60 20 72 86l95 540h-235l-70 -397l53 -5l-12 -73h-198l12 73l55 5l70 397h-236l-70 -397l53 -5l-12 -73h-198l12 73l55 5l70 397l-102 10l11 65h104l12 66c17 98 43 171 172 171
c43 0 88 -9 104 -14l-11 -61c-15 1 -59 4 -95 4c-59 0 -68 -34 -80 -100l-12 -66h236l12 66c18 103 42 171 172 171c42 0 88 -9 104 -14l-11 -61c-15 1 -60 4 -96 4c-58 0 -67 -30 -79 -100l-12 -66h324zM994 652h-92l22 122h92z" />
    <glyph glyph-name="f_k" unicode="fk" horiz-adv-x="934" 
d="M600 774h90l-82 -466l256 242h122l-13 -74l-69 -5l-198 -182l136 -211l61 -5l-12 -73h-107l-180 285l-50 -285h-144l12 73l55 5l111 631c-25 2 -85 7 -140 7c-68 0 -95 -12 -111 -100l-12 -66h156l-13 -75h-156l-70 -397l53 -5l-12 -73h-198l12 73l55 5l70 397l-102 10
l11 65h104l12 66c23 130 89 171 204 171c62 0 123 -9 149 -13z" />
    <glyph glyph-name="f_f_k" unicode="ffk" horiz-adv-x="1259" 
d="M477 78l70 397h-235l-70 -397l53 -5l-12 -73h-198l12 73l55 5l70 397l-102 10l11 65h104l12 66c15 85 42 171 172 171c43 0 88 -9 104 -14l-11 -61c-15 1 -60 4 -96 4c-59 0 -67 -30 -79 -100l-12 -66h235l12 66c23 130 89 171 204 171c62 0 123 -9 149 -13h90l-82 -466
l256 242h122l-13 -74l-69 -5l-198 -182l136 -211l61 -5l-12 -73h-107l-180 285l-50 -285h-144l12 73l55 5l111 631c-25 2 -85 7 -140 7c-68 0 -95 -12 -111 -100l-12 -66h156l-13 -75h-156l-70 -397l53 -5l-12 -73h-198l12 73z" />
    <glyph glyph-name=".notdef" horiz-adv-x="191" 
 />
    <glyph glyph-name=".notdef" horiz-adv-x="191" 
 />
    <glyph glyph-name="space" unicode=" " horiz-adv-x="191" 
 />
    <glyph glyph-name="exclam" unicode="!" horiz-adv-x="251" 
d="M171 0h-91l23 135h91zM310 774l-111 -581h-78l92 581h97z" />
    <glyph glyph-name="quotedbl" unicode="&#x22;" horiz-adv-x="338" 
d="M451 759l-78 -240h-67l54 240h91zM256 759h-91l-54 -240h67z" />
    <glyph glyph-name="numbersign" unicode="#" horiz-adv-x="741" 
d="M690 197h-144l-56 -197h-80l55 197h-168l-55 -197h-81l56 197h-99l14 77h107l53 187h-127l13 76h136l60 206h80l-59 -206h167l61 206h80l-59 -206h106l-13 -76h-115l-53 -187h135zM541 461h-168l-53 -187h168z" />
    <glyph glyph-name="dollar" unicode="$" horiz-adv-x="620" 
d="M261 -12c-77 3 -149 14 -171 20l26 148h70l-5 -88c35 0 83 -1 128 -1c94 0 180 38 180 149c0 43 -22 72 -82 101l-117 57c-77 37 -120 91 -120 170c0 136 92 190 226 207l18 104h86l-18 -101c78 -2 144 -13 167 -19l-25 -143h-70l4 83h-120c-86 0 -175 -21 -175 -128
c0 -40 21 -68 81 -96l118 -56c85 -40 124 -92 124 -169c0 -142 -96 -214 -238 -234l-20 -112h-86z" />
    <glyph glyph-name="percent" unicode="%" horiz-adv-x="1067" 
d="M944 743l-605 -743h-90l605 743h90zM1046 178c-22 -122 -81 -188 -208 -188c-110 0 -151 63 -151 152c0 21 2 44 6 67l10 57c20 117 81 189 209 189c114 0 151 -62 151 -148c0 -23 -3 -47 -7 -72zM967 194l10 57c4 22 6 40 6 56c0 61 -27 82 -79 82
c-66 0 -104 -39 -121 -138l-10 -57c-4 -23 -6 -42 -6 -58c0 -59 26 -80 78 -80c65 0 103 34 122 138zM493 478c-22 -122 -81 -188 -208 -188c-110 0 -151 63 -151 152c0 21 2 44 6 67l10 57c20 117 81 189 209 189c114 0 151 -62 151 -148c0 -23 -3 -47 -7 -72zM414 494
l10 57c4 22 6 40 6 56c0 61 -27 82 -79 82c-66 0 -104 -39 -121 -138l-10 -57c-4 -23 -6 -42 -6 -58c0 -59 26 -80 78 -80c65 0 103 34 122 138z" />
    <glyph glyph-name="ampersand" unicode="&#x26;" horiz-adv-x="736" 
d="M575 441h195l-12 -69l-56 -6c-8 -92 -38 -182 -96 -251l84 -99l-2 -16h-106l-45 53c-60 -42 -139 -67 -239 -67c-118 0 -213 50 -213 176c0 108 77 168 179 217l-5 7c-43 52 -75 104 -75 169c0 151 106 200 252 200c91 0 176 -13 203 -20l-25 -143h-71l3 79
c-39 4 -80 4 -120 4c-87 0 -148 -21 -148 -122c0 -44 22 -75 69 -130l205 -244c38 52 58 118 65 187l-54 6zM311 64c73 0 131 19 176 50l-175 208c-68 -34 -131 -77 -131 -159c0 -79 60 -99 130 -99z" />
    <glyph glyph-name="quotesingle" unicode="'" horiz-adv-x="143" 
d="M256 759l-78 -240h-67l54 240h91z" />
    <glyph glyph-name="parenleft" unicode="(" horiz-adv-x="355" 
d="M277 -207h-82c-44 80 -89 198 -89 359c0 215 98 424 254 591h88c-164 -179 -255 -383 -255 -596c0 -150 34 -260 84 -354z" />
    <glyph glyph-name="parenright" unicode=")" horiz-adv-x="355" 
d="M173 743h82c44 -80 89 -198 89 -368c0 -206 -98 -415 -254 -582h-88c164 179 255 383 255 588c0 158 -34 268 -84 362z" />
    <glyph glyph-name="asterisk" unicode="*" horiz-adv-x="532" 
d="M539 601l-70 -23c-22 -7 -48 -14 -74 -19c19 -18 35 -38 49 -57l43 -59l-63 -46l-43 59c-14 20 -28 41 -41 64c-12 -23 -27 -44 -40 -63l-42 -60l-64 46l43 60c13 19 30 39 48 57c-25 5 -50 12 -72 19l-70 22l24 75l70 -23c22 -7 47 -16 70 -27c-3 25 -5 51 -5 74v74h78
v-74c0 -24 -2 -50 -6 -76c24 12 49 21 71 28l70 24z" />
    <glyph glyph-name="plus" unicode="+" horiz-adv-x="702" 
d="M676 354h-213v-215h-73v215h-215v73h215v215h73v-215h213v-73z" />
    <glyph glyph-name="comma" unicode="," horiz-adv-x="277" 
d="M247 138l-156 -227h-82l133 227h105z" />
    <glyph glyph-name="hyphen" unicode="-" horiz-adv-x="396" 
d="M365 255h-247l14 75h247z" />
    <glyph glyph-name="period" unicode="." horiz-adv-x="252" 
d="M171 0h-90l24 138h90z" />
    <glyph glyph-name="slash" unicode="/" horiz-adv-x="411" 
d="M532 743l-435 -743h-87l436 743h86z" />
    <glyph glyph-name="zero" unicode="0" horiz-adv-x="637" 
d="M629 283c-36 -207 -132 -297 -304 -297c-151 0 -222 88 -222 233c0 30 3 62 9 97l25 143c37 208 155 296 308 296c150 0 219 -81 219 -224c0 -32 -3 -67 -10 -105zM540 299l25 143c6 34 9 63 9 89c0 106 -49 145 -133 145c-110 0 -183 -58 -214 -234l-25 -143
c-6 -35 -9 -65 -9 -91c0 -105 49 -143 136 -143c121 0 180 58 211 234z" />
    <glyph glyph-name="one" unicode="1" horiz-adv-x="558" 
d="M497 0h-436l13 75l174 6l101 574l-183 -56l14 80l210 70h67l-118 -668l171 -6z" />
    <glyph glyph-name="two" unicode="2" horiz-adv-x="589" 
d="M524 0h-460l16 94c29 163 102 224 282 312c109 53 182 90 182 184c0 67 -44 86 -154 86c-32 0 -80 -2 -119 -5l-24 -79h-71l25 140c10 2 118 23 217 23c155 0 219 -46 219 -160c0 -121 -89 -184 -237 -257c-171 -84 -209 -125 -230 -244l-2 -13h289l23 75h71z" />
    <glyph glyph-name="three" unicode="3" horiz-adv-x="596" 
d="M168 70c35 -3 76 -5 119 -5c147 0 203 63 203 188c0 62 -22 93 -109 93h-214l13 77h214c108 0 154 63 154 156c0 77 -37 97 -153 97c-38 0 -83 -2 -118 -4l-25 -80h-70l25 141c13 3 121 22 204 22c163 0 230 -37 230 -169c0 -69 -26 -151 -127 -201
c49 -26 67 -68 67 -132c0 -172 -97 -267 -306 -267c-83 0 -172 19 -198 26l25 143h70z" />
    <glyph glyph-name="four" unicode="4" horiz-adv-x="652" 
d="M637 196h-113l-21 -118l53 -5l-12 -73h-200l12 73l55 5l21 118h-351l17 94l419 453h104l-83 -467h113zM447 276l61 343l-322 -343h261z" />
    <glyph glyph-name="five" unicode="5" horiz-adv-x="584" 
d="M78 155h70l-4 -84c38 -3 77 -6 121 -6c168 0 215 76 215 199c0 81 -39 106 -161 106h-189l99 373h402l-27 -151h-71l2 69h-243l-56 -212h100c172 0 238 -50 238 -185c0 -172 -104 -278 -321 -278c-93 0 -179 19 -201 24z" />
    <glyph glyph-name="six" unicode="6" horiz-adv-x="630" 
d="M227 439c50 14 129 23 170 23c136 0 223 -32 223 -179c0 -141 -81 -297 -290 -297c-123 0 -229 43 -229 214c0 29 3 62 10 99l34 193c32 182 113 263 324 263c87 0 171 -16 198 -22l-25 -141h-70l3 80c-35 2 -78 4 -118 4c-172 0 -203 -81 -224 -202zM215 369l-17 -93
c-5 -30 -8 -56 -8 -79c0 -106 56 -132 143 -132c139 0 196 93 196 219c0 91 -54 104 -151 104c-31 0 -98 -4 -163 -19z" />
    <glyph glyph-name="seven" unicode="7" horiz-adv-x="575" 
d="M646 645l-437 -645h-103l457 661h-315l-22 -69h-70l27 151h481z" />
    <glyph glyph-name="eight" unicode="8" horiz-adv-x="653" 
d="M155 508c0 196 128 247 298 247h4c123 0 234 -36 234 -167c0 -81 -35 -156 -114 -202c37 -26 61 -65 61 -128c0 -158 -65 -272 -306 -272h-4c-119 0 -236 25 -236 195c0 72 29 156 113 209c-31 24 -50 65 -50 118zM543 258c0 64 -25 89 -89 89h-134
c-103 -2 -135 -86 -135 -166c0 -105 58 -116 150 -116h4c135 0 204 42 204 193zM333 425h134c92 0 130 74 130 161c0 78 -64 90 -150 90h-4c-119 0 -197 -39 -197 -174c0 -49 23 -77 87 -77z" />
    <glyph glyph-name="nine" unicode="9" horiz-adv-x="630" 
d="M518 302c-50 -14 -129 -23 -170 -23c-136 0 -223 32 -223 179c0 141 81 297 290 297c123 0 229 -43 229 -214c0 -29 -3 -62 -10 -99l-34 -193c-32 -182 -113 -263 -324 -263c-87 0 -171 16 -198 22l25 141h70l-3 -80c35 -2 78 -4 118 -4c172 0 203 81 224 202zM530 372
l17 93c5 30 8 56 8 79c0 106 -56 132 -143 132c-139 0 -196 -93 -196 -219c0 -91 54 -104 151 -104c31 0 98 4 163 19z" />
    <glyph glyph-name="colon" unicode=":" horiz-adv-x="258" 
d="M174 0h-91l24 138h91zM270 550l-24 -138h-91l24 138h91z" />
    <glyph glyph-name="semicolon" unicode=";" horiz-adv-x="268" 
d="M220 138l-158 -227h-78l132 227h104zM256 412h-91l24 138h91z" />
    <glyph glyph-name="less" unicode="&#x3c;" horiz-adv-x="702" 
d="M632 139h-123l-290 252l290 251h123l-291 -251z" />
    <glyph glyph-name="equal" unicode="=" horiz-adv-x="702" 
d="M649 244h-447v74h447v-74zM649 464h-447v75h447v-75z" />
    <glyph glyph-name="greater" unicode="&#x3e;" horiz-adv-x="702" 
d="M632 391l-291 -252h-122l290 252l-290 251h122z" />
    <glyph glyph-name="question" unicode="?" horiz-adv-x="496" 
d="M232 0h-91l24 138h91zM165 630l23 134c53 13 117 23 170 23c115 0 186 -34 186 -134c0 -95 -56 -156 -145 -232c-106 -91 -117 -116 -129 -186l-7 -42h-87l7 42c15 85 30 131 139 223c55 46 125 106 125 187c0 50 -41 63 -111 63c-26 0 -51 -1 -76 -2l-24 -76h-71z" />
    <glyph glyph-name="at" unicode="@" horiz-adv-x="833" 
d="M588 138c136 30 195 150 195 281c0 120 -73 177 -228 177c-180 0 -298 -76 -359 -294c-17 -61 -36 -118 -36 -185c0 -98 54 -168 227 -168c79 0 170 8 178 9l-7 -50c-16 -3 -101 -15 -179 -15c-206 0 -285 94 -285 225c0 73 17 132 37 201c73 248 210 337 432 337
c197 0 289 -91 289 -239c0 -228 -142 -363 -402 -363c-137 0 -175 53 -175 132c0 30 5 64 13 100c36 166 114 201 219 201c58 0 114 -8 160 -20zM567 409c-19 3 -48 4 -69 4c-57 0 -100 -14 -128 -135c-8 -34 -15 -63 -15 -87c0 -43 23 -68 103 -68c16 0 26 0 41 1z" />
    <glyph glyph-name="A" unicode="A" horiz-adv-x="743" 
d="M239 0h-203l12 73l56 5l295 586l-58 5l14 74h211l100 -665l51 -5l-12 -73h-202l12 73l56 4l-23 166h-266l-82 -166l51 -4zM535 327l-32 217c-6 40 -8 78 -8 122h-10c-17 -44 -32 -82 -52 -122l-109 -217h211z" />
    <glyph glyph-name="B" unicode="B" horiz-adv-x="651" 
d="M642 240c0 -196 -163 -240 -339 -240h-253l13 74l55 7l102 580l-53 7l14 75h245c159 0 268 -17 268 -177c0 -80 -49 -153 -130 -185c48 -22 78 -70 78 -141zM257 346l-47 -265h94c121 0 244 15 244 159c0 66 -36 106 -146 106h-145zM312 661l-42 -236h145
c111 0 186 37 186 140c0 91 -72 96 -190 96h-99z" />
    <glyph glyph-name="C" unicode="C" horiz-adv-x="599" 
d="M546 3c-31 -5 -116 -17 -185 -17c-145 0 -260 49 -260 234c0 31 3 66 10 105l22 123c48 271 195 307 364 307c69 0 150 -11 179 -17l-26 -146h-71l3 78c-28 1 -70 3 -100 3c-151 0 -226 -57 -258 -240l-22 -123c-6 -34 -9 -63 -9 -89c0 -114 59 -152 183 -152
c30 0 72 1 100 2l25 80h71z" />
    <glyph glyph-name="D" unicode="D" horiz-adv-x="695" 
d="M691 294c-34 -189 -141 -294 -380 -294h-262l12 73l56 8l102 580l-53 8l14 74h248c227 0 293 -93 293 -235c0 -29 -3 -60 -9 -93zM599 312l21 121c5 28 7 53 7 75c0 115 -68 153 -207 153h-109l-102 -580h109c159 0 249 50 281 231z" />
    <glyph glyph-name="E" unicode="E" horiz-adv-x="600" 
d="M524 0h-474l12 73l55 5l104 586l-54 5l14 74h474l-27 -151h-72l2 69h-246l-41 -234h307l-15 -83h-307l-46 -263h246l22 71h72z" />
    <glyph glyph-name="F" unicode="F" horiz-adv-x="590" 
d="M563 344h-307l-47 -266l53 -5l-12 -73h-200l12 73l55 5l104 586l-54 5l14 74h474l-27 -151h-72l2 69h-246l-41 -234h307z" />
    <glyph glyph-name="G" unicode="G" horiz-adv-x="633" 
d="M569 7c-31 -6 -121 -21 -222 -21c-141 0 -246 65 -246 237c0 30 3 63 10 100l24 131c48 261 196 301 349 301c108 0 204 -17 213 -19l-25 -144h-72l3 76c-31 2 -79 5 -122 5c-125 0 -220 -33 -257 -236l-24 -131c-6 -32 -9 -61 -9 -85c0 -119 68 -151 182 -151
c43 0 85 1 116 3l41 233l-105 8l13 72h198z" />
    <glyph glyph-name="H" unicode="H" horiz-adv-x="764" 
d="M714 0h-200l12 73l55 5l48 273h-372l-48 -273l53 -5l-12 -73h-200l12 73l55 5l104 586l-54 5l14 74h200l-13 -73l-55 -5l-41 -231h372l41 231l-53 5l13 73h200l-14 -74l-54 -5l-104 -586l53 -5z" />
    <glyph glyph-name="I" unicode="I" horiz-adv-x="304" 
d="M252 0h-200l12 73l55 5l104 586l-54 5l14 74h200l-14 -74l-54 -5l-104 -586l53 -5z" />
    <glyph glyph-name="J" unicode="J" horiz-adv-x="299" 
d="M364 669l-54 -5l-128 -724c-19 -109 -65 -159 -181 -159c-24 0 -60 4 -73 8l12 69h68c61 0 71 22 82 82l128 724l-54 5l14 74h200z" />
    <glyph glyph-name="K" unicode="K" horiz-adv-x="665" 
d="M622 0h-109l-253 364l-51 -286l53 -5l-12 -73h-200l12 73l55 5l104 586l-54 5l14 74h200l-13 -73l-55 -5l-47 -263l370 341h117l-14 -74l-59 -4l-314 -288l213 -300l55 -4z" />
    <glyph glyph-name="L" unicode="L" horiz-adv-x="577" 
d="M535 0h-486l12 73l55 5l104 586l-54 5l14 74h200l-14 -74l-54 -5l-103 -583h258l22 72h72z" />
    <glyph glyph-name="M" unicode="M" horiz-adv-x="851" 
d="M801 0h-199l12 73l55 5l72 405c9 54 17 87 29 138h-2c-25 -38 -48 -76 -73 -114l-172 -267h-113l-75 267c-10 38 -22 76 -33 114h-2c-7 -51 -10 -83 -20 -138l-72 -405l53 -5l-12 -73h-199l12 73l55 5l104 586l-54 5l14 74h173l94 -335c9 -32 18 -68 27 -100h2
c20 33 43 69 64 102l215 333h176l-14 -74l-54 -5l-104 -586l53 -5z" />
    <glyph glyph-name="N" unicode="N" horiz-adv-x="746" 
d="M812 669l-54 -5l-117 -664h-131l-169 533c-11 37 -26 82 -37 126h-2c-6 -49 -14 -103 -23 -155l-75 -426l53 -5l-12 -73h-194l12 73l55 5l104 586l-54 5l14 74h186l167 -519c12 -36 27 -87 38 -127h2c6 59 15 117 23 163l72 405l-53 5l13 73h196z" />
    <glyph glyph-name="O" unicode="O" horiz-adv-x="683" 
d="M682 303c-38 -212 -150 -317 -338 -317c-163 0 -241 93 -241 248c0 30 3 63 9 98l18 106c36 212 155 317 338 317c165 0 242 -93 242 -243c0 -34 -4 -67 -10 -103zM591 318l18 106c4 24 9 62 9 88c0 116 -48 161 -159 161c-124 0 -207 -68 -238 -250l-18 -106
c-4 -21 -8 -62 -8 -88c0 -116 56 -161 157 -161c125 0 206 68 239 250z" />
    <glyph glyph-name="P" unicode="P" horiz-adv-x="637" 
d="M685 555c0 -201 -147 -266 -351 -266h-88l-37 -211l53 -5l-12 -73h-200l12 73l55 5l104 586l-54 5l14 74h217c160 0 287 -27 287 -188zM590 555c0 92 -66 106 -190 106h-88l-51 -291h88c130 0 241 25 241 185z" />
    <glyph glyph-name="Q" unicode="Q" horiz-adv-x="683" 
d="M682 303c-35 -196 -134 -301 -297 -315l-10 -54c-1 -8 -2 -14 -2 -20c0 -23 13 -29 59 -29h85l-11 -63c-14 -3 -67 -10 -112 -10c-67 0 -112 13 -112 89c0 13 1 29 4 47l8 42c-129 17 -191 106 -191 244c0 30 3 63 9 98l18 106c36 212 155 317 338 317
c165 0 242 -93 242 -243c0 -34 -4 -67 -10 -103zM591 318l18 106c4 24 9 62 9 88c0 116 -48 161 -159 161c-124 0 -207 -68 -238 -250l-18 -106c-4 -21 -8 -62 -8 -88c0 -116 56 -161 157 -161c125 0 206 68 239 250z" />
    <glyph glyph-name="R" unicode="R" horiz-adv-x="686" 
d="M207 78l53 -5l-12 -73h-200l12 73l55 5l104 586l-54 5l14 74h229c137 0 276 -23 276 -193c0 -124 -57 -201 -182 -241l98 -232l55 -4l-12 -73h-116l-120 290c-21 -1 -55 -1 -77 -1h-86zM259 370h86c144 0 244 32 244 174c0 100 -68 117 -196 117h-83z" />
    <glyph glyph-name="S" unicode="S" horiz-adv-x="584" 
d="M98 155h71l-5 -86c45 -2 63 -3 120 -3c112 1 188 40 188 146c0 47 -22 76 -82 105l-118 57c-74 35 -121 90 -121 179c0 151 125 202 270 202c99 0 184 -13 211 -20l-25 -143h-71l2 79c-38 3 -84 4 -118 4c-97 0 -174 -21 -174 -121c0 -47 21 -74 81 -103l118 -56
c80 -38 125 -80 125 -182c0 -150 -120 -227 -290 -227c-89 0 -181 14 -208 21z" />
    <glyph glyph-name="T" unicode="T" horiz-adv-x="633" 
d="M695 592h-70l2 69h-149l-103 -585l53 -5l-12 -71h-200l12 71l55 5l103 585h-148l-22 -69h-70l27 151h549z" />
    <glyph glyph-name="U" unicode="U" horiz-adv-x="747" 
d="M815 670l-55 -5l-66 -370c-38 -215 -122 -309 -311 -309c-162 0 -234 83 -234 224c0 40 5 77 12 118l60 337l-53 5l13 73h200l-13 -73l-55 -5l-61 -346c-8 -42 -12 -78 -12 -109c0 -100 44 -141 153 -141c144 0 183 71 215 250l61 346l-53 5l13 73h199z" />
    <glyph glyph-name="V" unicode="V" horiz-adv-x="744" 
d="M823 669l-56 -5l-336 -664h-123l-102 664l-51 5l14 74h196l-13 -73l-53 -4l68 -468c7 -42 9 -90 12 -128h2c16 39 34 86 55 128l234 468l-50 4l13 73h204z" />
    <glyph glyph-name="W" unicode="W" horiz-adv-x="959" 
d="M1038 669l-52 -5l-237 -664h-147l-20 460c-2 32 -3 63 -5 95h-3c-12 -32 -25 -63 -37 -95l-181 -460h-149l-3 664l-49 5l14 74h195l-13 -73l-53 -5l-5 -444c-1 -51 -1 -94 -2 -148h5c20 49 39 98 58 147l162 413h144l17 -416c1 -48 4 -96 5 -144h5c16 51 31 95 49 148
l153 444l-52 5l13 73h202z" />
    <glyph glyph-name="X" unicode="X" horiz-adv-x="698" 
d="M511 72l-114 230l-190 -231l52 -3l-11 -68h-211l12 73l57 5l253 300l-141 286l-56 5l14 74h201l-12 -68l-48 -4l113 -227l184 226l-51 5l12 68h211l-14 -74l-57 -5l-249 -294l146 -292l56 -5l-12 -73h-203l11 68zM408 315v1l-1 -1h1z" />
    <glyph glyph-name="Y" unicode="Y" horiz-adv-x="642" 
d="M734 669l-46 -4l-271 -371l-37 -213l53 -5l-13 -76h-199l13 76l55 5l37 213l-139 371l-45 4l14 74h194l-12 -68l-56 -5l64 -172c13 -35 28 -79 37 -118h6c20 38 55 83 80 118l125 172l-58 5l12 68h200z" />
    <glyph glyph-name="Z" unicode="Z" horiz-adv-x="623" 
d="M569 0h-515l17 102l495 559h-300l-22 -69h-70l27 151h485l-18 -101l-495 -561h328l24 75h71z" />
    <glyph glyph-name="bracketleft" unicode="[" horiz-adv-x="404" 
d="M309 -208h-232l168 951h232l-13 -77h-144l-141 -799h143z" />
    <glyph glyph-name="backslash" unicode="\" horiz-adv-x="442" 
d="M416 0h-87l-173 743h86z" />
    <glyph glyph-name="bracketright" unicode="]" horiz-adv-x="404" 
d="M252 -208h-232l13 75h143l141 800h-143l14 76h232z" />
    <glyph glyph-name="asciicircum" unicode="^" horiz-adv-x="702" 
d="M664 415h-98l-93 286l-192 -286h-99l223 331h152z" />
    <glyph glyph-name="underscore" unicode="_" horiz-adv-x="574" 
d="M560 -106h-584l10 59h584z" />
    <glyph glyph-name="grave" unicode="`" 
d="M402 616h-87l-123 154h106z" />
    <glyph glyph-name="a" unicode="a" horiz-adv-x="574" 
d="M531 0h-140l6 37c-37 -23 -96 -51 -177 -51c-96 0 -144 42 -144 126c0 13 1 26 3 41l3 20c22 146 126 159 280 159h83l7 40c4 21 6 38 6 52c0 51 -28 64 -115 64c-30 0 -60 -1 -92 -3l-19 -58h-70l20 113c17 6 97 24 181 24c148 0 186 -50 186 -127c0 -23 -4 -49 -9 -77
l-50 -282l53 -5zM404 100l29 164h-83c-116 0 -164 -14 -180 -102l-5 -27c-1 -8 -2 -15 -2 -25c0 -41 27 -54 79 -54c66 0 136 29 162 44z" />
    <glyph glyph-name="b" unicode="b" horiz-adv-x="579" 
d="M561 225c-31 -176 -118 -239 -286 -239c-68 0 -109 4 -199 14l122 697l-53 5l13 73h143l-43 -246c54 27 110 37 155 37c117 0 173 -59 173 -169c0 -24 -3 -50 -8 -78zM474 239l16 94c4 22 6 42 6 59c0 68 -33 95 -108 95c-28 0 -96 -5 -142 -29l-68 -387
c25 -2 64 -5 113 -5c114 0 160 42 183 173z" />
    <glyph glyph-name="c" unicode="c" horiz-adv-x="504" 
d="M451 5c-21 -6 -88 -19 -168 -19c-131 0 -188 74 -188 190c0 23 2 49 7 75l14 83c28 158 119 230 269 230c74 0 143 -12 162 -19l-21 -118h-70v57c-19 2 -58 3 -73 3c-97 0 -157 -33 -180 -170l-14 -83c-4 -24 -6 -44 -6 -62c0 -93 52 -109 126 -109c30 0 86 3 154 10z
" />
    <glyph glyph-name="d" unicode="d" horiz-adv-x="600" 
d="M557 0h-141l4 28c-40 -22 -98 -42 -156 -42c-112 0 -173 64 -173 180c0 22 2 47 7 73l17 95c35 197 140 230 267 230c44 0 84 -5 127 -14l26 145l-61 5l13 74h152l-123 -696l53 -5zM430 97l66 378c-43 8 -90 13 -120 13c-89 0 -148 -25 -174 -172l-17 -95
c-4 -20 -5 -39 -5 -55c0 -71 34 -103 109 -103c50 0 96 14 141 34z" />
    <glyph glyph-name="e" unicode="e" horiz-adv-x="570" 
d="M565 242h-378l-2 -11c-4 -22 -7 -43 -7 -62c0 -63 30 -105 143 -105c62 0 141 7 196 16l-13 -72c-41 -10 -110 -22 -198 -22c-155 0 -216 68 -216 187c0 30 5 63 11 99l7 42c31 173 133 250 269 250c128 0 205 -57 205 -187c0 -44 -6 -86 -17 -135zM486 316
c4 23 7 44 7 61c0 55 -23 109 -120 109c-123 0 -158 -93 -170 -160l-2 -10h285z" />
    <glyph glyph-name="f" unicode="f" horiz-adv-x="422" 
d="M467 475h-156l-70 -397l53 -5l-12 -73h-197l12 73l55 5l70 397l-103 8l11 67h105l14 75c16 89 37 162 169 162c43 0 80 -8 105 -14l-11 -61c-25 1 -59 4 -94 4c-61 0 -70 -30 -82 -100l-12 -66h156z" />
    <glyph glyph-name="g" unicode="g" horiz-adv-x="589" 
d="M636 564l-11 -64l-60 -8c8 -11 20 -36 20 -77c0 -151 -109 -222 -254 -222c-47 0 -92 5 -127 21c-20 -12 -42 -28 -42 -52c0 -17 12 -34 40 -34h108c127 0 218 -16 218 -144c0 -149 -120 -207 -274 -207c-160 0 -215 58 -215 155c0 57 27 110 76 145
c-23 16 -38 35 -38 75c0 47 38 85 76 103c-18 24 -28 55 -28 97c0 142 102 212 259 212h252zM297 53h-112c-38 -32 -57 -74 -57 -111c0 -64 34 -92 128 -92c119 0 182 32 182 129c0 61 -36 74 -141 74zM374 490c-97 0 -163 -37 -163 -133c0 -58 28 -89 124 -89
c98 0 162 37 162 135c0 56 -30 87 -123 87z" />
    <glyph glyph-name="h" unicode="h" horiz-adv-x="639" 
d="M595 0h-144l61 348c4 24 6 43 6 60c0 59 -27 78 -86 78c-62 0 -129 -22 -167 -39l-65 -369l53 -5l-12 -73h-198l12 73l55 5l109 617l-53 5l13 74h144l-45 -255c37 18 107 45 186 45c107 0 145 -54 145 -143c0 -17 -2 -41 -10 -87l-45 -256l53 -5z" />
    <glyph glyph-name="i" unicode="i" horiz-adv-x="284" 
d="M241 0h-198l13 74l54 4l70 393l-54 5l13 74h144l-83 -472l54 -4zM303 652h-93l22 122h93z" />
    <glyph glyph-name="j" unicode="j" horiz-adv-x="263" 
d="M175 -66c-21 -117 -63 -156 -167 -156c-25 0 -57 3 -65 5l12 66c12 0 34 -1 58 -1c48 0 60 20 72 86l95 537l-54 5l13 74h144zM302 652h-93l22 122h93z" />
    <glyph glyph-name="k" unicode="k" horiz-adv-x="567" 
d="M524 0h-107l-180 285l-50 -285h-144l12 73l55 5l109 617l-53 5l13 74h144l-82 -466l256 242h122l-13 -74l-69 -5l-198 -182l136 -211l61 -5z" />
    <glyph glyph-name="l" unicode="l" horiz-adv-x="285" 
d="M242 0h-198l12 73l55 5l109 617l-53 5l13 74h144l-123 -696l53 -5z" />
    <glyph glyph-name="m" unicode="m" horiz-adv-x="899" 
d="M856 0h-145l64 365c4 26 8 49 8 67c0 36 -14 55 -68 55c-39 0 -95 -18 -147 -46c0 -26 -5 -52 -9 -76l-64 -365h-91l64 365c5 27 8 49 8 68c0 35 -13 54 -62 54c-48 0 -107 -25 -150 -48l-64 -361l53 -5l-12 -73h-198l12 73l55 5l70 393l-54 5l13 74h143l-7 -43
c52 33 112 57 174 57c64 0 96 -23 112 -59c71 42 130 59 174 59c114 0 140 -58 140 -121c0 -30 -7 -62 -12 -89l-49 -276l54 -5z" />
    <glyph glyph-name="n" unicode="n" horiz-adv-x="639" 
d="M595 0h-144l61 348c4 25 7 46 7 64c0 51 -21 74 -77 74c-48 0 -106 -14 -179 -52l-63 -356l53 -5l-12 -73h-198l12 73l55 5l70 393l-54 5l13 74h143l-6 -40c68 39 131 54 186 54c111 0 146 -59 146 -144c0 -26 -4 -56 -9 -86l-45 -256l53 -5z" />
    <glyph glyph-name="o" unicode="o" horiz-adv-x="581" 
d="M564 221c-28 -160 -119 -235 -269 -235c-138 0 -201 71 -201 183c0 30 2 58 6 82l14 80c28 162 122 233 269 233c133 0 203 -61 203 -184c0 -27 -6 -65 -8 -79zM476 235l14 80c5 29 6 45 6 65c0 65 -26 105 -121 105c-108 0 -153 -51 -174 -170l-14 -80
c-4 -22 -6 -41 -6 -66c0 -72 33 -104 120 -104c112 0 154 51 175 170z" />
    <glyph glyph-name="p" unicode="p" horiz-adv-x="610" 
d="M594 240c-37 -212 -132 -254 -277 -254c-37 0 -88 7 -120 16l-24 -133l54 -5l-14 -74h-197l14 74l54 5l107 602l-54 5l13 74h140l-6 -37c55 34 116 51 169 51c105 0 162 -52 162 -171c0 -29 -4 -62 -11 -99zM508 254l10 54c5 23 8 55 8 76c0 75 -34 101 -101 101
c-43 0 -80 -9 -150 -41l-65 -367c43 -9 83 -15 120 -15c96 0 148 31 178 192z" />
    <glyph glyph-name="q" unicode="q" horiz-adv-x="600" 
d="M519 -210h-197l14 74l54 5l28 156c-67 -29 -126 -39 -157 -39c-117 0 -169 55 -169 170c0 30 3 65 10 103l10 55c37 211 139 250 282 250c59 0 138 -6 205 -15l-120 -681l53 -5zM430 98l67 382c-26 2 -79 5 -108 5c-105 0 -161 -22 -190 -188l-10 -55
c-6 -33 -9 -61 -9 -84c0 -68 27 -93 93 -93c30 0 86 6 157 33z" />
    <glyph glyph-name="r" unicode="r" horiz-adv-x="419" 
d="M467 484c-72 0 -157 -20 -203 -47l-64 -359l53 -5l-12 -73h-198l12 73l55 5l70 393l-54 5l13 74h142l-7 -44c60 41 130 58 207 58z" />
    <glyph glyph-name="s" unicode="s" horiz-adv-x="491" 
d="M58 8l22 128h70l-3 -69c34 -2 65 -4 97 -4c74 0 133 15 133 87c0 40 -18 52 -95 89l-36 17c-86 41 -125 80 -125 151c0 128 108 157 217 157c84 0 162 -13 179 -20l-20 -117h-69v56c-30 2 -71 4 -91 4c-56 0 -125 -5 -125 -79c0 -31 20 -48 81 -75l38 -17
c100 -45 138 -79 138 -159c0 -110 -87 -171 -236 -171c-77 0 -159 16 -175 22z" />
    <glyph glyph-name="t" unicode="t" horiz-adv-x="442" 
d="M392 1c-16 -5 -61 -15 -104 -15c-81 0 -114 34 -114 101c0 15 2 32 5 51l59 337l-109 8l11 67h111l26 143h90l-26 -143h147l-13 -75h-147l-61 -345c-3 -17 -5 -31 -5 -41c0 -26 13 -31 50 -31c30 0 73 3 91 5z" />
    <glyph glyph-name="u" unicode="u" horiz-adv-x="639" 
d="M595 0h-144l7 43c-72 -37 -135 -57 -195 -57c-106 0 -137 61 -137 142c0 26 3 54 8 83l46 260l-54 5l13 74h144l-61 -351c-5 -30 -8 -53 -8 -72c0 -48 20 -64 70 -64c49 0 109 17 186 49l64 359l-54 5l13 74h144l-83 -472l53 -5z" />
    <glyph glyph-name="v" unicode="v" horiz-adv-x="635" 
d="M670 476l-51 -5l-240 -471h-124l-74 471l-50 5l13 74h173l-11 -67l-34 -3l36 -268c7 -54 12 -101 16 -151h2c22 50 42 96 69 151l129 268l-31 3l11 67h179z" />
    <glyph glyph-name="w" unicode="w" horiz-adv-x="944" 
d="M979 476l-49 -4l-190 -472h-130l-47 330c-7 52 -10 87 -11 111h-4c-9 -24 -22 -59 -47 -111l-159 -330h-138l-24 472l-49 4l13 74h180l-11 -67l-41 -4l9 -269c1 -47 2 -96 2 -141h7c25 56 40 97 60 140l139 296h145l33 -296c5 -43 8 -92 13 -141h5c17 46 34 94 53 142
l102 269l-38 4l11 67h179z" />
    <glyph glyph-name="x" unicode="x" horiz-adv-x="613" 
d="M262 550l106 -201l174 201h111l-13 -74l-65 -5l-170 -191l108 -202l66 -5l-12 -73h-113l-114 214l-186 -214h-112l12 73l63 5l185 208l-98 185l-66 5l13 74h111z" />
    <glyph glyph-name="y" unicode="y" horiz-adv-x="657" 
d="M692 476l-62 -5l-272 -519c-56 -106 -103 -174 -216 -174c-47 0 -87 6 -105 10l12 69c43 -3 68 -4 104 -4c54 0 75 28 118 108l21 39l-99 471l-62 5l13 74h184l-11 -67l-32 -3l44 -239c9 -49 13 -87 18 -146h2c25 59 42 96 68 147l120 238l-32 3l11 67h189z" />
    <glyph glyph-name="z" unicode="z" horiz-adv-x="502" 
d="M452 0h-403l17 101l372 374h-213l-18 -48h-70l21 123h389l-16 -93l-378 -383h233l20 62h69z" />
    <glyph glyph-name="braceleft" unicode="{" horiz-adv-x="412" 
d="M314 -210h-64c-115 0 -146 41 -146 103c0 15 2 32 5 49l29 171c11 67 2 87 -43 122l11 63c57 35 75 55 86 121l33 185c18 100 51 139 194 139h63l-14 -76h-63c-73 0 -82 -11 -91 -63l-33 -185c-13 -76 -41 -119 -97 -153c43 -35 57 -77 43 -153l-32 -184
c-2 -12 -3 -22 -3 -30c0 -28 15 -34 72 -34h64z" />
    <glyph glyph-name="bar" unicode="|" horiz-adv-x="316" 
d="M277 -210h-89v953h89v-953z" />
    <glyph glyph-name="braceright" unicode="}" horiz-adv-x="412" 
d="M399 231c-57 -35 -76 -55 -87 -122l-33 -196c-15 -87 -50 -127 -193 -127h-64l14 75h64c73 0 82 11 91 64l32 184c14 76 42 118 97 153c-44 34 -56 77 -43 153l33 185c2 12 3 21 3 29c0 27 -15 34 -72 34h-63l14 76h63c115 0 148 -37 148 -99c0 -15 -2 -32 -5 -49
l-32 -176c-12 -66 -1 -86 44 -121z" />
    <glyph glyph-name="asciitilde" unicode="~" horiz-adv-x="701" 
d="M668 479c-14 -80 -42 -138 -136 -138c-39 0 -82 15 -111 45l-45 46c-21 22 -36 32 -59 32c-37 0 -51 -24 -59 -69l-8 -45h-73l8 45c15 83 53 139 140 139c42 0 73 -13 104 -44l44 -45c19 -19 39 -34 66 -34c39 0 49 27 56 68l8 47h73z" />
    <glyph glyph-name="uni00A0" unicode="&#xa0;" horiz-adv-x="191" 
 />
    <glyph glyph-name="exclamdown" unicode="&#xa1;" horiz-adv-x="251" 
d="M130 -225h-97l112 581h78zM263 549l-24 -135h-91l24 135h91z" />
    <glyph glyph-name="cent" unicode="&#xa2;" horiz-adv-x="518" 
d="M437 6c-16 -5 -65 -15 -125 -18l-19 -108h-81l20 111c-96 20 -137 82 -137 184c0 25 3 51 8 79l13 73c25 144 95 216 216 233l19 108h82l-18 -105c57 -3 102 -14 117 -18l-21 -118h-70l1 58c-20 1 -42 2 -65 2c-88 0 -148 -33 -173 -175l-13 -73c-4 -25 -7 -46 -7 -65
c0 -87 47 -110 119 -110c29 0 77 3 145 9z" />
    <glyph glyph-name="sterling" unicode="&#xa3;" horiz-adv-x="623" 
d="M558 0h-461l12 70c42 38 61 86 68 126l27 153h-78l13 76h78l14 76c29 166 84 254 270 254c89 0 159 -13 186 -20l-25 -143h-71l2 79c-27 3 -66 4 -101 4c-124 0 -146 -43 -169 -174l-14 -76h249l-13 -76h-249l-27 -153c-8 -48 -28 -83 -57 -118h359z" />
    <glyph glyph-name="currency" unicode="&#xa4;" horiz-adv-x="652" 
d="M651 192l-63 -63l-76 75c-33 -21 -74 -33 -111 -33c-39 0 -78 10 -112 33l-76 -74l-62 62l75 75c-21 33 -33 75 -33 112c0 40 10 78 33 112l-75 75l62 62l76 -74c34 22 74 32 112 32c39 0 78 -10 112 -32l75 73l63 -61l-75 -75c21 -35 33 -74 33 -112
c0 -39 -11 -78 -33 -112zM534 379c0 75 -62 136 -133 136c-72 0 -133 -61 -133 -136s62 -136 133 -136s133 61 133 136z" />
    <glyph glyph-name="yen" unicode="&#xa5;" horiz-adv-x="648" 
d="M638 241h-227l-28 -160l53 -5l-13 -76h-199l13 76l55 5l28 160h-227l13 71h221l-37 99h-166l12 71h128l-61 183l-45 4l14 74h106l80 -245c11 -35 23 -82 33 -112h2c21 30 48 77 72 112l168 245h105l-14 -74l-46 -4l-127 -183h129l-12 -71h-167l-71 -99h221z" />
    <glyph glyph-name="brokenbar" unicode="&#xa6;" horiz-adv-x="316" 
d="M277 -207h-89v396h89v-396zM277 348h-89v395h89v-395z" />
    <glyph glyph-name="section" unicode="&#xa7;" horiz-adv-x="641" 
d="M93 -49h71l-5 -81c69 -4 85 -5 126 -5c100 0 175 37 175 149c0 36 -19 63 -94 106l-115 65c-70 40 -107 99 -107 163c0 42 16 87 49 131c-8 17 -12 43 -12 70c0 159 126 206 279 206c89 0 166 -12 201 -20l-25 -143h-70l2 76c-37 3 -80 4 -119 4
c-87 0 -170 -16 -170 -123c0 -37 19 -64 82 -98l111 -59c81 -43 124 -104 124 -172c0 -42 -16 -88 -51 -133c8 -19 11 -44 11 -69c0 -161 -106 -236 -281 -236c-105 0 -182 13 -208 20zM491 148c9 22 13 41 13 59c0 42 -25 73 -85 105l-111 59c-38 21 -49 34 -65 48
c-8 -25 -14 -46 -14 -66c0 -33 18 -61 80 -95l113 -62c23 -12 51 -30 69 -48z" />
    <glyph glyph-name="dieresis" unicode="&#xa8;" 
d="M497 643h-81l21 118h81zM269 643l21 118h-82l-21 -118h82z" />
    <glyph glyph-name="copyright" unicode="&#xa9;" horiz-adv-x="845" 
d="M842 377c0 -230 -145 -364 -348 -364c-202 0 -349 134 -349 364c0 228 147 363 349 363c203 0 348 -135 348 -363zM770 377c0 184 -114 296 -276 296s-275 -112 -275 -296c0 -186 113 -298 275 -298s276 112 276 298zM612 173c-23 -6 -74 -10 -112 -10
c-117 0 -181 65 -181 183v62c0 121 64 182 181 182c38 0 91 -4 112 -10v-100h-56l-7 42c-15 1 -27 1 -45 1c-82 0 -104 -31 -104 -115v-62c0 -83 22 -116 104 -116c17 0 29 0 45 2l7 41h56v-100z" />
    <glyph glyph-name="ordfeminine" unicode="&#xaa;" horiz-adv-x="432" 
d="M459 434h-101l4 24c-24 -14 -68 -32 -117 -32c-67 0 -96 29 -96 92c0 104 82 118 190 118h50l3 19c2 11 3 20 3 28c0 30 -16 38 -71 38c-19 0 -38 -1 -58 -3l-11 -31h-52l13 74c13 4 69 16 128 16c97 0 126 -32 126 -84c0 -12 -2 -25 -4 -38l-28 -161l31 -2zM368 507
l14 81h-51c-59 0 -112 -3 -112 -70c0 -34 17 -36 48 -36c40 0 84 16 101 25z" />
    <glyph glyph-name="guillemotleft" unicode="&#xab;" horiz-adv-x="676" 
d="M632 81h-106l-127 208l200 206h106l-195 -206zM338 81l-122 208l195 206h-106l-200 -206l127 -208h106z" />
    <glyph glyph-name="logicalnot" unicode="&#xac;" horiz-adv-x="702" 
d="M649 244h-75v220h-372v75h447v-295z" />
    <glyph glyph-name="uni00AD" unicode="&#xad;" horiz-adv-x="396" 
d="M365 255h-247l14 75h247z" />
    <glyph glyph-name="registered" unicode="&#xae;" horiz-adv-x="682" 
d="M681 476c0 -171 -104 -283 -268 -283s-268 112 -268 283c0 172 104 283 268 283s268 -111 268 -283zM620 476c0 142 -78 227 -207 227c-130 0 -208 -85 -208 -227c0 -144 78 -228 208 -228c129 0 207 84 207 228zM395 325h-109v42l23 3v228l-23 3v45c36 1 72 1 110 1
c80 0 141 -15 141 -97v-3c0 -48 -22 -79 -64 -92l58 -84l27 -3v-43h-72l-80 119h-34v-74l23 -3v-42zM473 547v3c0 43 -27 46 -77 46h-24v-103h25c51 0 76 11 76 54z" />
    <glyph glyph-name="macron" unicode="&#xaf;" 
d="M515 655h-343l12 70h343z" />
    <glyph glyph-name="degree" unicode="&#xb0;" horiz-adv-x="454" 
d="M475 581c0 -96 -78 -172 -174 -172s-173 76 -173 172s77 173 173 173s174 -77 174 -173zM399 581c0 59 -44 100 -99 100c-54 0 -98 -41 -98 -100c0 -58 44 -100 98 -100c55 0 99 42 99 100z" />
    <glyph glyph-name="plusminus" unicode="&#xb1;" horiz-adv-x="702" 
d="M672 0h-494v74h494v-74zM676 384h-213v-215h-73v215h-215v73h215v215h73v-215h213v-73z" />
    <glyph glyph-name="two.superior" unicode="&#xb2;" horiz-adv-x="451" 
d="M431 301h-316l9 56c17 104 63 145 181 196c65 28 111 47 111 94c0 36 -27 47 -92 47c-19 0 -48 -1 -74 -3l-14 -45h-55l17 94c18 4 91 16 146 16c105 0 153 -36 153 -101c0 -84 -64 -115 -152 -155c-106 -48 -126 -66 -137 -130l-1 -5h174l13 43h55z" />
    <glyph glyph-name="three.superior" unicode="&#xb3;" horiz-adv-x="450" 
d="M186 356c23 -1 50 -3 77 -3c72 0 115 25 115 106c0 25 -13 42 -68 42h-136l10 60h137c55 0 91 30 91 89c0 32 -24 44 -90 44c-24 0 -52 -1 -75 -3l-14 -45h-55l17 94c15 4 87 16 144 16c102 0 155 -31 155 -100c0 -53 -26 -100 -77 -125c30 -16 41 -46 41 -77
c0 -121 -82 -163 -201 -163c-56 0 -118 12 -140 19l17 95h55z" />
    <glyph glyph-name="acute" unicode="&#xb4;" 
d="M526 770l-177 -154h-90l158 154h109z" />
    <glyph glyph-name="mu" unicode="&#xb5;" horiz-adv-x="645" 
d="M76 -131l107 602l-54 5l13 74h144l-61 -351c-18 -100 -8 -136 69 -136c42 0 102 17 179 49l64 359l-54 5l13 74h144l-83 -472l53 -5l-12 -73h-144l7 43c-78 -37 -144 -57 -201 -57c-29 0 -52 4 -71 12l-23 -129l54 -5l-14 -74h-198l14 74z" />
    <glyph glyph-name="paragraph" unicode="&#xb6;" horiz-adv-x="736" 
d="M619 -198h-84l152 864h-57l-152 -864h-196l13 74l113 6l66 375h-46c-162 0 -279 35 -279 179c0 18 2 38 6 59l2 10c35 202 176 238 366 238h262z" />
    <glyph glyph-name="periodcentered" unicode="&#xb7;" horiz-adv-x="252" 
d="M237 300h-91l25 138h91z" />
    <glyph glyph-name="cedilla" unicode="&#xb8;" 
d="M289 -68l-162 -142h-92l142 142h112z" />
    <glyph glyph-name="one.superior" unicode="&#xb9;" horiz-adv-x="430" 
d="M418 300h-290l11 59l104 3l55 310l-111 -33l12 67l136 43h59l-69 -387l104 -3z" />
    <glyph glyph-name="ordmasculine" unicode="&#xba;" horiz-adv-x="437" 
d="M482 576c-19 -104 -84 -151 -190 -151c-89 0 -134 47 -134 125c0 14 1 28 4 44l5 33c19 105 83 150 188 150c90 0 136 -46 136 -124c0 -14 -2 -31 -4 -44zM410 585l5 33c2 13 4 24 4 34c0 45 -24 64 -75 64c-61 0 -93 -28 -106 -98l-5 -33c-2 -13 -4 -24 -4 -34
c0 -45 24 -64 74 -64c62 0 94 28 107 98z" />
    <glyph glyph-name="guillemotright" unicode="&#xbb;" horiz-adv-x="676" 
d="M671 289l-199 -208h-106l194 208l-121 206h106zM377 289l-127 206h-106l122 -206l-195 -208h106z" />
    <glyph glyph-name="onequarter" unicode="&#xbc;" horiz-adv-x="942" 
d="M904 110h-70l-10 -56l32 -3l-8 -51h-148l8 51l34 3l10 56h-225l12 66l276 270h78l-48 -275h70zM766 171l32 181l-185 -181h153zM918 743l-605 -743h-90l605 743h90zM410 300h-290l11 59l104 3l55 310l-110 -33l12 67l135 43h59l-69 -387l104 -3z" />
    <glyph glyph-name="onehalf" unicode="&#xbd;" horiz-adv-x="1033" 
d="M918 743l-605 -743h-90l605 743h90zM410 300h-290l11 59l104 3l55 310l-110 -33l12 67l135 43h59l-69 -387l104 -3zM960 0h-316l9 56c17 104 63 145 181 196c65 28 111 47 111 94c0 36 -27 47 -92 47c-19 0 -48 -1 -74 -3l-14 -45h-55l17 94c18 4 91 16 146 16
c105 0 153 -36 153 -101c0 -84 -64 -115 -152 -155c-106 -48 -126 -66 -137 -130l-1 -5h174l13 43h55z" />
    <glyph glyph-name="threequarters" unicode="&#xbe;" horiz-adv-x="988" 
d="M926 743l-604 -743h-90l604 743h90zM943 110h-70l-10 -56l32 -3l-8 -51h-148l8 51l34 3l10 56h-225l12 66l276 270h78l-48 -275h70zM805 171l32 181l-185 -181h153zM182 356c23 -1 50 -3 77 -3c72 0 115 25 115 106c0 25 -13 42 -68 42h-136l10 60h137c55 0 91 30 91 89
c0 32 -24 44 -90 44c-24 0 -52 -1 -75 -3l-14 -45h-55l17 94c15 4 87 16 144 16c102 0 155 -31 155 -100c0 -53 -26 -100 -77 -125c30 -16 41 -46 41 -77c0 -121 -82 -163 -201 -163c-56 0 -118 12 -140 19l17 95h55z" />
    <glyph glyph-name="questiondown" unicode="&#xbf;" horiz-adv-x="496" 
d="M363 550h91l-24 -138h-91zM430 -80l-23 -134c-53 -13 -117 -23 -170 -23c-115 0 -186 34 -186 134c0 95 56 156 145 232c106 91 117 116 129 186l7 42h87l-7 -42c-15 -85 -30 -131 -139 -223c-55 -46 -125 -106 -125 -187c0 -50 41 -63 111 -63c26 0 51 1 76 2l24 76h71z
" />
    <glyph glyph-name="Agrave" unicode="&#xc0;" horiz-adv-x="743" 
d="M239 0h-203l12 73l56 5l295 586l-58 5l14 74h211l100 -665l51 -5l-12 -73h-202l12 73l56 4l-23 166h-266l-82 -166l51 -4zM535 327l-32 217c-6 40 -8 78 -8 122h-10c-17 -44 -32 -82 -52 -122l-109 -217h211zM579 800h-87l-123 154h106z" />
    <glyph glyph-name="Aacute" unicode="&#xc1;" horiz-adv-x="743" 
d="M239 0h-203l12 73l56 5l295 586l-58 5l14 74h211l100 -665l51 -5l-12 -73h-202l12 73l56 4l-23 166h-266l-82 -166l51 -4zM535 327l-32 217c-6 40 -8 78 -8 122h-10c-17 -44 -32 -82 -52 -122l-109 -217h211zM681 954l-177 -154h-90l158 154h109z" />
    <glyph glyph-name="Acircumflex" unicode="&#xc2;" horiz-adv-x="743" 
d="M239 0h-203l12 73l56 5l295 586l-58 5l14 74h211l100 -665l51 -5l-12 -73h-202l12 73l56 4l-23 166h-266l-82 -166l51 -4zM535 327l-32 217c-6 40 -8 78 -8 122h-10c-17 -44 -32 -82 -52 -122l-109 -217h211zM704 800h-87l-86 105l-123 -105h-93l162 154h119z" />
    <glyph glyph-name="Atilde" unicode="&#xc3;" horiz-adv-x="743" 
d="M239 0h-203l12 73l56 5l295 586l-58 5l14 74h211l100 -665l51 -5l-12 -73h-202l12 73l56 4l-23 166h-266l-82 -166l51 -4zM535 327l-32 217c-6 40 -8 78 -8 122h-10c-17 -44 -32 -82 -52 -122l-109 -217h211zM735 925c-13 -75 -45 -124 -119 -124c-37 0 -65 14 -94 41
l-36 33c-18 19 -31 28 -52 28c-28 0 -38 -22 -45 -61l-6 -34h-65l6 34c13 75 50 124 122 124c38 0 61 -11 90 -38l36 -34c18 -17 33 -29 54 -29c29 0 38 21 45 60l6 34h64z" />
    <glyph glyph-name="Adieresis" unicode="&#xc4;" horiz-adv-x="743" 
d="M239 0h-203l12 73l56 5l295 586l-58 5l14 74h211l100 -665l51 -5l-12 -73h-202l12 73l56 4l-23 166h-266l-82 -166l51 -4zM535 327l-32 217c-6 40 -8 78 -8 122h-10c-17 -44 -32 -82 -52 -122l-109 -217h211zM665 811h-81l21 118h81zM437 811l21 118h-82l-21 -118h82z
" />
    <glyph glyph-name="Aring" unicode="&#xc5;" horiz-adv-x="743" 
d="M239 0h-203l12 73l56 5l295 586l-58 5l14 74h211l100 -665l51 -5l-12 -73h-202l12 73l56 4l-23 166h-266l-82 -166l51 -4zM535 327l-32 217c-6 40 -8 78 -8 122h-10c-17 -44 -32 -82 -52 -122l-109 -217h211zM640 872c0 -77 -50 -109 -115 -109c-66 0 -118 32 -118 109
s52 109 118 109c65 0 115 -32 115 -109zM580 872c0 42 -25 55 -55 55c-32 0 -56 -13 -56 -55c0 -41 24 -55 56 -55c30 0 55 14 55 55z" />
    <glyph glyph-name="AE" unicode="&#xc6;" horiz-adv-x="996" 
d="M35 0l12 73l56 6l295 585l-54 5l14 74h712l-27 -151h-71l2 69h-267l-41 -234h328l-15 -83h-328l-46 -263h267l22 71h71l-26 -152h-493l12 73l55 5l29 165h-264l-82 -167l51 -3l-12 -73h-200zM557 325l59 337h-132c-17 -37 -34 -74 -53 -112l-111 -225h237z" />
    <glyph glyph-name="Ccedilla" unicode="&#xc7;" horiz-adv-x="599" 
d="M546 3c-31 -5 -116 -17 -185 -17c-145 0 -260 49 -260 234c0 31 3 66 10 105l22 123c48 271 195 307 364 307c69 0 150 -11 179 -17l-26 -146h-71l3 78c-28 1 -70 3 -100 3c-151 0 -226 -57 -258 -240l-22 -123c-6 -34 -9 -63 -9 -89c0 -114 59 -152 183 -152
c30 0 72 1 100 2l25 80h71zM377 -68l-162 -142h-92l142 142h112z" />
    <glyph glyph-name="Egrave" unicode="&#xc8;" horiz-adv-x="600" 
d="M524 0h-474l12 73l55 5l104 586l-54 5l14 74h474l-27 -151h-72l2 69h-246l-41 -234h307l-15 -83h-307l-46 -263h246l22 71h72zM535 800h-87l-123 154h106z" />
    <glyph glyph-name="Eacute" unicode="&#xc9;" horiz-adv-x="600" 
d="M524 0h-474l12 73l55 5l104 586l-54 5l14 74h474l-27 -151h-72l2 69h-246l-41 -234h307l-15 -83h-307l-46 -263h246l22 71h72zM657 954l-177 -154h-90l158 154h109z" />
    <glyph glyph-name="Ecircumflex" unicode="&#xca;" horiz-adv-x="600" 
d="M524 0h-474l12 73l55 5l104 586l-54 5l14 74h474l-27 -151h-72l2 69h-246l-41 -234h307l-15 -83h-307l-46 -263h246l22 71h72zM647 800h-87l-86 105l-123 -105h-93l162 154h119z" />
    <glyph glyph-name="Edieresis" unicode="&#xcb;" horiz-adv-x="600" 
d="M524 0h-474l12 73l55 5l104 586l-54 5l14 74h474l-27 -151h-72l2 69h-246l-41 -234h307l-15 -83h-307l-46 -263h246l22 71h72zM619 811h-81l21 118h81zM391 811l21 118h-82l-21 -118h82z" />
    <glyph glyph-name="Igrave" unicode="&#xcc;" horiz-adv-x="304" 
d="M252 0h-200l12 73l55 5l104 586l-54 5l14 74h200l-14 -74l-54 -5l-104 -586l53 -5zM371 800h-87l-123 154h106z" />
    <glyph glyph-name="Iacute" unicode="&#xcd;" horiz-adv-x="304" 
d="M252 0h-200l12 73l55 5l104 586l-54 5l14 74h200l-14 -74l-54 -5l-104 -586l53 -5zM483 954l-177 -154h-90l158 154h109z" />
    <glyph glyph-name="Icircumflex" unicode="&#xce;" horiz-adv-x="304" 
d="M252 0h-200l12 73l55 5l104 586l-54 5l14 74h200l-14 -74l-54 -5l-104 -586l53 -5zM487 800h-87l-86 105l-123 -105h-93l162 154h119z" />
    <glyph glyph-name="Idieresis" unicode="&#xcf;" horiz-adv-x="304" 
d="M252 0h-200l12 73l55 5l104 586l-54 5l14 74h200l-14 -74l-54 -5l-104 -586l53 -5zM450 811h-81l21 118h81zM222 811l21 118h-82l-21 -118h82z" />
    <glyph glyph-name="Eth" unicode="&#xd0;" horiz-adv-x="695" 
d="M109 345l15 81h53l42 235l-53 8l14 74h248c227 0 293 -93 293 -235c0 -29 -3 -60 -9 -93l-21 -121c-34 -189 -141 -294 -380 -294h-262l12 73l56 8l46 264h-54zM599 312l21 121c5 28 7 53 7 75c0 115 -68 153 -207 153h-109l-42 -235h150l-15 -81h-149l-46 -264h109
c159 0 249 50 281 231z" />
    <glyph glyph-name="Ntilde" unicode="&#xd1;" horiz-adv-x="746" 
d="M812 669l-54 -5l-117 -664h-131l-169 533c-11 37 -26 82 -37 126h-2c-6 -49 -14 -103 -23 -155l-75 -426l53 -5l-12 -73h-194l12 73l55 5l104 586l-54 5l14 74h186l167 -519c12 -36 27 -87 38 -127h2c6 59 15 117 23 163l72 405l-53 5l13 73h196zM728 920
c-13 -75 -45 -124 -119 -124c-37 0 -65 14 -94 41l-36 33c-18 19 -31 28 -52 28c-28 0 -38 -22 -45 -61l-6 -34h-65l6 34c13 75 50 124 122 124c38 0 61 -11 90 -38l36 -34c18 -17 33 -29 54 -29c29 0 38 21 45 60l6 34h64z" />
    <glyph glyph-name="Ograve" unicode="&#xd2;" horiz-adv-x="683" 
d="M682 303c-38 -212 -150 -317 -338 -317c-163 0 -241 93 -241 248c0 30 3 63 9 98l18 106c36 212 155 317 338 317c165 0 242 -93 242 -243c0 -34 -4 -67 -10 -103zM591 318l18 106c4 24 9 62 9 88c0 116 -48 161 -159 161c-124 0 -207 -68 -238 -250l-18 -106
c-4 -21 -8 -62 -8 -88c0 -116 56 -161 157 -161c125 0 206 68 239 250zM550 800h-87l-123 154h106z" />
    <glyph glyph-name="Oacute" unicode="&#xd3;" horiz-adv-x="683" 
d="M682 303c-38 -212 -150 -317 -338 -317c-163 0 -241 93 -241 248c0 30 3 63 9 98l18 106c36 212 155 317 338 317c165 0 242 -93 242 -243c0 -34 -4 -67 -10 -103zM591 318l18 106c4 24 9 62 9 88c0 116 -48 161 -159 161c-124 0 -207 -68 -238 -250l-18 -106
c-4 -21 -8 -62 -8 -88c0 -116 56 -161 157 -161c125 0 206 68 239 250zM680 954l-177 -154h-90l158 154h109z" />
    <glyph glyph-name="Ocircumflex" unicode="&#xd4;" horiz-adv-x="683" 
d="M682 303c-38 -212 -150 -317 -338 -317c-163 0 -241 93 -241 248c0 30 3 63 9 98l18 106c36 212 155 317 338 317c165 0 242 -93 242 -243c0 -34 -4 -67 -10 -103zM591 318l18 106c4 24 9 62 9 88c0 116 -48 161 -159 161c-124 0 -207 -68 -238 -250l-18 -106
c-4 -21 -8 -62 -8 -88c0 -116 56 -161 157 -161c125 0 206 68 239 250zM676 800h-87l-86 105l-123 -105h-93l162 154h119z" />
    <glyph glyph-name="Otilde" unicode="&#xd5;" horiz-adv-x="683" 
d="M682 303c-38 -212 -150 -317 -338 -317c-163 0 -241 93 -241 248c0 30 3 63 9 98l18 106c36 212 155 317 338 317c165 0 242 -93 242 -243c0 -34 -4 -67 -10 -103zM591 318l18 106c4 24 9 62 9 88c0 116 -48 161 -159 161c-124 0 -207 -68 -238 -250l-18 -106
c-4 -21 -8 -62 -8 -88c0 -116 56 -161 157 -161c125 0 206 68 239 250zM700 920c-13 -75 -45 -124 -119 -124c-37 0 -65 14 -94 41l-36 33c-18 19 -31 28 -52 28c-28 0 -38 -22 -45 -61l-6 -34h-65l6 34c13 75 50 124 122 124c38 0 61 -11 90 -38l36 -34
c18 -17 33 -29 54 -29c29 0 38 21 45 60l6 34h64z" />
    <glyph glyph-name="Odieresis" unicode="&#xd6;" horiz-adv-x="683" 
d="M682 303c-38 -212 -150 -317 -338 -317c-163 0 -241 93 -241 248c0 30 3 63 9 98l18 106c36 212 155 317 338 317c165 0 242 -93 242 -243c0 -34 -4 -67 -10 -103zM591 318l18 106c4 24 9 62 9 88c0 116 -48 161 -159 161c-124 0 -207 -68 -238 -250l-18 -106
c-4 -21 -8 -62 -8 -88c0 -116 56 -161 157 -161c125 0 206 68 239 250zM639 811h-81l21 118h81zM411 811l21 118h-82l-21 -118h82z" />
    <glyph glyph-name="multiply" unicode="&#xd7;" horiz-adv-x="702" 
d="M628 239l-52 -51l-150 150l-152 -152l-51 51l152 153l-153 152l51 51l153 -152l151 152l52 -52l-152 -152z" />
    <glyph glyph-name="Oslash" unicode="&#xd8;" horiz-adv-x="683" 
d="M682 303c-38 -212 -150 -317 -338 -317c-80 0 -139 22 -179 63l-44 -49h-93l97 109c-15 35 -22 77 -22 125c0 30 3 63 9 98l18 106c36 212 155 317 338 317c80 0 140 -22 180 -62l45 50h93l-99 -110c15 -35 23 -75 23 -121c0 -34 -4 -67 -10 -103zM195 229
c0 -15 1 -28 2 -40l391 437c-25 33 -67 47 -129 47c-124 0 -207 -68 -238 -250l-18 -106c-4 -21 -8 -62 -8 -88zM591 318l18 106c4 24 9 62 9 88c0 14 -1 28 -3 40l-390 -436c27 -34 69 -48 127 -48c125 0 206 68 239 250z" />
    <glyph glyph-name="Ugrave" unicode="&#xd9;" horiz-adv-x="747" 
d="M815 670l-55 -5l-66 -370c-38 -215 -122 -309 -311 -309c-162 0 -234 83 -234 224c0 40 5 77 12 118l60 337l-53 5l13 73h200l-13 -73l-55 -5l-61 -346c-8 -42 -12 -78 -12 -109c0 -100 44 -141 153 -141c144 0 183 71 215 250l61 346l-53 5l13 73h199zM580 800h-87
l-123 154h106z" />
    <glyph glyph-name="Uacute" unicode="&#xda;" horiz-adv-x="747" 
d="M815 670l-55 -5l-66 -370c-38 -215 -122 -309 -311 -309c-162 0 -234 83 -234 224c0 40 5 77 12 118l60 337l-53 5l13 73h200l-13 -73l-55 -5l-61 -346c-8 -42 -12 -78 -12 -109c0 -100 44 -141 153 -141c144 0 183 71 215 250l61 346l-53 5l13 73h199zM717 954
l-177 -154h-90l158 154h109z" />
    <glyph glyph-name="Ucircumflex" unicode="&#xdb;" horiz-adv-x="747" 
d="M815 670l-55 -5l-66 -370c-38 -215 -122 -309 -311 -309c-162 0 -234 83 -234 224c0 40 5 77 12 118l60 337l-53 5l13 73h200l-13 -73l-55 -5l-61 -346c-8 -42 -12 -78 -12 -109c0 -100 44 -141 153 -141c144 0 183 71 215 250l61 346l-53 5l13 73h199zM712 800h-87
l-86 105l-123 -105h-93l162 154h119z" />
    <glyph glyph-name="Udieresis" unicode="&#xdc;" horiz-adv-x="747" 
d="M815 670l-55 -5l-66 -370c-38 -215 -122 -309 -311 -309c-162 0 -234 83 -234 224c0 40 5 77 12 118l60 337l-53 5l13 73h200l-13 -73l-55 -5l-61 -346c-8 -42 -12 -78 -12 -109c0 -100 44 -141 153 -141c144 0 183 71 215 250l61 346l-53 5l13 73h199zM670 811h-81
l21 118h81zM442 811l21 118h-82l-21 -118h82z" />
    <glyph glyph-name="Yacute" unicode="&#xdd;" horiz-adv-x="642" 
d="M734 669l-46 -4l-271 -371l-37 -213l53 -5l-13 -76h-199l13 76l55 5l37 213l-139 371l-45 4l14 74h194l-12 -68l-56 -5l64 -172c13 -35 28 -79 37 -118h6c20 38 55 83 80 118l125 172l-58 5l12 68h200zM693 954l-177 -154h-90l158 154h109z" />
    <glyph glyph-name="Thorn" unicode="&#xde;" horiz-adv-x="637" 
d="M298 608h81c160 0 287 -27 287 -188c0 -201 -147 -266 -350 -266h-98l-13 -76l52 -5l-12 -73h-199l12 73l55 5l103 586l-53 5l13 74h199l-13 -73l-54 -5zM233 236h97c130 0 241 24 241 184c0 92 -66 106 -189 107h-98z" />
    <glyph glyph-name="germandbls" unicode="&#xdf;" horiz-adv-x="633" 
d="M269 -4l12 70c29 -1 49 -1 57 -1c132 0 197 84 197 204c0 64 -43 101 -148 101h-52l12 71h52c111 0 181 62 181 178c0 55 -30 90 -122 90c-108 0 -160 -50 -189 -213l-87 -496h-143l12 73l55 5l77 434c33 185 111 275 288 275c139 0 198 -74 198 -169
c0 -90 -41 -168 -129 -208c54 -23 83 -77 83 -143c0 -180 -110 -274 -295 -274c-7 0 -28 1 -59 3z" />
    <glyph glyph-name="agrave" unicode="&#xe0;" horiz-adv-x="574" 
d="M531 0h-140l6 37c-37 -23 -96 -51 -177 -51c-96 0 -144 42 -144 126c0 13 1 26 3 41l3 20c22 146 126 159 280 159h83l7 40c4 21 6 38 6 52c0 51 -28 64 -115 64c-30 0 -60 -1 -92 -3l-19 -58h-70l20 113c17 6 97 24 181 24c148 0 186 -50 186 -127c0 -23 -4 -49 -9 -77
l-50 -282l53 -5zM404 100l29 164h-83c-116 0 -164 -14 -180 -102l-5 -27c-1 -8 -2 -15 -2 -25c0 -41 27 -54 79 -54c66 0 136 29 162 44zM474 616h-87l-123 154h106z" />
    <glyph glyph-name="aacute" unicode="&#xe1;" horiz-adv-x="574" 
d="M531 0h-140l6 37c-37 -23 -96 -51 -177 -51c-96 0 -144 42 -144 126c0 13 1 26 3 41l3 20c22 146 126 159 280 159h83l7 40c4 21 6 38 6 52c0 51 -28 64 -115 64c-30 0 -60 -1 -92 -3l-19 -58h-70l20 113c17 6 97 24 181 24c148 0 186 -50 186 -127c0 -23 -4 -49 -9 -77
l-50 -282l53 -5zM404 100l29 164h-83c-116 0 -164 -14 -180 -102l-5 -27c-1 -8 -2 -15 -2 -25c0 -41 27 -54 79 -54c66 0 136 29 162 44zM603 770l-177 -154h-90l158 154h109z" />
    <glyph glyph-name="acircumflex" unicode="&#xe2;" horiz-adv-x="574" 
d="M531 0h-140l6 37c-37 -23 -96 -51 -177 -51c-96 0 -144 42 -144 126c0 13 1 26 3 41l3 20c22 146 126 159 280 159h83l7 40c4 21 6 38 6 52c0 51 -28 64 -115 64c-30 0 -60 -1 -92 -3l-19 -58h-70l20 113c17 6 97 24 181 24c148 0 186 -50 186 -127c0 -23 -4 -49 -9 -77
l-50 -282l53 -5zM404 100l29 164h-83c-116 0 -164 -14 -180 -102l-5 -27c-1 -8 -2 -15 -2 -25c0 -41 27 -54 79 -54c66 0 136 29 162 44zM583 616h-87l-86 105l-123 -105h-93l162 154h119z" />
    <glyph glyph-name="atilde" unicode="&#xe3;" horiz-adv-x="574" 
d="M531 0h-140l6 37c-37 -23 -96 -51 -177 -51c-96 0 -144 42 -144 126c0 13 1 26 3 41l3 20c22 146 126 159 280 159h83l7 40c4 21 6 38 6 52c0 51 -28 64 -115 64c-30 0 -60 -1 -92 -3l-19 -58h-70l20 113c17 6 97 24 181 24c148 0 186 -50 186 -127c0 -23 -4 -49 -9 -77
l-50 -282l53 -5zM404 100l29 164h-83c-116 0 -164 -14 -180 -102l-5 -27c-1 -8 -2 -15 -2 -25c0 -41 27 -54 79 -54c66 0 136 29 162 44zM609 735c-13 -75 -45 -124 -119 -124c-37 0 -65 14 -94 41l-36 33c-18 19 -31 28 -52 28c-28 0 -38 -22 -45 -61l-6 -34h-65l6 34
c13 75 50 124 122 124c38 0 61 -11 90 -38l36 -34c18 -17 33 -29 54 -29c29 0 38 21 45 60l6 34h64z" />
    <glyph glyph-name="adieresis" unicode="&#xe4;" horiz-adv-x="574" 
d="M531 0h-140l6 37c-37 -23 -96 -51 -177 -51c-96 0 -144 42 -144 126c0 13 1 26 3 41l3 20c22 146 126 159 280 159h83l7 40c4 21 6 38 6 52c0 51 -28 64 -115 64c-30 0 -60 -1 -92 -3l-19 -58h-70l20 113c17 6 97 24 181 24c148 0 186 -50 186 -127c0 -23 -4 -49 -9 -77
l-50 -282l53 -5zM404 100l29 164h-83c-116 0 -164 -14 -180 -102l-5 -27c-1 -8 -2 -15 -2 -25c0 -41 27 -54 79 -54c66 0 136 29 162 44zM548 643h-81l21 118h81zM320 643l21 118h-82l-21 -118h82z" />
    <glyph glyph-name="aring" unicode="&#xe5;" horiz-adv-x="574" 
d="M531 0h-140l6 37c-37 -23 -96 -51 -177 -51c-96 0 -144 42 -144 126c0 13 1 26 3 41l3 20c22 146 126 159 280 159h83l7 40c4 21 6 38 6 52c0 51 -28 64 -115 64c-30 0 -60 -1 -92 -3l-19 -58h-70l20 113c17 6 97 24 181 24c148 0 186 -50 186 -127c0 -23 -4 -49 -9 -77
l-50 -282l53 -5zM404 100l29 164h-83c-116 0 -164 -14 -180 -102l-5 -27c-1 -8 -2 -15 -2 -25c0 -41 27 -54 79 -54c66 0 136 29 162 44zM527 708c0 -77 -50 -109 -115 -109c-66 0 -118 32 -118 109s52 109 118 109c65 0 115 -32 115 -109zM467 708c0 42 -25 55 -55 55
c-32 0 -56 -13 -56 -55c0 -41 24 -55 56 -55c30 0 55 14 55 55z" />
    <glyph glyph-name="ae" unicode="&#xe6;" horiz-adv-x="903" 
d="M898 242h-378l-2 -11c-4 -22 -7 -43 -7 -62c0 -63 30 -105 143 -105c62 0 141 7 196 16l-13 -72c-41 -10 -110 -22 -198 -22c-93 0 -152 24 -184 69c-77 -48 -159 -69 -235 -69c-96 0 -144 42 -144 126c0 13 1 26 3 41l3 20c22 146 126 159 280 159h83l7 40
c4 21 6 38 6 52c0 51 -28 64 -115 64c-30 0 -60 -1 -92 -3l-19 -58h-70l20 113c17 6 97 24 181 24c103 0 152 -24 173 -65c45 44 103 65 174 65c128 0 205 -57 205 -187c0 -44 -6 -86 -17 -135zM404 100l29 164h-83c-116 0 -164 -14 -180 -102l-5 -27c-1 -8 -2 -15 -2 -25
c0 -41 27 -54 79 -54c66 0 136 29 162 44zM819 316c4 23 7 44 7 61c0 55 -23 109 -120 109c-123 0 -159 -93 -171 -160l-2 -10h286z" />
    <glyph glyph-name="ccedilla" unicode="&#xe7;" horiz-adv-x="504" 
d="M451 5c-21 -6 -88 -19 -168 -19c-131 0 -188 74 -188 190c0 23 2 49 7 75l14 83c28 158 119 230 269 230c74 0 143 -12 162 -19l-21 -118h-70v57c-19 2 -58 3 -73 3c-97 0 -157 -33 -180 -170l-14 -83c-4 -24 -6 -44 -6 -62c0 -93 52 -109 126 -109c30 0 86 3 154 10z
M329 -68l-162 -142h-92l142 142h112z" />
    <glyph glyph-name="egrave" unicode="&#xe8;" horiz-adv-x="570" 
d="M565 242h-378l-2 -11c-4 -22 -7 -43 -7 -62c0 -63 30 -105 143 -105c62 0 141 7 196 16l-13 -72c-41 -10 -110 -22 -198 -22c-155 0 -216 68 -216 187c0 30 5 63 11 99l7 42c31 173 133 250 269 250c128 0 205 -57 205 -187c0 -44 -6 -86 -17 -135zM486 316
c4 23 7 44 7 61c0 55 -23 109 -120 109c-123 0 -158 -93 -170 -160l-2 -10h285zM477 616h-87l-123 154h106z" />
    <glyph glyph-name="eacute" unicode="&#xe9;" horiz-adv-x="570" 
d="M565 242h-378l-2 -11c-4 -22 -7 -43 -7 -62c0 -63 30 -105 143 -105c62 0 141 7 196 16l-13 -72c-41 -10 -110 -22 -198 -22c-155 0 -216 68 -216 187c0 30 5 63 11 99l7 42c31 173 133 250 269 250c128 0 205 -57 205 -187c0 -44 -6 -86 -17 -135zM486 316
c4 23 7 44 7 61c0 55 -23 109 -120 109c-123 0 -158 -93 -170 -160l-2 -10h285zM611 770l-177 -154h-90l158 154h109z" />
    <glyph glyph-name="ecircumflex" unicode="&#xea;" horiz-adv-x="570" 
d="M565 242h-378l-2 -11c-4 -22 -7 -43 -7 -62c0 -63 30 -105 143 -105c62 0 141 7 196 16l-13 -72c-41 -10 -110 -22 -198 -22c-155 0 -216 68 -216 187c0 30 5 63 11 99l7 42c31 173 133 250 269 250c128 0 205 -57 205 -187c0 -44 -6 -86 -17 -135zM486 316
c4 23 7 44 7 61c0 55 -23 109 -120 109c-123 0 -158 -93 -170 -160l-2 -10h285zM594 616h-87l-86 105l-123 -105h-93l162 154h119z" />
    <glyph glyph-name="edieresis" unicode="&#xeb;" horiz-adv-x="570" 
d="M565 242h-378l-2 -11c-4 -22 -7 -43 -7 -62c0 -63 30 -105 143 -105c62 0 141 7 196 16l-13 -72c-41 -10 -110 -22 -198 -22c-155 0 -216 68 -216 187c0 30 5 63 11 99l7 42c31 173 133 250 269 250c128 0 205 -57 205 -187c0 -44 -6 -86 -17 -135zM486 316
c4 23 7 44 7 61c0 55 -23 109 -120 109c-123 0 -158 -93 -170 -160l-2 -10h285zM559 643h-81l21 118h81zM331 643l21 118h-82l-21 -118h82z" />
    <glyph glyph-name="igrave" unicode="&#xec;" horiz-adv-x="284" 
d="M312 616h-87l-123 154h106zM242 0h-198l13 74l54 4l70 393l-54 5l13 74h144l-83 -472l54 -4z" />
    <glyph glyph-name="iacute" unicode="&#xed;" horiz-adv-x="284" 
d="M445 770l-177 -154h-90l158 154h109zM242 0h-198l13 74l54 4l70 393l-54 5l13 74h144l-83 -472l54 -4z" />
    <glyph glyph-name="icircumflex" unicode="&#xee;" horiz-adv-x="284" 
d="M242 0h-198l13 74l54 4l70 393l-54 5l13 74h144l-83 -472l54 -4zM443 616h-87l-86 105l-123 -105h-93l162 154h119z" />
    <glyph glyph-name="idieresis" unicode="&#xef;" horiz-adv-x="284" 
d="M409 643h-81l21 118h81zM181 643l21 118h-82l-21 -118h82zM242 0h-198l13 74l54 4l70 393l-54 5l13 74h144l-83 -472l54 -4z" />
    <glyph glyph-name="eth" unicode="&#xf0;" horiz-adv-x="581" 
d="M537 757l-64 -39c86 -72 111 -182 111 -295c0 -69 -9 -139 -20 -202c-28 -160 -119 -235 -269 -235c-138 0 -201 71 -201 183c0 30 2 58 6 82l14 80c28 162 122 233 269 233c38 0 70 -6 98 -16c-12 53 -36 96 -82 125l-151 -91l-27 48l115 70c-33 9 -72 14 -119 14
c-4 0 -14 0 -23 -1l12 72c10 1 21 1 27 1c77 0 138 -12 188 -35l88 53zM476 235l14 80c5 29 6 45 6 65c0 65 -26 105 -121 105c-108 0 -153 -51 -174 -170l-14 -80c-4 -22 -6 -41 -6 -66c0 -72 33 -104 120 -104c112 0 154 51 175 170z" />
    <glyph glyph-name="ntilde" unicode="&#xf1;" horiz-adv-x="639" 
d="M595 0h-144l61 348c4 25 7 46 7 64c0 51 -21 74 -77 74c-48 0 -106 -14 -179 -52l-63 -356l53 -5l-12 -73h-198l12 73l55 5l70 393l-54 5l13 74h143l-6 -40c68 39 131 54 186 54c111 0 146 -59 146 -144c0 -26 -4 -56 -9 -86l-45 -256l53 -5zM639 736
c-13 -75 -45 -124 -119 -124c-37 0 -65 14 -94 41l-36 33c-18 19 -31 28 -52 28c-28 0 -38 -22 -45 -61l-6 -34h-65l6 34c13 75 50 124 122 124c38 0 61 -11 90 -38l36 -34c18 -17 33 -29 54 -29c29 0 38 21 45 60l6 34h64z" />
    <glyph glyph-name="ograve" unicode="&#xf2;" horiz-adv-x="581" 
d="M564 221c-28 -160 -119 -235 -269 -235c-138 0 -201 71 -201 183c0 30 2 58 6 82l14 80c28 162 122 233 269 233c133 0 203 -61 203 -184c0 -27 -6 -65 -8 -79zM476 235l14 80c5 29 6 45 6 65c0 65 -26 105 -121 105c-108 0 -153 -51 -174 -170l-14 -80
c-4 -22 -6 -41 -6 -66c0 -72 33 -104 120 -104c112 0 154 51 175 170zM460 616h-87l-123 154h106z" />
    <glyph glyph-name="oacute" unicode="&#xf3;" horiz-adv-x="581" 
d="M564 221c-28 -160 -119 -235 -269 -235c-138 0 -201 71 -201 183c0 30 2 58 6 82l14 80c28 162 122 233 269 233c133 0 203 -61 203 -184c0 -27 -6 -65 -8 -79zM476 235l14 80c5 29 6 45 6 65c0 65 -26 105 -121 105c-108 0 -153 -51 -174 -170l-14 -80
c-4 -22 -6 -41 -6 -66c0 -72 33 -104 120 -104c112 0 154 51 175 170zM600 770l-177 -154h-90l158 154h109z" />
    <glyph glyph-name="ocircumflex" unicode="&#xf4;" horiz-adv-x="581" 
d="M564 221c-28 -160 -119 -235 -269 -235c-138 0 -201 71 -201 183c0 30 2 58 6 82l14 80c28 162 122 233 269 233c133 0 203 -61 203 -184c0 -27 -6 -65 -8 -79zM476 235l14 80c5 29 6 45 6 65c0 65 -26 105 -121 105c-108 0 -153 -51 -174 -170l-14 -80
c-4 -22 -6 -41 -6 -66c0 -72 33 -104 120 -104c112 0 154 51 175 170zM593 616h-87l-86 105l-123 -105h-93l162 154h119z" />
    <glyph glyph-name="otilde" unicode="&#xf5;" horiz-adv-x="581" 
d="M564 221c-28 -160 -119 -235 -269 -235c-138 0 -201 71 -201 183c0 30 2 58 6 82l14 80c28 162 122 233 269 233c133 0 203 -61 203 -184c0 -27 -6 -65 -8 -79zM476 235l14 80c5 29 6 45 6 65c0 65 -26 105 -121 105c-108 0 -153 -51 -174 -170l-14 -80
c-4 -22 -6 -41 -6 -66c0 -72 33 -104 120 -104c112 0 154 51 175 170zM617 736c-13 -75 -45 -124 -119 -124c-37 0 -65 14 -94 41l-36 33c-18 19 -31 28 -52 28c-28 0 -38 -22 -45 -61l-6 -34h-65l6 34c13 75 50 124 122 124c38 0 61 -11 90 -38l36 -34
c18 -17 33 -29 54 -29c29 0 38 21 45 60l6 34h64z" />
    <glyph glyph-name="odieresis" unicode="&#xf6;" horiz-adv-x="581" 
d="M564 221c-28 -160 -119 -235 -269 -235c-138 0 -201 71 -201 183c0 30 2 58 6 82l14 80c28 162 122 233 269 233c133 0 203 -61 203 -184c0 -27 -6 -65 -8 -79zM476 235l14 80c5 29 6 45 6 65c0 65 -26 105 -121 105c-108 0 -153 -51 -174 -170l-14 -80
c-4 -22 -6 -41 -6 -66c0 -72 33 -104 120 -104c112 0 154 51 175 170zM559 643h-81l21 118h81zM331 643l21 118h-82l-21 -118h82z" />
    <glyph glyph-name="divide" unicode="&#xf7;" horiz-adv-x="702" 
d="M472 117h-92v134h92v-134zM664 354v74h-477v-74h477zM472 528h-92v133h92v-133z" />
    <glyph glyph-name="oslash" unicode="&#xf8;" horiz-adv-x="581" 
d="M564 221c-28 -160 -119 -235 -269 -235c-60 0 -105 14 -138 37l-45 -48h-93l94 101c-13 26 -19 57 -19 93c0 30 2 58 6 82l14 80c28 162 122 233 269 233c64 0 114 -15 148 -43l50 53h93l-103 -110c10 -24 15 -52 15 -84c0 -27 -6 -65 -8 -79zM181 169c0 -7 0 -14 1 -20
l289 308c-19 18 -49 28 -96 28c-108 0 -153 -51 -174 -170l-14 -80c-4 -22 -6 -41 -6 -66zM476 235l14 80c5 29 6 45 6 65v4l-281 -300c19 -13 47 -19 86 -19c112 0 154 51 175 170z" />
    <glyph glyph-name="ugrave" unicode="&#xf9;" horiz-adv-x="639" 
d="M595 0h-144l7 43c-72 -37 -135 -57 -195 -57c-106 0 -137 61 -137 142c0 26 3 54 8 83l46 260l-54 5l13 74h144l-61 -351c-5 -30 -8 -53 -8 -72c0 -48 20 -64 70 -64c49 0 109 17 186 49l64 359l-54 5l13 74h144l-83 -472l53 -5zM490 616h-87l-123 154h106z" />
    <glyph glyph-name="uacute" unicode="&#xfa;" horiz-adv-x="639" 
d="M595 0h-144l7 43c-72 -37 -135 -57 -195 -57c-106 0 -137 61 -137 142c0 26 3 54 8 83l46 260l-54 5l13 74h144l-61 -351c-5 -30 -8 -53 -8 -72c0 -48 20 -64 70 -64c49 0 109 17 186 49l64 359l-54 5l13 74h144l-83 -472l53 -5zM631 770l-177 -154h-90l158 154h109z" />
    <glyph glyph-name="ucircumflex" unicode="&#xfb;" horiz-adv-x="639" 
d="M595 0h-144l7 43c-72 -37 -135 -57 -195 -57c-106 0 -137 61 -137 142c0 26 3 54 8 83l46 260l-54 5l13 74h144l-61 -351c-5 -30 -8 -53 -8 -72c0 -48 20 -64 70 -64c49 0 109 17 186 49l64 359l-54 5l13 74h144l-83 -472l53 -5zM619 616h-87l-86 105l-123 -105h-93
l162 154h119z" />
    <glyph glyph-name="udieresis" unicode="&#xfc;" horiz-adv-x="639" 
d="M595 0h-144l7 43c-72 -37 -135 -57 -195 -57c-106 0 -137 61 -137 142c0 26 3 54 8 83l46 260l-54 5l13 74h144l-61 -351c-5 -30 -8 -53 -8 -72c0 -48 20 -64 70 -64c49 0 109 17 186 49l64 359l-54 5l13 74h144l-83 -472l53 -5zM583 643h-81l21 118h81zM355 643l21 118
h-82l-21 -118h82z" />
    <glyph glyph-name="yacute" unicode="&#xfd;" horiz-adv-x="657" 
d="M692 476l-62 -5l-272 -519c-56 -106 -103 -174 -216 -174c-47 0 -87 6 -105 10l12 69c43 -3 68 -4 104 -4c54 0 75 28 118 108l21 39l-99 471l-62 5l13 74h184l-11 -67l-32 -3l44 -239c9 -49 13 -87 18 -146h2c25 59 42 96 68 147l120 238l-32 3l11 67h189zM645 770
l-177 -154h-90l158 154h109z" />
    <glyph glyph-name="thorn" unicode="&#xfe;" horiz-adv-x="610" 
d="M508 254l10 54c5 23 8 55 8 76c0 75 -34 101 -101 101c-43 0 -80 -9 -150 -41l-65 -367c43 -9 83 -15 120 -15c96 0 148 31 178 192zM334 774l-46 -257c55 34 112 47 165 47c105 0 162 -52 162 -171c0 -29 -4 -62 -11 -99l-10 -54c-37 -212 -132 -254 -277 -254
c-37 0 -88 7 -120 16l-24 -133l54 -5l-14 -74h-197l14 74l54 5l146 826l-53 5l13 74h144z" />
    <glyph glyph-name="ydieresis" unicode="&#xff;" horiz-adv-x="657" 
d="M692 476l-62 -5l-272 -519c-56 -106 -103 -174 -216 -174c-47 0 -87 6 -105 10l12 69c43 -3 68 -4 104 -4c54 0 75 28 118 108l21 39l-99 471l-62 5l13 74h184l-11 -67l-32 -3l44 -239c9 -49 13 -87 18 -146h2c25 59 42 96 68 147l120 238l-32 3l11 67h189zM595 643h-81
l21 118h81zM367 643l21 118h-82l-21 -118h82z" />
    <glyph glyph-name="Amacron" unicode="&#x100;" horiz-adv-x="743" 
d="M239 0h-203l12 73l56 5l295 586l-58 5l14 74h211l100 -665l51 -5l-12 -73h-202l12 73l56 4l-23 166h-266l-82 -166l51 -4zM535 327l-32 217c-6 40 -8 78 -8 122h-10c-17 -44 -32 -82 -52 -122l-109 -217h211zM672 811h-343l12 70h343z" />
    <glyph glyph-name="amacron" unicode="&#x101;" horiz-adv-x="574" 
d="M531 0h-140l6 37c-37 -23 -96 -51 -177 -51c-96 0 -144 42 -144 126c0 13 1 26 3 41l3 20c22 146 126 159 280 159h83l7 40c4 21 6 38 6 52c0 51 -28 64 -115 64c-30 0 -60 -1 -92 -3l-19 -58h-70l20 113c17 6 97 24 181 24c148 0 186 -50 186 -127c0 -23 -4 -49 -9 -77
l-50 -282l53 -5zM404 100l29 164h-83c-116 0 -164 -14 -180 -102l-5 -27c-1 -8 -2 -15 -2 -25c0 -41 27 -54 79 -54c66 0 136 29 162 44zM571 652h-343l12 70h343z" />
    <glyph glyph-name="Abreve" unicode="&#x102;" horiz-adv-x="743" 
d="M239 0h-203l12 73l56 5l295 586l-58 5l14 74h211l100 -665l51 -5l-12 -73h-202l12 73l56 4l-23 166h-266l-82 -166l51 -4zM535 327l-32 217c-6 40 -8 78 -8 122h-10c-17 -44 -32 -82 -52 -122l-109 -217h211zM705 955c-21 -80 -57 -155 -192 -155
c-103 0 -146 63 -146 136c0 6 0 13 1 19h67c0 -5 -1 -10 -1 -15c0 -59 29 -80 86 -80c63 0 98 24 118 95h67z" />
    <glyph glyph-name="abreve" unicode="&#x103;" horiz-adv-x="574" 
d="M531 0h-140l6 37c-37 -23 -96 -51 -177 -51c-96 0 -144 42 -144 126c0 13 1 26 3 41l3 20c22 146 126 159 280 159h83l7 40c4 21 6 38 6 52c0 51 -28 64 -115 64c-30 0 -60 -1 -92 -3l-19 -58h-70l20 113c17 6 97 24 181 24c148 0 186 -50 186 -127c0 -23 -4 -49 -9 -77
l-50 -282l53 -5zM404 100l29 164h-83c-116 0 -164 -14 -180 -102l-5 -27c-1 -8 -2 -15 -2 -25c0 -41 27 -54 79 -54c66 0 136 29 162 44zM582 770c-21 -80 -57 -155 -192 -155c-103 0 -146 63 -146 136c0 6 0 13 1 19h67c0 -5 -1 -10 -1 -15c0 -59 29 -80 86 -80
c63 0 98 24 118 95h67z" />
    <glyph glyph-name="Aogonek" unicode="&#x104;" horiz-adv-x="743" 
d="M239 0h-203l12 73l56 5l295 586l-58 5l14 74h211l100 -665l51 -5l-12 -73c-41 -18 -158 -64 -158 -128c0 -20 13 -32 52 -32c33 0 60 2 78 4l-9 -50c-20 -6 -54 -11 -88 -11c-71 0 -110 25 -110 80c0 67 52 101 125 137h-92l12 73l56 4l-23 166h-266l-82 -166l51 -4z
M535 327l-32 217c-6 40 -8 78 -8 122h-10c-17 -44 -32 -82 -52 -122l-109 -217h211z" />
    <glyph glyph-name="aogonek" unicode="&#x105;" horiz-adv-x="574" 
d="M531 0c-76 -25 -165 -63 -165 -123c0 -25 13 -37 53 -37c33 0 60 2 78 4l-9 -50c-21 -6 -54 -11 -85 -11c-66 0 -115 20 -115 87c0 69 67 115 103 130l6 37c-37 -23 -96 -51 -177 -51c-96 0 -144 42 -144 126c0 13 1 26 3 41l3 20c22 146 126 159 280 159h83l7 40
c4 21 6 38 6 52c0 51 -28 64 -115 64c-30 0 -60 -1 -92 -3l-19 -58h-70l20 113c17 6 97 24 181 24c148 0 186 -50 186 -127c0 -23 -4 -49 -9 -77l-50 -282l53 -5zM404 100l29 164h-83c-116 0 -164 -14 -180 -102l-5 -27c-1 -8 -2 -15 -2 -25c0 -41 27 -54 79 -54
c66 0 136 29 162 44z" />
    <glyph glyph-name="Cacute" unicode="&#x106;" horiz-adv-x="599" 
d="M546 3c-31 -5 -116 -17 -185 -17c-145 0 -260 49 -260 234c0 31 3 66 10 105l22 123c48 271 195 307 364 307c69 0 150 -11 179 -17l-26 -146h-71l3 78c-28 1 -70 3 -100 3c-151 0 -226 -57 -258 -240l-22 -123c-6 -34 -9 -63 -9 -89c0 -114 59 -152 183 -152
c30 0 72 1 100 2l25 80h71zM685 954l-177 -154h-90l158 154h109z" />
    <glyph glyph-name="cacute" unicode="&#x107;" horiz-adv-x="504" 
d="M451 5c-21 -6 -88 -19 -168 -19c-131 0 -188 74 -188 190c0 23 2 49 7 75l14 83c28 158 119 230 269 230c74 0 143 -12 162 -19l-21 -118h-70v57c-19 2 -58 3 -73 3c-97 0 -157 -33 -180 -170l-14 -83c-4 -24 -6 -44 -6 -62c0 -93 52 -109 126 -109c30 0 86 3 154 10z
M586 770l-177 -154h-90l158 154h109z" />
    <glyph glyph-name="Ccircumflex" unicode="&#x108;" horiz-adv-x="599" 
d="M546 3c-31 -5 -116 -17 -185 -17c-145 0 -260 49 -260 234c0 31 3 66 10 105l22 123c48 271 195 307 364 307c69 0 150 -11 179 -17l-26 -146h-71l3 78c-28 1 -70 3 -100 3c-151 0 -226 -57 -258 -240l-22 -123c-6 -34 -9 -63 -9 -89c0 -114 59 -152 183 -152
c30 0 72 1 100 2l25 80h71zM672 800h-87l-86 105l-123 -105h-93l162 154h119z" />
    <glyph glyph-name="ccircumflex" unicode="&#x109;" horiz-adv-x="504" 
d="M451 5c-21 -6 -88 -19 -168 -19c-131 0 -188 74 -188 190c0 23 2 49 7 75l14 83c28 158 119 230 269 230c74 0 143 -12 162 -19l-21 -118h-70v57c-19 2 -58 3 -73 3c-97 0 -157 -33 -180 -170l-14 -83c-4 -24 -6 -44 -6 -62c0 -93 52 -109 126 -109c30 0 86 3 154 10z
M576 616h-87l-86 105l-123 -105h-93l162 154h119z" />
    <glyph glyph-name="Cdotaccent" unicode="&#x10a;" horiz-adv-x="599" 
d="M546 3c-31 -5 -116 -17 -185 -17c-145 0 -260 49 -260 234c0 31 3 66 10 105l22 123c48 271 195 307 364 307c69 0 150 -11 179 -17l-26 -146h-71l3 78c-28 1 -70 3 -100 3c-151 0 -226 -57 -258 -240l-22 -123c-6 -34 -9 -63 -9 -89c0 -114 59 -152 183 -152
c30 0 72 1 100 2l25 80h71zM511 802h-89l21 120h89z" />
    <glyph glyph-name="cdotaccent" unicode="&#x10b;" horiz-adv-x="504" 
d="M451 5c-21 -6 -88 -19 -168 -19c-131 0 -188 74 -188 190c0 23 2 49 7 75l14 83c28 158 119 230 269 230c74 0 143 -12 162 -19l-21 -118h-70v57c-19 2 -58 3 -73 3c-97 0 -157 -33 -180 -170l-14 -83c-4 -24 -6 -44 -6 -62c0 -93 52 -109 126 -109c30 0 86 3 154 10z
M431 651h-89l21 120h89z" />
    <glyph glyph-name="Ccaron" unicode="&#x10c;" horiz-adv-x="599" 
d="M546 3c-31 -5 -116 -17 -185 -17c-145 0 -260 49 -260 234c0 31 3 66 10 105l22 123c48 271 195 307 364 307c69 0 150 -11 179 -17l-26 -146h-71l3 78c-28 1 -70 3 -100 3c-151 0 -226 -57 -258 -240l-22 -123c-6 -34 -9 -63 -9 -89c0 -114 59 -152 183 -152
c30 0 72 1 100 2l25 80h71zM689 954l-162 -154h-119l-108 154h86l86 -106l123 106h94z" />
    <glyph glyph-name="ccaron" unicode="&#x10d;" horiz-adv-x="504" 
d="M451 5c-21 -6 -88 -19 -168 -19c-131 0 -188 74 -188 190c0 23 2 49 7 75l14 83c28 158 119 230 269 230c74 0 143 -12 162 -19l-21 -118h-70v57c-19 2 -58 3 -73 3c-97 0 -157 -33 -180 -170l-14 -83c-4 -24 -6 -44 -6 -62c0 -93 52 -109 126 -109c30 0 86 3 154 10z
M607 770l-162 -154h-119l-108 154h86l86 -106l123 106h94z" />
    <glyph glyph-name="Dcaron" unicode="&#x10e;" horiz-adv-x="695" 
d="M691 294c-34 -189 -141 -294 -380 -294h-262l12 73l56 8l102 580l-53 8l14 74h248c227 0 293 -93 293 -235c0 -29 -3 -60 -9 -93zM599 312l21 121c5 28 7 53 7 75c0 115 -68 153 -207 153h-109l-102 -580h109c159 0 249 50 281 231zM707 954l-162 -154h-119l-108 154h86
l86 -106l123 106h94z" />
    <glyph glyph-name="dcaron" unicode="&#x10f;" horiz-adv-x="680" 
d="M830 774l-114 -229h-69l88 229h95zM557 0h-141l4 28c-40 -22 -98 -42 -156 -42c-112 0 -173 64 -173 180c0 22 2 47 7 73l17 95c35 197 140 230 267 230c44 0 84 -5 127 -14l26 145l-61 5l13 74h152l-123 -696l53 -5zM430 97l66 378c-43 8 -90 13 -120 13
c-89 0 -148 -25 -174 -172l-17 -95c-4 -20 -5 -39 -5 -55c0 -71 34 -103 109 -103c50 0 96 14 141 34z" />
    <glyph glyph-name="Dcroat" unicode="&#x110;" horiz-adv-x="695" 
d="M691 294c-34 -189 -141 -294 -380 -294h-262l12 73l56 8l46 264h-53l15 81h52l42 235l-53 8l14 74h248c227 0 293 -93 293 -235c0 -29 -3 -60 -9 -93zM599 312l21 121c5 28 7 53 7 75c0 115 -68 153 -207 153h-109l-42 -235h151l-15 -81h-150l-46 -264h109
c159 0 249 50 281 231z" />
    <glyph glyph-name="dcroat" unicode="&#x111;" horiz-adv-x="600" 
d="M671 627h-58l-97 -549l53 -5l-12 -73h-141l4 28c-40 -22 -98 -42 -156 -42c-112 0 -173 64 -173 180c0 22 2 47 7 73l17 95c35 197 140 230 267 230c44 0 84 -5 127 -14l13 77h-172l14 78h172l12 69h91l-12 -69h58zM430 97l66 378c-43 8 -90 13 -120 13
c-89 0 -148 -25 -174 -172l-17 -95c-4 -20 -5 -39 -5 -55c0 -71 34 -103 109 -103c50 0 96 14 141 34z" />
    <glyph glyph-name="Emacron" unicode="&#x112;" horiz-adv-x="600" 
d="M524 0h-474l12 73l55 5l104 586l-54 5l14 74h474l-27 -151h-72l2 69h-246l-41 -234h307l-15 -83h-307l-46 -263h246l22 71h72zM634 811h-343l12 70h343z" />
    <glyph glyph-name="emacron" unicode="&#x113;" horiz-adv-x="570" 
d="M565 242h-378l-2 -11c-4 -22 -7 -43 -7 -62c0 -63 30 -105 143 -105c62 0 141 7 196 16l-13 -72c-41 -10 -110 -22 -198 -22c-155 0 -216 68 -216 187c0 30 5 63 11 99l7 42c31 173 133 250 269 250c128 0 205 -57 205 -187c0 -44 -6 -86 -17 -135zM486 316
c4 23 7 44 7 61c0 55 -23 109 -120 109c-123 0 -158 -93 -170 -160l-2 -10h285zM579 652h-343l12 70h343z" />
    <glyph glyph-name="Ebreve" unicode="&#x114;" horiz-adv-x="600" 
d="M524 0h-474l12 73l55 5l104 586l-54 5l14 74h474l-27 -151h-72l2 69h-246l-41 -234h307l-15 -83h-307l-46 -263h246l22 71h72zM663 955c-21 -80 -57 -155 -192 -155c-103 0 -146 63 -146 136c0 6 0 13 1 19h67c0 -5 -1 -10 -1 -15c0 -59 29 -80 86 -80c63 0 98 24 118 95
h67z" />
    <glyph glyph-name="ebreve" unicode="&#x115;" horiz-adv-x="570" 
d="M565 242h-378l-2 -11c-4 -22 -7 -43 -7 -62c0 -63 30 -105 143 -105c62 0 141 7 196 16l-13 -72c-41 -10 -110 -22 -198 -22c-155 0 -216 68 -216 187c0 30 5 63 11 99l7 42c31 173 133 250 269 250c128 0 205 -57 205 -187c0 -44 -6 -86 -17 -135zM486 316
c4 23 7 44 7 61c0 55 -23 109 -120 109c-123 0 -158 -93 -170 -160l-2 -10h285zM591 770c-21 -80 -57 -155 -192 -155c-103 0 -146 63 -146 136c0 6 0 13 1 19h67c0 -5 -1 -10 -1 -15c0 -59 29 -80 86 -80c63 0 98 24 118 95h67z" />
    <glyph glyph-name="Edotaccent" unicode="&#x116;" horiz-adv-x="600" 
d="M524 0h-474l12 73l55 5l104 586l-54 5l14 74h474l-27 -151h-72l2 69h-246l-41 -234h307l-15 -83h-307l-46 -263h246l22 71h72zM509 811h-89l21 120h89z" />
    <glyph glyph-name="edotaccent" unicode="&#x117;" horiz-adv-x="570" 
d="M565 242h-378l-2 -11c-4 -22 -7 -43 -7 -62c0 -63 30 -105 143 -105c62 0 141 7 196 16l-13 -72c-41 -10 -110 -22 -198 -22c-155 0 -216 68 -216 187c0 30 5 63 11 99l7 42c31 173 133 250 269 250c128 0 205 -57 205 -187c0 -44 -6 -86 -17 -135zM486 316
c4 23 7 44 7 61c0 55 -23 109 -120 109c-123 0 -158 -93 -170 -160l-2 -10h285zM454 653h-89l21 120h89z" />
    <glyph glyph-name="Eogonek" unicode="&#x118;" horiz-adv-x="600" 
d="M524 0h-36c-62 -33 -129 -73 -129 -123c0 -25 13 -37 53 -37c33 0 60 2 78 4l-9 -50c-21 -6 -54 -11 -85 -11c-66 0 -115 20 -115 87c0 63 46 100 99 130h-330l12 73l55 5l104 586l-54 5l14 74h474l-27 -151h-72l2 69h-246l-41 -234h307l-15 -83h-307l-46 -263h246l22 71
h72z" />
    <glyph glyph-name="eogonek" unicode="&#x119;" horiz-adv-x="570" 
d="M565 242h-378l-2 -11c-4 -22 -7 -43 -7 -62c0 -63 30 -105 143 -105c62 0 141 7 196 16l-13 -72c-75 -26 -166 -71 -166 -131c0 -25 13 -37 53 -37c33 0 60 2 78 4l-9 -50c-21 -6 -54 -11 -85 -11c-66 0 -115 20 -115 87c0 56 38 91 83 117c-12 -1 -24 -1 -37 -1
c-155 0 -216 68 -216 187c0 30 5 63 11 99l7 42c31 173 133 250 269 250c128 0 205 -57 205 -187c0 -44 -6 -86 -17 -135zM486 316c4 23 7 44 7 61c0 55 -23 109 -120 109c-123 0 -158 -93 -170 -160l-2 -10h285z" />
    <glyph glyph-name="Ecaron" unicode="&#x11a;" horiz-adv-x="600" 
d="M524 0h-474l12 73l55 5l104 586l-54 5l14 74h474l-27 -151h-72l2 69h-246l-41 -234h307l-15 -83h-307l-46 -263h246l22 71h72zM667 954l-162 -154h-119l-108 154h86l86 -106l123 106h94z" />
    <glyph glyph-name="ecaron" unicode="&#x11b;" horiz-adv-x="570" 
d="M565 242h-378l-2 -11c-4 -22 -7 -43 -7 -62c0 -63 30 -105 143 -105c62 0 141 7 196 16l-13 -72c-41 -10 -110 -22 -198 -22c-155 0 -216 68 -216 187c0 30 5 63 11 99l7 42c31 173 133 250 269 250c128 0 205 -57 205 -187c0 -44 -6 -86 -17 -135zM486 316
c4 23 7 44 7 61c0 55 -23 109 -120 109c-123 0 -158 -93 -170 -160l-2 -10h285zM627 770l-162 -154h-119l-108 154h86l86 -106l123 106h94z" />
    <glyph glyph-name="Gcircumflex" unicode="&#x11c;" horiz-adv-x="633" 
d="M569 7c-31 -6 -121 -21 -222 -21c-141 0 -246 65 -246 237c0 30 3 63 10 100l24 131c48 261 196 301 349 301c108 0 204 -17 213 -19l-25 -144h-72l3 76c-31 2 -79 5 -122 5c-125 0 -220 -33 -257 -236l-24 -131c-6 -32 -9 -61 -9 -85c0 -119 68 -151 182 -151
c43 0 85 1 116 3l41 233l-105 8l13 72h198zM666 800h-87l-86 105l-123 -105h-93l162 154h119z" />
    <glyph glyph-name="gcircumflex" unicode="&#x11d;" horiz-adv-x="589" 
d="M636 564l-11 -64l-60 -8c8 -11 20 -36 20 -77c0 -151 -109 -222 -254 -222c-47 0 -92 5 -127 21c-20 -12 -42 -28 -42 -52c0 -17 12 -34 40 -34h108c127 0 218 -16 218 -144c0 -149 -120 -207 -274 -207c-160 0 -215 58 -215 155c0 57 27 110 76 145
c-23 16 -38 35 -38 75c0 47 38 85 76 103c-18 24 -28 55 -28 97c0 142 102 212 259 212h252zM297 53h-112c-38 -32 -57 -74 -57 -111c0 -64 34 -92 128 -92c119 0 182 32 182 129c0 61 -36 74 -141 74zM374 490c-97 0 -163 -37 -163 -133c0 -58 28 -89 124 -89
c98 0 162 37 162 135c0 56 -30 87 -123 87zM589 616h-87l-86 105l-123 -105h-93l162 154h119z" />
    <glyph glyph-name="Gbreve" unicode="&#x11e;" horiz-adv-x="633" 
d="M569 7c-31 -6 -121 -21 -222 -21c-141 0 -246 65 -246 237c0 30 3 63 10 100l24 131c48 261 196 301 349 301c108 0 204 -17 213 -19l-25 -144h-72l3 76c-31 2 -79 5 -122 5c-125 0 -220 -33 -257 -236l-24 -131c-6 -32 -9 -61 -9 -85c0 -119 68 -151 182 -151
c43 0 85 1 116 3l41 233l-105 8l13 72h198zM687 954c-21 -80 -57 -155 -192 -155c-103 0 -146 63 -146 136c0 6 0 13 1 19h67c0 -5 -1 -10 -1 -15c0 -59 29 -80 86 -80c63 0 98 24 118 95h67z" />
    <glyph glyph-name="gbreve" unicode="&#x11f;" horiz-adv-x="589" 
d="M636 564l-11 -64l-60 -8c8 -11 20 -36 20 -77c0 -151 -109 -222 -254 -222c-47 0 -92 5 -127 21c-20 -12 -42 -28 -42 -52c0 -17 12 -34 40 -34h108c127 0 218 -16 218 -144c0 -149 -120 -207 -274 -207c-160 0 -215 58 -215 155c0 57 27 110 76 145
c-23 16 -38 35 -38 75c0 47 38 85 76 103c-18 24 -28 55 -28 97c0 142 102 212 259 212h252zM297 53h-112c-38 -32 -57 -74 -57 -111c0 -64 34 -92 128 -92c119 0 182 32 182 129c0 61 -36 74 -141 74zM374 490c-97 0 -163 -37 -163 -133c0 -58 28 -89 124 -89
c98 0 162 37 162 135c0 56 -30 87 -123 87zM591 770c-21 -80 -57 -155 -192 -155c-103 0 -146 63 -146 136c0 6 0 13 1 19h67c0 -5 -1 -10 -1 -15c0 -59 29 -80 86 -80c63 0 98 24 118 95h67z" />
    <glyph glyph-name="Gdotaccent" unicode="&#x120;" horiz-adv-x="633" 
d="M569 7c-31 -6 -121 -21 -222 -21c-141 0 -246 65 -246 237c0 30 3 63 10 100l24 131c48 261 196 301 349 301c108 0 204 -17 213 -19l-25 -144h-72l3 76c-31 2 -79 5 -122 5c-125 0 -220 -33 -257 -236l-24 -131c-6 -32 -9 -61 -9 -85c0 -119 68 -151 182 -151
c43 0 85 1 116 3l41 233l-105 8l13 72h198zM527 811h-89l21 120h89z" />
    <glyph glyph-name="gdotaccent" unicode="&#x121;" horiz-adv-x="589" 
d="M636 564l-11 -64l-60 -8c8 -11 20 -36 20 -77c0 -151 -109 -222 -254 -222c-47 0 -92 5 -127 21c-20 -12 -42 -28 -42 -52c0 -17 12 -34 40 -34h108c127 0 218 -16 218 -144c0 -149 -120 -207 -274 -207c-160 0 -215 58 -215 155c0 57 27 110 76 145
c-23 16 -38 35 -38 75c0 47 38 85 76 103c-18 24 -28 55 -28 97c0 142 102 212 259 212h252zM297 53h-112c-38 -32 -57 -74 -57 -111c0 -64 34 -92 128 -92c119 0 182 32 182 129c0 61 -36 74 -141 74zM374 490c-97 0 -163 -37 -163 -133c0 -58 28 -89 124 -89
c98 0 162 37 162 135c0 56 -30 87 -123 87zM450 653h-89l21 120h89z" />
    <glyph glyph-name="Gcommaaccent" unicode="&#x122;" horiz-adv-x="633" 
d="M569 7c-31 -6 -121 -21 -222 -21c-141 0 -246 65 -246 237c0 30 3 63 10 100l24 131c48 261 196 301 349 301c108 0 204 -17 213 -19l-25 -144h-72l3 76c-31 2 -79 5 -122 5c-125 0 -220 -33 -257 -236l-24 -131c-6 -32 -9 -61 -9 -85c0 -119 68 -151 182 -151
c43 0 85 1 116 3l41 233l-105 8l13 72h198zM403 -68l-115 -142h-82l93 142h104z" />
    <glyph glyph-name="gcommaaccent" unicode="&#x123;" horiz-adv-x="589" 
d="M636 564l-11 -64l-60 -8c8 -11 20 -36 20 -77c0 -151 -109 -222 -254 -222c-47 0 -92 5 -127 21c-20 -12 -42 -28 -42 -52c0 -17 12 -34 40 -34h108c127 0 218 -16 218 -144c0 -149 -120 -207 -274 -207c-160 0 -215 58 -215 155c0 57 27 110 76 145
c-23 16 -38 35 -38 75c0 47 38 85 76 103c-18 24 -28 55 -28 97c0 142 102 212 259 212h252zM297 53h-112c-38 -32 -57 -74 -57 -111c0 -64 34 -92 128 -92c119 0 182 32 182 129c0 61 -36 74 -141 74zM374 490c-97 0 -163 -37 -163 -133c0 -58 28 -89 124 -89
c98 0 162 37 162 135c0 56 -30 87 -123 87zM543 758l-92 -142h-104l114 142h82z" />
    <glyph glyph-name="Hcircumflex" unicode="&#x124;" horiz-adv-x="764" 
d="M714 0h-200l12 73l55 5l48 273h-372l-48 -273l53 -5l-12 -73h-200l12 73l55 5l104 586l-54 5l14 74h200l-13 -73l-55 -5l-41 -231h372l41 231l-53 5l13 73h200l-14 -74l-54 -5l-104 -586l53 -5zM715 800h-87l-86 105l-123 -105h-93l162 154h119z" />
    <glyph glyph-name="hcircumflex" unicode="&#x125;" horiz-adv-x="639" 
d="M595 0h-144l61 348c4 24 6 43 6 60c0 59 -27 78 -86 78c-62 0 -129 -22 -167 -39l-65 -369l53 -5l-12 -73h-198l12 73l55 5l109 617l-53 5l13 74h144l-45 -255c37 18 107 45 186 45c107 0 145 -54 145 -143c0 -17 -2 -41 -10 -87l-45 -256l53 -5zM651 806h-87l-86 105
l-123 -105h-93l162 154h119z" />
    <glyph glyph-name="Hbar" unicode="&#x126;" horiz-adv-x="764" 
d="M714 0h-200l12 73l55 5l48 273h-372l-48 -273l53 -5l-12 -73h-200l12 73l55 5l78 443h-54l13 72h54l13 71l-54 5l14 74h200l-13 -73l-55 -5l-13 -72h372l13 72l-53 5l13 73h200l-14 -74l-54 -5l-13 -71h54l-13 -72h-54l-78 -443l53 -5zM644 434l15 87h-372l-15 -87h372z
" />
    <glyph glyph-name="hbar" unicode="&#x127;" horiz-adv-x="639" 
d="M150 631l13 74h58l12 69h90l-12 -69h174l-13 -74h-174l-20 -112c37 18 107 45 183 45c100 0 146 -50 146 -148c0 -23 -2 -49 -7 -77l-46 -261l53 -5l-12 -73h-144l61 348c4 24 6 43 6 60c0 59 -27 78 -86 78c-62 0 -129 -22 -167 -39l-65 -369l53 -5l-12 -73h-198l12 73
l55 5l98 553h-58z" />
    <glyph glyph-name="Itilde" unicode="&#x128;" horiz-adv-x="304" 
d="M252 0h-200l12 73l55 5l104 586l-54 5l14 74h200l-14 -74l-54 -5l-104 -586l53 -5zM511 913c-13 -75 -45 -124 -119 -124c-37 0 -65 14 -94 41l-36 33c-18 19 -31 28 -52 28c-28 0 -38 -22 -45 -61l-6 -34h-65l6 34c13 75 50 124 122 124c38 0 61 -11 90 -38l36 -34
c18 -17 33 -29 54 -29c29 0 38 21 45 60l6 34h64z" />
    <glyph glyph-name="itilde" unicode="&#x129;" horiz-adv-x="284" 
d="M470 736c-13 -75 -45 -124 -119 -124c-37 0 -65 14 -94 41l-36 33c-18 19 -31 28 -52 28c-28 0 -38 -22 -45 -61l-6 -34h-65l6 34c13 75 50 124 122 124c38 0 61 -11 90 -38l36 -34c18 -17 33 -29 54 -29c29 0 38 21 45 60l6 34h64zM242 0h-198l13 74l54 4l70 393l-54 5
l13 74h144l-83 -472l54 -4z" />
    <glyph glyph-name="Imacron" unicode="&#x12a;" horiz-adv-x="304" 
d="M252 0h-200l12 73l55 5l104 586l-54 5l14 74h200l-14 -74l-54 -5l-104 -586l53 -5zM466 811h-343l12 70h343z" />
    <glyph glyph-name="imacron" unicode="&#x12b;" horiz-adv-x="284" 
d="M428 652h-343l12 70h343zM242 0h-198l13 74l54 4l70 393l-54 5l13 74h144l-83 -472l54 -4z" />
    <glyph glyph-name="Ibreve" unicode="&#x12c;" horiz-adv-x="304" 
d="M252 0h-200l12 73l55 5l104 586l-54 5l14 74h200l-14 -74l-54 -5l-104 -586l53 -5zM487 949c-21 -80 -57 -155 -192 -155c-103 0 -146 63 -146 136c0 6 0 13 1 19h67c0 -5 -1 -10 -1 -15c0 -59 29 -80 86 -80c63 0 98 24 118 95h67z" />
    <glyph glyph-name="ibreve" unicode="&#x12d;" horiz-adv-x="284" 
d="M446 770c-21 -80 -57 -155 -192 -155c-103 0 -146 63 -146 136c0 6 0 13 1 19h67c0 -5 -1 -10 -1 -15c0 -59 29 -80 86 -80c63 0 98 24 118 95h67zM242 0h-198l13 74l54 4l70 393l-54 5l13 74h144l-83 -472l54 -4z" />
    <glyph glyph-name="Iogonek" unicode="&#x12e;" horiz-adv-x="304" 
d="M252 0h-30c-62 -33 -130 -71 -130 -123c0 -25 13 -37 53 -37c33 0 60 2 78 4l-9 -50c-21 -6 -54 -11 -85 -11c-66 0 -115 20 -115 87c0 63 46 100 99 130h-61l12 73l55 5l104 586l-54 5l14 74h200l-14 -74l-54 -5l-104 -586l53 -5z" />
    <glyph glyph-name="iogonek" unicode="&#x12f;" horiz-adv-x="284" 
d="M241 0h-38c-63 -33 -131 -73 -131 -123c0 -25 13 -37 53 -37c33 0 60 2 78 4l-9 -50c-21 -6 -54 -11 -85 -11c-66 0 -115 20 -115 87c0 63 46 100 99 130h-50l13 74l54 4l70 393l-54 5l13 74h144l-83 -472l54 -4zM303 652h-93l22 122h93z" />
    <glyph glyph-name="Idotaccent" unicode="&#x130;" horiz-adv-x="304" 
d="M252 0h-200l12 73l55 5l104 586l-54 5l14 74h200l-14 -74l-54 -5l-104 -586l53 -5zM340 811h-89l21 120h89z" />
    <glyph glyph-name="dotlessi" unicode="&#x131;" horiz-adv-x="284" 
d="M242 0h-198l13 74l54 4l70 393l-54 5l13 74h144l-83 -472l54 -4z" />
    <glyph glyph-name="IJ" unicode="&#x132;" horiz-adv-x="568" 
d="M636 669l-54 -5l-128 -726c-19 -109 -64 -159 -181 -159c-25 0 -62 3 -73 7l12 69h68c62 0 72 23 83 83l128 726l-54 5l14 74h199zM249 0h-200l12 73l55 5l104 586l-54 5l14 74h200l-14 -74l-54 -5l-104 -586l53 -5z" />
    <glyph glyph-name="ij" unicode="&#x133;" horiz-adv-x="499" 
d="M241 0h-198l13 74l54 4l70 393l-54 5l13 74h144l-83 -472l54 -4zM303 652h-93l22 122h93zM410 -66c-21 -117 -63 -156 -167 -156c-25 0 -57 3 -65 5l12 66c12 0 34 -1 58 -1c48 0 60 20 72 86l95 537l-54 5l13 74h144zM537 652h-93l22 122h93z" />
    <glyph glyph-name="Jcircumflex" unicode="&#x134;" horiz-adv-x="299" 
d="M364 669l-54 -5l-128 -724c-19 -109 -65 -159 -181 -159c-24 0 -60 4 -73 8l12 69h68c61 0 71 22 82 82l128 724l-54 5l14 74h200zM484 800h-87l-86 105l-123 -105h-93l162 154h119z" />
    <glyph glyph-name="jcircumflex" unicode="&#x135;" horiz-adv-x="263" 
d="M175 -65c-20 -112 -62 -156 -162 -156c-28 0 -61 5 -69 7l11 65c13 -1 35 -2 58 -2c49 0 60 20 72 86l95 536l-54 5l13 74h144zM444 616h-87l-86 105l-123 -105h-93l162 154h119z" />
    <glyph glyph-name="Kcommaaccent" unicode="&#x136;" horiz-adv-x="665" 
d="M622 0h-109l-253 364l-51 -286l53 -5l-12 -73h-200l12 73l55 5l104 586l-54 5l14 74h200l-13 -73l-55 -5l-47 -263l370 341h117l-14 -74l-59 -4l-314 -288l213 -300l55 -4zM371 -68l-115 -142h-82l93 142h104z" />
    <glyph glyph-name="kcommaaccent" unicode="&#x137;" horiz-adv-x="567" 
d="M524 0h-107l-180 285l-50 -285h-144l12 73l55 5l109 617l-53 5l13 74h144l-82 -466l256 242h122l-13 -74l-69 -5l-198 -182l136 -211l61 -5zM323 -69l-115 -142h-82l93 142h104z" />
    <glyph glyph-name="kgreenlandic" unicode="&#x138;" horiz-adv-x="567" 
d="M525 0h-111l-178 273l-48 -273h-144l12 73l55 5l70 393l-54 5l13 74h144l-43 -248l268 248h111l-13 -74l-70 -5l-198 -182l137 -211l61 -5z" />
    <glyph glyph-name="Lacute" unicode="&#x139;" horiz-adv-x="577" 
d="M535 0h-486l12 73l55 5l104 586l-54 5l14 74h200l-14 -74l-54 -5l-103 -583h258l22 72h72zM669 954l-177 -154h-90l158 154h109z" />
    <glyph glyph-name="lacute" unicode="&#x13a;" horiz-adv-x="285" 
d="M242 0h-198l12 73l55 5l109 617l-53 5l13 74h144l-123 -696l53 -5zM477 954l-177 -154h-90l158 154h109z" />
    <glyph glyph-name="Lcommaaccent" unicode="&#x13b;" horiz-adv-x="577" 
d="M364 -68l-115 -142h-82l93 142h104zM536 0h-486l12 73l55 5l104 586l-54 5l14 74h200l-14 -74l-54 -5l-103 -583h258l22 72h72z" />
    <glyph glyph-name="lcommaaccent" unicode="&#x13c;" horiz-adv-x="285" 
d="M242 0h-198l12 73l55 5l109 617l-53 5l13 74h144l-123 -696l53 -5zM188 -68l-115 -142h-82l93 142h104z" />
    <glyph glyph-name="Lcaron" unicode="&#x13d;" horiz-adv-x="577" 
d="M536 0h-486l12 73l55 5l104 586l-54 5l14 74h200l-14 -74l-54 -5l-103 -583h258l22 72h72zM649 773l-125 -229h-73l99 229h99z" />
    <glyph glyph-name="lcaron" unicode="&#x13e;" horiz-adv-x="383" 
d="M242 0h-198l12 73l55 5l109 617l-53 5l13 74h144l-123 -696l53 -5zM533 774l-114 -229h-69l88 229h95z" />
    <glyph glyph-name="Ldot" unicode="&#x13f;" horiz-adv-x="577" 
d="M470 308h-88l21 119h88zM536 0h-486l12 73l55 5l104 586l-54 5l14 74h200l-14 -74l-54 -5l-103 -583h258l22 72h72z" />
    <glyph glyph-name="ldot" unicode="&#x140;" horiz-adv-x="348" 
d="M240 0h-198l12 73l55 5l109 617l-53 5l13 74h144l-123 -696l53 -5zM391 305h-90l25 138h90z" />
    <glyph glyph-name="Lslash" unicode="&#x141;" horiz-adv-x="577" 
d="M536 0h-486l12 73l55 5l36 200l-99 -79l19 108l99 79l49 278l-54 5l14 74h200l-14 -74l-54 -5l-33 -183l123 104l-19 -108l-123 -104l-51 -292h258l22 72h72z" />
    <glyph glyph-name="lslash" unicode="&#x142;" horiz-adv-x="285" 
d="M242 0h-198l12 73l55 5l39 220l-86 -72l19 109l86 72l51 288l-53 5l13 74h144l-50 -279l81 67l-20 -109l-80 -67l-54 -308l53 -5z" />
    <glyph glyph-name="Nacute" unicode="&#x143;" horiz-adv-x="746" 
d="M812 669l-54 -5l-117 -664h-131l-169 533c-11 37 -26 82 -37 126h-2c-6 -49 -14 -103 -23 -155l-75 -426l53 -5l-12 -73h-194l12 73l55 5l104 586l-54 5l14 74h186l167 -519c12 -36 27 -87 38 -127h2c6 59 15 117 23 163l72 405l-53 5l13 73h196zM716 954l-177 -154h-90
l158 154h109z" />
    <glyph glyph-name="nacute" unicode="&#x144;" horiz-adv-x="639" 
d="M595 0h-144l61 348c4 25 7 46 7 64c0 51 -21 74 -77 74c-48 0 -106 -14 -179 -52l-63 -356l53 -5l-12 -73h-198l12 73l55 5l70 393l-54 5l13 74h143l-6 -40c68 39 131 54 186 54c111 0 146 -59 146 -144c0 -26 -4 -56 -9 -86l-45 -256l53 -5zM623 770l-177 -154h-90
l158 154h109z" />
    <glyph glyph-name="Ncommaaccent" unicode="&#x145;" horiz-adv-x="746" 
d="M812 669l-54 -5l-117 -664h-131l-169 533c-11 37 -26 82 -37 126h-2c-6 -49 -14 -103 -23 -155l-75 -426l53 -5l-12 -73h-194l12 73l55 5l104 586l-54 5l14 74h186l167 -519c12 -36 27 -87 38 -127h2c6 59 15 117 23 163l72 405l-53 5l13 73h196zM417 -68l-115 -142h-82
l93 142h104z" />
    <glyph glyph-name="ncommaaccent" unicode="&#x146;" horiz-adv-x="639" 
d="M595 0h-144l61 348c4 25 7 46 7 64c0 51 -21 74 -77 74c-48 0 -106 -14 -179 -52l-63 -356l53 -5l-12 -73h-198l12 73l55 5l70 393l-54 5l13 74h143l-6 -40c68 39 131 54 186 54c111 0 146 -59 146 -144c0 -26 -4 -56 -9 -86l-45 -256l53 -5zM355 -69l-115 -142h-82
l93 142h104z" />
    <glyph glyph-name="Ncaron" unicode="&#x147;" horiz-adv-x="746" 
d="M812 669l-54 -5l-117 -664h-131l-169 533c-11 37 -26 82 -37 126h-2c-6 -49 -14 -103 -23 -155l-75 -426l53 -5l-12 -73h-194l12 73l55 5l104 586l-54 5l14 74h186l167 -519c12 -36 27 -87 38 -127h2c6 59 15 117 23 163l72 405l-53 5l13 73h196zM731 954l-162 -154h-119
l-108 154h86l86 -106l123 106h94z" />
    <glyph glyph-name="ncaron" unicode="&#x148;" horiz-adv-x="639" 
d="M595 0h-144l61 348c4 25 7 46 7 64c0 51 -21 74 -77 74c-48 0 -106 -14 -179 -52l-63 -356l53 -5l-12 -73h-198l12 73l55 5l70 393l-54 5l13 74h143l-6 -40c68 39 131 54 186 54c111 0 146 -59 146 -144c0 -26 -4 -56 -9 -86l-45 -256l53 -5zM649 770l-162 -154h-119
l-108 154h86l86 -106l123 106h94z" />
    <glyph glyph-name="napostrophe" unicode="&#x149;" horiz-adv-x="639" 
d="M595 0h-144l61 348c4 25 7 46 7 64c0 51 -21 74 -77 74c-48 0 -106 -14 -179 -52l-63 -356l53 -5l-12 -73h-198l12 73l55 5l70 393l-54 5l13 74h143l-6 -40c68 39 131 54 186 54c111 0 146 -59 146 -144c0 -26 -4 -56 -9 -86l-45 -256l53 -5zM195 774l-114 -229h-69
l88 229h95z" />
    <glyph glyph-name="Eng" unicode="&#x14a;" horiz-adv-x="746" 
d="M811 669l-54 -5l-128 -724c-19 -109 -65 -159 -182 -159c-24 0 -60 4 -73 8l12 69h69c61 0 71 22 82 82l11 60l-208 533c-19 49 -26 82 -37 126h-2c-6 -49 -14 -103 -23 -155l-75 -426l53 -5l-12 -73h-194l12 73l55 5l104 586l-54 5l14 74h179l178 -456
c19 -48 34 -87 45 -127h2c6 59 15 117 23 163l61 342l-53 5l13 73h196z" />
    <glyph glyph-name="eng" unicode="&#x14b;" horiz-adv-x="639" 
d="M530 -65c-20 -112 -62 -156 -162 -156c-29 0 -62 5 -70 7l11 65c13 -1 35 -2 59 -2c49 0 60 20 72 86l73 416c5 27 8 50 8 68c0 49 -20 68 -75 68c-44 0 -104 -17 -181 -49l-64 -360l53 -5l-12 -73h-198l12 73l55 5l70 393l-54 5l13 74h143l-7 -43c70 33 140 57 194 57
c107 0 140 -53 140 -135c0 -29 -4 -60 -10 -95z" />
    <glyph glyph-name="Omacron" unicode="&#x14c;" horiz-adv-x="683" 
d="M682 303c-38 -212 -150 -317 -338 -317c-163 0 -241 93 -241 248c0 30 3 63 9 98l18 106c36 212 155 317 338 317c165 0 242 -93 242 -243c0 -34 -4 -67 -10 -103zM591 318l18 106c4 24 9 62 9 88c0 116 -48 161 -159 161c-124 0 -207 -68 -238 -250l-18 -106
c-4 -21 -8 -62 -8 -88c0 -116 56 -161 157 -161c125 0 206 68 239 250zM658 811h-343l12 70h343z" />
    <glyph glyph-name="omacron" unicode="&#x14d;" horiz-adv-x="581" 
d="M564 221c-28 -160 -119 -235 -269 -235c-138 0 -201 71 -201 183c0 30 2 58 6 82l14 80c28 162 122 233 269 233c133 0 203 -61 203 -184c0 -27 -6 -65 -8 -79zM476 235l14 80c5 29 6 45 6 65c0 65 -26 105 -121 105c-108 0 -153 -51 -174 -170l-14 -80
c-4 -22 -6 -41 -6 -66c0 -72 33 -104 120 -104c112 0 154 51 175 170zM578 652h-343l12 70h343z" />
    <glyph glyph-name="Obreve" unicode="&#x14e;" horiz-adv-x="683" 
d="M682 303c-38 -212 -150 -317 -338 -317c-163 0 -241 93 -241 248c0 30 3 63 9 98l18 106c36 212 155 317 338 317c165 0 242 -93 242 -243c0 -34 -4 -67 -10 -103zM591 318l18 106c4 24 9 62 9 88c0 116 -48 161 -159 161c-124 0 -207 -68 -238 -250l-18 -106
c-4 -21 -8 -62 -8 -88c0 -116 56 -161 157 -161c125 0 206 68 239 250zM680 955c-21 -80 -57 -155 -192 -155c-103 0 -146 63 -146 136c0 6 0 13 1 19h67c0 -5 -1 -10 -1 -15c0 -59 29 -80 86 -80c63 0 98 24 118 95h67z" />
    <glyph glyph-name="obreve" unicode="&#x14f;" horiz-adv-x="581" 
d="M564 221c-28 -160 -119 -235 -269 -235c-138 0 -201 71 -201 183c0 30 2 58 6 82l14 80c28 162 122 233 269 233c133 0 203 -61 203 -184c0 -27 -6 -65 -8 -79zM476 235l14 80c5 29 6 45 6 65c0 65 -26 105 -121 105c-108 0 -153 -51 -174 -170l-14 -80
c-4 -22 -6 -41 -6 -66c0 -72 33 -104 120 -104c112 0 154 51 175 170zM595 770c-21 -80 -57 -155 -192 -155c-103 0 -146 63 -146 136c0 6 0 13 1 19h67c0 -5 -1 -10 -1 -15c0 -59 29 -80 86 -80c63 0 98 24 118 95h67z" />
    <glyph glyph-name="Ohungarumlaut" unicode="&#x150;" horiz-adv-x="683" 
d="M682 303c-38 -212 -150 -317 -338 -317c-163 0 -241 93 -241 248c0 30 3 63 9 98l18 106c36 212 155 317 338 317c165 0 242 -93 242 -243c0 -34 -4 -67 -10 -103zM591 318l18 106c4 24 9 62 9 88c0 116 -48 161 -159 161c-124 0 -207 -68 -238 -250l-18 -106
c-4 -21 -8 -62 -8 -88c0 -116 56 -161 157 -161c125 0 206 68 239 250zM804 955l-177 -154h-91l159 154h109zM592 955h-110l-158 -154h91z" />
    <glyph glyph-name="ohungarumlaut" unicode="&#x151;" horiz-adv-x="581" 
d="M564 221c-28 -160 -119 -235 -269 -235c-138 0 -201 71 -201 183c0 30 2 58 6 82l14 80c28 162 122 233 269 233c133 0 203 -61 203 -184c0 -27 -6 -65 -8 -79zM476 235l14 80c5 29 6 45 6 65c0 65 -26 105 -121 105c-108 0 -153 -51 -174 -170l-14 -80
c-4 -22 -6 -41 -6 -66c0 -72 33 -104 120 -104c112 0 154 51 175 170zM724 770l-177 -154h-91l159 154h109zM512 770h-110l-158 -154h91z" />
    <glyph glyph-name="OE" unicode="&#x152;" horiz-adv-x="995" 
d="M916 0h-422c-51 -7 -80 -14 -141 -14c-162 0 -239 97 -239 250c0 29 2 61 8 94l18 106c36 212 156 319 348 319c57 0 92 -5 137 -12h422l-27 -151h-72l2 69h-266l-41 -234h327l-15 -83h-327l-46 -263h266l22 71h72zM489 78c0 0 30 171 103 584c-50 8 -78 11 -118 11
c-120 0 -212 -67 -243 -249l-18 -106c-5 -30 -8 -57 -8 -81c0 -121 63 -169 162 -169c41 0 66 2 122 10z" />
    <glyph glyph-name="oe" unicode="&#x153;" horiz-adv-x="950" 
d="M945 242h-378l-2 -11c-4 -22 -7 -43 -7 -62c0 -63 30 -105 143 -105c62 0 141 7 196 16l-13 -72c-41 -10 -110 -22 -198 -22c-102 0 -161 29 -190 83c-45 -56 -111 -83 -201 -83c-138 0 -201 71 -201 183c0 30 2 58 6 82l14 80c28 162 122 233 269 233
c91 0 150 -29 178 -87c47 59 114 87 196 87c128 0 205 -57 205 -187c0 -44 -6 -86 -17 -135zM476 235l14 80c5 29 6 45 6 65c0 65 -26 105 -121 105c-108 0 -153 -51 -174 -170l-14 -80c-4 -22 -6 -41 -6 -66c0 -72 33 -104 120 -104c112 0 154 51 175 170zM866 316
c4 23 7 44 7 61c0 55 -23 109 -120 109c-123 0 -158 -93 -170 -160l-2 -10h285z" />
    <glyph glyph-name="Racute" unicode="&#x154;" horiz-adv-x="686" 
d="M207 78l53 -5l-12 -73h-200l12 73l55 5l104 586l-54 5l14 74h229c137 0 276 -23 276 -193c0 -124 -57 -201 -182 -241l98 -232l55 -4l-12 -73h-116l-120 290c-21 -1 -55 -1 -77 -1h-86zM259 370h86c144 0 244 32 244 174c0 100 -68 117 -196 117h-83zM672 954l-177 -154
h-90l158 154h109z" />
    <glyph glyph-name="racute" unicode="&#x155;" horiz-adv-x="419" 
d="M467 484c-72 0 -157 -20 -203 -47l-64 -359l53 -5l-12 -73h-198l12 73l55 5l70 393l-54 5l13 74h142l-7 -44c60 41 130 58 207 58zM536 770l-177 -154h-90l158 154h109z" />
    <glyph glyph-name="Rcommaaccent" unicode="&#x156;" horiz-adv-x="686" 
d="M207 78l53 -5l-12 -73h-200l12 73l55 5l104 586l-54 5l14 74h229c137 0 276 -23 276 -193c0 -124 -57 -201 -182 -241l98 -232l55 -4l-12 -73h-116l-120 290c-21 -1 -55 -1 -77 -1h-86zM259 370h86c144 0 244 32 244 174c0 100 -68 117 -196 117h-83zM389 -68l-115 -142
h-82l93 142h104z" />
    <glyph glyph-name="rcommaaccent" unicode="&#x157;" horiz-adv-x="419" 
d="M467 484c-72 0 -157 -20 -203 -47l-64 -359l53 -5l-12 -73h-198l12 73l55 5l70 393l-54 5l13 74h142l-7 -44c60 41 130 58 207 58zM197 -68l-115 -142h-82l93 142h104z" />
    <glyph glyph-name="Rcaron" unicode="&#x158;" horiz-adv-x="686" 
d="M207 78l53 -5l-12 -73h-200l12 73l55 5l104 586l-54 5l14 74h229c137 0 276 -23 276 -193c0 -124 -57 -201 -182 -241l98 -232l55 -4l-12 -73h-116l-120 290c-21 -1 -55 -1 -77 -1h-86zM259 370h86c144 0 244 32 244 174c0 100 -68 117 -196 117h-83zM693 954l-162 -154
h-119l-108 154h86l86 -106l123 106h94z" />
    <glyph glyph-name="rcaron" unicode="&#x159;" horiz-adv-x="419" 
d="M467 484c-72 0 -157 -20 -203 -47l-64 -359l53 -5l-12 -73h-198l12 73l55 5l70 393l-54 5l13 74h142l-7 -44c60 41 130 58 207 58zM544 770l-162 -154h-119l-108 154h86l86 -106l123 106h94z" />
    <glyph glyph-name="Sacute" unicode="&#x15a;" horiz-adv-x="584" 
d="M98 155h71l-5 -86c45 -2 63 -3 120 -3c112 1 188 40 188 146c0 47 -22 76 -82 105l-118 57c-74 35 -121 90 -121 179c0 151 125 202 270 202c99 0 184 -13 211 -20l-25 -143h-71l2 79c-38 3 -84 4 -118 4c-97 0 -174 -21 -174 -121c0 -47 21 -74 81 -103l118 -56
c80 -38 125 -80 125 -182c0 -150 -120 -227 -290 -227c-89 0 -181 14 -208 21zM644 954l-177 -154h-90l158 154h109z" />
    <glyph glyph-name="sacute" unicode="&#x15b;" horiz-adv-x="491" 
d="M58 8l22 128h70l-3 -69c34 -2 65 -4 97 -4c74 0 133 15 133 87c0 40 -18 52 -95 89l-36 17c-86 41 -125 80 -125 151c0 128 108 157 217 157c84 0 162 -13 179 -20l-20 -117h-69v56c-30 2 -71 4 -91 4c-56 0 -125 -5 -125 -79c0 -31 20 -48 81 -75l38 -17
c100 -45 138 -79 138 -159c0 -110 -87 -171 -236 -171c-77 0 -159 16 -175 22zM558 770l-177 -154h-90l158 154h109z" />
    <glyph glyph-name="Scircumflex" unicode="&#x15c;" horiz-adv-x="584" 
d="M98 155h71l-5 -86c45 -2 63 -3 120 -3c112 1 188 40 188 146c0 47 -22 76 -82 105l-118 57c-74 35 -121 90 -121 179c0 151 125 202 270 202c99 0 184 -13 211 -20l-25 -143h-71l2 79c-38 3 -84 4 -118 4c-97 0 -174 -21 -174 -121c0 -47 21 -74 81 -103l118 -56
c80 -38 125 -80 125 -182c0 -150 -120 -227 -290 -227c-89 0 -181 14 -208 21zM620 800h-87l-86 105l-123 -105h-93l162 154h119z" />
    <glyph glyph-name="scircumflex" unicode="&#x15d;" horiz-adv-x="491" 
d="M58 8l22 128h70l-3 -69c34 -2 65 -4 97 -4c74 0 133 15 133 87c0 40 -18 52 -95 89l-36 17c-86 41 -125 80 -125 151c0 128 108 157 217 157c84 0 162 -13 179 -20l-20 -117h-69v56c-30 2 -71 4 -91 4c-56 0 -125 -5 -125 -79c0 -31 20 -48 81 -75l38 -17
c100 -45 138 -79 138 -159c0 -110 -87 -171 -236 -171c-77 0 -159 16 -175 22zM546 616h-87l-86 105l-123 -105h-93l162 154h119z" />
    <glyph glyph-name="Scedilla" unicode="&#x15e;" horiz-adv-x="584" 
d="M98 155h71l-5 -86c45 -2 63 -3 120 -3c112 1 188 40 188 146c0 47 -22 76 -82 105l-118 57c-74 35 -121 90 -121 179c0 151 125 202 270 202c99 0 184 -13 211 -20l-25 -143h-71l2 79c-38 3 -84 4 -118 4c-97 0 -174 -21 -174 -121c0 -47 21 -74 81 -103l118 -56
c80 -38 125 -80 125 -182c0 -150 -120 -227 -290 -227c-89 0 -181 14 -208 21zM330 -68l-162 -142h-92l142 142h112z" />
    <glyph glyph-name="scedilla" unicode="&#x15f;" horiz-adv-x="491" 
d="M58 8l22 128h70l-3 -69c34 -2 65 -4 97 -4c74 0 133 15 133 87c0 40 -18 52 -95 89l-36 17c-86 41 -125 80 -125 151c0 128 108 157 217 157c84 0 162 -13 179 -20l-20 -117h-69v56c-30 2 -71 4 -91 4c-56 0 -125 -5 -125 -79c0 -31 20 -48 81 -75l38 -17
c100 -45 138 -79 138 -159c0 -110 -87 -171 -236 -171c-77 0 -159 16 -175 22zM293 -68l-162 -142h-92l142 142h112z" />
    <glyph glyph-name="Scaron" unicode="&#x160;" horiz-adv-x="584" 
d="M98 155h71l-5 -86c45 -2 63 -3 120 -3c112 1 188 40 188 146c0 47 -22 76 -82 105l-118 57c-74 35 -121 90 -121 179c0 151 125 202 270 202c99 0 184 -13 211 -20l-25 -143h-71l2 79c-38 3 -84 4 -118 4c-97 0 -174 -21 -174 -121c0 -47 21 -74 81 -103l118 -56
c80 -38 125 -80 125 -182c0 -150 -120 -227 -290 -227c-89 0 -181 14 -208 21zM647 954l-162 -154h-119l-108 154h86l86 -106l123 106h94z" />
    <glyph glyph-name="scaron" unicode="&#x161;" horiz-adv-x="491" 
d="M58 8l22 128h70l-3 -69c34 -2 65 -4 97 -4c74 0 133 15 133 87c0 40 -18 52 -95 89l-36 17c-86 41 -125 80 -125 151c0 128 108 157 217 157c84 0 162 -13 179 -20l-20 -117h-69v56c-30 2 -71 4 -91 4c-56 0 -125 -5 -125 -79c0 -31 20 -48 81 -75l38 -17
c100 -45 138 -79 138 -159c0 -110 -87 -171 -236 -171c-77 0 -159 16 -175 22zM576 770l-162 -154h-119l-108 154h86l86 -106l123 106h94z" />
    <glyph glyph-name="Tcommaaccent" unicode="&#x162;" horiz-adv-x="633" 
d="M695 592h-70l2 69h-149l-103 -585l53 -5l-12 -71h-200l12 71l55 5l103 585h-148l-22 -69h-70l27 151h549zM361 -68l-115 -142h-82l93 142h104z" />
    <glyph glyph-name="tcommaaccent" unicode="&#x163;" horiz-adv-x="442" 
d="M392 1c-16 -5 -61 -15 -104 -15c-81 0 -114 34 -114 101c0 15 2 32 5 51l59 337l-109 8l11 67h111l26 143h90l-26 -143h147l-13 -75h-147l-61 -345c-3 -17 -5 -31 -5 -41c0 -26 13 -31 50 -31c30 0 73 3 91 5zM295 -68l-115 -142h-82l93 142h104z" />
    <glyph glyph-name="Tcaron" unicode="&#x164;" horiz-adv-x="633" 
d="M695 592h-70l2 69h-149l-103 -585l53 -5l-12 -71h-200l12 71l55 5l103 585h-148l-22 -69h-70l27 151h549zM679 954l-162 -154h-119l-108 154h86l86 -106l123 106h94z" />
    <glyph glyph-name="tcaron" unicode="&#x165;" horiz-adv-x="442" 
d="M568 774l-89 -161h-69l63 161h95zM392 1c-16 -5 -61 -15 -104 -15c-81 0 -114 34 -114 101c0 15 2 32 5 51l59 337l-109 8l11 67h111l26 143h90l-26 -143h147l-13 -75h-147l-61 -345c-3 -17 -5 -31 -5 -41c0 -26 13 -31 50 -31c30 0 73 3 91 5z" />
    <glyph glyph-name="Tbar" unicode="&#x166;" horiz-adv-x="633" 
d="M634 384h-205l-54 -308l53 -5l-12 -71h-200l12 71l55 5l54 308h-204l14 81h204l35 196h-148l-22 -69h-70l27 151h549l-27 -151h-70l2 69h-149l-35 -196h205z" />
    <glyph glyph-name="tbar" unicode="&#x167;" horiz-adv-x="442" 
d="M392 1c-16 -5 -61 -15 -104 -15c-81 0 -114 34 -114 101c0 15 2 32 5 51l32 183l-109 8l11 67h111l14 79l-109 8l11 67h111l26 143h90l-26 -143h147l-13 -75h-147l-14 -79h147l-13 -75h-147l-34 -191c-3 -17 -5 -31 -5 -41c0 -26 13 -31 50 -31c30 0 73 3 91 5z" />
    <glyph glyph-name="Utilde" unicode="&#x168;" horiz-adv-x="747" 
d="M815 670l-55 -5l-66 -370c-38 -215 -122 -309 -311 -309c-162 0 -234 83 -234 224c0 40 5 77 12 118l60 337l-53 5l13 73h200l-13 -73l-55 -5l-61 -346c-8 -42 -12 -78 -12 -109c0 -100 44 -141 153 -141c144 0 183 71 215 250l61 346l-53 5l13 73h199zM731 917
c-13 -75 -45 -124 -119 -124c-37 0 -65 14 -94 41l-36 33c-18 19 -31 28 -52 28c-28 0 -38 -22 -45 -61l-6 -34h-65l6 34c13 75 50 124 122 124c38 0 61 -11 90 -38l36 -34c18 -17 33 -29 54 -29c29 0 38 21 45 60l6 34h64z" />
    <glyph glyph-name="utilde" unicode="&#x169;" horiz-adv-x="639" 
d="M595 0h-144l7 43c-72 -37 -135 -57 -195 -57c-106 0 -137 61 -137 142c0 26 3 54 8 83l46 260l-54 5l13 74h144l-61 -351c-5 -30 -8 -53 -8 -72c0 -48 20 -64 70 -64c49 0 109 17 186 49l64 359l-54 5l13 74h144l-83 -472l53 -5zM645 736c-13 -75 -45 -124 -119 -124
c-37 0 -65 14 -94 41l-36 33c-18 19 -31 28 -52 28c-28 0 -38 -22 -45 -61l-6 -34h-65l6 34c13 75 50 124 122 124c38 0 61 -11 90 -38l36 -34c18 -17 33 -29 54 -29c29 0 38 21 45 60l6 34h64z" />
    <glyph glyph-name="Umacron" unicode="&#x16a;" horiz-adv-x="747" 
d="M815 670l-55 -5l-66 -370c-38 -215 -122 -309 -311 -309c-162 0 -234 83 -234 224c0 40 5 77 12 118l60 337l-53 5l13 73h200l-13 -73l-55 -5l-61 -346c-8 -42 -12 -78 -12 -109c0 -100 44 -141 153 -141c144 0 183 71 215 250l61 346l-53 5l13 73h199zM686 811h-343
l12 70h343z" />
    <glyph glyph-name="umacron" unicode="&#x16b;" horiz-adv-x="639" 
d="M595 0h-144l7 43c-72 -37 -135 -57 -195 -57c-106 0 -137 61 -137 142c0 26 3 54 8 83l46 260l-54 5l13 74h144l-61 -351c-5 -30 -8 -53 -8 -72c0 -48 20 -64 70 -64c49 0 109 17 186 49l64 359l-54 5l13 74h144l-83 -472l53 -5zM602 655h-343l12 70h343z" />
    <glyph glyph-name="Ubreve" unicode="&#x16c;" horiz-adv-x="747" 
d="M815 670l-55 -5l-66 -370c-38 -215 -122 -309 -311 -309c-162 0 -234 83 -234 224c0 40 5 77 12 118l60 337l-53 5l13 73h200l-13 -73l-55 -5l-61 -346c-8 -42 -12 -78 -12 -109c0 -100 44 -141 153 -141c144 0 183 71 215 250l61 346l-53 5l13 73h199zM720 953
c-21 -80 -57 -155 -192 -155c-103 0 -146 63 -146 136c0 6 0 13 1 19h67c0 -5 -1 -10 -1 -15c0 -59 29 -80 86 -80c63 0 98 24 118 95h67z" />
    <glyph glyph-name="ubreve" unicode="&#x16d;" horiz-adv-x="639" 
d="M595 0h-144l7 43c-72 -37 -135 -57 -195 -57c-106 0 -137 61 -137 142c0 26 3 54 8 83l46 260l-54 5l13 74h144l-61 -351c-5 -30 -8 -53 -8 -72c0 -48 20 -64 70 -64c49 0 109 17 186 49l64 359l-54 5l13 74h144l-83 -472l53 -5zM611 770c-21 -80 -57 -155 -192 -155
c-103 0 -146 63 -146 136c0 6 0 13 1 19h67c0 -5 -1 -10 -1 -15c0 -59 29 -80 86 -80c63 0 98 24 118 95h67z" />
    <glyph glyph-name="Uring" unicode="&#x16e;" horiz-adv-x="747" 
d="M815 670l-55 -5l-66 -370c-38 -215 -122 -309 -311 -309c-162 0 -234 83 -234 224c0 40 5 77 12 118l60 337l-53 5l13 73h200l-13 -73l-55 -5l-61 -346c-8 -42 -12 -78 -12 -109c0 -100 44 -141 153 -141c144 0 183 71 215 250l61 346l-53 5l13 73h199zM636 907
c0 -77 -50 -109 -115 -109c-66 0 -118 32 -118 109s52 109 118 109c65 0 115 -32 115 -109zM576 907c0 42 -25 55 -55 55c-32 0 -56 -13 -56 -55c0 -41 24 -55 56 -55c30 0 55 14 55 55z" />
    <glyph glyph-name="uring" unicode="&#x16f;" horiz-adv-x="639" 
d="M595 0h-144l7 43c-72 -37 -135 -57 -195 -57c-106 0 -137 61 -137 142c0 26 3 54 8 83l46 260l-54 5l13 74h144l-61 -351c-5 -30 -8 -53 -8 -72c0 -48 20 -64 70 -64c49 0 109 17 186 49l64 359l-54 5l13 74h144l-83 -472l53 -5zM548 715c0 -77 -50 -109 -115 -109
c-66 0 -118 32 -118 109s52 109 118 109c65 0 115 -32 115 -109zM488 715c0 42 -25 55 -55 55c-32 0 -56 -13 -56 -55c0 -41 24 -55 56 -55c30 0 55 14 55 55z" />
    <glyph glyph-name="Uhungarumlaut" unicode="&#x170;" horiz-adv-x="747" 
d="M815 670l-55 -5l-66 -370c-38 -215 -122 -309 -311 -309c-162 0 -234 83 -234 224c0 40 5 77 12 118l60 337l-53 5l13 73h200l-13 -73l-55 -5l-61 -346c-8 -42 -12 -78 -12 -109c0 -100 44 -141 153 -141c144 0 183 71 215 250l61 346l-53 5l13 73h199zM824 954
l-177 -154h-91l159 154h109zM612 954h-110l-158 -154h91z" />
    <glyph glyph-name="uhungarumlaut" unicode="&#x171;" horiz-adv-x="639" 
d="M595 0h-144l7 43c-72 -37 -135 -57 -195 -57c-106 0 -137 61 -137 142c0 26 3 54 8 83l46 260l-54 5l13 74h144l-61 -351c-5 -30 -8 -53 -8 -72c0 -48 20 -64 70 -64c49 0 109 17 186 49l64 359l-54 5l13 74h144l-83 -472l53 -5zM745 770l-177 -154h-91l159 154h109z
M533 770h-110l-158 -154h91z" />
    <glyph glyph-name="Uogonek" unicode="&#x172;" horiz-adv-x="747" 
d="M815 670l-55 -5l-66 -370c-31 -176 -93 -270 -217 -299c-60 -32 -123 -71 -123 -119c0 -25 13 -37 53 -37c33 0 60 2 78 4l-9 -50c-21 -6 -54 -11 -85 -11c-66 0 -115 20 -115 87c0 54 34 89 78 117c-142 10 -205 90 -205 223c0 40 5 77 12 118l60 337l-53 5l13 73h200
l-13 -73l-55 -5l-61 -346c-8 -42 -12 -78 -12 -109c0 -100 44 -141 153 -141c144 0 183 71 215 250l61 346l-53 5l13 73h199z" />
    <glyph glyph-name="uogonek" unicode="&#x173;" horiz-adv-x="639" 
d="M595 0c-70 -30 -164 -76 -164 -123c0 -25 13 -37 53 -37c33 0 60 2 78 4l-9 -50c-21 -6 -54 -11 -85 -11c-66 0 -115 20 -115 87c0 59 66 104 125 130h-27l7 43c-72 -37 -135 -57 -195 -57c-106 0 -137 61 -137 142c0 26 3 54 8 83l46 260l-54 5l13 74h144l-61 -351
c-5 -30 -8 -53 -8 -72c0 -48 20 -64 70 -64c49 0 109 17 186 49l64 359l-54 5l13 74h144l-83 -472l53 -5z" />
    <glyph glyph-name="Wcircumflex" unicode="&#x174;" horiz-adv-x="959" 
d="M1038 669l-52 -5l-237 -664h-147l-20 460c-2 32 -3 63 -5 95h-3c-12 -32 -25 -63 -37 -95l-181 -460h-149l-3 664l-49 5l14 74h195l-13 -73l-53 -5l-5 -444c-1 -51 -1 -94 -2 -148h5c20 49 39 98 58 147l162 413h144l17 -416c1 -48 4 -96 5 -144h5c16 51 31 95 49 148
l153 444l-52 5l13 73h202zM816 800h-87l-86 105l-123 -105h-93l162 154h119z" />
    <glyph glyph-name="wcircumflex" unicode="&#x175;" horiz-adv-x="944" 
d="M979 476l-49 -4l-190 -472h-130l-47 330c-7 52 -10 87 -11 111h-4c-9 -24 -22 -59 -47 -111l-159 -330h-138l-24 472l-49 4l13 74h180l-11 -67l-41 -4l9 -269c1 -47 2 -96 2 -141h7c25 56 40 97 60 140l139 296h145l33 -296c5 -43 8 -92 13 -141h5c17 46 34 94 53 142
l102 269l-38 4l11 67h179zM759 616h-87l-86 105l-123 -105h-93l162 154h119z" />
    <glyph glyph-name="Ycircumflex" unicode="&#x176;" horiz-adv-x="642" 
d="M734 669l-46 -4l-271 -371l-37 -213l53 -5l-13 -76h-199l13 76l55 5l37 213l-139 371l-45 4l14 74h194l-12 -68l-56 -5l64 -172c13 -35 28 -79 37 -118h6c20 38 55 83 80 118l125 172l-58 5l12 68h200zM668 800h-87l-86 105l-123 -105h-93l162 154h119z" />
    <glyph glyph-name="ycircumflex" unicode="&#x177;" horiz-adv-x="657" 
d="M692 476l-62 -5l-272 -519c-56 -106 -103 -174 -216 -174c-47 0 -87 6 -105 10l12 69c43 -3 68 -4 104 -4c54 0 75 28 118 108l21 39l-99 471l-62 5l13 74h184l-11 -67l-32 -3l44 -239c9 -49 13 -87 18 -146h2c25 59 42 96 68 147l120 238l-32 3l11 67h189zM630 616h-87
l-86 105l-123 -105h-93l162 154h119z" />
    <glyph glyph-name="Ydieresis" unicode="&#x178;" horiz-adv-x="642" 
d="M734 669l-46 -4l-271 -371l-37 -213l53 -5l-13 -76h-199l13 76l55 5l37 213l-139 371l-45 4l14 74h194l-12 -68l-56 -5l64 -172c13 -35 28 -79 37 -118h6c20 38 55 83 80 118l125 172l-58 5l12 68h200zM630 818h-81l21 118h81zM402 818l21 118h-82l-21 -118h82z" />
    <glyph glyph-name="Zacute" unicode="&#x179;" horiz-adv-x="623" 
d="M569 0h-515l17 102l495 559h-300l-22 -69h-70l27 151h485l-18 -101l-495 -561h328l24 75h71zM674 954l-177 -154h-90l158 154h109z" />
    <glyph glyph-name="zacute" unicode="&#x17a;" horiz-adv-x="502" 
d="M452 0h-403l17 101l372 374h-213l-18 -48h-70l21 123h389l-16 -93l-378 -383h233l20 62h69zM586 770l-177 -154h-90l158 154h109z" />
    <glyph glyph-name="Zdotaccent" unicode="&#x17b;" horiz-adv-x="623" 
d="M569 0h-515l17 102l495 559h-300l-22 -69h-70l27 151h485l-18 -101l-495 -561h328l24 75h71zM509 809h-89l21 120h89z" />
    <glyph glyph-name="zdotaccent" unicode="&#x17c;" horiz-adv-x="502" 
d="M452 0h-403l17 101l372 374h-213l-18 -48h-70l21 123h389l-16 -93l-378 -383h233l20 62h69zM415 653h-89l21 120h89z" />
    <glyph glyph-name="Zcaron" unicode="&#x17d;" horiz-adv-x="623" 
d="M569 0h-515l17 102l495 559h-300l-22 -69h-70l27 151h485l-18 -101l-495 -561h328l24 75h71zM688 954l-162 -154h-119l-108 154h86l86 -106l123 106h94z" />
    <glyph glyph-name="zcaron" unicode="&#x17e;" horiz-adv-x="502" 
d="M452 0h-403l17 101l372 374h-213l-18 -48h-70l21 123h389l-16 -93l-378 -383h233l20 62h69zM590 770l-162 -154h-119l-108 154h86l86 -106l123 106h94z" />
    <glyph glyph-name="longs" unicode="&#x17f;" horiz-adv-x="374" 
d="M236 0h-197l12 73l55 5l95 538c19 107 48 171 172 171c48 0 80 -7 104 -14l-11 -61c-23 1 -58 4 -93 4c-61 0 -71 -30 -83 -100l-95 -538l53 -5z" />
    <glyph glyph-name="florin" unicode="&#x192;" horiz-adv-x="637" 
d="M683 743l-18 -63c-29 3 -50 5 -73 5c-53 0 -80 -11 -103 -92l-47 -164h174l-23 -75h-174l-96 -337c-35 -124 -102 -155 -183 -155c-41 0 -73 5 -99 12l17 63c28 -3 52 -5 79 -5c44 0 75 8 99 91l94 331h-157l22 75h158l47 170c34 124 99 156 189 156c35 0 67 -5 94 -12z
" />
    <glyph glyph-name="Aringacute" unicode="&#x1fa;" horiz-adv-x="743" 
d="M631 841c0 -62 -53 -87 -114 -87c-63 0 -118 25 -118 87c0 61 53 87 116 87c61 0 115 -26 116 -87zM575 841c-1 25 -27 38 -60 38c-36 0 -58 -13 -58 -38c0 -24 24 -39 60 -39c33 0 58 15 58 39zM729 1059l-162 -122h-90l143 122h109zM239 0h-203l12 73l56 5l295 586
l-58 5l14 74h211l100 -665l51 -5l-12 -73h-202l12 73l56 4l-23 166h-266l-82 -166l51 -4zM535 327l-32 217c-6 40 -8 78 -8 122h-10c-17 -44 -32 -82 -52 -122l-109 -217h211z" />
    <glyph glyph-name="aringacute" unicode="&#x1fb;" horiz-adv-x="574" 
d="M531 0h-140l6 37c-37 -23 -96 -51 -177 -51c-96 0 -144 42 -144 126c0 13 1 26 3 41l3 20c22 146 126 159 280 159h83l7 40c4 21 6 38 6 52c0 51 -28 64 -115 64c-30 0 -60 -1 -92 -3l-19 -58h-70l20 113c17 6 97 24 181 24c148 0 186 -50 186 -127c0 -23 -4 -49 -9 -77
l-50 -282l53 -5zM404 100l29 164h-83c-116 0 -164 -14 -180 -102l-5 -27c-1 -8 -2 -15 -2 -25c0 -41 27 -54 79 -54c66 0 136 29 162 44zM522 687c0 -77 -50 -109 -115 -109c-66 0 -118 32 -118 109s52 109 118 109c65 0 115 -32 115 -109zM462 687c0 42 -25 55 -55 55
c-32 0 -56 -13 -56 -55c0 -41 24 -55 56 -55c30 0 55 14 55 55zM637 966l-177 -154h-90l158 154h109z" />
    <glyph glyph-name="AEacute" unicode="&#x1fc;" horiz-adv-x="996" 
d="M35 0l12 73l56 6l295 585l-54 5l14 74h712l-27 -151h-71l2 69h-267l-41 -234h328l-15 -83h-328l-46 -263h267l22 71h71l-26 -152h-493l12 73l55 5l29 165h-264l-82 -167l51 -3l-12 -73h-200zM557 325l59 337h-132c-17 -37 -34 -74 -53 -112l-111 -225h237zM905 954
l-177 -154h-90l158 154h109z" />
    <glyph glyph-name="aeacute" unicode="&#x1fd;" horiz-adv-x="903" 
d="M898 242h-378l-2 -11c-4 -22 -7 -43 -7 -62c0 -63 30 -105 143 -105c62 0 141 7 196 16l-13 -72c-41 -10 -110 -22 -198 -22c-93 0 -152 24 -184 69c-77 -48 -159 -69 -235 -69c-96 0 -144 42 -144 126c0 13 1 26 3 41l3 20c22 146 126 159 280 159h83l7 40
c4 21 6 38 6 52c0 51 -28 64 -115 64c-30 0 -60 -1 -92 -3l-19 -58h-70l20 113c17 6 97 24 181 24c103 0 152 -24 173 -65c45 44 103 65 174 65c128 0 205 -57 205 -187c0 -44 -6 -86 -17 -135zM404 100l29 164h-83c-116 0 -164 -14 -180 -102l-5 -27c-1 -8 -2 -15 -2 -25
c0 -41 27 -54 79 -54c66 0 136 29 162 44zM819 316c4 23 7 44 7 61c0 55 -23 109 -120 109c-123 0 -159 -93 -171 -160l-2 -10h286zM772 770l-177 -154h-90l158 154h109z" />
    <glyph glyph-name="Oslashacute" unicode="&#x1fe;" horiz-adv-x="683" 
d="M687 954l-177 -154h-90l158 154h109zM682 303c-38 -212 -150 -317 -338 -317c-80 0 -139 22 -179 63l-44 -49h-93l97 109c-15 35 -22 77 -22 125c0 30 3 63 9 98l18 106c36 212 155 317 338 317c80 0 140 -22 180 -62l45 50h93l-99 -110c15 -35 23 -75 23 -121
c0 -34 -4 -67 -10 -103zM195 229c0 -15 1 -28 2 -40l391 437c-25 33 -67 47 -129 47c-124 0 -207 -68 -238 -250l-18 -106c-4 -21 -8 -62 -8 -88zM591 318l18 106c4 24 9 62 9 88c0 14 -1 28 -3 40l-390 -436c27 -34 69 -48 127 -48c125 0 206 68 239 250z" />
    <glyph glyph-name="oslashacute" unicode="&#x1ff;" horiz-adv-x="581" 
d="M609 770l-177 -154h-90l158 154h109zM564 221c-28 -160 -119 -235 -269 -235c-60 0 -105 14 -138 37l-45 -48h-93l94 101c-13 26 -19 57 -19 93c0 30 2 58 6 82l14 80c28 162 122 233 269 233c64 0 114 -15 148 -43l50 53h93l-103 -110c10 -24 15 -52 15 -84
c0 -27 -6 -65 -8 -79zM181 169c0 -7 0 -14 1 -20l289 308c-19 18 -49 28 -96 28c-108 0 -153 -51 -174 -170l-14 -80c-4 -22 -6 -41 -6 -66zM476 235l14 80c5 29 6 45 6 65v4l-281 -300c19 -13 47 -19 86 -19c112 0 154 51 175 170z" />
    <glyph glyph-name="Scommaaccent" unicode="&#x218;" horiz-adv-x="584" 
d="M98 155h71l-5 -86c45 -2 63 -3 120 -3c112 1 188 40 188 146c0 47 -22 76 -82 105l-118 57c-74 35 -121 90 -121 179c0 151 125 202 270 202c99 0 184 -13 211 -20l-25 -143h-71l2 79c-38 3 -84 4 -118 4c-97 0 -174 -21 -174 -121c0 -47 21 -74 81 -103l118 -56
c80 -38 125 -80 125 -182c0 -150 -120 -227 -290 -227c-89 0 -181 14 -208 21zM337 -68l-115 -142h-82l93 142h104z" />
    <glyph glyph-name="scommaaccent" unicode="&#x219;" horiz-adv-x="491" 
d="M58 8l22 128h70l-3 -69c34 -2 65 -4 97 -4c74 0 133 15 133 87c0 40 -18 52 -95 89l-36 17c-86 41 -125 80 -125 151c0 128 108 157 217 157c84 0 162 -13 179 -20l-20 -117h-69v56c-30 2 -71 4 -91 4c-56 0 -125 -5 -125 -79c0 -31 20 -48 81 -75l38 -17
c100 -45 138 -79 138 -159c0 -110 -87 -171 -236 -171c-77 0 -159 16 -175 22zM293 -68l-162 -142h-92l142 142h112z" />
    <glyph glyph-name="uni021A" unicode="&#x21a;" horiz-adv-x="634" 
d="M695 592h-70l2 69h-149l-103 -585l53 -5l-12 -71h-200l12 71l55 5l103 585h-148l-22 -69h-70l27 151h549zM361 -68l-115 -142h-82l93 142h104z" />
    <glyph glyph-name="uni021B" unicode="&#x21b;" horiz-adv-x="443" 
d="M392 1c-16 -5 -61 -15 -104 -15c-81 0 -114 34 -114 101c0 15 2 32 5 51l59 337l-109 8l11 67h111l26 143h90l-26 -143h147l-13 -75h-147l-61 -345c-3 -17 -5 -31 -5 -41c0 -26 13 -31 50 -31c30 0 73 3 91 5zM295 -68l-115 -142h-82l93 142h104z" />
    <glyph glyph-name="circumflex" unicode="&#x2c6;" 
d="M531 616h-87l-86 105l-123 -105h-93l162 154h119z" />
    <glyph glyph-name="caron" unicode="&#x2c7;" 
d="M558 770l-162 -154h-119l-108 154h86l86 -106l123 106h94z" />
    <glyph glyph-name="uni02C9" unicode="&#x2c9;" 
d="M515 655h-343l12 70h343z" />
    <glyph glyph-name="breve" unicode="&#x2d8;" 
d="M532 770c-21 -80 -57 -155 -192 -155c-103 0 -146 63 -146 136c0 6 0 13 1 19h67c0 -5 -1 -10 -1 -15c0 -59 29 -80 86 -80c63 0 98 24 118 95h67z" />
    <glyph glyph-name="dotaccent" unicode="&#x2d9;" 
d="M387 651h-89l21 120h89z" />
    <glyph glyph-name="ring" unicode="&#x2da;" 
d="M419 715c0 -77 -50 -109 -115 -109c-66 0 -118 32 -118 109s52 109 118 109c65 0 115 -32 115 -109zM359 715c0 42 -25 55 -55 55c-32 0 -56 -13 -56 -55c0 -41 24 -55 56 -55c30 0 55 14 55 55z" />
    <glyph glyph-name="ogonek" unicode="&#x2db;" 
d="M311 -207c-12 -4 -45 -10 -87 -10c-74 0 -111 34 -111 84c0 72 75 115 141 147h101c-42 -22 -165 -75 -165 -139c0 -21 12 -35 52 -35c25 0 51 3 78 5z" />
    <glyph glyph-name="tilde" unicode="&#x2dc;" 
d="M559 736c-13 -75 -45 -124 -119 -124c-37 0 -65 14 -94 41l-36 33c-18 19 -31 28 -52 28c-28 0 -38 -22 -45 -61l-6 -34h-65l6 34c13 75 50 124 122 124c38 0 61 -11 90 -38l36 -34c18 -17 33 -29 54 -29c29 0 38 21 45 60l6 34h64z" />
    <glyph glyph-name="hungarumlaut" unicode="&#x2dd;" 
d="M624 767l-177 -154h-91l159 154h109zM412 767h-110l-158 -154h91z" />
    <glyph glyph-name="uni037E" unicode="&#x37e;" horiz-adv-x="240" 
d="M210 249h-90l25 138h90z" />
    <glyph glyph-name="dieresisacute" unicode="&#x385;" 
d="M596 645h-81l21 118h81zM385 788h109l-156 -172h-91zM202 645h-81l21 118h81z" />
    <glyph glyph-name="middot" unicode="&#x387;" horiz-adv-x="278" 
d="M237 300h-91l25 138h91z" />
    <glyph glyph-name="uni03A9" unicode="&#x3a9;" horiz-adv-x="681" 
d="M766 370c-20 -116 -82 -206 -209 -253l-7 -41h159l-13 -76h-244l28 161c107 26 175 106 195 223l13 73c4 24 6 47 6 66c0 117 -73 150 -161 150c-103 0 -201 -45 -231 -216l-13 -73c-3 -20 -5 -39 -5 -57c0 -86 40 -144 122 -166l-28 -161h-243l13 76h158l7 41
c-88 37 -120 118 -120 208c0 24 2 49 6 73l13 73c35 196 164 284 336 284c149 0 238 -85 238 -234c0 -24 -2 -50 -7 -78z" />
    <glyph glyph-name="uni03BC" unicode="&#x3bc;" horiz-adv-x="645" 
d="M76 -131l107 602l-54 5l13 74h144l-61 -351c-18 -100 -8 -136 69 -136c42 0 102 17 179 49l64 359l-54 5l13 74h144l-83 -472l53 -5l-12 -73h-144l7 43c-78 -37 -144 -57 -201 -57c-29 0 -52 4 -71 12l-23 -129l54 -5l-14 -74h-198l14 74z" />
    <glyph glyph-name="pi" unicode="&#x3c0;" horiz-adv-x="632" 
d="M659 -7c-18 -4 -45 -7 -70 -7c-87 0 -110 47 -110 133v348h-181v-467h-91v467h-91v83h543v-83h-91v-348c0 -45 6 -59 42 -59c19 0 31 0 49 1v-68z" />
    <glyph glyph-name="Wgrave" unicode="&#x1e80;" horiz-adv-x="959" 
d="M1038 669l-52 -5l-237 -664h-147l-20 460c-2 32 -3 63 -5 95h-3c-12 -32 -25 -63 -37 -95l-181 -460h-149l-3 664l-49 5l14 74h195l-13 -73l-53 -5l-5 -444c-1 -51 -1 -94 -2 -148h5c20 49 39 98 58 147l162 413h144l17 -416c1 -48 4 -96 5 -144h5c16 51 31 95 49 148
l153 444l-52 5l13 73h202zM687 800h-87l-123 154h106z" />
    <glyph glyph-name="wgrave" unicode="&#x1e81;" horiz-adv-x="944" 
d="M979 476l-49 -4l-190 -472h-130l-47 330c-7 52 -10 87 -11 111h-4c-9 -24 -22 -59 -47 -111l-159 -330h-138l-24 472l-49 4l13 74h180l-11 -67l-41 -4l9 -269c1 -47 2 -96 2 -141h7c25 56 40 97 60 140l139 296h145l33 -296c5 -43 8 -92 13 -141h5c17 46 34 94 53 142
l102 269l-38 4l11 67h179zM662 616h-87l-123 154h106z" />
    <glyph glyph-name="Wacute" unicode="&#x1e82;" horiz-adv-x="959" 
d="M1038 669l-52 -5l-237 -664h-147l-20 460c-2 32 -3 63 -5 95h-3c-12 -32 -25 -63 -37 -95l-181 -460h-149l-3 664l-49 5l14 74h195l-13 -73l-53 -5l-5 -444c-1 -51 -1 -94 -2 -148h5c20 49 39 98 58 147l162 413h144l17 -416c1 -48 4 -96 5 -144h5c16 51 31 95 49 148
l153 444l-52 5l13 73h202zM818 954l-177 -154h-90l158 154h109z" />
    <glyph glyph-name="wacute" unicode="&#x1e83;" horiz-adv-x="944" 
d="M979 476l-49 -4l-190 -472h-130l-47 330c-7 52 -10 87 -11 111h-4c-9 -24 -22 -59 -47 -111l-159 -330h-138l-24 472l-49 4l13 74h180l-11 -67l-41 -4l9 -269c1 -47 2 -96 2 -141h7c25 56 40 97 60 140l139 296h145l33 -296c5 -43 8 -92 13 -141h5c17 46 34 94 53 142
l102 269l-38 4l11 67h179zM789 770l-177 -154h-90l158 154h109z" />
    <glyph glyph-name="Wdieresis" unicode="&#x1e84;" horiz-adv-x="959" 
d="M1038 669l-52 -5l-237 -664h-147l-20 460c-2 32 -3 63 -5 95h-3c-12 -32 -25 -63 -37 -95l-181 -460h-149l-3 664l-49 5l14 74h195l-13 -73l-53 -5l-5 -444c-1 -51 -1 -94 -2 -148h5c20 49 39 98 58 147l162 413h144l17 -416c1 -48 4 -96 5 -144h5c16 51 31 95 49 148
l153 444l-52 5l13 73h202zM778 811h-81l21 118h81zM550 811l21 118h-82l-21 -118h82z" />
    <glyph glyph-name="wdieresis" unicode="&#x1e85;" horiz-adv-x="944" 
d="M979 476l-49 -4l-190 -472h-130l-47 330c-7 52 -10 87 -11 111h-4c-9 -24 -22 -59 -47 -111l-159 -330h-138l-24 472l-49 4l13 74h180l-11 -67l-41 -4l9 -269c1 -47 2 -96 2 -141h7c25 56 40 97 60 140l139 296h145l33 -296c5 -43 8 -92 13 -141h5c17 46 34 94 53 142
l102 269l-38 4l11 67h179zM728 643h-81l21 118h81zM500 643l21 118h-82l-21 -118h82z" />
    <glyph glyph-name="Ygrave" unicode="&#x1ef2;" horiz-adv-x="642" 
d="M734 669l-46 -4l-271 -371l-37 -213l53 -5l-13 -76h-199l13 76l55 5l37 213l-139 371l-45 4l14 74h194l-12 -68l-56 -5l64 -172c13 -35 28 -79 37 -118h6c20 38 55 83 80 118l125 172l-58 5l12 68h200zM549 800h-87l-123 154h106z" />
    <glyph glyph-name="ygrave" unicode="&#x1ef3;" horiz-adv-x="657" 
d="M692 476l-62 -5l-272 -519c-56 -106 -103 -174 -216 -174c-47 0 -87 6 -105 10l12 69c43 -3 68 -4 104 -4c54 0 75 28 118 108l21 39l-99 471l-62 5l13 74h184l-11 -67l-32 -3l44 -239c9 -49 13 -87 18 -146h2c25 59 42 96 68 147l120 238l-32 3l11 67h189zM501 616h-87
l-123 154h106z" />
    <glyph glyph-name="dieresisgrave" unicode="&#x1fed;" 
d="M596 645h-82l21 118h82zM382 788l77 -172h-91l-96 172h110zM202 645h-81l21 118h81z" />
    <glyph glyph-name="figuredash" unicode="&#x2012;" horiz-adv-x="716" 
d="M686 255h-568l14 76h568z" />
    <glyph glyph-name="endash" unicode="&#x2013;" horiz-adv-x="504" 
d="M474 255h-356l14 76h356z" />
    <glyph glyph-name="emdash" unicode="&#x2014;" horiz-adv-x="643" 
d="M613 255h-495l14 76h495z" />
    <glyph glyph-name="threequartersemdash" unicode="&#x2015;" horiz-adv-x="918" 
d="M888 255h-770l14 76h770z" />
    <glyph glyph-name="quoteleft" unicode="&#x2018;" horiz-adv-x="183" 
d="M299 774l-87 -229h-96l115 229h68z" />
    <glyph glyph-name="quoteright" unicode="&#x2019;" horiz-adv-x="183" 
d="M299 774l-114 -229h-69l88 229h95z" />
    <glyph glyph-name="quotesinglbase" unicode="&#x201a;" horiz-adv-x="183" 
d="M186 134l-114 -228h-69l88 228h95z" />
    <glyph glyph-name="quotedblleft" unicode="&#x201c;" horiz-adv-x="366" 
d="M482 774l-88 -229h-95l114 229h69zM299 774l-88 -229h-95l114 229h69z" />
    <glyph glyph-name="quotedblright" unicode="&#x201d;" horiz-adv-x="366" 
d="M482 774l-114 -229h-69l88 229h95zM299 774l-114 -229h-69l88 229h95z" />
    <glyph glyph-name="quotedblbase" unicode="&#x201e;" horiz-adv-x="366" 
d="M369 134l-114 -228h-69l88 228h95zM186 134h-95l-88 -228h69z" />
    <glyph glyph-name="dagger" unicode="&#x2020;" horiz-adv-x="510" 
d="M517 481h-140l-107 -611h-89l107 611h-127l14 79h127l38 214h89l-38 -214h140z" />
    <glyph glyph-name="daggerdbl" unicode="&#x2021;" horiz-adv-x="510" 
d="M480 268h-140l-70 -398h-89l70 398h-127l14 78h127l23 131h-127l14 79h127l37 214h89l-37 -214h140l-14 -79h-140l-23 -131h140z" />
    <glyph glyph-name="bullet" unicode="&#x2022;" horiz-adv-x="533" 
d="M519 369c0 -98 -80 -178 -179 -178c-98 0 -178 80 -178 178c0 99 80 179 178 179c99 0 179 -80 179 -179z" />
    <glyph glyph-name="onedotenleader" unicode="&#x2024;" horiz-adv-x="247" 
d="M169 0h-91l24 138h91z" />
    <glyph glyph-name="twodotenleader" unicode="&#x2025;" horiz-adv-x="458" 
d="M379 0h-90l24 138h90zM169 0l24 138h-91l-24 -138h91z" />
    <glyph glyph-name="ellipsis" unicode="&#x2026;" horiz-adv-x="822" 
d="M738 0h-90l24 138h90zM456 0l24 138h-90l-24 -138h90zM174 0h-91l24 138h91z" />
    <glyph glyph-name="perthousand" unicode="&#x2030;" horiz-adv-x="1482" 
d="M944 743l-605 -743h-90l605 743h90zM494 478c-22 -122 -81 -188 -208 -188c-110 0 -151 63 -151 152c0 21 2 44 6 67l10 57c20 117 81 189 209 189c114 0 151 -62 151 -148c0 -23 -3 -47 -7 -72zM415 494l10 57c4 22 6 40 6 56c0 61 -27 82 -79 82
c-66 0 -104 -39 -121 -138l-10 -57c-4 -23 -6 -42 -6 -58c0 -59 26 -80 78 -80c65 0 103 34 122 138zM1044 177c-22 -122 -81 -188 -208 -188c-110 0 -151 63 -151 152c0 21 2 44 6 67l10 57c20 117 81 189 209 189c114 0 151 -62 151 -148c0 -23 -3 -47 -7 -72zM965 193
l10 57c4 22 6 40 6 56c0 61 -27 82 -79 82c-66 0 -104 -39 -121 -138l-10 -57c-4 -23 -6 -42 -6 -58c0 -59 26 -80 78 -80c65 0 103 34 122 138zM1464 177c-22 -122 -81 -188 -208 -188c-110 0 -151 63 -151 152c0 21 2 44 6 67l10 57c20 117 81 189 209 189
c114 0 151 -62 151 -148c0 -23 -3 -47 -7 -72zM1385 193l10 57c4 22 6 40 6 56c0 61 -27 82 -79 82c-66 0 -104 -39 -121 -138l-10 -57c-4 -23 -6 -42 -6 -58c0 -59 26 -80 78 -80c65 0 103 34 122 138z" />
    <glyph glyph-name="guilsinglleft" unicode="&#x2039;" horiz-adv-x="382" 
d="M338 81h-106l-127 208l200 206h106l-195 -206z" />
    <glyph glyph-name="guilsinglright" unicode="&#x203a;" horiz-adv-x="382" 
d="M377 289l-200 -208h-106l195 208l-122 206h106z" />
    <glyph glyph-name="exclamdbl" unicode="&#x203c;" horiz-adv-x="468" 
d="M380 0h-91l23 135h91zM422 774h97l-111 -581h-78zM201 135l-23 -135h-91l23 135h91zM317 774l-111 -581h-78l92 581h97z" />
    <glyph glyph-name="overscore" unicode="&#x203e;" horiz-adv-x="574" 
d="M723 819h-585l10 59h585z" />
    <glyph glyph-name="fraction" unicode="&#x2044;" horiz-adv-x="413" 
d="M619 743l-604 -743h-90l604 743h90z" />
    <glyph glyph-name="zero.superior" unicode="&#x2070;" horiz-adv-x="456" 
d="M491 478c-22 -122 -81 -188 -208 -188c-110 0 -151 63 -151 152c0 21 2 44 6 67l10 57c20 117 81 189 209 189c114 0 151 -62 151 -148c0 -23 -3 -47 -7 -72zM412 494l10 57c4 22 6 40 6 56c0 61 -27 82 -79 82c-66 0 -104 -39 -121 -138l-10 -57c-4 -23 -6 -42 -6 -58
c0 -59 26 -80 78 -80c65 0 103 34 122 138z" />
    <glyph glyph-name="four.superior" unicode="&#x2074;" 
d="M486 410h-70l-10 -56l32 -3l-9 -51h-148l9 51l34 3l10 56h-225l11 66l277 270h78l-48 -275h70zM348 471l31 181l-184 -181h153z" />
    <glyph glyph-name="five.superior" unicode="&#x2075;" horiz-adv-x="449" 
d="M183 355c23 -2 47 -3 73 -3c76 0 125 24 125 112c0 35 -24 47 -96 47h-128l63 235h278l-18 -102h-54l2 39h-152l-30 -111h60c114 0 159 -31 159 -100c0 -129 -80 -182 -210 -182c-65 0 -123 12 -141 16l18 98h54z" />
    <glyph glyph-name="six.superior" unicode="&#x2076;" horiz-adv-x="452" 
d="M472 426c-21 -120 -121 -136 -193 -136c-90 0 -151 33 -151 138c0 19 2 41 6 65l17 98c21 116 72 163 214 163c61 0 121 -10 141 -15l-17 -95h-54l2 46c-22 2 -50 3 -76 3c-99 0 -118 -43 -130 -111l-3 -15c31 8 78 13 106 13c85 0 145 -20 145 -100c0 -11 -1 -22 -7 -54
zM393 436c4 25 5 33 5 39c0 43 -31 50 -80 50c-23 0 -61 -2 -99 -11l-8 -45c-3 -19 -5 -35 -5 -48c0 -58 29 -71 83 -71c55 0 93 23 104 86z" />
    <glyph glyph-name="seven.superior" unicode="&#x2077;" horiz-adv-x="452" 
d="M505 673l-273 -373h-90l285 383h-183l-12 -40h-55l18 103h323z" />
    <glyph glyph-name="eight.superior" unicode="&#x2078;" horiz-adv-x="456" 
d="M480 421c-21 -119 -113 -131 -203 -131h-2c-80 0 -159 16 -159 111c0 12 1 25 4 39l1 5c8 47 30 70 67 90c-22 16 -34 42 -34 74c0 9 1 18 3 28l1 6c18 99 109 111 198 111h2c81 0 159 -19 159 -102c0 -9 -1 -18 -3 -28l-1 -6c-8 -45 -32 -75 -66 -95
c23 -16 36 -38 36 -71c0 -8 0 -17 -2 -26zM400 429l1 4c2 9 2 18 2 25c0 30 -13 44 -50 44h-80c-46 0 -64 -22 -72 -69l-1 -4c-2 -9 -2 -18 -2 -25c0 -49 36 -55 87 -55h2c58 0 100 8 113 80zM432 623l1 6c1 6 2 12 2 17c0 42 -37 49 -87 49h-2c-56 0 -100 -9 -110 -66
l-1 -6c-1 -8 -2 -15 -2 -21c0 -27 13 -43 50 -43h80c46 0 62 25 69 64z" />
    <glyph glyph-name="nine.superior" unicode="&#x2079;" horiz-adv-x="452" 
d="M141 618c21 120 121 136 193 136c90 0 151 -33 151 -138c0 -19 -2 -41 -6 -65l-17 -98c-21 -116 -72 -163 -214 -163c-61 0 -121 10 -141 15l17 95h54l-2 -46c22 -2 50 -3 76 -3c99 0 118 43 130 111l3 15c-31 -8 -78 -13 -106 -13c-85 0 -145 20 -145 100
c0 11 1 22 7 54zM220 608c-4 -25 -5 -33 -5 -39c0 -43 31 -50 80 -50c23 0 61 2 99 11l8 45c3 19 5 35 5 48c0 58 -29 71 -83 71c-55 0 -93 -23 -104 -86z" />
    <glyph glyph-name="parenleft.superior" unicode="&#x207d;" horiz-adv-x="281" 
d="M274 226h-79c-22 34 -48 106 -48 209c0 112 48 228 142 321h79c-85 -94 -141 -209 -141 -320c0 -95 20 -160 47 -210z" />
    <glyph glyph-name="parenright.superior" unicode="&#x207e;" horiz-adv-x="281" 
d="M184 756h79c22 -34 47 -106 47 -195c0 -126 -50 -242 -141 -335h-79c85 94 141 219 141 336c0 87 -20 144 -47 194z" />
    <glyph glyph-name="n.superior" unicode="&#x207f;" horiz-adv-x="474" 
d="M480 306h-112l37 208c3 15 4 27 4 37c0 29 -12 41 -45 41c-27 0 -64 -11 -106 -27l-35 -198l33 -3l-11 -58h-145l11 58l33 3l38 217l-32 3l10 57h111l-4 -24c43 20 86 33 125 33c76 0 96 -37 96 -88c0 -18 -1 -30 -6 -57l-24 -141l33 -3z" />
    <glyph glyph-name="zero.inferior" unicode="&#x2080;" horiz-adv-x="456" 
d="M435 178c-22 -122 -81 -188 -208 -188c-110 0 -151 63 -151 152c0 21 2 44 6 67l10 57c20 117 81 189 209 189c114 0 151 -62 151 -148c0 -23 -3 -47 -7 -72zM356 194l10 57c4 22 6 40 6 56c0 61 -27 82 -79 82c-66 0 -104 -39 -121 -138l-10 -57c-4 -23 -6 -42 -6 -58
c0 -59 26 -80 78 -80c65 0 103 34 122 138z" />
    <glyph glyph-name="one.inferior" unicode="&#x2081;" horiz-adv-x="429" 
d="M364 0h-290l11 59l104 3l55 310l-110 -33l12 67l135 43h59l-69 -387l104 -3z" />
    <glyph glyph-name="two.inferior" unicode="&#x2082;" horiz-adv-x="451" 
d="M378 0h-316l9 56c17 104 63 145 181 196c65 28 111 47 111 94c0 36 -27 47 -92 47c-19 0 -48 -1 -74 -3l-14 -45h-55l17 94c18 4 91 16 146 16c105 0 153 -36 153 -101c0 -84 -64 -115 -152 -155c-106 -48 -126 -66 -137 -130l-1 -5h174l13 43h55z" />
    <glyph glyph-name="three.inferior" unicode="&#x2083;" horiz-adv-x="450" 
d="M133 54c23 -1 50 -3 77 -3c72 0 115 25 115 106c0 25 -13 42 -68 42h-136l10 60h137c55 0 91 30 91 89c0 32 -24 44 -90 44c-24 0 -52 -1 -75 -3l-14 -45h-55l17 94c15 4 87 16 144 16c102 0 155 -31 155 -100c0 -53 -26 -100 -77 -125c30 -16 41 -46 41 -77
c0 -121 -82 -163 -201 -163c-56 0 -118 12 -140 19l17 95h55z" />
    <glyph glyph-name="four.inferior" unicode="&#x2084;" 
d="M437 110h-70l-10 -56l32 -3l-9 -51h-148l9 51l34 3l10 56h-225l11 66l277 270h78l-48 -275h70zM299 171l31 181l-184 -181h153z" />
    <glyph glyph-name="five.inferior" unicode="&#x2085;" horiz-adv-x="449" 
d="M130 55c23 -2 47 -3 73 -3c76 0 125 24 125 112c0 35 -24 47 -96 47h-128l63 235h278l-18 -102h-54l2 39h-152l-30 -111h60c114 0 159 -31 159 -100c0 -129 -80 -182 -210 -182c-65 0 -123 12 -141 16l18 98h54z" />
    <glyph glyph-name="six.inferior" unicode="&#x2086;" horiz-adv-x="452" 
d="M420 126c-21 -120 -121 -136 -193 -136c-90 0 -151 33 -151 138c0 19 2 41 6 65l17 98c21 116 72 163 214 163c61 0 121 -10 141 -15l-17 -95h-54l2 46c-22 2 -50 3 -76 3c-99 0 -118 -43 -130 -111l-3 -15c31 8 78 13 106 13c85 0 145 -20 145 -100c0 -11 -1 -22 -7 -54
zM341 136c4 25 5 33 5 39c0 43 -31 50 -80 50c-23 0 -61 -2 -99 -11l-8 -45c-3 -19 -5 -35 -5 -48c0 -58 29 -71 83 -71c55 0 93 23 104 86z" />
    <glyph glyph-name="seven.inferior" unicode="&#x2087;" horiz-adv-x="452" 
d="M452 373l-272 -373h-90l284 383h-183l-12 -40h-55l18 103h323z" />
    <glyph glyph-name="eight.inferior" unicode="&#x2088;" horiz-adv-x="456" 
d="M427 121c-21 -119 -113 -131 -203 -131h-2c-80 0 -159 16 -159 111c0 12 1 25 4 39l1 5c8 47 30 70 67 90c-22 16 -34 42 -34 74c0 9 1 18 3 28l1 6c18 99 109 111 198 111h2c81 0 159 -19 159 -102c0 -9 -1 -18 -3 -28l-1 -6c-8 -45 -32 -75 -66 -95
c23 -16 36 -38 36 -71c0 -8 0 -17 -2 -26zM347 129l1 4c2 9 2 18 2 25c0 30 -13 44 -50 44h-80c-46 0 -64 -22 -72 -69l-1 -4c-2 -9 -2 -18 -2 -25c0 -49 36 -55 87 -55h2c58 0 100 8 113 80zM379 323l1 6c1 6 2 12 2 17c0 42 -37 49 -87 49h-2c-56 0 -100 -9 -110 -66
l-1 -6c-1 -8 -2 -15 -2 -21c0 -27 13 -43 50 -43h80c46 0 62 25 69 64z" />
    <glyph glyph-name="nine.inferior" unicode="&#x2089;" horiz-adv-x="452" 
d="M88 318c21 120 121 136 193 136c90 0 151 -33 151 -138c0 -19 -2 -41 -6 -65l-17 -98c-21 -116 -72 -163 -214 -163c-61 0 -121 10 -141 15l17 95h54l-2 -46c22 -2 50 -3 76 -3c99 0 118 43 130 111l3 15c-31 -8 -78 -13 -106 -13c-85 0 -145 20 -145 100c0 11 1 22 7 54
zM167 308c-4 -25 -5 -33 -5 -39c0 -43 31 -50 80 -50c23 0 61 2 99 11l8 45c3 19 5 35 5 48c0 58 -29 71 -83 71c-55 0 -93 -23 -104 -86z" />
    <glyph glyph-name="parenleft.inferior" unicode="&#x208d;" horiz-adv-x="281" 
d="M220 -78h-79c-22 34 -48 106 -48 209c0 112 48 228 142 321h79c-85 -94 -141 -209 -141 -320c0 -95 20 -160 47 -210z" />
    <glyph glyph-name="parenright.inferior" unicode="&#x208e;" horiz-adv-x="281" 
d="M129 452h79c22 -34 47 -106 47 -195c0 -126 -50 -242 -141 -335h-79c85 94 141 219 141 336c0 87 -20 144 -47 194z" />
    <glyph glyph-name="colonmonetary" unicode="&#x20a1;" horiz-adv-x="481" 
d="M451 5c-11 -3 -35 -8 -66 -12l-17 -99h-74l16 93c-9 -1 -18 -1 -27 -1c-14 0 -27 1 -39 2l-16 -94h-74l20 116c-54 31 -79 89 -79 166c0 23 2 49 7 75l14 83c20 112 71 181 153 211l21 119h74l-18 -102c13 1 25 2 39 2c9 0 18 0 27 -1l18 101h74l-19 -107
c30 -4 52 -9 62 -12l-21 -118h-70v57c-19 2 -58 3 -73 3c-97 0 -157 -33 -180 -170l-14 -83c-4 -24 -6 -44 -6 -62c0 -93 52 -109 126 -109c30 0 86 3 154 10z" />
    <glyph glyph-name="franc" unicode="&#x20a3;" horiz-adv-x="590" 
d="M574 344h-327l-18 -103h208l-15 -83h-208l-27 -158h-92l27 158h-53l15 83h53l75 423l-54 5l14 74h494l-27 -151h-72l2 69h-266l-41 -234h327z" />
    <glyph glyph-name="lira" unicode="&#x20a4;" horiz-adv-x="645" 
d="M566 0h-461l12 70c42 38 61 86 68 126l7 37h-78l13 76h78l14 79h-78l13 76h78l7 39c32 186 84 252 270 252c89 0 159 -13 186 -20l-25 -143h-71l3 79c-25 2 -50 4 -102 4c-124 0 -146 -42 -169 -172l-7 -39h249l-13 -76h-249l-14 -79h249l-13 -76h-249l-7 -37
c-8 -44 -23 -81 -57 -118h359z" />
    <glyph glyph-name="peseta" unicode="&#x20a7;" horiz-adv-x="689" 
d="M742 480h-57c-44 -160 -177 -191 -337 -191h-98l-37 -211l53 -5l-12 -73h-200l12 73l55 5l71 402h-67l14 81h67l19 103l-54 5l14 74h244c157 0 276 -30 269 -182h58zM600 511l2 13c20 118 -48 137 -188 137h-98l-51 -291h98c141 0 216 22 237 141z" />
    <glyph glyph-name="Euro" unicode="&#x20ac;" horiz-adv-x="666" 
d="M596 3c-33 -7 -110 -17 -177 -17c-126 0 -242 51 -242 250v13h-72l13 71h64c2 19 5 39 8 59c3 14 6 29 9 43h-63l12 71h70c69 229 203 262 328 262c76 0 149 -10 181 -17l-25 -137h-72l2 70c-27 1 -57 3 -86 3c-96 0 -179 -18 -232 -181h329l-31 -71h-319
c-4 -15 -6 -30 -9 -45c-3 -19 -7 -38 -8 -57h286l-32 -71h-257v-13c0 -150 74 -168 166 -168c38 0 115 6 170 11z" />
    <glyph glyph-name="litre" unicode="&#x2113;" horiz-adv-x="479" 
d="M504 43c-47 -40 -96 -60 -141 -60c-96 0 -136 55 -136 153v107c-20 -18 -41 -36 -63 -55l-40 46c40 36 71 64 103 95v271c0 122 39 185 138 185c96 0 128 -61 128 -132c0 -120 -71 -218 -176 -324v-180c0 -73 17 -92 64 -92c26 0 56 15 82 37zM423 653
c0 38 -12 65 -51 65c-50 0 -55 -39 -55 -118v-180c69 80 106 146 106 233z" />
    <glyph glyph-name="afii61352" unicode="&#x2116;" horiz-adv-x="1166" 
d="M1151 173h-385l13 73h385zM1209 510c-28 -138 -88 -213 -222 -213c-122 0 -163 74 -163 169c0 23 3 48 9 85c23 128 89 205 224 205c119 0 162 -69 162 -163c0 -22 -4 -54 -10 -83zM1136 520c6 34 8 54 8 72c0 62 -26 97 -94 97c-87 0 -126 -57 -144 -157
c-6 -34 -7 -53 -7 -70c0 -63 26 -98 94 -98c87 0 126 56 143 156zM833 669l-54 -5l-117 -664h-131l-189 533c-13 37 -28 72 -39 116h-2c-6 -49 -12 -93 -21 -145l-75 -426l53 -5l-12 -73h-194l12 73l55 5l104 586l-54 5l14 74h186l187 -519c13 -36 28 -77 39 -117h2
c7 55 14 107 22 153l72 405l-53 5l13 73h196z" />
    <glyph glyph-name="trademark" unicode="&#x2122;" horiz-adv-x="887" 
d="M769 404l33 3l30 168c4 26 10 53 17 78h-1c-14 -20 -29 -43 -43 -61l-77 -97h-59l-41 97c-7 16 -16 41 -22 61h-1c-3 -25 -7 -52 -11 -78l-30 -168l33 -3l-10 -55h-139l10 55l33 3l49 278l-32 3l10 55h119l56 -139c7 -16 11 -28 16 -46h1c12 18 19 30 32 46l107 139h120
l-10 -55l-34 -3l-49 -278l33 -3l-10 -55h-140zM471 647h-49v37h-64l-49 -277l33 -3l-10 -55h-141l10 55l33 3l49 277h-65l-12 -37h-49l17 96h314z" />
    <glyph glyph-name="Omega" unicode="&#x2126;" horiz-adv-x="681" 
d="M766 370c-20 -116 -82 -206 -209 -253l-7 -41h159l-13 -76h-244l28 161c107 26 175 106 195 223l13 73c4 24 6 47 6 66c0 117 -73 150 -161 150c-103 0 -201 -45 -231 -216l-13 -73c-3 -20 -5 -39 -5 -57c0 -86 40 -144 122 -166l-28 -161h-243l13 76h158l7 41
c-88 37 -120 118 -120 208c0 24 2 49 6 73l13 73c35 196 164 284 336 284c149 0 238 -85 238 -234c0 -24 -2 -50 -7 -78z" />
    <glyph glyph-name="estimated" unicode="&#x212e;" horiz-adv-x="651" 
d="M674 282h-429v-193c42 -40 92 -63 152 -63c112 0 165 59 210 127l31 -19c-52 -81 -116 -141 -241 -141c-163 0 -271 133 -271 290c0 159 104 290 275 290c170 0 273 -134 273 -291zM554 315v163c-36 33 -95 62 -153 62c-60 0 -116 -21 -156 -62v-163h309z" />
    <glyph glyph-name="onethird" unicode="&#x2153;" horiz-adv-x="1025" 
d="M903 743l-605 -743h-90l605 743h90zM410 300h-290l11 59l104 3l55 310l-110 -33l12 67l135 43h59l-69 -387l104 -3zM715 55c23 -1 50 -3 77 -3c72 0 115 25 115 106c0 25 -13 42 -68 42h-136l10 60h137c55 0 91 30 91 89c0 32 -24 44 -90 44c-24 0 -52 -1 -75 -3l-14 -45
h-55l17 94c15 4 87 16 144 16c102 0 155 -31 155 -100c0 -53 -26 -100 -77 -125c30 -16 41 -46 41 -77c0 -121 -82 -163 -201 -163c-56 0 -118 12 -140 19l17 95h55z" />
    <glyph glyph-name="twothirds" unicode="&#x2154;" horiz-adv-x="1083" 
d="M944 743l-604 -743h-90l604 743h90zM431 301h-316l9 56c17 104 63 145 181 196c65 28 111 47 111 94c0 36 -27 47 -92 47c-19 0 -48 -1 -74 -3l-14 -45h-55l17 94c18 4 91 16 146 16c105 0 153 -36 153 -101c0 -84 -64 -115 -152 -155c-106 -48 -126 -66 -137 -130l-1 -5
h174l13 43h55zM770 55c23 -1 50 -3 77 -3c72 0 115 25 115 106c0 25 -13 42 -68 42h-136l10 60h137c55 0 91 30 91 89c0 32 -24 44 -90 44c-24 0 -52 -1 -75 -3l-14 -45h-55l17 94c15 4 87 16 144 16c102 0 155 -31 155 -100c0 -53 -26 -100 -77 -125c30 -16 41 -46 41 -77
c0 -121 -82 -163 -201 -163c-56 0 -118 12 -140 19l17 95h55z" />
    <glyph glyph-name="oneeighth" unicode="&#x215b;" horiz-adv-x="1036" 
d="M912 743l-605 -743h-90l605 743h90zM410 300h-290l11 59l104 3l55 310l-110 -33l12 67l135 43h59l-69 -387l104 -3zM996 121c-21 -119 -113 -131 -203 -131h-2c-80 0 -159 16 -159 111c0 12 1 25 4 39l1 5c8 47 30 70 67 90c-22 16 -34 42 -34 74c0 9 1 18 3 28l1 6
c18 99 109 111 198 111h2c81 0 159 -19 159 -102c0 -9 -1 -18 -3 -28l-1 -6c-8 -45 -32 -75 -66 -95c23 -16 36 -38 36 -71c0 -8 0 -17 -2 -26zM916 129l1 4c2 9 2 18 2 25c0 30 -13 44 -50 44h-80c-46 0 -64 -22 -72 -69l-1 -4c-2 -9 -2 -18 -2 -25c0 -49 36 -55 87 -55h2
c58 0 100 8 113 80zM948 323l1 6c1 6 2 12 2 17c0 42 -37 49 -87 49h-2c-56 0 -100 -9 -110 -66l-1 -6c-1 -8 -2 -15 -2 -21c0 -27 13 -43 50 -43h80c46 0 62 25 69 64z" />
    <glyph glyph-name="threeeighths" unicode="&#x215c;" horiz-adv-x="1061" 
d="M918 743l-605 -743h-90l605 743h90zM183 356c23 -1 50 -3 77 -3c72 0 115 25 115 106c0 25 -13 42 -68 42h-136l10 60h137c55 0 91 30 91 89c0 32 -24 44 -90 44c-24 0 -52 -1 -75 -3l-14 -45h-55l17 94c15 4 87 16 144 16c102 0 155 -31 155 -100
c0 -53 -26 -100 -77 -125c30 -16 41 -46 41 -77c0 -121 -82 -163 -201 -163c-56 0 -118 12 -140 19l17 95h55zM1016 121c-21 -119 -113 -131 -203 -131h-2c-80 0 -159 16 -159 111c0 12 1 25 4 39l1 5c8 47 30 70 67 90c-22 16 -34 42 -34 74c0 9 1 18 3 28l1 6
c18 99 109 111 198 111h2c81 0 159 -19 159 -102c0 -9 -1 -18 -3 -28l-1 -6c-8 -45 -32 -75 -66 -95c23 -16 36 -38 36 -71c0 -8 0 -17 -2 -26zM936 129l1 4c2 9 2 18 2 25c0 30 -13 44 -50 44h-80c-46 0 -64 -22 -72 -69l-1 -4c-2 -9 -2 -18 -2 -25c0 -49 36 -55 87 -55h2
c58 0 100 8 113 80zM968 323l1 6c1 6 2 12 2 17c0 42 -37 49 -87 49h-2c-56 0 -100 -9 -110 -66l-1 -6c-1 -8 -2 -15 -2 -21c0 -27 13 -43 50 -43h80c46 0 62 25 69 64z" />
    <glyph glyph-name="fiveeighths" unicode="&#x215d;" horiz-adv-x="1066" 
d="M922 743l-604 -743h-90l604 743h90zM183 355c23 -2 47 -3 73 -3c76 0 125 24 125 112c0 35 -24 47 -96 47h-128l63 235h278l-18 -102h-54l2 39h-152l-30 -111h60c114 0 159 -31 159 -100c0 -129 -80 -182 -210 -182c-65 0 -123 12 -141 16l18 98h54zM1026 121
c-21 -119 -113 -131 -203 -131h-2c-80 0 -159 16 -159 111c0 12 1 25 4 39l1 5c8 47 30 70 67 90c-22 16 -34 42 -34 74c0 9 1 18 3 28l1 6c18 99 109 111 198 111h2c81 0 159 -19 159 -102c0 -9 -1 -18 -3 -28l-1 -6c-8 -45 -32 -75 -66 -95c23 -16 36 -38 36 -71
c0 -8 0 -17 -2 -26zM946 129l1 4c2 9 2 18 2 25c0 30 -13 44 -50 44h-80c-46 0 -64 -22 -72 -69l-1 -4c-2 -9 -2 -18 -2 -25c0 -49 36 -55 87 -55h2c58 0 100 8 113 80zM978 323l1 6c1 6 2 12 2 17c0 42 -37 49 -87 49h-2c-56 0 -100 -9 -110 -66l-1 -6c-1 -8 -2 -15 -2 -21
c0 -27 13 -43 50 -43h80c46 0 62 25 69 64z" />
    <glyph glyph-name="seveneighths" unicode="&#x215e;" horiz-adv-x="976" 
d="M832 743l-604 -743h-90l604 743h90zM500 673l-273 -373h-90l285 383h-183l-12 -40h-55l18 103h323zM933 121c-21 -119 -113 -131 -203 -131h-2c-80 0 -159 16 -159 111c0 12 1 25 4 39l1 5c8 47 30 70 67 90c-22 16 -34 42 -34 74c0 9 1 18 3 28l1 6
c18 99 109 111 198 111h2c81 0 159 -19 159 -102c0 -9 -1 -18 -3 -28l-1 -6c-8 -45 -32 -75 -66 -95c23 -16 36 -38 36 -71c0 -8 0 -17 -2 -26zM853 129l1 4c2 9 2 18 2 25c0 30 -13 44 -50 44h-80c-46 0 -64 -22 -72 -69l-1 -4c-2 -9 -2 -18 -2 -25c0 -49 36 -55 87 -55h2
c58 0 100 8 113 80zM885 323l1 6c1 6 2 12 2 17c0 42 -37 49 -87 49h-2c-56 0 -100 -9 -110 -66l-1 -6c-1 -8 -2 -15 -2 -21c0 -27 13 -43 50 -43h80c46 0 62 25 69 64z" />
    <glyph glyph-name="partialdiff" unicode="&#x2202;" horiz-adv-x="619" 
d="M630 467c0 -70 -9 -157 -22 -223c-35 -185 -116 -257 -263 -257c-137 0 -204 72 -204 191c0 29 1 61 5 89c18 143 105 227 255 227c73 0 118 -28 139 -47c1 19 1 48 0 67c-7 103 -46 190 -189 190c-43 0 -94 -5 -140 -16v72c44 12 94 18 143 18c195 0 276 -122 276 -311z
M526 306c0 71 -37 111 -125 111c-102 0 -155 -58 -167 -162c-3 -25 -5 -54 -5 -77c0 -78 37 -113 125 -113c104 0 153 59 168 187c3 23 4 44 4 54z" />
    <glyph glyph-name="Delta" unicode="&#x2206;" horiz-adv-x="696" 
d="M732 0h-618l375 743h128zM621 80l-68 464c-7 46 -8 90 -10 131h-2c-18 -40 -35 -85 -58 -131l-230 -464h368z" />
    <glyph glyph-name="product" unicode="&#x220f;" horiz-adv-x="722" 
d="M755 659h-91v-725h-92v725h-273v-725h-92v725h-91v84h639v-84z" />
    <glyph glyph-name="summation" unicode="&#x2211;" horiz-adv-x="602" 
d="M597 -66h-440v83l221 313l-221 330v83h440v-83h-327l204 -307v-49l-204 -287h327v-83z" />
    <glyph glyph-name="minus" unicode="&#x2212;" horiz-adv-x="702" 
d="M664 354h-477v74h477v-74z" />
    <glyph glyph-name="uni2215" unicode="&#x2215;" horiz-adv-x="413" 
d="M619 743l-604 -743h-90l604 743h90z" />
    <glyph glyph-name="uni2219" unicode="&#x2219;" horiz-adv-x="252" 
d="M237 300h-91l25 138h91z" />
    <glyph glyph-name="radical" unicode="&#x221a;" horiz-adv-x="801" 
d="M820 873l-309 -947h-107l-154 478h-119v75h176l150 -485l281 879h82z" />
    <glyph glyph-name="infinity" unicode="&#x221e;" horiz-adv-x="775" 
d="M718 361c0 -72 -7 -227 -145 -227h-7c-47 0 -82 20 -112 54c-21 -33 -53 -56 -99 -56h-7c-140 0 -147 157 -147 228v25c0 71 7 227 147 227h7c46 0 81 -22 109 -56c22 39 53 57 102 57h7c138 0 145 -156 145 -228v-24zM642 361v24c0 68 -3 154 -69 154h-7
c-51 -2 -57 -62 -69 -174c-4 -39 -9 -78 -15 -105c24 -36 54 -53 84 -53h7c66 0 69 86 69 154zM439 483c-24 37 -54 56 -84 56h-7c-67 0 -71 -87 -71 -154v-25c0 -68 3 -153 71 -153h7c45 0 57 58 69 167c4 41 9 77 15 109z" />
    <glyph glyph-name="integral" unicode="&#x222b;" horiz-adv-x="532" 
d="M544 687c-15 1 -60 4 -96 4c-59 0 -62 -20 -62 -90v-641c0 -85 -12 -161 -142 -161c-43 0 -89 9 -106 13v62c15 -1 61 -4 97 -4c58 0 61 20 61 90v641c0 85 12 161 142 161c43 0 89 -9 106 -13v-62z" />
    <glyph glyph-name="approxequal" unicode="&#x2248;" horiz-adv-x="702" 
d="M661 571c0 -89 -28 -147 -117 -147c-49 0 -81 12 -118 41l-56 44c-26 20 -41 32 -63 32c-34 0 -40 -25 -40 -71v-36h-77v36c0 88 32 146 118 146c41 0 69 -17 106 -46l56 -44c28 -22 46 -27 74 -27c34 0 40 26 40 72v36h77v-36zM661 309c0 -89 -28 -147 -117 -147
c-49 0 -81 12 -118 41l-56 44c-26 20 -41 32 -63 32c-34 0 -40 -25 -40 -71v-36h-77v36c0 88 32 146 118 146c41 0 69 -17 106 -46l56 -44c28 -22 46 -27 74 -27c34 0 40 26 40 72v36h77v-36z" />
    <glyph glyph-name="notequal" unicode="&#x2260;" horiz-adv-x="702" 
d="M653 244h-241l-90 -244h-78l90 244h-132v74h161l54 146h-215v75h243l76 204h78l-76 -204h130v-75h-159l-53 -146h212v-74z" />
    <glyph glyph-name="lessequal" unicode="&#x2264;" horiz-adv-x="702" 
d="M672 0h-494v74h494v-74zM609 139h-122l-291 252l291 251h122l-290 -251z" />
    <glyph glyph-name="greaterequal" unicode="&#x2265;" horiz-adv-x="702" 
d="M672 0h-494v74h494v-74zM654 391l-290 -252h-123l291 252l-291 251h123z" />
    <glyph glyph-name="lozenge" unicode="&#x25ca;" horiz-adv-x="702" 
d="M674 359l-250 -297l-246 295l249 300zM582 359l-155 185l-157 -187l154 -183z" />
    <glyph glyph-name="A.sc" unicode="&#xe000;" horiz-adv-x="603" 
d="M208 0h-171l11 65l40 4l209 415l-40 3l12 66h194l73 -484l41 -4l-11 -65h-167l11 64l33 3l-14 103h-193l-51 -103l34 -3zM422 242l-23 158c-5 30 -5 62 -6 89h-7c-12 -27 -23 -59 -38 -89l-79 -158h153z" />
    <glyph glyph-name="AE.sc" unicode="&#xe001;" horiz-adv-x="775" 
d="M339 65l40 3l18 102h-180l-49 -101l37 -4l-11 -65h-174l11 65l40 4l210 415l-40 3l12 66h562l-21 -120h-63l1 48h-191l-28 -159h247l-12 -71h-247l-32 -179h191l16 49h63l-21 -121h-390zM410 241l43 242h-87c-9 -20 -15 -37 -33 -74l-83 -168h160z" />
    <glyph glyph-name="Aacute.sc" unicode="&#xe002;" horiz-adv-x="603" 
d="M208 0h-171l11 65l40 4l209 415l-40 3l12 66h194l73 -484l41 -4l-11 -65h-167l11 64l33 3l-14 103h-193l-51 -103l34 -3zM422 242l-23 158c-5 30 -5 62 -6 89h-7c-12 -27 -23 -59 -38 -89l-79 -158h153zM614 770l-177 -154h-90l158 154h109z" />
    <glyph glyph-name="Acircumflex.sc" unicode="&#xe003;" horiz-adv-x="603" 
d="M208 0h-171l11 65l40 4l209 415l-40 3l12 66h194l73 -484l41 -4l-11 -65h-167l11 64l33 3l-14 103h-193l-51 -103l34 -3zM422 242l-23 158c-5 30 -5 62 -6 89h-7c-12 -27 -23 -59 -38 -89l-79 -158h153zM605 616h-87l-86 105l-123 -105h-93l162 154h119z" />
    <glyph glyph-name="Adieresis.sc" unicode="&#xe004;" horiz-adv-x="603" 
d="M208 0h-171l11 65l40 4l209 415l-40 3l12 66h194l73 -484l41 -4l-11 -65h-167l11 64l33 3l-14 103h-193l-51 -103l34 -3zM422 242l-23 158c-5 30 -5 62 -6 89h-7c-12 -27 -23 -59 -38 -89l-79 -158h153zM568 639h-81l21 118h81zM340 639l21 118h-82l-21 -118h82z" />
    <glyph glyph-name="Agrave.sc" unicode="&#xe005;" horiz-adv-x="603" 
d="M208 0h-171l11 65l40 4l209 415l-40 3l12 66h194l73 -484l41 -4l-11 -65h-167l11 64l33 3l-14 103h-193l-51 -103l34 -3zM422 242l-23 158c-5 30 -5 62 -6 89h-7c-12 -27 -23 -59 -38 -89l-79 -158h153zM474 616h-87l-123 154h106z" />
    <glyph glyph-name="Aring.sc" unicode="&#xe006;" horiz-adv-x="603" 
d="M208 0h-171l11 65l40 4l209 415l-40 3l12 66h194l73 -484l41 -4l-11 -65h-167l11 64l33 3l-14 103h-193l-51 -103l34 -3zM422 242l-23 158c-5 30 -5 62 -6 89h-7c-12 -27 -23 -59 -38 -89l-79 -158h153zM494 715c0 -77 -50 -109 -115 -109c-66 0 -118 32 -118 109
s52 109 118 109c65 0 115 -32 115 -109zM434 715c0 42 -25 55 -55 55c-32 0 -56 -13 -56 -55c0 -41 24 -55 56 -55c30 0 55 14 55 55z" />
    <glyph glyph-name="Atilde.sc" unicode="&#xe007;" horiz-adv-x="603" 
d="M208 0h-171l11 65l40 4l209 415l-40 3l12 66h194l73 -484l41 -4l-11 -65h-167l11 64l33 3l-14 103h-193l-51 -103l34 -3zM422 242l-23 158c-5 30 -5 62 -6 89h-7c-12 -27 -23 -59 -38 -89l-79 -158h153zM631 736c-13 -75 -45 -124 -119 -124c-37 0 -65 14 -94 41l-36 33
c-18 19 -31 28 -52 28c-28 0 -38 -22 -45 -61l-6 -34h-65l6 34c13 75 50 124 122 124c38 0 61 -11 90 -38l36 -34c18 -17 33 -29 54 -29c29 0 38 21 45 60l6 34h64z" />
    <glyph glyph-name="B.sc" unicode="&#xe008;" horiz-adv-x="543" 
d="M44 0l11 65l41 6l73 412l-40 4l12 66c74 2 145 2 212 2c132 0 216 -24 216 -119c0 -65 -29 -120 -98 -151c40 -17 58 -57 58 -97c0 -163 -125 -190 -278 -190c-65 0 -136 0 -207 2zM185 70c28 -1 55 -1 82 -1c84 0 173 9 173 118c0 40 -25 66 -106 66h-117zM229 320h117
c74 0 134 22 134 108c0 52 -51 56 -136 56h-86z" />
    <glyph glyph-name="C.sc" unicode="&#xe009;" horiz-adv-x="479" 
d="M424 2c-25 -5 -89 -13 -140 -13c-118 0 -198 48 -198 184c0 24 2 50 7 79l15 82c34 195 138 229 277 229c51 0 112 -8 135 -13l-20 -118h-63l1 55c-18 1 -41 3 -62 3c-102 0 -157 -41 -180 -172l-15 -82c-4 -24 -6 -45 -6 -63c0 -83 42 -110 126 -110c21 0 44 0 63 2
l18 57h63z" />
    <glyph glyph-name="Ccedilla.sc" unicode="&#xe00a;" horiz-adv-x="479" 
d="M424 2c-25 -5 -89 -13 -140 -13c-118 0 -198 48 -198 184c0 24 2 50 7 79l15 82c34 195 138 229 277 229c51 0 112 -8 135 -13l-20 -118h-63l1 55c-18 1 -41 3 -62 3c-102 0 -157 -41 -180 -172l-15 -82c-4 -24 -6 -45 -6 -63c0 -83 42 -110 126 -110c21 0 44 0 63 2
l18 57h63zM318 -69l-162 -142h-92l142 142h112z" />
    <glyph glyph-name="D.sc" unicode="&#xe00b;" horiz-adv-x="561" 
d="M552 226c-27 -149 -110 -228 -302 -228c-69 0 -140 0 -206 2l11 67l41 6l72 407l-39 5l12 68c68 2 133 2 208 2c161 0 224 -68 224 -180c0 -21 -3 -45 -7 -69zM464 239l14 80c3 19 5 35 5 50c0 85 -53 109 -146 109h-80l-71 -404h80c117 0 175 38 198 165z" />
    <glyph glyph-name="Eth.sc" unicode="&#xe00c;" horiz-adv-x="561" 
d="M80 245l13 77h48l28 158l-39 5l12 68c68 2 133 2 208 2c161 0 224 -68 224 -180c0 -21 -3 -45 -7 -69l-14 -80c-27 -149 -110 -228 -302 -228c-69 0 -140 0 -206 2l11 67l41 6l30 172h-47zM465 239l14 80c3 19 5 35 5 50c0 85 -53 109 -146 109h-80l-28 -156h108l-13 -77
h-108l-30 -171h80c117 0 175 38 198 165z" />
    <glyph glyph-name="E.sc" unicode="&#xe00d;" horiz-adv-x="491" 
d="M435 0h-391l11 65l40 3l74 417l-39 3l11 65h391l-21 -120h-64l1 48h-191l-28 -159h247l-12 -71h-247l-32 -179h191l16 49h64z" />
    <glyph glyph-name="Eacute.sc" unicode="&#xe00e;" horiz-adv-x="491" 
d="M435 0h-391l11 65l40 3l74 417l-39 3l11 65h391l-21 -120h-64l1 48h-191l-28 -159h247l-12 -71h-247l-32 -179h191l16 49h64zM567 770l-177 -154h-90l158 154h109z" />
    <glyph glyph-name="Ecircumflex.sc" unicode="&#xe00f;" horiz-adv-x="491" 
d="M435 0h-391l11 65l40 3l74 417l-39 3l11 65h391l-21 -120h-64l1 48h-191l-28 -159h247l-12 -71h-247l-32 -179h191l16 49h64zM552 616h-87l-86 105l-123 -105h-93l162 154h119z" />
    <glyph glyph-name="Edieresis.sc" unicode="&#xe010;" horiz-adv-x="491" 
d="M435 0h-391l11 65l40 3l74 417l-39 3l11 65h391l-21 -120h-64l1 48h-191l-28 -159h247l-12 -71h-247l-32 -179h191l16 49h64zM523 639h-81l21 118h81zM295 639l21 118h-82l-21 -118h82z" />
    <glyph glyph-name="Egrave.sc" unicode="&#xe011;" horiz-adv-x="491" 
d="M435 0h-391l11 65l40 3l74 417l-39 3l11 65h391l-21 -120h-64l1 48h-191l-28 -159h247l-12 -71h-247l-32 -179h191l16 49h64zM422 616h-87l-123 154h106z" />
    <glyph glyph-name="F.sc" unicode="&#xe012;" horiz-adv-x="477" 
d="M465 251h-247l-32 -182l38 -4l-11 -65h-169l11 65l41 4l73 416l-39 3l11 65h391l-21 -120h-64l2 48h-191l-28 -159h247z" />
    <glyph glyph-name="G.sc" unicode="&#xe013;" horiz-adv-x="516" 
d="M461 5c-29 -6 -99 -16 -180 -16c-112 0 -195 53 -195 188c0 22 2 47 7 74l15 87c36 203 157 225 283 225c77 0 152 -13 166 -16l-20 -115h-64l2 52c-24 1 -58 4 -89 4c-96 0 -165 -22 -191 -168l-15 -87c-4 -23 -6 -43 -6 -61c0 -84 46 -107 127 -107c31 0 62 1 84 3
l28 155l-74 7l11 61h162z" />
    <glyph glyph-name="H.sc" unicode="&#xe014;" horiz-adv-x="618" 
d="M574 0h-172l11 66l41 4l32 183h-266l-32 -183l39 -4l-11 -66h-172l11 66l41 4l73 413l-40 4l12 66h172l-12 -66l-40 -4l-28 -155h266l28 155l-40 4l12 66h172l-12 -66l-40 -4l-73 -413l39 -4z" />
    <glyph glyph-name="I.sc" unicode="&#xe015;" horiz-adv-x="259" 
d="M214 0h-170l11 65l41 4l73 416l-39 3l11 65h170l-11 -65l-41 -3l-73 -416l39 -4z" />
    <glyph glyph-name="Iacute.sc" unicode="&#xe016;" horiz-adv-x="259" 
d="M214 0h-170l11 65l41 4l73 416l-39 3l11 65h170l-11 -65l-41 -3l-73 -416l39 -4zM465 770l-177 -154h-90l158 154h109z" />
    <glyph glyph-name="Icircumflex.sc" unicode="&#xe017;" horiz-adv-x="259" 
d="M214 0h-170l11 65l41 4l73 416l-39 3l11 65h170l-11 -65l-41 -3l-73 -416l39 -4zM434 616h-87l-86 105l-123 -105h-93l162 154h119z" />
    <glyph glyph-name="Idieresis.sc" unicode="&#xe018;" horiz-adv-x="259" 
d="M214 0h-170l11 65l41 4l73 416l-39 3l11 65h170l-11 -65l-41 -3l-73 -416l39 -4zM400 640h-81l21 118h81zM172 640l21 118h-82l-21 -118h82z" />
    <glyph glyph-name="Igrave.sc" unicode="&#xe019;" horiz-adv-x="259" 
d="M214 0h-170l11 65l41 4l73 416l-39 3l11 65h170l-11 -65l-41 -3l-73 -416l39 -4zM311 616h-87l-123 154h106z" />
    <glyph glyph-name="J.sc" unicode="&#xe01a;" horiz-adv-x="258" 
d="M299 488l-41 -3l-92 -522c-16 -88 -56 -128 -150 -128c-19 0 -47 3 -58 6l11 62h47c46 0 53 16 61 60l92 522l-39 3l11 65h169z" />
    <glyph glyph-name="K.sc" unicode="&#xe01b;" horiz-adv-x="547" 
d="M506 0h-97l-188 273l-34 -203l39 -4l-11 -66h-170l11 65l40 3l74 417l-39 3l11 65h170l-12 -66l-40 -4l-33 -185l272 255h104l-11 -65l-45 -3l-225 -204l153 -214l42 -2z" />
    <glyph glyph-name="L.sc" unicode="&#xe01c;" horiz-adv-x="468" 
d="M426 0h-382l11 65l40 3l74 417l-39 3l11 65h169l-11 -65l-41 -3l-72 -411h182l16 51h64z" />
    <glyph glyph-name="Lslash.sc" unicode="&#xe01d;" horiz-adv-x="468" 
d="M426 0h-382l11 65l40 3l19 106l-49 -36l17 96l49 36l38 215l-39 3l11 65h169l-11 -65l-41 -3l-24 -137l123 86l-17 -96l-123 -86l-31 -178h182l16 51h64z" />
    <glyph glyph-name="M.sc" unicode="&#xe01e;" horiz-adv-x="683" 
d="M640 0h-168l11 66l41 4l47 267c6 37 14 75 22 111h-1c-20 -29 -40 -60 -61 -88l-110 -147h-85l-58 146c-11 28 -20 62 -29 89h-2c-4 -36 -9 -73 -16 -111l-47 -267l39 -4l-11 -66h-167l11 65l40 3l74 417l-39 3l11 65h140l79 -202c9 -23 19 -49 25 -74h1
c16 25 34 51 51 74l153 202h146l-11 -65l-41 -3l-73 -416l39 -4z" />
    <glyph glyph-name="N.sc" unicode="&#xe01f;" horiz-adv-x="617" 
d="M656 488l-41 -3l-85 -485h-112l-141 370c-10 26 -22 53 -31 83h-2c-4 -34 -9 -71 -15 -107l-50 -278l40 -3l-11 -65h-162l11 65l40 3l74 417l-39 3l11 65h152l141 -362c10 -27 21 -56 30 -84h2c5 37 10 76 16 109l47 269l-39 3l11 65h164z" />
    <glyph glyph-name="Ntilde.sc" unicode="&#xe020;" horiz-adv-x="617" 
d="M656 488l-41 -3l-85 -485h-112l-141 370c-10 26 -22 53 -31 83h-2c-4 -34 -9 -71 -15 -107l-50 -278l40 -3l-11 -65h-162l11 65l40 3l74 417l-39 3l11 65h152l141 -362c10 -27 21 -56 30 -84h2c5 37 10 76 16 109l47 269l-39 3l11 65h164zM641 732
c-13 -75 -45 -124 -119 -124c-37 0 -65 14 -94 41l-36 33c-18 19 -31 28 -52 28c-28 0 -38 -22 -45 -61l-6 -34h-65l6 34c13 75 50 124 122 124c38 0 61 -11 90 -38l36 -34c18 -17 33 -29 54 -29c29 0 38 21 45 60l6 34h64z" />
    <glyph glyph-name="O.sc" unicode="&#xe021;" horiz-adv-x="554" 
d="M544 229c-30 -171 -129 -240 -264 -240c-124 0 -193 73 -193 197c0 22 3 45 7 70l13 73c29 166 129 234 263 234c124 0 194 -65 194 -189c0 -22 -2 -46 -7 -72zM457 241l13 71c4 22 6 42 6 59c0 87 -46 115 -114 115c-81 0 -146 -45 -168 -174l-13 -71
c-4 -22 -6 -41 -6 -58c0 -85 46 -117 113 -117c81 0 145 41 169 175z" />
    <glyph glyph-name="OE.sc" unicode="&#xe022;" horiz-adv-x="794" 
d="M740 0h-338c-49 -5 -75 -10 -119 -10c-130 0 -196 70 -196 192c0 23 2 47 7 73l13 73c30 172 127 235 277 235c43 0 70 -3 115 -10h338l-21 -120h-63v48h-190l-28 -159h247l-12 -71h-247l-32 -179h190l17 49h63zM401 73l72 406c-39 4 -68 7 -95 7
c-95 0 -162 -45 -184 -174l-13 -72c-4 -22 -6 -41 -6 -58c0 -84 46 -116 122 -116c50 0 64 3 104 7z" />
    <glyph glyph-name="Oacute.sc" unicode="&#xe023;" horiz-adv-x="554" 
d="M543 229c-30 -171 -129 -240 -264 -240c-124 0 -193 73 -193 197c0 22 3 45 7 70l13 73c29 166 129 234 263 234c124 0 194 -65 194 -189c0 -22 -2 -46 -7 -72zM456 241l13 71c4 22 6 42 6 59c0 87 -46 115 -114 115c-81 0 -146 -45 -168 -174l-13 -71
c-4 -22 -6 -41 -6 -58c0 -85 46 -117 113 -117c81 0 145 41 169 175zM593 770l-177 -154h-90l158 154h109z" />
    <glyph glyph-name="Ocircumflex.sc" unicode="&#xe024;" horiz-adv-x="554" 
d="M543 229c-30 -171 -129 -240 -264 -240c-124 0 -193 73 -193 197c0 22 3 45 7 70l13 73c29 166 129 234 263 234c124 0 194 -65 194 -189c0 -22 -2 -46 -7 -72zM456 241l13 71c4 22 6 42 6 59c0 87 -46 115 -114 115c-81 0 -146 -45 -168 -174l-13 -71
c-4 -22 -6 -41 -6 -58c0 -85 46 -117 113 -117c81 0 145 41 169 175zM581 616h-87l-86 105l-123 -105h-93l162 154h119z" />
    <glyph glyph-name="Odieresis.sc" unicode="&#xe025;" horiz-adv-x="554" 
d="M543 229c-30 -171 -129 -240 -264 -240c-124 0 -193 73 -193 197c0 22 3 45 7 70l13 73c29 166 129 234 263 234c124 0 194 -65 194 -189c0 -22 -2 -46 -7 -72zM456 241l13 71c4 22 6 42 6 59c0 87 -46 115 -114 115c-81 0 -146 -45 -168 -174l-13 -71
c-4 -22 -6 -41 -6 -58c0 -85 46 -117 113 -117c81 0 145 41 169 175zM545 640h-81l21 118h81zM317 640l21 118h-82l-21 -118h82z" />
    <glyph glyph-name="Ograve.sc" unicode="&#xe026;" horiz-adv-x="554" 
d="M543 229c-30 -171 -129 -240 -264 -240c-124 0 -193 73 -193 197c0 22 3 45 7 70l13 73c29 166 129 234 263 234c124 0 194 -65 194 -189c0 -22 -2 -46 -7 -72zM456 241l13 71c4 22 6 42 6 59c0 87 -46 115 -114 115c-81 0 -146 -45 -168 -174l-13 -71
c-4 -22 -6 -41 -6 -58c0 -85 46 -117 113 -117c81 0 145 41 169 175zM457 616h-87l-123 154h106z" />
    <glyph glyph-name="Oslash.sc" unicode="&#xe027;" horiz-adv-x="554" 
d="M544 229c-30 -171 -129 -240 -264 -240c-57 0 -101 15 -134 43l-31 -35h-83l76 86c-14 28 -21 63 -21 103c0 22 3 45 7 70l13 73c29 166 129 234 263 234c54 0 98 -13 130 -37l26 30h83l-68 -77c15 -28 23 -64 23 -105c0 -22 -2 -46 -7 -72zM457 241l13 71
c4 22 6 42 6 59c0 11 -1 22 -3 31l-270 -306c20 -21 49 -30 85 -30c81 0 145 41 169 175zM175 183c0 -8 0 -16 1 -23l267 302c-20 17 -48 24 -81 24c-81 0 -146 -45 -168 -174l-13 -71c-4 -22 -6 -41 -6 -58z" />
    <glyph glyph-name="Otilde.sc" unicode="&#xe028;" horiz-adv-x="554" 
d="M543 229c-30 -171 -129 -240 -264 -240c-124 0 -193 73 -193 197c0 22 3 45 7 70l13 73c29 166 129 234 263 234c124 0 194 -65 194 -189c0 -22 -2 -46 -7 -72zM456 241l13 71c4 22 6 42 6 59c0 87 -46 115 -114 115c-81 0 -146 -45 -168 -174l-13 -71
c-4 -22 -6 -41 -6 -58c0 -85 46 -117 113 -117c81 0 145 41 169 175zM610 732c-13 -75 -45 -124 -119 -124c-37 0 -65 14 -94 41l-36 33c-18 19 -31 28 -52 28c-28 0 -38 -22 -45 -61l-6 -34h-65l6 34c13 75 50 124 122 124c38 0 61 -11 90 -38l36 -34c18 -17 33 -29 54 -29
c29 0 38 21 45 60l6 34h64z" />
    <glyph glyph-name="P.sc" unicode="&#xe029;" horiz-adv-x="524" 
d="M184 70l39 -4l-11 -66h-168l11 65l41 4l73 416l-39 3l11 65c65 1 131 2 198 2c122 0 217 -24 217 -146c0 -160 -121 -201 -274 -201h-74zM221 281h73c90 0 171 17 171 122c0 68 -47 79 -136 79h-73z" />
    <glyph glyph-name="Thorn.sc" unicode="&#xe02a;" horiz-adv-x="524" 
d="M96 69l73 415l-39 4l11 65h167l-11 -65l-40 -4l-5 -30c26 1 48 2 72 2c120 0 215 -26 215 -148c0 -155 -119 -199 -274 -199c-25 0 -48 0 -74 1l-7 -41l38 -4l-11 -65h-167l11 65zM204 183h68c110 0 176 19 176 125c0 63 -48 73 -136 73c-25 0 -48 0 -73 -1z" />
    <glyph glyph-name="Q.sc" unicode="&#xe02b;" horiz-adv-x="554" 
d="M544 229c-28 -156 -112 -227 -229 -238l-5 -35c-1 -5 -1 -9 -1 -13c0 -16 10 -21 44 -21h65l-10 -55c-15 -3 -58 -8 -93 -8c-56 0 -93 19 -93 75c0 9 1 20 3 31l5 29c-93 17 -143 86 -143 192c0 22 3 45 7 70l13 73c29 166 129 234 263 234c124 0 194 -65 194 -189
c0 -22 -2 -46 -7 -72zM457 241l13 71c4 22 6 42 6 59c0 87 -46 115 -114 115c-81 0 -146 -45 -168 -174l-13 -71c-4 -22 -6 -41 -6 -58c0 -85 46 -117 113 -117c81 0 145 41 169 175z" />
    <glyph glyph-name="R.sc" unicode="&#xe02c;" horiz-adv-x="562" 
d="M523 0h-99l-91 210h-124l-25 -140l39 -4l-11 -66h-168l11 65l41 4l73 416l-39 3l11 65c63 1 130 2 196 2c121 0 217 -31 217 -148c0 -86 -47 -149 -132 -179l69 -160l43 -3zM221 280h71c99 0 173 19 173 124c0 66 -49 78 -140 78h-69z" />
    <glyph glyph-name="S.sc" unicode="&#xe02d;" horiz-adv-x="464" 
d="M136 65c35 -2 51 -2 94 -2c63 0 129 21 129 98c0 28 -16 45 -60 66l-89 41c-59 28 -96 71 -96 136c0 128 102 159 222 159c71 0 139 -10 163 -16l-20 -114h-63v54c-28 2 -60 2 -87 2c-51 0 -124 -9 -124 -81c0 -28 15 -46 60 -67l87 -40c65 -30 98 -72 98 -134
c0 -128 -100 -178 -225 -178c-72 0 -145 10 -169 15l21 119h62z" />
    <glyph glyph-name="Scaron.sc" unicode="&#xe02e;" horiz-adv-x="464" 
d="M136 65c35 -2 51 -2 94 -2c63 0 129 21 129 98c0 28 -16 45 -60 66l-89 41c-59 28 -96 71 -96 136c0 128 102 159 222 159c71 0 139 -10 163 -16l-20 -114h-63v54c-28 2 -60 2 -87 2c-51 0 -124 -9 -124 -81c0 -28 15 -46 60 -67l87 -40c65 -30 98 -72 98 -134
c0 -128 -100 -178 -225 -178c-72 0 -145 10 -169 15l21 119h62zM574 770l-162 -154h-119l-108 154h86l86 -106l123 106h94z" />
    <glyph glyph-name="T.sc" unicode="&#xe02f;" horiz-adv-x="521" 
d="M554 431h-62l2 50h-105l-73 -414l40 -4l-11 -63h-170l11 63l40 4l73 414h-104l-16 -50h-62l22 122h437z" />
    <glyph glyph-name="U.sc" unicode="&#xe030;" horiz-adv-x="601" 
d="M642 488l-41 -3l-47 -262c-29 -164 -101 -234 -251 -234c-128 0 -184 66 -184 180c0 25 3 52 8 82l42 234l-39 3l11 65h169l-12 -66l-40 -4l-44 -246c-5 -29 -8 -53 -8 -74c0 -71 31 -100 105 -100c104 0 136 49 158 174l44 246l-40 4l12 66h168z" />
    <glyph glyph-name="Uacute.sc" unicode="&#xe031;" horiz-adv-x="601" 
d="M642 488l-41 -3l-47 -262c-29 -164 -101 -234 -251 -234c-128 0 -184 66 -184 180c0 25 3 52 8 82l42 234l-39 3l11 65h169l-12 -66l-40 -4l-44 -246c-5 -29 -8 -53 -8 -74c0 -71 31 -100 105 -100c104 0 136 49 158 174l44 246l-40 4l12 66h168zM615 770l-177 -154h-90
l158 154h109z" />
    <glyph glyph-name="Ucircumflex.sc" unicode="&#xe032;" horiz-adv-x="601" 
d="M642 488l-41 -3l-47 -262c-29 -164 -101 -234 -251 -234c-128 0 -184 66 -184 180c0 25 3 52 8 82l42 234l-39 3l11 65h169l-12 -66l-40 -4l-44 -246c-5 -29 -8 -53 -8 -74c0 -71 31 -100 105 -100c104 0 136 49 158 174l44 246l-40 4l12 66h168zM606 616h-87l-86 105
l-123 -105h-93l162 154h119z" />
    <glyph glyph-name="Udieresis.sc" unicode="&#xe033;" horiz-adv-x="601" 
d="M642 488l-41 -3l-47 -262c-29 -164 -101 -234 -251 -234c-128 0 -184 66 -184 180c0 25 3 52 8 82l42 234l-39 3l11 65h169l-12 -66l-40 -4l-44 -246c-5 -29 -8 -53 -8 -74c0 -71 31 -100 105 -100c104 0 136 49 158 174l44 246l-40 4l12 66h168zM569 639h-81l21 118h81z
M341 639l21 118h-82l-21 -118h82z" />
    <glyph glyph-name="Ugrave.sc" unicode="&#xe034;" horiz-adv-x="601" 
d="M642 488l-41 -3l-47 -262c-29 -164 -101 -234 -251 -234c-128 0 -184 66 -184 180c0 25 3 52 8 82l42 234l-39 3l11 65h169l-12 -66l-40 -4l-44 -246c-5 -29 -8 -53 -8 -74c0 -71 31 -100 105 -100c104 0 136 49 158 174l44 246l-40 4l12 66h168zM484 616h-87l-123 154
h106z" />
    <glyph glyph-name="V.sc" unicode="&#xe035;" horiz-adv-x="594" 
d="M643 488l-41 -4l-243 -484h-129l-73 484l-38 4l11 65h166l-11 -64l-37 -3l46 -329c4 -31 7 -70 8 -97h2c12 29 25 64 41 97l162 329l-35 3l11 64h171z" />
    <glyph glyph-name="W.sc" unicode="&#xe036;" horiz-adv-x="773" 
d="M820 488l-40 -3l-174 -485h-128l-21 300c-2 28 -3 61 -4 88h-2c-11 -27 -24 -60 -36 -88l-124 -300h-128l-4 485l-38 3l11 65h171l-11 -64l-47 -4l-1 -297c0 -36 -2 -72 -3 -108h4c12 34 25 71 40 107l117 267h121l20 -267c3 -37 1 -68 3 -108h4c12 36 23 73 36 109
l103 297l-44 4l11 64h175z" />
    <glyph glyph-name="X.sc" unicode="&#xe037;" horiz-adv-x="557" 
d="M565 484l-184 -211l107 -204l46 -4l-11 -65h-98l-111 210l-178 -210h-106l11 65l45 4l188 218l-103 197l-46 4l11 65h100l107 -206l175 206h103l-11 -65z" />
    <glyph glyph-name="Y.sc" unicode="&#xe038;" horiz-adv-x="518" 
d="M570 488l-39 -3l-191 -269l-26 -146l39 -4l-11 -66h-168l11 66l42 4l26 146l-97 269l-36 3l11 65h152l-11 -64l-25 -2l37 -107c9 -27 18 -58 24 -84h2c14 25 36 58 54 84l73 107l-22 2l11 64h155z" />
    <glyph glyph-name="Yacute.sc" unicode="&#xe039;" horiz-adv-x="518" 
d="M570 488l-39 -3l-191 -269l-26 -146l39 -4l-11 -66h-168l11 66l42 4l26 146l-97 269l-36 3l11 65h152l-11 -64l-25 -2l37 -107c9 -27 18 -58 24 -84h2c14 25 36 58 54 84l73 107l-22 2l11 64h155zM593 770l-177 -154h-90l158 154h109z" />
    <glyph glyph-name="Ydieresis.sc" unicode="&#xe03a;" horiz-adv-x="518" 
d="M570 488l-39 -3l-191 -269l-26 -146l39 -4l-11 -66h-168l11 66l42 4l26 146l-97 269l-36 3l11 65h152l-11 -64l-25 -2l37 -107c9 -27 18 -58 24 -84h2c14 25 36 58 54 84l73 107l-22 2l11 64h155zM530 639h-81l21 118h81zM302 639l21 118h-82l-21 -118h82z" />
    <glyph glyph-name="Z.sc" unicode="&#xe03b;" horiz-adv-x="492" 
d="M448 0h-404l14 84l359 397h-209l-17 -50h-60l22 122h382l-15 -84l-356 -397h227l17 54h62z" />
    <glyph glyph-name="Zcaron.sc" unicode="&#xe03c;" horiz-adv-x="492" 
d="M448 0h-404l14 84l359 397h-209l-17 -50h-60l22 122h382l-15 -84l-356 -397h227l17 54h62zM589 770l-162 -154h-119l-108 154h86l86 -106l123 106h94z" />
    <glyph glyph-name="Abreve.sc" unicode="&#xe040;" horiz-adv-x="603" 
d="M208 0h-171l11 65l40 4l209 415l-40 3l12 66h194l73 -484l41 -4l-11 -65h-167l11 64l33 3l-14 103h-193l-51 -103l34 -3zM422 242l-23 158c-5 30 -5 62 -6 89h-7c-12 -27 -23 -59 -38 -89l-79 -158h153zM606 770c-21 -80 -57 -155 -192 -155c-103 0 -146 63 -146 136
c0 6 0 13 1 19h67c0 -5 -1 -10 -1 -15c0 -59 29 -80 86 -80c63 0 98 24 118 95h67z" />
    <glyph glyph-name="Amacron.sc" unicode="&#xe041;" horiz-adv-x="603" 
d="M208 0h-171l11 65l40 4l209 415l-40 3l12 66h194l73 -484l41 -4l-11 -65h-167l11 64l33 3l-14 103h-193l-51 -103l34 -3zM422 242l-23 158c-5 30 -5 62 -6 89h-7c-12 -27 -23 -59 -38 -89l-79 -158h153zM584 640h-343l12 70h343z" />
    <glyph glyph-name="Aogonek.sc" unicode="&#xe042;" horiz-adv-x="603" 
d="M208 0h-171l11 65l40 4l209 415l-40 3l12 66h194l73 -484l41 -4l-11 -65c-45 -16 -165 -61 -165 -125c0 -21 12 -35 52 -35c25 0 51 3 78 5l-9 -52c-12 -4 -45 -10 -87 -10c-74 0 -111 34 -111 84c0 66 59 103 120 133h-45l11 64l33 3l-14 103h-193l-51 -103l34 -3z
M422 242l-23 158c-5 30 -5 62 -6 89h-7c-12 -27 -23 -59 -38 -89l-79 -158h153z" />
    <glyph glyph-name="AEacute.sc" unicode="&#xe043;" horiz-adv-x="775" 
d="M339 65l40 3l18 102h-180l-49 -101l37 -4l-11 -65h-174l11 65l40 4l210 415l-40 3l12 66h562l-21 -120h-63l1 48h-191l-28 -159h247l-12 -71h-247l-32 -179h191l16 49h63l-21 -121h-390zM410 241l43 242h-87c-9 -20 -15 -37 -33 -74l-83 -168h160zM735 770l-177 -154h-90
l158 154h109z" />
    <glyph glyph-name="Cacute.sc" unicode="&#xe044;" horiz-adv-x="479" 
d="M424 2c-25 -5 -89 -13 -140 -13c-118 0 -198 48 -198 184c0 24 2 50 7 79l15 82c34 195 138 229 277 229c51 0 112 -8 135 -13l-20 -118h-63l1 55c-18 1 -41 3 -62 3c-102 0 -157 -41 -180 -172l-15 -82c-4 -24 -6 -45 -6 -63c0 -83 42 -110 126 -110c21 0 44 0 63 2
l18 57h63zM588 770l-177 -154h-90l158 154h109z" />
    <glyph glyph-name="Ccaron.sc" unicode="&#xe045;" horiz-adv-x="479" 
d="M424 2c-25 -5 -89 -13 -140 -13c-118 0 -198 48 -198 184c0 24 2 50 7 79l15 82c34 195 138 229 277 229c51 0 112 -8 135 -13l-20 -118h-63l1 55c-18 1 -41 3 -62 3c-102 0 -157 -41 -180 -172l-15 -82c-4 -24 -6 -45 -6 -63c0 -83 42 -110 126 -110c21 0 44 0 63 2
l18 57h63zM601 770l-162 -154h-119l-108 154h86l86 -106l123 106h94z" />
    <glyph glyph-name="Ccircumflex.sc" unicode="&#xe046;" horiz-adv-x="479" 
d="M424 2c-25 -5 -89 -13 -140 -13c-118 0 -198 48 -198 184c0 24 2 50 7 79l15 82c34 195 138 229 277 229c51 0 112 -8 135 -13l-20 -118h-63l1 55c-18 1 -41 3 -62 3c-102 0 -157 -41 -180 -172l-15 -82c-4 -24 -6 -45 -6 -63c0 -83 42 -110 126 -110c21 0 44 0 63 2
l18 57h63zM571 616h-87l-86 105l-123 -105h-93l162 154h119z" />
    <glyph glyph-name="Cdotaccent.sc" unicode="&#xe047;" horiz-adv-x="479" 
d="M424 2c-25 -5 -89 -13 -140 -13c-118 0 -198 48 -198 184c0 24 2 50 7 79l15 82c34 195 138 229 277 229c51 0 112 -8 135 -13l-20 -118h-63l1 55c-18 1 -41 3 -62 3c-102 0 -157 -41 -180 -172l-15 -82c-4 -24 -6 -45 -6 -63c0 -83 42 -110 126 -110c21 0 44 0 63 2
l18 57h63zM424 639h-89l21 120h89z" />
    <glyph glyph-name="Dcaron.sc" unicode="&#xe048;" horiz-adv-x="561" 
d="M552 226c-27 -149 -110 -228 -302 -228c-69 0 -140 0 -206 2l11 67l41 6l72 407l-39 5l12 68c68 2 133 2 208 2c161 0 224 -68 224 -180c0 -21 -3 -45 -7 -69zM464 239l14 80c3 19 5 35 5 50c0 85 -53 109 -146 109h-80l-71 -404h80c117 0 175 38 198 165zM605 770
l-162 -154h-119l-108 154h86l86 -106l123 106h94z" />
    <glyph glyph-name="Dcroat.sc" unicode="&#xe049;" horiz-adv-x="561" 
d="M553 226c-27 -149 -110 -228 -302 -228c-69 0 -140 0 -206 2l11 67l41 6l30 172h-46l13 77h47l28 158l-39 5l12 68c68 2 133 2 208 2c161 0 224 -68 224 -180c0 -21 -3 -45 -7 -69zM465 239l14 80c3 19 5 35 5 50c0 85 -53 109 -146 109h-80l-28 -156h109l-13 -77h-109
l-30 -171h80c117 0 175 38 198 165z" />
    <glyph glyph-name="Ebreve.sc" unicode="&#xe04a;" horiz-adv-x="491" 
d="M435 0h-391l11 65l40 3l74 417l-39 3l11 65h391l-21 -120h-64l1 48h-191l-28 -159h247l-12 -71h-247l-32 -179h191l16 49h64zM560 770c-21 -80 -57 -155 -192 -155c-103 0 -146 63 -146 136c0 6 0 13 1 19h67c0 -5 -1 -10 -1 -15c0 -59 29 -80 86 -80c63 0 98 24 118 95
h67z" />
    <glyph glyph-name="Ecaron.sc" unicode="&#xe04b;" horiz-adv-x="491" 
d="M435 0h-391l11 65l40 3l74 417l-39 3l11 65h391l-21 -120h-64l1 48h-191l-28 -159h247l-12 -71h-247l-32 -179h191l16 49h64zM585 770l-162 -154h-119l-108 154h86l86 -106l123 106h94z" />
    <glyph glyph-name="Edotaccent.sc" unicode="&#xe04c;" horiz-adv-x="491" 
d="M435 0h-391l11 65l40 3l74 417l-39 3l11 65h391l-21 -120h-64l1 48h-191l-28 -159h247l-12 -71h-247l-32 -179h191l16 49h64zM417 639h-89l21 120h89z" />
    <glyph glyph-name="Emacron.sc" unicode="&#xe04d;" horiz-adv-x="491" 
d="M435 0h-391l11 65l40 3l74 417l-39 3l11 65h391l-21 -120h-64l1 48h-191l-28 -159h247l-12 -71h-247l-32 -179h191l16 49h64zM539 640h-343l12 70h343z" />
    <glyph glyph-name="Eng.sc" unicode="&#xe04e;" horiz-adv-x="617" 
d="M656 488l-41 -3l-92 -522c-16 -88 -56 -128 -150 -128c-20 0 -48 3 -59 6l11 62h48c46 0 53 16 61 60l7 38l-164 369c-12 26 -22 53 -31 83h-2c-4 -34 -9 -71 -15 -107l-49 -276l39 -4l-11 -66h-162l11 65l40 3l74 417l-39 3l11 65h152l165 -362c5 -11 8 -21 13 -32h2
c1 15 6 45 9 57l47 267l-40 4l12 66h164z" />
    <glyph glyph-name="Eogonek.sc" unicode="&#xe04f;" horiz-adv-x="491" 
d="M398 -206c-21 -6 -54 -11 -89 -11c-81 0 -120 33 -109 96c9 49 47 86 104 121h-260l11 65l40 3l74 417l-39 3l11 65h391l-21 -120h-64l1 48h-191l-28 -159h247l-12 -71h-247l-32 -179h191l16 49h64l-21 -121h-22c-112 -52 -131 -87 -136 -116c-5 -27 6 -44 52 -44
c33 0 60 2 78 4z" />
    <glyph glyph-name="Gbreve.sc" unicode="&#xe050;" horiz-adv-x="516" 
d="M461 5c-29 -6 -99 -16 -180 -16c-112 0 -195 53 -195 188c0 22 2 47 7 74l15 87c36 203 157 225 283 225c77 0 152 -13 166 -16l-20 -115h-64l2 52c-24 1 -58 4 -89 4c-96 0 -165 -22 -191 -168l-15 -87c-4 -23 -6 -43 -6 -61c0 -84 46 -107 127 -107c31 0 62 1 84 3
l28 155l-74 7l11 61h162zM593 770c-21 -80 -57 -155 -192 -155c-103 0 -146 63 -146 136c0 6 0 13 1 19h67c0 -5 -1 -10 -1 -15c0 -59 29 -80 86 -80c63 0 98 24 118 95h67z" />
    <glyph glyph-name="Gcircumflex.sc" unicode="&#xe051;" horiz-adv-x="516" 
d="M461 5c-29 -6 -99 -16 -180 -16c-112 0 -195 53 -195 188c0 22 2 47 7 74l15 87c36 203 157 225 283 225c77 0 152 -13 166 -16l-20 -115h-64l2 52c-24 1 -58 4 -89 4c-96 0 -165 -22 -191 -168l-15 -87c-4 -23 -6 -43 -6 -61c0 -84 46 -107 127 -107c31 0 62 1 84 3
l28 155l-74 7l11 61h162zM579 616h-87l-86 105l-123 -105h-93l162 154h119z" />
    <glyph glyph-name="Gcommaaccent.sc" unicode="&#xe052;" horiz-adv-x="516" 
d="M461 5c-29 -6 -99 -16 -180 -16c-112 0 -195 53 -195 188c0 22 2 47 7 74l15 87c36 203 157 225 283 225c77 0 152 -13 166 -16l-20 -115h-64l2 52c-24 1 -58 4 -89 4c-96 0 -165 -22 -191 -168l-15 -87c-4 -23 -6 -43 -6 -61c0 -84 46 -107 127 -107c31 0 62 1 84 3
l28 155l-74 7l11 61h162zM342 -69l-115 -142h-82l93 142h104z" />
    <glyph glyph-name="Gdotaccent.sc" unicode="&#xe053;" horiz-adv-x="516" 
d="M461 5c-29 -6 -99 -16 -180 -16c-112 0 -195 53 -195 188c0 22 2 47 7 74l15 87c36 203 157 225 283 225c77 0 152 -13 166 -16l-20 -115h-64l2 52c-24 1 -58 4 -89 4c-96 0 -165 -22 -191 -168l-15 -87c-4 -23 -6 -43 -6 -61c0 -84 46 -107 127 -107c31 0 62 1 84 3
l28 155l-74 7l11 61h162zM445 639h-89l21 120h89z" />
    <glyph glyph-name="Hbar.sc" unicode="&#xe054;" horiz-adv-x="618" 
d="M89 376l11 63h61l8 44l-40 4l12 66h172l-12 -66l-40 -4l-8 -44h266l8 44l-40 4l12 66h172l-12 -66l-40 -4l-8 -44h60l-11 -63h-60l-54 -306l39 -4l-11 -66h-172l11 66l41 4l32 183h-266l-32 -183l39 -4l-11 -66h-172l11 66l41 4l54 306h-61zM233 328h266l9 48h-266z" />
    <glyph glyph-name="Hcircumflex.sc" unicode="&#xe055;" horiz-adv-x="618" 
d="M574 0h-172l11 66l41 4l32 183h-266l-32 -183l39 -4l-11 -66h-172l11 66l41 4l73 413l-40 4l12 66h172l-12 -66l-40 -4l-28 -155h266l28 155l-40 4l12 66h172l-12 -66l-40 -4l-73 -413l39 -4zM616 616h-87l-86 105l-123 -105h-93l162 154h119z" />
    <glyph glyph-name="Ibreve.sc" unicode="&#xe056;" horiz-adv-x="259" 
d="M214 0h-170l11 65l41 4l73 416l-39 3l11 65h170l-11 -65l-41 -3l-73 -416l39 -4zM435 770c-21 -80 -57 -155 -192 -155c-103 0 -146 63 -146 136c0 6 0 13 1 19h67c0 -5 -1 -10 -1 -15c0 -59 29 -80 86 -80c63 0 98 24 118 95h67z" />
    <glyph glyph-name="IJ.sc" unicode="&#xe058;" horiz-adv-x="475" 
d="M514 488l-41 -3l-92 -522c-16 -88 -56 -128 -151 -128c-20 0 -48 3 -59 6l11 62h48c46 0 54 16 62 60l92 522l-39 3l11 65h169zM217 0h-170l11 65l41 4l73 416l-39 3l11 65h170l-11 -65l-41 -3l-73 -416l39 -4z" />
    <glyph glyph-name="Imacron.sc" unicode="&#xe059;" horiz-adv-x="259" 
d="M214 0h-170l11 65l41 4l73 416l-39 3l11 65h170l-11 -65l-41 -3l-73 -416l39 -4zM416 640h-343l12 70h343z" />
    <glyph glyph-name="Iogonek.sc" unicode="&#xe05a;" horiz-adv-x="259" 
d="M175 -206c-21 -6 -54 -11 -85 -11c-66 0 -115 20 -115 87c0 63 51 100 105 130h-36l11 65l41 4l73 416l-39 3l11 65h170l-11 -65l-41 -3l-73 -416l39 -4l-11 -65h-31c-62 -33 -130 -73 -130 -123c0 -25 13 -37 53 -37c33 0 60 2 78 4z" />
    <glyph glyph-name="Itilde.sc" unicode="&#xe05b;" horiz-adv-x="259" 
d="M214 0h-170l11 65l41 4l73 416l-39 3l11 65h170l-11 -65l-41 -3l-73 -416l39 -4zM459 732c-13 -75 -45 -124 -119 -124c-37 0 -65 14 -94 41l-36 33c-18 19 -31 28 -52 28c-28 0 -38 -22 -45 -61l-6 -34h-65l6 34c13 75 50 124 122 124c38 0 61 -11 90 -38l36 -34
c18 -17 33 -29 54 -29c29 0 38 21 45 60l6 34h64z" />
    <glyph glyph-name="Jcircumflex.sc" unicode="&#xe05c;" horiz-adv-x="258" 
d="M296 488l-41 -3l-92 -522c-16 -88 -56 -128 -150 -128c-19 0 -47 3 -58 6l11 62h47c46 0 53 16 61 60l92 522l-39 3l11 65h169zM429 616h-87l-86 105l-123 -105h-93l162 154h119z" />
    <glyph glyph-name="Kcommaaccent.sc" unicode="&#xe05d;" horiz-adv-x="547" 
d="M506 0h-97l-188 273l-34 -203l39 -4l-11 -66h-170l11 65l40 3l74 417l-39 3l11 65h170l-12 -66l-40 -4l-33 -185l272 255h104l-11 -65l-45 -3l-225 -204l153 -214l42 -2zM324 -69l-115 -142h-82l93 142h104z" />
    <glyph glyph-name="Lacute.sc" unicode="&#xe05e;" horiz-adv-x="468" 
d="M426 0h-382l11 65l40 3l74 417l-39 3l11 65h169l-11 -65l-41 -3l-72 -411h182l16 51h64zM559 770l-177 -154h-90l158 154h109z" />
    <glyph glyph-name="Lcaron.sc" unicode="&#xe05f;" horiz-adv-x="468" 
d="M426 0h-382l11 65l40 3l74 417l-39 3l11 65h169l-11 -65l-41 -3l-72 -411h182l16 51h64zM522 553l-114 -229h-69l88 229h95z" />
    <glyph glyph-name="Lcommaaccent.sc" unicode="&#xe060;" horiz-adv-x="468" 
d="M426 0h-382l11 65l40 3l74 417l-39 3l11 65h169l-11 -65l-41 -3l-72 -411h182l16 51h64zM274 -69l-115 -142h-82l93 142h104z" />
    <glyph glyph-name="Ldot.sc" unicode="&#xe061;" horiz-adv-x="468" 
d="M426 0h-382l11 65l40 3l74 417l-39 3l11 65h169l-11 -65l-41 -3l-72 -411h182l16 51h64zM411 241h-88l21 120h88z" />
    <glyph glyph-name="Nacute.sc" unicode="&#xe062;" horiz-adv-x="617" 
d="M656 488l-41 -3l-85 -485h-112l-141 370c-10 26 -22 53 -31 83h-2c-4 -34 -9 -71 -15 -107l-50 -278l40 -3l-11 -65h-162l11 65l40 3l74 417l-39 3l11 65h152l141 -362c10 -27 21 -56 30 -84h2c5 37 10 76 16 109l47 269l-39 3l11 65h164zM627 770l-177 -154h-90l158 154
h109z" />
    <glyph glyph-name="Ncaron.sc" unicode="&#xe063;" horiz-adv-x="617" 
d="M656 488l-41 -3l-85 -485h-112l-141 370c-10 26 -22 53 -31 83h-2c-4 -34 -9 -71 -15 -107l-50 -278l40 -3l-11 -65h-162l11 65l40 3l74 417l-39 3l11 65h152l141 -362c10 -27 21 -56 30 -84h2c5 37 10 76 16 109l47 269l-39 3l11 65h164zM632 770l-162 -154h-119
l-108 154h86l86 -106l123 106h94z" />
    <glyph glyph-name="Ncommaaccent.sc" unicode="&#xe064;" horiz-adv-x="617" 
d="M656 488l-41 -3l-85 -485h-112l-141 370c-10 26 -22 53 -31 83h-2c-4 -34 -9 -71 -15 -107l-50 -278l40 -3l-11 -65h-162l11 65l40 3l74 417l-39 3l11 65h152l141 -362c10 -27 21 -56 30 -84h2c5 37 10 76 16 109l47 269l-39 3l11 65h164zM344 -68l-115 -142h-82l93 142
h104z" />
    <glyph glyph-name="Obreve.sc" unicode="&#xe065;" horiz-adv-x="554" 
d="M543 229c-30 -171 -129 -240 -264 -240c-124 0 -193 73 -193 197c0 22 3 45 7 70l13 73c29 166 129 234 263 234c124 0 194 -65 194 -189c0 -22 -2 -46 -7 -72zM456 241l13 71c4 22 6 42 6 59c0 87 -46 115 -114 115c-81 0 -146 -45 -168 -174l-13 -71
c-4 -22 -6 -41 -6 -58c0 -85 46 -117 113 -117c81 0 145 41 169 175zM584 770c-21 -80 -57 -155 -192 -155c-103 0 -146 63 -146 136c0 6 0 13 1 19h67c0 -5 -1 -10 -1 -15c0 -59 29 -80 86 -80c63 0 98 24 118 95h67z" />
    <glyph glyph-name="Ohungarumlaut.sc" unicode="&#xe066;" horiz-adv-x="554" 
d="M543 229c-30 -171 -129 -240 -264 -240c-124 0 -193 73 -193 197c0 22 3 45 7 70l13 73c29 166 129 234 263 234c124 0 194 -65 194 -189c0 -22 -2 -46 -7 -72zM456 241l13 71c4 22 6 42 6 59c0 87 -46 115 -114 115c-81 0 -146 -45 -168 -174l-13 -71
c-4 -22 -6 -41 -6 -58c0 -85 46 -117 113 -117c81 0 145 41 169 175zM704 770l-177 -154h-91l159 154h109zM492 770h-110l-158 -154h91z" />
    <glyph glyph-name="Omacron.sc" unicode="&#xe067;" horiz-adv-x="554" 
d="M543 229c-30 -171 -129 -240 -264 -240c-124 0 -193 73 -193 197c0 22 3 45 7 70l13 73c29 166 129 234 263 234c124 0 194 -65 194 -189c0 -22 -2 -46 -7 -72zM456 241l13 71c4 22 6 42 6 59c0 87 -46 115 -114 115c-81 0 -146 -45 -168 -174l-13 -71
c-4 -22 -6 -41 -6 -58c0 -85 46 -117 113 -117c81 0 145 41 169 175zM561 639h-343l12 70h343z" />
    <glyph glyph-name="Oslashacute.sc" unicode="&#xe068;" horiz-adv-x="554" 
d="M544 229c-30 -171 -129 -240 -264 -240c-57 0 -101 15 -134 43l-31 -35h-83l76 86c-14 28 -21 63 -21 103c0 22 3 45 7 70l13 73c29 166 129 234 263 234c54 0 98 -13 130 -37l26 30h83l-68 -77c15 -28 23 -64 23 -105c0 -22 -2 -46 -7 -72zM457 241l13 71
c4 22 6 42 6 59c0 11 -1 22 -3 31l-270 -306c20 -21 49 -30 85 -30c81 0 145 41 169 175zM175 183c0 -8 0 -16 1 -23l267 302c-20 17 -48 24 -81 24c-81 0 -146 -45 -168 -174l-13 -71c-4 -22 -6 -41 -6 -58zM599 770l-177 -154h-90l158 154h109z" />
    <glyph glyph-name="Racute.sc" unicode="&#xe069;" horiz-adv-x="562" 
d="M523 0h-99l-91 210h-124l-25 -140l39 -4l-11 -66h-168l11 65l41 4l73 416l-39 3l11 65c63 1 130 2 196 2c121 0 217 -31 217 -148c0 -86 -47 -149 -132 -179l69 -160l43 -3zM221 280h71c99 0 173 19 173 124c0 66 -49 78 -140 78h-69zM576 770l-177 -154h-90l158 154h109
z" />
    <glyph glyph-name="Rcaron.sc" unicode="&#xe06a;" horiz-adv-x="562" 
d="M523 0h-99l-91 210h-124l-25 -140l39 -4l-11 -66h-168l11 65l41 4l73 416l-39 3l11 65c63 1 130 2 196 2c121 0 217 -31 217 -148c0 -86 -47 -149 -132 -179l69 -160l43 -3zM221 280h71c99 0 173 19 173 124c0 66 -49 78 -140 78h-69zM601 770l-162 -154h-119l-108 154
h86l86 -106l123 106h94z" />
    <glyph glyph-name="Rcommaaccent.sc" unicode="&#xe06b;" horiz-adv-x="562" 
d="M523 0h-99l-91 210h-124l-25 -140l39 -4l-11 -66h-168l11 65l41 4l73 416l-39 3l11 65c63 1 130 2 196 2c121 0 217 -31 217 -148c0 -86 -47 -149 -132 -179l69 -160l43 -3zM221 280h71c99 0 173 19 173 124c0 66 -49 78 -140 78h-69zM322 -68l-115 -142h-82l93 142h104z
" />
    <glyph glyph-name="Sacute.sc" unicode="&#xe06c;" horiz-adv-x="464" 
d="M136 65c35 -2 51 -2 94 -2c63 0 129 21 129 98c0 28 -16 45 -60 66l-89 41c-59 28 -96 71 -96 136c0 128 102 159 222 159c71 0 139 -10 163 -16l-20 -114h-63v54c-28 2 -60 2 -87 2c-51 0 -124 -9 -124 -81c0 -28 15 -46 60 -67l87 -40c65 -30 98 -72 98 -134
c0 -128 -100 -178 -225 -178c-72 0 -145 10 -169 15l21 119h62zM554 770l-177 -154h-90l158 154h109z" />
    <glyph glyph-name="Scedilla.sc" unicode="&#xe06d;" horiz-adv-x="464" 
d="M136 65c35 -2 51 -2 94 -2c63 0 129 21 129 98c0 28 -16 45 -60 66l-89 41c-59 28 -96 71 -96 136c0 128 102 159 222 159c71 0 139 -10 163 -16l-20 -114h-63v54c-28 2 -60 2 -87 2c-51 0 -124 -9 -124 -81c0 -28 15 -46 60 -67l87 -40c65 -30 98 -72 98 -134
c0 -128 -100 -178 -225 -178c-72 0 -145 10 -169 15l21 119h62zM289 -68l-162 -142h-92l142 142h112z" />
    <glyph glyph-name="Scircumflex.sc" unicode="&#xe06e;" horiz-adv-x="464" 
d="M533 616h-87l-86 105l-123 -105h-93l162 154h119zM136 65c35 -2 51 -2 94 -2c63 0 129 21 129 98c0 28 -16 45 -60 66l-89 41c-59 28 -96 71 -96 136c0 128 102 159 222 159c71 0 139 -10 163 -16l-20 -114h-63v54c-28 2 -60 2 -87 2c-51 0 -124 -9 -124 -81
c0 -28 15 -46 60 -67l87 -40c65 -30 98 -72 98 -134c0 -128 -100 -178 -225 -178c-72 0 -145 10 -169 15l21 119h62z" />
    <glyph glyph-name="Scommaaccent.sc" unicode="&#xe06f;" horiz-adv-x="464" 
d="M136 65c35 -2 51 -2 94 -2c63 0 129 21 129 98c0 28 -16 45 -60 66l-89 41c-59 28 -96 71 -96 136c0 128 102 159 222 159c71 0 139 -10 163 -16l-20 -114h-63v54c-28 2 -60 2 -87 2c-51 0 -124 -9 -124 -81c0 -28 15 -46 60 -67l87 -40c65 -30 98 -72 98 -134
c0 -128 -100 -178 -225 -178c-72 0 -145 10 -169 15l21 119h62zM281 -68l-115 -142h-82l93 142h104z" />
    <glyph glyph-name="Tbar.sc" unicode="&#xe070;" horiz-adv-x="521" 
d="M557 431h-62l2 50h-105l-23 -132h136l-13 -76h-136l-37 -206l40 -4l-11 -63h-170l11 63l40 4l37 206h-137l13 76h137l23 132h-104l-16 -50h-62l22 122h437z" />
    <glyph glyph-name="Tcaron.sc" unicode="&#xe071;" horiz-adv-x="521" 
d="M554 431h-62l2 50h-105l-73 -414l40 -4l-11 -63h-170l11 63l40 4l73 414h-104l-16 -50h-62l22 122h437zM594 770l-162 -154h-119l-108 154h86l86 -106l123 106h94z" />
    <glyph glyph-name="Tcommaaccent.sc" unicode="&#xe072;" horiz-adv-x="521" 
d="M554 431h-62l2 50h-105l-73 -414l40 -4l-11 -63h-170l11 63l40 4l73 414h-104l-16 -50h-62l22 122h437zM313 -68l-115 -142h-82l93 142h104z" />
    <glyph glyph-name="Ubreve.sc" unicode="&#xe073;" horiz-adv-x="601" 
d="M642 488l-41 -3l-47 -262c-29 -164 -101 -234 -251 -234c-128 0 -184 66 -184 180c0 25 3 52 8 82l42 234l-39 3l11 65h169l-12 -66l-40 -4l-44 -246c-5 -29 -8 -53 -8 -74c0 -71 31 -100 105 -100c104 0 136 49 158 174l44 246l-40 4l12 66h168zM608 770
c-21 -80 -57 -155 -192 -155c-103 0 -146 63 -146 136c0 6 0 13 1 19h67c0 -5 -1 -10 -1 -15c0 -59 29 -80 86 -80c63 0 98 24 118 95h67z" />
    <glyph glyph-name="Uhungarumlaut.sc" unicode="&#xe074;" horiz-adv-x="601" 
d="M642 488l-41 -3l-47 -262c-29 -164 -101 -234 -251 -234c-128 0 -184 66 -184 180c0 25 3 52 8 82l42 234l-39 3l11 65h169l-12 -66l-40 -4l-44 -246c-5 -29 -8 -53 -8 -74c0 -71 31 -100 105 -100c104 0 136 49 158 174l44 246l-40 4l12 66h168zM731 770l-177 -154h-91
l159 154h109zM519 770h-110l-158 -154h91z" />
    <glyph glyph-name="Umacron.sc" unicode="&#xe075;" horiz-adv-x="601" 
d="M642 488l-41 -3l-47 -262c-29 -164 -101 -234 -251 -234c-128 0 -184 66 -184 180c0 25 3 52 8 82l42 234l-39 3l11 65h169l-12 -66l-40 -4l-44 -246c-5 -29 -8 -53 -8 -74c0 -71 31 -100 105 -100c104 0 136 49 158 174l44 246l-40 4l12 66h168zM589 639h-343l12 70h343
z" />
    <glyph glyph-name="Uogonek.sc" unicode="&#xe076;" horiz-adv-x="601" 
d="M642 488l-41 -3l-47 -262c-25 -138 -79 -209 -185 -228c-59 -32 -120 -71 -120 -118c0 -25 13 -37 53 -37c33 0 60 2 78 4l-9 -50c-21 -6 -54 -11 -85 -11c-66 0 -115 20 -115 87c0 58 39 93 86 122c-96 14 -138 77 -138 177c0 25 3 52 8 82l42 234l-39 3l11 65h169
l-12 -66l-40 -4l-44 -246c-5 -29 -8 -53 -8 -74c0 -71 31 -100 105 -100c104 0 136 49 158 174l44 246l-40 4l12 66h168z" />
    <glyph glyph-name="Uring.sc" unicode="&#xe077;" horiz-adv-x="601" 
d="M642 488l-41 -3l-47 -262c-29 -164 -101 -234 -251 -234c-128 0 -184 66 -184 180c0 25 3 52 8 82l42 234l-39 3l11 65h169l-12 -66l-40 -4l-44 -246c-5 -29 -8 -53 -8 -74c0 -71 31 -100 105 -100c104 0 136 49 158 174l44 246l-40 4l12 66h168zM492 715
c0 -77 -50 -109 -115 -109c-66 0 -118 32 -118 109s52 109 118 109c65 0 115 -32 115 -109zM432 715c0 42 -25 55 -55 55c-32 0 -56 -13 -56 -55c0 -41 24 -55 56 -55c30 0 55 14 55 55z" />
    <glyph glyph-name="Utilde.sc" unicode="&#xe078;" horiz-adv-x="601" 
d="M642 488l-41 -3l-47 -262c-29 -164 -101 -234 -251 -234c-128 0 -184 66 -184 180c0 25 3 52 8 82l42 234l-39 3l11 65h169l-12 -66l-40 -4l-44 -246c-5 -29 -8 -53 -8 -74c0 -71 31 -100 105 -100c104 0 136 49 158 174l44 246l-40 4l12 66h168zM635 736
c-13 -75 -45 -124 -119 -124c-37 0 -65 14 -94 41l-36 33c-18 19 -31 28 -52 28c-28 0 -38 -22 -45 -61l-6 -34h-65l6 34c13 75 50 124 122 124c38 0 61 -11 90 -38l36 -34c18 -17 33 -29 54 -29c29 0 38 21 45 60l6 34h64z" />
    <glyph glyph-name="Wacute.sc" unicode="&#xe079;" horiz-adv-x="773" 
d="M820 488l-40 -3l-174 -485h-128l-21 300c-2 28 -3 61 -4 88h-2c-11 -27 -24 -60 -36 -88l-124 -300h-128l-4 485l-38 3l11 65h171l-11 -64l-47 -4l-1 -297c0 -36 -2 -72 -3 -108h4c12 34 25 71 40 107l117 267h121l20 -267c3 -37 1 -68 3 -108h4c12 36 23 73 36 109
l103 297l-44 4l11 64h175zM716 770l-177 -154h-90l158 154h109z" />
    <glyph glyph-name="Wcircumflex.sc" unicode="&#xe07a;" horiz-adv-x="773" 
d="M820 488l-40 -3l-174 -485h-128l-21 300c-2 28 -3 61 -4 88h-2c-11 -27 -24 -60 -36 -88l-124 -300h-128l-4 485l-38 3l11 65h171l-11 -64l-47 -4l-1 -297c0 -36 -2 -72 -3 -108h4c12 34 25 71 40 107l117 267h121l20 -267c3 -37 1 -68 3 -108h4c12 36 23 73 36 109
l103 297l-44 4l11 64h175zM691 616h-87l-86 105l-123 -105h-93l162 154h119z" />
    <glyph glyph-name="Wdieresis.sc" unicode="&#xe07b;" horiz-adv-x="773" 
d="M820 488l-40 -3l-174 -485h-128l-21 300c-2 28 -3 61 -4 88h-2c-11 -27 -24 -60 -36 -88l-124 -300h-128l-4 485l-38 3l11 65h171l-11 -64l-47 -4l-1 -297c0 -36 -2 -72 -3 -108h4c12 34 25 71 40 107l117 267h121l20 -267c3 -37 1 -68 3 -108h4c12 36 23 73 36 109
l103 297l-44 4l11 64h175zM655 639h-81l21 118h81zM427 639l21 118h-82l-21 -118h82z" />
    <glyph glyph-name="Wgrave.sc" unicode="&#xe07c;" horiz-adv-x="773" 
d="M820 488l-40 -3l-174 -485h-128l-21 300c-2 28 -3 61 -4 88h-2c-11 -27 -24 -60 -36 -88l-124 -300h-128l-4 485l-38 3l11 65h171l-11 -64l-47 -4l-1 -297c0 -36 -2 -72 -3 -108h4c12 34 25 71 40 107l117 267h121l20 -267c3 -37 1 -68 3 -108h4c12 36 23 73 36 109
l103 297l-44 4l11 64h175zM569 616h-87l-123 154h106z" />
    <glyph glyph-name="Ycircumflex.sc" unicode="&#xe07d;" horiz-adv-x="518" 
d="M570 488l-39 -3l-191 -269l-26 -146l39 -4l-11 -66h-168l11 66l42 4l26 146l-97 269l-36 3l11 65h152l-11 -64l-25 -2l37 -107c9 -27 18 -58 24 -84h2c14 25 36 58 54 84l73 107l-22 2l11 64h155zM565 616h-87l-86 105l-123 -105h-93l162 154h119z" />
    <glyph glyph-name="Ygrave.sc" unicode="&#xe07e;" horiz-adv-x="518" 
d="M570 488l-39 -3l-191 -269l-26 -146l39 -4l-11 -66h-168l11 66l42 4l26 146l-97 269l-36 3l11 65h152l-11 -64l-25 -2l37 -107c9 -27 18 -58 24 -84h2c14 25 36 58 54 84l73 107l-22 2l11 64h155zM442 616h-87l-123 154h106z" />
    <glyph glyph-name="Zacute.sc" unicode="&#xe07f;" horiz-adv-x="492" 
d="M448 0h-404l14 84l359 397h-209l-17 -50h-60l22 122h382l-15 -84l-356 -397h227l17 54h62zM578 770l-177 -154h-90l158 154h109z" />
    <glyph glyph-name="Zdotaccent.sc" unicode="&#xe080;" horiz-adv-x="492" 
d="M448 0h-404l14 84l359 397h-209l-17 -50h-60l22 122h382l-15 -84l-356 -397h227l17 54h62zM408 638h-89l21 120h89z" />
    <glyph glyph-name="Idotaccent.sc" unicode="&#xe081;" horiz-adv-x="259" 
d="M214 0h-170l11 65l41 4l73 416l-39 3l11 65h170l-11 -65l-41 -3l-73 -416l39 -4zM289 639h-89l21 120h89z" />
    <glyph glyph-name="Breve.sc" unicode="&#xe082;" 
d="M532 770c-21 -80 -57 -155 -192 -155c-103 0 -146 63 -146 136c0 6 0 13 1 19h67c0 -5 -1 -10 -1 -15c0 -59 29 -80 86 -80c63 0 98 24 118 95h67z" />
    <glyph glyph-name="Caron.sc" unicode="&#xe083;" 
d="M558 770l-162 -154h-119l-108 154h86l86 -106l123 106h94z" />
    <glyph glyph-name="Circumflex.sc" unicode="&#xe084;" 
d="M531 616h-87l-86 105l-123 -105h-93l162 154h119z" />
    <glyph glyph-name="Dotaccent.sc" unicode="&#xe085;" 
d="M387 651h-89l21 120h89z" />
    <glyph glyph-name="Hungarumlaut.sc" unicode="&#xe086;" 
d="M624 767l-177 -154h-91l159 154h109zM412 767h-110l-158 -154h91z" />
    <glyph glyph-name="Ogonek.sc" unicode="&#xe087;" 
d="M311 -207c-12 -4 -45 -10 -87 -10c-74 0 -111 34 -111 84c0 72 75 115 141 147h101c-42 -22 -165 -75 -165 -139c0 -21 12 -35 52 -35c25 0 51 3 78 5z" />
    <glyph glyph-name="Ring.sc" unicode="&#xe088;" 
d="M419 715c0 -77 -50 -109 -115 -109c-66 0 -118 32 -118 109s52 109 118 109c65 0 115 -32 115 -109zM359 715c0 42 -25 55 -55 55c-32 0 -56 -13 -56 -55c0 -41 24 -55 56 -55c30 0 55 14 55 55z" />
    <glyph glyph-name="Tilde.sc" unicode="&#xe089;" 
d="M559 736c-13 -75 -45 -124 -119 -124c-37 0 -65 14 -94 41l-36 33c-18 19 -31 28 -52 28c-28 0 -38 -22 -45 -61l-6 -34h-65l6 34c13 75 50 124 122 124c38 0 61 -11 90 -38l36 -34c18 -17 33 -29 54 -29c29 0 38 21 45 60l6 34h64z" />
    <glyph glyph-name="exclam.sc" unicode="&#xe08b;" horiz-adv-x="225" 
d="M156 0h-86l19 108h86zM259 575l-82 -424h-76l67 424h91z" />
    <glyph glyph-name="ampersand.sc" unicode="&#xe08c;" horiz-adv-x="644" 
d="M490 0l-31 36c-49 -30 -111 -47 -187 -47c-112 0 -192 40 -192 140c0 81 61 135 150 172l-6 7c-35 40 -64 83 -64 142c0 116 102 148 217 148c74 0 149 -11 175 -18l-22 -121h-67l3 63h-91c-76 0 -121 -15 -121 -72c0 -42 19 -69 58 -113l164 -189c29 41 42 91 48 141
l-41 6l10 59h167l-10 -59l-46 -6c-10 -75 -36 -144 -80 -196l67 -76l-2 -17h-99zM278 60c57 0 100 11 134 30l-134 155c-59 -28 -102 -59 -102 -116c0 -54 48 -69 102 -69z" />
    <glyph glyph-name="question.sc" unicode="&#xe08d;" horiz-adv-x="400" 
d="M198 0h-82l19 108h82zM220 150h-75l5 27c11 63 23 97 98 161c59 50 86 77 86 126c0 37 -23 47 -77 47c-19 0 -39 -1 -47 -2l-18 -55h-62l19 111c41 11 93 18 137 18c98 0 143 -31 143 -103c0 -65 -33 -110 -106 -172c-79 -67 -90 -82 -98 -131z" />
    <glyph glyph-name="Grave.sc" unicode="&#xe08e;" 
d="M402 616h-87l-123 154h106z" />
    <glyph glyph-name="exclamdown.sc" unicode="&#xe08f;" horiz-adv-x="225" 
d="M154 -22h-91l82 424h76zM253 553l-19 -108h-86l19 108h86z" />
    <glyph glyph-name="Dieresis.sc" unicode="&#xe090;" 
d="M497 643h-81l21 118h81zM269 643l21 118h-82l-21 -118h82z" />
    <glyph glyph-name="Macron.sc" unicode="&#xe091;" 
d="M515 655h-343l12 70h343z" />
    <glyph glyph-name="Acute.sc" unicode="&#xe092;" 
d="M526 770l-177 -154h-90l158 154h109z" />
    <glyph glyph-name="Cedilla.sc" unicode="&#xe093;" 
d="M289 -68l-162 -142h-92l142 142h112z" />
    <glyph glyph-name="questiondown.sc" unicode="&#xe094;" horiz-adv-x="400" 
d="M282 560h82l-19 -108h-82zM260 410h75l-5 -27c-11 -63 -23 -97 -98 -161c-59 -50 -86 -77 -86 -126c0 -37 23 -47 77 -47c19 0 39 1 47 2l18 55h62l-19 -111c-41 -11 -93 -18 -137 -18c-98 0 -143 31 -143 103c0 65 33 110 106 172c79 67 90 82 98 131z" />
    <glyph glyph-name="zero.fitted" unicode="&#xe097;" horiz-adv-x="654" 
d="M634 283c-36 -207 -132 -297 -304 -297c-151 0 -222 88 -222 233c0 30 3 62 9 97l25 143c37 208 155 296 308 296c150 0 219 -81 219 -224c0 -32 -3 -67 -10 -105zM545 299l25 143c6 34 9 63 9 89c0 106 -49 145 -133 145c-110 0 -183 -58 -214 -234l-25 -143
c-6 -35 -9 -65 -9 -91c0 -105 49 -143 136 -143c121 0 180 58 211 234z" />
    <glyph glyph-name="two.fitted" unicode="&#xe098;" horiz-adv-x="654" 
d="M559 0h-460l16 94c29 163 102 224 282 312c109 53 182 90 182 184c0 67 -44 86 -154 86c-32 0 -80 -2 -119 -5l-24 -79h-71l25 140c10 2 118 23 217 23c155 0 219 -46 219 -160c0 -121 -89 -184 -237 -257c-171 -84 -209 -125 -230 -244l-2 -13h289l23 75h71z" />
    <glyph glyph-name="three.fitted" unicode="&#xe099;" horiz-adv-x="654" 
d="M203 70c35 -3 76 -5 119 -5c147 0 203 63 203 188c0 62 -22 93 -109 93h-214l13 77h214c108 0 154 63 154 156c0 77 -37 97 -153 97c-38 0 -83 -2 -118 -4l-25 -80h-70l25 141c13 3 121 22 204 22c163 0 230 -37 230 -169c0 -69 -26 -151 -127 -201
c49 -26 67 -68 67 -132c0 -172 -97 -267 -306 -267c-83 0 -172 19 -198 26l25 143h70z" />
    <glyph glyph-name="four.fitted" unicode="&#xe09a;" horiz-adv-x="654" 
d="M637 196h-113l-21 -118l53 -5l-12 -73h-200l12 73l55 5l21 118h-351l17 94l419 453h104l-83 -467h113zM447 276l61 343l-322 -343h261z" />
    <glyph glyph-name="five.fitted" unicode="&#xe09b;" horiz-adv-x="654" 
d="M122 155h70l-4 -84c38 -3 77 -6 121 -6c168 0 215 76 215 199c0 81 -39 106 -161 106h-189l99 373h402l-27 -151h-71l2 69h-243l-56 -212h100c172 0 238 -50 238 -185c0 -172 -104 -278 -321 -278c-93 0 -179 19 -201 24z" />
    <glyph glyph-name="six.fitted" unicode="&#xe09c;" horiz-adv-x="654" 
d="M237 439c50 14 129 23 170 23c136 0 223 -32 223 -179c0 -141 -81 -297 -290 -297c-123 0 -229 43 -229 214c0 29 3 62 10 99l34 193c32 182 113 263 324 263c87 0 171 -16 198 -22l-25 -141h-70l3 80c-35 2 -78 4 -118 4c-172 0 -203 -81 -224 -202zM225 369l-17 -93
c-5 -30 -8 -56 -8 -79c0 -106 56 -132 143 -132c139 0 196 93 196 219c0 91 -54 104 -151 104c-31 0 -98 -4 -163 -19z" />
    <glyph glyph-name="seven.fitted" unicode="&#xe09d;" horiz-adv-x="654" 
d="M685 645l-437 -645h-103l457 661h-315l-22 -69h-70l27 151h481z" />
    <glyph glyph-name="eight.fitted" unicode="&#xe09e;" horiz-adv-x="654" 
d="M155 508c0 196 128 247 298 247h4c123 0 234 -36 234 -167c0 -81 -35 -156 -114 -202c37 -26 61 -65 61 -128c0 -158 -65 -272 -306 -272h-4c-119 0 -236 25 -236 195c0 72 29 156 113 209c-31 24 -50 65 -50 118zM543 258c0 64 -25 89 -89 89h-134
c-103 -2 -135 -86 -135 -166c0 -105 58 -116 150 -116h4c135 0 204 42 204 193zM333 425h134c92 0 130 74 130 161c0 78 -64 90 -150 90h-4c-119 0 -197 -39 -197 -174c0 -49 23 -77 87 -77z" />
    <glyph glyph-name="nine.fitted" unicode="&#xe09f;" horiz-adv-x="654" 
d="M532 302c-50 -14 -129 -23 -170 -23c-136 0 -223 32 -223 179c0 141 81 297 290 297c123 0 229 -43 229 -214c0 -29 -3 -62 -10 -99l-34 -193c-32 -182 -113 -263 -324 -263c-87 0 -171 16 -198 22l25 141h70l-3 -80c35 -2 78 -4 118 -4c172 0 203 81 224 202zM544 372
l17 93c5 30 8 56 8 79c0 106 -56 132 -143 132c-139 0 -196 -93 -196 -219c0 -91 54 -104 151 -104c31 0 98 4 163 19z" />
    <glyph glyph-name="zero.taboldstyle" unicode="&#xe100;" horiz-adv-x="654" 
d="M639 246c-31 -177 -143 -259 -303 -259c-146 0 -219 81 -219 214c0 24 2 49 7 76l8 44c29 166 139 255 302 255c143 0 220 -69 220 -206c0 -25 -2 -51 -7 -80zM550 260l8 44c4 24 7 46 7 65c0 94 -52 128 -142 128c-105 0 -176 -48 -202 -193l-8 -44
c-4 -24 -6 -45 -6 -64c0 -96 51 -130 140 -130c107 0 178 49 203 194z" />
    <glyph glyph-name="one.taboldstyle" unicode="&#xe101;" horiz-adv-x="654" 
d="M540 0h-404l13 76l160 5l69 391l-171 -58l16 86l196 70h68l-86 -489l152 -5z" />
    <glyph glyph-name="two.taboldstyle" unicode="&#xe102;" horiz-adv-x="654" 
d="M558 0h-473l14 82l199 114c130 74 246 123 246 226c0 57 -39 75 -148 75c-38 0 -90 -2 -126 -4l-25 -80h-71l25 141c74 15 144 22 213 22c170 0 234 -48 234 -140c0 -148 -150 -216 -293 -299l-94 -55h313z" />
    <glyph glyph-name="three.taboldstyle" unicode="&#xe103;" horiz-adv-x="654" 
d="M137 -109c35 -3 76 -5 119 -5c147 0 203 63 203 188c0 62 -22 93 -109 93h-214l13 77h214c108 0 154 63 154 156c0 77 -37 97 -153 97c-38 0 -83 -2 -118 -4l-25 -80h-70l25 141c13 3 121 22 204 22c163 0 230 -37 230 -169c0 -69 -26 -151 -127 -201
c49 -26 67 -68 67 -132c0 -172 -97 -267 -306 -267c-83 0 -172 19 -198 26l25 143h70z" />
    <glyph glyph-name="four.taboldstyle" unicode="&#xe104;" horiz-adv-x="654" 
d="M614 17h-113l-20 -117l53 -5l-13 -74h-200l13 74l55 5l20 117h-351l17 95l419 452h104l-82 -467h113zM425 97l60 343l-321 -343h261z" />
    <glyph glyph-name="five.taboldstyle" unicode="&#xe105;" horiz-adv-x="654" 
d="M83 -24h70l-4 -84c38 -3 77 -6 121 -6c168 0 215 76 215 199c0 81 -39 106 -161 106h-189l99 373h402l-27 -151h-71l2 69h-243l-56 -212h100c172 0 238 -50 238 -185c0 -172 -104 -278 -321 -278c-93 0 -179 19 -201 24z" />
    <glyph glyph-name="six.taboldstyle" unicode="&#xe106;" horiz-adv-x="654" 
d="M238 439c50 14 129 23 170 23c136 0 223 -32 223 -179c0 -141 -81 -297 -290 -297c-123 0 -229 43 -229 214c0 29 3 62 10 99l34 193c32 182 113 263 324 263c87 0 171 -16 198 -22l-25 -141h-70l3 80c-35 2 -78 4 -118 4c-172 0 -203 -81 -224 -202zM226 369l-17 -93
c-5 -30 -8 -56 -8 -79c0 -106 56 -132 143 -132c139 0 196 93 196 219c0 91 -54 104 -151 104c-31 0 -98 -4 -163 -19z" />
    <glyph glyph-name="seven.taboldstyle" unicode="&#xe107;" horiz-adv-x="654" 
d="M656 466l-438 -645h-103l457 661h-315l-22 -69h-70l27 151h481z" />
    <glyph glyph-name="eight.taboldstyle" unicode="&#xe108;" horiz-adv-x="654" 
d="M160 508c0 196 128 247 298 247h4c123 0 234 -36 234 -167c0 -81 -35 -156 -114 -202c37 -26 61 -65 61 -128c0 -158 -65 -272 -306 -272h-4c-119 0 -236 25 -236 195c0 72 29 156 113 209c-31 24 -50 65 -50 118zM548 258c0 64 -25 89 -89 89h-134
c-103 -2 -135 -86 -135 -166c0 -105 58 -116 150 -116h4c135 0 204 42 204 193zM338 425h134c92 0 130 74 130 161c0 78 -64 90 -150 90h-4c-119 0 -197 -39 -197 -174c0 -49 23 -77 87 -77z" />
    <glyph glyph-name="nine.taboldstyle" unicode="&#xe109;" horiz-adv-x="654" 
d="M508 123c-50 -14 -129 -23 -170 -23c-136 0 -223 32 -223 179c0 141 81 297 290 297c123 0 229 -43 229 -214c0 -29 -3 -62 -10 -99l-34 -193c-32 -182 -113 -263 -324 -263c-87 0 -171 16 -198 22l25 141h70l-3 -80c35 -2 78 -4 118 -4c172 0 203 81 224 202zM520 193
l17 93c5 30 8 56 8 79c0 106 -56 132 -143 132c-139 0 -196 -93 -196 -219c0 -91 54 -104 151 -104c31 0 98 4 163 19z" />
    <glyph glyph-name="zero.denominator" unicode="&#xe10a;" horiz-adv-x="456" 
d="M435 178c-22 -122 -81 -188 -208 -188c-110 0 -151 63 -151 152c0 21 2 44 6 67l10 57c20 117 81 189 209 189c114 0 151 -62 151 -148c0 -23 -3 -47 -7 -72zM356 194l10 57c4 22 6 40 6 56c0 61 -27 82 -79 82c-66 0 -104 -39 -121 -138l-10 -57c-4 -23 -6 -42 -6 -58
c0 -59 26 -80 78 -80c65 0 103 34 122 138z" />
    <glyph glyph-name="one.denominator" unicode="&#xe10b;" horiz-adv-x="429" 
d="M364 0h-290l11 59l104 3l55 310l-110 -33l12 67l135 43h59l-69 -387l104 -3z" />
    <glyph glyph-name="two.denominator" unicode="&#xe10c;" horiz-adv-x="451" 
d="M378 0h-316l9 56c17 104 63 145 181 196c65 28 111 47 111 94c0 36 -27 47 -92 47c-19 0 -48 -1 -74 -3l-14 -45h-55l17 94c18 4 91 16 146 16c105 0 153 -36 153 -101c0 -84 -64 -115 -152 -155c-106 -48 -126 -66 -137 -130l-1 -5h174l13 43h55z" />
    <glyph glyph-name="three.denominator" unicode="&#xe10d;" horiz-adv-x="450" 
d="M133 54c23 -1 50 -3 77 -3c72 0 115 25 115 106c0 25 -13 42 -68 42h-136l10 60h137c55 0 91 30 91 89c0 32 -24 44 -90 44c-24 0 -52 -1 -75 -3l-14 -45h-55l17 94c15 4 87 16 144 16c102 0 155 -31 155 -100c0 -53 -26 -100 -77 -125c30 -16 41 -46 41 -77
c0 -121 -82 -163 -201 -163c-56 0 -118 12 -140 19l17 95h55z" />
    <glyph glyph-name="four.denominator" unicode="&#xe10e;" 
d="M437 110h-70l-10 -56l32 -3l-9 -51h-148l9 51l34 3l10 56h-225l11 66l277 270h78l-48 -275h70zM299 171l31 181l-184 -181h153z" />
    <glyph glyph-name="five.denominator" unicode="&#xe10f;" horiz-adv-x="449" 
d="M130 55c23 -2 47 -3 73 -3c76 0 125 24 125 112c0 35 -24 47 -96 47h-128l63 235h278l-18 -102h-54l2 39h-152l-30 -111h60c114 0 159 -31 159 -100c0 -129 -80 -182 -210 -182c-65 0 -123 12 -141 16l18 98h54z" />
    <glyph glyph-name="six.denominator" unicode="&#xe110;" horiz-adv-x="452" 
d="M420 126c-21 -120 -121 -136 -193 -136c-90 0 -151 33 -151 138c0 19 2 41 6 65l17 98c21 116 72 163 214 163c61 0 121 -10 141 -15l-17 -95h-54l2 46c-22 2 -50 3 -76 3c-99 0 -118 -43 -130 -111l-3 -15c31 8 78 13 106 13c85 0 145 -20 145 -100c0 -11 -1 -22 -7 -54
zM341 136c4 25 5 33 5 39c0 43 -31 50 -80 50c-23 0 -61 -2 -99 -11l-8 -45c-3 -19 -5 -35 -5 -48c0 -58 29 -71 83 -71c55 0 93 23 104 86z" />
    <glyph glyph-name="seven.denominator" unicode="&#xe111;" horiz-adv-x="452" 
d="M452 373l-272 -373h-90l284 383h-183l-12 -40h-55l18 103h323z" />
    <glyph glyph-name="eight.denominator" unicode="&#xe112;" horiz-adv-x="456" 
d="M426 121c-21 -119 -113 -131 -203 -131h-2c-80 0 -159 16 -159 111c0 12 1 25 4 39l1 5c8 47 30 70 67 90c-22 16 -34 42 -34 74c0 9 1 18 3 28l1 6c18 99 109 111 198 111h2c81 0 159 -19 159 -102c0 -9 -1 -18 -3 -28l-1 -6c-8 -45 -32 -75 -66 -95
c23 -16 36 -38 36 -71c0 -8 0 -17 -2 -26zM346 129l1 4c2 9 2 18 2 25c0 30 -13 44 -50 44h-80c-46 0 -64 -22 -72 -69l-1 -4c-2 -9 -2 -18 -2 -25c0 -49 36 -55 87 -55h2c58 0 100 8 113 80zM378 323l1 6c1 6 2 12 2 17c0 42 -37 49 -87 49h-2c-56 0 -100 -9 -110 -66
l-1 -6c-1 -8 -2 -15 -2 -21c0 -27 13 -43 50 -43h80c46 0 62 25 69 64z" />
    <glyph glyph-name="nine.denominator" unicode="&#xe113;" horiz-adv-x="452" 
d="M88 318c21 120 121 136 193 136c90 0 151 -33 151 -138c0 -19 -2 -41 -6 -65l-17 -98c-21 -116 -72 -163 -214 -163c-61 0 -121 10 -141 15l17 95h54l-2 -46c22 -2 50 -3 76 -3c99 0 118 43 130 111l3 15c-31 -8 -78 -13 -106 -13c-85 0 -145 20 -145 100c0 11 1 22 7 54
zM167 308c-4 -25 -5 -33 -5 -39c0 -43 31 -50 80 -50c23 0 61 2 99 11l8 45c3 19 5 35 5 48c0 58 -29 71 -83 71c-55 0 -93 -23 -104 -86z" />
    <glyph glyph-name="parenleft.denominator" unicode="&#xe117;" horiz-adv-x="281" 
d="M220 -78h-79c-22 34 -48 106 -48 209c0 112 48 228 142 321h79c-85 -94 -141 -209 -141 -320c0 -95 20 -160 47 -210z" />
    <glyph glyph-name="parenright.denominator" unicode="&#xe118;" horiz-adv-x="281" 
d="M129 452h79c22 -34 47 -106 47 -195c0 -126 -50 -242 -141 -335h-79c85 94 141 219 141 336c0 87 -20 144 -47 194z" />
    <glyph glyph-name="cent.denominator" unicode="&#xe119;" horiz-adv-x="384" 
d="M338 0c-18 -4 -54 -9 -87 -10l-13 -74h-69l14 77c-64 12 -103 63 -103 151c0 20 2 42 6 65l9 53c21 116 74 172 168 187l13 72h69l-12 -68c33 -1 67 -7 83 -11l-17 -98h-61v39c-10 1 -17 1 -37 1c-79 0 -112 -45 -129 -137l-9 -53c-4 -21 -6 -41 -6 -57
c0 -54 23 -79 91 -79c40 0 78 3 101 5z" />
    <glyph glyph-name="comma.denominator" unicode="&#xe11a;" horiz-adv-x="251" 
d="M207 89l-97 -142h-67l79 142h85z" />
    <glyph glyph-name="dollar.denominator" unicode="&#xe11b;" horiz-adv-x="416" 
d="M171 -8c-46 1 -89 9 -110 14l19 108h65l-2 -52c19 -1 32 -2 64 -2c54 0 99 13 99 64c0 33 -16 42 -63 63l-44 19c-62 26 -94 61 -94 118c0 87 73 120 147 128l13 75h73l-12 -73c47 -2 91 -9 105 -13l-17 -101h-64v45c-21 2 -36 3 -64 3c-36 0 -97 -8 -97 -58
c0 -23 12 -38 58 -57l47 -20c67 -28 98 -56 98 -119c0 -77 -54 -128 -147 -139l-14 -78h-73z" />
    <glyph glyph-name="hyphen.denominator" unicode="&#xe11c;" horiz-adv-x="260" 
d="M232 169h-147l11 61h147z" />
    <glyph glyph-name="period.denominator" unicode="&#xe11d;" horiz-adv-x="201" 
d="M140 0h-79l15 89h79z" />
    <glyph glyph-name="zero.numerator" unicode="&#xe11e;" horiz-adv-x="456" 
d="M491 478c-22 -122 -81 -188 -208 -188c-110 0 -151 63 -151 152c0 21 2 44 6 67l10 57c20 117 81 189 209 189c114 0 151 -62 151 -148c0 -23 -3 -47 -7 -72zM412 494l10 57c4 22 6 40 6 56c0 61 -27 82 -79 82c-66 0 -104 -39 -121 -138l-10 -57c-4 -23 -6 -42 -6 -58
c0 -59 26 -80 78 -80c65 0 103 34 122 138z" />
    <glyph glyph-name="one.numerator" unicode="&#xe11f;" horiz-adv-x="429" 
d="M417 300h-290l11 59l104 3l55 310l-110 -33l12 67l135 43h59l-69 -387l104 -3z" />
    <glyph glyph-name="two.numerator" unicode="&#xe120;" horiz-adv-x="451" 
d="M431 301h-316l9 56c17 104 63 145 181 196c65 28 111 47 111 94c0 36 -27 47 -92 47c-19 0 -48 -1 -74 -3l-14 -45h-55l17 94c18 4 91 16 146 16c105 0 153 -36 153 -101c0 -84 -64 -115 -152 -155c-106 -48 -126 -66 -137 -130l-1 -5h174l13 43h55z" />
    <glyph glyph-name="three.numerator" unicode="&#xe121;" horiz-adv-x="450" 
d="M186 356c23 -1 50 -3 77 -3c72 0 115 25 115 106c0 25 -13 42 -68 42h-136l10 60h137c55 0 91 30 91 89c0 32 -24 44 -90 44c-24 0 -52 -1 -75 -3l-14 -45h-55l17 94c15 4 87 16 144 16c102 0 155 -31 155 -100c0 -53 -26 -100 -77 -125c30 -16 41 -46 41 -77
c0 -121 -82 -163 -201 -163c-56 0 -118 12 -140 19l17 95h55z" />
    </font>
</defs>
</svg>
