<?xml version="1.0" standalone="no"?>
<!DOCTYPE svg PUBLIC "-//W3C//DTD SVG 1.1//EN" "http://www.w3.org/Graphics/SVG/1.1/DTD/svg11.dtd" >
<svg xmlns="http://www.w3.org/2000/svg" xmlns:xlink="http://www.w3.org/1999/xlink" version="1.1">
<metadata>
Created by FontForge 20141024 at Thu Apr 30 19:16:40 2015
 By System Administrator
Copyright (c) 2007 Monotype Imaging Inc. Soho is designed by Sebastian Lester. All rights reserved.
</metadata>
<defs>
<font id="SohoPro-HeavyCompressed" horiz-adv-x="487" >
  <font-face 
    font-family="Soho Pro"
    font-weight="900"
    font-stretch="normal"
    units-per-em="1000"
    panose-1="2 4 9 8 6 5 6 2 2 4"
    ascent="775"
    descent="-225"
    x-height="577"
    cap-height="743"
    bbox="-50 -218 1120 1012"
    underline-thickness="110"
    underline-position="5"
    stemh="133"
    stemv="164"
    unicode-range="U+000D-FB16"
  />
<missing-glyph horiz-adv-x="162" 
 />
    <glyph glyph-name="f_i" unicode="fi" horiz-adv-x="564" 
d="M540 0h-224v124l30 6v318h-104v-318l30 -6v-124h-225v124l30 6v318l-54 10v119h54v46c0 122 37 167 129 167c39 0 76 -7 103 -16v-112c-20 1 -28 2 -35 2c-31 0 -32 -5 -32 -41v-46h269v-447l29 -6v-124zM513 651h-171v124h171v-124z" />
    <glyph glyph-name="f_l" unicode="fl" horiz-adv-x="569" 
d="M544 0h-224v124l29 6v532c-24 2 -48 2 -72 2c-30 0 -35 -5 -35 -41v-46h67v-129h-67v-318l30 -6v-124h-224v124l30 6v318l-55 10v119h55v46c0 137 44 167 136 167c51 0 104 -8 135 -15h165v-645l30 -6v-124z" />
    <glyph glyph-name="f_f" unicode="ff" horiz-adv-x="605" 
d="M581 448h-66v-318l30 -6v-124h-225v124l30 6v318h-108v-318l30 -6v-124h-224v124l30 6v318l-55 10v119h55v46c0 122 36 167 129 167c39 0 75 -7 103 -16v-112c-21 1 -29 2 -35 2c-31 0 -33 -5 -33 -41v-46h108v46c0 122 37 167 129 167c39 0 76 -7 103 -16v-112
c-20 1 -28 2 -35 2c-31 0 -32 -5 -32 -41v-46h66v-129z" />
    <glyph glyph-name="f_f_i" unicode="ffi" horiz-adv-x="833" 
d="M808 0h-225v124l31 6v318h-104v-318l30 -6v-124h-225v124l30 6v318h-103v-318l30 -6v-124h-224v124l30 6v318l-55 10v119h55v46c0 122 36 167 129 167c39 0 75 -7 103 -16v-112c-21 1 -29 2 -35 2c-31 0 -33 -5 -33 -41v-46h103v46c0 122 37 167 130 167
c38 0 75 -7 103 -16v-112c-21 1 -29 2 -35 2c-32 0 -33 -5 -33 -41v-46h268v-447l30 -6v-124zM781 651h-171v124h171v-124z" />
    <glyph glyph-name="f_f_l" unicode="ffl" horiz-adv-x="835" 
d="M811 0h-224v124l30 6v532c-24 2 -48 2 -73 2c-30 0 -34 -5 -34 -41v-46h66v-129h-66v-318l30 -6v-124h-225v124l30 6v318h-103v-318l30 -6v-124h-224v124l30 6v318l-55 10v119h55v46c0 122 36 167 129 167c39 0 75 -7 103 -16v-112c-21 1 -29 2 -35 2
c-31 0 -33 -5 -33 -41v-46h103v46c0 137 45 167 137 167c51 0 104 -8 135 -15h164v-645l30 -6v-124z" />
    <glyph glyph-name="f_b" unicode="fb" horiz-adv-x="756" 
d="M510 775v-194c15 4 36 6 48 6c138 0 172 -91 172 -246v-90c0 -183 -43 -260 -221 -260c-36 0 -84 3 -164 11v660c-22 1 -36 2 -62 2c-28 0 -41 -5 -41 -41v-46h67v-129h-67v-318l30 -6v-124h-224v124l30 6v318l-55 10v119h55v46c0 136 49 167 146 167c37 0 83 -6 121 -15
h165zM565 251v90c0 90 -4 101 -40 101c-7 0 -14 -1 -22 -5v-301c8 -1 12 -1 16 -1c40 0 46 8 46 116z" />
    <glyph glyph-name="f_f_b" unicode="ffb" horiz-adv-x="1023" 
d="M997 251c0 -183 -43 -260 -221 -260c-35 0 -84 3 -163 11v660c-22 1 -36 2 -62 2c-28 0 -41 -5 -41 -41v-46h67v-129h-67v-318l30 -6v-124h-224v124l30 6v318h-104v-318l30 -6v-124h-224v124l30 6v318l-55 10v119h55v46c0 122 36 167 129 167c39 0 75 -7 103 -16v-112
c-21 1 -29 2 -35 2c-31 0 -33 -5 -33 -41v-46h104v46c0 136 49 167 146 167c37 0 82 -7 121 -15h165v-195c11 4 24 7 37 7c148 0 182 -91 182 -246v-90zM832 251v90c0 90 -4 101 -40 101c-7 0 -13 -1 -21 -5v-302h16c39 0 45 8 45 116z" />
    <glyph glyph-name="f_f_h" unicode="ffh" horiz-adv-x="1056" 
d="M1032 0h-196v398c0 32 -1 41 -20 41c-11 0 -22 -5 -35 -14v-295l30 -6v-124h-225v124l30 6v532c-24 2 -37 2 -62 2c-30 0 -43 -5 -43 -41v-46h66v-129h-66v-318l30 -6v-124h-225v124l30 6v318h-104v-318l30 -6v-124h-224v124l30 6v318l-55 10v119h55v46
c0 122 36 167 129 167c39 0 75 -7 103 -16v-112c-21 1 -29 2 -35 2c-31 0 -33 -5 -33 -41v-46h104v46c0 137 51 167 149 167c37 0 82 -7 121 -15h165v-219c30 21 69 31 97 31c116 0 124 -87 124 -188v-269l30 -6v-124z" />
    <glyph glyph-name="f_f_j" unicode="ffj" horiz-adv-x="811" 
d="M782 -35c0 -129 -51 -174 -151 -174c-38 0 -71 6 -95 14v124c16 -1 31 -1 47 -1c27 0 34 5 34 37v483h-107v-318l30 -6v-124h-224v124l30 6v318h-104v-318l30 -6v-124h-224v124l30 6v318l-55 10v119h55v46c0 122 36 167 129 167c39 0 75 -7 103 -16v-112
c-21 1 -29 2 -35 2c-31 0 -33 -5 -33 -41v-46h104v46c0 122 36 167 129 167c39 0 75 -7 103 -16v-112c-21 1 -29 2 -35 2c-31 0 -33 -5 -33 -41v-46h272v-612zM784 651h-171v124h171v-124z" />
    <glyph glyph-name="f_f_k" unicode="ffk" horiz-adv-x="1045" 
d="M1020 0h-191l-53 244v-244h-193v124l30 6v532c-24 2 -35 2 -60 2c-30 0 -43 -5 -43 -41v-46h66v-129h-66v-318l30 -6v-124h-225v124l30 6v318h-103v-318l30 -6v-124h-224v124l30 6v318l-55 10v119h55v46c0 122 36 167 129 167c39 0 75 -7 103 -16v-112c-21 1 -29 2 -35 2
c-31 0 -33 -5 -33 -41v-46h103v46c0 137 51 167 149 167c37 0 81 -7 119 -15h163v-434l53 236h188v-124l-47 -9l-48 -148l53 -163l45 -9v-124z" />
    <glyph glyph-name="f_h" unicode="fh" horiz-adv-x="786" 
d="M761 0h-195v398c0 32 -1 41 -20 41c-11 0 -22 -5 -35 -14v-295l30 -6v-124h-225v124l29 6v532c-23 2 -35 2 -60 2c-30 0 -43 -5 -43 -41v-46h67v-129h-67v-318l30 -6v-124h-224v124l30 6v318l-55 10v119h55v46c0 137 50 167 149 167c36 0 80 -7 118 -15h166v-219
c29 21 69 31 97 31c116 0 123 -87 123 -188v-269l30 -6v-124z" />
    <glyph glyph-name="f_j" unicode="fj" horiz-adv-x="543" 
d="M514 -35c0 -129 -51 -174 -151 -174c-38 0 -71 6 -95 14v124c16 -1 31 -1 47 -1c27 0 34 5 34 37v483h-107v-318l30 -6v-124h-224v124l30 6v318l-55 10v119h55v46c0 122 36 167 129 167c39 0 75 -7 103 -16v-112c-21 1 -29 2 -35 2c-31 0 -33 -5 -33 -41v-46h272v-612z
M516 651h-171v124h171v-124z" />
    <glyph glyph-name="f_k" unicode="fk" horiz-adv-x="778" 
d="M753 0h-192l-52 244v-244h-194v124l30 6v532c-23 2 -35 2 -60 2c-30 0 -43 -5 -43 -41v-46h67v-129h-67v-318l30 -6v-124h-224v124l30 6v318l-55 10v119h55v46c0 137 50 167 149 167c36 0 80 -7 118 -15h164v-434l52 236h189v-124l-46 -9l-50 -148l54 -163l45 -9v-124z
" />
    <glyph glyph-name=".notdef" horiz-adv-x="162" 
 />
    <glyph glyph-name="CR" unicode="&#xd;" horiz-adv-x="162" 
 />
    <glyph glyph-name="space" unicode=" " horiz-adv-x="162" 
 />
    <glyph glyph-name="numbersign" unicode="#" horiz-adv-x="480" 
d="M453 180h-71l-10 -180h-122l10 180h-63l-9 -180h-122l10 180h-49v109h54l8 160h-62v110h69l10 184h122l-10 -184h62l10 184h122l-10 -184h51v-110h-58l-7 -160h65v-109zM274 449h-62l-9 -160h62z" />
    <glyph glyph-name="dollar" unicode="$" horiz-adv-x="439" 
d="M413 206c0 -105 -45 -181 -129 -207v-123h-146v116c-45 5 -80 14 -101 23v167h110l9 -41h19c41 0 58 25 58 62c0 35 -13 54 -41 82l-83 82c-62 62 -83 114 -83 194c0 87 29 154 112 182v115h146v-104c52 -5 97 -17 122 -25v-165h-110l-7 37c-9 1 -18 1 -25 1
c-38 0 -58 -14 -58 -52c0 -24 6 -42 30 -66l64 -64c69 -67 113 -119 113 -214z" />
    <glyph glyph-name="percent" unicode="%" horiz-adv-x="825" 
d="M798 203c0 -108 -11 -212 -141 -212c-131 0 -142 104 -142 212v41c0 107 11 210 142 210c130 0 141 -103 141 -210v-41zM680 203v41c0 93 -3 110 -23 110c-22 0 -24 -17 -24 -110v-41c0 -94 2 -111 24 -111c20 0 23 17 23 111zM612 743l-266 -743h-136l267 743h135z
M310 505c0 -108 -11 -212 -141 -212c-131 0 -142 104 -142 212v41c0 107 11 210 142 210c130 0 141 -103 141 -210v-41zM192 505v41c0 93 -2 110 -23 110c-22 0 -24 -17 -24 -110v-41c0 -94 2 -111 24 -111c21 0 23 17 23 111z" />
    <glyph glyph-name="ampersand" unicode="&#x26;" horiz-adv-x="550" 
d="M527 366l-30 -5c0 -104 -17 -184 -52 -240l54 -94v-27h-151l-11 20c-35 -18 -75 -33 -125 -33c-94 0 -185 42 -185 185v5c0 77 34 139 105 201l-8 13c-48 77 -70 127 -70 187v6c0 115 66 172 198 172c79 0 155 -16 188 -27v-150h-110l-8 38h-63c-36 0 -50 -13 -50 -41v-4
c0 -30 11 -55 28 -85l139 -249c7 34 8 81 9 123l-30 6v96h172v-97zM278 120l-66 125c-11 -16 -20 -38 -20 -68v-5c0 -46 20 -61 50 -61c14 0 25 3 36 9z" />
    <glyph glyph-name="quoteright" unicode="&#x2019;" horiz-adv-x="214" 
d="M204 775l-73 -259h-121l39 259h155z" />
    <glyph glyph-name="parenleft" unicode="(" horiz-adv-x="289" 
d="M266 -194h-151c-54 124 -88 272 -88 462v12c0 190 34 339 88 463h151c-38 -109 -74 -273 -74 -463v-12c0 -189 36 -353 74 -462z" />
    <glyph glyph-name="parenright" unicode=")" horiz-adv-x="289" 
d="M262 268c0 -190 -35 -338 -89 -462h-150c37 109 73 273 73 462v12c0 190 -36 354 -73 463h150c54 -124 89 -273 89 -463v-12z" />
    <glyph glyph-name="asterisk" unicode="*" horiz-adv-x="463" 
d="M438 582l-42 -13c-19 -6 -42 -10 -66 -12c18 -14 35 -31 47 -47l25 -33l-113 -79l-25 33c-14 16 -24 36 -33 58c-9 -23 -20 -42 -32 -58l-25 -33l-114 79l26 34c11 15 27 32 47 46c-25 2 -48 6 -67 13l-41 13l45 127l39 -13c20 -6 41 -16 61 -29c-5 23 -8 45 -8 65v42
h140v-42c0 -20 -4 -42 -11 -65c21 13 42 22 62 29l41 13z" />
    <glyph glyph-name="plus" unicode="+" horiz-adv-x="445" 
d="M422 326h-130v-133h-137v133h-132v131h132v134h137v-134h130v-131z" />
    <glyph glyph-name="comma" unicode="," horiz-adv-x="253" 
d="M229 167l-75 -267h-132l45 267h162z" />
    <glyph glyph-name="hyphen" unicode="-" horiz-adv-x="230" 
d="M207 233h-184v124h184v-124z" />
    <glyph glyph-name="period" unicode="." horiz-adv-x="213" 
d="M187 0h-161v167h161v-167z" />
    <glyph glyph-name="slash" unicode="/" horiz-adv-x="344" 
d="M324 743l-140 -743h-164l139 743h165z" />
    <glyph glyph-name="zero" unicode="0" horiz-adv-x="479" 
d="M448 326c0 -165 -2 -339 -208 -339c-207 0 -209 174 -209 339v91c0 165 2 339 209 339c206 0 208 -174 208 -339v-91zM275 327v90c0 154 0 183 -35 183c-36 0 -37 -29 -37 -183v-90c0 -154 1 -183 37 -183c35 0 35 29 35 183z" />
    <glyph glyph-name="one" unicode="1" horiz-adv-x="424" 
d="M399 0h-373v124l101 7v440l-101 -32v141l142 63h130v-612l101 -7v-124z" />
    <glyph glyph-name="two" unicode="2" horiz-adv-x="428" 
d="M380 0h-349v94c0 184 23 231 122 340c59 64 71 83 71 122c0 43 -17 55 -67 55c-3 0 -6 0 -10 -1l-9 -47h-102v169c47 16 112 24 155 24c135 0 207 -54 207 -186c0 -78 -26 -132 -118 -229c-79 -82 -82 -98 -82 -185v-9h72l8 35h102v-182z" />
    <glyph glyph-name="three" unicode="3" horiz-adv-x="421" 
d="M390 201c0 -149 -59 -214 -214 -214c-52 0 -111 12 -146 24v171h102l10 -49h11c41 0 63 3 63 81v17c0 60 -17 80 -63 80h-107v132h107c46 0 63 14 63 74v13c0 78 -22 81 -64 81c-4 0 -8 0 -10 -1l-10 -46h-102v169c35 12 94 23 146 23c155 0 214 -65 214 -213v-13
c0 -82 -26 -122 -68 -153c42 -31 68 -77 68 -160v-16z" />
    <glyph glyph-name="four" unicode="4" horiz-adv-x="452" 
d="M428 160h-51v-54l30 -6v-100h-233v100l30 6v54h-181v135l210 449h144v-445h51v-139zM214 299v182l-73 -182h73z" />
    <glyph glyph-name="five" unicode="5" horiz-adv-x="422" 
d="M391 224c0 -188 -99 -237 -214 -237c-69 0 -126 18 -145 24v171h102l9 -49h13c47 0 60 15 60 91v19c0 65 -6 82 -66 82h-117l21 418h325v-179h-102l-7 32h-72l-6 -133h10c159 0 189 -94 189 -220v-19z" />
    <glyph glyph-name="six" unicode="6" horiz-adv-x="469" 
d="M438 226c0 -177 -91 -239 -211 -239c-121 0 -196 62 -196 239v272c0 198 65 258 212 258c60 0 138 -14 171 -23v-169h-102l-9 47c-11 0 -22 1 -32 1c-69 0 -69 -23 -69 -114v-28c9 1 25 3 51 3c120 0 185 -48 185 -208v-39zM264 226v38c0 69 -1 89 -36 89
c-7 0 -18 0 -26 -3v-124c0 -74 0 -103 30 -103c31 0 32 29 32 103z" />
    <glyph glyph-name="seven" unicode="7" horiz-adv-x="433" 
d="M408 584l-196 -584h-173l207 596h-112l-7 -32h-102v179h383v-159z" />
    <glyph glyph-name="eight" unicode="8" horiz-adv-x="474" 
d="M443 207c0 -216 -140 -220 -204 -220h-5c-64 0 -203 4 -203 220v8c0 86 21 130 63 171c-40 36 -61 85 -61 152v11c0 187 110 207 201 207h5c92 0 202 -20 202 -207v-11c0 -67 -21 -116 -61 -152c42 -41 63 -85 63 -171v-8zM270 207v8c0 87 -5 107 -31 107h-5
c-26 0 -30 -20 -30 -107v-8c0 -65 4 -86 30 -86h5c26 0 31 21 31 86zM270 538v8c0 52 -4 76 -31 76h-5c-27 0 -30 -24 -30 -76v-8c0 -62 3 -93 30 -93h5c27 0 31 31 31 93z" />
    <glyph glyph-name="nine" unicode="9" horiz-adv-x="469" 
d="M438 246c0 -198 -66 -258 -213 -258c-59 0 -137 14 -171 23v170h102l10 -48c10 0 21 -1 32 -1c69 0 69 23 69 114v28c-9 -1 -26 -3 -52 -3c-120 0 -184 48 -184 208v39c0 177 91 239 210 239c121 0 197 -62 197 -239v-272zM267 394v124c0 74 -1 103 -30 103
c-32 0 -32 -29 -32 -103v-38c0 -69 1 -89 36 -89c7 0 17 0 26 3z" />
    <glyph glyph-name="colon" unicode=":" horiz-adv-x="232" 
d="M197 0h-162v167h162v-167zM197 572v-167h-162v167h162z" />
    <glyph glyph-name="semicolon" unicode=";" horiz-adv-x="266" 
d="M240 167l-87 -267h-132l45 267h174zM229 405h-162v167h162v-167z" />
    <glyph glyph-name="less" unicode="&#x3c;" horiz-adv-x="445" 
d="M390 138h-165l-170 254l170 254h165l-169 -254z" />
    <glyph glyph-name="equal" unicode="=" horiz-adv-x="445" 
d="M389 179h-334v132h334v-132zM389 457h-334v132h334v-132z" />
    <glyph glyph-name="greater" unicode="&#x3e;" horiz-adv-x="445" 
d="M390 392l-170 -254h-165l170 254l-170 254h165z" />
    <glyph glyph-name="question" unicode="?" horiz-adv-x="403" 
d="M270 0h-162v167h162v-167zM259 244h-140v21c0 76 1 115 29 181c27 63 41 105 41 135v6c0 25 -5 42 -38 42c-6 0 -10 0 -17 -1l-7 -34h-101v156c60 28 140 35 194 35c101 0 156 -45 156 -153v-8c0 -43 -7 -84 -38 -149c-47 -98 -79 -165 -79 -210v-21z" />
    <glyph glyph-name="at" unicode="@" horiz-adv-x="582" 
d="M556 386c0 -212 -89 -349 -256 -349c-125 0 -153 66 -155 159c0 26 1 56 2 81c9 152 50 218 166 218c43 0 94 -12 119 -24l-22 -319c43 44 68 125 68 234c0 122 -38 216 -161 216c-136 0 -194 -135 -210 -340c-3 -34 -4 -71 -4 -109c0 -127 43 -206 176 -206
c51 0 91 7 121 11v-62c-16 -5 -64 -18 -121 -18c-169 0 -253 92 -253 275c0 40 1 81 4 116c19 246 103 403 287 403c148 0 239 -105 239 -286zM316 400c-4 2 -7 2 -13 2c-23 0 -35 -28 -41 -131c-2 -28 -3 -50 -3 -75c1 -51 7 -69 30 -69h11z" />
    <glyph glyph-name="A" unicode="A" horiz-adv-x="526" 
d="M503 0h-191l-17 165h-65l-17 -165h-190v125l29 3l64 484l-31 7v124h306l82 -615l30 -3v-125zM288 311l-15 169c-4 38 -7 83 -10 119h-2c-2 -36 -5 -81 -9 -119l-16 -169h52z" />
    <glyph glyph-name="B" unicode="B" 
d="M461 219c0 -168 -70 -229 -229 -229c-76 0 -121 2 -207 10v125l30 3v485l-30 6v124c66 9 142 12 207 12c150 0 229 -53 229 -221v-10c0 -72 -23 -118 -55 -144c42 -33 55 -98 55 -145v-16zM292 219v20c0 64 -8 83 -41 83h-26v-183h23c37 0 44 20 44 80zM292 523v11
c0 55 -7 77 -44 77c-7 0 -12 0 -23 -1v-169h26c33 0 41 23 41 82z" />
    <glyph glyph-name="C" unicode="C" horiz-adv-x="423" 
d="M398 8c-32 -12 -115 -21 -156 -21c-135 0 -212 57 -212 331v108c0 274 77 330 212 330c41 0 124 -8 156 -20v-180h-108l-8 36h-12c-44 0 -66 -13 -66 -166v-108c0 -153 22 -167 68 -167c3 0 7 0 10 1l8 37h108v-181z" />
    <glyph glyph-name="D" unicode="D" horiz-adv-x="504" 
d="M473 336c0 -256 -51 -347 -257 -347c-61 0 -127 4 -191 11v124l30 6v483l-30 6v124c64 9 130 12 191 12c206 0 257 -91 257 -339v-80zM299 336v80c0 157 -1 180 -61 180h-11v-449h11c60 0 61 32 61 189z" />
    <glyph glyph-name="E" unicode="E" horiz-adv-x="413" 
d="M384 0h-359v124l24 4v486l-24 5v124h359v-187h-110l-6 28h-48v-134h150v-144h-150v-147h48l6 29h110v-188z" />
    <glyph glyph-name="F" unicode="F" horiz-adv-x="415" 
d="M377 306h-150v-176l30 -6v-124h-232v124l30 6v483l-30 6v124h366v-187h-110l-6 28h-48v-134h150v-144z" />
    <glyph glyph-name="G" unicode="G" horiz-adv-x="476" 
d="M447 4c-39 -7 -111 -17 -186 -17c-117 0 -231 27 -231 332v105c0 325 146 332 243 332c60 0 137 -17 165 -28v-172h-110l-8 35c-4 0 -9 1 -13 1c-83 0 -101 -19 -101 -168v-105c0 -143 7 -172 50 -172c5 0 14 0 23 1v124l-34 6v108h202v-382z" />
    <glyph glyph-name="H" unicode="H" horiz-adv-x="538" 
d="M513 0h-202v301h-84v-301h-202v125l30 3v487l-30 3v125h202v-282h84v282h202v-125l-30 -3v-487l30 -3v-125z" />
    <glyph glyph-name="I" unicode="I" horiz-adv-x="282" 
d="M257 0h-232v125l30 3v487l-30 3v125h232v-125l-30 -3v-487l30 -3v-125z" />
    <glyph glyph-name="J" unicode="J" horiz-adv-x="282" 
d="M257 618l-30 -3v-653c0 -134 -63 -170 -146 -170c-17 0 -52 4 -84 14v127h34c18 0 24 5 24 29v653l-30 3v125h232v-125z" />
    <glyph glyph-name="K" unicode="K" horiz-adv-x="513" 
d="M489 0h-198l-70 326v-326h-196v125l24 3v487l-24 3v125h196v-328l78 328h190v-125l-38 -3l-74 -239l75 -248l37 -3v-125z" />
    <glyph glyph-name="L" unicode="L" horiz-adv-x="397" 
d="M373 0h-348v125l24 3v487l-24 3v125h226v-125l-30 -3v-456h35l7 33h110v-192z" />
    <glyph glyph-name="M" unicode="M" horiz-adv-x="602" 
d="M239 0h-214v125l24 3v487l-24 4v124h190l55 -189c8 -28 20 -68 26 -98h2c8 30 20 70 28 98l54 189h197v-125l-30 -3v-487l30 -3v-125h-220v125l24 3v176c0 35 1 73 5 112h-2c-8 -32 -15 -64 -23 -96l-18 -76h-91l-19 76c-9 34 -15 68 -22 96h-2c4 -39 6 -77 6 -112v-176
l24 -3v-125z" />
    <glyph glyph-name="N" unicode="N" horiz-adv-x="532" 
d="M507 618l-30 -3v-615h-173l-76 274c-7 25 -19 66 -26 97h-2c3 -33 6 -79 6 -111v-260h-181v125l24 3v487l-24 3v125h194l74 -260c13 -42 23 -76 31 -109h2c-3 27 -5 93 -5 128v241h186v-125z" />
    <glyph glyph-name="O" unicode="O" horiz-adv-x="494" 
d="M464 322c0 -271 -85 -335 -217 -335c-131 0 -217 64 -217 335v99c0 278 91 335 217 335s217 -57 217 -335v-99zM288 324v95c0 141 0 174 -41 174c-40 0 -41 -33 -41 -174v-95c0 -141 1 -173 41 -173c41 0 41 32 41 173z" />
    <glyph glyph-name="P" unicode="P" 
d="M261 0h-236v125l30 3v487l-30 3v125c70 7 127 9 206 9c123 0 231 -38 231 -246v-10c0 -202 -108 -248 -211 -248h-24v-120l34 -3v-125zM291 496v10c0 67 -5 91 -48 91h-16v-194c7 -1 12 -1 19 -1c40 0 45 35 45 94z" />
    <glyph glyph-name="Q" unicode="Q" horiz-adv-x="494" 
d="M464 322c0 -210 -50 -300 -139 -325v-33c0 -28 3 -31 33 -31h41v-115c-27 -15 -65 -23 -104 -23c-105 0 -133 47 -133 154v50c-86 29 -132 121 -132 323v99c0 278 91 335 217 335s217 -57 217 -335v-99zM288 324v95c0 141 0 174 -41 174c-40 0 -41 -33 -41 -174v-95
c0 -141 1 -173 41 -173c41 0 41 32 41 173z" />
    <glyph glyph-name="R" unicode="R" horiz-adv-x="509" 
d="M486 0h-181l-61 260h-8h-11v-260h-200v125l30 3v487l-30 3v125c71 6 128 9 190 9c129 0 244 -39 244 -246v-9c0 -95 -25 -156 -66 -194l53 -173l40 -5v-125zM288 497v9c0 67 -4 91 -49 91h-14v-195h18c43 0 45 38 45 95z" />
    <glyph glyph-name="S" unicode="S" horiz-adv-x="432" 
d="M407 206c0 -117 -65 -219 -196 -219c-80 0 -142 15 -175 28v167h110l9 -41h17c41 0 54 22 54 62c0 35 -7 54 -55 102l-43 44c-77 80 -103 131 -103 212c0 108 52 195 198 195c82 0 150 -16 182 -27v-165h-110l-7 38h-25c-37 0 -58 -14 -58 -52c0 -25 6 -42 52 -88l30 -30
c80 -80 120 -131 120 -226z" />
    <glyph glyph-name="T" unicode="T" horiz-adv-x="491" 
d="M467 564h-110l-6 28h-20v-464l31 -3v-125h-233v125l31 3v464h-20l-6 -28h-110v179h443v-179z" />
    <glyph glyph-name="U" unicode="U" horiz-adv-x="532" 
d="M506 618l-30 -3v-364c0 -79 -1 -264 -210 -264s-210 185 -210 264v364l-31 3v125h203v-487c0 -84 0 -111 38 -111s38 27 38 111v487h202v-125z" />
    <glyph glyph-name="V" unicode="V" horiz-adv-x="538" 
d="M515 619l-34 -6l-79 -613h-266l-80 613l-33 6v124h196l37 -439c4 -48 9 -117 11 -162h2c2 45 9 114 13 162l36 439h197v-124z" />
    <glyph glyph-name="W" unicode="W" horiz-adv-x="679" 
d="M433 743h223v-124l-30 -6l-56 -613h-190l-28 223c-4 31 -9 80 -11 111h-2c-3 -31 -8 -80 -12 -111l-27 -223h-191l-55 613l-31 6v124h224v-125l-25 -3l11 -200c2 -36 4 -91 4 -124h2c4 41 8 82 13 123l12 104h152l11 -104c5 -44 11 -92 13 -123h2c0 35 3 89 5 124l10 200
l-24 3v125z" />
    <glyph glyph-name="X" unicode="X" horiz-adv-x="510" 
d="M487 0h-192l-49 178l-44 -178h-179v124l43 6l87 261l-79 221l-49 7v124h192l44 -167l38 167h183v-124l-46 -7l-84 -241l87 -240l48 -7v-124z" />
    <glyph glyph-name="Y" unicode="Y" horiz-adv-x="497" 
d="M474 619l-40 -7l-100 -335v-147l31 -6v-124h-232v124l30 6v147l-100 335l-40 7v124h181l28 -166c6 -34 12 -89 15 -121h2c4 32 10 87 16 121l29 166h180v-124z" />
    <glyph glyph-name="Z" unicode="Z" horiz-adv-x="412" 
d="M388 0h-364v153l168 442h-51l-10 -31h-105v179h358v-161l-167 -433h56l9 33h106v-182z" />
    <glyph glyph-name="bracketleft" unicode="[" horiz-adv-x="283" 
d="M260 -195h-233v938h233v-139h-68v-660h68v-139z" />
    <glyph glyph-name="backslash" unicode="\" horiz-adv-x="334" 
d="M315 0h-157l-138 743h155z" />
    <glyph glyph-name="bracketright" unicode="]" horiz-adv-x="283" 
d="M256 -195h-233v139h68v660h-68v139h233v-938z" />
    <glyph glyph-name="asciicircum" unicode="^" 
d="M459 430h-158l-58 218l-57 -218h-159l86 312h260z" />
    <glyph glyph-name="underscore" unicode="_" horiz-adv-x="460" 
d="M446 -160h-431v110h431v-110z" />
    <glyph glyph-name="quoteleft" unicode="&#x2018;" horiz-adv-x="214" 
d="M204 775l-38 -259h-156l73 259h121z" />
    <glyph glyph-name="a" unicode="a" horiz-adv-x="444" 
d="M419 0h-174v26c-21 -16 -61 -35 -102 -35c-114 0 -117 87 -117 158v37c0 137 85 151 188 151h10v42c0 57 -5 68 -43 68h-18l-7 -35h-107v139c16 9 96 36 173 36c115 0 167 -42 167 -208v-251l30 -3v-125zM235 118v132h-16c-31 0 -36 -9 -36 -64v-34c0 -31 5 -41 22 -41
c10 0 19 2 30 7z" />
    <glyph glyph-name="b" unicode="b" horiz-adv-x="447" 
d="M418 251c0 -183 -43 -260 -222 -260c-35 0 -83 3 -162 11v644l-30 4v125h194v-195c11 4 29 7 46 7c140 0 174 -91 174 -246v-90zM253 251v90c0 90 -4 101 -40 101c-8 0 -14 -1 -22 -5v-302h16c40 0 46 8 46 116z" />
    <glyph glyph-name="c" unicode="c" horiz-adv-x="385" 
d="M361 16c-33 -11 -89 -25 -142 -25c-138 0 -189 72 -189 253v90c0 180 51 253 189 253c66 0 124 -18 142 -26v-149h-108l-6 29h-5c-40 0 -47 -17 -47 -107v-90c0 -91 7 -108 47 -108c34 0 86 4 119 7v-127z" />
    <glyph glyph-name="d" unicode="d" horiz-adv-x="471" 
d="M447 0h-173v24c-29 -23 -63 -33 -104 -33c-125 0 -140 111 -140 255v90c0 163 42 251 192 251c10 0 20 -1 30 -1v60l-34 4v125h199v-647l30 -3v-125zM260 145v295c-9 2 -17 2 -19 2c-37 0 -45 -9 -45 -106v-90c0 -91 1 -107 33 -107c9 0 23 2 31 6z" />
    <glyph glyph-name="e" unicode="e" horiz-adv-x="444" 
d="M415 235h-221v-9c0 -85 5 -91 72 -91c34 0 83 2 131 8v-126c-20 -9 -89 -26 -154 -26c-127 0 -213 44 -213 235v114c0 179 75 247 194 247c129 0 191 -83 191 -248v-104zM256 337v7c0 90 -5 110 -31 110c-28 0 -31 -20 -31 -110v-7h62z" />
    <glyph glyph-name="f" unicode="f" horiz-adv-x="333" 
d="M309 448h-67v-320l30 -3v-125h-224v125l30 3v320l-55 10v119h55v46c0 122 36 167 129 167c39 0 75 -7 103 -16v-112c-21 1 -29 2 -35 2c-31 0 -33 -5 -33 -41v-46h67v-129z" />
    <glyph glyph-name="g" unicode="g" horiz-adv-x="456" 
d="M422 -22c0 -131 -64 -189 -203 -189c-121 0 -193 62 -193 170c0 43 15 84 44 117c-33 24 -44 57 -44 90c0 32 13 68 44 90c-23 28 -39 71 -39 140c0 95 14 191 194 191h207v-94l-36 -12c10 -16 18 -53 18 -85c0 -142 -76 -196 -190 -196c-16 0 -43 2 -55 5
c-6 -7 -12 -16 -12 -26c0 -21 9 -22 45 -22h17c167 0 203 -58 203 -179zM259 -41c-1 61 -4 70 -40 70h-32c-8 -15 -9 -31 -9 -70c0 -48 18 -62 41 -62c25 0 40 14 40 62zM256 396c0 54 -5 74 -32 74c-28 0 -32 -20 -32 -74c0 -56 4 -78 32 -78c27 0 32 22 32 78z" />
    <glyph glyph-name="h" unicode="h" horiz-adv-x="495" 
d="M219 0h-194v125l30 3v518l-30 4v125h194v-219c30 21 70 31 97 31c116 0 125 -87 125 -188v-271l30 -3v-125h-196v398c0 32 -2 41 -21 41c-11 0 -22 -5 -35 -14v-425z" />
    <glyph glyph-name="i" unicode="i" horiz-adv-x="274" 
d="M249 0h-224v125l30 3v319l-30 6v124h195v-449l29 -3v-125zM222 651h-171v124h171v-124z" />
    <glyph glyph-name="j" unicode="j" horiz-adv-x="253" 
d="M218 -35c0 -131 -51 -174 -152 -174c-37 0 -69 5 -93 13v124h46c27 0 35 4 35 37v484l-31 4v124h195v-612zM221 651h-171v124h171v-124z" />
    <glyph glyph-name="k" unicode="k" 
d="M462 0h-191l-53 244v-244h-193v125l30 3v518l-30 4v125h193v-434l52 236h189v-124l-46 -6l-50 -151l55 -164l44 -7v-125z" />
    <glyph glyph-name="l" unicode="l" horiz-adv-x="273" 
d="M249 0h-224v125l30 3v518l-30 4v125h194v-647l30 -3v-125z" />
    <glyph glyph-name="m" unicode="m" horiz-adv-x="708" 
d="M219 0h-194v124l30 4v321l-30 4v124h184v-36c34 37 78 46 106 46c43 0 69 -15 90 -47c40 35 82 47 119 47c105 0 129 -75 129 -185v-274l30 -3v-125h-195v402c0 24 -1 37 -19 37c-12 0 -26 -7 -34 -12c2 -11 2 -16 2 -25v-402h-165v402c0 24 -2 37 -20 37
c-12 0 -25 -7 -33 -12v-427z" />
    <glyph glyph-name="n" unicode="n" horiz-adv-x="495" 
d="M219 0h-194v125l30 3v321l-30 4v124h184v-36c25 24 67 46 117 46c112 0 115 -88 115 -188v-271l30 -3v-125h-196v399c0 32 -5 41 -22 41c-11 0 -22 -5 -34 -14v-426z" />
    <glyph glyph-name="o" unicode="o" horiz-adv-x="450" 
d="M420 242c0 -205 -79 -251 -195 -251s-195 46 -195 251v93c0 205 79 252 195 252s195 -47 195 -252v-93zM257 242v93c0 91 -7 107 -32 107c-26 0 -32 -16 -32 -107v-93c0 -91 6 -107 32 -107c25 0 32 16 32 107z" />
    <glyph glyph-name="p" unicode="p" horiz-adv-x="470" 
d="M249 -196h-224v126l30 4v514l-30 5v124h179v-31c35 30 83 41 111 41c104 0 126 -60 126 -242v-105c0 -164 -43 -249 -192 -249h-30v-57l30 -4v-126zM275 240v105c0 82 -1 94 -30 94c-8 0 -23 -2 -34 -9v-293c9 -1 13 -2 20 -2c36 0 44 8 44 105z" />
    <glyph glyph-name="q" unicode="q" horiz-adv-x="448" 
d="M443 -196h-224v126l30 4v63c-11 -4 -24 -6 -38 -6c-148 0 -182 83 -182 245v91c0 189 43 260 211 260c44 0 93 -3 173 -13v-640l30 -6v-124zM256 140v302c-7 1 -14 1 -17 1c-40 0 -45 -8 -45 -116v-91c0 -89 5 -101 40 -101c5 0 12 2 22 5z" />
    <glyph glyph-name="r" unicode="r" horiz-adv-x="350" 
d="M327 437c-35 0 -71 -1 -108 -5v-304l30 -3v-125h-224v125l30 3v320l-30 5v124h178v-34c43 44 94 44 124 44v-150z" />
    <glyph glyph-name="s" unicode="s" horiz-adv-x="398" 
d="M369 159c0 -112 -69 -168 -187 -168c-48 0 -124 11 -157 23v144h107l8 -31h13c36 0 47 10 47 37c0 20 -13 36 -52 72l-32 29c-52 47 -89 97 -89 168c0 117 67 154 175 154c53 0 125 -11 162 -29v-136h-107l-8 29h-18c-23 0 -34 -8 -34 -28s12 -37 43 -65l32 -29
c59 -54 97 -94 97 -170z" />
    <glyph glyph-name="t" unicode="t" horiz-adv-x="337" 
d="M313 6c-14 -5 -63 -15 -105 -15c-123 0 -128 88 -128 166v291l-56 10v119h56v120h163v-120h67v-129h-66v-291c0 -28 0 -39 27 -39c11 0 33 1 42 2v-114z" />
    <glyph glyph-name="u" unicode="u" horiz-adv-x="495" 
d="M275 577h166v-449l30 -3v-125h-186v37c-25 -25 -67 -46 -116 -46c-107 0 -114 92 -114 188v272l-30 3v123h194v-398c0 -33 6 -41 23 -41c11 0 21 4 33 13v426z" />
    <glyph glyph-name="v" unicode="v" horiz-adv-x="485" 
d="M462 453l-31 -6l-71 -447h-235l-71 447l-31 6v124h184l24 -310c4 -57 8 -124 10 -159h2c1 35 8 103 12 159l23 310h184v-124z" />
    <glyph glyph-name="w" unicode="w" horiz-adv-x="661" 
d="M637 453l-35 -7l-50 -446h-180l-28 178c-5 31 -10 69 -13 96h-2c-4 -28 -9 -64 -15 -96l-32 -178h-174l-49 447l-36 6v124h189l13 -235c2 -31 4 -79 4 -109h2c6 30 13 77 18 107l18 100h126l18 -100c5 -30 13 -77 18 -107h2c0 30 2 78 4 109l14 235h188v-124z" />
    <glyph glyph-name="x" unicode="x" horiz-adv-x="428" 
d="M405 0h-160l-35 130l-32 -130h-155v125l36 6l65 172l-60 143l-39 8v123h166l31 -118l29 118h152v-123l-32 -7l-62 -162l64 -154l32 -6v-125z" />
    <glyph glyph-name="y" unicode="y" horiz-adv-x="491" 
d="M467 454l-32 -7l-62 -379c-28 -170 -69 -278 -237 -278c-29 0 -74 6 -111 18v122h72c28 0 46 8 51 44l4 28l-93 445l-36 7v123h186l24 -280c4 -48 10 -125 11 -159h2c1 34 8 111 12 159l24 280h185v-123z" />
    <glyph glyph-name="z" unicode="z" horiz-adv-x="370" 
d="M345 0h-320v144l152 296h-48l-7 -28h-93v165h316v-142l-153 -298h49l11 33h93v-170z" />
    <glyph glyph-name="braceleft" unicode="{" horiz-adv-x="318" 
d="M295 -196h-37c-142 0 -196 37 -196 187v131c0 69 -13 86 -39 108v88c26 22 39 39 39 108v130c0 152 54 187 196 187h37v-139h-24c-35 0 -43 -4 -43 -47v-131c0 -82 -31 -120 -75 -152c44 -32 75 -69 75 -152v-132c0 -43 8 -47 43 -47h24v-139z" />
    <glyph glyph-name="bar" unicode="|" horiz-adv-x="218" 
d="M191 -196h-164v939h164v-939z" />
    <glyph glyph-name="braceright" unicode="}" horiz-adv-x="318" 
d="M295 230c-26 -22 -39 -39 -39 -108v-131c0 -150 -55 -187 -196 -187h-37v139h24c34 0 43 4 43 47v132c0 83 31 120 74 152c-43 32 -74 70 -74 152v131c0 43 -9 47 -43 47h-24v139h37c141 0 196 -35 196 -187v-130c0 -69 13 -86 39 -108v-88z" />
    <glyph glyph-name="asciitilde" unicode="~" horiz-adv-x="533" 
d="M507 503c0 -120 -49 -182 -147 -182c-40 0 -71 10 -100 32l-18 14c-12 11 -24 18 -34 18c-18 0 -21 -11 -21 -31v-32h-161v32c0 119 53 181 151 181c38 0 71 -12 100 -35l18 -14c13 -10 21 -15 33 -15c17 0 18 11 18 32v31h161v-31z" />
    <glyph glyph-name="Aacute" unicode="&#xc1;" horiz-adv-x="526" 
d="M503 0h-191l-17 165h-65l-17 -165h-190v125l29 3l64 484l-31 7v124h306l82 -615l30 -3v-125zM288 311l-15 169c-4 38 -7 83 -10 119h-2c-2 -36 -5 -81 -9 -119l-16 -169h52zM408 905l-92 -133h-136l70 133h158z" />
    <glyph glyph-name="Agrave" unicode="&#xc0;" horiz-adv-x="526" 
d="M503 0h-191l-17 165h-65l-17 -165h-190v125l29 3l64 484l-31 7v124h306l82 -615l30 -3v-125zM288 311l-15 169c-4 38 -7 83 -10 119h-2c-2 -36 -5 -81 -9 -119l-16 -169h52zM342 772h-135l-93 133h158z" />
    <glyph glyph-name="Acircumflex" unicode="&#xc2;" horiz-adv-x="526" 
d="M503 0h-191l-17 165h-65l-17 -165h-190v125l29 3l64 484l-31 7v124h306l82 -615l30 -3v-125zM288 311l-15 169c-4 38 -7 83 -10 119h-2c-2 -36 -5 -81 -9 -119l-16 -169h52zM430 772h-124l-43 65l-43 -65h-123l74 133h183z" />
    <glyph glyph-name="Adieresis" unicode="&#xc4;" horiz-adv-x="526" 
d="M503 0h-191l-17 165h-65l-17 -165h-190v125l29 3l64 484l-31 7v124h306l82 -615l30 -3v-125zM288 311l-15 169c-4 38 -7 83 -10 119h-2c-2 -36 -5 -81 -9 -119l-16 -169h52zM416 776h-128v130h128v-130zM236 776v130h-129v-130h129z" />
    <glyph glyph-name="Atilde" unicode="&#xc3;" horiz-adv-x="526" 
d="M503 0h-191l-17 165h-65l-17 -165h-190v125l29 3l64 484l-31 7v124h306l82 -615l30 -3v-125zM288 311l-15 169c-4 38 -7 83 -10 119h-2c-2 -36 -5 -81 -9 -119l-16 -169h52zM438 913c0 -95 -41 -138 -105 -138c-25 0 -52 4 -76 23l-10 8c-16 13 -22 16 -30 16
c-11 0 -15 -8 -15 -33v-13h-116v13c0 84 38 136 110 136c28 0 52 -6 76 -25l9 -7c16 -12 21 -14 29 -14c9 0 12 9 12 23v22h116v-11z" />
    <glyph glyph-name="Amacron" unicode="&#x100;" horiz-adv-x="526" 
d="M503 0h-191l-17 165h-65l-17 -165h-190v125l29 3l64 484l-31 7v124h306l82 -615l30 -3v-125zM288 311l-15 169c-4 38 -7 83 -10 119h-2c-2 -36 -5 -81 -9 -119l-16 -169h52zM401 776h-278v116h278v-116z" />
    <glyph glyph-name="Aring" unicode="&#xc5;" horiz-adv-x="526" 
d="M503 0h-191l-17 165h-65l-17 -165h-190v125l29 3l64 484l-31 7v124h306l82 -615l30 -3v-125zM288 311l-15 169c-4 38 -7 83 -10 119h-2c-2 -36 -5 -81 -9 -119l-16 -169h52zM389 888c0 -72 -55 -124 -126 -124c-69 0 -125 52 -125 124s56 124 125 124
c71 0 126 -52 126 -124zM306 888c0 29 -15 48 -43 48c-26 0 -43 -19 -43 -48s16 -49 43 -49c28 0 43 20 43 49z" />
    <glyph glyph-name="Abreve" unicode="&#x102;" horiz-adv-x="526" 
d="M503 0h-191l-17 165h-65l-17 -165h-190v125l29 3l64 484l-31 7v124h306l82 -615l30 -3v-125zM288 311l-15 169c-4 38 -7 83 -10 119h-2c-2 -36 -5 -81 -9 -119l-16 -169h52zM436 901c-22 -97 -81 -137 -173 -137c-90 0 -150 40 -173 137h121c8 -37 22 -49 52 -49
c31 0 46 12 54 49h119z" />
    <glyph glyph-name="Aogonek" unicode="&#x104;" horiz-adv-x="526" 
d="M504 -179c-40 -15 -80 -22 -116 -22c-78 0 -131 28 -131 91c0 41 32 81 96 110h-41l-17 165h-65l-17 -165h-190v125l29 3l64 484l-31 7v124h306l82 -615l30 -3v-125c-77 -36 -99 -55 -99 -75c0 -16 13 -19 44 -19c17 0 43 2 56 3v-88zM288 311l-15 169
c-4 38 -7 83 -10 119h-2c-2 -36 -5 -81 -9 -119l-16 -169h52z" />
    <glyph glyph-name="AE" unicode="&#xc6;" horiz-adv-x="659" 
d="M630 0h-335v164h-65l-17 -164h-190v124l31 6l63 483l-31 6v124h544v-187h-110l-6 28h-48v-134h150v-144h-150v-147h48l6 29h110v-188zM295 310v289h-32c-3 -34 -6 -79 -10 -114l-17 -175h59z" />
    <glyph glyph-name="AEacute" unicode="&#x1fc;" horiz-adv-x="659" 
d="M630 0h-335v164h-65l-17 -164h-190v124l31 6l63 483l-31 6v124h544v-187h-110l-6 28h-48v-134h150v-144h-150v-147h48l6 29h110v-188zM295 310v289h-32c-3 -34 -6 -79 -10 -114l-17 -175h59zM519 905l-92 -133h-136l70 133h158z" />
    <glyph glyph-name="Cacute" unicode="&#x106;" horiz-adv-x="423" 
d="M398 8c-32 -12 -115 -21 -156 -21c-135 0 -212 57 -212 331v108c0 274 77 330 212 330c41 0 124 -8 156 -20v-180h-108l-8 36h-12c-44 0 -66 -13 -66 -166v-108c0 -153 22 -167 68 -167c3 0 7 0 10 1l8 37h108v-181zM388 910l-92 -133h-136l70 133h158z" />
    <glyph glyph-name="Ccircumflex" unicode="&#x108;" horiz-adv-x="423" 
d="M398 8c-32 -12 -115 -21 -156 -21c-135 0 -212 57 -212 331v108c0 274 77 330 212 330c41 0 124 -8 156 -20v-180h-108l-8 36h-12c-44 0 -66 -13 -66 -166v-108c0 -153 22 -167 68 -167c3 0 7 0 10 1l8 37h108v-181zM395 776h-124l-43 65l-43 -65h-123l74 133h183z" />
    <glyph glyph-name="Ccaron" unicode="&#x10c;" horiz-adv-x="423" 
d="M398 8c-32 -12 -115 -21 -156 -21c-135 0 -212 57 -212 331v108c0 274 77 330 212 330c41 0 124 -8 156 -20v-180h-108l-8 36h-12c-44 0 -66 -13 -66 -166v-108c0 -153 22 -167 68 -167c3 0 7 0 10 1l8 37h108v-181zM395 909l-76 -133h-183l-74 133h123l43 -65l43 65h124
z" />
    <glyph glyph-name="Cdotaccent" unicode="&#x10a;" horiz-adv-x="423" 
d="M398 8c-32 -12 -115 -21 -156 -21c-135 0 -212 57 -212 331v108c0 274 77 330 212 330c41 0 124 -8 156 -20v-180h-108l-8 36h-12c-44 0 -66 -13 -66 -166v-108c0 -153 22 -167 68 -167c3 0 7 0 10 1l8 37h108v-181zM310 775h-171v124h171v-124z" />
    <glyph glyph-name="Ccedilla" unicode="&#xc7;" horiz-adv-x="423" 
d="M398 8c-32 -12 -115 -21 -156 -21c-135 0 -212 57 -212 331v108c0 274 77 330 212 330c41 0 124 -8 156 -20v-180h-108l-8 36h-12c-44 0 -66 -13 -66 -166v-108c0 -153 22 -167 68 -167c3 0 7 0 10 1l8 37h108v-181zM329 -56l-91 -140h-137l65 140h163z" />
    <glyph glyph-name="Dcaron" unicode="&#x10e;" horiz-adv-x="504" 
d="M473 336c0 -256 -51 -347 -257 -347c-61 0 -127 4 -191 11v124l30 6v483l-30 6v124c64 9 130 12 191 12c206 0 257 -91 257 -339v-80zM299 336v80c0 157 -1 180 -61 180h-11v-449h11c60 0 61 32 61 189zM415 908l-76 -133h-183l-74 133h123l43 -65l43 65h124z" />
    <glyph glyph-name="Dcroat" unicode="&#x110;" horiz-adv-x="504" 
d="M473 336c0 -256 -51 -347 -257 -347c-61 0 -127 4 -191 11v132l30 6v167h-31v147h31v153l-30 6v132c64 9 130 12 191 12c206 0 257 -91 257 -339v-80zM299 336v80c0 157 -1 180 -61 180h-12v-144h36v-147h-36v-158h12c59 0 61 32 61 189z" />
    <glyph glyph-name="Eth" unicode="&#xd0;" horiz-adv-x="504" 
d="M473 336c0 -256 -51 -347 -257 -347c-61 0 -127 4 -191 11v132l30 6v167h-31v147h31v153l-30 6v132c64 9 130 12 191 12c206 0 257 -91 257 -339v-80zM299 336v80c0 157 -1 180 -61 180h-12v-144h36v-147h-36v-158h12c59 0 61 32 61 189z" />
    <glyph glyph-name="Eacute" unicode="&#xc9;" horiz-adv-x="413" 
d="M384 0h-359v124l24 4v486l-24 5v124h359v-187h-110l-6 28h-48v-134h150v-144h-150v-147h48l6 29h110v-188zM361 909l-92 -133h-136l70 133h158z" />
    <glyph glyph-name="Egrave" unicode="&#xc8;" horiz-adv-x="413" 
d="M384 0h-359v124l24 4v486l-24 5v124h359v-187h-110l-6 28h-48v-134h150v-144h-150v-147h48l6 29h110v-188zM289 776h-135l-93 133h158z" />
    <glyph glyph-name="Ecircumflex" unicode="&#xca;" horiz-adv-x="413" 
d="M384 0h-359v124l24 4v486l-24 5v124h359v-187h-110l-6 28h-48v-134h150v-144h-150v-147h48l6 29h110v-188zM383 776h-124l-43 65l-43 -65h-123l74 133h183z" />
    <glyph glyph-name="Edieresis" unicode="&#xcb;" horiz-adv-x="413" 
d="M384 0h-359v124l24 4v486l-24 5v124h359v-187h-110l-6 28h-48v-134h150v-144h-150v-147h48l6 29h110v-188zM366 779h-128v130h128v-130zM186 779v130h-129v-130h129z" />
    <glyph glyph-name="Emacron" unicode="&#x112;" horiz-adv-x="413" 
d="M384 0h-359v124l24 4v486l-24 5v124h359v-187h-110l-6 28h-48v-134h150v-144h-150v-147h48l6 29h110v-188zM349 779h-278v116h278v-116z" />
    <glyph glyph-name="Ecaron" unicode="&#x11a;" horiz-adv-x="413" 
d="M384 0h-359v124l24 4v486l-24 5v124h359v-187h-110l-6 28h-48v-134h150v-144h-150v-147h48l6 29h110v-188zM380 909l-76 -133h-183l-74 133h123l43 -65l43 65h124z" />
    <glyph glyph-name="Ebreve" unicode="&#x114;" horiz-adv-x="413" 
d="M384 0h-359v124l24 4v486l-24 5v124h359v-187h-110l-6 28h-48v-134h150v-144h-150v-147h48l6 29h110v-188zM388 909c-22 -97 -81 -137 -173 -137c-90 0 -150 40 -173 137h121c8 -37 22 -49 52 -49c31 0 46 12 54 49h119z" />
    <glyph glyph-name="Edotaccent" unicode="&#x116;" horiz-adv-x="413" 
d="M384 0h-359v124l24 4v486l-24 5v124h359v-187h-110l-6 28h-48v-134h150v-144h-150v-147h48l6 29h110v-188zM304 779h-171v124h171v-124z" />
    <glyph glyph-name="Eogonek" unicode="&#x118;" horiz-adv-x="413" 
d="M385 -179c-40 -15 -80 -22 -116 -22c-78 0 -131 28 -131 91c0 41 32 81 96 110h-209v124l24 4v486l-24 5v124h359v-187h-110l-6 28h-48v-134h150v-144h-150v-147h48l6 29h110v-188c-77 -36 -99 -55 -99 -75c0 -16 13 -19 44 -19c17 0 43 2 56 3v-88z" />
    <glyph glyph-name="Gcircumflex" unicode="&#x11c;" horiz-adv-x="476" 
d="M447 4c-39 -7 -111 -17 -186 -17c-117 0 -231 27 -231 332v105c0 325 146 332 243 332c60 0 137 -17 165 -28v-172h-110l-8 35c-4 0 -9 1 -13 1c-83 0 -101 -19 -101 -168v-105c0 -143 7 -172 50 -172c5 0 14 0 23 1v124l-34 6v108h202v-382zM417 776h-124l-43 65
l-43 -65h-123l74 133h183z" />
    <glyph glyph-name="Gbreve" unicode="&#x11e;" horiz-adv-x="476" 
d="M447 4c-39 -7 -111 -17 -186 -17c-117 0 -231 27 -231 332v105c0 325 146 332 243 332c60 0 137 -17 165 -28v-172h-110l-8 35c-4 0 -9 1 -13 1c-83 0 -101 -19 -101 -168v-105c0 -143 7 -172 50 -172c5 0 14 0 23 1v124l-34 6v108h202v-382zM420 912
c-22 -97 -81 -137 -173 -137c-90 0 -150 40 -173 137h121c8 -37 22 -49 52 -49c31 0 46 12 54 49h119z" />
    <glyph glyph-name="Gdotaccent" unicode="&#x120;" horiz-adv-x="476" 
d="M447 4c-39 -7 -111 -17 -186 -17c-117 0 -231 27 -231 332v105c0 325 146 332 243 332c60 0 137 -17 165 -28v-172h-110l-8 35c-4 0 -9 1 -13 1c-83 0 -101 -19 -101 -168v-105c0 -143 7 -172 50 -172c5 0 14 0 23 1v124l-34 6v108h202v-382zM343 779h-171v124h171v-124z
" />
    <glyph glyph-name="Gcommaaccent" unicode="&#x122;" horiz-adv-x="476" 
d="M447 4c-39 -7 -111 -17 -186 -17c-117 0 -231 27 -231 332v105c0 325 146 332 243 332c60 0 137 -17 165 -28v-172h-110l-8 35c-4 0 -9 1 -13 1c-83 0 -101 -19 -101 -168v-105c0 -143 7 -172 50 -172c5 0 14 0 23 1v124l-34 6v108h202v-382zM355 -60l-79 -140h-132
l51 140h160z" />
    <glyph glyph-name="Hcircumflex" unicode="&#x124;" horiz-adv-x="538" 
d="M513 0h-202v301h-84v-301h-202v125l30 3v487l-30 3v125h202v-282h84v282h202v-125l-30 -3v-487l30 -3v-125zM435 776h-124l-43 65l-43 -65h-123l74 133h183z" />
    <glyph glyph-name="Hbar" unicode="&#x126;" horiz-adv-x="538" 
d="M15 517v57h40v41l-30 3v125h202v-169h84v169h202v-125l-30 -3v-41h40v-57h-40v-389l30 -3v-125h-202v301h-84v-301h-202v125l30 3v389h-40zM227 461h84v56h-84v-56z" />
    <glyph glyph-name="Iacute" unicode="&#xcd;" horiz-adv-x="282" 
d="M257 0h-232v125l30 3v487l-30 3v125h232v-125l-30 -3v-487l30 -3v-125zM286 909l-92 -133h-136l70 133h158z" />
    <glyph glyph-name="Igrave" unicode="&#xcc;" horiz-adv-x="282" 
d="M257 0h-232v125l30 3v487l-30 3v125h232v-125l-30 -3v-487l30 -3v-125zM220 776h-135l-93 133h158z" />
    <glyph glyph-name="Icircumflex" unicode="&#xce;" horiz-adv-x="282" 
d="M257 0h-232v125l30 3v487l-30 3v125h232v-125l-30 -3v-487l30 -3v-125zM308 776h-124l-43 65l-43 -65h-123l74 133h183z" />
    <glyph glyph-name="Idieresis" unicode="&#xcf;" horiz-adv-x="282" 
d="M257 0h-232v125l30 3v487l-30 3v125h232v-125l-30 -3v-487l30 -3v-125zM295 776h-128v130h128v-130zM115 776v130h-129v-130h129z" />
    <glyph glyph-name="Itilde" unicode="&#x128;" horiz-adv-x="282" 
d="M257 0h-232v125l30 3v487l-30 3v125h232v-125l-30 -3v-487l30 -3v-125zM316 914c0 -95 -41 -138 -105 -138c-25 0 -52 4 -76 23l-10 8c-16 13 -22 16 -30 16c-11 0 -15 -8 -15 -33v-13h-116v13c0 84 38 136 110 136c28 0 52 -6 76 -25l9 -7c16 -12 21 -14 29 -14
c9 0 12 9 12 23v22h116v-11z" />
    <glyph glyph-name="Imacron" unicode="&#x12a;" horiz-adv-x="282" 
d="M257 0h-232v125l30 3v487l-30 3v125h232v-125l-30 -3v-487l30 -3v-125zM279 779h-278v116h278v-116z" />
    <glyph glyph-name="Ibreve" unicode="&#x12c;" horiz-adv-x="282" 
d="M257 0h-232v125l30 3v487l-30 3v125h232v-125l-30 -3v-487l30 -3v-125zM312 923c-22 -97 -81 -137 -173 -137c-90 0 -150 40 -173 137h121c8 -37 22 -49 52 -49c31 0 46 12 54 49h119z" />
    <glyph glyph-name="Idotaccent" unicode="&#x130;" horiz-adv-x="282" 
d="M257 0h-232v125l30 3v487l-30 3v125h232v-125l-30 -3v-487l30 -3v-125zM227 779h-171v124h171v-124z" />
    <glyph glyph-name="Iogonek" unicode="&#x12e;" horiz-adv-x="282" 
d="M257 0c-78 -36 -95 -55 -95 -75c0 -16 13 -19 44 -19c17 0 43 2 56 3v-88c-40 -15 -80 -22 -116 -22c-78 0 -131 28 -131 91c0 41 27 81 91 110h-81v125l30 3v487l-30 3v125h232v-125l-30 -3v-487l30 -3v-125z" />
    <glyph glyph-name="IJ" unicode="&#x132;" horiz-adv-x="545" 
d="M520 618l-30 -3v-654c0 -134 -62 -170 -145 -170c-17 0 -53 4 -84 14v127h34c18 0 24 5 24 29v654l-30 3v125h231v-125zM257 0h-232v125l30 3v487l-30 3v125h232v-125l-30 -3v-487l30 -3v-125z" />
    <glyph glyph-name="Jcircumflex" unicode="&#x134;" horiz-adv-x="282" 
d="M257 618l-30 -3v-653c0 -134 -63 -170 -146 -170c-17 0 -52 4 -84 14v127h34c18 0 24 5 24 29v653l-30 3v125h232v-125zM309 776h-124l-43 65l-43 -65h-123l74 133h183z" />
    <glyph glyph-name="Kcommaaccent" unicode="&#x136;" horiz-adv-x="513" 
d="M489 0h-198l-70 326v-326h-196v125l24 3v487l-24 3v125h196v-328l78 328h190v-125l-38 -3l-74 -239l75 -248l37 -3v-125zM342 -61l-79 -140h-132l51 140h160z" />
    <glyph glyph-name="Lacute" unicode="&#x139;" horiz-adv-x="397" 
d="M373 0h-348v125l24 3v487l-24 3v125h226v-125l-30 -3v-456h35l7 33h110v-192zM309 909l-92 -133h-136l70 133h158z" />
    <glyph glyph-name="Lcaron" unicode="&#x13d;" horiz-adv-x="486" 
d="M373 0h-348v125l24 3v487l-24 3v125h226v-125l-30 -3v-456h35l7 33h110v-192zM475 746l-70 -258h-137l51 258h156z" />
    <glyph glyph-name="Ldot" unicode="&#x13f;" horiz-adv-x="469" 
d="M444 313h-171v140h171v-140zM373 0h-348v125l24 3v487l-24 3v125h226v-125l-30 -3v-456h35l7 33h110v-192z" />
    <glyph glyph-name="Lcommaaccent" unicode="&#x13b;" horiz-adv-x="397" 
d="M284 -61l-79 -140h-132l51 140h160zM373 0h-348v125l24 3v487l-24 3v125h226v-125l-30 -3v-456h35l7 33h110v-192z" />
    <glyph glyph-name="Lslash" unicode="&#x141;" horiz-adv-x="397" 
d="M373 0h-348v124l24 4v107l-29 -29v123l29 28v257l-24 5v124h226v-124l-30 -6v-102l72 70v-122l-72 -70v-230h36l6 33h110v-192z" />
    <glyph glyph-name="Nacute" unicode="&#x143;" horiz-adv-x="532" 
d="M507 618l-30 -3v-615h-173l-76 274c-7 25 -19 66 -26 97h-2c3 -33 6 -79 6 -111v-260h-181v125l24 3v487l-24 3v125h194l74 -260c13 -42 23 -76 31 -109h2c-3 27 -5 93 -5 128v241h186v-125zM411 908l-92 -133h-136l70 133h158z" />
    <glyph glyph-name="Ntilde" unicode="&#xd1;" horiz-adv-x="532" 
d="M507 618l-30 -3v-615h-173l-76 274c-7 25 -19 66 -26 97h-2c3 -33 6 -79 6 -111v-260h-181v125l24 3v487l-24 3v125h194l74 -260c13 -42 23 -76 31 -109h2c-3 27 -5 93 -5 128v241h186v-125zM442 912c0 -95 -41 -138 -105 -138c-25 0 -52 4 -76 23l-10 8
c-16 13 -22 16 -30 16c-11 0 -15 -8 -15 -33v-13h-116v13c0 84 38 136 110 136c28 0 52 -6 76 -25l9 -7c16 -12 21 -14 29 -14c9 0 12 9 12 23v22h116v-11z" />
    <glyph glyph-name="Ncaron" unicode="&#x147;" horiz-adv-x="532" 
d="M507 618l-30 -3v-615h-173l-76 274c-7 25 -19 66 -26 97h-2c3 -33 6 -79 6 -111v-260h-181v125l24 3v487l-24 3v125h194l74 -260c13 -42 23 -76 31 -109h2c-3 27 -5 93 -5 128v241h186v-125zM431 909l-76 -133h-183l-74 133h123l43 -65l43 65h124z" />
    <glyph glyph-name="Ncommaaccent" unicode="&#x145;" horiz-adv-x="532" 
d="M507 618l-30 -3v-615h-173l-76 274c-7 25 -19 66 -26 97h-2c3 -33 6 -79 6 -111v-260h-181v125l24 3v487l-24 3v125h194l74 -260c13 -42 23 -76 31 -109h2c-3 27 -5 93 -5 128v241h186v-125zM347 -62l-79 -140h-132l51 140h160z" />
    <glyph glyph-name="Eng" unicode="&#x14a;" horiz-adv-x="532" 
d="M507 619l-30 -6v-652c0 -134 -63 -170 -146 -170c-16 0 -52 4 -84 14v127h34c18 0 24 5 24 29v49l-77 264c-7 25 -19 66 -26 97h-2c3 -33 6 -79 6 -111v-260h-181v124l24 4v486l-24 5v124h194l73 -244c14 -46 24 -80 32 -113h2c-3 27 -5 93 -5 128v229h186v-124z" />
    <glyph glyph-name="Oacute" unicode="&#xd3;" horiz-adv-x="494" 
d="M464 322c0 -271 -85 -335 -217 -335c-131 0 -217 64 -217 335v99c0 278 91 335 217 335s217 -57 217 -335v-99zM288 324v95c0 141 0 174 -41 174c-40 0 -41 -33 -41 -174v-95c0 -141 1 -173 41 -173c41 0 41 32 41 173zM391 909l-92 -133h-136l70 133h158z" />
    <glyph glyph-name="Ograve" unicode="&#xd2;" horiz-adv-x="494" 
d="M464 322c0 -271 -85 -335 -217 -335c-131 0 -217 64 -217 335v99c0 278 91 335 217 335s217 -57 217 -335v-99zM288 324v95c0 141 0 174 -41 174c-40 0 -41 -33 -41 -174v-95c0 -141 1 -173 41 -173c41 0 41 32 41 173zM332 776h-135l-93 133h158z" />
    <glyph glyph-name="Ocircumflex" unicode="&#xd4;" horiz-adv-x="494" 
d="M464 322c0 -271 -85 -335 -217 -335c-131 0 -217 64 -217 335v99c0 278 91 335 217 335s217 -57 217 -335v-99zM288 324v95c0 141 0 174 -41 174c-40 0 -41 -33 -41 -174v-95c0 -141 1 -173 41 -173c41 0 41 32 41 173zM414 776h-124l-43 65l-43 -65h-123l74 133h183z
" />
    <glyph glyph-name="Odieresis" unicode="&#xd6;" horiz-adv-x="494" 
d="M464 322c0 -271 -85 -335 -217 -335c-131 0 -217 64 -217 335v99c0 278 91 335 217 335s217 -57 217 -335v-99zM288 324v95c0 141 0 174 -41 174c-40 0 -41 -33 -41 -174v-95c0 -141 1 -173 41 -173c41 0 41 32 41 173zM402 779h-128v130h128v-130zM222 779v130h-129
v-130h129z" />
    <glyph glyph-name="Otilde" unicode="&#xd5;" horiz-adv-x="494" 
d="M464 322c0 -271 -85 -335 -217 -335c-131 0 -217 64 -217 335v99c0 278 91 335 217 335s217 -57 217 -335v-99zM288 324v95c0 141 0 174 -41 174c-40 0 -41 -33 -41 -174v-95c0 -141 1 -173 41 -173c41 0 41 32 41 173zM423 912c0 -95 -41 -138 -105 -138
c-25 0 -52 4 -76 23l-10 8c-16 13 -22 16 -30 16c-11 0 -15 -8 -15 -33v-13h-116v13c0 84 38 136 110 136c28 0 52 -6 76 -25l9 -7c16 -12 21 -14 29 -14c9 0 12 9 12 23v22h116v-11z" />
    <glyph glyph-name="Omacron" unicode="&#x14c;" horiz-adv-x="494" 
d="M464 322c0 -271 -85 -335 -217 -335c-131 0 -217 64 -217 335v99c0 278 91 335 217 335s217 -57 217 -335v-99zM288 324v95c0 141 0 174 -41 174c-40 0 -41 -33 -41 -174v-95c0 -141 1 -173 41 -173c41 0 41 32 41 173zM386 779h-278v116h278v-116z" />
    <glyph glyph-name="Obreve" unicode="&#x14e;" horiz-adv-x="494" 
d="M464 322c0 -271 -85 -335 -217 -335c-131 0 -217 64 -217 335v99c0 278 91 335 217 335s217 -57 217 -335v-99zM288 324v95c0 141 0 174 -41 174c-40 0 -41 -33 -41 -174v-95c0 -141 1 -173 41 -173c41 0 41 32 41 173zM420 912c-22 -97 -81 -137 -173 -137
c-90 0 -150 40 -173 137h121c8 -37 22 -49 52 -49c31 0 46 12 54 49h119z" />
    <glyph glyph-name="Ohungarumlaut" unicode="&#x150;" horiz-adv-x="494" 
d="M464 322c0 -271 -85 -335 -217 -335c-131 0 -217 64 -217 335v99c0 278 91 335 217 335s217 -57 217 -335v-99zM288 324v95c0 141 0 174 -41 174c-40 0 -41 -33 -41 -174v-95c0 -141 1 -173 41 -173c41 0 41 32 41 173zM507 909l-92 -133h-136l71 133h157zM296 909h-158
l-70 -133h136z" />
    <glyph glyph-name="Oslash" unicode="&#xd8;" horiz-adv-x="494" 
d="M464 322c0 -271 -85 -335 -217 -335c-45 0 -85 8 -117 29l-21 -46h-94l54 116c-25 51 -39 127 -39 236v99c0 278 91 335 217 335c46 0 87 -8 121 -31l24 49h93l-58 -123c25 -50 37 -124 37 -230v-99zM288 324v95c0 141 0 174 -41 174c-40 0 -41 -33 -41 -174v-95
c0 -141 1 -173 41 -173c41 0 41 32 41 173z" />
    <glyph glyph-name="Oslashacute" unicode="&#x1fe;" horiz-adv-x="494" 
d="M404 909l-92 -133h-136l70 133h158zM464 322c0 -271 -85 -335 -217 -335c-45 0 -85 8 -117 29l-21 -46h-94l54 116c-25 51 -39 127 -39 236v99c0 278 91 335 217 335c46 0 87 -8 121 -31l24 49h93l-58 -123c25 -50 37 -124 37 -230v-99zM288 324v95c0 141 0 174 -41 174
c-40 0 -41 -33 -41 -174v-95c0 -141 1 -173 41 -173c41 0 41 32 41 173z" />
    <glyph glyph-name="OE" unicode="&#x152;" horiz-adv-x="641" 
d="M616 0h-262c-24 -6 -83 -13 -110 -13c-130 0 -218 55 -218 334v100c0 278 88 333 218 333c26 0 82 -5 110 -11h262v-187h-110l-6 28h-48v-134h150v-144h-150v-147h48l6 29h110v-188zM280 151v439c-11 1 -21 3 -30 3c-47 0 -48 -33 -48 -174v-97c0 -141 1 -173 48 -173
c9 0 19 0 30 2z" />
    <glyph glyph-name="Racute" unicode="&#x154;" horiz-adv-x="509" 
d="M486 0h-181l-61 260h-8h-11v-260h-200v125l30 3v487l-30 3v125c71 6 128 9 190 9c129 0 244 -39 244 -246v-9c0 -95 -25 -156 -66 -194l53 -173l40 -5v-125zM288 497v9c0 67 -4 91 -49 91h-14v-195h18c43 0 45 38 45 95zM400 909l-92 -133h-136l70 133h158z" />
    <glyph glyph-name="Rcaron" unicode="&#x158;" horiz-adv-x="509" 
d="M486 0h-181l-61 260h-8h-11v-260h-200v125l30 3v487l-30 3v125c71 6 128 9 190 9c129 0 244 -39 244 -246v-9c0 -95 -25 -156 -66 -194l53 -173l40 -5v-125zM288 497v9c0 67 -4 91 -49 91h-14v-195h18c43 0 45 38 45 95zM422 909l-76 -133h-183l-74 133h123l43 -65l43 65
h124z" />
    <glyph glyph-name="Rcommaaccent" unicode="&#x156;" horiz-adv-x="509" 
d="M486 0h-181l-61 260h-8h-11v-260h-200v125l30 3v487l-30 3v125c71 6 128 9 190 9c129 0 244 -39 244 -246v-9c0 -95 -25 -156 -66 -194l53 -173l40 -5v-125zM288 497v9c0 67 -4 91 -49 91h-14v-195h18c43 0 45 38 45 95zM339 -56l-79 -140h-132l51 140h160z" />
    <glyph glyph-name="Sacute" unicode="&#x15a;" horiz-adv-x="432" 
d="M407 206c0 -117 -65 -219 -196 -219c-80 0 -142 15 -175 28v167h110l9 -41h17c41 0 54 22 54 62c0 35 -7 54 -55 102l-43 44c-77 80 -103 131 -103 212c0 108 52 195 198 195c82 0 150 -16 182 -27v-165h-110l-7 38h-25c-37 0 -58 -14 -58 -52c0 -25 6 -42 52 -88l30 -30
c80 -80 120 -131 120 -226zM371 909l-92 -133h-136l70 133h158z" />
    <glyph glyph-name="Scircumflex" unicode="&#x15c;" horiz-adv-x="432" 
d="M407 206c0 -117 -65 -219 -196 -219c-80 0 -142 15 -175 28v167h110l9 -41h17c41 0 54 22 54 62c0 35 -7 54 -55 102l-43 44c-77 80 -103 131 -103 212c0 108 52 195 198 195c82 0 150 -16 182 -27v-165h-110l-7 38h-25c-37 0 -58 -14 -58 -52c0 -25 6 -42 52 -88l30 -30
c80 -80 120 -131 120 -226zM390 776h-124l-43 65l-43 -65h-123l74 133h183z" />
    <glyph glyph-name="Scaron" unicode="&#x160;" horiz-adv-x="432" 
d="M407 206c0 -117 -65 -219 -196 -219c-80 0 -142 15 -175 28v167h110l9 -41h17c41 0 54 22 54 62c0 35 -7 54 -55 102l-43 44c-77 80 -103 131 -103 212c0 108 52 195 198 195c82 0 150 -16 182 -27v-165h-110l-7 38h-25c-37 0 -58 -14 -58 -52c0 -25 6 -42 52 -88l30 -30
c80 -80 120 -131 120 -226zM390 909l-76 -133h-183l-74 133h123l43 -65l43 65h124z" />
    <glyph glyph-name="Scedilla" unicode="&#x15e;" horiz-adv-x="432" 
d="M407 206c0 -117 -65 -219 -196 -219c-80 0 -142 15 -175 28v167h110l9 -41h17c41 0 54 22 54 62c0 35 -7 54 -55 102l-43 44c-77 80 -103 131 -103 212c0 108 52 195 198 195c82 0 150 -16 182 -27v-165h-110l-7 38h-25c-37 0 -58 -14 -58 -52c0 -25 6 -42 52 -88l30 -30
c80 -80 120 -131 120 -226zM306 -56l-91 -140h-137l65 140h163z" />
    <glyph glyph-name="Scommaaccent" unicode="&#x218;" horiz-adv-x="432" 
d="M407 206c0 -117 -65 -219 -196 -219c-80 0 -142 15 -175 28v167h110l9 -41h17c41 0 54 22 54 62c0 35 -7 54 -55 102l-43 44c-77 80 -103 131 -103 212c0 108 52 195 198 195c82 0 150 -16 182 -27v-165h-110l-7 38h-25c-37 0 -58 -14 -58 -52c0 -25 6 -42 52 -88l30 -30
c80 -80 120 -131 120 -226zM304 -56l-79 -140h-132l51 140h160z" />
    <glyph glyph-name="Tcaron" unicode="&#x164;" horiz-adv-x="491" 
d="M467 564h-110l-6 28h-20v-464l31 -3v-125h-233v125l31 3v464h-20l-6 -28h-110v179h443v-179zM412 909l-76 -133h-183l-74 133h123l43 -65l43 65h124z" />
    <glyph glyph-name="Tcommaaccent" unicode="&#x162;" horiz-adv-x="491" 
d="M467 564h-110l-6 28h-20v-464l31 -3v-125h-233v125l31 3v464h-20l-6 -28h-110v179h443v-179zM331 -56l-79 -140h-132l51 140h160z" />
    <glyph glyph-name="uni021A" unicode="&#x21a;" horiz-adv-x="491" 
d="M467 564h-110l-6 28h-20v-464l31 -3v-125h-233v125l31 3v464h-20l-6 -28h-110v179h443v-179zM331 -56l-79 -140h-132l51 140h160z" />
    <glyph glyph-name="Tbar" unicode="&#x166;" horiz-adv-x="491" 
d="M431 332h-100v-194l31 -6v-132h-233v132l31 6v194h-102v150h102v110h-20l-6 -28h-110v179h443v-179h-110l-6 28h-20v-110h100v-150z" />
    <glyph glyph-name="Uacute" unicode="&#xda;" horiz-adv-x="532" 
d="M506 618l-30 -3v-364c0 -79 -1 -264 -210 -264s-210 185 -210 264v364l-31 3v125h203v-487c0 -84 0 -111 38 -111s38 27 38 111v487h202v-125zM418 909l-92 -133h-136l70 133h158z" />
    <glyph glyph-name="Ugrave" unicode="&#xd9;" horiz-adv-x="532" 
d="M506 618l-30 -3v-364c0 -79 -1 -264 -210 -264s-210 185 -210 264v364l-31 3v125h203v-487c0 -84 0 -111 38 -111s38 27 38 111v487h202v-125zM340 776h-135l-93 133h158z" />
    <glyph glyph-name="Ucircumflex" unicode="&#xdb;" horiz-adv-x="532" 
d="M506 618l-30 -3v-364c0 -79 -1 -264 -210 -264s-210 185 -210 264v364l-31 3v125h203v-487c0 -84 0 -111 38 -111s38 27 38 111v487h202v-125zM432 776h-124l-43 65l-43 -65h-123l74 133h183z" />
    <glyph glyph-name="Udieresis" unicode="&#xdc;" horiz-adv-x="532" 
d="M506 618l-30 -3v-364c0 -79 -1 -264 -210 -264s-210 185 -210 264v364l-31 3v125h203v-487c0 -84 0 -111 38 -111s38 27 38 111v487h202v-125zM420 779h-128v130h128v-130zM240 779v130h-129v-130h129z" />
    <glyph glyph-name="Utilde" unicode="&#x168;" horiz-adv-x="532" 
d="M506 618l-30 -3v-364c0 -79 -1 -264 -210 -264s-210 185 -210 264v364l-31 3v125h203v-487c0 -84 0 -111 38 -111s38 27 38 111v487h202v-125zM441 912c0 -95 -41 -138 -105 -138c-25 0 -52 4 -76 23l-10 8c-16 13 -22 16 -30 16c-11 0 -15 -8 -15 -33v-13h-116v13
c0 84 38 136 110 136c28 0 52 -6 76 -25l9 -7c16 -12 21 -14 29 -14c9 0 12 9 12 23v22h116v-11z" />
    <glyph glyph-name="Umacron" unicode="&#x16a;" horiz-adv-x="532" 
d="M506 618l-30 -3v-364c0 -79 -1 -264 -210 -264s-210 185 -210 264v364l-31 3v125h203v-487c0 -84 0 -111 38 -111s38 27 38 111v487h202v-125zM405 779h-278v116h278v-116z" />
    <glyph glyph-name="Uring" unicode="&#x16e;" horiz-adv-x="532" 
d="M506 618l-30 -3v-364c0 -79 -1 -264 -210 -264s-210 185 -210 264v364l-31 3v125h203v-487c0 -84 0 -111 38 -111s38 27 38 111v487h202v-125zM390 888c0 -72 -55 -124 -126 -124c-69 0 -125 52 -125 124s56 124 125 124c71 0 126 -52 126 -124zM307 888
c0 29 -15 48 -43 48c-26 0 -43 -19 -43 -48s16 -49 43 -49c28 0 43 20 43 49z" />
    <glyph glyph-name="Ubreve" unicode="&#x16c;" horiz-adv-x="532" 
d="M506 618l-30 -3v-364c0 -79 -1 -264 -210 -264s-210 185 -210 264v364l-31 3v125h203v-487c0 -84 0 -111 38 -111s38 27 38 111v487h202v-125zM438 912c-22 -97 -81 -137 -173 -137c-90 0 -150 40 -173 137h121c8 -37 22 -49 52 -49c31 0 46 12 54 49h119z" />
    <glyph glyph-name="Uhungarumlaut" unicode="&#x170;" horiz-adv-x="532" 
d="M506 618l-30 -3v-364c0 -79 -1 -264 -210 -264s-210 185 -210 264v364l-31 3v125h203v-487c0 -84 0 -111 38 -111s38 27 38 111v487h202v-125zM530 909l-92 -133h-136l71 133h157zM319 909h-158l-70 -133h136z" />
    <glyph glyph-name="Uogonek" unicode="&#x172;" horiz-adv-x="532" 
d="M506 618l-30 -3v-364c0 -69 -1 -219 -140 -255c-39 -23 -51 -41 -51 -61c0 -22 13 -29 44 -29c17 0 43 2 56 3v-88c-40 -15 -80 -22 -116 -22c-78 0 -131 27 -131 101c0 40 18 71 54 97c-135 38 -136 185 -136 254v364l-31 3v125h203v-487c0 -84 0 -111 38 -111
s38 27 38 111v487h202v-125z" />
    <glyph glyph-name="Wacute" unicode="&#x1e82;" horiz-adv-x="679" 
d="M433 743h223v-124l-30 -6l-56 -613h-190l-28 223c-4 31 -9 80 -11 111h-2c-3 -31 -8 -80 -12 -111l-27 -223h-191l-55 613l-31 6v124h224v-125l-25 -3l11 -200c2 -36 4 -91 4 -124h2c4 41 8 82 13 123l12 104h152l11 -104c5 -44 11 -92 13 -123h2c0 35 3 89 5 124l10 200
l-24 3v125zM499 909l-92 -133h-136l70 133h158z" />
    <glyph glyph-name="Wgrave" unicode="&#x1e80;" horiz-adv-x="679" 
d="M433 743h223v-124l-30 -6l-56 -613h-190l-28 223c-4 31 -9 80 -11 111h-2c-3 -31 -8 -80 -12 -111l-27 -223h-191l-55 613l-31 6v124h224v-125l-25 -3l11 -200c2 -36 4 -91 4 -124h2c4 41 8 82 13 123l12 104h152l11 -104c5 -44 11 -92 13 -123h2c0 35 3 89 5 124l10 200
l-24 3v125zM416 776h-135l-93 133h158z" />
    <glyph glyph-name="Wcircumflex" unicode="&#x174;" horiz-adv-x="679" 
d="M433 743h223v-124l-30 -6l-56 -613h-190l-28 223c-4 31 -9 80 -11 111h-2c-3 -31 -8 -80 -12 -111l-27 -223h-191l-55 613l-31 6v124h224v-125l-25 -3l11 -200c2 -36 4 -91 4 -124h2c4 41 8 82 13 123l12 104h152l11 -104c5 -44 11 -92 13 -123h2c0 35 3 89 5 124l10 200
l-24 3v125zM506 776h-124l-43 65l-43 -65h-123l74 133h183z" />
    <glyph glyph-name="Wdieresis" unicode="&#x1e84;" horiz-adv-x="679" 
d="M433 743h223v-124l-30 -6l-56 -613h-190l-28 223c-4 31 -9 80 -11 111h-2c-3 -31 -8 -80 -12 -111l-27 -223h-191l-55 613l-31 6v124h224v-125l-25 -3l11 -200c2 -36 4 -91 4 -124h2c4 41 8 82 13 123l12 104h152l11 -104c5 -44 11 -92 13 -123h2c0 35 3 89 5 124l10 200
l-24 3v125zM494 779h-128v130h128v-130zM314 779v130h-129v-130h129z" />
    <glyph glyph-name="Yacute" unicode="&#xdd;" horiz-adv-x="497" 
d="M474 619l-40 -7l-100 -335v-147l31 -6v-124h-232v124l30 6v147l-100 335l-40 7v124h181l28 -166c6 -34 12 -89 15 -121h2c4 32 10 87 16 121l29 166h180v-124zM401 909l-92 -133h-136l70 133h158z" />
    <glyph glyph-name="Ygrave" unicode="&#x1ef2;" horiz-adv-x="497" 
d="M474 619l-40 -7l-100 -335v-147l31 -6v-124h-232v124l30 6v147l-100 335l-40 7v124h181l28 -166c6 -34 12 -89 15 -121h2c4 32 10 87 16 121l29 166h180v-124zM328 776h-135l-93 133h158z" />
    <glyph glyph-name="Ycircumflex" unicode="&#x176;" horiz-adv-x="497" 
d="M474 619l-40 -7l-100 -335v-147l31 -6v-124h-232v124l30 6v147l-100 335l-40 7v124h181l28 -166c6 -34 12 -89 15 -121h2c4 32 10 87 16 121l29 166h180v-124zM415 776h-124l-43 65l-43 -65h-123l74 133h183z" />
    <glyph glyph-name="Ydieresis" unicode="&#x178;" horiz-adv-x="497" 
d="M474 619l-40 -7l-100 -335v-147l31 -6v-124h-232v124l30 6v147l-100 335l-40 7v124h181l28 -166c6 -34 12 -89 15 -121h2c4 32 10 87 16 121l29 166h180v-124zM403 783h-128v130h128v-130zM223 783v130h-129v-130h129z" />
    <glyph glyph-name="Zacute" unicode="&#x179;" horiz-adv-x="412" 
d="M388 0h-364v153l168 442h-51l-10 -31h-105v179h358v-161l-167 -433h56l9 33h106v-182zM363 909l-92 -133h-136l70 133h158z" />
    <glyph glyph-name="Zcaron" unicode="&#x17d;" horiz-adv-x="412" 
d="M388 0h-364v153l168 442h-51l-10 -31h-105v179h358v-161l-167 -433h56l9 33h106v-182zM375 909l-76 -133h-183l-74 133h123l43 -65l43 65h124z" />
    <glyph glyph-name="Zdotaccent" unicode="&#x17b;" horiz-adv-x="412" 
d="M388 0h-364v153l168 442h-51l-10 -31h-105v179h358v-161l-167 -433h56l9 33h106v-182zM297 779h-171v124h171v-124z" />
    <glyph glyph-name="Thorn" unicode="&#xde;" 
d="M257 0h-232v124l30 6v483l-30 6v124h202v-77h24c113 0 211 -41 211 -245v-11c0 -202 -108 -248 -211 -248h-24v-32l30 -6v-124zM291 410v11c0 67 -5 91 -48 91c-4 0 -7 0 -16 -1v-193c7 -1 12 -1 19 -1c40 0 45 35 45 93z" />
    <glyph glyph-name="aacute" unicode="&#xe1;" horiz-adv-x="444" 
d="M419 0h-174v26c-21 -16 -61 -35 -102 -35c-114 0 -117 87 -117 158v37c0 137 85 151 188 151h10v42c0 57 -5 68 -43 68h-18l-7 -35h-107v139c16 9 96 36 173 36c115 0 167 -42 167 -208v-251l30 -3v-125zM235 118v132h-16c-31 0 -36 -9 -36 -64v-34c0 -31 5 -41 22 -41
c10 0 19 2 30 7zM365 773l-92 -133h-136l70 133h158z" />
    <glyph glyph-name="agrave" unicode="&#xe0;" horiz-adv-x="444" 
d="M419 0h-174v26c-21 -16 -61 -35 -102 -35c-114 0 -117 87 -117 158v37c0 137 85 151 188 151h10v42c0 57 -5 68 -43 68h-18l-7 -35h-107v139c16 9 96 36 173 36c115 0 167 -42 167 -208v-251l30 -3v-125zM235 118v132h-16c-31 0 -36 -9 -36 -64v-34c0 -31 5 -41 22 -41
c10 0 19 2 30 7zM302 640h-135l-93 133h158z" />
    <glyph glyph-name="acircumflex" unicode="&#xe2;" horiz-adv-x="444" 
d="M419 0h-174v26c-21 -16 -61 -35 -102 -35c-114 0 -117 87 -117 158v37c0 137 85 151 188 151h10v42c0 57 -5 68 -43 68h-18l-7 -35h-107v139c16 9 96 36 173 36c115 0 167 -42 167 -208v-251l30 -3v-125zM235 118v132h-16c-31 0 -36 -9 -36 -64v-34c0 -31 5 -41 22 -41
c10 0 19 2 30 7zM379 640h-124l-43 65l-43 -65h-123l74 133h183z" />
    <glyph glyph-name="adieresis" unicode="&#xe4;" horiz-adv-x="444" 
d="M419 0h-174v26c-21 -16 -61 -35 -102 -35c-114 0 -117 87 -117 158v37c0 137 85 151 188 151h10v42c0 57 -5 68 -43 68h-18l-7 -35h-107v139c16 9 96 36 173 36c115 0 167 -42 167 -208v-251l30 -3v-125zM235 118v132h-16c-31 0 -36 -9 -36 -64v-34c0 -31 5 -41 22 -41
c10 0 19 2 30 7zM366 640h-128v130h128v-130zM186 640v130h-129v-130h129z" />
    <glyph glyph-name="atilde" unicode="&#xe3;" horiz-adv-x="444" 
d="M419 0h-174v26c-21 -16 -61 -35 -102 -35c-114 0 -117 87 -117 158v37c0 137 85 151 188 151h10v42c0 57 -5 68 -43 68h-18l-7 -35h-107v139c16 9 96 36 173 36c115 0 167 -42 167 -208v-251l30 -3v-125zM235 118v132h-16c-31 0 -36 -9 -36 -64v-34c0 -31 5 -41 22 -41
c10 0 19 2 30 7zM398 774c0 -95 -41 -138 -105 -138c-25 0 -52 4 -76 23l-10 8c-16 13 -22 16 -30 16c-11 0 -15 -8 -15 -33v-13h-116v13c0 84 38 136 110 136c28 0 52 -6 76 -25l9 -7c16 -12 21 -14 29 -14c9 0 12 9 12 23v22h116v-11z" />
    <glyph glyph-name="amacron" unicode="&#x101;" horiz-adv-x="444" 
d="M419 0h-174v26c-21 -16 -61 -35 -102 -35c-114 0 -117 87 -117 158v37c0 137 85 151 188 151h10v42c0 57 -5 68 -43 68h-18l-7 -35h-107v139c16 9 96 36 173 36c115 0 167 -42 167 -208v-251l30 -3v-125zM235 118v132h-16c-31 0 -36 -9 -36 -64v-34c0 -31 5 -41 22 -41
c10 0 19 2 30 7zM366 650h-278v116h278v-116z" />
    <glyph glyph-name="aring" unicode="&#xe5;" horiz-adv-x="444" 
d="M419 0h-174v26c-21 -16 -61 -35 -102 -35c-114 0 -117 87 -117 158v37c0 137 85 151 188 151h10v42c0 57 -5 68 -43 68h-18l-7 -35h-107v139c16 9 96 36 173 36c115 0 167 -42 167 -208v-251l30 -3v-125zM235 118v132h-16c-31 0 -36 -9 -36 -64v-34c0 -31 5 -41 22 -41
c10 0 19 2 30 7zM351 745c0 -72 -55 -124 -126 -124c-69 0 -125 52 -125 124s56 124 125 124c71 0 126 -52 126 -124zM268 745c0 29 -15 48 -43 48c-26 0 -43 -19 -43 -48s16 -49 43 -49c28 0 43 20 43 49z" />
    <glyph glyph-name="abreve" unicode="&#x103;" horiz-adv-x="444" 
d="M419 0h-174v26c-21 -16 -61 -35 -102 -35c-114 0 -117 87 -117 158v37c0 137 85 151 188 151h10v42c0 57 -5 68 -43 68h-18l-7 -35h-107v139c16 9 96 36 173 36c115 0 167 -42 167 -208v-251l30 -3v-125zM235 118v132h-16c-31 0 -36 -9 -36 -64v-34c0 -31 5 -41 22 -41
c10 0 19 2 30 7zM405 773c-22 -97 -81 -137 -173 -137c-90 0 -150 40 -173 137h121c8 -37 22 -49 52 -49c31 0 46 12 54 49h119z" />
    <glyph glyph-name="aogonek" unicode="&#x105;" horiz-adv-x="444" 
d="M419 0c-77 -36 -100 -55 -100 -75c0 -16 13 -19 44 -19c17 0 43 2 56 3v-88c-40 -15 -80 -22 -116 -22c-78 0 -131 28 -131 91c0 41 32 81 97 110h-24v26c-21 -16 -61 -35 -102 -35c-114 0 -117 87 -117 158v37c0 137 85 151 188 151h10v42c0 57 -5 68 -43 68h-18l-7 -35
h-107v139c16 9 96 36 173 36c115 0 167 -42 167 -208v-251l30 -3v-125zM235 118v132h-16c-31 0 -36 -9 -36 -64v-34c0 -31 5 -41 22 -41c10 0 19 2 30 7z" />
    <glyph glyph-name="ae" unicode="&#xe6;" horiz-adv-x="638" 
d="M605 235h-221v-9c0 -85 6 -99 73 -99c34 0 83 2 131 8v-118c-21 -9 -90 -26 -154 -26c-67 0 -115 12 -147 51c-48 -36 -93 -51 -141 -51c-114 0 -117 87 -117 158v37c0 137 85 151 188 151h10v42c0 57 -5 68 -43 68h-18l-7 -35h-107v139c16 9 96 36 173 36
c42 0 73 -7 97 -23c24 16 55 23 93 23c129 0 190 -83 190 -248v-104zM447 337v7c0 90 -5 110 -31 110c-28 0 -32 -20 -32 -110v-7h63zM238 118v132h-16c-31 0 -36 -9 -36 -64v-34c0 -31 5 -41 22 -41c10 0 19 2 30 7z" />
    <glyph glyph-name="aeacute" unicode="&#x1fd;" horiz-adv-x="638" 
d="M605 235h-221v-9c0 -85 6 -99 73 -99c34 0 83 2 131 8v-118c-21 -9 -90 -26 -154 -26c-67 0 -115 12 -147 51c-48 -36 -93 -51 -141 -51c-114 0 -117 87 -117 158v37c0 137 85 151 188 151h10v42c0 57 -5 68 -43 68h-18l-7 -35h-107v139c16 9 96 36 173 36
c42 0 73 -7 97 -23c24 16 55 23 93 23c129 0 190 -83 190 -248v-104zM447 337v7c0 90 -5 110 -31 110c-28 0 -32 -20 -32 -110v-7h63zM238 118v132h-16c-31 0 -36 -9 -36 -64v-34c0 -31 5 -41 22 -41c10 0 19 2 30 7zM487 773l-92 -133h-136l70 133h158z" />
    <glyph glyph-name="cacute" unicode="&#x107;" horiz-adv-x="385" 
d="M361 16c-33 -11 -89 -25 -142 -25c-138 0 -189 72 -189 253v90c0 180 51 253 189 253c66 0 124 -18 142 -26v-149h-108l-6 29h-5c-40 0 -47 -17 -47 -107v-90c0 -91 7 -108 47 -108c34 0 86 4 119 7v-127zM361 773l-92 -133h-136l70 133h158z" />
    <glyph glyph-name="ccircumflex" unicode="&#x109;" horiz-adv-x="385" 
d="M361 16c-33 -11 -89 -25 -142 -25c-138 0 -189 72 -189 253v90c0 180 51 253 189 253c66 0 124 -18 142 -26v-149h-108l-6 29h-5c-40 0 -47 -17 -47 -107v-90c0 -91 7 -108 47 -108c34 0 86 4 119 7v-127zM366 640h-124l-43 65l-43 -65h-123l74 133h183z" />
    <glyph glyph-name="ccaron" unicode="&#x10d;" horiz-adv-x="385" 
d="M361 16c-33 -11 -89 -25 -142 -25c-138 0 -189 72 -189 253v90c0 180 51 253 189 253c66 0 124 -18 142 -26v-149h-108l-6 29h-5c-40 0 -47 -17 -47 -107v-90c0 -91 7 -108 47 -108c34 0 86 4 119 7v-127zM374 773l-76 -133h-183l-74 133h123l43 -65l43 65h124z" />
    <glyph glyph-name="cdotaccent" unicode="&#x10b;" horiz-adv-x="385" 
d="M361 16c-33 -11 -89 -25 -142 -25c-138 0 -189 72 -189 253v90c0 180 51 253 189 253c66 0 124 -18 142 -26v-149h-108l-6 29h-5c-40 0 -47 -17 -47 -107v-90c0 -91 7 -108 47 -108c34 0 86 4 119 7v-127zM294 651h-171v124h171v-124z" />
    <glyph glyph-name="ccedilla" unicode="&#xe7;" horiz-adv-x="385" 
d="M361 16c-33 -11 -89 -25 -142 -25c-138 0 -189 72 -189 253v90c0 180 51 253 189 253c66 0 124 -18 142 -26v-149h-108l-6 29h-5c-40 0 -47 -17 -47 -107v-90c0 -91 7 -108 47 -108c34 0 86 4 119 7v-127zM306 -56l-91 -140h-137l65 140h163z" />
    <glyph glyph-name="dcaron" unicode="&#x10f;" horiz-adv-x="626" 
d="M646 775l-66 -258h-134l46 258h154zM446 0h-173v24c-29 -23 -63 -33 -104 -33c-125 0 -140 111 -140 255v90c0 163 42 251 192 251c10 0 20 -1 30 -1v60l-34 4v125h199v-647l30 -3v-125zM259 145v295c-9 2 -13 2 -19 2c-37 0 -45 -9 -45 -106v-90c0 -91 1 -107 33 -107
c11 0 23 2 31 6z" />
    <glyph glyph-name="dcroat" unicode="&#x111;" horiz-adv-x="482" 
d="M447 0h-173v24c-29 -23 -63 -33 -104 -33c-125 0 -140 111 -140 255v90c0 163 42 251 192 251c10 0 20 -1 30 -1v48h-96v92h96v49h165v-49h41v-92h-41v-506l30 -3v-125zM260 145v295c-9 2 -17 2 -19 2c-37 0 -45 -9 -45 -106v-90c0 -91 1 -107 33 -107c9 0 23 2 31 6z
" />
    <glyph glyph-name="eacute" unicode="&#xe9;" horiz-adv-x="444" 
d="M415 235h-221v-9c0 -85 5 -91 72 -91c34 0 83 2 131 8v-126c-20 -9 -89 -26 -154 -26c-127 0 -213 44 -213 235v114c0 179 75 247 194 247c129 0 191 -83 191 -248v-104zM256 337v7c0 90 -5 110 -31 110c-28 0 -31 -20 -31 -110v-7h62zM374 773l-92 -133h-136l70 133h158
z" />
    <glyph glyph-name="egrave" unicode="&#xe8;" horiz-adv-x="444" 
d="M415 235h-221v-9c0 -85 5 -91 72 -91c34 0 83 2 131 8v-126c-20 -9 -89 -26 -154 -26c-127 0 -213 44 -213 235v114c0 179 75 247 194 247c129 0 191 -83 191 -248v-104zM256 337v7c0 90 -5 110 -31 110c-28 0 -31 -20 -31 -110v-7h62zM313 640h-135l-93 133h158z" />
    <glyph glyph-name="ecircumflex" unicode="&#xea;" horiz-adv-x="444" 
d="M415 235h-221v-9c0 -85 5 -91 72 -91c34 0 83 2 131 8v-126c-20 -9 -89 -26 -154 -26c-127 0 -213 44 -213 235v114c0 179 75 247 194 247c129 0 191 -83 191 -248v-104zM256 337v7c0 90 -5 110 -31 110c-28 0 -31 -20 -31 -110v-7h62zM389 640h-124l-43 65l-43 -65h-123
l74 133h183z" />
    <glyph glyph-name="edieresis" unicode="&#xeb;" horiz-adv-x="444" 
d="M415 235h-221v-9c0 -85 5 -91 72 -91c34 0 83 2 131 8v-126c-20 -9 -89 -26 -154 -26c-127 0 -213 44 -213 235v114c0 179 75 247 194 247c129 0 191 -83 191 -248v-104zM256 337v7c0 90 -5 110 -31 110c-28 0 -31 -20 -31 -110v-7h62zM377 640h-128v130h128v-130z
M197 640v130h-129v-130h129z" />
    <glyph glyph-name="emacron" unicode="&#x113;" horiz-adv-x="444" 
d="M415 235h-221v-9c0 -85 5 -91 72 -91c34 0 83 2 131 8v-126c-20 -9 -89 -26 -154 -26c-127 0 -213 44 -213 235v114c0 179 75 247 194 247c129 0 191 -83 191 -248v-104zM256 337v7c0 90 -5 110 -31 110c-28 0 -31 -20 -31 -110v-7h62zM363 650h-278v116h278v-116z" />
    <glyph glyph-name="ecaron" unicode="&#x11b;" horiz-adv-x="444" 
d="M415 235h-221v-9c0 -85 5 -91 72 -91c34 0 83 2 131 8v-126c-20 -9 -89 -26 -154 -26c-127 0 -213 44 -213 235v114c0 179 75 247 194 247c129 0 191 -83 191 -248v-104zM256 337v7c0 90 -5 110 -31 110c-28 0 -31 -20 -31 -110v-7h62zM391 773l-76 -133h-183l-74 133
h123l43 -65l43 65h124z" />
    <glyph glyph-name="ebreve" unicode="&#x115;" horiz-adv-x="444" 
d="M415 235h-221v-9c0 -85 5 -91 72 -91c34 0 83 2 131 8v-126c-20 -9 -89 -26 -154 -26c-127 0 -213 44 -213 235v114c0 179 75 247 194 247c129 0 191 -83 191 -248v-104zM256 337v7c0 90 -5 110 -31 110c-28 0 -31 -20 -31 -110v-7h62zM396 773
c-22 -97 -81 -137 -173 -137c-90 0 -150 40 -173 137h121c8 -37 22 -49 52 -49c31 0 46 12 54 49h119z" />
    <glyph glyph-name="edotaccent" unicode="&#x117;" horiz-adv-x="444" 
d="M415 235h-221v-9c0 -85 5 -91 72 -91c34 0 83 2 131 8v-126c-20 -9 -89 -26 -154 -26c-127 0 -213 44 -213 235v114c0 179 75 247 194 247c129 0 191 -83 191 -248v-104zM256 337v7c0 90 -5 110 -31 110c-28 0 -31 -20 -31 -110v-7h62zM309 651h-171v124h171v-124z" />
    <glyph glyph-name="eogonek" unicode="&#x119;" horiz-adv-x="444" 
d="M415 235h-221v-9c0 -85 5 -91 72 -91c34 0 83 2 131 8v-126c-77 -36 -100 -64 -100 -84c0 -21 13 -27 44 -27c17 0 43 2 56 3v-88c-40 -15 -80 -22 -116 -22c-78 0 -131 25 -131 99c0 34 18 68 55 95c-106 8 -175 61 -175 233v114c0 179 75 247 194 247
c129 0 191 -83 191 -248v-104zM256 337v7c0 90 -5 110 -31 110c-28 0 -31 -20 -31 -110v-7h62z" />
    <glyph glyph-name="gcircumflex" unicode="&#x11d;" horiz-adv-x="456" 
d="M422 -22c0 -131 -64 -189 -203 -189c-121 0 -193 62 -193 170c0 43 15 84 44 117c-33 24 -44 57 -44 90c0 32 13 68 44 90c-23 28 -39 71 -39 140c0 95 14 191 194 191h207v-94l-36 -12c10 -16 18 -53 18 -85c0 -142 -76 -196 -190 -196c-16 0 -43 2 -55 5
c-6 -7 -12 -16 -12 -26c0 -21 9 -22 45 -22h17c167 0 203 -58 203 -179zM259 -41c-1 61 -4 70 -40 70h-32c-8 -15 -9 -31 -9 -70c0 -48 18 -62 41 -62c25 0 40 14 40 62zM256 396c0 54 -5 74 -32 74c-28 0 -32 -20 -32 -74c0 -56 4 -78 32 -78c27 0 32 22 32 78zM389 640
h-124l-43 65l-43 -65h-123l74 133h183z" />
    <glyph glyph-name="gbreve" unicode="&#x11f;" horiz-adv-x="456" 
d="M422 -22c0 -131 -64 -189 -203 -189c-121 0 -193 62 -193 170c0 43 15 84 44 117c-33 24 -44 57 -44 90c0 32 13 68 44 90c-23 28 -39 71 -39 140c0 95 14 191 194 191h207v-94l-36 -12c10 -16 18 -53 18 -85c0 -142 -76 -196 -190 -196c-16 0 -43 2 -55 5
c-6 -7 -12 -16 -12 -26c0 -21 9 -22 45 -22h17c167 0 203 -58 203 -179zM259 -41c-1 61 -4 70 -40 70h-32c-8 -15 -9 -31 -9 -70c0 -48 18 -62 41 -62c25 0 40 14 40 62zM256 396c0 54 -5 74 -32 74c-28 0 -32 -20 -32 -74c0 -56 4 -78 32 -78c27 0 32 22 32 78zM396 773
c-22 -97 -81 -137 -173 -137c-90 0 -150 40 -173 137h121c8 -37 22 -49 52 -49c31 0 46 12 54 49h119z" />
    <glyph glyph-name="gdotaccent" unicode="&#x121;" horiz-adv-x="456" 
d="M422 -22c0 -131 -64 -189 -203 -189c-121 0 -193 62 -193 170c0 43 15 84 44 117c-33 24 -44 57 -44 90c0 32 13 68 44 90c-23 28 -39 71 -39 140c0 95 14 191 194 191h207v-94l-36 -12c10 -16 18 -53 18 -85c0 -142 -76 -196 -190 -196c-16 0 -43 2 -55 5
c-6 -7 -12 -16 -12 -26c0 -21 9 -22 45 -22h17c167 0 203 -58 203 -179zM259 -41c-1 61 -4 70 -40 70h-32c-8 -15 -9 -31 -9 -70c0 -48 18 -62 41 -62c25 0 40 14 40 62zM256 396c0 54 -5 74 -32 74c-28 0 -32 -20 -32 -74c0 -56 4 -78 32 -78c27 0 32 22 32 78zM308 651
h-171v124h171v-124z" />
    <glyph glyph-name="gcommaaccent" unicode="&#x123;" horiz-adv-x="456" 
d="M422 -22c0 -131 -64 -189 -203 -189c-121 0 -193 62 -193 170c0 43 15 84 44 117c-33 24 -44 57 -44 90c0 32 13 68 44 90c-23 28 -39 71 -39 140c0 95 14 191 194 191h207v-94l-36 -12c10 -16 18 -53 18 -85c0 -142 -76 -196 -190 -196c-16 0 -43 2 -55 5
c-6 -7 -12 -16 -12 -26c0 -21 9 -22 45 -22h17c167 0 203 -58 203 -179zM259 -41c-1 61 -4 70 -40 70h-32c-8 -15 -9 -31 -9 -70c0 -48 18 -62 41 -62c25 0 40 14 40 62zM256 396c0 54 -5 74 -32 74c-28 0 -32 -20 -32 -74c0 -56 4 -78 32 -78c27 0 32 22 32 78zM348 779
l-50 -139h-161l80 139h131z" />
    <glyph glyph-name="hcircumflex" unicode="&#x125;" horiz-adv-x="495" 
d="M219 0h-194v125l30 3v518l-30 4v125h194v-219c30 21 70 31 97 31c116 0 125 -87 125 -188v-271l30 -3v-125h-196v398c0 32 -2 41 -21 41c-11 0 -22 -5 -35 -14v-425zM420 789h-124l-43 65l-43 -65h-123l74 133h183z" />
    <glyph glyph-name="hbar" unicode="&#x127;" horiz-adv-x="495" 
d="M220 0h-195v124l30 6v496h-37v108h37v41h165v-41h99v-108h-99v-70c29 21 69 31 97 31c115 0 124 -87 124 -188v-269l30 -6v-124h-196v398c0 32 -2 41 -21 41c-10 0 -22 -5 -34 -14v-425z" />
    <glyph glyph-name="iacute" unicode="&#xed;" horiz-adv-x="274" 
d="M281 773l-92 -133h-136l70 133h158zM249 0h-224v124l30 6v317l-30 6v124h195v-447l29 -6v-124z" />
    <glyph glyph-name="igrave" unicode="&#xec;" horiz-adv-x="274" 
d="M213 640h-135l-93 133h158zM249 0h-224v124l30 6v317l-30 6v124h195v-447l29 -6v-124z" />
    <glyph glyph-name="icircumflex" unicode="&#xee;" horiz-adv-x="274" 
d="M249 0h-224v124l30 6v317l-30 6v124h195v-447l29 -6v-124zM303 640h-124l-43 65l-43 -65h-123l74 133h183z" />
    <glyph glyph-name="idieresis" unicode="&#xef;" horiz-adv-x="274" 
d="M291 640h-128v130h128v-130zM111 640v130h-129v-130h129zM249 0h-224v124l30 6v317l-30 6v124h195v-447l29 -6v-124z" />
    <glyph glyph-name="itilde" unicode="&#x129;" horiz-adv-x="274" 
d="M312 776c0 -95 -41 -138 -105 -138c-25 0 -52 4 -76 23l-10 8c-16 13 -22 16 -30 16c-11 0 -15 -8 -15 -33v-13h-116v13c0 84 38 136 110 136c28 0 52 -6 76 -25l9 -7c16 -12 21 -14 29 -14c9 0 12 9 12 23v22h116v-11zM249 0h-224v124l30 6v317l-30 6v124h195v-447
l29 -6v-124z" />
    <glyph glyph-name="imacron" unicode="&#x12b;" horiz-adv-x="274" 
d="M275 650h-278v116h278v-116zM249 0h-224v124l30 6v317l-30 6v124h195v-447l29 -6v-124z" />
    <glyph glyph-name="ibreve" unicode="&#x12d;" horiz-adv-x="274" 
d="M309 773c-22 -97 -81 -137 -173 -137c-90 0 -150 40 -173 137h121c8 -37 22 -49 52 -49c31 0 46 12 54 49h119zM249 0h-224v124l30 6v317l-30 6v124h195v-447l29 -6v-124z" />
    <glyph glyph-name="iogonek" unicode="&#x12f;" horiz-adv-x="274" 
d="M249 0c-77 -36 -88 -55 -88 -70c0 -19 13 -24 44 -24c17 0 43 2 56 3v-88c-40 -15 -80 -22 -116 -22c-78 0 -131 28 -131 91c0 41 23 81 85 110h-74v125l30 3v319l-30 6v124h195v-449l29 -3v-125zM222 651h-171v124h171v-124z" />
    <glyph glyph-name="dotlessi" unicode="&#x131;" horiz-adv-x="274" 
d="M249 0h-224v124l30 6v317l-30 6v124h195v-447l29 -6v-124z" />
    <glyph glyph-name="ij" unicode="&#x133;" horiz-adv-x="505" 
d="M249 0h-224v125l30 3v319l-30 6v124h195v-449l29 -3v-125zM222 651h-171v124h171v-124zM465 -35c0 -131 -51 -174 -152 -174c-37 0 -69 5 -93 13v124h46c27 0 35 4 35 37v484l-31 4v124h195v-612zM468 651h-171v124h171v-124z" />
    <glyph glyph-name="jcircumflex" unicode="&#x135;" horiz-adv-x="253" 
d="M219 -35c0 -129 -51 -174 -151 -174c-38 0 -70 6 -94 14v124c15 -1 30 -1 46 -1c27 0 34 5 34 37v474l-30 6v132h195v-612zM301 640h-124l-43 65l-43 -65h-123l74 133h183z" />
    <glyph glyph-name="kcommaaccent" unicode="&#x137;" 
d="M462 0h-191l-53 244v-244h-193v125l30 3v518l-30 4v125h193v-434l52 236h189v-124l-46 -6l-50 -151l55 -164l44 -7v-125zM337 -56l-79 -140h-132l51 140h160z" />
    <glyph glyph-name="kgreenlandic" unicode="&#x138;" 
d="M462 0h-191l-53 244v-244h-193v125l30 3v320l-30 4v125h193v-236l52 236h189v-124l-46 -6l-50 -151l55 -164l44 -7v-125z" />
    <glyph glyph-name="lacute" unicode="&#x13a;" horiz-adv-x="273" 
d="M249 0h-224v125l30 3v518l-30 4v125h194v-647l30 -3v-125zM278 928l-92 -133h-136l70 133h158z" />
    <glyph glyph-name="lcaron" unicode="&#x13e;" horiz-adv-x="419" 
d="M247 0h-224v125l30 3v518l-30 4v125h194v-647l30 -3v-125zM439 775l-66 -258h-134l46 258h154z" />
    <glyph glyph-name="ldot" unicode="&#x140;" horiz-adv-x="432" 
d="M249 0h-224v125l30 3v518l-30 4v125h194v-647l30 -3v-125zM409 282h-160v168h160v-168z" />
    <glyph glyph-name="lcommaaccent" unicode="&#x13c;" horiz-adv-x="273" 
d="M249 0h-224v125l30 3v518l-30 4v125h194v-647l30 -3v-125zM224 -56l-79 -140h-132l51 140h160z" />
    <glyph glyph-name="lslash" unicode="&#x142;" horiz-adv-x="273" 
d="M18 189v179l37 40v238l-30 4v125h194v-188l37 40v-179l-37 -40v-280l30 -3v-125h-224v125l30 3v101z" />
    <glyph glyph-name="nacute" unicode="&#x144;" horiz-adv-x="495" 
d="M219 0h-194v125l30 3v321l-30 4v124h184v-36c25 24 67 46 117 46c112 0 115 -88 115 -188v-271l30 -3v-125h-196v399c0 32 -5 41 -22 41c-11 0 -22 -5 -34 -14v-426zM399 773l-92 -133h-136l70 133h158z" />
    <glyph glyph-name="ntilde" unicode="&#xf1;" horiz-adv-x="495" 
d="M219 0h-194v125l30 3v321l-30 4v124h184v-36c25 24 67 46 117 46c112 0 115 -88 115 -188v-271l30 -3v-125h-196v399c0 32 -5 41 -22 41c-11 0 -22 -5 -34 -14v-426zM422 774c0 -95 -41 -138 -105 -138c-25 0 -52 4 -76 23l-10 8c-16 13 -22 16 -30 16
c-11 0 -15 -8 -15 -33v-13h-116v13c0 84 38 136 110 136c28 0 52 -6 76 -25l9 -7c16 -12 21 -14 29 -14c9 0 12 9 12 23v22h116v-11z" />
    <glyph glyph-name="ncaron" unicode="&#x148;" horiz-adv-x="495" 
d="M219 0h-194v125l30 3v321l-30 4v124h184v-36c25 24 67 46 117 46c112 0 115 -88 115 -188v-271l30 -3v-125h-196v399c0 32 -5 41 -22 41c-11 0 -22 -5 -34 -14v-426zM417 773l-76 -133h-183l-74 133h123l43 -65l43 65h124z" />
    <glyph glyph-name="ncommaaccent" unicode="&#x146;" horiz-adv-x="495" 
d="M219 0h-194v125l30 3v321l-30 4v124h184v-36c25 24 67 46 117 46c112 0 115 -88 115 -188v-271l30 -3v-125h-196v399c0 32 -5 41 -22 41c-11 0 -22 -5 -34 -14v-426zM343 -56l-79 -140h-132l51 140h160z" />
    <glyph glyph-name="napostrophe" unicode="&#x149;" horiz-adv-x="633" 
d="M358 0h-194v125l30 3v321l-30 4v124h184v-36c25 24 67 46 117 46c112 0 115 -88 115 -188v-271l30 -3v-125h-196v399c0 32 -5 41 -22 41c-11 0 -22 -5 -34 -14v-426zM201 775l-73 -259h-121l39 259h155z" />
    <glyph glyph-name="eng" unicode="&#x14b;" horiz-adv-x="492" 
d="M219 0h-194v124l30 6v317l-30 6v124h184v-36c25 24 67 46 117 46c112 0 115 -88 115 -188v-434c0 -129 -53 -174 -152 -174c-38 0 -71 6 -95 14v124c16 -1 31 -1 47 -1c27 0 34 5 34 37v434c0 32 -5 41 -22 41c-11 0 -22 -5 -34 -14v-426z" />
    <glyph glyph-name="oacute" unicode="&#xf3;" horiz-adv-x="450" 
d="M420 242c0 -205 -79 -251 -195 -251s-195 46 -195 251v93c0 205 79 252 195 252s195 -47 195 -252v-93zM257 242v93c0 91 -7 107 -32 107c-26 0 -32 -16 -32 -107v-93c0 -91 6 -107 32 -107c25 0 32 16 32 107zM365 773l-92 -133h-136l70 133h158z" />
    <glyph glyph-name="ograve" unicode="&#xf2;" horiz-adv-x="450" 
d="M420 242c0 -205 -79 -251 -195 -251s-195 46 -195 251v93c0 205 79 252 195 252s195 -47 195 -252v-93zM257 242v93c0 91 -7 107 -32 107c-26 0 -32 -16 -32 -107v-93c0 -91 6 -107 32 -107c25 0 32 16 32 107zM307 640h-135l-93 133h158z" />
    <glyph glyph-name="ocircumflex" unicode="&#xf4;" horiz-adv-x="450" 
d="M420 242c0 -205 -79 -251 -195 -251s-195 46 -195 251v93c0 205 79 252 195 252s195 -47 195 -252v-93zM257 242v93c0 91 -7 107 -32 107c-26 0 -32 -16 -32 -107v-93c0 -91 6 -107 32 -107c25 0 32 16 32 107zM392 640h-124l-43 65l-43 -65h-123l74 133h183z" />
    <glyph glyph-name="odieresis" unicode="&#xf6;" horiz-adv-x="450" 
d="M420 242c0 -205 -79 -251 -195 -251s-195 46 -195 251v93c0 205 79 252 195 252s195 -47 195 -252v-93zM257 242v93c0 91 -7 107 -32 107c-26 0 -32 -16 -32 -107v-93c0 -91 6 -107 32 -107c25 0 32 16 32 107zM379 640h-128v130h128v-130zM199 640v130h-129v-130h129z
" />
    <glyph glyph-name="otilde" unicode="&#xf5;" horiz-adv-x="450" 
d="M420 242c0 -205 -79 -251 -195 -251s-195 46 -195 251v93c0 205 79 252 195 252s195 -47 195 -252v-93zM257 242v93c0 91 -7 107 -32 107c-26 0 -32 -16 -32 -107v-93c0 -91 6 -107 32 -107c25 0 32 16 32 107zM401 774c0 -95 -41 -138 -105 -138c-25 0 -52 4 -76 23
l-10 8c-16 13 -22 16 -30 16c-11 0 -15 -8 -15 -33v-13h-116v13c0 84 38 136 110 136c28 0 52 -6 76 -25l9 -7c16 -12 21 -14 29 -14c9 0 12 9 12 23v22h116v-11z" />
    <glyph glyph-name="omacron" unicode="&#x14d;" horiz-adv-x="450" 
d="M420 242c0 -205 -79 -251 -195 -251s-195 46 -195 251v93c0 205 79 252 195 252s195 -47 195 -252v-93zM257 242v93c0 91 -7 107 -32 107c-26 0 -32 -16 -32 -107v-93c0 -91 6 -107 32 -107c25 0 32 16 32 107zM364 650h-278v116h278v-116z" />
    <glyph glyph-name="obreve" unicode="&#x14f;" horiz-adv-x="450" 
d="M420 242c0 -205 -79 -251 -195 -251s-195 46 -195 251v93c0 205 79 252 195 252s195 -47 195 -252v-93zM257 242v93c0 91 -7 107 -32 107c-26 0 -32 -16 -32 -107v-93c0 -91 6 -107 32 -107c25 0 32 16 32 107zM398 773c-22 -97 -81 -137 -173 -137
c-90 0 -150 40 -173 137h121c8 -37 22 -49 52 -49c31 0 46 12 54 49h119z" />
    <glyph glyph-name="ohungarumlaut" unicode="&#x151;" horiz-adv-x="450" 
d="M420 242c0 -205 -79 -251 -195 -251s-195 46 -195 251v93c0 205 79 252 195 252s195 -47 195 -252v-93zM257 242v93c0 91 -7 107 -32 107c-26 0 -32 -16 -32 -107v-93c0 -91 6 -107 32 -107c25 0 32 16 32 107zM487 773l-92 -133h-136l71 133h157zM276 773h-158l-70 -133
h136z" />
    <glyph glyph-name="oslash" unicode="&#xf8;" horiz-adv-x="450" 
d="M421 242c0 -205 -79 -251 -196 -251c-30 0 -58 3 -82 11l-17 -38h-92l39 89c-27 38 -43 97 -43 189v93c0 205 79 251 195 251c31 0 59 -3 84 -13l18 42h93l-42 -94c26 -38 43 -97 43 -186v-93zM257 242v93c0 91 -6 107 -32 107c-25 0 -32 -16 -32 -107v-93
c0 -91 7 -107 32 -107c26 0 32 16 32 107z" />
    <glyph glyph-name="oslashacute" unicode="&#x1ff;" horiz-adv-x="450" 
d="M370 773l-92 -133h-136l70 133h158zM421 242c0 -205 -79 -251 -196 -251c-30 0 -58 3 -82 11l-17 -38h-92l39 89c-27 38 -43 97 -43 189v93c0 205 79 251 195 251c31 0 59 -3 84 -13l18 42h93l-42 -94c26 -38 43 -97 43 -186v-93zM257 242v93c0 91 -6 107 -32 107
c-25 0 -32 -16 -32 -107v-93c0 -91 7 -107 32 -107c26 0 32 16 32 107z" />
    <glyph glyph-name="oe" unicode="&#x153;" horiz-adv-x="664" 
d="M639 235h-221v-9c0 -85 5 -99 72 -99c34 0 83 2 131 8v-118c-20 -9 -89 -26 -154 -26c-54 0 -98 9 -130 35c-31 -25 -69 -35 -116 -35c-117 0 -196 46 -196 251v93c0 205 79 252 196 252c46 0 85 -10 115 -34c29 23 66 34 112 34c129 0 191 -83 191 -248v-104zM480 337v7
c0 90 -5 110 -31 110c-27 0 -31 -18 -31 -103v-14h62zM253 242v93c0 91 -7 107 -32 107c-26 0 -32 -16 -32 -107v-93c0 -91 6 -107 32 -107c25 0 32 16 32 107z" />
    <glyph glyph-name="racute" unicode="&#x155;" horiz-adv-x="350" 
d="M327 437c-35 0 -71 -1 -108 -5v-304l30 -3v-125h-224v125l30 3v320l-30 5v124h178v-34c43 44 94 44 124 44v-150zM339 773l-92 -133h-136l70 133h158z" />
    <glyph glyph-name="rcaron" unicode="&#x159;" horiz-adv-x="350" 
d="M327 437c-35 0 -71 -1 -108 -5v-304l30 -3v-125h-224v125l30 3v320l-30 5v124h178v-34c43 44 94 44 124 44v-150zM348 773l-76 -133h-183l-74 133h123l43 -65l43 65h124z" />
    <glyph glyph-name="rcommaaccent" unicode="&#x157;" horiz-adv-x="350" 
d="M327 437c-35 0 -71 -1 -108 -5v-304l30 -3v-125h-224v125l30 3v320l-30 5v124h178v-34c43 44 94 44 124 44v-150zM235 -56l-79 -140h-132l51 140h160z" />
    <glyph glyph-name="sacute" unicode="&#x15b;" horiz-adv-x="398" 
d="M369 159c0 -112 -69 -168 -187 -168c-48 0 -124 11 -157 23v144h107l8 -31h13c36 0 47 10 47 37c0 20 -13 36 -52 72l-32 29c-52 47 -89 97 -89 168c0 117 67 154 175 154c53 0 125 -11 162 -29v-136h-107l-8 29h-18c-23 0 -34 -8 -34 -28s12 -37 43 -65l32 -29
c59 -54 97 -94 97 -170zM349 773l-92 -133h-136l70 133h158z" />
    <glyph glyph-name="scircumflex" unicode="&#x15d;" horiz-adv-x="398" 
d="M369 159c0 -112 -69 -168 -187 -168c-48 0 -124 11 -157 23v144h107l8 -31h13c36 0 47 10 47 37c0 20 -13 36 -52 72l-32 29c-52 47 -89 97 -89 168c0 117 67 154 175 154c53 0 125 -11 162 -29v-136h-107l-8 29h-18c-23 0 -34 -8 -34 -28s12 -37 43 -65l32 -29
c59 -54 97 -94 97 -170zM364 640h-124l-43 65l-43 -65h-123l74 133h183z" />
    <glyph glyph-name="scaron" unicode="&#x161;" horiz-adv-x="398" 
d="M369 159c0 -112 -69 -168 -187 -168c-48 0 -124 11 -157 23v144h107l8 -31h13c36 0 47 10 47 37c0 20 -13 36 -52 72l-32 29c-52 47 -89 97 -89 168c0 117 67 154 175 154c53 0 125 -11 162 -29v-136h-107l-8 29h-18c-23 0 -34 -8 -34 -28s12 -37 43 -65l32 -29
c59 -54 97 -94 97 -170zM365 773l-76 -133h-183l-74 133h123l43 -65l43 65h124z" />
    <glyph glyph-name="scedilla" unicode="&#x15f;" horiz-adv-x="398" 
d="M369 159c0 -112 -69 -168 -187 -168c-48 0 -124 11 -157 23v144h107l8 -31h13c36 0 47 10 47 37c0 20 -13 36 -52 72l-32 29c-52 47 -89 97 -89 168c0 117 67 154 175 154c53 0 125 -11 162 -29v-136h-107l-8 29h-18c-23 0 -34 -8 -34 -28s12 -37 43 -65l32 -29
c59 -54 97 -94 97 -170zM287 -56l-91 -140h-137l65 140h163z" />
    <glyph glyph-name="scommaaccent" unicode="&#x219;" horiz-adv-x="398" 
d="M369 159c0 -112 -69 -168 -187 -168c-48 0 -124 11 -157 23v144h107l8 -31h13c36 0 47 10 47 37c0 20 -13 36 -52 72l-32 29c-52 47 -89 97 -89 168c0 117 67 154 175 154c53 0 125 -11 162 -29v-136h-107l-8 29h-18c-23 0 -34 -8 -34 -28s12 -37 43 -65l32 -29
c59 -54 97 -94 97 -170zM295 -56l-79 -140h-132l51 140h160z" />
    <glyph glyph-name="germandbls" unicode="&#xdf;" horiz-adv-x="500" 
d="M475 214c0 -142 -40 -223 -165 -223c-20 0 -47 2 -61 5v149h14c38 0 41 22 41 69v18c0 67 0 99 -41 99h-14v125h14c32 0 38 20 38 91v10c0 44 -6 73 -41 73s-42 -28 -42 -73v-557h-195v132l30 6v419c0 111 28 228 207 228c177 0 206 -117 206 -228v-10
c0 -70 -23 -118 -63 -151c60 -36 72 -108 72 -164v-18z" />
    <glyph glyph-name="tcaron" unicode="&#x165;" horiz-adv-x="359" 
d="M410 775l-52 -168h-97l33 168h116zM313 6c-14 -5 -63 -15 -105 -15c-123 0 -128 88 -128 166v291h-56v129h56v120h163v-120h67v-129h-66v-291c0 -28 0 -39 27 -39c11 0 33 1 42 2v-114z" />
    <glyph glyph-name="tcommaaccent" unicode="&#x163;" horiz-adv-x="337" 
d="M313 6c-14 -5 -63 -15 -105 -15c-123 0 -128 88 -128 166v291l-56 10v119h56v120h163v-120h67v-129h-66v-291c0 -28 0 -39 27 -39c11 0 33 1 42 2v-114zM284 -56l-79 -140h-132l51 140h160z" />
    <glyph glyph-name="uni021B" unicode="&#x21b;" horiz-adv-x="337" 
d="M313 6c-14 -5 -63 -15 -105 -15c-123 0 -128 88 -128 166v291l-56 10v119h56v120h163v-120h67v-129h-66v-291c0 -28 0 -39 27 -39c11 0 33 1 42 2v-114zM284 -56l-79 -140h-132l51 140h160z" />
    <glyph glyph-name="tbar" unicode="&#x167;" horiz-adv-x="337" 
d="M311 262h-67v-105c0 -28 0 -39 27 -39c11 0 31 1 40 2v-114c-14 -5 -61 -15 -103 -15c-123 0 -128 88 -128 166v105l-56 10v119h56v57l-56 10v119h56v120h163v-120h68v-129h-67v-57h67v-129z" />
    <glyph glyph-name="uacute" unicode="&#xfa;" horiz-adv-x="495" 
d="M275 577h166v-449l30 -3v-125h-186v37c-25 -25 -67 -46 -116 -46c-107 0 -114 92 -114 188v272l-30 3v123h194v-398c0 -33 6 -41 23 -41c11 0 21 4 33 13v426zM395 773l-92 -133h-136l70 133h158z" />
    <glyph glyph-name="ugrave" unicode="&#xf9;" horiz-adv-x="495" 
d="M275 577h166v-449l30 -3v-125h-186v37c-25 -25 -67 -46 -116 -46c-107 0 -114 92 -114 188v272l-30 3v123h194v-398c0 -33 6 -41 23 -41c11 0 21 4 33 13v426zM327 640h-135l-93 133h158z" />
    <glyph glyph-name="ucircumflex" unicode="&#xfb;" horiz-adv-x="495" 
d="M275 577h166v-449l30 -3v-125h-186v37c-25 -25 -67 -46 -116 -46c-107 0 -114 92 -114 188v272l-30 3v123h194v-398c0 -33 6 -41 23 -41c11 0 21 4 33 13v426zM411 640h-124l-43 65l-43 -65h-123l74 133h183z" />
    <glyph glyph-name="udieresis" unicode="&#xfc;" horiz-adv-x="495" 
d="M275 577h166v-449l30 -3v-125h-186v37c-25 -25 -67 -46 -116 -46c-107 0 -114 92 -114 188v272l-30 3v123h194v-398c0 -33 6 -41 23 -41c11 0 21 4 33 13v426zM398 640h-128v130h128v-130zM218 640v130h-129v-130h129z" />
    <glyph glyph-name="utilde" unicode="&#x169;" horiz-adv-x="495" 
d="M275 577h166v-449l30 -3v-125h-186v37c-25 -25 -67 -46 -116 -46c-107 0 -114 92 -114 188v272l-30 3v123h194v-398c0 -33 6 -41 23 -41c11 0 21 4 33 13v426zM426 777c0 -95 -41 -138 -105 -138c-25 0 -52 4 -76 23l-10 8c-16 13 -22 16 -30 16c-11 0 -15 -8 -15 -33
v-13h-116v13c0 84 38 136 110 136c28 0 52 -6 76 -25l9 -7c16 -12 21 -14 29 -14c9 0 12 9 12 23v22h116v-11z" />
    <glyph glyph-name="umacron" unicode="&#x16b;" horiz-adv-x="495" 
d="M275 577h166v-449l30 -3v-125h-186v37c-25 -25 -67 -46 -116 -46c-107 0 -114 92 -114 188v272l-30 3v123h194v-398c0 -33 6 -41 23 -41c11 0 21 4 33 13v426zM382 650h-278v116h278v-116z" />
    <glyph glyph-name="uring" unicode="&#x16f;" horiz-adv-x="495" 
d="M275 577h166v-449l30 -3v-125h-186v37c-25 -25 -67 -46 -116 -46c-107 0 -114 92 -114 188v272l-30 3v123h194v-398c0 -33 6 -41 23 -41c11 0 21 4 33 13v426zM370 748c0 -72 -55 -124 -126 -124c-69 0 -125 52 -125 124s56 124 125 124c71 0 126 -52 126 -124zM287 748
c0 29 -15 48 -43 48c-26 0 -43 -19 -43 -48s16 -49 43 -49c28 0 43 20 43 49z" />
    <glyph glyph-name="ubreve" unicode="&#x16d;" horiz-adv-x="495" 
d="M275 577h166v-449l30 -3v-125h-186v37c-25 -25 -67 -46 -116 -46c-107 0 -114 92 -114 188v272l-30 3v123h194v-398c0 -33 6 -41 23 -41c11 0 21 4 33 13v426zM417 773c-22 -97 -81 -137 -173 -137c-90 0 -150 40 -173 137h121c8 -37 22 -49 52 -49c31 0 46 12 54 49h119
z" />
    <glyph glyph-name="uhungarumlaut" unicode="&#x171;" horiz-adv-x="495" 
d="M275 577h166v-449l30 -3v-125h-186v37c-25 -25 -67 -46 -116 -46c-107 0 -114 92 -114 188v272l-30 3v123h194v-398c0 -33 6 -41 23 -41c11 0 21 4 33 13v426zM516 773l-92 -133h-136l71 133h157zM305 773h-158l-70 -133h136z" />
    <glyph glyph-name="uogonek" unicode="&#x173;" horiz-adv-x="495" 
d="M275 577h166v-449l30 -3v-125c-77 -36 -99 -55 -99 -75c0 -16 13 -19 44 -19c17 0 43 2 56 3v-88c-40 -15 -80 -22 -116 -22c-78 0 -131 28 -131 91c0 41 32 81 96 110h-36v37c-25 -25 -67 -46 -116 -46c-107 0 -114 92 -114 188v272l-30 3v123h194v-398
c0 -33 6 -41 23 -41c11 0 21 4 33 13v426z" />
    <glyph glyph-name="wacute" unicode="&#x1e83;" horiz-adv-x="661" 
d="M637 453l-35 -7l-50 -446h-180l-28 178c-5 31 -10 69 -13 96h-2c-4 -28 -9 -64 -15 -96l-32 -178h-174l-49 447l-36 6v124h189l13 -235c2 -31 4 -79 4 -109h2c6 30 13 77 18 107l18 100h126l18 -100c5 -30 13 -77 18 -107h2c0 30 2 78 4 109l14 235h188v-124zM492 773
l-92 -133h-136l70 133h158z" />
    <glyph glyph-name="wgrave" unicode="&#x1e81;" horiz-adv-x="661" 
d="M637 453l-35 -7l-50 -446h-180l-28 178c-5 31 -10 69 -13 96h-2c-4 -28 -9 -64 -15 -96l-32 -178h-174l-49 447l-36 6v124h189l13 -235c2 -31 4 -79 4 -109h2c6 30 13 77 18 107l18 100h126l18 -100c5 -30 13 -77 18 -107h2c0 30 2 78 4 109l14 235h188v-124zM406 640
h-135l-93 133h158z" />
    <glyph glyph-name="wcircumflex" unicode="&#x175;" horiz-adv-x="661" 
d="M637 453l-35 -7l-50 -446h-180l-28 178c-5 31 -10 69 -13 96h-2c-4 -28 -9 -64 -15 -96l-32 -178h-174l-49 447l-36 6v124h189l13 -235c2 -31 4 -79 4 -109h2c6 30 13 77 18 107l18 100h126l18 -100c5 -30 13 -77 18 -107h2c0 30 2 78 4 109l14 235h188v-124zM497 640
h-124l-43 65l-43 -65h-123l74 133h183z" />
    <glyph glyph-name="wdieresis" unicode="&#x1e85;" horiz-adv-x="661" 
d="M637 453l-35 -7l-50 -446h-180l-28 178c-5 31 -10 69 -13 96h-2c-4 -28 -9 -64 -15 -96l-32 -178h-174l-49 447l-36 6v124h189l13 -235c2 -31 4 -79 4 -109h2c6 30 13 77 18 107l18 100h126l18 -100c5 -30 13 -77 18 -107h2c0 30 2 78 4 109l14 235h188v-124zM485 645
h-128v130h128v-130zM305 645v130h-129v-130h129z" />
    <glyph glyph-name="yacute" unicode="&#xfd;" horiz-adv-x="491" 
d="M467 454l-32 -7l-62 -379c-28 -170 -69 -278 -237 -278c-29 0 -74 6 -111 18v122h72c28 0 46 8 51 44l4 28l-93 445l-36 7v123h186l24 -280c4 -48 10 -125 11 -159h2c1 34 8 111 12 159l24 280h185v-123zM405 773l-92 -133h-136l70 133h158z" />
    <glyph glyph-name="ygrave" unicode="&#x1ef3;" horiz-adv-x="491" 
d="M467 454l-32 -7l-62 -379c-28 -170 -69 -278 -237 -278c-29 0 -74 6 -111 18v122h72c28 0 46 8 51 44l4 28l-93 445l-36 7v123h186l24 -280c4 -48 10 -125 11 -159h2c1 34 8 111 12 159l24 280h185v-123zM319 640h-135l-93 133h158z" />
    <glyph glyph-name="ycircumflex" unicode="&#x177;" horiz-adv-x="491" 
d="M467 454l-32 -7l-62 -379c-28 -170 -69 -278 -237 -278c-29 0 -74 6 -111 18v122h72c28 0 46 8 51 44l4 28l-93 445l-36 7v123h186l24 -280c4 -48 10 -125 11 -159h2c1 34 8 111 12 159l24 280h185v-123zM412 640h-124l-43 65l-43 -65h-123l74 133h183z" />
    <glyph glyph-name="ydieresis" unicode="&#xff;" horiz-adv-x="491" 
d="M467 454l-32 -7l-62 -379c-28 -170 -69 -278 -237 -278c-29 0 -74 6 -111 18v122h72c28 0 46 8 51 44l4 28l-93 445l-36 7v123h186l24 -280c4 -48 10 -125 11 -159h2c1 34 8 111 12 159l24 280h185v-123zM400 640h-128v130h128v-130zM220 640v130h-129v-130h129z" />
    <glyph glyph-name="zacute" unicode="&#x17a;" horiz-adv-x="370" 
d="M345 0h-320v144l152 296h-48l-7 -28h-93v165h316v-142l-153 -298h49l11 33h93v-170zM348 773l-92 -133h-136l70 133h158z" />
    <glyph glyph-name="zcaron" unicode="&#x17e;" horiz-adv-x="370" 
d="M345 0h-320v144l152 296h-48l-7 -28h-93v165h316v-142l-153 -298h49l11 33h93v-170zM359 773l-76 -133h-183l-74 133h123l43 -65l43 65h124z" />
    <glyph glyph-name="zdotaccent" unicode="&#x17c;" horiz-adv-x="370" 
d="M345 0h-320v144l152 296h-48l-7 -28h-93v165h316v-142l-153 -298h49l11 33h93v-170zM277 651h-171v124h171v-124z" />
    <glyph glyph-name="eth" unicode="&#xf0;" horiz-adv-x="450" 
d="M420 242c0 -205 -79 -251 -195 -251s-195 46 -195 251v77c0 205 84 251 177 251c6 0 14 0 35 -3c-14 38 -35 63 -59 81l-50 -59l-51 38l38 48c-14 3 -28 4 -77 4v98c11 1 25 2 46 2c40 0 77 -5 107 -15l38 44l51 -39l-26 -32c118 -69 161 -219 161 -405v-90zM257 242v100
c0 70 -9 84 -32 84c-25 0 -32 -16 -32 -107v-77c0 -91 6 -107 32 -107s32 16 32 107z" />
    <glyph glyph-name="thorn" unicode="&#xfe;" horiz-adv-x="470" 
d="M249 -196h-224v124l30 6v711l-30 6v124h180v-229c35 30 83 41 110 41c105 0 126 -60 126 -242v-109c0 -163 -42 -249 -191 -249c-10 0 -21 1 -31 1v-54l30 -6v-124zM276 236v109c0 82 -1 94 -30 94c-8 0 -23 -2 -34 -9v-296c9 -2 13 -2 19 -2c37 0 45 8 45 104z" />
    <glyph glyph-name="longs" unicode="&#x17f;" horiz-adv-x="283" 
d="M248 0h-225v124l31 6v493c0 122 36 167 129 167c38 0 75 -7 103 -16v-112c-21 1 -29 2 -35 2c-32 0 -33 -5 -33 -41v-493l30 -6v-124z" />
    <glyph glyph-name="longs_h" unicode="&#xfb13;" horiz-adv-x="753" 
d="M248 0h-225v124l31 6v493c0 122 36 167 129 167c38 0 76 -7 104 -16h191v-218c29 21 69 31 97 31c115 0 124 -87 124 -188v-269l30 -6v-124h-196v398c0 32 -2 41 -21 41c-10 0 -22 -5 -34 -14v-295l30 -6v-124h-225v124l30 6v529c-26 3 -44 5 -62 5c-32 0 -33 -5 -33 -41
v-493l30 -6v-124z" />
    <glyph glyph-name="longs_i" unicode="&#xfb15;" horiz-adv-x="542" 
d="M517 0h-225v125l30 3v319l-30 6v124h195v-449l30 -3v-125zM490 651h-171v124h171v-124zM287 662c-20 1 -28 2 -35 2c-31 0 -32 -5 -32 -41v-493l30 -6v-124h-225v124l31 6v493c0 122 36 167 128 167c39 0 75 -7 103 -16v-112z" />
    <glyph glyph-name="longs_l" unicode="&#xfb14;" horiz-adv-x="533" 
d="M508 0h-224v124l30 6v530c-24 3 -56 4 -57 4c-36 0 -37 -5 -37 -41v-493l30 -6v-124h-225v124l31 6v493c0 122 36 167 128 167c51 0 95 -7 128 -15h166v-645l30 -6v-124z" />
    <glyph glyph-name="longs_longs" unicode="&#xfb16;" horiz-adv-x="544" 
d="M556 662c-20 1 -28 2 -35 2c-31 0 -32 -5 -32 -41v-493l30 -6v-124h-225v124l31 6v493c0 122 36 167 128 167c39 0 75 -7 103 -16v-112zM288 774v-112c-20 1 -28 2 -35 2c-31 0 -32 -5 -32 -41v-493l30 -6v-124h-225v124l31 6v493c0 122 36 167 128 167
c39 0 75 -7 103 -16z" />
    <glyph glyph-name="longs_t" unicode="&#xfb05;" horiz-adv-x="585" 
d="M560 6c-15 -5 -63 -15 -105 -15c-123 0 -128 88 -128 166v291l-56 10v119h56v85c-20 1 -43 2 -67 2c-39 0 -40 -5 -40 -41v-493l30 -6v-124h-225v124l31 6v493c0 122 36 167 128 167c55 0 115 -9 143 -19h163v-194h66v-129h-65v-291c0 -28 0 -39 27 -39c10 0 33 1 42 2
v-114z" />
    <glyph glyph-name="acute" unicode="&#xb4;" horiz-adv-x="286" 
d="M264 773l-92 -133h-136l70 133h158z" />
    <glyph glyph-name="grave" unicode="`" horiz-adv-x="286" 
d="M250 640h-135l-93 133h158z" />
    <glyph glyph-name="circumflex" unicode="&#x2c6;" horiz-adv-x="371" 
d="M352 640h-124l-43 65l-43 -65h-123l74 133h183z" />
    <glyph glyph-name="dieresis" unicode="&#xa8;" horiz-adv-x="353" 
d="M331 640h-128v130h128v-130zM151 640v130h-129v-130h129z" />
    <glyph glyph-name="tilde" unicode="&#x2dc;" horiz-adv-x="384" 
d="M368 776c0 -95 -41 -138 -105 -138c-25 0 -52 4 -76 23l-10 8c-16 13 -22 16 -30 16c-11 0 -15 -8 -15 -33v-13h-116v13c0 84 38 136 110 136c28 0 52 -6 76 -25l9 -7c16 -12 21 -14 29 -14c9 0 12 9 12 23v22h116v-11z" />
    <glyph glyph-name="macron" unicode="&#xaf;" horiz-adv-x="324" 
d="M301 650h-278v116h278v-116z" />
    <glyph glyph-name="uni02C9" unicode="&#x2c9;" horiz-adv-x="324" 
d="M301 650h-278v116h278v-116z" />
    <glyph glyph-name="caron" unicode="&#x2c7;" horiz-adv-x="371" 
d="M352 773l-76 -133h-183l-74 133h123l43 -65l43 65h124z" />
    <glyph glyph-name="breve" unicode="&#x2d8;" horiz-adv-x="395" 
d="M370 773c-22 -97 -81 -137 -173 -137c-90 0 -150 40 -173 137h121c8 -37 22 -49 52 -49c31 0 46 12 54 49h119z" />
    <glyph glyph-name="ring" unicode="&#x2da;" horiz-adv-x="300" 
d="M275 748c0 -72 -55 -124 -126 -124c-69 0 -125 52 -125 124s56 124 125 124c71 0 126 -52 126 -124zM192 748c0 29 -15 48 -43 48c-26 0 -43 -19 -43 -48s16 -49 43 -49c28 0 43 20 43 49z" />
    <glyph glyph-name="dotaccent" unicode="&#x2d9;" horiz-adv-x="241" 
d="M206 651h-171v124h171v-124z" />
    <glyph glyph-name="hungarumlaut" unicode="&#x2dd;" horiz-adv-x="473" 
d="M462 773l-92 -133h-136l71 133h157zM251 773h-158l-70 -133h136z" />
    <glyph glyph-name="cedilla" unicode="&#xb8;" horiz-adv-x="288" 
d="M254 -56l-91 -140h-137l65 140h163z" />
    <glyph glyph-name="ogonek" unicode="&#x2db;" horiz-adv-x="304" 
d="M276 -179c-40 -15 -80 -22 -116 -22c-78 0 -131 28 -131 91c0 46 40 91 121 120l125 -10c-77 -36 -99 -55 -99 -75c0 -16 13 -19 44 -19c17 0 43 2 56 3v-88z" />
    <glyph glyph-name="one.superior" unicode="&#xb9;" horiz-adv-x="250" 
d="M223 302h-195v81l40 4v230l-40 -19v112l69 39h84v-362l42 -4v-81z" />
    <glyph glyph-name="two.superior" unicode="&#xb2;" horiz-adv-x="285" 
d="M248 302h-221v57c0 112 13 140 77 205c38 38 45 48 45 71c0 24 -10 31 -41 31h-8l-6 -30h-63v106c30 10 72 15 98 15c85 0 130 -33 130 -113c0 -48 -17 -82 -75 -138c-50 -47 -51 -56 -51 -107v-5h47l4 21h64v-113z" />
    <glyph glyph-name="three.superior" unicode="&#xb3;" horiz-adv-x="280" 
d="M254 423c0 -90 -37 -130 -134 -130c-33 0 -71 7 -93 14v106h64l5 -29h9c26 0 39 2 39 47v10c0 35 -10 47 -39 47h-69v81h69c29 0 39 9 39 43v7c0 45 -13 47 -40 47h-8l-5 -29h-64v105c22 8 60 15 93 15c97 0 134 -40 134 -130v-7c0 -48 -16 -73 -43 -92
c27 -19 43 -46 43 -96v-9z" />
    <glyph glyph-name="ordfeminine" unicode="&#xaa;" horiz-adv-x="313" 
d="M289 401h-116v16c-14 -9 -40 -22 -68 -22c-75 0 -78 56 -78 102v22c0 91 59 97 126 97h6v25c0 36 -3 42 -28 42h-12l-5 -21h-72v91c28 12 65 24 116 24c77 0 113 -28 113 -136v-153l18 -4v-83zM167 478v81h-11c-20 0 -24 -4 -24 -39v-20c0 -20 4 -25 15 -25
c7 0 12 1 20 3z" />
    <glyph glyph-name="ordmasculine" unicode="&#xba;" horiz-adv-x="316" 
d="M289 559c0 -135 -53 -165 -131 -165s-131 30 -131 165v53c0 135 53 165 131 165s131 -30 131 -165v-53zM179 559v53c0 58 -4 68 -21 68s-21 -10 -21 -68v-53c0 -57 4 -68 21 -68s21 10 21 68z" />
    <glyph glyph-name="guilsinglleft" unicode="&#x2039;" horiz-adv-x="321" 
d="M296 61h-159l-112 229l112 228h159l-113 -228z" />
    <glyph glyph-name="guilsinglright" unicode="&#x203a;" horiz-adv-x="321" 
d="M296 290l-114 -229h-157l112 229l-112 228h157z" />
    <glyph glyph-name="guillemotleft" unicode="&#xab;" horiz-adv-x="553" 
d="M528 61h-158l-113 229l113 228h158l-113 -228zM296 61l-113 229l113 228h-158l-113 -228l113 -229h158z" />
    <glyph glyph-name="guillemotright" unicode="&#xbb;" horiz-adv-x="553" 
d="M528 290l-114 -229h-157l112 229l-112 228h157zM296 290l-114 228h-157l112 -228l-112 -229h157z" />
    <glyph glyph-name="quotedblleft" unicode="&#x201c;" horiz-adv-x="423" 
d="M413 775l-39 -259h-155l73 259h121zM204 775l-38 -259h-156l73 259h121z" />
    <glyph glyph-name="quotedblright" unicode="&#x201d;" horiz-adv-x="423" 
d="M413 775l-73 -259h-121l39 259h155zM204 775l-73 -259h-121l39 259h155z" />
    <glyph glyph-name="quotesinglbase" unicode="&#x201a;" horiz-adv-x="214" 
d="M204 167l-73 -259h-121l39 259h155z" />
    <glyph glyph-name="quotedblbase" unicode="&#x201e;" horiz-adv-x="423" 
d="M413 167l-73 -259h-121l39 259h155zM204 167h-155l-39 -259h121z" />
    <glyph glyph-name="ellipsis" unicode="&#x2026;" horiz-adv-x="659" 
d="M632 0h-161v167h161v-167zM410 0v167h-161v-167h161zM188 0h-161v167h161v-167z" />
    <glyph glyph-name="uni00AD" unicode="&#xad;" horiz-adv-x="230" 
d="M207 233h-184v124h184v-124z" />
    <glyph glyph-name="endash" unicode="&#x2013;" horiz-adv-x="311" 
d="M288 233h-265v124h265v-124z" />
    <glyph glyph-name="emdash" unicode="&#x2014;" horiz-adv-x="537" 
d="M514 233h-491v124h491v-124z" />
    <glyph glyph-name="exclamdown" unicode="&#xa1;" horiz-adv-x="270" 
d="M241 -198h-212l18 536h176zM233 577v-175h-196v175h196z" />
    <glyph glyph-name="questiondown" unicode="&#xbf;" horiz-adv-x="403" 
d="M378 -172c-60 -29 -139 -35 -193 -35c-102 0 -157 44 -157 152v8c0 44 7 84 38 150c47 98 79 164 79 209v21h140v-21c0 -76 -1 -115 -29 -181c-27 -63 -41 -105 -41 -134v-6c0 -26 5 -42 38 -42h17l7 35h101v-156zM296 410h-162v167h162v-167z" />
    <glyph glyph-name="periodcentered" unicode="&#xb7;" horiz-adv-x="213" 
d="M187 282h-161v168h161v-168z" />
    <glyph glyph-name="uni2219" unicode="&#x2219;" horiz-adv-x="213" 
d="M187 282h-161v168h161v-168z" />
    <glyph glyph-name="bullet" unicode="&#x2022;" horiz-adv-x="388" 
d="M361 367c0 -89 -74 -161 -167 -161s-167 72 -167 161s74 161 167 161s167 -72 167 -161z" />
    <glyph glyph-name="dagger" unicode="&#x2020;" horiz-adv-x="351" 
d="M324 448h-66v-578h-165v578h-66v149h66v178h165v-178h66v-149z" />
    <glyph glyph-name="daggerdbl" unicode="&#x2021;" horiz-adv-x="351" 
d="M324 200h-66v-330h-165v330h-66v148h66v99h-66v148h66v178h165v-178h66v-148h-66v-99h66v-148z" />
    <glyph glyph-name="section" unicode="&#xa7;" horiz-adv-x="436" 
d="M403 -5c0 -143 -76 -213 -224 -213c-80 0 -120 11 -153 24v167h110l9 -44h14c52 0 62 24 62 66c0 43 -15 58 -73 112l-30 28c-66 62 -92 123 -92 196c0 45 10 89 36 126c-25 37 -33 81 -33 110c0 118 54 193 198 193c70 0 130 -16 163 -27v-165h-110l-8 42h-28
c-36 0 -50 -13 -50 -42c0 -38 5 -50 76 -113l32 -28c80 -70 108 -126 108 -193c0 -56 -9 -96 -38 -132c22 -31 31 -70 31 -107zM253 201v26c0 49 -3 65 -29 88l-27 24c-12 11 -19 19 -26 27v-24c0 -46 2 -64 33 -93l25 -22c12 -11 18 -18 24 -26z" />
    <glyph glyph-name="paragraph" unicode="&#xb6;" horiz-adv-x="546" 
d="M519 -196h-110v821h-51v-821h-141v132l31 6v294h-9c-125 0 -213 72 -213 252v10c0 185 88 246 218 246h275v-940z" />
    <glyph glyph-name="copyright" unicode="&#xa9;" horiz-adv-x="569" 
d="M543 374c0 -244 -87 -388 -258 -388c-172 0 -259 144 -259 388c0 243 87 388 259 388c171 0 258 -145 258 -388zM458 374c0 187 -48 307 -173 307c-126 0 -174 -120 -174 -307c0 -188 48 -307 174 -307c125 0 173 119 173 307zM390 168c-14 -5 -54 -18 -103 -18
c-104 0 -133 72 -133 190v67c0 118 29 189 133 189c49 0 90 -12 103 -18v-104h-76l-5 20h-8c-27 0 -33 -23 -33 -87v-67c0 -65 6 -87 33 -87h8l5 20h76v-105z" />
    <glyph glyph-name="registered" unicode="&#xae;" horiz-adv-x="453" 
d="M427 477c0 -186 -69 -297 -201 -297s-200 111 -200 297c0 187 68 297 200 297s201 -110 201 -297zM353 477c0 140 -36 229 -127 229c-90 0 -127 -89 -127 -229s37 -229 127 -229c91 0 127 89 127 229zM321 333h-65l-29 102h-7h-12v-102h-73v52l12 2v184l-12 2v53
c27 3 52 4 86 4c44 0 90 -15 90 -96v-4c0 -38 -11 -61 -29 -75l22 -66l17 -4v-52zM250 530v4c0 26 -6 37 -29 37h-13v-83h16c23 0 26 11 26 42z" />
    <glyph glyph-name="trademark" unicode="&#x2122;" horiz-adv-x="833" 
d="M808 311h-147v172c0 21 1 43 3 67h-1c-5 -16 -13 -40 -18 -55l-18 -42h-59l-18 42c-5 15 -12 39 -16 55h-2c3 -24 3 -46 3 -67v-172h-147v87l18 4v279l-18 4v87h142l48 -114c6 -16 13 -39 20 -56h1c5 17 13 40 20 56l48 114h141v-87l-18 -4v-279l18 -4v-87zM362 645h-72
l-5 22h-25v-265l20 -4v-87h-171v87l18 4v265h-25l-6 -22h-71v127h337v-127z" />
    <glyph glyph-name="zero.oldstyle" unicode="&#xf730;" horiz-adv-x="479" 
d="M448 262c0 -149 -27 -275 -208 -275c-182 0 -209 126 -209 275v49c0 150 27 276 209 276c181 0 208 -126 208 -276v-49zM275 263v48c0 90 0 119 -35 119c-36 0 -37 -29 -37 -119v-48c0 -90 1 -119 37 -119c35 0 35 29 35 119z" />
    <glyph glyph-name="one.oldstyle" unicode="&#xf731;" horiz-adv-x="383" 
d="M356 0h-329v132l79 7v237l-79 -33v171l121 65h129v-440l79 -7v-132z" />
    <glyph glyph-name="two.oldstyle" unicode="&#xf732;" horiz-adv-x="429" 
d="M391 0h-361v147l81 75c80 73 113 109 113 163c0 42 -16 56 -68 56h-14l-9 -47h-102v169c35 12 98 24 160 24c139 0 208 -58 208 -181c0 -101 -49 -158 -123 -223l-41 -36h156v-147z" />
    <glyph glyph-name="three.oldstyle" unicode="&#xf733;" horiz-adv-x="421" 
d="M388 31c0 -148 -60 -213 -214 -213c-53 0 -111 11 -146 23v171h102l9 -49h11c41 0 63 3 63 81v17c0 60 -17 81 -62 81h-107v131h107c45 0 62 14 62 74v13c0 78 -22 81 -64 81h-10l-9 -47h-102v169c35 12 93 24 146 24c154 0 214 -65 214 -214v-12
c0 -83 -26 -123 -69 -154c43 -31 69 -77 69 -159v-17z" />
    <glyph glyph-name="four.oldstyle" unicode="&#xf734;" horiz-adv-x="453" 
d="M427 -7h-51v-54l30 -6v-100h-233v100l30 6v54h-181v135l210 449h144v-445h51v-139zM213 132v183l-73 -183h73z" />
    <glyph glyph-name="five.oldstyle" unicode="&#xf735;" horiz-adv-x="422" 
d="M389 59c0 -188 -100 -237 -214 -237c-69 0 -127 18 -146 24v171h102l10 -49h12c47 0 61 15 61 91v19c0 65 -7 82 -67 82h-117l21 418h326v-179h-102l-7 32h-72l-7 -133h10c159 0 190 -94 190 -220v-19z" />
    <glyph glyph-name="six.oldstyle" unicode="&#xf736;" horiz-adv-x="469" 
d="M438 226c0 -177 -91 -239 -211 -239c-121 0 -196 62 -196 239v272c0 198 65 258 213 258c59 0 137 -14 170 -23v-169h-102l-9 47c-11 0 -21 1 -32 1c-69 0 -69 -23 -69 -114v-28c9 1 26 3 51 3c120 0 185 -48 185 -208v-39zM264 226v38c0 69 -1 89 -36 89
c-7 0 -18 0 -26 -3v-124c0 -74 1 -103 30 -103c31 0 32 29 32 103z" />
    <glyph glyph-name="seven.oldstyle" unicode="&#xf737;" horiz-adv-x="433" 
d="M404 418l-196 -584h-173l207 597h-112l-7 -33h-102v179h383v-159z" />
    <glyph glyph-name="eight.oldstyle" unicode="&#xf738;" horiz-adv-x="475" 
d="M444 207c0 -216 -140 -220 -204 -220h-5c-64 0 -204 4 -204 220v8c0 86 22 130 64 171c-40 36 -61 85 -61 152v11c0 187 110 207 201 207h5c92 0 202 -20 202 -207v-11c0 -67 -21 -116 -61 -152c42 -41 63 -85 63 -171v-8zM270 207v8c0 87 -4 107 -30 107h-5
c-26 0 -31 -20 -31 -107v-8c0 -65 5 -86 31 -86h5c26 0 30 21 30 86zM270 538v8c0 52 -3 76 -30 76h-5c-27 0 -31 -24 -31 -76v-8c0 -62 4 -93 31 -93h5c27 0 30 31 30 93z" />
    <glyph glyph-name="nine.oldstyle" unicode="&#xf739;" horiz-adv-x="469" 
d="M438 76c0 -198 -65 -258 -213 -258c-59 0 -137 14 -170 23v170h102l9 -48c11 0 21 -1 32 -1c69 0 69 23 69 114v28c-9 -1 -26 -3 -51 -3c-120 0 -185 48 -185 208v39c0 177 91 239 211 239c121 0 196 -62 196 -239v-272zM267 224v124c0 74 -1 103 -30 103
c-31 0 -32 -29 -32 -103v-38c0 -69 1 -89 36 -89c7 0 18 0 26 3z" />
    <glyph glyph-name="zero.fitted" unicode="&#xe097;" 
d="M452 326c0 -165 -2 -339 -208 -339c-207 0 -209 174 -209 339v91c0 165 2 339 209 339c206 0 208 -174 208 -339v-91zM279 327v90c0 154 0 183 -35 183c-36 0 -37 -29 -37 -183v-90c0 -154 1 -183 37 -183c35 0 35 29 35 183z" />
    <glyph glyph-name="one.fitted" unicode="&#xf6dc;" 
d="M430 0h-374v124l102 7v440l-102 -32v141l143 63h129v-612l102 -7v-124z" />
    <glyph glyph-name="two.fitted" unicode="&#xe098;" 
d="M409 0h-349v94c0 184 22 232 122 340c59 65 71 83 71 122c0 43 -16 55 -67 55c-3 0 -6 0 -9 -1l-10 -47h-102v169c48 16 113 24 155 24c136 0 207 -54 207 -186c0 -78 -25 -132 -117 -229c-79 -82 -82 -98 -82 -185v-9h72l7 35h102v-182z" />
    <glyph glyph-name="three.fitted" unicode="&#xe099;" 
d="M423 201c0 -149 -59 -214 -214 -214c-53 0 -111 12 -146 24v171h102l9 -49h11c42 0 63 3 63 81v17c0 60 -17 80 -62 80h-107v132h107c45 0 62 14 62 74v13c0 78 -21 81 -63 81c-4 0 -8 0 -11 -1l-9 -46h-102v169c35 12 93 23 146 23c155 0 214 -65 214 -213v-13
c0 -82 -26 -122 -68 -153c42 -31 68 -77 68 -160v-16z" />
    <glyph glyph-name="four.fitted" unicode="&#xe09a;" 
d="M446 160h-52v-54l30 -6v-100h-232v100l30 6v54h-182v135l211 449h143v-445h52v-139zM231 299v182l-73 -182h73z" />
    <glyph glyph-name="five.fitted" unicode="&#xe09b;" 
d="M424 224c0 -188 -100 -237 -214 -237c-69 0 -127 18 -145 24v171h102l9 -49h13c46 0 60 15 60 91v19c0 65 -6 82 -67 82h-117l22 418h325v-179h-102l-7 32h-72l-7 -133h11c158 0 189 -94 189 -220v-19z" />
    <glyph glyph-name="six.fitted" unicode="&#xe09c;" 
d="M446 226c0 -177 -91 -239 -210 -239c-121 0 -196 62 -196 239v272c0 198 65 258 212 258c59 0 137 -14 171 -23v-169h-102l-9 47c-11 0 -22 1 -32 1c-70 0 -70 -23 -70 -114v-28c9 1 26 3 52 3c120 0 184 -48 184 -208v-39zM272 226v38c0 69 -1 89 -36 89
c-6 0 -17 0 -26 -3v-124c0 -74 1 -103 31 -103c31 0 31 29 31 103z" />
    <glyph glyph-name="seven.fitted" unicode="&#xe09d;" 
d="M435 584l-196 -584h-174l207 596h-112l-6 -32h-102v179h383v-159z" />
    <glyph glyph-name="eight.fitted" unicode="&#xe09e;" 
d="M449 207c0 -216 -140 -220 -204 -220h-5c-64 0 -203 4 -203 220v8c0 86 21 130 63 171c-40 36 -61 85 -61 152v11c0 187 110 207 201 207h5c92 0 202 -20 202 -207v-11c0 -67 -21 -116 -61 -152c42 -41 63 -85 63 -171v-8zM276 207v8c0 87 -5 107 -31 107h-5
c-26 0 -30 -20 -30 -107v-8c0 -65 4 -86 30 -86h5c26 0 31 21 31 86zM276 538v8c0 52 -4 76 -31 76h-5c-27 0 -30 -24 -30 -76v-8c0 -62 3 -93 30 -93h5c27 0 31 31 31 93z" />
    <glyph glyph-name="nine.fitted" unicode="&#xe09f;" 
d="M446 246c0 -198 -65 -258 -212 -258c-60 0 -137 14 -171 23v170h102l9 -48c11 0 22 -1 32 -1c69 0 69 23 69 114v28c-8 -1 -25 -3 -51 -3c-120 0 -184 48 -184 208v39c0 177 91 239 210 239c121 0 196 -62 196 -239v-272zM275 394v124c0 74 0 103 -30 103
c-31 0 -31 -29 -31 -103v-38c0 -69 0 -89 35 -89c7 0 18 0 26 3z" />
    <glyph glyph-name="zero.taboldstyle" unicode="&#xe100;" 
d="M434 262c0 -149 -27 -275 -208 -275c-182 0 -209 126 -209 275v49c0 150 27 276 209 276c181 0 208 -126 208 -276v-49zM262 263v48c0 90 -1 119 -36 119c-36 0 -36 -29 -36 -119v-48c0 -90 0 -119 36 -119c35 0 36 29 36 119z" />
    <glyph glyph-name="one.taboldstyle" unicode="&#xe101;" 
d="M438 0h-389v145l109 2v237l-109 -32v163l151 64h129v-432l109 -2v-145z" />
    <glyph glyph-name="two.taboldstyle" unicode="&#xe102;" 
d="M420 0h-361v147l82 75c79 73 112 109 112 163c0 42 -15 56 -67 56h-15l-9 -47h-102v169c35 12 98 24 161 24c138 0 207 -58 207 -181c0 -101 -49 -158 -123 -223l-41 -36h156v-147z" />
    <glyph glyph-name="three.taboldstyle" unicode="&#xe103;" 
d="M421 31c0 -148 -60 -213 -214 -213c-53 0 -111 11 -146 23v171h102l9 -49h11c41 0 63 3 63 81v17c0 60 -17 81 -62 81h-107v131h107c45 0 62 14 62 74v13c0 78 -22 81 -64 81h-10l-9 -47h-102v169c35 12 93 24 146 24c154 0 214 -65 214 -214v-12
c0 -83 -26 -123 -69 -154c43 -31 69 -77 69 -159v-17z" />
    <glyph glyph-name="four.taboldstyle" unicode="&#xe104;" 
d="M443 -7h-51v-54l30 -6v-100h-233v100l30 6v54h-181v135l211 449h143v-445h51v-139zM229 132v183l-73 -183h73z" />
    <glyph glyph-name="five.taboldstyle" unicode="&#xe105;" 
d="M422 59c0 -188 -100 -237 -214 -237c-69 0 -127 18 -146 24v171h102l10 -49h12c47 0 61 15 61 91v19c0 65 -7 82 -67 82h-117l21 418h326v-179h-102l-7 32h-72l-7 -133h10c159 0 190 -94 190 -220v-19z" />
    <glyph glyph-name="six.taboldstyle" unicode="&#xe106;" 
d="M446 226c0 -177 -91 -239 -210 -239c-121 0 -196 62 -196 239v272c0 198 65 258 212 258c60 0 137 -14 171 -23v-169h-102l-9 47c-11 0 -22 1 -32 1c-69 0 -69 -23 -69 -114v-28c8 1 25 3 51 3c120 0 184 -48 184 -208v-39zM272 226v38c0 69 0 89 -35 89
c-7 0 -18 0 -26 -3v-124c0 -74 0 -103 30 -103c31 0 31 29 31 103z" />
    <glyph glyph-name="seven.taboldstyle" unicode="&#xe107;" 
d="M431 418l-196 -584h-174l207 597h-112l-7 -33h-102v179h384v-159z" />
    <glyph glyph-name="eight.taboldstyle" unicode="&#xe108;" 
d="M450 207c0 -216 -141 -220 -205 -220h-4c-64 0 -204 4 -204 220v8c0 86 21 130 64 171c-41 36 -61 85 -61 152v11c0 187 109 207 201 207h4c93 0 202 -20 202 -207v-11c0 -67 -20 -116 -61 -152c43 -41 64 -85 64 -171v-8zM276 207v8c0 87 -4 107 -30 107h-6
c-26 0 -30 -20 -30 -107v-8c0 -65 4 -86 31 -86h4c27 0 31 21 31 86zM276 538v8c0 52 -4 76 -31 76h-4c-27 0 -31 -24 -31 -76v-8c0 -62 4 -93 30 -93h6c26 0 30 31 30 93z" />
    <glyph glyph-name="nine.taboldstyle" unicode="&#xe109;" 
d="M446 76c0 -198 -65 -258 -212 -258c-59 0 -137 14 -171 23v170h102l9 -48c11 0 22 -1 32 -1c70 0 70 23 70 114v28c-9 -1 -26 -3 -52 -3c-120 0 -184 48 -184 208v39c0 177 91 239 210 239c121 0 196 -62 196 -239v-272zM276 224v124c0 74 -1 103 -31 103
c-31 0 -31 -29 -31 -103v-38c0 -69 1 -89 36 -89c6 0 17 0 26 3z" />
    <glyph glyph-name="onequarter" unicode="&#xbc;" horiz-adv-x="700" 
d="M675 94h-32v-30l18 -3v-61h-146v61l19 3v30h-116v83l135 270h90v-266h32v-87zM540 181v106l-47 -106h47zM559 743l-267 -743h-140l267 743h140zM220 302h-195v81l41 4v230l-41 -19v112l69 39h84v-362l42 -4v-81z" />
    <glyph glyph-name="onehalf" unicode="&#xbd;" horiz-adv-x="743" 
d="M707 0h-222v56c0 113 13 142 78 206c38 37 45 48 45 71s-10 31 -41 31c-3 0 -5 -1 -8 -1l-6 -29h-63v106c30 9 72 14 98 14c85 0 130 -33 130 -113c0 -48 -17 -82 -75 -137c-49 -48 -52 -57 -52 -107v-6h47l5 22h64v-113zM559 743l-267 -743h-140l267 743h140zM220 302
h-195v81l41 4v230l-41 -19v112l69 39h84v-362l42 -4v-81z" />
    <glyph glyph-name="threequarters" unicode="&#xbe;" horiz-adv-x="713" 
d="M688 94h-32v-30l19 -3v-61h-147v61l19 3v30h-116v83l135 270h90v-266h32v-87zM553 181v106l-47 -106h47zM572 743l-267 -743h-139l266 743h140zM252 423c0 -90 -36 -130 -134 -130c-33 0 -70 7 -93 14v106h64l5 -29h9c26 0 39 2 39 47v10c0 35 -10 47 -39 47h-68v81h68
c29 0 39 9 39 43v7c0 45 -13 47 -40 47h-8l-5 -29h-64v105c23 8 60 15 93 15c97 0 134 -40 134 -130v-7c0 -48 -15 -73 -42 -92c27 -19 42 -46 42 -96v-9z" />
    <glyph glyph-name="oneeighth" unicode="&#x215b;" horiz-adv-x="768" 
d="M743 123c0 -130 -89 -132 -130 -132h-3c-41 0 -129 2 -129 132v6c0 51 13 78 39 102c-25 22 -38 53 -38 92v6c0 115 72 125 128 125h3c57 0 128 -10 128 -125v-6c0 -39 -12 -70 -38 -92c27 -24 40 -51 40 -102v-6zM633 123v6c0 51 -2 62 -18 62h-7c-16 0 -18 -11 -18 -62
v-6c0 -38 3 -49 20 -49h3c17 0 20 11 20 49zM633 322v5c0 30 -3 43 -20 43h-3c-17 0 -20 -13 -20 -43v-5c0 -36 2 -53 18 -53h7c16 0 18 17 18 53zM559 743l-267 -743h-140l267 743h140zM220 302h-195v81l41 4v230l-41 -19v112l69 39h84v-362l42 -4v-81z" />
    <glyph glyph-name="threeeighths" unicode="&#x215c;" horiz-adv-x="787" 
d="M762 123c0 -130 -88 -132 -129 -132h-3c-41 0 -129 2 -129 132v6c0 51 13 78 39 102c-25 22 -38 53 -38 92v6c0 115 72 125 128 125h3c57 0 128 -10 128 -125v-6c0 -39 -12 -70 -38 -92c26 -24 39 -51 39 -102v-6zM653 123v6c0 51 -2 62 -18 62h-7c-16 0 -18 -11 -18 -62
v-6c0 -38 3 -49 20 -49h3c17 0 20 11 20 49zM653 322v5c0 30 -3 43 -20 43h-3c-17 0 -20 -13 -20 -43v-5c0 -36 2 -53 18 -53h7c16 0 18 17 18 53zM579 743l-267 -743h-140l267 743h140zM252 423c0 -90 -36 -130 -134 -130c-33 0 -70 7 -93 14v106h64l5 -29h11
c24 0 37 2 37 47v10c0 35 -10 47 -39 47h-68v81h68c29 0 39 9 39 43v7c0 45 -11 47 -36 47h-12l-5 -29h-64v105c23 8 60 15 93 15c97 0 134 -40 134 -130v-7c0 -48 -15 -73 -42 -92c27 -19 42 -46 42 -96v-9z" />
    <glyph glyph-name="fiveeighths" unicode="&#x215d;" horiz-adv-x="780" 
d="M755 123c0 -130 -89 -132 -130 -132h-3c-41 0 -129 2 -129 132v6c0 51 13 78 39 102c-25 22 -38 53 -38 92v6c0 115 72 125 128 125h3c57 0 128 -10 128 -125v-6c0 -39 -12 -70 -38 -92c27 -24 40 -51 40 -102v-6zM645 123v6c0 51 -2 62 -18 62h-7c-16 0 -18 -11 -18 -62
v-6c0 -38 3 -49 20 -49h3c17 0 20 11 20 49zM645 322v5c0 30 -3 43 -20 43h-3c-17 0 -20 -13 -20 -43v-5c0 -36 2 -53 18 -53h7c16 0 18 17 18 53zM571 743l-267 -743h-140l267 743h140zM253 432c0 -114 -62 -145 -134 -145c-44 0 -81 11 -93 14v107h64l5 -29
c3 -1 7 -1 10 -1c30 0 38 10 38 54v10c0 38 -4 47 -41 47h-76l14 255h206v-112h-64l-5 20h-47l-4 -77h9c97 0 118 -55 118 -133v-10z" />
    <glyph glyph-name="seveneighths" unicode="&#x215e;" horiz-adv-x="732" 
d="M707 123c0 -130 -89 -132 -129 -132h-3c-41 0 -129 2 -129 132v6c0 51 13 78 39 102c-25 22 -38 53 -38 92v6c0 115 72 125 128 125h3c57 0 127 -10 127 -125v-6c0 -39 -12 -70 -37 -92c26 -24 39 -51 39 -102v-6zM597 123v6c0 51 -1 62 -17 62h-7c-16 0 -18 -11 -18 -62
v-6c0 -38 3 -49 20 -49h3c16 0 19 11 19 49zM597 322v5c0 30 -2 43 -19 43h-3c-17 0 -20 -13 -20 -43v-5c0 -36 2 -53 18 -53h7c16 0 17 17 17 53zM523 743l-266 -743h-140l267 743h139zM253 645l-115 -348h-110l122 355h-58l-3 -20h-64v112h228v-99z" />
    <glyph glyph-name="onethird" unicode="&#x2153;" horiz-adv-x="753" 
d="M728 120c0 -89 -37 -129 -134 -129c-33 0 -71 6 -94 14v106h64l6 -29h9c25 0 39 1 39 47v10c0 34 -11 46 -39 46h-69v82h69c28 0 39 8 39 42v8c0 45 -13 47 -40 47c-3 0 -6 -1 -8 -1l-6 -28h-64v105c23 8 60 14 94 14c97 0 134 -40 134 -129v-7c0 -48 -16 -73 -43 -92
c27 -19 43 -47 43 -96v-10zM559 743l-267 -743h-140l267 743h140zM220 302h-195v81l41 4v230l-41 -19v112l69 39h84v-362l42 -4v-81z" />
    <glyph glyph-name="twothirds" unicode="&#x2154;" horiz-adv-x="779" 
d="M754 120c0 -89 -37 -129 -134 -129c-33 0 -70 6 -93 14v106h64l5 -29h9c26 0 39 1 39 47v10c0 34 -10 46 -39 46h-69v82h69c29 0 39 8 39 42v8c0 45 -13 47 -40 47c-3 0 -5 -1 -8 -1l-5 -28h-64v105c22 8 60 14 93 14c97 0 134 -40 134 -129v-7c0 -48 -16 -73 -43 -92
c28 -19 43 -47 43 -96v-10zM585 743l-267 -743h-139l267 743h139zM246 302h-221v57c0 112 14 140 78 205c37 38 44 48 44 71c0 24 -10 31 -41 31h-8l-6 -30h-63v106c30 10 72 15 98 15c86 0 130 -33 130 -113c0 -48 -17 -82 -75 -138c-49 -47 -51 -56 -51 -107v-5h47l4 21
h64v-113z" />
    <glyph glyph-name="zero.numerator" unicode="&#xe11e;" horiz-adv-x="322" 
d="M297 509c0 -104 -4 -215 -136 -215c-133 0 -137 111 -137 215v33c0 105 4 216 137 216c132 0 136 -111 136 -216v-33zM183 509v33c0 98 -3 113 -22 113c-20 0 -22 -15 -22 -113v-33c0 -97 2 -112 22 -112c19 0 22 15 22 112z" />
    <glyph glyph-name="one.numerator" unicode="&#xe11f;" horiz-adv-x="250" 
d="M223 302h-195v81l40 4v230l-40 -19v112l69 39h84v-362l42 -4v-81z" />
    <glyph glyph-name="two.numerator" unicode="&#xe120;" horiz-adv-x="285" 
d="M248 302h-221v57c0 112 13 140 77 205c38 38 45 48 45 71c0 24 -10 31 -41 31h-8l-6 -30h-63v106c30 10 72 15 98 15c85 0 130 -33 130 -113c0 -48 -17 -82 -75 -138c-50 -47 -51 -56 -51 -107v-5h47l4 21h64v-113z" />
    <glyph glyph-name="three.numerator" unicode="&#xe121;" horiz-adv-x="280" 
d="M254 423c0 -90 -37 -130 -134 -130c-33 0 -71 7 -93 14v106h64l5 -29h9c26 0 39 2 39 47v10c0 35 -10 47 -39 47h-69v81h69c29 0 39 9 39 43v7c0 45 -13 47 -40 47h-8l-5 -29h-64v105c22 8 60 15 93 15c97 0 134 -40 134 -130v-7c0 -48 -16 -73 -43 -92
c27 -19 43 -46 43 -96v-9z" />
    <glyph glyph-name="four.numerator" unicode="&#xe122;" horiz-adv-x="304" 
d="M280 396h-32v-30l19 -3v-61h-147v61l19 3v30h-115v83l134 269h90v-265h32v-87zM145 483v105l-47 -105h47z" />
    <glyph glyph-name="five.numerator" unicode="&#xe123;" horiz-adv-x="281" 
d="M255 432c0 -114 -62 -145 -134 -145c-45 0 -81 11 -94 14v107h64l5 -29c4 -1 7 -1 11 -1c30 0 38 10 38 54v10c0 38 -5 47 -41 47h-77l14 255h206v-112h-64l-4 20h-47l-4 -77h9c96 0 118 -55 118 -133v-10z" />
    <glyph glyph-name="six.numerator" unicode="&#xe124;" horiz-adv-x="307" 
d="M282 439c0 -107 -57 -145 -133 -145c-78 0 -124 39 -124 147v159c0 122 42 158 133 158c38 0 88 -9 109 -15v-105h-64l-6 28c-6 1 -14 1 -21 1c-44 0 -44 -13 -44 -66v-15c6 1 17 2 33 2c75 0 117 -28 117 -127v-22zM172 439v21c0 42 -2 53 -23 53c-4 0 -11 0 -17 -2v-71
c0 -47 2 -62 20 -62s20 16 20 61z" />
    <glyph glyph-name="seven.numerator" unicode="&#xe125;" horiz-adv-x="281" 
d="M255 645l-116 -348h-109l121 355h-57l-3 -20h-64v112h228v-99z" />
    <glyph glyph-name="eight.numerator" unicode="&#xe126;" horiz-adv-x="310" 
d="M285 425c0 -130 -88 -132 -129 -132h-3c-41 0 -129 2 -129 132v6c0 51 13 78 39 103c-25 22 -38 52 -38 91v6c0 116 72 126 128 126h3c57 0 128 -10 128 -126v-6c0 -39 -12 -69 -38 -91c26 -25 39 -52 39 -103v-6zM176 425v6c0 52 -2 63 -18 63h-7c-16 0 -18 -11 -18 -63
v-6c0 -37 3 -49 20 -49h3c17 0 20 12 20 49zM176 625v4c0 30 -3 44 -20 44h-3c-17 0 -20 -14 -20 -44v-4c0 -36 2 -54 18 -54h7c16 0 18 18 18 54z" />
    <glyph glyph-name="nine.numerator" unicode="&#xe127;" horiz-adv-x="307" 
d="M282 450c0 -122 -42 -157 -133 -157c-38 0 -87 5 -110 14v106h64l6 -29c7 -1 14 -1 22 -1c43 0 43 13 43 66v17c-6 -1 -17 -2 -32 -2c-76 0 -117 28 -117 127v21c0 106 57 145 133 145c78 0 124 -40 124 -147v-160zM174 540v71c0 46 -2 62 -20 62s-20 -16 -20 -61v-21
c0 -41 2 -52 23 -52c4 0 12 0 17 1z" />
    <glyph glyph-name="fraction" unicode="&#x2044;" horiz-adv-x="366" 
d="M386 743l-266 -743h-140l267 743h139z" />
    <glyph glyph-name="uni2215" unicode="&#x2215;" horiz-adv-x="366" 
d="M386 743l-266 -743h-140l267 743h139z" />
    <glyph glyph-name="zero.denominator" unicode="&#xe10a;" horiz-adv-x="322" 
d="M297 207c0 -105 -4 -216 -136 -216c-133 0 -137 111 -137 216v33c0 105 4 215 137 215c132 0 136 -110 136 -215v-33zM183 207v33c0 98 -3 113 -22 113c-20 0 -22 -15 -22 -113v-33c0 -98 2 -113 22 -113c19 0 22 15 22 113z" />
    <glyph glyph-name="one.denominator" unicode="&#xe10b;" horiz-adv-x="250" 
d="M223 0h-195v81l40 3v231l-40 -19v111l69 40h84v-363l42 -3v-81z" />
    <glyph glyph-name="two.denominator" unicode="&#xe10c;" horiz-adv-x="285" 
d="M248 0h-221v56c0 113 12 142 77 206c38 37 45 48 45 71s-10 31 -41 31c-2 0 -5 -1 -8 -1l-6 -29h-63v106c30 9 72 14 98 14c85 0 130 -33 130 -113c0 -48 -17 -81 -75 -137c-50 -47 -51 -57 -51 -107v-6h47l4 22h64v-113z" />
    <glyph glyph-name="three.denominator" unicode="&#xe10d;" horiz-adv-x="280" 
d="M254 120c0 -89 -37 -129 -134 -129c-33 0 -71 6 -93 14v106h64l5 -29h9c26 0 39 1 39 47v10c0 34 -10 46 -39 46h-69v82h69c29 0 39 8 39 42v8c0 45 -13 47 -40 47c-3 0 -6 -1 -8 -1l-5 -28h-64v105c22 8 60 14 93 14c97 0 134 -40 134 -129v-7c0 -48 -16 -73 -43 -92
c27 -19 43 -47 43 -96v-10z" />
    <glyph glyph-name="four.denominator" unicode="&#xe10e;" horiz-adv-x="304" 
d="M280 93h-32v-29l19 -3v-62h-147v62l19 3v29h-115v84l134 269h90v-266h32v-87zM145 180v106l-47 -106h47z" />
    <glyph glyph-name="five.denominator" unicode="&#xe10f;" horiz-adv-x="281" 
d="M255 129c0 -113 -62 -144 -134 -144c-45 0 -81 10 -94 14v106h64l5 -29h11c30 0 38 9 38 53v11c0 38 -5 47 -41 47h-77l14 254h206v-111h-64l-4 20h-47l-4 -77h9c96 0 118 -55 118 -133v-11z" />
    <glyph glyph-name="six.denominator" unicode="&#xe110;" horiz-adv-x="307" 
d="M282 136c0 -106 -57 -145 -133 -145c-78 0 -124 39 -124 147v160c0 122 42 157 133 157c38 0 88 -9 109 -14v-105h-64l-6 28h-21c-44 0 -44 -12 -44 -66v-15c6 2 17 2 33 2c75 0 117 -27 117 -126v-23zM172 136v22c0 42 -2 53 -23 53c-4 0 -11 0 -17 -2v-71
c0 -47 2 -62 20 -62s20 15 20 60z" />
    <glyph glyph-name="seven.denominator" unicode="&#xe111;" horiz-adv-x="281" 
d="M255 343l-116 -349h-109l121 356h-57l-3 -20h-64v111h228v-98z" />
    <glyph glyph-name="eight.denominator" unicode="&#xe112;" horiz-adv-x="310" 
d="M285 123c0 -130 -88 -132 -129 -132h-3c-41 0 -129 2 -129 132v6c0 51 13 78 39 102c-25 22 -38 53 -38 92v6c0 115 72 125 128 125h3c57 0 128 -10 128 -125v-6c0 -39 -12 -70 -38 -92c26 -24 39 -51 39 -102v-6zM176 123v6c0 51 -2 62 -18 62h-7c-16 0 -18 -11 -18 -62
v-6c0 -38 3 -49 20 -49h3c17 0 20 11 20 49zM176 322v5c0 30 -3 43 -20 43h-3c-17 0 -20 -13 -20 -43v-5c0 -36 2 -53 18 -53h7c16 0 18 17 18 53z" />
    <glyph glyph-name="nine.denominator" unicode="&#xe113;" horiz-adv-x="307" 
d="M282 148c0 -122 -42 -157 -133 -157c-38 0 -87 5 -110 14v106h64l6 -30h22c43 0 43 12 43 66v17c-6 -1 -17 -3 -32 -3c-76 0 -117 28 -117 127v22c0 105 57 144 133 144c78 0 124 -39 124 -146v-160zM174 238v70c0 47 -2 62 -20 62s-20 -15 -20 -60v-21
c0 -41 2 -52 23 -52c4 0 12 0 17 1z" />
    <glyph glyph-name="zero.superior" unicode="&#x2070;" horiz-adv-x="322" 
d="M297 509c0 -104 -4 -215 -136 -215c-133 0 -137 111 -137 215v33c0 105 4 216 137 216c132 0 136 -111 136 -216v-33zM183 509v33c0 98 -3 113 -22 113c-20 0 -22 -15 -22 -113v-33c0 -97 2 -112 22 -112c19 0 22 15 22 112z" />
    <glyph glyph-name="four.superior" unicode="&#x2074;" horiz-adv-x="304" 
d="M280 396h-32v-30l19 -3v-61h-147v61l19 3v30h-115v83l134 269h90v-265h32v-87zM145 483v105l-47 -105h47z" />
    <glyph glyph-name="five.superior" unicode="&#x2075;" horiz-adv-x="281" 
d="M255 432c0 -114 -62 -145 -134 -145c-45 0 -81 11 -94 14v107h64l5 -29c4 -1 7 -1 11 -1c30 0 38 10 38 54v10c0 38 -5 47 -41 47h-77l14 255h206v-112h-64l-4 20h-47l-4 -77h9c96 0 118 -55 118 -133v-10z" />
    <glyph glyph-name="six.superior" unicode="&#x2076;" horiz-adv-x="307" 
d="M282 439c0 -107 -57 -145 -133 -145c-78 0 -124 39 -124 147v159c0 122 42 158 133 158c38 0 88 -9 109 -15v-105h-64l-6 28c-6 1 -14 1 -21 1c-44 0 -44 -13 -44 -66v-15c6 1 17 2 33 2c75 0 117 -28 117 -127v-22zM172 439v21c0 42 -2 53 -23 53c-4 0 -11 0 -17 -2v-71
c0 -47 2 -62 20 -62s20 16 20 61z" />
    <glyph glyph-name="seven.superior" unicode="&#x2077;" horiz-adv-x="281" 
d="M255 645l-116 -348h-109l121 355h-57l-3 -20h-64v112h228v-99z" />
    <glyph glyph-name="eight.superior" unicode="&#x2078;" horiz-adv-x="310" 
d="M285 425c0 -130 -88 -132 -129 -132h-3c-41 0 -129 2 -129 132v6c0 51 13 78 39 103c-25 22 -38 52 -38 91v6c0 116 72 126 128 126h3c57 0 128 -10 128 -126v-6c0 -39 -12 -69 -38 -91c26 -25 39 -52 39 -103v-6zM176 425v6c0 52 -2 63 -18 63h-7c-16 0 -18 -11 -18 -63
v-6c0 -37 3 -49 20 -49h3c17 0 20 12 20 49zM176 625v4c0 30 -3 44 -20 44h-3c-17 0 -20 -14 -20 -44v-4c0 -36 2 -54 18 -54h7c16 0 18 18 18 54z" />
    <glyph glyph-name="nine.superior" unicode="&#x2079;" horiz-adv-x="307" 
d="M282 450c0 -122 -42 -157 -133 -157c-38 0 -87 5 -110 14v106h64l6 -29c7 -1 14 -1 22 -1c43 0 43 13 43 66v17c-6 -1 -17 -2 -32 -2c-76 0 -117 28 -117 127v21c0 106 57 145 133 145c78 0 124 -40 124 -147v-160zM174 540v71c0 46 -2 62 -20 62s-20 -16 -20 -61v-21
c0 -41 2 -52 23 -52c4 0 12 0 17 1z" />
    <glyph glyph-name="zero.inferior" unicode="&#x2080;" horiz-adv-x="322" 
d="M297 206c0 -105 -4 -215 -136 -215c-133 0 -137 110 -137 215v33c0 105 4 215 137 215c132 0 136 -110 136 -215v-33zM183 206v33c0 98 -3 113 -22 113c-20 0 -22 -15 -22 -113v-33c0 -98 2 -113 22 -113c19 0 22 15 22 113z" />
    <glyph glyph-name="one.inferior" unicode="&#x2081;" horiz-adv-x="250" 
d="M223 0h-195v81l40 3v231l-40 -19v111l69 40h84v-363l42 -3v-81z" />
    <glyph glyph-name="two.inferior" unicode="&#x2082;" horiz-adv-x="285" 
d="M248 0h-221v56c0 113 12 142 77 206c38 37 45 48 45 71s-10 31 -41 31c-2 0 -5 -1 -8 -1l-6 -29h-63v106c30 9 72 14 98 14c85 0 130 -33 130 -113c0 -48 -17 -81 -75 -137c-50 -47 -51 -57 -51 -107v-6h47l4 22h64v-113z" />
    <glyph glyph-name="three.inferior" unicode="&#x2083;" horiz-adv-x="280" 
d="M254 120c0 -89 -37 -129 -134 -129c-33 0 -71 6 -93 14v106h64l5 -29h9c26 0 39 1 39 47v10c0 34 -10 46 -39 46h-69v82h69c29 0 39 8 39 42v8c0 45 -13 47 -40 47c-3 0 -6 -1 -8 -1l-5 -28h-64v105c22 8 60 14 93 14c97 0 134 -40 134 -129v-7c0 -48 -16 -73 -43 -92
c27 -19 43 -47 43 -96v-10z" />
    <glyph glyph-name="four.inferior" unicode="&#x2084;" horiz-adv-x="304" 
d="M280 94h-32v-30l19 -3v-61h-147v61l19 3v30h-115v83l134 270h90v-266h32v-87zM145 181v106l-47 -106h47z" />
    <glyph glyph-name="five.inferior" unicode="&#x2085;" horiz-adv-x="281" 
d="M255 135c0 -114 -62 -144 -134 -144c-45 0 -81 10 -94 14v106h64l5 -29h11c30 0 38 9 38 53v11c0 37 -5 47 -41 47h-77l14 254h206v-111h-64l-4 19h-47l-4 -77h9c96 0 118 -55 118 -132v-11z" />
    <glyph glyph-name="six.inferior" unicode="&#x2086;" horiz-adv-x="307" 
d="M282 135c0 -106 -57 -144 -133 -144c-78 0 -124 39 -124 147v159c0 122 42 157 133 157c38 0 88 -9 109 -14v-105h-64l-6 28c-6 0 -14 1 -21 1c-44 0 -44 -13 -44 -67v-15c6 2 17 3 33 3c75 0 117 -28 117 -127v-23zM172 135v22c0 42 -2 53 -23 53c-4 0 -11 0 -17 -2v-71
c0 -47 2 -62 20 -62s20 15 20 60z" />
    <glyph glyph-name="seven.inferior" unicode="&#x2087;" horiz-adv-x="281" 
d="M255 348l-116 -348h-109l121 355h-57l-3 -19h-64v111h228v-99z" />
    <glyph glyph-name="eight.inferior" unicode="&#x2088;" horiz-adv-x="310" 
d="M285 123c0 -130 -88 -132 -129 -132h-3c-41 0 -129 2 -129 132v6c0 51 13 78 39 102c-25 22 -38 53 -38 92v6c0 115 72 125 128 125h3c57 0 128 -10 128 -125v-6c0 -39 -12 -70 -38 -92c26 -24 39 -51 39 -102v-6zM176 123v6c0 51 -2 62 -18 62h-7c-16 0 -18 -11 -18 -62
v-6c0 -38 3 -49 20 -49h3c17 0 20 11 20 49zM176 322v5c0 30 -3 43 -20 43h-3c-17 0 -20 -13 -20 -43v-5c0 -36 2 -53 18 -53h7c16 0 18 17 18 53z" />
    <glyph glyph-name="nine.inferior" unicode="&#x2089;" horiz-adv-x="307" 
d="M282 148c0 -122 -42 -157 -133 -157c-38 0 -87 5 -110 14v106h64l6 -30h22c43 0 43 12 43 66v17c-6 -1 -17 -3 -32 -3c-76 0 -117 28 -117 127v22c0 105 57 144 133 144c78 0 124 -39 124 -146v-160zM174 238v70c0 47 -2 62 -20 62s-20 -15 -20 -60v-21
c0 -41 2 -52 23 -52c4 0 12 0 17 1z" />
    <glyph glyph-name="Euro" unicode="&#x20ac;" horiz-adv-x="457" 
d="M431 8c-33 -13 -115 -21 -156 -21c-125 0 -201 47 -210 280h-40v69h39v75h-39v68h40c9 232 85 277 210 277c41 0 123 -8 156 -20v-172h-107l-8 29h-11c-39 0 -61 -6 -65 -114h172l-10 -68h-164v-75h152l-10 -69h-141c4 -109 25 -116 68 -116c41 0 82 1 124 2v-145z" />
    <glyph glyph-name="sterling" unicode="&#xa3;" horiz-adv-x="441" 
d="M416 0h-387v113c26 28 40 64 40 108v80h-44v147h44v50c0 195 60 258 196 258c28 0 92 -5 151 -25v-175h-108l-8 37h-9c-45 0 -55 -15 -55 -92v-53h105v-147h-105v-80c0 -30 -6 -55 -16 -73h196v-148z" />
    <glyph glyph-name="yen" unicode="&#xa5;" horiz-adv-x="497" 
d="M471 211h-137v-73l31 -6v-132h-232v132l30 6v73h-137v111h123l-18 63h-104v111h70l-30 106l-44 9v132h181l28 -166c6 -34 12 -89 15 -121h2c4 32 10 87 16 121l29 166h180v-132l-45 -9l-30 -106h72v-111h-105l-19 -63h124v-111z" />
    <glyph glyph-name="florin" unicode="&#x192;" horiz-adv-x="466" 
d="M444 739l-10 -114h-52c-34 0 -38 -7 -42 -49l-10 -116h94l-12 -133h-93l-27 -329c-12 -144 -75 -181 -167 -181c-47 0 -84 10 -103 17l10 114h52c34 0 38 6 42 49l28 330h-91l12 133h90l9 115c12 144 85 181 168 181c46 0 83 -10 102 -17z" />
    <glyph glyph-name="cent" unicode="&#xa2;" horiz-adv-x="380" 
d="M357 16c-21 -7 -49 -15 -80 -19v-92h-146v98c-77 28 -105 103 -105 241v90c0 136 28 212 105 239v98h146v-89c38 -6 67 -16 80 -21v-149h-108l-6 29h-5c-40 0 -47 -17 -47 -107v-90c0 -91 7 -108 47 -108c34 0 86 4 119 7v-127z" />
    <glyph glyph-name="peseta" unicode="&#x20a7;" horiz-adv-x="532" 
d="M274 0h-237v124l30 6v303h-44v137h44v43l-30 6v124c70 7 126 9 206 9c109 0 206 -31 226 -182h44v-137h-44c-20 -149 -115 -185 -206 -185h-24v-118l35 -6v-124zM302 495v11c0 67 -4 91 -48 91h-15v-194c6 -1 11 -1 18 -1c41 0 45 35 45 93z" />
    <glyph glyph-name="peseta.taboldstyle" unicode="&#xe439;" horiz-adv-x="504" 
d="M254 0h-218v112l23 5v213h-34v111h34v36l-29 4v98c57 6 122 10 192 10c98 0 190 -23 207 -148h50v-111h-50c-20 -124 -107 -147 -185 -147h-23v-66l33 -5v-112zM272 383v7c0 45 -3 61 -36 61c-5 0 -9 0 -15 -1v-128c6 -1 10 -1 17 -1c30 0 34 24 34 62z" />
    <glyph glyph-name="franc" unicode="&#x20a3;" horiz-adv-x="413" 
d="M387 306h-162v-86h87v-114h-87v-106h-172v106h-30v114h30v393l-30 6v124h366v-187h-110l-6 28h-48v-134h162v-144z" />
    <glyph glyph-name="franc.taboldstyle" unicode="&#xe431;" horiz-adv-x="413" 
d="M385 228h-141v-55h68v-97h-68v-76h-166v76h-51v97h51v290l-27 6v111h335v-168h-83l-5 26h-54v-81h141v-129z" />
    <glyph glyph-name="rupiah" unicode="&#xf6dd;" horiz-adv-x="953" 
d="M486 0h-181l-61 260h-8h-11v-260h-200v125l30 3v487l-30 3v125c71 6 128 9 190 9c129 0 244 -39 244 -246v-9c0 -95 -25 -156 -66 -194l53 -173l40 -5v-125zM288 497v9c0 67 -4 91 -49 91h-14v-195h18c43 0 45 38 45 95zM724 -196h-224v126l30 4v514l-30 5v124h179v-31
c35 30 83 41 111 41c104 0 126 -60 126 -242v-105c0 -164 -43 -249 -192 -249h-30v-57l30 -4v-126zM750 240v105c0 82 -1 94 -30 94c-8 0 -23 -2 -34 -9v-293c9 -1 13 -2 20 -2c36 0 44 8 44 105z" />
    <glyph glyph-name="currency" unicode="&#xa4;" horiz-adv-x="550" 
d="M523 198l-82 -75l-68 65c-30 -16 -63 -24 -95 -24c-34 0 -66 7 -98 24l-72 -69l-80 76l72 70c-16 28 -24 60 -24 93c0 32 7 63 24 92l-73 70l81 75l71 -69c31 18 64 25 99 25c34 0 67 -6 96 -24l70 66l79 -76l-70 -66c18 -30 27 -62 27 -94c0 -33 -8 -65 -26 -94z
M362 358c0 51 -39 83 -85 83s-85 -32 -85 -83c0 -55 40 -84 85 -84c43 0 85 29 85 84z" />
    <glyph glyph-name="quotesingle" unicode="'" horiz-adv-x="208" 
d="M198 775l-54 -258h-134l34 258h154z" />
    <glyph glyph-name="degree" unicode="&#xb0;" horiz-adv-x="346" 
d="M321 614c0 -79 -66 -142 -148 -142s-148 63 -148 142s66 142 148 142s148 -63 148 -142zM226 615c0 29 -25 53 -53 53c-29 0 -54 -24 -54 -53s25 -53 54 -53c28 0 53 24 53 53z" />
    <glyph glyph-name="perthousand" unicode="&#x2030;" horiz-adv-x="1115" 
d="M1088 185c0 -105 -17 -198 -140 -198c-125 0 -143 93 -143 198v38c0 106 18 198 143 198c123 0 140 -92 140 -198v-38zM970 185v38c0 86 -3 102 -22 102c-20 0 -23 -16 -23 -102v-38c0 -86 3 -101 23 -101c19 0 22 15 22 101zM767 185c0 -105 -17 -198 -140 -198
c-125 0 -142 93 -142 198v38c0 106 17 198 142 198c123 0 140 -92 140 -198v-38zM649 185v38c0 86 -3 102 -22 102c-21 0 -23 -16 -23 -102v-38c0 -86 2 -101 23 -101c19 0 22 15 22 101zM598 743l-267 -743h-135l266 743h136zM309 521c0 -106 -17 -198 -140 -198
c-124 0 -142 92 -142 198v38c0 106 18 197 142 197c123 0 140 -91 140 -197v-38zM191 521v38c0 86 -2 101 -22 101c-21 0 -23 -15 -23 -101v-38c0 -86 2 -101 23 -101c20 0 22 15 22 101z" />
    <glyph glyph-name="litre" unicode="&#x2113;" horiz-adv-x="460" 
d="M436 40c-33 -32 -85 -59 -163 -59c-86 0 -166 37 -166 167v31c-17 -18 -36 -36 -54 -54l-36 45c34 33 63 64 90 92v359c0 119 57 169 165 169c113 0 155 -58 155 -145c0 -105 -62 -222 -155 -327v-167c0 -52 10 -75 51 -75c19 0 42 10 63 27zM366 643c0 38 -5 72 -46 72
c-47 0 -48 -36 -48 -94v-213c61 78 94 165 94 235z" />
    <glyph glyph-name="estimated" unicode="&#x212e;" horiz-adv-x="624" 
d="M597 282h-446v-193c44 -40 96 -63 158 -63c117 0 171 59 219 127l32 -19c-55 -81 -121 -141 -251 -141c-169 0 -282 133 -282 290c0 159 109 290 286 290s284 -134 284 -291zM472 315v163c-37 33 -99 62 -159 62c-62 0 -121 -21 -162 -62v-163h321z" />
    <glyph glyph-name="multiply" unicode="&#xd7;" horiz-adv-x="445" 
d="M411 298l-91 -87l-98 94l-97 -94l-90 87l97 94l-98 94l91 87l97 -95l98 94l91 -86l-98 -94z" />
    <glyph glyph-name="divide" unicode="&#xf7;" horiz-adv-x="445" 
d="M304 76h-162v151h162v-151zM391 326v132h-337v-132h337zM304 556h-162v151h162v-151z" />
    <glyph glyph-name="minus" unicode="&#x2212;" horiz-adv-x="445" 
d="M391 326h-337v132h337v-132z" />
    <glyph glyph-name="plusminus" unicode="&#xb1;" horiz-adv-x="445" 
d="M403 0h-362v124h362v-124zM405 350h-114v-145h-137v145h-115v131h115v147h137v-147h114v-131z" />
    <glyph glyph-name="notequal" unicode="&#x2260;" horiz-adv-x="445" 
d="M390 179h-141l-38 -179h-138l38 179h-57v132h86l31 146h-117v132h146l33 154h136l-33 -154h54v-132h-82l-31 -146h113v-132z" />
    <glyph glyph-name="lessequal" unicode="&#x2264;" horiz-adv-x="445" 
d="M406 0h-353v124h353v-124zM374 186h-165l-170 230l170 230h165l-170 -230z" />
    <glyph glyph-name="greaterequal" unicode="&#x2265;" horiz-adv-x="445" 
d="M391 0h-353v124h353v-124zM406 416l-170 -230h-166l171 230l-171 230h166z" />
    <glyph glyph-name="approxequal" unicode="&#x2248;" horiz-adv-x="445" 
d="M398 566c0 -95 -41 -138 -105 -138c-25 0 -52 4 -76 23l-10 8c-16 13 -22 16 -30 16c-11 0 -15 -8 -15 -33v-13h-116v13c0 84 38 136 110 136c28 0 52 -6 76 -25l9 -7c16 -12 21 -14 29 -14c9 0 12 9 12 23v22h116v-11zM398 342c0 -95 -41 -138 -105 -138
c-25 0 -52 4 -76 23l-10 8c-16 13 -22 16 -30 16c-11 0 -15 -8 -15 -33v-13h-116v13c0 84 38 136 110 136c28 0 52 -6 76 -25l9 -7c16 -12 21 -14 29 -14c9 0 12 9 12 23v22h116v-11z" />
    <glyph glyph-name="logicalnot" unicode="&#xac;" horiz-adv-x="445" 
d="M389 179h-140v278h-194v132h334v-410z" />
    <glyph glyph-name="brokenbar" unicode="&#xa6;" horiz-adv-x="218" 
d="M191 -196h-164v363h164v-363zM191 380h-164v364h164v-364z" />
    <glyph glyph-name="infinity" unicode="&#x221e;" horiz-adv-x="563" 
d="M531 361c0 -77 -9 -253 -154 -253h-5c-34 0 -72 16 -94 43c-22 -33 -59 -44 -94 -44h-4c-141 0 -150 148 -150 255v24c0 78 8 254 153 254h5c34 0 71 -17 93 -45c22 33 60 46 95 46h4c141 0 151 -149 151 -256v-24zM404 361v24c0 106 -1 142 -31 142h-3
c-22 -1 -28 -29 -37 -147c-4 -48 -5 -51 -15 -135c11 -20 30 -27 42 -27h4c36 0 40 52 40 143zM241 502c-10 21 -29 27 -42 27h-3c-36 0 -39 -51 -39 -143v-24c0 -106 1 -141 31 -141h3c20 0 26 25 36 150c5 47 6 47 14 131z" />
    <glyph glyph-name="partialdiff" unicode="&#x2202;" horiz-adv-x="469" 
d="M442 452c0 -58 -6 -129 -15 -193c-28 -206 -103 -268 -235 -268c-94 0 -165 39 -165 167c0 32 3 65 9 101c31 200 112 253 214 253c2 0 18 0 31 -3c1 6 1 18 0 31c-5 63 -30 128 -147 128c-8 0 -16 0 -26 -1l14 111c19 1 38 2 55 2c203 0 265 -148 265 -328zM270 329
c0 31 -8 38 -23 38c-28 0 -37 -26 -49 -110c-5 -38 -9 -68 -9 -89c0 -27 8 -33 25 -33c27 0 37 21 50 121c5 35 6 59 6 73z" />
    <glyph glyph-name="mu" unicode="&#xb5;" horiz-adv-x="497" 
d="M276 577h166v-449l30 -3v-125h-186v37c-19 -19 -39 -31 -66 -37v-66l30 -4v-126h-224v126l30 4v517l-30 3v123h194v-398c0 -33 6 -41 23 -41c11 0 21 4 33 13v426z" />
    <glyph glyph-name="Delta" unicode="&#x2206;" horiz-adv-x="497" 
d="M475 0h-453l97 743h257zM292 146l-33 334c-4 38 -8 84 -10 119h-2c-3 -35 -6 -81 -10 -119l-33 -334h88z" />
    <glyph glyph-name="Omega" unicode="&#x2126;" horiz-adv-x="535" 
d="M508 383c0 -133 -32 -195 -91 -226v-30h71v-127h-198v229c40 4 43 58 43 154v91c0 86 -16 119 -65 119s-65 -33 -65 -119v-91c0 -96 3 -150 43 -154v-229h-198v127h71v30c-59 31 -92 93 -92 226v91c0 209 99 282 241 282s240 -73 240 -282v-91z" />
    <glyph glyph-name="summation" unicode="&#x2211;" horiz-adv-x="390" 
d="M363 -36h-336v159l135 237l-135 224v159h336v-159h-164l108 -186v-79l-108 -196h164v-159z" />
    <glyph glyph-name="product" unicode="&#x220f;" horiz-adv-x="604" 
d="M577 584h-60v-620h-174v620h-83v-620h-173v620h-60v159h550v-159z" />
    <glyph glyph-name="integral" unicode="&#x222b;" horiz-adv-x="351" 
d="M325 665c-12 1 -29 2 -35 2c-31 0 -33 -5 -33 -41v-669c0 -122 -36 -167 -122 -167c-38 0 -81 8 -109 16v113c12 -1 28 -3 35 -3c30 0 32 5 32 41v669c0 122 36 167 123 167c37 0 81 -8 109 -16v-112z" />
    <glyph glyph-name="radical" unicode="&#x221a;" horiz-adv-x="664" 
d="M639 869l-205 -923h-204l-95 430h-110v132h231l76 -377l153 738h154z" />
    <glyph glyph-name="lozenge" unicode="&#x25ca;" horiz-adv-x="450" 
d="M430 373l-206 -319l-205 319l205 325zM299 373l-75 125l-74 -125l74 -127z" />
    <glyph glyph-name="uni00A0" unicode="&#xa0;" horiz-adv-x="162" 
 />
    <glyph glyph-name="Acute.sc" unicode="&#xe092;" horiz-adv-x="288" 
d="M263 773l-92 -133h-136l70 133h158z" />
    <glyph glyph-name="Breve.sc" unicode="&#xe082;" horiz-adv-x="397" 
d="M371 773c-22 -97 -81 -137 -173 -137c-90 0 -150 40 -173 137h121c8 -37 22 -49 52 -49c31 0 46 12 54 49h119z" />
    <glyph glyph-name="Caron.sc" unicode="&#xe083;" horiz-adv-x="373" 
d="M353 773l-76 -133h-183l-74 133h123l43 -65l43 65h124z" />
    <glyph glyph-name="Cedilla.sc" unicode="&#xe093;" horiz-adv-x="290" 
d="M255 -56l-91 -140h-137l65 140h163z" />
    <glyph glyph-name="Circumflex.sc" unicode="&#xe084;" horiz-adv-x="373" 
d="M353 640h-124l-43 65l-43 -65h-123l74 133h183z" />
    <glyph glyph-name="commaaccent.sc" unicode="&#xe469;" horiz-adv-x="274" 
d="M240 -56l-79 -140h-132l51 140h160z" />
    <glyph glyph-name="Dieresis.sc" unicode="&#xe090;" horiz-adv-x="355" 
d="M332 640h-128v130h128v-130zM152 640v130h-129v-130h129z" />
    <glyph glyph-name="DieresisAcute.sc" unicode="&#xe467;" horiz-adv-x="525" 
d="M515 678h-128v130h128v-130zM220 812h158l-92 -139h-136zM139 678h-128v130h128v-130z" />
    <glyph glyph-name="DieresisGrave.sc" unicode="&#xe468;" horiz-adv-x="525" 
d="M11 678h128v130h-128v-130zM148 812h158l70 -139h-136zM387 678h128v130h-128v-130z" />
    <glyph glyph-name="Dotaccent.sc" unicode="&#xe085;" horiz-adv-x="243" 
d="M207 651h-171v124h171v-124z" />
    <glyph glyph-name="Hungarumlaut.sc" unicode="&#xe086;" horiz-adv-x="475" 
d="M463 773l-92 -133h-136l71 133h157zM252 773l-92 -133h-136l70 133h158z" />
    <glyph glyph-name="Grave.sc" unicode="&#xe08e;" horiz-adv-x="288" 
d="M251 640h-135l-93 133h158z" />
    <glyph glyph-name="dblGrave.sc" unicode="&#xe46a;" horiz-adv-x="475" 
d="M451 640h-136l-92 133h158zM240 640l-70 133h-158l92 -133h136z" />
    <glyph glyph-name="Macron.sc" unicode="&#xe091;" horiz-adv-x="326" 
d="M302 650h-278v116h278v-116z" />
    <glyph glyph-name="Ogonek.sc" unicode="&#xe087;" horiz-adv-x="306" 
d="M276 -179c-40 -15 -80 -22 -116 -22c-78 0 -131 28 -131 91c0 46 40 91 121 120l125 -10c-77 -36 -99 -55 -99 -75c0 -16 13 -19 44 -19c17 0 43 2 56 3v-88z" />
    <glyph glyph-name="Ring.sc" unicode="&#xe088;" horiz-adv-x="302" 
d="M276 748c0 -72 -55 -124 -126 -124c-69 0 -125 52 -125 124s56 124 125 124c71 0 126 -52 126 -124zM193 748c0 29 -15 48 -43 48c-26 0 -43 -19 -43 -48s16 -49 43 -49c28 0 43 20 43 49z" />
    <glyph glyph-name="Tilde.sc" unicode="&#xe089;" horiz-adv-x="384" 
d="M368 776c0 -95 -41 -138 -105 -138c-25 0 -52 4 -76 23l-10 8c-16 13 -22 16 -30 16c-11 0 -15 -8 -15 -33v-13h-116v13c0 84 38 136 110 136c28 0 52 -6 76 -25l9 -7c16 -12 21 -14 29 -14c9 0 12 9 12 23v22h116v-11z" />
    <glyph glyph-name="middot" unicode="&#x387;" horiz-adv-x="211" 
d="M186 282h-161v168h161v-168z" />
    <glyph glyph-name="A.sc" unicode="&#xe000;" horiz-adv-x="467" 
d="M443 0h-171l-12 118h-54l-13 -118h-169v112l26 4l46 344l-24 4v113h279l64 -461l28 -4v-112zM253 240l-12 131c-2 28 -6 63 -8 89h-1c-2 -26 -5 -60 -8 -89l-13 -131h42z" />
    <glyph glyph-name="Aacute.sc" unicode="&#xe002;" horiz-adv-x="467" 
d="M443 0h-171l-12 118h-54l-13 -118h-169v112l26 4l46 344l-24 4v113h279l64 -461l28 -4v-112zM253 240l-12 131c-2 28 -6 63 -8 89h-1c-2 -26 -5 -60 -8 -89l-13 -131h42zM387 773l-92 -133h-136l70 133h158z" />
    <glyph glyph-name="Abreve.sc" unicode="&#xe040;" horiz-adv-x="467" 
d="M443 0h-171l-12 118h-54l-13 -118h-169v112l26 4l46 344l-24 4v113h279l64 -461l28 -4v-112zM253 240l-12 131c-2 28 -6 63 -8 89h-1c-2 -26 -5 -60 -8 -89l-13 -131h42zM403 773c-22 -97 -81 -137 -173 -137c-90 0 -150 40 -173 137h121c8 -37 22 -49 52 -49
c31 0 46 12 54 49h119z" />
    <glyph glyph-name="Acircumflex.sc" unicode="&#xe003;" horiz-adv-x="467" 
d="M443 0h-171l-12 118h-54l-13 -118h-169v112l26 4l46 344l-24 4v113h279l64 -461l28 -4v-112zM253 240l-12 131c-2 28 -6 63 -8 89h-1c-2 -26 -5 -60 -8 -89l-13 -131h42zM398 640h-124l-43 65l-43 -65h-123l74 133h183z" />
    <glyph glyph-name="Adieresis.sc" unicode="&#xe004;" horiz-adv-x="467" 
d="M443 0h-171l-12 118h-54l-13 -118h-169v112l26 4l46 344l-24 4v113h279l64 -461l28 -4v-112zM253 240l-12 131c-2 28 -6 63 -8 89h-1c-2 -26 -5 -60 -8 -89l-13 -131h42zM385 639h-128v130h128v-130zM205 639v130h-129v-130h129z" />
    <glyph glyph-name="Agrave.sc" unicode="&#xe005;" horiz-adv-x="467" 
d="M443 0h-171l-12 118h-54l-13 -118h-169v112l26 4l46 344l-24 4v113h279l64 -461l28 -4v-112zM253 240l-12 131c-2 28 -6 63 -8 89h-1c-2 -26 -5 -60 -8 -89l-13 -131h42zM308 640h-135l-93 133h158z" />
    <glyph glyph-name="Amacron.sc" unicode="&#xe041;" horiz-adv-x="467" 
d="M443 0h-171l-12 118h-54l-13 -118h-169v112l26 4l46 344l-24 4v113h279l64 -461l28 -4v-112zM253 240l-12 131c-2 28 -6 63 -8 89h-1c-2 -26 -5 -60 -8 -89l-13 -131h42zM370 644h-278v116h278v-116z" />
    <glyph glyph-name="Aogonek.sc" unicode="&#xe042;" horiz-adv-x="467" 
d="M444 -179c-40 -15 -80 -22 -116 -22c-78 0 -131 28 -131 91c0 41 32 81 96 110h-21l-12 118h-54l-13 -118h-169v112l26 4l46 344l-24 4v113h279l64 -461l28 -4v-112c-77 -36 -99 -55 -99 -75c0 -16 13 -19 44 -19c17 0 43 2 56 3v-88zM253 240l-12 131c-2 28 -6 63 -8 89
h-1c-3 -30 -5 -59 -8 -89l-13 -131h42z" />
    <glyph glyph-name="Aring.sc" unicode="&#xe006;" horiz-adv-x="467" 
d="M443 0h-171l-12 118h-54l-13 -118h-169v112l26 4l46 344l-24 4v113h279l64 -461l28 -4v-112zM253 240l-12 131c-2 28 -6 63 -8 89h-1c-2 -26 -5 -60 -8 -89l-13 -131h42zM357 748c0 -72 -55 -124 -126 -124c-69 0 -125 52 -125 124s56 124 125 124c71 0 126 -52 126 -124
zM274 748c0 29 -15 48 -43 48c-26 0 -43 -19 -43 -48s16 -49 43 -49c28 0 43 20 43 49z" />
    <glyph glyph-name="Atilde.sc" unicode="&#xe007;" horiz-adv-x="467" 
d="M443 0h-171l-12 118h-54l-13 -118h-169v112l26 4l46 344l-24 4v113h279l64 -461l28 -4v-112zM253 240l-12 131c-2 28 -6 63 -8 89h-1c-2 -26 -5 -60 -8 -89l-13 -131h42zM406 776c0 -95 -41 -138 -105 -138c-25 0 -52 4 -76 23l-10 8c-16 13 -22 16 -30 16
c-11 0 -15 -8 -15 -33v-13h-116v13c0 84 38 136 110 136c28 0 52 -6 76 -25l9 -7c16 -12 21 -14 29 -14c9 0 12 9 12 23v22h116v-11z" />
    <glyph glyph-name="AE.sc" unicode="&#xe001;" horiz-adv-x="576" 
d="M550 577v-153h-95l-5 21h-38v-92h125v-121h-125v-100h38l5 21h95v-153h-295v118h-49l-13 -118h-169v112l26 4l47 344l-25 4v113h478zM255 461h-23c-1 -18 -3 -52 -7 -86l-14 -135h44v221z" />
    <glyph glyph-name="AEacute.sc" unicode="&#xe043;" horiz-adv-x="576" 
d="M550 577v-153h-95l-5 21h-38v-92h125v-121h-125v-100h38l5 21h95v-153h-295v118h-49l-13 -118h-169v112l26 4l47 344l-25 4v113h478zM255 461h-23c-1 -18 -3 -52 -7 -86l-14 -135h44v221zM461 773l-92 -133h-136l70 133h158z" />
    <glyph glyph-name="B.sc" unicode="&#xe008;" horiz-adv-x="433" 
d="M407 172c0 -134 -64 -182 -201 -182c-55 0 -105 3 -180 11v111l24 4v345l-24 4v112c61 8 119 11 180 11c132 0 201 -42 201 -175v-7c0 -55 -20 -88 -44 -111c35 -26 44 -76 44 -111v-12zM256 172v15c0 43 -7 59 -33 59h-22v-130c10 -1 14 -1 20 -1c30 0 35 17 35 57z
M255 400v12c0 39 -5 54 -34 54h-20v-121h22c27 0 32 19 32 55z" />
    <glyph glyph-name="C.sc" unicode="&#xe009;" horiz-adv-x="370" 
d="M344 6c-27 -10 -100 -17 -133 -17c-122 0 -185 53 -185 264v72c0 211 63 264 185 264c33 0 106 -7 133 -17v-149h-93l-6 28h-9c-35 0 -53 -12 -53 -126v-72c0 -115 18 -126 54 -126h8l6 29h93v-150z" />
    <glyph glyph-name="Cacute.sc" unicode="&#xe044;" horiz-adv-x="370" 
d="M344 6c-27 -10 -100 -17 -133 -17c-122 0 -185 53 -185 264v72c0 211 63 264 185 264c33 0 106 -7 133 -17v-149h-93l-6 28h-9c-35 0 -53 -12 -53 -126v-72c0 -115 18 -126 54 -126h8l6 29h93v-150zM344 773l-92 -133h-136l70 133h158z" />
    <glyph glyph-name="Ccaron.sc" unicode="&#xe045;" horiz-adv-x="370" 
d="M344 6c-27 -10 -100 -17 -133 -17c-122 0 -185 53 -185 264v72c0 211 63 264 185 264c33 0 106 -7 133 -17v-149h-93l-6 28h-9c-35 0 -53 -12 -53 -126v-72c0 -115 18 -126 54 -126h8l6 29h93v-150zM366 773l-76 -133h-183l-74 133h123l43 -65l43 65h124z" />
    <glyph glyph-name="Ccedilla.sc" unicode="&#xe00a;" horiz-adv-x="370" 
d="M344 6c-27 -10 -100 -17 -133 -17c-122 0 -185 53 -185 264v72c0 211 63 264 185 264c33 0 106 -7 133 -17v-149h-93l-6 28h-9c-35 0 -53 -12 -53 -126v-72c0 -115 18 -126 54 -126h8l6 29h93v-150zM294 -56l-91 -140h-137l65 140h163z" />
    <glyph glyph-name="Ccircumflex.sc" unicode="&#xe046;" horiz-adv-x="370" 
d="M344 6c-27 -10 -100 -17 -133 -17c-122 0 -185 53 -185 264v72c0 211 63 264 185 264c33 0 106 -7 133 -17v-149h-93l-6 28h-9c-35 0 -53 -12 -53 -126v-72c0 -115 18 -126 54 -126h8l6 29h93v-150zM361 640h-124l-43 65l-43 -65h-123l74 133h183z" />
    <glyph glyph-name="Cdotaccent.sc" unicode="&#xe047;" horiz-adv-x="370" 
d="M344 6c-27 -10 -100 -17 -133 -17c-122 0 -185 53 -185 264v72c0 211 63 264 185 264c33 0 106 -7 133 -17v-149h-93l-6 28h-9c-35 0 -53 -12 -53 -126v-72c0 -115 18 -126 54 -126h8l6 29h93v-150zM283 644h-171v124h171v-124z" />
    <glyph glyph-name="D.sc" unicode="&#xe00b;" horiz-adv-x="440" 
d="M414 265c0 -206 -50 -276 -219 -276c-57 0 -114 4 -169 12v111l24 4v345l-24 4v112c57 8 114 11 169 11c169 0 219 -69 219 -269v-54zM259 265v54c0 119 0 136 -46 136h-9v-332h9c46 0 46 23 46 142z" />
    <glyph glyph-name="Dcaron.sc" unicode="&#xe048;" horiz-adv-x="440" 
d="M414 265c0 -206 -50 -276 -219 -276c-57 0 -114 4 -169 12v111l24 4v345l-24 4v112c57 8 114 11 169 11c169 0 219 -69 219 -269v-54zM259 265v54c0 119 0 136 -46 136h-9v-332h9c46 0 46 23 46 142zM392 773l-76 -133h-183l-74 133h123l43 -65l43 65h124z" />
    <glyph glyph-name="Dcroat.sc" unicode="&#xe049;" horiz-adv-x="440" 
d="M415 265c0 -206 -51 -276 -219 -276c-57 0 -114 4 -169 12v111l24 4v115h-27v124h27v106l-24 4v112c57 8 114 11 169 11c168 0 219 -69 219 -269v-54zM260 265v54c0 119 0 136 -47 136h-8v-100h29v-124h-29v-108h9c45 0 46 23 46 142z" />
    <glyph glyph-name="Eth.sc" unicode="&#xe00c;" horiz-adv-x="440" 
d="M415 265c0 -206 -51 -276 -219 -276c-57 0 -114 4 -169 12v111l24 4v115h-27v124h27v106l-24 4v112c57 8 114 11 169 11c168 0 219 -69 219 -269v-54zM260 265v54c0 119 0 136 -47 136h-8v-100h29v-124h-29v-108h9c45 0 46 23 46 142z" />
    <glyph glyph-name="E.sc" unicode="&#xe00d;" horiz-adv-x="365" 
d="M339 0h-313v112l19 3v347l-19 3v112h313v-153h-95l-5 21h-39v-92h130v-121h-130v-100h39l5 21h95v-153z" />
    <glyph glyph-name="Eacute.sc" unicode="&#xe00e;" horiz-adv-x="365" 
d="M339 0h-313v112l19 3v347l-19 3v112h313v-153h-95l-5 21h-39v-92h130v-121h-130v-100h39l5 21h95v-153zM350 773l-92 -133h-136l70 133h158z" />
    <glyph glyph-name="Ebreve.sc" unicode="&#xe04a;" horiz-adv-x="365" 
d="M339 0h-313v112l19 3v347l-19 3v112h313v-153h-95l-5 21h-39v-92h130v-121h-130v-100h39l5 21h95v-153zM371 773c-22 -97 -81 -137 -173 -137c-90 0 -150 40 -173 137h121c8 -37 22 -49 52 -49c31 0 46 12 54 49h119z" />
    <glyph glyph-name="Ecaron.sc" unicode="&#xe04b;" horiz-adv-x="365" 
d="M339 0h-313v112l19 3v347l-19 3v112h313v-153h-95l-5 21h-39v-92h130v-121h-130v-100h39l5 21h95v-153zM365 773l-76 -133h-183l-74 133h123l43 -65l43 65h124z" />
    <glyph glyph-name="Ecircumflex.sc" unicode="&#xe00f;" horiz-adv-x="365" 
d="M339 0h-313v112l19 3v347l-19 3v112h313v-153h-95l-5 21h-39v-92h130v-121h-130v-100h39l5 21h95v-153zM359 640h-124l-43 65l-43 -65h-123l74 133h183z" />
    <glyph glyph-name="Edieresis.sc" unicode="&#xe010;" horiz-adv-x="365" 
d="M339 0h-313v112l19 3v347l-19 3v112h313v-153h-95l-5 21h-39v-92h130v-121h-130v-100h39l5 21h95v-153zM347 639h-128v130h128v-130zM167 639v130h-129v-130h129z" />
    <glyph glyph-name="Edotaccent.sc" unicode="&#xe04c;" horiz-adv-x="365" 
d="M339 0h-313v112l19 3v347l-19 3v112h313v-153h-95l-5 21h-39v-92h130v-121h-130v-100h39l5 21h95v-153zM286 644h-171v124h171v-124z" />
    <glyph glyph-name="Egrave.sc" unicode="&#xe011;" horiz-adv-x="365" 
d="M339 0h-313v112l19 3v347l-19 3v112h313v-153h-95l-5 21h-39v-92h130v-121h-130v-100h39l5 21h95v-153zM274 640h-135l-93 133h158z" />
    <glyph glyph-name="Emacron.sc" unicode="&#xe04d;" horiz-adv-x="365" 
d="M339 0h-313v112l19 3v347l-19 3v112h313v-153h-95l-5 21h-39v-92h130v-121h-130v-100h39l5 21h95v-153zM331 644h-278v116h278v-116z" />
    <glyph glyph-name="Eogonek.sc" unicode="&#xe04f;" horiz-adv-x="365" 
d="M340 -179c-40 -15 -80 -22 -116 -22c-78 0 -131 28 -131 91c0 41 32 81 96 110h-163v112l19 3v347l-19 3v112h313v-153h-95l-5 21h-39v-92h130v-121h-130v-100h39l5 21h95v-153c-77 -36 -99 -55 -99 -75c0 -16 13 -19 44 -19c17 0 43 2 56 3v-88z" />
    <glyph glyph-name="F.sc" unicode="&#xe012;" horiz-adv-x="369" 
d="M330 232h-125v-116l23 -4v-112h-202v112l24 4v345l-24 4v112h317v-153h-95l-4 21h-39v-93h125v-120z" />
    <glyph glyph-name="G.sc" unicode="&#xe013;" horiz-adv-x="414" 
d="M388 3c-37 -7 -99 -14 -164 -14c-100 0 -198 24 -198 265v70c0 257 125 265 208 265c53 0 120 -14 147 -24v-142h-95l-6 27h-13c-69 0 -84 -14 -84 -127v-69c0 -106 5 -130 36 -130c5 0 13 0 20 1v77l-25 6v96h174v-301z" />
    <glyph glyph-name="Gbreve.sc" unicode="&#xe050;" horiz-adv-x="414" 
d="M388 3c-37 -7 -99 -14 -164 -14c-100 0 -198 24 -198 265v70c0 257 125 265 208 265c53 0 120 -14 147 -24v-142h-95l-6 27h-13c-69 0 -84 -14 -84 -127v-69c0 -106 5 -130 36 -130c5 0 13 0 20 1v77l-25 6v96h174v-301zM406 773c-22 -97 -81 -137 -173 -137
c-90 0 -150 40 -173 137h121c8 -37 22 -49 52 -49c31 0 46 12 54 49h119z" />
    <glyph glyph-name="Gcircumflex.sc" unicode="&#xe051;" horiz-adv-x="414" 
d="M388 3c-37 -7 -99 -14 -164 -14c-100 0 -198 24 -198 265v70c0 257 125 265 208 265c53 0 120 -14 147 -24v-142h-95l-6 27h-13c-69 0 -84 -14 -84 -127v-69c0 -106 5 -130 36 -130c5 0 13 0 20 1v77l-25 6v96h174v-301zM385 640h-124l-43 65l-43 -65h-123l74 133h183z
" />
    <glyph glyph-name="Gcommaaccent.sc" unicode="&#xe052;" horiz-adv-x="414" 
d="M388 3c-37 -7 -99 -14 -164 -14c-100 0 -198 24 -198 265v70c0 257 125 265 208 265c53 0 120 -14 147 -24v-142h-95l-6 27h-13c-69 0 -84 -14 -84 -127v-69c0 -106 5 -130 36 -130c5 0 13 0 20 1v77l-25 6v96h174v-301zM322 -56l-79 -140h-132l51 140h160z" />
    <glyph glyph-name="Gdotaccent.sc" unicode="&#xe053;" horiz-adv-x="414" 
d="M388 3c-37 -7 -99 -14 -164 -14c-100 0 -198 24 -198 265v70c0 257 125 265 208 265c53 0 120 -14 147 -24v-142h-95l-6 27h-13c-69 0 -84 -14 -84 -127v-69c0 -106 5 -130 36 -130c5 0 13 0 20 1v77l-25 6v96h174v-301zM320 644h-171v124h171v-124z" />
    <glyph glyph-name="H.sc" unicode="&#xe014;" horiz-adv-x="479" 
d="M453 0h-181v227h-66v-227h-180v113l24 4v343l-24 5v112h180v-215h66v215h181v-112l-24 -5v-343l24 -4v-113z" />
    <glyph glyph-name="Hbar.sc" unicode="&#xe054;" horiz-adv-x="479" 
d="M26 420v100h24v57h156v-57h66v57h157v-57h24v-100h-24v-303l24 -4v-113h-181v227h-66v-227h-180v113l24 4v303h-24zM206 362h66v58h-66v-58z" />
    <glyph glyph-name="Hcircumflex.sc" unicode="&#xe055;" horiz-adv-x="479" 
d="M453 0h-181v227h-66v-227h-180v113l24 4v343l-24 5v112h180v-215h66v215h181v-112l-24 -5v-343l24 -4v-113zM406 640h-124l-43 65l-43 -65h-123l74 133h183z" />
    <glyph glyph-name="I.sc" unicode="&#xe015;" horiz-adv-x="255" 
d="M229 0h-203v112l24 4v345l-24 4v112h203v-112l-23 -4v-345l23 -4v-112z" />
    <glyph glyph-name="Iacute.sc" unicode="&#xe016;" horiz-adv-x="255" 
d="M229 0h-203v112l24 4v345l-24 4v112h203v-112l-23 -4v-345l23 -4v-112zM271 773l-92 -133h-136l70 133h158z" />
    <glyph glyph-name="Ibreve.sc" unicode="&#xe056;" horiz-adv-x="255" 
d="M229 0h-203v112l24 4v345l-24 4v112h203v-112l-23 -4v-345l23 -4v-112zM299 773c-22 -97 -81 -137 -173 -137c-90 0 -150 40 -173 137h121c8 -37 22 -49 52 -49c31 0 46 12 54 49h119z" />
    <glyph glyph-name="Icircumflex.sc" unicode="&#xe017;" horiz-adv-x="255" 
d="M229 0h-203v112l24 4v345l-24 4v112h203v-112l-23 -4v-345l23 -4v-112zM293 640h-124l-43 65l-43 -65h-123l74 133h183z" />
    <glyph glyph-name="Idieresis.sc" unicode="&#xe018;" horiz-adv-x="255" 
d="M229 0h-203v112l24 4v345l-24 4v112h203v-112l-23 -4v-345l23 -4v-112zM280 639h-128v130h128v-130zM100 639v130h-129v-130h129z" />
    <glyph glyph-name="Idotaccent.sc" unicode="&#xe081;" horiz-adv-x="255" 
d="M229 0h-203v112l24 4v345l-24 4v112h203v-112l-23 -4v-345l23 -4v-112zM213 644h-171v124h171v-124z" />
    <glyph glyph-name="Igrave.sc" unicode="&#xe019;" horiz-adv-x="255" 
d="M229 0h-203v112l24 4v345l-24 4v112h203v-112l-23 -4v-345l23 -4v-112zM215 640h-135l-93 133h158z" />
    <glyph glyph-name="Imacron.sc" unicode="&#xe059;" horiz-adv-x="255" 
d="M229 0h-203v112l24 4v345l-24 4v112h203v-112l-23 -4v-345l23 -4v-112zM265 644h-278v116h278v-116z" />
    <glyph glyph-name="Iogonek.sc" unicode="&#xe05a;" horiz-adv-x="255" 
d="M229 0c-63 -30 -84 -52 -84 -74c0 -17 16 -20 44 -20c17 0 43 2 56 3v-88c-40 -15 -80 -22 -116 -22c-78 0 -131 24 -131 91c0 45 30 88 78 110h-50v112l24 4v345l-24 4v112h203v-112l-23 -4v-345l23 -4v-112z" />
    <glyph glyph-name="Itilde.sc" unicode="&#xe05b;" horiz-adv-x="255" 
d="M229 0h-203v112l24 4v345l-24 4v112h203v-112l-23 -4v-345l23 -4v-112zM302 776c0 -95 -41 -138 -105 -138c-25 0 -52 4 -76 23l-10 8c-16 13 -22 16 -30 16c-11 0 -15 -8 -15 -33v-13h-116v13c0 84 38 136 110 136c28 0 52 -6 76 -25l9 -7c16 -12 21 -14 29 -14
c9 0 12 9 12 23v22h116v-11z" />
    <glyph glyph-name="IJ.sc" unicode="&#xe058;" horiz-adv-x="492" 
d="M466 465l-24 -4v-481c0 -111 -54 -142 -129 -142c-18 0 -46 2 -73 10v109h26c16 0 20 3 20 23v481l-23 4v112h203v-112zM229 0h-203v112l24 4v345l-24 4v112h203v-112l-23 -4v-345l23 -4v-112z" />
    <glyph glyph-name="J.sc" unicode="&#xe01a;" horiz-adv-x="255" 
d="M229 465l-24 -4v-481c0 -111 -54 -142 -129 -142c-18 0 -46 2 -72 10v109h25c16 0 21 3 21 23v481l-24 4v112h203v-112z" />
    <glyph glyph-name="Jcircumflex.sc" unicode="&#xe05c;" horiz-adv-x="255" 
d="M229 465l-24 -4v-481c0 -111 -54 -142 -129 -142c-18 0 -46 2 -72 10v109h25c16 0 21 3 21 23v481l-24 4v112h203v-112zM294 640h-124l-43 65l-43 -65h-123l74 133h183z" />
    <glyph glyph-name="K.sc" unicode="&#xe01b;" horiz-adv-x="458" 
d="M433 0h-174l-59 253v-253h-174v112l19 3v347l-19 3v112h174v-255l67 255h166v-112l-35 -6l-53 -167l53 -174l35 -6v-112z" />
    <glyph glyph-name="Kcommaaccent.sc" unicode="&#xe05d;" horiz-adv-x="458" 
d="M433 0h-174l-59 253v-253h-174v112l19 3v347l-19 3v112h174v-255l67 255h166v-112l-35 -6l-53 -167l53 -174l35 -6v-112zM315 -56l-79 -140h-132l51 140h160z" />
    <glyph glyph-name="L.sc" unicode="&#xe01c;" horiz-adv-x="350" 
d="M325 0h-299v112l19 3v347l-19 3v112h198v-112l-24 -4v-328h25l5 27h95v-160z" />
    <glyph glyph-name="Lacute.sc" unicode="&#xe05e;" horiz-adv-x="350" 
d="M325 0h-299v112l19 3v347l-19 3v112h198v-112l-24 -4v-328h25l5 27h95v-160zM327 773l-92 -133h-136l70 133h158z" />
    <glyph glyph-name="Lcaron.sc" unicode="&#xe05f;" horiz-adv-x="453" 
d="M325 0h-299v112l19 3v347l-19 3v112h198v-112l-24 -4v-328h25l5 27h95v-160zM447 594l-73 -260h-121l38 260h156z" />
    <glyph glyph-name="Lcommaaccent.sc" unicode="&#xe060;" horiz-adv-x="350" 
d="M325 0h-299v112l19 3v347l-19 3v112h198v-112l-24 -4v-328h25l5 27h95v-160zM262 -56l-79 -140h-132l51 140h160z" />
    <glyph glyph-name="Ldot.sc" unicode="&#xe061;" horiz-adv-x="401" 
d="M325 0h-299v112l19 3v347l-19 3v112h198v-112l-24 -4v-328h25l5 27h95v-160zM376 244h-131v156h131v-156z" />
    <glyph glyph-name="Lslash.sc" unicode="&#xe01d;" horiz-adv-x="350" 
d="M326 0h-300v112l19 3v59l-20 -17v105l20 16v184l-19 3v112h198v-112l-23 -4v-74l73 55v-105l-73 -55v-149h24l5 27h96v-160z" />
    <glyph glyph-name="M.sc" unicode="&#xe01e;" horiz-adv-x="532" 
d="M506 0h-174v219c0 26 1 54 3 84h-1c-6 -21 -13 -53 -19 -71l-17 -51h-71l-17 51c-6 18 -13 50 -19 71h-2c3 -30 5 -58 5 -84v-219h-168v112l18 3v347l-18 3v112h162l50 -141c8 -21 18 -52 24 -74h2c6 22 16 53 23 74l51 141h168v-112l-24 -4v-345l24 -4v-112z" />
    <glyph glyph-name="N.sc" unicode="&#xe01f;" horiz-adv-x="470" 
d="M444 465l-24 -4v-461h-151l-63 192c-6 19 -17 50 -23 73h-1c2 -25 4 -61 4 -84v-181h-160v112l19 3v347l-19 3v112h166l63 -184c11 -31 20 -57 26 -81h2c-2 19 -4 69 -4 95v170h165v-112z" />
    <glyph glyph-name="Nacute.sc" unicode="&#xe062;" horiz-adv-x="470" 
d="M444 465l-24 -4v-461h-151l-63 192c-6 19 -17 50 -23 73h-1c2 -25 4 -61 4 -84v-181h-160v112l19 3v347l-19 3v112h166l63 -184c11 -31 20 -57 26 -81h2c-2 19 -4 69 -4 95v170h165v-112zM376 773l-92 -133h-136l70 133h158z" />
    <glyph glyph-name="Ncaron.sc" unicode="&#xe063;" horiz-adv-x="470" 
d="M444 465l-24 -4v-461h-151l-63 192c-6 19 -17 50 -23 73h-1c2 -25 4 -61 4 -84v-181h-160v112l19 3v347l-19 3v112h166l63 -184c11 -31 20 -57 26 -81h2c-2 19 -4 69 -4 95v170h165v-112zM401 773l-76 -133h-183l-74 133h123l43 -65l43 65h124z" />
    <glyph glyph-name="Ncommaaccent.sc" unicode="&#xe064;" horiz-adv-x="470" 
d="M444 465l-24 -4v-461h-151l-63 192c-6 19 -17 50 -23 73h-1c2 -25 4 -61 4 -84v-181h-160v112l19 3v347l-19 3v112h166l63 -184c11 -31 20 -57 26 -81h2c-2 19 -4 69 -4 95v170h165v-112zM321 -56l-79 -140h-132l51 140h160z" />
    <glyph glyph-name="Ntilde.sc" unicode="&#xe020;" horiz-adv-x="470" 
d="M444 465l-24 -4v-461h-151l-63 192c-6 19 -17 50 -23 73h-1c2 -25 4 -61 4 -84v-181h-160v112l19 3v347l-19 3v112h166l63 -184c11 -31 20 -57 26 -81h2c-2 19 -4 69 -4 95v170h165v-112zM412 777c0 -95 -41 -138 -105 -138c-25 0 -52 4 -76 23l-10 8
c-16 13 -22 16 -30 16c-11 0 -15 -8 -15 -33v-13h-116v13c0 84 38 136 110 136c28 0 52 -6 76 -25l9 -7c16 -12 21 -14 29 -14c9 0 12 9 12 23v22h116v-11z" />
    <glyph glyph-name="Eng.sc" unicode="&#xe04e;" horiz-adv-x="470" 
d="M444 465l-25 -4v-481c0 -111 -54 -142 -129 -142c-18 0 -46 2 -73 10v109h26c16 0 20 3 20 23v40l-58 172c-6 19 -16 50 -22 73h-2c2 -25 4 -61 4 -84v-181h-159v112l18 3v347l-18 3v112h166l62 -175c12 -31 20 -57 27 -81h2c-3 19 -4 69 -4 95v161h165v-112z" />
    <glyph glyph-name="O.sc" unicode="&#xe021;" horiz-adv-x="429" 
d="M403 255c0 -220 -79 -266 -189 -266c-108 0 -188 46 -188 266v67c0 225 84 267 188 267c105 0 189 -42 189 -267v-67zM246 257v63c0 109 0 131 -32 131c-30 0 -31 -22 -31 -131v-63c0 -109 2 -130 31 -130c31 0 32 21 32 130z" />
    <glyph glyph-name="Oacute.sc" unicode="&#xe023;" horiz-adv-x="429" 
d="M403 255c0 -220 -79 -266 -189 -266c-108 0 -188 46 -188 266v67c0 225 84 267 188 267c105 0 189 -42 189 -267v-67zM246 257v63c0 109 0 131 -32 131c-30 0 -31 -22 -31 -131v-63c0 -109 2 -130 31 -130c31 0 32 21 32 130zM377 773l-92 -133h-136l70 133h158z" />
    <glyph glyph-name="Obreve.sc" unicode="&#xe065;" horiz-adv-x="429" 
d="M403 255c0 -220 -79 -266 -189 -266c-108 0 -188 46 -188 266v67c0 225 84 267 188 267c105 0 189 -42 189 -267v-67zM246 257v63c0 109 0 131 -32 131c-30 0 -31 -22 -31 -131v-63c0 -109 2 -130 31 -130c31 0 32 21 32 130zM387 773c-22 -97 -81 -137 -173 -137
c-90 0 -150 40 -173 137h121c8 -37 22 -49 52 -49c31 0 46 12 54 49h119z" />
    <glyph glyph-name="Ocircumflex.sc" unicode="&#xe024;" horiz-adv-x="429" 
d="M403 255c0 -220 -79 -266 -189 -266c-108 0 -188 46 -188 266v67c0 225 84 267 188 267c105 0 189 -42 189 -267v-67zM246 257v63c0 109 0 131 -32 131c-30 0 -31 -22 -31 -131v-63c0 -109 2 -130 31 -130c31 0 32 21 32 130zM381 640h-124l-43 65l-43 -65h-123l74 133
h183z" />
    <glyph glyph-name="Odieresis.sc" unicode="&#xe025;" horiz-adv-x="429" 
d="M403 255c0 -220 -79 -266 -189 -266c-108 0 -188 46 -188 266v67c0 225 84 267 188 267c105 0 189 -42 189 -267v-67zM246 257v63c0 109 0 131 -32 131c-30 0 -31 -22 -31 -131v-63c0 -109 2 -130 31 -130c31 0 32 21 32 130zM369 639h-128v130h128v-130zM189 639v130
h-129v-130h129z" />
    <glyph glyph-name="Ograve.sc" unicode="&#xe026;" horiz-adv-x="429" 
d="M403 255c0 -220 -79 -266 -189 -266c-108 0 -188 46 -188 266v67c0 225 84 267 188 267c105 0 189 -42 189 -267v-67zM246 257v63c0 109 0 131 -32 131c-30 0 -31 -22 -31 -131v-63c0 -109 2 -130 31 -130c31 0 32 21 32 130zM297 640h-135l-93 133h158z" />
    <glyph glyph-name="Ohungarumlaut.sc" unicode="&#xe066;" horiz-adv-x="429" 
d="M403 255c0 -220 -79 -266 -189 -266c-108 0 -188 46 -188 266v67c0 225 84 267 188 267c105 0 189 -42 189 -267v-67zM246 257v63c0 109 0 131 -32 131c-30 0 -31 -22 -31 -131v-63c0 -109 2 -130 31 -130c31 0 32 21 32 130zM479 773l-92 -133h-136l71 133h157zM268 773
h-158l-70 -133h136z" />
    <glyph glyph-name="Omacron.sc" unicode="&#xe067;" horiz-adv-x="429" 
d="M403 255c0 -220 -79 -266 -189 -266c-108 0 -188 46 -188 266v67c0 225 84 267 188 267c105 0 189 -42 189 -267v-67zM246 257v63c0 109 0 131 -32 131c-30 0 -31 -22 -31 -131v-63c0 -109 2 -130 31 -130c31 0 32 21 32 130zM353 644h-278v116h278v-116z" />
    <glyph glyph-name="Otilde.sc" unicode="&#xe028;" horiz-adv-x="429" 
d="M403 255c0 -220 -79 -266 -189 -266c-108 0 -188 46 -188 266v67c0 225 84 267 188 267c105 0 189 -42 189 -267v-67zM246 257v63c0 109 0 131 -32 131c-30 0 -31 -22 -31 -131v-63c0 -109 2 -130 31 -130c31 0 32 21 32 130zM390 777c0 -95 -41 -138 -105 -138
c-25 0 -52 4 -76 23l-10 8c-16 13 -22 16 -30 16c-11 0 -15 -8 -15 -33v-13h-116v13c0 84 38 136 110 136c28 0 52 -6 76 -25l9 -7c16 -12 21 -14 29 -14c9 0 12 9 12 23v22h116v-11z" />
    <glyph glyph-name="Oslash.sc" unicode="&#xe027;" horiz-adv-x="429" 
d="M407 255c0 -216 -80 -267 -193 -267c-38 0 -72 7 -102 24l-18 -36h-81l46 91c-24 40 -36 100 -36 188v68c0 220 84 267 191 267c39 0 75 -7 106 -25l20 38h82l-50 -95c23 -41 35 -101 35 -185v-68zM250 256v66c0 108 -2 132 -36 132c-31 0 -33 -24 -33 -132v-66
c0 -108 2 -131 33 -131c33 0 36 23 36 131z" />
    <glyph glyph-name="Oslashacute.sc" unicode="&#xe068;" horiz-adv-x="429" 
d="M407 255c0 -216 -80 -267 -193 -267c-38 0 -72 7 -102 24l-18 -36h-81l46 91c-24 40 -36 100 -36 188v68c0 220 84 267 191 267c39 0 75 -7 106 -25l20 38h82l-50 -95c23 -41 35 -101 35 -185v-68zM250 256v66c0 108 -2 132 -36 132c-31 0 -33 -24 -33 -132v-66
c0 -108 2 -131 33 -131c33 0 36 23 36 131zM367 773l-92 -133h-136l70 133h158z" />
    <glyph glyph-name="OE.sc" unicode="&#xe022;" horiz-adv-x="565" 
d="M539 0h-242c-25 -8 -53 -11 -81 -11c-111 0 -190 46 -190 266v67c0 225 83 267 190 267c28 0 56 -3 83 -12h240v-153h-95l-5 21h-39v-92h130v-121h-130v-100h39l5 21h95v-153zM245 128v322c-8 1 -22 1 -29 1c-32 0 -32 -22 -32 -131v-63c0 -109 1 -130 32 -130
c9 0 13 0 29 1z" />
    <glyph glyph-name="P.sc" unicode="&#xe029;" horiz-adv-x="433" 
d="M409 383c0 -161 -96 -196 -184 -196h-22v-71l29 -4v-112h-206v112l24 4v345l-24 4v112c58 7 111 8 179 8c109 0 204 -29 204 -195v-7zM254 383v8c0 47 -3 64 -36 64h-15v-138h17c31 0 34 25 34 66z" />
    <glyph glyph-name="Thorn.sc" unicode="&#xe02a;" horiz-adv-x="433" 
d="M408 313c0 -161 -95 -195 -183 -195h-22v-118h-177v112l23 4v390l-23 3v113h177v-106h12c105 0 193 -35 193 -195v-8zM254 313v9c0 47 -4 64 -37 64c-4 0 -7 0 -14 -1v-137c5 -1 10 -1 17 -1c30 0 34 26 34 66z" />
    <glyph glyph-name="Q.sc" unicode="&#xe02b;" horiz-adv-x="429" 
d="M403 255c0 -169 -46 -237 -120 -257v-20c0 -21 3 -24 28 -24h35v-96c-26 -11 -60 -18 -92 -18c-88 0 -116 38 -116 126v34c-70 22 -112 93 -112 255v67c0 225 84 267 188 267c105 0 189 -42 189 -267v-67zM246 257v63c0 109 0 131 -32 131c-30 0 -31 -22 -31 -131v-63
c0 -109 2 -130 31 -130c31 0 32 21 32 130z" />
    <glyph glyph-name="Qalt.sc" unicode="&#xe595;" horiz-adv-x="429" 
d="M403 255c0 -169 -46 -237 -120 -257v-154h-145v156c-70 22 -112 93 -112 255v67c0 225 84 267 188 267c105 0 189 -42 189 -267v-67zM246 257v63c0 109 0 131 -32 131c-30 0 -31 -22 -31 -131v-63c0 -109 2 -130 31 -130c31 0 32 21 32 130z" />
    <glyph glyph-name="R.sc" unicode="&#xe02c;" horiz-adv-x="447" 
d="M423 0h-153l-51 197h-8h-10v-197h-175v112l24 4v345l-24 4v112c58 5 113 8 168 8c114 0 212 -31 212 -195v-6c0 -75 -22 -122 -53 -151l34 -114l36 -7v-112zM253 384v6c0 48 -4 65 -38 65h-14v-138h17c31 0 35 26 35 67z" />
    <glyph glyph-name="Racute.sc" unicode="&#xe069;" horiz-adv-x="447" 
d="M423 0h-153l-51 197h-8h-10v-197h-175v112l24 4v345l-24 4v112c58 5 113 8 168 8c114 0 212 -31 212 -195v-6c0 -75 -22 -122 -53 -151l34 -114l36 -7v-112zM253 384v6c0 48 -4 65 -38 65h-14v-138h17c31 0 35 26 35 67zM370 773l-92 -133h-136l70 133h158z" />
    <glyph glyph-name="Rcaron.sc" unicode="&#xe06a;" horiz-adv-x="447" 
d="M423 0h-153l-51 197h-8h-10v-197h-175v112l24 4v345l-24 4v112c58 5 113 8 168 8c114 0 212 -31 212 -195v-6c0 -75 -22 -122 -53 -151l34 -114l36 -7v-112zM253 384v6c0 48 -4 65 -38 65h-14v-138h17c31 0 35 26 35 67zM389 773l-76 -133h-183l-74 133h123l43 -65l43 65
h124z" />
    <glyph glyph-name="Rcommaaccent.sc" unicode="&#xe06b;" horiz-adv-x="447" 
d="M423 0h-153l-51 197h-8h-10v-197h-175v112l24 4v345l-24 4v112c58 5 113 8 168 8c114 0 212 -31 212 -195v-6c0 -75 -22 -122 -53 -151l34 -114l36 -7v-112zM253 384v6c0 48 -4 65 -38 65h-14v-138h17c31 0 35 26 35 67zM312 -56l-79 -140h-132l51 140h160z" />
    <glyph glyph-name="S.sc" unicode="&#xe02d;" horiz-adv-x="383" 
d="M358 164c0 -107 -56 -175 -174 -175c-66 0 -118 11 -149 22v137h96l6 -30h21c30 0 38 16 38 42c0 24 -7 40 -40 66l-57 45c-55 45 -74 97 -74 153c0 104 51 165 176 165c71 0 124 -13 155 -22v-136h-96l-6 29h-26c-27 0 -44 -9 -44 -36c0 -16 9 -29 29 -47l52 -42
c62 -51 93 -92 93 -171z" />
    <glyph glyph-name="Sacute.sc" unicode="&#xe06c;" horiz-adv-x="383" 
d="M358 164c0 -107 -56 -175 -174 -175c-66 0 -118 11 -149 22v137h96l6 -30h21c30 0 38 16 38 42c0 24 -7 40 -40 66l-57 45c-55 45 -74 97 -74 153c0 104 51 165 176 165c71 0 124 -13 155 -22v-136h-96l-6 29h-26c-27 0 -44 -9 -44 -36c0 -16 9 -29 29 -47l52 -42
c62 -51 93 -92 93 -171zM350 773l-92 -133h-136l70 133h158z" />
    <glyph glyph-name="Scaron.sc" unicode="&#xe02e;" horiz-adv-x="383" 
d="M358 164c0 -107 -56 -175 -174 -175c-66 0 -118 11 -149 22v137h96l6 -30h21c30 0 38 16 38 42c0 24 -7 40 -40 66l-57 45c-55 45 -74 97 -74 153c0 104 51 165 176 165c71 0 124 -13 155 -22v-136h-96l-6 29h-26c-27 0 -44 -9 -44 -36c0 -16 9 -29 29 -47l52 -42
c62 -51 93 -92 93 -171zM370 773l-76 -133h-183l-74 133h123l43 -65l43 65h124z" />
    <glyph glyph-name="Scedilla.sc" unicode="&#xe06d;" horiz-adv-x="383" 
d="M358 164c0 -107 -56 -175 -174 -175c-66 0 -118 11 -149 22v137h96l6 -30h21c30 0 38 16 38 42c0 24 -7 40 -40 66l-57 45c-55 45 -74 97 -74 153c0 104 51 165 176 165c71 0 124 -13 155 -22v-136h-96l-6 29h-26c-27 0 -44 -9 -44 -36c0 -16 9 -29 29 -47l52 -42
c62 -51 93 -92 93 -171zM301 -56l-91 -140h-137l65 140h163z" />
    <glyph glyph-name="Scircumflex.sc" unicode="&#xe06e;" horiz-adv-x="383" 
d="M358 164c0 -107 -56 -175 -174 -175c-66 0 -118 11 -149 22v137h96l6 -30h21c30 0 38 16 38 42c0 24 -7 40 -40 66l-57 45c-55 45 -74 97 -74 153c0 104 51 165 176 165c71 0 124 -13 155 -22v-136h-96l-6 29h-26c-27 0 -44 -9 -44 -36c0 -16 9 -29 29 -47l52 -42
c62 -51 93 -92 93 -171zM362 640h-124l-43 65l-43 -65h-123l74 133h183z" />
    <glyph glyph-name="Scommaaccent.sc" unicode="&#xe06f;" horiz-adv-x="383" 
d="M358 164c0 -107 -56 -175 -174 -175c-66 0 -118 11 -149 22v137h96l6 -30h21c30 0 38 16 38 42c0 24 -7 40 -40 66l-57 45c-55 45 -74 97 -74 153c0 104 51 165 176 165c71 0 124 -13 155 -22v-136h-96l-6 29h-26c-27 0 -44 -9 -44 -36c0 -16 9 -29 29 -47l52 -42
c62 -51 93 -92 93 -171zM297 -56l-79 -140h-132l51 140h160z" />
    <glyph glyph-name="T.sc" unicode="&#xe02f;" horiz-adv-x="430" 
d="M405 428h-94l-5 23h-14v-335l24 -4v-112h-203v112l25 4v335h-14l-5 -23h-94v149h380v-149z" />
    <glyph glyph-name="Tcaron.sc" unicode="&#xe071;" horiz-adv-x="430" 
d="M405 428h-94l-5 23h-14v-335l24 -4v-112h-203v112l25 4v335h-14l-5 -23h-94v149h380v-149zM379 773l-76 -133h-183l-74 133h123l43 -65l43 65h124z" />
    <glyph glyph-name="Tbar.sc" unicode="&#xe070;" horiz-adv-x="430" 
d="M405 428h-94l-5 23h-14v-82h72v-123h-72v-130l24 -4v-112h-203v112l25 4v130h-72v123h72v82h-14l-5 -23h-94v149h380v-149z" />
    <glyph glyph-name="Tcommaaccent.sc" unicode="&#xe072;" horiz-adv-x="430" 
d="M405 428h-94l-5 23h-14v-335l24 -4v-112h-203v112l25 4v335h-14l-5 -23h-94v149h380v-149zM308 -56l-79 -140h-132l51 140h160z" />
    <glyph glyph-name="U.sc" unicode="&#xe030;" horiz-adv-x="469" 
d="M443 465l-24 -4v-262c0 -74 -16 -210 -185 -210c-168 0 -184 136 -184 210v262l-24 4v112h179v-375c0 -61 1 -79 29 -79c29 0 30 18 30 79v375h179v-112z" />
    <glyph glyph-name="Uacute.sc" unicode="&#xe031;" horiz-adv-x="469" 
d="M443 465l-24 -4v-262c0 -74 -16 -210 -185 -210c-168 0 -184 136 -184 210v262l-24 4v112h179v-375c0 -61 1 -79 29 -79c29 0 30 18 30 79v375h179v-112zM379 773l-92 -133h-136l70 133h158z" />
    <glyph glyph-name="Ubreve.sc" unicode="&#xe073;" horiz-adv-x="469" 
d="M443 465l-24 -4v-262c0 -74 -16 -210 -185 -210c-168 0 -184 136 -184 210v262l-24 4v112h179v-375c0 -61 1 -79 29 -79c29 0 30 18 30 79v375h179v-112zM408 773c-22 -97 -81 -137 -173 -137c-90 0 -150 40 -173 137h121c8 -37 22 -49 52 -49c31 0 46 12 54 49h119z" />
    <glyph glyph-name="Ucircumflex.sc" unicode="&#xe032;" horiz-adv-x="469" 
d="M443 465l-24 -4v-262c0 -74 -16 -210 -185 -210c-168 0 -184 136 -184 210v262l-24 4v112h179v-375c0 -61 1 -79 29 -79c29 0 30 18 30 79v375h179v-112zM401 640h-124l-43 65l-43 -65h-123l74 133h183z" />
    <glyph glyph-name="Udieresis.sc" unicode="&#xe033;" horiz-adv-x="469" 
d="M443 465l-24 -4v-262c0 -74 -16 -210 -185 -210c-168 0 -184 136 -184 210v262l-24 4v112h179v-375c0 -61 1 -79 29 -79c29 0 30 18 30 79v375h179v-112zM389 639h-128v130h128v-130zM209 639v130h-129v-130h129z" />
    <glyph glyph-name="Uhungarumlaut.sc" unicode="&#xe074;" horiz-adv-x="469" 
d="M443 465l-24 -4v-262c0 -74 -16 -210 -185 -210c-168 0 -184 136 -184 210v262l-24 4v112h179v-375c0 -61 1 -79 29 -79c29 0 30 18 30 79v375h179v-112zM503 773l-92 -133h-136l71 133h157zM292 773h-158l-70 -133h136z" />
    <glyph glyph-name="Ugrave.sc" unicode="&#xe034;" horiz-adv-x="469" 
d="M443 465l-24 -4v-262c0 -74 -16 -210 -185 -210c-168 0 -184 136 -184 210v262l-24 4v112h179v-375c0 -61 1 -79 29 -79c29 0 30 18 30 79v375h179v-112zM316 640h-135l-93 133h158z" />
    <glyph glyph-name="Umacron.sc" unicode="&#xe075;" horiz-adv-x="469" 
d="M443 465l-24 -4v-262c0 -74 -16 -210 -185 -210c-168 0 -184 136 -184 210v262l-24 4v112h179v-375c0 -61 1 -79 29 -79c29 0 30 18 30 79v375h179v-112zM373 644h-278v116h278v-116z" />
    <glyph glyph-name="Uogonek.sc" unicode="&#xe076;" horiz-adv-x="469" 
d="M443 465l-24 -4v-262c0 -64 -13 -175 -127 -202c-18 -22 -24 -40 -24 -59c0 -24 11 -32 44 -32c17 0 43 2 56 3v-88c-40 -15 -80 -22 -133 -22c-74 0 -114 36 -114 99c0 32 15 69 48 99c-110 32 -119 139 -119 202v262l-24 4v112h179v-375c0 -61 1 -79 29 -79
c29 0 30 18 30 79v375h179v-112z" />
    <glyph glyph-name="Uring.sc" unicode="&#xe077;" horiz-adv-x="469" 
d="M443 465l-24 -4v-262c0 -74 -16 -210 -185 -210c-168 0 -184 136 -184 210v262l-24 4v112h179v-375c0 -61 1 -79 29 -79c29 0 30 18 30 79v375h179v-112zM357 748c0 -72 -55 -124 -126 -124c-69 0 -125 52 -125 124s56 124 125 124c71 0 126 -52 126 -124zM274 748
c0 29 -15 48 -43 48c-26 0 -43 -19 -43 -48s16 -49 43 -49c28 0 43 20 43 49z" />
    <glyph glyph-name="Utilde.sc" unicode="&#xe078;" horiz-adv-x="469" 
d="M443 465l-24 -4v-262c0 -74 -16 -210 -185 -210c-168 0 -184 136 -184 210v262l-24 4v112h179v-375c0 -61 1 -79 29 -79c29 0 30 18 30 79v375h179v-112zM409 776c0 -95 -41 -138 -105 -138c-25 0 -52 4 -76 23l-10 8c-16 13 -22 16 -30 16c-11 0 -15 -8 -15 -33v-13
h-116v13c0 84 38 136 110 136c28 0 52 -6 76 -25l9 -7c16 -12 21 -14 29 -14c9 0 12 9 12 23v22h116v-11z" />
    <glyph glyph-name="V.sc" unicode="&#xe035;" horiz-adv-x="472" 
d="M448 465l-30 -5l-60 -460h-244l-61 460l-29 5v112h173l29 -336c3 -37 6 -91 8 -126h2c2 35 7 89 10 126l28 336h174v-112z" />
    <glyph glyph-name="W.sc" unicode="&#xe036;" horiz-adv-x="598" 
d="M574 465l-26 -4l-44 -461h-168l-25 166c-4 24 -9 61 -11 86h-3c-2 -25 -6 -62 -10 -86l-25 -166h-167l-45 461l-26 4v112h168l14 -238c2 -28 3 -70 3 -96h4c1 25 6 68 10 93l10 71h132l10 -71c3 -26 8 -66 10 -93h4c0 26 2 68 3 96l13 238h169v-112z" />
    <glyph glyph-name="Wacute.sc" unicode="&#xe079;" horiz-adv-x="598" 
d="M574 465l-26 -4l-44 -461h-168l-25 166c-4 24 -9 61 -11 86h-3c-2 -25 -6 -62 -10 -86l-25 -166h-167l-45 461l-26 4v112h168l14 -238c2 -28 3 -70 3 -96h4c1 25 6 68 10 93l10 71h132l10 -71c3 -26 8 -66 10 -93h4c0 26 2 68 3 96l13 238h169v-112zM453 773l-92 -133
h-136l70 133h158z" />
    <glyph glyph-name="Wcircumflex.sc" unicode="&#xe07a;" horiz-adv-x="598" 
d="M574 465l-26 -4l-44 -461h-168l-25 166c-4 24 -9 61 -11 86h-3c-2 -25 -6 -62 -10 -86l-25 -166h-167l-45 461l-26 4v112h168l14 -238c2 -28 3 -70 3 -96h4c1 25 6 68 10 93l10 71h132l10 -71c3 -26 8 -66 10 -93h4c0 26 2 68 3 96l13 238h169v-112zM466 640h-124l-43 65
l-43 -65h-123l74 133h183z" />
    <glyph glyph-name="Wdieresis.sc" unicode="&#xe07b;" horiz-adv-x="598" 
d="M574 465l-26 -4l-44 -461h-168l-25 166c-4 24 -9 61 -11 86h-3c-2 -25 -6 -62 -10 -86l-25 -166h-167l-45 461l-26 4v112h168l14 -238c2 -28 3 -70 3 -96h4c1 25 6 68 10 93l10 71h132l10 -71c3 -26 8 -66 10 -93h4c0 26 2 68 3 96l13 238h169v-112zM454 639h-128v130
h128v-130zM274 639v130h-129v-130h129z" />
    <glyph glyph-name="Wgrave.sc" unicode="&#xe07c;" horiz-adv-x="598" 
d="M574 465l-26 -4l-44 -461h-168l-25 166c-4 24 -9 61 -11 86h-3c-2 -25 -6 -62 -10 -86l-25 -166h-167l-45 461l-26 4v112h168l14 -238c2 -28 3 -70 3 -96h4c1 25 6 68 10 93l10 71h132l10 -71c3 -26 8 -66 10 -93h4c0 26 2 68 3 96l13 238h169v-112zM386 640h-135
l-93 133h158z" />
    <glyph glyph-name="X.sc" unicode="&#xe037;" horiz-adv-x="446" 
d="M422 0h-168l-38 131l-35 -131h-157v112l39 6l66 186l-61 154l-42 7v112h169l36 -122l30 122h157v-112l-40 -7l-63 -171l64 -168l43 -7v-112z" />
    <glyph glyph-name="Y.sc" unicode="&#xe038;" horiz-adv-x="437" 
d="M413 465l-39 -7l-79 -248v-94l24 -5v-111h-202v111l25 5v94l-80 248l-38 7v112h158l22 -122c6 -34 10 -68 14 -94h1c4 26 6 60 13 94l24 122h157v-112z" />
    <glyph glyph-name="Yacute.sc" unicode="&#xe039;" horiz-adv-x="437" 
d="M413 465l-39 -7l-79 -248v-94l24 -5v-111h-202v111l25 5v94l-80 248l-38 7v112h158l22 -122c6 -34 10 -68 14 -94h1c4 26 6 60 13 94l24 122h157v-112zM368 773l-92 -133h-136l70 133h158z" />
    <glyph glyph-name="Ycircumflex.sc" unicode="&#xe07d;" horiz-adv-x="437" 
d="M413 465l-39 -7l-79 -248v-94l24 -5v-111h-202v111l25 5v94l-80 248l-38 7v112h158l22 -122c6 -34 10 -68 14 -94h1c4 26 6 60 13 94l24 122h157v-112zM386 640h-124l-43 65l-43 -65h-123l74 133h183z" />
    <glyph glyph-name="Ydieresis.sc" unicode="&#xe03a;" horiz-adv-x="437" 
d="M413 465l-39 -7l-79 -248v-94l24 -5v-111h-202v111l25 5v94l-80 248l-38 7v112h158l22 -122c6 -34 10 -68 14 -94h1c4 26 6 60 13 94l24 122h157v-112zM374 639h-128v130h128v-130zM194 639v130h-129v-130h129z" />
    <glyph glyph-name="Ygrave.sc" unicode="&#xe07e;" horiz-adv-x="437" 
d="M413 465l-39 -7l-79 -248v-94l24 -5v-111h-202v111l25 5v94l-80 248l-38 7v112h158l22 -122c6 -34 10 -68 14 -94h1c4 26 6 60 13 94l24 122h157v-112zM302 640h-135l-93 133h158z" />
    <glyph glyph-name="Z.sc" unicode="&#xe03b;" horiz-adv-x="363" 
d="M339 0h-313v126l134 325h-35l-7 -23h-91v149h309v-132l-133 -319h38l7 24h91v-150z" />
    <glyph glyph-name="Zacute.sc" unicode="&#xe07f;" horiz-adv-x="363" 
d="M339 0h-313v126l134 325h-35l-7 -23h-91v149h309v-132l-133 -319h38l7 24h91v-150zM351 773l-92 -133h-136l70 133h158z" />
    <glyph glyph-name="Zcaron.sc" unicode="&#xe03c;" horiz-adv-x="363" 
d="M339 0h-313v126l134 325h-35l-7 -23h-91v149h309v-132l-133 -319h38l7 24h91v-150zM354 773l-76 -133h-183l-74 133h123l43 -65l43 65h124z" />
    <glyph glyph-name="Zdotaccent.sc" unicode="&#xe080;" horiz-adv-x="363" 
d="M339 0h-313v126l134 325h-35l-7 -23h-91v149h309v-132l-133 -319h38l7 24h91v-150zM270 644h-171v124h171v-124z" />
    <glyph glyph-name="ampersand.sc" unicode="&#xe08c;" horiz-adv-x="462" 
d="M412 0h-127l-8 14c-29 -14 -62 -25 -101 -25c-77 0 -150 38 -150 143v6c0 60 28 110 86 157l-7 11c-38 60 -57 101 -57 144v5c0 91 55 136 165 136c57 0 128 -12 156 -22v-124h-92l-6 28h-57c-24 0 -35 -8 -35 -24v-4c0 -19 10 -40 22 -60l110 -193c5 24 7 60 8 92l-23 5
v79h140v-80l-24 -5c0 -82 -14 -144 -42 -186l42 -75v-22zM228 97l-47 87c-9 -10 -15 -26 -15 -46v-6c0 -29 15 -39 38 -39c8 0 16 1 24 4z" />
    <glyph glyph-name="ampersandalt.sc" unicode="&#xe451;" horiz-adv-x="462" 
d="M412 0h-131l-8 14c-22 -13 -58 -23 -97 -23c-88 0 -152 40 -152 145v4c0 63 25 113 88 155l-7 11c-38 61 -58 101 -58 144v5c0 91 57 138 167 138c112 0 163 -47 163 -138v-5c0 -52 -15 -118 -111 -178l45 -80c7 22 7 42 8 67v10h93v-11c0 -31 -1 -104 -42 -161l42 -75
v-22zM228 97l-47 87c-9 -10 -17 -24 -17 -46v-3c0 -29 17 -42 40 -42c8 0 16 1 24 4zM252 438v3c0 25 -9 39 -38 39c-28 0 -35 -14 -35 -35v-4c0 -24 13 -41 27 -68l8 -12c33 32 38 52 38 77z" />
    <glyph glyph-name="exclam.sc" unicode="&#xe08b;" horiz-adv-x="235" 
d="M201 0h-166v141h166v-141zM207 604l-15 -414h-150l-14 414h179z" />
    <glyph glyph-name="exclamdown.sc" unicode="&#xe08f;" horiz-adv-x="235" 
d="M207 -27h-179l14 414h150zM201 577v-140h-166v140h166z" />
    <glyph glyph-name="questiondown.sc" unicode="&#xe094;" horiz-adv-x="353" 
d="M327 -5c-45 -22 -108 -29 -170 -29c-82 0 -134 37 -134 119v6c0 34 2 69 45 142c32 54 49 82 49 134v17h128v-17c0 -56 0 -87 -22 -138c-19 -46 -33 -79 -33 -99v-4c0 -17 2 -29 26 -29c5 0 9 0 14 1l6 25h91v-128zM262 439h-164v141h164v-141z" />
    <glyph glyph-name="question.sc" unicode="&#xe08d;" horiz-adv-x="353" 
d="M253 0h-164v141h164v-141zM327 489c0 -34 -6 -78 -45 -142c-32 -53 -48 -82 -48 -139v-12h-129v12c0 61 1 91 23 143c19 46 33 83 33 99v4c0 17 -3 29 -27 29c-5 0 -9 0 -14 -1l-5 -26h-92v128c46 23 110 30 170 30c83 0 134 -37 134 -119v-6z" />
    <glyph glyph-name="Acute" unicode="&#xf6c9;" horiz-adv-x="286" 
d="M264 909l-92 -134h-136l70 134h158z" />
    <glyph glyph-name="Aringacute" unicode="&#x1fa;" horiz-adv-x="526" 
d="M378 840c0 -66 -65 -87 -125 -87s-125 21 -125 87c0 67 65 86 125 86s125 -19 125 -86zM300 840c0 22 -24 29 -47 29s-47 -7 -47 -29s24 -28 47 -28s47 6 47 28zM378 1012l-65 -76h-135l42 76h158zM503 0h-191l-17 165h-65l-17 -165h-190v125l29 3l64 484l-31 7v124h306
l82 -615l30 -3v-125zM288 311l-15 169c-4 38 -7 83 -10 119h-2c-2 -36 -5 -81 -9 -119l-16 -169h52z" />
    <glyph glyph-name="Breve" unicode="&#xf71d;" horiz-adv-x="395" 
d="M370 909c-22 -98 -81 -137 -173 -137c-90 0 -150 39 -173 137h121c8 -38 22 -49 52 -49c31 0 46 11 54 49h119z" />
    <glyph glyph-name="Caron" unicode="&#xf6ca;" horiz-adv-x="371" 
d="M352 909l-76 -134h-183l-74 134h123l43 -65l43 65h124z" />
    <glyph glyph-name="Cedilla" unicode="&#xf722;" horiz-adv-x="288" 
d="M254 -56l-91 -140h-137l65 140h163z" />
    <glyph glyph-name="Circumflex" unicode="&#xf71e;" horiz-adv-x="371" 
d="M352 775h-124l-43 65l-43 -65h-123l74 134h183z" />
    <glyph glyph-name="Dieresis" unicode="&#xf6cb;" horiz-adv-x="353" 
d="M331 775h-128v130h128v-130zM151 775v130h-129v-130h129z" />
    <glyph glyph-name="DieresisAcute" unicode="&#xf6cc;" horiz-adv-x="525" 
d="M515 775h-128v130h128v-130zM220 909h158l-92 -139h-136zM139 775h-128v130h128v-130z" />
    <glyph glyph-name="DieresisGrave" unicode="&#xf6cd;" horiz-adv-x="525" 
d="M515 775h-129v130h129v-130zM305 909l71 -139h-136l-92 139h157zM138 775h-127v130h127v-130z" />
    <glyph glyph-name="Dotaccent" unicode="&#xf71a;" horiz-adv-x="241" 
d="M206 786h-171v125h171v-125z" />
    <glyph glyph-name="Euro.taboldstyle" unicode="&#xe430;" horiz-adv-x="413" 
d="M381 6c-40 -10 -93 -18 -126 -18c-117 0 -190 46 -194 216h-34v57h34v56h-34v57h34c3 171 71 218 199 218c48 0 96 -9 121 -19v-151h-76l-6 21h-13c-38 0 -54 -10 -55 -69h112l-10 -57h-102v-56h92l-10 -57h-82c1 -60 17 -68 59 -68c17 0 55 2 91 5v-135z" />
    <glyph glyph-name="Grave" unicode="&#xf6ce;" horiz-adv-x="286" 
d="M250 775h-135l-93 134h158z" />
    <glyph glyph-name="Hungarumlaut" unicode="&#xf6cf;" horiz-adv-x="473" 
d="M251 909l-92 -134h-136l70 134h158zM462 909l-92 -134h-136l71 134h157z" />
    <glyph glyph-name="Macron" unicode="&#xf6d0;" horiz-adv-x="324" 
d="M301 786h-278v115h278v-115z" />
    <glyph glyph-name="Ogonek" unicode="&#xe46c;" horiz-adv-x="304" 
d="M276 -179c-40 -15 -80 -22 -116 -22c-78 0 -131 28 -131 91c0 46 40 91 121 120l125 -10c-77 -36 -99 -55 -99 -75c0 -16 13 -19 44 -19c17 0 43 2 56 3v-88z" />
    <glyph glyph-name="Q.alt" unicode="&#xe23c;" horiz-adv-x="496" 
d="M326 -193h-163v192c-86 29 -132 121 -132 323v99c0 278 91 335 217 335s217 -57 217 -335v-99c0 -210 -50 -300 -139 -325v-190zM248 151c41 0 41 32 41 173v95c0 141 0 174 -41 174c-40 0 -41 -33 -41 -174v-95c0 -141 1 -173 41 -173z" />
    <glyph glyph-name="Ring" unicode="&#xf71b;" horiz-adv-x="300" 
d="M275 879c0 -72 -55 -123 -126 -123c-69 0 -125 51 -125 123c0 73 56 124 125 124c71 0 126 -51 126 -124zM192 879c0 29 -15 48 -43 48c-26 0 -43 -19 -43 -48c0 -28 16 -48 43 -48c28 0 43 20 43 48z" />
    <glyph glyph-name="T_h" unicode="&#xfb10;" horiz-adv-x="853" 
d="M578 0h-195v124l30 6v462h-83v-462l31 -6v-124h-233v124l31 6v462h-20l-6 -28h-110v179h555v-187c30 21 69 31 97 31c116 0 124 -87 124 -188v-269l30 -6v-124h-195v398c0 32 -2 41 -21 41c-11 0 -22 -5 -35 -14v-425z" />
    <glyph glyph-name="T_h.caron" unicode="&#xfb11;" horiz-adv-x="854" 
d="M579 0h-195v124l30 6v462h-83v-462l31 -6v-124h-233v124l31 6v462h-20l-6 -28h-110v179h555v-187c30 21 69 31 97 31c116 0 124 -87 124 -188v-269l30 -6v-124h-195v398c0 32 -2 41 -21 41c-11 0 -22 -5 -35 -14v-425zM409 910l-76 -133h-183l-74 133h123l43 -65l43 65
h124z" />
    <glyph glyph-name="T_h.commaaccent" unicode="&#xfb12;" horiz-adv-x="854" 
d="M579 0h-195v124l30 6v462h-83v-462l31 -6v-124h-233v124l31 6v462h-20l-6 -28h-110v179h555v-187c30 21 69 31 97 31c116 0 124 -87 124 -188v-269l30 -6v-124h-195v398c0 32 -2 41 -21 41c-11 0 -22 -5 -35 -14v-425zM331 -56l-79 -140h-132l51 140h160z" />
    <glyph glyph-name="Tilde" unicode="&#xf71c;" horiz-adv-x="384" 
d="M368 911c0 -95 -41 -138 -105 -138c-25 0 -52 4 -76 23l-10 8c-16 13 -22 16 -30 16c-11 0 -15 -8 -15 -33v-13h-116v13c0 84 38 136 110 136c28 0 52 -6 76 -25l9 -7c16 -12 21 -14 29 -14c9 0 12 9 12 23v22h116v-11z" />
    <glyph glyph-name="a.alt" unicode="&#xe245;" horiz-adv-x="467" 
d="M443 0h-173v24c-29 -23 -63 -33 -104 -33c-125 0 -140 111 -140 255v90c0 179 43 251 219 251c43 0 107 -3 168 -10v-449l30 -3v-125zM256 145v296c-10 1 -16 1 -18 1c-38 0 -46 -9 -46 -106v-90c0 -91 1 -107 33 -107c9 0 23 2 31 6z" />
    <glyph glyph-name="a.alt2" unicode="&#xe43e;" horiz-adv-x="442" 
d="M418 0h-174v26c-21 -16 -61 -35 -102 -35c-114 0 -117 87 -117 158v37c0 137 85 151 188 151h10v42c0 57 -5 68 -43 68c-41 0 -86 -3 -132 -7v111c29 15 96 36 173 36c115 0 167 -42 167 -208v-251l30 -3v-125zM234 118v132h-16c-31 0 -36 -9 -36 -64v-34
c0 -31 5 -41 22 -41c10 0 19 2 30 7z" />
    <glyph glyph-name="aacute.alt" unicode="&#xe281;" horiz-adv-x="467" 
d="M443 0h-173v24c-29 -23 -63 -33 -104 -33c-125 0 -140 111 -140 255v90c0 179 43 251 219 251c43 0 107 -3 168 -10v-449l30 -3v-125zM256 145v296c-10 1 -16 1 -18 1c-38 0 -46 -9 -46 -106v-90c0 -91 1 -107 33 -107c9 0 23 2 31 6zM397 773l-92 -133h-136l70 133h158z
" />
    <glyph glyph-name="abreve.alt" unicode="&#xe441;" horiz-adv-x="467" 
d="M443 0h-173v24c-29 -23 -63 -33 -104 -33c-125 0 -140 111 -140 255v90c0 179 43 251 219 251c43 0 107 -3 168 -10v-449l30 -3v-125zM256 145v296c-10 1 -16 1 -18 1c-38 0 -46 -9 -46 -106v-90c0 -91 1 -107 33 -107c9 0 23 2 31 6zM413 773
c-22 -97 -81 -137 -173 -137c-90 0 -150 40 -173 137h121c8 -37 22 -49 52 -49c31 0 46 12 54 49h119z" />
    <glyph glyph-name="acircumflex.alt" unicode="&#xe283;" horiz-adv-x="467" 
d="M443 0h-173v24c-29 -23 -63 -33 -104 -33c-125 0 -140 111 -140 255v90c0 179 43 251 219 251c43 0 107 -3 168 -10v-449l30 -3v-125zM256 145v296c-10 1 -16 1 -18 1c-38 0 -46 -9 -46 -106v-90c0 -91 1 -107 33 -107c9 0 23 2 31 6zM406 640h-124l-43 65l-43 -65h-123
l74 133h183z" />
    <glyph glyph-name="adieresis.alt" unicode="&#xe284;" horiz-adv-x="467" 
d="M443 0h-173v24c-29 -23 -63 -33 -104 -33c-125 0 -140 111 -140 255v90c0 179 43 251 219 251c43 0 107 -3 168 -10v-449l30 -3v-125zM256 145v296c-10 1 -16 1 -18 1c-38 0 -46 -9 -46 -106v-90c0 -91 1 -107 33 -107c9 0 23 2 31 6zM383 640h-128v130h128v-130z
M203 640v130h-129v-130h129z" />
    <glyph glyph-name="afii61352" unicode="&#x2116;" horiz-adv-x="886" 
d="M861 36h-327v120h327v-120zM861 459c0 -203 -63 -252 -164 -252c-100 0 -163 49 -163 252v45c0 208 67 253 163 253c97 0 164 -45 164 -253v-45zM728 460v43c0 106 0 130 -31 130c-30 0 -30 -24 -30 -130v-43c0 -106 0 -130 30 -130c31 0 31 24 31 130zM505 618l-30 -3
v-615h-173l-76 274c-7 25 -19 66 -26 97h-2c3 -33 6 -79 6 -111v-260h-181v125l24 3v487l-24 3v125h194l74 -260c12 -42 23 -76 31 -109h2c-3 27 -5 93 -5 128v241h186v-125z" />
    <glyph glyph-name="agrave.alt" unicode="&#xe282;" horiz-adv-x="467" 
d="M443 0h-173v24c-29 -23 -63 -33 -104 -33c-125 0 -140 111 -140 255v90c0 179 43 251 219 251c43 0 107 -3 168 -10v-449l30 -3v-125zM256 145v296c-10 1 -16 1 -18 1c-38 0 -46 -9 -46 -106v-90c0 -91 1 -107 33 -107c9 0 23 2 31 6zM311 640h-135l-93 133h158z" />
    <glyph glyph-name="amacron.alt" unicode="&#xe440;" horiz-adv-x="467" 
d="M443 0h-173v24c-29 -23 -63 -33 -104 -33c-125 0 -140 111 -140 255v90c0 179 43 251 219 251c43 0 107 -3 168 -10v-449l30 -3v-125zM256 145v296c-10 1 -16 1 -18 1c-38 0 -46 -9 -46 -106v-90c0 -91 1 -107 33 -107c9 0 23 2 31 6zM372 646h-278v116h278v-116z" />
    <glyph glyph-name="ampersand.alt" unicode="&#xe43d;" horiz-adv-x="550" 
d="M500 0h-152l-11 20c-30 -19 -75 -33 -125 -33c-94 0 -185 48 -185 183v5c0 77 34 141 105 203l-8 13c-48 77 -70 118 -70 177v6c0 115 66 182 198 182s199 -67 199 -182v-6c0 -74 -36 -147 -134 -222l59 -108c7 34 9 74 9 116v10h112v-10c0 -103 -17 -177 -52 -233
l55 -95v-26zM278 120l-66 125c-15 -18 -20 -45 -20 -70v-5c0 -43 20 -59 50 -59c14 0 25 3 36 9zM296 569v5c0 31 -12 45 -44 45c-30 0 -43 -14 -43 -45v-6c0 -29 10 -51 28 -81l14 -24c43 47 45 78 45 106z" />
    <glyph glyph-name="aogonek.alt" unicode="&#xe443;" horiz-adv-x="465" 
d="M442 -179c-39 -15 -79 -22 -116 -22c-77 0 -131 28 -131 91c0 51 34 83 77 110v26c-31 -25 -65 -35 -107 -35c-125 0 -140 111 -140 255v90c0 179 43 251 218 251c49 0 110 -4 169 -10v-449l30 -3v-125c-83 -28 -100 -55 -100 -70c0 -18 10 -24 44 -24c18 0 43 2 56 3
v-88zM255 145v296c-9 1 -16 1 -18 1c-38 0 -46 -9 -46 -106v-90c0 -91 1 -107 33 -107c9 0 23 2 31 6z" />
    <glyph glyph-name="aring.alt" unicode="&#xe286;" horiz-adv-x="465" 
d="M370 745c0 -72 -55 -124 -126 -124c-69 0 -125 52 -125 124s56 124 125 124c71 0 126 -52 126 -124zM287 745c0 29 -15 48 -43 48c-26 0 -43 -19 -43 -48s16 -49 43 -49c28 0 43 20 43 49zM442 0h-173v24c-29 -23 -63 -33 -104 -33c-125 0 -140 111 -140 255v90
c0 179 43 251 219 251c43 0 107 -3 168 -10v-449l30 -3v-125zM255 145v296c-10 1 -16 1 -18 1c-38 0 -46 -9 -46 -106v-90c0 -91 1 -107 33 -107c9 0 23 2 31 6z" />
    <glyph glyph-name="aringacute" unicode="&#x1fb;" horiz-adv-x="444" 
d="M419 0h-174v26c-21 -16 -61 -35 -102 -35c-114 0 -117 87 -117 158v37c0 137 85 151 188 151h10v42c0 57 -5 68 -43 68h-18l-7 -35h-107v139c16 9 96 36 173 36c115 0 167 -42 167 -208v-251l30 -3v-125zM235 118v132h-16c-31 0 -36 -9 -36 -64v-34c0 -31 5 -41 22 -41
c10 0 19 2 30 7zM354 730c0 -72 -55 -124 -126 -124c-69 0 -125 52 -125 124s56 124 125 124c71 0 126 -52 126 -124zM271 730c0 29 -15 48 -43 48c-26 0 -43 -19 -43 -48s16 -49 43 -49c28 0 43 20 43 49zM384 1003l-92 -133h-136l70 133h158z" />
    <glyph glyph-name="aringacute.alt" unicode="&#xe442;" horiz-adv-x="465" 
d="M365 726c0 -72 -55 -124 -126 -124c-69 0 -125 52 -125 124s56 124 125 124c71 0 126 -52 126 -124zM282 726c0 29 -15 48 -43 48c-26 0 -43 -19 -43 -48s16 -49 43 -49c28 0 43 20 43 49zM442 0h-173v24c-29 -23 -63 -33 -104 -33c-125 0 -140 111 -140 255v90
c0 179 43 251 219 251c43 0 107 -3 168 -10v-449l30 -3v-125zM255 145v296c-10 1 -16 1 -18 1c-38 0 -46 -9 -46 -106v-90c0 -91 1 -107 33 -107c9 0 23 2 31 6zM399 994l-92 -133h-136l70 133h158z" />
    <glyph glyph-name="a.superior" unicode="&#xf6e9;" horiz-adv-x="315" 
d="M286 318h-115v17c-13 -9 -38 -22 -66 -22c-73 0 -76 54 -76 97v21c0 87 59 91 123 91h6v22c0 32 -3 38 -26 38h-13l-4 -20h-70v89c11 6 64 23 114 23c74 0 108 -26 108 -130v-141l19 -4v-81zM165 394v73h-10c-18 0 -22 -3 -22 -36v-18c0 -16 4 -22 14 -22c6 0 12 1 18 3z
" />
    <glyph glyph-name="at.cap" unicode="&#xe138;" horiz-adv-x="582" 
d="M556 472c0 -212 -89 -349 -256 -349c-125 0 -153 66 -155 159c0 26 1 56 2 81c9 152 50 218 166 218c43 0 94 -12 119 -24l-22 -319c43 44 68 125 68 234c0 122 -38 216 -161 216c-136 0 -194 -135 -210 -340c-3 -34 -4 -71 -4 -109c0 -127 43 -206 176 -206
c51 0 91 7 121 11v-62c-16 -5 -64 -18 -121 -18c-169 0 -253 92 -253 275c0 40 1 81 4 116c19 246 103 403 287 403c148 0 239 -105 239 -286zM316 486c-4 2 -7 2 -13 2c-23 0 -35 -28 -41 -131c-2 -28 -3 -50 -3 -75c1 -51 7 -69 30 -69h11z" />
    <glyph glyph-name="atilde.alt" unicode="&#xe285;" horiz-adv-x="467" 
d="M443 0h-173v24c-29 -23 -63 -33 -104 -33c-125 0 -140 111 -140 255v90c0 179 43 251 219 251c43 0 107 -3 168 -10v-449l30 -3v-125zM256 145v296c-10 1 -16 1 -18 1c-38 0 -46 -9 -46 -106v-90c0 -91 1 -107 33 -107c9 0 23 2 31 6zM416 776c0 -95 -41 -138 -105 -138
c-25 0 -52 4 -76 23l-10 8c-16 13 -22 16 -30 16c-11 0 -15 -8 -15 -33v-13h-116v13c0 84 38 136 110 136c28 0 52 -6 76 -25l9 -7c16 -12 21 -14 29 -14c9 0 12 9 12 23v22h116v-11z" />
    <glyph glyph-name="braceleft.cap" unicode="&#xe139;" horiz-adv-x="291" 
d="M268 0h-34c-134 0 -179 33 -179 162v84c0 55 -11 69 -32 87v78c21 19 32 31 32 88v82c0 130 45 162 179 162h34v-121h-27c-31 0 -37 -2 -37 -41v-82c0 -71 -22 -100 -60 -127c38 -27 60 -56 60 -126v-84c0 -39 6 -42 37 -42h27v-120z" />
    <glyph glyph-name="braceright.cap" unicode="&#xe13a;" horiz-adv-x="290" 
d="M268 333c-21 -18 -33 -32 -33 -87v-84c0 -129 -45 -162 -179 -162h-33v120h26c32 0 38 3 38 42v84c0 70 22 99 60 126c-38 27 -60 56 -60 127v82c0 39 -6 41 -38 41h-26v121h33c134 0 179 -32 179 -162v-82c0 -57 12 -69 33 -88v-78z" />
    <glyph glyph-name="bracketleft.cap" unicode="&#xe13b;" horiz-adv-x="259" 
d="M234 0h-207v743h207v-120h-60v-504h60v-119z" />
    <glyph glyph-name="bracketright.cap" unicode="&#xe13c;" horiz-adv-x="259" 
d="M232 0h-207v119h60v504h-60v120h207v-743z" />
    <glyph glyph-name="b.superior" unicode="&#xf6ea;" horiz-adv-x="328" 
d="M299 476c0 -116 -30 -163 -143 -163c-24 0 -57 1 -108 7v382l-19 3v81h127v-115c7 2 14 3 21 3c98 0 122 -57 122 -156v-42zM190 476v42c0 56 -3 62 -27 62c-3 0 -7 -1 -12 -2v-171h12c23 0 27 4 27 69z" />
    <glyph glyph-name="cent.denominator" unicode="&#xe119;" horiz-adv-x="289" 
d="M264 5c-12 -5 -35 -9 -57 -11v-71h-95v75c-57 18 -88 71 -88 202v48c0 131 31 184 88 200v69h95v-64c22 -1 45 -5 57 -10v-118h-71l-4 22h-6c-27 0 -44 -9 -44 -99v-48c0 -89 17 -100 46 -100c5 0 59 2 79 4v-99z" />
    <glyph glyph-name="cent.numerator" unicode="&#xe12d;" horiz-adv-x="289" 
d="M264 310c-12 -5 -35 -9 -57 -11v-71h-95v75c-57 18 -88 70 -88 202v48c0 131 31 183 88 200v69h95v-64c22 -2 45 -5 57 -10v-118h-71l-4 22h-6c-27 0 -44 -9 -44 -99v-48c0 -89 17 -100 46 -100c5 0 59 2 79 4v-99z" />
    <glyph glyph-name="cent.taboldstyle" unicode="&#xe500;" horiz-adv-x="377" 
d="M349 6c-20 -8 -56 -13 -79 -15v-102h-132v110c-83 35 -111 106 -111 257v68c0 142 32 224 111 254v100h132v-90c18 -2 60 -7 80 -14v-162h-77l-8 33h-10c-45 0 -60 -13 -60 -121v-68c0 -109 15 -122 60 -122c35 0 65 4 94 5v-133z" />
    <glyph glyph-name="cent.inferior" unicode="&#xf6df;" horiz-adv-x="289" 
d="M264 7c-12 -5 -35 -10 -57 -11v-71h-95v75c-57 17 -88 70 -88 202v48c0 131 31 183 88 200v69h95v-64c22 -2 45 -5 57 -10v-119h-71l-4 23h-6c-27 0 -44 -10 -44 -99v-48c0 -90 17 -100 46 -100c5 0 59 2 79 3v-98z" />
    <glyph glyph-name="cent.oldstyle" unicode="&#xf7a2;" horiz-adv-x="426" 
d="M373 6c-19 -8 -55 -13 -78 -15v-102h-132v110c-84 35 -111 106 -111 257v68c0 142 31 224 111 254v100h132v-90c17 -2 60 -7 79 -14v-162h-77l-7 33h-11c-44 0 -59 -13 -59 -121v-68c0 -109 15 -122 59 -122c36 0 66 4 94 5v-133z" />
    <glyph glyph-name="cent.superior" unicode="&#xf6e0;" horiz-adv-x="289" 
d="M265 304c-12 -5 -35 -9 -57 -11v-71h-95v76c-57 17 -88 70 -88 201v49c0 130 31 183 88 199v69h95v-63c22 -2 45 -6 57 -11v-118h-71l-4 22h-6c-35 0 -44 -9 -44 -98v-49c0 -89 9 -99 46 -99c5 0 59 1 79 3v-99z" />
    <glyph glyph-name="colonmonetary" unicode="&#x20a1;" horiz-adv-x="379" 
d="M356 16c-14 -5 -33 -10 -53 -15v-106h-75v96h-14c-12 0 -24 1 -34 2v-98h-75v120c-57 34 -80 107 -80 229v90c0 121 23 193 80 228v110h75v-88c11 2 22 3 34 3h14v85h75v-95c25 -5 39 -10 53 -16v-149h-108l-6 29h-5c-40 0 -47 -17 -47 -107v-90c0 -91 7 -108 47 -108
c34 0 86 4 119 7v-127z" />
    <glyph glyph-name="colonmonetary.taboldstyle" unicode="&#xe437;" horiz-adv-x="377" 
d="M350 6c-10 -4 -31 -8 -44 -10v-101h-75v93h-12c-15 0 -33 1 -43 3v-96h-75v123c-53 37 -74 113 -74 238v68c0 124 21 199 74 237v111h75v-83c13 2 32 3 43 3h12v80h75v-88c15 -3 30 -6 44 -10v-162h-77l-8 33h-10c-45 0 -60 -13 -60 -121v-68c0 -109 15 -122 60 -122
c30 0 74 3 95 5v-133z" />
    <glyph glyph-name="comma.denominator" unicode="&#xe11a;" horiz-adv-x="173" 
d="M149 105l-54 -165h-87l33 165h108z" />
    <glyph glyph-name="comma.numerator" unicode="&#xe130;" horiz-adv-x="173" 
d="M150 403l-54 -165h-87l33 165h108z" />
    <glyph glyph-name="commaaccent" unicode="&#xf6c3;" horiz-adv-x="311" 
d="M259 -56l-79 -140h-132l51 140h160z" />
    <glyph glyph-name="commaaccent.alt" unicode="&#xe504;" horiz-adv-x="311" 
d="M259 779l-50 -139h-161l80 139h131z" />
    <glyph glyph-name="commaaccent.cap" unicode="&#xe46b;" horiz-adv-x="311" 
d="M259 -56l-79 -140h-132l51 140h160z" />
    <glyph glyph-name="comma.inferior" unicode="&#xf6e1;" horiz-adv-x="173" 
d="M150 105l-54 -165h-87l33 165h108z" />
    <glyph glyph-name="comma.superior" unicode="&#xf6e2;" horiz-adv-x="173" 
d="M150 403l-54 -165h-87l33 165h108z" />
    <glyph glyph-name="currency.taboldstyle" unicode="&#xe438;" horiz-adv-x="538" 
d="M517 134l-82 -75l-68 66c-30 -16 -63 -24 -95 -24c-34 0 -66 7 -98 24l-72 -69l-80 76l72 69c-16 29 -24 61 -24 94c0 32 7 62 24 92l-73 69l81 75l71 -68c31 18 64 25 99 25c34 0 67 -7 96 -24l70 65l79 -76l-70 -65c18 -30 27 -62 27 -94c0 -33 -8 -65 -26 -94z
M356 295c0 51 -38 82 -85 82s-85 -31 -85 -82c0 -56 40 -84 85 -84c44 0 85 28 85 84z" />
    <glyph glyph-name="cyrBreve" unicode="&#xf6d1;" horiz-adv-x="395" 
d="M370 773c-22 -97 -81 -137 -173 -137c-90 0 -150 40 -173 137h121c8 -37 22 -49 52 -49c31 0 46 12 54 49h119z" />
    <glyph glyph-name="cyrFlex" unicode="&#xf6d2;" horiz-adv-x="395" 
d="M370 640h-119c-8 37 -23 49 -54 49c-30 0 -44 -12 -52 -49h-121c23 97 83 137 173 137c92 0 151 -40 173 -137z" />
    <glyph glyph-name="cyrbreve" unicode="&#xf6d4;" horiz-adv-x="395" 
d="M370 773c-22 -97 -81 -137 -173 -137c-90 0 -150 40 -173 137h121c8 -37 22 -49 52 -49c31 0 46 12 54 49h119z" />
    <glyph glyph-name="cyrflex" unicode="&#xf6d5;" horiz-adv-x="395" 
d="M370 640h-119c-8 37 -23 49 -54 49c-30 0 -44 -12 -52 -49h-121c23 97 83 137 173 137c92 0 151 -40 173 -137z" />
    <glyph glyph-name="dblGrave" unicode="&#xf6d3;" horiz-adv-x="473" 
d="M450 640h-136l-92 133h158zM239 640l-70 133h-158l92 -133h136z" />
    <glyph glyph-name="dblgrave" unicode="&#xf6d6;" horiz-adv-x="473" 
d="M450 640h-136l-92 133h158zM239 640l-70 133h-158l92 -133h136z" />
    <glyph glyph-name="dieresisacute" unicode="&#x385;" horiz-adv-x="525" 
d="M515 678h-128v130h128v-130zM220 812h158l-92 -139h-136zM139 678h-128v130h128v-130z" />
    <glyph glyph-name="dieresisgrave" unicode="&#x1fed;" horiz-adv-x="525" 
d="M11 678h128v130h-128v-130zM148 812h158l70 -139h-136zM387 678h128v130h-128v-130z" />
    <glyph glyph-name="dollar.denominator" unicode="&#xe11b;" horiz-adv-x="300" 
d="M274 127c0 -64 -29 -111 -82 -128v-76h-95v72c-29 3 -51 8 -65 14v109h72l5 -25h11c22 0 35 13 35 31s-7 27 -24 42l-55 51c-39 35 -53 68 -53 117c0 53 20 95 74 113v70h95v-63c33 -4 61 -11 78 -17v-107h-73l-5 22c-6 1 -11 1 -14 1c-22 0 -36 -6 -36 -26
c0 -11 3 -21 16 -32l43 -38c44 -40 73 -71 73 -130z" />
    <glyph glyph-name="dollar.numerator" unicode="&#xe131;" horiz-adv-x="300" 
d="M274 432c0 -64 -29 -112 -82 -128v-76h-95v72c-29 2 -51 8 -65 14v108h72l5 -25h11c22 0 35 14 35 32s-7 27 -24 42l-55 51c-39 35 -53 67 -53 117c0 53 20 95 74 112v71h95v-64c33 -4 61 -10 78 -16v-108h-73l-5 23c-6 1 -11 1 -14 1c-22 0 -36 -6 -36 -27
c0 -10 3 -20 16 -32l43 -38c44 -39 73 -71 73 -129z" />
    <glyph glyph-name="dollar.taboldstyle" unicode="&#xe42f;" horiz-adv-x="403" 
d="M376 167c0 -90 -35 -150 -112 -170v-102h-131v97c-39 3 -71 10 -95 18v154h83l7 -36h29c34 0 47 8 47 35c0 21 -7 34 -47 64l-45 34c-68 51 -85 102 -85 170c0 78 31 132 106 153v88h131v-83c40 -5 73 -13 96 -20v-148h-83l-8 31c-9 1 -17 1 -24 1c-28 0 -48 -3 -48 -27
c0 -17 6 -31 39 -56l49 -37c67 -51 91 -93 91 -166z" />
    <glyph glyph-name="dollar.inferior" unicode="&#xf6e3;" horiz-adv-x="300" 
d="M274 129c0 -64 -29 -112 -82 -128v-76h-95v72c-29 2 -51 8 -65 14v108h72l5 -25h11c22 0 35 14 35 32s-7 27 -24 42l-55 51c-39 35 -53 67 -53 117c0 53 20 95 74 112v71h95v-64c33 -4 61 -10 78 -16v-108h-73l-5 23c-6 1 -11 1 -14 1c-22 0 -36 -6 -36 -27
c0 -10 3 -20 16 -32l43 -38c44 -39 73 -71 73 -129z" />
    <glyph glyph-name="dollar.superior" unicode="&#xf6e4;" horiz-adv-x="300" 
d="M275 426c0 -64 -29 -111 -82 -128v-76h-95v72c-29 3 -51 8 -65 14v109h72l5 -25h11c22 0 35 13 35 31s-7 27 -24 42l-55 51c-39 35 -53 68 -53 117c0 53 20 95 74 113v70h95v-63c33 -4 61 -11 78 -17v-107h-73l-5 22c-6 1 -11 1 -14 1c-22 0 -36 -6 -36 -26
c0 -11 3 -21 16 -32l43 -38c44 -40 73 -71 73 -130z" />
    <glyph glyph-name="dotlessj" unicode="&#xf6be;" horiz-adv-x="242" 
d="M215 -35c0 -129 -51 -174 -151 -174c-38 0 -70 6 -94 14v124c15 -1 30 -1 46 -1c27 0 34 5 34 37v474l-30 6v132h195v-612z" />
    <glyph glyph-name="d.superior" unicode="&#xf6eb;" horiz-adv-x="330" 
d="M301 318h-112v15c-18 -14 -41 -21 -67 -21c-81 0 -93 71 -93 163v42c0 101 28 157 126 157c6 0 12 0 20 -1v29l-20 4v80h128v-383l18 -4v-81zM180 412v166c-6 1 -12 1 -12 1c-23 0 -29 -5 -29 -62v-42c0 -57 1 -66 22 -66c6 0 14 2 19 3z" />
    <glyph glyph-name="emdash.cap" unicode="&#xe13d;" horiz-adv-x="392" 
d="M369 331h-346v108h346v-108z" />
    <glyph glyph-name="endash.cap" unicode="&#xe13e;" horiz-adv-x="272" 
d="M249 331h-226v108h226v-108z" />
    <glyph glyph-name="e.superior" unicode="&#xf6ec;" horiz-adv-x="310" 
d="M281 458h-143v-3c0 -43 2 -54 46 -54c22 0 55 2 86 5v-77c-14 -6 -60 -17 -102 -17c-83 0 -139 31 -139 144v69c0 109 52 149 127 149c83 0 125 -51 125 -149v-67zM177 523v3c0 51 -4 61 -20 61c-17 0 -19 -10 -19 -61v-3h39z" />
    <glyph glyph-name="exclamdbl" unicode="&#x203c;" horiz-adv-x="553" 
d="M516 0h-196v175h196v-175zM312 775h212l-18 -536h-176zM233 175v-175h-196v175h196zM241 775l-18 -536h-176l-18 536h212z" />
    <glyph glyph-name="exclamdown.cap" unicode="&#xe142;" horiz-adv-x="270" 
d="M241 -32h-212l18 536h176zM233 743v-175h-196v175h196z" />
    <glyph glyph-name="figuredash" unicode="&#x2012;" horiz-adv-x="668" 
d="M645 233h-622v124h622v-124z" />
    <glyph glyph-name="florin.taboldstyle" unicode="&#xe435;" horiz-adv-x="416" 
d="M389 577l-9 -102c-15 1 -29 1 -43 1c-25 0 -29 -8 -31 -32l-7 -77h71l-11 -120h-71l-21 -247c-11 -120 -71 -148 -139 -148c-42 0 -65 5 -101 14l9 102h43c25 0 29 9 31 31l21 248h-66l10 120h67l7 77c11 120 72 147 139 147c42 0 65 -5 101 -14z" />
    <glyph glyph-name="guillemotleft.cap" unicode="&#xe134;" horiz-adv-x="553" 
d="M528 147h-158l-113 229l113 228h158l-113 -228zM296 147l-113 229l113 228h-158l-113 -228l113 -229h158z" />
    <glyph glyph-name="guillemotright.cap" unicode="&#xe135;" horiz-adv-x="553" 
d="M528 376l-114 -229h-157l112 229l-112 228h157zM296 376l-114 228h-157l112 -228l-112 -229h157z" />
    <glyph glyph-name="guilsinglleft.cap" unicode="&#xe136;" horiz-adv-x="321" 
d="M296 147h-159l-112 229l112 228h159l-113 -228z" />
    <glyph glyph-name="guilsinglright.cap" unicode="&#xe137;" horiz-adv-x="321" 
d="M296 376l-114 -229h-157l112 229l-112 228h157z" />
    <glyph glyph-name="h.superior" unicode="&#xf700;" horiz-adv-x="341" 
d="M312 318h-128v238c0 17 -2 21 -14 21c-7 0 -14 -3 -20 -7v-167l12 -4v-81h-140v81l19 4v299l-19 3v81h128v-131c19 13 46 19 63 19c74 0 81 -53 81 -118v-153l18 -4v-81z" />
    <glyph glyph-name="hyphen.cap" unicode="&#xe13f;" horiz-adv-x="207" 
d="M184 332h-161v108h161v-108z" />
    <glyph glyph-name="hyphen.denominator" unicode="&#xe11c;" horiz-adv-x="165" 
d="M142 136h-119v83h119v-83z" />
    <glyph glyph-name="hyphen.numerator" unicode="&#xe132;" horiz-adv-x="165" 
d="M142 434h-119v83h119v-83z" />
    <glyph glyph-name="hyphen.inferior" unicode="&#xf6e5;" horiz-adv-x="165" 
d="M142 136h-119v83h119v-83z" />
    <glyph glyph-name="hyphen.superior" unicode="&#xf6e6;" horiz-adv-x="165" 
d="M142 434h-119v83h119v-83z" />
    <glyph glyph-name="i.superior" unicode="&#x2071;" horiz-adv-x="204" 
d="M175 318h-146v81l19 4v181l-19 3v80h128v-264l18 -4v-81zM159 709h-114v77h114v-77z" />
    <glyph glyph-name="lira" unicode="&#x20a4;" horiz-adv-x="438" 
d="M413 0h-387v113c26 28 41 64 41 108v26h-45v76h45v63h-45v76h45v36c0 195 60 258 195 258c28 0 92 -5 151 -25v-175h-107l-8 37h-13c-41 0 -51 -18 -51 -95v-36h104v-76h-104v-63h104v-76h-104v-26c0 -30 -7 -55 -16 -73h195v-148z" />
    <glyph glyph-name="lira.taboldstyle" unicode="&#xe434;" horiz-adv-x="396" 
d="M368 0h-336v101c23 22 32 43 32 79v8h-37v62h37v53h-37v62h37v21c0 157 58 207 170 207c44 0 98 -6 134 -20v-151h-75l-6 30h-8c-49 0 -54 -13 -54 -64v-23h82v-62h-82v-53h82v-62h-82v-8c0 -13 -3 -33 -9 -46h152v-134z" />
    <glyph glyph-name="l.superior" unicode="&#xf6ee;" horiz-adv-x="204" 
d="M175 318h-146v81l19 4v299l-19 3v81h127v-383l19 -4v-81z" />
    <glyph glyph-name="m.superior" unicode="&#xf6ef;" 
d="M458 318h-128v239c0 13 -1 20 -12 20c-7 0 -16 -4 -21 -6c1 -8 1 -10 1 -14v-239h-108v239c0 13 -2 20 -13 20c-8 0 -16 -4 -20 -6v-168l13 -4v-81h-141v81l19 4v181l-19 3v80h121v-23c21 24 50 30 68 30c29 0 46 -10 59 -30c27 23 55 30 78 30c67 0 85 -46 85 -117v-154
l18 -4v-81z" />
    <glyph glyph-name="n.superior" unicode="&#x207f;" horiz-adv-x="348" 
d="M319 318h-128v237c0 18 -4 22 -14 22c-8 0 -14 -3 -20 -7v-167l13 -4v-81h-141v81l19 4v181l-19 3v80h122v-21c16 15 44 28 75 28c73 0 75 -59 75 -118v-153l18 -4v-81z" />
    <glyph glyph-name="numbersign.taboldstyle" unicode="&#xe436;" horiz-adv-x="445" 
d="M415 133h-62l-9 -133h-118l8 133h-49l-9 -133h-118l9 133h-37v98h44l8 113h-52v98h59l9 135h119l-10 -135h49l10 135h118l-9 -135h40v-98h-47l-8 -113h55v-98zM249 344h-49l-8 -113h50z" />
    <glyph glyph-name="onedotenleader" unicode="&#x2024;" horiz-adv-x="211" 
d="M186 0h-161v167h161v-167z" />
    <glyph glyph-name="o.superior" unicode="&#xf6f0;" horiz-adv-x="314" 
d="M285 469c0 -129 -52 -157 -128 -157c-75 0 -128 28 -128 157v48c0 129 53 157 128 157c76 0 128 -28 128 -157v-48zM177 469v48c0 53 -4 63 -20 63s-20 -10 -20 -63v-48c0 -53 4 -62 20 -62s20 9 20 62z" />
    <glyph glyph-name="overscore" unicode="&#x203e;" horiz-adv-x="460" 
d="M446 816h-431v110h431v-110z" />
    <glyph glyph-name="parenleft.cap" unicode="&#xe140;" horiz-adv-x="260" 
d="M235 0h-132c-43 91 -75 218 -75 368v8c0 150 32 276 75 367h132c-34 -91 -62 -222 -62 -367v-8c0 -145 28 -277 62 -368z" />
    <glyph glyph-name="parenleft.denominator" unicode="&#xe117;" horiz-adv-x="211" 
d="M187 -108h-102c-31 68 -58 157 -58 273v7c0 116 27 205 58 274h102c-25 -65 -48 -161 -48 -274v-7c0 -113 23 -209 48 -273z" />
    <glyph glyph-name="parenleft.numerator" unicode="&#xe12b;" horiz-adv-x="211" 
d="M187 190h-102c-31 68 -58 157 -58 274v6c0 117 27 206 58 275h102c-25 -66 -48 -161 -48 -275v-6c0 -114 23 -209 48 -274z" />
    </font>
</defs>
</svg>
