<?xml version="1.0" standalone="no"?>
<!DOCTYPE svg PUBLIC "-//W3C//DTD SVG 1.1//EN" "http://www.w3.org/Graphics/SVG/1.1/DTD/svg11.dtd" >
<svg xmlns="http://www.w3.org/2000/svg" xmlns:xlink="http://www.w3.org/1999/xlink" version="1.1">
<metadata>
Created by FontForge 20141024 at Thu Apr 30 19:24:02 2015
 By System Administrator
Copyright (c) 2007 Monotype Imaging Inc. Soho is designed by Sebastian Lester. All rights reserved.
</metadata>
<defs>
<font id="SohoPro-Condensed" horiz-adv-x="329" >
  <font-face 
    font-family="Soho Pro"
    font-weight="400"
    font-stretch="condensed"
    units-per-em="1000"
    panose-1="2 4 5 6 3 5 6 2 2 4"
    ascent="768"
    descent="-232"
    x-height="550"
    cap-height="743"
    bbox="-71 -227 1160 1023"
    underline-thickness="56"
    underline-position="-23"
    stemh="73"
    stemv="83"
    unicode-range="U+000D-FB16"
  />
<missing-glyph horiz-adv-x="161" 
 />
    <glyph glyph-name="f_i" unicode="fi" horiz-adv-x="489" 
d="M467 0h-167v71l42 5v402h-165v-402l42 -5v-71h-167v71l42 5v402l-76 10v62h76v76c0 93 18 151 114 151c35 0 69 -9 83 -14v-58c-11 1 -43 4 -66 4c-43 0 -48 -18 -48 -83v-76h248v-474l42 -5v-71zM427 653h-86v114h86v-114z" />
    <glyph glyph-name="f_l" unicode="fl" horiz-adv-x="503" 
d="M478 0h-167v71l42 5v629c-24 1 -75 4 -107 4c-54 0 -69 -9 -69 -83v-76h109v-72h-109v-402l42 -5v-71h-167v71l42 5v402l-77 10v62h77v76c0 116 40 151 133 151c46 0 95 -7 126 -10h83v-691l42 -5v-71z" />
    <glyph glyph-name="f_f" unicode="ff" horiz-adv-x="558" 
d="M534 478h-109v-402l42 -5v-71h-167v71l42 5v402h-165v-402l42 -5v-71h-167v71l42 5v402l-77 10v62h77v76c0 90 18 151 114 151c34 0 68 -9 82 -14v-58c-10 1 -43 4 -66 4c-43 0 -47 -20 -47 -83v-76h165v76c0 90 18 151 114 151c34 0 68 -9 82 -14v-58c-10 1 -43 4 -65 4
c-44 0 -48 -18 -48 -83v-76h109v-72z" />
    <glyph glyph-name="f_f_i" unicode="ffi" horiz-adv-x="740" 
d="M712 0h-166v71l42 5v402h-163v-402l42 -5v-71h-167v71l42 5v402h-165v-402l42 -5v-71h-167v71l42 5v402l-77 10v62h77v76c0 92 18 151 114 151c34 0 68 -9 82 -14v-58c-10 1 -43 4 -66 4c-43 0 -47 -18 -47 -83v-76h165v76c0 92 18 151 114 151c34 0 68 -9 82 -14v-58
c-10 1 -43 4 -65 4c-44 0 -48 -18 -48 -83v-76h246v-474l41 -5v-71zM672 653h-85v114h85v-114z" />
    <glyph glyph-name="f_f_l" unicode="ffl" horiz-adv-x="749" 
d="M724 0h-167v71l42 5v629c-25 1 -74 4 -106 4c-53 0 -69 -9 -69 -83v-76h110v-72h-110v-402l42 -5v-71h-167v71l42 5v402h-164v-402l42 -5v-71h-167v71l42 5v402l-77 10v62h77v76c0 91 18 151 114 151c34 0 68 -9 82 -14v-58c-10 1 -43 4 -66 4c-43 0 -47 -18 -47 -83v-76
h164v76c0 116 41 151 133 151c46 0 94 -7 125 -10h83v-691l42 -5v-71z" />
    <glyph glyph-name="f_b" unicode="fb" horiz-adv-x="721" 
d="M423 767v-239c34 22 76 33 114 33c111 0 151 -71 151 -206v-137c0 -158 -51 -228 -197 -228c-48 0 -76 2 -149 10v704c-28 3 -67 5 -104 5c-46 0 -61 -9 -61 -83v-76h109v-72h-109v-402l42 -5v-71h-167v71l42 5v402l-77 10v62h77v76c0 111 40 151 127 151
c44 0 89 -5 121 -10h81zM605 218v138c0 95 -19 130 -85 130c-22 0 -65 -6 -95 -25v-392c20 -2 42 -4 70 -4c79 0 110 30 110 153z" />
    <glyph glyph-name="f_f_b" unicode="ffb" horiz-adv-x="972" 
d="M939 218c0 -158 -51 -228 -197 -228c-48 0 -76 2 -149 10v704c-21 2 -67 5 -104 5c-46 0 -61 -9 -61 -83v-76h109v-72h-109v-402l42 -5v-71h-167v71l42 5v402h-168v-402l42 -5v-71h-167v71l42 5v402l-77 9v63h77v76c0 90 17 151 114 151c34 0 64 -8 83 -14v-58
c-16 2 -43 4 -65 4c-45 0 -49 -18 -49 -83v-76h168v76c0 111 40 151 127 151c44 0 89 -5 121 -10h81v-239c34 22 76 33 114 33c111 0 151 -71 151 -206v-137zM856 218v138c0 95 -19 130 -85 130c-22 0 -65 -6 -95 -25v-393c13 -1 39 -3 70 -3c79 0 110 30 110 153z" />
    <glyph glyph-name="f_f_h" unicode="ffh" horiz-adv-x="1003" 
d="M977 0h-125v370c0 90 -15 116 -68 116c-40 0 -82 -16 -111 -35v-375l42 -5v-71h-167v71l42 5v629c-25 2 -64 4 -96 4c-53 0 -69 -9 -69 -83v-76h109v-72h-109v-402l42 -5v-71h-167v71l42 5v402h-165v-402l42 -5v-71h-167v71l42 5v402l-77 10v62h77v76
c0 90 17 151 114 151c34 0 68 -9 82 -14v-58c-10 1 -43 4 -66 4c-43 0 -47 -18 -47 -83v-76h165v76c0 116 45 151 136 151c44 0 85 -6 112 -10h83v-245c27 18 72 38 129 38c104 0 133 -77 133 -185v-299l42 -5v-71z" />
    <glyph glyph-name="f_f_j" unicode="ffj" horiz-adv-x="730" 
d="M673 -83c0 -85 -24 -132 -105 -132c-26 0 -54 5 -64 8v62c11 -1 26 -1 44 -1c35 0 42 13 42 63v561h-164v-402l42 -5v-71h-167v71l42 5v402h-166v-402l42 -5v-71h-167v71l42 5v402l-77 10v62h77v76c0 90 18 151 114 151c34 0 68 -9 82 -14v-58c-10 1 -43 4 -65 4
c-44 0 -48 -20 -48 -83v-76h166v76c0 90 18 151 114 151c34 0 68 -9 82 -14v-58c-10 1 -43 4 -66 4c-43 0 -47 -18 -47 -83v-76h247v-633zM673 653h-85v114h85v-114z" />
    <glyph glyph-name="f_f_k" unicode="ffk" horiz-adv-x="954" 
d="M929 0h-106l-152 268v-268h-124v71l42 5v629c-26 2 -64 4 -96 4c-53 0 -69 -9 -69 -83v-76h110v-72h-110v-402l42 -5v-71h-167v71l42 5v402h-164v-402l42 -5v-71h-167v71l42 5v402l-77 10v62h77v76c0 90 18 151 114 151c34 0 68 -9 82 -14v-58c-10 1 -43 4 -66 4
c-43 0 -47 -18 -47 -83v-76h164v76c0 116 45 151 136 151c44 0 85 -6 112 -10h82v-466l151 249h107v-71l-59 -5l-115 -188l121 -210l53 -5v-71z" />
    <glyph glyph-name="f_h" unicode="fh" horiz-adv-x="755" 
d="M729 0h-125v370c0 90 -15 116 -68 116c-40 0 -82 -16 -111 -35v-375l42 -5v-71h-167v71l42 5v629c-26 2 -64 4 -96 4c-53 0 -69 -9 -69 -83v-76h109v-72h-109v-402l42 -5v-71h-167v71l42 5v402l-77 10v62h77v76c0 116 44 151 136 151c43 0 85 -6 112 -10h83v-245
c27 18 72 38 129 38c104 0 133 -77 133 -185v-299l42 -5v-71z" />
    <glyph glyph-name="f_j" unicode="fj" horiz-adv-x="479" 
d="M424 -83c0 -85 -24 -132 -105 -132c-26 0 -54 5 -64 8v62c11 -1 26 -1 44 -1c35 0 42 13 42 63v561h-164v-402l42 -5v-71h-167v71l42 5v402l-77 10v62h77v76c0 90 18 151 114 151c34 0 68 -9 82 -14v-58c-10 1 -43 4 -66 4c-43 0 -47 -18 -47 -83v-76h247v-633zM424 653
h-85v114h85v-114z" />
    <glyph glyph-name="f_k" unicode="fk" horiz-adv-x="707" 
d="M682 0h-106l-151 268v-268h-125v71l42 5v629c-26 2 -64 4 -96 4c-53 0 -69 -9 -69 -83v-76h109v-72h-109v-402l42 -5v-71h-167v71l42 5v402l-77 10v62h77v76c0 116 44 151 136 151c43 0 85 -6 112 -10h83v-466l150 249h107v-71l-58 -5l-116 -188l121 -210l53 -5v-71z" />
    <glyph glyph-name=".notdef" horiz-adv-x="161" 
 />
    <glyph glyph-name="CR" unicode="&#xd;" horiz-adv-x="161" 
 />
    <glyph glyph-name="space" unicode=" " horiz-adv-x="161" 
 />
    <glyph glyph-name="numbersign" unicode="#" horiz-adv-x="544" 
d="M492 196h-111l-15 -196h-73l16 196h-113l-16 -196h-72l15 196h-71v72h78l15 194h-93v71h99l18 210h72l-17 -210h113l17 210h72l-17 -210h83v-71h-89l-15 -194h104v-72zM331 462h-113l-16 -194h113z" />
    <glyph glyph-name="dollar" unicode="$" horiz-adv-x="455" 
d="M411 186c0 -108 -51 -172 -146 -190v-115h-81v110c-61 3 -115 14 -132 20v128h64l11 -71c16 0 45 -2 80 -2c85 0 118 40 118 120c0 61 -19 97 -79 137l-88 59c-82 55 -114 107 -114 197c0 95 46 152 140 167v108h81v-102c60 -3 110 -15 128 -20v-123h-64l-11 64
c-22 2 -46 4 -74 4c-82 0 -114 -29 -114 -98c0 -55 19 -89 78 -129l88 -59c82 -54 115 -116 115 -205z" />
    <glyph glyph-name="percent" unicode="%" horiz-adv-x="856" 
d="M817 182c0 -117 -40 -191 -144 -191c-106 0 -146 74 -146 191v82c0 117 40 189 146 189c104 0 144 -72 144 -189v-82zM743 182v82c0 96 -26 123 -71 123c-44 0 -69 -27 -69 -123v-82c0 -96 25 -124 69 -124c45 0 71 28 71 124zM642 743l-352 -743h-78l352 743h78z
M328 480c0 -110 -31 -190 -144 -190c-114 0 -145 83 -145 190v82c0 108 31 190 145 190c113 0 144 -79 144 -190v-82zM254 480v82c0 94 -20 124 -70 124s-70 -33 -70 -124v-82c0 -93 20 -124 70 -124s70 31 70 124z" />
    <glyph glyph-name="ampersand" unicode="&#x26;" horiz-adv-x="551" 
d="M425 0l-36 49c-37 -36 -86 -59 -153 -59c-90 0 -198 47 -198 186v9c0 78 32 147 101 201c-52 71 -79 124 -79 201v4c0 110 66 162 169 162c72 0 138 -15 158 -21v-123h-65l-11 66c-25 2 -51 2 -76 2c-55 0 -90 -19 -90 -86v-4c0 -56 16 -88 61 -150l184 -249
c19 58 22 124 22 168l-43 6v63h161v-63l-43 -6c0 -61 -9 -157 -48 -236l77 -103v-17h-91zM236 63c48 0 83 18 109 45l-161 218c-38 -32 -62 -69 -62 -141v-9c0 -74 55 -113 114 -113z" />
    <glyph glyph-name="quoteright" unicode="&#x2019;" horiz-adv-x="181" 
d="M151 767l-56 -226h-65l35 226h86z" />
    <glyph glyph-name="parenleft" unicode="(" horiz-adv-x="264" 
d="M245 -202h-79c-60 103 -121 267 -121 469v7c0 202 61 367 121 469h79c-73 -132 -115 -277 -115 -469v-7c0 -192 42 -336 115 -469z" />
    <glyph glyph-name="parenright" unicode=")" horiz-adv-x="264" 
d="M219 267c0 -202 -61 -366 -120 -469h-80c73 133 116 277 116 469v7c0 192 -43 337 -116 469h80c59 -102 120 -267 120 -469v-7z" />
    <glyph glyph-name="asterisk" unicode="*" horiz-adv-x="469" 
d="M429 596l-59 -19c-26 -9 -55 -17 -85 -21c22 -21 40 -44 56 -65l38 -50l-64 -46l-37 51c-16 21 -32 47 -45 73c-14 -27 -30 -51 -45 -73l-36 -50l-64 45l38 51c16 22 34 45 56 66c-30 4 -58 12 -84 20l-59 19l23 74l60 -19c26 -8 54 -19 80 -33c-5 29 -6 58 -6 85v63h78
v-63c0 -27 -3 -57 -8 -87c27 14 54 25 80 34l59 19z" />
    <glyph glyph-name="plus" unicode="+" horiz-adv-x="513" 
d="M461 357h-169v-171h-69v171h-172v68h172v171h69v-171h169v-68z" />
    <glyph glyph-name="comma" unicode="," horiz-adv-x="201" 
d="M171 135l-87 -227h-74l64 227h97z" />
    <glyph glyph-name="hyphen" unicode="-" horiz-adv-x="274" 
d="M237 257h-200v72h200v-72z" />
    <glyph glyph-name="period" unicode="." horiz-adv-x="179" 
d="M131 0h-83v135h83v-135z" />
    <glyph glyph-name="slash" unicode="/" horiz-adv-x="306" 
d="M309 743l-232 -743h-80l232 743h80z" />
    <glyph glyph-name="zero" unicode="0" horiz-adv-x="479" 
d="M440 266c0 -173 -53 -276 -200 -276c-148 0 -201 103 -201 276v210c0 173 53 277 201 277c147 0 200 -104 200 -277v-210zM355 266v210c0 147 -37 202 -116 202c-78 0 -115 -55 -115 -202v-210c0 -147 37 -203 115 -203c79 0 116 56 116 203z" />
    <glyph glyph-name="one" unicode="1" horiz-adv-x="438" 
d="M400 0h-363v71l140 6v579l-140 -50v76l160 64h64v-669l139 -6v-71z" />
    <glyph glyph-name="two" unicode="2" horiz-adv-x="443" 
d="M396 0h-357v96c0 156 51 212 169 307c99 79 111 110 111 171c0 82 -34 105 -130 105c-20 0 -48 -2 -73 -3l-10 -67h-64v122c9 3 83 22 157 22c139 0 205 -55 205 -179c0 -75 -23 -132 -143 -230c-117 -95 -140 -133 -140 -248v-19h200l10 62h65v-139z" />
    <glyph glyph-name="three" unicode="3" horiz-adv-x="449" 
d="M406 193c0 -158 -79 -203 -211 -203c-66 0 -134 17 -153 23v125h64l11 -72c23 -2 48 -3 74 -3c87 0 130 18 130 131v32c0 75 -13 123 -95 123h-156v71h156c82 0 95 48 95 121v18c0 99 -34 120 -130 120c-23 0 -50 -1 -73 -3l-10 -67h-64v122c11 4 85 22 151 22
c137 0 211 -43 211 -194v-18c0 -73 -23 -125 -73 -156c51 -31 73 -84 73 -159v-33z" />
    <glyph glyph-name="four" unicode="4" horiz-adv-x="478" 
d="M452 198h-83v-122l42 -5v-71h-170v71l42 5v122h-258v91l247 454h97v-470h83v-75zM284 273v330l-181 -330h181z" />
    <glyph glyph-name="five" unicode="5" horiz-adv-x="442" 
d="M406 197c0 -158 -78 -207 -216 -207c-71 0 -137 17 -154 21v127h64l11 -72c24 -2 49 -3 75 -3c97 0 135 25 135 134v41c0 100 -23 137 -141 137h-131l24 368h314v-134h-65l-10 57h-166l-14 -218h54c176 0 220 -80 220 -210v-41z" />
    <glyph glyph-name="six" unicode="6" horiz-adv-x="476" 
d="M437 212c0 -194 -119 -222 -195 -222c-99 0 -203 26 -203 253v250c0 160 41 260 220 260c66 0 130 -15 152 -22v-122h-64l-10 67c-23 2 -50 3 -74 3c-131 0 -139 -68 -139 -186v-49c32 9 85 17 124 17c108 0 189 -39 189 -186v-63zM352 212v56c0 97 -30 124 -112 124
c-29 0 -75 -5 -116 -16v-136c0 -125 35 -177 118 -177c72 0 110 55 110 149z" />
    <glyph glyph-name="seven" unicode="7" horiz-adv-x="426" 
d="M397 650l-236 -650h-91l250 666h-218l-10 -57h-64v134h369v-93z" />
    <glyph glyph-name="eight" unicode="8" horiz-adv-x="489" 
d="M448 211c0 -206 -104 -221 -202 -221h-3c-99 0 -203 15 -203 221v10c0 89 23 133 70 167c-39 27 -68 68 -68 154v13c0 150 87 198 201 198h3c114 0 201 -48 201 -198v-13c0 -86 -29 -127 -68 -154c46 -34 69 -78 69 -167v-10zM364 211v10c0 91 -21 130 -84 130h-71
c-64 0 -85 -39 -85 -130v-10c0 -127 44 -147 119 -147h3c74 0 118 20 118 147zM363 542v13c0 101 -43 124 -117 124h-3c-75 0 -118 -23 -118 -124v-13c0 -74 21 -119 84 -119h71c62 0 83 45 83 119z" />
    <glyph glyph-name="nine" unicode="9" horiz-adv-x="476" 
d="M437 250c0 -160 -41 -260 -220 -260c-67 0 -131 15 -153 22v124h64l10 -69c23 -2 50 -3 75 -3c131 0 139 68 139 186v49c-33 -9 -85 -17 -124 -17c-108 0 -189 39 -189 186v63c0 194 118 222 195 222c99 0 203 -26 203 -253v-250zM352 367v136c0 125 -35 177 -118 177
c-72 0 -110 -55 -110 -149v-56c0 -97 30 -124 112 -124c29 0 75 5 116 16z" />
    <glyph glyph-name="colon" unicode=":" horiz-adv-x="187" 
d="M135 0h-83v135h83v-135zM135 550v-136h-83v136h83z" />
    <glyph glyph-name="semicolon" unicode=";" horiz-adv-x="199" 
d="M155 135l-88 -227h-73l64 227h97zM144 414h-83v136h83v-136z" />
    <glyph glyph-name="less" unicode="&#x3c;" horiz-adv-x="513" 
d="M416 140h-101l-219 251l219 250h101l-218 -250z" />
    <glyph glyph-name="equal" unicode="=" horiz-adv-x="513" 
d="M430 245h-347v71h347v-71zM430 467h-347v71h347v-71z" />
    <glyph glyph-name="greater" unicode="&#x3e;" horiz-adv-x="513" 
d="M416 391l-218 -251h-102l218 251l-218 250h102z" />
    <glyph glyph-name="question" unicode="?" horiz-adv-x="377" 
d="M187 0h-83v135h83v-135zM184 244v-49h-78v49c0 74 10 117 66 191c60 80 74 122 74 174v11c0 65 -30 81 -94 81c-15 0 -29 0 -42 -1l-11 -59h-64v115c34 10 85 21 131 21c99 0 168 -38 168 -157v-11c0 -52 -15 -104 -71 -180c-69 -94 -79 -118 -79 -185z" />
    <glyph glyph-name="at" unicode="@" horiz-adv-x="628" 
d="M593 367c0 -180 -72 -312 -272 -312c-118 0 -155 55 -155 139c0 16 2 57 3 83c10 172 66 209 151 209c45 0 90 -10 127 -22l-24 -326c74 30 109 112 109 229c0 157 -55 235 -189 235c-138 0 -215 -72 -240 -313c-4 -41 -9 -85 -9 -136c0 -98 30 -208 195 -208
c64 0 130 8 134 8v-46c-3 -1 -71 -14 -134 -14c-199 0 -254 127 -254 261c0 50 4 102 8 140c26 266 122 362 300 362c174 0 250 -104 250 -289zM364 416c-12 2 -28 3 -42 3c-42 0 -67 -15 -76 -145c-3 -47 -3 -63 -3 -80c0 -56 19 -76 76 -76h24z" />
    <glyph glyph-name="A" unicode="A" horiz-adv-x="556" 
d="M185 0h-166v71l40 5l139 591l-43 5v71h182l157 -667l43 -5v-71h-167v71l37 4l-38 170h-183l-38 -170l37 -4v-71zM350 326l-47 207c-11 51 -17 94 -22 135h-6c-6 -41 -10 -84 -22 -135l-48 -207h145z" />
    <glyph glyph-name="B" unicode="B" horiz-adv-x="495" 
d="M460 207c0 -174 -104 -207 -235 -207h-195v71l42 6v589l-42 5v72h196c135 0 231 -31 231 -187v-13c0 -67 -26 -131 -82 -159c58 -28 85 -91 85 -164v-13zM375 207v13c0 77 -24 129 -117 129h-101v-272h68c94 0 150 18 150 130zM373 543v13c0 101 -56 110 -147 110h-69
v-243h101c92 0 115 47 115 120z" />
    <glyph glyph-name="C" unicode="C" horiz-adv-x="434" 
d="M400 8c-21 -5 -77 -18 -132 -18c-125 0 -233 38 -233 291v182c0 252 108 290 233 290c47 0 111 -10 132 -19v-125h-65l-10 62c-19 1 -39 2 -57 2c-96 0 -148 -33 -148 -210v-182c0 -178 52 -212 148 -212c18 0 38 0 57 2l10 65h65v-128z" />
    <glyph glyph-name="D" unicode="D" horiz-adv-x="522" 
d="M484 283c0 -155 -47 -283 -254 -283h-200v71l42 6v589l-42 6v71h200c204 0 254 -126 254 -281v-179zM397 283v179c0 146 -43 204 -171 204h-69v-589h69c128 0 171 61 171 206z" />
    <glyph glyph-name="E" unicode="E" horiz-adv-x="446" 
d="M413 0h-383v71l42 5v591l-42 5v71h383v-134h-65l-10 57h-181v-240h241v-80h-241v-269h181l10 59h65v-136z" />
    <glyph glyph-name="F" unicode="F" horiz-adv-x="438" 
d="M398 346h-241v-270l42 -5v-71h-169v71l42 5v591l-42 5v71h383v-134h-65l-10 57h-181v-240h241v-80z" />
    <glyph glyph-name="G" unicode="G" horiz-adv-x="466" 
d="M428 11c-21 -6 -93 -21 -165 -21c-126 0 -228 50 -228 285v193c0 244 114 285 229 285c81 0 155 -18 164 -21v-123h-65l-10 61c-22 1 -51 3 -76 3c-93 0 -157 -16 -157 -205v-193c0 -180 56 -206 156 -206c25 0 47 1 68 3v236l-79 6v71h163v-374z" />
    <glyph glyph-name="H" unicode="H" horiz-adv-x="575" 
d="M376 743h169v-71l-42 -5v-591l42 -5v-71h-169v71l42 5v277h-261v-277l42 -5v-71h-169v71l42 5v591l-42 5v71h169v-71l-42 -5v-235h261v235l-42 5v71z" />
    <glyph glyph-name="I" unicode="I" horiz-adv-x="231" 
d="M200 0h-169v71l42 5v591l-42 5v71h169v-71l-42 -5v-591l42 -5v-71z" />
    <glyph glyph-name="J" unicode="J" horiz-adv-x="224" 
d="M193 672l-42 -5v-749c0 -92 -33 -129 -119 -129c-24 0 -54 4 -69 10v63h60c39 0 43 14 43 56v749l-42 5v71h169v-71z" />
    <glyph glyph-name="K" unicode="K" horiz-adv-x="501" 
d="M199 0h-169v71l42 5v591l-42 5v71h169v-71l-42 -5v-272l219 348h101v-71l-47 -5l-184 -290l185 -302l46 -4v-71h-107l-213 355v-279l42 -5v-71z" />
    <glyph glyph-name="L" unicode="L" horiz-adv-x="423" 
d="M399 0h-369v71l42 5v591l-42 5v71h169v-71l-42 -5v-590h167l10 60h65v-137z" />
    <glyph glyph-name="M" unicode="M" horiz-adv-x="642" 
d="M197 0h-167v71l42 5v591l-42 5v71h157l101 -283c12 -33 21 -67 31 -100h2c10 33 20 67 31 99l103 284h157v-71l-42 -5v-591l42 -5v-71h-168v71l42 5v406c0 60 4 114 7 167h-2c-14 -44 -26 -89 -42 -132l-76 -209h-106l-75 209c-15 43 -28 90 -41 132h-2
c4 -53 6 -107 6 -167v-406l42 -5v-71z" />
    <glyph glyph-name="N" unicode="N" horiz-adv-x="567" 
d="M373 743h164v-71l-42 -5v-667h-116l-193 541c-13 35 -26 67 -40 113h-2c5 -50 8 -95 8 -147v-431l42 -5v-71h-164v71l42 5v591l-42 5v71h162l188 -518c11 -32 28 -75 41 -114h2c-6 60 -8 109 -8 152v404l-42 5v71z" />
    <glyph glyph-name="O" unicode="O" horiz-adv-x="510" 
d="M475 292c0 -177 -58 -302 -220 -302c-163 0 -220 125 -220 302v158c0 178 57 303 220 303c162 0 220 -125 220 -303v-158zM389 292v158c0 154 -42 225 -134 225c-93 0 -135 -71 -135 -225v-158c0 -153 42 -224 135 -224c92 0 134 71 134 224z" />
    <glyph glyph-name="P" unicode="P" horiz-adv-x="484" 
d="M204 0h-174v70l42 5v593l-42 5v71h186c138 0 238 -37 238 -214v-17c0 -178 -100 -219 -238 -219h-59v-218l47 -5v-71zM368 513v17c0 115 -47 136 -152 136h-59v-295h59c105 0 152 27 152 142z" />
    <glyph glyph-name="Q" unicode="Q" horiz-adv-x="510" 
d="M475 292c0 -161 -49 -278 -178 -299v-78c0 -35 6 -39 50 -39h62v-61c-7 -1 -47 -11 -90 -11c-63 0 -106 19 -106 111v78c-130 21 -178 138 -178 299v158c0 178 57 303 220 303c162 0 220 -125 220 -303v-158zM389 292v158c0 154 -42 225 -134 225
c-93 0 -135 -71 -135 -225v-158c0 -153 42 -224 135 -224c92 0 134 71 134 224z" />
    <glyph glyph-name="R" unicode="R" horiz-adv-x="519" 
d="M199 0h-169v71l42 5v591l-42 5v71h181c139 0 243 -40 243 -214v-10c0 -113 -38 -172 -107 -205l105 -239l48 -4v-71h-111l-129 294c-13 -1 -30 -1 -44 -1h-59v-217l42 -5v-71zM368 519v10c0 114 -48 137 -157 137h-54v-296h58c112 0 153 37 153 149z" />
    <glyph glyph-name="S" unicode="S" horiz-adv-x="432" 
d="M400 186c0 -127 -67 -196 -199 -196c-71 0 -140 14 -160 20v128h64l10 -70c29 -2 53 -2 77 -2c86 0 122 30 122 120c0 61 -19 97 -79 137l-88 59c-80 53 -115 107 -115 197c0 116 64 174 193 174c71 0 137 -15 157 -21v-123h-65l-11 66c-23 1 -53 2 -73 2
c-80 0 -114 -28 -114 -98c0 -59 19 -91 78 -131l88 -59c82 -55 115 -114 115 -203z" />
    <glyph glyph-name="T" unicode="T" horiz-adv-x="469" 
d="M445 609h-64l-10 57h-94v-592l42 -5v-69h-169v69l42 5v592h-94l-10 -57h-64v134h421v-134z" />
    <glyph glyph-name="U" unicode="U" horiz-adv-x="559" 
d="M360 743h169v-71l-42 -5v-392c0 -166 -49 -285 -208 -285s-207 119 -207 285v392l-42 5v71h169v-71l-42 -5v-374c0 -161 21 -225 122 -225s123 65 123 225v374l-42 5v71z" />
    <glyph glyph-name="V" unicode="V" horiz-adv-x="554" 
d="M368 743h167v-71l-41 -5l-158 -667h-119l-158 667l-40 5v71h166v-71l-38 -5l105 -458c11 -47 17 -97 24 -136h2c6 39 12 89 23 136l105 458l-38 5v71z" />
    <glyph glyph-name="W" unicode="W" horiz-adv-x="718" 
d="M534 743h165v-71l-41 -5l-86 -667h-128l-68 366c-7 40 -12 77 -16 106h-2c-4 -29 -10 -68 -17 -106l-66 -366h-129l-87 667l-40 5v71h167v-71l-40 -5l51 -445c6 -50 10 -100 15 -150h4c6 44 10 91 21 148l61 314h123l62 -317c11 -56 15 -106 20 -145h4c3 53 9 95 15 150
l50 445l-38 5v71z" />
    <glyph glyph-name="X" unicode="X" horiz-adv-x="516" 
d="M320 743h172v-71l-43 -5l-143 -293l147 -298l44 -5v-71h-178v71l39 4l-104 210l-101 -210l39 -4v-71h-173v71l42 5l147 302l-143 289l-43 5v71h175v-71l-38 -5l101 -201l97 201l-37 5v71z" />
    <glyph glyph-name="Y" unicode="Y" horiz-adv-x="481" 
d="M298 743h164v-71l-39 -5l-141 -371v-219l42 -5v-72h-168v72l42 5v218l-142 372l-37 5v71h164v-71l-38 -5l59 -163c13 -34 28 -89 36 -110h2c8 21 23 77 35 110l59 163l-38 5v71z" />
    <glyph glyph-name="Z" unicode="Z" horiz-adv-x="456" 
d="M426 0h-396v97l298 569h-213l-10 -57h-64v134h375v-96l-299 -570h234l11 62h64v-139z" />
    <glyph glyph-name="bracketleft" unicode="[" horiz-adv-x="285" 
d="M256 -203h-189v946h189v-72h-106v-802h106v-72z" />
    <glyph glyph-name="backslash" unicode="\" horiz-adv-x="321" 
d="M317 0h-81l-232 743h81z" />
    <glyph glyph-name="bracketright" unicode="]" horiz-adv-x="285" 
d="M218 -203h-189v72h106v803h-106v71h189v-946z" />
    <glyph glyph-name="asciicircum" unicode="^" horiz-adv-x="513" 
d="M447 400h-87l-104 303l-104 -303h-86l119 345h142z" />
    <glyph glyph-name="underscore" unicode="_" horiz-adv-x="401" 
d="M407 -107h-413v56h413v-56z" />
    <glyph glyph-name="quoteleft" unicode="&#x2018;" horiz-adv-x="181" 
d="M151 767l-35 -226h-86l56 226h65z" />
    <glyph glyph-name="a" unicode="a" horiz-adv-x="432" 
d="M406 0h-118v31c-29 -22 -74 -41 -127 -41c-90 0 -127 51 -127 147v28c0 126 67 164 195 164h52v52c0 89 -14 106 -96 106c-18 0 -35 0 -54 -2l-10 -52h-62v106c14 6 72 21 138 21c137 0 167 -53 167 -179v-305l42 -5v-71zM281 89v177h-52c-85 0 -112 -20 -112 -101v-38
c0 -57 21 -70 62 -70c42 0 83 19 102 32z" />
    <glyph glyph-name="b" unicode="b" horiz-adv-x="423" 
d="M390 218c0 -158 -51 -228 -197 -228c-48 0 -76 2 -149 10v692l-42 5v71h124v-240c34 22 76 33 113 33c112 0 151 -71 151 -206v-137zM307 218v138c0 95 -18 130 -84 130c-22 0 -65 -6 -96 -25v-393c20 -1 41 -3 71 -3c79 0 109 30 109 153z" />
    <glyph glyph-name="c" unicode="c" horiz-adv-x="361" 
d="M331 9c-23 -10 -67 -19 -122 -19c-131 0 -173 86 -173 224v123c0 138 42 223 173 223c52 0 98 -9 122 -19v-108h-63l-10 52c-11 1 -27 1 -36 1c-70 0 -103 -24 -103 -149v-123c0 -125 33 -150 103 -150c25 0 60 3 109 9v-64z" />
    <glyph glyph-name="d" unicode="d" horiz-adv-x="450" 
d="M424 0h-122v25c-30 -20 -70 -35 -116 -35c-105 0 -150 70 -150 206v139c0 176 69 225 178 225c28 0 56 -3 85 -9v140l-55 5v71h138v-691l42 -5v-71zM299 90v388c-30 6 -61 9 -81 9c-65 0 -99 -21 -99 -152v-139c0 -93 21 -132 86 -132c33 0 64 9 94 26z" />
    <glyph glyph-name="e" unicode="e" horiz-adv-x="426" 
d="M396 245h-279v-15c0 -126 14 -167 120 -167c43 0 99 5 144 14v-68c-29 -9 -81 -19 -149 -19c-148 0 -199 61 -199 249v61c0 170 51 260 181 260c134 0 182 -90 182 -265v-50zM312 313v14c0 92 -11 158 -97 158s-98 -66 -98 -158v-14h195z" />
    <glyph glyph-name="f" unicode="f" horiz-adv-x="308" 
d="M286 478h-109v-402l42 -5v-71h-167v71l42 5v402l-77 9v63h77v76c0 90 18 151 114 151c34 0 64 -8 83 -14v-58c-16 2 -43 4 -65 4c-45 0 -49 -18 -49 -83v-76h109v-72z" />
    <glyph glyph-name="g" unicode="g" horiz-adv-x="437" 
d="M405 -42c0 -104 -51 -175 -188 -175s-185 70 -185 175c0 44 16 90 42 122c-26 18 -39 43 -39 76c0 37 15 65 41 85c-24 30 -37 72 -37 133c0 107 35 186 181 186h188v-63l-45 -6c12 -19 29 -60 29 -117c0 -116 -51 -184 -176 -184c-40 0 -70 6 -91 15
c-13 -12 -20 -26 -20 -40c0 -26 12 -34 47 -34h64c110 0 189 -23 189 -173zM322 -40c-1 82 -21 101 -106 101h-76c-14 -18 -26 -49 -26 -101c0 -69 16 -106 103 -106c84 0 105 36 105 106zM310 374c0 71 -15 115 -94 115c-82 0 -95 -45 -95 -115c0 -67 15 -113 95 -113
c79 0 94 46 94 113z" />
    <glyph glyph-name="h" unicode="h" horiz-adv-x="481" 
d="M455 0h-125v370c0 90 -15 116 -68 116c-40 0 -82 -16 -111 -35v-375l42 -5v-71h-167v71l42 5v615l-42 5v71h125v-245c26 18 72 38 129 38c104 0 133 -77 133 -185v-299l42 -5v-71z" />
    <glyph glyph-name="i" unicode="i" horiz-adv-x="219" 
d="M193 0h-167v71l42 5v397l-42 5v72h125v-474l42 -5v-71zM153 653h-86v114h86v-114z" />
    <glyph glyph-name="j" unicode="j" horiz-adv-x="206" 
d="M151 -84c0 -93 -24 -132 -111 -132c-21 0 -48 3 -58 6v63c11 -1 26 -1 44 -1c35 0 42 13 42 64v557l-43 5v72h126v-634zM151 653h-86v114h86v-114z" />
    <glyph glyph-name="k" unicode="k" horiz-adv-x="434" 
d="M408 0h-109l-148 268v-268h-125v71l42 5v615l-42 5v71h125v-466l148 249h109v-71l-58 -5l-114 -188l120 -210l52 -5v-71z" />
    <glyph glyph-name="l" unicode="l" horiz-adv-x="219" 
d="M193 0h-167v71l42 5v615l-42 5v71h125v-691l42 -5v-71z" />
    <glyph glyph-name="m" unicode="m" horiz-adv-x="681" 
d="M655 0h-126v391c0 64 0 97 -53 97c-27 0 -66 -17 -96 -37c3 -20 3 -40 3 -60v-391h-85v391c0 64 0 97 -50 97c-32 0 -71 -21 -97 -39v-373l42 -5v-71h-167v71l42 5v398l-42 5v71h123v-36c36 29 79 46 122 46c46 0 74 -16 93 -48c44 33 85 48 125 48
c123 0 123 -97 123 -169v-315l43 -5v-71z" />
    <glyph glyph-name="n" unicode="n" horiz-adv-x="481" 
d="M455 0h-125v376c0 86 -10 112 -61 112c-32 0 -70 -13 -118 -39v-373l42 -5v-71h-167v71l42 5v398l-42 5v71h123v-36c41 25 84 46 135 46c109 0 129 -64 129 -184v-300l42 -5v-71z" />
    <glyph glyph-name="o" unicode="o" horiz-adv-x="433" 
d="M398 216c0 -153 -62 -226 -182 -226s-181 73 -181 226v118c0 153 61 226 181 226s182 -73 182 -226v-118zM315 216v118c0 112 -31 151 -99 151s-98 -39 -98 -151v-118c0 -112 30 -151 98 -151s99 39 99 151z" />
    <glyph glyph-name="p" unicode="p" horiz-adv-x="448" 
d="M193 -206h-167v71l42 4v605l-42 5v71h122v-31c34 27 78 41 119 41c103 0 147 -68 147 -207v-137c0 -174 -74 -226 -182 -226c-25 0 -57 4 -81 10v-131l42 -4v-71zM331 216v137c0 97 -22 132 -82 132c-30 0 -57 -8 -98 -31v-381c29 -6 57 -9 81 -9c62 0 99 24 99 152z" />
    <glyph glyph-name="q" unicode="q" horiz-adv-x="425" 
d="M419 -206h-166v71l42 4v156c-40 -25 -83 -35 -122 -35c-105 0 -142 68 -142 206v139c0 164 44 225 197 225c46 0 82 -1 149 -10v-681l42 -5v-70zM294 92v391c-19 1 -51 2 -68 2c-83 0 -112 -19 -112 -150v-139c0 -94 15 -131 78 -131c23 0 60 6 102 27z" />
    <glyph glyph-name="r" unicode="r" horiz-adv-x="320" 
d="M301 484c-46 0 -116 -12 -150 -36v-372l42 -5v-71h-167v71l42 5v398l-42 5v71h122v-39c47 41 104 49 153 49v-76z" />
    <glyph glyph-name="s" unicode="s" horiz-adv-x="365" 
d="M335 136c0 -80 -39 -146 -166 -146c-59 0 -119 14 -135 21v117h63l10 -63c20 -1 38 -2 57 -2c71 0 88 25 88 72s-13 67 -85 113l-27 17c-82 52 -110 99 -110 164c0 82 48 131 160 131c58 0 113 -12 133 -20v-107h-63l-10 52c-18 1 -41 2 -53 2c-59 0 -84 -13 -84 -57
c0 -39 12 -65 72 -102l29 -18c98 -61 121 -98 121 -174z" />
    <glyph glyph-name="t" unicode="t" horiz-adv-x="320" 
d="M293 2c-13 -4 -46 -12 -83 -12c-75 0 -105 29 -105 118v370l-80 9v63h80v133h83v-133h105v-72h-105v-363c0 -49 3 -56 41 -56c22 0 55 4 64 4v-61z" />
    <glyph glyph-name="u" unicode="u" horiz-adv-x="481" 
d="M455 0h-125v37c-45 -27 -89 -47 -137 -47c-109 0 -125 84 -125 184v300l-42 5v71h125v-376c0 -86 9 -112 63 -112c29 0 68 13 116 40v372l-42 5v71h125v-474l42 -5v-71z" />
    <glyph glyph-name="v" unicode="v" horiz-adv-x="463" 
d="M279 550h162v-71l-41 -5l-112 -474h-115l-113 474l-40 5v71h163v-68l-38 -4l56 -265c13 -62 21 -105 29 -153h2c9 48 16 91 29 153l56 265l-38 4v68z" />
    <glyph glyph-name="w" unicode="w" horiz-adv-x="695" 
d="M512 550h160v-71l-43 -5l-74 -474h-113l-75 306c-12 51 -16 79 -18 105h-3c-3 -26 -6 -54 -18 -105l-74 -306h-114l-74 474l-43 5v71h162v-68l-37 -4l35 -270c7 -52 11 -94 16 -136h4c8 44 14 89 25 135l65 275h111l65 -275c11 -48 18 -90 26 -135h4c4 43 8 85 15 136
l35 270l-37 4v68z" />
    <glyph glyph-name="x" unicode="x" horiz-adv-x="454" 
d="M70 76l108 204l-103 194l-49 5v71h104l100 -189l96 189h99v-71l-52 -5l-102 -188l112 -210l48 -5v-71h-102l-108 201l-103 -201h-95v71z" />
    <glyph glyph-name="y" unicode="y" horiz-adv-x="479" 
d="M289 550h169v-71l-47 -5l-130 -511c-26 -103 -50 -179 -161 -179c-34 0 -64 5 -82 11v65c32 -3 54 -3 76 -3c50 0 64 27 85 113l7 30l-138 474l-48 5v71h169v-68l-37 -4l59 -222c13 -51 24 -106 33 -152h2c6 46 15 101 27 150l53 224l-37 4v68z" />
    <glyph glyph-name="z" unicode="z" horiz-adv-x="374" 
d="M344 0h-314v102l230 376h-148l-10 -45h-63v117h304v-94l-234 -384h162l10 57h63v-129z" />
    <glyph glyph-name="braceleft" unicode="{" horiz-adv-x="296" 
d="M266 -206h-48c-128 0 -142 65 -142 136v185c0 74 -9 90 -49 126v55c40 37 49 52 49 127v182c0 77 14 138 142 138h47v-71h-47c-55 0 -60 -12 -60 -67v-182c0 -80 -19 -119 -59 -155c40 -35 60 -74 60 -153v-185c0 -54 4 -65 59 -65h48v-71z" />
    <glyph glyph-name="bar" unicode="|" horiz-adv-x="216" 
d="M149 -206h-82v949h82v-949z" />
    <glyph glyph-name="braceright" unicode="}" horiz-adv-x="296" 
d="M269 241c-40 -36 -50 -52 -50 -126v-185c0 -71 -13 -136 -141 -136h-48v71h48c55 0 59 11 59 65v185c0 79 20 118 60 153c-40 36 -60 75 -60 155v182c0 55 -4 67 -59 67h-47v71h47c128 0 141 -61 141 -138v-182c0 -75 10 -90 50 -127v-55z" />
    <glyph glyph-name="asciitilde" unicode="~" horiz-adv-x="513" 
d="M446 451c0 -67 -18 -119 -94 -119c-44 0 -76 17 -102 49l-36 44c-18 23 -29 32 -46 32c-29 0 -34 -18 -34 -53v-68h-68v68c0 68 23 119 102 119c39 0 67 -18 94 -50l35 -43c17 -21 30 -32 51 -32c27 0 30 19 30 52v68h68v-67z" />
    <glyph glyph-name="Aacute" unicode="&#xc1;" horiz-adv-x="556" 
d="M185 0h-166v71l40 5l139 591l-43 5v71h182l157 -667l43 -5v-71h-167v71l37 4l-38 170h-183l-38 -170l37 -4v-71zM350 326l-47 207c-11 51 -17 94 -22 135h-6c-6 -41 -10 -84 -22 -135l-48 -207h145zM405 947l-111 -153h-79l96 153h94z" />
    <glyph glyph-name="Agrave" unicode="&#xc0;" horiz-adv-x="556" 
d="M185 0h-166v71l40 5l139 591l-43 5v71h182l157 -667l43 -5v-71h-167v71l37 4l-38 170h-183l-38 -170l37 -4v-71zM350 326l-47 207c-11 51 -17 94 -22 135h-6c-6 -41 -10 -84 -22 -135l-48 -207h145zM338 794h-80l-111 153h95z" />
    <glyph glyph-name="Acircumflex" unicode="&#xc2;" horiz-adv-x="556" 
d="M185 0h-166v71l40 5l139 591l-43 5v71h182l157 -667l43 -5v-71h-167v71l37 4l-38 170h-183l-38 -170l37 -4v-71zM350 326l-47 207c-11 51 -17 94 -22 135h-6c-6 -41 -10 -84 -22 -135l-48 -207h145zM434 794h-77l-80 106l-79 -106h-78l101 153h113z" />
    <glyph glyph-name="Adieresis" unicode="&#xc4;" horiz-adv-x="556" 
d="M185 0h-166v71l40 5l139 591l-43 5v71h182l157 -667l43 -5v-71h-167v71l37 4l-38 170h-183l-38 -170l37 -4v-71zM350 326l-47 207c-11 51 -17 94 -22 135h-6c-6 -41 -10 -84 -22 -135l-48 -207h145zM406 810h-80v112h80v-112zM227 810v112h-80v-112h80z" />
    <glyph glyph-name="Atilde" unicode="&#xc3;" horiz-adv-x="556" 
d="M185 0h-166v71l40 5l139 591l-43 5v71h182l157 -667l43 -5v-71h-167v71l37 4l-38 170h-183l-38 -170l37 -4v-71zM350 326l-47 207c-11 51 -17 94 -22 135h-6c-6 -41 -10 -84 -22 -135l-48 -207h145zM446 903c0 -66 -21 -110 -87 -110c-38 0 -66 13 -92 46l-22 27
c-16 20 -28 30 -45 30c-19 0 -27 -15 -27 -49v-49h-61v49c0 66 26 110 88 110c39 0 66 -16 92 -48l21 -26c18 -22 28 -28 45 -28c20 0 27 14 27 48v50h61v-50z" />
    <glyph glyph-name="Amacron" unicode="&#x100;" horiz-adv-x="556" 
d="M185 0h-166v71l40 5l139 591l-43 5v71h182l157 -667l43 -5v-71h-167v71l37 4l-38 170h-183l-38 -170l37 -4v-71zM350 326l-47 207c-11 51 -17 94 -22 135h-6c-6 -41 -10 -84 -22 -135l-48 -207h145zM412 810h-270v66h270v-66z" />
    <glyph glyph-name="Aring" unicode="&#xc5;" horiz-adv-x="556" 
d="M185 0h-166v71l40 5l139 591l-43 5v71h182l157 -667l43 -5v-71h-167v71l37 4l-38 170h-183l-38 -170l37 -4v-71zM350 326l-47 207c-11 51 -17 94 -22 135h-6c-6 -41 -10 -84 -22 -135l-48 -207h145zM382 882c0 -79 -44 -110 -104 -110s-105 31 -105 110s45 111 105 111
s104 -32 104 -111zM323 882c0 48 -21 58 -45 58c-25 0 -45 -10 -45 -58c0 -47 20 -57 45 -57c24 0 45 10 45 57z" />
    <glyph glyph-name="Abreve" unicode="&#x102;" horiz-adv-x="556" 
d="M185 0h-166v71l40 5l139 591l-43 5v71h182l157 -667l43 -5v-71h-167v71l37 4l-38 170h-183l-38 -170l37 -4v-71zM350 326l-47 207c-11 51 -17 94 -22 135h-6c-6 -41 -10 -84 -22 -135l-48 -207h145zM408 948c-3 -85 -24 -155 -131 -155s-127 70 -131 155h63
c4 -77 19 -98 68 -98s65 21 68 98h63z" />
    <glyph glyph-name="Aogonek" unicode="&#x104;" horiz-adv-x="556" 
d="M185 0h-166v71l40 5l139 591l-43 5v71h182l157 -667l43 -5v-71c-72 -49 -106 -84 -106 -121c0 -23 11 -38 49 -38c22 0 42 2 57 3v-49c-19 -5 -43 -9 -71 -9c-72 0 -107 34 -107 93c0 43 32 82 83 121h-72v71l37 4l-38 170h-183l-38 -170l37 -4v-71zM350 326l-47 207
c-11 51 -17 94 -22 135h-6c-6 -41 -10 -84 -22 -135l-48 -207h145z" />
    <glyph glyph-name="AE" unicode="&#xc6;" horiz-adv-x="739" 
d="M700 0h-383v71l42 5v168h-174l-55 -244h-112v71l40 5l139 591l-43 5v71h546v-134h-64l-10 57h-182v-240h241v-80h-241v-269h182l10 59h64v-136zM359 323v344h-78c-9 -37 -17 -78 -26 -117l-52 -227h156z" />
    <glyph glyph-name="AEacute" unicode="&#x1fc;" horiz-adv-x="739" 
d="M700 0h-383v71l42 5v168h-174l-55 -244h-112v71l40 5l139 591l-43 5v71h546v-134h-64l-10 57h-182v-240h241v-80h-241v-269h182l10 59h64v-136zM359 323v344h-78c-9 -37 -17 -78 -26 -117l-52 -227h156zM554 946l-111 -153h-79l96 153h94z" />
    <glyph glyph-name="Cacute" unicode="&#x106;" horiz-adv-x="434" 
d="M400 8c-21 -5 -77 -18 -132 -18c-125 0 -233 38 -233 291v182c0 252 108 290 233 290c47 0 111 -10 132 -19v-125h-65l-10 62c-19 1 -39 2 -57 2c-96 0 -148 -33 -148 -210v-182c0 -178 52 -212 148 -212c18 0 38 0 57 2l10 65h65v-128zM377 947l-111 -153h-79l96 153h94
z" />
    <glyph glyph-name="Ccircumflex" unicode="&#x108;" horiz-adv-x="434" 
d="M400 8c-21 -5 -77 -18 -132 -18c-125 0 -233 38 -233 291v182c0 252 108 290 233 290c47 0 111 -10 132 -19v-125h-65l-10 62c-19 1 -39 2 -57 2c-96 0 -148 -33 -148 -210v-182c0 -178 52 -212 148 -212c18 0 38 0 57 2l10 65h65v-128zM393 794h-77l-80 106l-79 -106
h-78l101 153h113z" />
    <glyph glyph-name="Ccaron" unicode="&#x10c;" horiz-adv-x="434" 
d="M400 8c-21 -5 -77 -18 -132 -18c-125 0 -233 38 -233 291v182c0 252 108 290 233 290c47 0 111 -10 132 -19v-125h-65l-10 62c-19 1 -39 2 -57 2c-96 0 -148 -33 -148 -210v-182c0 -178 52 -212 148 -212c18 0 38 0 57 2l10 65h65v-128zM401 947l-100 -153h-113l-101 153
h78l79 -106l80 106h77z" />
    <glyph glyph-name="Cdotaccent" unicode="&#x10a;" horiz-adv-x="434" 
d="M400 8c-21 -5 -77 -18 -132 -18c-125 0 -233 38 -233 291v182c0 252 108 290 233 290c47 0 111 -10 132 -19v-125h-65l-10 62c-19 1 -39 2 -57 2c-96 0 -148 -33 -148 -210v-182c0 -178 52 -212 148 -212c18 0 38 0 57 2l10 65h65v-128zM285 795h-83v113h83v-113z" />
    <glyph glyph-name="Ccedilla" unicode="&#xc7;" horiz-adv-x="434" 
d="M400 8c-21 -5 -77 -18 -132 -18c-125 0 -233 38 -233 291v182c0 252 108 290 233 290c47 0 111 -10 132 -19v-125h-65l-10 62c-19 1 -39 2 -57 2c-96 0 -148 -33 -148 -210v-182c0 -178 52 -212 148 -212c18 0 38 0 57 2l10 65h65v-128zM296 -62l-105 -144h-77l87 144h95
z" />
    <glyph glyph-name="Dcaron" unicode="&#x10e;" horiz-adv-x="522" 
d="M484 283c0 -155 -47 -283 -254 -283h-200v71l42 6v589l-42 6v71h200c204 0 254 -126 254 -281v-179zM397 283v179c0 146 -43 204 -171 204h-69v-589h69c128 0 171 61 171 206zM429 946l-100 -153h-113l-101 153h78l79 -106l80 106h77z" />
    <glyph glyph-name="Dcroat" unicode="&#x110;" horiz-adv-x="522" 
d="M484 283c0 -155 -46 -283 -254 -283h-200v71l42 6v271h-42v77h42v241l-42 6v71h200c204 0 254 -126 254 -281v-179zM398 283v179c0 146 -43 204 -172 204h-69v-241h107v-77h-107v-271h69c129 0 172 61 172 206z" />
    <glyph glyph-name="Eth" unicode="&#xd0;" horiz-adv-x="522" 
d="M484 283c0 -155 -46 -283 -254 -283h-200v71l42 6v271h-42v77h42v241l-42 6v71h200c204 0 254 -126 254 -281v-179zM398 283v179c0 146 -43 204 -172 204h-69v-241h107v-77h-107v-271h69c129 0 172 61 172 206z" />
    <glyph glyph-name="Eacute" unicode="&#xc9;" horiz-adv-x="446" 
d="M413 0h-383v71l42 5v591l-42 5v71h383v-134h-65l-10 57h-181v-240h241v-80h-241v-269h181l10 59h65v-136zM376 947l-111 -153h-79l96 153h94z" />
    <glyph glyph-name="Egrave" unicode="&#xc8;" horiz-adv-x="446" 
d="M413 0h-383v71l42 5v591l-42 5v71h383v-134h-65l-10 57h-181v-240h241v-80h-241v-269h181l10 59h65v-136zM299 794h-80l-111 153h95z" />
    <glyph glyph-name="Ecircumflex" unicode="&#xca;" horiz-adv-x="446" 
d="M413 0h-383v71l42 5v591l-42 5v71h383v-134h-65l-10 57h-181v-240h241v-80h-241v-269h181l10 59h65v-136zM394 794h-77l-80 106l-79 -106h-78l101 153h113z" />
    <glyph glyph-name="Edieresis" unicode="&#xcb;" horiz-adv-x="446" 
d="M413 0h-383v71l42 5v591l-42 5v71h383v-134h-65l-10 57h-181v-240h241v-80h-241v-269h181l10 59h65v-136zM371 810h-80v112h80v-112zM192 810v112h-80v-112h80z" />
    <glyph glyph-name="Emacron" unicode="&#x112;" horiz-adv-x="446" 
d="M413 0h-383v71l42 5v591l-42 5v71h383v-134h-65l-10 57h-181v-240h241v-80h-241v-269h181l10 59h65v-136zM381 810h-270v66h270v-66z" />
    <glyph glyph-name="Ecaron" unicode="&#x11a;" horiz-adv-x="446" 
d="M413 0h-383v71l42 5v591l-42 5v71h383v-134h-65l-10 57h-181v-240h241v-80h-241v-269h181l10 59h65v-136zM401 947l-100 -153h-113l-101 153h78l79 -106l80 106h77z" />
    <glyph glyph-name="Ebreve" unicode="&#x114;" horiz-adv-x="446" 
d="M413 0h-383v71l42 5v591l-42 5v71h383v-134h-65l-10 57h-181v-240h241v-80h-241v-269h181l10 59h65v-136zM376 948c-3 -85 -24 -155 -131 -155s-127 70 -131 155h63c4 -77 19 -98 68 -98s65 21 68 98h63z" />
    <glyph glyph-name="Edotaccent" unicode="&#x116;" horiz-adv-x="446" 
d="M413 0h-383v71l42 5v591l-42 5v71h383v-134h-65l-10 57h-181v-240h241v-80h-241v-269h181l10 59h65v-136zM283 810h-83v113h83v-113z" />
    <glyph glyph-name="Eogonek" unicode="&#x118;" horiz-adv-x="446" 
d="M414 0h-29c-77 -65 -83 -90 -83 -115c0 -28 11 -44 49 -44c22 0 42 2 57 3v-49c-18 -5 -43 -9 -71 -9c-72 0 -107 39 -107 93c0 42 28 83 73 121h-273v71l42 5v591l-42 5v71h384v-134h-65l-10 57h-182v-240h241v-80h-241v-269h182l10 59h65v-136z" />
    <glyph glyph-name="Gcircumflex" unicode="&#x11c;" horiz-adv-x="466" 
d="M428 11c-21 -6 -93 -21 -165 -21c-126 0 -228 50 -228 285v193c0 244 114 285 229 285c81 0 155 -18 164 -21v-123h-65l-10 61c-22 1 -51 3 -76 3c-93 0 -157 -16 -157 -205v-193c0 -180 56 -206 156 -206c25 0 47 1 68 3v236l-79 6v71h163v-374zM413 794h-77l-80 106
l-79 -106h-78l101 153h113z" />
    <glyph glyph-name="Gbreve" unicode="&#x11e;" horiz-adv-x="466" 
d="M428 11c-21 -6 -93 -21 -165 -21c-126 0 -228 50 -228 285v193c0 244 114 285 229 285c81 0 155 -18 164 -21v-123h-65l-10 61c-22 1 -51 3 -76 3c-93 0 -157 -16 -157 -205v-193c0 -180 56 -206 156 -206c25 0 47 1 68 3v236l-79 6v71h163v-374zM392 948
c-3 -85 -24 -155 -131 -155s-127 70 -131 155h63c4 -77 19 -98 68 -98s65 21 68 98h63z" />
    <glyph glyph-name="Gdotaccent" unicode="&#x120;" horiz-adv-x="466" 
d="M428 11c-21 -6 -93 -21 -165 -21c-126 0 -228 50 -228 285v193c0 244 114 285 229 285c81 0 155 -18 164 -21v-123h-65l-10 61c-22 1 -51 3 -76 3c-93 0 -157 -16 -157 -205v-193c0 -180 56 -206 156 -206c25 0 47 1 68 3v236l-79 6v71h163v-374zM293 810h-83v113h83
v-113z" />
    <glyph glyph-name="Gcommaaccent" unicode="&#x122;" horiz-adv-x="466" 
d="M428 11c-21 -6 -93 -21 -165 -21c-126 0 -228 50 -228 285v193c0 244 114 285 229 285c81 0 155 -18 164 -21v-123h-65l-10 61c-22 1 -51 3 -76 3c-93 0 -157 -16 -157 -205v-193c0 -180 56 -206 156 -206c25 0 47 1 68 3v236l-79 6v71h163v-374zM314 -62l-75 -144h-74
l52 144h97z" />
    <glyph glyph-name="Hcircumflex" unicode="&#x124;" horiz-adv-x="575" 
d="M376 743h169v-71l-42 -5v-591l42 -5v-71h-169v71l42 5v277h-261v-277l42 -5v-71h-169v71l42 5v591l-42 5v71h169v-71l-42 -5v-235h261v235l-42 5v71zM446 794h-77l-80 106l-79 -106h-78l101 153h113z" />
    <glyph glyph-name="Hbar" unicode="&#x126;" horiz-adv-x="575" 
d="M376 743h169v-71l-42 -5v-70h45v-69h-45v-452l42 -5v-71h-169v71l42 5v277h-261v-277l42 -5v-71h-169v71l42 5v452h-46v69h46v70l-42 5v71h169v-71l-42 -5v-70h261v70l-42 5v71zM157 432h261v96h-261v-96z" />
    <glyph glyph-name="Iacute" unicode="&#xcd;" horiz-adv-x="231" 
d="M200 0h-169v71l42 5v591l-42 5v71h169v-71l-42 -5v-591l42 -5v-71zM247 947l-111 -153h-79l96 153h94z" />
    <glyph glyph-name="Igrave" unicode="&#xcc;" horiz-adv-x="231" 
d="M200 0h-169v71l42 5v591l-42 5v71h169v-71l-42 -5v-591l42 -5v-71zM176 794h-80l-111 153h95z" />
    <glyph glyph-name="Icircumflex" unicode="&#xce;" horiz-adv-x="231" 
d="M200 0h-169v71l42 5v591l-42 5v71h169v-71l-42 -5v-591l42 -5v-71zM273 794h-77l-80 106l-79 -106h-78l101 153h113z" />
    <glyph glyph-name="Idieresis" unicode="&#xcf;" horiz-adv-x="231" 
d="M200 0h-169v71l42 5v591l-42 5v71h169v-71l-42 -5v-591l42 -5v-71zM246 810h-80v112h80v-112zM67 810v112h-80v-112h80z" />
    <glyph glyph-name="Itilde" unicode="&#x128;" horiz-adv-x="231" 
d="M200 0h-169v71l42 5v591l-42 5v71h169v-71l-42 -5v-591l42 -5v-71zM282 897c0 -66 -21 -110 -87 -110c-38 0 -66 13 -92 46l-22 27c-16 20 -28 30 -45 30c-19 0 -27 -15 -27 -49v-49h-61v49c0 66 26 110 88 110c39 0 66 -16 92 -48l21 -26c18 -22 28 -28 45 -28
c20 0 27 14 27 48v50h61v-50z" />
    <glyph glyph-name="Imacron" unicode="&#x12a;" horiz-adv-x="231" 
d="M200 0h-169v71l42 5v591l-42 5v71h169v-71l-42 -5v-591l42 -5v-71zM250 810h-270v66h270v-66z" />
    <glyph glyph-name="Ibreve" unicode="&#x12c;" horiz-adv-x="231" 
d="M200 0h-169v71l42 5v591l-42 5v71h169v-71l-42 -5v-591l42 -5v-71zM246 945c-3 -85 -24 -155 -131 -155s-127 70 -131 155h63c4 -77 19 -98 68 -98s65 21 68 98h63z" />
    <glyph glyph-name="Idotaccent" unicode="&#x130;" horiz-adv-x="231" 
d="M200 0h-169v71l42 5v591l-42 5v71h169v-71l-42 -5v-591l42 -5v-71zM158 810h-83v113h83v-113z" />
    <glyph glyph-name="Iogonek" unicode="&#x12e;" horiz-adv-x="231" 
d="M200 -205c-18 -5 -43 -9 -71 -9c-72 0 -107 39 -107 93c0 42 17 75 66 121h-57v71l42 5v591l-42 5v71h169v-71l-42 -5v-591l42 -5v-71h-21c-77 -64 -85 -90 -85 -115c0 -28 11 -44 49 -44c22 0 42 2 57 3v-49z" />
    <glyph glyph-name="IJ" unicode="&#x132;" horiz-adv-x="453" 
d="M423 672l-42 -5v-753c0 -92 -33 -129 -119 -129c-24 0 -54 5 -69 10v63h60c39 0 43 14 43 56v753l-42 5v71h169v-71zM198 0h-169v71l42 5v591l-42 5v71h169v-71l-42 -5v-591l42 -5v-71z" />
    <glyph glyph-name="Jcircumflex" unicode="&#x134;" horiz-adv-x="224" 
d="M193 672l-42 -5v-749c0 -92 -33 -129 -119 -129c-24 0 -54 4 -69 10v63h60c39 0 43 14 43 56v749l-42 5v71h169v-71zM266 794h-77l-80 106l-79 -106h-78l101 153h113z" />
    <glyph glyph-name="Kcommaaccent" unicode="&#x136;" horiz-adv-x="501" 
d="M199 0h-169v71l42 5v591l-42 5v71h169v-71l-42 -5v-272l219 348h101v-71l-47 -5l-184 -290l185 -302l46 -4v-71h-107l-213 355v-279l42 -5v-71zM306 -62l-75 -144h-74l52 144h97z" />
    <glyph glyph-name="Lacute" unicode="&#x139;" horiz-adv-x="423" 
d="M399 0h-369v71l42 5v591l-42 5v71h169v-71l-42 -5v-590h167l10 60h65v-137zM379 947l-111 -153h-79l96 153h94z" />
    <glyph glyph-name="Lcaron" unicode="&#x13d;" horiz-adv-x="423" 
d="M399 0h-369v71l42 5v591l-42 5v71h169v-71l-42 -5v-590h167l10 60h65v-137zM404 766l-72 -225h-71l51 225h92z" />
    <glyph glyph-name="Ldot" unicode="&#x13f;" horiz-adv-x="423" 
d="M317 299h-83v113h83v-113zM397 0h-369v71l42 5v591l-42 5v71h169v-71l-42 -5v-590h168l10 60h64v-137z" />
    <glyph glyph-name="Lcommaaccent" unicode="&#x13b;" horiz-adv-x="423" 
d="M284 -62l-75 -144h-73l52 144h96zM399 0h-369v71l42 5v591l-42 5v71h169v-71l-42 -5v-590h168l10 60h64v-137z" />
    <glyph glyph-name="Lslash" unicode="&#x141;" horiz-adv-x="423" 
d="M399 0h-369v71l42 5v196l-63 -66v108l63 66v287l-42 5v71h169v-71l-42 -5v-186l90 104v-108l-90 -104v-296h167l10 60h65v-137z" />
    <glyph glyph-name="Nacute" unicode="&#x143;" horiz-adv-x="567" 
d="M373 743h164v-71l-42 -5v-667h-116l-193 541c-13 35 -26 67 -40 113h-2c5 -50 8 -95 8 -147v-431l42 -5v-71h-164v71l42 5v591l-42 5v71h162l188 -518c11 -32 28 -75 41 -114h2c-6 60 -8 109 -8 152v404l-42 5v71zM429 947l-111 -153h-79l96 153h94z" />
    <glyph glyph-name="Ntilde" unicode="&#xd1;" horiz-adv-x="567" 
d="M373 743h164v-71l-42 -5v-667h-116l-193 541c-13 35 -26 67 -40 113h-2c5 -50 8 -95 8 -147v-431l42 -5v-71h-164v71l42 5v591l-42 5v71h162l188 -518c11 -32 28 -75 41 -114h2c-6 60 -8 109 -8 152v404l-42 5v71zM453 901c0 -66 -21 -110 -87 -110c-38 0 -66 13 -92 46
l-22 27c-16 20 -28 30 -45 30c-19 0 -27 -15 -27 -49v-49h-61v49c0 66 26 110 88 110c39 0 66 -16 92 -48l21 -26c18 -22 28 -28 45 -28c20 0 27 14 27 48v50h61v-50z" />
    <glyph glyph-name="Ncaron" unicode="&#x147;" horiz-adv-x="567" 
d="M373 743h164v-71l-42 -5v-667h-116l-193 541c-13 35 -26 67 -40 113h-2c5 -50 8 -95 8 -147v-431l42 -5v-71h-164v71l42 5v591l-42 5v71h162l188 -518c11 -32 28 -75 41 -114h2c-6 60 -8 109 -8 152v404l-42 5v71zM444 947l-100 -153h-113l-101 153h78l79 -106l80 106h77
z" />
    <glyph glyph-name="Ncommaaccent" unicode="&#x145;" horiz-adv-x="567" 
d="M373 743h164v-71l-42 -5v-667h-116l-193 541c-13 35 -26 67 -40 113h-2c5 -50 8 -95 8 -147v-431l42 -5v-71h-164v71l42 5v591l-42 5v71h162l188 -518c11 -32 28 -75 41 -114h2c-6 60 -8 109 -8 152v404l-42 5v71zM338 -62l-75 -144h-74l52 144h97z" />
    <glyph glyph-name="Eng" unicode="&#x14a;" horiz-adv-x="567" 
d="M373 743h164v-71l-41 -5v-749c0 -92 -33 -129 -119 -129c-24 0 -54 4 -69 10v63h60c39 0 43 14 43 56v82h-1l-224 541c-14 34 -26 67 -40 113h-2c5 -50 8 -95 8 -147v-431l42 -5v-71h-164v71l42 5v591l-42 5v71h162l188 -448c13 -31 28 -75 41 -114h2
c-6 60 -8 109 -8 152v334l-42 5v71z" />
    <glyph glyph-name="Oacute" unicode="&#xd3;" horiz-adv-x="510" 
d="M475 292c0 -177 -58 -302 -220 -302c-163 0 -220 125 -220 302v158c0 178 57 303 220 303c162 0 220 -125 220 -303v-158zM389 292v158c0 154 -42 225 -134 225c-93 0 -135 -71 -135 -225v-158c0 -153 42 -224 135 -224c92 0 134 71 134 224zM383 947l-111 -153h-79
l96 153h94z" />
    <glyph glyph-name="Ograve" unicode="&#xd2;" horiz-adv-x="510" 
d="M475 292c0 -177 -58 -302 -220 -302c-163 0 -220 125 -220 302v158c0 178 57 303 220 303c162 0 220 -125 220 -303v-158zM389 292v158c0 154 -42 225 -134 225c-93 0 -135 -71 -135 -225v-158c0 -153 42 -224 135 -224c92 0 134 71 134 224zM318 794h-80l-111 153h95z
" />
    <glyph glyph-name="Ocircumflex" unicode="&#xd4;" horiz-adv-x="510" 
d="M475 292c0 -177 -58 -302 -220 -302c-163 0 -220 125 -220 302v158c0 178 57 303 220 303c162 0 220 -125 220 -303v-158zM389 292v158c0 154 -42 225 -134 225c-93 0 -135 -71 -135 -225v-158c0 -153 42 -224 135 -224c92 0 134 71 134 224zM412 794h-77l-80 106
l-79 -106h-78l101 153h113z" />
    <glyph glyph-name="Odieresis" unicode="&#xd6;" horiz-adv-x="510" 
d="M475 292c0 -177 -58 -302 -220 -302c-163 0 -220 125 -220 302v158c0 178 57 303 220 303c162 0 220 -125 220 -303v-158zM389 292v158c0 154 -42 225 -134 225c-93 0 -135 -71 -135 -225v-158c0 -153 42 -224 135 -224c92 0 134 71 134 224zM385 810h-80v112h80v-112z
M206 810v112h-80v-112h80z" />
    <glyph glyph-name="Otilde" unicode="&#xd5;" horiz-adv-x="510" 
d="M475 292c0 -177 -58 -302 -220 -302c-163 0 -220 125 -220 302v158c0 178 57 303 220 303c162 0 220 -125 220 -303v-158zM389 292v158c0 154 -42 225 -134 225c-93 0 -135 -71 -135 -225v-158c0 -153 42 -224 135 -224c92 0 134 71 134 224zM422 901
c0 -66 -21 -110 -87 -110c-38 0 -66 13 -92 46l-22 27c-16 20 -28 30 -45 30c-19 0 -27 -15 -27 -49v-49h-61v49c0 66 26 110 88 110c39 0 66 -16 92 -48l21 -26c18 -22 28 -28 45 -28c20 0 27 14 27 48v50h61v-50z" />
    <glyph glyph-name="Omacron" unicode="&#x14c;" horiz-adv-x="510" 
d="M475 292c0 -177 -58 -302 -220 -302c-163 0 -220 125 -220 302v158c0 178 57 303 220 303c162 0 220 -125 220 -303v-158zM389 292v158c0 154 -42 225 -134 225c-93 0 -135 -71 -135 -225v-158c0 -153 42 -224 135 -224c92 0 134 71 134 224zM392 810h-270v66h270v-66z
" />
    <glyph glyph-name="Obreve" unicode="&#x14e;" horiz-adv-x="510" 
d="M475 292c0 -177 -58 -302 -220 -302c-163 0 -220 125 -220 302v158c0 178 57 303 220 303c162 0 220 -125 220 -303v-158zM389 292v158c0 154 -42 225 -134 225c-93 0 -135 -71 -135 -225v-158c0 -153 42 -224 135 -224c92 0 134 71 134 224zM388 948
c-3 -85 -24 -155 -131 -155s-127 70 -131 155h63c4 -77 19 -98 68 -98s65 21 68 98h63z" />
    <glyph glyph-name="Ohungarumlaut" unicode="&#x150;" horiz-adv-x="510" 
d="M475 292c0 -177 -58 -302 -220 -302c-163 0 -220 125 -220 302v158c0 178 57 303 220 303c162 0 220 -125 220 -303v-158zM389 292v158c0 154 -42 225 -134 225c-93 0 -135 -71 -135 -225v-158c0 -153 42 -224 135 -224c92 0 134 71 134 224zM503 946l-111 -153h-80
l96 153h95zM336 946h-94l-96 -153h79z" />
    <glyph glyph-name="Oslash" unicode="&#xd8;" horiz-adv-x="510" 
d="M475 292c0 -177 -58 -302 -220 -302c-61 0 -107 17 -141 48l-21 -38h-81l57 101c-24 50 -34 116 -34 191v158c0 178 57 303 220 303c65 0 114 -21 148 -57l27 47h81l-65 -115c20 -49 29 -110 29 -178v-158zM120 292c0 -34 2 -64 6 -90l233 414c-22 40 -57 59 -104 59
c-93 0 -135 -71 -135 -225v-158zM389 292v158c0 25 -1 49 -4 70l-228 -405c22 -32 55 -47 98 -47c92 0 134 71 134 224z" />
    <glyph glyph-name="Oslashacute" unicode="&#x1fe;" horiz-adv-x="510" 
d="M397 947l-111 -153h-79l96 153h94zM475 292c0 -177 -58 -302 -220 -302c-61 0 -107 17 -141 48l-21 -38h-81l57 101c-24 50 -34 116 -34 191v158c0 178 57 303 220 303c65 0 114 -21 148 -57l27 47h81l-65 -115c20 -49 29 -110 29 -178v-158zM120 292c0 -34 2 -64 6 -90
l233 414c-22 40 -57 59 -104 59c-93 0 -135 -71 -135 -225v-158zM389 292v158c0 25 -1 49 -4 70l-228 -405c22 -32 55 -47 98 -47c92 0 134 71 134 224z" />
    <glyph glyph-name="OE" unicode="&#x152;" horiz-adv-x="736" 
d="M691 0h-320c-36 -6 -63 -10 -103 -10c-175 0 -229 125 -229 302v158c0 178 54 303 228 303c39 0 69 -4 104 -10h320v-134h-65l-10 57h-182v-240h241v-80h-241v-269h182l10 59h65v-136zM349 74v592c-31 6 -52 9 -82 9c-100 0 -142 -71 -142 -225v-158
c0 -153 42 -224 142 -225c30 0 49 2 82 7z" />
    <glyph glyph-name="Racute" unicode="&#x154;" horiz-adv-x="519" 
d="M199 0h-169v71l42 5v591l-42 5v71h181c139 0 243 -40 243 -214v-10c0 -113 -38 -172 -107 -205l105 -239l48 -4v-71h-111l-129 294c-13 -1 -30 -1 -44 -1h-59v-217l42 -5v-71zM368 519v10c0 114 -48 137 -157 137h-54v-296h58c112 0 153 37 153 149zM391 947l-111 -153
h-79l96 153h94z" />
    <glyph glyph-name="Rcaron" unicode="&#x158;" horiz-adv-x="519" 
d="M199 0h-169v71l42 5v591l-42 5v71h181c139 0 243 -40 243 -214v-10c0 -113 -38 -172 -107 -205l105 -239l48 -4v-71h-111l-129 294c-13 -1 -30 -1 -44 -1h-59v-217l42 -5v-71zM368 519v10c0 114 -48 137 -157 137h-54v-296h58c112 0 153 37 153 149zM413 947l-100 -153
h-113l-101 153h78l79 -106l80 106h77z" />
    <glyph glyph-name="Rcommaaccent" unicode="&#x156;" horiz-adv-x="519" 
d="M199 0h-169v71l42 5v591l-42 5v71h181c139 0 243 -40 243 -214v-10c0 -113 -38 -172 -107 -205l105 -239l48 -4v-71h-111l-129 294c-13 -1 -30 -1 -44 -1h-59v-217l42 -5v-71zM368 519v10c0 114 -48 137 -157 137h-54v-296h58c112 0 153 37 153 149zM317 -62l-75 -144
h-74l52 144h97z" />
    <glyph glyph-name="Sacute" unicode="&#x15a;" horiz-adv-x="432" 
d="M400 186c0 -127 -67 -196 -199 -196c-71 0 -140 14 -160 20v128h64l10 -70c29 -2 53 -2 77 -2c86 0 122 30 122 120c0 61 -19 97 -79 137l-88 59c-80 53 -115 107 -115 197c0 116 64 174 193 174c71 0 137 -15 157 -21v-123h-65l-11 66c-23 1 -53 2 -73 2
c-80 0 -114 -28 -114 -98c0 -59 19 -91 78 -131l88 -59c82 -55 115 -114 115 -203zM341 947l-111 -153h-79l96 153h94z" />
    <glyph glyph-name="Scircumflex" unicode="&#x15c;" horiz-adv-x="432" 
d="M400 186c0 -127 -67 -196 -199 -196c-71 0 -140 14 -160 20v128h64l10 -70c29 -2 53 -2 77 -2c86 0 122 30 122 120c0 61 -19 97 -79 137l-88 59c-80 53 -115 107 -115 197c0 116 64 174 193 174c71 0 137 -15 157 -21v-123h-65l-11 66c-23 1 -53 2 -73 2
c-80 0 -114 -28 -114 -98c0 -59 19 -91 78 -131l88 -59c82 -55 115 -114 115 -203zM364 794h-77l-80 106l-79 -106h-78l101 153h113z" />
    <glyph glyph-name="Scaron" unicode="&#x160;" horiz-adv-x="432" 
d="M400 186c0 -127 -67 -196 -199 -196c-71 0 -140 14 -160 20v128h64l10 -70c29 -2 53 -2 77 -2c86 0 122 30 122 120c0 61 -19 97 -79 137l-88 59c-80 53 -115 107 -115 197c0 116 64 174 193 174c71 0 137 -15 157 -21v-123h-65l-11 66c-23 1 -53 2 -73 2
c-80 0 -114 -28 -114 -98c0 -59 19 -91 78 -131l88 -59c82 -55 115 -114 115 -203zM370 947l-100 -153h-113l-101 153h78l79 -106l80 106h77z" />
    <glyph glyph-name="Scedilla" unicode="&#x15e;" horiz-adv-x="432" 
d="M400 186c0 -127 -67 -196 -199 -196c-71 0 -140 14 -160 20v128h64l10 -70c29 -2 53 -2 77 -2c86 0 122 30 122 120c0 61 -19 97 -79 137l-88 59c-80 53 -115 107 -115 197c0 116 64 174 193 174c71 0 137 -15 157 -21v-123h-65l-11 66c-23 1 -53 2 -73 2
c-80 0 -114 -28 -114 -98c0 -59 19 -91 78 -131l88 -59c82 -55 115 -114 115 -203zM262 -62l-105 -144h-77l87 144h95z" />
    <glyph glyph-name="Scommaaccent" unicode="&#x218;" horiz-adv-x="432" 
d="M400 186c0 -127 -67 -196 -199 -196c-71 0 -140 14 -160 20v128h64l10 -70c29 -2 53 -2 77 -2c86 0 122 30 122 120c0 61 -19 97 -79 137l-88 59c-80 53 -115 107 -115 197c0 116 64 174 193 174c71 0 137 -15 157 -21v-123h-65l-11 66c-23 1 -53 2 -73 2
c-80 0 -114 -28 -114 -98c0 -59 19 -91 78 -131l88 -59c82 -55 115 -114 115 -203zM270 -62l-75 -144h-74l52 144h97z" />
    <glyph glyph-name="Tcaron" unicode="&#x164;" horiz-adv-x="469" 
d="M445 609h-64l-10 57h-94v-592l42 -5v-69h-169v69l42 5v592h-94l-10 -57h-64v134h421v-134zM394 947l-100 -153h-113l-101 153h78l79 -106l80 106h77z" />
    <glyph glyph-name="Tcommaaccent" unicode="&#x162;" horiz-adv-x="469" 
d="M445 609h-64l-10 57h-94v-592l42 -5v-69h-169v69l42 5v592h-94l-10 -57h-64v134h421v-134zM285 -62l-75 -144h-74l52 144h97z" />
    <glyph glyph-name="uni021A" unicode="&#x21a;" horiz-adv-x="469" 
d="M445 609h-64l-10 57h-94v-592l42 -5v-69h-169v69l42 5v592h-94l-10 -57h-64v134h421v-134zM285 -62l-75 -144h-74l52 144h97z" />
    <glyph glyph-name="Tbar" unicode="&#x166;" horiz-adv-x="469" 
d="M426 395h-149v-321l42 -5v-69h-169v69l42 5v321h-148v77h148v194h-94l-10 -57h-64v134h422v-134h-65l-10 57h-94v-194h149v-77z" />
    <glyph glyph-name="Uacute" unicode="&#xda;" horiz-adv-x="559" 
d="M360 743h169v-71l-42 -5v-392c0 -166 -49 -285 -208 -285s-207 119 -207 285v392l-42 5v71h169v-71l-42 -5v-374c0 -161 21 -225 122 -225s123 65 123 225v374l-42 5v71zM413 947l-111 -153h-79l96 153h94z" />
    <glyph glyph-name="Ugrave" unicode="&#xd9;" horiz-adv-x="559" 
d="M360 743h169v-71l-42 -5v-392c0 -166 -49 -285 -208 -285s-207 119 -207 285v392l-42 5v71h169v-71l-42 -5v-374c0 -161 21 -225 122 -225s123 65 123 225v374l-42 5v71zM339 794h-80l-111 153h95z" />
    <glyph glyph-name="Ucircumflex" unicode="&#xdb;" horiz-adv-x="559" 
d="M360 743h169v-71l-42 -5v-392c0 -166 -49 -285 -208 -285s-207 119 -207 285v392l-42 5v71h169v-71l-42 -5v-374c0 -161 21 -225 122 -225s123 65 123 225v374l-42 5v71zM436 794h-77l-80 106l-79 -106h-78l101 153h113z" />
    <glyph glyph-name="Udieresis" unicode="&#xdc;" horiz-adv-x="559" 
d="M360 743h169v-71l-42 -5v-392c0 -166 -49 -285 -208 -285s-207 119 -207 285v392l-42 5v71h169v-71l-42 -5v-374c0 -161 21 -225 122 -225s123 65 123 225v374l-42 5v71zM409 810h-80v112h80v-112zM230 810v112h-80v-112h80z" />
    <glyph glyph-name="Utilde" unicode="&#x168;" horiz-adv-x="559" 
d="M360 743h169v-71l-42 -5v-392c0 -166 -49 -285 -208 -285s-207 119 -207 285v392l-42 5v71h169v-71l-42 -5v-374c0 -161 21 -225 122 -225s123 65 123 225v374l-42 5v71zM450 899c0 -66 -21 -110 -87 -110c-38 0 -66 13 -92 46l-22 27c-16 20 -28 30 -45 30
c-19 0 -27 -15 -27 -49v-49h-61v49c0 66 26 110 88 110c39 0 66 -16 92 -48l21 -26c18 -22 28 -28 45 -28c20 0 27 14 27 48v50h61v-50z" />
    <glyph glyph-name="Umacron" unicode="&#x16a;" horiz-adv-x="559" 
d="M360 743h169v-71l-42 -5v-392c0 -166 -49 -285 -208 -285s-207 119 -207 285v392l-42 5v71h169v-71l-42 -5v-374c0 -161 21 -225 122 -225s123 65 123 225v374l-42 5v71zM416 810h-270v66h270v-66z" />
    <glyph glyph-name="Uring" unicode="&#x16e;" horiz-adv-x="559" 
d="M360 743h169v-71l-42 -5v-392c0 -166 -49 -285 -208 -285s-207 119 -207 285v392l-42 5v71h169v-71l-42 -5v-374c0 -161 21 -225 122 -225s123 65 123 225v374l-42 5v71zM386 902c0 -79 -44 -110 -104 -110s-105 31 -105 110s45 111 105 111s104 -32 104 -111zM327 902
c0 48 -21 58 -45 58c-25 0 -45 -10 -45 -58c0 -47 20 -57 45 -57c24 0 45 10 45 57z" />
    <glyph glyph-name="Ubreve" unicode="&#x16c;" horiz-adv-x="559" 
d="M360 743h169v-71l-42 -5v-392c0 -166 -49 -285 -208 -285s-207 119 -207 285v392l-42 5v71h169v-71l-42 -5v-374c0 -161 21 -225 122 -225s123 65 123 225v374l-42 5v71zM410 946c-3 -85 -24 -155 -131 -155s-127 70 -131 155h63c4 -77 19 -98 68 -98s65 21 68 98h63z
" />
    <glyph glyph-name="Uhungarumlaut" unicode="&#x170;" horiz-adv-x="559" 
d="M360 743h169v-71l-42 -5v-392c0 -166 -49 -285 -208 -285s-207 119 -207 285v392l-42 5v71h169v-71l-42 -5v-374c0 -161 21 -225 122 -225s123 65 123 225v374l-42 5v71zM518 947l-111 -153h-80l96 153h95zM351 947h-94l-96 -153h79z" />
    <glyph glyph-name="Uogonek" unicode="&#x172;" horiz-adv-x="559" 
d="M360 743h169v-71l-42 -5v-392c0 -166 -49 -285 -208 -285s-207 119 -207 285v392l-42 5v71h169v-71l-42 -5v-374c0 -161 21 -225 122 -225s123 65 123 225v374l-42 5v71zM360 -205c-19 -5 -43 -9 -71 -9c-72 0 -107 39 -107 93c0 42 19 76 96 147h85
c-101 -91 -109 -116 -109 -141c0 -28 11 -44 49 -44c22 0 42 2 57 3v-49z" />
    <glyph glyph-name="Wacute" unicode="&#x1e82;" horiz-adv-x="718" 
d="M534 743h165v-71l-41 -5l-86 -667h-128l-68 366c-7 40 -12 77 -16 106h-2c-4 -29 -10 -68 -17 -106l-66 -366h-129l-87 667l-40 5v71h167v-71l-40 -5l51 -445c6 -50 10 -100 15 -150h4c6 44 10 91 21 148l61 314h123l62 -317c11 -56 15 -106 20 -145h4c3 53 9 95 15 150
l50 445l-38 5v71zM502 947l-111 -153h-79l96 153h94z" />
    <glyph glyph-name="Wgrave" unicode="&#x1e80;" horiz-adv-x="718" 
d="M534 743h165v-71l-41 -5l-86 -667h-128l-68 366c-7 40 -12 77 -16 106h-2c-4 -29 -10 -68 -17 -106l-66 -366h-129l-87 667l-40 5v71h167v-71l-40 -5l51 -445c6 -50 10 -100 15 -150h4c6 44 10 91 21 148l61 314h123l62 -317c11 -56 15 -106 20 -145h4c3 53 9 95 15 150
l50 445l-38 5v71zM419 794h-80l-111 153h95z" />
    <glyph glyph-name="Wcircumflex" unicode="&#x174;" horiz-adv-x="718" 
d="M534 743h165v-71l-41 -5l-86 -667h-128l-68 366c-7 40 -12 77 -16 106h-2c-4 -29 -10 -68 -17 -106l-66 -366h-129l-87 667l-40 5v71h167v-71l-40 -5l51 -445c6 -50 10 -100 15 -150h4c6 44 10 91 21 148l61 314h123l62 -317c11 -56 15 -106 20 -145h4c3 53 9 95 15 150
l50 445l-38 5v71zM516 794h-77l-80 106l-79 -106h-78l101 153h113z" />
    <glyph glyph-name="Wdieresis" unicode="&#x1e84;" horiz-adv-x="718" 
d="M534 743h165v-71l-41 -5l-86 -667h-128l-68 366c-7 40 -12 77 -16 106h-2c-4 -29 -10 -68 -17 -106l-66 -366h-129l-87 667l-40 5v71h167v-71l-40 -5l51 -445c6 -50 10 -100 15 -150h4c6 44 10 91 21 148l61 314h123l62 -317c11 -56 15 -106 20 -145h4c3 53 9 95 15 150
l50 445l-38 5v71zM489 810h-80v112h80v-112zM310 810v112h-80v-112h80z" />
    <glyph glyph-name="Yacute" unicode="&#xdd;" horiz-adv-x="481" 
d="M298 743h164v-71l-39 -5l-141 -371v-219l42 -5v-72h-168v72l42 5v218l-142 372l-37 5v71h164v-71l-38 -5l59 -163c13 -34 28 -89 36 -110h2c8 21 23 77 35 110l59 163l-38 5v71zM394 947l-111 -153h-79l96 153h94z" />
    <glyph glyph-name="Ygrave" unicode="&#x1ef2;" horiz-adv-x="481" 
d="M298 743h164v-71l-39 -5l-141 -371v-219l42 -5v-72h-168v72l42 5v218l-142 372l-37 5v71h164v-71l-38 -5l59 -163c13 -34 28 -89 36 -110h2c8 21 23 77 35 110l59 163l-38 5v71zM297 794h-80l-111 153h95z" />
    <glyph glyph-name="Ycircumflex" unicode="&#x176;" horiz-adv-x="481" 
d="M298 743h164v-71l-39 -5l-141 -371v-219l42 -5v-72h-168v72l42 5v218l-142 372l-37 5v71h164v-71l-38 -5l59 -163c13 -34 28 -89 36 -110h2c8 21 23 77 35 110l59 163l-38 5v71zM398 794h-77l-80 106l-79 -106h-78l101 153h113z" />
    <glyph glyph-name="Ydieresis" unicode="&#x178;" horiz-adv-x="481" 
d="M298 743h164v-71l-39 -5l-141 -371v-219l42 -5v-72h-168v72l42 5v218l-142 372l-37 5v71h164v-71l-38 -5l59 -163c13 -34 28 -89 36 -110h2c8 21 23 77 35 110l59 163l-38 5v71zM371 821h-80v112h80v-112zM192 821v112h-80v-112h80z" />
    <glyph glyph-name="Zacute" unicode="&#x179;" horiz-adv-x="456" 
d="M426 0h-396v97l298 569h-213l-10 -57h-64v134h375v-96l-299 -570h234l11 62h64v-139zM377 947l-111 -153h-79l96 153h94z" />
    <glyph glyph-name="Zcaron" unicode="&#x17d;" horiz-adv-x="456" 
d="M426 0h-396v97l298 569h-213l-10 -57h-64v134h375v-96l-299 -570h234l11 62h64v-139zM385 946l-100 -153h-113l-101 153h78l79 -106l80 106h77z" />
    <glyph glyph-name="Zdotaccent" unicode="&#x17b;" horiz-adv-x="456" 
d="M426 0h-396v97l298 569h-213l-10 -57h-64v134h375v-96l-299 -570h234l11 62h64v-139zM271 809h-83v113h83v-113z" />
    <glyph glyph-name="Thorn" unicode="&#xde;" horiz-adv-x="484" 
d="M204 0h-174v71l42 5v614l-42 5v71h174v-71l-47 -5v-35h59c138 0 238 -37 238 -214v-17c0 -178 -99 -219 -238 -219h-59v-129l47 -5v-71zM369 424v17c-1 115 -48 136 -153 136h-59v-295h59c106 0 153 27 153 142z" />
    <glyph glyph-name="aacute" unicode="&#xe1;" horiz-adv-x="432" 
d="M406 0h-118v31c-29 -22 -74 -41 -127 -41c-90 0 -127 51 -127 147v28c0 126 67 164 195 164h52v52c0 89 -14 106 -96 106c-18 0 -35 0 -54 -2l-10 -52h-62v106c14 6 72 21 138 21c137 0 167 -53 167 -179v-305l42 -5v-71zM281 89v177h-52c-85 0 -112 -20 -112 -101v-38
c0 -57 21 -70 62 -70c42 0 83 19 102 32zM343 760l-111 -153h-79l96 153h94z" />
    <glyph glyph-name="agrave" unicode="&#xe0;" horiz-adv-x="432" 
d="M406 0h-118v31c-29 -22 -74 -41 -127 -41c-90 0 -127 51 -127 147v28c0 126 67 164 195 164h52v52c0 89 -14 106 -96 106c-18 0 -35 0 -54 -2l-10 -52h-62v106c14 6 72 21 138 21c137 0 167 -53 167 -179v-305l42 -5v-71zM281 89v177h-52c-85 0 -112 -20 -112 -101v-38
c0 -57 21 -70 62 -70c42 0 83 19 102 32zM268 607h-80l-111 153h95z" />
    <glyph glyph-name="acircumflex" unicode="&#xe2;" horiz-adv-x="432" 
d="M406 0h-118v31c-29 -22 -74 -41 -127 -41c-90 0 -127 51 -127 147v28c0 126 67 164 195 164h52v52c0 89 -14 106 -96 106c-18 0 -35 0 -54 -2l-10 -52h-62v106c14 6 72 21 138 21c137 0 167 -53 167 -179v-305l42 -5v-71zM281 89v177h-52c-85 0 -112 -20 -112 -101v-38
c0 -57 21 -70 62 -70c42 0 83 19 102 32zM368 607h-77l-80 106l-79 -106h-78l101 153h113z" />
    <glyph glyph-name="adieresis" unicode="&#xe4;" horiz-adv-x="432" 
d="M406 0h-118v31c-29 -22 -74 -41 -127 -41c-90 0 -127 51 -127 147v28c0 126 67 164 195 164h52v52c0 89 -14 106 -96 106c-18 0 -35 0 -54 -2l-10 -52h-62v106c14 6 72 21 138 21c137 0 167 -53 167 -179v-305l42 -5v-71zM281 89v177h-52c-85 0 -112 -20 -112 -101v-38
c0 -57 21 -70 62 -70c42 0 83 19 102 32zM345 635h-80v112h80v-112zM166 635v112h-80v-112h80z" />
    <glyph glyph-name="atilde" unicode="&#xe3;" horiz-adv-x="432" 
d="M406 0h-118v31c-29 -22 -74 -41 -127 -41c-90 0 -127 51 -127 147v28c0 126 67 164 195 164h52v52c0 89 -14 106 -96 106c-18 0 -35 0 -54 -2l-10 -52h-62v106c14 6 72 21 138 21c137 0 167 -53 167 -179v-305l42 -5v-71zM281 89v177h-52c-85 0 -112 -20 -112 -101v-38
c0 -57 21 -70 62 -70c42 0 83 19 102 32zM376 713c0 -66 -21 -110 -87 -110c-38 0 -66 13 -92 46l-22 27c-16 20 -28 30 -45 30c-19 0 -27 -15 -27 -49v-49h-61v49c0 66 26 110 88 110c39 0 66 -16 92 -48l21 -26c18 -22 28 -28 45 -28c20 0 27 14 27 48v50h61v-50z" />
    <glyph glyph-name="amacron" unicode="&#x101;" horiz-adv-x="432" 
d="M406 0h-118v31c-29 -22 -74 -41 -127 -41c-90 0 -127 51 -127 147v28c0 126 67 164 195 164h52v52c0 89 -14 106 -96 106c-18 0 -35 0 -54 -2l-10 -52h-62v106c14 6 72 21 138 21c137 0 167 -53 167 -179v-305l42 -5v-71zM281 89v177h-52c-85 0 -112 -20 -112 -101v-38
c0 -57 21 -70 62 -70c42 0 83 19 102 32zM348 652h-270v66h270v-66z" />
    <glyph glyph-name="aring" unicode="&#xe5;" horiz-adv-x="432" 
d="M406 0h-118v31c-29 -22 -74 -41 -127 -41c-90 0 -127 51 -127 147v28c0 126 67 164 195 164h52v52c0 89 -14 106 -96 106c-18 0 -35 0 -54 -2l-10 -52h-62v106c14 6 72 21 138 21c137 0 167 -53 167 -179v-305l42 -5v-71zM281 89v177h-52c-85 0 -112 -20 -112 -101v-38
c0 -57 21 -70 62 -70c42 0 83 19 102 32zM312 700c0 -79 -44 -110 -104 -110s-105 31 -105 110s45 111 105 111s104 -32 104 -111zM253 700c0 48 -21 58 -45 58c-25 0 -45 -10 -45 -58c0 -47 20 -57 45 -57c24 0 45 10 45 57z" />
    <glyph glyph-name="abreve" unicode="&#x103;" horiz-adv-x="432" 
d="M406 0h-118v31c-29 -22 -74 -41 -127 -41c-90 0 -127 51 -127 147v28c0 126 67 164 195 164h52v52c0 89 -14 106 -96 106c-18 0 -35 0 -54 -2l-10 -52h-62v106c14 6 72 21 138 21c137 0 167 -53 167 -179v-305l42 -5v-71zM281 89v177h-52c-85 0 -112 -20 -112 -101v-38
c0 -57 21 -70 62 -70c42 0 83 19 102 32zM339 760c-3 -85 -24 -155 -131 -155s-127 70 -131 155h63c4 -77 19 -98 68 -98s65 21 68 98h63z" />
    <glyph glyph-name="aogonek" unicode="&#x105;" horiz-adv-x="432" 
d="M408 -205c-19 -5 -43 -9 -71 -9c-72 0 -107 39 -107 93c0 46 21 85 66 121v33c-29 -22 -74 -43 -133 -43c-90 0 -127 51 -127 147v28c0 126 67 164 195 164h52v52c0 89 -14 106 -96 106c-18 0 -35 0 -54 -2l-10 -52h-62v106c15 6 72 21 138 21c138 0 167 -53 167 -179
v-305l42 -5v-71c-91 -43 -106 -88 -106 -113c0 -30 11 -46 49 -46c22 0 42 2 57 3v-49zM283 89v177h-52c-85 0 -112 -20 -112 -101v-38c0 -57 21 -70 62 -70c42 0 83 19 102 32z" />
    <glyph glyph-name="ae" unicode="&#xe6;" horiz-adv-x="675" 
d="M645 245h-280v-15c0 -125 14 -168 121 -168c49 0 96 5 144 15v-68c-29 -9 -85 -19 -149 -19c-78 0 -128 16 -158 56c-54 -41 -106 -56 -161 -56c-90 0 -128 51 -128 147v28c0 126 67 164 195 164h53v52c0 89 -14 106 -97 106c-18 0 -35 0 -54 -2l-9 -52h-63v106
c15 6 73 21 138 21c80 0 116 -15 138 -47c28 30 67 47 128 47c134 0 182 -91 182 -261v-54zM561 313v14c0 92 -11 159 -97 159s-98 -67 -98 -159v-14h195zM282 89v177h-53c-85 0 -112 -20 -112 -101v-38c0 -57 22 -70 62 -70c42 0 83 19 103 32z" />
    <glyph glyph-name="aeacute" unicode="&#x1fd;" horiz-adv-x="675" 
d="M645 245h-280v-15c0 -125 14 -168 121 -168c49 0 96 5 144 15v-68c-29 -9 -85 -19 -149 -19c-78 0 -128 16 -158 56c-54 -41 -106 -56 -161 -56c-90 0 -128 51 -128 147v28c0 126 67 164 195 164h53v52c0 89 -14 106 -97 106c-18 0 -35 0 -54 -2l-9 -52h-63v106
c15 6 73 21 138 21c80 0 116 -15 138 -47c28 30 67 47 128 47c134 0 182 -91 182 -261v-54zM561 313v14c0 92 -11 159 -97 159s-98 -67 -98 -159v-14h195zM282 89v177h-53c-85 0 -112 -20 -112 -101v-38c0 -57 22 -70 62 -70c42 0 83 19 103 32zM482 760l-111 -153h-79
l96 153h94z" />
    <glyph glyph-name="cacute" unicode="&#x107;" horiz-adv-x="361" 
d="M331 9c-23 -10 -67 -19 -122 -19c-131 0 -173 86 -173 224v123c0 138 42 223 173 223c52 0 98 -9 122 -19v-108h-63l-10 52c-11 1 -27 1 -36 1c-70 0 -103 -24 -103 -149v-123c0 -125 33 -150 103 -150c25 0 60 3 109 9v-64zM333 760l-111 -153h-79l96 153h94z" />
    <glyph glyph-name="ccircumflex" unicode="&#x109;" horiz-adv-x="361" 
d="M331 9c-23 -10 -67 -19 -122 -19c-131 0 -173 86 -173 224v123c0 138 42 223 173 223c52 0 98 -9 122 -19v-108h-63l-10 52c-11 1 -27 1 -36 1c-70 0 -103 -24 -103 -149v-123c0 -125 33 -150 103 -150c25 0 60 3 109 9v-64zM349 607h-77l-80 106l-79 -106h-78l101 153
h113z" />
    <glyph glyph-name="ccaron" unicode="&#x10d;" horiz-adv-x="361" 
d="M331 9c-23 -10 -67 -19 -122 -19c-131 0 -173 86 -173 224v123c0 138 42 223 173 223c52 0 98 -9 122 -19v-108h-63l-10 52c-11 1 -27 1 -36 1c-70 0 -103 -24 -103 -149v-123c0 -125 33 -150 103 -150c25 0 60 3 109 9v-64zM360 760l-100 -153h-113l-101 153h78l79 -106
l80 106h77z" />
    <glyph glyph-name="cdotaccent" unicode="&#x10b;" horiz-adv-x="361" 
d="M331 9c-23 -10 -67 -19 -122 -19c-131 0 -173 86 -173 224v123c0 138 42 223 173 223c52 0 98 -9 122 -19v-108h-63l-10 52c-11 1 -27 1 -36 1c-70 0 -103 -24 -103 -149v-123c0 -125 33 -150 103 -150c25 0 60 3 109 9v-64zM245 653h-83v113h83v-113z" />
    <glyph glyph-name="ccedilla" unicode="&#xe7;" horiz-adv-x="361" 
d="M331 9c-23 -10 -67 -19 -122 -19c-131 0 -173 86 -173 224v123c0 138 42 223 173 223c52 0 98 -9 122 -19v-108h-63l-10 52c-11 1 -27 1 -36 1c-70 0 -103 -24 -103 -149v-123c0 -125 33 -150 103 -150c25 0 60 3 109 9v-64zM256 -62l-105 -144h-77l87 144h95z" />
    <glyph glyph-name="dcaron" unicode="&#x10f;" horiz-adv-x="542" 
d="M546 767l-57 -226h-65l35 226h87zM424 0h-122v25c-30 -20 -70 -35 -116 -35c-105 0 -150 70 -150 206v139c0 176 69 225 178 225c28 0 56 -3 85 -9v140l-55 5v71h138v-691l42 -5v-71zM299 90v388c-30 6 -61 9 -81 9c-65 0 -99 -21 -99 -152v-139c0 -93 21 -132 86 -132
c33 0 64 9 94 26z" />
    <glyph glyph-name="dcroat" unicode="&#x111;" horiz-adv-x="451" 
d="M424 0h-123v25c-29 -20 -69 -35 -113 -35c-105 0 -152 70 -152 209v133c0 179 69 228 178 228c28 0 56 -4 85 -10v77h-132v72h132v68h83v-68h46v-72h-46v-551l42 -5v-71zM299 90v388c-30 5 -61 9 -82 9c-65 0 -98 -21 -98 -155v-133c0 -96 21 -135 86 -135
c33 0 63 9 94 26z" />
    <glyph glyph-name="eacute" unicode="&#xe9;" horiz-adv-x="426" 
d="M396 245h-279v-15c0 -126 14 -167 120 -167c43 0 99 5 144 14v-68c-29 -9 -81 -19 -149 -19c-148 0 -199 61 -199 249v61c0 170 51 260 181 260c134 0 182 -90 182 -265v-50zM312 313v14c0 92 -11 158 -97 158s-98 -66 -98 -158v-14h195zM347 760l-111 -153h-79l96 153
h94z" />
    <glyph glyph-name="egrave" unicode="&#xe8;" horiz-adv-x="426" 
d="M396 245h-279v-15c0 -126 14 -167 120 -167c43 0 99 5 144 14v-68c-29 -9 -81 -19 -149 -19c-148 0 -199 61 -199 249v61c0 170 51 260 181 260c134 0 182 -90 182 -265v-50zM312 313v14c0 92 -11 158 -97 158s-98 -66 -98 -158v-14h195zM278 607h-80l-111 153h95z" />
    <glyph glyph-name="ecircumflex" unicode="&#xea;" horiz-adv-x="426" 
d="M396 245h-279v-15c0 -126 14 -167 120 -167c43 0 99 5 144 14v-68c-29 -9 -81 -19 -149 -19c-148 0 -199 61 -199 249v61c0 170 51 260 181 260c134 0 182 -90 182 -265v-50zM312 313v14c0 92 -11 158 -97 158s-98 -66 -98 -158v-14h195zM374 607h-77l-80 106l-79 -106
h-78l101 153h113z" />
    <glyph glyph-name="edieresis" unicode="&#xeb;" horiz-adv-x="426" 
d="M396 245h-279v-15c0 -126 14 -167 120 -167c43 0 99 5 144 14v-68c-29 -9 -81 -19 -149 -19c-148 0 -199 61 -199 249v61c0 170 51 260 181 260c134 0 182 -90 182 -265v-50zM312 313v14c0 92 -11 158 -97 158s-98 -66 -98 -158v-14h195zM341 635h-80v112h80v-112z
M162 635v112h-80v-112h80z" />
    <glyph glyph-name="emacron" unicode="&#x113;" horiz-adv-x="426" 
d="M396 245h-279v-15c0 -126 14 -167 120 -167c43 0 99 5 144 14v-68c-29 -9 -81 -19 -149 -19c-148 0 -199 61 -199 249v61c0 170 51 260 181 260c134 0 182 -90 182 -265v-50zM312 313v14c0 92 -11 158 -97 158s-98 -66 -98 -158v-14h195zM352 652h-270v66h270v-66z" />
    <glyph glyph-name="ecaron" unicode="&#x11b;" horiz-adv-x="426" 
d="M396 245h-279v-15c0 -126 14 -167 120 -167c43 0 99 5 144 14v-68c-29 -9 -81 -19 -149 -19c-148 0 -199 61 -199 249v61c0 170 51 260 181 260c134 0 182 -90 182 -265v-50zM312 313v14c0 92 -11 158 -97 158s-98 -66 -98 -158v-14h195zM377 760l-100 -153h-113
l-101 153h78l79 -106l80 106h77z" />
    <glyph glyph-name="ebreve" unicode="&#x115;" horiz-adv-x="426" 
d="M396 245h-279v-15c0 -126 14 -167 120 -167c43 0 99 5 144 14v-68c-29 -9 -81 -19 -149 -19c-148 0 -199 61 -199 249v61c0 170 51 260 181 260c134 0 182 -90 182 -265v-50zM312 313v14c0 92 -11 158 -97 158s-98 -66 -98 -158v-14h195zM351 760
c-3 -85 -24 -155 -131 -155s-127 70 -131 155h63c4 -77 19 -98 68 -98s65 21 68 98h63z" />
    <glyph glyph-name="edotaccent" unicode="&#x117;" horiz-adv-x="426" 
d="M396 245h-279v-15c0 -126 14 -167 120 -167c43 0 99 5 144 14v-68c-29 -9 -81 -19 -149 -19c-148 0 -199 61 -199 249v61c0 170 51 260 181 260c134 0 182 -90 182 -265v-50zM312 313v14c0 92 -11 158 -97 158s-98 -66 -98 -158v-14h195zM261 654h-83v113h83v-113z" />
    <glyph glyph-name="eogonek" unicode="&#x119;" horiz-adv-x="426" 
d="M381 -205c-19 -5 -43 -9 -71 -9c-72 0 -107 39 -107 93c0 36 22 76 67 112c-12 0 -25 -1 -38 -1c-148 0 -199 61 -199 249v61c0 170 51 260 181 260c134 0 182 -90 182 -265v-50h-279v-15c0 -126 14 -167 120 -167c43 0 99 5 144 14v-68c-78 -50 -106 -99 -106 -124
c0 -28 11 -44 49 -44c22 0 42 2 57 3v-49zM312 313v14c0 92 -11 158 -97 158s-98 -66 -98 -158v-14h195z" />
    <glyph glyph-name="gcircumflex" unicode="&#x11d;" horiz-adv-x="437" 
d="M405 -42c0 -104 -51 -175 -188 -175s-185 70 -185 175c0 44 16 90 42 122c-26 18 -39 43 -39 76c0 37 15 65 41 85c-24 30 -37 72 -37 133c0 107 35 186 181 186h188v-63l-45 -6c12 -19 29 -60 29 -117c0 -116 -51 -184 -176 -184c-40 0 -70 6 -91 15
c-13 -12 -20 -26 -20 -40c0 -26 12 -34 47 -34h64c110 0 189 -23 189 -173zM322 -40c-1 82 -21 101 -106 101h-76c-14 -18 -26 -49 -26 -101c0 -69 16 -106 103 -106c84 0 105 36 105 106zM310 374c0 71 -15 115 -94 115c-82 0 -95 -45 -95 -115c0 -67 15 -113 95 -113
c79 0 94 46 94 113zM370 607h-77l-80 106l-79 -106h-78l101 153h113z" />
    <glyph glyph-name="gbreve" unicode="&#x11f;" horiz-adv-x="437" 
d="M405 -42c0 -104 -51 -175 -188 -175s-185 70 -185 175c0 44 16 90 42 122c-26 18 -39 43 -39 76c0 37 15 65 41 85c-24 30 -37 72 -37 133c0 107 35 186 181 186h188v-63l-45 -6c12 -19 29 -60 29 -117c0 -116 -51 -184 -176 -184c-40 0 -70 6 -91 15
c-13 -12 -20 -26 -20 -40c0 -26 12 -34 47 -34h64c110 0 189 -23 189 -173zM322 -40c-1 82 -21 101 -106 101h-76c-14 -18 -26 -49 -26 -101c0 -69 16 -106 103 -106c84 0 105 36 105 106zM310 374c0 71 -15 115 -94 115c-82 0 -95 -45 -95 -115c0 -67 15 -113 95 -113
c79 0 94 46 94 113zM347 761c-3 -85 -24 -155 -131 -155s-127 70 -131 155h63c4 -77 19 -98 68 -98s65 21 68 98h63z" />
    <glyph glyph-name="gdotaccent" unicode="&#x121;" horiz-adv-x="437" 
d="M405 -42c0 -104 -51 -175 -188 -175s-185 70 -185 175c0 44 16 90 42 122c-26 18 -39 43 -39 76c0 37 15 65 41 85c-24 30 -37 72 -37 133c0 107 35 186 181 186h188v-63l-45 -6c12 -19 29 -60 29 -117c0 -116 -51 -184 -176 -184c-40 0 -70 6 -91 15
c-13 -12 -20 -26 -20 -40c0 -26 12 -34 47 -34h64c110 0 189 -23 189 -173zM322 -40c-1 82 -21 101 -106 101h-76c-14 -18 -26 -49 -26 -101c0 -69 16 -106 103 -106c84 0 105 36 105 106zM310 374c0 71 -15 115 -94 115c-82 0 -95 -45 -95 -115c0 -67 15 -113 95 -113
c79 0 94 46 94 113zM260 654h-83v113h83v-113z" />
    <glyph glyph-name="gcommaaccent" unicode="&#x123;" horiz-adv-x="437" 
d="M405 -42c0 -104 -51 -175 -188 -175s-185 70 -185 175c0 44 16 90 42 122c-26 18 -39 43 -39 76c0 37 15 65 41 85c-24 30 -37 72 -37 133c0 107 35 186 181 186h188v-63l-45 -6c12 -19 29 -60 29 -117c0 -116 -51 -184 -176 -184c-40 0 -70 6 -91 15
c-13 -12 -20 -26 -20 -40c0 -26 12 -34 47 -34h64c110 0 189 -23 189 -173zM322 -40c-1 82 -21 101 -106 101h-76c-14 -18 -26 -49 -26 -101c0 -69 16 -106 103 -106c84 0 105 36 105 106zM310 374c0 71 -15 115 -94 115c-82 0 -95 -45 -95 -115c0 -67 15 -113 95 -113
c79 0 94 46 94 113zM312 751l-52 -144h-97l75 144h74z" />
    <glyph glyph-name="hcircumflex" unicode="&#x125;" horiz-adv-x="481" 
d="M455 0h-125v370c0 90 -15 116 -68 116c-40 0 -82 -16 -111 -35v-375l42 -5v-71h-167v71l42 5v615l-42 5v71h125v-245c26 18 72 38 129 38c104 0 133 -77 133 -185v-299l42 -5v-71zM401 794h-77l-80 106l-79 -106h-78l101 153h113z" />
    <glyph glyph-name="hbar" unicode="&#x127;" horiz-adv-x="481" 
d="M24 629v70h44v68h83v-68h134v-70h-134v-107c27 18 72 38 130 38c103 0 132 -77 132 -185v-299l42 -5v-71h-125v370c0 90 -15 116 -68 116c-40 0 -82 -16 -111 -35v-375l42 -5v-71h-167v71l42 5v553h-44z" />
    <glyph glyph-name="iacute" unicode="&#xed;" horiz-adv-x="219" 
d="M225 760l-111 -153h-79l96 153h94zM192 0h-166v71l42 5v397l-42 5v72h125v-474l41 -5v-71z" />
    <glyph glyph-name="igrave" unicode="&#xec;" horiz-adv-x="219" 
d="M157 607h-80l-111 153h95zM192 0h-166v71l42 5v397l-42 5v72h125v-474l41 -5v-71z" />
    <glyph glyph-name="icircumflex" unicode="&#xee;" horiz-adv-x="219" 
d="M192 0h-166v71l42 5v397l-42 5v72h125v-474l41 -5v-71zM254 607h-77l-80 106l-79 -106h-78l101 153h113z" />
    <glyph glyph-name="idieresis" unicode="&#xef;" horiz-adv-x="219" 
d="M227 635h-80v112h80v-112zM48 635v112h-80v-112h80zM192 0h-166v71l42 5v397l-42 5v72h125v-474l41 -5v-71z" />
    <glyph glyph-name="itilde" unicode="&#x129;" horiz-adv-x="219" 
d="M263 714c0 -66 -21 -110 -87 -110c-38 0 -66 13 -92 46l-22 27c-16 20 -28 30 -45 30c-19 0 -27 -15 -27 -49v-49h-61v49c0 66 26 110 88 110c39 0 66 -16 92 -48l21 -26c18 -22 28 -28 45 -28c20 0 27 14 27 48v50h61v-50zM192 0h-166v71l42 5v397l-42 5v72h125v-474
l41 -5v-71z" />
    <glyph glyph-name="imacron" unicode="&#x12b;" horiz-adv-x="219" 
d="M243 652h-270v66h270v-66zM192 0h-166v71l42 5v397l-42 5v72h125v-474l41 -5v-71z" />
    <glyph glyph-name="ibreve" unicode="&#x12d;" horiz-adv-x="219" 
d="M227 760c-3 -85 -24 -155 -131 -155s-127 70 -131 155h63c4 -77 19 -98 68 -98s65 21 68 98h63zM192 0h-166v71l42 5v397l-42 5v72h125v-474l41 -5v-71z" />
    <glyph glyph-name="iogonek" unicode="&#x12f;" horiz-adv-x="219" 
d="M192 0h-21c-76 -64 -84 -90 -84 -115c0 -28 11 -44 49 -44c22 0 42 2 57 3v-49c-18 -5 -43 -9 -71 -9c-72 0 -107 39 -107 93c0 42 18 76 66 121h-55v71l42 5v397l-42 5v72h125v-474l41 -5v-71zM152 653h-85v114h85v-114z" />
    <glyph glyph-name="dotlessi" unicode="&#x131;" horiz-adv-x="219" 
d="M192 0h-166v71l42 5v397l-42 5v72h125v-474l41 -5v-71z" />
    <glyph glyph-name="ij" unicode="&#x133;" horiz-adv-x="408" 
d="M197 0h-167v71l42 5v397l-42 5v72h125v-474l42 -5v-71zM157 653h-86v114h86v-114zM353 -84c0 -93 -24 -132 -111 -132c-21 0 -48 3 -58 6v63c11 -1 26 -1 44 -1c35 0 42 13 42 64v557l-43 5v72h126v-634zM353 653h-86v114h86v-114z" />
    <glyph glyph-name="jcircumflex" unicode="&#x135;" horiz-adv-x="206" 
d="M151 -83c0 -85 -24 -132 -105 -132c-27 0 -54 5 -64 8v62c11 -1 26 -1 44 -1c35 0 42 13 42 63v556l-43 5v72h126v-633zM252 607h-77l-80 106l-79 -106h-78l101 153h113z" />
    <glyph glyph-name="kcommaaccent" unicode="&#x137;" horiz-adv-x="434" 
d="M408 0h-109l-148 268v-268h-125v71l42 5v615l-42 5v71h125v-466l148 249h109v-71l-58 -5l-114 -188l120 -210l52 -5v-71zM262 -62l-75 -144h-74l52 144h97z" />
    <glyph glyph-name="kgreenlandic" unicode="&#x138;" horiz-adv-x="434" 
d="M408 0h-106l-151 268v-268h-125v71l42 5v398l-42 5v71h125v-249l150 249h107v-71l-58 -5l-114 -188l120 -210l52 -5v-71z" />
    <glyph glyph-name="lacute" unicode="&#x13a;" horiz-adv-x="219" 
d="M193 0h-167v71l42 5v615l-42 5v71h125v-691l42 -5v-71zM241 947l-111 -153h-79l96 153h94z" />
    <glyph glyph-name="lcaron" unicode="&#x13e;" horiz-adv-x="314" 
d="M192 0h-166v71l42 5v615l-42 5v71h124v-691l42 -5v-71zM318 767l-56 -226h-65l35 226h86z" />
    <glyph glyph-name="ldot" unicode="&#x140;" horiz-adv-x="317" 
d="M193 0h-167v71l42 5v615l-42 5v71h125v-691l42 -5v-71zM290 289h-83v135h83v-135z" />
    <glyph glyph-name="lcommaaccent" unicode="&#x13c;" horiz-adv-x="219" 
d="M193 0h-167v71l42 5v615l-42 5v71h125v-691l42 -5v-71zM160 -62l-75 -144h-74l52 144h97z" />
    <glyph glyph-name="lslash" unicode="&#x142;" horiz-adv-x="219" 
d="M193 0h-167v71l42 5v207l-53 -59v108l53 59v300l-42 5v71h125v-279l52 59v-108l-52 -59v-304l42 -5v-71z" />
    <glyph glyph-name="nacute" unicode="&#x144;" horiz-adv-x="481" 
d="M455 0h-125v376c0 86 -10 112 -61 112c-32 0 -70 -13 -118 -39v-373l42 -5v-71h-167v71l42 5v398l-42 5v71h123v-36c41 25 84 46 135 46c109 0 129 -64 129 -184v-300l42 -5v-71zM375 760l-111 -153h-79l96 153h94z" />
    <glyph glyph-name="ntilde" unicode="&#xf1;" horiz-adv-x="481" 
d="M455 0h-125v376c0 86 -10 112 -61 112c-32 0 -70 -13 -118 -39v-373l42 -5v-71h-167v71l42 5v398l-42 5v71h123v-36c41 25 84 46 135 46c109 0 129 -64 129 -184v-300l42 -5v-71zM403 714c0 -66 -21 -110 -87 -110c-38 0 -66 13 -92 46l-22 27c-16 20 -28 30 -45 30
c-19 0 -27 -15 -27 -49v-49h-61v49c0 66 26 110 88 110c39 0 66 -16 92 -48l21 -26c18 -22 28 -28 45 -28c20 0 27 14 27 48v50h61v-50z" />
    <glyph glyph-name="ncaron" unicode="&#x148;" horiz-adv-x="481" 
d="M455 0h-125v376c0 86 -10 112 -61 112c-32 0 -70 -13 -118 -39v-373l42 -5v-71h-167v71l42 5v398l-42 5v71h123v-36c41 25 84 46 135 46c109 0 129 -64 129 -184v-300l42 -5v-71zM400 760l-100 -153h-113l-101 153h78l79 -106l80 106h77z" />
    <glyph glyph-name="ncommaaccent" unicode="&#x146;" horiz-adv-x="481" 
d="M455 0h-125v376c0 86 -10 112 -61 112c-32 0 -70 -13 -118 -39v-373l42 -5v-71h-167v71l42 5v398l-42 5v71h123v-36c41 25 84 46 135 46c109 0 129 -64 129 -184v-300l42 -5v-71zM288 -62l-75 -144h-74l52 144h97z" />
    <glyph glyph-name="napostrophe" unicode="&#x149;" horiz-adv-x="554" 
d="M528 0h-125v376c0 86 -10 112 -61 112c-32 0 -70 -13 -118 -39v-373l42 -5v-71h-167v71l42 5v398l-42 5v71h123v-36c41 25 84 46 135 46c109 0 129 -64 129 -184v-300l42 -5v-71zM111 767l-56 -226h-65l35 226h86z" />
    <glyph glyph-name="eng" unicode="&#x14b;" horiz-adv-x="473" 
d="M413 -83c0 -85 -24 -132 -104 -132c-27 0 -55 5 -65 8v62c11 -1 26 -1 44 -1c35 0 42 13 42 63v459c0 86 -9 112 -61 112c-31 0 -70 -13 -118 -39v-373l42 -5v-71h-167v71l42 5v398l-42 5v71h124v-36c41 25 87 46 134 46c110 0 129 -64 129 -184v-459z" />
    <glyph glyph-name="oacute" unicode="&#xf3;" horiz-adv-x="433" 
d="M398 216c0 -153 -62 -226 -182 -226s-181 73 -181 226v118c0 153 61 226 181 226s182 -73 182 -226v-118zM315 216v118c0 112 -31 151 -99 151s-98 -39 -98 -151v-118c0 -112 30 -151 98 -151s99 39 99 151zM340 760l-111 -153h-79l96 153h94z" />
    <glyph glyph-name="ograve" unicode="&#xf2;" horiz-adv-x="433" 
d="M398 216c0 -153 -62 -226 -182 -226s-181 73 -181 226v118c0 153 61 226 181 226s182 -73 182 -226v-118zM315 216v118c0 112 -31 151 -99 151s-98 -39 -98 -151v-118c0 -112 30 -151 98 -151s99 39 99 151zM279 607h-80l-111 153h95z" />
    <glyph glyph-name="ocircumflex" unicode="&#xf4;" horiz-adv-x="433" 
d="M398 216c0 -153 -62 -226 -182 -226s-181 73 -181 226v118c0 153 61 226 181 226s182 -73 182 -226v-118zM315 216v118c0 112 -31 151 -99 151s-98 -39 -98 -151v-118c0 -112 30 -151 98 -151s99 39 99 151zM372 607h-77l-80 106l-79 -106h-78l101 153h113z" />
    <glyph glyph-name="odieresis" unicode="&#xf6;" horiz-adv-x="433" 
d="M398 216c0 -153 -62 -226 -182 -226s-181 73 -181 226v118c0 153 61 226 181 226s182 -73 182 -226v-118zM315 216v118c0 112 -31 151 -99 151s-98 -39 -98 -151v-118c0 -112 30 -151 98 -151s99 39 99 151zM345 635h-80v112h80v-112zM166 635v112h-80v-112h80z" />
    <glyph glyph-name="otilde" unicode="&#xf5;" horiz-adv-x="433" 
d="M398 216c0 -153 -62 -226 -182 -226s-181 73 -181 226v118c0 153 61 226 181 226s182 -73 182 -226v-118zM315 216v118c0 112 -31 151 -99 151s-98 -39 -98 -151v-118c0 -112 30 -151 98 -151s99 39 99 151zM383 714c0 -66 -21 -110 -87 -110c-38 0 -66 13 -92 46l-22 27
c-16 20 -28 30 -45 30c-19 0 -27 -15 -27 -49v-49h-61v49c0 66 26 110 88 110c39 0 66 -16 92 -48l21 -26c18 -22 28 -28 45 -28c20 0 27 14 27 48v50h61v-50z" />
    <glyph glyph-name="omacron" unicode="&#x14d;" horiz-adv-x="433" 
d="M398 216c0 -153 -62 -226 -182 -226s-181 73 -181 226v118c0 153 61 226 181 226s182 -73 182 -226v-118zM315 216v118c0 112 -31 151 -99 151s-98 -39 -98 -151v-118c0 -112 30 -151 98 -151s99 39 99 151zM352 652h-270v66h270v-66z" />
    <glyph glyph-name="obreve" unicode="&#x14f;" horiz-adv-x="433" 
d="M398 216c0 -153 -62 -226 -182 -226s-181 73 -181 226v118c0 153 61 226 181 226s182 -73 182 -226v-118zM315 216v118c0 112 -31 151 -99 151s-98 -39 -98 -151v-118c0 -112 30 -151 98 -151s99 39 99 151zM347 760c-3 -85 -24 -155 -131 -155s-127 70 -131 155h63
c4 -77 19 -98 68 -98s65 21 68 98h63z" />
    <glyph glyph-name="ohungarumlaut" unicode="&#x151;" horiz-adv-x="433" 
d="M398 216c0 -153 -62 -226 -182 -226s-181 73 -181 226v118c0 153 61 226 181 226s182 -73 182 -226v-118zM315 216v118c0 112 -31 151 -99 151s-98 -39 -98 -151v-118c0 -112 30 -151 98 -151s99 39 99 151zM450 758l-111 -153h-80l96 153h95zM283 758h-94l-96 -153h79z
" />
    <glyph glyph-name="oslash" unicode="&#xf8;" horiz-adv-x="433" 
d="M398 216c0 -153 -62 -226 -182 -226c-39 0 -72 8 -98 23l-24 -42h-79l52 93c-21 37 -32 87 -32 152v118c0 153 61 226 181 226c46 0 83 -11 112 -33l29 52h79l-62 -110c16 -35 24 -80 24 -135v-118zM118 216c0 -22 1 -40 3 -56l166 296c-16 20 -40 29 -71 29
c-68 0 -98 -39 -98 -151v-118zM315 216v118c0 10 -1 19 -1 28l-158 -280c15 -12 35 -17 60 -17c68 0 99 39 99 151z" />
    <glyph glyph-name="oslashacute" unicode="&#x1ff;" horiz-adv-x="433" 
d="M363 760l-111 -153h-79l96 153h94zM398 216c0 -153 -62 -226 -182 -226c-39 0 -72 8 -98 23l-24 -42h-79l52 93c-21 37 -32 87 -32 152v118c0 153 61 226 181 226c46 0 83 -11 112 -33l29 52h79l-62 -110c16 -35 24 -80 24 -135v-118zM118 216c0 -22 1 -40 3 -56l166 296
c-16 20 -40 29 -71 29c-68 0 -98 -39 -98 -151v-118zM315 216v118c0 10 -1 19 -1 28l-158 -280c15 -12 35 -17 60 -17c68 0 99 39 99 151z" />
    <glyph glyph-name="oe" unicode="&#x153;" horiz-adv-x="710" 
d="M676 245h-279v-15c0 -125 13 -168 120 -168c49 0 97 5 144 15v-68c-29 -9 -84 -19 -148 -19c-82 0 -130 19 -159 58c-30 -39 -76 -58 -139 -58c-120 0 -181 73 -181 226v118c0 153 61 226 181 226c64 0 111 -21 141 -60c28 39 74 60 138 60c134 0 182 -91 182 -261v-54z
M592 313v14c0 92 -11 159 -97 159c-83 0 -97 -61 -98 -135v-38h195zM314 216v118c0 112 -31 152 -99 152s-98 -40 -98 -152v-118c0 -112 30 -152 98 -152s99 40 99 152z" />
    <glyph glyph-name="racute" unicode="&#x155;" horiz-adv-x="320" 
d="M301 484c-46 0 -116 -12 -150 -36v-372l42 -5v-71h-167v71l42 5v398l-42 5v71h122v-39c47 41 104 49 153 49v-76zM312 760l-111 -153h-79l96 153h94z" />
    <glyph glyph-name="rcaron" unicode="&#x159;" horiz-adv-x="320" 
d="M301 484c-46 0 -116 -12 -150 -36v-372l42 -5v-71h-167v71l42 5v398l-42 5v71h122v-39c47 41 104 49 153 49v-76zM322 760l-100 -153h-113l-101 153h78l79 -106l80 106h77z" />
    <glyph glyph-name="rcommaaccent" unicode="&#x157;" horiz-adv-x="320" 
d="M301 484c-46 0 -116 -12 -150 -36v-372l42 -5v-71h-167v71l42 5v398l-42 5v71h122v-39c47 41 104 49 153 49v-76zM215 -62l-75 -144h-74l52 144h97z" />
    <glyph glyph-name="sacute" unicode="&#x15b;" horiz-adv-x="365" 
d="M335 136c0 -80 -39 -146 -166 -146c-59 0 -119 14 -135 21v117h63l10 -63c20 -1 38 -2 57 -2c71 0 88 25 88 72s-13 67 -85 113l-27 17c-82 52 -110 99 -110 164c0 82 48 131 160 131c58 0 113 -12 133 -20v-107h-63l-10 52c-18 1 -41 2 -53 2c-59 0 -84 -13 -84 -57
c0 -39 12 -65 72 -102l29 -18c98 -61 121 -98 121 -174zM328 760l-111 -153h-79l96 153h94z" />
    <glyph glyph-name="scircumflex" unicode="&#x15d;" horiz-adv-x="365" 
d="M335 136c0 -80 -39 -146 -166 -146c-59 0 -119 14 -135 21v117h63l10 -63c20 -1 38 -2 57 -2c71 0 88 25 88 72s-13 67 -85 113l-27 17c-82 52 -110 99 -110 164c0 82 48 131 160 131c58 0 113 -12 133 -20v-107h-63l-10 52c-18 1 -41 2 -53 2c-59 0 -84 -13 -84 -57
c0 -39 12 -65 72 -102l29 -18c98 -61 121 -98 121 -174zM338 607h-77l-80 106l-79 -106h-78l101 153h113z" />
    <glyph glyph-name="scaron" unicode="&#x161;" horiz-adv-x="365" 
d="M335 136c0 -80 -39 -146 -166 -146c-59 0 -119 14 -135 21v117h63l10 -63c20 -1 38 -2 57 -2c71 0 88 25 88 72s-13 67 -85 113l-27 17c-82 52 -110 99 -110 164c0 82 48 131 160 131c58 0 113 -12 133 -20v-107h-63l-10 52c-18 1 -41 2 -53 2c-59 0 -84 -13 -84 -57
c0 -39 12 -65 72 -102l29 -18c98 -61 121 -98 121 -174zM340 760l-100 -153h-113l-101 153h78l79 -106l80 106h77z" />
    <glyph glyph-name="scedilla" unicode="&#x15f;" horiz-adv-x="365" 
d="M335 136c0 -80 -39 -146 -166 -146c-59 0 -119 14 -135 21v117h63l10 -63c20 -1 38 -2 57 -2c71 0 88 25 88 72s-13 67 -85 113l-27 17c-82 52 -110 99 -110 164c0 82 48 131 160 131c58 0 113 -12 133 -20v-107h-63l-10 52c-18 1 -41 2 -53 2c-59 0 -84 -13 -84 -57
c0 -39 12 -65 72 -102l29 -18c98 -61 121 -98 121 -174zM235 -62l-105 -144h-77l87 144h95z" />
    <glyph glyph-name="scommaaccent" unicode="&#x219;" horiz-adv-x="365" 
d="M335 136c0 -80 -39 -146 -166 -146c-59 0 -119 14 -135 21v117h63l10 -63c20 -1 38 -2 57 -2c71 0 88 25 88 72s-13 67 -85 113l-27 17c-82 52 -110 99 -110 164c0 82 48 131 160 131c58 0 113 -12 133 -20v-107h-63l-10 52c-18 1 -41 2 -53 2c-59 0 -84 -13 -84 -57
c0 -39 12 -65 72 -102l29 -18c98 -61 121 -98 121 -174zM234 -62l-75 -144h-74l52 144h97z" />
    <glyph glyph-name="germandbls" unicode="&#xdf;" horiz-adv-x="470" 
d="M438 205c0 -116 -36 -212 -192 -212c-8 0 -25 1 -44 3v68c20 -1 31 -1 39 -1c90 0 115 41 115 142v33c0 80 -25 127 -116 127h-38v68h38c86 0 104 49 104 127v16c0 79 -16 127 -97 127c-78 0 -102 -48 -102 -170v-533h-124v71l42 5v457c0 134 33 244 184 244
c144 0 180 -102 180 -201v-16c0 -72 -22 -124 -72 -156c56 -30 83 -86 83 -166v-33z" />
    <glyph glyph-name="tcaron" unicode="&#x165;" horiz-adv-x="320" 
d="M335 767l-45 -163h-65l24 163h86zM293 2c-13 -4 -46 -12 -83 -12c-75 0 -105 29 -105 118v370l-80 9v63h80v133h83v-133h105v-72h-105v-363c0 -49 3 -56 41 -56c22 0 55 4 64 4v-61z" />
    <glyph glyph-name="tcommaaccent" unicode="&#x163;" horiz-adv-x="320" 
d="M293 2c-13 -4 -46 -12 -83 -12c-75 0 -105 29 -105 118v370l-80 9v63h80v133h83v-133h105v-72h-105v-363c0 -49 3 -56 41 -56c22 0 55 4 64 4v-61zM256 -62l-75 -144h-74l52 144h97z" />
    <glyph glyph-name="uni021B" unicode="&#x21b;" horiz-adv-x="320" 
d="M293 2c-13 -4 -46 -12 -83 -12c-75 0 -105 29 -105 118v370l-80 9v63h80v133h83v-133h105v-72h-105v-363c0 -49 3 -56 41 -56c22 0 55 4 64 4v-61zM256 -62l-75 -144h-74l52 144h97z" />
    <glyph glyph-name="tbar" unicode="&#x167;" horiz-adv-x="320" 
d="M293 336h-105v-220c0 -49 3 -57 41 -57c22 0 56 4 64 5v-61c-13 -5 -45 -13 -83 -13c-75 0 -105 30 -105 119v227h-80v72h80v70h-80v72h80v133h83v-133h105v-72h-105v-70h105v-72z" />
    <glyph glyph-name="uacute" unicode="&#xfa;" horiz-adv-x="481" 
d="M455 0h-125v37c-45 -27 -89 -47 -137 -47c-109 0 -125 84 -125 184v300l-42 5v71h125v-376c0 -86 9 -112 63 -112c29 0 68 13 116 40v372l-42 5v71h125v-474l42 -5v-71zM371 760l-111 -153h-79l96 153h94z" />
    <glyph glyph-name="ugrave" unicode="&#xf9;" horiz-adv-x="481" 
d="M455 0h-125v37c-45 -27 -89 -47 -137 -47c-109 0 -125 84 -125 184v300l-42 5v71h125v-376c0 -86 9 -112 63 -112c29 0 68 13 116 40v372l-42 5v71h125v-474l42 -5v-71zM295 607h-80l-111 153h95z" />
    <glyph glyph-name="ucircumflex" unicode="&#xfb;" horiz-adv-x="481" 
d="M455 0h-125v37c-45 -27 -89 -47 -137 -47c-109 0 -125 84 -125 184v300l-42 5v71h125v-376c0 -86 9 -112 63 -112c29 0 68 13 116 40v372l-42 5v71h125v-474l42 -5v-71zM395 607h-77l-80 106l-79 -106h-78l101 153h113z" />
    <glyph glyph-name="udieresis" unicode="&#xfc;" horiz-adv-x="481" 
d="M455 0h-125v37c-45 -27 -89 -47 -137 -47c-109 0 -125 84 -125 184v300l-42 5v71h125v-376c0 -86 9 -112 63 -112c29 0 68 13 116 40v372l-42 5v71h125v-474l42 -5v-71zM367 635h-80v112h80v-112zM188 635v112h-80v-112h80z" />
    <glyph glyph-name="utilde" unicode="&#x169;" horiz-adv-x="481" 
d="M455 0h-125v37c-45 -27 -89 -47 -137 -47c-109 0 -125 84 -125 184v300l-42 5v71h125v-376c0 -86 9 -112 63 -112c29 0 68 13 116 40v372l-42 5v71h125v-474l42 -5v-71zM409 714c0 -66 -21 -110 -87 -110c-38 0 -66 13 -92 46l-22 27c-16 20 -28 30 -45 30
c-19 0 -27 -15 -27 -49v-49h-61v49c0 66 26 110 88 110c39 0 66 -16 92 -48l21 -26c18 -22 28 -28 45 -28c20 0 27 14 27 48v50h61v-50z" />
    <glyph glyph-name="umacron" unicode="&#x16b;" horiz-adv-x="481" 
d="M455 0h-125v37c-45 -27 -89 -47 -137 -47c-109 0 -125 84 -125 184v300l-42 5v71h125v-376c0 -86 9 -112 63 -112c29 0 68 13 116 40v372l-42 5v71h125v-474l42 -5v-71zM373 653h-270v66h270v-66z" />
    <glyph glyph-name="uring" unicode="&#x16f;" horiz-adv-x="481" 
d="M455 0h-125v37c-45 -27 -89 -47 -137 -47c-109 0 -125 84 -125 184v300l-42 5v71h125v-376c0 -86 9 -112 63 -112c29 0 68 13 116 40v372l-42 5v71h125v-474l42 -5v-71zM342 711c0 -79 -44 -110 -104 -110s-105 31 -105 110s45 111 105 111s104 -32 104 -111zM283 711
c0 48 -21 58 -45 58c-25 0 -45 -10 -45 -58c0 -47 20 -57 45 -57c24 0 45 10 45 57z" />
    <glyph glyph-name="ubreve" unicode="&#x16d;" horiz-adv-x="481" 
d="M455 0h-125v37c-45 -27 -89 -47 -137 -47c-109 0 -125 84 -125 184v300l-42 5v71h125v-376c0 -86 9 -112 63 -112c29 0 68 13 116 40v372l-42 5v71h125v-474l42 -5v-71zM365 760c-3 -85 -24 -155 -131 -155s-127 70 -131 155h63c4 -77 19 -98 68 -98s65 21 68 98h63z" />
    <glyph glyph-name="uhungarumlaut" unicode="&#x171;" horiz-adv-x="481" 
d="M455 0h-125v37c-45 -27 -89 -47 -137 -47c-109 0 -125 84 -125 184v300l-42 5v71h125v-376c0 -86 9 -112 63 -112c29 0 68 13 116 40v372l-42 5v71h125v-474l42 -5v-71zM479 760l-111 -153h-80l96 153h95zM312 760h-94l-96 -153h79z" />
    <glyph glyph-name="uogonek" unicode="&#x173;" horiz-adv-x="481" 
d="M455 0c-99 -57 -106 -90 -106 -115c0 -28 11 -44 49 -44c22 0 42 2 57 3v-49c-19 -5 -43 -9 -71 -9c-72 0 -107 31 -107 89c0 47 24 84 80 125h-27v37c-45 -27 -89 -47 -137 -47c-109 0 -125 84 -125 184v300l-42 5v71h125v-376c0 -86 9 -112 63 -112c29 0 68 13 116 40
v372l-42 5v71h125v-474l42 -5v-71z" />
    <glyph glyph-name="wacute" unicode="&#x1e83;" horiz-adv-x="695" 
d="M512 550h160v-71l-43 -5l-74 -474h-113l-75 306c-12 51 -16 79 -18 105h-3c-3 -26 -6 -54 -18 -105l-74 -306h-114l-74 474l-43 5v71h162v-68l-37 -4l35 -270c7 -52 11 -94 16 -136h4c8 44 14 89 25 135l65 275h111l65 -275c11 -48 18 -90 26 -135h4c4 43 8 85 15 136
l35 270l-37 4v68zM482 760l-111 -153h-79l96 153h94z" />
    <glyph glyph-name="wgrave" unicode="&#x1e81;" horiz-adv-x="695" 
d="M512 550h160v-71l-43 -5l-74 -474h-113l-75 306c-12 51 -16 79 -18 105h-3c-3 -26 -6 -54 -18 -105l-74 -306h-114l-74 474l-43 5v71h162v-68l-37 -4l35 -270c7 -52 11 -94 16 -136h4c8 44 14 89 25 135l65 275h111l65 -275c11 -48 18 -90 26 -135h4c4 43 8 85 15 136
l35 270l-37 4v68zM402 607h-80l-111 153h95z" />
    <glyph glyph-name="wcircumflex" unicode="&#x175;" horiz-adv-x="695" 
d="M512 550h160v-71l-43 -5l-74 -474h-113l-75 306c-12 51 -16 79 -18 105h-3c-3 -26 -6 -54 -18 -105l-74 -306h-114l-74 474l-43 5v71h162v-68l-37 -4l35 -270c7 -52 11 -94 16 -136h4c8 44 14 89 25 135l65 275h111l65 -275c11 -48 18 -90 26 -135h4c4 43 8 85 15 136
l35 270l-37 4v68zM504 607h-77l-80 106l-79 -106h-78l101 153h113z" />
    <glyph glyph-name="wdieresis" unicode="&#x1e85;" horiz-adv-x="695" 
d="M512 550h160v-71l-43 -5l-74 -474h-113l-75 306c-12 51 -16 79 -18 105h-3c-3 -26 -6 -54 -18 -105l-74 -306h-114l-74 474l-43 5v71h162v-68l-37 -4l35 -270c7 -52 11 -94 16 -136h4c8 44 14 89 25 135l65 275h111l65 -275c11 -48 18 -90 26 -135h4c4 43 8 85 15 136
l35 270l-37 4v68zM477 635h-80v112h80v-112zM298 635v112h-80v-112h80z" />
    <glyph glyph-name="yacute" unicode="&#xfd;" horiz-adv-x="479" 
d="M289 550h169v-71l-47 -5l-130 -511c-26 -103 -50 -179 -161 -179c-34 0 -64 5 -82 11v65c32 -3 54 -3 76 -3c50 0 64 27 85 113l7 30l-138 474l-48 5v71h169v-68l-37 -4l59 -222c13 -51 24 -106 33 -152h2c6 46 15 101 27 150l53 224l-37 4v68zM391 760l-111 -153h-79
l96 153h94z" />
    <glyph glyph-name="ygrave" unicode="&#x1ef3;" horiz-adv-x="479" 
d="M289 550h169v-71l-47 -5l-130 -511c-26 -103 -50 -179 -161 -179c-34 0 -64 5 -82 11v65c32 -3 54 -3 76 -3c50 0 64 27 85 113l7 30l-138 474l-48 5v71h169v-68l-37 -4l59 -222c13 -51 24 -106 33 -152h2c6 46 15 101 27 150l53 224l-37 4v68zM313 607h-80l-111 153h95z
" />
    <glyph glyph-name="ycircumflex" unicode="&#x177;" horiz-adv-x="479" 
d="M289 550h169v-71l-47 -5l-130 -511c-26 -103 -50 -179 -161 -179c-34 0 -64 5 -82 11v65c32 -3 54 -3 76 -3c50 0 64 27 85 113l7 30l-138 474l-48 5v71h169v-68l-37 -4l59 -222c13 -51 24 -106 33 -152h2c6 46 15 101 27 150l53 224l-37 4v68zM402 607h-77l-80 106
l-79 -106h-78l101 153h113z" />
    <glyph glyph-name="ydieresis" unicode="&#xff;" horiz-adv-x="479" 
d="M289 550h169v-71l-47 -5l-130 -511c-26 -103 -50 -179 -161 -179c-34 0 -64 5 -82 11v65c32 -3 54 -3 76 -3c50 0 64 27 85 113l7 30l-138 474l-48 5v71h169v-68l-37 -4l59 -222c13 -51 24 -106 33 -152h2c6 46 15 101 27 150l53 224l-37 4v68zM374 635h-80v112h80v-112z
M195 635v112h-80v-112h80z" />
    <glyph glyph-name="zacute" unicode="&#x17a;" horiz-adv-x="374" 
d="M344 0h-314v102l230 376h-148l-10 -45h-63v117h304v-94l-234 -384h162l10 57h63v-129zM338 760l-111 -153h-79l96 153h94z" />
    <glyph glyph-name="zcaron" unicode="&#x17e;" horiz-adv-x="374" 
d="M344 0h-314v102l230 376h-148l-10 -45h-63v117h304v-94l-234 -384h162l10 57h63v-129zM348 760l-100 -153h-113l-101 153h78l79 -106l80 106h77z" />
    <glyph glyph-name="zdotaccent" unicode="&#x17c;" horiz-adv-x="374" 
d="M344 0h-314v102l230 376h-148l-10 -45h-63v117h304v-94l-234 -384h162l10 57h63v-129zM235 654h-83v113h83v-113z" />
    <glyph glyph-name="eth" unicode="&#xf0;" horiz-adv-x="433" 
d="M398 217c0 -155 -62 -227 -182 -227s-181 72 -181 227v110c0 154 61 227 181 227c30 0 57 -7 79 -19c-16 59 -42 102 -80 131l-91 -75l-41 40l74 67c-27 8 -59 13 -92 13h-17v69c9 1 18 1 24 1c56 0 104 -9 144 -27l51 41l42 -40l-38 -34c91 -73 127 -211 127 -394v-110z
M315 217v110c0 113 -31 152 -99 152s-98 -38 -98 -152v-110c0 -114 30 -152 98 -152s99 38 99 152z" />
    <glyph glyph-name="thorn" unicode="&#xfe;" horiz-adv-x="448" 
d="M413 218c0 -174 -73 -228 -181 -228c-25 0 -52 4 -82 10v-131l43 -4v-71h-167v71l42 4v822l-42 5v71h122v-247c35 26 75 40 117 40c105 0 148 -71 148 -209v-133zM331 218v133c0 96 -23 134 -82 134c-30 0 -57 -8 -99 -31v-381c30 -5 62 -9 82 -9c62 0 99 25 99 154z" />
    <glyph glyph-name="longs" unicode="&#x17f;" horiz-adv-x="271" 
d="M187 0h-166v71l42 5v550c0 92 18 151 114 151c37 0 64 -8 82 -14v-58c-14 2 -42 4 -64 4c-45 0 -50 -18 -50 -83v-550l42 -5v-71z" />
    <glyph glyph-name="longs_h" unicode="&#xfb13;" horiz-adv-x="680" 
d="M187 0h-166v71l42 5v550c0 92 18 151 114 151c37 0 70 -8 88 -14h89v-241c26 18 72 38 129 38c104 0 133 -77 133 -185v-299l42 -5v-71h-125v370c0 90 -15 116 -68 116c-40 0 -82 -16 -111 -35v-375l42 -5v-71h-167v71l42 5v628c-17 2 -46 5 -76 5c-45 0 -50 -18 -50 -83
v-550l42 -5v-71z" />
    <glyph glyph-name="longs_i" unicode="&#xfb15;" horiz-adv-x="446" 
d="M419 0h-166v71l42 5v397l-42 5v72h125v-474l41 -5v-71zM379 653h-85v114h85v-114zM259 705c-14 2 -42 4 -64 4c-45 0 -50 -18 -50 -83v-550l42 -5v-71h-166v71l42 5v550c0 92 18 151 114 151c37 0 64 -8 82 -14v-58z" />
    <glyph glyph-name="longs_l" unicode="&#xfb14;" horiz-adv-x="422" 
d="M395 0h-167v71l42 5v628c-23 2 -56 5 -75 5c-45 0 -50 -18 -50 -83v-550l42 -5v-71h-166v71l42 5v550c0 92 18 151 114 151c29 0 60 -6 85 -10h91v-691l42 -5v-71z" />
    <glyph glyph-name="longs_longs" unicode="&#xfb16;" horiz-adv-x="483" 
d="M260 705c-15 2 -42 4 -65 4c-44 0 -49 -18 -49 -83v-550l42 -5v-71h-167v71l42 5v550c0 92 18 151 114 151c38 0 65 -8 83 -14v-58zM491 763v-58c-15 2 -42 4 -65 4c-44 0 -49 -18 -49 -83v-550l42 -5v-71h-167v71l42 5v550c0 92 18 151 114 151c38 0 65 -8 83 -14z" />
    <glyph glyph-name="longs_t" unicode="&#xfb05;" horiz-adv-x="473" 
d="M446 3c-13 -5 -46 -13 -83 -13c-75 0 -105 30 -105 119v369l-80 10v62h80v155c-14 2 -43 4 -63 4c-45 0 -50 -18 -50 -83v-550l42 -5v-71h-166v71l42 5v550c0 92 18 151 114 151c37 0 66 -8 84 -14h80v-213h105v-72h-105v-362c0 -49 3 -57 41 -57c22 0 55 4 64 5v-61z
" />
    <glyph glyph-name="acute" unicode="&#xb4;" 
d="M298 760l-111 -153h-79l96 153h94z" />
    <glyph glyph-name="grave" unicode="`" 
d="M215 607h-80l-111 153h95z" />
    <glyph glyph-name="circumflex" unicode="&#x2c6;" 
d="M321 607h-77l-80 106l-79 -106h-78l101 153h113z" />
    <glyph glyph-name="dieresis" unicode="&#xa8;" 
d="M294 635h-80v112h80v-112zM115 635v112h-80v-112h80z" />
    <glyph glyph-name="tilde" unicode="&#x2dc;" 
d="M333 714c0 -66 -21 -110 -87 -110c-38 0 -66 13 -92 46l-22 27c-16 20 -28 30 -45 30c-19 0 -27 -15 -27 -49v-49h-61v49c0 66 26 110 88 110c39 0 66 -16 92 -48l21 -26c18 -22 28 -28 45 -28c20 0 27 14 27 48v50h61v-50z" />
    <glyph glyph-name="macron" unicode="&#xaf;" 
d="M299 653h-270v66h270v-66z" />
    <glyph glyph-name="uni02C9" unicode="&#x2c9;" 
d="M299 653h-270v66h270v-66z" />
    <glyph glyph-name="caron" unicode="&#x2c7;" 
d="M321 760l-100 -153h-113l-101 153h78l79 -106l80 106h77z" />
    <glyph glyph-name="breve" unicode="&#x2d8;" 
d="M295 760c-3 -85 -24 -155 -131 -155s-127 70 -131 155h63c4 -77 19 -98 68 -98s65 21 68 98h63z" />
    <glyph glyph-name="ring" unicode="&#x2da;" 
d="M269 711c0 -79 -44 -110 -104 -110s-105 31 -105 110s45 111 105 111s104 -32 104 -111zM210 711c0 48 -21 58 -45 58c-25 0 -45 -10 -45 -58c0 -47 20 -57 45 -57c24 0 45 10 45 57z" />
    <glyph glyph-name="dotaccent" unicode="&#x2d9;" 
d="M206 653h-83v113h83v-113z" />
    <glyph glyph-name="hungarumlaut" unicode="&#x2dd;" 
d="M375 758l-111 -153h-80l96 153h95zM208 758h-94l-96 -153h79z" />
    <glyph glyph-name="cedilla" unicode="&#xb8;" 
d="M225 -62l-105 -144h-77l87 144h95z" />
    <glyph glyph-name="ogonek" unicode="&#x2db;" 
d="M260 -205c-19 -5 -43 -9 -71 -9c-72 0 -107 39 -107 93c0 42 19 76 96 147h85c-101 -91 -109 -116 -109 -141c0 -28 11 -44 49 -44c22 0 42 2 57 3v-49z" />
    <glyph glyph-name="one.superior" unicode="&#xb9;" horiz-adv-x="338" 
d="M294 300h-244v57l83 3v309l-83 -30v68l103 40h57v-387l84 -3v-57z" />
    <glyph glyph-name="two.superior" unicode="&#xb2;" horiz-adv-x="352" 
d="M304 301h-264v57c0 100 32 136 117 191c67 43 75 59 75 92c0 40 -21 53 -80 53c-14 0 -33 -1 -51 -2l-6 -40h-51v88c16 4 72 14 119 14c100 0 147 -33 147 -110c0 -53 -22 -87 -103 -141c-78 -52 -91 -70 -91 -132v-8h130l6 37h52v-99z" />
    <glyph glyph-name="three.superior" unicode="&#xb3;" horiz-adv-x="352" 
d="M308 421c0 -96 -52 -129 -151 -129c-46 0 -98 11 -116 17v89h51l6 -43c16 -1 35 -2 53 -2c54 0 79 10 79 70v14c0 39 -8 64 -62 64h-108v58h109c53 0 61 25 61 64v8c0 50 -19 63 -80 63c-16 0 -35 -1 -51 -2l-6 -40h-51v88c13 4 68 14 115 14c99 0 151 -29 151 -120v-8
c0 -42 -15 -77 -49 -96c35 -19 49 -52 49 -95v-14z" />
    <glyph glyph-name="ordfeminine" unicode="&#xaa;" horiz-adv-x="324" 
d="M297 445h-85v19c-19 -12 -50 -26 -87 -26c-55 0 -86 31 -86 89v14c0 81 57 96 134 96h33v23c0 48 -8 58 -60 58c-12 0 -24 0 -37 -2l-5 -26h-46v67c11 5 53 15 100 15c92 0 115 -33 115 -112v-158l24 -2v-55zM208 508v85h-34c-52 0 -70 -8 -70 -51v-17
c0 -31 16 -36 40 -36s51 11 64 19z" />
    <glyph glyph-name="ordmasculine" unicode="&#xba;" horiz-adv-x="334" 
d="M295 581c0 -98 -45 -143 -128 -143s-128 45 -128 143v48c0 98 45 143 128 143s128 -45 128 -143v-48zM229 581v48c0 63 -19 86 -62 86s-62 -22 -62 -86v-48c0 -63 19 -85 62 -85s62 21 62 85z" />
    <glyph glyph-name="guilsinglleft" unicode="&#x2039;" horiz-adv-x="227" 
d="M202 70h-75l-102 206l102 206h75l-99 -206z" />
    <glyph glyph-name="guilsinglright" unicode="&#x203a;" horiz-adv-x="227" 
d="M202 276l-102 -206h-75l99 206l-99 206h75z" />
    <glyph glyph-name="guillemotleft" unicode="&#xab;" horiz-adv-x="367" 
d="M343 70h-75l-102 206l102 206h75l-99 -206zM203 70l-99 206l99 206h-75l-102 -206l102 -206h75z" />
    <glyph glyph-name="guillemotright" unicode="&#xbb;" horiz-adv-x="367" 
d="M342 276l-102 -206h-75l99 206l-99 206h75zM202 276l-102 206h-75l99 -206l-99 -206h75z" />
    <glyph glyph-name="quotedblleft" unicode="&#x201c;" horiz-adv-x="333" 
d="M303 767l-34 -226h-87l57 226h64zM152 767l-35 -226h-87l57 226h65z" />
    <glyph glyph-name="quotedblright" unicode="&#x201d;" horiz-adv-x="333" 
d="M303 767l-57 -226h-65l35 226h87zM151 767l-56 -226h-65l35 226h86z" />
    <glyph glyph-name="quotesinglbase" unicode="&#x201a;" horiz-adv-x="181" 
d="M151 133l-56 -225h-65l35 225h86z" />
    <glyph glyph-name="quotedblbase" unicode="&#x201e;" horiz-adv-x="333" 
d="M303 133l-57 -225h-65l35 225h87zM151 133h-86l-35 -225h65z" />
    <glyph glyph-name="ellipsis" unicode="&#x2026;" horiz-adv-x="638" 
d="M586 0h-83v135h83v-135zM361 0v135h-83v-135h83zM134 0h-82v135h82v-135z" />
    <glyph glyph-name="uni00AD" unicode="&#xad;" horiz-adv-x="274" 
d="M237 257h-200v72h200v-72z" />
    <glyph glyph-name="endash" unicode="&#x2013;" horiz-adv-x="354" 
d="M317 257h-280v72h280v-72z" />
    <glyph glyph-name="emdash" unicode="&#x2014;" horiz-adv-x="456" 
d="M419 257h-382v72h382v-72z" />
    <glyph glyph-name="exclamdown" unicode="&#xa1;" horiz-adv-x="196" 
d="M143 -217h-89l8 572h74zM140 550v-132h-83v132h83z" />
    <glyph glyph-name="questiondown" unicode="&#xbf;" horiz-adv-x="377" 
d="M190 550h83v-135h-83v135zM193 355v-49c0 -67 -10 -91 -79 -185c-56 -76 -71 -128 -71 -180v-11c0 -119 69 -157 168 -157c46 0 97 11 131 21v115h-64l-11 -59c-13 -1 -27 -1 -42 -1c-64 0 -94 16 -94 81v11c0 52 14 94 74 174c56 74 66 117 66 191v49h-78z" />
    <glyph glyph-name="periodcentered" unicode="&#xb7;" horiz-adv-x="179" 
d="M131 286h-83v135h83v-135z" />
    <glyph glyph-name="uni2219" unicode="&#x2219;" horiz-adv-x="179" 
d="M131 260h-83v136h83v-136z" />
    <glyph glyph-name="bullet" unicode="&#x2022;" horiz-adv-x="413" 
d="M359 368c0 -85 -68 -152 -153 -152c-83 0 -152 67 -152 152c0 84 69 152 152 152c85 0 153 -68 153 -152z" />
    <glyph glyph-name="dagger" unicode="&#x2020;" horiz-adv-x="388" 
d="M339 487h-107v-617h-82v617h-102v75h102v205h82v-205h107v-75z" />
    <glyph glyph-name="daggerdbl" unicode="&#x2021;" horiz-adv-x="388" 
d="M339 269h-107v-399h-82v399h-102v75h102v136h-102v75h102v211h82v-211h107v-75h-107v-136h107v-75z" />
    <glyph glyph-name="section" unicode="&#xa7;" horiz-adv-x="462" 
d="M414 -20c0 -105 -48 -198 -189 -198c-74 0 -143 15 -163 21v127h64l8 -65c22 -2 54 -3 84 -3c81 0 106 31 106 116c0 60 -2 93 -99 159l-84 57c-75 51 -94 102 -94 178c0 33 8 73 24 101c-16 27 -24 65 -24 105c0 114 59 175 188 175c76 0 137 -15 161 -21v-123h-64
l-11 62c-22 2 -50 3 -82 3c-83 0 -103 -32 -103 -96c0 -54 3 -91 88 -143l76 -46c95 -58 114 -119 114 -194c0 -23 -7 -66 -25 -99c16 -28 25 -58 25 -116zM328 162v33c0 56 -1 76 -72 120l-75 47c-35 22 -41 33 -53 44v-34c0 -65 6 -77 67 -116l78 -50
c24 -15 39 -27 55 -44z" />
    <glyph glyph-name="paragraph" unicode="&#xb6;" horiz-adv-x="566" 
d="M515 -200h-77v871h-54v-871h-127v70l50 7v379h-25c-139 0 -240 54 -240 238v11c0 201 104 238 256 238h217v-943z" />
    <glyph glyph-name="copyright" unicode="&#xa9;" horiz-adv-x="653" 
d="M607 380c0 -215 -109 -346 -282 -346c-172 0 -282 131 -282 346c0 216 110 346 282 346c173 0 282 -130 282 -346zM544 380c0 181 -84 286 -219 286c-136 0 -219 -105 -219 -286s83 -286 219 -286c135 0 219 105 219 286zM421 177c-21 -7 -65 -11 -96 -11
c-101 0 -142 67 -142 168v93c0 105 41 166 142 166c31 0 79 -3 96 -10v-89h-52l-8 36c-8 0 -17 1 -29 1c-60 0 -76 -28 -76 -104v-93c0 -74 16 -103 76 -103c11 0 18 0 29 1l8 36h52v-91z" />
    <glyph glyph-name="registered" unicode="&#xae;" horiz-adv-x="540" 
d="M494 479c0 -170 -83 -280 -226 -280c-142 0 -225 110 -225 280c0 172 83 281 225 281c143 0 226 -109 226 -281zM441 479c0 147 -63 231 -173 231c-109 0 -173 -84 -173 -231c0 -149 64 -232 173 -232c110 0 173 83 173 232zM386 323h-67l-60 125h-12h-14v-125h-75v39
l18 2v244l-18 2v43c27 1 60 1 91 1c71 0 121 -16 121 -96v-4c0 -50 -17 -78 -54 -94l47 -94l23 -3v-40zM311 554v4c0 44 -19 49 -61 49h-17v-112h17c46 0 61 13 61 59z" />
    <glyph glyph-name="trademark" unicode="&#x2122;" horiz-adv-x="690" 
d="M546 412l25 3v165c0 25 2 51 4 76h-1c-8 -23 -15 -42 -24 -61l-42 -90h-53l-41 90c-8 18 -18 38 -24 61h-1c2 -25 3 -50 3 -76v-165l25 -3v-52h-114v52l25 3v272l-25 3v53h105l57 -133c7 -16 11 -30 16 -46h1c5 16 9 30 16 46l58 133h104v-53l-24 -3v-272l24 -3v-52h-114
v52zM277 660h-42l-6 29h-44v-274l24 -3v-52h-114v52l24 3v274h-44l-6 -29h-42v83h250v-83z" />
    <glyph glyph-name="zero.oldstyle" unicode="&#xf730;" horiz-adv-x="479" 
d="M440 246c0 -157 -53 -256 -201 -256s-200 99 -200 256v64c0 157 52 256 200 256s201 -99 201 -256v-64zM355 246v64c0 132 -37 182 -116 182c-78 0 -115 -50 -115 -182v-64c0 -131 37 -182 115 -182c79 0 116 51 116 182z" />
    <glyph glyph-name="one.oldstyle" unicode="&#xf731;" horiz-adv-x="389" 
d="M353 0h-317v71l118 6v389l-118 -52v86l138 63h65v-486l114 -6v-71z" />
    <glyph glyph-name="two.oldstyle" unicode="&#xf732;" horiz-adv-x="444" 
d="M405 0h-368v78l127 108c131 112 158 158 158 228c0 53 -34 79 -130 79c-23 0 -44 -1 -72 -3l-11 -67h-64v122c31 7 94 21 157 21c157 0 205 -63 205 -152c0 -88 -36 -146 -184 -274l-72 -62h254v-78z" />
    <glyph glyph-name="three.oldstyle" unicode="&#xf733;" horiz-adv-x="447" 
d="M405 7c0 -158 -78 -203 -211 -203c-65 0 -133 17 -152 23v125h64l10 -72c23 -2 49 -3 75 -3c87 0 129 18 129 131v32c0 75 -12 123 -94 123h-157v71h157c82 0 94 48 94 121v18c0 99 -33 120 -130 120c-23 0 -50 -1 -72 -3l-10 -67h-65v122c12 4 86 22 151 22
c138 0 211 -43 211 -194v-18c0 -73 -22 -125 -72 -156c51 -31 72 -84 72 -159v-33z" />
    <glyph glyph-name="four.oldstyle" unicode="&#xf734;" horiz-adv-x="482" 
d="M454 12h-83v-122l42 -5v-71h-169v71l42 5v122h-259v91l248 454h96v-470h83v-75zM287 87v330l-182 -330h182z" />
    <glyph glyph-name="five.oldstyle" unicode="&#xf735;" horiz-adv-x="442" 
d="M406 11c0 -158 -78 -207 -216 -207c-71 0 -137 17 -154 21v127h64l11 -72c24 -2 49 -3 75 -3c97 0 135 25 135 134v41c0 100 -23 137 -141 137h-131l24 368h314v-134h-65l-10 57h-166l-14 -218h54c176 0 220 -80 220 -210v-41z" />
    <glyph glyph-name="six.oldstyle" unicode="&#xf736;" horiz-adv-x="476" 
d="M436 212c0 -194 -118 -222 -194 -222c-99 0 -203 26 -203 253v250c0 160 41 260 220 260c66 0 130 -15 152 -22v-122h-64l-10 67c-23 2 -50 3 -74 3c-131 0 -139 -68 -139 -186v-49c32 9 85 17 123 17c109 0 189 -39 189 -186v-63zM351 212v56c0 97 -29 124 -111 124
c-29 0 -76 -5 -116 -16v-136c0 -125 35 -177 118 -177c72 0 109 55 109 149z" />
    <glyph glyph-name="seven.oldstyle" unicode="&#xf737;" horiz-adv-x="427" 
d="M398 464l-236 -650h-92l250 666h-217l-10 -57h-64v134h369v-93z" />
    <glyph glyph-name="eight.oldstyle" unicode="&#xf738;" horiz-adv-x="492" 
d="M450 211c0 -206 -104 -221 -203 -221h-3c-99 0 -203 15 -203 221v10c0 89 23 133 70 167c-39 27 -68 68 -68 154v13c0 150 87 198 201 198h3c114 0 201 -48 201 -198v-13c0 -86 -29 -127 -68 -154c47 -34 70 -78 70 -167v-10zM365 211v10c0 91 -21 130 -84 130h-71
c-63 0 -84 -39 -84 -130v-10c0 -127 44 -147 118 -147h3c74 0 118 20 118 147zM364 542v13c0 101 -43 124 -117 124h-3c-74 0 -117 -23 -117 -124v-13c0 -74 20 -119 83 -119h71c63 0 83 45 83 119z" />
    <glyph glyph-name="nine.oldstyle" unicode="&#xf739;" horiz-adv-x="476" 
d="M436 63c0 -160 -40 -259 -220 -259c-66 0 -130 15 -152 21v124h64l10 -69c23 -1 50 -3 74 -3c131 0 139 69 139 186v50c-32 -10 -84 -17 -123 -17c-108 0 -189 39 -189 185v63c0 194 118 223 195 223c99 0 202 -27 202 -253v-251zM351 180v136c0 126 -34 177 -117 177
c-73 0 -110 -55 -110 -149v-56c0 -97 30 -123 111 -123c30 0 76 4 116 15z" />
    <glyph glyph-name="zero.fitted" unicode="&#xe097;" horiz-adv-x="487" 
d="M444 266c0 -173 -53 -276 -200 -276c-148 0 -201 103 -201 276v210c0 173 53 277 201 277c147 0 200 -104 200 -277v-210zM359 266v210c0 147 -37 202 -116 202c-78 0 -115 -55 -115 -202v-210c0 -147 37 -203 115 -203c79 0 116 56 116 203z" />
    <glyph glyph-name="one.fitted" unicode="&#xf6dc;" horiz-adv-x="487" 
d="M434 0h-380v71l148 6v579l-149 -50v76l169 64h64v-669l148 -6v-71z" />
    <glyph glyph-name="two.fitted" unicode="&#xe098;" horiz-adv-x="487" 
d="M418 0h-357v96c0 156 51 212 169 307c99 79 111 110 111 171c0 82 -34 105 -129 105c-20 0 -49 -2 -74 -3l-10 -67h-64v122c10 3 84 22 158 22c138 0 204 -55 204 -179c0 -75 -19 -133 -142 -230c-117 -92 -141 -133 -141 -248v-19h200l11 62h64v-139z" />
    <glyph glyph-name="three.fitted" unicode="&#xe099;" horiz-adv-x="487" 
d="M425 193c0 -158 -78 -203 -211 -203c-65 0 -133 17 -152 23v125h64l10 -72c23 -2 49 -3 75 -3c87 0 129 18 129 131v32c0 75 -12 123 -94 123h-157v71h157c82 0 94 48 94 121v18c0 99 -33 120 -130 120c-23 0 -50 -1 -72 -3l-10 -67h-65v122c12 4 86 22 151 22
c138 0 211 -43 211 -194v-18c0 -73 -22 -125 -72 -156c51 -31 72 -84 72 -159v-33z" />
    <glyph glyph-name="four.fitted" unicode="&#xe09a;" horiz-adv-x="487" 
d="M457 198h-83v-122l42 -5v-71h-169v71l42 5v122h-259v91l247 454h97v-470h83v-75zM289 273v330l-181 -330h181z" />
    <glyph glyph-name="five.fitted" unicode="&#xe09b;" horiz-adv-x="487" 
d="M428 197c0 -158 -79 -207 -217 -207c-70 0 -137 17 -153 21v127h64l10 -72c25 -2 49 -3 75 -3c97 0 136 25 136 134v41c0 100 -23 137 -141 137h-132l24 368h314v-134h-64l-10 57h-166l-14 -218h54c175 0 220 -80 220 -210v-41z" />
    <glyph glyph-name="six.fitted" unicode="&#xe09c;" horiz-adv-x="487" 
d="M442 212c0 -194 -118 -222 -195 -222c-99 0 -203 26 -203 253v250c0 160 41 260 220 260c67 0 131 -15 153 -22v-122h-65l-10 67c-23 2 -49 3 -74 3c-131 0 -139 -68 -139 -186v-49c33 9 85 17 124 17c108 0 189 -39 189 -186v-63zM357 212v56c0 97 -30 124 -112 124
c-29 0 -75 -5 -116 -16v-136c0 -125 35 -177 118 -177c72 0 110 55 110 149z" />
    <glyph glyph-name="seven.fitted" unicode="&#xe09d;" horiz-adv-x="487" 
d="M428 650l-236 -650h-92l250 666h-217l-10 -57h-64v134h369v-93z" />
    <glyph glyph-name="eight.fitted" unicode="&#xe09e;" horiz-adv-x="487" 
d="M448 211c0 -206 -104 -221 -203 -221h-3c-99 0 -203 15 -203 221v10c0 89 23 133 70 167c-39 27 -68 68 -68 154v13c0 150 87 198 201 198h3c114 0 201 -48 201 -198v-13c0 -86 -29 -127 -68 -154c47 -34 70 -78 70 -167v-10zM363 211v10c0 91 -21 130 -84 130h-71
c-63 0 -84 -39 -84 -130v-10c0 -127 44 -147 118 -147h3c74 0 118 20 118 147zM362 542v13c0 101 -43 124 -117 124h-3c-74 0 -117 -23 -117 -124v-13c0 -74 20 -119 83 -119h71c63 0 83 45 83 119z" />
    <glyph glyph-name="nine.fitted" unicode="&#xe09f;" horiz-adv-x="487" 
d="M442 250c0 -160 -41 -260 -220 -260c-66 0 -131 15 -153 22v124h64l11 -69c22 -2 50 -3 74 -3c131 0 139 68 139 186v49c-32 -9 -85 -17 -124 -17c-108 0 -189 39 -189 186v63c0 194 119 222 195 222c99 0 203 -26 203 -253v-250zM357 367v136c0 125 -35 177 -118 177
c-72 0 -110 -55 -110 -149v-56c0 -97 30 -124 112 -124c29 0 75 5 116 16z" />
    <glyph glyph-name="zero.taboldstyle" unicode="&#xe100;" horiz-adv-x="487" 
d="M444 246c0 -157 -53 -256 -201 -256s-200 99 -200 256v64c0 157 52 256 200 256s201 -99 201 -256v-64zM359 246v64c0 132 -37 182 -116 182c-78 0 -115 -50 -115 -182v-64c0 -131 37 -182 115 -182c79 0 116 51 116 182z" />
    <glyph glyph-name="one.taboldstyle" unicode="&#xe101;" horiz-adv-x="487" 
d="M402 0h-317v71l118 6v389l-118 -52v86l138 63h65v-486l114 -6v-71z" />
    <glyph glyph-name="two.taboldstyle" unicode="&#xe102;" horiz-adv-x="487" 
d="M426 0h-368v78l127 108c131 112 158 158 158 228c0 53 -34 79 -130 79c-23 0 -44 -1 -72 -3l-11 -67h-64v122c31 7 94 21 157 21c157 0 205 -63 205 -152c0 -88 -36 -146 -184 -274l-72 -62h254v-78z" />
    <glyph glyph-name="three.taboldstyle" unicode="&#xe103;" horiz-adv-x="487" 
d="M425 7c0 -158 -78 -203 -211 -203c-65 0 -133 17 -152 23v125h64l10 -72c23 -2 49 -3 75 -3c87 0 129 18 129 131v32c0 75 -12 123 -94 123h-157v71h157c82 0 94 48 94 121v18c0 99 -33 120 -130 120c-23 0 -50 -1 -72 -3l-10 -67h-65v122c12 4 86 22 151 22
c138 0 211 -43 211 -194v-18c0 -73 -22 -125 -72 -156c51 -31 72 -84 72 -159v-33z" />
    <glyph glyph-name="four.taboldstyle" unicode="&#xe104;" horiz-adv-x="487" 
d="M457 12h-83v-122l42 -5v-71h-169v71l42 5v122h-259v91l248 454h96v-470h83v-75zM290 87v330l-182 -330h182z" />
    <glyph glyph-name="five.taboldstyle" unicode="&#xe105;" horiz-adv-x="487" 
d="M428 11c0 -158 -78 -207 -216 -207c-71 0 -137 17 -154 21v127h64l11 -72c24 -2 49 -3 75 -3c97 0 135 25 135 134v41c0 100 -23 137 -141 137h-131l24 368h314v-134h-65l-10 57h-166l-14 -218h54c176 0 220 -80 220 -210v-41z" />
    <glyph glyph-name="six.taboldstyle" unicode="&#xe106;" horiz-adv-x="487" 
d="M442 212c0 -194 -118 -222 -194 -222c-99 0 -203 26 -203 253v250c0 160 41 260 220 260c66 0 130 -15 152 -22v-122h-64l-10 67c-23 2 -50 3 -74 3c-131 0 -139 -68 -139 -186v-49c32 9 85 17 123 17c109 0 189 -39 189 -186v-63zM357 212v56c0 97 -29 124 -111 124
c-29 0 -76 -5 -116 -16v-136c0 -125 35 -177 118 -177c72 0 109 55 109 149z" />
    <glyph glyph-name="seven.taboldstyle" unicode="&#xe107;" horiz-adv-x="487" 
d="M428 464l-236 -650h-92l250 666h-217l-10 -57h-64v134h369v-93z" />
    <glyph glyph-name="eight.taboldstyle" unicode="&#xe108;" horiz-adv-x="487" 
d="M448 211c0 -206 -104 -221 -203 -221h-3c-99 0 -203 15 -203 221v10c0 89 23 133 70 167c-39 27 -68 68 -68 154v13c0 150 87 198 201 198h3c114 0 201 -48 201 -198v-13c0 -86 -29 -127 -68 -154c47 -34 70 -78 70 -167v-10zM363 211v10c0 91 -21 130 -84 130h-71
c-63 0 -84 -39 -84 -130v-10c0 -127 44 -147 118 -147h3c74 0 118 20 118 147zM362 542v13c0 101 -43 124 -117 124h-3c-74 0 -117 -23 -117 -124v-13c0 -74 20 -119 83 -119h71c63 0 83 45 83 119z" />
    <glyph glyph-name="nine.taboldstyle" unicode="&#xe109;" horiz-adv-x="487" 
d="M442 63c0 -160 -40 -259 -220 -259c-66 0 -130 15 -152 21v124h64l10 -69c23 -1 50 -3 74 -3c131 0 139 69 139 186v50c-32 -10 -84 -17 -123 -17c-108 0 -189 39 -189 185v63c0 194 118 223 195 223c99 0 202 -27 202 -253v-251zM357 180v136c0 126 -34 177 -117 177
c-73 0 -110 -55 -110 -149v-56c0 -97 30 -123 111 -123c30 0 76 4 116 15z" />
    <glyph glyph-name="onequarter" unicode="&#xbc;" horiz-adv-x="756" 
d="M722 111h-55v-59l27 -3v-49h-132v49l27 3v59h-179v65l183 270h74v-276h55v-59zM592 170v174l-116 -174h116zM617 743l-352 -743h-78l352 743h78zM283 300h-244v57l84 3v309l-84 -30v68l104 40h57v-387l83 -3v-57z" />
    <glyph glyph-name="onehalf" unicode="&#xbd;" horiz-adv-x="823" 
d="M778 0h-264v57c0 101 31 137 117 192c67 43 75 58 75 92c0 40 -21 52 -80 52c-14 0 -33 -1 -51 -2l-6 -40h-51v88c16 4 72 14 119 14c100 0 147 -33 147 -110c0 -52 -21 -87 -103 -141c-77 -51 -91 -69 -91 -132v-8h130l6 37h52v-99zM617 743l-352 -743h-78l352 743h78z
M283 300h-244v57l84 3v309l-84 -30v68l104 40h57v-387l83 -3v-57z" />
    <glyph glyph-name="threequarters" unicode="&#xbe;" horiz-adv-x="782" 
d="M745 111h-56v-59l28 -3v-49h-133v49l28 3v59h-180v65l184 270h73v-276h56v-59zM614 170v174l-116 -174h116zM624 743l-351 -743h-78l351 743h78zM302 421c0 -96 -52 -129 -151 -129c-46 0 -98 11 -116 17v89h51l6 -43c16 -1 35 -2 53 -2c54 0 79 10 79 70v14
c0 39 -8 64 -62 64h-108v58h109c53 0 61 25 61 64v8c0 50 -19 63 -80 63c-16 0 -35 -1 -51 -2l-6 -40h-51v88c13 4 68 14 115 14c99 0 151 -29 151 -120v-8c0 -42 -15 -77 -49 -96c35 -19 49 -52 49 -95v-14z" />
    <glyph glyph-name="oneeighth" unicode="&#x215b;" horiz-adv-x="835" 
d="M798 127c0 -127 -77 -136 -149 -136h-3c-72 0 -149 9 -149 136v5c0 50 15 78 44 99c-27 19 -43 46 -43 94v7c0 100 70 121 148 121h3c78 0 148 -21 148 -121v-7c0 -48 -17 -75 -44 -94c30 -21 45 -49 45 -99v-5zM721 127v5c0 51 -11 71 -48 71h-51c-38 0 -49 -20 -49 -71
v-5c0 -67 28 -77 73 -77h3c44 0 72 10 72 77zM721 324v6c0 54 -28 65 -72 65h-3c-44 0 -72 -11 -72 -65v-6c0 -40 10 -65 48 -65h51c37 0 48 25 48 65zM610 743l-352 -743h-78l352 743h78zM283 300h-244v57l84 3v309l-84 -30v68l104 40h57v-387l83 -3v-57z" />
    <glyph glyph-name="threeeighths" unicode="&#x215c;" horiz-adv-x="853" 
d="M815 127c0 -127 -77 -136 -150 -136h-2c-73 0 -150 9 -150 136v5c0 50 15 78 45 99c-27 19 -44 46 -44 94v7c0 100 70 121 149 121h2c79 0 149 -21 149 -121v-7c0 -48 -18 -75 -45 -94c31 -21 46 -49 46 -99v-5zM738 127v5c0 51 -12 71 -49 71h-50c-38 0 -49 -20 -49 -71
v-5c0 -67 27 -77 73 -77h2c45 0 73 10 73 77zM737 324v6c0 54 -28 65 -72 65h-2c-44 0 -73 -11 -73 -65v-6c0 -40 11 -65 49 -65h50c37 0 48 25 48 65zM623 743l-352 -743h-78l352 743h78zM302 421c0 -96 -52 -129 -151 -129c-46 0 -98 11 -116 17v89h51l6 -43
c16 -1 35 -2 53 -2c54 0 79 10 79 70v14c0 39 -8 64 -62 64h-108v58h109c53 0 61 25 61 64v8c0 50 -19 63 -80 63c-16 0 -35 -1 -51 -2l-6 -40h-51v88c13 4 68 14 115 14c99 0 151 -29 151 -120v-8c0 -42 -15 -77 -49 -96c35 -19 49 -52 49 -95v-14z" />
    <glyph glyph-name="fiveeighths" unicode="&#x215d;" horiz-adv-x="851" 
d="M815 127c0 -127 -77 -136 -150 -136h-2c-73 0 -150 9 -150 136v5c0 50 15 78 45 99c-27 19 -44 46 -44 94v7c0 100 70 121 149 121h2c79 0 148 -21 148 -121v-7c0 -48 -17 -75 -44 -94c30 -21 46 -49 46 -99v-5zM738 127v5c0 51 -12 71 -49 71h-51c-37 0 -49 -20 -49 -71
v-5c0 -67 28 -77 74 -77h2c45 0 73 10 73 77zM737 324v6c0 54 -28 65 -72 65h-2c-45 0 -73 -11 -73 -65v-6c0 -40 11 -65 48 -65h51c37 0 48 25 48 65zM621 743l-351 -743h-78l351 743h78zM306 426c0 -100 -58 -135 -153 -135c-54 0 -102 11 -117 15v91h51l6 -43
c16 -1 33 -2 50 -2c63 0 85 16 85 74v17c0 52 -16 70 -86 70h-101l18 233h234v-95h-51l-5 33h-114l-8 -112h39c116 0 152 -43 152 -129v-17z" />
    <glyph glyph-name="seveneighths" unicode="&#x215e;" horiz-adv-x="776" 
d="M738 127c0 -127 -77 -136 -150 -136h-2c-73 0 -150 9 -150 136v5c0 50 16 78 45 99c-27 19 -43 46 -43 94v7c0 100 69 121 148 121h2c79 0 149 -21 149 -121v-7c0 -48 -17 -75 -44 -94c30 -21 45 -49 45 -99v-5zM661 127v5c0 51 -11 71 -48 71h-51c-38 0 -49 -20 -49 -71
v-5c0 -67 28 -77 73 -77h2c45 0 73 10 73 77zM660 324v6c0 54 -27 65 -72 65h-2c-44 0 -73 -11 -73 -65v-6c0 -40 11 -65 49 -65h51c37 0 47 25 47 65zM546 743l-352 -743h-78l352 743h78zM304 675l-166 -375h-83l175 384h-139l-5 -33h-51v95h269v-71z" />
    <glyph glyph-name="onethird" unicode="&#x2153;" horiz-adv-x="826" 
d="M789 120c0 -96 -52 -129 -150 -129c-47 0 -99 11 -117 17v89h52l6 -43c16 -1 34 -2 52 -2c54 0 80 11 80 70v15c0 39 -9 64 -62 64h-109v57h109c53 0 62 26 62 64v8c0 51 -20 63 -81 63c-16 0 -35 -1 -51 -2l-6 -40h-51v88c14 4 68 14 116 14c98 0 150 -29 150 -120v-8
c0 -42 -15 -76 -49 -96c35 -19 49 -52 49 -95v-14zM610 743l-352 -743h-78l352 743h78zM283 300h-244v57l84 3v309l-84 -30v68l104 40h57v-387l83 -3v-57z" />
    <glyph glyph-name="twothirds" unicode="&#x2154;" horiz-adv-x="860" 
d="M823 120c0 -96 -52 -129 -151 -129c-46 0 -98 11 -116 17v89h51l6 -43c16 -1 35 -2 53 -2c54 0 79 11 79 70v15c0 39 -8 64 -62 64h-108v57h109c53 0 61 26 61 64v8c0 51 -19 63 -80 63c-16 0 -35 -1 -51 -2l-6 -40h-51v88c13 4 68 14 115 14c99 0 151 -29 151 -120v-8
c0 -42 -15 -76 -49 -96c35 -19 49 -52 49 -95v-14zM636 743l-351 -743h-78l351 743h78zM300 301h-263v57c0 100 31 136 117 191c67 43 75 59 75 92c0 40 -21 53 -81 53c-13 0 -33 -1 -50 -2l-6 -40h-52v88c16 4 73 14 119 14c100 0 147 -33 147 -110
c0 -53 -21 -87 -102 -141c-78 -52 -92 -70 -92 -132v-8h131l6 37h51v-99z" />
    <glyph glyph-name="zero.numerator" unicode="&#xe11e;" horiz-adv-x="356" 
d="M327 480c0 -110 -34 -189 -149 -189c-116 0 -150 81 -150 189v84c0 109 34 189 150 189c115 0 149 -77 149 -189v-84zM250 480v84c0 95 -22 126 -72 126c-52 0 -72 -33 -72 -126v-84c0 -94 20 -124 72 -124c50 0 72 30 72 124z" />
    <glyph glyph-name="one.numerator" unicode="&#xe11f;" horiz-adv-x="338" 
d="M294 300h-244v57l83 3v309l-83 -30v68l103 40h57v-387l84 -3v-57z" />
    <glyph glyph-name="two.numerator" unicode="&#xe120;" horiz-adv-x="352" 
d="M304 301h-264v57c0 100 32 136 117 191c67 43 75 59 75 92c0 40 -21 53 -80 53c-14 0 -33 -1 -51 -2l-6 -40h-51v88c16 4 72 14 119 14c100 0 147 -33 147 -110c0 -53 -22 -87 -103 -141c-78 -52 -91 -70 -91 -132v-8h130l6 37h52v-99z" />
    <glyph glyph-name="three.numerator" unicode="&#xe121;" horiz-adv-x="352" 
d="M308 421c0 -96 -52 -129 -151 -129c-46 0 -98 11 -116 17v89h51l6 -43c16 -1 35 -2 53 -2c54 0 79 10 79 70v14c0 39 -8 64 -62 64h-108v58h109c53 0 61 25 61 64v8c0 50 -19 63 -80 63c-16 0 -35 -1 -51 -2l-6 -40h-51v88c13 4 68 14 115 14c99 0 151 -29 151 -120v-8
c0 -42 -15 -77 -49 -96c35 -19 49 -52 49 -95v-14z" />
    <glyph glyph-name="four.numerator" unicode="&#xe122;" horiz-adv-x="356" 
d="M333 411h-56v-59l28 -3v-49h-133v49l28 3v59h-180v65l184 270h73v-276h56v-59zM202 470v174l-116 -174h116z" />
    <glyph glyph-name="five.numerator" unicode="&#xe123;" horiz-adv-x="350" 
d="M310 426c0 -100 -59 -135 -154 -135c-53 0 -102 12 -116 15v91h50l6 -43c16 -1 33 -2 51 -2c62 0 85 16 85 74v17c0 52 -16 70 -87 70h-100l18 233h233v-95h-51l-5 33h-113l-8 -112h39c116 0 152 -43 152 -129v-17z" />
    <glyph glyph-name="six.numerator" unicode="&#xe124;" horiz-adv-x="352" 
d="M322 432c0 -115 -80 -141 -145 -141c-86 0 -149 30 -149 168v127c0 108 33 167 157 167c49 0 100 -9 118 -14v-88h-51l-6 40c-16 1 -36 2 -54 2c-80 0 -87 -36 -87 -102v-21c21 6 55 10 79 10c77 0 138 -22 138 -120v-28zM244 432v25c0 57 -21 69 -68 69
c-17 0 -46 -2 -71 -8v-65c0 -79 25 -103 73 -103c40 0 66 27 66 82z" />
    <glyph glyph-name="seven.numerator" unicode="&#xe125;" horiz-adv-x="353" 
d="M311 675l-166 -375h-83l175 384h-139l-5 -33h-51v95h269v-71z" />
    <glyph glyph-name="eight.numerator" unicode="&#xe126;" horiz-adv-x="356" 
d="M327 427c0 -127 -77 -136 -150 -136h-2c-73 0 -150 9 -150 136v5c0 50 16 78 45 99c-27 19 -43 46 -43 94v7c0 100 69 121 148 121h2c79 0 149 -21 149 -121v-7c0 -48 -17 -75 -44 -94c30 -21 45 -49 45 -99v-5zM250 427v5c0 51 -11 71 -48 71h-51c-38 0 -49 -20 -49 -71
v-5c0 -67 28 -77 73 -77h2c45 0 73 10 73 77zM249 624v6c0 54 -27 65 -72 65h-2c-44 0 -73 -11 -73 -65v-6c0 -40 11 -65 49 -65h51c37 0 47 25 47 65z" />
    <glyph glyph-name="nine.numerator" unicode="&#xe127;" horiz-adv-x="352" 
d="M322 460c0 -108 -33 -168 -157 -168c-49 0 -101 10 -119 14v89h52l6 -41c16 -1 36 -2 54 -2c80 0 87 37 87 102v22c-21 -6 -55 -10 -79 -10c-77 0 -138 21 -138 119v28c0 116 80 140 145 140c86 0 149 -28 149 -167v-126zM245 528v65c0 78 -24 102 -73 102
c-40 0 -66 -25 -66 -82v-25c0 -56 21 -69 67 -69c18 0 47 3 72 9z" />
    <glyph glyph-name="fraction" unicode="&#x2044;" horiz-adv-x="380" 
d="M405 743l-352 -743h-78l352 743h78z" />
    <glyph glyph-name="uni2215" unicode="&#x2215;" horiz-adv-x="380" 
d="M405 743l-352 -743h-78l352 743h78z" />
    <glyph glyph-name="zero.denominator" unicode="&#xe10a;" horiz-adv-x="362" 
d="M331 180c0 -117 -43 -189 -150 -189s-150 72 -150 189v85c0 118 43 188 150 188s150 -70 150 -188v-85zM253 180v85c0 97 -27 124 -72 124c-46 0 -72 -27 -72 -124v-85c0 -97 26 -124 72 -124c45 0 72 27 72 124z" />
    <glyph glyph-name="one.denominator" unicode="&#xe10b;" horiz-adv-x="332" 
d="M288 0h-244v57l84 3v309l-84 -30v68l104 40h57v-387l83 -3v-57z" />
    <glyph glyph-name="two.denominator" unicode="&#xe10c;" horiz-adv-x="348" 
d="M303 0h-263v57c0 101 31 137 117 192c67 43 75 58 75 92c0 40 -21 52 -81 52c-13 0 -33 -1 -50 -2l-6 -40h-52v88c16 4 73 14 119 14c100 0 147 -33 147 -110c0 -52 -21 -88 -102 -141c-78 -51 -92 -70 -92 -132v-8h131l6 37h51v-99z" />
    <glyph glyph-name="three.denominator" unicode="&#xe10d;" horiz-adv-x="346" 
d="M306 120c0 -96 -52 -129 -150 -129c-47 0 -98 11 -116 17v89h51l6 -43c16 -1 34 -2 53 -2c53 0 79 11 79 70v15c0 39 -8 64 -62 64h-108v57h108c54 0 62 26 62 64v8c0 51 -19 63 -80 63c-17 0 -35 -1 -51 -2l-6 -40h-51v88c13 4 67 14 115 14c99 0 150 -29 150 -120v-8
c0 -42 -15 -76 -49 -96c36 -19 49 -52 49 -95v-14z" />
    <glyph glyph-name="four.denominator" unicode="&#xe10e;" horiz-adv-x="357" 
d="M335 111h-56v-59l28 -3v-49h-133v49l28 3v59h-180v65l183 270h74v-276h56v-59zM204 170v174l-116 -174h116z" />
    <glyph glyph-name="five.denominator" unicode="&#xe10f;" horiz-adv-x="348" 
d="M310 126c0 -100 -59 -135 -154 -135c-53 0 -102 12 -116 15v91h50l6 -43c16 -1 33 -2 51 -2c62 0 85 16 85 74v17c0 52 -16 70 -87 70h-100l18 233h233v-95h-51l-5 33h-113l-8 -112h39c116 0 152 -43 152 -129v-17z" />
    <glyph glyph-name="six.denominator" unicode="&#xe110;" horiz-adv-x="358" 
d="M325 132c0 -115 -79 -141 -144 -141c-86 0 -149 30 -149 168v127c0 108 33 167 157 167c49 0 100 -9 118 -14v-88h-51l-6 40c-17 1 -36 2 -54 2c-81 0 -87 -36 -87 -102v-21c21 6 54 10 79 10c77 0 137 -22 137 -120v-28zM248 132v25c0 57 -21 69 -68 69
c-17 0 -46 -2 -71 -8v-65c0 -79 24 -103 72 -103c41 0 67 27 67 82z" />
    <glyph glyph-name="seven.denominator" unicode="&#xe111;" horiz-adv-x="345" 
d="M309 375l-165 -375h-83l174 384h-138l-5 -33h-52v95h269v-71z" />
    <glyph glyph-name="eight.denominator" unicode="&#xe112;" horiz-adv-x="363" 
d="M332 127c0 -127 -77 -136 -149 -136h-3c-72 0 -149 9 -149 136v5c0 50 15 78 44 99c-27 19 -43 46 -43 94v7c0 100 70 121 148 121h3c78 0 148 -21 148 -121v-7c0 -48 -17 -75 -44 -94c30 -21 45 -49 45 -99v-5zM255 127v5c0 51 -11 71 -48 71h-51c-38 0 -49 -20 -49 -71
v-5c0 -67 28 -77 73 -77h3c44 0 72 10 72 77zM255 324v6c0 54 -28 65 -72 65h-3c-44 0 -72 -11 -72 -65v-6c0 -40 10 -65 48 -65h51c37 0 48 25 48 65z" />
    <glyph glyph-name="nine.denominator" unicode="&#xe113;" horiz-adv-x="358" 
d="M325 160c0 -108 -32 -168 -156 -168c-49 0 -101 10 -119 14v89h51l6 -41c17 -1 37 -2 55 -2c80 0 87 37 87 102v22c-21 -6 -56 -10 -79 -10c-77 0 -138 21 -138 119v28c0 116 80 140 145 140c86 0 148 -28 148 -167v-126zM249 228v65c0 78 -25 102 -73 102
c-40 0 -67 -25 -67 -82v-25c0 -56 22 -69 68 -69c18 0 46 3 72 9z" />
    <glyph glyph-name="zero.superior" unicode="&#x2070;" horiz-adv-x="356" 
d="M327 480c0 -110 -34 -189 -149 -189c-116 0 -150 81 -150 189v84c0 109 34 189 150 189c115 0 149 -77 149 -189v-84zM250 480v84c0 95 -22 126 -72 126c-52 0 -72 -33 -72 -126v-84c0 -94 20 -124 72 -124c50 0 72 30 72 124z" />
    <glyph glyph-name="four.superior" unicode="&#x2074;" horiz-adv-x="356" 
d="M333 411h-56v-59l28 -3v-49h-133v49l28 3v59h-180v65l184 270h73v-276h56v-59zM202 470v174l-116 -174h116z" />
    <glyph glyph-name="five.superior" unicode="&#x2075;" horiz-adv-x="350" 
d="M310 426c0 -100 -59 -135 -154 -135c-53 0 -102 12 -116 15v91h50l6 -43c16 -1 33 -2 51 -2c62 0 85 16 85 74v17c0 52 -16 70 -87 70h-100l18 233h233v-95h-51l-5 33h-113l-8 -112h39c116 0 152 -43 152 -129v-17z" />
    <glyph glyph-name="six.superior" unicode="&#x2076;" horiz-adv-x="352" 
d="M322 432c0 -115 -80 -141 -145 -141c-86 0 -149 30 -149 168v127c0 108 33 167 157 167c49 0 100 -9 118 -14v-88h-51l-6 40c-16 1 -36 2 -54 2c-80 0 -87 -36 -87 -102v-21c21 6 55 10 79 10c77 0 138 -22 138 -120v-28zM244 432v25c0 57 -21 69 -68 69
c-17 0 -46 -2 -71 -8v-65c0 -79 25 -103 73 -103c40 0 66 27 66 82z" />
    <glyph glyph-name="seven.superior" unicode="&#x2077;" horiz-adv-x="353" 
d="M311 675l-166 -375h-83l175 384h-139l-5 -33h-51v95h269v-71z" />
    <glyph glyph-name="eight.superior" unicode="&#x2078;" horiz-adv-x="356" 
d="M327 427c0 -127 -77 -136 -150 -136h-2c-73 0 -150 9 -150 136v5c0 50 16 78 45 99c-27 19 -43 46 -43 94v7c0 100 69 121 148 121h2c79 0 149 -21 149 -121v-7c0 -48 -17 -75 -44 -94c30 -21 45 -49 45 -99v-5zM250 427v5c0 51 -11 71 -48 71h-51c-38 0 -49 -20 -49 -71
v-5c0 -67 28 -77 73 -77h2c45 0 73 10 73 77zM249 624v6c0 54 -27 65 -72 65h-2c-44 0 -73 -11 -73 -65v-6c0 -40 11 -65 49 -65h51c37 0 47 25 47 65z" />
    <glyph glyph-name="nine.superior" unicode="&#x2079;" horiz-adv-x="352" 
d="M322 460c0 -108 -33 -168 -157 -168c-49 0 -101 10 -119 14v89h52l6 -41c16 -1 36 -2 54 -2c80 0 87 37 87 102v22c-21 -6 -55 -10 -79 -10c-77 0 -138 21 -138 119v28c0 116 80 140 145 140c86 0 149 -28 149 -167v-126zM245 528v65c0 78 -24 102 -73 102
c-40 0 -66 -25 -66 -82v-25c0 -56 21 -69 67 -69c18 0 47 3 72 9z" />
    <glyph glyph-name="zero.inferior" unicode="&#x2080;" horiz-adv-x="356" 
d="M326 180c0 -117 -43 -189 -150 -189s-150 72 -150 189v85c0 118 43 188 150 188s150 -70 150 -188v-85zM248 180v85c0 97 -27 124 -72 124c-46 0 -72 -27 -72 -124v-85c0 -97 26 -124 72 -124c45 0 72 27 72 124z" />
    <glyph glyph-name="one.inferior" unicode="&#x2081;" horiz-adv-x="338" 
d="M294 0h-244v57l83 3v309l-83 -30v68l103 40h57v-387l84 -3v-57z" />
    <glyph glyph-name="two.inferior" unicode="&#x2082;" horiz-adv-x="352" 
d="M304 0h-264v57c0 101 36 139 117 192c67 44 75 58 75 92c0 40 -21 52 -80 52c-14 0 -33 -1 -51 -2l-6 -40h-51v88c16 4 72 14 119 14c100 0 147 -33 147 -110c0 -52 -21 -87 -103 -141c-77 -51 -91 -70 -91 -132v-8h130l6 37h52v-99z" />
    <glyph glyph-name="three.inferior" unicode="&#x2083;" horiz-adv-x="352" 
d="M308 120c0 -96 -52 -129 -151 -129c-46 0 -98 11 -116 17v89h51l6 -43c16 -1 35 -2 53 -2c54 0 79 11 79 70v15c0 39 -8 64 -62 64h-108v57h109c53 0 61 26 61 64v8c0 51 -19 63 -80 63c-16 0 -35 -1 -51 -2l-6 -40h-51v88c13 4 68 14 115 14c99 0 151 -29 151 -120v-8
c0 -42 -15 -76 -49 -96c35 -19 49 -52 49 -95v-14z" />
    <glyph glyph-name="four.inferior" unicode="&#x2084;" horiz-adv-x="356" 
d="M333 111h-56v-59l28 -3v-49h-133v49l28 3v59h-180v65l184 270h73v-276h56v-59zM202 170v174l-116 -174h116z" />
    <glyph glyph-name="five.inferior" unicode="&#x2085;" horiz-adv-x="350" 
d="M310 126c0 -100 -59 -135 -154 -135c-53 0 -102 12 -116 15v91h50l6 -43c16 -1 33 -2 51 -2c62 0 85 16 85 74v17c0 52 -16 70 -87 70h-100l18 233h233v-95h-51l-5 33h-113l-8 -112h39c116 0 152 -43 152 -129v-17z" />
    <glyph glyph-name="six.inferior" unicode="&#x2086;" horiz-adv-x="352" 
d="M322 132c0 -115 -80 -141 -145 -141c-86 0 -149 30 -149 168v127c0 108 33 167 157 167c49 0 100 -9 118 -14v-88h-51l-6 40c-16 1 -36 2 -54 2c-80 0 -87 -36 -87 -102v-21c21 6 55 10 79 10c77 0 138 -22 138 -120v-28zM244 132v25c0 57 -21 69 -68 69
c-17 0 -46 -2 -71 -8v-65c0 -79 25 -103 73 -103c40 0 66 27 66 82z" />
    <glyph glyph-name="seven.inferior" unicode="&#x2087;" horiz-adv-x="353" 
d="M311 375l-166 -375h-83l175 384h-139l-5 -33h-51v95h269v-71z" />
    <glyph glyph-name="eight.inferior" unicode="&#x2088;" horiz-adv-x="356" 
d="M327 127c0 -127 -77 -136 -150 -136h-2c-73 0 -150 9 -150 136v5c0 50 16 78 45 99c-27 19 -43 46 -43 94v7c0 100 69 121 148 121h2c79 0 149 -21 149 -121v-7c0 -48 -17 -75 -44 -94c30 -21 45 -49 45 -99v-5zM250 127v5c0 51 -11 71 -48 71h-51c-38 0 -49 -20 -49 -71
v-5c0 -67 28 -77 73 -77h2c45 0 73 10 73 77zM249 324v6c0 54 -27 65 -72 65h-2c-44 0 -73 -11 -73 -65v-6c0 -40 11 -65 49 -65h51c37 0 47 25 47 65z" />
    <glyph glyph-name="nine.inferior" unicode="&#x2089;" horiz-adv-x="352" 
d="M322 160c0 -108 -33 -168 -157 -168c-49 0 -101 10 -119 14v89h52l6 -41c16 -1 36 -2 54 -2c80 0 87 37 87 102v22c-21 -6 -55 -10 -79 -10c-77 0 -138 21 -138 119v28c0 116 80 140 145 140c86 0 149 -28 149 -167v-126zM245 228v65c0 78 -24 102 -73 102
c-40 0 -66 -25 -66 -82v-25c0 -56 21 -69 67 -69c18 0 47 3 72 9z" />
    <glyph glyph-name="Euro" unicode="&#x20ac;" horiz-adv-x="496" 
d="M455 8c-24 -7 -83 -18 -135 -18c-100 0 -210 26 -225 268h-59v67h55c-1 31 -1 63 0 95h-55v67h58c14 240 124 266 226 266c52 0 111 -11 136 -19v-120h-65l-11 59c-17 1 -35 2 -52 2c-77 0 -134 -11 -146 -188h243l-13 -67h-235c-1 -31 -1 -64 1 -95h211l-13 -67h-193
c13 -180 70 -191 145 -191c31 0 84 6 127 11v-70z" />
    <glyph glyph-name="sterling" unicode="&#xa3;" horiz-adv-x="461" 
d="M423 0h-359v69c31 34 36 95 36 126v158h-62v69h62v90c0 164 31 241 178 241c71 0 125 -15 145 -21v-123h-64l-12 64c-17 2 -39 2 -59 2c-93 0 -103 -34 -103 -163v-90h184v-69h-184v-158c0 -33 -6 -79 -32 -121h270v-74z" />
    <glyph glyph-name="yen" unicode="&#xa5;" horiz-adv-x="485" 
d="M458 254h-174v-177l42 -5v-72h-168v72l42 5v177h-174v67h166l-37 94h-128v66h101l-70 186l-37 5v71h99l86 -239c12 -33 28 -77 36 -110h2c8 33 23 77 35 110l87 239h98v-71l-38 -5l-70 -186h102v-66h-129l-38 -94h167v-67z" />
    <glyph glyph-name="florin" unicode="&#x192;" horiz-adv-x="453" 
d="M426 741l-6 -60c-23 3 -37 4 -55 4c-41 0 -56 -11 -64 -81l-19 -177h128l-8 -71h-129l-36 -349c-12 -114 -62 -146 -129 -146c-34 0 -58 5 -80 12l5 58c20 -2 38 -3 58 -3c37 0 55 7 63 82l37 346h-116l8 71h116l18 180c11 113 60 146 132 146c30 0 55 -6 77 -12z" />
    <glyph glyph-name="cent" unicode="&#xa2;" horiz-adv-x="373" 
d="M332 9c-16 -6 -49 -14 -89 -17v-110h-77v113c-95 18 -129 98 -129 222v117c0 123 34 203 129 221v111h78v-107c39 -3 72 -11 88 -18v-108h-63l-9 53h-37c-69 0 -103 -25 -103 -152v-117c0 -128 34 -153 103 -153c25 0 60 3 109 9v-64z" />
    <glyph glyph-name="peseta" unicode="&#x20a7;" horiz-adv-x="497" 
d="M493 485h-44c-11 -155 -106 -192 -237 -192h-59v-217l49 -5v-71h-176v71l42 5v409h-48v75h48v107l-42 5v71h186c129 0 223 -33 236 -183h45v-75zM365 512v17c-1 115 -48 137 -153 137h-59v-295h59c106 0 153 26 153 141z" />
    <glyph glyph-name="peseta.taboldstyle" unicode="&#xe439;" horiz-adv-x="442" 
d="M180 0h-145v61l31 5v288h-45v69h45v67l-31 5v63c54 3 109 4 158 4c100 0 169 -28 180 -139h47v-69h-47c-12 -108 -81 -141 -181 -141c-15 0 -34 1 -47 2v-149l35 -5v-61zM295 384v13c0 78 -35 94 -103 94c-13 0 -37 -1 -47 -2v-204c10 0 33 -1 45 -1c69 0 105 24 105 100
z" />
    <glyph glyph-name="franc" unicode="&#x20a3;" horiz-adv-x="434" 
d="M389 346h-241v-103h147v-80h-147v-163h-85v163h-42v80h42v424l-42 5v71h383v-134h-65l-10 57h-181v-240h241v-80z" />
    <glyph glyph-name="franc.taboldstyle" unicode="&#xe431;" horiz-adv-x="438" 
d="M366 249h-180v-73h98v-68h-98v-108h-85v108h-39v68h39v302l-30 6v74h304v-121h-61l-8 40h-120v-151h180v-77z" />
    <glyph glyph-name="rupiah" unicode="&#xf6dd;" horiz-adv-x="936" 
d="M199 0h-169v71l42 5v591l-42 5v71h181c139 0 243 -40 243 -214v-10c0 -113 -38 -172 -107 -205l105 -239l48 -4v-71h-111l-129 294c-13 -1 -30 -1 -44 -1h-59v-217l42 -5v-71zM368 519v10c0 114 -48 137 -157 137h-54v-296h58c112 0 153 37 153 149zM681 -206h-167v71
l42 4v605l-42 5v71h122v-31c34 27 78 41 119 41c103 0 147 -68 147 -207v-137c0 -174 -74 -226 -182 -226c-25 0 -57 4 -81 10v-131l42 -4v-71zM819 216v137c0 97 -22 132 -82 132c-30 0 -57 -8 -98 -31v-381c29 -6 57 -9 81 -9c62 0 99 24 99 152z" />
    <glyph glyph-name="currency" unicode="&#xa4;" horiz-adv-x="518" 
d="M471 226l-57 -56l-64 62c-27 -16 -62 -26 -90 -26c-32 0 -64 7 -93 26l-63 -62l-57 56l63 63c-16 27 -25 62 -25 92c0 32 7 63 25 91l-63 62l57 56l63 -61c28 17 62 26 93 26c32 0 63 -7 92 -26l62 61l57 -56l-63 -62c17 -29 27 -61 27 -91c0 -32 -9 -64 -26 -92z
M366 381c0 59 -50 109 -106 109c-58 0 -107 -50 -107 -109c0 -60 50 -110 107 -110c56 0 106 50 106 110z" />
    <glyph glyph-name="quotesingle" unicode="'" horiz-adv-x="151" 
d="M121 760l-28 -231h-63l6 231h85z" />
    <glyph glyph-name="degree" unicode="&#xb0;" horiz-adv-x="379" 
d="M348 594c0 -87 -71 -157 -159 -157c-87 0 -157 70 -157 157c0 88 70 158 157 158c88 0 159 -70 159 -158zM280 594c0 53 -41 93 -91 93c-49 0 -90 -40 -90 -93s41 -92 90 -92c50 0 91 39 91 92z" />
    <glyph glyph-name="perthousand" unicode="&#x2030;" horiz-adv-x="1199" 
d="M1160 182c0 -117 -40 -191 -145 -191s-145 74 -145 191v82c0 117 40 189 145 189s145 -72 145 -189v-82zM1085 182v82c0 96 -25 123 -70 123c-44 0 -70 -27 -70 -123v-82c0 -96 26 -124 70 -124c45 0 70 28 70 124zM817 182c0 -117 -40 -191 -144 -191
c-106 0 -146 74 -146 191v82c0 117 40 189 146 189c104 0 144 -72 144 -189v-82zM743 182v82c0 96 -26 123 -71 123c-44 0 -69 -27 -69 -123v-82c0 -96 25 -124 69 -124c45 0 71 28 71 124zM642 743l-352 -743h-78l352 743h78zM328 480c0 -110 -31 -190 -144 -190
c-114 0 -145 83 -145 190v82c0 108 31 190 145 190c113 0 144 -79 144 -190v-82zM254 480v82c0 94 -20 124 -70 124s-70 -33 -70 -124v-82c0 -93 20 -124 70 -124s70 31 70 124z" />
    <glyph glyph-name="litre" unicode="&#x2113;" horiz-adv-x="420" 
d="M385 42c-43 -40 -88 -60 -130 -60c-88 0 -125 54 -125 149v108c-19 -18 -38 -36 -58 -55l-37 46c35 34 65 64 95 93v275c0 120 36 177 126 177c88 0 119 -61 119 -128c0 -118 -66 -218 -162 -324v-179c0 -69 13 -92 57 -92c24 0 51 14 76 36zM311 647c0 40 -13 64 -46 64
c-48 0 -52 -37 -52 -113v-184c64 79 98 148 98 233z" />
    <glyph glyph-name="estimated" unicode="&#x212e;" horiz-adv-x="618" 
d="M583 282h-429v-193c42 -40 92 -63 152 -63c112 0 165 59 210 127l31 -19c-52 -81 -116 -141 -241 -141c-163 0 -271 133 -271 290c0 159 104 290 275 290c170 0 273 -134 273 -291zM463 315v163c-36 33 -95 62 -153 62c-60 0 -116 -21 -156 -62v-163h309z" />
    <glyph glyph-name="multiply" unicode="&#xd7;" horiz-adv-x="513" 
d="M425 269l-48 -47l-120 120l-121 -122l-48 49l121 121l-122 122l48 48l122 -121l121 120l48 -48l-121 -121z" />
    <glyph glyph-name="divide" unicode="&#xf7;" horiz-adv-x="513" 
d="M300 131h-85v127h85v-127zM441 356v70h-369v-70h369zM300 519h-85v128h85v-128z" />
    <glyph glyph-name="minus" unicode="&#x2212;" horiz-adv-x="513" 
d="M441 356h-369v70h369v-70z" />
    <glyph glyph-name="plusminus" unicode="&#xb1;" horiz-adv-x="513" 
d="M455 0h-398v70h398v-70zM461 372h-169v-171h-69v171h-172v68h172v171h69v-171h169v-68z" />
    <glyph glyph-name="notequal" unicode="&#x2260;" horiz-adv-x="513" 
d="M437 245h-185l-71 -245h-71l71 245h-98v71h120l43 151h-163v71h185l60 205h71l-61 -205h99v-71h-120l-43 -151h163v-71z" />
    <glyph glyph-name="lessequal" unicode="&#x2264;" horiz-adv-x="513" 
d="M455 0h-398v70h398v-70zM392 140h-102l-218 251l218 250h102l-218 -250z" />
    <glyph glyph-name="greaterequal" unicode="&#x2265;" horiz-adv-x="513" 
d="M455 0h-398v70h398v-70zM440 391l-218 -251h-101l217 251l-217 250h101z" />
    <glyph glyph-name="approxequal" unicode="&#x2248;" horiz-adv-x="513" 
d="M450 546c0 -67 -18 -119 -94 -119c-44 0 -76 17 -102 49l-36 44c-18 23 -29 32 -46 32c-29 0 -34 -18 -34 -53v-68h-68v68c0 68 23 119 102 119c39 0 67 -18 94 -50l35 -43c17 -21 30 -32 51 -32c27 0 30 19 30 52v68h68v-67zM450 275c0 -67 -18 -119 -94 -119
c-44 0 -76 17 -102 49l-36 44c-18 23 -29 32 -46 32c-29 0 -34 -18 -34 -53v-68h-68v68c0 68 23 119 102 119c39 0 67 -18 94 -50l35 -43c17 -21 30 -32 51 -32c27 0 30 19 30 52v68h68v-67z" />
    <glyph glyph-name="logicalnot" unicode="&#xac;" horiz-adv-x="513" 
d="M430 245h-72v222h-275v71h347v-293z" />
    <glyph glyph-name="brokenbar" unicode="&#xa6;" horiz-adv-x="216" 
d="M149 345h-82v397h82v-397zM149 -206h-82v397h82v-397z" />
    <glyph glyph-name="infinity" unicode="&#x221e;" horiz-adv-x="641" 
d="M553 361c0 -71 -7 -217 -136 -217h-6c-40 0 -74 18 -99 48c-19 -30 -47 -49 -89 -49h-7c-129 0 -136 146 -136 217v24c0 71 7 217 136 217h7c39 0 73 -19 97 -48c19 33 47 50 91 50h6c129 0 136 -147 136 -218v-24zM480 361v24c0 68 -4 145 -63 145h-6
c-46 -2 -51 -59 -60 -159c-4 -43 -9 -89 -15 -117c24 -28 52 -39 75 -39h6c58 0 63 78 63 146zM298 489c-24 30 -52 41 -75 41h-7c-58 0 -63 -78 -63 -146v-24c0 -68 5 -145 63 -145h7c39 0 49 49 60 164c3 42 8 79 15 110z" />
    <glyph glyph-name="partialdiff" unicode="&#x2202;" horiz-adv-x="477" 
d="M435 508c0 -69 -11 -175 -23 -252c-29 -189 -85 -266 -215 -266c-95 0 -155 49 -155 162c0 35 6 82 11 119c17 137 79 219 201 219c47 0 79 -16 99 -31c1 12 1 32 1 51c0 100 -24 199 -154 199c-25 0 -54 -3 -81 -8v67c26 6 60 9 89 9c164 0 227 -111 227 -269zM337 328
c0 60 -26 87 -83 87c-75 0 -109 -61 -119 -156c-4 -34 -12 -75 -12 -107c0 -62 26 -87 83 -87c75 0 105 51 125 192c5 33 6 61 6 71z" />
    <glyph glyph-name="mu" unicode="&#xb5;" horiz-adv-x="488" 
d="M196 -206h-166v71l42 4v605l-42 5v71h124v-376c0 -86 9 -112 64 -112c29 0 67 13 116 40v372l-42 5v71h125v-474l42 -5v-71h-125v37c-46 -27 -90 -47 -137 -47c-18 0 -32 2 -43 7v-128l42 -4v-71z" />
    <glyph glyph-name="Delta" unicode="&#x2206;" horiz-adv-x="507" 
d="M489 0h-472l176 743h120zM382 79l-104 454c-12 53 -17 98 -24 141h-2c-7 -43 -11 -88 -23 -141l-104 -454h257z" />
    <glyph glyph-name="Omega" unicode="&#x2126;" horiz-adv-x="514" 
d="M476 350c0 -107 -30 -204 -117 -250v-29h116v-71h-189v142c72 23 105 98 105 208v117c0 148 -47 208 -134 208s-134 -60 -134 -208v-117c0 -110 33 -185 104 -208v-142h-189v71h116v29c-86 46 -117 143 -117 250v117c0 169 63 286 220 286c156 0 219 -117 219 -286v-117z
" />
    <glyph glyph-name="summation" unicode="&#x2211;" horiz-adv-x="443" 
d="M393 -43h-342v80l168 307l-168 320v79h342v-79h-246l155 -296v-52l-155 -279h246v-80z" />
    <glyph glyph-name="product" unicode="&#x220f;" horiz-adv-x="584" 
d="M553 663h-71v-706h-84v706h-212v-706h-85v706h-71v80h523v-80z" />
    <glyph glyph-name="integral" unicode="&#x222b;" horiz-adv-x="388" 
d="M349 693c-10 1 -43 3 -66 3c-43 0 -47 -13 -47 -77v-679c0 -90 -18 -146 -114 -146c-35 0 -69 8 -83 14v57c10 -1 43 -3 66 -3c43 0 48 13 48 78v679c0 89 18 145 114 145c34 0 68 -8 82 -14v-57z" />
    <glyph glyph-name="radical" unicode="&#x221a;" horiz-adv-x="686" 
d="M654 873l-264 -947h-109l-133 482h-115v71h173l130 -489l238 883h80z" />
    <glyph glyph-name="lozenge" unicode="&#x25ca;" horiz-adv-x="513" 
d="M470 358l-214 -295l-213 294l215 301zM383 358l-125 175l-127 -176l125 -172z" />
    <glyph glyph-name="uni00A0" unicode="&#xa0;" horiz-adv-x="161" 
 />
    <glyph glyph-name="Acute.sc" unicode="&#xe092;" horiz-adv-x="336" 
d="M295 760l-111 -153h-79l95 153h95z" />
    <glyph glyph-name="Breve.sc" unicode="&#xe082;" horiz-adv-x="336" 
d="M299 760c-4 -85 -24 -155 -131 -155s-128 70 -131 155h63c3 -77 19 -98 68 -98s64 21 68 98h63z" />
    <glyph glyph-name="Caron.sc" unicode="&#xe083;" horiz-adv-x="336" 
d="M325 760l-101 -153h-112l-101 153h77l80 -106l80 106h77z" />
    <glyph glyph-name="Cedilla.sc" unicode="&#xe093;" horiz-adv-x="336" 
d="M229 -62l-105 -144h-77l86 144h96z" />
    <glyph glyph-name="Circumflex.sc" unicode="&#xe084;" horiz-adv-x="336" 
d="M325 607h-77l-80 106l-80 -106h-77l101 153h112z" />
    <glyph glyph-name="commaaccent.sc" unicode="&#xe469;" horiz-adv-x="336" 
d="M225 -62l-75 -144h-74l52 144h97z" />
    <glyph glyph-name="Dieresis.sc" unicode="&#xe090;" horiz-adv-x="336" 
d="M298 635h-80v112h80v-112zM119 635v112h-80v-112h80z" />
    <glyph glyph-name="DieresisAcute.sc" unicode="&#xe467;" 
d="M364 778h-80v112h80v-112zM159 911h95l-99 -162h-79zM44 778h-80v112h80v-112z" />
    <glyph glyph-name="DieresisGrave.sc" unicode="&#xe468;" 
d="M364 778h-80v112h80v-112zM169 911l84 -162h-80l-99 162h95zM44 778h-80v112h80v-112z" />
    <glyph glyph-name="Dotaccent.sc" unicode="&#xe085;" horiz-adv-x="336" 
d="M210 653h-84v113h84v-113z" />
    <glyph glyph-name="Hungarumlaut.sc" unicode="&#xe086;" horiz-adv-x="336" 
d="M401 758l-111 -153h-79l95 153h95zM240 758l-111 -153h-79l96 153h94z" />
    <glyph glyph-name="Grave.sc" unicode="&#xe08e;" horiz-adv-x="336" 
d="M218 607h-79l-111 153h95z" />
    <glyph glyph-name="dblGrave.sc" unicode="&#xe46a;" horiz-adv-x="336" 
d="M305 607h-79l-111 153h95zM138 607l-96 153h-94l111 -153h79z" />
    <glyph glyph-name="Macron.sc" unicode="&#xe091;" horiz-adv-x="336" 
d="M303 653h-270v66h270v-66z" />
    <glyph glyph-name="Ogonek.sc" unicode="&#xe087;" horiz-adv-x="336" 
d="M263 -205c-18 -5 -43 -9 -70 -9c-72 0 -107 39 -107 93c0 42 19 76 96 147h85c-102 -91 -109 -116 -109 -141c0 -28 10 -44 49 -44c22 0 41 2 56 3v-49z" />
    <glyph glyph-name="Ring.sc" unicode="&#xe088;" horiz-adv-x="336" 
d="M273 711c0 -79 -44 -110 -104 -110c-61 0 -106 31 -106 110s45 111 106 111c60 0 104 -32 104 -111zM214 711c0 48 -21 58 -45 58c-26 0 -46 -10 -46 -58c0 -47 20 -57 46 -57c24 0 45 10 45 57z" />
    <glyph glyph-name="Tilde.sc" unicode="&#xe089;" horiz-adv-x="336" 
d="M337 714c0 -66 -21 -110 -87 -110c-38 0 -66 13 -92 46l-22 27c-16 20 -28 30 -45 30c-19 0 -27 -15 -27 -49v-49h-61v49c0 66 26 110 88 110c39 0 66 -16 92 -48l21 -26c18 -22 28 -28 45 -28c20 0 27 14 27 48v50h61v-50z" />
    <glyph glyph-name="middot" unicode="&#x387;" horiz-adv-x="180" 
d="M132 286h-83v135h83v-135z" />
    <glyph glyph-name="A.sc" unicode="&#xe000;" horiz-adv-x="453" 
d="M167 0h-145v61l31 4l98 421l-31 3v63h164l114 -487l32 -4v-61h-144v60l30 3l-24 108h-131l-24 -108l30 -3v-60zM278 240l-34 150c-8 36 -11 68 -16 98h-4c-5 -30 -8 -61 -16 -98l-34 -150h104z" />
    <glyph glyph-name="Aacute.sc" unicode="&#xe002;" horiz-adv-x="453" 
d="M167 0h-145v61l31 4l98 421l-31 3v63h164l114 -487l32 -4v-61h-144v60l30 3l-24 108h-131l-24 -108l30 -3v-60zM278 240l-34 150c-8 36 -11 68 -16 98h-4c-5 -30 -8 -61 -16 -98l-34 -150h104zM360 760l-111 -153h-79l96 153h94z" />
    <glyph glyph-name="Abreve.sc" unicode="&#xe040;" horiz-adv-x="453" 
d="M167 0h-145v61l31 4l98 421l-31 3v63h164l114 -487l32 -4v-61h-144v60l30 3l-24 108h-131l-24 -108l30 -3v-60zM278 240l-34 150c-8 36 -11 68 -16 98h-4c-5 -30 -8 -61 -16 -98l-34 -150h104zM358 760c-3 -85 -24 -155 -131 -155s-127 70 -131 155h63
c4 -77 19 -98 68 -98s65 21 68 98h63z" />
    <glyph glyph-name="Acircumflex.sc" unicode="&#xe003;" horiz-adv-x="453" 
d="M167 0h-145v61l31 4l98 421l-31 3v63h164l114 -487l32 -4v-61h-144v60l30 3l-24 108h-131l-24 -108l30 -3v-60zM278 240l-34 150c-8 36 -11 68 -16 98h-4c-5 -30 -8 -61 -16 -98l-34 -150h104zM383 607h-77l-80 106l-79 -106h-78l101 153h113z" />
    <glyph glyph-name="Adieresis.sc" unicode="&#xe004;" horiz-adv-x="453" 
d="M167 0h-145v61l31 4l98 421l-31 3v63h164l114 -487l32 -4v-61h-144v60l30 3l-24 108h-131l-24 -108l30 -3v-60zM278 240l-34 150c-8 36 -11 68 -16 98h-4c-5 -30 -8 -61 -16 -98l-34 -150h104zM356 630h-80v112h80v-112zM177 630v112h-80v-112h80z" />
    <glyph glyph-name="Agrave.sc" unicode="&#xe005;" horiz-adv-x="453" 
d="M167 0h-145v61l31 4l98 421l-31 3v63h164l114 -487l32 -4v-61h-144v60l30 3l-24 108h-131l-24 -108l30 -3v-60zM278 240l-34 150c-8 36 -11 68 -16 98h-4c-5 -30 -8 -61 -16 -98l-34 -150h104zM274 607h-80l-111 153h95z" />
    <glyph glyph-name="Amacron.sc" unicode="&#xe041;" horiz-adv-x="453" 
d="M167 0h-145v61l31 4l98 421l-31 3v63h164l114 -487l32 -4v-61h-144v60l30 3l-24 108h-131l-24 -108l30 -3v-60zM278 240l-34 150c-8 36 -11 68 -16 98h-4c-5 -30 -8 -61 -16 -98l-34 -150h104zM361 630h-270v66h270v-66z" />
    <glyph glyph-name="Aogonek.sc" unicode="&#xe042;" horiz-adv-x="453" 
d="M167 0h-145v61l31 4l98 421l-31 3v63h164l114 -487l32 -4v-61c-88 -54 -106 -90 -106 -115c0 -28 11 -44 49 -44c22 0 42 2 57 3v-49c-19 -5 -43 -9 -71 -9c-72 0 -107 39 -107 91c0 51 32 84 84 123h-50v60l30 3l-24 108h-131l-24 -108l30 -3v-60zM278 240l-34 150
c-8 36 -11 68 -16 98h-4c-5 -30 -8 -61 -16 -98l-34 -150h104z" />
    <glyph glyph-name="Aring.sc" unicode="&#xe006;" horiz-adv-x="453" 
d="M167 0h-145v61l31 4l98 421l-31 3v63h164l114 -487l32 -4v-61h-144v60l30 3l-24 108h-131l-24 -108l30 -3v-60zM278 240l-34 150c-8 36 -11 68 -16 98h-4c-5 -30 -8 -61 -16 -98l-34 -150h104zM325 711c0 -79 -44 -110 -104 -110s-105 31 -105 110s45 111 105 111
s104 -32 104 -111zM266 711c0 48 -21 58 -45 58c-25 0 -45 -10 -45 -58c0 -47 20 -57 45 -57c24 0 45 10 45 57z" />
    <glyph glyph-name="Atilde.sc" unicode="&#xe007;" horiz-adv-x="453" 
d="M167 0h-145v61l31 4l98 421l-31 3v63h164l114 -487l32 -4v-61h-144v60l30 3l-24 108h-131l-24 -108l30 -3v-60zM278 240l-34 150c-8 36 -11 68 -16 98h-4c-5 -30 -8 -61 -16 -98l-34 -150h104zM388 714c0 -66 -21 -110 -87 -110c-38 0 -66 13 -92 46l-22 27
c-16 20 -28 30 -45 30c-19 0 -27 -15 -27 -49v-49h-61v49c0 66 26 110 88 110c39 0 66 -16 92 -48l21 -26c18 -22 28 -28 45 -28c20 0 27 14 27 48v50h61v-50z" />
    <glyph glyph-name="AE.sc" unicode="&#xe001;" horiz-adv-x="589" 
d="M553 552v-109h-56l-8 40h-127v-163h182v-69h-182v-182h127l8 41h56v-110h-302v64l31 3v103h-121l-38 -170h-100v61l30 4l99 421l-32 3v63h433zM282 485h-55c-5 -26 -10 -55 -16 -81l-37 -166h108v247z" />
    <glyph glyph-name="AEacute.sc" unicode="&#xe043;" horiz-adv-x="589" 
d="M553 552v-109h-56l-8 40h-127v-163h182v-69h-182v-182h127l8 41h56v-110h-302v64l31 3v103h-121l-38 -170h-100v61l30 4l99 421l-32 3v63h433zM282 485h-55c-5 -26 -10 -55 -16 -81l-37 -166h108v247zM466 760l-111 -153h-79l96 153h94z" />
    <glyph glyph-name="B.sc" unicode="&#xe008;" horiz-adv-x="412" 
d="M381 155c0 -129 -79 -156 -188 -156c-51 0 -105 0 -162 1v62l31 4v419l-31 4v63c56 1 110 1 163 1c111 0 184 -25 184 -143v-9c0 -50 -19 -95 -59 -117c43 -21 62 -67 62 -118v-11zM302 155v11c0 54 -18 88 -84 88h-76v-188h53c69 0 107 14 107 89zM300 399v10
c0 69 -37 77 -103 77h-55v-169h76c66 0 82 32 82 82z" />
    <glyph glyph-name="C.sc" unicode="&#xe009;" horiz-adv-x="360" 
d="M324 5c-18 -5 -66 -14 -107 -14c-104 0 -183 34 -183 224v121c0 191 79 224 183 224c41 0 89 -10 107 -14v-103h-56l-8 44c-13 1 -27 2 -39 2c-71 0 -107 -24 -107 -153v-121c0 -128 36 -153 107 -153c12 0 26 1 39 2l8 46h56v-105z" />
    <glyph glyph-name="Cacute.sc" unicode="&#xe044;" horiz-adv-x="360" 
d="M324 5c-18 -5 -66 -14 -107 -14c-104 0 -183 34 -183 224v121c0 191 79 224 183 224c41 0 89 -10 107 -14v-103h-56l-8 44c-13 1 -27 2 -39 2c-71 0 -107 -24 -107 -153v-121c0 -128 36 -153 107 -153c12 0 26 1 39 2l8 46h56v-105zM336 760l-111 -153h-79l96 153h94z
" />
    <glyph glyph-name="Ccaron.sc" unicode="&#xe045;" horiz-adv-x="360" 
d="M324 5c-18 -5 -66 -14 -107 -14c-104 0 -183 34 -183 224v121c0 191 79 224 183 224c41 0 89 -10 107 -14v-103h-56l-8 44c-13 1 -27 2 -39 2c-71 0 -107 -24 -107 -153v-121c0 -128 36 -153 107 -153c12 0 26 1 39 2l8 46h56v-105zM355 760l-100 -153h-113l-101 153h78
l79 -106l80 106h77z" />
    <glyph glyph-name="Ccedilla.sc" unicode="&#xe00a;" horiz-adv-x="360" 
d="M324 5c-18 -5 -66 -14 -107 -14c-104 0 -183 34 -183 224v121c0 191 79 224 183 224c41 0 89 -10 107 -14v-103h-56l-8 44c-13 1 -27 2 -39 2c-71 0 -107 -24 -107 -153v-121c0 -128 36 -153 107 -153c12 0 26 1 39 2l8 46h56v-105zM253 -62l-105 -144h-77l87 144h95z
" />
    <glyph glyph-name="Ccircumflex.sc" unicode="&#xe046;" horiz-adv-x="360" 
d="M324 5c-18 -5 -66 -14 -107 -14c-104 0 -183 34 -183 224v121c0 191 79 224 183 224c41 0 89 -10 107 -14v-103h-56l-8 44c-13 1 -27 2 -39 2c-71 0 -107 -24 -107 -153v-121c0 -128 36 -153 107 -153c12 0 26 1 39 2l8 46h56v-105zM354 607h-77l-80 106l-79 -106h-78
l101 153h113z" />
    <glyph glyph-name="Cdotaccent.sc" unicode="&#xe047;" horiz-adv-x="360" 
d="M324 5c-18 -5 -66 -14 -107 -14c-104 0 -183 34 -183 224v121c0 191 79 224 183 224c41 0 89 -10 107 -14v-103h-56l-8 44c-13 1 -27 2 -39 2c-71 0 -107 -24 -107 -153v-121c0 -128 36 -153 107 -153c12 0 26 1 39 2l8 46h56v-105zM240 630h-83v113h83v-113z" />
    <glyph glyph-name="D.sc" unicode="&#xe00b;" horiz-adv-x="426" 
d="M392 219c0 -128 -40 -221 -202 -221c-54 0 -107 0 -159 2v63l31 5v416l-31 4v64c52 1 103 1 159 1c162 0 202 -87 202 -217v-117zM311 219v117c0 111 -31 145 -119 145h-50v-412h50c91 0 119 40 119 150z" />
    <glyph glyph-name="Dcaron.sc" unicode="&#xe048;" horiz-adv-x="426" 
d="M392 219c0 -128 -40 -221 -202 -221c-54 0 -107 0 -159 2v63l31 5v416l-31 4v64c52 1 103 1 159 1c162 0 202 -87 202 -217v-117zM311 219v117c0 111 -31 145 -119 145h-50v-412h50c91 0 119 40 119 150zM364 760l-100 -153h-113l-101 153h78l79 -106l80 106h77z" />
    <glyph glyph-name="Dcroat.sc" unicode="&#xe049;" horiz-adv-x="426" 
d="M391 219c0 -130 -42 -220 -201 -220c-55 0 -108 0 -160 1v63l31 5v180h-40v72h40v164l-31 4v64c52 1 103 1 160 1c157 0 201 -87 201 -217v-117zM310 219v117c0 110 -30 145 -122 145h-47v-161h77v-72h-77v-179h50c91 0 119 41 119 150z" />
    <glyph glyph-name="Eth.sc" unicode="&#xe00c;" horiz-adv-x="426" 
d="M391 219c0 -130 -42 -220 -201 -220c-55 0 -108 0 -160 1v63l31 5v180h-40v72h40v164l-31 4v64c52 1 103 1 160 1c157 0 201 -87 201 -217v-117zM310 219v117c0 110 -30 145 -122 145h-47v-161h77v-72h-77v-179h50c91 0 119 41 119 150z" />
    <glyph glyph-name="E.sc" unicode="&#xe00d;" horiz-adv-x="370" 
d="M333 0h-302v61l31 4v421l-31 4v62h302v-109h-56l-7 40h-128v-163h180v-69h-180v-182h128l7 41h56v-110z" />
    <glyph glyph-name="Eacute.sc" unicode="&#xe00e;" horiz-adv-x="370" 
d="M333 0h-302v61l31 4v421l-31 4v62h302v-109h-56l-7 40h-128v-163h180v-69h-180v-182h128l7 41h56v-110zM324 760l-111 -153h-79l96 153h94z" />
    <glyph glyph-name="Ebreve.sc" unicode="&#xe04a;" horiz-adv-x="370" 
d="M333 0h-302v61l31 4v421l-31 4v62h302v-109h-56l-7 40h-128v-163h180v-69h-180v-182h128l7 41h56v-110zM320 760c-3 -85 -24 -155 -131 -155s-127 70 -131 155h63c4 -77 19 -98 68 -98s65 21 68 98h63z" />
    <glyph glyph-name="Ecaron.sc" unicode="&#xe04b;" horiz-adv-x="370" 
d="M333 0h-302v61l31 4v421l-31 4v62h302v-109h-56l-7 40h-128v-163h180v-69h-180v-182h128l7 41h56v-110zM346 760l-100 -153h-113l-101 153h78l79 -106l80 106h77z" />
    <glyph glyph-name="Ecircumflex.sc" unicode="&#xe00f;" horiz-adv-x="370" 
d="M333 0h-302v61l31 4v421l-31 4v62h302v-109h-56l-7 40h-128v-163h180v-69h-180v-182h128l7 41h56v-110zM342 607h-77l-80 106l-79 -106h-78l101 153h113z" />
    <glyph glyph-name="Edieresis.sc" unicode="&#xe010;" horiz-adv-x="370" 
d="M333 0h-302v61l31 4v421l-31 4v62h302v-109h-56l-7 40h-128v-163h180v-69h-180v-182h128l7 41h56v-110zM322 630h-80v112h80v-112zM143 630v112h-80v-112h80z" />
    <glyph glyph-name="Edotaccent.sc" unicode="&#xe04c;" horiz-adv-x="370" 
d="M333 0h-302v61l31 4v421l-31 4v62h302v-109h-56l-7 40h-128v-163h180v-69h-180v-182h128l7 41h56v-110zM231 630h-83v113h83v-113z" />
    <glyph glyph-name="Egrave.sc" unicode="&#xe011;" horiz-adv-x="370" 
d="M333 0h-302v61l31 4v421l-31 4v62h302v-109h-56l-7 40h-128v-163h180v-69h-180v-182h128l7 41h56v-110zM242 607h-80l-111 153h95z" />
    <glyph glyph-name="Emacron.sc" unicode="&#xe04d;" horiz-adv-x="370" 
d="M333 0h-302v61l31 4v421l-31 4v62h302v-109h-56l-7 40h-128v-163h180v-69h-180v-182h128l7 41h56v-110zM323 630h-270v66h270v-66z" />
    <glyph glyph-name="Eogonek.sc" unicode="&#xe04f;" horiz-adv-x="370" 
d="M330 -205c-19 -5 -43 -9 -71 -9c-72 0 -107 39 -107 93c0 37 14 67 68 121h-189v61l31 4v421l-31 4v62h302v-109h-56l-7 40h-128v-163h180v-69h-180v-182h128l7 41h56v-110h-29c-73 -69 -80 -92 -80 -115c0 -28 11 -44 49 -44c22 0 42 2 57 3v-49z" />
    <glyph glyph-name="F.sc" unicode="&#xe012;" horiz-adv-x="362" 
d="M324 251h-182v-186l31 -4v-61h-142v61l31 4v421l-31 4v62h303v-109h-57l-7 39h-128v-162h182v-69z" />
    <glyph glyph-name="G.sc" unicode="&#xe013;" horiz-adv-x="387" 
d="M351 7c-21 -5 -78 -16 -136 -16c-99 0 -181 38 -181 221v128c0 192 92 220 186 220c59 0 118 -13 129 -17v-100h-56l-8 42c-16 1 -36 3 -54 3c-72 0 -117 -12 -117 -148v-128c0 -129 37 -148 109 -148c17 0 33 0 49 2v158l-56 5v58h135v-280z" />
    <glyph glyph-name="Gbreve.sc" unicode="&#xe050;" horiz-adv-x="387" 
d="M351 7c-21 -5 -78 -16 -136 -16c-99 0 -181 38 -181 221v128c0 192 92 220 186 220c59 0 118 -13 129 -17v-100h-56l-8 42c-16 1 -36 3 -54 3c-72 0 -117 -12 -117 -148v-128c0 -129 37 -148 109 -148c17 0 33 0 49 2v158l-56 5v58h135v-280zM346 760
c-3 -85 -24 -155 -131 -155s-127 70 -131 155h63c4 -77 19 -98 68 -98s65 21 68 98h63z" />
    <glyph glyph-name="Gcircumflex.sc" unicode="&#xe051;" horiz-adv-x="387" 
d="M351 7c-21 -5 -78 -16 -136 -16c-99 0 -181 38 -181 221v128c0 192 92 220 186 220c59 0 118 -13 129 -17v-100h-56l-8 42c-16 1 -36 3 -54 3c-72 0 -117 -12 -117 -148v-128c0 -129 37 -148 109 -148c17 0 33 0 49 2v158l-56 5v58h135v-280zM370 607h-77l-80 106
l-79 -106h-78l101 153h113z" />
    <glyph glyph-name="Gcommaaccent.sc" unicode="&#xe052;" horiz-adv-x="387" 
d="M351 7c-21 -5 -78 -16 -136 -16c-99 0 -181 38 -181 221v128c0 192 92 220 186 220c59 0 118 -13 129 -17v-100h-56l-8 42c-16 1 -36 3 -54 3c-72 0 -117 -12 -117 -148v-128c0 -129 37 -148 109 -148c17 0 33 0 49 2v158l-56 5v58h135v-280zM267 -62l-75 -144h-74
l52 144h97z" />
    <glyph glyph-name="Gdotaccent.sc" unicode="&#xe053;" horiz-adv-x="387" 
d="M351 7c-21 -5 -78 -16 -136 -16c-99 0 -181 38 -181 221v128c0 192 92 220 186 220c59 0 118 -13 129 -17v-100h-56l-8 42c-16 1 -36 3 -54 3c-72 0 -117 -12 -117 -148v-128c0 -129 37 -148 109 -148c17 0 33 0 49 2v158l-56 5v58h135v-280zM255 631h-83v113h83v-113z
" />
    <glyph glyph-name="H.sc" unicode="&#xe014;" horiz-adv-x="474" 
d="M297 552h146v-64l-31 -4v-417l31 -3v-64h-146v64l31 3v186h-182v-186l31 -3v-64h-146v64l31 3v417l-31 4v64h146v-64l-31 -3v-159h182v159l-31 3v64z" />
    <glyph glyph-name="Hbar.sc" unicode="&#xe054;" horiz-adv-x="474" 
d="M297 552h146v-64l-31 -4v-43h32v-61h-32v-313l31 -3v-64h-146v64l31 3v186h-182v-186l31 -3v-64h-146v64l31 3v313h-31v61h31v43l-31 4v64h146v-64l-31 -3v-44h182v44l-31 3v64zM146 326h182v54h-182v-54z" />
    <glyph glyph-name="Hcircumflex.sc" unicode="&#xe055;" horiz-adv-x="474" 
d="M297 552h146v-64l-31 -4v-417l31 -3v-64h-146v64l31 3v186h-182v-186l31 -3v-64h-146v64l31 3v417l-31 4v64h146v-64l-31 -3v-159h182v159l-31 3v64zM394 607h-77l-80 106l-79 -106h-78l101 153h113z" />
    <glyph glyph-name="I.sc" unicode="&#xe015;" horiz-adv-x="206" 
d="M174 0h-143v61l32 4v421l-32 4v62h143v-62l-31 -4v-421l31 -4v-61z" />
    <glyph glyph-name="Iacute.sc" unicode="&#xe016;" horiz-adv-x="206" 
d="M174 0h-143v61l32 4v421l-32 4v62h143v-62l-31 -4v-421l31 -4v-61zM239 760l-111 -153h-79l96 153h94z" />
    <glyph glyph-name="Ibreve.sc" unicode="&#xe056;" horiz-adv-x="206" 
d="M174 0h-143v61l32 4v421l-32 4v62h143v-62l-31 -4v-421l31 -4v-61zM234 760c-3 -85 -24 -155 -131 -155s-127 70 -131 155h63c4 -77 19 -98 68 -98s65 21 68 98h63z" />
    <glyph glyph-name="Icircumflex.sc" unicode="&#xe017;" horiz-adv-x="206" 
d="M174 0h-143v61l32 4v421l-32 4v62h143v-62l-31 -4v-421l31 -4v-61zM260 607h-77l-80 106l-79 -106h-78l101 153h113z" />
    <glyph glyph-name="Idieresis.sc" unicode="&#xe018;" horiz-adv-x="206" 
d="M174 0h-143v61l32 4v421l-32 4v62h143v-62l-31 -4v-421l31 -4v-61zM232 630h-80v112h80v-112zM53 630v112h-80v-112h80z" />
    <glyph glyph-name="Idotaccent.sc" unicode="&#xe081;" horiz-adv-x="206" 
d="M174 0h-143v61l32 4v421l-32 4v62h143v-62l-31 -4v-421l31 -4v-61zM144 630h-83v113h83v-113z" />
    <glyph glyph-name="Igrave.sc" unicode="&#xe019;" horiz-adv-x="206" 
d="M174 0h-143v61l32 4v421l-32 4v62h143v-62l-31 -4v-421l31 -4v-61zM162 607h-80l-111 153h95z" />
    <glyph glyph-name="Imacron.sc" unicode="&#xe059;" horiz-adv-x="206" 
d="M174 0h-143v61l32 4v421l-32 4v62h143v-62l-31 -4v-421l31 -4v-61zM236 630h-270v66h270v-66z" />
    <glyph glyph-name="Iogonek.sc" unicode="&#xe05a;" horiz-adv-x="206" 
d="M187 -205c-19 -5 -43 -9 -71 -9c-72 0 -107 39 -107 93c0 37 14 67 68 121h-46v61l32 4v421l-32 4v62h143v-62l-31 -4v-421l31 -4v-61h-13c-68 -63 -80 -91 -80 -115c0 -28 11 -44 49 -44c22 0 42 2 57 3v-49z" />
    <glyph glyph-name="Itilde.sc" unicode="&#xe05b;" horiz-adv-x="206" 
d="M174 0h-143v61l32 4v421l-32 4v62h143v-62l-31 -4v-421l31 -4v-61zM267 712c0 -66 -21 -110 -87 -110c-38 0 -66 13 -92 46l-22 27c-16 20 -28 30 -45 30c-19 0 -27 -15 -27 -49v-49h-61v49c0 66 26 110 88 110c39 0 66 -16 92 -48l21 -26c18 -22 28 -28 45 -28
c20 0 27 14 27 48v50h61v-50z" />
    <glyph glyph-name="IJ.sc" unicode="&#xe058;" horiz-adv-x="388" 
d="M357 490l-31 -4v-540c0 -76 -30 -105 -99 -105c-18 0 -42 3 -55 7v57h41c30 0 33 10 33 41v540l-31 4v62h142v-62zM174 0h-143v61l32 4v421l-32 4v62h143v-62l-31 -4v-421l31 -4v-61z" />
    <glyph glyph-name="J.sc" unicode="&#xe01a;" horiz-adv-x="205" 
d="M174 490l-31 -4v-540c0 -76 -30 -105 -100 -105c-18 0 -42 3 -55 7v57h42c29 0 33 10 33 41v540l-31 4v62h142v-62z" />
    <glyph glyph-name="Jcircumflex.sc" unicode="&#xe05c;" horiz-adv-x="205" 
d="M174 490l-31 -4v-540c0 -76 -30 -105 -100 -105c-18 0 -42 3 -55 7v57h42c29 0 33 10 33 41v540l-31 4v62h142v-62zM255 607h-77l-80 106l-79 -106h-78l101 153h113z" />
    <glyph glyph-name="K.sc" unicode="&#xe01b;" horiz-adv-x="418" 
d="M173 0h-142v61l31 4v421l-31 4v62h142v-64l-31 -3v-190l158 257h90v-62l-35 -4l-131 -206l132 -216l34 -3v-61h-96l-152 261v-194l31 -3v-64z" />
    <glyph glyph-name="Kcommaaccent.sc" unicode="&#xe05d;" horiz-adv-x="418" 
d="M173 0h-142v61l31 4v421l-31 4v62h142v-64l-31 -3v-190l158 257h90v-62l-35 -4l-131 -206l132 -216l34 -3v-61h-96l-152 261v-194l31 -3v-64zM269 -62l-75 -144h-74l52 144h97z" />
    <glyph glyph-name="L.sc" unicode="&#xe01c;" horiz-adv-x="350" 
d="M322 0h-291v61l31 4v421l-31 4v62h141v-62l-30 -4v-416h116l7 42h57v-112z" />
    <glyph glyph-name="Lacute.sc" unicode="&#xe05e;" horiz-adv-x="350" 
d="M322 0h-291v61l31 4v421l-31 4v62h141v-62l-30 -4v-416h116l7 42h57v-112zM310 760l-111 -153h-79l96 153h94z" />
    <glyph glyph-name="Lcaron.sc" unicode="&#xe05f;" horiz-adv-x="381" 
d="M321 0h-291v61l31 4v421l-31 4v62h141v-62l-30 -4v-416h116l7 42h57v-112zM343 552l-57 -226h-65l35 226h87z" />
    <glyph glyph-name="Lcommaaccent.sc" unicode="&#xe060;" horiz-adv-x="350" 
d="M322 0h-291v61l31 4v421l-31 4v62h141v-62l-30 -4v-416h116l7 42h57v-112zM226 -62l-75 -144h-74l52 144h97z" />
    <glyph glyph-name="Ldot.sc" unicode="&#xe061;" horiz-adv-x="350" 
d="M322 0h-291v61l31 4v421l-31 4v62h141v-62l-30 -4v-416h116l7 42h57v-112zM306 243h-83v113h83v-113z" />
    <glyph glyph-name="Lslash.sc" unicode="&#xe01d;" horiz-adv-x="350" 
d="M322 0h-291v61l31 4v114l-37 -37v96l37 37v211l-31 4v62h141v-62l-31 -4v-128l83 81v-96l-83 -81v-192h116l7 42h58v-112z" />
    <glyph glyph-name="M.sc" unicode="&#xe01e;" horiz-adv-x="522" 
d="M170 0h-139v61l31 4v421l-31 4v62h126l78 -200c9 -23 17 -48 24 -73h1c9 25 17 50 26 74l77 199h127v-62l-30 -4v-421l30 -4v-61h-140v64l31 3v267c0 41 2 79 4 117h-1c-10 -31 -20 -64 -31 -93l-54 -140h-78l-54 140c-11 30 -21 63 -31 93h-1c2 -38 4 -76 4 -117v-267
l31 -3v-64z" />
    <glyph glyph-name="N.sc" unicode="&#xe01f;" horiz-adv-x="468" 
d="M299 552h138v-62l-32 -4v-486h-99l-143 368c-10 24 -20 51 -30 83h-1c2 -35 4 -71 4 -107v-277l31 -3v-64h-136v61l31 4v421l-31 4v62h131l141 -353c10 -25 22 -57 31 -85h1c-3 40 -5 80 -5 111v260l-31 3v64z" />
    <glyph glyph-name="Nacute.sc" unicode="&#xe062;" horiz-adv-x="468" 
d="M299 552h138v-62l-32 -4v-486h-99l-143 368c-10 24 -20 51 -30 83h-1c2 -35 4 -71 4 -107v-277l31 -3v-64h-136v61l31 4v421l-31 4v62h131l141 -353c10 -25 22 -57 31 -85h1c-3 40 -5 80 -5 111v260l-31 3v64zM368 760l-111 -153h-79l96 153h94z" />
    <glyph glyph-name="Ncaron.sc" unicode="&#xe063;" horiz-adv-x="468" 
d="M299 552h138v-62l-32 -4v-486h-99l-143 368c-10 24 -20 51 -30 83h-1c2 -35 4 -71 4 -107v-277l31 -3v-64h-136v61l31 4v421l-31 4v62h131l141 -353c10 -25 22 -57 31 -85h1c-3 40 -5 80 -5 111v260l-31 3v64zM386 760l-100 -153h-113l-101 153h78l79 -106l80 106h77z
" />
    <glyph glyph-name="Ncommaaccent.sc" unicode="&#xe064;" horiz-adv-x="468" 
d="M299 552h138v-62l-32 -4v-486h-99l-143 368c-10 24 -20 51 -30 83h-1c2 -35 4 -71 4 -107v-277l31 -3v-64h-136v61l31 4v421l-31 4v62h131l141 -353c10 -25 22 -57 31 -85h1c-3 40 -5 80 -5 111v260l-31 3v64zM281 -62l-75 -144h-74l52 144h97z" />
    <glyph glyph-name="Ntilde.sc" unicode="&#xe020;" horiz-adv-x="468" 
d="M299 552h138v-62l-32 -4v-486h-99l-143 368c-10 24 -20 51 -30 83h-1c2 -35 4 -71 4 -107v-277l31 -3v-64h-136v61l31 4v421l-31 4v62h131l141 -353c10 -25 22 -57 31 -85h1c-3 40 -5 80 -5 111v260l-31 3v64zM400 712c0 -66 -21 -110 -87 -110c-38 0 -66 13 -92 46
l-22 27c-16 20 -28 30 -45 30c-19 0 -27 -15 -27 -49v-49h-61v49c0 66 26 110 88 110c39 0 66 -16 92 -48l21 -26c18 -22 28 -28 45 -28c20 0 27 14 27 48v50h61v-50z" />
    <glyph glyph-name="Eng.sc" unicode="&#xe04e;" horiz-adv-x="468" 
d="M299 552h138v-62l-32 -4v-540c0 -76 -30 -105 -100 -105c-18 0 -42 3 -55 7v57h42c29 0 33 10 33 41v54h-19l-143 368c-10 24 -20 51 -30 83h-1c2 -35 4 -71 4 -107v-277l31 -3v-64h-136v61l31 4v421l-31 4v62h131l141 -353c10 -25 22 -57 31 -85h1c-3 40 -5 80 -5 111
v260l-31 3v64z" />
    <glyph glyph-name="O.sc" unicode="&#xe021;" horiz-adv-x="417" 
d="M383 223c0 -148 -54 -232 -175 -232s-174 87 -174 232v106c0 145 54 231 174 231c121 0 175 -84 175 -231v-106zM303 223v105c0 115 -30 159 -95 159c-64 0 -94 -46 -94 -159v-105c0 -112 30 -160 94 -160c65 0 95 46 95 160z" />
    <glyph glyph-name="Oacute.sc" unicode="&#xe023;" horiz-adv-x="417" 
d="M383 223c0 -148 -54 -232 -175 -232s-174 87 -174 232v106c0 145 54 231 174 231c121 0 175 -84 175 -231v-106zM303 223v105c0 115 -30 159 -95 159c-64 0 -94 -46 -94 -159v-105c0 -112 30 -160 94 -160c65 0 95 46 95 160zM348 760l-111 -153h-79l96 153h94z" />
    <glyph glyph-name="Obreve.sc" unicode="&#xe065;" horiz-adv-x="417" 
d="M383 223c0 -148 -54 -232 -175 -232s-174 87 -174 232v106c0 145 54 231 174 231c121 0 175 -84 175 -231v-106zM303 223v105c0 115 -30 159 -95 159c-64 0 -94 -46 -94 -159v-105c0 -112 30 -160 94 -160c65 0 95 46 95 160zM336 760c-3 -85 -24 -155 -131 -155
s-127 70 -131 155h63c4 -77 19 -98 68 -98s65 21 68 98h63z" />
    <glyph glyph-name="Ocircumflex.sc" unicode="&#xe024;" horiz-adv-x="417" 
d="M383 223c0 -148 -54 -232 -175 -232s-174 87 -174 232v106c0 145 54 231 174 231c121 0 175 -84 175 -231v-106zM303 223v105c0 115 -30 159 -95 159c-64 0 -94 -46 -94 -159v-105c0 -112 30 -160 94 -160c65 0 95 46 95 160zM363 607h-77l-80 106l-79 -106h-78l101 153
h113z" />
    <glyph glyph-name="Odieresis.sc" unicode="&#xe025;" horiz-adv-x="417" 
d="M383 223c0 -148 -54 -232 -175 -232s-174 87 -174 232v106c0 145 54 231 174 231c121 0 175 -84 175 -231v-106zM303 223v105c0 115 -30 159 -95 159c-64 0 -94 -46 -94 -159v-105c0 -112 30 -160 94 -160c65 0 95 46 95 160zM334 630h-80v112h80v-112zM155 630v112h-80
v-112h80z" />
    <glyph glyph-name="Ograve.sc" unicode="&#xe026;" horiz-adv-x="417" 
d="M383 223c0 -148 -54 -232 -175 -232s-174 87 -174 232v106c0 145 54 231 174 231c121 0 175 -84 175 -231v-106zM303 223v105c0 115 -30 159 -95 159c-64 0 -94 -46 -94 -159v-105c0 -112 30 -160 94 -160c65 0 95 46 95 160zM270 607h-80l-111 153h95z" />
    <glyph glyph-name="Ohungarumlaut.sc" unicode="&#xe066;" horiz-adv-x="417" 
d="M383 223c0 -148 -54 -232 -175 -232s-174 87 -174 232v106c0 145 54 231 174 231c121 0 175 -84 175 -231v-106zM303 223v105c0 115 -30 159 -95 159c-64 0 -94 -46 -94 -159v-105c0 -112 30 -160 94 -160c65 0 95 46 95 160zM432 760l-111 -153h-80l96 153h95zM265 760
h-94l-96 -153h79z" />
    <glyph glyph-name="Omacron.sc" unicode="&#xe067;" horiz-adv-x="417" 
d="M383 223c0 -148 -54 -232 -175 -232s-174 87 -174 232v106c0 145 54 231 174 231c121 0 175 -84 175 -231v-106zM303 223v105c0 115 -30 159 -95 159c-64 0 -94 -46 -94 -159v-105c0 -112 30 -160 94 -160c65 0 95 46 95 160zM341 630h-270v66h270v-66z" />
    <glyph glyph-name="Otilde.sc" unicode="&#xe028;" horiz-adv-x="417" 
d="M383 223c0 -148 -54 -232 -175 -232s-174 87 -174 232v106c0 145 54 231 174 231c121 0 175 -84 175 -231v-106zM303 223v105c0 115 -30 159 -95 159c-64 0 -94 -46 -94 -159v-105c0 -112 30 -160 94 -160c65 0 95 46 95 160zM380 712c0 -66 -21 -110 -87 -110
c-38 0 -66 13 -92 46l-22 27c-16 20 -28 30 -45 30c-19 0 -27 -15 -27 -49v-49h-61v49c0 66 26 110 88 110c39 0 66 -16 92 -48l21 -26c18 -22 28 -28 45 -28c20 0 27 14 27 48v50h61v-50z" />
    <glyph glyph-name="Oslash.sc" unicode="&#xe027;" horiz-adv-x="417" 
d="M383 223c0 -148 -54 -232 -175 -232c-45 0 -81 12 -108 34l-16 -28h-65l44 76c-20 38 -29 89 -29 150v106c0 145 54 231 174 231c47 0 85 -13 112 -38l19 33h65l-48 -83c18 -37 27 -85 27 -143v-106zM114 223c0 -21 1 -39 3 -55l162 283c-15 25 -39 36 -71 36
c-64 0 -94 -46 -94 -159v-105zM303 223v105c0 17 -1 33 -2 47l-161 -280c16 -22 38 -32 68 -32c65 0 95 46 95 160z" />
    <glyph glyph-name="Oslashacute.sc" unicode="&#xe068;" horiz-adv-x="417" 
d="M383 223c0 -148 -54 -232 -175 -232c-45 0 -81 12 -108 34l-16 -28h-65l44 76c-20 38 -29 89 -29 150v106c0 145 54 231 174 231c47 0 85 -13 112 -38l19 33h65l-48 -83c18 -37 27 -85 27 -143v-106zM114 223c0 -21 1 -39 3 -55l162 283c-15 25 -39 36 -71 36
c-64 0 -94 -46 -94 -159v-105zM303 223v105c0 17 -1 33 -2 47l-161 -280c16 -22 38 -32 68 -32c65 0 95 46 95 160zM348 760l-111 -153h-79l96 153h94z" />
    <glyph glyph-name="OE.sc" unicode="&#xe022;" horiz-adv-x="592" 
d="M555 0h-251c-34 -4 -58 -8 -88 -8c-130 0 -182 86 -182 231v106c0 148 51 231 182 231c30 0 54 -4 88 -8h251v-109h-56l-7 40h-128v-163h182v-69h-182v-182h128l7 41h56v-110zM284 69v412c-24 4 -43 6 -63 6c-76 0 -106 -46 -106 -159v-105c0 -112 28 -160 102 -160
c32 0 43 3 67 6z" />
    <glyph glyph-name="P.sc" unicode="&#xe029;" horiz-adv-x="396" 
d="M183 0h-152v61l31 4v421l-31 4v62c50 1 100 1 151 1c109 0 189 -27 190 -164v-12c0 -136 -81 -166 -186 -166h-44v-145l41 -3v-63zM292 377v12c0 79 -33 94 -107 94h-43v-203h43c75 0 107 20 107 97z" />
    <glyph glyph-name="Thorn.sc" unicode="&#xe02a;" horiz-adv-x="396" 
d="M172 0h-141v61l31 4v421l-31 3v63h141v-64l-31 -3v-30c14 1 28 1 42 1c107 0 188 -27 188 -164v-12c0 -136 -81 -166 -186 -166h-44v-47l31 -3v-64zM291 280v12c0 79 -32 94 -107 94c-14 0 -27 -1 -43 -1v-201h43c75 0 107 19 107 96z" />
    <glyph glyph-name="Q.sc" unicode="&#xe02b;" horiz-adv-x="417" 
d="M383 223c0 -130 -42 -212 -138 -228v-50c0 -25 5 -29 38 -29h47v-52c-11 -3 -43 -9 -74 -9c-55 0 -87 17 -87 88v52c-95 17 -135 102 -135 228v106c0 145 54 231 174 231c121 0 175 -84 175 -231v-106zM303 223v105c0 115 -30 159 -95 159c-64 0 -94 -46 -94 -159v-105
c0 -112 30 -160 94 -160c65 0 95 46 95 160z" />
    <glyph glyph-name="Qalt.sc" unicode="&#xe595;" horiz-adv-x="417" 
d="M383 223c0 -130 -42 -212 -138 -228v-131h-76v131c-95 17 -135 102 -135 228v106c0 145 54 231 174 231c121 0 175 -84 175 -231v-106zM303 223v105c0 115 -30 159 -95 159c-64 0 -94 -46 -94 -159v-105c0 -112 30 -160 94 -160c65 0 95 46 95 160z" />
    <glyph glyph-name="R.sc" unicode="&#xe02c;" horiz-adv-x="427" 
d="M173 0h-142v61l31 4v421l-31 4v62c48 1 98 1 147 1c109 0 193 -30 193 -164v-7c0 -82 -28 -127 -78 -151l74 -166l36 -4v-61h-95l-93 213c-9 -1 -22 -1 -32 -1h-41v-145l31 -3v-64zM292 382v7c0 79 -33 94 -111 94h-39v-203h42c79 0 108 26 108 102z" />
    <glyph glyph-name="Racute.sc" unicode="&#xe069;" horiz-adv-x="427" 
d="M173 0h-142v61l31 4v421l-31 4v62c48 1 98 1 147 1c109 0 193 -30 193 -164v-7c0 -82 -28 -127 -78 -151l74 -166l36 -4v-61h-95l-93 213c-9 -1 -22 -1 -32 -1h-41v-145l31 -3v-64zM292 382v7c0 79 -33 94 -111 94h-39v-203h42c79 0 108 26 108 102zM338 760l-111 -153
h-79l96 153h94z" />
    <glyph glyph-name="Rcaron.sc" unicode="&#xe06a;" horiz-adv-x="427" 
d="M173 0h-142v61l31 4v421l-31 4v62c48 1 98 1 147 1c109 0 193 -30 193 -164v-7c0 -82 -28 -127 -78 -151l74 -166l36 -4v-61h-95l-93 213c-9 -1 -22 -1 -32 -1h-41v-145l31 -3v-64zM292 382v7c0 79 -33 94 -111 94h-39v-203h42c79 0 108 26 108 102zM361 760l-100 -153
h-113l-101 153h78l79 -106l80 106h77z" />
    <glyph glyph-name="Rcommaaccent.sc" unicode="&#xe06b;" horiz-adv-x="427" 
d="M173 0h-142v61l31 4v421l-31 4v62c48 1 98 1 147 1c109 0 193 -30 193 -164v-7c0 -82 -28 -127 -78 -151l74 -166l36 -4v-61h-95l-93 213c-9 -1 -22 -1 -32 -1h-41v-145l31 -3v-64zM292 382v7c0 79 -33 94 -111 94h-39v-203h42c79 0 108 26 108 102zM261 -62l-75 -144
h-74l52 144h97z" />
    <glyph glyph-name="S.sc" unicode="&#xe02d;" horiz-adv-x="350" 
d="M322 145c0 -100 -53 -154 -157 -154c-57 0 -113 11 -130 16v103h57l6 -48c21 -1 39 -2 59 -2c60 0 83 21 83 85c0 37 -12 58 -55 86l-68 44c-62 40 -90 82 -90 152c0 94 51 133 152 133c59 0 112 -11 130 -17v-99h-57l-7 45c-17 1 -38 1 -55 1c-55 0 -82 -16 -82 -65
c0 -38 10 -59 54 -86l67 -42c66 -41 93 -90 93 -152z" />
    <glyph glyph-name="Sacute.sc" unicode="&#xe06c;" horiz-adv-x="350" 
d="M322 145c0 -100 -53 -154 -157 -154c-57 0 -113 11 -130 16v103h57l6 -48c21 -1 39 -2 59 -2c60 0 83 21 83 85c0 37 -12 58 -55 86l-68 44c-62 40 -90 82 -90 152c0 94 51 133 152 133c59 0 112 -11 130 -17v-99h-57l-7 45c-17 1 -38 1 -55 1c-55 0 -82 -16 -82 -65
c0 -38 10 -59 54 -86l67 -42c66 -41 93 -90 93 -152zM318 760l-111 -153h-79l96 153h94z" />
    <glyph glyph-name="Scaron.sc" unicode="&#xe02e;" horiz-adv-x="350" 
d="M322 145c0 -100 -53 -154 -157 -154c-57 0 -113 11 -130 16v103h57l6 -48c21 -1 39 -2 59 -2c60 0 83 21 83 85c0 37 -12 58 -55 86l-68 44c-62 40 -90 82 -90 152c0 94 51 133 152 133c59 0 112 -11 130 -17v-99h-57l-7 45c-17 1 -38 1 -55 1c-55 0 -82 -16 -82 -65
c0 -38 10 -59 54 -86l67 -42c66 -41 93 -90 93 -152zM339 760l-100 -153h-113l-101 153h78l79 -106l80 106h77z" />
    <glyph glyph-name="Scedilla.sc" unicode="&#xe06d;" horiz-adv-x="350" 
d="M322 145c0 -100 -53 -154 -157 -154c-57 0 -113 11 -130 16v103h57l6 -48c21 -1 39 -2 59 -2c60 0 83 21 83 85c0 37 -12 58 -55 86l-68 44c-62 40 -90 82 -90 152c0 94 51 133 152 133c59 0 112 -11 130 -17v-99h-57l-7 45c-17 1 -38 1 -55 1c-55 0 -82 -16 -82 -65
c0 -38 10 -59 54 -86l67 -42c66 -41 93 -90 93 -152zM225 -62l-105 -144h-77l87 144h95z" />
    <glyph glyph-name="Scircumflex.sc" unicode="&#xe06e;" horiz-adv-x="350" 
d="M322 145c0 -100 -53 -154 -157 -154c-57 0 -113 11 -130 16v103h57l6 -48c21 -1 39 -2 59 -2c60 0 83 21 83 85c0 37 -12 58 -55 86l-68 44c-62 40 -90 82 -90 152c0 94 51 133 152 133c59 0 112 -11 130 -17v-99h-57l-7 45c-17 1 -38 1 -55 1c-55 0 -82 -16 -82 -65
c0 -38 10 -59 54 -86l67 -42c66 -41 93 -90 93 -152zM335 607h-77l-80 106l-79 -106h-78l101 153h113z" />
    <glyph glyph-name="Scommaaccent.sc" unicode="&#xe06f;" horiz-adv-x="350" 
d="M322 145c0 -100 -53 -154 -157 -154c-57 0 -113 11 -130 16v103h57l6 -48c21 -1 39 -2 59 -2c60 0 83 21 83 85c0 37 -12 58 -55 86l-68 44c-62 40 -90 82 -90 152c0 94 51 133 152 133c59 0 112 -11 130 -17v-99h-57l-7 45c-17 1 -38 1 -55 1c-55 0 -82 -16 -82 -65
c0 -38 10 -59 54 -86l67 -42c66 -41 93 -90 93 -152zM230 -62l-75 -144h-74l52 144h97z" />
    <glyph glyph-name="T.sc" unicode="&#xe02f;" horiz-adv-x="393" 
d="M365 443h-56l-7 40h-65v-419l30 -4v-60h-142v60l31 4v419h-66l-6 -40h-57v109h338v-109z" />
    <glyph glyph-name="Tcaron.sc" unicode="&#xe071;" horiz-adv-x="393" 
d="M365 443h-56l-7 40h-65v-419l30 -4v-60h-142v60l31 4v419h-66l-6 -40h-57v109h338v-109zM354 760l-100 -153h-113l-101 153h78l79 -106l80 106h77z" />
    <glyph glyph-name="Tbar.sc" unicode="&#xe070;" horiz-adv-x="393" 
d="M365 443h-56l-7 40h-65v-135h101v-72h-101v-212l30 -4v-60h-142v60l31 4v212h-104v72h104v135h-66l-6 -40h-57v109h338v-109z" />
    <glyph glyph-name="Tcommaaccent.sc" unicode="&#xe072;" horiz-adv-x="393" 
d="M365 443h-56l-7 40h-65v-419l30 -4v-60h-142v60l31 4v419h-66l-6 -40h-57v109h338v-109zM252 -62l-75 -144h-74l52 144h97z" />
    <glyph glyph-name="U.sc" unicode="&#xe030;" horiz-adv-x="457" 
d="M284 552h142v-62l-31 -4v-280c0 -123 -40 -215 -166 -215c-127 0 -167 92 -167 215v280l-31 4v62h142v-64l-31 -3v-268c0 -112 15 -155 87 -155c70 0 86 44 86 155v268l-31 3v64z" />
    <glyph glyph-name="Uacute.sc" unicode="&#xe031;" horiz-adv-x="457" 
d="M284 552h142v-62l-31 -4v-280c0 -123 -40 -215 -166 -215c-127 0 -167 92 -167 215v280l-31 4v62h142v-64l-31 -3v-268c0 -112 15 -155 87 -155c70 0 86 44 86 155v268l-31 3v64zM376 760l-111 -153h-79l96 153h94z" />
    <glyph glyph-name="Ubreve.sc" unicode="&#xe073;" horiz-adv-x="457" 
d="M284 552h142v-62l-31 -4v-280c0 -123 -40 -215 -166 -215c-127 0 -167 92 -167 215v280l-31 4v62h142v-64l-31 -3v-268c0 -112 15 -155 87 -155c70 0 86 44 86 155v268l-31 3v64zM361 760c-3 -85 -24 -155 -131 -155s-127 70 -131 155h63c4 -77 19 -98 68 -98
s65 21 68 98h63z" />
    <glyph glyph-name="Ucircumflex.sc" unicode="&#xe032;" horiz-adv-x="457" 
d="M284 552h142v-62l-31 -4v-280c0 -123 -40 -215 -166 -215c-127 0 -167 92 -167 215v280l-31 4v62h142v-64l-31 -3v-268c0 -112 15 -155 87 -155c70 0 86 44 86 155v268l-31 3v64zM384 607h-77l-80 106l-79 -106h-78l101 153h113z" />
    <glyph glyph-name="Udieresis.sc" unicode="&#xe033;" horiz-adv-x="457" 
d="M284 552h142v-62l-31 -4v-280c0 -123 -40 -215 -166 -215c-127 0 -167 92 -167 215v280l-31 4v62h142v-64l-31 -3v-268c0 -112 15 -155 87 -155c70 0 86 44 86 155v268l-31 3v64zM357 630h-80v112h80v-112zM178 630v112h-80v-112h80z" />
    <glyph glyph-name="Uhungarumlaut.sc" unicode="&#xe074;" horiz-adv-x="457" 
d="M284 552h142v-62l-31 -4v-280c0 -123 -40 -215 -166 -215c-127 0 -167 92 -167 215v280l-31 4v62h142v-64l-31 -3v-268c0 -112 15 -155 87 -155c70 0 86 44 86 155v268l-31 3v64zM451 759l-111 -153h-80l96 153h95zM284 759h-94l-96 -153h79z" />
    <glyph glyph-name="Ugrave.sc" unicode="&#xe034;" horiz-adv-x="457" 
d="M284 552h142v-62l-31 -4v-280c0 -123 -40 -215 -166 -215c-127 0 -167 92 -167 215v280l-31 4v62h142v-64l-31 -3v-268c0 -112 15 -155 87 -155c70 0 86 44 86 155v268l-31 3v64zM285 607h-80l-111 153h95z" />
    <glyph glyph-name="Umacron.sc" unicode="&#xe075;" horiz-adv-x="457" 
d="M284 552h142v-62l-31 -4v-280c0 -123 -40 -215 -166 -215c-127 0 -167 92 -167 215v280l-31 4v62h142v-64l-31 -3v-268c0 -112 15 -155 87 -155c70 0 86 44 86 155v268l-31 3v64zM362 630h-270v66h270v-66z" />
    <glyph glyph-name="Uogonek.sc" unicode="&#xe076;" horiz-adv-x="457" 
d="M300 -205c-19 -5 -43 -9 -71 -9c-72 0 -107 39 -107 93c0 36 13 65 63 116c-92 19 -123 103 -123 211v280l-31 4v62h142v-64l-31 -3v-268c0 -112 15 -155 87 -155c70 0 86 44 86 155v268l-31 3v64h142v-62l-31 -4v-280c0 -109 -32 -194 -127 -211
c-68 -66 -74 -88 -74 -110c0 -28 11 -44 49 -44c22 0 42 2 57 3v-49z" />
    <glyph glyph-name="Uring.sc" unicode="&#xe077;" horiz-adv-x="457" 
d="M284 552h142v-62l-31 -4v-280c0 -123 -40 -215 -166 -215c-127 0 -167 92 -167 215v280l-31 4v62h142v-64l-31 -3v-268c0 -112 15 -155 87 -155c70 0 86 44 86 155v268l-31 3v64zM334 711c0 -79 -44 -110 -104 -110s-105 31 -105 110s45 111 105 111s104 -32 104 -111z
M275 711c0 48 -21 58 -45 58c-25 0 -45 -10 -45 -58c0 -47 20 -57 45 -57c24 0 45 10 45 57z" />
    <glyph glyph-name="Utilde.sc" unicode="&#xe078;" horiz-adv-x="457" 
d="M284 552h142v-62l-31 -4v-280c0 -123 -40 -215 -166 -215c-127 0 -167 92 -167 215v280l-31 4v62h142v-64l-31 -3v-268c0 -112 15 -155 87 -155c70 0 86 44 86 155v268l-31 3v64zM400 714c0 -66 -21 -110 -87 -110c-38 0 -66 13 -92 46l-22 27c-16 20 -28 30 -45 30
c-19 0 -27 -15 -27 -49v-49h-61v49c0 66 26 110 88 110c39 0 66 -16 92 -48l21 -26c18 -22 28 -28 45 -28c20 0 27 14 27 48v50h61v-50z" />
    <glyph glyph-name="V.sc" unicode="&#xe035;" horiz-adv-x="449" 
d="M282 552h145v-62l-31 -4l-114 -486h-116l-114 486l-31 4v62h145v-64l-31 -3l71 -319c8 -35 13 -74 17 -104h2c5 30 10 69 18 104l70 319l-31 3v64z" />
    <glyph glyph-name="W.sc" unicode="&#xe036;" horiz-adv-x="583" 
d="M418 552h141v-62l-31 -4l-63 -486h-112l-49 260c-5 26 -10 59 -12 81h-3c-3 -21 -7 -55 -12 -81l-48 -260h-113l-64 486l-31 4v62h143v-64l-31 -3l34 -295c5 -40 7 -67 9 -108h5c4 41 7 68 15 106l43 214h104l44 -215c8 -38 10 -63 15 -106h4c3 43 5 71 9 109l34 295
l-31 3v64z" />
    <glyph glyph-name="Wacute.sc" unicode="&#xe079;" horiz-adv-x="583" 
d="M418 552h141v-62l-31 -4l-63 -486h-112l-49 260c-5 26 -10 59 -12 81h-3c-3 -21 -7 -55 -12 -81l-48 -260h-113l-64 486l-31 4v62h143v-64l-31 -3l34 -295c5 -40 7 -67 9 -108h5c4 41 7 68 15 106l43 214h104l44 -215c8 -38 10 -63 15 -106h4c3 43 5 71 9 109l34 295
l-31 3v64zM443 760l-111 -153h-79l96 153h94z" />
    <glyph glyph-name="Wcircumflex.sc" unicode="&#xe07a;" horiz-adv-x="583" 
d="M418 552h141v-62l-31 -4l-63 -486h-112l-49 260c-5 26 -10 59 -12 81h-3c-3 -21 -7 -55 -12 -81l-48 -260h-113l-64 486l-31 4v62h143v-64l-31 -3l34 -295c5 -40 7 -67 9 -108h5c4 41 7 68 15 106l43 214h104l44 -215c8 -38 10 -63 15 -106h4c3 43 5 71 9 109l34 295
l-31 3v64zM448 607h-77l-80 106l-79 -106h-78l101 153h113z" />
    <glyph glyph-name="Wdieresis.sc" unicode="&#xe07b;" horiz-adv-x="583" 
d="M418 552h141v-62l-31 -4l-63 -486h-112l-49 260c-5 26 -10 59 -12 81h-3c-3 -21 -7 -55 -12 -81l-48 -260h-113l-64 486l-31 4v62h143v-64l-31 -3l34 -295c5 -40 7 -67 9 -108h5c4 41 7 68 15 106l43 214h104l44 -215c8 -38 10 -63 15 -106h4c3 43 5 71 9 109l34 295
l-31 3v64zM421 630h-80v112h80v-112zM242 630v112h-80v-112h80z" />
    <glyph glyph-name="Wgrave.sc" unicode="&#xe07c;" horiz-adv-x="583" 
d="M418 552h141v-62l-31 -4l-63 -486h-112l-49 260c-5 26 -10 59 -12 81h-3c-3 -21 -7 -55 -12 -81l-48 -260h-113l-64 486l-31 4v62h143v-64l-31 -3l34 -295c5 -40 7 -67 9 -108h5c4 41 7 68 15 106l43 214h104l44 -215c8 -38 10 -63 15 -106h4c3 43 5 71 9 109l34 295
l-31 3v64zM347 607h-80l-111 153h95z" />
    <glyph glyph-name="X.sc" unicode="&#xe037;" horiz-adv-x="419" 
d="M307 0l-102 198l-96 -198h-88v61l34 4l108 215l-105 206l-34 4v62h91l100 -196l93 196h87v-62l-34 -4l-107 -208l109 -213l35 -4v-61h-91z" />
    <glyph glyph-name="Y.sc" unicode="&#xe038;" horiz-adv-x="395" 
d="M233 552h141v-62l-31 -4l-106 -270v-150l31 -4v-62h-141v62l31 4v150l-107 270l-30 4v62h142v-61l-30 -3l38 -105c9 -25 20 -62 26 -82h1c7 20 17 58 26 82l38 105l-29 3v61z" />
    <glyph glyph-name="Yacute.sc" unicode="&#xe039;" horiz-adv-x="395" 
d="M233 552h141v-62l-31 -4l-106 -270v-150l31 -4v-62h-141v62l31 4v150l-107 270l-30 4v62h142v-61l-30 -3l38 -105c9 -25 20 -62 26 -82h1c7 20 17 58 26 82l38 105l-29 3v61zM332 760l-111 -153h-79l96 153h94z" />
    <glyph glyph-name="Ycircumflex.sc" unicode="&#xe07d;" horiz-adv-x="395" 
d="M233 552h141v-62l-31 -4l-106 -270v-150l31 -4v-62h-141v62l31 4v150l-107 270l-30 4v62h142v-61l-30 -3l38 -105c9 -25 20 -62 26 -82h1c7 20 17 58 26 82l38 105l-29 3v61zM355 607h-77l-80 106l-79 -106h-78l101 153h113z" />
    <glyph glyph-name="Ydieresis.sc" unicode="&#xe03a;" horiz-adv-x="395" 
d="M233 552h141v-62l-31 -4l-106 -270v-150l31 -4v-62h-141v62l31 4v150l-107 270l-30 4v62h142v-61l-30 -3l38 -105c9 -25 20 -62 26 -82h1c7 20 17 58 26 82l38 105l-29 3v61zM329 630h-80v112h80v-112zM150 630v112h-80v-112h80z" />
    <glyph glyph-name="Ygrave.sc" unicode="&#xe07e;" horiz-adv-x="395" 
d="M233 552h141v-62l-31 -4l-106 -270v-150l31 -4v-62h-141v62l31 4v150l-107 270l-30 4v62h142v-61l-30 -3l38 -105c9 -25 20 -62 26 -82h1c7 20 17 58 26 82l38 105l-29 3v61zM253 607h-80l-111 153h95z" />
    <glyph glyph-name="Z.sc" unicode="&#xe03b;" horiz-adv-x="373" 
d="M342 0h-311v80l218 403h-147l-8 -40h-55v109h296v-82l-217 -402h161l7 44h56v-112z" />
    <glyph glyph-name="Zacute.sc" unicode="&#xe07f;" horiz-adv-x="373" 
d="M342 0h-311v80l218 403h-147l-8 -40h-55v109h296v-82l-217 -402h161l7 44h56v-112zM334 760l-111 -153h-79l96 153h94z" />
    <glyph glyph-name="Zcaron.sc" unicode="&#xe03c;" horiz-adv-x="373" 
d="M342 0h-311v80l218 403h-147l-8 -40h-55v109h296v-82l-217 -402h161l7 44h56v-112zM348 760l-100 -153h-113l-101 153h78l79 -106l80 106h77z" />
    <glyph glyph-name="Zdotaccent.sc" unicode="&#xe080;" horiz-adv-x="373" 
d="M342 0h-311v80l218 403h-147l-8 -40h-55v109h296v-82l-217 -402h161l7 44h56v-112zM227 630h-83v113h83v-113z" />
    <glyph glyph-name="ampersand.sc" unicode="&#xe08c;" horiz-adv-x="483" 
d="M195 -8c-83 0 -160 36 -160 144v8c0 58 27 105 86 150l-2 3c-42 54 -63 87 -63 146v7c0 87 55 127 147 127c59 0 117 -11 137 -17v-103h-61l-7 50h-66c-41 0 -67 -14 -67 -58v-6c0 -41 12 -64 43 -104l149 -190c14 40 15 87 17 126l-32 4v54h135v-54l-33 -5
c0 -64 -10 -132 -40 -185l58 -73v-16h-84l-24 31c-33 -24 -76 -39 -133 -39zM119 144v-8c0 -56 39 -79 82 -79c37 0 65 9 86 25l-122 156c-36 -28 -46 -57 -46 -94z" />
    <glyph glyph-name="ampersandalt.sc" unicode="&#xe451;" horiz-adv-x="483" 
d="M34 133c0 46 25 103 95 155l-8 10c-42 54 -66 92 -66 152v5c0 81 65 123 152 123c92 0 146 -42 146 -123v-5c0 -43 -20 -102 -121 -174l101 -128c12 35 16 78 16 126v9h70v-8c0 -70 -13 -135 -41 -185l59 -74v-16h-82l-26 33c-34 -26 -77 -41 -133 -41
c-83 0 -162 29 -162 137v4zM202 57c38 0 66 9 88 26l-120 152c-35 -27 -51 -62 -51 -99v-4c0 -56 40 -75 83 -75zM138 450c0 -45 17 -75 47 -113l7 -9c62 51 78 79 78 122v5c0 43 -30 52 -63 52c-36 0 -69 -9 -69 -52v-5z" />
    <glyph glyph-name="exclam.sc" unicode="&#xe08b;" horiz-adv-x="179" 
d="M130 0h-81v105h81v-105zM132 570l-6 -418h-73l-7 418h86z" />
    <glyph glyph-name="exclamdown.sc" unicode="&#xe08f;" horiz-adv-x="179" 
d="M132 -18h-86l7 418h73zM130 552v-106h-81v106h81z" />
    <glyph glyph-name="questiondown.sc" unicode="&#xe094;" horiz-adv-x="303" 
d="M136 552h75v-105h-75v105zM28 100c0 39 12 77 52 132c51 69 60 90 60 137v32h68v-32c0 -56 -8 -94 -49 -148c-43 -57 -49 -80 -49 -115v-7c0 -43 20 -55 66 -55c10 0 21 1 26 1l8 43h55v-96c-29 -9 -72 -17 -109 -17c-78 0 -128 30 -128 117v8z" />
    <glyph glyph-name="question.sc" unicode="&#xe08d;" horiz-adv-x="303" 
d="M157 0h-75v105h75v-105zM265 452c0 -39 -12 -77 -52 -132c-51 -69 -60 -90 -60 -137v-32h-68v32c0 56 8 94 49 148c43 57 49 80 49 115v7c0 43 -20 55 -66 55c-10 0 -21 -1 -26 -1l-8 -43h-55v96c29 9 72 17 109 17c78 0 128 -30 128 -117v-8z" />
    <glyph glyph-name="Acute" unicode="&#xf6c9;" 
d="M298 947l-111 -153h-79l96 153h94z" />
    <glyph glyph-name="Aringacute" unicode="&#x1fa;" horiz-adv-x="556" 
d="M382 831c0 -56 -50 -77 -104 -77c-55 0 -106 21 -106 77s51 77 106 77c54 0 104 -21 104 -77zM328 831c0 22 -20 32 -50 32c-32 0 -51 -10 -51 -32c0 -21 19 -32 51 -32c30 0 50 11 50 32zM409 1023l-97 -105h-79l81 105h95zM185 0h-166v71l40 5l139 591l-43 5v71h182
l157 -667l43 -5v-71h-167v71l37 4l-38 170h-183l-38 -170l37 -4v-71zM350 326l-47 207c-11 51 -17 94 -22 135h-6c-6 -41 -10 -84 -22 -135l-48 -207h145z" />
    <glyph glyph-name="Breve" unicode="&#xf71d;" 
d="M295 947c-3 -85 -24 -155 -131 -155s-127 70 -131 155h63c4 -77 19 -98 68 -98s65 21 68 98h63z" />
    <glyph glyph-name="Caron" unicode="&#xf6ca;" 
d="M321 947l-100 -153h-113l-101 153h78l79 -106l80 106h77z" />
    <glyph glyph-name="Cedilla" unicode="&#xf722;" 
d="M225 -62l-105 -144h-77l87 144h95z" />
    <glyph glyph-name="Circumflex" unicode="&#xf71e;" 
d="M321 794h-77l-80 106l-79 -106h-78l101 153h113z" />
    <glyph glyph-name="Dieresis" unicode="&#xf6cb;" 
d="M294 822h-80v112h80v-112zM115 822v112h-80v-112h80z" />
    <glyph glyph-name="DieresisAcute" unicode="&#xf6cc;" 
d="M364 823h-80v112h80v-112zM159 956h95l-99 -162h-79zM44 823h-80v112h80v-112z" />
    <glyph glyph-name="DieresisGrave" unicode="&#xf6cd;" 
d="M364 823h-80v112h80v-112zM169 956l84 -162h-80l-99 162h95zM44 823h-80v112h80v-112z" />
    <glyph glyph-name="Dotaccent" unicode="&#xf71a;" 
d="M206 840h-83v113h83v-113z" />
    <glyph glyph-name="Euro.taboldstyle" unicode="&#xe430;" horiz-adv-x="447" 
d="M394 4c-19 -6 -70 -14 -111 -14c-102 0 -170 29 -181 185h-43v63h42v68h-42v63h43c8 169 78 198 181 198c41 0 92 -8 111 -14v-110h-61l-9 43c-11 1 -23 1 -35 1c-63 0 -98 -14 -103 -118h191l-15 -63h-177v-68h162l-14 -63h-147c5 -90 41 -107 104 -107c33 0 86 4 104 7
v-71z" />
    <glyph glyph-name="Grave" unicode="&#xf6ce;" 
d="M215 794h-80l-111 153h95z" />
    <glyph glyph-name="Hungarumlaut" unicode="&#xf6cf;" 
d="M208 945l-111 -153h-79l96 153h94zM375 945l-111 -153h-80l96 153h95z" />
    <glyph glyph-name="Macron" unicode="&#xf6d0;" 
d="M299 840h-270v66h270v-66z" />
    <glyph glyph-name="Ogonek" unicode="&#xe46c;" 
d="M260 -205c-15 -4 -39 -9 -70 -9c-74 0 -108 41 -108 95c0 40 19 72 97 141h83c-102 -89 -108 -112 -108 -140c0 -24 11 -41 49 -41c18 0 37 2 57 3v-49z" />
    <glyph glyph-name="Q.alt" unicode="&#xe23c;" horiz-adv-x="510" 
d="M296 -177h-83v170c-130 21 -178 137 -178 299v159c0 178 57 302 220 302c162 0 220 -124 220 -302v-159c0 -162 -49 -278 -179 -299v-170zM255 68c92 0 134 70 134 224v159c0 154 -42 224 -134 224c-93 0 -135 -70 -135 -224v-159c0 -154 42 -224 135 -224z" />
    <glyph glyph-name="Ring" unicode="&#xf71b;" 
d="M269 883c0 -79 -44 -110 -104 -110s-105 31 -105 110s45 111 105 111s104 -32 104 -111zM210 883c0 48 -21 58 -45 58c-25 0 -45 -10 -45 -58c0 -47 20 -57 45 -57c24 0 45 10 45 57z" />
    <glyph glyph-name="T_h" unicode="&#xfb10;" horiz-adv-x="845" 
d="M821 0h-125v370c0 90 -15 116 -68 116c-40 0 -82 -16 -111 -35v-375l42 -5v-71h-167v71l42 5v590h-159v-592l42 -5v-69h-169v69l42 5v592h-94l-10 -57h-64v134h495v-221c27 18 72 38 130 38c103 0 132 -77 132 -185v-299l42 -5v-71z" />
    <glyph glyph-name="T_h.caron" unicode="&#xfb11;" horiz-adv-x="845" 
d="M821 0h-125v370c0 90 -15 116 -68 116c-40 0 -82 -16 -111 -35v-375l42 -5v-71h-167v71l42 5v590h-159v-592l42 -5v-69h-169v69l42 5v592h-94l-10 -57h-64v134h495v-221c27 18 72 38 130 38c103 0 132 -77 132 -185v-299l42 -5v-71zM387 939l-100 -153h-113l-101 153h78
l79 -106l80 106h77z" />
    <glyph glyph-name="T_h.commaaccent" unicode="&#xfb12;" horiz-adv-x="845" 
d="M821 0h-125v370c0 90 -15 116 -68 116c-40 0 -82 -16 -111 -35v-375l42 -5v-71h-167v71l42 5v590h-159v-592l42 -5v-69h-169v69l42 5v592h-94l-10 -57h-64v134h495v-221c27 18 72 38 130 38c103 0 132 -77 132 -185v-299l42 -5v-71zM281 -62l-75 -144h-74l52 144h97z" />
    <glyph glyph-name="Tilde" unicode="&#xf71c;" 
d="M333 901c0 -66 -21 -110 -87 -110c-38 0 -66 13 -92 46l-22 27c-16 20 -28 30 -45 30c-19 0 -27 -15 -27 -49v-49h-61v49c0 66 26 110 88 110c39 0 66 -16 92 -48l21 -26c18 -22 28 -28 45 -28c20 0 27 14 27 48v50h61v-50z" />
    <glyph glyph-name="a.alt" unicode="&#xe245;" horiz-adv-x="450" 
d="M424 0h-122v25c-30 -20 -70 -35 -116 -35c-105 0 -150 70 -150 206v139c0 176 70 225 187 225c42 0 111 -3 159 -10v-474l42 -5v-71zM299 90v394c-29 3 -62 4 -76 4c-70 0 -104 -22 -104 -153v-139c0 -93 21 -132 86 -132c33 0 64 9 94 26z" />
    <glyph glyph-name="a.alt2" unicode="&#xe43e;" horiz-adv-x="424" 
d="M402 0h-118v31c-29 -22 -74 -41 -127 -41c-90 0 -127 53 -127 147v27c0 127 68 165 195 165h52v52c0 89 -14 106 -96 106c-34 0 -86 -7 -126 -13v65c25 8 79 21 138 21c138 0 167 -53 167 -179v-305l42 -5v-71zM277 89v177h-52c-84 0 -112 -20 -112 -102v-37
c0 -56 20 -70 62 -70s83 19 102 32z" />
    <glyph glyph-name="aacute.alt" unicode="&#xe281;" horiz-adv-x="450" 
d="M424 0h-122v25c-30 -20 -70 -35 -116 -35c-105 0 -150 70 -150 206v139c0 176 70 225 187 225c42 0 111 -3 159 -10v-474l42 -5v-71zM299 90v394c-29 3 -62 4 -76 4c-70 0 -104 -22 -104 -153v-139c0 -93 21 -132 86 -132c33 0 64 9 94 26zM367 760l-111 -153h-79l96 153
h94z" />
    <glyph glyph-name="abreve.alt" unicode="&#xe441;" horiz-adv-x="450" 
d="M424 0h-122v25c-30 -20 -70 -35 -116 -35c-105 0 -150 70 -150 206v139c0 176 70 225 187 225c42 0 111 -3 159 -10v-474l42 -5v-71zM299 90v394c-29 3 -62 4 -76 4c-70 0 -104 -22 -104 -153v-139c0 -93 21 -132 86 -132c33 0 64 9 94 26zM357 760
c-3 -85 -24 -155 -131 -155s-127 70 -131 155h63c4 -77 19 -98 68 -98s65 21 68 98h63z" />
    <glyph glyph-name="acircumflex.alt" unicode="&#xe283;" horiz-adv-x="450" 
d="M424 0h-122v25c-30 -20 -70 -35 -116 -35c-105 0 -150 70 -150 206v139c0 176 70 225 187 225c42 0 111 -3 159 -10v-474l42 -5v-71zM299 90v394c-29 3 -62 4 -76 4c-70 0 -104 -22 -104 -153v-139c0 -93 21 -132 86 -132c33 0 64 9 94 26zM373 607h-77l-80 106l-79 -106
h-78l101 153h113z" />
    <glyph glyph-name="adieresis.alt" unicode="&#xe284;" horiz-adv-x="450" 
d="M424 0h-122v25c-30 -20 -70 -35 -116 -35c-105 0 -150 70 -150 206v139c0 176 70 225 187 225c42 0 111 -3 159 -10v-474l42 -5v-71zM299 90v394c-29 3 -62 4 -76 4c-70 0 -104 -22 -104 -153v-139c0 -93 21 -132 86 -132c33 0 64 9 94 26zM349 635h-80v112h80v-112z
M170 635v112h-80v-112h80z" />
    <glyph glyph-name="afii61352" unicode="&#x2116;" horiz-adv-x="906" 
d="M876 177h-319v69h319v-69zM876 515c0 -122 -31 -222 -159 -222s-160 100 -160 222v16c0 122 32 222 160 222s159 -100 159 -222v-16zM803 515v16c0 99 -16 157 -86 157s-86 -58 -86 -157v-16c0 -99 16 -157 86 -157s86 58 86 157zM373 743h164v-71l-42 -5v-667h-116
l-193 541c-13 35 -26 67 -40 113h-2c5 -50 8 -95 8 -147v-431l42 -5v-71h-164v71l42 5v591l-42 5v71h162l188 -518c11 -32 28 -75 41 -114h2c-6 60 -8 109 -8 152v404l-42 5v71z" />
    <glyph glyph-name="agrave.alt" unicode="&#xe282;" horiz-adv-x="450" 
d="M424 0h-122v25c-30 -20 -70 -35 -116 -35c-105 0 -150 70 -150 206v139c0 176 70 225 187 225c42 0 111 -3 159 -10v-474l42 -5v-71zM299 90v394c-29 3 -62 4 -76 4c-70 0 -104 -22 -104 -153v-139c0 -93 21 -132 86 -132c33 0 64 9 94 26zM276 607h-80l-111 153h95z" />
    <glyph glyph-name="amacron.alt" unicode="&#xe440;" horiz-adv-x="450" 
d="M424 0h-122v25c-30 -20 -70 -35 -116 -35c-105 0 -150 70 -150 206v139c0 176 70 225 187 225c42 0 111 -3 159 -10v-474l42 -5v-71zM299 90v394c-29 3 -62 4 -76 4c-70 0 -104 -22 -104 -153v-139c0 -93 21 -132 86 -132c33 0 64 9 94 26zM362 652h-270v66h270v-66z" />
    <glyph glyph-name="ampersand.alt" unicode="&#xe43d;" horiz-adv-x="551" 
d="M393 587c0 -59 -15 -123 -140 -220l136 -184c18 52 24 119 24 194v9h74v-10c0 -91 -10 -189 -47 -263l77 -103v-10h-95l-33 44c-37 -34 -89 -54 -158 -54c-100 0 -191 42 -191 183v5c0 77 20 132 102 200l-3 5c-54 73 -79 121 -79 204v7c0 110 66 159 169 159
c104 0 164 -49 164 -159v-7zM229 63c50 0 88 15 115 42l-157 213c-53 -44 -63 -85 -63 -140v-5c0 -82 48 -110 105 -110zM145 587c0 -52 2 -77 55 -148l11 -15c79 67 98 104 98 164v6c0 67 -30 83 -80 83c-49 0 -84 -16 -84 -83v-7z" />
    <glyph glyph-name="aogonek.alt" unicode="&#xe443;" horiz-adv-x="443" 
d="M421 -205c-18 -5 -43 -9 -71 -9c-72 0 -107 39 -107 93c0 46 21 85 66 121v30c-35 -24 -75 -40 -127 -40c-105 0 -150 70 -150 206v139c0 176 70 225 186 225c61 0 121 -4 160 -10v-474l42 -5v-71c-91 -43 -105 -88 -105 -113c0 -30 11 -46 49 -46c22 0 42 2 57 3v-49z
M295 90v394c-26 3 -59 4 -76 4c-70 0 -104 -22 -104 -153v-139c0 -93 22 -132 86 -132c33 0 64 9 94 26z" />
    <glyph glyph-name="aring.alt" unicode="&#xe286;" horiz-adv-x="443" 
d="M330 700c0 -79 -44 -110 -104 -110s-105 31 -105 110s45 111 105 111s104 -32 104 -111zM271 700c0 48 -21 58 -45 58c-25 0 -45 -10 -45 -58c0 -47 20 -57 45 -57c24 0 45 10 45 57zM420 0h-122v25c-30 -20 -70 -35 -116 -35c-105 0 -150 70 -150 206v139
c0 176 70 225 187 225c42 0 111 -3 159 -10v-474l42 -5v-71zM295 90v394c-29 3 -62 4 -76 4c-70 0 -104 -22 -104 -153v-139c0 -93 21 -132 86 -132c33 0 64 9 94 26z" />
    <glyph glyph-name="aringacute" unicode="&#x1fb;" horiz-adv-x="432" 
d="M406 0h-118v31c-29 -22 -74 -41 -127 -41c-90 0 -127 51 -127 147v28c0 126 67 164 195 164h52v52c0 89 -14 106 -96 106c-18 0 -35 0 -54 -2l-10 -52h-62v106c14 6 72 21 138 21c137 0 167 -53 167 -179v-305l42 -5v-71zM281 89v177h-52c-85 0 -112 -20 -112 -101v-38
c0 -57 21 -70 62 -70c42 0 83 19 102 32zM313 683c0 -79 -44 -110 -104 -110s-105 31 -105 110s45 111 105 111s104 -32 104 -111zM254 683c0 48 -21 58 -45 58c-25 0 -45 -10 -45 -58c0 -47 20 -57 45 -57c24 0 45 10 45 57zM354 959l-111 -153h-79l96 153h94z" />
    <glyph glyph-name="aringacute.alt" unicode="&#xe442;" horiz-adv-x="443" 
d="M335 683c0 -79 -44 -110 -104 -110s-105 31 -105 110s45 111 105 111s104 -32 104 -111zM276 683c0 48 -21 58 -45 58c-25 0 -45 -10 -45 -58c0 -47 20 -57 45 -57c24 0 45 10 45 57zM420 0h-122v25c-30 -20 -70 -35 -116 -35c-105 0 -150 70 -150 206v139
c0 176 70 225 187 225c42 0 111 -3 159 -10v-474l42 -5v-71zM295 90v394c-29 3 -62 4 -76 4c-70 0 -104 -22 -104 -153v-139c0 -93 21 -132 86 -132c33 0 64 9 94 26zM375 959l-111 -153h-79l96 153h94z" />
    <glyph glyph-name="a.superior" unicode="&#xf6e9;" horiz-adv-x="334" 
d="M305 303h-95v20c-19 -13 -52 -27 -92 -27c-61 0 -89 33 -89 94v15c0 84 56 100 142 100h33v24c0 49 -9 60 -61 60c-11 0 -22 0 -38 -2l-5 -30h-51v74c12 5 57 16 107 16c96 0 123 -34 123 -118v-166l26 -3v-57zM206 367v93h-35c-51 0 -71 -9 -71 -55v-18
c0 -30 16 -39 40 -39c28 0 54 12 66 19z" />
    <glyph glyph-name="at.cap" unicode="&#xe138;" horiz-adv-x="628" 
d="M593 466c0 -180 -72 -312 -272 -312c-118 0 -155 55 -155 139c0 16 2 57 3 83c10 172 66 209 151 209c45 0 90 -10 127 -22l-24 -326c74 30 109 112 109 229c0 157 -55 235 -189 235c-138 0 -215 -72 -240 -313c-4 -41 -9 -85 -9 -136c0 -98 30 -208 195 -208
c64 0 130 8 134 8v-46c-3 -1 -71 -14 -134 -14c-199 0 -254 127 -254 261c0 50 4 102 8 140c26 266 122 362 300 362c174 0 250 -104 250 -289zM364 515c-12 2 -28 3 -42 3c-42 0 -67 -15 -76 -145c-3 -47 -3 -63 -3 -80c0 -56 19 -76 76 -76h24z" />
    <glyph glyph-name="atilde.alt" unicode="&#xe285;" horiz-adv-x="450" 
d="M424 0h-122v25c-30 -20 -70 -35 -116 -35c-105 0 -150 70 -150 206v139c0 176 70 225 187 225c42 0 111 -3 159 -10v-474l42 -5v-71zM299 90v394c-29 3 -62 4 -76 4c-70 0 -104 -22 -104 -153v-139c0 -93 21 -132 86 -132c33 0 64 9 94 26zM398 713
c0 -66 -21 -110 -87 -110c-38 0 -66 13 -92 46l-22 27c-16 20 -28 30 -45 30c-19 0 -27 -15 -27 -49v-49h-61v49c0 66 26 110 88 110c39 0 66 -16 92 -48l21 -26c18 -22 28 -28 45 -28c20 0 27 14 27 48v50h61v-50z" />
    <glyph glyph-name="braceleft.cap" unicode="&#xe139;" horiz-adv-x="261" 
d="M236 0h-41c-120 0 -131 64 -131 132v95c0 71 -8 84 -42 117v53c34 34 42 47 42 118v95c0 73 11 133 131 133h41v-70h-41c-47 0 -51 -11 -51 -63v-95c0 -76 -18 -111 -53 -144c35 -34 54 -68 54 -144v-95c0 -52 3 -62 50 -62h41v-70z" />
    <glyph glyph-name="braceright.cap" unicode="&#xe13a;" horiz-adv-x="259" 
d="M236 344c-34 -33 -42 -46 -42 -117v-95c0 -68 -12 -132 -131 -132h-41v70h41c46 0 50 10 50 62v95c0 76 19 110 54 144c-36 33 -54 68 -54 144v95c0 52 -4 63 -50 63h-41v70h41c119 0 131 -60 131 -133v-95c0 -71 8 -84 42 -118v-53z" />
    <glyph glyph-name="bracketleft.cap" unicode="&#xe13b;" horiz-adv-x="240" 
d="M209 0h-154v743h154v-67h-77v-609h77v-67z" />
    <glyph glyph-name="bracketright.cap" unicode="&#xe13c;" horiz-adv-x="240" 
d="M185 0h-154v67h76v609h-76v67h154v-743z" />
    <glyph glyph-name="b.superior" unicode="&#xf6ea;" horiz-adv-x="338" 
d="M310 448c0 -108 -45 -151 -145 -151c-38 0 -63 1 -119 7v407l-27 3v56h100v-138c22 12 47 17 70 17c85 0 121 -47 121 -142v-59zM235 449v59c0 60 -13 80 -57 80c-13 0 -40 -2 -58 -13v-216c11 0 27 -2 47 -2c48 0 68 18 68 92z" />
    <glyph glyph-name="cent.denominator" unicode="&#xe119;" horiz-adv-x="297" 
d="M269 3c-14 -4 -44 -10 -72 -11v-74h-67v79c-63 15 -105 66 -105 186v78c0 114 38 171 105 186v76h67v-71c28 -1 58 -7 72 -11v-93h-56l-7 36h-22c-60 0 -84 -28 -84 -123v-78c0 -95 23 -123 88 -123c30 0 64 4 81 5v-62z" />
    <glyph glyph-name="cent.numerator" unicode="&#xe12d;" horiz-adv-x="297" 
d="M269 307c-14 -5 -44 -11 -72 -12v-74h-67v79c-63 15 -105 67 -105 187v77c0 114 38 172 105 187v76h67v-72c28 -1 58 -6 72 -10v-94h-56l-7 36c-6 0 -12 1 -22 1c-60 0 -84 -28 -84 -124v-77c0 -95 23 -123 88 -123c30 0 64 3 81 5v-62z" />
    <glyph glyph-name="cent.taboldstyle" unicode="&#xe500;" horiz-adv-x="427" 
d="M360 8c-21 -7 -53 -13 -83 -15v-110h-77v113c-98 18 -133 97 -133 220v127c0 121 35 200 133 219v109h77v-106c30 -3 63 -8 83 -16v-107h-61l-9 49c-11 1 -21 1 -33 1c-79 0 -107 -31 -107 -149v-127c0 -118 28 -150 107 -150c35 0 69 4 103 8v-66z" />
    <glyph glyph-name="cent.inferior" unicode="&#xf6df;" horiz-adv-x="297" 
d="M269 3c-14 -4 -44 -10 -72 -11v-74h-67v79c-63 15 -105 66 -105 186v78c0 114 38 171 105 186v76h67v-71c28 -1 58 -7 72 -11v-93h-56l-7 36h-22c-60 0 -84 -28 -84 -123v-78c0 -95 23 -123 88 -123c30 0 64 4 81 5v-62z" />
    <glyph glyph-name="cent.oldstyle" unicode="&#xf7a2;" horiz-adv-x="393" 
d="M343 8c-21 -7 -53 -13 -83 -15v-110h-77v113c-98 18 -133 97 -133 220v127c0 121 35 200 133 219v109h77v-106c30 -3 63 -8 83 -16v-107h-61l-9 49c-11 1 -21 1 -33 1c-79 0 -107 -31 -107 -149v-127c0 -118 28 -150 107 -150c35 0 69 4 103 8v-66z" />
    <glyph glyph-name="cent.superior" unicode="&#xf6e0;" horiz-adv-x="297" 
d="M273 307c-14 -5 -44 -11 -72 -12v-74h-67v79c-63 15 -105 67 -105 187v77c0 114 37 172 105 187v76h67v-72c28 -1 58 -6 72 -10v-94h-57l-6 36c-7 0 -12 1 -23 1c-59 0 -83 -28 -83 -124v-77c0 -95 22 -123 87 -123c31 0 65 3 82 5v-62z" />
    <glyph glyph-name="colonmonetary" unicode="&#x20a1;" horiz-adv-x="352" 
d="M332 9c-8 -3 -21 -7 -39 -11v-97h-64v89h-16c-15 0 -26 1 -36 2v-91h-64v114c-54 34 -76 105 -76 199v123c0 94 22 163 76 198v115h64v-92c10 1 21 2 36 2h16v90h64v-98c17 -3 32 -7 39 -11v-108h-63l-10 52c-11 1 -24 1 -36 1c-69 0 -103 -24 -103 -149v-123
c0 -124 34 -150 103 -150c25 0 62 3 109 9v-64z" />
    <glyph glyph-name="colonmonetary.taboldstyle" unicode="&#xe437;" horiz-adv-x="427" 
d="M360 8c-10 -3 -23 -6 -38 -9v-96h-64v88h-11c-15 0 -28 1 -41 4v-92h-64v115c-54 35 -75 103 -75 198v126c0 95 21 163 75 198v110h64v-87c12 3 26 4 41 4h11v83h64v-92c15 -2 28 -5 38 -8v-108h-61l-10 48c-10 1 -20 1 -32 1c-78 0 -106 -30 -106 -149v-126
c0 -118 28 -149 106 -149c35 0 69 4 103 8v-67z" />
    <glyph glyph-name="comma.denominator" unicode="&#xe11a;" horiz-adv-x="170" 
d="M140 89l-60 -145h-61l42 145h79z" />
    <glyph glyph-name="comma.numerator" unicode="&#xe130;" horiz-adv-x="170" 
d="M140 393l-60 -145h-61l42 145h79z" />
    <glyph glyph-name="commaaccent" unicode="&#xf6c3;" horiz-adv-x="465" 
d="M291 -62l-75 -144h-74l52 144h97z" />
    <glyph glyph-name="commaaccent.alt" unicode="&#xe504;" horiz-adv-x="465" 
d="M312 751l-52 -144h-97l75 144h74z" />
    <glyph glyph-name="commaaccent.cap" unicode="&#xe46b;" horiz-adv-x="465" 
d="M291 -62l-75 -144h-74l52 144h97z" />
    <glyph glyph-name="comma.inferior" unicode="&#xf6e1;" horiz-adv-x="170" 
d="M140 89l-60 -145h-61l42 145h79z" />
    <glyph glyph-name="comma.superior" unicode="&#xf6e2;" horiz-adv-x="170" 
d="M140 393l-60 -145h-61l42 145h79z" />
    <glyph glyph-name="currency.taboldstyle" unicode="&#xe438;" horiz-adv-x="481" 
d="M457 142l-59 -58l-64 64c-29 -17 -64 -27 -93 -27c-33 0 -65 7 -94 27l-65 -63l-58 57l64 64c-16 27 -26 63 -26 94c0 33 7 64 26 93l-64 64l58 57l65 -63c28 18 62 26 94 26c33 0 64 -7 94 -26l64 62l58 -56l-65 -64c17 -30 27 -62 27 -93c0 -33 -8 -65 -26 -94z
M350 300c0 60 -49 111 -109 111c-62 0 -109 -51 -109 -111c0 -62 48 -112 109 -112c60 0 109 50 109 112z" />
    <glyph glyph-name="cyrBreve" unicode="&#xf6d1;" 
d="M295 760c-3 -85 -24 -155 -131 -155s-127 70 -131 155h63c4 -77 19 -98 68 -98s65 21 68 98h63z" />
    <glyph glyph-name="cyrFlex" unicode="&#xf6d2;" 
d="M295 607h-63c-3 77 -19 98 -68 98s-64 -21 -68 -98h-63c4 85 24 154 131 154s128 -69 131 -154z" />
    <glyph glyph-name="cyrbreve" unicode="&#xf6d4;" 
d="M295 760c-3 -85 -24 -155 -131 -155s-127 70 -131 155h63c4 -77 19 -98 68 -98s65 21 68 98h63z" />
    <glyph glyph-name="cyrflex" unicode="&#xf6d5;" 
d="M295 607h-63c-3 77 -19 98 -68 98s-64 -21 -68 -98h-63c4 85 24 154 131 154s128 -69 131 -154z" />
    <glyph glyph-name="dblGrave" unicode="&#xf6d3;" 
d="M302 607h-80l-111 153h95zM134 607l-95 153h-95l111 -153h79z" />
    <glyph glyph-name="dblgrave" unicode="&#xf6d6;" 
d="M302 607h-80l-111 153h95zM134 607l-95 153h-95l111 -153h79z" />
    <glyph glyph-name="dieresisacute" unicode="&#x385;" 
d="M364 636h-80v112h80v-112zM159 769h95l-99 -162h-79zM44 636h-80v112h80v-112z" />
    <glyph glyph-name="dieresisgrave" unicode="&#x1fed;" 
d="M364 636h-80v112h80v-112zM169 769l84 -162h-80l-99 162h95zM44 636h-80v112h80v-112z" />
    <glyph glyph-name="dollar.denominator" unicode="&#xe11b;" horiz-adv-x="321" 
d="M289 120c0 -71 -36 -110 -97 -122v-79h-69v74c-39 2 -74 9 -91 14v97h59l8 -44c12 0 27 -1 40 -1c53 0 72 20 72 59c0 29 -12 45 -48 66l-57 33c-52 30 -82 61 -82 123c0 63 34 100 99 110v76h69v-73c39 -3 73 -10 86 -13v-94h-59l-7 40c-14 2 -25 2 -41 2
c-47 0 -70 -14 -70 -48c0 -26 12 -42 47 -62l56 -31c57 -31 85 -68 85 -127z" />
    <glyph glyph-name="dollar.numerator" unicode="&#xe131;" horiz-adv-x="321" 
d="M289 423c0 -71 -36 -111 -97 -123v-79h-69v75c-39 1 -74 8 -91 13v98h59l8 -45c12 0 27 -1 40 -1c53 0 72 21 72 59c0 29 -13 43 -48 65l-57 35c-51 31 -82 60 -82 123c0 62 34 99 99 110v75h69v-73c39 -2 73 -9 86 -13v-94h-59l-7 40c-14 2 -25 3 -41 3
c-47 0 -70 -14 -70 -49c0 -26 12 -42 47 -61l56 -32c56 -32 85 -68 85 -126z" />
    <glyph glyph-name="dollar.taboldstyle" unicode="&#xe42f;" horiz-adv-x="432" 
d="M366 139c0 -73 -36 -126 -114 -142v-93h-75v88c-45 2 -87 12 -104 18v115h61l9 -58c17 -1 37 -1 55 -1c60 0 85 22 85 72c0 43 -27 68 -86 112l-35 26c-69 51 -97 91 -97 157c0 67 35 114 112 128v89h75v-84c45 -3 85 -12 104 -18v-106h-61l-10 49c-16 1 -36 1 -53 1
c-54 0 -84 -13 -84 -58c0 -36 15 -59 67 -97l35 -26c78 -58 116 -94 116 -172z" />
    <glyph glyph-name="dollar.inferior" unicode="&#xf6e3;" horiz-adv-x="321" 
d="M289 121c0 -71 -36 -110 -97 -123v-79h-69v75c-39 1 -74 9 -91 14v97h59l8 -44c12 -1 27 -1 40 -1c53 0 72 20 72 58c0 29 -12 46 -48 67l-57 33c-52 30 -82 61 -82 123c0 63 34 99 99 110v76h69v-74c39 -2 73 -9 86 -13v-93h-59l-7 40c-14 1 -25 2 -41 2
c-47 0 -70 -14 -70 -48c0 -27 11 -41 46 -61l57 -33c56 -32 85 -67 85 -126z" />
    <glyph glyph-name="dollar.superior" unicode="&#xf6e4;" horiz-adv-x="321" 
d="M293 423c0 -71 -36 -111 -97 -123v-79h-69v75c-39 1 -74 8 -91 13v98h59l7 -45c13 0 28 -1 41 -1c53 0 72 21 72 59c0 29 -13 45 -48 65l-58 35c-51 31 -81 60 -81 123c0 62 34 99 99 110v75h69v-73c38 -2 72 -9 85 -13v-94h-58l-7 40c-14 2 -25 3 -42 3
c-46 0 -69 -14 -69 -49c0 -26 12 -42 46 -61l57 -32c56 -32 85 -68 85 -126z" />
    <glyph glyph-name="dotlessj" unicode="&#xf6be;" horiz-adv-x="204" 
d="M148 -83c0 -85 -24 -132 -105 -132c-27 0 -54 5 -64 8v62c11 -1 26 -1 44 -1c35 0 42 13 42 63v556l-43 5v72h126v-633z" />
    </font>
</defs>
</svg>
