<?xml version="1.0" standalone="no"?>
<!DOCTYPE svg PUBLIC "-//W3C//DTD SVG 1.1//EN" "http://www.w3.org/Graphics/SVG/1.1/DTD/svg11.dtd" >
<svg xmlns="http://www.w3.org/2000/svg" xmlns:xlink="http://www.w3.org/1999/xlink" version="1.1">
<metadata>
Created by FontForge 20141024 at Thu Apr 30 19:17:58 2015
 By System Administrator
Copyright (c) 2007 Monotype Imaging Inc. Soho is designed by Sebastian Lester. All rights reserved.
</metadata>
<defs>
<font id="SohoPro-ExtraBoldCondensed" horiz-adv-x="592" >
  <font-face 
    font-family="Soho Pro"
    font-weight="800"
    font-stretch="condensed"
    units-per-em="1000"
    panose-1="2 4 8 6 5 5 6 2 2 4"
    ascent="777"
    descent="-223"
    x-height="574"
    cap-height="743"
    bbox="-150 -218 1320 1053"
    underline-thickness="98"
    underline-position="-1"
    stemh="140"
    stemv="180"
    unicode-range="U+000D-FB16"
  />
<missing-glyph horiz-adv-x="500" 
 />
    <glyph glyph-name="f_i" unicode="fi" horiz-adv-x="656" 
d="M632 0h-251v126l36 5v316h-144v-316l36 -6v-125h-251v125l36 6v316l-72 10v117h72v48c0 121 48 169 154 169c45 0 91 -8 120 -17v-103c-24 1 -41 2 -54 2c-37 0 -41 -10 -41 -53v-46h324v-443l35 -5v-126zM600 650h-187v126h187v-126z" />
    <glyph glyph-name="f_l" unicode="fl" horiz-adv-x="662" 
d="M637 0h-250v125l35 6v539c-30 2 -68 3 -99 3c-39 0 -49 -6 -49 -53v-46h93v-127h-93v-316l36 -6v-125h-251v125l36 6v316l-72 10v117h72v46c0 138 57 171 167 171c53 0 124 -9 160 -15h180v-645l35 -6v-125z" />
    <glyph glyph-name="f_f" unicode="ff" horiz-adv-x="717" 
d="M692 447h-93v-316l36 -6v-125h-251v125l36 6v316h-146v-316l36 -6v-125h-251v125l36 6v316l-72 10v117h72v48c0 119 48 169 153 169c46 0 91 -8 121 -17v-103c-25 1 -42 2 -55 2c-36 0 -40 -11 -40 -53v-46h146v48c0 119 48 169 153 169c46 0 91 -8 121 -17v-103
c-24 1 -41 2 -55 2c-36 0 -40 -10 -40 -53v-46h93v-127z" />
    <glyph glyph-name="f_f_i" unicode="ffi" horiz-adv-x="981" 
d="M955 0h-251v126l36 5v316h-143v-316l35 -6v-125h-251v125l36 6v316h-143v-316l36 -6v-125h-251v125l36 6v316l-72 10v117h72v48c0 120 48 169 153 169c46 0 91 -8 121 -17v-103c-25 1 -42 2 -55 2c-36 0 -40 -10 -40 -53v-46h143v48c0 120 48 169 154 169
c46 0 91 -8 121 -17v-103c-25 1 -42 2 -55 2c-37 0 -40 -10 -40 -53v-46h322v-443l36 -5v-126zM923 650h-187v126h187v-126z" />
    <glyph glyph-name="f_f_l" unicode="ffl" horiz-adv-x="985" 
d="M960 0h-251v125l36 6v539c-30 2 -68 3 -99 3c-39 0 -48 -6 -48 -53v-46h93v-127h-93v-316l35 -6v-125h-251v125l36 6v316h-143v-316l36 -6v-125h-251v125l36 6v316l-72 10v117h72v48c0 120 48 169 153 169c46 0 92 -8 121 -17v-103c-24 1 -42 2 -55 2
c-36 0 -40 -10 -40 -53v-46h143v46c0 138 58 171 167 171c54 0 124 -9 160 -15h179v-645l36 -6v-125z" />
    <glyph glyph-name="f_b" unicode="fb" horiz-adv-x="915" 
d="M597 776v-205c21 10 46 15 74 15c158 0 214 -84 214 -248v-88c0 -188 -72 -262 -256 -262c-56 0 -106 3 -211 13v669c-36 2 -58 3 -93 3c-36 0 -50 -6 -50 -52v-47h93v-127h-93v-316l36 -6v-125h-251v125l35 6v316l-72 10v117h72v47c0 135 60 170 171 170
c49 0 99 -6 152 -15h179zM706 250v88c0 89 -10 110 -61 110c-14 0 -35 -3 -51 -11v-309c12 -1 26 -2 41 -2c56 0 71 18 71 124z" />
    <glyph glyph-name="f_f_b" unicode="ffb" horiz-adv-x="1238" 
d="M1208 250c0 -188 -72 -262 -257 -262c-56 0 -121 4 -210 13v669c-28 2 -60 3 -93 3c-36 0 -50 -6 -50 -53v-46h93v-127h-93v-316l36 -6v-125h-251v125l35 6v316h-144v-316l36 -6v-125h-251v125l36 6v316l-72 9v118h72v48c0 119 47 169 153 169c46 0 90 -8 121 -17v-103
c-26 1 -41 2 -54 2c-37 0 -41 -10 -41 -53v-46h144v46c0 136 60 171 171 171c46 0 111 -8 152 -15h179v-204c19 9 46 14 74 14c157 0 214 -84 214 -248v-88zM1029 250v88c0 89 -11 110 -61 110c-14 0 -35 -3 -51 -11v-309c9 -1 24 -2 41 -2c55 0 71 18 71 124z" />
    <glyph glyph-name="f_f_h" unicode="ffh" horiz-adv-x="1271" 
d="M1246 0h-216v380c0 52 -8 67 -41 67c-24 0 -49 -9 -67 -20v-296l36 -6v-125h-251v125l35 6v539c-30 2 -60 3 -91 3c-39 0 -53 -6 -53 -53v-46h93v-127h-93v-316l36 -6v-125h-251v125l35 6v316h-143v-316l36 -6v-125h-251v125l35 6v316l-72 10v117h72v48
c0 119 48 169 154 169c46 0 91 -8 121 -17v-103c-25 1 -42 2 -55 2c-37 0 -40 -10 -40 -53v-46h143v46c0 138 62 171 175 171c45 0 110 -8 149 -15h180v-225c37 22 87 34 130 34c142 0 158 -92 158 -203v-251l36 -6v-125z" />
    <glyph glyph-name="f_f_j" unicode="ffj" horiz-adv-x="966" 
d="M924 -37c0 -128 -51 -175 -168 -175c-45 0 -81 6 -100 11v116c18 -1 32 -1 48 -1c34 0 41 9 41 49v484h-147v-316l36 -6v-125h-251v125l35 6v316h-143v-316l36 -6v-125h-251v125l35 6v316l-72 10v117h72v48c0 119 49 169 154 169c46 0 91 -8 121 -17v-103
c-25 1 -42 2 -55 2c-36 0 -40 -11 -40 -53v-46h143v48c0 119 48 169 154 169c46 0 91 -8 121 -17v-103c-25 1 -42 2 -55 2c-37 0 -40 -10 -40 -53v-46h326v-611zM928 650h-188v126h188v-126z" />
    <glyph glyph-name="f_f_k" unicode="ffk" horiz-adv-x="1245" 
d="M1219 0h-194l-106 255v-255h-215v125l36 6v539c-30 2 -59 3 -90 3c-38 0 -53 -6 -53 -53v-46h93v-127h-93v-316l36 -6v-125h-251v125l36 6v316h-143v-316l35 -6v-125h-251v125l36 6v316l-72 10v117h72v48c0 119 48 169 154 169c46 0 91 -8 121 -17v-103
c-25 1 -42 2 -55 2c-37 0 -40 -10 -40 -53v-46h143v46c0 138 61 171 174 171c49 0 109 -8 148 -15h179v-449l109 247h189v-126l-60 -8l-74 -144l80 -163l56 -8v-125z" />
    <glyph glyph-name="f_h" unicode="fh" horiz-adv-x="947" 
d="M922 0h-216v380c0 52 -8 67 -41 67c-24 0 -49 -9 -67 -20v-296l36 -6v-125h-251v125l35 6v539c-30 2 -59 3 -90 3c-39 0 -53 -6 -53 -53v-46h93v-127h-93v-316l36 -6v-125h-251v125l35 6v316l-72 10v117h72v46c0 138 62 171 175 171c49 0 109 -8 148 -15h180v-225
c37 22 87 34 130 34c142 0 158 -92 158 -203v-251l36 -6v-125z" />
    <glyph glyph-name="f_j" unicode="fj" horiz-adv-x="643" 
d="M602 -37c0 -128 -52 -175 -169 -175c-45 0 -82 6 -100 11v116c18 -1 32 -1 48 -1c34 0 41 9 41 49v484h-147v-316l36 -6v-125h-251v125l35 6v316l-72 10v117h72v48c0 119 49 169 154 169c46 0 91 -8 121 -17v-103c-25 1 -42 2 -55 2c-36 0 -40 -10 -40 -53v-46h327v-611z
M604 650h-186v126h186v-126z" />
    <glyph glyph-name="f_k" unicode="fk" horiz-adv-x="923" 
d="M897 0h-194l-106 255v-255h-215v125l36 6v539c-30 2 -59 3 -90 3c-39 0 -53 -6 -53 -53v-46h93v-127h-93v-316l35 -6v-125h-251v125l36 6v316l-72 10v117h72v46c0 138 62 171 175 171c49 0 109 -8 148 -15h179v-449l109 247h189v-126l-60 -8l-74 -144l80 -163l56 -8v-125
z" />
    <glyph glyph-name=".notdef" horiz-adv-x="500" 
 />
    <glyph glyph-name=".null" horiz-adv-x="181" 
 />
    <glyph glyph-name=".null" horiz-adv-x="181" 
 />
    <glyph glyph-name="CR" unicode="&#xd;" horiz-adv-x="181" 
 />
    <glyph glyph-name="space" unicode=" " horiz-adv-x="181" 
 />
    <glyph glyph-name="numbersign" unicode="#" horiz-adv-x="609" 
d="M573 178h-99l-15 -178h-141l14 178h-91l-14 -178h-142l14 178h-62v109h72l12 159h-84v109h94l16 188h142l-16 -188h91l16 188h141l-15 -188h67v-109h-77l-12 -159h89v-109zM354 446h-91l-12 -159h91z" />
    <glyph glyph-name="dollar" unicode="$" horiz-adv-x="543" 
d="M510 207c0 -117 -60 -189 -164 -212v-121h-153v115c-55 4 -107 13 -145 22v169h116l9 -49c19 0 38 -1 61 -1c58 0 82 26 82 71c0 39 -26 61 -71 91l-76 50c-85 56 -136 113 -136 216s52 167 160 190v112h153v-105c61 -4 122 -17 148 -24v-164h-116l-9 45
c-21 2 -42 2 -63 2c-53 0 -80 -15 -80 -59c0 -31 16 -46 60 -75l74 -49c95 -63 150 -119 150 -224z" />
    <glyph glyph-name="percent" unicode="%" horiz-adv-x="982" 
d="M951 201c0 -123 -38 -211 -170 -211c-133 0 -171 88 -171 211v45c0 123 38 209 171 209c132 0 170 -86 170 -209v-45zM821 201v45c0 92 -12 111 -40 111c-29 0 -40 -19 -40 -111v-45c0 -93 11 -112 40 -112c28 0 40 19 40 112zM754 745l-383 -745h-147l384 745h146z
M372 503c0 -121 -34 -211 -170 -211c-137 0 -171 91 -171 211v44c0 120 34 210 171 210c136 0 170 -89 170 -210v-44zM242 503v45c0 91 -9 111 -40 111c-32 0 -40 -21 -40 -111v-45c0 -92 8 -112 40 -112c31 0 40 20 40 112z" />
    <glyph glyph-name="ampersand" unicode="&#x26;" horiz-adv-x="674" 
d="M649 365l-37 -8c0 -95 -17 -174 -54 -232l73 -90v-35h-167l-22 27c-38 -22 -96 -40 -172 -40c-129 0 -238 42 -238 190v9c0 85 37 139 120 197l-9 11c-54 70 -80 119 -80 183v10c0 119 79 171 232 171c85 0 178 -16 218 -27v-157h-115l-10 48c-28 1 -54 1 -84 1
c-40 0 -63 -10 -63 -48v-8c0 -36 13 -56 41 -93l186 -241c9 35 13 82 13 125l-36 7v87h204v-87zM361 120l-110 146c-27 -21 -37 -45 -37 -81v-8c0 -54 35 -73 79 -73c27 0 51 7 68 16z" />
    <glyph glyph-name="quoteright" unicode="&#x2019;" horiz-adv-x="232" 
d="M222 776l-85 -257h-127l51 257h161z" />
    <glyph glyph-name="parenleft" unicode="(" horiz-adv-x="335" 
d="M311 -197h-162c-60 108 -115 267 -115 465v10c0 198 55 357 115 465h162c-60 -125 -99 -278 -99 -465v-10c0 -187 39 -340 99 -465z" />
    <glyph glyph-name="parenright" unicode=")" horiz-adv-x="335" 
d="M301 268c0 -198 -56 -357 -115 -465h-163c60 125 100 278 100 465v10c0 187 -40 340 -100 465h163c59 -108 115 -267 115 -465v-10z" />
    <glyph glyph-name="asterisk" unicode="*" horiz-adv-x="499" 
d="M467 577l-50 -16c-22 -7 -47 -12 -74 -15c21 -16 38 -35 52 -52l31 -41l-110 -75l-31 40c-14 18 -26 40 -36 64c-11 -25 -23 -45 -37 -63l-30 -41l-110 76l31 41c14 17 31 36 51 52c-26 2 -51 8 -73 15l-50 16l43 121l49 -16c21 -7 45 -17 67 -30c-5 25 -8 49 -8 71v51
h135v-51c0 -22 -4 -46 -10 -72c23 14 46 24 68 31l50 16z" />
    <glyph glyph-name="plus" unicode="+" horiz-adv-x="536" 
d="M499 322h-160v-160h-140v160h-162v132h162v159h140v-159h160v-132z" />
    <glyph glyph-name="comma" unicode="," horiz-adv-x="298" 
d="M270 166l-107 -264h-143l69 264h181z" />
    <glyph glyph-name="hyphen" unicode="-" horiz-adv-x="283" 
d="M253 233h-222v123h222v-123z" />
    <glyph glyph-name="period" unicode="." horiz-adv-x="251" 
d="M215 0h-179v166h179v-166z" />
    <glyph glyph-name="slash" unicode="/" horiz-adv-x="417" 
d="M403 743l-206 -743h-183l206 743h183z" />
    <glyph glyph-name="zero" unicode="0" horiz-adv-x="584" 
d="M551 319c0 -192 -51 -333 -258 -333c-209 0 -259 141 -259 333v105c0 192 50 334 259 334c207 0 258 -142 258 -334v-105zM358 319v105c0 151 -16 187 -66 187s-66 -36 -66 -187v-105c0 -151 16 -187 66 -187s66 36 66 187z" />
    <glyph glyph-name="one" unicode="1" horiz-adv-x="507" 
d="M476 0h-445v126l128 7v444l-128 -36v136l178 67h140v-611l127 -7v-126z" />
    <glyph glyph-name="two" unicode="2" horiz-adv-x="533" 
d="M485 0h-450v93c0 183 40 240 170 336c90 67 101 85 101 128c0 49 -22 63 -94 63c-12 0 -31 -1 -50 -2l-9 -53h-112v165c54 16 144 28 208 28c173 0 251 -58 251 -189c0 -89 -38 -145 -162 -236c-106 -77 -116 -97 -116 -180v-11h142l8 45h113v-187z" />
    <glyph glyph-name="three" unicode="3" horiz-adv-x="530" 
d="M496 202c0 -156 -78 -216 -258 -216c-78 0 -163 15 -202 29v166h113l9 -55c19 -1 39 -2 57 -2c61 0 90 9 90 88v19c0 57 -16 84 -83 84h-151v126h151c66 0 83 25 83 82v12c0 75 -24 84 -91 84c-18 0 -38 -1 -56 -2l-8 -51h-113v163c38 13 123 29 201 29
c168 0 258 -55 258 -209v-13c0 -73 -24 -125 -76 -157c53 -31 76 -86 76 -158v-19z" />
    <glyph glyph-name="four" unicode="4" horiz-adv-x="572" 
d="M545 165h-72v-71l37 -5v-89h-265v89l37 5v71h-257v132l291 446h157v-445h72v-133zM292 298v217l-126 -217h126z" />
    <glyph glyph-name="five" unicode="5" horiz-adv-x="525" 
d="M491 219c0 -179 -106 -233 -257 -233c-92 0 -169 17 -200 26v168h111l9 -55c16 -1 30 -2 44 -2c75 0 99 17 99 95v23c0 69 -17 89 -101 89h-159l28 413h410v-179h-112l-7 39h-135l-9 -141h32c203 0 247 -82 247 -220v-23z" />
    <glyph glyph-name="six" unicode="6" horiz-adv-x="569" 
d="M535 226c0 -181 -107 -240 -252 -240c-174 0 -249 80 -249 271v219c0 188 51 282 259 282c84 0 175 -17 212 -27v-165h-111l-9 52c-21 1 -44 2 -64 2c-92 0 -98 -34 -98 -126v-30c20 5 55 9 84 9c142 0 228 -43 228 -208v-39zM345 226v36c0 74 -12 95 -62 95
c-16 0 -41 -2 -60 -7v-112c0 -88 14 -122 62 -122c45 0 60 35 60 110z" />
    <glyph glyph-name="seven" unicode="7" horiz-adv-x="535" 
d="M509 591l-256 -591h-198l268 603h-168l-7 -42h-112v182h473v-152z" />
    <glyph glyph-name="eight" unicode="8" horiz-adv-x="585" 
d="M551 210c0 -207 -132 -224 -256 -224h-5c-124 0 -256 17 -256 224v8c0 82 24 129 72 167c-44 33 -70 78 -70 155v10c0 175 112 208 254 208h5c142 0 254 -33 254 -208v-10c0 -77 -26 -122 -70 -155c49 -38 72 -85 72 -167v-8zM362 211v9c0 79 -12 105 -53 105h-33
c-42 0 -53 -26 -53 -105v-9c0 -78 21 -98 67 -98h5c46 0 67 20 67 98zM361 536v9c0 63 -19 85 -66 85h-5c-47 0 -66 -22 -66 -85v-9c0 -59 10 -92 52 -92h33c42 0 52 33 52 92z" />
    <glyph glyph-name="nine" unicode="9" horiz-adv-x="569" 
d="M535 269c0 -186 -51 -283 -259 -283c-84 0 -175 16 -212 26v166h111l9 -53c22 -1 46 -1 68 -1c89 0 94 34 94 125v30c-19 -5 -55 -9 -84 -9c-142 0 -228 45 -228 208v39c0 181 107 241 252 241c174 0 249 -78 249 -268v-221zM346 394v111c0 89 -14 122 -62 122
c-45 0 -60 -35 -60 -110v-36c0 -74 12 -94 62 -94c16 0 41 2 60 7z" />
    <glyph glyph-name="colon" unicode=":" horiz-adv-x="267" 
d="M223 0h-179v166h179v-166zM223 562v-166h-179v166h179z" />
    <glyph glyph-name="semicolon" unicode=";" horiz-adv-x="306" 
d="M252 166l-116 -263h-142l68 263h190zM243 396h-180v166h180v-166z" />
    <glyph glyph-name="less" unicode="&#x3c;" horiz-adv-x="536" 
d="M470 126h-184l-220 262l220 261h184l-217 -261z" />
    <glyph glyph-name="equal" unicode="=" horiz-adv-x="536" 
d="M473 179h-411v134h411v-134zM473 456h-411v133h411v-133z" />
    <glyph glyph-name="greater" unicode="&#x3e;" horiz-adv-x="536" 
d="M470 388l-219 -262h-185l218 262l-218 261h185z" />
    <glyph glyph-name="question" unicode="?" horiz-adv-x="468" 
d="M30 754c55 23 135 33 206 33c130 0 200 -47 200 -160v-9c0 -55 -17 -100 -71 -170c-72 -94 -91 -139 -91 -189v-26h-153v26c0 78 3 117 48 186c43 67 57 105 57 139v6c0 36 -16 51 -59 51c-9 0 -17 -1 -27 -1l-8 -44h-102v158zM108 166v-166h179v166h-179z" />
    <glyph glyph-name="at" unicode="@" horiz-adv-x="720" 
d="M690 374c0 -198 -91 -333 -317 -333c-142 0 -193 54 -194 157c0 22 1 54 3 78c11 158 74 217 196 217c57 0 113 -11 152 -23l-27 -317c65 34 97 112 97 222c0 140 -68 221 -212 221c-151 0 -232 -106 -260 -308c-5 -38 -10 -80 -10 -125c0 -137 63 -214 222 -214
c62 0 126 7 154 10v-60c-20 -4 -90 -17 -154 -17c-211 0 -310 99 -310 281c0 49 5 96 11 136c37 240 149 368 347 368c187 0 302 -102 302 -293zM394 396c-8 2 -17 2 -26 2c-33 0 -51 -21 -59 -125c-3 -34 -3 -55 -3 -75c0 -50 12 -67 49 -67c7 0 12 0 19 1z" />
    <glyph glyph-name="A" unicode="A" horiz-adv-x="660" 
d="M283 0h-260v127l38 4l93 480l-39 5v127h362l120 -612l39 -4v-127h-260v127l26 3l-8 47h-129l-8 -47l26 -3v-127zM378 316l-31 184c-6 39 -12 83 -16 119h-3c-5 -36 -9 -79 -16 -119l-31 -184h97z" />
    <glyph glyph-name="B" unicode="B" horiz-adv-x="600" 
d="M570 218c0 -180 -110 -228 -293 -228c-76 0 -150 3 -249 10v127l36 5v478l-36 6v127c90 8 181 11 249 11c186 0 291 -46 291 -213v-11c0 -68 -24 -121 -69 -149c53 -31 71 -95 71 -149v-14zM385 219v15c0 62 -17 89 -77 89h-58v-191c17 -1 28 -1 44 -1c65 0 91 17 91 88z
M384 525v10c0 65 -28 80 -90 80c-15 0 -27 0 -44 -1v-175h56c64 0 78 28 78 86z" />
    <glyph glyph-name="C" unicode="C" horiz-adv-x="515" 
d="M486 7c-34 -11 -128 -21 -178 -21c-178 0 -276 63 -276 332v107c0 269 98 333 276 333c50 0 144 -11 178 -22v-179h-116l-9 46c-9 0 -20 1 -29 1c-70 0 -106 -22 -106 -179v-107c0 -157 36 -179 107 -179c9 0 19 1 28 1l9 48h116v-181z" />
    <glyph glyph-name="D" unicode="D" horiz-adv-x="621" 
d="M588 329c0 -238 -77 -339 -308 -339c-80 0 -172 4 -252 11v126l38 6v478l-38 7v125c80 8 171 11 252 11c229 0 308 -101 308 -334v-91zM398 329v91c0 151 -17 185 -106 185h-38v-466h38c88 0 106 39 106 190z" />
    <glyph glyph-name="E" unicode="E" horiz-adv-x="518" 
d="M487 0h-459v127l33 4v480l-33 5v127h459v-182h-115l-8 37h-111v-150h217v-137h-217v-166h111l8 39h115v-184z" />
    <glyph glyph-name="F" unicode="F" horiz-adv-x="517" 
d="M473 311h-217v-179l37 -5v-127h-265v127l36 5v479l-36 5v127h463v-183h-116l-8 37h-111v-150h217v-136z" />
    <glyph glyph-name="G" unicode="G" horiz-adv-x="574" 
d="M540 7c-48 -9 -138 -21 -229 -21c-146 0 -279 42 -279 332v108c0 305 155 332 286 332c86 0 181 -18 217 -28v-173h-116l-9 45c-15 0 -37 1 -54 1c-95 0 -133 -17 -133 -177v-108c0 -150 24 -181 91 -181c14 0 31 0 46 2v142l-52 7v108h232v-389z" />
    <glyph glyph-name="H" unicode="H" horiz-adv-x="680" 
d="M387 743h265v-127l-37 -4v-481l37 -4v-127h-265v127l36 4v177h-166v-177l36 -4v-127h-265v127l36 4v481l-36 4v127h265v-127l-36 -4v-154h166v154l-36 4v127z" />
    <glyph glyph-name="I" unicode="I" horiz-adv-x="322" 
d="M294 0h-266v127l37 4v481l-37 4v127h266v-127l-37 -4v-481l37 -4v-127z" />
    <glyph glyph-name="J" unicode="J" horiz-adv-x="322" 
d="M294 616l-37 -4v-644c0 -133 -64 -178 -176 -178c-27 0 -67 4 -95 11v118h42c32 0 37 10 37 44v649l-37 4v127h266v-127z" />
    <glyph glyph-name="K" unicode="K" horiz-adv-x="634" 
d="M289 0h-261v127l33 4v481l-33 4v127h261v-127l-36 -4v-206l156 337h200v-127l-47 -4l-121 -236l121 -245l46 -4v-127h-210l-145 337v-206l36 -4v-127z" />
    <glyph glyph-name="L" unicode="L" horiz-adv-x="487" 
d="M462 0h-434v127l33 4v481l-33 4v127h262v-127l-37 -4v-463h84l9 46h116v-195z" />
    <glyph glyph-name="M" unicode="M" horiz-adv-x="758" 
d="M280 0h-252v127l32 4v481l-32 4v127h215l96 -216c17 -38 26 -64 36 -93h2c11 29 19 55 36 93l97 216h220v-127l-37 -4v-481l37 -4v-127h-258v127l36 4v209c0 41 2 84 6 126h-2c-11 -37 -18 -60 -36 -101l-50 -115h-100l-49 116c-17 40 -26 64 -36 100h-2
c3 -42 5 -85 5 -126v-209l36 -4v-127z" />
    <glyph glyph-name="N" unicode="N" horiz-adv-x="664" 
d="M389 743h247v-127l-37 -4v-612h-191l-139 340c-11 27 -26 63 -37 96h-2c3 -37 5 -81 5 -118v-187l36 -4v-127h-243v127l34 4v481l-34 4v127h220l141 -329c14 -34 29 -70 39 -102h2c-3 36 -5 92 -5 129v171l-36 4v127z" />
    <glyph glyph-name="O" unicode="O" horiz-adv-x="607" 
d="M575 324c0 -256 -106 -338 -272 -338c-164 0 -271 82 -271 338v95c0 259 110 339 271 339c163 0 272 -80 272 -339v-95zM384 324v95c0 141 -18 185 -81 185c-62 0 -80 -44 -80 -185v-95c0 -143 20 -185 80 -185c62 0 81 42 81 185z" />
    <glyph glyph-name="P" unicode="P" 
d="M297 0h-269v127l36 4v481l-36 4v127c82 7 162 9 251 9c161 0 293 -37 293 -242v-12c0 -204 -132 -246 -273 -246h-48v-121l46 -4v-127zM385 498v12c0 77 -25 96 -93 96c-13 0 -27 0 -41 -1v-205c13 -1 28 -1 43 -1c66 0 91 27 91 99z" />
    <glyph glyph-name="Q" unicode="Q" horiz-adv-x="607" 
d="M575 322c0 -204 -68 -303 -186 -328v-38c0 -29 5 -32 44 -32h60v-107c-29 -11 -82 -21 -131 -21c-100 0 -150 37 -150 151v49c-115 27 -180 127 -180 326v99c0 258 112 337 271 337c161 0 272 -79 272 -337v-99zM384 323v97c0 142 -19 184 -81 184
c-61 0 -80 -42 -80 -184v-97c0 -142 20 -184 80 -184c62 0 81 42 81 184z" />
    <glyph glyph-name="R" unicode="R" horiz-adv-x="622" 
d="M286 0h-258v127l36 4v481l-36 4v127c76 5 159 9 247 9c158 0 294 -38 294 -241v-8c0 -103 -32 -163 -87 -201l69 -170l48 -5v-127h-186l-103 263h-60v-132l36 -4v-127zM383 501v8c0 76 -22 97 -95 97c-14 0 -23 0 -38 -1v-206h41c73 0 92 32 92 102z" />
    <glyph glyph-name="S" unicode="S" horiz-adv-x="530" 
d="M501 208c0 -146 -89 -222 -239 -222c-93 0 -176 13 -219 25v167h115l10 -49c31 -1 40 -1 60 -1c58 0 79 23 79 73c0 39 -17 59 -63 91l-79 54c-83 57 -136 106 -136 211c0 134 81 201 253 201c84 0 167 -16 206 -27v-163h-115l-10 47c-36 1 -43 1 -63 1
c-54 0 -80 -16 -80 -60c0 -33 17 -54 61 -82l70 -45c97 -62 150 -116 150 -221z" />
    <glyph glyph-name="T" unicode="T" horiz-adv-x="579" 
d="M554 560h-112l-9 40h-48v-469l38 -5v-126h-266v126l37 5v469h-48l-8 -40h-113v183h529v-183z" />
    <glyph glyph-name="U" unicode="U" horiz-adv-x="660" 
d="M369 743h263v-127l-37 -4v-338c0 -152 -65 -288 -265 -288c-201 0 -265 136 -265 288v338l-37 4v127h263v-127l-36 -4v-331c0 -108 11 -147 75 -147s75 39 75 147v331l-36 4v127z" />
    <glyph glyph-name="V" unicode="V" horiz-adv-x="658" 
d="M369 743h265v-127l-40 -5l-117 -611h-297l-117 611l-40 5v127h265v-127l-33 -4l54 -340c8 -54 13 -105 18 -148h2c4 43 9 93 18 148l54 340l-32 4v127z" />
    <glyph glyph-name="W" unicode="W" horiz-adv-x="852" 
d="M572 743h259v-127l-39 -5l-76 -611h-217l-55 273c-6 32 -13 79 -17 109h-2c-4 -30 -11 -77 -17 -109l-54 -273h-218l-76 611l-38 5v127h258v-127l-35 -4l23 -241c4 -45 8 -95 10 -135h3c5 38 12 87 20 128l37 179h177l37 -180c8 -41 15 -91 20 -127h3c1 41 5 90 9 135
l22 241l-34 4v127z" />
    <glyph glyph-name="X" unicode="X" horiz-adv-x="615" 
d="M591 0h-199l-92 206l-87 -206h-190v127l49 5l117 255l-112 223l-49 6v127h203l90 -196l80 196h186v-127l-49 -5l-113 -241l113 -238l53 -5v-127z" />
    <glyph glyph-name="Y" unicode="Y" horiz-adv-x="585" 
d="M561 616l-44 -6l-131 -333v-148l37 -6v-123h-263v123l39 6v147l-132 334l-44 6v127h184l56 -181c11 -35 22 -80 28 -115h2c7 35 19 81 29 115l56 181h183v-127z" />
    <glyph glyph-name="Z" unicode="Z" horiz-adv-x="515" 
d="M487 0h-459v147l235 452h-111l-9 -40h-110v184h449v-151l-235 -448h120l10 43h110v-187z" />
    <glyph glyph-name="bracketleft" unicode="[" horiz-adv-x="349" 
d="M321 -198h-278v941h278v-134h-99v-672h99v-135z" />
    <glyph glyph-name="backslash" unicode="\" horiz-adv-x="418" 
d="M400 0h-178l-205 743h178z" />
    <glyph glyph-name="bracketright" unicode="]" horiz-adv-x="349" 
d="M306 -198h-279v135h99v672h-99v134h279v-941z" />
    <glyph glyph-name="asciicircum" unicode="^" horiz-adv-x="583" 
d="M540 425h-167l-82 241l-82 -241h-167l118 318h262z" />
    <glyph glyph-name="underscore" unicode="_" horiz-adv-x="511" 
d="M505 -148h-499v98h499v-98z" />
    <glyph glyph-name="quoteleft" unicode="&#x2018;" horiz-adv-x="232" 
d="M222 776l-51 -257h-161l85 257h127z" />
    <glyph glyph-name="a" unicode="a" horiz-adv-x="529" 
d="M503 0h-196v31c-30 -21 -83 -43 -138 -43c-108 0 -140 69 -140 159v31c0 142 99 161 233 161h26v38c0 63 -10 74 -71 74h-33l-8 -39h-114v139c28 10 112 34 198 34c142 0 208 -48 208 -208v-247l35 -4v-126zM297 120v131h-32c-49 0 -65 -10 -65 -69v-30
c0 -38 12 -48 38 -48c23 0 45 8 59 16z" />
    <glyph glyph-name="b" unicode="b" horiz-adv-x="537" 
d="M506 250c0 -188 -72 -262 -257 -262c-59 0 -114 4 -210 14v645l-36 4v126h214v-205c19 9 47 14 75 14c157 0 214 -84 214 -248v-88zM327 250v88c0 89 -11 110 -61 110c-14 0 -36 -3 -52 -11v-309c12 -1 26 -2 42 -2c56 0 71 18 71 124z" />
    <glyph glyph-name="c" unicode="c" horiz-adv-x="450" 
d="M422 12c-35 -11 -95 -24 -167 -24c-160 0 -223 83 -223 257v83c0 176 63 257 223 257c78 0 144 -14 167 -23v-153h-110l-8 37h-20c-54 0 -73 -18 -73 -118v-83c0 -100 19 -118 75 -118c33 0 80 3 136 7v-122z" />
    <glyph glyph-name="d" unicode="d" horiz-adv-x="563" 
d="M537 0h-198v27c-34 -24 -78 -39 -132 -39c-127 0 -175 93 -175 253v88c0 181 70 256 226 256c25 0 44 -1 63 -4v78l-41 5v112h221v-646l36 -4v-126zM325 140v304c-16 2 -34 4 -46 4c-50 0 -67 -15 -67 -119v-88c0 -89 10 -113 58 -113c18 0 39 4 55 12z" />
    <glyph glyph-name="e" unicode="e" horiz-adv-x="531" 
d="M501 238h-292v-10c0 -85 8 -104 95 -104c44 0 122 3 174 9v-119c-35 -11 -108 -26 -188 -26c-169 0 -259 58 -259 255v80c0 185 87 262 237 262c181 0 233 -116 233 -269v-78zM328 335v8c0 79 -10 114 -60 114s-59 -35 -59 -114v-8h119z" />
    <glyph glyph-name="f" unicode="f" horiz-adv-x="390" 
d="M367 447h-94v-317l36 -4v-126h-251v126l36 4v317l-72 9v118h72v48c0 119 48 169 153 169c46 0 90 -8 121 -17v-103c-26 1 -41 2 -54 2c-37 0 -41 -10 -41 -53v-46h94v-127z" />
    <glyph glyph-name="g" unicode="g" horiz-adv-x="543" 
d="M511 -27c0 -133 -89 -185 -246 -185c-149 0 -237 54 -237 174c0 42 16 84 47 116c-30 22 -43 52 -43 85c0 34 16 68 51 89c-27 28 -44 73 -44 139c0 107 32 194 231 194h248v-91l-41 -12c9 -16 21 -50 21 -91c0 -147 -96 -198 -229 -198c-28 0 -61 4 -82 9
c-9 -7 -14 -17 -14 -28c0 -21 9 -25 43 -25h50c177 0 245 -39 245 -176zM337 -37c0 60 -10 72 -72 72h-56c-10 -15 -15 -34 -15 -71c0 -52 19 -70 72 -70c52 0 71 19 71 69zM326 391c0 54 -9 81 -57 81c-49 0 -58 -28 -58 -81c0 -55 10 -84 58 -84s57 29 57 84z" />
    <glyph glyph-name="h" unicode="h" 
d="M566 0h-216v380c0 52 -8 67 -42 67c-24 0 -48 -9 -67 -20v-297l36 -4v-126h-251v126l36 4v516l-36 5v125h215v-225c38 22 88 34 130 34c143 0 159 -92 159 -203v-252l36 -4v-126z" />
    <glyph glyph-name="i" unicode="i" horiz-adv-x="304" 
d="M277 0h-251v126l36 4v313l-36 5v126h216v-444l35 -4v-126zM245 650h-187v126h187v-126z" />
    <glyph glyph-name="j" unicode="j" horiz-adv-x="281" 
d="M241 -38c0 -131 -51 -175 -171 -175c-39 0 -77 5 -97 11v116h48c34 0 41 8 41 48v482l-36 5v125h215v-612zM244 650h-187v126h187v-126z" />
    <glyph glyph-name="k" unicode="k" horiz-adv-x="561" 
d="M535 0h-189l-106 255v-255h-214v126l36 4v517l-36 4v125h214v-449l109 247h184v-126l-54 -6l-74 -146l81 -163l49 -7v-126z" />
    <glyph glyph-name="l" unicode="l" horiz-adv-x="303" 
d="M277 0h-251v126l36 4v516l-36 5v125h215v-646l36 -4v-126z" />
    <glyph glyph-name="m" unicode="m" horiz-adv-x="842" 
d="M816 0h-216v390c0 38 -1 58 -34 58c-17 0 -40 -9 -57 -19c2 -14 2 -26 2 -39v-390h-180v390c0 38 -1 58 -33 58c-19 0 -42 -10 -57 -20v-298l36 -4v-126h-251v125l36 5v314l-36 5v125h204v-41c40 37 92 52 137 52c57 0 90 -18 114 -53c49 39 101 53 145 53
c129 0 154 -84 154 -193v-262l36 -4v-126z" />
    <glyph glyph-name="n" unicode="n" 
d="M566 0h-216v382c0 51 -8 66 -40 66c-20 0 -45 -9 -69 -22v-296l36 -4v-126h-251v126l36 4v314l-36 5v125h204v-41c39 30 91 52 148 52c144 0 152 -92 152 -203v-252l36 -4v-126z" />
    <glyph glyph-name="o" unicode="o" horiz-adv-x="536" 
d="M504 245c0 -193 -90 -257 -236 -257s-236 64 -236 257v83c0 194 90 257 236 257s236 -63 236 -257v-83zM326 245v83c0 95 -16 119 -58 119s-58 -24 -58 -119v-83c0 -94 16 -119 58 -119s58 24 58 119z" />
    <glyph glyph-name="p" unicode="p" horiz-adv-x="562" 
d="M530 244c0 -180 -73 -256 -228 -256c-21 0 -46 3 -61 5v-62l40 -4v-126h-255v126l36 4v513l-36 5v125h200v-33c43 32 95 44 138 44c114 0 166 -65 166 -246v-95zM350 244v95c0 86 -10 107 -54 107c-17 0 -37 -4 -59 -16v-299c16 -3 31 -5 46 -5c49 0 67 16 67 118z" />
    <glyph glyph-name="q" unicode="q" horiz-adv-x="542" 
d="M278 -73l40 4v72c-21 -10 -47 -15 -75 -15c-157 0 -213 80 -213 249v87c0 196 72 261 255 261c61 0 116 -2 212 -13v-640l36 -6v-125h-255v126zM321 138v308c-12 1 -29 1 -40 1c-56 0 -72 -11 -72 -123v-87c0 -89 11 -111 58 -111c14 0 33 3 54 12z" />
    <glyph glyph-name="r" unicode="r" horiz-adv-x="400" 
d="M378 437c-45 0 -96 -5 -137 -15v-292l36 -4v-126h-251v126l36 4v314l-36 5v125h200v-41c50 48 111 52 152 52v-148z" />
    <glyph glyph-name="s" unicode="s" horiz-adv-x="464" 
d="M436 160c0 -116 -82 -172 -225 -172c-64 0 -145 13 -178 23v143h115l8 -40c13 0 25 -1 37 -1c48 0 64 14 64 44c0 27 -19 38 -70 69l-36 22c-78 48 -123 97 -123 179c0 121 81 158 207 158c70 0 149 -11 188 -25v-135h-115l-9 35c-13 1 -28 1 -39 1c-37 0 -53 -8 -53 -34
c0 -25 9 -34 51 -60l45 -28c90 -56 133 -94 133 -179z" />
    <glyph glyph-name="t" unicode="t" horiz-adv-x="394" 
d="M369 4c-13 -5 -64 -16 -117 -16c-118 0 -153 62 -153 167v292l-74 9v118h74v129h179v-129h91v-127h-91v-290c0 -36 1 -46 34 -46c18 0 48 3 57 3v-110z" />
    <glyph glyph-name="u" unicode="u" 
d="M566 0h-205v41c-38 -28 -90 -53 -156 -53c-133 0 -143 101 -143 204v253l-36 4v125h215v-382c0 -51 8 -66 41 -66c20 0 44 9 68 22v297l-35 4v125h215v-444l36 -5v-125z" />
    <glyph glyph-name="v" unicode="v" horiz-adv-x="573" 
d="M549 448l-39 -7l-96 -441h-256l-96 441l-38 7v126h194l47 -310c8 -53 16 -114 20 -156h2c5 42 13 103 21 156l46 310h195v-126z" />
    <glyph glyph-name="w" unicode="w" horiz-adv-x="821" 
d="M278 448l-39 -4l14 -133c5 -45 9 -89 11 -124h3c7 35 15 82 25 123l38 153h160l38 -153c11 -42 19 -87 26 -123h3c2 35 5 79 10 125l14 132l-38 4v126h254v-126l-42 -6l-68 -442h-208l-50 210c-9 38 -14 72 -18 105h-2c-5 -33 -11 -67 -20 -105l-51 -210h-205l-68 442
l-41 6v126h254v-126z" />
    <glyph glyph-name="x" unicode="x" horiz-adv-x="525" 
d="M500 0h-171l-75 151l-66 -151h-163v126l43 6l81 167l-74 142l-48 8v125h180l69 -141l62 141h159v-125l-43 -7l-79 -156l81 -154l44 -6v-126z" />
    <glyph glyph-name="y" unicode="y" horiz-adv-x="580" 
d="M556 449l-42 -6l-98 -423c-37 -158 -85 -232 -233 -232c-52 0 -106 6 -146 16v116c38 -2 61 -2 88 -2c34 0 50 14 59 60l6 27l-123 438l-43 6v125h197l49 -283c8 -50 16 -116 21 -157h2c5 41 12 105 20 156l46 284h197v-125z" />
    <glyph glyph-name="z" unicode="z" horiz-adv-x="452" 
d="M424 0h-396v136l201 307h-89l-8 -34h-99v165h391v-136l-200 -308h91l11 40h98v-170z" />
    <glyph glyph-name="braceleft" unicode="{" horiz-adv-x="380" 
d="M353 -199h-50c-176 0 -229 44 -229 189v130c0 66 -15 82 -47 107v91c32 25 47 41 47 107v129c0 147 53 189 229 189h49v-134h-42c-48 0 -56 -6 -56 -55v-129c0 -84 -26 -119 -77 -153c51 -33 77 -68 77 -152v-131c0 -48 8 -54 56 -54h43v-134z" />
    <glyph glyph-name="bar" unicode="|" horiz-adv-x="264" 
d="M221 -199h-179v942h179v-942z" />
    <glyph glyph-name="braceright" unicode="}" horiz-adv-x="380" 
d="M354 227c-32 -25 -47 -41 -47 -107v-130c0 -145 -53 -189 -230 -189h-49v134h42c48 0 56 6 56 54v131c0 84 26 119 77 152c-51 34 -77 69 -77 153v129c0 49 -8 55 -56 55h-42v134h49c177 0 230 -42 230 -189v-129c0 -66 15 -82 47 -107v-91z" />
    <glyph glyph-name="asciitilde" unicode="~" horiz-adv-x="582" 
d="M539 487c0 -115 -44 -169 -130 -169c-53 0 -85 5 -130 38l-22 17c-24 17 -33 25 -48 25c-22 0 -27 -13 -27 -40v-37h-140v37c0 118 56 169 143 169c40 0 71 -10 115 -42l21 -15c24 -18 36 -24 54 -24c22 0 25 15 25 41v36h139v-36z" />
    <glyph glyph-name="Aacute" unicode="&#xc1;" horiz-adv-x="660" 
d="M283 0h-260v127l38 4l93 480l-39 5v127h362l120 -612l39 -4v-127h-260v127l26 3l-8 47h-129l-8 -47l26 -3v-127zM378 316l-31 184c-6 39 -12 83 -16 119h-3c-5 -36 -9 -79 -16 -119l-31 -184h97zM511 922l-131 -140h-159l100 140h190z" />
    <glyph glyph-name="Agrave" unicode="&#xc0;" horiz-adv-x="660" 
d="M283 0h-260v127l38 4l93 480l-39 5v127h362l120 -612l39 -4v-127h-260v127l26 3l-8 47h-129l-8 -47l26 -3v-127zM378 316l-31 184c-6 39 -12 83 -16 119h-3c-5 -36 -9 -79 -16 -119l-31 -184h97zM427 782h-159l-131 140h190z" />
    <glyph glyph-name="Acircumflex" unicode="&#xc2;" horiz-adv-x="660" 
d="M283 0h-260v127l38 4l93 480l-39 5v127h362l120 -612l39 -4v-127h-260v127l26 3l-8 47h-129l-8 -47l26 -3v-127zM378 316l-31 184c-6 39 -12 83 -16 119h-3c-5 -36 -9 -79 -16 -119l-31 -184h97zM537 782h-146l-62 75l-61 -75h-146l103 140h209z" />
    <glyph glyph-name="Adieresis" unicode="&#xc4;" horiz-adv-x="660" 
d="M283 0h-260v127l38 4l93 480l-39 5v127h362l120 -612l39 -4v-127h-260v127l26 3l-8 47h-129l-8 -47l26 -3v-127zM378 316l-31 184c-6 39 -12 83 -16 119h-3c-5 -36 -9 -79 -16 -119l-31 -184h97zM509 788h-142v127h142v-127zM291 788v127h-142v-127h142z" />
    <glyph glyph-name="Atilde" unicode="&#xc3;" horiz-adv-x="660" 
d="M283 0h-260v127l38 4l93 480l-39 5v127h362l120 -612l39 -4v-127h-260v127l26 3l-8 47h-129l-8 -47l26 -3v-127zM378 316l-31 184c-6 39 -12 83 -16 119h-3c-5 -36 -9 -79 -16 -119l-31 -184h97zM534 911c0 -93 -51 -131 -115 -131c-30 0 -63 5 -95 27l-25 18
c-14 11 -25 19 -39 19c-19 0 -24 -10 -24 -35v-27h-109v27c0 93 53 132 118 132c31 0 63 -6 95 -29l25 -18c15 -11 25 -17 40 -17c17 0 22 10 22 34v27h107v-27z" />
    <glyph glyph-name="Amacron" unicode="&#x100;" horiz-adv-x="660" 
d="M283 0h-260v127l38 4l93 480l-39 5v127h362l120 -612l39 -4v-127h-260v127l26 3l-8 47h-129l-8 -47l26 -3v-127zM378 316l-31 184c-6 39 -12 83 -16 119h-3c-5 -36 -9 -79 -16 -119l-31 -184h97zM504 788h-350v106h350v-106z" />
    <glyph glyph-name="Aring" unicode="&#xc5;" horiz-adv-x="660" 
d="M283 0h-260v127l38 4l93 480l-39 5v127h362l120 -612l39 -4v-127h-260v127l26 3l-8 47h-129l-8 -47l26 -3v-127zM378 316l-31 184c-6 39 -12 83 -16 119h-3c-5 -36 -9 -79 -16 -119l-31 -184h97zM465 883c0 -77 -58 -123 -136 -123s-136 46 -136 123c0 78 58 124 136 124
s136 -46 136 -124zM377 883c0 33 -19 49 -48 49c-28 0 -48 -16 -48 -49c0 -32 19 -48 48 -48s48 16 48 48z" />
    <glyph glyph-name="Abreve" unicode="&#x102;" horiz-adv-x="660" 
d="M283 0h-260v127l38 4l93 480l-39 5v127h362l120 -612l39 -4v-127h-260v127l26 3l-8 47h-129l-8 -47l26 -3v-127zM378 316l-31 184c-6 39 -12 83 -16 119h-3c-5 -36 -9 -79 -16 -119l-31 -184h97zM519 929c-16 -109 -98 -151 -190 -151c-90 0 -173 42 -190 151h112
c7 -53 37 -67 78 -67c43 0 72 14 80 67h110z" />
    <glyph glyph-name="Aogonek" unicode="&#x104;" horiz-adv-x="660" 
d="M636 -191c-33 -11 -81 -19 -131 -19c-87 0 -140 31 -140 94c0 43 23 81 97 116h-86v127l26 3l-8 47h-129l-8 -47l26 -3v-127h-260v127l38 4l93 480l-39 5v127h362l120 -612l39 -4v-127c-100 -38 -116 -62 -116 -81c0 -21 12 -30 47 -30c25 0 52 3 69 4v-84zM378 316
l-31 184c-6 39 -12 83 -16 119h-3c-5 -36 -9 -79 -16 -119l-31 -184h97z" />
    <glyph glyph-name="AE" unicode="&#xc6;" horiz-adv-x="841" 
d="M808 0h-426v177h-114l-31 -177h-214v126l42 7l92 476l-39 5v129h690v-182h-115l-8 37h-112v-150h218v-137h-218v-166h112l8 39h115v-184zM382 315v303h-49c-6 -34 -11 -77 -17 -111l-33 -192h99z" />
    <glyph glyph-name="AEacute" unicode="&#x1fc;" horiz-adv-x="841" 
d="M808 0h-426v177h-114l-31 -177h-214v126l42 7l92 476l-39 5v129h690v-182h-115l-8 37h-112v-150h218v-137h-218v-166h112l8 39h115v-184zM382 315v303h-49c-6 -34 -11 -77 -17 -111l-33 -192h99zM670 923l-131 -140h-159l100 140h190z" />
    <glyph glyph-name="Cacute" unicode="&#x106;" horiz-adv-x="515" 
d="M486 7c-34 -11 -128 -21 -178 -21c-178 0 -276 63 -276 332v107c0 269 98 333 276 333c50 0 144 -11 178 -22v-179h-116l-9 46c-9 0 -20 1 -29 1c-70 0 -106 -22 -106 -179v-107c0 -157 36 -179 107 -179c9 0 19 1 28 1l9 48h116v-181zM488 922l-131 -140h-159l100 140
h190z" />
    <glyph glyph-name="Ccircumflex" unicode="&#x108;" horiz-adv-x="515" 
d="M486 7c-34 -11 -128 -21 -178 -21c-178 0 -276 63 -276 332v107c0 269 98 333 276 333c50 0 144 -11 178 -22v-179h-116l-9 46c-9 0 -20 1 -29 1c-70 0 -106 -22 -106 -179v-107c0 -157 36 -179 107 -179c9 0 19 1 28 1l9 48h116v-181zM490 784h-146l-62 75l-61 -75h-146
l103 140h209z" />
    <glyph glyph-name="Ccaron" unicode="&#x10c;" horiz-adv-x="515" 
d="M486 7c-34 -11 -128 -21 -178 -21c-178 0 -276 63 -276 332v107c0 269 98 333 276 333c50 0 144 -11 178 -22v-179h-116l-9 46c-9 0 -20 1 -29 1c-70 0 -106 -22 -106 -179v-107c0 -157 36 -179 107 -179c9 0 19 1 28 1l9 48h116v-181zM497 924l-103 -140h-209l-103 140
h146l61 -74l62 74h146z" />
    <glyph glyph-name="Cdotaccent" unicode="&#x10a;" horiz-adv-x="515" 
d="M486 7c-34 -11 -128 -21 -178 -21c-178 0 -276 63 -276 332v107c0 269 98 333 276 333c50 0 144 -11 178 -22v-179h-116l-9 46c-9 0 -20 1 -29 1c-70 0 -106 -22 -106 -179v-107c0 -157 36 -179 107 -179c9 0 19 1 28 1l9 48h116v-181zM377 784h-186v125h186v-125z" />
    <glyph glyph-name="Ccedilla" unicode="&#xc7;" horiz-adv-x="515" 
d="M486 7c-34 -11 -128 -21 -178 -21c-178 0 -276 63 -276 332v107c0 269 98 333 276 333c50 0 144 -11 178 -22v-179h-116l-9 46c-9 0 -20 1 -29 1c-70 0 -106 -22 -106 -179v-107c0 -157 36 -179 107 -179c9 0 19 1 28 1l9 48h116v-181zM384 -58l-108 -141h-156l81 141
h183z" />
    <glyph glyph-name="Dcaron" unicode="&#x10e;" horiz-adv-x="621" 
d="M587 329c0 -238 -77 -339 -308 -339c-80 0 -172 4 -252 11v126l38 6v478l-38 7v125c80 8 171 11 252 11c229 0 308 -101 308 -334v-91zM397 329v91c0 151 -17 185 -106 185h-38v-466h38c88 0 106 39 106 190zM521 924l-103 -140h-209l-103 140h146l61 -74l62 74h146z" />
    <glyph glyph-name="Dcroat" unicode="&#x110;" horiz-adv-x="621" 
d="M588 329c0 -238 -77 -339 -308 -339c-81 0 -172 4 -253 11v130l39 6v176h-39v135h39v159l-39 6v130c81 8 172 11 253 11c229 0 308 -101 308 -334v-91zM398 329v91c0 151 -18 185 -106 185h-38v-157h67v-135h-67v-174h38c88 0 106 39 106 190z" />
    <glyph glyph-name="Eth" unicode="&#xd0;" horiz-adv-x="621" 
d="M588 329c0 -238 -77 -339 -308 -339c-81 0 -172 4 -253 11v130l39 6v176h-39v135h39v159l-39 6v130c81 8 172 11 253 11c229 0 308 -101 308 -334v-91zM398 329v91c0 151 -18 185 -106 185h-38v-157h67v-135h-67v-174h38c88 0 106 39 106 190z" />
    <glyph glyph-name="Eacute" unicode="&#xc9;" horiz-adv-x="518" 
d="M487 0h-459v127l33 4v480l-33 5v127h459v-182h-115l-8 37h-111v-150h217v-137h-217v-166h111l8 39h115v-184zM465 924l-131 -140h-159l100 140h190z" />
    <glyph glyph-name="Egrave" unicode="&#xc8;" horiz-adv-x="518" 
d="M487 0h-459v127l33 4v480l-33 5v127h459v-182h-115l-8 37h-111v-150h217v-137h-217v-166h111l8 39h115v-184zM369 784h-159l-131 140h190z" />
    <glyph glyph-name="Ecircumflex" unicode="&#xca;" horiz-adv-x="518" 
d="M487 0h-459v127l33 4v480l-33 5v127h459v-182h-115l-8 37h-111v-150h217v-137h-217v-166h111l8 39h115v-184zM478 784h-146l-62 75l-61 -75h-146l103 140h209z" />
    <glyph glyph-name="Edieresis" unicode="&#xcb;" horiz-adv-x="518" 
d="M487 0h-459v127l33 4v480l-33 5v127h459v-182h-115l-8 37h-111v-150h217v-137h-217v-166h111l8 39h115v-184zM450 790h-142v127h142v-127zM232 790v127h-142v-127h142z" />
    <glyph glyph-name="Emacron" unicode="&#x112;" horiz-adv-x="518" 
d="M487 0h-459v127l33 4v480l-33 5v127h459v-182h-115l-8 37h-111v-150h217v-137h-217v-166h111l8 39h115v-184zM447 790h-350v106h350v-106z" />
    <glyph glyph-name="Ecaron" unicode="&#x11a;" horiz-adv-x="518" 
d="M487 0h-459v127l33 4v480l-33 5v127h459v-182h-115l-8 37h-111v-150h217v-137h-217v-166h111l8 39h115v-184zM484 924l-103 -140h-209l-103 140h146l61 -74l62 74h146z" />
    <glyph glyph-name="Ebreve" unicode="&#x114;" horiz-adv-x="518" 
d="M487 0h-459v127l33 4v480l-33 5v127h459v-182h-115l-8 37h-111v-150h217v-137h-217v-166h111l8 39h115v-184zM464 932c-16 -109 -98 -151 -190 -151c-90 0 -173 42 -190 151h112c7 -53 37 -67 78 -67c43 0 72 14 80 67h110z" />
    <glyph glyph-name="Edotaccent" unicode="&#x116;" horiz-adv-x="518" 
d="M487 0h-459v127l33 4v480l-33 5v127h459v-182h-115l-8 37h-111v-150h217v-137h-217v-166h111l8 39h115v-184zM374 790h-186v125h186v-125z" />
    <glyph glyph-name="Eogonek" unicode="&#x118;" horiz-adv-x="518" 
d="M470 -191c-33 -11 -81 -19 -131 -19c-87 0 -140 31 -140 94c0 43 23 81 97 116h-268v127l33 4v480l-33 5v127h459v-182h-115l-8 37h-111v-150h217v-137h-217v-166h111l8 39h115v-184h-17c-100 -38 -116 -62 -116 -81c0 -21 12 -30 47 -30c25 0 52 3 69 4v-84z" />
    <glyph glyph-name="Gcircumflex" unicode="&#x11c;" horiz-adv-x="574" 
d="M540 7c-48 -9 -138 -21 -229 -21c-146 0 -279 42 -279 332v108c0 305 155 332 286 332c86 0 181 -18 217 -28v-173h-116l-9 45c-15 0 -37 1 -54 1c-95 0 -133 -17 -133 -177v-108c0 -150 24 -181 91 -181c14 0 31 0 46 2v142l-52 7v108h232v-389zM511 784h-146l-62 75
l-61 -75h-146l103 140h209z" />
    <glyph glyph-name="Gbreve" unicode="&#x11e;" horiz-adv-x="574" 
d="M540 7c-48 -9 -138 -21 -229 -21c-146 0 -279 42 -279 332v108c0 305 155 332 286 332c86 0 181 -18 217 -28v-173h-116l-9 45c-15 0 -37 1 -54 1c-95 0 -133 -17 -133 -177v-108c0 -150 24 -181 91 -181c14 0 31 0 46 2v142l-52 7v108h232v-389zM496 935
c-16 -109 -98 -151 -190 -151c-90 0 -173 42 -190 151h112c7 -53 37 -67 78 -67c43 0 72 14 80 67h110z" />
    <glyph glyph-name="Gdotaccent" unicode="&#x120;" horiz-adv-x="574" 
d="M540 7c-48 -9 -138 -21 -229 -21c-146 0 -279 42 -279 332v108c0 305 155 332 286 332c86 0 181 -18 217 -28v-173h-116l-9 45c-15 0 -37 1 -54 1c-95 0 -133 -17 -133 -177v-108c0 -150 24 -181 91 -181c14 0 31 0 46 2v142l-52 7v108h232v-389zM403 790h-186v125h186
v-125z" />
    <glyph glyph-name="Gcommaaccent" unicode="&#x122;" horiz-adv-x="574" 
d="M540 7c-48 -9 -138 -21 -229 -21c-146 0 -279 42 -279 332v108c0 305 155 332 286 332c86 0 181 -18 217 -28v-173h-116l-9 45c-15 0 -37 1 -54 1c-95 0 -133 -17 -133 -177v-108c0 -150 24 -181 91 -181c14 0 31 0 46 2v142l-52 7v108h232v-389zM411 -60l-87 -141h-150
l57 141h180z" />
    <glyph glyph-name="Hcircumflex" unicode="&#x124;" horiz-adv-x="680" 
d="M387 743h265v-127l-37 -4v-481l37 -4v-127h-265v127l36 4v177h-166v-177l36 -4v-127h-265v127l36 4v481l-36 4v127h265v-127l-36 -4v-154h166v154l-36 4v127zM547 784h-146l-62 75l-61 -75h-146l103 140h209z" />
    <glyph glyph-name="Hbar" unicode="&#x126;" horiz-adv-x="680" 
d="M387 743h265v-127l-37 -4v-39h37v-69h-37v-373l37 -4v-127h-265v127l36 4v177h-166v-177l36 -4v-127h-265v127l36 4v373h-38v69h38v39l-36 4v127h265v-127l-36 -4v-39h166v39l-36 4v127zM257 458h166v46h-166v-46z" />
    <glyph glyph-name="Iacute" unicode="&#xcd;" horiz-adv-x="322" 
d="M294 0h-266v127l37 4v481l-37 4v127h266v-127l-37 -4v-481l37 -4v-127zM350 924l-131 -140h-159l100 140h190z" />
    <glyph glyph-name="Igrave" unicode="&#xcc;" horiz-adv-x="322" 
d="M294 0h-266v127l37 4v481l-37 4v127h266v-127l-37 -4v-481l37 -4v-127zM260 784h-159l-131 140h190z" />
    <glyph glyph-name="Icircumflex" unicode="&#xce;" horiz-adv-x="322" 
d="M294 0h-266v127l37 4v481l-37 4v127h266v-127l-37 -4v-481l37 -4v-127zM369 784h-146l-62 75l-61 -75h-146l103 140h209z" />
    <glyph glyph-name="Idieresis" unicode="&#xcf;" horiz-adv-x="322" 
d="M294 0h-266v127l37 4v481l-37 4v127h266v-127l-37 -4v-481l37 -4v-127zM340 790h-142v127h142v-127zM122 790v127h-142v-127h142z" />
    <glyph glyph-name="Itilde" unicode="&#x128;" horiz-adv-x="322" 
d="M294 0h-266v127l37 4v481l-37 4v127h266v-127l-37 -4v-481l37 -4v-127zM363 912c0 -93 -51 -131 -115 -131c-30 0 -63 5 -95 27l-25 18c-14 11 -25 19 -39 19c-19 0 -24 -10 -24 -35v-27h-109v27c0 93 53 132 118 132c31 0 63 -6 95 -29l25 -18c15 -11 25 -17 40 -17
c17 0 22 10 22 34v27h107v-27z" />
    <glyph glyph-name="Imacron" unicode="&#x12a;" horiz-adv-x="322" 
d="M294 0h-266v127l37 4v481l-37 4v127h266v-127l-37 -4v-481l37 -4v-127zM335 790h-350v106h350v-106z" />
    <glyph glyph-name="Ibreve" unicode="&#x12c;" horiz-adv-x="322" 
d="M294 0h-266v127l37 4v481l-37 4v127h266v-127l-37 -4v-481l37 -4v-127zM350 938c-16 -109 -98 -151 -190 -151c-90 0 -173 42 -190 151h112c7 -53 37 -67 78 -67c43 0 72 14 80 67h110z" />
    <glyph glyph-name="Idotaccent" unicode="&#x130;" horiz-adv-x="322" 
d="M294 0h-266v127l37 4v481l-37 4v127h266v-127l-37 -4v-481l37 -4v-127zM255 790h-186v125h186v-125z" />
    <glyph glyph-name="Iogonek" unicode="&#x12e;" horiz-adv-x="322" 
d="M297 -191c-33 -11 -81 -19 -131 -19c-87 0 -140 31 -140 94c0 43 21 81 94 116h-92v127l37 4v481l-37 4v127h266v-127l-37 -4v-481l37 -4v-127c-100 -38 -113 -62 -113 -81c0 -21 12 -30 47 -30c25 0 52 3 69 4v-84z" />
    <glyph glyph-name="IJ" unicode="&#x132;" horiz-adv-x="629" 
d="M601 616l-37 -4v-646c0 -133 -63 -178 -175 -178c-26 0 -64 4 -96 12v118h43c31 0 37 10 37 44v650l-37 4v127h265v-127zM294 0h-265v127l36 4v481l-36 4v127h265v-127l-37 -4v-481l37 -4v-127z" />
    <glyph glyph-name="Jcircumflex" unicode="&#x134;" horiz-adv-x="322" 
d="M294 616l-37 -4v-644c0 -133 -64 -178 -176 -178c-27 0 -67 4 -95 11v118h42c32 0 37 10 37 44v649l-37 4v127h266v-127zM370 784h-146l-62 75l-61 -75h-146l103 140h209z" />
    <glyph glyph-name="Kcommaaccent" unicode="&#x136;" horiz-adv-x="634" 
d="M289 0h-261v127l33 4v481l-33 4v127h261v-127l-36 -4v-206l156 337h200v-127l-47 -4l-121 -236l121 -245l46 -4v-127h-210l-145 337v-206l36 -4v-127zM419 -61l-87 -141h-150l57 141h180z" />
    <glyph glyph-name="Lacute" unicode="&#x139;" horiz-adv-x="487" 
d="M462 0h-434v127l33 4v481l-33 4v127h262v-127l-37 -4v-463h84l9 46h116v-195zM469 922l-131 -140h-159l100 140h190z" />
    <glyph glyph-name="Lcaron" unicode="&#x13d;" horiz-adv-x="487" 
d="M507 760l-68 -258h-132l41 258h159zM462 0h-434v127l33 4v481l-33 4v127h262v-127l-37 -4v-463h84l9 46h116v-195z" />
    <glyph glyph-name="Ldot" unicode="&#x13f;" horiz-adv-x="487" 
d="M462 318h-149v140h149v-140zM462 0h-434v127l33 4v481l-33 4v127h262v-127l-37 -4v-463h84l9 46h116v-195z" />
    <glyph glyph-name="Lcommaaccent" unicode="&#x13b;" horiz-adv-x="487" 
d="M462 0h-434v127l33 4v481l-33 4v127h262v-127l-37 -4v-463h84l9 46h116v-195zM350 -58l-87 -141h-150l57 141h180z" />
    <glyph glyph-name="Lslash" unicode="&#x141;" horiz-adv-x="487" 
d="M462 0h-434v127l33 4v120l-46 -34v114l46 34v247l-33 4v127h262v-127l-37 -4v-104l81 61v-114l-81 -61v-245h84l9 46h116v-195z" />
    <glyph glyph-name="Nacute" unicode="&#x143;" horiz-adv-x="664" 
d="M389 743h247v-127l-37 -4v-612h-191l-139 340c-11 27 -26 63 -37 96h-2c3 -37 5 -81 5 -118v-187l36 -4v-127h-243v127l34 4v481l-34 4v127h220l141 -329c14 -34 29 -70 39 -102h2c-3 36 -5 92 -5 129v171l-36 4v127zM531 924l-131 -140h-159l100 140h190z" />
    <glyph glyph-name="Ntilde" unicode="&#xd1;" horiz-adv-x="664" 
d="M389 743h247v-127l-37 -4v-612h-191l-139 340c-11 27 -26 63 -37 96h-2c3 -37 5 -81 5 -118v-187l36 -4v-127h-243v127l34 4v481l-34 4v127h220l141 -329c14 -34 29 -70 39 -102h2c-3 36 -5 92 -5 129v171l-36 4v127zM537 913c0 -93 -51 -131 -115 -131
c-30 0 -63 5 -95 27l-25 18c-14 11 -25 19 -39 19c-19 0 -24 -10 -24 -35v-27h-109v27c0 93 53 132 118 132c31 0 63 -6 95 -29l25 -18c15 -11 25 -17 40 -17c17 0 22 10 22 34v27h107v-27z" />
    <glyph glyph-name="Ncaron" unicode="&#x147;" horiz-adv-x="664" 
d="M389 743h247v-127l-37 -4v-612h-191l-139 340c-11 27 -26 63 -37 96h-2c3 -37 5 -81 5 -118v-187l36 -4v-127h-243v127l34 4v481l-34 4v127h220l141 -329c14 -34 29 -70 39 -102h2c-3 36 -5 92 -5 129v171l-36 4v127zM542 924l-103 -140h-209l-103 140h146l61 -74l62 74
h146z" />
    <glyph glyph-name="Ncommaaccent" unicode="&#x145;" horiz-adv-x="664" 
d="M389 743h247v-127l-37 -4v-612h-191l-139 340c-11 27 -26 63 -37 96h-2c3 -37 5 -81 5 -118v-187l36 -4v-127h-243v127l34 4v481l-34 4v127h220l141 -329c14 -34 29 -70 39 -102h2c-3 36 -5 92 -5 129v171l-36 4v127zM432 -61l-87 -141h-150l57 141h180z" />
    <glyph glyph-name="Eng" unicode="&#x14a;" horiz-adv-x="664" 
d="M389 743h247v-127l-37 -4v-644c0 -133 -64 -178 -176 -178c-27 0 -67 4 -95 11v118h60c32 0 37 10 37 44v37l-156 340c-11 27 -26 63 -37 96h-2c3 -37 5 -81 5 -118v-187l36 -4v-127h-243v127l34 4v481l-34 4v127h220l141 -293c14 -34 29 -70 39 -102h2
c-3 36 -5 92 -5 129v135l-36 4v127z" />
    <glyph glyph-name="Oacute" unicode="&#xd3;" horiz-adv-x="607" 
d="M575 324c0 -256 -106 -338 -272 -338c-164 0 -271 82 -271 338v95c0 259 110 339 271 339c163 0 272 -80 272 -339v-95zM384 324v95c0 141 -18 185 -81 185c-62 0 -80 -44 -80 -185v-95c0 -143 20 -185 80 -185c62 0 81 42 81 185zM494 924l-131 -140h-159l100 140h190z
" />
    <glyph glyph-name="Ograve" unicode="&#xd2;" horiz-adv-x="607" 
d="M575 324c0 -256 -106 -338 -272 -338c-164 0 -271 82 -271 338v95c0 259 110 339 271 339c163 0 272 -80 272 -339v-95zM384 324v95c0 141 -18 185 -81 185c-62 0 -80 -44 -80 -185v-95c0 -143 20 -185 80 -185c62 0 81 42 81 185zM407 784h-159l-131 140h190z" />
    <glyph glyph-name="Ocircumflex" unicode="&#xd4;" horiz-adv-x="607" 
d="M575 324c0 -256 -106 -338 -272 -338c-164 0 -271 82 -271 338v95c0 259 110 339 271 339c163 0 272 -80 272 -339v-95zM384 324v95c0 141 -18 185 -81 185c-62 0 -80 -44 -80 -185v-95c0 -143 20 -185 80 -185c62 0 81 42 81 185zM511 784h-146l-62 75l-61 -75h-146
l103 140h209z" />
    <glyph glyph-name="Odieresis" unicode="&#xd6;" horiz-adv-x="607" 
d="M575 324c0 -256 -106 -338 -272 -338c-164 0 -271 82 -271 338v95c0 259 110 339 271 339c163 0 272 -80 272 -339v-95zM384 324v95c0 141 -18 185 -81 185c-62 0 -80 -44 -80 -185v-95c0 -143 20 -185 80 -185c62 0 81 42 81 185zM485 790h-142v127h142v-127zM267 790
v127h-142v-127h142z" />
    <glyph glyph-name="Otilde" unicode="&#xd5;" horiz-adv-x="607" 
d="M575 324c0 -256 -106 -338 -272 -338c-164 0 -271 82 -271 338v95c0 259 110 339 271 339c163 0 272 -80 272 -339v-95zM384 324v95c0 141 -18 185 -81 185c-62 0 -80 -44 -80 -185v-95c0 -143 20 -185 80 -185c62 0 81 42 81 185zM506 913c0 -93 -51 -131 -115 -131
c-30 0 -63 5 -95 27l-25 18c-14 11 -25 19 -39 19c-19 0 -24 -10 -24 -35v-27h-109v27c0 93 53 132 118 132c31 0 63 -6 95 -29l25 -18c15 -11 25 -17 40 -17c17 0 22 10 22 34v27h107v-27z" />
    <glyph glyph-name="Omacron" unicode="&#x14c;" horiz-adv-x="607" 
d="M575 324c0 -256 -106 -338 -272 -338c-164 0 -271 82 -271 338v95c0 259 110 339 271 339c163 0 272 -80 272 -339v-95zM384 324v95c0 141 -18 185 -81 185c-62 0 -80 -44 -80 -185v-95c0 -143 20 -185 80 -185c62 0 81 42 81 185zM479 790h-350v106h350v-106z" />
    <glyph glyph-name="Obreve" unicode="&#x14e;" horiz-adv-x="607" 
d="M575 324c0 -256 -106 -338 -272 -338c-164 0 -271 82 -271 338v95c0 259 110 339 271 339c163 0 272 -80 272 -339v-95zM384 324v95c0 141 -18 185 -81 185c-62 0 -80 -44 -80 -185v-95c0 -143 20 -185 80 -185c62 0 81 42 81 185zM494 935c-16 -109 -98 -151 -190 -151
c-90 0 -173 42 -190 151h112c7 -53 37 -67 78 -67c43 0 72 14 80 67h110z" />
    <glyph glyph-name="Ohungarumlaut" unicode="&#x150;" horiz-adv-x="607" 
d="M575 324c0 -256 -106 -338 -272 -338c-164 0 -271 82 -271 338v95c0 259 110 339 271 339c163 0 272 -80 272 -339v-95zM384 324v95c0 141 -18 185 -81 185c-62 0 -80 -44 -80 -185v-95c0 -143 20 -185 80 -185c62 0 81 42 81 185zM635 929l-131 -141h-149l100 141h180z
M387 929h-180l-100 -141h149z" />
    <glyph glyph-name="Oslash" unicode="&#xd8;" horiz-adv-x="607" 
d="M574 324c0 -254 -108 -338 -271 -338c-58 0 -111 11 -152 36l-26 -43h-111l68 114c-33 53 -50 127 -50 231v95c0 258 112 339 271 339c59 0 111 -12 154 -39l28 46h111l-71 -118c32 -53 49 -127 49 -228v-95zM384 324v95c0 143 -19 185 -81 185c-61 0 -80 -42 -80 -185
v-95c0 -143 19 -185 80 -185s81 42 81 185z" />
    <glyph glyph-name="Oslashacute" unicode="&#x1fe;" horiz-adv-x="607" 
d="M503 924l-131 -140h-159l100 140h190zM574 324c0 -254 -108 -338 -271 -338c-58 0 -111 11 -152 36l-26 -43h-111l68 114c-33 53 -50 127 -50 231v95c0 258 112 339 271 339c59 0 111 -12 154 -39l28 46h111l-71 -118c32 -53 49 -127 49 -228v-95zM384 324v95
c0 143 -19 185 -81 185c-61 0 -80 -42 -80 -185v-95c0 -143 19 -185 80 -185s81 42 81 185z" />
    <glyph glyph-name="OE" unicode="&#x152;" horiz-adv-x="823" 
d="M789 0h-351c-41 -7 -97 -14 -138 -14c-159 0 -268 76 -268 335v100c0 258 108 335 267 335c41 0 97 -5 139 -13h351v-182h-116l-7 37h-112v-150h218v-137h-218v-166h112l7 39h116v-184zM366 142v457c-22 3 -37 5 -57 5c-67 0 -87 -42 -87 -185v-97
c0 -142 20 -184 87 -184c19 0 32 0 57 4z" />
    <glyph glyph-name="Racute" unicode="&#x154;" horiz-adv-x="622" 
d="M286 0h-258v127l36 4v481l-36 4v127c76 5 159 9 247 9c158 0 294 -38 294 -241v-8c0 -103 -32 -163 -87 -201l69 -170l48 -5v-127h-186l-103 263h-60v-132l36 -4v-127zM383 501v8c0 76 -22 97 -95 97c-14 0 -23 0 -38 -1v-206h41c73 0 92 32 92 102zM508 924l-131 -140
h-159l100 140h190z" />
    <glyph glyph-name="Rcaron" unicode="&#x158;" horiz-adv-x="622" 
d="M286 0h-258v127l36 4v481l-36 4v127c76 5 159 9 247 9c158 0 294 -38 294 -241v-8c0 -103 -32 -163 -87 -201l69 -170l48 -5v-127h-186l-103 263h-60v-132l36 -4v-127zM383 501v8c0 76 -22 97 -95 97c-14 0 -23 0 -38 -1v-206h41c73 0 92 32 92 102zM518 924l-103 -140
h-209l-103 140h146l61 -74l62 74h146z" />
    <glyph glyph-name="Rcommaaccent" unicode="&#x156;" horiz-adv-x="622" 
d="M286 0h-258v127l36 4v481l-36 4v127c76 5 159 9 247 9c158 0 294 -38 294 -241v-8c0 -103 -32 -163 -87 -201l69 -170l48 -5v-127h-186l-103 263h-60v-132l36 -4v-127zM383 501v8c0 76 -22 97 -95 97c-14 0 -23 0 -38 -1v-206h41c73 0 92 32 92 102zM421 -61l-87 -141
h-150l57 141h180z" />
    <glyph glyph-name="Sacute" unicode="&#x15a;" horiz-adv-x="530" 
d="M501 208c0 -146 -89 -222 -239 -222c-93 0 -176 13 -219 25v167h115l10 -49c31 -1 40 -1 60 -1c58 0 79 23 79 73c0 39 -17 59 -63 91l-79 54c-83 57 -136 106 -136 211c0 134 81 201 253 201c84 0 167 -16 206 -27v-163h-115l-10 47c-36 1 -43 1 -63 1
c-54 0 -80 -16 -80 -60c0 -33 17 -54 61 -82l70 -45c97 -62 150 -116 150 -221zM463 924l-131 -140h-159l100 140h190z" />
    <glyph glyph-name="Scircumflex" unicode="&#x15c;" horiz-adv-x="530" 
d="M501 208c0 -146 -89 -222 -239 -222c-93 0 -176 13 -219 25v167h115l10 -49c31 -1 40 -1 60 -1c58 0 79 23 79 73c0 39 -17 59 -63 91l-79 54c-83 57 -136 106 -136 211c0 134 81 201 253 201c84 0 167 -16 206 -27v-163h-115l-10 47c-36 1 -43 1 -63 1
c-54 0 -80 -16 -80 -60c0 -33 17 -54 61 -82l70 -45c97 -62 150 -116 150 -221zM475 784h-146l-62 75l-61 -75h-146l103 140h209z" />
    <glyph glyph-name="Scaron" unicode="&#x160;" horiz-adv-x="530" 
d="M501 208c0 -146 -89 -222 -239 -222c-93 0 -176 13 -219 25v167h115l10 -49c31 -1 40 -1 60 -1c58 0 79 23 79 73c0 39 -17 59 -63 91l-79 54c-83 57 -136 106 -136 211c0 134 81 201 253 201c84 0 167 -16 206 -27v-163h-115l-10 47c-36 1 -43 1 -63 1
c-54 0 -80 -16 -80 -60c0 -33 17 -54 61 -82l70 -45c97 -62 150 -116 150 -221zM475 924l-103 -140h-209l-103 140h146l61 -74l62 74h146z" />
    <glyph glyph-name="Scedilla" unicode="&#x15e;" horiz-adv-x="530" 
d="M501 208c0 -146 -89 -222 -239 -222c-93 0 -176 13 -219 25v167h115l10 -49c31 -1 40 -1 60 -1c58 0 79 23 79 73c0 39 -17 59 -63 91l-79 54c-83 57 -136 106 -136 211c0 134 81 201 253 201c84 0 167 -16 206 -27v-163h-115l-10 47c-36 1 -43 1 -63 1
c-54 0 -80 -16 -80 -60c0 -33 17 -54 61 -82l70 -45c97 -62 150 -116 150 -221zM368 -61l-108 -141h-156l81 141h183z" />
    <glyph glyph-name="Scommaaccent" unicode="&#x218;" horiz-adv-x="530" 
d="M501 208c0 -146 -89 -222 -239 -222c-93 0 -176 13 -219 25v167h115l10 -49c31 -1 40 -1 60 -1c58 0 79 23 79 73c0 39 -17 59 -63 91l-79 54c-83 57 -136 106 -136 211c0 134 81 201 253 201c84 0 167 -16 206 -27v-163h-115l-10 47c-36 1 -43 1 -63 1
c-54 0 -80 -16 -80 -60c0 -33 17 -54 61 -82l70 -45c97 -62 150 -116 150 -221zM368 -61l-87 -141h-150l57 141h180z" />
    <glyph glyph-name="Tcaron" unicode="&#x164;" horiz-adv-x="579" 
d="M554 560h-112l-9 40h-48v-469l38 -5v-126h-266v126l37 5v469h-48l-8 -40h-113v183h529v-183zM497 924l-103 -140h-209l-103 140h146l61 -74l62 74h146z" />
    <glyph glyph-name="Tcommaaccent" unicode="&#x162;" horiz-adv-x="579" 
d="M554 560h-112l-9 40h-48v-469l38 -5v-126h-266v126l37 5v469h-48l-8 -40h-113v183h529v-183zM386 -58l-87 -141h-150l57 141h180z" />
    <glyph glyph-name="uni021A" unicode="&#x21a;" horiz-adv-x="579" 
d="M554 560h-112l-9 40h-48v-469l38 -5v-126h-266v126l37 5v469h-48l-8 -40h-113v183h529v-183zM386 -58l-87 -141h-150l57 141h180z" />
    <glyph glyph-name="Tbar" unicode="&#x166;" horiz-adv-x="579" 
d="M524 345h-138v-209l38 -5v-131h-266v131l37 5v209h-139v126h139v129h-48l-8 -40h-113v183h529v-183h-112l-9 40h-48v-129h138v-126z" />
    <glyph glyph-name="Uacute" unicode="&#xda;" horiz-adv-x="660" 
d="M369 743h263v-127l-37 -4v-338c0 -152 -65 -288 -265 -288c-201 0 -265 136 -265 288v338l-37 4v127h263v-127l-36 -4v-331c0 -108 11 -147 75 -147s75 39 75 147v331l-36 4v127zM531 924l-131 -140h-159l100 140h190z" />
    <glyph glyph-name="Ugrave" unicode="&#xd9;" horiz-adv-x="660" 
d="M369 743h263v-127l-37 -4v-338c0 -152 -65 -288 -265 -288c-201 0 -265 136 -265 288v338l-37 4v127h263v-127l-36 -4v-331c0 -108 11 -147 75 -147s75 39 75 147v331l-36 4v127zM428 784h-159l-131 140h190z" />
    <glyph glyph-name="Ucircumflex" unicode="&#xdb;" horiz-adv-x="660" 
d="M369 743h263v-127l-37 -4v-338c0 -152 -65 -288 -265 -288c-201 0 -265 136 -265 288v338l-37 4v127h263v-127l-36 -4v-331c0 -108 11 -147 75 -147s75 39 75 147v331l-36 4v127zM537 784h-146l-62 75l-61 -75h-146l103 140h209z" />
    <glyph glyph-name="Udieresis" unicode="&#xdc;" horiz-adv-x="660" 
d="M369 743h263v-127l-37 -4v-338c0 -152 -65 -288 -265 -288c-201 0 -265 136 -265 288v338l-37 4v127h263v-127l-36 -4v-331c0 -108 11 -147 75 -147s75 39 75 147v331l-36 4v127zM510 790h-142v127h142v-127zM292 790v127h-142v-127h142z" />
    <glyph glyph-name="Utilde" unicode="&#x168;" horiz-adv-x="660" 
d="M369 743h263v-127l-37 -4v-338c0 -152 -65 -288 -265 -288c-201 0 -265 136 -265 288v338l-37 4v127h263v-127l-36 -4v-331c0 -108 11 -147 75 -147s75 39 75 147v331l-36 4v127zM534 913c0 -93 -51 -131 -115 -131c-30 0 -63 5 -95 27l-25 18c-14 11 -25 19 -39 19
c-19 0 -24 -10 -24 -35v-27h-109v27c0 93 53 132 118 132c31 0 63 -6 95 -29l25 -18c15 -11 25 -17 40 -17c17 0 22 10 22 34v27h107v-27z" />
    <glyph glyph-name="Umacron" unicode="&#x16a;" horiz-adv-x="660" 
d="M369 743h263v-127l-37 -4v-338c0 -152 -65 -288 -265 -288c-201 0 -265 136 -265 288v338l-37 4v127h263v-127l-36 -4v-331c0 -108 11 -147 75 -147s75 39 75 147v331l-36 4v127zM505 790h-350v106h350v-106z" />
    <glyph glyph-name="Uring" unicode="&#x16e;" horiz-adv-x="660" 
d="M369 743h263v-127l-37 -4v-338c0 -152 -65 -288 -265 -288c-201 0 -265 136 -265 288v338l-37 4v127h263v-127l-36 -4v-331c0 -108 11 -147 75 -147s75 39 75 147v331l-36 4v127zM465 896c0 -77 -58 -123 -136 -123s-136 46 -136 123c0 78 58 124 136 124
s136 -46 136 -124zM377 896c0 33 -19 49 -48 49c-28 0 -48 -16 -48 -49c0 -32 19 -48 48 -48s48 16 48 48z" />
    <glyph glyph-name="Ubreve" unicode="&#x16c;" horiz-adv-x="660" 
d="M369 743h263v-127l-37 -4v-338c0 -152 -65 -288 -265 -288c-201 0 -265 136 -265 288v338l-37 4v127h263v-127l-36 -4v-331c0 -108 11 -147 75 -147s75 39 75 147v331l-36 4v127zM520 934c-16 -109 -98 -151 -190 -151c-90 0 -173 42 -190 151h112c7 -53 37 -67 78 -67
c43 0 72 14 80 67h110z" />
    <glyph glyph-name="Uhungarumlaut" unicode="&#x170;" horiz-adv-x="660" 
d="M369 743h263v-127l-37 -4v-338c0 -152 -65 -288 -265 -288c-201 0 -265 136 -265 288v338l-37 4v127h263v-127l-36 -4v-331c0 -108 11 -147 75 -147s75 39 75 147v331l-36 4v127zM657 923l-131 -141h-149l100 141h180zM409 923h-180l-100 -141h149z" />
    <glyph glyph-name="Uogonek" unicode="&#x172;" horiz-adv-x="660" 
d="M369 743h263v-127l-37 -4v-338c0 -130 -48 -249 -187 -280c-50 -27 -59 -52 -59 -71c0 -24 12 -34 50 -34c22 0 49 3 66 4v-84c-33 -11 -81 -19 -131 -19c-87 0 -140 24 -140 104c0 37 14 70 55 101c-138 31 -184 149 -184 279v338l-37 4v127h263v-127l-36 -4v-331
c0 -108 11 -147 75 -147s75 39 75 147v331l-36 4v127z" />
    <glyph glyph-name="Wacute" unicode="&#x1e82;" horiz-adv-x="852" 
d="M572 743h259v-127l-39 -5l-76 -611h-217l-55 273c-6 32 -13 79 -17 109h-2c-4 -30 -11 -77 -17 -109l-54 -273h-218l-76 611l-38 5v127h258v-127l-35 -4l23 -241c4 -45 8 -95 10 -135h3c5 38 12 87 20 128l37 179h177l37 -180c8 -41 15 -91 20 -127h3c1 41 5 90 9 135
l22 241l-34 4v127zM632 924l-131 -140h-159l100 140h190z" />
    <glyph glyph-name="Wgrave" unicode="&#x1e80;" horiz-adv-x="852" 
d="M572 743h259v-127l-39 -5l-76 -611h-217l-55 273c-6 32 -13 79 -17 109h-2c-4 -30 -11 -77 -17 -109l-54 -273h-218l-76 611l-38 5v127h258v-127l-35 -4l23 -241c4 -45 8 -95 10 -135h3c5 38 12 87 20 128l37 179h177l37 -180c8 -41 15 -91 20 -127h3c1 41 5 90 9 135
l22 241l-34 4v127zM519 784h-159l-131 140h190z" />
    <glyph glyph-name="Wcircumflex" unicode="&#x174;" horiz-adv-x="852" 
d="M572 743h259v-127l-39 -5l-76 -611h-217l-55 273c-6 32 -13 79 -17 109h-2c-4 -30 -11 -77 -17 -109l-54 -273h-218l-76 611l-38 5v127h258v-127l-35 -4l23 -241c4 -45 8 -95 10 -135h3c5 38 12 87 20 128l37 179h177l37 -180c8 -41 15 -91 20 -127h3c1 41 5 90 9 135
l22 241l-34 4v127zM634 784h-146l-62 75l-61 -75h-146l103 140h209z" />
    <glyph glyph-name="Wdieresis" unicode="&#x1e84;" horiz-adv-x="852" 
d="M572 743h259v-127l-39 -5l-76 -611h-217l-55 273c-6 32 -13 79 -17 109h-2c-4 -30 -11 -77 -17 -109l-54 -273h-218l-76 611l-38 5v127h258v-127l-35 -4l23 -241c4 -45 8 -95 10 -135h3c5 38 12 87 20 128l37 179h177l37 -180c8 -41 15 -91 20 -127h3c1 41 5 90 9 135
l22 241l-34 4v127zM607 790h-142v127h142v-127zM389 790v127h-142v-127h142z" />
    <glyph glyph-name="Yacute" unicode="&#xdd;" horiz-adv-x="585" 
d="M561 616l-44 -6l-131 -333v-148l37 -6v-123h-263v123l39 6v147l-132 334l-44 6v127h184l56 -181c11 -35 22 -80 28 -115h2c7 35 19 81 29 115l56 181h183v-127zM487 924l-131 -140h-159l100 140h190z" />
    <glyph glyph-name="Ygrave" unicode="&#x1ef2;" horiz-adv-x="585" 
d="M561 616l-44 -6l-131 -333v-148l37 -6v-123h-263v123l39 6v147l-132 334l-44 6v127h184l56 -181c11 -35 22 -80 28 -115h2c7 35 19 81 29 115l56 181h183v-127zM390 784h-159l-131 140h190z" />
    <glyph glyph-name="Ycircumflex" unicode="&#x176;" horiz-adv-x="585" 
d="M561 616l-44 -6l-131 -333v-148l37 -6v-123h-263v123l39 6v147l-132 334l-44 6v127h184l56 -181c11 -35 22 -80 28 -115h2c7 35 19 81 29 115l56 181h183v-127zM500 784h-146l-62 75l-61 -75h-146l103 140h209z" />
    <glyph glyph-name="Ydieresis" unicode="&#x178;" horiz-adv-x="585" 
d="M561 616l-44 -6l-131 -333v-148l37 -6v-123h-263v123l39 6v147l-132 334l-44 6v127h184l56 -181c11 -35 22 -80 28 -115h2c7 35 19 81 29 115l56 181h183v-127zM473 794h-142v127h142v-127zM255 794v127h-142v-127h142z" />
    <glyph glyph-name="Zacute" unicode="&#x179;" horiz-adv-x="515" 
d="M487 0h-459v147l235 452h-111l-9 -40h-110v184h449v-151l-235 -448h120l10 43h110v-187zM465 924l-131 -140h-159l100 140h190z" />
    <glyph glyph-name="Zcaron" unicode="&#x17d;" horiz-adv-x="515" 
d="M487 0h-459v147l235 452h-111l-9 -40h-110v184h449v-151l-235 -448h120l10 43h110v-187zM472 924l-103 -140h-209l-103 140h146l61 -74l62 74h146z" />
    <glyph glyph-name="Zdotaccent" unicode="&#x17b;" horiz-adv-x="515" 
d="M487 0h-459v147l235 452h-111l-9 -40h-110v184h449v-151l-235 -448h120l10 43h110v-187zM357 790h-186v125h186v-125z" />
    <glyph glyph-name="Thorn" unicode="&#xde;" 
d="M573 411c0 -201 -132 -245 -273 -245h-48v-166h-224v127l37 5v496l-37 5v126h224v-93c16 1 31 1 45 1c149 0 276 -41 276 -243v-13zM386 412v13c0 75 -24 95 -93 95c-14 0 -28 0 -41 -1v-205c13 -1 27 -1 42 -1c68 0 92 27 92 99z" />
    <glyph glyph-name="aacute" unicode="&#xe1;" horiz-adv-x="529" 
d="M503 0h-196v31c-30 -21 -83 -43 -138 -43c-108 0 -140 69 -140 159v31c0 142 99 161 233 161h26v38c0 63 -10 74 -71 74h-33l-8 -39h-114v139c28 10 112 34 198 34c142 0 208 -48 208 -208v-247l35 -4v-126zM297 120v131h-32c-49 0 -65 -10 -65 -69v-30
c0 -38 12 -48 38 -48c23 0 45 8 59 16zM458 773l-131 -140h-159l100 140h190z" />
    <glyph glyph-name="agrave" unicode="&#xe0;" horiz-adv-x="529" 
d="M503 0h-196v31c-30 -21 -83 -43 -138 -43c-108 0 -140 69 -140 159v31c0 142 99 161 233 161h26v38c0 63 -10 74 -71 74h-33l-8 -39h-114v139c28 10 112 34 198 34c142 0 208 -48 208 -208v-247l35 -4v-126zM297 120v131h-32c-49 0 -65 -10 -65 -69v-30
c0 -38 12 -48 38 -48c23 0 45 8 59 16zM370 633h-159l-131 140h190z" />
    <glyph glyph-name="acircumflex" unicode="&#xe2;" horiz-adv-x="529" 
d="M503 0h-196v31c-30 -21 -83 -43 -138 -43c-108 0 -140 69 -140 159v31c0 142 99 161 233 161h26v38c0 63 -10 74 -71 74h-33l-8 -39h-114v139c28 10 112 34 198 34c142 0 208 -48 208 -208v-247l35 -4v-126zM297 120v131h-32c-49 0 -65 -10 -65 -69v-30
c0 -38 12 -48 38 -48c23 0 45 8 59 16zM478 633h-146l-62 75l-61 -75h-146l103 140h209z" />
    <glyph glyph-name="adieresis" unicode="&#xe4;" horiz-adv-x="529" 
d="M503 0h-196v31c-30 -21 -83 -43 -138 -43c-108 0 -140 69 -140 159v31c0 142 99 161 233 161h26v38c0 63 -10 74 -71 74h-33l-8 -39h-114v139c28 10 112 34 198 34c142 0 208 -48 208 -208v-247l35 -4v-126zM297 120v131h-32c-49 0 -65 -10 -65 -69v-30
c0 -38 12 -48 38 -48c23 0 45 8 59 16zM439 641h-142v127h142v-127zM221 641v127h-142v-127h142z" />
    <glyph glyph-name="atilde" unicode="&#xe3;" horiz-adv-x="529" 
d="M503 0h-196v31c-30 -21 -83 -43 -138 -43c-108 0 -140 69 -140 159v31c0 142 99 161 233 161h26v38c0 63 -10 74 -71 74h-33l-8 -39h-114v139c28 10 112 34 198 34c142 0 208 -48 208 -208v-247l35 -4v-126zM297 120v131h-32c-49 0 -65 -10 -65 -69v-30
c0 -38 12 -48 38 -48c23 0 45 8 59 16zM471 760c0 -93 -51 -131 -115 -131c-30 0 -63 5 -95 27l-25 18c-14 11 -25 19 -39 19c-19 0 -24 -10 -24 -35v-27h-109v27c0 93 53 132 118 132c31 0 63 -6 95 -29l25 -18c15 -11 25 -17 40 -17c17 0 22 10 22 34v27h107v-27z" />
    <glyph glyph-name="amacron" unicode="&#x101;" horiz-adv-x="529" 
d="M503 0h-196v31c-30 -21 -83 -43 -138 -43c-108 0 -140 69 -140 159v31c0 142 99 161 233 161h26v38c0 63 -10 74 -71 74h-33l-8 -39h-114v139c28 10 112 34 198 34c142 0 208 -48 208 -208v-247l35 -4v-126zM297 120v131h-32c-49 0 -65 -10 -65 -69v-30
c0 -38 12 -48 38 -48c23 0 45 8 59 16zM448 650h-350v106h350v-106z" />
    <glyph glyph-name="aring" unicode="&#xe5;" horiz-adv-x="529" 
d="M503 0h-196v31c-30 -21 -83 -43 -138 -43c-108 0 -140 69 -140 159v31c0 142 99 161 233 161h26v38c0 63 -10 74 -71 74h-33l-8 -39h-114v139c28 10 112 34 198 34c142 0 208 -48 208 -208v-247l35 -4v-126zM297 120v131h-32c-49 0 -65 -10 -65 -69v-30
c0 -38 12 -48 38 -48c23 0 45 8 59 16zM407 740c0 -77 -58 -123 -136 -123s-136 46 -136 123c0 78 58 124 136 124s136 -46 136 -124zM319 740c0 33 -19 49 -48 49c-28 0 -48 -16 -48 -49c0 -32 19 -48 48 -48s48 16 48 48z" />
    <glyph glyph-name="abreve" unicode="&#x103;" horiz-adv-x="529" 
d="M503 0h-196v31c-30 -21 -83 -43 -138 -43c-108 0 -140 69 -140 159v31c0 142 99 161 233 161h26v38c0 63 -10 74 -71 74h-33l-8 -39h-114v139c28 10 112 34 198 34c142 0 208 -48 208 -208v-247l35 -4v-126zM297 120v131h-32c-49 0 -65 -10 -65 -69v-30
c0 -38 12 -48 38 -48c23 0 45 8 59 16zM462 785c-16 -109 -98 -151 -190 -151c-90 0 -173 42 -190 151h112c7 -53 37 -67 78 -67c43 0 72 14 80 67h110z" />
    <glyph glyph-name="aogonek" unicode="&#x105;" horiz-adv-x="529" 
d="M503 -191c-33 -11 -81 -19 -131 -19c-87 0 -140 31 -140 94c0 43 23 81 97 116h-22v31c-30 -21 -83 -43 -138 -43c-108 0 -140 69 -140 159v31c0 142 99 161 233 161h26v38c0 63 -10 74 -71 74h-33l-8 -39h-114v139c28 10 112 34 198 34c142 0 208 -48 208 -208v-247
l35 -4v-126c-100 -38 -116 -62 -116 -81c0 -21 12 -30 47 -30c25 0 52 3 69 4v-84zM297 120v131h-32c-49 0 -65 -10 -65 -69v-30c0 -38 12 -48 38 -48c23 0 45 8 59 16z" />
    <glyph glyph-name="ae" unicode="&#xe6;" horiz-adv-x="788" 
d="M755 238h-292v-10c0 -85 8 -111 95 -111c47 0 121 3 174 10v-114c-34 -10 -115 -25 -195 -25c-82 0 -145 16 -184 59c-61 -44 -118 -58 -185 -58c-107 0 -139 68 -139 158v31c0 142 98 161 233 161h26v38c0 63 -9 74 -70 74h-34l-8 -39h-114v139c27 10 112 34 198 34
c63 0 103 -10 133 -32c33 21 74 32 129 32c181 0 233 -116 233 -268v-79zM582 335v8c0 79 -10 114 -60 114s-58 -35 -58 -114v-8h118zM296 120v131h-31c-49 0 -66 -10 -66 -69v-30c0 -38 13 -48 38 -48c23 0 45 8 59 16z" />
    <glyph glyph-name="aeacute" unicode="&#x1fd;" horiz-adv-x="788" 
d="M755 238h-292v-10c0 -85 8 -111 95 -111c47 0 121 3 174 10v-114c-34 -10 -115 -25 -195 -25c-82 0 -145 16 -184 59c-61 -44 -118 -58 -185 -58c-107 0 -139 68 -139 158v31c0 142 98 161 233 161h26v38c0 63 -9 74 -70 74h-34l-8 -39h-114v139c27 10 112 34 198 34
c63 0 103 -10 133 -32c33 21 74 32 129 32c181 0 233 -116 233 -268v-79zM582 335v8c0 79 -10 114 -60 114s-58 -35 -58 -114v-8h118zM296 120v131h-31c-49 0 -66 -10 -66 -69v-30c0 -38 13 -48 38 -48c23 0 45 8 59 16zM604 773l-131 -140h-159l100 140h190z" />
    <glyph glyph-name="cacute" unicode="&#x107;" horiz-adv-x="450" 
d="M422 12c-35 -11 -95 -24 -167 -24c-160 0 -223 83 -223 257v83c0 176 63 257 223 257c78 0 144 -14 167 -23v-153h-110l-8 37h-20c-54 0 -73 -18 -73 -118v-83c0 -100 19 -118 75 -118c33 0 80 3 136 7v-122zM443 773l-131 -140h-159l100 140h190z" />
    <glyph glyph-name="ccircumflex" unicode="&#x109;" horiz-adv-x="450" 
d="M422 12c-35 -11 -95 -24 -167 -24c-160 0 -223 83 -223 257v83c0 176 63 257 223 257c78 0 144 -14 167 -23v-153h-110l-8 37h-20c-54 0 -73 -18 -73 -118v-83c0 -100 19 -118 75 -118c33 0 80 3 136 7v-122zM444 633h-146l-62 75l-61 -75h-146l103 140h209z" />
    <glyph glyph-name="ccaron" unicode="&#x10d;" horiz-adv-x="450" 
d="M422 12c-35 -11 -95 -24 -167 -24c-160 0 -223 83 -223 257v83c0 176 63 257 223 257c78 0 144 -14 167 -23v-153h-110l-8 37h-20c-54 0 -73 -18 -73 -118v-83c0 -100 19 -118 75 -118c33 0 80 3 136 7v-122zM451 773l-103 -140h-209l-103 140h146l61 -74l62 74h146z" />
    <glyph glyph-name="cdotaccent" unicode="&#x10b;" horiz-adv-x="450" 
d="M422 12c-35 -11 -95 -24 -167 -24c-160 0 -223 83 -223 257v83c0 176 63 257 223 257c78 0 144 -14 167 -23v-153h-110l-8 37h-20c-54 0 -73 -18 -73 -118v-83c0 -100 19 -118 75 -118c33 0 80 3 136 7v-122zM338 651h-186v125h186v-125z" />
    <glyph glyph-name="ccedilla" unicode="&#xe7;" horiz-adv-x="450" 
d="M422 12c-35 -11 -95 -24 -167 -24c-160 0 -223 83 -223 257v83c0 176 63 257 223 257c78 0 144 -14 167 -23v-153h-110l-8 37h-20c-54 0 -73 -18 -73 -118v-83c0 -100 19 -118 75 -118c33 0 80 3 136 7v-122zM353 -58l-108 -141h-156l81 141h183z" />
    <glyph glyph-name="dcaron" unicode="&#x10f;" horiz-adv-x="723" 
d="M743 776l-78 -256h-134l52 256h160zM535 0h-198v27c-34 -24 -77 -39 -131 -39c-127 0 -175 93 -175 253v88c0 181 70 256 226 256c24 0 44 -1 63 -4v78l-42 5v112h221v-646l36 -4v-126zM324 140v303c-17 3 -33 5 -46 5c-50 0 -68 -15 -68 -119v-88c0 -89 10 -113 58 -113
c20 0 40 5 56 12z" />
    <glyph glyph-name="dcroat" unicode="&#x111;" horiz-adv-x="572" 
d="M537 0h-198v27c-34 -24 -78 -39 -131 -39c-127 0 -176 93 -176 254v86c0 182 70 257 226 257c25 0 44 -2 63 -4v56h-130v86h130v53h180v-53h46v-86h-46v-507l36 -4v-126zM325 140v303c-17 3 -35 5 -46 5c-50 0 -67 -15 -67 -120v-86c0 -90 10 -114 58 -114
c19 0 39 5 55 12z" />
    <glyph glyph-name="eacute" unicode="&#xe9;" horiz-adv-x="531" 
d="M501 238h-292v-10c0 -85 8 -104 95 -104c44 0 122 3 174 9v-119c-35 -11 -108 -26 -188 -26c-169 0 -259 58 -259 255v80c0 185 87 262 237 262c181 0 233 -116 233 -269v-78zM328 335v8c0 79 -10 114 -60 114s-59 -35 -59 -114v-8h119zM457 773l-131 -140h-159l100 140
h190z" />
    <glyph glyph-name="egrave" unicode="&#xe8;" horiz-adv-x="531" 
d="M501 238h-292v-10c0 -85 8 -104 95 -104c44 0 122 3 174 9v-119c-35 -11 -108 -26 -188 -26c-169 0 -259 58 -259 255v80c0 185 87 262 237 262c181 0 233 -116 233 -269v-78zM328 335v8c0 79 -10 114 -60 114s-59 -35 -59 -114v-8h119zM378 633h-159l-131 140h190z" />
    <glyph glyph-name="ecircumflex" unicode="&#xea;" horiz-adv-x="531" 
d="M501 238h-292v-10c0 -85 8 -104 95 -104c44 0 122 3 174 9v-119c-35 -11 -108 -26 -188 -26c-169 0 -259 58 -259 255v80c0 185 87 262 237 262c181 0 233 -116 233 -269v-78zM328 335v8c0 79 -10 114 -60 114s-59 -35 -59 -114v-8h119zM476 633h-146l-62 75l-61 -75
h-146l103 140h209z" />
    <glyph glyph-name="edieresis" unicode="&#xeb;" horiz-adv-x="531" 
d="M501 238h-292v-10c0 -85 8 -104 95 -104c44 0 122 3 174 9v-119c-35 -11 -108 -26 -188 -26c-169 0 -259 58 -259 255v80c0 185 87 262 237 262c181 0 233 -116 233 -269v-78zM328 335v8c0 79 -10 114 -60 114s-59 -35 -59 -114v-8h119zM446 641h-142v127h142v-127z
M228 641v127h-142v-127h142z" />
    <glyph glyph-name="emacron" unicode="&#x113;" horiz-adv-x="531" 
d="M501 238h-292v-10c0 -85 8 -104 95 -104c44 0 122 3 174 9v-119c-35 -11 -108 -26 -188 -26c-169 0 -259 58 -259 255v80c0 185 87 262 237 262c181 0 233 -116 233 -269v-78zM328 335v8c0 79 -10 114 -60 114s-59 -35 -59 -114v-8h119zM446 650h-350v106h350v-106z" />
    <glyph glyph-name="ecaron" unicode="&#x11b;" horiz-adv-x="531" 
d="M501 238h-292v-10c0 -85 8 -104 95 -104c44 0 122 3 174 9v-119c-35 -11 -108 -26 -188 -26c-169 0 -259 58 -259 255v80c0 185 87 262 237 262c181 0 233 -116 233 -269v-78zM328 335v8c0 79 -10 114 -60 114s-59 -35 -59 -114v-8h119zM481 773l-103 -140h-209l-103 140
h146l61 -74l62 74h146z" />
    <glyph glyph-name="ebreve" unicode="&#x115;" horiz-adv-x="531" 
d="M501 238h-292v-10c0 -85 8 -104 95 -104c44 0 122 3 174 9v-119c-35 -11 -108 -26 -188 -26c-169 0 -259 58 -259 255v80c0 185 87 262 237 262c181 0 233 -116 233 -269v-78zM328 335v8c0 79 -10 114 -60 114s-59 -35 -59 -114v-8h119zM462 781
c-16 -109 -98 -151 -190 -151c-90 0 -173 42 -190 151h112c7 -53 37 -67 78 -67c43 0 72 14 80 67h110z" />
    <glyph glyph-name="edotaccent" unicode="&#x117;" horiz-adv-x="531" 
d="M501 238h-292v-10c0 -85 8 -104 95 -104c44 0 122 3 174 9v-119c-35 -11 -108 -26 -188 -26c-169 0 -259 58 -259 255v80c0 185 87 262 237 262c181 0 233 -116 233 -269v-78zM328 335v8c0 79 -10 114 -60 114s-59 -35 -59 -114v-8h119zM365 652h-186v125h186v-125z" />
    <glyph glyph-name="eogonek" unicode="&#x119;" horiz-adv-x="531" 
d="M501 238h-292v-10c0 -85 8 -104 95 -104c44 0 122 3 174 9v-119c-100 -38 -116 -72 -116 -91c0 -21 12 -34 47 -34c25 0 52 3 69 4v-84c-33 -11 -81 -19 -131 -19c-87 0 -140 35 -140 98c0 33 23 69 71 100c-161 3 -247 62 -247 255v80c0 185 87 262 237 262
c181 0 233 -116 233 -269v-78zM328 335v8c0 79 -10 114 -60 114s-59 -35 -59 -114v-8h119z" />
    <glyph glyph-name="gcircumflex" unicode="&#x11d;" horiz-adv-x="543" 
d="M511 -27c0 -133 -89 -185 -246 -185c-149 0 -237 54 -237 174c0 42 16 84 47 116c-30 22 -43 52 -43 85c0 34 16 68 51 89c-27 28 -44 73 -44 139c0 107 32 194 231 194h248v-91l-41 -12c9 -16 21 -50 21 -91c0 -147 -96 -198 -229 -198c-28 0 -61 4 -82 9
c-9 -7 -14 -17 -14 -28c0 -21 9 -25 43 -25h50c177 0 245 -39 245 -176zM337 -37c0 60 -10 72 -72 72h-56c-10 -15 -15 -34 -15 -71c0 -52 19 -70 72 -70c52 0 71 19 71 69zM326 391c0 54 -9 81 -57 81c-49 0 -58 -28 -58 -81c0 -55 10 -84 58 -84s57 29 57 84zM477 633
h-146l-62 75l-61 -75h-146l103 140h209z" />
    <glyph glyph-name="gbreve" unicode="&#x11f;" horiz-adv-x="543" 
d="M511 -27c0 -133 -89 -185 -246 -185c-149 0 -237 54 -237 174c0 42 16 84 47 116c-30 22 -43 52 -43 85c0 34 16 68 51 89c-27 28 -44 73 -44 139c0 107 32 194 231 194h248v-91l-41 -12c9 -16 21 -50 21 -91c0 -147 -96 -198 -229 -198c-28 0 -61 4 -82 9
c-9 -7 -14 -17 -14 -28c0 -21 9 -25 43 -25h50c177 0 245 -39 245 -176zM337 -37c0 60 -10 72 -72 72h-56c-10 -15 -15 -34 -15 -71c0 -52 19 -70 72 -70c52 0 71 19 71 69zM326 391c0 54 -9 81 -57 81c-49 0 -58 -28 -58 -81c0 -55 10 -84 58 -84s57 29 57 84zM465 781
c-16 -109 -98 -151 -190 -151c-90 0 -173 42 -190 151h112c7 -53 37 -67 78 -67c43 0 72 14 80 67h110z" />
    <glyph glyph-name="gdotaccent" unicode="&#x121;" horiz-adv-x="543" 
d="M511 -27c0 -133 -89 -185 -246 -185c-149 0 -237 54 -237 174c0 42 16 84 47 116c-30 22 -43 52 -43 85c0 34 16 68 51 89c-27 28 -44 73 -44 139c0 107 32 194 231 194h248v-91l-41 -12c9 -16 21 -50 21 -91c0 -147 -96 -198 -229 -198c-28 0 -61 4 -82 9
c-9 -7 -14 -17 -14 -28c0 -21 9 -25 43 -25h50c177 0 245 -39 245 -176zM337 -37c0 60 -10 72 -72 72h-56c-10 -15 -15 -34 -15 -71c0 -52 19 -70 72 -70c52 0 71 19 71 69zM326 391c0 54 -9 81 -57 81c-49 0 -58 -28 -58 -81c0 -55 10 -84 58 -84s57 29 57 84zM370 652
h-186v125h186v-125z" />
    <glyph glyph-name="gcommaaccent" unicode="&#x123;" horiz-adv-x="543" 
d="M511 -27c0 -133 -89 -185 -246 -185c-149 0 -237 54 -237 174c0 42 16 84 47 116c-30 22 -43 52 -43 85c0 34 16 68 51 89c-27 28 -44 73 -44 139c0 107 32 194 231 194h248v-91l-41 -12c9 -16 21 -50 21 -91c0 -147 -96 -198 -229 -198c-28 0 -61 4 -82 9
c-9 -7 -14 -17 -14 -28c0 -21 9 -25 43 -25h50c177 0 245 -39 245 -176zM337 -37c0 60 -10 72 -72 72h-56c-10 -15 -15 -34 -15 -71c0 -52 19 -70 72 -70c52 0 71 19 71 69zM326 391c0 54 -9 81 -57 81c-49 0 -58 -28 -58 -81c0 -55 10 -84 58 -84s57 29 57 84zM414 779
l-58 -141h-180l87 141h151z" />
    <glyph glyph-name="hcircumflex" unicode="&#x125;" 
d="M566 0h-216v380c0 52 -8 67 -42 67c-24 0 -48 -9 -67 -20v-297l36 -4v-126h-251v126l36 4v516l-36 5v125h215v-225c38 22 88 34 130 34c143 0 159 -92 159 -203v-252l36 -4v-126zM506 800h-146l-62 75l-61 -75h-146l103 140h209z" />
    <glyph glyph-name="hbar" unicode="&#x127;" 
d="M21 632v95h42v49h179v-49h131v-95h-131v-81c38 22 87 34 130 34c143 0 159 -92 159 -203v-251l35 -6v-125h-215v380c0 52 -8 67 -42 67c-24 0 -48 -9 -67 -20v-296l36 -6v-125h-251v125l36 6v501h-42z" />
    <glyph glyph-name="iacute" unicode="&#xed;" horiz-adv-x="304" 
d="M335 773l-131 -140h-159l100 140h190zM277 0h-251v126l36 5v312l-36 5v126h216v-443l35 -5v-126z" />
    <glyph glyph-name="igrave" unicode="&#xec;" horiz-adv-x="304" 
d="M243 633h-159l-131 140h190zM277 0h-251v126l36 5v312l-36 5v126h216v-443l35 -5v-126z" />
    <glyph glyph-name="icircumflex" unicode="&#xee;" horiz-adv-x="304" 
d="M277 0h-251v126l36 5v312l-36 5v126h216v-443l35 -5v-126zM355 633h-146l-62 75l-61 -75h-146l103 140h209z" />
    <glyph glyph-name="idieresis" unicode="&#xef;" horiz-adv-x="304" 
d="M329 641h-142v127h142v-127zM111 641v127h-142v-127h142zM277 0h-251v126l36 5v312l-36 5v126h216v-443l35 -5v-126z" />
    <glyph glyph-name="itilde" unicode="&#x129;" horiz-adv-x="304" 
d="M346 761c0 -93 -51 -131 -115 -131c-30 0 -63 5 -95 27l-25 18c-14 11 -25 19 -39 19c-19 0 -24 -10 -24 -35v-27h-109v27c0 93 53 132 118 132c31 0 63 -6 95 -29l25 -18c15 -11 25 -17 40 -17c17 0 22 10 22 34v27h107v-27zM277 0h-251v126l36 5v312l-36 5v126h216
v-443l35 -5v-126z" />
    <glyph glyph-name="imacron" unicode="&#x12b;" horiz-adv-x="304" 
d="M323 650h-350v106h350v-106zM277 0h-251v126l36 5v312l-36 5v126h216v-443l35 -5v-126z" />
    <glyph glyph-name="ibreve" unicode="&#x12d;" horiz-adv-x="304" 
d="M338 781c-16 -109 -98 -151 -190 -151c-90 0 -173 42 -190 151h112c7 -53 37 -67 78 -67c43 0 72 14 80 67h110zM277 0h-251v126l36 5v312l-36 5v126h216v-443l35 -5v-126z" />
    <glyph glyph-name="iogonek" unicode="&#x12f;" horiz-adv-x="304" 
d="M277 0c-100 -38 -109 -62 -109 -81c0 -21 12 -30 47 -30c25 0 52 3 69 4v-84c-33 -11 -81 -19 -131 -19c-87 0 -140 31 -140 94c0 43 18 81 90 116h-77v126l36 4v313l-36 5v126h216v-444l35 -4v-126zM245 650h-187v126h187v-126z" />
    <glyph glyph-name="dotlessi" unicode="&#x131;" horiz-adv-x="304" 
d="M277 0h-251v126l36 5v312l-36 5v126h216v-443l35 -5v-126z" />
    <glyph glyph-name="ij" unicode="&#x133;" horiz-adv-x="562" 
d="M277 0h-251v126l36 4v313l-36 5v126h216v-444l35 -4v-126zM245 650h-187v126h187v-126zM522 -38c0 -131 -51 -175 -171 -175c-39 0 -77 5 -97 11v116h48c34 0 41 8 41 48v482l-36 5v125h215v-612zM525 650h-187v126h187v-126z" />
    <glyph glyph-name="jcircumflex" unicode="&#x135;" horiz-adv-x="281" 
d="M241 -37c0 -128 -51 -175 -168 -175c-43 0 -79 5 -100 11v116c18 -1 32 -1 48 -1c34 0 41 9 41 49v475l-36 5v131h215v-611zM355 633h-146l-62 75l-61 -75h-146l103 140h209z" />
    <glyph glyph-name="kcommaaccent" unicode="&#x137;" horiz-adv-x="561" 
d="M535 0h-189l-106 255v-255h-214v126l36 4v517l-36 4v125h214v-449l109 247h184v-126l-54 -6l-74 -146l81 -163l49 -7v-126zM384 -58l-87 -141h-150l57 141h180z" />
    <glyph glyph-name="kgreenlandic" unicode="&#x138;" horiz-adv-x="561" 
d="M535 0h-189l-106 255v-255h-214v126l36 4v315l-36 4v125h214v-247l109 247h184v-126l-54 -6l-74 -146l81 -163l49 -7v-126z" />
    <glyph glyph-name="lacute" unicode="&#x13a;" horiz-adv-x="303" 
d="M277 0h-251v126l36 4v516l-36 5v125h215v-646l36 -4v-126zM339 942l-131 -140h-159l100 140h190z" />
    <glyph glyph-name="lcaron" unicode="&#x13e;" horiz-adv-x="461" 
d="M275 0h-251v126l36 4v516l-36 5v125h215v-646l36 -4v-126zM481 776l-78 -256h-134l51 256h161z" />
    <glyph glyph-name="ldot" unicode="&#x140;" horiz-adv-x="480" 
d="M276 0h-250v126l36 4v516l-36 5v125h215v-646l35 -4v-126zM454 282h-171v166h171v-166z" />
    <glyph glyph-name="lcommaaccent" unicode="&#x13c;" horiz-adv-x="303" 
d="M277 0h-251v126l36 4v516l-36 5v125h215v-646l36 -4v-126zM247 -58l-87 -141h-150l57 141h180z" />
    <glyph glyph-name="lslash" unicode="&#x142;" horiz-adv-x="303" 
d="M13 205v130l49 44v267l-36 5v125h215v-234l51 46v-130l-51 -46v-282l36 -4v-126h-251v126l36 4v119z" />
    <glyph glyph-name="nacute" unicode="&#x144;" 
d="M566 0h-216v382c0 51 -8 66 -40 66c-20 0 -45 -9 -69 -22v-296l36 -4v-126h-251v126l36 4v314l-36 5v125h204v-41c39 30 91 52 148 52c144 0 152 -92 152 -203v-252l36 -4v-126zM484 773l-131 -140h-159l100 140h190z" />
    <glyph glyph-name="ntilde" unicode="&#xf1;" 
d="M566 0h-216v382c0 51 -8 66 -40 66c-20 0 -45 -9 -69 -22v-296l36 -4v-126h-251v126l36 4v314l-36 5v125h204v-41c39 30 91 52 148 52c144 0 152 -92 152 -203v-252l36 -4v-126zM494 761c0 -93 -51 -131 -115 -131c-30 0 -63 5 -95 27l-25 18c-14 11 -25 19 -39 19
c-19 0 -24 -10 -24 -35v-27h-109v27c0 93 53 132 118 132c31 0 63 -6 95 -29l25 -18c15 -11 25 -17 40 -17c17 0 22 10 22 34v27h107v-27z" />
    <glyph glyph-name="ncaron" unicode="&#x148;" 
d="M566 0h-216v382c0 51 -8 66 -40 66c-20 0 -45 -9 -69 -22v-296l36 -4v-126h-251v126l36 4v314l-36 5v125h204v-41c39 30 91 52 148 52c144 0 152 -92 152 -203v-252l36 -4v-126zM502 773l-103 -140h-209l-103 140h146l61 -74l62 74h146z" />
    <glyph glyph-name="ncommaaccent" unicode="&#x146;" 
d="M566 0h-216v382c0 51 -8 66 -40 66c-20 0 -45 -9 -69 -22v-296l36 -4v-126h-251v126l36 4v314l-36 5v125h204v-41c39 30 91 52 148 52c144 0 152 -92 152 -203v-252l36 -4v-126zM400 -58l-87 -141h-150l57 141h180z" />
    <glyph glyph-name="napostrophe" unicode="&#x149;" 
d="M566 0h-216v382c0 51 -8 66 -40 66c-20 0 -45 -9 -69 -22v-296l36 -4v-126h-251v126l36 4v314l-36 5v125h204v-41c39 30 91 52 148 52c144 0 152 -92 152 -203v-252l36 -4v-126zM62 776l-85 -257h-127l51 257h161z" />
    <glyph glyph-name="eng" unicode="&#x14b;" horiz-adv-x="582" 
d="M530 -37c0 -128 -53 -175 -170 -175c-40 0 -78 5 -100 11v116c18 -1 32 -1 50 -1c32 0 39 9 39 49v419c0 51 -8 66 -39 66c-20 0 -44 -8 -69 -22v-295l35 -6v-125h-250v125l36 6v312l-36 5v126h203v-41c39 30 92 52 151 52c141 0 150 -92 150 -203v-419z" />
    <glyph glyph-name="oacute" unicode="&#xf3;" horiz-adv-x="536" 
d="M504 245c0 -193 -90 -257 -236 -257s-236 64 -236 257v83c0 194 90 257 236 257s236 -63 236 -257v-83zM326 245v83c0 95 -16 119 -58 119s-58 -24 -58 -119v-83c0 -94 16 -119 58 -119s58 24 58 119zM464 773l-131 -140h-159l100 140h190z" />
    <glyph glyph-name="ograve" unicode="&#xf2;" horiz-adv-x="536" 
d="M504 245c0 -193 -90 -257 -236 -257s-236 64 -236 257v83c0 194 90 257 236 257s236 -63 236 -257v-83zM326 245v83c0 95 -16 119 -58 119s-58 -24 -58 -119v-83c0 -94 16 -119 58 -119s58 24 58 119zM379 633h-159l-131 140h190z" />
    <glyph glyph-name="ocircumflex" unicode="&#xf4;" horiz-adv-x="536" 
d="M504 245c0 -193 -90 -257 -236 -257s-236 64 -236 257v83c0 194 90 257 236 257s236 -63 236 -257v-83zM326 245v83c0 95 -16 119 -58 119s-58 -24 -58 -119v-83c0 -94 16 -119 58 -119s58 24 58 119zM476 633h-146l-62 75l-61 -75h-146l103 140h209z" />
    <glyph glyph-name="odieresis" unicode="&#xf6;" horiz-adv-x="536" 
d="M504 245c0 -193 -90 -257 -236 -257s-236 64 -236 257v83c0 194 90 257 236 257s236 -63 236 -257v-83zM326 245v83c0 95 -16 119 -58 119s-58 -24 -58 -119v-83c0 -94 16 -119 58 -119s58 24 58 119zM450 641h-142v127h142v-127zM232 641v127h-142v-127h142z" />
    <glyph glyph-name="otilde" unicode="&#xf5;" horiz-adv-x="536" 
d="M504 245c0 -193 -90 -257 -236 -257s-236 64 -236 257v83c0 194 90 257 236 257s236 -63 236 -257v-83zM326 245v83c0 95 -16 119 -58 119s-58 -24 -58 -119v-83c0 -94 16 -119 58 -119s58 24 58 119zM473 760c0 -93 -51 -131 -115 -131c-30 0 -63 5 -95 27l-25 18
c-14 11 -25 19 -39 19c-19 0 -24 -10 -24 -35v-27h-109v27c0 93 53 132 118 132c31 0 63 -6 95 -29l25 -18c15 -11 25 -17 40 -17c17 0 22 10 22 34v27h107v-27z" />
    <glyph glyph-name="omacron" unicode="&#x14d;" horiz-adv-x="536" 
d="M504 245c0 -193 -90 -257 -236 -257s-236 64 -236 257v83c0 194 90 257 236 257s236 -63 236 -257v-83zM326 245v83c0 95 -16 119 -58 119s-58 -24 -58 -119v-83c0 -94 16 -119 58 -119s58 24 58 119zM448 650h-350v106h350v-106z" />
    <glyph glyph-name="obreve" unicode="&#x14f;" horiz-adv-x="536" 
d="M504 245c0 -193 -90 -257 -236 -257s-236 64 -236 257v83c0 194 90 257 236 257s236 -63 236 -257v-83zM326 245v83c0 95 -16 119 -58 119s-58 -24 -58 -119v-83c0 -94 16 -119 58 -119s58 24 58 119zM461 781c-16 -109 -98 -151 -190 -151c-90 0 -173 42 -190 151h112
c7 -53 37 -67 78 -67c43 0 72 14 80 67h110z" />
    <glyph glyph-name="ohungarumlaut" unicode="&#x151;" horiz-adv-x="536" 
d="M504 245c0 -193 -90 -257 -236 -257s-236 64 -236 257v83c0 194 90 257 236 257s236 -63 236 -257v-83zM326 245v83c0 95 -16 119 -58 119s-58 -24 -58 -119v-83c0 -94 16 -119 58 -119s58 24 58 119zM599 773l-131 -141h-149l100 141h180zM351 773h-180l-100 -141h149z
" />
    <glyph glyph-name="oslash" unicode="&#xf8;" horiz-adv-x="536" 
d="M505 246c0 -191 -90 -258 -237 -258c-40 0 -76 6 -106 18l-24 -38h-117l61 94c-32 40 -50 100 -50 184v81c0 191 91 258 236 258c43 0 80 -7 111 -20l26 41h117l-64 -100c30 -40 47 -98 47 -179v-81zM326 246v81c0 95 -16 120 -58 120s-58 -25 -58 -120v-81
c0 -95 16 -120 58 -120s58 25 58 120z" />
    <glyph glyph-name="oslashacute" unicode="&#x1ff;" horiz-adv-x="536" 
d="M459 773l-131 -140h-159l100 140h190zM505 246c0 -191 -90 -258 -237 -258c-40 0 -76 6 -106 18l-24 -38h-117l61 94c-32 40 -50 100 -50 184v81c0 191 91 258 236 258c43 0 80 -7 111 -20l26 41h117l-64 -100c30 -40 47 -98 47 -179v-81zM326 246v81
c0 95 -16 120 -58 120s-58 -25 -58 -120v-81c0 -95 16 -120 58 -120s58 25 58 120z" />
    <glyph glyph-name="oe" unicode="&#x153;" horiz-adv-x="822" 
d="M793 238h-291v-10c0 -85 8 -111 94 -111c47 0 122 3 174 10v-114c-34 -10 -115 -25 -195 -25c-72 0 -126 15 -161 46c-38 -31 -87 -46 -149 -46c-146 0 -236 64 -236 257v83c0 194 90 257 236 257c62 0 112 -14 148 -45c36 31 86 45 148 45c181 0 232 -116 232 -268v-79z
M620 335v8c0 79 -9 114 -59 114c-49 0 -59 -33 -59 -104v-18h118zM323 245v83c0 95 -16 119 -58 119s-58 -24 -58 -119v-83c0 -94 16 -119 58 -119s58 24 58 119z" />
    <glyph glyph-name="racute" unicode="&#x155;" horiz-adv-x="400" 
d="M378 437c-45 0 -96 -5 -137 -15v-292l36 -4v-126h-251v126l36 4v314l-36 5v125h200v-41c50 48 111 52 152 52v-148zM409 773l-131 -140h-159l100 140h190z" />
    <glyph glyph-name="rcaron" unicode="&#x159;" horiz-adv-x="400" 
d="M378 437c-45 0 -96 -5 -137 -15v-292l36 -4v-126h-251v126l36 4v314l-36 5v125h200v-41c50 48 111 52 152 52v-148zM411 773l-103 -140h-209l-103 140h146l61 -74l62 74h146z" />
    <glyph glyph-name="rcommaaccent" unicode="&#x157;" horiz-adv-x="400" 
d="M378 437c-45 0 -96 -5 -137 -15v-292l36 -4v-126h-251v126l36 4v314l-36 5v125h200v-41c50 48 111 52 152 52v-148zM290 -58l-87 -141h-150l57 141h180z" />
    <glyph glyph-name="sacute" unicode="&#x15b;" horiz-adv-x="464" 
d="M436 160c0 -116 -82 -172 -225 -172c-64 0 -145 13 -178 23v143h115l8 -40c13 0 25 -1 37 -1c48 0 64 14 64 44c0 27 -19 38 -70 69l-36 22c-78 48 -123 97 -123 179c0 121 81 158 207 158c70 0 149 -11 188 -25v-135h-115l-9 35c-13 1 -28 1 -39 1c-37 0 -53 -8 -53 -34
c0 -25 9 -34 51 -60l45 -28c90 -56 133 -94 133 -179zM425 773l-131 -140h-159l100 140h190z" />
    <glyph glyph-name="scircumflex" unicode="&#x15d;" horiz-adv-x="464" 
d="M436 160c0 -116 -82 -172 -225 -172c-64 0 -145 13 -178 23v143h115l8 -40c13 0 25 -1 37 -1c48 0 64 14 64 44c0 27 -19 38 -70 69l-36 22c-78 48 -123 97 -123 179c0 121 81 158 207 158c70 0 149 -11 188 -25v-135h-115l-9 35c-13 1 -28 1 -39 1c-37 0 -53 -8 -53 -34
c0 -25 9 -34 51 -60l45 -28c90 -56 133 -94 133 -179zM443 633h-146l-62 75l-61 -75h-146l103 140h209z" />
    <glyph glyph-name="scaron" unicode="&#x161;" horiz-adv-x="464" 
d="M436 160c0 -116 -82 -172 -225 -172c-64 0 -145 13 -178 23v143h115l8 -40c13 0 25 -1 37 -1c48 0 64 14 64 44c0 27 -19 38 -70 69l-36 22c-78 48 -123 97 -123 179c0 121 81 158 207 158c70 0 149 -11 188 -25v-135h-115l-9 35c-13 1 -28 1 -39 1c-37 0 -53 -8 -53 -34
c0 -25 9 -34 51 -60l45 -28c90 -56 133 -94 133 -179zM438 773l-103 -140h-209l-103 140h146l61 -74l62 74h146z" />
    <glyph glyph-name="scedilla" unicode="&#x15f;" horiz-adv-x="464" 
d="M436 160c0 -116 -82 -172 -225 -172c-64 0 -145 13 -178 23v143h115l8 -40c13 0 25 -1 37 -1c48 0 64 14 64 44c0 27 -19 38 -70 69l-36 22c-78 48 -123 97 -123 179c0 121 81 158 207 158c70 0 149 -11 188 -25v-135h-115l-9 35c-13 1 -28 1 -39 1c-37 0 -53 -8 -53 -34
c0 -25 9 -34 51 -60l45 -28c90 -56 133 -94 133 -179zM337 -58l-108 -141h-156l81 141h183z" />
    <glyph glyph-name="scommaaccent" unicode="&#x219;" horiz-adv-x="464" 
d="M436 160c0 -116 -82 -172 -225 -172c-64 0 -145 13 -178 23v143h115l8 -40c13 0 25 -1 37 -1c48 0 64 14 64 44c0 27 -19 38 -70 69l-36 22c-78 48 -123 97 -123 179c0 121 81 158 207 158c70 0 149 -11 188 -25v-135h-115l-9 35c-13 1 -28 1 -39 1c-37 0 -53 -8 -53 -34
c0 -25 9 -34 51 -60l45 -28c90 -56 133 -94 133 -179zM332 -58l-87 -141h-150l57 141h180z" />
    <glyph glyph-name="germandbls" unicode="&#xdf;" horiz-adv-x="595" 
d="M566 215c0 -135 -52 -225 -206 -225c-26 0 -53 3 -75 6v135h25c62 0 76 27 76 88v20c0 64 -14 98 -76 98h-25v117h25c55 0 71 27 71 93v11c0 50 -13 83 -70 83c-56 0 -72 -32 -72 -104v-537h-215v130l36 5v402c0 137 50 247 251 247c207 0 245 -115 245 -221v-11
c0 -61 -21 -118 -75 -153c67 -36 85 -103 85 -164v-20z" />
    <glyph glyph-name="tcaron" unicode="&#x165;" horiz-adv-x="394" 
d="M449 773l-59 -169h-96l35 169h120zM369 4c-13 -5 -64 -16 -117 -16c-118 0 -153 62 -153 167v292l-74 9v118h74v129h179v-129h91v-127h-91v-290c0 -36 1 -46 34 -46c18 0 48 3 57 3v-110z" />
    <glyph glyph-name="tcommaaccent" unicode="&#x163;" horiz-adv-x="394" 
d="M369 4c-13 -5 -64 -16 -117 -16c-118 0 -153 62 -153 167v292l-74 9v118h74v129h179v-129h91v-127h-91v-290c0 -36 1 -46 34 -46c18 0 48 3 57 3v-110zM310 -58l-87 -141h-150l57 141h180z" />
    <glyph glyph-name="uni021B" unicode="&#x21b;" horiz-adv-x="397" 
d="M369 4c-13 -5 -64 -16 -117 -16c-118 0 -153 62 -153 167v292l-74 9v118h74v129h179v-129h91v-127h-91v-290c0 -36 1 -46 34 -46c18 0 48 3 57 3v-110zM310 -58l-87 -141h-150l57 141h180z" />
    <glyph glyph-name="tbar" unicode="&#x167;" horiz-adv-x="394" 
d="M370 282h-91v-125c0 -37 1 -47 34 -47c18 0 47 2 56 3v-109c-14 -5 -63 -16 -116 -16c-118 0 -153 62 -153 167v127l-74 10v105h74v62l-74 10v105h74v129h178v-129h92v-115h-91v-62h91v-115z" />
    <glyph glyph-name="uacute" unicode="&#xfa;" 
d="M566 0h-205v41c-38 -28 -90 -53 -156 -53c-133 0 -143 101 -143 204v253l-36 4v125h215v-382c0 -51 8 -66 41 -66c20 0 44 9 68 22v297l-35 4v125h215v-444l36 -5v-125zM481 773l-131 -140h-159l100 140h190z" />
    <glyph glyph-name="ugrave" unicode="&#xf9;" 
d="M566 0h-205v41c-38 -28 -90 -53 -156 -53c-133 0 -143 101 -143 204v253l-36 4v125h215v-382c0 -51 8 -66 41 -66c20 0 44 9 68 22v297l-35 4v125h215v-444l36 -5v-125zM395 633h-159l-131 140h190z" />
    <glyph glyph-name="ucircumflex" unicode="&#xfb;" 
d="M566 0h-205v41c-38 -28 -90 -53 -156 -53c-133 0 -143 101 -143 204v253l-36 4v125h215v-382c0 -51 8 -66 41 -66c20 0 44 9 68 22v297l-35 4v125h215v-444l36 -5v-125zM499 633h-146l-62 75l-61 -75h-146l103 140h209z" />
    <glyph glyph-name="udieresis" unicode="&#xfc;" 
d="M566 0h-205v41c-38 -28 -90 -53 -156 -53c-133 0 -143 101 -143 204v253l-36 4v125h215v-382c0 -51 8 -66 41 -66c20 0 44 9 68 22v297l-35 4v125h215v-444l36 -5v-125zM471 641h-142v127h142v-127zM253 641v127h-142v-127h142z" />
    <glyph glyph-name="utilde" unicode="&#x169;" 
d="M566 0h-205v41c-38 -28 -90 -53 -156 -53c-133 0 -143 101 -143 204v253l-36 4v125h215v-382c0 -51 8 -66 41 -66c20 0 44 9 68 22v297l-35 4v125h215v-444l36 -5v-125zM497 761c0 -93 -51 -131 -115 -131c-30 0 -63 5 -95 27l-25 18c-14 11 -25 19 -39 19
c-19 0 -24 -10 -24 -35v-27h-109v27c0 93 53 132 118 132c31 0 63 -6 95 -29l25 -18c15 -11 25 -17 40 -17c17 0 22 10 22 34v27h107v-27z" />
    <glyph glyph-name="umacron" unicode="&#x16b;" 
d="M566 0h-205v41c-38 -28 -90 -53 -156 -53c-133 0 -143 101 -143 204v253l-36 4v125h215v-382c0 -51 8 -66 41 -66c20 0 44 9 68 22v297l-35 4v125h215v-444l36 -5v-125zM465 651h-350v106h350v-106z" />
    <glyph glyph-name="uring" unicode="&#x16f;" 
d="M566 0h-205v41c-38 -28 -90 -53 -156 -53c-133 0 -143 101 -143 204v253l-36 4v125h215v-382c0 -51 8 -66 41 -66c20 0 44 9 68 22v297l-35 4v125h215v-444l36 -5v-125zM426 742c0 -77 -58 -123 -136 -123s-136 46 -136 123c0 78 58 124 136 124s136 -46 136 -124z
M338 742c0 33 -19 49 -48 49c-28 0 -48 -16 -48 -49c0 -32 19 -48 48 -48s48 16 48 48z" />
    <glyph glyph-name="ubreve" unicode="&#x16d;" 
d="M566 0h-205v41c-38 -28 -90 -53 -156 -53c-133 0 -143 101 -143 204v253l-36 4v125h215v-382c0 -51 8 -66 41 -66c20 0 44 9 68 22v297l-35 4v125h215v-444l36 -5v-125zM479 781c-16 -109 -98 -151 -190 -151c-90 0 -173 42 -190 151h112c7 -53 37 -67 78 -67
c43 0 72 14 80 67h110z" />
    <glyph glyph-name="uhungarumlaut" unicode="&#x171;" 
d="M566 0h-205v41c-38 -28 -90 -53 -156 -53c-133 0 -143 101 -143 204v253l-36 4v125h215v-382c0 -51 8 -66 41 -66c20 0 44 9 68 22v297l-35 4v125h215v-444l36 -5v-125zM617 773l-131 -141h-149l100 141h180zM369 773h-180l-100 -141h149z" />
    <glyph glyph-name="uogonek" unicode="&#x173;" 
d="M566 -191c-33 -11 -81 -19 -131 -19c-87 0 -140 31 -140 94c0 43 23 81 97 116h-31v41c-38 -28 -90 -53 -156 -53c-133 0 -143 101 -143 204v253l-36 4v125h215v-382c0 -51 8 -66 41 -66c20 0 44 9 68 22v297l-35 4v125h215v-444l36 -5v-125c-100 -38 -116 -62 -116 -81
c0 -21 12 -30 47 -30c25 0 52 3 69 4v-84z" />
    <glyph glyph-name="wacute" unicode="&#x1e83;" horiz-adv-x="821" 
d="M278 448l-39 -4l14 -133c5 -45 9 -89 11 -124h3c7 35 15 82 25 123l38 153h160l38 -153c11 -42 19 -87 26 -123h3c2 35 5 79 10 125l14 132l-38 4v126h254v-126l-42 -6l-68 -442h-208l-50 210c-9 38 -14 72 -18 105h-2c-5 -33 -11 -67 -20 -105l-51 -210h-205l-68 442
l-41 6v126h254v-126zM611 773l-131 -140h-159l100 140h190z" />
    <glyph glyph-name="wgrave" unicode="&#x1e81;" horiz-adv-x="821" 
d="M278 448l-39 -4l14 -133c5 -45 9 -89 11 -124h3c7 35 15 82 25 123l38 153h160l38 -153c11 -42 19 -87 26 -123h3c2 35 5 79 10 125l14 132l-38 4v126h254v-126l-42 -6l-68 -442h-208l-50 210c-9 38 -14 72 -18 105h-2c-5 -33 -11 -67 -20 -105l-51 -210h-205l-68 442
l-41 6v126h254v-126zM499 633h-159l-131 140h190z" />
    <glyph glyph-name="wcircumflex" unicode="&#x175;" horiz-adv-x="821" 
d="M278 448l-39 -4l14 -133c5 -45 9 -89 11 -124h3c7 35 15 82 25 123l38 153h160l38 -153c11 -42 19 -87 26 -123h3c2 35 5 79 10 125l14 132l-38 4v126h254v-126l-42 -6l-68 -442h-208l-50 210c-9 38 -14 72 -18 105h-2c-5 -33 -11 -67 -20 -105l-51 -210h-205l-68 442
l-41 6v126h254v-126zM618 633h-146l-62 75l-61 -75h-146l103 140h209z" />
    <glyph glyph-name="wdieresis" unicode="&#x1e85;" horiz-adv-x="821" 
d="M278 448l-39 -4l14 -133c5 -45 9 -89 11 -124h3c7 35 15 82 25 123l38 153h160l38 -153c11 -42 19 -87 26 -123h3c2 35 5 79 10 125l14 132l-38 4v126h254v-126l-42 -6l-68 -442h-208l-50 210c-9 38 -14 72 -18 105h-2c-5 -33 -11 -67 -20 -105l-51 -210h-205l-68 442
l-41 6v126h254v-126zM590 644h-142v127h142v-127zM372 644v127h-142v-127h142z" />
    <glyph glyph-name="yacute" unicode="&#xfd;" horiz-adv-x="580" 
d="M556 449l-42 -6l-98 -423c-37 -158 -85 -232 -233 -232c-52 0 -106 6 -146 16v116c38 -2 61 -2 88 -2c34 0 50 14 59 60l6 27l-123 438l-43 6v125h197l49 -283c8 -50 16 -116 21 -157h2c5 41 12 105 20 156l46 284h197v-125zM491 773l-131 -140h-159l100 140h190z" />
    <glyph glyph-name="ygrave" unicode="&#x1ef3;" horiz-adv-x="580" 
d="M556 449l-42 -6l-98 -423c-37 -158 -85 -232 -233 -232c-52 0 -106 6 -146 16v116c38 -2 61 -2 88 -2c34 0 50 14 59 60l6 27l-123 438l-43 6v125h197l49 -283c8 -50 16 -116 21 -157h2c5 41 12 105 20 156l46 284h197v-125zM381 633h-159l-131 140h190z" />
    <glyph glyph-name="ycircumflex" unicode="&#x177;" horiz-adv-x="580" 
d="M556 449l-42 -6l-98 -423c-37 -158 -85 -232 -233 -232c-52 0 -106 6 -146 16v116c38 -2 61 -2 88 -2c34 0 50 14 59 60l6 27l-123 438l-43 6v125h197l49 -283c8 -50 16 -116 21 -157h2c5 41 12 105 20 156l46 284h197v-125zM500 633h-146l-62 75l-61 -75h-146l103 140
h209z" />
    <glyph glyph-name="ydieresis" unicode="&#xff;" horiz-adv-x="580" 
d="M556 449l-42 -6l-98 -423c-37 -158 -85 -232 -233 -232c-52 0 -106 6 -146 16v116c38 -2 61 -2 88 -2c34 0 50 14 59 60l6 27l-123 438l-43 6v125h197l49 -283c8 -50 16 -116 21 -157h2c5 41 12 105 20 156l46 284h197v-125zM472 641h-142v127h142v-127zM254 641v127
h-142v-127h142z" />
    <glyph glyph-name="zacute" unicode="&#x17a;" horiz-adv-x="452" 
d="M424 0h-396v136l201 307h-89l-8 -34h-99v165h391v-136l-200 -308h91l11 40h98v-170zM436 773l-131 -140h-159l100 140h190z" />
    <glyph glyph-name="zcaron" unicode="&#x17e;" horiz-adv-x="452" 
d="M424 0h-396v136l201 307h-89l-8 -34h-99v165h391v-136l-200 -308h91l11 40h98v-170zM438 773l-103 -140h-209l-103 140h146l61 -74l62 74h146z" />
    <glyph glyph-name="zdotaccent" unicode="&#x17c;" horiz-adv-x="452" 
d="M424 0h-396v136l201 307h-89l-8 -34h-99v165h391v-136l-200 -308h91l11 40h98v-170zM330 652h-186v125h186v-125z" />
    <glyph glyph-name="eth" unicode="&#xf0;" horiz-adv-x="536" 
d="M504 255c0 -198 -86 -267 -236 -267s-236 66 -236 255v69c0 193 90 255 231 255c16 0 31 -3 46 -8c-19 44 -50 74 -91 94l-77 -71l-49 43l55 52c-19 5 -40 7 -61 7h-31v100c17 1 36 2 54 2c49 0 93 -7 130 -18l54 49l48 -43l-34 -33c138 -69 197 -222 197 -408v-78z
M326 243v84c0 79 -17 102 -58 102c-42 0 -58 -24 -58 -115v-71c0 -93 16 -117 58 -117s58 24 58 117z" />
    <glyph glyph-name="thorn" unicode="&#xfe;" horiz-adv-x="562" 
d="M530 243c0 -180 -73 -255 -228 -255c-21 0 -44 2 -61 4v-61l41 -4v-126h-256v126l36 5v714l-36 5v125h200v-234c44 31 94 43 137 43c114 0 167 -66 167 -247v-95zM350 243v95c0 86 -10 108 -54 108c-17 0 -37 -4 -59 -16v-299c16 -3 32 -5 46 -5c49 0 67 14 67 117z" />
    <glyph glyph-name="longs" unicode="&#x17f;" horiz-adv-x="341" 
d="M275 0h-251v125l36 6v489c0 122 48 170 154 170c47 0 89 -7 120 -16v-103c-26 1 -41 2 -54 2c-37 0 -40 -10 -40 -53v-489l35 -6v-125z" />
    <glyph glyph-name="longs_h" unicode="&#xfb13;" horiz-adv-x="879" 
d="M275 0h-251v125l36 6v489c0 122 48 170 154 170c47 0 90 -7 121 -15h195v-224c37 22 87 34 129 34c143 0 159 -92 159 -203v-251l36 -6v-125h-216v380c0 52 -8 67 -41 67c-24 0 -49 -9 -67 -20v-296l35 -6v-125h-251v125l36 6v538c-28 2 -48 4 -70 4
c-37 0 -40 -10 -40 -53v-489l35 -6v-125z" />
    <glyph glyph-name="longs_i" unicode="&#xfb15;" horiz-adv-x="612" 
d="M585 0h-251v126l36 4v313l-36 5v126h216v-444l35 -4v-126zM553 650h-187v126h187v-126zM335 671c-24 1 -41 2 -54 2c-37 0 -41 -10 -41 -53v-489l35 -6v-125h-251v125l37 6v489c0 122 47 170 154 170c47 0 89 -7 120 -16v-103z" />
    <glyph glyph-name="longs_l" unicode="&#xfb14;" horiz-adv-x="591" 
d="M565 0h-250v125l35 6v538c-28 2 -57 4 -66 4c-40 0 -44 -10 -44 -53v-489l35 -6v-125h-251v125l37 6v489c0 122 47 170 154 170c51 0 97 -6 133 -14h181v-645l36 -6v-125z" />
    <glyph glyph-name="longs_longs" unicode="&#xfb16;" horiz-adv-x="636" 
d="M636 671c-26 1 -41 2 -54 2c-37 0 -41 -10 -41 -53v-489l36 -6v-125h-251v125l36 6v489c0 122 48 170 154 170c47 0 89 -7 120 -16v-103zM334 774v-103c-26 1 -41 2 -54 2c-37 0 -40 -10 -40 -53v-489l35 -6v-125h-251v125l37 6v489c0 122 47 170 153 170
c47 0 89 -7 120 -16z" />
    <glyph glyph-name="longs_t" unicode="&#xfb05;" horiz-adv-x="664" 
d="M636 4c-14 -5 -64 -16 -117 -16c-118 0 -153 62 -153 167v295l-74 10v114h74v97c-23 1 -54 2 -81 2c-41 0 -45 -10 -45 -53v-489l35 -6v-125h-251v125l37 6v489c0 122 47 170 154 170c56 0 121 -8 152 -17h177v-199h92v-124h-91v-293c0 -37 1 -47 34 -47c18 0 48 2 57 3
v-109z" />
    <glyph glyph-name="acute" unicode="&#xb4;" horiz-adv-x="377" 
d="M349 773l-131 -140h-159l100 140h190z" />
    <glyph glyph-name="grave" unicode="`" horiz-adv-x="377" 
d="M316 633h-159l-131 140h190z" />
    <glyph glyph-name="circumflex" unicode="&#x2c6;" horiz-adv-x="453" 
d="M434 633h-146l-62 75l-61 -75h-146l103 140h209z" />
    <glyph glyph-name="dieresis" unicode="&#xa8;" horiz-adv-x="419" 
d="M390 641h-142v127h142v-127zM172 641v127h-142v-127h142z" />
    <glyph glyph-name="tilde" unicode="&#x2dc;" horiz-adv-x="436" 
d="M422 761c0 -93 -51 -131 -115 -131c-30 0 -63 5 -95 27l-25 18c-14 11 -25 19 -39 19c-19 0 -24 -10 -24 -35v-27h-109v27c0 93 53 132 118 132c31 0 63 -6 95 -29l25 -18c15 -11 25 -17 40 -17c17 0 22 10 22 34v27h107v-27z" />
    <glyph glyph-name="macron" unicode="&#xaf;" horiz-adv-x="404" 
d="M377 651h-350v106h350v-106z" />
    <glyph glyph-name="uni02C9" unicode="&#x2c9;" horiz-adv-x="404" 
d="M377 651h-350v106h350v-106z" />
    <glyph glyph-name="caron" unicode="&#x2c7;" horiz-adv-x="453" 
d="M434 773l-103 -140h-209l-103 140h146l61 -74l62 74h146z" />
    <glyph glyph-name="breve" unicode="&#x2d8;" horiz-adv-x="439" 
d="M409 781c-16 -109 -98 -151 -190 -151c-90 0 -173 42 -190 151h112c7 -53 37 -67 78 -67c43 0 72 14 80 67h110z" />
    <glyph glyph-name="ring" unicode="&#x2da;" horiz-adv-x="352" 
d="M312 742c0 -77 -58 -123 -136 -123s-136 46 -136 123c0 78 58 124 136 124s136 -46 136 -124zM224 742c0 33 -19 49 -48 49c-28 0 -48 -16 -48 -49c0 -32 19 -48 48 -48s48 16 48 48z" />
    <glyph glyph-name="dotaccent" unicode="&#x2d9;" horiz-adv-x="316" 
d="M251 651h-186v125h186v-125z" />
    <glyph glyph-name="hungarumlaut" unicode="&#x2dd;" horiz-adv-x="549" 
d="M551 773l-131 -141h-149l100 141h180zM303 773h-180l-100 -141h149z" />
    <glyph glyph-name="cedilla" unicode="&#xb8;" horiz-adv-x="354" 
d="M297 -58l-108 -141h-156l81 141h183z" />
    <glyph glyph-name="ogonek" unicode="&#x2db;" horiz-adv-x="364" 
d="M320 -191c-33 -11 -81 -19 -131 -19c-87 0 -140 31 -140 94c0 49 31 92 135 132l136 -16c-100 -38 -116 -62 -116 -81c0 -21 12 -30 47 -30c25 0 52 3 69 4v-84z" />
    <glyph glyph-name="one.superior" unicode="&#xb9;" horiz-adv-x="313" 
d="M279 301h-243v84l57 4v237l-57 -22v103l92 41h93v-359l58 -4v-84z" />
    <glyph glyph-name="two.superior" unicode="&#xb2;" horiz-adv-x="364" 
d="M322 302h-290v56c0 112 27 148 109 204c56 38 63 48 63 72c0 26 -12 34 -57 34c-8 0 -20 0 -33 -1l-5 -32h-72v105c36 10 95 17 134 17c111 0 160 -35 160 -117c0 -55 -25 -89 -104 -140c-66 -43 -72 -54 -72 -101v-5h89l5 26h73v-118z" />
    <glyph glyph-name="three.superior" unicode="&#xb3;" horiz-adv-x="361" 
d="M327 424c0 -94 -49 -133 -164 -133c-50 0 -105 10 -131 19v105h73l5 -33c12 0 26 -1 37 -1c38 0 55 5 55 50v9c0 33 -10 47 -52 47h-96v82h97c41 0 51 13 51 45v7c0 41 -14 47 -55 47c-12 0 -25 -1 -37 -2l-5 -31h-72v104c25 9 80 18 130 18c107 0 164 -34 164 -127v-7
c0 -42 -14 -75 -47 -95c33 -18 47 -52 47 -95v-9z" />
    <glyph glyph-name="ordfeminine" unicode="&#xaa;" horiz-adv-x="374" 
d="M347 410h-131v20c-20 -13 -56 -28 -92 -28c-69 0 -93 44 -93 102v18c0 93 70 101 156 101h16v21c0 37 -6 44 -46 44c-7 0 -13 0 -21 -1l-5 -22h-77v90c28 11 76 23 133 23c94 0 139 -30 139 -134v-145l21 -3v-86zM209 490v74h-20c-31 0 -42 -4 -42 -39v-16
c0 -23 10 -28 25 -28c14 0 28 5 37 9z" />
    <glyph glyph-name="ordmasculine" unicode="&#xba;" horiz-adv-x="380" 
d="M348 568c0 -126 -61 -166 -158 -166c-98 0 -159 40 -159 166v44c0 127 61 166 159 166c97 0 158 -39 158 -166v-44zM227 568v44c0 58 -10 72 -37 72s-37 -14 -37 -72v-44c0 -57 10 -72 37 -72s37 15 37 72z" />
    <glyph glyph-name="guilsinglleft" unicode="&#x2039;" horiz-adv-x="338" 
d="M312 62h-170l-116 225l116 224h170l-113 -224z" />
    <glyph glyph-name="guilsinglright" unicode="&#x203a;" horiz-adv-x="338" 
d="M312 287l-116 -225h-170l113 225l-113 224h170z" />
    <glyph glyph-name="guillemotleft" unicode="&#xab;" horiz-adv-x="599" 
d="M574 62h-171l-117 225l117 224h171l-115 -224zM314 62l-115 225l115 224h-170l-118 -224l118 -225h170z" />
    <glyph glyph-name="guillemotright" unicode="&#xbb;" horiz-adv-x="599" 
d="M574 287l-119 -225h-170l115 225l-115 224h170zM314 287l-118 224h-170l114 -224l-114 -225h170z" />
    <glyph glyph-name="quotedblleft" unicode="&#x201c;" horiz-adv-x="457" 
d="M446 776l-50 -257h-162l86 257h126zM222 776l-51 -257h-161l85 257h127z" />
    <glyph glyph-name="quotedblright" unicode="&#x201d;" horiz-adv-x="457" 
d="M447 776l-86 -257h-126l51 257h161zM222 776l-85 -257h-127l51 257h161z" />
    <glyph glyph-name="quotesinglbase" unicode="&#x201a;" horiz-adv-x="232" 
d="M222 162l-85 -258h-127l51 258h161z" />
    <glyph glyph-name="quotedblbase" unicode="&#x201e;" horiz-adv-x="457" 
d="M447 162l-86 -258h-126l51 258h161zM222 162h-161l-51 -258h127z" />
    <glyph glyph-name="ellipsis" unicode="&#x2026;" horiz-adv-x="800" 
d="M764 0h-179v166h179v-166zM489 0v166h-178v-166h178zM215 0h-179v166h179v-166z" />
    <glyph glyph-name="uni00AD" unicode="&#xad;" horiz-adv-x="283" 
d="M253 233h-222v123h222v-123z" />
    <glyph glyph-name="endash" unicode="&#x2013;" horiz-adv-x="366" 
d="M336 233h-305v124h305v-124z" />
    <glyph glyph-name="emdash" unicode="&#x2014;" horiz-adv-x="557" 
d="M526 233h-495v124h495v-124z" />
    <glyph glyph-name="exclamdown" unicode="&#xa1;" horiz-adv-x="285" 
d="M247 -200h-210l17 546h176zM239 576v-168h-195v168h195z" />
    <glyph glyph-name="questiondown" unicode="&#xbf;" horiz-adv-x="468" 
d="M438 -177c-55 -23 -135 -32 -206 -32c-130 0 -201 46 -201 160v8c0 56 18 100 71 170c71 94 92 139 92 190v25h152v-25c0 -78 -3 -118 -47 -187c-43 -67 -58 -104 -58 -138v-6c0 -36 16 -51 60 -51c10 0 18 0 27 1l8 43h102v-158zM359 411h-178v166h178v-166z" />
    <glyph glyph-name="periodcentered" unicode="&#xb7;" horiz-adv-x="251" 
d="M206 281h-170v166h170v-166z" />
    <glyph glyph-name="uni2219" unicode="&#x2219;" horiz-adv-x="251" 
d="M208 271h-170v165h170v-165z" />
    <glyph glyph-name="bullet" unicode="&#x2022;" horiz-adv-x="428" 
d="M391 367c0 -94 -79 -169 -177 -169s-177 75 -177 169s79 170 177 170s177 -76 177 -170z" />
    <glyph glyph-name="dagger" unicode="&#x2020;" horiz-adv-x="436" 
d="M401 451h-94v-581h-180v581h-92v140h92v184h180v-184h94v-140z" />
    <glyph glyph-name="daggerdbl" unicode="&#x2021;" horiz-adv-x="436" 
d="M401 207h-94v-337h-180v337h-92v139h92v110h-92v140h92v177h180v-177h94v-140h-94v-110h94v-139z" />
    <glyph glyph-name="section" unicode="&#xa7;" horiz-adv-x="546" 
d="M507 -2c0 -145 -89 -216 -254 -216c-78 0 -151 12 -207 24v168h117l8 -50c17 0 38 -1 64 -1c67 0 91 29 91 75c0 50 -27 80 -133 125l-26 11c-108 45 -131 108 -131 200c0 43 10 86 33 119c-23 33 -32 75 -32 115c0 122 69 190 257 190c87 0 163 -17 194 -26v-162h-117
l-8 46c-20 1 -45 1 -69 1c-54 0 -86 -17 -86 -57c0 -43 17 -70 106 -110l33 -15c134 -61 164 -116 164 -216c0 -43 -11 -81 -35 -112c22 -32 31 -72 31 -109zM357 175v31c0 63 -1 81 -72 113l-33 15c-44 20 -65 37 -73 53v-34c0 -59 5 -81 44 -99l32 -15
c46 -22 92 -45 102 -64z" />
    <glyph glyph-name="paragraph" unicode="&#xb6;" horiz-adv-x="630" 
d="M594 -197h-109v830h-58v-830h-148v131l39 6v300h-29c-145 0 -257 60 -257 248v11c0 193 113 244 263 244h299v-940z" />
    <glyph glyph-name="copyright" unicode="&#xa9;" horiz-adv-x="698" 
d="M664 375c0 -243 -122 -380 -315 -380c-194 0 -316 137 -316 380s122 380 316 380c193 0 315 -137 315 -380zM577 375c0 188 -83 300 -228 300c-146 0 -228 -112 -228 -300c0 -189 82 -301 228 -301c145 0 228 112 228 301zM462 171c-19 -7 -65 -16 -107 -16
c-119 0 -163 72 -163 188v64c0 116 44 186 163 186c42 0 90 -9 107 -15v-106h-70l-7 25c-6 1 -11 1 -17 1c-41 0 -55 -23 -55 -91v-64c0 -68 14 -92 55 -92c5 0 11 0 17 1l7 25h70v-106z" />
    <glyph glyph-name="registered" unicode="&#xae;" horiz-adv-x="545" 
d="M511 476c0 -181 -91 -294 -240 -294c-148 0 -238 113 -238 294c0 182 90 294 238 294c149 0 240 -112 240 -294zM436 476c0 141 -58 227 -165 227c-106 0 -164 -86 -164 -227s58 -227 164 -227c107 0 165 86 165 227zM392 331h-80l-44 105h-9h-13v-105h-87v50l15 2v194
l-15 2v52c35 3 65 4 102 4c63 0 116 -16 116 -98v-4c0 -42 -16 -66 -41 -80l31 -67l25 -4v-51zM305 534v3c0 30 -12 38 -42 38h-17v-84h19c31 0 40 10 40 43z" />
    <glyph glyph-name="trademark" unicode="&#x2122;" horiz-adv-x="878" 
d="M850 328h-148v180c0 21 0 45 2 68h-1c-5 -16 -14 -38 -23 -54l-32 -57h-58l-32 57c-9 15 -17 38 -22 54h-2c2 -23 3 -46 3 -68v-180h-149v78l25 4v266l-25 4v78h146l63 -119c8 -15 15 -33 22 -50h1c7 17 14 35 22 50l63 119h145v-78l-24 -4v-266l24 -4v-78zM363 640h-67
l-6 26h-31v-256l25 -4v-77h-177v77l24 4v256h-32l-6 -26h-67v118h337v-118z" />
    <glyph glyph-name="zero.oldstyle" unicode="&#xf730;" horiz-adv-x="584" 
d="M551 272c0 -174 -64 -286 -259 -286s-258 112 -258 286v45c0 174 63 287 258 287s259 -113 259 -287v-45zM358 272v45c0 104 -16 140 -66 140s-66 -36 -66 -140v-45c0 -104 16 -139 66 -139s66 35 66 139z" />
    <glyph glyph-name="one.oldstyle" unicode="&#xf731;" horiz-adv-x="486" 
d="M456 0h-426v133l119 5v274l-119 -41v157l169 67h140v-457l117 -5v-133z" />
    <glyph glyph-name="two.oldstyle" unicode="&#xf732;" horiz-adv-x="533" 
d="M492 0h-459v143l128 89c115 80 145 120 145 174c0 43 -22 60 -94 60c-18 0 -30 0 -52 -2l-9 -53h-113v164c45 14 129 29 211 29c183 0 252 -62 252 -178c0 -105 -53 -161 -169 -241l-61 -42h221v-143z" />
    <glyph glyph-name="three.oldstyle" unicode="&#xf733;" horiz-adv-x="529" 
d="M489 48c0 -156 -78 -217 -258 -217c-78 0 -163 16 -201 30v166h112l9 -55c19 -1 39 -2 57 -2c61 0 90 9 90 88v19c0 57 -16 84 -83 84h-150v126h150c66 0 83 25 83 82v12c0 75 -24 84 -91 84c-18 0 -38 -1 -56 -2l-8 -51h-113v163c38 13 123 29 201 29
c168 0 258 -55 258 -209v-13c0 -73 -24 -125 -76 -157c53 -31 76 -86 76 -158v-19z" />
    <glyph glyph-name="four.oldstyle" unicode="&#xf734;" horiz-adv-x="573" 
d="M543 14h-72v-71l37 -6v-88h-265v88l37 6v71h-257v131l291 447h157v-446h72v-132zM290 146v218l-126 -218h126z" />
    <glyph glyph-name="five.oldstyle" unicode="&#xf735;" horiz-adv-x="525" 
d="M481 69c0 -179 -107 -234 -257 -234c-92 0 -170 18 -201 27v168h112l9 -56c15 -1 30 -1 43 -1c75 0 100 17 100 95v22c0 70 -17 90 -101 90h-160l28 413h410v-180h-111l-8 40h-135l-8 -141h32c202 0 247 -83 247 -221v-22z" />
    <glyph glyph-name="six.oldstyle" unicode="&#xf736;" horiz-adv-x="569" 
d="M533 226c0 -181 -107 -240 -252 -240c-174 0 -249 80 -249 271v219c0 189 51 282 259 282c84 0 175 -17 212 -27v-165h-111l-10 52c-20 1 -43 2 -64 2c-92 0 -97 -34 -97 -126v-30c19 5 55 9 84 9c142 0 228 -43 228 -208v-39zM343 226v36c0 74 -12 95 -63 95
c-15 0 -40 -2 -59 -7v-112c0 -88 14 -122 62 -122c45 0 60 35 60 110z" />
    <glyph glyph-name="seven.oldstyle" unicode="&#xf737;" horiz-adv-x="535" 
d="M498 440l-261 -591h-198l273 603h-167l-8 -42h-111v182h472v-152z" />
    <glyph glyph-name="eight.oldstyle" unicode="&#xf738;" horiz-adv-x="586" 
d="M552 210c0 -207 -132 -224 -256 -224h-5c-125 0 -256 17 -256 224v8c0 82 23 129 72 167c-44 33 -70 78 -70 155v10c0 175 112 208 254 208h5c142 0 254 -33 254 -208v-10c0 -77 -26 -122 -70 -155c49 -38 72 -85 72 -167v-8zM363 211v9c0 79 -12 105 -53 105h-33
c-42 0 -53 -26 -53 -105v-9c0 -78 21 -98 67 -98h5c46 0 67 20 67 98zM362 536v9c0 63 -20 85 -66 85h-5c-47 0 -66 -22 -66 -85v-9c0 -59 10 -92 52 -92h33c42 0 52 33 52 92z" />
    <glyph glyph-name="nine.oldstyle" unicode="&#xf739;" horiz-adv-x="569" 
d="M533 114c0 -187 -51 -283 -259 -283c-84 0 -175 17 -212 27v165h111l9 -52c22 -1 46 -2 68 -2c89 0 94 35 94 126v30c-20 -5 -55 -9 -84 -9c-142 0 -228 44 -228 208v39c0 181 107 241 252 241c174 0 249 -79 249 -270v-220zM344 240v111c0 88 -14 122 -62 122
c-46 0 -61 -35 -61 -110v-36c0 -74 13 -95 63 -95c16 0 41 3 60 8z" />
    <glyph glyph-name="zero.fitted" unicode="&#xe097;" 
d="M555 319c0 -194 -51 -333 -259 -333s-258 139 -258 333v105c0 194 50 334 258 334s259 -140 259 -334v-105zM362 319v105c0 151 -16 187 -66 187s-66 -36 -66 -187v-105c0 -151 16 -187 66 -187s66 36 66 187z" />
    <glyph glyph-name="one.fitted" unicode="&#xf6dc;" 
d="M532 0h-472v127l141 7v443l-141 -36v136l191 67h140v-610l141 -7v-127z" />
    <glyph glyph-name="two.fitted" unicode="&#xe098;" 
d="M514 0h-450v93c0 183 40 240 170 336c90 67 101 85 101 128c0 49 -22 63 -94 63c-12 0 -31 -1 -50 -2l-9 -53h-112v165c54 16 144 28 208 28c173 0 251 -58 251 -189c0 -89 -38 -145 -162 -236c-106 -77 -117 -97 -117 -180v-11h143l8 45h113v-187z" />
    <glyph glyph-name="three.fitted" unicode="&#xe099;" 
d="M526 202c0 -156 -79 -216 -258 -216c-78 0 -163 15 -202 29v166h113l8 -55c19 -1 40 -2 57 -2c62 0 90 9 90 88v19c0 57 -15 84 -83 84h-150v126h151c66 0 82 25 82 82v12c0 75 -24 84 -90 84c-18 0 -38 -1 -56 -2l-9 -51h-112v163c37 13 123 29 201 29
c168 0 258 -55 258 -209v-13c0 -73 -24 -125 -76 -157c53 -31 76 -86 76 -158v-19z" />
    <glyph glyph-name="four.fitted" unicode="&#xe09a;" 
d="M556 165h-72v-71l37 -5v-89h-265v89l36 5v71h-256v132l290 446h158v-445h72v-133zM303 298v217l-127 -217h127z" />
    <glyph glyph-name="five.fitted" unicode="&#xe09b;" 
d="M526 219c0 -179 -107 -233 -257 -233c-92 0 -170 17 -201 26v168h112l9 -55c15 -1 30 -2 43 -2c75 0 100 17 100 95v23c0 69 -17 89 -101 89h-160l28 413h410v-179h-111l-8 39h-135l-8 -141h32c202 0 247 -82 247 -220v-23z" />
    <glyph glyph-name="six.fitted" unicode="&#xe09c;" 
d="M547 226c0 -181 -108 -240 -253 -240c-174 0 -249 79 -249 270v220c0 189 51 282 260 282c83 0 174 -17 211 -27v-165h-111l-9 52c-21 1 -44 2 -64 2c-92 0 -98 -34 -98 -126v-30c20 5 55 9 84 9c142 0 229 -43 229 -208v-39zM357 226v36c0 74 -13 95 -63 95
c-16 0 -41 -2 -60 -7v-112c0 -88 14 -122 62 -122c45 0 61 35 61 110z" />
    <glyph glyph-name="seven.fitted" unicode="&#xe09d;" 
d="M536 591l-261 -591h-198l273 603h-167l-8 -42h-111v182h472v-152z" />
    <glyph glyph-name="eight.fitted" unicode="&#xe09e;" 
d="M554 210c0 -207 -131 -224 -256 -224h-5c-124 0 -255 17 -255 224v8c0 82 23 129 72 167c-44 33 -71 78 -71 155v10c0 175 112 208 254 208h5c142 0 254 -33 254 -208v-10c0 -77 -26 -122 -70 -155c49 -38 72 -85 72 -167v-8zM365 211v9c0 79 -11 105 -53 105h-32
c-42 0 -54 -26 -54 -105v-9c0 -78 21 -98 67 -98h5c47 0 67 20 67 98zM364 536v9c0 63 -19 85 -66 85h-5c-46 0 -66 -22 -66 -85v-9c0 -59 10 -92 53 -92h32c42 0 52 33 52 92z" />
    <glyph glyph-name="nine.fitted" unicode="&#xe09f;" 
d="M546 268c0 -186 -51 -282 -259 -282c-84 0 -175 16 -212 26v166h111l9 -53c22 -1 46 -1 68 -1c89 0 94 34 94 125v30c-19 -5 -55 -9 -84 -9c-142 0 -228 45 -228 208v39c0 181 108 241 252 241c174 0 249 -79 249 -271v-219zM357 394v111c0 89 -14 122 -62 122
c-45 0 -60 -35 -60 -110v-36c0 -74 12 -94 63 -94c15 0 40 2 59 7z" />
    <glyph glyph-name="zero.taboldstyle" unicode="&#xe100;" horiz-adv-x="588" 
d="M543 272c0 -174 -64 -286 -259 -286s-258 112 -258 286v45c0 174 63 287 258 287s259 -113 259 -287v-45zM350 272v45c0 104 -16 140 -66 140s-66 -36 -66 -140v-45c0 -104 16 -139 66 -139s66 35 66 139z" />
    <glyph glyph-name="one.taboldstyle" unicode="&#xe101;" horiz-adv-x="588" 
d="M524 0h-460v140l136 3v274l-136 -42v153l186 67h140v-452l134 -3v-140z" />
    <glyph glyph-name="two.taboldstyle" unicode="&#xe102;" horiz-adv-x="588" 
d="M519 0h-459v143l128 89c115 80 145 120 145 174c0 43 -22 60 -94 60c-18 0 -32 -1 -53 -2l-8 -53h-113v164c45 14 129 29 211 29c183 0 252 -62 252 -178c0 -105 -53 -161 -169 -241l-61 -42h221v-143z" />
    <glyph glyph-name="three.taboldstyle" unicode="&#xe103;" horiz-adv-x="588" 
d="M518 48c0 -156 -79 -217 -258 -217c-79 0 -164 16 -202 30v166h112l9 -55c19 -1 39 -2 57 -2c61 0 90 9 90 88v19c0 57 -16 84 -83 84h-150v126h151c66 0 82 25 82 82v12c0 75 -24 84 -90 84c-19 0 -39 -1 -57 -2l-8 -51h-113v163c38 13 123 29 202 29
c168 0 258 -55 258 -209v-13c0 -73 -25 -125 -76 -157c52 -31 76 -86 76 -158v-19z" />
    <glyph glyph-name="four.taboldstyle" unicode="&#xe104;" horiz-adv-x="588" 
d="M550 14h-71v-71l36 -6v-88h-265v88l37 6v71h-256v131l290 447h158v-446h71v-132zM298 146v218l-127 -218h127z" />
    <glyph glyph-name="five.taboldstyle" unicode="&#xe105;" horiz-adv-x="588" 
d="M514 69c0 -179 -107 -234 -257 -234c-92 0 -169 18 -201 27v168h112l9 -56c16 -1 30 -1 43 -1c75 0 100 17 100 95v22c0 70 -17 90 -101 90h-159l28 413h409v-180h-111l-7 40h-136l-8 -141h32c202 0 247 -83 247 -221v-22z" />
    <glyph glyph-name="six.taboldstyle" unicode="&#xe106;" horiz-adv-x="588" 
d="M542 226c0 -181 -107 -240 -252 -240c-174 0 -249 80 -249 271v220c0 188 51 281 259 281c84 0 175 -17 212 -27v-165h-111l-9 52c-21 1 -44 2 -64 2c-92 0 -98 -34 -98 -126v-30c20 5 55 9 84 9c142 0 228 -43 228 -208v-39zM352 226v36c0 74 -12 95 -62 95
c-16 0 -41 -2 -60 -7v-112c0 -88 14 -122 62 -122c45 0 60 35 60 110z" />
    <glyph glyph-name="seven.taboldstyle" unicode="&#xe107;" horiz-adv-x="588" 
d="M523 440l-261 -591h-198l273 603h-167l-8 -42h-111v182h472v-152z" />
    <glyph glyph-name="eight.taboldstyle" unicode="&#xe108;" horiz-adv-x="588" 
d="M553 210c0 -207 -132 -224 -256 -224h-5c-125 0 -256 17 -256 224v8c0 82 23 129 72 167c-44 33 -70 78 -70 155v10c0 175 112 208 254 208h5c142 0 254 -33 254 -208v-10c0 -77 -27 -122 -71 -155c49 -38 73 -85 73 -167v-8zM363 211v9c0 79 -11 105 -53 105h-32
c-42 0 -53 -26 -53 -105v-9c0 -78 20 -98 67 -98h5c46 0 66 20 66 98zM362 536v9c0 63 -19 85 -65 85h-5c-47 0 -66 -22 -66 -85v-9c0 -59 10 -92 52 -92h32c42 0 52 33 52 92z" />
    <glyph glyph-name="nine.taboldstyle" unicode="&#xe109;" horiz-adv-x="588" 
d="M542 113c0 -186 -51 -282 -259 -282c-84 0 -175 17 -212 27v165h111l9 -52c22 -1 46 -2 68 -2c89 0 94 35 94 126v30c-19 -5 -55 -9 -84 -9c-142 0 -228 44 -228 208v39c0 181 107 241 252 241c174 0 249 -79 249 -271v-220zM353 240v111c0 88 -14 122 -62 122
c-45 0 -60 -35 -60 -110v-36c0 -74 12 -95 62 -95c16 0 41 3 60 8z" />
    <glyph glyph-name="onequarter" unicode="&#xbc;" horiz-adv-x="844" 
d="M815 96h-45v-37l23 -3v-56h-172v56l23 3v37h-164v83l188 267h102v-265h45v-85zM651 181v121l-78 -121h78zM699 745l-383 -745h-149l383 745h149zM275 301h-243v84l57 4v237l-58 -22v103l92 41h94v-359l58 -4v-84z" />
    <glyph glyph-name="onehalf" unicode="&#xbd;" horiz-adv-x="911" 
d="M870 0h-290v56c0 112 27 149 109 204c56 38 64 48 64 73s-13 33 -57 33c-8 0 -21 0 -33 -1l-6 -32h-72v105c37 11 95 17 134 17c111 0 161 -35 161 -117c0 -53 -25 -89 -104 -140c-66 -43 -73 -53 -73 -101v-5h90l4 27h73v-119zM699 745l-383 -745h-149l383 745h149z
M275 301h-243v84l57 4v237l-58 -22v103l92 41h94v-359l58 -4v-84z" />
    <glyph glyph-name="threequarters" unicode="&#xbe;" horiz-adv-x="883" 
d="M852 96h-45v-37l23 -3v-56h-172v56l23 3v37h-163v83l188 267h101v-265h45v-85zM688 181v121l-78 -121h78zM728 745l-383 -745h-149l383 745h149zM325 424c0 -94 -49 -133 -164 -133c-50 0 -105 10 -131 19v105h73l4 -33c13 0 26 -1 38 -1c38 0 55 5 55 50v9
c0 33 -10 47 -52 47h-96v82h96c41 0 52 13 52 45v7c0 41 -15 47 -56 47c-11 0 -25 -1 -36 -2l-5 -31h-73v104c25 9 81 18 131 18c107 0 164 -34 164 -127v-7c0 -42 -15 -75 -48 -95c34 -18 48 -52 48 -95v-9z" />
    <glyph glyph-name="oneeighth" unicode="&#x215b;" horiz-adv-x="931" 
d="M901 125c0 -125 -85 -135 -165 -135h-3c-80 0 -165 10 -165 135v5c0 49 15 77 45 100c-28 21 -44 50 -44 94v6c0 107 74 125 164 125h3c89 0 163 -18 163 -125v-6c0 -44 -15 -73 -43 -94c30 -23 45 -51 45 -100v-5zM777 126v6c0 46 -7 60 -31 60h-23
c-25 0 -31 -14 -31 -60v-6c0 -44 12 -55 41 -55h3c28 0 41 11 41 55zM776 321v5c0 35 -12 47 -40 47h-3c-28 0 -41 -12 -41 -47v-5c0 -34 6 -53 31 -53h23c25 0 30 19 30 53zM696 745l-383 -745h-149l383 745h149zM275 301h-243v84l57 4v237l-58 -22v103l92 41h94v-359
l58 -4v-84z" />
    <glyph glyph-name="threeeighths" unicode="&#x215c;" horiz-adv-x="967" 
d="M936 125c0 -125 -85 -135 -165 -135h-3c-80 0 -165 10 -165 135v5c0 49 15 77 45 100c-28 21 -44 50 -44 94v6c0 107 75 125 164 125h3c89 0 163 -18 163 -125v-6c0 -44 -15 -73 -43 -94c30 -23 45 -51 45 -100v-5zM812 126v6c0 46 -6 60 -31 60h-23
c-25 0 -31 -14 -31 -60v-6c0 -44 12 -55 41 -55h3c28 0 41 11 41 55zM811 321v5c0 35 -12 47 -40 47h-3c-28 0 -41 -12 -41 -47v-5c0 -34 6 -53 31 -53h23c25 0 30 19 30 53zM729 745l-383 -745h-149l384 745h148zM325 424c0 -94 -49 -133 -164 -133c-50 0 -105 10 -131 19
v105h73l4 -33c13 0 26 -1 39 -1c37 0 54 5 54 50v9c0 33 -10 47 -52 47h-96v82h96c41 0 52 13 52 45v7c0 41 -14 47 -54 47c-11 0 -27 -1 -38 -2l-5 -31h-73v104c25 9 81 18 131 18c107 0 164 -34 164 -127v-7c0 -42 -15 -75 -48 -95c34 -18 48 -52 48 -95v-9z" />
    <glyph glyph-name="fiveeighths" unicode="&#x215d;" horiz-adv-x="962" 
d="M931 125c0 -125 -85 -135 -165 -135h-3c-80 0 -165 10 -165 135v5c0 49 15 77 45 100c-28 21 -44 50 -44 94v6c0 107 75 125 164 125h3c90 0 164 -18 164 -125v-6c0 -44 -16 -73 -44 -94c31 -23 45 -51 45 -100v-5zM807 126v6c0 46 -6 60 -31 60h-23
c-25 0 -31 -14 -31 -60v-6c0 -44 13 -55 41 -55h3c28 0 41 11 41 55zM806 321v5c0 35 -12 47 -40 47h-3c-28 0 -40 -12 -40 -47v-5c0 -34 5 -53 30 -53h23c25 0 30 19 30 53zM724 745l-383 -745h-149l383 745h149zM325 432c0 -109 -68 -144 -163 -144c-60 0 -110 11 -131 16
v107h72l5 -33c10 -1 20 -1 29 -1c47 0 61 11 61 54v12c0 38 -11 49 -61 49h-105l19 253h264v-114h-72l-5 24h-86l-5 -79h22c126 0 156 -47 156 -133v-11z" />
    <glyph glyph-name="seveneighths" unicode="&#x215e;" horiz-adv-x="891" 
d="M860 125c0 -125 -85 -135 -165 -135h-3c-80 0 -164 10 -164 135v5c0 49 14 77 44 100c-28 21 -44 50 -44 94v6c0 107 75 125 164 125h3c90 0 164 -18 164 -125v-6c0 -44 -16 -73 -44 -94c31 -23 45 -51 45 -100v-5zM736 126v6c0 46 -6 60 -31 60h-23
c-25 0 -31 -14 -31 -60v-6c0 -44 13 -55 41 -55h3c28 0 41 11 41 55zM735 321v5c0 35 -12 47 -40 47h-3c-28 0 -40 -12 -40 -47v-5c0 -34 5 -53 30 -53h23c25 0 30 19 30 53zM654 745l-383 -745h-149l383 745h149zM329 647l-161 -349h-130l168 357h-95l-4 -26h-72v116h294
v-98z" />
    <glyph glyph-name="onethird" unicode="&#x2153;" horiz-adv-x="918" 
d="M887 122c0 -94 -49 -132 -164 -132c-50 0 -105 9 -131 18v105h73l5 -32c12 -1 26 -1 37 -1c38 0 55 5 55 49v10c0 32 -10 47 -52 47h-96v81h97c41 0 51 14 51 46v6c0 41 -14 47 -55 47c-12 0 -25 0 -37 -1l-5 -31h-72v103c25 9 80 18 130 18c107 0 164 -34 164 -126v-7
c0 -43 -14 -76 -47 -95c33 -19 47 -53 47 -95v-10zM696 745l-383 -745h-149l383 745h149zM275 301h-243v84l57 4v237l-58 -22v103l92 41h94v-359l58 -4v-84z" />
    <glyph glyph-name="twothirds" unicode="&#x2154;" horiz-adv-x="972" 
d="M941 122c0 -94 -49 -132 -164 -132c-50 0 -105 9 -131 18v105h73l5 -32c12 -1 26 -1 37 -1c38 0 55 5 55 49v10c0 32 -10 47 -52 47h-96v81h97c41 0 51 14 51 46v6c0 41 -14 47 -55 47c-12 0 -25 0 -37 -1l-5 -31h-72v103c25 9 80 18 130 18c107 0 164 -34 164 -126v-7
c0 -43 -14 -76 -47 -95c33 -19 47 -53 47 -95v-10zM747 745l-383 -745h-149l383 745h149zM320 302h-290v56c0 112 27 148 109 204c56 38 64 48 64 72c0 26 -13 34 -57 34c-8 0 -20 0 -33 -1l-5 -32h-73v105c37 10 95 17 134 17c111 0 161 -35 161 -117
c0 -55 -26 -90 -104 -140c-66 -43 -73 -54 -73 -101v-5h90l5 26h72v-118z" />
    <glyph glyph-name="zero.numerator" unicode="&#xe11e;" horiz-adv-x="392" 
d="M365 505c0 -119 -31 -213 -169 -213s-169 95 -169 213v39c0 119 31 213 169 213s169 -93 169 -213v-39zM236 504v41c0 94 -10 114 -40 114c-31 0 -40 -21 -40 -114v-41c0 -94 9 -113 40 -113c30 0 40 19 40 113z" />
    <glyph glyph-name="one.numerator" unicode="&#xe11f;" horiz-adv-x="313" 
d="M279 301h-243v84l57 4v237l-57 -22v103l92 41h93v-359l58 -4v-84z" />
    <glyph glyph-name="two.numerator" unicode="&#xe120;" horiz-adv-x="364" 
d="M322 302h-290v56c0 112 27 148 109 204c56 38 63 48 63 72c0 26 -12 34 -57 34c-8 0 -20 0 -33 -1l-5 -32h-72v105c36 10 95 17 134 17c111 0 160 -35 160 -117c0 -55 -26 -90 -104 -140c-66 -42 -72 -54 -72 -101v-5h89l5 26h73v-118z" />
    <glyph glyph-name="three.numerator" unicode="&#xe121;" horiz-adv-x="361" 
d="M327 424c0 -94 -49 -133 -164 -133c-50 0 -105 10 -131 19v105h73l5 -33c12 0 26 -1 37 -1c38 0 55 5 55 50v9c0 33 -10 47 -52 47h-96v82h97c41 0 51 13 51 45v7c0 41 -14 47 -55 47c-12 0 -25 -1 -37 -2l-5 -31h-72v104c25 9 80 18 130 18c107 0 164 -34 164 -127v-7
c0 -42 -14 -75 -47 -95c33 -18 47 -52 47 -95v-9z" />
    <glyph glyph-name="four.numerator" unicode="&#xe122;" horiz-adv-x="383" 
d="M358 397h-45v-37l23 -3v-56h-172v56l24 3v37h-164v83l188 267h101v-265h45v-85zM194 482v121l-78 -121h78z" />
    <glyph glyph-name="five.numerator" unicode="&#xe123;" horiz-adv-x="359" 
d="M327 436c0 -109 -69 -144 -164 -144c-60 0 -110 11 -130 16v107h71l6 -33c10 -1 19 -1 28 -1c47 0 62 11 62 54v12c0 38 -11 49 -62 49h-104l18 250h264v-114h-72l-4 24h-86l-6 -76h23c125 0 156 -47 156 -133v-11z" />
    <glyph glyph-name="six.numerator" unicode="&#xe124;" horiz-adv-x="378" 
d="M350 439c0 -109 -68 -148 -163 -148c-115 0 -160 54 -160 170v121c0 117 35 175 166 175c54 0 113 -10 138 -16v-105h-72l-6 31c-13 0 -29 1 -42 1c-56 0 -60 -18 -60 -72v-14c12 3 34 5 52 5c90 0 147 -25 147 -128v-20zM225 439v19c0 43 -9 54 -38 54
c-9 0 -24 -1 -36 -4v-60c0 -55 10 -73 38 -73c26 0 36 19 36 64z" />
    <glyph glyph-name="seven.numerator" unicode="&#xe125;" horiz-adv-x="364" 
d="M332 647l-161 -347h-130l168 355h-96l-4 -26h-72v116h295v-98z" />
    <glyph glyph-name="eight.numerator" unicode="&#xe126;" horiz-adv-x="386" 
d="M359 426c0 -124 -85 -135 -165 -135h-3c-80 0 -165 11 -165 135v6c0 48 15 77 45 99c-28 21 -44 50 -44 94v6c0 107 74 126 164 126h3c89 0 163 -19 163 -126v-6c0 -44 -15 -73 -43 -94c30 -22 45 -51 45 -99v-6zM234 428v5c0 46 -6 60 -30 60h-23c-25 0 -31 -14 -31 -60
v-5c0 -44 12 -55 41 -55h3c28 0 40 11 40 55zM234 622v5c0 35 -12 47 -40 47h-3c-28 0 -41 -12 -41 -47v-5c0 -34 6 -52 31 -52h23c25 0 30 18 30 52z" />
    <glyph glyph-name="nine.numerator" unicode="&#xe127;" horiz-adv-x="378" 
d="M350 467c0 -116 -34 -175 -165 -175c-54 0 -114 9 -139 16v106h72l6 -32c14 0 30 -1 44 -1c54 0 58 19 58 71v16c-12 -3 -34 -5 -52 -5c-90 0 -147 26 -147 128v20c0 108 68 147 163 147c115 0 160 -54 160 -170v-121zM226 542v60c0 54 -10 72 -38 72
c-26 0 -36 -18 -36 -63v-19c0 -43 8 -54 38 -54c9 0 24 1 36 4z" />
    <glyph glyph-name="fraction" unicode="&#x2044;" horiz-adv-x="489" 
d="M510 745l-382 -745h-149l383 745h148z" />
    <glyph glyph-name="uni2215" unicode="&#x2215;" horiz-adv-x="489" 
d="M510 745l-382 -745h-149l383 745h148z" />
    <glyph glyph-name="zero.denominator" unicode="&#xe10a;" horiz-adv-x="395" 
d="M366 203c0 -122 -34 -213 -169 -213c-134 0 -169 91 -169 213v40c0 122 35 213 169 213c135 0 169 -91 169 -213v-40zM237 203v40c0 96 -11 114 -40 114c-28 0 -40 -18 -40 -114v-40c0 -95 12 -114 40 -114c29 0 40 19 40 114z" />
    <glyph glyph-name="one.denominator" unicode="&#xe10b;" horiz-adv-x="310" 
d="M277 0h-243v84l57 4v236l-58 -21v103l92 41h94v-359l58 -4v-84z" />
    <glyph glyph-name="two.denominator" unicode="&#xe10c;" horiz-adv-x="363" 
d="M322 0h-290v56c0 112 27 149 108 204c56 38 64 48 64 72c0 26 -13 34 -57 34c-8 0 -20 0 -33 -1l-5 -32h-73v105c37 11 96 17 135 17c111 0 160 -35 160 -117c0 -55 -25 -89 -104 -140c-66 -43 -73 -54 -73 -101v-5h90l5 27h73v-119z" />
    <glyph glyph-name="three.denominator" unicode="&#xe10d;" horiz-adv-x="358" 
d="M327 122c0 -94 -49 -132 -164 -132c-50 0 -105 9 -131 18v105h72l5 -32c13 -1 26 -1 38 -1c38 0 54 5 54 49v10c0 32 -9 47 -51 47h-96v81h96c41 0 51 14 51 46v6c0 41 -14 47 -55 47c-12 0 -25 0 -36 -1l-5 -31h-73v103c25 9 81 18 131 18c107 0 164 -34 164 -126v-7
c0 -43 -15 -76 -48 -95c34 -19 48 -53 48 -95v-10z" />
    <glyph glyph-name="four.denominator" unicode="&#xe10e;" horiz-adv-x="384" 
d="M359 95h-45v-37l23 -3v-55h-172v55l23 3v37h-163v83l188 268h101v-265h45v-86zM195 181v121l-78 -121h78z" />
    <glyph glyph-name="five.denominator" unicode="&#xe10f;" horiz-adv-x="358" 
d="M327 131c0 -110 -69 -144 -164 -144c-60 0 -110 10 -130 16v107h71l6 -33c10 -1 19 -1 28 -1c47 0 62 10 62 54v11c0 39 -11 49 -62 49h-104l18 253h264v-113h-72l-4 23h-86l-6 -78h23c125 0 156 -47 156 -133v-11z" />
    <glyph glyph-name="six.denominator" unicode="&#xe110;" horiz-adv-x="380" 
d="M352 137c0 -108 -69 -147 -163 -147c-115 0 -160 53 -160 170v121c0 117 34 175 165 175c54 0 113 -11 138 -17v-104h-72l-6 30c-13 1 -28 1 -42 1c-56 0 -60 -18 -60 -71v-14c13 3 35 5 53 5c90 0 147 -26 147 -128v-21zM227 137v19c0 44 -9 55 -39 55
c-9 0 -24 -1 -36 -4v-61c0 -54 10 -72 38 -72c26 0 37 19 37 63z" />
    <glyph glyph-name="seven.denominator" unicode="&#xe111;" horiz-adv-x="361" 
d="M331 346l-161 -349h-130l168 356h-95l-4 -25h-72v115h294v-97z" />
    <glyph glyph-name="eight.denominator" unicode="&#xe112;" horiz-adv-x="389" 
d="M361 125c0 -125 -85 -135 -165 -135h-3c-80 0 -165 10 -165 135v5c0 49 15 77 45 100c-28 21 -44 50 -44 94v6c0 107 75 125 164 125h3c89 0 163 -18 163 -125v-6c0 -44 -15 -73 -43 -94c30 -23 45 -51 45 -100v-5zM237 126v6c0 46 -7 60 -31 60h-23
c-25 0 -31 -14 -31 -60v-6c0 -44 12 -55 41 -55h3c28 0 41 11 41 55zM236 321v5c0 35 -12 47 -40 47h-3c-28 0 -41 -12 -41 -47v-5c0 -34 6 -53 31 -53h23c25 0 30 19 30 53z" />
    <glyph glyph-name="nine.denominator" unicode="&#xe113;" horiz-adv-x="380" 
d="M352 165c0 -116 -35 -175 -166 -175c-54 0 -113 8 -138 16v105h72l5 -31c14 -1 30 -1 45 -1c53 0 58 19 58 71v16c-13 -3 -35 -5 -52 -5c-91 0 -147 25 -147 127v20c0 108 68 147 162 147c115 0 161 -53 161 -169v-121zM228 239v61c0 54 -10 72 -39 72
c-25 0 -36 -19 -36 -64v-18c0 -43 9 -54 38 -54c10 0 25 1 37 3z" />
    <glyph glyph-name="zero.superior" unicode="&#x2070;" horiz-adv-x="392" 
d="M365 505c0 -119 -31 -213 -169 -213s-169 95 -169 213v39c0 119 31 213 169 213s169 -93 169 -213v-39zM236 504v41c0 94 -10 114 -40 114c-31 0 -40 -21 -40 -114v-41c0 -94 9 -113 40 -113c30 0 40 19 40 113z" />
    <glyph glyph-name="four.superior" unicode="&#x2074;" horiz-adv-x="383" 
d="M358 397h-45v-37l23 -3v-56h-172v56l24 3v37h-164v83l188 267h101v-265h45v-85zM194 482v121l-78 -121h78z" />
    <glyph glyph-name="five.superior" unicode="&#x2075;" horiz-adv-x="359" 
d="M327 436c0 -109 -69 -144 -164 -144c-60 0 -110 11 -130 16v107h71l6 -33c10 -1 19 -1 28 -1c47 0 62 11 62 54v12c0 38 -11 49 -62 49h-104l18 250h264v-114h-72l-4 24h-86l-6 -76h23c125 0 156 -47 156 -133v-11z" />
    <glyph glyph-name="six.superior" unicode="&#x2076;" horiz-adv-x="378" 
d="M350 439c0 -109 -68 -148 -163 -148c-115 0 -160 54 -160 170v121c0 117 35 175 166 175c54 0 113 -10 138 -16v-105h-72l-6 31c-13 0 -29 1 -42 1c-56 0 -60 -18 -60 -72v-14c12 3 34 5 52 5c90 0 147 -25 147 -128v-20zM225 439v19c0 43 -9 54 -38 54
c-9 0 -24 -1 -36 -4v-60c0 -55 10 -73 38 -73c26 0 36 19 36 64z" />
    <glyph glyph-name="seven.superior" unicode="&#x2077;" horiz-adv-x="364" 
d="M332 647l-161 -349h-130l168 357h-96l-4 -26h-72v116h295v-98z" />
    <glyph glyph-name="eight.superior" unicode="&#x2078;" horiz-adv-x="386" 
d="M359 426c0 -124 -85 -135 -165 -135h-3c-80 0 -165 11 -165 135v6c0 48 15 77 45 99c-28 21 -44 50 -44 94v6c0 107 74 126 164 126h3c89 0 163 -19 163 -126v-6c0 -44 -15 -73 -43 -94c30 -22 45 -51 45 -99v-6zM234 428v5c0 46 -6 60 -30 60h-23c-25 0 -31 -14 -31 -60
v-5c0 -44 12 -55 41 -55h3c28 0 40 11 40 55zM234 622v5c0 35 -12 47 -40 47h-3c-28 0 -41 -12 -41 -47v-5c0 -34 6 -52 31 -52h23c25 0 30 18 30 52z" />
    <glyph glyph-name="nine.superior" unicode="&#x2079;" horiz-adv-x="378" 
d="M350 466c0 -116 -34 -175 -165 -175c-54 0 -114 9 -139 16v106h72l6 -32c14 0 30 -1 44 -1c54 0 58 19 58 71v16c-12 -3 -34 -5 -52 -5c-90 0 -147 26 -147 128v20c0 108 68 147 163 147c115 0 160 -54 160 -170v-121zM226 541v60c0 54 -10 72 -38 72
c-26 0 -36 -18 -36 -63v-19c0 -43 8 -54 38 -54c9 0 24 1 36 4z" />
    <glyph glyph-name="zero.inferior" unicode="&#x2080;" horiz-adv-x="393" 
d="M365 202c0 -122 -35 -212 -169 -212c-135 0 -170 90 -170 212v41c0 123 35 212 170 212c134 0 169 -89 169 -212v-41zM235 202v41c0 96 -11 114 -39 114c-29 0 -40 -18 -40 -114v-41c0 -95 11 -113 40 -113c28 0 39 18 39 113z" />
    <glyph glyph-name="one.inferior" unicode="&#x2081;" horiz-adv-x="313" 
d="M279 0h-243v84l57 4v236l-57 -21v103l92 41h93v-359l58 -4v-84z" />
    <glyph glyph-name="two.inferior" unicode="&#x2082;" horiz-adv-x="364" 
d="M322 0h-290v56c0 112 27 149 109 204c56 38 63 48 63 72c0 26 -12 34 -57 34c-8 0 -20 0 -33 -1l-5 -32h-72v105c36 11 95 17 134 17c111 0 160 -35 160 -117c0 -55 -25 -90 -104 -140c-66 -43 -72 -54 -72 -101v-5h89l5 27h73v-119z" />
    <glyph glyph-name="three.inferior" unicode="&#x2083;" horiz-adv-x="361" 
d="M327 122c0 -94 -49 -132 -164 -132c-50 0 -105 9 -131 18v105h73l5 -32c12 -1 26 -1 37 -1c38 0 55 5 55 49v10c0 32 -10 47 -52 47h-96v81h97c41 0 51 14 51 46v6c0 41 -14 47 -55 47c-12 0 -25 0 -37 -1l-5 -31h-72v103c25 9 80 18 130 18c107 0 164 -34 164 -126v-7
c0 -43 -14 -76 -47 -95c33 -19 47 -53 47 -95v-10z" />
    <glyph glyph-name="four.inferior" unicode="&#x2084;" horiz-adv-x="383" 
d="M358 96h-45v-37l23 -3v-56h-172v56l24 3v37h-164v83l188 267h101v-265h45v-85zM194 181v121l-78 -121h78z" />
    <glyph glyph-name="five.inferior" unicode="&#x2085;" horiz-adv-x="359" 
d="M327 134c0 -110 -69 -144 -164 -144c-60 0 -110 10 -130 16v107h71l6 -33c10 -1 19 -1 28 -1c47 0 62 11 62 54v11c0 39 -11 50 -62 50h-104l18 252h264v-113h-72l-4 23h-86l-6 -78h23c125 0 156 -47 156 -133v-11z" />
    <glyph glyph-name="six.inferior" unicode="&#x2086;" horiz-adv-x="378" 
d="M350 137c0 -109 -68 -147 -163 -147c-115 0 -160 53 -160 169v121c0 117 35 175 166 175c54 0 113 -10 138 -16v-105h-72l-6 31c-13 1 -29 1 -42 1c-56 0 -60 -18 -60 -71v-15c12 3 34 5 52 5c90 0 147 -25 147 -128v-20zM225 137v19c0 44 -9 55 -38 55
c-9 0 -24 -1 -36 -5v-60c0 -55 10 -72 38 -72c26 0 36 18 36 63z" />
    <glyph glyph-name="seven.inferior" unicode="&#x2087;" horiz-adv-x="364" 
d="M332 349l-161 -349h-130l168 356h-96l-4 -25h-72v115h295v-97z" />
    <glyph glyph-name="eight.inferior" unicode="&#x2088;" horiz-adv-x="386" 
d="M359 125c0 -125 -85 -135 -165 -135h-3c-80 0 -165 10 -165 135v5c0 49 15 77 45 100c-28 21 -44 50 -44 94v6c0 107 74 125 164 125h3c89 0 163 -18 163 -125v-6c0 -44 -15 -73 -43 -94c30 -23 45 -51 45 -100v-5zM234 126v6c0 46 -6 60 -30 60h-23
c-25 0 -31 -14 -31 -60v-6c0 -44 12 -55 41 -55h3c28 0 40 11 40 55zM234 321v5c0 35 -12 47 -40 47h-3c-28 0 -41 -12 -41 -47v-5c0 -34 6 -53 31 -53h23c25 0 30 19 30 53z" />
    <glyph glyph-name="nine.inferior" unicode="&#x2089;" horiz-adv-x="378" 
d="M350 165c0 -116 -34 -175 -165 -175c-54 0 -114 8 -139 16v105h72l6 -31c14 -1 30 -1 44 -1c54 0 58 19 58 71v16c-12 -3 -34 -5 -52 -5c-90 0 -147 25 -147 127v20c0 108 68 147 163 147c115 0 160 -53 160 -169v-121zM226 239v61c0 54 -10 72 -38 72
c-26 0 -36 -19 -36 -64v-18c0 -43 8 -54 38 -54c9 0 24 1 36 3z" />
    <glyph glyph-name="Euro" unicode="&#x20ac;" horiz-adv-x="555" 
d="M523 7c-36 -12 -120 -21 -169 -21c-153 0 -257 48 -272 278h-52v69h50c-1 26 -1 52 0 79h-50v69h51c15 229 112 277 264 277c58 0 142 -10 178 -22v-169h-113l-8 36c-9 1 -19 1 -28 1c-56 0 -90 -9 -97 -123h224l-14 -69h-213c-1 -26 0 -53 0 -79h196l-14 -69h-180
c9 -117 43 -125 106 -125c42 0 95 3 141 6v-138z" />
    <glyph glyph-name="sterling" unicode="&#xa3;" horiz-adv-x="536" 
d="M505 0h-457v112c30 30 42 69 42 110v92h-59v131h59v55c0 188 67 259 230 259c57 0 127 -9 185 -24v-173h-115l-10 46c-8 1 -19 1 -28 1c-66 0 -76 -19 -76 -107v-57h148v-131h-148v-92c0 -31 -7 -58 -20 -82h249v-140z" />
    <glyph glyph-name="yen" unicode="&#xa5;" horiz-adv-x="620" 
d="M590 210h-187v-95l37 -5v-110h-263v110l38 5v95h-187v103h172l-33 77h-139v104h96l-46 121l-54 8v120h200l56 -181c10 -34 21 -85 28 -115h2c8 30 19 81 29 115l56 181h201v-120l-56 -8l-46 -121h96v-104h-140l-33 -77h173v-103z" />
    <glyph glyph-name="florin" unicode="&#x192;" horiz-adv-x="540" 
d="M513 741l-11 -105c-28 1 -43 1 -60 1c-36 0 -46 -7 -51 -55l-13 -126h112l-14 -126h-113l-34 -327c-15 -137 -85 -174 -181 -174c-54 0 -94 9 -121 17l11 105c26 -1 43 -1 60 -1c36 0 45 5 51 55l35 325h-104l14 126h103l14 128c14 137 89 174 182 174
c53 0 93 -9 120 -17z" />
    <glyph glyph-name="cent" unicode="&#xa2;" horiz-adv-x="453" 
d="M421 12c-21 -7 -58 -15 -100 -19v-104h-151v110c-99 26 -139 109 -139 248v80c0 138 40 221 139 248v108h152v-102c45 -5 83 -14 99 -19v-151h-110l-7 35h-20c-56 0 -75 -18 -75 -119v-80c0 -101 19 -120 75 -120c38 0 90 3 137 6v-121z" />
    <glyph glyph-name="peseta" unicode="&#x20a7;" horiz-adv-x="640" 
d="M623 443h-49c-23 -157 -141 -192 -268 -192c-17 0 -30 1 -49 1v-120l47 -5v-127h-270v127l37 5v311h-47v122h47v64l-37 5v109c80 6 169 9 251 9c145 0 266 -31 288 -187h50v-122zM391 498v11c0 77 -25 97 -93 97c-13 0 -28 -1 -41 -1v-205c13 -1 28 -1 43 -1
c66 0 91 26 91 99z" />
    <glyph glyph-name="peseta.taboldstyle" unicode="&#xe439;" horiz-adv-x="594" 
d="M283 0h-247v115l31 5v223h-43v108h43v45l-34 6v91c68 7 152 11 231 11c128 0 235 -26 255 -153h51v-108h-52c-23 -124 -125 -152 -233 -152c-14 0 -27 0 -43 1v-72l41 -5v-115zM347 394v10c0 53 -18 66 -68 66c-12 0 -28 -1 -37 -1v-142c9 -1 25 -1 37 -1
c48 0 68 19 68 68z" />
    <glyph glyph-name="franc" unicode="&#x20a3;" horiz-adv-x="515" 
d="M481 309h-228v-83h110v-104h-110v-122h-192v122h-37v104h37v386l-37 6v125h463v-183h-116l-7 37h-111v-150h228v-138z" />
    <glyph glyph-name="franc.taboldstyle" unicode="&#xe431;" horiz-adv-x="521" 
d="M476 240h-196v-60h98v-91h-98v-89h-189v89h-50v91h50v294l-32 6v119h421v-168h-99l-7 30h-94v-95h196v-126z" />
    <glyph glyph-name="rupiah" unicode="&#xf6dd;" horiz-adv-x="1154" 
d="M286 0h-258v127l36 4v481l-36 4v127c76 5 159 9 247 9c158 0 294 -38 294 -241v-8c0 -103 -32 -163 -87 -201l69 -170l48 -5v-127h-186l-103 263h-60v-132l36 -4v-127zM383 501v8c0 76 -22 97 -95 97c-14 0 -23 0 -38 -1v-206h41c73 0 92 32 92 102zM1122 244
c0 -180 -73 -256 -228 -256c-21 0 -46 3 -61 5v-62l40 -4v-126h-255v126l36 4v513l-36 5v125h200v-33c43 32 95 44 138 44c114 0 166 -65 166 -246v-95zM942 244v95c0 86 -10 107 -54 107c-17 0 -37 -4 -59 -16v-299c16 -3 31 -5 46 -5c49 0 67 16 67 118z" />
    <glyph glyph-name="currency" unicode="&#xa4;" horiz-adv-x="585" 
d="M550 197l-79 -74l-73 69c-32 -17 -68 -26 -103 -26c-37 0 -72 8 -106 27l-75 -72l-79 74l76 72c-18 31 -27 66 -27 101s8 69 27 100l-76 72l78 74l76 -72c32 19 69 27 106 27s72 -7 104 -27l73 70l78 -74l-74 -69c20 -32 30 -67 30 -101c0 -36 -9 -71 -29 -102zM395 368
c0 65 -47 98 -101 98c-55 0 -100 -34 -100 -98c0 -69 47 -99 100 -99c52 0 101 30 101 99z" />
    <glyph glyph-name="quotesingle" unicode="'" horiz-adv-x="219" 
d="M209 772l-66 -259h-133l39 259h160z" />
    <glyph glyph-name="degree" unicode="&#xb0;" horiz-adv-x="373" 
d="M345 606c0 -84 -71 -152 -158 -152c-88 0 -158 68 -158 152c0 85 70 152 158 152c87 0 158 -67 158 -152zM254 607c0 38 -31 67 -68 67s-67 -29 -67 -67s30 -67 67 -67s68 29 68 67z" />
    <glyph glyph-name="perthousand" unicode="&#x2030;" horiz-adv-x="1352" 
d="M1320 192c0 -122 -41 -204 -170 -204c-130 0 -171 82 -171 204v43c0 122 41 203 171 203c129 0 170 -81 170 -203v-43zM1190 192v43c0 89 -12 107 -40 107s-40 -18 -40 -107v-43c0 -89 12 -107 40 -107s40 18 40 107zM935 192c0 -122 -41 -204 -170 -204
c-130 0 -171 82 -171 204v43c0 122 41 203 171 203c129 0 170 -81 170 -203v-43zM804 192v43c0 89 -11 107 -39 107c-29 0 -40 -18 -40 -107v-43c0 -89 11 -107 40 -107c28 0 39 18 39 107zM746 745l-382 -745h-147l383 745h146zM372 512c0 -120 -38 -204 -170 -204
c-133 0 -171 85 -171 204v42c0 119 38 203 171 203c132 0 170 -83 170 -203v-42zM242 511v43c0 88 -9 108 -40 108s-40 -21 -40 -108v-43c0 -87 9 -107 40 -107s40 20 40 107z" />
    <glyph glyph-name="litre" unicode="&#x2113;" horiz-adv-x="468" 
d="M446 42c-42 -34 -100 -61 -180 -61c-107 0 -178 46 -178 177v26l-37 -33l-35 57l72 66v335c0 126 58 180 183 180c122 0 168 -54 168 -139c0 -107 -67 -213 -172 -313v-174c0 -59 15 -80 57 -80c22 0 49 11 73 29zM368 649c0 36 -8 64 -48 64c-50 0 -53 -39 -53 -104
v-181c67 73 101 149 101 221z" />
    <glyph glyph-name="estimated" unicode="&#x212e;" horiz-adv-x="629" 
d="M600 282h-446v-193c44 -40 95 -63 158 -63c116 0 171 59 218 127l32 -19c-54 -81 -121 -141 -250 -141c-170 0 -282 133 -282 290c0 159 108 290 286 290c177 0 284 -134 284 -291zM475 315v163c-38 33 -99 62 -159 62c-63 0 -121 -21 -162 -62v-163h321z" />
    <glyph glyph-name="multiply" unicode="&#xd7;" horiz-adv-x="536" 
d="M483 271l-94 -89l-121 116l-121 -117l-94 90l121 116l-121 117l94 89l121 -117l121 116l94 -89l-121 -116z" />
    <glyph glyph-name="divide" unicode="&#xf7;" horiz-adv-x="536" 
d="M355 77h-175v152h175v-152zM477 321v134h-419v-134h419zM355 545h-175v152h175v-152z" />
    <glyph glyph-name="minus" unicode="&#x2212;" horiz-adv-x="536" 
d="M477 321h-419v134h419v-134z" />
    <glyph glyph-name="plusminus" unicode="&#xb1;" horiz-adv-x="536" 
d="M487 0h-439v114h439v-114zM490 359h-152v-159h-140v159h-153v132h153v159h140v-159h152v-132z" />
    <glyph glyph-name="notequal" unicode="&#x2260;" horiz-adv-x="536" 
d="M476 179h-184l-48 -183h-161l48 183h-72v134h109l37 143h-146v133h183l42 158h160l-42 -158h74v-133h-110l-38 -143h148v-134z" />
    <glyph glyph-name="lessequal" unicode="&#x2264;" horiz-adv-x="536" 
d="M487 0h-436v114h436v-114zM452 177h-185l-219 236l219 236h185l-218 -236z" />
    <glyph glyph-name="greaterequal" unicode="&#x2265;" horiz-adv-x="536" 
d="M484 0h-436v114h436v-114zM487 413l-219 -236h-184l217 236l-217 236h184z" />
    <glyph glyph-name="approxequal" unicode="&#x2248;" horiz-adv-x="536" 
d="M471 562c0 -93 -51 -131 -115 -131c-30 0 -63 5 -95 27l-25 18c-14 11 -25 19 -39 19c-19 0 -24 -10 -24 -35v-27h-109v27c0 93 53 132 118 132c31 0 63 -6 95 -29l25 -18c15 -11 25 -17 40 -17c17 0 22 10 22 34v27h107v-27zM471 315c0 -93 -51 -131 -115 -131
c-30 0 -63 5 -95 27l-25 18c-14 11 -25 19 -39 19c-19 0 -24 -10 -24 -35v-27h-109v27c0 93 53 132 118 132c31 0 63 -6 95 -29l25 -18c15 -11 25 -17 40 -17c17 0 22 10 22 34v27h107v-27z" />
    <glyph glyph-name="logicalnot" unicode="&#xac;" horiz-adv-x="536" 
d="M473 179h-145v277h-266v133h411v-410z" />
    <glyph glyph-name="brokenbar" unicode="&#xa6;" horiz-adv-x="264" 
d="M221 -198h-179v380h179v-380zM221 364h-179v379h179v-379z" />
    <glyph glyph-name="infinity" unicode="&#x221e;" horiz-adv-x="625" 
d="M574 364c0 -76 -8 -245 -158 -245h-6c-40 0 -76 17 -102 46c-22 -31 -58 -47 -98 -47h-6c-147 0 -156 155 -156 246v24c0 75 8 244 158 244h6c40 0 76 -17 101 -47c23 34 58 49 99 49h5c148 0 157 -156 157 -247v-23zM455 364v23c0 88 -2 138 -41 138h-4
c-29 -1 -35 -40 -45 -146c-4 -45 -7 -63 -15 -122c16 -23 36 -32 54 -32h4c44 0 47 60 47 139zM272 493c-14 22 -36 33 -54 33h-5c-43 0 -46 -62 -46 -138v-24c0 -84 1 -138 42 -138h4c27 0 33 34 45 150c4 40 7 58 14 117z" />
    <glyph glyph-name="partialdiff" unicode="&#x2202;" horiz-adv-x="561" 
d="M528 459c0 -63 -8 -141 -19 -206c-34 -192 -117 -265 -270 -265c-128 0 -206 58 -206 190c0 34 4 68 9 102c28 179 123 238 261 238c21 0 41 -6 55 -13c0 10 -1 28 -3 42c-10 69 -45 132 -165 132c-21 0 -47 -2 -73 -7l11 107c33 6 68 9 99 9c212 0 301 -138 301 -329z
M340 325c0 40 -15 55 -47 55c-45 0 -64 -36 -75 -117c-4 -32 -9 -61 -9 -83c0 -41 15 -54 48 -54c44 0 62 31 77 130c4 30 6 55 6 69z" />
    <glyph glyph-name="mu" unicode="&#xb5;" horiz-adv-x="595" 
d="M277 -199h-249v126l35 4v514l-35 4v125h215v-382c0 -51 7 -66 41 -66c19 0 44 9 67 22v297l-34 4v125h214v-444l36 -5v-125h-204v41c-28 -19 -59 -36 -94 -42c-10 -1 -19 -1 -27 0v-68l35 -4v-126z" />
    <glyph glyph-name="Delta" unicode="&#x2206;" horiz-adv-x="632" 
d="M610 0h-587l144 743h296zM395 139l-62 361c-7 40 -12 85 -16 121h-2c-5 -36 -9 -81 -16 -121l-63 -361h159z" />
    <glyph glyph-name="Omega" unicode="&#x2126;" horiz-adv-x="629" 
d="M598 391c0 -126 -37 -205 -123 -242v-30h108v-119h-241v217c54 11 67 70 67 165v81c0 103 -29 141 -95 141c-65 0 -94 -38 -94 -141v-81c0 -95 13 -154 67 -165v-217h-241v119h108v30c-86 37 -123 116 -123 242v80c0 198 101 287 283 287c183 0 284 -89 284 -287v-80z
" />
    <glyph glyph-name="summation" unicode="&#x2211;" horiz-adv-x="498" 
d="M462 -52h-426v147l166 253l-166 248v147h426v-147h-230l137 -212v-76l-137 -213h230v-147z" />
    <glyph glyph-name="product" unicode="&#x220f;" horiz-adv-x="688" 
d="M660 589h-67v-641h-184v640h-130v-640h-184v641h-67v154h632v-154z" />
    <glyph glyph-name="integral" unicode="&#x222b;" horiz-adv-x="431" 
d="M400 667c-20 1 -41 2 -54 2c-37 0 -41 -7 -41 -50v-660c0 -116 -44 -167 -147 -167c-50 0 -98 9 -127 17v104c20 -1 42 -3 55 -3c36 0 40 8 40 51v659c0 117 44 167 148 167c50 0 97 -8 126 -16v-104z" />
    <glyph glyph-name="radical" unicode="&#x221a;" horiz-adv-x="740" 
d="M711 871l-248 -934h-203l-114 435h-117v133h232l100 -403l194 769h156z" />
    <glyph glyph-name="lozenge" unicode="&#x25ca;" horiz-adv-x="551" 
d="M518 368l-243 -322l-242 321l242 327zM377 368l-102 140l-101 -141l101 -140z" />
    <glyph glyph-name="uni00A0" unicode="&#xa0;" horiz-adv-x="181" 
 />
    <glyph glyph-name="Acute.sc" unicode="&#xe092;" horiz-adv-x="380" 
d="M348 773l-131 -140h-159l100 140h190z" />
    <glyph glyph-name="Breve.sc" unicode="&#xe082;" horiz-adv-x="442" 
d="M411 781c-17 -109 -99 -151 -190 -151s-174 42 -190 151h111c8 -53 37 -67 79 -67s71 14 79 67h111z" />
    <glyph glyph-name="Caron.sc" unicode="&#xe083;" horiz-adv-x="456" 
d="M436 773l-104 -140h-208l-104 140h146l62 -74l62 74h146z" />
    <glyph glyph-name="Cedilla.sc" unicode="&#xe093;" horiz-adv-x="357" 
d="M298 -58l-108 -141h-155l81 141h182z" />
    <glyph glyph-name="Circumflex.sc" unicode="&#xe084;" horiz-adv-x="456" 
d="M436 633h-146l-62 75l-62 -75h-146l104 140h208z" />
    <glyph glyph-name="commaaccent.sc" unicode="&#xe469;" horiz-adv-x="344" 
d="M284 -58l-87 -141h-151l58 141h180z" />
    <glyph glyph-name="Dieresis.sc" unicode="&#xe090;" horiz-adv-x="434" 
d="M403 641h-142v127h142v-127zM174 641v127h-143v-127h143z" />
    <glyph glyph-name="DieresisAcute.sc" unicode="&#xe467;" horiz-adv-x="572" 
d="M570 644h-134v127h134v-127zM236 779h183l-112 -147h-152zM137 644h-135v127h135v-127z" />
    <glyph glyph-name="DieresisGrave.sc" unicode="&#xe468;" horiz-adv-x="572" 
d="M570 644h-135v127h135v-127zM335 779l82 -147h-152l-112 147h182zM136 644h-134v127h134v-127z" />
    <glyph glyph-name="Dotaccent.sc" unicode="&#xe085;" horiz-adv-x="319" 
d="M252 651h-186v125h186v-125z" />
    <glyph glyph-name="Hungarumlaut.sc" unicode="&#xe086;" horiz-adv-x="552" 
d="M552 773l-131 -141h-149l100 141h180zM325 773l-131 -141h-149l100 141h180z" />
    <glyph glyph-name="Grave.sc" unicode="&#xe08e;" horiz-adv-x="380" 
d="M317 633h-159l-131 140h191z" />
    <glyph glyph-name="dblGrave.sc" unicode="&#xe46a;" horiz-adv-x="552" 
d="M524 633h-150l-130 140h180zM275 633l-100 140h-180l131 -140h149z" />
    <glyph glyph-name="Macron.sc" unicode="&#xe091;" horiz-adv-x="407" 
d="M378 651h-349v106h349v-106z" />
    <glyph glyph-name="Ogonek.sc" unicode="&#xe087;" horiz-adv-x="364" 
d="M320 -191c-33 -11 -81 -19 -131 -19c-87 0 -140 31 -140 94c0 49 31 92 135 132l136 -16c-100 -38 -116 -62 -116 -81c0 -21 12 -30 47 -30c25 0 52 3 69 4v-84z" />
    <glyph glyph-name="Ring.sc" unicode="&#xe088;" horiz-adv-x="355" 
d="M314 742c0 -77 -58 -123 -136 -123s-137 46 -137 123c0 78 59 124 137 124s136 -46 136 -124zM226 742c0 33 -19 49 -48 49s-49 -16 -49 -49c0 -32 20 -48 49 -48s48 16 48 48z" />
    <glyph glyph-name="Tilde.sc" unicode="&#xe089;" horiz-adv-x="439" 
d="M422 761c0 -93 -51 -131 -115 -131c-30 0 -63 5 -95 27l-25 18c-14 11 -25 19 -39 19c-19 0 -24 -10 -24 -35v-27h-109v27c0 93 53 132 118 132c31 0 63 -6 95 -29l25 -18c15 -11 25 -17 40 -17c17 0 22 10 22 34v27h107v-27z" />
    <glyph glyph-name="middot" unicode="&#x387;" horiz-adv-x="241" 
d="M206 281h-171v166h171v-166z" />
    <glyph glyph-name="A.sc" unicode="&#xe000;" horiz-adv-x="570" 
d="M545 0h-188l-23 128h-100l-22 -128h-187v112l34 4l68 343l-31 3v115h321l92 -461l36 -4v-112zM321 245l-24 141c-5 29 -8 62 -12 89h-2c-4 -27 -7 -60 -12 -89l-24 -141h74z" />
    <glyph glyph-name="Aacute.sc" unicode="&#xe002;" horiz-adv-x="570" 
d="M545 0h-188l-23 128h-100l-22 -128h-187v112l34 4l68 343l-31 3v115h321l92 -461l36 -4v-112zM321 245l-24 141c-5 29 -8 62 -12 89h-2c-4 -27 -7 -60 -12 -89l-24 -141h74zM479 778l-131 -140h-159l100 140h190z" />
    <glyph glyph-name="Abreve.sc" unicode="&#xe040;" horiz-adv-x="570" 
d="M545 0h-188l-23 128h-100l-22 -128h-187v112l34 4l68 343l-31 3v115h321l92 -461l36 -4v-112zM321 245l-24 141c-5 29 -8 62 -12 89h-2c-4 -27 -7 -60 -12 -89l-24 -141h74zM471 785c-16 -109 -98 -151 -190 -151c-90 0 -173 42 -190 151h112c7 -53 37 -67 78 -67
c43 0 72 14 80 67h110z" />
    <glyph glyph-name="Acircumflex.sc" unicode="&#xe003;" horiz-adv-x="570" 
d="M545 0h-188l-23 128h-100l-22 -128h-187v112l34 4l68 343l-31 3v115h321l92 -461l36 -4v-112zM321 245l-24 141c-5 29 -8 62 -12 89h-2c-4 -27 -7 -60 -12 -89l-24 -141h74zM490 638h-146l-62 75l-61 -75h-146l103 140h209z" />
    <glyph glyph-name="Adieresis.sc" unicode="&#xe004;" horiz-adv-x="570" 
d="M545 0h-188l-23 128h-100l-22 -128h-187v112l34 4l68 343l-31 3v115h321l92 -461l36 -4v-112zM321 245l-24 141c-5 29 -8 62 -12 89h-2c-4 -27 -7 -60 -12 -89l-24 -141h74zM462 643h-142v127h142v-127zM244 643v127h-142v-127h142z" />
    <glyph glyph-name="Agrave.sc" unicode="&#xe005;" horiz-adv-x="570" 
d="M545 0h-188l-23 128h-100l-22 -128h-187v112l34 4l68 343l-31 3v115h321l92 -461l36 -4v-112zM321 245l-24 141c-5 29 -8 62 -12 89h-2c-4 -27 -7 -60 -12 -89l-24 -141h74zM377 638h-159l-131 140h190z" />
    <glyph glyph-name="Amacron.sc" unicode="&#xe041;" horiz-adv-x="570" 
d="M545 0h-188l-23 128h-100l-22 -128h-187v112l34 4l68 343l-31 3v115h321l92 -461l36 -4v-112zM321 245l-24 141c-5 29 -8 62 -12 89h-2c-4 -27 -7 -60 -12 -89l-24 -141h74zM457 647h-350v106h350v-106z" />
    <glyph glyph-name="Aogonek.sc" unicode="&#xe042;" horiz-adv-x="570" 
d="M545 -191c-33 -11 -81 -19 -131 -19c-87 0 -140 31 -140 94c0 43 23 81 97 116h-14l-23 128h-100l-22 -128h-187v112l34 4l68 343l-31 3v115h321l92 -461l36 -4v-112c-100 -38 -116 -62 -116 -81c0 -21 12 -30 47 -30c25 0 52 3 69 4v-84zM321 245l-24 141
c-5 29 -8 62 -12 89h-2c-4 -27 -7 -60 -12 -89l-24 -141h74z" />
    <glyph glyph-name="Aring.sc" unicode="&#xe006;" horiz-adv-x="570" 
d="M545 0h-188l-23 128h-100l-22 -128h-187v112l34 4l68 343l-31 3v115h321l92 -461l36 -4v-112zM321 245l-24 141c-5 29 -8 62 -12 89h-2c-4 -27 -7 -60 -12 -89l-24 -141h74zM418 745c0 -77 -58 -123 -136 -123s-136 46 -136 123c0 78 58 124 136 124s136 -46 136 -124z
M330 745c0 33 -19 49 -48 49c-28 0 -48 -16 -48 -49c0 -32 19 -48 48 -48s48 16 48 48z" />
    <glyph glyph-name="Atilde.sc" unicode="&#xe007;" horiz-adv-x="570" 
d="M545 0h-188l-23 128h-100l-22 -128h-187v112l34 4l68 343l-31 3v115h321l92 -461l36 -4v-112zM321 245l-24 141c-5 29 -8 62 -12 89h-2c-4 -27 -7 -60 -12 -89l-24 -141h74zM488 766c0 -93 -51 -131 -115 -131c-30 0 -63 5 -95 27l-25 18c-14 11 -25 19 -39 19
c-19 0 -24 -10 -24 -35v-27h-109v27c0 93 53 132 118 132c31 0 63 -6 95 -29l25 -18c15 -11 25 -17 40 -17c17 0 22 10 22 34v27h107v-27z" />
    <glyph glyph-name="AE.sc" unicode="&#xe001;" horiz-adv-x="710" 
d="M680 577v-149h-100l-6 26h-84v-103h176v-115h-176v-113h84l6 27h100v-150h-361v127h-85l-22 -127h-187v111l34 5l68 343l-30 4v114h583zM319 474h-35c-4 -26 -8 -58 -12 -83l-25 -147h72v230z" />
    <glyph glyph-name="AEacute.sc" unicode="&#xe043;" horiz-adv-x="710" 
d="M680 577v-149h-100l-6 26h-84v-103h176v-115h-176v-113h84l6 27h100v-150h-361v127h-85l-22 -127h-187v111l34 5l68 343l-30 4v114h583zM319 474h-35c-4 -26 -8 -58 -12 -83l-25 -147h72v230zM586 778l-131 -140h-159l100 140h190z" />
    <glyph glyph-name="B.sc" unicode="&#xe008;" horiz-adv-x="521" 
d="M493 171c0 -143 -93 -180 -249 -180c-57 0 -130 2 -216 10v111l29 4v346l-29 4v111c83 7 157 10 217 10c158 0 246 -37 246 -169v-7c0 -53 -20 -92 -54 -115c42 -25 56 -74 56 -114v-11zM329 172v11c0 44 -13 63 -60 63h-48v-135c16 -1 28 -1 38 -1c52 0 70 14 70 62z
M328 403v9c0 47 -18 57 -69 57h-38v-125h48c49 0 59 20 59 59z" />
    <glyph glyph-name="C.sc" unicode="&#xe009;" horiz-adv-x="441" 
d="M410 5c-28 -9 -110 -17 -149 -17c-153 0 -232 57 -232 263v76c0 206 79 263 232 263c39 0 121 -9 149 -17v-150h-99l-7 35c-7 1 -14 1 -21 1c-54 0 -82 -17 -82 -132v-76c0 -116 28 -133 83 -133c6 0 14 0 20 1l7 36h99v-150z" />
    <glyph glyph-name="Cacute.sc" unicode="&#xe044;" horiz-adv-x="441" 
d="M410 5c-28 -9 -110 -17 -149 -17c-153 0 -232 57 -232 263v76c0 206 79 263 232 263c39 0 121 -9 149 -17v-150h-99l-7 35c-7 1 -14 1 -21 1c-54 0 -82 -17 -82 -132v-76c0 -116 28 -133 83 -133c6 0 14 0 20 1l7 36h99v-150zM435 778l-131 -140h-159l100 140h190z" />
    <glyph glyph-name="Ccaron.sc" unicode="&#xe045;" horiz-adv-x="441" 
d="M410 5c-28 -9 -110 -17 -149 -17c-153 0 -232 57 -232 263v76c0 206 79 263 232 263c39 0 121 -9 149 -17v-150h-99l-7 35c-7 1 -14 1 -21 1c-54 0 -82 -17 -82 -132v-76c0 -116 28 -133 83 -133c6 0 14 0 20 1l7 36h99v-150zM449 778l-103 -140h-209l-103 140h146
l61 -74l62 74h146z" />
    <glyph glyph-name="Ccedilla.sc" unicode="&#xe00a;" horiz-adv-x="441" 
d="M410 5c-28 -9 -110 -17 -149 -17c-153 0 -232 57 -232 263v76c0 206 79 263 232 263c39 0 121 -9 149 -17v-150h-99l-7 35c-7 1 -14 1 -21 1c-54 0 -82 -17 -82 -132v-76c0 -116 28 -133 83 -133c6 0 14 0 20 1l7 36h99v-150zM357 -58l-108 -141h-156l81 141h183z" />
    <glyph glyph-name="Ccircumflex.sc" unicode="&#xe046;" horiz-adv-x="441" 
d="M410 5c-28 -9 -110 -17 -149 -17c-153 0 -232 57 -232 263v76c0 206 79 263 232 263c39 0 121 -9 149 -17v-150h-99l-7 35c-7 1 -14 1 -21 1c-54 0 -82 -17 -82 -132v-76c0 -116 28 -133 83 -133c6 0 14 0 20 1l7 36h99v-150zM449 638h-146l-62 75l-61 -75h-146l103 140
h209z" />
    <glyph glyph-name="Cdotaccent.sc" unicode="&#xe047;" horiz-adv-x="441" 
d="M410 5c-28 -9 -110 -17 -149 -17c-153 0 -232 57 -232 263v76c0 206 79 263 232 263c39 0 121 -9 149 -17v-150h-99l-7 35c-7 1 -14 1 -21 1c-54 0 -82 -17 -82 -132v-76c0 -116 28 -133 83 -133c6 0 14 0 20 1l7 36h99v-150zM338 647h-186v125h186v-125z" />
    <glyph glyph-name="D.sc" unicode="&#xe00b;" horiz-adv-x="528" 
d="M499 258c0 -191 -71 -268 -257 -268c-77 0 -147 4 -214 11v111l31 5v344l-31 5v111c72 7 139 10 214 10c186 0 257 -75 257 -263v-66zM331 255v72c0 109 -12 133 -77 133c-9 0 -23 -1 -29 -1v-341h29c66 0 77 27 77 137z" />
    <glyph glyph-name="Dcaron.sc" unicode="&#xe048;" horiz-adv-x="528" 
d="M499 258c0 -191 -71 -268 -257 -268c-77 0 -147 4 -214 11v111l31 5v344l-31 5v111c72 7 139 10 214 10c186 0 257 -75 257 -263v-66zM331 255v72c0 109 -12 133 -77 133c-9 0 -23 -1 -29 -1v-341h29c66 0 77 27 77 137zM470 778l-103 -140h-209l-103 140h146l61 -74
l62 74h146z" />
    <glyph glyph-name="Dcroat.sc" unicode="&#xe049;" horiz-adv-x="528" 
d="M499 258c0 -191 -72 -268 -256 -268c-78 0 -148 4 -215 11v111l31 5v119h-35v114h35v111l-31 5v111c72 7 139 10 215 10c183 0 256 -75 256 -263v-66zM331 257v67c0 112 -12 136 -78 136c-9 0 -17 0 -28 -1v-109h50v-114h-50v-118h29c66 0 77 28 77 139z" />
    <glyph glyph-name="Eth.sc" unicode="&#xe00c;" horiz-adv-x="528" 
d="M499 258c0 -191 -72 -268 -256 -268c-78 0 -148 4 -215 11v111l31 5v119h-35v114h35v111l-31 5v111c72 7 139 10 215 10c183 0 256 -75 256 -263v-66zM331 257v67c0 112 -12 136 -78 136c-9 0 -17 0 -28 -1v-109h50v-114h-50v-118h29c66 0 77 28 77 139z" />
    <glyph glyph-name="E.sc" unicode="&#xe00d;" horiz-adv-x="445" 
d="M414 0h-386v112l26 3v348l-26 4v110h386v-149h-99l-6 26h-84v-103h178v-115h-178v-113h84l6 27h99v-150z" />
    <glyph glyph-name="Eacute.sc" unicode="&#xe00e;" horiz-adv-x="445" 
d="M414 0h-386v112l26 3v348l-26 4v110h386v-149h-99l-6 26h-84v-103h178v-115h-178v-113h84l6 27h99v-150zM431 778l-131 -140h-159l100 140h190z" />
    <glyph glyph-name="Ebreve.sc" unicode="&#xe04a;" horiz-adv-x="445" 
d="M414 0h-386v112l26 3v348l-26 4v110h386v-149h-99l-6 26h-84v-103h178v-115h-178v-113h84l6 27h99v-150zM427 785c-16 -109 -98 -151 -190 -151c-90 0 -173 42 -190 151h112c7 -53 37 -67 78 -67c43 0 72 14 80 67h110z" />
    <glyph glyph-name="Ecaron.sc" unicode="&#xe04b;" horiz-adv-x="445" 
d="M414 0h-386v112l26 3v348l-26 4v110h386v-149h-99l-6 26h-84v-103h178v-115h-178v-113h84l6 27h99v-150zM445 778l-103 -140h-209l-103 140h146l61 -74l62 74h146z" />
    <glyph glyph-name="Ecircumflex.sc" unicode="&#xe00f;" horiz-adv-x="445" 
d="M414 0h-386v112l26 3v348l-26 4v110h386v-149h-99l-6 26h-84v-103h178v-115h-178v-113h84l6 27h99v-150zM441 638h-146l-62 75l-61 -75h-146l103 140h209z" />
    <glyph glyph-name="Edieresis.sc" unicode="&#xe010;" horiz-adv-x="445" 
d="M414 0h-386v112l26 3v348l-26 4v110h386v-149h-99l-6 26h-84v-103h178v-115h-178v-113h84l6 27h99v-150zM409 644h-142v127h142v-127zM191 644v127h-142v-127h142z" />
    <glyph glyph-name="Edotaccent.sc" unicode="&#xe04c;" horiz-adv-x="445" 
d="M414 0h-386v112l26 3v348l-26 4v110h386v-149h-99l-6 26h-84v-103h178v-115h-178v-113h84l6 27h99v-150zM327 647h-186v125h186v-125z" />
    <glyph glyph-name="Egrave.sc" unicode="&#xe011;" horiz-adv-x="445" 
d="M414 0h-386v112l26 3v348l-26 4v110h386v-149h-99l-6 26h-84v-103h178v-115h-178v-113h84l6 27h99v-150zM327 638h-159l-131 140h190z" />
    <glyph glyph-name="Emacron.sc" unicode="&#xe04d;" horiz-adv-x="445" 
d="M414 0h-386v112l26 3v348l-26 4v110h386v-149h-99l-6 26h-84v-103h178v-115h-178v-113h84l6 27h99v-150zM404 647h-350v106h350v-106z" />
    <glyph glyph-name="Eogonek.sc" unicode="&#xe04f;" horiz-adv-x="445" 
d="M414 -191c-33 -11 -81 -19 -131 -19c-87 0 -140 31 -140 94c0 43 23 81 97 116h-212v112l26 3v348l-26 4v110h386v-149h-99l-6 26h-84v-103h178v-115h-178v-113h84l6 27h99v-150c-100 -38 -116 -62 -116 -81c0 -21 12 -30 47 -30c25 0 52 3 69 4v-84z" />
    <glyph glyph-name="F.sc" unicode="&#xe012;" horiz-adv-x="444" 
d="M410 235h-183v-119l28 -4v-112h-227v112l29 4v346l-29 5v110h389v-150h-100l-5 27h-85v-104h183v-115z" />
    <glyph glyph-name="G.sc" unicode="&#xe013;" horiz-adv-x="489" 
d="M458 5c-43 -8 -119 -17 -196 -17c-121 0 -233 35 -233 262v79c0 240 135 261 241 261c73 0 151 -15 184 -24v-142h-99l-7 33c-14 0 -28 1 -40 1c-80 0 -110 -12 -110 -131v-77c0 -108 16 -133 66 -133c11 0 24 0 36 2v93l-38 5v94h196v-306z" />
    <glyph glyph-name="Gbreve.sc" unicode="&#xe050;" horiz-adv-x="489" 
d="M458 5c-43 -8 -119 -17 -196 -17c-121 0 -233 35 -233 262v79c0 240 135 261 241 261c73 0 151 -15 184 -24v-142h-99l-7 33c-14 0 -28 1 -40 1c-80 0 -110 -12 -110 -131v-77c0 -108 16 -133 66 -133c11 0 24 0 36 2v93l-38 5v94h196v-306zM462 785
c-16 -109 -98 -151 -190 -151c-90 0 -173 42 -190 151h112c7 -53 37 -67 78 -67c43 0 72 14 80 67h110z" />
    <glyph glyph-name="Gcircumflex.sc" unicode="&#xe051;" horiz-adv-x="489" 
d="M458 5c-43 -8 -119 -17 -196 -17c-121 0 -233 35 -233 262v79c0 240 135 261 241 261c73 0 151 -15 184 -24v-142h-99l-7 33c-14 0 -28 1 -40 1c-80 0 -110 -12 -110 -131v-77c0 -108 16 -133 66 -133c11 0 24 0 36 2v93l-38 5v94h196v-306zM476 638h-146l-62 75l-61 -75
h-146l103 140h209z" />
    <glyph glyph-name="Gcommaaccent.sc" unicode="&#xe052;" horiz-adv-x="489" 
d="M458 5c-43 -8 -119 -17 -196 -17c-121 0 -233 35 -233 262v79c0 240 135 261 241 261c73 0 151 -15 184 -24v-142h-99l-7 33c-14 0 -28 1 -40 1c-80 0 -110 -12 -110 -131v-77c0 -108 16 -133 66 -133c11 0 24 0 36 2v93l-38 5v94h196v-306zM354 -58l-87 -141h-150
l57 141h180z" />
    <glyph glyph-name="Gdotaccent.sc" unicode="&#xe053;" horiz-adv-x="489" 
d="M458 5c-43 -8 -119 -17 -196 -17c-121 0 -233 35 -233 262v79c0 240 135 261 241 261c73 0 151 -15 184 -24v-142h-99l-7 33c-14 0 -28 1 -40 1c-80 0 -110 -12 -110 -131v-77c0 -108 16 -133 66 -133c11 0 24 0 36 2v93l-38 5v94h196v-306zM364 647h-186v125h186v-125z
" />
    <glyph glyph-name="H.sc" unicode="&#xe014;" horiz-adv-x="583" 
d="M326 577h229v-111l-29 -5v-345l29 -4v-112h-229v111l29 5v116h-126v-116l29 -5v-111h-230v112l29 4v345l-29 5v111h230v-111l-29 -5v-101h126v101l-29 5v111z" />
    <glyph glyph-name="Hbar.sc" unicode="&#xe054;" horiz-adv-x="583" 
d="M326 577h229v-111l-29 -5v-30h29v-38h-29v-277l29 -4v-112h-229v111l29 5v116h-126v-116l29 -5v-111h-230v112l29 4v277h-29v38h29v30l-29 5v111h230v-111l-29 -5v-30h126v30l-29 5v111zM229 360h126v33h-126v-33z" />
    <glyph glyph-name="Hcircumflex.sc" unicode="&#xe055;" horiz-adv-x="583" 
d="M326 577h229v-111l-29 -5v-345l29 -4v-112h-229v111l29 5v116h-126v-116l29 -5v-111h-230v112l29 4v345l-29 5v111h230v-111l-29 -5v-101h126v101l-29 5v111zM500 633h-146l-62 75l-61 -75h-146l103 140h209z" />
    <glyph glyph-name="I.sc" unicode="&#xe015;" horiz-adv-x="285" 
d="M258 0h-230v112l29 4v346l-29 5v110h230v-110l-29 -5v-346l29 -4v-112z" />
    <glyph glyph-name="Iacute.sc" unicode="&#xe016;" horiz-adv-x="285" 
d="M258 0h-230v112l29 4v346l-29 5v110h230v-110l-29 -5v-346l29 -4v-112zM332 778l-131 -140h-159l100 140h190z" />
    <glyph glyph-name="Ibreve.sc" unicode="&#xe056;" horiz-adv-x="285" 
d="M258 0h-230v112l29 4v346l-29 5v110h230v-110l-29 -5v-346l29 -4v-112zM332 785c-16 -109 -98 -151 -190 -151c-90 0 -173 42 -190 151h112c7 -53 37 -67 78 -67c43 0 72 14 80 67h110z" />
    <glyph glyph-name="Icircumflex.sc" unicode="&#xe017;" horiz-adv-x="285" 
d="M258 0h-230v112l29 4v346l-29 5v110h230v-110l-29 -5v-346l29 -4v-112zM350 638h-146l-62 75l-61 -75h-146l103 140h209z" />
    <glyph glyph-name="Idieresis.sc" unicode="&#xe018;" horiz-adv-x="285" 
d="M258 0h-230v112l29 4v346l-29 5v110h230v-110l-29 -5v-346l29 -4v-112zM321 644h-142v127h142v-127zM103 644v127h-142v-127h142z" />
    <glyph glyph-name="Idotaccent.sc" unicode="&#xe081;" horiz-adv-x="285" 
d="M258 0h-230v112l29 4v346l-29 5v110h230v-110l-29 -5v-346l29 -4v-112zM235 647h-186v125h186v-125z" />
    <glyph glyph-name="Igrave.sc" unicode="&#xe019;" horiz-adv-x="285" 
d="M258 0h-230v112l29 4v346l-29 5v110h230v-110l-29 -5v-346l29 -4v-112zM251 638h-159l-131 140h190z" />
    <glyph glyph-name="Imacron.sc" unicode="&#xe059;" horiz-adv-x="285" 
d="M258 0h-230v112l29 4v346l-29 5v110h230v-110l-29 -5v-346l29 -4v-112zM317 647h-350v106h350v-106z" />
    <glyph glyph-name="Iogonek.sc" unicode="&#xe05a;" horiz-adv-x="285" 
d="M274 -191c-33 -11 -81 -19 -131 -19c-87 0 -140 31 -140 94c0 42 17 82 82 116h-57v112l29 4v346l-29 5v110h230v-110l-29 -5v-346l29 -4v-112c-92 -35 -100 -62 -100 -81c0 -21 12 -30 47 -30c25 0 52 3 69 4v-84z" />
    <glyph glyph-name="Itilde.sc" unicode="&#xe05b;" horiz-adv-x="285" 
d="M258 0h-230v112l29 4v346l-29 5v110h230v-110l-29 -5v-346l29 -4v-112zM344 766c0 -93 -51 -131 -115 -131c-30 0 -63 5 -95 27l-25 18c-14 11 -25 19 -39 19c-19 0 -24 -10 -24 -35v-27h-109v27c0 93 53 132 118 132c31 0 63 -6 95 -29l25 -18c15 -11 25 -17 40 -17
c17 0 22 10 22 34v27h107v-27z" />
    <glyph glyph-name="IJ.sc" unicode="&#xe058;" horiz-adv-x="551" 
d="M525 467l-29 -5v-478c0 -111 -55 -148 -151 -148c-23 0 -54 2 -81 8v105h32c26 0 30 8 30 35v478l-29 5v110h228v-110zM258 0h-230v112l29 4v346l-29 5v110h230v-110l-29 -5v-346l29 -4v-112z" />
    <glyph glyph-name="J.sc" unicode="&#xe01a;" horiz-adv-x="294" 
d="M258 467l-29 -5v-478c0 -111 -57 -148 -153 -148c-29 0 -56 3 -81 8v105h32c25 0 30 8 30 35v478l-29 5v110h230v-110z" />
    <glyph glyph-name="Jcircumflex.sc" unicode="&#xe05c;" horiz-adv-x="294" 
d="M258 467l-29 -5v-478c0 -111 -57 -148 -153 -148c-29 0 -56 3 -81 8v105h32c25 0 30 8 30 35v478l-29 5v110h230v-110zM360 638h-146l-62 75l-61 -75h-146l103 140h209z" />
    <glyph glyph-name="K.sc" unicode="&#xe01b;" horiz-adv-x="547" 
d="M520 0h-183l-112 260v-260h-197v112l26 3v348l-26 4v110h197v-262l122 262h174v-110l-40 -6l-89 -170l89 -175l39 -4v-112z" />
    <glyph glyph-name="Kcommaaccent.sc" unicode="&#xe05d;" horiz-adv-x="547" 
d="M520 0h-183l-112 260v-260h-197v112l26 3v348l-26 4v110h197v-262l122 262h174v-110l-40 -6l-89 -170l89 -175l39 -4v-112zM360 -58l-87 -141h-150l57 141h180z" />
    <glyph glyph-name="L.sc" unicode="&#xe01c;" horiz-adv-x="417" 
d="M390 0h-362v112l26 3v348l-26 4v110h225v-110l-28 -5v-335h59l6 35h100v-162z" />
    <glyph glyph-name="Lacute.sc" unicode="&#xe05e;" horiz-adv-x="417" 
d="M390 0h-362v112l26 3v348l-26 4v110h225v-110l-28 -5v-335h59l6 35h100v-162zM405 778l-131 -140h-159l100 140h190z" />
    <glyph glyph-name="Lcaron.sc" unicode="&#xe05f;" horiz-adv-x="417" 
d="M451 587l-85 -257h-107l51 257h141zM390 0h-362v112l26 3v348l-26 4v110h225v-110l-28 -5v-335h59l6 35h100v-162z" />
    <glyph glyph-name="Lcommaaccent.sc" unicode="&#xe060;" horiz-adv-x="417" 
d="M390 0h-362v112l26 3v348l-26 4v110h225v-110l-28 -5v-335h59l6 35h100v-162zM299 -58l-87 -141h-150l57 141h180z" />
    <glyph glyph-name="Ldot.sc" unicode="&#xe061;" horiz-adv-x="417" 
d="M390 253h-124v145h124v-145zM390 0h-362v112l26 3v348l-26 4v110h225v-110l-28 -5v-335h59l6 35h100v-162z" />
    <glyph glyph-name="Lslash.sc" unicode="&#xe01d;" horiz-adv-x="417" 
d="M391 0h-363v112l26 3v69l-28 -21v95l28 21v184l-26 4v110h225v-110l-28 -5v-84l88 60v-96l-88 -60v-155h59l7 35h100v-162z" />
    <glyph glyph-name="M.sc" unicode="&#xe01e;" horiz-adv-x="646" 
d="M241 0h-213v112l25 3v348l-25 4v110h181l81 -161c10 -20 21 -48 30 -70h2c8 22 19 50 29 70l82 161h185v-110l-29 -5v-346l29 -4v-112h-218v112l25 3v130c0 30 2 62 4 93h-1c-9 -23 -19 -53 -29 -73l-40 -79h-77l-39 79c-10 21 -21 51 -29 73h-2c2 -31 4 -63 4 -93v-130
l25 -3v-112z" />
    <glyph glyph-name="N.sc" unicode="&#xe01f;" horiz-adv-x="570" 
d="M334 577h208v-110l-30 -5v-462h-163l-113 240c-9 20 -21 47 -30 71h-2c2 -27 4 -61 4 -88v-108l25 -3v-112h-205v112l26 3v348l-26 4v110h187l113 -234c13 -26 24 -52 33 -75h1c-2 25 -3 68 -3 95v99l-25 3v112z" />
    <glyph glyph-name="Nacute.sc" unicode="&#xe062;" horiz-adv-x="570" 
d="M334 577h208v-110l-30 -5v-462h-163l-113 240c-9 20 -21 47 -30 71h-2c2 -27 4 -61 4 -88v-108l25 -3v-112h-205v112l26 3v348l-26 4v110h187l113 -234c13 -26 24 -52 33 -75h1c-2 25 -3 68 -3 95v99l-25 3v112zM474 778l-131 -140h-159l100 140h190z" />
    <glyph glyph-name="Ncaron.sc" unicode="&#xe063;" horiz-adv-x="570" 
d="M334 577h208v-110l-30 -5v-462h-163l-113 240c-9 20 -21 47 -30 71h-2c2 -27 4 -61 4 -88v-108l25 -3v-112h-205v112l26 3v348l-26 4v110h187l113 -234c13 -26 24 -52 33 -75h1c-2 25 -3 68 -3 95v99l-25 3v112zM492 778l-103 -140h-209l-103 140h146l61 -74l62 74h146z
" />
    <glyph glyph-name="Ncommaaccent.sc" unicode="&#xe064;" horiz-adv-x="570" 
d="M334 577h208v-110l-30 -5v-462h-163l-113 240c-9 20 -21 47 -30 71h-2c2 -27 4 -61 4 -88v-108l25 -3v-112h-205v112l26 3v348l-26 4v110h187l113 -234c13 -26 24 -52 33 -75h1c-2 25 -3 68 -3 95v99l-25 3v112zM377 -58l-87 -141h-150l57 141h180z" />
    <glyph glyph-name="Ntilde.sc" unicode="&#xe020;" horiz-adv-x="570" 
d="M334 577h208v-110l-30 -5v-462h-163l-113 240c-9 20 -21 47 -30 71h-2c2 -27 4 -61 4 -88v-108l25 -3v-112h-205v112l26 3v348l-26 4v110h187l113 -234c13 -26 24 -52 33 -75h1c-2 25 -3 68 -3 95v99l-25 3v112zM489 766c0 -93 -51 -131 -115 -131c-30 0 -63 5 -95 27
l-25 18c-14 11 -25 19 -39 19c-19 0 -24 -10 -24 -35v-27h-109v27c0 93 53 132 118 132c31 0 63 -6 95 -29l25 -18c15 -11 25 -17 40 -17c17 0 22 10 22 34v27h107v-27z" />
    <glyph glyph-name="Eng.sc" unicode="&#xe04e;" horiz-adv-x="570" 
d="M334 577h208v-110l-30 -5v-478c0 -111 -57 -148 -153 -148c-29 0 -56 3 -81 8v105h51c25 0 30 8 30 35v16l-123 240c-10 20 -21 47 -30 71h-2c2 -27 4 -61 4 -88v-108l25 -3v-112h-205v112l26 3v348l-26 4v110h187l113 -215c13 -26 24 -52 33 -75h1c-2 25 -3 68 -3 95v80
l-25 3v112z" />
    <glyph glyph-name="O.sc" unicode="&#xe021;" horiz-adv-x="515" 
d="M486 255c0 -209 -97 -267 -229 -267c-131 0 -228 59 -228 267v67c0 210 100 268 228 268c129 0 229 -57 229 -268v-67zM318 256v65c0 109 -15 138 -61 138c-45 0 -59 -30 -59 -138v-65c0 -108 15 -137 59 -137c46 0 61 28 61 137z" />
    <glyph glyph-name="Oacute.sc" unicode="&#xe023;" horiz-adv-x="515" 
d="M486 255c0 -209 -97 -267 -229 -267c-131 0 -228 59 -228 267v67c0 210 100 268 228 268c129 0 229 -57 229 -268v-67zM318 256v65c0 109 -15 138 -61 138c-45 0 -59 -30 -59 -138v-65c0 -108 15 -137 59 -137c46 0 61 28 61 137zM462 778l-131 -140h-159l100 140h190z
" />
    <glyph glyph-name="Obreve.sc" unicode="&#xe065;" horiz-adv-x="515" 
d="M486 255c0 -209 -97 -267 -229 -267c-131 0 -228 59 -228 267v67c0 210 100 268 228 268c129 0 229 -57 229 -268v-67zM318 256v65c0 109 -15 138 -61 138c-45 0 -59 -30 -59 -138v-65c0 -108 15 -137 59 -137c46 0 61 28 61 137zM453 786c-16 -109 -98 -151 -190 -151
c-90 0 -173 42 -190 151h112c7 -53 37 -67 78 -67c43 0 72 14 80 67h110z" />
    <glyph glyph-name="Ocircumflex.sc" unicode="&#xe024;" horiz-adv-x="515" 
d="M486 255c0 -209 -97 -267 -229 -267c-131 0 -228 59 -228 267v67c0 210 100 268 228 268c129 0 229 -57 229 -268v-67zM318 256v65c0 109 -15 138 -61 138c-45 0 -59 -30 -59 -138v-65c0 -108 15 -137 59 -137c46 0 61 28 61 137zM467 638h-146l-62 75l-61 -75h-146
l103 140h209z" />
    <glyph glyph-name="Odieresis.sc" unicode="&#xe025;" horiz-adv-x="515" 
d="M486 255c0 -209 -97 -267 -229 -267c-131 0 -228 59 -228 267v67c0 210 100 268 228 268c129 0 229 -57 229 -268v-67zM318 256v65c0 109 -15 138 -61 138c-45 0 -59 -30 -59 -138v-65c0 -108 15 -137 59 -137c46 0 61 28 61 137zM438 644h-142v127h142v-127zM220 644
v127h-142v-127h142z" />
    <glyph glyph-name="Ograve.sc" unicode="&#xe026;" horiz-adv-x="515" 
d="M486 255c0 -209 -97 -267 -229 -267c-131 0 -228 59 -228 267v67c0 210 100 268 228 268c129 0 229 -57 229 -268v-67zM318 256v65c0 109 -15 138 -61 138c-45 0 -59 -30 -59 -138v-65c0 -108 15 -137 59 -137c46 0 61 28 61 137zM374 638h-159l-131 140h190z" />
    <glyph glyph-name="Ohungarumlaut.sc" unicode="&#xe066;" horiz-adv-x="515" 
d="M486 255c0 -209 -97 -267 -229 -267c-131 0 -228 59 -228 267v67c0 210 100 268 228 268c129 0 229 -57 229 -268v-67zM318 256v65c0 109 -15 138 -61 138c-45 0 -59 -30 -59 -138v-65c0 -108 15 -137 59 -137c46 0 61 28 61 137zM587 778l-131 -141h-149l100 141h180z
M339 778h-180l-100 -141h149z" />
    <glyph glyph-name="Omacron.sc" unicode="&#xe067;" horiz-adv-x="515" 
d="M486 255c0 -209 -97 -267 -229 -267c-131 0 -228 59 -228 267v67c0 210 100 268 228 268c129 0 229 -57 229 -268v-67zM318 256v65c0 109 -15 138 -61 138c-45 0 -59 -30 -59 -138v-65c0 -108 15 -137 59 -137c46 0 61 28 61 137zM432 647h-350v106h350v-106z" />
    <glyph glyph-name="Otilde.sc" unicode="&#xe028;" horiz-adv-x="515" 
d="M486 255c0 -209 -97 -267 -229 -267c-131 0 -228 59 -228 267v67c0 210 100 268 228 268c129 0 229 -57 229 -268v-67zM318 256v65c0 109 -15 138 -61 138c-45 0 -59 -30 -59 -138v-65c0 -108 15 -137 59 -137c46 0 61 28 61 137zM464 767c0 -93 -51 -131 -115 -131
c-30 0 -63 5 -95 27l-25 18c-14 11 -25 19 -39 19c-19 0 -24 -10 -24 -35v-27h-109v27c0 93 53 132 118 132c31 0 63 -6 95 -29l25 -18c15 -11 25 -17 40 -17c17 0 22 10 22 34v27h107v-27z" />
    <glyph glyph-name="Oslash.sc" unicode="&#xe027;" horiz-adv-x="520" 
d="M489 254c0 -204 -97 -267 -229 -267c-48 0 -90 9 -126 28l-21 -33h-93l55 89c-28 41 -44 100 -44 183v69c0 205 99 267 229 267c47 0 91 -9 127 -29l23 35h93l-58 -92c28 -41 44 -101 44 -181v-69zM322 255v67c0 109 -15 138 -62 138c-46 0 -61 -30 -61 -138v-67
c0 -107 15 -138 61 -138s62 30 62 138z" />
    <glyph glyph-name="Oslashacute.sc" unicode="&#xe068;" horiz-adv-x="520" 
d="M489 254c0 -204 -97 -267 -229 -267c-48 0 -90 9 -126 28l-21 -33h-93l55 89c-28 41 -44 100 -44 183v69c0 205 99 267 229 267c47 0 91 -9 127 -29l23 35h93l-58 -92c28 -41 44 -101 44 -181v-69zM322 255v67c0 109 -15 138 -62 138c-46 0 -61 -30 -61 -138v-67
c0 -107 15 -138 61 -138s62 30 62 138zM459 773l-131 -140h-159l100 140h190z" />
    <glyph glyph-name="OE.sc" unicode="&#xe022;" horiz-adv-x="698" 
d="M668 0h-303c-35 -8 -68 -12 -105 -12c-134 0 -231 59 -231 267v67c0 211 98 268 231 268c37 0 71 -4 106 -13h302v-149h-99l-6 26h-85v-103h182v-115h-182v-113h84l7 27h99v-150zM311 122v333c-18 3 -35 4 -49 4c-50 0 -64 -30 -64 -138v-65c0 -108 14 -137 63 -137
c20 0 30 1 50 3z" />
    <glyph glyph-name="P.sc" unicode="&#xe029;" horiz-adv-x="514" 
d="M254 0h-226v112l29 4v346l-29 5v110c64 6 133 9 213 9c136 0 248 -30 248 -193v-10c0 -160 -113 -194 -228 -194c-14 0 -23 0 -40 1v-74l33 -4v-112zM324 384v10c0 53 -18 67 -70 67c-11 0 -22 0 -33 -1v-145c10 -1 22 -1 35 -1c50 0 68 20 68 70z" />
    <glyph glyph-name="Thorn.sc" unicode="&#xe02a;" horiz-adv-x="514" 
d="M488 305c0 -161 -113 -194 -228 -194h-40v-111h-193v112l29 4v372l-29 3v112h193v-96h29c131 0 239 -33 239 -192v-10zM323 306v9c0 54 -18 68 -70 68c-11 0 -22 -1 -33 -1v-145c10 -1 22 -1 35 -1c50 0 68 20 68 70z" />
    <glyph glyph-name="Q.sc" unicode="&#xe02b;" horiz-adv-x="515" 
d="M486 255c0 -166 -61 -240 -156 -260v-24c0 -21 10 -24 24 -24h60v-89c-27 -10 -67 -17 -112 -17c-84 0 -127 29 -127 122v34c-91 23 -146 99 -146 258v67c0 210 100 268 228 268c129 0 229 -57 229 -268v-67zM318 256v65c0 109 -15 138 -61 138c-45 0 -59 -30 -59 -138
v-65c0 -108 15 -137 59 -137c46 0 61 28 61 137z" />
    <glyph glyph-name="Qalt.sc" unicode="&#xe595;" horiz-adv-x="515" 
d="M486 255c0 -166 -61 -240 -156 -260v-148h-155v150c-91 23 -146 99 -146 258v67c0 210 100 268 228 268c129 0 229 -57 229 -268v-67zM318 256v65c0 109 -15 138 -61 138c-45 0 -59 -30 -59 -138v-65c0 -108 15 -137 59 -137c46 0 61 28 61 137z" />
    <glyph glyph-name="R.sc" unicode="&#xe02c;" horiz-adv-x="532" 
d="M506 0h-157l-83 200h-20h-26v-200h-192v112l29 4v346l-29 5v110c63 5 138 9 212 9c134 0 247 -33 247 -193v-7c0 -80 -28 -126 -69 -154l48 -115l40 -5v-112zM323 386v6c0 54 -16 69 -71 69h-32v-147h34c54 0 69 23 69 72zM249 0h-192l163 116l29 -4v-112z" />
    <glyph glyph-name="Racute.sc" unicode="&#xe069;" horiz-adv-x="532" 
d="M506 0h-157l-83 200h-20h-26v-200h-192v112l29 4v346l-29 5v110c63 5 138 9 212 9c134 0 247 -33 247 -193v-7c0 -80 -28 -126 -69 -154l48 -115l40 -5v-112zM323 386v6c0 54 -16 69 -71 69h-32v-147h34c54 0 69 23 69 72zM249 0h-192l163 116l29 -4v-112zM459 778
l-131 -140h-159l100 140h190z" />
    <glyph glyph-name="Rcaron.sc" unicode="&#xe06a;" horiz-adv-x="532" 
d="M506 0h-157l-83 200h-20h-26v-200h-192v112l29 4v346l-29 5v110c63 5 138 9 212 9c134 0 247 -33 247 -193v-7c0 -80 -28 -126 -69 -154l48 -115l40 -5v-112zM323 386v6c0 54 -16 69 -71 69h-32v-147h34c54 0 69 23 69 72zM249 0h-192l163 116l29 -4v-112zM470 778
l-103 -140h-209l-103 140h146l61 -74l62 74h146z" />
    <glyph glyph-name="Rcommaaccent.sc" unicode="&#xe06b;" horiz-adv-x="532" 
d="M506 0h-157l-83 200h-20h-26v-200h-192v112l29 4v346l-29 5v110c63 5 138 9 212 9c134 0 247 -33 247 -193v-7c0 -80 -28 -126 -69 -154l48 -115l40 -5v-112zM323 386v6c0 54 -16 69 -71 69h-32v-147h34c54 0 69 23 69 72zM249 0h-192l163 116l29 -4v-112zM361 -58
l-87 -141h-150l57 141h180z" />
    <glyph glyph-name="S.sc" unicode="&#xe02d;" horiz-adv-x="453" 
d="M426 165c0 -118 -71 -177 -200 -177c-80 0 -149 10 -187 20v138h100l6 -36c20 -1 34 -1 52 -1c44 0 58 16 58 49c0 27 -15 38 -58 63l-58 33c-72 41 -112 86 -112 174c0 111 66 162 213 162c74 0 139 -13 176 -22v-134h-101l-7 34c-18 1 -36 1 -53 1
c-40 0 -60 -10 -60 -41c0 -22 12 -36 47 -56l55 -32c83 -48 129 -88 129 -175z" />
    <glyph glyph-name="Sacute.sc" unicode="&#xe06c;" horiz-adv-x="453" 
d="M426 165c0 -118 -71 -177 -200 -177c-80 0 -149 10 -187 20v138h100l6 -36c20 -1 34 -1 52 -1c44 0 58 16 58 49c0 27 -15 38 -58 63l-58 33c-72 41 -112 86 -112 174c0 111 66 162 213 162c74 0 139 -13 176 -22v-134h-101l-7 34c-18 1 -36 1 -53 1
c-40 0 -60 -10 -60 -41c0 -22 12 -36 47 -56l55 -32c83 -48 129 -88 129 -175zM432 778l-131 -140h-159l100 140h190z" />
    <glyph glyph-name="Scaron.sc" unicode="&#xe02e;" horiz-adv-x="453" 
d="M426 165c0 -118 -71 -177 -200 -177c-80 0 -149 10 -187 20v138h100l6 -36c20 -1 34 -1 52 -1c44 0 58 16 58 49c0 27 -15 38 -58 63l-58 33c-72 41 -112 86 -112 174c0 111 66 162 213 162c74 0 139 -13 176 -22v-134h-101l-7 34c-18 1 -36 1 -53 1
c-40 0 -60 -10 -60 -41c0 -22 12 -36 47 -56l55 -32c83 -48 129 -88 129 -175zM446 778l-103 -140h-209l-103 140h146l61 -74l62 74h146z" />
    <glyph glyph-name="Scedilla.sc" unicode="&#xe06d;" horiz-adv-x="453" 
d="M426 165c0 -118 -71 -177 -200 -177c-80 0 -149 10 -187 20v138h100l6 -36c20 -1 34 -1 52 -1c44 0 58 16 58 49c0 27 -15 38 -58 63l-58 33c-72 41 -112 86 -112 174c0 111 66 162 213 162c74 0 139 -13 176 -22v-134h-101l-7 34c-18 1 -36 1 -53 1
c-40 0 -60 -10 -60 -41c0 -22 12 -36 47 -56l55 -32c83 -48 129 -88 129 -175zM347 -58l-108 -141h-156l81 141h183z" />
    <glyph glyph-name="Scircumflex.sc" unicode="&#xe06e;" horiz-adv-x="453" 
d="M426 165c0 -118 -71 -177 -200 -177c-80 0 -149 10 -187 20v138h100l6 -36c20 -1 34 -1 52 -1c44 0 58 16 58 49c0 27 -15 38 -58 63l-58 33c-72 41 -112 86 -112 174c0 111 66 162 213 162c74 0 139 -13 176 -22v-134h-101l-7 34c-18 1 -36 1 -53 1
c-40 0 -60 -10 -60 -41c0 -22 12 -36 47 -56l55 -32c83 -48 129 -88 129 -175zM434 633h-146l-62 75l-61 -75h-146l103 140h209z" />
    <glyph glyph-name="Scommaaccent.sc" unicode="&#xe06f;" horiz-adv-x="453" 
d="M426 165c0 -118 -71 -177 -200 -177c-80 0 -149 10 -187 20v138h100l6 -36c20 -1 34 -1 52 -1c44 0 58 16 58 49c0 27 -15 38 -58 63l-58 33c-72 41 -112 86 -112 174c0 111 66 162 213 162c74 0 139 -13 176 -22v-134h-101l-7 34c-18 1 -36 1 -53 1
c-40 0 -60 -10 -60 -41c0 -22 12 -36 47 -56l55 -32c83 -48 129 -88 129 -175zM339 -58l-87 -141h-150l57 141h180z" />
    <glyph glyph-name="T.sc" unicode="&#xe02f;" horiz-adv-x="497" 
d="M470 426h-96l-7 30h-34v-341l29 -4v-111h-228v111l29 4v341h-34l-6 -30h-96v151h443v-151z" />
    <glyph glyph-name="Tcaron.sc" unicode="&#xe071;" horiz-adv-x="497" 
d="M470 426h-96l-7 30h-34v-341l29 -4v-111h-228v111l29 4v341h-34l-6 -30h-96v151h443v-151zM453 778l-103 -140h-209l-103 140h146l61 -74l62 74h146z" />
    <glyph glyph-name="Tbar.sc" unicode="&#xe070;" horiz-adv-x="497" 
d="M470 426h-96l-7 30h-34v-96h99v-103h-99v-142l29 -4v-111h-228v111l29 4v142h-99v103h99v96h-34l-6 -30h-96v151h443v-151z" />
    <glyph glyph-name="Tcommaaccent.sc" unicode="&#xe072;" horiz-adv-x="497" 
d="M470 426h-96l-7 30h-34v-341l29 -4v-111h-228v111l29 4v341h-34l-6 -30h-96v151h443v-151zM351 -58l-87 -141h-150l57 141h180z" />
    <glyph glyph-name="U.sc" unicode="&#xe030;" horiz-adv-x="563" 
d="M535 467l-29 -5v-246c0 -127 -63 -228 -225 -228s-224 101 -224 228v246l-29 5v110h197v-357c0 -79 9 -106 56 -106c48 0 57 28 57 106v357h197v-110z" />
    <glyph glyph-name="Uacute.sc" unicode="&#xe031;" horiz-adv-x="563" 
d="M535 467l-29 -5v-246c0 -127 -63 -228 -225 -228s-224 101 -224 228v246l-29 5v110h197v-357c0 -79 9 -106 56 -106c48 0 57 28 57 106v357h197v-110zM468 778l-131 -140h-159l100 140h190z" />
    <glyph glyph-name="Ubreve.sc" unicode="&#xe073;" horiz-adv-x="563" 
d="M535 467l-29 -5v-246c0 -127 -63 -228 -225 -228s-224 101 -224 228v246l-29 5v110h197v-357c0 -79 9 -106 56 -106c48 0 57 28 57 106v357h197v-110zM470 785c-16 -109 -98 -151 -190 -151c-90 0 -173 42 -190 151h112c7 -53 37 -67 78 -67c43 0 72 14 80 67h110z" />
    <glyph glyph-name="Ucircumflex.sc" unicode="&#xe032;" horiz-adv-x="563" 
d="M535 467l-29 -5v-246c0 -127 -63 -228 -225 -228s-224 101 -224 228v246l-29 5v110h197v-357c0 -79 9 -106 56 -106c48 0 57 28 57 106v357h197v-110zM489 638h-146l-62 75l-61 -75h-146l103 140h209z" />
    <glyph glyph-name="Udieresis.sc" unicode="&#xe033;" horiz-adv-x="563" 
d="M535 467l-29 -5v-246c0 -127 -63 -228 -225 -228s-224 101 -224 228v246l-29 5v110h197v-357c0 -79 9 -106 56 -106c48 0 57 28 57 106v357h197v-110zM461 644h-142v127h142v-127zM243 644v127h-142v-127h142z" />
    <glyph glyph-name="Uhungarumlaut.sc" unicode="&#xe074;" horiz-adv-x="563" 
d="M535 467l-29 -5v-246c0 -127 -63 -228 -225 -228s-224 101 -224 228v246l-29 5v110h197v-357c0 -79 9 -106 56 -106c48 0 57 28 57 106v357h197v-110zM613 779l-131 -141h-149l100 141h180zM365 779h-180l-100 -141h149z" />
    <glyph glyph-name="Ugrave.sc" unicode="&#xe034;" horiz-adv-x="563" 
d="M535 467l-29 -5v-246c0 -127 -63 -228 -225 -228s-224 101 -224 228v246l-29 5v110h197v-357c0 -79 9 -106 56 -106c48 0 57 28 57 106v357h197v-110zM382 638h-159l-131 140h190z" />
    <glyph glyph-name="Umacron.sc" unicode="&#xe075;" horiz-adv-x="563" 
d="M535 467l-29 -5v-246c0 -127 -63 -228 -225 -228s-224 101 -224 228v246l-29 5v110h197v-357c0 -79 9 -106 56 -106c48 0 57 28 57 106v357h197v-110zM456 647h-350v106h350v-106z" />
    <glyph glyph-name="Uogonek.sc" unicode="&#xe076;" horiz-adv-x="563" 
d="M535 467l-29 -5v-246c0 -110 -47 -200 -164 -222c-35 -24 -42 -45 -42 -61c0 -30 12 -44 47 -44c25 0 52 3 69 4v-84c-33 -11 -81 -19 -131 -19c-87 0 -140 35 -140 108c0 32 13 69 52 101c-100 29 -140 115 -140 217v246l-29 5v110h197v-357c0 -79 9 -106 56 -106
c48 0 57 28 57 106v357h197v-110z" />
    <glyph glyph-name="Uring.sc" unicode="&#xe077;" horiz-adv-x="563" 
d="M535 467l-29 -5v-246c0 -127 -63 -228 -225 -228s-224 101 -224 228v246l-29 5v110h197v-357c0 -79 9 -106 56 -106c48 0 57 28 57 106v357h197v-110zM417 745c0 -77 -58 -123 -136 -123s-136 46 -136 123c0 78 58 124 136 124s136 -46 136 -124zM329 745
c0 33 -19 49 -48 49c-28 0 -48 -16 -48 -49c0 -32 19 -48 48 -48s48 16 48 48z" />
    <glyph glyph-name="Utilde.sc" unicode="&#xe078;" horiz-adv-x="563" 
d="M535 467l-29 -5v-246c0 -127 -63 -228 -225 -228s-224 101 -224 228v246l-29 5v110h197v-357c0 -79 9 -106 56 -106c48 0 57 28 57 106v357h197v-110zM485 767c0 -93 -51 -131 -115 -131c-30 0 -63 5 -95 27l-25 18c-14 11 -25 19 -39 19c-19 0 -24 -10 -24 -35v-27h-109
v27c0 93 53 132 118 132c31 0 63 -6 95 -29l25 -18c15 -11 25 -17 40 -17c17 0 22 10 22 34v27h107v-27z" />
    <glyph glyph-name="V.sc" unicode="&#xe035;" horiz-adv-x="559" 
d="M535 467l-35 -5l-88 -462h-266l-88 462l-34 5v110h184l57 -359c5 -35 9 -83 13 -115h2c3 32 9 80 14 115l56 359h185v-110z" />
    <glyph glyph-name="W.sc" unicode="&#xe036;" horiz-adv-x="726" 
d="M701 467l-30 -5l-60 -462h-189l-44 203c-6 26 -10 63 -12 86h-5c-3 -23 -8 -60 -14 -86l-43 -203h-190l-60 462l-30 5v110h182l26 -270c3 -35 5 -74 7 -104h4c4 29 10 68 15 97l29 126h152l28 -126c6 -30 11 -64 15 -97h5c2 33 4 71 7 104l26 270h181v-110z" />
    <glyph glyph-name="Wacute.sc" unicode="&#xe079;" horiz-adv-x="726" 
d="M701 467l-30 -5l-60 -462h-189l-44 203c-6 26 -10 63 -12 86h-5c-3 -23 -8 -60 -14 -86l-43 -203h-190l-60 462l-30 5v110h182l26 -270c3 -35 5 -74 7 -104h4c4 29 10 68 15 97l29 126h152l28 -126c6 -30 11 -64 15 -97h5c2 33 4 71 7 104l26 270h181v-110zM562 778
l-131 -140h-159l100 140h190z" />
    <glyph glyph-name="Wcircumflex.sc" unicode="&#xe07a;" horiz-adv-x="726" 
d="M701 467l-30 -5l-60 -462h-189l-44 203c-6 26 -10 63 -12 86h-5c-3 -23 -8 -60 -14 -86l-43 -203h-190l-60 462l-30 5v110h182l26 -270c3 -35 5 -74 7 -104h4c4 29 10 68 15 97l29 126h152l28 -126c6 -30 11 -64 15 -97h5c2 33 4 71 7 104l26 270h181v-110zM571 638h-146
l-62 75l-61 -75h-146l103 140h209z" />
    <glyph glyph-name="Wdieresis.sc" unicode="&#xe07b;" horiz-adv-x="726" 
d="M701 467l-30 -5l-60 -462h-189l-44 203c-6 26 -10 63 -12 86h-5c-3 -23 -8 -60 -14 -86l-43 -203h-190l-60 462l-30 5v110h182l26 -270c3 -35 5 -74 7 -104h4c4 29 10 68 15 97l29 126h152l28 -126c6 -30 11 -64 15 -97h5c2 33 4 71 7 104l26 270h181v-110zM543 644h-142
v127h142v-127zM325 644v127h-142v-127h142z" />
    <glyph glyph-name="Wgrave.sc" unicode="&#xe07c;" horiz-adv-x="726" 
d="M701 467l-30 -5l-60 -462h-189l-44 203c-6 26 -10 63 -12 86h-5c-3 -23 -8 -60 -14 -86l-43 -203h-190l-60 462l-30 5v110h182l26 -270c3 -35 5 -74 7 -104h4c4 29 10 68 15 97l29 126h152l28 -126c6 -30 11 -64 15 -97h5c2 33 4 71 7 104l26 270h181v-110zM466 638h-159
l-131 140h190z" />
    <glyph glyph-name="X.sc" unicode="&#xe037;" horiz-adv-x="522" 
d="M498 0h-173l-70 151l-66 -151h-165v112l43 5l89 185l-86 159l-42 6v110h178l68 -143l62 143h159v-110l-42 -7l-85 -174l83 -168l47 -6v-112z" />
    <glyph glyph-name="Y.sc" unicode="&#xe038;" horiz-adv-x="507" 
d="M483 467l-43 -7l-104 -249v-99l29 -4v-108h-225v108l31 4v99l-104 249l-43 7v110h164l42 -134c10 -31 17 -64 23 -88h1c7 24 13 57 23 88l44 134h162v-110z" />
    <glyph glyph-name="Yacute.sc" unicode="&#xe039;" horiz-adv-x="507" 
d="M483 467l-43 -7l-104 -249v-99l29 -4v-108h-225v108l31 4v99l-104 249l-43 7v110h164l42 -134c10 -31 17 -64 23 -88h1c7 24 13 57 23 88l44 134h162v-110zM452 778l-131 -140h-159l100 140h190z" />
    <glyph glyph-name="Ycircumflex.sc" unicode="&#xe07d;" horiz-adv-x="507" 
d="M483 467l-43 -7l-104 -249v-99l29 -4v-108h-225v108l31 4v99l-104 249l-43 7v110h164l42 -134c10 -31 17 -64 23 -88h1c7 24 13 57 23 88l44 134h162v-110zM462 638h-146l-62 75l-61 -75h-146l103 140h209z" />
    <glyph glyph-name="Ydieresis.sc" unicode="&#xe03a;" horiz-adv-x="507" 
d="M483 467l-43 -7l-104 -249v-99l29 -4v-108h-225v108l31 4v99l-104 249l-43 7v110h164l42 -134c10 -31 17 -64 23 -88h1c7 24 13 57 23 88l44 134h162v-110zM434 644h-142v127h142v-127zM216 644v127h-142v-127h142z" />
    <glyph glyph-name="Ygrave.sc" unicode="&#xe07e;" horiz-adv-x="507" 
d="M483 467l-43 -7l-104 -249v-99l29 -4v-108h-225v108l31 4v99l-104 249l-43 7v110h164l42 -134c10 -31 17 -64 23 -88h1c7 24 13 57 23 88l44 134h162v-110zM356 638h-159l-131 140h190z" />
    <glyph glyph-name="Z.sc" unicode="&#xe03b;" horiz-adv-x="438" 
d="M411 0h-383v120l183 335h-78l-7 -31h-94v153h375v-125l-181 -330h83l8 32h94v-154z" />
    <glyph glyph-name="Zacute.sc" unicode="&#xe07f;" horiz-adv-x="438" 
d="M411 0h-383v120l183 335h-78l-7 -31h-94v153h375v-125l-181 -330h83l8 32h94v-154zM438 778l-131 -140h-159l100 140h190z" />
    <glyph glyph-name="Zcaron.sc" unicode="&#xe03c;" horiz-adv-x="438" 
d="M411 0h-383v120l183 335h-78l-7 -31h-94v153h375v-125l-181 -330h83l8 32h94v-154zM434 778l-103 -140h-209l-103 140h146l61 -74l62 74h146z" />
    <glyph glyph-name="Zdotaccent.sc" unicode="&#xe080;" horiz-adv-x="438" 
d="M411 0h-383v120l183 335h-78l-7 -31h-94v153h375v-125l-181 -330h83l8 32h94v-154zM327 647h-186v125h186v-125z" />
    <glyph glyph-name="ampersand.sc" unicode="&#xe08c;" horiz-adv-x="574" 
d="M529 0h-141l-18 20c-31 -17 -81 -31 -142 -31c-108 0 -197 35 -197 152v6c0 68 32 112 100 155l-7 9c-44 55 -66 95 -66 143v6c0 96 65 138 195 138c69 0 149 -13 183 -22v-131h-98l-7 37h-71c-31 0 -49 -8 -49 -32v-6c0 -24 13 -43 31 -66l151 -188c8 26 10 60 11 93
l-29 6v73h170v-73l-29 -6c0 -77 -15 -138 -45 -182l58 -72v-29zM300 99l-83 104c-20 -14 -28 -31 -28 -56v-7c0 -38 28 -52 61 -52c19 0 37 5 50 11z" />
    <glyph glyph-name="ampersandalt.sc" unicode="&#xe451;" horiz-adv-x="574" 
d="M529 0h-144l-18 20c-28 -17 -82 -30 -139 -30c-114 0 -198 36 -198 153v5c0 69 32 115 101 154l-9 11c-43 55 -65 93 -65 141v6c0 95 65 139 200 139c136 0 196 -44 196 -139v-6c0 -49 -15 -115 -134 -174l74 -90c9 25 10 43 11 75v15h111v-16c0 -51 -7 -110 -44 -163
l58 -72v-29zM300 99l-83 104c-19 -14 -29 -30 -29 -57v-4c0 -39 29 -54 61 -54c20 0 39 5 51 11zM303 442v4c0 29 -15 41 -46 41s-46 -12 -46 -40v-4c0 -27 10 -44 31 -71l10 -12c43 35 51 54 51 82z" />
    <glyph glyph-name="exclam.sc" unicode="&#xe08b;" horiz-adv-x="248" 
d="M207 0h-166v136h166v-136zM214 604l-15 -420h-151l-14 420h180z" />
    <glyph glyph-name="exclamdown.sc" unicode="&#xe08f;" horiz-adv-x="248" 
d="M214 -27h-180l14 420h151zM207 577v-136h-166v136h166z" />
    <glyph glyph-name="questiondown.sc" unicode="&#xe094;" horiz-adv-x="400" 
d="M138 577h166v-137h-166v137zM27 95c0 43 9 84 63 148c52 62 65 81 65 131v16h134v-16c0 -62 -2 -95 -36 -147c-32 -49 -43 -76 -43 -100v-4c0 -25 10 -35 47 -35c8 0 16 0 21 1l7 32h83v-130c-44 -18 -109 -27 -177 -27c-105 0 -164 38 -164 125v6z" />
    <glyph glyph-name="question.sc" unicode="&#xe08d;" horiz-adv-x="399" 
d="M257 0h-166v137h166v-137zM368 482c0 -43 -9 -84 -63 -148c-52 -62 -65 -81 -65 -131v-16h-134v16c0 62 2 95 36 147c32 49 43 76 43 100v4c0 25 -10 35 -47 35c-8 0 -16 0 -21 -1l-7 -32h-83v130c44 18 109 27 177 27c105 0 164 -38 164 -125v-6z" />
    <glyph glyph-name="Acute" unicode="&#xf6c9;" horiz-adv-x="377" 
d="M349 924l-131 -140h-159l100 140h190z" />
    <glyph glyph-name="Aringacute" unicode="&#x1fa;" horiz-adv-x="660" 
d="M455 849c0 -68 -65 -95 -136 -95c-72 0 -137 27 -137 95c0 69 65 95 137 95c71 0 136 -26 136 -95zM370 850c0 23 -24 31 -51 31c-29 0 -52 -8 -52 -31s23 -32 52 -32c27 0 51 9 51 32zM499 1053l-113 -98h-159l82 98h190zM283 0h-260v127l38 4l93 480l-39 5v127h362
l120 -612l39 -4v-127h-260v127l26 3l-8 47h-129l-8 -47l26 -3v-127zM378 316l-31 184c-6 39 -12 83 -16 119h-3c-5 -36 -9 -79 -16 -119l-31 -184h97z" />
    <glyph glyph-name="Breve" unicode="&#xf71d;" horiz-adv-x="439" 
d="M409 932c-16 -109 -98 -151 -190 -151c-90 0 -173 42 -190 151h112c7 -53 37 -67 78 -67c43 0 72 14 80 67h110z" />
    <glyph glyph-name="Caron" unicode="&#xf6ca;" horiz-adv-x="453" 
d="M434 924l-103 -140h-209l-103 140h146l61 -74l62 74h146z" />
    <glyph glyph-name="Cedilla" unicode="&#xf722;" horiz-adv-x="354" 
d="M297 -58l-108 -141h-156l81 141h183z" />
    <glyph glyph-name="Circumflex" unicode="&#xf71e;" horiz-adv-x="453" 
d="M434 784h-146l-62 75l-61 -75h-146l103 140h209z" />
    <glyph glyph-name="Dieresis" unicode="&#xf6cb;" horiz-adv-x="431" 
d="M401 792h-142v127h142v-127zM172 792v127h-142v-127h142z" />
    <glyph glyph-name="DieresisAcute" unicode="&#xf6cc;" horiz-adv-x="572" 
d="M570 793h-134v127h134v-127zM236 928h183l-112 -147h-152zM137 793h-135v127h135v-127z" />
    <glyph glyph-name="DieresisGrave" unicode="&#xf6cd;" horiz-adv-x="572" 
d="M570 793h-135v127h135v-127zM335 928l82 -147h-152l-112 147h182zM136 793h-134v127h134v-127z" />
    <glyph glyph-name="Dotaccent" unicode="&#xf71a;" horiz-adv-x="316" 
d="M251 802h-186v125h186v-125z" />
    <glyph glyph-name="Euro.taboldstyle" unicode="&#xe430;" horiz-adv-x="518" 
d="M477 5c-37 -11 -111 -19 -151 -19c-149 0 -234 50 -244 217h-42v62h40v58h-40v61h42c9 173 91 223 246 223c49 0 111 -8 149 -18v-152h-88l-8 30h-24c-54 0 -81 -11 -86 -83h173l-12 -61h-164v-58h153l-12 -62h-139c5 -65 29 -78 85 -78c34 0 78 3 122 5v-125z" />
    <glyph glyph-name="Grave" unicode="&#xf6ce;" horiz-adv-x="377" 
d="M316 784h-159l-131 140h190z" />
    <glyph glyph-name="Hungarumlaut" unicode="&#xf6cf;" horiz-adv-x="549" 
d="M352 924l-131 -141h-150l101 141h180zM589 924l-131 -141h-149l100 141h180z" />
    <glyph glyph-name="Macron" unicode="&#xf6d0;" horiz-adv-x="404" 
d="M377 802h-350v106h350v-106z" />
    <glyph glyph-name="Ogonek" unicode="&#xe46c;" horiz-adv-x="364" 
d="M320 -191c-33 -11 -81 -19 -131 -19c-87 0 -140 31 -140 94c0 49 31 92 135 132l136 -16c-100 -38 -116 -62 -116 -81c0 -21 12 -30 47 -30c25 0 52 3 69 4v-84z" />
    <glyph glyph-name="Q.alt" unicode="&#xe23c;" horiz-adv-x="610" 
d="M391 -189h-178v186c-115 27 -180 128 -180 325v99c0 256 112 337 272 337s272 -81 272 -337v-99c0 -202 -69 -302 -186 -327v-184zM305 139c61 0 81 42 81 183v98c0 142 -20 184 -81 184s-81 -42 -81 -184v-98c0 -141 20 -183 81 -183z" />
    <glyph glyph-name="Ring" unicode="&#xf71b;" horiz-adv-x="352" 
d="M312 887c0 -77 -58 -123 -136 -123s-136 46 -136 123c0 78 58 124 136 124s136 -46 136 -124zM224 887c0 33 -19 49 -48 49c-28 0 -48 -16 -48 -49c0 -32 19 -48 48 -48s48 16 48 48z" />
    <glyph glyph-name="T_h" unicode="&#xfb10;" horiz-adv-x="1042" 
d="M1017 0h-219v380c0 51 -9 65 -42 65c-23 0 -47 -8 -65 -19v-293l35 -5v-128h-254v128l36 5v464h-119v-465l38 -5v-127h-270v127l37 5v465h-47l-8 -39h-114v185h666v-191c37 22 88 35 130 35c144 0 160 -93 160 -205v-249l36 -5v-128z" />
    <glyph glyph-name="T_h.caron" unicode="&#xfb11;" horiz-adv-x="1042" 
d="M1017 0h-219v380c0 51 -9 65 -42 65c-23 0 -47 -8 -65 -19v-293l35 -5v-128h-254v128l36 5v464h-119v-465l38 -5v-127h-270v127l37 5v465h-47l-8 -39h-114v185h666v-191c37 22 88 35 130 35c144 0 160 -93 160 -205v-249l36 -5v-128zM499 924l-103 -140h-209l-103 140
h146l61 -74l62 74h146z" />
    <glyph glyph-name="T_h.commaaccent" unicode="&#xfb12;" horiz-adv-x="1042" 
d="M1017 0h-219v380c0 51 -9 65 -42 65c-23 0 -47 -8 -65 -19v-293l35 -5v-128h-254v128l36 5v464h-119v-465l38 -5v-127h-270v127l37 5v465h-47l-8 -39h-114v185h666v-191c37 22 88 35 130 35c144 0 160 -93 160 -205v-249l36 -5v-128zM386 -58l-87 -141h-150l57 141h180z
" />
    <glyph glyph-name="Tilde" unicode="&#xf71c;" horiz-adv-x="436" 
d="M422 912c0 -93 -51 -131 -115 -131c-30 0 -63 5 -95 27l-25 18c-14 11 -25 19 -39 19c-19 0 -24 -10 -24 -35v-27h-109v27c0 93 53 132 118 132c31 0 63 -6 95 -29l25 -18c15 -11 25 -17 40 -17c17 0 22 10 22 34v27h107v-27z" />
    <glyph glyph-name="a.alt" unicode="&#xe245;" horiz-adv-x="561" 
d="M534 0h-197v27c-36 -25 -78 -39 -132 -39c-127 0 -175 93 -175 253v88c0 190 64 256 260 256c58 0 136 -3 208 -11v-444l36 -4v-126zM323 140v306c-17 2 -35 2 -44 2c-52 0 -69 -15 -69 -119v-88c0 -89 10 -113 58 -113c19 0 39 5 55 12z" />
    <glyph glyph-name="a.alt2" unicode="&#xe43e;" horiz-adv-x="526" 
d="M502 0h-196v31c-31 -21 -84 -42 -139 -42c-107 0 -139 69 -139 159v29c0 143 99 162 233 162h25v38c0 63 -9 74 -70 74c-47 0 -103 -4 -155 -9v109c39 14 114 34 198 34c142 0 207 -48 207 -208v-247l36 -4v-126zM295 120v131h-31c-49 0 -66 -10 -66 -70v-29
c0 -37 12 -48 38 -48c23 0 45 8 59 16z" />
    <glyph glyph-name="aacute.alt" unicode="&#xe281;" horiz-adv-x="561" 
d="M534 0h-197v27c-36 -25 -78 -39 -132 -39c-127 0 -175 93 -175 253v88c0 190 64 256 260 256c58 0 136 -3 208 -11v-444l36 -4v-126zM323 140v306c-17 2 -35 2 -44 2c-52 0 -69 -15 -69 -119v-88c0 -89 10 -113 58 -113c19 0 39 5 55 12zM489 773l-131 -140h-159l100 140
h190z" />
    <glyph glyph-name="abreve.alt" unicode="&#xe441;" horiz-adv-x="561" 
d="M534 0h-197v27c-36 -25 -78 -39 -132 -39c-127 0 -175 93 -175 253v88c0 190 64 256 260 256c58 0 136 -3 208 -11v-444l36 -4v-126zM323 140v306c-17 2 -35 2 -44 2c-52 0 -69 -15 -69 -119v-88c0 -89 10 -113 58 -113c19 0 39 5 55 12zM468 781
c-16 -109 -98 -151 -190 -151c-90 0 -173 42 -190 151h112c7 -53 37 -67 78 -67c43 0 72 14 80 67h110z" />
    <glyph glyph-name="acircumflex.alt" unicode="&#xe283;" horiz-adv-x="561" 
d="M534 0h-197v27c-36 -25 -78 -39 -132 -39c-127 0 -175 93 -175 253v88c0 190 64 256 260 256c58 0 136 -3 208 -11v-444l36 -4v-126zM323 140v306c-17 2 -35 2 -44 2c-52 0 -69 -15 -69 -119v-88c0 -89 10 -113 58 -113c19 0 39 5 55 12zM481 633h-146l-62 75l-61 -75
h-146l103 140h209z" />
    <glyph glyph-name="adieresis.alt" unicode="&#xe284;" horiz-adv-x="561" 
d="M534 0h-197v27c-36 -25 -78 -39 -132 -39c-127 0 -175 93 -175 253v88c0 190 64 256 260 256c58 0 136 -3 208 -11v-444l36 -4v-126zM323 140v306c-17 2 -35 2 -44 2c-52 0 -69 -15 -69 -119v-88c0 -89 10 -113 58 -113c19 0 39 5 55 12zM448 641h-142v127h142v-127z
M230 641v127h-142v-127h142z" />
    <glyph glyph-name="afii61352" unicode="&#x2116;" horiz-adv-x="1112" 
d="M1083 71h-419v103h419v-103zM1084 473c0 -183 -73 -254 -210 -254s-209 71 -209 254v31c0 186 75 254 209 254c135 0 210 -68 210 -254v-31zM926 473v30c0 99 -9 132 -52 132c-44 0 -52 -33 -52 -132v-30c0 -98 8 -131 52 -131c43 0 52 33 52 131zM389 743h247v-127
l-37 -4v-612h-191l-139 340c-11 27 -26 63 -37 96h-2c3 -37 5 -81 5 -118v-187l36 -4v-127h-243v127l34 4v481l-34 4v127h220l141 -329c14 -34 29 -70 39 -102h2c-3 36 -5 92 -5 129v171l-36 4v127z" />
    <glyph glyph-name="agrave.alt" unicode="&#xe282;" horiz-adv-x="561" 
d="M534 0h-197v27c-36 -25 -78 -39 -132 -39c-127 0 -175 93 -175 253v88c0 190 64 256 260 256c58 0 136 -3 208 -11v-444l36 -4v-126zM323 140v306c-17 2 -35 2 -44 2c-52 0 -69 -15 -69 -119v-88c0 -89 10 -113 58 -113c19 0 39 5 55 12zM370 633h-159l-131 140h190z" />
    <glyph glyph-name="amacron.alt" unicode="&#xe440;" horiz-adv-x="561" 
d="M534 0h-197v27c-36 -25 -78 -39 -132 -39c-127 0 -175 93 -175 253v88c0 190 64 256 260 256c58 0 136 -3 208 -11v-444l36 -4v-126zM323 140v306c-17 2 -35 2 -44 2c-52 0 -69 -15 -69 -119v-88c0 -89 10 -113 58 -113c19 0 39 5 55 12zM452 647h-350v106h350v-106z" />
    <glyph glyph-name="ampersand.alt" unicode="&#xe43d;" horiz-adv-x="674" 
d="M632 0h-168l-24 26c-33 -22 -94 -40 -170 -40c-129 0 -238 44 -238 192v6c0 84 39 144 122 201l-9 11c-54 70 -82 111 -82 176v8c0 120 79 178 236 178s233 -58 233 -178v-8c0 -78 -37 -143 -158 -217l94 -122c9 36 14 76 14 123v15h130v-15c0 -99 -16 -173 -54 -231
l74 -93v-32zM361 120l-110 146c-28 -22 -37 -49 -37 -83v-6c0 -53 34 -73 79 -73c29 0 53 7 68 16zM355 565v8c0 39 -19 51 -56 51s-58 -12 -58 -51v-8c0 -36 8 -56 39 -92l14 -17c54 48 61 74 61 109z" />
    <glyph glyph-name="aogonek.alt" unicode="&#xe443;" horiz-adv-x="561" 
d="M534 -191c-33 -11 -81 -19 -131 -19c-87 0 -140 31 -140 94c0 43 23 81 97 116h-23v27c-36 -25 -78 -39 -132 -39c-127 0 -175 93 -175 253v88c0 190 64 256 260 256c58 0 136 -3 208 -11v-444l36 -4v-126c-100 -38 -116 -62 -116 -81c0 -21 12 -30 47 -30
c25 0 52 3 69 4v-84zM323 140v306c-17 2 -35 2 -44 2c-52 0 -69 -15 -69 -119v-88c0 -89 10 -113 58 -113c19 0 39 5 55 12z" />
    <glyph glyph-name="aring.alt" unicode="&#xe286;" horiz-adv-x="558" 
d="M424 738c0 -77 -58 -123 -136 -123s-136 46 -136 123c0 78 58 124 136 124s136 -46 136 -124zM336 738c0 33 -19 49 -48 49c-28 0 -48 -16 -48 -49c0 -32 19 -48 48 -48s48 16 48 48zM532 0h-197v27c-36 -25 -78 -39 -132 -39c-127 0 -175 93 -175 253v88
c0 190 64 256 260 256c58 0 136 -3 208 -11v-444l36 -4v-126zM321 140v306c-17 2 -35 2 -44 2c-52 0 -69 -15 -69 -119v-88c0 -89 10 -113 58 -113c19 0 39 5 55 12z" />
    <glyph glyph-name="aringacute" unicode="&#x1fb;" horiz-adv-x="529" 
d="M503 0h-196v31c-30 -21 -83 -43 -138 -43c-108 0 -140 69 -140 159v31c0 142 99 161 233 161h26v38c0 63 -10 74 -71 74h-33l-8 -39h-114v139c28 10 112 34 198 34c142 0 208 -48 208 -208v-247l35 -4v-126zM297 120v131h-32c-49 0 -65 -10 -65 -69v-30
c0 -38 12 -48 38 -48c23 0 45 8 59 16zM407 720c0 -77 -58 -123 -136 -123s-136 46 -136 123c0 78 58 124 136 124s136 -46 136 -124zM319 720c0 33 -19 49 -48 49c-28 0 -48 -16 -48 -49c0 -32 19 -48 48 -48s48 16 48 48zM469 998l-131 -140h-159l100 140h190z" />
    <glyph glyph-name="aringacute.alt" unicode="&#xe442;" horiz-adv-x="558" 
d="M428 727c0 -77 -58 -123 -136 -123s-136 46 -136 123c0 78 58 124 136 124s136 -46 136 -124zM340 727c0 33 -19 49 -48 49c-28 0 -48 -16 -48 -49c0 -32 19 -48 48 -48s48 16 48 48zM532 0h-197v27c-36 -25 -78 -39 -132 -39c-127 0 -175 93 -175 253v88
c0 190 64 256 260 256c58 0 136 -3 208 -11v-444l36 -4v-126zM321 140v306c-17 2 -35 2 -44 2c-52 0 -69 -15 -69 -119v-88c0 -89 10 -113 58 -113c19 0 39 5 55 12zM498 1010l-131 -140h-159l100 140h190z" />
    <glyph glyph-name="a.superior" unicode="&#xf6e9;" horiz-adv-x="369" 
d="M340 314h-130v21c-19 -13 -51 -28 -90 -28c-69 0 -91 43 -91 98v17c0 91 68 97 152 97h16v22c0 34 -6 41 -43 41h-22l-4 -22h-76v87c18 7 74 23 131 23c92 0 135 -30 135 -131v-139l22 -3v-83zM203 390v74h-20c-29 0 -39 -4 -39 -40v-15c0 -22 9 -28 24 -28
c14 0 27 6 35 9z" />
    <glyph glyph-name="at.cap" unicode="&#xe138;" horiz-adv-x="720" 
d="M690 465c0 -198 -91 -333 -317 -333c-142 0 -193 54 -194 157c0 22 1 54 3 78c11 158 74 217 196 217c57 0 113 -11 152 -23l-27 -317c65 34 97 112 97 222c0 140 -68 221 -212 221c-151 0 -232 -106 -260 -308c-5 -38 -10 -80 -10 -125c0 -137 63 -214 222 -214
c62 0 126 7 154 10v-60c-20 -4 -90 -17 -154 -17c-211 0 -310 99 -310 281c0 49 5 96 11 136c37 240 149 368 347 368c187 0 302 -102 302 -293zM394 487c-8 2 -17 2 -26 2c-33 0 -51 -21 -59 -125c-3 -34 -3 -55 -3 -75c0 -50 12 -67 49 -67c7 0 12 0 19 1z" />
    <glyph glyph-name="atilde.alt" unicode="&#xe285;" horiz-adv-x="561" 
d="M534 0h-197v27c-36 -25 -78 -39 -132 -39c-127 0 -175 93 -175 253v88c0 190 64 256 260 256c58 0 136 -3 208 -11v-444l36 -4v-126zM323 140v306c-17 2 -35 2 -44 2c-52 0 -69 -15 -69 -119v-88c0 -89 10 -113 58 -113c19 0 39 5 55 12zM484 761
c0 -93 -51 -131 -115 -131c-30 0 -63 5 -95 27l-25 18c-14 11 -25 19 -39 19c-19 0 -24 -10 -24 -35v-27h-109v27c0 93 53 132 118 132c31 0 63 -6 95 -29l25 -18c15 -11 25 -17 40 -17c17 0 22 10 22 34v27h107v-27z" />
    <glyph glyph-name="braceleft.cap" unicode="&#xe139;" horiz-adv-x="333" 
d="M308 0h-43c-158 0 -202 40 -202 165v78c0 56 -12 69 -39 90v77c27 21 39 34 39 91v76c0 127 44 166 202 166h43v-117h-39c-41 0 -47 -5 -47 -49v-76c0 -72 -20 -101 -59 -130c39 -28 59 -57 59 -128v-78c0 -44 6 -48 47 -48h39v-117z" />
    <glyph glyph-name="braceright.cap" unicode="&#xe13a;" horiz-adv-x="333" 
d="M308 333c-26 -21 -39 -34 -39 -90v-78c0 -125 -44 -165 -202 -165h-43v117h39c41 0 47 4 47 48v78c0 71 20 100 60 128c-40 29 -60 58 -60 130v76c0 44 -6 49 -47 49h-39v117h43c158 0 202 -39 202 -166v-76c0 -57 13 -70 39 -91v-77z" />
    <glyph glyph-name="bracketleft.cap" unicode="&#xe13b;" horiz-adv-x="303" 
d="M275 0h-237v743h237v-116h-80v-511h80v-116z" />
    <glyph glyph-name="bracketright.cap" unicode="&#xe13c;" horiz-adv-x="303" 
d="M265 0h-237v116h80v511h-80v116h237v-743z" />
    <glyph glyph-name="b.superior" unicode="&#xf6ea;" horiz-adv-x="384" 
d="M355 472c0 -120 -49 -165 -167 -165c-40 0 -77 2 -140 9v382l-23 3v82h143v-120c11 5 27 7 44 7c104 0 143 -53 143 -158v-40zM234 472v40c0 55 -6 67 -39 67c-7 0 -21 -1 -30 -6v-173c7 -1 17 -2 27 -2c33 0 42 11 42 74z" />
    <glyph glyph-name="cent.denominator" unicode="&#xe119;" horiz-adv-x="337" 
d="M310 3c-16 -5 -43 -10 -70 -12v-76h-108v82c-68 20 -106 77 -106 201v49c0 121 36 180 106 199v78h108v-71c28 -2 55 -7 70 -11v-122h-72l-5 28h-13c-43 0 -62 -16 -62 -101v-49c0 -85 18 -101 65 -101c17 0 64 2 87 4v-98z" />
    <glyph glyph-name="cent.numerator" unicode="&#xe12d;" horiz-adv-x="337" 
d="M310 309c-16 -5 -43 -10 -70 -11v-76h-108v82c-68 19 -106 76 -106 201v48c0 121 36 181 106 200v78h108v-71c28 -3 55 -8 70 -12v-122h-72l-5 28h-13c-43 0 -62 -16 -62 -101v-48c0 -86 18 -102 65 -102c17 0 65 2 87 4v-98z" />
    <glyph glyph-name="cent.taboldstyle" unicode="&#xe500;" horiz-adv-x="483" 
d="M441 6c-23 -8 -68 -14 -103 -17v-101h-143v109c-111 30 -153 111 -153 261v77c0 145 44 232 153 260v102h143v-94c32 -2 80 -8 103 -15v-162h-96l-8 39c-6 0 -13 1 -20 1c-64 0 -88 -20 -88 -131v-77c0 -111 24 -131 88 -131c44 0 85 3 124 6v-127z" />
    <glyph glyph-name="cent.inferior" unicode="&#xf6df;" horiz-adv-x="337" 
d="M310 4c-16 -5 -43 -10 -70 -12v-76h-108v82c-68 20 -106 77 -106 201v48c0 122 36 181 106 200v78h108v-71c28 -2 55 -7 70 -11v-122h-72l-5 28h-13c-43 0 -62 -16 -62 -102v-48c0 -85 18 -101 65 -101c17 0 65 2 87 4v-98z" />
    <glyph glyph-name="cent.oldstyle" unicode="&#xf7a2;" horiz-adv-x="494" 
d="M446 6c-23 -8 -68 -14 -103 -17v-101h-143v109c-111 30 -152 111 -152 261v77c0 145 43 232 152 260v102h144v-94c31 -2 80 -8 102 -15v-162h-95l-9 39c-6 0 -12 1 -19 1c-64 0 -89 -20 -89 -131v-77c0 -111 25 -131 89 -131c43 0 84 3 123 6v-127z" />
    <glyph glyph-name="cent.superior" unicode="&#xf6e0;" horiz-adv-x="337" 
d="M311 306c-15 -5 -42 -10 -70 -12v-76h-108v83c-67 19 -106 76 -106 200v49c0 121 37 181 106 200v78h108v-72c28 -2 56 -6 70 -11v-122h-72l-4 28h-13c-44 0 -62 -16 -62 -101v-49c0 -85 18 -101 64 -101c15 0 60 2 87 4v-98z" />
    <glyph glyph-name="colonmonetary" unicode="&#x20a1;" horiz-adv-x="444" 
d="M420 12c-13 -5 -34 -10 -59 -14v-110h-88v100h-21c-14 0 -26 1 -37 3v-103h-87v127c-68 36 -97 113 -97 230v84c0 116 29 192 97 230v121h87v-97c11 1 23 2 37 2h21v95h88v-104c27 -5 47 -10 59 -14v-153h-109l-8 37h-19c-56 0 -75 -18 -75 -117v-84
c0 -99 19 -118 75 -118c38 0 91 3 136 6v-121z" />
    <glyph glyph-name="colonmonetary.taboldstyle" unicode="&#xe437;" horiz-adv-x="483" 
d="M441 6c-13 -5 -38 -9 -60 -12v-98h-81v91h-14c-18 0 -36 1 -50 3v-94h-81v118c-80 37 -112 117 -112 244v77c0 127 32 206 112 244v109h81v-84c15 2 35 3 50 3h14v81h81v-89c22 -3 43 -7 60 -11v-162h-96l-8 39h-20c-63 0 -88 -19 -88 -130v-77c0 -111 25 -130 88 -130
c41 0 90 2 124 5v-127z" />
    <glyph glyph-name="comma.denominator" unicode="&#xe11a;" horiz-adv-x="200" 
d="M172 102l-62 -165h-93l41 165h114z" />
    <glyph glyph-name="comma.numerator" unicode="&#xe130;" horiz-adv-x="200" 
d="M173 405l-63 -165h-93l41 165h115z" />
    <glyph glyph-name="commaaccent" unicode="&#xf6c3;" horiz-adv-x="396" 
d="M310 -58l-87 -141h-150l57 141h180z" />
    <glyph glyph-name="commaaccent.alt" unicode="&#xe504;" horiz-adv-x="396" 
d="M319 779l-58 -141h-180l87 141h151z" />
    <glyph glyph-name="commaaccent.cap" unicode="&#xe46b;" horiz-adv-x="396" 
d="M310 -58l-87 -141h-150l57 141h180z" />
    <glyph glyph-name="comma.inferior" unicode="&#xf6e1;" horiz-adv-x="200" 
d="M173 102l-63 -165h-93l41 165h115z" />
    <glyph glyph-name="comma.superior" unicode="&#xf6e2;" horiz-adv-x="200" 
d="M179 405l-63 -165h-93l42 165h114z" />
    <glyph glyph-name="currency.taboldstyle" unicode="&#xe438;" horiz-adv-x="570" 
d="M544 131l-79 -74l-73 70c-33 -17 -69 -27 -105 -27c-37 0 -72 9 -106 28l-76 -73l-79 74l76 73c-18 31 -27 67 -27 102s8 69 27 101l-77 73l79 73l76 -72c33 19 70 28 107 28s73 -8 106 -27l73 70l78 -75l-74 -70c19 -32 30 -67 30 -101c0 -36 -10 -71 -29 -103zM388 304
c0 62 -46 100 -102 100s-101 -38 -101 -100c0 -68 47 -100 101 -100s102 32 102 100z" />
    <glyph glyph-name="cyrBreve" unicode="&#xf6d1;" horiz-adv-x="439" 
d="M409 781c-16 -109 -98 -151 -190 -151c-90 0 -173 42 -190 151h112c7 -53 37 -67 78 -67c43 0 72 14 80 67h110z" />
    <glyph glyph-name="cyrFlex" unicode="&#xf6d2;" horiz-adv-x="439" 
d="M409 632h-110c-8 53 -37 67 -80 67c-41 0 -71 -14 -78 -67h-112c17 109 100 151 190 151c92 0 174 -42 190 -151z" />
    <glyph glyph-name="cyrbreve" unicode="&#xf6d4;" horiz-adv-x="439" 
d="M409 781c-16 -109 -98 -151 -190 -151c-90 0 -173 42 -190 151h112c7 -53 37 -67 78 -67c43 0 72 14 80 67h110z" />
    <glyph glyph-name="cyrflex" unicode="&#xf6d5;" horiz-adv-x="439" 
d="M409 632h-110c-8 53 -37 67 -80 67c-41 0 -71 -14 -78 -67h-112c17 109 100 151 190 151c92 0 174 -42 190 -151z" />
    <glyph glyph-name="dblGrave" unicode="&#xf6d3;" horiz-adv-x="549" 
d="M522 633h-149l-131 140h180zM274 633l-101 140h-180l131 -140h150z" />
    <glyph glyph-name="dblgrave" unicode="&#xf6d6;" horiz-adv-x="549" 
d="M522 633h-149l-131 140h180zM274 633l-101 140h-180l131 -140h150z" />
    <glyph glyph-name="dieresisacute" unicode="&#x385;" horiz-adv-x="572" 
d="M570 644h-134v127h134v-127zM236 779h183l-112 -147h-152zM137 644h-135v127h135v-127z" />
    <glyph glyph-name="dieresisgrave" unicode="&#x1fed;" horiz-adv-x="572" 
d="M570 644h-135v127h135v-127zM335 779l82 -147h-152l-112 147h182zM136 644h-134v127h134v-127z" />
    <glyph glyph-name="dollar.denominator" unicode="&#xe11b;" horiz-adv-x="359" 
d="M331 127c0 -70 -37 -116 -99 -131v-81h-109v77c-37 2 -68 8 -88 13v112h73l6 -31c12 0 26 -1 39 -1c41 0 52 13 52 36c0 21 -12 30 -60 59l-19 11c-75 44 -101 77 -101 139c0 63 31 103 98 118v77h109v-72c38 -3 72 -10 91 -15v-109h-74l-6 28c-15 1 -28 1 -42 1
c-31 0 -50 -7 -50 -27c0 -23 11 -26 55 -54l22 -14c67 -42 103 -72 103 -136z" />
    <glyph glyph-name="dollar.numerator" unicode="&#xe131;" horiz-adv-x="359" 
d="M331 429c0 -70 -37 -112 -99 -127v-80h-109v76c-37 2 -68 8 -88 13v112h73l6 -31c17 -1 26 -1 39 -1c35 0 50 8 50 37c0 21 -15 37 -43 53l-48 27c-53 30 -87 66 -87 128c0 63 31 103 98 118v77h109v-72c38 -3 72 -10 91 -15v-109h-74l-6 28c-15 1 -28 1 -42 1
c-31 0 -50 -7 -50 -30c0 -16 12 -26 37 -40l48 -27c62 -35 95 -69 95 -138z" />
    <glyph glyph-name="dollar.taboldstyle" unicode="&#xe42f;" horiz-adv-x="509" 
d="M467 170c0 -98 -49 -157 -141 -176v-98h-143v93c-51 3 -97 11 -128 19v154h98l8 -42h57c47 0 65 12 65 43c0 26 -10 39 -65 68l-51 27c-84 45 -125 91 -125 180c0 91 47 144 141 162v88h143v-84c50 -4 95 -13 123 -20v-147h-98l-9 38c-18 0 -37 1 -54 1
c-41 0 -64 -6 -64 -35c0 -22 9 -37 56 -62l55 -29c94 -51 132 -91 132 -180z" />
    <glyph glyph-name="dollar.inferior" unicode="&#xf6e3;" horiz-adv-x="359" 
d="M331 129c0 -71 -37 -117 -99 -132v-80h-109v76c-37 2 -68 8 -88 13v112h73l6 -31c12 0 26 -1 39 -1c35 0 50 14 50 37c0 21 -14 34 -55 55l-23 12c-55 29 -100 71 -100 141c0 63 31 103 98 118v78h109v-73c38 -3 72 -10 91 -15v-109h-74l-6 28c-15 1 -28 2 -42 2
c-31 0 -50 -8 -50 -31c0 -16 8 -26 43 -44l23 -12c87 -45 114 -81 114 -144z" />
    <glyph glyph-name="dollar.superior" unicode="&#xf6e4;" horiz-adv-x="359" 
d="M333 430c0 -70 -37 -116 -100 -131v-81h-109v77c-36 2 -67 8 -88 13v112h74l6 -31c12 0 25 -1 39 -1c35 0 50 9 50 37c0 25 -20 39 -58 58l-18 9c-55 27 -102 67 -102 141c0 63 31 103 97 118v77h109v-72c39 -3 72 -10 91 -15v-109h-73l-6 28c-15 1 -28 1 -42 1
c-32 0 -51 -7 -51 -31c0 -15 8 -27 54 -50l18 -9c76 -38 109 -78 109 -141z" />
    <glyph glyph-name="dotlessj" unicode="&#xf6be;" horiz-adv-x="287" 
d="M248 -37c0 -128 -51 -175 -168 -175c-43 0 -79 5 -100 11v116c18 -1 32 -1 48 -1c34 0 41 9 41 49v475l-36 5v131h215v-611z" />
    </font>
</defs>
</svg>
